<!-- Creator: CorelDRAW (Versión de evaluación) -->
<svg xmlns="http://www.w3.org/2000/svg" xml:space="preserve" width="446px" height="2062px" version="1.1" style="shape-rendering:geometricPrecision; text-rendering:geometricPrecision; image-rendering:optimizeQuality; fill-rule:evenodd; clip-rule:evenodd"
viewBox="0 0 446 2060.93"
 xmlns:xlink="http://www.w3.org/1999/xlink"
 xmlns:xodm="http://www.corel.com/coreldraw/odm/2003">
 <defs>
  <style type="text/css">
   <![CDATA[
    .str0 {stroke:#E6E7E8;stroke-width:2;stroke-miterlimit:22.9256}
    .fil0 {fill:none}
   ]]>
  </style>
 </defs>
 <g id="missing">
  <metadata id="CorelCorpID_0Corel-Layer"/>
  <path id="outline" class="fil0 str0" d="M420.56 1718.48l-3.6 0 0 -21.58 -3.59 0 0 -28.78 -3.6 0 0 -21.58 -3.6 0 0 -17.98 -3.59 0 0 -17.98 -3.6 0 0 -10.79 -3.6 0 0 -21.58 -3.59 0 0 -17.99 -3.6 0 0 -14.39 -3.6 0 0 -14.38 -3.59 0 0 -14.39 -3.6 0 0 -14.39 -3.6 0 0 -14.38 -3.59 0 0 -14.39 -3.6 0 0 -10.79 -3.6 0 0 -10.79 -3.59 0 0 -7.2 -3.6 0 0 -10.79 -3.6 0 0 -10.79 -3.59 0 0 -7.19 -3.6 0 0 -10.79 -3.6 0 0 -7.19 -3.59 0 0 -3.6 -3.6 0 0 -7.19 -3.6 0 0 -7.2 -3.59 0 0 -3.59 -3.6 0 0 -7.2 -3.6 0 0 -3.59 -3.59 0 0 -3.6 -3.6 0 0 -7.2 -3.6 0 0 -3.59 -3.59 0 0 -3.6 -7.2 0 0 -3.6 -3.59 0 0 -3.59 -3.6 0 0 -3.6 -7.19 0 0 -3.6 -7.2 0 0 -3.59 -3.59 0 0 -3.6 -10.79 0 0 -3.6 -10.79 0 0 -3.59 -39.57 0 0 3.59 -10.79 0 0 3.6 -7.19 0 0 3.6 -3.6 0 0 3.59 -7.19 0 0 3.6 -7.2 0 0 3.6 -3.59 0 0 3.59 -3.6 0 0 3.6 -3.6 0 0 3.6 -7.19 0 0 3.59 -3.6 0 0 7.2 -3.59 0 0 3.6 -3.6 0 0 3.59 -3.6 0 0 3.6 -3.59 0 0 7.19 -3.6 0 0 3.6 -3.6 0 0 7.19 -3.6 0 0 3.6 -3.59 0 0 7.19 -3.6 0 0 3.6 -3.6 0 0 7.19 -3.59 0 0 10.79 -3.6 0 0 7.2 -3.6 0 0 10.79 -3.59 0 0 7.19 -3.6 0 0 7.19 -3.6 0 0 10.79 -3.59 0 0 10.8 -3.6 0 0 10.79 -3.6 0 0 10.79 -3.59 0 0 10.79 -3.6 0 0 14.38 -3.6 0 0 10.79 -3.59 0 0 10.79 -3.6 0 0 10.79 -3.6 0 0 10.79 -3.59 0 0 14.39 -3.6 0 0 14.39 -3.6 0 0 14.39 -3.6 0 0 21.58 -3.59 0 0 14.38 -3.6 0 0 17.99 -3.6 0 0 17.98 -3.59 0 0 28.77 -3.6 0 0 32.37 -3.6 0 0 17.99 -3.59 0 0 46.75 -3.6 0 0 68.34 3.6 0 0 39.57 3.59 0 0 10.79 3.6 0 0 10.79 3.6 0 0 7.19 3.59 0 0 7.2 3.6 0 0 3.59 7.19 0 0 3.6 7.2 0 0 3.6 7.19 0 0 3.59 10.79 0 0 3.6 10.79 0 0 3.6 21.58 0 0 3.59 158.26 0 0 -3.59 17.99 0 0 -3.6 21.58 0 0 -3.6 14.38 0 0 -3.59 10.79 0 0 -3.6 10.79 0 0 -3.6 10.79 0 0 -3.59 7.2 0 0 -3.6 10.79 0 0 -3.6 7.19 0 0 -3.59 3.6 0 0 -3.6 7.19 0 0 -7.2 3.6 0 0 -3.59 3.59 0 0 -3.6 3.6 0 0 -3.6 3.6 0 0 -3.59 3.59 0 0 -10.79 3.6 0 0 -7.2 3.6 0 0 -17.98 3.59 0 0 -10.79 3.6 0 0 -151.06zm-136.67 -1388.34l-3.6 0 0 -25.18 -3.6 0 0 -3.6 -3.59 0 0 -7.19 -3.6 0 0 -7.2 -7.19 0 0 -3.59 -14.39 0 0 3.59 -3.6 0 0 3.6 -3.59 0 0 3.6 -3.6 0 0 3.6 -3.6 0 0 7.19 -3.59 0 0 3.6 -3.6 0 0 7.19 -3.6 0 0 7.19 -3.59 0 0 10.79 -3.6 0 0 7.2 -3.6 0 0 10.79 -3.6 0 0 7.19 -3.59 0 0 10.79 -3.6 0 0 10.79 -3.6 0 0 7.19 -3.59 0 0 14.39 -3.6 0 0 10.79 -3.6 0 0 10.79 -3.59 0 0 14.39 -3.6 0 0 14.38 -3.6 0 0 7.2 -3.59 0 0 14.38 -3.6 0 0 17.99 -3.6 0 0 10.79 -3.59 0 0 14.38 -3.6 0 0 21.58 -3.6 0 0 14.39 -3.59 0 0 21.58 -3.6 0 0 14.39 -3.6 0 0 21.58 -3.59 0 0 21.58 -3.6 0 0 17.99 -3.6 0 0 28.77 -3.6 0 0 17.98 -3.59 0 0 25.18 -3.6 0 0 28.77 -3.6 0 0 35.97 -3.59 0 0 32.37 -3.6 0 0 35.97 -3.6 0 0 39.56 -3.59 0 0 61.15 -3.6 0 0 28.77 -3.6 0 0 122.29 -3.59 0 0 53.95 -3.6 0 0 86.32 -3.6 0 0 68.34 -3.59 0 0 61.15 -3.6 0 0 61.14 -3.6 0 0 17.98 3.6 0 0 -7.19 3.6 0 0 -7.19 3.59 0 0 -7.2 3.6 0 0 -10.79 3.6 0 0 -7.19 3.59 0 0 -7.19 3.6 0 0 -7.2 3.6 0 0 -7.19 3.59 0 0 -3.6 3.6 0 0 -7.19 3.6 0 0 -7.19 3.59 0 0 -3.6 3.6 0 0 -7.19 3.6 0 0 -3.6 3.59 0 0 -3.6 3.6 0 0 -7.19 3.6 0 0 -3.6 3.6 0 0 -3.6 3.59 0 0 -3.59 7.2 0 0 -3.6 3.59 0 0 -3.6 3.6 0 0 -3.59 3.6 0 0 -3.6 3.59 0 0 -3.6 7.2 0 0 -3.59 3.59 0 0 -3.6 7.2 0 0 -3.6 10.79 0 0 -3.59 7.19 0 0 -3.6 14.39 0 0 -3.6 35.97 0 0 3.6 14.38 0 0 3.6 7.2 0 0 3.59 10.79 0 0 3.6 7.19 0 0 3.6 3.6 0 0 3.59 7.19 0 0 3.6 3.6 0 0 3.6 7.19 0 0 7.19 3.6 0 0 3.6 3.59 0 0 3.59 3.6 0 0 3.6 3.6 0 0 3.6 3.59 0 0 3.59 3.6 0 0 3.6 3.6 0 0 3.6 3.59 0 0 7.19 3.6 0 0 3.6 3.6 0 0 7.19 3.59 0 0 7.2 3.6 0 0 7.19 3.6 0 0 7.19 3.59 0 0 10.79 3.6 0 0 3.6 3.6 0 0 -21.58 -3.6 0 0 -39.57 -3.6 0 0 -53.95 -3.59 0 0 -71.93 -3.6 0 0 -46.76 -3.6 0 0 -46.75 -3.59 0 0 -35.97 -3.6 0 0 -35.97 -3.6 0 0 -28.77 -3.59 0 0 -21.58 -3.6 0 0 -28.78 -3.6 0 0 -17.98 -3.59 0 0 -25.18 -3.6 0 0 -25.18 -3.6 0 0 -25.17 -3.59 0 0 -21.58 -3.6 0 0 -17.99 -3.6 0 0 -25.17 -3.59 0 0 -28.78 -3.6 0 0 -28.77 -3.6 0 0 -14.39 -3.59 0 0 -39.56 -3.6 0 0 -25.18 -3.6 0 0 -39.56 -3.59 0 0 -39.57 -3.6 0 0 -147.47 3.6 0 0 -133.07zm-17.99 -68.34l7.2 0 0 3.59 3.59 0 0 3.6 3.6 0 0 3.6 3.6 0 0 3.59 3.59 0 0 3.6 3.6 0 0 7.19 3.6 0 0 7.2 3.59 0 0 7.19 3.6 0 0 14.39 3.6 0 0 21.58 3.59 0 0 89.92 -3.59 0 0 46.75 -3.6 0 0 129.49 3.6 0 0 43.16 3.59 0 0 28.77 3.6 0 0 32.37 3.6 0 0 43.16 3.59 0 0 21.59 3.6 0 0 32.37 3.6 0 0 14.38 3.59 0 0 17.99 3.6 0 0 17.98 3.6 0 0 25.18 3.59 0 0 21.58 3.6 0 0 28.77 3.6 0 0 17.98 3.59 0 0 25.18 3.6 0 0 21.58 3.6 0 0 21.58 3.59 0 0 39.57 3.6 0 0 32.37 3.6 0 0 32.37 3.59 0 0 32.37 3.6 0 0 75.53 3.6 0 0 64.74 3.59 0 0 64.74 3.6 0 0 61.15 3.6 0 0 43.16 3.59 0 0 32.37 3.6 0 0 10.79 3.6 0 0 21.58 3.59 0 0 10.79 3.6 0 0 17.98 3.6 0 0 14.39 3.59 0 0 14.39 3.6 0 0 14.39 3.6 0 0 14.38 3.59 0 0 17.99 3.6 0 0 17.98 3.6 0 0 21.58 3.59 0 0 25.18 3.6 0 0 57.54 3.6 0 0 82.73 -3.6 0 0 35.97 -3.6 0 0 17.98 -3.59 0 0 17.98 -3.6 0 0 7.2 -3.6 0 0 7.19 -3.59 0 0 3.6 -3.6 0 0 7.19 -3.6 0 0 3.6 -3.59 0 0 7.19 -3.6 0 0 3.6 -3.6 0 0 3.6 -7.19 0 0 3.59 -3.6 0 0 3.6 -3.59 0 0 3.6 -7.2 0 0 3.59 -7.19 0 0 3.6 -7.19 0 0 3.6 -7.2 0 0 3.59 -10.79 0 0 3.6 -10.79 0 0 3.6 -17.98 0 0 3.59 -10.79 0 0 3.6 -21.58 0 0 3.6 -17.98 0 0 3.59 -21.58 0 0 3.6 -133.09 0 0 -3.6 -21.58 0 0 -3.59 -21.58 0 0 -3.6 -14.38 0 0 -3.6 -7.2 0 0 -3.59 -7.19 0 0 -3.6 -7.2 0 0 -3.6 -7.19 0 0 -3.59 -3.6 0 0 -3.6 -3.59 0 0 -3.6 -3.6 0 0 -7.19 -3.6 0 0 -3.6 -3.59 0 0 -7.19 -3.6 0 0 -7.19 -3.6 0 0 -17.99 -3.59 0 0 -25.18 -3.6 0 0 -107.9 3.6 0 0 -43.16 3.59 0 0 -21.58 3.6 0 0 -28.77 3.6 0 0 -21.58 3.59 0 0 -14.39 3.6 0 0 -17.98 3.6 0 0 -21.58 3.59 0 0 -10.79 3.6 0 0 -21.58 3.6 0 0 -10.79 3.59 0 0 -10.8 3.6 0 0 -14.38 3.6 0 0 -25.18 3.59 0 0 -57.55 3.6 0 0 -46.76 3.6 0 0 -64.74 3.6 0 0 -53.95 3.59 0 0 -68.34 3.6 0 0 -93.51 3.6 0 0 -61.15 3.59 0 0 -75.53 3.6 0 0 -57.55 3.6 0 0 -64.74 3.59 0 0 -32.37 3.6 0 0 -35.96 3.6 0 0 -46.76 3.59 0 0 -28.78 3.6 0 0 -28.77 3.6 0 0 -21.58 3.59 0 0 -14.39 3.6 0 0 -25.17 3.6 0 0 -21.59 3.59 0 0 -25.17 3.6 0 0 -21.58 3.6 0 0 -14.39 3.59 0 0 -21.58 3.6 0 0 -17.99 3.6 0 0 -10.79 3.6 0 0 -14.38 3.59 0 0 -14.39 3.6 0 0 -14.39 3.6 0 0 -17.98 3.59 0 0 -14.39 3.6 0 0 -10.79 3.6 0 0 -7.19 3.59 0 0 -17.98 3.6 0 0 -7.2 3.6 0 0 -14.38 3.59 0 0 -10.79 3.6 0 0 -7.2 3.6 0 0 -14.38 3.59 0 0 -7.2 3.6 0 0 -10.79 3.6 0 0 -7.19 3.59 0 0 -10.79 3.6 0 0 -7.19 3.6 0 0 -7.2 3.59 0 0 -7.19 3.6 0 0 -3.6 3.6 0 0 -7.19 3.6 0 0 -3.6 3.59 0 0 -3.6 3.6 0 0 -7.19 7.19 0 0 -3.6 3.6 0 0 -3.59 7.19 0 0 -3.6 21.58 0 0 3.6z"/>
 </g>
</svg>