<!-- Creator: CorelDRAW (Versión de evaluación) -->
<svg xmlns="http://www.w3.org/2000/svg" xml:space="preserve" width="684px" height="2062px" version="1.1" style="shape-rendering:geometricPrecision; text-rendering:geometricPrecision; image-rendering:optimizeQuality; fill-rule:evenodd; clip-rule:evenodd"
viewBox="0 0 684 2062.8"
 xmlns:xlink="http://www.w3.org/1999/xlink"
 xmlns:xodm="http://www.corel.com/coreldraw/odm/2003">
 <defs>
  <style type="text/css">
   <![CDATA[
    .str0 {stroke:#E6E7E8;stroke-width:2;stroke-miterlimit:22.9256}
    .fil0 {fill:none}
   ]]>
  </style>
 </defs>
 <g id="missing">
  <metadata id="CorelCorpID_0Corel-Layer"/>
  <path id="outline" class="fil0 str0" d="M388.73 1809.44l-3.6 0 0 7.19 -3.6 0 0 14.41 -3.6 0 0 10.8 -3.6 0 0 7.19 28.8 0 0 3.61 14.4 0 0 3.6 7.2 0 0 3.59 10.8 0 0 3.61 10.8 0 0 3.6 10.8 0 0 3.59 7.2 0 0 3.61 10.8 0 0 3.6 14.4 0 0 3.59 28.8 0 0 -3.59 7.2 0 0 -3.6 3.6 0 0 -3.61 7.2 0 0 -3.59 3.6 0 0 -3.6 3.6 0 0 -3.61 3.6 0 0 -3.59 3.6 0 0 -7.21 3.6 0 0 -3.59 3.6 0 0 -3.6 3.6 0 0 -7.2 3.6 0 0 -7.21 3.6 0 0 -3.59 3.6 0 0 -14.4 10.8 0 0 17.99 -3.6 0 0 3.61 -3.6 0 0 10.8 -3.6 0 0 7.19 -3.6 0 0 3.61 -3.6 0 0 7.19 -3.6 0 0 3.61 -3.6 0 0 3.6 -3.6 0 0 7.2 -3.6 0 0 3.6 -3.6 0 0 3.59 -7.2 0 0 3.61 -3.6 0 0 3.6 -7.2 0 0 3.59 -7.2 0 0 3.61 -7.2 0 0 3.59 -21.6 0 0 -3.59 -21.6 0 0 -3.61 -7.2 0 0 -3.59 -10.8 0 0 -3.6 -7.2 0 0 -3.61 -10.8 0 0 -3.59 -10.8 0 0 -3.6 -10.8 0 0 -3.61 -10.8 0 0 -3.59 -14.4 0 0 3.59 3.6 0 0 21.6 -3.6 0 0 18 -3.6 0 0 7.21 -3.6 0 0 7.19 -3.6 0 0 3.61 39.6 0 0 3.59 28.8 0 0 3.6 7.2 0 0 3.61 28.8 0 0 3.59 14.4 0 0 3.6 36 0 0 -3.6 10.8 0 0 -3.59 7.2 0 0 -3.61 7.2 0 0 -3.6 3.6 0 0 -3.59 3.6 0 0 -3.61 7.2 0 0 -3.6 3.6 0 0 -3.59 3.6 0 0 -3.61 3.6 0 0 -7.19 3.6 0 0 -3.61 3.6 0 0 -3.6 3.6 0 0 -3.59 3.6 0 0 -7.2 3.6 0 0 -3.6 3.6 0 0 -7.2 3.6 0 0 -3.6 3.6 0 0 -7.2 3.6 0 0 -3.6 3.6 0 0 -7.2 3.6 0 0 -10.8 3.6 0 0 -7.21 3.6 0 0 -7.19 3.6 0 0 -10.8 3.6 0 0 -7.2 3.6 0 0 -10.8 3.6 0 0 -10.8 3.6 0 0 -18.01 3.6 0 0 -68.39 -3.6 0 0 -28.81 -3.6 0 0 -14.39 -3.6 0 0 -10.8 -3.6 0 0 -18.01 -3.6 0 0 -10.8 -3.6 0 0 -18 -3.6 0 0 -7.19 -3.6 0 0 -10.8 -3.6 0 0 -10.81 -3.6 0 0 -10.8 -3.6 0 0 -7.2 -3.6 0 0 -10.8 -3.6 0 0 -7.2 -3.6 0 0 -10.8 -3.6 0 0 -7.2 -3.6 0 0 -10.8 -3.6 0 0 -7.2 -3.6 0 0 -3.6 -3.6 0 0 -7.2 -3.6 0 0 -3.6 -3.6 0 0 -3.6 -3.6 0 0 -3.6 -7.2 0 0 -3.6 -7.2 0 0 -3.6 -14.4 0 0 -3.6 -7.2 0 0 -3.6 -10.8 0 0 -3.6 -10.8 0 0 -3.6 -18 0 0 -3.6 -18 0 0 -3.6 -21.6 0 0 -3.6 -32.4 0 0 -3.6 -136.8 0 0 3.6 -18 0 0 3.6 -25.2 0 0 3.6 -18 0 0 3.6 -14.4 0 0 3.6 -18 0 0 3.6 -18 0 0 3.6 -10.8 0 0 3.6 -7.2 0 0 3.6 -10.8 0 0 3.6 -7.2 0 0 3.6 -10.8 0 0 3.6 -7.2 0 0 3.6 -10.8 0 0 3.6 -7.2 0 0 3.6 -7.2 0 0 3.6 -7.2 0 0 3.6 -3.6 0 0 3.6 -7.2 0 0 3.6 -3.6 0 0 3.6 -7.2 0 0 3.6 -3.6 0 0 3.6 -3.6 0 0 18 -3.6 0 0 18 -3.6 0 0 10.8 -3.6 0 0 14.41 -3.6 0 0 10.8 -3.6 0 0 7.19 -3.6 0 0 14.41 -3.6 0 0 10.8 -3.6 0 0 17.99 -3.6 0 0 14.41 -3.6 0 0 10.8 -3.6 0 0 17.99 -3.6 0 0 25.21 -3.6 0 0 79.19 3.6 0 0 18.01 3.6 0 0 10.8 3.6 0 0 10.8 3.6 0 0 7.2 3.6 0 0 7.19 3.6 0 0 7.21 3.6 0 0 7.2 3.6 0 0 7.19 3.6 0 0 3.61 3.6 0 0 7.19 3.6 0 0 3.61 3.6 0 0 7.19 3.6 0 0 3.61 3.6 0 0 3.59 3.6 0 0 7.21 3.6 0 0 3.59 3.6 0 0 3.6 3.6 0 0 3.61 3.6 0 0 3.59 3.6 0 0 3.6 3.6 0 0 3.61 3.6 0 0 3.59 3.6 0 0 3.6 3.6 0 0 3.61 3.6 0 0 3.59 3.6 0 0 3.6 7.2 0 0 3.61 3.6 0 0 3.59 3.6 0 0 3.6 3.6 0 0 3.61 7.2 0 0 3.59 3.6 0 0 3.6 7.2 0 0 3.61 7.2 0 0 3.59 3.6 0 0 3.6 7.2 0 0 3.61 7.2 0 0 3.59 7.2 0 0 3.6 7.2 0 0 3.61 10.8 0 0 3.59 14.4 0 0 3.61 25.2 0 0 -3.61 10.8 0 0 -3.59 10.8 0 0 -3.61 7.2 0 0 -3.6 7.2 0 0 -3.59 7.2 0 0 -3.61 7.2 0 0 -3.6 3.6 0 0 -3.59 7.2 0 0 -3.61 3.6 0 0 -3.6 7.2 0 0 -3.59 7.2 0 0 -3.61 3.6 0 0 -3.6 7.2 0 0 -3.59 7.2 0 0 -3.61 7.2 0 0 -3.6 7.2 0 0 -3.59 7.2 0 0 -3.61 10.8 0 0 -3.6 3.6 0 0 -10.8 3.6 0 0 -7.2 3.6 0 0 -7.19 3.6 0 0 -14.41 3.6 0 0 -21.6 3.6 0 0 -3.59 -28.8 0 0 3.59 -3.6 0 0 3.61 -7.2 0 0 3.6 -3.6 0 0 3.59 -7.2 0 0 3.61 -3.6 0 0 3.6 -7.2 0 0 3.59 -3.6 0 0 3.61 -3.6 0 0 3.59 -7.2 0 0 3.6 -3.6 0 0 3.61 -3.6 0 0 3.59 -7.2 0 0 3.6 -7.2 0 0 3.61 -3.6 0 0 3.59 -7.2 0 0 3.6 -7.2 0 0 3.61 -7.2 0 0 3.59 -7.2 0 0 3.6 -7.2 0 0 3.61 -7.2 0 0 3.59 -10.8 0 0 3.6 -7.2 0 0 3.61 -39.6 0 0 -3.61 -10.8 0 0 -3.6 -10.8 0 0 -3.59 -10.8 0 0 -3.61 -7.2 0 0 -3.6 -7.2 0 0 -3.59 -3.6 0 0 -3.61 -7.2 0 0 -3.6 -7.2 0 0 -3.59 -3.6 0 0 -3.61 -3.6 0 0 -3.6 -3.6 0 0 -3.59 -3.6 0 0 -3.61 -3.6 0 0 -3.6 -3.6 0 0 -3.59 -3.6 0 0 -14.41 7.2 0 0 3.61 3.6 0 0 3.6 3.6 0 0 3.59 3.6 0 0 3.61 3.6 0 0 3.59 3.6 0 0 3.6 3.6 0 0 3.61 7.2 0 0 3.59 3.6 0 0 3.6 7.2 0 0 3.61 7.2 0 0 3.59 7.2 0 0 3.6 7.2 0 0 3.61 10.8 0 0 3.59 50.4 0 0 -3.59 14.4 0 0 -3.61 7.2 0 0 -3.6 7.2 0 0 -3.59 7.2 0 0 -3.61 3.6 0 0 -3.6 7.2 0 0 -3.59 7.2 0 0 -3.61 3.6 0 0 -3.6 7.2 0 0 -3.59 7.2 0 0 -3.61 3.6 0 0 -3.59 3.6 0 0 -3.6 7.2 0 0 -3.61 3.6 0 0 -3.59 3.6 0 0 -3.6 7.2 0 0 -3.61 3.6 0 0 -3.59 7.2 0 0 -3.6 3.6 0 0 -3.61 3.6 0 0 -3.59 7.2 0 0 -3.6 3.6 0 0 -3.61 3.6 0 0 -3.59 3.6 0 0 -10.8 3.6 0 0 -7.21 3.6 0 0 -14.39 3.6 0 0 -7.21 3.6 0 0 -35.99 3.6 0 0 -14.4 3.6 0 0 -18 7.2 0 0 72zm-3.6 -1317.61l-3.6 0 0 -7.2 -3.6 0 0 -3.6 -3.6 0 0 -3.6 -21.6 0 0 3.6 -3.6 0 0 3.6 -3.6 0 0 3.6 -3.6 0 0 7.2 -3.6 0 0 3.6 -3.6 0 0 7.2 -3.6 0 0 7.2 -3.6 0 0 7.2 -3.6 0 0 7.2 -3.6 0 0 7.2 -3.6 0 0 10.8 -3.6 0 0 10.8 -3.6 0 0 7.2 -3.6 0 0 10.8 -3.6 0 0 7.2 -3.6 0 0 14.4 -3.6 0 0 14.4 -3.6 0 0 14.4 -3.6 0 0 7.2 -3.6 0 0 18 -3.6 0 0 18 -3.6 0 0 10.8 -3.6 0 0 25.2 -3.6 0 0 21.6 -3.6 0 0 14.4 -3.6 0 0 28.8 -3.6 0 0 21.6 -3.6 0 0 28.8 -3.6 0 0 32.4 -3.6 0 0 28.8 -3.6 0 0 18 -3.6 0 0 28.8 -3.6 0 0 21.6 -3.6 0 0 18 3.6 0 0 21.6 3.6 0 0 14.4 3.6 0 0 18 3.6 0 0 10.8 3.6 0 0 14.4 3.6 0 0 21.6 3.6 0 0 7.2 3.6 0 0 21.6 3.6 0 0 14.4 3.6 0 0 14.4 3.6 0 0 7.2 3.6 0 0 18 3.6 0 0 10.8 3.6 0 0 10.8 3.6 0 0 10.8 3.6 0 0 14.4 3.6 0 0 10.8 3.6 0 0 10.8 3.6 0 0 7.2 3.6 0 0 10.8 3.6 0 0 7.2 3.6 0 0 7.2 3.6 0 0 3.6 3.6 0 0 3.6 3.6 0 0 3.6 3.6 0 0 3.6 3.6 0 0 3.6 3.6 0 0 3.6 7.2 0 0 3.6 7.2 0 0 3.6 7.2 0 0 3.6 10.8 0 0 7.2 -25.2 0 0 -3.6 -7.2 0 0 -3.6 -7.2 0 0 -3.6 -7.2 0 0 -3.6 -3.6 0 0 -3.6 -3.6 0 0 -3.6 -3.6 0 0 -3.6 -3.6 0 0 -3.6 -3.6 0 0 -3.6 -3.6 0 0 -7.2 -3.6 0 0 -7.2 -3.6 0 0 -3.6 -3.6 0 0 -10.8 -3.6 0 0 -7.2 -3.6 0 0 -10.8 -3.6 0 0 -10.8 -3.6 0 0 -10.8 -3.6 0 0 -10.8 -3.6 0 0 -14.4 -3.6 0 0 -7.2 -3.6 0 0 -14.4 -3.6 0 0 -10.8 -3.6 0 0 -18 -3.6 0 0 -14.4 -3.6 0 0 -10.8 -3.6 0 0 -14.4 -3.6 0 0 -10.8 -3.6 0 0 -18 -3.6 0 0 -14.4 -3.6 0 0 -18 -3.6 0 0 -21.6 -3.6 0 0 -14.4 -3.6 0 0 -25.2 -3.6 0 0 -25.2 -3.6 0 0 -28.8 -3.6 0 0 -36 -3.6 0 0 -43.2 -3.6 0 0 -147.6 -3.6 0 0 -18 -3.6 0 0 -7.2 -3.6 0 0 -3.6 -7.2 0 0 3.6 -7.2 0 0 3.6 -3.6 0 0 3.6 -3.6 0 0 3.6 -3.6 0 0 3.6 -3.6 0 0 7.2 -3.6 0 0 7.2 -3.6 0 0 3.6 -3.6 0 0 7.2 -3.6 0 0 7.2 -3.6 0 0 10.8 -3.6 0 0 7.2 -3.6 0 0 10.8 -3.6 0 0 10.8 -3.6 0 0 10.8 -3.6 0 0 10.8 -3.6 0 0 10.8 -3.6 0 0 10.8 -3.6 0 0 10.8 -3.6 0 0 10.8 -3.6 0 0 14.4 -3.6 0 0 10.8 -3.6 0 0 21.6 -3.6 0 0 21.6 -3.6 0 0 18 -3.6 0 0 10.8 -3.6 0 0 21.6 -3.6 0 0 18 -3.6 0 0 18 -3.6 0 0 32.4 -3.6 0 0 21.6 -3.6 0 0 43.2 -3.6 0 0 133.2 3.6 0 0 36 3.6 0 0 46.8 3.6 0 0 32.4 3.6 0 0 154.8 -3.6 0 0 21.6 -3.6 0 0 25.2 3.6 0 0 -3.6 7.2 0 0 -3.6 7.2 0 0 -3.6 7.2 0 0 -3.6 7.2 0 0 -3.6 7.2 0 0 -3.6 7.2 0 0 -3.6 7.2 0 0 -3.6 10.8 0 0 -3.6 7.2 0 0 -3.6 10.8 0 0 -3.6 10.8 0 0 -3.6 10.8 0 0 -3.6 10.8 0 0 -3.6 18 0 0 -3.6 18 0 0 -3.6 14.4 0 0 -3.6 14.4 0 0 -3.6 28.8 0 0 -3.6 32.4 0 0 -3.6 108 0 0 3.6 36 0 0 3.6 14.4 0 0 3.6 21.6 0 0 3.6 14.4 0 0 3.6 10.8 0 0 3.6 14.4 0 0 3.6 7.2 0 0 3.6 7.2 0 0 3.6 14.4 0 0 3.6 7.2 0 0 3.6 10.8 0 0 -3.6 -3.6 0 0 -43.2 -3.6 0 0 -21.6 -3.6 0 0 -154.8 3.6 0 0 -43.2 3.6 0 0 -28.8 3.6 0 0 -25.2 3.6 0 0 -25.2 3.6 0 0 -21.6 3.6 0 0 -25.2 3.6 0 0 -18 3.6 0 0 -39.6 3.6 0 0 -158.4 -3.6 0 0 -28.8 -3.6 0 0 -18 -3.6 0 0 -28.8 -3.6 0 0 -36 -3.6 0 0 -21.6 -3.6 0 0 -18 -3.6 0 0 -18 -3.6 0 0 -21.6 -3.6 0 0 -14.4 -3.6 0 0 -7.2 -3.6 0 0 -14.4 -3.6 0 0 -10.8 -3.6 0 0 -10.8 -3.6 0 0 -7.2 -3.6 0 0 -10.8 -3.6 0 0 -3.6 -3.6 0 0 -7.2 -3.6 0 0 -7.2 -3.6 0 0 -3.6 -3.6 0 0 -3.6 -3.6 0 0 -3.6 -14.4 0 0 3.6 -3.6 0 0 3.6 -3.6 0 0 7.2 -3.6 0 0 7.2 -3.6 0 0 18 -3.6 0 0 25.2 -3.6 0 0 28.8 -3.6 0 0 64.8 -3.6 0 0 32.4 -3.6 0 0 14.4 -3.6 0 0 25.2 -3.6 0 0 39.6 -3.6 0 0 14.4 -3.6 0 0 32.4 -3.6 0 0 10.8 -3.6 0 0 14.4 -3.6 0 0 7.2 -3.6 0 0 10.8 -3.6 0 0 10.8 -3.6 0 0 14.4 -3.6 0 0 7.2 -3.6 0 0 10.8 -3.6 0 0 10.8 -3.6 0 0 10.8 -3.6 0 0 7.2 -3.6 0 0 14.4 -3.6 0 0 7.2 -3.6 0 0 7.2 -3.6 0 0 10.8 -3.6 0 0 14.4 -3.6 0 0 7.2 -3.6 0 0 14.4 -3.6 0 0 14.4 -3.6 0 0 10.8 -3.6 0 0 7.2 -3.6 0 0 18 -3.6 0 0 14.4 -3.6 0 0 7.2 -3.6 0 0 25.2 -3.6 0 0 10.8 -3.6 0 0 14.4 -3.6 0 0 21.6 -3.6 0 0 14.4 -3.6 0 0 7.2 -3.6 0 0 7.2 -3.6 0 0 3.6 -3.6 0 0 -25.2 3.6 0 0 -32.4 3.6 0 0 -18 3.6 0 0 -28.8 3.6 0 0 -14.4 3.6 0 0 -10.8 3.6 0 0 -18 3.6 0 0 -14.4 3.6 0 0 -7.2 3.6 0 0 -14.4 3.6 0 0 -14.4 3.6 0 0 -7.2 3.6 0 0 -14.4 3.6 0 0 -10.8 3.6 0 0 -10.8 3.6 0 0 -10.8 3.6 0 0 -7.2 3.6 0 0 -10.8 3.6 0 0 -14.4 3.6 0 0 -7.2 3.6 0 0 -14.4 3.6 0 0 -10.8 -3.6 0 0 -18 -3.6 0 0 -10.8 -3.6 0 0 -32.4 -3.6 0 0 -18 -3.6 0 0 -32.4 -3.6 0 0 -18 -3.6 0 0 -21.6 -3.6 0 0 -32.4 -3.6 0 0 -32.4 -3.6 0 0 -126 3.6 0 0 -97.2zm-10.8 -36l7.2 0 0 3.6 7.2 0 0 3.6 3.6 0 0 3.6 3.6 0 0 3.6 3.6 0 0 7.2 3.6 0 0 7.2 3.6 0 0 14.4 3.6 0 0 68.4 -3.6 0 0 43.2 -3.6 0 0 111.6 3.6 0 0 25.2 3.6 0 0 21.6 3.6 0 0 25.2 3.6 0 0 28.8 3.6 0 0 18 3.6 0 0 28.8 3.6 0 0 21.6 7.2 0 0 -21.6 3.6 0 0 -28.8 3.6 0 0 -28.8 3.6 0 0 -14.4 3.6 0 0 -32.4 3.6 0 0 -28.8 3.6 0 0 -46.8 3.6 0 0 -43.2 3.6 0 0 -39.6 3.6 0 0 -10.8 3.6 0 0 -14.4 3.6 0 0 -10.8 3.6 0 0 -7.2 3.6 0 0 -7.2 3.6 0 0 -3.6 3.6 0 0 -3.6 3.6 0 0 -3.6 3.6 0 0 -3.6 7.2 0 0 -3.6 21.6 0 0 3.6 7.2 0 0 3.6 3.6 0 0 3.6 3.6 0 0 3.6 3.6 0 0 3.6 3.6 0 0 3.6 3.6 0 0 7.2 3.6 0 0 7.2 3.6 0 0 3.6 3.6 0 0 7.2 3.6 0 0 10.8 3.6 0 0 7.2 3.6 0 0 10.8 3.6 0 0 7.2 3.6 0 0 18 3.6 0 0 10.8 3.6 0 0 10.8 3.6 0 0 18 3.6 0 0 21.6 3.6 0 0 18 3.6 0 0 21.6 3.6 0 0 18 3.6 0 0 25.2 3.6 0 0 28.8 3.6 0 0 28.8 3.6 0 0 57.6 3.6 0 0 90 -3.6 0 0 54 -3.6 0 0 28.8 -3.6 0 0 21.6 -3.6 0 0 14.4 -3.6 0 0 28.8 -3.6 0 0 18 -3.6 0 0 28.8 -3.6 0 0 28.8 -3.6 0 0 36 -3.6 0 0 144 3.6 0 0 36 3.6 0 0 21.6 3.6 0 0 14.4 3.6 0 0 14.4 3.6 0 0 10.8 3.6 0 0 10.8 3.6 0 0 7.2 3.6 0 0 7.2 3.6 0 0 7.2 3.6 0 0 7.2 3.6 0 0 10.8 3.6 0 0 7.2 3.6 0 0 10.8 3.6 0 0 7.2 3.6 0 0 14.4 3.6 0 0 10.8 3.6 0 0 10.8 3.6 0 0 10.8 3.6 0 0 10.8 3.6 0 0 18.01 3.6 0 0 7.19 3.6 0 0 18 3.6 0 0 25.2 3.6 0 0 32.41 3.6 0 0 32.4 -3.6 0 0 25.2 -3.6 0 0 18 -3.6 0 0 10.8 -3.6 0 0 10.8 -3.6 0 0 7.19 -3.6 0 0 10.8 -3.6 0 0 7.21 -3.6 0 0 7.2 -3.6 0 0 7.19 -3.6 0 0 10.8 -3.6 0 0 3.61 -3.6 0 0 3.6 -3.6 0 0 7.2 -3.6 0 0 7.19 -3.6 0 0 7.2 -3.6 0 0 3.6 -3.6 0 0 3.61 -3.6 0 0 7.19 -3.6 0 0 3.61 -3.6 0 0 3.59 -3.6 0 0 3.6 -3.6 0 0 3.61 -3.6 0 0 3.59 -3.6 0 0 3.6 -3.6 0 0 3.61 -3.6 0 0 3.59 -3.6 0 0 3.6 -3.6 0 0 3.61 -7.2 0 0 3.59 -3.6 0 0 3.6 -7.2 0 0 3.61 -7.2 0 0 3.59 -14.4 0 0 3.6 -39.6 0 0 -3.6 -25.2 0 0 -3.59 -14.4 0 0 -3.61 -14.4 0 0 -3.6 -75.6 0 0 3.6 -10.8 0 0 3.61 -7.2 0 0 3.59 -7.2 0 0 3.6 -7.2 0 0 3.61 -3.6 0 0 3.59 -7.2 0 0 3.6 -3.6 0 0 3.61 -7.2 0 0 3.59 -3.6 0 0 3.6 -7.2 0 0 3.61 -7.2 0 0 3.59 -3.6 0 0 3.61 -7.2 0 0 3.6 -7.2 0 0 3.59 -7.2 0 0 3.61 -7.2 0 0 3.6 -10.8 0 0 3.59 -14.4 0 0 3.61 -28.8 0 0 -3.61 -18 0 0 -3.59 -10.8 0 0 -3.6 -10.8 0 0 -3.61 -7.2 0 0 -3.59 -7.2 0 0 -3.6 -7.2 0 0 -3.61 -7.2 0 0 -3.59 -3.6 0 0 -3.61 -7.2 0 0 -3.6 -3.6 0 0 -3.59 -7.2 0 0 -3.61 -3.6 0 0 -3.6 -7.2 0 0 -3.59 -3.6 0 0 -3.61 -7.2 0 0 -3.6 -3.6 0 0 -3.59 -3.6 0 0 -3.61 -3.6 0 0 -3.6 -7.2 0 0 -3.59 -3.6 0 0 -3.61 -3.6 0 0 -3.6 -3.6 0 0 -7.2 -3.6 0 0 -3.6 -3.6 0 0 -3.59 -3.6 0 0 -3.61 -3.6 0 0 -3.6 -3.6 0 0 -3.59 -3.6 0 0 -7.21 -3.6 0 0 -3.59 -3.6 0 0 -3.61 -3.6 0 0 -7.19 -3.6 0 0 -3.61 -3.6 0 0 -7.19 -3.6 0 0 -7.2 -3.6 0 0 -3.6 -3.6 0 0 -10.8 -3.6 0 0 -7.2 -3.6 0 0 -7.21 -3.6 0 0 -7.19 -3.6 0 0 -10.8 -3.6 0 0 -10.8 -3.6 0 0 -21.6 -3.6 0 0 -93.6 3.6 0 0 -25.21 3.6 0 0 -10.8 3.6 0 0 -14.4 3.6 0 0 -14.39 3.6 0 0 -18.01 3.6 0 0 -10.8 3.6 0 0 -14.39 3.6 0 0 -10.8 3.6 0 0 -10.81 3.6 0 0 -14.4 3.6 0 0 -7.2 3.6 0 0 -10.8 3.6 0 0 -21.6 3.6 0 0 -18 3.6 0 0 -28.8 3.6 0 0 -205.2 -3.6 0 0 -54 -3.6 0 0 -50.4 -3.6 0 0 -122.4 3.6 0 0 -28.8 3.6 0 0 -32.4 3.6 0 0 -28.8 3.6 0 0 -18 3.6 0 0 -21.6 3.6 0 0 -21.6 3.6 0 0 -18 3.6 0 0 -18 3.6 0 0 -21.6 3.6 0 0 -14.4 3.6 0 0 -10.8 3.6 0 0 -18 3.6 0 0 -14.4 3.6 0 0 -7.2 3.6 0 0 -14.4 3.6 0 0 -10.8 3.6 0 0 -10.8 3.6 0 0 -7.2 3.6 0 0 -14.4 3.6 0 0 -7.2 3.6 0 0 -10.8 3.6 0 0 -7.2 3.6 0 0 -7.2 3.6 0 0 -7.2 3.6 0 0 -7.2 3.6 0 0 -7.2 3.6 0 0 -3.6 3.6 0 0 -7.2 3.6 0 0 -3.6 3.6 0 0 -3.6 3.6 0 0 -3.6 3.6 0 0 -3.6 3.6 0 0 -3.6 7.2 0 0 -3.6 7.2 0 0 -3.6 21.6 0 0 3.6 7.2 0 0 3.6 3.6 0 0 7.2 3.6 0 0 3.6 3.6 0 0 10.8 3.6 0 0 14.4 3.6 0 0 14.4 3.6 0 0 180 3.6 0 0 -18 3.6 0 0 -25.2 3.6 0 0 -25.2 3.6 0 0 -25.2 3.6 0 0 -32.4 3.6 0 0 -21.6 3.6 0 0 -14.4 3.6 0 0 -21.6 3.6 0 0 -14.4 3.6 0 0 -21.6 3.6 0 0 -14.4 3.6 0 0 -14.4 3.6 0 0 -7.2 3.6 0 0 -14.4 3.6 0 0 -10.8 3.6 0 0 -7.2 3.6 0 0 -14.4 3.6 0 0 -10.8 3.6 0 0 -7.2 3.6 0 0 -7.2 3.6 0 0 -10.8 3.6 0 0 -7.2 3.6 0 0 -7.2 3.6 0 0 -7.2 3.6 0 0 -7.2 3.6 0 0 -3.6 3.6 0 0 -7.2 3.6 0 0 -3.6 3.6 0 0 -3.6 3.6 0 0 -3.6 3.6 0 0 -3.6 3.6 0 0 -3.6 3.6 0 0 -3.6 7.2 0 0 -3.6 7.2 0 0 -3.6 18 0 0 3.6z"/>
 </g>
</svg>