<?xml version="1.0" encoding="UTF-8"?>
<!DOCTYPE svg PUBLIC "-//W3C//DTD SVG 1.1//EN" "http://www.w3.org/Graphics/SVG/1.1/DTD/svg11.dtd">
<!-- Creator: CorelDRAW (Versión de evaluación) -->
<svg xmlns="http://www.w3.org/2000/svg" xml:space="preserve" width="518px" height="2062px" version="1.1" style="shape-rendering:geometricPrecision; text-rendering:geometricPrecision; image-rendering:optimizeQuality; fill-rule:evenodd; clip-rule:evenodd"
viewBox="0 0 518 2061.2"
 xmlns:xlink="http://www.w3.org/1999/xlink"
 xmlns:xodm="http://www.corel.com/coreldraw/odm/2003">
 <defs>
  <style type="text/css">
   <![CDATA[
    .str0 {stroke:#E6E7E8;stroke-width:2;stroke-miterlimit:22.9256}
    .fil0 {fill:none}
   ]]>
  </style>
 </defs>
 <g id="missing">
  <metadata id="CorelCorpID_0Corel-Layer"/>
  <path id="outline" class="fil0 str0" d="M496.16 1705.91l-3.6 0 0 -21.59 -3.6 0 0 -17.99 -3.59 0 0 -10.79 -3.6 0 0 -17.98 -3.6 0 0 -14.39 -3.6 0 0 -10.79 -3.59 0 0 -14.39 -3.6 0 0 -10.79 -3.6 0 0 -17.99 -3.59 0 0 -14.39 -3.6 0 0 -7.19 -3.6 0 0 -14.39 -3.59 0 0 -14.39 -3.6 0 0 -14.39 -3.6 0 0 -14.39 -3.6 0 0 -17.99 -3.59 0 0 -17.98 -3.6 0 0 -10.79 -3.6 0 0 -10.79 -3.6 0 0 -7.2 -3.59 0 0 -14.39 -3.6 0 0 -10.79 -3.6 0 0 -7.19 -3.6 0 0 -10.79 -3.59 0 0 -10.79 -3.6 0 0 -7.2 -3.6 0 0 -10.79 -3.59 0 0 -7.2 -3.6 0 0 -7.19 -3.6 0 0 -7.2 -3.59 0 0 -3.59 -3.6 0 0 -7.2 -3.6 0 0 -7.19 -3.6 0 0 -3.6 -3.59 0 0 -7.19 -3.6 0 0 -3.6 -3.6 0 0 -3.6 -3.59 0 0 -3.6 -3.6 0 0 -7.19 -3.6 0 0 -3.6 -3.6 0 0 -3.6 -3.6 0 0 -3.59 -3.59 0 0 -3.6 -7.2 0 0 -3.6 -3.59 0 0 -3.59 -7.2 0 0 -3.6 -3.59 0 0 -3.6 -7.2 0 0 -3.59 -7.19 0 0 -3.6 -10.8 0 0 -3.6 -14.39 0 0 -3.6 -35.96 0 0 3.6 -10.8 0 0 3.6 -7.19 0 0 3.6 -7.2 0 0 3.59 -7.19 0 0 3.6 -7.2 0 0 3.6 -3.59 0 0 3.59 -7.2 0 0 3.6 -3.59 0 0 3.6 -7.2 0 0 3.59 -3.6 0 0 3.6 -3.59 0 0 3.6 -3.6 0 0 3.6 -3.6 0 0 3.59 -3.6 0 0 7.2 -3.59 0 0 3.6 -3.6 0 0 3.59 -3.6 0 0 7.2 -3.6 0 0 3.6 -3.59 0 0 7.19 -3.6 0 0 3.6 -3.6 0 0 3.59 -3.59 0 0 7.2 -3.6 0 0 7.19 -3.59 0 0 7.2 -3.6 0 0 7.19 -3.6 0 0 7.2 -3.6 0 0 3.6 -3.6 0 0 7.19 -3.59 0 0 10.79 -3.6 0 0 7.19 -3.6 0 0 7.2 -3.6 0 0 10.79 -3.59 0 0 7.19 -3.6 0 0 10.8 -3.6 0 0 7.19 -3.59 0 0 10.79 -3.6 0 0 7.2 -3.6 0 0 14.38 -3.59 0 0 10.8 -3.6 0 0 7.19 -3.6 0 0 14.39 -3.6 0 0 14.39 -3.59 0 0 14.39 -3.6 0 0 14.39 -3.6 0 0 25.18 -3.59 0 0 10.79 -3.6 0 0 17.98 -3.6 0 0 21.59 -3.6 0 0 28.78 -3.6 0 0 14.38 -3.59 0 0 25.19 -3.6 0 0 25.18 -3.6 0 0 107.92 3.6 0 0 21.58 3.6 0 0 7.19 3.59 0 0 7.19 3.6 0 0 7.2 3.6 0 0 7.19 3.6 0 0 7.2 3.6 0 0 7.19 3.59 0 0 3.6 3.6 0 0 3.6 3.6 0 0 7.19 3.59 0 0 3.6 3.6 0 0 3.59 3.6 0 0 3.6 3.6 0 0 3.6 3.59 0 0 3.6 3.6 0 0 3.59 7.19 0 0 3.6 3.6 0 0 3.6 3.6 0 0 3.6 3.59 0 0 3.6 3.6 0 0 3.59 7.2 0 0 3.6 3.59 0 0 3.6 3.6 0 0 3.59 7.2 0 0 3.6 3.6 0 0 3.6 7.19 0 0 3.59 3.59 0 0 3.6 3.6 0 0 3.6 7.19 0 0 3.59 3.6 0 0 3.6 7.2 0 0 3.6 3.59 0 0 3.6 3.6 0 0 3.59 3.6 0 0 3.6 7.19 0 0 3.6 3.6 0 0 3.6 3.6 0 0 3.6 7.19 0 0 3.59 3.6 0 0 3.6 3.6 0 0 3.6 7.19 0 0 3.59 3.6 0 0 3.6 3.59 0 0 3.6 7.2 0 0 3.59 7.19 0 0 3.6 10.8 0 0 3.6 32.37 0 0 -3.6 7.19 0 0 -3.6 7.2 0 0 -3.59 7.19 0 0 -3.6 3.6 0 0 -3.6 7.2 0 0 -3.59 3.6 0 0 -3.6 7.19 0 0 -3.6 7.19 0 0 -3.59 3.6 0 0 -3.6 3.6 0 0 -3.6 7.19 0 0 -3.6 3.6 0 0 -3.6 3.59 0 0 -3.59 7.2 0 0 -3.6 3.6 0 0 -3.6 3.6 0 0 -3.6 7.19 0 0 -3.59 3.6 0 0 -3.6 3.59 0 0 -3.6 7.2 0 0 -3.59 3.6 0 0 -3.6 3.59 0 0 -3.6 7.2 0 0 -3.59 3.59 0 0 -3.6 3.6 0 0 -3.6 3.6 0 0 -3.59 3.59 0 0 -3.6 7.2 0 0 -3.6 3.6 0 0 -3.6 3.59 0 0 -3.6 3.6 0 0 -3.59 3.6 0 0 -3.6 3.6 0 0 -3.6 3.59 0 0 -3.6 3.6 0 0 -3.59 3.6 0 0 -3.6 3.6 0 0 -7.19 3.59 0 0 -3.6 3.6 0 0 -3.6 3.6 0 0 -7.19 3.59 0 0 -7.2 3.6 0 0 -7.19 3.6 0 0 -7.2 3.59 0 0 -7.19 3.6 0 0 -10.79 3.6 0 0 -7.19 3.6 0 0 -10.79 3.59 0 0 -17.99 3.6 0 0 -21.59 3.6 0 0 -79.13zm-125.9 -1625.95l-3.6 0 0 -21.58 -3.6 0 0 -14.39 -3.59 0 0 -7.19 -3.6 0 0 -7.2 -3.6 0 0 -3.6 -3.6 0 0 -3.59 -14.39 0 0 3.59 -3.59 0 0 3.6 -7.2 0 0 3.6 -3.59 0 0 3.6 -3.6 0 0 3.59 -3.6 0 0 3.6 -3.59 0 0 7.19 -3.6 0 0 3.6 -3.6 0 0 7.19 -3.6 0 0 3.6 -3.6 0 0 7.2 -3.59 0 0 7.19 -3.6 0 0 7.2 -3.6 0 0 7.19 -3.6 0 0 7.2 -3.59 0 0 7.19 -3.6 0 0 7.19 -3.6 0 0 10.79 -3.59 0 0 7.2 -3.6 0 0 10.79 -3.6 0 0 10.79 -3.59 0 0 7.2 -3.6 0 0 10.79 -3.6 0 0 10.79 -3.59 0 0 10.79 -3.6 0 0 14.39 -3.6 0 0 7.2 -3.6 0 0 14.39 -3.6 0 0 10.79 -3.59 0 0 14.38 -3.6 0 0 10.8 -3.6 0 0 10.79 -3.6 0 0 10.79 -3.59 0 0 14.39 -3.6 0 0 10.79 -3.6 0 0 17.99 -3.59 0 0 14.39 -3.6 0 0 7.19 -3.6 0 0 17.99 -3.59 0 0 10.79 -3.6 0 0 17.98 -3.6 0 0 14.39 -3.6 0 0 10.8 -3.59 0 0 14.38 -3.6 0 0 17.99 -3.6 0 0 17.99 -3.6 0 0 14.39 -3.59 0 0 17.98 -3.6 0 0 17.99 -3.6 0 0 14.39 -3.6 0 0 17.98 -3.59 0 0 17.99 -3.6 0 0 14.39 -3.6 0 0 17.98 -3.59 0 0 28.78 -3.6 0 0 17.99 -3.59 0 0 21.58 -3.6 0 0 21.58 -3.6 0 0 32.38 -3.6 0 0 28.78 -3.6 0 0 46.76 -3.59 0 0 39.57 -3.6 0 0 57.55 -3.6 0 0 46.77 -3.6 0 0 28.78 -3.59 0 0 75.54 -3.6 0 0 79.14 -3.6 0 0 53.96 -3.59 0 0 43.16 -3.6 0 0 50.36 -3.6 0 0 71.95 -3.59 0 0 50.36 -3.6 0 0 25.18 3.6 0 0 -7.2 3.59 0 0 -7.19 3.6 0 0 -10.79 3.6 0 0 -10.79 3.59 0 0 -7.2 3.6 0 0 -10.79 3.6 0 0 -7.19 3.59 0 0 -3.6 3.6 0 0 -7.2 3.6 0 0 -7.19 3.6 0 0 -7.2 3.59 0 0 -7.19 3.6 0 0 -7.19 3.6 0 0 -3.6 3.6 0 0 -7.19 3.6 0 0 -3.6 3.59 0 0 -3.6 3.6 0 0 -7.19 3.59 0 0 -7.2 3.6 0 0 -3.6 3.6 0 0 -3.59 3.59 0 0 -3.6 3.6 0 0 -3.6 3.6 0 0 -3.6 3.6 0 0 -3.59 3.59 0 0 -3.6 3.6 0 0 -3.6 3.6 0 0 -3.59 3.6 0 0 -3.6 3.59 0 0 -3.6 7.2 0 0 -3.59 3.6 0 0 -3.6 7.19 0 0 -3.6 7.19 0 0 -3.6 7.2 0 0 -3.59 10.79 0 0 -3.6 10.79 0 0 -3.6 14.39 0 0 -3.59 39.57 0 0 3.59 14.39 0 0 3.6 10.79 0 0 3.6 7.2 0 0 3.59 7.19 0 0 3.6 7.19 0 0 3.6 7.2 0 0 3.6 3.59 0 0 3.59 3.6 0 0 3.6 7.2 0 0 3.6 3.6 0 0 3.59 3.59 0 0 3.6 3.6 0 0 3.6 3.6 0 0 3.59 3.59 0 0 3.6 3.6 0 0 3.6 3.6 0 0 7.19 3.6 0 0 3.6 3.59 0 0 7.2 3.6 0 0 3.59 3.6 0 0 7.2 3.59 0 0 3.6 3.6 0 0 7.19 3.6 0 0 7.19 3.59 0 0 10.79 3.6 0 0 7.2 3.6 0 0 7.19 3.6 0 0 7.2 3.59 0 0 10.79 3.6 0 0 7.2 3.6 0 0 -50.37 -3.6 0 0 -111.51 -3.6 0 0 -35.97 -3.59 0 0 -97.13 -3.6 0 0 -86.33 -3.6 0 0 -39.57 -3.6 0 0 -68.35 -3.59 0 0 -10.79 -3.6 0 0 -53.96 -3.6 0 0 -28.77 -3.59 0 0 -35.98 -3.6 0 0 -32.37 -3.6 0 0 -32.38 -3.59 0 0 -21.58 -3.6 0 0 -28.78 -3.6 0 0 -35.97 -3.6 0 0 -35.97 -3.59 0 0 -35.97 -3.6 0 0 -46.77 -3.6 0 0 -25.18 -3.59 0 0 -172.66 3.59 0 0 -64.75 3.6 0 0 -50.37 3.6 0 0 -100.72zm-14.39 -75.54l7.19 0 0 3.6 3.6 0 0 3.59 3.6 0 0 3.6 3.59 0 0 7.2 3.6 0 0 7.19 3.6 0 0 7.2 3.6 0 0 10.79 3.59 0 0 17.98 3.6 0 0 143.89 -3.6 0 0 25.18 -3.59 0 0 233.82 3.59 0 0 50.36 3.6 0 0 50.36 3.6 0 0 32.38 3.59 0 0 28.78 3.6 0 0 39.57 3.6 0 0 28.77 3.59 0 0 35.98 3.6 0 0 17.98 3.6 0 0 43.17 3.6 0 0 21.58 3.59 0 0 32.38 3.6 0 0 50.36 3.6 0 0 35.97 3.6 0 0 57.56 3.59 0 0 57.55 3.6 0 0 53.96 3.6 0 0 122.31 3.6 0 0 75.54 3.59 0 0 75.54 3.6 0 0 68.35 3.6 0 0 28.77 3.59 0 0 14.39 3.6 0 0 17.99 3.6 0 0 10.79 3.59 0 0 14.39 3.6 0 0 17.98 3.6 0 0 14.4 3.6 0 0 3.59 3.59 0 0 17.99 3.6 0 0 10.79 3.6 0 0 17.98 3.6 0 0 14.4 3.6 0 0 14.38 3.59 0 0 14.39 3.6 0 0 17.99 3.6 0 0 17.98 3.59 0 0 97.13 -3.59 0 0 17.98 -3.6 0 0 21.59 -3.6 0 0 7.19 -3.59 0 0 10.79 -3.6 0 0 7.2 -3.6 0 0 10.79 -3.6 0 0 7.19 -3.6 0 0 7.2 -3.59 0 0 7.19 -3.6 0 0 3.6 -3.6 0 0 7.19 -3.6 0 0 7.2 -3.59 0 0 3.59 -3.6 0 0 3.6 -3.6 0 0 3.6 -3.59 0 0 7.19 -3.6 0 0 3.6 -3.6 0 0 3.6 -3.59 0 0 3.6 -3.6 0 0 3.6 -3.6 0 0 3.59 -3.6 0 0 3.6 -3.59 0 0 3.6 -3.6 0 0 3.59 -7.2 0 0 3.6 -3.59 0 0 3.6 -3.6 0 0 3.59 -3.6 0 0 3.6 -3.6 0 0 3.6 -7.19 0 0 3.59 -3.6 0 0 3.6 -7.19 0 0 3.6 -3.6 0 0 3.6 -3.59 0 0 3.59 -3.6 0 0 3.6 -7.2 0 0 3.6 -3.59 0 0 3.6 -7.2 0 0 3.6 -3.59 0 0 3.59 -3.6 0 0 3.6 -7.2 0 0 3.6 -3.6 0 0 3.59 -3.59 0 0 3.6 -7.2 0 0 3.6 -3.59 0 0 3.59 -3.6 0 0 3.6 -7.19 0 0 3.6 -3.6 0 0 3.59 -7.19 0 0 3.6 -7.2 0 0 3.6 -7.2 0 0 3.6 -7.19 0 0 3.6 -7.2 0 0 3.59 -14.38 0 0 3.6 -21.58 0 0 -3.6 -14.4 0 0 -3.59 -7.19 0 0 -3.6 -7.2 0 0 -3.6 -7.19 0 0 -3.6 -3.6 0 0 -3.6 -7.19 0 0 -3.59 -3.6 0 0 -3.6 -3.59 0 0 -3.6 -7.2 0 0 -3.59 -3.6 0 0 -3.6 -7.19 0 0 -3.6 -3.6 0 0 -3.59 -3.6 0 0 -3.6 -3.59 0 0 -3.6 -7.2 0 0 -3.59 -3.6 0 0 -3.6 -3.59 0 0 -3.6 -7.2 0 0 -3.6 -3.59 0 0 -3.6 -7.19 0 0 -3.59 -3.6 0 0 -3.6 -3.6 0 0 -3.6 -3.6 0 0 -3.6 -7.19 0 0 -3.59 -3.6 0 0 -3.6 -7.2 0 0 -3.6 -3.59 0 0 -3.59 -3.6 0 0 -3.6 -3.6 0 0 -3.6 -7.19 0 0 -3.59 -3.6 0 0 -3.6 -3.59 0 0 -3.6 -3.6 0 0 -3.59 -3.6 0 0 -3.6 -7.19 0 0 -3.6 -3.6 0 0 -3.6 -3.6 0 0 -3.6 -3.59 0 0 -3.59 -3.6 0 0 -7.2 -3.6 0 0 -3.6 -3.6 0 0 -3.59 -3.6 0 0 -3.6 -3.59 0 0 -7.19 -3.6 0 0 -3.6 -3.6 0 0 -7.19 -3.59 0 0 -7.2 -3.6 0 0 -7.19 -3.6 0 0 -10.8 -3.59 0 0 -10.79 -3.6 0 0 -17.98 -3.6 0 0 -10.79 -3.59 0 0 -79.14 3.59 0 0 -35.97 3.6 0 0 -28.78 3.6 0 0 -21.59 3.59 0 0 -17.98 3.6 0 0 -25.18 3.6 0 0 -14.39 3.59 0 0 -21.58 3.6 0 0 -21.59 3.6 0 0 -21.58 3.59 0 0 -21.58 3.6 0 0 -17.99 3.6 0 0 -43.17 3.6 0 0 -28.78 3.6 0 0 -53.95 3.59 0 0 -43.17 3.6 0 0 -50.36 3.6 0 0 -61.16 3.59 0 0 -46.76 3.6 0 0 -57.55 3.6 0 0 -57.56 3.6 0 0 -86.33 3.59 0 0 -28.78 3.6 0 0 -57.55 3.6 0 0 -43.17 3.59 0 0 -43.17 3.6 0 0 -28.78 3.6 0 0 -32.37 3.59 0 0 -25.18 3.6 0 0 -32.38 3.6 0 0 -25.18 3.6 0 0 -21.58 3.59 0 0 -21.58 3.6 0 0 -21.59 3.6 0 0 -14.39 3.6 0 0 -21.58 3.6 0 0 -14.39 3.59 0 0 -21.58 3.6 0 0 -10.79 3.59 0 0 -14.39 3.6 0 0 -25.18 3.6 0 0 -14.39 3.59 0 0 -14.39 3.6 0 0 -14.39 3.6 0 0 -10.79 3.6 0 0 -17.99 3.59 0 0 -14.39 3.6 0 0 -14.38 3.6 0 0 -7.2 3.6 0 0 -14.39 3.59 0 0 -14.39 3.6 0 0 -14.39 3.6 0 0 -10.79 3.6 0 0 -17.98 3.59 0 0 -10.8 3.6 0 0 -10.79 3.6 0 0 -14.39 3.59 0 0 -14.38 3.6 0 0 -10.8 3.6 0 0 -10.79 3.59 0 0 -10.79 3.6 0 0 -10.79 3.6 0 0 -7.2 3.6 0 0 -14.38 3.59 0 0 -10.8 3.6 0 0 -10.79 3.6 0 0 -7.19 3.6 0 0 -10.8 3.6 0 0 -10.79 3.59 0 0 -7.19 3.6 0 0 -7.19 3.6 0 0 -10.8 3.59 0 0 -7.19 3.6 0 0 -7.2 3.6 0 0 -7.19 3.59 0 0 -7.2 3.6 0 0 -3.59 3.6 0 0 -7.2 3.59 0 0 -3.59 3.6 0 0 -7.2 3.6 0 0 -3.59 3.6 0 0 -7.2 3.59 0 0 -3.6 3.6 0 0 -3.59 3.6 0 0 -3.6 3.6 0 0 -3.6 3.6 0 0 -3.6 7.19 0 0 -3.59 3.6 0 0 -3.6 10.79 0 0 -3.6 25.18 0 0 3.6z"/>
 </g>
</svg>
