<!-- Creator: CorelDRAW (Versión de evaluación) -->
<svg xmlns="http://www.w3.org/2000/svg" xml:space="preserve" width="763px" height="2062px" version="1.1" style="shape-rendering:geometricPrecision; text-rendering:geometricPrecision; image-rendering:optimizeQuality; fill-rule:evenodd; clip-rule:evenodd"
viewBox="0 0 763 2062.24"
 xmlns:xlink="http://www.w3.org/1999/xlink"
 xmlns:xodm="http://www.corel.com/coreldraw/odm/2003">
 <defs>
  <style type="text/css">
   <![CDATA[
    .str0 {stroke:#E6E7E8;stroke-width:2;stroke-miterlimit:22.9256}
    .fil0 {fill:none}
   ]]>
  </style>
 </defs>
 <g id="missing">
  <metadata id="CorelCorpID_0Corel-Layer"/>
  <path id="outline" class="fil0 str0" d="M348.25 1753.76l-3.6 0 0 61.18 3.6 0 0 7.2 3.6 0 0 10.8 3.6 0 0 7.19 3.6 0 0 7.21 3.6 0 0 3.59 -3.6 0 0 3.6 -7.2 0 0 3.6 -7.2 0 0 3.6 -3.59 0 0 3.6 -7.2 0 0 3.6 -7.2 0 0 3.6 -3.6 0 0 3.6 -7.2 0 0 3.59 -3.6 0 0 3.6 -7.2 0 0 3.6 -7.19 0 0 3.6 -3.6 0 0 3.6 -7.2 0 0 3.6 -7.2 0 0 3.6 -7.2 0 0 3.6 -3.6 0 0 3.6 -7.19 0 0 3.59 -7.2 0 0 3.6 -7.2 0 0 3.6 -10.8 0 0 3.6 -7.2 0 0 3.6 -7.19 0 0 3.6 -10.8 0 0 3.6 -35.99 0 0 -3.6 -10.8 0 0 -3.6 -7.2 0 0 -3.6 -10.79 0 0 -3.6 -3.6 0 0 -3.6 -7.2 0 0 -3.6 -3.6 0 0 -3.59 -3.6 0 0 -3.6 -3.6 0 0 -3.6 -3.6 0 0 -3.6 -3.6 0 0 -3.6 -3.59 0 0 -7.2 -3.6 0 0 -7.2 -3.6 0 0 -7.19 -3.6 0 0 -7.2 -3.6 0 0 -10.8 -3.6 0 0 -17.99 -3.6 0 0 -18 -3.6 0 0 -10.8 -3.6 0 0 -7.19 -7.2 0 0 25.19 3.61 0 0 14.39 3.59 0 0 10.8 3.6 0 0 14.4 3.6 0 0 14.39 3.6 0 0 7.2 3.6 0 0 7.2 3.6 0 0 3.6 3.6 0 0 7.2 3.6 0 0 3.6 3.6 0 0 7.19 3.59 0 0 3.6 3.6 0 0 3.6 7.2 0 0 3.6 3.6 0 0 3.6 7.2 0 0 3.6 7.2 0 0 3.6 7.2 0 0 3.6 10.79 0 0 3.6 10.8 0 0 3.6 39.59 0 0 -3.6 10.79 0 0 -3.6 10.8 0 0 -3.6 7.2 0 0 -3.6 10.8 0 0 -3.6 7.2 0 0 -3.6 7.19 0 0 -3.6 7.2 0 0 -3.6 3.6 0 0 -3.6 7.2 0 0 -3.6 7.2 0 0 -3.59 3.6 0 0 -3.6 7.19 0 0 -3.6 7.2 0 0 -3.6 3.6 0 0 -3.6 7.2 0 0 -3.6 7.2 0 0 3.6 3.6 0 0 7.2 3.6 0 0 3.6 3.6 0 0 3.6 7.19 0 0 3.59 3.6 0 0 3.6 3.6 0 0 3.6 3.6 0 0 3.6 7.2 0 0 -7.2 -3.6 0 0 -3.6 -3.6 0 0 -3.59 -3.6 0 0 -3.6 -3.6 0 0 -3.6 -3.6 0 0 -7.2 -3.6 0 0 -3.6 -3.59 0 0 -10.8 3.59 0 0 -3.59 7.2 0 0 -3.6 7.2 0 0 -3.6 21.59 0 0 3.6 3.6 0 0 3.6 3.6 0 0 3.59 7.2 0 0 3.6 3.6 0 0 3.6 7.2 0 0 3.6 3.6 0 0 3.6 7.2 0 0 3.6 3.59 0 0 3.6 7.2 0 0 3.6 3.6 0 0 3.6 3.6 0 0 3.59 7.2 0 0 3.6 7.2 0 0 3.6 3.59 0 0 3.6 7.2 0 0 3.6 7.2 0 0 3.6 7.2 0 0 3.6 7.2 0 0 3.6 7.2 0 0 3.6 7.19 0 0 3.6 7.2 0 0 3.6 10.8 0 0 3.6 14.39 0 0 3.59 14.4 0 0 3.6 35.99 0 0 -3.6 10.8 0 0 -3.59 10.8 0 0 -3.6 10.79 0 0 -3.6 7.2 0 0 -3.6 7.2 0 0 -3.6 7.2 0 0 -3.6 7.2 0 0 -3.6 3.6 0 0 -3.6 7.19 0 0 -3.6 3.6 0 0 -3.6 3.6 0 0 -3.6 3.6 0 0 -3.6 7.2 0 0 -3.59 3.6 0 0 -3.6 7.19 0 0 -3.6 3.6 0 0 -3.6 7.2 0 0 3.6 -3.6 0 0 3.6 -3.6 0 0 3.6 -3.6 0 0 3.59 -3.59 0 0 3.6 -3.6 0 0 3.6 -3.6 0 0 3.6 -3.6 0 0 3.6 -3.6 0 0 3.6 -3.6 0 0 3.6 -3.6 0 0 3.6 -3.6 0 0 3.6 -3.6 0 0 3.6 -3.59 0 0 3.6 -3.6 0 0 3.6 -3.6 0 0 3.59 -3.6 0 0 3.6 -7.2 0 0 3.6 -3.6 0 0 3.6 -3.6 0 0 3.6 -7.2 0 0 3.6 -3.6 0 0 3.6 -3.6 0 0 3.6 -7.19 0 0 3.6 -7.2 0 0 3.59 -7.2 0 0 3.6 -7.2 0 0 3.6 -50.38 0 0 -3.6 -10.8 0 0 -3.6 -10.8 0 0 -3.59 -7.2 0 0 -3.6 -7.19 0 0 -3.6 -7.2 0 0 -3.6 -7.2 0 0 -3.6 -7.2 0 0 -3.6 -7.2 0 0 -3.6 -7.2 0 0 -3.6 -7.19 0 0 -3.6 -7.2 0 0 -3.59 -7.2 0 0 -3.6 -7.2 0 0 -3.6 -10.79 0 0 -3.6 -7.2 0 0 -3.6 -39.59 0 0 3.6 -14.4 0 0 3.6 -10.79 0 0 3.6 -7.2 0 0 3.6 -7.2 0 0 3.59 -10.8 0 0 3.6 -7.19 0 0 3.6 -7.21 0 0 3.6 -3.59 0 0 3.6 -7.2 0 0 3.6 -10.8 0 0 3.6 -3.6 0 0 3.6 -7.2 0 0 3.6 -7.19 0 0 3.59 -7.2 0 0 3.6 -14.4 0 0 3.6 -10.8 0 0 3.6 -32.39 0 0 -3.6 -14.39 0 0 -3.6 -10.8 0 0 -3.6 -3.6 0 0 -3.59 -7.2 0 0 -3.6 -7.19 0 0 -3.6 -3.61 0 0 -3.6 -7.19 0 0 -3.6 -3.6 0 0 -3.6 -3.6 0 0 -3.6 -3.6 0 0 -3.6 -7.2 0 0 -3.6 -3.6 0 0 -3.59 -3.6 0 0 -3.6 -7.19 0 0 -3.6 -3.6 0 0 -3.6 -3.6 0 0 -3.6 -3.6 0 0 -3.6 -7.2 0 0 -3.6 -3.6 0 0 -3.6 -3.6 0 0 -3.6 -3.59 0 0 -3.6 -3.61 0 0 -3.6 -3.6 0 0 -3.6 -3.59 0 0 -3.59 -3.6 0 0 -3.6 -3.6 0 0 -3.6 -3.6 0 0 -3.6 -3.6 0 0 -3.6 -3.6 0 0 -7.2 -3.6 0 0 -7.2 -3.6 0 0 -7.19 -3.6 0 0 -3.6 -3.59 0 0 -10.8 -3.6 0 0 -7.2 -3.61 0 0 -21.59 -3.59 0 0 -14.4 -3.6 0 0 -75.58 3.6 0 0 -25.19 3.59 0 0 -21.59 3.61 0 0 -21.6 3.6 0 0 -21.59 3.59 0 0 -14.4 3.6 0 0 -18 3.6 0 0 -10.79 3.6 0 0 -14.4 3.6 0 0 -7.2 3.6 0 0 -17.99 3.6 0 0 -7.2 3.6 0 0 -10.8 3.6 0 0 -10.8 3.59 0 0 -10.79 3.6 0 0 -10.8 3.61 0 0 -10.8 3.59 0 0 -7.19 3.6 0 0 -10.8 3.6 0 0 -7.2 3.6 0 0 -7.2 3.6 0 0 -7.19 3.6 0 0 -3.61 3.6 0 0 -3.59 7.2 0 0 -3.6 7.19 0 0 -3.6 7.2 0 0 -3.6 7.2 0 0 -3.6 7.2 0 0 -3.6 7.19 0 0 -3.6 10.8 0 0 -3.6 10.8 0 0 -3.6 10.8 0 0 -3.59 10.79 0 0 -3.6 14.4 0 0 -3.6 10.8 0 0 -3.6 14.39 0 0 -3.6 35.99 0 0 -3.6 25.2 0 0 -3.6 115.17 0 0 3.6 25.19 0 0 3.6 25.19 0 0 3.6 18 0 0 3.6 21.59 0 0 3.6 10.8 0 0 3.6 14.4 0 0 3.59 10.8 0 0 3.6 14.39 0 0 3.6 10.8 0 0 3.6 10.79 0 0 3.6 14.4 0 0 3.6 7.2 0 0 3.6 7.2 0 0 3.6 7.19 0 0 3.6 10.8 0 0 3.59 7.2 0 0 3.61 7.2 0 0 3.6 7.2 0 0 3.59 7.19 0 0 3.6 7.2 0 0 3.6 3.6 0 0 3.6 7.2 0 0 3.6 3.6 0 0 10.8 3.6 0 0 14.39 3.6 0 0 10.8 3.59 0 0 10.8 3.6 0 0 7.19 3.6 0 0 10.8 3.6 0 0 10.8 3.6 0 0 10.8 3.6 0 0 10.79 3.6 0 0 10.8 3.6 0 0 14.4 3.6 0 0 14.39 3.59 0 0 7.2 3.61 0 0 18 3.6 0 0 14.39 3.59 0 0 10.8 3.6 0 0 18 3.6 0 0 14.39 3.6 0 0 18 3.6 0 0 28.79 3.6 0 0 43.19 -3.6 0 0 14.39 -3.6 0 0 18 -3.6 0 0 7.2 -3.6 0 0 10.8 -3.6 0 0 7.19 -3.59 0 0 7.2 -3.6 0 0 3.6 -3.61 0 0 7.2 -3.59 0 0 7.19 -3.6 0 0 3.6 -3.6 0 0 3.6 -7.2 0 0 -3.6 -14.4 0 0 3.6 -7.19 0 0 3.6 -3.6 0 0 3.6 -7.2 0 0 3.6 -3.6 0 0 3.6 -3.6 0 0 3.6 -3.6 0 0 3.6 -7.19 0 0 3.59 -3.6 0 0 3.6 -7.2 0 0 3.6 -3.6 0 0 3.6 -7.2 0 0 3.6 -7.2 0 0 3.6 -7.2 0 0 3.6 -7.19 0 0 3.6 -7.2 0 0 3.6 -10.8 0 0 3.6 -39.59 0 0 -3.6 -14.4 0 0 -3.6 -7.19 0 0 -3.6 -7.2 0 0 -3.6 -10.8 0 0 -3.6 -7.2 0 0 -3.6 -7.19 0 0 -3.6 -7.2 0 0 -3.6 -7.2 0 0 -3.6 -7.2 0 0 -3.59 -7.2 0 0 -3.6 -3.6 0 0 -3.6 -7.19 0 0 -3.6 -7.2 0 0 -3.6 -3.6 0 0 -3.6 -7.2 0 0 -3.6 -3.6 0 0 -3.6 -7.2 0 0 -3.6 -3.59 0 0 -3.59 -3.6 0 0 -3.6 -7.2 0 0 -3.6 -3.6 0 0 -3.6 -3.6 0 0 -3.6 -3.6 0 0 -3.6 -7.2 0 0 -3.6 -3.6 0 0 -3.6 -3.6 0 0 -3.59 -3.6 0 0 -3.61 -3.59 0 0 -7.19 -3.6 0 0 -3.6 -3.6 0 0 -10.8 -3.6 0 0 -7.2 -3.6 0 0 -14.39 -3.6 0 0 -68.39 -7.2 0 0 21.6zm-61.18 -1281.26l3.6 0 0 -32.39 3.6 0 0 -25.19 3.6 0 0 -18 3.59 0 0 -10.8 3.6 0 0 -10.8 3.61 0 0 -3.59 3.59 0 0 -7.2 18 0 0 3.6 3.6 0 0 3.6 3.6 0 0 3.59 3.6 0 0 3.6 3.59 0 0 3.61 3.6 0 0 7.19 3.6 0 0 7.2 3.6 0 0 7.2 3.6 0 0 7.2 3.6 0 0 7.19 3.6 0 0 10.8 3.6 0 0 10.8 3.6 0 0 7.2 3.59 0 0 10.79 3.6 0 0 14.4 3.6 0 0 10.8 3.6 0 0 14.39 3.6 0 0 14.4 3.6 0 0 14.39 3.6 0 0 14.4 3.6 0 0 10.8 3.6 0 0 21.59 3.6 0 0 14.4 3.6 0 0 32.39 3.6 0 0 14.4 3.59 0 0 35.99 3.6 0 0 32.39 3.6 0 0 39.59 3.6 0 0 28.79 3.6 0 0 28.79 3.6 0 0 14.4 3.6 0 0 28.79 3.6 0 0 18 3.6 0 0 14.39 3.59 0 0 14.4 3.6 0 0 17.99 3.6 0 0 7.2 3.6 0 0 10.8 3.6 0 0 3.6 3.6 0 0 7.19 -3.6 0 0 10.8 -3.6 0 0 14.4 -3.6 0 0 14.39 -3.6 0 0 10.8 -3.6 0 0 10.8 -3.59 0 0 10.79 -3.6 0 0 10.8 -3.6 0 0 10.8 -3.6 0 0 10.8 -3.6 0 0 7.2 -3.6 0 0 14.39 -3.6 0 0 10.8 -3.6 0 0 7.2 -3.6 0 0 10.8 -3.59 0 0 7.19 -3.6 0 0 10.8 -3.6 0 0 7.2 -3.6 0 0 7.2 -3.6 0 0 3.59 -3.6 0 0 7.2 -3.6 0 0 3.6 -3.6 0 0 3.6 -3.6 0 0 3.6 -17.99 0 0 -3.6 -3.6 0 0 -3.6 -3.6 0 0 -3.6 -3.6 0 0 -7.2 -3.6 0 0 -3.59 -3.6 0 0 -7.2 -3.6 0 0 -7.2 -3.6 0 0 -3.6 -3.59 0 0 -7.2 -3.6 0 0 -7.19 -3.6 0 0 -10.8 -3.6 0 0 -3.6 -3.6 0 0 -7.2 -3.6 0 0 -7.2 -3.6 0 0 -10.8 -3.6 0 0 -7.19 -3.6 0 0 -7.2 -3.59 0 0 -7.2 -3.61 0 0 -7.2 -3.6 0 0 -10.79 -3.59 0 0 -7.2 -3.6 0 0 -7.2 -3.6 0 0 -7.2 -3.6 0 0 -10.8 -3.6 0 0 -7.19 -3.6 0 0 -7.2 -3.6 0 0 -10.8 -3.6 0 0 -10.79 -3.6 0 0 -14.4 3.6 0 0 -21.6 3.6 0 0 -21.59 3.6 0 0 -35.99 3.6 0 0 -35.99 3.6 0 0 -32.39 3.6 0 0 -190.75 -3.6 0 0 -118.77zm248.34 -57.58l3.59 0 0 -14.4 3.6 0 0 -10.8 3.6 0 0 -7.19 3.6 0 0 -7.21 3.6 0 0 -3.59 7.2 0 0 3.59 7.2 0 0 3.6 3.59 0 0 3.61 7.2 0 0 3.59 3.6 0 0 7.2 3.6 0 0 3.6 3.6 0 0 7.2 3.6 0 0 3.6 3.6 0 0 7.2 3.6 0 0 7.19 3.59 0 0 7.2 3.6 0 0 7.2 3.6 0 0 7.2 3.6 0 0 7.19 3.6 0 0 10.8 3.6 0 0 10.8 3.6 0 0 7.2 3.6 0 0 14.39 3.6 0 0 7.2 3.6 0 0 10.8 3.6 0 0 10.8 3.6 0 0 10.8 3.59 0 0 10.79 3.6 0 0 18 3.6 0 0 10.79 3.6 0 0 18 3.6 0 0 10.79 3.6 0 0 18 3.6 0 0 21.6 3.6 0 0 21.59 3.6 0 0 21.59 3.59 0 0 18 3.6 0 0 35.99 3.6 0 0 35.99 3.6 0 0 50.39 3.6 0 0 104.37 -3.6 0 0 61.18 -3.6 0 0 32.39 -3.6 0 0 25.2 -3.6 0 0 35.98 -3.59 0 0 28.8 -3.6 0 0 28.79 -3.6 0 0 35.99 -3.6 0 0 32.39 -3.6 0 0 39.59 -3.6 0 0 190.75 3.6 0 0 14.4 3.6 0 0 14.4 -7.2 0 0 -3.6 -7.2 0 0 -3.61 -7.19 0 0 -3.59 -7.2 0 0 -3.6 -7.2 0 0 -3.6 -7.2 0 0 -3.6 -7.2 0 0 -3.6 -7.2 0 0 -3.6 -7.19 0 0 -3.6 -10.8 0 0 -3.6 -7.2 0 0 -3.6 -10.8 0 0 -3.59 -10.79 0 0 -3.6 -7.2 0 0 -3.6 -10.8 0 0 -3.6 -14.4 0 0 -3.6 -14.39 0 0 -3.6 -14.4 0 0 -3.6 -14.4 0 0 -3.6 -21.59 0 0 -3.6 -21.59 0 0 -3.59 -18 0 0 -3.61 -140.36 0 0 3.61 -39.59 0 0 3.59 -14.4 0 0 3.6 -17.99 0 0 3.6 -10.8 0 0 3.6 -17.99 0 0 3.6 -7.2 0 0 3.6 -10.8 0 0 3.6 -10.79 0 0 3.6 -10.8 0 0 3.6 -7.2 0 0 3.59 -7.2 0 0 3.6 -7.2 0 0 3.6 -7.19 0 0 3.6 -7.2 0 0 3.6 -3.6 0 0 -25.19 3.6 0 0 -50.39 3.6 0 0 -35.99 3.6 0 0 -82.78 -3.6 0 0 -46.79 -3.6 0 0 -53.98 -3.6 0 0 -18 -3.6 0 0 -35.99 -3.6 0 0 -21.59 -3.6 0 0 -18 -3.6 0 0 -32.39 -3.6 0 0 -14.4 -3.59 0 0 -28.79 -3.61 0 0 -21.59 -3.6 0 0 -25.19 -3.59 0 0 -32.39 -3.6 0 0 -35.99 -3.6 0 0 -21.6 -3.6 0 0 -28.79 -3.6 0 0 -100.77 3.6 0 0 -50.39 3.6 0 0 -32.39 3.6 0 0 -21.59 3.6 0 0 -28.8 3.59 0 0 -17.99 3.6 0 0 -14.4 3.61 0 0 -14.39 3.59 0 0 -21.6 3.6 0 0 -14.4 3.6 0 0 -10.79 3.6 0 0 -10.8 3.6 0 0 -10.8 3.6 0 0 -10.8 3.6 0 0 -10.79 3.6 0 0 -7.2 3.6 0 0 -7.2 3.59 0 0 -7.2 3.6 0 0 -3.6 3.6 0 0 -3.59 7.2 0 0 -3.6 10.8 0 0 3.6 7.19 0 0 7.19 3.61 0 0 7.2 3.59 0 0 10.8 3.6 0 0 14.39 3.6 0 0 32.4 3.6 0 0 10.79 3.6 0 0 136.77 3.6 0 0 39.59 3.6 0 0 28.79 3.6 0 0 21.59 3.6 0 0 21.6 3.6 0 0 17.99 3.59 0 0 14.4 3.6 0 0 14.4 3.6 0 0 17.99 3.6 0 0 10.8 3.6 0 0 10.79 3.6 0 0 14.4 3.6 0 0 10.8 3.6 0 0 14.39 3.6 0 0 7.2 3.59 0 0 10.8 3.6 0 0 10.8 3.6 0 0 10.79 3.6 0 0 7.2 3.6 0 0 10.8 3.6 0 0 7.19 3.6 0 0 10.8 3.6 0 0 10.8 3.6 0 0 7.2 3.59 0 0 10.79 3.61 0 0 7.2 3.6 0 0 10.8 3.59 0 0 7.2 3.6 0 0 7.19 3.6 0 0 7.21 3.6 0 0 7.19 3.6 0 0 7.2 3.6 0 0 10.8 3.6 0 0 7.2 3.6 0 0 7.19 3.6 0 0 7.2 3.59 0 0 7.2 3.6 0 0 7.2 3.61 0 0 7.19 3.59 0 0 7.21 3.6 0 0 7.19 3.6 0 0 10.8 3.6 0 0 3.6 3.6 0 0 7.2 3.6 0 0 7.19 3.6 0 0 3.6 3.6 0 0 7.2 3.6 0 0 7.2 3.59 0 0 3.6 3.6 0 0 3.6 3.6 0 0 3.6 3.6 0 0 3.59 7.2 0 0 3.6 28.79 0 0 -3.6 7.2 0 0 -3.59 7.2 0 0 -3.6 3.6 0 0 -3.6 3.6 0 0 -3.6 3.6 0 0 -7.2 3.59 0 0 -3.6 3.6 0 0 -7.2 3.6 0 0 -7.19 3.6 0 0 -7.2 3.6 0 0 -7.2 3.6 0 0 -10.8 3.6 0 0 -7.19 3.6 0 0 -10.8 3.6 0 0 -7.2 3.59 0 0 -10.8 3.6 0 0 -10.79 3.6 0 0 -10.8 3.6 0 0 -10.8 3.6 0 0 -10.79 3.6 0 0 -14.4 3.6 0 0 -10.8 3.6 0 0 -14.4 3.6 0 0 -10.79 3.59 0 0 -10.8 3.61 0 0 -10.79 3.6 0 0 -14.4 3.59 0 0 -14.4 3.6 0 0 -14.39 3.6 0 0 -10.8 3.6 0 0 -10.8 3.6 0 0 -17.99 3.6 0 0 -14.4 3.6 0 0 -21.59 3.6 0 0 -18 3.6 0 0 -14.39 3.59 0 0 -28.8 3.6 0 0 -17.99 3.61 0 0 -32.39 3.59 0 0 -183.56 -3.59 0 0 -115.16zm-226.74 -68.39l-7.21 0 0 3.6 -3.59 0 0 3.6 -3.6 0 0 3.6 -3.6 0 0 7.2 -3.6 0 0 7.2 -3.6 0 0 10.8 -3.6 0 0 10.79 -3.6 0 0 14.4 -3.6 0 0 28.79 -3.6 0 0 17.99 -3.59 0 0 143.97 3.59 0 0 143.96 -3.59 0 0 68.38 -3.6 0 0 43.19 -3.61 0 0 28.79 -3.59 0 0 14.4 -3.6 0 0 -10.8 -3.6 0 0 -10.8 -3.6 0 0 -10.79 -3.6 0 0 -7.2 -3.6 0 0 -14.4 -3.6 0 0 -14.4 -3.6 0 0 -14.39 -3.6 0 0 -7.2 -3.59 0 0 -14.39 -3.6 0 0 -21.6 -3.6 0 0 -14.4 -3.6 0 0 -21.59 -3.6 0 0 -14.4 -3.6 0 0 -21.59 -3.6 0 0 -28.79 -3.6 0 0 -21.6 -3.6 0 0 -129.56 -3.59 0 0 -46.79 -3.6 0 0 -21.6 -3.6 0 0 -17.99 -3.6 0 0 -7.2 -3.6 0 0 -7.2 -3.6 0 0 -7.19 -3.6 0 0 -7.2 -3.6 0 0 -3.6 -3.6 0 0 -3.6 -3.6 0 0 -3.6 -7.2 0 0 -3.6 -25.19 0 0 3.6 -7.2 0 0 3.6 -3.59 0 0 3.6 -3.6 0 0 3.6 -3.6 0 0 3.6 -3.6 0 0 3.6 -3.6 0 0 3.6 -3.6 0 0 7.19 -3.6 0 0 7.2 -3.6 0 0 7.2 -3.6 0 0 7.2 -3.59 0 0 10.79 -3.61 0 0 7.2 -3.6 0 0 18 -3.59 0 0 14.39 -3.6 0 0 14.4 -3.6 0 0 14.4 -3.6 0 0 21.59 -3.6 0 0 18 -3.6 0 0 10.79 -3.6 0 0 28.79 -3.6 0 0 28.8 -3.6 0 0 25.19 -3.59 0 0 39.59 -3.6 0 0 115.17 3.6 0 0 32.39 3.59 0 0 50.39 3.6 0 0 21.59 3.6 0 0 18 3.6 0 0 25.19 3.6 0 0 28.79 3.6 0 0 25.2 3.6 0 0 17.99 3.6 0 0 28.79 3.6 0 0 18 3.59 0 0 32.39 3.6 0 0 21.59 3.61 0 0 32.39 3.59 0 0 46.79 3.6 0 0 161.96 -3.6 0 0 21.6 -3.59 0 0 35.98 -3.61 0 0 25.2 -3.6 0 0 10.8 -3.59 0 0 14.39 -3.6 0 0 10.8 -3.6 0 0 10.8 -3.6 0 0 7.19 -3.6 0 0 10.8 -3.6 0 0 10.8 -3.6 0 0 7.19 -3.6 0 0 14.4 -3.6 0 0 10.8 -3.59 0 0 10.8 -3.6 0 0 7.19 -3.61 0 0 18 -3.59 0 0 10.8 -3.6 0 0 17.99 -3.6 0 0 10.8 -3.6 0 0 17.99 -3.6 0 0 18 -3.6 0 0 21.6 -3.6 0 0 21.59 -3.6 0 0 35.99 -3.6 0 0 50.39 3.6 0 0 25.19 3.6 0 0 10.79 3.6 0 0 14.4 3.6 0 0 10.8 3.6 0 0 10.8 3.6 0 0 7.19 3.6 0 0 7.2 3.6 0 0 7.2 3.59 0 0 3.6 3.61 0 0 3.6 3.6 0 0 7.19 3.59 0 0 3.6 3.6 0 0 3.6 3.6 0 0 3.6 3.6 0 0 3.6 3.6 0 0 3.6 3.6 0 0 3.6 3.6 0 0 3.6 3.6 0 0 3.6 3.6 0 0 3.6 7.19 0 0 3.6 3.61 0 0 3.6 3.59 0 0 3.59 3.6 0 0 3.6 3.6 0 0 3.6 3.6 0 0 3.6 7.2 0 0 3.6 3.6 0 0 3.6 3.6 0 0 3.6 7.19 0 0 3.6 3.6 0 0 3.6 3.6 0 0 3.59 7.2 0 0 3.6 3.6 0 0 3.6 7.2 0 0 3.6 3.6 0 0 3.6 7.2 0 0 3.6 7.19 0 0 3.6 7.2 0 0 3.6 10.8 0 0 3.6 17.99 0 0 3.6 35.99 0 0 -3.6 21.6 0 0 -3.6 7.2 0 0 -3.6 7.19 0 0 -3.6 10.8 0 0 -3.6 7.2 0 0 -3.6 7.2 0 0 -3.6 7.19 0 0 -3.6 3.6 0 0 -3.6 7.2 0 0 -3.59 7.2 0 0 -3.6 7.2 0 0 -3.6 10.8 0 0 -3.6 7.19 0 0 -3.6 7.2 0 0 -3.6 10.8 0 0 -3.6 46.79 0 0 3.6 7.2 0 0 3.6 7.19 0 0 3.6 7.2 0 0 3.6 7.2 0 0 3.6 7.2 0 0 3.6 7.19 0 0 3.59 7.2 0 0 3.6 3.6 0 0 3.6 7.2 0 0 3.6 10.8 0 0 3.6 7.2 0 0 3.6 7.19 0 0 3.6 14.4 0 0 3.6 14.4 0 0 3.6 10.8 0 0 3.6 35.98 0 0 -3.6 10.8 0 0 -3.6 10.8 0 0 -3.6 7.2 0 0 -3.6 7.19 0 0 -3.6 3.6 0 0 -3.6 7.2 0 0 -3.6 7.2 0 0 -3.6 3.6 0 0 -3.6 3.6 0 0 -3.59 3.6 0 0 -3.6 7.2 0 0 -3.6 3.59 0 0 -3.6 3.6 0 0 -3.6 3.6 0 0 -3.6 3.6 0 0 -3.6 3.6 0 0 -3.6 3.6 0 0 -3.6 7.2 0 0 -3.59 3.6 0 0 -3.6 3.59 0 0 -3.6 3.6 0 0 -3.6 3.6 0 0 -3.6 3.6 0 0 -3.6 3.6 0 0 -3.6 3.6 0 0 -3.6 3.6 0 0 -3.6 3.6 0 0 -3.6 3.6 0 0 -7.2 3.59 0 0 -3.59 3.61 0 0 -3.6 3.6 0 0 -3.6 3.59 0 0 -3.6 3.6 0 0 -7.2 3.6 0 0 -3.6 3.6 0 0 -7.2 3.6 0 0 -7.19 3.6 0 0 -7.2 3.6 0 0 -10.8 3.6 0 0 -7.19 3.6 0 0 -10.8 3.59 0 0 -18 3.6 0 0 -21.59 3.6 0 0 -53.99 -3.6 0 0 -28.79 -3.6 0 0 -21.59 -3.59 0 0 -10.8 -3.6 0 0 -18 -3.6 0 0 -7.2 -3.6 0 0 -14.39 -3.6 0 0 -14.4 -3.6 0 0 -17.99 -3.6 0 0 -10.8 -3.6 0 0 -7.2 -3.6 0 0 -17.99 -3.59 0 0 -7.2 -3.6 0 0 -10.8 -3.61 0 0 -10.8 -3.59 0 0 -10.79 -3.6 0 0 -10.8 -3.6 0 0 -10.8 -3.6 0 0 -10.79 -3.6 0 0 -10.8 -3.6 0 0 -14.4 -3.6 0 0 -21.59 -3.6 0 0 -46.79 -3.6 0 0 -133.16 3.6 0 0 -50.39 3.6 0 0 -28.79 3.6 0 0 -43.19 3.6 0 0 -21.6 3.6 0 0 -28.79 3.6 0 0 -35.99 3.6 0 0 -35.99 3.6 0 0 -50.39 3.59 0 0 -61.18 3.61 0 0 -97.17 -3.61 0 0 -64.79 -3.59 0 0 -17.99 -3.6 0 0 -46.79 -3.6 0 0 -14.4 -3.6 0 0 -28.79 -3.6 0 0 -14.39 -3.6 0 0 -18 -3.6 0 0 -21.59 -3.6 0 0 -10.8 -3.6 0 0 -14.4 -3.59 0 0 -17.99 -3.6 0 0 -10.8 -3.6 0 0 -14.4 -3.6 0 0 -7.19 -3.6 0 0 -14.4 -3.6 0 0 -10.8 -3.6 0 0 -10.79 -3.6 0 0 -10.8 -3.6 0 0 -10.8 -3.59 0 0 -7.2 -3.6 0 0 -10.79 -3.6 0 0 -7.2 -3.6 0 0 -7.2 -3.6 0 0 -10.8 -3.6 0 0 -3.59 -3.6 0 0 -7.2 -3.6 0 0 -7.2 -3.6 0 0 -7.2 -3.6 0 0 -3.6 -3.6 0 0 -7.19 -3.6 0 0 -3.61 -3.59 0 0 -3.6 -3.6 0 0 -3.59 -3.6 0 0 -3.6 -3.6 0 0 -3.6 -3.6 0 0 -3.6 -3.6 0 0 -3.6 -3.6 0 0 -3.6 -10.79 0 0 -3.6 -18 0 0 3.6 -7.2 0 0 3.6 -7.19 0 0 7.2 -3.61 0 0 3.6 -3.6 0 0 7.19 -3.59 0 0 7.21 -3.6 0 0 10.79 -3.6 0 0 32.39 -3.6 0 0 100.77 3.6 0 0 165.56 -3.6 0 0 46.79 -3.6 0 0 25.19 -3.6 0 0 14.4 -3.6 0 0 17.99 -3.6 0 0 18 -3.6 0 0 17.99 -3.59 0 0 18 -3.6 0 0 18 -3.61 0 0 10.79 -3.59 0 0 14.4 -3.6 0 0 -3.6 -3.6 0 0 -14.4 -3.6 0 0 -17.99 -3.6 0 0 -21.6 -3.6 0 0 -28.79 -3.6 0 0 -28.79 -3.6 0 0 -28.79 -3.6 0 0 -43.19 -3.59 0 0 -18 -3.6 0 0 -32.39 -3.6 0 0 -28.79 -3.6 0 0 -14.4 -3.6 0 0 -21.59 -3.6 0 0 -25.19 -3.6 0 0 -18 -3.6 0 0 -14.39 -3.6 0 0 -14.4 -3.59 0 0 -10.8 -3.6 0 0 -17.99 -3.6 0 0 -14.4 -3.6 0 0 -7.2 -3.6 0 0 -18 -3.6 0 0 -7.19 -3.6 0 0 -10.8 -3.6 0 0 -10.8 -3.6 0 0 -7.19 -3.6 0 0 -10.8 -3.6 0 0 -7.2 -3.6 0 0 -7.2 -3.59 0 0 -7.19 -3.6 0 0 -3.61 -3.6 0 0 -7.19 -3.6 0 0 -3.6 -3.6 0 0 -7.2 -3.6 0 0 -3.6 -3.6 0 0 -3.6 -3.6 0 0 -3.6 -7.19 0 0 -3.6 -7.2 0 0 -3.6 -25.19 0 0 3.6z"/>
 </g>
</svg>