<?xml version="1.0" encoding="UTF-8"?>
<!DOCTYPE svg PUBLIC "-//W3C//DTD SVG 1.1//EN" "http://www.w3.org/Graphics/SVG/1.1/DTD/svg11.dtd">
<!-- Creator: CorelDRAW (Versión OEM) -->
<svg xmlns="http://www.w3.org/2000/svg" xml:space="preserve" width="71.0032mm" height="173.699mm" version="1.1" style="shape-rendering:geometricPrecision; text-rendering:geometricPrecision; image-rendering:optimizeQuality; fill-rule:evenodd; clip-rule:evenodd"
viewBox="0 0 7100.32 17369.86"
 xmlns:xlink="http://www.w3.org/1999/xlink"
 xmlns:xodm="http://www.corel.com/coreldraw/odm/2003">
 <defs>
  <style type="text/css">
   <![CDATA[
    .str0 {stroke:#E6E7E8;stroke-width:16.93;stroke-miterlimit:22.9256}
    .fil0 {fill:none}
   ]]>
  </style>
 </defs>
 <g id="missing">
  <metadata id="CorelCorpID_0Corel-Layer"/>
  <polygon id="root" class="fil0" points="1060.72,5028.34 1091.21,5028.34 1091.21,5211.18 1121.66,5211.18 1121.66,5394.02 1152.14,5394.02 1152.14,6094.9 1121.66,6094.9 1121.66,6552 1091.21,6552 1091.21,6734.84 1060.72,6734.84 1060.72,7009.1 1030.24,7009.1 1030.24,7161.46 999.79,7161.46 999.79,7405.27 969.3,7405.27 969.3,7527.14 938.82,7527.14 938.82,7679.53 908.37,7679.53 908.37,7770.95 877.88,7770.95 877.88,7953.79 847.4,7953.79 847.4,8075.66 816.95,8075.66 816.95,8167.08 786.46,8167.08 786.46,8319.47 755.98,8319.47 755.98,8441.34 725.53,8441.34 725.53,8563.25 695.04,8563.25 695.04,8624.18 664.56,8624.18 664.56,8746.09 634.11,8746.09 634.11,8868 603.62,8868 603.62,8989.87 573.14,8989.87 573.14,9111.77 542.69,9111.77 542.69,9264.13 512.2,9264.13 512.2,9416.48 481.72,9416.48 481.72,9507.9 451.27,9507.9 451.27,9690.74 420.78,9690.74 420.78,9782.16 390.3,9782.16 390.3,9965.01 359.85,9965.01 359.85,10178.33 329.36,10178.33 329.36,10391.66 298.87,10391.66 298.87,10604.95 268.43,10604.95 268.43,10757.34 237.94,10757.34 237.94,11153.47 207.45,11153.47 207.45,12433.36 237.94,12433.36 237.94,12585.75 268.43,12585.75 268.43,12707.62 298.87,12707.62 298.87,12829.53 329.36,12829.53 329.36,12920.95 359.85,12920.95 359.85,12981.88 390.3,12981.88 390.3,13042.85 420.78,13042.85 420.78,13103.79 451.27,13103.79 451.27,13134.27 481.72,13134.27 481.72,13164.72 542.69,13164.72 542.69,13195.21 725.53,13195.21 725.53,13164.72 755.98,13164.72 755.98,13134.27 816.95,13134.27 816.95,13103.79 847.4,13103.79 847.4,13073.3 877.88,13073.3 877.88,13042.85 908.37,13042.85 908.37,13012.37 938.82,13012.37 938.82,12981.88 969.3,12981.88 969.3,12920.95 999.79,12920.95 999.79,12890.46 1030.24,12890.46 1030.24,12829.53 1060.72,12829.53 1060.72,12799.04 1091.21,12799.04 1091.21,12738.11 1121.66,12738.11 1121.66,12707.62 1152.14,12707.62 1152.14,12646.68 1182.63,12646.68 1182.63,12585.75 1213.08,12585.75 1213.08,12524.78 1243.56,12524.78 1243.56,12463.84 1274.05,12463.84 1274.05,12402.91 1304.5,12402.91 1304.5,12341.94 1334.99,12341.94 1334.99,12250.52 1365.47,12250.52 1365.47,12189.58 1395.92,12189.58 1395.92,12098.16 1426.41,12098.16 1426.41,12037.23 1456.89,12037.23 1456.89,11945.81 1487.34,11945.81 1487.34,11854.39 1517.83,11854.39 1517.83,11762.97 1548.31,11762.97 1548.31,11641.06 1578.76,11641.06 1578.76,11580.12 1609.25,11580.12 1609.25,11458.22 1639.73,11458.22 1639.73,11336.31 1670.18,11336.31 1670.18,11244.89 1700.67,11244.89 1700.67,11092.54 1731.15,11092.54 1731.15,10970.63 1761.6,10970.63 1761.6,10909.7 1792.09,10909.7 1792.09,10757.34 1822.57,10757.34 1822.57,10665.92 1853.02,10665.92 1853.02,10544.01 1883.51,10544.01 1883.51,10452.59 1913.99,10452.59 1913.99,10391.66 1944.44,10391.66 1944.44,10269.75 1974.93,10269.75 1974.93,10208.82 2005.41,10208.82 2005.41,10086.91 2035.86,10086.91 2035.86,10025.98 2066.35,10025.98 2066.35,9934.56 2096.83,9934.56 2096.83,9843.14 2127.28,9843.14 2127.28,9782.16 2157.77,9782.16 2157.77,9721.23 2188.25,9721.23 2188.25,9629.81 2218.7,9629.81 2218.7,9568.87 2249.19,9568.87 2249.19,9507.9 2279.68,9507.9 2279.68,9446.97 2310.12,9446.97 2310.12,9386.03 2340.61,9386.03 2340.61,9325.06 2371.1,9325.06 2371.1,9264.13 2401.55,9264.13 2401.55,9203.19 2432.03,9203.19 2432.03,9111.77 2462.52,9111.77 2462.52,9050.8 2492.97,9050.8 2492.97,8989.87 2523.45,8989.87 2523.45,8928.93 2553.94,8928.93 2553.94,8868 2584.39,8868 2584.39,8807.03 2614.87,8807.03 2614.87,8746.09 2645.36,8746.09 2645.36,8685.16 2675.81,8685.16 2675.81,8624.18 2706.29,8624.18 2706.29,8563.25 2736.78,8563.25 2736.78,8502.31 2767.23,8502.31 2767.23,8441.34 2797.71,8441.34 2797.71,8380.41 2828.2,8380.41 2828.2,8319.47 2858.65,8319.47 2858.65,8258.5 2889.13,8258.5 2889.13,8228.05 2919.62,8228.05 2919.62,8167.08 2950.07,8167.08 2950.07,8106.15 2980.55,8106.15 2980.55,8045.21 3011.04,8045.21 3011.04,7984.24 3041.49,7984.24 3041.49,7953.79 3071.97,7953.79 3071.97,7892.82 3102.46,7892.82 3102.46,7831.89 3132.91,7831.89 3132.91,7801.4 3163.39,7801.4 3163.39,7740.47 3193.88,7740.47 3193.88,7709.98 3224.33,7709.98 3224.33,7649.04 3254.81,7649.04 3254.81,7618.56 3285.3,7618.56 3285.3,7588.11 3315.75,7588.11 3315.75,7557.62 3346.24,7557.62 3346.24,7527.14 3376.72,7527.14 3376.72,7496.69 3407.17,7496.69 3407.17,7466.2 3620.5,7466.2 3620.5,7496.69 3650.98,7496.69 3650.98,7527.14 3681.43,7527.14 3681.43,7557.62 3711.92,7557.62 3711.92,7588.11 3742.4,7588.11 3742.4,7618.56 3772.85,7618.56 3772.85,7679.53 3803.34,7679.53 3803.34,7740.47 3833.82,7740.47 3833.82,7801.4 3864.27,7801.4 3864.27,7892.82 3894.76,7892.82 3894.76,7984.24 3925.24,7984.24 3925.24,8075.66 3955.69,8075.66 3955.69,8197.57 3986.18,8197.57 3986.18,8258.5 4016.66,8258.5 4016.66,8349.92 4047.11,8349.92 4047.11,8532.76 4077.6,8532.76 4077.6,8654.67 4108.08,8654.67 4108.08,8868 4138.53,8868 4138.53,9020.35 4169.02,9020.35 4169.02,9294.61 4199.51,9294.61 4199.51,10208.82 4169.02,10208.82 4169.02,10513.53 4138.53,10513.53 4138.53,10696.37 4108.08,10696.37 4108.08,10848.76 4077.6,10848.76 4077.6,11001.12 4047.11,11001.12 4047.11,11183.96 4016.66,11183.96 4016.66,11305.86 3986.18,11305.86 3986.18,11366.8 3955.69,11366.8 3955.69,11488.7 3925.24,11488.7 3925.24,11610.57 3894.76,11610.57 3894.76,11701.99 3864.27,11701.99 3864.27,11793.41 3833.82,11793.41 3833.82,11915.32 3803.34,11915.32 3803.34,11976.26 3772.85,11976.26 3772.85,12098.16 3742.4,12098.16 3742.4,12159.1 3711.92,12159.1 3711.92,12250.52 3681.43,12250.52 3681.43,12341.94 3650.98,12341.94 3650.98,12433.36 3620.5,12433.36 3620.5,12494.33 3590.01,12494.33 3590.01,12585.75 3559.56,12585.75 3559.56,12677.17 3529.08,12677.17 3529.08,12768.59 3498.59,12768.59 3498.59,12890.46 3468.14,12890.46 3468.14,13012.37 3437.66,13012.37 3437.66,13469.47 3468.14,13469.47 3468.14,13530.4 3498.59,13530.4 3498.59,13560.89 3559.56,13560.89 3559.56,13591.37 3711.92,13591.37 3711.92,13560.89 3772.85,13560.89 3772.85,13530.4 3833.82,13530.4 3833.82,13499.95 3894.76,13499.95 3894.76,13469.47 3955.69,13469.47 3955.69,13438.98 3986.18,13438.98 3986.18,13408.53 4047.11,13408.53 4047.11,13378.05 4077.6,13378.05 4077.6,13347.56 4108.08,13347.56 4108.08,13317.11 4169.02,13317.11 4169.02,13286.63 4199.51,13286.63 4199.51,13256.14 4229.95,13256.14 4229.95,13225.69 4290.93,13225.69 4290.93,13195.21 4321.37,13195.21 4321.37,13164.72 4351.86,13164.72 4351.86,13134.27 4382.35,13134.27 4382.35,13103.79 4412.8,13103.79 4412.8,13073.3 4443.28,13073.3 4443.28,13042.85 4473.77,13042.85 4473.77,13012.37 4504.22,13012.37 4504.22,12981.88 4534.7,12981.88 4534.7,12951.43 4565.19,12951.43 4565.19,12890.46 4595.64,12890.46 4595.64,12860.01 4626.12,12860.01 4626.12,12829.53 4656.61,12829.53 4656.61,12799.04 4687.06,12799.04 4687.06,12738.11 4717.54,12738.11 4717.54,12707.62 4748.03,12707.62 4748.03,12677.17 4778.48,12677.17 4778.48,12616.2 4808.96,12616.2 4808.96,12585.75 4839.45,12585.75 4839.45,12524.78 4869.9,12524.78 4869.9,12494.33 4900.38,12494.33 4900.38,12433.36 4930.87,12433.36 4930.87,12402.91 4961.32,12402.91 4961.32,12341.94 4991.8,12341.94 4991.8,12281 5022.29,12281 5022.29,12250.52 5052.74,12250.52 5052.74,12189.58 5083.22,12189.58 5083.22,12128.65 5113.71,12128.65 5113.71,12098.16 5144.16,12098.16 5144.16,12037.23 5174.64,12037.23 5174.64,11976.26 5205.13,11976.26 5205.13,11915.32 5235.58,11915.32 5235.58,11854.39 5266.07,11854.39 5266.07,11793.41 5296.55,11793.41 5296.55,11732.48 5327,11732.48 5327,11671.54 5357.49,11671.54 5357.49,11610.57 5387.97,11610.57 5387.97,11549.64 5418.42,11549.64 5418.42,11488.7 5448.91,11488.7 5448.91,11427.73 5479.39,11427.73 5479.39,11336.31 5509.84,11336.31 5509.84,11275.38 5540.33,11275.38 5540.33,11214.44 5570.81,11214.44 5570.81,11123.02 5601.26,11123.02 5601.26,11031.6 5631.75,11031.6 5631.75,10970.63 5662.23,10970.63 5662.23,10909.7 5692.68,10909.7 5692.68,10787.79 5723.17,10787.79 5723.17,10696.37 5753.65,10696.37 5753.65,10604.95 5784.1,10604.95 5784.1,10483.08 5814.59,10483.08 5814.59,10391.66 5845.07,10391.66 5845.07,10300.24 5875.52,10300.24 5875.52,10147.85 5906.01,10147.85 5906.01,10056.43 5936.49,10056.43 5936.49,9934.56 5966.94,9934.56 5966.94,9751.72 5997.43,9751.72 5997.43,9690.74 6027.91,9690.74 6027.91,9416.48 6058.36,9416.48 6058.36,9233.64 6088.85,9233.64 6088.85,9020.35 6119.33,9020.35 6119.33,8715.6 6149.78,8715.6 6149.78,7405.27 6119.33,7405.27 6119.33,6734.84 6088.85,6734.84 6088.85,5881.57 6119.33,5881.57 6119.33,5454.95 6149.78,5454.95 6149.78,5272.11 6180.27,5272.11 6180.27,5089.27 6210.76,5089.27 6210.76,4997.85 6241.2,4997.85 6241.2,4936.92 6180.27,4936.92 6180.27,4967.37 6149.78,4967.37 6149.78,4997.85 6088.85,4997.85 6088.85,5028.34 6058.36,5028.34 6058.36,5058.79 5997.43,5058.79 5997.43,5089.27 5936.49,5089.27 5936.49,5119.76 5875.52,5119.76 5875.52,5150.21 5814.59,5150.21 5814.59,5180.69 5753.65,5180.69 5753.65,5211.18 5662.23,5211.18 5662.23,5241.63 5540.33,5241.63 5540.33,5272.11 5448.91,5272.11 5448.91,5302.6 5418.42,5302.6 5418.42,5333.05 5387.97,5333.05 5387.97,5363.53 5327,5363.53 5327,5394.02 5022.29,5394.02 5022.29,5424.47 4930.87,5424.47 4930.87,5454.95 4808.96,5454.95 4808.96,5485.44 4717.54,5485.44 4717.54,5515.89 4565.19,5515.89 4565.19,5546.37 4382.35,5546.37 4382.35,5576.86 4199.51,5576.86 4199.51,5607.31 3498.59,5607.31 3498.59,5576.86 3315.75,5576.86 3315.75,5546.37 3041.49,5546.37 3041.49,5515.89 2858.65,5515.89 2858.65,5485.44 2675.81,5485.44 2675.81,5454.95 2553.94,5454.95 2553.94,5424.47 2432.03,5424.47 2432.03,5394.02 2279.68,5394.02 2279.68,5363.53 2188.25,5363.53 2188.25,5333.05 2066.35,5333.05 2066.35,5302.6 1974.93,5302.6 1974.93,5272.11 1822.57,5272.11 1822.57,5241.63 1761.6,5241.63 1761.6,5211.18 1670.18,5211.18 1670.18,5180.69 1578.76,5180.69 1578.76,5150.21 1517.83,5150.21 1517.83,5119.76 1426.41,5119.76 1426.41,5089.27 1365.47,5089.27 1365.47,5058.79 1304.5,5058.79 1304.5,5028.34 1243.56,5028.34 1243.56,4997.85 1152.14,4997.85 1152.14,4967.37 1121.66,4967.37 1121.66,4936.92 1060.72,4936.92 "/>
  <polygon id="crown" class="fil0" points="2340.61,243.99 2218.7,243.99 2218.7,274.47 2157.77,274.47 2157.77,304.96 2096.83,304.96 2096.83,335.41 2035.86,335.41 2035.86,365.89 1974.93,365.89 1974.93,396.38 1913.99,396.38 1913.99,426.83 1883.51,426.83 1883.51,457.31 1822.57,457.31 1822.57,487.8 1761.6,487.8 1761.6,518.25 1731.15,518.25 1731.15,548.73 1670.18,548.73 1670.18,579.22 1609.25,579.22 1609.25,640.15 1700.67,640.15 1700.67,670.64 1822.57,670.64 1822.57,701.09 1944.44,701.09 1944.44,792.51 1913.99,792.51 1913.99,823 1822.57,823 1822.57,792.51 1700.67,792.51 1700.67,762.06 1578.76,762.06 1578.76,731.57 1243.56,731.57 1243.56,762.06 1182.63,762.06 1182.63,792.51 1121.66,792.51 1121.66,823 1060.72,823 1060.72,853.48 1030.24,853.48 1030.24,883.93 999.79,883.93 999.79,914.42 969.3,914.42 969.3,944.9 938.82,944.9 938.82,975.35 908.37,975.35 908.37,1005.84 877.88,1005.84 877.88,1036.32 847.4,1036.32 847.4,1097.26 816.95,1097.26 816.95,1158.19 786.46,1158.19 786.46,1219.13 755.98,1219.13 755.98,1249.61 725.53,1249.61 725.53,1341.03 695.04,1341.03 695.04,1401.97 664.56,1401.97 664.56,1493.39 634.11,1493.39 634.11,1615.29 603.62,1615.29 603.62,1737.2 573.14,1737.2 573.14,1859.07 542.69,1859.07 542.69,2011.46 512.2,2011.46 512.2,2956.12 542.69,2956.12 542.69,3138.96 573.14,3138.96 573.14,3321.8 603.62,3321.8 603.62,3443.7 634.11,3443.7 634.11,3535.12 664.56,3535.12 664.56,3687.48 695.04,3687.48 695.04,3748.45 725.53,3748.45 725.53,3900.81 755.98,3900.81 755.98,3992.23 786.46,3992.23 786.46,4053.16 816.95,4053.16 816.95,4175.07 847.4,4175.07 847.4,4266.49 877.88,4266.49 877.88,4357.91 908.37,4357.91 908.37,4449.33 938.82,4449.33 938.82,4540.75 969.3,4540.75 969.3,4632.17 999.79,4632.17 999.79,4723.59 1030.24,4723.59 1030.24,4754.08 1060.72,4754.08 1060.72,4784.52 1121.66,4784.52 1121.66,4815.01 1152.14,4815.01 1152.14,4845.5 1213.08,4845.5 1213.08,4875.95 1274.05,4875.95 1274.05,4906.43 1334.99,4906.43 1334.99,4936.92 1426.41,4936.92 1426.41,4967.37 1487.34,4967.37 1487.34,4997.85 1578.76,4997.85 1578.76,5028.34 1639.73,5028.34 1639.73,5058.79 1700.67,5058.79 1700.67,5089.27 1822.57,5089.27 1822.57,5119.76 1883.51,5119.76 1883.51,5150.21 2005.41,5150.21 2005.41,5180.69 2096.83,5180.69 2096.83,5211.18 2218.7,5211.18 2218.7,5241.63 2340.61,5241.63 2340.61,5272.11 2492.97,5272.11 2492.97,5302.6 2584.39,5302.6 2584.39,5333.05 2797.71,5333.05 2797.71,5363.53 2919.62,5363.53 2919.62,5394.02 3132.91,5394.02 3132.91,5424.47 3437.66,5424.47 3437.66,5454.95 4321.37,5454.95 4321.37,5424.47 4473.77,5424.47 4473.77,5394.02 4656.61,5394.02 4656.61,5363.53 4778.48,5363.53 4778.48,5333.05 4900.38,5333.05 4900.38,5302.6 5022.29,5302.6 5022.29,5272.11 5113.71,5272.11 5113.71,5241.63 5174.64,5241.63 5174.64,5272.11 5327,5272.11 5327,5241.63 5357.49,5241.63 5357.49,5211.18 5448.91,5211.18 5448.91,5180.69 5509.84,5180.69 5509.84,5150.21 5631.75,5150.21 5631.75,5119.76 5723.17,5119.76 5723.17,5089.27 5784.1,5089.27 5784.1,5058.79 5845.07,5058.79 5845.07,5028.34 5875.52,5028.34 5875.52,4997.85 5936.49,4997.85 5936.49,4967.37 5997.43,4967.37 5997.43,4936.92 6058.36,4936.92 6058.36,4906.43 6088.85,4906.43 6088.85,4875.95 6149.78,4875.95 6149.78,4845.5 6180.27,4845.5 6180.27,4815.01 6210.76,4815.01 6210.76,4784.52 6241.2,4784.52 6241.2,4754.08 6271.69,4754.08 6271.69,4723.59 6302.18,4723.59 6302.18,4662.65 6332.63,4662.65 6332.63,4540.75 6363.11,4540.75 6363.11,4479.81 6393.6,4479.81 6393.6,4388.39 6424.05,4388.39 6424.05,4296.97 6454.53,4296.97 6454.53,4205.55 6485.02,4205.55 6485.02,4144.58 6515.47,4144.58 6515.47,4053.16 6545.95,4053.16 6545.95,3961.74 6576.44,3961.74 6576.44,3839.87 6606.89,3839.87 6606.89,3778.9 6637.37,3778.9 6637.37,3687.48 6667.86,3687.48 6667.86,3596.06 6698.31,3596.06 6698.31,3504.64 6728.79,3504.64 6728.79,3352.28 6759.28,3352.28 6759.28,3291.35 6789.73,3291.35 6789.73,3138.96 6820.21,3138.96 6820.21,2956.12 6850.7,2956.12 6850.7,2803.76 6881.15,2803.76 6881.15,2620.92 6911.63,2620.92 6911.63,2133.33 6881.15,2133.33 6881.15,2011.46 6850.7,2011.46 6850.7,1798.14 6820.21,1798.14 6820.21,1676.23 6789.73,1676.23 6789.73,1584.81 6759.28,1584.81 6759.28,1493.39 6728.79,1493.39 6728.79,1432.45 6698.31,1432.45 6698.31,1371.52 6667.86,1371.52 6667.86,1310.55 6637.37,1310.55 6637.37,1280.1 6606.89,1280.1 6606.89,1219.13 6576.44,1219.13 6576.44,1188.68 6545.95,1188.68 6545.95,1158.19 6515.47,1158.19 6515.47,1127.74 6485.02,1127.74 6485.02,1097.26 6454.53,1097.26 6454.53,1066.77 6393.6,1066.77 6393.6,1036.32 6363.11,1036.32 6363.11,1005.84 6302.18,1005.84 6302.18,975.35 6241.2,975.35 6241.2,944.9 6149.78,944.9 6149.78,914.42 6058.36,914.42 6058.36,883.93 5966.94,883.93 5966.94,853.48 5631.75,853.48 5631.75,883.93 5540.33,883.93 5540.33,914.42 5479.39,914.42 5479.39,944.9 5418.42,944.9 5418.42,975.35 5357.49,975.35 5357.49,1005.84 5296.55,1005.84 5296.55,1036.32 5235.58,1036.32 5235.58,1066.77 5205.13,1066.77 5205.13,1097.26 5144.16,1097.26 5144.16,1127.74 5083.22,1127.74 5083.22,1158.19 5022.29,1158.19 5022.29,1188.68 4930.87,1188.68 4930.87,1219.13 4869.9,1219.13 4869.9,1249.61 4778.48,1249.61 4778.48,1280.1 4687.06,1280.1 4687.06,1310.55 4595.64,1310.55 4595.64,1341.03 4534.7,1341.03 4534.7,1371.52 4443.28,1371.52 4443.28,1401.97 4351.86,1401.97 4351.86,1432.45 4260.44,1432.45 4260.44,1462.94 4199.51,1462.94 4199.51,1493.39 4108.08,1493.39 4108.08,1523.87 4047.11,1523.87 4047.11,1554.36 3986.18,1554.36 3986.18,1615.29 4016.66,1615.29 4016.66,1737.2 4047.11,1737.2 4047.11,1828.62 4077.6,1828.62 4077.6,2590.43 4047.11,2590.43 4047.11,2620.92 4016.66,2620.92 4016.66,2316.17 3986.18,2316.17 3986.18,2041.91 3955.69,2041.91 3955.69,1889.56 3925.24,1889.56 3925.24,1706.71 3894.76,1706.71 3894.76,1584.81 3864.27,1584.81 3864.27,1554.36 3833.82,1554.36 3833.82,1523.87 3772.85,1523.87 3772.85,1493.39 3742.4,1493.39 3742.4,1462.94 3681.43,1462.94 3681.43,1432.45 3620.5,1432.45 3620.5,1401.97 3559.56,1401.97 3559.56,1371.52 3498.59,1371.52 3498.59,1341.03 3437.66,1341.03 3437.66,1310.55 3376.72,1310.55 3376.72,1280.1 3315.75,1280.1 3315.75,1249.61 3254.81,1249.61 3254.81,1219.13 3193.88,1219.13 3193.88,1188.68 3102.46,1188.68 3102.46,1158.19 3041.49,1158.19 3041.49,1127.74 2950.07,1127.74 2950.07,1097.26 2889.13,1097.26 2889.13,1066.77 2828.2,1066.77 2828.2,1036.32 2736.78,1036.32 2736.78,1005.84 2675.81,1005.84 2675.81,975.35 2584.39,975.35 2584.39,944.9 2492.97,944.9 2492.97,914.42 2157.77,914.42 2157.77,944.9 2035.86,944.9 2035.86,975.35 1974.93,975.35 1974.93,1005.84 1913.99,1005.84 1913.99,1036.32 1853.02,1036.32 1853.02,1066.77 1792.09,1066.77 1792.09,1097.26 1761.6,1097.26 1761.6,1127.74 1700.67,1127.74 1700.67,1188.68 1639.73,1188.68 1639.73,1219.13 1609.25,1219.13 1609.25,1280.1 1578.76,1280.1 1578.76,1310.55 1548.31,1310.55 1548.31,1341.03 1517.83,1341.03 1517.83,1401.97 1487.34,1401.97 1487.34,1432.45 1456.89,1432.45 1456.89,1493.39 1426.41,1493.39 1426.41,1554.36 1395.92,1554.36 1395.92,1615.29 1365.47,1615.29 1365.47,1676.23 1334.99,1676.23 1334.99,1737.2 1304.5,1737.2 1304.5,1798.14 1274.05,1798.14 1274.05,1859.07 1243.56,1859.07 1243.56,1889.56 1213.08,1889.56 1213.08,1920.04 1152.14,1920.04 1152.14,1828.62 1182.63,1828.62 1182.63,1737.2 1213.08,1737.2 1213.08,1645.78 1243.56,1645.78 1243.56,1584.81 1274.05,1584.81 1274.05,1523.87 1304.5,1523.87 1304.5,1462.94 1334.99,1462.94 1334.99,1401.97 1365.47,1401.97 1365.47,1371.52 1395.92,1371.52 1395.92,1310.55 1426.41,1310.55 1426.41,1280.1 1456.89,1280.1 1456.89,1219.13 1487.34,1219.13 1487.34,1188.68 1517.83,1188.68 1517.83,1158.19 1548.31,1158.19 1548.31,1127.74 1578.76,1127.74 1578.76,1097.26 1609.25,1097.26 1609.25,1066.77 1639.73,1066.77 1639.73,1036.32 1670.18,1036.32 1670.18,1005.84 1700.67,1005.84 1700.67,975.35 1731.15,975.35 1731.15,944.9 1792.09,944.9 1792.09,914.42 1853.02,914.42 1853.02,883.93 1913.99,883.93 1913.99,853.48 1974.93,853.48 1974.93,823 2096.83,823 2096.83,792.51 2584.39,792.51 2584.39,823 2645.36,823 2645.36,853.48 2736.78,853.48 2736.78,883.93 2828.2,883.93 2828.2,914.42 2889.13,914.42 2889.13,944.9 2980.55,944.9 2980.55,975.35 3041.49,975.35 3041.49,1005.84 3102.46,1005.84 3102.46,1036.32 3193.88,1036.32 3193.88,1066.77 3254.81,1066.77 3254.81,1097.26 3315.75,1097.26 3315.75,1127.74 3376.72,1127.74 3376.72,1158.19 3437.66,1158.19 3437.66,1188.68 3498.59,1188.68 3498.59,1219.13 3559.56,1219.13 3559.56,1249.61 3620.5,1249.61 3620.5,1280.1 3681.43,1280.1 3681.43,1310.55 3742.4,1310.55 3742.4,1341.03 3803.34,1341.03 3803.34,1371.52 3864.27,1371.52 3864.27,1401.97 3894.76,1401.97 3894.76,1432.45 4016.66,1432.45 4016.66,1401.97 4047.11,1401.97 4047.11,1371.52 4138.53,1371.52 4138.53,1341.03 4199.51,1341.03 4199.51,1310.55 4260.44,1310.55 4260.44,1280.1 4351.86,1280.1 4351.86,1249.61 4443.28,1249.61 4443.28,1219.13 4534.7,1219.13 4534.7,1188.68 4595.64,1188.68 4595.64,1158.19 4717.54,1158.19 4717.54,1127.74 4808.96,1127.74 4808.96,1097.26 4869.9,1097.26 4869.9,1066.77 4961.32,1066.77 4961.32,1036.32 5022.29,1036.32 5022.29,1005.84 5083.22,1005.84 5083.22,975.35 5144.16,975.35 5144.16,944.9 5174.64,944.9 5174.64,914.42 5235.58,914.42 5235.58,883.93 5296.55,883.93 5296.55,853.48 5357.49,853.48 5357.49,823 5418.42,823 5418.42,792.51 5479.39,792.51 5479.39,762.06 5570.81,762.06 5570.81,731.57 6027.91,731.57 6027.91,762.06 6088.85,762.06 6088.85,792.51 6180.27,792.51 6180.27,823 6241.2,823 6241.2,853.48 6302.18,853.48 6302.18,823 6271.69,823 6271.69,792.51 6210.76,792.51 6210.76,762.06 6180.27,762.06 6180.27,731.57 6149.78,731.57 6149.78,701.09 6088.85,701.09 6088.85,670.64 6058.36,670.64 6058.36,640.15 6027.91,640.15 6027.91,609.67 5966.94,609.67 5966.94,579.22 5936.49,579.22 5936.49,548.73 5906.01,548.73 5906.01,518.25 5845.07,518.25 5845.07,487.8 5814.59,487.8 5814.59,457.31 5753.65,457.31 5753.65,426.83 5692.68,426.83 5692.68,396.38 5631.75,396.38 5631.75,365.89 5570.81,365.89 5570.81,335.41 5509.84,335.41 5509.84,304.96 5113.71,304.96 5113.71,335.41 5052.74,335.41 5052.74,365.89 4991.8,365.89 4991.8,396.38 4900.38,396.38 4900.38,426.83 4839.45,426.83 4839.45,457.31 4778.48,457.31 4778.48,487.8 4717.54,487.8 4717.54,518.25 4656.61,518.25 4656.61,548.73 4595.64,548.73 4595.64,579.22 4565.19,579.22 4565.19,609.67 4504.22,609.67 4504.22,701.09 4473.77,701.09 4473.77,762.06 4412.8,762.06 4412.8,701.09 4290.93,701.09 4290.93,731.57 4199.51,731.57 4199.51,762.06 3711.92,762.06 3711.92,731.57 3590.01,731.57 3590.01,701.09 3498.59,701.09 3498.59,670.64 3437.66,670.64 3437.66,640.15 3346.24,640.15 3346.24,609.67 3285.3,609.67 3285.3,579.22 3224.33,579.22 3224.33,548.73 3163.39,548.73 3163.39,518.25 3132.91,518.25 3132.91,487.8 3071.97,487.8 3071.97,457.31 3011.04,457.31 3011.04,426.83 2980.55,426.83 2980.55,396.38 2919.62,396.38 2919.62,365.89 2858.65,365.89 2858.65,335.41 2797.71,335.41 2797.71,304.96 2736.78,304.96 2736.78,274.47 2645.36,274.47 2645.36,243.99 2553.94,243.99 2553.94,213.54 2340.61,213.54 "/>
  <path id="outline" class="fil0 str0" d="M6210.76 5089.27l-30.49 0 0 182.84 -30.49 0 0 182.84 -30.45 0 0 426.62 -30.48 0 0 853.27 30.48 0 0 670.43 30.45 0 0 1310.33 -30.45 0 0 304.75 -30.48 0 0 213.29 -30.49 0 0 182.84 -30.45 0 0 274.26 -30.48 0 0 60.98 -30.49 0 0 182.84 -30.45 0 0 121.87 -30.48 0 0 91.42 -30.49 0 0 152.39 -30.45 0 0 91.42 -30.48 0 0 91.42 -30.49 0 0 121.87 -30.45 0 0 91.42 -30.48 0 0 91.42 -30.49 0 0 121.91 -30.45 0 0 60.93 -30.48 0 0 60.97 -30.49 0 0 91.42 -30.45 0 0 91.42 -30.48 0 0 60.94 -30.49 0 0 60.93 -30.45 0 0 91.42 -30.48 0 0 60.97 -30.49 0 0 60.94 -30.45 0 0 60.93 -30.48 0 0 60.97 -30.49 0 0 60.94 -30.45 0 0 60.93 -30.48 0 0 60.98 -30.49 0 0 60.93 -30.45 0 0 60.94 -30.49 0 0 60.97 -30.48 0 0 60.93 -30.45 0 0 30.49 -30.49 0 0 60.93 -30.48 0 0 60.94 -30.45 0 0 30.48 -30.49 0 0 60.94 -30.48 0 0 60.97 -30.45 0 0 30.45 -30.49 0 0 60.97 -30.48 0 0 30.45 -30.45 0 0 60.97 -30.49 0 0 30.45 -30.48 0 0 60.97 -30.45 0 0 30.45 -30.49 0 0 30.49 -30.48 0 0 60.93 -30.45 0 0 30.49 -30.49 0 0 30.48 -30.48 0 0 30.45 -30.45 0 0 60.97 -30.49 0 0 30.45 -30.48 0 0 30.49 -30.45 0 0 30.48 -30.49 0 0 30.45 -30.48 0 0 30.49 -30.45 0 0 30.48 -30.49 0 0 30.45 -30.49 0 0 30.49 -30.44 0 0 30.48 -60.98 0 0 30.45 -30.44 0 0 30.49 -30.49 0 0 30.48 -60.94 0 0 30.45 -30.48 0 0 30.49 -30.49 0 0 30.48 -60.93 0 0 30.45 -30.49 0 0 30.49 -60.93 0 0 30.48 -60.94 0 0 30.45 -60.97 0 0 30.49 -60.93 0 0 30.48 -152.36 0 0 -30.48 -60.97 0 0 -30.49 -30.45 0 0 -60.93 -30.48 0 0 -457.1 30.48 0 0 -121.91 30.45 0 0 -121.87 30.49 0 0 -91.42 30.48 0 0 -91.42 30.45 0 0 -91.42 30.49 0 0 -60.97 30.48 0 0 -91.42 30.45 0 0 -91.42 30.49 0 0 -91.42 30.48 0 0 -60.94 30.45 0 0 -121.9 30.49 0 0 -60.94 30.48 0 0 -121.91 30.45 0 0 -91.42 30.49 0 0 -91.42 30.48 0 0 -121.87 30.45 0 0 -121.9 30.49 0 0 -60.94 30.48 0 0 -121.9 30.45 0 0 -182.84 30.49 0 0 -152.36 30.48 0 0 -152.39 30.45 0 0 -182.84 30.49 0 0 -304.71 30.49 0 0 -914.21 -30.49 0 0 -274.26 -30.49 0 0 -152.35 -30.45 0 0 -213.33 -30.48 0 0 -121.91 -30.49 0 0 -182.84 -30.45 0 0 -91.42 -30.48 0 0 -60.93 -30.49 0 0 -121.91 -30.45 0 0 -91.42 -30.48 0 0 -91.42 -30.49 0 0 -91.42 -30.45 0 0 -60.93 -30.48 0 0 -60.94 -30.49 0 0 -60.97 -30.45 0 0 -30.45 -30.48 0 0 -30.49 -30.49 0 0 -30.48 -30.45 0 0 -30.45 -30.48 0 0 -30.49 -213.33 0 0 30.49 -30.45 0 0 30.45 -30.48 0 0 30.48 -30.49 0 0 30.49 -30.45 0 0 30.45 -30.49 0 0 30.48 -30.48 0 0 60.94 -30.45 0 0 30.49 -30.49 0 0 60.93 -30.48 0 0 30.49 -30.45 0 0 60.93 -30.49 0 0 60.97 -30.48 0 0 30.45 -30.45 0 0 60.97 -30.49 0 0 60.94 -30.48 0 0 60.93 -30.45 0 0 60.97 -30.49 0 0 30.45 -30.48 0 0 60.97 -30.45 0 0 60.94 -30.49 0 0 60.93 -30.48 0 0 60.97 -30.45 0 0 60.94 -30.49 0 0 60.93 -30.48 0 0 60.98 -30.45 0 0 60.93 -30.49 0 0 60.94 -30.48 0 0 60.97 -30.45 0 0 60.93 -30.49 0 0 60.94 -30.48 0 0 60.93 -30.45 0 0 60.97 -30.49 0 0 91.42 -30.48 0 0 60.94 -30.45 0 0 60.93 -30.49 0 0 60.97 -30.49 0 0 60.94 -30.44 0 0 60.93 -30.49 0 0 60.97 -30.49 0 0 60.94 -30.45 0 0 91.42 -30.48 0 0 60.93 -30.49 0 0 60.98 -30.45 0 0 91.42 -30.48 0 0 91.42 -30.49 0 0 60.93 -30.45 0 0 121.91 -30.48 0 0 60.93 -30.49 0 0 121.91 -30.45 0 0 60.93 -30.48 0 0 91.42 -30.49 0 0 121.91 -30.45 0 0 91.42 -30.48 0 0 152.36 -30.49 0 0 60.93 -30.45 0 0 121.91 -30.48 0 0 152.35 -30.49 0 0 91.42 -30.45 0 0 121.91 -30.48 0 0 121.9 -30.49 0 0 60.94 -30.45 0 0 121.91 -30.48 0 0 91.42 -30.49 0 0 91.42 -30.45 0 0 91.42 -30.48 0 0 60.93 -30.49 0 0 91.42 -30.45 0 0 60.94 -30.48 0 0 91.42 -30.49 0 0 60.97 -30.45 0 0 60.93 -30.49 0 0 60.94 -30.48 0 0 60.97 -30.45 0 0 60.93 -30.49 0 0 60.94 -30.48 0 0 30.49 -30.45 0 0 60.93 -30.49 0 0 30.49 -30.48 0 0 60.93 -30.45 0 0 30.49 -30.49 0 0 60.93 -30.48 0 0 30.49 -30.45 0 0 30.48 -30.49 0 0 30.45 -30.48 0 0 30.49 -30.45 0 0 30.48 -60.97 0 0 30.45 -30.45 0 0 30.49 -182.84 0 0 -30.49 -60.97 0 0 -30.45 -30.45 0 0 -30.48 -30.49 0 0 -60.94 -30.48 0 0 -60.97 -30.45 0 0 -60.93 -30.49 0 0 -91.42 -30.49 0 0 -121.91 -30.44 0 0 -121.87 -30.49 0 0 -152.39 -30.49 0 0 -1279.89 30.49 0 0 -396.13 30.49 0 0 -152.39 30.44 0 0 -213.29 30.49 0 0 -213.33 30.49 0 0 -213.32 30.45 0 0 -182.85 30.48 0 0 -91.42 30.49 0 0 -182.84 30.45 0 0 -91.42 30.48 0 0 -152.35 30.49 0 0 -152.36 30.45 0 0 -121.9 30.48 0 0 -121.87 30.49 0 0 -121.91 30.45 0 0 -121.91 30.48 0 0 -60.93 30.49 0 0 -121.91 30.45 0 0 -121.87 30.48 0 0 -152.39 30.49 0 0 -91.42 30.45 0 0 -121.87 30.48 0 0 -182.84 30.49 0 0 -91.42 30.45 0 0 -152.39 30.48 0 0 -121.87 30.49 0 0 -243.81 30.45 0 0 -152.36 30.48 0 0 -274.26 30.49 0 0 -182.84 30.45 0 0 -457.1 30.48 0 0 -700.88 -30.48 0 0 -182.84 -30.45 0 0 -182.84 -30.49 0 0 -91.42 60.94 0 0 30.45 30.48 0 0 30.48 91.42 0 0 30.49 60.94 0 0 30.45 60.97 0 0 30.48 60.94 0 0 30.49 91.42 0 0 30.45 60.93 0 0 30.48 91.42 0 0 30.49 91.42 0 0 30.45 60.97 0 0 30.48 152.36 0 0 30.49 91.42 0 0 30.45 121.9 0 0 30.48 91.43 0 0 30.49 152.35 0 0 30.45 121.91 0 0 30.48 121.87 0 0 30.49 182.84 0 0 30.45 182.84 0 0 30.48 274.26 0 0 30.49 182.84 0 0 30.45 700.92 0 0 -30.45 182.84 0 0 -30.49 182.84 0 0 -30.48 152.35 0 0 -30.45 91.42 0 0 -30.49 121.91 0 0 -30.48 91.42 0 0 -30.45 304.71 0 0 -30.49 60.97 0 0 -30.48 30.45 0 0 -30.45 30.49 0 0 -30.49 91.42 0 0 -30.48 121.9 0 0 -30.45 91.42 0 0 -30.49 60.94 0 0 -30.48 60.93 0 0 -30.45 60.97 0 0 -30.49 60.94 0 0 -30.48 60.93 0 0 -30.45 30.49 0 0 -30.49 60.93 0 0 -30.48 30.49 0 0 -30.45 60.93 0 0 60.93 -30.44 0 0 91.42zm-4601.51 -4510.05l60.93 0 0 -30.49 60.97 0 0 -30.48 30.45 0 0 -30.45 60.97 0 0 -30.49 60.94 0 0 -30.48 30.48 0 0 -30.45 60.94 0 0 -30.49 60.93 0 0 -30.48 60.97 0 0 -30.45 60.94 0 0 -30.49 60.93 0 0 -30.48 121.91 0 0 -30.45 213.33 0 0 30.45 91.42 0 0 30.48 91.42 0 0 30.49 60.93 0 0 30.45 60.94 0 0 30.48 60.97 0 0 30.49 60.93 0 0 30.45 30.49 0 0 30.48 60.93 0 0 30.49 60.94 0 0 30.45 30.48 0 0 30.48 60.94 0 0 30.49 60.97 0 0 30.45 60.94 0 0 30.48 91.42 0 0 30.49 60.93 0 0 30.45 91.42 0 0 30.48 121.91 0 0 30.49 487.59 0 0 -30.49 91.42 0 0 -30.48 121.87 0 0 60.97 60.97 0 0 -60.97 30.45 0 0 -91.42 60.97 0 0 -30.45 30.45 0 0 -30.49 60.97 0 0 -30.48 60.93 0 0 -30.45 60.94 0 0 -30.49 60.97 0 0 -30.48 60.93 0 0 -30.45 91.42 0 0 -30.49 60.94 0 0 -30.48 60.97 0 0 -30.45 396.13 0 0 30.45 60.97 0 0 30.48 60.94 0 0 30.49 60.93 0 0 30.45 60.97 0 0 30.48 60.94 0 0 30.49 30.48 0 0 30.45 60.94 0 0 30.48 30.48 0 0 30.49 30.45 0 0 30.45 60.97 0 0 30.48 30.45 0 0 30.49 30.49 0 0 30.45 60.93 0 0 30.48 30.49 0 0 30.49 30.49 0 0 30.45 60.93 0 0 30.49 30.49 0 0 30.48 -60.98 0 0 -30.48 -60.93 0 0 -30.49 -91.42 0 0 -30.45 -60.94 0 0 -30.49 -457.1 0 0 30.49 -91.42 0 0 30.45 -60.97 0 0 30.49 -60.93 0 0 30.48 -60.94 0 0 30.45 -60.97 0 0 30.49 -60.94 0 0 30.48 -30.48 0 0 30.45 -60.94 0 0 30.49 -60.93 0 0 30.48 -60.97 0 0 30.45 -91.42 0 0 30.49 -60.94 0 0 30.48 -91.42 0 0 30.45 -121.9 0 0 30.49 -60.94 0 0 30.45 -91.42 0 0 30.48 -91.42 0 0 30.49 -91.42 0 0 30.45 -60.93 0 0 30.48 -60.98 0 0 30.49 -91.42 0 0 30.45 -30.45 0 0 30.48 -121.9 0 0 -30.48 -30.49 0 0 -30.45 -60.93 0 0 -30.49 -60.94 0 0 -30.48 -60.97 0 0 -30.45 -60.93 0 0 -30.49 -60.94 0 0 -30.48 -60.97 0 0 -30.45 -60.93 0 0 -30.49 -60.94 0 0 -30.45 -60.97 0 0 -30.48 -60.94 0 0 -30.49 -60.93 0 0 -30.45 -91.42 0 0 -30.48 -60.97 0 0 -30.49 -60.94 0 0 -30.45 -91.42 0 0 -30.48 -60.93 0 0 -30.49 -91.42 0 0 -30.45 -91.42 0 0 -30.48 -60.97 0 0 -30.49 -487.56 0 0 30.49 -121.9 0 0 30.48 -60.94 0 0 30.45 -60.97 0 0 30.49 -60.93 0 0 30.48 -60.94 0 0 30.45 -30.48 0 0 30.49 -30.49 0 0 30.48 -30.45 0 0 30.45 -30.48 0 0 30.49 -30.49 0 0 30.48 -30.45 0 0 30.45 -30.48 0 0 30.49 -30.49 0 0 30.45 -30.45 0 0 60.97 -30.48 0 0 30.45 -30.49 0 0 60.97 -30.45 0 0 30.45 -30.48 0 0 60.97 -30.49 0 0 60.93 -30.45 0 0 60.94 -30.49 0 0 60.97 -30.48 0 0 91.42 -30.45 0 0 91.42 -30.49 0 0 91.42 60.94 0 0 -30.48 30.48 0 0 -30.49 30.49 0 0 -60.93 30.45 0 0 -60.94 30.49 0 0 -60.97 30.48 0 0 -60.94 30.45 0 0 -60.93 30.49 0 0 -60.97 30.48 0 0 -60.94 30.45 0 0 -30.48 30.49 0 0 -60.94 30.48 0 0 -30.48 30.45 0 0 -30.45 30.49 0 0 -60.97 30.48 0 0 -30.45 60.94 0 0 -60.94 60.93 0 0 -30.48 30.49 0 0 -30.49 60.93 0 0 -30.45 60.97 0 0 -30.48 60.94 0 0 -30.49 60.93 0 0 -30.45 121.91 0 0 -30.48 335.2 0 0 30.48 91.42 0 0 30.45 91.42 0 0 30.49 60.97 0 0 30.48 91.42 0 0 30.45 60.93 0 0 30.49 60.94 0 0 30.48 91.42 0 0 30.45 60.97 0 0 30.49 91.42 0 0 30.45 60.93 0 0 30.48 60.94 0 0 30.49 60.97 0 0 30.45 60.94 0 0 30.48 60.93 0 0 30.49 60.97 0 0 30.45 60.94 0 0 30.48 60.93 0 0 30.49 60.97 0 0 30.45 30.45 0 0 30.48 60.97 0 0 30.49 30.45 0 0 30.45 30.49 0 0 121.9 30.48 0 0 182.85 30.45 0 0 152.35 30.49 0 0 274.26 30.48 0 0 304.75 30.45 0 0 -30.49 30.49 0 0 -761.81 -30.49 0 0 -91.42 -30.45 0 0 -121.91 -30.48 0 0 -60.93 60.93 0 0 -30.49 60.97 0 0 -30.48 91.43 0 0 -30.45 60.93 0 0 -30.49 91.42 0 0 -30.48 91.42 0 0 -30.45 91.42 0 0 -30.49 60.94 0 0 -30.48 91.42 0 0 -30.45 91.42 0 0 -30.49 91.42 0 0 -30.48 60.97 0 0 -30.45 91.42 0 0 -30.49 60.93 0 0 -30.45 60.94 0 0 -30.48 60.97 0 0 -30.49 30.45 0 0 -30.45 60.97 0 0 -30.48 60.94 0 0 -30.49 60.93 0 0 -30.45 60.97 0 0 -30.48 60.94 0 0 -30.49 91.42 0 0 -30.45 335.19 0 0 30.45 91.42 0 0 30.49 91.42 0 0 30.48 91.42 0 0 30.45 60.98 0 0 30.49 60.93 0 0 30.48 30.49 0 0 30.45 60.93 0 0 30.49 30.49 0 0 30.48 30.45 0 0 30.45 30.48 0 0 30.49 30.49 0 0 30.45 30.45 0 0 60.97 30.48 0 0 30.45 30.49 0 0 60.97 30.45 0 0 60.93 30.48 0 0 60.94 30.49 0 0 91.42 30.45 0 0 91.42 30.48 0 0 121.91 30.49 0 0 213.32 30.45 0 0 121.87 30.48 0 0 487.59 -30.48 0 0 182.84 -30.45 0 0 152.36 -30.49 0 0 182.84 -30.48 0 0 152.39 -30.45 0 0 60.93 -30.49 0 0 152.36 -30.48 0 0 91.42 -30.45 0 0 91.42 -30.49 0 0 91.42 -30.48 0 0 60.97 -30.45 0 0 121.87 -30.49 0 0 91.42 -30.48 0 0 91.42 -30.45 0 0 60.97 -30.49 0 0 91.42 -30.48 0 0 91.42 -30.45 0 0 91.42 -30.49 0 0 60.94 -30.48 0 0 121.9 -30.45 0 0 60.94 -30.49 0 0 30.49 -30.49 0 0 30.44 -30.44 0 0 30.49 -30.49 0 0 30.49 -30.49 0 0 30.45 -60.93 0 0 30.48 -30.49 0 0 30.49 -60.93 0 0 30.45 -60.94 0 0 30.48 -60.97 0 0 30.49 -30.45 0 0 30.45 -60.97 0 0 30.48 -60.93 0 0 30.49 -91.42 0 0 30.45 -121.91 0 0 30.48 -60.93 0 0 30.49 -91.42 0 0 30.45 -30.49 0 0 30.48 -152.36 0 0 -30.48 -60.93 0 0 30.48 -91.42 0 0 30.49 -121.91 0 0 30.45 -121.9 0 0 30.48 -121.87 0 0 30.49 -182.84 0 0 30.45 -152.4 0 0 30.48 -883.71 0 0 -30.48 -304.75 0 0 -30.45 -213.29 0 0 -30.49 -121.91 0 0 -30.48 -213.32 0 0 -30.45 -91.42 0 0 -30.49 -152.36 0 0 -30.48 -121.91 0 0 -30.45 -121.87 0 0 -30.49 -91.42 0 0 -30.48 -121.9 0 0 -30.45 -60.94 0 0 -30.49 -121.9 0 0 -30.48 -60.94 0 0 -30.45 -60.97 0 0 -30.49 -91.42 0 0 -30.48 -60.93 0 0 -30.45 -91.42 0 0 -30.49 -60.94 0 0 -30.48 -60.97 0 0 -30.45 -60.94 0 0 -30.49 -30.48 0 0 -30.49 -60.94 0 0 -30.44 -30.48 0 0 -30.49 -30.45 0 0 -91.42 -30.49 0 0 -91.42 -30.48 0 0 -91.42 -30.45 0 0 -91.42 -30.49 0 0 -91.42 -30.48 0 0 -91.42 -30.45 0 0 -121.91 -30.49 0 0 -60.93 -30.48 0 0 -91.42 -30.45 0 0 -152.36 -30.49 0 0 -60.97 -30.48 0 0 -152.36 -30.45 0 0 -91.42 -30.49 0 0 -121.9 -30.48 0 0 -182.84 -30.45 0 0 -182.84 -30.49 0 0 -944.66 30.49 0 0 -152.39 30.45 0 0 -121.87 30.48 0 0 -121.91 30.49 0 0 -121.9 30.45 0 0 -91.42 30.48 0 0 -60.94 30.49 0 0 -91.42 30.45 0 0 -30.48 30.48 0 0 -60.94 30.49 0 0 -60.93 30.45 0 0 -60.94 30.48 0 0 -30.48 30.49 0 0 -30.49 30.45 0 0 -30.45 30.48 0 0 -30.48 30.49 0 0 -30.49 30.45 0 0 -30.45 30.48 0 0 -30.48 60.94 0 0 -30.49 60.97 0 0 -30.45 60.93 0 0 -30.49 335.2 0 0 30.49 121.91 0 0 30.45 121.9 0 0 30.49 91.42 0 0 -30.49 30.45 0 0 -91.42 -121.87 0 0 -30.45 -121.9 0 0 -30.49 -91.42 0 0 -60.93zm670.43 -548.52l-60.98 0 0 30.45 -121.87 0 0 30.48 -60.97 0 0 30.49 -30.45 0 0 30.45 -60.97 0 0 30.48 -60.93 0 0 30.49 -30.49 0 0 30.45 -60.93 0 0 30.48 -30.49 0 0 30.49 -60.93 0 0 30.45 -30.49 0 0 30.48 -60.93 0 0 30.49 -30.49 0 0 30.45 -60.93 0 0 30.48 -60.94 0 0 30.49 -91.42 0 0 30.45 -91.42 0 0 30.48 -91.42 0 0 30.49 -91.42 0 0 30.45 -60.97 0 0 30.48 -30.45 0 0 30.49 -60.97 0 0 30.45 -30.45 0 0 30.48 -30.49 0 0 30.49 -30.48 0 0 30.45 -30.45 0 0 30.49 -30.49 0 0 30.48 -30.48 0 0 30.45 -30.45 0 0 60.97 -30.49 0 0 30.45 -30.48 0 0 60.97 -30.45 0 0 30.45 -30.49 0 0 60.97 -30.48 0 0 60.94 -30.45 0 0 60.93 -30.49 0 0 91.42 -30.48 0 0 91.42 -30.45 0 0 91.42 -30.49 0 0 121.91 -30.48 0 0 152.36 -30.45 0 0 121.9 -30.49 0 0 274.26 -30.49 0 0 578.97 30.49 0 0 304.75 30.49 0 0 121.91 30.45 0 0 182.84 30.48 0 0 91.42 30.49 0 0 152.35 30.45 0 0 91.42 30.48 0 0 121.91 30.49 0 0 91.42 30.45 0 0 91.42 30.48 0 0 121.87 30.49 0 0 91.42 30.45 0 0 60.97 30.48 0 0 121.87 30.49 0 0 91.42 30.45 0 0 91.42 30.48 0 0 60.97 30.49 0 0 91.43 30.45 0 0 91.42 30.48 0 0 213.29 30.49 0 0 213.32 30.45 0 0 182.84 30.48 0 0 670.43 -30.48 0 0 365.68 -30.45 0 0 121.87 -30.49 0 0 304.75 -30.48 0 0 213.33 -30.45 0 0 121.87 -30.49 0 0 182.84 -30.48 0 0 121.9 -30.45 0 0 152.36 -30.49 0 0 152.39 -30.48 0 0 121.87 -30.45 0 0 121.91 -30.49 0 0 121.9 -30.48 0 0 182.84 -30.45 0 0 91.42 -30.49 0 0 91.42 -30.48 0 0 152.36 -30.45 0 0 121.91 -30.49 0 0 121.87 -30.48 0 0 91.42 -30.45 0 0 91.42 -30.49 0 0 152.35 -30.49 0 0 121.91 -30.44 0 0 121.9 -30.49 0 0 152.36 -30.49 0 0 213.33 -30.45 0 0 182.84 -30.48 0 0 121.87 -30.49 0 0 213.32 -30.45 0 0 182.84 -30.48 0 0 304.75 -30.49 0 0 426.62 -30.45 0 0 822.78 30.45 0 0 335.2 30.49 0 0 121.9 30.48 0 0 121.91 30.45 0 0 152.36 30.49 0 0 91.42 30.48 0 0 60.93 30.45 0 0 60.97 30.49 0 0 30.45 30.49 0 0 60.97 30.44 0 0 30.45 30.49 0 0 30.49 30.49 0 0 30.48 60.93 0 0 30.45 30.49 0 0 30.49 335.19 0 0 -30.49 60.94 0 0 -30.45 30.48 0 0 -30.48 60.94 0 0 -30.49 30.48 0 0 -30.45 30.49 0 0 -30.48 30.45 0 0 -30.49 30.48 0 0 -30.45 30.49 0 0 -30.48 30.45 0 0 -30.49 30.48 0 0 -60.93 30.49 0 0 -30.49 30.45 0 0 -60.93 30.48 0 0 -30.49 30.49 0 0 -60.93 30.45 0 0 -60.94 30.49 0 0 -30.48 30.48 0 0 -60.94 30.45 0 0 -60.97 30.49 0 0 -60.94 30.48 0 0 -60.93 30.45 0 0 -91.42 30.49 0 0 -60.97 30.48 0 0 -91.42 30.45 0 0 -60.94 30.49 0 0 -91.42 30.48 0 0 -91.42 30.45 0 0 -91.42 30.49 0 0 -121.91 30.48 0 0 -60.93 30.45 0 0 -91.42 30.49 0 0 -152.36 30.48 0 0 -60.97 30.45 0 0 -121.87 30.49 0 0 -91.42 30.48 0 0 -121.9 30.45 0 0 -121.91 30.49 0 0 -91.42 30.48 0 0 -91.42 30.45 0 0 -152.36 30.49 0 0 -60.93 30.48 0 0 -121.91 30.45 0 0 -91.42 30.49 0 0 -121.9 30.48 0 0 -91.42 30.45 0 0 -60.94 30.49 0 0 -91.42 30.49 0 0 -60.93 30.44 0 0 -60.97 30.49 0 0 -60.94 30.49 0 0 -91.42 30.45 0 0 -60.94 30.48 0 0 -91.42 30.49 0 0 -60.97 30.45 0 0 -60.93 30.48 0 0 -60.94 30.49 0 0 -60.97 30.45 0 0 -60.93 30.48 0 0 -91.42 30.49 0 0 -60.94 30.45 0 0 -30.48 30.48 0 0 -91.42 30.49 0 0 -60.94 30.45 0 0 -60.93 30.48 0 0 -60.97 30.49 0 0 -60.94 30.45 0 0 -60.93 30.48 0 0 -60.98 30.49 0 0 -60.93 30.45 0 0 -30.49 30.48 0 0 -91.42 30.49 0 0 -30.45 30.45 0 0 -60.97 30.48 0 0 -60.93 30.49 0 0 -60.94 30.45 0 0 -30.48 30.48 0 0 -60.94 30.49 0 0 -60.97 30.45 0 0 -60.93 30.48 0 0 -30.49 30.49 0 0 -60.93 30.45 0 0 -60.94 30.49 0 0 -60.97 30.48 0 0 -30.45 30.45 0 0 -30.48 30.49 0 0 -30.49 30.48 0 0 -60.94 91.42 0 0 30.49 30.45 0 0 30.45 30.49 0 0 60.97 30.48 0 0 91.42 30.45 0 0 60.94 30.49 0 0 91.42 30.48 0 0 121.9 30.45 0 0 91.42 30.49 0 0 60.94 30.48 0 0 182.84 30.45 0 0 152.35 30.49 0 0 121.91 30.48 0 0 121.91 30.45 0 0 182.8 30.49 0 0 365.68 30.48 0 0 639.95 -30.48 0 0 396.16 -30.49 0 0 152.36 -30.45 0 0 182.84 -30.48 0 0 152.39 -30.49 0 0 152.36 -30.45 0 0 121.9 -30.48 0 0 60.94 -30.49 0 0 182.84 -30.45 0 0 60.93 -30.48 0 0 91.42 -30.49 0 0 121.91 -30.45 0 0 91.42 -30.48 0 0 121.91 -30.49 0 0 60.93 -30.45 0 0 60.94 -30.48 0 0 152.39 -30.49 0 0 60.93 -30.45 0 0 91.42 -30.48 0 0 60.94 -30.49 0 0 121.9 -30.45 0 0 60.94 -30.48 0 0 91.42 -30.49 0 0 91.42 -30.45 0 0 152.39 -30.49 0 0 91.42 -30.48 0 0 426.62 30.48 0 0 91.42 30.49 0 0 60.93 30.45 0 0 30.49 30.49 0 0 30.49 30.48 0 0 30.44 30.45 0 0 30.49 60.97 0 0 30.49 304.71 0 0 -30.49 91.42 0 0 -30.49 60.97 0 0 -30.44 60.94 0 0 -30.49 30.48 0 0 -30.49 60.94 0 0 -30.45 60.93 0 0 -30.48 30.49 0 0 -30.49 60.93 0 0 -30.45 30.49 0 0 -30.48 30.49 0 0 -30.49 30.44 0 0 -30.45 60.98 0 0 -30.48 30.45 0 0 -30.49 30.48 0 0 -30.45 30.49 0 0 -30.48 30.45 0 0 -30.49 30.48 0 0 -30.45 30.49 0 0 -30.48 30.45 0 0 -30.49 30.48 0 0 -30.45 30.49 0 0 -30.48 30.45 0 0 -30.49 30.48 0 0 -30.45 30.49 0 0 -30.48 30.45 0 0 -60.94 30.48 0 0 -30.48 30.49 0 0 -30.49 30.45 0 0 -60.93 30.48 0 0 -30.49 30.49 0 0 -30.45 30.45 0 0 -60.97 30.48 0 0 -30.45 30.49 0 0 -60.97 30.45 0 0 -30.45 30.48 0 0 -60.97 30.49 0 0 -60.94 30.45 0 0 -30.48 30.48 0 0 -60.94 30.49 0 0 -30.48 30.45 0 0 -60.94 30.49 0 0 -60.93 30.48 0 0 -30.49 30.45 0 0 -60.93 30.49 0 0 -60.97 30.48 0 0 -60.94 30.45 0 0 -60.93 30.49 0 0 -60.97 30.48 0 0 -60.94 30.45 0 0 -60.93 30.49 0 0 -60.98 30.48 0 0 -60.93 30.45 0 0 -91.42 30.49 0 0 -60.94 30.48 0 0 -60.97 30.45 0 0 -91.42 30.49 0 0 -60.93 30.48 0 0 -60.94 30.45 0 0 -91.42 30.49 0 0 -60.97 30.48 0 0 -91.42 30.45 0 0 -91.42 30.49 0 0 -91.42 30.48 0 0 -91.42 30.45 0 0 -121.87 30.49 0 0 -60.97 30.48 0 0 -152.36 30.45 0 0 -121.9 30.49 0 0 -121.87 30.48 0 0 -91.42 30.45 0 0 -182.84 30.49 0 0 -121.91 30.49 0 0 -121.91 30.44 0 0 -182.84 30.49 0 0 -274.26 30.49 0 0 -182.8 30.45 0 0 -457.11 30.48 0 0 -944.69 -30.48 0 0 -579 -30.45 0 0 -1218.92 30.45 0 0 -304.75 30.48 0 0 -182.84 30.49 0 0 -182.84 30.45 0 0 -152.35 30.48 0 0 -91.42 30.49 0 0 -121.91 30.45 0 0 -121.91 30.48 0 0 -60.93 30.49 0 0 -91.42 30.45 0 0 -91.42 30.48 0 0 -60.94 30.49 0 0 -91.42 30.45 0 0 -91.42 30.48 0 0 -91.42 30.49 0 0 -60.97 30.45 0 0 -152.35 30.48 0 0 -91.43 30.49 0 0 -30.48 30.45 0 0 -121.87 30.48 0 0 -91.42 30.49 0 0 -121.91 30.45 0 0 -152.35 30.48 0 0 -152.39 30.49 0 0 -152.36 30.45 0 0 -182.84 30.48 0 0 -548.52 -30.48 0 0 -243.78 -30.45 0 0 -243.81 -30.49 0 0 -60.94 -30.48 0 0 -121.9 -30.45 0 0 -60.94 -30.49 0 0 -91.42 -30.48 0 0 -60.93 -30.45 0 0 -60.97 -30.49 0 0 -30.45 -30.48 0 0 -60.94 -30.45 0 0 -30.48 -30.49 0 0 -60.94 -30.48 0 0 -30.48 -30.45 0 0 -60.94 -30.49 0 0 -30.48 -30.48 0 0 -30.49 -30.45 0 0 -30.45 -30.49 0 0 -30.48 -30.48 0 0 -30.49 -30.45 0 0 -30.45 -30.49 0 0 -30.49 -30.48 0 0 -30.48 -30.45 0 0 -30.45 -30.49 0 0 -30.49 -30.48 0 0 -30.48 -30.45 0 0 -30.45 -60.98 0 0 -30.49 -30.44 0 0 -30.48 -30.49 0 0 -30.45 -30.49 0 0 -30.49 -60.93 0 0 -30.48 -30.49 0 0 -30.45 -30.45 0 0 -30.49 -60.97 0 0 -30.48 -30.45 0 0 -30.45 -60.97 0 0 -30.49 -30.45 0 0 -30.48 -60.97 0 0 -30.45 -60.93 0 0 -30.49 -60.94 0 0 -30.48 -60.97 0 0 -30.45 -121.87 0 0 -30.49 -365.68 0 0 30.49 -91.42 0 0 30.45 -91.42 0 0 30.48 -30.49 0 0 30.49 -91.42 0 0 30.45 -60.93 0 0 30.48 -30.49 0 0 30.49 -60.93 0 0 30.45 -60.97 0 0 30.48 -60.94 0 0 30.49 -30.48 0 0 30.45 -60.94 0 0 30.48 -60.93 0 0 30.49 -91.42 0 0 30.45 -60.98 0 0 30.48 -121.87 0 0 30.49 -365.68 0 0 -30.49 -121.9 0 0 -30.48 -60.94 0 0 -30.45 -60.97 0 0 -30.49 -60.93 0 0 -30.48 -60.94 0 0 -30.45 -60.97 0 0 -30.49 -60.94 0 0 -30.48 -60.93 0 0 -30.45 -60.97 0 0 -30.49 -30.45 0 0 -30.48 -60.97 0 0 -30.45 -60.94 0 0 -30.49 -60.93 0 0 -30.48 -60.97 0 0 -30.45 -60.94 0 0 -30.49 -60.93 0 0 -30.48 -91.42 0 0 -30.45 -91.42 0 0 -30.49 -274.26 0 0 30.49z"/>
 </g>
</svg>
