<?xml version="1.0" encoding="UTF-8"?>
<!DOCTYPE svg PUBLIC "-//W3C//DTD SVG 1.1//EN" "http://www.w3.org/Graphics/SVG/1.1/DTD/svg11.dtd">
<!-- Creator: CorelDRAW (Versión de evaluación) -->
<svg xmlns="http://www.w3.org/2000/svg" xml:space="preserve" width="497px" height="2062px" version="1.1" style="shape-rendering:geometricPrecision; text-rendering:geometricPrecision; image-rendering:optimizeQuality; fill-rule:evenodd; clip-rule:evenodd"
viewBox="0 0 497 2063.64"
 xmlns:xlink="http://www.w3.org/1999/xlink"
 xmlns:xodm="http://www.corel.com/coreldraw/odm/2003">
 <defs>
  <style type="text/css">
   <![CDATA[
    .str0 {stroke:#E6E7E8;stroke-width:2;stroke-miterlimit:22.9256}
    .fil0 {fill:none}
   ]]>
  </style>
 </defs>
 <g id="missing">
  <metadata id="CorelCorpID_0Corel-Layer"/>
  <path id="outline" class="fil0 str0" d="M24.55 1829.96l3.61 0 0 10.81 3.59 0 0 7.2 3.61 0 0 7.2 3.6 0 0 3.6 3.6 0 0 7.21 3.6 0 0 3.6 3.61 0 0 3.6 3.59 0 0 3.6 3.61 0 0 3.6 3.6 0 0 3.6 3.6 0 0 3.6 3.6 0 0 3.61 3.6 0 0 3.6 3.6 0 0 3.6 7.21 0 0 3.6 3.6 0 0 3.6 7.2 0 0 3.6 3.6 0 0 3.6 7.21 0 0 3.61 3.6 0 0 3.6 3.6 0 0 3.6 7.2 0 0 3.6 3.6 0 0 3.6 7.2 0 0 3.6 3.61 0 0 3.61 7.2 0 0 3.6 3.6 0 0 3.6 7.2 0 0 3.6 3.61 0 0 3.6 7.2 0 0 3.6 3.6 0 0 3.61 3.6 0 0 3.59 7.21 0 0 3.61 3.6 0 0 3.6 3.6 0 0 3.6 3.6 0 0 3.6 7.2 0 0 3.6 3.6 0 0 3.6 3.61 0 0 3.61 3.6 0 0 3.6 7.2 0 0 3.6 7.2 0 0 3.6 14.41 0 0 3.6 25.21 0 0 -3.6 14.41 0 0 -3.6 7.2 0 0 -3.6 10.8 0 0 -3.6 3.61 0 0 -3.61 7.2 0 0 -3.6 3.6 0 0 -3.6 7.2 0 0 -3.6 3.6 0 0 -3.6 3.61 0 0 -3.6 7.2 0 0 -3.61 7.2 0 0 -3.59 3.6 0 0 -3.61 3.6 0 0 -3.6 7.21 0 0 -3.6 7.2 0 0 -3.6 3.6 0 0 -3.6 7.2 0 0 -3.6 3.61 0 0 -3.61 7.2 0 0 -3.6 7.2 0 0 -3.6 7.2 0 0 -3.6 7.21 0 0 -3.6 3.6 0 0 -3.6 7.2 0 0 -3.61 3.6 0 0 -3.6 7.21 0 0 -3.6 3.6 0 0 -3.6 3.6 0 0 -3.6 3.6 0 0 -3.6 7.21 0 0 -3.6 3.59 0 0 -3.61 3.61 0 0 -3.6 3.6 0 0 -7.2 3.6 0 0 -3.6 3.6 0 0 -7.2 3.6 0 0 -7.21 3.6 0 0 -10.8 3.61 0 0 -10.81 3.6 0 0 -18 3.6 0 0 -75.63 -3.6 0 0 -14.41 -3.6 0 0 -18.01 -3.61 0 0 -18 -3.6 0 0 -14.41 -3.6 0 0 -14.41 -3.6 0 0 -14.4 -3.6 0 0 -10.81 -3.6 0 0 -18.01 -3.61 0 0 -7.2 -3.59 0 0 -10.8 -3.61 0 0 -14.41 -3.6 0 0 -14.4 -3.6 0 0 -10.81 -3.6 0 0 -10.8 -3.6 0 0 -10.81 -3.6 0 0 -14.4 -3.61 0 0 -14.41 -3.6 0 0 -7.2 -3.6 0 0 -10.81 -3.6 0 0 -10.8 -3.6 0 0 -7.2 -3.6 0 0 -7.21 -3.61 0 0 -7.2 -3.6 0 0 -7.2 -3.6 0 0 -7.21 -3.6 0 0 -7.2 -3.6 0 0 -7.2 -3.6 0 0 -7.21 -3.6 0 0 -7.2 -3.61 0 0 -3.6 -3.6 0 0 -7.2 -3.6 0 0 -7.2 -3.6 0 0 -3.61 -3.6 0 0 -7.2 -7.21 0 0 -7.2 -3.6 0 0 -3.6 -3.6 0 0 -3.61 -3.6 0 0 -3.6 -3.6 0 0 -3.6 -7.21 0 0 -3.6 -3.59 0 0 -3.6 -7.21 0 0 -3.6 -7.2 0 0 -3.6 -7.2 0 0 -3.61 -10.81 0 0 -3.6 -54.02 0 0 3.6 -14.41 0 0 3.61 -7.2 0 0 3.6 -7.2 0 0 3.6 -7.21 0 0 3.6 -7.2 0 0 3.6 -3.6 0 0 3.6 -3.6 0 0 3.6 -3.6 0 0 3.61 -7.21 0 0 3.6 -3.6 0 0 3.6 -3.6 0 0 3.6 -3.6 0 0 3.6 -3.6 0 0 7.21 -3.6 0 0 3.6 -3.61 0 0 3.6 -3.59 0 0 7.2 -3.61 0 0 3.6 -3.6 0 0 7.2 -3.6 0 0 7.21 -3.6 0 0 3.6 -3.61 0 0 7.2 -3.59 0 0 7.21 -3.61 0 0 3.6 -3.6 0 0 7.2 -3.6 0 0 7.2 -3.6 0 0 10.81 -3.6 0 0 7.2 -3.6 0 0 10.81 -3.61 0 0 7.2 -3.6 0 0 14.41 -3.6 0 0 10.8 -3.6 0 0 7.2 -3.6 0 0 14.41 -3.6 0 0 10.8 -3.6 0 0 7.2 -3.61 0 0 10.81 -3.6 0 0 10.8 -3.6 0 0 10.81 -3.6 0 0 7.2 -3.6 0 0 10.8 -3.6 0 0 7.21 -3.61 0 0 10.8 -3.59 0 0 10.81 -3.61 0 0 10.8 -3.6 0 0 7.2 -3.6 0 0 14.41 -3.6 0 0 10.81 -3.61 0 0 18 -3.59 0 0 14.41 -3.61 0 0 21.61 -3.6 0 0 64.83 3.6 0 0 18zm302.53 -1552.24l-3.61 0 0 -14.4 -3.59 0 0 -10.81 -3.61 0 0 -3.6 -3.6 0 0 -7.2 -3.6 0 0 -3.6 -7.2 0 0 3.6 -3.6 0 0 3.6 -3.6 0 0 3.6 -3.61 0 0 3.6 -3.6 0 0 3.6 -3.6 0 0 7.21 -3.6 0 0 7.2 -3.6 0 0 3.6 -3.6 0 0 7.21 -3.61 0 0 10.8 -3.6 0 0 7.2 -3.6 0 0 7.2 -3.6 0 0 10.81 -3.6 0 0 7.2 -3.6 0 0 10.81 -3.61 0 0 14.4 -3.59 0 0 10.81 -3.61 0 0 10.8 -3.6 0 0 7.21 -3.6 0 0 10.8 -3.6 0 0 18.01 -3.6 0 0 7.2 -3.6 0 0 14.41 -3.61 0 0 18 -3.6 0 0 10.81 -3.6 0 0 18.01 -3.6 0 0 18 -3.6 0 0 14.41 -3.6 0 0 18.01 -3.61 0 0 10.8 -3.6 0 0 18.01 -3.6 0 0 14.4 -3.6 0 0 28.81 -3.6 0 0 14.41 -3.6 0 0 28.81 -3.6 0 0 18.01 -3.61 0 0 18.01 -3.6 0 0 32.41 -3.6 0 0 28.81 -3.6 0 0 28.82 -3.6 0 0 21.61 -3.6 0 0 25.2 -3.61 0 0 28.82 -3.59 0 0 43.22 -3.61 0 0 54.02 -3.6 0 0 36.01 -3.6 0 0 46.82 -3.6 0 0 97.24 -3.61 0 0 50.42 -3.59 0 0 93.64 -3.61 0 0 32.41 -3.6 0 0 61.23 -3.6 0 0 32.41 -3.6 0 0 21.61 -3.6 0 0 25.21 3.6 0 0 -7.2 3.6 0 0 -7.2 3.6 0 0 -7.21 3.6 0 0 -3.6 3.61 0 0 -7.2 3.59 0 0 -3.6 3.61 0 0 -7.21 3.6 0 0 -3.6 3.6 0 0 -3.6 3.6 0 0 -3.6 3.61 0 0 -3.6 3.59 0 0 -3.61 3.61 0 0 -3.6 3.6 0 0 -3.6 3.6 0 0 -3.6 3.6 0 0 -3.6 3.6 0 0 -3.6 3.6 0 0 -3.6 3.61 0 0 -3.61 7.2 0 0 -3.6 3.6 0 0 -3.6 7.2 0 0 -3.6 7.21 0 0 -3.6 10.8 0 0 -3.6 10.81 0 0 -3.61 21.61 0 0 -3.6 39.61 0 0 3.6 14.41 0 0 3.61 10.8 0 0 3.6 7.2 0 0 3.6 7.2 0 0 3.6 3.61 0 0 3.6 7.2 0 0 3.6 3.6 0 0 3.61 3.6 0 0 3.6 7.21 0 0 3.6 3.6 0 0 3.6 3.6 0 0 3.6 3.6 0 0 3.6 3.6 0 0 7.21 3.6 0 0 3.6 3.61 0 0 3.6 3.6 0 0 7.2 3.6 0 0 3.6 3.6 0 0 7.21 3.6 0 0 3.6 3.6 0 0 7.2 3.6 0 0 7.21 3.61 0 0 7.2 3.6 0 0 7.2 3.6 0 0 10.8 3.6 0 0 7.21 3.6 0 0 7.2 3.6 0 0 3.6 3.61 0 0 -28.81 -3.61 0 0 -61.23 -3.6 0 0 -93.63 -3.6 0 0 -75.63 -3.6 0 0 -50.43 -3.6 0 0 -36.01 -3.6 0 0 -39.62 -3.61 0 0 -28.81 -3.6 0 0 -18.01 -3.6 0 0 -28.81 -3.6 0 0 -32.41 -3.6 0 0 -14.41 -3.6 0 0 -28.81 -3.6 0 0 -21.61 -3.61 0 0 -25.21 -3.6 0 0 -28.81 -3.6 0 0 -21.61 -3.6 0 0 -21.61 -3.6 0 0 -21.6 -3.6 0 0 -18.01 -3.61 0 0 -21.61 -3.6 0 0 -25.21 -3.6 0 0 -28.82 -3.6 0 0 -28.81 -3.6 0 0 -32.41 -3.6 0 0 -39.61 -3.61 0 0 -172.88 3.61 0 0 -144.06zm-7.2 -54.02l7.2 0 0 3.6 3.6 0 0 3.6 3.6 0 0 7.21 3.6 0 0 7.2 3.6 0 0 7.2 3.6 0 0 10.81 3.61 0 0 18.01 3.6 0 0 72.02 -3.6 0 0 72.03 -3.61 0 0 151.27 3.61 0 0 43.21 3.6 0 0 36.02 3.6 0 0 28.81 3.6 0 0 28.81 3.6 0 0 28.81 3.6 0 0 14.41 3.61 0 0 21.61 3.6 0 0 32.41 3.6 0 0 14.41 3.6 0 0 25.21 3.6 0 0 21.61 3.6 0 0 18 3.6 0 0 25.22 3.61 0 0 21.61 3.6 0 0 28.81 3.6 0 0 25.21 3.6 0 0 21.61 3.6 0 0 39.61 3.6 0 0 25.21 3.61 0 0 50.42 3.6 0 0 36.02 3.6 0 0 50.42 3.6 0 0 75.63 3.6 0 0 75.63 3.6 0 0 43.22 3.61 0 0 72.03 3.59 0 0 61.22 3.61 0 0 18.01 3.6 0 0 10.8 3.6 0 0 7.21 3.6 0 0 10.8 3.6 0 0 10.81 3.6 0 0 14.4 3.61 0 0 14.41 3.6 0 0 14.4 3.6 0 0 14.41 3.6 0 0 14.41 3.6 0 0 10.8 3.6 0 0 21.61 3.6 0 0 10.81 3.61 0 0 21.6 3.6 0 0 86.44 -3.6 0 0 18.01 -3.61 0 0 14.4 -3.6 0 0 10.81 -3.6 0 0 7.2 -3.6 0 0 7.2 -3.6 0 0 7.2 -3.6 0 0 3.61 -3.6 0 0 7.2 -3.61 0 0 3.6 -3.6 0 0 3.6 -3.6 0 0 3.6 -3.6 0 0 3.6 -3.6 0 0 3.61 -7.21 0 0 3.6 -3.59 0 0 3.6 -3.61 0 0 3.6 -7.2 0 0 3.6 -3.6 0 0 3.6 -7.2 0 0 3.61 -7.21 0 0 3.6 -3.6 0 0 3.6 -7.2 0 0 3.6 -3.6 0 0 3.6 -7.21 0 0 3.6 -7.2 0 0 3.61 -7.2 0 0 3.59 -3.6 0 0 3.61 -7.21 0 0 3.6 -3.6 0 0 3.6 -7.2 0 0 3.6 -3.6 0 0 3.6 -7.21 0 0 3.6 -3.6 0 0 3.61 -3.6 0 0 3.6 -7.2 0 0 3.6 -7.2 0 0 3.6 -3.61 0 0 3.6 -7.2 0 0 3.6 -7.2 0 0 3.6 -7.2 0 0 3.61 -7.21 0 0 3.6 -7.2 0 0 3.6 -10.81 0 0 3.6 -46.81 0 0 -3.6 -10.81 0 0 -3.6 -7.2 0 0 -3.6 -7.21 0 0 -3.61 -7.2 0 0 -3.6 -3.6 0 0 -3.6 -3.6 0 0 -3.6 -7.2 0 0 -3.6 -3.61 0 0 -3.6 -3.6 0 0 -3.6 -7.2 0 0 -3.61 -3.6 0 0 -3.6 -3.6 0 0 -3.6 -3.61 0 0 -3.6 -7.2 0 0 -3.6 -3.6 0 0 -3.6 -3.6 0 0 -3.61 -7.21 0 0 -3.59 -3.59 0 0 -3.61 -3.61 0 0 -3.6 -7.2 0 0 -3.6 -3.6 0 0 -3.6 -7.2 0 0 -3.6 -3.61 0 0 -3.6 -7.2 0 0 -3.61 -3.6 0 0 -3.6 -7.2 0 0 -3.6 -3.6 0 0 -3.6 -7.21 0 0 -3.6 -3.6 0 0 -3.6 -3.6 0 0 -3.61 -7.2 0 0 -3.6 -3.61 0 0 -3.6 -3.59 0 0 -3.6 -3.61 0 0 -3.6 -7.2 0 0 -3.6 -3.6 0 0 -3.6 -3.61 0 0 -7.21 -3.59 0 0 -3.6 -3.61 0 0 -3.6 -3.6 0 0 -7.2 -3.6 0 0 -3.6 -3.6 0 0 -10.81 -3.6 0 0 -7.2 -3.6 0 0 -14.4 -3.61 0 0 -10.81 -3.6 0 0 -86.44 3.6 0 0 -10.8 3.61 0 0 -21.61 3.6 0 0 -14.41 3.6 0 0 -14.4 3.6 0 0 -7.21 3.6 0 0 -14.4 3.6 0 0 -7.2 3.61 0 0 -14.41 3.59 0 0 -10.81 3.61 0 0 -10.8 3.6 0 0 -7.2 3.6 0 0 -10.81 3.6 0 0 -10.8 3.61 0 0 -7.2 3.59 0 0 -14.41 3.61 0 0 -7.2 3.6 0 0 -10.81 3.6 0 0 -14.4 3.6 0 0 -10.81 3.6 0 0 -7.2 3.6 0 0 -21.61 3.61 0 0 -21.61 3.6 0 0 -39.62 3.6 0 0 -21.6 3.6 0 0 -46.82 3.6 0 0 -28.82 3.6 0 0 -54.02 3.6 0 0 -21.61 3.61 0 0 -111.64 3.6 0 0 -39.62 3.6 0 0 -82.83 3.6 0 0 -57.63 3.6 0 0 -39.61 3.6 0 0 -46.82 3.61 0 0 -36.02 3.59 0 0 -36.01 3.61 0 0 -21.61 3.6 0 0 -28.81 3.6 0 0 -36.02 3.6 0 0 -25.2 3.61 0 0 -25.22 3.59 0 0 -21.6 3.61 0 0 -14.41 3.6 0 0 -21.61 3.6 0 0 -21.61 3.6 0 0 -18.01 3.6 0 0 -21.61 3.6 0 0 -18 3.61 0 0 -14.41 3.6 0 0 -14.41 3.6 0 0 -21.61 3.6 0 0 -14.4 3.6 0 0 -14.41 3.6 0 0 -14.4 3.6 0 0 -14.41 3.61 0 0 -7.2 3.6 0 0 -14.4 3.6 0 0 -14.41 3.6 0 0 -14.41 3.6 0 0 -7.2 3.6 0 0 -14.41 3.61 0 0 -10.8 3.6 0 0 -10.81 3.6 0 0 -7.2 3.6 0 0 -14.41 3.6 0 0 -7.2 3.6 0 0 -7.2 3.61 0 0 -10.8 3.59 0 0 -7.21 3.61 0 0 -7.2 3.6 0 0 -7.2 3.6 0 0 -7.21 3.6 0 0 -3.6 3.6 0 0 -7.2 3.6 0 0 -3.6 3.61 0 0 -3.6 3.6 0 0 -3.61 3.6 0 0 -3.6 3.6 0 0 -3.6 7.2 0 0 -3.6 28.82 0 0 3.6z"/>
 </g>
</svg>
