<!-- Creator: CorelDRAW (Versión de evaluación) -->
<svg xmlns="http://www.w3.org/2000/svg" xml:space="preserve" width="43.4288mm" height="173.699mm" version="1.1" style="shape-rendering:geometricPrecision; text-rendering:geometricPrecision; image-rendering:optimizeQuality; fill-rule:evenodd; clip-rule:evenodd"
viewBox="0 0 4342.88 17369.86"
 xmlns:xlink="http://www.w3.org/1999/xlink"
 xmlns:xodm="http://www.corel.com/coreldraw/odm/2003">
 <defs>
  <style type="text/css">
   <![CDATA[
    .fil2 {fill:#4B4B4D}
    .fil3 {fill:#FFCC29}
    .fil4 {fill:#F48884}
    .fil1 {fill:#F4EDDA}
    .fil0 {fill:#F8F9FD}
   ]]>
  </style>
 </defs>
 <g id="deciduous">
  <metadata id="CorelCorpID_0Corel-Layer"/>
  <path id="crown" class="fil0" d="M244.12 15652.66c-13.89,155.32 -13.68,208.7 -3.37,342.09 5.03,65.04 -10,124.24 -9.27,187.55 0.9,77.23 47.21,341 89.9,438.3 51.81,118.1 195.9,251.82 271.1,275.51 88.38,27.84 67.79,-10.73 148.15,40.03 108.08,68.27 69.68,40.02 325.01,42.72 261.45,2.75 521.74,2.24 783.7,1.15 656.56,-2.74 381.54,-34.41 539.55,-65.65 280.52,-55.44 1261.57,100.74 1524.63,-128.95 67.83,-59.24 8.39,-5.04 44.91,-65.77 2.55,-4.23 5.35,-10.06 7.94,-14.25l37.38 -52.11c47.65,-82.16 112.85,-854.24 107.73,-959.44 -9.03,-185.26 -60.84,59.79 -29.06,-338.94 12.7,-159.41 -9.29,-93.9 -29.79,-175.33 -17.01,-67.57 2.76,-115.03 3.78,-184.22 2.1,-142.11 -23.21,-26.19 -48.72,-137.37 -19.06,-83.07 19.87,-99.88 -13.63,-184.42 -42.13,-106.34 -11.24,39.93 -30.51,-66.11 -6.56,-36.13 2.15,-51.43 -3.24,-94.36 -19.03,-151.51 -132.81,-378.64 -143.36,-413.73 -138.66,-460.77 -600.22,-950.2 -1021.57,-1119.2 -219.11,-87.88 -366.24,-159.16 -647.96,-159.33 -124.35,-0.07 -269.59,-17.12 -388.66,12.45 -334.66,83.1 -694.68,268.24 -910.87,555.42 -133.31,177.08 -87.37,116.68 -163.62,261.82l-75.54 148.49c-152.06,312.11 -208.76,751.82 -256.2,1071.37 -15.79,106.37 -29.25,81.53 -46.46,152.75 -12.6,52.12 -16.15,148.71 -21.69,205.8 -13.7,141.37 -27.63,282.34 -40.26,423.73z"/>
  <path id="root" class="fil1" d="M1116.09 12790c115.57,28.95 169.94,-18.03 258.07,-53.35 373.77,-149.79 780.98,-179.55 1165.72,-102.54 194.74,38.98 572.16,290.27 705.92,295.39 9,-163.41 -28.4,-26.35 -41.25,-285.04 -5.67,-114.07 -0.05,-34.26 -26.95,-93.24 -43.68,-95.8 -4.94,-105.17 -23.43,-194.79 -15.97,-77.37 -19.71,-18.82 -33.97,-81.26 -11.57,-50.68 -0.11,-67.93 0.2,-117.83 0.94,-151.56 -31.77,-43.72 -43.39,-172.4 -11.77,-130.33 15.72,-77.27 -24.38,-191.4 -31.4,-89.38 3.11,-112.8 -11.1,-203.8 -14.42,-92.4 -44.46,-42.22 -33.63,-195.07 13.59,-191.83 -13.53,-95.26 -39.06,-182.24 -19.62,-66.87 12.82,-147.48 2.36,-217.98 -17.48,-117.81 -51.54,4.51 -39.59,-170.82 14.5,-212.81 -7.56,-104.42 -37.58,-203.52 -22.16,-73.15 18.62,-136.87 -4.81,-210.44 -26.83,-84.21 -55.91,10.18 -38.86,-179.66 2.82,-31.51 9.5,-72.32 5.86,-101.92 -12.92,-105.04 -11.48,11.06 -30.21,-94.16 -18.31,-102.85 32.67,-118.53 -12.36,-217.11 -87.87,-192.37 33.17,-80.79 -60.75,-368.15 -24.77,-75.78 6.23,-133.96 -5.33,-210.55 -16.83,-111.42 -56.35,-8.9 -39.49,-194.22 14.76,-162.24 9.86,-79.92 -26.52,-188.27l-145.64 -1168.48c-12.04,-350.35 -26.5,-26.13 -43.93,-402.7 -5.95,-128.46 -30.11,-69.36 -43.47,-171.91 -59.45,-456.45 -41.74,-396.8 -198.15,-698.08 -99.11,-190.91 -229.77,-80.5 -324.33,66.34 -2.43,3.77 -27.28,37.85 -28.13,39.28 -26.04,43.54 -5.49,10.51 -22.39,44.97 -72.92,148.71 -55.48,51.67 -78.1,169.53 -57.11,297.41 -65.11,-28.98 -105.48,423.42l-261.39 2860.75c-13.6,176.95 16.59,224.47 -30.49,430.94 -58.59,256.94 -134.92,1507.65 -189.25,1919.13 -24.11,182.58 -93.07,201.58 -94.72,421.18z"/>
  <path id="outline" class="fil2" d="M244.12 15652.66c12.63,-141.39 26.56,-282.36 40.26,-423.73 5.54,-57.09 9.09,-153.68 21.69,-205.8 17.21,-71.22 30.67,-46.38 46.46,-152.75 47.44,-319.55 104.14,-759.26 256.2,-1071.37l75.54 -148.49c76.25,-145.14 30.31,-84.74 163.62,-261.82 216.19,-287.18 576.21,-472.32 910.87,-555.42 119.07,-29.57 264.31,-12.52 388.66,-12.45 281.72,0.17 428.85,71.45 647.96,159.33 421.35,169 882.91,658.43 1021.57,1119.2 10.55,35.09 124.33,262.22 143.36,413.73 5.39,42.93 -3.32,58.23 3.24,94.36 19.27,106.04 -11.62,-40.23 30.51,66.11 33.5,84.54 -5.43,101.35 13.63,184.42 25.51,111.18 50.82,-4.74 48.72,137.37 -1.02,69.19 -20.79,116.65 -3.78,184.22 20.5,81.43 42.49,15.92 29.79,175.33 -31.78,398.73 20.03,153.68 29.06,338.94 5.12,105.2 -60.08,877.28 -107.73,959.44l-37.38 52.11c-2.59,4.19 -5.39,10.02 -7.94,14.25 -36.52,60.73 22.92,6.53 -44.91,65.77 -263.06,229.69 -1244.11,73.51 -1524.63,128.95 -158.01,31.24 117.01,62.91 -539.55,65.65 -261.96,1.09 -522.25,1.6 -783.7,-1.15 -255.33,-2.7 -216.93,25.55 -325.01,-42.72 -80.36,-50.76 -59.77,-12.19 -148.15,-40.03 -75.2,-23.69 -219.29,-157.41 -271.1,-275.51 -42.69,-97.3 -89,-361.07 -89.9,-438.3 -0.73,-63.31 14.3,-122.51 9.27,-187.55 -10.31,-133.39 -10.52,-186.77 3.37,-342.09zm871.97 -2862.66c1.65,-219.6 70.61,-238.6 94.72,-421.18 54.33,-411.48 130.66,-1662.19 189.25,-1919.13 47.08,-206.47 16.89,-253.99 30.49,-430.94l261.39 -2860.75c40.37,-452.4 48.37,-126.01 105.48,-423.42 22.62,-117.86 5.18,-20.82 78.1,-169.53 16.9,-34.46 -3.65,-1.43 22.39,-44.97 0.85,-1.43 25.7,-35.51 28.13,-39.28 94.56,-146.84 225.22,-257.25 324.33,-66.34 156.41,301.28 138.7,241.63 198.15,698.08 13.36,102.55 37.52,43.45 43.47,171.91 17.43,376.57 31.89,52.35 43.93,402.7l145.64 1168.48c36.38,108.35 41.28,26.03 26.52,188.27 -16.86,185.32 22.66,82.8 39.49,194.22 11.56,76.59 -19.44,134.77 5.33,210.55 93.92,287.36 -27.12,175.78 60.75,368.15 45.03,98.58 -5.95,114.26 12.36,217.11 18.73,105.22 17.29,-10.88 30.21,94.16 3.64,29.6 -3.04,70.41 -5.86,101.92 -17.05,189.84 12.03,95.45 38.86,179.66 23.43,73.57 -17.35,137.29 4.81,210.44 30.02,99.1 52.08,-9.29 37.58,203.52 -11.95,175.33 22.11,53.01 39.59,170.82 10.46,70.5 -21.98,151.11 -2.36,217.98 25.53,86.98 52.65,-9.59 39.06,182.24 -10.83,152.85 19.21,102.67 33.63,195.07 14.21,91 -20.3,114.42 11.1,203.8 40.1,114.13 12.61,61.07 24.38,191.4 11.62,128.68 44.33,20.84 43.39,172.4 -0.31,49.9 -11.77,67.15 -0.2,117.83 14.26,62.44 18,3.89 33.97,81.26 18.49,89.62 -20.25,98.99 23.43,194.79 26.9,58.98 21.28,-20.83 26.95,93.24 12.85,258.69 50.25,121.63 41.25,285.04 -133.76,-5.12 -511.18,-256.41 -705.92,-295.39 -384.74,-77.01 -791.95,-47.25 -1165.72,102.54 -88.13,35.32 -142.5,82.3 -258.07,53.35zm-79.65 -1246.97c-29.72,316.94 -80.5,1238.8 -182.33,1474.11 -50.92,117.67 -134.94,212.96 -213.16,308.42 -91.98,112.24 -228.14,354.75 -263.68,504.98 -28.85,121.93 -39.53,72.77 -72.82,202.2 -50.87,197.75 -94.2,284.31 -104.17,411.88 -14.43,184.64 -125.22,688.67 -141.85,890.25 -13.43,162.85 -30.33,324.57 -45.01,487.27 -33.05,366.15 -27.61,268.98 11.31,532.28 7.19,48.61 0.11,71.51 3.64,116.75 5.2,66.54 6.22,42.8 28.9,81.3 69.46,117.97 53.86,261.36 197.34,382.29 183.48,154.64 166.38,114.15 293.17,178.35 95.46,48.33 12.99,52.25 183.24,53.68 210.92,1.76 72.27,12.5 189.86,51.42 62.59,20.72 468.11,9.75 609.07,9.75 226.13,-0.28 311.47,-53.29 494.44,-64.18 175.4,-10.43 372.61,-3.12 549.87,-4.42l822.32 -6.51c332.72,-68.06 343.86,-6.41 481.15,-96.64 75.65,-49.71 99.64,-25.9 180.81,-107.9 54.17,-54.72 55.44,-77.89 81.38,-124.39 149.87,-268.6 30.97,-138.43 107.14,-276.48 35.83,-64.94 16.42,25.43 45.39,-89.47 9.95,-39.49 12.2,-106.24 15.5,-148.44 24.22,-310.54 46.71,-273.03 -3.35,-499.23 -23.03,-104.06 36.38,-312.88 20.95,-408.53 -12.17,-75.48 -23.57,-26.58 -33.85,-111.43 -12.86,-106.24 38,-171.28 -11.21,-261.12 -75.64,-138.06 -10.71,-105.82 -29.55,-242.26 -14.26,-103.28 -20.26,-0.79 -38.06,-96.92 -9.65,-52.14 8.6,-84.23 -1.28,-135.28 -15.98,-82.5 4.27,4.28 -18.38,-43.16l-82.22 -258.07c-8.1,-81.82 13.47,-43.58 -17.85,-118.66 -1.65,-3.97 -5.08,-8.67 -6.83,-12.6 -1.79,-4.02 -4.95,-8.98 -6.72,-13.07l-65.71 -155.46c-123.69,-322.5 -68.81,-146.96 -136.53,-278.21 -19.3,-37.43 -16.3,-53.44 -44.42,-95.86 -87.68,-132.26 -326,-353.47 -333.55,-512.19 -2.4,-50.52 7.14,-61.91 -3.07,-113.78 -17.06,-86.66 -21.82,-19.74 -31.35,-102.19 -17.04,-147.37 -30.28,-327.65 -70.56,-482.42 -28.88,-110.94 -4.63,-148.42 -23.01,-251.21 -21.8,-121.88 2.09,21.29 -36.26,-80.6 -24.8,-65.88 -8.59,-52.89 -8.69,-133.71 -0.18,-137.79 -43.19,-45.46 -34.51,-232.66 9.79,-211.05 -21.48,-133.31 -38.5,-237.23 -7.56,-46.2 5.42,-94.53 0.62,-140.76 -9.15,-88.04 -20.14,-35.45 -33.69,-97.55 -20.08,-92.12 20.37,-149.27 -14.89,-242.47 -27.15,-71.75 -25.49,21.04 -26.82,-109.15 -2.89,-283.11 -30.86,-67.27 -42.37,-233.62 -3.05,-44.02 4.8,-91.15 0.66,-134.62 -13.85,-145.29 -36.86,-55.55 -31.04,-245.93 4.95,-162.04 -42.39,-76.61 -42.65,-212.17 -0.57,-290.35 -24.51,-77.63 -36.42,-235.43 -3.28,-43.5 10.63,-99.8 8.8,-145.97 -5.26,-132.99 -10.48,-38.01 -35.79,-103.36l-51.67 -477.99c-40.53,-199.8 -20.49,26.93 -30.87,-243.98 -4.12,-107.55 -40.81,-56.78 -43.43,-226.26 -4.18,-269.85 -34.68,-40.17 -33.88,-367.53 0.26,-108.96 -4.96,-43.58 -26.17,-104.86 -28.2,-81.49 3.86,-165.09 -16.45,-259.21l-262.79 -1367.77c-203.58,-411.3 -312.52,-455.11 -536.78,-367.87 -88.42,34.4 -23.99,-7.43 -95.35,57.84 -80.93,74.01 -67.98,77 -135.09,152.77 -99.37,112.19 -42.83,87.67 -114.53,201.88 -77.13,122.87 -27.76,138.61 -79.38,241.99 -87.31,174.87 -26.8,101.42 -56.76,258.88 -31.42,165.06 -53.97,-24.3 -113.32,508.78 -22,197.5 -41.53,395.66 -58.86,593.15 -25.79,293.88 -104.02,901.37 -68.73,1139.86 36.85,248.94 -62.54,862.19 -106.12,1127.29 -62.75,381.71 -97.37,755.71 -133.23,1143.41z"/>
 </g>
 <g id="pulpotomy" visibility="hidden">
  <metadata id="CorelCorpID_1Corel-Layer"/>
  <path id="crown_1427" class="fil0" d="M244.12 15652.66c-13.89,155.32 -13.68,208.7 -3.37,342.09 5.03,65.04 -10,124.24 -9.27,187.55 0.9,77.23 47.21,341 89.9,438.3 51.81,118.1 195.9,251.82 271.1,275.51 88.38,27.84 67.79,-10.73 148.15,40.03 108.08,68.27 69.68,40.02 325.01,42.72 261.45,2.75 521.74,2.24 783.7,1.15 656.56,-2.74 381.54,-34.41 539.55,-65.65 280.52,-55.44 1261.57,100.74 1524.63,-128.95 67.83,-59.24 8.39,-5.04 44.91,-65.77 2.55,-4.23 5.35,-10.06 7.94,-14.25l37.38 -52.11c47.65,-82.16 112.85,-854.24 107.73,-959.44 -9.03,-185.26 -60.84,59.79 -29.06,-338.94 12.7,-159.41 -9.29,-93.9 -29.79,-175.33 -17.01,-67.57 2.76,-115.03 3.78,-184.22 2.1,-142.11 -23.21,-26.19 -48.72,-137.37 -19.06,-83.07 19.87,-99.88 -13.63,-184.42 -42.13,-106.34 -11.24,39.93 -30.51,-66.11 -6.56,-36.13 2.15,-51.43 -3.24,-94.36 -19.03,-151.51 -132.81,-378.64 -143.36,-413.73 -138.66,-460.77 -600.22,-950.2 -1021.57,-1119.2 -219.11,-87.88 -366.24,-159.16 -647.96,-159.33 -124.35,-0.07 -269.59,-17.12 -388.66,12.45 -334.66,83.1 -694.68,268.24 -910.87,555.42 -133.31,177.08 -87.37,116.68 -163.62,261.82l-75.54 148.49c-152.06,312.11 -208.76,751.82 -256.2,1071.37 -15.79,106.37 -29.25,81.53 -46.46,152.75 -12.6,52.12 -16.15,148.71 -21.69,205.8 -13.7,141.37 -27.63,282.34 -40.26,423.73z"/>
  <rect class="fil3" x="1560.34" y="12008.32" width="1182.98" height="3400.4"/>
  <path id="root_1428" class="fil1" d="M1116.09 12790c115.57,28.95 169.94,-18.03 258.07,-53.35 373.77,-149.79 780.98,-179.55 1165.72,-102.54 194.74,38.98 572.16,290.27 705.92,295.39 9,-163.41 -28.4,-26.35 -41.25,-285.04 -5.67,-114.07 -0.05,-34.26 -26.95,-93.24 -43.68,-95.8 -4.94,-105.17 -23.43,-194.79 -15.97,-77.37 -19.71,-18.82 -33.97,-81.26 -11.57,-50.68 -0.11,-67.93 0.2,-117.83 0.94,-151.56 -31.77,-43.72 -43.39,-172.4 -11.77,-130.33 15.72,-77.27 -24.38,-191.4 -31.4,-89.38 3.11,-112.8 -11.1,-203.8 -14.42,-92.4 -44.46,-42.22 -33.63,-195.07 13.59,-191.83 -13.53,-95.26 -39.06,-182.24 -19.62,-66.87 12.82,-147.48 2.36,-217.98 -17.48,-117.81 -51.54,4.51 -39.59,-170.82 14.5,-212.81 -7.56,-104.42 -37.58,-203.52 -22.16,-73.15 18.62,-136.87 -4.81,-210.44 -26.83,-84.21 -55.91,10.18 -38.86,-179.66 2.82,-31.51 9.5,-72.32 5.86,-101.92 -12.92,-105.04 -11.48,11.06 -30.21,-94.16 -18.31,-102.85 32.67,-118.53 -12.36,-217.11 -87.87,-192.37 33.17,-80.79 -60.75,-368.15 -24.77,-75.78 6.23,-133.96 -5.33,-210.55 -16.83,-111.42 -56.35,-8.9 -39.49,-194.22 14.76,-162.24 9.86,-79.92 -26.52,-188.27l-145.64 -1168.48c-12.04,-350.35 -26.5,-26.13 -43.93,-402.7 -5.95,-128.46 -30.11,-69.36 -43.47,-171.91 -59.45,-456.45 -41.74,-396.8 -198.15,-698.08 -99.11,-190.91 -229.77,-80.5 -324.33,66.34 -2.43,3.77 -27.28,37.85 -28.13,39.28 -26.04,43.54 -5.49,10.51 -22.39,44.97 -72.92,148.71 -55.48,51.67 -78.1,169.53 -57.11,297.41 -65.11,-28.98 -105.48,423.42l-261.39 2860.75c-13.6,176.95 16.59,224.47 -30.49,430.94 -58.59,256.94 -134.92,1507.65 -189.25,1919.13 -24.11,182.58 -93.07,201.58 -94.72,421.18z"/>
  <g id="_2387600183136">
   <path class="fil4" d="M2686.71 12228.43c0.16,-10.12 0.55,-20.36 1.12,-30.84 -20.68,-53.69 -32.54,-111.82 -38.16,-174.06 -2.97,-32.88 -4.58,-64.22 -4.67,-95.88 -33.06,-97.17 -37.95,-169.5 -31.72,-263.35 -34.06,-88.6 -40.32,-172.7 -35.17,-271.2 -7.95,-19.24 -14.93,-39.2 -20.99,-59.84 -28.73,-97.9 -25.11,-161.52 -18.39,-241.86 -34.65,-86.83 -42.22,-185.95 -35.61,-290.8 -7.34,-18.07 -13.89,-36.76 -19.74,-56.09 -24.28,-80.13 -27.31,-140.21 -23.09,-208.04 -45.66,-101.56 -48.62,-217.49 -37.43,-343.32 -8.12,-27.24 -14.13,-55.06 -19.29,-84.02 -11.64,-65.39 -13.01,-119.93 -7.47,-178.35 -39.77,-102.88 -55.62,-196.86 -38.43,-308.37 -3.85,-14 -8.68,-28.39 -12.62,-40.44 -31.84,-97.41 -32.39,-163.17 -27.72,-246.64 -43.46,-98.53 -47.49,-207.21 -36.88,-326.78 -1.92,-5.39 -3.81,-10.84 -5.65,-16.34l-13.7 -40.8 -153.35 -1230.29 -0.66 -19.23c-0.88,-25.82 -1.35,-53.95 -3.01,-81.11 -7.18,-21.54 -12.92,-43.42 -17.56,-65.58l-228.35 2499.15c-4.16,56.97 -1.19,112.09 -1.23,169.07 -0.07,110.91 -13.88,213.54 -38.54,321.66 -20.41,89.53 -28.76,206.44 -38.11,298.4 -18.39,180.96 -33.68,362.39 -48.87,543.65 -22.67,270.59 -40.86,548.37 -69.62,820.84 316.9,-60.16 645.35,-58.03 962.3,5.41 20.83,4.17 41.72,9.23 62.61,15.05z"/>
  </g>
  <path id="outline_1429" class="fil2" d="M244.12 15652.66c12.63,-141.39 26.56,-282.36 40.26,-423.73 5.54,-57.09 9.09,-153.68 21.69,-205.8 17.21,-71.22 30.67,-46.38 46.46,-152.75 47.44,-319.55 104.14,-759.26 256.2,-1071.37l75.54 -148.49c76.25,-145.14 30.31,-84.74 163.62,-261.82 216.19,-287.18 576.21,-472.32 910.87,-555.42 119.07,-29.57 264.31,-12.52 388.66,-12.45 281.72,0.17 428.85,71.45 647.96,159.33 421.35,169 882.91,658.43 1021.57,1119.2 10.55,35.09 124.33,262.22 143.36,413.73 5.39,42.93 -3.32,58.23 3.24,94.36 19.27,106.04 -11.62,-40.23 30.51,66.11 33.5,84.54 -5.43,101.35 13.63,184.42 25.51,111.18 50.82,-4.74 48.72,137.37 -1.02,69.19 -20.79,116.65 -3.78,184.22 20.5,81.43 42.49,15.92 29.79,175.33 -31.78,398.73 20.03,153.68 29.06,338.94 5.12,105.2 -60.08,877.28 -107.73,959.44l-37.38 52.11c-2.59,4.19 -5.39,10.02 -7.94,14.25 -36.52,60.73 22.92,6.53 -44.91,65.77 -263.06,229.69 -1244.11,73.51 -1524.63,128.95 -158.01,31.24 117.01,62.91 -539.55,65.65 -261.96,1.09 -522.25,1.6 -783.7,-1.15 -255.33,-2.7 -216.93,25.55 -325.01,-42.72 -80.36,-50.76 -59.77,-12.19 -148.15,-40.03 -75.2,-23.69 -219.29,-157.41 -271.1,-275.51 -42.69,-97.3 -89,-361.07 -89.9,-438.3 -0.73,-63.31 14.3,-122.51 9.27,-187.55 -10.31,-133.39 -10.52,-186.77 3.37,-342.09zm871.97 -2862.66c1.65,-219.6 70.61,-238.6 94.72,-421.18 54.33,-411.48 130.66,-1662.19 189.25,-1919.13 47.08,-206.47 16.89,-253.99 30.49,-430.94l261.39 -2860.75c40.37,-452.4 48.37,-126.01 105.48,-423.42 22.62,-117.86 5.18,-20.82 78.1,-169.53 16.9,-34.46 -3.65,-1.43 22.39,-44.97 0.85,-1.43 25.7,-35.51 28.13,-39.28 94.56,-146.84 225.22,-257.25 324.33,-66.34 156.41,301.28 138.7,241.63 198.15,698.08 13.36,102.55 37.52,43.45 43.47,171.91 17.43,376.57 31.89,52.35 43.93,402.7l145.64 1168.48c36.38,108.35 41.28,26.03 26.52,188.27 -16.86,185.32 22.66,82.8 39.49,194.22 11.56,76.59 -19.44,134.77 5.33,210.55 93.92,287.36 -27.12,175.78 60.75,368.15 45.03,98.58 -5.95,114.26 12.36,217.11 18.73,105.22 17.29,-10.88 30.21,94.16 3.64,29.6 -3.04,70.41 -5.86,101.92 -17.05,189.84 12.03,95.45 38.86,179.66 23.43,73.57 -17.35,137.29 4.81,210.44 30.02,99.1 52.08,-9.29 37.58,203.52 -11.95,175.33 22.11,53.01 39.59,170.82 10.46,70.5 -21.98,151.11 -2.36,217.98 25.53,86.98 52.65,-9.59 39.06,182.24 -10.83,152.85 19.21,102.67 33.63,195.07 14.21,91 -20.3,114.42 11.1,203.8 40.1,114.13 12.61,61.07 24.38,191.4 11.62,128.68 44.33,20.84 43.39,172.4 -0.31,49.9 -11.77,67.15 -0.2,117.83 14.26,62.44 18,3.89 33.97,81.26 18.49,89.62 -20.25,98.99 23.43,194.79 26.9,58.98 21.28,-20.83 26.95,93.24 12.85,258.69 50.25,121.63 41.25,285.04 -133.76,-5.12 -511.18,-256.41 -705.92,-295.39 -384.74,-77.01 -791.95,-47.25 -1165.72,102.54 -88.13,35.32 -142.5,82.3 -258.07,53.35zm-79.65 -1246.97c-29.72,316.94 -80.5,1238.8 -182.33,1474.11 -50.92,117.67 -134.94,212.96 -213.16,308.42 -91.98,112.24 -228.14,354.75 -263.68,504.98 -28.85,121.93 -39.53,72.77 -72.82,202.2 -50.87,197.75 -94.2,284.31 -104.17,411.88 -14.43,184.64 -125.22,688.67 -141.85,890.25 -13.43,162.85 -30.33,324.57 -45.01,487.27 -33.05,366.15 -27.61,268.98 11.31,532.28 7.19,48.61 0.11,71.51 3.64,116.75 5.2,66.54 6.22,42.8 28.9,81.3 69.46,117.97 53.86,261.36 197.34,382.29 183.48,154.64 166.38,114.15 293.17,178.35 95.46,48.33 12.99,52.25 183.24,53.68 210.92,1.76 72.27,12.5 189.86,51.42 62.59,20.72 468.11,9.75 609.07,9.75 226.13,-0.28 311.47,-53.29 494.44,-64.18 175.4,-10.43 372.61,-3.12 549.87,-4.42l822.32 -6.51c332.72,-68.06 343.86,-6.41 481.15,-96.64 75.65,-49.71 99.64,-25.9 180.81,-107.9 54.17,-54.72 55.44,-77.89 81.38,-124.39 149.87,-268.6 30.97,-138.43 107.14,-276.48 35.83,-64.94 16.42,25.43 45.39,-89.47 9.95,-39.49 12.2,-106.24 15.5,-148.44 24.22,-310.54 46.71,-273.03 -3.35,-499.23 -23.03,-104.06 36.38,-312.88 20.95,-408.53 -12.17,-75.48 -23.57,-26.58 -33.85,-111.43 -12.86,-106.24 38,-171.28 -11.21,-261.12 -75.64,-138.06 -10.71,-105.82 -29.55,-242.26 -14.26,-103.28 -20.26,-0.79 -38.06,-96.92 -9.65,-52.14 8.6,-84.23 -1.28,-135.28 -15.98,-82.5 4.27,4.28 -18.38,-43.16l-82.22 -258.07c-8.1,-81.82 13.47,-43.58 -17.85,-118.66 -1.65,-3.97 -5.08,-8.67 -6.83,-12.6 -1.79,-4.02 -4.95,-8.98 -6.72,-13.07l-65.71 -155.46c-123.69,-322.5 -68.81,-146.96 -136.53,-278.21 -19.3,-37.43 -16.3,-53.44 -44.42,-95.86 -87.68,-132.26 -326,-353.47 -333.55,-512.19 -2.4,-50.52 7.14,-61.91 -3.07,-113.78 -17.06,-86.66 -21.82,-19.74 -31.35,-102.19 -17.04,-147.37 -30.28,-327.65 -70.56,-482.42 -28.88,-110.94 -4.63,-148.42 -23.01,-251.21 -21.8,-121.88 2.09,21.29 -36.26,-80.6 -24.8,-65.88 -8.59,-52.89 -8.69,-133.71 -0.18,-137.79 -43.19,-45.46 -34.51,-232.66 9.79,-211.05 -21.48,-133.31 -38.5,-237.23 -7.56,-46.2 5.42,-94.53 0.62,-140.76 -9.15,-88.04 -20.14,-35.45 -33.69,-97.55 -20.08,-92.12 20.37,-149.27 -14.89,-242.47 -27.15,-71.75 -25.49,21.04 -26.82,-109.15 -2.89,-283.11 -30.86,-67.27 -42.37,-233.62 -3.05,-44.02 4.8,-91.15 0.66,-134.62 -13.85,-145.29 -36.86,-55.55 -31.04,-245.93 4.95,-162.04 -42.39,-76.61 -42.65,-212.17 -0.57,-290.35 -24.51,-77.63 -36.42,-235.43 -3.28,-43.5 10.63,-99.8 8.8,-145.97 -5.26,-132.99 -10.48,-38.01 -35.79,-103.36l-51.67 -477.99c-40.53,-199.8 -20.49,26.93 -30.87,-243.98 -4.12,-107.55 -40.81,-56.78 -43.43,-226.26 -4.18,-269.85 -34.68,-40.17 -33.88,-367.53 0.26,-108.96 -4.96,-43.58 -26.17,-104.86 -28.2,-81.49 3.86,-165.09 -16.45,-259.21l-262.79 -1367.77c-203.58,-411.3 -312.52,-455.11 -536.78,-367.87 -88.42,34.4 -23.99,-7.43 -95.35,57.84 -80.93,74.01 -67.98,77 -135.09,152.77 -99.37,112.19 -42.83,87.67 -114.53,201.88 -77.13,122.87 -27.76,138.61 -79.38,241.99 -87.31,174.87 -26.8,101.42 -56.76,258.88 -31.42,165.06 -53.97,-24.3 -113.32,508.78 -22,197.5 -41.53,395.66 -58.86,593.15 -25.79,293.88 -104.02,901.37 -68.73,1139.86 36.85,248.94 -62.54,862.19 -106.12,1127.29 -62.75,381.71 -97.37,755.71 -133.23,1143.41z"/>
 </g>
</svg>