<?xml version="1.0" encoding="UTF-8"?>
<!DOCTYPE svg PUBLIC "-//W3C//DTD SVG 1.1//EN" "http://www.w3.org/Graphics/SVG/1.1/DTD/svg11.dtd">
<!-- Creator: CorelDRAW (Versión de evaluación) -->
<svg xmlns="http://www.w3.org/2000/svg" xml:space="preserve" width="429px" height="2052px" version="1.1" style="shape-rendering:geometricPrecision; text-rendering:geometricPrecision; image-rendering:optimizeQuality; fill-rule:evenodd; clip-rule:evenodd"
viewBox="0 0 429 2050.8"
 xmlns:xlink="http://www.w3.org/1999/xlink"
 xmlns:xodm="http://www.corel.com/coreldraw/odm/2003">
 <defs>
  <style type="text/css">
   <![CDATA[
    .fil2 {fill:#4B4B4D}
    .fil1 {fill:#F3EDD9}
    .fil0 {fill:#F8FBFF}
   ]]>
  </style>
 </defs>
 <g id="deciduous">
  <metadata id="CorelCorpID_0Corel-Layer"/>
  <polygon id="crown" class="fil0" points="230.33,324.1 257.82,324.1 257.82,326.86 274.33,326.86 274.33,329.61 285.33,329.61 285.33,332.36 301.83,332.36 301.83,335.11 315.58,335.11 315.58,337.86 323.83,337.86 323.83,340.6 329.32,340.6 329.32,343.36 337.58,343.36 337.58,346.11 343.08,346.11 343.08,348.86 348.58,348.86 348.58,351.61 351.33,351.61 351.33,354.36 356.83,354.36 356.83,357.11 359.58,357.11 359.58,359.86 362.33,359.86 362.33,362.61 365.08,362.61 365.08,365.35 367.83,365.35 367.83,368.11 370.57,368.11 370.57,370.86 373.33,370.86 373.33,373.61 376.08,373.61 376.08,376.36 378.83,376.36 378.83,379.11 381.58,379.11 381.58,384.61 384.33,384.61 384.33,390.11 387.08,390.11 387.08,395.61 389.83,395.61 389.83,401.11 392.58,401.11 392.58,409.36 395.33,409.36 395.33,417.61 398.08,417.61 398.08,428.61 400.83,428.61 400.83,450.61 403.58,450.61 403.58,549.61 400.83,549.61 400.83,577.11 398.08,577.11 398.08,593.61 395.33,593.61 395.33,604.61 392.58,604.61 392.58,621.11 389.83,621.11 389.83,632.11 387.08,632.11 387.08,643.11 384.33,643.11 384.33,654.11 381.58,654.11 381.58,667.86 378.83,667.86 378.83,678.86 376.08,678.86 376.08,687.11 373.33,687.11 373.33,698.11 370.57,698.11 370.57,703.61 367.83,703.61 367.83,717.36 365.08,717.36 365.08,722.86 362.33,722.86 362.33,733.86 359.58,733.86 359.58,742.11 356.83,742.11 356.83,753.11 354.07,753.11 354.07,755.86 351.33,755.86 351.33,766.86 348.58,766.86 348.58,772.36 345.82,772.36 345.82,780.61 343.08,780.61 343.08,786.11 340.33,786.11 340.33,791.61 337.58,791.61 337.58,797.11 334.83,797.11 334.83,805.36 332.08,805.36 332.08,808.11 329.32,808.11 329.32,813.61 326.58,813.61 326.58,819.11 323.83,819.11 323.83,824.61 321.07,824.61 321.07,830.11 318.33,830.11 318.33,832.86 315.58,832.86 315.58,838.36 312.82,838.36 312.82,841.11 310.08,841.11 310.08,843.86 307.33,843.86 307.33,849.36 304.57,849.36 304.57,852.11 301.83,852.11 301.83,854.86 299.08,854.86 299.08,857.61 296.32,857.61 296.32,863.11 293.58,863.11 293.58,865.86 290.83,865.86 290.83,868.61 288.07,868.61 288.07,871.36 285.33,871.36 285.33,874.11 279.83,874.11 279.83,876.86 277.08,876.86 277.08,879.61 274.33,879.61 274.33,882.36 271.58,882.36 271.58,885.11 266.08,885.11 266.08,887.86 263.33,887.86 263.33,890.61 257.82,890.61 257.82,893.36 252.33,893.36 252.33,896.11 241.32,896.11 241.32,898.86 205.58,898.86 205.58,896.11 194.58,896.11 194.58,893.36 186.33,893.36 186.33,890.61 183.57,890.61 183.57,887.86 178.08,887.86 178.08,885.11 175.32,885.11 175.32,882.36 169.82,882.36 169.82,879.61 167.07,879.61 167.07,876.86 164.33,876.86 164.33,874.11 161.58,874.11 161.58,871.36 156.08,871.36 156.08,868.61 153.32,868.61 153.32,863.11 150.57,863.11 150.57,860.36 147.83,860.36 147.83,857.61 145.07,857.61 145.07,854.86 142.32,854.86 142.32,852.11 139.58,852.11 139.58,849.36 136.83,849.36 136.83,843.86 134.07,843.86 134.07,841.11 131.33,841.11 131.33,838.36 128.57,838.36 128.57,832.86 125.82,832.86 125.82,830.11 123.08,830.11 123.08,824.61 120.32,824.61 120.32,821.86 117.57,821.86 117.57,816.36 114.83,816.36 114.83,813.61 112.07,813.61 112.07,808.11 109.32,808.11 109.32,802.61 106.58,802.61 106.58,797.11 103.82,797.11 103.82,791.61 101.07,791.61 101.07,786.11 98.33,786.11 98.33,780.61 95.57,780.61 95.57,775.11 92.82,775.11 92.82,769.61 90.08,769.61 90.08,764.11 87.32,764.11 87.32,755.86 84.57,755.86 84.57,750.36 81.82,750.36 81.82,742.11 79.07,742.11 79.07,733.86 76.32,733.86 76.32,728.36 73.58,728.36 73.58,722.86 70.82,722.86 70.82,709.11 68.07,709.11 68.07,706.36 65.33,706.36 65.33,698.11 62.57,698.11 62.57,684.36 59.82,684.36 59.82,676.11 57.07,676.11 57.07,670.61 54.32,670.61 54.32,656.86 51.57,656.86 51.57,645.86 48.83,645.86 48.83,640.36 46.07,640.36 46.07,621.11 43.32,621.11 43.32,612.86 40.57,612.86 40.57,599.11 37.82,599.11 37.82,585.36 35.07,585.36 35.07,566.11 32.32,566.11 32.32,546.86 29.57,546.86 29.57,524.86 26.82,524.86 26.82,502.86 24.07,502.86 24.07,412.11 26.82,412.11 26.82,392.86 29.57,392.86 29.57,384.61 32.32,384.61 32.32,373.61 35.07,373.61 35.07,368.11 37.82,368.11 37.82,362.61 40.57,362.61 40.57,359.86 43.32,359.86 43.32,354.36 46.07,354.36 46.07,351.61 48.83,351.61 48.83,348.86 51.57,348.86 51.57,346.11 57.07,346.11 57.07,343.36 62.57,343.36 62.57,340.6 68.07,340.6 68.07,337.86 76.32,337.86 76.32,335.11 84.57,335.11 84.57,332.36 95.57,332.36 95.57,329.61 112.07,329.61 112.07,326.86 134.07,326.86 134.07,324.1 172.58,324.1 172.58,321.36 230.33,321.36 "/>
  <polygon id="root" class="fil1" points="98.33,835.61 101.07,835.61 101.07,841.11 103.82,841.11 103.82,843.86 106.58,843.86 106.58,849.36 109.32,849.36 109.32,852.11 112.07,852.11 112.07,857.61 114.83,857.61 114.83,860.36 117.57,860.36 117.57,863.11 120.32,863.11 120.32,865.86 123.08,865.86 123.08,871.36 125.82,871.36 125.82,874.11 128.57,874.11 128.57,876.86 131.33,876.86 131.33,879.61 134.07,879.61 134.07,882.36 136.83,882.36 136.83,885.11 139.58,885.11 139.58,887.86 142.32,887.86 142.32,890.61 145.07,890.61 145.07,893.36 147.83,893.36 147.83,896.11 153.32,896.11 153.32,898.86 156.08,898.86 156.08,901.61 158.82,901.61 158.82,904.36 164.33,904.36 164.33,907.11 167.07,907.11 167.07,909.86 172.58,909.86 172.58,912.61 178.08,912.61 178.08,915.36 186.33,915.36 186.33,918.11 191.82,918.11 191.82,920.86 202.83,920.86 202.83,923.61 241.32,923.61 241.32,920.86 249.58,920.86 249.58,918.11 260.58,918.11 260.58,915.36 266.08,915.36 266.08,912.61 271.58,912.61 271.58,909.86 277.08,909.86 277.08,907.11 279.83,907.11 279.83,904.36 285.33,904.36 285.33,901.61 288.07,901.61 288.07,898.86 293.58,898.86 293.58,896.11 296.32,896.11 296.32,893.36 299.08,893.36 299.08,890.61 301.83,890.61 301.83,887.86 304.57,887.86 304.57,885.11 307.33,885.11 307.33,882.36 310.08,882.36 310.08,879.61 312.82,879.61 312.82,876.86 315.58,876.86 315.58,874.11 318.33,874.11 318.33,871.36 321.07,871.36 321.07,865.86 323.83,865.86 323.83,863.11 326.58,863.11 326.58,860.36 329.32,860.36 329.32,854.86 332.08,854.86 332.08,852.11 334.83,852.11 334.83,846.61 337.58,846.61 337.58,843.86 340.33,843.86 340.33,896.11 337.58,896.11 337.58,929.11 334.83,929.11 334.83,1014.36 332.08,1014.36 332.08,1050.11 329.32,1050.11 329.32,1110.61 326.58,1110.61 326.58,1149.11 323.83,1149.11 323.83,1184.86 321.07,1184.86 321.07,1206.86 318.33,1206.86 318.33,1234.36 315.58,1234.36 315.58,1253.61 312.82,1253.61 312.82,1278.36 310.08,1278.36 310.08,1303.11 307.33,1303.11 307.33,1319.61 304.57,1319.61 304.57,1341.61 301.83,1341.61 301.83,1369.11 299.08,1369.11 299.08,1391.11 296.32,1391.11 296.32,1402.12 293.58,1402.12 293.58,1424.11 290.83,1424.11 290.83,1451.62 288.07,1451.62 288.07,1479.12 285.33,1479.12 285.33,1523.11 282.57,1523.11 282.57,1567.12 279.83,1567.12 279.83,1644.12 277.08,1644.12 277.08,1704.62 274.33,1704.62 274.33,1732.12 271.58,1732.12 271.58,1748.62 268.83,1748.62 268.83,1765.12 266.08,1765.12 266.08,1773.37 263.33,1773.37 263.33,1781.62 260.58,1781.62 260.58,1784.37 257.82,1784.37 257.82,1789.87 249.58,1789.87 249.58,1787.12 246.83,1787.12 246.83,1784.37 244.08,1784.37 244.08,1781.62 241.32,1781.62 241.32,1778.87 238.58,1778.87 238.58,1776.12 235.83,1776.12 235.83,1770.62 233.07,1770.62 233.07,1765.12 230.33,1765.12 230.33,1762.37 227.58,1762.37 227.58,1756.87 224.82,1756.87 224.82,1751.37 222.08,1751.37 222.08,1745.87 219.33,1745.87 219.33,1740.37 216.57,1740.37 216.57,1732.12 213.83,1732.12 213.83,1726.62 211.08,1726.62 211.08,1718.37 208.32,1718.37 208.32,1710.12 205.58,1710.12 205.58,1701.87 202.83,1701.87 202.83,1690.87 200.07,1690.87 200.07,1685.37 197.33,1685.37 197.33,1674.37 194.58,1674.37 194.58,1666.12 191.82,1666.12 191.82,1657.87 189.08,1657.87 189.08,1644.12 186.33,1644.12 186.33,1635.87 183.57,1635.87 183.57,1622.12 180.83,1622.12 180.83,1608.37 178.08,1608.37 178.08,1602.87 175.32,1602.87 175.32,1586.37 172.58,1586.37 172.58,1569.87 169.82,1569.87 169.82,1556.12 167.07,1556.12 167.07,1542.37 164.33,1542.37 164.33,1531.36 161.58,1531.36 161.58,1517.62 158.82,1517.62 158.82,1509.37 156.08,1509.37 156.08,1487.37 153.32,1487.37 153.32,1476.36 150.57,1476.36 150.57,1457.11 147.83,1457.11 147.83,1440.61 145.07,1440.61 145.07,1424.11 142.32,1424.11 142.32,1402.12 139.58,1402.12 139.58,1382.86 136.83,1382.86 136.83,1363.62 134.07,1363.62 134.07,1333.36 131.33,1333.36 131.33,1303.11 128.57,1303.11 128.57,1270.11 125.82,1270.11 125.82,1231.61 123.08,1231.61 123.08,1206.86 120.32,1206.86 120.32,1162.86 117.57,1162.86 117.57,1118.86 114.83,1118.86 114.83,1074.86 112.07,1074.86 112.07,1022.61 109.32,1022.61 109.32,978.61 106.58,978.61 106.58,940.11 103.82,940.11 103.82,901.61 101.07,901.61 101.07,868.61 98.33,868.61 98.33,843.86 95.57,843.86 95.57,832.86 98.33,832.86 "/>
  <path id="outline" class="fil2" d="M98.33 868.61l2.74 0 0 33 2.75 0 0 38.5 2.76 0 0 38.5 2.74 0 0 44 2.75 0 0 52.25 2.76 0 0 44 2.74 0 0 44 2.75 0 0 44 2.76 0 0 24.75 2.74 0 0 38.5 2.75 0 0 33 2.76 0 0 30.25 2.74 0 0 30.26 2.76 0 0 19.24 2.75 0 0 19.26 2.74 0 0 21.99 2.75 0 0 16.5 2.76 0 0 16.5 2.74 0 0 19.25 2.75 0 0 11.01 2.76 0 0 22 2.74 0 0 8.25 2.76 0 0 13.74 2.75 0 0 11.01 2.74 0 0 13.75 2.75 0 0 13.75 2.76 0 0 16.5 2.74 0 0 16.5 2.76 0 0 5.5 2.75 0 0 13.75 2.74 0 0 13.75 2.76 0 0 8.25 2.75 0 0 13.75 2.74 0 0 8.25 2.76 0 0 8.25 2.75 0 0 11 2.74 0 0 5.5 2.76 0 0 11 2.75 0 0 8.25 2.74 0 0 8.25 2.76 0 0 8.25 2.75 0 0 5.5 2.74 0 0 8.25 2.76 0 0 5.5 2.75 0 0 5.5 2.74 0 0 5.5 2.76 0 0 5.5 2.75 0 0 2.75 2.74 0 0 5.5 2.76 0 0 5.5 2.75 0 0 2.75 2.74 0 0 2.75 2.76 0 0 2.75 2.75 0 0 2.75 2.75 0 0 2.75 8.24 0 0 -5.5 2.76 0 0 -2.75 2.75 0 0 -8.25 2.75 0 0 -8.25 2.75 0 0 -16.5 2.75 0 0 -16.5 2.75 0 0 -27.5 2.75 0 0 -60.5 2.75 0 0 -77 2.74 0 0 -44.01 2.76 0 0 -43.99 2.74 0 0 -27.5 2.76 0 0 -27.51 2.75 0 0 -21.99 2.74 0 0 -11.01 2.76 0 0 -22 2.75 0 0 -27.5 2.74 0 0 -22 2.76 0 0 -16.5 2.75 0 0 -24.75 2.74 0 0 -24.75 2.76 0 0 -19.25 2.75 0 0 -27.5 2.74 0 0 -22 2.76 0 0 -35.75 2.75 0 0 -38.5 2.74 0 0 -60.5 2.76 0 0 -35.75 2.75 0 0 -85.25 2.75 0 0 -33 2.75 0 0 -52.25 -2.75 0 0 2.75 -2.75 0 0 5.5 -2.75 0 0 2.75 -2.76 0 0 5.5 -2.74 0 0 2.75 -2.75 0 0 2.75 -2.76 0 0 5.5 -2.74 0 0 2.75 -2.75 0 0 2.75 -2.76 0 0 2.75 -2.74 0 0 2.75 -2.75 0 0 2.75 -2.76 0 0 2.75 -2.74 0 0 2.75 -2.75 0 0 2.75 -2.76 0 0 2.75 -2.74 0 0 2.75 -5.51 0 0 2.75 -2.74 0 0 2.75 -5.5 0 0 2.75 -2.75 0 0 2.75 -5.5 0 0 2.75 -5.5 0 0 2.75 -5.5 0 0 2.75 -11 0 0 2.75 -8.26 0 0 2.75 -38.49 0 0 -2.75 -11.01 0 0 -2.75 -5.49 0 0 -2.75 -8.25 0 0 -2.75 -5.5 0 0 -2.75 -5.51 0 0 -2.75 -2.74 0 0 -2.75 -5.51 0 0 -2.75 -2.74 0 0 -2.75 -2.76 0 0 -2.75 -5.49 0 0 -2.75 -2.76 0 0 -2.75 -2.75 0 0 -2.75 -2.74 0 0 -2.75 -2.75 0 0 -2.75 -2.76 0 0 -2.75 -2.74 0 0 -2.75 -2.76 0 0 -2.75 -2.75 0 0 -2.75 -2.74 0 0 -5.5 -2.76 0 0 -2.75 -2.75 0 0 -2.75 -2.74 0 0 -2.75 -2.76 0 0 -5.5 -2.75 0 0 -2.75 -2.74 0 0 -5.5 -2.76 0 0 -2.75 -2.75 0 0 -5.5 -2.74 0 0 -2.75 -2.76 0 0 11 2.76 0 0 24.75zm-71.51 -343.75l2.75 0 0 22 2.75 0 0 19.25 2.75 0 0 19.25 2.75 0 0 13.75 2.75 0 0 13.75 2.75 0 0 8.25 2.75 0 0 19.25 2.76 0 0 5.5 2.74 0 0 11 2.75 0 0 13.75 2.75 0 0 5.5 2.75 0 0 8.25 2.75 0 0 13.75 2.76 0 0 8.25 2.74 0 0 2.75 2.75 0 0 13.75 2.76 0 0 5.5 2.74 0 0 5.5 2.75 0 0 8.25 2.75 0 0 8.25 2.75 0 0 5.5 2.75 0 0 8.25 2.76 0 0 5.5 2.74 0 0 5.5 2.75 0 0 5.5 2.76 0 0 5.5 2.74 0 0 5.5 2.75 0 0 5.5 2.76 0 0 5.5 2.74 0 0 5.5 2.75 0 0 5.5 2.76 0 0 2.75 2.74 0 0 5.5 2.75 0 0 2.75 2.76 0 0 5.5 2.74 0 0 2.75 2.75 0 0 5.5 2.76 0 0 2.75 2.74 0 0 2.75 2.76 0 0 5.5 2.75 0 0 2.75 2.74 0 0 2.75 2.75 0 0 2.75 2.76 0 0 2.75 2.74 0 0 2.75 2.75 0 0 5.5 2.76 0 0 2.75 5.5 0 0 2.75 2.75 0 0 2.75 2.74 0 0 2.75 2.75 0 0 2.75 5.5 0 0 2.75 2.76 0 0 2.75 5.49 0 0 2.75 2.76 0 0 2.75 8.25 0 0 2.75 11 0 0 2.75 35.74 0 0 -2.75 11.01 0 0 -2.75 5.49 0 0 -2.75 5.51 0 0 -2.75 2.75 0 0 -2.75 5.5 0 0 -2.75 2.75 0 0 -2.75 2.75 0 0 -2.75 2.75 0 0 -2.75 5.5 0 0 -2.75 2.74 0 0 -2.75 2.76 0 0 -2.75 2.75 0 0 -2.75 2.74 0 0 -5.5 2.76 0 0 -2.75 2.75 0 0 -2.75 2.74 0 0 -2.75 2.76 0 0 -5.5 2.75 0 0 -2.75 2.74 0 0 -2.75 2.76 0 0 -5.5 2.75 0 0 -2.75 2.74 0 0 -5.5 2.76 0 0 -5.5 2.75 0 0 -5.5 2.74 0 0 -5.5 2.76 0 0 -2.75 2.75 0 0 -8.25 2.75 0 0 -5.5 2.75 0 0 -5.5 2.75 0 0 -5.5 2.74 0 0 -8.25 2.76 0 0 -5.5 2.75 0 0 -11 2.74 0 0 -2.75 2.76 0 0 -11 2.75 0 0 -8.25 2.75 0 0 -11 2.75 0 0 -5.5 2.75 0 0 -13.75 2.74 0 0 -5.5 2.76 0 0 -11 2.75 0 0 -8.25 2.75 0 0 -11 2.75 0 0 -13.75 2.75 0 0 -11 2.75 0 0 -11 2.75 0 0 -11 2.75 0 0 -16.5 2.75 0 0 -11 2.75 0 0 -16.5 2.75 0 0 -27.5 2.75 0 0 -99 -2.75 0 0 -22 -2.75 0 0 -11 -2.75 0 0 -8.25 -2.75 0 0 -8.25 -2.75 0 0 -5.5 -2.75 0 0 -5.5 -2.75 0 0 -5.5 -2.75 0 0 -5.5 -2.75 0 0 -2.75 -2.75 0 0 -2.75 -2.75 0 0 -2.75 -2.76 0 0 -2.75 -2.74 0 0 -2.76 -2.75 0 0 -2.74 -2.75 0 0 -2.75 -2.75 0 0 -2.75 -2.75 0 0 -2.75 -5.5 0 0 -2.75 -2.75 0 0 -2.75 -5.5 0 0 -2.75 -5.5 0 0 -2.75 -8.26 0 0 -2.76 -5.49 0 0 -2.74 -8.25 0 0 -2.75 -13.75 0 0 -2.75 -16.5 0 0 -2.75 -11 0 0 -2.75 -16.51 0 0 -2.76 -27.49 0 0 -2.74 -57.75 0 0 2.74 -38.51 0 0 2.76 -22 0 0 2.75 -16.5 0 0 2.75 -11 0 0 2.75 -8.25 0 0 2.75 -8.25 0 0 2.74 -5.5 0 0 2.76 -5.5 0 0 2.75 -5.5 0 0 2.75 -2.74 0 0 2.75 -2.76 0 0 2.75 -2.75 0 0 5.5 -2.75 0 0 2.75 -2.75 0 0 5.5 -2.75 0 0 5.5 -2.75 0 0 11 -2.75 0 0 8.25 -2.75 0 0 19.25 -2.75 0 0 90.75 2.75 0 0 22zm220.01 -222.75l27.5 0 0 2.75 19.25 0 0 2.75 10.99 0 0 2.75 8.25 0 0 2.75 8.25 0 0 2.74 11.01 0 0 2.76 8.25 0 0 2.75 5.49 0 0 2.74 8.25 0 0 2.76 2.76 0 0 2.75 5.5 0 0 2.75 5.5 0 0 2.75 2.74 0 0 2.75 5.51 0 0 2.74 2.75 0 0 2.76 2.75 0 0 2.75 5.5 0 0 5.5 2.75 0 0 2.75 2.75 0 0 2.75 2.75 0 0 5.5 2.75 0 0 2.74 2.75 0 0 5.51 2.75 0 0 2.75 2.75 0 0 5.5 2.75 0 0 8.25 2.75 0 0 5.5 2.75 0 0 8.25 2.75 0 0 5.5 2.75 0 0 13.75 2.75 0 0 8.25 2.75 0 0 27.5 2.75 0 0 90.75 -2.75 0 0 24.75 -2.75 0 0 16.5 -2.75 0 0 19.25 -2.75 0 0 13.75 -2.75 0 0 13.75 -2.75 0 0 5.5 -2.75 0 0 13.75 -2.75 0 0 13.75 -2.75 0 0 8.25 -2.75 0 0 11 -2.75 0 0 13.75 -2.75 0 0 5.5 -2.75 0 0 13.75 -2.75 0 0 8.25 -2.75 0 0 8.25 -2.75 0 0 5.5 -2.75 0 0 8.25 -2.75 0 0 13.75 -2.75 0 0 5.5 -2.75 0 0 5.5 -2.76 0 0 19.25 -2.74 0 0 24.75 -2.75 0 0 44 -2.75 0 0 41.25 -2.75 0 0 60.5 -2.75 0 0 77 -2.76 0 0 63.25 -2.74 0 0 33 -2.75 0 0 35.75 -2.76 0 0 24.75 -2.74 0 0 27.5 -2.75 0 0 24.75 -2.75 0 0 19.25 -2.75 0 0 27.5 -2.75 0 0 27.5 -2.76 0 0 22 -2.74 0 0 11 -2.75 0 0 30.25 -2.76 0 0 11 -2.74 0 0 30.26 -2.75 0 0 19.24 -2.76 0 0 27.5 -2.74 0 0 35.76 -2.75 0 0 57.75 -2.76 0 0 41.25 -2.74 0 0 71.5 -2.75 0 0 33 -2.76 0 0 33 -2.74 0 0 13.75 -2.75 0 0 13.75 -2.76 0 0 8.25 -2.74 0 0 5.5 -2.76 0 0 5.5 -2.74 0 0 2.75 -2.75 0 0 5.5 -5.5 0 0 2.75 -2.75 0 0 2.75 -5.5 0 0 2.75 -22.01 0 0 -2.75 -5.49 0 0 -2.75 -5.5 0 0 -2.75 -2.75 0 0 -2.75 -2.76 0 0 -2.75 -2.74 0 0 -2.75 -2.75 0 0 -5.5 -2.76 0 0 -2.75 -2.74 0 0 -5.5 -2.75 0 0 -2.75 -2.76 0 0 -5.5 -2.74 0 0 -5.5 -2.75 0 0 -8.25 -2.76 0 0 -5.5 -2.74 0 0 -5.5 -2.75 0 0 -8.25 -2.76 0 0 -8.25 -2.74 0 0 -5.5 -2.75 0 0 -5.5 -2.76 0 0 -8.25 -2.74 0 0 -8.25 -2.75 0 0 -11 -2.76 0 0 -11 -2.74 0 0 -8.25 -2.76 0 0 -11 -2.75 0 0 -8.25 -2.74 0 0 -11 -2.75 0 0 -11 -2.76 0 0 -13.75 -2.74 0 0 -8.25 -2.76 0 0 -11 -2.75 0 0 -16.5 -2.74 0 0 -11 -2.76 0 0 -11 -2.75 0 0 -16.5 -2.74 0 0 -16.5 -2.75 0 0 -8.25 -2.76 0 0 -19.25 -2.74 0 0 -16.5 -2.76 0 0 -22 -2.75 0 0 -13.76 -2.74 0 0 -19.24 -2.76 0 0 -22.01 -2.75 0 0 -10.99 -2.74 0 0 -27.51 -2.76 0 0 -16.5 -2.75 0 0 -21.99 -2.74 0 0 -24.76 -2.76 0 0 -35.75 -2.75 0 0 -46.75 -2.74 0 0 -22 -2.76 0 0 -68.75 -2.75 0 0 -33 -2.74 0 0 -63.25 -2.76 0 0 -35.75 -2.75 0 0 -27.5 -2.75 0 0 -38.5 -2.75 0 0 -44 -2.75 0 0 -27.5 -2.74 0 0 -33 -2.76 0 0 -22 -2.75 0 0 -19.25 -2.74 0 0 -19.25 -2.76 0 0 -8.25 -2.75 0 0 -5.5 -2.75 0 0 -8.25 -2.75 0 0 -8.25 -2.75 0 0 -8.25 -2.74 0 0 -8.25 -2.76 0 0 -8.25 -2.75 0 0 -5.5 -2.75 0 0 -13.75 -2.75 0 0 -8.25 -2.75 0 0 -5.5 -2.75 0 0 -8.25 -2.75 0 0 -13.75 -2.75 0 0 -11 -2.75 0 0 -11 -2.75 0 0 -13.75 -2.75 0 0 -11 -2.75 0 0 -13.75 -2.75 0 0 -11 -2.75 0 0 -19.25 -2.74 0 0 -27.5 -2.76 0 0 -24.75 -2.75 0 0 -22.01 -2.75 0 0 -76.99 2.75 0 0 -11 2.75 0 0 -22 2.76 0 0 -8.25 2.74 0 0 -8.25 2.75 0 0 -8.25 2.75 0 0 -8.25 2.75 0 0 -2.75 2.75 0 0 -5.5 2.75 0 0 -2.76 2.75 0 0 -2.74 2.75 0 0 -2.75 2.75 0 0 -2.75 2.75 0 0 -2.75 2.75 0 0 -2.75 2.75 0 0 -2.76 5.5 0 0 -2.74 5.5 0 0 -2.75 5.5 0 0 -2.76 5.5 0 0 -2.74 8.25 0 0 -2.75 11 0 0 -2.75 16.51 0 0 -2.75 16.5 0 0 -2.75 22 0 0 -2.76 110 0 0 2.76z"/>
 </g>
</svg>
