<?xml version="1.0" encoding="UTF-8"?>
<!DOCTYPE svg PUBLIC "-//W3C//DTD SVG 1.1//EN" "http://www.w3.org/Graphics/SVG/1.1/DTD/svg11.dtd">
<!-- Creator: CorelDRAW (Versión de evaluación) -->
<svg xmlns="http://www.w3.org/2000/svg" xml:space="preserve" width="875px" height="2052px" version="1.1" style="shape-rendering:geometricPrecision; text-rendering:geometricPrecision; image-rendering:optimizeQuality; fill-rule:evenodd; clip-rule:evenodd"
viewBox="0 0 875 2051.96"
 xmlns:xlink="http://www.w3.org/1999/xlink"
 xmlns:xodm="http://www.corel.com/coreldraw/odm/2003">
 <defs>
  <style type="text/css">
   <![CDATA[
    .fil2 {fill:#060806}
    .fil0 {fill:#F3EDD9}
    .fil1 {fill:#F8FBFF}
   ]]>
  </style>
 </defs>
 <g id="deciduous">
  <metadata id="CorelCorpID_0Corel-Layer"/>
  <polygon id="root" class="fil0" points="750.76,830.84 748.01,830.84 748.01,847.35 745.26,847.35 745.26,874.87 742.51,874.87 742.51,960.16 745.26,960.16 745.26,995.93 748.01,995.93 748.01,1012.44 750.76,1012.44 750.76,1034.46 753.51,1034.46 753.51,1050.96 756.26,1050.96 756.26,1061.97 759.02,1061.97 759.02,1078.48 761.77,1078.48 761.77,1094.99 764.52,1094.99 764.52,1106 767.27,1106 767.27,1117 770.02,1117 770.02,1128.01 772.77,1128.01 772.77,1139.02 775.53,1139.02 775.53,1150.02 778.28,1150.02 778.28,1163.78 781.03,1163.78 781.03,1172.03 783.78,1172.03 783.78,1183.04 786.53,1183.04 786.53,1188.54 789.28,1188.54 789.28,1202.3 792.03,1202.3 792.03,1210.56 794.79,1210.56 794.79,1218.81 797.54,1218.81 797.54,1229.82 800.29,1229.82 800.29,1243.58 803.04,1243.58 803.04,1249.08 805.79,1249.08 805.79,1260.09 808.55,1260.09 808.55,1268.34 811.3,1268.34 811.3,1282.1 814.05,1282.1 814.05,1293.1 816.8,1293.1 816.8,1304.11 819.55,1304.11 819.55,1309.62 822.3,1309.62 822.3,1326.12 825.05,1326.12 825.05,1337.13 827.81,1337.13 827.81,1345.38 830.56,1345.38 830.56,1364.65 833.31,1364.65 833.31,1381.15 836.06,1381.15 836.06,1392.16 838.81,1392.16 838.81,1403.17 841.56,1403.17 841.56,1425.18 844.32,1425.18 844.32,1436.19 847.07,1436.19 847.07,1452.69 849.82,1452.69 849.82,1491.22 852.57,1491.22 852.57,1573.77 849.82,1573.77 849.82,1609.53 847.07,1609.53 847.07,1628.8 844.32,1628.8 844.32,1645.31 841.56,1645.31 841.56,1656.31 838.81,1656.31 838.81,1667.32 836.06,1667.32 836.06,1678.33 833.31,1678.33 833.31,1683.83 830.56,1683.83 830.56,1692.08 827.81,1692.08 827.81,1697.59 825.05,1697.59 825.05,1703.09 822.3,1703.09 822.3,1705.84 819.55,1705.84 819.55,1708.59 816.8,1708.59 816.8,1711.34 814.05,1711.34 814.05,1714.1 792.03,1714.1 792.03,1711.34 786.53,1711.34 786.53,1708.59 781.03,1708.59 781.03,1705.84 778.28,1705.84 778.28,1703.09 775.53,1703.09 775.53,1700.34 772.77,1700.34 772.77,1697.59 770.02,1697.59 770.02,1694.84 767.27,1694.84 767.27,1689.33 764.52,1689.33 764.52,1686.58 761.77,1686.58 761.77,1683.83 759.02,1683.83 759.02,1678.33 756.26,1678.33 756.26,1672.82 753.51,1672.82 753.51,1670.07 750.76,1670.07 750.76,1664.57 748.01,1664.57 748.01,1659.06 745.26,1659.06 745.26,1653.56 742.51,1653.56 742.51,1648.06 739.75,1648.06 739.75,1639.81 737,1639.81 737,1634.3 734.25,1634.3 734.25,1628.8 731.5,1628.8 731.5,1620.54 728.75,1620.54 728.75,1612.29 726,1612.29 726,1606.79 723.24,1606.79 723.24,1598.53 720.5,1598.53 720.5,1590.28 717.74,1590.28 717.74,1582.02 714.99,1582.02 714.99,1576.52 712.24,1576.52 712.24,1568.26 709.49,1568.26 709.49,1560.01 706.74,1560.01 706.74,1551.75 703.99,1551.75 703.99,1540.75 701.23,1540.75 701.23,1535.24 698.48,1535.24 698.48,1524.24 695.73,1524.24 695.73,1515.98 692.98,1515.98 692.98,1507.73 690.23,1507.73 690.23,1499.47 687.48,1499.47 687.48,1491.22 684.72,1491.22 684.72,1482.96 681.97,1482.96 681.97,1474.71 679.22,1474.71 679.22,1466.46 676.47,1466.46 676.47,1455.45 673.72,1455.45 673.72,1447.19 670.97,1447.19 670.97,1441.69 668.21,1441.69 668.21,1436.19 665.46,1436.19 665.46,1422.43 662.71,1422.43 662.71,1419.68 659.96,1419.68 659.96,1408.67 657.21,1408.67 657.21,1403.17 654.46,1403.17 654.46,1394.91 651.7,1394.91 651.7,1386.66 648.95,1386.66 648.95,1378.4 646.2,1378.4 646.2,1372.9 643.45,1372.9 643.45,1364.65 640.7,1364.65 640.7,1359.14 637.95,1359.14 637.95,1353.64 635.2,1353.64 635.2,1348.14 632.44,1348.14 632.44,1339.88 629.69,1339.88 629.69,1334.38 626.94,1334.38 626.94,1328.87 624.19,1328.87 624.19,1323.37 621.44,1323.37 621.44,1317.87 618.69,1317.87 618.69,1312.36 615.93,1312.36 615.93,1306.86 613.18,1306.86 613.18,1301.36 610.43,1301.36 610.43,1295.86 607.68,1295.86 607.68,1290.35 604.93,1290.35 604.93,1284.85 602.18,1284.85 602.18,1279.34 599.42,1279.34 599.42,1273.84 596.67,1273.84 596.67,1268.34 593.92,1268.34 593.92,1262.84 591.17,1262.84 591.17,1257.33 588.42,1257.33 588.42,1251.83 585.67,1251.83 585.67,1246.33 582.91,1246.33 582.91,1243.58 580.16,1243.58 580.16,1238.07 577.41,1238.07 577.41,1232.57 574.66,1232.57 574.66,1227.07 571.91,1227.07 571.91,1221.56 569.16,1221.56 569.16,1218.81 566.4,1218.81 566.4,1213.31 563.65,1213.31 563.65,1207.81 560.9,1207.81 560.9,1205.05 558.15,1205.05 558.15,1199.55 555.4,1199.55 555.4,1194.05 552.65,1194.05 552.65,1191.3 549.89,1191.3 549.89,1185.79 547.15,1185.79 547.15,1180.29 544.39,1180.29 544.39,1177.54 541.64,1177.54 541.64,1172.03 538.89,1172.03 538.89,1169.28 536.14,1169.28 536.14,1163.78 533.39,1163.78 533.39,1161.03 530.64,1161.03 530.64,1155.52 527.88,1155.52 527.88,1150.02 525.13,1150.02 525.13,1147.27 522.38,1147.27 522.38,1141.77 519.63,1141.77 519.63,1139.02 516.88,1139.02 516.88,1133.51 514.13,1133.51 514.13,1130.76 511.37,1130.76 511.37,1128.01 508.62,1128.01 508.62,1125.26 505.87,1125.26 505.87,1119.76 503.12,1119.76 503.12,1117 500.37,1117 500.37,1114.25 497.62,1114.25 497.62,1111.5 494.86,1111.5 494.86,1108.75 492.11,1108.75 492.11,1106 489.36,1106 489.36,1103.25 486.61,1103.25 486.61,1100.49 483.86,1100.49 483.86,1097.74 478.36,1097.74 478.36,1094.99 475.6,1094.99 475.6,1092.24 470.1,1092.24 470.1,1089.49 467.35,1089.49 467.35,1086.74 461.84,1086.74 461.84,1083.98 453.59,1083.98 453.59,1081.23 426.07,1081.23 426.07,1083.98 423.32,1083.98 423.32,1086.74 417.82,1086.74 417.82,1089.49 412.32,1089.49 412.32,1092.24 409.56,1092.24 409.56,1094.99 406.81,1094.99 406.81,1097.74 404.06,1097.74 404.06,1100.49 401.31,1100.49 401.31,1103.25 398.56,1103.25 398.56,1106 395.81,1106 395.81,1108.75 393.05,1108.75 393.05,1111.5 390.31,1111.5 390.31,1117 387.55,1117 387.55,1119.76 384.8,1119.76 384.8,1125.26 382.05,1125.26 382.05,1130.76 379.3,1130.76 379.3,1136.27 376.55,1136.27 376.55,1141.77 373.8,1141.77 373.8,1147.27 371.04,1147.27 371.04,1152.77 368.29,1152.77 368.29,1158.28 365.54,1158.28 365.54,1166.53 362.79,1166.53 362.79,1174.79 360.04,1174.79 360.04,1183.04 357.29,1183.04 357.29,1188.54 354.53,1188.54 354.53,1199.55 351.78,1199.55 351.78,1207.81 349.03,1207.81 349.03,1218.81 346.28,1218.81 346.28,1232.57 343.53,1232.57 343.53,1243.58 340.78,1243.58 340.78,1260.09 338.02,1260.09 338.02,1276.6 335.27,1276.6 335.27,1298.61 332.52,1298.61 332.52,1315.12 329.77,1315.12 329.77,1405.92 332.52,1405.92 332.52,1452.69 335.27,1452.69 335.27,1480.21 338.02,1480.21 338.02,1502.22 340.78,1502.22 340.78,1524.24 343.53,1524.24 343.53,1535.24 346.28,1535.24 346.28,1554.5 349.03,1554.5 349.03,1568.26 351.78,1568.26 351.78,1576.52 354.53,1576.52 354.53,1595.78 357.29,1595.78 357.29,1606.79 360.04,1606.79 360.04,1615.04 362.79,1615.04 362.79,1634.3 365.54,1634.3 365.54,1645.31 368.29,1645.31 368.29,1653.56 371.04,1653.56 371.04,1667.32 373.8,1667.32 373.8,1683.83 376.55,1683.83 376.55,1700.34 379.3,1700.34 379.3,1749.87 376.55,1749.87 376.55,1758.12 373.8,1758.12 373.8,1763.63 371.04,1763.63 371.04,1766.38 368.29,1766.38 368.29,1771.88 362.79,1771.88 362.79,1774.63 338.02,1774.63 338.02,1771.88 329.77,1771.88 329.77,1769.13 324.27,1769.13 324.27,1766.38 318.76,1766.38 318.76,1763.63 316.01,1763.63 316.01,1760.87 310.51,1760.87 310.51,1758.12 307.76,1758.12 307.76,1755.37 305.01,1755.37 305.01,1752.62 302.25,1752.62 302.25,1749.87 299.5,1749.87 299.5,1747.12 296.75,1747.12 296.75,1744.36 294,1744.36 294,1741.61 291.25,1741.61 291.25,1738.86 288.5,1738.86 288.5,1736.11 285.74,1736.11 285.74,1733.36 282.99,1733.36 282.99,1730.61 280.24,1730.61 280.24,1727.85 277.49,1727.85 277.49,1722.35 274.74,1722.35 274.74,1719.6 271.99,1719.6 271.99,1716.85 269.23,1716.85 269.23,1711.34 266.48,1711.34 266.48,1708.59 263.73,1708.59 263.73,1705.84 260.98,1705.84 260.98,1700.34 258.23,1700.34 258.23,1697.59 255.48,1697.59 255.48,1692.08 252.72,1692.08 252.72,1689.33 249.98,1689.33 249.98,1683.83 247.22,1683.83 247.22,1681.08 244.47,1681.08 244.47,1675.57 241.72,1675.57 241.72,1670.07 238.97,1670.07 238.97,1667.32 236.21,1667.32 236.21,1661.82 233.46,1661.82 233.46,1656.31 230.71,1656.31 230.71,1650.81 227.96,1650.81 227.96,1645.31 225.21,1645.31 225.21,1639.81 222.46,1639.81 222.46,1637.05 219.7,1637.05 219.7,1628.8 216.96,1628.8 216.96,1623.29 214.2,1623.29 214.2,1617.79 211.45,1617.79 211.45,1612.29 208.7,1612.29 208.7,1606.79 205.95,1606.79 205.95,1601.28 203.2,1601.28 203.2,1595.78 200.45,1595.78 200.45,1587.52 197.69,1587.52 197.69,1579.27 194.94,1579.27 194.94,1576.52 192.19,1576.52 192.19,1568.26 189.44,1568.26 189.44,1562.76 186.69,1562.76 186.69,1554.5 183.94,1554.5 183.94,1546.25 181.18,1546.25 181.18,1540.75 178.43,1540.75 178.43,1532.49 175.68,1532.49 175.68,1526.99 172.93,1526.99 172.93,1515.98 170.18,1515.98 170.18,1510.48 167.43,1510.48 167.43,1502.22 164.67,1502.22 164.67,1493.97 161.92,1493.97 161.92,1485.71 159.17,1485.71 159.17,1474.71 156.42,1474.71 156.42,1466.46 153.67,1466.46 153.67,1460.95 150.92,1460.95 150.92,1449.95 148.17,1449.95 148.17,1438.94 145.41,1438.94 145.41,1433.44 142.66,1433.44 142.66,1419.68 139.91,1419.68 139.91,1414.17 137.16,1414.17 137.16,1400.42 134.41,1400.42 134.41,1389.41 131.65,1389.41 131.65,1378.4 128.9,1378.4 128.9,1367.4 126.15,1367.4 126.15,1348.14 123.4,1348.14 123.4,1326.12 120.65,1326.12 120.65,1306.86 117.9,1306.86 117.9,1290.35 115.15,1290.35 115.15,1117 117.9,1117 117.9,1100.49 120.65,1100.49 120.65,1056.47 123.4,1056.47 123.4,921.64 120.65,921.64 120.65,891.38 117.9,891.38 117.9,880.37 115.15,880.37 115.15,855.6 112.39,855.6 112.39,839.09 109.64,839.09 109.64,833.59 106.89,833.59 106.89,825.34 112.39,825.34 112.39,828.09 115.15,828.09 115.15,830.84 120.65,830.84 120.65,833.59 123.4,833.59 123.4,836.34 128.9,836.34 128.9,839.09 137.16,839.09 137.16,841.85 142.66,841.85 142.66,844.6 156.42,844.6 156.42,847.35 194.94,847.35 194.94,850.1 241.72,850.1 241.72,852.85 258.23,852.85 258.23,855.6 266.48,855.6 266.48,858.36 285.74,858.36 285.74,861.11 296.75,861.11 296.75,863.86 313.26,863.86 313.26,866.61 329.77,866.61 329.77,869.36 351.78,869.36 351.78,872.11 448.09,872.11 448.09,869.36 472.85,869.36 472.85,866.61 486.61,866.61 486.61,863.86 500.37,863.86 500.37,861.11 516.88,861.11 516.88,858.36 533.39,858.36 533.39,855.6 566.4,855.6 566.4,852.85 629.69,852.85 629.69,850.1 657.21,850.1 657.21,847.35 673.72,847.35 673.72,844.6 690.23,844.6 690.23,841.85 701.23,841.85 701.23,839.09 706.74,839.09 706.74,836.34 714.99,836.34 714.99,833.59 723.24,833.59 723.24,830.84 728.75,830.84 728.75,828.09 734.25,828.09 734.25,825.34 739.75,825.34 739.75,822.58 742.51,822.58 742.51,819.83 748.01,819.83 748.01,817.08 750.76,817.08 "/>
  <path id="crown" class="fil1" d="M194.94 332.81l5.51 0 0 2.74 8.25 0 0 2.76 8.26 0 0 2.75 5.5 0 0 2.75 5.5 0 0 2.75 5.5 0 0 2.75 2.75 0 0 2.75 5.51 0 0 2.76 5.5 0 0 2.75 5.5 0 0 2.75 5.51 0 0 2.75 5.5 0 0 2.75 5.5 0 0 2.75 5.51 0 0 2.76 5.5 0 0 2.75 8.26 0 0 2.75 5.5 0 0 2.75 5.5 0 0 2.75 8.26 0 0 2.75 5.5 0 0 2.76 8.25 0 0 2.75 5.51 0 0 2.75 8.25 0 0 2.75 5.51 0 0 2.75 5.5 0 0 2.75 5.5 0 0 2.76 5.51 0 0 2.75 5.5 0 0 2.75 5.5 0 0 2.75 2.75 0 0 2.75 5.51 0 0 2.75 2.75 0 0 2.76 2.75 0 0 2.75 2.75 0 0 2.75 5.51 0 0 5.5 2.74 0 0 2.75 2.76 0 0 2.75 2.75 0 0 11.01 -2.75 0 0 11.01 -2.76 0 0 57.78 2.76 0 0 11.01 2.75 0 0 5.5 5.5 0 0 -49.53 2.75 0 0 -16.51 2.75 0 0 -8.25 2.76 0 0 -8.26 2.75 0 0 -5.5 2.75 0 0 -5.5 2.75 0 0 -2.76 2.75 0 0 -2.75 2.75 0 0 -5.5 2.76 0 0 -2.75 5.5 0 0 -2.75 2.75 0 0 -2.75 5.5 0 0 -2.76 5.51 0 0 -2.75 11 0 0 -2.75 8.26 0 0 -2.75 8.25 0 0 -2.75 8.26 0 0 -2.75 8.25 0 0 -2.76 11.01 0 0 -2.75 5.5 0 0 -2.75 8.26 0 0 -2.75 5.5 0 0 -2.75 8.26 0 0 -2.75 5.5 0 0 -2.76 5.5 0 0 -2.75 5.51 0 0 -2.75 5.5 0 0 -2.75 8.25 0 0 -2.75 5.5 0 0 -2.75 5.51 0 0 -2.76 5.5 0 0 -2.75 11.01 0 0 -2.75 11 0 0 -2.75 44.03 0 0 2.75 5.5 0 0 2.75 8.26 0 0 2.75 5.5 0 0 2.76 5.5 0 0 2.75 2.76 0 0 2.75 5.5 0 0 2.75 2.75 0 0 2.75 2.75 0 0 2.75 2.75 0 0 2.76 2.76 0 0 2.75 2.75 0 0 2.75 2.75 0 0 2.75 2.75 0 0 5.5 2.75 0 0 2.76 2.75 0 0 5.5 2.76 0 0 2.75 2.75 0 0 5.5 2.75 0 0 5.51 2.75 0 0 5.5 2.75 0 0 5.5 2.75 0 0 5.51 2.76 0 0 5.5 2.74 0 0 5.5 2.76 0 0 5.5 2.75 0 0 8.26 2.75 0 0 8.25 2.75 0 0 5.51 2.75 0 0 13.76 2.75 0 0 8.25 2.76 0 0 2.75 2.75 0 0 -19.26 -2.75 0 0 -11.01 -2.76 0 0 -24.76 -2.75 0 0 -5.5 -2.75 0 0 -11.01 -2.75 0 0 -5.5 -2.75 0 0 -8.26 -2.75 0 0 -8.25 -2.76 0 0 -5.5 -2.74 0 0 -5.51 -2.76 0 0 -2.75 -2.75 0 0 -5.5 -2.75 0 0 -2.75 -2.75 0 0 -5.51 -2.75 0 0 -2.75 -2.75 0 0 -2.75 -2.76 0 0 -2.75 -2.75 0 0 -2.75 -2.75 0 0 -2.76 -2.75 0 0 -2.75 -2.75 0 0 -2.75 -2.75 0 0 -2.75 -2.76 0 0 -2.75 -2.75 0 0 -2.75 -5.5 0 0 -2.76 -2.75 0 0 -2.75 -5.51 0 0 -2.75 -2.75 0 0 -2.75 -8.25 0 0 -2.75 2.75 0 0 -2.75 5.5 0 0 -2.76 16.51 0 0 -2.74 46.78 0 0 2.74 8.25 0 0 2.76 5.51 0 0 2.75 5.5 0 0 2.75 5.5 0 0 2.75 5.51 0 0 2.75 2.75 0 0 2.75 2.75 0 0 2.76 5.5 0 0 2.75 2.75 0 0 2.75 2.76 0 0 2.75 2.75 0 0 2.75 2.75 0 0 2.75 2.75 0 0 2.76 2.75 0 0 5.5 2.75 0 0 2.75 2.75 0 0 5.5 2.76 0 0 2.76 2.75 0 0 5.5 2.75 0 0 5.5 2.75 0 0 5.51 2.75 0 0 5.5 2.76 0 0 8.25 2.75 0 0 8.26 2.75 0 0 8.25 2.75 0 0 5.51 2.75 0 0 11 2.75 0 0 16.51 2.75 0 0 8.26 2.76 0 0 24.76 2.75 0 0 55.03 -2.75 0 0 13.76 -2.76 0 0 19.26 -2.75 0 0 11.01 -2.75 0 0 16.51 -2.75 0 0 8.25 -2.75 0 0 11.01 -2.75 0 0 8.25 -2.75 0 0 8.26 -2.76 0 0 8.25 -2.75 0 0 8.26 -2.75 0 0 5.5 -2.75 0 0 8.25 -2.75 0 0 8.26 -2.76 0 0 8.25 -2.75 0 0 8.26 -2.75 0 0 8.25 -2.75 0 0 5.51 -2.75 0 0 8.25 -2.75 0 0 8.25 -2.75 0 0 5.51 -2.76 0 0 8.25 -2.75 0 0 5.51 -2.75 0 0 5.5 -2.75 0 0 5.5 -2.75 0 0 5.51 -2.75 0 0 2.75 -2.76 0 0 5.5 -2.75 0 0 2.75 -2.75 0 0 2.75 -2.75 0 0 2.76 -2.75 0 0 2.75 -2.75 0 0 2.75 -2.76 0 0 2.75 -5.5 0 0 2.75 -2.75 0 0 2.75 -5.5 0 0 2.76 -5.5 0 0 2.75 -5.51 0 0 2.75 -5.5 0 0 2.75 -8.26 0 0 2.75 -11 0 0 2.75 -13.76 0 0 2.75 -11.01 0 0 2.76 -22.01 0 0 2.75 -55.03 0 0 2.75 -41.27 0 0 2.75 -19.27 0 0 2.75 -22.01 0 0 2.75 -16.51 0 0 2.76 -11 0 0 2.75 -22.02 0 0 2.75 -33.02 0 0 2.75 -60.53 0 0 -2.75 -19.26 0 0 -2.75 -22.02 0 0 -2.75 -5.5 0 0 -2.76 -22.01 0 0 -2.75 -11.01 0 0 -2.75 -16.51 0 0 -2.75 -22.01 0 0 -2.75 -16.51 0 0 -2.75 -68.79 0 0 -2.76 -11 0 0 -2.75 -5.51 0 0 -2.75 -5.5 0 0 -2.75 -5.51 0 0 -2.75 -2.75 0 0 -2.75 -5.5 0 0 -2.75 -2.75 0 0 -2.76 -2.75 0 0 -2.75 -2.75 0 0 -2.75 -2.76 0 0 -2.75 -2.75 0 0 -5.5 -2.75 0 0 -2.76 -2.75 0 0 -2.75 -2.75 0 0 -2.75 -2.75 0 0 -5.5 -2.76 0 0 -5.51 -2.75 0 0 -5.5 -2.75 0 0 -5.5 -2.75 0 0 -5.51 -2.75 0 0 -5.5 -2.75 0 0 -5.5 -2.76 0 0 -8.26 -2.75 0 0 -5.5 -2.75 0 0 -8.25 -2.75 0 0 -5.51 -2.75 0 0 -5.5 -2.75 0 0 -11.01 -2.76 0 0 -5.5 -2.74 0 0 -8.25 -2.76 0 0 -5.51 -2.75 0 0 -8.25 -2.75 0 0 -8.26 -2.75 0 0 -8.25 -2.75 0 0 -5.5 -2.75 0 0 -8.26 -2.76 0 0 -13.76 -2.75 0 0 -8.25 -2.75 0 0 -13.76 -2.75 0 0 -8.26 -2.75 0 0 -19.26 -2.75 0 0 -16.5 -2.76 0 0 -60.54 2.76 0 0 -11.01 2.75 0 0 -16.51 2.75 0 0 -11 2.75 0 0 -5.51 2.75 0 0 -8.25 2.75 0 0 -8.25 2.76 0 0 -5.51 2.75 0 0 -5.5 2.75 0 0 -5.5 2.75 0 0 -5.51 2.75 0 0 -5.5 2.75 0 0 -2.75 2.76 0 0 -5.5 2.74 0 0 -2.76 2.76 0 0 -5.5 2.75 0 0 -2.75 2.75 0 0 -2.75 2.75 0 0 -5.51 2.75 0 0 -2.75 2.75 0 0 -2.75 2.76 0 0 -2.75 2.75 0 0 -2.75 2.75 0 0 -2.75 2.75 0 0 -2.76 2.75 0 0 -5.5 5.51 0 0 -2.75 2.75 0 0 -2.75 2.75 0 0 -2.75 2.75 0 0 -2.76 2.75 0 0 -2.75 5.51 0 0 -2.75 2.75 0 0 -2.75 5.5 0 0 -2.75 2.75 0 0 -2.75 5.5 0 0 -2.76 5.51 0 0 -2.74 8.25 0 0 -2.76 49.53 0 0 2.76zm398.98 -52.29l11.01 0 0 2.76 5.5 0 0 2.75 5.5 0 0 2.75 5.51 0 0 2.75 5.5 0 0 2.75 2.75 0 0 2.75 5.51 0 0 2.76 2.75 0 0 2.75 5.5 0 0 2.75 2.75 0 0 2.75 5.5 0 0 2.75 2.76 0 0 2.75 5.5 0 0 2.76 2.75 0 0 2.75 2.75 0 0 2.75 -5.5 0 0 2.75 -5.5 0 0 2.75 -8.26 0 0 2.75 -2.75 0 0 2.76 -8.25 0 0 2.74 -41.28 0 0 2.76 -11.01 0 0 2.75 -5.5 0 0 2.75 -8.25 0 0 2.75 -5.51 0 0 2.75 -5.5 0 0 2.75 -5.5 0 0 2.76 -5.5 0 0 2.75 -5.51 0 0 2.75 -8.25 0 0 2.75 -5.51 0 0 2.75 -5.5 0 0 2.75 -5.5 0 0 2.76 -8.26 0 0 2.75 -8.25 0 0 2.75 -11.01 0 0 2.75 -5.5 0 0 2.75 -8.26 0 0 2.75 -5.5 0 0 2.76 -11.01 0 0 2.75 -8.25 0 0 2.75 -8.26 0 0 2.75 -5.5 0 0 2.75 -5.5 0 0 2.75 -5.51 0 0 2.76 -2.75 0 0 2.75 -5.5 0 0 2.75 -2.75 0 0 2.75 -2.75 0 0 2.75 -5.51 0 0 -2.75 -2.75 0 0 -2.75 -2.75 0 0 -2.75 -2.75 0 0 -2.75 -2.75 0 0 -2.76 -2.76 0 0 -2.75 -5.5 0 0 -2.75 -2.75 0 0 -2.75 -5.5 0 0 -2.75 -5.5 0 0 -2.75 -2.76 0 0 -2.76 -5.5 0 0 -2.75 -5.5 0 0 -2.75 -5.51 0 0 -2.75 -8.25 0 0 -2.75 -5.5 0 0 -2.75 -5.51 0 0 -2.76 -5.5 0 0 -2.75 -5.5 0 0 -2.75 -8.26 0 0 -2.75 -8.25 0 0 -2.75 -5.51 0 0 -2.75 -5.5 0 0 -2.76 -5.5 0 0 -2.75 -8.26 0 0 -2.75 -5.5 0 0 -2.75 -5.5 0 0 -2.75 -5.51 0 0 -2.75 -5.5 0 0 -2.76 -5.5 0 0 -2.74 -5.5 0 0 -2.76 -5.51 0 0 -2.75 -2.75 0 0 -2.75 -8.26 0 0 -2.75 -5.5 0 0 -2.75 -5.5 0 0 -2.75 -8.26 0 0 -2.76 -8.25 0 0 -2.75 -13.76 0 0 -2.75 -19.26 0 0 -2.75 5.5 0 0 -2.75 5.51 0 0 -2.75 5.5 0 0 -2.76 8.25 0 0 -2.75 5.51 0 0 -2.75 11 0 0 -2.75 38.52 0 0 2.75 8.26 0 0 2.75 5.5 0 0 2.75 8.26 0 0 2.76 5.5 0 0 2.75 5.5 0 0 2.75 5.51 0 0 2.75 5.5 0 0 2.75 5.5 0 0 2.75 5.51 0 0 2.76 5.5 0 0 2.75 5.5 0 0 2.75 8.26 0 0 2.75 5.5 0 0 2.75 8.26 0 0 2.75 8.25 0 0 2.76 8.26 0 0 2.74 8.25 0 0 2.76 5.5 0 0 2.75 16.51 0 0 2.75 8.26 0 0 2.75 5.5 0 0 2.75 2.75 0 0 2.75 5.5 0 0 2.76 2.76 0 0 2.75 2.75 0 0 2.75 2.75 0 0 2.75 5.5 0 0 2.75 2.75 0 0 2.75 2.76 0 0 2.76 2.75 0 0 2.75 2.75 0 0 2.75 2.75 0 0 5.5 2.75 0 0 2.75 5.51 0 0 -16.51 -2.76 0 0 -5.5 -2.75 0 0 -2.75 -2.75 0 0 -2.75 -2.75 0 0 -2.75 -2.75 0 0 -2.76 -2.75 0 0 -2.75 -2.76 0 0 -2.75 -2.75 0 0 -2.75 -2.75 0 0 -2.75 -2.75 0 0 -2.75 8.25 0 0 -2.76 8.26 0 0 -2.74 5.5 0 0 -2.76 8.26 0 0 -2.75 8.25 0 0 -2.75 8.26 0 0 -2.75 5.5 0 0 -2.75 5.5 0 0 -2.75 5.51 0 0 -2.76 8.25 0 0 -2.75 2.75 0 0 -2.75 8.26 0 0 -2.75 5.5 0 0 -2.75 5.5 0 0 -2.75 5.51 0 0 -2.76 5.5 0 0 -2.75 8.26 0 0 -2.75 5.5 0 0 -2.75 5.5 0 0 -2.75 8.25 0 0 -2.75 8.26 0 0 -2.76 8.25 0 0 -2.75 27.52 0 0 2.75z"/>
  <path id="outline" class="fil2" d="M750.76 817.08l-2.75 0 0 2.75 -5.5 0 0 2.75 -2.76 0 0 2.76 -5.5 0 0 2.75 -5.5 0 0 2.75 -5.51 0 0 2.75 -8.25 0 0 2.75 -8.25 0 0 2.75 -5.51 0 0 2.76 -11 0 0 2.75 -16.51 0 0 2.75 -16.51 0 0 2.75 -27.52 0 0 2.75 -63.29 0 0 2.75 -33.01 0 0 2.76 -16.51 0 0 2.75 -16.51 0 0 2.75 -13.76 0 0 2.75 -13.76 0 0 2.75 -24.76 0 0 2.75 -96.31 0 0 -2.75 -22.01 0 0 -2.75 -16.51 0 0 -2.75 -16.51 0 0 -2.75 -11.01 0 0 -2.75 -19.26 0 0 -2.76 -8.25 0 0 -2.75 -16.51 0 0 -2.75 -46.78 0 0 -2.75 -38.52 0 0 -2.75 -13.76 0 0 -2.75 -5.5 0 0 -2.76 -8.26 0 0 -2.75 -5.5 0 0 -2.75 -2.75 0 0 -2.75 -5.5 0 0 -2.75 -2.76 0 0 -2.75 -5.5 0 0 8.25 2.75 0 0 5.5 2.75 0 0 16.51 2.76 0 0 24.77 2.75 0 0 11.01 2.75 0 0 30.26 2.75 0 0 134.83 -2.75 0 0 44.02 -2.75 0 0 16.51 -2.75 0 0 173.35 2.75 0 0 16.51 2.75 0 0 19.26 2.75 0 0 22.02 2.75 0 0 19.26 2.75 0 0 11 2.75 0 0 11.01 2.76 0 0 11.01 2.75 0 0 13.75 2.75 0 0 5.51 2.75 0 0 13.76 2.75 0 0 5.5 2.76 0 0 11.01 2.75 0 0 11 2.75 0 0 5.51 2.75 0 0 8.25 2.75 0 0 11 2.75 0 0 8.26 2.75 0 0 8.25 2.76 0 0 8.26 2.75 0 0 5.5 2.75 0 0 11.01 2.75 0 0 5.5 2.75 0 0 8.26 2.75 0 0 5.5 2.76 0 0 8.25 2.75 0 0 8.26 2.75 0 0 5.5 2.75 0 0 8.26 2.75 0 0 2.75 2.75 0 0 8.25 2.76 0 0 8.26 2.75 0 0 5.5 2.75 0 0 5.51 2.75 0 0 5.5 2.75 0 0 5.5 2.75 0 0 5.5 2.76 0 0 5.51 2.74 0 0 8.25 2.76 0 0 2.76 2.75 0 0 5.5 2.75 0 0 5.5 2.75 0 0 5.5 2.75 0 0 5.51 2.75 0 0 5.5 2.76 0 0 2.75 2.75 0 0 5.5 2.75 0 0 5.51 2.75 0 0 2.75 2.76 0 0 5.5 2.74 0 0 2.75 2.76 0 0 5.51 2.75 0 0 2.75 2.75 0 0 5.5 2.75 0 0 2.75 2.75 0 0 2.75 2.75 0 0 5.51 2.76 0 0 2.75 2.75 0 0 2.75 2.75 0 0 5.5 2.75 0 0 2.76 2.75 0 0 2.75 2.75 0 0 2.75 2.76 0 0 2.75 2.75 0 0 2.75 2.75 0 0 2.75 2.75 0 0 2.76 2.75 0 0 2.75 2.75 0 0 2.75 2.76 0 0 2.75 2.75 0 0 2.75 2.75 0 0 2.75 5.5 0 0 2.76 2.75 0 0 2.75 5.51 0 0 2.75 5.5 0 0 2.75 8.25 0 0 2.75 24.77 0 0 -2.75 5.5 0 0 -5.5 2.75 0 0 -2.75 2.76 0 0 -5.51 2.75 0 0 -8.25 2.75 0 0 -49.53 -2.75 0 0 -16.51 -2.75 0 0 -16.51 -2.76 0 0 -13.76 -2.75 0 0 -8.25 -2.75 0 0 -11.01 -2.75 0 0 -19.26 -2.75 0 0 -8.25 -2.75 0 0 -11.01 -2.76 0 0 -19.26 -2.75 0 0 -8.26 -2.75 0 0 -13.76 -2.75 0 0 -19.26 -2.75 0 0 -11 -2.75 0 0 -22.02 -2.76 0 0 -22.01 -2.75 0 0 -27.52 -2.75 0 0 -46.77 -2.75 0 0 -90.8 2.75 0 0 -16.51 2.75 0 0 -22.01 2.75 0 0 -16.51 2.76 0 0 -16.51 2.75 0 0 -11.01 2.75 0 0 -13.76 2.75 0 0 -11 2.75 0 0 -8.26 2.75 0 0 -11.01 2.76 0 0 -5.5 2.75 0 0 -8.25 2.75 0 0 -8.26 2.75 0 0 -8.25 2.75 0 0 -5.51 2.75 0 0 -5.5 2.76 0 0 -5.5 2.75 0 0 -5.5 2.75 0 0 -5.51 2.75 0 0 -5.5 2.75 0 0 -5.5 2.75 0 0 -2.76 2.76 0 0 -5.5 2.74 0 0 -2.75 2.76 0 0 -2.75 2.75 0 0 -2.75 2.75 0 0 -2.76 2.75 0 0 -2.75 2.75 0 0 -2.75 2.75 0 0 -2.75 2.76 0 0 -2.75 5.5 0 0 -2.75 5.5 0 0 -2.76 2.75 0 0 -2.75 27.52 0 0 2.75 8.25 0 0 2.76 5.51 0 0 2.75 2.75 0 0 2.75 5.5 0 0 2.75 2.76 0 0 2.75 5.5 0 0 2.75 2.75 0 0 2.76 2.75 0 0 2.75 2.75 0 0 2.75 2.75 0 0 2.75 2.76 0 0 2.75 2.75 0 0 2.75 2.75 0 0 2.76 2.75 0 0 5.5 2.75 0 0 2.75 2.75 0 0 2.75 2.76 0 0 2.75 2.75 0 0 5.51 2.75 0 0 2.75 2.75 0 0 5.5 2.75 0 0 2.75 2.75 0 0 5.5 2.76 0 0 5.51 2.75 0 0 2.75 2.75 0 0 5.5 2.75 0 0 2.75 2.75 0 0 5.51 2.75 0 0 2.75 2.76 0 0 5.5 2.74 0 0 5.51 2.76 0 0 2.75 2.75 0 0 5.5 2.75 0 0 5.5 2.75 0 0 2.76 2.75 0 0 5.5 2.75 0 0 5.5 2.76 0 0 2.75 2.75 0 0 5.51 2.75 0 0 5.5 2.75 0 0 5.5 2.75 0 0 5.51 2.75 0 0 2.75 2.76 0 0 5.5 2.75 0 0 5.5 2.75 0 0 5.51 2.75 0 0 5.5 2.75 0 0 5.5 2.75 0 0 5.5 2.76 0 0 5.51 2.75 0 0 5.5 2.75 0 0 5.51 2.75 0 0 5.5 2.75 0 0 5.5 2.75 0 0 5.5 2.76 0 0 5.51 2.75 0 0 5.5 2.75 0 0 5.5 2.75 0 0 5.51 2.75 0 0 5.5 2.75 0 0 8.26 2.76 0 0 5.5 2.75 0 0 5.5 2.75 0 0 5.51 2.75 0 0 8.25 2.75 0 0 5.5 2.75 0 0 8.26 2.75 0 0 8.25 2.76 0 0 8.26 2.75 0 0 5.5 2.75 0 0 11.01 2.75 0 0 2.75 2.75 0 0 13.76 2.75 0 0 5.5 2.76 0 0 5.5 2.75 0 0 8.26 2.75 0 0 11.01 2.75 0 0 8.25 2.75 0 0 8.25 2.75 0 0 8.26 2.76 0 0 8.25 2.75 0 0 8.26 2.75 0 0 8.25 2.75 0 0 8.26 2.75 0 0 11 2.75 0 0 5.51 2.76 0 0 11 2.75 0 0 8.26 2.75 0 0 8.25 2.75 0 0 8.26 2.75 0 0 5.5 2.75 0 0 8.26 2.76 0 0 8.25 2.74 0 0 8.26 2.76 0 0 5.5 2.75 0 0 8.25 2.75 0 0 8.26 2.75 0 0 5.5 2.75 0 0 5.51 2.75 0 0 8.25 2.76 0 0 5.5 2.75 0 0 5.5 2.75 0 0 5.51 2.75 0 0 5.5 2.75 0 0 2.75 2.75 0 0 5.51 2.76 0 0 5.5 2.75 0 0 2.75 2.75 0 0 2.75 2.75 0 0 5.51 2.75 0 0 2.75 2.75 0 0 2.75 2.76 0 0 2.75 2.75 0 0 2.75 2.75 0 0 2.75 5.5 0 0 2.75 5.5 0 0 2.76 22.02 0 0 -2.76 2.75 0 0 -2.75 2.75 0 0 -2.75 2.75 0 0 -2.75 2.75 0 0 -5.5 2.76 0 0 -5.51 2.75 0 0 -8.25 2.75 0 0 -5.5 2.75 0 0 -11.01 2.75 0 0 -11.01 2.75 0 0 -11 2.76 0 0 -16.51 2.75 0 0 -19.27 2.75 0 0 -35.76 2.75 0 0 -82.55 -2.75 0 0 -38.53 -2.75 0 0 -16.5 -2.75 0 0 -11.01 -2.76 0 0 -22.01 -2.75 0 0 -11.01 -2.75 0 0 -11.01 -2.75 0 0 -16.5 -2.75 0 0 -19.27 -2.75 0 0 -8.25 -2.76 0 0 -11.01 -2.75 0 0 -16.5 -2.75 0 0 -5.51 -2.75 0 0 -11.01 -2.75 0 0 -11 -2.75 0 0 -13.76 -2.75 0 0 -8.25 -2.76 0 0 -11.01 -2.75 0 0 -5.5 -2.75 0 0 -13.76 -2.75 0 0 -11.01 -2.75 0 0 -8.25 -2.76 0 0 -8.26 -2.75 0 0 -13.76 -2.75 0 0 -5.5 -2.75 0 0 -11.01 -2.75 0 0 -8.25 -2.75 0 0 -13.76 -2.75 0 0 -11 -2.76 0 0 -11.01 -2.75 0 0 -11.01 -2.75 0 0 -11 -2.75 0 0 -11.01 -2.75 0 0 -16.51 -2.75 0 0 -16.51 -2.76 0 0 -11.01 -2.75 0 0 -16.5 -2.75 0 0 -22.02 -2.75 0 0 -16.51 -2.75 0 0 -35.77 -2.75 0 0 -85.29 2.75 0 0 -27.52 2.75 0 0 -16.51 2.75 0 0 -13.76zm-85.3 -470.52l2.75 0 0 2.75 5.51 0 0 2.75 2.75 0 0 2.76 5.5 0 0 2.75 2.75 0 0 2.75 2.76 0 0 2.75 2.75 0 0 2.75 2.75 0 0 2.75 2.75 0 0 2.76 2.75 0 0 2.75 2.75 0 0 2.75 2.76 0 0 2.75 2.75 0 0 2.75 2.75 0 0 5.51 2.75 0 0 2.75 2.75 0 0 5.5 2.75 0 0 2.75 2.76 0 0 5.51 2.74 0 0 5.5 2.76 0 0 8.25 2.75 0 0 8.26 2.75 0 0 5.5 2.75 0 0 11.01 2.75 0 0 5.5 2.75 0 0 24.76 2.76 0 0 11.01 2.75 0 0 19.26 -2.75 0 0 -2.75 -2.76 0 0 -8.25 -2.75 0 0 -13.76 -2.75 0 0 -5.51 -2.75 0 0 -8.25 -2.75 0 0 -8.26 -2.75 0 0 -5.5 -2.76 0 0 -5.5 -2.74 0 0 -5.5 -2.76 0 0 -5.51 -2.75 0 0 -5.5 -2.75 0 0 -5.5 -2.75 0 0 -5.51 -2.75 0 0 -5.5 -2.75 0 0 -2.75 -2.76 0 0 -5.5 -2.75 0 0 -2.76 -2.75 0 0 -5.5 -2.75 0 0 -2.75 -2.75 0 0 -2.75 -2.75 0 0 -2.75 -2.76 0 0 -2.76 -2.75 0 0 -2.75 -2.75 0 0 -2.75 -2.75 0 0 -2.75 -5.5 0 0 -2.75 -2.76 0 0 -2.75 -5.5 0 0 -2.76 -5.5 0 0 -2.75 -8.26 0 0 -2.75 -5.5 0 0 -2.75 -44.03 0 0 2.75 -11 0 0 2.75 -11.01 0 0 2.75 -5.5 0 0 2.76 -5.51 0 0 2.75 -5.5 0 0 2.75 -8.25 0 0 2.75 -5.5 0 0 2.75 -5.51 0 0 2.75 -5.5 0 0 2.76 -5.5 0 0 2.75 -8.26 0 0 2.75 -5.5 0 0 2.75 -8.26 0 0 2.75 -5.5 0 0 2.75 -11.01 0 0 2.76 -8.25 0 0 2.75 -8.26 0 0 2.75 -8.25 0 0 2.75 -8.26 0 0 2.75 -11 0 0 2.75 -5.51 0 0 2.76 -5.5 0 0 2.75 -2.75 0 0 2.75 -5.5 0 0 2.75 -2.76 0 0 5.5 -2.75 0 0 2.75 -2.75 0 0 2.76 -2.75 0 0 5.5 -2.75 0 0 5.5 -2.75 0 0 8.26 -2.76 0 0 8.25 -2.75 0 0 16.51 -2.75 0 0 49.53 -5.5 0 0 -5.5 -2.75 0 0 -11.01 -2.76 0 0 -57.78 2.76 0 0 -11.01 2.75 0 0 -11.01 -2.75 0 0 -2.75 -2.76 0 0 -2.75 -2.74 0 0 -5.5 -5.51 0 0 -2.75 -2.75 0 0 -2.75 -2.75 0 0 -2.76 -2.75 0 0 -2.75 -5.51 0 0 -2.75 -2.75 0 0 -2.75 -5.5 0 0 -2.75 -5.5 0 0 -2.75 -5.51 0 0 -2.76 -5.5 0 0 -2.75 -5.5 0 0 -2.75 -5.51 0 0 -2.75 -8.25 0 0 -2.75 -5.51 0 0 -2.75 -8.25 0 0 -2.76 -5.5 0 0 -2.75 -8.26 0 0 -2.75 -5.5 0 0 -2.75 -5.5 0 0 -2.75 -8.26 0 0 -2.75 -5.5 0 0 -2.76 -5.51 0 0 -2.75 -5.5 0 0 -2.75 -5.5 0 0 -2.75 -5.51 0 0 -2.75 -5.5 0 0 -2.75 -5.5 0 0 -2.76 -5.51 0 0 -2.75 -2.75 0 0 -2.75 -5.5 0 0 -2.75 -5.5 0 0 -2.75 -5.5 0 0 -2.75 -8.26 0 0 -2.76 -8.25 0 0 -2.74 -5.51 0 0 -2.76 -49.53 0 0 2.76 -8.25 0 0 2.74 -5.51 0 0 2.76 -5.5 0 0 2.75 -2.75 0 0 2.75 -5.5 0 0 2.75 -2.75 0 0 2.75 -5.51 0 0 2.75 -2.75 0 0 2.76 -2.75 0 0 2.75 -2.75 0 0 2.75 -2.75 0 0 2.75 -5.51 0 0 5.5 -2.75 0 0 2.76 -2.75 0 0 2.75 -2.75 0 0 2.75 -2.75 0 0 2.75 -2.76 0 0 2.75 -2.75 0 0 2.75 -2.75 0 0 5.51 -2.75 0 0 2.75 -2.75 0 0 2.75 -2.75 0 0 5.5 -2.76 0 0 2.76 -2.74 0 0 5.5 -2.76 0 0 2.75 -2.75 0 0 5.5 -2.75 0 0 5.51 -2.75 0 0 5.5 -2.75 0 0 5.5 -2.75 0 0 5.51 -2.76 0 0 8.25 -2.75 0 0 8.25 -2.75 0 0 5.51 -2.75 0 0 11 -2.75 0 0 16.51 -2.75 0 0 11.01 -2.76 0 0 60.54 2.76 0 0 16.5 2.75 0 0 19.26 2.75 0 0 8.26 2.75 0 0 13.76 2.75 0 0 8.25 2.75 0 0 13.76 2.76 0 0 8.26 2.75 0 0 5.5 2.75 0 0 8.25 2.75 0 0 8.26 2.75 0 0 8.25 2.75 0 0 5.51 2.76 0 0 8.25 2.74 0 0 5.5 2.76 0 0 11.01 2.75 0 0 5.5 2.75 0 0 5.51 2.75 0 0 8.25 2.75 0 0 5.5 2.75 0 0 8.26 2.76 0 0 5.5 2.75 0 0 5.5 2.75 0 0 5.51 2.75 0 0 5.5 2.75 0 0 5.5 2.75 0 0 5.51 2.76 0 0 5.5 2.75 0 0 2.75 2.75 0 0 2.75 2.75 0 0 2.76 2.75 0 0 5.5 2.75 0 0 2.75 2.76 0 0 2.75 2.75 0 0 2.75 2.75 0 0 2.76 2.75 0 0 2.75 5.5 0 0 2.75 2.75 0 0 2.75 5.51 0 0 2.75 5.5 0 0 2.75 5.51 0 0 2.75 11 0 0 2.76 68.79 0 0 2.75 16.51 0 0 2.75 22.01 0 0 2.75 16.51 0 0 2.75 11.01 0 0 2.75 22.01 0 0 2.76 5.5 0 0 2.75 22.02 0 0 2.75 19.26 0 0 2.75 60.53 0 0 -2.75 33.02 0 0 -2.75 22.02 0 0 -2.75 11 0 0 -2.76 16.51 0 0 -2.75 22.01 0 0 -2.75 19.27 0 0 -2.75 41.27 0 0 -2.75 55.03 0 0 -2.75 22.01 0 0 -2.76 11.01 0 0 -2.75 13.76 0 0 -2.75 11 0 0 -2.75 8.26 0 0 -2.75 5.5 0 0 -2.75 5.51 0 0 -2.75 5.5 0 0 -2.76 5.5 0 0 -2.75 2.75 0 0 -2.75 5.5 0 0 -2.75 2.76 0 0 -2.75 2.75 0 0 -2.75 2.75 0 0 -2.76 2.75 0 0 -2.75 2.75 0 0 -2.75 2.75 0 0 -5.5 2.76 0 0 -2.75 2.75 0 0 -5.51 2.75 0 0 -5.5 2.75 0 0 -5.5 2.75 0 0 -5.51 2.75 0 0 -8.25 2.76 0 0 -5.51 2.75 0 0 -8.25 2.75 0 0 -8.25 2.75 0 0 -5.51 2.75 0 0 -8.25 2.75 0 0 -8.26 2.75 0 0 -8.25 2.76 0 0 -8.26 2.75 0 0 -8.25 2.75 0 0 -5.5 2.75 0 0 -8.26 2.75 0 0 -8.25 2.76 0 0 -8.26 2.75 0 0 -8.25 2.75 0 0 -11.01 2.75 0 0 -8.25 2.75 0 0 -16.51 2.75 0 0 -11.01 2.75 0 0 -19.26 2.76 0 0 -13.76 2.75 0 0 -55.03 -2.75 0 0 -24.76 -2.76 0 0 -8.26 -2.75 0 0 -16.51 -2.75 0 0 -11 -2.75 0 0 -5.51 -2.75 0 0 -8.25 -2.75 0 0 -8.26 -2.75 0 0 -8.25 -2.76 0 0 -5.5 -2.75 0 0 -5.51 -2.75 0 0 -5.5 -2.75 0 0 -5.5 -2.75 0 0 -2.76 -2.76 0 0 -5.5 -2.75 0 0 -2.75 -2.75 0 0 -5.5 -2.75 0 0 -2.76 -2.75 0 0 -2.75 -2.75 0 0 -2.75 -2.75 0 0 -2.75 -2.76 0 0 -2.75 -2.75 0 0 -2.75 -5.5 0 0 -2.76 -2.75 0 0 -2.75 -2.75 0 0 -2.75 -5.51 0 0 -2.75 -5.5 0 0 -2.75 -5.5 0 0 -2.75 -5.51 0 0 -2.76 -8.25 0 0 -2.74 -46.78 0 0 2.74 -16.51 0 0 2.76 -5.5 0 0 2.75 -2.75 0 0 2.75 8.25 0 0 2.75zm-473.27 -35.77l13.76 0 0 2.75 8.25 0 0 2.76 8.26 0 0 2.75 5.5 0 0 2.75 5.5 0 0 2.75 8.26 0 0 2.75 2.75 0 0 2.75 5.51 0 0 2.76 5.5 0 0 2.74 5.5 0 0 2.76 5.5 0 0 2.75 5.51 0 0 2.75 5.5 0 0 2.75 5.5 0 0 2.75 8.26 0 0 2.75 5.5 0 0 2.76 5.5 0 0 2.75 5.51 0 0 2.75 8.25 0 0 2.75 8.26 0 0 2.75 5.5 0 0 2.75 5.5 0 0 2.76 5.51 0 0 2.75 5.5 0 0 2.75 8.25 0 0 2.75 5.51 0 0 2.75 5.5 0 0 2.75 5.5 0 0 2.76 2.76 0 0 2.75 5.5 0 0 2.75 5.5 0 0 2.75 2.75 0 0 2.75 5.5 0 0 2.75 2.76 0 0 2.76 2.75 0 0 2.75 2.75 0 0 2.75 2.75 0 0 2.75 2.75 0 0 2.75 5.51 0 0 -2.75 2.75 0 0 -2.75 2.75 0 0 -2.75 5.5 0 0 -2.75 2.75 0 0 -2.76 5.51 0 0 -2.75 5.5 0 0 -2.75 5.5 0 0 -2.75 8.26 0 0 -2.75 8.25 0 0 -2.75 11.01 0 0 -2.76 5.5 0 0 -2.75 8.26 0 0 -2.75 5.5 0 0 -2.75 11.01 0 0 -2.75 8.25 0 0 -2.75 8.26 0 0 -2.76 5.5 0 0 -2.75 5.5 0 0 -2.75 5.51 0 0 -2.75 8.25 0 0 -2.75 5.51 0 0 -2.75 5.5 0 0 -2.76 5.5 0 0 -2.75 5.5 0 0 -2.75 5.51 0 0 -2.75 8.25 0 0 -2.75 5.5 0 0 -2.75 11.01 0 0 -2.76 41.28 0 0 -2.74 8.25 0 0 -2.76 2.75 0 0 -2.75 8.26 0 0 -2.75 5.5 0 0 -2.75 5.5 0 0 -2.75 -2.75 0 0 -2.75 -2.75 0 0 -2.76 -5.5 0 0 -2.75 -2.76 0 0 -2.75 -5.5 0 0 -2.75 -2.75 0 0 -2.75 -5.5 0 0 -2.75 -2.75 0 0 -2.76 -5.51 0 0 -2.75 -2.75 0 0 -2.75 -5.5 0 0 -2.75 -5.51 0 0 -2.75 -5.5 0 0 -2.75 -5.5 0 0 -2.76 -11.01 0 0 -2.75 -27.52 0 0 2.75 -8.25 0 0 2.76 -8.26 0 0 2.75 -8.25 0 0 2.75 -5.5 0 0 2.75 -5.5 0 0 2.75 -8.26 0 0 2.75 -5.5 0 0 2.76 -5.51 0 0 2.75 -5.5 0 0 2.75 -5.5 0 0 2.75 -8.26 0 0 2.75 -2.75 0 0 2.75 -8.25 0 0 2.76 -5.51 0 0 2.75 -5.5 0 0 2.75 -5.5 0 0 2.75 -8.26 0 0 2.75 -8.25 0 0 2.75 -8.26 0 0 2.76 -5.5 0 0 2.74 -8.26 0 0 2.76 -8.25 0 0 2.75 2.75 0 0 2.75 2.75 0 0 2.75 2.75 0 0 2.75 2.76 0 0 2.75 2.75 0 0 2.76 2.75 0 0 2.75 2.75 0 0 2.75 2.75 0 0 2.75 2.75 0 0 5.5 2.76 0 0 16.51 -5.51 0 0 -2.75 -2.75 0 0 -5.5 -2.75 0 0 -2.75 -2.75 0 0 -2.75 -2.75 0 0 -2.76 -2.76 0 0 -2.75 -2.75 0 0 -2.75 -5.5 0 0 -2.75 -2.75 0 0 -2.75 -2.75 0 0 -2.75 -2.76 0 0 -2.76 -5.5 0 0 -2.75 -2.75 0 0 -2.75 -5.5 0 0 -2.75 -8.26 0 0 -2.75 -16.51 0 0 -2.75 -5.5 0 0 -2.76 -8.25 0 0 -2.74 -8.26 0 0 -2.76 -8.25 0 0 -2.75 -8.26 0 0 -2.75 -5.5 0 0 -2.75 -8.26 0 0 -2.75 -5.5 0 0 -2.75 -5.5 0 0 -2.76 -5.51 0 0 -2.75 -5.5 0 0 -2.75 -5.5 0 0 -2.75 -5.51 0 0 -2.75 -5.5 0 0 -2.75 -5.5 0 0 -2.76 -8.26 0 0 -2.75 -5.5 0 0 -2.75 -8.26 0 0 -2.75 -38.52 0 0 2.75 -11 0 0 2.75 -5.51 0 0 2.75 -8.25 0 0 2.76 -5.5 0 0 2.75 -5.51 0 0 2.75 -5.5 0 0 2.75 19.26 0 0 2.75zm404.48 -55.03l11.01 0 0 2.75 8.25 0 0 2.75 5.51 0 0 2.76 5.5 0 0 2.75 5.5 0 0 2.75 2.76 0 0 2.75 5.5 0 0 2.75 5.5 0 0 2.75 2.75 0 0 2.75 5.51 0 0 2.76 2.75 0 0 2.75 5.5 0 0 2.75 2.75 0 0 2.75 5.51 0 0 2.75 5.5 0 0 2.75 5.5 0 0 2.76 2.75 0 0 2.75 5.51 0 0 2.75 5.5 0 0 2.75 19.26 0 0 2.75 19.26 0 0 2.75 11.01 0 0 2.76 5.5 0 0 2.75 8.26 0 0 2.75 5.5 0 0 2.75 5.5 0 0 2.75 2.75 0 0 2.75 2.76 0 0 2.76 5.5 0 0 2.74 2.75 0 0 2.76 2.75 0 0 2.75 5.5 0 0 2.75 2.76 0 0 2.75 2.75 0 0 2.75 2.75 0 0 5.51 2.75 0 0 2.75 2.75 0 0 2.75 2.76 0 0 5.5 2.75 0 0 2.75 2.75 0 0 5.51 2.75 0 0 5.5 2.75 0 0 2.75 2.75 0 0 5.51 2.75 0 0 5.5 2.76 0 0 8.25 2.75 0 0 5.51 2.75 0 0 11 2.75 0 0 8.26 2.75 0 0 8.25 2.75 0 0 8.26 2.76 0 0 8.25 2.75 0 0 19.26 2.75 0 0 16.51 2.75 0 0 79.8 -2.75 0 0 13.75 -2.75 0 0 16.51 -2.75 0 0 13.76 -2.76 0 0 13.76 -2.75 0 0 11.01 -2.75 0 0 8.25 -2.75 0 0 5.51 -2.75 0 0 13.75 -2.75 0 0 5.51 -2.76 0 0 8.25 -2.75 0 0 8.26 -2.75 0 0 8.25 -2.75 0 0 5.5 -2.75 0 0 11.01 -2.75 0 0 8.26 -2.75 0 0 8.25 -2.76 0 0 5.5 -2.75 0 0 8.26 -2.75 0 0 5.5 -2.75 0 0 8.25 -2.75 0 0 5.51 -2.76 0 0 5.5 -2.75 0 0 5.5 -2.75 0 0 8.26 -2.75 0 0 8.25 -2.75 0 0 16.51 -2.75 0 0 8.26 -2.75 0 0 13.76 -2.76 0 0 16.51 -2.75 0 0 24.76 -2.75 0 0 88.05 2.75 0 0 41.27 2.75 0 0 11.01 2.76 0 0 22.01 2.75 0 0 16.51 2.75 0 0 19.26 2.75 0 0 13.76 2.75 0 0 13.76 2.75 0 0 11.01 2.75 0 0 8.25 2.76 0 0 13.76 2.75 0 0 8.25 2.75 0 0 13.76 2.75 0 0 11.01 2.75 0 0 11 2.76 0 0 11.01 2.75 0 0 11.01 2.75 0 0 5.5 2.75 0 0 8.25 2.75 0 0 11.01 2.75 0 0 13.76 2.75 0 0 8.25 2.76 0 0 11.01 2.75 0 0 5.5 2.75 0 0 11.01 2.75 0 0 16.51 2.75 0 0 8.25 2.75 0 0 13.76 2.76 0 0 5.51 2.75 0 0 11 2.75 0 0 13.76 2.75 0 0 16.51 2.75 0 0 11 2.75 0 0 8.26 2.76 0 0 19.26 2.75 0 0 16.51 2.75 0 0 16.51 2.75 0 0 16.51 2.75 0 0 27.52 2.75 0 0 134.82 -2.75 0 0 16.51 -2.75 0 0 24.76 -2.75 0 0 11.01 -2.75 0 0 11.01 -2.75 0 0 13.76 -2.76 0 0 8.25 -2.75 0 0 8.26 -2.75 0 0 5.5 -2.75 0 0 5.5 -2.75 0 0 5.5 -2.75 0 0 5.51 -2.76 0 0 2.75 -2.75 0 0 2.75 -2.75 0 0 2.75 -2.75 0 0 2.75 -2.75 0 0 2.76 -2.75 0 0 2.75 -5.51 0 0 2.75 -5.5 0 0 2.75 -5.5 0 0 2.75 -19.27 0 0 -2.75 -5.5 0 0 -2.75 -5.5 0 0 -2.75 -5.5 0 0 -2.75 -5.51 0 0 -2.76 -2.75 0 0 -2.75 -2.75 0 0 -2.75 -2.75 0 0 -2.75 -2.75 0 0 -2.75 -2.76 0 0 -2.75 -2.75 0 0 -2.76 -2.75 0 0 -2.75 -2.75 0 0 -2.75 -2.75 0 0 -2.75 -2.75 0 0 -5.5 -2.76 0 0 -2.75 -2.75 0 0 -5.51 -2.75 0 0 -5.5 -2.75 0 0 -5.5 -2.75 0 0 -5.51 -2.75 0 0 -5.5 -2.76 0 0 -5.5 -2.74 0 0 -5.51 -2.76 0 0 -5.5 -2.75 0 0 -8.26 -2.75 0 0 -2.74 -2.75 0 0 -11.01 -2.75 0 0 -5.51 -2.75 0 0 -8.25 -2.76 0 0 -5.51 -2.75 0 0 -8.25 -2.75 0 0 -5.5 -2.75 0 0 -11.01 -2.75 0 0 -8.25 -2.75 0 0 -5.51 -2.76 0 0 -8.25 -2.75 0 0 -11.01 -2.75 0 0 -5.5 -2.75 0 0 -8.25 -2.75 0 0 -8.26 -2.75 0 0 -8.25 -2.76 0 0 -8.26 -2.75 0 0 -8.25 -2.75 0 0 -11.01 -2.75 0 0 -5.5 -2.75 0 0 -8.26 -2.75 0 0 -8.25 -2.76 0 0 -8.26 -2.75 0 0 -11.01 -2.75 0 0 -11 -2.75 0 0 -5.5 -2.75 0 0 -8.26 -2.75 0 0 -8.25 -2.75 0 0 -5.51 -2.76 0 0 -8.25 -2.75 0 0 -8.26 -2.75 0 0 -8.25 -2.75 0 0 -5.5 -2.75 0 0 -5.51 -2.75 0 0 -8.25 -2.76 0 0 -5.5 -2.75 0 0 -5.51 -2.75 0 0 -8.25 -2.75 0 0 -5.51 -2.75 0 0 -5.5 -2.75 0 0 -5.5 -2.76 0 0 -5.51 -2.75 0 0 -5.5 -2.75 0 0 -5.5 -2.75 0 0 -5.51 -2.75 0 0 -5.5 -2.75 0 0 -5.5 -2.76 0 0 -5.5 -2.75 0 0 -5.51 -2.75 0 0 -5.5 -2.75 0 0 -5.51 -2.75 0 0 -5.5 -2.75 0 0 -5.5 -2.76 0 0 -5.5 -2.75 0 0 -5.51 -2.75 0 0 -5.5 -2.75 0 0 -5.5 -2.75 0 0 -2.75 -2.75 0 0 -5.51 -2.76 0 0 -5.5 -2.74 0 0 -2.75 -2.76 0 0 -5.51 -2.75 0 0 -5.5 -2.75 0 0 -2.75 -2.75 0 0 -5.5 -2.75 0 0 -5.51 -2.75 0 0 -2.75 -2.76 0 0 -5.5 -2.75 0 0 -2.75 -2.75 0 0 -5.51 -2.75 0 0 -5.5 -2.75 0 0 -2.75 -2.75 0 0 -2.75 -2.76 0 0 -5.51 -2.75 0 0 -2.75 -2.75 0 0 -5.5 -2.75 0 0 -2.75 -2.75 0 0 -5.51 -2.75 0 0 -2.75 -2.76 0 0 -2.75 -2.75 0 0 -5.5 -2.75 0 0 -2.75 -2.75 0 0 -2.75 -2.75 0 0 -5.51 -2.75 0 0 -2.75 -2.75 0 0 -2.75 -2.76 0 0 -2.75 -2.75 0 0 -2.75 -2.75 0 0 -2.75 -2.75 0 0 -2.76 -5.51 0 0 -2.75 -2.75 0 0 -2.75 -2.75 0 0 -2.75 -5.5 0 0 -2.75 -19.26 0 0 2.75 -2.75 0 0 2.75 -5.51 0 0 2.75 -2.75 0 0 2.75 -2.75 0 0 2.76 -2.75 0 0 2.75 -2.75 0 0 2.75 -2.76 0 0 5.5 -2.75 0 0 2.75 -2.75 0 0 5.51 -2.75 0 0 5.5 -2.75 0 0 5.5 -2.75 0 0 5.5 -2.76 0 0 5.51 -2.74 0 0 8.25 -2.76 0 0 5.51 -2.75 0 0 8.25 -2.75 0 0 11.01 -2.75 0 0 5.5 -2.75 0 0 11.01 -2.75 0 0 11 -2.76 0 0 13.76 -2.75 0 0 8.26 -2.75 0 0 16.51 -2.75 0 0 16.51 -2.75 0 0 22.01 -2.75 0 0 24.76 -2.76 0 0 96.31 2.76 0 0 33.01 2.75 0 0 33.02 2.75 0 0 16.51 2.75 0 0 24.77 2.75 0 0 11.01 2.75 0 0 13.75 2.76 0 0 13.76 2.75 0 0 13.76 2.75 0 0 13.76 2.75 0 0 11 2.75 0 0 16.51 2.75 0 0 11.01 2.76 0 0 16.51 2.74 0 0 13.76 2.76 0 0 16.51 2.75 0 0 27.51 2.75 0 0 41.28 -2.75 0 0 11 -2.75 0 0 11.01 -2.76 0 0 5.5 -2.74 0 0 5.51 -2.76 0 0 2.74 -2.75 0 0 5.51 -2.75 0 0 2.75 -5.5 0 0 2.75 -2.75 0 0 2.75 -8.26 0 0 2.75 -30.27 0 0 -2.75 -8.25 0 0 -2.75 -8.26 0 0 -2.75 -5.5 0 0 -2.75 -5.5 0 0 -2.75 -2.75 0 0 -2.76 -5.51 0 0 -2.74 -2.75 0 0 -2.76 -2.75 0 0 -2.75 -5.5 0 0 -2.75 -2.76 0 0 -2.75 -2.75 0 0 -2.75 -2.75 0 0 -2.75 -2.75 0 0 -2.76 -2.75 0 0 -2.75 -2.75 0 0 -2.75 -2.76 0 0 -2.75 -2.75 0 0 -5.5 -2.75 0 0 -2.76 -2.75 0 0 -2.75 -2.75 0 0 -2.75 -2.75 0 0 -2.75 -2.76 0 0 -5.5 -2.74 0 0 -2.76 -2.76 0 0 -2.75 -2.75 0 0 -5.5 -2.75 0 0 -2.75 -2.75 0 0 -2.75 -2.76 0 0 -5.51 -2.75 0 0 -2.75 -2.75 0 0 -5.5 -2.75 0 0 -2.75 -2.75 0 0 -5.51 -2.75 0 0 -5.5 -2.76 0 0 -2.75 -2.74 0 0 -5.5 -2.76 0 0 -5.51 -2.75 0 0 -5.5 -2.75 0 0 -5.5 -2.75 0 0 -5.51 -2.75 0 0 -5.5 -2.75 0 0 -2.75 -2.76 0 0 -8.25 -2.75 0 0 -2.76 -2.75 0 0 -8.25 -2.75 0 0 -5.51 -2.75 0 0 -5.5 -2.75 0 0 -5.5 -2.76 0 0 -8.26 -2.75 0 0 -5.5 -2.75 0 0 -5.5 -2.75 0 0 -8.26 -2.75 0 0 -8.25 -2.75 0 0 -5.51 -2.76 0 0 -2.75 -2.75 0 0 -11 -2.75 0 0 -5.51 -2.75 0 0 -5.5 -2.75 0 0 -11.01 -2.75 0 0 -5.5 -2.75 0 0 -5.5 -2.76 0 0 -11.01 -2.75 0 0 -5.5 -2.75 0 0 -8.26 -2.75 0 0 -8.25 -2.75 0 0 -11.01 -2.76 0 0 -11.01 -2.75 0 0 -5.5 -2.75 0 0 -11.01 -2.75 0 0 -8.25 -2.75 0 0 -13.76 -2.75 0 0 -5.5 -2.75 0 0 -11.01 -2.76 0 0 -11 -2.75 0 0 -8.26 -2.75 0 0 -13.76 -2.75 0 0 -19.26 -2.75 0 0 -8.25 -2.75 0 0 -22.01 -2.76 0 0 -24.77 -2.75 0 0 -33.02 -2.75 0 0 -140.33 2.75 0 0 -38.52 2.75 0 0 -49.53 2.76 0 0 -126.57 -2.76 0 0 -22.01 -2.75 0 0 -22.01 -2.75 0 0 -11.01 -2.75 0 0 -22.01 -2.75 0 0 -11.01 -2.75 0 0 -11.01 -2.76 0 0 -8.25 -2.75 0 0 -16.51 -2.75 0 0 -8.26 -2.75 0 0 -8.25 -2.75 0 0 -5.5 -2.75 0 0 -5.51 -2.76 0 0 -5.5 -2.74 0 0 -8.26 -2.76 0 0 -5.5 -2.75 0 0 -8.25 -2.75 0 0 -5.51 -2.75 0 0 -8.25 -2.75 0 0 -5.5 -2.75 0 0 -8.26 -2.76 0 0 -8.25 -2.75 0 0 -8.26 -2.75 0 0 -5.5 -2.75 0 0 -8.26 -2.75 0 0 -8.25 -2.75 0 0 -8.26 -2.76 0 0 -8.25 -2.75 0 0 -5.5 -2.75 0 0 -13.76 -2.75 0 0 -5.5 -2.75 0 0 -8.26 -2.75 0 0 -16.51 -2.76 0 0 -8.25 -2.75 0 0 -22.02 -2.75 0 0 -24.76 -2.75 0 0 -52.28 2.75 0 0 -16.51 2.75 0 0 -11.01 2.75 0 0 -11 2.76 0 0 -11.01 2.75 0 0 -5.5 2.75 0 0 -8.26 2.75 0 0 -5.5 2.75 0 0 -5.5 2.75 0 0 -5.5 2.76 0 0 -5.51 2.75 0 0 -5.5 2.75 0 0 -5.5 2.75 0 0 -5.51 2.75 0 0 -5.5 2.75 0 0 -2.75 2.76 0 0 -5.51 2.75 0 0 -2.75 2.75 0 0 -5.5 2.75 0 0 -2.75 2.75 0 0 -2.75 2.75 0 0 -2.76 2.76 0 0 -5.5 2.74 0 0 -2.75 2.76 0 0 -2.75 2.75 0 0 -2.75 2.75 0 0 -2.76 2.75 0 0 -2.75 2.75 0 0 -2.75 2.75 0 0 -2.75 2.76 0 0 -2.75 2.75 0 0 -2.75 2.75 0 0 -2.76 2.75 0 0 -2.74 5.5 0 0 -2.76 2.76 0 0 -2.75 2.75 0 0 -2.75 2.75 0 0 -2.75 5.5 0 0 -2.75 2.75 0 0 -2.75 2.76 0 0 -2.76 5.5 0 0 -2.75 2.75 0 0 -2.75 2.75 0 0 -2.75 5.5 0 0 -2.75 2.76 0 0 -2.75 5.5 0 0 -2.76 5.5 0 0 -2.75 2.76 0 0 -2.75 5.5 0 0 -2.75 5.5 0 0 -2.75 5.5 0 0 -2.75 2.76 0 0 -2.76 5.5 0 0 -2.75 8.25 0 0 -2.75 5.51 0 0 -2.75 5.5 0 0 -2.75 11.01 0 0 -2.75 2.75 0 0 -2.75 44.03 0 0 2.75 11 0 0 2.75 5.5 0 0 2.75 8.26 0 0 2.75 8.25 0 0 2.75 5.51 0 0 2.75 5.5 0 0 2.76 5.5 0 0 2.75 5.51 0 0 2.75 5.5 0 0 2.75 5.5 0 0 2.75 8.26 0 0 2.75 5.5 0 0 2.76 5.5 0 0 2.75 2.75 0 0 2.75 11.01 0 0 2.75 5.5 0 0 2.75 5.51 0 0 2.75 11 0 0 2.76 41.28 0 0 -2.76 8.25 0 0 -2.75 11.01 0 0 -2.75 5.5 0 0 -2.75 8.26 0 0 -2.75 8.25 0 0 -2.75 5.5 0 0 -2.76 5.51 0 0 -2.75 8.25 0 0 -2.75 5.51 0 0 -2.75 5.5 0 0 -2.75 5.5 0 0 -2.75 8.26 0 0 -2.76 5.5 0 0 -2.75 5.5 0 0 -2.75 5.51 0 0 -2.75 8.25 0 0 -2.75 5.5 0 0 -2.75 5.51 0 0 -2.75 5.5 0 0 -2.76 11 0 0 -2.75 5.51 0 0 -2.75 11 0 0 -2.75 30.27 0 0 2.75z"/>
 </g>
</svg>
