<?xml version="1.0" encoding="UTF-8"?>
<!DOCTYPE svg PUBLIC "-//W3C//DTD SVG 1.1//EN" "http://www.w3.org/Graphics/SVG/1.1/DTD/svg11.dtd">
<!-- Creator: CorelDRAW (Versión de evaluación) -->
<svg xmlns="http://www.w3.org/2000/svg" xml:space="preserve" width="979px" height="2062px" version="1.1" style="shape-rendering:geometricPrecision; text-rendering:geometricPrecision; image-rendering:optimizeQuality; fill-rule:evenodd; clip-rule:evenodd"
viewBox="0 0 979 2063.17"
 xmlns:xlink="http://www.w3.org/1999/xlink"
 xmlns:xodm="http://www.corel.com/coreldraw/odm/2003">
 <defs>
  <style type="text/css">
   <![CDATA[
    .fil2 {fill:#4B4B4D}
    .fil1 {fill:#F3EDD9}
    .fil0 {fill:#F8FBFF}
   ]]>
  </style>
 </defs>
 <g id="deciduous">
  <metadata id="CorelCorpID_0Corel-Layer"/>
  <path id="crown" class="fil0" d="M668.24 1695.4c38.12,20.58 83.95,5.44 115.79,-8.82 126.19,-56.47 86.57,-145.23 59.03,-298.39 -13.15,-73.12 -27.24,-158.32 -75.85,-196.98 -72.48,-57.64 -157.84,-16.48 -209.68,13.64 -69.72,40.51 -106.14,62.48 -216.46,51.64 -47.63,-4.68 -148.48,-32.23 -185.72,0.51 -60.84,53.46 -103.54,189.93 -72.14,274.71 32.33,87.26 101.75,101.4 186.41,104.34 2.29,-19.54 -3.55,-42.4 2.29,-62.82l8.15 -14.85c25.09,52.48 -22.01,61.24 50.39,101.54 36.78,20.48 73.95,36.61 108.79,58.54 53.22,33.49 73.23,66.05 161.42,-1.85 53.41,-41.11 45.63,-18.87 53.19,-74.77 6.58,-48.72 5.12,-34.61 12.26,-39.86 11.39,30.4 -4.62,68.6 2.13,93.42z"/>
  <path id="root" class="fil1" d="M37.5 595.43c-18.41,79.49 -11.51,166.71 7.52,233.34 58.15,203.64 142.2,243.9 119.91,392.71 123.92,-28.58 229.02,46.69 345.59,-20.62 40.99,-23.67 79.97,-49.92 134.42,-61.2 86.4,-17.89 115.25,20.36 152.32,46.22 13.07,-42.78 17.4,-70.59 35.83,-109.19 50.24,-105.22 102.38,-150.05 116,-314.4 6.53,-78.81 -7.05,-149.97 -24.7,-217.35 -7.47,-28.54 -48.56,-165.22 -73.36,-174.43 -48.8,101.81 40.96,230.23 -91.92,478.36 -38.96,72.75 -83.4,100.64 -132.22,148.15 -24.85,24.19 -45,47.98 -68.91,70.31 -113.46,105.92 -163.04,-37.59 -288.84,-177.67 -142.56,-158.76 -166.14,-204.61 -139.54,-436.76l0.57 -59.14c-32.22,28.38 -80.15,147.59 -92.67,201.67zm412.56 -286.26c-28.94,14.39 -73.6,172.35 -84.76,212.63 -18.21,65.78 -65.77,327.48 -45.28,381.4 7.91,20.84 112.4,141.38 122.83,151.11 50,46.61 76.78,14.52 123.26,-35.22 65.44,-70.03 82.81,-58.39 62.2,-117.73 -15.83,-45.59 -54.2,-120.49 -77.29,-184.94 -46.37,-129.43 -50.71,-380.27 -100.96,-407.25z"/>
  <path id="outline" class="fil2" d="M668.24 1695.4c-6.75,-24.82 9.26,-63.02 -2.13,-93.42 -7.14,5.25 -5.68,-8.86 -12.26,39.86 -7.56,55.9 0.22,33.66 -53.19,74.77 -88.19,67.9 -108.2,35.34 -161.42,1.85 -34.84,-21.93 -72.01,-38.06 -108.79,-58.54 -72.4,-40.3 -25.3,-49.06 -50.39,-101.54l-8.15 14.85c-5.84,20.42 0,43.28 -2.29,62.82 -84.66,-2.94 -154.08,-17.08 -186.41,-104.34 -31.4,-84.78 11.3,-221.25 72.14,-274.71 37.24,-32.74 138.09,-5.19 185.72,-0.51 110.32,10.84 146.74,-11.13 216.46,-51.64 51.84,-30.12 137.2,-71.28 209.68,-13.64 48.61,38.66 62.7,123.86 75.85,196.98 27.54,153.16 67.16,241.92 -59.03,298.39 -31.84,14.26 -77.67,29.4 -115.79,8.82zm-218.18 -1386.23c50.25,26.98 54.59,277.82 100.96,407.25 23.09,64.45 61.46,139.35 77.29,184.94 20.61,59.34 3.24,47.7 -62.2,117.73 -46.48,49.74 -73.26,81.83 -123.26,35.22 -10.43,-9.73 -114.92,-130.27 -122.83,-151.11 -20.49,-53.92 27.07,-315.62 45.28,-381.4 11.16,-40.28 55.82,-198.24 84.76,-212.63zm400.97 61.34c24.8,9.21 65.89,145.89 73.36,174.43 17.65,67.38 31.23,138.54 24.7,217.35 -13.62,164.35 -65.76,209.18 -116,314.4 -18.43,38.6 -22.76,66.41 -35.83,109.19 -37.07,-25.86 -65.92,-64.11 -152.32,-46.22 -54.45,11.28 -93.43,37.53 -134.42,61.2 -116.57,67.31 -221.67,-7.96 -345.59,20.62 22.29,-148.81 -61.76,-189.07 -119.91,-392.71 -19.03,-66.63 -25.93,-153.85 -7.52,-233.34 12.52,-54.08 60.45,-173.29 92.67,-201.67l-0.57 59.14c-26.6,232.15 -3.02,278 139.54,436.76 125.8,140.08 175.38,283.59 288.84,177.67 23.91,-22.33 44.06,-46.12 68.91,-70.31 48.82,-47.51 93.26,-75.4 132.22,-148.15 132.88,-248.13 43.12,-376.55 91.92,-478.36zm-559.4 503.35c-12.97,-9.63 -9.63,-10.45 -20.1,-22.68l-41.45 -46.33c-71.15,-101.24 -92.92,-134.91 -80.12,-289.84 3.87,-46.76 26.13,-120.81 -2.76,-151.28 -42.06,-10.17 -63.87,50.06 -81.71,81.9 -99.98,178.4 -75.05,343.02 -2.16,516.49 32.46,77.24 84.79,138.66 79.91,230.09 -3.06,57.49 -36.36,69.37 -59.61,116.65 -46.55,94.64 -51.54,190.01 -7.61,268.59 32.86,58.8 97.35,86.96 169.29,86.15 43.31,-0.49 29.04,-3.82 63.14,16.38 36.8,21.81 76.39,38.27 112.54,59.54 63.82,37.54 91.36,79.87 195.46,-1.81 45.55,-35.74 31.92,-7.53 92.23,-4.73 23.22,1.08 44.5,-5.72 64.07,-12.21 169.17,-56.11 126.41,-178.1 98.48,-324 -8.89,-46.45 -13.25,-83.52 -27.37,-126.54 -18.35,-55.88 -31.05,-60.46 -5.83,-132.62 36.27,-103.75 132.38,-198.55 139.94,-392.95 4.43,-113.65 -36.05,-272.09 -87.37,-369.31 -22.65,-42.89 -62.54,-61.46 -74.44,26.39 -17.22,127.15 0.68,213.28 -26.44,306.55 -14.62,50.3 -50.84,134.23 -86.14,174.46 -10.68,12.16 -28.26,36.36 -40.33,42.79 -3.04,-6.38 -11.52,-50.06 -37.83,-102.68 -107.06,-214.01 -70.26,-320.94 -126.4,-486.59 -22.62,-66.74 -65.12,-79.54 -97.44,-7.01 -73.42,164.78 -108.57,366.93 -109.95,544.6z"/>
 </g>
</svg>
