<?xml version="1.0" encoding="UTF-8"?>
<!DOCTYPE svg PUBLIC "-//W3C//DTD SVG 1.1//EN" "http://www.w3.org/Graphics/SVG/1.1/DTD/svg11.dtd">
<!-- Creator: CorelDRAW (Versión de evaluación) -->
<svg xmlns="http://www.w3.org/2000/svg" xml:space="preserve" width="803px" height="2052px" version="1.1" style="shape-rendering:geometricPrecision; text-rendering:geometricPrecision; image-rendering:optimizeQuality; fill-rule:evenodd; clip-rule:evenodd"
viewBox="0 0 803 2050.8"
 xmlns:xlink="http://www.w3.org/1999/xlink"
 xmlns:xodm="http://www.corel.com/coreldraw/odm/2003">
 <defs>
  <style type="text/css">
   <![CDATA[
    .fil2 {fill:#4B4B4D}
    .fil0 {fill:#F3EDD9}
    .fil1 {fill:#F8FBFF}
   ]]>
  </style>
 </defs>
 <g id="deciduous">
  <metadata id="CorelCorpID_0Corel-Layer"/>
  <polygon id="root" class="fil0" points="109.58,870.24 112.33,870.24 112.33,886.74 115.08,886.74 115.08,903.24 117.83,903.24 117.83,982.99 115.08,982.99 115.08,1002.24 112.33,1002.24 112.33,1021.49 109.58,1021.49 109.58,1037.99 106.83,1037.99 106.83,1054.49 104.08,1054.49 104.08,1068.24 101.33,1068.24 101.33,1081.99 98.58,1081.99 98.58,1090.24 95.83,1090.24 95.83,1106.74 93.08,1106.74 93.08,1117.74 90.33,1117.74 90.33,1131.49 87.58,1131.49 87.58,1139.74 84.83,1139.74 84.83,1150.74 82.08,1150.74 82.08,1161.74 79.33,1161.74 79.33,1169.99 76.58,1169.99 76.58,1183.74 73.83,1183.74 73.83,1194.74 71.08,1194.74 71.08,1205.74 68.33,1205.74 68.33,1213.99 65.58,1213.99 65.58,1224.99 62.83,1224.99 62.83,1238.74 60.08,1238.74 60.08,1249.74 57.33,1249.74 57.33,1257.99 54.58,1257.99 54.58,1271.74 51.83,1271.74 51.83,1279.99 49.08,1279.99 49.08,1299.24 46.33,1299.24 46.33,1310.24 43.58,1310.24 43.58,1326.74 40.83,1326.74 40.83,1345.99 38.08,1345.99 38.08,1365.24 35.33,1365.24 35.33,1384.5 32.58,1384.5 32.58,1409.25 29.83,1409.25 29.83,1447.75 27.08,1447.75 27.08,1458.75 24.33,1458.75 24.33,1497.25 21.58,1497.25 21.58,1596.25 24.33,1596.25 24.33,1623.75 27.08,1623.75 27.08,1632 29.83,1632 29.83,1642.99 32.58,1642.99 32.58,1651.25 35.33,1651.25 35.33,1654 38.08,1654 38.08,1659.49 40.83,1659.49 40.83,1662.25 46.33,1662.25 46.33,1665 65.58,1665 65.58,1662.25 71.08,1662.25 71.08,1659.49 76.58,1659.49 76.58,1656.75 79.33,1656.75 79.33,1654 82.08,1654 82.08,1651.25 84.83,1651.25 84.83,1648.5 87.58,1648.5 87.58,1645.75 90.33,1645.75 90.33,1642.99 93.08,1642.99 93.08,1640.25 95.83,1640.25 95.83,1637.5 98.58,1637.5 98.58,1632 101.33,1632 101.33,1629.25 104.08,1629.25 104.08,1623.75 106.83,1623.75 106.83,1621 109.58,1621 109.58,1615.5 112.33,1615.5 112.33,1609.99 115.08,1609.99 115.08,1607.25 117.83,1607.25 117.83,1601.74 120.58,1601.74 120.58,1596.25 123.33,1596.25 123.33,1590.75 126.08,1590.75 126.08,1585.25 128.83,1585.25 128.83,1579.75 131.58,1579.75 131.58,1574.25 134.33,1574.25 134.33,1568.74 137.08,1568.74 137.08,1560.49 139.83,1560.49 139.83,1555 142.58,1555 142.58,1546.74 145.33,1546.74 145.33,1541.25 148.08,1541.25 148.08,1533 150.83,1533 150.83,1521.99 153.58,1521.99 153.58,1516.5 156.33,1516.5 156.33,1508.25 159.08,1508.25 159.08,1500 161.83,1500 161.83,1494.49 164.58,1494.49 164.58,1489 167.33,1489 167.33,1480.74 170.08,1480.74 170.08,1469.74 172.83,1469.74 172.83,1464.24 175.58,1464.24 175.58,1455.99 178.33,1455.99 178.33,1447.75 181.08,1447.75 181.08,1434 183.83,1434 183.83,1425.75 186.58,1425.75 186.58,1417.5 189.33,1417.5 189.33,1411.99 192.08,1411.99 192.08,1403.74 194.83,1403.74 194.83,1392.75 197.58,1392.75 197.58,1384.5 200.33,1384.5 200.33,1376.25 203.08,1376.25 203.08,1370.74 205.83,1370.74 205.83,1362.49 208.58,1362.49 208.58,1356.99 211.33,1356.99 211.33,1351.49 214.08,1351.49 214.08,1343.24 216.83,1343.24 216.83,1335 219.58,1335 219.58,1329.49 222.33,1329.49 222.33,1321.24 225.08,1321.24 225.08,1315.74 227.83,1315.74 227.83,1310.24 230.58,1310.24 230.58,1304.74 233.33,1304.74 233.33,1299.24 236.08,1299.24 236.08,1293.74 238.83,1293.74 238.83,1288.24 241.58,1288.24 241.58,1282.74 244.33,1282.74 244.33,1277.24 247.08,1277.24 247.08,1271.74 249.83,1271.74 249.83,1266.24 252.58,1266.24 252.58,1260.74 255.33,1260.74 255.33,1255.24 258.08,1255.24 258.08,1249.74 260.83,1249.74 260.83,1244.24 263.58,1244.24 263.58,1241.49 266.33,1241.49 266.33,1235.99 269.08,1235.99 269.08,1230.49 271.83,1230.49 271.83,1224.99 274.58,1224.99 274.58,1219.49 277.33,1219.49 277.33,1216.74 280.08,1216.74 280.08,1211.24 282.83,1211.24 282.83,1205.74 285.58,1205.74 285.58,1200.24 288.33,1200.24 288.33,1197.5 291.08,1197.5 291.08,1191.99 293.83,1191.99 293.83,1186.49 296.58,1186.49 296.58,1183.74 299.33,1183.74 299.33,1178.24 302.08,1178.24 302.08,1175.49 304.83,1175.49 304.83,1169.99 307.58,1169.99 307.58,1167.24 310.33,1167.24 310.33,1161.74 313.08,1161.74 313.08,1158.99 315.83,1158.99 315.83,1156.25 318.58,1156.25 318.58,1150.74 321.33,1150.74 321.33,1147.99 324.08,1147.99 324.08,1145.24 326.83,1145.24 326.83,1139.74 329.58,1139.74 329.58,1136.99 332.33,1136.99 332.33,1134.24 335.08,1134.24 335.08,1131.49 337.83,1131.49 337.83,1128.74 340.58,1128.74 340.58,1125.99 343.33,1125.99 343.33,1123.24 346.08,1123.24 346.08,1120.49 351.58,1120.49 351.58,1117.74 354.33,1117.74 354.33,1114.99 359.83,1114.99 359.83,1112.24 365.33,1112.24 365.33,1109.49 387.33,1109.49 387.33,1112.24 392.83,1112.24 392.83,1114.99 398.33,1114.99 398.33,1117.74 401.08,1117.74 401.08,1120.49 403.83,1120.49 403.83,1123.24 406.58,1123.24 406.58,1125.99 409.33,1125.99 409.33,1128.74 412.08,1128.74 412.08,1134.24 414.83,1134.24 414.83,1136.99 417.58,1136.99 417.58,1142.49 420.33,1142.49 420.33,1150.74 423.08,1150.74 423.08,1156.25 425.83,1156.25 425.83,1167.24 428.58,1167.24 428.58,1172.74 431.33,1172.74 431.33,1183.74 434.08,1183.74 434.08,1194.74 436.83,1194.74 436.83,1216.74 439.58,1216.74 439.58,1233.24 442.33,1233.24 442.33,1244.24 445.08,1244.24 445.08,1362.49 442.33,1362.49 442.33,1395.49 439.58,1395.49 439.58,1414.74 436.83,1414.74 436.83,1436.74 434.08,1436.74 434.08,1461.49 431.33,1461.49 431.33,1477.99 428.58,1477.99 428.58,1491.75 425.83,1491.75 425.83,1502.74 423.08,1502.74 423.08,1519.24 420.33,1519.24 420.33,1524.75 417.58,1524.75 417.58,1541.25 414.83,1541.25 414.83,1546.74 412.08,1546.74 412.08,1557.75 409.33,1557.75 409.33,1566 406.58,1566 406.58,1579.75 403.83,1579.75 403.83,1590.75 401.08,1590.75 401.08,1596.25 398.33,1596.25 398.33,1612.75 395.58,1612.75 395.58,1618.24 392.83,1618.24 392.83,1634.74 390.08,1634.74 390.08,1645.75 387.33,1645.75 387.33,1659.49 384.58,1659.49 384.58,1695.25 387.33,1695.25 387.33,1703.5 390.08,1703.5 390.08,1706.25 392.83,1706.25 392.83,1709 395.58,1709 395.58,1711.75 398.33,1711.75 398.33,1714.5 414.83,1714.5 414.83,1711.75 417.58,1711.75 417.58,1709 425.83,1709 425.83,1706.25 431.33,1706.25 431.33,1703.5 436.83,1703.5 436.83,1700.75 442.33,1700.75 442.33,1698 445.08,1698 445.08,1695.25 447.83,1695.25 447.83,1692.5 450.58,1692.5 450.58,1689.75 456.08,1689.75 456.08,1687 458.83,1687 458.83,1684.24 461.58,1684.24 461.58,1681.5 464.33,1681.5 464.33,1678.75 467.08,1678.75 467.08,1676 469.83,1676 469.83,1673.25 472.58,1673.25 472.58,1670.5 475.33,1670.5 475.33,1667.75 478.08,1667.75 478.08,1665 480.83,1665 480.83,1662.25 483.58,1662.25 483.58,1659.49 486.33,1659.49 486.33,1656.75 489.08,1656.75 489.08,1654 491.83,1654 491.83,1648.5 494.58,1648.5 494.58,1645.75 497.33,1645.75 497.33,1642.99 500.08,1642.99 500.08,1637.5 502.83,1637.5 502.83,1634.74 505.58,1634.74 505.58,1629.25 508.33,1629.25 508.33,1626.5 511.08,1626.5 511.08,1623.75 513.83,1623.75 513.83,1618.24 516.58,1618.24 516.58,1615.5 519.33,1615.5 519.33,1609.99 522.08,1609.99 522.08,1607.25 524.83,1607.25 524.83,1601.74 527.58,1601.74 527.58,1596.25 530.33,1596.25 530.33,1593.49 533.08,1593.49 533.08,1588 535.83,1588 535.83,1582.5 538.58,1582.5 538.58,1579.75 541.33,1579.75 541.33,1574.25 544.08,1574.25 544.08,1568.74 546.83,1568.74 546.83,1563.25 549.58,1563.25 549.58,1557.75 552.33,1557.75 552.33,1552.24 555.08,1552.24 555.08,1546.74 557.83,1546.74 557.83,1543.99 560.58,1543.99 560.58,1538.5 563.33,1538.5 563.33,1533 566.08,1533 566.08,1527.49 568.83,1527.49 568.83,1521.99 571.58,1521.99 571.58,1516.5 574.33,1516.5 574.33,1508.25 577.08,1508.25 577.08,1502.74 579.83,1502.74 579.83,1497.25 582.58,1497.25 582.58,1491.75 585.33,1491.75 585.33,1486.24 588.08,1486.24 588.08,1477.99 590.83,1477.99 590.83,1472.5 593.58,1472.5 593.58,1467 596.33,1467 596.33,1458.75 599.08,1458.75 599.08,1450.5 601.83,1450.5 601.83,1444.99 604.58,1444.99 604.58,1439.49 607.33,1439.49 607.33,1434 610.08,1434 610.08,1425.75 612.83,1425.75 612.83,1414.74 615.58,1414.74 615.58,1406.49 618.33,1406.49 618.33,1398.24 621.08,1398.24 621.08,1392.75 623.83,1392.75 623.83,1384.5 626.58,1384.5 626.58,1373.49 629.33,1373.49 629.33,1359.75 632.08,1359.75 632.08,1351.49 634.83,1351.49 634.83,1340.49 637.58,1340.49 637.58,1326.74 640.33,1326.74 640.33,1310.24 643.08,1310.24 643.08,1296.49 645.83,1296.49 645.83,1282.74 648.58,1282.74 648.58,1266.24 651.33,1266.24 651.33,1257.99 654.08,1257.99 654.08,1235.99 656.83,1235.99 656.83,1208.49 659.58,1208.49 659.58,1183.74 662.33,1183.74 662.33,1029.74 665.08,1029.74 665.08,980.24 667.83,980.24 667.83,952.74 670.58,952.74 670.58,930.74 673.33,930.74 673.33,919.74 676.08,919.74 676.08,905.99 678.83,905.99 678.83,892.24 681.58,892.24 681.58,886.74 684.33,886.74 684.33,872.99 681.58,872.99 681.58,875.74 676.08,875.74 676.08,878.49 670.58,878.49 670.58,881.24 665.08,881.24 665.08,883.99 659.58,883.99 659.58,886.74 651.33,886.74 651.33,889.49 637.58,889.49 637.58,892.24 623.83,892.24 623.83,894.99 607.33,894.99 607.33,897.74 524.83,897.74 524.83,900.49 513.83,900.49 513.83,903.24 494.58,903.24 494.58,905.99 478.08,905.99 478.08,908.74 409.33,908.74 409.33,905.99 398.33,905.99 398.33,903.24 368.08,903.24 368.08,900.49 354.33,900.49 354.33,897.74 329.58,897.74 329.58,894.99 313.08,894.99 313.08,892.24 288.33,892.24 288.33,889.49 260.83,889.49 260.83,886.74 211.33,886.74 211.33,883.99 186.58,883.99 186.58,881.24 170.08,881.24 170.08,878.49 156.33,878.49 156.33,875.74 148.08,875.74 148.08,872.99 142.58,872.99 142.58,870.24 134.33,870.24 134.33,867.49 128.83,867.49 128.83,864.74 123.33,864.74 123.33,861.99 117.83,861.99 117.83,859.24 112.33,859.24 112.33,856.49 109.58,856.49 "/>
  <path id="crown" class="fil1" d="M139.83 380.74l-11 0 0 2.75 -8.25 0 0 2.75 -5.5 0 0 2.75 -5.5 0 0 2.75 -5.5 0 0 2.75 -2.75 0 0 2.75 -5.5 0 0 2.75 -2.75 0 0 2.75 -2.75 0 0 2.75 -2.75 0 0 2.75 -2.75 0 0 2.75 -2.75 0 0 2.75 -2.75 0 0 2.75 -2.75 0 0 2.75 -2.75 0 0 2.75 -2.75 0 0 5.5 -2.75 0 0 2.75 -2.75 0 0 5.5 -2.75 0 0 2.75 -2.75 0 0 5.5 -2.75 0 0 5.5 -2.75 0 0 5.5 -2.75 0 0 5.5 -2.75 0 0 8.25 -2.75 0 0 8.25 -2.75 0 0 2.75 -2.75 0 0 13.75 -2.75 0 0 8.25 -2.75 0 0 8.25 -2.75 0 0 19.25 -2.75 0 0 90.75 2.75 0 0 19.25 2.75 0 0 8.25 2.75 0 0 19.25 2.75 0 0 5.5 2.75 0 0 13.75 2.75 0 0 8.25 2.75 0 0 5.5 2.75 0 0 11 2.75 0 0 8.25 2.75 0 0 8.25 2.75 0 0 5.5 2.75 0 0 8.25 2.75 0 0 5.5 2.75 0 0 8.25 2.75 0 0 5.5 2.75 0 0 8.25 2.75 0 0 5.5 2.75 0 0 8.25 2.75 0 0 5.5 2.75 0 0 5.5 2.75 0 0 8.25 2.75 0 0 5.5 2.75 0 0 2.75 2.75 0 0 5.5 2.75 0 0 2.75 2.75 0 0 2.75 2.75 0 0 2.75 2.75 0 0 2.75 2.75 0 0 2.75 5.5 0 0 2.75 2.75 0 0 2.75 2.75 0 0 2.75 5.5 0 0 2.75 5.5 0 0 2.75 5.5 0 0 2.75 5.5 0 0 2.75 5.5 0 0 2.75 8.25 0 0 2.75 13.75 0 0 2.75 8.25 0 0 2.75 16.5 0 0 2.75 35.75 0 0 2.75 38.5 0 0 2.75 33 0 0 2.75 22 0 0 2.75 16.5 0 0 2.75 27.5 0 0 2.75 16.5 0 0 2.75 27.5 0 0 2.75 60.5 0 0 -2.75 27.5 0 0 -2.75 13.75 0 0 -2.75 77 0 0 -2.75 22 0 0 -2.75 16.5 0 0 -2.75 13.75 0 0 -2.75 5.5 0 0 -2.75 8.25 0 0 -2.75 5.5 0 0 -2.75 5.5 0 0 -2.75 2.75 0 0 -2.75 5.5 0 0 -2.75 2.75 0 0 -2.75 2.75 0 0 -2.75 2.75 0 0 -2.75 2.75 0 0 -2.75 2.75 0 0 -2.75 2.75 0 0 -2.75 2.75 0 0 -5.5 2.75 0 0 -2.75 2.75 0 0 -2.75 2.75 0 0 -5.5 2.75 0 0 -5.5 2.75 0 0 -5.5 2.75 0 0 -5.5 2.75 0 0 -5.5 2.75 0 0 -5.5 2.75 0 0 -8.25 2.75 0 0 -5.5 2.75 0 0 -5.5 2.75 0 0 -5.5 2.75 0 0 -8.25 2.75 0 0 -5.5 2.75 0 0 -5.5 2.75 0 0 -8.25 2.75 0 0 -5.5 2.75 0 0 -8.25 2.75 0 0 -5.5 2.75 0 0 -8.25 2.75 0 0 -5.5 2.75 0 0 -11 2.75 0 0 -5.5 2.75 0 0 -13.75 2.75 0 0 -8.25 2.75 0 0 -8.25 2.75 0 0 -13.75 2.75 0 0 -8.25 2.75 0 0 -16.5 2.75 0 0 -68.75 -2.75 0 0 -8.25 -2.75 0 0 -16.5 -2.75 0 0 -8.25 -2.75 0 0 -8.25 -2.75 0 0 -5.5 -2.75 0 0 -8.25 -2.75 0 0 -5.5 -2.75 0 0 -5.5 -2.75 0 0 -5.5 -2.75 0 0 -5.5 -2.75 0 0 -5.5 -2.75 0 0 -2.75 -2.75 0 0 -5.5 -2.75 0 0 -2.75 -2.75 0 0 -2.75 -2.75 0 0 -2.75 -11 0 0 -2.75 -11 0 0 -2.75 -8.25 0 0 -2.75 -8.25 0 0 -2.75 -5.5 0 0 -2.75 -5.5 0 0 -2.75 -5.5 0 0 -2.75 -8.25 0 0 -2.75 -5.5 0 0 -2.75 -5.5 0 0 -2.75 -5.5 0 0 -2.75 -8.25 0 0 -2.75 -11 0 0 -2.75 -30.25 0 0 2.75 -11 0 0 2.75 -11 0 0 2.75 -5.5 0 0 2.75 -5.5 0 0 2.75 -8.25 0 0 2.75 -5.5 0 0 2.75 -5.5 0 0 2.75 -8.25 0 0 2.75 -5.5 0 0 2.75 -5.5 0 0 2.75 -5.5 0 0 2.75 -8.25 0 0 2.75 -5.5 0 0 2.75 -5.5 0 0 2.75 -5.5 0 0 2.75 -8.25 0 0 2.75 -2.75 0 0 2.75 -2.75 0 0 2.75 -5.5 0 0 2.75 -5.5 0 0 2.75 -2.75 0 0 2.75 -2.75 0 0 2.75 -5.5 0 0 2.75 -2.75 0 0 2.75 -2.75 0 0 2.75 -2.75 0 0 2.75 -2.75 0 0 2.75 -2.75 0 0 16.5 2.75 0 0 38.5 -2.75 0 0 16.5 -2.75 0 0 11 -2.75 0 0 5.5 -2.75 0 0 11 -2.75 0 0 5.5 -2.75 0 0 5.5 -2.75 0 0 2.75 -2.75 0 0 -11 2.75 0 0 -77 -2.75 0 0 -13.75 -2.75 0 0 -8.25 -2.75 0 0 -8.25 -2.75 0 0 -2.75 -2.75 0 0 -5.5 -2.75 0 0 -2.75 -2.75 0 0 -2.75 -2.75 0 0 -2.75 -5.5 0 0 -2.75 -2.75 0 0 -2.75 -5.5 0 0 -2.75 -5.5 0 0 -2.75 -8.25 0 0 -2.75 -11 0 0 -2.75 -8.25 0 0 -2.75 -11 0 0 -2.75 -8.25 0 0 -2.75 -5.5 0 0 -2.75 -13.75 0 0 -2.75 -5.5 0 0 -2.75 -5.5 0 0 -2.75 -8.25 0 0 -2.75 -5.5 0 0 -2.75 -5.5 0 0 -2.75 -8.25 0 0 -2.75 -5.5 0 0 -2.75 -5.5 0 0 -2.75 -5.5 0 0 -2.75 -5.5 0 0 -2.75 -5.5 0 0 -2.75 -8.25 0 0 -2.75 -5.5 0 0 -2.75 -11 0 0 -2.75 -24.75 0 0 2.75 -8.25 0 0 2.75 -8.25 0 0 2.75 -5.5 0 0 2.75 -2.75 0 0 2.75 -5.5 0 0 2.75 -2.75 0 0 2.75 -2.75 0 0 2.75 -2.75 0 0 2.75 -2.75 0 0 2.75 -2.75 0 0 5.5 -2.75 0 0 2.75 -2.75 0 0 2.75 -2.75 0 0 5.5 -2.75 0 0 2.75 -2.75 0 0 5.5 -2.75 0 0 5.5 -2.75 0 0 2.75 -2.75 0 0 5.5 -2.75 0 0 5.5 -2.75 0 0 8.25 -2.75 0 0 5.5 -2.75 0 0 5.5 -2.75 0 0 8.25 -2.75 0 0 5.5 -2.75 0 0 11 -2.75 0 0 5.5 -2.75 0 0 8.25 -2.75 0 0 11 -2.75 0 0 5.5 -2.75 0 0 11 -2.75 0 0 2.75 -2.75 0 0 -33 2.75 0 0 -11 2.75 0 0 -19.25 2.75 0 0 -5.5 2.75 0 0 -8.25 2.75 0 0 -8.25 2.75 0 0 -8.25 2.75 0 0 -8.25 2.75 0 0 -5.5 2.75 0 0 -5.5 2.75 0 0 -5.5 2.75 0 0 -5.5 2.75 0 0 -5.5 2.75 0 0 -2.75 2.75 0 0 -5.5 2.75 0 0 -2.75 2.75 0 0 -5.5 2.75 0 0 -2.75 2.75 0 0 -2.75 2.75 0 0 -2.75 2.75 0 0 -2.75 2.75 0 0 -2.75 2.75 0 0 -2.75 5.5 0 0 -2.75 2.75 0 0 -2.75 5.5 0 0 -2.75 5.5 0 0 -2.75 2.75 0 0 -2.75 -5.5 0 0 -2.75 -16.5 0 0 -2.75 -30.25 0 0 2.75zm420.75 -38.5l-8.25 0 0 2.75 -8.25 0 0 2.75 -5.5 0 0 2.75 -5.5 0 0 2.75 -5.5 0 0 2.75 -5.5 0 0 2.75 -5.5 0 0 2.75 -5.5 0 0 2.75 -5.5 0 0 2.75 -5.5 0 0 2.75 -2.75 0 0 2.75 -5.5 0 0 2.75 -5.5 0 0 2.75 -5.5 0 0 2.75 -8.25 0 0 2.75 -5.5 0 0 2.75 -8.25 0 0 2.75 -5.5 0 0 2.75 -11 0 0 2.75 -5.5 0 0 2.75 -5.5 0 0 2.75 -5.5 0 0 2.75 -5.5 0 0 2.75 -2.75 0 0 2.75 -5.5 0 0 2.75 -5.5 0 0 2.75 -2.75 0 0 2.75 -2.75 0 0 2.75 -2.75 0 0 2.75 -2.75 0 0 2.75 -2.75 0 0 2.75 -2.75 0 0 5.5 2.75 0 0 2.75 8.25 0 0 2.75 8.25 0 0 2.75 2.75 0 0 2.75 5.5 0 0 2.75 5.5 0 0 2.75 2.75 0 0 2.75 2.75 0 0 2.75 2.75 0 0 2.75 5.5 0 0 5.5 2.75 0 0 2.75 2.75 0 0 2.75 2.75 0 0 -2.75 2.75 0 0 -2.75 2.75 0 0 -2.75 2.75 0 0 -2.75 2.75 0 0 -2.75 5.5 0 0 -2.75 2.75 0 0 -2.75 5.5 0 0 -2.75 2.75 0 0 -2.75 5.5 0 0 -2.75 5.5 0 0 -2.75 5.5 0 0 -2.75 5.5 0 0 -2.75 5.5 0 0 -2.75 5.5 0 0 -2.75 5.5 0 0 -2.75 8.25 0 0 -2.75 5.5 0 0 -2.75 5.5 0 0 -2.75 5.5 0 0 -2.75 8.25 0 0 -2.75 5.5 0 0 -2.75 5.5 0 0 -2.75 8.25 0 0 -2.75 5.5 0 0 -2.75 5.5 0 0 -2.75 5.5 0 0 -2.75 11 0 0 -2.75 11 0 0 -2.75 30.25 0 0 2.75 11 0 0 2.75 5.5 0 0 2.75 11 0 0 2.75 5.5 0 0 2.75 5.5 0 0 2.75 5.5 0 0 2.75 5.5 0 0 2.75 5.5 0 0 2.75 5.5 0 0 2.75 2.75 0 0 2.75 8.25 0 0 2.75 5.5 0 0 -2.75 -2.75 0 0 -2.75 -2.75 0 0 -2.75 -2.75 0 0 -2.75 -2.75 0 0 -2.75 -2.75 0 0 -2.75 -2.75 0 0 -2.75 -2.75 0 0 -2.75 -2.75 0 0 -2.75 -2.75 0 0 -2.75 -2.75 0 0 -2.75 -2.75 0 0 -2.75 -2.75 0 0 -2.75 -2.75 0 0 -2.75 -2.75 0 0 -2.75 -5.5 0 0 -2.75 -2.75 0 0 -2.75 -2.75 0 0 -2.75 -5.5 0 0 -2.75 -2.75 0 0 -2.75 -5.5 0 0 -2.75 -2.75 0 0 -2.75 -5.5 0 0 -2.75 -2.75 0 0 -2.75 -5.5 0 0 -2.75 -5.5 0 0 -2.75 -5.5 0 0 -2.75 -5.5 0 0 -2.75 -5.5 0 0 -2.75 -16.5 0 0 -2.75 -30.25 0 0 2.75zm-321.75 0l-5.5 0 0 2.75 -8.25 0 0 2.75 -5.5 0 0 2.75 -2.75 0 0 2.75 -5.5 0 0 2.75 -5.5 0 0 2.75 -5.5 0 0 2.75 -5.5 0 0 5.5 11 0 0 2.75 8.25 0 0 2.75 8.25 0 0 2.75 11 0 0 2.75 19.25 0 0 2.75 8.25 0 0 2.75 5.5 0 0 2.75 5.5 0 0 2.75 5.5 0 0 2.75 5.5 0 0 2.75 5.5 0 0 2.75 5.5 0 0 2.75 8.25 0 0 2.75 2.75 0 0 2.75 5.5 0 0 2.75 8.25 0 0 2.75 5.5 0 0 2.75 5.5 0 0 2.75 13.75 0 0 2.75 8.25 0 0 2.75 5.5 0 0 2.75 11 0 0 2.75 8.25 0 0 2.75 8.25 0 0 -11 2.75 0 0 -5.5 2.75 0 0 -5.5 2.75 0 0 -2.75 2.75 0 0 -2.75 2.75 0 0 -2.75 2.75 0 0 -2.75 2.75 0 0 -2.75 5.5 0 0 -5.5 -13.75 0 0 -2.75 -5.5 0 0 -2.75 -8.25 0 0 -2.75 -11 0 0 -2.75 -5.5 0 0 -2.75 -5.5 0 0 -2.75 -8.25 0 0 -2.75 -5.5 0 0 -2.75 -5.5 0 0 -2.75 -5.5 0 0 -2.75 -5.5 0 0 -2.75 -5.5 0 0 -2.75 -5.5 0 0 -2.75 -5.5 0 0 -2.75 -8.25 0 0 -2.75 -5.5 0 0 -2.75 -11 0 0 -2.75 -5.5 0 0 -2.75 -44 0 0 2.75z"/>
  <path id="outline" class="fil2" d="M109.58 856.49l2.75 0 0 2.75 5.5 0 0 2.75 5.5 0 0 2.75 5.5 0 0 2.75 5.5 0 0 2.75 8.25 0 0 2.75 5.5 0 0 2.75 8.25 0 0 2.75 13.75 0 0 2.75 16.5 0 0 2.75 24.75 0 0 2.75 49.5 0 0 2.75 27.5 0 0 2.75 24.75 0 0 2.75 16.5 0 0 2.75 24.75 0 0 2.75 13.75 0 0 2.75 30.25 0 0 2.75 11 0 0 2.75 68.75 0 0 -2.75 16.5 0 0 -2.75 19.25 0 0 -2.75 11 0 0 -2.75 82.5 0 0 -2.75 16.5 0 0 -2.75 13.75 0 0 -2.75 13.75 0 0 -2.75 8.25 0 0 -2.75 5.5 0 0 -2.75 5.5 0 0 -2.75 5.5 0 0 -2.75 5.5 0 0 -2.75 2.75 0 0 13.75 -2.75 0 0 5.5 -2.75 0 0 13.75 -2.75 0 0 13.75 -2.75 0 0 11 -2.75 0 0 22 -2.75 0 0 27.5 -2.75 0 0 49.5 -2.75 0 0 154 -2.75 0 0 24.75 -2.75 0 0 27.5 -2.75 0 0 22 -2.75 0 0 8.25 -2.75 0 0 16.5 -2.75 0 0 13.75 -2.75 0 0 13.75 -2.75 0 0 16.5 -2.75 0 0 13.75 -2.75 0 0 11 -2.75 0 0 8.26 -2.75 0 0 13.74 -2.75 0 0 11.01 -2.75 0 0 8.25 -2.75 0 0 5.49 -2.75 0 0 8.25 -2.75 0 0 8.25 -2.75 0 0 11.01 -2.75 0 0 8.25 -2.75 0 0 5.49 -2.75 0 0 5.5 -2.75 0 0 5.51 -2.75 0 0 8.25 -2.75 0 0 8.25 -2.75 0 0 5.5 -2.75 0 0 5.49 -2.75 0 0 8.25 -2.75 0 0 5.51 -2.75 0 0 5.5 -2.75 0 0 5.49 -2.75 0 0 5.51 -2.75 0 0 8.25 -2.75 0 0 5.49 -2.75 0 0 5.5 -2.75 0 0 5.51 -2.75 0 0 5.5 -2.75 0 0 5.49 -2.75 0 0 2.75 -2.75 0 0 5.5 -2.75 0 0 5.51 -2.75 0 0 5.5 -2.75 0 0 5.49 -2.75 0 0 5.51 -2.75 0 0 5.5 -2.75 0 0 2.75 -2.75 0 0 5.5 -2.75 0 0 5.49 -2.75 0 0 2.76 -2.75 0 0 5.49 -2.75 0 0 5.51 -2.75 0 0 2.74 -2.75 0 0 5.51 -2.75 0 0 2.74 -2.75 0 0 5.51 -2.75 0 0 2.75 -2.75 0 0 2.75 -2.75 0 0 5.49 -2.75 0 0 2.76 -2.75 0 0 5.49 -2.75 0 0 2.76 -2.75 0 0 2.75 -2.75 0 0 5.5 -2.75 0 0 2.75 -2.75 0 0 2.74 -2.75 0 0 2.76 -2.75 0 0 2.75 -2.75 0 0 2.75 -2.75 0 0 2.75 -2.75 0 0 2.75 -2.75 0 0 2.75 -2.75 0 0 2.75 -2.75 0 0 2.75 -2.75 0 0 2.74 -2.75 0 0 2.76 -2.75 0 0 2.75 -5.5 0 0 2.75 -2.75 0 0 2.75 -2.75 0 0 2.75 -2.75 0 0 2.75 -5.5 0 0 2.75 -5.5 0 0 2.75 -5.5 0 0 2.75 -8.25 0 0 2.75 -2.75 0 0 2.75 -16.5 0 0 -2.75 -2.75 0 0 -2.75 -2.75 0 0 -2.75 -2.75 0 0 -2.75 -2.75 0 0 -8.25 -2.75 0 0 -35.76 2.75 0 0 -13.74 2.75 0 0 -11.01 2.75 0 0 -16.5 2.75 0 0 -5.49 2.75 0 0 -16.5 2.75 0 0 -5.5 2.75 0 0 -11 2.75 0 0 -13.75 2.75 0 0 -8.25 2.75 0 0 -11.01 2.75 0 0 -5.49 2.75 0 0 -16.5 2.75 0 0 -5.51 2.75 0 0 -16.5 2.75 0 0 -10.99 2.75 0 0 -13.76 2.75 0 0 -16.5 2.75 0 0 -24.75 2.75 0 0 -22 2.75 0 0 -19.25 2.75 0 0 -33 2.75 0 0 -118.25 -2.75 0 0 -11 -2.75 0 0 -16.5 -2.75 0 0 -22 -2.75 0 0 -11 -2.75 0 0 -11 -2.75 0 0 -5.5 -2.75 0 0 -10.99 -2.75 0 0 -5.51 -2.75 0 0 -8.25 -2.75 0 0 -5.5 -2.75 0 0 -2.75 -2.75 0 0 -5.5 -2.75 0 0 -2.75 -2.75 0 0 -2.75 -2.75 0 0 -2.75 -2.75 0 0 -2.75 -2.75 0 0 -2.75 -5.5 0 0 -2.75 -5.5 0 0 -2.75 -22 0 0 2.75 -5.5 0 0 2.75 -5.5 0 0 2.75 -2.75 0 0 2.75 -5.5 0 0 2.75 -2.75 0 0 2.75 -2.75 0 0 2.75 -2.75 0 0 2.75 -2.75 0 0 2.75 -2.75 0 0 2.75 -2.75 0 0 2.75 -2.75 0 0 5.5 -2.75 0 0 2.75 -2.75 0 0 2.75 -2.75 0 0 5.51 -2.75 0 0 2.74 -2.75 0 0 2.75 -2.75 0 0 5.5 -2.75 0 0 2.75 -2.75 0 0 5.5 -2.75 0 0 2.75 -2.75 0 0 5.5 -2.75 0 0 2.75 -2.75 0 0 5.5 -2.75 0 0 5.51 -2.75 0 0 2.74 -2.75 0 0 5.5 -2.75 0 0 5.5 -2.75 0 0 5.5 -2.75 0 0 2.75 -2.75 0 0 5.5 -2.75 0 0 5.5 -2.75 0 0 5.5 -2.75 0 0 5.5 -2.75 0 0 2.75 -2.75 0 0 5.5 -2.75 0 0 5.5 -2.75 0 0 5.5 -2.75 0 0 5.5 -2.75 0 0 5.5 -2.75 0 0 5.5 -2.75 0 0 5.5 -2.75 0 0 5.5 -2.75 0 0 5.5 -2.75 0 0 5.5 -2.75 0 0 5.5 -2.75 0 0 5.5 -2.75 0 0 5.5 -2.75 0 0 5.5 -2.75 0 0 8.25 -2.75 0 0 5.51 -2.75 0 0 8.24 -2.75 0 0 8.25 -2.75 0 0 5.5 -2.75 0 0 5.5 -2.75 0 0 8.25 -2.75 0 0 5.51 -2.75 0 0 8.25 -2.75 0 0 8.25 -2.75 0 0 10.99 -2.75 0 0 8.25 -2.75 0 0 5.51 -2.75 0 0 8.25 -2.75 0 0 8.25 -2.75 0 0 13.75 -2.75 0 0 8.24 -2.75 0 0 8.25 -2.75 0 0 5.5 -2.75 0 0 11 -2.75 0 0 8.26 -2.75 0 0 5.49 -2.75 0 0 5.51 -2.75 0 0 8.25 -2.75 0 0 8.25 -2.75 0 0 5.49 -2.75 0 0 11.01 -2.75 0 0 8.25 -2.75 0 0 5.49 -2.75 0 0 8.26 -2.75 0 0 5.49 -2.75 0 0 8.25 -2.75 0 0 5.51 -2.75 0 0 5.5 -2.75 0 0 5.5 -2.75 0 0 5.5 -2.75 0 0 5.5 -2.75 0 0 5.49 -2.75 0 0 5.51 -2.75 0 0 2.74 -2.75 0 0 5.51 -2.75 0 0 5.5 -2.75 0 0 2.75 -2.75 0 0 5.5 -2.75 0 0 2.75 -2.75 0 0 5.5 -2.75 0 0 2.75 -2.75 0 0 2.74 -2.75 0 0 2.76 -2.75 0 0 2.75 -2.75 0 0 2.75 -2.75 0 0 2.75 -2.75 0 0 2.75 -2.75 0 0 2.74 -5.5 0 0 2.76 -5.5 0 0 2.75 -19.25 0 0 -2.75 -5.5 0 0 -2.76 -2.75 0 0 -5.49 -2.75 0 0 -2.75 -2.75 0 0 -8.26 -2.75 0 0 -10.99 -2.75 0 0 -8.25 -2.75 0 0 -27.5 -2.75 0 0 -99 2.75 0 0 -38.5 2.75 0 0 -11 2.75 0 0 -38.5 2.75 0 0 -24.75 2.75 0 0 -19.26 2.75 0 0 -19.25 2.75 0 0 -19.25 2.75 0 0 -16.5 2.75 0 0 -11 2.75 0 0 -19.25 2.75 0 0 -8.25 2.75 0 0 -13.75 2.75 0 0 -8.25 2.75 0 0 -11 2.75 0 0 -13.75 2.75 0 0 -11 2.75 0 0 -8.25 2.75 0 0 -11 2.75 0 0 -11 2.75 0 0 -13.75 2.75 0 0 -8.25 2.75 0 0 -11 2.75 0 0 -11 2.75 0 0 -8.25 2.75 0 0 -13.75 2.75 0 0 -11 2.75 0 0 -16.5 2.75 0 0 -8.25 2.75 0 0 -13.75 2.75 0 0 -13.75 2.75 0 0 -16.5 2.75 0 0 -16.5 2.75 0 0 -19.25 2.75 0 0 -19.25 2.75 0 0 -79.75 -2.75 0 0 -16.5 -2.75 0 0 -16.5 -2.75 0 0 -13.75zm492.25 -464.75l-11 0 0 2.75 -11 0 0 2.75 -5.5 0 0 2.75 -5.5 0 0 2.75 -5.5 0 0 2.75 -8.25 0 0 2.75 -5.5 0 0 2.75 -5.5 0 0 2.75 -8.25 0 0 2.75 -5.5 0 0 2.75 -5.5 0 0 2.75 -5.5 0 0 2.75 -8.25 0 0 2.75 -5.5 0 0 2.75 -5.5 0 0 2.75 -5.5 0 0 2.75 -5.5 0 0 2.75 -5.5 0 0 2.75 -5.5 0 0 2.75 -5.5 0 0 2.75 -2.75 0 0 2.75 -5.5 0 0 2.75 -2.75 0 0 2.75 -5.5 0 0 2.75 -2.75 0 0 2.75 -2.75 0 0 2.75 -2.75 0 0 2.75 -2.75 0 0 2.75 -2.75 0 0 -2.75 -2.75 0 0 -2.75 -2.75 0 0 -5.5 -5.5 0 0 -2.75 -2.75 0 0 -2.75 -2.75 0 0 -2.75 -2.75 0 0 -2.75 -5.5 0 0 -2.75 -5.5 0 0 -2.75 -2.75 0 0 -2.75 -8.25 0 0 -2.75 -8.25 0 0 -2.75 -2.75 0 0 -5.5 2.75 0 0 -2.75 2.75 0 0 -2.75 2.75 0 0 -2.75 2.75 0 0 -2.75 2.75 0 0 -2.75 2.75 0 0 -2.75 5.5 0 0 -2.75 5.5 0 0 -2.75 2.75 0 0 -2.75 5.5 0 0 -2.75 5.5 0 0 -2.75 5.5 0 0 -2.75 5.5 0 0 -2.75 11 0 0 -2.75 5.5 0 0 -2.75 8.25 0 0 -2.75 5.5 0 0 -2.75 8.25 0 0 -2.75 5.5 0 0 -2.75 5.5 0 0 -2.75 5.5 0 0 -2.75 2.75 0 0 -2.75 5.5 0 0 -2.75 5.5 0 0 -2.75 5.5 0 0 -2.75 5.5 0 0 -2.75 5.5 0 0 -2.75 5.5 0 0 -2.75 5.5 0 0 -2.75 5.5 0 0 -2.75 8.25 0 0 -2.75 8.25 0 0 -2.75 30.25 0 0 2.75 16.5 0 0 2.75 5.5 0 0 2.75 5.5 0 0 2.75 5.5 0 0 2.75 5.5 0 0 2.75 5.5 0 0 2.75 2.75 0 0 2.75 5.5 0 0 2.75 2.75 0 0 2.75 5.5 0 0 2.75 2.75 0 0 2.75 5.5 0 0 2.75 2.75 0 0 2.75 2.75 0 0 2.75 5.5 0 0 2.75 2.75 0 0 2.75 2.75 0 0 2.75 2.75 0 0 2.75 2.75 0 0 2.75 2.75 0 0 2.75 2.75 0 0 2.75 2.75 0 0 2.75 2.75 0 0 2.75 2.75 0 0 2.75 2.75 0 0 2.75 2.75 0 0 2.75 2.75 0 0 2.75 2.75 0 0 2.75 2.75 0 0 2.75 -5.5 0 0 -2.75 -8.25 0 0 -2.75 -2.75 0 0 -2.75 -5.5 0 0 -2.75 -5.5 0 0 -2.75 -5.5 0 0 -2.75 -5.5 0 0 -2.75 -5.5 0 0 -2.75 -5.5 0 0 -2.75 -11 0 0 -2.75 -5.5 0 0 -2.75 -11 0 0 -2.75 -30.25 0 0 2.75zm-412.5 -2.75l-5.5 0 0 2.75 -5.5 0 0 2.75 -2.75 0 0 2.75 -5.5 0 0 2.75 -2.75 0 0 2.75 -2.75 0 0 2.75 -2.75 0 0 2.75 -2.75 0 0 2.75 -2.75 0 0 2.75 -2.75 0 0 5.5 -2.75 0 0 2.75 -2.75 0 0 5.5 -2.75 0 0 2.75 -2.75 0 0 5.5 -2.75 0 0 5.5 -2.75 0 0 5.5 -2.75 0 0 5.5 -2.75 0 0 5.5 -2.75 0 0 8.25 -2.75 0 0 8.25 -2.75 0 0 8.25 -2.75 0 0 8.25 -2.75 0 0 5.5 -2.75 0 0 19.25 -2.75 0 0 11 -2.75 0 0 33 2.75 0 0 -2.75 2.75 0 0 -11 2.75 0 0 -5.5 2.75 0 0 -11 2.75 0 0 -8.25 2.75 0 0 -5.5 2.75 0 0 -11 2.75 0 0 -5.5 2.75 0 0 -8.25 2.75 0 0 -5.5 2.75 0 0 -5.5 2.75 0 0 -8.25 2.75 0 0 -5.5 2.75 0 0 -5.5 2.75 0 0 -2.75 2.75 0 0 -5.5 2.75 0 0 -5.5 2.75 0 0 -2.75 2.75 0 0 -5.5 2.75 0 0 -2.75 2.75 0 0 -2.75 2.75 0 0 -5.5 2.75 0 0 -2.75 2.75 0 0 -2.75 2.75 0 0 -2.75 2.75 0 0 -2.75 2.75 0 0 -2.75 5.5 0 0 -2.75 2.75 0 0 -2.75 5.5 0 0 -2.75 8.25 0 0 -2.75 8.25 0 0 -2.75 24.75 0 0 2.75 11 0 0 2.75 5.5 0 0 2.75 8.25 0 0 2.75 5.5 0 0 2.75 5.5 0 0 2.75 5.5 0 0 2.75 5.5 0 0 2.75 5.5 0 0 2.75 8.25 0 0 2.75 5.5 0 0 2.75 5.5 0 0 2.75 8.25 0 0 2.75 5.5 0 0 2.75 5.5 0 0 2.75 13.75 0 0 2.75 5.5 0 0 2.75 8.25 0 0 2.75 11 0 0 2.75 8.25 0 0 2.75 11 0 0 2.75 8.25 0 0 2.75 5.5 0 0 2.75 5.5 0 0 2.75 2.75 0 0 2.75 5.5 0 0 2.75 2.75 0 0 2.75 2.75 0 0 2.75 2.75 0 0 5.5 2.75 0 0 2.75 2.75 0 0 8.25 2.75 0 0 8.25 2.75 0 0 13.75 2.75 0 0 77 -2.75 0 0 11 2.75 0 0 -2.75 2.75 0 0 -5.5 2.75 0 0 -5.5 2.75 0 0 -11 2.75 0 0 -5.5 2.75 0 0 -11 2.75 0 0 -16.5 2.75 0 0 -38.5 -2.75 0 0 -16.5 2.75 0 0 -2.75 2.75 0 0 -2.75 2.75 0 0 -2.75 2.75 0 0 -2.75 2.75 0 0 -2.75 5.5 0 0 -2.75 2.75 0 0 -2.75 2.75 0 0 -2.75 5.5 0 0 -2.75 5.5 0 0 -2.75 2.75 0 0 -2.75 2.75 0 0 -2.75 8.25 0 0 -2.75 5.5 0 0 -2.75 5.5 0 0 -2.75 5.5 0 0 -2.75 8.25 0 0 -2.75 5.5 0 0 -2.75 5.5 0 0 -2.75 5.5 0 0 -2.75 8.25 0 0 -2.75 5.5 0 0 -2.75 5.5 0 0 -2.75 8.25 0 0 -2.75 5.5 0 0 -2.75 5.5 0 0 -2.75 11 0 0 -2.75 11 0 0 -2.75 30.25 0 0 2.75 11 0 0 2.75 8.25 0 0 2.75 5.5 0 0 2.75 5.5 0 0 2.75 5.5 0 0 2.75 8.25 0 0 2.75 5.5 0 0 2.75 5.5 0 0 2.75 5.5 0 0 2.75 8.25 0 0 2.75 8.25 0 0 2.75 11 0 0 2.75 11 0 0 2.75 2.75 0 0 2.75 2.75 0 0 2.75 2.75 0 0 5.5 2.75 0 0 2.75 2.75 0 0 5.5 2.75 0 0 5.5 2.75 0 0 5.5 2.75 0 0 5.5 2.75 0 0 5.5 2.75 0 0 8.25 2.75 0 0 5.5 2.75 0 0 8.25 2.75 0 0 8.25 2.75 0 0 16.5 2.75 0 0 8.25 2.75 0 0 68.75 -2.75 0 0 16.5 -2.75 0 0 8.25 -2.75 0 0 13.75 -2.75 0 0 8.25 -2.75 0 0 8.25 -2.75 0 0 13.75 -2.75 0 0 5.5 -2.75 0 0 11 -2.75 0 0 5.5 -2.75 0 0 8.25 -2.75 0 0 5.5 -2.75 0 0 8.25 -2.75 0 0 5.5 -2.75 0 0 8.25 -2.75 0 0 5.5 -2.75 0 0 5.5 -2.75 0 0 8.25 -2.75 0 0 5.5 -2.75 0 0 5.5 -2.75 0 0 5.5 -2.75 0 0 8.25 -2.75 0 0 5.5 -2.75 0 0 5.5 -2.75 0 0 5.5 -2.75 0 0 5.5 -2.75 0 0 5.5 -2.75 0 0 5.5 -2.75 0 0 2.75 -2.75 0 0 2.75 -2.75 0 0 5.5 -2.75 0 0 2.75 -2.75 0 0 2.75 -2.75 0 0 2.75 -2.75 0 0 2.75 -2.75 0 0 2.75 -2.75 0 0 2.75 -2.75 0 0 2.75 -5.5 0 0 2.75 -2.75 0 0 2.75 -5.5 0 0 2.75 -5.5 0 0 2.75 -8.25 0 0 2.75 -5.5 0 0 2.75 -13.75 0 0 2.75 -16.5 0 0 2.75 -22 0 0 2.75 -77 0 0 2.75 -13.75 0 0 2.75 -27.5 0 0 2.75 -60.5 0 0 -2.75 -27.5 0 0 -2.75 -16.5 0 0 -2.75 -27.5 0 0 -2.75 -16.5 0 0 -2.75 -22 0 0 -2.75 -33 0 0 -2.75 -38.5 0 0 -2.75 -35.75 0 0 -2.75 -16.5 0 0 -2.75 -8.25 0 0 -2.75 -13.75 0 0 -2.75 -8.25 0 0 -2.75 -5.5 0 0 -2.75 -5.5 0 0 -2.75 -5.5 0 0 -2.75 -5.5 0 0 -2.75 -5.5 0 0 -2.75 -2.75 0 0 -2.75 -2.75 0 0 -2.75 -5.5 0 0 -2.75 -2.75 0 0 -2.75 -2.75 0 0 -2.75 -2.75 0 0 -2.75 -2.75 0 0 -2.75 -2.75 0 0 -5.5 -2.75 0 0 -2.75 -2.75 0 0 -5.5 -2.75 0 0 -8.25 -2.75 0 0 -5.5 -2.75 0 0 -5.5 -2.75 0 0 -8.25 -2.75 0 0 -5.5 -2.75 0 0 -8.25 -2.75 0 0 -5.5 -2.75 0 0 -8.25 -2.75 0 0 -5.5 -2.75 0 0 -8.25 -2.75 0 0 -5.5 -2.75 0 0 -8.25 -2.75 0 0 -8.25 -2.75 0 0 -11 -2.75 0 0 -5.5 -2.75 0 0 -8.25 -2.75 0 0 -13.75 -2.75 0 0 -5.5 -2.75 0 0 -19.25 -2.75 0 0 -8.25 -2.75 0 0 -19.25 -2.75 0 0 -90.75 2.75 0 0 -19.25 2.75 0 0 -8.25 2.75 0 0 -8.25 2.75 0 0 -13.75 2.75 0 0 -2.75 2.75 0 0 -8.25 2.75 0 0 -8.25 2.75 0 0 -5.5 2.75 0 0 -5.5 2.75 0 0 -5.5 2.75 0 0 -5.5 2.75 0 0 -2.75 2.75 0 0 -5.5 2.75 0 0 -2.75 2.75 0 0 -5.5 2.75 0 0 -2.75 2.75 0 0 -2.75 2.75 0 0 -2.75 2.75 0 0 -2.75 2.75 0 0 -2.75 2.75 0 0 -2.75 2.75 0 0 -2.75 2.75 0 0 -2.75 2.75 0 0 -2.75 5.5 0 0 -2.75 2.75 0 0 -2.75 5.5 0 0 -2.75 5.5 0 0 -2.75 5.5 0 0 -2.75 8.25 0 0 -2.75 11 0 0 -2.75 30.25 0 0 2.75 16.5 0 0 2.75 5.5 0 0 2.75 -2.75 0 0 2.75zm5.5 -27.5l5.5 0 0 -2.75 5.5 0 0 -2.75 5.5 0 0 -2.75 5.5 0 0 -2.75 2.75 0 0 -2.75 5.5 0 0 -2.75 8.25 0 0 -2.75 5.5 0 0 -2.75 44 0 0 2.75 5.5 0 0 2.75 11 0 0 2.75 5.5 0 0 2.75 8.25 0 0 2.75 5.5 0 0 2.75 5.5 0 0 2.75 5.5 0 0 2.75 5.5 0 0 2.75 5.5 0 0 2.75 5.5 0 0 2.75 5.5 0 0 2.75 8.25 0 0 2.75 5.5 0 0 2.75 5.5 0 0 2.75 11 0 0 2.75 8.25 0 0 2.75 5.5 0 0 2.75 13.75 0 0 5.5 -5.5 0 0 2.75 -2.75 0 0 2.75 -2.75 0 0 2.75 -2.75 0 0 2.75 -2.75 0 0 2.75 -2.75 0 0 5.5 -2.75 0 0 5.5 -2.75 0 0 11 -8.25 0 0 -2.75 -8.25 0 0 -2.75 -11 0 0 -2.75 -5.5 0 0 -2.75 -8.25 0 0 -2.75 -13.75 0 0 -2.75 -5.5 0 0 -2.75 -5.5 0 0 -2.75 -8.25 0 0 -2.75 -5.5 0 0 -2.75 -2.75 0 0 -2.75 -8.25 0 0 -2.75 -5.5 0 0 -2.75 -5.5 0 0 -2.75 -5.5 0 0 -2.75 -5.5 0 0 -2.75 -5.5 0 0 -2.75 -5.5 0 0 -2.75 -8.25 0 0 -2.75 -19.25 0 0 -2.75 -11 0 0 -2.75 -8.25 0 0 -2.75 -8.25 0 0 -2.75 -11 0 0 -5.5zm44 -44l-5.5 0 0 2.75 -11 0 0 2.75 -5.5 0 0 2.75 -5.5 0 0 2.75 -5.5 0 0 2.75 -5.5 0 0 2.75 -5.5 0 0 2.75 -5.5 0 0 2.75 -5.5 0 0 2.75 -5.5 0 0 2.75 -2.75 0 0 2.75 -5.5 0 0 2.75 -5.5 0 0 2.75 -5.5 0 0 2.75 -24.75 0 0 2.75 -16.5 0 0 2.75 -5.5 0 0 2.75 -8.25 0 0 2.75 -5.5 0 0 2.75 -5.5 0 0 2.75 -2.75 0 0 2.75 -5.5 0 0 2.75 -2.75 0 0 2.75 -2.75 0 0 2.75 -2.75 0 0 2.75 -2.75 0 0 2.75 -5.5 0 0 2.75 -2.75 0 0 2.75 -2.75 0 0 2.75 -2.75 0 0 5.5 -2.75 0 0 2.75 -2.75 0 0 2.75 -2.75 0 0 5.5 -2.75 0 0 2.75 -2.75 0 0 2.75 -2.75 0 0 5.5 -2.75 0 0 5.5 -2.75 0 0 2.75 -2.75 0 0 5.5 -2.75 0 0 5.5 -2.75 0 0 5.5 -2.75 0 0 5.5 -2.75 0 0 8.25 -2.75 0 0 5.5 -2.75 0 0 11 -2.75 0 0 5.5 -2.75 0 0 11 -2.75 0 0 16.5 -2.75 0 0 11 -2.75 0 0 96.25 2.75 0 0 19.25 2.75 0 0 16.5 2.75 0 0 11 2.75 0 0 11 2.75 0 0 8.25 2.75 0 0 11 2.75 0 0 8.25 2.75 0 0 5.5 2.75 0 0 8.25 2.75 0 0 8.25 2.75 0 0 5.5 2.75 0 0 8.25 2.75 0 0 8.25 2.75 0 0 5.5 2.75 0 0 8.25 2.75 0 0 8.25 2.75 0 0 5.5 2.75 0 0 8.25 2.75 0 0 5.5 2.75 0 0 5.5 2.75 0 0 8.25 2.75 0 0 5.5 2.75 0 0 5.5 2.75 0 0 5.5 2.75 0 0 5.5 2.75 0 0 8.25 2.75 0 0 11 2.75 0 0 13.75 2.75 0 0 11 2.75 0 0 16.5 2.75 0 0 16.5 2.75 0 0 77 -2.75 0 0 24.75 -2.75 0 0 11 -2.75 0 0 22 -2.75 0 0 16.5 -2.75 0 0 8.25 -2.75 0 0 19.25 -2.75 0 0 11 -2.75 0 0 11 -2.75 0 0 13.75 -2.75 0 0 8.25 -2.75 0 0 13.75 -2.75 0 0 8.25 -2.75 0 0 11 -2.75 0 0 13.75 -2.75 0 0 11 -2.75 0 0 8.25 -2.75 0 0 13.75 -2.75 0 0 8.25 -2.75 0 0 8.25 -2.75 0 0 11 -2.75 0 0 13.75 -2.75 0 0 11 -2.75 0 0 11 -2.75 0 0 11 -2.75 0 0 13.75 -2.75 0 0 19.25 -2.75 0 0 11 -2.75 0 0 24.75 -2.75 0 0 22 -2.75 0 0 13.76 -2.75 0 0 41.25 -2.75 0 0 30.24 -2.75 0 0 24.75 -2.75 0 0 132.01 2.75 0 0 19.25 2.75 0 0 10.99 2.75 0 0 11.01 2.75 0 0 5.49 2.75 0 0 5.51 2.75 0 0 2.75 2.75 0 0 5.5 2.75 0 0 2.75 2.75 0 0 2.75 5.5 0 0 2.75 2.75 0 0 2.74 5.5 0 0 2.76 5.5 0 0 2.75 22 0 0 -2.75 11 0 0 -2.76 5.5 0 0 -2.74 2.75 0 0 -2.75 5.5 0 0 -2.75 2.75 0 0 -2.75 2.75 0 0 -2.75 2.75 0 0 -2.75 2.75 0 0 -2.75 2.75 0 0 -2.75 2.75 0 0 -2.76 2.75 0 0 -2.74 2.75 0 0 -2.75 2.75 0 0 -5.5 5.5 0 0 -5.51 2.75 0 0 -2.74 2.75 0 0 -5.51 2.75 0 0 -2.74 2.75 0 0 -5.5 2.75 0 0 -5.5 2.75 0 0 -2.76 2.75 0 0 -5.49 2.75 0 0 -5.5 2.75 0 0 -5.51 2.75 0 0 -5.49 2.75 0 0 -5.5 2.75 0 0 -5.5 2.75 0 0 -8.26 2.75 0 0 -5.49 2.75 0 0 -5.5 2.75 0 0 -8.25 2.75 0 0 -5.51 2.75 0 0 -8.25 2.75 0 0 -5.49 2.75 0 0 -8.25 2.75 0 0 -8.26 2.75 0 0 -8.24 2.75 0 0 -5.5 2.75 0 0 -11 2.75 0 0 -8.25 2.75 0 0 -8.26 2.75 0 0 -5.49 2.75 0 0 -8.25 2.75 0 0 -8.25 2.75 0 0 -11 2.75 0 0 -5.5 2.75 0 0 -8.25 2.75 0 0 -8.25 2.75 0 0 -8.25 2.75 0 0 -8.25 2.75 0 0 -8.25 2.75 0 0 -11.01 2.75 0 0 -8.25 2.75 0 0 -8.25 2.75 0 0 -5.5 2.75 0 0 -8.24 2.75 0 0 -5.51 2.75 0 0 -8.25 2.75 0 0 -5.5 2.75 0 0 -5.49 2.75 0 0 -8.26 2.75 0 0 -5.5 2.75 0 0 -5.5 2.75 0 0 -5.5 2.75 0 0 -5.5 2.75 0 0 -5.5 2.75 0 0 -5.5 2.75 0 0 -5.5 2.75 0 0 -5.5 2.75 0 0 -5.5 2.75 0 0 -5.5 2.75 0 0 -5.5 2.75 0 0 -2.75 2.75 0 0 -5.5 2.75 0 0 -5.5 2.75 0 0 -5.5 2.75 0 0 -2.75 2.75 0 0 -5.5 2.75 0 0 -5.5 2.75 0 0 -5.5 2.75 0 0 -5.5 2.75 0 0 -2.75 2.75 0 0 -5.5 2.75 0 0 -5.5 2.75 0 0 -5.5 2.75 0 0 -2.75 2.75 0 0 -5.5 2.75 0 0 -5.5 2.75 0 0 -2.75 2.75 0 0 -5.49 2.75 0 0 -2.76 2.75 0 0 -5.5 2.75 0 0 -2.75 2.75 0 0 -2.75 2.75 0 0 -5.5 2.75 0 0 -2.75 2.75 0 0 -2.74 2.75 0 0 -2.76 2.75 0 0 -5.5 2.75 0 0 -2.75 2.75 0 0 -2.75 5.5 0 0 -2.75 2.75 0 0 -2.75 5.5 0 0 -2.75 13.75 0 0 2.75 2.75 0 0 2.75 2.75 0 0 2.75 2.75 0 0 5.5 2.75 0 0 5.5 2.75 0 0 5.5 2.75 0 0 5.5 2.75 0 0 8.25 2.75 0 0 11 2.75 0 0 16.5 2.75 0 0 8.25 2.75 0 0 19.25 2.75 0 0 16.5 2.75 0 0 126.5 -2.75 0 0 27.5 -2.75 0 0 19.26 -2.75 0 0 19.24 -2.75 0 0 19.25 -2.75 0 0 16.51 -2.75 0 0 13.74 -2.75 0 0 13.76 -2.75 0 0 16.5 -2.75 0 0 13.75 -2.75 0 0 8.25 -2.75 0 0 8.24 -2.75 0 0 13.75 -2.75 0 0 11.01 -2.75 0 0 5.49 -2.75 0 0 11.01 -2.75 0 0 8.25 -2.75 0 0 13.74 -2.75 0 0 8.25 -2.75 0 0 11.01 -2.75 0 0 11 -2.75 0 0 16.5 -2.75 0 0 44 2.75 0 0 5.5 2.75 0 0 5.5 2.75 0 0 5.5 2.75 0 0 5.5 2.75 0 0 2.75 2.75 0 0 5.5 5.5 0 0 2.75 5.5 0 0 2.75 38.5 0 0 -2.75 5.5 0 0 -2.75 8.25 0 0 -2.75 5.5 0 0 -2.75 2.75 0 0 -2.75 5.5 0 0 -2.75 2.75 0 0 -2.75 5.5 0 0 -2.75 2.75 0 0 -2.75 2.75 0 0 -2.75 5.5 0 0 -2.75 2.75 0 0 -2.75 2.75 0 0 -2.75 2.75 0 0 -2.75 2.75 0 0 -2.75 2.75 0 0 -2.75 2.75 0 0 -2.75 2.75 0 0 -2.75 2.75 0 0 -2.76 2.75 0 0 -2.74 2.75 0 0 -5.5 2.75 0 0 -2.75 2.75 0 0 -2.75 2.75 0 0 -2.75 2.75 0 0 -2.75 2.75 0 0 -5.51 2.75 0 0 -2.74 2.75 0 0 -2.75 2.75 0 0 -5.5 2.75 0 0 -2.75 2.75 0 0 -5.5 2.75 0 0 -2.75 2.75 0 0 -2.76 2.75 0 0 -5.49 2.75 0 0 -2.75 2.75 0 0 -5.5 2.75 0 0 -2.76 2.75 0 0 -5.49 2.75 0 0 -5.5 2.75 0 0 -2.75 2.75 0 0 -5.5 2.75 0 0 -2.75 2.75 0 0 -5.5 2.75 0 0 -5.5 2.75 0 0 -5.5 2.75 0 0 -5.5 2.75 0 0 -5.51 2.75 0 0 -2.74 2.75 0 0 -5.51 2.75 0 0 -5.49 2.75 0 0 -8.26 2.75 0 0 -5.49 2.75 0 0 -5.51 2.75 0 0 -5.49 2.75 0 0 -5.5 2.75 0 0 -5.51 2.75 0 0 -5.49 2.75 0 0 -5.5 2.75 0 0 -5.51 2.75 0 0 -5.49 2.75 0 0 -8.25 2.75 0 0 -5.5 2.75 0 0 -5.51 2.75 0 0 -8.25 2.75 0 0 -5.5 2.75 0 0 -8.25 2.75 0 0 -5.49 2.75 0 0 -8.25 2.75 0 0 -8.25 2.75 0 0 -5.51 2.75 0 0 -8.25 2.75 0 0 -10.99 2.75 0 0 -5.51 2.75 0 0 -5.5 2.75 0 0 -11 2.75 0 0 -10.99 2.75 0 0 -11.01 2.75 0 0 -11 2.75 0 0 -11 2.75 0 0 -16.5 2.75 0 0 -11 2.75 0 0 -16.5 2.75 0 0 -11 2.75 0 0 -16.5 2.75 0 0 -27.5 2.75 0 0 -22 2.75 0 0 -13.75 2.75 0 0 -44 2.75 0 0 -154 2.75 0 0 -44 2.75 0 0 -19.25 2.75 0 0 -11 2.75 0 0 -16.5 2.75 0 0 -8.25 2.75 0 0 -13.75 2.75 0 0 -11 2.75 0 0 -13.75 2.75 0 0 -8.25 2.75 0 0 -8.25 2.75 0 0 -8.25 2.75 0 0 -5.5 2.75 0 0 -8.25 2.75 0 0 -5.5 2.75 0 0 -8.25 2.75 0 0 -5.5 2.75 0 0 -5.5 2.75 0 0 -5.5 2.75 0 0 -5.5 2.75 0 0 -5.5 2.75 0 0 -8.25 2.75 0 0 -5.5 2.75 0 0 -8.25 2.75 0 0 -5.5 2.75 0 0 -8.25 2.75 0 0 -5.5 2.75 0 0 -8.25 2.75 0 0 -5.5 2.75 0 0 -8.25 2.75 0 0 -5.5 2.75 0 0 -5.5 2.75 0 0 -5.5 2.75 0 0 -11 2.75 0 0 -5.5 2.75 0 0 -11 2.75 0 0 -11 2.75 0 0 -8.25 2.75 0 0 -8.25 2.75 0 0 -16.5 2.75 0 0 -13.75 2.75 0 0 -22 2.75 0 0 -55 -2.75 0 0 -8.25 -2.75 0 0 -13.75 -2.75 0 0 -16.5 -2.75 0 0 -5.5 -2.75 0 0 -8.25 -2.75 0 0 -8.25 -2.75 0 0 -5.5 -2.75 0 0 -8.25 -2.75 0 0 -5.5 -2.75 0 0 -5.5 -2.75 0 0 -2.75 -2.75 0 0 -5.5 -2.75 0 0 -5.5 -2.75 0 0 -2.75 -2.75 0 0 -5.5 -2.75 0 0 -2.75 -2.75 0 0 -2.75 -2.75 0 0 -5.5 -2.75 0 0 -2.75 -2.75 0 0 -2.75 -2.75 0 0 -2.75 -2.75 0 0 -5.5 -2.75 0 0 -2.75 -2.75 0 0 -2.75 -2.75 0 0 -2.75 -2.75 0 0 -2.75 -2.75 0 0 -2.75 -2.75 0 0 -2.75 -2.75 0 0 -2.75 -2.75 0 0 -2.75 -2.75 0 0 -2.75 -2.75 0 0 -2.75 -2.75 0 0 -2.75 -2.75 0 0 -2.75 -2.75 0 0 -2.75 -2.75 0 0 -2.75 -2.75 0 0 -2.75 -2.75 0 0 -2.75 -2.75 0 0 -2.75 -2.75 0 0 -2.75 -2.75 0 0 -2.75 -2.75 0 0 -2.75 -5.5 0 0 -2.75 -2.75 0 0 -2.75 -2.75 0 0 -2.75 -2.75 0 0 -2.75 -5.5 0 0 -2.75 -2.75 0 0 -2.75 -5.5 0 0 -2.75 -2.75 0 0 -2.75 -5.5 0 0 -2.75 -2.75 0 0 -2.75 -5.5 0 0 -2.75 -5.5 0 0 -2.75 -5.5 0 0 -2.75 -5.5 0 0 -2.75 -5.5 0 0 -2.75 -8.25 0 0 -2.75 -8.25 0 0 -2.75 -11 0 0 -2.75 -30.25 0 0 2.75 -8.25 0 0 2.75 -13.75 0 0 2.75 -5.5 0 0 2.75 -5.5 0 0 2.75 -5.5 0 0 2.75 -5.5 0 0 2.75 -5.5 0 0 2.75 -5.5 0 0 2.75 -5.5 0 0 2.75 -5.5 0 0 2.75 -5.5 0 0 2.75 -5.5 0 0 2.75 -5.5 0 0 2.75 -5.5 0 0 2.75 -5.5 0 0 2.75 -8.25 0 0 2.75 -5.5 0 0 2.75 -8.25 0 0 2.75 -41.25 0 0 -2.75 -11 0 0 -2.75 -8.25 0 0 -2.75 -5.5 0 0 -2.75 -8.25 0 0 -2.75 -5.5 0 0 -2.75 -5.5 0 0 -2.75 -8.25 0 0 -2.75 -5.5 0 0 -2.75 -5.5 0 0 -2.75 -5.5 0 0 -2.75 -5.5 0 0 -2.75 -5.5 0 0 -2.75 -5.5 0 0 -2.75 -8.25 0 0 -2.75 -5.5 0 0 -2.75 -5.5 0 0 -2.75 -11 0 0 -2.75 -5.5 0 0 -2.75 -46.75 0 0 2.75z"/>
 </g>
</svg>
