<?xml version="1.0" encoding="UTF-8"?>
<!DOCTYPE svg PUBLIC "-//W3C//DTD SVG 1.1//EN" "http://www.w3.org/Graphics/SVG/1.1/DTD/svg11.dtd">
<!-- Creator: CorelDRAW (Versión de evaluación) -->
<svg xmlns="http://www.w3.org/2000/svg" xml:space="preserve" width="523px" height="2052px" version="1.1" style="shape-rendering:geometricPrecision; text-rendering:geometricPrecision; image-rendering:optimizeQuality; fill-rule:evenodd; clip-rule:evenodd"
viewBox="0 0 523 2052.74"
 xmlns:xlink="http://www.w3.org/1999/xlink"
 xmlns:xodm="http://www.corel.com/coreldraw/odm/2003">
 <defs>
  <style type="text/css">
   <![CDATA[
    .fil2 {fill:#4B4B4D}
    .fil1 {fill:#F3EDD9}
    .fil0 {fill:#F8FBFF}
   ]]>
  </style>
 </defs>
 <g id="deciduous">
  <metadata id="CorelCorpID_0Corel-Layer"/>
  <polygon id="crown" class="fil0" points="263.73,1164.68 283,1164.68 283,1167.43 291.25,1167.43 291.25,1170.18 299.51,1170.18 299.51,1172.93 305.02,1172.93 305.02,1175.69 310.52,1175.69 310.52,1178.44 316.03,1178.44 316.03,1181.19 321.53,1181.19 321.53,1183.94 327.04,1183.94 327.04,1186.7 329.79,1186.7 329.79,1189.45 335.3,1189.45 335.3,1192.2 338.05,1192.2 338.05,1194.96 340.8,1194.96 340.8,1197.71 343.56,1197.71 343.56,1200.46 349.06,1200.46 349.06,1203.21 351.81,1203.21 351.81,1205.96 354.56,1205.96 354.56,1208.72 357.32,1208.72 357.32,1211.47 360.07,1211.47 360.07,1214.22 362.82,1214.22 362.82,1219.73 365.57,1219.73 365.57,1222.48 368.33,1222.48 368.33,1225.23 371.08,1225.23 371.08,1227.99 373.83,1227.99 373.83,1230.74 376.59,1230.74 376.59,1233.49 379.34,1233.49 379.34,1239 382.09,1239 382.09,1241.75 384.84,1241.75 384.84,1244.5 387.59,1244.5 387.59,1250.01 390.35,1250.01 390.35,1252.76 393.1,1252.76 393.1,1258.27 395.85,1258.27 395.85,1261.02 398.61,1261.02 398.61,1266.52 401.36,1266.52 401.36,1272.03 404.11,1272.03 404.11,1274.78 406.87,1274.78 406.87,1280.29 409.62,1280.29 409.62,1285.79 412.37,1285.79 412.37,1291.3 415.12,1291.3 415.12,1296.8 417.88,1296.8 417.88,1302.31 420.63,1302.31 420.63,1307.81 423.38,1307.81 423.38,1313.32 426.13,1313.32 426.13,1321.58 428.88,1321.58 428.88,1327.08 431.64,1327.08 431.64,1332.59 434.39,1332.59 434.39,1340.84 437.14,1340.84 437.14,1349.1 439.9,1349.1 439.9,1354.61 442.65,1354.61 442.65,1362.86 445.4,1362.86 445.4,1371.12 448.15,1371.12 448.15,1379.38 450.91,1379.38 450.91,1384.89 453.66,1384.89 453.66,1395.9 456.41,1395.9 456.41,1406.91 459.17,1406.91 459.17,1412.41 461.92,1412.41 461.92,1423.42 464.67,1423.42 464.67,1431.68 467.42,1431.68 467.42,1439.94 470.17,1439.94 470.17,1456.45 472.93,1456.45 472.93,1467.47 475.68,1467.47 475.68,1478.47 478.43,1478.47 478.43,1486.73 481.19,1486.73 481.19,1503.25 483.94,1503.25 483.94,1519.76 486.69,1519.76 486.69,1539.03 489.44,1539.03 489.44,1555.55 492.2,1555.55 492.2,1583.08 494.95,1583.08 494.95,1621.61 497.7,1621.61 497.7,1687.68 494.95,1687.68 494.95,1712.45 492.2,1712.45 492.2,1726.21 489.44,1726.21 489.44,1731.71 486.69,1731.71 486.69,1739.97 483.94,1739.97 483.94,1748.23 481.19,1748.23 481.19,1753.74 478.43,1753.74 478.43,1756.49 475.68,1756.49 475.68,1762 472.93,1762 472.93,1764.75 470.17,1764.75 470.17,1767.5 467.42,1767.5 467.42,1770.25 464.67,1770.25 464.67,1773 459.17,1773 459.17,1775.76 456.41,1775.76 456.41,1778.51 453.66,1778.51 453.66,1781.26 448.15,1781.26 448.15,1784.02 442.65,1784.02 442.65,1786.77 437.14,1786.77 437.14,1789.52 431.64,1789.52 431.64,1792.27 426.13,1792.27 426.13,1795.03 412.37,1795.03 412.37,1797.78 404.11,1797.78 404.11,1800.53 393.1,1800.53 393.1,1803.29 373.83,1803.29 373.83,1806.04 357.32,1806.04 357.32,1808.79 332.54,1808.79 332.54,1811.54 307.77,1811.54 307.77,1814.29 137.11,1814.29 137.11,1811.54 112.33,1811.54 112.33,1808.79 87.56,1808.79 87.56,1806.04 79.3,1806.04 79.3,1803.29 68.29,1803.29 68.29,1800.53 62.79,1800.53 62.79,1797.78 57.28,1797.78 57.28,1795.03 51.78,1795.03 51.78,1792.27 49.02,1792.27 49.02,1789.52 46.27,1789.52 46.27,1786.77 40.76,1786.77 40.76,1781.26 38.01,1781.26 38.01,1778.51 35.26,1778.51 35.26,1773 32.51,1773 32.51,1767.5 29.76,1767.5 29.76,1756.49 27,1756.49 27,1750.98 24.25,1750.98 24.25,1712.45 21.5,1712.45 21.5,1629.87 24.25,1629.87 24.25,1588.58 27,1588.58 27,1552.8 29.76,1552.8 29.76,1506 32.51,1506 32.51,1483.98 35.26,1483.98 35.26,1456.45 38.01,1456.45 38.01,1442.69 40.76,1442.69 40.76,1423.42 43.52,1423.42 43.52,1404.15 46.27,1404.15 46.27,1395.9 49.02,1395.9 49.02,1379.38 51.78,1379.38 51.78,1368.37 54.53,1368.37 54.53,1354.61 57.28,1354.61 57.28,1346.35 60.03,1346.35 60.03,1340.84 62.79,1340.84 62.79,1329.83 65.54,1329.83 65.54,1321.58 68.29,1321.58 68.29,1313.32 71.05,1313.32 71.05,1307.81 73.8,1307.81 73.8,1302.31 76.55,1302.31 76.55,1294.05 79.3,1294.05 79.3,1288.54 82.05,1288.54 82.05,1283.04 84.81,1283.04 84.81,1277.53 87.56,1277.53 87.56,1272.03 90.31,1272.03 90.31,1266.52 93.07,1266.52 93.07,1261.02 95.82,1261.02 95.82,1258.27 98.57,1258.27 98.57,1252.76 101.32,1252.76 101.32,1250.01 104.08,1250.01 104.08,1244.5 106.83,1244.5 106.83,1241.75 109.58,1241.75 109.58,1239 112.33,1239 112.33,1236.25 115.09,1236.25 115.09,1230.74 117.84,1230.74 117.84,1227.99 120.59,1227.99 120.59,1225.23 123.34,1225.23 123.34,1222.48 126.1,1222.48 126.1,1219.73 128.85,1219.73 128.85,1216.98 131.6,1216.98 131.6,1214.22 134.35,1214.22 134.35,1211.47 137.11,1211.47 137.11,1208.72 139.86,1208.72 139.86,1205.96 142.61,1205.96 142.61,1203.21 145.37,1203.21 145.37,1200.46 148.12,1200.46 148.12,1197.71 153.62,1197.71 153.62,1194.96 156.37,1194.96 156.37,1192.2 159.13,1192.2 159.13,1189.45 164.63,1189.45 164.63,1186.7 167.39,1186.7 167.39,1183.94 172.89,1183.94 172.89,1181.19 178.4,1181.19 178.4,1178.44 183.9,1178.44 183.9,1175.69 189.41,1175.69 189.41,1172.93 197.66,1172.93 197.66,1170.18 203.17,1170.18 203.17,1167.43 216.93,1167.43 216.93,1164.68 230.7,1164.68 230.7,1161.92 263.73,1161.92 "/>
  <polygon id="root" class="fil1" points="252.72,245.3 258.22,245.3 258.22,250.8 260.98,250.8 260.98,253.56 263.73,253.56 263.73,259.06 266.48,259.06 266.48,264.57 269.23,264.57 269.23,270.07 271.98,270.07 271.98,278.33 274.74,278.33 274.74,289.34 277.49,289.34 277.49,305.86 280.24,305.86 280.24,322.37 283,322.37 283,338.89 285.75,338.89 285.75,371.92 288.5,371.92 288.5,399.45 291.25,399.45 291.25,418.72 294.01,418.72 294.01,451.75 296.76,451.75 296.76,468.26 299.51,468.26 299.51,490.28 302.27,490.28 302.27,509.55 305.02,509.55 305.02,526.07 307.77,526.07 307.77,542.58 310.52,542.58 310.52,559.1 313.27,559.1 313.27,578.37 316.03,578.37 316.03,603.14 318.78,603.14 318.78,616.91 321.53,616.91 321.53,630.67 324.29,630.67 324.29,641.68 327.04,641.68 327.04,655.44 329.79,655.44 329.79,666.45 332.54,666.45 332.54,685.72 335.3,685.72 335.3,696.73 338.05,696.73 338.05,710.5 340.8,710.5 340.8,718.75 343.56,718.75 343.56,729.76 346.31,729.76 346.31,746.28 349.06,746.28 349.06,757.29 351.81,757.29 351.81,779.31 354.56,779.31 354.56,787.57 357.32,787.57 357.32,806.84 360.07,806.84 360.07,828.86 362.82,828.86 362.82,842.62 365.57,842.62 365.57,861.89 368.33,861.89 368.33,883.91 371.08,883.91 371.08,900.43 373.83,900.43 373.83,922.45 376.59,922.45 376.59,947.22 379.34,947.22 379.34,974.74 382.09,974.74 382.09,1010.53 384.84,1010.53 384.84,1040.81 387.59,1040.81 387.59,1071.09 390.35,1071.09 390.35,1104.12 393.1,1104.12 393.1,1128.89 395.85,1128.89 395.85,1153.67 398.61,1153.67 398.61,1181.19 401.36,1181.19 401.36,1192.2 404.11,1192.2 404.11,1208.72 406.87,1208.72 406.87,1227.99 409.62,1227.99 409.62,1233.49 406.87,1233.49 406.87,1230.74 404.11,1230.74 404.11,1227.99 401.36,1227.99 401.36,1225.23 398.61,1225.23 398.61,1219.73 395.85,1219.73 395.85,1216.98 393.1,1216.98 393.1,1214.22 390.35,1214.22 390.35,1208.72 387.59,1208.72 387.59,1205.96 384.84,1205.96 384.84,1203.21 382.09,1203.21 382.09,1200.46 379.34,1200.46 379.34,1197.71 376.59,1197.71 376.59,1194.96 373.83,1194.96 373.83,1192.2 371.08,1192.2 371.08,1189.45 368.33,1189.45 368.33,1186.7 365.57,1186.7 365.57,1183.94 362.82,1183.94 362.82,1181.19 360.07,1181.19 360.07,1178.44 357.32,1178.44 357.32,1175.69 351.81,1175.69 351.81,1172.93 349.06,1172.93 349.06,1170.18 346.31,1170.18 346.31,1167.43 340.8,1167.43 340.8,1164.68 335.3,1164.68 335.3,1161.92 332.54,1161.92 332.54,1159.17 327.04,1159.17 327.04,1156.42 321.53,1156.42 321.53,1153.67 316.03,1153.67 316.03,1150.91 307.77,1150.91 307.77,1148.16 302.27,1148.16 302.27,1145.41 294.01,1145.41 294.01,1142.66 283,1142.66 283,1139.9 222.44,1139.9 222.44,1142.66 205.92,1142.66 205.92,1145.41 197.66,1145.41 197.66,1148.16 186.66,1148.16 186.66,1150.91 178.4,1150.91 178.4,1153.67 175.64,1153.67 175.64,1156.42 170.14,1156.42 170.14,1159.17 164.63,1159.17 164.63,1161.92 159.13,1161.92 159.13,1164.68 153.62,1164.68 153.62,1167.43 150.87,1167.43 150.87,1170.18 145.37,1170.18 145.37,1172.93 142.61,1172.93 142.61,1175.69 137.11,1175.69 137.11,1178.44 134.35,1178.44 134.35,1181.19 131.6,1181.19 131.6,1183.94 128.85,1183.94 128.85,1186.7 123.34,1186.7 123.34,1192.2 117.84,1192.2 117.84,1194.96 115.09,1194.96 115.09,1197.71 112.33,1197.71 112.33,1200.46 109.58,1200.46 109.58,1203.21 106.83,1203.21 106.83,1208.72 104.08,1208.72 104.08,1211.47 101.32,1211.47 101.32,1214.22 98.57,1214.22 98.57,1216.98 95.82,1216.98 95.82,1222.48 93.07,1222.48 93.07,1225.23 90.31,1225.23 90.31,1227.99 87.56,1227.99 87.56,1230.74 84.81,1230.74 84.81,1236.25 82.05,1236.25 82.05,1239 79.3,1239 79.3,1244.5 76.55,1244.5 76.55,1219.73 79.3,1219.73 79.3,1203.21 82.05,1203.21 82.05,1172.93 84.81,1172.93 84.81,1150.91 87.56,1150.91 87.56,1131.64 90.31,1131.64 90.31,1104.12 93.07,1104.12 93.07,1065.58 95.82,1065.58 95.82,1038.06 98.57,1038.06 98.57,991.26 101.32,991.26 101.32,963.74 104.08,963.74 104.08,930.7 106.83,930.7 106.83,897.67 109.58,897.67 109.58,839.87 112.33,839.87 112.33,801.33 115.09,801.33 115.09,776.56 117.84,776.56 117.84,751.78 120.59,751.78 120.59,718.75 123.34,718.75 123.34,691.23 126.1,691.23 126.1,671.96 128.85,671.96 128.85,641.68 131.6,641.68 131.6,616.91 134.35,616.91 134.35,603.14 137.11,603.14 137.11,589.38 139.86,589.38 139.86,564.6 142.61,564.6 142.61,550.84 145.37,550.84 145.37,537.08 148.12,537.08 148.12,520.56 150.87,520.56 150.87,512.31 153.62,512.31 153.62,495.79 156.37,495.79 156.37,476.52 159.13,476.52 159.13,468.26 161.88,468.26 161.88,454.5 164.63,454.5 164.63,435.23 167.39,435.23 167.39,426.97 170.14,426.97 170.14,413.21 172.89,413.21 172.89,396.7 175.64,396.7 175.64,382.93 178.4,382.93 178.4,371.92 181.15,371.92 181.15,363.67 183.9,363.67 183.9,349.9 186.66,349.9 186.66,341.64 189.41,341.64 189.41,333.38 192.16,333.38 192.16,319.62 194.91,319.62 194.91,311.36 197.66,311.36 197.66,305.86 200.42,305.86 200.42,297.6 203.17,297.6 203.17,292.09 205.92,292.09 205.92,283.84 208.68,283.84 208.68,278.33 211.43,278.33 211.43,272.83 214.18,272.83 214.18,270.07 216.93,270.07 216.93,264.57 219.69,264.57 219.69,259.06 222.44,259.06 222.44,256.31 225.19,256.31 225.19,253.56 227.94,253.56 227.94,250.8 230.7,250.8 230.7,248.05 233.45,248.05 233.45,245.3 236.2,245.3 236.2,242.55 252.72,242.55 "/>
  <path id="outline" class="fil2" d="M497.7 1621.61l-2.75 0 0 -38.53 -2.75 0 0 -27.53 -2.76 0 0 -16.52 -2.75 0 0 -19.27 -2.75 0 0 -16.51 -2.75 0 0 -16.52 -2.76 0 0 -8.26 -2.75 0 0 -11 -2.75 0 0 -11.02 -2.76 0 0 -16.51 -2.75 0 0 -8.26 -2.75 0 0 -8.26 -2.75 0 0 -11.01 -2.75 0 0 -5.5 -2.76 0 0 -11.01 -2.75 0 0 -11.01 -2.75 0 0 -5.51 -2.76 0 0 -8.26 -2.75 0 0 -8.26 -2.75 0 0 -8.25 -2.75 0 0 -5.51 -2.76 0 0 -8.26 -2.75 0 0 -8.25 -2.75 0 0 -5.51 -2.76 0 0 -5.5 -2.75 0 0 -8.26 -2.75 0 0 -5.51 -2.75 0 0 -5.5 -2.75 0 0 -5.51 -2.76 0 0 -5.5 -2.75 0 0 -5.51 -2.75 0 0 -5.5 -2.75 0 0 -5.51 -2.76 0 0 -2.75 -2.75 0 0 -5.51 -2.75 0 0 -5.5 -2.76 0 0 -2.75 -2.75 0 0 -5.51 -2.75 0 0 -2.75 -2.76 0 0 -5.51 -2.75 0 0 -2.75 -2.75 0 0 -2.75 -2.75 0 0 -5.51 -2.75 0 0 -2.75 -2.76 0 0 -2.75 -2.75 0 0 -2.76 -2.75 0 0 -2.75 -2.76 0 0 -2.75 -2.75 0 0 -5.51 -2.75 0 0 -2.75 -2.75 0 0 -2.75 -2.76 0 0 -2.76 -2.75 0 0 -2.75 -2.75 0 0 -2.75 -5.5 0 0 -2.75 -2.76 0 0 -2.75 -2.75 0 0 -2.76 -2.75 0 0 -2.75 -5.51 0 0 -2.75 -2.75 0 0 -2.76 -5.51 0 0 -2.75 -5.5 0 0 -2.75 -5.51 0 0 -2.75 -5.5 0 0 -2.76 -5.51 0 0 -2.75 -8.26 0 0 -2.75 -8.25 0 0 -2.75 -19.27 0 0 -2.76 -33.03 0 0 2.76 -13.77 0 0 2.75 -13.76 0 0 2.75 -5.51 0 0 2.75 -8.25 0 0 2.76 -5.51 0 0 2.75 -5.5 0 0 2.75 -5.51 0 0 2.75 -5.5 0 0 2.76 -2.76 0 0 2.75 -5.5 0 0 2.75 -2.76 0 0 2.76 -2.75 0 0 2.75 -5.5 0 0 2.75 -2.75 0 0 2.75 -2.76 0 0 2.75 -2.75 0 0 2.76 -2.75 0 0 2.75 -2.76 0 0 2.75 -2.75 0 0 2.76 -2.75 0 0 2.75 -2.75 0 0 2.75 -2.76 0 0 2.75 -2.75 0 0 2.76 -2.75 0 0 2.75 -2.75 0 0 5.51 -2.76 0 0 2.75 -2.75 0 0 2.75 -2.75 0 0 2.75 -2.75 0 0 5.51 -2.76 0 0 2.75 -2.75 0 0 5.51 -2.75 0 0 2.75 -2.75 0 0 5.5 -2.76 0 0 5.51 -2.75 0 0 5.5 -2.75 0 0 5.51 -2.76 0 0 5.5 -2.75 0 0 5.51 -2.75 0 0 8.26 -2.75 0 0 5.5 -2.75 0 0 5.51 -2.76 0 0 8.26 -2.75 0 0 8.25 -2.75 0 0 11.01 -2.76 0 0 5.51 -2.75 0 0 8.26 -2.75 0 0 13.76 -2.75 0 0 11.01 -2.76 0 0 16.52 -2.75 0 0 8.25 -2.75 0 0 19.27 -2.76 0 0 19.27 -2.75 0 0 13.76 -2.75 0 0 27.53 -2.75 0 0 22.02 -2.75 0 0 46.8 -2.76 0 0 35.78 -2.75 0 0 41.29 -2.75 0 0 82.58 2.75 0 0 38.53 2.75 0 0 5.51 2.76 0 0 11.01 2.75 0 0 5.5 2.75 0 0 5.51 2.75 0 0 2.75 2.75 0 0 5.51 5.51 0 0 2.75 2.75 0 0 2.75 2.76 0 0 2.76 5.5 0 0 2.75 5.51 0 0 2.75 5.5 0 0 2.76 11.01 0 0 2.75 8.26 0 0 2.75 24.77 0 0 2.75 24.78 0 0 2.75 170.66 0 0 -2.75 24.77 0 0 -2.75 24.78 0 0 -2.75 16.51 0 0 -2.75 19.27 0 0 -2.76 11.01 0 0 -2.75 8.26 0 0 -2.75 13.76 0 0 -2.76 5.51 0 0 -2.75 5.5 0 0 -2.75 5.51 0 0 -2.75 5.5 0 0 -2.76 5.51 0 0 -2.75 2.75 0 0 -2.75 2.76 0 0 -2.76 5.5 0 0 -2.75 2.75 0 0 -2.75 2.75 0 0 -2.75 2.76 0 0 -2.75 2.75 0 0 -5.51 2.75 0 0 -2.75 2.76 0 0 -5.51 2.75 0 0 -8.26 2.75 0 0 -8.26 2.75 0 0 -5.5 2.76 0 0 -13.76 2.75 0 0 -24.77 2.75 0 0 -66.07zm-214.7 -478.95l11.01 0 0 2.75 8.26 0 0 2.75 5.5 0 0 2.75 8.26 0 0 2.76 5.5 0 0 2.75 5.51 0 0 2.75 5.5 0 0 2.75 2.76 0 0 2.76 5.5 0 0 2.75 5.51 0 0 2.75 2.75 0 0 2.75 2.75 0 0 2.76 5.51 0 0 2.75 2.75 0 0 2.75 2.75 0 0 2.75 2.75 0 0 2.76 2.76 0 0 2.75 2.75 0 0 2.75 2.75 0 0 2.76 2.76 0 0 2.75 2.75 0 0 2.75 2.75 0 0 2.75 2.75 0 0 2.75 2.75 0 0 2.76 2.76 0 0 5.5 2.75 0 0 2.76 2.75 0 0 2.75 2.76 0 0 5.5 2.75 0 0 2.76 2.75 0 0 2.75 2.76 0 0 2.75 2.75 0 0 -5.5 -2.75 0 0 -19.27 -2.76 0 0 -16.52 -2.75 0 0 -11.01 -2.75 0 0 -27.52 -2.76 0 0 -24.78 -2.75 0 0 -24.77 -2.75 0 0 -33.03 -2.76 0 0 -30.28 -2.75 0 0 -30.28 -2.75 0 0 -35.79 -2.75 0 0 -27.52 -2.75 0 0 -24.77 -2.76 0 0 -22.02 -2.75 0 0 -16.52 -2.75 0 0 -22.02 -2.76 0 0 -19.27 -2.75 0 0 -13.76 -2.75 0 0 -22.02 -2.75 0 0 -19.27 -2.76 0 0 -8.26 -2.75 0 0 -22.02 -2.75 0 0 -11.01 -2.75 0 0 -16.52 -2.75 0 0 -11.01 -2.76 0 0 -8.25 -2.75 0 0 -13.77 -2.75 0 0 -11.01 -2.76 0 0 -19.27 -2.75 0 0 -11.01 -2.75 0 0 -13.76 -2.75 0 0 -11.01 -2.76 0 0 -13.76 -2.75 0 0 -13.77 -2.75 0 0 -24.77 -2.76 0 0 -19.27 -2.75 0 0 -16.52 -2.75 0 0 -16.51 -2.75 0 0 -16.52 -2.75 0 0 -19.27 -2.76 0 0 -22.02 -2.75 0 0 -16.51 -2.75 0 0 -33.03 -2.76 0 0 -19.27 -2.75 0 0 -27.53 -2.75 0 0 -33.03 -2.75 0 0 -16.52 -2.76 0 0 -16.51 -2.75 0 0 -16.52 -2.75 0 0 -11.01 -2.76 0 0 -8.26 -2.75 0 0 -5.5 -2.75 0 0 -5.51 -2.75 0 0 -5.5 -2.75 0 0 -2.76 -2.76 0 0 -5.5 -5.5 0 0 -2.75 -16.52 0 0 2.75 -2.75 0 0 2.75 -2.75 0 0 2.75 -2.76 0 0 2.76 -2.75 0 0 2.75 -2.75 0 0 2.75 -2.75 0 0 5.51 -2.76 0 0 5.5 -2.75 0 0 2.76 -2.75 0 0 5.5 -2.75 0 0 5.51 -2.76 0 0 8.25 -2.75 0 0 5.51 -2.75 0 0 8.26 -2.76 0 0 5.5 -2.75 0 0 8.26 -2.75 0 0 13.76 -2.75 0 0 8.26 -2.75 0 0 8.26 -2.76 0 0 13.77 -2.75 0 0 8.25 -2.75 0 0 11.01 -2.76 0 0 13.77 -2.75 0 0 16.51 -2.75 0 0 13.76 -2.75 0 0 8.26 -2.76 0 0 19.27 -2.75 0 0 13.76 -2.75 0 0 8.26 -2.76 0 0 19.27 -2.75 0 0 16.52 -2.75 0 0 8.25 -2.75 0 0 16.52 -2.75 0 0 13.76 -2.76 0 0 13.76 -2.75 0 0 24.78 -2.75 0 0 13.76 -2.76 0 0 13.77 -2.75 0 0 24.77 -2.75 0 0 30.28 -2.75 0 0 19.27 -2.76 0 0 27.52 -2.75 0 0 33.03 -2.75 0 0 24.78 -2.75 0 0 24.77 -2.76 0 0 38.54 -2.75 0 0 57.8 -2.75 0 0 33.03 -2.75 0 0 33.04 -2.76 0 0 27.52 -2.75 0 0 46.8 -2.75 0 0 27.52 -2.75 0 0 38.54 -2.76 0 0 27.52 -2.75 0 0 19.27 -2.75 0 0 22.02 -2.76 0 0 30.28 -2.75 0 0 16.52 -2.75 0 0 24.77 2.75 0 0 -5.5 2.75 0 0 -2.75 2.76 0 0 -5.51 2.75 0 0 -2.75 2.75 0 0 -2.76 2.76 0 0 -2.75 2.75 0 0 -5.5 2.75 0 0 -2.76 2.75 0 0 -2.75 2.76 0 0 -2.75 2.75 0 0 -5.51 2.75 0 0 -2.75 2.75 0 0 -2.75 2.76 0 0 -2.75 2.75 0 0 -2.76 5.5 0 0 -5.5 5.51 0 0 -2.76 2.75 0 0 -2.75 2.75 0 0 -2.75 2.76 0 0 -2.75 5.5 0 0 -2.76 2.76 0 0 -2.75 5.5 0 0 -2.75 2.75 0 0 -2.75 5.51 0 0 -2.76 5.5 0 0 -2.75 5.51 0 0 -2.75 5.5 0 0 -2.75 2.76 0 0 -2.76 8.26 0 0 -2.75 11 0 0 -2.75 8.26 0 0 -2.75 16.52 0 0 -2.76 60.56 0 0 2.76zm-27.53 -924.88l5.51 0 0 2.75 5.5 0 0 2.75 2.75 0 0 2.75 2.75 0 0 2.75 2.76 0 0 2.76 2.75 0 0 2.75 2.75 0 0 5.51 2.76 0 0 5.5 2.75 0 0 5.5 2.75 0 0 5.51 2.75 0 0 5.51 2.76 0 0 8.25 2.75 0 0 13.77 2.75 0 0 13.76 2.76 0 0 13.76 2.75 0 0 11.01 2.75 0 0 33.04 2.75 0 0 19.26 2.75 0 0 27.53 2.76 0 0 22.02 2.75 0 0 35.79 2.75 0 0 8.25 2.76 0 0 24.78 2.75 0 0 19.27 2.75 0 0 16.51 2.75 0 0 19.27 2.76 0 0 24.77 2.75 0 0 13.77 2.75 0 0 13.76 2.76 0 0 13.76 2.75 0 0 11.01 2.75 0 0 19.27 2.75 0 0 16.52 2.75 0 0 11.01 2.76 0 0 16.51 2.75 0 0 11.01 2.75 0 0 16.52 2.75 0 0 8.26 2.76 0 0 11.01 2.75 0 0 13.76 2.75 0 0 13.76 2.76 0 0 13.77 2.75 0 0 11.01 2.75 0 0 22.02 2.75 0 0 19.27 2.75 0 0 19.27 2.76 0 0 19.26 2.75 0 0 13.77 2.75 0 0 33.03 2.76 0 0 16.51 2.75 0 0 30.28 2.75 0 0 24.78 2.76 0 0 38.53 2.75 0 0 30.28 2.75 0 0 35.78 2.75 0 0 22.03 2.76 0 0 24.77 2.75 0 0 27.53 2.75 0 0 19.26 2.75 0 0 11.02 2.75 0 0 19.26 2.76 0 0 22.03 2.75 0 0 16.51 2.75 0 0 13.76 2.76 0 0 22.02 2.75 0 0 11.01 2.75 0 0 5.51 2.75 0 0 8.26 2.76 0 0 5.51 2.75 0 0 5.5 2.75 0 0 8.26 2.76 0 0 5.5 2.75 0 0 8.26 2.75 0 0 5.51 2.75 0 0 8.25 2.75 0 0 8.26 2.76 0 0 8.26 2.75 0 0 8.26 2.75 0 0 8.25 2.76 0 0 5.51 2.75 0 0 13.76 2.75 0 0 8.26 2.75 0 0 11.01 2.76 0 0 11.01 2.75 0 0 11.01 2.75 0 0 11.01 2.76 0 0 13.76 2.75 0 0 11.02 2.75 0 0 19.27 2.75 0 0 22.02 2.75 0 0 11.01 2.76 0 0 19.26 2.75 0 0 22.03 2.75 0 0 35.78 2.76 0 0 68.82 -2.76 0 0 11 -2.75 0 0 19.27 -2.75 0 0 19.27 -2.76 0 0 5.51 -2.75 0 0 8.25 -2.75 0 0 5.51 -2.75 0 0 5.51 -2.75 0 0 5.5 -2.76 0 0 2.75 -2.75 0 0 5.51 -2.75 0 0 2.75 -2.76 0 0 2.75 -2.75 0 0 2.76 -2.75 0 0 2.75 -2.75 0 0 2.75 -2.76 0 0 2.75 -2.75 0 0 2.76 -5.51 0 0 2.75 -2.75 0 0 2.75 -5.5 0 0 2.76 -5.51 0 0 2.75 -5.5 0 0 2.75 -5.51 0 0 2.75 -5.5 0 0 2.75 -8.26 0 0 2.76 -11.01 0 0 2.75 -11.01 0 0 2.75 -8.26 0 0 2.75 -16.52 0 0 2.76 -11.01 0 0 2.75 -22.02 0 0 2.75 -16.51 0 0 2.76 -35.79 0 0 2.75 -145.89 0 0 -2.75 -33.03 0 0 -2.76 -30.28 0 0 -2.75 -16.51 0 0 -2.75 -5.51 0 0 -2.76 -11.01 0 0 -2.75 -5.5 0 0 -2.75 -5.51 0 0 -2.75 -5.51 0 0 -2.76 -2.75 0 0 -2.75 -5.5 0 0 -2.75 -2.75 0 0 -2.75 -2.76 0 0 -2.75 -2.75 0 0 -2.76 -2.75 0 0 -2.75 -2.76 0 0 -5.51 -2.75 0 0 -2.75 -2.75 0 0 -5.5 -2.75 0 0 -5.51 -2.76 0 0 -8.26 -2.75 0 0 -11.01 -2.75 0 0 -11.01 -2.75 0 0 -156.9 2.75 0 0 -46.79 2.75 0 0 -22.02 2.75 0 0 -38.54 2.76 0 0 -16.51 2.75 0 0 -27.53 2.75 0 0 -11.01 2.75 0 0 -19.27 2.76 0 0 -13.76 2.75 0 0 -11.01 2.75 0 0 -16.52 2.76 0 0 -11.01 2.75 0 0 -13.76 2.75 0 0 -8.26 2.75 0 0 -11.01 2.75 0 0 -8.26 2.76 0 0 -19.27 2.75 0 0 -16.51 2.75 0 0 -22.02 2.76 0 0 -27.53 2.75 0 0 -16.52 2.75 0 0 -30.28 2.75 0 0 -19.26 2.76 0 0 -27.53 2.75 0 0 -27.53 2.75 0 0 -27.52 2.76 0 0 -22.02 2.75 0 0 -44.05 2.75 0 0 -22.02 2.75 0 0 -30.27 2.75 0 0 -35.79 2.76 0 0 -60.56 2.75 0 0 -41.28 2.75 0 0 -35.79 2.76 0 0 -44.04 2.75 0 0 -16.52 2.75 0 0 -38.53 2.75 0 0 -22.02 2.76 0 0 -24.78 2.75 0 0 -19.27 2.75 0 0 -16.51 2.75 0 0 -11.01 2.76 0 0 -22.02 2.75 0 0 -11.02 2.75 0 0 -22.02 2.75 0 0 -11.01 2.76 0 0 -19.26 2.75 0 0 -8.26 2.75 0 0 -22.02 2.75 0 0 -13.77 2.76 0 0 -8.25 2.75 0 0 -22.03 2.75 0 0 -11.01 2.76 0 0 -16.51 2.75 0 0 -8.26 2.75 0 0 -13.76 2.75 0 0 -11.01 2.75 0 0 -11.01 2.76 0 0 -11.01 2.75 0 0 -11.02 2.75 0 0 -11.01 2.76 0 0 -11.01 2.75 0 0 -5.5 2.75 0 0 -8.26 2.75 0 0 -13.76 2.76 0 0 -5.51 2.75 0 0 -5.5 2.75 0 0 -8.26 2.76 0 0 -5.51 2.75 0 0 -5.5 2.75 0 0 -5.51 2.75 0 0 -5.5 2.75 0 0 -5.51 2.76 0 0 -2.75 2.75 0 0 -5.5 2.75 0 0 -2.76 2.76 0 0 -2.75 2.75 0 0 -2.75 2.75 0 0 -2.76 2.75 0 0 -2.75 2.76 0 0 -2.75 5.5 0 0 -2.75 5.51 0 0 -2.75 5.5 0 0 -2.76 19.27 0 0 2.76z"/>
 </g>
</svg>
