<?xml version="1.0" encoding="UTF-8"?>
<!DOCTYPE svg PUBLIC "-//W3C//DTD SVG 1.1//EN" "http://www.w3.org/Graphics/SVG/1.1/DTD/svg11.dtd">
<!-- Creator: CorelDRAW (Versión de evaluación) -->
<svg xmlns="http://www.w3.org/2000/svg" xml:space="preserve" width="1184px" height="2052px" version="1.1" style="shape-rendering:geometricPrecision; text-rendering:geometricPrecision; image-rendering:optimizeQuality; fill-rule:evenodd; clip-rule:evenodd"
viewBox="0 0 1184 2052.34"
 xmlns:xlink="http://www.w3.org/1999/xlink"
 xmlns:xodm="http://www.corel.com/coreldraw/odm/2003">
 <defs>
  <style type="text/css">
   <![CDATA[
    .fil2 {fill:#4B4B4D}
    .fil1 {fill:#F3EDD9}
    .fil0 {fill:#F8FBFF}
   ]]>
  </style>
 </defs>
 <g id="deciduous">
  <metadata id="CorelCorpID_0Corel-Layer"/>
  <path id="crown" class="fil0" d="M354.6 561.46c-20.27,-29.92 -1.49,-98.55 3.03,-135.07 -55.65,-22.92 -155.55,-170.48 -202.57,25.14 -36.28,150.93 -21.35,352.26 146.27,388.51 54.97,11.89 119.74,4.24 178.17,10.03 129.29,12.82 302.53,115.76 465.54,12.19 59.59,-37.86 132.14,-143.44 164.56,-210.58 18.54,-38.38 39.17,-100.81 43.23,-149.04 7.46,-88.69 -4.09,-89.05 -69.44,-119.03 -37.22,-17.07 -106.64,-67.74 -125.54,-63.44 -4.92,1.12 -89.71,50.9 -123.51,64.66 -57.45,23.38 -50.13,7.57 -60.69,81.59 -4.27,29.96 -2.73,29.58 -13.37,36.53 -17.02,-28.88 3.26,-67.85 -1.39,-95.87 -2.64,-15.91 -48.38,-45.46 -57.57,-49.8 -8.47,-4 -40.72,-9.38 -81.31,-27.15 -85.62,-37.48 -83.28,-41.28 -205.73,72.21 -49.8,46.15 -25.34,7.19 -43.18,119.14 -6.82,42.83 -5.56,33.92 -16.5,39.98z"/>
  <path id="root" class="fil1" d="M31.36 1618.95c50.74,-18.93 53.03,-148.52 156.06,-259.66 34.49,-37.2 119.11,-150.57 149.58,-192.16 63.55,-86.7 156.53,-182.12 285.88,-174.33 46.39,2.79 82.17,17.58 114.9,36.45 151.82,87.54 175.79,252.83 245.9,362.74 136.65,214.23 76.45,295.61 105.9,358.47 10.82,-6.12 8.26,-2.92 16.32,-18.73 31.32,-61.36 44.12,-130.43 43.47,-199.7 -1.6,-171.13 -64.25,-283.32 -127.15,-428.65 -52.21,-120.65 -28.27,-141.43 -33.67,-236.29 -51.05,27.9 -77.54,54.52 -152.51,65.7 -69.78,10.41 -135.72,0.38 -201.77,-16.86 -69.13,-18.05 -105.46,-35.38 -184.81,-40.27 -92.09,-5.68 -115.85,4.75 -202.65,-23.22 15.3,140.54 -75.31,225.72 -142.95,352.54 -29.4,55.13 -53.63,115.19 -58.78,185.71 -2.8,38.34 -19.14,208.48 -13.72,228.26z"/>
  <path id="outline" class="fil2" d="M31.36 1618.95c-5.42,-19.78 10.92,-189.92 13.72,-228.26 5.15,-70.52 29.38,-130.58 58.78,-185.71 67.64,-126.82 158.25,-212 142.95,-352.54 86.8,27.97 110.56,17.54 202.65,23.22 79.35,4.89 115.68,22.22 184.81,40.27 66.05,17.24 131.99,27.27 201.77,16.86 74.97,-11.18 101.46,-37.8 152.51,-65.7 5.4,94.86 -18.54,115.64 33.67,236.29 62.9,145.33 125.55,257.52 127.15,428.65 0.65,69.27 -12.15,138.34 -43.47,199.7 -8.06,15.81 -5.5,12.61 -16.32,18.73 -29.45,-62.86 30.75,-144.24 -105.9,-358.47 -70.11,-109.91 -94.08,-275.2 -245.9,-362.74 -32.73,-18.87 -68.51,-33.66 -114.9,-36.45 -129.35,-7.79 -222.33,87.63 -285.88,174.33 -30.47,41.59 -115.09,154.96 -149.58,192.16 -103.03,111.14 -105.32,240.73 -156.06,259.66zm323.24 -1057.49c10.94,-6.06 9.68,2.85 16.5,-39.98 17.84,-111.95 -6.62,-72.99 43.18,-119.14 122.45,-113.49 120.11,-109.69 205.73,-72.21 40.59,17.77 72.84,23.15 81.31,27.15 9.19,4.34 54.93,33.89 57.57,49.8 4.65,28.02 -15.63,66.99 1.39,95.87 10.64,-6.95 9.1,-6.57 13.37,-36.53 10.56,-74.02 3.24,-58.21 60.69,-81.59 33.8,-13.76 118.59,-63.54 123.51,-64.66 18.9,-4.3 88.32,46.37 125.54,63.44 65.35,29.98 76.9,30.34 69.44,119.03 -4.06,48.23 -24.69,110.66 -43.23,149.04 -32.42,67.14 -104.97,172.72 -164.56,210.58 -163.01,103.57 -336.25,0.63 -465.54,-12.19 -58.43,-5.79 -123.2,1.86 -178.17,-10.03 -167.62,-36.25 -182.55,-237.58 -146.27,-388.51 47.02,-195.62 146.92,-48.06 202.57,-25.14 -4.52,36.52 -23.3,105.15 -3.03,135.07zm178.72 -282.35c-32.5,10.44 -82.05,48.61 -104.57,71.02 -95.96,95.49 -69.28,12.33 -172.64,-22.85 -139.02,-47.31 -148.41,231.78 -143.27,317.07 4.1,67.95 36.13,115.33 73.36,161.23 19.83,24.46 37.18,31.89 36.96,80.31 -0.61,129.15 -132.45,238.35 -184.63,399.51 -22.23,68.63 -23.02,129.26 -28.43,204.91 -2.2,30.81 -12.1,82.59 -10.48,108.66 2.43,39.02 31.13,60.69 60.85,33.6 38.24,-34.86 52.98,-100.21 79.34,-154.34 33.03,-67.83 99.88,-132.15 149.35,-200.63 52.97,-73.34 93.11,-128.97 158.44,-191.56 30.8,-29.51 104.93,-66.87 166.54,-65.64 72.1,1.44 125.62,40.14 163.26,73.45 85.48,75.67 112.49,181.86 172.66,294.33 26.81,50.11 60.79,94.04 79.2,154.02 40.87,133.18 15.94,129.39 30.43,203.04 18.23,92.68 138.7,-19.13 113.11,-279.81 -24.43,-248.82 -165.07,-361.27 -159.46,-542 2.7,-87.04 18.31,-106.67 65.97,-168.68 32.94,-42.86 60.48,-92.88 80.86,-152.5 15.93,-46.61 38.83,-158.74 8.14,-199.29 -16.75,-22.14 -114.48,-65.06 -147.53,-86.12 -76.39,-48.69 -58.59,-26.13 -155.96,23.33 -100.14,50.88 -93.56,32.58 -116.13,15.44 -51.72,-39.28 -62.1,-29.53 -121.7,-53.4 -27.27,-10.92 -62.46,-33.13 -93.67,-23.1z"/>
 </g>
</svg>
