<?xml version="1.0" encoding="UTF-8"?>
<!DOCTYPE svg PUBLIC "-//W3C//DTD SVG 1.1//EN" "http://www.w3.org/Graphics/SVG/1.1/DTD/svg11.dtd">
<!-- Creator: CorelDRAW (Versión de evaluación) -->
<svg xmlns="http://www.w3.org/2000/svg" xml:space="preserve" width="985px" height="2052px" version="1.1" style="shape-rendering:geometricPrecision; text-rendering:geometricPrecision; image-rendering:optimizeQuality; fill-rule:evenodd; clip-rule:evenodd"
viewBox="0 0 985 2051.79"
 xmlns:xlink="http://www.w3.org/1999/xlink"
 xmlns:xodm="http://www.corel.com/coreldraw/odm/2003">
 <defs>
  <style type="text/css">
   <![CDATA[
    .fil2 {fill:#4B4B4D}
    .fil1 {fill:#F3EDD9}
    .fil0 {fill:#F8FBFF}
   ]]>
  </style>
 </defs>
 <g id="deciduous">
  <metadata id="CorelCorpID_0Corel-Layer"/>
  <path id="crown" class="fil0" d="M377.53 499.25c-11.54,-25.82 8.01,-53.36 18.09,-74.24 -24.24,-19.93 -68.17,-30.41 -99.38,-43.5 -31.78,-13.33 -71.24,-39.76 -100.02,-17.11l-69.2 72.37c-49.46,63.14 -56.36,155.31 -25.07,222.58 54.99,118.2 179.01,67.54 306.62,105.77 59.12,17.71 91.11,35.44 129.43,83.18 10.05,12.51 21.32,22.31 34.45,32.05 157.37,116.74 394.08,-93.88 344.62,-411.49 -25.36,-9.2 -57.94,-9.11 -87.56,-16.42 -99.02,-24.47 -169.73,-108.27 -197.92,-110.31 -14.82,-1.07 -58.46,24.12 -72.79,30.57 -43.73,19.69 -124.79,40.12 -142.65,65.58 -12.95,18.47 -21.48,51.92 -38.62,60.97z"/>
  <path id="root" class="fil1" d="M86.07 1591.58c34.82,-86.2 -18.31,-218.92 121.59,-428.24 17.87,-26.73 42.55,-57.94 61.81,-79.86 19.68,-22.41 42.65,-53.28 61.28,-80.47 29.56,-43.13 93.05,-137.65 173.22,-79.08 117.53,85.84 288.65,404.4 321.79,532.35 35.64,137.67 14.69,174.91 30.04,252.97 30.97,-4.05 52.97,-41.03 68.37,-66.97 84.19,-141.88 -5.94,-403.56 -56.69,-544.34 -23.02,-63.86 -51.49,-131.91 -58.3,-205.02 -11.4,1.28 -52.27,28.43 -73.66,35.75 -32.51,11.13 -66.1,14.59 -103.36,8.79 -74.42,-11.57 -94.75,-52.27 -131.45,-89.49 -22.58,-22.91 -30.6,-29.81 -66.88,-45.62 -26.04,-11.33 -57.05,-16.81 -86.29,-21.32 -69.89,-10.79 -131.39,-11.93 -198.09,-28.31 21.79,290.35 -125.01,322 -120.09,647.56 0.83,54.75 21.66,167.32 48.4,203.83l8.31 -12.53z"/>
  <path id="outline" class="fil2" d="M77.76 1604.11c-26.74,-36.51 -47.57,-149.08 -48.4,-203.83 -4.92,-325.56 141.88,-357.21 120.09,-647.56 66.7,16.38 128.2,17.52 198.09,28.31 29.24,4.51 60.25,9.99 86.29,21.32 36.28,15.81 44.3,22.71 66.88,45.62 36.7,37.22 57.03,77.92 131.45,89.49 37.26,5.8 70.85,2.34 103.36,-8.79 21.39,-7.32 62.26,-34.47 73.66,-35.75 6.81,73.11 35.28,141.16 58.3,205.02 50.75,140.78 140.88,402.46 56.69,544.34 -15.4,25.94 -37.4,62.92 -68.37,66.97 -15.35,-78.06 5.6,-115.3 -30.04,-252.97 -33.14,-127.95 -204.26,-446.51 -321.79,-532.35 -80.17,-58.57 -143.66,35.95 -173.22,79.08 -18.63,27.19 -41.6,58.06 -61.28,80.47 -19.26,21.92 -43.94,53.13 -61.81,79.86 -139.9,209.32 -86.77,342.04 -121.59,428.24l-8.31 12.53zm299.77 -1104.86c17.14,-9.05 25.67,-42.5 38.62,-60.97 17.86,-25.46 98.92,-45.89 142.65,-65.58 14.33,-6.45 57.97,-31.64 72.79,-30.57 28.19,2.04 98.9,85.84 197.92,110.31 29.62,7.31 62.2,7.22 87.56,16.42 49.46,317.61 -187.25,528.23 -344.62,411.49 -13.13,-9.74 -24.4,-19.54 -34.45,-32.05 -38.32,-47.74 -70.31,-65.47 -129.43,-83.18 -127.61,-38.23 -251.63,12.43 -306.62,-105.77 -31.29,-67.27 -24.39,-159.44 25.07,-222.58l69.2 -72.37c28.78,-22.65 68.24,3.78 100.02,17.11 31.21,13.09 75.14,23.57 99.38,43.5 -10.08,20.88 -29.63,48.42 -18.09,74.24zm235.83 -182.64c-51.01,18.15 -89.5,44.84 -150.22,60.67 -35.71,9.31 -42.83,27.13 -77.57,10.7 -24.54,-11.6 -48.41,-19.55 -74.28,-29.74 -58.15,-22.9 -95.58,-57.95 -145.74,-3.81 -33.48,36.14 -70.03,65.01 -93.59,119.13 -34.33,78.85 -16.28,174.2 36.8,245.44 14.79,19.86 16.17,61.86 17.19,93.55 3.83,119.79 -58.46,231.93 -89.73,333.49 -34.11,110.8 -50.99,251.88 -19.9,369.94 8.6,32.68 36.04,149.08 79.79,115.32 26.48,-20.43 33.56,-133.9 36.51,-177.17 14.54,-212.67 121.36,-292.56 209.36,-419.06 34.98,-50.28 94.62,-156.09 181.74,-60.12 39.51,43.53 102.76,131.99 131.45,181.05 13.02,22.27 22.53,45.95 35.04,69.22 47.62,88.59 62.74,91.79 101.94,214.74 17.85,55.99 26.91,115.28 29.83,177.48 2.98,63.55 -6.39,163.52 76.36,103.16 87.85,-64.09 96.7,-225.7 79.28,-332.83 -32.78,-201.62 -122.15,-364.82 -140.42,-485.18 -11.56,-76.18 96.33,-91.68 112.78,-306.7 18.19,-237.84 -52.76,-114.5 -201.61,-212.21 -47.59,-31.24 -95.64,-81.08 -135.01,-67.07z"/>
 </g>
</svg>
