<?xml version="1.0" encoding="UTF-8"?>
<!DOCTYPE svg PUBLIC "-//W3C//DTD SVG 1.1//EN" "http://www.w3.org/Graphics/SVG/1.1/DTD/svg11.dtd">
<!-- Creator: CorelDRAW (Versión de evaluación) -->
<svg xmlns="http://www.w3.org/2000/svg" xml:space="preserve" width="531px" height="2052px" version="1.1" style="shape-rendering:geometricPrecision; text-rendering:geometricPrecision; image-rendering:optimizeQuality; fill-rule:evenodd; clip-rule:evenodd"
viewBox="0 0 531 2051.76"
 xmlns:xlink="http://www.w3.org/1999/xlink"
 xmlns:xodm="http://www.corel.com/coreldraw/odm/2003">
 <defs>
  <style type="text/css">
   <![CDATA[
    .fil2 {fill:#4B4B4D}
    .fil1 {fill:#F3EDD9}
    .fil0 {fill:#F8FBFF}
   ]]>
  </style>
 </defs>
 <g id="deciduous">
  <metadata id="CorelCorpID_0Corel-Layer"/>
  <polygon id="crown" class="fil0" points="243.95,1183.53 232.94,1183.53 232.94,1186.28 221.94,1186.28 221.94,1189.03 216.43,1189.03 216.43,1191.78 210.93,1191.78 210.93,1194.54 205.43,1194.54 205.43,1197.28 199.92,1197.28 199.92,1200.04 197.17,1200.04 197.17,1202.79 194.42,1202.79 194.42,1205.54 188.92,1205.54 188.92,1208.29 186.17,1208.29 186.17,1211.04 180.67,1211.04 180.67,1213.79 177.91,1213.79 177.91,1219.3 172.41,1219.3 172.41,1222.05 169.66,1222.05 169.66,1224.8 166.91,1224.8 166.91,1227.55 164.16,1227.55 164.16,1233.05 161.41,1233.05 161.41,1235.8 158.65,1235.8 158.65,1238.55 155.9,1238.55 155.9,1241.31 153.15,1241.31 153.15,1246.81 150.4,1246.81 150.4,1249.56 147.65,1249.56 147.65,1252.31 144.9,1252.31 144.9,1257.81 142.15,1257.81 142.15,1260.57 139.4,1260.57 139.4,1266.07 136.64,1266.07 136.64,1271.57 133.89,1271.57 133.89,1277.07 131.14,1277.07 131.14,1279.82 128.39,1279.82 128.39,1285.33 125.64,1285.33 125.64,1290.83 122.89,1290.83 122.89,1296.33 120.14,1296.33 120.14,1301.84 117.38,1301.84 117.38,1307.34 114.63,1307.34 114.63,1310.09 111.88,1310.09 111.88,1318.34 109.13,1318.34 109.13,1323.85 106.38,1323.85 106.38,1329.35 103.63,1329.35 103.63,1334.85 100.88,1334.85 100.88,1343.11 98.13,1343.11 98.13,1348.61 95.37,1348.61 95.37,1354.11 92.62,1354.11 92.62,1362.36 89.87,1362.36 89.87,1370.62 87.12,1370.62 87.12,1376.12 84.37,1376.12 84.37,1384.37 81.62,1384.37 81.62,1392.63 78.87,1392.63 78.87,1398.13 76.11,1398.13 76.11,1406.38 73.36,1406.38 73.36,1414.64 70.61,1414.64 70.61,1420.14 67.86,1420.14 67.86,1428.39 65.11,1428.39 65.11,1433.9 62.36,1433.9 62.36,1442.15 59.61,1442.15 59.61,1450.41 56.86,1450.41 56.86,1458.66 54.1,1458.66 54.1,1469.66 51.35,1469.66 51.35,1480.67 48.6,1480.67 48.6,1486.17 45.85,1486.17 45.85,1497.18 43.1,1497.18 43.1,1508.18 40.35,1508.18 40.35,1519.19 37.6,1519.19 37.6,1527.44 34.84,1527.44 34.84,1541.2 32.09,1541.2 32.09,1552.2 29.34,1552.2 29.34,1563.21 26.59,1563.21 26.59,1582.47 23.84,1582.47 23.84,1656.76 26.59,1656.76 26.59,1678.76 29.34,1678.76 29.34,1684.27 32.09,1684.27 32.09,1692.52 34.84,1692.52 34.84,1698.02 37.6,1698.02 37.6,1706.28 40.35,1706.28 40.35,1711.78 43.1,1711.78 43.1,1714.53 45.85,1714.53 45.85,1720.03 48.6,1720.03 48.6,1722.78 51.35,1722.78 51.35,1725.54 54.1,1725.54 54.1,1731.04 56.86,1731.04 56.86,1733.79 59.61,1733.79 59.61,1736.54 62.36,1736.54 62.36,1739.29 65.11,1739.29 65.11,1742.04 67.86,1742.04 67.86,1744.8 70.61,1744.8 70.61,1747.54 73.36,1747.54 73.36,1750.3 76.11,1750.3 76.11,1753.05 81.62,1753.05 81.62,1755.8 84.37,1755.8 84.37,1758.55 87.12,1758.55 87.12,1761.3 89.87,1761.3 89.87,1764.05 95.37,1764.05 95.37,1766.81 98.13,1766.81 98.13,1769.56 103.63,1769.56 103.63,1772.31 106.38,1772.31 106.38,1775.06 109.13,1775.06 109.13,1777.81 114.63,1777.81 114.63,1780.56 117.38,1780.56 117.38,1783.31 122.89,1783.31 122.89,1786.07 125.64,1786.07 125.64,1788.81 131.14,1788.81 131.14,1791.57 133.89,1791.57 133.89,1794.32 139.4,1794.32 139.4,1797.07 142.15,1797.07 142.15,1799.82 147.65,1799.82 147.65,1802.57 150.4,1802.57 150.4,1805.32 155.9,1805.32 155.9,1808.07 158.65,1808.07 158.65,1810.83 164.16,1810.83 164.16,1813.58 166.91,1813.58 166.91,1816.33 172.41,1816.33 172.41,1819.08 175.16,1819.08 175.16,1821.83 180.67,1821.83 180.67,1824.58 183.41,1824.58 183.41,1827.33 188.92,1827.33 188.92,1830.08 194.42,1830.08 194.42,1832.84 197.17,1832.84 197.17,1835.59 202.68,1835.59 202.68,1838.34 208.18,1838.34 208.18,1841.09 213.68,1841.09 213.68,1843.84 219.18,1843.84 219.18,1846.59 221.94,1846.59 221.94,1849.34 227.44,1849.34 227.44,1852.1 235.69,1852.1 235.69,1854.85 241.19,1854.85 241.19,1857.6 252.2,1857.6 252.2,1860.35 296.22,1860.35 296.22,1857.6 301.72,1857.6 301.72,1854.85 307.22,1854.85 307.22,1852.1 312.73,1852.1 312.73,1849.34 320.98,1849.34 320.98,1846.59 323.73,1846.59 323.73,1843.84 329.24,1843.84 329.24,1841.09 331.99,1841.09 331.99,1838.34 337.49,1838.34 337.49,1835.59 342.99,1835.59 342.99,1832.84 345.74,1832.84 345.74,1830.08 351.25,1830.08 351.25,1827.33 356.75,1827.33 356.75,1824.58 359.5,1824.58 359.5,1821.83 365,1821.83 365,1819.08 367.75,1819.08 367.75,1816.33 370.51,1816.33 370.51,1813.58 376.01,1813.58 376.01,1810.83 381.51,1810.83 381.51,1808.07 384.26,1808.07 384.26,1805.32 389.76,1805.32 389.76,1802.57 392.52,1802.57 392.52,1799.82 395.27,1799.82 395.27,1797.07 400.77,1797.07 400.77,1794.32 403.52,1794.32 403.52,1791.57 409.02,1791.57 409.02,1788.81 414.52,1788.81 414.52,1786.07 417.28,1786.07 417.28,1783.31 420.03,1783.31 420.03,1780.56 425.53,1780.56 425.53,1777.81 428.28,1777.81 428.28,1775.06 431.03,1775.06 431.03,1772.31 436.54,1772.31 436.54,1769.56 439.29,1769.56 439.29,1766.81 442.04,1766.81 442.04,1764.05 447.54,1764.05 447.54,1761.3 450.29,1761.3 450.29,1758.55 453.05,1758.55 453.05,1755.8 458.55,1755.8 458.55,1753.05 461.3,1753.05 461.3,1750.3 464.05,1750.3 464.05,1747.54 466.8,1747.54 466.8,1744.8 469.55,1744.8 469.55,1742.04 472.3,1742.04 472.3,1739.29 475.06,1739.29 475.06,1733.79 477.81,1733.79 477.81,1731.04 480.56,1731.04 480.56,1728.29 483.31,1728.29 483.31,1722.78 486.06,1722.78 486.06,1720.03 488.81,1720.03 488.81,1714.53 491.56,1714.53 491.56,1709.03 494.31,1709.03 494.31,1703.53 497.06,1703.53 497.06,1695.27 499.82,1695.27 499.82,1687.02 502.57,1687.02 502.57,1673.26 505.32,1673.26 505.32,1593.47 502.57,1593.47 502.57,1576.96 499.82,1576.96 499.82,1557.71 497.06,1557.71 497.06,1541.2 494.31,1541.2 494.31,1532.95 491.56,1532.95 491.56,1516.44 488.81,1516.44 488.81,1505.43 486.06,1505.43 486.06,1497.18 483.31,1497.18 483.31,1486.17 480.56,1486.17 480.56,1477.92 477.81,1477.92 477.81,1469.66 475.06,1469.66 475.06,1458.66 472.3,1458.66 472.3,1453.16 469.55,1453.16 469.55,1444.9 466.8,1444.9 466.8,1433.9 464.05,1433.9 464.05,1425.65 461.3,1425.65 461.3,1414.64 458.55,1414.64 458.55,1406.38 455.79,1406.38 455.79,1398.13 453.05,1398.13 453.05,1392.63 450.29,1392.63 450.29,1384.37 447.54,1384.37 447.54,1378.87 444.79,1378.87 444.79,1370.62 442.04,1370.62 442.04,1365.11 439.29,1365.11 439.29,1359.61 436.54,1359.61 436.54,1354.11 433.79,1354.11 433.79,1345.85 431.03,1345.85 431.03,1340.35 428.28,1340.35 428.28,1334.85 425.53,1334.85 425.53,1329.35 422.78,1329.35 422.78,1323.85 420.03,1323.85 420.03,1318.34 417.28,1318.34 417.28,1312.84 414.52,1312.84 414.52,1307.34 411.78,1307.34 411.78,1304.58 409.02,1304.58 409.02,1299.08 406.27,1299.08 406.27,1293.58 403.52,1293.58 403.52,1288.08 400.77,1288.08 400.77,1282.58 398.02,1282.58 398.02,1279.82 395.27,1279.82 395.27,1277.07 392.52,1277.07 392.52,1271.57 389.76,1271.57 389.76,1268.82 387.01,1268.82 387.01,1263.31 384.26,1263.31 384.26,1260.57 381.51,1260.57 381.51,1257.81 378.76,1257.81 378.76,1252.31 376.01,1252.31 376.01,1249.56 373.26,1249.56 373.26,1244.06 370.51,1244.06 370.51,1241.31 367.75,1241.31 367.75,1238.55 365,1238.55 365,1235.8 362.25,1235.8 362.25,1230.3 359.5,1230.3 359.5,1227.55 356.75,1227.55 356.75,1224.8 354,1224.8 354,1222.05 351.25,1222.05 351.25,1219.3 348.49,1219.3 348.49,1216.54 342.99,1216.54 342.99,1213.79 340.24,1213.79 340.24,1211.04 337.49,1211.04 337.49,1208.29 334.74,1208.29 334.74,1205.54 331.99,1205.54 331.99,1202.79 329.24,1202.79 329.24,1200.04 323.73,1200.04 323.73,1197.28 318.23,1197.28 318.23,1194.54 312.73,1194.54 312.73,1191.78 307.22,1191.78 307.22,1189.03 301.72,1189.03 301.72,1186.28 287.97,1186.28 287.97,1183.53 279.71,1183.53 279.71,1180.78 243.95,1180.78 "/>
  <polygon id="root" class="fil1" points="224.68,195.81 221.94,195.81 221.94,198.56 219.18,198.56 219.18,201.31 216.43,201.31 216.43,204.06 213.68,204.06 213.68,209.57 210.93,209.57 210.93,215.07 208.18,215.07 208.18,220.57 205.43,220.57 205.43,231.58 202.68,231.58 202.68,237.08 199.92,237.08 199.92,248.08 197.17,248.08 197.17,259.09 194.42,259.09 194.42,281.1 191.67,281.1 191.67,303.11 188.92,303.11 188.92,327.87 186.17,327.87 186.17,385.65 183.41,385.65 183.41,426.92 180.67,426.92 180.67,473.69 177.91,473.69 177.91,501.2 175.16,501.2 175.16,528.72 172.41,528.72 172.41,550.73 169.66,550.73 169.66,578.24 166.91,578.24 166.91,594.75 164.16,594.75 164.16,616.76 161.41,616.76 161.41,633.27 158.65,633.27 158.65,649.78 155.9,649.78 155.9,666.28 153.15,666.28 153.15,682.79 150.4,682.79 150.4,691.04 147.65,691.04 147.65,710.31 144.9,710.31 144.9,726.81 142.15,726.81 142.15,751.57 139.4,751.57 139.4,768.08 136.64,768.08 136.64,787.34 133.89,787.34 133.89,814.85 131.14,814.85 131.14,836.86 128.39,836.86 128.39,861.63 125.64,861.63 125.64,883.64 122.89,883.64 122.89,927.66 120.14,927.66 120.14,968.93 117.38,968.93 117.38,1007.44 114.63,1007.44 114.63,1040.46 111.88,1040.46 111.88,1109.24 109.13,1109.24 109.13,1169.77 106.38,1169.77 106.38,1222.05 103.63,1222.05 103.63,1249.56 100.88,1249.56 100.88,1277.07 103.63,1277.07 103.63,1274.32 106.38,1274.32 106.38,1271.57 109.13,1271.57 109.13,1266.07 111.88,1266.07 111.88,1260.57 114.63,1260.57 114.63,1255.06 117.38,1255.06 117.38,1252.31 120.14,1252.31 120.14,1246.81 122.89,1246.81 122.89,1244.06 125.64,1244.06 125.64,1238.55 128.39,1238.55 128.39,1235.8 131.14,1235.8 131.14,1230.3 133.89,1230.3 133.89,1227.55 136.64,1227.55 136.64,1224.8 139.4,1224.8 139.4,1219.3 142.15,1219.3 142.15,1216.54 144.9,1216.54 144.9,1213.79 147.65,1213.79 147.65,1211.04 150.4,1211.04 150.4,1208.29 153.15,1208.29 153.15,1205.54 155.9,1205.54 155.9,1202.79 158.65,1202.79 158.65,1200.04 161.41,1200.04 161.41,1197.28 164.16,1197.28 164.16,1194.54 166.91,1194.54 166.91,1191.78 169.66,1191.78 169.66,1189.03 175.16,1189.03 175.16,1186.28 177.91,1186.28 177.91,1183.53 183.41,1183.53 183.41,1180.78 186.17,1180.78 186.17,1178.03 191.67,1178.03 191.67,1175.27 194.42,1175.27 194.42,1172.52 199.92,1172.52 199.92,1169.77 205.43,1169.77 205.43,1167.02 213.68,1167.02 213.68,1164.27 224.68,1164.27 224.68,1161.52 230.19,1161.52 230.19,1158.77 243.95,1158.77 243.95,1156.01 276.96,1156.01 276.96,1158.77 287.97,1158.77 287.97,1161.52 298.97,1161.52 298.97,1164.27 309.98,1164.27 309.98,1167.02 315.48,1167.02 315.48,1169.77 320.98,1169.77 320.98,1172.52 326.48,1172.52 326.48,1175.27 331.99,1175.27 331.99,1178.03 337.49,1178.03 337.49,1180.78 340.24,1180.78 340.24,1183.53 342.99,1183.53 342.99,1186.28 348.49,1186.28 348.49,1189.03 351.25,1189.03 351.25,1191.78 356.75,1191.78 356.75,1194.54 359.5,1194.54 359.5,1197.28 362.25,1197.28 362.25,1200.04 365,1200.04 365,1202.79 367.75,1202.79 367.75,1205.54 370.51,1205.54 370.51,1208.29 373.26,1208.29 373.26,1211.04 376.01,1211.04 376.01,1213.79 378.76,1213.79 378.76,1216.54 381.51,1216.54 381.51,1219.3 384.26,1219.3 384.26,1222.05 387.01,1222.05 387.01,1227.55 389.76,1227.55 389.76,1230.3 392.52,1230.3 392.52,1235.8 395.27,1235.8 395.27,1238.55 398.02,1238.55 398.02,1241.31 400.77,1241.31 400.77,1246.81 403.52,1246.81 403.52,1249.56 406.27,1249.56 406.27,1255.06 409.02,1255.06 409.02,1257.81 411.78,1257.81 411.78,1263.31 414.52,1263.31 414.52,1268.82 417.28,1268.82 417.28,1271.57 420.03,1271.57 420.03,1274.32 422.78,1274.32 422.78,1279.82 425.53,1279.82 425.53,1282.58 428.28,1282.58 428.28,1288.08 431.03,1288.08 431.03,1293.58 433.79,1293.58 433.79,1274.32 431.03,1274.32 431.03,1244.06 428.28,1244.06 428.28,1211.04 425.53,1211.04 425.53,1189.03 422.78,1189.03 422.78,1153.26 420.03,1153.26 420.03,1112 417.28,1112 417.28,1065.22 414.52,1065.22 414.52,1023.95 411.78,1023.95 411.78,990.94 409.02,990.94 409.02,952.42 406.27,952.42 406.27,916.65 403.52,916.65 403.52,858.88 400.77,858.88 400.77,828.61 398.02,828.61 398.02,790.09 395.27,790.09 395.27,770.83 392.52,770.83 392.52,743.32 389.76,743.32 389.76,718.56 387.01,718.56 387.01,702.05 384.26,702.05 384.26,685.54 381.51,685.54 381.51,660.78 378.76,660.78 378.76,652.53 376.01,652.53 376.01,636.02 373.26,636.02 373.26,616.76 370.51,616.76 370.51,605.75 367.75,605.75 367.75,589.24 365,589.24 365,578.24 362.25,578.24 362.25,561.73 359.5,561.73 359.5,547.98 356.75,547.98 356.75,536.97 354,536.97 354,525.97 351.25,525.97 351.25,512.21 348.49,512.21 348.49,501.2 345.74,501.2 345.74,490.2 342.99,490.2 342.99,481.94 340.24,481.94 340.24,468.19 337.49,468.19 337.49,457.18 334.74,457.18 334.74,446.18 331.99,446.18 331.99,435.17 329.24,435.17 329.24,424.17 326.48,424.17 326.48,413.16 323.73,413.16 323.73,402.16 320.98,402.16 320.98,391.15 318.23,391.15 318.23,380.15 315.48,380.15 315.48,371.89 312.73,371.89 312.73,360.89 309.98,360.89 309.98,352.63 307.22,352.63 307.22,341.63 304.47,341.63 304.47,330.62 301.72,330.62 301.72,319.62 298.97,319.62 298.97,314.12 296.22,314.12 296.22,303.11 293.47,303.11 293.47,297.61 290.72,297.61 290.72,286.6 287.97,286.6 287.97,278.35 285.21,278.35 285.21,272.85 282.46,272.85 282.46,264.59 279.71,264.59 279.71,256.34 276.96,256.34 276.96,250.84 274.21,250.84 274.21,245.33 271.46,245.33 271.46,239.83 268.71,239.83 268.71,234.33 265.95,234.33 265.95,228.82 263.2,228.82 263.2,223.32 260.45,223.32 260.45,217.82 257.7,217.82 257.7,215.07 254.95,215.07 254.95,209.57 252.2,209.57 252.2,206.81 249.45,206.81 249.45,204.06 246.7,204.06 246.7,201.31 243.95,201.31 243.95,198.56 241.19,198.56 241.19,195.81 235.69,195.81 235.69,193.06 224.68,193.06 "/>
  <path id="outline" class="fil2" d="M23.84 1582.47l2.75 0 0 -19.26 2.75 0 0 -11.01 2.75 0 0 -11 2.75 0 0 -13.76 2.76 0 0 -8.25 2.75 0 0 -11.01 2.75 0 0 -11 2.75 0 0 -11.01 2.75 0 0 -5.5 2.75 0 0 -11.01 2.75 0 0 -11 2.76 0 0 -8.25 2.75 0 0 -8.26 2.75 0 0 -8.25 2.75 0 0 -5.51 2.75 0 0 -8.25 2.75 0 0 -5.5 2.75 0 0 -8.26 2.75 0 0 -8.25 2.76 0 0 -5.5 2.75 0 0 -8.26 2.75 0 0 -8.25 2.75 0 0 -5.5 2.75 0 0 -8.26 2.75 0 0 -8.25 2.75 0 0 -5.5 2.76 0 0 -5.5 2.75 0 0 -8.26 2.75 0 0 -5.5 2.75 0 0 -5.5 2.75 0 0 -5.51 2.75 0 0 -8.25 2.75 0 0 -2.75 2.75 0 0 -5.5 2.76 0 0 -5.51 2.75 0 0 -5.5 2.75 0 0 -5.5 2.75 0 0 -5.51 2.75 0 0 -2.75 2.75 0 0 -5.5 2.75 0 0 -5.5 2.76 0 0 -5.5 2.75 0 0 -2.76 2.75 0 0 -5.5 2.75 0 0 -2.75 2.75 0 0 -2.75 2.75 0 0 -5.5 2.75 0 0 -2.76 2.75 0 0 -2.75 2.76 0 0 -2.75 2.75 0 0 -5.5 2.75 0 0 -2.75 2.75 0 0 -2.75 2.75 0 0 -2.75 5.5 0 0 -5.51 2.76 0 0 -2.75 5.5 0 0 -2.75 2.75 0 0 -2.75 5.5 0 0 -2.75 2.75 0 0 -2.75 2.75 0 0 -2.76 5.51 0 0 -2.74 5.5 0 0 -2.76 5.5 0 0 -2.75 5.51 0 0 -2.75 11 0 0 -2.75 11.01 0 0 -2.75 35.76 0 0 2.75 8.26 0 0 2.75 13.75 0 0 2.75 5.5 0 0 2.75 5.51 0 0 2.76 5.5 0 0 2.74 5.5 0 0 2.76 5.51 0 0 2.75 2.75 0 0 2.75 2.75 0 0 2.75 2.75 0 0 2.75 2.75 0 0 2.75 2.75 0 0 2.75 5.5 0 0 2.76 2.76 0 0 2.75 2.75 0 0 2.75 2.75 0 0 2.75 2.75 0 0 2.75 2.75 0 0 5.5 2.75 0 0 2.75 2.75 0 0 2.76 2.76 0 0 2.75 2.75 0 0 5.5 2.75 0 0 2.75 2.75 0 0 5.5 2.75 0 0 2.76 2.75 0 0 2.74 2.75 0 0 5.51 2.75 0 0 2.75 2.76 0 0 5.5 2.75 0 0 2.75 2.75 0 0 2.76 2.75 0 0 5.5 2.75 0 0 5.5 2.75 0 0 5.5 2.75 0 0 5.5 2.76 0 0 2.76 2.74 0 0 5.5 2.76 0 0 5.5 2.75 0 0 5.51 2.75 0 0 5.5 2.75 0 0 5.5 2.75 0 0 5.5 2.75 0 0 5.5 2.76 0 0 8.26 2.75 0 0 5.5 2.75 0 0 5.5 2.75 0 0 5.51 2.75 0 0 8.25 2.75 0 0 5.5 2.75 0 0 8.26 2.76 0 0 5.5 2.74 0 0 8.25 2.76 0 0 8.26 2.75 0 0 11.01 2.75 0 0 8.25 2.75 0 0 11 2.75 0 0 8.26 2.75 0 0 5.5 2.76 0 0 11 2.75 0 0 8.26 2.75 0 0 8.25 2.75 0 0 11.01 2.75 0 0 8.25 2.75 0 0 11.01 2.75 0 0 16.51 2.75 0 0 8.25 2.75 0 0 16.51 2.76 0 0 19.25 2.75 0 0 16.51 2.75 0 0 79.79 -2.75 0 0 13.76 -2.75 0 0 8.25 -2.76 0 0 8.26 -2.75 0 0 5.5 -2.75 0 0 5.5 -2.75 0 0 5.5 -2.75 0 0 2.75 -2.75 0 0 5.51 -2.75 0 0 2.75 -2.75 0 0 2.75 -2.75 0 0 5.5 -2.76 0 0 2.75 -2.75 0 0 2.76 -2.75 0 0 2.74 -2.75 0 0 2.76 -2.75 0 0 2.75 -2.75 0 0 2.75 -5.5 0 0 2.75 -2.76 0 0 2.75 -2.75 0 0 2.75 -5.5 0 0 2.76 -2.75 0 0 2.75 -2.75 0 0 2.75 -5.51 0 0 2.75 -2.75 0 0 2.75 -2.75 0 0 2.75 -5.5 0 0 2.75 -2.75 0 0 2.76 -2.76 0 0 2.74 -5.5 0 0 2.76 -5.5 0 0 2.75 -2.75 0 0 2.75 -5.5 0 0 2.75 -2.75 0 0 2.75 -2.76 0 0 2.75 -5.5 0 0 2.75 -2.75 0 0 2.76 -5.5 0 0 2.75 -5.5 0 0 2.75 -2.76 0 0 2.75 -2.75 0 0 2.75 -5.5 0 0 2.75 -2.75 0 0 2.75 -5.5 0 0 2.75 -5.51 0 0 2.76 -2.75 0 0 2.75 -5.5 0 0 2.75 -5.5 0 0 2.75 -2.75 0 0 2.75 -5.51 0 0 2.75 -2.75 0 0 2.75 -8.25 0 0 2.76 -5.51 0 0 2.75 -5.5 0 0 2.75 -5.5 0 0 2.75 -44.02 0 0 -2.75 -11.01 0 0 -2.75 -5.5 0 0 -2.75 -8.25 0 0 -2.76 -5.5 0 0 -2.75 -2.76 0 0 -2.75 -5.5 0 0 -2.75 -5.5 0 0 -2.75 -5.5 0 0 -2.75 -5.51 0 0 -2.75 -2.75 0 0 -2.76 -5.5 0 0 -2.75 -5.51 0 0 -2.75 -2.74 0 0 -2.75 -5.51 0 0 -2.75 -2.75 0 0 -2.75 -5.5 0 0 -2.75 -2.75 0 0 -2.75 -5.51 0 0 -2.76 -2.75 0 0 -2.75 -5.5 0 0 -2.75 -2.75 0 0 -2.75 -5.5 0 0 -2.75 -2.75 0 0 -2.75 -5.51 0 0 -2.75 -2.75 0 0 -2.76 -5.5 0 0 -2.74 -2.75 0 0 -2.76 -5.51 0 0 -2.75 -2.75 0 0 -2.75 -5.5 0 0 -2.75 -2.75 0 0 -2.75 -2.75 0 0 -2.75 -5.5 0 0 -2.75 -2.76 0 0 -2.76 -5.5 0 0 -2.75 -2.75 0 0 -2.75 -2.75 0 0 -2.75 -2.75 0 0 -2.75 -5.51 0 0 -2.75 -2.75 0 0 -2.76 -2.75 0 0 -2.74 -2.75 0 0 -2.76 -2.75 0 0 -2.75 -2.75 0 0 -2.75 -2.75 0 0 -2.75 -2.75 0 0 -2.75 -2.76 0 0 -5.5 -2.75 0 0 -2.76 -2.75 0 0 -2.75 -2.75 0 0 -5.5 -2.75 0 0 -2.75 -2.75 0 0 -5.5 -2.75 0 0 -8.26 -2.76 0 0 -5.5 -2.75 0 0 -8.25 -2.75 0 0 -5.51 -2.75 0 0 -22 -2.75 0 0 -74.29zm220.11 -423.7l-13.76 0 0 2.75 -5.51 0 0 2.75 -11 0 0 2.75 -8.25 0 0 2.75 -5.51 0 0 2.75 -5.5 0 0 2.75 -2.75 0 0 2.76 -5.5 0 0 2.75 -2.76 0 0 2.75 -5.5 0 0 2.75 -2.75 0 0 2.75 -5.5 0 0 2.75 -2.75 0 0 2.76 -2.75 0 0 2.74 -2.75 0 0 2.76 -2.76 0 0 2.75 -2.75 0 0 2.75 -2.75 0 0 2.75 -2.75 0 0 2.75 -2.75 0 0 2.75 -2.75 0 0 2.75 -2.75 0 0 2.76 -2.75 0 0 5.5 -2.76 0 0 2.75 -2.75 0 0 2.75 -2.75 0 0 5.5 -2.75 0 0 2.75 -2.75 0 0 5.51 -2.75 0 0 2.75 -2.75 0 0 5.5 -2.76 0 0 2.75 -2.75 0 0 5.51 -2.75 0 0 5.5 -2.75 0 0 5.5 -2.75 0 0 2.75 -2.75 0 0 2.75 -2.75 0 0 -27.51 2.75 0 0 -27.51 2.75 0 0 -52.28 2.75 0 0 -60.53 2.75 0 0 -68.78 2.75 0 0 -33.02 2.75 0 0 -38.51 2.76 0 0 -41.27 2.75 0 0 -44.02 2.75 0 0 -22.01 2.75 0 0 -24.77 2.75 0 0 -22.01 2.75 0 0 -27.51 2.75 0 0 -19.26 2.76 0 0 -16.51 2.75 0 0 -24.76 2.75 0 0 -16.5 2.75 0 0 -19.27 2.75 0 0 -8.25 2.75 0 0 -16.51 2.75 0 0 -16.5 2.75 0 0 -16.51 2.76 0 0 -16.51 2.75 0 0 -22.01 2.75 0 0 -16.51 2.75 0 0 -27.51 2.75 0 0 -22.01 2.75 0 0 -27.52 2.75 0 0 -27.51 2.76 0 0 -46.77 2.74 0 0 -41.27 2.76 0 0 -57.78 2.75 0 0 -24.76 2.75 0 0 -22.01 2.75 0 0 -22.01 2.75 0 0 -11.01 2.75 0 0 -11 2.76 0 0 -5.5 2.75 0 0 -11.01 2.75 0 0 -5.5 2.75 0 0 -5.5 2.75 0 0 -5.51 2.75 0 0 -2.75 2.75 0 0 -2.75 2.76 0 0 -2.75 2.74 0 0 -2.75 11.01 0 0 2.75 5.5 0 0 2.75 2.76 0 0 2.75 2.75 0 0 2.75 2.75 0 0 2.75 2.75 0 0 2.76 2.75 0 0 5.5 2.75 0 0 2.75 2.75 0 0 5.5 2.75 0 0 5.5 2.75 0 0 5.51 2.76 0 0 5.5 2.75 0 0 5.5 2.75 0 0 5.51 2.75 0 0 5.5 2.75 0 0 8.25 2.75 0 0 8.26 2.75 0 0 5.5 2.76 0 0 8.25 2.75 0 0 11.01 2.75 0 0 5.5 2.75 0 0 11.01 2.75 0 0 5.5 2.75 0 0 11 2.75 0 0 11.01 2.75 0 0 11 2.76 0 0 8.26 2.75 0 0 11 2.75 0 0 8.26 2.75 0 0 11 2.75 0 0 11.01 2.75 0 0 11 2.75 0 0 11.01 2.76 0 0 11 2.75 0 0 11.01 2.75 0 0 11 2.75 0 0 11.01 2.75 0 0 13.75 2.75 0 0 8.26 2.75 0 0 11 2.75 0 0 11.01 2.76 0 0 13.76 2.75 0 0 11 2.75 0 0 11.01 2.75 0 0 13.75 2.75 0 0 16.51 2.75 0 0 11 2.75 0 0 16.51 2.76 0 0 11.01 2.75 0 0 19.26 2.75 0 0 16.51 2.75 0 0 8.25 2.75 0 0 24.76 2.75 0 0 16.51 2.75 0 0 16.51 2.75 0 0 24.76 2.76 0 0 27.51 2.75 0 0 19.26 2.75 0 0 38.52 2.75 0 0 30.27 2.75 0 0 57.77 2.75 0 0 35.77 2.75 0 0 38.52 2.76 0 0 33.01 2.74 0 0 41.27 2.76 0 0 46.78 2.75 0 0 41.26 2.75 0 0 35.77 2.75 0 0 22.01 2.75 0 0 33.02 2.75 0 0 30.26 2.76 0 0 19.26 -2.76 0 0 -5.5 -2.75 0 0 -5.5 -2.75 0 0 -2.76 -2.75 0 0 -5.5 -2.75 0 0 -2.75 -2.75 0 0 -2.75 -2.76 0 0 -5.51 -2.74 0 0 -5.5 -2.76 0 0 -2.75 -2.75 0 0 -5.5 -2.75 0 0 -2.75 -2.75 0 0 -5.5 -2.75 0 0 -2.76 -2.75 0 0 -2.75 -2.75 0 0 -5.5 -2.76 0 0 -2.75 -2.75 0 0 -5.5 -2.75 0 0 -2.75 -2.75 0 0 -2.76 -2.75 0 0 -2.75 -2.75 0 0 -2.75 -2.75 0 0 -2.75 -2.75 0 0 -2.75 -2.76 0 0 -2.75 -2.75 0 0 -2.75 -2.75 0 0 -2.76 -2.75 0 0 -2.74 -2.75 0 0 -2.76 -5.5 0 0 -2.75 -2.76 0 0 -2.75 -5.5 0 0 -2.75 -2.75 0 0 -2.75 -2.75 0 0 -2.75 -5.5 0 0 -2.76 -5.51 0 0 -2.75 -5.5 0 0 -2.75 -5.5 0 0 -2.75 -5.5 0 0 -2.75 -11.01 0 0 -2.75 -11 0 0 -2.75 -11.01 0 0 -2.76 -33.01 0 0 2.76zm-24.77 -987.72l-5.5 0 0 2.75 -5.5 0 0 2.75 -2.75 0 0 2.75 -2.75 0 0 2.75 -2.76 0 0 5.5 -2.75 0 0 2.76 -2.75 0 0 5.5 -2.75 0 0 2.75 -2.75 0 0 8.25 -2.75 0 0 2.76 -2.76 0 0 11 -2.74 0 0 5.5 -2.76 0 0 11.01 -2.75 0 0 13.76 -2.75 0 0 13.75 -2.75 0 0 16.51 -2.75 0 0 38.52 -2.75 0 0 35.77 -2.75 0 0 38.51 -2.76 0 0 55.03 -2.75 0 0 27.51 -2.75 0 0 35.77 -2.75 0 0 16.51 -2.75 0 0 24.76 -2.75 0 0 27.51 -2.75 0 0 8.25 -2.75 0 0 30.27 -2.76 0 0 13.76 -2.75 0 0 19.26 -2.75 0 0 11 -2.75 0 0 16.51 -2.75 0 0 22.01 -2.75 0 0 11 -2.75 0 0 22.02 -2.76 0 0 16.5 -2.75 0 0 24.77 -2.75 0 0 24.76 -2.75 0 0 8.25 -2.75 0 0 35.77 -2.75 0 0 27.51 -2.75 0 0 33.02 -2.75 0 0 13.75 -2.76 0 0 49.53 -2.75 0 0 44.02 -2.75 0 0 44.02 -2.75 0 0 52.27 -2.75 0 0 90.8 -2.75 0 0 33.01 -2.75 0 0 27.52 -2.76 0 0 33.01 -2.75 0 0 33.02 -2.75 0 0 16.51 -2.75 0 0 11 -2.75 0 0 8.25 -2.75 0 0 8.26 -2.75 0 0 5.5 -2.75 0 0 13.76 -2.76 0 0 5.5 -2.75 0 0 8.25 -2.75 0 0 8.26 -2.75 0 0 8.25 -2.75 0 0 5.51 -2.75 0 0 8.25 -2.75 0 0 8.25 -2.76 0 0 8.26 -2.75 0 0 5.5 -2.75 0 0 11 -2.75 0 0 8.26 -2.75 0 0 5.5 -2.75 0 0 11.01 -2.75 0 0 11 -2.75 0 0 13.76 -2.75 0 0 5.5 -2.76 0 0 13.76 -2.75 0 0 19.26 -2.75 0 0 11 -2.75 0 0 35.77 -2.75 0 0 55.03 2.75 0 0 13.75 2.75 0 0 16.51 2.75 0 0 8.25 2.75 0 0 8.26 2.76 0 0 5.5 2.75 0 0 5.5 2.75 0 0 5.5 2.75 0 0 5.51 2.75 0 0 2.75 2.75 0 0 5.5 2.75 0 0 2.75 2.75 0 0 2.75 2.75 0 0 5.51 2.76 0 0 2.74 2.75 0 0 2.76 2.75 0 0 2.75 2.75 0 0 2.75 2.75 0 0 2.75 2.75 0 0 2.75 2.75 0 0 2.75 2.76 0 0 2.76 2.75 0 0 2.75 2.75 0 0 2.75 2.75 0 0 2.75 5.5 0 0 2.75 2.75 0 0 2.75 2.75 0 0 2.75 5.51 0 0 2.76 2.75 0 0 2.74 5.5 0 0 2.76 2.75 0 0 2.75 5.51 0 0 2.75 2.75 0 0 2.75 2.75 0 0 2.75 5.5 0 0 2.75 2.75 0 0 2.75 5.5 0 0 2.76 2.76 0 0 2.75 5.5 0 0 2.75 2.75 0 0 2.75 5.5 0 0 2.75 2.75 0 0 2.75 5.51 0 0 2.75 2.75 0 0 2.75 5.5 0 0 2.76 2.75 0 0 2.75 5.5 0 0 2.75 2.76 0 0 2.75 5.5 0 0 2.75 2.75 0 0 2.75 5.5 0 0 2.75 2.75 0 0 2.76 5.5 0 0 2.75 5.51 0 0 2.75 2.75 0 0 2.75 5.5 0 0 2.75 5.51 0 0 2.75 5.5 0 0 2.76 5.5 0 0 2.74 5.5 0 0 2.76 5.5 0 0 2.75 11.01 0 0 2.75 2.75 0 0 2.75 13.76 0 0 2.75 44.02 0 0 -2.75 8.25 0 0 -2.75 8.26 0 0 -2.75 5.5 0 0 -2.75 8.25 0 0 -2.76 5.51 0 0 -2.74 2.75 0 0 -2.76 5.5 0 0 -2.75 2.75 0 0 -2.75 5.5 0 0 -2.75 5.51 0 0 -2.75 2.75 0 0 -2.75 5.5 0 0 -2.76 2.75 0 0 -2.75 5.51 0 0 -2.75 2.75 0 0 -2.75 5.5 0 0 -2.75 2.75 0 0 -2.75 5.5 0 0 -2.75 5.51 0 0 -2.76 2.75 0 0 -2.75 2.75 0 0 -2.75 5.5 0 0 -2.75 2.75 0 0 -2.75 5.51 0 0 -2.75 2.74 0 0 -2.75 5.51 0 0 -2.75 2.75 0 0 -2.76 2.75 0 0 -2.75 5.5 0 0 -2.75 5.51 0 0 -2.75 2.75 0 0 -2.75 2.75 0 0 -2.75 5.5 0 0 -2.75 2.75 0 0 -2.76 2.76 0 0 -2.74 5.5 0 0 -2.76 2.75 0 0 -2.75 2.75 0 0 -2.75 2.75 0 0 -2.75 2.75 0 0 -2.75 5.51 0 0 -2.75 2.75 0 0 -2.75 2.75 0 0 -2.76 2.75 0 0 -2.75 2.75 0 0 -2.75 2.75 0 0 -2.75 2.75 0 0 -2.75 2.75 0 0 -2.75 2.75 0 0 -5.5 2.76 0 0 -2.76 2.75 0 0 -5.5 2.75 0 0 -2.75 2.75 0 0 -5.5 2.75 0 0 -5.51 2.75 0 0 -5.5 2.75 0 0 -2.75 2.76 0 0 -8.25 2.75 0 0 -8.26 2.75 0 0 -8.25 2.75 0 0 -16.51 2.75 0 0 -77.04 -2.75 0 0 -22 -2.75 0 0 -16.51 -2.75 0 0 -11.01 -2.75 0 0 -11 -2.76 0 0 -16.51 -2.75 0 0 -8.26 -2.75 0 0 -13.75 -2.75 0 0 -5.5 -2.75 0 0 -11.01 -2.75 0 0 -11.01 -2.75 0 0 -11 -2.76 0 0 -5.5 -2.75 0 0 -8.26 -2.75 0 0 -13.75 -2.75 0 0 -11.01 -2.75 0 0 -8.25 -2.75 0 0 -5.51 -2.75 0 0 -8.25 -2.75 0 0 -8.25 -2.75 0 0 -8.26 -2.76 0 0 -16.51 -2.75 0 0 -5.5 -2.75 0 0 -22.01 -2.75 0 0 -11 -2.75 0 0 -27.52 -2.75 0 0 -27.51 -2.76 0 0 -24.76 -2.74 0 0 -30.27 -2.76 0 0 -16.5 -2.75 0 0 -41.27 -2.75 0 0 -35.77 -2.75 0 0 -44.02 -2.75 0 0 -22.01 -2.75 0 0 -44.02 -2.75 0 0 -52.28 -2.76 0 0 -24.76 -2.75 0 0 -55.02 -2.75 0 0 -44.03 -2.75 0 0 -33.01 -2.75 0 0 -27.51 -2.75 0 0 -27.52 -2.76 0 0 -16.51 -2.74 0 0 -22 -2.76 0 0 -16.51 -2.75 0 0 -22.02 -2.75 0 0 -16.5 -2.75 0 0 -19.26 -2.75 0 0 -19.26 -2.75 0 0 -8.25 -2.75 0 0 -19.27 -2.76 0 0 -11 -2.75 0 0 -11 -2.75 0 0 -16.51 -2.75 0 0 -11.01 -2.75 0 0 -16.51 -2.75 0 0 -11 -2.75 0 0 -11.01 -2.75 0 0 -11 -2.76 0 0 -11.01 -2.75 0 0 -13.75 -2.75 0 0 -5.51 -2.75 0 0 -16.5 -2.75 0 0 -5.51 -2.75 0 0 -11 -2.75 0 0 -16.51 -2.76 0 0 -8.25 -2.75 0 0 -11.01 -2.75 0 0 -11 -2.75 0 0 -5.51 -2.75 0 0 -11 -2.75 0 0 -11.01 -2.75 0 0 -8.25 -2.75 0 0 -13.76 -2.76 0 0 -5.5 -2.75 0 0 -11 -2.75 0 0 -11.01 -2.75 0 0 -11.01 -2.75 0 0 -5.5 -2.75 0 0 -11 -2.75 0 0 -8.25 -2.76 0 0 -8.26 -2.75 0 0 -5.5 -2.75 0 0 -5.51 -2.75 0 0 -8.25 -2.75 0 0 -5.5 -2.75 0 0 -5.51 -2.75 0 0 -5.5 -2.75 0 0 -5.5 -2.76 0 0 -5.5 -2.75 0 0 -2.75 -2.75 0 0 -5.51 -2.75 0 0 -2.75 -2.75 0 0 -5.5 -2.75 0 0 -2.75 -2.75 0 0 -2.75 -2.76 0 0 -5.5 -2.75 0 0 -2.76 -2.75 0 0 -2.75 -5.5 0 0 -2.75 -2.75 0 0 -2.75 -5.5 0 0 -2.75 -8.26 0 0 -2.75 -19.26 0 0 2.75z"/>
 </g>
</svg>
