<!-- Creator: CorelDRAW (Versión de evaluación) -->
<svg xmlns="http://www.w3.org/2000/svg" xml:space="preserve" width="28.934mm" height="173.699mm" version="1.1" style="shape-rendering:geometricPrecision; text-rendering:geometricPrecision; image-rendering:optimizeQuality; fill-rule:evenodd; clip-rule:evenodd"
viewBox="0 0 2893.4 17369.86"
 xmlns:xlink="http://www.w3.org/1999/xlink"
 xmlns:xodm="http://www.corel.com/coreldraw/odm/2003">
 <defs>
  <style type="text/css">
   <![CDATA[
    .fil2 {fill:#4B4B4D}
    .fil3 {fill:#FFCC29}
    .fil4 {fill:#F48884}
    .fil1 {fill:#F4EDDA}
    .fil0 {fill:#F8F9FD}
   ]]>
  </style>
 </defs>
 <g id="deciduous">
  <metadata id="CorelCorpID_0Corel-Layer"/>
  <path id="crown" class="fil0" d="M477.19 316.43c104.08,14.52 243.82,-1.7 361.23,14.54 122.75,16.98 183.56,40.95 328.6,38.62 287.78,-4.63 400.19,-40.22 699.29,-4.4 290.87,34.83 309.06,5.26 538.3,171.96 79.83,58.05 113.29,78.68 170.13,186.24 86.41,163.48 72.63,505.8 53.79,691.13 -11.68,114.95 -17.47,41.01 -36.12,130.92 -11.69,56.35 -3.21,129.35 -12.01,185.74 -17.52,112.14 -20.27,24.14 -44,115.23 -9.02,34.64 -13.14,128.19 -18.85,173.88 -46.83,374.75 -169.24,594.57 -194.02,714.58 -28.69,138.95 -90.5,285.07 -147.72,407.03 -63.32,134.99 -226.96,384.85 -363.25,461.17 -14.13,7.92 -9.33,4.53 -28.44,14.25 -4.42,2.24 -10.04,4.75 -14.48,6.99l-143.33 72.98c-49.28,16.13 -109.72,18.12 -163.2,18.38 -129.48,0.65 -92.09,-6.77 -182.95,-42.45 -5.26,-2.06 -10.53,-4.24 -15.86,-6.14l-33.55 -9.86c-54.46,-16.46 -23.49,1.05 -78.79,-25.81 -51.55,-25.05 -64.67,-43.13 -111.51,-76.9 -379.75,-273.82 -324.05,-384.87 -364.41,-484.05 -44.83,-110.17 -28.45,8.07 -51.79,-132.46 -9.1,-54.75 4.52,-19.14 -14.3,-74.22l-21.95 -44.79c-39.49,-100.82 -3.44,-103.29 -39.06,-196.25 -51.04,-133.21 -32.94,-159.09 -70.69,-289.01 -27.87,-95.94 -32.6,-9.65 -45.21,-116.34 -11.46,-96.89 20.41,-78.04 -22.6,-171.78 -37.41,-81.53 -34.34,3.84 -43.4,-122.1 -4.13,-57.47 6.53,-139.99 1.58,-193.31 -20.16,-217.01 -60.02,85.08 -62.83,-315.82 -0.39,-54.96 -3.43,-115.75 -5.74,-171.27 -10.87,-260.88 -48.15,79.2 -59.47,-485.65 -4.42,-220.27 -69.44,-483.72 236.61,-441.03z"/>
  <path id="root" class="fil1" d="M1079.41 3851.68c196.64,106.9 529.62,108.46 750.89,-16.68 137.36,-77.68 192.61,-156.04 242.75,-171.38 32.97,228.13 -61.1,486.71 -61.46,587.95 -0.36,100.76 16.11,213.21 -7.86,309.09 -25.99,103.96 -49.64,130.63 -52.45,263.53l-9.73 1117.85c-21.54,91.18 -17.4,-4.49 -44.64,96.44 -17.68,65.54 -12.68,523.17 -14.25,629.55 -4.81,326.51 -19.3,127.69 -57.46,256.96 -40.57,137.41 46.01,230.86 -36.42,453.23 -24.27,65.48 -18.17,50.46 -23.31,134.78 -3.45,56.67 -4.42,94.98 -13.46,149.93 -19.25,116.88 -33.36,56.3 -55.56,151.44 -1.56,6.68 -1.77,12.32 -3.06,19.21 -15.71,83.27 -16.19,119.87 -97.77,217.08 -84.33,100.48 -83.66,86.77 -136.09,64.09 -126.49,-54.73 -171.48,-206.89 -199.07,-295.41 -21.12,-67.81 -23.98,-31.82 -42.69,-100.03l-107.2 -522.36c-14.81,-205.62 -102.51,-289.43 -119.54,-847.47 -8.33,-272.72 -20.48,-139.66 -41.12,-274.61 -15.23,-99.54 3,-210.04 -11.85,-302.35 -12.7,-78.97 -26.49,-81.18 -35.18,-129.43 -14.42,-80.09 -4.51,-666.93 -42.64,-745.88 -68.23,-141.22 -39.47,-353.53 -44.62,-580.9 -3.55,-156.64 -18.92,-483.55 5.19,-623.36 26.65,3.3 227.39,141.76 258.6,158.73z"/>
  <path id="outline" class="fil2" d="M2073.05 3663.62c-50.14,15.34 -105.39,93.7 -242.75,171.38 -221.27,125.14 -554.25,123.58 -750.89,16.68 -31.21,-16.97 -231.95,-155.43 -258.6,-158.73 -24.11,139.81 -8.74,466.72 -5.19,623.36 5.15,227.37 -23.61,439.68 44.62,580.9 38.13,78.95 28.22,665.79 42.64,745.88 8.69,48.25 22.48,50.46 35.18,129.43 14.85,92.31 -3.38,202.81 11.85,302.35 20.64,134.95 32.79,1.89 41.12,274.61 17.03,558.04 104.73,641.85 119.54,847.47l107.2 522.36c18.71,68.21 21.57,32.22 42.69,100.03 27.59,88.52 72.58,240.68 199.07,295.41 52.43,22.68 51.76,36.39 136.09,-64.09 81.58,-97.21 82.06,-133.81 97.77,-217.08 1.29,-6.89 1.5,-12.53 3.06,-19.21 22.2,-95.14 36.31,-34.56 55.56,-151.44 9.04,-54.95 10.01,-93.26 13.46,-149.93 5.14,-84.32 -0.96,-69.3 23.31,-134.78 82.43,-222.37 -4.15,-315.82 36.42,-453.23 38.16,-129.27 52.65,69.55 57.46,-256.96 1.57,-106.38 -3.43,-564.01 14.25,-629.55 27.24,-100.93 23.1,-5.26 44.64,-96.44l9.73 -1117.85c2.81,-132.9 26.46,-159.57 52.45,-263.53 23.97,-95.88 7.5,-208.33 7.86,-309.09 0.36,-101.24 94.43,-359.82 61.46,-587.95zm-1595.86 -3347.19c-306.05,-42.69 -241.03,220.76 -236.61,441.03 11.32,564.85 48.6,224.77 59.47,485.65 2.31,55.52 5.35,116.31 5.74,171.27 2.81,400.9 42.67,98.81 62.83,315.82 4.95,53.32 -5.71,135.84 -1.58,193.31 9.06,125.94 5.99,40.57 43.4,122.1 43.01,93.74 11.14,74.89 22.6,171.78 12.61,106.69 17.34,20.4 45.21,116.34 37.75,129.92 19.65,155.8 70.69,289.01 35.62,92.96 -0.43,95.43 39.06,196.25l21.95 44.79c18.82,55.08 5.2,19.47 14.3,74.22 23.34,140.53 6.96,22.29 51.79,132.46 40.36,99.18 -15.34,210.23 364.41,484.05 46.84,33.77 59.96,51.85 111.51,76.9 55.3,26.86 24.33,9.35 78.79,25.81l33.55 9.86c5.33,1.9 10.6,4.08 15.86,6.14 90.86,35.68 53.47,43.1 182.95,42.45 53.48,-0.26 113.92,-2.25 163.2,-18.38l143.33 -72.98c4.44,-2.24 10.06,-4.75 14.48,-6.99 19.11,-9.72 14.31,-6.33 28.44,-14.25 136.29,-76.32 299.93,-326.18 363.25,-461.17 57.22,-121.96 119.03,-268.08 147.72,-407.03 24.78,-120.01 147.19,-339.83 194.02,-714.58 5.71,-45.69 9.83,-139.24 18.85,-173.88 23.73,-91.09 26.48,-3.09 44,-115.23 8.8,-56.39 0.32,-129.39 12.01,-185.74 18.65,-89.91 24.44,-15.97 36.12,-130.92 18.84,-185.33 32.62,-527.65 -53.79,-691.13 -56.84,-107.56 -90.3,-128.19 -170.13,-186.24 -229.24,-166.7 -247.43,-137.13 -538.3,-171.96 -299.1,-35.82 -411.51,-0.23 -699.29,4.4 -145.04,2.33 -205.85,-21.64 -328.6,-38.62 -117.41,-16.24 -257.15,-0.02 -361.23,-14.54zm880.57 -181.44c112.91,0.49 226.03,1.93 338.93,1.34 167.09,-0.87 306.46,30.9 466.39,50.49l255.28 84.07c73.55,35.05 223.8,146.09 279.85,225.62 7.61,10.79 122.5,211.2 123.64,214.28l61.62 279.69c3.04,27.41 4.62,143.05 1.41,169.16 -13.9,113.11 -27.69,35.87 -44.2,149.2 -14.13,97 5.91,240.53 -9.56,336.7 -23.62,146.92 -42.11,-55.6 -60.96,278.44l-282.84 1062.85c-127.41,382.36 -159.43,234.44 -163.46,545.81 -5.56,430.11 -51.97,25.22 -55.99,615.68 -1.03,151 -45.96,119.68 -50.38,294.48l-13.78 657.27c-7.84,95.07 -47.5,161.61 -55.65,276.67 -10.98,155.1 12.91,1100.21 -20.68,1194.1 -79.46,222.19 -48.8,143.51 -52.6,457.91 -2.6,215.2 -55.91,136.34 -60.18,294.07 -9.41,348.23 -20.56,141.62 -52.23,282.74 -12.12,54.01 -0.21,104.43 -16.62,158.36 -22.94,75.43 -31.65,17.36 -53.31,114.58 -20.52,92.14 15.23,61.76 -36.68,135.57 -42.07,59.81 -22.35,-20.67 -60.38,105.84 -64.98,216.16 -3.31,17.86 -149.46,204.06 -234.81,10.85 -290.32,24.7 -432.46,-137.65l-121.49 -172.48c-209.09,-374.01 -233.32,-1172.03 -309.2,-1385.9 -42.39,-119.48 -6.15,-268.38 -29.31,-400.29 -24.31,-138.48 -37.63,-97.17 -58.37,-364.78 -5.18,-66.88 3,-146.46 -4.75,-210.34 -18.78,-154.75 -56.43,30.8 -64.74,-573.61 -1.83,-133.51 10.33,-295.51 0.45,-423.82 -12.68,-164.65 -59.61,-2.11 -54.05,-359.9 3.32,-213.81 20.16,-652.93 -7.46,-846.64l-122.89 -286.52c-21.21,-78.85 17.27,-63.71 -34.77,-181.93 -42.2,-95.89 -29.4,-73.7 -36.22,-189.02 -95.77,-83.59 -61.31,-20.56 -66.02,-191.01 -5.26,-190.66 -48.84,-95.47 -59.93,-213.05 -4.13,-43.89 7.25,-83.65 -0.7,-126.95 -27.53,-149.92 -10.64,2.22 -54.51,-97.74 -34.7,-79.05 4.79,-193.73 -12.92,-282.43 -31.07,-155.53 -66.1,24.93 -63.74,-209.94 3.17,-314.36 -4.76,-161.58 -40.52,-246.6 -64.04,-152.24 30.6,-382.76 -38.56,-530.73 -33,-70.6 -40.41,-9.12 -40.46,-241.23 -0.02,-129.21 68.54,-403.47 109.51,-449.88l33.19 -29.05c279.75,-200.31 592.97,-50.18 653.9,-43.55 154.87,16.84 403.63,5.41 567.86,6.06z"/>
 </g>
 <g id="pulpotomy" visibility="hidden">
  <metadata id="CorelCorpID_1Corel-Layer"/>
  <path id="crown_1517" class="fil0" d="M477.19 316.43c104.08,14.52 243.82,-1.7 361.23,14.54 122.75,16.98 183.56,40.95 328.6,38.62 287.78,-4.63 400.19,-40.22 699.29,-4.4 290.87,34.83 309.06,5.26 538.3,171.96 79.83,58.05 113.29,78.68 170.13,186.24 86.41,163.48 72.63,505.8 53.79,691.13 -11.68,114.95 -17.47,41.01 -36.12,130.92 -11.69,56.35 -3.21,129.35 -12.01,185.74 -17.52,112.14 -20.27,24.14 -44,115.23 -9.02,34.64 -13.14,128.19 -18.85,173.88 -46.83,374.75 -169.24,594.57 -194.02,714.58 -28.69,138.95 -90.5,285.07 -147.72,407.03 -63.32,134.99 -226.96,384.85 -363.25,461.17 -14.13,7.92 -9.33,4.53 -28.44,14.25 -4.42,2.24 -10.04,4.75 -14.48,6.99l-143.33 72.98c-49.28,16.13 -109.72,18.12 -163.2,18.38 -129.48,0.65 -92.09,-6.77 -182.95,-42.45 -5.26,-2.06 -10.53,-4.24 -15.86,-6.14l-33.55 -9.86c-54.46,-16.46 -23.49,1.05 -78.79,-25.81 -51.55,-25.05 -64.67,-43.13 -111.51,-76.9 -379.75,-273.82 -324.05,-384.87 -364.41,-484.05 -44.83,-110.17 -28.45,8.07 -51.79,-132.46 -9.1,-54.75 4.52,-19.14 -14.3,-74.22l-21.95 -44.79c-39.49,-100.82 -3.44,-103.29 -39.06,-196.25 -51.04,-133.21 -32.94,-159.09 -70.69,-289.01 -27.87,-95.94 -32.6,-9.65 -45.21,-116.34 -11.46,-96.89 20.41,-78.04 -22.6,-171.78 -37.41,-81.53 -34.34,3.84 -43.4,-122.1 -4.13,-57.47 6.53,-139.99 1.58,-193.31 -20.16,-217.01 -60.02,85.08 -62.83,-315.82 -0.39,-54.96 -3.43,-115.75 -5.74,-171.27 -10.87,-260.88 -48.15,79.2 -59.47,-485.65 -4.42,-220.27 -69.44,-483.72 236.61,-441.03z"/>
  <rect class="fil3" x="1106.34" y="1809.81" width="617.73" height="2606.68"/>
  <path id="root_1518" class="fil1" d="M1079.41 3851.68c196.64,106.9 529.62,108.46 750.89,-16.68 137.36,-77.68 192.61,-156.04 242.75,-171.38 32.97,228.13 -61.1,486.71 -61.46,587.95 -0.36,100.76 16.11,213.21 -7.86,309.09 -25.99,103.96 -49.64,130.63 -52.45,263.53l-9.73 1117.85c-21.54,91.18 -17.4,-4.49 -44.64,96.44 -17.68,65.54 -12.68,523.17 -14.25,629.55 -4.81,326.51 -19.3,127.69 -57.46,256.96 -40.57,137.41 46.01,230.86 -36.42,453.23 -24.27,65.48 -18.17,50.46 -23.31,134.78 -3.45,56.67 -4.42,94.98 -13.46,149.93 -19.25,116.88 -33.36,56.3 -55.56,151.44 -1.56,6.68 -1.77,12.32 -3.06,19.21 -15.71,83.27 -16.19,119.87 -97.77,217.08 -84.33,100.48 -83.66,86.77 -136.09,64.09 -126.49,-54.73 -171.48,-206.89 -199.07,-295.41 -21.12,-67.81 -23.98,-31.82 -42.69,-100.03l-107.2 -522.36c-14.81,-205.62 -102.51,-289.43 -119.54,-847.47 -8.33,-272.72 -20.48,-139.66 -41.12,-274.61 -15.23,-99.54 3,-210.04 -11.85,-302.35 -12.7,-78.97 -26.49,-81.18 -35.18,-129.43 -14.42,-80.09 -4.51,-666.93 -42.64,-745.88 -68.23,-141.22 -39.47,-353.53 -44.62,-580.9 -3.55,-156.64 -18.92,-483.55 5.19,-623.36 26.65,3.3 227.39,141.76 258.6,158.73z"/>
  <g id="_2387568146640">
   <path class="fil4" d="M1106.34 4179.27c1.27,43.45 2.57,86.9 3.55,130.37 1.82,80.06 -13.67,399.37 15.39,459.53 85.87,177.75 46.84,600.1 67.57,819.79 16.48,46.99 27.57,85.51 35.82,136.82 10.75,66.81 10.53,132.41 9.49,199.75 -0.51,32.86 -2.25,72.37 2.72,104.83 0.3,1.97 0.6,3.99 0.92,6.02 41.09,95.44 40.3,201.07 43.44,304.12 5.12,167.57 17.22,336.93 53.72,500.94 24.18,108.67 52.94,202.76 63.45,313.37l69.39 338.12c5.58,-91.73 7.59,-126.92 40.98,-217.02 17.81,-48.04 21.39,-79.09 16.79,-129.27 -10.33,-112.58 -20.39,-190.79 13.33,-304.99 11.12,-37.67 25.94,-72.89 44.7,-104.56 0.54,-25.27 0.41,-50.73 0.74,-73.4 1.61,-109.25 0.13,-218.91 1.06,-328.25 0.88,-103.47 -2.95,-276.26 23.32,-373.64 8.98,-33.27 20.59,-64.98 35.12,-94.19l9.12 -1047.81 0.04 -1.83c3.01,-142.36 29.61,-202.47 61.17,-328.7 12.07,-48.3 -1.12,-185.18 -0.93,-238.75 0.07,-19.94 1.29,-40.06 3.36,-60.34 -199.25,48.95 -421.36,46.93 -614.26,-10.91z"/>
  </g>
  <path id="outline_1519" class="fil2" d="M2073.05 3663.62c-50.14,15.34 -105.39,93.7 -242.75,171.38 -221.27,125.14 -554.25,123.58 -750.89,16.68 -31.21,-16.97 -231.95,-155.43 -258.6,-158.73 -24.11,139.81 -8.74,466.72 -5.19,623.36 5.15,227.37 -23.61,439.68 44.62,580.9 38.13,78.95 28.22,665.79 42.64,745.88 8.69,48.25 22.48,50.46 35.18,129.43 14.85,92.31 -3.38,202.81 11.85,302.35 20.64,134.95 32.79,1.89 41.12,274.61 17.03,558.04 104.73,641.85 119.54,847.47l107.2 522.36c18.71,68.21 21.57,32.22 42.69,100.03 27.59,88.52 72.58,240.68 199.07,295.41 52.43,22.68 51.76,36.39 136.09,-64.09 81.58,-97.21 82.06,-133.81 97.77,-217.08 1.29,-6.89 1.5,-12.53 3.06,-19.21 22.2,-95.14 36.31,-34.56 55.56,-151.44 9.04,-54.95 10.01,-93.26 13.46,-149.93 5.14,-84.32 -0.96,-69.3 23.31,-134.78 82.43,-222.37 -4.15,-315.82 36.42,-453.23 38.16,-129.27 52.65,69.55 57.46,-256.96 1.57,-106.38 -3.43,-564.01 14.25,-629.55 27.24,-100.93 23.1,-5.26 44.64,-96.44l9.73 -1117.85c2.81,-132.9 26.46,-159.57 52.45,-263.53 23.97,-95.88 7.5,-208.33 7.86,-309.09 0.36,-101.24 94.43,-359.82 61.46,-587.95zm-1595.86 -3347.19c-306.05,-42.69 -241.03,220.76 -236.61,441.03 11.32,564.85 48.6,224.77 59.47,485.65 2.31,55.52 5.35,116.31 5.74,171.27 2.81,400.9 42.67,98.81 62.83,315.82 4.95,53.32 -5.71,135.84 -1.58,193.31 9.06,125.94 5.99,40.57 43.4,122.1 43.01,93.74 11.14,74.89 22.6,171.78 12.61,106.69 17.34,20.4 45.21,116.34 37.75,129.92 19.65,155.8 70.69,289.01 35.62,92.96 -0.43,95.43 39.06,196.25l21.95 44.79c18.82,55.08 5.2,19.47 14.3,74.22 23.34,140.53 6.96,22.29 51.79,132.46 40.36,99.18 -15.34,210.23 364.41,484.05 46.84,33.77 59.96,51.85 111.51,76.9 55.3,26.86 24.33,9.35 78.79,25.81l33.55 9.86c5.33,1.9 10.6,4.08 15.86,6.14 90.86,35.68 53.47,43.1 182.95,42.45 53.48,-0.26 113.92,-2.25 163.2,-18.38l143.33 -72.98c4.44,-2.24 10.06,-4.75 14.48,-6.99 19.11,-9.72 14.31,-6.33 28.44,-14.25 136.29,-76.32 299.93,-326.18 363.25,-461.17 57.22,-121.96 119.03,-268.08 147.72,-407.03 24.78,-120.01 147.19,-339.83 194.02,-714.58 5.71,-45.69 9.83,-139.24 18.85,-173.88 23.73,-91.09 26.48,-3.09 44,-115.23 8.8,-56.39 0.32,-129.39 12.01,-185.74 18.65,-89.91 24.44,-15.97 36.12,-130.92 18.84,-185.33 32.62,-527.65 -53.79,-691.13 -56.84,-107.56 -90.3,-128.19 -170.13,-186.24 -229.24,-166.7 -247.43,-137.13 -538.3,-171.96 -299.1,-35.82 -411.51,-0.23 -699.29,4.4 -145.04,2.33 -205.85,-21.64 -328.6,-38.62 -117.41,-16.24 -257.15,-0.02 -361.23,-14.54zm880.57 -181.44c112.91,0.49 226.03,1.93 338.93,1.34 167.09,-0.87 306.46,30.9 466.39,50.49l255.28 84.07c73.55,35.05 223.8,146.09 279.85,225.62 7.61,10.79 122.5,211.2 123.64,214.28l61.62 279.69c3.04,27.41 4.62,143.05 1.41,169.16 -13.9,113.11 -27.69,35.87 -44.2,149.2 -14.13,97 5.91,240.53 -9.56,336.7 -23.62,146.92 -42.11,-55.6 -60.96,278.44l-282.84 1062.85c-127.41,382.36 -159.43,234.44 -163.46,545.81 -5.56,430.11 -51.97,25.22 -55.99,615.68 -1.03,151 -45.96,119.68 -50.38,294.48l-13.78 657.27c-7.84,95.07 -47.5,161.61 -55.65,276.67 -10.98,155.1 12.91,1100.21 -20.68,1194.1 -79.46,222.19 -48.8,143.51 -52.6,457.91 -2.6,215.2 -55.91,136.34 -60.18,294.07 -9.41,348.23 -20.56,141.62 -52.23,282.74 -12.12,54.01 -0.21,104.43 -16.62,158.36 -22.94,75.43 -31.65,17.36 -53.31,114.58 -20.52,92.14 15.23,61.76 -36.68,135.57 -42.07,59.81 -22.35,-20.67 -60.38,105.84 -64.98,216.16 -3.31,17.86 -149.46,204.06 -234.81,10.85 -290.32,24.7 -432.46,-137.65l-121.49 -172.48c-209.09,-374.01 -233.32,-1172.03 -309.2,-1385.9 -42.39,-119.48 -6.15,-268.38 -29.31,-400.29 -24.31,-138.48 -37.63,-97.17 -58.37,-364.78 -5.18,-66.88 3,-146.46 -4.75,-210.34 -18.78,-154.75 -56.43,30.8 -64.74,-573.61 -1.83,-133.51 10.33,-295.51 0.45,-423.82 -12.68,-164.65 -59.61,-2.11 -54.05,-359.9 3.32,-213.81 20.16,-652.93 -7.46,-846.64l-122.89 -286.52c-21.21,-78.85 17.27,-63.71 -34.77,-181.93 -42.2,-95.89 -29.4,-73.7 -36.22,-189.02 -95.77,-83.59 -61.31,-20.56 -66.02,-191.01 -5.26,-190.66 -48.84,-95.47 -59.93,-213.05 -4.13,-43.89 7.25,-83.65 -0.7,-126.95 -27.53,-149.92 -10.64,2.22 -54.51,-97.74 -34.7,-79.05 4.79,-193.73 -12.92,-282.43 -31.07,-155.53 -66.1,24.93 -63.74,-209.94 3.17,-314.36 -4.76,-161.58 -40.52,-246.6 -64.04,-152.24 30.6,-382.76 -38.56,-530.73 -33,-70.6 -40.41,-9.12 -40.46,-241.23 -0.02,-129.21 68.54,-403.47 109.51,-449.88l33.19 -29.05c279.75,-200.31 592.97,-50.18 653.9,-43.55 154.87,16.84 403.63,5.41 567.86,6.06z"/>
 </g>
</svg>