<?xml version="1.0" encoding="UTF-8"?>
<!DOCTYPE svg PUBLIC "-//W3C//DTD SVG 1.1//EN" "http://www.w3.org/Graphics/SVG/1.1/DTD/svg11.dtd">
<!-- Creator: CorelDRAW (Versión de evaluación) -->
<svg xmlns="http://www.w3.org/2000/svg" xml:space="preserve" width="440px" height="2052px" version="1.1" style="shape-rendering:geometricPrecision; text-rendering:geometricPrecision; image-rendering:optimizeQuality; fill-rule:evenodd; clip-rule:evenodd"
viewBox="0 0 440 2050.82"
 xmlns:xlink="http://www.w3.org/1999/xlink"
 xmlns:xodm="http://www.corel.com/coreldraw/odm/2003">
 <defs>
  <style type="text/css">
   <![CDATA[
    .fil2 {fill:#4B4B4D}
    .fil1 {fill:#F3EDD9}
    .fil0 {fill:#F8FBFF}
   ]]>
  </style>
 </defs>
 <g id="deciduous">
  <metadata id="CorelCorpID_0Corel-Layer"/>
  <polygon id="crown" class="fil0" points="255.23,1158.5 260.73,1158.5 260.73,1161.25 266.23,1161.25 266.23,1164 271.73,1164 271.73,1166.75 277.23,1166.75 277.23,1169.5 279.98,1169.5 279.98,1172.25 285.48,1172.25 285.48,1175 288.23,1175 288.23,1177.75 290.98,1177.75 290.98,1180.5 296.48,1180.5 296.48,1183.25 299.23,1183.25 299.23,1186 301.98,1186 301.98,1188.75 304.73,1188.75 304.73,1191.5 307.48,1191.5 307.48,1194.25 310.23,1194.25 310.23,1199.75 312.98,1199.75 312.98,1202.5 315.73,1202.5 315.73,1205.25 318.48,1205.25 318.48,1210.75 321.23,1210.75 321.23,1213.5 323.98,1213.5 323.98,1219 326.73,1219 326.73,1221.75 329.48,1221.75 329.48,1227.25 332.23,1227.25 332.23,1232.75 334.98,1232.75 334.98,1235.5 337.73,1235.5 337.73,1241 340.48,1241 340.48,1246.5 343.23,1246.5 343.23,1252 345.98,1252 345.98,1260.25 348.73,1260.25 348.73,1265.75 351.48,1265.75 351.48,1271.25 354.23,1271.25 354.23,1282.25 356.98,1282.25 356.98,1287.75 359.73,1287.75 359.73,1296 362.48,1296 362.48,1301.5 365.23,1301.5 365.23,1312.5 367.98,1312.5 367.98,1320.75 370.73,1320.75 370.73,1326.25 373.48,1326.25 373.48,1334.5 376.23,1334.5 376.23,1348.25 378.98,1348.25 378.98,1353.75 381.73,1353.75 381.73,1362 384.48,1362 384.48,1370.25 387.23,1370.25 387.23,1386.75 389.98,1386.75 389.98,1392.25 392.73,1392.25 392.73,1403.25 395.48,1403.25 395.48,1414.25 398.23,1414.25 398.23,1425.25 400.98,1425.25 400.98,1436.25 403.73,1436.25 403.73,1452.75 406.48,1452.75 406.48,1463.75 409.23,1463.75 409.23,1483 411.98,1483 411.98,1507.75 414.73,1507.75 414.73,1584.75 411.98,1584.75 411.98,1604 409.23,1604 409.23,1620.5 406.48,1620.5 406.48,1634.25 403.73,1634.25 403.73,1639.76 400.98,1639.76 400.98,1648 398.23,1648 398.23,1653.5 395.48,1653.5 395.48,1659 392.73,1659 392.73,1661.75 389.98,1661.75 389.98,1667.25 387.23,1667.25 387.23,1670 384.48,1670 384.48,1672.76 381.73,1672.76 381.73,1678.25 378.98,1678.25 378.98,1681.01 376.23,1681.01 376.23,1683.75 370.73,1683.75 370.73,1686.5 367.98,1686.5 367.98,1689.26 365.23,1689.26 365.23,1692 359.73,1692 359.73,1694.75 356.98,1694.75 356.98,1697.51 351.48,1697.51 351.48,1700.25 345.98,1700.25 345.98,1703.01 340.48,1703.01 340.48,1705.76 334.98,1705.76 334.98,1708.5 326.73,1708.5 326.73,1711.25 318.48,1711.25 318.48,1714.01 304.73,1714.01 304.73,1716.75 293.73,1716.75 293.73,1719.51 277.23,1719.51 277.23,1722.26 260.73,1722.26 260.73,1725 142.48,1725 142.48,1722.26 125.98,1722.26 125.98,1719.51 103.98,1719.51 103.98,1716.75 87.47,1716.75 87.47,1714.01 79.22,1714.01 79.22,1711.25 70.97,1711.25 70.97,1708.5 62.72,1708.5 62.72,1705.76 57.22,1705.76 57.22,1703.01 54.47,1703.01 54.47,1700.25 48.97,1700.25 48.97,1697.51 46.22,1697.51 46.22,1694.75 43.48,1694.75 43.48,1689.26 40.73,1689.26 40.73,1686.5 37.97,1686.5 37.97,1681.01 35.23,1681.01 35.23,1675.5 32.47,1675.5 32.47,1667.25 29.72,1667.25 29.72,1659 26.97,1659 26.97,1645.25 24.22,1645.25 24.22,1560 26.97,1560 26.97,1532.5 29.72,1532.5 29.72,1516 32.47,1516 32.47,1494 35.23,1494 35.23,1483 37.97,1483 37.97,1469.25 40.73,1469.25 40.73,1458.25 43.48,1458.25 43.48,1447.25 46.22,1447.25 46.22,1430.75 48.97,1430.75 48.97,1419.75 51.73,1419.75 51.73,1411.5 54.47,1411.5 54.47,1403.25 57.22,1403.25 57.22,1392.25 59.98,1392.25 59.98,1381.25 62.72,1381.25 62.72,1370.25 65.48,1370.25 65.48,1364.75 68.23,1364.75 68.23,1353.75 70.97,1353.75 70.97,1348.25 73.72,1348.25 73.72,1340 76.48,1340 76.48,1334.5 79.22,1334.5 79.22,1326.25 81.98,1326.25 81.98,1320.75 84.73,1320.75 84.73,1312.5 87.47,1312.5 87.47,1307 90.22,1307 90.22,1298.75 92.98,1298.75 92.98,1293.25 95.72,1293.25 95.72,1287.75 98.48,1287.75 98.48,1282.25 101.23,1282.25 101.23,1274 103.98,1274 103.98,1268.5 106.73,1268.5 106.73,1263 109.48,1263 109.48,1257.5 112.22,1257.5 112.22,1252 114.98,1252 114.98,1246.5 117.73,1246.5 117.73,1241 120.47,1241 120.47,1238.25 123.23,1238.25 123.23,1232.75 125.98,1232.75 125.98,1230 128.73,1230 128.73,1224.5 131.48,1224.5 131.48,1221.75 134.23,1221.75 134.23,1216.25 136.97,1216.25 136.97,1213.5 139.73,1213.5 139.73,1210.75 142.48,1210.75 142.48,1205.25 145.23,1205.25 145.23,1202.5 147.98,1202.5 147.98,1199.75 150.73,1199.75 150.73,1197 153.48,1197 153.48,1194.25 156.23,1194.25 156.23,1191.5 158.98,1191.5 158.98,1188.75 161.73,1188.75 161.73,1186 164.48,1186 164.48,1183.25 167.23,1183.25 167.23,1180.5 169.98,1180.5 169.98,1177.75 172.73,1177.75 172.73,1175 178.23,1175 178.23,1172.25 180.98,1172.25 180.98,1169.5 186.48,1169.5 186.48,1166.75 189.23,1166.75 189.23,1164 194.73,1164 194.73,1161.25 205.73,1161.25 205.73,1158.5 213.98,1158.5 213.98,1155.75 255.23,1155.75 "/>
  <polygon id="root" class="fil1" points="274.48,270.23 277.23,270.23 277.23,275.73 279.98,275.73 279.98,283.98 282.73,283.98 282.73,297.73 285.48,297.73 285.48,311.48 288.23,311.48 288.23,336.23 290.98,336.23 290.98,360.98 293.73,360.98 293.73,426.98 296.48,426.98 296.48,487.49 299.23,487.49 299.23,550.74 301.98,550.74 301.98,591.99 304.73,591.99 304.73,633.24 307.48,633.24 307.48,646.99 310.23,646.99 310.23,668.99 312.98,668.99 312.98,690.99 315.73,690.99 315.73,715.74 318.48,715.74 318.48,732.24 321.23,732.24 321.23,751.49 323.98,751.49 323.98,773.49 326.73,773.49 326.73,803.74 329.48,803.74 329.48,831.24 332.23,831.24 332.23,855.99 334.98,855.99 334.98,886.24 337.73,886.24 337.73,952.24 340.48,952.24 340.48,996.24 343.23,996.24 343.23,1062.24 345.98,1062.24 345.98,1111.75 348.73,1111.75 348.73,1150.24 351.48,1150.24 351.48,1186 354.23,1186 354.23,1210.75 356.98,1210.75 356.98,1221.75 354.23,1221.75 354.23,1219 351.48,1219 351.48,1213.5 348.73,1213.5 348.73,1208 345.98,1208 345.98,1202.5 343.23,1202.5 343.23,1199.75 340.48,1199.75 340.48,1194.25 337.73,1194.25 337.73,1191.5 334.98,1191.5 334.98,1188.75 332.23,1188.75 332.23,1186 329.48,1186 329.48,1183.25 326.73,1183.25 326.73,1180.5 323.98,1180.5 323.98,1175 321.23,1175 321.23,1172.25 318.48,1172.25 318.48,1169.5 315.73,1169.5 315.73,1166.75 312.98,1166.75 312.98,1164 310.23,1164 310.23,1161.25 307.48,1161.25 307.48,1158.5 304.73,1158.5 304.73,1155.75 299.23,1155.75 299.23,1153 296.48,1153 296.48,1150.24 293.73,1150.24 293.73,1147.5 288.23,1147.5 288.23,1144.75 282.73,1144.75 282.73,1142 277.23,1142 277.23,1139.25 271.73,1139.25 271.73,1136.5 266.23,1136.5 266.23,1133.74 252.48,1133.74 252.48,1131 213.98,1131 213.98,1133.74 197.48,1133.74 197.48,1136.5 191.98,1136.5 191.98,1139.25 186.48,1139.25 186.48,1142 180.98,1142 180.98,1144.75 175.48,1144.75 175.48,1147.5 169.98,1147.5 169.98,1150.24 167.23,1150.24 167.23,1153 161.73,1153 161.73,1155.75 158.98,1155.75 158.98,1158.5 156.23,1158.5 156.23,1161.25 153.48,1161.25 153.48,1164 150.73,1164 150.73,1166.75 147.98,1166.75 147.98,1169.5 142.48,1169.5 142.48,1172.25 139.73,1172.25 139.73,1177.75 136.97,1177.75 136.97,1180.5 134.23,1180.5 134.23,1183.25 131.48,1183.25 131.48,1186 128.73,1186 128.73,1188.75 125.98,1188.75 125.98,1191.5 123.23,1191.5 123.23,1194.25 120.47,1194.25 120.47,1197 117.73,1197 117.73,1199.75 114.98,1199.75 114.98,1205.25 112.22,1205.25 112.22,1210.75 109.48,1210.75 109.48,1213.5 106.73,1213.5 106.73,1191.5 109.48,1191.5 109.48,1164 112.22,1164 112.22,1114.5 114.98,1114.5 114.98,1084.24 117.73,1084.24 117.73,1053.99 120.47,1053.99 120.47,1037.49 123.23,1037.49 123.23,998.99 125.98,998.99 125.98,952.24 128.73,952.24 128.73,932.99 131.48,932.99 131.48,891.74 134.23,891.74 134.23,864.24 136.97,864.24 136.97,828.49 139.73,828.49 139.73,789.99 142.48,789.99 142.48,770.74 145.23,770.74 145.23,734.99 147.98,734.99 147.98,715.74 150.73,715.74 150.73,682.74 153.48,682.74 153.48,666.24 156.23,666.24 156.23,644.24 158.98,644.24 158.98,630.49 161.73,630.49 161.73,616.74 164.48,616.74 164.48,594.74 167.23,594.74 167.23,583.74 169.98,583.74 169.98,564.49 172.73,564.49 172.73,556.24 175.48,556.24 175.48,539.74 178.23,539.74 178.23,528.74 180.98,528.74 180.98,517.74 183.73,517.74 183.73,501.23 186.48,501.23 186.48,490.24 189.23,490.24 189.23,473.74 191.98,473.74 191.98,468.23 194.73,468.23 194.73,451.73 197.48,451.73 197.48,440.74 200.23,440.74 200.23,429.74 202.98,429.74 202.98,418.73 205.73,418.73 205.73,413.23 208.48,413.23 208.48,396.73 211.23,396.73 211.23,391.23 213.98,391.23 213.98,380.23 216.73,380.23 216.73,369.23 219.48,369.23 219.48,360.98 222.23,360.98 222.23,352.73 224.98,352.73 224.98,341.73 227.73,341.73 227.73,336.23 230.48,336.23 230.48,327.98 233.23,327.98 233.23,319.73 235.98,319.73 235.98,311.48 238.73,311.48 238.73,305.98 241.48,305.98 241.48,300.48 244.23,300.48 244.23,292.23 246.98,292.23 246.98,289.48 249.73,289.48 249.73,283.98 252.48,283.98 252.48,281.23 255.23,281.23 255.23,275.73 257.98,275.73 257.98,272.98 260.73,272.98 260.73,270.23 263.48,270.23 263.48,267.48 274.48,267.48 "/>
  <path id="outline" class="fil2" d="M414.73 1507.75l-2.75 0 0 -24.75 -2.75 0 0 -19.25 -2.75 0 0 -11 -2.75 0 0 -16.5 -2.75 0 0 -11 -2.75 0 0 -11 -2.75 0 0 -11 -2.75 0 0 -11 -2.75 0 0 -5.5 -2.75 0 0 -16.5 -2.75 0 0 -8.25 -2.75 0 0 -8.25 -2.75 0 0 -5.5 -2.75 0 0 -13.75 -2.75 0 0 -8.25 -2.75 0 0 -5.5 -2.75 0 0 -8.25 -2.75 0 0 -11 -2.75 0 0 -5.5 -2.75 0 0 -8.25 -2.75 0 0 -5.5 -2.75 0 0 -11 -2.75 0 0 -5.5 -2.75 0 0 -5.5 -2.75 0 0 -8.25 -2.75 0 0 -5.5 -2.75 0 0 -5.5 -2.75 0 0 -5.5 -2.75 0 0 -2.75 -2.75 0 0 -5.5 -2.75 0 0 -5.5 -2.75 0 0 -2.75 -2.75 0 0 -5.5 -2.75 0 0 -2.75 -2.75 0 0 -5.5 -2.75 0 0 -2.75 -2.75 0 0 -2.75 -2.75 0 0 -5.5 -2.75 0 0 -2.75 -2.75 0 0 -2.75 -2.75 0 0 -2.75 -2.75 0 0 -2.75 -2.75 0 0 -2.75 -5.5 0 0 -2.75 -2.75 0 0 -2.75 -2.75 0 0 -2.75 -5.5 0 0 -2.75 -2.75 0 0 -2.75 -5.5 0 0 -2.75 -5.5 0 0 -2.75 -5.5 0 0 -2.75 -5.5 0 0 -2.75 -41.25 0 0 2.75 -8.25 0 0 2.75 -11 0 0 2.75 -5.5 0 0 2.75 -2.75 0 0 2.75 -5.5 0 0 2.75 -2.75 0 0 2.75 -5.5 0 0 2.75 -2.75 0 0 2.75 -2.75 0 0 2.75 -2.75 0 0 2.75 -2.75 0 0 2.75 -2.75 0 0 2.75 -2.75 0 0 2.75 -2.75 0 0 2.75 -2.75 0 0 2.75 -2.75 0 0 2.75 -2.75 0 0 2.75 -2.75 0 0 5.5 -2.75 0 0 2.75 -2.76 0 0 2.75 -2.74 0 0 5.5 -2.75 0 0 2.75 -2.75 0 0 5.5 -2.75 0 0 2.75 -2.75 0 0 5.5 -2.76 0 0 2.75 -2.74 0 0 5.5 -2.75 0 0 5.5 -2.76 0 0 5.5 -2.74 0 0 5.5 -2.75 0 0 5.5 -2.75 0 0 5.5 -2.75 0 0 8.25 -2.75 0 0 5.5 -2.76 0 0 5.5 -2.74 0 0 5.5 -2.76 0 0 8.25 -2.75 0 0 5.5 -2.74 0 0 8.25 -2.75 0 0 5.5 -2.76 0 0 8.25 -2.74 0 0 5.5 -2.76 0 0 8.25 -2.75 0 0 5.5 -2.74 0 0 11 -2.75 0 0 5.5 -2.76 0 0 11 -2.74 0 0 11 -2.76 0 0 11 -2.75 0 0 8.25 -2.74 0 0 8.25 -2.76 0 0 11 -2.75 0 0 16.5 -2.74 0 0 11 -2.75 0 0 11 -2.76 0 0 13.75 -2.74 0 0 11 -2.76 0 0 22 -2.75 0 0 16.5 -2.75 0 0 27.5 -2.75 0 0 85.25 2.75 0 0 13.75 2.75 0 0 8.25 2.75 0 0 8.25 2.76 0 0 5.51 2.74 0 0 5.49 2.76 0 0 2.76 2.75 0 0 5.49 2.74 0 0 2.76 2.75 0 0 2.74 5.5 0 0 2.76 2.75 0 0 2.75 5.5 0 0 2.74 8.25 0 0 2.75 8.25 0 0 2.76 8.25 0 0 2.74 16.51 0 0 2.76 22 0 0 2.75 16.5 0 0 2.74 118.25 0 0 -2.74 16.5 0 0 -2.75 16.5 0 0 -2.76 11 0 0 -2.74 13.75 0 0 -2.76 8.25 0 0 -2.75 8.25 0 0 -2.74 5.5 0 0 -2.75 5.5 0 0 -2.76 5.5 0 0 -2.74 5.5 0 0 -2.76 2.75 0 0 -2.75 5.5 0 0 -2.74 2.75 0 0 -2.76 2.75 0 0 -2.75 5.5 0 0 -2.74 2.75 0 0 -2.76 2.75 0 0 -5.49 2.75 0 0 -2.76 2.75 0 0 -2.75 2.75 0 0 -5.5 2.75 0 0 -2.75 2.75 0 0 -5.5 2.75 0 0 -5.5 2.75 0 0 -8.24 2.75 0 0 -5.51 2.75 0 0 -13.75 2.75 0 0 -16.5 2.75 0 0 -19.25 2.75 0 0 -77zm-162.25 -374.01l13.75 0 0 2.76 5.5 0 0 2.75 5.5 0 0 2.75 5.5 0 0 2.75 5.5 0 0 2.75 5.5 0 0 2.74 2.75 0 0 2.76 2.75 0 0 2.75 5.5 0 0 2.75 2.75 0 0 2.75 2.75 0 0 2.75 2.75 0 0 2.75 2.75 0 0 2.75 2.75 0 0 2.75 2.75 0 0 2.75 2.75 0 0 5.5 2.75 0 0 2.75 2.75 0 0 2.75 2.75 0 0 2.75 2.75 0 0 2.75 2.75 0 0 2.75 2.75 0 0 5.5 2.75 0 0 2.75 2.75 0 0 5.5 2.75 0 0 5.5 2.75 0 0 5.5 2.75 0 0 2.75 2.75 0 0 -11 -2.75 0 0 -24.75 -2.75 0 0 -35.76 -2.75 0 0 -38.49 -2.75 0 0 -49.51 -2.75 0 0 -66 -2.75 0 0 -44 -2.75 0 0 -66 -2.75 0 0 -30.25 -2.75 0 0 -24.75 -2.75 0 0 -27.5 -2.75 0 0 -30.25 -2.75 0 0 -22 -2.75 0 0 -19.25 -2.75 0 0 -16.5 -2.75 0 0 -24.75 -2.75 0 0 -22 -2.75 0 0 -22 -2.75 0 0 -13.75 -2.75 0 0 -41.25 -2.75 0 0 -41.25 -2.75 0 0 -63.25 -2.75 0 0 -60.51 -2.75 0 0 -66 -2.75 0 0 -24.75 -2.75 0 0 -24.75 -2.75 0 0 -13.75 -2.75 0 0 -13.75 -2.75 0 0 -8.25 -2.75 0 0 -5.5 -2.75 0 0 -2.75 -11 0 0 2.75 -2.75 0 0 2.75 -2.75 0 0 2.75 -2.75 0 0 5.5 -2.75 0 0 2.75 -2.75 0 0 5.5 -2.75 0 0 2.75 -2.75 0 0 8.25 -2.75 0 0 5.5 -2.75 0 0 5.5 -2.75 0 0 8.25 -2.75 0 0 8.25 -2.75 0 0 8.25 -2.75 0 0 5.5 -2.75 0 0 11 -2.75 0 0 8.25 -2.75 0 0 8.25 -2.75 0 0 11 -2.75 0 0 11 -2.75 0 0 5.5 -2.75 0 0 16.5 -2.75 0 0 5.5 -2.75 0 0 11.01 -2.75 0 0 11 -2.75 0 0 10.99 -2.75 0 0 16.5 -2.75 0 0 5.51 -2.75 0 0 16.5 -2.75 0 0 10.99 -2.75 0 0 16.51 -2.75 0 0 11 -2.75 0 0 11 -2.75 0 0 16.5 -2.75 0 0 8.25 -2.75 0 0 19.25 -2.75 0 0 11 -2.75 0 0 22 -2.75 0 0 13.75 -2.75 0 0 13.75 -2.75 0 0 22 -2.75 0 0 16.5 -2.75 0 0 33 -2.75 0 0 19.25 -2.75 0 0 35.75 -2.75 0 0 19.25 -2.75 0 0 38.5 -2.76 0 0 35.75 -2.74 0 0 27.5 -2.75 0 0 41.25 -2.75 0 0 19.25 -2.75 0 0 46.75 -2.75 0 0 38.5 -2.76 0 0 16.5 -2.74 0 0 30.25 -2.75 0 0 30.26 -2.76 0 0 49.5 -2.74 0 0 27.5 -2.75 0 0 22 2.75 0 0 -2.75 2.74 0 0 -5.5 2.76 0 0 -5.5 2.75 0 0 -2.75 2.74 0 0 -2.75 2.76 0 0 -2.75 2.75 0 0 -2.75 2.75 0 0 -2.75 2.75 0 0 -2.75 2.75 0 0 -2.75 2.74 0 0 -2.75 2.76 0 0 -5.5 2.75 0 0 -2.75 5.5 0 0 -2.75 2.75 0 0 -2.75 2.75 0 0 -2.75 2.75 0 0 -2.75 2.75 0 0 -2.75 2.75 0 0 -2.75 5.5 0 0 -2.76 2.75 0 0 -2.74 5.5 0 0 -2.75 5.5 0 0 -2.75 5.5 0 0 -2.75 5.5 0 0 -2.75 5.5 0 0 -2.76 16.5 0 0 -2.74 38.5 0 0 2.74zm22 -888.26l8.25 0 0 2.75 5.5 0 0 2.75 2.75 0 0 2.75 2.75 0 0 2.75 2.75 0 0 5.5 2.75 0 0 5.5 2.75 0 0 5.5 2.75 0 0 8.25 2.75 0 0 13.75 2.75 0 0 8.25 2.75 0 0 16.5 2.75 0 0 38.5 2.75 0 0 115.51 2.75 0 0 71.5 2.75 0 0 27.5 2.75 0 0 52.25 2.75 0 0 16.5 2.75 0 0 19.25 2.75 0 0 16.5 2.75 0 0 33 2.75 0 0 11 2.75 0 0 27.5 2.75 0 0 16.5 2.75 0 0 19.25 2.75 0 0 33 2.75 0 0 27.5 2.75 0 0 30.25 2.75 0 0 41.25 2.75 0 0 52.25 2.75 0 0 63.26 2.75 0 0 43.99 2.75 0 0 33 2.75 0 0 60.51 2.75 0 0 38.5 2.75 0 0 19.25 2.75 0 0 30.25 2.75 0 0 30.25 2.75 0 0 13.75 2.75 0 0 8.25 2.75 0 0 5.5 2.75 0 0 8.25 2.75 0 0 8.25 2.75 0 0 8.25 2.75 0 0 13.75 2.75 0 0 8.25 2.75 0 0 5.5 2.75 0 0 16.5 2.75 0 0 8.25 2.75 0 0 16.5 2.75 0 0 8.25 2.75 0 0 13.75 2.75 0 0 11 2.75 0 0 13.75 2.75 0 0 19.25 2.75 0 0 24.75 2.75 0 0 19.25 2.75 0 0 55 -2.75 0 0 30.25 -2.75 0 0 11 -2.75 0 0 13.75 -2.75 0 0 8.25 -2.75 0 0 11 -2.75 0 0 5.5 -2.75 0 0 8.25 -2.75 0 0 5.5 -2.75 0 0 5.51 -2.75 0 0 2.74 -2.75 0 0 5.51 -2.75 0 0 2.74 -2.75 0 0 5.51 -2.75 0 0 2.74 -2.75 0 0 2.75 -2.75 0 0 2.76 -2.75 0 0 2.74 -2.75 0 0 2.76 -2.75 0 0 2.75 -5.5 0 0 2.74 -2.75 0 0 2.75 -5.5 0 0 2.76 -2.75 0 0 2.74 -5.5 0 0 2.76 -5.5 0 0 2.75 -5.5 0 0 2.74 -5.5 0 0 2.76 -8.25 0 0 2.75 -5.5 0 0 2.74 -11 0 0 2.76 -13.75 0 0 2.75 -8.25 0 0 2.74 -13.75 0 0 2.76 -19.25 0 0 2.75 -16.5 0 0 2.74 -107.25 0 0 -2.74 -13.75 0 0 -2.75 -24.75 0 0 -2.76 -16.51 0 0 -2.74 -11 0 0 -2.75 -10.99 0 0 -2.76 -11.01 0 0 -2.74 -2.75 0 0 -2.75 -5.5 0 0 -2.76 -5.49 0 0 -2.74 -2.75 0 0 -2.75 -5.5 0 0 -2.76 -2.76 0 0 -2.74 -2.75 0 0 -2.76 -2.75 0 0 -2.75 -2.75 0 0 -2.74 -2.75 0 0 -2.75 -2.74 0 0 -5.5 -2.76 0 0 -2.76 -2.75 0 0 -8.25 -2.75 0 0 -8.25 -2.75 0 0 -8.25 -2.75 0 0 -8.25 -2.75 0 0 -24.75 -2.75 0 0 -71.5 2.75 0 0 -24.75 2.75 0 0 -22 2.75 0 0 -16.5 2.75 0 0 -16.5 2.75 0 0 -11 2.75 0 0 -19.25 2.76 0 0 -8.25 2.74 0 0 -16.5 2.75 0 0 -11 2.75 0 0 -11 2.75 0 0 -11 2.75 0 0 -5.5 2.76 0 0 -8.25 2.74 0 0 -13.75 2.76 0 0 -5.5 2.75 0 0 -8.25 2.74 0 0 -11 2.75 0 0 -2.75 2.76 0 0 -11 2.74 0 0 -5.5 2.75 0 0 -5.5 2.76 0 0 -11 2.74 0 0 -5.5 2.76 0 0 -8.25 2.75 0 0 -8.25 2.74 0 0 -8.25 2.75 0 0 -8.25 2.76 0 0 -27.5 2.74 0 0 -22 2.76 0 0 -24.75 2.75 0 0 -22 2.74 0 0 -33 2.75 0 0 -24.76 2.76 0 0 -24.75 2.74 0 0 -41.25 2.76 0 0 -38.5 2.75 0 0 -41.25 2.75 0 0 -22 2.75 0 0 -24.75 2.75 0 0 -44 2.74 0 0 -55 2.76 0 0 -33 2.75 0 0 -22 2.74 0 0 -22 2.76 0 0 -38.5 2.75 0 0 -16.5 2.75 0 0 -16.5 2.75 0 0 -27.5 2.75 0 0 -8.25 2.74 0 0 -19.25 2.76 0 0 -13.75 2.75 0 0 -22 2.75 0 0 -13.75 2.75 0 0 -11 2.75 0 0 -16.5 2.75 0 0 -16.5 2.75 0 0 -11 2.75 0 0 -16.51 2.75 0 0 -10.99 2.75 0 0 -16.5 2.75 0 0 -5.51 2.75 0 0 -13.75 2.75 0 0 -8.24 2.75 0 0 -11.01 2.75 0 0 -13.75 2.75 0 0 -11 2.75 0 0 -8.25 2.75 0 0 -11 2.75 0 0 -11 2.75 0 0 -8.25 2.75 0 0 -8.25 2.75 0 0 -11 2.75 0 0 -11 2.75 0 0 -5.5 2.75 0 0 -13.75 2.75 0 0 -2.75 2.75 0 0 -11 2.75 0 0 -5.5 2.75 0 0 -5.5 2.75 0 0 -8.25 2.75 0 0 -5.5 2.75 0 0 -2.75 2.75 0 0 -5.5 2.75 0 0 -5.5 2.75 0 0 -2.75 2.75 0 0 -5.5 2.75 0 0 -2.75 2.75 0 0 -2.75 2.75 0 0 -2.75 2.75 0 0 -2.75 2.75 0 0 -2.75 5.5 0 0 -2.75 5.5 0 0 -2.75 13.75 0 0 2.75z"/>
 </g>
</svg>
