<?xml version="1.0" encoding="UTF-8"?>
<!DOCTYPE svg PUBLIC "-//W3C//DTD SVG 1.1//EN" "http://www.w3.org/Graphics/SVG/1.1/DTD/svg11.dtd">
<!-- Creator: CorelDRAW (Versión de evaluación) -->
<svg xmlns="http://www.w3.org/2000/svg" xml:space="preserve" width="831px" height="2062px" version="1.1" style="shape-rendering:geometricPrecision; text-rendering:geometricPrecision; image-rendering:optimizeQuality; fill-rule:evenodd; clip-rule:evenodd"
viewBox="0 0 831 2062.4"
 xmlns:xlink="http://www.w3.org/1999/xlink"
 xmlns:xodm="http://www.corel.com/coreldraw/odm/2003">
 <defs>
  <style type="text/css">
   <![CDATA[
    .fil2 {fill:#4B4B4D}
    .fil1 {fill:#F4EDDA}
    .fil0 {fill:#F8F9FD}
   ]]>
  </style>
 </defs>
 <g id="deciduous">
  <metadata id="CorelCorpID_0Corel-Layer"/>
  <path id="crown" class="fil0" d="M592.21 1862.22c17.23,4 13.57,35.15 12.42,54.51 -2.03,34.18 0.24,33.89 34.18,33.93 32.15,0.04 53.61,-11.43 80.44,-27.65 15.39,-9.3 31.16,-19.58 40.79,-33.78 11.02,-16.23 24.51,-27.99 27.12,-47.34 9.18,-67.89 -2.19,-62.28 -3.64,-80.31 -0.96,-11.83 1.84,-4.28 -2.71,-13.81 -3.78,-7.91 -0.84,2.2 -3.12,-6.76l-23.58 -85.73c-2.15,-7.04 -0.35,-8.49 -1.97,-14.95 -2.73,-10.85 -2.1,0.67 -4.96,-11.68 -1.93,-8.37 1.29,-5.18 -2.62,-13.75 -2.76,-6.07 -3.24,-1.94 -4.81,-11.24 -3.52,-20.86 -21.02,-68.95 -30.83,-86.83l-12.28 -21.21c-18.59,-25.94 -50.92,-50.16 -90.06,-49.97 -8.72,0.04 -26.9,-0.61 -34.7,1.23 -14.09,3.34 -36.55,15.36 -50.18,21.17 -28.03,11.96 -51.49,34.9 -77.07,51.33 -4.58,2.95 -6.37,4.51 -10.66,7.43 -4.41,3 -7.07,4.22 -10.94,6.94 -26.78,18.81 -26.48,19.21 -58.63,30.68 -13.49,4.82 -2.11,5.6 -26.28,8.83 -15.17,2.04 -10.13,5.77 -30.38,6.08 -23.58,0.36 -47.51,2.69 -70.29,1.88 -23.78,-0.85 -46.53,-2.79 -68.21,2.09 -14.87,3.35 -32.09,0.65 -47.01,6.08 -9.57,3.48 -0.76,1.68 -13.4,5 -12.32,3.24 -2.94,-2.2 -11.79,5.46 -27.97,24.21 -31.78,45.54 -44.6,67.18 -4.14,7 -3.54,0.09 -5.8,12.13 -4.46,23.8 -7.34,11.27 -10.63,27.28 -2.57,12.51 1.57,19.74 -4.96,31.8 -3.93,7.25 -3.01,-0.83 -4.99,13.18 -8.3,58.7 1.82,56.68 1.81,80.34l31.15 72.34c8.72,12.24 21.82,24.25 35.98,31.53l38.81 13.37c3.95,0.75 12.68,0.7 17.13,0.77 23.59,0.33 46.33,0.32 70.01,-1.13 5.57,-19.25 0.14,-58.19 7.44,-73.62 8.95,2.4 4.95,2.27 8.3,12.69 6.91,21.51 -2.14,28.52 9.87,49.47 6.42,11.2 6.97,8.21 17.05,14.24 4.09,2.45 1.72,1.63 5.99,3.98l129.47 49.63c5.26,2.52 1.23,0.86 6.64,3.57 23.93,12.02 35.66,20.98 65.7,18.64 13.01,-1.02 19.52,-7.34 29.12,-14.27 0.43,-0.31 1,-0.8 1.45,-1.09l11.94 -6.26c17.54,-12.26 57.64,-47.91 69.1,-62.58 9.58,-12.28 5.23,-61.54 9.19,-80.82z"/>
  <path id="root" class="fil1" d="M178.84 710.77c-9.76,1.11 -12.07,6.59 -18.99,14.41 -20.89,23.62 -55.06,78.02 -64.85,107.05l-47.62 163.69c-7.05,47.1 -8.12,111.21 -0.3,155.18 3.47,19.55 -3.48,4.24 5.26,39.34 0.96,3.84 1.29,12.14 1.54,14.82 2.51,27.14 21.17,100.15 25.42,133.69l4.87 26.85c1.75,10.79 4.83,10.76 5.33,25.6 0.48,14.47 1.6,15.82 4.26,27.08 4.68,19.79 5.28,69.03 4.23,90.46 -0.82,16.81 -2.26,47.33 0.34,62.2 20.01,1.04 36.03,-13.58 80.68,-14.87 28.73,-0.82 67.67,2.27 94.94,-1.01 18.75,-2.26 18.28,-4.92 43.27,-5.12 14.13,-0.11 8.72,0.3 17.71,-3.73 10.31,-4.61 11.15,-1.9 20.66,-5.03 21.83,-7.17 46.52,-21.28 64.51,-34.95l28.25 -20.55c7.56,-6.92 3.86,-3.82 13.22,-9.95 46.42,-30.39 34.13,-24.64 87.13,-45.73 19.32,-7.68 7.03,-3.87 30.76,-7.35 19.67,-2.9 35.79,-1.52 53.46,1.18l42.41 18.86c8.06,5.26 4.31,7.33 16.51,9.16 0.91,-11.99 2.28,-18.08 3.75,-28.39 2.47,-17.41 4.4,-12.24 6.59,-24.85 2.61,-15.01 -0.8,-12.83 5.96,-25.6 5.59,-10.54 3.68,-16.15 8.08,-26.42l66.66 -160.76c3.04,-16.04 1.5,-12.86 7.29,-27.06 9.79,-24.04 10.33,-117.5 12.27,-153.12 1.18,-21.56 -3.34,-11.88 -5.28,-25.1 -1.77,-12.07 3.18,-15.3 -0.5,-27.96 -2.19,-7.55 -1.94,0.63 -3.24,-11.97 -1.8,-17.44 -3.82,-11.32 -6.5,-23.12 -1.33,-5.89 0.31,-6.11 -1.58,-12.95 -1.44,-5.19 -2.11,-2.15 -4.31,-10.2l-10.02 -35.34c-16.63,-51.01 -38.36,-99.71 -64.4,-145.97 -6.36,-11.31 -16.43,-28.69 -30.47,-30.19 -2.65,22.5 -7.67,70.37 -6.59,92.91 0.78,16.25 6.53,5.2 5.76,24.77 -1.37,34.62 4.75,27.6 2.94,57.75 -1.57,25.99 8.71,44.1 -0.49,117.72 -1.88,15 -5.32,12.96 -7.74,22.98 -2.19,9.06 -1.29,22.43 -2.78,32.04 -2.66,17.2 -5.78,8.14 -8.1,24.91 -3,21.57 -5.16,10.42 -8.57,25.14 -1.12,4.8 -0.79,9.72 -2.14,14.46 -4.16,14.51 -0.22,-2.78 -6.61,11.56l-13.23 36.53c-7.79,15.13 -17.58,37.01 -28.61,52.1l-8.97 14.65c-1.77,3.19 -2.15,4.86 -3.42,7.03 -3.92,6.66 -9.63,8.74 -15.37,15.27 -6.52,7.41 -9.19,12.84 -14.67,19.25 -9.61,11.28 -21.28,22.64 -30.76,34.09l-87.3 107.41c-17.26,15.3 -47.19,30.66 -70.91,25.22 -14.59,-3.35 -21.23,-5.03 -33.11,-13.93 -41.53,-31.13 -56.7,-70.02 -79.72,-115.42 -2.36,-4.66 -2.54,-6.22 -4.37,-10.09 -2.52,-5.35 -2.61,-4.39 -6.16,-11.08 -4.65,-8.75 -4.99,-12.38 -8.28,-20.31 -3.16,-7.62 -1.27,-1.23 -5.14,-8.88l-50.17 -114.82c-0.19,-0.58 -0.4,-1.26 -0.61,-1.82 -1.59,-4.27 -2.37,-3.53 -4.45,-9.79 -12.4,-37.36 -17.65,-72.22 -24.54,-111.15 -6.95,-39.27 -3.21,-81.16 0.33,-120.69 1.93,-21.51 7.45,-35.32 9.75,-57.57 1.57,-15.2 3.86,-13.31 7.21,-23.37 3.17,-9.49 2.04,-20.27 4.95,-30.19 4.09,-13.89 11.59,-45.78 4.57,-58.96zm110.64 -27.52l-11.81 20.85c-10.02,14.18 -2.36,13.55 -7.27,27.76 -4.71,13.66 -7.07,1.59 -8.79,23.88 -1.92,25.13 -5.04,14.21 -8.7,25.73 -3.06,9.65 -0.16,19 -4.54,30.51 -22.85,60.03 -48.35,301.9 -32.43,329.26l78.05 166.13c18.98,36.74 12.8,42.34 52.4,73.26 11.36,8.88 35.03,20.06 55.82,10.22 0.51,-0.24 1.14,-0.64 1.64,-0.9 12.15,-6.53 8.14,-5.18 12.6,-10.36 14.15,-16.41 14.72,-13.23 29.72,-34.99l30.86 -36.59c5.08,-6.18 8.85,-12.15 14.41,-19.5 21.58,-28.52 44.73,-28.42 13.1,-87.1l-60.83 -109.79c-0.27,-0.46 -0.58,-1.11 -0.83,-1.59l-39.58 -94.17c-11.45,-39.79 -15.37,-42.83 -27.78,-96.09l-8.39 -36.99c-1.83,-6.25 -3.2,-5.53 -4.69,-12.47 -2.8,-13.02 -19.95,-86.18 -24.99,-95.73 -3.46,-6.56 -1.58,-1.46 -3.49,-10.52 -2.24,-10.63 -1.25,-6.08 -4.37,-12.54 -2.2,-4.56 -26.09,-68.51 -40.11,-48.27z"/>
  <path id="outline" class="fil2" d="M592.21 1862.22c-3.96,19.28 0.39,68.54 -9.19,80.82 -11.46,14.67 -51.56,50.32 -69.1,62.58l-11.94 6.26c-0.45,0.29 -1.02,0.78 -1.45,1.09 -9.6,6.93 -16.11,13.25 -29.12,14.27 -30.04,2.34 -41.77,-6.62 -65.7,-18.64 -5.41,-2.71 -1.38,-1.05 -6.64,-3.57l-129.47 -49.63c-4.27,-2.35 -1.9,-1.53 -5.99,-3.98 -10.08,-6.03 -10.63,-3.04 -17.05,-14.24 -12.01,-20.95 -2.96,-27.96 -9.87,-49.47 -3.35,-10.42 0.65,-10.29 -8.3,-12.69 -7.3,15.43 -1.87,54.37 -7.44,73.62 -23.68,1.45 -46.42,1.46 -70.01,1.13 -4.45,-0.07 -13.18,-0.02 -17.13,-0.77l-38.81 -13.37c-14.16,-7.28 -27.26,-19.29 -35.98,-31.53l-31.15 -72.34c0.01,-23.66 -10.11,-21.64 -1.81,-80.34 1.98,-14.01 1.06,-5.93 4.99,-13.18 6.53,-12.06 2.39,-19.29 4.96,-31.8 3.29,-16.01 6.17,-3.48 10.63,-27.28 2.26,-12.04 1.66,-5.13 5.8,-12.13 12.82,-21.64 16.63,-42.97 44.6,-67.18 8.85,-7.66 -0.53,-2.22 11.79,-5.46 12.64,-3.32 3.83,-1.52 13.4,-5 14.92,-5.43 32.14,-2.73 47.01,-6.08 21.68,-4.88 44.43,-2.94 68.21,-2.09 22.78,0.81 46.71,-1.52 70.29,-1.88 20.25,-0.31 15.21,-4.04 30.38,-6.08 24.17,-3.23 12.79,-4.01 26.28,-8.83 32.15,-11.47 31.85,-11.87 58.63,-30.68 3.87,-2.72 6.53,-3.94 10.94,-6.94 4.29,-2.92 6.08,-4.48 10.66,-7.43 25.58,-16.43 49.04,-39.37 77.07,-51.33 13.63,-5.81 36.09,-17.83 50.18,-21.17 7.8,-1.84 25.98,-1.19 34.7,-1.23 39.14,-0.19 71.47,24.03 90.06,49.97l12.28 21.21c9.81,17.88 27.31,65.97 30.83,86.83 1.57,9.3 2.05,5.17 4.81,11.24 3.91,8.57 0.69,5.38 2.62,13.75 2.86,12.35 2.23,0.83 4.96,11.68 1.62,6.46 -0.18,7.91 1.97,14.95l23.58 85.73c2.28,8.96 -0.66,-1.15 3.12,6.76 4.55,9.53 1.75,1.98 2.71,13.81 1.45,18.03 12.82,12.42 3.64,80.31 -2.61,19.35 -16.1,31.11 -27.12,47.34 -9.63,14.2 -25.4,24.48 -40.79,33.78 -26.83,16.22 -48.29,27.69 -80.44,27.65 -33.94,-0.04 -36.21,0.25 -34.18,-33.93 1.15,-19.36 4.81,-50.51 -12.42,-54.51zm-302.73 -1178.97c14.02,-20.24 37.91,43.71 40.11,48.27 3.12,6.46 2.13,1.91 4.37,12.54 1.91,9.06 0.03,3.96 3.49,10.52 5.04,9.55 22.19,82.71 24.99,95.73 1.49,6.94 2.86,6.22 4.69,12.47l8.39 36.99c12.41,53.26 16.33,56.3 27.78,96.09l39.58 94.17c0.25,0.48 0.56,1.13 0.83,1.58l60.83 109.8c31.63,58.68 8.48,58.58 -13.1,87.1 -5.57,7.35 -9.33,13.32 -14.41,19.5l-30.86 36.59c-15,21.76 -15.57,18.58 -29.72,34.99 -4.45,5.17 -0.45,3.83 -12.6,10.36 -0.5,0.26 -1.13,0.66 -1.64,0.9 -20.79,9.84 -44.46,-1.34 -55.82,-10.22 -39.6,-30.92 -33.42,-36.52 -52.4,-73.26l-78.05 -166.13c-15.92,-27.36 9.58,-269.23 32.43,-329.26 4.38,-11.51 1.48,-20.86 4.54,-30.51 3.66,-11.52 6.78,-0.6 8.7,-25.73 1.72,-22.29 4.08,-10.22 8.79,-23.88 4.91,-14.21 -2.75,-13.58 7.27,-27.76l11.81 -20.85zm-110.64 27.52c7.02,13.18 -0.48,45.07 -4.57,58.96 -2.91,9.92 -1.78,20.7 -4.95,30.19 -3.35,10.06 -5.64,8.17 -7.21,23.37 -2.3,22.25 -7.83,36.06 -9.75,57.57 -3.54,39.53 -7.28,81.42 -0.33,120.69 6.89,38.93 12.14,73.79 24.54,111.15 2.08,6.26 2.86,5.53 4.45,9.79 0.21,0.57 0.42,1.24 0.61,1.82l50.17 114.82c3.87,7.65 1.98,1.26 5.14,8.88 3.29,7.93 3.63,11.56 8.28,20.31 3.55,6.69 3.64,5.73 6.16,11.08 1.83,3.87 2.01,5.43 4.37,10.09 23.02,45.4 38.19,84.29 79.72,115.42 11.88,8.9 18.52,10.58 33.11,13.93 23.72,5.44 53.65,-9.92 70.91,-25.22l87.3 -107.41c9.48,-11.45 21.15,-22.81 30.76,-34.09 5.48,-6.41 8.14,-11.84 14.67,-19.25 5.74,-6.53 11.45,-8.61 15.37,-15.27 1.27,-2.17 1.65,-3.84 3.42,-7.03l8.97 -14.65c11.03,-15.09 20.82,-36.97 28.61,-52.1l13.23 -36.54c6.39,-14.33 2.45,2.96 6.61,-11.55 1.36,-4.74 1.02,-9.66 2.14,-14.46 3.41,-14.72 5.57,-3.57 8.57,-25.14 2.32,-16.77 5.44,-7.72 8.1,-24.91 1.48,-9.61 0.59,-22.98 2.78,-32.04 2.42,-10.02 5.86,-7.98 7.74,-22.98 9.2,-73.62 -1.08,-91.73 0.49,-117.72 1.81,-30.15 -4.31,-23.13 -2.94,-57.75 0.77,-19.57 -4.98,-8.52 -5.76,-24.77 -1.08,-22.54 3.94,-70.41 6.59,-92.91 14.04,1.5 24.11,18.88 30.47,30.2 26.04,46.25 47.77,94.95 64.4,145.96l10.02 35.34c2.2,8.05 2.87,5.01 4.31,10.2 1.89,6.84 0.25,7.06 1.58,12.95 2.68,11.8 4.7,5.68 6.5,23.12 1.3,12.6 1.05,4.42 3.24,11.97 3.68,12.66 -1.27,15.89 0.5,27.96 1.94,13.22 6.46,3.54 5.28,25.1 -1.94,35.62 -2.48,129.08 -12.27,153.12 -5.79,14.2 -4.25,11.02 -7.29,27.06l-66.66 160.76c-4.4,10.27 -2.49,15.88 -8.08,26.42 -6.76,12.77 -3.35,10.59 -5.96,25.6 -2.19,12.61 -4.12,7.44 -6.59,24.85 -1.47,10.31 -2.84,16.4 -3.75,28.39 -12.2,-1.83 -8.45,-3.9 -16.51,-9.16l-42.41 -18.86c-17.67,-2.7 -33.79,-4.08 -53.46,-1.19 -23.73,3.49 -11.44,-0.32 -30.76,7.36 -53,21.09 -40.71,15.34 -87.13,45.73 -9.36,6.13 -5.66,3.03 -13.22,9.95l-28.25 20.55c-17.99,13.67 -42.68,27.78 -64.51,34.95 -9.51,3.13 -10.35,0.42 -20.66,5.03 -8.99,4.03 -3.58,3.62 -17.71,3.73 -24.99,0.2 -24.53,2.86 -43.27,5.12 -27.27,3.28 -66.21,0.19 -94.94,1.02 -44.65,1.28 -60.67,15.9 -80.68,14.86 -2.6,-14.86 -1.16,-45.39 -0.34,-62.2 1.05,-21.44 0.45,-70.67 -4.23,-90.46 -2.66,-11.26 -3.78,-12.61 -4.26,-27.08 -0.5,-14.84 -3.58,-14.81 -5.33,-25.6l-4.87 -26.85c-4.25,-33.54 -22.91,-106.55 -25.42,-133.69 -0.25,-2.68 -0.58,-10.98 -1.54,-14.82 -8.74,-35.1 -1.79,-19.79 -5.26,-39.34 -7.82,-43.97 -6.75,-108.08 0.3,-155.18l47.62 -163.69c9.79,-29.03 43.96,-83.43 64.85,-107.05 6.92,-7.82 9.23,-13.3 18.99,-14.41zm5.66 342.51c-4.55,-15.24 -6.99,-44.83 -8.06,-62.59 -0.87,-14.4 -3.03,-9.93 -3.81,-22.3 -2.24,-35.46 2.25,-87.54 9.97,-122.9 2.34,-10.69 4.4,-11.24 6.29,-19.78 1.77,-8.04 1.02,-15.27 3.25,-23.32 2.88,-10.39 4.79,-7.93 6.3,-21.43 2.65,-23.69 11.55,-51.04 5.59,-72.75 -8.54,-31.13 -24.61,-36.31 -49.74,-13.03 -39.9,36.98 -32.57,41.73 -58.63,81.85 -5.92,9.12 -6.67,14.37 -11.81,22.25l-11.92 24.86c-2.53,7.07 -1.02,7.34 -5.24,13.41 -0.28,0.4 -0.86,0.89 -1.15,1.27 -0.27,0.37 -0.88,0.85 -1.15,1.22l-6.15 22.6c-2.87,7.69 -3.3,3.34 -6.78,11.27 -4.21,9.6 -1,17.02 -6.82,27.69 -10.17,18.65 -4.14,5.88 -7.83,29.45 -3.28,20.95 -6.07,9.02 -11.89,59.96 -3.37,29.43 -11.42,105.44 -6.33,130.76 2.74,13.59 -1.53,31.75 1.96,45.3l7.68 39.95c4.25,32.14 8.86,63.59 16.73,94.37l8.92 40.73c4.92,17.1 6.06,38.31 9.09,55.81 1.9,10.98 4.56,8.4 4.6,25.94 0.04,16.95 3.39,16.36 4.65,28.16 4.32,40.71 2.57,86 -1.78,127.15 -1.92,18.14 -16.71,30.58 -25.15,46 -14,25.58 -24.2,45.99 -30.93,73.82 -3.02,12.45 -6.35,13.02 -8.74,28.07 -3.03,19.17 -9.14,79.17 -3.76,96.73 1.63,5.3 0.58,-1.18 1.66,5.87 1.47,9.55 -0.03,15.8 3.25,22.58 5.21,10.8 5.17,26.94 10.38,37.32l34.18 47.63c10.51,10.37 35.12,22.4 47.95,29.93 20.17,11.85 64.62,14.49 89.91,12.52 24.6,-1.92 37.24,-16.49 72.69,1.89l22.15 9.97c9.32,5.31 19.33,4 26.52,7.73 6.6,3.42 -3.91,2.16 9.76,4.93 6.49,1.32 8.28,-0.35 15.9,1.9 13.54,4.01 3.77,6.06 22.98,10.43l28.16 11.42c11.01,6.11 56.56,25.28 67.26,26.82 14.3,2.05 16.96,-2.01 26.99,-5.5l38.17 -19.08c28.1,-18.28 50.1,-44.09 62.65,-53 13.92,-9.87 36.84,3.83 59.67,3.04 17.56,-0.61 50.83,-13.93 68.75,-23.29 14.1,-7.37 40.48,-22.06 50.34,-31.87l8.63 -7.07c2.98,-2.42 6.61,-6.08 9.11,-8.88 15.8,-17.74 24.39,-34.85 29.18,-57.01 3.52,-16.26 11.5,-26.6 6.24,-43.74 -4.43,-14.45 -1.97,-13.36 -2.11,-29.16 -0.16,-17.03 -8.63,-35.01 -10.59,-52.52l-7.13 -26.78c-3.3,-10.29 -2.16,-1.62 -4.82,-9.69 -2.69,-8.15 -0.11,-7.89 -1.71,-14.98 -2.95,-13.06 -16.1,-44.73 -18.85,-61.42 -3.64,-22.1 -11.9,-40.93 -18.69,-62.71 -18.67,-59.95 -49.44,-75.95 -23.3,-151.78 3.38,-9.81 13.7,-46.55 17.65,-54.2l37.41 -85.06c4.73,-10.65 3.7,-14.71 9.53,-24.83 5.41,-9.36 1.91,-3.44 3.79,-13.99 2.88,-16.15 5.83,-8.42 10.04,-26.76 2.63,-11.45 5.42,-18.42 7.89,-26.91 3.18,-10.92 1.9,-22.82 4.19,-33.99 4.07,-19.92 7.11,-0.51 10.79,-59.99 1.42,-22.84 4.97,-43.45 -1.27,-62.31 -3.52,-10.66 -0.34,-18.71 -0.42,-30.43 -0.13,-17.76 -5.72,-5.82 -5.97,-24.84 -0.33,-24.55 -1.46,-12.67 -4.82,-25.93 -1.89,-7.47 0.66,-8.37 -1.21,-15.54 -1.61,-6.16 -3.37,-2.78 -5.73,-10.31 -1.81,-5.74 -0.39,-7.57 -1.34,-12.99 -1.93,-11.08 -2.35,-2.93 -4.52,-11.87 -1.81,-7.48 0.86,-6.68 -1.9,-14.8l-21.25 -60.33c-3.45,-8.28 -4.12,-13.58 -9.13,-21.89l-50.41 -96.27c-3.3,-6.38 -1.4,-5.39 -5.8,-10.96 -9.52,-12.07 -24.76,-23.15 -44.18,-21.83 -22.35,27.1 -18.78,36.15 -20.83,70.01 -0.86,14.19 -1.61,28.36 -2.34,42.54 -0.73,14.2 -2.91,27.97 2.09,38.64 4.88,10.4 1.68,26.34 0.63,38.99 -2.11,25.47 5.46,14.95 4.93,34.74 -0.75,27.63 -2.83,60.23 -4.99,87.79 -1.11,14.2 -2.71,28.55 -3.48,42.69 -1.62,29.77 -7.24,9.3 -10.27,34.77 -2.37,19.98 -13.12,52.27 -21.9,69.03 -10,19.11 -13.3,34.28 -16.19,38.68l-17.56 29.28c-0.34,0.48 -0.77,1.12 -1.12,1.59l-11.42 17.16c-3.38,5.86 -15.9,21.59 -22.21,25.5 -0.54,-0.36 -1.17,-1.75 -1.4,-1.32l-33.11 -68.1c-15.32,-32.99 -39.8,-61.96 -55.08,-98.88l-43.88 -111.14 -39.77 -165.42c-9.05,-31.04 -26.19,-85.95 -45.63,-109.39 -6.95,-8.38 -13.93,-12.14 -22.86,-16.48 -8.32,-4.04 0.4,-1.74 -8.63,-5.15l-13.09 9.2c-2.81,1.84 -1.81,1.01 -4.7,3.34 -12.05,9.66 -18.28,25.01 -25.21,37.11l-21.56 77.12c-1.74,12.41 -5,13.56 -7.63,23.29 -2.66,9.85 -1.33,20.82 -4.58,30.33 -2.99,8.73 -6.47,10.04 -8.16,21.76 -1.44,9.94 -0.79,19.94 -2.9,29.87 -2.25,10.56 -4.59,10.61 -5.98,24.96 -1.04,10.71 -1.35,21.5 -2.92,32.15 -2.66,18.04 -4.7,38.39 -6.39,58.08 -1.37,15.96 1.2,47.81 -7.84,57.27z"/>
 </g>
</svg>
