<?xml version="1.0" encoding="UTF-8"?>
<!DOCTYPE svg PUBLIC "-//W3C//DTD SVG 1.1//EN" "http://www.w3.org/Graphics/SVG/1.1/DTD/svg11.dtd">
<!-- Creator: CorelDRAW (Versión de evaluación) -->
<svg xmlns="http://www.w3.org/2000/svg" xml:space="preserve" width="440px" height="2052px" version="1.1" style="shape-rendering:geometricPrecision; text-rendering:geometricPrecision; image-rendering:optimizeQuality; fill-rule:evenodd; clip-rule:evenodd"
viewBox="0 0 440 2050.82"
 xmlns:xlink="http://www.w3.org/1999/xlink"
 xmlns:xodm="http://www.corel.com/coreldraw/odm/2003">
 <defs>
  <style type="text/css">
   <![CDATA[
    .fil2 {fill:#4B4B4D}
    .fil1 {fill:#F3EDD9}
    .fil0 {fill:#F8FBFF}
   ]]>
  </style>
 </defs>
 <g id="deciduous">
  <metadata id="CorelCorpID_0Corel-Layer"/>
  <polygon id="crown" class="fil0" points="183.72,1158.5 178.22,1158.5 178.22,1161.25 172.73,1161.25 172.73,1164 167.22,1164 167.22,1166.75 161.72,1166.75 161.72,1169.5 158.97,1169.5 158.97,1172.25 153.47,1172.25 153.47,1175 150.72,1175 150.72,1177.75 147.98,1177.75 147.98,1180.5 142.47,1180.5 142.47,1183.25 139.72,1183.25 139.72,1186 136.97,1186 136.97,1188.75 134.22,1188.75 134.22,1191.5 131.47,1191.5 131.47,1194.25 128.72,1194.25 128.72,1199.75 125.97,1199.75 125.97,1202.5 123.22,1202.5 123.22,1205.25 120.47,1205.25 120.47,1210.75 117.72,1210.75 117.72,1213.5 114.97,1213.5 114.97,1219 112.22,1219 112.22,1221.75 109.47,1221.75 109.47,1227.25 106.72,1227.25 106.72,1232.75 103.97,1232.75 103.97,1235.5 101.22,1235.5 101.22,1241 98.47,1241 98.47,1246.5 95.72,1246.5 95.72,1252 92.97,1252 92.97,1260.25 90.22,1260.25 90.22,1265.75 87.47,1265.75 87.47,1271.25 84.72,1271.25 84.72,1282.25 81.97,1282.25 81.97,1287.75 79.22,1287.75 79.22,1296 76.47,1296 76.47,1301.5 73.72,1301.5 73.72,1312.5 70.97,1312.5 70.97,1320.75 68.22,1320.75 68.22,1326.25 65.47,1326.25 65.47,1334.5 62.72,1334.5 62.72,1348.25 59.97,1348.25 59.97,1353.75 57.22,1353.75 57.22,1362 54.47,1362 54.47,1370.25 51.72,1370.25 51.72,1386.75 48.97,1386.75 48.97,1392.25 46.22,1392.25 46.22,1403.25 43.47,1403.25 43.47,1414.25 40.72,1414.25 40.72,1425.25 37.97,1425.25 37.97,1436.25 35.22,1436.25 35.22,1452.75 32.47,1452.75 32.47,1463.75 29.72,1463.75 29.72,1483 26.97,1483 26.97,1507.75 24.22,1507.75 24.22,1584.75 26.97,1584.75 26.97,1604 29.72,1604 29.72,1620.5 32.47,1620.5 32.47,1634.25 35.22,1634.25 35.22,1639.76 37.97,1639.76 37.97,1648 40.72,1648 40.72,1653.5 43.47,1653.5 43.47,1659 46.22,1659 46.22,1661.75 48.97,1661.75 48.97,1667.25 51.72,1667.25 51.72,1670 54.47,1670 54.47,1672.76 57.22,1672.76 57.22,1678.25 59.97,1678.25 59.97,1681.01 62.72,1681.01 62.72,1683.75 68.22,1683.75 68.22,1686.5 70.97,1686.5 70.97,1689.26 73.72,1689.26 73.72,1692 79.22,1692 79.22,1694.75 81.97,1694.75 81.97,1697.51 87.47,1697.51 87.47,1700.25 92.97,1700.25 92.97,1703.01 98.47,1703.01 98.47,1705.76 103.97,1705.76 103.97,1708.5 112.22,1708.5 112.22,1711.25 120.47,1711.25 120.47,1714.01 134.22,1714.01 134.22,1716.75 145.22,1716.75 145.22,1719.51 161.72,1719.51 161.72,1722.26 178.22,1722.26 178.22,1725 296.47,1725 296.47,1722.26 312.97,1722.26 312.97,1719.51 334.98,1719.51 334.98,1716.75 351.48,1716.75 351.48,1714.01 359.73,1714.01 359.73,1711.25 367.98,1711.25 367.98,1708.5 376.23,1708.5 376.23,1705.76 381.73,1705.76 381.73,1703.01 384.48,1703.01 384.48,1700.25 389.98,1700.25 389.98,1697.51 392.73,1697.51 392.73,1694.75 395.48,1694.75 395.48,1689.26 398.23,1689.26 398.23,1686.5 400.98,1686.5 400.98,1681.01 403.73,1681.01 403.73,1675.5 406.48,1675.5 406.48,1667.25 409.23,1667.25 409.23,1659 411.98,1659 411.98,1645.25 414.73,1645.25 414.73,1560 411.98,1560 411.98,1532.5 409.23,1532.5 409.23,1516 406.48,1516 406.48,1494 403.73,1494 403.73,1483 400.98,1483 400.98,1469.25 398.23,1469.25 398.23,1458.25 395.48,1458.25 395.48,1447.25 392.73,1447.25 392.73,1430.75 389.98,1430.75 389.98,1419.75 387.23,1419.75 387.23,1411.5 384.48,1411.5 384.48,1403.25 381.73,1403.25 381.73,1392.25 378.98,1392.25 378.98,1381.25 376.23,1381.25 376.23,1370.25 373.48,1370.25 373.48,1364.75 370.73,1364.75 370.73,1353.75 367.98,1353.75 367.98,1348.25 365.23,1348.25 365.23,1340 362.48,1340 362.48,1334.5 359.73,1334.5 359.73,1326.25 356.98,1326.25 356.98,1320.75 354.23,1320.75 354.23,1312.5 351.48,1312.5 351.48,1307 348.73,1307 348.73,1298.75 345.97,1298.75 345.97,1293.25 343.23,1293.25 343.23,1287.75 340.48,1287.75 340.48,1282.25 337.73,1282.25 337.73,1274 334.98,1274 334.98,1268.5 332.23,1268.5 332.23,1263 329.47,1263 329.47,1257.5 326.73,1257.5 326.73,1252 323.98,1252 323.98,1246.5 321.22,1246.5 321.22,1241 318.48,1241 318.48,1238.25 315.73,1238.25 315.73,1232.75 312.97,1232.75 312.97,1230 310.23,1230 310.23,1224.5 307.48,1224.5 307.48,1221.75 304.72,1221.75 304.72,1216.25 301.98,1216.25 301.98,1213.5 299.23,1213.5 299.23,1210.75 296.47,1210.75 296.47,1205.25 293.73,1205.25 293.73,1202.5 290.98,1202.5 290.98,1199.75 288.22,1199.75 288.22,1197 285.48,1197 285.48,1194.25 282.72,1194.25 282.72,1191.5 279.97,1191.5 279.97,1188.75 277.23,1188.75 277.23,1186 274.48,1186 274.48,1183.25 271.72,1183.25 271.72,1180.5 268.98,1180.5 268.98,1177.75 266.22,1177.75 266.22,1175 260.73,1175 260.73,1172.25 257.97,1172.25 257.97,1169.5 252.48,1169.5 252.48,1166.75 249.72,1166.75 249.72,1164 244.23,1164 244.23,1161.25 233.22,1161.25 233.22,1158.5 224.97,1158.5 224.97,1155.75 183.72,1155.75 "/>
  <polygon id="root" class="fil1" points="164.48,270.23 161.72,270.23 161.72,275.73 158.97,275.73 158.97,283.98 156.22,283.98 156.22,297.73 153.47,297.73 153.47,311.48 150.72,311.48 150.72,336.23 147.98,336.23 147.98,360.98 145.22,360.98 145.22,426.98 142.47,426.98 142.47,487.49 139.72,487.49 139.72,550.74 136.97,550.74 136.97,591.99 134.22,591.99 134.22,633.24 131.47,633.24 131.47,646.99 128.72,646.99 128.72,668.99 125.97,668.99 125.97,690.99 123.22,690.99 123.22,715.74 120.47,715.74 120.47,732.24 117.72,732.24 117.72,751.49 114.97,751.49 114.97,773.49 112.22,773.49 112.22,803.74 109.47,803.74 109.47,831.24 106.72,831.24 106.72,855.99 103.97,855.99 103.97,886.24 101.22,886.24 101.22,952.24 98.47,952.24 98.47,996.24 95.72,996.24 95.72,1062.24 92.97,1062.24 92.97,1111.75 90.22,1111.75 90.22,1150.24 87.47,1150.24 87.47,1186 84.72,1186 84.72,1210.75 81.97,1210.75 81.97,1221.75 84.72,1221.75 84.72,1219 87.47,1219 87.47,1213.5 90.22,1213.5 90.22,1208 92.97,1208 92.97,1202.5 95.72,1202.5 95.72,1199.75 98.47,1199.75 98.47,1194.25 101.22,1194.25 101.22,1191.5 103.97,1191.5 103.97,1188.75 106.72,1188.75 106.72,1186 109.47,1186 109.47,1183.25 112.22,1183.25 112.22,1180.5 114.97,1180.5 114.97,1175 117.72,1175 117.72,1172.25 120.47,1172.25 120.47,1169.5 123.22,1169.5 123.22,1166.75 125.97,1166.75 125.97,1164 128.72,1164 128.72,1161.25 131.47,1161.25 131.47,1158.5 134.22,1158.5 134.22,1155.75 139.72,1155.75 139.72,1153 142.47,1153 142.47,1150.24 145.22,1150.24 145.22,1147.5 150.72,1147.5 150.72,1144.75 156.22,1144.75 156.22,1142 161.72,1142 161.72,1139.25 167.22,1139.25 167.22,1136.5 172.73,1136.5 172.73,1133.74 186.47,1133.74 186.47,1131 224.97,1131 224.97,1133.74 241.47,1133.74 241.47,1136.5 246.97,1136.5 246.97,1139.25 252.48,1139.25 252.48,1142 257.97,1142 257.97,1144.75 263.47,1144.75 263.47,1147.5 268.98,1147.5 268.98,1150.24 271.72,1150.24 271.72,1153 277.23,1153 277.23,1155.75 279.97,1155.75 279.97,1158.5 282.72,1158.5 282.72,1161.25 285.48,1161.25 285.48,1164 288.22,1164 288.22,1166.75 290.98,1166.75 290.98,1169.5 296.47,1169.5 296.47,1172.25 299.23,1172.25 299.23,1177.75 301.98,1177.75 301.98,1180.5 304.72,1180.5 304.72,1183.25 307.48,1183.25 307.48,1186 310.23,1186 310.23,1188.75 312.97,1188.75 312.97,1191.5 315.73,1191.5 315.73,1194.25 318.48,1194.25 318.48,1197 321.22,1197 321.22,1199.75 323.98,1199.75 323.98,1205.25 326.73,1205.25 326.73,1210.75 329.47,1210.75 329.47,1213.5 332.23,1213.5 332.23,1191.5 329.47,1191.5 329.47,1164 326.73,1164 326.73,1114.5 323.98,1114.5 323.98,1084.24 321.22,1084.24 321.22,1053.99 318.48,1053.99 318.48,1037.49 315.73,1037.49 315.73,998.99 312.97,998.99 312.97,952.24 310.23,952.24 310.23,932.99 307.48,932.99 307.48,891.74 304.72,891.74 304.72,864.24 301.98,864.24 301.98,828.49 299.23,828.49 299.23,789.99 296.47,789.99 296.47,770.74 293.73,770.74 293.73,734.99 290.98,734.99 290.98,715.74 288.22,715.74 288.22,682.74 285.48,682.74 285.48,666.24 282.72,666.24 282.72,644.24 279.97,644.24 279.97,630.49 277.23,630.49 277.23,616.74 274.48,616.74 274.48,594.74 271.72,594.74 271.72,583.74 268.98,583.74 268.98,564.49 266.22,564.49 266.22,556.24 263.47,556.24 263.47,539.74 260.73,539.74 260.73,528.74 257.97,528.74 257.97,517.74 255.22,517.74 255.22,501.23 252.48,501.23 252.48,490.24 249.72,490.24 249.72,473.74 246.97,473.74 246.97,468.23 244.23,468.23 244.23,451.73 241.47,451.73 241.47,440.74 238.72,440.74 238.72,429.74 235.98,429.74 235.98,418.73 233.22,418.73 233.22,413.23 230.47,413.23 230.47,396.73 227.73,396.73 227.73,391.23 224.97,391.23 224.97,380.23 222.22,380.23 222.22,369.23 219.47,369.23 219.47,360.98 216.72,360.98 216.72,352.73 213.97,352.73 213.97,341.73 211.23,341.73 211.23,336.23 208.47,336.23 208.47,327.98 205.72,327.98 205.72,319.73 202.97,319.73 202.97,311.48 200.22,311.48 200.22,305.98 197.47,305.98 197.47,300.48 194.72,300.48 194.72,292.23 191.97,292.23 191.97,289.48 189.22,289.48 189.22,283.98 186.47,283.98 186.47,281.23 183.72,281.23 183.72,275.73 180.98,275.73 180.98,272.98 178.22,272.98 178.22,270.23 175.47,270.23 175.47,267.48 164.48,267.48 "/>
  <path id="outline" class="fil2" d="M24.22 1507.75l2.75 0 0 -24.75 2.75 0 0 -19.25 2.75 0 0 -11 2.75 0 0 -16.5 2.75 0 0 -11 2.75 0 0 -11 2.75 0 0 -11 2.75 0 0 -11 2.75 0 0 -5.5 2.75 0 0 -16.5 2.75 0 0 -8.25 2.75 0 0 -8.25 2.75 0 0 -5.5 2.75 0 0 -13.75 2.75 0 0 -8.25 2.75 0 0 -5.5 2.75 0 0 -8.25 2.75 0 0 -11 2.75 0 0 -5.5 2.75 0 0 -8.25 2.75 0 0 -5.5 2.75 0 0 -11 2.75 0 0 -5.5 2.75 0 0 -5.5 2.75 0 0 -8.25 2.75 0 0 -5.5 2.75 0 0 -5.5 2.75 0 0 -5.5 2.75 0 0 -2.75 2.75 0 0 -5.5 2.75 0 0 -5.5 2.75 0 0 -2.75 2.75 0 0 -5.5 2.75 0 0 -2.75 2.75 0 0 -5.5 2.75 0 0 -2.75 2.75 0 0 -2.75 2.75 0 0 -5.5 2.75 0 0 -2.75 2.75 0 0 -2.75 2.75 0 0 -2.75 2.75 0 0 -2.75 2.75 0 0 -2.75 5.51 0 0 -2.75 2.74 0 0 -2.75 2.75 0 0 -2.75 5.5 0 0 -2.75 2.75 0 0 -2.75 5.5 0 0 -2.75 5.51 0 0 -2.75 5.49 0 0 -2.75 5.5 0 0 -2.75 41.25 0 0 2.75 8.25 0 0 2.75 11.01 0 0 2.75 5.49 0 0 2.75 2.76 0 0 2.75 5.49 0 0 2.75 2.76 0 0 2.75 5.49 0 0 2.75 2.76 0 0 2.75 2.74 0 0 2.75 2.76 0 0 2.75 2.75 0 0 2.75 2.74 0 0 2.75 2.75 0 0 2.75 2.76 0 0 2.75 2.74 0 0 2.75 2.76 0 0 2.75 2.75 0 0 2.75 2.74 0 0 5.5 2.76 0 0 2.75 2.75 0 0 2.75 2.74 0 0 5.5 2.76 0 0 2.75 2.75 0 0 5.5 2.74 0 0 2.75 2.76 0 0 5.5 2.75 0 0 2.75 2.74 0 0 5.5 2.76 0 0 5.5 2.75 0 0 5.5 2.74 0 0 5.5 2.76 0 0 5.5 2.75 0 0 5.5 2.75 0 0 8.25 2.75 0 0 5.5 2.75 0 0 5.5 2.74 0 0 5.5 2.76 0 0 8.25 2.75 0 0 5.5 2.75 0 0 8.25 2.75 0 0 5.5 2.75 0 0 8.25 2.75 0 0 5.5 2.75 0 0 8.25 2.75 0 0 5.5 2.75 0 0 11 2.75 0 0 5.5 2.75 0 0 11 2.75 0 0 11 2.75 0 0 11 2.75 0 0 8.25 2.75 0 0 8.25 2.75 0 0 11 2.75 0 0 16.5 2.75 0 0 11 2.75 0 0 11 2.75 0 0 13.75 2.75 0 0 11 2.75 0 0 22 2.75 0 0 16.5 2.75 0 0 27.5 2.75 0 0 85.25 -2.75 0 0 13.75 -2.75 0 0 8.25 -2.75 0 0 8.25 -2.75 0 0 5.51 -2.75 0 0 5.49 -2.75 0 0 2.76 -2.75 0 0 5.49 -2.75 0 0 2.76 -2.75 0 0 2.74 -5.5 0 0 2.76 -2.75 0 0 2.75 -5.5 0 0 2.74 -8.25 0 0 2.75 -8.25 0 0 2.76 -8.25 0 0 2.74 -16.5 0 0 2.76 -22.01 0 0 2.75 -16.5 0 0 2.74 -118.25 0 0 -2.74 -16.5 0 0 -2.75 -16.5 0 0 -2.76 -11 0 0 -2.74 -13.75 0 0 -2.76 -8.25 0 0 -2.75 -8.25 0 0 -2.74 -5.5 0 0 -2.75 -5.5 0 0 -2.76 -5.5 0 0 -2.74 -5.5 0 0 -2.76 -2.75 0 0 -2.75 -5.5 0 0 -2.74 -2.75 0 0 -2.76 -2.75 0 0 -2.75 -5.5 0 0 -2.74 -2.75 0 0 -2.76 -2.75 0 0 -5.49 -2.75 0 0 -2.76 -2.75 0 0 -2.75 -2.75 0 0 -5.5 -2.75 0 0 -2.75 -2.75 0 0 -5.5 -2.75 0 0 -5.5 -2.75 0 0 -8.24 -2.75 0 0 -5.51 -2.75 0 0 -13.75 -2.75 0 0 -16.5 -2.75 0 0 -19.25 -2.75 0 0 -77zm162.25 -374.01l-13.74 0 0 2.76 -5.51 0 0 2.75 -5.5 0 0 2.75 -5.5 0 0 2.75 -5.5 0 0 2.75 -5.5 0 0 2.74 -2.75 0 0 2.76 -2.75 0 0 2.75 -5.5 0 0 2.75 -2.75 0 0 2.75 -2.75 0 0 2.75 -2.75 0 0 2.75 -2.75 0 0 2.75 -2.75 0 0 2.75 -2.75 0 0 2.75 -2.75 0 0 5.5 -2.75 0 0 2.75 -2.75 0 0 2.75 -2.75 0 0 2.75 -2.75 0 0 2.75 -2.75 0 0 2.75 -2.75 0 0 5.5 -2.75 0 0 2.75 -2.75 0 0 5.5 -2.75 0 0 5.5 -2.75 0 0 5.5 -2.75 0 0 2.75 -2.75 0 0 -11 2.75 0 0 -24.75 2.75 0 0 -35.76 2.75 0 0 -38.49 2.75 0 0 -49.51 2.75 0 0 -66 2.75 0 0 -44 2.75 0 0 -66 2.75 0 0 -30.25 2.75 0 0 -24.75 2.75 0 0 -27.5 2.75 0 0 -30.25 2.75 0 0 -22 2.75 0 0 -19.25 2.75 0 0 -16.5 2.75 0 0 -24.75 2.75 0 0 -22 2.75 0 0 -22 2.75 0 0 -13.75 2.75 0 0 -41.25 2.75 0 0 -41.25 2.75 0 0 -63.25 2.75 0 0 -60.51 2.75 0 0 -66 2.76 0 0 -24.75 2.74 0 0 -24.75 2.75 0 0 -13.75 2.75 0 0 -13.75 2.75 0 0 -8.25 2.75 0 0 -5.5 2.76 0 0 -2.75 10.99 0 0 2.75 2.75 0 0 2.75 2.76 0 0 2.75 2.74 0 0 5.5 2.75 0 0 2.75 2.75 0 0 5.5 2.75 0 0 2.75 2.75 0 0 8.25 2.75 0 0 5.5 2.75 0 0 5.5 2.75 0 0 8.25 2.75 0 0 8.25 2.75 0 0 8.25 2.76 0 0 5.5 2.74 0 0 11 2.75 0 0 8.25 2.75 0 0 8.25 2.75 0 0 11 2.75 0 0 11 2.76 0 0 5.5 2.74 0 0 16.5 2.75 0 0 5.5 2.76 0 0 11.01 2.74 0 0 11 2.75 0 0 10.99 2.76 0 0 16.5 2.74 0 0 5.51 2.75 0 0 16.5 2.76 0 0 10.99 2.74 0 0 16.51 2.75 0 0 11 2.76 0 0 11 2.74 0 0 16.5 2.75 0 0 8.25 2.76 0 0 19.25 2.74 0 0 11 2.76 0 0 22 2.75 0 0 13.75 2.74 0 0 13.75 2.75 0 0 22 2.76 0 0 16.5 2.74 0 0 33 2.76 0 0 19.25 2.75 0 0 35.75 2.74 0 0 19.25 2.76 0 0 38.5 2.75 0 0 35.75 2.74 0 0 27.5 2.76 0 0 41.25 2.75 0 0 19.25 2.74 0 0 46.75 2.76 0 0 38.5 2.75 0 0 16.5 2.74 0 0 30.25 2.76 0 0 30.26 2.75 0 0 49.5 2.74 0 0 27.5 2.76 0 0 22 -2.76 0 0 -2.75 -2.74 0 0 -5.5 -2.75 0 0 -5.5 -2.76 0 0 -2.75 -2.74 0 0 -2.75 -2.75 0 0 -2.75 -2.76 0 0 -2.75 -2.74 0 0 -2.75 -2.75 0 0 -2.75 -2.76 0 0 -2.75 -2.74 0 0 -2.75 -2.75 0 0 -5.5 -2.76 0 0 -2.75 -5.49 0 0 -2.75 -2.76 0 0 -2.75 -2.74 0 0 -2.75 -2.76 0 0 -2.75 -2.75 0 0 -2.75 -2.74 0 0 -2.75 -5.51 0 0 -2.76 -2.74 0 0 -2.74 -5.51 0 0 -2.75 -5.5 0 0 -2.75 -5.49 0 0 -2.75 -5.51 0 0 -2.75 -5.5 0 0 -2.76 -16.5 0 0 -2.74 -38.5 0 0 2.74zm-21.99 -888.26l-8.26 0 0 2.75 -5.5 0 0 2.75 -2.74 0 0 2.75 -2.76 0 0 2.75 -2.75 0 0 5.5 -2.75 0 0 5.5 -2.75 0 0 5.5 -2.75 0 0 8.25 -2.75 0 0 13.75 -2.75 0 0 8.25 -2.75 0 0 16.5 -2.75 0 0 38.5 -2.75 0 0 115.51 -2.75 0 0 71.5 -2.75 0 0 27.5 -2.75 0 0 52.25 -2.75 0 0 16.5 -2.75 0 0 19.25 -2.75 0 0 16.5 -2.75 0 0 33 -2.75 0 0 11 -2.75 0 0 27.5 -2.75 0 0 16.5 -2.75 0 0 19.25 -2.75 0 0 33 -2.75 0 0 27.5 -2.75 0 0 30.25 -2.75 0 0 41.25 -2.75 0 0 52.25 -2.75 0 0 63.26 -2.75 0 0 43.99 -2.75 0 0 33 -2.75 0 0 60.51 -2.75 0 0 38.5 -2.75 0 0 19.25 -2.75 0 0 30.25 -2.75 0 0 30.25 -2.75 0 0 13.75 -2.75 0 0 8.25 -2.75 0 0 5.5 -2.75 0 0 8.25 -2.75 0 0 8.25 -2.75 0 0 8.25 -2.75 0 0 13.75 -2.75 0 0 8.25 -2.75 0 0 5.5 -2.75 0 0 16.5 -2.75 0 0 8.25 -2.75 0 0 16.5 -2.75 0 0 8.25 -2.75 0 0 13.75 -2.75 0 0 11 -2.75 0 0 13.75 -2.75 0 0 19.25 -2.75 0 0 24.75 -2.75 0 0 19.25 -2.75 0 0 55 2.75 0 0 30.25 2.75 0 0 11 2.75 0 0 13.75 2.75 0 0 8.25 2.75 0 0 11 2.75 0 0 5.5 2.75 0 0 8.25 2.75 0 0 5.5 2.75 0 0 5.51 2.75 0 0 2.74 2.75 0 0 5.51 2.75 0 0 2.74 2.75 0 0 5.51 2.75 0 0 2.74 2.75 0 0 2.75 2.75 0 0 2.76 2.75 0 0 2.74 2.75 0 0 2.76 2.75 0 0 2.75 5.5 0 0 2.74 2.75 0 0 2.75 5.5 0 0 2.76 2.75 0 0 2.74 5.5 0 0 2.76 5.5 0 0 2.75 5.5 0 0 2.74 5.5 0 0 2.76 8.25 0 0 2.75 5.5 0 0 2.74 11 0 0 2.76 13.75 0 0 2.75 8.25 0 0 2.74 13.75 0 0 2.76 19.25 0 0 2.75 16.5 0 0 2.74 107.26 0 0 -2.74 13.75 0 0 -2.75 24.75 0 0 -2.76 16.5 0 0 -2.74 11 0 0 -2.75 11 0 0 -2.76 11 0 0 -2.74 2.75 0 0 -2.75 5.5 0 0 -2.76 5.5 0 0 -2.74 2.75 0 0 -2.75 5.5 0 0 -2.76 2.75 0 0 -2.74 2.75 0 0 -2.76 2.75 0 0 -2.75 2.75 0 0 -2.74 2.75 0 0 -2.75 2.75 0 0 -5.5 2.75 0 0 -2.76 2.75 0 0 -8.25 2.75 0 0 -8.25 2.75 0 0 -8.25 2.75 0 0 -8.25 2.75 0 0 -24.75 2.75 0 0 -71.5 -2.75 0 0 -24.75 -2.75 0 0 -22 -2.75 0 0 -16.5 -2.75 0 0 -16.5 -2.75 0 0 -11 -2.75 0 0 -19.25 -2.75 0 0 -8.25 -2.75 0 0 -16.5 -2.75 0 0 -11 -2.75 0 0 -11 -2.75 0 0 -11 -2.75 0 0 -5.5 -2.75 0 0 -8.25 -2.75 0 0 -13.75 -2.75 0 0 -5.5 -2.75 0 0 -8.25 -2.75 0 0 -11 -2.75 0 0 -2.75 -2.75 0 0 -11 -2.75 0 0 -5.5 -2.75 0 0 -5.5 -2.75 0 0 -11 -2.75 0 0 -5.5 -2.75 0 0 -8.25 -2.75 0 0 -8.25 -2.75 0 0 -8.25 -2.75 0 0 -8.25 -2.75 0 0 -27.5 -2.75 0 0 -22 -2.75 0 0 -24.75 -2.75 0 0 -22 -2.75 0 0 -33 -2.75 0 0 -24.76 -2.76 0 0 -24.75 -2.74 0 0 -41.25 -2.75 0 0 -38.5 -2.75 0 0 -41.25 -2.75 0 0 -22 -2.75 0 0 -24.75 -2.76 0 0 -44 -2.74 0 0 -55 -2.75 0 0 -33 -2.76 0 0 -22 -2.74 0 0 -22 -2.75 0 0 -38.5 -2.76 0 0 -16.5 -2.74 0 0 -16.5 -2.75 0 0 -27.5 -2.76 0 0 -8.25 -2.74 0 0 -19.25 -2.75 0 0 -13.75 -2.76 0 0 -22 -2.74 0 0 -13.75 -2.75 0 0 -11 -2.76 0 0 -16.5 -2.74 0 0 -16.5 -2.76 0 0 -11 -2.75 0 0 -16.51 -2.74 0 0 -10.99 -2.75 0 0 -16.5 -2.76 0 0 -5.51 -2.74 0 0 -13.75 -2.76 0 0 -8.24 -2.75 0 0 -11.01 -2.74 0 0 -13.75 -2.76 0 0 -11 -2.75 0 0 -8.25 -2.74 0 0 -11 -2.76 0 0 -11 -2.75 0 0 -8.25 -2.74 0 0 -8.25 -2.76 0 0 -11 -2.75 0 0 -11 -2.74 0 0 -5.5 -2.76 0 0 -13.75 -2.75 0 0 -2.75 -2.74 0 0 -11 -2.76 0 0 -5.5 -2.75 0 0 -5.5 -2.75 0 0 -8.25 -2.75 0 0 -5.5 -2.75 0 0 -2.75 -2.74 0 0 -5.5 -2.76 0 0 -5.5 -2.75 0 0 -2.75 -2.75 0 0 -5.5 -2.75 0 0 -2.75 -2.75 0 0 -2.75 -2.75 0 0 -2.75 -2.75 0 0 -2.75 -2.75 0 0 -2.75 -5.5 0 0 -2.75 -5.5 0 0 -2.75 -13.74 0 0 2.75z"/>
 </g>
</svg>
