<!-- Creator: CorelDRAW (Versión de evaluación) -->
<svg xmlns="http://www.w3.org/2000/svg" xml:space="preserve" width="36.2406mm" height="173.699mm" version="1.1" style="shape-rendering:geometricPrecision; text-rendering:geometricPrecision; image-rendering:optimizeQuality; fill-rule:evenodd; clip-rule:evenodd"
viewBox="0 0 3624.06 17369.86"
 xmlns:xlink="http://www.w3.org/1999/xlink"
 xmlns:xodm="http://www.corel.com/coreldraw/odm/2003">
 <defs>
  <style type="text/css">
   <![CDATA[
    .fil2 {fill:#4B4B4D}
    .fil3 {fill:#FFCC29}
    .fil4 {fill:#F48884}
    .fil1 {fill:#F5EEDD}
    .fil0 {fill:#F8F9FD}
   ]]>
  </style>
 </defs>
 <g id="deciduous">
  <metadata id="CorelCorpID_0Corel-Layer"/>
  <path id="crown" class="fil0" d="M3385.43 16314.27c-7.71,76.23 -32.92,68.64 -52.92,135.88 -63.55,213.7 -99.98,236.31 -263.15,352.88 -64.03,45.74 -87.36,29.81 -154.49,60.73 -70.21,32.34 3.56,47.32 -138.28,57.11 -202.7,13.98 -121.77,18.81 -171.22,43.6 -92.27,46.25 -1592.14,17.14 -1817.06,17.92 -117.45,0.4 -235.16,-15.98 -350.43,-67.33 -149.16,-66.45 -310,-355.67 -241.3,-587.02 21.98,-74.04 44.31,8.38 41.8,-161.01 -0.97,-65.6 -12.92,-119.06 8.68,-171 16.84,-40.51 9.84,9.18 35.65,-61.72 15.82,-43.47 7.95,-33.94 13.78,-85.54l481.5 -1412.59c3.41,-8.87 22.16,-60.5 29.26,-74.1 110.49,-211.68 111.02,-210.48 240.03,-369.64 141.04,-174.01 76.4,-84.63 194.08,-196.57 58.77,-55.9 25.19,-51.93 126.64,-76.34 151.82,-36.54 279.38,-136.82 472.47,-136.56 71.18,0.1 142.36,-0.12 213.62,1.03 20.33,0.33 88.06,1.35 104.43,3.83 70.01,10.63 208.46,88.97 274.06,128.03 261.83,155.92 490.95,458.48 624.99,729.4 174.92,353.52 81.95,292.94 182.3,507l88.36 365.42c27.07,289.13 88.94,682.67 57.2,996.59z"/>
  <path id="root" class="fil1" d="M2721.54 13593.88c-178.36,-22.89 -276.81,-185.56 -572.72,-204.89 -261.96,-17.12 -254.64,-8.07 -491.2,10.45l-445.88 147.58c-111.85,40.92 -1.61,36.95 -106.86,52.1 -20.21,-60.91 -47.84,-315.02 -31.57,-389.52 30.33,-138.92 73.16,78.67 44.84,-349.41 -13.87,-209.74 57.81,-116.04 40.27,-358.43 -4.83,-66.66 -19.06,-144.79 -1.2,-205.63 15.71,-53.55 45.49,-70.34 44.05,-153.82 -8.27,-476.97 13.4,-187.47 33,-382.22 6.29,-62.48 -11.27,-148.6 -10.04,-211.24 1.95,-100.08 28.1,-67.76 44.17,-153.02 32.94,-174.85 -50.52,-45.85 40.71,-355.86 42.28,-143.66 -39.06,-128.21 41.02,-380.9 44.23,-139.56 -35.92,-61.09 41.67,-365.88 16.44,-64.6 6.61,-115.18 10.67,-186.04 6.89,-120.13 27.91,-77.31 37.9,-170.9 7.83,-73.44 -8.88,-106.9 16.68,-186.54 32.82,-102.27 18.7,-55.48 32.17,-168.6 10.93,-91.68 27.52,-46.08 41.86,-151.79 9.63,-71.07 10.01,-131.42 22.97,-207.21l153.17 -654.79c22.73,-57.65 24.43,-100.55 43.19,-157.68 17.05,-51.9 40.78,-90.18 63.55,-141.6 27.51,-62.08 73.28,-197.08 170.26,-254.99 59.52,29.91 116.26,154.32 150.97,218.65 71.93,133.3 32.13,107.02 86.48,200.2 34.75,59.56 12.77,-40.12 33.96,68.25 11.32,57.91 -3.62,99.58 14.87,164.98 25.24,89.25 39.4,28.5 53.12,149.41l36.77 548.64c47.87,197.99 50.11,-76.01 83.97,511.25l186.84 3178.39c26.5,141.35 29.06,33.07 59.35,149.23 17.53,67.22 26.26,309.04 30.99,391.83z"/>
  <path id="outline" class="fil2" d="M3385.43 16314.27c31.74,-313.92 -30.13,-707.46 -57.2,-996.59l-88.36 -365.42c-100.35,-214.06 -7.38,-153.48 -182.3,-507 -134.04,-270.92 -363.16,-573.48 -624.99,-729.4 -65.6,-39.06 -204.05,-117.4 -274.06,-128.03 -16.37,-2.48 -84.1,-3.5 -104.43,-3.83 -71.26,-1.15 -142.44,-0.93 -213.62,-1.03 -193.09,-0.26 -320.65,100.02 -472.47,136.56 -101.45,24.41 -67.87,20.44 -126.64,76.34 -117.68,111.94 -53.04,22.56 -194.08,196.57 -129.01,159.16 -129.54,157.96 -240.03,369.64 -7.1,13.6 -25.85,65.23 -29.26,74.1l-481.5 1412.59c-5.83,51.6 2.04,42.07 -13.78,85.54 -25.81,70.9 -18.81,21.21 -35.65,61.72 -21.6,51.94 -9.65,105.4 -8.68,171 2.51,169.39 -19.82,86.97 -41.8,161.01 -68.7,231.35 92.14,520.57 241.3,587.02 115.27,51.35 232.98,67.73 350.43,67.33 224.92,-0.78 1724.79,28.33 1817.06,-17.92 49.45,-24.79 -31.48,-29.62 171.22,-43.6 141.84,-9.79 68.07,-24.77 138.28,-57.11 67.13,-30.92 90.46,-14.99 154.49,-60.73 163.17,-116.57 199.6,-139.18 263.15,-352.88 20,-67.24 45.21,-59.65 52.92,-135.88zm-663.89 -2720.39c-4.73,-82.79 -13.46,-324.61 -30.99,-391.83 -30.29,-116.16 -32.85,-7.88 -59.35,-149.23l-186.84 -3178.39c-33.86,-587.26 -36.1,-313.26 -83.97,-511.25l-36.77 -548.64c-13.72,-120.91 -27.88,-60.16 -53.12,-149.41 -18.49,-65.4 -3.55,-107.07 -14.87,-164.98 -21.19,-108.37 0.79,-8.69 -33.96,-68.25 -54.35,-93.18 -14.55,-66.9 -86.48,-200.2 -34.71,-64.33 -91.45,-188.74 -150.97,-218.65 -96.98,57.91 -142.75,192.91 -170.26,254.99 -22.77,51.42 -46.5,89.7 -63.55,141.6 -18.76,57.13 -20.46,100.03 -43.19,157.68l-153.17 654.79c-12.96,75.79 -13.34,136.14 -22.97,207.21 -14.34,105.71 -30.93,60.11 -41.86,151.79 -13.47,113.12 0.65,66.33 -32.17,168.6 -25.56,79.64 -8.85,113.1 -16.68,186.54 -9.99,93.59 -31.01,50.77 -37.9,170.9 -4.06,70.86 5.77,121.44 -10.67,186.04 -77.59,304.79 2.56,226.32 -41.67,365.88 -80.08,252.69 1.26,237.24 -41.02,380.9 -91.23,310.01 -7.77,181.01 -40.71,355.86 -16.07,85.26 -42.22,52.94 -44.17,153.02 -1.23,62.64 16.33,148.76 10.04,211.24 -19.6,194.75 -41.27,-94.75 -33,382.22 1.44,83.48 -28.34,100.27 -44.05,153.82 -17.86,60.84 -3.63,138.97 1.2,205.63 17.54,242.39 -54.14,148.69 -40.27,358.43 28.32,428.08 -14.51,210.49 -44.84,349.41 -16.27,74.5 11.36,328.61 31.57,389.52 105.25,-15.15 -4.99,-11.18 106.86,-52.1l445.88 -147.58c236.56,-18.52 229.24,-27.57 491.2,-10.45 295.91,19.33 394.36,182 572.72,204.89zm-48.26 -3232.22l162.86 2708.36c33.02,112.9 42.14,-4.39 60.8,149.77l33.46 510 265.63 503.62c110.79,234.43 119.1,300.53 188.48,478.77 21.96,56.42 28.16,17.03 52.16,174.42 20.25,132.82 58.37,206.26 76.47,346.16 15.25,117.84 24.64,286.94 44.36,401.81 16.28,94.85 80.91,219.39 52.9,360.34 -19.86,99.96 -41.66,27.13 -39.32,148.07 1.33,68.56 8.65,155.14 3.05,207.57 -22.26,208.35 -87.54,393.33 -253.72,551.74 -10.02,9.56 -107.2,92.09 -111.16,94.85 -34.5,23.98 -24.51,15.04 -73.34,32.59 -191.58,68.86 12.86,57.63 -243.21,77.05 -111.5,8.46 -66.9,-0.66 -122.88,67.53 -223.54,6.76 -442.83,-3.1 -649.95,29.83 -229.14,36.43 -857.66,27.77 -1126.74,25.49 -210.82,-1.79 -121.06,-44.87 -532.32,-55.22 -104.61,-135.16 -7.68,-25.88 -144.87,-79.82 -97.21,-38.21 -225.22,-226.94 -272.64,-324.7 -50.86,-104.86 -57.78,-550.94 -43.53,-600.47 29.02,-100.91 45.98,1.69 48.6,-172.95 0.32,-21.25 -1.81,-41.84 0.96,-62.81 11.83,-89.65 31.17,-37.38 44.13,-131.53 34.75,-252.32 169.92,-663.5 250.99,-890.2 10.43,-29.14 21.95,-72.04 28.81,-91.47l315.65 -728.32c31.84,-68.6 43.63,-63.86 76.27,-143.49 67.75,-165.31 66.56,-64.36 82.89,-159.83 4.74,-27.79 0.62,-72.12 2.16,-101.61 1.59,-30.64 -0.8,-28.36 6.19,-57.07 36.68,-150.77 51.79,8.74 33.34,-260.11 -30.32,-441.82 11.79,-285 32.77,-430.87 20.39,-141.73 -40.59,-321.24 6.43,-439.27 80.87,-203.01 -14.79,-263.01 24.62,-438 22.69,-100.74 49.63,-23.81 44.23,-173.43 -2.61,-72.18 -21,-186.61 -11.57,-254.93 15.92,-115.33 46.33,-21.98 45.27,-169.33 -0.58,-81.44 -22.79,-171.63 -1.49,-249.02 22.22,-80.71 49.69,-32.97 44.96,-174.46 -11.52,-344.16 39.63,-88.74 35.79,-404.04 -1.93,-157.99 24.07,-102.58 42.74,-200.36 13.67,-71.6 -5.86,-145.07 7.37,-217.32 56.58,-308.87 -3.73,-243.44 69.61,-398.61 41.81,-88.46 5.1,-124.59 25.11,-214.9 26.05,-117.53 39.2,3.2 45.63,-175.04 4.5,-124.84 13.78,-94.49 37.43,-185.28l66.55 -399.45c64.1,-257.86 319.89,-1359.08 736.93,-1003.92 131.28,111.81 108.46,128.18 150.37,226.71l118.32 250.39c29.18,79.89 4.7,141.58 47.38,225.07 118.41,231.63 18.91,225.86 77.51,413.13 27.24,87.04 48.6,37.88 62.15,174.64l75.41 1229.92z"/>
 </g>
 <g id="pulpotomy" visibility="hidden">
  <metadata id="CorelCorpID_1Corel-Layer"/>
  <path id="crown_1463" class="fil0" d="M3385.43 16314.27c-7.71,76.23 -32.92,68.64 -52.92,135.88 -63.55,213.7 -99.98,236.31 -263.15,352.88 -64.03,45.74 -87.36,29.81 -154.49,60.73 -70.21,32.34 3.56,47.32 -138.28,57.11 -202.7,13.98 -121.77,18.81 -171.22,43.6 -92.27,46.25 -1592.14,17.14 -1817.06,17.92 -117.45,0.4 -235.16,-15.98 -350.43,-67.33 -149.16,-66.45 -310,-355.67 -241.3,-587.02 21.98,-74.04 44.31,8.38 41.8,-161.01 -0.97,-65.6 -12.92,-119.06 8.68,-171 16.84,-40.51 9.84,9.18 35.65,-61.72 15.82,-43.47 7.95,-33.94 13.78,-85.54l481.5 -1412.59c3.41,-8.87 22.16,-60.5 29.26,-74.1 110.49,-211.68 111.02,-210.48 240.03,-369.64 141.04,-174.01 76.4,-84.63 194.08,-196.57 58.77,-55.9 25.19,-51.93 126.64,-76.34 151.82,-36.54 279.38,-136.82 472.47,-136.56 71.18,0.1 142.36,-0.12 213.62,1.03 20.33,0.33 88.06,1.35 104.43,3.83 70.01,10.63 208.46,88.97 274.06,128.03 261.83,155.92 490.95,458.48 624.99,729.4 174.92,353.52 81.95,292.94 182.3,507l88.36 365.42c27.07,289.13 88.94,682.67 57.2,996.59z"/>
  <rect class="fil3" x="1454.35" y="12460.14" width="829.51" height="3158.27"/>
  <path id="root_1464" class="fil1" d="M2721.54 13593.88c-178.36,-22.89 -276.81,-185.56 -572.72,-204.89 -261.96,-17.12 -254.64,-8.07 -491.2,10.45l-445.88 147.58c-111.85,40.92 -1.61,36.95 -106.86,52.1 -20.21,-60.91 -47.84,-315.02 -31.57,-389.52 30.33,-138.92 73.16,78.67 44.84,-349.41 -13.87,-209.74 57.81,-116.04 40.27,-358.43 -4.83,-66.66 -19.06,-144.79 -1.2,-205.63 15.71,-53.55 45.49,-70.34 44.05,-153.82 -8.27,-476.97 13.4,-187.47 33,-382.22 6.29,-62.48 -11.27,-148.6 -10.04,-211.24 1.95,-100.08 28.1,-67.76 44.17,-153.02 32.94,-174.85 -50.52,-45.85 40.71,-355.86 42.28,-143.66 -39.06,-128.21 41.02,-380.9 44.23,-139.56 -35.92,-61.09 41.67,-365.88 16.44,-64.6 6.61,-115.18 10.67,-186.04 6.89,-120.13 27.91,-77.31 37.9,-170.9 7.83,-73.44 -8.88,-106.9 16.68,-186.54 32.82,-102.27 18.7,-55.48 32.17,-168.6 10.93,-91.68 27.52,-46.08 41.86,-151.79 9.63,-71.07 10.01,-131.42 22.97,-207.21l153.17 -654.79c22.73,-57.65 24.43,-100.55 43.19,-157.68 17.05,-51.9 40.78,-90.18 63.55,-141.6 27.51,-62.08 73.28,-197.08 170.26,-254.99 59.52,29.91 116.26,154.32 150.97,218.65 71.93,133.3 32.13,107.02 86.48,200.2 34.75,59.56 12.77,-40.12 33.96,68.25 11.32,57.91 -3.62,99.58 14.87,164.98 25.24,89.25 39.4,28.5 53.12,149.41l36.77 548.64c47.87,197.99 50.11,-76.01 83.97,511.25l186.84 3178.39c26.5,141.35 29.06,33.07 59.35,149.23 17.53,67.22 26.26,309.04 30.99,391.83z"/>
  <g id="_2385378868864">
   <path class="fil4" d="M1957.63 9218.66l-18.68 79.88c-9.28,59.98 -11.02,122.91 -19.24,183.48 -8.4,61.97 -20.85,115.41 -43.9,169.38 -9.43,78.74 -15.82,123.98 -41.71,206.75 -0.3,40.58 0.79,77.13 -3.75,119.71 -6.15,57.62 -17.02,106.72 -36.65,157.6 -4.92,94.7 4.44,151.26 -21.83,254.48 -7.59,29.8 -19.74,74.82 -22.96,107.85 14.35,102.43 7.35,177.95 -24.92,279.76 -6.04,19.09 -16.36,51.06 -18.54,72.21 10.03,116.78 15.22,180.91 -20.1,300.93 -7.5,25.47 -17.56,57.45 -24.18,86.63 12.93,77.67 8.27,148.19 -7.36,231.13 -8.39,44.51 -19.93,83.93 -36.25,122.29 3.88,69.12 14.92,129.24 6.93,208.63 -5.78,57.4 -16.29,112 -33.98,162.17 -0.85,57.89 1.95,119.82 2.89,173.98 1.76,101.42 -15.09,172.93 -51.86,257.94 1.9,26.52 6.28,55.52 8.05,79.99 9.74,134.65 3.95,230.42 -40.72,351.22 0.18,3.31 0.41,6.56 0.61,9.63 4.3,64.9 9.34,131.87 9.87,197.79l60.21 -19.93 47.45 -3.71c205.83,-16.12 337.07,-24.56 547.38,-10.82 20.62,1.35 40.95,3.2 61.02,5.54l-182.56 -3105.73c-4.98,-84.72 -7.22,-193.66 -18.35,-284.14 -24.96,-48.79 -41.4,-100.41 -55.32,-157.95l-7.86 -32.54 -13.69 -204.15z"/>
  </g>
  <path id="outline_1465" class="fil2" d="M3385.43 16314.27c31.74,-313.92 -30.13,-707.46 -57.2,-996.59l-88.36 -365.42c-100.35,-214.06 -7.38,-153.48 -182.3,-507 -134.04,-270.92 -363.16,-573.48 -624.99,-729.4 -65.6,-39.06 -204.05,-117.4 -274.06,-128.03 -16.37,-2.48 -84.1,-3.5 -104.43,-3.83 -71.26,-1.15 -142.44,-0.93 -213.62,-1.03 -193.09,-0.26 -320.65,100.02 -472.47,136.56 -101.45,24.41 -67.87,20.44 -126.64,76.34 -117.68,111.94 -53.04,22.56 -194.08,196.57 -129.01,159.16 -129.54,157.96 -240.03,369.64 -7.1,13.6 -25.85,65.23 -29.26,74.1l-481.5 1412.59c-5.83,51.6 2.04,42.07 -13.78,85.54 -25.81,70.9 -18.81,21.21 -35.65,61.72 -21.6,51.94 -9.65,105.4 -8.68,171 2.51,169.39 -19.82,86.97 -41.8,161.01 -68.7,231.35 92.14,520.57 241.3,587.02 115.27,51.35 232.98,67.73 350.43,67.33 224.92,-0.78 1724.79,28.33 1817.06,-17.92 49.45,-24.79 -31.48,-29.62 171.22,-43.6 141.84,-9.79 68.07,-24.77 138.28,-57.11 67.13,-30.92 90.46,-14.99 154.49,-60.73 163.17,-116.57 199.6,-139.18 263.15,-352.88 20,-67.24 45.21,-59.65 52.92,-135.88zm-663.89 -2720.39c-4.73,-82.79 -13.46,-324.61 -30.99,-391.83 -30.29,-116.16 -32.85,-7.88 -59.35,-149.23l-186.84 -3178.39c-33.86,-587.26 -36.1,-313.26 -83.97,-511.25l-36.77 -548.64c-13.72,-120.91 -27.88,-60.16 -53.12,-149.41 -18.49,-65.4 -3.55,-107.07 -14.87,-164.98 -21.19,-108.37 0.79,-8.69 -33.96,-68.25 -54.35,-93.18 -14.55,-66.9 -86.48,-200.2 -34.71,-64.33 -91.45,-188.74 -150.97,-218.65 -96.98,57.91 -142.75,192.91 -170.26,254.99 -22.77,51.42 -46.5,89.7 -63.55,141.6 -18.76,57.13 -20.46,100.03 -43.19,157.68l-153.17 654.79c-12.96,75.79 -13.34,136.14 -22.97,207.21 -14.34,105.71 -30.93,60.11 -41.86,151.79 -13.47,113.12 0.65,66.33 -32.17,168.6 -25.56,79.64 -8.85,113.1 -16.68,186.54 -9.99,93.59 -31.01,50.77 -37.9,170.9 -4.06,70.86 5.77,121.44 -10.67,186.04 -77.59,304.79 2.56,226.32 -41.67,365.88 -80.08,252.69 1.26,237.24 -41.02,380.9 -91.23,310.01 -7.77,181.01 -40.71,355.86 -16.07,85.26 -42.22,52.94 -44.17,153.02 -1.23,62.64 16.33,148.76 10.04,211.24 -19.6,194.75 -41.27,-94.75 -33,382.22 1.44,83.48 -28.34,100.27 -44.05,153.82 -17.86,60.84 -3.63,138.97 1.2,205.63 17.54,242.39 -54.14,148.69 -40.27,358.43 28.32,428.08 -14.51,210.49 -44.84,349.41 -16.27,74.5 11.36,328.61 31.57,389.52 105.25,-15.15 -4.99,-11.18 106.86,-52.1l445.88 -147.58c236.56,-18.52 229.24,-27.57 491.2,-10.45 295.91,19.33 394.36,182 572.72,204.89zm-48.26 -3232.22l162.86 2708.36c33.02,112.9 42.14,-4.39 60.8,149.77l33.46 510 265.63 503.62c110.79,234.43 119.1,300.53 188.48,478.77 21.96,56.42 28.16,17.03 52.16,174.42 20.25,132.82 58.37,206.26 76.47,346.16 15.25,117.84 24.64,286.94 44.36,401.81 16.28,94.85 80.91,219.39 52.9,360.34 -19.86,99.96 -41.66,27.13 -39.32,148.07 1.33,68.56 8.65,155.14 3.05,207.57 -22.26,208.35 -87.54,393.33 -253.72,551.74 -10.02,9.56 -107.2,92.09 -111.16,94.85 -34.5,23.98 -24.51,15.04 -73.34,32.59 -191.58,68.86 12.86,57.63 -243.21,77.05 -111.5,8.46 -66.9,-0.66 -122.88,67.53 -223.54,6.76 -442.83,-3.1 -649.95,29.83 -229.14,36.43 -857.66,27.77 -1126.74,25.49 -210.82,-1.79 -121.06,-44.87 -532.32,-55.22 -104.61,-135.16 -7.68,-25.88 -144.87,-79.82 -97.21,-38.21 -225.22,-226.94 -272.64,-324.7 -50.86,-104.86 -57.78,-550.94 -43.53,-600.47 29.02,-100.91 45.98,1.69 48.6,-172.95 0.32,-21.25 -1.81,-41.84 0.96,-62.81 11.83,-89.65 31.17,-37.38 44.13,-131.53 34.75,-252.32 169.92,-663.5 250.99,-890.2 10.43,-29.14 21.95,-72.04 28.81,-91.47l315.65 -728.32c31.84,-68.6 43.63,-63.86 76.27,-143.49 67.75,-165.31 66.56,-64.36 82.89,-159.83 4.74,-27.79 0.62,-72.12 2.16,-101.61 1.59,-30.64 -0.8,-28.36 6.19,-57.07 36.68,-150.77 51.79,8.74 33.34,-260.11 -30.32,-441.82 11.79,-285 32.77,-430.87 20.39,-141.73 -40.59,-321.24 6.43,-439.27 80.87,-203.01 -14.79,-263.01 24.62,-438 22.69,-100.74 49.63,-23.81 44.23,-173.43 -2.61,-72.18 -21,-186.61 -11.57,-254.93 15.92,-115.33 46.33,-21.98 45.27,-169.33 -0.58,-81.44 -22.79,-171.63 -1.49,-249.02 22.22,-80.71 49.69,-32.97 44.96,-174.46 -11.52,-344.16 39.63,-88.74 35.79,-404.04 -1.93,-157.99 24.07,-102.58 42.74,-200.36 13.67,-71.6 -5.86,-145.07 7.37,-217.32 56.58,-308.87 -3.73,-243.44 69.61,-398.61 41.81,-88.46 5.1,-124.59 25.11,-214.9 26.05,-117.53 39.2,3.2 45.63,-175.04 4.5,-124.84 13.78,-94.49 37.43,-185.28l66.55 -399.45c64.1,-257.86 319.89,-1359.08 736.93,-1003.92 131.28,111.81 108.46,128.18 150.37,226.71l118.32 250.39c29.18,79.89 4.7,141.58 47.38,225.07 118.41,231.63 18.91,225.86 77.51,413.13 27.24,87.04 48.6,37.88 62.15,174.64l75.41 1229.92z"/>
 </g>
</svg>