<?xml version="1.0" encoding="UTF-8"?>
<!DOCTYPE svg PUBLIC "-//W3C//DTD SVG 1.1//EN" "http://www.w3.org/Graphics/SVG/1.1/DTD/svg11.dtd">
<!-- Creator: CorelDRAW (Versión de evaluación) -->
<svg xmlns="http://www.w3.org/2000/svg" xml:space="preserve" width="498px" height="2052px" version="1.1" style="shape-rendering:geometricPrecision; text-rendering:geometricPrecision; image-rendering:optimizeQuality; fill-rule:evenodd; clip-rule:evenodd"
viewBox="0 0 498 2051.94"
 xmlns:xlink="http://www.w3.org/1999/xlink"
 xmlns:xodm="http://www.corel.com/coreldraw/odm/2003">
 <defs>
  <style type="text/css">
   <![CDATA[
    .fil2 {fill:#4B4B4D}
    .fil1 {fill:#F3EDD9}
    .fil0 {fill:#F8FBFF}
   ]]>
  </style>
 </defs>
 <g id="deciduous">
  <metadata id="CorelCorpID_0Corel-Layer"/>
  <path id="crown" class="fil0" d="M200.63 323.9c-23.52,11.95 -47.67,33.23 -75.84,50.02 -89.34,53.26 -126.02,52.41 -78.82,260.49 14.37,63.34 36.17,134.8 68,182.38 69.32,103.64 189.21,86.96 243.82,6.68 58.76,-86.4 87.79,-164.88 106.04,-273.13 6.84,-40.54 13.07,-75.3 -22.79,-93.98 -28.5,-14.85 -57.14,-26.33 -84.85,-40.16 -97.75,-48.79 -121.52,-109.59 -155.56,-92.3z"/>
  <path id="root" class="fil1" d="M188.76 1652.3c49.08,-28.3 99.91,-276.24 116.96,-351.37 30.45,-134.21 38.11,-277.69 40.2,-421.42 -19.86,3.83 -52.42,44.27 -115.66,39.4 -25.71,-1.98 -67.66,-19.7 -86.25,-32.06 -12.93,-8.6 -8.36,-8.73 -22.56,-15.13 -5.53,192.38 41.09,355.56 31.29,603.71 -2.28,57.55 -13.83,158.78 36.02,176.87z"/>
  <path id="outline" class="fil2" d="M188.76 1652.3c-49.85,-18.09 -38.3,-119.32 -36.02,-176.87 9.8,-248.15 -36.82,-411.33 -31.29,-603.71 14.2,6.4 9.63,6.53 22.56,15.13 18.59,12.36 60.54,30.08 86.25,32.06 63.24,4.87 95.8,-35.57 115.66,-39.4 -2.09,143.73 -9.75,287.21 -40.2,421.42 -17.05,75.13 -67.88,323.07 -116.96,351.37zm11.87 -1328.4c34.04,-17.29 57.81,43.51 155.56,92.3 27.71,13.83 56.35,25.31 84.85,40.16 35.86,18.68 29.63,53.44 22.79,93.98 -18.25,108.25 -47.28,186.73 -106.04,273.13 -54.61,80.28 -174.5,96.96 -243.82,-6.68 -31.83,-47.58 -53.63,-119.04 -68,-182.38 -47.2,-208.08 -10.52,-207.23 78.82,-260.49 28.17,-16.79 52.32,-38.07 75.84,-50.02zm-2.87 -29.14c-25.06,8.71 -50.56,33.91 -71.23,47.4 -77.06,50.27 -147.9,40.47 -121.4,224.82 25.15,174.96 79.17,240.94 85.05,269.57 4.73,22.97 2.36,89.35 3.29,118 4.77,147.03 34.81,285.09 33.4,437.54 -0.67,72.62 -29.83,270.42 56.31,288.86 64.33,13.78 104.89,-190.8 115.2,-233.37 7.86,-32.5 14.31,-63.68 21.72,-95.05 25.12,-106.36 43.9,-191.11 49.88,-307.67l4.76 -173.65c0.57,-28.26 1.08,-26.55 15.24,-44.73 40.6,-52.11 134.93,-271.39 99.81,-356.24 -20.17,-48.71 -80.66,-55.38 -145.92,-91.84 -64.71,-36.16 -97.12,-100.66 -146.11,-83.64z"/>
 </g>
</svg>
