<?xml version="1.0" encoding="UTF-8"?>
<!DOCTYPE svg PUBLIC "-//W3C//DTD SVG 1.1//EN" "http://www.w3.org/Graphics/SVG/1.1/DTD/svg11.dtd">
<!-- Creator: CorelDRAW (Versión de evaluación) -->
<svg xmlns="http://www.w3.org/2000/svg" xml:space="preserve" width="1044px" height="2062px" version="1.1" style="shape-rendering:geometricPrecision; text-rendering:geometricPrecision; image-rendering:optimizeQuality; fill-rule:evenodd; clip-rule:evenodd"
viewBox="0 0 1044 2063.16"
 xmlns:xlink="http://www.w3.org/1999/xlink"
 xmlns:xodm="http://www.corel.com/coreldraw/odm/2003">
 <defs>
  <style type="text/css">
   <![CDATA[
    .fil2 {fill:#4B4B4D}
    .fil1 {fill:#F3EDD9}
    .fil0 {fill:#F8FBFF}
   ]]>
  </style>
 </defs>
 <g id="deciduous">
  <metadata id="CorelCorpID_0Corel-Layer"/>
  <path id="crown" class="fil0" d="M492.09 1684.53c-6.98,-24.54 -29.46,-141.08 -1.44,-160.07l5.04 22.31c1.99,33.65 -0.86,34.82 5.86,77.04 5.41,34.01 11.88,58.1 33.28,74.92 35.46,27.87 109.93,46.12 156.88,63.87 103.48,39.1 50.48,45.68 145.46,-10.81 52.83,-31.43 91.53,-52.15 131.86,-89.08 86.1,-78.83 34.19,-237.45 -12.45,-331.69 -20.8,-42.02 -52.57,-112.8 -79.13,-141.66 -101.98,-110.8 -252.34,-27.87 -333.49,-14.32 -72.36,12.08 -139.96,-13.89 -206.86,-2.2 -52.99,9.27 -113.74,44.75 -142.7,73.78 -27.81,27.87 -55.89,101.45 -69.38,151.62 -43.74,162.67 -40.87,232.16 70.66,314.45 34.09,25.15 100.02,72.06 153.62,51.4 34.27,-13.21 121.28,-60.9 142.79,-79.56z"/>
  <path id="root" class="fil1" d="M120.1 296.4c-46.33,16.02 -81.06,147.89 -87.19,204.89 -9.74,90.54 -3.79,178.03 19.13,263.12 42.27,156.95 146.19,261.46 138.49,446.38 19.38,-8.1 42.92,-28.51 66.05,-39.69 125.46,-60.58 180.76,-8.34 283.39,-24.82 42.74,-6.86 101.89,-32.69 171.63,-41.16 34.32,-4.17 63.7,-0.39 94.03,9.82 34.37,11.57 49.41,27.58 73.08,36.07 9.74,-222.36 118.51,-475.32 48.79,-712.01 -13.84,-46.99 -56.12,-158.06 -108.85,-165.07 -2.14,46.02 13.33,77.29 16.42,119.07 3.01,40.75 -4.77,82.18 -9.97,120.97 -29.59,220.7 -78.69,225.26 -161.69,376.12 -90.84,165.07 -164.7,116.28 -301.34,-31.51 -11.9,-12.87 -23.08,-18.69 -36.33,-30.45 -7.66,-6.79 -8.64,-8.73 -16.61,-16.62 -38.01,-37.67 -38.17,-27.74 -82.29,-88.82 -156.76,-217.06 -89.92,-343.68 -106.74,-426.29zm353.87 -4.93c-20.49,11.58 -27.82,52.58 -35.55,81.83 -23,87.08 -46.91,323.01 -55.33,423.44 -4.26,50.77 11.78,60.3 36.55,83.42 27.41,25.57 104.16,104.17 148.93,81.94 21.86,-10.85 42.78,-38.89 55.62,-61.05 8.2,-14.16 41.29,-66.61 42.46,-79.66 2.59,-29 -55.02,-146.91 -68.59,-173.87 -41.09,-81.59 -61.98,-181.43 -86,-272.15 -8.33,-31.49 -15.31,-72.93 -38.09,-83.9z"/>
  <path id="outline" class="fil2" d="M492.09 1684.53c-21.51,18.66 -108.52,66.35 -142.79,79.56 -53.6,20.66 -119.53,-26.25 -153.62,-51.4 -111.53,-82.29 -114.4,-151.78 -70.66,-314.45 13.49,-50.17 41.57,-123.75 69.38,-151.62 28.96,-29.03 89.71,-64.51 142.7,-73.78 66.9,-11.69 134.5,14.28 206.86,2.2 81.15,-13.55 231.51,-96.48 333.49,14.32 26.56,28.86 58.33,99.64 79.13,141.66 46.64,94.24 98.55,252.86 12.45,331.69 -40.33,36.93 -79.03,57.65 -131.86,89.08 -94.98,56.49 -41.98,49.91 -145.46,10.81 -46.95,-17.75 -121.42,-36 -156.88,-63.87 -21.4,-16.82 -27.87,-40.91 -33.28,-74.92 -6.72,-42.22 -3.87,-43.39 -5.86,-77.04l-5.04 -22.31c-28.02,18.99 -5.54,135.53 1.44,160.07zm-18.12 -1393.06c22.78,10.97 29.76,52.41 38.09,83.9 24.02,90.72 44.91,190.56 86,272.15 13.57,26.96 71.18,144.87 68.59,173.87 -1.17,13.05 -34.26,65.5 -42.46,79.66 -12.84,22.16 -33.76,50.2 -55.62,61.05 -44.77,22.23 -121.52,-56.37 -148.93,-81.94 -24.77,-23.12 -40.81,-32.65 -36.55,-83.42 8.42,-100.43 32.33,-336.36 55.33,-423.44 7.73,-29.25 15.06,-70.25 35.55,-81.83zm-353.87 4.93c16.82,82.61 -50.02,209.23 106.74,426.29 44.12,61.08 44.28,51.15 82.29,88.82 7.97,7.89 8.95,9.83 16.61,16.62 13.25,11.76 24.43,17.58 36.33,30.45 136.64,147.79 210.5,196.58 301.34,31.51 83,-150.86 132.1,-155.42 161.69,-376.12 5.2,-38.79 12.98,-80.22 9.97,-120.97 -3.09,-41.78 -18.56,-73.05 -16.42,-119.07 52.73,7.01 95.01,118.08 108.85,165.07 69.72,236.69 -39.05,489.65 -48.79,712.01 -23.67,-8.49 -38.71,-24.5 -73.08,-36.07 -30.33,-10.21 -59.71,-13.99 -94.03,-9.82 -69.74,8.47 -128.89,34.3 -171.63,41.16 -102.63,16.48 -157.93,-35.76 -283.39,24.82 -23.13,11.18 -46.67,31.59 -66.05,39.69 7.7,-184.92 -96.22,-289.43 -138.49,-446.38 -22.92,-85.09 -28.87,-172.58 -19.13,-263.12 6.13,-57 40.86,-188.87 87.19,-204.89zm571.9 497.53c-8.96,-8.42 -45.65,-108.59 -53.27,-124.49 -19.45,-40.56 -36.87,-79.32 -51.57,-123.5 -18.45,-55.48 -59.02,-239.83 -83.44,-270.84 -17.59,-22.33 -44.08,-12.15 -58.35,5.32 -54.92,67.3 -86.96,461.9 -87.51,534.91 -115.24,-79.38 -208.43,-236.45 -211.3,-389.45 -0.81,-43.08 22.43,-166.5 -34.52,-158.65 -30.01,4.13 -69.09,83.79 -81.79,119.09 -39.44,109.62 -37.29,244.96 -12.28,358.17 16.4,74.23 52.5,151.33 85.9,218.14 38.27,76.56 59.95,147.95 60.81,238.44 0.45,46.52 -26.04,79.99 -52.17,146.97 -16.9,43.33 -33.58,115.25 -38.89,165.54 -8.09,76.51 5.27,112.44 40.61,159.76 24.54,32.86 69.81,67.5 109.89,90.1 141.94,80.03 163.39,-0.56 282.63,-52.63 53.01,48.05 136.65,56.97 211.27,92.46 30.04,14.29 47.17,27.36 80.13,5.29 84.59,-56.64 192.08,-97.18 230.81,-181.77 41.93,-91.58 -14.26,-247.38 -54.2,-322.25 -13.89,-26.05 -67.25,-117.13 -68.26,-136.61 -7.08,-137.14 69,-337.76 71.08,-546.31 1.18,-118.32 -27.2,-244.63 -86.11,-325.83 -53.97,-74.4 -102.91,-64.93 -96.79,9.05 6.62,80.06 18.67,96.28 6.26,184.77 -14.3,101.99 -21.29,154.38 -69.16,239.83 -13.23,23.6 -30.81,43.54 -39.78,64.49z"/>
 </g>
</svg>
