<?xml version="1.0" encoding="UTF-8"?>
<!DOCTYPE svg PUBLIC "-//W3C//DTD SVG 1.1//EN" "http://www.w3.org/Graphics/SVG/1.1/DTD/svg11.dtd">
<!-- Creator: CorelDRAW (Versión de evaluación) -->
<svg xmlns="http://www.w3.org/2000/svg" xml:space="preserve" width="875px" height="2052px" version="1.1" style="shape-rendering:geometricPrecision; text-rendering:geometricPrecision; image-rendering:optimizeQuality; fill-rule:evenodd; clip-rule:evenodd"
viewBox="0 0 875 2051.96"
 xmlns:xlink="http://www.w3.org/1999/xlink"
 xmlns:xodm="http://www.corel.com/coreldraw/odm/2003">
 <defs>
  <style type="text/css">
   <![CDATA[
    .fil2 {fill:#060806}
    .fil0 {fill:#F3EDD9}
    .fil1 {fill:#F8FBFF}
   ]]>
  </style>
 </defs>
 <g id="deciduous">
  <metadata id="CorelCorpID_0Corel-Layer"/>
  <polygon id="root" class="fil0" points="123.4,830.84 126.15,830.84 126.15,847.35 128.9,847.35 128.9,874.87 131.65,874.87 131.65,960.16 128.9,960.16 128.9,995.93 126.15,995.93 126.15,1012.44 123.4,1012.44 123.4,1034.46 120.65,1034.46 120.65,1050.96 117.9,1050.96 117.9,1061.97 115.14,1061.97 115.14,1078.48 112.39,1078.48 112.39,1094.99 109.64,1094.99 109.64,1106 106.89,1106 106.89,1117 104.14,1117 104.14,1128.01 101.39,1128.01 101.39,1139.02 98.64,1139.02 98.64,1150.02 95.88,1150.02 95.88,1163.78 93.13,1163.78 93.13,1172.03 90.38,1172.03 90.38,1183.04 87.63,1183.04 87.63,1188.54 84.88,1188.54 84.88,1202.3 82.13,1202.3 82.13,1210.56 79.37,1210.56 79.37,1218.81 76.62,1218.81 76.62,1229.82 73.87,1229.82 73.87,1243.58 71.12,1243.58 71.12,1249.08 68.37,1249.08 68.37,1260.09 65.62,1260.09 65.62,1268.34 62.86,1268.34 62.86,1282.1 60.11,1282.1 60.11,1293.1 57.36,1293.1 57.36,1304.11 54.61,1304.11 54.61,1309.62 51.86,1309.62 51.86,1326.12 49.11,1326.12 49.11,1337.13 46.35,1337.13 46.35,1345.38 43.61,1345.38 43.61,1364.65 40.85,1364.65 40.85,1381.15 38.1,1381.15 38.1,1392.16 35.35,1392.16 35.35,1403.17 32.6,1403.17 32.6,1425.18 29.85,1425.18 29.85,1436.19 27.1,1436.19 27.1,1452.69 24.34,1452.69 24.34,1491.22 21.59,1491.22 21.59,1573.77 24.34,1573.77 24.34,1609.53 27.1,1609.53 27.1,1628.8 29.85,1628.8 29.85,1645.31 32.6,1645.31 32.6,1656.31 35.35,1656.31 35.35,1667.32 38.1,1667.32 38.1,1678.33 40.85,1678.33 40.85,1683.83 43.61,1683.83 43.61,1692.08 46.35,1692.08 46.35,1697.59 49.11,1697.59 49.11,1703.09 51.86,1703.09 51.86,1705.84 54.61,1705.84 54.61,1708.59 57.36,1708.59 57.36,1711.34 60.11,1711.34 60.11,1714.1 82.13,1714.1 82.13,1711.34 87.63,1711.34 87.63,1708.59 93.13,1708.59 93.13,1705.84 95.88,1705.84 95.88,1703.09 98.64,1703.09 98.64,1700.34 101.39,1700.34 101.39,1697.59 104.14,1697.59 104.14,1694.84 106.89,1694.84 106.89,1689.33 109.64,1689.33 109.64,1686.58 112.39,1686.58 112.39,1683.83 115.14,1683.83 115.14,1678.33 117.9,1678.33 117.9,1672.82 120.65,1672.82 120.65,1670.07 123.4,1670.07 123.4,1664.57 126.15,1664.57 126.15,1659.06 128.9,1659.06 128.9,1653.56 131.65,1653.56 131.65,1648.06 134.41,1648.06 134.41,1639.81 137.16,1639.81 137.16,1634.3 139.91,1634.3 139.91,1628.8 142.66,1628.8 142.66,1620.54 145.41,1620.54 145.41,1612.29 148.16,1612.29 148.16,1606.79 150.92,1606.79 150.92,1598.53 153.67,1598.53 153.67,1590.28 156.42,1590.28 156.42,1582.02 159.17,1582.02 159.17,1576.52 161.92,1576.52 161.92,1568.26 164.67,1568.26 164.67,1560.01 167.43,1560.01 167.43,1551.75 170.18,1551.75 170.18,1540.75 172.93,1540.75 172.93,1535.24 175.68,1535.24 175.68,1524.24 178.43,1524.24 178.43,1515.98 181.18,1515.98 181.18,1507.73 183.94,1507.73 183.94,1499.47 186.69,1499.47 186.69,1491.22 189.44,1491.22 189.44,1482.96 192.19,1482.96 192.19,1474.71 194.94,1474.71 194.94,1466.46 197.69,1466.46 197.69,1455.45 200.45,1455.45 200.45,1447.19 203.19,1447.19 203.19,1441.69 205.95,1441.69 205.95,1436.19 208.7,1436.19 208.7,1422.43 211.45,1422.43 211.45,1419.68 214.2,1419.68 214.2,1408.67 216.95,1408.67 216.95,1403.17 219.7,1403.17 219.7,1394.91 222.46,1394.91 222.46,1386.66 225.21,1386.66 225.21,1378.4 227.96,1378.4 227.96,1372.9 230.71,1372.9 230.71,1364.65 233.46,1364.65 233.46,1359.14 236.21,1359.14 236.21,1353.64 238.97,1353.64 238.97,1348.14 241.72,1348.14 241.72,1339.88 244.47,1339.88 244.47,1334.38 247.22,1334.38 247.22,1328.87 249.97,1328.87 249.97,1323.37 252.72,1323.37 252.72,1317.87 255.48,1317.87 255.48,1312.36 258.23,1312.36 258.23,1306.86 260.98,1306.86 260.98,1301.36 263.73,1301.36 263.73,1295.86 266.48,1295.86 266.48,1290.35 269.23,1290.35 269.23,1284.85 271.99,1284.85 271.99,1279.34 274.74,1279.34 274.74,1273.84 277.49,1273.84 277.49,1268.34 280.24,1268.34 280.24,1262.84 282.99,1262.84 282.99,1257.33 285.74,1257.33 285.74,1251.83 288.49,1251.83 288.49,1246.33 291.25,1246.33 291.25,1243.58 294,1243.58 294,1238.07 296.75,1238.07 296.75,1232.57 299.5,1232.57 299.5,1227.07 302.25,1227.07 302.25,1221.56 305,1221.56 305,1218.81 307.76,1218.81 307.76,1213.31 310.51,1213.31 310.51,1207.81 313.26,1207.81 313.26,1205.05 316.01,1205.05 316.01,1199.55 318.76,1199.55 318.76,1194.05 321.51,1194.05 321.51,1191.3 324.27,1191.3 324.27,1185.79 327.02,1185.79 327.02,1180.29 329.77,1180.29 329.77,1177.54 332.52,1177.54 332.52,1172.03 335.27,1172.03 335.27,1169.28 338.02,1169.28 338.02,1163.78 340.78,1163.78 340.78,1161.03 343.52,1161.03 343.52,1155.52 346.28,1155.52 346.28,1150.02 349.03,1150.02 349.03,1147.27 351.78,1147.27 351.78,1141.77 354.53,1141.77 354.53,1139.02 357.29,1139.02 357.29,1133.51 360.04,1133.51 360.04,1130.76 362.79,1130.76 362.79,1128.01 365.54,1128.01 365.54,1125.26 368.29,1125.26 368.29,1119.76 371.04,1119.76 371.04,1117 373.8,1117 373.8,1114.25 376.54,1114.25 376.54,1111.5 379.3,1111.5 379.3,1108.75 382.05,1108.75 382.05,1106 384.8,1106 384.8,1103.25 387.55,1103.25 387.55,1100.49 390.3,1100.49 390.3,1097.74 395.81,1097.74 395.81,1094.99 398.56,1094.99 398.56,1092.24 404.06,1092.24 404.06,1089.49 406.81,1089.49 406.81,1086.74 412.32,1086.74 412.32,1083.98 420.57,1083.98 420.57,1081.23 448.09,1081.23 448.09,1083.98 450.84,1083.98 450.84,1086.74 456.34,1086.74 456.34,1089.49 461.84,1089.49 461.84,1092.24 464.6,1092.24 464.6,1094.99 467.35,1094.99 467.35,1097.74 470.1,1097.74 470.1,1100.49 472.85,1100.49 472.85,1103.25 475.6,1103.25 475.6,1106 478.35,1106 478.35,1108.75 481.11,1108.75 481.11,1111.5 483.86,1111.5 483.86,1117 486.61,1117 486.61,1119.76 489.36,1119.76 489.36,1125.26 492.11,1125.26 492.11,1130.76 494.86,1130.76 494.86,1136.27 497.62,1136.27 497.62,1141.77 500.37,1141.77 500.37,1147.27 503.12,1147.27 503.12,1152.77 505.87,1152.77 505.87,1158.28 508.62,1158.28 508.62,1166.53 511.37,1166.53 511.37,1174.79 514.13,1174.79 514.13,1183.04 516.88,1183.04 516.88,1188.54 519.63,1188.54 519.63,1199.55 522.38,1199.55 522.38,1207.81 525.13,1207.81 525.13,1218.81 527.88,1218.81 527.88,1232.57 530.64,1232.57 530.64,1243.58 533.38,1243.58 533.38,1260.09 536.14,1260.09 536.14,1276.6 538.89,1276.6 538.89,1298.61 541.64,1298.61 541.64,1315.12 544.39,1315.12 544.39,1405.92 541.64,1405.92 541.64,1452.69 538.89,1452.69 538.89,1480.21 536.14,1480.21 536.14,1502.22 533.38,1502.22 533.38,1524.24 530.64,1524.24 530.64,1535.24 527.88,1535.24 527.88,1554.5 525.13,1554.5 525.13,1568.26 522.38,1568.26 522.38,1576.52 519.63,1576.52 519.63,1595.78 516.88,1595.78 516.88,1606.79 514.13,1606.79 514.13,1615.04 511.37,1615.04 511.37,1634.3 508.62,1634.3 508.62,1645.31 505.87,1645.31 505.87,1653.56 503.12,1653.56 503.12,1667.32 500.37,1667.32 500.37,1683.83 497.62,1683.83 497.62,1700.34 494.86,1700.34 494.86,1749.87 497.62,1749.87 497.62,1758.12 500.37,1758.12 500.37,1763.63 503.12,1763.63 503.12,1766.38 505.87,1766.38 505.87,1771.88 511.37,1771.88 511.37,1774.63 536.14,1774.63 536.14,1771.88 544.39,1771.88 544.39,1769.13 549.89,1769.13 549.89,1766.38 555.4,1766.38 555.4,1763.63 558.15,1763.63 558.15,1760.87 563.65,1760.87 563.65,1758.12 566.4,1758.12 566.4,1755.37 569.16,1755.37 569.16,1752.62 571.91,1752.62 571.91,1749.87 574.66,1749.87 574.66,1747.12 577.41,1747.12 577.41,1744.36 580.16,1744.36 580.16,1741.61 582.91,1741.61 582.91,1738.86 585.67,1738.86 585.67,1736.11 588.42,1736.11 588.42,1733.36 591.17,1733.36 591.17,1730.61 593.92,1730.61 593.92,1727.85 596.67,1727.85 596.67,1722.35 599.42,1722.35 599.42,1719.6 602.18,1719.6 602.18,1716.85 604.93,1716.85 604.93,1711.34 607.68,1711.34 607.68,1708.59 610.43,1708.59 610.43,1705.84 613.18,1705.84 613.18,1700.34 615.93,1700.34 615.93,1697.59 618.68,1697.59 618.68,1692.08 621.44,1692.08 621.44,1689.33 624.19,1689.33 624.19,1683.83 626.94,1683.83 626.94,1681.08 629.69,1681.08 629.69,1675.57 632.44,1675.57 632.44,1670.07 635.19,1670.07 635.19,1667.32 637.95,1667.32 637.95,1661.82 640.7,1661.82 640.7,1656.31 643.45,1656.31 643.45,1650.81 646.2,1650.81 646.2,1645.31 648.95,1645.31 648.95,1639.81 651.7,1639.81 651.7,1637.05 654.46,1637.05 654.46,1628.8 657.21,1628.8 657.21,1623.29 659.96,1623.29 659.96,1617.79 662.71,1617.79 662.71,1612.29 665.46,1612.29 665.46,1606.79 668.21,1606.79 668.21,1601.28 670.97,1601.28 670.97,1595.78 673.71,1595.78 673.71,1587.52 676.47,1587.52 676.47,1579.27 679.22,1579.27 679.22,1576.52 681.97,1576.52 681.97,1568.26 684.72,1568.26 684.72,1562.76 687.48,1562.76 687.48,1554.5 690.23,1554.5 690.23,1546.25 692.98,1546.25 692.98,1540.75 695.73,1540.75 695.73,1532.49 698.48,1532.49 698.48,1526.99 701.23,1526.99 701.23,1515.98 703.98,1515.98 703.98,1510.48 706.73,1510.48 706.73,1502.22 709.49,1502.22 709.49,1493.97 712.24,1493.97 712.24,1485.71 714.99,1485.71 714.99,1474.71 717.74,1474.71 717.74,1466.46 720.49,1466.46 720.49,1460.95 723.24,1460.95 723.24,1449.95 726,1449.95 726,1438.94 728.75,1438.94 728.75,1433.44 731.5,1433.44 731.5,1419.68 734.25,1419.68 734.25,1414.17 737,1414.17 737,1400.42 739.75,1400.42 739.75,1389.41 742.51,1389.41 742.51,1378.4 745.26,1378.4 745.26,1367.4 748.01,1367.4 748.01,1348.14 750.76,1348.14 750.76,1326.12 753.51,1326.12 753.51,1306.86 756.26,1306.86 756.26,1290.35 759.02,1290.35 759.02,1117 756.26,1117 756.26,1100.49 753.51,1100.49 753.51,1056.47 750.76,1056.47 750.76,921.64 753.51,921.64 753.51,891.38 756.26,891.38 756.26,880.37 759.02,880.37 759.02,855.6 761.77,855.6 761.77,839.09 764.52,839.09 764.52,833.59 767.27,833.59 767.27,825.34 761.77,825.34 761.77,828.09 759.02,828.09 759.02,830.84 753.51,830.84 753.51,833.59 750.76,833.59 750.76,836.34 745.26,836.34 745.26,839.09 737,839.09 737,841.85 731.5,841.85 731.5,844.6 717.74,844.6 717.74,847.35 679.22,847.35 679.22,850.1 632.44,850.1 632.44,852.85 615.93,852.85 615.93,855.6 607.68,855.6 607.68,858.36 588.42,858.36 588.42,861.11 577.41,861.11 577.41,863.86 560.9,863.86 560.9,866.61 544.39,866.61 544.39,869.36 522.38,869.36 522.38,872.11 426.07,872.11 426.07,869.36 401.31,869.36 401.31,866.61 387.55,866.61 387.55,863.86 373.8,863.86 373.8,861.11 357.29,861.11 357.29,858.36 340.78,858.36 340.78,855.6 307.76,855.6 307.76,852.85 244.47,852.85 244.47,850.1 216.95,850.1 216.95,847.35 200.45,847.35 200.45,844.6 183.94,844.6 183.94,841.85 172.93,841.85 172.93,839.09 167.43,839.09 167.43,836.34 159.17,836.34 159.17,833.59 150.92,833.59 150.92,830.84 145.41,830.84 145.41,828.09 139.91,828.09 139.91,825.34 134.41,825.34 134.41,822.58 131.65,822.58 131.65,819.83 126.15,819.83 126.15,817.08 123.4,817.08 "/>
  <path id="crown" class="fil1" d="M679.22 332.81l-5.51 0 0 2.74 -8.25 0 0 2.76 -8.25 0 0 2.75 -5.51 0 0 2.75 -5.5 0 0 2.75 -5.5 0 0 2.75 -2.75 0 0 2.75 -5.51 0 0 2.76 -5.5 0 0 2.75 -5.5 0 0 2.75 -5.51 0 0 2.75 -5.5 0 0 2.75 -5.5 0 0 2.75 -5.51 0 0 2.76 -5.5 0 0 2.75 -8.25 0 0 2.75 -5.51 0 0 2.75 -5.5 0 0 2.75 -8.26 0 0 2.75 -5.5 0 0 2.76 -8.25 0 0 2.75 -5.51 0 0 2.75 -8.25 0 0 2.75 -5.51 0 0 2.75 -5.5 0 0 2.75 -5.5 0 0 2.76 -5.5 0 0 2.75 -5.51 0 0 2.75 -5.5 0 0 2.75 -2.75 0 0 2.75 -5.5 0 0 2.75 -2.76 0 0 2.76 -2.75 0 0 2.75 -2.75 0 0 2.75 -5.5 0 0 5.5 -2.75 0 0 2.75 -2.76 0 0 2.75 -2.75 0 0 11.01 2.75 0 0 11.01 2.76 0 0 57.78 -2.76 0 0 11.01 -2.75 0 0 5.5 -5.5 0 0 -49.53 -2.75 0 0 -16.51 -2.75 0 0 -8.25 -2.76 0 0 -8.26 -2.75 0 0 -5.5 -2.75 0 0 -5.5 -2.75 0 0 -2.76 -2.75 0 0 -2.75 -2.75 0 0 -5.5 -2.76 0 0 -2.75 -5.5 0 0 -2.75 -2.75 0 0 -2.75 -5.5 0 0 -2.76 -5.51 0 0 -2.75 -11 0 0 -2.75 -8.26 0 0 -2.75 -8.25 0 0 -2.75 -8.26 0 0 -2.75 -8.25 0 0 -2.76 -11.01 0 0 -2.75 -5.5 0 0 -2.75 -8.25 0 0 -2.75 -5.51 0 0 -2.75 -8.26 0 0 -2.75 -5.5 0 0 -2.76 -5.5 0 0 -2.75 -5.5 0 0 -2.75 -5.51 0 0 -2.75 -8.25 0 0 -2.75 -5.5 0 0 -2.75 -5.51 0 0 -2.76 -5.5 0 0 -2.75 -11.01 0 0 -2.75 -11 0 0 -2.75 -44.03 0 0 2.75 -5.5 0 0 2.75 -8.26 0 0 2.75 -5.5 0 0 2.76 -5.5 0 0 2.75 -2.76 0 0 2.75 -5.5 0 0 2.75 -2.75 0 0 2.75 -2.75 0 0 2.75 -2.75 0 0 2.76 -2.75 0 0 2.75 -2.75 0 0 2.75 -2.76 0 0 2.75 -2.75 0 0 5.5 -2.75 0 0 2.76 -2.75 0 0 5.5 -2.75 0 0 2.75 -2.75 0 0 5.5 -2.76 0 0 5.51 -2.75 0 0 5.5 -2.75 0 0 5.5 -2.75 0 0 5.51 -2.75 0 0 5.5 -2.75 0 0 5.5 -2.76 0 0 5.5 -2.75 0 0 8.26 -2.75 0 0 8.25 -2.75 0 0 5.51 -2.75 0 0 13.76 -2.75 0 0 8.25 -2.76 0 0 2.75 -2.75 0 0 -19.26 2.75 0 0 -11.01 2.76 0 0 -24.76 2.75 0 0 -5.5 2.75 0 0 -11.01 2.75 0 0 -5.5 2.75 0 0 -8.26 2.75 0 0 -8.25 2.76 0 0 -5.5 2.75 0 0 -5.51 2.75 0 0 -2.75 2.75 0 0 -5.5 2.75 0 0 -2.75 2.75 0 0 -5.51 2.76 0 0 -2.75 2.75 0 0 -2.75 2.75 0 0 -2.75 2.75 0 0 -2.75 2.75 0 0 -2.76 2.75 0 0 -2.75 2.76 0 0 -2.75 2.75 0 0 -2.75 2.75 0 0 -2.75 2.75 0 0 -2.75 5.5 0 0 -2.76 2.76 0 0 -2.75 5.5 0 0 -2.75 2.75 0 0 -2.75 8.25 0 0 -2.75 -2.75 0 0 -2.75 -5.5 0 0 -2.76 -16.51 0 0 -2.74 -46.78 0 0 2.74 -8.25 0 0 2.76 -5.51 0 0 2.75 -5.5 0 0 2.75 -5.5 0 0 2.75 -5.51 0 0 2.75 -2.75 0 0 2.75 -2.75 0 0 2.76 -5.5 0 0 2.75 -2.75 0 0 2.75 -2.75 0 0 2.75 -2.76 0 0 2.75 -2.75 0 0 2.75 -2.75 0 0 2.76 -2.75 0 0 5.5 -2.75 0 0 2.75 -2.75 0 0 5.5 -2.76 0 0 2.76 -2.75 0 0 5.5 -2.75 0 0 5.5 -2.75 0 0 5.51 -2.75 0 0 5.5 -2.75 0 0 8.25 -2.76 0 0 8.26 -2.75 0 0 8.25 -2.75 0 0 5.51 -2.75 0 0 11 -2.75 0 0 16.51 -2.75 0 0 8.26 -2.76 0 0 24.76 -2.74 0 0 55.03 2.74 0 0 13.76 2.76 0 0 19.26 2.75 0 0 11.01 2.75 0 0 16.51 2.75 0 0 8.25 2.75 0 0 11.01 2.75 0 0 8.25 2.76 0 0 8.26 2.75 0 0 8.25 2.75 0 0 8.26 2.75 0 0 5.5 2.75 0 0 8.25 2.75 0 0 8.26 2.76 0 0 8.25 2.75 0 0 8.26 2.75 0 0 8.25 2.75 0 0 5.51 2.75 0 0 8.25 2.75 0 0 8.25 2.76 0 0 5.51 2.75 0 0 8.25 2.75 0 0 5.51 2.75 0 0 5.5 2.75 0 0 5.5 2.75 0 0 5.51 2.75 0 0 2.75 2.76 0 0 5.5 2.75 0 0 2.75 2.75 0 0 2.75 2.75 0 0 2.76 2.75 0 0 2.75 2.75 0 0 2.75 2.76 0 0 2.75 5.5 0 0 2.75 2.75 0 0 2.75 5.5 0 0 2.76 5.51 0 0 2.75 5.5 0 0 2.75 5.5 0 0 2.75 8.26 0 0 2.75 11.01 0 0 2.75 13.75 0 0 2.75 11.01 0 0 2.76 22.01 0 0 2.75 55.03 0 0 2.75 41.28 0 0 2.75 19.26 0 0 2.75 22.01 0 0 2.75 16.51 0 0 2.76 11.01 0 0 2.75 22.01 0 0 2.75 33.02 0 0 2.75 60.53 0 0 -2.75 19.27 0 0 -2.75 22.01 0 0 -2.75 5.5 0 0 -2.76 22.01 0 0 -2.75 11.01 0 0 -2.75 16.51 0 0 -2.75 22.01 0 0 -2.75 16.51 0 0 -2.75 68.79 0 0 -2.76 11.01 0 0 -2.75 5.5 0 0 -2.75 5.5 0 0 -2.75 5.51 0 0 -2.75 2.75 0 0 -2.75 5.5 0 0 -2.75 2.75 0 0 -2.76 2.75 0 0 -2.75 2.76 0 0 -2.75 2.75 0 0 -2.75 2.75 0 0 -5.5 2.75 0 0 -2.76 2.75 0 0 -2.75 2.75 0 0 -2.75 2.75 0 0 -5.5 2.76 0 0 -5.51 2.75 0 0 -5.5 2.75 0 0 -5.5 2.75 0 0 -5.51 2.75 0 0 -5.5 2.75 0 0 -5.5 2.76 0 0 -8.26 2.75 0 0 -5.5 2.75 0 0 -8.25 2.75 0 0 -5.51 2.75 0 0 -5.5 2.75 0 0 -11.01 2.76 0 0 -5.5 2.75 0 0 -8.25 2.75 0 0 -5.51 2.75 0 0 -8.25 2.75 0 0 -8.26 2.75 0 0 -8.25 2.76 0 0 -5.5 2.75 0 0 -8.26 2.75 0 0 -13.76 2.75 0 0 -8.25 2.75 0 0 -13.76 2.75 0 0 -8.26 2.75 0 0 -19.26 2.75 0 0 -16.5 2.76 0 0 -60.54 -2.76 0 0 -11.01 -2.75 0 0 -16.51 -2.75 0 0 -11 -2.75 0 0 -5.51 -2.75 0 0 -8.25 -2.75 0 0 -8.25 -2.75 0 0 -5.51 -2.75 0 0 -5.5 -2.76 0 0 -5.5 -2.75 0 0 -5.51 -2.75 0 0 -5.5 -2.75 0 0 -2.75 -2.75 0 0 -5.5 -2.75 0 0 -2.76 -2.76 0 0 -5.5 -2.75 0 0 -2.75 -2.75 0 0 -2.75 -2.75 0 0 -5.51 -2.75 0 0 -2.75 -2.75 0 0 -2.75 -2.76 0 0 -2.75 -2.75 0 0 -2.75 -2.75 0 0 -2.75 -2.75 0 0 -2.76 -2.75 0 0 -5.5 -5.51 0 0 -2.75 -2.75 0 0 -2.75 -2.75 0 0 -2.75 -2.75 0 0 -2.76 -2.75 0 0 -2.75 -5.5 0 0 -2.75 -2.76 0 0 -2.75 -5.5 0 0 -2.75 -2.75 0 0 -2.75 -5.5 0 0 -2.76 -5.51 0 0 -2.74 -8.25 0 0 -2.76 -49.53 0 0 2.76zm-398.98 -52.29l-11.01 0 0 2.76 -5.5 0 0 2.75 -5.5 0 0 2.75 -5.51 0 0 2.75 -5.5 0 0 2.75 -2.75 0 0 2.75 -5.5 0 0 2.76 -2.76 0 0 2.75 -5.5 0 0 2.75 -2.75 0 0 2.75 -5.5 0 0 2.75 -2.76 0 0 2.75 -5.5 0 0 2.76 -2.75 0 0 2.75 -2.75 0 0 2.75 5.5 0 0 2.75 5.5 0 0 2.75 8.26 0 0 2.75 2.75 0 0 2.76 8.26 0 0 2.74 41.27 0 0 2.76 11.01 0 0 2.75 5.5 0 0 2.75 8.25 0 0 2.75 5.51 0 0 2.75 5.5 0 0 2.75 5.5 0 0 2.76 5.51 0 0 2.75 5.5 0 0 2.75 8.26 0 0 2.75 5.5 0 0 2.75 5.5 0 0 2.75 5.51 0 0 2.76 8.25 0 0 2.75 8.26 0 0 2.75 11 0 0 2.75 5.5 0 0 2.75 8.26 0 0 2.75 5.5 0 0 2.76 11.01 0 0 2.75 8.25 0 0 2.75 8.26 0 0 2.75 5.5 0 0 2.75 5.5 0 0 2.75 5.51 0 0 2.76 2.75 0 0 2.75 5.5 0 0 2.75 2.75 0 0 2.75 2.75 0 0 2.75 5.51 0 0 -2.75 2.75 0 0 -2.75 2.75 0 0 -2.75 2.75 0 0 -2.75 2.75 0 0 -2.76 2.76 0 0 -2.75 5.5 0 0 -2.75 2.75 0 0 -2.75 5.5 0 0 -2.75 5.51 0 0 -2.75 2.75 0 0 -2.76 5.5 0 0 -2.75 5.51 0 0 -2.75 5.5 0 0 -2.75 8.25 0 0 -2.75 5.5 0 0 -2.75 5.51 0 0 -2.76 5.5 0 0 -2.75 5.5 0 0 -2.75 8.26 0 0 -2.75 8.25 0 0 -2.75 5.51 0 0 -2.75 5.5 0 0 -2.76 5.5 0 0 -2.75 8.26 0 0 -2.75 5.5 0 0 -2.75 5.51 0 0 -2.75 5.5 0 0 -2.75 5.5 0 0 -2.76 5.5 0 0 -2.74 5.51 0 0 -2.76 5.5 0 0 -2.75 2.75 0 0 -2.75 8.26 0 0 -2.75 5.5 0 0 -2.75 5.5 0 0 -2.75 8.26 0 0 -2.76 8.25 0 0 -2.75 13.76 0 0 -2.75 19.26 0 0 -2.75 -5.5 0 0 -2.75 -5.5 0 0 -2.75 -5.51 0 0 -2.76 -8.25 0 0 -2.75 -5.5 0 0 -2.75 -11.01 0 0 -2.75 -38.52 0 0 2.75 -8.26 0 0 2.75 -5.5 0 0 2.75 -8.26 0 0 2.76 -5.5 0 0 2.75 -5.5 0 0 2.75 -5.51 0 0 2.75 -5.5 0 0 2.75 -5.5 0 0 2.75 -5.51 0 0 2.76 -5.5 0 0 2.75 -5.5 0 0 2.75 -8.26 0 0 2.75 -5.5 0 0 2.75 -8.26 0 0 2.75 -8.25 0 0 2.76 -8.25 0 0 2.74 -8.26 0 0 2.76 -5.5 0 0 2.75 -16.51 0 0 2.75 -8.26 0 0 2.75 -5.5 0 0 2.75 -2.75 0 0 2.75 -5.5 0 0 2.76 -2.76 0 0 2.75 -2.75 0 0 2.75 -2.75 0 0 2.75 -5.5 0 0 2.75 -2.75 0 0 2.75 -2.76 0 0 2.76 -2.75 0 0 2.75 -2.75 0 0 2.75 -2.75 0 0 5.5 -2.75 0 0 2.75 -5.5 0 0 -16.51 2.75 0 0 -5.5 2.75 0 0 -2.75 2.75 0 0 -2.75 2.75 0 0 -2.75 2.75 0 0 -2.76 2.75 0 0 -2.75 2.76 0 0 -2.75 2.75 0 0 -2.75 2.75 0 0 -2.75 2.75 0 0 -2.75 -8.25 0 0 -2.76 -8.26 0 0 -2.74 -5.5 0 0 -2.76 -8.26 0 0 -2.75 -8.25 0 0 -2.75 -8.26 0 0 -2.75 -5.5 0 0 -2.75 -5.5 0 0 -2.75 -5.51 0 0 -2.76 -8.25 0 0 -2.75 -2.75 0 0 -2.75 -8.25 0 0 -2.75 -5.51 0 0 -2.75 -5.5 0 0 -2.75 -5.5 0 0 -2.76 -5.51 0 0 -2.75 -8.26 0 0 -2.75 -5.5 0 0 -2.75 -5.5 0 0 -2.75 -8.25 0 0 -2.75 -8.26 0 0 -2.76 -8.25 0 0 -2.75 -27.52 0 0 2.75z"/>
  <path id="outline" class="fil2" d="M123.4 817.08l2.75 0 0 2.75 5.5 0 0 2.75 2.76 0 0 2.76 5.5 0 0 2.75 5.5 0 0 2.75 5.51 0 0 2.75 8.25 0 0 2.75 8.26 0 0 2.75 5.5 0 0 2.76 11.01 0 0 2.75 16.51 0 0 2.75 16.5 0 0 2.75 27.52 0 0 2.75 63.29 0 0 2.75 33.02 0 0 2.76 16.51 0 0 2.75 16.51 0 0 2.75 13.75 0 0 2.75 13.76 0 0 2.75 24.76 0 0 2.75 96.31 0 0 -2.75 22.01 0 0 -2.75 16.51 0 0 -2.75 16.51 0 0 -2.75 11.01 0 0 -2.75 19.26 0 0 -2.76 8.25 0 0 -2.75 16.51 0 0 -2.75 46.78 0 0 -2.75 38.52 0 0 -2.75 13.76 0 0 -2.75 5.5 0 0 -2.76 8.26 0 0 -2.75 5.5 0 0 -2.75 2.75 0 0 -2.75 5.51 0 0 -2.75 2.75 0 0 -2.75 5.5 0 0 8.25 -2.75 0 0 5.5 -2.75 0 0 16.51 -2.75 0 0 24.77 -2.76 0 0 11.01 -2.75 0 0 30.26 -2.75 0 0 134.83 2.75 0 0 44.02 2.75 0 0 16.51 2.76 0 0 173.35 -2.76 0 0 16.51 -2.75 0 0 19.26 -2.75 0 0 22.02 -2.75 0 0 19.26 -2.75 0 0 11 -2.75 0 0 11.01 -2.76 0 0 11.01 -2.75 0 0 13.75 -2.75 0 0 5.51 -2.75 0 0 13.76 -2.75 0 0 5.5 -2.75 0 0 11.01 -2.76 0 0 11 -2.75 0 0 5.51 -2.75 0 0 8.25 -2.75 0 0 11 -2.75 0 0 8.26 -2.75 0 0 8.25 -2.76 0 0 8.26 -2.75 0 0 5.5 -2.75 0 0 11.01 -2.75 0 0 5.5 -2.75 0 0 8.26 -2.75 0 0 5.5 -2.75 0 0 8.25 -2.75 0 0 8.26 -2.76 0 0 5.5 -2.75 0 0 8.26 -2.75 0 0 2.75 -2.75 0 0 8.25 -2.76 0 0 8.26 -2.74 0 0 5.5 -2.76 0 0 5.51 -2.75 0 0 5.5 -2.75 0 0 5.5 -2.75 0 0 5.5 -2.75 0 0 5.51 -2.75 0 0 8.25 -2.76 0 0 2.76 -2.75 0 0 5.5 -2.75 0 0 5.5 -2.75 0 0 5.5 -2.75 0 0 5.51 -2.75 0 0 5.5 -2.76 0 0 2.75 -2.75 0 0 5.5 -2.75 0 0 5.51 -2.75 0 0 2.75 -2.75 0 0 5.5 -2.75 0 0 2.75 -2.76 0 0 5.51 -2.75 0 0 2.75 -2.75 0 0 5.5 -2.75 0 0 2.75 -2.75 0 0 2.75 -2.75 0 0 5.51 -2.75 0 0 2.75 -2.76 0 0 2.75 -2.75 0 0 5.5 -2.75 0 0 2.76 -2.75 0 0 2.75 -2.75 0 0 2.75 -2.75 0 0 2.75 -2.76 0 0 2.75 -2.75 0 0 2.75 -2.75 0 0 2.76 -2.75 0 0 2.75 -2.75 0 0 2.75 -2.75 0 0 2.75 -2.76 0 0 2.75 -2.75 0 0 2.75 -5.5 0 0 2.76 -2.75 0 0 2.75 -5.51 0 0 2.75 -5.5 0 0 2.75 -8.25 0 0 2.75 -24.77 0 0 -2.75 -5.5 0 0 -5.5 -2.75 0 0 -2.75 -2.75 0 0 -5.51 -2.75 0 0 -8.25 -2.76 0 0 -49.53 2.76 0 0 -16.51 2.75 0 0 -16.51 2.75 0 0 -13.76 2.75 0 0 -8.25 2.75 0 0 -11.01 2.75 0 0 -19.26 2.76 0 0 -8.25 2.75 0 0 -11.01 2.75 0 0 -19.26 2.75 0 0 -8.26 2.75 0 0 -13.76 2.75 0 0 -19.26 2.76 0 0 -11 2.74 0 0 -22.02 2.76 0 0 -22.01 2.75 0 0 -27.52 2.75 0 0 -46.77 2.75 0 0 -90.8 -2.75 0 0 -16.51 -2.75 0 0 -22.01 -2.75 0 0 -16.51 -2.76 0 0 -16.51 -2.74 0 0 -11.01 -2.76 0 0 -13.76 -2.75 0 0 -11 -2.75 0 0 -8.26 -2.75 0 0 -11.01 -2.75 0 0 -5.5 -2.75 0 0 -8.25 -2.76 0 0 -8.26 -2.75 0 0 -8.25 -2.75 0 0 -5.51 -2.75 0 0 -5.5 -2.75 0 0 -5.5 -2.75 0 0 -5.5 -2.76 0 0 -5.51 -2.75 0 0 -5.5 -2.75 0 0 -5.5 -2.75 0 0 -2.76 -2.75 0 0 -5.5 -2.75 0 0 -2.75 -2.76 0 0 -2.75 -2.75 0 0 -2.75 -2.75 0 0 -2.76 -2.75 0 0 -2.75 -2.75 0 0 -2.75 -2.75 0 0 -2.75 -2.76 0 0 -2.75 -5.5 0 0 -2.75 -5.5 0 0 -2.76 -2.75 0 0 -2.75 -27.52 0 0 2.75 -8.25 0 0 2.76 -5.51 0 0 2.75 -2.75 0 0 2.75 -5.5 0 0 2.75 -2.75 0 0 2.75 -5.51 0 0 2.75 -2.75 0 0 2.76 -2.75 0 0 2.75 -2.75 0 0 2.75 -2.75 0 0 2.75 -2.76 0 0 2.75 -2.74 0 0 2.75 -2.76 0 0 2.76 -2.75 0 0 5.5 -2.75 0 0 2.75 -2.75 0 0 2.75 -2.75 0 0 2.75 -2.75 0 0 5.51 -2.76 0 0 2.75 -2.75 0 0 5.5 -2.75 0 0 2.75 -2.75 0 0 5.5 -2.76 0 0 5.51 -2.74 0 0 2.75 -2.76 0 0 5.5 -2.75 0 0 2.75 -2.75 0 0 5.51 -2.75 0 0 2.75 -2.75 0 0 5.5 -2.75 0 0 5.51 -2.76 0 0 2.75 -2.75 0 0 5.5 -2.75 0 0 5.5 -2.75 0 0 2.76 -2.75 0 0 5.5 -2.75 0 0 5.5 -2.76 0 0 2.75 -2.75 0 0 5.51 -2.75 0 0 5.5 -2.75 0 0 5.5 -2.75 0 0 5.51 -2.75 0 0 2.75 -2.76 0 0 5.5 -2.75 0 0 5.5 -2.75 0 0 5.51 -2.75 0 0 5.5 -2.75 0 0 5.5 -2.75 0 0 5.5 -2.75 0 0 5.51 -2.76 0 0 5.5 -2.75 0 0 5.51 -2.75 0 0 5.5 -2.75 0 0 5.5 -2.75 0 0 5.5 -2.75 0 0 5.51 -2.76 0 0 5.5 -2.75 0 0 5.5 -2.75 0 0 5.51 -2.75 0 0 5.5 -2.75 0 0 8.26 -2.75 0 0 5.5 -2.76 0 0 5.5 -2.75 0 0 5.51 -2.75 0 0 8.25 -2.75 0 0 5.5 -2.75 0 0 8.26 -2.75 0 0 8.25 -2.76 0 0 8.26 -2.75 0 0 5.5 -2.75 0 0 11.01 -2.75 0 0 2.75 -2.75 0 0 13.76 -2.75 0 0 5.5 -2.76 0 0 5.5 -2.74 0 0 8.26 -2.76 0 0 11.01 -2.75 0 0 8.25 -2.75 0 0 8.25 -2.75 0 0 8.26 -2.75 0 0 8.25 -2.75 0 0 8.26 -2.76 0 0 8.25 -2.75 0 0 8.26 -2.75 0 0 11 -2.75 0 0 5.51 -2.75 0 0 11 -2.75 0 0 8.26 -2.76 0 0 8.25 -2.75 0 0 8.26 -2.75 0 0 5.5 -2.75 0 0 8.26 -2.75 0 0 8.25 -2.75 0 0 8.26 -2.76 0 0 5.5 -2.75 0 0 8.25 -2.75 0 0 8.26 -2.75 0 0 5.5 -2.75 0 0 5.51 -2.75 0 0 8.25 -2.76 0 0 5.5 -2.75 0 0 5.5 -2.75 0 0 5.51 -2.75 0 0 5.5 -2.75 0 0 2.75 -2.75 0 0 5.51 -2.76 0 0 5.5 -2.75 0 0 2.75 -2.75 0 0 2.75 -2.75 0 0 5.51 -2.75 0 0 2.75 -2.75 0 0 2.75 -2.75 0 0 2.75 -2.76 0 0 2.75 -2.75 0 0 2.75 -5.5 0 0 2.75 -5.5 0 0 2.76 -22.02 0 0 -2.76 -2.75 0 0 -2.75 -2.75 0 0 -2.75 -2.75 0 0 -2.75 -2.75 0 0 -5.5 -2.76 0 0 -5.51 -2.74 0 0 -8.25 -2.76 0 0 -5.5 -2.75 0 0 -11.01 -2.75 0 0 -11.01 -2.75 0 0 -11 -2.75 0 0 -16.51 -2.75 0 0 -19.27 -2.76 0 0 -35.76 -2.75 0 0 -82.55 2.75 0 0 -38.53 2.76 0 0 -16.5 2.75 0 0 -11.01 2.75 0 0 -22.01 2.75 0 0 -11.01 2.75 0 0 -11.01 2.75 0 0 -16.5 2.76 0 0 -19.27 2.74 0 0 -8.25 2.76 0 0 -11.01 2.75 0 0 -16.5 2.75 0 0 -5.51 2.75 0 0 -11.01 2.75 0 0 -11 2.75 0 0 -13.76 2.76 0 0 -8.25 2.75 0 0 -11.01 2.75 0 0 -5.5 2.75 0 0 -13.76 2.75 0 0 -11.01 2.75 0 0 -8.25 2.76 0 0 -8.26 2.75 0 0 -13.76 2.75 0 0 -5.5 2.75 0 0 -11.01 2.75 0 0 -8.25 2.75 0 0 -13.76 2.76 0 0 -11 2.75 0 0 -11.01 2.75 0 0 -11.01 2.75 0 0 -11 2.75 0 0 -11.01 2.75 0 0 -16.51 2.75 0 0 -16.51 2.76 0 0 -11.01 2.75 0 0 -16.5 2.75 0 0 -22.02 2.75 0 0 -16.51 2.75 0 0 -35.77 2.75 0 0 -85.29 -2.75 0 0 -27.52 -2.75 0 0 -16.51 -2.75 0 0 -13.76zm85.3 -470.52l-2.75 0 0 2.75 -5.5 0 0 2.75 -2.76 0 0 2.76 -5.5 0 0 2.75 -2.75 0 0 2.75 -2.75 0 0 2.75 -2.75 0 0 2.75 -2.76 0 0 2.75 -2.75 0 0 2.76 -2.75 0 0 2.75 -2.75 0 0 2.75 -2.75 0 0 2.75 -2.75 0 0 2.75 -2.76 0 0 5.51 -2.75 0 0 2.75 -2.75 0 0 5.5 -2.75 0 0 2.75 -2.75 0 0 5.51 -2.75 0 0 5.5 -2.76 0 0 8.25 -2.75 0 0 8.26 -2.75 0 0 5.5 -2.75 0 0 11.01 -2.75 0 0 5.5 -2.75 0 0 24.76 -2.76 0 0 11.01 -2.75 0 0 19.26 2.75 0 0 -2.75 2.76 0 0 -8.25 2.75 0 0 -13.76 2.75 0 0 -5.51 2.75 0 0 -8.25 2.75 0 0 -8.26 2.75 0 0 -5.5 2.76 0 0 -5.5 2.75 0 0 -5.5 2.75 0 0 -5.51 2.75 0 0 -5.5 2.75 0 0 -5.5 2.75 0 0 -5.51 2.76 0 0 -5.5 2.75 0 0 -2.75 2.75 0 0 -5.5 2.75 0 0 -2.76 2.75 0 0 -5.5 2.75 0 0 -2.75 2.76 0 0 -2.75 2.75 0 0 -2.75 2.75 0 0 -2.76 2.75 0 0 -2.75 2.75 0 0 -2.75 2.75 0 0 -2.75 5.5 0 0 -2.75 2.76 0 0 -2.75 5.5 0 0 -2.76 5.5 0 0 -2.75 8.26 0 0 -2.75 5.5 0 0 -2.75 44.03 0 0 2.75 11 0 0 2.75 11.01 0 0 2.75 5.5 0 0 2.76 5.51 0 0 2.75 5.5 0 0 2.75 8.25 0 0 2.75 5.51 0 0 2.75 5.5 0 0 2.75 5.5 0 0 2.76 5.5 0 0 2.75 8.26 0 0 2.75 5.51 0 0 2.75 8.25 0 0 2.75 5.5 0 0 2.75 11.01 0 0 2.76 8.25 0 0 2.75 8.26 0 0 2.75 8.25 0 0 2.75 8.26 0 0 2.75 11 0 0 2.75 5.51 0 0 2.76 5.5 0 0 2.75 2.75 0 0 2.75 5.5 0 0 2.75 2.76 0 0 5.5 2.75 0 0 2.75 2.75 0 0 2.76 2.75 0 0 5.5 2.75 0 0 5.5 2.75 0 0 8.26 2.76 0 0 8.25 2.75 0 0 16.51 2.75 0 0 49.53 5.5 0 0 -5.5 2.75 0 0 -11.01 2.76 0 0 -57.78 -2.76 0 0 -11.01 -2.75 0 0 -11.01 2.75 0 0 -2.75 2.76 0 0 -2.75 2.75 0 0 -5.5 5.5 0 0 -2.75 2.75 0 0 -2.75 2.75 0 0 -2.76 2.76 0 0 -2.75 5.5 0 0 -2.75 2.75 0 0 -2.75 5.5 0 0 -2.75 5.51 0 0 -2.75 5.5 0 0 -2.76 5.5 0 0 -2.75 5.5 0 0 -2.75 5.51 0 0 -2.75 8.25 0 0 -2.75 5.51 0 0 -2.75 8.25 0 0 -2.76 5.5 0 0 -2.75 8.26 0 0 -2.75 5.5 0 0 -2.75 5.51 0 0 -2.75 8.25 0 0 -2.75 5.5 0 0 -2.76 5.51 0 0 -2.75 5.5 0 0 -2.75 5.5 0 0 -2.75 5.51 0 0 -2.75 5.5 0 0 -2.75 5.5 0 0 -2.76 5.51 0 0 -2.75 2.75 0 0 -2.75 5.5 0 0 -2.75 5.5 0 0 -2.75 5.51 0 0 -2.75 8.25 0 0 -2.76 8.25 0 0 -2.74 5.51 0 0 -2.76 49.53 0 0 2.76 8.25 0 0 2.74 5.51 0 0 2.76 5.5 0 0 2.75 2.75 0 0 2.75 5.5 0 0 2.75 2.76 0 0 2.75 5.5 0 0 2.75 2.75 0 0 2.76 2.75 0 0 2.75 2.75 0 0 2.75 2.75 0 0 2.75 5.51 0 0 5.5 2.75 0 0 2.76 2.75 0 0 2.75 2.75 0 0 2.75 2.75 0 0 2.75 2.76 0 0 2.75 2.75 0 0 2.75 2.75 0 0 5.51 2.75 0 0 2.75 2.75 0 0 2.75 2.75 0 0 5.5 2.76 0 0 2.76 2.75 0 0 5.5 2.75 0 0 2.75 2.75 0 0 5.5 2.75 0 0 5.51 2.75 0 0 5.5 2.76 0 0 5.5 2.75 0 0 5.51 2.75 0 0 8.25 2.75 0 0 8.25 2.75 0 0 5.51 2.75 0 0 11 2.75 0 0 16.51 2.75 0 0 11.01 2.76 0 0 60.54 -2.76 0 0 16.5 -2.75 0 0 19.26 -2.75 0 0 8.26 -2.75 0 0 13.76 -2.75 0 0 8.25 -2.75 0 0 13.76 -2.75 0 0 8.26 -2.75 0 0 5.5 -2.76 0 0 8.25 -2.75 0 0 8.26 -2.75 0 0 8.25 -2.75 0 0 5.51 -2.75 0 0 8.25 -2.75 0 0 5.5 -2.76 0 0 11.01 -2.75 0 0 5.5 -2.75 0 0 5.51 -2.75 0 0 8.25 -2.75 0 0 5.5 -2.75 0 0 8.26 -2.76 0 0 5.5 -2.75 0 0 5.5 -2.75 0 0 5.51 -2.75 0 0 5.5 -2.75 0 0 5.5 -2.75 0 0 5.51 -2.76 0 0 5.5 -2.75 0 0 2.75 -2.75 0 0 2.75 -2.75 0 0 2.76 -2.75 0 0 5.5 -2.75 0 0 2.75 -2.75 0 0 2.75 -2.76 0 0 2.75 -2.75 0 0 2.76 -2.75 0 0 2.75 -5.5 0 0 2.75 -2.75 0 0 2.75 -5.51 0 0 2.75 -5.5 0 0 2.75 -5.5 0 0 2.75 -11.01 0 0 2.76 -68.79 0 0 2.75 -16.51 0 0 2.75 -22.01 0 0 2.75 -16.51 0 0 2.75 -11.01 0 0 2.75 -22.01 0 0 2.76 -5.5 0 0 2.75 -22.01 0 0 2.75 -19.27 0 0 2.75 -60.53 0 0 -2.75 -33.02 0 0 -2.75 -22.01 0 0 -2.75 -11.01 0 0 -2.76 -16.51 0 0 -2.75 -22.01 0 0 -2.75 -19.26 0 0 -2.75 -41.28 0 0 -2.75 -55.03 0 0 -2.75 -22.01 0 0 -2.76 -11.01 0 0 -2.75 -13.75 0 0 -2.75 -11.01 0 0 -2.75 -8.26 0 0 -2.75 -5.5 0 0 -2.75 -5.5 0 0 -2.75 -5.51 0 0 -2.76 -5.5 0 0 -2.75 -2.75 0 0 -2.75 -5.5 0 0 -2.75 -2.76 0 0 -2.75 -2.75 0 0 -2.75 -2.75 0 0 -2.76 -2.75 0 0 -2.75 -2.75 0 0 -2.75 -2.75 0 0 -5.5 -2.76 0 0 -2.75 -2.75 0 0 -5.51 -2.75 0 0 -5.5 -2.75 0 0 -5.5 -2.75 0 0 -5.51 -2.75 0 0 -8.25 -2.75 0 0 -5.51 -2.76 0 0 -8.25 -2.75 0 0 -8.25 -2.75 0 0 -5.51 -2.75 0 0 -8.25 -2.75 0 0 -8.26 -2.75 0 0 -8.25 -2.76 0 0 -8.26 -2.75 0 0 -8.25 -2.75 0 0 -5.5 -2.75 0 0 -8.26 -2.75 0 0 -8.25 -2.75 0 0 -8.26 -2.76 0 0 -8.25 -2.75 0 0 -11.01 -2.75 0 0 -8.25 -2.75 0 0 -16.51 -2.75 0 0 -11.01 -2.75 0 0 -19.26 -2.76 0 0 -13.76 -2.74 0 0 -55.03 2.74 0 0 -24.76 2.76 0 0 -8.26 2.75 0 0 -16.51 2.75 0 0 -11 2.75 0 0 -5.51 2.75 0 0 -8.25 2.75 0 0 -8.26 2.76 0 0 -8.25 2.75 0 0 -5.5 2.75 0 0 -5.51 2.75 0 0 -5.5 2.75 0 0 -5.5 2.75 0 0 -2.76 2.76 0 0 -5.5 2.75 0 0 -2.75 2.75 0 0 -5.5 2.75 0 0 -2.76 2.75 0 0 -2.75 2.75 0 0 -2.75 2.76 0 0 -2.75 2.75 0 0 -2.75 2.75 0 0 -2.75 5.5 0 0 -2.76 2.75 0 0 -2.75 2.75 0 0 -2.75 5.51 0 0 -2.75 5.5 0 0 -2.75 5.5 0 0 -2.75 5.51 0 0 -2.76 8.25 0 0 -2.74 46.78 0 0 2.74 16.51 0 0 2.76 5.5 0 0 2.75 2.75 0 0 2.75 -8.25 0 0 2.75zm473.27 -35.77l-13.76 0 0 2.75 -8.25 0 0 2.76 -8.26 0 0 2.75 -5.5 0 0 2.75 -5.5 0 0 2.75 -8.26 0 0 2.75 -2.75 0 0 2.75 -5.5 0 0 2.76 -5.51 0 0 2.74 -5.5 0 0 2.76 -5.5 0 0 2.75 -5.5 0 0 2.75 -5.51 0 0 2.75 -5.5 0 0 2.75 -8.26 0 0 2.75 -5.5 0 0 2.76 -5.5 0 0 2.75 -5.51 0 0 2.75 -8.25 0 0 2.75 -8.26 0 0 2.75 -5.5 0 0 2.75 -5.5 0 0 2.76 -5.51 0 0 2.75 -5.5 0 0 2.75 -8.25 0 0 2.75 -5.5 0 0 2.75 -5.51 0 0 2.75 -5.5 0 0 2.76 -2.75 0 0 2.75 -5.51 0 0 2.75 -5.5 0 0 2.75 -2.75 0 0 2.75 -5.5 0 0 2.75 -2.76 0 0 2.76 -2.75 0 0 2.75 -2.75 0 0 2.75 -2.75 0 0 2.75 -2.75 0 0 2.75 -5.51 0 0 -2.75 -2.75 0 0 -2.75 -2.75 0 0 -2.75 -5.5 0 0 -2.75 -2.75 0 0 -2.76 -5.51 0 0 -2.75 -5.5 0 0 -2.75 -5.5 0 0 -2.75 -8.26 0 0 -2.75 -8.25 0 0 -2.75 -11.01 0 0 -2.76 -5.5 0 0 -2.75 -8.26 0 0 -2.75 -5.5 0 0 -2.75 -11 0 0 -2.75 -8.26 0 0 -2.75 -8.25 0 0 -2.76 -5.51 0 0 -2.75 -5.5 0 0 -2.75 -5.5 0 0 -2.75 -8.26 0 0 -2.75 -5.5 0 0 -2.75 -5.51 0 0 -2.76 -5.5 0 0 -2.75 -5.5 0 0 -2.75 -5.51 0 0 -2.75 -8.25 0 0 -2.75 -5.5 0 0 -2.75 -11.01 0 0 -2.76 -41.27 0 0 -2.74 -8.26 0 0 -2.76 -2.75 0 0 -2.75 -8.26 0 0 -2.75 -5.5 0 0 -2.75 -5.5 0 0 -2.75 2.75 0 0 -2.75 2.75 0 0 -2.76 5.5 0 0 -2.75 2.76 0 0 -2.75 5.5 0 0 -2.75 2.75 0 0 -2.75 5.5 0 0 -2.75 2.76 0 0 -2.76 5.5 0 0 -2.75 2.75 0 0 -2.75 5.5 0 0 -2.75 5.51 0 0 -2.75 5.5 0 0 -2.75 5.5 0 0 -2.76 11.01 0 0 -2.75 27.52 0 0 2.75 8.25 0 0 2.76 8.26 0 0 2.75 8.25 0 0 2.75 5.5 0 0 2.75 5.5 0 0 2.75 8.26 0 0 2.75 5.51 0 0 2.76 5.5 0 0 2.75 5.5 0 0 2.75 5.51 0 0 2.75 8.25 0 0 2.75 2.75 0 0 2.75 8.25 0 0 2.76 5.51 0 0 2.75 5.5 0 0 2.75 5.5 0 0 2.75 8.26 0 0 2.75 8.25 0 0 2.75 8.26 0 0 2.76 5.5 0 0 2.74 8.26 0 0 2.76 8.25 0 0 2.75 -2.75 0 0 2.75 -2.75 0 0 2.75 -2.75 0 0 2.75 -2.76 0 0 2.75 -2.75 0 0 2.76 -2.75 0 0 2.75 -2.75 0 0 2.75 -2.75 0 0 2.75 -2.75 0 0 5.5 -2.75 0 0 16.51 5.5 0 0 -2.75 2.75 0 0 -5.5 2.75 0 0 -2.75 2.75 0 0 -2.75 2.75 0 0 -2.76 2.76 0 0 -2.75 2.75 0 0 -2.75 5.5 0 0 -2.75 2.75 0 0 -2.75 2.75 0 0 -2.75 2.76 0 0 -2.76 5.5 0 0 -2.75 2.75 0 0 -2.75 5.5 0 0 -2.75 8.26 0 0 -2.75 16.51 0 0 -2.75 5.5 0 0 -2.76 8.26 0 0 -2.74 8.25 0 0 -2.76 8.25 0 0 -2.75 8.26 0 0 -2.75 5.5 0 0 -2.75 8.26 0 0 -2.75 5.5 0 0 -2.75 5.5 0 0 -2.76 5.51 0 0 -2.75 5.5 0 0 -2.75 5.5 0 0 -2.75 5.51 0 0 -2.75 5.5 0 0 -2.75 5.5 0 0 -2.76 8.26 0 0 -2.75 5.5 0 0 -2.75 8.26 0 0 -2.75 38.52 0 0 2.75 11.01 0 0 2.75 5.5 0 0 2.75 8.25 0 0 2.76 5.51 0 0 2.75 5.5 0 0 2.75 5.5 0 0 2.75 -19.26 0 0 2.75zm-404.48 -55.03l-11.01 0 0 2.75 -8.25 0 0 2.75 -5.51 0 0 2.76 -5.5 0 0 2.75 -5.5 0 0 2.75 -2.75 0 0 2.75 -5.51 0 0 2.75 -5.5 0 0 2.75 -2.75 0 0 2.75 -5.51 0 0 2.76 -2.75 0 0 2.75 -5.5 0 0 2.75 -2.75 0 0 2.75 -5.51 0 0 2.75 -5.5 0 0 2.75 -5.5 0 0 2.76 -2.75 0 0 2.75 -5.5 0 0 2.75 -5.51 0 0 2.75 -19.26 0 0 2.75 -19.26 0 0 2.75 -11.01 0 0 2.76 -5.5 0 0 2.75 -8.26 0 0 2.75 -5.5 0 0 2.75 -5.5 0 0 2.75 -2.75 0 0 2.75 -2.75 0 0 2.76 -5.51 0 0 2.74 -2.75 0 0 2.76 -2.75 0 0 2.75 -5.5 0 0 2.75 -2.76 0 0 2.75 -2.75 0 0 2.75 -2.75 0 0 5.51 -2.75 0 0 2.75 -2.75 0 0 2.75 -2.75 0 0 5.5 -2.76 0 0 2.75 -2.75 0 0 5.51 -2.75 0 0 5.5 -2.75 0 0 2.75 -2.75 0 0 5.51 -2.75 0 0 5.5 -2.76 0 0 8.25 -2.74 0 0 5.51 -2.76 0 0 11 -2.75 0 0 8.26 -2.75 0 0 8.25 -2.75 0 0 8.26 -2.75 0 0 8.25 -2.75 0 0 19.26 -2.76 0 0 16.51 -2.75 0 0 79.8 2.75 0 0 13.75 2.76 0 0 16.51 2.75 0 0 13.76 2.75 0 0 13.76 2.75 0 0 11.01 2.75 0 0 8.25 2.75 0 0 5.51 2.76 0 0 13.75 2.74 0 0 5.51 2.76 0 0 8.25 2.75 0 0 8.26 2.75 0 0 8.25 2.75 0 0 5.5 2.75 0 0 11.01 2.75 0 0 8.26 2.76 0 0 8.25 2.75 0 0 5.5 2.75 0 0 8.26 2.75 0 0 5.5 2.75 0 0 8.25 2.75 0 0 5.51 2.76 0 0 5.5 2.75 0 0 5.5 2.75 0 0 8.26 2.75 0 0 8.25 2.75 0 0 16.51 2.75 0 0 8.26 2.76 0 0 13.76 2.75 0 0 16.51 2.75 0 0 24.76 2.75 0 0 88.05 -2.75 0 0 41.27 -2.75 0 0 11.01 -2.75 0 0 22.01 -2.76 0 0 16.51 -2.75 0 0 19.26 -2.75 0 0 13.76 -2.75 0 0 13.76 -2.75 0 0 11.01 -2.75 0 0 8.25 -2.76 0 0 13.76 -2.75 0 0 8.25 -2.75 0 0 13.76 -2.75 0 0 11.01 -2.75 0 0 11 -2.75 0 0 11.01 -2.76 0 0 11.01 -2.75 0 0 5.5 -2.75 0 0 8.25 -2.75 0 0 11.01 -2.75 0 0 13.76 -2.75 0 0 8.25 -2.76 0 0 11.01 -2.74 0 0 5.5 -2.76 0 0 11.01 -2.75 0 0 16.51 -2.75 0 0 8.25 -2.75 0 0 13.76 -2.75 0 0 5.51 -2.75 0 0 11 -2.76 0 0 13.76 -2.75 0 0 16.51 -2.75 0 0 11 -2.75 0 0 8.26 -2.76 0 0 19.26 -2.74 0 0 16.51 -2.76 0 0 16.51 -2.75 0 0 16.51 -2.75 0 0 27.52 -2.75 0 0 134.82 2.75 0 0 16.51 2.75 0 0 24.76 2.75 0 0 11.01 2.76 0 0 11.01 2.74 0 0 13.76 2.76 0 0 8.25 2.75 0 0 8.26 2.75 0 0 5.5 2.75 0 0 5.5 2.76 0 0 5.5 2.75 0 0 5.51 2.75 0 0 2.75 2.75 0 0 2.75 2.75 0 0 2.75 2.75 0 0 2.75 2.76 0 0 2.76 2.74 0 0 2.75 5.51 0 0 2.75 5.5 0 0 2.75 5.5 0 0 2.75 19.27 0 0 -2.75 5.5 0 0 -2.75 5.5 0 0 -2.75 5.51 0 0 -2.75 5.5 0 0 -2.76 2.75 0 0 -2.75 2.75 0 0 -2.75 2.75 0 0 -2.75 2.75 0 0 -2.75 2.76 0 0 -2.75 2.75 0 0 -2.76 2.75 0 0 -2.75 2.75 0 0 -2.75 2.75 0 0 -2.75 2.75 0 0 -5.5 2.76 0 0 -2.75 2.75 0 0 -5.51 2.75 0 0 -5.5 2.75 0 0 -5.5 2.75 0 0 -5.51 2.75 0 0 -5.5 2.76 0 0 -5.5 2.75 0 0 -5.51 2.75 0 0 -5.5 2.75 0 0 -8.26 2.75 0 0 -2.74 2.75 0 0 -11.01 2.76 0 0 -5.51 2.75 0 0 -8.25 2.75 0 0 -5.51 2.75 0 0 -8.25 2.75 0 0 -5.5 2.75 0 0 -11.01 2.76 0 0 -8.25 2.75 0 0 -5.51 2.75 0 0 -8.25 2.75 0 0 -11.01 2.75 0 0 -5.5 2.75 0 0 -8.25 2.76 0 0 -8.26 2.74 0 0 -8.25 2.76 0 0 -8.26 2.75 0 0 -8.25 2.75 0 0 -11.01 2.75 0 0 -5.5 2.75 0 0 -8.26 2.75 0 0 -8.25 2.76 0 0 -8.26 2.75 0 0 -11.01 2.75 0 0 -11 2.75 0 0 -5.5 2.75 0 0 -8.26 2.75 0 0 -8.25 2.76 0 0 -5.51 2.75 0 0 -8.25 2.75 0 0 -8.26 2.75 0 0 -8.25 2.75 0 0 -5.5 2.75 0 0 -5.51 2.76 0 0 -8.25 2.75 0 0 -5.5 2.75 0 0 -5.51 2.75 0 0 -8.25 2.75 0 0 -5.51 2.75 0 0 -5.5 2.76 0 0 -5.5 2.75 0 0 -5.51 2.75 0 0 -5.5 2.75 0 0 -5.5 2.75 0 0 -5.51 2.75 0 0 -5.5 2.75 0 0 -5.5 2.76 0 0 -5.5 2.75 0 0 -5.51 2.75 0 0 -5.5 2.75 0 0 -5.51 2.75 0 0 -5.5 2.75 0 0 -5.5 2.76 0 0 -5.5 2.75 0 0 -5.51 2.75 0 0 -5.5 2.75 0 0 -5.5 2.75 0 0 -2.75 2.75 0 0 -5.51 2.76 0 0 -5.5 2.75 0 0 -2.75 2.75 0 0 -5.51 2.75 0 0 -5.5 2.75 0 0 -2.75 2.75 0 0 -5.5 2.76 0 0 -5.51 2.74 0 0 -2.75 2.76 0 0 -5.5 2.75 0 0 -2.75 2.75 0 0 -5.51 2.75 0 0 -5.5 2.76 0 0 -2.75 2.75 0 0 -2.75 2.75 0 0 -5.51 2.75 0 0 -2.75 2.75 0 0 -5.5 2.75 0 0 -2.75 2.76 0 0 -5.51 2.74 0 0 -2.75 2.76 0 0 -2.75 2.75 0 0 -5.5 2.75 0 0 -2.75 2.75 0 0 -2.75 2.75 0 0 -5.51 2.75 0 0 -2.75 2.76 0 0 -2.75 2.75 0 0 -2.75 2.75 0 0 -2.75 2.75 0 0 -2.75 2.75 0 0 -2.76 5.51 0 0 -2.75 2.75 0 0 -2.75 2.75 0 0 -2.75 5.5 0 0 -2.75 19.26 0 0 2.75 2.75 0 0 2.75 5.51 0 0 2.75 2.75 0 0 2.75 2.75 0 0 2.76 2.75 0 0 2.75 2.75 0 0 2.75 2.76 0 0 5.5 2.75 0 0 2.75 2.75 0 0 5.51 2.75 0 0 5.5 2.75 0 0 5.5 2.75 0 0 5.5 2.76 0 0 5.51 2.75 0 0 8.25 2.75 0 0 5.51 2.75 0 0 8.25 2.75 0 0 11.01 2.75 0 0 5.5 2.76 0 0 11.01 2.75 0 0 11 2.75 0 0 13.76 2.75 0 0 8.26 2.75 0 0 16.51 2.75 0 0 16.51 2.76 0 0 22.01 2.75 0 0 24.76 2.75 0 0 96.31 -2.75 0 0 33.01 -2.75 0 0 33.02 -2.76 0 0 16.51 -2.75 0 0 24.77 -2.75 0 0 11.01 -2.75 0 0 13.75 -2.75 0 0 13.76 -2.75 0 0 13.76 -2.76 0 0 13.76 -2.75 0 0 11 -2.75 0 0 16.51 -2.75 0 0 11.01 -2.75 0 0 16.51 -2.75 0 0 13.76 -2.76 0 0 16.51 -2.75 0 0 27.51 -2.75 0 0 41.28 2.75 0 0 11 2.75 0 0 11.01 2.76 0 0 5.5 2.75 0 0 5.51 2.75 0 0 2.74 2.75 0 0 5.51 2.75 0 0 2.75 5.51 0 0 2.75 2.75 0 0 2.75 8.25 0 0 2.75 30.27 0 0 -2.75 8.25 0 0 -2.75 8.26 0 0 -2.75 5.5 0 0 -2.75 5.5 0 0 -2.75 2.76 0 0 -2.76 5.5 0 0 -2.74 2.75 0 0 -2.76 2.75 0 0 -2.75 5.51 0 0 -2.75 2.75 0 0 -2.75 2.75 0 0 -2.75 2.75 0 0 -2.75 2.75 0 0 -2.76 2.75 0 0 -2.75 2.76 0 0 -2.75 2.75 0 0 -2.75 2.75 0 0 -5.5 2.75 0 0 -2.76 2.75 0 0 -2.75 2.75 0 0 -2.75 2.75 0 0 -2.75 2.76 0 0 -5.5 2.75 0 0 -2.76 2.75 0 0 -2.75 2.75 0 0 -5.5 2.75 0 0 -2.75 2.75 0 0 -2.75 2.76 0 0 -5.51 2.75 0 0 -2.75 2.75 0 0 -5.5 2.75 0 0 -2.75 2.75 0 0 -5.51 2.75 0 0 -5.5 2.76 0 0 -2.75 2.75 0 0 -5.5 2.75 0 0 -5.51 2.75 0 0 -5.5 2.75 0 0 -5.5 2.75 0 0 -5.51 2.76 0 0 -5.5 2.74 0 0 -2.75 2.76 0 0 -8.25 2.75 0 0 -2.76 2.75 0 0 -8.25 2.75 0 0 -5.51 2.76 0 0 -5.5 2.75 0 0 -5.5 2.75 0 0 -8.26 2.75 0 0 -5.5 2.75 0 0 -5.5 2.75 0 0 -8.26 2.75 0 0 -8.25 2.75 0 0 -5.51 2.76 0 0 -2.75 2.75 0 0 -11 2.75 0 0 -5.51 2.75 0 0 -5.5 2.75 0 0 -11.01 2.75 0 0 -5.5 2.76 0 0 -5.5 2.75 0 0 -11.01 2.75 0 0 -5.5 2.75 0 0 -8.26 2.75 0 0 -8.25 2.75 0 0 -11.01 2.76 0 0 -11.01 2.75 0 0 -5.5 2.75 0 0 -11.01 2.75 0 0 -8.25 2.75 0 0 -13.76 2.75 0 0 -5.5 2.76 0 0 -11.01 2.75 0 0 -11 2.75 0 0 -8.26 2.75 0 0 -13.76 2.75 0 0 -19.26 2.75 0 0 -8.25 2.75 0 0 -22.01 2.76 0 0 -24.77 2.75 0 0 -33.02 2.75 0 0 -140.33 -2.75 0 0 -38.52 -2.75 0 0 -49.53 -2.76 0 0 -126.57 2.76 0 0 -22.01 2.75 0 0 -22.01 2.75 0 0 -11.01 2.75 0 0 -22.01 2.75 0 0 -11.01 2.75 0 0 -11.01 2.76 0 0 -8.25 2.75 0 0 -16.51 2.75 0 0 -8.26 2.75 0 0 -8.25 2.75 0 0 -5.5 2.75 0 0 -5.51 2.76 0 0 -5.5 2.75 0 0 -8.26 2.75 0 0 -5.5 2.75 0 0 -8.25 2.75 0 0 -5.51 2.75 0 0 -8.25 2.76 0 0 -5.5 2.75 0 0 -8.26 2.75 0 0 -8.25 2.75 0 0 -8.26 2.75 0 0 -5.5 2.75 0 0 -8.26 2.75 0 0 -8.25 2.75 0 0 -8.26 2.76 0 0 -8.25 2.75 0 0 -5.5 2.75 0 0 -13.76 2.75 0 0 -5.5 2.76 0 0 -8.26 2.74 0 0 -16.51 2.76 0 0 -8.25 2.75 0 0 -22.02 2.75 0 0 -24.76 2.75 0 0 -52.28 -2.75 0 0 -16.51 -2.75 0 0 -11.01 -2.75 0 0 -11 -2.76 0 0 -11.01 -2.74 0 0 -5.5 -2.76 0 0 -8.26 -2.75 0 0 -5.5 -2.75 0 0 -5.5 -2.75 0 0 -5.5 -2.76 0 0 -5.51 -2.75 0 0 -5.5 -2.75 0 0 -5.5 -2.75 0 0 -5.51 -2.75 0 0 -5.5 -2.75 0 0 -2.75 -2.75 0 0 -5.51 -2.75 0 0 -2.75 -2.76 0 0 -5.5 -2.75 0 0 -2.75 -2.75 0 0 -2.75 -2.75 0 0 -2.76 -2.75 0 0 -5.5 -2.75 0 0 -2.75 -2.76 0 0 -2.75 -2.75 0 0 -2.75 -2.75 0 0 -2.76 -2.75 0 0 -2.75 -2.75 0 0 -2.75 -2.75 0 0 -2.75 -2.76 0 0 -2.75 -2.75 0 0 -2.75 -2.75 0 0 -2.76 -2.75 0 0 -2.74 -5.5 0 0 -2.76 -2.76 0 0 -2.75 -2.75 0 0 -2.75 -2.75 0 0 -2.75 -5.5 0 0 -2.75 -2.75 0 0 -2.75 -2.75 0 0 -2.76 -5.51 0 0 -2.75 -2.75 0 0 -2.75 -2.75 0 0 -2.75 -5.5 0 0 -2.75 -2.76 0 0 -2.75 -5.5 0 0 -2.76 -5.5 0 0 -2.75 -2.75 0 0 -2.75 -5.51 0 0 -2.75 -5.5 0 0 -2.75 -5.5 0 0 -2.75 -2.76 0 0 -2.76 -5.5 0 0 -2.75 -8.25 0 0 -2.75 -5.5 0 0 -2.75 -5.51 0 0 -2.75 -11 0 0 -2.75 -2.76 0 0 -2.75 -44.02 0 0 2.75 -11.01 0 0 2.75 -5.5 0 0 2.75 -8.26 0 0 2.75 -8.25 0 0 2.75 -5.5 0 0 2.75 -5.51 0 0 2.76 -5.5 0 0 2.75 -5.5 0 0 2.75 -5.51 0 0 2.75 -5.5 0 0 2.75 -8.26 0 0 2.75 -5.5 0 0 2.76 -5.5 0 0 2.75 -2.75 0 0 2.75 -11.01 0 0 2.75 -5.5 0 0 2.75 -5.5 0 0 2.75 -11.01 0 0 2.76 -41.28 0 0 -2.76 -8.25 0 0 -2.75 -11.01 0 0 -2.75 -5.5 0 0 -2.75 -8.25 0 0 -2.75 -8.26 0 0 -2.75 -5.5 0 0 -2.76 -5.51 0 0 -2.75 -8.25 0 0 -2.75 -5.5 0 0 -2.75 -5.51 0 0 -2.75 -5.5 0 0 -2.75 -8.26 0 0 -2.76 -5.5 0 0 -2.75 -5.5 0 0 -2.75 -5.5 0 0 -2.75 -8.26 0 0 -2.75 -5.5 0 0 -2.75 -5.5 0 0 -2.75 -5.51 0 0 -2.76 -11 0 0 -2.75 -5.51 0 0 -2.75 -11 0 0 -2.75 -30.27 0 0 2.75z"/>
 </g>
</svg>
