<?xml version="1.0" encoding="UTF-8"?>
<!DOCTYPE svg PUBLIC "-//W3C//DTD SVG 1.1//EN" "http://www.w3.org/Graphics/SVG/1.1/DTD/svg11.dtd">
<!-- Creator: CorelDRAW (Versión de evaluación) -->
<svg xmlns="http://www.w3.org/2000/svg" xml:space="preserve" width="535px" height="2062px" version="1.1" style="shape-rendering:geometricPrecision; text-rendering:geometricPrecision; image-rendering:optimizeQuality; fill-rule:evenodd; clip-rule:evenodd"
viewBox="0 0 535 2061.35"
 xmlns:xlink="http://www.w3.org/1999/xlink"
 xmlns:xodm="http://www.corel.com/coreldraw/odm/2003">
 <defs>
  <style type="text/css">
   <![CDATA[
    .fil2 {fill:#4B4B4D}
    .fil1 {fill:#F3EDD9}
    .fil0 {fill:#F8FBFF}
   ]]>
  </style>
 </defs>
 <g id="deciduous">
  <metadata id="CorelCorpID_0Corel-Layer"/>
  <path id="crown" class="fil0" d="M27.55 1551.56c-0.57,93.84 20.17,123.3 115.58,135.46 80.72,10.3 157.94,3.37 237.42,12.55 112.86,13.03 127.82,-2.29 125.66,-120.39 -1.44,-78.25 -6.31,-138.74 -27.42,-207.18 -67.45,-218.71 -353.02,-285.51 -417.32,-55.14 -18.05,64.66 -33.5,166.28 -33.92,234.7z"/>
  <path id="root" class="fil1" d="M198.61 551.2l-21 303.38 -38.53 310.29c52.96,-10.75 71.62,-27.13 141.84,-14.66 52.6,9.33 86.27,34.5 121.78,57.54 -3.56,-34.16 -12.66,-71.36 -18.04,-105.61 -5.75,-36.65 -9.28,-70.23 -14.26,-106.69l-52.62 -437.88c-7.37,-60.38 -14.79,-174.13 -53.22,-198.13 -49.47,22.53 -61.54,126.51 -65.95,191.76z"/>
  <path id="outline" class="fil2" d="M27.55 1551.56c0.42,-68.42 15.87,-170.04 33.92,-234.7 64.3,-230.37 349.87,-163.57 417.32,55.14 21.11,68.44 25.98,128.93 27.42,207.18 2.16,118.1 -12.8,133.42 -125.66,120.39 -79.48,-9.18 -156.7,-2.25 -237.42,-12.55 -95.41,-12.16 -116.15,-41.62 -115.58,-135.46zm171.06 -1000.36c4.41,-65.25 16.48,-169.23 65.95,-191.76 38.43,24 45.85,137.75 53.22,198.13l52.62 437.88c4.98,36.46 8.51,70.04 14.26,106.69 5.38,34.25 14.48,71.45 18.04,105.61 -35.51,-23.04 -69.18,-48.21 -121.78,-57.54 -70.22,-12.47 -88.88,3.91 -141.84,14.66l38.53 -310.29 21 -303.38zm52.31 -218.02c-90.06,31.03 -88.33,331.87 -93.76,410.71l-37.32 356.06c-5.15,37.42 -4.34,79.5 -26.4,102.9 -44.22,46.88 -60.94,99.61 -74.68,176.5 -10.66,59.65 -25.68,168.09 -16.03,226.1 12.11,72.79 54.03,100.04 137.93,109.48 80.28,9.03 155.36,5.1 233.03,12.78 87.95,8.7 141.03,13.79 155.8,-78.34 10.61,-66.2 3.11,-155.76 -7.34,-217.62 -10.12,-59.87 -36.58,-130.77 -66.4,-166.67 -26.44,-31.83 -21.41,-36.41 -29.23,-86.87l-66.52 -498.85c-7.66,-66.43 -14.99,-135.02 -24.76,-201.24 -7.19,-48.68 -26.05,-165.01 -84.32,-144.94z"/>
 </g>
</svg>
