<?xml version="1.0" encoding="UTF-8"?>
<!DOCTYPE svg PUBLIC "-//W3C//DTD SVG 1.1//EN" "http://www.w3.org/Graphics/SVG/1.1/DTD/svg11.dtd">
<!-- Creator: CorelDRAW (Versión de evaluación) -->
<svg xmlns="http://www.w3.org/2000/svg" xml:space="preserve" width="1013px" height="2052px" version="1.1" style="shape-rendering:geometricPrecision; text-rendering:geometricPrecision; image-rendering:optimizeQuality; fill-rule:evenodd; clip-rule:evenodd"
viewBox="0 0 1013 2051.17"
 xmlns:xlink="http://www.w3.org/1999/xlink"
 xmlns:xodm="http://www.corel.com/coreldraw/odm/2003">
 <defs>
  <style type="text/css">
   <![CDATA[
    .fil2 {fill:#4B4B4D}
    .fil1 {fill:#F1EAD5}
    .fil0 {fill:#F8F9FD}
   ]]>
  </style>
 </defs>
 <g id="deciduous">
  <metadata id="CorelCorpID_0Corel-Layer"/>
  <path id="crown" class="fil0" d="M404.63 228.27c10.38,-30.17 -3.84,-72.91 6.13,-92.2 11.09,-21.46 48.59,-40.78 69.4,-46.11l29.95 -8.39c12.17,-3.32 5.11,-3.99 17,-7.77 8.05,-2.56 11.68,-2.5 19.36,-6.41 7.66,-3.9 11.6,-4.87 17.69,-7.7 20.28,-9.43 40.59,-16.42 63.98,-11.31 20.32,4.45 95.02,74.36 107.57,89.39 5.66,6.78 4.13,6.08 11.7,12.53 24.93,21.27 17.07,46.29 18,77.74 0.33,10.97 2.84,9.47 3.51,20.12 1.65,26 -4.25,18.59 7.18,39.11 33.99,-7.35 6.21,-112.64 10.71,-124.16 3.43,-8.77 19.71,-13.47 26.78,-18.98 86.82,-67.59 135.43,-90.84 164.42,38.44l9.46 118.03c-0.81,24.88 -15.48,97.76 -24.63,117.6 -14.3,30.99 -28.75,60.57 -53.9,83.7 -5.94,5.47 -7.3,5.55 -13.04,10.23 -5.45,4.43 -7.03,7.57 -11.81,11.3 -10.78,8.43 -32.42,19.1 -46.45,22.66 -27.9,7.08 -29.55,7.41 -60.83,8.08 -17.83,0.38 -22.12,4.2 -40.12,4.63l-108.02 2.22c-20.27,1 -5.74,1.71 -16.45,6.24 -8.09,3.43 -12.78,0.93 -21.38,1.72 -17.16,1.59 -1.63,2.39 -15.87,6.36 -7.9,2.19 -13.03,-0.21 -20.43,2.67 -7.23,2.81 -2.89,5.1 -14.94,6.64 -14.18,1.81 -6.86,-1.88 -19.39,4.13 -11.51,5.51 -4.68,2.46 -18.38,3.73 -13.69,1.28 -8.68,2.81 -17.33,5.84 -8.44,2.97 -10.93,0.4 -19.94,2.89 -6.57,1.83 -6.26,4.48 -16.84,5.68 -7.62,0.87 -13.32,-0.18 -21.65,1.24 -6.32,1.08 -11.35,3.75 -18.66,4.78l-62.15 2.58c-44.97,-2.05 -40.75,-6.32 -59.36,-8.39 -12.7,-1.41 -21.78,-5.85 -33.93,-9.67 -7.55,-2.38 -6.11,-3.24 -14.85,-6.98 -59.81,-25.65 -95.54,-77.64 -128.84,-130.45l-32 -54.87c-3.26,-5.83 -1.78,-2.01 -4.51,-7.44 -13.51,-26.74 -23.73,-57.3 -30.9,-85.81 -1.87,-7.46 -1.77,-11.08 -3.42,-18.12 -2.39,-10.2 -3.49,-3.24 -4.12,-18.05 -0.65,-15.39 -1.32,-22.88 -3.75,-36.1 -3.44,-18.73 -0.24,-68.79 10.15,-83.15 11.04,-15.27 24.24,-18.51 39.42,-27.18l120.8 -63.44c32.7,-17.89 61.35,18.2 99.62,34.82 9.03,3.92 0.12,-0.24 6.46,3.47l43.88 19.81c9.7,3.2 5.99,4.12 15.13,7.46 18.81,6.87 14.7,3.87 20.65,22.63 3.91,12.31 1.65,26.92 2.4,41.6 0.87,17 1.51,0.26 4.78,15.47 1.59,7.39 -1.13,8.93 1.68,16.39l10.08 0.75z"/>
  <path id="root" class="fil1" d="M144.67 888.56c1.82,-28.08 2.33,-60.14 5.86,-87.67 1.82,-14.27 5.48,-22.88 7,-37.31l6.7 -87.73c0.16,-7.09 0.52,-15.07 0.03,-20.98 -1.02,-12.16 -2.18,-8.71 -3.76,-15.31 -4.05,-16.92 -0.98,-40.47 -4.4,-57.63 -2.06,-10.29 -4.45,-0.3 -3.51,-16.66 13.56,4.4 33.31,23.98 47.93,33.72l17.05 10.34c6.32,2.79 10.92,5.52 17.66,8.73 39.2,18.68 124.59,34.94 164.55,23.33l46.54 -7.81c18.32,-4.47 24.48,-2.92 43.05,-10.29 6.4,-2.54 16.42,-3.53 23.2,-5.2 41.12,-10.09 66.47,-22.63 111.89,-26.85 12.91,-1.2 12.83,-4.91 21.06,-6.39 5.64,-1.01 18.11,-0.17 24.42,-0.12 21.6,0.19 92.48,1.8 109.49,-1.66 10.38,-2.12 11.03,-5 21.27,-6.14 37.72,-4.18 9.65,-0.03 36.31,-6.95 5.05,-1.31 5.65,-0.45 10.75,-2.13l8.64 -4.41c5.49,-2.35 -1.2,-2.56 8.88,-1.6 -0.66,18.12 -0.72,35.44 -0.63,51.79 0.12,21.99 1.06,52.73 5.9,70.94 2.82,10.58 -0.11,15.14 1.37,24.98l19.92 81.42c3.35,13.82 5.75,27.82 9.77,40.62l14.21 63.98c6.46,40.6 11.08,40.95 13.57,88 0.47,8.95 2.58,11.24 3.14,21.06 4.03,70.53 2.49,248.73 -41.55,285.76 -19.44,-7.99 -22.48,-82.32 -29.19,-107.84l-2.9 -25.54c-1.75,-9.1 -1.48,-0.36 -2.63,-11.14 -1.33,-12.49 -0.41,-17.59 -3.9,-27.46 -3,-8.47 -0.64,-15.39 -3.74,-25.27l-6.67 -23.96c-3.58,-8.37 -4.98,-15.96 -7.99,-23.63 -7.95,-20.22 -55.74,-97.19 -67.55,-112.55l-38.31 -55.9c-4.33,-9.93 -3.81,-11.12 -9.41,-19.34l-17.51 -28.55c-22.84,-41.57 -47.7,-79.41 -88.6,-106.82 -43.67,-29.26 -102.45,-31.32 -154.06,-18.3 -18.35,4.63 -29.4,11.1 -43.73,20.55 -15.92,10.5 -23.02,14.03 -36.68,27.71 -17.3,17.34 -29.53,35.18 -43.11,55.28 -14.22,21.04 -17.81,49.07 -26.28,71.08 -19.66,51.12 -29.17,180.98 -29.34,232.61 -0.04,13.05 2.79,13.19 2.77,27.28 -0.03,24.44 6.11,40.69 10.42,64.2l42.95 135.65c2.87,7.75 1.17,0 3.45,10.58 4.05,18.84 10.18,28.35 6.4,51.61 -9.05,-0.35 -23.05,-10.34 -29.48,-15.41 -11.25,-8.87 -15.54,-14.58 -23.93,-22.29 -36.65,-33.68 -95.73,-137.43 -111.81,-190.96 -0.67,-2.25 -1.78,-5.04 -2.48,-7.32l-7.7 -27.96c-2.55,-9.54 -0.23,-1 -2.73,-7.43 -11.32,-29.11 -15.55,-76.14 -22.1,-109.93 -7.87,-40.68 -3.2,-88.49 -0.47,-130.78z"/>
  <path id="outline" class="fil2" d="M144.67 888.56c-2.73,42.29 -7.4,90.1 0.47,130.78 6.55,33.79 10.78,80.82 22.1,109.93 2.5,6.43 0.18,-2.11 2.73,7.43l7.7 27.96c0.7,2.28 1.81,5.07 2.48,7.32 16.08,53.53 75.16,157.28 111.81,190.96 8.39,7.71 12.68,13.42 23.93,22.29 6.43,5.07 20.43,15.06 29.48,15.41 3.78,-23.26 -2.35,-32.77 -6.4,-51.61 -2.28,-10.58 -0.58,-2.83 -3.45,-10.58l-42.95 -135.65c-4.31,-23.51 -10.45,-39.76 -10.42,-64.2 0.02,-14.09 -2.81,-14.23 -2.77,-27.28 0.17,-51.63 9.68,-181.49 29.34,-232.61 8.47,-22.01 12.06,-50.04 26.28,-71.08 13.58,-20.1 25.81,-37.94 43.11,-55.28 13.66,-13.68 20.76,-17.21 36.68,-27.71 14.33,-9.45 25.38,-15.92 43.73,-20.55 51.61,-13.02 110.39,-10.96 154.06,18.3 40.9,27.41 65.76,65.25 88.6,106.82l17.51 28.55c5.6,8.22 5.08,9.41 9.41,19.34l38.31 55.9c11.81,15.36 59.6,92.33 67.55,112.55 3.01,7.67 4.41,15.26 7.99,23.63l6.67 23.96c3.1,9.88 0.74,16.8 3.74,25.27 3.49,9.87 2.57,14.97 3.9,27.46 1.15,10.78 0.88,2.04 2.63,11.14l2.9 25.54c6.71,25.52 9.75,99.85 29.19,107.84 44.04,-37.03 45.58,-215.23 41.55,-285.76 -0.56,-9.82 -2.67,-12.11 -3.14,-21.06 -2.49,-47.05 -7.11,-47.4 -13.57,-88l-14.21 -63.98c-4.02,-12.8 -6.42,-26.8 -9.77,-40.62l-19.92 -81.42c-1.48,-9.84 1.45,-14.4 -1.37,-24.98 -4.84,-18.21 -5.78,-48.95 -5.9,-70.94 -0.09,-16.35 -0.03,-33.67 0.63,-51.79 -10.08,-0.96 -3.39,-0.75 -8.88,1.6l-8.64 4.41c-5.1,1.68 -5.7,0.82 -10.75,2.13 -26.66,6.92 1.41,2.77 -36.31,6.95 -10.24,1.14 -10.89,4.02 -21.27,6.14 -17.01,3.46 -87.89,1.85 -109.49,1.66 -6.31,-0.05 -18.78,-0.89 -24.42,0.12 -8.23,1.48 -8.15,5.19 -21.06,6.39 -45.42,4.22 -70.77,16.76 -111.89,26.85 -6.78,1.67 -16.8,2.66 -23.2,5.2 -18.57,7.37 -24.73,5.82 -43.05,10.29l-46.54 7.81c-39.96,11.61 -125.35,-4.65 -164.55,-23.33 -6.74,-3.21 -11.34,-5.94 -17.66,-8.73l-17.05 -10.34c-14.62,-9.74 -34.37,-29.32 -47.93,-33.72 -0.94,16.36 1.45,6.37 3.51,16.66 3.42,17.16 0.35,40.71 4.4,57.63 1.58,6.6 2.74,3.15 3.76,15.31 0.49,5.91 0.13,13.89 -0.03,20.98l-6.7 87.73c-1.52,14.43 -5.18,23.04 -7,37.31 -3.53,27.53 -4.04,59.59 -5.86,87.67zm259.96 -660.29l-10.08 -0.75c-2.81,-7.46 -0.09,-9 -1.68,-16.39 -3.27,-15.21 -3.91,1.53 -4.78,-15.47 -0.75,-14.68 1.51,-29.29 -2.4,-41.6 -5.95,-18.76 -1.84,-15.76 -20.65,-22.63 -9.14,-3.34 -5.43,-4.26 -15.13,-7.46l-43.88 -19.81c-6.34,-3.71 2.57,0.45 -6.46,-3.47 -38.27,-16.62 -66.92,-52.71 -99.62,-34.82l-120.8 63.44c-15.18,8.67 -28.38,11.91 -39.42,27.18 -10.39,14.36 -13.59,64.42 -10.15,83.15 2.43,13.22 3.1,20.71 3.75,36.1 0.63,14.81 1.73,7.85 4.12,18.05 1.65,7.04 1.55,10.66 3.42,18.12 7.17,28.51 17.39,59.07 30.9,85.81 2.73,5.43 1.25,1.61 4.51,7.44l32 54.87c33.3,52.81 69.03,104.8 128.84,130.45 8.74,3.74 7.3,4.6 14.85,6.98 12.15,3.82 21.23,8.26 33.93,9.67 18.61,2.07 14.39,6.34 59.36,8.39l62.15 -2.58c7.31,-1.03 12.34,-3.7 18.66,-4.78 8.33,-1.42 14.03,-0.37 21.65,-1.24 10.58,-1.2 10.27,-3.85 16.84,-5.68 9.01,-2.49 11.5,0.08 19.94,-2.89 8.65,-3.03 3.64,-4.56 17.33,-5.84 13.7,-1.27 6.87,1.78 18.38,-3.73 12.53,-6.01 5.21,-2.32 19.39,-4.13 12.05,-1.54 7.71,-3.83 14.94,-6.64 7.4,-2.88 12.53,-0.48 20.43,-2.67 14.24,-3.97 -1.29,-4.77 15.87,-6.36 8.6,-0.79 13.29,1.71 21.38,-1.72 10.71,-4.53 -3.82,-5.24 16.45,-6.24l108.02 -2.22c18,-0.43 22.29,-4.25 40.12,-4.63 31.28,-0.67 32.93,-1 60.83,-8.08 14.03,-3.56 35.67,-14.23 46.45,-22.66 4.78,-3.73 6.36,-6.87 11.81,-11.3 5.74,-4.68 7.1,-4.76 13.04,-10.23 25.15,-23.13 39.6,-52.71 53.9,-83.7 9.15,-19.84 23.82,-92.72 24.63,-117.6l-9.46 -118.03c-28.99,-129.28 -77.6,-106.03 -164.42,-38.44 -7.07,5.51 -23.35,10.21 -26.78,18.98 -4.5,11.52 23.28,116.81 -10.71,124.16 -11.43,-20.52 -5.53,-13.11 -7.18,-39.11 -0.67,-10.65 -3.18,-9.15 -3.51,-20.12 -0.93,-31.45 6.93,-56.47 -18,-77.74 -7.57,-6.45 -6.04,-5.75 -11.7,-12.53 -12.55,-15.03 -87.25,-84.94 -107.57,-89.39 -23.39,-5.11 -43.7,1.88 -63.98,11.31 -6.09,2.83 -10.03,3.8 -17.69,7.7 -7.68,3.91 -11.31,3.85 -19.36,6.41 -11.89,3.78 -4.83,4.45 -17,7.77l-29.95 8.39c-20.81,5.33 -58.31,24.65 -69.4,46.11 -9.97,19.29 4.25,62.03 -6.13,92.2zm-42.96 1195.62l-39.27 0 -27.83 -21.08c-19.26,-13.84 -35.24,-36.26 -49.09,-52.59 -3.57,-4.21 -6.27,-7.81 -10.63,-13.57l-10.35 -16.35c-2.85,-4.83 -1.41,-1.89 -5.07,-6.81l-11.1 -17.64c-10.87,-17.04 -25.72,-42.55 -31.9,-61.64l-2.63 -9.29c-0.23,-0.53 -0.59,-1.13 -0.85,-1.64 -0.25,-0.5 -0.69,-1.04 -0.95,-1.52l-24.29 -64.47c-3.55,-11.37 -5.88,-11.12 -8.02,-23.58 -3.3,-19.15 -12.41,-41.48 -13.16,-62.48 -0.48,-13.29 -2.39,-10.48 -3.69,-20.37 -1.27,-9.69 0.99,-15 -1.14,-24.69 -4.12,-18.68 -1.54,-27.72 -3.39,-46.94 -2.69,-28.02 -4.33,-5.95 -1.9,-48.15l11.17 -155.22c1.51,-14.71 7.25,-25.64 8.5,-47.4 1.14,-20 7.88,-56.68 1.07,-74.1 -5.88,-15.04 -2.87,-46.64 -8.9,-65.17 -3.66,-11.24 -2.33,-8.21 -3.77,-20.49l-9.1 -40.76c-3.5,-20.93 -8.35,-16.23 -16.22,-33.75 -4.93,-10.98 -14.92,-18.77 -20.5,-30.14 -13.31,-27.13 -34.67,-52.01 -43.72,-81.37l-6.98 -16.75c-3.8,-9.87 0.87,-9.46 -5.28,-20.93 -3.55,-6.62 -4.64,-8.88 -6.49,-17.67 -2.5,-11.87 -4.77,-12.79 -5.96,-19.74 -1.56,-9.16 0.99,-13.87 -1.86,-22.25 -3.41,-10.03 -4.03,-4.18 -3.97,-21.85 0.02,-7.79 0.53,-14.49 -1.8,-21.44 -4.71,-14.05 -2.65,-32.02 -1.56,-48.95 2.65,-41.3 19.72,-60.79 55.96,-82.1l50.69 -26.23c16.93,-8.99 34.44,-14.76 51.12,-25.47l17.79 -10.55c48.03,-25.49 43.28,-26.48 91.05,4.16l46.83 26.76c23.66,10.7 48.05,27.26 75.22,27.69 20.07,0.32 25.19,-14.26 51.94,-29.19 10.21,-5.71 23.93,-12.92 36.85,-16.29l60.38 -18.89c39.47,-16.5 66.74,-37.88 109.33,-15.56 7.47,3.91 0.89,0.1 6.72,5.16 9.35,8.13 7.21,2.85 17.54,9.37 4.98,3.15 8.12,8.21 12.26,11.77l27.54 23.8c7.73,8.62 18.42,14.03 26.19,22.52 14.17,15.51 9.95,12.58 28.21,22.88 21.34,12.03 27.18,4.46 45.69,-9.4 22.69,-16.99 22.45,-22.11 53.55,-39.09 14.52,-7.93 49.68,-16 65.03,-12.18l24.92 11.93c1.94,1.75 5.52,5.05 7.54,7.01 32.82,31.95 29.84,64.16 37.85,87.03 3.65,10.41 0.76,14.95 3.1,23.49 2.54,9.26 5.01,-0.56 4.84,18.71 -0.08,8.75 -1.24,17.94 -0.92,26.73 0.78,21.12 5.79,13.96 4,43.52 -1.51,24.88 -1.45,82.79 -8.29,104.45 -4.05,12.82 -3.72,-2.64 -6.87,18.09 -2.26,14.96 -9.85,28.12 -15.92,39.73 -2.78,5.3 -5.09,10.85 -8.73,17.32 -4.89,8.69 -2.91,7.97 -10.25,15.87l-57.45 64.46c-2.7,3.49 -5.15,6.11 -6.67,8.35 -15.35,22.49 -6.85,90.43 -5.06,119.3l22.05 103.66c5.72,13.75 23.5,114.66 26.45,123.75 8.34,25.7 10.83,54.32 13.35,84.83 1.63,19.82 4.94,4.67 3.85,45.82 -0.43,15.98 2.04,27.59 1.07,47.36 -2.8,57.49 -7.86,116.09 -18.11,172.69 -3.1,17.09 -17.65,40.64 -26.39,55.13 -6.21,10.3 -22.13,18.37 -37.45,14.03 -22.43,-6.35 -29.8,-46.09 -33.38,-67.35 -1.62,-9.6 -2,-11.65 -2.3,-21.97 -0.46,-15.75 -2.9,-10.36 -4.41,-20.59l-4.62 -46.31c-1.26,-8.71 -2.14,-9.09 -2.8,-20.63 -1,-17.46 -3.52,-9.83 -5.43,-20.57 -1.85,-10.4 1.63,-11.85 -2.28,-21.63l-5.86 -20.45c-1.56,-3.94 -5.68,-8.05 -7.8,-15.58l-24.6 -50.05c-14.12,-20 -24.24,-42.09 -40.21,-61.23l-25.94 -38.96c-1.59,-2.39 -1.55,-2.15 -3.33,-4.09 -9.99,-10.97 -4.59,-2.07 -10.02,-16.76 -2.59,-7.01 -4.21,-6.44 -8.97,-14.76 -4.44,-7.77 -4.65,-8.51 -8.81,-17.51 -7.9,-17.1 -20.33,-30.4 -28.74,-46.28 -6.11,-11.53 -33.95,-45.69 -44.89,-53.96l-2.8 -1.94c-0.42,-0.29 -1.03,-0.67 -1.45,-0.97l-65.46 -30.04c-15.45,-1.99 -66.37,-1.05 -77.43,2.9 -39.23,14.01 -68.29,35.81 -92.35,66.29l-20.31 34.63c-9.81,16.45 -23.34,61.49 -27.12,82.45 -1.4,7.79 -1.61,15.83 -3.64,23.06 -7.51,26.86 -7.67,43.28 -11.99,69.29 -9.52,57.3 -6.2,110.77 1.41,165.6l28.16 96.84c5.84,20.42 10.33,39.46 18.7,58.12 0.24,0.51 0.58,1.13 0.83,1.62 5.55,11.08 14.5,42.9 14.7,56.5 0.08,5.15 -0.64,20.31 -1.8,25.04 -2.73,11.14 -6.07,7.18 -11.23,17.66z"/>
 </g>
</svg>
