<?xml version="1.0" encoding="UTF-8"?>
<!DOCTYPE svg PUBLIC "-//W3C//DTD SVG 1.1//EN" "http://www.w3.org/Graphics/SVG/1.1/DTD/svg11.dtd">
<!-- Creator: CorelDRAW (Versión de evaluación) -->
<svg xmlns="http://www.w3.org/2000/svg" xml:space="preserve" width="391px" height="2052px" version="1.1" style="shape-rendering:geometricPrecision; text-rendering:geometricPrecision; image-rendering:optimizeQuality; fill-rule:evenodd; clip-rule:evenodd"
viewBox="0 0 391 2053.4"
 xmlns:xlink="http://www.w3.org/1999/xlink"
 xmlns:xodm="http://www.corel.com/coreldraw/odm/2003">
 <defs>
  <style type="text/css">
   <![CDATA[
    .fil2 {fill:#4B4B4D}
    .fil1 {fill:#F3EDD9}
    .fil0 {fill:#F8FBFF}
   ]]>
  </style>
 </defs>
 <g id="deciduous">
  <metadata id="CorelCorpID_0Corel-Layer"/>
  <polygon id="crown" class="fil0" points="178.33,308.25 142.53,308.25 142.53,311.01 109.49,311.01 109.49,313.76 98.48,313.76 98.48,316.51 81.95,316.51 81.95,319.27 70.94,319.27 70.94,322.02 65.43,322.02 65.43,324.77 59.93,324.77 59.93,327.53 54.42,327.53 54.42,330.28 48.91,330.28 48.91,333.04 46.16,333.04 46.16,335.79 43.41,335.79 43.41,338.54 40.65,338.54 40.65,341.29 37.9,341.29 37.9,344.05 35.15,344.05 35.15,349.56 32.39,349.56 32.39,355.06 29.64,355.06 29.64,366.08 26.88,366.08 26.88,377.09 24.13,377.09 24.13,388.11 21.38,388.11 21.38,467.96 24.13,467.96 24.13,492.74 26.88,492.74 26.88,523.03 29.64,523.03 29.64,553.31 32.39,553.31 32.39,564.33 35.15,564.33 35.15,580.85 37.9,580.85 37.9,591.87 40.65,591.87 40.65,605.63 43.41,605.63 43.41,619.4 46.16,619.4 46.16,635.92 48.91,635.92 48.91,646.93 51.67,646.93 51.67,660.7 54.42,660.7 54.42,668.96 57.17,668.96 57.17,685.48 59.93,685.48 59.93,696.5 62.68,696.5 62.68,702 65.43,702 65.43,713.02 68.19,713.02 68.19,724.03 70.94,724.03 70.94,732.29 73.69,732.29 73.69,746.06 76.45,746.06 76.45,754.32 79.2,754.32 79.2,759.83 81.95,759.83 81.95,768.09 84.71,768.09 84.71,773.6 87.46,773.6 87.46,781.86 90.21,781.86 90.21,787.36 92.97,787.36 92.97,795.62 95.72,795.62 95.72,801.13 98.48,801.13 98.48,806.64 101.23,806.64 101.23,812.15 103.98,812.15 103.98,817.65 106.74,817.65 106.74,823.16 109.49,823.16 109.49,828.67 112.24,828.67 112.24,831.42 115,831.42 115,836.93 117.75,836.93 117.75,839.68 120.5,839.68 120.5,845.19 123.26,845.19 123.26,847.94 126.01,847.94 126.01,850.69 128.76,850.69 128.76,856.2 131.52,856.2 131.52,858.95 134.27,858.95 134.27,861.71 137.02,861.71 137.02,864.46 139.78,864.46 139.78,867.21 142.53,867.21 142.53,869.97 145.28,869.97 145.28,872.72 150.79,872.72 150.79,875.47 153.54,875.47 153.54,878.23 156.3,878.23 156.3,880.98 161.8,880.98 161.8,883.74 167.31,883.74 167.31,886.49 172.82,886.49 172.82,889.24 178.33,889.24 178.33,892 214.12,892 214.12,889.24 222.38,889.24 222.38,886.49 227.89,886.49 227.89,883.74 233.4,883.74 233.4,880.98 238.9,880.98 238.9,878.23 241.66,878.23 241.66,875.47 244.41,875.47 244.41,872.72 247.17,872.72 247.17,869.97 249.92,869.97 249.92,867.21 252.67,867.21 252.67,864.46 255.42,864.46 255.42,861.71 258.18,861.71 258.18,858.95 260.93,858.95 260.93,856.2 263.69,856.2 263.69,853.45 266.44,853.45 266.44,850.69 269.19,850.69 269.19,845.19 271.95,845.19 271.95,842.43 274.7,842.43 274.7,836.93 277.45,836.93 277.45,831.42 280.21,831.42 280.21,825.91 282.96,825.91 282.96,823.16 285.71,823.16 285.71,814.9 288.47,814.9 288.47,809.39 291.22,809.39 291.22,803.89 293.97,803.89 293.97,798.38 296.73,798.38 296.73,792.87 299.48,792.87 299.48,787.36 302.23,787.36 302.23,779.1 304.99,779.1 304.99,770.84 307.74,770.84 307.74,765.34 310.49,765.34 310.49,759.83 313.25,759.83 313.25,748.82 316,748.82 316,743.31 318.75,743.31 318.75,732.29 321.51,732.29 321.51,724.03 324.26,724.03 324.26,713.02 327.02,713.02 327.02,702 329.77,702 329.77,688.24 332.52,688.24 332.52,679.98 335.28,679.98 335.28,666.21 338.03,666.21 338.03,655.2 340.79,655.2 340.79,641.43 343.54,641.43 343.54,627.66 346.29,627.66 346.29,616.65 349.05,616.65 349.05,600.13 351.8,600.13 351.8,583.6 354.55,583.6 354.55,564.33 357.31,564.33 357.31,545.05 360.06,545.05 360.06,520.27 362.81,520.27 362.81,484.48 365.57,484.48 365.57,363.33 362.81,363.33 362.81,349.56 360.06,349.56 360.06,341.29 357.31,341.29 357.31,335.79 354.55,335.79 354.55,330.28 351.8,330.28 351.8,327.53 349.05,327.53 349.05,324.77 346.29,324.77 346.29,322.02 343.54,322.02 343.54,319.27 338.03,319.27 338.03,316.51 332.52,316.51 332.52,313.76 321.51,313.76 321.51,311.01 299.48,311.01 299.48,308.25 271.95,308.25 271.95,305.5 178.33,305.5 "/>
  <polygon id="root" class="fil1" points="307.74,831.42 304.99,831.42 304.99,836.93 302.23,836.93 302.23,842.43 299.48,842.43 299.48,845.19 296.73,845.19 296.73,850.69 293.97,850.69 293.97,856.2 291.22,856.2 291.22,858.95 288.47,858.95 288.47,861.71 285.71,861.71 285.71,867.21 282.96,867.21 282.96,869.97 280.21,869.97 280.21,872.72 277.45,872.72 277.45,878.23 274.7,878.23 274.7,880.98 271.95,880.98 271.95,883.74 269.19,883.74 269.19,886.49 266.44,886.49 266.44,889.24 263.69,889.24 263.69,892 258.18,892 258.18,894.75 255.42,894.75 255.42,897.51 252.67,897.51 252.67,900.26 247.17,900.26 247.17,903.01 244.41,903.01 244.41,905.77 238.9,905.77 238.9,908.52 233.4,908.52 233.4,911.27 225.14,911.27 225.14,914.03 214.12,914.03 214.12,916.78 178.33,916.78 178.33,914.03 170.07,914.03 170.07,911.27 164.56,911.27 164.56,908.52 159.05,908.52 159.05,905.77 153.54,905.77 153.54,903.01 148.04,903.01 148.04,900.26 142.53,900.26 142.53,897.51 139.78,897.51 139.78,894.75 137.02,894.75 137.02,892 131.52,892 131.52,889.24 128.76,889.24 128.76,886.49 126.01,886.49 126.01,883.74 123.26,883.74 123.26,880.98 120.5,880.98 120.5,878.23 117.75,878.23 117.75,875.47 115,875.47 115,872.72 112.24,872.72 112.24,869.97 109.49,869.97 109.49,867.21 106.74,867.21 106.74,861.71 103.98,861.71 103.98,858.95 101.23,858.95 101.23,856.2 98.48,856.2 98.48,850.69 95.72,850.69 95.72,847.94 92.97,847.94 92.97,842.43 90.21,842.43 90.21,839.68 87.46,839.68 87.46,856.2 90.21,856.2 90.21,911.27 92.97,911.27 92.97,933.3 95.72,933.3 95.72,977.36 98.48,977.36 98.48,1054.46 101.23,1054.46 101.23,1115.03 103.98,1115.03 103.98,1159.09 106.74,1159.09 106.74,1194.88 109.49,1194.88 109.49,1230.68 112.24,1230.68 112.24,1252.7 115,1252.7 115,1280.24 117.75,1280.24 117.75,1318.79 120.5,1318.79 120.5,1343.57 123.26,1343.57 123.26,1365.6 126.01,1365.6 126.01,1382.12 128.76,1382.12 128.76,1401.39 131.52,1401.39 131.52,1417.92 134.27,1417.92 134.27,1434.44 137.02,1434.44 137.02,1450.96 139.78,1450.96 139.78,1478.49 142.53,1478.49 142.53,1497.77 145.28,1497.77 145.28,1525.3 148.04,1525.3 148.04,1547.33 150.79,1547.33 150.79,1566.61 153.54,1566.61 153.54,1588.64 156.3,1588.64 156.3,1599.65 159.05,1599.65 159.05,1621.68 161.8,1621.68 161.8,1640.95 164.56,1640.95 164.56,1657.47 167.31,1657.47 167.31,1671.24 170.07,1671.24 170.07,1687.76 172.82,1687.76 172.82,1698.77 175.57,1698.77 175.57,1712.54 178.33,1712.54 178.33,1720.8 181.08,1720.8 181.08,1726.31 183.83,1726.31 183.83,1731.81 186.59,1731.81 186.59,1737.33 189.34,1737.33 189.34,1742.83 192.1,1742.83 192.1,1745.58 194.85,1745.58 194.85,1748.34 208.62,1748.34 208.62,1745.58 211.37,1745.58 211.37,1742.83 214.12,1742.83 214.12,1740.08 216.88,1740.08 216.88,1734.57 219.63,1734.57 219.63,1729.06 222.38,1729.06 222.38,1723.56 225.14,1723.56 225.14,1715.29 227.89,1715.29 227.89,1701.53 230.64,1701.53 230.64,1693.27 233.4,1693.27 233.4,1679.5 236.15,1679.5 236.15,1671.24 238.9,1671.24 238.9,1657.47 241.66,1657.47 241.66,1635.44 244.41,1635.44 244.41,1624.43 247.17,1624.43 247.17,1602.4 249.92,1602.4 249.92,1583.13 252.67,1583.13 252.67,1569.36 255.42,1569.36 255.42,1547.33 258.18,1547.33 258.18,1528.06 260.93,1528.06 260.93,1519.8 263.69,1519.8 263.69,1489.51 266.44,1489.51 266.44,1470.23 269.19,1470.23 269.19,1459.22 271.95,1459.22 271.95,1428.93 274.7,1428.93 274.7,1415.16 277.45,1415.16 277.45,1393.13 280.21,1393.13 280.21,1362.85 282.96,1362.85 282.96,1340.82 285.71,1340.82 285.71,1285.75 288.47,1285.75 288.47,1249.95 291.22,1249.95 291.22,1205.9 293.97,1205.9 293.97,1156.33 296.73,1156.33 296.73,1076.48 299.48,1076.48 299.48,1004.89 302.23,1004.89 302.23,925.04 304.99,925.04 304.99,878.23 307.74,878.23 307.74,847.94 310.49,847.94 310.49,828.67 307.74,828.67 "/>
  <path id="outline" class="fil2" d="M307.74 878.23l-2.75 0 0 46.81 -2.76 0 0 79.85 -2.75 0 0 71.59 -2.75 0 0 79.85 -2.76 0 0 49.57 -2.75 0 0 44.05 -2.75 0 0 35.8 -2.76 0 0 55.07 -2.75 0 0 22.03 -2.75 0 0 30.28 -2.76 0 0 22.03 -2.75 0 0 13.77 -2.75 0 0 30.29 -2.76 0 0 11.01 -2.75 0 0 19.28 -2.75 0 0 30.29 -2.76 0 0 8.26 -2.75 0 0 19.27 -2.76 0 0 22.03 -2.75 0 0 13.77 -2.75 0 0 19.27 -2.75 0 0 22.03 -2.76 0 0 11.01 -2.75 0 0 22.03 -2.76 0 0 13.77 -2.75 0 0 8.26 -2.75 0 0 13.77 -2.76 0 0 8.26 -2.75 0 0 13.76 -2.75 0 0 8.27 -2.76 0 0 5.5 -2.75 0 0 5.51 -2.75 0 0 5.51 -2.76 0 0 2.75 -2.75 0 0 2.75 -2.75 0 0 2.76 -13.77 0 0 -2.76 -2.75 0 0 -2.75 -2.76 0 0 -5.5 -2.75 0 0 -5.52 -2.76 0 0 -5.5 -2.75 0 0 -5.51 -2.75 0 0 -8.26 -2.76 0 0 -13.77 -2.75 0 0 -11.01 -2.75 0 0 -16.52 -2.76 0 0 -13.77 -2.75 0 0 -16.52 -2.76 0 0 -19.27 -2.75 0 0 -22.03 -2.75 0 0 -11.01 -2.76 0 0 -22.03 -2.75 0 0 -19.28 -2.75 0 0 -22.03 -2.76 0 0 -27.53 -2.75 0 0 -19.28 -2.75 0 0 -27.53 -2.76 0 0 -16.52 -2.75 0 0 -16.52 -2.75 0 0 -16.53 -2.76 0 0 -19.27 -2.75 0 0 -16.52 -2.75 0 0 -22.03 -2.76 0 0 -24.78 -2.75 0 0 -38.55 -2.75 0 0 -27.54 -2.76 0 0 -22.02 -2.75 0 0 -35.8 -2.75 0 0 -35.79 -2.76 0 0 -44.06 -2.75 0 0 -60.57 -2.75 0 0 -77.1 -2.76 0 0 -44.06 -2.75 0 0 -22.03 -2.76 0 0 -55.07 -2.75 0 0 -16.52 2.75 0 0 2.75 2.76 0 0 5.51 2.75 0 0 2.75 2.76 0 0 5.51 2.75 0 0 2.75 2.75 0 0 2.76 2.76 0 0 5.5 2.75 0 0 2.76 2.75 0 0 2.75 2.76 0 0 2.75 2.75 0 0 2.76 2.75 0 0 2.75 2.76 0 0 2.76 2.75 0 0 2.75 2.75 0 0 2.75 2.76 0 0 2.76 5.5 0 0 2.75 2.76 0 0 2.76 2.75 0 0 2.75 5.51 0 0 2.75 5.5 0 0 2.76 5.51 0 0 2.75 5.51 0 0 2.75 5.51 0 0 2.76 8.26 0 0 2.75 35.79 0 0 -2.75 11.02 0 0 -2.76 8.26 0 0 -2.75 5.5 0 0 -2.75 5.51 0 0 -2.76 2.76 0 0 -2.75 5.5 0 0 -2.75 2.75 0 0 -2.76 2.76 0 0 -2.75 5.51 0 0 -2.76 2.75 0 0 -2.75 2.75 0 0 -2.75 2.76 0 0 -2.76 2.75 0 0 -2.75 2.75 0 0 -5.51 2.76 0 0 -2.75 2.75 0 0 -2.76 2.75 0 0 -5.5 2.76 0 0 -2.76 2.75 0 0 -2.75 2.75 0 0 -5.51 2.76 0 0 -5.5 2.75 0 0 -2.76 2.75 0 0 -5.5 2.76 0 0 -5.51 2.75 0 0 -2.75 2.75 0 0 19.27 -2.75 0 0 30.29zm-286.36 -490.12l2.75 0 0 -11.02 2.75 0 0 -11.01 2.76 0 0 -11.02 2.75 0 0 -5.5 2.76 0 0 -5.51 2.75 0 0 -2.76 2.75 0 0 -2.75 2.76 0 0 -2.75 2.75 0 0 -2.75 2.75 0 0 -2.76 5.51 0 0 -2.75 5.51 0 0 -2.76 5.5 0 0 -2.75 5.51 0 0 -2.75 11.01 0 0 -2.76 16.53 0 0 -2.75 11.01 0 0 -2.75 33.04 0 0 -2.76 35.8 0 0 -2.75 93.62 0 0 2.75 27.53 0 0 2.76 22.03 0 0 2.75 11.01 0 0 2.75 5.51 0 0 2.76 5.51 0 0 2.75 2.75 0 0 2.75 2.76 0 0 2.76 2.75 0 0 2.75 2.75 0 0 5.51 2.76 0 0 5.5 2.75 0 0 8.27 2.75 0 0 13.77 2.76 0 0 121.15 -2.76 0 0 35.79 -2.75 0 0 24.78 -2.75 0 0 19.28 -2.76 0 0 19.27 -2.75 0 0 16.53 -2.75 0 0 16.52 -2.76 0 0 11.01 -2.75 0 0 13.77 -2.75 0 0 13.77 -2.76 0 0 11.01 -2.75 0 0 13.77 -2.76 0 0 8.26 -2.75 0 0 13.76 -2.75 0 0 11.02 -2.76 0 0 11.01 -2.75 0 0 8.26 -2.76 0 0 11.02 -2.75 0 0 5.51 -2.75 0 0 11.01 -2.76 0 0 5.51 -2.75 0 0 5.5 -2.75 0 0 8.26 -2.76 0 0 8.26 -2.75 0 0 5.51 -2.75 0 0 5.51 -2.76 0 0 5.51 -2.75 0 0 5.5 -2.75 0 0 5.51 -2.76 0 0 8.26 -2.75 0 0 2.75 -2.75 0 0 5.51 -2.76 0 0 5.51 -2.75 0 0 5.5 -2.75 0 0 2.76 -2.76 0 0 5.5 -2.75 0 0 2.76 -2.75 0 0 2.75 -2.76 0 0 2.75 -2.75 0 0 2.76 -2.76 0 0 2.75 -2.75 0 0 2.75 -2.75 0 0 2.76 -2.75 0 0 2.75 -2.76 0 0 2.75 -2.75 0 0 2.76 -2.76 0 0 2.75 -5.5 0 0 2.76 -5.51 0 0 2.75 -5.51 0 0 2.75 -8.26 0 0 2.76 -35.79 0 0 -2.76 -5.51 0 0 -2.75 -5.51 0 0 -2.75 -5.51 0 0 -2.76 -5.5 0 0 -2.75 -2.76 0 0 -2.76 -2.75 0 0 -2.75 -5.51 0 0 -2.75 -2.75 0 0 -2.76 -2.75 0 0 -2.75 -2.76 0 0 -2.75 -2.75 0 0 -2.76 -2.75 0 0 -2.75 -2.76 0 0 -5.51 -2.75 0 0 -2.75 -2.75 0 0 -2.75 -2.76 0 0 -5.51 -2.75 0 0 -2.75 -2.75 0 0 -5.51 -2.76 0 0 -2.75 -2.75 0 0 -5.51 -2.75 0 0 -5.51 -2.76 0 0 -5.5 -2.75 0 0 -5.51 -2.75 0 0 -5.51 -2.76 0 0 -5.51 -2.75 0 0 -8.26 -2.76 0 0 -5.5 -2.75 0 0 -8.26 -2.75 0 0 -5.51 -2.76 0 0 -8.26 -2.75 0 0 -5.51 -2.75 0 0 -8.26 -2.76 0 0 -13.77 -2.75 0 0 -8.26 -2.75 0 0 -11.01 -2.76 0 0 -11.02 -2.75 0 0 -5.5 -2.75 0 0 -11.02 -2.76 0 0 -16.52 -2.75 0 0 -8.26 -2.75 0 0 -13.77 -2.76 0 0 -11.01 -2.75 0 0 -16.52 -2.75 0 0 -13.77 -2.76 0 0 -13.76 -2.75 0 0 -11.02 -2.75 0 0 -16.52 -2.76 0 0 -11.02 -2.75 0 0 -30.28 -2.76 0 0 -30.29 -2.75 0 0 -24.78 -2.75 0 0 -79.85zm140.42 -104.64l-27.53 0 0 2.76 -16.52 0 0 2.75 -22.03 0 0 2.75 -16.52 0 0 2.76 -11.01 0 0 2.75 -8.26 0 0 2.75 -5.51 0 0 2.76 -5.51 0 0 2.75 -5.5 0 0 2.75 -5.51 0 0 2.76 -5.51 0 0 2.75 -2.75 0 0 2.75 -2.76 0 0 2.76 -2.75 0 0 2.75 -2.75 0 0 2.75 -2.76 0 0 2.76 -2.75 0 0 5.51 -2.76 0 0 5.5 -2.75 0 0 8.26 -2.75 0 0 5.51 -2.75 0 0 16.52 -2.76 0 0 5.51 -2.75 0 0 121.15 2.75 0 0 30.29 2.76 0 0 19.27 2.75 0 0 19.28 2.75 0 0 16.52 2.75 0 0 8.26 2.76 0 0 16.52 2.75 0 0 13.77 2.76 0 0 13.77 2.75 0 0 13.76 2.75 0 0 13.77 2.76 0 0 13.77 2.75 0 0 11.01 2.76 0 0 11.02 2.75 0 0 11.01 2.75 0 0 11.02 2.76 0 0 5.5 2.75 0 0 11.02 2.75 0 0 8.26 2.76 0 0 8.26 2.75 0 0 13.77 2.75 0 0 22.02 2.76 0 0 30.29 2.75 0 0 27.54 2.75 0 0 46.81 2.76 0 0 24.78 2.75 0 0 55.07 2.75 0 0 49.56 2.76 0 0 66.09 2.75 0 0 60.57 2.75 0 0 27.54 2.76 0 0 52.31 2.75 0 0 33.05 2.75 0 0 11.01 2.76 0 0 35.8 2.75 0 0 24.78 2.76 0 0 19.27 2.75 0 0 19.28 2.75 0 0 19.27 2.76 0 0 19.27 2.75 0 0 19.28 2.75 0 0 30.29 2.76 0 0 11.01 2.75 0 0 30.29 2.75 0 0 13.77 2.76 0 0 16.52 2.75 0 0 24.78 2.75 0 0 19.28 2.76 0 0 22.03 2.75 0 0 19.27 2.75 0 0 13.77 2.76 0 0 16.52 2.75 0 0 24.78 2.75 0 0 13.77 2.76 0 0 13.76 2.75 0 0 8.26 2.75 0 0 13.77 2.76 0 0 5.51 2.75 0 0 8.26 2.75 0 0 8.26 2.76 0 0 5.51 2.75 0 0 2.75 2.76 0 0 5.51 2.75 0 0 2.75 2.75 0 0 2.76 2.76 0 0 2.75 2.75 0 0 2.75 5.51 0 0 2.76 5.51 0 0 2.75 22.02 0 0 -2.75 5.51 0 0 -2.76 2.75 0 0 -2.75 5.51 0 0 -2.75 2.75 0 0 -2.76 2.76 0 0 -5.5 2.75 0 0 -2.76 2.75 0 0 -5.51 2.76 0 0 -5.5 2.75 0 0 -8.27 2.76 0 0 -8.25 2.75 0 0 -8.27 2.75 0 0 -11.01 2.75 0 0 -13.77 2.76 0 0 -13.76 2.75 0 0 -8.26 2.76 0 0 -13.77 2.75 0 0 -19.28 2.75 0 0 -8.26 2.76 0 0 -16.52 2.75 0 0 -19.27 2.75 0 0 -27.54 2.76 0 0 -13.77 2.75 0 0 -16.52 2.75 0 0 -22.02 2.76 0 0 -19.28 2.75 0 0 -24.78 2.75 0 0 -22.03 2.76 0 0 -22.03 2.75 0 0 -22.03 2.75 0 0 -27.53 2.76 0 0 -16.52 2.75 0 0 -30.29 2.75 0 0 -44.05 2.76 0 0 -57.83 2.75 0 0 -30.29 2.75 0 0 -85.35 2.76 0 0 -68.84 2.75 0 0 -66.09 2.76 0 0 -38.55 2.75 0 0 -85.36 2.75 0 0 -33.04 2.76 0 0 -38.55 2.75 0 0 -24.78 2.76 0 0 -8.26 2.75 0 0 -11.01 2.75 0 0 -13.77 2.76 0 0 -8.26 2.75 0 0 -13.77 2.75 0 0 -11.01 2.76 0 0 -5.51 2.75 0 0 -13.77 2.75 0 0 -11.01 2.76 0 0 -11.02 2.75 0 0 -11.01 2.75 0 0 -22.03 2.76 0 0 -16.52 2.75 0 0 -11.01 2.75 0 0 -22.03 2.76 0 0 -22.03 2.75 0 0 -16.52 2.75 0 0 -27.53 2.76 0 0 -121.16 -2.76 0 0 -27.53 -2.75 0 0 -11.02 -2.75 0 0 -8.26 -2.76 0 0 -5.51 -2.75 0 0 -5.5 -2.75 0 0 -2.76 -2.76 0 0 -5.5 -2.75 0 0 -2.76 -2.75 0 0 -2.75 -2.76 0 0 -2.75 -5.5 0 0 -2.76 -2.76 0 0 -2.75 -5.5 0 0 -2.75 -5.51 0 0 -2.76 -8.26 0 0 -2.75 -11.02 0 0 -2.75 -13.77 0 0 -2.76 -44.05 0 0 -2.75 -104.64 0 0 2.75z"/>
 </g>
</svg>
