<?xml version="1.0" encoding="UTF-8"?>
<!DOCTYPE svg PUBLIC "-//W3C//DTD SVG 1.1//EN" "http://www.w3.org/Graphics/SVG/1.1/DTD/svg11.dtd">
<!-- Creator: CorelDRAW (Versión de evaluación) -->
<svg xmlns="http://www.w3.org/2000/svg" xml:space="preserve" width="446px" height="2052px" version="1.1" style="shape-rendering:geometricPrecision; text-rendering:geometricPrecision; image-rendering:optimizeQuality; fill-rule:evenodd; clip-rule:evenodd"
viewBox="0 0 446 2050.14"
 xmlns:xlink="http://www.w3.org/1999/xlink"
 xmlns:xodm="http://www.corel.com/coreldraw/odm/2003">
 <defs>
  <style type="text/css">
   <![CDATA[
    .fil2 {fill:#4B4B4D}
    .fil3 {fill:#F48884}
    .fil0 {fill:#EDEAE0}
    .fil1 {fill:#F2E6C9}
   ]]>
  </style>
 </defs>
 <g id="root-canal">
  <metadata id="CorelCorpID_0Corel-Layer"/>
  <polygon id="crown" class="fil0" points="193.96,1317.44 183.17,1317.44 183.17,1321.04 172.38,1321.04 172.38,1324.64 168.79,1324.64 168.79,1328.23 161.59,1328.23 161.59,1331.83 154.4,1331.83 154.4,1335.43 150.8,1335.43 150.8,1339.02 147.21,1339.02 147.21,1342.62 140.01,1342.62 140.01,1346.22 136.42,1346.22 136.42,1349.81 132.82,1349.81 132.82,1357.01 129.22,1357.01 129.22,1360.6 125.63,1360.6 125.63,1364.2 122.03,1364.2 122.03,1371.39 118.43,1371.39 118.43,1374.99 114.84,1374.99 114.84,1382.18 111.24,1382.18 111.24,1389.38 107.64,1389.38 107.64,1392.97 104.05,1392.97 104.05,1400.17 100.45,1400.17 100.45,1410.96 96.85,1410.96 96.85,1418.15 93.26,1418.15 93.26,1428.94 89.66,1428.94 89.66,1439.73 86.06,1439.73 86.06,1446.93 82.47,1446.93 82.47,1457.72 78.87,1457.72 78.87,1468.51 75.27,1468.51 75.27,1482.89 71.68,1482.89 71.68,1497.28 68.08,1497.28 68.08,1511.67 64.48,1511.67 64.48,1526.06 60.89,1526.06 60.89,1540.44 57.29,1540.44 57.29,1554.83 53.69,1554.83 53.69,1572.81 50.1,1572.81 50.1,1594.4 46.5,1594.4 46.5,1605.19 42.9,1605.19 42.9,1623.17 39.31,1623.17 39.31,1641.15 35.71,1641.15 35.71,1662.73 32.11,1662.73 32.11,1691.51 28.52,1691.51 28.52,1713.09 24.92,1713.09 24.92,1864.15 28.52,1864.15 28.52,1874.94 32.11,1874.94 32.11,1892.92 35.71,1892.92 35.71,1900.12 39.31,1900.12 39.31,1910.91 42.9,1910.91 42.9,1914.5 46.5,1914.5 46.5,1918.1 50.1,1918.1 50.1,1921.7 53.69,1921.7 53.69,1925.29 57.29,1925.29 57.29,1932.49 64.48,1932.49 64.48,1936.08 68.08,1936.08 68.08,1939.68 75.27,1939.68 75.27,1943.28 86.06,1943.28 86.06,1946.87 93.26,1946.87 93.26,1950.47 104.05,1950.47 104.05,1954.07 114.84,1954.07 114.84,1957.67 125.63,1957.67 125.63,1961.26 140.01,1961.26 140.01,1964.86 161.59,1964.86 161.59,1968.46 179.58,1968.46 179.58,1972.05 337.84,1972.05 337.84,1968.46 359.42,1968.46 359.42,1964.86 370.21,1964.86 370.21,1961.26 381,1961.26 381,1957.67 388.19,1957.67 388.19,1954.07 395.39,1954.07 395.39,1950.47 402.58,1950.47 402.58,1946.87 406.18,1946.87 406.18,1939.68 409.77,1939.68 409.77,1932.49 413.37,1932.49 413.37,1921.7 416.97,1921.7 416.97,1910.91 420.56,1910.91 420.56,1871.34 424.16,1871.34 424.16,1803 420.56,1803 420.56,1756.25 416.97,1756.25 416.97,1738.26 413.37,1738.26 413.37,1705.89 409.77,1705.89 409.77,1677.12 406.18,1677.12 406.18,1659.14 402.58,1659.14 402.58,1641.15 398.98,1641.15 398.98,1626.77 395.39,1626.77 395.39,1605.19 391.79,1605.19 391.79,1590.8 388.19,1590.8 388.19,1576.41 384.6,1576.41 384.6,1562.02 381,1562.02 381,1551.23 377.4,1551.23 377.4,1540.44 373.81,1540.44 373.81,1529.65 370.21,1529.65 370.21,1518.86 366.61,1518.86 366.61,1504.47 363.02,1504.47 363.02,1493.68 359.42,1493.68 359.42,1482.89 355.82,1482.89 355.82,1472.1 352.22,1472.1 352.22,1461.31 348.63,1461.31 348.63,1450.52 345.03,1450.52 345.03,1443.33 341.43,1443.33 341.43,1436.14 337.84,1436.14 337.84,1425.34 334.24,1425.34 334.24,1418.15 330.64,1418.15 330.64,1407.36 327.05,1407.36 327.05,1400.17 323.45,1400.17 323.45,1396.57 319.85,1396.57 319.85,1389.38 316.26,1389.38 316.26,1385.78 312.66,1385.78 312.66,1378.59 309.06,1378.59 309.06,1374.99 305.47,1374.99 305.47,1367.8 301.87,1367.8 301.87,1364.2 298.27,1364.2 298.27,1360.6 294.68,1360.6 294.68,1357.01 291.08,1357.01 291.08,1349.81 287.48,1349.81 287.48,1346.22 280.29,1346.22 280.29,1342.62 276.69,1342.62 276.69,1339.02 273.09,1339.02 273.09,1335.43 269.5,1335.43 269.5,1331.83 262.3,1331.83 262.3,1328.23 255.11,1328.23 255.11,1324.64 251.51,1324.64 251.51,1321.04 244.32,1321.04 244.32,1317.44 233.53,1317.44 233.53,1313.85 193.96,1313.85 "/>
  <polygon id="root" class="fil1" points="183.17,281.58 175.98,281.58 175.98,288.78 172.38,288.78 172.38,295.97 168.79,295.97 168.79,299.57 165.19,299.57 165.19,324.75 161.59,324.75 161.59,457.82 165.19,457.82 165.19,605.29 161.59,605.29 161.59,644.86 158,644.86 158,684.42 154.4,684.42 154.4,709.6 150.8,709.6 150.8,749.16 147.21,749.16 147.21,763.55 143.61,763.55 143.61,792.32 140.01,792.32 140.01,821.1 136.42,821.1 136.42,846.27 132.82,846.27 132.82,864.26 129.22,864.26 129.22,885.84 125.63,885.84 125.63,911.01 122.03,911.01 122.03,936.19 118.43,936.19 118.43,961.37 114.84,961.37 114.84,979.35 111.24,979.35 111.24,1008.13 107.64,1008.13 107.64,1029.71 104.05,1029.71 104.05,1058.48 100.45,1058.48 100.45,1094.45 96.85,1094.45 96.85,1130.42 93.26,1130.42 93.26,1177.17 89.66,1177.17 89.66,1223.93 86.06,1223.93 86.06,1295.86 82.47,1295.86 82.47,1349.81 78.87,1349.81 78.87,1389.38 75.27,1389.38 75.27,1410.96 78.87,1410.96 78.87,1407.36 82.47,1407.36 82.47,1396.57 86.06,1396.57 86.06,1389.38 89.66,1389.38 89.66,1382.19 93.26,1382.19 93.26,1374.99 96.85,1374.99 96.85,1367.8 100.45,1367.8 100.45,1364.2 104.05,1364.2 104.05,1357.01 107.64,1357.01 107.64,1353.41 111.24,1353.41 111.24,1349.81 114.84,1349.81 114.84,1346.22 118.43,1346.22 118.43,1342.62 122.03,1342.62 122.03,1339.02 125.63,1339.02 125.63,1335.43 129.22,1335.43 129.22,1331.83 132.82,1331.83 132.82,1324.64 140.01,1324.64 140.01,1321.04 143.61,1321.04 143.61,1317.44 150.8,1317.44 150.8,1313.85 154.4,1313.85 154.4,1310.25 161.59,1310.25 161.59,1306.65 172.38,1306.65 172.38,1303.06 179.58,1303.06 179.58,1299.46 193.96,1299.46 193.96,1295.86 229.93,1295.86 229.93,1299.46 244.32,1299.46 244.32,1303.06 251.51,1303.06 251.51,1306.65 262.3,1306.65 262.3,1310.25 269.5,1310.25 269.5,1313.85 273.09,1313.85 273.09,1317.44 280.29,1317.44 280.29,1321.04 283.89,1321.04 283.89,1324.64 287.48,1324.64 287.48,1328.23 291.08,1328.23 291.08,1331.83 294.68,1331.83 294.68,1335.43 301.87,1335.43 301.87,1339.02 305.47,1339.02 305.47,1342.62 309.06,1342.62 309.06,1346.22 312.66,1346.22 312.66,1353.41 316.26,1353.41 316.26,1357.01 319.85,1357.01 319.85,1360.61 323.45,1360.61 323.45,1367.8 327.05,1367.8 327.05,1371.4 330.64,1371.4 330.64,1378.59 334.24,1378.59 334.24,1385.78 337.84,1385.78 337.84,1389.38 341.43,1389.38 341.43,1396.57 345.03,1396.57 345.03,1403.77 348.63,1403.77 348.63,1410.96 352.22,1410.96 352.22,1418.15 355.82,1418.15 355.82,1428.94 359.42,1428.94 359.42,1436.14 363.02,1436.14 363.02,1443.33 366.61,1443.33 366.61,1450.53 370.21,1450.53 370.21,1432.54 366.61,1432.54 366.61,1371.4 363.02,1371.4 363.02,1310.25 359.42,1310.25 359.42,1241.91 355.82,1241.91 355.82,1155.59 352.22,1155.59 352.22,1101.64 348.63,1101.64 348.63,979.35 345.03,979.35 345.03,950.58 341.43,950.58 341.43,889.43 337.84,889.43 337.84,849.87 334.24,849.87 334.24,813.9 330.64,813.9 330.64,781.53 327.05,781.53 327.05,745.57 323.45,745.57 323.45,716.79 319.85,716.79 319.85,691.61 316.26,691.61 316.26,673.63 312.66,673.63 312.66,644.86 309.06,644.86 309.06,626.87 305.47,626.87 305.47,605.29 301.87,605.29 301.87,583.71 298.27,583.71 298.27,569.32 294.68,569.32 294.68,547.74 291.08,547.74 291.08,533.36 287.48,533.36 287.48,511.77 283.89,511.77 283.89,497.39 280.29,497.39 280.29,486.6 276.69,486.6 276.69,468.61 273.09,468.61 273.09,454.23 269.5,454.23 269.5,447.03 265.9,447.03 265.9,432.65 262.3,432.65 262.3,418.26 258.71,418.26 258.71,407.47 255.11,407.47 255.11,396.68 251.51,396.68 251.51,382.29 247.92,382.29 247.92,375.1 244.32,375.1 244.32,364.31 240.72,364.31 240.72,353.52 237.13,353.52 237.13,346.33 233.53,346.33 233.53,335.54 229.93,335.54 229.93,328.34 226.34,328.34 226.34,317.55 222.74,317.55 222.74,310.36 219.14,310.36 219.14,303.17 215.55,303.17 215.55,299.57 211.95,299.57 211.95,292.38 208.35,292.38 208.35,288.78 204.76,288.78 204.76,285.18 201.16,285.18 201.16,281.58 197.56,281.58 197.56,277.99 183.17,277.99 "/>
  <path id="outline" class="fil2" d="M24.92 1713.09l3.6 0 0 -21.58 3.59 0 0 -28.78 3.6 0 0 -21.58 3.6 0 0 -17.98 3.59 0 0 -17.98 3.6 0 0 -10.79 3.6 0 0 -21.59 3.59 0 0 -17.98 3.6 0 0 -14.39 3.6 0 0 -14.38 3.59 0 0 -14.39 3.6 0 0 -14.39 3.6 0 0 -14.39 3.59 0 0 -14.38 3.6 0 0 -10.79 3.6 0 0 -10.79 3.59 0 0 -7.2 3.6 0 0 -10.79 3.6 0 0 -10.79 3.59 0 0 -7.19 3.6 0 0 -10.79 3.6 0 0 -7.2 3.59 0 0 -3.59 3.6 0 0 -7.2 3.6 0 0 -7.19 3.59 0 0 -3.6 3.6 0 0 -7.19 3.6 0 0 -3.6 3.59 0 0 -3.59 3.6 0 0 -7.2 3.6 0 0 -3.59 3.59 0 0 -3.6 7.2 0 0 -3.6 3.59 0 0 -3.59 3.6 0 0 -3.6 7.19 0 0 -3.6 7.2 0 0 -3.59 3.59 0 0 -3.6 10.79 0 0 -3.6 10.79 0 0 -3.59 39.57 0 0 3.59 10.79 0 0 3.6 7.19 0 0 3.6 3.6 0 0 3.59 7.19 0 0 3.6 7.2 0 0 3.6 3.59 0 0 3.59 3.6 0 0 3.6 3.6 0 0 3.6 7.19 0 0 3.59 3.6 0 0 7.2 3.6 0 0 3.59 3.59 0 0 3.6 3.6 0 0 3.6 3.6 0 0 7.19 3.59 0 0 3.6 3.6 0 0 7.19 3.6 0 0 3.6 3.59 0 0 7.19 3.6 0 0 3.6 3.6 0 0 7.19 3.59 0 0 10.79 3.6 0 0 7.19 3.6 0 0 10.8 3.59 0 0 7.19 3.6 0 0 7.19 3.6 0 0 10.79 3.59 0 0 10.79 3.6 0 0 10.79 3.6 0 0 10.79 3.6 0 0 10.79 3.59 0 0 14.39 3.6 0 0 10.79 3.6 0 0 10.79 3.59 0 0 10.79 3.6 0 0 10.79 3.6 0 0 14.39 3.59 0 0 14.39 3.6 0 0 14.39 3.6 0 0 21.58 3.59 0 0 14.38 3.6 0 0 17.99 3.6 0 0 17.98 3.59 0 0 28.77 3.6 0 0 32.37 3.6 0 0 17.99 3.59 0 0 46.75 3.6 0 0 68.34 -3.6 0 0 39.57 -3.59 0 0 10.79 -3.6 0 0 10.79 -3.6 0 0 7.19 -3.59 0 0 7.19 -3.6 0 0 3.6 -7.19 0 0 3.6 -7.2 0 0 3.6 -7.19 0 0 3.59 -10.79 0 0 3.6 -10.79 0 0 3.6 -21.58 0 0 3.59 -158.26 0 0 -3.59 -17.99 0 0 -3.6 -21.58 0 0 -3.6 -14.38 0 0 -3.59 -10.79 0 0 -3.6 -10.79 0 0 -3.6 -10.79 0 0 -3.6 -7.2 0 0 -3.59 -10.79 0 0 -3.6 -7.19 0 0 -3.6 -3.6 0 0 -3.59 -7.19 0 0 -7.2 -3.6 0 0 -3.59 -3.59 0 0 -3.6 -3.6 0 0 -3.6 -3.6 0 0 -3.59 -3.59 0 0 -10.79 -3.6 0 0 -7.2 -3.6 0 0 -17.98 -3.59 0 0 -10.79 -3.6 0 0 -151.06zm136.67 -1388.35l3.6 0 0 -25.17 3.6 0 0 -3.6 3.59 0 0 -7.19 3.6 0 0 -7.2 7.19 0 0 -3.6 14.39 0 0 3.6 3.6 0 0 3.6 3.6 0 0 3.6 3.59 0 0 3.59 3.6 0 0 7.2 3.6 0 0 3.59 3.59 0 0 7.2 3.6 0 0 7.19 3.6 0 0 10.79 3.59 0 0 7.19 3.6 0 0 10.79 3.6 0 0 7.2 3.59 0 0 10.79 3.6 0 0 10.79 3.6 0 0 7.19 3.59 0 0 14.39 3.6 0 0 10.79 3.6 0 0 10.79 3.59 0 0 14.39 3.6 0 0 14.38 3.6 0 0 7.2 3.59 0 0 14.38 3.6 0 0 17.99 3.6 0 0 10.79 3.6 0 0 14.38 3.59 0 0 21.58 3.6 0 0 14.39 3.6 0 0 21.58 3.59 0 0 14.39 3.6 0 0 21.58 3.6 0 0 21.58 3.59 0 0 17.98 3.6 0 0 28.78 3.6 0 0 17.98 3.59 0 0 25.18 3.6 0 0 28.77 3.6 0 0 35.97 3.59 0 0 32.37 3.6 0 0 35.97 3.6 0 0 39.56 3.59 0 0 61.15 3.6 0 0 28.77 3.6 0 0 122.29 3.59 0 0 53.95 3.6 0 0 86.32 3.6 0 0 68.34 3.6 0 0 61.14 3.59 0 0 61.15 3.6 0 0 17.98 -3.6 0 0 -7.19 -3.59 0 0 -7.19 -3.6 0 0 -7.2 -3.6 0 0 -10.79 -3.6 0 0 -7.19 -3.59 0 0 -7.2 -3.6 0 0 -7.19 -3.6 0 0 -7.19 -3.59 0 0 -3.6 -3.6 0 0 -7.19 -3.6 0 0 -7.2 -3.59 0 0 -3.59 -3.6 0 0 -7.2 -3.6 0 0 -3.59 -3.59 0 0 -3.6 -3.6 0 0 -7.19 -3.6 0 0 -3.6 -3.59 0 0 -3.6 -3.6 0 0 -3.59 -7.19 0 0 -3.6 -3.6 0 0 -3.6 -3.6 0 0 -3.59 -3.59 0 0 -3.6 -3.6 0 0 -3.6 -7.2 0 0 -3.59 -3.59 0 0 -3.6 -7.2 0 0 -3.6 -10.79 0 0 -3.59 -7.19 0 0 -3.6 -14.39 0 0 -3.6 -35.97 0 0 3.6 -14.38 0 0 3.6 -7.2 0 0 3.59 -10.79 0 0 3.6 -7.19 0 0 3.6 -3.6 0 0 3.59 -7.19 0 0 3.6 -3.6 0 0 3.6 -7.19 0 0 7.19 -3.6 0 0 3.6 -3.59 0 0 3.59 -3.6 0 0 3.6 -3.6 0 0 3.6 -3.59 0 0 3.59 -3.6 0 0 3.6 -3.6 0 0 3.6 -3.59 0 0 7.19 -3.6 0 0 3.6 -3.6 0 0 7.19 -3.59 0 0 7.19 -3.6 0 0 7.2 -3.6 0 0 7.19 -3.59 0 0 10.79 -3.6 0 0 3.6 -3.6 0 0 -21.58 3.6 0 0 -39.57 3.6 0 0 -53.95 3.59 0 0 -71.93 3.6 0 0 -46.76 3.6 0 0 -46.76 3.59 0 0 -35.96 3.6 0 0 -35.97 3.6 0 0 -28.78 3.59 0 0 -21.58 3.6 0 0 -28.77 3.6 0 0 -17.98 3.59 0 0 -25.18 3.6 0 0 -25.18 3.6 0 0 -25.17 3.59 0 0 -21.58 3.6 0 0 -17.99 3.6 0 0 -25.17 3.59 0 0 -28.78 3.6 0 0 -28.77 3.6 0 0 -14.39 3.59 0 0 -39.57 3.6 0 0 -25.17 3.6 0 0 -39.57 3.59 0 0 -39.56 3.6 0 0 -147.47 -3.6 0 0 -133.08zm17.99 -68.34l-7.2 0 0 3.6 -3.59 0 0 3.6 -3.6 0 0 3.59 -3.6 0 0 3.6 -3.59 0 0 3.6 -3.6 0 0 7.19 -3.6 0 0 7.2 -3.59 0 0 7.19 -3.6 0 0 14.39 -3.6 0 0 21.58 -3.59 0 0 89.92 3.59 0 0 46.75 3.6 0 0 129.48 -3.6 0 0 43.16 -3.59 0 0 28.78 -3.6 0 0 32.37 -3.6 0 0 43.16 -3.59 0 0 21.58 -3.6 0 0 32.38 -3.6 0 0 14.38 -3.59 0 0 17.99 -3.6 0 0 17.98 -3.6 0 0 25.18 -3.59 0 0 21.58 -3.6 0 0 28.77 -3.6 0 0 17.98 -3.59 0 0 25.18 -3.6 0 0 21.58 -3.6 0 0 21.58 -3.59 0 0 39.56 -3.6 0 0 32.38 -3.6 0 0 32.37 -3.59 0 0 32.37 -3.6 0 0 75.53 -3.6 0 0 64.74 -3.59 0 0 64.74 -3.6 0 0 61.14 -3.6 0 0 43.17 -3.59 0 0 32.37 -3.6 0 0 10.79 -3.6 0 0 21.58 -3.59 0 0 10.79 -3.6 0 0 17.98 -3.6 0 0 14.39 -3.59 0 0 14.39 -3.6 0 0 14.39 -3.6 0 0 14.38 -3.59 0 0 17.99 -3.6 0 0 17.98 -3.6 0 0 21.58 -3.59 0 0 25.18 -3.6 0 0 57.54 -3.6 0 0 82.73 3.6 0 0 35.96 3.6 0 0 17.99 3.59 0 0 17.98 3.6 0 0 7.2 3.6 0 0 7.19 3.59 0 0 3.6 3.6 0 0 7.19 3.6 0 0 3.6 3.59 0 0 7.19 3.6 0 0 3.6 3.6 0 0 3.59 7.19 0 0 3.6 3.6 0 0 3.6 3.59 0 0 3.6 7.2 0 0 3.59 7.19 0 0 3.6 7.19 0 0 3.6 7.2 0 0 3.59 10.79 0 0 3.6 10.79 0 0 3.6 17.98 0 0 3.59 10.79 0 0 3.6 21.58 0 0 3.6 17.98 0 0 3.59 21.58 0 0 3.6 133.09 0 0 -3.6 21.58 0 0 -3.59 21.58 0 0 -3.6 14.39 0 0 -3.6 7.19 0 0 -3.59 7.19 0 0 -3.6 7.2 0 0 -3.6 7.19 0 0 -3.59 3.6 0 0 -3.6 3.59 0 0 -3.6 3.6 0 0 -7.19 3.6 0 0 -3.6 3.59 0 0 -7.19 3.6 0 0 -7.2 3.6 0 0 -17.98 3.59 0 0 -25.18 3.6 0 0 -107.9 -3.6 0 0 -43.16 -3.59 0 0 -21.58 -3.6 0 0 -28.77 -3.6 0 0 -21.58 -3.59 0 0 -14.39 -3.6 0 0 -17.98 -3.6 0 0 -21.58 -3.59 0 0 -10.79 -3.6 0 0 -21.59 -3.6 0 0 -10.79 -3.59 0 0 -10.79 -3.6 0 0 -14.38 -3.6 0 0 -25.18 -3.59 0 0 -57.55 -3.6 0 0 -46.76 -3.6 0 0 -64.74 -3.59 0 0 -53.95 -3.6 0 0 -68.34 -3.6 0 0 -93.51 -3.59 0 0 -61.15 -3.6 0 0 -75.53 -3.6 0 0 -57.55 -3.59 0 0 -64.74 -3.6 0 0 -32.37 -3.6 0 0 -35.96 -3.6 0 0 -46.76 -3.59 0 0 -28.78 -3.6 0 0 -28.77 -3.6 0 0 -21.58 -3.59 0 0 -14.39 -3.6 0 0 -25.18 -3.6 0 0 -21.58 -3.59 0 0 -25.18 -3.6 0 0 -21.58 -3.6 0 0 -14.38 -3.59 0 0 -21.58 -3.6 0 0 -17.99 -3.6 0 0 -10.79 -3.59 0 0 -14.38 -3.6 0 0 -14.39 -3.6 0 0 -14.39 -3.59 0 0 -17.98 -3.6 0 0 -14.39 -3.6 0 0 -10.79 -3.59 0 0 -7.19 -3.6 0 0 -17.98 -3.6 0 0 -7.2 -3.6 0 0 -14.38 -3.59 0 0 -10.79 -3.6 0 0 -7.2 -3.6 0 0 -14.39 -3.59 0 0 -7.19 -3.6 0 0 -10.79 -3.6 0 0 -7.19 -3.59 0 0 -10.79 -3.6 0 0 -7.2 -3.6 0 0 -7.19 -3.59 0 0 -7.19 -3.6 0 0 -3.6 -3.6 0 0 -7.2 -3.59 0 0 -3.59 -3.6 0 0 -3.6 -3.6 0 0 -7.19 -7.19 0 0 -3.6 -3.6 0 0 -3.6 -7.19 0 0 -3.59 -21.58 0 0 3.59z"/>
  <polygon class="fil3" points="285.96,919.3 285.96,969.9 287.74,969.9 287.74,1036.31 289.52,1036.31 289.52,1090.06 291.3,1090.06 291.3,1172.28 293.07,1172.28 293.07,1232.37 294.85,1232.37 294.85,1279.8 296.63,1279.8 296.63,1336.72 298.4,1336.72 298.4,1377.83 300.18,1377.83 300.18,1428.42 301.96,1428.42 301.96,1450.56 303.73,1450.56 303.73,1463.21 305.51,1463.21 305.51,1472.7 307.29,1472.7 307.29,1482.18 309.06,1482.18 309.06,1501.16 310.84,1501.16 310.84,1510.64 312.62,1510.64 312.62,1529.62 314.4,1529.62 314.4,1545.42 316.17,1545.42 316.17,1558.08 317.95,1558.08 317.95,1577.05 319.73,1577.05 319.73,1602.35 321.5,1602.35 321.5,1621.32 323.28,1621.32 323.28,1659.27 325.06,1659.27 325.06,1754.13 323.28,1754.13 323.28,1776.26 321.5,1776.26 321.5,1792.08 319.73,1792.08 319.73,1798.4 317.95,1798.4 317.95,1804.73 316.17,1804.73 316.17,1807.89 314.4,1807.89 314.4,1814.21 312.62,1814.21 312.62,1817.37 310.84,1817.37 310.84,1820.54 309.06,1820.54 309.06,1823.7 305.51,1823.7 305.51,1826.86 301.96,1826.86 301.96,1830.03 298.4,1830.03 298.4,1833.19 294.85,1833.19 294.85,1836.35 287.74,1836.35 287.74,1839.51 277.08,1839.51 277.08,1842.67 266.42,1842.67 266.42,1845.84 200.68,1845.84 200.68,1842.67 190.01,1842.67 190.01,1839.51 181.13,1839.51 181.13,1836.35 170.47,1836.35 170.47,1833.19 165.14,1833.19 165.14,1830.03 156.26,1830.03 156.26,1826.86 150.93,1826.86 150.93,1823.7 145.59,1823.7 145.59,1820.54 142.04,1820.54 142.04,1817.37 138.49,1817.37 138.49,1814.21 134.93,1814.21 134.93,1811.05 131.38,1811.05 131.38,1807.89 129.6,1807.89 129.6,1804.73 127.83,1804.73 127.83,1801.57 124.27,1801.57 124.27,1798.4 122.49,1798.4 122.49,1795.24 120.72,1795.24 120.72,1788.92 118.94,1788.92 118.94,1785.75 117.16,1785.75 117.16,1779.43 115.39,1779.43 115.39,1776.26 113.61,1776.26 113.61,1769.94 111.83,1769.94 111.83,1763.62 110.06,1763.62 110.06,1747.81 108.28,1747.81 108.28,1732 106.5,1732 106.5,1700.38 104.73,1700.38 104.73,1627.64 106.5,1627.64 106.5,1577.05 108.28,1577.05 108.28,1554.91 110.06,1554.91 110.06,1535.94 111.83,1535.94 111.83,1520.13 113.61,1520.13 113.61,1504.32 115.39,1504.32 115.39,1491.67 117.16,1491.67 117.16,1479.02 118.94,1479.02 118.94,1466.37 120.72,1466.37 120.72,1453.72 122.49,1453.72 122.49,1437.91 124.27,1437.91 124.27,1428.42 126.05,1428.42 126.05,1409.45 127.83,1409.45 127.83,1399.96 129.6,1399.96 129.6,1371.5 131.38,1371.5 131.38,1333.56 133.16,1333.56 133.16,1279.8 134.93,1279.8 134.93,1222.88 136.71,1222.88 136.71,1165.96 138.49,1165.96 138.49,1099.55 140.26,1099.55 140.26,1071.09 142.04,1071.09 142.04,1042.63 143.82,1042.63 143.82,1014.17 145.59,1014.17 145.59,979.39 147.37,979.39 147.37,960.41 149.15,960.41 149.15,941.44 150.93,941.44 150.93,919.3 152.7,919.3 152.7,903.49 154.48,903.49 154.48,878.2 156.26,878.2 156.26,859.22 158.03,859.22 158.03,837.09 159.81,837.09 159.81,821.28 161.59,821.28 161.59,805.46 163.36,805.46 163.36,792.82 165.14,792.82 165.14,764.36 166.92,764.36 166.92,745.38 168.69,745.38 168.69,707.44 170.47,707.44 170.47,678.98 172.25,678.98 172.25,653.68 174.02,653.68 174.02,615.73 175.8,615.73 175.8,501.89 174.02,501.89 174.02,460.78 172.25,460.78 172.25,381.73 174.02,381.73 174.02,362.75 175.8,362.75 175.8,350.1 177.58,350.1 177.58,343.78 179.35,343.78 179.35,337.46 181.13,337.46 181.13,331.13 182.91,331.13 182.91,327.97 184.68,327.97 184.68,324.81 186.46,324.81 186.46,321.64 188.24,321.64 188.24,318.48 190.01,318.48 190.01,315.32 193.57,315.32 193.57,312.16 204.23,312.16 204.23,315.32 207.78,315.32 207.78,318.48 209.56,318.48 209.56,321.64 213.12,321.64 213.12,327.97 214.89,327.97 214.89,331.13 216.67,331.13 216.67,334.29 218.45,334.29 218.45,340.62 220.22,340.62 220.22,343.78 222,343.78 222,350.1 223.78,350.1 223.78,356.43 225.55,356.43 225.55,362.75 227.33,362.75 227.33,372.24 229.11,372.24 229.11,378.56 230.88,378.56 230.88,388.05 232.66,388.05 232.66,394.38 234.44,394.38 234.44,407.02 236.21,407.02 236.21,413.35 237.99,413.35 237.99,422.84 239.77,422.84 239.77,435.48 241.54,435.48 241.54,441.81 243.32,441.81 243.32,457.62 245.1,457.62 245.1,463.94 246.87,463.94 246.87,473.43 248.65,473.43 248.65,486.08 250.43,486.08 250.43,501.89 252.21,501.89 252.21,514.54 253.98,514.54 253.98,527.19 255.76,527.19 255.76,539.84 257.54,539.84 257.54,549.32 259.31,549.32 259.31,565.14 261.09,565.14 261.09,584.11 262.87,584.11 262.87,596.76 264.64,596.76 264.64,615.73 266.42,615.73 266.42,637.87 268.2,637.87 268.2,656.84 269.97,656.84 269.97,678.98 271.75,678.98 271.75,691.62 273.53,691.62 273.53,710.6 275.3,710.6 275.3,735.9 277.08,735.9 277.08,761.19 278.86,761.19 278.86,802.31 280.63,802.31 280.63,833.93 282.41,833.93 282.41,862.38 284.19,862.38 284.19,919.3 "/>
 </g>
</svg>
