<?xml version="1.0" encoding="UTF-8"?>
<!DOCTYPE svg PUBLIC "-//W3C//DTD SVG 1.1//EN" "http://www.w3.org/Graphics/SVG/1.1/DTD/svg11.dtd">
<!-- Creator: CorelDRAW (Versión de evaluación) -->
<svg xmlns="http://www.w3.org/2000/svg" xml:space="preserve" width="739px" height="2458px" version="1.1" style="shape-rendering:geometricPrecision; text-rendering:geometricPrecision; image-rendering:optimizeQuality; fill-rule:evenodd; clip-rule:evenodd"
viewBox="0 0 739 2457.4"
 xmlns:xlink="http://www.w3.org/1999/xlink"
 xmlns:xodm="http://www.corel.com/coreldraw/odm/2003">
 <defs>
  <style type="text/css">
   <![CDATA[
    .str0 {stroke:#373435;stroke-width:10;stroke-miterlimit:22.9256}
    .str1 {stroke:#F7A29B;stroke-width:10;stroke-miterlimit:22.9256}
    .fil0 {fill:#FEFEFE}
    .fil1 {fill:#F1C2C2}
   ]]>
  </style>
 </defs>
 <g id="tooth-root-canal-33">
  <metadata id="CorelCorpID_0Corel-Layer"/>
  <path id="crown" class="fil0 str0" d="M6.42 498.82c-22.12,-120.88 10.81,-235.23 81.37,-332.51 46.54,-64.15 170.13,-177.6 265.03,-165.39 45.28,5.84 95.41,56.75 130.98,84.01 51.43,39.39 81.35,54.44 138.52,78.95 133.01,57.02 115.58,186.65 115.44,313.16 -0.18,159.9 -119.43,567.82 -354.47,508.39 -110.68,-27.97 -185.99,-108.59 -254.05,-180.88 -108.58,-115.32 -94.85,-153 -122.82,-305.73z"/>
  <path id="root" class="fil0 str0" d="M625.73 901.9c7.94,54.39 -26.81,360.53 -38.74,431.04 -78.34,463.06 -129.8,484.14 -169.97,1026.13 -16.21,218.65 -279.5,109.63 -279.76,-706.41 -0.13,-434.7 9.04,-471.52 -68.45,-871.05 82.61,79.84 129.5,154.91 240.95,204.72 158.81,70.96 218.25,10.13 315.97,-84.43z"/>
  <g id="_2495744366224">
   <path class="fil1 str1" d="M499.79 1121.15c-80.26,20.54 -159.57,1.97 -235.91,-32.14 -11.06,-4.94 -21.52,-10.02 -31.48,-15.23 5.1,40.84 9.18,81.78 11.86,122.84 9.8,150.11 5.41,305.44 5.46,456 0.05,170.92 10.44,363.67 54.94,529.59 2.35,8.76 6.19,21.87 11.11,37.02 13.32,-143.1 31.84,-283.95 61.9,-426.09 14.45,-68.37 30.6,-136.39 45.48,-204.68 19.85,-91.07 37.4,-182.37 52.95,-274.28 10.59,-62.61 17.29,-129.33 23.69,-193.03z"/>
  </g>
 </g>
</svg>
