<?xml version="1.0" encoding="UTF-8"?>
<!DOCTYPE svg PUBLIC "-//W3C//DTD SVG 1.1//EN" "http://www.w3.org/Graphics/SVG/1.1/DTD/svg11.dtd">
<!-- Creator: CorelDRAW (Versión de evaluación) -->
<svg xmlns="http://www.w3.org/2000/svg" xml:space="preserve" width="739px" height="2458px" version="1.1" style="shape-rendering:geometricPrecision; text-rendering:geometricPrecision; image-rendering:optimizeQuality; fill-rule:evenodd; clip-rule:evenodd"
viewBox="0 0 739 2457.4"
 xmlns:xlink="http://www.w3.org/1999/xlink"
 xmlns:xodm="http://www.corel.com/coreldraw/odm/2003">
 <defs>
  <style type="text/css">
   <![CDATA[
    .str0 {stroke:#4B4B4D;stroke-width:10;stroke-miterlimit:22.9256}
    .str1 {stroke:#F7A29B;stroke-width:10;stroke-miterlimit:22.9256}
    .fil0 {fill:#FEFEFE}
    .fil1 {fill:#F1C2C2}
   ]]>
  </style>
 </defs>
 <g id="tooth-root-canal-17">
  <metadata id="CorelCorpID_0Corel-Layer"/>
  <path id="crown" class="fil0 str0" d="M106.9 2090.07c-25.95,-14.76 -20.43,-14.73 -24.63,-56.02 26.12,19.86 22.4,10.04 24.63,56.02 34.53,25.5 20.4,81.52 28.44,137.54 3.06,21.33 28.76,108 38.8,118.95 65.73,71.55 102.16,-76.92 135.36,-125.07 80.1,-2.78 88.81,76.99 142.29,157.67 62.63,94.46 97.16,105.17 174.32,22.38 106.87,-114.65 123.55,-386.09 106.93,-580.28 -27.47,-321.05 -84.77,-394.49 -247.59,-295.22 -183.06,111.61 -193.89,-177.65 -367.38,-75.5 -0.08,0.12 -149.36,460.26 -112.66,600.5 17.84,68.18 57.1,108.17 102.5,109.96l-1.01 -70.93zm172.99 253.61c33.11,73.95 87.81,69.94 132.59,21.3 -16.8,-76.27 -23.12,-77.16 -64.05,-122.21 -53.82,5.47 -53.07,23.68 -68.54,100.91z"/>
  <path id="root" class="fil0 str0" d="M246.51 30.64c1.2,50.38 -15.86,83.04 -38.75,152.96 -191.02,583.38 -113.68,612.86 -96.32,1224.59 50.19,13.32 80.43,-51.77 158.63,20.61 170.46,157.75 143.3,75.7 279.54,24.65 66.7,-25.01 91.35,36.64 129.31,43.23 10.55,-153.08 12.96,-258.78 31.31,-414.52 36.6,-310.77 7.72,-498.76 -77.16,-778.49 -21.61,-71.22 -66.93,-269.17 -124.91,-240.75 -27.96,161.62 49.24,399.57 1,658.23 -17.05,91.42 -93.49,482.07 -170,453.45 -118.98,-44.5 8.54,-923.24 -36.54,-1092.14 -18.77,-70.36 -22.08,-57.73 -56.11,-51.82zm82.79 1102.56c73.85,14 87.3,-112.82 109.13,-206.12 82.51,-352.55 78.11,-246.46 53.01,-661.74 -4.86,-80.28 -7.62,-254.92 -69.9,-265.33 -17.44,229.36 5.93,333.49 -90.19,524.52 -26.95,53.52 -15.8,238.44 -19.82,316.98 -7.48,146.22 -15.21,155.75 17.77,291.69z"/>
  <g id="_2460181415504">
   <path class="fil1 str1" d="M604.73 1367.36c6.02,-98.33 12.21,-196.27 23.82,-294.82 25.05,-212.74 18.02,-368.24 -21.05,-545.84 0.3,69.66 -4.36,139.1 -17.49,209.53 -17.45,93.56 -37.93,188.33 -64.6,279.7 -14.7,50.32 -32.54,105.24 -57.28,151.52 -31.33,58.61 -85.96,111.04 -157.78,84.18 -87.56,-32.75 -98.09,-158.45 -102.85,-237.77 -6.76,-112.54 -1.68,-229.84 3.52,-342.47 4.03,-87.3 9.28,-174.6 13.44,-261.91 -33.92,123.25 -58.82,248.73 -60.77,377.03 -1.25,82.74 5.01,166.17 10.67,248.68 6.33,92.41 12.01,184.46 15.94,276.81 53.03,-3.09 97.56,21.2 135.64,56.44 13.8,12.77 60.06,55.44 83.32,67.92 8.58,-4.93 19.25,-12.62 25.73,-16.71 27.54,-17.41 55.17,-31.75 85.75,-43.21 28.2,-10.57 56.44,-13.74 83.99,-9.08zm-180.5 -846.78c-5.84,13.11 -12.18,26.5 -19.08,40.24 -11.22,28.77 -11.22,123.42 -10.92,198.91 3.63,-15.03 7.22,-30.07 10.74,-45.13 7.88,-33.63 15.37,-67.56 18.39,-102.04 2.65,-30.3 2.13,-61.36 0.87,-91.98z"/>
  </g>
 </g>
</svg>
