<?xml version="1.0" encoding="UTF-8"?>
<!DOCTYPE svg PUBLIC "-//W3C//DTD SVG 1.1//EN" "http://www.w3.org/Graphics/SVG/1.1/DTD/svg11.dtd">
<!-- Creator: CorelDRAW (Versión de evaluación) -->
<svg xmlns="http://www.w3.org/2000/svg" xml:space="preserve" width="497px" height="2062px" version="1.1" style="shape-rendering:geometricPrecision; text-rendering:geometricPrecision; image-rendering:optimizeQuality; fill-rule:evenodd; clip-rule:evenodd"
viewBox="0 0 497 2063.64"
 xmlns:xlink="http://www.w3.org/1999/xlink"
 xmlns:xodm="http://www.corel.com/coreldraw/odm/2003">
 <defs>
  <style type="text/css">
   <![CDATA[
    .fil3 {fill:#4B4B4D}
    .fil2 {fill:#EECEE2}
    .fil1 {fill:#F2E6C9}
    .fil0 {fill:#FAFAF7}
   ]]>
  </style>
 </defs>
 <g id="root-canal">
  <metadata id="CorelCorpID_0Corel-Layer"/>
  <polygon id="crown" class="fil0" points="287.46,1350.96 298.27,1350.96 298.27,1354.57 305.47,1354.57 305.47,1358.17 312.67,1358.17 312.67,1361.77 319.88,1361.77 319.88,1365.37 323.47,1365.37 323.47,1368.97 330.68,1368.97 330.68,1372.57 334.28,1372.57 334.28,1376.17 337.88,1376.17 337.88,1379.78 341.48,1379.78 341.48,1383.38 345.08,1383.38 345.08,1390.58 352.29,1390.58 352.29,1397.78 355.89,1397.78 355.89,1401.39 359.49,1401.39 359.49,1408.59 363.09,1408.59 363.09,1415.79 366.69,1415.79 366.69,1419.39 370.3,1419.39 370.3,1426.59 373.9,1426.59 373.9,1433.8 377.5,1433.8 377.5,1441 381.1,1441 381.1,1448.2 384.7,1448.2 384.7,1455.41 388.3,1455.41 388.3,1462.61 391.9,1462.61 391.9,1469.81 395.51,1469.81 395.51,1477.02 399.11,1477.02 399.11,1484.22 402.71,1484.22 402.71,1495.02 406.31,1495.02 406.31,1505.83 409.91,1505.83 409.91,1513.03 413.51,1513.03 413.51,1527.44 417.12,1527.44 417.12,1541.84 420.72,1541.84 420.72,1552.65 424.32,1552.65 424.32,1563.45 427.92,1563.45 427.92,1574.26 431.52,1574.26 431.52,1588.66 435.12,1588.66 435.12,1603.07 438.73,1603.07 438.73,1613.87 442.32,1613.87 442.32,1621.07 445.93,1621.07 445.93,1639.08 449.53,1639.08 449.53,1649.89 453.13,1649.89 453.13,1664.29 456.73,1664.29 456.73,1678.7 460.33,1678.7 460.33,1693.11 463.93,1693.11 463.93,1711.11 467.54,1711.11 467.54,1729.12 471.14,1729.12 471.14,1743.53 474.74,1743.53 474.74,1819.16 471.14,1819.16 471.14,1837.16 467.54,1837.16 467.54,1847.97 463.93,1847.97 463.93,1858.77 460.33,1858.77 460.33,1865.98 456.73,1865.98 456.73,1873.18 453.13,1873.18 453.13,1876.78 449.53,1876.78 449.53,1883.98 445.93,1883.98 445.93,1887.58 442.32,1887.58 442.32,1891.19 438.73,1891.19 438.73,1894.79 431.52,1894.79 431.52,1898.39 427.92,1898.39 427.92,1901.99 424.32,1901.99 424.32,1905.59 420.72,1905.59 420.72,1909.19 413.51,1909.19 413.51,1912.79 409.91,1912.79 409.91,1916.4 402.71,1916.4 402.71,1920 399.11,1920 399.11,1923.6 391.9,1923.6 391.9,1927.2 384.7,1927.2 384.7,1930.8 377.5,1930.8 377.5,1934.4 370.3,1934.4 370.3,1938.01 366.69,1938.01 366.69,1941.61 359.49,1941.61 359.49,1945.21 355.89,1945.21 355.89,1948.81 348.69,1948.81 348.69,1952.41 341.48,1952.41 341.48,1956.01 337.88,1956.01 337.88,1959.62 334.28,1959.62 334.28,1963.21 327.08,1963.21 327.08,1966.82 319.88,1966.82 319.88,1970.42 316.27,1970.42 316.27,1974.02 312.67,1974.02 312.67,1977.62 305.47,1977.62 305.47,1981.22 301.87,1981.22 301.87,1984.82 294.67,1984.82 294.67,1988.43 291.06,1988.43 291.06,1992.03 280.26,1992.03 280.26,1995.63 273.06,1995.63 273.06,1999.23 258.65,1999.23 258.65,2002.83 233.44,2002.83 233.44,1999.23 219.03,1999.23 219.03,1995.63 211.83,1995.63 211.83,1992.03 204.63,1992.03 204.63,1988.43 201.03,1988.43 201.03,1984.82 197.42,1984.82 197.42,1981.22 193.82,1981.22 193.82,1977.62 186.62,1977.62 186.62,1974.02 183.02,1974.02 183.02,1970.42 179.42,1970.42 179.42,1966.82 175.82,1966.82 175.82,1963.21 168.61,1963.21 168.61,1959.62 165.01,1959.62 165.01,1956.01 161.41,1956.01 161.41,1952.41 154.21,1952.41 154.21,1948.81 150.6,1948.81 150.6,1945.21 143.4,1945.21 143.4,1941.61 139.8,1941.61 139.8,1938.01 132.6,1938.01 132.6,1934.4 128.99,1934.4 128.99,1930.8 121.79,1930.8 121.79,1927.2 118.19,1927.2 118.19,1923.6 110.99,1923.6 110.99,1920 107.39,1920 107.39,1916.4 103.79,1916.4 103.79,1912.79 96.58,1912.79 96.58,1909.19 92.98,1909.19 92.98,1905.59 85.78,1905.59 85.78,1901.99 82.18,1901.99 82.18,1898.39 74.97,1898.39 74.97,1894.79 71.37,1894.79 71.37,1891.19 67.77,1891.19 67.77,1887.58 64.17,1887.58 64.17,1883.98 60.57,1883.98 60.57,1880.38 56.97,1880.38 56.97,1876.78 53.36,1876.78 53.36,1873.18 49.77,1873.18 49.77,1869.58 46.16,1869.58 46.16,1865.98 42.56,1865.98 42.56,1858.77 38.96,1858.77 38.96,1855.17 35.36,1855.17 35.36,1847.97 31.75,1847.97 31.75,1840.77 28.16,1840.77 28.16,1829.96 24.55,1829.96 24.55,1811.96 20.95,1811.96 20.95,1747.13 24.55,1747.13 24.55,1725.52 28.16,1725.52 28.16,1711.11 31.75,1711.11 31.75,1693.11 35.36,1693.11 35.36,1682.3 38.96,1682.3 38.96,1667.89 42.56,1667.89 42.56,1660.69 46.16,1660.69 46.16,1649.89 49.77,1649.89 49.77,1639.08 53.36,1639.08 53.36,1628.28 56.97,1628.28 56.97,1621.07 60.57,1621.07 60.57,1610.27 64.17,1610.27 64.17,1603.07 67.77,1603.07 67.77,1592.26 71.37,1592.26 71.37,1581.46 74.97,1581.46 74.97,1570.65 78.58,1570.65 78.58,1563.45 82.18,1563.45 82.18,1552.65 85.78,1552.65 85.78,1538.24 89.38,1538.24 89.38,1531.04 92.98,1531.04 92.98,1520.24 96.58,1520.24 96.58,1505.83 100.18,1505.83 100.18,1498.63 103.79,1498.63 103.79,1487.82 107.39,1487.82 107.39,1480.62 110.99,1480.62 110.99,1469.81 114.59,1469.81 114.59,1462.61 118.19,1462.61 118.19,1455.41 121.79,1455.41 121.79,1451.81 125.4,1451.81 125.4,1444.6 128.99,1444.6 128.99,1437.4 132.6,1437.4 132.6,1433.8 136.2,1433.8 136.2,1426.59 139.8,1426.59 139.8,1419.39 143.4,1419.39 143.4,1415.79 147.01,1415.79 147.01,1408.59 150.6,1408.59 150.6,1404.99 154.21,1404.99 154.21,1401.39 157.81,1401.39 157.81,1394.18 161.41,1394.18 161.41,1390.58 165.01,1390.58 165.01,1386.98 168.61,1386.98 168.61,1383.38 172.21,1383.38 172.21,1379.78 179.42,1379.78 179.42,1376.17 183.02,1376.17 183.02,1372.57 186.62,1372.57 186.62,1368.97 190.22,1368.97 190.22,1365.37 197.42,1365.37 197.42,1361.77 204.63,1361.77 204.63,1358.17 211.83,1358.17 211.83,1354.57 219.03,1354.57 219.03,1350.96 233.44,1350.96 233.44,1347.36 287.46,1347.36 "/>
  <polygon id="root" class="fil1" points="309.07,241.71 312.67,241.71 312.67,248.91 316.27,248.91 316.27,252.51 319.88,252.51 319.88,263.32 323.47,263.32 323.47,277.72 327.08,277.72 327.08,421.78 323.47,421.78 323.47,594.66 327.08,594.66 327.08,634.27 330.68,634.27 330.68,666.68 334.28,666.68 334.28,695.49 337.88,695.49 337.88,724.31 341.48,724.31 341.48,749.52 345.08,749.52 345.08,771.13 348.69,771.13 348.69,789.14 352.29,789.14 352.29,810.74 355.89,810.74 355.89,832.35 359.49,832.35 359.49,853.96 363.09,853.96 363.09,882.77 366.69,882.77 366.69,907.98 370.3,907.98 370.3,929.59 373.9,929.59 373.9,958.4 377.5,958.4 377.5,972.81 381.1,972.81 381.1,1005.22 384.7,1005.22 384.7,1034.03 388.3,1034.03 388.3,1052.04 391.9,1052.04 391.9,1080.85 395.51,1080.85 395.51,1120.47 399.11,1120.47 399.11,1156.48 402.71,1156.48 402.71,1206.91 406.31,1206.91 406.31,1282.54 409.91,1282.54 409.91,1376.17 413.51,1376.17 413.51,1437.4 417.12,1437.4 417.12,1466.21 413.51,1466.21 413.51,1462.61 409.91,1462.61 409.91,1455.41 406.31,1455.41 406.31,1448.2 402.71,1448.2 402.71,1437.4 399.11,1437.4 399.11,1430.2 395.51,1430.2 395.51,1423 391.9,1423 391.9,1415.79 388.3,1415.79 388.3,1408.59 384.7,1408.59 384.7,1404.99 381.1,1404.99 381.1,1397.78 377.5,1397.78 377.5,1394.18 373.9,1394.18 373.9,1386.98 370.3,1386.98 370.3,1383.38 366.69,1383.38 366.69,1379.78 363.09,1379.78 363.09,1372.57 359.49,1372.57 359.49,1368.97 355.89,1368.97 355.89,1365.37 352.29,1365.37 352.29,1361.77 348.69,1361.77 348.69,1358.17 341.48,1358.17 341.48,1354.57 337.88,1354.57 337.88,1350.96 334.28,1350.96 334.28,1347.36 327.08,1347.36 327.08,1343.76 323.47,1343.76 323.47,1340.16 316.27,1340.16 316.27,1336.56 309.07,1336.56 309.07,1332.96 298.27,1332.96 298.27,1329.35 283.86,1329.35 283.86,1325.75 244.25,1325.75 244.25,1329.35 222.64,1329.35 222.64,1332.96 211.83,1332.96 211.83,1336.56 201.03,1336.56 201.03,1340.16 193.82,1340.16 193.82,1343.76 186.62,1343.76 186.62,1347.36 183.02,1347.36 183.02,1350.96 175.82,1350.96 175.82,1354.57 172.21,1354.57 172.21,1358.17 168.61,1358.17 168.61,1361.77 165.01,1361.77 165.01,1365.37 161.41,1365.37 161.41,1368.97 157.81,1368.97 157.81,1372.57 154.21,1372.57 154.21,1376.17 150.6,1376.17 150.6,1379.78 147.01,1379.78 147.01,1383.38 143.4,1383.38 143.4,1386.98 139.8,1386.98 139.8,1390.58 136.2,1390.58 136.2,1394.18 132.6,1394.18 132.6,1401.39 128.99,1401.39 128.99,1404.99 125.4,1404.99 125.4,1412.19 121.79,1412.19 121.79,1415.79 118.19,1415.79 118.19,1423 114.59,1423 114.59,1430.2 110.99,1430.2 110.99,1437.4 107.39,1437.4 107.39,1412.19 110.99,1412.19 110.99,1390.58 114.59,1390.58 114.59,1358.17 118.19,1358.17 118.19,1296.94 121.79,1296.94 121.79,1264.53 125.4,1264.53 125.4,1170.89 128.99,1170.89 128.99,1120.47 132.6,1120.47 132.6,1023.23 136.2,1023.23 136.2,976.41 139.8,976.41 139.8,940.4 143.4,940.4 143.4,886.38 147.01,886.38 147.01,843.16 150.6,843.16 150.6,814.34 154.21,814.34 154.21,789.14 157.81,789.14 157.81,767.53 161.41,767.53 161.41,738.71 165.01,738.71 165.01,709.9 168.61,709.9 168.61,677.49 172.21,677.49 172.21,659.48 175.82,659.48 175.82,641.47 179.42,641.47 179.42,612.66 183.02,612.66 183.02,598.25 186.62,598.25 186.62,569.44 190.22,569.44 190.22,555.04 193.82,555.04 193.82,537.03 197.42,537.03 197.42,526.23 201.03,526.23 201.03,508.22 204.63,508.22 204.63,493.81 208.23,493.81 208.23,475.81 211.83,475.81 211.83,457.8 215.43,457.8 215.43,446.99 219.03,446.99 219.03,428.99 222.64,428.99 222.64,414.58 226.24,414.58 226.24,407.38 229.84,407.38 229.84,389.37 233.44,389.37 233.44,378.57 237.04,378.57 237.04,371.36 240.64,371.36 240.64,360.56 244.25,360.56 244.25,349.75 247.84,349.75 247.84,335.35 251.45,335.35 251.45,324.54 255.05,324.54 255.05,317.34 258.65,317.34 258.65,306.53 262.25,306.53 262.25,299.33 265.85,299.33 265.85,292.13 269.45,292.13 269.45,281.33 273.06,281.33 273.06,274.12 276.66,274.12 276.66,270.52 280.26,270.52 280.26,263.32 283.86,263.32 283.86,256.11 287.46,256.11 287.46,252.51 291.06,252.51 291.06,248.91 294.67,248.91 294.67,245.31 298.27,245.31 298.27,241.71 301.87,241.71 301.87,238.11 309.07,238.11 "/>
  <g id="_2473491393776">
   <polygon class="fil2" points="254.83,684.91 251.67,684.91 251.67,713.72 248.07,713.72 248.07,731.73 244.46,731.73 244.46,749.74 240.87,749.74 240.87,782.15 237.26,782.15 237.26,810.96 233.66,810.96 233.66,839.78 230.06,839.78 230.06,861.39 226.46,861.39 226.46,886.59 222.86,886.59 222.86,915.41 219.26,915.41 219.26,958.63 215.65,958.63 215.65,1012.65 212.05,1012.65 212.05,1048.66 208.45,1048.66 208.45,1095.48 204.85,1095.48 204.85,1192.72 201.25,1192.72 201.25,1243.14 197.65,1243.14 197.65,1253.5 330.46,1253.5 330.46,1228.73 326.86,1228.73 326.86,1192.72 323.26,1192.72 323.26,1153.1 319.65,1153.1 319.65,1124.29 316.05,1124.29 316.05,1106.29 312.45,1106.29 312.45,1077.47 308.85,1077.47 308.85,1045.06 305.25,1045.06 305.25,1030.65 301.65,1030.65 301.65,1001.84 298.05,1001.84 298.05,980.24 294.44,980.24 294.44,955.02 290.84,955.02 290.84,926.21 287.24,926.21 287.24,904.6 283.64,904.6 283.64,883 280.04,883 280.04,861.39 276.44,861.39 276.44,843.38 272.83,843.38 272.83,821.77 269.23,821.77 269.23,796.56 265.63,796.56 265.63,767.74 262.03,767.74 262.03,738.93 258.43,738.93 258.43,706.52 254.83,706.52 "/>
  </g>
  <path id="outline" class="fil3" d="M24.55 1829.96l3.61 0 0 10.81 3.59 0 0 7.2 3.61 0 0 7.2 3.6 0 0 3.6 3.6 0 0 7.21 3.6 0 0 3.6 3.61 0 0 3.6 3.59 0 0 3.6 3.61 0 0 3.6 3.6 0 0 3.6 3.6 0 0 3.6 3.6 0 0 3.61 3.6 0 0 3.6 3.6 0 0 3.6 7.21 0 0 3.6 3.6 0 0 3.6 7.2 0 0 3.6 3.6 0 0 3.6 7.21 0 0 3.61 3.6 0 0 3.6 3.6 0 0 3.6 7.2 0 0 3.6 3.6 0 0 3.6 7.2 0 0 3.6 3.61 0 0 3.61 7.2 0 0 3.6 3.6 0 0 3.6 7.2 0 0 3.6 3.61 0 0 3.6 7.2 0 0 3.6 3.6 0 0 3.61 3.6 0 0 3.59 7.21 0 0 3.61 3.6 0 0 3.6 3.6 0 0 3.6 3.6 0 0 3.6 7.2 0 0 3.6 3.6 0 0 3.6 3.61 0 0 3.61 3.6 0 0 3.6 7.2 0 0 3.6 7.2 0 0 3.6 14.41 0 0 3.6 25.21 0 0 -3.6 14.41 0 0 -3.6 7.2 0 0 -3.6 10.8 0 0 -3.6 3.61 0 0 -3.61 7.2 0 0 -3.6 3.6 0 0 -3.6 7.2 0 0 -3.6 3.6 0 0 -3.6 3.61 0 0 -3.6 7.2 0 0 -3.61 7.2 0 0 -3.59 3.6 0 0 -3.61 3.6 0 0 -3.6 7.21 0 0 -3.6 7.2 0 0 -3.6 3.6 0 0 -3.6 7.2 0 0 -3.6 3.61 0 0 -3.61 7.2 0 0 -3.6 7.2 0 0 -3.6 7.2 0 0 -3.6 7.21 0 0 -3.6 3.6 0 0 -3.6 7.2 0 0 -3.61 3.6 0 0 -3.6 7.21 0 0 -3.6 3.6 0 0 -3.6 3.6 0 0 -3.6 3.6 0 0 -3.6 7.21 0 0 -3.6 3.59 0 0 -3.61 3.61 0 0 -3.6 3.6 0 0 -7.2 3.6 0 0 -3.6 3.6 0 0 -7.2 3.6 0 0 -7.21 3.6 0 0 -10.8 3.61 0 0 -10.81 3.6 0 0 -18 3.6 0 0 -75.63 -3.6 0 0 -14.41 -3.6 0 0 -18.01 -3.61 0 0 -18 -3.6 0 0 -14.41 -3.6 0 0 -14.41 -3.6 0 0 -14.4 -3.6 0 0 -10.81 -3.6 0 0 -18.01 -3.61 0 0 -7.2 -3.59 0 0 -10.8 -3.61 0 0 -14.41 -3.6 0 0 -14.4 -3.6 0 0 -10.81 -3.6 0 0 -10.8 -3.6 0 0 -10.81 -3.6 0 0 -14.4 -3.61 0 0 -14.41 -3.6 0 0 -7.2 -3.6 0 0 -10.81 -3.6 0 0 -10.8 -3.6 0 0 -7.2 -3.6 0 0 -7.21 -3.61 0 0 -7.2 -3.6 0 0 -7.2 -3.6 0 0 -7.21 -3.6 0 0 -7.2 -3.6 0 0 -7.2 -3.6 0 0 -7.21 -3.6 0 0 -7.2 -3.61 0 0 -3.6 -3.6 0 0 -7.2 -3.6 0 0 -7.2 -3.6 0 0 -3.61 -3.6 0 0 -7.2 -7.21 0 0 -7.2 -3.6 0 0 -3.6 -3.6 0 0 -3.61 -3.6 0 0 -3.6 -3.6 0 0 -3.6 -7.21 0 0 -3.6 -3.59 0 0 -3.6 -7.21 0 0 -3.6 -7.2 0 0 -3.6 -7.2 0 0 -3.61 -10.81 0 0 -3.6 -54.02 0 0 3.6 -14.41 0 0 3.61 -7.2 0 0 3.6 -7.2 0 0 3.6 -7.21 0 0 3.6 -7.2 0 0 3.6 -3.6 0 0 3.6 -3.6 0 0 3.6 -3.6 0 0 3.61 -7.21 0 0 3.6 -3.6 0 0 3.6 -3.6 0 0 3.6 -3.6 0 0 3.6 -3.6 0 0 7.21 -3.6 0 0 3.6 -3.61 0 0 3.6 -3.59 0 0 7.2 -3.61 0 0 3.6 -3.6 0 0 7.2 -3.6 0 0 7.21 -3.6 0 0 3.6 -3.61 0 0 7.2 -3.59 0 0 7.21 -3.61 0 0 3.6 -3.6 0 0 7.2 -3.6 0 0 7.2 -3.6 0 0 10.81 -3.6 0 0 7.2 -3.6 0 0 10.81 -3.61 0 0 7.2 -3.6 0 0 14.41 -3.6 0 0 10.8 -3.6 0 0 7.2 -3.6 0 0 14.41 -3.6 0 0 10.8 -3.6 0 0 7.2 -3.61 0 0 10.81 -3.6 0 0 10.8 -3.6 0 0 10.81 -3.6 0 0 7.2 -3.6 0 0 10.8 -3.6 0 0 7.21 -3.61 0 0 10.8 -3.59 0 0 10.81 -3.61 0 0 10.8 -3.6 0 0 7.2 -3.6 0 0 14.41 -3.6 0 0 10.81 -3.61 0 0 18 -3.59 0 0 14.41 -3.61 0 0 21.61 -3.6 0 0 64.83 3.6 0 0 18zm302.53 -1552.24l-3.61 0 0 -14.4 -3.59 0 0 -10.81 -3.61 0 0 -3.6 -3.6 0 0 -7.2 -3.6 0 0 -3.6 -7.2 0 0 3.6 -3.6 0 0 3.6 -3.6 0 0 3.6 -3.61 0 0 3.6 -3.6 0 0 3.6 -3.6 0 0 7.21 -3.6 0 0 7.2 -3.6 0 0 3.6 -3.6 0 0 7.21 -3.61 0 0 10.8 -3.6 0 0 7.2 -3.6 0 0 7.2 -3.6 0 0 10.81 -3.6 0 0 7.2 -3.6 0 0 10.81 -3.61 0 0 14.4 -3.59 0 0 10.81 -3.61 0 0 10.8 -3.6 0 0 7.21 -3.6 0 0 10.8 -3.6 0 0 18.01 -3.6 0 0 7.2 -3.6 0 0 14.41 -3.61 0 0 18 -3.6 0 0 10.81 -3.6 0 0 18.01 -3.6 0 0 18 -3.6 0 0 14.41 -3.6 0 0 18.01 -3.61 0 0 10.8 -3.6 0 0 18.01 -3.6 0 0 14.4 -3.6 0 0 28.81 -3.6 0 0 14.41 -3.6 0 0 28.81 -3.6 0 0 18.01 -3.61 0 0 18.01 -3.6 0 0 32.41 -3.6 0 0 28.81 -3.6 0 0 28.82 -3.6 0 0 21.61 -3.6 0 0 25.2 -3.61 0 0 28.82 -3.59 0 0 43.22 -3.61 0 0 54.02 -3.6 0 0 36.01 -3.6 0 0 46.82 -3.6 0 0 97.24 -3.61 0 0 50.42 -3.59 0 0 93.64 -3.61 0 0 32.41 -3.6 0 0 61.23 -3.6 0 0 32.41 -3.6 0 0 21.61 -3.6 0 0 25.21 3.6 0 0 -7.2 3.6 0 0 -7.2 3.6 0 0 -7.21 3.6 0 0 -3.6 3.61 0 0 -7.2 3.59 0 0 -3.6 3.61 0 0 -7.21 3.6 0 0 -3.6 3.6 0 0 -3.6 3.6 0 0 -3.6 3.61 0 0 -3.6 3.59 0 0 -3.61 3.61 0 0 -3.6 3.6 0 0 -3.6 3.6 0 0 -3.6 3.6 0 0 -3.6 3.6 0 0 -3.6 3.6 0 0 -3.6 3.61 0 0 -3.61 7.2 0 0 -3.6 3.6 0 0 -3.6 7.2 0 0 -3.6 7.21 0 0 -3.6 10.8 0 0 -3.6 10.81 0 0 -3.61 21.61 0 0 -3.6 39.61 0 0 3.6 14.41 0 0 3.61 10.8 0 0 3.6 7.2 0 0 3.6 7.2 0 0 3.6 3.61 0 0 3.6 7.2 0 0 3.6 3.6 0 0 3.61 3.6 0 0 3.6 7.21 0 0 3.6 3.6 0 0 3.6 3.6 0 0 3.6 3.6 0 0 3.6 3.6 0 0 7.21 3.6 0 0 3.6 3.61 0 0 3.6 3.6 0 0 7.2 3.6 0 0 3.6 3.6 0 0 7.21 3.6 0 0 3.6 3.6 0 0 7.2 3.6 0 0 7.21 3.61 0 0 7.2 3.6 0 0 7.2 3.6 0 0 10.8 3.6 0 0 7.21 3.6 0 0 7.2 3.6 0 0 3.6 3.61 0 0 -28.81 -3.61 0 0 -61.23 -3.6 0 0 -93.63 -3.6 0 0 -75.63 -3.6 0 0 -50.43 -3.6 0 0 -36.01 -3.6 0 0 -39.62 -3.61 0 0 -28.81 -3.6 0 0 -18.01 -3.6 0 0 -28.81 -3.6 0 0 -32.41 -3.6 0 0 -14.41 -3.6 0 0 -28.81 -3.6 0 0 -21.61 -3.61 0 0 -25.21 -3.6 0 0 -28.81 -3.6 0 0 -21.61 -3.6 0 0 -21.61 -3.6 0 0 -21.6 -3.6 0 0 -18.01 -3.61 0 0 -21.61 -3.6 0 0 -25.21 -3.6 0 0 -28.82 -3.6 0 0 -28.81 -3.6 0 0 -32.41 -3.6 0 0 -39.61 -3.61 0 0 -172.88 3.61 0 0 -144.06zm-7.2 -54.02l7.2 0 0 3.6 3.6 0 0 3.6 3.6 0 0 7.21 3.6 0 0 7.2 3.6 0 0 7.2 3.6 0 0 10.81 3.61 0 0 18.01 3.6 0 0 72.02 -3.6 0 0 72.03 -3.61 0 0 151.27 3.61 0 0 43.21 3.6 0 0 36.02 3.6 0 0 28.81 3.6 0 0 28.81 3.6 0 0 28.81 3.6 0 0 14.41 3.61 0 0 21.61 3.6 0 0 32.41 3.6 0 0 14.41 3.6 0 0 25.21 3.6 0 0 21.61 3.6 0 0 18 3.6 0 0 25.22 3.61 0 0 21.61 3.6 0 0 28.81 3.6 0 0 25.21 3.6 0 0 21.61 3.6 0 0 39.61 3.6 0 0 25.21 3.61 0 0 50.42 3.6 0 0 36.02 3.6 0 0 50.42 3.6 0 0 75.63 3.6 0 0 75.63 3.6 0 0 43.22 3.61 0 0 72.03 3.59 0 0 61.22 3.61 0 0 18.01 3.6 0 0 10.8 3.6 0 0 7.21 3.6 0 0 10.8 3.6 0 0 10.81 3.6 0 0 14.4 3.61 0 0 14.41 3.6 0 0 14.4 3.6 0 0 14.41 3.6 0 0 14.41 3.6 0 0 10.8 3.6 0 0 21.61 3.6 0 0 10.81 3.61 0 0 21.6 3.6 0 0 86.44 -3.6 0 0 18.01 -3.61 0 0 14.4 -3.6 0 0 10.81 -3.6 0 0 7.2 -3.6 0 0 7.2 -3.6 0 0 7.2 -3.6 0 0 3.61 -3.6 0 0 7.2 -3.61 0 0 3.6 -3.6 0 0 3.6 -3.6 0 0 3.6 -3.6 0 0 3.6 -3.6 0 0 3.61 -7.21 0 0 3.6 -3.59 0 0 3.6 -3.61 0 0 3.6 -7.2 0 0 3.6 -3.6 0 0 3.6 -7.2 0 0 3.61 -7.21 0 0 3.6 -3.6 0 0 3.6 -7.2 0 0 3.6 -3.6 0 0 3.6 -7.21 0 0 3.6 -7.2 0 0 3.61 -7.2 0 0 3.59 -3.6 0 0 3.61 -7.21 0 0 3.6 -3.6 0 0 3.6 -7.2 0 0 3.6 -3.6 0 0 3.6 -7.21 0 0 3.6 -3.6 0 0 3.61 -3.6 0 0 3.6 -7.2 0 0 3.6 -7.2 0 0 3.6 -3.61 0 0 3.6 -7.2 0 0 3.6 -7.2 0 0 3.6 -7.2 0 0 3.61 -7.21 0 0 3.6 -7.2 0 0 3.6 -10.81 0 0 3.6 -46.81 0 0 -3.6 -10.81 0 0 -3.6 -7.2 0 0 -3.6 -7.21 0 0 -3.61 -7.2 0 0 -3.6 -3.6 0 0 -3.6 -3.6 0 0 -3.6 -7.2 0 0 -3.6 -3.61 0 0 -3.6 -3.6 0 0 -3.6 -7.2 0 0 -3.61 -3.6 0 0 -3.6 -3.6 0 0 -3.6 -3.61 0 0 -3.6 -7.2 0 0 -3.6 -3.6 0 0 -3.6 -3.6 0 0 -3.61 -7.21 0 0 -3.59 -3.59 0 0 -3.61 -3.61 0 0 -3.6 -7.2 0 0 -3.6 -3.6 0 0 -3.6 -7.2 0 0 -3.6 -3.61 0 0 -3.6 -7.2 0 0 -3.61 -3.6 0 0 -3.6 -7.2 0 0 -3.6 -3.6 0 0 -3.6 -7.21 0 0 -3.6 -3.6 0 0 -3.6 -3.6 0 0 -3.61 -7.2 0 0 -3.6 -3.61 0 0 -3.6 -3.59 0 0 -3.6 -3.61 0 0 -3.6 -7.2 0 0 -3.6 -3.6 0 0 -3.6 -3.61 0 0 -7.21 -3.59 0 0 -3.6 -3.61 0 0 -3.6 -3.6 0 0 -7.2 -3.6 0 0 -3.6 -3.6 0 0 -10.81 -3.6 0 0 -7.2 -3.6 0 0 -14.4 -3.61 0 0 -10.81 -3.6 0 0 -86.44 3.6 0 0 -10.8 3.61 0 0 -21.61 3.6 0 0 -14.41 3.6 0 0 -14.4 3.6 0 0 -7.21 3.6 0 0 -14.4 3.6 0 0 -7.2 3.61 0 0 -14.41 3.59 0 0 -10.81 3.61 0 0 -10.8 3.6 0 0 -7.2 3.6 0 0 -10.81 3.6 0 0 -10.8 3.61 0 0 -7.2 3.59 0 0 -14.41 3.61 0 0 -7.2 3.6 0 0 -10.81 3.6 0 0 -14.4 3.6 0 0 -10.81 3.6 0 0 -7.2 3.6 0 0 -21.61 3.61 0 0 -21.61 3.6 0 0 -39.62 3.6 0 0 -21.6 3.6 0 0 -46.82 3.6 0 0 -28.82 3.6 0 0 -54.02 3.6 0 0 -21.61 3.61 0 0 -111.64 3.6 0 0 -39.62 3.6 0 0 -82.83 3.6 0 0 -57.63 3.6 0 0 -39.61 3.6 0 0 -46.82 3.61 0 0 -36.02 3.59 0 0 -36.01 3.61 0 0 -21.61 3.6 0 0 -28.81 3.6 0 0 -36.02 3.6 0 0 -25.2 3.61 0 0 -25.22 3.59 0 0 -21.6 3.61 0 0 -14.41 3.6 0 0 -21.61 3.6 0 0 -21.61 3.6 0 0 -18.01 3.6 0 0 -21.61 3.6 0 0 -18 3.61 0 0 -14.41 3.6 0 0 -14.41 3.6 0 0 -21.61 3.6 0 0 -14.4 3.6 0 0 -14.41 3.6 0 0 -14.4 3.6 0 0 -14.41 3.61 0 0 -7.2 3.6 0 0 -14.4 3.6 0 0 -14.41 3.6 0 0 -14.41 3.6 0 0 -7.2 3.6 0 0 -14.41 3.61 0 0 -10.8 3.6 0 0 -10.81 3.6 0 0 -7.2 3.6 0 0 -14.41 3.6 0 0 -7.2 3.6 0 0 -7.2 3.61 0 0 -10.8 3.59 0 0 -7.21 3.61 0 0 -7.2 3.6 0 0 -7.2 3.6 0 0 -7.21 3.6 0 0 -3.6 3.6 0 0 -7.2 3.6 0 0 -3.6 3.61 0 0 -3.6 3.6 0 0 -3.61 3.6 0 0 -3.6 3.6 0 0 -3.6 7.2 0 0 -3.6 28.82 0 0 3.6z"/>
 </g>
</svg>
