<?xml version="1.0" encoding="UTF-8"?>
<!DOCTYPE svg PUBLIC "-//W3C//DTD SVG 1.1//EN" "http://www.w3.org/Graphics/SVG/1.1/DTD/svg11.dtd">
<!-- Creator: CorelDRAW (Versión de evaluación) -->
<svg xmlns="http://www.w3.org/2000/svg" xml:space="preserve" width="739px" height="2458px" version="1.1" style="shape-rendering:geometricPrecision; text-rendering:geometricPrecision; image-rendering:optimizeQuality; fill-rule:evenodd; clip-rule:evenodd"
viewBox="0 0 739 2457.4"
 xmlns:xlink="http://www.w3.org/1999/xlink"
 xmlns:xodm="http://www.corel.com/coreldraw/odm/2003">
 <defs>
  <style type="text/css">
   <![CDATA[
    .str0 {stroke:#373435;stroke-width:10;stroke-miterlimit:22.9256}
    .str1 {stroke:#F7A29B;stroke-width:10;stroke-miterlimit:22.9256}
    .fil0 {fill:#FEFEFE}
    .fil1 {fill:#F1C2C2}
   ]]>
  </style>
 </defs>
 <g id="tooth-root-canal-45">
  <metadata id="CorelCorpID_0Corel-Layer"/>
  <path id="root" class="fil0 str0" d="M230.42 2455.72c111.82,21.73 172.82,-173.87 209.94,-271.91 120.47,-318.13 126.85,-541.65 107.37,-869.25 -14.08,-236.76 45.72,-370.18 44.57,-451.84 -136.29,-21.51 -188.93,81.7 -265.09,60.73 -109.36,-30.1 -59.21,-96.17 -247.29,-81.94 -13.05,653.68 119.72,934.16 140.02,1197.48 18.38,238.28 -41.96,338.28 10.48,416.73z"/>
  <g id="_2459207149456">
   <path class="fil1 str1" d="M417.16 1057.13c-39.17,12.75 -79.23,16.49 -127.62,3.17 -23.66,-6.51 -45.98,-15.06 -67.12,-26.25 4.82,176.65 22,350.29 54.59,526.82 25.61,138.74 64.32,282.46 80.26,423.28 62.51,-221.1 63.82,-408.01 48.76,-661.16 -5.37,-90.36 -1.43,-177.52 11.13,-265.86z"/>
  </g>
  <path id="crown" class="fil0 str0" d="M18.65 255.51c-23.7,38.34 -18.63,153.52 -18.52,203.33 0.24,95.42 10.93,294.82 78.59,352.64 60.02,-0.05 68.7,-14.39 135.06,11.72 146.55,57.68 64.23,118.44 236.06,29.88 64.04,-33.01 100.52,-18.2 166.68,-15.78 73.21,-131.5 97.56,-306.9 114.54,-474.59 7.54,-74.44 25.93,-208.45 -50.24,-238.99 -152.14,-60.98 -259.35,-182.78 -396.22,-90.04 -27.91,18.92 -52.64,45.31 -74.8,68.59 -38.68,40.62 -181.4,137.48 -191.15,153.24z"/>
 </g>
</svg>
