<?xml version="1.0" encoding="UTF-8"?>
<!DOCTYPE svg PUBLIC "-//W3C//DTD SVG 1.1//EN" "http://www.w3.org/Graphics/SVG/1.1/DTD/svg11.dtd">
<!-- Creator: CorelDRAW (Versión de evaluación) -->
<svg xmlns="http://www.w3.org/2000/svg" xml:space="preserve" width="739px" height="2458px" version="1.1" style="shape-rendering:geometricPrecision; text-rendering:geometricPrecision; image-rendering:optimizeQuality; fill-rule:evenodd; clip-rule:evenodd"
viewBox="0 0 739 2457.4"
 xmlns:xlink="http://www.w3.org/1999/xlink"
 xmlns:xodm="http://www.corel.com/coreldraw/odm/2003">
 <defs>
  <style type="text/css">
   <![CDATA[
    .str0 {stroke:#4B4B4D;stroke-width:10;stroke-miterlimit:22.9256}
    .str1 {stroke:#F7A29B;stroke-width:10;stroke-miterlimit:22.9256}
    .fil0 {fill:#FEFEFE}
    .fil1 {fill:#F1C2C2}
   ]]>
  </style>
 </defs>
 <g id="tooth-root-canal-23">
  <metadata id="CorelCorpID_0Corel-Layer"/>
  <path id="crown" class="fil0 str0" d="M411.47 2444.63c-63.77,-3.83 -115.44,54.88 -275.42,-51.4 -93.46,-62.09 -144.2,-65.31 -135.49,-190.24 12.88,-184.76 83.55,-354.16 131.74,-528.97l245.94 -165.8c64.78,-22.43 103.27,8.29 149.54,42.53 172.75,127.89 109.4,-18.39 156.24,247.17 9.08,51.41 20.94,108.61 29.51,160.01 55.06,330.36 5.19,189.98 -15.37,305.86 -0.27,43.29 -100.91,70.41 -137.37,92.3 -18.3,10.99 -49.6,33.53 -66.76,46.4 -33.76,25.34 -42.17,44.83 -82.56,42.14z"/>
  <path id="root" class="fil0 str0" d="M506.75 1.1c102.9,-9.92 50.72,47.08 47.37,191.22l36.74 613.66c18.21,133.65 74.56,679.07 68.2,787.56 -95.83,-7.49 -140.54,-135.67 -268.94,-115.09 -100.48,16.1 -150.33,124.13 -246.76,151.8 33.53,-180.86 32.01,-480.6 65.15,-682.47 36.29,-221.23 57.18,-384.57 136.96,-606.75 42.14,-117.4 160.65,-314 161.28,-339.93z"/>
  <g id="_2459413127120">
   <path class="fil1 str1" d="M518.24 1365.88c-3.9,-48.25 -8.24,-96.49 -12.74,-144.66 -12.32,-131.91 -24.81,-266.55 -42.68,-397.8l-0.33 -2.42 -0.48 -4.86 -21.13 -352.92c-52.06,168.22 -75.6,327.27 -104.85,505.49 -21.59,131.57 -26.18,267.16 -34.58,401.8 20.98,-8.96 43.45,-15.69 68.22,-19.67 53.53,-8.57 102.51,-2.71 148.57,15.04z"/>
  </g>
 </g>
</svg>
