<?xml version="1.0" encoding="UTF-8"?>
<!DOCTYPE svg PUBLIC "-//W3C//DTD SVG 1.1//EN" "http://www.w3.org/Graphics/SVG/1.1/DTD/svg11.dtd">
<!-- Creator: CorelDRAW (Versión de evaluación) -->
<svg xmlns="http://www.w3.org/2000/svg" xml:space="preserve" width="739px" height="2458px" version="1.1" style="shape-rendering:geometricPrecision; text-rendering:geometricPrecision; image-rendering:optimizeQuality; fill-rule:evenodd; clip-rule:evenodd"
viewBox="0 0 739 2457.4"
 xmlns:xlink="http://www.w3.org/1999/xlink"
 xmlns:xodm="http://www.corel.com/coreldraw/odm/2003">
 <defs>
  <style type="text/css">
   <![CDATA[
    .str0 {stroke:#4B4B4D;stroke-width:10;stroke-miterlimit:22.9256}
    .str1 {stroke:#F7A29B;stroke-width:10;stroke-miterlimit:22.9256}
    .fil0 {fill:#FEFEFE}
    .fil1 {fill:#F1C2C2}
   ]]>
  </style>
 </defs>
 <g id="tooth-root-canal-26">
  <metadata id="CorelCorpID_0Corel-Layer"/>
  <path id="crown" class="fil0 str0" d="M330.8 2271.36c-35.04,5.02 -60.81,91.68 -79.87,130.86 -45.01,92.54 -69.76,41.17 -121.72,39.12 -5.43,-48.65 -195.43,-359.25 -105.47,-807.85 69.54,-22.18 90.22,-11.61 155.3,-63.72 47.04,-37.66 85.19,-71.78 143.68,-73.14 160.94,-3.75 123.59,87.54 346.89,14.6 66.15,101.87 66.33,278.79 68.85,409.78 1.77,92.37 -15.48,355.93 -63.6,409.92 -27.86,-4.08 -50.13,-23.1 -81.98,-22.45 -49.5,1.01 -142,82.52 -161.13,-177.25 -28.16,22.93 -96.12,92.37 -100.95,140.13zm0 0c32.13,-5.99 41.96,-47.42 81.63,-76.37l21.02 88.72c-35.14,68.75 -59.62,99.27 -113.64,44.65 7.03,-41.66 7.02,-16.09 10.99,-57z"/>
  <path id="root" class="fil0 str0" d="M78.42 234.96c19.66,-12.42 4.82,16.6 21.11,-38.67 11.97,-40.63 18.86,-84.87 54.24,-93.1 30.01,58.03 6.45,501.97 19.15,617.29 11.42,103.5 55.05,473.92 171.43,370.46 134.57,-119.64 114.37,-604.33 116.16,-810.73 0.84,-97.92 -9.45,-196.05 19.23,-280.2 70.83,1.43 67.59,34.96 83.93,117.29 63.48,319.93 122.21,621.26 116.01,955.23 -1.3,70.24 -6.88,356.96 -21.18,404.62 -94.96,88.29 -219.92,-6.45 -327.34,-8.45 -140.13,-2.61 -163.62,138.79 -302.89,122.94 -7.85,-236.57 -1.25,-471.1 -10.03,-711.45 -14.84,-405.79 71.14,-564.16 60.18,-645.23zm237.3 -179.22c21.91,21.12 69.44,173.66 86.6,217.22 47.48,120.55 40.81,146.57 36.55,290.53 -3.2,108.27 -21.75,475.88 -119.91,513.52 -69.69,26.72 -83.03,-134.74 -96.38,-196.38 -31.72,-146.47 -36.21,-129.69 4.41,-265.19 111.82,-373 9.89,-478.61 88.73,-559.7z"/>
  <g id="_2459207182576">
   <path class="fil1 str1" d="M108.69 1485.36c5.97,-4.6 12.02,-9.6 18.42,-14.79 64.62,-52.34 118.11,-86.56 205.6,-84.93 66.35,1.23 122.31,25.78 185.27,40.15 21.77,4.96 44.56,9.56 64.61,2.37 1.25,-12.91 1.93,-26.42 2.66,-36.75 2.71,-38.78 4.42,-77.72 5.9,-116.56 2.57,-67.93 4.2,-135.9 5.47,-203.86 3.87,-208.51 -19.53,-410.44 -53.42,-612.13 -0.25,88.31 -1.54,176.48 -8.12,265.39 -9.61,129.7 -32.73,337.39 -135.53,428.78 -58.91,52.37 -134.94,53.29 -189.81,-4.65 -35.26,-37.26 -56.15,-93.3 -70.25,-141.9 -18.6,-64.07 -30.71,-132.3 -39.81,-199.8 0.19,23.42 0.72,46.91 1.58,70.48 7.42,202.68 3.75,405.5 7.43,608.2zm247.69 -1071.59c-9.95,74.91 -26.73,148.52 -49.81,225.53 -36.56,121.94 -30.23,97.03 -2.79,223.75 2.57,11.88 6.19,34.79 10.63,59.32 10.83,-43.43 18.6,-91.21 21.44,-111.42 11.56,-82.18 17.52,-166.92 19.97,-249.92 1.99,-67.25 5.77,-105.94 0.56,-147.26z"/>
  </g>
 </g>
</svg>
