<?xml version="1.0" encoding="UTF-8"?>
<!DOCTYPE svg PUBLIC "-//W3C//DTD SVG 1.1//EN" "http://www.w3.org/Graphics/SVG/1.1/DTD/svg11.dtd">
<!-- Creator: CorelDRAW (Versión de evaluación) -->
<svg xmlns="http://www.w3.org/2000/svg" xml:space="preserve" width="739px" height="2458px" version="1.1" style="shape-rendering:geometricPrecision; text-rendering:geometricPrecision; image-rendering:optimizeQuality; fill-rule:evenodd; clip-rule:evenodd"
viewBox="0 0 739 2457.4"
 xmlns:xlink="http://www.w3.org/1999/xlink"
 xmlns:xodm="http://www.corel.com/coreldraw/odm/2003">
 <defs>
  <style type="text/css">
   <![CDATA[
    .str0 {stroke:#4B4B4D;stroke-width:10;stroke-miterlimit:22.9256}
    .str1 {stroke:#F7A29B;stroke-width:10;stroke-miterlimit:22.9256}
    .fil0 {fill:#FEFEFE}
    .fil1 {fill:#F1C2C2}
   ]]>
  </style>
 </defs>
 <g id="tooth-root-canal-11">
  <metadata id="CorelCorpID_0Corel-Layer"/>
  <path id="crown" class="fil0 str0" d="M292.74 1515.02c-24.06,75.22 -174.89,148.54 -242.36,176.59 -19.76,121.94 -93.73,596.63 -14.61,689.34 68.67,80.44 563.16,94.35 663.44,56.01 85.74,-58.86 18.26,-660.17 -64.29,-729.73 -42.23,-35.58 -121.45,-107.83 -126.62,-162.04 -39.3,-9.2 -38.36,-43.02 -97.75,-52.76 -48.83,-8 -69.89,24.01 -117.81,22.59z"/>
  <path id="root" class="fil0 str0" d="M292.74 1515.02c0.41,-52.24 202.88,-79.84 215.56,30.17 19.62,4.84 145.34,146.12 146.88,148.48 11.41,-72.16 -20.13,-387.07 -29.57,-476.35 -35.52,-335.95 -122.91,-523.81 -202.77,-813.06 -60.54,-219.33 -13.69,-366.35 -100.4,-404.26 -80.88,54.32 -154.37,675.96 -166.65,802.09l-92.94 850.87c101.21,9.01 142.84,-133.95 229.89,-137.94z"/>
  <g id="_2459246783280">
   <path class="fil1 str1" d="M232.73 1431.25c71.18,-72.05 232.46,-80.11 317.22,-2.81 -5.56,-67.09 -12.02,-134.18 -19.09,-201.1 -14.85,-140.4 -42.27,-272.12 -81.52,-407.53 -37.86,-130.61 -82.11,-258.94 -118.34,-390.2 -6.95,-25.17 -12.71,-50.04 -17.55,-74.85 -4.82,27.17 -8.56,49.78 -10.86,63.91 -21.05,129.32 -39.27,262.16 -51.96,392.64l-0.12 1.12 -70.92 649.26c16.35,-12.52 33.74,-23.05 53.14,-30.44z"/>
  </g>
 </g>
</svg>
