<?xml version="1.0" encoding="UTF-8"?>
<!DOCTYPE svg PUBLIC "-//W3C//DTD SVG 1.1//EN" "http://www.w3.org/Graphics/SVG/1.1/DTD/svg11.dtd">
<!-- Creator: CorelDRAW (Versión de evaluación) -->
<svg xmlns="http://www.w3.org/2000/svg" xml:space="preserve" width="739px" height="2458px" version="1.1" style="shape-rendering:geometricPrecision; text-rendering:geometricPrecision; image-rendering:optimizeQuality; fill-rule:evenodd; clip-rule:evenodd"
viewBox="0 0 739 2457.4"
 xmlns:xlink="http://www.w3.org/1999/xlink"
 xmlns:xodm="http://www.corel.com/coreldraw/odm/2003">
 <defs>
  <style type="text/css">
   <![CDATA[
    .str0 {stroke:#4B4B4D;stroke-width:10;stroke-miterlimit:22.9256}
    .str1 {stroke:#F7A29B;stroke-width:10;stroke-miterlimit:22.9256}
    .fil0 {fill:#FEFEFE}
    .fil1 {fill:#F1C2C2}
   ]]>
  </style>
 </defs>
 <g id="tooth-root-canal-16">
  <metadata id="CorelCorpID_0Corel-Layer"/>
  <path id="crown" class="fil0 str0" d="M407.38 2271.36c35.04,5.02 60.81,91.68 79.87,130.86 45.01,92.54 69.76,41.17 121.72,39.12 5.43,-48.65 195.43,-359.25 105.47,-807.85 -69.54,-22.18 -90.22,-11.61 -155.3,-63.72 -47.04,-37.66 -85.19,-71.78 -143.68,-73.14 -160.94,-3.75 -123.59,87.54 -346.89,14.6 -66.14,101.87 -66.33,278.79 -68.85,409.78 -1.77,92.37 15.48,355.93 63.6,409.92 27.86,-4.08 50.14,-23.1 81.98,-22.45 49.5,1.01 142,82.52 161.13,-177.25 28.16,22.93 96.12,92.37 100.95,140.13zm0 0c-32.13,-5.99 -41.96,-47.42 -81.63,-76.37l-21.02 88.72c35.14,68.75 59.62,99.27 113.64,44.65 -7.03,-41.66 -7.01,-16.09 -10.99,-57z"/>
  <path id="root" class="fil0 str0" d="M659.76 234.96c-19.66,-12.42 -4.82,16.6 -21.11,-38.67 -11.97,-40.63 -18.86,-84.87 -54.24,-93.1 -30.01,58.03 -6.45,501.97 -19.15,617.29 -11.42,103.5 -55.05,473.92 -171.43,370.46 -134.57,-119.64 -114.37,-604.33 -116.16,-810.73 -0.84,-97.92 9.45,-196.05 -19.23,-280.2 -70.82,1.43 -67.59,34.96 -83.93,117.29 -63.48,319.93 -122.21,621.26 -116.01,955.23 1.3,70.24 6.88,356.96 21.18,404.62 94.96,88.29 219.92,-6.45 327.34,-8.45 140.13,-2.61 163.62,138.79 302.89,122.94 7.85,-236.57 1.25,-471.1 10.03,-711.45 14.84,-405.79 -71.14,-564.16 -60.18,-645.23zm-237.3 -179.22c-21.91,21.12 -69.44,173.66 -86.6,217.22 -47.48,120.55 -40.81,146.57 -36.55,290.53 3.2,108.27 21.75,475.88 119.92,513.52 69.68,26.72 83.02,-134.74 96.37,-196.38 31.72,-146.47 36.21,-129.69 -4.41,-265.19 -111.82,-373 -9.89,-478.61 -88.73,-559.7z"/>
  <g id="_2496013825024">
   <path class="fil1 str1" d="M629.49 1485.36c3.69,-202.7 0.01,-405.52 7.43,-608.2 0.86,-23.57 1.4,-47.06 1.58,-70.48 -9.1,67.5 -21.21,135.73 -39.81,199.8 -14.1,48.6 -34.98,104.64 -70.25,141.9 -54.87,57.94 -130.9,57.02 -189.81,4.65 -102.8,-91.39 -125.92,-299.08 -135.53,-428.78 -6.58,-88.91 -7.87,-177.08 -8.12,-265.39 -33.89,201.69 -57.28,403.62 -53.42,612.13 1.27,67.96 2.9,135.93 5.47,203.86 1.48,38.84 3.19,77.78 5.9,116.56 0.73,10.33 1.41,23.84 2.66,36.75 20.05,7.19 42.84,2.59 64.61,-2.37 62.96,-14.37 118.92,-38.92 185.27,-40.15 87.49,-1.63 140.98,32.59 205.6,84.93 6.4,5.19 12.45,10.19 18.42,14.79zm-247.69 -1071.59c-5.21,41.32 -1.43,80.01 0.56,147.26 2.45,83 8.41,167.74 19.97,249.92 2.84,20.21 10.61,67.99 21.44,111.42 4.44,-24.53 8.06,-47.44 10.63,-59.32 27.44,-126.72 33.77,-101.81 -2.79,-223.75 -23.08,-77.01 -39.86,-150.62 -49.81,-225.53z"/>
  </g>
 </g>
</svg>
