<?xml version="1.0" encoding="UTF-8"?>
<!DOCTYPE svg PUBLIC "-//W3C//DTD SVG 1.1//EN" "http://www.w3.org/Graphics/SVG/1.1/DTD/svg11.dtd">
<!-- Creator: CorelDRAW (Versión de evaluación) -->
<svg xmlns="http://www.w3.org/2000/svg" xml:space="preserve" width="561px" height="2062px" version="1.1" style="shape-rendering:geometricPrecision; text-rendering:geometricPrecision; image-rendering:optimizeQuality; fill-rule:evenodd; clip-rule:evenodd"
viewBox="0 0 561 2060.59"
 xmlns:xlink="http://www.w3.org/1999/xlink"
 xmlns:xodm="http://www.corel.com/coreldraw/odm/2003">
 <defs>
  <style type="text/css">
   <![CDATA[
    .fil3 {fill:#4B4B4D}
    .fil2 {fill:#FAC5C5}
    .fil0 {fill:#EDEAE0}
    .fil1 {fill:#F2E6C9}
   ]]>
  </style>
 </defs>
 <g id="root-canal">
  <metadata id="CorelCorpID_0Corel-Layer"/>
  <polygon id="crown" class="fil0" points="240.68,1231.1 229.9,1231.1 229.9,1234.69 219.11,1234.69 219.11,1238.29 211.92,1238.29 211.92,1241.89 204.72,1241.89 204.72,1245.48 201.13,1245.48 201.13,1249.08 193.93,1249.08 193.93,1252.68 190.34,1252.68 190.34,1256.27 183.14,1256.27 183.14,1259.87 179.55,1259.87 179.55,1263.46 175.95,1263.46 175.95,1267.06 172.36,1267.06 172.36,1270.66 168.76,1270.66 168.76,1274.25 165.16,1274.25 165.16,1281.44 161.57,1281.44 161.57,1285.04 157.97,1285.04 157.97,1288.63 154.38,1288.63 154.38,1292.23 150.78,1292.23 150.78,1299.42 147.18,1299.42 147.18,1303.02 143.59,1303.02 143.59,1310.21 139.99,1310.21 139.99,1313.81 136.4,1313.81 136.4,1321 132.8,1321 132.8,1324.6 129.2,1324.6 129.2,1331.79 125.61,1331.79 125.61,1338.98 122.01,1338.98 122.01,1346.17 118.41,1346.17 118.41,1353.37 114.82,1353.37 114.82,1360.56 111.22,1360.56 111.22,1367.75 107.62,1367.75 107.62,1374.94 104.03,1374.94 104.03,1385.73 100.43,1385.73 100.43,1396.52 96.84,1396.52 96.84,1410.9 93.24,1410.9 93.24,1418.1 89.64,1418.1 89.64,1432.48 86.05,1432.48 86.05,1446.87 82.45,1446.87 82.45,1461.25 78.86,1461.25 78.86,1468.44 75.26,1468.44 75.26,1486.42 71.67,1486.42 71.67,1497.21 68.07,1497.21 68.07,1511.6 64.47,1511.6 64.47,1525.98 60.88,1525.98 60.88,1540.37 57.28,1540.37 57.28,1554.75 53.68,1554.75 53.68,1569.14 50.09,1569.14 50.09,1590.71 46.49,1590.71 46.49,1612.29 42.89,1612.29 42.89,1623.08 39.3,1623.08 39.3,1644.65 35.7,1644.65 35.7,1669.83 32.1,1669.83 32.1,1691.41 28.51,1691.41 28.51,1723.77 24.91,1723.77 24.91,1756.14 21.32,1756.14 21.32,1835.25 24.91,1835.25 24.91,1878.4 28.51,1878.4 28.51,1914.37 32.1,1914.37 32.1,1928.75 35.7,1928.75 35.7,1943.13 39.3,1943.13 39.3,1950.33 42.89,1950.33 42.89,1957.52 46.49,1957.52 46.49,1961.12 50.09,1961.12 50.09,1964.71 53.68,1964.71 53.68,1968.31 57.28,1968.31 57.28,1971.91 60.88,1971.91 60.88,1975.5 68.07,1975.5 68.07,1979.1 71.67,1979.1 71.67,1982.69 82.45,1982.69 82.45,1986.29 93.24,1986.29 93.24,1989.88 107.62,1989.88 107.62,1993.48 125.61,1993.48 125.61,1997.08 150.78,1997.08 150.78,2000.67 186.74,2000.67 186.74,2004.27 237.09,2004.27 237.09,2007.86 359.36,2007.86 359.36,2004.27 427.68,2004.27 427.68,2000.67 460.05,2000.67 460.05,1997.08 496.01,1997.08 496.01,1993.48 503.2,1993.48 503.2,1989.88 510.4,1989.88 510.4,1986.29 517.59,1986.29 517.59,1982.69 521.18,1982.69 521.18,1979.1 524.78,1979.1 524.78,1971.91 528.38,1971.91 528.38,1964.71 531.97,1964.71 531.97,1953.92 535.57,1953.92 535.57,1921.56 539.16,1921.56 539.16,1770.52 535.57,1770.52 535.57,1709.38 531.97,1709.38 531.97,1673.43 528.38,1673.43 528.38,1641.06 524.78,1641.06 524.78,1623.08 521.18,1623.08 521.18,1601.5 517.59,1601.5 517.59,1587.12 513.99,1587.12 513.99,1558.35 510.4,1558.35 510.4,1547.56 506.8,1547.56 506.8,1529.58 503.2,1529.58 503.2,1518.79 499.61,1518.79 499.61,1504.4 496.01,1504.4 496.01,1486.42 492.42,1486.42 492.42,1475.64 488.82,1475.64 488.82,1464.85 485.22,1464.85 485.22,1454.06 481.63,1454.06 481.63,1443.27 478.03,1443.27 478.03,1432.48 474.43,1432.48 474.43,1421.69 470.84,1421.69 470.84,1410.9 467.24,1410.9 467.24,1400.12 463.64,1400.12 463.64,1392.93 460.05,1392.93 460.05,1382.14 456.45,1382.14 456.45,1374.94 452.86,1374.94 452.86,1367.75 449.26,1367.75 449.26,1360.56 445.66,1360.56 445.66,1353.37 442.07,1353.37 442.07,1346.17 438.47,1346.17 438.47,1338.98 434.88,1338.98 434.88,1331.79 431.28,1331.79 431.28,1328.2 427.68,1328.2 427.68,1321 424.09,1321 424.09,1317.41 420.49,1317.41 420.49,1310.21 416.9,1310.21 416.9,1306.62 413.3,1306.62 413.3,1299.42 409.7,1299.42 409.7,1295.83 406.11,1295.83 406.11,1292.23 402.51,1292.23 402.51,1288.63 398.91,1288.63 398.91,1285.04 395.32,1285.04 395.32,1281.44 391.72,1281.44 391.72,1277.85 388.12,1277.85 388.12,1270.66 384.53,1270.66 384.53,1267.06 380.93,1267.06 380.93,1263.46 373.74,1263.46 373.74,1259.87 370.14,1259.87 370.14,1256.27 366.55,1256.27 366.55,1252.68 359.36,1252.68 359.36,1249.08 355.76,1249.08 355.76,1245.48 348.57,1245.48 348.57,1241.89 341.38,1241.89 341.38,1238.29 330.59,1238.29 330.59,1234.69 323.39,1234.69 323.39,1231.1 309.01,1231.1 309.01,1227.5 240.68,1227.5 "/>
  <polygon id="root" class="fil1" points="262.26,116.29 258.66,116.29 258.66,119.89 255.07,119.89 255.07,123.48 251.47,123.48 251.47,130.67 247.87,130.67 247.87,137.87 244.28,137.87 244.28,148.65 240.68,148.65 240.68,159.44 237.09,159.44 237.09,173.83 233.49,173.83 233.49,191.81 229.9,191.81 229.9,206.19 226.3,206.19 226.3,234.96 222.7,234.96 222.7,274.52 219.11,274.52 219.11,310.48 215.51,310.48 215.51,360.83 211.92,360.83 211.92,389.6 208.32,389.6 208.32,439.94 204.72,439.94 204.72,461.52 201.13,461.52 201.13,486.69 197.53,486.69 197.53,504.67 193.93,504.67 193.93,519.06 190.34,519.06 190.34,547.83 186.74,547.83 186.74,558.62 183.14,558.62 183.14,573 179.55,573 179.55,598.18 175.95,598.18 175.95,616.16 172.36,616.16 172.36,634.14 168.76,634.14 168.76,652.12 165.16,652.12 165.16,666.5 161.57,666.5 161.57,691.68 157.97,691.68 157.97,709.65 154.38,709.65 154.38,734.83 150.78,734.83 150.78,749.22 147.18,749.22 147.18,777.98 143.59,777.98 143.59,810.35 139.99,810.35 139.99,831.92 136.4,831.92 136.4,867.89 132.8,867.89 132.8,936.21 129.2,936.21 129.2,972.18 125.61,972.18 125.61,1026.12 122.01,1026.12 122.01,1087.25 118.41,1087.25 118.41,1123.21 114.82,1123.21 114.82,1180.75 111.22,1180.75 111.22,1209.52 107.62,1209.52 107.62,1249.08 104.03,1249.08 104.03,1281.44 100.43,1281.44 100.43,1317.41 96.84,1317.41 96.84,1338.98 100.43,1338.98 100.43,1331.79 104.03,1331.79 104.03,1324.6 107.62,1324.6 107.62,1317.41 111.22,1317.41 111.22,1313.81 114.82,1313.81 114.82,1306.62 118.41,1306.62 118.41,1303.02 122.01,1303.02 122.01,1295.83 125.61,1295.83 125.61,1288.63 129.2,1288.63 129.2,1285.04 132.8,1285.04 132.8,1281.44 136.4,1281.44 136.4,1277.85 139.99,1277.85 139.99,1270.66 143.59,1270.66 143.59,1267.06 147.18,1267.06 147.18,1263.46 150.78,1263.46 150.78,1259.87 154.38,1259.87 154.38,1256.27 157.97,1256.27 157.97,1252.68 161.57,1252.68 161.57,1249.08 165.16,1249.08 165.16,1245.48 168.76,1245.48 168.76,1241.89 172.36,1241.89 172.36,1238.29 179.55,1238.29 179.55,1234.69 183.14,1234.69 183.14,1231.1 186.74,1231.1 186.74,1227.5 193.93,1227.5 193.93,1223.9 201.13,1223.9 201.13,1220.31 208.32,1220.31 208.32,1216.71 219.11,1216.71 219.11,1213.12 233.49,1213.12 233.49,1209.52 251.47,1209.52 251.47,1205.92 305.41,1205.92 305.41,1209.52 319.8,1209.52 319.8,1213.12 330.59,1213.12 330.59,1216.71 341.38,1216.71 341.38,1220.31 352.17,1220.31 352.17,1223.9 359.36,1223.9 359.36,1227.5 366.55,1227.5 366.55,1231.1 370.14,1231.1 370.14,1234.69 377.34,1234.69 377.34,1238.29 380.93,1238.29 380.93,1241.89 384.53,1241.89 384.53,1245.48 388.12,1245.48 388.12,1249.08 391.72,1249.08 391.72,1252.68 395.32,1252.68 395.32,1256.27 398.91,1256.27 398.91,1259.87 406.11,1259.87 406.11,1267.06 409.7,1267.06 409.7,1270.66 413.3,1270.66 413.3,1274.25 416.9,1274.25 416.9,1277.85 420.49,1277.85 420.49,1281.44 424.09,1281.44 424.09,1285.04 427.68,1285.04 427.68,1292.23 431.28,1292.23 431.28,1295.83 434.88,1295.83 434.88,1299.42 438.47,1299.42 438.47,1306.62 442.07,1306.62 442.07,1310.21 445.66,1310.21 445.66,1317.41 449.26,1317.41 449.26,1321 452.86,1321 452.86,1328.2 456.45,1328.2 456.45,1335.39 460.05,1335.39 460.05,1342.58 463.64,1342.58 463.64,1349.77 467.24,1349.77 467.24,1356.96 470.84,1356.96 470.84,1360.56 474.43,1360.56 474.43,1346.17 470.84,1346.17 470.84,1310.21 467.24,1310.21 467.24,1270.66 463.64,1270.66 463.64,1238.29 460.05,1238.29 460.05,1198.73 456.45,1198.73 456.45,1155.58 452.86,1155.58 452.86,1101.64 449.26,1101.64 449.26,1065.67 445.66,1065.67 445.66,1000.94 442.07,1000.94 442.07,961.39 438.47,961.39 438.47,921.83 434.88,921.83 434.88,871.48 431.28,871.48 431.28,835.52 427.68,835.52 427.68,785.17 424.09,785.17 424.09,763.6 420.49,763.6 420.49,720.44 416.9,720.44 416.9,684.48 413.3,684.48 413.3,648.52 409.7,648.52 409.7,616.16 406.11,616.16 406.11,583.79 402.51,583.79 402.51,555.02 398.91,555.02 398.91,526.25 395.32,526.25 395.32,511.87 391.72,511.87 391.72,483.1 388.12,483.1 388.12,454.33 384.53,454.33 384.53,439.94 380.93,439.94 380.93,414.77 377.34,414.77 377.34,393.2 373.74,393.2 373.74,382.41 370.14,382.41 370.14,360.83 366.55,360.83 366.55,350.04 362.95,350.04 362.95,335.66 359.36,335.66 359.36,317.68 355.76,317.68 355.76,306.89 352.17,306.89 352.17,288.9 348.57,288.9 348.57,278.12 344.97,278.12 344.97,263.73 341.38,263.73 341.38,252.94 337.78,252.94 337.78,242.16 334.18,242.16 334.18,231.37 330.59,231.37 330.59,216.98 326.99,216.98 326.99,206.19 323.39,206.19 323.39,195.41 319.8,195.41 319.8,188.21 316.2,188.21 316.2,177.43 312.61,177.43 312.61,166.64 309.01,166.64 309.01,159.44 305.41,159.44 305.41,148.65 301.82,148.65 301.82,141.46 298.22,141.46 298.22,137.87 294.63,137.87 294.63,130.67 291.03,130.67 291.03,123.48 287.44,123.48 287.44,119.89 283.84,119.89 283.84,116.29 276.65,116.29 276.65,112.7 262.26,112.7 "/>
  <g id="_1715216564880">
   <path class="fil2" d="M292.12 409.82c-0.33,1.32 -0.7,2.61 -1.09,3.9l0 26.22c0,8.44 -1.28,16.59 -3.64,24.27 -0.24,7.42 -1.47,14.61 -3.55,21.42l0 1.06c0,8.75 -1.37,17.18 -3.9,25.1 -0.6,6.95 -2.06,13.65 -4.28,20.01 -0.61,3.89 -1.48,7.68 -2.61,11.37l0 4.66c0,11.1 -2.21,21.69 -6.2,31.38 -0.57,2.22 -1.23,4.39 -1.98,6.53 -0.6,3.89 -1.48,7.68 -2.61,11.37l0 1.07c0,8.74 -1.37,17.17 -3.9,25.09 -0.53,6.21 -1.76,12.23 -3.6,17.98 -0.53,6.21 -1.76,12.22 -3.59,17.96 -0.6,6.96 -2.06,13.67 -4.28,20.03 -0.6,3.89 -1.48,7.69 -2.61,11.39l0 1.05c0,8.73 -1.37,17.16 -3.9,25.07 -0.5,5.87 -1.62,11.57 -3.29,17.03l0 1.05c0,9.49 -1.62,18.62 -4.58,27.12 -0.61,3.89 -1.49,7.68 -2.61,11.38l0 4.65c0,8.39 -1.26,16.49 -3.6,24.13l0 8.24c0,8.43 -1.28,16.58 -3.64,24.26 -0.24,7.43 -1.47,14.61 -3.55,21.43l0 11.85c0,8.38 -1.26,16.49 -3.6,24.12l0 44.2c0,8.39 -1.26,16.49 -3.6,24.12l0 11.85c0,8.38 -1.26,16.47 -3.59,24.11l0 29.83c0,8.38 -1.26,16.49 -3.6,24.12l0 37.01c0,8.39 -1.26,16.49 -3.6,24.12l0 11.84c0,3.14 -0.17,6.24 -0.52,9.29 1.91,-0.44 3.84,-0.81 5.79,-1.12 6.35,-2.21 13.05,-3.67 19.99,-4.26 7.92,-2.54 16.35,-3.91 25.09,-3.91l53.94 0c9.5,0 18.62,1.62 27.13,4.58 6.48,1.01 12.72,2.78 18.62,5.21 3.71,0.96 7.33,2.17 10.82,3.61 2.78,0.71 5.5,1.57 8.16,2.57l0 -13.43c-2.33,-7.64 -3.59,-15.73 -3.59,-24.11l0 -11.84c-2.34,-7.64 -3.6,-15.74 -3.6,-24.13l0 -40.6c-2.33,-7.64 -3.59,-15.74 -3.59,-24.13l0 -15.44c-2.34,-7.64 -3.6,-15.73 -3.6,-24.11l0 -15.44c-2.33,-7.64 -3.59,-15.74 -3.59,-24.12l0 -26.22c-2.34,-7.64 -3.6,-15.74 -3.6,-24.13l0 -11.85c-2.34,-7.63 -3.6,-15.73 -3.6,-24.11l0 -26.22c-2.08,-6.82 -3.31,-14.01 -3.55,-21.44 -2.37,-7.68 -3.64,-15.83 -3.64,-24.26l0 -19.05c-2.34,-7.63 -3.59,-15.73 -3.59,-24.11l0 -11.84c-2.34,-7.63 -3.6,-15.73 -3.6,-24.12l0 -11.83c-2.34,-7.64 -3.6,-15.74 -3.6,-24.13l0 -8.25c-2.33,-7.64 -3.59,-15.73 -3.59,-24.11l0 -8.25c-2.34,-7.64 -3.6,-15.74 -3.6,-24.12l0 -4.64c-2.34,-7.64 -3.6,-15.74 -3.6,-24.13l0 -4.66c-1.13,-3.69 -2,-7.48 -2.61,-11.36 -2.96,-8.51 -4.58,-17.64 -4.58,-27.13l0 -4.65c-2.34,-7.64 -3.6,-15.74 -3.6,-24.12l0 -4.66c-1.13,-3.69 -2,-7.49 -2.61,-11.37 -2.96,-8.5 -4.58,-17.63 -4.58,-27.13l0 -1.05c-2.09,-6.82 -3.31,-14.01 -3.55,-21.44 -0.37,-1.21 -0.72,-2.43 -1.03,-3.65 -0.54,-1.31 -1.05,-2.64 -1.52,-3.98z"/>
  </g>
  <path id="outline" class="fil3" d="M21.32 1756.14l3.59 0 0 -32.37 3.6 0 0 -32.36 3.59 0 0 -21.58 3.6 0 0 -25.18 3.6 0 0 -21.57 3.59 0 0 -10.79 3.6 0 0 -21.58 3.6 0 0 -21.57 3.59 0 0 -14.39 3.6 0 0 -14.38 3.6 0 0 -14.39 3.59 0 0 -14.38 3.6 0 0 -14.39 3.6 0 0 -10.79 3.59 0 0 -17.98 3.6 0 0 -7.19 3.59 0 0 -14.38 3.6 0 0 -14.39 3.59 0 0 -14.38 3.6 0 0 -7.2 3.6 0 0 -14.38 3.59 0 0 -10.79 3.6 0 0 -10.79 3.59 0 0 -7.19 3.6 0 0 -7.19 3.6 0 0 -7.19 3.59 0 0 -7.2 3.6 0 0 -7.19 3.6 0 0 -7.19 3.59 0 0 -7.19 3.6 0 0 -3.6 3.6 0 0 -7.19 3.59 0 0 -3.6 3.6 0 0 -7.19 3.59 0 0 -3.6 3.6 0 0 -7.19 3.6 0 0 -3.6 3.59 0 0 -3.59 3.6 0 0 -3.6 3.59 0 0 -7.19 3.6 0 0 -3.59 3.6 0 0 -3.6 3.59 0 0 -3.6 3.6 0 0 -3.59 3.59 0 0 -3.6 7.2 0 0 -3.59 3.59 0 0 -3.6 7.2 0 0 -3.6 3.59 0 0 -3.59 7.2 0 0 -3.6 7.19 0 0 -3.6 10.79 0 0 -3.59 10.78 0 0 -3.6 68.33 0 0 3.6 14.38 0 0 3.59 7.2 0 0 3.6 10.79 0 0 3.6 7.19 0 0 3.59 7.19 0 0 3.6 3.6 0 0 3.6 7.19 0 0 3.59 3.59 0 0 3.6 3.6 0 0 3.59 7.19 0 0 3.6 3.6 0 0 3.6 3.59 0 0 7.19 3.6 0 0 3.59 3.6 0 0 3.6 3.59 0 0 3.59 3.6 0 0 3.6 3.6 0 0 3.6 3.59 0 0 3.59 3.6 0 0 7.2 3.6 0 0 3.59 3.59 0 0 7.2 3.6 0 0 3.59 3.59 0 0 7.2 3.6 0 0 3.59 3.6 0 0 7.19 3.59 0 0 7.19 3.6 0 0 7.2 3.59 0 0 7.19 3.6 0 0 7.19 3.6 0 0 7.19 3.59 0 0 7.2 3.6 0 0 10.79 3.59 0 0 7.19 3.6 0 0 10.78 3.6 0 0 10.79 3.59 0 0 10.79 3.6 0 0 10.79 3.6 0 0 10.79 3.59 0 0 10.79 3.6 0 0 10.79 3.6 0 0 10.78 3.59 0 0 17.98 3.6 0 0 14.39 3.59 0 0 10.79 3.6 0 0 17.98 3.6 0 0 10.79 3.59 0 0 28.77 3.6 0 0 14.38 3.59 0 0 21.58 3.6 0 0 17.98 3.6 0 0 32.37 3.59 0 0 35.95 3.6 0 0 61.14 3.59 0 0 151.04 -3.59 0 0 32.36 -3.6 0 0 10.79 -3.59 0 0 7.2 -3.6 0 0 7.19 -3.6 0 0 3.59 -3.59 0 0 3.6 -7.19 0 0 3.59 -7.2 0 0 3.6 -7.19 0 0 3.6 -35.96 0 0 3.59 -32.37 0 0 3.6 -68.32 0 0 3.59 -122.27 0 0 -3.59 -50.35 0 0 -3.6 -35.96 0 0 -3.59 -25.17 0 0 -3.6 -17.99 0 0 -3.6 -14.38 0 0 -3.59 -10.79 0 0 -3.6 -10.78 0 0 -3.59 -3.6 0 0 -3.6 -7.19 0 0 -3.59 -3.6 0 0 -3.6 -3.6 0 0 -3.6 -3.59 0 0 -3.59 -3.6 0 0 -3.6 -3.6 0 0 -7.19 -3.59 0 0 -7.2 -3.6 0 0 -14.38 -3.6 0 0 -14.38 -3.59 0 0 -35.97 -3.6 0 0 -43.15 -3.59 0 0 -79.11zm230.15 -546.62l-17.98 0 0 3.6 -14.38 0 0 3.59 -10.79 0 0 3.6 -7.19 0 0 3.59 -7.2 0 0 3.6 -7.19 0 0 3.6 -3.6 0 0 3.59 -3.59 0 0 3.6 -7.19 0 0 3.6 -3.6 0 0 3.59 -3.6 0 0 3.6 -3.59 0 0 3.6 -3.6 0 0 3.59 -3.59 0 0 3.6 -3.6 0 0 3.59 -3.6 0 0 3.6 -3.59 0 0 3.6 -3.6 0 0 7.19 -3.59 0 0 3.59 -3.6 0 0 3.6 -3.6 0 0 3.59 -3.59 0 0 7.2 -3.6 0 0 7.19 -3.6 0 0 3.6 -3.59 0 0 7.19 -3.6 0 0 3.6 -3.6 0 0 7.19 -3.59 0 0 7.19 -3.6 0 0 7.19 -3.59 0 0 -21.57 3.59 0 0 -35.97 3.6 0 0 -32.36 3.59 0 0 -39.56 3.6 0 0 -28.77 3.6 0 0 -57.54 3.59 0 0 -35.96 3.6 0 0 -61.13 3.6 0 0 -53.94 3.59 0 0 -35.97 3.6 0 0 -68.32 3.6 0 0 -35.97 3.59 0 0 -21.57 3.6 0 0 -32.37 3.59 0 0 -28.76 3.6 0 0 -14.39 3.6 0 0 -25.18 3.59 0 0 -17.97 3.6 0 0 -25.18 3.59 0 0 -14.38 3.6 0 0 -17.98 3.6 0 0 -17.98 3.59 0 0 -17.98 3.6 0 0 -25.18 3.59 0 0 -14.38 3.6 0 0 -10.79 3.6 0 0 -28.77 3.59 0 0 -14.39 3.6 0 0 -17.98 3.6 0 0 -25.17 3.59 0 0 -21.58 3.6 0 0 -50.34 3.6 0 0 -28.77 3.59 0 0 -50.35 3.6 0 0 -35.96 3.59 0 0 -39.56 3.6 0 0 -28.77 3.6 0 0 -14.38 3.59 0 0 -17.98 3.6 0 0 -14.39 3.59 0 0 -10.79 3.6 0 0 -10.78 3.59 0 0 -7.2 3.6 0 0 -7.19 3.6 0 0 -3.59 3.59 0 0 -3.6 3.6 0 0 -3.59 14.39 0 0 3.59 7.19 0 0 3.6 3.6 0 0 3.59 3.59 0 0 7.19 3.6 0 0 7.2 3.59 0 0 3.59 3.6 0 0 7.19 3.59 0 0 10.79 3.6 0 0 7.2 3.6 0 0 10.79 3.59 0 0 10.78 3.6 0 0 7.2 3.59 0 0 10.78 3.6 0 0 10.79 3.6 0 0 14.39 3.59 0 0 10.79 3.6 0 0 10.78 3.6 0 0 10.79 3.59 0 0 14.39 3.6 0 0 10.78 3.6 0 0 17.99 3.59 0 0 10.79 3.6 0 0 17.98 3.59 0 0 14.38 3.6 0 0 10.79 3.59 0 0 21.58 3.6 0 0 10.79 3.6 0 0 21.57 3.59 0 0 25.17 3.6 0 0 14.39 3.59 0 0 28.77 3.6 0 0 28.77 3.6 0 0 14.38 3.59 0 0 28.77 3.6 0 0 28.77 3.6 0 0 32.37 3.59 0 0 32.36 3.6 0 0 35.96 3.6 0 0 35.96 3.59 0 0 43.16 3.6 0 0 21.57 3.59 0 0 50.35 3.6 0 0 35.96 3.6 0 0 50.35 3.59 0 0 39.56 3.6 0 0 39.55 3.59 0 0 64.73 3.6 0 0 35.97 3.6 0 0 53.94 3.59 0 0 43.15 3.6 0 0 39.56 3.59 0 0 32.37 3.6 0 0 39.55 3.6 0 0 35.96 3.59 0 0 14.39 -3.59 0 0 -3.6 -3.6 0 0 -7.19 -3.6 0 0 -7.19 -3.59 0 0 -7.19 -3.6 0 0 -7.19 -3.59 0 0 -7.2 -3.6 0 0 -3.59 -3.6 0 0 -7.2 -3.59 0 0 -3.59 -3.6 0 0 -7.2 -3.59 0 0 -3.59 -3.6 0 0 -3.6 -3.6 0 0 -7.19 -3.59 0 0 -3.6 -3.6 0 0 -3.59 -3.59 0 0 -3.6 -3.6 0 0 -3.59 -3.6 0 0 -3.6 -3.59 0 0 -7.19 -7.2 0 0 -3.6 -3.59 0 0 -3.59 -3.6 0 0 -3.6 -3.6 0 0 -3.6 -3.59 0 0 -3.59 -3.6 0 0 -3.6 -3.59 0 0 -3.6 -7.2 0 0 -3.59 -3.59 0 0 -3.6 -7.19 0 0 -3.6 -7.19 0 0 -3.59 -10.79 0 0 -3.6 -10.79 0 0 -3.59 -10.79 0 0 -3.6 -14.39 0 0 -3.6 -53.94 0 0 3.6zm7.19 -1114.81l-7.19 0 0 3.6 -7.19 0 0 3.6 -3.6 0 0 3.59 -3.59 0 0 3.6 -3.6 0 0 7.19 -3.59 0 0 3.6 -3.6 0 0 10.78 -3.6 0 0 7.2 -3.59 0 0 10.78 -3.6 0 0 17.99 -3.59 0 0 10.79 -3.6 0 0 21.57 -3.6 0 0 35.96 -3.59 0 0 28.77 -3.6 0 0 25.17 -3.6 0 0 61.14 -3.59 0 0 50.35 -3.6 0 0 17.98 -3.6 0 0 32.36 -3.59 0 0 17.98 -3.6 0 0 17.98 -3.59 0 0 28.77 -3.6 0 0 10.79 -3.6 0 0 25.17 -3.59 0 0 21.58 -3.6 0 0 10.79 -3.59 0 0 25.17 -3.6 0 0 17.98 -3.6 0 0 21.58 -3.59 0 0 17.98 -3.6 0 0 14.39 -3.59 0 0 17.98 -3.6 0 0 21.57 -3.6 0 0 32.37 -3.59 0 0 21.58 -3.6 0 0 17.98 -3.6 0 0 35.96 -3.59 0 0 32.36 -3.6 0 0 53.95 -3.6 0 0 32.36 -3.59 0 0 61.13 -3.6 0 0 43.16 -3.59 0 0 68.33 -3.6 0 0 46.75 -3.6 0 0 57.53 -3.59 0 0 17.99 -3.6 0 0 35.96 -3.59 0 0 39.56 -3.6 0 0 28.76 -3.59 0 0 25.18 -3.6 0 0 46.75 -3.6 0 0 17.98 -3.59 0 0 10.79 -3.6 0 0 17.98 -3.6 0 0 7.19 -3.59 0 0 21.58 -3.6 0 0 14.38 -3.6 0 0 14.39 -3.59 0 0 14.38 -3.6 0 0 14.39 -3.6 0 0 17.98 -3.59 0 0 10.78 -3.6 0 0 21.58 -3.59 0 0 17.98 -3.6 0 0 25.17 -3.59 0 0 17.99 -3.6 0 0 21.57 -3.6 0 0 25.17 -3.59 0 0 21.58 -3.6 0 0 133.06 3.6 0 0 32.37 3.59 0 0 25.17 3.6 0 0 14.38 3.6 0 0 10.79 3.59 0 0 7.19 3.6 0 0 10.79 3.59 0 0 7.2 3.6 0 0 3.59 3.59 0 0 3.6 3.6 0 0 3.59 3.6 0 0 3.6 3.59 0 0 3.59 7.2 0 0 3.6 3.59 0 0 3.6 7.2 0 0 3.59 7.19 0 0 3.6 7.19 0 0 3.59 10.79 0 0 3.6 14.38 0 0 3.6 17.98 0 0 3.59 17.99 0 0 3.6 32.36 0 0 3.6 64.73 0 0 3.59 161.83 0 0 -3.59 43.15 0 0 -3.6 43.16 0 0 -3.6 14.38 0 0 -3.59 14.39 0 0 -3.6 7.19 0 0 -3.6 7.19 0 0 -3.59 3.6 0 0 -3.6 3.59 0 0 -3.59 3.6 0 0 -3.6 3.59 0 0 -3.6 3.6 0 0 -3.59 3.6 0 0 -7.19 3.59 0 0 -7.19 3.6 0 0 -14.39 3.6 0 0 -14.39 3.59 0 0 -197.78 -3.59 0 0 -46.75 -3.6 0 0 -43.16 -3.6 0 0 -14.38 -3.59 0 0 -28.77 -3.6 0 0 -21.58 -3.6 0 0 -21.57 -3.59 0 0 -14.39 -3.6 0 0 -17.98 -3.59 0 0 -10.79 -3.6 0 0 -14.38 -3.6 0 0 -14.39 -3.59 0 0 -14.38 -3.6 0 0 -7.19 -3.59 0 0 -14.39 -3.6 0 0 -14.38 -3.6 0 0 -14.39 -3.59 0 0 -35.96 -3.6 0 0 -35.96 -3.59 0 0 -50.35 -3.6 0 0 -35.96 -3.6 0 0 -43.15 -3.59 0 0 -43.16 -3.6 0 0 -64.73 -3.6 0 0 -28.77 -3.59 0 0 -50.34 -3.6 0 0 -39.56 -3.6 0 0 -61.14 -3.59 0 0 -28.76 -3.6 0 0 -57.54 -3.59 0 0 -35.96 -3.6 0 0 -39.56 -3.6 0 0 -43.15 -3.59 0 0 -25.18 -3.6 0 0 -35.96 -3.59 0 0 -43.15 -3.6 0 0 -39.56 -3.6 0 0 -25.18 -3.59 0 0 -21.57 -3.6 0 0 -28.77 -3.59 0 0 -28.77 -3.6 0 0 -21.58 -3.6 0 0 -21.57 -3.59 0 0 -17.99 -3.6 0 0 -17.97 -3.6 0 0 -14.39 -3.59 0 0 -21.58 -3.6 0 0 -21.57 -3.6 0 0 -14.39 -3.59 0 0 -14.38 -3.6 0 0 -14.39 -3.59 0 0 -14.38 -3.6 0 0 -14.39 -3.6 0 0 -7.19 -3.59 0 0 -14.38 -3.6 0 0 -10.79 -3.59 0 0 -14.39 -3.6 0 0 -10.79 -3.59 0 0 -14.38 -3.6 0 0 -10.79 -3.6 0 0 -10.79 -3.59 0 0 -7.19 -3.6 0 0 -10.79 -3.6 0 0 -10.79 -3.59 0 0 -7.19 -3.6 0 0 -7.19 -3.6 0 0 -7.19 -3.59 0 0 -7.2 -3.6 0 0 -7.19 -3.59 0 0 -7.19 -3.6 0 0 -3.59 -3.6 0 0 -3.6 -3.59 0 0 -3.6 -3.6 0 0 -3.59 -3.59 0 0 -3.6 -3.6 0 0 -3.6 -7.19 0 0 -3.59 -25.18 0 0 3.59z"/>
 </g>
</svg>
