<?xml version="1.0" encoding="UTF-8"?>
<!DOCTYPE svg PUBLIC "-//W3C//DTD SVG 1.1//EN" "http://www.w3.org/Graphics/SVG/1.1/DTD/svg11.dtd">
<!-- Creator: CorelDRAW (Versión de evaluación) -->
<svg xmlns="http://www.w3.org/2000/svg" xml:space="preserve" width="561px" height="2052px" version="1.1" style="shape-rendering:geometricPrecision; text-rendering:geometricPrecision; image-rendering:optimizeQuality; fill-rule:evenodd; clip-rule:evenodd"
viewBox="0 0 561 2049.81"
 xmlns:xlink="http://www.w3.org/1999/xlink"
 xmlns:xodm="http://www.corel.com/coreldraw/odm/2003">
 <defs>
  <style type="text/css">
   <![CDATA[
    .fil1 {fill:#4B4B4D}
    .fil3 {fill:#F06277}
    .fil0 {fill:#EDEAE0}
    .fil2 {fill:#F2E6C9}
   ]]>
  </style>
 </defs>
 <g id="root-canal">
  <metadata id="CorelCorpID_0Corel-Layer"/>
  <polygon id="crown" class="fil0" points="240.68,1235.7 229.9,1235.7 229.9,1239.29 219.11,1239.29 219.11,1242.89 211.92,1242.89 211.92,1246.49 204.72,1246.49 204.72,1250.08 201.13,1250.08 201.13,1253.68 193.93,1253.68 193.93,1257.28 190.34,1257.28 190.34,1260.87 183.14,1260.87 183.14,1264.47 179.55,1264.47 179.55,1268.07 175.95,1268.07 175.95,1271.66 172.36,1271.66 172.36,1275.26 168.76,1275.26 168.76,1278.85 165.16,1278.85 165.16,1286.05 161.57,1286.05 161.57,1289.64 157.97,1289.64 157.97,1293.24 154.38,1293.24 154.38,1296.83 150.78,1296.83 150.78,1304.02 147.18,1304.02 147.18,1307.62 143.59,1307.62 143.59,1314.81 139.99,1314.81 139.99,1318.41 136.4,1318.41 136.4,1325.6 132.8,1325.6 132.8,1329.2 129.2,1329.2 129.2,1336.39 125.61,1336.39 125.61,1343.59 122.01,1343.59 122.01,1350.78 118.41,1350.78 118.41,1357.97 114.82,1357.97 114.82,1365.16 111.22,1365.16 111.22,1372.35 107.62,1372.35 107.62,1379.54 104.03,1379.54 104.03,1390.33 100.43,1390.33 100.43,1401.12 96.84,1401.12 96.84,1415.51 93.24,1415.51 93.24,1422.7 89.64,1422.7 89.64,1437.08 86.05,1437.08 86.05,1451.47 82.45,1451.47 82.45,1465.85 78.86,1465.85 78.86,1473.05 75.26,1473.05 75.26,1491.03 71.67,1491.03 71.67,1501.82 68.07,1501.82 68.07,1516.2 64.47,1516.2 64.47,1530.58 60.88,1530.58 60.88,1544.97 57.28,1544.97 57.28,1559.36 53.68,1559.36 53.68,1573.74 50.09,1573.74 50.09,1595.31 46.49,1595.31 46.49,1616.89 42.89,1616.89 42.89,1627.68 39.3,1627.68 39.3,1649.26 35.7,1649.26 35.7,1674.43 32.1,1674.43 32.1,1696.01 28.51,1696.01 28.51,1728.37 24.91,1728.37 24.91,1760.74 21.32,1760.74 21.32,1839.86 24.91,1839.86 24.91,1883 28.51,1883 28.51,1918.97 32.1,1918.97 32.1,1933.35 35.7,1933.35 35.7,1947.74 39.3,1947.74 39.3,1954.93 42.89,1954.93 42.89,1962.12 46.49,1962.12 46.49,1965.72 50.09,1965.72 50.09,1969.31 53.68,1969.31 53.68,1972.91 57.28,1972.91 57.28,1976.51 60.88,1976.51 60.88,1980.1 68.07,1980.1 68.07,1983.7 71.67,1983.7 71.67,1987.3 82.45,1987.3 82.45,1990.89 93.24,1990.89 93.24,1994.49 107.62,1994.49 107.62,1998.09 125.61,1998.09 125.61,2001.68 150.78,2001.68 150.78,2005.28 186.74,2005.28 186.74,2008.87 237.09,2008.87 237.09,2012.47 359.36,2012.47 359.36,2008.87 427.68,2008.87 427.68,2005.28 460.05,2005.28 460.05,2001.68 496.01,2001.68 496.01,1998.09 503.2,1998.09 503.2,1994.49 510.4,1994.49 510.4,1990.89 517.59,1990.89 517.59,1987.3 521.18,1987.3 521.18,1983.7 524.78,1983.7 524.78,1976.51 528.38,1976.51 528.38,1969.31 531.97,1969.31 531.97,1958.52 535.57,1958.52 535.57,1926.16 539.16,1926.16 539.16,1775.12 535.57,1775.12 535.57,1713.99 531.97,1713.99 531.97,1678.03 528.38,1678.03 528.38,1645.66 524.78,1645.66 524.78,1627.68 521.18,1627.68 521.18,1606.1 517.59,1606.1 517.59,1591.72 513.99,1591.72 513.99,1562.95 510.4,1562.95 510.4,1552.16 506.8,1552.16 506.8,1534.18 503.2,1534.18 503.2,1523.39 499.61,1523.39 499.61,1509.01 496.01,1509.01 496.01,1491.03 492.42,1491.03 492.42,1480.24 488.82,1480.24 488.82,1469.45 485.22,1469.45 485.22,1458.66 481.63,1458.66 481.63,1447.87 478.03,1447.87 478.03,1437.08 474.43,1437.08 474.43,1426.3 470.84,1426.3 470.84,1415.51 467.24,1415.51 467.24,1404.72 463.64,1404.72 463.64,1397.53 460.05,1397.53 460.05,1386.74 456.45,1386.74 456.45,1379.54 452.86,1379.54 452.86,1372.35 449.26,1372.35 449.26,1365.16 445.66,1365.16 445.66,1357.97 442.07,1357.97 442.07,1350.78 438.47,1350.78 438.47,1343.59 434.88,1343.59 434.88,1336.39 431.28,1336.39 431.28,1332.8 427.68,1332.8 427.68,1325.6 424.09,1325.6 424.09,1322.01 420.49,1322.01 420.49,1314.81 416.9,1314.81 416.9,1311.22 413.3,1311.22 413.3,1304.02 409.7,1304.02 409.7,1300.43 406.11,1300.43 406.11,1296.83 402.51,1296.83 402.51,1293.24 398.91,1293.24 398.91,1289.64 395.32,1289.64 395.32,1286.05 391.72,1286.05 391.72,1282.45 388.12,1282.45 388.12,1275.26 384.53,1275.26 384.53,1271.66 380.93,1271.66 380.93,1268.07 373.74,1268.07 373.74,1264.47 370.14,1264.47 370.14,1260.87 366.55,1260.87 366.55,1257.28 359.36,1257.28 359.36,1253.68 355.76,1253.68 355.76,1250.08 348.57,1250.08 348.57,1246.49 341.38,1246.49 341.38,1242.89 330.59,1242.89 330.59,1239.29 323.39,1239.29 323.39,1235.7 309.01,1235.7 309.01,1232.1 240.68,1232.1 "/>
  <path id="outline" class="fil1" d="M21.32 1750.75l3.59 0 0 -32.37 3.6 0 0 -32.36 3.59 0 0 -21.58 3.6 0 0 -25.18 3.6 0 0 -21.57 3.59 0 0 -10.79 3.6 0 0 -21.58 3.6 0 0 -21.58 3.59 0 0 -14.38 3.6 0 0 -14.38 3.6 0 0 -14.39 3.59 0 0 -14.38 3.6 0 0 -14.39 3.6 0 0 -10.79 3.59 0 0 -17.98 3.6 0 0 -7.19 3.59 0 0 -14.38 3.6 0 0 -14.39 3.59 0 0 -14.38 3.6 0 0 -7.2 3.6 0 0 -14.38 3.59 0 0 -10.79 3.6 0 0 -10.79 3.59 0 0 -7.19 3.6 0 0 -7.19 3.6 0 0 -7.2 3.59 0 0 -7.19 3.6 0 0 -7.19 3.6 0 0 -7.19 3.59 0 0 -7.19 3.6 0 0 -3.6 3.6 0 0 -7.19 3.59 0 0 -3.6 3.6 0 0 -7.19 3.59 0 0 -3.6 3.6 0 0 -7.19 3.6 0 0 -3.6 3.59 0 0 -3.59 3.6 0 0 -3.6 3.59 0 0 -7.19 3.6 0 0 -3.6 3.6 0 0 -3.59 3.59 0 0 -3.6 3.6 0 0 -3.59 3.59 0 0 -3.6 7.2 0 0 -3.6 3.59 0 0 -3.59 7.2 0 0 -3.6 3.59 0 0 -3.59 7.2 0 0 -3.6 7.19 0 0 -3.6 10.79 0 0 -3.59 10.78 0 0 -3.6 68.33 0 0 3.6 14.38 0 0 3.59 7.2 0 0 3.6 10.79 0 0 3.6 7.19 0 0 3.59 7.19 0 0 3.6 3.6 0 0 3.59 7.19 0 0 3.6 3.59 0 0 3.6 3.6 0 0 3.59 7.19 0 0 3.6 3.6 0 0 3.59 3.59 0 0 7.19 3.6 0 0 3.6 3.6 0 0 3.6 3.59 0 0 3.59 3.6 0 0 3.6 3.6 0 0 3.6 3.59 0 0 3.59 3.6 0 0 7.2 3.6 0 0 3.59 3.59 0 0 7.2 3.6 0 0 3.59 3.59 0 0 7.19 3.6 0 0 3.6 3.6 0 0 7.19 3.59 0 0 7.19 3.6 0 0 7.19 3.59 0 0 7.2 3.6 0 0 7.19 3.6 0 0 7.19 3.59 0 0 7.2 3.6 0 0 10.79 3.59 0 0 7.19 3.6 0 0 10.78 3.6 0 0 10.79 3.59 0 0 10.79 3.6 0 0 10.79 3.6 0 0 10.79 3.59 0 0 10.79 3.6 0 0 10.79 3.6 0 0 10.78 3.59 0 0 17.98 3.6 0 0 14.39 3.59 0 0 10.79 3.6 0 0 17.98 3.6 0 0 10.78 3.59 0 0 28.78 3.6 0 0 14.38 3.59 0 0 21.58 3.6 0 0 17.98 3.6 0 0 32.37 3.59 0 0 35.95 3.6 0 0 61.14 3.59 0 0 151.04 -3.59 0 0 32.36 -3.6 0 0 10.79 -3.59 0 0 7.2 -3.6 0 0 7.19 -3.6 0 0 3.59 -3.59 0 0 3.6 -7.19 0 0 3.59 -7.2 0 0 3.6 -7.19 0 0 3.6 -35.96 0 0 3.59 -32.37 0 0 3.6 -68.32 0 0 3.59 -122.27 0 0 -3.59 -50.35 0 0 -3.6 -35.96 0 0 -3.59 -25.17 0 0 -3.6 -17.99 0 0 -3.6 -14.38 0 0 -3.59 -10.79 0 0 -3.6 -10.78 0 0 -3.59 -3.6 0 0 -3.6 -7.19 0 0 -3.59 -3.6 0 0 -3.6 -3.6 0 0 -3.6 -3.59 0 0 -3.59 -3.6 0 0 -3.6 -3.6 0 0 -7.19 -3.59 0 0 -7.2 -3.6 0 0 -14.38 -3.6 0 0 -14.39 -3.59 0 0 -35.96 -3.6 0 0 -43.15 -3.59 0 0 -79.11zm230.15 -546.62l-17.98 0 0 3.59 -14.38 0 0 3.6 -10.79 0 0 3.6 -7.19 0 0 3.59 -7.2 0 0 3.6 -7.19 0 0 3.6 -3.6 0 0 3.59 -3.59 0 0 3.6 -7.19 0 0 3.6 -3.6 0 0 3.59 -3.6 0 0 3.6 -3.59 0 0 3.59 -3.6 0 0 3.6 -3.59 0 0 3.6 -3.6 0 0 3.59 -3.6 0 0 3.6 -3.59 0 0 3.59 -3.6 0 0 7.19 -3.59 0 0 3.6 -3.6 0 0 3.6 -3.6 0 0 3.59 -3.59 0 0 7.2 -3.6 0 0 7.19 -3.6 0 0 3.6 -3.59 0 0 7.19 -3.6 0 0 3.6 -3.6 0 0 7.19 -3.59 0 0 7.19 -3.6 0 0 7.19 -3.59 0 0 -21.57 3.59 0 0 -35.97 3.6 0 0 -32.36 3.59 0 0 -39.56 3.6 0 0 -28.77 3.6 0 0 -57.54 3.59 0 0 -35.96 3.6 0 0 -61.13 3.6 0 0 -53.95 3.59 0 0 -35.96 3.6 0 0 -68.32 3.6 0 0 -35.97 3.59 0 0 -21.57 3.6 0 0 -32.37 3.59 0 0 -28.77 3.6 0 0 -14.38 3.6 0 0 -25.18 3.59 0 0 -17.98 3.6 0 0 -25.17 3.59 0 0 -14.38 3.6 0 0 -17.99 3.6 0 0 -17.97 3.59 0 0 -17.98 3.6 0 0 -25.18 3.59 0 0 -14.38 3.6 0 0 -10.79 3.6 0 0 -28.77 3.59 0 0 -14.39 3.6 0 0 -17.98 3.6 0 0 -25.17 3.59 0 0 -21.58 3.6 0 0 -50.34 3.6 0 0 -28.77 3.59 0 0 -50.35 3.6 0 0 -35.96 3.59 0 0 -39.56 3.6 0 0 -28.77 3.6 0 0 -14.38 3.59 0 0 -17.98 3.6 0 0 -14.39 3.59 0 0 -10.79 3.6 0 0 -10.79 3.59 0 0 -7.19 3.6 0 0 -7.19 3.6 0 0 -3.59 3.59 0 0 -3.6 3.6 0 0 -3.6 14.39 0 0 3.6 7.19 0 0 3.6 3.6 0 0 3.59 3.59 0 0 7.19 3.6 0 0 7.19 3.59 0 0 3.6 3.6 0 0 7.19 3.59 0 0 10.79 3.6 0 0 7.2 3.6 0 0 10.79 3.59 0 0 10.78 3.6 0 0 7.2 3.59 0 0 10.78 3.6 0 0 10.79 3.6 0 0 14.39 3.59 0 0 10.79 3.6 0 0 10.78 3.6 0 0 10.79 3.59 0 0 14.39 3.6 0 0 10.78 3.6 0 0 17.99 3.59 0 0 10.79 3.6 0 0 17.97 3.59 0 0 14.39 3.6 0 0 10.79 3.59 0 0 21.58 3.6 0 0 10.78 3.6 0 0 21.58 3.59 0 0 25.17 3.6 0 0 14.39 3.59 0 0 28.77 3.6 0 0 28.77 3.6 0 0 14.38 3.59 0 0 28.77 3.6 0 0 28.77 3.6 0 0 32.37 3.59 0 0 32.36 3.6 0 0 35.96 3.6 0 0 35.96 3.59 0 0 43.16 3.6 0 0 21.57 3.59 0 0 50.35 3.6 0 0 35.96 3.6 0 0 50.35 3.59 0 0 39.56 3.6 0 0 39.55 3.59 0 0 64.73 3.6 0 0 35.97 3.6 0 0 53.94 3.59 0 0 43.15 3.6 0 0 39.56 3.59 0 0 32.36 3.6 0 0 39.56 3.6 0 0 35.96 3.59 0 0 14.39 -3.59 0 0 -3.6 -3.6 0 0 -7.19 -3.6 0 0 -7.19 -3.59 0 0 -7.19 -3.6 0 0 -7.2 -3.59 0 0 -7.19 -3.6 0 0 -3.59 -3.6 0 0 -7.2 -3.59 0 0 -3.59 -3.6 0 0 -7.2 -3.59 0 0 -3.59 -3.6 0 0 -3.6 -3.6 0 0 -7.19 -3.59 0 0 -3.6 -3.6 0 0 -3.6 -3.59 0 0 -3.59 -3.6 0 0 -3.6 -3.6 0 0 -3.59 -3.59 0 0 -7.19 -7.2 0 0 -3.6 -3.59 0 0 -3.6 -3.6 0 0 -3.59 -3.6 0 0 -3.6 -3.59 0 0 -3.59 -3.6 0 0 -3.6 -3.59 0 0 -3.6 -7.2 0 0 -3.59 -3.59 0 0 -3.6 -7.19 0 0 -3.6 -7.19 0 0 -3.59 -10.79 0 0 -3.6 -10.79 0 0 -3.6 -10.79 0 0 -3.59 -14.39 0 0 -3.6 -53.94 0 0 3.6zm7.19 -1114.81l-7.19 0 0 3.6 -7.19 0 0 3.6 -3.6 0 0 3.59 -3.59 0 0 3.6 -3.6 0 0 7.19 -3.59 0 0 3.6 -3.6 0 0 10.78 -3.6 0 0 7.19 -3.59 0 0 10.79 -3.6 0 0 17.99 -3.59 0 0 10.79 -3.6 0 0 21.57 -3.6 0 0 35.96 -3.59 0 0 28.77 -3.6 0 0 25.17 -3.6 0 0 61.14 -3.59 0 0 50.35 -3.6 0 0 17.97 -3.6 0 0 32.37 -3.59 0 0 17.98 -3.6 0 0 17.98 -3.59 0 0 28.77 -3.6 0 0 10.79 -3.6 0 0 25.17 -3.59 0 0 21.58 -3.6 0 0 10.79 -3.59 0 0 25.17 -3.6 0 0 17.98 -3.6 0 0 21.58 -3.59 0 0 17.98 -3.6 0 0 14.39 -3.59 0 0 17.97 -3.6 0 0 21.58 -3.6 0 0 32.37 -3.59 0 0 21.58 -3.6 0 0 17.98 -3.6 0 0 35.96 -3.59 0 0 32.36 -3.6 0 0 53.94 -3.6 0 0 32.37 -3.59 0 0 61.13 -3.6 0 0 43.16 -3.59 0 0 68.33 -3.6 0 0 46.75 -3.6 0 0 57.53 -3.59 0 0 17.99 -3.6 0 0 35.95 -3.59 0 0 39.57 -3.6 0 0 28.76 -3.59 0 0 25.18 -3.6 0 0 46.75 -3.6 0 0 17.98 -3.59 0 0 10.79 -3.6 0 0 17.98 -3.6 0 0 7.19 -3.59 0 0 21.57 -3.6 0 0 14.39 -3.6 0 0 14.39 -3.59 0 0 14.38 -3.6 0 0 14.38 -3.6 0 0 17.98 -3.59 0 0 10.79 -3.6 0 0 21.58 -3.59 0 0 17.98 -3.6 0 0 25.17 -3.59 0 0 17.99 -3.6 0 0 21.57 -3.6 0 0 25.17 -3.59 0 0 21.58 -3.6 0 0 133.06 3.6 0 0 32.37 3.59 0 0 25.17 3.6 0 0 14.38 3.6 0 0 10.79 3.59 0 0 7.19 3.6 0 0 10.79 3.59 0 0 7.2 3.6 0 0 3.59 3.59 0 0 3.6 3.6 0 0 3.59 3.6 0 0 3.6 3.59 0 0 3.59 7.2 0 0 3.6 3.59 0 0 3.6 7.2 0 0 3.59 7.19 0 0 3.6 7.19 0 0 3.59 10.79 0 0 3.6 14.38 0 0 3.6 17.98 0 0 3.59 17.99 0 0 3.6 32.36 0 0 3.6 64.73 0 0 3.59 161.83 0 0 -3.59 43.15 0 0 -3.6 43.16 0 0 -3.6 14.38 0 0 -3.59 14.39 0 0 -3.6 7.19 0 0 -3.6 7.19 0 0 -3.59 3.6 0 0 -3.6 3.59 0 0 -3.59 3.6 0 0 -3.6 3.59 0 0 -3.6 3.6 0 0 -3.59 3.6 0 0 -7.19 3.59 0 0 -7.19 3.6 0 0 -14.39 3.6 0 0 -14.39 3.59 0 0 -197.78 -3.59 0 0 -46.75 -3.6 0 0 -43.16 -3.6 0 0 -14.38 -3.59 0 0 -28.77 -3.6 0 0 -21.58 -3.6 0 0 -21.58 -3.59 0 0 -14.38 -3.6 0 0 -17.98 -3.59 0 0 -10.79 -3.6 0 0 -14.38 -3.6 0 0 -14.39 -3.59 0 0 -14.38 -3.6 0 0 -7.19 -3.59 0 0 -14.39 -3.6 0 0 -14.38 -3.6 0 0 -14.39 -3.59 0 0 -35.96 -3.6 0 0 -35.96 -3.59 0 0 -50.35 -3.6 0 0 -35.96 -3.6 0 0 -43.15 -3.59 0 0 -43.16 -3.6 0 0 -64.73 -3.6 0 0 -28.77 -3.59 0 0 -50.34 -3.6 0 0 -39.56 -3.6 0 0 -61.14 -3.59 0 0 -28.77 -3.6 0 0 -57.53 -3.59 0 0 -35.96 -3.6 0 0 -39.56 -3.6 0 0 -43.15 -3.59 0 0 -25.18 -3.6 0 0 -35.96 -3.59 0 0 -43.16 -3.6 0 0 -39.55 -3.6 0 0 -25.18 -3.59 0 0 -21.57 -3.6 0 0 -28.77 -3.59 0 0 -28.77 -3.6 0 0 -21.58 -3.6 0 0 -21.57 -3.59 0 0 -17.99 -3.6 0 0 -17.98 -3.6 0 0 -14.38 -3.59 0 0 -21.58 -3.6 0 0 -21.58 -3.6 0 0 -14.38 -3.59 0 0 -14.38 -3.6 0 0 -14.39 -3.59 0 0 -14.38 -3.6 0 0 -14.39 -3.6 0 0 -7.19 -3.59 0 0 -14.38 -3.6 0 0 -10.79 -3.59 0 0 -14.39 -3.6 0 0 -10.79 -3.59 0 0 -14.38 -3.6 0 0 -10.79 -3.6 0 0 -10.79 -3.59 0 0 -7.19 -3.6 0 0 -10.79 -3.6 0 0 -10.79 -3.59 0 0 -7.19 -3.6 0 0 -7.19 -3.6 0 0 -7.2 -3.59 0 0 -7.19 -3.6 0 0 -7.19 -3.59 0 0 -7.19 -3.6 0 0 -3.6 -3.6 0 0 -3.59 -3.59 0 0 -3.6 -3.6 0 0 -3.59 -3.59 0 0 -3.6 -3.6 0 0 -3.6 -7.19 0 0 -3.59 -25.18 0 0 3.59z"/>
  <polygon id="root" class="fil2" points="262.26,120.89 258.66,120.89 258.66,124.49 255.07,124.49 255.07,128.09 251.47,128.09 251.47,135.28 247.87,135.28 247.87,142.47 244.28,142.47 244.28,153.26 240.68,153.26 240.68,164.04 237.09,164.04 237.09,178.43 233.49,178.43 233.49,196.41 229.9,196.41 229.9,210.8 226.3,210.8 226.3,239.56 222.7,239.56 222.7,279.13 219.11,279.13 219.11,315.08 215.51,315.08 215.51,365.43 211.92,365.43 211.92,394.2 208.32,394.2 208.32,444.54 204.72,444.54 204.72,466.12 201.13,466.12 201.13,491.3 197.53,491.3 197.53,509.28 193.93,509.28 193.93,523.66 190.34,523.66 190.34,552.43 186.74,552.43 186.74,563.22 183.14,563.22 183.14,577.6 179.55,577.6 179.55,602.78 175.95,602.78 175.95,620.76 172.36,620.76 172.36,638.74 168.76,638.74 168.76,656.72 165.16,656.72 165.16,671.1 161.57,671.1 161.57,696.28 157.97,696.28 157.97,714.26 154.38,714.26 154.38,739.43 150.78,739.43 150.78,753.82 147.18,753.82 147.18,782.59 143.59,782.59 143.59,814.95 139.99,814.95 139.99,836.53 136.4,836.53 136.4,872.49 132.8,872.49 132.8,940.81 129.2,940.81 129.2,976.78 125.61,976.78 125.61,1030.72 122.01,1030.72 122.01,1091.85 118.41,1091.85 118.41,1127.82 114.82,1127.82 114.82,1185.35 111.22,1185.35 111.22,1214.12 107.62,1214.12 107.62,1253.68 104.03,1253.68 104.03,1286.05 100.43,1286.05 100.43,1322.01 96.84,1322.01 96.84,1343.59 100.43,1343.59 100.43,1336.39 104.03,1336.39 104.03,1329.2 107.62,1329.2 107.62,1322.01 111.22,1322.01 111.22,1318.41 114.82,1318.41 114.82,1311.22 118.41,1311.22 118.41,1307.62 122.01,1307.62 122.01,1300.43 125.61,1300.43 125.61,1293.24 129.2,1293.24 129.2,1289.64 132.8,1289.64 132.8,1286.05 136.4,1286.05 136.4,1282.45 139.99,1282.45 139.99,1275.26 143.59,1275.26 143.59,1271.66 147.18,1271.66 147.18,1268.07 150.78,1268.07 150.78,1264.47 154.38,1264.47 154.38,1260.87 157.97,1260.87 157.97,1257.28 161.57,1257.28 161.57,1253.68 165.16,1253.68 165.16,1250.08 168.76,1250.08 168.76,1246.49 172.36,1246.49 172.36,1242.89 179.55,1242.89 179.55,1239.29 183.14,1239.29 183.14,1235.7 186.74,1235.7 186.74,1232.1 193.93,1232.1 193.93,1228.51 201.13,1228.51 201.13,1224.91 208.32,1224.91 208.32,1221.32 219.11,1221.32 219.11,1217.72 233.49,1217.72 233.49,1214.12 251.47,1214.12 251.47,1210.53 305.41,1210.53 305.41,1214.12 319.8,1214.12 319.8,1217.72 330.59,1217.72 330.59,1221.32 341.38,1221.32 341.38,1224.91 352.17,1224.91 352.17,1228.51 359.36,1228.51 359.36,1232.1 366.55,1232.1 366.55,1235.7 370.14,1235.7 370.14,1239.29 377.34,1239.29 377.34,1242.89 380.93,1242.89 380.93,1246.49 384.53,1246.49 384.53,1250.08 388.12,1250.08 388.12,1253.68 391.72,1253.68 391.72,1257.28 395.32,1257.28 395.32,1260.87 398.91,1260.87 398.91,1264.47 406.11,1264.47 406.11,1271.66 409.7,1271.66 409.7,1275.26 413.3,1275.26 413.3,1278.85 416.9,1278.85 416.9,1282.45 420.49,1282.45 420.49,1286.05 424.09,1286.05 424.09,1289.64 427.68,1289.64 427.68,1296.83 431.28,1296.83 431.28,1300.43 434.88,1300.43 434.88,1304.02 438.47,1304.02 438.47,1311.22 442.07,1311.22 442.07,1314.81 445.66,1314.81 445.66,1322.01 449.26,1322.01 449.26,1325.6 452.86,1325.6 452.86,1332.8 456.45,1332.8 456.45,1339.99 460.05,1339.99 460.05,1347.18 463.64,1347.18 463.64,1354.37 467.24,1354.37 467.24,1361.56 470.84,1361.56 470.84,1365.16 474.43,1365.16 474.43,1350.78 470.84,1350.78 470.84,1314.81 467.24,1314.81 467.24,1275.26 463.64,1275.26 463.64,1242.89 460.05,1242.89 460.05,1203.34 456.45,1203.34 456.45,1160.18 452.86,1160.18 452.86,1106.24 449.26,1106.24 449.26,1070.28 445.66,1070.28 445.66,1005.55 442.07,1005.55 442.07,965.99 438.47,965.99 438.47,926.43 434.88,926.43 434.88,876.08 431.28,876.08 431.28,840.13 427.68,840.13 427.68,789.78 424.09,789.78 424.09,768.2 420.49,768.2 420.49,725.04 416.9,725.04 416.9,689.09 413.3,689.09 413.3,653.12 409.7,653.12 409.7,620.76 406.11,620.76 406.11,588.39 402.51,588.39 402.51,559.63 398.91,559.63 398.91,530.85 395.32,530.85 395.32,516.47 391.72,516.47 391.72,487.7 388.12,487.7 388.12,458.93 384.53,458.93 384.53,444.54 380.93,444.54 380.93,419.37 377.34,419.37 377.34,397.8 373.74,397.8 373.74,387.01 370.14,387.01 370.14,365.43 366.55,365.43 366.55,354.64 362.95,354.64 362.95,340.26 359.36,340.26 359.36,322.28 355.76,322.28 355.76,311.49 352.17,311.49 352.17,293.51 348.57,293.51 348.57,282.72 344.97,282.72 344.97,268.34 341.38,268.34 341.38,257.55 337.78,257.55 337.78,246.76 334.18,246.76 334.18,235.97 330.59,235.97 330.59,221.59 326.99,221.59 326.99,210.8 323.39,210.8 323.39,200.01 319.8,200.01 319.8,192.82 316.2,192.82 316.2,182.03 312.61,182.03 312.61,171.24 309.01,171.24 309.01,164.04 305.41,164.04 305.41,153.26 301.82,153.26 301.82,146.06 298.22,146.06 298.22,142.47 294.63,142.47 294.63,135.28 291.03,135.28 291.03,128.09 287.44,128.09 287.44,124.49 283.84,124.49 283.84,120.89 276.65,120.89 276.65,117.3 262.26,117.3 "/>
  <polygon class="fil3" points="368.9,804.23 370.83,804.23 370.83,837.54 372.75,837.54 372.75,890.83 374.68,890.83 374.68,917.47 376.6,917.47 376.6,974.1 378.53,974.1 378.53,1010.73 380.46,1010.73 380.46,1057.37 382.38,1057.37 382.38,1084.01 384.31,1084.01 384.31,1143.97 386.24,1143.97 386.24,1183.94 388.16,1183.94 388.16,1223.9 390.09,1223.9 390.09,1257.21 392.02,1257.21 392.02,1303.84 393.94,1303.84 393.94,1337.15 395.87,1337.15 395.87,1370.46 397.8,1370.46 397.8,1383.78 399.72,1383.78 399.72,1397.1 401.65,1397.1 401.65,1410.43 403.58,1410.43 403.58,1417.09 405.5,1417.09 405.5,1430.41 407.43,1430.41 407.43,1443.73 409.35,1443.73 409.35,1457.06 411.28,1457.06 411.28,1467.05 413.21,1467.05 413.21,1483.71 415.13,1483.71 415.13,1497.03 417.06,1497.03 417.06,1517.01 418.99,1517.01 418.99,1537 420.91,1537 420.91,1563.64 422.84,1563.64 422.84,1576.96 424.77,1576.96 424.77,1616.93 426.69,1616.93 426.69,1660.23 428.62,1660.23 428.62,1843.42 426.69,1843.42 426.69,1856.75 424.77,1856.75 424.77,1870.07 422.84,1870.07 422.84,1876.73 420.91,1876.73 420.91,1883.39 418.99,1883.39 418.99,1886.72 417.06,1886.72 417.06,1890.06 415.13,1890.06 415.13,1893.39 413.21,1893.39 413.21,1896.72 411.28,1896.72 411.28,1900.05 409.35,1900.05 409.35,1903.38 405.5,1903.38 405.5,1906.71 401.65,1906.71 401.65,1910.04 393.94,1910.04 393.94,1913.37 386.24,1913.37 386.24,1916.7 363.12,1916.7 363.12,1920.03 340.01,1920.03 340.01,1923.36 253.32,1923.36 253.32,1920.03 218.64,1920.03 218.64,1916.7 201.31,1916.7 201.31,1913.37 191.67,1913.37 191.67,1910.04 182.04,1910.04 182.04,1906.71 174.34,1906.71 174.34,1903.38 168.56,1903.38 168.56,1900.05 164.71,1900.05 164.71,1896.72 160.85,1896.72 160.85,1893.39 157,1893.39 157,1890.06 155.07,1890.06 155.07,1886.72 151.22,1886.72 151.22,1883.39 149.29,1883.39 149.29,1880.07 147.37,1880.07 147.37,1876.73 145.44,1876.73 145.44,1873.4 143.52,1873.4 143.52,1870.07 141.59,1870.07 141.59,1863.41 139.66,1863.41 139.66,1853.42 137.74,1853.42 137.74,1846.76 135.81,1846.76 135.81,1836.76 133.88,1836.76 133.88,1823.44 131.96,1823.44 131.96,1800.13 130.03,1800.13 130.03,1770.15 128.1,1770.15 128.1,1646.91 130.03,1646.91 130.03,1626.93 131.96,1626.93 131.96,1603.61 133.88,1603.61 133.88,1583.63 135.81,1583.63 135.81,1566.97 137.74,1566.97 137.74,1543.66 139.66,1543.66 139.66,1527 141.59,1527 141.59,1507.02 143.52,1507.02 143.52,1497.03 145.44,1497.03 145.44,1480.37 147.37,1480.37 147.37,1467.05 149.29,1467.05 149.29,1453.73 151.22,1453.73 151.22,1440.4 153.15,1440.4 153.15,1427.08 155.07,1427.08 155.07,1407.09 157,1407.09 157,1400.43 158.93,1400.43 158.93,1383.78 160.85,1383.78 160.85,1373.79 162.78,1373.79 162.78,1357.13 164.71,1357.13 164.71,1313.84 166.63,1313.84 166.63,1290.52 168.56,1290.52 168.56,1263.87 170.48,1263.87 170.48,1227.23 172.41,1227.23 172.41,1193.93 174.34,1193.93 174.34,1177.27 176.26,1177.27 176.26,1123.98 178.19,1123.98 178.19,1080.68 180.12,1080.68 180.12,1017.39 182.04,1017.39 182.04,977.43 183.97,977.43 183.97,920.8 185.89,920.8 185.89,890.83 187.82,890.83 187.82,840.87 189.75,840.87 189.75,810.89 191.67,810.89 191.67,777.58 193.6,777.58 193.6,760.93 195.53,760.93 195.53,740.94 197.45,740.94 197.45,710.97 199.38,710.97 199.38,690.98 201.31,690.98 201.31,674.33 203.23,674.33 203.23,661 205.16,661 205.16,644.35 207.09,644.35 207.09,624.37 209.01,624.37 209.01,607.71 210.94,607.71 210.94,584.4 212.87,584.4 212.87,574.4 214.79,574.4 214.79,554.42 216.72,554.42 216.72,531.1 218.64,531.1 218.64,521.11 220.57,521.11 220.57,494.47 222.5,494.47 222.5,477.81 224.42,477.81 224.42,461.16 226.35,461.16 226.35,431.18 228.28,431.18 228.28,414.53 230.2,414.53 230.2,367.9 232.13,367.9 232.13,311.27 234.06,311.27 234.06,287.96 235.98,287.96 235.98,261.31 237.91,261.31 237.91,228.01 239.83,228.01 239.83,208.02 241.76,208.02 241.76,198.03 243.69,198.03 243.69,181.37 245.61,181.37 245.61,171.38 247.54,171.38 247.54,164.72 249.46,164.72 249.46,154.73 251.39,154.73 251.39,151.4 253.32,151.4 253.32,144.74 255.24,144.74 255.24,141.4 257.17,141.4 257.17,138.08 259.1,138.08 259.1,134.74 262.95,134.74 262.95,131.41 266.8,131.41 266.8,128.08 280.29,128.08 280.29,131.41 284.14,131.41 284.14,134.74 286.07,134.74 286.07,138.08 287.99,138.08 287.99,141.4 289.92,141.4 289.92,144.74 291.85,144.74 291.85,148.07 293.77,148.07 293.77,151.4 295.7,151.4 295.7,158.06 297.62,158.06 297.62,164.72 299.55,164.72 299.55,171.38 301.48,171.38 301.48,178.05 303.4,178.05 303.4,184.71 305.33,184.71 305.33,191.37 307.26,191.37 307.26,201.36 309.18,201.36 309.18,211.35 311.11,211.35 311.11,218.01 313.04,218.01 313.04,228.01 314.96,228.01 314.96,238 316.89,238 316.89,251.32 318.81,251.32 318.81,261.31 320.74,261.31 320.74,274.64 322.67,274.64 322.67,284.63 324.59,284.63 324.59,297.95 326.52,297.95 326.52,304.61 328.45,304.61 328.45,317.94 330.37,317.94 330.37,331.26 332.3,331.26 332.3,344.58 334.23,344.58 334.23,357.91 336.15,357.91 336.15,371.23 338.08,371.23 338.08,391.21 340.01,391.21 340.01,411.2 341.93,411.2 341.93,424.52 343.86,424.52 343.86,441.17 345.78,441.17 345.78,457.83 347.71,457.83 347.71,477.81 349.64,477.81 349.64,497.8 351.56,497.8 351.56,524.44 353.49,524.44 353.49,551.09 355.42,551.09 355.42,571.07 357.34,571.07 357.34,594.39 359.27,594.39 359.27,631.03 361.19,631.03 361.19,671 363.12,671 363.12,704.31 365.05,704.31 365.05,727.62 366.97,727.62 366.97,767.59 368.9,767.59 "/>
 </g>
</svg>
