<?xml version="1.0" encoding="UTF-8"?>
<!DOCTYPE svg PUBLIC "-//W3C//DTD SVG 1.1//EN" "http://www.w3.org/Graphics/SVG/1.1/DTD/svg11.dtd">
<!-- Creator: CorelDRAW (Versión de evaluación) -->
<svg xmlns="http://www.w3.org/2000/svg" xml:space="preserve" width="739px" height="2458px" version="1.1" style="shape-rendering:geometricPrecision; text-rendering:geometricPrecision; image-rendering:optimizeQuality; fill-rule:evenodd; clip-rule:evenodd"
viewBox="0 0 739 2457.4"
 xmlns:xlink="http://www.w3.org/1999/xlink"
 xmlns:xodm="http://www.corel.com/coreldraw/odm/2003">
 <defs>
  <style type="text/css">
   <![CDATA[
    .str0 {stroke:#4B4B4D;stroke-width:10;stroke-miterlimit:22.9256}
    .str1 {stroke:#F7A29B;stroke-width:10;stroke-miterlimit:22.9256}
    .fil0 {fill:#FEFEFE}
    .fil1 {fill:#F1C2C2}
   ]]>
  </style>
 </defs>
 <g id="tooth-root-canal-25">
  <metadata id="CorelCorpID_0Corel-Layer"/>
  <path id="crown" class="fil0 str0" d="M631.04 1667.25c69.82,146.14 173.37,487.41 50.53,624.84 -28.42,31.8 -203.52,141.64 -245.49,158.42 -92.47,36.99 -454.48,-74.52 -435.78,-346.31 2.31,-33.66 58.82,-317.07 69.76,-334.59 12.37,-19.8 85.22,-34.18 126.55,-77.35 77.35,-80.81 158.51,-120.4 275.04,-61.61 87.65,44.2 65.95,24.35 159.39,36.6z"/>
  <path id="root" class="fil0 str0" d="M114.65 873.24c25.21,-11.92 15.26,-3.04 30.9,-44.68 7.23,-19.27 12.81,-35.25 20.94,-54.61 135.66,-323.34 112.71,-218.76 191.06,-578.18 13.43,-61.66 41.33,-192.66 104.44,-195.76 78.88,93.16 38.64,712.28 43.29,852.02 10.81,325.1 117.58,729.35 116.41,787.76 -96.09,-0.27 -69.73,3.42 -146.22,-36.34 -49.64,-25.81 -111.07,-34.65 -169.6,-18.26 -120.45,33.73 -67.8,86.01 -237.68,149.75 -11.8,-226.51 -2.64,-447.59 15.02,-669.2 5.11,-64.22 40.88,-131.94 31.44,-192.5z"/>
  <g id="_2459413929616">
   <path class="fil1 str1" d="M361.36 689.95c-20.44,46.68 -40.66,93.4 -60.39,140.42 -6.83,16.27 -12.69,32.94 -18.89,49.45 -7.48,19.94 -11.13,36.44 -22.54,55.92 -0.06,0.11 -0.13,0.22 -0.2,0.34 -2.87,22.8 -7.8,45.48 -13.75,68.5 -5.59,21.66 -15.25,50.73 -17,72.74 -10.29,129.15 -17.58,258.38 -19.39,387.71 17.02,-7.65 35.79,-14.24 57.34,-20.28 55.51,-15.54 114.18,-17.59 170.55,-7.04 -5.36,-27.48 -10.64,-54.97 -15.73,-82.51 -30.09,-162.93 -56.33,-332.56 -61.84,-498.33 -1.83,-54.9 0.45,-111.8 1.84,-166.92z"/>
  </g>
 </g>
</svg>
