<?xml version="1.0" encoding="UTF-8"?>
<!DOCTYPE svg PUBLIC "-//W3C//DTD SVG 1.1//EN" "http://www.w3.org/Graphics/SVG/1.1/DTD/svg11.dtd">
<!-- Creator: CorelDRAW (Versión de evaluación) -->
<svg xmlns="http://www.w3.org/2000/svg" xml:space="preserve" width="763px" height="2062px" version="1.1" style="shape-rendering:geometricPrecision; text-rendering:geometricPrecision; image-rendering:optimizeQuality; fill-rule:evenodd; clip-rule:evenodd"
viewBox="0 0 763 2062.24"
 xmlns:xlink="http://www.w3.org/1999/xlink"
 xmlns:xodm="http://www.corel.com/coreldraw/odm/2003">
 <defs>
  <style type="text/css">
   <![CDATA[
    .fil3 {fill:#4B4B4D}
    .fil1 {fill:#EECEE2}
    .fil2 {fill:#EDEAE0}
    .fil0 {fill:#F2E6C9}
   ]]>
  </style>
 </defs>
 <g id="root-canal">
  <metadata id="CorelCorpID_0Corel-Layer"/>
  <path id="root" class="fil0" d="M208.26 375.33l3.6 0 0 7.19 3.6 0 0 7.2 3.6 0 0 10.8 3.6 0 0 14.4 3.6 0 0 115.17 -3.6 0 0 183.55 3.6 0 0 32.39 3.6 0 0 17.99 3.6 0 0 28.8 3.6 0 0 14.39 3.59 0 0 18 3.61 0 0 21.59 3.59 0 0 14.4 3.6 0 0 17.99 3.6 0 0 10.8 3.6 0 0 10.8 3.6 0 0 14.39 3.6 0 0 14.4 3.6 0 0 14.4 3.6 0 0 10.79 3.6 0 0 10.8 3.59 0 0 10.79 3.6 0 0 14.4 3.6 0 0 10.8 3.6 0 0 14.4 3.6 0 0 10.79 3.6 0 0 10.8 3.6 0 0 10.8 3.6 0 0 10.79 3.6 0 0 10.8 3.59 0 0 7.2 3.61 0 0 10.8 3.6 0 0 7.19 3.59 0 0 10.8 3.6 0 0 7.2 3.6 0 0 7.2 3.6 0 0 7.19 3.6 0 0 7.21 3.6 0 0 3.59 3.6 0 0 7.2 3.6 0 0 3.6 3.6 0 0 3.6 3.59 0 0 3.6 7.2 0 0 3.59 7.2 0 0 3.6 28.79 0 0 -3.6 7.2 0 0 -3.59 3.6 0 0 -3.6 3.6 0 0 -3.6 3.6 0 0 -3.6 3.6 0 0 -7.2 3.6 0 0 -7.2 3.6 0 0 -3.6 3.59 0 0 -7.19 3.6 0 0 -7.2 3.6 0 0 -3.6 3.6 0 0 -10.8 3.6 0 0 -7.19 3.6 0 0 -7.21 3.6 0 0 -7.19 3.6 0 0 -7.2 3.6 0 0 -7.2 3.6 0 0 -7.2 3.6 0 0 -7.19 3.6 0 0 -7.21 3.59 0 0 -10.79 3.6 0 0 -7.2 3.6 0 0 -7.19 3.6 0 0 -7.21 3.6 0 0 -7.19 3.6 0 0 -7.2 3.6 0 0 -10.8 3.6 0 0 -7.2 3.6 0 0 -10.79 3.59 0 0 -7.2 3.61 0 0 -10.8 3.6 0 0 -10.8 3.59 0 0 -7.19 3.6 0 0 -10.8 3.6 0 0 -7.2 3.6 0 0 -10.79 3.6 0 0 -10.8 3.6 0 0 -10.8 3.6 0 0 -7.2 3.6 0 0 -14.39 3.6 0 0 -10.8 3.59 0 0 -14.4 3.6 0 0 -10.79 3.61 0 0 -10.8 3.59 0 0 -17.99 3.6 0 0 -14.4 3.6 0 0 -14.4 3.6 0 0 -17.99 3.6 0 0 -21.6 3.6 0 0 -21.59 3.59 0 0 -28.79 3.61 0 0 -39.6 3.59 0 0 -136.76 3.6 0 0 -10.79 3.6 0 0 -32.4 3.6 0 0 -14.39 3.6 0 0 -10.8 3.6 0 0 -7.2 3.6 0 0 -7.19 7.2 0 0 -3.6 10.79 0 0 3.6 7.2 0 0 3.6 3.6 0 0 3.59 3.6 0 0 7.2 3.6 0 0 7.2 3.6 0 0 7.2 3.6 0 0 10.79 3.59 0 0 10.8 3.6 0 0 10.8 3.61 0 0 10.8 3.59 0 0 10.79 3.6 0 0 14.4 3.6 0 0 21.6 3.6 0 0 14.39 3.6 0 0 14.4 3.6 0 0 17.99 3.6 0 0 28.8 3.59 0 0 21.59 3.61 0 0 32.39 3.59 0 0 50.39 3.6 0 0 100.77 -3.6 0 0 28.79 -3.59 0 0 21.6 -3.61 0 0 35.99 -3.59 0 0 32.39 -3.6 0 0 25.19 -3.6 0 0 21.59 -3.6 0 0 28.79 -3.6 0 0 14.4 -3.6 0 0 32.39 -3.6 0 0 18 -3.59 0 0 21.59 -3.61 0 0 35.99 -3.6 0 0 18 -3.59 0 0 53.98 -3.6 0 0 46.79 -3.6 0 0 82.78 3.6 0 0 35.99 3.6 0 0 50.39 3.59 0 0 25.19 -3.59 0 0 -3.6 -7.2 0 0 -3.59 -7.2 0 0 -3.61 -7.2 0 0 -3.6 -7.2 0 0 -3.59 -7.19 0 0 -3.6 -10.8 0 0 -3.6 -10.8 0 0 -3.6 -10.79 0 0 -3.6 -7.2 0 0 -3.6 -18 0 0 -3.6 -10.8 0 0 -3.6 -17.99 0 0 -3.6 -14.4 0 0 -3.59 -39.59 0 0 -3.6 -140.36 0 0 3.6 -17.99 0 0 3.59 -21.6 0 0 3.6 -21.59 0 0 3.6 -14.4 0 0 3.6 -14.4 0 0 3.6 -14.39 0 0 3.6 -14.4 0 0 3.6 -10.8 0 0 3.6 -7.19 0 0 3.6 -10.8 0 0 3.59 -10.8 0 0 3.6 -7.2 0 0 3.61 -10.79 0 0 3.59 -7.2 0 0 3.6 -7.2 0 0 3.6 -7.2 0 0 3.6 -7.2 0 0 3.6 -7.19 0 0 3.6 -7.2 0 0 3.59 -7.2 0 0 3.6 -7.2 0 0 3.61 -7.2 0 0 -14.4 3.6 0 0 -14.4 3.6 0 0 -190.75 -3.6 0 0 -39.59 -3.6 0 0 -32.39 -3.59 0 0 -35.99 -3.61 0 0 -28.79 -3.6 0 0 -28.8 -3.59 0 0 -35.98 -3.6 0 0 -25.2 -3.6 0 0 -32.39 -3.6 0 0 -61.18 -3.6 0 0 -104.37 3.6 0 0 -50.39 3.6 0 0 -35.99 3.6 0 0 -35.99 3.6 0 0 -17.99 3.59 0 0 -21.6 3.6 0 0 -21.59 3.61 0 0 -21.6 3.59 0 0 -18 3.6 0 0 -10.79 3.6 0 0 -18 3.6 0 0 -10.79 3.6 0 0 -18 3.6 0 0 -10.79 3.6 0 0 -10.8 3.6 0 0 -10.8 3.6 0 0 -10.8 3.59 0 0 -7.2 3.6 0 0 -14.39 3.61 0 0 -7.2 3.59 0 0 -10.8 3.6 0 0 -10.8 3.6 0 0 -7.19 3.6 0 0 -7.2 3.6 0 0 -7.2 3.6 0 0 -7.2 3.6 0 0 -7.19 3.6 0 0 -7.2 3.6 0 0 -3.6 3.59 0 0 -7.2 3.6 0 0 -3.6 3.6 0 0 -7.2 3.6 0 0 -3.6 7.2 0 0 -3.59 3.6 0 0 -3.6 7.2 0 0 -3.6 7.19 0 0 3.6zm241.14 -3.6l3.6 0 0 3.6 3.6 0 0 10.79 3.6 0 0 10.8 3.6 0 0 18 3.6 0 0 25.19 3.6 0 0 32.39 3.59 0 0 118.77 -3.59 0 0 190.75 3.59 0 0 32.39 3.6 0 0 35.99 3.6 0 0 35.99 3.6 0 0 21.59 3.6 0 0 21.6 3.6 0 0 14.4 -3.6 0 0 10.79 -3.6 0 0 10.8 -3.6 0 0 7.2 -3.6 0 0 7.19 -3.6 0 0 10.8 -3.59 0 0 7.2 -3.6 0 0 7.2 -3.6 0 0 7.19 -3.6 0 0 10.8 -3.6 0 0 7.2 -3.6 0 0 7.2 -3.6 0 0 7.2 -3.6 0 0 7.19 -3.6 0 0 10.8 -3.6 0 0 7.2 -3.6 0 0 7.2 -3.6 0 0 3.6 -3.59 0 0 10.8 -3.6 0 0 7.19 -3.6 0 0 7.2 -3.6 0 0 3.6 -3.6 0 0 7.2 -3.6 0 0 7.2 -3.6 0 0 3.59 -3.6 0 0 7.21 -3.6 0 0 3.59 -3.59 0 0 3.6 -3.6 0 0 3.6 -18 0 0 -3.6 -3.6 0 0 -3.6 -3.6 0 0 -3.59 -3.6 0 0 -7.21 -3.59 0 0 -3.59 -3.61 0 0 -7.2 -3.59 0 0 -7.2 -3.6 0 0 -10.8 -3.6 0 0 -7.19 -3.6 0 0 -10.8 -3.6 0 0 -7.2 -3.6 0 0 -10.8 -3.6 0 0 -14.39 -3.6 0 0 -7.21 -3.6 0 0 -10.79 -3.59 0 0 -10.8 -3.6 0 0 -10.8 -3.61 0 0 -10.79 -3.59 0 0 -10.8 -3.6 0 0 -10.8 -3.6 0 0 -14.39 -3.6 0 0 -14.4 -3.6 0 0 -10.8 -3.6 0 0 -7.19 3.6 0 0 -3.6 3.6 0 0 -10.8 3.6 0 0 -7.2 3.6 0 0 -17.99 3.6 0 0 -14.4 3.59 0 0 -14.39 3.61 0 0 -18 3.6 0 0 -28.79 3.59 0 0 -14.4 3.6 0 0 -28.79 3.6 0 0 -28.79 3.6 0 0 -39.59 3.6 0 0 -32.39 3.6 0 0 -36 3.6 0 0 -14.39 3.6 0 0 -32.39 3.6 0 0 -14.4 3.59 0 0 -21.59 3.61 0 0 -10.8 3.59 0 0 -14.4 3.6 0 0 -14.39 3.6 0 0 -14.4 3.6 0 0 -14.4 3.6 0 0 -10.79 3.6 0 0 -14.4 3.6 0 0 -10.79 3.6 0 0 -7.2 3.6 0 0 -10.8 3.6 0 0 -10.79 3.59 0 0 -7.2 3.6 0 0 -7.2 3.6 0 0 -7.2 3.6 0 0 -7.2 3.6 0 0 -7.2 3.6 0 0 -3.59 3.6 0 0 -3.6 3.6 0 0 -3.6 3.6 0 0 -3.6 3.59 0 0 -3.6 18 0 0 7.2z"/>
  <g id="_1750186536128">
   <path class="fil1" d="M165.08 630.86l-3.6 0 0 17.99 -3.6 0 0 10.8 -3.6 0 0 18 -3.6 0 0 21.59 -3.6 0 0 21.6 -3.6 0 0 21.59 -3.59 0 0 18 -3.6 0 0 35.99 -3.6 0 0 35.99 -3.6 0 0 100.76 3.6 0 0 32.4 3.6 0 0 25.19 3.6 0 0 35.99 3.59 0 0 28.79 3.6 0 0 28.79 3.6 0 0 36 3.6 0 0 32.39 3.6 0 0 39.59 3.6 0 0 165.55 14.39 0 0 -3.6 14.39 0 0 -3.6 14.4 0 0 -3.59 14.4 0 0 -3.6 21.59 0 0 -3.61 21.6 0 0 -3.59 17.99 0 0 -3.6 255.54 0 0 3.6 39.59 0 0 3.59 14.39 0 0 -147.55 3.6 0 0 -46.8 3.6 0 0 -53.98 3.6 0 0 -17.99 3.6 0 0 -36 3.6 0 0 -21.59 3.59 0 0 -17.99 3.61 0 0 -32.39 3.59 0 0 -14.4 3.6 0 0 -28.79 3.6 0 0 -21.6 3.6 0 0 -25.19 3.6 0 0 -32.39 3.6 0 0 -35.99 3.6 0 0 -21.6 3.6 0 0 -53.98 -3.6 0 0 28.8 -3.59 0 0 21.59 -3.6 0 0 21.59 -3.6 0 0 18 -3.6 0 0 14.4 -3.6 0 0 14.39 -3.6 0 0 18 -3.6 0 0 10.79 -3.6 0 0 10.8 -3.6 0 0 14.4 -3.6 0 0 10.8 -3.6 0 0 14.39 -3.6 0 0 7.2 -3.59 0 0 10.8 -3.6 0 0 10.8 -3.6 0 0 10.79 -3.6 0 0 7.2 -3.6 0 0 10.8 -3.6 0 0 7.19 -3.6 0 0 10.8 -3.6 0 0 10.8 -3.6 0 0 7.19 -3.6 0 0 10.8 -3.6 0 0 7.2 -3.6 0 0 10.8 -3.59 0 0 7.2 -3.6 0 0 7.19 -3.6 0 0 7.2 -3.6 0 0 7.2 -3.6 0 0 7.2 -3.6 0 0 10.79 -3.6 0 0 7.2 -3.6 0 0 7.2 -3.6 0 0 7.2 -3.59 0 0 7.2 -3.6 0 0 7.2 -3.6 0 0 7.19 -3.6 0 0 7.2 -3.6 0 0 7.2 -3.6 0 0 10.8 -3.6 0 0 3.6 -3.6 0 0 7.2 -3.6 0 0 7.19 -3.6 0 0 3.6 -3.6 0 0 7.2 -3.6 0 0 7.2 -3.59 0 0 3.59 -3.6 0 0 3.61 -3.6 0 0 3.6 -3.6 0 0 3.59 -7.2 0 0 3.6 -143.97 0 0 -3.6 -7.19 0 0 -3.59 -7.2 0 0 -3.6 -3.6 0 0 -3.61 -3.6 0 0 -3.59 -3.6 0 0 -7.2 -3.6 0 0 -3.6 -3.6 0 0 -7.2 -3.6 0 0 -7.19 -3.59 0 0 -7.2 -3.6 0 0 -7.2 -3.61 0 0 -10.8 -3.59 0 0 -7.2 -3.6 0 0 -10.79 -3.6 0 0 -7.2 -3.6 0 0 -10.8 -3.6 0 0 -10.8 -3.6 0 0 -10.79 -3.6 0 0 -10.8 -3.6 0 0 -10.8 -3.6 0 0 -14.39 -3.59 0 0 -10.8 -3.6 0 0 -14.4 -3.61 0 0 -10.8 -3.59 0 0 -10.79 -3.6 0 0 -10.79 -3.6 0 0 -14.4 -3.6 0 0 -14.4 -3.6 0 0 -14.39 -3.6 0 0 -10.8 -3.59 0 0 -10.8 -3.61 0 0 -18 -3.6 0 0 -14.39 -3.59 0 0 -21.59 -3.6 0 0 -18 -3.6 0 0 -14.4 -3.6 0 0 -28.79 -3.6 0 0 -18 -3.6 0 0 -32.39 -3.59 0 0 -140.36zm248.33 0l-3.59 0 0 14.4 -3.6 0 0 32.39 -3.61 0 0 14.39 -3.59 0 0 36 -3.6 0 0 32.39 -3.6 0 0 39.59 -3.6 0 0 28.79 -3.6 0 0 28.79 -3.6 0 0 14.4 -3.6 0 0 28.79 -3.6 0 0 17.99 -3.6 0 0 14.4 -3.59 0 0 7.19 3.59 0 0 10.8 3.6 0 0 10.79 3.6 0 0 10.8 3.6 0 0 10.8 3.6 0 0 7.2 3.59 0 0 -3.6 3.6 0 0 -7.2 3.6 0 0 -7.2 3.6 0 0 -7.19 3.6 0 0 -10.8 3.6 0 0 -7.2 3.6 0 0 -7.2 3.6 0 0 -7.2 3.6 0 0 -10.79 3.6 0 0 -7.2 3.6 0 0 -7.2 -3.6 0 0 -35.98 -3.6 0 0 -32.39 -3.6 0 0 -208.75z"/>
  </g>
  <polygon id="crown" class="fil2" points="467.4,1408.25 492.59,1408.25 492.59,1411.85 528.58,1411.85 528.58,1415.45 542.98,1415.45 542.98,1419.05 553.77,1419.05 553.77,1422.65 568.17,1422.65 568.17,1426.25 578.97,1426.25 578.97,1429.84 589.76,1429.84 589.76,1433.44 600.56,1433.44 600.56,1437.04 611.36,1437.04 611.36,1440.64 618.56,1440.64 618.56,1444.24 625.75,1444.24 625.75,1447.84 632.95,1447.84 632.95,1451.44 640.15,1451.44 640.15,1455.04 647.35,1455.04 647.35,1458.64 654.55,1458.64 654.55,1462.23 658.14,1462.23 658.14,1465.84 661.74,1465.84 661.74,1473.03 665.34,1473.03 665.34,1480.23 668.94,1480.23 668.94,1487.43 672.54,1487.43 672.54,1498.23 676.14,1498.23 676.14,1505.42 679.74,1505.42 679.74,1516.22 683.34,1516.22 683.34,1527.02 686.94,1527.02 686.94,1537.81 690.53,1537.81 690.53,1548.61 694.14,1548.61 694.14,1559.41 697.74,1559.41 697.74,1566.61 701.33,1566.61 701.33,1584.6 704.93,1584.6 704.93,1591.8 708.53,1591.8 708.53,1606.2 712.13,1606.2 712.13,1616.99 715.73,1616.99 715.73,1634.99 719.33,1634.99 719.33,1649.39 722.93,1649.39 722.93,1670.98 726.53,1670.98 726.53,1692.58 730.13,1692.58 730.13,1714.17 733.72,1714.17 733.72,1739.36 737.32,1739.36 737.32,1814.94 733.72,1814.94 733.72,1829.34 730.13,1829.34 730.13,1850.93 726.53,1850.93 726.53,1858.13 722.93,1858.13 722.93,1868.93 719.33,1868.93 719.33,1872.53 715.73,1872.53 715.73,1879.72 712.13,1879.72 712.13,1886.92 708.53,1886.92 708.53,1894.12 704.93,1894.12 704.93,1897.72 701.33,1897.72 701.33,1901.32 697.74,1901.32 697.74,1904.92 694.14,1904.92 694.14,1908.52 690.53,1908.52 690.53,1912.11 686.94,1912.11 686.94,1915.71 683.34,1915.71 683.34,1919.31 679.74,1919.31 679.74,1922.91 676.14,1922.91 676.14,1926.51 672.54,1926.51 672.54,1930.11 668.94,1930.11 668.94,1933.71 661.74,1933.71 661.74,1937.31 658.14,1937.31 658.14,1940.91 654.55,1940.91 654.55,1944.51 650.95,1944.51 650.95,1948.11 643.75,1948.11 643.75,1951.71 640.15,1951.71 640.15,1955.3 636.55,1955.3 636.55,1958.9 629.35,1958.9 629.35,1962.5 625.75,1962.5 625.75,1966.1 622.16,1966.1 622.16,1969.7 618.56,1969.7 618.56,1973.3 611.36,1973.3 611.36,1976.9 607.76,1976.9 607.76,1980.5 600.56,1980.5 600.56,1984.1 593.36,1984.1 593.36,1987.69 589.76,1987.69 589.76,1991.29 578.97,1991.29 578.97,1994.89 564.57,1994.89 564.57,1998.49 532.18,1998.49 532.18,1994.89 521.38,1994.89 521.38,1991.29 506.98,1991.29 506.98,1987.69 499.79,1987.69 499.79,1984.1 492.59,1984.1 492.59,1980.5 485.39,1980.5 485.39,1976.9 481.79,1976.9 481.79,1973.3 471,1973.3 471,1969.7 463.79,1969.7 463.79,1966.1 460.2,1966.1 460.2,1962.5 453,1962.5 453,1958.9 445.8,1958.9 445.8,1955.3 435,1955.3 435,1951.71 427.81,1951.71 427.81,1948.11 420.61,1948.11 420.61,1944.51 409.81,1944.51 409.81,1940.91 395.42,1940.91 395.42,1937.31 355.82,1937.31 355.82,1940.91 348.63,1940.91 348.63,1944.51 337.83,1944.51 337.83,1948.11 330.63,1948.11 330.63,1951.71 323.43,1951.71 323.43,1955.3 316.24,1955.3 316.24,1958.9 309.04,1958.9 309.04,1962.5 301.84,1962.5 301.84,1966.1 294.64,1966.1 294.64,1969.7 287.45,1969.7 287.45,1973.3 280.24,1973.3 280.24,1976.9 273.05,1976.9 273.05,1980.5 265.85,1980.5 265.85,1984.1 258.65,1984.1 258.65,1987.69 247.85,1987.69 247.85,1991.29 237.06,1991.29 237.06,1994.89 186.67,1994.89 186.67,1991.29 179.47,1991.29 179.47,1987.69 172.27,1987.69 172.27,1984.1 165.08,1984.1 165.08,1980.5 157.88,1980.5 157.88,1976.9 154.28,1976.9 154.28,1973.3 150.68,1973.3 150.68,1969.7 143.48,1969.7 143.48,1966.1 139.88,1966.1 139.88,1962.5 136.29,1962.5 136.29,1958.9 129.08,1958.9 129.08,1955.3 125.49,1955.3 125.49,1951.71 121.89,1951.71 121.89,1948.11 118.29,1948.11 118.29,1944.51 114.69,1944.51 114.69,1940.91 111.09,1940.91 111.09,1937.31 107.49,1937.31 107.49,1933.71 103.89,1933.71 103.89,1930.11 100.29,1930.11 100.29,1926.51 96.69,1926.51 96.69,1922.91 93.1,1922.91 93.1,1919.31 89.5,1919.31 89.5,1915.71 85.9,1915.71 85.9,1912.11 82.3,1912.11 82.3,1908.52 78.7,1908.52 78.7,1904.92 75.1,1904.92 75.1,1901.32 71.5,1901.32 71.5,1897.72 78.7,1897.72 78.7,1901.32 82.3,1901.32 82.3,1904.92 89.5,1904.92 89.5,1908.52 93.1,1908.52 93.1,1912.11 100.29,1912.11 100.29,1915.71 103.89,1915.71 103.89,1919.31 107.49,1919.31 107.49,1922.91 111.09,1922.91 111.09,1926.51 118.29,1926.51 118.29,1930.11 121.89,1930.11 121.89,1933.71 129.08,1933.71 129.08,1937.31 136.29,1937.31 136.29,1940.91 143.48,1940.91 143.48,1944.51 150.68,1944.51 150.68,1948.11 161.48,1948.11 161.48,1951.71 172.27,1951.71 172.27,1955.3 183.07,1955.3 183.07,1958.9 219.06,1958.9 219.06,1955.3 233.46,1955.3 233.46,1951.71 247.85,1951.71 247.85,1948.11 258.65,1948.11 258.65,1944.51 265.85,1944.51 265.85,1940.91 273.05,1940.91 273.05,1937.31 280.24,1937.31 280.24,1933.71 287.45,1933.71 287.45,1930.11 294.64,1930.11 294.64,1926.51 301.84,1926.51 301.84,1922.91 309.04,1922.91 309.04,1919.31 312.64,1919.31 312.64,1915.71 319.84,1915.71 319.84,1912.11 327.03,1912.11 327.03,1908.52 330.63,1908.52 330.63,1904.92 334.23,1904.92 334.23,1901.32 341.43,1901.32 341.43,1897.72 345.03,1897.72 345.03,1894.12 352.23,1894.12 352.23,1890.52 355.82,1890.52 355.82,1886.92 363.02,1886.92 363.02,1883.32 366.62,1883.32 366.62,1879.72 373.82,1879.72 373.82,1876.13 377.42,1876.13 377.42,1872.53 381.02,1872.53 381.02,1868.93 402.61,1868.93 402.61,1872.53 409.81,1872.53 409.81,1876.13 417.01,1876.13 417.01,1879.72 420.61,1879.72 420.61,1890.52 417.01,1890.52 417.01,1894.12 413.41,1894.12 413.41,1901.32 409.81,1901.32 409.81,1904.92 406.21,1904.92 406.21,1908.52 402.61,1908.52 402.61,1912.11 399.01,1912.11 399.01,1915.71 395.42,1915.71 395.42,1922.91 402.61,1922.91 402.61,1919.31 406.21,1919.31 406.21,1915.71 409.81,1915.71 409.81,1912.11 413.41,1912.11 413.41,1908.52 420.61,1908.52 420.61,1904.92 424.21,1904.92 424.21,1901.32 427.81,1901.32 427.81,1894.12 431.4,1894.12 431.4,1890.52 438.6,1890.52 438.6,1894.12 445.8,1894.12 445.8,1897.72 449.4,1897.72 449.4,1901.32 456.6,1901.32 456.6,1904.92 463.79,1904.92 463.79,1908.52 467.4,1908.52 467.4,1912.11 474.59,1912.11 474.59,1915.71 481.79,1915.71 481.79,1919.31 485.39,1919.31 485.39,1922.91 492.59,1922.91 492.59,1926.51 499.79,1926.51 499.79,1930.11 506.98,1930.11 506.98,1933.71 517.78,1933.71 517.78,1937.31 524.98,1937.31 524.98,1940.91 535.78,1940.91 535.78,1944.51 546.58,1944.51 546.58,1948.11 586.16,1948.11 586.16,1944.51 596.96,1944.51 596.96,1940.91 607.76,1940.91 607.76,1937.31 614.96,1937.31 614.96,1933.71 622.16,1933.71 622.16,1930.11 629.35,1930.11 629.35,1926.51 632.95,1926.51 632.95,1922.91 640.15,1922.91 640.15,1919.31 643.75,1919.31 643.75,1915.71 647.35,1915.71 647.35,1908.52 650.95,1908.52 650.95,1904.92 654.55,1904.92 654.55,1897.72 658.14,1897.72 658.14,1894.12 661.74,1894.12 661.74,1886.92 665.34,1886.92 665.34,1879.72 668.94,1879.72 668.94,1865.33 672.54,1865.33 672.54,1850.93 676.14,1850.93 676.14,1840.13 679.74,1840.13 679.74,1825.74 683.34,1825.74 683.34,1800.55 676.14,1800.55 676.14,1807.74 672.54,1807.74 672.54,1818.54 668.94,1818.54 668.94,1836.54 665.34,1836.54 665.34,1854.53 661.74,1854.53 661.74,1865.33 658.14,1865.33 658.14,1872.53 654.55,1872.53 654.55,1879.72 650.95,1879.72 650.95,1886.92 647.35,1886.92 647.35,1894.12 643.75,1894.12 643.75,1897.72 640.15,1897.72 640.15,1901.32 636.55,1901.32 636.55,1904.92 632.95,1904.92 632.95,1908.52 629.35,1908.52 629.35,1912.11 625.75,1912.11 625.75,1915.71 618.56,1915.71 618.56,1919.31 614.96,1919.31 614.96,1922.91 604.16,1922.91 604.16,1926.51 596.96,1926.51 596.96,1930.11 586.16,1930.11 586.16,1933.71 550.17,1933.71 550.17,1930.11 539.38,1930.11 539.38,1926.51 532.18,1926.51 532.18,1922.91 524.98,1922.91 524.98,1919.31 514.19,1919.31 514.19,1915.71 506.98,1915.71 506.98,1912.11 499.79,1912.11 499.79,1908.52 492.59,1908.52 492.59,1904.92 488.99,1904.92 488.99,1901.32 481.79,1901.32 481.79,1897.72 474.59,1897.72 474.59,1894.12 467.4,1894.12 467.4,1890.52 463.79,1890.52 463.79,1886.92 456.6,1886.92 456.6,1883.32 449.4,1883.32 449.4,1879.72 445.8,1879.72 445.8,1876.13 438.6,1876.13 438.6,1872.53 435,1872.53 435,1868.93 427.81,1868.93 427.81,1865.33 420.61,1865.33 420.61,1861.73 417.01,1861.73 417.01,1858.13 409.81,1858.13 409.81,1854.53 402.61,1854.53 402.61,1850.93 399.01,1850.93 399.01,1847.34 402.61,1847.34 402.61,1840.13 406.21,1840.13 406.21,1832.94 409.81,1832.94 409.81,1822.14 413.41,1822.14 413.41,1814.94 417.01,1814.94 417.01,1753.76 413.41,1753.76 413.41,1732.16 406.21,1732.16 406.21,1800.55 402.61,1800.55 402.61,1814.94 399.01,1814.94 399.01,1822.14 395.42,1822.14 395.42,1832.94 391.82,1832.94 391.82,1836.54 388.22,1836.54 388.22,1843.73 384.62,1843.73 384.62,1847.34 381.02,1847.34 381.02,1850.93 377.42,1850.93 377.42,1854.53 373.82,1854.53 373.82,1858.13 366.62,1858.13 366.62,1861.73 363.02,1861.73 363.02,1865.33 359.42,1865.33 359.42,1868.93 355.82,1868.93 355.82,1872.53 348.63,1872.53 348.63,1876.13 345.03,1876.13 345.03,1879.72 341.43,1879.72 341.43,1883.32 334.23,1883.32 334.23,1886.92 330.63,1886.92 330.63,1890.52 323.43,1890.52 323.43,1894.12 319.84,1894.12 319.84,1897.72 312.64,1897.72 312.64,1901.32 305.44,1901.32 305.44,1904.92 301.84,1904.92 301.84,1908.52 294.64,1908.52 294.64,1912.11 287.45,1912.11 287.45,1915.71 280.24,1915.71 280.24,1919.31 273.05,1919.31 273.05,1922.91 265.85,1922.91 265.85,1926.51 258.65,1926.51 258.65,1930.11 247.85,1930.11 247.85,1933.71 240.66,1933.71 240.66,1937.31 233.46,1937.31 233.46,1940.91 219.06,1940.91 219.06,1944.51 179.47,1944.51 179.47,1940.91 168.68,1940.91 168.68,1937.31 161.48,1937.31 161.48,1933.71 154.28,1933.71 154.28,1930.11 147.08,1930.11 147.08,1926.51 139.88,1926.51 139.88,1922.91 132.68,1922.91 132.68,1919.31 129.08,1919.31 129.08,1915.71 121.89,1915.71 121.89,1912.11 118.29,1912.11 118.29,1908.52 111.09,1908.52 111.09,1904.92 107.49,1904.92 107.49,1901.32 103.89,1901.32 103.89,1897.72 100.29,1897.72 100.29,1894.12 93.1,1894.12 93.1,1890.52 89.5,1890.52 89.5,1886.92 82.3,1886.92 82.3,1883.32 67.9,1883.32 67.9,1886.92 60.71,1886.92 60.71,1883.32 57.1,1883.32 57.1,1879.72 53.5,1879.72 53.5,1872.53 49.91,1872.53 49.91,1865.33 46.31,1865.33 46.31,1861.73 42.71,1861.73 42.71,1854.53 39.11,1854.53 39.11,1847.34 35.51,1847.34 35.51,1836.54 31.91,1836.54 31.91,1829.34 28.31,1829.34 28.31,1811.34 24.71,1811.34 24.71,1796.95 21.11,1796.95 21.11,1753.76 24.71,1753.76 24.71,1724.97 28.31,1724.97 28.31,1706.97 31.91,1706.97 31.91,1692.58 35.51,1692.58 35.51,1674.58 39.11,1674.58 39.11,1663.78 42.71,1663.78 42.71,1649.39 46.31,1649.39 46.31,1631.39 49.91,1631.39 49.91,1624.19 53.5,1624.19 53.5,1609.8 57.1,1609.8 57.1,1595.4 60.71,1595.4 60.71,1584.6 64.3,1584.6 64.3,1573.81 67.9,1573.81 67.9,1563.01 71.5,1563.01 71.5,1552.21 75.1,1552.21 75.1,1541.41 78.7,1541.41 78.7,1534.22 82.3,1534.22 82.3,1523.42 85.9,1523.42 85.9,1512.62 89.5,1512.62 89.5,1498.23 93.1,1498.23 93.1,1487.43 96.69,1487.43 96.69,1483.83 103.89,1483.83 103.89,1480.23 107.49,1480.23 107.49,1476.63 114.69,1476.63 114.69,1473.03 121.89,1473.03 121.89,1469.44 129.08,1469.44 129.08,1465.84 136.29,1465.84 136.29,1462.23 143.48,1462.23 143.48,1458.64 154.28,1458.64 154.28,1455.04 161.48,1455.04 161.48,1451.44 168.68,1451.44 168.68,1447.84 175.87,1447.84 175.87,1444.24 190.27,1444.24 190.27,1440.64 201.07,1440.64 201.07,1437.04 211.86,1437.04 211.86,1433.44 226.26,1433.44 226.26,1429.84 237.06,1429.84 237.06,1426.25 251.45,1426.25 251.45,1422.65 262.25,1422.65 262.25,1419.05 283.84,1419.05 283.84,1415.45 301.84,1415.45 301.84,1411.85 327.03,1411.85 327.03,1408.25 352.23,1408.25 352.23,1404.65 467.4,1404.65 "/>
  <path id="outline" class="fil3" d="M413.41 1753.76l3.6 0 0 61.18 -3.6 0 0 7.2 -3.6 0 0 10.8 -3.6 0 0 7.19 -3.6 0 0 7.21 -3.6 0 0 3.59 3.6 0 0 3.6 7.2 0 0 3.6 7.2 0 0 3.6 3.6 0 0 3.6 7.2 0 0 3.6 7.19 0 0 3.6 3.6 0 0 3.6 7.2 0 0 3.59 3.6 0 0 3.6 7.2 0 0 3.6 7.19 0 0 3.6 3.61 0 0 3.6 7.19 0 0 3.6 7.2 0 0 3.6 7.2 0 0 3.6 3.6 0 0 3.6 7.2 0 0 3.59 7.19 0 0 3.6 7.21 0 0 3.6 10.79 0 0 3.6 7.2 0 0 3.6 7.2 0 0 3.6 10.79 0 0 3.6 35.99 0 0 -3.6 10.8 0 0 -3.6 7.2 0 0 -3.6 10.8 0 0 -3.6 3.6 0 0 -3.6 7.19 0 0 -3.6 3.6 0 0 -3.59 3.6 0 0 -3.6 3.6 0 0 -3.6 3.6 0 0 -3.6 3.6 0 0 -3.6 3.6 0 0 -7.2 3.6 0 0 -7.2 3.6 0 0 -7.19 3.59 0 0 -7.2 3.6 0 0 -10.8 3.6 0 0 -17.99 3.6 0 0 -18 3.6 0 0 -10.8 3.6 0 0 -7.19 7.2 0 0 25.19 -3.6 0 0 14.39 -3.6 0 0 10.8 -3.6 0 0 14.4 -3.6 0 0 14.39 -3.6 0 0 7.2 -3.6 0 0 7.2 -3.6 0 0 3.6 -3.59 0 0 7.2 -3.6 0 0 3.6 -3.6 0 0 7.19 -3.6 0 0 3.6 -3.6 0 0 3.6 -7.2 0 0 3.6 -3.6 0 0 3.6 -7.19 0 0 3.6 -7.2 0 0 3.6 -7.2 0 0 3.6 -10.8 0 0 3.6 -10.8 0 0 3.6 -39.58 0 0 -3.6 -10.8 0 0 -3.6 -10.8 0 0 -3.6 -7.2 0 0 -3.6 -10.8 0 0 -3.6 -7.19 0 0 -3.6 -7.2 0 0 -3.6 -7.2 0 0 -3.6 -3.6 0 0 -3.6 -7.2 0 0 -3.6 -7.19 0 0 -3.59 -3.61 0 0 -3.6 -7.19 0 0 -3.6 -7.2 0 0 -3.6 -3.6 0 0 -3.6 -7.2 0 0 -3.6 -7.2 0 0 3.6 -3.59 0 0 7.2 -3.6 0 0 3.6 -3.6 0 0 3.6 -7.2 0 0 3.59 -3.6 0 0 3.6 -3.6 0 0 3.6 -3.6 0 0 3.6 -7.19 0 0 -7.2 3.59 0 0 -3.6 3.6 0 0 -3.59 3.6 0 0 -3.6 3.6 0 0 -3.6 3.6 0 0 -7.2 3.6 0 0 -3.6 3.6 0 0 -10.8 -3.6 0 0 -3.59 -7.2 0 0 -3.6 -7.2 0 0 -3.6 -21.59 0 0 3.6 -3.6 0 0 3.6 -3.6 0 0 3.59 -7.2 0 0 3.6 -3.6 0 0 3.6 -7.2 0 0 3.6 -3.59 0 0 3.6 -7.2 0 0 3.6 -3.6 0 0 3.6 -7.2 0 0 3.6 -3.6 0 0 3.6 -3.6 0 0 3.59 -7.19 0 0 3.6 -7.2 0 0 3.6 -3.6 0 0 3.6 -7.2 0 0 3.6 -7.2 0 0 3.6 -7.19 0 0 3.6 -7.21 0 0 3.6 -7.19 0 0 3.6 -7.2 0 0 3.6 -7.2 0 0 3.6 -10.8 0 0 3.6 -14.39 0 0 3.59 -14.4 0 0 3.6 -35.99 0 0 -3.6 -10.8 0 0 -3.59 -10.79 0 0 -3.6 -10.8 0 0 -3.6 -7.2 0 0 -3.6 -7.19 0 0 -3.6 -7.21 0 0 -3.6 -7.19 0 0 -3.6 -3.6 0 0 -3.6 -7.2 0 0 -3.6 -3.6 0 0 -3.6 -3.6 0 0 -3.6 -3.6 0 0 -3.6 -7.19 0 0 -3.59 -3.6 0 0 -3.6 -7.2 0 0 -3.6 -3.6 0 0 -3.6 -7.2 0 0 3.6 3.6 0 0 3.6 3.6 0 0 3.6 3.6 0 0 3.59 3.6 0 0 3.6 3.6 0 0 3.6 3.6 0 0 3.6 3.59 0 0 3.6 3.6 0 0 3.6 3.6 0 0 3.6 3.6 0 0 3.6 3.6 0 0 3.6 3.6 0 0 3.6 3.6 0 0 3.6 3.6 0 0 3.6 3.6 0 0 3.59 3.59 0 0 3.6 7.21 0 0 3.6 3.59 0 0 3.6 3.6 0 0 3.6 7.2 0 0 3.6 3.6 0 0 3.6 3.6 0 0 3.6 7.2 0 0 3.6 7.19 0 0 3.59 7.2 0 0 3.6 7.2 0 0 3.6 50.39 0 0 -3.6 10.79 0 0 -3.6 10.8 0 0 -3.59 7.2 0 0 -3.6 7.2 0 0 -3.6 7.19 0 0 -3.6 7.21 0 0 -3.6 7.19 0 0 -3.6 7.2 0 0 -3.6 7.2 0 0 -3.6 7.2 0 0 -3.6 7.19 0 0 -3.59 7.2 0 0 -3.6 7.2 0 0 -3.6 10.8 0 0 -3.6 7.19 0 0 -3.6 39.6 0 0 3.6 14.39 0 0 3.6 10.8 0 0 3.6 7.2 0 0 3.6 7.19 0 0 3.59 10.8 0 0 3.6 7.2 0 0 3.6 7.2 0 0 3.6 3.59 0 0 3.6 7.21 0 0 3.6 10.79 0 0 3.6 3.6 0 0 3.6 7.2 0 0 3.6 7.2 0 0 3.59 7.19 0 0 3.6 14.4 0 0 3.6 10.8 0 0 3.6 32.39 0 0 -3.6 14.4 0 0 -3.6 10.79 0 0 -3.6 3.6 0 0 -3.59 7.2 0 0 -3.6 7.2 0 0 -3.6 3.6 0 0 -3.6 7.2 0 0 -3.6 3.6 0 0 -3.6 3.59 0 0 -3.6 3.6 0 0 -3.6 7.2 0 0 -3.6 3.6 0 0 -3.59 3.6 0 0 -3.6 7.2 0 0 -3.6 3.6 0 0 -3.6 3.59 0 0 -3.6 3.6 0 0 -3.6 7.2 0 0 -3.6 3.6 0 0 -3.6 3.6 0 0 -3.6 3.6 0 0 -3.6 3.6 0 0 -3.6 3.6 0 0 -3.6 3.59 0 0 -3.59 3.61 0 0 -3.6 3.6 0 0 -3.6 3.59 0 0 -3.6 3.6 0 0 -3.6 3.6 0 0 -7.2 3.6 0 0 -7.2 3.6 0 0 -7.19 3.6 0 0 -3.6 3.6 0 0 -10.8 3.6 0 0 -7.2 3.6 0 0 -21.59 3.59 0 0 -14.4 3.6 0 0 -75.58 -3.6 0 0 -25.19 -3.59 0 0 -21.59 -3.6 0 0 -21.6 -3.6 0 0 -21.59 -3.6 0 0 -14.4 -3.6 0 0 -18 -3.6 0 0 -10.79 -3.6 0 0 -14.4 -3.6 0 0 -7.2 -3.6 0 0 -17.99 -3.59 0 0 -7.2 -3.6 0 0 -10.8 -3.61 0 0 -10.8 -3.59 0 0 -10.79 -3.6 0 0 -10.8 -3.6 0 0 -10.8 -3.6 0 0 -7.19 -3.6 0 0 -10.8 -3.6 0 0 -7.2 -3.6 0 0 -7.2 -3.6 0 0 -7.19 -3.6 0 0 -3.61 -3.59 0 0 -3.59 -7.2 0 0 -3.6 -7.2 0 0 -3.6 -7.2 0 0 -3.6 -7.2 0 0 -3.6 -7.19 0 0 -3.6 -7.2 0 0 -3.6 -10.8 0 0 -3.6 -10.8 0 0 -3.6 -10.79 0 0 -3.59 -10.8 0 0 -3.6 -14.4 0 0 -3.6 -10.79 0 0 -3.6 -14.4 0 0 -3.6 -35.99 0 0 -3.6 -25.19 0 0 -3.6 -115.17 0 0 3.6 -25.2 0 0 3.6 -25.19 0 0 3.6 -18 0 0 3.6 -21.59 0 0 3.6 -10.8 0 0 3.6 -14.39 0 0 3.59 -10.8 0 0 3.6 -14.4 0 0 3.6 -10.79 0 0 3.6 -10.8 0 0 3.6 -14.4 0 0 3.6 -7.19 0 0 3.6 -7.2 0 0 3.6 -7.2 0 0 3.6 -10.8 0 0 3.59 -7.19 0 0 3.61 -7.21 0 0 3.6 -7.19 0 0 3.59 -7.2 0 0 3.6 -7.2 0 0 3.6 -3.6 0 0 3.6 -7.2 0 0 3.6 -3.59 0 0 10.8 -3.6 0 0 14.39 -3.6 0 0 10.8 -3.6 0 0 10.8 -3.6 0 0 7.19 -3.6 0 0 10.8 -3.6 0 0 10.8 -3.6 0 0 10.8 -3.6 0 0 10.79 -3.59 0 0 10.8 -3.61 0 0 14.4 -3.6 0 0 14.39 -3.59 0 0 7.2 -3.6 0 0 18 -3.6 0 0 14.39 -3.6 0 0 10.8 -3.6 0 0 18 -3.6 0 0 14.39 -3.6 0 0 18 -3.6 0 0 28.79 -3.6 0 0 43.19 3.6 0 0 14.39 3.6 0 0 18 3.6 0 0 7.2 3.6 0 0 10.8 3.6 0 0 7.19 3.6 0 0 7.2 3.6 0 0 3.6 3.6 0 0 7.2 3.59 0 0 7.19 3.6 0 0 3.6 3.61 0 0 3.6 7.19 0 0 -3.6 14.4 0 0 3.6 7.2 0 0 3.6 3.6 0 0 3.6 7.19 0 0 3.6 3.6 0 0 3.6 3.6 0 0 3.6 3.6 0 0 3.6 7.2 0 0 3.59 3.6 0 0 3.6 7.19 0 0 3.6 3.6 0 0 3.6 7.2 0 0 3.6 7.2 0 0 3.6 7.2 0 0 3.6 7.2 0 0 3.6 7.2 0 0 3.6 10.79 0 0 3.6 39.59 0 0 -3.6 14.4 0 0 -3.6 7.2 0 0 -3.6 7.19 0 0 -3.6 10.8 0 0 -3.6 7.2 0 0 -3.6 7.2 0 0 -3.6 7.19 0 0 -3.6 7.21 0 0 -3.6 7.19 0 0 -3.59 7.2 0 0 -3.6 3.6 0 0 -3.6 7.2 0 0 -3.6 7.2 0 0 -3.6 3.59 0 0 -3.6 7.2 0 0 -3.6 3.6 0 0 -3.6 7.2 0 0 -3.6 3.6 0 0 -3.59 3.6 0 0 -3.6 7.19 0 0 -3.6 3.6 0 0 -3.6 3.6 0 0 -3.6 3.6 0 0 -3.6 7.2 0 0 -3.6 3.6 0 0 -3.6 3.6 0 0 -3.59 3.6 0 0 -3.61 3.6 0 0 -7.19 3.6 0 0 -3.6 3.6 0 0 -10.8 3.59 0 0 -7.2 3.6 0 0 -14.39 3.6 0 0 -68.39 7.2 0 0 21.6zm61.18 -1281.26l-3.59 0 0 -32.39 -3.6 0 0 -25.19 -3.61 0 0 -18 -3.59 0 0 -10.8 -3.6 0 0 -10.8 -3.6 0 0 -3.59 -3.6 0 0 -7.2 -18 0 0 3.6 -3.59 0 0 3.6 -3.6 0 0 3.59 -3.6 0 0 3.6 -3.6 0 0 3.61 -3.6 0 0 7.19 -3.6 0 0 7.2 -3.6 0 0 7.2 -3.6 0 0 7.2 -3.6 0 0 7.19 -3.59 0 0 10.8 -3.6 0 0 10.8 -3.6 0 0 7.2 -3.6 0 0 10.79 -3.6 0 0 14.4 -3.6 0 0 10.8 -3.6 0 0 14.39 -3.6 0 0 14.4 -3.6 0 0 14.39 -3.6 0 0 14.4 -3.6 0 0 10.8 -3.6 0 0 21.59 -3.59 0 0 14.4 -3.6 0 0 32.39 -3.6 0 0 14.4 -3.6 0 0 35.99 -3.6 0 0 32.39 -3.6 0 0 39.59 -3.6 0 0 28.79 -3.6 0 0 28.79 -3.6 0 0 14.4 -3.59 0 0 28.79 -3.6 0 0 18 -3.6 0 0 14.39 -3.6 0 0 14.4 -3.6 0 0 17.99 -3.6 0 0 7.2 -3.6 0 0 10.8 -3.6 0 0 3.6 -3.6 0 0 7.19 3.6 0 0 10.8 3.6 0 0 14.4 3.6 0 0 14.39 3.6 0 0 10.8 3.6 0 0 10.8 3.6 0 0 10.79 3.6 0 0 10.8 3.6 0 0 10.8 3.59 0 0 10.8 3.6 0 0 7.2 3.6 0 0 14.39 3.6 0 0 10.8 3.6 0 0 7.2 3.6 0 0 10.8 3.6 0 0 7.19 3.6 0 0 10.8 3.6 0 0 7.2 3.59 0 0 7.2 3.6 0 0 3.59 3.6 0 0 7.2 3.6 0 0 3.6 3.6 0 0 3.6 3.6 0 0 3.6 18 0 0 -3.6 3.6 0 0 -3.6 3.59 0 0 -3.6 3.6 0 0 -7.2 3.6 0 0 -3.59 3.6 0 0 -7.2 3.6 0 0 -7.2 3.6 0 0 -3.6 3.6 0 0 -7.2 3.6 0 0 -7.19 3.6 0 0 -10.8 3.59 0 0 -3.6 3.6 0 0 -7.2 3.6 0 0 -7.2 3.6 0 0 -10.8 3.6 0 0 -7.19 3.6 0 0 -7.2 3.6 0 0 -7.2 3.6 0 0 -7.2 3.6 0 0 -10.79 3.59 0 0 -7.2 3.61 0 0 -7.2 3.6 0 0 -7.2 3.59 0 0 -10.8 3.6 0 0 -7.19 3.6 0 0 -7.2 3.6 0 0 -10.8 3.6 0 0 -10.79 3.6 0 0 -14.4 -3.6 0 0 -21.6 -3.6 0 0 -21.59 -3.6 0 0 -35.99 -3.6 0 0 -35.99 -3.6 0 0 -32.39 -3.59 0 0 -190.75 3.59 0 0 -118.77zm-248.33 -57.58l-3.6 0 0 -14.4 -3.6 0 0 -10.8 -3.6 0 0 -7.19 -3.6 0 0 -7.21 -3.6 0 0 -3.59 -7.19 0 0 3.59 -7.2 0 0 3.6 -3.6 0 0 3.61 -7.2 0 0 3.59 -3.6 0 0 7.2 -3.6 0 0 3.6 -3.6 0 0 7.2 -3.59 0 0 3.6 -3.6 0 0 7.2 -3.6 0 0 7.19 -3.6 0 0 7.2 -3.6 0 0 7.2 -3.6 0 0 7.2 -3.6 0 0 7.19 -3.6 0 0 10.8 -3.6 0 0 10.8 -3.59 0 0 7.2 -3.61 0 0 14.39 -3.6 0 0 7.2 -3.59 0 0 10.8 -3.6 0 0 10.8 -3.6 0 0 10.8 -3.6 0 0 10.79 -3.6 0 0 18 -3.6 0 0 10.79 -3.6 0 0 18 -3.6 0 0 10.79 -3.6 0 0 18 -3.59 0 0 21.6 -3.6 0 0 21.59 -3.6 0 0 21.59 -3.6 0 0 18 -3.6 0 0 35.99 -3.6 0 0 35.99 -3.6 0 0 50.39 -3.6 0 0 104.37 3.6 0 0 61.18 3.6 0 0 32.39 3.6 0 0 25.2 3.6 0 0 35.98 3.6 0 0 28.8 3.6 0 0 28.79 3.6 0 0 35.99 3.59 0 0 32.39 3.6 0 0 39.59 3.6 0 0 190.75 -3.6 0 0 14.4 -3.6 0 0 14.4 7.2 0 0 -3.6 7.2 0 0 -3.61 7.2 0 0 -3.59 7.2 0 0 -3.6 7.19 0 0 -3.6 7.2 0 0 -3.6 7.2 0 0 -3.6 7.2 0 0 -3.6 7.2 0 0 -3.6 10.79 0 0 -3.6 7.2 0 0 -3.6 10.8 0 0 -3.59 10.8 0 0 -3.6 7.19 0 0 -3.6 10.8 0 0 -3.6 14.4 0 0 -3.6 14.39 0 0 -3.6 14.4 0 0 -3.6 14.4 0 0 -3.6 21.59 0 0 -3.6 21.6 0 0 -3.59 17.99 0 0 -3.61 140.36 0 0 3.61 39.59 0 0 3.59 14.4 0 0 3.6 17.99 0 0 3.6 10.8 0 0 3.6 18 0 0 3.6 7.19 0 0 3.6 10.8 0 0 3.6 10.8 0 0 3.6 10.8 0 0 3.6 7.19 0 0 3.59 7.2 0 0 3.6 7.2 0 0 3.6 7.2 0 0 3.6 7.2 0 0 3.6 3.59 0 0 -25.19 -3.59 0 0 -50.39 -3.6 0 0 -35.99 -3.6 0 0 -82.78 3.6 0 0 -46.79 3.6 0 0 -53.98 3.59 0 0 -18 3.6 0 0 -35.99 3.6 0 0 -21.59 3.6 0 0 -18 3.6 0 0 -32.39 3.6 0 0 -14.4 3.6 0 0 -28.79 3.6 0 0 -21.59 3.6 0 0 -25.19 3.59 0 0 -32.39 3.61 0 0 -35.99 3.6 0 0 -21.6 3.59 0 0 -28.79 3.6 0 0 -100.77 -3.6 0 0 -50.39 -3.59 0 0 -32.39 -3.6 0 0 -21.59 -3.61 0 0 -28.8 -3.59 0 0 -17.99 -3.6 0 0 -14.4 -3.6 0 0 -14.39 -3.6 0 0 -21.6 -3.6 0 0 -14.4 -3.6 0 0 -10.79 -3.6 0 0 -10.8 -3.6 0 0 -10.8 -3.6 0 0 -10.8 -3.59 0 0 -10.79 -3.6 0 0 -7.2 -3.6 0 0 -7.2 -3.6 0 0 -7.2 -3.6 0 0 -3.6 -3.6 0 0 -3.59 -7.2 0 0 -3.6 -10.79 0 0 3.6 -7.2 0 0 7.19 -3.6 0 0 7.2 -3.6 0 0 10.8 -3.6 0 0 14.39 -3.6 0 0 32.4 -3.6 0 0 10.79 -3.6 0 0 136.77 -3.6 0 0 39.59 -3.6 0 0 28.79 -3.59 0 0 21.59 -3.6 0 0 21.6 -3.6 0 0 17.99 -3.6 0 0 14.4 -3.6 0 0 14.4 -3.6 0 0 17.99 -3.6 0 0 10.8 -3.6 0 0 10.79 -3.6 0 0 14.4 -3.59 0 0 10.8 -3.6 0 0 14.39 -3.6 0 0 7.2 -3.6 0 0 10.8 -3.6 0 0 10.8 -3.6 0 0 10.79 -3.6 0 0 7.2 -3.6 0 0 10.8 -3.6 0 0 7.19 -3.59 0 0 10.8 -3.61 0 0 10.8 -3.6 0 0 7.2 -3.59 0 0 10.79 -3.6 0 0 7.2 -3.6 0 0 10.8 -3.6 0 0 7.2 -3.6 0 0 7.19 -3.6 0 0 7.21 -3.6 0 0 7.19 -3.6 0 0 7.2 -3.6 0 0 10.8 -3.59 0 0 7.2 -3.6 0 0 7.19 -3.61 0 0 7.2 -3.59 0 0 7.2 -3.6 0 0 7.2 -3.6 0 0 7.19 -3.6 0 0 7.21 -3.6 0 0 7.19 -3.6 0 0 10.8 -3.6 0 0 3.6 -3.6 0 0 7.2 -3.6 0 0 7.19 -3.59 0 0 3.6 -3.6 0 0 7.2 -3.6 0 0 7.2 -3.6 0 0 3.6 -3.6 0 0 3.6 -3.6 0 0 3.6 -3.6 0 0 3.59 -7.2 0 0 3.6 -28.79 0 0 -3.6 -7.2 0 0 -3.59 -7.2 0 0 -3.6 -3.59 0 0 -3.6 -3.6 0 0 -3.6 -3.6 0 0 -7.2 -3.6 0 0 -3.6 -3.6 0 0 -7.2 -3.6 0 0 -7.19 -3.6 0 0 -7.2 -3.6 0 0 -7.2 -3.6 0 0 -10.8 -3.59 0 0 -7.19 -3.6 0 0 -10.8 -3.6 0 0 -7.2 -3.6 0 0 -10.8 -3.6 0 0 -10.79 -3.6 0 0 -10.8 -3.6 0 0 -10.8 -3.6 0 0 -10.79 -3.6 0 0 -14.4 -3.59 0 0 -10.8 -3.61 0 0 -14.4 -3.6 0 0 -10.79 -3.59 0 0 -10.8 -3.6 0 0 -10.79 -3.6 0 0 -14.4 -3.6 0 0 -14.4 -3.6 0 0 -14.39 -3.6 0 0 -10.8 -3.6 0 0 -10.8 -3.6 0 0 -17.99 -3.6 0 0 -14.4 -3.59 0 0 -21.59 -3.6 0 0 -18 -3.6 0 0 -14.39 -3.6 0 0 -28.8 -3.6 0 0 -17.99 -3.6 0 0 -32.39 -3.6 0 0 -183.56 3.6 0 0 -115.16zm226.74 -68.39l7.2 0 0 3.6 3.59 0 0 3.6 3.61 0 0 3.6 3.6 0 0 7.2 3.59 0 0 7.2 3.6 0 0 10.8 3.6 0 0 10.79 3.6 0 0 14.4 3.6 0 0 28.79 3.6 0 0 17.99 3.6 0 0 143.97 -3.6 0 0 143.96 3.6 0 0 68.38 3.6 0 0 43.19 3.6 0 0 28.79 3.59 0 0 14.4 3.6 0 0 -10.8 3.61 0 0 -10.8 3.59 0 0 -10.79 3.6 0 0 -7.2 3.6 0 0 -14.4 3.6 0 0 -14.4 3.6 0 0 -14.39 3.6 0 0 -7.2 3.6 0 0 -14.39 3.6 0 0 -21.6 3.6 0 0 -14.4 3.59 0 0 -21.59 3.6 0 0 -14.4 3.6 0 0 -21.59 3.6 0 0 -28.79 3.6 0 0 -21.6 3.6 0 0 -129.56 3.6 0 0 -46.79 3.6 0 0 -21.6 3.6 0 0 -17.99 3.59 0 0 -7.2 3.6 0 0 -7.2 3.6 0 0 -7.19 3.6 0 0 -7.2 3.6 0 0 -3.6 3.6 0 0 -3.6 3.6 0 0 -3.6 7.2 0 0 -3.6 25.19 0 0 3.6 7.2 0 0 3.6 3.6 0 0 3.6 3.6 0 0 3.6 3.6 0 0 3.6 3.59 0 0 3.6 3.6 0 0 3.6 3.6 0 0 7.19 3.6 0 0 7.2 3.6 0 0 7.2 3.6 0 0 7.2 3.6 0 0 10.79 3.6 0 0 7.2 3.6 0 0 18 3.59 0 0 14.39 3.61 0 0 14.4 3.6 0 0 14.4 3.59 0 0 21.59 3.6 0 0 18 3.6 0 0 10.79 3.6 0 0 28.79 3.6 0 0 28.8 3.6 0 0 25.19 3.6 0 0 39.59 3.6 0 0 115.17 -3.6 0 0 32.39 -3.6 0 0 50.39 -3.6 0 0 21.59 -3.6 0 0 18 -3.6 0 0 25.19 -3.6 0 0 28.79 -3.6 0 0 25.2 -3.59 0 0 17.99 -3.6 0 0 28.79 -3.61 0 0 18 -3.59 0 0 32.39 -3.6 0 0 21.59 -3.6 0 0 32.39 -3.6 0 0 46.79 -3.6 0 0 161.96 3.6 0 0 21.6 3.6 0 0 35.98 3.6 0 0 25.2 3.6 0 0 10.8 3.59 0 0 14.39 3.61 0 0 10.8 3.6 0 0 10.8 3.59 0 0 7.19 3.6 0 0 10.8 3.6 0 0 10.8 3.6 0 0 7.19 3.6 0 0 14.4 3.6 0 0 10.8 3.6 0 0 10.8 3.6 0 0 7.19 3.6 0 0 18 3.59 0 0 10.8 3.6 0 0 17.99 3.61 0 0 10.8 3.59 0 0 17.99 3.6 0 0 18 3.6 0 0 21.6 3.6 0 0 21.59 3.6 0 0 35.99 3.6 0 0 50.39 -3.6 0 0 25.19 -3.6 0 0 10.79 -3.6 0 0 14.4 -3.6 0 0 10.8 -3.6 0 0 10.8 -3.59 0 0 7.19 -3.61 0 0 7.2 -3.6 0 0 7.2 -3.59 0 0 3.6 -3.6 0 0 3.6 -3.6 0 0 7.19 -3.6 0 0 3.6 -3.6 0 0 3.6 -3.6 0 0 3.6 -3.6 0 0 3.6 -3.6 0 0 3.6 -3.6 0 0 3.6 -3.59 0 0 3.6 -3.6 0 0 3.6 -3.61 0 0 3.6 -7.19 0 0 3.6 -3.6 0 0 3.6 -3.6 0 0 3.59 -3.6 0 0 3.6 -3.6 0 0 3.6 -3.6 0 0 3.6 -7.2 0 0 3.6 -3.59 0 0 3.6 -3.6 0 0 3.6 -7.2 0 0 3.6 -3.6 0 0 3.6 -3.6 0 0 3.59 -7.2 0 0 3.6 -3.6 0 0 3.6 -7.19 0 0 3.6 -3.6 0 0 3.6 -7.2 0 0 3.6 -7.2 0 0 3.6 -7.2 0 0 3.6 -10.8 0 0 3.6 -17.99 0 0 3.6 -35.99 0 0 -3.6 -21.6 0 0 -3.6 -7.19 0 0 -3.6 -7.2 0 0 -3.6 -10.8 0 0 -3.6 -7.2 0 0 -3.6 -7.19 0 0 -3.6 -7.2 0 0 -3.6 -3.6 0 0 -3.6 -7.2 0 0 -3.59 -7.2 0 0 -3.6 -7.2 0 0 -3.6 -10.79 0 0 -3.6 -7.2 0 0 -3.6 -7.2 0 0 -3.6 -10.8 0 0 -3.6 -46.78 0 0 3.6 -7.2 0 0 3.6 -7.2 0 0 3.6 -7.2 0 0 3.6 -7.2 0 0 3.6 -7.19 0 0 3.6 -7.2 0 0 3.59 -7.2 0 0 3.6 -3.6 0 0 3.6 -7.2 0 0 3.6 -10.8 0 0 3.6 -7.19 0 0 3.6 -7.2 0 0 3.6 -14.4 0 0 3.6 -14.39 0 0 3.6 -10.8 0 0 3.6 -35.99 0 0 -3.6 -10.8 0 0 -3.6 -10.79 0 0 -3.6 -7.2 0 0 -3.6 -7.2 0 0 -3.6 -3.6 0 0 -3.6 -7.2 0 0 -3.6 -7.19 0 0 -3.6 -3.61 0 0 -3.6 -3.6 0 0 -3.59 -3.59 0 0 -3.6 -7.2 0 0 -3.6 -3.6 0 0 -3.6 -3.6 0 0 -3.6 -3.6 0 0 -3.6 -3.6 0 0 -3.6 -3.6 0 0 -3.6 -3.6 0 0 -3.6 -7.19 0 0 -3.59 -3.6 0 0 -3.6 -3.6 0 0 -3.6 -3.6 0 0 -3.6 -3.6 0 0 -3.6 -3.6 0 0 -3.6 -3.6 0 0 -3.6 -3.6 0 0 -3.6 -3.59 0 0 -3.6 -3.61 0 0 -3.6 -3.6 0 0 -7.2 -3.59 0 0 -3.59 -3.6 0 0 -3.6 -3.6 0 0 -3.6 -3.6 0 0 -3.6 -3.6 0 0 -7.2 -3.6 0 0 -3.6 -3.6 0 0 -7.2 -3.6 0 0 -7.19 -3.6 0 0 -7.2 -3.59 0 0 -10.8 -3.6 0 0 -7.19 -3.6 0 0 -10.8 -3.6 0 0 -18 -3.6 0 0 -21.59 -3.6 0 0 -53.99 3.6 0 0 -28.79 3.6 0 0 -21.59 3.6 0 0 -10.8 3.6 0 0 -18 3.6 0 0 -7.2 3.59 0 0 -14.39 3.6 0 0 -14.4 3.6 0 0 -17.99 3.6 0 0 -10.8 3.6 0 0 -7.2 3.6 0 0 -17.99 3.6 0 0 -7.2 3.6 0 0 -10.8 3.6 0 0 -10.8 3.59 0 0 -10.79 3.6 0 0 -10.8 3.61 0 0 -10.8 3.59 0 0 -10.79 3.6 0 0 -10.8 3.6 0 0 -14.4 3.6 0 0 -21.59 3.6 0 0 -46.79 3.6 0 0 -133.16 -3.6 0 0 -50.39 -3.6 0 0 -28.79 -3.6 0 0 -43.19 -3.6 0 0 -21.6 -3.6 0 0 -28.79 -3.59 0 0 -35.99 -3.61 0 0 -35.99 -3.6 0 0 -50.39 -3.59 0 0 -61.18 -3.6 0 0 -97.17 3.6 0 0 -64.79 3.59 0 0 -17.99 3.6 0 0 -46.79 3.61 0 0 -14.4 3.59 0 0 -28.79 3.6 0 0 -14.39 3.6 0 0 -18 3.6 0 0 -21.59 3.6 0 0 -10.8 3.6 0 0 -14.4 3.6 0 0 -17.99 3.6 0 0 -10.8 3.6 0 0 -14.4 3.59 0 0 -7.19 3.6 0 0 -14.4 3.6 0 0 -10.8 3.6 0 0 -10.79 3.6 0 0 -10.8 3.6 0 0 -10.8 3.6 0 0 -7.2 3.6 0 0 -10.79 3.6 0 0 -7.2 3.59 0 0 -7.2 3.6 0 0 -10.8 3.61 0 0 -3.59 3.59 0 0 -7.2 3.6 0 0 -7.2 3.6 0 0 -7.2 3.6 0 0 -3.6 3.6 0 0 -7.19 3.6 0 0 -3.61 3.6 0 0 -3.6 3.6 0 0 -3.59 3.6 0 0 -3.6 3.59 0 0 -3.6 3.6 0 0 -3.6 3.6 0 0 -3.6 3.6 0 0 -3.6 10.8 0 0 -3.6 17.99 0 0 3.6 7.2 0 0 3.6 7.2 0 0 7.2 3.6 0 0 3.6 3.6 0 0 7.19 3.6 0 0 7.21 3.6 0 0 10.79 3.6 0 0 32.39 3.59 0 0 100.77 -3.59 0 0 165.56 3.59 0 0 46.79 3.6 0 0 25.19 3.6 0 0 14.4 3.6 0 0 17.99 3.6 0 0 18 3.6 0 0 17.99 3.6 0 0 18 3.6 0 0 18 3.6 0 0 10.79 3.59 0 0 14.4 3.6 0 0 -3.6 3.61 0 0 -14.4 3.59 0 0 -17.99 3.6 0 0 -21.6 3.6 0 0 -28.79 3.6 0 0 -28.79 3.6 0 0 -28.79 3.6 0 0 -43.19 3.6 0 0 -18 3.6 0 0 -32.39 3.6 0 0 -28.79 3.59 0 0 -14.4 3.6 0 0 -21.59 3.6 0 0 -25.19 3.6 0 0 -18 3.6 0 0 -14.39 3.6 0 0 -14.4 3.6 0 0 -10.8 3.6 0 0 -17.99 3.6 0 0 -14.4 3.59 0 0 -7.2 3.6 0 0 -18 3.6 0 0 -7.19 3.6 0 0 -10.8 3.6 0 0 -10.8 3.6 0 0 -7.19 3.6 0 0 -10.8 3.6 0 0 -7.2 3.6 0 0 -7.2 3.6 0 0 -7.19 3.6 0 0 -3.61 3.6 0 0 -7.19 3.59 0 0 -3.6 3.6 0 0 -7.2 3.6 0 0 -3.6 3.6 0 0 -3.6 3.6 0 0 -3.6 7.2 0 0 -3.6 7.2 0 0 -3.6 25.19 0 0 3.6z"/>
 </g>
</svg>
