<?xml version="1.0" encoding="UTF-8"?>
<!DOCTYPE svg PUBLIC "-//W3C//DTD SVG 1.1//EN" "http://www.w3.org/Graphics/SVG/1.1/DTD/svg11.dtd">
<!-- Creator: CorelDRAW (Versión de evaluación) -->
<svg xmlns="http://www.w3.org/2000/svg" xml:space="preserve" width="756px" height="2062px" version="1.1" style="shape-rendering:geometricPrecision; text-rendering:geometricPrecision; image-rendering:optimizeQuality; fill-rule:evenodd; clip-rule:evenodd"
viewBox="0 0 756 2062.79"
 xmlns:xlink="http://www.w3.org/1999/xlink"
 xmlns:xodm="http://www.corel.com/coreldraw/odm/2003">
 <defs>
  <style type="text/css">
   <![CDATA[
    .fil3 {fill:#4B4B4D}
    .fil1 {fill:#EECEE2}
    .fil0 {fill:#F2E6C9}
    .fil2 {fill:#FAFAF7}
   ]]>
  </style>
 </defs>
 <g id="root-canal">
  <metadata id="CorelCorpID_0Corel-Layer"/>
  <polygon id="root" class="fil0" points="287.52,418.42 280.32,418.42 280.32,425.62 276.72,425.62 276.72,432.82 273.12,432.82 273.12,443.62 269.52,443.62 269.52,465.22 265.92,465.22 265.92,587.62 269.52,587.62 269.52,710.02 265.92,710.02 265.92,760.42 262.32,760.42 262.32,807.22 258.72,807.22 258.72,828.82 255.12,828.82 255.12,854.02 251.52,854.02 251.52,886.42 247.92,886.42 247.92,908.02 244.32,908.02 244.32,951.22 247.92,951.22 247.92,958.42 251.52,958.42 251.52,969.22 255.12,969.22 255.12,976.42 258.72,976.42 258.72,983.62 262.32,983.62 262.32,990.82 265.92,990.82 265.92,1001.62 269.52,1001.62 269.52,1008.82 273.12,1008.82 273.12,1016.02 276.72,1016.02 276.72,1023.22 280.32,1023.22 280.32,1030.42 283.92,1030.42 283.92,1037.62 287.52,1037.62 287.52,1044.82 291.12,1044.82 291.12,1055.62 294.72,1055.62 294.72,1062.82 298.32,1062.82 298.32,1070.02 301.92,1070.02 301.92,1077.22 305.52,1077.22 305.52,1084.42 309.12,1084.42 309.12,1095.21 312.72,1095.21 312.72,1102.42 316.32,1102.42 316.32,1113.22 319.92,1113.22 319.92,1120.42 323.52,1120.42 323.52,1127.62 327.12,1127.62 327.12,1142.02 330.72,1142.02 330.72,1149.22 334.32,1149.22 334.32,1160.02 337.92,1160.02 337.92,1174.42 341.52,1174.42 341.52,1188.82 334.32,1188.82 334.32,1181.62 330.72,1181.62 330.72,1174.42 327.12,1174.42 327.12,1170.82 323.52,1170.82 323.52,1160.02 319.92,1160.02 319.92,1152.82 316.32,1152.82 316.32,1145.62 312.72,1145.62 312.72,1138.42 309.12,1138.42 309.12,1131.22 305.52,1131.22 305.52,1124.02 301.92,1124.02 301.92,1116.82 298.32,1116.82 298.32,1109.62 294.72,1109.62 294.72,1102.42 291.12,1102.42 291.12,1091.62 287.52,1091.62 287.52,1084.42 283.92,1084.42 283.92,1077.22 280.32,1077.22 280.32,1070.02 276.72,1070.02 276.72,1062.82 273.12,1062.82 273.12,1055.62 269.52,1055.62 269.52,1048.42 265.92,1048.42 265.92,1041.22 262.32,1041.22 262.32,1030.42 258.72,1030.42 258.72,1023.22 255.12,1023.22 255.12,1016.02 251.52,1016.02 251.52,1008.82 247.92,1008.82 247.92,1001.62 244.32,1001.62 244.32,994.42 240.72,994.42 240.72,987.22 237.12,987.22 237.12,980.02 233.52,980.02 233.52,969.22 229.92,969.22 229.92,962.02 226.32,962.02 226.32,954.82 222.72,954.82 222.72,940.42 219.12,940.42 219.12,929.62 215.52,929.62 215.52,918.82 211.92,918.82 211.92,908.02 208.32,908.02 208.32,893.62 204.72,893.62 204.72,882.82 201.12,882.82 201.12,872.02 197.52,872.02 197.52,854.02 193.92,854.02 193.92,843.22 190.32,843.22 190.32,825.22 186.72,825.22 186.72,803.62 183.12,803.62 183.12,785.62 179.52,785.62 179.52,764.02 175.92,764.02 175.92,728.02 172.32,728.02 172.32,699.22 168.72,699.22 168.72,656.02 165.12,656.02 165.12,587.62 161.52,587.62 161.52,526.42 157.92,526.42 157.92,504.82 154.32,504.82 154.32,497.62 150.72,497.62 150.72,486.82 147.12,486.82 147.12,476.02 143.52,476.02 143.52,472.42 139.92,472.42 139.92,468.82 136.32,468.82 136.32,465.22 121.92,465.22 121.92,468.82 118.32,468.82 118.32,472.42 114.72,472.42 114.72,476.02 111.12,476.02 111.12,479.62 107.52,479.62 107.52,490.42 103.92,490.42 103.92,497.62 100.32,497.62 100.32,504.82 96.72,504.82 96.72,515.62 93.12,515.62 93.12,530.02 89.52,530.02 89.52,540.82 85.92,540.82 85.92,555.22 82.32,555.22 82.32,573.22 78.72,573.22 78.72,591.22 75.12,591.22 75.12,605.62 71.52,605.62 71.52,627.22 67.92,627.22 67.92,656.02 64.32,656.02 64.32,677.62 60.72,677.62 60.72,706.42 57.12,706.42 57.12,742.42 53.52,742.42 53.52,879.22 57.12,879.22 57.12,893.62 60.72,893.62 60.72,922.42 64.32,922.42 64.32,940.42 67.92,940.42 67.92,972.82 71.52,972.82 71.52,994.42 75.12,994.42 75.12,1023.22 78.72,1023.22 78.72,1044.82 82.32,1044.82 82.32,1059.22 85.92,1059.22 85.92,1088.02 89.52,1088.02 89.52,1120.42 93.12,1120.42 93.12,1149.22 96.72,1149.22 96.72,1167.22 100.32,1167.22 100.32,1217.62 103.92,1217.62 103.92,1246.42 107.52,1246.42 107.52,1368.82 103.92,1368.82 103.92,1397.62 100.32,1397.62 100.32,1433.62 96.72,1433.62 96.72,1448.02 100.32,1448.02 100.32,1444.42 107.52,1444.42 107.52,1440.82 114.72,1440.82 114.72,1437.22 121.92,1437.22 121.92,1433.62 132.72,1433.62 132.72,1430.02 139.92,1430.02 139.92,1426.42 150.72,1426.42 150.72,1422.82 161.52,1422.82 161.52,1419.22 175.92,1419.22 175.92,1415.62 179.52,1415.62 179.52,1412.02 197.52,1412.02 197.52,1408.42 215.52,1408.42 215.52,1404.82 237.12,1404.82 237.12,1401.22 258.72,1401.22 258.72,1397.62 280.32,1397.62 280.32,1394.02 427.92,1394.02 427.92,1397.62 456.72,1397.62 456.72,1401.22 478.32,1401.22 478.32,1404.82 492.72,1404.82 492.72,1408.42 507.12,1408.42 507.12,1412.02 525.12,1412.02 525.12,1415.62 535.92,1415.62 535.92,1419.22 543.12,1419.22 543.12,1422.82 557.52,1422.82 557.52,1426.42 564.72,1426.42 564.72,1430.02 575.52,1430.02 575.52,1433.62 586.32,1433.62 586.32,1437.22 593.52,1437.22 593.52,1440.82 604.32,1440.82 604.32,1444.42 611.52,1444.42 611.52,1448.02 618.72,1448.02 618.72,1451.62 625.92,1451.62 625.92,1455.22 633.12,1455.22 633.12,1458.82 640.32,1458.82 640.32,1462.42 647.52,1462.42 647.52,1466.02 654.72,1466.02 654.72,1469.62 661.92,1469.62 661.92,1473.21 665.52,1473.21 665.52,1455.22 661.92,1455.22 661.92,1340.02 665.52,1340.02 665.52,1286.02 669.12,1286.02 669.12,1253.62 672.72,1253.62 672.72,1232.02 676.32,1232.02 676.32,1199.62 679.92,1199.62 679.92,1163.62 683.52,1163.62 683.52,1142.02 687.12,1142.02 687.12,1005.22 683.52,1005.22 683.52,958.42 679.92,958.42 679.92,940.42 676.32,940.42 676.32,918.82 672.72,918.82 672.72,897.22 669.12,897.22 669.12,872.02 665.52,872.02 665.52,861.22 661.92,861.22 661.92,846.82 658.32,846.82 658.32,828.82 654.72,828.82 654.72,814.42 651.12,814.42 651.12,800.02 647.52,800.02 647.52,785.62 643.92,785.62 643.92,771.22 640.32,771.22 640.32,756.82 636.72,756.82 636.72,746.02 633.12,746.02 633.12,735.22 629.52,735.22 629.52,728.02 625.92,728.02 625.92,710.02 622.32,710.02 622.32,702.82 618.72,702.82 618.72,692.02 615.12,692.02 615.12,684.82 611.52,684.82 611.52,670.42 607.92,670.42 607.92,663.22 604.32,663.22 604.32,652.42 600.72,652.42 600.72,641.62 597.12,641.62 597.12,634.42 593.52,634.42 593.52,623.62 589.92,623.62 589.92,616.42 586.32,616.42 586.32,609.22 582.72,609.22 582.72,602.02 579.12,602.02 579.12,594.82 575.52,594.82 575.52,587.62 571.92,587.62 571.92,576.82 568.32,576.82 568.32,573.22 564.72,573.22 564.72,566.02 561.12,566.02 561.12,558.82 557.52,558.82 557.52,555.22 553.92,555.22 553.92,548.02 550.32,548.02 550.32,544.42 546.72,544.42 546.72,537.22 543.12,537.22 543.12,533.62 539.52,533.62 539.52,530.02 535.92,530.02 535.92,526.42 532.32,526.42 532.32,522.82 528.72,522.82 528.72,519.22 525.12,519.22 525.12,515.62 521.52,515.62 521.52,512.02 514.32,512.02 514.32,508.42 503.52,508.42 503.52,512.02 499.92,512.02 499.92,515.62 496.32,515.62 496.32,533.62 492.72,533.62 492.72,602.02 496.32,602.02 496.32,645.22 499.92,645.22 499.92,706.42 503.52,706.42 503.52,836.02 499.92,836.02 499.92,872.02 496.32,872.02 496.32,904.42 492.72,904.42 492.72,918.82 489.12,918.82 489.12,944.02 485.52,944.02 485.52,965.62 481.92,965.62 481.92,980.02 478.32,980.02 478.32,994.42 474.72,994.42 474.72,1005.22 471.12,1005.22 471.12,1023.22 467.52,1023.22 467.52,1034.02 463.92,1034.02 463.92,1044.82 460.32,1044.82 460.32,1059.22 456.72,1059.22 456.72,1073.62 453.12,1073.62 453.12,1088.02 449.52,1088.02 449.52,1095.21 445.92,1095.21 445.92,1109.62 442.32,1109.62 442.32,1120.42 438.72,1120.42 438.72,1131.22 435.12,1131.22 435.12,1145.62 431.52,1145.62 431.52,1156.42 427.92,1156.42 427.92,1167.22 424.32,1167.22 424.32,1178.02 420.72,1178.02 420.72,1188.82 417.12,1188.82 417.12,1196.02 413.52,1196.02 413.52,1203.22 409.92,1203.22 409.92,1210.42 406.32,1210.42 406.32,1217.62 402.72,1217.62 402.72,1221.22 399.12,1221.22 399.12,1224.82 395.52,1224.82 395.52,1228.42 391.92,1228.42 391.92,1232.02 384.72,1232.02 384.72,1235.62 377.52,1235.62 377.52,1239.22 352.32,1239.22 352.32,1235.62 345.12,1235.62 345.12,1232.02 341.52,1232.02 341.52,1228.42 334.32,1228.42 334.32,1224.82 330.72,1224.82 330.72,1217.62 334.32,1217.62 334.32,1221.22 341.52,1221.22 341.52,1224.82 348.72,1224.82 348.72,1228.42 373.92,1228.42 373.92,1224.82 381.12,1224.82 381.12,1221.22 384.72,1221.22 384.72,1214.02 388.32,1214.02 388.32,1210.42 391.92,1210.42 391.92,1203.22 395.52,1203.22 395.52,1192.42 399.12,1192.42 399.12,1185.22 402.72,1185.22 402.72,1174.42 406.32,1174.42 406.32,1163.62 409.92,1163.62 409.92,1152.82 413.52,1152.82 413.52,1138.42 417.12,1138.42 417.12,1124.02 420.72,1124.02 420.72,1113.22 424.32,1113.22 424.32,1098.82 427.92,1098.82 427.92,1084.42 431.52,1084.42 431.52,1073.62 435.12,1073.62 435.12,1062.82 438.72,1062.82 438.72,1048.42 442.32,1048.42 442.32,1026.82 445.92,1026.82 445.92,1016.02 449.52,1016.02 449.52,1005.22 453.12,1005.22 453.12,990.82 456.72,990.82 456.72,976.42 460.32,976.42 460.32,958.42 463.92,958.42 463.92,947.62 467.52,947.62 467.52,922.42 463.92,922.42 463.92,904.42 460.32,904.42 460.32,890.02 456.72,890.02 456.72,872.02 453.12,872.02 453.12,857.62 449.52,857.62 449.52,836.02 445.92,836.02 445.92,818.02 442.32,818.02 442.32,800.02 438.72,800.02 438.72,785.62 435.12,785.62 435.12,771.22 431.52,771.22 431.52,760.42 427.92,760.42 427.92,746.02 424.32,746.02 424.32,735.22 420.72,735.22 420.72,720.82 417.12,720.82 417.12,702.82 413.52,702.82 413.52,692.02 409.92,692.02 409.92,677.62 406.32,677.62 406.32,663.22 402.72,663.22 402.72,648.82 399.12,648.82 399.12,634.42 395.52,634.42 395.52,627.22 391.92,627.22 391.92,612.82 388.32,612.82 388.32,598.42 384.72,598.42 384.72,587.62 381.12,587.62 381.12,576.82 377.52,576.82 377.52,562.42 373.92,562.42 373.92,555.22 370.32,555.22 370.32,540.82 366.72,540.82 366.72,530.02 363.12,530.02 363.12,522.82 359.52,522.82 359.52,512.02 355.92,512.02 355.92,501.22 352.32,501.22 352.32,494.02 348.72,494.02 348.72,483.22 345.12,483.22 345.12,476.02 341.52,476.02 341.52,468.82 337.92,468.82 337.92,461.62 334.32,461.62 334.32,454.42 330.72,454.42 330.72,447.22 327.12,447.22 327.12,443.62 323.52,443.62 323.52,436.42 319.92,436.42 319.92,432.82 316.32,432.82 316.32,429.22 312.72,429.22 312.72,422.02 309.12,422.02 309.12,418.42 301.92,418.42 301.92,414.82 287.52,414.82 "/>
  <g id="_2472988833408">
   <path class="fil1" d="M323.52 630.82l0 133.2 -3.6 0 0 50.4 -3.6 0 0 46.8 -3.6 0 0 21.6 -3.6 0 0 25.2 -3.6 0 0 7.2 3.6 0 0 7.19 3.6 0 0 7.21 3.6 0 0 7.2 3.6 0 0 10.8 3.6 0 0 7.19 3.6 0 0 7.21 3.6 0 0 7.2 3.6 0 0 7.19 3.6 0 0 7.21 3.6 0 0 7.2 3.6 0 0 10.8 3.6 0 0 7.19 3.6 0 0 7.21 3.6 0 0 7.2 3.6 0 0 7.19 3.6 0 0 10.8 3.6 0 0 7.21 3.6 0 0 -3.6 3.6 0 0 -14.41 3.6 0 0 -10.8 3.6 0 0 -10.8 3.6 0 0 -14.39 3.6 0 0 -21.6 3.6 0 0 -10.8 3.6 0 0 -10.8 3.6 0 0 -14.4 3.6 0 0 -10.8 -3.6 0 0 -14.4 -3.6 0 0 -21.6 -3.6 0 0 -18 -3.6 0 0 -18 -3.6 0 0 -14.4 -3.6 0 0 -14.4 -3.6 0 0 -10.8 -3.6 0 0 -14.4 -3.6 0 0 -10.8 -3.6 0 0 -14.4 -3.6 0 0 -18 -3.6 0 0 -10.8 -3.6 0 0 -14.4 -3.6 0 0 -14.4 -3.6 0 0 -14.4 -3.6 0 0 -14.4 -3.6 0 0 -7.2 -3.6 0 0 -14.4 -3.6 0 0 -14.4 -3.6 0 0 -10.8 -3.6 0 0 -10.8 -3.6 0zm-46.8 604.8l0 -7.2 -3.6 0 0 -3.6 -3.6 0 0 -10.8 -3.6 0 0 -7.2 -3.6 0 0 -7.2 -3.6 0 0 -7.2 -3.6 0 0 -7.2 -3.6 0 0 -7.2 -3.6 0 0 -7.2 -3.6 0 0 -7.2 -3.6 0 0 -7.2 -3.6 0 0 -10.8 -3.6 0 0 -7.2 -3.6 0 0 -7.2 -3.6 0 0 -7.2 -3.6 0 0 -7.2 -3.6 0 0 -7.2 -3.6 0 0 -7.2 -3.6 0 0 -7.2 -3.6 0 0 -10.8 -3.6 0 0 -7.2 -3.6 0 0 -7.2 -3.6 0 0 -7.2 -3.6 0 0 -7.2 -3.6 0 0 -7.2 -3.6 0 0 -7.2 -3.6 0 0 -7.2 -3.6 0 0 -10.8 -3.6 0 0 -7.2 -3.6 0 0 -7.2 -3.6 0 0 -14.4 -3.6 0 0 -10.8 -3.6 0 0 -10.8 -3.6 0 0 -10.8 -3.6 0 0 -14.4 -3.6 0 0 -10.8 -3.6 0 0 -10.8 -3.6 0 0 -18 -3.6 0 0 -10.8 -3.6 0 0 -18 -3.6 0 0 -21.6 -3.6 0 0 -18 -3.6 0 0 -21.6 -3.6 0 0 -36 -3.6 0 0 -28.8 -3.6 0 0 7.2 -3.6 0 0 36 -3.6 0 0 28.8 3.6 0 0 14.4 3.6 0 0 28.8 3.6 0 0 18 3.6 0 0 32.4 3.6 0 0 21.6 3.6 0 0 28.8 3.6 0 0 21.6 3.6 0 0 14.4 3.6 0 0 28.8 3.6 0 0 32.4 3.6 0 0 28.79 3.6 0 0 18.01 3.6 0 0 50.4 3.6 0 0 28.79 3.6 0 0 158.41 21.6 0 0 -3.6 21.6 0 0 -3.61 21.6 0 0 -3.59 255.6 0 0 3.59 28.8 0 0 3.61 21.6 0 0 3.6 14.4 0 0 3.59 14.4 0 0 3.61 18 0 0 3.6 10.8 0 0 3.59 7.2 0 0 3.61 10.79 0 0 -82.8 3.61 0 0 -54 3.6 0 0 -32.4 3.59 0 0 -21.6 3.61 0 0 -32.4 3.6 0 0 -36 3.59 0 0 -21.6 3.61 0 0 -28.8 -3.61 0 0 -46.8 -3.59 0 0 -18 -3.6 0 0 -21.6 -3.61 0 0 -21.6 -3.59 0 0 -25.2 -3.6 0 0 -10.8 -3.61 0 0 -14.4 -3.59 0 0 -18 -3.6 0 0 -14.4 -3.6 0 0 -14.4 -3.6 0 0 -14.4 -3.6 0 0 -14.4 -3.6 0 0 -14.4 -3.6 0 0 -10.8 -3.6 0 0 -10.8 -3.6 0 0 -7.2 -3.6 0 0 -18 -3.6 0 0 -7.2 -3.6 0 0 -10.8 -3.6 0 0 -7.2 -3.6 0 0 151.2 -3.6 0 0 36 -3.6 0 0 32.4 -3.6 0 0 14.4 -3.6 0 0 25.2 -3.6 0 0 21.6 -3.6 0 0 14.4 -3.6 0 0 14.4 -3.6 0 0 10.8 -3.6 0 0 18 -3.6 0 0 10.8 -3.6 0 0 10.8 -3.6 0 0 14.4 -3.6 0 0 14.4 -3.6 0 0 14.4 -3.6 0 0 7.2 -3.6 0 0 14.4 -3.6 0 0 10.8 -3.6 0 0 10.8 -3.6 0 0 14.4 -3.6 0 0 10.8 -3.6 0 0 10.8 -3.6 0 0 10.8 -3.6 0 0 10.8 -3.6 0 0 7.2 -3.6 0 0 7.2 -3.6 0 0 7.2 -3.6 0 0 7.2 -3.6 0 0 3.6 -3.6 0 0 3.6 -3.6 0 0 3.6 -3.6 0 0 3.6 -7.2 0 0 3.6 -7.2 0 0 3.6 -133.2 0 0 -3.6 -7.2 0 0 -3.6 -3.6 0 0 -3.6 -7.2 0 0 -3.6 -3.6 0 0 -43.2z"/>
  </g>
  <path id="crown" class="fil2" d="M309.12 1743.21l7.2 0 0 28.81 3.6 0 0 7.2 3.6 0 0 17.99 3.6 0 0 10.8 3.6 0 0 7.21 3.6 0 0 10.8 3.6 0 0 7.2 3.6 0 0 7.2 3.6 0 0 7.2 3.6 0 0 3.59 3.6 0 0 3.61 7.2 0 0 3.6 7.2 0 0 3.59 3.6 0 0 3.61 3.6 0 0 3.6 7.2 0 0 3.59 3.6 0 0 3.61 7.2 0 0 3.59 3.6 0 0 3.6 7.2 0 0 3.61 7.2 0 0 3.59 3.6 0 0 3.6 7.2 0 0 3.61 7.2 0 0 3.59 7.2 0 0 3.6 7.2 0 0 3.61 7.2 0 0 3.59 7.2 0 0 3.6 10.8 0 0 3.61 7.2 0 0 3.59 7.2 0 0 3.6 14.4 0 0 3.61 10.8 0 0 3.59 14.4 0 0 3.6 39.6 0 0 -3.6 10.8 0 0 -3.59 10.8 0 0 -3.61 7.2 0 0 -3.6 10.8 0 0 -3.59 3.6 0 0 -3.61 7.2 0 0 -3.6 3.6 0 0 -3.59 3.6 0 0 -3.61 7.2 0 0 -3.6 3.6 0 0 -3.59 3.6 0 0 -3.61 3.6 0 0 -3.6 3.6 0 0 -3.59 3.6 0 0 -3.61 3.6 0 0 -3.6 3.6 0 0 -3.59 3.6 0 0 -3.61 3.6 0 0 -3.59 3.6 0 0 -3.6 3.6 0 0 -3.61 3.6 0 0 3.61 3.6 0 0 7.19 -3.6 0 0 7.2 -3.6 0 0 3.6 -3.6 0 0 7.2 -3.6 0 0 3.6 -3.6 0 0 3.61 -3.6 0 0 3.59 -3.6 0 0 3.6 -3.6 0 0 3.61 -3.6 0 0 3.59 -7.2 0 0 3.6 -3.6 0 0 3.61 -3.6 0 0 3.59 -3.6 0 0 3.6 -7.2 0 0 3.61 -7.2 0 0 3.59 -7.2 0 0 3.6 -7.2 0 0 3.61 -7.2 0 0 3.59 -7.2 0 0 3.6 -10.8 0 0 3.61 -57.6 0 0 -3.61 -14.4 0 0 -3.6 -10.8 0 0 -3.59 -10.8 0 0 -3.61 -7.2 0 0 -3.6 -7.2 0 0 -3.59 -10.8 0 0 -3.61 -7.2 0 0 -3.6 -10.8 0 0 -3.59 -3.6 0 0 -3.61 -7.2 0 0 -3.6 -7.2 0 0 -3.59 -7.2 0 0 -3.61 -7.2 0 0 -3.6 -7.2 0 0 -3.59 -3.6 0 0 -3.61 -7.2 0 0 -3.6 -3.6 0 0 -3.59 -7.2 0 0 -3.61 -3.6 0 0 -3.6 -3.6 0 0 -3.59 -7.2 0 0 -3.61 -3.6 0 0 -3.59 -7.2 0 0 32.39 3.6 0 0 14.4 3.6 0 0 7.2 3.6 0 0 10.8 -7.2 0 0 -3.59 -3.6 0 0 -3.61 -3.6 0 0 -7.19 -3.6 0 0 -10.8 -3.6 0 0 -43.2 -3.6 0 0 3.6 -10.8 0 0 3.59 -10.8 0 0 3.61 -7.2 0 0 3.59 -10.8 0 0 3.6 -7.2 0 0 3.61 -7.2 0 0 3.59 -10.8 0 0 3.6 -7.2 0 0 3.61 -10.8 0 0 3.59 -10.8 0 0 3.6 -10.8 0 0 3.61 -10.8 0 0 3.59 -18 0 0 3.6 -28.8 0 0 -3.6 -10.8 0 0 -3.59 -7.2 0 0 -3.61 -3.6 0 0 -3.6 -7.2 0 0 -3.59 -3.6 0 0 -3.61 -3.6 0 0 -3.6 -3.6 0 0 -3.59 -3.6 0 0 -3.61 -3.6 0 0 -3.6 -3.6 0 0 -3.59 -3.6 0 0 -3.61 -3.6 0 0 -7.19 -3.6 0 0 -3.61 -3.6 0 0 -7.19 -3.6 0 0 -3.61 -3.6 0 0 -7.19 -3.6 0 0 -7.2 -3.6 0 0 -7.2 -3.6 0 0 -7.2 -3.6 0 0 -10.8 -3.6 0 0 -28.8 7.2 0 0 10.8 3.6 0 0 10.8 3.6 0 0 7.2 3.6 0 0 7.2 3.6 0 0 10.8 3.6 0 0 3.6 3.6 0 0 7.2 3.6 0 0 3.6 3.6 0 0 7.19 3.6 0 0 3.61 3.6 0 0 7.19 3.6 0 0 3.61 3.6 0 0 3.6 3.6 0 0 3.59 3.6 0 0 3.61 3.6 0 0 3.59 3.6 0 0 3.6 3.6 0 0 3.61 3.6 0 0 3.59 7.2 0 0 3.6 7.2 0 0 3.61 10.8 0 0 3.59 18 0 0 -3.59 14.4 0 0 -3.61 7.2 0 0 -3.6 14.4 0 0 -3.59 7.2 0 0 -3.61 10.8 0 0 -3.6 10.8 0 0 -3.59 7.2 0 0 -3.61 7.2 0 0 -3.59 10.8 0 0 -3.6 7.2 0 0 -3.61 7.2 0 0 -3.59 10.8 0 0 -3.6 14.4 0 0 -3.61 7.2 0 0 -7.19 -3.6 0 0 -7.2 -3.6 0 0 -7.2 -3.6 0 0 -10.8 -3.6 0 0 -10.81 -3.6 0 0 -17.99 -3.6 0 0 -46.81zm-10.8 -331.19l-28.8 0 0 3.6 -21.6 0 0 3.6 -18 0 0 3.6 -25.2 0 0 3.6 -10.8 0 0 3.6 -14.4 0 0 3.6 -10.8 0 0 3.6 -14.4 0 0 3.6 -7.2 0 0 3.6 -10.8 0 0 3.6 -7.2 0 0 3.6 -10.8 0 0 3.6 -7.2 0 0 3.6 -7.2 0 0 3.6 -7.2 0 0 3.6 -3.6 0 0 7.19 -3.6 0 0 7.21 -3.6 0 0 7.2 -3.6 0 0 10.8 -3.6 0 0 7.19 -3.6 0 0 10.8 -3.6 0 0 7.21 -3.6 0 0 10.8 -3.6 0 0 7.2 -3.6 0 0 10.8 -3.6 0 0 10.8 -3.6 0 0 10.8 -3.6 0 0 10.8 -3.6 0 0 14.4 -3.6 0 0 14.4 -3.6 0 0 14.4 -3.6 0 0 21.6 -3.6 0 0 17.99 -3.6 0 0 21.6 -3.6 0 0 10.8 -3.6 0 0 72.01 3.6 0 0 25.19 3.6 0 0 10.8 3.6 0 0 14.41 3.6 0 0 10.8 3.6 0 0 7.2 3.6 0 0 7.2 3.6 0 0 7.2 3.6 0 0 7.19 3.6 0 0 7.21 3.6 0 0 3.59 3.6 0 0 7.2 3.6 0 0 3.6 3.6 0 0 3.61 3.6 0 0 3.59 3.6 0 0 7.21 3.6 0 0 3.59 3.6 0 0 3.6 3.6 0 0 3.61 3.6 0 0 3.59 3.6 0 0 3.6 3.6 0 0 3.61 3.6 0 0 3.59 7.2 0 0 3.6 3.6 0 0 3.61 3.6 0 0 3.59 3.6 0 0 3.6 3.6 0 0 3.61 3.6 0 0 3.59 3.6 0 0 3.6 7.2 0 0 3.61 3.6 0 0 3.59 3.6 0 0 3.6 7.2 0 0 3.61 3.6 0 0 3.59 7.2 0 0 3.6 7.2 0 0 3.61 7.2 0 0 3.59 14.4 0 0 3.6 18 0 0 -3.6 18 0 0 -3.59 10.8 0 0 -3.61 10.8 0 0 -3.6 7.2 0 0 -3.59 10.8 0 0 -3.61 7.2 0 0 -3.6 10.8 0 0 -3.59 7.2 0 0 -3.61 7.2 0 0 -3.6 18 0 0 -3.59 10.8 0 0 -3.61 43.2 0 0 3.61 7.2 0 0 3.59 14.4 0 0 3.6 7.2 0 0 3.61 7.2 0 0 3.59 7.2 0 0 3.6 7.2 0 0 3.61 7.2 0 0 3.59 7.2 0 0 3.6 7.2 0 0 3.61 7.2 0 0 3.59 7.2 0 0 3.6 7.2 0 0 3.61 10.8 0 0 3.59 7.2 0 0 3.6 14.4 0 0 3.61 7.2 0 0 3.59 36 0 0 -3.59 14.4 0 0 -3.61 14.4 0 0 -3.6 7.2 0 0 -3.59 7.2 0 0 -3.61 7.2 0 0 -3.6 3.6 0 0 -3.59 7.2 0 0 -3.61 7.2 0 0 -3.6 3.6 0 0 -3.59 7.2 0 0 -3.61 3.6 0 0 -3.6 3.6 0 0 -3.59 7.2 0 0 -3.61 3.6 0 0 -3.6 3.6 0 0 -3.59 3.6 0 0 -3.61 3.6 0 0 -3.6 3.6 0 0 -3.59 3.6 0 0 -3.61 3.6 0 0 -3.6 3.6 0 0 -3.59 3.6 0 0 -3.61 3.6 0 0 -7.19 3.6 0 0 -3.61 3.6 0 0 -3.6 3.6 0 0 -7.2 3.6 0 0 -3.6 3.6 0 0 -3.59 3.6 0 0 -7.21 3.6 0 0 -3.59 3.6 0 0 -7.2 3.6 0 0 -7.21 3.6 0 0 -7.19 3.6 0 0 -3.61 3.6 0 0 -10.79 3.6 0 0 -7.2 3.6 0 0 -10.8 3.6 0 0 -10.8 3.6 0 0 -14.41 3.6 0 0 -82.79 -3.6 0 0 -21.6 -3.6 0 0 -21.6 -3.6 0 0 -14.4 -3.6 0 0 -7.2 -3.6 0 0 -14.4 -3.6 0 0 -18 -3.6 0 0 -10.8 -3.6 0 0 -14.4 -3.6 0 0 -10.81 -3.6 0 0 -10.8 -3.6 0 0 -10.8 -3.6 0 0 -10.8 -3.6 0 0 -7.19 -3.6 0 0 -18 -3.6 0 0 -14.4 -3.6 0 0 -10.8 -3.6 0 0 -7.2 -3.6 0 0 -3.6 -7.2 0 0 -3.61 -7.2 0 0 -3.59 -7.2 0 0 -3.6 -7.2 0 0 -3.61 -7.2 0 0 -3.59 -7.2 0 0 -3.6 -7.2 0 0 -3.6 -7.2 0 0 -3.6 -7.2 0 0 -3.6 -7.2 0 0 -3.6 -10.8 0 0 -3.6 -10.8 0 0 -3.6 -10.8 0 0 -3.6 -10.8 0 0 -3.6 -10.8 0 0 -3.6 -10.8 0 0 -3.6 -10.8 0 0 -3.6 -18 0 0 -3.6 -14.4 0 0 -3.6 -18 0 0 -3.6 -21.6 0 0 -3.6 -36 0 0 -3.6 -111.6 0 0 3.6z"/>
  <path id="outline" class="fil3" d="M21.12 1700.01l3.6 0 0 -10.8 3.6 0 0 -21.6 3.6 0 0 -17.99 3.6 0 0 -21.6 3.6 0 0 -14.4 3.6 0 0 -14.4 3.6 0 0 -14.4 3.6 0 0 -10.8 3.6 0 0 -10.8 3.6 0 0 -10.8 3.6 0 0 -10.8 3.6 0 0 -7.2 3.6 0 0 -10.8 3.6 0 0 -7.21 3.6 0 0 -10.8 3.6 0 0 -7.2 3.6 0 0 -10.79 3.6 0 0 -7.2 3.6 0 0 -7.2 3.6 0 0 -7.2 3.6 0 0 -3.6 7.2 0 0 -3.6 7.2 0 0 -3.6 7.2 0 0 -3.6 10.8 0 0 -3.6 7.2 0 0 -3.6 10.8 0 0 -3.61 7.2 0 0 -3.59 14.4 0 0 -3.6 10.8 0 0 -3.6 14.4 0 0 -3.6 10.8 0 0 -3.6 25.2 0 0 -3.6 18 0 0 -3.6 21.6 0 0 -3.6 28.8 0 0 -3.61 111.6 0 0 3.61 36 0 0 3.6 21.6 0 0 3.6 18 0 0 3.6 14.4 0 0 3.6 18 0 0 3.6 10.8 0 0 3.6 10.8 0 0 3.6 10.8 0 0 3.59 10.8 0 0 3.61 10.8 0 0 3.6 10.8 0 0 3.6 10.8 0 0 3.6 7.2 0 0 3.6 7.19 0 0 3.6 7.21 0 0 3.6 7.19 0 0 3.6 7.2 0 0 3.6 7.21 0 0 3.6 7.2 0 0 3.6 7.19 0 0 3.59 7.21 0 0 3.61 7.2 0 0 3.6 3.6 0 0 7.19 3.6 0 0 10.81 3.6 0 0 14.4 3.6 0 0 18 3.6 0 0 7.2 3.6 0 0 10.79 3.6 0 0 10.81 3.6 0 0 10.8 3.6 0 0 10.8 3.6 0 0 14.4 3.6 0 0 10.8 3.6 0 0 18 3.6 0 0 14.4 3.6 0 0 7.19 3.6 0 0 14.4 3.6 0 0 21.61 3.6 0 0 21.6 3.6 0 0 82.79 -3.6 0 0 14.41 -3.6 0 0 10.8 -3.6 0 0 10.79 -3.6 0 0 7.2 -3.6 0 0 10.8 -3.6 0 0 3.6 -3.6 0 0 7.2 -3.6 0 0 7.21 -3.6 0 0 7.2 -3.6 0 0 3.59 -3.6 0 0 7.21 -3.6 0 0 3.59 -3.6 0 0 3.6 -3.6 0 0 7.2 -3.6 0 0 3.61 -3.6 0 0 3.6 -3.6 0 0 7.19 -3.6 0 0 3.61 -3.6 0 0 3.59 -3.6 0 0 3.6 -3.6 0 0 3.61 -3.61 0 0 3.59 -3.59 0 0 3.6 -3.6 0 0 3.61 -3.6 0 0 3.59 -3.6 0 0 3.6 -3.6 0 0 3.61 -7.2 0 0 3.59 -3.61 0 0 3.6 -3.6 0 0 3.61 -7.19 0 0 3.59 -3.61 0 0 3.6 -7.19 0 0 3.61 -7.2 0 0 3.59 -3.6 0 0 3.6 -7.2 0 0 3.61 -7.2 0 0 3.59 -7.2 0 0 3.6 -14.4 0 0 3.61 -14.4 0 0 3.59 -36 0 0 -3.59 -7.2 0 0 -3.61 -14.4 0 0 -3.6 -7.2 0 0 -3.59 -10.8 0 0 -3.61 -7.2 0 0 -3.6 -7.2 0 0 -3.59 -7.2 0 0 -3.61 -7.2 0 0 -3.6 -7.2 0 0 -3.59 -7.2 0 0 -3.61 -7.2 0 0 -3.6 -7.2 0 0 -3.59 -7.2 0 0 -3.61 -7.2 0 0 -3.6 -14.4 0 0 -3.59 -7.2 0 0 -3.61 -43.2 0 0 3.61 -10.8 0 0 3.59 -18 0 0 3.6 -7.2 0 0 3.61 -7.2 0 0 3.59 -10.8 0 0 3.6 -7.2 0 0 3.61 -10.8 0 0 3.59 -7.2 0 0 3.6 -10.8 0 0 3.61 -10.8 0 0 3.59 -18 0 0 3.6 -18 0 0 -3.6 -14.4 0 0 -3.59 -7.2 0 0 -3.61 -7.2 0 0 -3.6 -7.2 0 0 -3.59 -3.6 0 0 -3.61 -7.2 0 0 -3.6 -3.6 0 0 -3.59 -3.6 0 0 -3.61 -7.2 0 0 -3.6 -3.6 0 0 -3.59 -3.6 0 0 -3.61 -3.6 0 0 -3.6 -3.6 0 0 -3.59 -3.6 0 0 -3.61 -3.6 0 0 -3.6 -7.2 0 0 -3.59 -3.6 0 0 -3.61 -3.6 0 0 -3.6 -3.6 0 0 -3.59 -3.6 0 0 -3.6 -3.6 0 0 -3.61 -3.6 0 0 -3.59 -3.6 0 0 -7.21 -3.6 0 0 -3.59 -3.6 0 0 -3.61 -3.6 0 0 -3.6 -3.6 0 0 -7.2 -3.6 0 0 -3.59 -3.6 0 0 -7.21 -3.6 0 0 -7.2 -3.6 0 0 -7.19 -3.6 0 0 -7.21 -3.6 0 0 -7.2 -3.6 0 0 -10.79 -3.6 0 0 -14.4 -3.6 0 0 -10.81 -3.6 0 0 -25.19 -3.6 0 0 -72.01zm244.8 -1234.79l3.6 0 0 -21.6 3.6 0 0 -10.8 3.6 0 0 -7.2 3.6 0 0 -7.2 7.2 0 0 -3.6 14.4 0 0 3.6 7.2 0 0 3.6 3.6 0 0 7.2 3.6 0 0 3.6 3.6 0 0 3.6 3.6 0 0 7.2 3.6 0 0 3.6 3.6 0 0 7.2 3.6 0 0 7.2 3.6 0 0 7.2 3.6 0 0 7.2 3.6 0 0 7.2 3.6 0 0 10.8 3.6 0 0 7.2 3.6 0 0 10.8 3.6 0 0 10.8 3.6 0 0 7.2 3.6 0 0 10.8 3.6 0 0 14.4 3.6 0 0 7.2 3.6 0 0 14.4 3.6 0 0 10.8 3.6 0 0 10.8 3.6 0 0 14.4 3.6 0 0 14.4 3.6 0 0 7.2 3.6 0 0 14.4 3.6 0 0 14.4 3.6 0 0 14.4 3.6 0 0 14.4 3.6 0 0 10.8 3.6 0 0 18 3.6 0 0 14.4 3.6 0 0 10.8 3.6 0 0 14.4 3.6 0 0 10.8 3.6 0 0 14.4 3.6 0 0 14.4 3.6 0 0 18 3.6 0 0 18 3.6 0 0 21.6 3.6 0 0 14.4 3.6 0 0 18 3.6 0 0 14.4 3.6 0 0 18 3.6 0 0 25.2 -3.6 0 0 10.8 -3.6 0 0 18 -3.6 0 0 14.4 -3.6 0 0 14.4 -3.6 0 0 10.8 -3.6 0 0 10.8 -3.6 0 0 21.6 -3.6 0 0 14.4 -3.6 0 0 10.8 -3.6 0 0 10.8 -3.6 0 0 14.4 -3.6 0 0 14.4 -3.6 0 0 10.8 -3.6 0 0 14.4 -3.6 0 0 14.4 -3.6 0 0 10.8 -3.6 0 0 10.8 -3.6 0 0 10.8 -3.6 0 0 7.2 -3.6 0 0 10.79 -3.6 0 0 7.21 -3.6 0 0 3.6 -3.6 0 0 7.2 -3.6 0 0 3.6 -7.2 0 0 3.6 -25.2 0 0 -3.6 -7.2 0 0 -3.6 -7.2 0 0 -3.6 -3.6 0 0 7.2 3.6 0 0 3.6 7.2 0 0 3.6 3.6 0 0 3.6 7.2 0 0 3.6 25.2 0 0 -3.6 7.2 0 0 -3.6 7.2 0 0 -3.6 3.6 0 0 -3.6 3.6 0 0 -3.6 3.6 0 0 -3.6 3.6 0 0 -7.2 3.6 0 0 -7.21 3.6 0 0 -7.19 3.6 0 0 -7.2 3.6 0 0 -10.8 3.6 0 0 -10.8 3.6 0 0 -10.8 3.6 0 0 -10.8 3.6 0 0 -14.4 3.6 0 0 -10.8 3.6 0 0 -10.8 3.6 0 0 -14.4 3.6 0 0 -7.2 3.6 0 0 -14.4 3.6 0 0 -14.4 3.6 0 0 -14.4 3.6 0 0 -10.8 3.6 0 0 -10.8 3.6 0 0 -18 3.6 0 0 -10.8 3.6 0 0 -14.4 3.6 0 0 -14.41 3.6 0 0 -21.59 3.59 0 0 -25.2 3.61 0 0 -14.4 3.6 0 0 -32.4 3.6 0 0 -36 3.6 0 0 -129.6 -3.6 0 0 -61.2 -3.6 0 0 -43.2 -3.6 0 0 -68.4 3.6 0 0 -18 3.6 0 0 -3.6 3.6 0 0 -3.6 10.8 0 0 3.6 7.2 0 0 3.6 3.6 0 0 3.6 3.6 0 0 3.6 3.6 0 0 3.6 3.6 0 0 3.6 3.6 0 0 3.6 3.6 0 0 3.6 3.6 0 0 7.2 3.6 0 0 3.6 3.6 0 0 7.2 3.6 0 0 3.6 3.6 0 0 7.2 3.6 0 0 7.2 3.6 0 0 3.6 3.6 0 0 10.8 3.6 0 0 7.2 3.6 0 0 7.2 3.6 0 0 7.2 3.6 0 0 7.2 3.6 0 0 7.2 3.6 0 0 10.8 3.6 0 0 7.2 3.6 0 0 10.8 3.6 0 0 10.8 3.59 0 0 7.2 3.61 0 0 14.4 3.6 0 0 7.2 3.59 0 0 10.8 3.6 0 0 7.2 3.61 0 0 18 3.59 0 0 7.2 3.61 0 0 10.8 3.6 0 0 10.8 3.6 0 0 14.4 3.6 0 0 14.4 3.6 0 0 14.4 3.59 0 0 14.4 3.61 0 0 14.4 3.6 0 0 18 3.6 0 0 14.4 3.6 0 0 10.8 3.6 0 0 25.2 3.6 0 0 21.6 3.6 0 0 21.6 3.6 0 0 18 3.6 0 0 46.8 3.6 0 0 136.8 -3.6 0 0 21.6 -3.6 0 0 36 -3.6 0 0 32.4 -3.6 0 0 21.6 -3.6 0 0 32.4 -3.6 0 0 54 -3.6 0 0 115.2 3.6 0 0 18 -3.6 0 0 -3.6 -7.2 0 0 -3.6 -7.2 0 0 -3.6 -7.2 0 0 -3.6 -7.2 0 0 -3.6 -7.2 0 0 -3.6 -7.21 0 0 -3.6 -7.19 0 0 -3.6 -7.2 0 0 -3.61 -10.8 0 0 -3.59 -7.2 0 0 -3.6 -10.8 0 0 -3.6 -10.8 0 0 -3.6 -7.2 0 0 -3.6 -14.4 0 0 -3.6 -7.2 0 0 -3.6 -10.8 0 0 -3.6 -18 0 0 -3.61 -14.4 0 0 -3.59 -14.4 0 0 -3.6 -21.6 0 0 -3.6 -28.8 0 0 -3.6 -147.6 0 0 3.6 -21.6 0 0 3.6 -21.6 0 0 3.6 -21.6 0 0 3.59 -18 0 0 3.61 -18 0 0 3.6 -3.6 0 0 3.6 -14.4 0 0 3.6 -10.8 0 0 3.6 -10.8 0 0 3.6 -7.2 0 0 3.6 -10.8 0 0 3.6 -7.2 0 0 3.59 -7.2 0 0 3.61 -7.2 0 0 3.6 -3.6 0 0 -14.4 3.6 0 0 -36 3.6 0 0 -28.8 3.6 0 0 -122.4 -3.6 0 0 -28.8 -3.6 0 0 -50.4 -3.6 0 0 -18.01 -3.6 0 0 -28.79 -3.6 0 0 -32.4 -3.6 0 0 -28.8 -3.6 0 0 -14.4 -3.6 0 0 -21.6 -3.6 0 0 -28.8 -3.6 0 0 -21.6 -3.6 0 0 -32.4 -3.6 0 0 -18 -3.6 0 0 -28.8 -3.6 0 0 -14.4 -3.6 0 0 -136.8 3.6 0 0 -36 3.6 0 0 -28.8 3.6 0 0 -21.6 3.6 0 0 -28.8 3.6 0 0 -21.6 3.6 0 0 -14.4 3.6 0 0 -18 3.6 0 0 -18 3.6 0 0 -14.4 3.6 0 0 -10.8 3.6 0 0 -14.4 3.6 0 0 -10.8 3.6 0 0 -7.2 3.6 0 0 -7.2 3.6 0 0 -10.8 3.6 0 0 -3.6 3.6 0 0 -3.6 3.6 0 0 -3.6 3.6 0 0 -3.6 14.4 0 0 3.6 3.6 0 0 3.6 3.6 0 0 3.6 3.6 0 0 10.8 3.6 0 0 10.8 3.6 0 0 7.2 3.6 0 0 21.6 3.6 0 0 61.2 3.6 0 0 68.4 3.6 0 0 43.2 3.6 0 0 28.8 3.6 0 0 36 3.6 0 0 21.6 3.6 0 0 18 3.6 0 0 21.6 3.6 0 0 18 3.6 0 0 10.8 3.6 0 0 18 3.6 0 0 10.8 3.6 0 0 10.8 3.6 0 0 14.4 3.6 0 0 10.8 3.6 0 0 10.8 3.6 0 0 10.8 3.6 0 0 14.4 3.6 0 0 7.2 3.6 0 0 7.2 3.6 0 0 10.8 3.6 0 0 7.2 3.6 0 0 7.2 3.6 0 0 7.2 3.6 0 0 7.19 3.6 0 0 7.21 3.6 0 0 7.2 3.6 0 0 7.19 3.6 0 0 10.8 3.6 0 0 7.21 3.6 0 0 7.2 3.6 0 0 7.2 3.6 0 0 7.2 3.6 0 0 7.2 3.6 0 0 7.2 3.6 0 0 7.2 3.6 0 0 10.8 3.6 0 0 7.2 3.6 0 0 7.2 3.6 0 0 7.2 3.6 0 0 7.2 3.6 0 0 7.2 3.6 0 0 7.2 3.6 0 0 7.2 3.6 0 0 7.19 3.6 0 0 10.81 3.6 0 0 3.6 3.6 0 0 7.19 3.6 0 0 7.21 7.2 0 0 -14.4 -3.6 0 0 -14.41 -3.6 0 0 -10.8 -3.6 0 0 -7.19 -3.6 0 0 -14.4 -3.6 0 0 -7.2 -3.6 0 0 -7.2 -3.6 0 0 -10.8 -3.6 0 0 -7.2 -3.6 0 0 -10.8 -3.6 0 0 -7.2 -3.6 0 0 -7.2 -3.6 0 0 -7.2 -3.6 0 0 -7.2 -3.6 0 0 -10.8 -3.6 0 0 -7.2 -3.6 0 0 -7.21 -3.6 0 0 -7.19 -3.6 0 0 -7.2 -3.6 0 0 -7.21 -3.6 0 0 -7.19 -3.6 0 0 -10.8 -3.6 0 0 -7.2 -3.6 0 0 -7.2 -3.6 0 0 -7.2 -3.6 0 0 -10.8 -3.6 0 0 -7.2 -3.6 0 0 -43.2 3.6 0 0 -21.6 3.6 0 0 -32.4 3.6 0 0 -25.2 3.6 0 0 -21.6 3.6 0 0 -46.8 3.6 0 0 -50.4 3.6 0 0 -122.4 -3.6 0 0 -122.4zm14.4 -68.4l-7.2 0 0 3.6 -3.6 0 0 3.6 -3.6 0 0 3.6 -3.6 0 0 7.2 -3.6 0 0 3.6 -3.6 0 0 10.8 -3.6 0 0 7.2 -3.6 0 0 14.4 -3.6 0 0 126 3.6 0 0 129.6 -3.6 0 0 61.2 -3.6 0 0 25.2 -3.6 0 0 25.2 -3.6 0 0 32.4 -3.6 0 0 32.4 -7.2 0 0 -18 -3.6 0 0 -14.4 -3.6 0 0 -14.4 -3.6 0 0 -14.4 -3.6 0 0 -21.6 -3.6 0 0 -18 -3.6 0 0 -25.2 -3.6 0 0 -36 -3.6 0 0 -18 -3.6 0 0 -50.4 -3.6 0 0 -111.6 -3.6 0 0 -25.2 -3.6 0 0 -21.6 -3.6 0 0 -7.2 -3.6 0 0 -10.8 -3.6 0 0 -7.2 -3.6 0 0 -7.2 -3.6 0 0 -3.6 -3.6 0 0 -3.6 -3.6 0 0 -3.6 -3.6 0 0 -3.6 -3.6 0 0 -3.6 -7.2 0 0 -3.6 -21.6 0 0 3.6 -7.2 0 0 3.6 -3.6 0 0 3.6 -3.6 0 0 3.6 -3.6 0 0 3.6 -3.6 0 0 3.6 -3.6 0 0 7.2 -3.6 0 0 7.2 -3.6 0 0 3.6 -3.6 0 0 10.8 -3.6 0 0 7.2 -3.6 0 0 10.8 -3.6 0 0 10.8 -3.6 0 0 14.4 -3.6 0 0 10.8 -3.6 0 0 18 -3.6 0 0 10.8 -3.6 0 0 21.6 -3.6 0 0 18 -3.6 0 0 25.2 -3.6 0 0 21.6 -3.6 0 0 28.8 -3.6 0 0 50.4 -3.6 0 0 126 3.6 0 0 50.4 3.6 0 0 18 3.6 0 0 25.2 3.6 0 0 21.6 3.6 0 0 28.79 3.6 0 0 18.01 3.6 0 0 25.2 3.6 0 0 21.6 3.6 0 0 25.2 3.6 0 0 21.6 3.6 0 0 32.4 3.6 0 0 28.79 3.6 0 0 32.41 3.6 0 0 57.6 3.6 0 0 79.2 -3.6 0 0 36 -3.6 0 0 43.2 -3.6 0 0 14.4 -3.6 0 0 14.4 -3.6 0 0 14.4 -3.6 0 0 7.2 -3.6 0 0 7.2 -3.6 0 0 10.79 -3.6 0 0 7.2 -3.6 0 0 10.8 -3.6 0 0 7.21 -3.6 0 0 7.2 -3.6 0 0 10.8 -3.6 0 0 10.8 -3.6 0 0 10.8 -3.6 0 0 10.8 -3.6 0 0 10.8 -3.6 0 0 18 -3.6 0 0 18 -3.6 0 0 10.8 -3.6 0 0 18 -3.6 0 0 17.99 -3.6 0 0 21.6 -3.6 0 0 90.01 3.6 0 0 21.6 3.6 0 0 14.4 3.6 0 0 10.8 3.6 0 0 10.8 3.6 0 0 7.2 3.6 0 0 10.79 3.6 0 0 3.61 3.6 0 0 10.8 3.6 0 0 7.2 3.6 0 0 7.19 3.6 0 0 3.61 3.6 0 0 7.19 3.6 0 0 3.61 3.6 0 0 3.59 3.6 0 0 3.61 3.6 0 0 3.6 3.6 0 0 7.19 3.6 0 0 3.61 3.6 0 0 3.59 3.6 0 0 3.6 3.6 0 0 3.61 3.6 0 0 3.59 3.6 0 0 3.6 7.2 0 0 3.61 3.6 0 0 3.59 3.6 0 0 3.6 3.6 0 0 3.61 3.6 0 0 3.59 3.6 0 0 3.6 3.6 0 0 3.61 3.6 0 0 3.59 7.2 0 0 3.6 3.6 0 0 3.61 3.6 0 0 3.59 7.2 0 0 3.6 3.6 0 0 3.61 7.2 0 0 3.59 3.6 0 0 3.6 7.2 0 0 3.61 7.2 0 0 3.59 10.8 0 0 3.6 54 0 0 -3.6 7.2 0 0 -3.59 10.8 0 0 -3.61 10.8 0 0 -3.6 7.2 0 0 -3.59 7.2 0 0 -3.61 10.8 0 0 -3.6 7.2 0 0 -3.59 10.8 0 0 -3.61 10.8 0 0 -3.6 7.2 0 0 -3.59 14.4 0 0 -3.61 32.4 0 0 3.61 10.8 0 0 3.59 7.2 0 0 3.6 7.2 0 0 3.61 7.2 0 0 3.59 7.2 0 0 3.6 7.2 0 0 3.61 7.2 0 0 3.59 7.2 0 0 3.6 7.2 0 0 3.61 7.2 0 0 3.59 7.2 0 0 3.6 7.2 0 0 3.61 7.2 0 0 3.59 14.4 0 0 3.6 14.4 0 0 3.61 25.2 0 0 3.59 36 0 0 -3.59 10.8 0 0 -3.61 10.8 0 0 -3.6 7.2 0 0 -3.59 10.8 0 0 -3.61 7.2 0 0 -3.6 3.6 0 0 -3.59 7.2 0 0 -3.61 3.6 0 0 -3.6 7.19 0 0 -3.59 3.61 0 0 -3.61 7.2 0 0 -3.6 3.6 0 0 -3.59 3.6 0 0 -3.61 3.6 0 0 -3.6 7.19 0 0 -3.59 3.61 0 0 -3.61 3.6 0 0 -3.6 3.6 0 0 -3.59 3.6 0 0 -3.61 3.6 0 0 -3.6 3.6 0 0 -3.59 3.6 0 0 -3.61 3.6 0 0 -3.6 3.6 0 0 -7.2 3.6 0 0 -3.6 3.6 0 0 -3.59 3.6 0 0 -3.61 3.6 0 0 -3.6 3.6 0 0 -7.19 3.6 0 0 -3.61 3.6 0 0 -7.2 3.6 0 0 -3.6 3.6 0 0 -3.59 3.6 0 0 -7.21 3.6 0 0 -7.2 3.6 0 0 -7.19 3.6 0 0 -7.2 3.6 0 0 -7.21 3.6 0 0 -10.8 3.6 0 0 -7.2 3.6 0 0 -17.99 3.6 0 0 -7.2 3.6 0 0 -21.6 3.6 0 0 -61.2 -3.6 0 0 -18 -3.6 0 0 -21.6 -3.6 0 0 -14.41 -3.6 0 0 -17.99 -3.6 0 0 -10.8 -3.6 0 0 -14.4 -3.6 0 0 -14.4 -3.6 0 0 -18 -3.6 0 0 -10.8 -3.6 0 0 -10.8 -3.6 0 0 -7.2 -3.6 0 0 -10.8 -3.6 0 0 -14.4 -3.6 0 0 -7.2 -3.6 0 0 -14.4 -3.6 0 0 -14.41 -3.6 0 0 -14.39 -3.6 0 0 -28.8 -3.6 0 0 -21.61 -3.6 0 0 -115.19 3.6 0 0 -36.01 3.6 0 0 -25.19 3.6 0 0 -25.2 3.6 0 0 -18 3.6 0 0 -25.2 3.6 0 0 -46.81 3.6 0 0 -53.99 3.6 0 0 -75.6 -3.6 0 0 -25.2 -3.6 0 0 -39.6 -3.6 0 0 -25.2 -3.6 0 0 -28.8 -3.6 0 0 -14.4 -3.6 0 0 -14.4 -3.6 0 0 -10.8 -3.6 0 0 -18 -3.6 0 0 -21.6 -3.6 0 0 -18 -3.6 0 0 -14.4 -3.6 0 0 -7.2 -3.6 0 0 -18 -3.6 0 0 -10.8 -3.6 0 0 -10.8 -3.6 0 0 -14.4 -3.61 0 0 -7.2 -3.59 0 0 -14.4 -3.6 0 0 -14.4 -3.6 0 0 -7.2 -3.6 0 0 -10.8 -3.6 0 0 -10.8 -3.61 0 0 -7.2 -3.59 0 0 -10.8 -3.61 0 0 -10.8 -3.6 0 0 -7.2 -3.59 0 0 -10.8 -3.6 0 0 -7.2 -3.61 0 0 -10.8 -3.59 0 0 -7.2 -3.6 0 0 -7.2 -3.6 0 0 -10.8 -3.6 0 0 -7.2 -3.6 0 0 -3.6 -3.6 0 0 -7.2 -3.6 0 0 -7.2 -3.6 0 0 -3.6 -3.6 0 0 -7.2 -3.6 0 0 -3.6 -3.6 0 0 -3.6 -3.6 0 0 -7.2 -3.6 0 0 -3.6 -3.6 0 0 -3.6 -3.6 0 0 -3.6 -3.6 0 0 -3.6 -3.6 0 0 -3.6 -3.6 0 0 -3.6 -3.6 0 0 -3.6 -3.6 0 0 -3.6 -7.2 0 0 -3.6 -7.2 0 0 -3.6 -25.2 0 0 3.6 -7.21 0 0 3.6 -3.59 0 0 3.6 -3.6 0 0 7.2 -3.6 0 0 7.2 -3.6 0 0 18 -3.6 0 0 75.6 3.6 0 0 43.2 3.6 0 0 43.2 3.6 0 0 151.2 -3.6 0 0 18 -3.6 0 0 -14.4 -3.6 0 0 -18 -3.6 0 0 -14.4 -3.6 0 0 -21.6 -3.6 0 0 -14.4 -3.6 0 0 -14.4 -3.6 0 0 -14.4 -3.6 0 0 -7.2 -3.6 0 0 -14.4 -3.6 0 0 -18 -3.6 0 0 -10.8 -3.6 0 0 -14.4 -3.6 0 0 -14.4 -3.6 0 0 -10.8 -3.6 0 0 -14.4 -3.6 0 0 -10.8 -3.6 0 0 -14.4 -3.6 0 0 -18 -3.6 0 0 -10.8 -3.6 0 0 -10.8 -3.6 0 0 -10.8 -3.6 0 0 -14.4 -3.6 0 0 -10.8 -3.6 0 0 -10.8 -3.6 0 0 -10.8 -3.6 0 0 -7.2 -3.6 0 0 -10.8 -3.6 0 0 -10.8 -3.6 0 0 -10.8 -3.6 0 0 -7.2 -3.6 0 0 -7.2 -3.6 0 0 -10.8 -3.6 0 0 -7.2 -3.6 0 0 -7.2 -3.6 0 0 -3.6 -3.6 0 0 -7.2 -3.6 0 0 -3.6 -3.6 0 0 -7.2 -3.6 0 0 -3.6 -3.6 0 0 -3.6 -3.6 0 0 -3.6 -3.6 0 0 -3.6 -3.6 0 0 -3.6 -3.6 0 0 -3.6 -3.6 0 0 -3.6 -7.2 0 0 -3.6 -28.8 0 0 3.6zm28.8 1393.2l3.6 0 0 17.99 3.6 0 0 10.81 3.6 0 0 10.8 3.6 0 0 7.2 3.6 0 0 7.2 3.6 0 0 7.19 -7.2 0 0 3.61 -14.4 0 0 3.6 -10.8 0 0 3.59 -7.2 0 0 3.61 -7.2 0 0 3.6 -10.8 0 0 3.59 -7.2 0 0 3.61 -7.2 0 0 3.59 -10.8 0 0 3.6 -10.8 0 0 3.61 -7.2 0 0 3.59 -14.4 0 0 3.6 -7.2 0 0 3.61 -14.4 0 0 3.59 -18 0 0 -3.59 -10.8 0 0 -3.61 -7.2 0 0 -3.6 -7.2 0 0 -3.59 -3.6 0 0 -3.61 -3.6 0 0 -3.6 -3.6 0 0 -3.59 -3.6 0 0 -3.61 -3.6 0 0 -3.59 -3.6 0 0 -3.6 -3.6 0 0 -3.61 -3.6 0 0 -7.19 -3.6 0 0 -3.61 -3.6 0 0 -7.19 -3.6 0 0 -3.6 -3.6 0 0 -7.2 -3.6 0 0 -3.6 -3.6 0 0 -10.8 -3.6 0 0 -7.2 -3.6 0 0 -7.2 -3.6 0 0 -10.8 -3.6 0 0 -10.8 -7.2 0 0 28.8 3.6 0 0 10.8 3.6 0 0 7.2 3.6 0 0 7.2 3.6 0 0 7.2 3.6 0 0 7.19 3.6 0 0 3.61 3.6 0 0 7.19 3.6 0 0 3.61 3.6 0 0 7.19 3.6 0 0 3.61 3.6 0 0 3.59 3.6 0 0 3.6 3.6 0 0 3.61 3.6 0 0 3.59 3.6 0 0 3.6 3.6 0 0 3.61 3.6 0 0 3.59 7.2 0 0 3.6 3.6 0 0 3.61 7.2 0 0 3.59 10.8 0 0 3.6 28.8 0 0 -3.6 18 0 0 -3.59 10.8 0 0 -3.61 10.8 0 0 -3.6 10.8 0 0 -3.59 10.8 0 0 -3.61 7.2 0 0 -3.6 10.8 0 0 -3.59 7.2 0 0 -3.61 7.2 0 0 -3.6 10.8 0 0 -3.59 7.2 0 0 -3.61 10.8 0 0 -3.59 10.8 0 0 -3.6 3.6 0 0 43.2 3.6 0 0 10.8 3.6 0 0 7.19 3.6 0 0 3.61 3.6 0 0 3.59 7.2 0 0 -10.8 -3.6 0 0 -7.2 -3.6 0 0 -14.4 -3.6 0 0 -32.39 7.2 0 0 3.59 3.6 0 0 3.61 7.2 0 0 3.59 3.6 0 0 3.6 3.6 0 0 3.61 7.2 0 0 3.59 3.6 0 0 3.6 7.2 0 0 3.61 3.6 0 0 3.59 7.2 0 0 3.6 7.2 0 0 3.61 7.2 0 0 3.59 7.2 0 0 3.6 7.2 0 0 3.61 3.6 0 0 3.59 10.8 0 0 3.6 7.2 0 0 3.61 10.8 0 0 3.59 7.2 0 0 3.6 7.2 0 0 3.61 10.8 0 0 3.59 10.8 0 0 3.6 14.4 0 0 3.61 57.6 0 0 -3.61 10.8 0 0 -3.6 7.2 0 0 -3.59 7.2 0 0 -3.61 7.2 0 0 -3.6 7.2 0 0 -3.59 7.2 0 0 -3.61 7.2 0 0 -3.6 3.6 0 0 -3.59 3.6 0 0 -3.61 3.6 0 0 -3.6 7.2 0 0 -3.59 3.6 0 0 -3.61 3.6 0 0 -3.6 3.6 0 0 -3.59 3.6 0 0 -3.61 3.6 0 0 -3.6 3.6 0 0 -7.2 3.6 0 0 -3.6 3.6 0 0 -7.2 3.6 0 0 -7.19 -3.6 0 0 -3.61 -3.6 0 0 3.61 -3.6 0 0 3.6 -3.6 0 0 3.59 -3.6 0 0 3.61 -3.6 0 0 3.59 -3.6 0 0 3.6 -3.6 0 0 3.61 -3.6 0 0 3.59 -3.6 0 0 3.6 -3.6 0 0 3.61 -3.6 0 0 3.59 -3.6 0 0 3.6 -7.2 0 0 3.61 -3.6 0 0 3.59 -3.6 0 0 3.6 -7.2 0 0 3.61 -3.6 0 0 3.59 -10.8 0 0 3.6 -7.2 0 0 3.61 -10.8 0 0 3.59 -10.8 0 0 3.6 -39.6 0 0 -3.6 -14.4 0 0 -3.59 -10.8 0 0 -3.61 -14.4 0 0 -3.6 -7.2 0 0 -3.59 -7.2 0 0 -3.61 -10.8 0 0 -3.6 -7.2 0 0 -3.59 -7.2 0 0 -3.61 -7.2 0 0 -3.6 -7.2 0 0 -3.59 -7.2 0 0 -3.61 -7.2 0 0 -3.6 -3.6 0 0 -3.59 -7.2 0 0 -3.61 -7.2 0 0 -3.6 -3.6 0 0 -3.59 -7.2 0 0 -3.61 -3.6 0 0 -3.59 -7.2 0 0 -3.6 -3.6 0 0 -3.61 -3.6 0 0 -3.59 -7.2 0 0 -3.6 -7.2 0 0 -3.61 -3.6 0 0 -3.59 -3.6 0 0 -7.2 -3.6 0 0 -7.2 -3.6 0 0 -7.2 -3.6 0 0 -10.8 -3.6 0 0 -7.21 -3.6 0 0 -10.8 -3.6 0 0 -17.99 -3.6 0 0 -7.2 -3.6 0 0 -28.81 -7.2 0 0 46.81z"/>
 </g>
</svg>
