<?xml version="1.0" encoding="UTF-8"?>
<!DOCTYPE svg PUBLIC "-//W3C//DTD SVG 1.1//EN" "http://www.w3.org/Graphics/SVG/1.1/DTD/svg11.dtd">
<!-- Creator: CorelDRAW (Versión de evaluación) -->
<svg xmlns="http://www.w3.org/2000/svg" xml:space="preserve" width="739px" height="2458px" version="1.1" style="shape-rendering:geometricPrecision; text-rendering:geometricPrecision; image-rendering:optimizeQuality; fill-rule:evenodd; clip-rule:evenodd"
viewBox="0 0 739 2457.4"
 xmlns:xlink="http://www.w3.org/1999/xlink"
 xmlns:xodm="http://www.corel.com/coreldraw/odm/2003">
 <defs>
  <style type="text/css">
   <![CDATA[
    .str0 {stroke:#373435;stroke-width:10;stroke-miterlimit:22.9256}
    .str1 {stroke:#F7A29B;stroke-width:10;stroke-miterlimit:22.9256}
    .fil0 {fill:#FEFEFE}
    .fil1 {fill:#F1C2C2}
   ]]>
  </style>
 </defs>
 <g id="tooth-root-canal-32">
  <metadata id="CorelCorpID_0Corel-Layer"/>
  <path id="root" class="fil0 str0" d="M649.47 793.8c-4.4,112.08 -32.6,296.97 -48.58,415.16l-57.77 833.93c-3.74,93.57 14.15,346.4 -21.4,412.25 -114.72,14.34 -128.61,-41.27 -172.3,-118.95 -285.18,-507.25 -216.43,-1074.36 -304.34,-1531.14 67.93,32.21 130.32,94.96 207.57,126.17 198.47,80.21 250.75,-73.41 396.82,-137.42z"/>
  <g id="_2459566289472">
   <path class="fil1 str1" d="M410.54 2163.34c-0.87,-42.13 -1.66,-84.37 -0.01,-125.75l0.04 -0.97 0.11 -1.93 57.98 -837.06 0.44 -4.31 0.29 -2.15c5.9,-43.62 12.58,-88.34 19.04,-133.45 -88.28,39.47 -178.21,37.38 -274.64,0.79 15.5,159.4 23.6,320.33 41.35,478.38 24.46,217.83 65.74,428.54 155.4,626.45z"/>
  </g>
  <path id="crown" class="fil0 str0" d="M219.75 878.56c-82.1,-43.32 -186.61,-98.81 -204.82,-182.02 -21.65,-99.04 -22.89,-591.64 12.72,-675.77 74.95,-42.41 357.08,-6.71 465.01,-6.73 168.39,-0.04 262.19,45.66 243.59,192.05 -11.82,93.13 -21.59,489.75 -99.4,553.74 -129.06,106.14 -232.4,216.19 -417.1,118.73z"/>
 </g>
</svg>
