<?xml version="1.0" encoding="UTF-8"?>
<!DOCTYPE svg PUBLIC "-//W3C//DTD SVG 1.1//EN" "http://www.w3.org/Graphics/SVG/1.1/DTD/svg11.dtd">
<!-- Creator: CorelDRAW (Versión de evaluación) -->
<svg xmlns="http://www.w3.org/2000/svg" xml:space="preserve" width="739px" height="2458px" version="1.1" style="shape-rendering:geometricPrecision; text-rendering:geometricPrecision; image-rendering:optimizeQuality; fill-rule:evenodd; clip-rule:evenodd"
viewBox="0 0 739 2457.4"
 xmlns:xlink="http://www.w3.org/1999/xlink"
 xmlns:xodm="http://www.corel.com/coreldraw/odm/2003">
 <defs>
  <style type="text/css">
   <![CDATA[
    .str0 {stroke:#4B4B4D;stroke-width:10;stroke-miterlimit:22.9256}
    .str1 {stroke:#F7A29B;stroke-width:10;stroke-miterlimit:22.9256}
    .fil0 {fill:#FEFEFE}
    .fil1 {fill:#F1C2C2}
   ]]>
  </style>
 </defs>
 <g id="tooth-root-canal-15">
  <metadata id="CorelCorpID_0Corel-Layer"/>
  <path id="crown" class="fil0 str0" d="M107.14 1667.25c-69.82,146.14 -173.37,487.41 -50.53,624.84 28.43,31.8 203.52,141.64 245.49,158.42 92.47,36.99 454.48,-74.52 435.78,-346.31 -2.31,-33.66 -58.82,-317.07 -69.76,-334.59 -12.37,-19.8 -85.22,-34.18 -126.55,-77.35 -77.35,-80.81 -158.51,-120.4 -275.04,-61.61 -87.65,44.2 -65.95,24.35 -159.39,36.6z"/>
  <path id="root" class="fil0 str0" d="M623.53 873.24c-25.21,-11.92 -15.26,-3.04 -30.9,-44.68 -7.23,-19.27 -12.81,-35.25 -20.94,-54.61 -135.66,-323.34 -112.71,-218.76 -191.06,-578.18 -13.43,-61.66 -41.33,-192.66 -104.44,-195.76 -78.88,93.16 -38.64,712.28 -43.28,852.02 -10.82,325.1 -117.59,729.35 -116.42,787.76 96.09,-0.27 69.73,3.42 146.22,-36.34 49.64,-25.81 111.07,-34.65 169.6,-18.26 120.45,33.73 67.8,86.01 237.68,149.75 11.8,-226.51 2.64,-447.59 -15.02,-669.2 -5.11,-64.22 -40.88,-131.94 -31.44,-192.5z"/>
  <g id="_2459250831344">
   <path class="fil1 str1" d="M376.82 689.95c1.39,55.12 3.67,112.02 1.84,166.92 -5.51,165.77 -31.75,335.4 -61.84,498.33 -5.09,27.54 -10.36,55.03 -15.73,82.51 56.38,-10.55 115.05,-8.5 170.55,7.04 21.56,6.04 40.32,12.63 57.34,20.28 -1.81,-129.33 -9.1,-258.56 -19.39,-387.71 -1.75,-22.01 -11.41,-51.08 -17,-72.74 -5.95,-23.02 -10.88,-45.7 -13.75,-68.5 -0.07,-0.12 -0.13,-0.23 -0.2,-0.34 -11.41,-19.48 -15.06,-35.98 -22.54,-55.92 -6.2,-16.51 -12.06,-33.18 -18.88,-49.45 -19.74,-47.02 -39.96,-93.74 -60.4,-140.42z"/>
  </g>
 </g>
</svg>
