<?xml version="1.0" encoding="UTF-8"?>
<!DOCTYPE svg PUBLIC "-//W3C//DTD SVG 1.1//EN" "http://www.w3.org/Graphics/SVG/1.1/DTD/svg11.dtd">
<!-- Creator: CorelDRAW (Versión de evaluación) -->
<svg xmlns="http://www.w3.org/2000/svg" xml:space="preserve" width="739px" height="2458px" version="1.1" style="shape-rendering:geometricPrecision; text-rendering:geometricPrecision; image-rendering:optimizeQuality; fill-rule:evenodd; clip-rule:evenodd"
viewBox="0 0 739 2457.4"
 xmlns:xlink="http://www.w3.org/1999/xlink"
 xmlns:xodm="http://www.corel.com/coreldraw/odm/2003">
 <defs>
  <style type="text/css">
   <![CDATA[
    .str0 {stroke:#4B4B4D;stroke-width:10;stroke-miterlimit:22.9256}
    .str1 {stroke:#F7A29B;stroke-width:10;stroke-miterlimit:22.9256}
    .fil0 {fill:#FEFEFE}
    .fil1 {fill:#F1C2C2}
   ]]>
  </style>
 </defs>
 <g id="tooth-root-canal-28">
  <metadata id="CorelCorpID_0Corel-Layer"/>
  <path id="root" class="fil0 str0" d="M270.62 1490.67c-220.63,110.74 -245.67,0.12 -262.81,-324.94 -13.17,-249.83 3.92,-483.14 64.08,-712.52 30.78,-117.37 121.34,-454.09 220.35,-453.19 20.72,107.11 -160.84,984.67 43.59,1054.23 145.47,49.5 124.08,-317.61 130.25,-450.21 6.44,-138.08 -31.9,-483.79 44.17,-541.79 40.32,54.1 144.79,557.67 159.7,666.13 37.3,271.42 46.6,584.51 29.43,861.63 -209.47,110.53 -258.95,-184.57 -428.76,-99.34zm58.57 -1261.48c22.51,-79.35 9.12,-187.91 71.1,-162.79 21.45,59.25 1.49,387.66 23.59,508.9 24.45,134.19 27.06,343.59 -38.65,442.6 -118.84,14.87 -136.26,-199.77 -104.88,-333.48l48.84 -455.23z"/>
  <g id="_2496585746576">
   <path class="fil1 str1" d="M626.1 1536.94c13.35,-262.5 3.95,-539.57 -31.59,-798.2 -6.06,-44.05 -15.24,-89.14 -23.84,-132.77 -9.44,-47.93 -19.35,-95.79 -29.68,-143.54 0.13,4.57 0.26,9.14 0.38,13.7 1.22,43.45 2.8,88.05 0.78,131.45 -4.7,100.96 0,198.75 -13.48,299.9 -6.93,52.05 -19.28,111.53 -47.5,156.46 -37.86,60.26 -101.48,85.67 -169.87,62.4 -97.79,-33.27 -128.65,-147.04 -140.75,-238.39 -14.7,-111.11 -9.64,-233.32 -1.86,-345.01 5.21,-74.99 12.61,-149.72 20.66,-224.4 -16.08,50.91 -30.29,102.47 -43.8,153.99 -59.37,226.36 -73.99,455.93 -61.69,689.19 3.12,59.21 10.1,238.78 42.57,287.92 4.02,6.08 4.89,6.57 12.18,6.54 28.18,-0.1 73.26,-21.22 97.85,-33.57 56.88,-28.54 115.61,-32.16 173.94,-6.56 41.23,18.09 73.9,46.76 108.18,75.03 39.38,32.48 66.94,54.03 107.52,45.86zm-274.07 -642.92c14.09,-69.56 13.33,-157.36 6.94,-228.57l-3.16 29.44 -0.79 4.64 -0.54 2.29c-11.72,49.97 -14.98,110.06 -8.43,161.13 0.78,6.05 2.85,18.09 5.98,31.07z"/>
  </g>
  <path id="crown" class="fil0 str0" d="M297.93 2368.85c-57.06,14.92 -100.95,140.99 -179.96,63.6 -164.76,-161.41 -133.66,-641.7 -50.53,-871.79 70.59,-0.52 68.66,43.19 163.74,-8.4 202.5,-109.89 136.31,12.93 287.8,73.63 57.13,22.9 117.04,25.12 175.07,7.31 94.7,254.2 34.66,732.01 -145.02,711.8 -54.98,-6.19 -51.34,-35.86 -92.99,-70.46 -66.95,-55.6 -166.87,6.41 -158.11,94.31 57.07,-26.21 83.41,-175.53 173.24,-28.37 -24.73,97.24 -120.59,118.74 -184.89,82.29l11.65 -53.92z"/>
 </g>
</svg>
