<?xml version="1.0" encoding="UTF-8"?>
<!DOCTYPE svg PUBLIC "-//W3C//DTD SVG 1.1//EN" "http://www.w3.org/Graphics/SVG/1.1/DTD/svg11.dtd">
<!-- Creator: CorelDRAW (Versión OEM) -->
<svg xmlns="http://www.w3.org/2000/svg" xml:space="preserve" width="71.0032mm" height="173.699mm" version="1.1" style="shape-rendering:geometricPrecision; text-rendering:geometricPrecision; image-rendering:optimizeQuality; fill-rule:evenodd; clip-rule:evenodd"
viewBox="0 0 7100.32 17369.86"
 xmlns:xlink="http://www.w3.org/1999/xlink"
 xmlns:xodm="http://www.corel.com/coreldraw/odm/2003">
 <defs>
  <style type="text/css">
   <![CDATA[
    .fil2 {fill:#0C0C0C}
    .fil1 {fill:#EDEAE0}
    .fil0 {fill:#F2E6C9}
   ]]>
  </style>
 </defs>
 <g id="fissure-crown">
  <metadata id="CorelCorpID_0Corel-Layer"/>
  <polygon id="root" class="fil0" points="6027.91,5028.34 5997.42,5028.34 5997.42,5211.18 5966.97,5211.18 5966.97,5394.02 5936.49,5394.02 5936.49,6094.9 5966.97,6094.9 5966.97,6552 5997.42,6552 5997.42,6734.84 6027.91,6734.84 6027.91,7009.1 6058.39,7009.1 6058.39,7161.46 6088.84,7161.46 6088.84,7405.27 6119.33,7405.27 6119.33,7527.14 6149.81,7527.14 6149.81,7679.53 6180.26,7679.53 6180.26,7770.95 6210.75,7770.95 6210.75,7953.79 6241.23,7953.79 6241.23,8075.66 6271.68,8075.66 6271.68,8167.08 6302.17,8167.08 6302.17,8319.47 6332.65,8319.47 6332.65,8441.34 6363.1,8441.34 6363.1,8563.25 6393.59,8563.25 6393.59,8624.18 6424.07,8624.18 6424.07,8746.09 6454.52,8746.09 6454.52,8868 6485.01,8868 6485.01,8989.87 6515.49,8989.87 6515.49,9111.77 6545.94,9111.77 6545.94,9264.13 6576.43,9264.13 6576.43,9416.48 6606.91,9416.48 6606.91,9507.9 6637.36,9507.9 6637.36,9690.74 6667.85,9690.74 6667.85,9782.16 6698.33,9782.16 6698.33,9965.01 6728.78,9965.01 6728.78,10178.33 6759.27,10178.33 6759.27,10391.66 6789.76,10391.66 6789.76,10604.95 6820.2,10604.95 6820.2,10757.34 6850.69,10757.34 6850.69,11153.47 6881.18,11153.47 6881.18,12433.36 6850.69,12433.36 6850.69,12585.75 6820.2,12585.75 6820.2,12707.62 6789.76,12707.62 6789.76,12829.53 6759.27,12829.53 6759.27,12920.95 6728.78,12920.95 6728.78,12981.88 6698.33,12981.88 6698.33,13042.85 6667.85,13042.85 6667.85,13103.79 6637.36,13103.79 6637.36,13134.27 6606.91,13134.27 6606.91,13164.72 6545.94,13164.72 6545.94,13195.21 6363.1,13195.21 6363.1,13164.72 6332.65,13164.72 6332.65,13134.27 6271.68,13134.27 6271.68,13103.79 6241.23,13103.79 6241.23,13073.3 6210.75,13073.3 6210.75,13042.85 6180.26,13042.85 6180.26,13012.37 6149.81,13012.37 6149.81,12981.88 6119.33,12981.88 6119.33,12920.95 6088.84,12920.95 6088.84,12890.46 6058.39,12890.46 6058.39,12829.53 6027.91,12829.53 6027.91,12799.04 5997.42,12799.04 5997.42,12738.11 5966.97,12738.11 5966.97,12707.62 5936.49,12707.62 5936.49,12646.68 5906,12646.68 5906,12585.75 5875.55,12585.75 5875.55,12524.78 5845.07,12524.78 5845.07,12463.84 5814.58,12463.84 5814.58,12402.91 5784.13,12402.91 5784.13,12341.94 5753.64,12341.94 5753.64,12250.52 5723.16,12250.52 5723.16,12189.58 5692.71,12189.58 5692.71,12098.16 5662.22,12098.16 5662.22,12037.23 5631.74,12037.23 5631.74,11945.81 5601.29,11945.81 5601.29,11854.39 5570.8,11854.39 5570.8,11762.97 5540.32,11762.97 5540.32,11641.06 5509.87,11641.06 5509.87,11580.12 5479.38,11580.12 5479.38,11458.22 5448.9,11458.22 5448.9,11336.31 5418.45,11336.31 5418.45,11244.89 5387.96,11244.89 5387.96,11092.54 5357.48,11092.54 5357.48,10970.63 5327.03,10970.63 5327.03,10909.7 5296.54,10909.7 5296.54,10757.34 5266.06,10757.34 5266.06,10665.92 5235.61,10665.92 5235.61,10544.01 5205.12,10544.01 5205.12,10452.59 5174.64,10452.59 5174.64,10391.66 5144.19,10391.66 5144.19,10269.75 5113.7,10269.75 5113.7,10208.82 5083.22,10208.82 5083.22,10086.91 5052.77,10086.91 5052.77,10025.98 5022.28,10025.98 5022.28,9934.56 4991.8,9934.56 4991.8,9843.14 4961.35,9843.14 4961.35,9782.16 4930.86,9782.16 4930.86,9721.23 4900.38,9721.23 4900.38,9629.81 4869.93,9629.81 4869.93,9568.87 4839.44,9568.87 4839.44,9507.9 4808.95,9507.9 4808.95,9446.97 4778.51,9446.97 4778.51,9386.03 4748.02,9386.03 4748.02,9325.06 4717.53,9325.06 4717.53,9264.13 4687.08,9264.13 4687.08,9203.19 4656.6,9203.19 4656.6,9111.77 4626.11,9111.77 4626.11,9050.8 4595.66,9050.8 4595.66,8989.87 4565.18,8989.87 4565.18,8928.93 4534.69,8928.93 4534.69,8868 4504.24,8868 4504.24,8807.03 4473.76,8807.03 4473.76,8746.09 4443.27,8746.09 4443.27,8685.16 4412.82,8685.16 4412.82,8624.18 4382.34,8624.18 4382.34,8563.25 4351.85,8563.25 4351.85,8502.31 4321.4,8502.31 4321.4,8441.34 4290.92,8441.34 4290.92,8380.41 4260.43,8380.41 4260.43,8319.47 4229.98,8319.47 4229.98,8258.5 4199.5,8258.5 4199.5,8228.05 4169.01,8228.05 4169.01,8167.08 4138.56,8167.08 4138.56,8106.15 4108.08,8106.15 4108.08,8045.21 4077.59,8045.21 4077.59,7984.24 4047.14,7984.24 4047.14,7953.79 4016.66,7953.79 4016.66,7892.82 3986.17,7892.82 3986.17,7831.89 3955.72,7831.89 3955.72,7801.4 3925.24,7801.4 3925.24,7740.47 3894.75,7740.47 3894.75,7709.98 3864.3,7709.98 3864.3,7649.04 3833.82,7649.04 3833.82,7618.56 3803.33,7618.56 3803.33,7588.11 3772.88,7588.11 3772.88,7557.62 3742.39,7557.62 3742.39,7527.14 3711.91,7527.14 3711.91,7496.69 3681.46,7496.69 3681.46,7466.2 3468.13,7466.2 3468.13,7496.69 3437.65,7496.69 3437.65,7527.14 3407.2,7527.14 3407.2,7557.62 3376.71,7557.62 3376.71,7588.11 3346.23,7588.11 3346.23,7618.56 3315.78,7618.56 3315.78,7679.53 3285.29,7679.53 3285.29,7740.47 3254.81,7740.47 3254.81,7801.4 3224.36,7801.4 3224.36,7892.82 3193.87,7892.82 3193.87,7984.24 3163.39,7984.24 3163.39,8075.66 3132.94,8075.66 3132.94,8197.57 3102.45,8197.57 3102.45,8258.5 3071.97,8258.5 3071.97,8349.92 3041.52,8349.92 3041.52,8532.76 3011.03,8532.76 3011.03,8654.67 2980.55,8654.67 2980.55,8868 2950.1,8868 2950.1,9020.35 2919.61,9020.35 2919.61,9294.61 2889.12,9294.61 2889.12,10208.82 2919.61,10208.82 2919.61,10513.53 2950.1,10513.53 2950.1,10696.37 2980.55,10696.37 2980.55,10848.76 3011.03,10848.76 3011.03,11001.12 3041.52,11001.12 3041.52,11183.96 3071.97,11183.96 3071.97,11305.86 3102.45,11305.86 3102.45,11366.8 3132.94,11366.8 3132.94,11488.7 3163.39,11488.7 3163.39,11610.57 3193.87,11610.57 3193.87,11701.99 3224.36,11701.99 3224.36,11793.41 3254.81,11793.41 3254.81,11915.32 3285.29,11915.32 3285.29,11976.26 3315.78,11976.26 3315.78,12098.16 3346.23,12098.16 3346.23,12159.1 3376.71,12159.1 3376.71,12250.52 3407.2,12250.52 3407.2,12341.94 3437.65,12341.94 3437.65,12433.36 3468.13,12433.36 3468.13,12494.33 3498.62,12494.33 3498.62,12585.75 3529.07,12585.75 3529.07,12677.17 3559.55,12677.17 3559.55,12768.59 3590.04,12768.59 3590.04,12890.46 3620.49,12890.46 3620.49,13012.37 3650.97,13012.37 3650.97,13469.47 3620.49,13469.47 3620.49,13530.4 3590.04,13530.4 3590.04,13560.89 3529.07,13560.89 3529.07,13591.37 3376.71,13591.37 3376.71,13560.89 3315.78,13560.89 3315.78,13530.4 3254.81,13530.4 3254.81,13499.95 3193.87,13499.95 3193.87,13469.47 3132.94,13469.47 3132.94,13438.98 3102.45,13438.98 3102.45,13408.53 3041.52,13408.53 3041.52,13378.05 3011.03,13378.05 3011.03,13347.56 2980.55,13347.56 2980.55,13317.11 2919.61,13317.11 2919.61,13286.63 2889.12,13286.63 2889.12,13256.14 2858.68,13256.14 2858.68,13225.69 2797.7,13225.69 2797.7,13195.21 2767.26,13195.21 2767.26,13164.72 2736.77,13164.72 2736.77,13134.27 2706.28,13134.27 2706.28,13103.79 2675.83,13103.79 2675.83,13073.3 2645.35,13073.3 2645.35,13042.85 2614.86,13042.85 2614.86,13012.37 2584.41,13012.37 2584.41,12981.88 2553.93,12981.88 2553.93,12951.43 2523.44,12951.43 2523.44,12890.46 2492.99,12890.46 2492.99,12860.01 2462.51,12860.01 2462.51,12829.53 2432.02,12829.53 2432.02,12799.04 2401.57,12799.04 2401.57,12738.11 2371.09,12738.11 2371.09,12707.62 2340.6,12707.62 2340.6,12677.17 2310.15,12677.17 2310.15,12616.2 2279.67,12616.2 2279.67,12585.75 2249.18,12585.75 2249.18,12524.78 2218.73,12524.78 2218.73,12494.33 2188.25,12494.33 2188.25,12433.36 2157.76,12433.36 2157.76,12402.91 2127.31,12402.91 2127.31,12341.94 2096.83,12341.94 2096.83,12281 2066.34,12281 2066.34,12250.52 2035.89,12250.52 2035.89,12189.58 2005.41,12189.58 2005.41,12128.65 1974.92,12128.65 1974.92,12098.16 1944.47,12098.16 1944.47,12037.23 1913.99,12037.23 1913.99,11976.26 1883.5,11976.26 1883.5,11915.32 1853.05,11915.32 1853.05,11854.39 1822.56,11854.39 1822.56,11793.41 1792.08,11793.41 1792.08,11732.48 1761.63,11732.48 1761.63,11671.54 1731.14,11671.54 1731.14,11610.57 1700.66,11610.57 1700.66,11549.64 1670.21,11549.64 1670.21,11488.7 1639.72,11488.7 1639.72,11427.73 1609.24,11427.73 1609.24,11336.31 1578.79,11336.31 1578.79,11275.38 1548.3,11275.38 1548.3,11214.44 1517.82,11214.44 1517.82,11123.02 1487.37,11123.02 1487.37,11031.6 1456.88,11031.6 1456.88,10970.63 1426.4,10970.63 1426.4,10909.7 1395.95,10909.7 1395.95,10787.79 1365.46,10787.79 1365.46,10696.37 1334.98,10696.37 1334.98,10604.95 1304.53,10604.95 1304.53,10483.08 1274.04,10483.08 1274.04,10391.66 1243.56,10391.66 1243.56,10300.24 1213.11,10300.24 1213.11,10147.85 1182.62,10147.85 1182.62,10056.43 1152.14,10056.43 1152.14,9934.56 1121.69,9934.56 1121.69,9751.72 1091.2,9751.72 1091.2,9690.74 1060.72,9690.74 1060.72,9416.48 1030.27,9416.48 1030.27,9233.64 999.78,9233.64 999.78,9020.35 969.3,9020.35 969.3,8715.6 938.85,8715.6 938.85,7405.27 969.3,7405.27 969.3,6734.84 999.78,6734.84 999.78,5881.57 969.3,5881.57 969.3,5454.95 938.85,5454.95 938.85,5272.11 908.36,5272.11 908.36,5089.27 877.87,5089.27 877.87,4997.85 847.43,4997.85 847.43,4936.92 908.36,4936.92 908.36,4967.37 938.85,4967.37 938.85,4997.85 999.78,4997.85 999.78,5028.34 1030.27,5028.34 1030.27,5058.79 1091.2,5058.79 1091.2,5089.27 1152.14,5089.27 1152.14,5119.76 1213.11,5119.76 1213.11,5150.21 1274.04,5150.21 1274.04,5180.69 1334.98,5180.69 1334.98,5211.18 1426.4,5211.18 1426.4,5241.63 1548.3,5241.63 1548.3,5272.11 1639.72,5272.11 1639.72,5302.6 1670.21,5302.6 1670.21,5333.05 1700.66,5333.05 1700.66,5363.53 1761.63,5363.53 1761.63,5394.02 2066.34,5394.02 2066.34,5424.47 2157.76,5424.47 2157.76,5454.95 2279.67,5454.95 2279.67,5485.44 2371.09,5485.44 2371.09,5515.89 2523.44,5515.89 2523.44,5546.37 2706.28,5546.37 2706.28,5576.86 2889.12,5576.86 2889.12,5607.31 3590.04,5607.31 3590.04,5576.86 3772.88,5576.86 3772.88,5546.37 4047.14,5546.37 4047.14,5515.89 4229.98,5515.89 4229.98,5485.44 4412.82,5485.44 4412.82,5454.95 4534.69,5454.95 4534.69,5424.47 4656.6,5424.47 4656.6,5394.02 4808.95,5394.02 4808.95,5363.53 4900.38,5363.53 4900.38,5333.05 5022.28,5333.05 5022.28,5302.6 5113.7,5302.6 5113.7,5272.11 5266.06,5272.11 5266.06,5241.63 5327.03,5241.63 5327.03,5211.18 5418.45,5211.18 5418.45,5180.69 5509.87,5180.69 5509.87,5150.21 5570.8,5150.21 5570.8,5119.76 5662.22,5119.76 5662.22,5089.27 5723.16,5089.27 5723.16,5058.79 5784.13,5058.79 5784.13,5028.34 5845.07,5028.34 5845.07,4997.85 5936.49,4997.85 5936.49,4967.37 5966.97,4967.37 5966.97,4936.92 6027.91,4936.92 "/>
  <polygon id="crown" class="fil1" points="4748.02,243.99 4869.93,243.99 4869.93,274.47 4930.86,274.47 4930.86,304.96 4991.8,304.96 4991.8,335.41 5052.77,335.41 5052.77,365.89 5113.7,365.89 5113.7,396.38 5174.64,396.38 5174.64,426.83 5205.12,426.83 5205.12,457.31 5266.06,457.31 5266.06,487.8 5327.03,487.8 5327.03,518.25 5357.48,518.25 5357.48,548.73 5418.45,548.73 5418.45,579.22 5479.38,579.22 5479.38,640.15 5387.96,640.15 5387.96,670.64 5266.06,670.64 5266.06,701.09 5144.19,701.09 5144.19,792.51 5174.64,792.51 5174.64,823 5266.06,823 5266.06,792.51 5387.96,792.51 5387.96,762.06 5509.87,762.06 5509.87,731.57 5845.07,731.57 5845.07,762.06 5906,762.06 5906,792.51 5966.97,792.51 5966.97,823 6027.91,823 6027.91,853.48 6058.39,853.48 6058.39,883.93 6088.84,883.93 6088.84,914.42 6119.33,914.42 6119.33,944.9 6149.81,944.9 6149.81,975.35 6180.26,975.35 6180.26,1005.84 6210.75,1005.84 6210.75,1036.32 6241.23,1036.32 6241.23,1097.26 6271.68,1097.26 6271.68,1158.19 6302.17,1158.19 6302.17,1219.13 6332.65,1219.13 6332.65,1249.61 6363.1,1249.61 6363.1,1341.03 6393.59,1341.03 6393.59,1401.97 6424.07,1401.97 6424.07,1493.39 6454.52,1493.39 6454.52,1615.29 6485.01,1615.29 6485.01,1737.2 6515.49,1737.2 6515.49,1859.07 6545.94,1859.07 6545.94,2011.46 6576.43,2011.46 6576.43,2956.12 6545.94,2956.12 6545.94,3138.96 6515.49,3138.96 6515.49,3321.8 6485.01,3321.8 6485.01,3443.7 6454.52,3443.7 6454.52,3535.12 6424.07,3535.12 6424.07,3687.48 6393.59,3687.48 6393.59,3748.45 6363.1,3748.45 6363.1,3900.81 6332.65,3900.81 6332.65,3992.23 6302.17,3992.23 6302.17,4053.16 6271.68,4053.16 6271.68,4175.07 6241.23,4175.07 6241.23,4266.49 6210.75,4266.49 6210.75,4357.91 6180.26,4357.91 6180.26,4449.33 6149.81,4449.33 6149.81,4540.75 6119.33,4540.75 6119.33,4632.17 6088.84,4632.17 6088.84,4723.59 6058.39,4723.59 6058.39,4754.08 6027.91,4754.08 6027.91,4784.52 5966.97,4784.52 5966.97,4815.01 5936.49,4815.01 5936.49,4845.5 5875.55,4845.5 5875.55,4875.95 5814.58,4875.95 5814.58,4906.43 5753.64,4906.43 5753.64,4936.92 5662.22,4936.92 5662.22,4967.37 5601.29,4967.37 5601.29,4997.85 5509.87,4997.85 5509.87,5028.34 5448.9,5028.34 5448.9,5058.79 5387.96,5058.79 5387.96,5089.27 5266.06,5089.27 5266.06,5119.76 5205.12,5119.76 5205.12,5150.21 5083.22,5150.21 5083.22,5180.69 4991.8,5180.69 4991.8,5211.18 4869.93,5211.18 4869.93,5241.63 4748.02,5241.63 4748.02,5272.11 4595.66,5272.11 4595.66,5302.6 4504.24,5302.6 4504.24,5333.05 4290.92,5333.05 4290.92,5363.53 4169.01,5363.53 4169.01,5394.02 3955.72,5394.02 3955.72,5424.47 3650.97,5424.47 3650.97,5454.95 2767.26,5454.95 2767.26,5424.47 2614.86,5424.47 2614.86,5394.02 2432.02,5394.02 2432.02,5363.53 2310.15,5363.53 2310.15,5333.05 2188.25,5333.05 2188.25,5302.6 2066.34,5302.6 2066.34,5272.11 1974.92,5272.11 1974.92,5241.63 1913.99,5241.63 1913.99,5272.11 1761.63,5272.11 1761.63,5241.63 1731.14,5241.63 1731.14,5211.18 1639.72,5211.18 1639.72,5180.69 1578.79,5180.69 1578.79,5150.21 1456.88,5150.21 1456.88,5119.76 1365.46,5119.76 1365.46,5089.27 1304.53,5089.27 1304.53,5058.79 1243.56,5058.79 1243.56,5028.34 1213.11,5028.34 1213.11,4997.85 1152.14,4997.85 1152.14,4967.37 1091.2,4967.37 1091.2,4936.92 1030.27,4936.92 1030.27,4906.43 999.78,4906.43 999.78,4875.95 938.85,4875.95 938.85,4845.5 908.36,4845.5 908.36,4815.01 877.87,4815.01 877.87,4784.52 847.43,4784.52 847.43,4754.08 816.94,4754.08 816.94,4723.59 786.45,4723.59 786.45,4662.65 756,4662.65 756,4540.75 725.52,4540.75 725.52,4479.81 695.03,4479.81 695.03,4388.39 664.58,4388.39 664.58,4296.97 634.1,4296.97 634.1,4205.55 603.61,4205.55 603.61,4144.58 573.16,4144.58 573.16,4053.16 542.68,4053.16 542.68,3961.74 512.19,3961.74 512.19,3839.87 481.74,3839.87 481.74,3778.9 451.26,3778.9 451.26,3687.48 420.77,3687.48 420.77,3596.06 390.32,3596.06 390.32,3504.64 359.84,3504.64 359.84,3352.28 329.35,3352.28 329.35,3291.35 298.9,3291.35 298.9,3138.96 268.42,3138.96 268.42,2956.12 237.93,2956.12 237.93,2803.76 207.48,2803.76 207.48,2620.92 177,2620.92 177,2133.33 207.48,2133.33 207.48,2011.46 237.93,2011.46 237.93,1798.14 268.42,1798.14 268.42,1676.23 298.9,1676.23 298.9,1584.81 329.35,1584.81 329.35,1493.39 359.84,1493.39 359.84,1432.45 390.32,1432.45 390.32,1371.52 420.77,1371.52 420.77,1310.55 451.26,1310.55 451.26,1280.1 481.74,1280.1 481.74,1219.13 512.19,1219.13 512.19,1188.68 542.68,1188.68 542.68,1158.19 573.16,1158.19 573.16,1127.74 603.61,1127.74 603.61,1097.26 634.1,1097.26 634.1,1066.77 695.03,1066.77 695.03,1036.32 725.52,1036.32 725.52,1005.84 786.45,1005.84 786.45,975.35 847.43,975.35 847.43,944.9 938.85,944.9 938.85,914.42 1030.27,914.42 1030.27,883.93 1121.69,883.93 1121.69,853.48 1456.88,853.48 1456.88,883.93 1548.3,883.93 1548.3,914.42 1609.24,914.42 1609.24,944.9 1670.21,944.9 1670.21,975.35 1731.14,975.35 1731.14,1005.84 1792.08,1005.84 1792.08,1036.32 1853.05,1036.32 1853.05,1066.77 1883.5,1066.77 1883.5,1097.26 1944.47,1097.26 1944.47,1127.74 2005.41,1127.74 2005.41,1158.19 2066.34,1158.19 2066.34,1188.68 2157.76,1188.68 2157.76,1219.13 2218.73,1219.13 2218.73,1249.61 2310.15,1249.61 2310.15,1280.1 2401.57,1280.1 2401.57,1310.55 2492.99,1310.55 2492.99,1341.03 2553.93,1341.03 2553.93,1371.52 2645.35,1371.52 2645.35,1401.97 2736.77,1401.97 2736.77,1432.45 2828.19,1432.45 2828.19,1462.94 2889.12,1462.94 2889.12,1493.39 2980.55,1493.39 2980.55,1523.87 3041.52,1523.87 3041.52,1554.36 3102.45,1554.36 3102.45,1615.29 3071.97,1615.29 3071.97,1737.2 3041.52,1737.2 3041.52,1828.62 3011.03,1828.62 3011.03,2590.43 3041.52,2590.43 3041.52,2620.92 3071.97,2620.92 3071.97,2316.17 3102.45,2316.17 3102.45,2041.91 3132.94,2041.91 3132.94,1889.56 3163.39,1889.56 3163.39,1706.71 3193.87,1706.71 3193.87,1584.81 3224.36,1584.81 3224.36,1554.36 3254.81,1554.36 3254.81,1523.87 3315.78,1523.87 3315.78,1493.39 3346.23,1493.39 3346.23,1462.94 3407.2,1462.94 3407.2,1432.45 3468.13,1432.45 3468.13,1401.97 3529.07,1401.97 3529.07,1371.52 3590.04,1371.52 3590.04,1341.03 3650.97,1341.03 3650.97,1310.55 3711.91,1310.55 3711.91,1280.1 3772.88,1280.1 3772.88,1249.61 3833.82,1249.61 3833.82,1219.13 3894.75,1219.13 3894.75,1188.68 3986.17,1188.68 3986.17,1158.19 4047.14,1158.19 4047.14,1127.74 4138.56,1127.74 4138.56,1097.26 4199.5,1097.26 4199.5,1066.77 4260.43,1066.77 4260.43,1036.32 4351.85,1036.32 4351.85,1005.84 4412.82,1005.84 4412.82,975.35 4504.24,975.35 4504.24,944.9 4595.66,944.9 4595.66,914.42 4930.86,914.42 4930.86,944.9 5052.77,944.9 5052.77,975.35 5113.7,975.35 5113.7,1005.84 5174.64,1005.84 5174.64,1036.32 5235.61,1036.32 5235.61,1066.77 5296.54,1066.77 5296.54,1097.26 5327.03,1097.26 5327.03,1127.74 5387.96,1127.74 5387.96,1188.68 5448.9,1188.68 5448.9,1219.13 5479.38,1219.13 5479.38,1280.1 5509.87,1280.1 5509.87,1310.55 5540.32,1310.55 5540.32,1341.03 5570.8,1341.03 5570.8,1401.97 5601.29,1401.97 5601.29,1432.45 5631.74,1432.45 5631.74,1493.39 5662.22,1493.39 5662.22,1554.36 5692.71,1554.36 5692.71,1615.29 5723.16,1615.29 5723.16,1676.23 5753.64,1676.23 5753.64,1737.2 5784.13,1737.2 5784.13,1798.14 5814.58,1798.14 5814.58,1859.07 5845.07,1859.07 5845.07,1889.56 5875.55,1889.56 5875.55,1920.04 5936.49,1920.04 5936.49,1828.62 5906,1828.62 5906,1737.2 5875.55,1737.2 5875.55,1645.78 5845.07,1645.78 5845.07,1584.81 5814.58,1584.81 5814.58,1523.87 5784.13,1523.87 5784.13,1462.94 5753.64,1462.94 5753.64,1401.97 5723.16,1401.97 5723.16,1371.52 5692.71,1371.52 5692.71,1310.55 5662.22,1310.55 5662.22,1280.1 5631.74,1280.1 5631.74,1219.13 5601.29,1219.13 5601.29,1188.68 5570.8,1188.68 5570.8,1158.19 5540.32,1158.19 5540.32,1127.74 5509.87,1127.74 5509.87,1097.26 5479.38,1097.26 5479.38,1066.77 5448.9,1066.77 5448.9,1036.32 5418.45,1036.32 5418.45,1005.84 5387.96,1005.84 5387.96,975.35 5357.48,975.35 5357.48,944.9 5296.54,944.9 5296.54,914.42 5235.61,914.42 5235.61,883.93 5174.64,883.93 5174.64,853.48 5113.7,853.48 5113.7,823 4991.8,823 4991.8,792.51 4504.24,792.51 4504.24,823 4443.27,823 4443.27,853.48 4351.85,853.48 4351.85,883.93 4260.43,883.93 4260.43,914.42 4199.5,914.42 4199.5,944.9 4108.08,944.9 4108.08,975.35 4047.14,975.35 4047.14,1005.84 3986.17,1005.84 3986.17,1036.32 3894.75,1036.32 3894.75,1066.77 3833.82,1066.77 3833.82,1097.26 3772.88,1097.26 3772.88,1127.74 3711.91,1127.74 3711.91,1158.19 3650.97,1158.19 3650.97,1188.68 3590.04,1188.68 3590.04,1219.13 3529.07,1219.13 3529.07,1249.61 3468.13,1249.61 3468.13,1280.1 3407.2,1280.1 3407.2,1310.55 3346.23,1310.55 3346.23,1341.03 3285.29,1341.03 3285.29,1371.52 3224.36,1371.52 3224.36,1401.97 3193.87,1401.97 3193.87,1432.45 3071.97,1432.45 3071.97,1401.97 3041.52,1401.97 3041.52,1371.52 2950.1,1371.52 2950.1,1341.03 2889.12,1341.03 2889.12,1310.55 2828.19,1310.55 2828.19,1280.1 2736.77,1280.1 2736.77,1249.61 2645.35,1249.61 2645.35,1219.13 2553.93,1219.13 2553.93,1188.68 2492.99,1188.68 2492.99,1158.19 2371.09,1158.19 2371.09,1127.74 2279.67,1127.74 2279.67,1097.26 2218.73,1097.26 2218.73,1066.77 2127.31,1066.77 2127.31,1036.32 2066.34,1036.32 2066.34,1005.84 2005.41,1005.84 2005.41,975.35 1944.47,975.35 1944.47,944.9 1913.99,944.9 1913.99,914.42 1853.05,914.42 1853.05,883.93 1792.08,883.93 1792.08,853.48 1731.14,853.48 1731.14,823 1670.21,823 1670.21,792.51 1609.24,792.51 1609.24,762.06 1517.82,762.06 1517.82,731.57 1060.72,731.57 1060.72,762.06 999.78,762.06 999.78,792.51 908.36,792.51 908.36,823 847.43,823 847.43,853.48 786.45,853.48 786.45,823 816.94,823 816.94,792.51 877.87,792.51 877.87,762.06 908.36,762.06 908.36,731.57 938.85,731.57 938.85,701.09 999.78,701.09 999.78,670.64 1030.27,670.64 1030.27,640.15 1060.72,640.15 1060.72,609.67 1121.69,609.67 1121.69,579.22 1152.14,579.22 1152.14,548.73 1182.62,548.73 1182.62,518.25 1243.56,518.25 1243.56,487.8 1274.04,487.8 1274.04,457.31 1334.98,457.31 1334.98,426.83 1395.95,426.83 1395.95,396.38 1456.88,396.38 1456.88,365.89 1517.82,365.89 1517.82,335.41 1578.79,335.41 1578.79,304.96 1974.92,304.96 1974.92,335.41 2035.89,335.41 2035.89,365.89 2096.83,365.89 2096.83,396.38 2188.25,396.38 2188.25,426.83 2249.18,426.83 2249.18,457.31 2310.15,457.31 2310.15,487.8 2371.09,487.8 2371.09,518.25 2432.02,518.25 2432.02,548.73 2492.99,548.73 2492.99,579.22 2523.44,579.22 2523.44,609.67 2584.41,609.67 2584.41,701.09 2614.86,701.09 2614.86,762.06 2675.83,762.06 2675.83,701.09 2797.7,701.09 2797.7,731.57 2889.12,731.57 2889.12,762.06 3376.71,762.06 3376.71,731.57 3498.62,731.57 3498.62,701.09 3590.04,701.09 3590.04,670.64 3650.97,670.64 3650.97,640.15 3742.39,640.15 3742.39,609.67 3803.33,609.67 3803.33,579.22 3864.3,579.22 3864.3,548.73 3925.24,548.73 3925.24,518.25 3955.72,518.25 3955.72,487.8 4016.66,487.8 4016.66,457.31 4077.59,457.31 4077.59,426.83 4108.08,426.83 4108.08,396.38 4169.01,396.38 4169.01,365.89 4229.98,365.89 4229.98,335.41 4290.92,335.41 4290.92,304.96 4351.85,304.96 4351.85,274.47 4443.27,274.47 4443.27,243.99 4534.69,243.99 4534.69,213.54 4748.02,213.54 "/>
  <path id="outline" class="fil2" d="M877.87 5089.27l30.49 0 0 182.84 30.49 0 0 182.84 30.45 0 0 426.62 30.48 0 0 853.27 -30.48 0 0 670.43 -30.45 0 0 1310.33 30.45 0 0 304.75 30.48 0 0 213.29 30.49 0 0 182.84 30.45 0 0 274.26 30.48 0 0 60.98 30.49 0 0 182.84 30.45 0 0 121.87 30.48 0 0 91.42 30.49 0 0 152.39 30.45 0 0 91.42 30.48 0 0 91.42 30.49 0 0 121.87 30.45 0 0 91.42 30.48 0 0 91.42 30.49 0 0 121.91 30.45 0 0 60.93 30.48 0 0 60.97 30.49 0 0 91.42 30.45 0 0 91.42 30.48 0 0 60.94 30.49 0 0 60.93 30.45 0 0 91.42 30.48 0 0 60.97 30.49 0 0 60.94 30.45 0 0 60.93 30.48 0 0 60.97 30.49 0 0 60.94 30.45 0 0 60.93 30.48 0 0 60.98 30.49 0 0 60.93 30.45 0 0 60.94 30.49 0 0 60.97 30.48 0 0 60.93 30.45 0 0 30.49 30.49 0 0 60.93 30.48 0 0 60.94 30.45 0 0 30.48 30.49 0 0 60.94 30.48 0 0 60.97 30.45 0 0 30.45 30.49 0 0 60.97 30.48 0 0 30.45 30.45 0 0 60.97 30.49 0 0 30.45 30.48 0 0 60.97 30.45 0 0 30.45 30.49 0 0 30.49 30.48 0 0 60.93 30.45 0 0 30.49 30.49 0 0 30.48 30.48 0 0 30.45 30.45 0 0 60.97 30.49 0 0 30.45 30.48 0 0 30.49 30.45 0 0 30.48 30.49 0 0 30.45 30.48 0 0 30.49 30.45 0 0 30.48 30.49 0 0 30.45 30.49 0 0 30.49 30.44 0 0 30.48 60.98 0 0 30.45 30.44 0 0 30.49 30.49 0 0 30.48 60.94 0 0 30.45 30.48 0 0 30.49 30.49 0 0 30.48 60.93 0 0 30.45 30.49 0 0 30.49 60.93 0 0 30.48 60.94 0 0 30.45 60.97 0 0 30.49 60.93 0 0 30.48 152.36 0 0 -30.48 60.97 0 0 -30.49 30.45 0 0 -60.93 30.48 0 0 -457.1 -30.48 0 0 -121.91 -30.45 0 0 -121.87 -30.49 0 0 -91.42 -30.48 0 0 -91.42 -30.45 0 0 -91.42 -30.49 0 0 -60.97 -30.48 0 0 -91.42 -30.45 0 0 -91.42 -30.49 0 0 -91.42 -30.48 0 0 -60.94 -30.45 0 0 -121.9 -30.49 0 0 -60.94 -30.48 0 0 -121.91 -30.45 0 0 -91.42 -30.49 0 0 -91.42 -30.48 0 0 -121.87 -30.45 0 0 -121.9 -30.49 0 0 -60.94 -30.48 0 0 -121.9 -30.45 0 0 -182.84 -30.49 0 0 -152.36 -30.48 0 0 -152.39 -30.45 0 0 -182.84 -30.49 0 0 -304.71 -30.49 0 0 -914.21 30.49 0 0 -274.26 30.49 0 0 -152.35 30.45 0 0 -213.33 30.48 0 0 -121.91 30.49 0 0 -182.84 30.45 0 0 -91.42 30.48 0 0 -60.93 30.49 0 0 -121.91 30.45 0 0 -91.42 30.48 0 0 -91.42 30.49 0 0 -91.42 30.45 0 0 -60.93 30.48 0 0 -60.94 30.49 0 0 -60.97 30.45 0 0 -30.45 30.48 0 0 -30.49 30.49 0 0 -30.48 30.45 0 0 -30.45 30.48 0 0 -30.49 213.33 0 0 30.49 30.45 0 0 30.45 30.48 0 0 30.48 30.49 0 0 30.49 30.45 0 0 30.45 30.49 0 0 30.48 30.48 0 0 60.94 30.45 0 0 30.49 30.49 0 0 60.93 30.48 0 0 30.49 30.45 0 0 60.93 30.49 0 0 60.97 30.48 0 0 30.45 30.45 0 0 60.97 30.49 0 0 60.94 30.48 0 0 60.93 30.45 0 0 60.97 30.49 0 0 30.45 30.48 0 0 60.97 30.45 0 0 60.94 30.49 0 0 60.93 30.48 0 0 60.97 30.45 0 0 60.94 30.49 0 0 60.93 30.48 0 0 60.98 30.45 0 0 60.93 30.49 0 0 60.94 30.48 0 0 60.97 30.45 0 0 60.93 30.49 0 0 60.94 30.48 0 0 60.93 30.45 0 0 60.97 30.49 0 0 91.42 30.48 0 0 60.94 30.45 0 0 60.93 30.49 0 0 60.97 30.49 0 0 60.94 30.44 0 0 60.93 30.49 0 0 60.97 30.49 0 0 60.94 30.45 0 0 91.42 30.48 0 0 60.93 30.49 0 0 60.98 30.45 0 0 91.42 30.48 0 0 91.42 30.49 0 0 60.93 30.45 0 0 121.91 30.48 0 0 60.93 30.49 0 0 121.91 30.45 0 0 60.93 30.48 0 0 91.42 30.49 0 0 121.91 30.45 0 0 91.42 30.48 0 0 152.36 30.49 0 0 60.93 30.45 0 0 121.91 30.48 0 0 152.35 30.49 0 0 91.42 30.45 0 0 121.91 30.48 0 0 121.9 30.49 0 0 60.94 30.45 0 0 121.91 30.48 0 0 91.42 30.49 0 0 91.42 30.45 0 0 91.42 30.48 0 0 60.93 30.49 0 0 91.42 30.45 0 0 60.94 30.48 0 0 91.42 30.49 0 0 60.97 30.45 0 0 60.93 30.49 0 0 60.94 30.48 0 0 60.97 30.45 0 0 60.93 30.49 0 0 60.94 30.48 0 0 30.49 30.45 0 0 60.93 30.49 0 0 30.49 30.48 0 0 60.93 30.45 0 0 30.49 30.49 0 0 60.93 30.48 0 0 30.49 30.45 0 0 30.48 30.49 0 0 30.45 30.48 0 0 30.49 30.45 0 0 30.48 60.97 0 0 30.45 30.45 0 0 30.49 182.84 0 0 -30.49 60.97 0 0 -30.45 30.45 0 0 -30.48 30.49 0 0 -60.94 30.48 0 0 -60.97 30.45 0 0 -60.93 30.49 0 0 -91.42 30.49 0 0 -121.91 30.44 0 0 -121.87 30.49 0 0 -152.39 30.49 0 0 -1279.89 -30.49 0 0 -396.13 -30.49 0 0 -152.39 -30.44 0 0 -213.29 -30.49 0 0 -213.33 -30.49 0 0 -213.32 -30.45 0 0 -182.85 -30.48 0 0 -91.42 -30.49 0 0 -182.84 -30.45 0 0 -91.42 -30.48 0 0 -152.35 -30.49 0 0 -152.36 -30.45 0 0 -121.9 -30.48 0 0 -121.87 -30.49 0 0 -121.91 -30.45 0 0 -121.91 -30.48 0 0 -60.93 -30.49 0 0 -121.91 -30.45 0 0 -121.87 -30.48 0 0 -152.39 -30.49 0 0 -91.42 -30.45 0 0 -121.87 -30.48 0 0 -182.84 -30.49 0 0 -91.42 -30.45 0 0 -152.39 -30.48 0 0 -121.87 -30.49 0 0 -243.81 -30.45 0 0 -152.36 -30.48 0 0 -274.26 -30.49 0 0 -182.84 -30.45 0 0 -457.1 -30.48 0 0 -700.88 30.48 0 0 -182.84 30.45 0 0 -182.84 30.49 0 0 -91.42 -60.94 0 0 30.45 -30.48 0 0 30.48 -91.42 0 0 30.49 -60.94 0 0 30.45 -60.97 0 0 30.48 -60.94 0 0 30.49 -91.42 0 0 30.45 -60.93 0 0 30.48 -91.42 0 0 30.49 -91.42 0 0 30.45 -60.97 0 0 30.48 -152.36 0 0 30.49 -91.42 0 0 30.45 -121.9 0 0 30.48 -91.43 0 0 30.49 -152.35 0 0 30.45 -121.91 0 0 30.48 -121.87 0 0 30.49 -182.84 0 0 30.45 -182.84 0 0 30.48 -274.26 0 0 30.49 -182.84 0 0 30.45 -700.92 0 0 -30.45 -182.84 0 0 -30.49 -182.84 0 0 -30.48 -152.35 0 0 -30.45 -91.42 0 0 -30.49 -121.91 0 0 -30.48 -91.42 0 0 -30.45 -304.71 0 0 -30.49 -60.97 0 0 -30.48 -30.45 0 0 -30.45 -30.49 0 0 -30.49 -91.42 0 0 -30.48 -121.9 0 0 -30.45 -91.42 0 0 -30.49 -60.94 0 0 -30.48 -60.93 0 0 -30.45 -60.97 0 0 -30.49 -60.94 0 0 -30.48 -60.93 0 0 -30.45 -30.49 0 0 -30.49 -60.93 0 0 -30.48 -30.49 0 0 -30.45 -60.93 0 0 60.93 30.44 0 0 91.42zm-700.87 -2747.69c44.18,25.38 33.08,-6.91 115.09,16.03 206.19,57.66 243.93,38.98 384,163.2 86.89,77.08 86.59,57.07 94.61,157.55 100.91,43.46 83.76,54.76 187.29,4.68 36.83,21.13 35.3,41.89 74.91,58.99l86.06 -43.47c31.83,27.67 46.33,68.75 76.69,93.55 35.95,29.35 83.43,23.49 123.87,40.18 -7.53,29.97 -12.05,70.86 -12.57,100.51 21.8,21.88 46.79,31.32 59.95,53.02 14.94,24.6 3.99,35.62 34.7,61.53 22.42,18.93 62.53,30.29 78.52,47.67 23.16,25.15 -1.43,29.59 10.8,64.84 97.07,9.05 134.04,-86 240.77,44.89 102.59,125.84 116.97,53.31 237.69,70.18 22.7,101.43 -58.23,122.24 134.41,216.02 43.8,21.33 121.43,50.81 139.21,89.7 26.2,57.34 -15.42,71.28 76.41,109.25 97.77,-46.61 42.27,-26.35 149.25,-18.03 91.06,7.09 48.87,-38.87 148.2,44.32 100.13,83.83 90.59,102.08 117.5,124.46 52.29,43.5 90.07,23.09 160.3,18.01 29.73,30.01 34.28,62.25 80.6,101.72l34.03 28.92c-80.87,-38.8 -73.58,-70.57 -122.6,-116.83 -51.08,2.79 -84.24,32.14 -149.36,-8.69 -36.66,-22.99 -80.36,-82.19 -122.33,-118.08 -95.03,-81.28 -62.84,-37.31 -143.14,-40.77 -83.38,-3.56 -63.3,-26.72 -141.27,31.09 -239.93,-105.44 -17.47,-100.03 -231.57,-198.56 -153.46,-70.65 -160.5,-51.68 -195.12,-196.3 -46.05,-5.59 -77.51,6.56 -137.47,-10.61 -73.61,-21.08 -81.81,-138.38 -172.23,-106.81 -32.85,11.45 -30.54,10.19 -65.19,14.14 -50.02,5.73 -88.54,11.39 -135.83,12.64l-4.34 -114.13c-30.82,-22.56 -55.45,-22.99 -78.55,-48.92 -20.85,-23.41 -11.75,-42.27 -34.79,-65.25 -66.19,-66.02 -98.01,-9.26 -81.77,-122.04 -55.65,-23.29 -49.11,-24.37 -93.37,-59.8 -27.71,23.17 -51.71,31.53 -77.21,50.93l-71.05 -68.75c-133.12,62.74 -44.38,19.09 -191.88,-25.12 -42.71,-12.81 -78.29,-10.98 -116.68,-27.77 -5.36,-78.81 -6.69,-128.16 -50.09,-164.32 -121.14,-100.88 -125.26,-34.78 -189.83,-64.98 -83.14,-38.88 -11.44,-48.05 -137.9,-41.48 -38.6,2.01 -66.69,2.03 -88.72,-0.26l0 122.29 30.48 0 0 182.84 30.45 0 0 152.36 30.49 0 0 182.84 30.48 0 0 152.39 30.45 0 0 60.93 30.49 0 0 152.36 30.48 0 0 91.42 30.45 0 0 91.42 30.49 0 0 91.42 30.48 0 0 60.97 30.45 0 0 121.87 30.49 0 0 91.42 30.48 0 0 91.42 30.45 0 0 60.97 30.49 0 0 91.42 30.48 0 0 91.42 30.45 0 0 91.42 30.49 0 0 60.94 30.48 0 0 121.9 30.45 0 0 60.94 30.49 0 0 30.49 30.49 0 0 30.44 30.44 0 0 30.49 30.49 0 0 30.49 30.49 0 0 30.45 60.93 0 0 30.48 30.49 0 0 30.49 60.93 0 0 30.45 60.94 0 0 30.48 60.97 0 0 30.49 30.45 0 0 30.45 60.97 0 0 30.48 60.93 0 0 30.49 91.42 0 0 30.45 121.91 0 0 30.48 60.93 0 0 30.49 91.42 0 0 30.45 30.49 0 0 30.48 152.36 0 0 -30.48 60.93 0 0 30.48 91.42 0 0 30.49 121.91 0 0 30.45 121.9 0 0 30.48 121.87 0 0 30.49 182.84 0 0 30.45 152.4 0 0 30.48 883.71 0 0 -30.48 304.75 0 0 -30.45 213.29 0 0 -30.49 121.91 0 0 -30.48 213.32 0 0 -30.45 91.42 0 0 -30.49 152.36 0 0 -30.48 121.91 0 0 -30.45 121.87 0 0 -30.49 91.42 0 0 -30.48 121.9 0 0 -30.45 60.94 0 0 -30.49 121.9 0 0 -30.48 60.94 0 0 -30.45 60.97 0 0 -30.49 91.42 0 0 -30.48 60.93 0 0 -30.45 91.42 0 0 -30.49 60.94 0 0 -30.48 60.97 0 0 -30.45 60.94 0 0 -30.49 30.48 0 0 -30.49 60.94 0 0 -30.44 30.48 0 0 -30.49 30.45 0 0 -91.42 30.49 0 0 -91.42 30.48 0 0 -91.42 30.45 0 0 -91.42 30.49 0 0 -91.42 30.48 0 0 -91.42 30.45 0 0 -121.91 30.49 0 0 -60.93 30.48 0 0 -91.42 30.45 0 0 -152.36 30.49 0 0 -60.97 30.48 0 0 -152.36 30.45 0 0 -91.42 30.49 0 0 -121.9 30.48 0 0 -182.84 30.45 0 0 -182.84 30.49 0 0 -944.66 -30.49 0 0 -152.39 -30.45 0 0 -121.87 -30.48 0 0 -121.91 -30.49 0 0 -121.9 -30.45 0 0 -91.42 -30.48 0 0 -60.94 -30.49 0 0 -91.42 -30.45 0 0 -30.48 -30.48 0 0 -60.94 -30.49 0 0 -60.93 -30.45 0 0 -60.94 -30.48 0 0 -30.48 -30.49 0 0 -30.49 -30.45 0 0 -30.45 -30.48 0 0 -30.48 -30.49 0 0 -30.49 -30.45 0 0 -30.45 -30.48 0 0 -30.48 -60.94 0 0 -30.49 -60.97 0 0 -30.45 -60.93 0 0 -30.49 -335.2 0 0 30.49 -121.91 0 0 30.45 -121.9 0 0 30.49 -91.42 0 0 -30.49 -30.45 0 0 -91.42 121.87 0 0 -30.45 121.9 0 0 -30.49 91.42 0 0 -60.93 -60.93 0 0 -30.49 -60.97 0 0 -30.48 -30.45 0 0 -30.45 -60.97 0 0 -30.49 -60.94 0 0 -30.48 -30.48 0 0 -30.45 -60.94 0 0 -30.49 -60.93 0 0 -30.48 -60.97 0 0 -30.45 -60.94 0 0 -30.49 -60.93 0 0 -30.48 -121.91 0 0 -30.45 -213.33 0 0 30.45 -91.42 0 0 30.48 -91.42 0 0 30.49 -60.93 0 0 30.45 -60.94 0 0 30.48 -60.97 0 0 30.49 -60.93 0 0 30.45 -30.49 0 0 30.48 -60.93 0 0 30.49 -60.94 0 0 30.45 -30.48 0 0 30.48 -60.94 0 0 30.49 -60.97 0 0 30.45 -60.94 0 0 30.48 -91.42 0 0 30.49 -60.93 0 0 30.45 -91.42 0 0 30.48 -121.91 0 0 30.49 -487.59 0 0 -30.49 -91.42 0 0 -30.48 -121.87 0 0 60.97 -60.97 0 0 -60.97 -30.45 0 0 -91.42 -60.97 0 0 -30.45 -30.45 0 0 -30.49 -60.97 0 0 -30.48 -60.93 0 0 -30.45 -60.94 0 0 -30.49 -60.97 0 0 -30.48 -60.93 0 0 -30.45 -91.42 0 0 -30.49 -60.94 0 0 -30.48 -60.97 0 0 -30.45 -396.13 0 0 30.45 -60.97 0 0 30.48 -60.94 0 0 30.49 -60.93 0 0 30.45 -60.97 0 0 30.48 -60.94 0 0 30.49 -30.48 0 0 30.45 -60.94 0 0 30.48 -30.48 0 0 30.49 -30.45 0 0 30.45 -60.97 0 0 30.48 -30.45 0 0 30.49 -30.49 0 0 30.45 -60.93 0 0 30.48 -30.49 0 0 30.49 -30.49 0 0 30.45 -60.93 0 0 30.49 -30.49 0 0 30.48 60.98 0 0 -30.48 60.93 0 0 -30.49 91.42 0 0 -30.45 60.94 0 0 -30.49 457.1 0 0 30.49 91.42 0 0 30.45 60.97 0 0 30.49 60.93 0 0 30.48 60.94 0 0 30.45 60.97 0 0 30.49 60.94 0 0 30.48 30.48 0 0 30.45 60.94 0 0 30.49 60.93 0 0 30.48 60.97 0 0 30.45 91.42 0 0 30.49 60.94 0 0 30.48 91.42 0 0 30.45 121.9 0 0 30.49 60.94 0 0 30.45 91.42 0 0 30.48 91.42 0 0 30.49 91.42 0 0 30.45 60.93 0 0 30.48 60.98 0 0 30.49 91.42 0 0 30.45 30.45 0 0 30.48 121.9 0 0 -30.48 30.49 0 0 -30.45 60.93 0 0 -30.49 60.94 0 0 -30.48 60.97 0 0 -30.45 60.93 0 0 -30.49 60.94 0 0 -30.48 60.97 0 0 -30.45 60.93 0 0 -30.49 60.94 0 0 -30.45 60.97 0 0 -30.48 60.94 0 0 -30.49 60.93 0 0 -30.45 91.42 0 0 -30.48 60.97 0 0 -30.49 60.94 0 0 -30.45 91.42 0 0 -30.48 60.93 0 0 -30.49 91.42 0 0 -30.45 91.42 0 0 -30.48 60.97 0 0 -30.49 487.56 0 0 30.49 121.9 0 0 30.48 60.94 0 0 30.45 60.97 0 0 30.49 60.93 0 0 30.48 60.94 0 0 30.45 30.48 0 0 30.49 30.49 0 0 30.48 30.45 0 0 30.45 30.48 0 0 30.49 30.49 0 0 30.48 30.45 0 0 30.45 30.48 0 0 30.49 30.49 0 0 30.45 30.45 0 0 60.97 30.48 0 0 30.45 30.49 0 0 60.97 30.45 0 0 30.45 30.48 0 0 60.97 30.49 0 0 60.93 30.45 0 0 60.94 30.49 0 0 60.97 30.48 0 0 91.42 30.45 0 0 91.42 30.49 0 0 91.42 -60.94 0 0 -30.48 -30.48 0 0 -30.49 -30.49 0 0 -60.93 -30.45 0 0 -60.94 -30.49 0 0 -60.97 -30.48 0 0 -60.94 -30.45 0 0 -60.93 -30.49 0 0 -60.97 -30.48 0 0 -60.94 -30.45 0 0 -30.48 -30.49 0 0 -60.94 -30.48 0 0 -30.48 -30.45 0 0 -30.45 -30.49 0 0 -60.97 -30.48 0 0 -30.45 -60.94 0 0 -60.94 -60.93 0 0 -30.48 -30.49 0 0 -30.49 -60.93 0 0 -30.45 -60.97 0 0 -30.48 -60.94 0 0 -30.49 -60.93 0 0 -30.45 -121.91 0 0 -30.48 -335.2 0 0 30.48 -91.42 0 0 30.45 -91.42 0 0 30.49 -60.97 0 0 30.48 -91.42 0 0 30.45 -60.93 0 0 30.49 -60.94 0 0 30.48 -91.42 0 0 30.45 -60.97 0 0 30.49 -91.42 0 0 30.45 -60.93 0 0 30.48 -60.94 0 0 30.49 -60.97 0 0 30.45 -60.94 0 0 30.48 -60.93 0 0 30.49 -60.97 0 0 30.45 -60.94 0 0 30.48 -60.93 0 0 30.49 -60.97 0 0 30.45 -30.45 0 0 30.48 -60.97 0 0 30.49 -30.45 0 0 30.45 -30.49 0 0 121.9 -30.48 0 0 182.85 -30.45 0 0 152.35 -30.49 0 0 274.26 -30.48 0 0 304.75 -30.45 0 0 -30.49 -30.49 0 0 -761.81 30.49 0 0 -91.42 30.45 0 0 -121.91 30.48 0 0 -60.93 -60.93 0 0 -30.49 -60.97 0 0 -30.48 -91.43 0 0 -30.45 -60.93 0 0 -30.49 -91.42 0 0 -30.48 -91.42 0 0 -30.45 -91.42 0 0 -30.49 -60.94 0 0 -30.48 -91.42 0 0 -30.45 -91.42 0 0 -30.49 -91.42 0 0 -30.48 -60.97 0 0 -30.45 -91.42 0 0 -30.49 -60.93 0 0 -30.45 -60.94 0 0 -30.48 -60.97 0 0 -30.49 -30.45 0 0 -30.45 -60.97 0 0 -30.48 -60.94 0 0 -30.49 -60.93 0 0 -30.45 -60.97 0 0 -30.48 -60.94 0 0 -30.49 -91.42 0 0 -30.45 -335.19 0 0 30.45 -91.42 0 0 30.49 -91.42 0 0 30.48 -91.42 0 0 30.45 -60.98 0 0 30.49 -60.93 0 0 30.48 -30.49 0 0 30.45 -60.93 0 0 30.49 -30.49 0 0 30.48 -30.45 0 0 30.45 -30.48 0 0 30.49 -30.49 0 0 30.45 -30.45 0 0 60.97 -30.48 0 0 30.45 -30.49 0 0 60.97 -30.45 0 0 60.93 -30.48 0 0 60.94 -30.49 0 0 91.42 -30.45 0 0 91.42 -30.48 0 0 121.91 -30.49 0 0 213.32 -30.45 0 0 121.87 -30.48 0 0 208.25zm4631.95 -2310.88l60.98 0 0 30.45 121.87 0 0 30.48 60.97 0 0 30.49 30.45 0 0 30.45 60.97 0 0 30.48 60.93 0 0 30.49 30.49 0 0 30.45 60.93 0 0 30.48 30.49 0 0 30.49 60.93 0 0 30.45 30.49 0 0 30.48 60.93 0 0 30.49 30.49 0 0 30.45 60.93 0 0 30.48 60.94 0 0 30.49 91.42 0 0 30.45 91.42 0 0 30.48 91.42 0 0 30.49 91.42 0 0 30.45 60.97 0 0 30.48 30.45 0 0 30.49 60.97 0 0 30.45 30.45 0 0 30.48 30.49 0 0 30.49 30.48 0 0 30.45 30.45 0 0 30.49 30.49 0 0 30.48 30.48 0 0 30.45 30.45 0 0 60.97 30.49 0 0 30.45 30.48 0 0 60.97 30.45 0 0 30.45 30.49 0 0 60.97 30.48 0 0 60.94 30.45 0 0 60.93 30.49 0 0 91.42 30.48 0 0 91.42 30.45 0 0 91.42 30.49 0 0 121.91 30.48 0 0 152.36 30.45 0 0 121.9 30.49 0 0 274.26 30.49 0 0 578.97 -30.49 0 0 304.75 -30.49 0 0 121.91 -30.45 0 0 182.84 -30.48 0 0 91.42 -30.49 0 0 152.35 -30.45 0 0 91.42 -30.48 0 0 121.91 -30.49 0 0 91.42 -30.45 0 0 91.42 -30.48 0 0 121.87 -30.49 0 0 91.42 -30.45 0 0 60.97 -30.48 0 0 121.87 -30.49 0 0 91.42 -30.45 0 0 91.42 -30.48 0 0 60.97 -30.49 0 0 91.43 -30.45 0 0 91.42 -30.48 0 0 213.29 -30.49 0 0 213.32 -30.45 0 0 182.84 -30.48 0 0 670.43 30.48 0 0 365.68 30.45 0 0 121.87 30.49 0 0 304.75 30.48 0 0 213.33 30.45 0 0 121.87 30.49 0 0 182.84 30.48 0 0 121.9 30.45 0 0 152.36 30.49 0 0 152.39 30.48 0 0 121.87 30.45 0 0 121.91 30.49 0 0 121.9 30.48 0 0 182.84 30.45 0 0 91.42 30.49 0 0 91.42 30.48 0 0 152.36 30.45 0 0 121.91 30.49 0 0 121.87 30.48 0 0 91.42 30.45 0 0 91.42 30.49 0 0 152.35 30.49 0 0 121.91 30.44 0 0 121.9 30.49 0 0 152.36 30.49 0 0 213.33 30.45 0 0 182.84 30.48 0 0 121.87 30.49 0 0 213.32 30.45 0 0 182.84 30.48 0 0 304.75 30.49 0 0 426.62 30.45 0 0 822.78 -30.45 0 0 335.2 -30.49 0 0 121.9 -30.48 0 0 121.91 -30.45 0 0 152.36 -30.49 0 0 91.42 -30.48 0 0 60.93 -30.45 0 0 60.97 -30.49 0 0 30.45 -30.49 0 0 60.97 -30.44 0 0 30.45 -30.49 0 0 30.49 -30.49 0 0 30.48 -60.93 0 0 30.45 -30.49 0 0 30.49 -335.19 0 0 -30.49 -60.94 0 0 -30.45 -30.48 0 0 -30.48 -60.94 0 0 -30.49 -30.48 0 0 -30.45 -30.49 0 0 -30.48 -30.45 0 0 -30.49 -30.48 0 0 -30.45 -30.49 0 0 -30.48 -30.45 0 0 -30.49 -30.48 0 0 -60.93 -30.49 0 0 -30.49 -30.45 0 0 -60.93 -30.48 0 0 -30.49 -30.49 0 0 -60.93 -30.45 0 0 -60.94 -30.49 0 0 -30.48 -30.48 0 0 -60.94 -30.45 0 0 -60.97 -30.49 0 0 -60.94 -30.48 0 0 -60.93 -30.45 0 0 -91.42 -30.49 0 0 -60.97 -30.48 0 0 -91.42 -30.45 0 0 -60.94 -30.49 0 0 -91.42 -30.48 0 0 -91.42 -30.45 0 0 -91.42 -30.49 0 0 -121.91 -30.48 0 0 -60.93 -30.45 0 0 -91.42 -30.49 0 0 -152.36 -30.48 0 0 -60.97 -30.45 0 0 -121.87 -30.49 0 0 -91.42 -30.48 0 0 -121.9 -30.45 0 0 -121.91 -30.49 0 0 -91.42 -30.48 0 0 -91.42 -30.45 0 0 -152.36 -30.49 0 0 -60.93 -30.48 0 0 -121.91 -30.45 0 0 -91.42 -30.49 0 0 -121.9 -30.48 0 0 -91.42 -30.45 0 0 -60.94 -30.49 0 0 -91.42 -30.49 0 0 -60.93 -30.44 0 0 -60.97 -30.49 0 0 -60.94 -30.49 0 0 -91.42 -30.45 0 0 -60.94 -30.48 0 0 -91.42 -30.49 0 0 -60.97 -30.45 0 0 -60.93 -30.48 0 0 -60.94 -30.49 0 0 -60.97 -30.45 0 0 -60.93 -30.48 0 0 -91.42 -30.49 0 0 -60.94 -30.45 0 0 -30.48 -30.48 0 0 -91.42 -30.49 0 0 -60.94 -30.45 0 0 -60.93 -30.48 0 0 -60.97 -30.49 0 0 -60.94 -30.45 0 0 -60.93 -30.48 0 0 -60.98 -30.49 0 0 -60.93 -30.45 0 0 -30.49 -30.48 0 0 -91.42 -30.49 0 0 -30.45 -30.45 0 0 -60.97 -30.48 0 0 -60.93 -30.49 0 0 -60.94 -30.45 0 0 -30.48 -30.48 0 0 -60.94 -30.49 0 0 -60.97 -30.45 0 0 -60.93 -30.48 0 0 -30.49 -30.49 0 0 -60.93 -30.45 0 0 -60.94 -30.49 0 0 -60.97 -30.48 0 0 -30.45 -30.45 0 0 -30.48 -30.49 0 0 -30.49 -30.48 0 0 -60.94 -91.42 0 0 30.49 -30.45 0 0 30.45 -30.49 0 0 60.97 -30.48 0 0 91.42 -30.45 0 0 60.94 -30.49 0 0 91.42 -30.48 0 0 121.9 -30.45 0 0 91.42 -30.49 0 0 60.94 -30.48 0 0 182.84 -30.45 0 0 152.35 -30.49 0 0 121.91 -30.48 0 0 121.91 -30.45 0 0 182.8 -30.49 0 0 365.68 -30.48 0 0 639.95 30.48 0 0 396.16 30.49 0 0 152.36 30.45 0 0 182.84 30.48 0 0 152.39 30.49 0 0 152.36 30.45 0 0 121.9 30.48 0 0 60.94 30.49 0 0 182.84 30.45 0 0 60.93 30.48 0 0 91.42 30.49 0 0 121.91 30.45 0 0 91.42 30.48 0 0 121.91 30.49 0 0 60.93 30.45 0 0 60.94 30.48 0 0 152.39 30.49 0 0 60.93 30.45 0 0 91.42 30.48 0 0 60.94 30.49 0 0 121.9 30.45 0 0 60.94 30.48 0 0 91.42 30.49 0 0 91.42 30.45 0 0 152.39 30.49 0 0 91.42 30.48 0 0 426.62 -30.48 0 0 91.42 -30.49 0 0 60.93 -30.45 0 0 30.49 -30.49 0 0 30.49 -30.48 0 0 30.44 -30.45 0 0 30.49 -60.97 0 0 30.49 -304.71 0 0 -30.49 -91.42 0 0 -30.49 -60.97 0 0 -30.44 -60.94 0 0 -30.49 -30.48 0 0 -30.49 -60.94 0 0 -30.45 -60.93 0 0 -30.48 -30.49 0 0 -30.49 -60.93 0 0 -30.45 -30.49 0 0 -30.48 -30.49 0 0 -30.49 -30.44 0 0 -30.45 -60.98 0 0 -30.48 -30.45 0 0 -30.49 -30.48 0 0 -30.45 -30.49 0 0 -30.48 -30.45 0 0 -30.49 -30.48 0 0 -30.45 -30.49 0 0 -30.48 -30.45 0 0 -30.49 -30.48 0 0 -30.45 -30.49 0 0 -30.48 -30.45 0 0 -30.49 -30.48 0 0 -30.45 -30.49 0 0 -30.48 -30.45 0 0 -60.94 -30.48 0 0 -30.48 -30.49 0 0 -30.49 -30.45 0 0 -60.93 -30.48 0 0 -30.49 -30.49 0 0 -30.45 -30.45 0 0 -60.97 -30.48 0 0 -30.45 -30.49 0 0 -60.97 -30.45 0 0 -30.45 -30.48 0 0 -60.97 -30.49 0 0 -60.94 -30.45 0 0 -30.48 -30.48 0 0 -60.94 -30.49 0 0 -30.48 -30.45 0 0 -60.94 -30.49 0 0 -60.93 -30.48 0 0 -30.49 -30.45 0 0 -60.93 -30.49 0 0 -60.97 -30.48 0 0 -60.94 -30.45 0 0 -60.93 -30.49 0 0 -60.97 -30.48 0 0 -60.94 -30.45 0 0 -60.93 -30.49 0 0 -60.98 -30.48 0 0 -60.93 -30.45 0 0 -91.42 -30.49 0 0 -60.94 -30.48 0 0 -60.97 -30.45 0 0 -91.42 -30.49 0 0 -60.93 -30.48 0 0 -60.94 -30.45 0 0 -91.42 -30.49 0 0 -60.97 -30.48 0 0 -91.42 -30.45 0 0 -91.42 -30.49 0 0 -91.42 -30.48 0 0 -91.42 -30.45 0 0 -121.87 -30.49 0 0 -60.97 -30.48 0 0 -152.36 -30.45 0 0 -121.9 -30.49 0 0 -121.87 -30.48 0 0 -91.42 -30.45 0 0 -182.84 -30.49 0 0 -121.91 -30.49 0 0 -121.91 -30.44 0 0 -182.84 -30.49 0 0 -274.26 -30.49 0 0 -182.8 -30.45 0 0 -457.11 -30.48 0 0 -944.69 30.48 0 0 -579 30.45 0 0 -1218.92 -30.45 0 0 -304.75 -30.48 0 0 -182.84 -30.49 0 0 -182.84 -30.45 0 0 -152.35 -30.48 0 0 -91.42 -30.49 0 0 -121.91 -30.45 0 0 -121.91 -30.48 0 0 -60.93 -30.49 0 0 -91.42 -30.45 0 0 -91.42 -30.48 0 0 -60.94 -30.49 0 0 -91.42 -30.45 0 0 -91.42 -30.48 0 0 -91.42 -30.49 0 0 -60.97 -30.45 0 0 -152.35 -30.48 0 0 -91.43 -30.49 0 0 -30.48 -30.45 0 0 -121.87 -30.48 0 0 -91.42 -30.49 0 0 -121.91 -30.45 0 0 -152.35 -30.48 0 0 -152.39 -30.49 0 0 -152.36 -30.45 0 0 -182.84 -30.48 0 0 -548.52 30.48 0 0 -243.78 30.45 0 0 -243.81 30.49 0 0 -60.94 30.48 0 0 -121.9 30.45 0 0 -60.94 30.49 0 0 -91.42 30.48 0 0 -60.93 30.45 0 0 -60.97 30.49 0 0 -30.45 30.48 0 0 -60.94 30.45 0 0 -30.48 30.49 0 0 -60.94 30.48 0 0 -30.48 30.45 0 0 -60.94 30.49 0 0 -30.48 30.48 0 0 -30.49 30.45 0 0 -30.45 30.49 0 0 -30.48 30.48 0 0 -30.49 30.45 0 0 -30.45 30.49 0 0 -30.49 30.48 0 0 -30.48 30.45 0 0 -30.45 30.49 0 0 -30.49 30.48 0 0 -30.48 30.45 0 0 -30.45 60.98 0 0 -30.49 30.44 0 0 -30.48 30.49 0 0 -30.45 30.49 0 0 -30.49 60.93 0 0 -30.48 30.49 0 0 -30.45 30.45 0 0 -30.49 60.97 0 0 -30.48 30.45 0 0 -30.45 60.97 0 0 -30.49 30.45 0 0 -30.48 60.97 0 0 -30.45 60.93 0 0 -30.49 60.94 0 0 -30.48 60.97 0 0 -30.45 121.87 0 0 -30.49 365.68 0 0 30.49 91.42 0 0 30.45 91.42 0 0 30.48 30.49 0 0 30.49 91.42 0 0 30.45 60.93 0 0 30.48 30.49 0 0 30.49 60.93 0 0 30.45 60.97 0 0 30.48 60.94 0 0 30.49 30.48 0 0 30.45 60.94 0 0 30.48 60.93 0 0 30.49 91.42 0 0 30.45 60.98 0 0 30.48 121.87 0 0 30.49 365.68 0 0 -30.49 121.9 0 0 -30.48 60.94 0 0 -30.45 60.97 0 0 -30.49 60.93 0 0 -30.48 60.94 0 0 -30.45 60.97 0 0 -30.49 60.94 0 0 -30.48 60.93 0 0 -30.45 60.97 0 0 -30.49 30.45 0 0 -30.48 60.97 0 0 -30.45 60.94 0 0 -30.49 60.93 0 0 -30.48 60.97 0 0 -30.45 60.94 0 0 -30.49 60.93 0 0 -30.48 91.42 0 0 -30.45 91.42 0 0 -30.49 274.26 0 0 30.49z"/>
 </g>
</svg>
