<?xml version="1.0" encoding="UTF-8"?>
<!DOCTYPE svg PUBLIC "-//W3C//DTD SVG 1.1//EN" "http://www.w3.org/Graphics/SVG/1.1/DTD/svg11.dtd">
<!-- Creator: CorelDRAW (Versión de evaluación) -->
<svg xmlns="http://www.w3.org/2000/svg" xml:space="preserve" width="756px" height="2062px" version="1.1" style="shape-rendering:geometricPrecision; text-rendering:geometricPrecision; image-rendering:optimizeQuality; fill-rule:evenodd; clip-rule:evenodd"
viewBox="0 0 756 2062.79"
 xmlns:xlink="http://www.w3.org/1999/xlink"
 xmlns:xodm="http://www.corel.com/coreldraw/odm/2003">
 <defs>
  <style type="text/css">
   <![CDATA[
    .fil2 {fill:#4B4B4D}
    .fil0 {fill:#F2E6C9}
    .fil1 {fill:#FAFAF7}
   ]]>
  </style>
 </defs>
 <g id="fissure-crown">
  <metadata id="CorelCorpID_0Corel-Layer"/>
  <polygon id="root" class="fil0" points="467.92,418.42 475.12,418.42 475.12,425.62 478.72,425.62 478.72,432.82 482.32,432.82 482.32,443.62 485.92,443.62 485.92,465.22 489.52,465.22 489.52,587.62 485.92,587.62 485.92,710.02 489.52,710.02 489.52,760.42 493.12,760.42 493.12,807.22 496.72,807.22 496.72,828.82 500.32,828.82 500.32,854.02 503.92,854.02 503.92,886.42 507.52,886.42 507.52,908.02 511.12,908.02 511.12,951.22 507.52,951.22 507.52,958.42 503.92,958.42 503.92,969.22 500.32,969.22 500.32,976.42 496.72,976.42 496.72,983.62 493.12,983.62 493.12,990.82 489.52,990.82 489.52,1001.62 485.92,1001.62 485.92,1008.82 482.32,1008.82 482.32,1016.02 478.72,1016.02 478.72,1023.22 475.12,1023.22 475.12,1030.42 471.52,1030.42 471.52,1037.62 467.92,1037.62 467.92,1044.82 464.32,1044.82 464.32,1055.62 460.72,1055.62 460.72,1062.82 457.12,1062.82 457.12,1070.02 453.52,1070.02 453.52,1077.22 449.92,1077.22 449.92,1084.42 446.32,1084.42 446.32,1095.21 442.72,1095.21 442.72,1102.42 439.12,1102.42 439.12,1113.22 435.52,1113.22 435.52,1120.42 431.92,1120.42 431.92,1127.62 428.32,1127.62 428.32,1142.02 424.72,1142.02 424.72,1149.22 421.12,1149.22 421.12,1160.02 417.52,1160.02 417.52,1174.42 413.92,1174.42 413.92,1188.82 421.12,1188.82 421.12,1181.62 424.72,1181.62 424.72,1174.42 428.32,1174.42 428.32,1170.82 431.92,1170.82 431.92,1160.02 435.52,1160.02 435.52,1152.82 439.12,1152.82 439.12,1145.62 442.72,1145.62 442.72,1138.42 446.32,1138.42 446.32,1131.22 449.92,1131.22 449.92,1124.02 453.52,1124.02 453.52,1116.82 457.12,1116.82 457.12,1109.62 460.72,1109.62 460.72,1102.42 464.32,1102.42 464.32,1091.62 467.92,1091.62 467.92,1084.42 471.52,1084.42 471.52,1077.22 475.12,1077.22 475.12,1070.02 478.72,1070.02 478.72,1062.82 482.32,1062.82 482.32,1055.62 485.92,1055.62 485.92,1048.42 489.52,1048.42 489.52,1041.22 493.12,1041.22 493.12,1030.42 496.72,1030.42 496.72,1023.22 500.32,1023.22 500.32,1016.02 503.92,1016.02 503.92,1008.82 507.52,1008.82 507.52,1001.62 511.12,1001.62 511.12,994.42 514.72,994.42 514.72,987.22 518.32,987.22 518.32,980.02 521.92,980.02 521.92,969.22 525.52,969.22 525.52,962.02 529.12,962.02 529.12,954.82 532.72,954.82 532.72,940.42 536.32,940.42 536.32,929.62 539.92,929.62 539.92,918.82 543.52,918.82 543.52,908.02 547.12,908.02 547.12,893.62 550.72,893.62 550.72,882.82 554.32,882.82 554.32,872.02 557.92,872.02 557.92,854.02 561.52,854.02 561.52,843.22 565.12,843.22 565.12,825.22 568.72,825.22 568.72,803.62 572.32,803.62 572.32,785.62 575.92,785.62 575.92,764.02 579.52,764.02 579.52,728.02 583.12,728.02 583.12,699.22 586.72,699.22 586.72,656.02 590.32,656.02 590.32,587.62 593.92,587.62 593.92,526.42 597.52,526.42 597.52,504.82 601.12,504.82 601.12,497.62 604.72,497.62 604.72,486.82 608.32,486.82 608.32,476.02 611.92,476.02 611.92,472.42 615.52,472.42 615.52,468.82 619.12,468.82 619.12,465.22 633.52,465.22 633.52,468.82 637.12,468.82 637.12,472.42 640.72,472.42 640.72,476.02 644.32,476.02 644.32,479.62 647.92,479.62 647.92,490.42 651.52,490.42 651.52,497.62 655.12,497.62 655.12,504.82 658.72,504.82 658.72,515.62 662.32,515.62 662.32,530.02 665.92,530.02 665.92,540.82 669.52,540.82 669.52,555.22 673.12,555.22 673.12,573.22 676.72,573.22 676.72,591.22 680.32,591.22 680.32,605.62 683.92,605.62 683.92,627.22 687.52,627.22 687.52,656.02 691.12,656.02 691.12,677.62 694.72,677.62 694.72,706.42 698.32,706.42 698.32,742.42 701.92,742.42 701.92,879.22 698.32,879.22 698.32,893.62 694.72,893.62 694.72,922.42 691.12,922.42 691.12,940.42 687.52,940.42 687.52,972.82 683.92,972.82 683.92,994.42 680.32,994.42 680.32,1023.22 676.72,1023.22 676.72,1044.82 673.12,1044.82 673.12,1059.22 669.52,1059.22 669.52,1088.02 665.92,1088.02 665.92,1120.42 662.32,1120.42 662.32,1149.22 658.72,1149.22 658.72,1167.22 655.12,1167.22 655.12,1217.62 651.52,1217.62 651.52,1246.42 647.92,1246.42 647.92,1368.82 651.52,1368.82 651.52,1397.62 655.12,1397.62 655.12,1433.62 658.72,1433.62 658.72,1448.02 655.12,1448.02 655.12,1444.42 647.92,1444.42 647.92,1440.82 640.72,1440.82 640.72,1437.22 633.52,1437.22 633.52,1433.62 622.72,1433.62 622.72,1430.02 615.52,1430.02 615.52,1426.42 604.72,1426.42 604.72,1422.82 593.92,1422.82 593.92,1419.22 579.52,1419.22 579.52,1415.62 575.92,1415.62 575.92,1412.02 557.92,1412.02 557.92,1408.42 539.92,1408.42 539.92,1404.82 518.32,1404.82 518.32,1401.22 496.72,1401.22 496.72,1397.62 475.12,1397.62 475.12,1394.02 327.52,1394.02 327.52,1397.62 298.72,1397.62 298.72,1401.22 277.12,1401.22 277.12,1404.82 262.72,1404.82 262.72,1408.42 248.32,1408.42 248.32,1412.02 230.32,1412.02 230.32,1415.62 219.52,1415.62 219.52,1419.22 212.32,1419.22 212.32,1422.82 197.92,1422.82 197.92,1426.42 190.72,1426.42 190.72,1430.02 179.92,1430.02 179.92,1433.62 169.12,1433.62 169.12,1437.22 161.92,1437.22 161.92,1440.82 151.12,1440.82 151.12,1444.42 143.92,1444.42 143.92,1448.02 136.72,1448.02 136.72,1451.62 129.52,1451.62 129.52,1455.22 122.32,1455.22 122.32,1458.82 115.12,1458.82 115.12,1462.42 107.92,1462.42 107.92,1466.02 100.72,1466.02 100.72,1469.62 93.52,1469.62 93.52,1473.21 89.92,1473.21 89.92,1455.22 93.52,1455.22 93.52,1340.02 89.92,1340.02 89.92,1286.02 86.32,1286.02 86.32,1253.62 82.72,1253.62 82.72,1232.02 79.12,1232.02 79.12,1199.62 75.52,1199.62 75.52,1163.62 71.92,1163.62 71.92,1142.02 68.32,1142.02 68.32,1005.22 71.92,1005.22 71.92,958.42 75.52,958.42 75.52,940.42 79.12,940.42 79.12,918.82 82.72,918.82 82.72,897.22 86.32,897.22 86.32,872.02 89.92,872.02 89.92,861.22 93.52,861.22 93.52,846.82 97.12,846.82 97.12,828.82 100.72,828.82 100.72,814.42 104.32,814.42 104.32,800.02 107.92,800.02 107.92,785.62 111.52,785.62 111.52,771.22 115.12,771.22 115.12,756.82 118.72,756.82 118.72,746.02 122.32,746.02 122.32,735.22 125.92,735.22 125.92,728.02 129.52,728.02 129.52,710.02 133.12,710.02 133.12,702.82 136.72,702.82 136.72,692.02 140.32,692.02 140.32,684.82 143.92,684.82 143.92,670.42 147.52,670.42 147.52,663.22 151.12,663.22 151.12,652.42 154.72,652.42 154.72,641.62 158.32,641.62 158.32,634.42 161.92,634.42 161.92,623.62 165.52,623.62 165.52,616.42 169.12,616.42 169.12,609.22 172.72,609.22 172.72,602.02 176.32,602.02 176.32,594.82 179.92,594.82 179.92,587.62 183.52,587.62 183.52,576.82 187.12,576.82 187.12,573.22 190.72,573.22 190.72,566.02 194.32,566.02 194.32,558.82 197.92,558.82 197.92,555.22 201.52,555.22 201.52,548.02 205.12,548.02 205.12,544.42 208.72,544.42 208.72,537.22 212.32,537.22 212.32,533.62 215.92,533.62 215.92,530.02 219.52,530.02 219.52,526.42 223.12,526.42 223.12,522.82 226.72,522.82 226.72,519.22 230.32,519.22 230.32,515.62 233.92,515.62 233.92,512.02 241.12,512.02 241.12,508.42 251.92,508.42 251.92,512.02 255.52,512.02 255.52,515.62 259.12,515.62 259.12,533.62 262.72,533.62 262.72,602.02 259.12,602.02 259.12,645.22 255.52,645.22 255.52,706.42 251.92,706.42 251.92,836.02 255.52,836.02 255.52,872.02 259.12,872.02 259.12,904.42 262.72,904.42 262.72,918.82 266.32,918.82 266.32,944.02 269.92,944.02 269.92,965.62 273.52,965.62 273.52,980.02 277.12,980.02 277.12,994.42 280.72,994.42 280.72,1005.22 284.32,1005.22 284.32,1023.22 287.92,1023.22 287.92,1034.02 291.52,1034.02 291.52,1044.82 295.12,1044.82 295.12,1059.22 298.72,1059.22 298.72,1073.62 302.32,1073.62 302.32,1088.02 305.92,1088.02 305.92,1095.21 309.52,1095.21 309.52,1109.62 313.12,1109.62 313.12,1120.42 316.72,1120.42 316.72,1131.22 320.32,1131.22 320.32,1145.62 323.92,1145.62 323.92,1156.42 327.52,1156.42 327.52,1167.22 331.12,1167.22 331.12,1178.02 334.72,1178.02 334.72,1188.82 338.32,1188.82 338.32,1196.02 341.92,1196.02 341.92,1203.22 345.52,1203.22 345.52,1210.42 349.12,1210.42 349.12,1217.62 352.72,1217.62 352.72,1221.22 356.32,1221.22 356.32,1224.82 359.92,1224.82 359.92,1228.42 363.52,1228.42 363.52,1232.02 370.72,1232.02 370.72,1235.62 377.92,1235.62 377.92,1239.22 403.12,1239.22 403.12,1235.62 410.32,1235.62 410.32,1232.02 413.92,1232.02 413.92,1228.42 421.12,1228.42 421.12,1224.82 424.72,1224.82 424.72,1217.62 421.12,1217.62 421.12,1221.22 413.92,1221.22 413.92,1224.82 406.72,1224.82 406.72,1228.42 381.52,1228.42 381.52,1224.82 374.32,1224.82 374.32,1221.22 370.72,1221.22 370.72,1214.02 367.12,1214.02 367.12,1210.42 363.52,1210.42 363.52,1203.22 359.92,1203.22 359.92,1192.42 356.32,1192.42 356.32,1185.22 352.72,1185.22 352.72,1174.42 349.12,1174.42 349.12,1163.62 345.52,1163.62 345.52,1152.82 341.92,1152.82 341.92,1138.42 338.32,1138.42 338.32,1124.02 334.72,1124.02 334.72,1113.22 331.12,1113.22 331.12,1098.82 327.52,1098.82 327.52,1084.42 323.92,1084.42 323.92,1073.62 320.32,1073.62 320.32,1062.82 316.72,1062.82 316.72,1048.42 313.12,1048.42 313.12,1026.82 309.52,1026.82 309.52,1016.02 305.92,1016.02 305.92,1005.22 302.32,1005.22 302.32,990.82 298.72,990.82 298.72,976.42 295.12,976.42 295.12,958.42 291.52,958.42 291.52,947.62 287.92,947.62 287.92,922.42 291.52,922.42 291.52,904.42 295.12,904.42 295.12,890.02 298.72,890.02 298.72,872.02 302.32,872.02 302.32,857.62 305.92,857.62 305.92,836.02 309.52,836.02 309.52,818.02 313.12,818.02 313.12,800.02 316.72,800.02 316.72,785.62 320.32,785.62 320.32,771.22 323.92,771.22 323.92,760.42 327.52,760.42 327.52,746.02 331.12,746.02 331.12,735.22 334.72,735.22 334.72,720.82 338.32,720.82 338.32,702.82 341.92,702.82 341.92,692.02 345.52,692.02 345.52,677.62 349.12,677.62 349.12,663.22 352.72,663.22 352.72,648.82 356.32,648.82 356.32,634.42 359.92,634.42 359.92,627.22 363.52,627.22 363.52,612.82 367.12,612.82 367.12,598.42 370.72,598.42 370.72,587.62 374.32,587.62 374.32,576.82 377.92,576.82 377.92,562.42 381.52,562.42 381.52,555.22 385.12,555.22 385.12,540.82 388.72,540.82 388.72,530.02 392.32,530.02 392.32,522.82 395.92,522.82 395.92,512.02 399.52,512.02 399.52,501.22 403.12,501.22 403.12,494.02 406.72,494.02 406.72,483.22 410.32,483.22 410.32,476.02 413.92,476.02 413.92,468.82 417.52,468.82 417.52,461.62 421.12,461.62 421.12,454.42 424.72,454.42 424.72,447.22 428.32,447.22 428.32,443.62 431.92,443.62 431.92,436.42 435.52,436.42 435.52,432.82 439.12,432.82 439.12,429.22 442.72,429.22 442.72,422.02 446.32,422.02 446.32,418.42 453.52,418.42 453.52,414.82 467.92,414.82 "/>
  <path id="crown" class="fil1" d="M446.32 1743.21l-7.2 0 0 28.81 -3.6 0 0 7.2 -3.6 0 0 17.99 -3.6 0 0 10.8 -3.6 0 0 7.21 -3.6 0 0 10.8 -3.6 0 0 7.2 -3.6 0 0 7.2 -3.6 0 0 7.2 -3.6 0 0 3.59 -3.6 0 0 3.61 -7.2 0 0 3.6 -7.2 0 0 3.59 -3.6 0 0 3.61 -3.6 0 0 3.6 -7.2 0 0 3.59 -3.6 0 0 3.61 -7.2 0 0 3.59 -3.6 0 0 3.6 -7.2 0 0 3.61 -7.2 0 0 3.59 -3.6 0 0 3.6 -7.2 0 0 3.61 -7.2 0 0 3.59 -7.2 0 0 3.6 -7.2 0 0 3.61 -7.2 0 0 3.59 -7.2 0 0 3.6 -10.8 0 0 3.61 -7.2 0 0 3.59 -7.2 0 0 3.6 -14.4 0 0 3.61 -10.8 0 0 3.59 -14.4 0 0 3.6 -39.6 0 0 -3.6 -10.8 0 0 -3.59 -10.8 0 0 -3.61 -7.2 0 0 -3.6 -10.8 0 0 -3.59 -3.6 0 0 -3.61 -7.2 0 0 -3.6 -3.6 0 0 -3.59 -3.6 0 0 -3.61 -7.2 0 0 -3.6 -3.6 0 0 -3.59 -3.6 0 0 -3.61 -3.6 0 0 -3.6 -3.6 0 0 -3.59 -3.6 0 0 -3.61 -3.6 0 0 -3.6 -3.6 0 0 -3.59 -3.6 0 0 -3.61 -3.6 0 0 -3.59 -3.6 0 0 -3.6 -3.6 0 0 -3.61 -3.6 0 0 3.61 -3.6 0 0 7.19 3.6 0 0 7.2 3.6 0 0 3.6 3.6 0 0 7.2 3.6 0 0 3.6 3.6 0 0 3.61 3.6 0 0 3.59 3.6 0 0 3.6 3.6 0 0 3.61 3.6 0 0 3.59 7.2 0 0 3.6 3.6 0 0 3.61 3.6 0 0 3.59 3.6 0 0 3.6 7.2 0 0 3.61 7.2 0 0 3.59 7.2 0 0 3.6 7.2 0 0 3.61 7.2 0 0 3.59 7.2 0 0 3.6 10.8 0 0 3.61 57.6 0 0 -3.61 14.4 0 0 -3.6 10.8 0 0 -3.59 10.8 0 0 -3.61 7.2 0 0 -3.6 7.2 0 0 -3.59 10.8 0 0 -3.61 7.2 0 0 -3.6 10.8 0 0 -3.59 3.6 0 0 -3.61 7.2 0 0 -3.6 7.2 0 0 -3.59 7.2 0 0 -3.61 7.2 0 0 -3.6 7.2 0 0 -3.59 3.6 0 0 -3.61 7.2 0 0 -3.6 3.6 0 0 -3.59 7.2 0 0 -3.61 3.6 0 0 -3.6 3.6 0 0 -3.59 7.2 0 0 -3.61 3.6 0 0 -3.59 7.2 0 0 32.39 -3.6 0 0 14.4 -3.6 0 0 7.2 -3.6 0 0 10.8 7.2 0 0 -3.59 3.6 0 0 -3.61 3.6 0 0 -7.19 3.6 0 0 -10.8 3.6 0 0 -43.2 3.6 0 0 3.6 10.8 0 0 3.59 10.8 0 0 3.61 7.2 0 0 3.59 10.8 0 0 3.6 7.2 0 0 3.61 7.2 0 0 3.59 10.8 0 0 3.6 7.2 0 0 3.61 10.8 0 0 3.59 10.8 0 0 3.6 10.8 0 0 3.61 10.8 0 0 3.59 18 0 0 3.6 28.8 0 0 -3.6 10.8 0 0 -3.59 7.2 0 0 -3.61 3.6 0 0 -3.6 7.2 0 0 -3.59 3.6 0 0 -3.61 3.6 0 0 -3.6 3.6 0 0 -3.59 3.6 0 0 -3.61 3.6 0 0 -3.6 3.6 0 0 -3.59 3.6 0 0 -3.61 3.6 0 0 -7.19 3.6 0 0 -3.61 3.6 0 0 -7.19 3.6 0 0 -3.61 3.6 0 0 -7.19 3.6 0 0 -7.2 3.6 0 0 -7.2 3.6 0 0 -7.2 3.6 0 0 -10.8 3.6 0 0 -28.8 -7.2 0 0 10.8 -3.6 0 0 10.8 -3.6 0 0 7.2 -3.6 0 0 7.2 -3.6 0 0 10.8 -3.6 0 0 3.6 -3.6 0 0 7.2 -3.6 0 0 3.6 -3.6 0 0 7.19 -3.6 0 0 3.61 -3.6 0 0 7.19 -3.6 0 0 3.61 -3.6 0 0 3.6 -3.6 0 0 3.59 -3.6 0 0 3.61 -3.6 0 0 3.59 -3.6 0 0 3.6 -3.6 0 0 3.61 -3.6 0 0 3.59 -7.2 0 0 3.6 -7.2 0 0 3.61 -10.8 0 0 3.59 -18 0 0 -3.59 -14.4 0 0 -3.61 -7.2 0 0 -3.6 -14.4 0 0 -3.59 -7.2 0 0 -3.61 -10.8 0 0 -3.6 -10.8 0 0 -3.59 -7.2 0 0 -3.61 -7.2 0 0 -3.59 -10.8 0 0 -3.6 -7.2 0 0 -3.61 -7.2 0 0 -3.59 -10.8 0 0 -3.6 -14.4 0 0 -3.61 -7.2 0 0 -7.19 3.6 0 0 -7.2 3.6 0 0 -7.2 3.6 0 0 -10.8 3.6 0 0 -10.81 3.6 0 0 -17.99 3.6 0 0 -46.81zm10.8 -331.19l28.8 0 0 3.6 21.6 0 0 3.6 18 0 0 3.6 25.2 0 0 3.6 10.8 0 0 3.6 14.4 0 0 3.6 10.8 0 0 3.6 14.4 0 0 3.6 7.2 0 0 3.6 10.8 0 0 3.6 7.2 0 0 3.6 10.8 0 0 3.6 7.2 0 0 3.6 7.2 0 0 3.6 7.2 0 0 3.6 3.6 0 0 7.19 3.6 0 0 7.21 3.6 0 0 7.2 3.6 0 0 10.8 3.6 0 0 7.19 3.6 0 0 10.8 3.6 0 0 7.21 3.6 0 0 10.8 3.6 0 0 7.2 3.6 0 0 10.8 3.6 0 0 10.8 3.6 0 0 10.8 3.6 0 0 10.8 3.6 0 0 14.4 3.6 0 0 14.4 3.6 0 0 14.4 3.6 0 0 21.6 3.6 0 0 17.99 3.6 0 0 21.6 3.6 0 0 10.8 3.6 0 0 72.01 -3.6 0 0 25.19 -3.6 0 0 10.8 -3.6 0 0 14.41 -3.6 0 0 10.8 -3.6 0 0 7.2 -3.6 0 0 7.2 -3.6 0 0 7.2 -3.6 0 0 7.19 -3.6 0 0 7.21 -3.6 0 0 3.59 -3.6 0 0 7.2 -3.6 0 0 3.6 -3.6 0 0 3.61 -3.6 0 0 3.59 -3.6 0 0 7.21 -3.6 0 0 3.59 -3.6 0 0 3.6 -3.6 0 0 3.61 -3.6 0 0 3.59 -3.6 0 0 3.6 -3.6 0 0 3.61 -3.6 0 0 3.59 -7.2 0 0 3.6 -3.6 0 0 3.61 -3.6 0 0 3.59 -3.6 0 0 3.6 -3.6 0 0 3.61 -3.6 0 0 3.59 -3.6 0 0 3.6 -7.2 0 0 3.61 -3.6 0 0 3.59 -3.6 0 0 3.6 -7.2 0 0 3.61 -3.6 0 0 3.59 -7.2 0 0 3.6 -7.2 0 0 3.61 -7.2 0 0 3.59 -14.4 0 0 3.6 -18 0 0 -3.6 -18 0 0 -3.59 -10.8 0 0 -3.61 -10.8 0 0 -3.6 -7.2 0 0 -3.59 -10.8 0 0 -3.61 -7.2 0 0 -3.6 -10.8 0 0 -3.59 -7.2 0 0 -3.61 -7.2 0 0 -3.6 -18 0 0 -3.59 -10.8 0 0 -3.61 -43.2 0 0 3.61 -7.2 0 0 3.59 -14.4 0 0 3.6 -7.2 0 0 3.61 -7.2 0 0 3.59 -7.2 0 0 3.6 -7.2 0 0 3.61 -7.2 0 0 3.59 -7.2 0 0 3.6 -7.2 0 0 3.61 -7.2 0 0 3.59 -7.2 0 0 3.6 -7.2 0 0 3.61 -10.8 0 0 3.59 -7.2 0 0 3.6 -14.4 0 0 3.61 -7.2 0 0 3.59 -36 0 0 -3.59 -14.4 0 0 -3.61 -14.4 0 0 -3.6 -7.2 0 0 -3.59 -7.2 0 0 -3.61 -7.2 0 0 -3.6 -3.6 0 0 -3.59 -7.2 0 0 -3.61 -7.2 0 0 -3.6 -3.6 0 0 -3.59 -7.2 0 0 -3.61 -3.6 0 0 -3.6 -3.6 0 0 -3.59 -7.2 0 0 -3.61 -3.6 0 0 -3.6 -3.6 0 0 -3.59 -3.6 0 0 -3.61 -3.6 0 0 -3.6 -3.6 0 0 -3.59 -3.6 0 0 -3.61 -3.6 0 0 -3.6 -3.6 0 0 -3.59 -3.6 0 0 -3.61 -3.6 0 0 -7.19 -3.6 0 0 -3.61 -3.6 0 0 -3.6 -3.6 0 0 -7.2 -3.6 0 0 -3.6 -3.6 0 0 -3.59 -3.6 0 0 -7.21 -3.6 0 0 -3.59 -3.6 0 0 -7.2 -3.6 0 0 -7.21 -3.6 0 0 -7.19 -3.6 0 0 -3.61 -3.6 0 0 -10.79 -3.6 0 0 -7.2 -3.6 0 0 -10.8 -3.6 0 0 -10.8 -3.6 0 0 -14.41 -3.6 0 0 -82.79 3.6 0 0 -21.6 3.6 0 0 -21.6 3.6 0 0 -14.4 3.6 0 0 -7.2 3.6 0 0 -14.4 3.6 0 0 -18 3.6 0 0 -10.8 3.6 0 0 -14.4 3.6 0 0 -10.81 3.6 0 0 -10.8 3.6 0 0 -10.8 3.6 0 0 -10.8 3.6 0 0 -7.19 3.6 0 0 -18 3.6 0 0 -14.4 3.6 0 0 -10.8 3.6 0 0 -7.2 3.6 0 0 -3.6 7.2 0 0 -3.61 7.2 0 0 -3.59 7.2 0 0 -3.6 7.2 0 0 -3.61 7.2 0 0 -3.59 7.2 0 0 -3.6 7.2 0 0 -3.6 7.2 0 0 -3.6 7.2 0 0 -3.6 7.2 0 0 -3.6 10.8 0 0 -3.6 10.8 0 0 -3.6 10.8 0 0 -3.6 10.8 0 0 -3.6 10.8 0 0 -3.6 10.8 0 0 -3.6 10.8 0 0 -3.6 18 0 0 -3.6 14.4 0 0 -3.6 18 0 0 -3.6 21.6 0 0 -3.6 36 0 0 -3.6 111.6 0 0 3.6z"/>
  <path id="outline" class="fil2" d="M734.32 1700.01l-3.6 0 0 -10.8 -3.6 0 0 -21.6 -3.6 0 0 -17.99 -3.6 0 0 -21.6 -3.6 0 0 -14.4 -3.6 0 0 -14.4 -3.6 0 0 -14.4 -3.6 0 0 -10.8 -3.6 0 0 -10.8 -3.6 0 0 -10.8 -3.6 0 0 -10.8 -3.6 0 0 -7.2 -3.6 0 0 -10.8 -3.6 0 0 -7.21 -3.6 0 0 -10.8 -3.6 0 0 -7.2 -3.6 0 0 -10.79 -3.6 0 0 -7.2 -3.6 0 0 -7.2 -3.6 0 0 -7.2 -3.6 0 0 -3.6 -7.2 0 0 -3.6 -7.2 0 0 -3.6 -7.2 0 0 -3.6 -10.8 0 0 -3.6 -7.2 0 0 -3.6 -10.8 0 0 -3.61 -7.2 0 0 -3.59 -14.4 0 0 -3.6 -10.8 0 0 -3.6 -14.4 0 0 -3.6 -10.8 0 0 -3.6 -25.2 0 0 -3.6 -18 0 0 -3.6 -21.6 0 0 -3.6 -28.8 0 0 -3.61 -111.6 0 0 3.61 -36 0 0 3.6 -21.6 0 0 3.6 -18 0 0 3.6 -14.4 0 0 3.6 -18 0 0 3.6 -10.8 0 0 3.6 -10.8 0 0 3.6 -10.8 0 0 3.59 -10.8 0 0 3.61 -3.11 0c2.54,7.97 3.46,2.78 9.59,11.23 13.99,19.3 18.57,20.28 22.19,40.81 2.25,12.74 3.61,10.97 -2.65,20.29 5.79,10.78 3.52,10.58 16.01,13.37 1.75,4.39 0.18,6.1 2.46,10.33l10.51 2.16c0.86,4.62 -0.72,9.21 0.21,13.47 1.11,5.05 5.65,7.83 8.03,12.08 -2.73,2.09 -5.96,5.35 -8.05,7.9 0.38,3.41 1.91,5.97 1.55,8.77 -0.4,3.18 -2.11,3.38 -1.23,7.77 0.65,3.2 3.36,6.97 3.55,9.59 0.28,3.8 -2.17,2.48 -3.54,6.41 7.84,7.5 17.64,1.77 17.89,20.57 0.24,18.08 6.51,12.75 15.87,22.57 -5.03,10.42 -13.53,6.64 -3.22,28.15 2.34,4.89 7.07,12.83 5.93,17.46 -1.68,6.81 -6.28,5.15 -0.9,14.81 11.76,2.7 5.51,0.63 14.27,8.76 7.45,6.92 6.95,-0.01 9.86,14.12 2.93,14.24 0.84,15.18 1.63,18.99 1.55,7.41 6.26,8.25 12.74,12.67 0.52,4.67 -1.32,7.8 -0.01,14.45l0.97 4.87c-4.37,-8.98 -1.54,-11.24 -2.61,-18.67 -4.65,-3.29 -9.57,-3.03 -12.43,-11.1 -1.6,-4.54 -1.32,-12.73 -2.5,-18.76 -2.66,-13.67 -2.89,-7.61 -9.66,-13.46 -7.03,-6.09 -3.67,-6.72 -14.47,-7.07 -13.63,-25.8 5.4,-9.94 -6.46,-33.35 -8.49,-16.78 -10.42,-15.61 -3.43,-30.62 -3.63,-3.68 -7.21,-4.79 -11.26,-10.44 -4.96,-6.93 2.44,-17.73 -7.63,-21.24 -3.65,-1.27 -3.36,-1.22 -6.66,-3.28 -4.76,-2.96 -8.51,-5.13 -12.72,-8.29l7.52 -10.26c-1.13,-4.1 -3.25,-5.84 -3.47,-9.7 -0.2,-3.49 1.9,-4.5 1.48,-8.1 -1.2,-10.34 -7.9,-7.59 1.32,-16.3 -3.24,-5.89 -2.6,-5.53 -4.01,-11.68 -4.02,0.1 -6.69,-0.83 -10.26,-0.9l-1.44 -10.92c-15.95,-3.74 -5.19,-1.4 -14.99,-15.47 -2.85,-4.07 -6.07,-6.37 -8.26,-10.49 4.99,-7.25 8.29,-11.65 7,-17.8 -3.58,-17.19 -8.52,-11.71 -12.06,-18.81 -4.56,-9.15 2.33,-4.98 -9.15,-13.16 -11.31,-8.06 -11.65,-10.35 -13.29,-18.13l-2.71 0 0 3.6 -10.8 0 0 3.6 -7.2 0 0 3.6 -7.19 0 0 3.6 -7.21 0 0 3.6 -7.19 0 0 3.6 -7.2 0 0 3.6 -7.21 0 0 3.6 -7.2 0 0 3.6 -7.19 0 0 3.59 -7.21 0 0 3.61 -7.2 0 0 3.6 -3.6 0 0 7.19 -3.6 0 0 10.81 -3.6 0 0 14.4 -3.6 0 0 18 -3.6 0 0 7.2 -3.6 0 0 10.79 -3.6 0 0 10.81 -3.6 0 0 10.8 -3.6 0 0 10.8 -3.6 0 0 14.4 -3.6 0 0 10.8 -3.6 0 0 18 -3.6 0 0 14.4 -3.6 0 0 7.19 -3.6 0 0 14.4 -3.6 0 0 21.61 -3.6 0 0 21.6 -3.6 0 0 82.79 3.6 0 0 14.41 3.6 0 0 10.8 3.6 0 0 10.79 3.6 0 0 7.2 3.6 0 0 10.8 3.6 0 0 3.6 3.6 0 0 7.2 3.6 0 0 7.21 3.6 0 0 7.2 3.6 0 0 3.59 3.6 0 0 7.21 3.6 0 0 3.59 3.6 0 0 3.6 3.6 0 0 7.2 3.6 0 0 3.61 3.6 0 0 3.6 3.6 0 0 7.19 3.6 0 0 3.61 3.6 0 0 3.59 3.6 0 0 3.6 3.6 0 0 3.61 3.61 0 0 3.59 3.59 0 0 3.6 3.6 0 0 3.61 3.6 0 0 3.59 3.6 0 0 3.6 3.6 0 0 3.61 7.2 0 0 3.59 3.61 0 0 3.6 3.6 0 0 3.61 7.19 0 0 3.59 3.61 0 0 3.6 7.19 0 0 3.61 7.2 0 0 3.59 3.6 0 0 3.6 7.2 0 0 3.61 7.2 0 0 3.59 7.2 0 0 3.6 14.4 0 0 3.61 14.4 0 0 3.59 36 0 0 -3.59 7.2 0 0 -3.61 14.4 0 0 -3.6 7.2 0 0 -3.59 10.8 0 0 -3.61 7.2 0 0 -3.6 7.2 0 0 -3.59 7.2 0 0 -3.61 7.2 0 0 -3.6 7.2 0 0 -3.59 7.2 0 0 -3.61 7.2 0 0 -3.6 7.2 0 0 -3.59 7.2 0 0 -3.61 7.2 0 0 -3.6 14.4 0 0 -3.59 7.2 0 0 -3.61 43.2 0 0 3.61 10.8 0 0 3.59 18 0 0 3.6 7.2 0 0 3.61 7.2 0 0 3.59 10.8 0 0 3.6 7.2 0 0 3.61 10.8 0 0 3.59 7.2 0 0 3.6 10.8 0 0 3.61 10.8 0 0 3.59 18 0 0 3.6 18 0 0 -3.6 14.4 0 0 -3.59 7.2 0 0 -3.61 7.2 0 0 -3.6 7.2 0 0 -3.59 3.6 0 0 -3.61 7.2 0 0 -3.6 3.6 0 0 -3.59 3.6 0 0 -3.61 7.2 0 0 -3.6 3.6 0 0 -3.59 3.6 0 0 -3.61 3.6 0 0 -3.6 3.6 0 0 -3.59 3.6 0 0 -3.61 3.6 0 0 -3.6 7.2 0 0 -3.59 3.6 0 0 -3.61 3.6 0 0 -3.6 3.6 0 0 -3.59 3.6 0 0 -3.6 3.6 0 0 -3.61 3.6 0 0 -3.59 3.6 0 0 -7.21 3.6 0 0 -3.59 3.6 0 0 -3.61 3.6 0 0 -3.6 3.6 0 0 -7.2 3.6 0 0 -3.59 3.6 0 0 -7.21 3.6 0 0 -7.2 3.6 0 0 -7.19 3.6 0 0 -7.21 3.6 0 0 -7.2 3.6 0 0 -10.79 3.6 0 0 -14.4 3.6 0 0 -10.81 3.6 0 0 -25.19 3.6 0 0 -72.01zm-244.8 -1234.79l-3.6 0 0 -21.6 -3.6 0 0 -10.8 -3.6 0 0 -7.2 -3.6 0 0 -7.2 -7.2 0 0 -3.6 -14.4 0 0 3.6 -7.2 0 0 3.6 -3.6 0 0 7.2 -3.6 0 0 3.6 -3.6 0 0 3.6 -3.6 0 0 7.2 -3.6 0 0 3.6 -3.6 0 0 7.2 -3.6 0 0 7.2 -3.6 0 0 7.2 -3.6 0 0 7.2 -3.6 0 0 7.2 -3.6 0 0 10.8 -3.6 0 0 7.2 -3.6 0 0 10.8 -3.6 0 0 10.8 -3.6 0 0 7.2 -3.6 0 0 10.8 -3.6 0 0 14.4 -3.6 0 0 7.2 -3.6 0 0 14.4 -3.6 0 0 10.8 -3.6 0 0 10.8 -3.6 0 0 14.4 -3.6 0 0 14.4 -3.6 0 0 7.2 -3.6 0 0 14.4 -3.6 0 0 14.4 -3.6 0 0 14.4 -3.6 0 0 14.4 -3.6 0 0 10.8 -3.6 0 0 18 -3.6 0 0 14.4 -3.6 0 0 10.8 -3.6 0 0 14.4 -3.6 0 0 10.8 -3.6 0 0 14.4 -3.6 0 0 14.4 -3.6 0 0 18 -3.6 0 0 18 -3.6 0 0 21.6 -3.6 0 0 14.4 -3.6 0 0 18 -3.6 0 0 14.4 -3.6 0 0 18 -3.6 0 0 25.2 3.6 0 0 10.8 3.6 0 0 18 3.6 0 0 14.4 3.6 0 0 14.4 3.6 0 0 10.8 3.6 0 0 10.8 3.6 0 0 21.6 3.6 0 0 14.4 3.6 0 0 10.8 3.6 0 0 10.8 3.6 0 0 14.4 3.6 0 0 14.4 3.6 0 0 10.8 3.6 0 0 14.4 3.6 0 0 14.4 3.6 0 0 10.8 3.6 0 0 10.8 3.6 0 0 10.8 3.6 0 0 7.2 3.6 0 0 10.79 3.6 0 0 7.21 3.6 0 0 3.6 3.6 0 0 7.2 3.6 0 0 3.6 7.2 0 0 3.6 25.2 0 0 -3.6 7.2 0 0 -3.6 7.2 0 0 -3.6 3.6 0 0 7.2 -3.6 0 0 3.6 -7.2 0 0 3.6 -3.6 0 0 3.6 -7.2 0 0 3.6 -25.2 0 0 -3.6 -7.2 0 0 -3.6 -7.2 0 0 -3.6 -3.6 0 0 -3.6 -3.6 0 0 -3.6 -3.6 0 0 -3.6 -3.6 0 0 -7.2 -3.6 0 0 -7.21 -3.6 0 0 -7.19 -3.6 0 0 -7.2 -3.6 0 0 -10.8 -3.6 0 0 -10.8 -3.6 0 0 -10.8 -3.6 0 0 -10.8 -3.6 0 0 -14.4 -3.6 0 0 -10.8 -3.6 0 0 -10.8 -3.6 0 0 -14.4 -3.6 0 0 -7.2 -3.6 0 0 -14.4 -3.6 0 0 -14.4 -3.6 0 0 -14.4 -3.6 0 0 -10.8 -3.6 0 0 -10.8 -3.6 0 0 -18 -3.6 0 0 -10.8 -3.6 0 0 -14.4 -3.6 0 0 -14.41 -3.6 0 0 -21.59 -3.59 0 0 -25.2 -3.61 0 0 -14.4 -3.6 0 0 -32.4 -3.6 0 0 -36 -3.6 0 0 -129.6 3.6 0 0 -61.2 3.6 0 0 -43.2 3.6 0 0 -68.4 -3.6 0 0 -18 -3.6 0 0 -3.6 -3.6 0 0 -3.6 -10.8 0 0 3.6 -7.2 0 0 3.6 -3.6 0 0 3.6 -3.6 0 0 3.6 -3.6 0 0 3.6 -3.6 0 0 3.6 -3.6 0 0 3.6 -3.6 0 0 3.6 -3.6 0 0 7.2 -3.6 0 0 3.6 -3.6 0 0 7.2 -3.6 0 0 3.6 -3.6 0 0 7.2 -3.6 0 0 7.2 -3.6 0 0 3.6 -3.6 0 0 10.8 -3.6 0 0 7.2 -3.6 0 0 7.2 -3.6 0 0 7.2 -3.6 0 0 7.2 -3.6 0 0 7.2 -3.6 0 0 10.8 -3.6 0 0 7.2 -3.6 0 0 10.8 -3.6 0 0 10.8 -3.59 0 0 7.2 -3.61 0 0 14.4 -3.6 0 0 7.2 -3.59 0 0 10.8 -3.6 0 0 7.2 -3.61 0 0 18 -3.59 0 0 7.2 -3.61 0 0 10.8 -3.6 0 0 10.8 -3.6 0 0 14.4 -3.6 0 0 14.4 -3.6 0 0 14.4 -3.59 0 0 14.4 -3.61 0 0 14.4 -3.6 0 0 18 -3.6 0 0 14.4 -3.6 0 0 10.8 -3.6 0 0 25.2 -3.6 0 0 21.6 -3.6 0 0 21.6 -3.6 0 0 18 -3.6 0 0 46.8 -3.6 0 0 136.8 3.6 0 0 21.6 3.6 0 0 36 3.6 0 0 32.4 3.6 0 0 21.6 3.6 0 0 32.4 3.6 0 0 54 3.6 0 0 115.2 -3.6 0 0 18 3.6 0 0 -3.6 7.2 0 0 -3.6 7.2 0 0 -3.6 7.2 0 0 -3.6 7.2 0 0 -3.6 7.2 0 0 -3.6 7.21 0 0 -3.6 7.19 0 0 -3.6 7.2 0 0 -3.61 10.8 0 0 -3.59 7.2 0 0 -3.6 10.8 0 0 -3.6 10.8 0 0 -3.6 7.2 0 0 -3.6 14.4 0 0 -3.6 7.2 0 0 -3.6 10.8 0 0 -3.6 18 0 0 -3.61 14.4 0 0 -3.59 14.4 0 0 -3.6 21.6 0 0 -3.6 28.8 0 0 -3.6 147.6 0 0 3.6 21.6 0 0 3.6 21.6 0 0 3.6 21.6 0 0 3.59 18 0 0 3.61 18 0 0 3.6 3.6 0 0 3.6 14.4 0 0 3.6 10.8 0 0 3.6 10.8 0 0 3.6 7.2 0 0 3.6 10.8 0 0 3.6 7.2 0 0 3.59 7.2 0 0 3.61 7.2 0 0 3.6 3.6 0 0 -14.4 -3.6 0 0 -36 -3.6 0 0 -28.8 -3.6 0 0 -122.4 3.6 0 0 -28.8 3.6 0 0 -50.4 3.6 0 0 -18.01 3.6 0 0 -28.79 3.6 0 0 -32.4 3.6 0 0 -28.8 3.6 0 0 -14.4 3.6 0 0 -21.6 3.6 0 0 -28.8 3.6 0 0 -21.6 3.6 0 0 -32.4 3.6 0 0 -18 3.6 0 0 -28.8 3.6 0 0 -14.4 3.6 0 0 -136.8 -3.6 0 0 -36 -3.6 0 0 -28.8 -3.6 0 0 -21.6 -3.6 0 0 -28.8 -3.6 0 0 -21.6 -3.6 0 0 -14.4 -3.6 0 0 -18 -3.6 0 0 -18 -3.6 0 0 -14.4 -3.6 0 0 -10.8 -3.6 0 0 -14.4 -3.6 0 0 -10.8 -3.6 0 0 -7.2 -3.6 0 0 -7.2 -3.6 0 0 -10.8 -3.6 0 0 -3.6 -3.6 0 0 -3.6 -3.6 0 0 -3.6 -3.6 0 0 -3.6 -14.4 0 0 3.6 -3.6 0 0 3.6 -3.6 0 0 3.6 -3.6 0 0 10.8 -3.6 0 0 10.8 -3.6 0 0 7.2 -3.6 0 0 21.6 -3.6 0 0 61.2 -3.6 0 0 68.4 -3.6 0 0 43.2 -3.6 0 0 28.8 -3.6 0 0 36 -3.6 0 0 21.6 -3.6 0 0 18 -3.6 0 0 21.6 -3.6 0 0 18 -3.6 0 0 10.8 -3.6 0 0 18 -3.6 0 0 10.8 -3.6 0 0 10.8 -3.6 0 0 14.4 -3.6 0 0 10.8 -3.6 0 0 10.8 -3.6 0 0 10.8 -3.6 0 0 14.4 -3.6 0 0 7.2 -3.6 0 0 7.2 -3.6 0 0 10.8 -3.6 0 0 7.2 -3.6 0 0 7.2 -3.6 0 0 7.2 -3.6 0 0 7.19 -3.6 0 0 7.21 -3.6 0 0 7.2 -3.6 0 0 7.19 -3.6 0 0 10.8 -3.6 0 0 7.21 -3.6 0 0 7.2 -3.6 0 0 7.2 -3.6 0 0 7.2 -3.6 0 0 7.2 -3.6 0 0 7.2 -3.6 0 0 7.2 -3.6 0 0 10.8 -3.6 0 0 7.2 -3.6 0 0 7.2 -3.6 0 0 7.2 -3.6 0 0 7.2 -3.6 0 0 7.2 -3.6 0 0 7.2 -3.6 0 0 7.2 -3.6 0 0 7.19 -3.6 0 0 10.81 -3.6 0 0 3.6 -3.6 0 0 7.19 -3.6 0 0 7.21 -7.2 0 0 -14.4 3.6 0 0 -14.41 3.6 0 0 -10.8 3.6 0 0 -7.19 3.6 0 0 -14.4 3.6 0 0 -7.2 3.6 0 0 -7.2 3.6 0 0 -10.8 3.6 0 0 -7.2 3.6 0 0 -10.8 3.6 0 0 -7.2 3.6 0 0 -7.2 3.6 0 0 -7.2 3.6 0 0 -7.2 3.6 0 0 -10.8 3.6 0 0 -7.2 3.6 0 0 -7.21 3.6 0 0 -7.19 3.6 0 0 -7.2 3.6 0 0 -7.21 3.6 0 0 -7.19 3.6 0 0 -10.8 3.6 0 0 -7.2 3.6 0 0 -7.2 3.6 0 0 -7.2 3.6 0 0 -10.8 3.6 0 0 -7.2 3.6 0 0 -43.2 -3.6 0 0 -21.6 -3.6 0 0 -32.4 -3.6 0 0 -25.2 -3.6 0 0 -21.6 -3.6 0 0 -46.8 -3.6 0 0 -50.4 -3.6 0 0 -122.4 3.6 0 0 -122.4zm-14.4 -68.4l7.2 0 0 3.6 3.6 0 0 3.6 3.6 0 0 3.6 3.6 0 0 7.2 3.6 0 0 3.6 3.6 0 0 10.8 3.6 0 0 7.2 3.6 0 0 14.4 3.6 0 0 126 -3.6 0 0 129.6 3.6 0 0 61.2 3.6 0 0 25.2 3.6 0 0 25.2 3.6 0 0 32.4 3.6 0 0 32.4 7.2 0 0 -18 3.6 0 0 -14.4 3.6 0 0 -14.4 3.6 0 0 -14.4 3.6 0 0 -21.6 3.6 0 0 -18 3.6 0 0 -25.2 3.6 0 0 -36 3.6 0 0 -18 3.6 0 0 -50.4 3.6 0 0 -111.6 3.6 0 0 -25.2 3.6 0 0 -21.6 3.6 0 0 -7.2 3.6 0 0 -10.8 3.6 0 0 -7.2 3.6 0 0 -7.2 3.6 0 0 -3.6 3.6 0 0 -3.6 3.6 0 0 -3.6 3.6 0 0 -3.6 3.6 0 0 -3.6 7.2 0 0 -3.6 21.6 0 0 3.6 7.2 0 0 3.6 3.6 0 0 3.6 3.6 0 0 3.6 3.6 0 0 3.6 3.6 0 0 3.6 3.6 0 0 7.2 3.6 0 0 7.2 3.6 0 0 3.6 3.6 0 0 10.8 3.6 0 0 7.2 3.6 0 0 10.8 3.6 0 0 10.8 3.6 0 0 14.4 3.6 0 0 10.8 3.6 0 0 18 3.6 0 0 10.8 3.6 0 0 21.6 3.6 0 0 18 3.6 0 0 25.2 3.6 0 0 21.6 3.6 0 0 28.8 3.6 0 0 50.4 3.6 0 0 126 -3.6 0 0 50.4 -3.6 0 0 18 -3.6 0 0 25.2 -3.6 0 0 21.6 -3.6 0 0 28.79 -3.6 0 0 18.01 -3.6 0 0 25.2 -3.6 0 0 21.6 -3.6 0 0 25.2 -3.6 0 0 21.6 -3.6 0 0 32.4 -3.6 0 0 28.79 -3.6 0 0 32.41 -3.6 0 0 57.6 -3.6 0 0 79.2 3.6 0 0 36 3.6 0 0 43.2 3.6 0 0 14.4 3.6 0 0 14.4 3.6 0 0 14.4 3.6 0 0 7.2 3.6 0 0 7.2 3.6 0 0 10.79 3.6 0 0 7.2 3.6 0 0 10.8 3.6 0 0 7.21 3.6 0 0 7.2 3.6 0 0 10.8 3.6 0 0 10.8 3.6 0 0 10.8 3.6 0 0 10.8 3.6 0 0 10.8 3.6 0 0 18 3.6 0 0 18 3.6 0 0 10.8 3.6 0 0 18 3.6 0 0 17.99 3.6 0 0 21.6 3.6 0 0 90.01 -3.6 0 0 21.6 -3.6 0 0 14.4 -3.6 0 0 10.8 -3.6 0 0 10.8 -3.6 0 0 7.2 -3.6 0 0 10.79 -3.6 0 0 3.61 -3.6 0 0 10.8 -3.6 0 0 7.2 -3.6 0 0 7.19 -3.6 0 0 3.61 -3.6 0 0 7.19 -3.6 0 0 3.61 -3.6 0 0 3.59 -3.6 0 0 3.61 -3.6 0 0 3.6 -3.6 0 0 7.19 -3.6 0 0 3.61 -3.6 0 0 3.59 -3.6 0 0 3.6 -3.6 0 0 3.61 -3.6 0 0 3.59 -3.6 0 0 3.6 -7.2 0 0 3.61 -3.6 0 0 3.59 -3.6 0 0 3.6 -3.6 0 0 3.61 -3.6 0 0 3.59 -3.6 0 0 3.6 -3.6 0 0 3.61 -3.6 0 0 3.59 -7.2 0 0 3.6 -3.6 0 0 3.61 -3.6 0 0 3.59 -7.2 0 0 3.6 -3.6 0 0 3.61 -7.2 0 0 3.59 -3.6 0 0 3.6 -7.2 0 0 3.61 -7.2 0 0 3.59 -10.8 0 0 3.6 -54 0 0 -3.6 -7.2 0 0 -3.59 -10.8 0 0 -3.61 -10.8 0 0 -3.6 -7.2 0 0 -3.59 -7.2 0 0 -3.61 -10.8 0 0 -3.6 -7.2 0 0 -3.59 -10.8 0 0 -3.61 -10.8 0 0 -3.6 -7.2 0 0 -3.59 -14.4 0 0 -3.61 -32.4 0 0 3.61 -10.8 0 0 3.59 -7.2 0 0 3.6 -7.2 0 0 3.61 -7.2 0 0 3.59 -7.2 0 0 3.6 -7.2 0 0 3.61 -7.2 0 0 3.59 -7.2 0 0 3.6 -7.2 0 0 3.61 -7.2 0 0 3.59 -7.2 0 0 3.6 -7.2 0 0 3.61 -7.2 0 0 3.59 -14.4 0 0 3.6 -14.4 0 0 3.61 -25.2 0 0 3.59 -36 0 0 -3.59 -10.8 0 0 -3.61 -10.8 0 0 -3.6 -7.2 0 0 -3.59 -10.8 0 0 -3.61 -7.2 0 0 -3.6 -3.6 0 0 -3.59 -7.2 0 0 -3.61 -3.6 0 0 -3.6 -7.19 0 0 -3.59 -3.61 0 0 -3.61 -7.2 0 0 -3.6 -3.6 0 0 -3.59 -3.6 0 0 -3.61 -3.6 0 0 -3.6 -7.19 0 0 -3.59 -3.61 0 0 -3.61 -3.6 0 0 -3.6 -3.6 0 0 -3.59 -3.6 0 0 -3.61 -3.6 0 0 -3.6 -3.6 0 0 -3.59 -3.6 0 0 -3.61 -3.6 0 0 -3.6 -3.6 0 0 -7.2 -3.6 0 0 -3.6 -3.6 0 0 -3.59 -3.6 0 0 -3.61 -3.6 0 0 -3.6 -3.6 0 0 -7.19 -3.6 0 0 -3.61 -3.6 0 0 -7.2 -3.6 0 0 -3.6 -3.6 0 0 -3.59 -3.6 0 0 -7.21 -3.6 0 0 -7.2 -3.6 0 0 -7.19 -3.6 0 0 -7.2 -3.6 0 0 -7.21 -3.6 0 0 -10.8 -3.6 0 0 -7.2 -3.6 0 0 -17.99 -3.6 0 0 -7.2 -3.6 0 0 -21.6 -3.6 0 0 -61.2 3.6 0 0 -18 3.6 0 0 -21.6 3.6 0 0 -14.41 3.6 0 0 -17.99 3.6 0 0 -10.8 3.6 0 0 -14.4 3.6 0 0 -14.4 3.6 0 0 -18 3.6 0 0 -10.8 3.6 0 0 -10.8 3.6 0 0 -7.2 3.6 0 0 -10.8 3.6 0 0 -14.4 3.6 0 0 -7.2 3.6 0 0 -14.4 3.6 0 0 -14.41 3.6 0 0 -14.39 3.6 0 0 -28.8 3.6 0 0 -21.61 3.6 0 0 -115.19 -3.6 0 0 -36.01 -3.6 0 0 -25.19 -3.6 0 0 -25.2 -3.6 0 0 -18 -3.6 0 0 -25.2 -3.6 0 0 -46.81 -3.6 0 0 -53.99 -3.6 0 0 -75.6 3.6 0 0 -25.2 3.6 0 0 -39.6 3.6 0 0 -25.2 3.6 0 0 -28.8 3.6 0 0 -14.4 3.6 0 0 -14.4 3.6 0 0 -10.8 3.6 0 0 -18 3.6 0 0 -21.6 3.6 0 0 -18 3.6 0 0 -14.4 3.6 0 0 -7.2 3.6 0 0 -18 3.6 0 0 -10.8 3.6 0 0 -10.8 3.6 0 0 -14.4 3.61 0 0 -7.2 3.59 0 0 -14.4 3.6 0 0 -14.4 3.6 0 0 -7.2 3.6 0 0 -10.8 3.6 0 0 -10.8 3.61 0 0 -7.2 3.59 0 0 -10.8 3.61 0 0 -10.8 3.6 0 0 -7.2 3.59 0 0 -10.8 3.6 0 0 -7.2 3.61 0 0 -10.8 3.59 0 0 -7.2 3.6 0 0 -7.2 3.6 0 0 -10.8 3.6 0 0 -7.2 3.6 0 0 -3.6 3.6 0 0 -7.2 3.6 0 0 -7.2 3.6 0 0 -3.6 3.6 0 0 -7.2 3.6 0 0 -3.6 3.6 0 0 -3.6 3.6 0 0 -7.2 3.6 0 0 -3.6 3.6 0 0 -3.6 3.6 0 0 -3.6 3.6 0 0 -3.6 3.6 0 0 -3.6 3.6 0 0 -3.6 3.6 0 0 -3.6 3.6 0 0 -3.6 7.2 0 0 -3.6 7.2 0 0 -3.6 25.2 0 0 3.6 7.21 0 0 3.6 3.59 0 0 3.6 3.6 0 0 7.2 3.6 0 0 7.2 3.6 0 0 18 3.6 0 0 75.6 -3.6 0 0 43.2 -3.6 0 0 43.2 -3.6 0 0 151.2 3.6 0 0 18 3.6 0 0 -14.4 3.6 0 0 -18 3.6 0 0 -14.4 3.6 0 0 -21.6 3.6 0 0 -14.4 3.6 0 0 -14.4 3.6 0 0 -14.4 3.6 0 0 -7.2 3.6 0 0 -14.4 3.6 0 0 -18 3.6 0 0 -10.8 3.6 0 0 -14.4 3.6 0 0 -14.4 3.6 0 0 -10.8 3.6 0 0 -14.4 3.6 0 0 -10.8 3.6 0 0 -14.4 3.6 0 0 -18 3.6 0 0 -10.8 3.6 0 0 -10.8 3.6 0 0 -10.8 3.6 0 0 -14.4 3.6 0 0 -10.8 3.6 0 0 -10.8 3.6 0 0 -10.8 3.6 0 0 -7.2 3.6 0 0 -10.8 3.6 0 0 -10.8 3.6 0 0 -10.8 3.6 0 0 -7.2 3.6 0 0 -7.2 3.6 0 0 -10.8 3.6 0 0 -7.2 3.6 0 0 -7.2 3.6 0 0 -3.6 3.6 0 0 -7.2 3.6 0 0 -3.6 3.6 0 0 -7.2 3.6 0 0 -3.6 3.6 0 0 -3.6 3.6 0 0 -3.6 3.6 0 0 -3.6 3.6 0 0 -3.6 3.6 0 0 -3.6 3.6 0 0 -3.6 7.2 0 0 -3.6 28.8 0 0 3.6zm-28.8 1393.2l-3.6 0 0 17.99 -3.6 0 0 10.81 -3.6 0 0 10.8 -3.6 0 0 7.2 -3.6 0 0 7.2 -3.6 0 0 7.19 7.2 0 0 3.61 14.4 0 0 3.6 10.8 0 0 3.59 7.2 0 0 3.61 7.2 0 0 3.6 10.8 0 0 3.59 7.2 0 0 3.61 7.2 0 0 3.59 10.8 0 0 3.6 10.8 0 0 3.61 7.2 0 0 3.59 14.4 0 0 3.6 7.2 0 0 3.61 14.4 0 0 3.59 18 0 0 -3.59 10.8 0 0 -3.61 7.2 0 0 -3.6 7.2 0 0 -3.59 3.6 0 0 -3.61 3.6 0 0 -3.6 3.6 0 0 -3.59 3.6 0 0 -3.61 3.6 0 0 -3.59 3.6 0 0 -3.6 3.6 0 0 -3.61 3.6 0 0 -7.19 3.6 0 0 -3.61 3.6 0 0 -7.19 3.6 0 0 -3.6 3.6 0 0 -7.2 3.6 0 0 -3.6 3.6 0 0 -10.8 3.6 0 0 -7.2 3.6 0 0 -7.2 3.6 0 0 -10.8 3.6 0 0 -10.8 7.2 0 0 28.8 -3.6 0 0 10.8 -3.6 0 0 7.2 -3.6 0 0 7.2 -3.6 0 0 7.2 -3.6 0 0 7.19 -3.6 0 0 3.61 -3.6 0 0 7.19 -3.6 0 0 3.61 -3.6 0 0 7.19 -3.6 0 0 3.61 -3.6 0 0 3.59 -3.6 0 0 3.6 -3.6 0 0 3.61 -3.6 0 0 3.59 -3.6 0 0 3.6 -3.6 0 0 3.61 -3.6 0 0 3.59 -7.2 0 0 3.6 -3.6 0 0 3.61 -7.2 0 0 3.59 -10.8 0 0 3.6 -28.8 0 0 -3.6 -18 0 0 -3.59 -10.8 0 0 -3.61 -10.8 0 0 -3.6 -10.8 0 0 -3.59 -10.8 0 0 -3.61 -7.2 0 0 -3.6 -10.8 0 0 -3.59 -7.2 0 0 -3.61 -7.2 0 0 -3.6 -10.8 0 0 -3.59 -7.2 0 0 -3.61 -10.8 0 0 -3.59 -10.8 0 0 -3.6 -3.6 0 0 43.2 -3.6 0 0 10.8 -3.6 0 0 7.19 -3.6 0 0 3.61 -3.6 0 0 3.59 -7.2 0 0 -10.8 3.6 0 0 -7.2 3.6 0 0 -14.4 3.6 0 0 -32.39 -7.2 0 0 3.59 -3.6 0 0 3.61 -7.2 0 0 3.59 -3.6 0 0 3.6 -3.6 0 0 3.61 -7.2 0 0 3.59 -3.6 0 0 3.6 -7.2 0 0 3.61 -3.6 0 0 3.59 -7.2 0 0 3.6 -7.2 0 0 3.61 -7.2 0 0 3.59 -7.2 0 0 3.6 -7.2 0 0 3.61 -3.6 0 0 3.59 -10.8 0 0 3.6 -7.2 0 0 3.61 -10.8 0 0 3.59 -7.2 0 0 3.6 -7.2 0 0 3.61 -10.8 0 0 3.59 -10.8 0 0 3.6 -14.4 0 0 3.61 -57.6 0 0 -3.61 -10.8 0 0 -3.6 -7.2 0 0 -3.59 -7.2 0 0 -3.61 -7.2 0 0 -3.6 -7.2 0 0 -3.59 -7.2 0 0 -3.61 -7.2 0 0 -3.6 -3.6 0 0 -3.59 -3.6 0 0 -3.61 -3.6 0 0 -3.6 -7.2 0 0 -3.59 -3.6 0 0 -3.61 -3.6 0 0 -3.6 -3.6 0 0 -3.59 -3.6 0 0 -3.61 -3.6 0 0 -3.6 -3.6 0 0 -7.2 -3.6 0 0 -3.6 -3.6 0 0 -7.2 -3.6 0 0 -7.19 3.6 0 0 -3.61 3.6 0 0 3.61 3.6 0 0 3.6 3.6 0 0 3.59 3.6 0 0 3.61 3.6 0 0 3.59 3.6 0 0 3.6 3.6 0 0 3.61 3.6 0 0 3.59 3.6 0 0 3.6 3.6 0 0 3.61 3.6 0 0 3.59 3.6 0 0 3.6 7.2 0 0 3.61 3.6 0 0 3.59 3.6 0 0 3.6 7.2 0 0 3.61 3.6 0 0 3.59 10.8 0 0 3.6 7.2 0 0 3.61 10.8 0 0 3.59 10.8 0 0 3.6 39.6 0 0 -3.6 14.4 0 0 -3.59 10.8 0 0 -3.61 14.4 0 0 -3.6 7.2 0 0 -3.59 7.2 0 0 -3.61 10.8 0 0 -3.6 7.2 0 0 -3.59 7.2 0 0 -3.61 7.2 0 0 -3.6 7.2 0 0 -3.59 7.2 0 0 -3.61 7.2 0 0 -3.6 3.6 0 0 -3.59 7.2 0 0 -3.61 7.2 0 0 -3.6 3.6 0 0 -3.59 7.2 0 0 -3.61 3.6 0 0 -3.59 7.2 0 0 -3.6 3.6 0 0 -3.61 3.6 0 0 -3.59 7.2 0 0 -3.6 7.2 0 0 -3.61 3.6 0 0 -3.59 3.6 0 0 -7.2 3.6 0 0 -7.2 3.6 0 0 -7.2 3.6 0 0 -10.8 3.6 0 0 -7.21 3.6 0 0 -10.8 3.6 0 0 -17.99 3.6 0 0 -7.2 3.6 0 0 -28.81 7.2 0 0 46.81z"/>
 </g>
</svg>
