<?xml version="1.0" encoding="UTF-8"?>
<!DOCTYPE svg PUBLIC "-//W3C//DTD SVG 1.1//EN" "http://www.w3.org/Graphics/SVG/1.1/DTD/svg11.dtd">
<!-- Creator: CorelDRAW (Versión OEM) -->
<svg xmlns="http://www.w3.org/2000/svg" xml:space="preserve" width="42.3578mm" height="173.699mm" version="1.1" style="shape-rendering:geometricPrecision; text-rendering:geometricPrecision; image-rendering:optimizeQuality; fill-rule:evenodd; clip-rule:evenodd"
viewBox="0 0 4235.78 17369.86"
 xmlns:xlink="http://www.w3.org/1999/xlink"
 xmlns:xodm="http://www.corel.com/coreldraw/odm/2003">
 <defs>
  <style type="text/css">
   <![CDATA[
    .fil2 {fill:#0C0C0C}
    .fil0 {fill:#EDEAE0}
    .fil1 {fill:#F2E6C9}
   ]]>
  </style>
 </defs>
 <g id="fissure-crown">
  <metadata id="CorelCorpID_0Corel-Layer"/>
  <polygon id="crown" class="fil0" points="2156.37,249.97 2247.79,249.97 2247.79,280.45 2308.72,280.45 2308.72,310.94 2369.69,310.94 2369.69,341.39 2430.63,341.39 2430.63,371.87 2461.11,371.87 2461.11,402.36 2491.56,402.36 2491.56,432.81 2552.53,432.81 2552.53,463.29 2582.98,463.29 2582.98,493.78 2643.95,493.78 2643.95,524.23 2674.4,524.23 2674.4,554.71 2704.89,554.71 2704.89,585.2 2765.82,585.2 2765.82,615.65 2796.31,615.65 2796.31,646.13 2826.79,646.13 2826.79,676.62 2887.73,676.62 2887.73,707.07 2918.21,707.07 2918.21,737.55 2948.66,737.55 2948.66,768.04 3009.63,768.04 3009.63,798.49 3040.08,798.49 3040.08,828.97 3070.57,828.97 3070.57,859.46 3131.5,859.46 3131.5,889.91 3161.99,889.91 3161.99,920.39 3192.48,920.39 3192.48,950.88 3222.93,950.88 3222.93,981.33 3283.9,981.33 3283.9,1011.81 3314.35,1011.81 3314.35,1042.3 3344.83,1042.3 3344.83,1072.75 3405.77,1072.75 3405.77,1103.24 3436.25,1103.24 3436.25,1133.72 3466.74,1133.72 3466.74,1164.17 3497.19,1164.17 3497.19,1194.66 3527.67,1194.66 3527.67,1225.14 3558.16,1225.14 3558.16,1255.59 3588.61,1255.59 3588.61,1286.08 3619.09,1286.08 3619.09,1316.56 3649.58,1316.56 3649.58,1377.5 3680.03,1377.5 3680.03,1407.98 3710.51,1407.98 3710.51,1438.43 3741,1438.43 3741,1499.37 3771.45,1499.37 3771.45,1560.34 3801.93,1560.34 3801.93,1590.79 3832.42,1590.79 3832.42,1651.76 3862.87,1651.76 3862.87,1712.69 3893.35,1712.69 3893.35,1773.63 3923.84,1773.63 3923.84,1865.05 3954.29,1865.05 3954.29,1956.47 3984.77,1956.47 3984.77,2139.31 4015.26,2139.31 4015.26,2992.58 3984.77,2992.58 3984.77,3236.36 3954.29,3236.36 3954.29,3419.2 3923.84,3419.2 3923.84,3602.04 3893.35,3602.04 3893.35,3723.94 3862.87,3723.94 3862.87,3845.85 3832.42,3845.85 3832.42,4028.69 3801.93,4028.69 3801.93,4150.56 3771.45,4150.56 3771.45,4302.95 3741,4302.95 3741,4394.37 3710.51,4394.37 3710.51,4516.24 3680.03,4516.24 3680.03,4668.63 3649.58,4668.63 3649.58,4820.99 3619.09,4820.99 3619.09,4912.41 3588.61,4912.41 3588.61,5064.76 3558.16,5064.76 3558.16,5186.67 3527.67,5186.67 3527.67,5278.09 3497.19,5278.09 3497.19,5460.93 3466.74,5460.93 3466.74,5552.35 3436.25,5552.35 3436.25,5674.26 3405.77,5674.26 3405.77,5796.13 3375.32,5796.13 3375.32,5887.55 3344.83,5887.55 3344.83,5978.97 3314.35,5978.97 3314.35,6070.39 3283.9,6070.39 3283.9,6161.81 3253.41,6161.81 3253.41,6222.78 3222.93,6222.78 3222.93,6283.72 3192.48,6283.72 3192.48,6375.14 3161.99,6375.14 3161.99,6436.07 3131.5,6436.07 3131.5,6497.04 3101.06,6497.04 3101.06,6557.98 3070.57,6557.98 3070.57,6588.46 3040.08,6588.46 3040.08,6649.4 3009.63,6649.4 3009.63,6710.33 2979.15,6710.33 2979.15,6740.82 2948.66,6740.82 2948.66,6801.75 2918.21,6801.75 2918.21,6832.24 2887.73,6832.24 2887.73,6862.72 2857.24,6862.72 2857.24,6893.17 2826.79,6893.17 2826.79,6923.66 2796.31,6923.66 2796.31,6984.59 2765.82,6984.59 2765.82,7015.08 2704.89,7015.08 2704.89,7045.57 2674.4,7045.57 2674.4,7076.01 2643.95,7076.01 2643.95,7106.5 2613.47,7106.5 2613.47,7136.99 2552.53,7136.99 2552.53,7167.44 2522.05,7167.44 2522.05,7197.92 2430.63,7197.92 2430.63,7228.41 2339.21,7228.41 2339.21,7258.86 2247.79,7258.86 2247.79,7289.34 1943.07,7289.34 1943.07,7258.86 1851.65,7258.86 1851.65,7228.41 1760.23,7228.41 1760.23,7197.92 1699.26,7197.92 1699.26,7167.44 1638.33,7167.44 1638.33,7136.99 1607.84,7136.99 1607.84,7106.5 1546.91,7106.5 1546.91,7076.01 1516.42,7076.01 1516.42,7045.57 1485.97,7045.57 1485.97,7015.08 1455.49,7015.08 1455.49,6984.59 1425,6984.59 1425,6954.15 1394.55,6954.15 1394.55,6923.66 1364.07,6923.66 1364.07,6893.17 1333.58,6893.17 1333.58,6862.72 1303.13,6862.72 1303.13,6832.24 1272.65,6832.24 1272.65,6771.3 1242.16,6771.3 1242.16,6740.82 1211.71,6740.82 1211.71,6710.33 1181.23,6710.33 1181.23,6649.4 1150.74,6649.4 1150.74,6618.91 1120.29,6618.91 1120.29,6557.98 1089.8,6557.98 1089.8,6497.04 1059.32,6497.04 1059.32,6436.07 1028.87,6436.07 1028.87,6375.14 998.38,6375.14 998.38,6314.2 967.9,6314.2 967.9,6253.23 937.45,6253.23 937.45,6192.3 906.96,6192.3 906.96,6100.88 876.48,6100.88 876.48,6009.45 846.03,6009.45 846.03,5948.52 815.54,5948.52 815.54,5857.1 785.06,5857.1 785.06,5765.68 754.61,5765.68 754.61,5674.26 724.12,5674.26 724.12,5613.29 693.64,5613.29 693.64,5460.93 663.19,5460.93 663.19,5400 632.7,5400 632.7,5247.61 602.22,5247.61 602.22,5125.74 571.77,5125.74 571.77,4973.34 541.28,4973.34 541.28,4820.99 510.8,4820.99 510.8,4729.57 480.35,4729.57 480.35,4546.73 449.86,4546.73 449.86,4363.89 419.38,4363.89 419.38,4150.56 388.93,4150.56 388.93,4089.63 358.44,4089.63 358.44,3815.36 327.96,3815.36 327.96,3663.01 297.51,3663.01 297.51,3480.17 267.02,3480.17 267.02,3236.36 236.54,3236.36 236.54,3084 206.09,3084 206.09,2748.8 175.6,2748.8 175.6,2078.38 206.09,2078.38 206.09,1926.02 236.54,1926.02 236.54,1773.63 267.02,1773.63 267.02,1682.21 297.51,1682.21 297.51,1621.27 327.96,1621.27 327.96,1529.85 358.44,1529.85 358.44,1499.37 388.93,1499.37 388.93,1438.43 419.38,1438.43 419.38,1377.5 449.86,1377.5 449.86,1347.01 480.35,1347.01 480.35,1316.56 510.8,1316.56 510.8,1286.08 541.28,1286.08 541.28,1225.14 571.77,1225.14 571.77,1194.66 602.22,1194.66 602.22,1164.17 663.19,1164.17 663.19,1133.72 693.64,1133.72 693.64,1103.24 724.12,1103.24 724.12,1072.75 754.61,1072.75 754.61,1042.3 785.06,1042.3 785.06,1011.81 815.54,1011.81 815.54,981.33 876.48,981.33 876.48,950.88 906.96,950.88 906.96,920.39 937.45,920.39 937.45,889.91 967.9,889.91 967.9,859.46 1028.87,859.46 1028.87,828.97 1059.32,828.97 1059.32,798.49 1089.8,798.49 1089.8,768.04 1120.29,768.04 1120.29,737.55 1181.23,737.55 1181.23,707.07 1211.71,707.07 1211.71,676.62 1242.16,676.62 1242.16,646.13 1272.65,646.13 1272.65,615.65 1333.58,615.65 1333.58,585.2 1364.07,585.2 1364.07,554.71 1394.55,554.71 1394.55,524.23 1425,524.23 1425,493.78 1485.97,493.78 1485.97,463.29 1516.42,463.29 1516.42,432.81 1546.91,432.81 1546.91,402.36 1607.84,402.36 1607.84,371.87 1638.33,371.87 1638.33,341.39 1668.81,341.39 1668.81,310.94 1729.75,310.94 1729.75,280.45 1790.68,280.45 1790.68,249.97 1882.1,249.97 1882.1,219.52 2156.37,219.52 "/>
  <polygon id="root" class="fil1" points="693.64,6100.88 724.12,6100.88 724.12,6161.81 754.61,6161.81 754.61,6222.78 785.06,6222.78 785.06,6314.2 815.54,6314.2 815.54,6375.14 846.03,6375.14 846.03,6436.07 876.48,6436.07 876.48,6497.04 906.96,6497.04 906.96,6557.98 937.45,6557.98 937.45,6588.46 967.9,6588.46 967.9,6649.4 998.38,6649.4 998.38,6710.33 1028.87,6710.33 1028.87,6740.82 1059.32,6740.82 1059.32,6801.75 1089.8,6801.75 1089.8,6832.24 1120.29,6832.24 1120.29,6893.17 1150.74,6893.17 1150.74,6923.66 1181.23,6923.66 1181.23,6954.15 1211.71,6954.15 1211.71,6984.59 1242.16,6984.59 1242.16,7045.57 1272.65,7045.57 1272.65,7076.01 1303.13,7076.01 1303.13,7106.5 1364.07,7106.5 1364.07,7136.99 1394.55,7136.99 1394.55,7167.44 1425,7167.44 1425,7197.92 1455.49,7197.92 1455.49,7228.41 1516.42,7228.41 1516.42,7258.86 1546.91,7258.86 1546.91,7289.34 1607.84,7289.34 1607.84,7319.83 1668.81,7319.83 1668.81,7350.28 1729.75,7350.28 1729.75,7380.76 1821.17,7380.76 1821.17,7411.25 2400.14,7411.25 2400.14,7380.76 2461.11,7380.76 2461.11,7350.28 2522.05,7350.28 2522.05,7319.83 2613.47,7319.83 2613.47,7289.34 2643.95,7289.34 2643.95,7258.86 2704.89,7258.86 2704.89,7228.41 2735.37,7228.41 2735.37,7197.92 2765.82,7197.92 2765.82,7167.44 2796.31,7167.44 2796.31,7136.99 2857.24,7136.99 2857.24,7106.5 2887.73,7106.5 2887.73,7076.01 2918.21,7076.01 2918.21,7045.57 2948.66,7045.57 2948.66,6984.59 2979.15,6984.59 2979.15,6954.15 3009.63,6954.15 3009.63,6923.66 3040.08,6923.66 3040.08,6893.17 3070.57,6893.17 3070.57,6832.24 3101.06,6832.24 3101.06,6801.75 3131.5,6801.75 3131.5,6740.82 3161.99,6740.82 3161.99,6710.33 3192.48,6710.33 3192.48,6649.4 3222.93,6649.4 3222.93,6588.46 3253.41,6588.46 3253.41,6527.49 3283.9,6527.49 3283.9,6466.56 3314.35,6466.56 3314.35,6405.62 3344.83,6405.62 3344.83,6344.65 3375.32,6344.65 3375.32,6283.72 3405.77,6283.72 3405.77,6222.78 3436.25,6222.78 3436.25,6466.56 3405.77,6466.56 3405.77,7594.09 3375.32,7594.09 3375.32,8477.81 3344.83,8477.81 3344.83,9209.17 3314.35,9209.17 3314.35,9574.85 3283.9,9574.85 3283.9,9879.56 3253.41,9879.56 3253.41,10184.31 3222.93,10184.31 3222.93,10580.48 3192.48,10580.48 3192.48,10763.32 3161.99,10763.32 3161.99,10976.61 3131.5,10976.61 3131.5,11342.29 3101.06,11342.29 3101.06,11555.62 3070.57,11555.62 3070.57,11860.36 3040.08,11860.36 3040.08,11982.23 3009.63,11982.23 3009.63,12256.5 2979.15,12256.5 2979.15,12439.34 2948.66,12439.34 2948.66,12713.6 2918.21,12713.6 2918.21,12987.86 2887.73,12987.86 2887.73,13353.54 2857.24,13353.54 2857.24,13597.35 2826.79,13597.35 2826.79,14054.46 2796.31,14054.46 2796.31,14511.56 2765.82,14511.56 2765.82,16035.22 2735.37,16035.22 2735.37,16644.68 2704.89,16644.68 2704.89,16766.58 2674.4,16766.58 2674.4,16888.49 2643.95,16888.49 2643.95,16979.91 2613.47,16979.91 2613.47,17040.85 2582.98,17040.85 2582.98,17071.29 2552.53,17071.29 2552.53,17132.27 2491.56,17132.27 2491.56,17162.72 2278.27,17162.72 2278.27,17132.27 2247.79,17132.27 2247.79,17101.78 2217.34,17101.78 2217.34,17071.29 2186.85,17071.29 2186.85,17040.85 2156.37,17040.85 2156.37,17010.36 2125.92,17010.36 2125.92,16949.42 2095.43,16949.42 2095.43,16888.49 2064.94,16888.49 2064.94,16858 2034.5,16858 2034.5,16797.07 2004.01,16797.07 2004.01,16736.1 1973.52,16736.1 1973.52,16675.16 1943.07,16675.16 1943.07,16614.23 1912.59,16614.23 1912.59,16553.26 1882.1,16553.26 1882.1,16461.84 1851.65,16461.84 1851.65,16400.9 1821.17,16400.9 1821.17,16309.48 1790.68,16309.48 1790.68,16218.06 1760.23,16218.06 1760.23,16126.64 1729.75,16126.64 1729.75,16035.22 1699.26,16035.22 1699.26,15913.31 1668.81,15913.31 1668.81,15821.89 1638.33,15821.89 1638.33,15730.47 1607.84,15730.47 1607.84,15608.6 1577.39,15608.6 1577.39,15517.18 1546.91,15517.18 1546.91,15395.28 1516.42,15395.28 1516.42,15273.37 1485.97,15273.37 1485.97,15151.5 1455.49,15151.5 1455.49,14968.66 1425,14968.66 1425,14846.75 1394.55,14846.75 1394.55,14724.85 1364.07,14724.85 1364.07,14602.98 1333.58,14602.98 1333.58,14481.07 1303.13,14481.07 1303.13,14298.23 1272.65,14298.23 1272.65,14176.33 1242.16,14176.33 1242.16,13993.48 1211.71,13993.48 1211.71,13871.61 1181.23,13871.61 1181.23,13719.22 1150.74,13719.22 1150.74,13536.38 1120.29,13536.38 1120.29,13323.09 1089.8,13323.09 1089.8,13079.28 1059.32,13079.28 1059.32,12865.99 1028.87,12865.99 1028.87,12683.15 998.38,12683.15 998.38,12439.34 967.9,12439.34 967.9,12286.98 937.45,12286.98 937.45,11982.23 906.96,11982.23 906.96,11799.39 876.48,11799.39 876.48,11494.68 846.03,11494.68 846.03,11281.36 815.54,11281.36 815.54,10671.9 785.06,10671.9 785.06,9757.69 754.61,9757.69 754.61,8813 724.12,8813 724.12,7715.96 693.64,7715.96 693.64,7228.41 663.19,7228.41 663.19,6009.45 693.64,6009.45 "/>
  <path class="fil2" d="M3436.25 6222.78l-30.48 0 0 60.94 -30.45 0 0 60.93 -30.49 0 0 60.97 -30.48 0 0 60.94 -30.45 0 0 60.93 -30.49 0 0 60.97 -30.48 0 0 60.94 -30.45 0 0 60.93 -30.49 0 0 30.49 -30.49 0 0 60.93 -30.44 0 0 30.49 -30.49 0 0 60.93 -30.49 0 0 30.49 -30.45 0 0 30.49 -30.48 0 0 30.44 -30.49 0 0 60.98 -30.45 0 0 30.44 -30.48 0 0 30.49 -30.49 0 0 30.49 -60.93 0 0 30.45 -30.49 0 0 30.48 -30.45 0 0 30.49 -30.48 0 0 30.45 -60.94 0 0 30.48 -30.48 0 0 30.49 -91.42 0 0 30.45 -60.94 0 0 30.48 -60.97 0 0 30.49 -578.97 0 0 -30.49 -91.42 0 0 -30.48 -60.94 0 0 -30.45 -60.97 0 0 -30.49 -60.93 0 0 -30.48 -30.49 0 0 -30.45 -60.93 0 0 -30.49 -30.49 0 0 -30.48 -30.45 0 0 -30.45 -30.48 0 0 -30.49 -60.94 0 0 -30.49 -30.48 0 0 -30.44 -30.49 0 0 -60.98 -30.45 0 0 -30.44 -30.48 0 0 -30.49 -30.49 0 0 -30.49 -30.45 0 0 -60.93 -30.49 0 0 -30.49 -30.48 0 0 -60.93 -30.45 0 0 -30.49 -30.49 0 0 -60.93 -30.48 0 0 -60.94 -30.45 0 0 -30.48 -30.49 0 0 -60.94 -30.48 0 0 -60.97 -30.45 0 0 -60.93 -30.49 0 0 -60.94 -30.48 0 0 -91.42 -30.45 0 0 -60.97 -30.49 0 0 -60.93 -30.48 0 0 -91.43 -30.45 0 0 1218.96 30.45 0 0 487.55 30.48 0 0 1097.04 30.49 0 0 944.69 30.45 0 0 914.21 30.48 0 0 609.46 30.49 0 0 213.32 30.45 0 0 304.71 30.48 0 0 182.84 30.49 0 0 304.75 30.45 0 0 152.36 30.48 0 0 243.81 30.49 0 0 182.84 30.45 0 0 213.29 30.48 0 0 243.81 30.49 0 0 213.29 30.45 0 0 182.84 30.49 0 0 152.39 30.48 0 0 121.87 30.45 0 0 182.85 30.49 0 0 121.9 30.48 0 0 182.84 30.45 0 0 121.91 30.49 0 0 121.87 30.48 0 0 121.9 30.45 0 0 121.91 30.49 0 0 182.84 30.48 0 0 121.87 30.45 0 0 121.91 30.49 0 0 121.9 30.48 0 0 91.42 30.45 0 0 121.87 30.49 0 0 91.42 30.48 0 0 91.42 30.45 0 0 121.91 30.49 0 0 91.42 30.48 0 0 91.42 30.45 0 0 91.42 30.49 0 0 91.42 30.48 0 0 60.94 30.45 0 0 91.42 30.49 0 0 60.97 30.48 0 0 60.93 30.45 0 0 60.94 30.49 0 0 60.97 30.49 0 0 60.93 30.44 0 0 30.49 30.49 0 0 60.93 30.49 0 0 60.94 30.45 0 0 30.49 30.48 0 0 30.44 30.49 0 0 30.49 30.45 0 0 30.49 30.48 0 0 30.45 213.29 0 0 -30.45 60.97 0 0 -60.98 30.45 0 0 -30.44 30.49 0 0 -60.94 30.48 0 0 -91.42 30.45 0 0 -121.91 30.49 0 0 -121.9 30.48 0 0 -609.46 30.45 0 0 -1523.66 30.49 0 0 -457.1 30.48 0 0 -457.11 30.45 0 0 -243.81 30.49 0 0 -365.68 30.48 0 0 -274.26 30.45 0 0 -274.26 30.49 0 0 -182.84 30.48 0 0 -274.27 30.45 0 0 -121.87 30.49 0 0 -304.74 30.49 0 0 -213.33 30.44 0 0 -365.68 30.49 0 0 -213.29 30.49 0 0 -182.84 30.45 0 0 -396.17 30.48 0 0 -304.75 30.49 0 0 -304.71 30.45 0 0 -365.68 30.48 0 0 -731.36 30.49 0 0 -883.72 30.45 0 0 -1127.53 30.48 0 0 -243.78zm-214.86 -5271.9c-15.58,50.37 17.92,36.31 7.95,137.45 -26.28,266.93 4.99,309.42 -117.82,509.27 -76.16,123.94 -51.54,119.22 -173.77,150.95 -31.67,133.98 -49.33,115.27 34.97,232.09 -18.07,50.02 -43.99,52.67 -56.46,105.27l72.35 96.69c-27.24,45.29 -74.76,72.14 -98.73,114.97 -28.4,50.74 -10.84,108.03 -22.63,161.54 -38.61,-2.76 -90.06,0.55 -126.74,6.38 -22.24,31.65 -28.44,64.52 -52.38,85.51 -27.08,23.76 -43.07,12.65 -68.35,56.16 -18.49,31.81 -23.77,83.74 -41.71,107.23 -26,34.05 -36.84,4.7 -77.68,27.46 9.99,121.72 135.28,146.66 -2.98,306.79 -132.94,153.93 -40.32,155.89 -34.87,308.5 -120.2,50.08 -163.49,-45.25 -237.28,212.81 -16.78,58.67 -36.26,160.85 -80.38,191.25 -65.01,44.79 -91.29,-3.51 -118.14,118.04 78.77,110.49 41.68,46.4 54.69,180.22 11.08,113.88 58.59,51.81 -22.42,192.45 -81.66,141.77 -106.23,133.97 -127.98,172.03 -42.31,73.99 -8.9,116.15 12.64,201.68 -30.56,43.22 -69.33,55.84 -107.96,121.58l-28.28 48.27c30.27,-108.22 71.07,-106.14 117.48,-176.68 -14.56,-62.4 -58.01,-96.94 -21.77,-186.14 20.38,-50.23 83.91,-117.03 119.06,-176.63 79.58,-134.88 32.36,-85.62 19.14,-185.44 -13.72,-103.64 19.2,-83.9 -69.09,-167.52 77.91,-318.95 119.63,-43.32 194.61,-328.88 53.76,-204.69 28.84,-209.23 199.75,-283.41 -3.16,-58.03 -24.98,-94.18 -16.85,-171.9 9.99,-95.4 152.94,-131.05 94.31,-235.73 -21.27,-38.01 -19.2,-35.47 -31.63,-77.34 -17.95,-60.45 -33.28,-106.77 -45.13,-164.81l139.85 -30.2c21.12,-42.94 16.31,-73.4 43.27,-107.55 24.33,-30.8 49.59,-23.68 72.93,-57.11 67.05,-96.02 -9.9,-122.93 132.77,-127.41 16.63,-73.72 19.41,-65.91 53.45,-128.2 -34.61,-29.16 -50.13,-56.94 -79.6,-84.15l69.36 -102.64c-106.37,-150.57 -33.22,-50.59 -10.77,-242.17 6.5,-55.52 -3.49,-98.98 8.88,-150 96.07,-23.76 156.65,-36.12 191.82,-97.55 98.11,-171.38 15.67,-162.09 38.88,-248.32 29.87,-111.04 56.81,-24.57 21.17,-179.14 -34.48,-149.61 -21.31,-173.3 21.25,-247.81l0 -9.77 -30.49 0 0 -30.48 -30.45 0 0 -30.45 -60.97 0 0 -30.49 -30.45 0 0 -30.48 -30.48 0 0 -30.45 -60.94 0 0 -30.49 -30.48 0 0 -30.48 -30.49 0 0 -30.45 -60.93 0 0 -30.49 -30.49 0 0 -30.48 -30.45 0 0 -30.45 -60.97 0 0 -30.49 -30.45 0 0 -30.48 -60.97 0 0 -30.45 -30.45 0 0 -30.49 -30.48 0 0 -30.48 -60.94 0 0 -30.45 -60.97 0 0 -30.49 -60.93 0 0 -30.48 -91.42 0 0 -30.45 -274.27 0 0 30.45 -91.42 0 0 30.48 -60.93 0 0 30.49 -60.94 0 0 30.45 -30.48 0 0 30.48 -30.49 0 0 30.49 -60.93 0 0 30.45 -30.49 0 0 30.48 -30.45 0 0 30.49 -60.97 0 0 30.45 -30.45 0 0 30.48 -30.48 0 0 30.49 -30.49 0 0 30.45 -60.93 0 0 30.48 -30.49 0 0 30.49 -30.45 0 0 30.45 -30.48 0 0 30.48 -60.94 0 0 30.49 -30.49 0 0 30.45 -30.48 0 0 30.48 -30.45 0 0 30.49 -60.97 0 0 30.45 -30.45 0 0 30.48 -30.49 0 0 30.49 -30.48 0 0 30.45 -60.94 0 0 30.48 -30.48 0 0 30.49 -30.45 0 0 30.45 -30.49 0 0 30.49 -30.48 0 0 30.48 -30.45 0 0 30.45 -60.97 0 0 30.49 -30.45 0 0 30.48 -30.49 0 0 60.94 -30.48 0 0 30.48 -30.45 0 0 30.45 -30.49 0 0 30.49 -30.48 0 0 60.93 -30.45 0 0 60.94 -30.49 0 0 30.48 -30.48 0 0 91.42 -30.45 0 0 60.94 -30.49 0 0 91.42 -30.48 0 0 152.39 -30.45 0 0 152.36 -30.49 0 0 670.42 30.49 0 0 335.2 30.45 0 0 152.36 30.48 0 0 243.81 30.49 0 0 182.84 30.45 0 0 152.35 30.48 0 0 274.27 30.49 0 0 60.93 30.45 0 0 213.33 30.48 0 0 182.84 30.49 0 0 182.84 30.45 0 0 91.42 30.48 0 0 152.35 30.49 0 0 152.4 30.45 0 0 121.87 30.48 0 0 152.39 30.49 0 0 60.93 30.45 0 0 152.36 30.48 0 0 60.97 30.49 0 0 91.42 30.45 0 0 91.42 30.48 0 0 91.42 30.49 0 0 60.93 30.45 0 0 91.43 30.48 0 0 91.42 30.49 0 0 60.93 30.45 0 0 60.97 30.48 0 0 60.94 30.49 0 0 60.93 30.45 0 0 60.97 30.48 0 0 60.94 30.49 0 0 60.93 30.45 0 0 30.49 30.49 0 0 60.93 30.48 0 0 30.49 30.45 0 0 30.48 30.49 0 0 60.94 30.48 0 0 30.48 30.45 0 0 30.45 30.49 0 0 30.49 30.48 0 0 30.49 30.45 0 0 30.44 30.49 0 0 30.49 30.48 0 0 30.49 30.45 0 0 30.44 30.49 0 0 30.49 60.93 0 0 30.49 30.49 0 0 30.45 60.93 0 0 30.48 60.97 0 0 30.49 91.42 0 0 30.45 91.42 0 0 30.48 304.72 0 0 -30.48 91.42 0 0 -30.45 91.42 0 0 -30.49 91.42 0 0 -30.48 30.48 0 0 -30.45 60.94 0 0 -30.49 30.48 0 0 -30.49 30.45 0 0 -30.44 30.49 0 0 -30.49 60.93 0 0 -30.49 30.49 0 0 -60.93 30.48 0 0 -30.49 30.45 0 0 -30.45 30.49 0 0 -30.48 30.48 0 0 -30.49 30.45 0 0 -60.93 30.49 0 0 -30.49 30.48 0 0 -60.93 30.45 0 0 -60.94 30.49 0 0 -30.48 30.49 0 0 -60.94 30.44 0 0 -60.97 30.49 0 0 -60.93 30.49 0 0 -91.42 30.45 0 0 -60.94 30.48 0 0 -60.97 30.49 0 0 -91.42 30.45 0 0 -91.42 30.48 0 0 -91.42 30.49 0 0 -91.42 30.45 0 0 -121.87 30.48 0 0 -121.91 30.49 0 0 -91.42 30.45 0 0 -182.84 30.48 0 0 -91.42 30.49 0 0 -121.91 30.45 0 0 -152.35 30.48 0 0 -91.42 30.49 0 0 -152.36 30.45 0 0 -152.39 30.48 0 0 -121.87 30.49 0 0 -91.42 30.45 0 0 -152.39 30.48 0 0 -121.87 30.49 0 0 -182.84 30.45 0 0 -121.91 30.48 0 0 -121.9 30.49 0 0 -182.84 30.45 0 0 -182.84 30.48 0 0 -243.78 30.49 0 0 -853.27 -30.49 0 0 -182.84 -30.48 0 0 -91.42 -30.45 0 0 -91.42 -30.49 0 0 -60.94 -30.48 0 0 -60.93 -30.45 0 0 -60.97 -30.49 0 0 -30.45 -30.48 0 0 -60.97 -30.45 0 0 -60.94 -30.49 0 0 -30.45 -30.48 0 0 -30.48 -30.45 0 0 -60.94 -30.49 0 0 -30.48 -30.48 0 0 -30.49 -30.45 0 0 -30.45 -30.49 0 0 -30.48 -30.48 0 0 -30.49 -30.45 0 0 -30.45 -30.49 0 0 -30.48 -30.48 0 0 -30.49 -60.94 0 0 -30.45 -30.48 0 0 -30.49 -30.45 0 0 -30.48 -60.97 0 0 -30.45 -1.54 0zm-1065.02 -914.2l121.9 0 0 30.44 60.94 0 0 30.49 60.93 0 0 30.49 60.97 0 0 30.45 30.45 0 0 30.48 60.97 0 0 30.49 30.45 0 0 30.45 60.97 0 0 30.48 30.45 0 0 30.49 30.49 0 0 30.45 60.93 0 0 30.48 30.49 0 0 30.49 30.48 0 0 30.45 60.94 0 0 30.48 30.48 0 0 30.49 30.45 0 0 30.45 60.97 0 0 30.48 30.45 0 0 30.49 30.49 0 0 30.45 60.93 0 0 30.48 30.49 0 0 30.49 30.49 0 0 30.45 60.93 0 0 30.48 30.49 0 0 30.49 30.45 0 0 30.45 60.97 0 0 30.48 30.45 0 0 30.49 60.97 0 0 30.45 30.45 0 0 30.48 30.48 0 0 30.49 30.49 0 0 30.45 30.45 0 0 30.48 30.48 0 0 30.49 30.49 0 0 30.45 30.45 0 0 30.49 30.48 0 0 30.48 30.49 0 0 30.45 30.45 0 0 30.49 30.48 0 0 30.48 30.49 0 0 60.94 30.45 0 0 30.48 30.48 0 0 30.45 30.49 0 0 60.97 30.45 0 0 60.94 30.48 0 0 60.93 30.49 0 0 30.49 30.45 0 0 91.42 30.48 0 0 60.93 30.49 0 0 121.91 30.45 0 0 91.42 30.49 0 0 91.42 30.48 0 0 243.78 30.45 0 0 609.45 -30.45 0 0 243.82 -30.48 0 0 182.84 -30.49 0 0 182.84 -30.45 0 0 213.29 -30.49 0 0 152.39 -30.48 0 0 121.87 -30.45 0 0 121.91 -30.49 0 0 121.9 -30.48 0 0 182.84 -30.45 0 0 121.87 -30.49 0 0 152.39 -30.48 0 0 60.94 -30.45 0 0 182.84 -30.49 0 0 91.42 -30.48 0 0 152.36 -30.45 0 0 91.42 -30.49 0 0 182.84 -30.48 0 0 152.39 -30.45 0 0 670.39 -30.49 0 0 731.36 -30.48 0 0 1249.44 -30.45 0 0 700.88 -30.49 0 0 487.55 -30.48 0 0 304.75 -30.45 0 0 426.62 -30.49 0 0 152.39 -30.48 0 0 304.71 -30.45 0 0 304.74 -30.49 0 0 335.2 -30.48 0 0 213.33 -30.45 0 0 121.9 -30.49 0 0 304.71 -30.48 0 0 243.82 -30.45 0 0 243.77 -30.49 0 0 182.84 -30.49 0 0 274.26 -30.44 0 0 274.27 -30.49 0 0 243.77 -30.49 0 0 487.59 -30.45 0 0 426.62 -30.48 0 0 1889.38 -30.49 0 0 335.19 -30.45 0 0 213.33 -30.48 0 0 152.35 -30.49 0 0 91.42 -30.45 0 0 121.87 -30.48 0 0 60.98 -30.49 0 0 60.93 -30.45 0 0 30.49 -30.48 0 0 30.45 -30.49 0 0 30.48 -30.45 0 0 30.49 -60.97 0 0 30.45 -60.93 0 0 30.48 -243.78 0 0 -30.48 -60.93 0 0 -30.45 -60.97 0 0 -30.49 -30.45 0 0 -30.48 -30.49 0 0 -30.45 -30.49 0 0 -30.49 -30.44 0 0 -30.48 -30.49 0 0 -30.45 -30.49 0 0 -30.49 -30.45 0 0 -60.93 -30.48 0 0 -30.49 -30.49 0 0 -60.94 -30.45 0 0 -60.93 -30.48 0 0 -60.97 -30.49 0 0 -60.94 -30.45 0 0 -60.93 -30.48 0 0 -60.97 -30.49 0 0 -91.42 -30.45 0 0 -91.42 -30.48 0 0 -60.94 -30.49 0 0 -91.42 -30.45 0 0 -91.42 -30.48 0 0 -121.9 -30.49 0 0 -60.94 -30.45 0 0 -121.91 -30.48 0 0 -91.42 -30.49 0 0 -121.87 -30.45 0 0 -91.42 -30.48 0 0 -152.39 -30.49 0 0 -91.42 -30.45 0 0 -121.87 -30.48 0 0 -121.9 -30.49 0 0 -152.36 -30.45 0 0 -152.39 -30.48 0 0 -121.87 -30.49 0 0 -152.39 -30.45 0 0 -152.36 -30.49 0 0 -182.84 -30.48 0 0 -91.42 -30.45 0 0 -213.33 -30.49 0 0 -152.35 -30.48 0 0 -182.84 -30.45 0 0 -182.84 -30.49 0 0 -152.36 -30.48 0 0 -213.32 -30.45 0 0 -182.85 -30.49 0 0 -152.35 -30.48 0 0 -243.81 -30.45 0 0 -243.78 -30.49 0 0 -182.84 -30.48 0 0 -304.75 -30.45 0 0 -487.55 -30.49 0 0 -274.26 -30.48 0 0 -883.76 -30.45 0 0 -548.52 -30.49 0 0 -1523.66 -30.48 0 0 -578.97 -30.45 0 0 -1371.31 -30.49 0 0 -518.07 -30.48 0 0 -304.71 -30.45 0 0 -91.42 -30.49 0 0 -121.91 -30.48 0 0 -182.84 -30.45 0 0 -182.84 -30.49 0 0 -91.42 -30.48 0 0 -182.84 -30.45 0 0 -182.84 -30.49 0 0 -182.85 -30.49 0 0 -213.32 -30.44 0 0 -213.29 -30.49 0 0 -243.81 -30.49 0 0 -182.84 -30.45 0 0 -304.72 -30.48 0 0 -883.75 30.48 0 0 -121.87 30.45 0 0 -121.91 30.49 0 0 -121.9 30.49 0 0 -60.94 30.44 0 0 -60.93 30.49 0 0 -60.94 30.49 0 0 -60.97 30.45 0 0 -30.45 30.48 0 0 -60.97 30.49 0 0 -30.45 30.45 0 0 -60.97 30.48 0 0 -30.45 30.49 0 0 -30.48 30.45 0 0 -30.49 60.97 0 0 -60.94 60.93 0 0 -30.48 30.49 0 0 -30.45 30.45 0 0 -30.49 30.48 0 0 -30.48 30.49 0 0 -30.45 60.93 0 0 -30.49 30.49 0 0 -30.48 30.45 0 0 -30.45 30.48 0 0 -30.49 60.94 0 0 -30.48 30.48 0 0 -30.45 30.49 0 0 -30.49 30.45 0 0 -30.48 60.97 0 0 -30.45 30.45 0 0 -30.49 30.48 0 0 -30.48 30.49 0 0 -30.45 30.45 0 0 -30.49 60.97 0 0 -30.48 30.45 0 0 -30.45 30.49 0 0 -30.49 30.48 0 0 -30.48 60.94 0 0 -30.45 30.48 0 0 -30.49 30.45 0 0 -30.48 30.49 0 0 -30.45 60.93 0 0 -30.49 60.97 0 0 -30.48 30.45 0 0 -30.45 60.97 0 0 -30.49 60.94 0 0 -30.49 60.93 0 0 -30.44 121.91 0 0 -30.49 243.78 0 0 30.49z"/>
 </g>
</svg>
