<?xml version="1.0" encoding="UTF-8"?>
<!DOCTYPE svg PUBLIC "-//W3C//DTD SVG 1.1//EN" "http://www.w3.org/Graphics/SVG/1.1/DTD/svg11.dtd">
<!-- Creator: CorelDRAW (Versión de evaluación) -->
<svg xmlns="http://www.w3.org/2000/svg" xml:space="preserve" width="561px" height="2062px" version="1.1" style="shape-rendering:geometricPrecision; text-rendering:geometricPrecision; image-rendering:optimizeQuality; fill-rule:evenodd; clip-rule:evenodd"
viewBox="0 0 561 2060.59"
 xmlns:xlink="http://www.w3.org/1999/xlink"
 xmlns:xodm="http://www.corel.com/coreldraw/odm/2003">
 <defs>
  <style type="text/css">
   <![CDATA[
    .fil2 {fill:#4B4B4D}
    .fil1 {fill:#F2E6C9}
    .fil0 {fill:#FAFAF7}
   ]]>
  </style>
 </defs>
 <g id="fissure-crown">
  <metadata id="CorelCorpID_0Corel-Layer"/>
  <polygon id="crown" class="fil0" points="319.8,1231.1 330.59,1231.1 330.59,1234.69 341.38,1234.69 341.38,1238.29 348.57,1238.29 348.57,1241.89 355.76,1241.89 355.76,1245.48 359.36,1245.48 359.36,1249.08 366.55,1249.08 366.55,1252.68 370.14,1252.68 370.14,1256.27 377.34,1256.27 377.34,1259.87 380.93,1259.87 380.93,1263.46 384.53,1263.46 384.53,1267.06 388.13,1267.06 388.13,1270.66 391.72,1270.66 391.72,1274.25 395.32,1274.25 395.32,1281.44 398.92,1281.44 398.92,1285.04 402.51,1285.04 402.51,1288.63 406.11,1288.63 406.11,1292.23 409.7,1292.23 409.7,1299.42 413.3,1299.42 413.3,1303.02 416.9,1303.02 416.9,1310.21 420.49,1310.21 420.49,1313.81 424.09,1313.81 424.09,1321 427.68,1321 427.68,1324.6 431.28,1324.6 431.28,1331.79 434.88,1331.79 434.88,1338.98 438.47,1338.98 438.47,1346.17 442.07,1346.17 442.07,1353.37 445.66,1353.37 445.66,1360.56 449.26,1360.56 449.26,1367.75 452.86,1367.75 452.86,1374.94 456.45,1374.94 456.45,1385.73 460.05,1385.73 460.05,1396.52 463.65,1396.52 463.65,1410.9 467.24,1410.9 467.24,1418.1 470.84,1418.1 470.84,1432.48 474.44,1432.48 474.44,1446.87 478.03,1446.87 478.03,1461.25 481.63,1461.25 481.63,1468.44 485.22,1468.44 485.22,1486.42 488.82,1486.42 488.82,1497.21 492.42,1497.21 492.42,1511.6 496.01,1511.6 496.01,1525.98 499.61,1525.98 499.61,1540.37 503.2,1540.37 503.2,1554.75 506.8,1554.75 506.8,1569.14 510.39,1569.14 510.39,1590.71 513.99,1590.71 513.99,1612.29 517.59,1612.29 517.59,1623.08 521.18,1623.08 521.18,1644.65 524.78,1644.65 524.78,1669.83 528.38,1669.83 528.38,1691.41 531.97,1691.41 531.97,1723.77 535.57,1723.77 535.57,1756.14 539.17,1756.14 539.17,1835.25 535.57,1835.25 535.57,1878.4 531.97,1878.4 531.97,1914.37 528.38,1914.37 528.38,1928.75 524.78,1928.75 524.78,1943.13 521.18,1943.13 521.18,1950.33 517.59,1950.33 517.59,1957.52 513.99,1957.52 513.99,1961.12 510.39,1961.12 510.39,1964.71 506.8,1964.71 506.8,1968.31 503.2,1968.31 503.2,1971.91 499.61,1971.91 499.61,1975.5 492.42,1975.5 492.42,1979.1 488.82,1979.1 488.82,1982.69 478.03,1982.69 478.03,1986.29 467.24,1986.29 467.24,1989.88 452.86,1989.88 452.86,1993.48 434.88,1993.48 434.88,1997.08 409.7,1997.08 409.7,2000.67 373.74,2000.67 373.74,2004.27 323.4,2004.27 323.4,2007.86 201.13,2007.86 201.13,2004.27 132.8,2004.27 132.8,2000.67 100.43,2000.67 100.43,1997.08 64.47,1997.08 64.47,1993.48 57.28,1993.48 57.28,1989.88 50.09,1989.88 50.09,1986.29 42.9,1986.29 42.9,1982.69 39.3,1982.69 39.3,1979.1 35.7,1979.1 35.7,1971.91 32.11,1971.91 32.11,1964.71 28.51,1964.71 28.51,1953.92 24.91,1953.92 24.91,1921.56 21.32,1921.56 21.32,1770.52 24.91,1770.52 24.91,1709.38 28.51,1709.38 28.51,1673.43 32.11,1673.43 32.11,1641.06 35.7,1641.06 35.7,1623.08 39.3,1623.08 39.3,1601.5 42.9,1601.5 42.9,1587.12 46.49,1587.12 46.49,1558.35 50.09,1558.35 50.09,1547.56 53.69,1547.56 53.69,1529.58 57.28,1529.58 57.28,1518.79 60.88,1518.79 60.88,1504.4 64.47,1504.4 64.47,1486.42 68.07,1486.42 68.07,1475.64 71.66,1475.64 71.66,1464.85 75.26,1464.85 75.26,1454.06 78.86,1454.06 78.86,1443.27 82.45,1443.27 82.45,1432.48 86.05,1432.48 86.05,1421.69 89.64,1421.69 89.64,1410.9 93.24,1410.9 93.24,1400.12 96.84,1400.12 96.84,1392.93 100.43,1392.93 100.43,1382.14 104.03,1382.14 104.03,1374.94 107.63,1374.94 107.63,1367.75 111.22,1367.75 111.22,1360.56 114.82,1360.56 114.82,1353.37 118.42,1353.37 118.42,1346.17 122.01,1346.17 122.01,1338.98 125.61,1338.98 125.61,1331.79 129.2,1331.79 129.2,1328.2 132.8,1328.2 132.8,1321 136.4,1321 136.4,1317.41 139.99,1317.41 139.99,1310.21 143.59,1310.21 143.59,1306.62 147.18,1306.62 147.18,1299.42 150.78,1299.42 150.78,1295.83 154.38,1295.83 154.38,1292.23 157.97,1292.23 157.97,1288.63 161.57,1288.63 161.57,1285.04 165.16,1285.04 165.16,1281.44 168.76,1281.44 168.76,1277.85 172.36,1277.85 172.36,1270.66 175.95,1270.66 175.95,1267.06 179.55,1267.06 179.55,1263.46 186.74,1263.46 186.74,1259.87 190.34,1259.87 190.34,1256.27 193.94,1256.27 193.94,1252.68 201.13,1252.68 201.13,1249.08 204.72,1249.08 204.72,1245.48 211.92,1245.48 211.92,1241.89 219.11,1241.89 219.11,1238.29 229.89,1238.29 229.89,1234.69 237.09,1234.69 237.09,1231.1 251.47,1231.1 251.47,1227.5 319.8,1227.5 "/>
  <polygon id="root" class="fil1" points="298.22,116.29 301.82,116.29 301.82,119.89 305.41,119.89 305.41,123.48 309.01,123.48 309.01,130.67 312.61,130.67 312.61,137.87 316.2,137.87 316.2,148.65 319.8,148.65 319.8,159.44 323.4,159.44 323.4,173.83 326.99,173.83 326.99,191.81 330.59,191.81 330.59,206.19 334.19,206.19 334.19,234.96 337.78,234.96 337.78,274.52 341.38,274.52 341.38,310.48 344.97,310.48 344.97,360.83 348.57,360.83 348.57,389.6 352.16,389.6 352.16,439.94 355.76,439.94 355.76,461.52 359.36,461.52 359.36,486.69 362.95,486.69 362.95,504.67 366.55,504.67 366.55,519.06 370.14,519.06 370.14,547.83 373.74,547.83 373.74,558.62 377.34,558.62 377.34,573 380.93,573 380.93,598.18 384.53,598.18 384.53,616.16 388.13,616.16 388.13,634.14 391.72,634.14 391.72,652.12 395.32,652.12 395.32,666.5 398.92,666.5 398.92,691.68 402.51,691.68 402.51,709.65 406.11,709.65 406.11,734.83 409.7,734.83 409.7,749.22 413.3,749.22 413.3,777.98 416.9,777.98 416.9,810.35 420.49,810.35 420.49,831.92 424.09,831.92 424.09,867.89 427.68,867.89 427.68,936.21 431.28,936.21 431.28,972.18 434.88,972.18 434.88,1026.12 438.47,1026.12 438.47,1087.25 442.07,1087.25 442.07,1123.21 445.66,1123.21 445.66,1180.75 449.26,1180.75 449.26,1209.52 452.86,1209.52 452.86,1249.08 456.45,1249.08 456.45,1281.44 460.05,1281.44 460.05,1317.41 463.65,1317.41 463.65,1338.98 460.05,1338.98 460.05,1331.79 456.45,1331.79 456.45,1324.6 452.86,1324.6 452.86,1317.41 449.26,1317.41 449.26,1313.81 445.66,1313.81 445.66,1306.62 442.07,1306.62 442.07,1303.02 438.47,1303.02 438.47,1295.83 434.88,1295.83 434.88,1288.63 431.28,1288.63 431.28,1285.04 427.68,1285.04 427.68,1281.44 424.09,1281.44 424.09,1277.85 420.49,1277.85 420.49,1270.66 416.9,1270.66 416.9,1267.06 413.3,1267.06 413.3,1263.46 409.7,1263.46 409.7,1259.87 406.11,1259.87 406.11,1256.27 402.51,1256.27 402.51,1252.68 398.92,1252.68 398.92,1249.08 395.32,1249.08 395.32,1245.48 391.72,1245.48 391.72,1241.89 388.13,1241.89 388.13,1238.29 380.93,1238.29 380.93,1234.69 377.34,1234.69 377.34,1231.1 373.74,1231.1 373.74,1227.5 366.55,1227.5 366.55,1223.9 359.36,1223.9 359.36,1220.31 352.16,1220.31 352.16,1216.71 341.38,1216.71 341.38,1213.12 326.99,1213.12 326.99,1209.52 309.01,1209.52 309.01,1205.92 255.07,1205.92 255.07,1209.52 240.68,1209.52 240.68,1213.12 229.89,1213.12 229.89,1216.71 219.11,1216.71 219.11,1220.31 208.32,1220.31 208.32,1223.9 201.13,1223.9 201.13,1227.5 193.94,1227.5 193.94,1231.1 190.34,1231.1 190.34,1234.69 183.15,1234.69 183.15,1238.29 179.55,1238.29 179.55,1241.89 175.95,1241.89 175.95,1245.48 172.36,1245.48 172.36,1249.08 168.76,1249.08 168.76,1252.68 165.16,1252.68 165.16,1256.27 161.57,1256.27 161.57,1259.87 154.38,1259.87 154.38,1267.06 150.78,1267.06 150.78,1270.66 147.18,1270.66 147.18,1274.25 143.59,1274.25 143.59,1277.85 139.99,1277.85 139.99,1281.44 136.4,1281.44 136.4,1285.04 132.8,1285.04 132.8,1292.23 129.2,1292.23 129.2,1295.83 125.61,1295.83 125.61,1299.42 122.01,1299.42 122.01,1306.62 118.42,1306.62 118.42,1310.21 114.82,1310.21 114.82,1317.41 111.22,1317.41 111.22,1321 107.63,1321 107.63,1328.2 104.03,1328.2 104.03,1335.39 100.43,1335.39 100.43,1342.58 96.84,1342.58 96.84,1349.77 93.24,1349.77 93.24,1356.96 89.64,1356.96 89.64,1360.56 86.05,1360.56 86.05,1346.17 89.64,1346.17 89.64,1310.21 93.24,1310.21 93.24,1270.66 96.84,1270.66 96.84,1238.29 100.43,1238.29 100.43,1198.73 104.03,1198.73 104.03,1155.58 107.63,1155.58 107.63,1101.64 111.22,1101.64 111.22,1065.67 114.82,1065.67 114.82,1000.94 118.42,1000.94 118.42,961.39 122.01,961.39 122.01,921.83 125.61,921.83 125.61,871.48 129.2,871.48 129.2,835.52 132.8,835.52 132.8,785.17 136.4,785.17 136.4,763.6 139.99,763.6 139.99,720.44 143.59,720.44 143.59,684.48 147.18,684.48 147.18,648.52 150.78,648.52 150.78,616.16 154.38,616.16 154.38,583.79 157.97,583.79 157.97,555.02 161.57,555.02 161.57,526.25 165.16,526.25 165.16,511.87 168.76,511.87 168.76,483.1 172.36,483.1 172.36,454.33 175.95,454.33 175.95,439.94 179.55,439.94 179.55,414.77 183.15,414.77 183.15,393.2 186.74,393.2 186.74,382.41 190.34,382.41 190.34,360.83 193.94,360.83 193.94,350.04 197.53,350.04 197.53,335.66 201.13,335.66 201.13,317.68 204.72,317.68 204.72,306.89 208.32,306.89 208.32,288.9 211.92,288.9 211.92,278.12 215.51,278.12 215.51,263.73 219.11,263.73 219.11,252.94 222.7,252.94 222.7,242.16 226.3,242.16 226.3,231.37 229.89,231.37 229.89,216.98 233.49,216.98 233.49,206.19 237.09,206.19 237.09,195.41 240.68,195.41 240.68,188.21 244.28,188.21 244.28,177.43 247.88,177.43 247.88,166.64 251.47,166.64 251.47,159.44 255.07,159.44 255.07,148.65 258.67,148.65 258.67,141.46 262.26,141.46 262.26,137.87 265.86,137.87 265.86,130.67 269.45,130.67 269.45,123.48 273.05,123.48 273.05,119.89 276.65,119.89 276.65,116.29 283.84,116.29 283.84,112.7 298.22,112.7 "/>
  <path id="outline" class="fil2" d="M539.17 1756.14l-3.6 0 0 -32.37 -3.6 0 0 -32.36 -3.59 0 0 -21.58 -3.6 0 0 -25.18 -3.6 0 0 -21.57 -3.59 0 0 -10.79 -3.6 0 0 -21.58 -3.6 0 0 -21.57 -3.59 0 0 -14.39 -3.6 0 0 -14.38 -3.59 0 0 -14.39 -3.6 0 0 -14.38 -3.59 0 0 -14.39 -3.6 0 0 -10.79 -3.6 0 0 -17.98 -3.59 0 0 -7.19 -3.6 0 0 -9.26c-7.74,25.98 -5.72,31.16 -22.28,49.05 -10.44,11.28 -7.79,11.3 -21.11,12.08 -6.03,13.23 -7.48,10.93 -1.14,24.77 -2.9,4.82 -5.64,4.56 -8.02,9.75l5.52 11.51c-3.76,4.14 -9.23,5.94 -12.6,9.89 -3.99,4.68 -3.34,10.97 -5.66,16.28 -3.95,-1.08 -9.35,-1.79 -13.27,-1.94 -2.95,2.82 -4.27,6.1 -7.18,7.78 -3.3,1.91 -4.73,0.43 -8.24,4.42 -2.57,2.92 -4.19,8.19 -6.53,10.26 -3.39,2.99 -3.91,-0.27 -8.61,1.25 -1.47,12.82 11.01,17.98 -6.61,31.74 -16.94,13.22 -7.38,15.33 -9.95,31.26 -13.49,2.72 -16.02,-8.05 -28.97,17.18 -2.94,5.74 -7.06,15.93 -12.26,18.17 -7.66,3.31 -9.39,-2.24 -14.67,9.81 5.9,13.07 3.37,5.67 1.97,19.8 -1.19,12.03 5.01,6.58 -6.28,19.49 -11.37,13.02 -13.76,11.71 -16.8,15.21 -5.9,6.79 -3.3,11.85 -2.83,21.16 -4.05,3.85 -8.33,4.36 -13.68,10.38l-3.93 4.43c5.36,-10.6 9.55,-9.55 15.81,-15.9 -0.23,-6.77 -4.02,-11.24 1.56,-19.75 3.15,-4.78 11.11,-10.4 15.97,-15.86 11.02,-12.34 5.12,-8.21 5.8,-18.83 0.7,-11.02 3.71,-8.3 -3.72,-18.78 14.62,-31.46 13.28,-2.03 26.92,-30.09 9.78,-20.11 7.29,-21.1 26.52,-25.27 0.87,-6.08 -0.65,-10.28 1.79,-18.17 3,-9.68 18.54,-10.44 14.62,-22.49 -1.43,-4.38 -1.27,-4.07 -1.69,-8.67 -0.62,-6.63 -1.26,-11.75 -1.3,-18.01l15.12 -0.25c3.07,-4.02 3.2,-7.28 6.69,-10.26 3.16,-2.7 5.63,-1.44 8.74,-4.43 8.92,-8.57 1.49,-12.94 16.37,-10.48 3.24,-7.3 3.37,-6.43 8.18,-12.19 -2.99,-3.73 -4.03,-6.93 -6.52,-10.36l9.29 -9.21c-7.93,-17.79 -2.4,-5.92 3.86,-25.32 1.81,-5.62 1.67,-10.33 4,-15.36 10.45,-0.49 16.98,-0.53 21.89,-6.18 13.69,-15.74 4.95,-16.48 9.12,-24.94 5.38,-10.89 6.4,-1.38 5.88,-18.13 -0.58,-18.64 1.96,-18.74 10.24,-28.69l-2.8 0 0 -7.2 -3.59 0 0 -14.38 -3.6 0 0 -10.79 -3.6 0 0 -10.79 -3.59 0 0 -7.19 -3.6 0 0 -7.19 -3.6 0 0 -7.19 -3.59 0 0 -7.2 -3.6 0 0 -7.19 -3.59 0 0 -7.19 -3.6 0 0 -7.19 -3.6 0 0 -3.6 -3.59 0 0 -7.19 -3.6 0 0 -3.6 -3.59 0 0 -7.19 -3.6 0 0 -3.6 -3.6 0 0 -7.19 -3.59 0 0 -3.6 -3.6 0 0 -3.59 -3.59 0 0 -3.6 -3.6 0 0 -7.19 -3.6 0 0 -3.59 -3.59 0 0 -3.6 -3.6 0 0 -3.6 -3.6 0 0 -3.59 -3.59 0 0 -3.6 -7.2 0 0 -3.59 -3.59 0 0 -3.6 -7.19 0 0 -3.6 -3.6 0 0 -3.59 -7.19 0 0 -3.6 -7.19 0 0 -3.6 -10.79 0 0 -3.59 -10.79 0 0 -3.6 -68.33 0 0 3.6 -14.38 0 0 3.59 -7.2 0 0 3.6 -10.78 0 0 3.6 -7.19 0 0 3.59 -7.2 0 0 3.6 -3.59 0 0 3.6 -7.19 0 0 3.59 -3.6 0 0 3.6 -3.6 0 0 3.59 -7.19 0 0 3.6 -3.6 0 0 3.6 -3.59 0 0 7.19 -3.6 0 0 3.59 -3.6 0 0 3.6 -3.59 0 0 3.59 -3.6 0 0 3.6 -3.59 0 0 3.6 -3.6 0 0 3.59 -3.6 0 0 7.2 -3.59 0 0 3.59 -3.6 0 0 7.2 -3.59 0 0 3.59 -3.6 0 0 7.2 -3.6 0 0 3.59 -3.59 0 0 7.19 -3.6 0 0 7.19 -3.59 0 0 7.2 -3.6 0 0 7.19 -3.6 0 0 7.19 -3.59 0 0 7.19 -3.6 0 0 7.2 -3.6 0 0 10.79 -3.59 0 0 7.19 -3.6 0 0 10.78 -3.6 0 0 10.79 -3.59 0 0 10.79 -3.6 0 0 10.79 -3.59 0 0 10.79 -3.6 0 0 10.79 -3.6 0 0 10.79 -3.59 0 0 10.78 -3.6 0 0 17.98 -3.59 0 0 14.39 -3.6 0 0 10.79 -3.59 0 0 17.98 -3.6 0 0 10.79 -3.6 0 0 28.77 -3.59 0 0 14.38 -3.6 0 0 21.58 -3.6 0 0 17.98 -3.59 0 0 32.37 -3.6 0 0 35.95 -3.6 0 0 61.14 -3.59 0 0 151.04 3.59 0 0 32.36 3.6 0 0 10.79 3.6 0 0 7.2 3.59 0 0 7.19 3.6 0 0 3.59 3.6 0 0 3.6 7.19 0 0 3.59 7.19 0 0 3.6 7.19 0 0 3.6 35.96 0 0 3.59 32.37 0 0 3.6 68.33 0 0 3.59 122.27 0 0 -3.59 50.34 0 0 -3.6 35.96 0 0 -3.59 25.18 0 0 -3.6 17.98 0 0 -3.6 14.38 0 0 -3.59 10.79 0 0 -3.6 10.79 0 0 -3.59 3.6 0 0 -3.6 7.19 0 0 -3.59 3.59 0 0 -3.6 3.6 0 0 -3.6 3.59 0 0 -3.59 3.6 0 0 -3.6 3.6 0 0 -7.19 3.59 0 0 -7.2 3.6 0 0 -14.38 3.6 0 0 -14.38 3.59 0 0 -35.97 3.6 0 0 -43.15 3.6 0 0 -79.11zm-230.16 -546.62l17.98 0 0 3.6 14.39 0 0 3.59 10.78 0 0 3.6 7.2 0 0 3.59 7.19 0 0 3.6 7.19 0 0 3.6 3.6 0 0 3.59 3.59 0 0 3.6 7.2 0 0 3.6 3.59 0 0 3.59 3.6 0 0 3.6 3.6 0 0 3.6 3.59 0 0 3.59 3.6 0 0 3.6 3.59 0 0 3.59 3.6 0 0 3.6 3.6 0 0 3.6 3.59 0 0 7.19 3.6 0 0 3.59 3.59 0 0 3.6 3.6 0 0 3.59 3.6 0 0 7.2 3.59 0 0 7.19 3.6 0 0 3.6 3.59 0 0 7.19 3.6 0 0 3.6 3.6 0 0 7.19 3.59 0 0 7.19 3.6 0 0 7.19 3.6 0 0 -21.57 -3.6 0 0 -35.97 -3.6 0 0 -32.36 -3.59 0 0 -39.56 -3.6 0 0 -28.77 -3.6 0 0 -57.54 -3.59 0 0 -35.96 -3.6 0 0 -61.13 -3.59 0 0 -53.94 -3.6 0 0 -35.97 -3.6 0 0 -68.32 -3.59 0 0 -35.97 -3.6 0 0 -21.57 -3.59 0 0 -32.37 -3.6 0 0 -28.76 -3.6 0 0 -14.39 -3.59 0 0 -25.18 -3.6 0 0 -17.97 -3.59 0 0 -25.18 -3.6 0 0 -14.38 -3.6 0 0 -17.98 -3.59 0 0 -17.98 -3.6 0 0 -17.98 -3.6 0 0 -25.18 -3.59 0 0 -14.38 -3.6 0 0 -10.79 -3.6 0 0 -28.77 -3.59 0 0 -14.39 -3.6 0 0 -17.98 -3.59 0 0 -25.17 -3.6 0 0 -21.58 -3.6 0 0 -50.34 -3.59 0 0 -28.77 -3.6 0 0 -50.35 -3.59 0 0 -35.96 -3.6 0 0 -39.56 -3.59 0 0 -28.77 -3.6 0 0 -14.38 -3.6 0 0 -17.98 -3.59 0 0 -14.39 -3.6 0 0 -10.79 -3.6 0 0 -10.78 -3.59 0 0 -7.2 -3.6 0 0 -7.19 -3.6 0 0 -3.59 -3.59 0 0 -3.6 -3.6 0 0 -3.59 -14.38 0 0 3.59 -7.19 0 0 3.6 -3.6 0 0 3.59 -3.6 0 0 7.19 -3.59 0 0 7.2 -3.6 0 0 3.59 -3.59 0 0 7.19 -3.6 0 0 10.79 -3.6 0 0 7.2 -3.59 0 0 10.79 -3.6 0 0 10.78 -3.6 0 0 7.2 -3.59 0 0 10.78 -3.6 0 0 10.79 -3.6 0 0 14.39 -3.59 0 0 10.79 -3.6 0 0 10.78 -3.59 0 0 10.79 -3.6 0 0 14.39 -3.59 0 0 10.78 -3.6 0 0 17.99 -3.6 0 0 10.79 -3.59 0 0 17.98 -3.6 0 0 14.38 -3.59 0 0 10.79 -3.6 0 0 21.58 -3.6 0 0 10.79 -3.59 0 0 21.57 -3.6 0 0 25.17 -3.6 0 0 14.39 -3.59 0 0 28.77 -3.6 0 0 28.77 -3.6 0 0 14.38 -3.59 0 0 28.77 -3.6 0 0 28.77 -3.59 0 0 32.37 -3.6 0 0 32.36 -3.6 0 0 35.96 -3.59 0 0 35.96 -3.6 0 0 43.16 -3.59 0 0 21.57 -3.6 0 0 50.35 -3.6 0 0 35.96 -3.59 0 0 50.35 -3.6 0 0 39.56 -3.59 0 0 39.55 -3.6 0 0 64.73 -3.6 0 0 35.97 -3.59 0 0 53.94 -3.6 0 0 43.15 -3.6 0 0 39.56 -3.59 0 0 32.37 -3.6 0 0 39.55 -3.6 0 0 35.96 -3.59 0 0 14.39 3.59 0 0 -3.6 3.6 0 0 -7.19 3.6 0 0 -7.19 3.59 0 0 -7.19 3.6 0 0 -7.19 3.6 0 0 -7.2 3.59 0 0 -3.59 3.6 0 0 -7.2 3.6 0 0 -3.59 3.59 0 0 -7.2 3.6 0 0 -3.59 3.59 0 0 -3.6 3.6 0 0 -7.19 3.6 0 0 -3.6 3.59 0 0 -3.59 3.6 0 0 -3.6 3.59 0 0 -3.59 3.6 0 0 -3.6 3.6 0 0 -7.19 7.19 0 0 -3.6 3.59 0 0 -3.59 3.6 0 0 -3.6 3.6 0 0 -3.6 3.59 0 0 -3.59 3.6 0 0 -3.6 3.6 0 0 -3.6 7.19 0 0 -3.59 3.6 0 0 -3.6 7.19 0 0 -3.6 7.19 0 0 -3.59 10.79 0 0 -3.6 10.78 0 0 -3.59 10.79 0 0 -3.6 14.39 0 0 -3.6 53.94 0 0 3.6zm-7.19 -1114.81l7.19 0 0 3.6 7.19 0 0 3.6 3.6 0 0 3.59 3.6 0 0 3.6 3.59 0 0 7.19 3.6 0 0 3.6 3.6 0 0 10.78 3.59 0 0 7.2 3.6 0 0 10.78 3.59 0 0 17.99 3.6 0 0 10.79 3.59 0 0 21.57 3.6 0 0 35.96 3.6 0 0 28.77 3.59 0 0 25.17 3.6 0 0 61.14 3.59 0 0 50.35 3.6 0 0 17.98 3.6 0 0 32.36 3.59 0 0 17.98 3.6 0 0 17.98 3.6 0 0 28.77 3.59 0 0 10.79 3.6 0 0 25.17 3.6 0 0 21.58 3.59 0 0 10.79 3.6 0 0 25.17 3.59 0 0 17.98 3.6 0 0 21.58 3.6 0 0 17.98 3.59 0 0 14.39 3.6 0 0 17.98 3.59 0 0 21.57 3.6 0 0 32.37 3.6 0 0 21.58 3.59 0 0 17.98 3.6 0 0 35.96 3.59 0 0 32.36 3.6 0 0 53.95 3.6 0 0 32.36 3.59 0 0 61.13 3.6 0 0 43.16 3.6 0 0 68.33 3.59 0 0 46.75 3.6 0 0 57.53 3.6 0 0 17.99 3.59 0 0 35.96 3.6 0 0 39.56 3.59 0 0 28.76 3.6 0 0 25.18 3.6 0 0 46.75 3.59 0 0 17.98 3.6 0 0 10.79 3.59 0 0 17.98 3.6 0 0 7.19 3.59 0 0 21.58 3.6 0 0 14.38 3.6 0 0 14.39 3.59 0 0 14.38 3.6 0 0 14.39 3.6 0 0 17.98 3.59 0 0 10.78 3.6 0 0 21.58 3.6 0 0 17.98 3.59 0 0 25.17 3.6 0 0 17.99 3.6 0 0 21.57 3.59 0 0 25.17 3.6 0 0 21.58 3.59 0 0 133.06 -3.59 0 0 32.37 -3.6 0 0 25.17 -3.59 0 0 14.38 -3.6 0 0 10.79 -3.6 0 0 7.19 -3.59 0 0 10.79 -3.6 0 0 7.2 -3.6 0 0 3.59 -3.59 0 0 3.6 -3.6 0 0 3.59 -3.6 0 0 3.6 -3.59 0 0 3.59 -7.2 0 0 3.6 -3.59 0 0 3.6 -7.19 0 0 3.59 -7.19 0 0 3.6 -7.2 0 0 3.59 -10.78 0 0 3.6 -14.39 0 0 3.6 -17.98 0 0 3.59 -17.98 0 0 3.6 -32.37 0 0 3.6 -64.73 0 0 3.59 -161.83 0 0 -3.59 -43.15 0 0 -3.6 -43.15 0 0 -3.6 -14.39 0 0 -3.59 -14.38 0 0 -3.6 -7.19 0 0 -3.6 -7.2 0 0 -3.59 -3.59 0 0 -3.6 -3.6 0 0 -3.59 -3.6 0 0 -3.6 -3.59 0 0 -3.6 -3.6 0 0 -3.59 -3.6 0 0 -7.19 -3.59 0 0 -7.19 -3.6 0 0 -14.39 -3.59 0 0 -14.39 -3.6 0 0 -197.78 3.6 0 0 -46.75 3.59 0 0 -43.16 3.6 0 0 -14.38 3.59 0 0 -28.77 3.6 0 0 -21.58 3.6 0 0 -21.57 3.59 0 0 -14.39 3.6 0 0 -17.98 3.6 0 0 -10.79 3.59 0 0 -14.38 3.6 0 0 -14.39 3.6 0 0 -14.38 3.59 0 0 -7.19 3.6 0 0 -14.39 3.6 0 0 -14.38 3.59 0 0 -14.39 3.6 0 0 -35.96 3.59 0 0 -35.96 3.6 0 0 -50.35 3.59 0 0 -35.96 3.6 0 0 -43.15 3.6 0 0 -43.16 3.59 0 0 -64.73 3.6 0 0 -28.77 3.59 0 0 -50.34 3.6 0 0 -39.56 3.6 0 0 -61.14 3.59 0 0 -28.76 3.6 0 0 -57.54 3.6 0 0 -35.96 3.59 0 0 -39.56 3.6 0 0 -43.15 3.6 0 0 -25.18 3.59 0 0 -35.96 3.6 0 0 -43.15 3.59 0 0 -39.56 3.6 0 0 -25.18 3.6 0 0 -21.57 3.59 0 0 -28.77 3.6 0 0 -28.77 3.59 0 0 -21.58 3.6 0 0 -21.57 3.6 0 0 -17.99 3.59 0 0 -17.97 3.6 0 0 -14.39 3.59 0 0 -21.58 3.6 0 0 -21.57 3.6 0 0 -14.39 3.59 0 0 -14.38 3.6 0 0 -14.39 3.6 0 0 -14.38 3.59 0 0 -14.39 3.6 0 0 -7.19 3.6 0 0 -14.38 3.59 0 0 -10.79 3.6 0 0 -14.39 3.59 0 0 -10.79 3.6 0 0 -14.38 3.6 0 0 -10.79 3.59 0 0 -10.79 3.6 0 0 -7.19 3.59 0 0 -10.79 3.6 0 0 -10.79 3.59 0 0 -7.19 3.6 0 0 -7.19 3.6 0 0 -7.19 3.59 0 0 -7.2 3.6 0 0 -7.19 3.6 0 0 -7.19 3.59 0 0 -3.59 3.6 0 0 -3.6 3.6 0 0 -3.6 3.59 0 0 -3.59 3.6 0 0 -3.6 3.59 0 0 -3.6 7.2 0 0 -3.59 25.17 0 0 3.59z"/>
 </g>
</svg>
