<?xml version="1.0" encoding="UTF-8"?>
<!DOCTYPE svg PUBLIC "-//W3C//DTD SVG 1.1//EN" "http://www.w3.org/Graphics/SVG/1.1/DTD/svg11.dtd">
<!-- Creator: CorelDRAW (Versión de evaluación) -->
<svg xmlns="http://www.w3.org/2000/svg" xml:space="preserve" width="739px" height="2458px" version="1.1" style="shape-rendering:geometricPrecision; text-rendering:geometricPrecision; image-rendering:optimizeQuality; fill-rule:evenodd; clip-rule:evenodd"
viewBox="0 0 739 2457.4"
 xmlns:xlink="http://www.w3.org/1999/xlink"
 xmlns:xodm="http://www.corel.com/coreldraw/odm/2003">
 <defs>
  <style type="text/css">
   <![CDATA[
    .str0 {stroke:#D6D2C8;stroke-width:10;stroke-miterlimit:22.9256}
    .fil0 {fill:#F5F1E8}
   ]]>
  </style>
 </defs>
 <g id="tooth-fissure-crown-11">
  <metadata id="CorelCorpID_0Corel-Layer"/>
  <path id="crown" class="fil0 str0" d="M292.74 1515.02c-24.06,75.22 -174.89,148.54 -242.36,176.59 -19.76,121.94 -93.73,596.63 -14.61,689.34 68.67,80.44 563.16,94.35 663.44,56.01 85.74,-58.86 18.26,-660.17 -64.29,-729.73 -42.23,-35.58 -121.45,-107.83 -126.62,-162.04 -39.3,-9.2 -38.36,-43.02 -97.75,-52.76 -48.83,-8 -69.89,24.01 -117.81,22.59zm120.3 -20.09l-28.71 -2.31c1.91,32.26 -2.82,15.63 -10.15,36.96 -13.89,40.41 -21.24,44.5 -16.7,81.59 2.81,23.01 -0.44,20.7 15.16,33.4 -4.3,21.51 -0.5,19.97 -20.46,31.3 -0.71,8.45 2.88,10.55 1.2,19l-16.9 9.21c0.94,8.37 6.05,15.41 6.68,23.21 0.75,9.23 -5.6,16.36 -7.44,24.9 5.78,2.16 13.01,6.05 17.94,9.33 1.12,6.06 -0.16,11.23 1.92,15.86 2.34,5.24 5.4,4.69 6.17,12.67 0.57,5.83 -2.11,13.71 -1.06,18.3 1.5,6.66 5.02,3.13 9.43,9.13 -9.52,16.97 -29.33,12.28 -19.92,44.65 9.05,31.12 -4.5,25.25 -15.41,47 14.09,15.23 26.68,4.29 20.26,46.57 -1.46,9.61 -5.42,25.71 -1.04,33.04 6.45,10.8 13.46,5.54 9.28,24.94 -18.73,10.78 -9.11,3.96 -19.87,22.48 -9.16,15.76 -11.93,3.62 -9.52,29.37 2.43,25.95 6.5,26.45 7.13,33.41 1.22,13.52 -6.41,17.42 -15.21,28.38 1.56,8.29 6.34,12.69 7.58,24.77l0.89 8.87c2.8,-17.68 -3.25,-20.09 -5.3,-33.39 6.25,-8.07 14.83,-10.19 15.51,-25.52 0.37,-8.63 -4.4,-22.52 -5.54,-33.49 -2.58,-24.82 0.99,-14.55 9.53,-28.13 8.86,-14.1 2.78,-13.43 21.12,-19.69 9.87,-51.37 -14.46,-14.21 -6.38,-60.55 5.79,-33.22 9.7,-32.23 -10.14,-54.31 4.3,-8.2 9.86,-11.99 13.84,-23.79 4.88,-14.48 -13.46,-29.12 1.97,-40.4 5.61,-4.1 5.14,-3.86 9.72,-9.11 6.6,-7.57 11.9,-13.26 17.47,-20.88l-18.26 -13.65c-0.21,-7.62 2.51,-11.72 0.86,-18.46 -1.48,-6.07 -5.61,-6.71 -6.78,-13.11 -3.34,-18.35 9.59,-17.15 -10.78,-27.26 2.48,-11.79 1.56,-10.83 0.76,-22.12 6.95,-1.93 11.04,-4.92 17.12,-6.91l-3.24 -19.47c25.39,-14.76 8.16,-5.13 17.62,-34.37 2.74,-8.47 7.07,-14.11 8.66,-22.32 -12.34,-9.82 -20.3,-15.62 -21.32,-26.86 -2.84,-31.33 8.49,-24.52 10.84,-38.55 3.04,-18.07 -6.6,-7.33 8.82,-27.36 17.77,-23.1 13.89,-24.78 12.65,-46.33z"/>
  <path id="root" class="fil0 str0" d="M292.74 1515.02c0.41,-52.24 202.88,-79.84 215.56,30.17 19.62,4.84 145.34,146.12 146.88,148.48 11.41,-72.16 -20.13,-387.07 -29.57,-476.35 -35.52,-335.95 -122.91,-523.81 -202.77,-813.06 -60.54,-219.33 -13.69,-366.35 -100.4,-404.26 -80.88,54.32 -154.37,675.96 -166.65,802.09l-92.94 850.87c101.21,9.01 142.84,-133.95 229.89,-137.94z"/>
 </g>
</svg>
