<?xml version="1.0" encoding="UTF-8"?>
<!DOCTYPE svg PUBLIC "-//W3C//DTD SVG 1.1//EN" "http://www.w3.org/Graphics/SVG/1.1/DTD/svg11.dtd">
<!-- Creator: CorelDRAW (Versión de evaluación) -->
<svg xmlns="http://www.w3.org/2000/svg" xml:space="preserve" width="739px" height="2458px" version="1.1" style="shape-rendering:geometricPrecision; text-rendering:geometricPrecision; image-rendering:optimizeQuality; fill-rule:evenodd; clip-rule:evenodd"
viewBox="0 0 739 2457.4"
 xmlns:xlink="http://www.w3.org/1999/xlink"
 xmlns:xodm="http://www.corel.com/coreldraw/odm/2003">
 <defs>
  <style type="text/css">
   <![CDATA[
    .str0 {stroke:#373435;stroke-width:5;stroke-miterlimit:22.9256}
    .fil0 {fill:#FEFEFE}
   ]]>
  </style>
 </defs>
 <g id="tooth-fissure-crown-47">
  <metadata id="CorelCorpID_0Corel-Layer"/>
  <path id="root" class="fil0 str0" d="M261.7 2256.96c68.09,-100.71 4.03,-199.08 9.05,-482.12 1.94,-109.6 29.58,-370.01 93.41,-423.4 146.98,69.67 85.81,635.95 55.54,834.98 -13.59,89.34 -31.47,192.68 1.49,270.97 128.1,-17.22 227.44,-456.35 247.65,-629.94 28.1,-241.4 29.73,-463.59 28.13,-705.45 -0.54,-82.28 -10.11,-150.71 -5.92,-240.19 -154.19,-125.7 -175.41,51.48 -309.89,44.79 -137.07,-6.85 -146.91,-134.2 -329.8,-106.93 -74.49,222.88 23.52,897.82 84.31,1174.66 21.8,99.26 41.17,263.56 126.03,262.63z"/>
  <path id="crown" class="fil0 str0" d="M122.8 243.17c136.83,-148.46 164.73,26.89 249.51,-34.95 95.66,-69.77 87.4,-166.72 224.78,-67.6 -52.21,9.41 -78.03,-32.36 -136,12.03 -32.07,24.56 -57.6,74.98 -90.44,92.4 -66.7,35.4 -78.9,-18.67 -126,-30.59 -64.33,-16.27 -73.94,21.09 -121.85,28.71zm-79.08 547.9c241.42,-25.13 200.74,98.54 337.22,103.77 90.82,3.47 84.96,-41.26 150.73,-75 83.17,-42.64 93.4,7.71 163.14,13.91 19.23,-111.39 41.49,-164.85 43.62,-298.5 2.64,-166.72 -28.81,-453.35 -146.77,-519.54 -80.18,-45.01 -121.2,16.9 -186.02,58.68 -157.67,101.63 -198.54,-144.5 -362.08,83.78 -71.27,99.48 -44.49,511.94 0.16,632.9zm551.9 -650.2c-0.76,0.12 -1.51,0.24 -2.26,0.34l-3.7 10.84 -3.94 -1.35 -2.69 7.88 -3.94 -1.34 -4.03 11.83 7.88 2.69 -1.34 3.94 3.94 1.35 -10.76 31.54 3.94 1.34 -5.37 15.77 3.94 1.35 -2.69 7.88 -3.94 -1.34 -8.07 23.65 3.94 1.35 -9.41 27.6 3.94 1.34 -1.34 3.94 -3.94 -1.34 -2.69 7.89 -3.95 -1.35 -1.34 3.94 -11.83 -4.03 -1.34 3.94 -3.95 -1.34 1.35 -3.95 -7.89 -2.69 -1.34 3.95 3.94 1.34 -2.69 7.89 -3.94 -1.35 -1.35 3.95 -3.94 -1.35 -1.34 3.94 -3.95 -1.34 -1.34 3.94 -7.89 -2.69 -1.34 3.95 -7.89 -2.69 -1.34 3.94 -3.94 -1.35 -1.35 3.95 7.89 2.69 1.34 -3.95 11.83 4.04 1.34 -3.95 7.89 2.69 1.34 -3.94 3.95 1.35 1.34 -3.95 7.89 2.69 1.34 -3.94 7.89 2.69 1.34 -3.94 7.89 2.69 1.34 -3.95 7.89 2.69 1.34 -3.94 3.94 1.34 1.35 -3.94 7.89 2.69 -1.35 3.94 3.94 1.35 -1.34 3.94 3.94 1.35 -1.34 3.94 3.94 1.34 -1.35 3.95 3.95 1.34 -2.69 7.88 3.94 1.35 -2.69 7.89 3.94 1.34 -2.69 7.89 3.95 1.34 -1.35 3.94 3.94 1.35 -1.34 3.94 7.89 2.69 -1.35 3.94 3.94 1.35 -2.69 7.88 3.95 1.35 -2.69 7.88 -3.94 -1.34 -2.69 7.88 3.94 1.35 -1.35 3.94 -3.94 -1.34 -1.34 3.94 -3.95 -1.35 -2.69 7.89 -3.94 -1.35 -1.34 3.95 -3.95 -1.35 -1.34 3.94 -3.94 -1.34 -2.69 7.88 -3.94 -1.34 -2.69 7.89 -3.95 -1.35 -1.34 3.94 -1.35 3.95 -3.94 -1.35 -4.03 11.83 -7.89 -2.69 -1.34 3.94 -11.83 -4.03 -2.69 7.89 -3.94 -1.35 -4.04 11.83 -3.94 -1.35 -1.34 3.95 -3.95 -1.35 -2.68 7.89 -3.95 -1.35 -1.34 3.95 -11.83 -4.04 -1.34 3.94 -3.95 -1.34 -1.34 3.94 -7.89 -2.69 -1.34 3.95 7.88 2.69 1.35 -3.95 7.88 2.69 1.35 -3.94 19.71 6.72 -1.34 3.94 3.94 1.35 -1.35 3.94 3.95 1.35 -1.35 3.94 3.95 1.34 -1.35 3.95 3.94 1.34 -2.69 7.89 3.95 1.34 -1.35 3.94 -3.94 -1.34 -2.69 7.88 -3.94 -1.34 -2.69 7.88 -3.94 -1.34 -1.35 3.94 -3.94 -1.34 -2.69 7.88 -3.94 -1.34 -1.35 3.94 -3.94 -1.34 -5.38 15.77 -7.89 -2.69 -1.34 3.94 -19.71 -6.72 1.34 -3.94 -15.77 -5.38 1.35 -3.95 -19.72 -6.72 -1.34 3.94 3.94 1.35 -1.34 3.94 3.94 1.35 -1.35 3.94 7.89 2.69 1.34 -3.94 3.95 1.34 -1.35 3.94 7.89 2.69 -1.35 3.94 3.94 1.35 -4.03 11.83 3.94 1.34 2.69 -7.88 3.95 1.34 1.34 -3.94 19.71 6.72 -1.34 3.94 3.94 1.35 -1.34 3.94 3.94 1.35 -1.35 3.94 -3.94 -1.35 -2.69 7.89 -3.94 -1.35 -4.03 11.83 -3.95 -1.34 -6.72 19.71 -3.94 -1.34 -4.04 11.83 -3.94 -1.35 -2.69 7.88 -3.94 -1.34 -2.69 7.89 -3.94 -1.35 -1.35 3.94 -3.94 -1.34 -16.14 47.31 -3.94 -1.34 -5.38 15.77 -3.94 -1.35 -2.69 7.89 -3.94 -1.35 -6.72 19.72 -3.95 -1.35 -5.37 15.77 -2.69 7.89 -11.83 -4.04 -1.35 3.95 7.89 2.69 -2.69 7.88 -3.94 -1.34 -4.04 11.83 3.95 1.34 1.34 -3.94 3.94 1.34 1.35 -3.94 7.88 2.69 -1.34 3.94 11.83 4.04 -1.35 3.94 -3.94 -1.35 -1.35 3.95 -7.88 -2.69 -1.35 3.94 -7.88 -2.69 -1.35 3.94 -7.88 -2.69 1.34 -3.94 -3.94 -1.34 -2.69 7.88 3.94 1.35 -2.68 7.88 -3.95 -1.34 -1.34 3.94 -3.95 -1.34 -1.34 3.94 -7.89 -2.69 -1.34 3.94 -3.94 -1.34 -2.69 7.88 -3.94 -1.34 -1.35 3.94 -3.94 -1.34 -1.35 3.94 -7.88 -2.69 -1.35 3.94 -27.59 -9.41 -1.35 3.94 -7.88 -2.69 -1.35 3.95 27.6 9.41 1.34 -3.95 15.77 5.38 1.35 -3.94 15.77 5.38 -1.35 3.94 3.95 1.35 -2.69 7.88 3.94 1.35 -5.38 15.77 3.95 1.34 -2.69 7.89 3.94 1.34 -1.35 3.94 3.95 1.35 1.34 -3.94 -3.94 -1.35 4.03 -11.83 -3.94 -1.34 5.38 -15.77 -3.94 -1.35 1.34 -3.94 -3.94 -1.34 1.34 -3.95 -3.94 -1.34 1.34 -3.94 -3.94 -1.35 2.69 -7.88 3.94 1.34 1.35 -3.94 7.88 2.69 1.35 -3.94 11.83 4.03 1.34 -3.94 -3.94 -1.35 2.69 -7.88 3.94 1.34 1.34 -3.94 3.95 1.34 1.34 -3.94 7.89 2.69 1.34 -3.94 7.89 2.69 1.34 -3.95 7.89 2.69 1.34 -3.94 3.94 1.34 -1.34 3.95 7.89 2.69 -1.35 3.94 11.83 4.03 -1.35 3.95 11.83 4.03 7.89 2.69 -1.35 3.94 3.95 1.35 -1.35 3.94 3.94 1.34 -1.34 3.95 7.88 2.68 2.69 -7.88 -3.94 -1.34 1.34 -3.95 -3.94 -1.34 1.35 -3.95 -3.94 -1.34 2.68 -7.88 -3.94 -1.35 1.35 -3.94 -3.95 -1.35 1.35 -3.94 -3.94 -1.34 2.69 -7.89 -3.95 -1.34 1.35 -3.95 -3.95 -1.34 2.69 -7.89 -3.94 -1.34 1.34 -3.94 -3.94 -1.35 1.35 -3.94 3.94 1.34 1.34 -3.94 11.83 4.04 1.35 -3.95 -15.77 -5.38 1.34 -3.94 -3.94 -1.34 1.34 -3.95 3.94 1.35 1.35 -3.94 3.94 1.34 1.35 -3.94 11.83 4.03 1.34 -3.94 11.83 4.03 1.34 -3.94 3.95 1.34 1.34 -3.94 -11.83 -4.03 2.69 -7.89 -7.88 -2.69 4.03 -11.82 3.94 1.34 -1.34 3.94 11.83 4.04 -1.35 3.94 27.6 9.41 1.34 -3.94 7.89 2.69 -1.34 3.94 3.94 1.35 -1.35 3.94 3.95 1.34 -1.35 3.95 7.89 2.69 -2.69 7.88 3.94 1.34 -2.69 7.89 3.94 1.35 -6.72 19.71 7.89 2.69 4.03 -11.83 -3.94 -1.34 4.03 -11.83 -3.94 -1.35 1.34 -3.94 -3.94 -1.35 2.69 -7.88 -3.94 -1.34 2.69 -7.89 -3.95 -1.35 4.04 -11.82 3.94 1.34 1.35 -3.94 3.94 1.34 2.69 -7.88 -3.95 -1.35 -1.34 3.95 -3.94 -1.35 -2.69 7.89 -11.83 -4.04 1.34 -3.94 -3.94 -1.34 -1.34 3.94 -7.89 -2.69 -1.34 3.94 -19.72 -6.72 1.35 -3.94 -7.89 -2.69 1.35 -3.95 -3.95 -1.34 1.35 -3.94 -3.94 -1.35 1.34 -3.94 -7.88 -2.69 1.34 -3.94 -7.89 -2.69 1.35 -3.95 -7.89 -2.68 1.35 -3.95 -3.94 -1.34 13.44 -39.43 3.95 1.35 2.68 -7.89 3.95 1.35 1.34 -3.95 3.94 1.35 6.73 -19.72 3.94 1.35 4.03 -11.83 3.95 1.35 2.69 -7.89 11.82 4.03 -1.34 3.95 3.94 1.34 -1.34 3.94 15.77 5.38 -1.35 3.95 3.95 1.34 -1.35 3.94 3.94 1.35 2.69 -7.89 -3.94 -1.34 1.35 -3.95 -11.83 -4.03 1.34 -3.94 -7.88 -2.69 1.34 -3.94 -7.88 -2.69 1.34 -3.95 -3.94 -1.34 2.69 -7.89 -3.95 -1.34 1.35 -3.94 -3.94 -1.35 4.03 -11.83 3.94 1.35 2.69 -7.89 3.94 1.35 4.04 -11.83 3.94 1.35 2.69 -7.89 3.94 1.34 1.35 -3.94 3.94 1.35 1.35 -3.95 2.68 -7.88 3.95 1.34 5.38 -15.77 -3.95 -1.34 1.35 -3.94 -7.89 -2.69 2.69 -7.89 -3.94 -1.34 1.34 -3.95 -7.88 -2.69 1.34 -3.94 3.95 1.35 5.37 -15.77 3.95 1.34 4.03 -11.83 11.83 4.03 1.34 -3.94 7.89 2.69 1.34 -3.94 1.35 -3.94 3.94 1.34 5.38 -15.77 3.94 1.35 2.69 -7.89 3.94 1.34 2.69 -7.88 3.95 1.34 1.34 -3.94 3.94 1.35 1.35 -3.95 3.94 1.35 1.34 -3.94 7.89 2.68 -1.34 3.95 3.94 1.34 -2.69 7.89 7.88 2.69 2.69 -7.89 -3.94 -1.34 2.69 -7.89 -3.94 -1.34 2.69 -7.89 -3.95 -1.34 9.42 -27.6 -3.95 -1.35 1.35 -3.94 -7.89 -2.69 1.35 -3.94 -3.94 -1.35 2.68 -7.88 -3.94 -1.35 1.35 -3.94 -3.95 -1.34 1.35 -3.95 -3.95 -1.34 1.35 -3.94 -3.94 -1.35 2.69 -7.88 -3.95 -1.35 2.69 -7.88 -3.94 -1.35 1.34 -3.94 -7.88 -2.69 1.34 -3.94 -3.94 -1.35 5.38 -15.77 -3.94 -1.34 17.48 -51.26 -3.95 -1.34 5.38 -15.77 -3.94 -1.35 4.03 -11.83 -3.94 -1.34 4.04 -11.83 3.94 1.35 2.69 -7.89 -3.94 -1.34 1.34 -3.95 -3.94 -1.34 2.69 -7.89 -3.95 -1.34 1.35 -3.94 -3.94 -1.35 2.68 -7.88 3.95 1.34 4.03 -11.83 3.94 1.35 2.69 -7.89 3.95 1.35 10.75 -31.54 11.83 4.03 1.35 -3.94 3.94 1.34 1.34 -3.94 3.95 1.34 3.94 1.35 1.34 -3.94 3.95 1.34 1.34 -3.94 3.94 1.34 1.35 -3.94 1.81 0.62c-2.75,-5.54 -5.58,-10.92 -8.51,-16.11l-1.1 -0.37 -1.34 3.94 -3.94 -1.34 -1.35 3.94 -3.94 -1.35 -1.35 3.95 -7.88 -2.69 -1.35 3.94 -3.94 -1.34 -1.34 3.94 -15.77 -5.38 1.34 -3.94 -7.88 -2.69 1.34 -3.94 -7.89 -2.69 1.35 -3.95 -7.89 -2.69 1.35 -3.94 -23.66 -8.07 -1.34 3.95 3.94 1.34 -1.34 3.94 11.82 4.04 -1.34 3.94 7.89 2.69 -1.35 3.94 7.88 2.69 -1.34 3.94 3.94 1.35 -1.34 3.94 7.88 2.69 -1.34 3.94 3.94 1.35 -5.38 15.77 3.95 1.34 -1.35 3.94 -3.94 -1.34 -5.38 15.77 -2.02 -0.69zm-580.58 431.38l3.94 1.34 1.34 -3.94 -3.94 -1.35 -1.34 3.95 -3.95 -1.35 -1.34 3.94 -3.7 -1.26c0.56,6.66 1.15,13.27 1.77,19.82l7.22 -21.15zm-2.46 65.18l5.94 2.02 1.34 -3.94 19.72 6.72 1.34 -3.94 3.95 1.35 11.82 4.03 2.69 -7.89 -3.94 -1.34 2.69 -7.89 -7.89 -2.68 -1.34 3.94 -3.94 -1.35 -2.69 7.89 -7.89 -2.69 2.69 -7.89 3.94 1.35 6.73 -19.72 3.94 1.35 2.69 -7.88 3.94 1.34 2.69 -7.89 3.94 1.35 1.35 -3.94 3.94 1.34 1.35 -3.94 3.94 1.34 -2.69 7.89 3.94 1.34 -1.34 3.95 3.94 1.34 -1.34 3.94 3.94 1.35 -1.35 3.94 3.95 1.34 -5.38 15.78 3.94 1.34 -1.34 3.94 -7.89 -2.69 -1.34 3.95 -7.89 -2.69 -4.03 11.82 23.65 8.07 1.35 -3.94 3.94 1.34 1.34 -3.94 7.89 2.69 -1.34 3.94 3.94 1.35 -1.35 3.94 3.95 1.34 -1.35 3.95 3.94 1.34 7.89 2.69 11.83 4.04 2.69 -7.89 3.94 1.35 1.34 -3.95 3.95 1.35 2.69 -7.89 -3.95 -1.34 2.69 -7.89 3.95 1.35 1.34 -3.95 3.94 1.35 1.35 -3.94 7.88 2.69 1.35 -3.95 19.71 6.72 1.35 -3.94 3.94 1.35 15.77 5.38 -1.34 3.94 7.88 2.69 2.69 -7.89 -3.94 -1.34 1.34 -3.94 3.94 1.34 1.35 -3.94 3.94 1.34 1.34 -3.94 7.89 2.69 1.35 -3.94 3.94 1.34 1.34 -3.94 7.89 2.69 1.34 -3.95 3.95 1.35 -1.35 3.94 3.94 1.35 -2.69 7.88 3.95 1.35 1.34 -3.95 7.89 2.69 1.34 -3.94 3.94 1.34 -1.34 3.95 11.83 4.03 -1.35 3.94 11.83 4.04 -1.34 3.94 3.94 1.34 -1.35 3.95 7.89 2.69 -1.34 3.94 7.88 2.69 -1.34 3.94 7.88 2.69 -1.34 3.94 3.94 1.35 1.34 -3.94 -3.94 -1.35 1.35 -3.94 -3.95 -1.35 1.35 -3.94 -3.94 -1.34 1.34 -3.95 -3.94 -1.34 1.34 -3.94 -7.88 -2.69 1.34 -3.95 -3.94 -1.34 2.69 -7.89 -3.95 -1.34 1.35 -3.94 -3.94 -1.35 2.69 -7.88 -3.95 -1.35 2.69 -7.88 -3.94 -1.35 4.03 -11.83 -3.94 -1.34 1.34 -3.94 -3.94 -1.35 4.04 -11.82 3.94 1.34 1.34 -3.94 3.95 1.34 1.34 -3.94 -3.94 -1.35 1.34 -3.94 -11.82 -4.03 1.34 -3.95 -3.94 -1.34 2.69 -7.89 -3.95 -1.34 -4.03 11.83 3.94 1.34 -4.03 11.83 -3.94 -1.34 -4.04 11.82 -3.94 -1.34 -1.34 3.94 -1.35 3.95 -3.94 -1.35 -1.35 3.94 -11.83 -4.03 -1.34 3.94 -7.88 -2.69 -1.35 3.95 -3.94 -1.35 -2.69 7.89 -3.94 -1.35 -1.35 3.94 -3.94 -1.34 -1.35 3.94 -3.94 -1.34 -1.34 3.94 -3.95 -1.34 -1.34 3.94 -3.94 -1.35 -1.35 3.95 -7.88 -2.69 -1.35 3.94 -3.94 -1.35 -1.35 3.95 -11.82 -4.04 -1.35 3.95 -7.88 -2.69 1.34 -3.95 -3.94 -1.34 -1.35 3.94 -3.94 -1.34 -2.69 7.88 -3.94 -1.34 -1.34 3.94 -3.95 -1.34 -1.34 3.94 -3.94 -1.35 -1.35 3.95 -3.94 -1.35 -1.35 3.95 -19.71 -6.73 1.34 -3.94 -7.88 -2.69 1.34 -3.94 -3.94 -1.35 1.35 -3.94 -3.95 -1.34 1.35 -3.95 -3.95 -1.34 2.69 -7.89 -3.94 -1.34 2.69 -7.89 -3.94 -1.34 1.34 -3.94 -3.94 -1.35 1.34 -3.94 -3.94 -1.35 2.69 -7.88 -3.94 -1.35 2.69 -7.88 -3.95 -1.35 1.35 -3.94 -7.89 -2.69 2.69 -7.88 -3.94 -1.35 1.35 -3.94 -3.95 -1.35 2.69 -7.88 -3.94 -1.35 4.03 -11.82 -3.94 -1.35 1.34 -3.94 -3.94 -1.35 1.35 -3.94 -7.89 -2.69 1.35 -3.94 -3.95 -1.34 1.35 -3.95 -3.95 -1.34 1.35 -3.94 4.03 -11.83 1.35 -3.94 3.94 1.34 1.35 -3.94 3.94 1.34 4.03 -11.83 3.95 1.35 4.03 -11.83 -7.89 -2.69 -1.34 3.94 -3.94 -1.34 1.34 -3.94 -15.77 -5.38 -1.34 3.94 -7.89 -2.69 -1.34 3.94 -7.89 -2.69 -1.34 3.95 -7.89 -2.69 -1.34 3.94 -31.55 -10.76 -0.26 0.78 0.05 3.55 2.81 0.96 -1.34 3.94 35.48 12.11 -1.34 3.94 11.83 4.03 -1.35 3.94 11.83 4.04 -2.69 7.88 -5.38 15.77 3.94 1.35 -1.34 3.94 3.94 1.35 -2.69 7.88 3.95 1.35 -2.69 7.88 3.94 1.35 -2.69 7.88 3.94 1.35 -2.69 7.88 3.95 1.35 -1.35 3.94 3.94 1.34 -1.34 3.95 3.94 1.34 -2.69 7.89 3.94 1.34 -1.34 3.94 3.94 1.35 -1.34 3.94 -3.94 -1.34 -1.35 3.94 -1.34 3.94 -3.95 -1.34 -1.34 3.94 -3.94 -1.35 -2.69 7.89 -3.94 -1.34 -1.35 3.94 -3.94 -1.35 -2.69 7.89 -3.95 -1.35 -2.68 7.89 -3.95 -1.34 -1.34 3.94 -7.89 -2.69 -1.34 3.94 -3.94 -1.34 -1.35 3.94 -1.62 -0.55c0.69,6.18 1.39,12.29 2.13,18.33zm557.35 -298.46l3.94 1.34 1.34 -3.94 -3.94 -1.34 -1.34 3.94zm-489.29 449.31l-2.55 -0.87 1.35 -3.95 -3.94 -1.34 1.34 -3.94 -3.94 -1.35 1.34 -3.94 -27.6 -9.41 -1.34 3.94 11.83 4.03 -1.35 3.95 7.89 2.69 -1.35 3.94 3.95 1.34 -1.35 3.95 3.94 1.34 -0.09 0.28c4.04,-0.26 8,-0.49 11.87,-0.66zm449.11 -163.73l3.94 1.35 1.34 -3.95 -3.94 -1.34 -1.34 3.94zm-170.63 100.25l3.94 1.35 1.34 -3.94 -3.94 -1.35 -1.34 3.94zm188.86 -450.53l3.94 1.34 1.35 -3.94 -3.94 -1.34 -1.35 3.94zm83.41 129.67l3.94 1.35 1.35 -3.94 -3.94 -1.35 -1.35 3.94zm-452.84 334.1l3.95 1.35 1.34 -3.94 -3.94 -1.35 -1.35 3.94zm338.66 -205.79l3.95 1.35 1.34 -3.95 -3.94 -1.34 -1.35 3.94zm-193.58 180.45l3.95 1.35 2.69 -7.89 -3.95 -1.34 -2.69 7.88zm229.66 -634.68l7.89 2.69 1.34 -3.94 -7.88 -2.69 -1.35 3.94zm-269.45 673.93l7.89 2.69 1.34 -3.95 -7.88 -2.69 -1.35 3.95zm150.1 11.57l7.88 2.69 1.35 -3.94 -7.89 -2.69 -1.34 3.94zm-271.52 21.84l3.94 1.34 2.69 -7.89 -3.94 -1.34 -2.69 7.89zm180.93 -65.93l3.94 1.34 2.69 -7.89 -3.94 -1.34 -2.69 7.89zm388.75 -210.72l3.94 1.34 1.35 -3.94 1.15 0.39c-0.01,-1.46 -0.02,-2.93 -0.03,-4.41l-3.72 -1.27 -2.69 7.89zm-257.94 343.35l-3.94 -1.34 -1.34 3.94 7.88 2.69 2.69 -7.88 -3.94 -1.35 -1.35 3.94zm41.16 -236.83l3.94 1.34 -1.34 3.95 3.94 1.34 2.69 -7.88 -7.88 -2.69 -1.35 3.94zm23.66 8.07l11.83 4.03 1.34 -3.94 -11.83 -4.04 -1.34 3.95zm-339.19 91.18l3.95 1.34 1.34 -3.94 3.94 1.35 2.69 -7.89 -3.94 -1.34 -1.34 3.94 -3.95 -1.35 -2.69 7.89 -3.94 -1.35 -1.34 3.95 -3.95 -1.35 -1.34 3.95 7.88 2.68 -1.34 3.95 3.94 1.34 -2.69 7.89 -3.94 -1.35 -2.69 7.89 3.94 1.34 -6.72 19.72 7.89 2.69 6.72 -19.72 -3.94 -1.34 2.68 -7.89 3.95 1.35 2.69 -7.89 -3.95 -1.34 1.35 -3.95 -3.94 -1.34 1.34 -3.94 -3.94 -1.35 1.34 -3.94zm371.07 60.53l1.34 -3.94 -7.88 -2.69 1.34 -3.94 -3.94 -1.35 1.35 -3.94 -7.89 -2.69 1.34 -3.94 -7.88 -2.69 1.35 -3.94 -3.95 -1.35 1.35 -3.94 -7.89 -2.69 1.35 -3.95 -3.95 -1.34 1.35 -3.94 -3.94 -1.35 1.34 -3.94 -3.94 -1.34 1.34 -3.95 -3.94 -1.34 1.34 -3.94 -3.94 -1.35 -2.69 7.89 3.94 1.34 -1.34 3.94 3.94 1.35 -1.34 3.94 3.94 1.35 -1.34 3.94 3.94 1.34 -1.35 3.95 3.95 1.34 -1.35 3.94 3.95 1.35 -1.35 3.94 7.89 2.69 -1.35 3.94 3.94 1.35 -1.34 3.94 7.88 2.69 -1.34 3.94 3.94 1.35 -1.34 3.94 3.94 1.34 -1.34 3.95 3.94 1.34 -8.07 23.66 3.94 1.34 -0.48 1.42c3.36,-1.08 6.58,-1.97 9.67,-2.69l-3.9 -1.33 8.07 -23.65 -3.94 -1.35 1.34 -3.94zm-76.93 70.59l-3.91 -1.33 -1.34 3.94 -3.94 -1.34 -1.35 3.94 3.44 1.17c2.28,-2.1 4.63,-4.24 7.1,-6.38zm142.14 -29.49l0.38 -1.12 -12.55 -4.28c4.03,1.67 8.05,3.51 12.17,5.4zm-28.44 -10.95l-10.61 -3.62 -0.57 1.68c3.88,0.38 7.59,1.04 11.18,1.94zm4.66 -306.5l3.95 1.34 -1.35 3.95 11.83 4.03 1.34 -3.94 -7.88 -2.69 1.34 -3.94 -7.88 -2.69 -1.35 3.94zm-56.2 126.07l19.72 6.73 1.34 -3.95 -19.71 -6.72 -1.35 3.94zm-140.09 255.91l3.94 1.35 1.35 -3.95 3.94 1.35 1.35 -3.94 3.94 1.34 1.34 -3.94 3.95 1.34 2.69 -7.88 3.94 1.34 1.34 -3.94 3.95 1.34 1.34 -3.94 3.94 1.35 1.35 -3.95 3.94 1.35 1.34 -3.94 -11.82 -4.04 -1.35 3.94 -7.88 -2.69 4.03 -11.82 -7.88 -2.69 -1.35 3.94 -3.94 -1.34 -1.35 3.94 3.95 1.34 -2.69 7.89 -3.95 -1.35 -1.34 3.95 -3.94 -1.35 -2.69 7.89 -3.95 -1.35 -1.34 3.94 -3.94 -1.34 -4.04 11.83 -3.94 -1.35 -2.69 7.89 -3.94 -1.35 -4.51 13.22c3.07,0.02 6.01,-0.03 8.85,-0.12l0.85 -2.52 3.95 1.34 1.34 -3.94 3.95 1.35 1.34 -3.95 3.94 1.35 2.69 -7.89zm135.1 -486.47l-3.94 -1.35 -2.69 7.89 -3.94 -1.35 -2.69 7.89 3.94 1.34 1.35 -3.94 3.94 1.34 2.69 -7.88 3.94 1.34 5.38 -15.77 -3.94 -1.34 -4.04 11.83zm-78.26 268.19l3.94 1.34 -1.34 3.95 7.88 2.69 4.04 -11.83 -3.95 -1.35 1.35 -3.94 -7.88 -2.69 -4.04 11.83zm86.95 -190.41l3.94 1.34 -1.35 3.95 3.95 1.34 -1.35 3.94 3.94 1.35 -1.34 3.94 3.94 1.34 2.69 -7.88 -3.94 -1.34 4.03 -11.83 -11.83 -4.04 -2.68 7.89zm-367.33 160.8l7.88 2.69 -2.69 7.89 -7.88 -2.69 2.69 -7.89zm332.75 -304.63l-3.94 -1.34 -1.34 3.94 3.94 1.34 -2.69 7.89 11.83 4.03 2.69 -7.88 3.94 1.34 1.34 -3.94 -3.94 -1.35 1.35 -3.94 -11.83 -4.03 -1.35 3.94zm-8.16 36.83l3.95 1.34 -2.69 7.89 7.88 2.69 5.38 -15.77 -3.94 -1.35 2.69 -7.88 -3.94 -1.35 1.34 -3.94 -3.94 -1.34 -6.73 19.71zm-193.6 374.1l3.94 1.34 -4.03 11.83 -11.83 -4.03 -5.38 15.77 3.95 1.34 1.34 -3.94 3.94 1.34 1.35 -3.94 3.94 1.34 1.35 -3.94 3.94 1.35 -2.69 7.88 3.94 1.35 -1.34 3.94 7.88 2.69 2.69 -7.89 -3.94 -1.34 1.34 -3.94 3.95 1.34 2.69 -7.88 -3.95 -1.35 1.35 -3.94 -3.95 -1.35 4.04 -11.82 -11.83 -4.04 -2.69 7.89zm-261.63 -265.28l-1.34 3.94 -3.94 -1.34 1.34 -3.94 3.94 1.34zm5.29 -2.6l-1.34 3.94 -3.95 -1.34 1.35 -3.94 3.94 1.34zm0 0l1.34 -3.94 3.95 1.34 -1.35 3.95 -3.94 -1.35zm200.62 134.44l3.94 1.35 1.35 -3.95 3.94 1.35 -8.07 23.65 -3.94 -1.34 4.03 -11.83 -3.94 -1.34 2.69 -7.89zm120.06 164.18l3.94 1.35 -1.34 3.94 7.88 2.69 -1.34 3.94 3.94 1.35 -1.35 3.94 3.95 1.34 -1.35 3.95 3.95 1.34 -1.35 3.94 3.94 1.35 -1.34 3.94 -11.83 -4.04 1.34 -3.94 -11.82 -4.03 1.34 -3.94 -3.94 -1.35 5.38 -15.77zm26.98 -92.02l3.94 1.34 -4.03 11.83 -3.94 -1.35 4.03 -11.82z"/>
 </g>
</svg>
