<?xml version="1.0" encoding="UTF-8"?>
<!DOCTYPE svg PUBLIC "-//W3C//DTD SVG 1.1//EN" "http://www.w3.org/Graphics/SVG/1.1/DTD/svg11.dtd">
<!-- Creator: CorelDRAW (Versión de evaluación) -->
<svg xmlns="http://www.w3.org/2000/svg" xml:space="preserve" width="739px" height="2458px" version="1.1" style="shape-rendering:geometricPrecision; text-rendering:geometricPrecision; image-rendering:optimizeQuality; fill-rule:evenodd; clip-rule:evenodd"
viewBox="0 0 739 2457.4"
 xmlns:xlink="http://www.w3.org/1999/xlink"
 xmlns:xodm="http://www.corel.com/coreldraw/odm/2003">
 <defs>
  <style type="text/css">
   <![CDATA[
    .str0 {stroke:#4B4B4D;stroke-width:10;stroke-miterlimit:22.9256}
    .fil0 {fill:#FEFEFE}
   ]]>
  </style>
 </defs>
 <g id="tooth-fissure-crown-46">
  <metadata id="CorelCorpID_0Corel-Layer"/>
  <path id="root" class="fil0 str0" d="M73.7 2162.05c17.66,14.48 12.79,17.5 25.98,55.17 125.56,358.5 112.07,-175.76 113.76,-188.69 13.75,-105.11 38.36,-177 58.5,-273.24 25.91,-123.83 -6.59,-224.71 33.46,-299.89 129.09,-59.05 121.05,295.42 117.17,445.47 -2.58,99.98 -7.29,212.29 -15.41,311.1 -7.09,86.08 -29.41,179.94 2.26,245.05 131.72,15.94 198.23,-473.79 217.52,-643.11 30.22,-265.34 32.52,-454.94 21.3,-710.3 -3.06,-69.71 -14.41,-142.93 -3.78,-207.44 -51.08,-4.48 -64.35,7.52 -116.14,-23.19 -30.55,-18.12 -69.35,-41.19 -101.87,-27.5 -37.72,15.88 -60,57.99 -101.8,49.88 -24.09,-4.67 -72.27,-25.02 -113.52,-65.24 -29.5,8.61 -108.3,7.25 -157.88,-33.12 17.54,109.1 43.54,194.48 43.89,316.87 0.35,123.88 -0.1,242.55 -8.39,363.11 -7.54,109.46 -28.47,223.12 -31.81,336.03 -6.16,208.77 21.02,287.01 16.76,349.04z"/>
  <path id="crown" class="fil0 str0" d="M291.1 786.97l3.75 -1.83 1.82 3.74 -3.74 1.83 -1.83 -3.74zm-20.12 -439.86l-1.83 -3.75 3.75 -1.82 -3.66 -7.49 3.74 -1.83 -1.83 -3.74 3.75 -1.83 -1.83 -3.74 3.74 -1.83 -1.82 -3.74 3.74 -1.83 -1.83 -3.75 3.74 -1.82 5.49 11.23 -3.75 1.82 5.49 11.23 -3.74 1.83 1.82 3.74 -14.97 7.32zm-84.26 45.79l-1.83 -3.75 11.23 -5.48 1.83 3.74 -11.23 5.49zm74.37 421.13c18.97,8.73 34.09,39.97 58.59,49.75 31.18,12.41 53.68,-16.35 80.95,-36.05 69.97,-50.54 117.75,22.78 183,39.87 15.17,3.97 27.83,3.48 38.58,-0.7l-2.06 -4.21 -27.42 -56.15 -3.74 1.83 -16.46 -33.69 -14.97 7.32 -1.83 -3.75 -3.74 1.83 -1.83 -3.74 -7.48 3.66 -3.75 1.82 5.49 11.23 3.74 -1.83 -5.48 -11.22 -1.83 -3.75 -3.74 1.83 -1.83 -3.74 -3.75 1.83 -1.83 -3.75 -3.74 1.83 -1.83 -3.74 -3.74 1.82 -1.83 -3.74 -3.74 1.83 -3.66 -7.49 -3.74 1.83 -1.83 -3.74 -3.74 1.83 -1.83 -3.75 -7.48 3.66 -1.83 -3.74 -7.49 3.65 -1.83 -3.74 -3.74 1.83 -1.83 -3.74 -3.74 1.82 -1.83 -3.74 -3.74 1.83 -1.83 -3.74 -3.74 1.83 -1.83 -3.75 -3.75 1.83 -1.82 -3.74 -3.75 1.82 -1.82 -3.74 -7.49 3.66 -1.83 -3.74 -18.71 9.14 -1.83 -3.75 -7.49 3.66 -1.83 -3.74 -7.48 3.65 -1.83 -3.74 -3.74 1.83 -1.83 -3.75 -1.83 -3.74 -3.74 1.83 1.83 3.74 3.74 -1.83 22.46 -10.97 1.82 3.75 3.75 -1.83 1.83 3.74 11.22 -5.48 1.83 3.74 7.49 -3.65 1.83 3.74 7.48 -3.66 -1.83 -3.74 -5.48 -11.23 11.23 -5.48 -3.66 -7.49 -3.74 1.83 -1.83 -3.75 -3.74 1.83 -5.48 -11.23 -3.75 1.83 -9.14 -18.71 -3.74 1.83 -7.31 -14.98 -7.49 3.66 1.83 3.74 -7.49 3.66 3.66 7.48 3.74 -1.82 1.83 3.74 7.49 -3.66 3.65 7.49 -7.49 3.65 -1.82 -3.74 -18.72 9.14 -1.83 -3.74 -7.48 3.66 -1.83 -3.75 -7.49 3.66 -1.83 -3.74 -3.74 1.82 -1.83 -3.74 -3.74 1.83 -1.83 -3.74 7.49 -3.66 -1.83 -3.74 3.74 -1.83 -1.82 -3.74 3.74 -1.83 -1.83 -3.75 3.74 -1.82 -1.82 -3.75 14.97 -7.31 -1.83 -3.74 3.74 -1.83 3.66 7.49 3.74 -1.83 3.66 7.48 11.23 -5.48 -10.97 -22.46 -3.74 1.83 -1.83 -3.74 -3.75 1.82 -3.65 -7.48 3.74 -1.83 -1.83 -3.74 3.75 -1.83 -1.83 -3.74 3.74 -1.83 -10.97 -22.46 -7.48 3.66 -1.83 -3.75 -3.75 1.83 -1.82 -3.74 -7.49 3.65 1.83 3.75 -7.49 3.65 -1.83 -3.74 -3.74 1.83 -1.83 -3.75 -3.74 1.83 -3.66 -7.48 -3.74 1.82 -9.14 -18.71 -3.74 1.83 -1.83 -3.75 -7.31 -14.97 -14.98 7.31 18.72 -9.14 -3.66 -7.48 -7.48 3.65 1.82 3.75 -3.74 1.82 -1.83 -3.74 -3.74 1.83 -1.83 -3.74 -3.74 1.83 -3.66 -7.49 -3.74 1.83 -1.83 -3.75 -3.74 1.83 -3.66 -7.48 -3.74 1.82 -1.83 -3.74 3.74 -1.83 -1.82 -3.74 7.48 -3.66 -1.83 -3.74 -3.74 1.83 -3.66 -7.49 -3.74 1.83 -1.83 -3.74 3.75 -1.83 -5.49 -11.23 3.75 -1.83 -5.49 -11.23 3.74 -1.82 -1.83 -3.75 3.75 -1.83 -3.66 -7.48 3.74 -1.83 -3.65 -7.49 3.74 -1.82 -3.65 -7.49 3.74 -1.83 -1.83 -3.74 -3.74 1.83 1.83 3.74 -3.75 1.83 1.83 3.74 -3.74 1.83 1.83 3.74 -3.75 1.83 1.83 3.74 -3.74 1.83 3.65 7.49 -3.74 1.82 1.83 3.75 -7.49 3.66 1.83 3.74 -3.74 1.83 1.83 3.74 -7.49 3.65 1.83 3.75 -7.49 3.65 1.83 3.75 -11.23 5.48 1.83 3.75 -3.74 1.82 1.82 3.75 -11.22 5.48 -1.83 -3.74 -3.75 1.83 -1.82 -3.75 -3.75 1.83 1.83 3.75 -3.74 1.82 5.48 11.23 -3.74 1.83 1.83 3.74 -7.49 3.66 1.83 3.74 11.23 -5.48 -1.83 -3.74 11.23 -5.49 1.83 3.74 11.23 -5.48 1.82 3.74 7.49 -3.66 1.83 3.75 3.74 -1.83 5.49 11.23 3.74 -1.83 3.66 7.49 3.74 -1.83 1.83 3.74 7.48 -3.65 1.83 3.74 3.74 -1.83 1.83 3.74 3.75 -1.82 1.82 3.74 3.75 -1.83 1.82 3.74 3.75 -1.82 1.83 3.74 3.74 -1.83 3.66 7.49 14.97 -7.32 -11.23 5.49 1.83 3.74 3.74 -1.83 5.48 11.23 3.75 -1.83 3.65 7.49 -3.74 1.83 1.83 3.74 3.74 -1.83 1.83 3.75 7.49 -3.66 1.82 3.74 3.75 -1.82 1.83 3.74 3.74 -1.83 1.83 3.74 3.74 -1.83 1.83 3.75 3.74 -1.83 9.14 18.71 -3.74 1.83 3.66 7.49 -3.75 1.83 1.83 3.74 -3.74 1.83 1.82 3.74 -3.74 1.83 1.83 3.74 -7.49 3.66 1.83 3.74 -7.48 3.66 1.82 3.74 -3.74 1.83 1.83 3.74 -3.74 1.83 1.83 3.74 -7.49 3.66 1.83 3.75 -7.49 3.65 1.83 3.74 -3.74 1.83 3.65 7.49 -7.48 3.66 1.82 3.74 -3.74 1.83 1.83 3.74 -7.49 3.65 1.83 3.75 -11.23 5.48 1.83 3.75 -3.74 1.82 1.83 3.75 -3.75 1.82 3.66 7.49 -3.75 1.83 1.83 3.74 -3.74 1.83 1.83 3.74 -18.72 9.14 -1.82 -3.74 -3.75 1.83 -1.83 -3.74 -11.22 5.48 -1.83 -3.74 -11.23 5.48 3.65 7.49 3.75 -1.83 1.82 3.74 -3.74 1.83 7.32 14.97 3.74 -1.82 3.65 7.48 3.75 -1.83 3.65 7.49 3.75 -1.83 3.65 7.49 3.74 -1.83 14.63 29.94 3.74 -1.82 -1.82 -3.75 3.74 -1.83 -16.45 -33.68 3.74 -1.83 -5.49 -11.23 3.75 -1.83 -5.49 -11.23 22.46 -10.97 -1.83 -3.74 3.75 -1.83 -1.83 -3.74 7.48 -3.66 -1.82 -3.74 7.48 -3.66 -1.83 -3.74 7.49 -3.66 -1.83 -3.74 7.49 -3.66 -1.83 -3.74 3.74 -1.83 -1.83 -3.74 3.75 -1.83 -1.83 -3.74 7.49 -3.66 -1.83 -3.74 3.74 -1.83 -1.83 -3.74 3.75 -1.83 1.83 3.74 7.48 -3.65 1.83 3.74 3.74 -1.83 1.83 3.75 7.49 -3.66 1.82 3.74 3.75 -1.83 1.82 3.75 7.49 -3.66 1.83 3.74 7.49 -3.65 1.82 3.74 3.75 -1.83 3.65 7.49 3.75 -1.83 1.82 3.74 3.75 -1.82 1.83 3.74 3.74 -1.83 1.83 3.74 3.74 -1.83 1.83 3.75 14.97 -7.31 5.48 11.22 -1.82 -3.74 3.74 -1.83 5.48 11.23 3.75 -1.83 3.65 7.49 3.75 -1.83 1.82 3.75 3.75 -1.83 1.83 3.74 7.48 -3.66 1.83 3.75 7.49 -3.66 3.65 7.49 3.75 -1.83 1.82 3.74 3.75 -1.82 3.65 7.48 3.75 -1.83 1.82 3.74 7.49 -3.65 1.83 3.74 3.74 -1.83 1.83 3.75 3.74 -1.83 1.83 3.74 3.74 -1.83 1.83 3.75 3.75 -1.83 1.82 3.74 7.49 -3.66 -3.66 -7.48 14.98 -7.31 -1.83 -3.75 18.71 -9.14 -1.83 -3.74 7.49 -3.66 5.49 11.23 22.45 -10.97 3.75 -1.83 -1.83 -3.74 7.49 -3.65 -1.83 -3.75 7.48 -3.65 -1.83 -3.75 11.23 -5.48 -1.83 -3.74 14.98 -7.32 -1.83 -3.74 3.74 -1.83 -1.83 -3.74 3.75 -1.83 -1.83 -3.74 -11.23 5.48 1.83 3.74 -7.49 3.66 -5.48 -11.23 -3.74 1.83 -3.66 -7.49 -7.49 3.66 3.66 7.49 3.74 -1.83 5.49 11.23 -7.49 3.65 1.83 3.75 -29.95 14.62 1.83 3.75 3.75 -1.83 5.48 11.23 7.48 -3.66 1.83 3.74 1.83 3.75 -7.49 3.65 1.83 3.75 -11.22 5.48 1.82 3.74 -7.48 3.66 1.82 3.74 -18.71 9.14 23.77 48.66 3.74 -1.83 20.11 41.18 -3.75 1.83 1.43 2.92c32.1,-26.93 43.9,-95.9 62.48,-173.68 22.37,-93.65 37.33,-221.88 39.31,-343.25l-12.79 6.24 1.83 3.75 -18.71 9.14 1.83 3.74 -11.24 5.49 1.83 3.74 -14.97 7.31 1.83 3.74 -7.49 3.66 1.83 3.74 -11.23 5.49 -1.83 -3.74 -14.97 7.31 1.83 3.74 -11.23 5.49 1.83 3.74 -3.74 1.83 1.82 3.74 -3.74 1.83 1.83 3.74 -7.49 3.66 1.83 3.74 -7.49 3.66 1.83 3.74 -7.48 3.66 1.82 3.74 -3.74 1.83 1.83 3.74 -3.74 1.83 1.82 3.74 -3.74 1.83 3.66 7.49 3.74 -1.83 1.83 3.74 3.74 -1.83 3.66 7.49 3.74 -1.83 3.66 7.49 3.74 -1.83 3.66 7.48 3.74 -1.82 1.83 3.74 3.74 -1.83 5.49 11.23 -3.75 1.83 -1.82 -3.74 -7.49 3.65 -3.66 -7.48 -3.74 1.82 -1.83 -3.74 -3.74 1.83 -1.83 -3.74 -3.74 1.82 -3.66 -7.48 -3.74 1.83 -1.83 -3.75 -7.49 3.66 -1.83 -3.74 -22.45 10.97 1.83 3.74 -29.95 14.62 1.83 3.75 -7.49 3.65 3.66 7.49 3.74 -1.83 3.66 7.49 3.74 -1.83 1.83 3.74 3.74 -1.82 1.83 3.74 7.49 -3.66 1.83 3.74 11.22 -5.48 1.83 3.74 18.72 -9.14 1.83 3.75 -3.75 1.82 1.83 3.75 -18.71 9.14 1.82 3.74 -18.71 9.14 1.83 3.74 -3.75 1.83 5.49 11.23 -3.74 1.83 3.65 7.49 -3.74 1.82 1.83 3.75 -3.75 1.82 1.83 3.75 -3.74 1.83 3.65 7.48 -3.74 1.83 3.66 7.49 -3.74 1.82 3.65 7.49 -3.74 1.83 1.83 3.74 -3.75 1.83 3.66 7.49 -3.74 1.82 3.65 7.49 -3.74 1.83 5.48 11.23 -3.74 1.83 3.66 7.48 -3.75 1.83 -9.14 -18.71 3.75 -1.83 -5.49 -11.23 3.75 -1.83 -3.66 -7.49 3.74 -1.83 -3.65 -7.48 -3.75 1.83 -3.65 -7.49 11.23 -5.48 -7.32 -14.97 3.75 -1.83 -1.83 -3.75 7.48 -3.65 -7.31 -14.98 3.74 -1.82 -3.65 -7.49 3.74 -1.83 -7.31 -14.97 -3.74 1.83 -1.83 -3.74 -3.75 1.82 -1.82 -3.74 -3.75 1.83 -1.83 -3.74 -3.74 1.82 -3.65 -7.48 -7.49 3.65 -3.66 -7.48 -7.48 3.65 1.83 3.75 -7.49 3.65 1.83 3.75 7.48 -3.66 1.83 3.74 -3.74 1.83 1.83 3.74 -7.49 3.66 1.83 3.74 -11.23 5.49 1.83 3.74 -3.75 1.83 1.83 3.74 -3.74 1.83 3.66 7.49 -3.75 1.83 5.49 11.22 -3.75 1.83 -12.79 -26.2 3.74 -1.83 -1.83 -3.74 3.74 -1.83 -1.82 -3.74 3.74 -1.83 -1.83 -3.74 3.75 -1.83 -1.83 -3.74 3.74 -1.83 -1.83 -3.75 7.49 -3.65 -1.83 -3.75 11.23 -5.48 -1.83 -3.74 3.74 -1.83 -5.48 -11.23 -3.74 1.83 -3.66 -7.49 3.74 -1.83 1.83 3.75 3.74 -1.83 3.66 7.49 3.74 -1.83 1.83 3.74 3.74 -1.83 -5.48 -11.23 -3.74 1.83 -5.49 -11.23 3.75 -1.83 3.65 7.49 3.75 -1.83 3.65 7.49 3.74 -1.83 1.83 3.74 7.49 -3.65 1.83 3.74 29.94 -14.63 1.83 3.75 3.74 -1.83 -1.83 -3.74 14.98 -7.32 -1.83 -3.74 7.49 -3.66 -1.83 -3.74 7.48 -3.66 -1.83 -3.74 3.75 -1.83 -1.83 -3.74 3.74 -1.83 -1.83 -3.74 3.75 -1.83 -1.83 -3.74 3.74 -1.83 -1.83 -3.74 3.75 -1.83 -1.83 -3.75 3.74 -1.82 -1.83 -3.74 3.75 -1.83 3.65 7.48 -5.48 -11.23 3.74 -1.83 3.74 -1.82 -1.82 -3.75 7.48 -3.65 -3.74 1.82 -3.66 -7.48 -3.74 1.83 -1.83 -3.74 -3.74 1.82 -1.83 -3.74 -1.83 -3.74 -7.48 3.65 -3.66 -7.48 -3.74 1.82 -1.83 -3.74 11.23 -5.48 1.83 3.74 3.74 -1.83 1.83 3.74 3.74 -1.82 3.66 7.48 -7.49 3.66 -7.48 3.66 -1.83 -3.75 -3.75 1.83 -1.82 -3.74 -7.49 3.65 1.83 3.75 -11.23 5.48 1.83 3.75 -7.49 3.65 1.83 3.74 -14.97 7.32 1.83 3.74 -18.72 9.14 1.83 3.74 -11.23 5.49 5.48 11.23 -3.74 1.83 -1.83 -3.75 -3.74 1.83 -1.83 -3.74 -7.49 3.65 1.83 3.75 -3.74 1.83 1.83 3.74 -3.75 1.83 1.83 3.74 -3.74 1.83 1.83 3.74 -7.49 3.66 -5.48 -11.23 7.48 -3.66 -1.83 -3.74 3.75 -1.83 -1.83 -3.74 -3.74 1.82 -1.83 -3.74 -7.49 3.66 1.83 3.74 -3.74 1.83 3.66 7.48 -7.49 3.66 -1.83 -3.74 -3.74 1.83 -1.83 -3.75 3.74 -1.82 -1.83 -3.75 3.75 -1.83 -1.83 -3.74 7.48 -3.65 -1.82 -3.75 7.48 -3.65 -1.83 -3.75 7.49 -3.65 -1.83 -3.75 11.23 -5.48 -1.83 -3.74 3.75 -1.83 1.82 3.74 3.75 -1.83 1.83 3.75 3.74 -1.83 1.83 3.74 11.23 -5.48 1.82 3.74 3.75 -1.83 -1.83 -3.74 11.23 -5.49 -1.83 -3.74 7.49 -3.66 -1.83 -3.74 11.23 -5.48 -1.83 -3.75 3.74 -1.82 -1.83 -3.75 3.75 -1.82 -1.83 -3.75 7.49 -3.66 -1.83 -3.74 7.48 -3.66 -1.83 -3.74 3.75 -1.83 -5.49 -11.22 -3.74 1.82 -3.66 -7.48 -11.22 5.48 -5.49 -11.23 -3.74 1.83 -1.83 -3.74 7.49 -3.66 1.82 3.74 3.75 -1.82 1.82 3.74 11.23 -5.49 1.83 3.75 3.74 -1.83 5.49 11.23 3.74 -1.83 3.66 7.49 3.74 -1.83 3.66 7.48 7.48 -3.65 -1.82 -3.74 3.74 -1.83 -1.83 -3.74 22.46 -10.97 3.66 7.48 -3.75 1.83 -1.83 -3.74 -7.48 3.65 1.83 3.75 -3.75 1.82 1.83 3.75 -3.74 1.82 3.66 7.49 22.45 -10.97 -1.82 -3.74 7.48 -3.66 -1.83 -3.74 3.75 -1.83 -3.66 -7.48 11.23 -5.49 1.83 3.74 3.74 -1.82 -1.83 -3.75 7.49 -3.65 -1.83 -3.75 7.49 -3.65 -1.83 -3.75 7.48 -3.65 -1.82 -3.75 3.74 -1.82 -1.83 -3.75 7.49 -3.65 1.83 3.74 -3.75 1.83 1.83 3.74 -3.74 1.83 1.83 3.74 -3.75 1.83 1.83 3.75 -11.23 5.48 1.83 3.74 -3.74 1.83 1.82 3.74 -11.22 5.49 3.65 7.48 -3.74 1.83 5.48 11.23 7.49 -3.66 -1.83 -3.74 14.97 -7.31 -1.83 -3.75 18.72 -9.14 -1.83 -3.74 25.93 -12.66c0.19,-23.46 -0.11,-46.6 -0.96,-69.11l0 -0.07 0 0.07 -1.81 -3.71 1.64 -0.8c-3.33,-81.04 -13.71,-153.68 -33.09,-203.62 -53,-136.48 -140.77,47.95 -239.51,57.03 -46.85,4.31 -119.64,-88.49 -215.52,22.46 -29.06,33.63 -53.36,62.31 -11.74,-19.3 -52.96,-48.03 -97.18,-56.8 -132.57,-36.73l2.72 5.57 3.74 -1.83 1.83 3.75 3.74 -1.83 9.14 18.72 -3.74 1.82 3.66 7.49 3.74 -1.83 12.8 26.2 -3.75 1.83 16.46 33.69 3.74 -1.83 3.66 7.49 7.48 -3.66 1.83 3.74 3.74 -1.82 1.83 3.74 3.75 -1.83 1.82 3.74 7.49 -3.65 1.83 3.74 3.74 -1.83 1.83 3.75 7.49 -3.66 1.82 3.74 3.75 -1.83 3.65 7.49 3.75 -1.83 1.82 3.75 3.75 -1.83 1.82 3.74 3.75 -1.83 1.83 3.74 3.74 -1.82 5.48 11.23 3.75 -1.83 3.65 7.48 3.75 -1.82 9.14 18.71 -3.75 1.83 -1.82 -3.74 -3.75 1.82 -3.65 -7.48 -3.75 1.83 -1.82 -3.75 -3.75 1.83 -3.65 -7.48 -3.75 1.82 -1.83 -3.74 -3.74 1.83 -3.66 -7.49 -3.74 1.83 -1.83 -3.74 -3.74 1.82 -1.83 -3.74 -7.48 3.66 -1.83 -3.74 -3.74 1.82 -1.83 -3.74 -3.75 1.83 -1.82 -3.74 -14.98 7.31 1.83 3.74 -22.46 10.97 1.83 3.74 -3.74 1.83 1.82 3.74 -3.74 1.83 1.83 3.75 -3.74 1.82 3.66 7.49 -3.75 1.83 1.83 3.74 -3.74 1.83 3.65 7.49 -3.74 1.82 1.83 3.75 -3.74 1.83 1.82 3.74 -3.74 1.83 1.83 3.74 -3.74 1.83 1.82 3.74 -3.74 1.83 1.83 3.74 -3.74 1.83 1.82 3.74 -7.48 3.66 -1.83 -3.74 3.74 -1.83 -1.83 -3.75 3.75 -1.82 -1.83 -3.75 3.74 -1.82 -1.83 -3.75 3.75 -1.82 -1.83 -3.75 3.74 -1.83 -3.65 -7.48 3.74 -1.83 -1.83 -3.74 3.74 -1.83 -3.65 -7.49 3.74 -1.83 -3.66 -7.48 3.75 -1.83 -1.83 -3.74 3.74 -1.83 -3.65 -7.49 7.48 -3.66 -1.83 -3.74 22.46 -10.97 -1.83 -3.74 7.49 -3.66 -5.48 -11.23 -3.75 1.83 -1.83 -3.74 -7.48 3.66 -1.83 -3.75 -3.74 1.83 -1.83 -3.74 -3.74 1.83 -18.29 -37.43 3.75 -1.83 -29.99 -61.41c-63.04,39.92 -97.02,173.52 -101.21,339.39 -0.11,4.43 -0.2,8.9 -0.28,13.4l0.22 -0.11 1.83 3.74 11.22 -5.48 1.83 3.74 3.74 -1.83 1.83 3.74 7.49 -3.65 1.83 3.74 11.23 -5.48 1.83 3.74 7.48 -3.66 1.83 3.75 11.23 -5.49 -1.83 -3.74 3.74 -1.83 -1.83 -3.74 7.49 -3.66 -1.83 -3.74 3.75 -1.83 -3.66 -7.48 3.74 -1.83 -3.65 -7.49 3.74 -1.83 -5.49 -11.23 3.75 -1.83 -1.83 -3.74 7.49 -3.65 1.82 3.74 -3.74 1.83 1.83 3.74 -3.74 1.83 7.31 14.97 -3.74 1.83 1.82 3.74 -3.74 1.83 5.49 11.23 7.48 -3.66 1.83 3.75 11.23 -5.49 1.83 3.74 18.71 -9.13 1.83 3.74 3.74 -1.83 1.83 3.74 7.49 -3.65 1.83 3.74 37.43 -18.28 -1.83 -3.75 3.74 -1.82 -3.65 -7.49 3.74 -1.83 -3.66 -7.48 3.75 -1.83 -3.66 -7.49 3.74 -1.83 -1.83 -3.74 3.75 -1.83 -1.83 -3.74 3.74 -1.83 -3.65 -7.49 3.74 -1.82 -9.14 -18.72 -3.75 1.83 -3.65 -7.49 -3.75 1.83 -1.82 -3.74 3.74 -1.83 -5.48 -11.23 -1.83 -3.74 -3.74 1.83 -1.83 -3.75 -7.49 3.66 1.83 3.74 3.74 -1.83 1.83 3.75 7.49 -3.66 11.22 -5.48 -1.82 -3.75 7.48 -3.65 7.49 -3.66 -1.83 -3.74 7.49 -3.66 -1.83 -3.74 18.71 -9.14 -3.65 -7.49 -11.23 5.49 1.83 3.74 -11.23 5.48 1.83 3.75 -3.75 1.82 1.83 3.75 -7.49 3.65 1.83 3.75 3.66 7.48 -3.74 1.83 1.82 3.74 -3.74 1.83 1.83 3.75 -3.74 1.82 3.65 7.49 3.75 -1.83 12.79 26.2 -3.74 1.83 5.48 11.23 -3.74 1.83 1.83 3.74 11.23 -5.48 -3.66 -7.49 7.49 -3.66 -5.49 -11.22 3.75 -1.83 1.82 3.74 3.75 -1.83 5.48 11.23 3.75 -1.83 5.48 11.23 3.74 -1.83 1.83 3.75 3.74 -1.83 1.83 3.74 3.74 -1.83 -1.82 -3.74 3.74 -1.83 -7.31 -14.97 3.74 -1.83 5.49 11.23 3.74 -1.83 1.83 3.75 3.74 -1.83 -1.83 -3.74 3.75 -1.83 -1.83 -3.75 7.48 -3.65 -1.83 -3.75 3.75 -1.82 -1.83 -3.75 7.48 -3.65 -1.82 -3.74 3.74 -1.83 -1.83 -3.75 3.75 -1.82 -1.83 -3.75 7.48 -3.65 -1.83 -3.75 3.75 -1.83 -1.83 -3.74 3.74 -1.83 -1.82 -3.74 7.48 -3.66 3.66 7.49 -3.75 1.83 1.83 3.74 -3.74 1.83 1.83 3.74 -3.75 1.83 9.15 18.72 -3.75 1.82 5.49 11.23 -3.75 1.83 3.66 7.49 -3.74 1.83 1.82 3.74 3.75 -1.83 3.65 7.49 3.75 -1.83 3.65 7.49 3.75 -1.83 3.65 7.48 3.75 -1.83 1.82 3.75 3.75 -1.83 1.83 3.74 7.48 -3.65 -1.83 -3.75 3.75 -1.82 5.48 11.22 3.74 -1.82 3.66 7.48 3.74 -1.83 1.83 3.75 7.49 -3.66 -1.83 -3.74 3.74 -1.83 3.75 -1.83 -1.83 -3.74 7.48 -3.66 -1.82 -3.74 14.97 -7.31 -1.83 -3.75 7.49 -3.65 -1.83 -3.74 3.74 -1.83 -1.83 -3.75 -3.74 1.83 1.83 3.75 -11.23 5.48 1.83 3.74 -14.98 7.31 1.83 3.75 -3.74 1.83 1.83 3.74 -3.75 1.83 1.83 3.74 7.32 14.97 3.74 -1.83 7.31 14.98 3.74 -1.83 12.8 26.2 -3.74 1.83 -3.66 -7.49 -3.74 1.83 -12.8 -26.2 -3.74 1.83 -3.66 -7.49 -3.74 1.83 -1.83 -3.74 -3.74 1.82 -1.83 -3.74 -7.49 3.66 -1.82 -3.75 -3.75 1.83 -3.65 -7.48 -3.75 1.82 -1.82 -3.74 -3.75 1.83 -1.83 -3.74 -7.48 3.65 1.83 3.74 -7.49 3.66 -1.83 -3.74 3.74 -1.83 -3.65 -7.49 -3.75 1.83 -3.65 -7.48 -3.74 1.82 -3.66 -7.48 -3.74 1.83 -1.83 -3.75 -3.75 1.83 5.49 11.23 -3.74 1.83 3.65 7.48 3.75 -1.82 1.82 3.74 3.75 -1.83 1.83 3.74 -11.23 5.49 -1.83 -3.74 -7.49 3.65 3.66 7.49 -3.74 1.83 -5.49 -11.23 -22.46 10.97 -1.83 -3.75 -18.71 9.14 -1.83 -3.74 -7.49 3.66 -1.82 -3.74 -14.98 7.31 -1.82 -3.75 -44.92 21.94 -1.83 -3.74 -3.74 1.83 -1.83 -3.75 -7.49 3.66 -1.82 -3.74 -7.49 3.65 -1.83 -3.74 -11.23 5.49 -1.83 -3.75 -18.71 9.14 -1.83 -3.74 -11.23 5.48 -1.83 -3.74 -7.48 3.66 -1.83 -3.75 -3.74 1.83 1.82 3.74 -3.74 1.83 1.83 3.75 -3.75 1.82 9.15 18.72 3.74 -1.83 1.83 3.75 7.48 -3.66 1.83 3.74 -11.23 5.49 1.83 3.74 -3.74 1.83 3.65 7.48 -3.74 1.83 1.83 3.75 3.74 -1.83 3.66 7.48 -3.74 1.83 1.82 3.74 -3.74 1.83 1.83 3.74 -3.75 1.83 -9.13 -18.71 3.74 -1.83 -7.31 -14.97 3.74 -1.83 -9.14 -18.72 -3.75 1.83 -3.65 -7.48 -14.97 7.31 -1.83 -3.74 -3.74 1.82 -1.83 -3.74 -7.49 3.66 -1.83 -3.75 -3.74 1.83 -1.83 -3.74 -7.49 3.65 -1.82 -3.74 -7.49 3.66 -1.83 -3.74 -3.74 1.82 1.83 3.75 -2.15 1.04c-0.13,13.91 -0.09,28.07 0.16,42.35l0.01 0.14 -0.01 -0.14 3.38 6.92 3.66 7.49 3.74 -1.83 -3.65 -7.49 -3.75 1.83 -3.2 1.57c3.54,150.76 31.19,310.82 128.87,306.37 17.99,-0.82 37.27,-6.63 56.22,-8.23 38.72,-3.26 48.21,9.75 75.98,22.53zm24.44 -28.98l3.75 -1.83 1.82 3.75 -3.74 1.83 -1.83 -3.75zm0 0l-3.74 1.83 -1.83 -3.74 3.74 -1.83 1.83 3.74zm283.69 -254.45l3.66 7.48 -3.75 1.83 -1.83 -3.74 -3.74 1.83 -1.83 -3.75 7.49 -3.65zm-22.29 -7.66l-1.82 -3.75 3.74 -1.82 1.83 3.74 -3.75 1.83zm-28.11 18.37l1.83 3.74 -7.49 3.66 -1.83 -3.75 7.49 -3.65zm108.82 317.72l2.05 4.2 -0.04 0.02 0.04 -0.03 -2.05 -4.19zm-523.31 -785.07c-0.98,0.56 -1.95,1.14 -2.92,1.75 0.96,-0.61 1.94,-1.19 2.92,-1.75zm186.06 189.49l1.83 3.75 3.74 -1.83 -1.83 -3.75 7.49 -3.65 1.83 3.74 3.74 -1.83 1.83 3.74 7.48 -3.65 1.83 3.74 3.75 -1.82 1.82 3.74 11.23 -5.49 1.83 3.74 7.49 -3.65 1.83 3.74 14.97 -7.31 1.83 3.74 14.97 -7.31 -1.83 -3.74 -3.74 1.83 -1.83 -3.75 -11.23 5.49 -1.83 -3.75 -7.48 3.66 -1.83 -3.74 -3.74 1.83 -1.83 -3.75 -3.75 1.83 -1.83 -3.74 -7.48 3.65 -1.83 -3.74 -3.74 1.83 -1.83 -3.74 -3.74 1.82 -1.83 -3.74 -3.74 1.83 -1.83 -3.75 -7.49 3.66 -1.83 -3.74 -3.74 1.83 -1.83 -3.75 -3.74 1.83 -1.83 -3.74 -3.74 1.83 -1.83 -3.75 -3.74 1.83 5.48 11.23 3.74 -1.83 3.66 7.49 -11.23 5.48 3.66 7.49 3.74 -1.83zm4.18 150.94l-1.82 -3.74 11.22 -5.48 5.49 11.23 14.97 -7.32 -1.83 -3.74 -3.74 1.83 -1.83 -3.74 -3.74 1.83 -1.83 -3.75 -3.74 1.83 -1.83 -3.74 7.49 -3.66 -1.83 -3.74 3.74 -1.83 -3.65 -7.49 -7.49 3.66 1.83 3.74 -3.75 1.83 -1.83 -3.74 -7.48 3.65 1.83 3.75 -3.74 1.82 1.82 3.75 -11.23 5.48 5.49 11.23 7.48 -3.66zm183.59 91.14l1.83 3.74 22.46 -10.97 -1.83 -3.74 7.49 -3.66 -1.83 -3.74 -33.69 16.45 1.83 3.75 3.74 -1.83zm-90.8 -252.35l1.83 3.74 14.97 -7.31 -1.83 -3.75 3.75 -1.82 -1.83 -3.75 -14.97 7.32 -1.83 -3.75 -7.49 3.66 3.66 7.48 3.74 -1.82zm234.86 613.71c0.44,-0.17 0.88,-0.35 1.32,-0.53 -0.44,0.18 -0.88,0.36 -1.32,0.53zm2.61 -1.1c0.36,-0.17 0.72,-0.34 1.08,-0.51 -0.36,0.17 -0.72,0.34 -1.08,0.51zm2.49 -1.23c0.33,-0.17 0.66,-0.35 0.99,-0.54 -0.33,0.19 -0.66,0.37 -0.99,0.54zm-492.48 -501.95l-1.83 -3.75 3.74 -1.83 -3.66 -7.48 -11.22 5.48 1.82 3.75 -3.74 1.82 3.66 7.49 11.23 -5.48zm-85.4 -32.47l-9.14 -18.72 -3.74 1.83 9.14 18.72 3.74 -1.83zm682.38 -55.13l-3.66 -7.48 -7.48 3.66 3.65 7.48 7.49 -3.66zm-367.43 244.36l-1.83 -3.74 -3.74 1.83 -1.83 -3.74 -7.48 3.65 1.82 3.75 3.75 -1.83 1.82 3.74 7.49 -3.66 1.83 3.75 3.74 -1.83 1.83 3.74 3.74 -1.83 -3.65 -7.48 3.74 -1.83 -1.83 -3.74 7.49 -3.66 1.83 3.74 7.48 -3.65 -1.83 -3.75 18.72 -9.14 -3.66 -7.48 -18.71 9.14 1.83 3.74 -7.49 3.66 -1.83 -3.75 -7.48 3.66 1.82 3.74 -3.74 1.83 1.83 3.74 -3.75 1.83 1.83 3.75 -3.74 1.82zm246.44 143.89l-3.65 -7.49 -3.75 1.83 1.83 3.74 -3.74 1.83 1.83 3.75 7.48 -3.66zm-550.33 -319.98l-5.49 -11.23 -3.74 1.83 5.48 11.23 3.75 -1.83zm10.96 22.46l-1.82 -3.74 3.74 -1.83 -1.83 -3.74 -7.48 3.65 3.65 7.49 3.74 -1.83zm429.16 -70.52l-1.83 -3.74 -3.74 1.82 -1.83 -3.74 -3.75 1.83 3.66 7.48 7.49 -3.65zm-232.25 -67.37l1.82 3.74 3.75 -1.83 -3.66 -7.48 -7.49 3.66 1.83 3.74 3.75 -1.83zm172.62 268.02l-1.82 -3.74 -7.49 3.65 1.83 3.75 7.48 -3.66zm-207.01 -177.05l-3.65 -7.49 -3.75 1.83 3.66 7.49 3.74 -1.83zm32.65 95.31l-1.83 -3.74 -7.48 3.66 1.82 3.74 7.49 -3.66zm362.83 249.3l-3.66 -7.48 -3.74 1.83 3.66 7.48 3.74 -1.83zm-297.8 -230.06l-3.66 -7.48 -3.74 1.82 3.66 7.49 3.74 -1.83zm383.1 -126.84l-1.83 -3.74 -7.49 3.65 1.83 3.74 7.49 -3.65zm-438.99 126.32l-1.83 -3.74 -7.48 3.65 1.83 3.75 7.48 -3.66zm120.31 84.96l-1.83 -3.75 -3.74 1.83 1.82 3.75 3.75 -1.83zm110.03 -12.02l-1.83 -3.74 -3.74 1.83 1.82 3.74 3.75 -1.83zm-494.8 -82.86l-1.82 -3.74 -3.75 1.83 1.83 3.74 3.74 -1.83zm248.01 -23.77l-1.83 -3.74 -3.74 1.83 1.82 3.74 3.75 -1.83zm-191.42 -50.22l-1.83 -3.74 -3.75 1.83 1.83 3.74 3.75 -1.83z"/>
 </g>
</svg>
