<?xml version="1.0" encoding="UTF-8"?>
<!DOCTYPE svg PUBLIC "-//W3C//DTD SVG 1.1//EN" "http://www.w3.org/Graphics/SVG/1.1/DTD/svg11.dtd">
<!-- Creator: CorelDRAW (Versión de evaluación) -->
<svg xmlns="http://www.w3.org/2000/svg" xml:space="preserve" width="739px" height="2458px" version="1.1" style="shape-rendering:geometricPrecision; text-rendering:geometricPrecision; image-rendering:optimizeQuality; fill-rule:evenodd; clip-rule:evenodd"
viewBox="0 0 739 2457.4"
 xmlns:xlink="http://www.w3.org/1999/xlink"
 xmlns:xodm="http://www.corel.com/coreldraw/odm/2003">
 <defs>
  <style type="text/css">
   <![CDATA[
    .str0 {stroke:#373435;stroke-width:10;stroke-miterlimit:22.9256}
    .fil0 {fill:#FEFEFE}
   ]]>
  </style>
 </defs>
 <g id="tooth-fissure-crown-35">
  <metadata id="CorelCorpID_0Corel-Layer"/>
  <path id="root" class="fil0 str0" d="M507.76 2455.72c-111.82,21.73 -172.82,-173.87 -209.94,-271.91 -120.47,-318.13 -126.85,-541.65 -107.37,-869.25 14.08,-236.76 -45.72,-370.18 -44.57,-451.84 136.29,-21.51 188.93,81.7 265.09,60.73 109.36,-30.1 59.21,-96.17 247.29,-81.94 13.05,653.68 -119.72,934.16 -140.02,1197.48 -18.38,238.28 41.96,338.28 -10.48,416.73z"/>
  <path id="crown" class="fil0 str0" d="M719.53 255.51c23.7,38.34 18.63,153.52 18.52,203.33 -0.24,95.42 -10.93,294.82 -78.59,352.64 -60.02,-0.05 -68.7,-14.39 -135.05,11.72 -146.56,57.68 -64.24,118.44 -236.07,29.88 -64.04,-33.01 -100.51,-18.2 -166.68,-15.78 -73.21,-131.5 -97.56,-306.9 -114.54,-474.59 -7.54,-74.44 -25.93,-208.45 50.24,-238.99 152.14,-60.98 259.35,-182.78 396.22,-90.04 27.91,18.92 52.64,45.31 74.8,68.59 38.68,40.62 181.4,137.48 191.15,153.24zm1.64 410.27c-1.86,10.11 -3.92,20.06 -6.2,29.76l-1.69 -0.91 1.97 -3.67 -3.68 -1.97 5.9 -11.01 -3.67 -1.97 5.9 -11.02 1.47 0.79zm-8.33 38.49c-1.74,6.9 -3.6,13.65 -5.59,20.21l-0.4 -0.21 -1.96 3.67 -3.67 -1.96 -3.94 7.34 -3.67 -1.97 -3.94 7.35 -3.67 -1.97 -3.93 7.34 -3.67 -1.96 -3.94 7.34 -3.67 -1.97 -1.97 3.67 -3.67 -1.96 -1.97 3.67 -3.67 -1.97 -3.93 7.35 -3.67 -1.97 -1.97 3.67 -3.67 -1.97 -1.97 3.68 3.67 1.96 -1.97 3.68 -1.96 3.67 3.67 1.96 -1.97 3.68 3.68 1.96 -3.94 7.35 3.67 1.97 -1.96 3.67 3.67 1.96 -3.94 7.35 3.68 1.96 -3.94 7.35 2.14 1.14c-5.98,-0.18 -11.42,-0.49 -16.47,-0.86l9.22 -17.2 -3.68 -1.97 3.94 -7.34 -3.67 -1.97 3.93 -7.34 -3.67 -1.97 1.97 -3.67 -3.67 -1.97 1.96 -3.67 -3.67 -1.97 -3.93 7.35 -3.68 -1.97 -1.96 3.67 -3.68 -1.96 -1.96 3.67 -3.67 -1.97 -1.97 3.67 -3.67 -1.96 -7.87 14.68 -3.67 -1.96 -1.97 3.67 7.34 3.93 -1.96 3.68 7.34 3.93 -4.43 8.27c-2.5,-0.19 -4.96,-0.34 -7.43,-0.45l-16.07 -8.61 1.96 -3.67 -3.67 -1.97 1.97 -3.67 -7.35 -3.93 -1.96 3.67 -3.67 -1.97 -1.97 3.67 -3.67 -1.96 -1.97 3.67 -3.67 -1.97 -7.35 -3.93 -11.01 -5.9 3.93 -7.35 -3.67 -1.96 1.97 -3.68 -3.68 -1.96 3.94 -7.35 3.67 1.97 3.93 -7.34 -3.67 -1.97 1.97 -3.67 -3.67 -1.97 1.97 -3.67 -7.35 -3.94 1.97 -3.67 -18.36 -9.83 1.97 -3.68 -3.68 -1.96 -14.68 -7.87 -1.97 3.67 -7.34 -3.93 3.93 -7.35 3.67 1.97 1.97 -3.67 -3.67 -1.97 1.96 -3.67 -3.67 -1.97 1.97 -3.67 -7.35 -3.93 1.97 -3.68 -3.67 -1.96 1.97 -3.67 -7.35 -3.94 1.97 -3.67 -3.67 -1.97 -1.97 3.67 -3.67 -1.96 -3.94 7.34 -3.67 -1.96 1.97 -3.68 -7.34 -3.93 1.96 -3.67 -3.67 -1.97 -1.97 3.67 -11.01 -5.9 -1.97 3.67 -11.02 -5.9 -1.96 3.67 -3.67 -1.96 -1.97 3.67 -7.35 -3.94 -1.96 3.68 -7.35 -3.94 -1.96 3.67 -7.35 -3.93 -1.96 3.67 -3.68 -1.97 1.97 -3.67 3.67 1.97 1.97 -3.67 3.67 1.97 1.97 -3.68 3.67 1.97 1.97 -3.67 3.67 1.96 1.97 -3.67 7.34 3.94 1.97 -3.68 3.67 1.97 3.93 -7.34 3.68 1.96 1.96 -3.67 3.68 1.97 3.93 -7.34 3.67 1.96 3.94 -7.34 3.67 1.97 5.9 -11.02 3.67 1.97 1.97 -3.68 3.67 1.97 5.9 -11.01 -3.67 -1.97 1.97 -3.67 -3.68 -1.97 1.97 -3.67 3.67 1.97 1.97 -3.68 11.01 5.9 1.97 -3.67 3.67 1.97 3.94 -7.34 3.67 1.96 -5.9 11.02 -3.67 -1.97 -5.9 11.02 3.67 1.97 -5.9 11.01 3.67 1.97 -1.97 3.67 -1.97 3.67 3.68 1.97 -1.97 3.67 11.01 5.9 -1.96 3.67 7.34 3.94 -1.96 3.67 3.67 1.97 -3.94 7.34 3.68 1.97 -1.97 3.67 3.67 1.97 -1.97 3.67 3.68 1.97 -1.97 3.67 3.67 1.97 -1.97 3.67 3.68 1.96 -1.97 3.68 7.34 3.93 -1.97 3.67 3.68 1.97 -1.97 3.67 11.02 5.9 -1.97 3.67 7.34 3.94 1.97 -3.67 3.67 1.96 -1.96 3.68 3.67 1.96 -3.94 7.35 3.67 1.96 -1.96 3.68 3.67 1.96 -1.97 3.67 3.67 1.97 -1.96 3.67 3.67 1.97 -1.97 3.67 18.36 9.84 1.97 -3.67 7.34 3.93 1.97 -3.67 3.67 1.96 1.97 -3.67 3.67 1.97 1.97 -3.67 3.67 1.96 3.93 -7.34 3.68 1.97 3.93 -7.35 3.67 1.97 1.97 -3.67 3.67 1.97 1.97 -3.68 3.67 1.97 3.93 -7.34 3.68 1.96 3.93 -7.34 3.67 1.97 1.97 -3.67 7.34 3.93 3.94 -7.34 3.67 1.96 1.97 -3.67 3.67 1.97 3.93 -7.35 3.68 1.97 5.9 -11.01 3.67 1.96 1.97 -3.67 3.67 1.97 1.96 -3.68 7.35 3.94 1.96 -3.67 3.68 1.96 1.96 -3.67 3.68 1.97 1.96 -3.67 3.76 -7.02zm-85.04 105.82c-6.53,-0.54 -12.42,-1.15 -18.02,-1.64l1.61 -3 3.67 1.97 3.93 -7.35 7.34 3.94 -1.96 3.67 3.67 1.96 -0.24 0.45zm-185.42 60.77c-5.79,4.98 -10.57,9.48 -14.94,13.32l10.84 -20.24 3.67 1.97 -1.96 3.67 2.39 1.28zm-45.83 26.87c-3.85,-0.15 -8.14,-0.81 -13.08,-2.05l1.83 -3.41 3.67 1.96 3.94 -7.34 3.67 1.97 3.93 -7.35 3.67 1.97 1.97 -3.67 3.67 1.96 1.97 -3.67 3.67 1.97 -1.97 3.67 3.68 1.97 -3.94 7.34 -7.34 -3.93 -1.97 3.67 -3.67 -1.97 -3.7 6.91zm-375.97 -418.22l-0.03 -0.24 1.87 -3.5 62.43 33.44 1.97 -3.67 36.72 19.67 -1.97 3.67 3.67 1.97 -1.97 3.67 3.67 1.97 -3.93 7.34 3.67 1.97 -1.96 3.67 11.01 5.9 1.97 -3.67 1.97 -3.67 3.67 1.96 11.8 -22.03 3.67 1.97 1.97 -3.67 1.97 -3.67 7.34 3.93 1.97 -3.67 3.67 1.96 1.97 -3.67 7.34 3.94 1.97 -3.68 7.34 3.94 1.97 -3.67 3.67 1.96 1.97 -3.67 7.34 3.94 1.97 -3.68 3.67 1.97 1.97 -3.67 3.67 1.97 1.97 -3.68 3.67 1.97 1.97 -3.67 3.67 1.97 1.97 -3.68 3.67 1.97 -3.94 7.35 -3.67 -1.97 -1.97 3.67 -3.67 -1.97 -1.96 3.67 -3.68 -1.96 -1.96 3.67 -3.68 -1.97 -1.96 3.68 -3.68 -1.97 -1.96 3.67 -3.67 -1.97 -1.97 3.68 -7.35 -3.94 -1.96 3.67 -3.67 -1.96 -1.97 3.67 -7.35 -3.94 -1.96 3.68 -3.68 -1.97 -1.96 3.67 -3.67 -1.97 -1.97 3.68 -3.67 -1.97 -11.8 22.03 -3.68 -1.97 -7.86 14.69 3.67 1.97 -1.97 3.67 3.67 1.97 -1.96 3.67 3.67 1.97 -3.94 7.34 3.67 1.97 -1.96 3.67 3.67 1.97 -1.97 3.67 7.35 3.93 -1.97 3.67 3.67 1.97 -1.96 3.67 7.34 3.94 -1.97 3.67 3.67 1.97 -1.96 3.67 7.34 3.93 -1.97 3.67 3.68 1.97 -1.97 3.67 -18.36 -9.83 1.97 -3.67 -7.35 -3.94 1.97 -3.67 -11.02 -5.9 1.97 -3.67 -3.67 -1.97 1.96 -3.67 -3.67 -1.97 1.97 -3.67 -3.67 -1.97 1.96 -3.67 -7.34 -3.93 1.97 -3.68 -3.67 -1.96 3.93 -7.35 -3.67 -1.96 1.97 -3.68 -3.68 -1.96 3.94 -7.35 -3.68 -1.96 1.97 -3.68 -3.67 -1.96 1.97 -3.68 -3.67 -1.96 3.93 -7.35 -7.34 -3.93 1.96 -3.67 -33.05 -17.71 -1.96 3.68 -25.71 -13.77 1.97 -3.67 -7.34 -3.94 -1.97 3.67 -18.36 -9.83 1.97 -3.67 -3.67 -1.97 1.96 -3.67 -7.22 -3.87zm-0.97 -7.31l-0.37 -2.86 1.48 0.79 -1.11 2.07zm535.09 -346.07c4.15,3.46 8.55,7.05 13.15,10.74l-6.97 13.01 -3.67 -1.97 -3.93 7.34 3.67 1.97 -11.8 22.03 -3.67 -1.96 -13.77 25.7 -3.68 -1.97 -1.96 3.67 3.67 1.97 -3.94 7.35 3.68 1.96 -1.97 3.67 11.02 5.9 -1.97 3.68 3.67 1.96 1.97 -3.67 7.34 3.93 -1.97 3.68 -3.67 -1.97 -3.93 7.35 3.67 1.96 -1.97 3.67 3.68 1.97 -1.97 3.67 3.67 1.97 -1.97 3.67 7.35 3.94 -1.97 3.67 7.34 3.93 -1.96 3.67 3.67 1.97 -1.97 3.67 -7.34 -3.93 1.96 -3.67 -11.01 -5.9 1.97 -3.68 -7.35 -3.93 1.97 -3.67 -3.67 -1.97 1.96 -3.67 -7.34 -3.94 1.97 -3.67 -7.35 -3.93 1.97 -3.67 -7.34 -3.94 1.96 -3.67 -7.34 -3.93 1.97 -3.68 -3.68 -1.96 1.97 -3.68 -7.34 -3.93 -1.97 3.67 -3.67 -1.96 -1.97 3.67 -3.67 -1.97 -1.97 3.67 -3.67 -1.96 -1.97 3.67 -3.67 -1.97 -3.93 7.35 -3.67 -1.97 -3.94 7.34 -3.67 -1.96 -3.93 7.34 -3.68 -1.97 -1.96 3.67 -3.67 -1.96 -1.97 3.67 -7.35 -3.94 -1.96 3.68 -3.68 -1.97 -3.93 7.34 -3.67 -1.96 -3.94 7.34 3.68 1.97 -3.94 7.34 -3.67 -1.97 -1.97 3.68 3.67 1.96 -1.96 3.68 3.67 1.96 -3.93 7.35 3.67 1.96 -1.97 3.68 3.67 1.96 -1.96 3.67 3.67 1.97 -3.94 7.35 3.68 1.96 -3.94 7.35 3.67 1.96 -1.96 3.68 -1.97 3.67 3.67 1.97 -5.9 11.01 7.34 3.93 -1.96 3.68 11.01 5.9 -3.93 7.34 3.67 1.97 -5.9 11.01 3.67 1.97 -1.97 3.67 3.68 1.97 -3.94 7.34 3.67 1.97 -1.96 3.67 11.01 5.9 -1.96 3.68 3.67 1.96 -1.97 3.68 7.35 3.93 -1.97 3.67 -7.35 -3.93 1.97 -3.67 -7.34 -3.94 1.96 -3.67 -18.35 -9.84 -1.97 3.68 -3.67 -1.97 -1.97 3.67 -3.67 -1.97 -1.97 3.68 -3.67 -1.97 -1.97 3.67 -3.67 -1.97 -3.94 7.35 -3.67 -1.97 -1.96 3.67 3.67 1.97 -3.94 7.34 3.67 1.97 -3.93 7.35 3.67 1.96 -1.96 3.67 3.67 1.97 -3.94 7.35 3.68 1.96 -1.97 3.67 3.67 1.97 -7.87 14.69 7.35 3.93 -1.97 3.67 18.36 9.84 1.97 -3.67 14.69 7.87 1.96 -3.68 18.36 9.84 -1.97 3.67 -3.67 -1.97 -1.97 3.68 -3.67 -1.97 -1.96 3.67 -7.35 -3.93 1.97 -3.67 -3.67 -1.97 -1.97 3.67 -7.34 -3.93 -1.97 3.67 -3.67 -1.97 -5.9 11.02 -3.68 -1.97 3.94 -7.34 -3.67 -1.97 1.96 -3.67 -18.36 -9.84 -1.96 3.67 -3.68 -1.96 -1.96 3.67 -3.67 -1.97 -1.97 3.67 3.67 1.97 -3.93 7.34 3.67 1.97 -5.9 11.02 3.67 1.97 -9.84 18.35 3.68 1.97 -5.91 11.02 3.68 1.96 -3.94 7.35 3.67 1.97 -3.93 7.34 3.67 1.97 -1.96 3.67 3.67 1.97 -23.61 44.06 3.68 1.97 -7.87 14.68 3.67 1.97 -3.94 7.35 3.68 1.96 -9.84 18.36 3.67 1.97 -7.86 14.69 -3.94 7.34 11.02 5.9 -1.97 3.67 -7.34 -3.93 -3.94 7.34 3.67 1.97 -5.9 11.02 -3.67 -1.97 1.97 -3.67 -3.67 -1.97 1.96 -3.67 -7.34 -3.93 -1.97 3.67 -11.01 -5.9 -1.97 3.67 3.67 1.97 -1.97 3.67 7.35 3.93 -1.97 3.67 7.35 3.94 -1.97 3.67 7.34 3.93 1.97 -3.67 3.67 1.97 -3.93 7.34 -3.68 -1.97 -3.93 7.35 3.67 1.97 -1.96 3.67 3.67 1.97 -1.97 3.67 7.34 3.93 -1.96 3.67 3.67 1.97 -3.93 7.34 3.67 1.97 -1.97 3.67 3.67 1.97 -1.96 3.67 7.34 3.94 -1.97 3.67 25.71 13.77 -1.97 3.67 7.34 3.93 -1.96 3.68 -25.71 -13.77 1.97 -3.68 -14.69 -7.86 1.97 -3.67 -14.69 -7.87 -1.97 3.67 -3.67 -1.97 -3.93 7.35 -3.68 -1.97 -7.86 14.69 -3.68 -1.97 -3.93 7.34 -3.67 -1.96 -1.97 3.67 -3.67 -1.97 1.97 -3.67 3.67 1.97 5.9 -11.02 3.67 1.97 7.87 -14.69 3.67 1.97 1.97 -3.68 3.67 1.97 1.97 -3.67 3.67 1.97 1.97 -3.68 3.67 1.97 3.93 -7.34 -3.67 -1.97 1.97 -3.67 -7.35 -3.93 1.97 -3.68 -11.01 -5.9 1.96 -3.67 3.68 1.97 3.93 -7.35 -3.67 -1.96 1.96 -3.68 -3.67 -1.96 1.97 -3.68 -7.35 -3.93 1.97 -3.67 -7.34 -3.94 1.96 -3.67 -7.34 -3.93 1.97 -3.67 -3.67 -1.97 -1.97 3.67 -7.34 -3.93 -1.97 3.67 -11.02 -5.9 -1.96 3.67 -11.02 -5.9 -7.34 -3.94 -1.97 3.68 -3.67 -1.97 -1.97 3.67 -3.67 -1.97 -1.97 3.68 -7.34 -3.94 3.93 -7.34 3.67 1.97 1.97 -3.68 3.67 1.97 1.97 -3.67 3.67 1.97 3.93 -7.35 3.68 1.97 1.96 -3.67 3.68 1.96 1.96 -3.67 3.67 1.97 3.94 -7.35 3.67 1.97 1.97 -3.67 3.67 1.97 3.93 -7.35 3.68 1.97 1.96 -3.67 3.67 1.96 1.97 -3.67 -3.67 -1.96 1.97 -3.68 -11.02 -5.9 1.97 -3.67 14.69 7.87 1.96 -3.67 3.67 1.96 1.97 -3.67 -3.67 -1.96 1.97 -3.68 -3.68 -1.96 1.97 -3.68 -11.01 -5.9 1.96 -3.67 -11.01 -5.9 1.96 -3.67 -3.67 -1.97 1.97 -3.67 11.02 5.9 3.93 -7.34 7.34 3.93 5.9 -11.02 -3.67 -1.96 -1.97 3.67 -11.01 -5.9 -1.97 3.67 -25.7 -13.77 1.97 -3.67 -7.35 -3.94 -1.97 3.68 -3.67 -1.97 -1.96 3.67 -3.68 -1.97 -1.96 3.68 -7.35 -3.94 -3.93 7.35 -3.67 -1.97 -3.94 7.34 -3.67 -1.96 -9.84 18.36 -7.34 -3.94 5.9 -11.01 3.67 1.96 5.91 -11.01 3.67 1.96 1.96 -3.67 3.68 1.97 3.93 -7.34 3.67 1.96 3.94 -7.34 3.67 1.97 5.9 -11.02 -3.67 -1.97 1.96 -3.67 -3.67 -1.97 3.94 -7.34 3.67 1.97 -1.97 3.67 3.67 1.96 -3.93 7.35 11.02 5.9 1.96 -3.67 3.68 1.97 -1.97 3.67 7.34 3.93 -1.97 3.67 18.36 9.84 1.97 -3.67 7.35 3.93 1.96 -3.67 3.67 1.97 1.97 -3.68 3.67 1.97 1.97 -3.67 7.34 3.93 1.97 -3.67 7.35 3.94 1.96 -3.68 7.35 3.94 1.96 -3.68 3.68 1.97 19.67 -36.72 -3.68 -1.96 3.94 -7.35 -3.67 -1.97 1.96 -3.67 -3.67 -1.96 9.84 -18.36 -3.68 -1.97 5.91 -11.02 -3.68 -1.96 3.94 -7.35 -11.02 -5.9 -1.96 3.67 -3.68 -1.96 -1.96 3.67 -14.69 -7.87 -1.97 3.67 -3.67 -1.97 -1.97 3.68 -3.67 -1.97 3.93 -7.34 3.68 1.96 1.96 -3.67 11.02 5.9 1.96 -3.67 7.35 3.93 1.97 -3.67 7.34 3.94 1.97 -3.68 3.67 1.97 3.93 -7.34 3.68 1.96 1.96 -3.67 3.67 1.97 5.91 -11.02 -3.68 -1.96 3.94 -7.35 -3.67 -1.96 5.9 -11.02 -3.68 -1.97 3.94 -7.34 -3.67 -1.97 1.97 -3.67 -3.68 -1.97 1.97 -3.67 3.93 -7.34 -3.67 -1.97 7.87 -14.69 3.67 1.97 1.97 -3.67 7.34 3.93 3.94 -7.34 3.67 1.96 1.96 -3.67 7.35 3.94 1.97 -3.68 -3.68 -1.96 7.87 -14.69 -3.67 -1.97 5.9 -11.01 -11.01 -5.91 1.96 -3.67 -7.34 -3.93 1.97 -3.67 1.96 -3.68 -3.67 -1.96 7.87 -14.69 -3.67 -1.97 3.93 -7.34 -3.67 -1.97 3.93 -7.34 -3.67 -1.97 1.97 -3.67 -3.67 -1.97 1.96 -3.67 -3.67 -1.97 1.97 -3.67 -7.35 -3.93 -1.96 3.67 -3.67 -1.97 -3.94 7.35 -7.34 -3.94 3.93 -7.34 3.67 1.96 3.94 -7.34 3.67 1.97 3.93 -7.35 3.68 1.97 13.76 -25.7 3.68 1.96 1.96 -3.67 7.35 3.94 1.97 -3.68 3.67 1.97 3.93 -7.34 3.67 1.96 1.97 -3.67 3.67 1.97 1.97 -3.67 3.67 1.96 1.97 -3.67 3.67 1.97 3.93 -7.34 3.68 1.96 3.93 -7.34 3.67 1.96 1.97 -3.67 7.34 3.94 1.97 -3.67 3.67 1.96 7.87 -14.69 3.67 1.97 25.57 -47.73 3.68 1.96 7.87 -14.69 3.67 1.97 2.6 -4.86zm-74.34 103.48l-3.67 -1.97 1.97 -3.67 3.67 1.97 -1.97 3.67zm-181.49 224.12l-3.67 -1.96 1.97 -3.67 3.67 1.96 -1.97 3.67zm43.02 193.17l-3.67 -1.96 1.96 -3.68 3.67 1.97 -1.96 3.67zm200.77 -445.35l-3.68 -1.97 1.97 -3.67 3.67 1.96 -1.96 3.68zm-151.73 27.41l-3.68 -1.97 1.97 -3.67 3.67 1.97 -1.96 3.67zm64.4 559.05l-3.67 -1.97 1.96 -3.67 3.67 1.97 -1.96 3.67zm-80.4 -388.04l-3.67 -1.97 1.97 -3.67 3.67 1.96 -1.97 3.68zm0 264.64l-3.67 -1.97 3.94 -7.34 3.67 1.96 -3.94 7.35zm-1.57 55.86l-7.34 -3.93 1.97 -3.67 7.34 3.93 -1.97 3.67zm-110.81 -101.89l-7.35 -3.94 1.97 -3.67 7.34 3.94 -1.96 3.67zm169.17 213.49l-3.67 -1.96 3.94 -7.35 3.67 1.97 -3.94 7.34zm-75.14 -177.3l-3.68 -1.96 3.94 -7.35 3.67 1.97 -3.93 7.34zm-110.96 -428.04l-3.67 -1.97 1.97 -3.67 -3.67 -1.97 1.96 -3.67 7.35 3.94 -3.94 7.34zm-75.26 422.8l3.67 1.97 -1.97 3.67 -7.34 -3.94 3.93 -7.34 3.67 1.97 -1.96 3.67zm145.16 -191.6l-3.67 -1.97 -1.96 3.68 -3.68 -1.97 3.94 -7.35 7.34 3.94 -1.97 3.67zm-22.03 -11.8l-11.01 -5.9 1.96 -3.67 11.02 5.9 -1.97 3.67zm164.59 310.27l-3.67 -1.96 1.97 -3.68 -3.68 -1.96 3.94 -7.35 3.67 1.97 -1.97 3.67 3.67 1.97 -3.93 7.34 3.67 1.97 -1.96 3.67 3.67 1.97 -1.97 3.67 -7.34 -3.93 -1.97 3.67 -3.67 -1.97 -3.94 7.35 3.68 1.96 -3.94 7.35 -3.67 -1.97 -9.84 18.36 -7.34 -3.93 9.83 -18.36 3.68 1.96 3.93 -7.34 -3.67 -1.97 3.93 -7.34 3.67 1.97 1.97 -3.68 3.67 1.97 1.97 -3.67 3.67 1.97 1.97 -3.68zm-274.48 18.37l1.97 -3.67 -3.67 -1.97 3.93 -7.34 7.35 3.93 -1.97 3.67 3.67 1.97 -7.87 14.69 -3.67 -1.97 -1.97 3.67 -3.67 -1.96 5.9 -11.02zm151.07 -467.26l-3.67 -1.97 -1.97 3.68 -11.02 -5.9 1.97 -3.68 7.34 3.94 1.97 -3.67 7.35 3.93 -1.97 3.67zm-53.9 127.08l-18.36 -9.84 1.97 -3.67 18.36 9.84 -1.97 3.67zm-91.66 276.97l-3.67 -1.97 1.96 -3.67 -3.67 -1.97 1.97 -3.67 -3.67 -1.97 1.96 -3.67 -3.67 -1.97 3.94 -7.34 -3.68 -1.97 1.97 -3.67 -3.67 -1.96 1.97 -3.68 -3.67 -1.96 1.96 -3.68 -3.67 -1.96 1.97 -3.68 11.01 5.91 -1.96 3.67 7.34 3.93 5.9 -11.01 7.35 3.93 -1.97 3.67 3.67 1.97 -1.97 3.67 -3.67 -1.97 -3.93 7.35 3.67 1.96 -1.97 3.68 3.67 1.96 -3.93 7.35 3.67 1.97 -1.96 3.67 3.67 1.96 -5.91 11.02 3.68 1.97 -3.94 7.34 3.68 1.97 -7.87 14.69 3.67 1.96 -7.87 14.69 -3.67 -1.97 1.97 -3.67 -3.68 -1.96 5.9 -11.02 -3.67 -1.97 3.94 -7.34 -3.67 -1.97 1.96 -3.67 -3.67 -1.97 1.97 -3.67 -3.67 -1.97 3.93 -7.34zm263.72 -430.54l3.67 1.97 -3.94 7.34 3.68 1.97 -3.94 7.34 -3.67 -1.97 1.97 -3.67 -3.68 -1.97 3.94 -7.34 -3.67 -1.97 7.87 -14.68 3.67 1.96 -5.9 11.02zm-142.81 240.12l-3.67 -1.97 -1.97 3.67 -7.34 -3.93 5.9 -11.01 3.67 1.96 1.97 -3.67 7.34 3.93 -5.9 11.02zm79.99 -193.43l-3.67 -1.97 -1.97 3.67 -3.67 -1.97 -1.97 3.68 -3.67 -1.97 -1.97 3.67 -3.67 -1.97 3.94 -7.34 3.67 1.97 5.9 -11.02 11.01 5.9 -3.93 7.35zm132.85 378.33l-7.34 -3.93 -3.93 7.34 7.34 3.94 3.93 -7.35zm-4.07 -451.12l3.67 1.97 -1.97 3.67 -3.67 -1.97 -3.93 7.35 -11.02 -5.9 3.94 -7.35 -3.67 -1.97 1.96 -3.67 3.67 1.97 1.97 -3.67 11.02 5.9 -1.97 3.67zm-21.38 31.08l-3.67 -1.97 -3.93 7.35 -7.35 -3.94 7.87 -14.68 3.67 1.96 3.94 -7.34 3.67 1.97 1.97 -3.68 3.67 1.97 -9.84 18.36zm-141.62 396.7l-3.67 -1.96 -5.9 11.01 11.01 5.9 -7.87 14.69 -3.67 -1.96 1.97 -3.68 -3.67 -1.96 1.96 -3.67 -3.67 -1.97 1.97 -3.67 -3.67 -1.97 -3.94 7.34 -3.67 -1.96 -1.97 3.67 -7.34 -3.94 3.93 -7.34 3.68 1.97 1.96 -3.68 -3.67 -1.96 3.93 -7.35 3.68 1.97 1.96 -3.67 3.68 1.97 5.9 -11.02 11.01 5.9 -3.93 7.34zm135.6 -50.22l-3.67 -1.97 1.96 -3.67 -3.67 -1.97 -11.8 22.03 3.67 1.97 5.9 -11.02 3.67 1.97 3.94 -7.34zm-201.96 24.13l-3.67 -1.97 -1.97 3.67 -7.34 -3.93 -1.97 3.67 -3.67 -1.96 -1.97 3.67 -3.67 -1.97 -1.97 3.67 -3.67 -1.97 -1.97 3.68 -3.67 -1.97 -1.97 3.67 11.02 5.9 1.97 -3.67 11.01 5.9 1.97 -3.67 3.67 1.97 7.87 -14.69zm48.92 -82.49l-3.68 -1.97 -5.9 11.02 3.67 1.97 5.91 -11.02z"/>
 </g>
</svg>
