<?xml version="1.0" encoding="UTF-8"?>
<!DOCTYPE svg PUBLIC "-//W3C//DTD SVG 1.1//EN" "http://www.w3.org/Graphics/SVG/1.1/DTD/svg11.dtd">
<!-- Creator: CorelDRAW (Versión de evaluación) -->
<svg xmlns="http://www.w3.org/2000/svg" xml:space="preserve" width="739px" height="2458px" version="1.1" style="shape-rendering:geometricPrecision; text-rendering:geometricPrecision; image-rendering:optimizeQuality; fill-rule:evenodd; clip-rule:evenodd"
viewBox="0 0 739 2457.4"
 xmlns:xlink="http://www.w3.org/1999/xlink"
 xmlns:xodm="http://www.corel.com/coreldraw/odm/2003">
 <defs>
  <style type="text/css">
   <![CDATA[
    .str0 {stroke:#4B4B4D;stroke-width:10;stroke-miterlimit:22.9256}
    .fil0 {fill:#FEFEFE}
   ]]>
  </style>
 </defs>
 <g id="tooth-fissure-crown-24">
  <metadata id="CorelCorpID_0Corel-Layer"/>
  <path id="crown" class="fil0 str0" d="M624.03 1628.31c16.16,84.94 37.64,170.32 57.29,254.38 38.24,163.37 128.27,352.32 -47.49,449.7 -48.56,26.9 -150.52,96.62 -196.66,112.7 -143.93,50.17 -329.37,-61.93 -409.47,-175.72l9.91 0c2.38,-8.88 3.61,-8.71 3.65,-8.83 5,-15.27 -1.26,-18.22 4.68,-24.49 16.07,-8.5 24.15,-6.09 37.5,-12.5l16.66 0 8.12 4.79c-3.27,-17.39 -5.85,-11.31 15.81,-26.56 5.73,-4.03 5.36,-3.88 9.39,-7.39 34.75,25.46 1.5,-1.44 35.93,9.43 20.02,6.33 22.33,14.86 43.22,19.73l0 4.17 4.86 -3.47 -4.86 -0.7c-12.14,-18.13 -20.7,-14.83 -33.29,-37.52l-12.42 -25.7c-7.44,-18.48 -6.21,-8.94 4.05,-24.26 -16.25,-7.79 -13.41,-3.33 -24.99,-16.66 2.01,24.18 7.1,18.18 -4.17,41.66l-4.16 8.33c-19.04,1.58 -17.44,2.94 -26.95,14.7 -7.9,9.77 -12.82,13.76 -18.87,22.79l-8.33 4.16c-7.7,3.7 -3.87,2.74 -15.12,5.27 -2.71,0.61 -7.83,1.05 -8.27,1.16 -4.92,1.22 -1.08,-1.35 -6.51,2.39 -6.8,4.68 -21.19,31.24 -40.62,24.15 -45.02,-109.14 38.47,-403.95 39.01,-528.65 147.32,-45.16 204.72,-106.71 253.99,-140.8 2.44,2.32 4.5,5.06 6.01,8.39 11.71,25.9 -9.6,38.36 -11.88,65.73 20.19,5.39 10.04,10.66 14.36,35.82 7.98,46.56 1.48,14.15 3.02,42.58 1.66,30.9 19.73,64.53 -25.71,54.9 10.47,22.64 -17.1,21.03 -29.16,37.49 22.33,-5.2 57.76,-25.96 74.98,-37.49 15.86,10.62 16.75,14.57 25.05,29.11l8.28 12.55 4.52 8.11 7.97 -1.02c5.36,11.92 11.27,23.35 3.49,38.11 -7.5,14.21 -8.91,5.09 -24.32,39.36 -5.67,9.41 -2.85,0.07 -4.16,15.41 -9.5,2.22 -9.58,3.23 -20.83,4.17 -2.62,11.23 -3.82,17.87 -10.46,27.03 -14.98,20.66 -9.65,0.76 -22.86,18.79l-8.96 2.29 8.96 -2.29c16.87,-3.93 19.92,-9.74 34.77,2.65 13.77,11.48 14.13,16.12 11.05,30.68 -16.06,18.47 -10.75,14.86 -19.65,30.34 -0.75,1.31 0.8,21.25 -35.17,12.48 -15.44,-3.76 -13.94,-5.33 -32.66,-5.33 20.7,30.92 7.79,-13.58 37.49,29.16 6.54,-24.48 32.12,-12.22 29.36,1.93 -4.72,24.22 -28.18,78.38 -28.19,78.39 -4.83,19.57 1.05,33.6 -6.21,56.27 -4.67,14.55 -11.15,29.63 -11.62,50.86l0 8.33 -12.5 0c12.7,12.05 5.81,5.23 4.17,25 17.99,-12.05 6.16,-6.08 29.16,-4.17 -7.86,10.72 -20.8,18.3 -33.33,12.5 4.8,20.61 8.25,7.66 -20.11,38.21 -14.8,15.94 -27.08,10.44 -50.71,15.94 0.93,0.59 2.48,0.11 3.01,1.35 0.53,1.24 2.33,1.03 3.09,1.19 25.5,5.54 28.12,-6.07 56.39,-6.7l4.16 4.16c1.7,7.3 2,9.88 3.94,16.89 1.98,7.15 -0.95,1.43 3.07,9.44 2.81,5.61 2.8,3.9 5.49,7l0 4.16 4.86 -3.47 -4.86 -0.69c-0.81,-9.74 -1.29,-11.57 -2.97,-17.86 -5.02,-18.71 4.36,-5.29 -9.53,-15.47l-4.16 -4.16c-3.4,-6.06 -2.02,-4.41 -4.17,-12.5 4.49,-2.37 7.19,-2.89 11.78,-5.14 24.83,-12.23 -4.54,-8.28 24.03,-25.73 29.68,-18.13 23.1,-1.01 55.84,1.71 12.09,3.23 5.84,0.38 15.42,8.33l9.31 4.92c-2.85,-13.73 0.82,-7.07 -9.31,-13.25 1.63,-5.47 2.71,-4.17 -2.93,-4.17 -2.75,-10.32 -21.52,-36.05 -29.16,-41.65 3.24,-4.42 1.24,-2.23 6.4,-6.1 0.59,-0.45 1.76,-1.3 2.41,-1.76l7.86 -4.64c-21.41,-0.48 -11.96,3.77 -20.83,-8.33 14.72,-9.86 29.2,-9.51 37.49,-20.83 -10.84,-1.18 -18.3,2.3 -20.83,-20.83 29.34,14.08 45.03,2.19 58.32,8.33 6.23,8.97 0.61,5.49 12.5,8.34l4.16 8.33c2.86,12.25 4.17,12.71 4.17,29.16l8.33 0c-1.33,-16.02 -2.67,-21.96 -12.5,-29.16l-4.16 -8.33 -4.17 -8.34 0 -12.49c8.97,-6.23 5.49,-0.61 8.33,-12.5 -9.2,6.4 -5.17,0.68 -8.33,12.5 -23.51,-1.96 -5.1,-3.36 -24.07,1.36 -26.41,6.56 -17.83,-0.04 -67.57,-26.36 0,-58.87 5.89,-31.7 20.83,-95.81 9.72,0.81 6.27,1.26 10.04,2.45l31.61 14.22c-7.89,-29.56 -13.82,6.13 -45.82,-41.66 3.29,-14.13 8.76,-21.44 12.5,-37.49l8.33 -8.33c3.04,-13.07 8.51,-33.82 -20.83,-41.66 3.81,-7.93 7.41,-22.24 8.33,-33.32 7.44,-0.62 3.46,0.89 10.61,-1.89 15.43,-6 4.64,-1.6 10.22,-6.45l-1.24 -4.16c13.17,-16 3.38,-27.73 30.4,-45.82 7.93,5.81 6.19,8.7 16.66,12.49 -3.22,-13.81 -6.01,-12.7 -9.76,-23.55 -3.67,-10.62 -0.95,-3.34 -2.55,-14.04l-4.35 -17.8c-17.12,-11.18 -9.02,-13.06 -24.99,-23.75 -27.04,-51.09 -21.27,-10.13 -27.81,-47.18 -4.94,-27.95 1.14,-39.52 -7.36,-67.82 -5.65,-18.78 -3.05,-11.62 -4.6,-27.89 -2.67,-27.95 -20.98,-9.06 -6.05,-47.85 6.35,-16.49 4.16,-19.87 4.16,-38.37 17.91,-1.5 7.5,0.59 20.83,-8.34l12.49 -12.49c11.76,-2.74 14.88,-3.46 17.74,-7.73 24.44,0.94 53.98,9.85 94.1,29.65 58.85,29.06 85.37,34 149.66,49.34zm-296.32 -67.03c4.44,-2.27 8.92,-4.25 13.49,-5.93l-0.03 0.01c-4.53,2.49 -9.07,4.55 -13.46,5.92zm25.83 -9.59c0.48,-0.11 0.97,-0.21 1.45,-0.32 -0.48,0.11 -0.97,0.21 -1.45,0.32zm4.61 -0.93c0.55,-0.1 1.11,-0.19 1.67,-0.28 -0.56,0.09 -1.12,0.18 -1.67,0.28zm4.71 -0.71c0.65,-0.09 1.3,-0.16 1.96,-0.23 -0.66,0.07 -1.31,0.14 -1.96,0.23zm4.74 -0.49c0.74,-0.06 1.49,-0.11 2.23,-0.15 -0.74,0.04 -1.49,0.09 -2.23,0.15zm5.01 -0.28c0.76,-0.02 1.53,-0.03 2.31,-0.04 -0.78,0.01 -1.55,0.02 -2.31,0.04zm5.14 -0.03c0.82,0.01 1.65,0.04 2.49,0.07 -0.84,-0.03 -1.66,-0.06 -2.49,-0.07zm-269.32 765.95l1.24 -1.25c-0.08,0.09 -1.65,0.83 -1.24,1.25zm295.76 -220.78l1.24 -1.25c-0.08,0.09 -1.65,0.83 -1.24,1.25zm-54.15 -283.27l1.24 -1.24c-0.08,0.08 -1.66,0.83 -1.24,1.24zm79.14 41.66l1.25 -1.24c-0.08,0.08 -1.66,0.82 -1.25,1.24zm-120.8 -95.81l1.24 -1.24c-0.08,0.08 -1.65,0.82 -1.24,1.24zm-33.32 487.38l1.24 -1.24c-0.08,0.08 -1.66,0.83 -1.24,1.24zm87.47 -233.28l1.25 -1.24c-0.08,0.08 -1.66,0.83 -1.25,1.24zm62.49 316.59l0.1 1.85c3.87,-0.35 -5.82,7.95 1.3,-0.44l0.45 -1.3c-0.01,-0.02 -0.68,-0.18 -0.7,-0.19 -0.03,-0.02 -0.88,-0.19 -1.15,0.08zm-187.46 -87.48c0,10.35 6.66,1.07 2.59,0 -0.05,-0.01 -2.59,-11.81 -2.59,0zm20.83 0c0,10.35 6.66,1.07 2.59,0 -0.05,-0.01 -2.59,-11.81 -2.59,0zm129.14 -149.96c0.17,1.38 4.59,0.93 4.96,0.79 1.04,-0.38 7.24,9.65 1.81,-1.11l-2.17 -0.99c-3.23,-0.07 -5.67,-7.27 -4.6,1.31zm170.79 -174.96c-2.05,11.1 8.33,-0.71 5.28,-1.52 -8.36,-2.21 -4.11,-4.81 -5.28,1.52zm-345.75 379.08c4.28,4.28 15.07,-6 4.83,-2.25 -0.1,0.04 -11.82,-4.74 -4.83,2.25zm145.8 -37.49c4.28,4.28 15.07,-6 4.83,-2.25 -0.1,0.04 -11.82,-4.75 -4.83,2.25zm-237.44 29.16c8.96,-6.23 5.48,-0.61 8.33,-12.5 -9.21,6.4 -5.18,0.68 -8.33,12.5l-9.17 7.49c11.47,3.68 7.12,-2.69 13.33,9.19 -5.35,15.82 0,11.1 0,33.31l8.33 0c0,-15.58 -2.07,-20.08 -4.16,-33.31 5.14,0.82 4.16,11.11 4.16,-4.19l-12.49 -12.49zm537.37 -45.83l12.49 0 0 -4.16c-22.02,0 -6.21,0.03 -12.49,4.16l-16.67 0 0 4.17c2.32,0 6.8,0.08 8.05,-0.28 7.37,-2.12 4.63,-1.36 8.62,-3.89zm-304.1 191.62c3.4,-6.05 2.02,-4.4 4.17,-12.49l-8.33 4.16c-0.12,0.18 -7.48,-4.05 -3.73,11.7 1.9,7.99 2.11,4.9 7.89,9.13l0 -12.5zm58.32 -341.58l12.5 0 0 -4.16 -12.5 0 0 4.16zm70.82 137.47l4.16 4.16c0,1.89 -0.33,11.5 -0.17,12.67l4.34 12.33 0 16.66c-16.15,10.81 -8.87,14.04 -27.32,26.84 -12.22,8.47 -23.24,12.56 -31,23.15 26.57,0 39.09,-9.06 53.78,-21.21 10.22,-8.45 10.05,-7.75 17.95,-19.53 32.95,-49.12 33.24,-24.46 107.94,-26.58 15.19,-0.43 15.54,-4.08 24.45,-11.83 -43.18,0 -73.13,-4.17 -112.48,-4.17 -10.1,15.09 -5.53,19.21 -24.99,20.83l0 -4.16c-6.69,-13.94 -1.64,-19.39 -8.33,-33.33l-8.33 -4.16 -54.16 -41.66c5.98,22.36 36.16,37.93 54.16,49.99zm-102.9 145.8l11.25 -11.26c7.54,-10.54 14.35,-16.55 20.83,-26.23 -9.81,0.81 -12.61,2.51 -16.04,1.54 -10.58,-2.98 2.08,2.02 -6.22,-4.14 -25.61,-18.99 16.27,3.61 -6.9,-5.74l-2.01 12.5c-3.15,11.63 -9.01,15.31 -14.01,25.62 -6.49,13.39 -12.73,31.02 -13.14,49.36l26.24 -41.65zm77.9 -420.74c-3.17,-2.75 -1.16,-2.77 -7.02,-5.47 -8.47,-3.91 -1.95,-1.07 -9.64,-2.86 9.41,12.84 -2.7,6.68 16.66,8.33zm-29.16 133.31l20.83 0 0 -4.17 -20.83 0 0 4.17zm-87.47 -199.96c10.52,-7.71 12.49,-10.69 12.49,-29.16l-4.16 0c0,15.14 -4.95,14.62 -8.33,29.16zm33.32 266.61c-1.35,-16.29 2.52,-12.66 -12.5,-16.67 1.36,16.29 -2.52,12.66 12.5,16.67zm25 -199.96c-2.22,-9.49 -3.23,-9.58 -4.17,-20.82l-12.5 0c3.66,13.69 6.05,13.71 16.67,20.82zm-312.43 262.44c0,-8.47 -0.72,-1.7 4.52,-1.23 12.53,1.12 -0.59,-8.18 1.93,1.23 2.51,9.39 -6.45,4.9 -6.45,0zm224.95 -354.08l8.33 0c-0.42,-18.74 -1.49,-21.09 -12.5,-29.16 0,16.45 1.31,16.9 4.17,29.16zm-12.5 -45.82c3.15,5.61 2.28,4.6 4.17,12.49l12.49 0c2.93,-11.02 -0.33,-3.42 4.17,-12.49 -8.99,-7.51 -19.22,-1.97 -20.83,0zm-49.99 466.55l-12.5 0 0 16.66 16.03 -13.2c3.99,13.26 0.58,9.85 13.13,13.2 -2.28,-10.79 -1.08,-12.7 -1.98,-16.62 -2.26,-9.9 -5.09,-5.82 -6.35,-20.87l-12.49 0c2.21,9.5 3.2,9.59 4.16,20.83zm-91.64 -124.97l0 25 -4.17 0c0,-22.14 -12.74,-12.61 4.17,-25zm158.29 120.81c15.54,8.22 19.42,10.44 29.16,24.99 -24.07,-2 -28.52,-2.05 -29.16,-24.99zm-4.16 -87.48c-1.58,-8.32 5.63,-14.44 2.59,-2.59 -0.5,1.93 -0.34,14.51 -2.59,2.59z"/>
  <path id="root" class="fil0 str0" d="M231.29 101.89c11.91,59.33 12.61,484.63 3.34,551.19 -20.4,146.55 -65.13,372.34 -45.65,514.8 23.42,-28.15 18.44,-43.11 20.28,-85.66 1.08,-24.75 3.14,-48.48 6.4,-72.63 7.65,-56.85 8,-111.56 16.74,-167.86 15.68,-101.16 34.12,-196.57 50.26,-294.82 16.61,-101.13 35.15,-201.82 52.04,-302.48 12.57,-74.96 21.68,-229.9 107.98,-244.43 41.81,51.31 35.67,324.94 43.36,409.45 12.11,132.89 24.73,270.8 34.89,403.45 19.5,254.65 83.92,531.05 96.04,782.7 -130.89,-9.08 -189.19,-120.39 -303.1,-52.89 -64.02,37.94 -186.28,141.81 -256.12,137.34l-24.7 -877.76c1.46,-99.24 49.38,-277.97 75.47,-378.41 30.99,-119.28 45.1,-311.9 122.77,-321.99z"/>
 </g>
</svg>
