<?xml version="1.0" encoding="UTF-8"?>
<!DOCTYPE svg PUBLIC "-//W3C//DTD SVG 1.1//EN" "http://www.w3.org/Graphics/SVG/1.1/DTD/svg11.dtd">
<!-- Creator: CorelDRAW (Versión de evaluación) -->
<svg xmlns="http://www.w3.org/2000/svg" xml:space="preserve" width="739px" height="2458px" version="1.1" style="shape-rendering:geometricPrecision; text-rendering:geometricPrecision; image-rendering:optimizeQuality; fill-rule:evenodd; clip-rule:evenodd"
viewBox="0 0 739 2457.4"
 xmlns:xlink="http://www.w3.org/1999/xlink"
 xmlns:xodm="http://www.corel.com/coreldraw/odm/2003">
 <defs>
  <style type="text/css">
   <![CDATA[
    .str0 {stroke:#4B4B4D;stroke-width:10;stroke-miterlimit:22.9256}
    .fil0 {fill:#FEFEFE}
   ]]>
  </style>
 </defs>
 <g id="tooth-fissure-crown-23">
  <metadata id="CorelCorpID_0Corel-Layer"/>
  <path id="crown" class="fil0 str0" d="M411.47 2444.63c-60.81,-3.66 -110.62,49.56 -253.83,-37.65l9.15 -35.78c16.23,-52.7 -5.21,-42.15 18.76,-69.92l2.92 -8.33 24.99 -29.16c11.33,7.58 35.97,23.83 49.99,24.99 -14.56,-27.51 -30.23,-18.93 -36.24,-39 -3.05,-10.21 3.84,-53.7 7.08,-60.99 9.76,-2.44 -0.09,-4 16.67,0.02 2.48,3.71 3.22,5.27 6.72,9.93 8.37,11.14 -1.28,-1.38 5.77,6.73 1.34,16.05 4.17,13.43 4.17,33.32 13.4,-9.82 5.68,1.49 9.54,-19.61 7.71,-42.08 3.45,-25.18 20.85,-33.3l48.8 -30.35c15.81,-9.22 20.75,-5.82 33.28,-16.71 -20.63,0 -18.76,1.23 -34.72,7.27 -31.33,11.83 4.38,-8.57 -32.05,13.31 -0.83,0.5 -2.07,0.84 -2.91,1.33 -0.82,0.48 -2.01,0.88 -2.82,1.38l-12.08 8.76c-3.71,1.94 -24.09,8.72 -27.89,9.6l-4.17 0 -33.32 -24.99c1.8,-7.73 -0.7,-1.85 2.89,-9.6 2.73,-5.88 2.66,-3.87 5.44,-7.06l0 8.33c19.1,-14 6.78,-37.49 41.65,-37.49l-29.15 -4.17c-6.72,10.03 -11.11,11.29 -17.58,19.92 -7.01,9.37 -6.78,15.9 -11.58,25.91 -11.25,-0.94 -11.34,-1.96 -20.83,-4.17 9.72,13.27 6.94,3.39 16.52,17.29l-24.85 -4.79c4.27,3.71 0.04,0.61 7.2,5.29 9.08,5.93 14.23,6 17.13,21.12 11.95,62.29 -19.82,68.99 -36.83,94.39l-4.17 4.17 0 4.16c-5.64,0 -4.55,-1.31 -2.92,4.17 -14.19,-3.31 -6.33,-0.59 -17.9,-8.33l-4.17 -8.33c-7.04,-15.22 3.63,-23.9 8.48,-41.51 5.09,-18.46 1.66,-28.42 13.59,-41.81l7.76 -0.57 -7.76 -7.76c2.56,-21.31 9.45,-6.8 15.42,-29.16 -24.5,2.68 -1.27,-1.83 -20.83,12.5 -10.08,-21.8 0.39,-7.77 5.48,-19.61 3.57,-8.32 -1.39,-10.52 -8.39,-4.9 -6.88,5.54 -15.11,31.13 -22.08,41.17 15.56,23.24 20.12,17.97 7.19,48.8 -5.38,12.83 -18.79,36.08 -28.02,42.85 -24.01,-5.6 -7.78,-6.59 -24.39,-17.27 -4.01,-2.58 -4.35,-1.36 -8.93,-3.56 4.38,16.41 -0.7,-0.4 6.24,14.58 3.06,6.61 3.65,9.15 6.25,14.58l13.74 0c1.62,5.25 -6.75,4.16 5.85,4.16l6.65 4.17 4.16 8.33 -9.57 29.16c17.14,-5.68 -7.6,-13.24 20.83,-20.83 0,50.75 -12.25,22.04 -15.4,47.88 -1.71,14.04 -4.93,19.61 -8.42,24.62 -82.42,-51.86 -126.43,-62.09 -118.27,-179.12 2.98,-42.78 9.07,-84.74 17.25,-126.14 18.12,1.86 26.17,7.81 54.02,7.81 -20.92,-18.18 -32.02,1.82 -50.77,-20.04l-0.61 -0.71c3.13,-15.01 6.52,-29.95 10.13,-44.83l3.76 3.1 0 -16.66 -0.4 0c28.17,-111.86 67.79,-220.6 98.36,-331.5l245.94 -165.8c64.78,-22.43 103.27,8.29 149.54,42.53 172.75,127.89 109.4,-18.39 156.24,247.17 9.08,51.41 20.94,108.61 29.51,160.01 55.06,330.36 5.19,189.98 -15.37,305.86 -0.27,43.29 -100.91,70.41 -137.37,92.3 -18.3,10.99 -49.6,33.53 -66.76,46.4 -33.76,25.34 -42.17,44.83 -82.56,42.14zm-265.84 -45.16c-3.15,-2.02 -6.33,-4.08 -9.58,-6.24 -3.9,-2.59 -7.73,-5.08 -11.48,-7.48 1.97,-3.92 3.72,-8.7 7.5,-15.9 6,-11.42 4.84,-12.9 23.08,-14.42 -4.13,17.73 -7.21,29.08 -9.52,44.04zm9.52 -114.85l-4.17 -8.33c-8.09,-2.15 -6.44,-0.77 -12.5,-4.17 1.42,16.98 2.14,16.95 16.67,20.83l0 -8.33zm8.33 -245.78l-1.25 -1.24c0.09,0.08 1.66,0.83 1.25,1.24zm37.49 104.14l-1.25 -1.24c0.09,0.08 1.66,0.83 1.25,1.24zm170.79 -208.28l-4.17 0 3.47 -4.86 0.7 4.86c17.17,12.58 13.87,28.17 22.07,49.99 10.22,7.52 3.73,2.2 5.85,8.33 27.45,15.4 18.12,29.4 39.97,41.66l11.26 11.25 12.49 9.58c5.59,-4.23 -8.76,-4.17 12.5,-4.17l0 4.17 -12.5 0c5.5,20.57 7.75,2.75 8.34,29.15 5.5,0 15.22,-0.59 20.27,-0.31l18.46 4.48 22.51 0 39.97 0 15.42 0c0.87,-0.55 2.26,-2.3 2.71,-1.46l54.06 -16.75c25.33,-5.73 23.6,-20.77 55.71,-23.45l-20.22 13.46c-10.02,8.45 -7.45,7.23 -4.78,19.87 -9.19,-3.33 -7.31,-12.77 -43.07,2.75l-44.41 22.24c-5.64,0 -4.55,1.31 -2.92,-4.16 -26.83,12.06 -37.6,10.59 -69.14,4.16l-5.84 0 -38.73 0c0,16.85 -4.83,39.31 -17.91,48.75 -3.67,12.27 -7.7,16.72 -11.88,29.77 -6.61,20.63 1.97,17.73 -16.04,29.79 0.94,-11.25 1.96,-11.33 4.17,-20.83 -11.25,-0.93 -11.33,-1.95 -20.83,-4.16l0 -8.34c9.5,2.22 9.58,3.23 20.83,4.17 6.17,-26.5 1.1,-31.37 9.57,-41.66 -2.62,-14.09 -2,-5.34 2.93,-8.33 3.68,9.88 -2.5,5.46 8.33,8.33 -2.7,-10.17 1.84,-5.63 -8.33,-8.33l0 -2.92c2.05,-10.06 3.1,-16.95 5.72,-28.86 0.13,-0.59 3.68,-12.64 3.77,-12.87l7.17 -13.67c-9.28,-6.21 -11.54,-8.59 -19.08,-18.41 -14.78,-19.26 -16.74,-9.14 -28.11,-26.05 -14.6,-21.72 -2.22,-9.6 -24.01,-21.89 -7.06,-3.99 -2.92,-1.22 -7.95,-5.71l-8.33 1.25c-15.97,-4.27 -6,-4.79 -23.29,-10.04 -13.61,-4.14 -14.78,-0.9 -26.7,-6.63l-12.5 0 4.17 -8.33 0 -8.33c15.56,4.16 4.95,6.75 20.83,12.5 -1.93,-8.3 -2.69,-14.62 -5.12,-24.04 -2.41,-9.36 -4.71,-10.35 -7.38,-21.78l-8.33 -8.33 -7.63 9.02c-1.49,1.67 -7.53,7.93 -8.03,8.64 -8.08,11.43 -3.41,11.65 -9.33,23.99l16.5 4.68 0.16 11.98c-24.27,0 -18.63,1.51 -33.33,-8.33l-16.66 12.5 -8.33 0 -12.5 0c-15.89,-59.52 -7.1,-27.24 -45.82,-45.82l-16.66 0 -8.13 4.79c3.54,-18.93 4.94,-11.65 -16.01,-26.46l-9.19 -7.49c-9.2,6.4 -5.17,0.68 -8.33,12.5 -15.73,-8.33 -15.45,-8.28 -33.89,-0.7 -14.57,6 -20.62,13.56 -36.93,17.36l0 4.16 -4.86 -3.47 4.86 -0.69c11.53,-17.22 17.04,-12.54 28.53,-29.79 12.49,-18.75 9.85,-23.68 21.46,-41.03 -3.29,-12.32 -1.69,-6.75 -8.33,-16.66 11.78,-5.65 11.88,-2.4 21.3,-12.02l3.7 -4.64c-2.02,24.17 -7.1,18.18 4.16,41.65l4.17 8.34c19.28,1.6 17.66,2.94 26.8,14.85 7.94,10.35 12.42,12.78 19.02,22.64l8.33 4.16c5.48,2.63 6.65,3.87 15.11,5.69 23.12,4.98 2.78,-9.33 25.39,16.25 31.19,35.29 54.81,-17.17 60.59,-24.99l34.63 -48.68c5.84,-13.46 -1.21,-7.39 11.64,-17.53 10.94,-8.63 6.58,-1.32 15.1,-14.05l0 -12.5c-7.67,-11.45 -10.98,-15.09 -12.5,-33.32 21.48,4.54 18.29,-3.96 38.98,6.79 22.56,11.71 16.73,9.87 48.5,9.87 -10.97,14.98 -10.28,6.24 -33.02,8.64 -13.65,1.44 -17.28,6.66 -33.63,8.02l0 8.33c-0.51,23.16 0.16,8.36 -16.58,41.74 -5.24,10.45 -16.38,26.88 -25.07,33.24l4.16 8.34 0 4.16c13.85,10.15 12.91,19.73 22.53,31.63 7.25,8.96 4.28,3.24 13.86,11.13 6.85,5.64 9.23,9.03 13.6,15.56l11.25 0c6.7,-4.31 5.41,6.79 5.41,-8.33l-9.17 -15.82c-9.25,-19.46 -7.49,-11.42 -7.49,-34.17zm-70.82 495.71c0,10.35 -6.66,1.07 -2.58,0 0.05,-0.01 2.58,-11.81 2.58,0zm370.75 -337.41c0,10.35 -6.66,1.06 -2.59,0 0.05,-0.02 2.59,-11.82 2.59,0zm-508.21 -8.34c0,10.35 -6.66,1.07 -2.59,0 0.05,-0.01 2.59,-11.81 2.59,0zm441.56 74.99c-0.17,1.37 -4.6,0.93 -4.97,0.79 -1.04,-0.39 -7.24,9.64 -1.81,-1.12l2.17 -0.99c3.23,-0.07 5.67,-7.26 4.61,1.32zm-595.69 66.65c2.14,11.58 -9.94,-2 -4.13,-1.64 7.8,0.49 2.54,-6.97 4.13,1.64zm387.4 -41.66c-4.27,4.28 -15.06,-5.99 -4.83,-2.25 0.1,0.04 11.83,-4.74 4.83,2.25zm-337.42 -166.63c-4.27,4.28 -15.06,-5.99 -4.83,-2.24 0.1,0.03 11.83,-4.75 4.83,2.24zm329.09 145.8c-0.88,4.76 -9.16,9.11 -5.6,0.84 1.5,-3.48 7.6,-11.66 5.6,-0.84zm-237.44 -154.13c-8.96,-6.23 -5.49,-0.61 -8.33,-12.49 9.2,6.39 5.18,0.68 8.33,12.49l9.16 7.5c-11.46,3.67 -7.11,-2.7 -13.33,9.19 5.35,15.82 0,11.1 0,33.3l-8.33 0c0,-15.57 2.08,-20.07 4.17,-33.3 -5.14,0.82 -4.17,11.11 -4.17,-4.19l12.5 -12.5zm179.12 437.4c-29.32,-0.66 -17.7,-10.3 -16.66,-12.5 7.9,-2.79 8.83,5.34 9.84,6.29l4.49 4.25c0.47,0.43 1.57,1.29 2.33,1.96zm-145.8 -508.21c0,-8.47 0.73,-1.71 -4.52,-1.24 -12.52,1.12 0.6,-8.18 -1.92,1.24 -2.52,9.38 6.44,4.89 6.44,0zm66.66 249.94l8.33 -4.17 -8.11 -4.52 -0.22 8.69zm-58.32 -62.49c0,20.13 -2.23,17.97 -8.34,25l0 -37.5c7.03,4.88 8.34,0.6 8.34,12.5zm166.62 -299.93l0 4.17 4.86 -3.47 -4.86 -0.7zm-4.16 -4.16l4.16 4.16 -4.16 -4.16zm0 0l0 -4.17 -4.86 3.47 4.86 0.7zm-241.61 58.32l0 24.99 4.16 0c0,-22.13 12.74,-12.61 -4.16,-24.99zm120.8 291.59l-1.24 1.25c0.08,-0.08 1.66,-0.83 1.24,-1.25zm4.17 -33.32l4.79 -8.12 -4.79 8.12z"/>
  <path id="root" class="fil0 str0" d="M506.75 1.1c102.9,-9.92 50.72,47.08 47.37,191.22l36.74 613.66c18.21,133.65 74.56,679.07 68.2,787.56 -95.83,-7.49 -140.54,-135.67 -268.94,-115.09 -100.48,16.1 -150.33,124.13 -246.76,151.8 33.53,-180.86 32.01,-480.6 65.15,-682.47 36.29,-221.23 57.18,-384.57 136.96,-606.75 42.14,-117.4 160.65,-314 161.28,-339.93z"/>
 </g>
</svg>
