<?xml version="1.0" encoding="UTF-8"?>
<!DOCTYPE svg PUBLIC "-//W3C//DTD SVG 1.1//EN" "http://www.w3.org/Graphics/SVG/1.1/DTD/svg11.dtd">
<!-- Creator: CorelDRAW (Versión de evaluación) -->
<svg xmlns="http://www.w3.org/2000/svg" xml:space="preserve" width="739px" height="2458px" version="1.1" style="shape-rendering:geometricPrecision; text-rendering:geometricPrecision; image-rendering:optimizeQuality; fill-rule:evenodd; clip-rule:evenodd"
viewBox="0 0 739 2457.4"
 xmlns:xlink="http://www.w3.org/1999/xlink"
 xmlns:xodm="http://www.corel.com/coreldraw/odm/2003">
 <defs>
  <style type="text/css">
   <![CDATA[
    .str0 {stroke:#373435;stroke-width:10;stroke-miterlimit:22.9256}
    .fil0 {fill:#FEFEFE}
   ]]>
  </style>
 </defs>
 <g id="tooth-fissure-crown-31">
  <metadata id="CorelCorpID_0Corel-Layer"/>
  <path id="crown" class="fil0 str0" d="M721.4 752.82c-146.62,39.86 -159.19,87.55 -275.23,159.21 -155.4,95.96 -212.36,-24.46 -285.55,-101.9 -52.21,-55.25 -94.62,-40.4 -118.71,-95.18 -59.14,-134.35 -39.17,-410.84 -38.67,-552.63 0.57,-156.98 88.65,-159.09 268.23,-162.24 76.6,-1.36 343.45,16.68 390.17,57.95 98.29,86.81 82.7,571.94 59.76,694.79zm-410.85 190.61l6.1 0 0 1.48c33.71,7.23 73.97,0.33 124.97,-30.15l0 -0.49 -4.17 0 0 -4.16 -8.33 0 0 -4.17 -45.82 0 0 -4.16 -8.33 0 -4.17 0 0 -4.17 -4.16 0 0 -8.33 -4.17 0 0 12.5 -8.33 0 -16.66 0 0 -4.17 -20.83 0 0 4.17 -4.17 0 -4.16 0 0 -4.17 -4.17 0 -4.16 0 -29.16 0 0 -4.17 -29.16 0 -4.17 0 -3.72 0c22.54,22.99 47.11,41.97 76.77,49.99zm215.47 -87.48l-1.09 0 0 -4.16 -4.17 0 0 -4.17 -12.49 0 -4.17 0 0 -8.33 -4.16 0 0 -4.17 -4.17 0 0 -8.33 -4.16 0 0 -8.33 -4.17 0 0 -8.33 -4.17 0 0 -8.33 -4.16 0 0 -37.49 -4.17 0 0 -20.83 -4.16 0 0 -16.66 -4.17 0 0 -8.33 12.5 0 0 4.16 8.33 0 0 12.5 4.17 0 0 4.16 4.16 0 0 12.5 4.17 0 0 4.17 4.16 0 0 4.16 4.17 0 0 4.17 4.16 0 0 -8.33 -4.16 0 0 -4.17 -4.17 0 0 -8.33 -4.16 0 0 -8.33 -4.17 0 0 -8.33 -4.16 0 0 -4.17 4.16 0 0 -12.49 -8.33 0 0 -4.17 -4.17 0 0 -8.33 -4.16 0 0 -25 8.33 0 0 4.17 4.17 0 0 4.17 4.16 0 0 8.33 -4.16 0 0 4.16 8.33 0 0 -24.99 -4.17 0 0 -4.17 -4.16 0 0 -8.33 4.16 0 4.17 0 0 -4.16 8.33 0 0 -4.17 12.49 0 0 -4.17 4.17 0 0 -12.49 4.17 0 0 -4.17 4.16 0 0 -8.33 -4.16 0 0 4.17 -12.5 0 0 12.49 -8.33 0 0 4.17 -12.5 0 0 -4.17 -4.16 0 0 -8.33 -4.17 0 0 -8.33 -4.17 0 0 -4.17 -4.16 0 0 -4.16 -4.17 0 0 -12.5 -4.16 0 0 -8.33 -4.17 0 0 -12.5 -4.16 0 0 -4.16 4.16 0 0 -12.5 4.17 0 0 -4.16 4.16 0 0 -4.17 4.17 0 0 -4.17 -4.17 0 0 -12.49 -4.16 0 0 -8.33 -4.17 0 0 -8.34 -4.16 0 0 -8.33 -4.17 0 0 -4.16 -4.17 0 0 -4.17 -4.16 0 0 4.17 -4.17 0 0 8.33 8.33 0 0 4.16 4.17 0 0 8.34 -4.17 0 0 4.16 -4.16 0 0 -4.16 -4.17 0 0 -8.34 -12.49 0 0 8.34 4.16 0 0 4.16 4.17 0 0 4.17 4.16 0 0 4.16 4.17 0 0 8.33 -4.17 0 0 4.17 -4.16 0 0 4.17 8.33 0 4.16 0 0 12.49 4.17 0 0 20.83 4.17 0 0 16.66 4.16 0 0 8.33 4.17 0 0 12.5 4.16 0 0 8.33 -4.16 0 0 4.17 -4.17 0 0 8.33 -4.16 0 0 4.17 -4.17 0 0 4.16 -8.33 0 0 -4.16 -4.17 0 0 -4.17 0 -4.17 -4.16 0 0 -4.16 -4.17 0 0 -4.17 -4.16 0 0 -4.16 -4.17 0 0 -4.17 -4.17 0 0 -4.16 -4.16 0 0 -4.17 -4.17 0 0 -4.17 -4.16 0 0 -8.33 -4.17 0 0 -8.33 -4.16 0 0 -16.66 -4.17 0 0 -4.17 4.17 0 0 -33.32 4.16 0 0 -8.33 4.17 0 0 -4.17 8.33 0 0 -4.16 8.33 0 0 -4.17 -12.5 0 0 4.17 -12.49 0 0 -4.17 4.16 0 0 -4.17 8.33 0 0 -4.16 4.17 0 0 -4.17 -8.33 0 0 4.17 -12.5 0 0 -4.17 -4.16 0 0 -12.49 -4.17 0 0 0 12.5 0 0 -4.17 8.33 0 0 -4.16 12.5 0 0 -4.17 4.16 0 0 -4.17 4.17 0 0 -4.16 4.16 0 0 -4.17 8.33 0 0 -4.16 4.17 0 0 -8.33 4.16 0 0 -4.17 4.17 0 0 -8.33 4.17 0 0 -4.17 4.16 0 0 -4.16 4.17 0 0 -8.33 8.33 0 0 -4.17 37.49 0 0 4.17 29.16 0 0 -4.17 8.33 0 0 4.17 20.83 0 0 -4.17 4.17 0 0 -4.17 8.33 0 0 -4.16 -70.82 0 0 -4.17 -41.66 0 0 4.17 -4.16 0 0 4.16 -4.17 0 0 8.34 -4.16 0 0 4.16 -12.5 0 0 -4.16 0 -4.17 -4.17 0 0 -24.99 -4.16 0 0 -4.17 0 -4.16 -8.33 0 0 -4.17 -4.17 0 0 -4.17 -8.33 0 0 -4.16 -8.33 0 0 -4.17 -4.17 0 0 -4.16 -8.33 0 0 -4.17 -4.16 0 0 -4.17 -4.17 0 0 -4.16 -4.17 0 0 -4.17 0 0 0 -8.33 4.17 0 0 -4.16 4.17 0 0 -8.33 -4.17 0 0 -8.33 4.17 0 0 -4.17 4.16 0 0 -4.17 8.33 0 0 -4.16 20.83 0 0 -4.17 4.17 0 16.66 0 0 4.17 8.33 0 0 -8.33 -4.17 0 0 -4.17 4.17 0 0 -4.17 4.17 0 0 -4.16 8.33 0 0 -4.17 4.16 0 0 -4.16 8.33 0 0 -4.17 4.17 0 0 4.17 4.17 0 0 8.33 4.16 0 0 -4.17 8.33 0 0 -4.16 4.17 0 0 4.16 12.49 0 0 4.17 12.5 0 0 4.16 4.17 0 0 4.17 8.33 0 0 4.17 8.33 0 0 4.16 8.33 0 0 4.17 4.17 0 0 -4.17 -4.17 0 0 -4.16 -4.16 0 0 -4.17 -4.17 0 0 -4.17 -4.16 0 0 -4.16 -8.34 0 0 -4.17 -4.16 0 0 -8.33 -4.17 0 0 -4.16 -4.16 0 0 -8.33 -4.17 0 0 -8.34 -4.17 0 0 -12.49 -4.16 0 0 -4.17 -4.17 0 0 -12.5 4.17 0 0 -4.16 4.16 0 0 -4.17 -4.16 0 0 -4.16 -12.5 0 0 -4.17 -4.16 0 0 -8.33 -4.17 0 0 12.5 4.17 0 0 12.49 -4.17 0 0 12.5 -4.16 0 0 4.17 0 4.16 -4.17 0 0 4.17 -12.5 0 0 4.16 -8.33 0 0 4.17 -4.16 0 0 8.33 -4.17 0 0 4.17 -4.17 0 0 4.16 -4.16 0 0 4.17 -4.17 0 0 4.16 -4.16 0 0 4.17 -8.33 0 0 4.16 -4.17 0 0 4.17 -12.5 0 0 4.17 -8.33 0 0 -4.17 -4.16 0 0 4.17 -4.17 0 0 8.33 -4.16 0 0 4.16 -4.17 0 0 4.17 -4.17 0 0 4.17 -4.16 0 0 4.16 -20.83 0 0 -4.16 -8.33 0 0 -4.17 -4.17 0 0 -4.17 -4.16 0 0 -4.16 -4.17 0 0 -8.33 -4.16 0 0 -8.34 -4.17 0 0 -4.16 -4.17 0 0 -4.17 -4.16 0 0 -8.33 -4.17 0 0 -8.33 -4.16 0 0 -4.16 -8.33 0 0 -8.34 -4.17 0 0 -4.16 -4.16 0 0 -4.17 4.16 0 0 4.17 4.17 0 0 4.16 16.66 0 0 4.17 4.17 0 0 4.17 4.16 0 0 -8.34 -4.16 0 0 -4.16 -12.5 0 0 -4.17 -8.33 0 0 -4.16 -8.33 0 0 -4.17 -4.17 0 0 -8.33 -4.17 0 0 -4.17 0 0 -4.16 0 0 -4.16 0 -8.33 4.16 0 0 -8.33 4.17 0 0 -12.5 4.17 0 0 -8.33 4.16 0 0 -4.17 4.17 0 0 -4.16 0 -8.33 4.16 0 0 -16.67 -4.16 0 0 -4.16 -8.33 0 0 -8.33 -4.17 0 0 -4.17 -8.33 0 0 -4.17 4.16 0 0 -16.66 4.17 0 0 -12.5 12.5 0 0 -4.16 8.33 0 0 -4.17 0 -4.16 4.16 0 0 -16.66 4.17 0 0 -8.34 4.17 0 0 -8.33 4.16 0 0 -4.16 4.17 0 0 -4.17 4.16 0 0 -4.16 8.33 0 0 4.16 4.17 0 0 8.33 8.33 0 0 -8.33 -4.17 0 0 -8.33 -4.16 0 0 -8.33 -4.17 0 0 -29.16 -4.16 0 0 -4.09 -1.47 -0.08 -6.86 0 0 -0.34c-5.76,-0.28 -11.32,-0.52 -16.67,-0.73l0 1.07 4.17 0 0 4.17 8.33 0 0 4.17 4.17 0 0 8.33 4.16 0 0 8.33 -4.16 0 0 8.33 4.16 0 0 4.16 -4.16 0 0 4.17 -4.17 0 0 8.33 -4.16 0 0 4.17 -4.17 0 0 4.16 -4.17 0 0 8.33 -4.16 0 0 8.34 -4.17 0 0 4.16 0 4.17 -4.16 0 0 12.49 -8.33 0 0 4.17 -12.5 0 0 8.33 -4.17 0 0 12.5 -4.16 0 0 4.16 -4.17 0 0 8.33 -4.16 0 0 4.17 -12.5 0 0 4.17 -4.17 0 0 4.16 -8.33 0 0 4.17 8.33 0 0 -4.17 8.34 0 0 -4.16 20.82 0 0 4.16 4.17 0 0 4.17 4.16 0 0 4.16 4.17 0 0 4.17 4.17 0 0 8.33 4.16 0 0 4.17 -4.16 0 0 8.33 -4.17 0 0 8.33 -4.17 0 0 4.16 -4.16 0 0 8.33 -4.17 0 0 4.17 -4.16 0 0 16.66 0 0 -4.17 0 0 -4.16 -4.16 0 0 -4.17 0 -12.5 0 -4.16 4.16 0 0 -4.17 4.17 0 0 -12.49 4.16 0 0 -12.5 -8.33 0 0 4.17 -4.16 0 0 -4.17 -16.67 0 0 4.17 -8.33 0 0 4.16 -8.33 0 0 4.17 -8.33 0 0 4.16 -33.33 0 0 4.17 4.17 0 0 4.16 37.49 0 0 4.17 12.5 0 0 4.16 12.49 0 0 8.34 0 16.66 -12.49 0 0 -4.17 -16.66 0 0 -4.16 -20.83 0 0 4.16 4.16 0 0 4.17 4.17 0 0 4.16 8.33 0 0 -4.16 4.17 0 0 4.16 8.33 0 0 4.17 4.16 0 0 12.5 4.17 0 0 -8.33 4.16 0 0 -4.17 16.67 0 0 4.17 4.16 0 0 8.33 4.17 0 0 8.33 -4.17 0 0 12.5 -4.16 0 0 20.82 -4.17 0 0 12.5 -4.16 0 0 8.33 -4.17 0 0 8.33 -4.17 0 0 4.17 -4.16 0 0 -25 4.16 0 0 -4.16 -4.16 0 0 4.16 -4.17 0 0 4.17 -4.16 0 0 8.33 -4.17 0 0 8.33 -4.17 0 0 20.83 -4.16 0 0 8.33 -4.17 0 0 4.17 -4.16 0 0 4.16 -4.17 0 0 4.17 -4.16 0 0 4.17 -4.17 0 0 4.16 -4.16 0 0 4.17 -4.17 0 0 8.33 -4.17 0 0 8.33 -4.16 0 0 4.17 -4.17 0 0 4.16 -4.16 0 -4.17 0 0 4.17 -4.16 0 0 4.16 -4.17 0 0 4.17 -4.17 0 0 4.16 -4.16 0 0 4.17 -4.17 0 0 -4.17 -12.49 0 0 4.17 12.49 0 0 8.33 -4.16 0 0 4.17 -4.17 0 0 16.66 -37.49 0 0 4.16 -24.99 0 -8.33 0 0 -4.16 -4.17 0 0 4.16 -4.17 0 -20.82 0 -16.67 0 0 -4.16 -16.66 0 0 -4.17 -8.33 0 0 -4.16 -8.22 0c0.09,4.16 0.19,8.33 0.3,12.49l3.75 0 0 4.17 4.17 0 0 4.17 12.5 0 0 4.16 8.33 0 0 4.17 4.16 0 4.17 0 0 -4.17 4.16 0 0 4.17 8.34 0 0 4.16 20.82 0 4.17 0 0 8.33 -4.17 0 0 8.34 4.17 0 0 20.82 8.33 0 0 -20.82 -4.16 0 0 -8.34 4.16 0 0 -8.33 12.5 0 0 -4.16 8.33 0 8.33 0 37.49 0 0 20.83 4.17 0 0 8.33 4.16 0 0 12.49 4.17 0 0 8.33 4.16 0 0 4.17 4.17 0 0 4.17 -12.5 0 0 4.16 -8.33 0 0 4.17 25 0 0 4.16 4.16 0 0 12.5 4.17 0 0 16.66 4.16 0 0 4.17 4.17 0 0 4.16 4.16 0 0 -12.49 -4.16 0 0 -8.33 12.5 0 0 -4.17 8.33 0 0 -8.33 -8.33 0 0 4.16 -12.5 0 0 -8.33 -4.17 0 0 -8.33 8.33 0 0 -4.16 16.67 0 0 4.16 4.16 0 0 8.33 4.17 0 0 16.67 4.16 0 0 8.33 4.17 0 0 4.16 4.17 0 0 -4.16 -4.17 0 0 -12.5 -4.17 0 0 -4.17 8.33 0 0 -4.16 -8.33 0 0 -8.33 -4.16 0 0 -4.17 -4.17 0 0 -4.16 -4.16 0 0 -4.17 -4.17 0 0 -8.33 4.17 0 0 -4.17 8.33 0 0 -4.16 12.5 0 0 -4.17 -4.17 0 0 -8.33 4.17 0 0 -4.16 4.16 0 0 -4.17 8.33 0 0 -4.17 8.33 0 0 -4.16 8.34 0 0 -4.17 4.16 0 0 4.17 8.33 0 0 4.16 12.5 0 0 4.17 12.5 0 8.33 0 0 4.17 4.16 0 0 4.16 4.17 0 0 4.17 8.33 0 0 -8.33 -4.17 0 0 -4.17 -4.16 0 0 -4.17 -4.17 0 0 -8.33 -4.16 0 0 -4.16 -4.17 0 0 -4.17 -4.16 0 0 -8.33 -4.17 0 0 -4.17 -4.17 0 0 -8.33 -4.16 0 0 -4.16 -4.17 0 0 -4.17 4.17 0 0 -4.16 12.5 0 0 -4.17 -16.67 0 0 -4.17 -4.16 0 0 -4.16 4.16 0 0 -4.17 4.17 0 0 -4.16 12.5 0 0 -4.17 12.49 0 0 -4.16 4.17 0 0 -4.17 -12.5 0 0 -8.33 -8.33 0 0 -12.5 4.17 0 0 4.17 12.49 0 0 4.16 29.16 0 0 -4.16 8.33 0 0 4.16 4.17 0 0 4.17 4.16 0 0 4.17 8.34 0 0 8.33 4.16 0 0 8.33 4.17 0 0 20.83 8.33 0 0 -12.5 -4.17 0 0 -12.5 -4.16 0 0 -4.16 -4.17 0 0 -8.33 -4.16 0 0 -8.34 -4.17 0 0 -12.49 4.17 0 0 -4.17 4.16 0 0 -8.33 -4.16 0 0 4.16 -4.17 0 0 8.34 -12.5 0 0 -4.17 -4.16 0 0 4.17 -8.33 0 0 4.16 -20.83 0 0 -4.16 -8.33 0 0 -4.17 -4.17 0 0 -4.17 -4.16 0 0 -4.16 -8.34 0 0 -4.17 4.17 0 0 -4.16 4.17 0 12.49 0 0 -8.33 -4.16 0 0 -8.33 -8.33 0 0 4.16 -4.17 0 0 8.33 -8.33 0 0 -8.33 4.16 0 0 -20.83 4.17 0 0 -8.33 4.17 0 0 -8.33 4.16 0 0 -4.17 4.17 0 0 -4.16 4.16 0 0 8.33 4.17 0 0 4.17 4.16 0 0 4.16 -8.33 0 0 12.5 4.17 0 0 4.16 8.33 0 0 -12.49 4.16 0 0 16.66 4.17 0 0 4.17 -8.33 0 0 4.16 -8.33 0 0 12.5 24.99 0 0 -4.17 4.17 0 0 -4.16 8.33 0 0 4.16 4.16 0 0 4.17 4.17 0 0 4.16 4.17 0 8.33 0 4.16 0 0 4.17 4.17 0 0 4.16 4.16 0 0 4.17 4.17 0 0 4.17 4.17 0 0 4.16 4.16 0 0 4.17 4.17 0 0 4.16 8.33 0 0 4.17 4.16 0 0 4.17 8.34 0 0 4.16 4.16 0 0 4.17 4.17 0 0 4.16 4.16 0 0 25 4.17 0 0 16.66 -4.17 0 0 4.16 -4.16 0 0 4.17 -4.17 0 0 8.33 -4.16 0 0 4.17 -4.17 0 0 4.16 -8.33 0 0 4.17 -4.17 0 0 4.16 -8.33 0 0 4.17 -4.16 0 0 4.17 -4.17 0 -4.17 0 0 0 0 -4.17 -4.16 0 0 -4.17 -4.17 0 0 -4.16 -4.16 0 0 -4.17 -4.17 0 0 -4.16 -29.16 0 0 4.16 12.5 0 0 4.17 8.33 0 0 4.16 4.17 0 0 4.17 4.16 0 0 12.5 4.17 0 0 4.16 -4.17 0 0 4.17 4.17 0 4.16 0 0 4.16 4.17 0 0 -8.33 4.16 0 0 8.33 4.17 0 0 8.33 -8.33 0 0 8.34 -8.33 0 0 4.16 -4.17 0 0 4.17 -4.16 0 0 4.16 -4.17 0 0 4.17 -4.17 0 -4.16 0 -8.33 0 0 -4.17 -4.17 0 0 -4.16 4.17 0 0 -8.33 4.16 0 0 -4.17 4.17 0 0 -4.17 4.16 0 0 -4.16 4.17 0 0 -4.17 -12.5 0 0 4.17 -8.33 0 0 -12.5 -8.33 0 0 4.17 -4.16 0 0 4.16 4.16 0 0 8.33 -4.16 0 0 4.17 -4.17 0 0 8.33 -4.17 0 0 -4.16 -4.16 0 0 -4.17 -16.66 0 0 -12.5 -8.34 0 0 4.17 -8.33 0 0 -4.17 -8.33 0 0 -4.16 -12.5 0 0 -4.17 -20.82 0 0 4.17 8.33 0 0 4.16 12.49 0 0 4.17 8.34 0 0 4.16 8.33 0 0 4.17 4.16 0 0 4.17 8.33 0 0 4.16 8.34 0 0 4.17 8.33 0 0 4.16 4.16 0 0 4.17 4.17 0 0 4.16 -4.17 0 0 8.34 -4.16 0 0 16.66 -4.17 0 0 16.66 4.17 0 0 -4.16 4.16 0 0 -12.5 4.17 0 0 -8.33 4.16 0 0 -4.17 4.17 0 0 -4.16 4.17 0 0 -4.17 8.33 0 0 4.17 4.16 0 0 20.82 4.17 0 0 20.83 4.16 0 0 4.17 4.17 0 0 -20.83 4.16 0 0 -12.5 4.17 0 0 -8.33 4.17 0 0 -4.16 4.16 0 0 -4.17 8.33 0 0 -4.17 8.33 0 0 8.34 4.17 0 0 33.32 4.17 0 0 24.99 -4.17 0 0 8.34 -4.17 0 0 4.16 -8.33 0 0 4.17 -4.16 0 0 4.16 -4.17 0 0 4.17 -8.33 0 0 8.33 -4.17 0 0 4.17 12.5 0 0 -4.17 4.17 0 0 -4.17 8.33 0 0 -4.16 8.33 0 0 -4.17 8.33 0 0 -4.16 4.17 0 0 -4.17 8.33 0 0 4.17 4.16 0 0 4.16 4.17 0 0 4.17 4.16 0 0 8.33 4.17 0 0 8.33 4.17 0 0 8.33 4.16 0 0 4.17 4.17 0 0 4.16 4.16 0 0 12.5 4.17 0 0 16.66 -4.17 0 0 12.5 4.17 0 0 8.33 4.16 0 0 16.66 4.17 0 0 12.5 4.17 0 0 20.83 4.16 0 0 16.66 -4.16 0 0 8.33 -4.17 0 0 4.17 -8.33 0 0 4.17 20.83 0 0 4.16 4.16 0 0 12.5 4.17 0 0 12.49 4.16 0 0 8.34 4.17 0 0 4.16 4.17 0 0 4.17 4.16 0 0 4.16 4.17 0 0 4.17 8.33 0 0 8.33 -4.17 0 0 4.2c7.72,-5.74 14.97,-11.3 21.92,-16.7zm-271.86 -855.56l12.5 -0.23 0 1.83 -12.5 0 0 -1.6zm-66.65 526.48l0 -20.83 -4.16 0 0 -8.33 -4.17 0 0 8.33 -8.33 0 0 -8.33 8.33 0 0 -4.17 0 -8.33 -4.16 0 0 -20.83 -4.17 0 0 -16.66 -8.33 0 0 -8.33 4.16 0 0 -4.17 4.17 0 0 -4.16 4.17 0 0 -4.17 4.16 0 0 -4.16 4.17 0 0 -8.34 4.16 0 0 -4.16 0 0 0 8.33 4.17 0 0 -8.33 4.16 0 0 -4.17 4.17 0 0 -4.16 8.33 0 0 -8.33 4.17 0 0 -8.34 4.16 0 0 -4.16 4.17 0 0 -4.17 8.33 0 0 -4.16 12.5 0 0 -4.17 8.33 0 0 4.17 -4.17 0 0 16.66 -4.16 0 0 8.33 -4.17 0 0 20.83 -4.16 0 0 16.66 0 8.33 -12.5 0 0 4.17 8.33 0 0 8.33 -4.17 0 0 12.5 4.17 0 0 -4.17 4.17 0 0 -4.16 8.33 0 0 4.16 12.49 0 0 4.17 -4.16 0 0 4.16 -8.33 0 0 4.17 -8.33 0 0 4.16 -8.34 0 0 -4.16 -4.16 0 0 8.33 4.16 0 0 8.33 -4.16 0 0 4.17 -4.17 0 0 4.16 -8.33 0 0 4.17 -4.16 0 0 8.33 -4.17 0 0 4.16 -4.17 0 0 4.17 -8.33 0 0 4.17 0 0zm133.3 -216.62l4.17 0 0 4.17 -4.17 0 0 -4.17zm-33.32 -41.65l4.16 0 0 4.16 4.17 0 0 8.33 4.17 0 0 4.17 4.16 0 0 4.16 -4.16 0 0 4.17 0 4.16 -4.17 0 0 4.17 -4.17 0 0 8.33 -4.16 0 0 4.17 -4.17 0 0 8.33 -4.16 0 0 8.33 -4.17 0 0 4.17 -4.16 0 0 -29.16 4.16 0 0 -8.34 4.17 0 0 -4.16 4.16 0 0 -20.83 4.17 0 0 -4.16zm-37.49 87.47l-12.5 0 -4.17 0 0 -8.33 4.17 0 0 -8.33 4.17 0 0 -12.49 4.16 0 0 -4.17 4.17 0 0 29.16 0 4.16zm104.14 -87.47l4.16 0 0 -4.17 -4.16 0 0 4.17zm8.33 587.35l4.17 0 0 -4.16 -4.17 0 0 4.16zm-137.47 -437.39l4.17 0 0 -4.17 -4.17 0 0 4.17zm95.81 416.56l4.17 0 0 -4.16 -4.17 0 0 4.16 -4.16 0 0 -12.49 -4.17 0 0 4.16 -4.16 0 0 4.17 -4.17 0 0 4.16 4.17 0 0 4.17 8.33 0 0 4.17 4.16 0 0 -8.34zm58.32 -808.13l4.17 0 0 -4.17 -4.17 0 0 4.17zm-358.24 566.53l4.16 0 0 -4.17 -4.16 0 0 4.17zm37.49 -104.14l4.16 0 0 -4.17 -4.16 0 0 4.17zm383.24 320.75l4.16 0 0 -4.16 -4.16 0 0 4.16zm-129.14 -624.85l4.17 0 0 -4.16 -4.17 0 0 4.16zm195.79 649.84l4.16 0 0 -8.33 -4.16 0 0 8.33zm-187.46 -37.49l4.17 0 0 -8.33 -4.17 0 0 8.33zm33.33 58.32l4.16 0 0 -8.33 -4.16 0 0 8.33zm154.13 -74.98l4.16 0 0 -8.33 -4.16 0 0 8.33zm-158.3 112.47l4.17 0 0 -8.33 -4.17 0 0 8.33zm-41.65 -462.38l8.33 0 0 -4.17 -8.33 0 0 4.17zm-249.94 108.3l4.16 0 0 -8.33 -4.16 0 0 8.33zm479.05 287.43l8.33 0 0 -4.16 -8.33 0 0 4.16zm-329.09 -408.23l4.17 0 0 -8.33 -4.17 0 0 8.33zm154.13 466.55l4.17 0 0 -12.49 -4.17 0 0 12.49zm145.8 -791.47l4.16 0 0 -4.17 4.17 0 0 -4.16 -8.33 0 0 8.33zm104.14 499.88l4.17 0 0 -4.17 4.16 0 0 -4.16 -8.33 0 0 8.33zm-4.17 -179.13l12.5 0 0 -4.16 -12.5 0 0 4.16 -16.66 0 0 4.17 16.66 0 0 -4.17zm-270.76 -149.96l4.16 0 0 4.17 4.17 0 0 -8.34 -8.33 0 0 4.17zm24.99 0l12.5 0 0 -4.17 -12.5 0 0 4.17zm-345.75 258.27l4.17 0 0 4.17 4.16 0 0 -8.34 -8.33 0 0 4.17zm216.61 8.33l8.34 0 0 -4.16 -4.17 0 0 -4.17 -4.17 0 0 8.33zm295.77 279.1l8.33 0 0 -8.33 -8.33 0 0 8.33zm-220.78 45.82l4.16 0 0 4.17 4.17 0 0 -8.33 -4.17 0 0 -4.17 -4.16 0 0 8.33zm395.73 -337.42l0 -4.16 4.17 0 0 -8.33 -8.33 0 0 4.16 -4.17 0 0 16.67 4.17 0 0 4.16 4.16 0 0 -12.5zm-312.42 -395.73l4.17 0 0 4.16 12.49 0 0 -4.16 -8.33 0 0 -4.17 -8.33 0 0 4.17zm-12.5 137.46l20.83 0 0 -4.16 -20.83 0 0 4.16zm-79.14 -216.61l-4.17 0 0 8.33 -4.17 0 0 8.33 4.17 0 0 -4.16 4.17 0 0 -8.33 4.16 0 0 -16.67 -4.16 0 0 12.5zm4.16 758.15l-4.16 0 0 4.17 -8.34 0 0 4.16 16.67 0 0 -8.33 4.16 0 0 -4.17 -4.16 0 0 -4.16 -4.17 0 0 8.33zm29.16 -687.33l4.17 0 0 4.16 4.16 0 0 4.17 4.17 0 0 4.16 4.16 0 0 -8.33 -4.16 0 0 -12.5 -12.5 0 0 8.34zm-295.76 270.76l8.33 0 0 8.34 -8.33 0 0 -8.34zm220.78 -358.24l4.17 0 0 8.33 8.33 0 0 -16.66 -4.17 0 0 -8.33 -4.16 0 0 -4.17 -4.17 0 0 20.83zm-224.95 541.53l-4.16 0 0 25 4.16 0 0 8.33 4.17 0 0 -37.49 -4.17 0 0 4.16zm162.46 -124.97l4.17 0 0 12.5 -12.5 0 0 16.66 4.17 0 0 -4.16 4.16 0 0 -4.17 4.17 0 0 -4.16 4.17 0 0 8.33 4.16 0 0 4.16 8.33 0 0 -8.33 -4.16 0 0 -4.16 4.16 0 0 -8.34 -4.16 0 0 -4.16 -4.17 0 0 -12.5 -12.5 0 0 8.33zm-95.81 -108.3l4.17 0 0 -4.17 4.17 0 0 24.99 -4.17 0 0 -12.49 -4.17 0 0 -8.33z"/>
  <path id="root" class="fil0 str0" d="M463.06 2457.4c-107.49,-16.13 -113.27,-52.85 -149.8,-133.64 -23.6,-52.19 -52.93,-140.56 -64.73,-194.36 -37.1,-169.04 -41.77,-285.97 -43.94,-457.91 -2.89,-228.73 -59.9,-557.32 -114.99,-793.57 -3.13,-13.39 -11.19,-36.51 -12.93,-46.27l6.73 -40.93c108.72,52.08 122.28,225.88 314.54,174.79 125.7,-33.41 177.51,-155.31 322.89,-176.84 -113.6,472.34 -198.12,732.37 -220.72,1232.92l-12.67 350.81c-4.02,60.94 -16.92,33.65 -24.38,85z"/>
 </g>
</svg>
