<?xml version="1.0" encoding="UTF-8"?>
<!DOCTYPE svg PUBLIC "-//W3C//DTD SVG 1.1//EN" "http://www.w3.org/Graphics/SVG/1.1/DTD/svg11.dtd">
<!-- Creator: CorelDRAW (Versión de evaluación) -->
<svg xmlns="http://www.w3.org/2000/svg" xml:space="preserve" width="739px" height="2458px" version="1.1" style="shape-rendering:geometricPrecision; text-rendering:geometricPrecision; image-rendering:optimizeQuality; fill-rule:evenodd; clip-rule:evenodd"
viewBox="0 0 739 2457.4"
 xmlns:xlink="http://www.w3.org/1999/xlink"
 xmlns:xodm="http://www.corel.com/coreldraw/odm/2003">
 <defs>
  <style type="text/css">
   <![CDATA[
    .str0 {stroke:#4B4B4D;stroke-width:10;stroke-miterlimit:22.9256}
    .fil0 {fill:#FEFEFE}
   ]]>
  </style>
 </defs>
 <g id="tooth-fissure-crown-27">
  <metadata id="CorelCorpID_0Corel-Layer"/>
  <path id="crown" class="fil0 str0" d="M199.7 2219.96l-8.33 0 0 8.33 8.33 0 0 -8.33zm431.58 -129.89c25.95,-14.76 20.44,-14.73 24.63,-56.02 -26.12,19.86 -22.4,10.04 -24.63,56.02 -15.17,11.21 -20.95,28.31 -23.34,48.71l0 -2.14 -4.17 0 0 -4.16 -4.16 0 0 -4.17 0 -4.16 -4.17 0 0 -4.17 0 -4.17 0 -8.33 -4.16 0 0 -8.33 -4.17 0 0 -20.83 4.17 0 0 -8.33 -4.17 0 0 -8.33 -4.17 0 0 -12.5 -4.16 0 0 -12.49 8.33 0 0 -4.17 8.33 0 0 -4.16 8.33 0 0 -4.17 33.33 0 0 -4.17 12.49 0 0 -4.16 8.34 0 0 4.16 8.33 0 0 -4.16 4.16 0 0 4.16 16.67 0 0 8.34 -4.17 0 0 4.16 4.17 0 0 -4.16 16.66 0 0 12.49 4.16 0 0 -4.16 4.17 0 0 4.16 8.33 0 0 -8.33 -4.16 0 0 -4.16 -4.17 0 0 -8.34 -4.17 0 0 4.17 -12.49 0 0 -4.17 -4.17 0 0 -4.16 4.17 0 0 -4.17 8.33 0 0 -4.16 -29.16 0 0 -4.17 -12.5 0 0 -4.17 4.17 0 0 -4.16 -12.5 0 0 8.33 -12.5 0 0 4.17 -16.66 0 0 4.16 -16.66 0 0 4.17 -4.17 0 -4.16 0 0 4.16 -4.17 0 0 4.17 -8.33 0 0 4.17 -8.33 0 -4.17 0 0 4.16 -33.32 0 0 -4.16 -4.17 0 0 -12.5 -8.33 0 0 12.5 -4.16 0 0 4.16 -4.17 0 0 4.17 -8.33 0 0 4.16 -4.17 0 0 4.17 -4.16 0 0 4.16 -4.17 0 0 4.17 -4.16 0 0 4.16 -4.17 0 0 4.17 -4.17 0 0 4.17 -4.16 0 0 12.49 -4.17 0 0 8.33 -4.16 0 0 4.17 -4.17 0 0 4.17 -4.16 0 0 -4.17 -8.33 0 0 -4.17 -4.17 0 0 8.34 -8.33 0 0 4.16 -12.5 0 0 4.17 -8.33 0 0 4.16 -4.17 0 0 4.17 -12.49 0 0 4.16 -8.33 0 -4.17 0 -29.16 0 0 4.17 -29.16 0 -4.17 0 -4.16 0 0 4.17 -4.17 0 -4.16 0 0 -4.17 -20.83 0 0 4.17 -16.66 0 -8.33 0 0 -12.5 -4.17 0 0 8.33 -4.17 0 0 4.17 -4.16 0 -8.33 0 0 4.16 -45.82 0 0 4.17 -8.34 0 0 4.16 -4.16 0 0 4.17 -16.66 0 0 -4.17 -16.67 0 0 -4.16 -12.49 0 0 -4.17 -4.17 0 0 -4.16 -4.16 0 0 -4.17 -4.17 0 0 -16.66 -4.17 0 0 -12.5 -4.16 0 0 -8.33 8.33 0 0 -4.17 4.17 0 0 -4.16 4.16 0 0 -4.17 4.17 0 0 -4.16 4.16 0 0 -8.34 4.17 0 0 -12.49 4.16 0 0 -12.5 4.17 0 0 -4.16 20.83 0 0 -4.17 -8.33 0 0 -4.17 -4.17 0 0 -8.33 -4.17 0 0 -16.66 4.17 0 0 -20.83 4.17 0 0 -12.5 4.16 0 0 -16.66 4.17 0 0 -8.33 4.16 0 0 -12.5 -4.16 0 0 -16.66 4.16 0 0 -12.5 4.17 0 0 -4.16 4.16 0 0 -4.17 4.17 0 0 -8.33 4.17 0 0 -8.33 4.16 0 0 -8.33 4.17 0 0 -4.17 4.16 0 0 -4.16 4.17 0 0 -4.17 8.33 0 0 4.17 4.16 0 0 4.16 8.34 0 0 4.17 8.33 0 0 4.16 8.33 0 0 4.17 4.16 0 0 4.17 12.5 0 0 -4.17 -4.16 0 0 -8.33 -8.34 0 0 -4.17 -4.16 0 0 -4.16 -4.17 0 0 -4.17 -8.33 0 0 -4.16 -4.16 0 0 -8.34 -4.17 0 0 -24.99 4.17 0 0 -33.32 4.16 0 0 -8.34 8.33 0 0 4.17 8.33 0 0 4.17 4.17 0 0 4.16 4.17 0 0 8.33 4.16 0 0 12.5 4.17 0 0 20.83 4.16 0 0 -4.17 4.17 0 0 -20.83 4.16 0 0 -20.82 4.17 0 0 -4.17 12.5 0 0 -4.17 8.33 0 0 -4.16 4.16 0 0 -4.17 4.17 0 0 -4.16 8.33 0 0 -4.17 8.33 0 0 -4.16 8.33 0 0 -4.17 4.17 0 0 -4.17 8.33 0 0 -4.16 8.33 0 0 -4.17 12.5 0 0 -4.16 8.33 0 0 -4.17 -20.83 0 0 4.17 -12.5 0 0 4.16 -8.33 0 0 4.17 -8.33 0 0 -4.17 -8.33 0 0 12.5 -16.66 0 0 4.17 -4.17 0 0 8.33 -16.66 0 0 4.16 -8.33 0 0 4.17 -8.33 0 -4.17 0 -4.16 0 0 -4.17 -4.17 0 0 -4.16 -4.17 0 0 -4.17 -4.16 0 0 -4.16 -8.33 0 0 -8.34 -8.33 0 0 -8.33 4.16 0 0 -8.33 4.17 0 0 8.33 4.16 0 0 -4.16 4.17 0 0 -8.33 4.16 0 0 -12.5 4.17 0 0 -4.17 4.17 0 0 -4.16 8.33 0 0 -4.17 12.49 0 0 -4.16 -29.16 0 0 4.16 -4.16 0 0 4.17 -4.17 0 0 4.16 -4.16 0 0 4.17 -4.17 0 0 4.17 -4.16 0 0 8.33 -4.17 0 0 12.49 -4.17 0 0 4.17 -12.49 0 0 -4.17 -8.33 0 0 4.17 4.16 0 0 4.16 8.33 0 0 4.17 4.17 0 0 4.17 -12.5 0 0 -4.17 -12.49 0 0 4.17 8.33 0 0 4.16 8.33 0 0 4.17 4.16 0 0 8.33 4.17 0 0 33.32 4.16 0 0 4.17 -4.16 0 0 16.66 -4.17 0 0 8.33 -4.16 0 0 8.33 -4.17 0 0 4.17 -4.16 0 0 4.17 -4.17 0 0 4.16 -4.16 0 0 4.17 -4.17 0 0 4.16 -4.17 0 0 4.17 -4.16 0 0 4.16 -4.17 0 0 4.17 0 4.17 -4.16 0 0 4.16 -8.33 0 0 -4.16 -4.17 0 0 -4.17 -4.17 0 0 -8.33 -4.16 0 0 -4.17 -4.17 0 0 -8.33 4.17 0 0 -12.5 4.16 0 0 -8.33 4.17 0 0 -16.66 4.17 0 0 -20.83 4.16 0 0 -12.49 4.17 0 8.33 0 0 -4.17 -4.17 0 0 -4.17 -4.16 0 0 -8.33 4.16 0 0 -4.16 4.17 0 0 -4.17 4.16 0 0 -4.16 4.17 0 0 -8.34 -12.5 0 0 8.34 -4.16 0 0 4.16 -4.17 0 0 -4.16 -4.16 0 0 -8.34 4.16 0 0 -4.16 8.33 0 0 -8.33 -4.16 0 0 -4.17 -4.17 0 0 4.17 -4.16 0 0 4.16 -4.17 0 0 8.33 -4.17 0 0 8.34 -4.16 0 0 8.33 -4.17 0 0 12.49 -4.16 0 0 4.17 4.16 0 0 4.17 4.17 0 0 4.16 4.16 0 0 12.5 4.17 0 0 4.16 -4.17 0 0 12.5 -4.16 0 0 8.33 -4.17 0 0 12.5 -4.16 0 0 4.16 -4.17 0 0 4.17 -4.16 0 0 8.33 -4.17 0 0 8.33 -4.16 0 0 4.17 -12.5 0 0 -4.17 -8.33 0 0 -12.49 -12.5 0 0 -4.17 -4.17 0 0 8.33 4.17 0 0 4.17 4.16 0 0 12.49 4.17 0 0 4.17 12.5 0 0 4.17 8.33 0 0 4.16 4.17 0 4.16 0 0 8.33 -4.16 0 0 4.17 -4.17 0 0 24.99 8.33 0 0 -4.16 -4.16 0 0 -8.33 4.16 0 0 -4.17 4.17 0 0 -4.17 8.33 0 0 25 -4.17 0 0 8.33 -4.16 0 0 4.16 -8.33 0 0 12.5 4.16 0 0 4.17 -4.16 0 0 8.33 -4.17 0 0 8.33 -4.17 0 0 8.33 -4.16 0 0 4.17 -4.17 0 0 8.33 4.17 0 0 -4.17 4.16 0 0 -4.16 4.17 0 0 -4.17 4.17 0 0 -12.5 4.16 0 0 -4.16 4.17 0 0 -12.5 8.33 0 0 -4.16 12.49 0 0 8.33 -4.16 0 0 16.66 -4.17 0 0 20.83 -4.16 0 0 37.49 -4.17 0 0 8.33 -4.16 0 0 8.33 -4.17 0 0 8.33 -4.16 0 0 8.33 -4.17 0 0 4.17 -4.17 0 0 8.33 -4.16 0 -12.5 0 0 4.17 -4.17 0 0 4.16 -4.16 0 0 4.17 -8.33 0 0 8.33 8.33 0 0 4.17 -49.99 0 0 8.33 -8.33 0 0 4.16 -4.17 0 0 4.17 12.5 0 0 -4.17 12.5 0 0 4.17 8.33 0 0 -4.17 12.5 0 0 -4.16 4.16 0 0 4.16 4.17 0 0 -4.16 8.33 0 0 4.16 8.33 0 0 4.17 4.17 0 0 8.33 4.16 0 0 8.33 4.17 0 0 4.17 4.16 0 0 4.16 -4.16 0 0 8.33 4.16 0 0 4.17 4.17 0 0 8.33 4.17 0 0 4.17 4.16 0 0 8.33 4.17 0 0 12.49 4.16 0 0 12.5 4.17 0 0 8.33 4.16 0 0 4.17 -4.16 0 0 16.66 -8.33 0 0 12.5 -4.17 0 0 8.33 4.17 0 0 4.16 -4.17 0 0 8.34 -4.16 0 0 12.49 0 8.33 -4.17 0 0 8.34 -4.17 0 0 4.16 -8.33 0 0 4.17 -4.16 0 0 8.33 -4.17 0 0 12.49 -4.17 0 0 4.17 -33.32 0 0 -4.17 -4.17 0 0 4.17 -4.16 0 -4.17 0 -4.16 0 0 -4.17 -3.93 0c-58.45,-134.39 -66.47,-339.16 -53.17,-494.5 5.16,-60.37 11.38,-111.99 19.16,-155.34l0.45 0 0 -2.39 0.32 -1.77 16.34 0 0 4.16 16.66 0 0 4.17 29.16 0 0 -4.17 -8.33 0 0 -4.16 -29.16 0 0 -4.17 -8.33 0 0 -4.16 -4.17 0 0 -4.17 -4.16 0 0 -8.33 -3.91 0c3.15,-15.01 6.54,-28.9 10.18,-41.66l2.06 0 0 4.17 4.16 0 0 4.16 4.17 0 0 -16.66 -7.92 0c16.35,-53.23 37.71,-85.44 66.24,-98.81l0 7.17 -4.17 0 0 4.16 -4.16 0 0 8.33 -4.17 0 0 4.17 -8.33 0 0 4.16 -4.16 0 0 4.17 -4.17 0 0 4.17 -4.17 0 0 4.16 -4.16 0 0 4.17 4.16 0 0 -4.17 8.34 0 0 -4.16 8.33 0 0 -4.17 8.33 0 0 -4.17 4.16 0 0 -4.16 12.5 0 0 -4.17 12.5 0 0 -4.16 4.16 0 0 4.16 8.34 0 0 4.17 4.16 0 0 -8.33 4.17 0 0 -4.17 4.16 0 0 4.17 8.33 0 0 4.16 4.17 0 0 4.17 8.33 0 0 4.16 4.17 0 0 4.17 4.16 0 0 4.17 -4.16 0 0 8.33 8.33 0 0 -4.17 16.66 0 4.17 0 0 4.17 20.82 0 0 4.16 8.33 0 0 4.17 4.17 0 0 4.16 4.17 0 0 8.34 -4.17 0 0 8.33 4.17 0 0 4.16 4.16 0 0 8.33 12.5 0 8.33 0 4.17 0 0 -4.16 4.16 0 0 -4.17 4.17 0 0 -4.16 8.33 0 0 4.16 4.16 0 0 4.17 25 0 0 -12.5 -8.33 0 0 -4.16 -8.33 0 0 -4.17 4.16 0 0 -3.95c13.53,2.91 25.95,3.26 37.49,1.6l0 10.68 4.17 0 0 8.33 -8.33 0 0 -8.33 -4.17 0 0 -4.16 -8.33 0 0 8.33 -4.17 0 0 8.33 12.5 0 4.17 0 0 4.16 20.82 0 0 4.17 12.5 0 0 4.17 4.17 0 0 4.16 8.33 0 8.33 0 0 4.17 12.5 0 0 4.16 8.33 0 0 4.17 4.16 0 0 4.16 4.17 0 0 8.33 4.16 0 0 8.34 8.34 0 0 4.16 4.16 0 0 4.17 8.33 0 0 4.16 4.17 0 0 8.34 4.17 0 0 4.16 4.16 0 0 4.17 4.17 0 0 4.16 4.16 0 0 4.17 4.17 0 0 8.33 -8.33 0 0 16.66 -4.17 0 0 20.83 -4.16 0 0 8.33 0 4.17 8.33 0 0 8.33 -8.33 0 0 -8.33 -4.17 0 0 8.33 -4.17 0 0 33.32 -4.16 0 0 8.33 -12.5 0 0 -4.16 -8.33 0 0 8.33 8.33 0 0 4.17 12.5 0 0 8.33 -4.17 0 0 12.49 4.17 0 0 -4.16 4.16 0 0 -4.17 4.17 0 0 -16.66 4.17 0 0 -12.5 4.16 0 0 -8.33 4.17 0 0 -8.33 4.16 0 0 -4.17 4.17 0 0 -8.33 4.16 0 0 -12.49 4.17 0 0 -8.33 4.16 0 0 -20.83 37.5 0 8.33 0 8.33 0 0 4.16 45.82 0 0 -4.16 8.33 0 0 -4.17 4.17 0 0 4.17 4.16 0 4.17 0 0 -4.17 8.33 0 0 -4.16 12.5 0 0 -4.17 4.16 0 0 -4.17 8.33 0 0 -4.16 8.33 0 0 -4.17 12.5 0 0 -4.16 16.66 0 0 -4.17 1.17 0c1.43,5.51 2.87,11.06 4.29,16.66l-1.29 0 0 8.34 3.4 0c34.35,136.23 65.53,295.55 46.45,368.45 -3.37,12.9 -7.52,24.8 -12.33,35.61l-0.03 0 0 0.07c-10.33,23.23 -23.73,41.48 -39.16,54.09l-6.66 0 0 4.16 1.19 0c-13.93,9.89 -29.33,15.39 -45.51,16.03l0.41 -28.52 2.25 0 0 8.33 20.83 0 0 -20.83 8.33 0 0 -8.33 -4.16 0 0 -8.33 -8.34 0 0 -4.17 -4.16 0 0 4.17 -4.17 0 0 8.33 -4.16 0 0 4.16 -4.17 0 0 4.17 -2.08 0 0.43 -29.91zm-24.88 71.57c-0.22,6.75 -0.33,13.71 -0.49,20.82l-6.3 0 0 4.17 -4.17 0 0 4.17 -4.16 0 0 4.16 -4.17 0 0 4.17 -4.17 0 0 4.16 -4.16 0 0 16.67 -4.17 0 0 4.16 -4.16 0 0 4.17 -20.83 0 0 4.16 -8.33 0 0 -4.16 -12.5 0 0 4.16 -4.16 0 0 4.17 -8.34 0 0 4.16 20.83 0 0 4.17 33.33 0 0 4.16 4.16 0 0 4.17 4.17 0 0 8.33 4.16 0 0 4.17 4.17 0 0 4.16 5.28 0c-9.21,31.96 -21.95,69.65 -28.35,76.62 -65.73,71.55 -102.16,-76.92 -135.36,-125.07 -80.1,-2.78 -88.81,76.99 -142.29,157.67 -62.63,94.46 -97.16,105.17 -174.32,22.38 -7.78,-8.34 -15.07,-17.54 -21.91,-27.46l1.24 0 0 -4.16 8.33 0 0 -4.17 8.33 0 0 -4.16 4.16 0 0 -4.17 4.17 0 0 -4.16 4.17 0 0 -8.34 4.16 0 0 -4.16 4.17 0 8.33 0 0 -16.66 -4.17 0 0 -8.34 4.17 0 0 -12.49 12.5 0 0 -8.33 4.16 0 0 -4.17 4.17 0 0 -4.16 4.16 0 0 -4.17 8.33 0 0 -4.17 4.17 0 0 4.17 12.5 0 0 -4.17 4.16 0 4.17 0 0 4.17 8.33 0 0 4.17 8.33 0 0 4.16 4.17 0 0 4.17 4.16 0 0 4.16 16.66 0 0 -4.16 4.17 0 0 -8.33 -4.17 0 0 -4.17 -12.49 0 0 -4.17 4.16 0 0 -12.49 4.17 0 0 -4.17 4.16 0 0 -8.33 4.17 0 0 -8.33 4.17 0 0 4.16 8.33 0 0 4.17 8.33 0 0 -8.33 -4.17 0 0 -4.17 -4.16 0 0 -4.16 8.33 0 8.33 0 0 16.66 4.17 0 0 4.17 -4.17 0 0 4.16 4.17 0 0 4.17 8.33 0 0 -12.5 -4.17 0 0 -12.5 4.17 0 8.33 0 0 -16.66 12.5 0 0 -4.16 4.16 0 0 -4.17 4.17 0 0 -8.33 12.49 0 0 -12.5 -8.33 0 0 -4.16 16.66 0 0 -8.34 -12.49 0 0 -16.66 16.66 0 0 25 -4.17 0 0 4.16 12.5 0 0 -4.16 8.33 0 0 -4.17 4.17 0 0 -4.17 -4.17 0 0 -4.16 8.33 0 0 -4.17 4.17 0 0 -4.16 4.17 0 0 -4.17 12.49 0 0 -4.16 16.67 0 0 -4.17 4.16 0 0 4.17 4.17 0 0 -4.17 4.16 0 0 -4.17 4.17 0 0 -4.16 12.49 0 0 -4.17 -4.16 0 0 -4.16 24.99 0 0 -4.17 4.17 0 0 -4.16 4.17 0 0 -4.17 4.16 0 0 -4.16 4.17 0 0 -4.17 4.16 0 12.5 0 0 4.17 8.33 0 0 4.16 8.33 0 0 -4.16 -4.16 0 0 -4.17 -4.17 0 0 -4.17 -4.17 0 0 -12.49 4.17 0 0 -4.17 8.33 0 0 -4.16 -4.16 0 0 -16.67 4.16 0 0 -12.49 16.66 0 0 -8.34 4.17 0 0 -4.16 4.17 0 0 -4.17 4.16 0 0 -4.16 4.17 0 0 -4.17 4.16 0 0 4.17 33.33 0 0 4.16 4.16 0 0 16.67 4.17 0 0 33.32 4.16 0 0 25 4.17 0 0 8.33 4.17 0 0 8.33 4.16 0 0 4.16 4.17 0 0 8.33 4.16 0 0 8.34 2.63 0zm-0.86 33.32c-0.4,10.73 -1.12,21.69 -2.7,32.65 -0.94,6.54 -4.01,19.24 -8.1,34l-7.63 0 0 -4.16 -4.17 0 0 -8.34 -4.16 0 0 -16.66 4.16 0 0 -8.33 4.17 0 0 -8.33 4.17 0 0 -8.33 8.33 0 0 -4.17 4.16 0 0 -8.33 1.77 0zm-539.14 138.28l-0.4 -0.81 0.4 0 0 0.81zm-40.56 -675.65c0.54,-2.82 1.08,-5.58 1.62,-8.33l1.45 0 0 8.33 -3.07 0zm84.77 -166.62c0.54,-0.23 1.08,-0.43 1.61,-0.64l0 0.64 -1.61 0zm18.28 -5.13c1.37,-0.21 2.76,-0.37 4.16,-0.51l0 5.64 -4.16 0 0 -5.13zm45.82 3.87c22.89,6.24 48.75,18.48 78.02,36.33 12.23,7.45 23.67,13.08 34.45,17.18l0 1.9 -4.16 0 0 4.16 -8.33 0 0 4.17 -20.83 0 0 -4.17 -4.17 0 0 -4.16 -4.16 0 0 -4.17 -4.17 0 0 -4.16 -4.17 0 0 -8.33 -4.16 0 0 -4.17 -4.17 0 0 4.17 -8.33 0 0 -4.17 -12.49 0 0 -4.17 -4.17 0 0 -4.16 -8.33 0 0 -4.17 -4.17 0 0 -4.16 -4.16 0 0 -4.17 -4.17 0 0 -4.16 -4.16 0 0 -4.17 -4.17 0 0 -5.42zm183.29 58.76c10.34,-2.89 19.98,-7.35 29.16,-12.88l0 9.53 4.16 0 0 4.16 4.17 0 0 12.5 4.17 0 0 8.33 4.16 0 0 8.33 -4.16 0 -12.5 0 0 -4.16 -4.17 0 0 -4.17 -4.16 0 0 -4.16 -4.17 0 0 -4.17 -4.16 0 0 -4.16 -8.34 0 0 -4.17 -4.16 0 0 -4.98zm37.49 -18.26c67.58,-46.61 111.57,-146.24 224.62,-79.67 0.04,0.05 28.58,88.01 57.64,198.72l-3.16 0 0 4.17 -12.5 0 0 4.16 -24.99 0 0 4.17 -8.33 0 0 4.16 -8.33 0 0 4.17 -16.67 0 0 4.16 -16.66 0 -37.49 0 -24.99 0 0 -4.16 -37.5 0 0 -16.66 -4.16 0 0 -4.17 -4.17 0 0 -8.33 12.5 0 0 -4.17 -12.5 0 0 4.17 -4.16 0 0 -4.17 -4.17 0 0 -4.16 -4.16 0 0 -4.17 -4.17 0 0 -4.16 -4.16 0 0 -4.17 -4.17 0 -4.17 0 0 -4.17 -4.16 0 0 -4.16 -4.17 0 0 -8.33 -4.16 0 0 -8.33 -4.17 0 0 -4.17 -4.17 0 0 -4.16 -4.16 0 0 -4.17 -4.17 0 0 -4.17 -4.16 0 0 -4.16 -4.17 0 0 -4.17 -4.16 0 0 -8.33 -4.17 0 0 -20.83 -4.16 0 0 -8.33 -4.17 0 0 -2.41zm-120.8 548.11l-4.17 0 0 -4.16 4.17 0 0 4.16zm41.65 -20.83l-4.16 0 0 -4.16 4.16 0 0 4.16 4.17 0 0 -12.49 4.16 0 0 4.16 4.17 0 0 4.17 4.16 0 0 4.16 -4.16 0 0 4.17 -8.33 0 0 4.17 -4.17 0 0 -8.34zm-99.97 337.42l-4.17 0 0 -4.16 4.17 0 0 4.16zm0 -666.5l-4.17 0 0 -4.17 4.17 0 0 4.17zm-37.49 -104.14l-4.17 0 0 -4.17 4.17 0 0 4.17zm16.66 408.23l-4.17 0 0 -4.16 4.17 0 0 4.16zm195.78 149.96l-4.16 0 0 -4.16 4.16 0 0 4.16zm312.43 -212.44l-4.17 0 0 -4.17 4.17 0 0 4.17zm-574.86 87.47l-4.17 0 0 -8.33 4.17 0 0 8.33zm187.45 -37.49l-4.16 0 0 -8.33 4.16 0 0 8.33zm-33.32 58.32l-4.17 0 0 -8.33 4.17 0 0 8.33zm-208.29 -474.88l-8.33 0 0 -4.17 8.33 0 0 4.17zm337.42 166.62l-8.33 0 0 -4.16 8.33 0 0 4.16zm-283.26 233.28l-4.17 0 0 -8.33 4.17 0 0 8.33zm158.29 112.47l-4.16 0 0 -8.33 4.16 0 0 8.33zm-116.64 -245.77l-4.16 0 0 -8.33 -8.33 0 0 -4.17 -4.17 0 0 12.5 4.17 0 0 4.17 4.16 0 0 4.16 8.33 0 0 -8.33zm87.48 416.57l-8.33 0 0 -4.17 8.33 0 0 4.17zm-79.14 -612.36l-4.17 0 0 -8.33 4.17 0 0 8.33zm-79.15 374.91l-8.33 0 0 -4.16 8.33 0 0 4.16zm154.13 224.95l-8.33 0 0 -4.17 8.33 0 0 4.17zm441.56 -191.62l-8.33 0 0 -4.17 8.33 0 0 4.17 12.49 0 0 8.33 4.17 0 0 4.17 -4.17 0 0 4.16 -4.16 0 0 -4.16 -4.17 0 0 -8.34 -4.16 0 0 -4.16zm-420.73 24.99l-4.17 0 0 -12.49 4.17 0 0 12.49zm-249.94 -291.59l-4.17 0 0 -4.17 -4.17 0 0 -4.16 8.34 0 0 8.33zm54.15 308.26l-4.17 0 0 4.16 -4.16 0 0 -8.33 8.33 0 0 4.17zm0 -41.66l-8.33 0 0 -4.17 4.16 0 0 -4.16 4.17 0 0 8.33zm620.68 -33.33l4.17 0 0 4.17 -8.33 0 0 -8.33 4.16 0 0 4.16zm-79.14 -304.09l-4.17 0 0 4.17 -4.17 0 0 -8.34 8.34 0 0 4.17zm-216.62 8.33l-8.33 0 0 -4.16 4.17 0 0 -4.17 4.16 0 0 8.33zm-237.44 -158.29l-4.17 0 0 -4.17 -4.16 0 0 -8.33 4.16 0 0 4.17 4.17 0 0 8.33 4.16 0 0 4.16 4.17 0 0 4.17 -8.33 0 0 4.16 -4.17 0 0 8.33 4.17 0 0 8.34 -4.17 0 0 20.83 -8.33 0 0 -20.83 4.17 0 0 -8.34 -4.17 0 0 -8.33 4.17 0 0 -4.16 4.16 0 0 -4.17 4.17 0 0 -4.16zm545.7 466.55l-4.17 0 0 4.17 -4.16 0 0 -8.34 4.16 0 0 -4.16 4.17 0 0 8.33zm-604.02 -29.16l-8.33 0 0 -8.33 8.33 0 0 8.33zm274.93 158.3l-4.16 0 0 4.16 -4.17 0 0 -8.33 4.17 0 0 -4.17 4.16 0 0 8.34zm-54.15 -112.48l-4.17 0 0 4.17 -4.16 0 0 -8.33 4.16 0 0 -4.17 4.17 0 0 8.33zm366.58 45.83l-8.33 0 0 -8.34 4.16 0 0 -4.16 4.17 0 0 12.5zm0 -170.8l4.16 0 0 8.33 -4.16 0 0 4.17 -4.17 0 0 -16.66 4.17 0 0 4.16zm-499.88 212.45l0 4.17 -4.17 0 0 8.33 4.17 0 0 4.16 4.16 0 0 4.17 20.83 0 0 4.17 8.33 0 0 -4.17 8.33 0 0 -4.17 4.17 0 0 -4.16 4.17 0 0 -4.17 -4.17 0 0 -4.16 -4.17 0 0 -4.17 -4.16 0 0 -4.16 12.5 0 0 -4.17 4.16 0 0 -4.17 4.17 0 0 4.17 4.16 0 0 4.17 4.17 0 0 -4.17 4.16 0 0 -4.17 4.17 0 0 -4.16 -4.17 0 0 -4.17 -24.99 0 0 -4.16 -4.17 0 0 4.16 -8.33 0 0 4.17 -8.33 0 0 8.33 -4.16 0 0 -4.17 -8.33 0 0 4.17 -4.17 0 0 4.17 -4.17 0 0 4.16 -4.16 0zm137.46 -141.63l4.17 0 0 4.17 8.33 0 0 4.16 -16.66 0 0 -8.33 -4.17 0 0 -4.17 4.17 0 0 -4.16 4.16 0 0 8.33zm-133.3 -504.05l-8.33 0 0 8.34 8.33 0 0 -8.34zm66.65 254.11l8.34 0 0 -4.17 -4.17 0 0 -4.16 -4.17 0 0 8.33zm-66.65 466.55l4.17 0 0 -24.99 -16.66 0 0 16.66 12.49 0 0 8.33zm133.3 -70.81l-8.33 0 0 8.33 8.33 0 0 -8.33zm-129.13 -466.56l4.17 0 0 25 -4.17 0 0 8.33 -4.17 0 0 -37.49 4.17 0 0 4.16zm41.66 691.5l-4.17 0 0 4.17 -4.17 0 0 20.83 -4.16 0 0 8.33 -4.17 0 0 4.16 -4.16 0 0 4.17 -16.66 0 0 -4.17 8.33 0 0 -4.16 8.33 0 0 -4.17 4.16 0 0 -8.33 -4.16 0 0 -29.16 -4.17 0 0 -4.16 8.33 0 0 -4.17 16.67 0 0 16.66zm12.49 -79.15l4.17 0 0 8.34 -8.33 0 0 4.16 -8.33 0 0 8.33 4.16 0 0 16.67 4.17 0 0 4.16 -4.17 0 0 8.33 -4.16 0 0 4.17 -12.5 0 0 -4.17 4.16 0 0 -8.33 8.34 0 0 -4.16 -4.17 0 0 -4.17 -4.17 0 0 -4.17 -4.16 0 0 -4.16 -4.17 0 0 -12.5 4.17 0 0 -4.16 8.33 0 0 -8.34 4.17 0 0 -4.16 12.49 0 0 4.16zm-8.33 -558.19l-4.16 0 0 4.16 4.16 0 0 -4.16zm4.17 -33.33l4.16 0 0 -8.33 -4.16 0 0 8.33zm4.16 499.88l-4.16 0 0 4.17 4.16 0 0 -4.17zm49.99 -20.83l-12.5 0 0 4.17 -8.33 0 0 4.16 12.5 0 0 -4.16 8.33 0 0 -4.17zm8.33 -8.33l-4.16 0 0 4.17 4.16 0 0 -4.17zm-45.82 -24.99l-4.17 0 0 -4.17 -4.16 0 0 25 4.16 0 0 -12.5 4.17 0 0 -8.33zm8.33 20.83l4.17 0 0 -25 -4.17 0 0 4.17 -4.16 0 0 8.33 4.16 0 0 12.5zm133.3 -49.99l4.17 0 0 -25 -4.17 0 0 4.17 -4.16 0 0 8.33 4.16 0 0 12.5zm46.14 202.87c-33.11,73.95 -87.81,69.94 -132.59,21.3 16.8,-76.27 23.12,-77.16 64.05,-122.21 53.82,5.47 53.07,23.68 68.54,100.91z"/>
  <path id="root" class="fil0 str0" d="M491.67 30.64c-1.2,50.38 15.86,83.04 38.75,152.96 191.02,583.38 113.68,612.86 96.32,1224.59 -50.19,13.32 -80.43,-51.77 -158.63,20.61 -170.46,157.75 -143.3,75.7 -279.54,24.65 -66.7,-25.01 -91.35,36.64 -129.31,43.23 -10.55,-153.08 -12.96,-258.78 -31.31,-414.52 -36.59,-310.77 -7.72,-498.76 77.16,-778.49 21.61,-71.22 66.93,-269.17 124.91,-240.75 27.96,161.62 -49.24,399.57 -1,658.23 17.05,91.42 93.49,482.07 170,453.45 118.98,-44.5 -8.54,-923.24 36.54,-1092.14 18.77,-70.36 22.08,-57.73 56.11,-51.82zm-82.79 1102.56c-73.85,14 -87.3,-112.82 -109.13,-206.12 -82.51,-352.55 -78.11,-246.46 -53.01,-661.74 4.86,-80.28 7.62,-254.92 69.9,-265.33 17.44,229.36 -5.93,333.49 90.2,524.52 26.94,53.52 15.79,238.44 19.81,316.98 7.48,146.22 15.22,155.75 -17.77,291.69z"/>
 </g>
</svg>
