<?xml version="1.0" encoding="UTF-8"?>
<!DOCTYPE svg PUBLIC "-//W3C//DTD SVG 1.1//EN" "http://www.w3.org/Graphics/SVG/1.1/DTD/svg11.dtd">
<!-- Creator: CorelDRAW (Versión de evaluación) -->
<svg xmlns="http://www.w3.org/2000/svg" xml:space="preserve" width="684px" height="2062px" version="1.1" style="shape-rendering:geometricPrecision; text-rendering:geometricPrecision; image-rendering:optimizeQuality; fill-rule:evenodd; clip-rule:evenodd"
viewBox="0 0 684 2062.8"
 xmlns:xlink="http://www.w3.org/1999/xlink"
 xmlns:xodm="http://www.corel.com/coreldraw/odm/2003">
 <defs>
  <style type="text/css">
   <![CDATA[
    .fil2 {fill:#4B4B4D}
    .fil1 {fill:#EDEAE0}
    .fil0 {fill:#F2E6C9}
   ]]>
  </style>
 </defs>
 <g id="fissure-crown">
  <metadata id="CorelCorpID_0Corel-Layer"/>
  <polygon id="root" class="fil0" points="374.33,481.03 377.93,481.03 377.93,484.63 381.53,484.63 381.53,491.83 385.13,491.83 385.13,589.03 381.53,589.03 381.53,715.03 385.13,715.03 385.13,747.43 388.73,747.43 388.73,779.83 392.33,779.83 392.33,801.43 395.93,801.43 395.93,819.43 399.53,819.43 399.53,851.83 403.13,851.83 403.13,869.83 406.73,869.83 406.73,902.23 410.33,902.23 410.33,913.03 413.93,913.03 413.93,931.03 417.53,931.03 417.53,941.83 413.93,941.83 413.93,956.23 410.33,956.23 410.33,963.43 406.73,963.43 406.73,977.83 403.13,977.83 403.13,988.63 399.53,988.63 399.53,995.83 395.93,995.83 395.93,1006.63 392.33,1006.63 392.33,1017.43 388.73,1017.43 388.73,1028.23 385.13,1028.23 385.13,1042.63 381.53,1042.63 381.53,1049.83 377.93,1049.83 377.93,1064.23 374.33,1064.23 374.33,1078.63 370.73,1078.63 370.73,1085.83 367.13,1085.83 367.13,1100.23 363.53,1100.23 363.53,1118.23 359.93,1118.23 359.93,1129.03 356.33,1129.03 356.33,1143.43 352.73,1143.43 352.73,1172.23 349.13,1172.23 349.13,1190.23 345.53,1190.23 345.53,1222.63 341.93,1222.63 341.93,1247.83 345.53,1247.83 345.53,1244.23 349.13,1244.23 349.13,1237.03 352.73,1237.03 352.73,1229.83 356.33,1229.83 356.33,1215.43 359.93,1215.43 359.93,1193.83 363.53,1193.83 363.53,1179.43 367.13,1179.43 367.13,1168.63 370.73,1168.63 370.73,1143.43 374.33,1143.43 374.33,1136.23 377.93,1136.23 377.93,1121.83 381.53,1121.83 381.53,1103.83 385.13,1103.83 385.13,1096.63 388.73,1096.63 388.73,1085.83 392.33,1085.83 392.33,1071.43 395.93,1071.43 395.93,1057.03 399.53,1057.03 399.53,1049.83 403.13,1049.83 403.13,1035.43 406.73,1035.43 406.73,1024.63 410.33,1024.63 410.33,1017.43 413.93,1017.43 413.93,1010.23 417.53,1010.23 417.53,995.83 421.13,995.83 421.13,988.63 424.73,988.63 424.73,977.83 428.33,977.83 428.33,967.03 431.93,967.03 431.93,956.23 435.53,956.23 435.53,949.03 439.13,949.03 439.13,934.63 442.73,934.63 442.73,923.83 446.33,923.83 446.33,913.03 449.93,913.03 449.93,905.83 453.53,905.83 453.53,891.43 457.13,891.43 457.13,880.63 460.73,880.63 460.73,848.23 464.33,848.23 464.33,833.83 467.93,833.83 467.93,794.23 471.53,794.23 471.53,769.03 475.13,769.03 475.13,754.63 478.73,754.63 478.73,722.23 482.33,722.23 482.33,657.43 485.93,657.43 485.93,628.63 489.53,628.63 489.53,603.43 493.13,603.43 493.13,585.43 496.73,585.43 496.73,578.23 500.33,578.23 500.33,571.03 503.93,571.03 503.93,567.43 507.53,567.43 507.53,563.83 521.93,563.83 521.93,567.43 525.53,567.43 525.53,571.03 529.13,571.03 529.13,574.63 532.73,574.63 532.73,581.83 536.33,581.83 536.33,589.03 539.93,589.03 539.93,592.63 543.53,592.63 543.53,603.43 547.13,603.43 547.13,610.63 550.73,610.63 550.73,621.43 554.33,621.43 554.33,632.23 557.93,632.23 557.93,646.63 561.53,646.63 561.53,653.83 565.13,653.83 565.13,668.23 568.73,668.23 568.73,689.83 572.33,689.83 572.33,707.83 575.93,707.83 575.93,725.83 579.53,725.83 579.53,747.43 583.13,747.43 583.13,783.43 586.73,783.43 586.73,812.23 590.33,812.23 590.33,830.23 593.93,830.23 593.93,859.03 597.53,859.03 597.53,1017.43 593.93,1017.43 593.93,1057.03 590.33,1057.03 590.33,1075.03 586.73,1075.03 586.73,1100.23 583.13,1100.23 583.13,1121.83 579.53,1121.83 579.53,1147.03 575.93,1147.03 575.93,1172.23 572.33,1172.23 572.33,1201.03 568.73,1201.03 568.73,1244.23 565.13,1244.23 565.13,1399.03 568.73,1399.03 568.73,1420.63 572.33,1420.63 572.33,1463.83 575.93,1463.83 575.93,1467.43 565.13,1467.43 565.13,1463.83 557.93,1463.83 557.93,1460.23 543.53,1460.23 543.53,1456.63 536.33,1456.63 536.33,1453.03 529.13,1453.03 529.13,1449.43 514.73,1449.43 514.73,1445.83 503.93,1445.83 503.93,1442.23 489.53,1442.23 489.53,1438.63 467.93,1438.63 467.93,1435.03 453.53,1435.03 453.53,1431.43 417.53,1431.43 417.53,1427.83 309.53,1427.83 309.53,1431.43 277.13,1431.43 277.13,1435.03 248.33,1435.03 248.33,1438.63 233.93,1438.63 233.93,1442.23 219.53,1442.23 219.53,1445.83 201.53,1445.83 201.53,1449.43 183.53,1449.43 183.53,1453.03 172.73,1453.03 172.73,1456.63 161.93,1456.63 161.93,1460.23 151.13,1460.23 151.13,1463.83 140.33,1463.83 140.33,1467.43 133.13,1467.43 133.13,1471.03 122.33,1471.03 122.33,1474.63 115.13,1474.63 115.13,1478.23 107.93,1478.23 107.93,1481.83 100.73,1481.83 100.73,1485.43 93.53,1485.43 93.53,1489.03 86.33,1489.03 86.33,1492.63 79.13,1492.63 79.13,1496.23 71.93,1496.23 71.93,1499.83 68.33,1499.83 68.33,1474.63 71.93,1474.63 71.93,1453.03 75.53,1453.03 75.53,1298.23 71.93,1298.23 71.93,1265.83 68.33,1265.83 68.33,1219.03 64.73,1219.03 64.73,1183.03 61.13,1183.03 61.13,1049.83 64.73,1049.83 64.73,1006.63 68.33,1006.63 68.33,985.03 71.93,985.03 71.93,952.63 75.53,952.63 75.53,934.63 79.13,934.63 79.13,916.63 82.73,916.63 82.73,895.03 86.33,895.03 86.33,884.23 89.93,884.23 89.93,866.23 93.53,866.23 93.53,844.63 97.13,844.63 97.13,823.03 100.73,823.03 100.73,812.23 104.33,812.23 104.33,797.83 107.93,797.83 107.93,787.03 111.53,787.03 111.53,776.23 115.13,776.23 115.13,765.43 118.73,765.43 118.73,754.63 122.33,754.63 122.33,743.83 125.93,743.83 125.93,733.03 129.53,733.03 129.53,722.23 133.13,722.23 133.13,711.43 136.73,711.43 136.73,704.23 140.33,704.23 140.33,693.43 143.93,693.43 143.93,686.23 147.53,686.23 147.53,679.03 151.13,679.03 151.13,675.43 154.73,675.43 154.73,668.23 158.33,668.23 158.33,661.03 161.93,661.03 161.93,657.43 165.53,657.43 165.53,653.83 169.13,653.83 169.13,650.23 172.73,650.23 172.73,646.63 179.93,646.63 179.93,643.03 187.13,643.03 187.13,646.63 190.73,646.63 190.73,653.83 194.33,653.83 194.33,671.83 197.93,671.83 197.93,819.43 201.53,819.43 201.53,862.63 205.13,862.63 205.13,898.63 208.73,898.63 208.73,927.43 212.33,927.43 212.33,952.63 215.93,952.63 215.93,977.83 219.53,977.83 219.53,992.23 223.13,992.23 223.13,1013.83 226.73,1013.83 226.73,1031.83 230.33,1031.83 230.33,1046.23 233.93,1046.23 233.93,1064.23 237.53,1064.23 237.53,1075.03 241.13,1075.03 241.13,1089.43 244.73,1089.43 244.73,1100.23 248.33,1100.23 248.33,1114.63 251.93,1114.63 251.93,1132.63 255.53,1132.63 255.53,1143.43 259.13,1143.43 259.13,1157.83 262.73,1157.83 262.73,1165.03 266.33,1165.03 266.33,1179.43 269.93,1179.43 269.93,1190.23 273.53,1190.23 273.53,1201.03 277.13,1201.03 277.13,1211.83 280.73,1211.83 280.73,1222.63 284.33,1222.63 284.33,1229.83 287.93,1229.83 287.93,1240.63 291.53,1240.63 291.53,1244.23 295.13,1244.23 295.13,1251.43 298.73,1251.43 298.73,1258.63 302.33,1258.63 302.33,1262.23 305.93,1262.23 305.93,1265.83 309.53,1265.83 309.53,1269.43 313.13,1269.43 313.13,1273.03 316.73,1273.03 316.73,1276.63 320.33,1276.63 320.33,1280.23 327.53,1280.23 327.53,1283.83 334.73,1283.83 334.73,1287.43 341.93,1287.43 341.93,1291.03 367.13,1291.03 367.13,1283.83 356.33,1283.83 356.33,1280.23 349.13,1280.23 349.13,1276.63 341.93,1276.63 341.93,1273.03 334.73,1273.03 334.73,1269.43 331.13,1269.43 331.13,1265.83 327.53,1265.83 327.53,1262.23 323.93,1262.23 323.93,1258.63 320.33,1258.63 320.33,1255.03 316.73,1255.03 316.73,1251.43 313.13,1251.43 313.13,1244.23 309.53,1244.23 309.53,1237.03 305.93,1237.03 305.93,1226.23 302.33,1226.23 302.33,1219.03 298.73,1219.03 298.73,1208.23 295.13,1208.23 295.13,1197.43 291.53,1197.43 291.53,1183.03 287.93,1183.03 287.93,1172.23 284.33,1172.23 284.33,1161.43 280.73,1161.43 280.73,1150.63 277.13,1150.63 277.13,1132.63 273.53,1132.63 273.53,1125.43 269.93,1125.43 269.93,1111.03 266.33,1111.03 266.33,1096.63 262.73,1096.63 262.73,1075.03 259.13,1075.03 259.13,1067.83 255.53,1067.83 255.53,1046.23 251.93,1046.23 251.93,1031.83 248.33,1031.83 248.33,1021.03 244.73,1021.03 244.73,1003.03 241.13,1003.03 241.13,988.63 237.53,988.63 237.53,967.03 233.93,967.03 233.93,949.03 237.53,949.03 237.53,927.43 241.13,927.43 241.13,898.63 244.73,898.63 244.73,880.63 248.33,880.63 248.33,851.83 251.93,851.83 251.93,819.43 255.53,819.43 255.53,790.63 259.13,790.63 259.13,769.03 262.73,769.03 262.73,740.23 266.33,740.23 266.33,725.83 269.93,725.83 269.93,704.23 273.53,704.23 273.53,679.03 277.13,679.03 277.13,668.23 280.73,668.23 280.73,650.23 284.33,650.23 284.33,632.23 287.93,632.23 287.93,625.03 291.53,625.03 291.53,610.63 295.13,610.63 295.13,596.23 298.73,596.23 298.73,581.83 302.33,581.83 302.33,574.63 305.93,574.63 305.93,563.83 309.53,563.83 309.53,556.63 313.13,556.63 313.13,545.83 316.73,545.83 316.73,535.03 320.33,535.03 320.33,527.83 323.93,527.83 323.93,520.63 327.53,520.63 327.53,513.43 331.13,513.43 331.13,506.23 334.73,506.23 334.73,499.03 338.33,499.03 338.33,495.43 341.93,495.43 341.93,488.23 345.53,488.23 345.53,484.63 349.13,484.63 349.13,481.03 352.73,481.03 352.73,477.43 374.33,477.43 "/>
  <polygon id="crown" class="fil1" points="424.73,1449.43 457.13,1449.43 457.13,1453.03 478.73,1453.03 478.73,1456.63 496.73,1456.63 496.73,1460.23 514.73,1460.23 514.73,1463.83 525.53,1463.83 525.53,1467.43 536.33,1467.43 536.33,1471.03 543.53,1471.03 543.53,1474.63 557.93,1474.63 557.93,1478.23 565.13,1478.23 565.13,1481.83 572.33,1481.83 572.33,1485.43 575.93,1485.43 575.93,1489.03 579.53,1489.03 579.53,1492.63 583.13,1492.63 583.13,1499.83 586.73,1499.83 586.73,1503.43 590.33,1503.43 590.33,1510.63 593.93,1510.63 593.93,1521.43 597.53,1521.43 597.53,1528.63 601.13,1528.63 601.13,1539.43 604.73,1539.43 604.73,1546.63 608.33,1546.63 608.33,1557.43 611.93,1557.43 611.93,1564.63 615.53,1564.63 615.53,1575.43 619.13,1575.43 619.13,1586.24 622.73,1586.24 622.73,1597.04 626.33,1597.04 626.33,1604.23 629.93,1604.23 629.93,1622.23 633.53,1622.23 633.53,1633.03 637.13,1633.03 637.13,1651.04 640.73,1651.04 640.73,1661.84 644.33,1661.84 644.33,1676.23 647.93,1676.23 647.93,1705.04 651.53,1705.04 651.53,1773.43 647.93,1773.43 647.93,1791.44 644.33,1791.44 644.33,1802.24 640.73,1802.24 640.73,1813.04 637.13,1813.04 637.13,1820.24 633.53,1820.24 633.53,1831.04 629.93,1831.04 629.93,1838.23 626.33,1838.23 626.33,1845.44 622.73,1845.44 622.73,1856.24 619.13,1856.24 619.13,1863.44 615.53,1863.44 615.53,1867.04 611.93,1867.04 611.93,1874.24 608.33,1874.24 608.33,1877.84 604.73,1877.84 604.73,1885.04 601.13,1885.04 601.13,1888.64 597.53,1888.64 597.53,1895.84 593.93,1895.84 593.93,1899.43 590.33,1899.43 590.33,1903.03 586.73,1903.03 586.73,1906.64 583.13,1906.64 583.13,1913.83 579.53,1913.83 579.53,1917.44 575.93,1917.44 575.93,1921.03 572.33,1921.03 572.33,1924.63 565.13,1924.63 565.13,1928.24 561.53,1928.24 561.53,1931.83 557.93,1931.83 557.93,1935.43 550.73,1935.43 550.73,1939.04 543.53,1939.04 543.53,1942.63 532.73,1942.63 532.73,1946.23 496.73,1946.23 496.73,1942.63 482.33,1942.63 482.33,1939.04 453.53,1939.04 453.53,1935.43 446.33,1935.43 446.33,1931.83 417.53,1931.83 417.53,1928.24 377.93,1928.24 377.93,1924.63 381.53,1924.63 381.53,1917.44 385.13,1917.44 385.13,1910.23 388.73,1910.23 388.73,1892.23 392.33,1892.23 392.33,1870.63 388.73,1870.63 388.73,1867.04 403.13,1867.04 403.13,1870.63 413.93,1870.63 413.93,1874.24 424.73,1874.24 424.73,1877.84 435.53,1877.84 435.53,1881.43 446.33,1881.43 446.33,1885.04 453.53,1885.04 453.53,1888.64 464.33,1888.64 464.33,1892.23 471.53,1892.23 471.53,1895.84 493.13,1895.84 493.13,1899.43 514.73,1899.43 514.73,1895.84 521.93,1895.84 521.93,1892.23 529.13,1892.23 529.13,1888.64 536.33,1888.64 536.33,1885.04 539.93,1885.04 539.93,1881.43 547.13,1881.43 547.13,1877.84 550.73,1877.84 550.73,1874.24 554.33,1874.24 554.33,1867.04 557.93,1867.04 557.93,1863.44 561.53,1863.44 561.53,1859.83 565.13,1859.83 565.13,1852.64 568.73,1852.64 568.73,1849.03 572.33,1849.03 572.33,1841.84 575.93,1841.84 575.93,1831.04 579.53,1831.04 579.53,1827.43 583.13,1827.43 583.13,1809.44 572.33,1809.44 572.33,1823.84 568.73,1823.84 568.73,1827.43 565.13,1827.43 565.13,1834.64 561.53,1834.64 561.53,1841.84 557.93,1841.84 557.93,1845.44 554.33,1845.44 554.33,1849.03 550.73,1849.03 550.73,1856.24 547.13,1856.24 547.13,1859.83 543.53,1859.83 543.53,1863.44 539.93,1863.44 539.93,1867.04 536.33,1867.04 536.33,1870.63 529.13,1870.63 529.13,1874.24 525.53,1874.24 525.53,1877.84 518.33,1877.84 518.33,1881.43 489.53,1881.43 489.53,1877.84 475.13,1877.84 475.13,1874.24 464.33,1874.24 464.33,1870.63 457.13,1870.63 457.13,1867.04 446.33,1867.04 446.33,1863.44 435.53,1863.44 435.53,1859.83 424.73,1859.83 424.73,1856.24 417.53,1856.24 417.53,1852.64 403.13,1852.64 403.13,1849.03 374.33,1849.03 374.33,1841.84 377.93,1841.84 377.93,1831.04 381.53,1831.04 381.53,1816.63 385.13,1816.63 385.13,1809.44 388.73,1809.44 388.73,1737.44 381.53,1737.44 381.53,1755.44 377.93,1755.44 377.93,1769.84 374.33,1769.84 374.33,1805.83 370.73,1805.83 370.73,1813.04 367.13,1813.04 367.13,1827.43 363.53,1827.43 363.53,1834.64 359.93,1834.64 359.93,1845.44 356.33,1845.44 356.33,1849.03 352.73,1849.03 352.73,1852.64 349.13,1852.64 349.13,1856.24 341.93,1856.24 341.93,1859.83 338.33,1859.83 338.33,1863.44 334.73,1863.44 334.73,1867.04 327.53,1867.04 327.53,1870.63 323.93,1870.63 323.93,1874.24 316.73,1874.24 316.73,1877.84 313.13,1877.84 313.13,1881.43 309.53,1881.43 309.53,1885.04 302.33,1885.04 302.33,1888.64 298.73,1888.64 298.73,1892.23 295.13,1892.23 295.13,1895.84 287.93,1895.84 287.93,1899.43 280.73,1899.43 280.73,1903.03 277.13,1903.03 277.13,1906.64 269.93,1906.64 269.93,1910.23 262.73,1910.23 262.73,1913.83 259.13,1913.83 259.13,1917.44 251.93,1917.44 251.93,1921.03 244.73,1921.03 244.73,1924.63 237.53,1924.63 237.53,1928.24 223.13,1928.24 223.13,1931.83 172.73,1931.83 172.73,1928.24 161.93,1928.24 161.93,1924.63 154.73,1924.63 154.73,1921.03 147.53,1921.03 147.53,1917.44 140.33,1917.44 140.33,1913.83 133.13,1913.83 133.13,1910.23 129.53,1910.23 129.53,1906.64 122.33,1906.64 122.33,1903.03 118.73,1903.03 118.73,1899.43 115.13,1899.43 115.13,1895.84 111.53,1895.84 111.53,1892.23 107.93,1892.23 107.93,1888.64 104.33,1888.64 104.33,1885.04 100.73,1885.04 100.73,1881.43 93.53,1881.43 93.53,1895.84 97.13,1895.84 97.13,1899.43 100.73,1899.43 100.73,1903.03 104.33,1903.03 104.33,1906.64 107.93,1906.64 107.93,1910.23 111.53,1910.23 111.53,1913.83 115.13,1913.83 115.13,1917.44 118.73,1917.44 118.73,1921.03 125.93,1921.03 125.93,1924.63 133.13,1924.63 133.13,1928.24 136.73,1928.24 136.73,1931.83 143.93,1931.83 143.93,1935.43 151.13,1935.43 151.13,1939.04 161.93,1939.04 161.93,1942.63 172.73,1942.63 172.73,1946.23 183.53,1946.23 183.53,1949.84 223.13,1949.84 223.13,1946.23 230.33,1946.23 230.33,1942.63 241.13,1942.63 241.13,1939.04 248.33,1939.04 248.33,1935.43 255.53,1935.43 255.53,1931.83 262.73,1931.83 262.73,1928.24 269.93,1928.24 269.93,1924.63 277.13,1924.63 277.13,1921.03 284.33,1921.03 284.33,1917.44 287.93,1917.44 287.93,1913.83 295.13,1913.83 295.13,1910.23 302.33,1910.23 302.33,1906.64 305.93,1906.64 305.93,1903.03 309.53,1903.03 309.53,1899.43 316.73,1899.43 316.73,1895.84 320.33,1895.84 320.33,1892.23 323.93,1892.23 323.93,1888.64 331.13,1888.64 331.13,1885.04 334.73,1885.04 334.73,1881.43 341.93,1881.43 341.93,1877.84 345.53,1877.84 345.53,1874.24 352.73,1874.24 352.73,1870.63 356.33,1870.63 356.33,1867.04 385.13,1867.04 385.13,1870.63 381.53,1870.63 381.53,1892.23 377.93,1892.23 377.93,1906.64 374.33,1906.64 374.33,1913.83 370.73,1913.83 370.73,1921.03 367.13,1921.03 367.13,1931.83 363.53,1931.83 363.53,1935.43 352.73,1935.43 352.73,1939.04 345.53,1939.04 345.53,1942.63 338.33,1942.63 338.33,1946.23 331.13,1946.23 331.13,1949.84 323.93,1949.84 323.93,1953.43 316.73,1953.43 316.73,1957.03 313.13,1957.03 313.13,1960.64 305.93,1960.64 305.93,1964.23 298.73,1964.23 298.73,1967.83 295.13,1967.83 295.13,1971.44 287.93,1971.44 287.93,1975.03 284.33,1975.03 284.33,1978.63 277.13,1978.63 277.13,1982.24 269.93,1982.24 269.93,1985.83 262.73,1985.83 262.73,1989.43 255.53,1989.43 255.53,1993.04 244.73,1993.04 244.73,1996.63 233.93,1996.63 233.93,2000.24 208.73,2000.24 208.73,1996.63 194.33,1996.63 194.33,1993.04 183.53,1993.04 183.53,1989.43 176.33,1989.43 176.33,1985.83 169.13,1985.83 169.13,1982.24 161.93,1982.24 161.93,1978.63 154.73,1978.63 154.73,1975.03 151.13,1975.03 151.13,1971.44 143.93,1971.44 143.93,1967.83 136.73,1967.83 136.73,1964.23 133.13,1964.23 133.13,1960.64 125.93,1960.64 125.93,1957.03 122.33,1957.03 122.33,1953.43 118.73,1953.43 118.73,1949.84 115.13,1949.84 115.13,1946.23 107.93,1946.23 107.93,1942.63 104.33,1942.63 104.33,1939.04 100.73,1939.04 100.73,1935.43 97.13,1935.43 97.13,1931.83 93.53,1931.83 93.53,1928.24 89.93,1928.24 89.93,1924.63 86.33,1924.63 86.33,1921.03 82.73,1921.03 82.73,1917.44 79.13,1917.44 79.13,1913.83 75.53,1913.83 75.53,1910.23 71.93,1910.23 71.93,1906.64 68.33,1906.64 68.33,1899.43 64.73,1899.43 64.73,1895.84 61.13,1895.84 61.13,1892.23 57.53,1892.23 57.53,1885.04 53.93,1885.04 53.93,1881.43 50.33,1881.43 50.33,1874.24 46.73,1874.24 46.73,1870.63 43.13,1870.63 43.13,1863.44 39.53,1863.44 39.53,1856.24 35.93,1856.24 35.93,1849.03 32.33,1849.03 32.33,1841.84 28.73,1841.84 28.73,1834.64 25.13,1834.64 25.13,1823.84 21.53,1823.84 21.53,1813.04 17.93,1813.04 17.93,1795.03 14.33,1795.03 14.33,1715.84 17.93,1715.84 17.93,1690.63 21.53,1690.63 21.53,1672.64 25.13,1672.64 25.13,1661.84 28.73,1661.84 28.73,1647.43 32.33,1647.43 32.33,1629.44 35.93,1629.44 35.93,1618.64 39.53,1618.64 39.53,1604.23 43.13,1604.23 43.13,1597.04 46.73,1597.04 46.73,1586.24 50.33,1586.24 50.33,1571.83 53.93,1571.83 53.93,1561.03 57.53,1561.03 57.53,1543.03 61.13,1543.03 61.13,1525.03 64.73,1525.03 64.73,1521.43 68.33,1521.43 68.33,1517.83 75.53,1517.83 75.53,1514.23 79.13,1514.23 79.13,1510.63 86.33,1510.63 86.33,1507.03 89.93,1507.03 89.93,1503.43 97.13,1503.43 97.13,1499.83 104.33,1499.83 104.33,1496.23 111.53,1496.23 111.53,1492.63 122.33,1492.63 122.33,1489.03 129.53,1489.03 129.53,1485.43 140.33,1485.43 140.33,1481.83 147.53,1481.83 147.53,1478.23 158.33,1478.23 158.33,1474.63 165.53,1474.63 165.53,1471.03 176.33,1471.03 176.33,1467.43 194.33,1467.43 194.33,1463.83 212.33,1463.83 212.33,1460.23 226.73,1460.23 226.73,1456.63 244.73,1456.63 244.73,1453.03 269.93,1453.03 269.93,1449.43 287.93,1449.43 287.93,1445.83 424.73,1445.83 "/>
  <path id="outline" class="fil2" d="M388.73 1809.44l-3.6 0 0 7.19 -3.6 0 0 14.41 -3.6 0 0 10.8 -3.6 0 0 7.19 28.8 0 0 3.61 14.4 0 0 3.6 7.2 0 0 3.59 10.8 0 0 3.61 10.8 0 0 3.6 10.8 0 0 3.59 7.2 0 0 3.61 10.8 0 0 3.6 14.4 0 0 3.59 28.8 0 0 -3.59 7.2 0 0 -3.6 3.6 0 0 -3.61 7.2 0 0 -3.59 3.6 0 0 -3.6 3.6 0 0 -3.61 3.6 0 0 -3.59 3.6 0 0 -7.21 3.6 0 0 -3.59 3.6 0 0 -3.6 3.6 0 0 -7.2 3.6 0 0 -7.21 3.6 0 0 -3.59 3.6 0 0 -14.4 10.8 0 0 17.99 -3.6 0 0 3.61 -3.6 0 0 10.8 -3.6 0 0 7.19 -3.6 0 0 3.61 -3.6 0 0 7.19 -3.6 0 0 3.61 -3.6 0 0 3.6 -3.6 0 0 7.2 -3.6 0 0 3.6 -3.6 0 0 3.59 -7.2 0 0 3.61 -3.6 0 0 3.6 -7.2 0 0 3.59 -7.2 0 0 3.61 -7.2 0 0 3.59 -21.6 0 0 -3.59 -21.6 0 0 -3.61 -7.2 0 0 -3.59 -10.8 0 0 -3.6 -7.2 0 0 -3.61 -10.8 0 0 -3.59 -10.8 0 0 -3.6 -10.8 0 0 -3.61 -10.8 0 0 -3.59 -14.4 0 0 3.59 3.6 0 0 21.6 -3.6 0 0 18 -3.6 0 0 7.21 -3.6 0 0 7.19 -3.6 0 0 3.61 39.6 0 0 3.59 28.8 0 0 3.6 7.2 0 0 3.61 28.8 0 0 3.59 14.4 0 0 3.6 36 0 0 -3.6 10.8 0 0 -3.59 7.2 0 0 -3.61 7.2 0 0 -3.6 3.6 0 0 -3.59 3.6 0 0 -3.61 7.2 0 0 -3.6 3.6 0 0 -3.59 3.6 0 0 -3.61 3.6 0 0 -7.19 3.6 0 0 -3.61 3.6 0 0 -3.6 3.6 0 0 -3.59 3.6 0 0 -7.2 3.6 0 0 -3.6 3.6 0 0 -7.2 3.6 0 0 -3.6 3.6 0 0 -7.2 3.6 0 0 -3.6 3.6 0 0 -7.2 3.6 0 0 -10.8 3.6 0 0 -7.21 3.6 0 0 -7.19 3.6 0 0 -10.8 3.6 0 0 -7.2 3.6 0 0 -10.8 3.6 0 0 -10.8 3.6 0 0 -18.01 3.6 0 0 -68.39 -3.6 0 0 -28.81 -3.6 0 0 -14.39 -3.6 0 0 -10.8 -3.6 0 0 -18.01 -3.6 0 0 -10.8 -3.6 0 0 -18 -3.6 0 0 -7.19 -3.6 0 0 -10.8 -3.6 0 0 -10.81 -3.6 0 0 -10.8 -3.6 0 0 -7.2 -3.6 0 0 -10.8 -3.6 0 0 -7.2 -3.6 0 0 -10.8 -3.6 0 0 -7.2 -3.6 0 0 -10.8 -3.6 0 0 -7.2 -3.6 0 0 -2.01c-9.4,4.59 -2.68,5.37 -13.45,15.36 -25.6,23.74 -26.23,30.59 -55.44,39.46 -18.12,5.51 -15.32,7.17 -29.97,-0.28 -14.65,10.32 -14.76,6.97 -16.62,25.63 -6.08,3.32 -8.84,1.34 -14.59,5.39l-1.3 15.67c-6.56,2.06 -13.51,0.57 -19.54,2.68 -7.15,2.49 -10.38,9.59 -16.15,13.79 -3.52,-3.6 -8.82,-7.72 -12.9,-10.32 -4.9,1.17 -8.35,3.84 -12.49,3.82 -4.69,-0.03 -5.29,-2.49 -11.51,-0.43 -4.54,1.5 -9.54,6.11 -13.32,6.85 -5.47,1.08 -3.99,-2.72 -9.94,-4.03 -9.53,12.72 0.53,25.97 -26.77,29.64 -26.24,3.53 -17.38,11.72 -30.02,27.06 -16.04,-5.49 -12.03,-18.52 -41.5,0.26 -6.7,4.27 -17.42,12.55 -24.34,11.7 -10.2,-1.25 -8.59,-8.22 -21.7,1.31 -1.86,17.57 0.06,8.12 -10.22,22.28 -8.76,12.06 1.23,10.11 -18.8,16.83 -20.2,6.76 -21.92,3.88 -27.32,5.72 -10.51,3.56 -10.9,10.55 -16.18,20.74 -6.71,1.58 -11.58,-0.54 -21.01,2.53l-6.93 2.27c12.29,-7.94 16.09,-4.21 26.7,-7.08 3.97,-7.34 2.71,-14.45 13.95,-20.02 6.32,-3.14 18.27,-4.17 26.84,-6.94 19.41,-6.28 10.55,-5.55 17.88,-16.42 7.6,-11.29 9.11,-6.52 7.72,-22.29 35.12,-24.36 15.4,6.1 47.36,-15.26 22.9,-15.3 20.87,-17.9 43.92,-10.38 4.71,-5.92 5.7,-11.33 13.2,-18.2 9.21,-8.44 26.21,0.42 29.54,-14.84 1.21,-5.54 1.19,-5.11 3.59,-10.27 3.47,-7.44 5.97,-13.28 9.83,-19.96l16.23 9.14c5.77,-2.37 7.93,-5.75 13.5,-6.75 5.03,-0.9 6.88,1.97 12.04,0.73 14.82,-3.58 9.65,-12.84 23.94,-0.96 7.98,-5.75 7.58,-4.75 16.27,-7.88 -0.85,-5.83 0.03,-9.88 -0.49,-15.08l15.61 -4.01c2.64,-23.86 1.13,-7.8 19.86,-24.53 5.42,-4.85 8.2,-9.95 13.81,-13.86 11.41,5.98 18.39,10.01 27.12,7.05 24.35,-8.23 15.51,-14.44 25.22,-20.84 12.49,-8.25 7.66,2.51 17.52,-15.63 6.69,-12.3 10.33,-16.56 15.54,-19.24l-6.29 0 0 -3.6 -7.2 0 0 -3.6 -14.4 0 0 -3.6 -7.2 0 0 -3.6 -10.8 0 0 -3.6 -10.8 0 0 -3.6 -18 0 0 -3.6 -18 0 0 -3.6 -21.6 0 0 -3.6 -32.4 0 0 -3.6 -136.8 0 0 3.6 -18 0 0 3.6 -25.2 0 0 3.6 -18 0 0 3.6 -14.4 0 0 3.6 -18 0 0 3.6 -18 0 0 3.6 -10.8 0 0 3.6 -7.2 0 0 3.6 -10.8 0 0 3.6 -7.2 0 0 3.6 -10.8 0 0 3.6 -7.2 0 0 3.6 -10.8 0 0 3.6 -7.2 0 0 3.6 -7.2 0 0 3.6 -7.2 0 0 3.6 -3.6 0 0 3.6 -7.2 0 0 3.6 -3.6 0 0 3.6 -7.2 0 0 3.6 -3.6 0 0 3.6 -3.6 0 0 18 -3.6 0 0 18 -3.6 0 0 10.8 -3.6 0 0 14.41 -3.6 0 0 10.8 -3.6 0 0 7.19 -3.6 0 0 14.41 -3.6 0 0 10.8 -3.6 0 0 17.99 -3.6 0 0 14.41 -3.6 0 0 10.8 -3.6 0 0 17.99 -3.6 0 0 25.21 -3.6 0 0 79.19 3.6 0 0 18.01 3.6 0 0 10.8 3.6 0 0 10.8 3.6 0 0 7.2 3.6 0 0 7.19 3.6 0 0 7.21 3.6 0 0 7.2 3.6 0 0 7.19 3.6 0 0 3.61 3.6 0 0 7.19 3.6 0 0 3.61 3.6 0 0 7.19 3.6 0 0 3.61 3.6 0 0 3.59 3.6 0 0 7.21 3.6 0 0 3.59 3.6 0 0 3.6 3.6 0 0 3.61 3.6 0 0 3.59 3.6 0 0 3.6 3.6 0 0 3.61 3.6 0 0 3.59 3.6 0 0 3.6 3.6 0 0 3.61 3.6 0 0 3.59 3.6 0 0 3.6 7.2 0 0 3.61 3.6 0 0 3.59 3.6 0 0 3.6 3.6 0 0 3.61 7.2 0 0 3.59 3.6 0 0 3.6 7.2 0 0 3.61 7.2 0 0 3.59 3.6 0 0 3.6 7.2 0 0 3.61 7.2 0 0 3.59 7.2 0 0 3.6 7.2 0 0 3.61 10.8 0 0 3.59 14.4 0 0 3.61 25.2 0 0 -3.61 10.8 0 0 -3.59 10.8 0 0 -3.61 7.2 0 0 -3.6 7.2 0 0 -3.59 7.2 0 0 -3.61 7.2 0 0 -3.6 3.6 0 0 -3.59 7.2 0 0 -3.61 3.6 0 0 -3.6 7.2 0 0 -3.59 7.2 0 0 -3.61 3.6 0 0 -3.6 7.2 0 0 -3.59 7.2 0 0 -3.61 7.2 0 0 -3.6 7.2 0 0 -3.59 7.2 0 0 -3.61 10.8 0 0 -3.6 3.6 0 0 -10.8 3.6 0 0 -7.2 3.6 0 0 -7.19 3.6 0 0 -14.41 3.6 0 0 -21.6 3.6 0 0 -3.59 -28.8 0 0 3.59 -3.6 0 0 3.61 -7.2 0 0 3.6 -3.6 0 0 3.59 -7.2 0 0 3.61 -3.6 0 0 3.6 -7.2 0 0 3.59 -3.6 0 0 3.61 -3.6 0 0 3.59 -7.2 0 0 3.6 -3.6 0 0 3.61 -3.6 0 0 3.59 -7.2 0 0 3.6 -7.2 0 0 3.61 -3.6 0 0 3.59 -7.2 0 0 3.6 -7.2 0 0 3.61 -7.2 0 0 3.59 -7.2 0 0 3.6 -7.2 0 0 3.61 -7.2 0 0 3.59 -10.8 0 0 3.6 -7.2 0 0 3.61 -39.6 0 0 -3.61 -10.8 0 0 -3.6 -10.8 0 0 -3.59 -10.8 0 0 -3.61 -7.2 0 0 -3.6 -7.2 0 0 -3.59 -3.6 0 0 -3.61 -7.2 0 0 -3.6 -7.2 0 0 -3.59 -3.6 0 0 -3.61 -3.6 0 0 -3.6 -3.6 0 0 -3.59 -3.6 0 0 -3.61 -3.6 0 0 -3.6 -3.6 0 0 -3.59 -3.6 0 0 -14.41 7.2 0 0 3.61 3.6 0 0 3.6 3.6 0 0 3.59 3.6 0 0 3.61 3.6 0 0 3.59 3.6 0 0 3.6 3.6 0 0 3.61 7.2 0 0 3.59 3.6 0 0 3.6 7.2 0 0 3.61 7.2 0 0 3.59 7.2 0 0 3.6 7.2 0 0 3.61 10.8 0 0 3.59 50.4 0 0 -3.59 14.4 0 0 -3.61 7.2 0 0 -3.6 7.2 0 0 -3.59 7.2 0 0 -3.61 3.6 0 0 -3.6 7.2 0 0 -3.59 7.2 0 0 -3.61 3.6 0 0 -3.6 7.2 0 0 -3.59 7.2 0 0 -3.61 3.6 0 0 -3.59 3.6 0 0 -3.6 7.2 0 0 -3.61 3.6 0 0 -3.59 3.6 0 0 -3.6 7.2 0 0 -3.61 3.6 0 0 -3.59 7.2 0 0 -3.6 3.6 0 0 -3.61 3.6 0 0 -3.59 7.2 0 0 -3.6 3.6 0 0 -3.61 3.6 0 0 -3.59 3.6 0 0 -10.8 3.6 0 0 -7.21 3.6 0 0 -14.39 3.6 0 0 -7.21 3.6 0 0 -35.99 3.6 0 0 -14.4 3.6 0 0 -18 7.2 0 0 72zm-3.6 -1317.61l-3.6 0 0 -7.2 -3.6 0 0 -3.6 -3.6 0 0 -3.6 -21.6 0 0 3.6 -3.6 0 0 3.6 -3.6 0 0 3.6 -3.6 0 0 7.2 -3.6 0 0 3.6 -3.6 0 0 7.2 -3.6 0 0 7.2 -3.6 0 0 7.2 -3.6 0 0 7.2 -3.6 0 0 7.2 -3.6 0 0 10.8 -3.6 0 0 10.8 -3.6 0 0 7.2 -3.6 0 0 10.8 -3.6 0 0 7.2 -3.6 0 0 14.4 -3.6 0 0 14.4 -3.6 0 0 14.4 -3.6 0 0 7.2 -3.6 0 0 18 -3.6 0 0 18 -3.6 0 0 10.8 -3.6 0 0 25.2 -3.6 0 0 21.6 -3.6 0 0 14.4 -3.6 0 0 28.8 -3.6 0 0 21.6 -3.6 0 0 28.8 -3.6 0 0 32.4 -3.6 0 0 28.8 -3.6 0 0 18 -3.6 0 0 28.8 -3.6 0 0 21.6 -3.6 0 0 18 3.6 0 0 21.6 3.6 0 0 14.4 3.6 0 0 18 3.6 0 0 10.8 3.6 0 0 14.4 3.6 0 0 21.6 3.6 0 0 7.2 3.6 0 0 21.6 3.6 0 0 14.4 3.6 0 0 14.4 3.6 0 0 7.2 3.6 0 0 18 3.6 0 0 10.8 3.6 0 0 10.8 3.6 0 0 10.8 3.6 0 0 14.4 3.6 0 0 10.8 3.6 0 0 10.8 3.6 0 0 7.2 3.6 0 0 10.8 3.6 0 0 7.2 3.6 0 0 7.2 3.6 0 0 3.6 3.6 0 0 3.6 3.6 0 0 3.6 3.6 0 0 3.6 3.6 0 0 3.6 3.6 0 0 3.6 7.2 0 0 3.6 7.2 0 0 3.6 7.2 0 0 3.6 10.8 0 0 7.2 -25.2 0 0 -3.6 -7.2 0 0 -3.6 -7.2 0 0 -3.6 -7.2 0 0 -3.6 -3.6 0 0 -3.6 -3.6 0 0 -3.6 -3.6 0 0 -3.6 -3.6 0 0 -3.6 -3.6 0 0 -3.6 -3.6 0 0 -7.2 -3.6 0 0 -7.2 -3.6 0 0 -3.6 -3.6 0 0 -10.8 -3.6 0 0 -7.2 -3.6 0 0 -10.8 -3.6 0 0 -10.8 -3.6 0 0 -10.8 -3.6 0 0 -10.8 -3.6 0 0 -14.4 -3.6 0 0 -7.2 -3.6 0 0 -14.4 -3.6 0 0 -10.8 -3.6 0 0 -18 -3.6 0 0 -14.4 -3.6 0 0 -10.8 -3.6 0 0 -14.4 -3.6 0 0 -10.8 -3.6 0 0 -18 -3.6 0 0 -14.4 -3.6 0 0 -18 -3.6 0 0 -21.6 -3.6 0 0 -14.4 -3.6 0 0 -25.2 -3.6 0 0 -25.2 -3.6 0 0 -28.8 -3.6 0 0 -36 -3.6 0 0 -43.2 -3.6 0 0 -147.6 -3.6 0 0 -18 -3.6 0 0 -7.2 -3.6 0 0 -3.6 -7.2 0 0 3.6 -7.2 0 0 3.6 -3.6 0 0 3.6 -3.6 0 0 3.6 -3.6 0 0 3.6 -3.6 0 0 7.2 -3.6 0 0 7.2 -3.6 0 0 3.6 -3.6 0 0 7.2 -3.6 0 0 7.2 -3.6 0 0 10.8 -3.6 0 0 7.2 -3.6 0 0 10.8 -3.6 0 0 10.8 -3.6 0 0 10.8 -3.6 0 0 10.8 -3.6 0 0 10.8 -3.6 0 0 10.8 -3.6 0 0 10.8 -3.6 0 0 10.8 -3.6 0 0 14.4 -3.6 0 0 10.8 -3.6 0 0 21.6 -3.6 0 0 21.6 -3.6 0 0 18 -3.6 0 0 10.8 -3.6 0 0 21.6 -3.6 0 0 18 -3.6 0 0 18 -3.6 0 0 32.4 -3.6 0 0 21.6 -3.6 0 0 43.2 -3.6 0 0 133.2 3.6 0 0 36 3.6 0 0 46.8 3.6 0 0 32.4 3.6 0 0 154.8 -3.6 0 0 21.6 -3.6 0 0 25.2 3.6 0 0 -3.6 7.2 0 0 -3.6 7.2 0 0 -3.6 7.2 0 0 -3.6 7.2 0 0 -3.6 7.2 0 0 -3.6 7.2 0 0 -3.6 7.2 0 0 -3.6 10.8 0 0 -3.6 7.2 0 0 -3.6 10.8 0 0 -3.6 10.8 0 0 -3.6 10.8 0 0 -3.6 10.8 0 0 -3.6 18 0 0 -3.6 18 0 0 -3.6 14.4 0 0 -3.6 14.4 0 0 -3.6 28.8 0 0 -3.6 32.4 0 0 -3.6 108 0 0 3.6 36 0 0 3.6 14.4 0 0 3.6 21.6 0 0 3.6 14.4 0 0 3.6 10.8 0 0 3.6 14.4 0 0 3.6 7.2 0 0 3.6 7.2 0 0 3.6 14.4 0 0 3.6 7.2 0 0 3.6 10.8 0 0 -3.6 -3.6 0 0 -43.2 -3.6 0 0 -21.6 -3.6 0 0 -154.8 3.6 0 0 -43.2 3.6 0 0 -28.8 3.6 0 0 -25.2 3.6 0 0 -25.2 3.6 0 0 -21.6 3.6 0 0 -25.2 3.6 0 0 -18 3.6 0 0 -39.6 3.6 0 0 -158.4 -3.6 0 0 -28.8 -3.6 0 0 -18 -3.6 0 0 -28.8 -3.6 0 0 -36 -3.6 0 0 -21.6 -3.6 0 0 -18 -3.6 0 0 -18 -3.6 0 0 -21.6 -3.6 0 0 -14.4 -3.6 0 0 -7.2 -3.6 0 0 -14.4 -3.6 0 0 -10.8 -3.6 0 0 -10.8 -3.6 0 0 -7.2 -3.6 0 0 -10.8 -3.6 0 0 -3.6 -3.6 0 0 -7.2 -3.6 0 0 -7.2 -3.6 0 0 -3.6 -3.6 0 0 -3.6 -3.6 0 0 -3.6 -14.4 0 0 3.6 -3.6 0 0 3.6 -3.6 0 0 7.2 -3.6 0 0 7.2 -3.6 0 0 18 -3.6 0 0 25.2 -3.6 0 0 28.8 -3.6 0 0 64.8 -3.6 0 0 32.4 -3.6 0 0 14.4 -3.6 0 0 25.2 -3.6 0 0 39.6 -3.6 0 0 14.4 -3.6 0 0 32.4 -3.6 0 0 10.8 -3.6 0 0 14.4 -3.6 0 0 7.2 -3.6 0 0 10.8 -3.6 0 0 10.8 -3.6 0 0 14.4 -3.6 0 0 7.2 -3.6 0 0 10.8 -3.6 0 0 10.8 -3.6 0 0 10.8 -3.6 0 0 7.2 -3.6 0 0 14.4 -3.6 0 0 7.2 -3.6 0 0 7.2 -3.6 0 0 10.8 -3.6 0 0 14.4 -3.6 0 0 7.2 -3.6 0 0 14.4 -3.6 0 0 14.4 -3.6 0 0 10.8 -3.6 0 0 7.2 -3.6 0 0 18 -3.6 0 0 14.4 -3.6 0 0 7.2 -3.6 0 0 25.2 -3.6 0 0 10.8 -3.6 0 0 14.4 -3.6 0 0 21.6 -3.6 0 0 14.4 -3.6 0 0 7.2 -3.6 0 0 7.2 -3.6 0 0 3.6 -3.6 0 0 -25.2 3.6 0 0 -32.4 3.6 0 0 -18 3.6 0 0 -28.8 3.6 0 0 -14.4 3.6 0 0 -10.8 3.6 0 0 -18 3.6 0 0 -14.4 3.6 0 0 -7.2 3.6 0 0 -14.4 3.6 0 0 -14.4 3.6 0 0 -7.2 3.6 0 0 -14.4 3.6 0 0 -10.8 3.6 0 0 -10.8 3.6 0 0 -10.8 3.6 0 0 -7.2 3.6 0 0 -10.8 3.6 0 0 -14.4 3.6 0 0 -7.2 3.6 0 0 -14.4 3.6 0 0 -10.8 -3.6 0 0 -18 -3.6 0 0 -10.8 -3.6 0 0 -32.4 -3.6 0 0 -18 -3.6 0 0 -32.4 -3.6 0 0 -18 -3.6 0 0 -21.6 -3.6 0 0 -32.4 -3.6 0 0 -32.4 -3.6 0 0 -126 3.6 0 0 -97.2zm-10.8 -36l7.2 0 0 3.6 7.2 0 0 3.6 3.6 0 0 3.6 3.6 0 0 3.6 3.6 0 0 7.2 3.6 0 0 7.2 3.6 0 0 14.4 3.6 0 0 68.4 -3.6 0 0 43.2 -3.6 0 0 111.6 3.6 0 0 25.2 3.6 0 0 21.6 3.6 0 0 25.2 3.6 0 0 28.8 3.6 0 0 18 3.6 0 0 28.8 3.6 0 0 21.6 7.2 0 0 -21.6 3.6 0 0 -28.8 3.6 0 0 -28.8 3.6 0 0 -14.4 3.6 0 0 -32.4 3.6 0 0 -28.8 3.6 0 0 -46.8 3.6 0 0 -43.2 3.6 0 0 -39.6 3.6 0 0 -10.8 3.6 0 0 -14.4 3.6 0 0 -10.8 3.6 0 0 -7.2 3.6 0 0 -7.2 3.6 0 0 -3.6 3.6 0 0 -3.6 3.6 0 0 -3.6 3.6 0 0 -3.6 7.2 0 0 -3.6 21.6 0 0 3.6 7.2 0 0 3.6 3.6 0 0 3.6 3.6 0 0 3.6 3.6 0 0 3.6 3.6 0 0 3.6 3.6 0 0 7.2 3.6 0 0 7.2 3.6 0 0 3.6 3.6 0 0 7.2 3.6 0 0 10.8 3.6 0 0 7.2 3.6 0 0 10.8 3.6 0 0 7.2 3.6 0 0 18 3.6 0 0 10.8 3.6 0 0 10.8 3.6 0 0 18 3.6 0 0 21.6 3.6 0 0 18 3.6 0 0 21.6 3.6 0 0 18 3.6 0 0 25.2 3.6 0 0 28.8 3.6 0 0 28.8 3.6 0 0 57.6 3.6 0 0 90 -3.6 0 0 54 -3.6 0 0 28.8 -3.6 0 0 21.6 -3.6 0 0 14.4 -3.6 0 0 28.8 -3.6 0 0 18 -3.6 0 0 28.8 -3.6 0 0 28.8 -3.6 0 0 36 -3.6 0 0 144 3.6 0 0 36 3.6 0 0 21.6 3.6 0 0 14.4 3.6 0 0 14.4 3.6 0 0 10.8 3.6 0 0 10.8 3.6 0 0 7.2 3.6 0 0 7.2 3.6 0 0 7.2 3.6 0 0 7.2 3.6 0 0 10.8 3.6 0 0 7.2 3.6 0 0 10.8 3.6 0 0 7.2 3.6 0 0 14.4 3.6 0 0 10.8 3.6 0 0 10.8 3.6 0 0 10.8 3.6 0 0 10.8 3.6 0 0 18.01 3.6 0 0 7.19 3.6 0 0 18 3.6 0 0 25.2 3.6 0 0 32.41 3.6 0 0 32.4 -3.6 0 0 25.2 -3.6 0 0 18 -3.6 0 0 10.8 -3.6 0 0 10.8 -3.6 0 0 7.19 -3.6 0 0 10.8 -3.6 0 0 7.21 -3.6 0 0 7.2 -3.6 0 0 7.19 -3.6 0 0 10.8 -3.6 0 0 3.61 -3.6 0 0 3.6 -3.6 0 0 7.2 -3.6 0 0 7.19 -3.6 0 0 7.2 -3.6 0 0 3.6 -3.6 0 0 3.61 -3.6 0 0 7.19 -3.6 0 0 3.61 -3.6 0 0 3.59 -3.6 0 0 3.6 -3.6 0 0 3.61 -3.6 0 0 3.59 -3.6 0 0 3.6 -3.6 0 0 3.61 -3.6 0 0 3.59 -3.6 0 0 3.6 -3.6 0 0 3.61 -7.2 0 0 3.59 -3.6 0 0 3.6 -7.2 0 0 3.61 -7.2 0 0 3.59 -14.4 0 0 3.6 -39.6 0 0 -3.6 -25.2 0 0 -3.59 -14.4 0 0 -3.61 -14.4 0 0 -3.6 -75.6 0 0 3.6 -10.8 0 0 3.61 -7.2 0 0 3.59 -7.2 0 0 3.6 -7.2 0 0 3.61 -3.6 0 0 3.59 -7.2 0 0 3.6 -3.6 0 0 3.61 -7.2 0 0 3.59 -3.6 0 0 3.6 -7.2 0 0 3.61 -7.2 0 0 3.59 -3.6 0 0 3.61 -7.2 0 0 3.6 -7.2 0 0 3.59 -7.2 0 0 3.61 -7.2 0 0 3.6 -10.8 0 0 3.59 -14.4 0 0 3.61 -28.8 0 0 -3.61 -18 0 0 -3.59 -10.8 0 0 -3.6 -10.8 0 0 -3.61 -7.2 0 0 -3.59 -7.2 0 0 -3.6 -7.2 0 0 -3.61 -7.2 0 0 -3.59 -3.6 0 0 -3.61 -7.2 0 0 -3.6 -3.6 0 0 -3.59 -7.2 0 0 -3.61 -3.6 0 0 -3.6 -7.2 0 0 -3.59 -3.6 0 0 -3.61 -7.2 0 0 -3.6 -3.6 0 0 -3.59 -3.6 0 0 -3.61 -3.6 0 0 -3.6 -7.2 0 0 -3.59 -3.6 0 0 -3.61 -3.6 0 0 -3.6 -3.6 0 0 -7.2 -3.6 0 0 -3.6 -3.6 0 0 -3.59 -3.6 0 0 -3.61 -3.6 0 0 -3.6 -3.6 0 0 -3.59 -3.6 0 0 -7.21 -3.6 0 0 -3.59 -3.6 0 0 -3.61 -3.6 0 0 -7.19 -3.6 0 0 -3.61 -3.6 0 0 -7.19 -3.6 0 0 -7.2 -3.6 0 0 -3.6 -3.6 0 0 -10.8 -3.6 0 0 -7.2 -3.6 0 0 -7.21 -3.6 0 0 -7.19 -3.6 0 0 -10.8 -3.6 0 0 -10.8 -3.6 0 0 -21.6 -3.6 0 0 -93.6 3.6 0 0 -25.21 3.6 0 0 -10.8 3.6 0 0 -14.4 3.6 0 0 -14.39 3.6 0 0 -18.01 3.6 0 0 -10.8 3.6 0 0 -14.39 3.6 0 0 -10.8 3.6 0 0 -10.81 3.6 0 0 -14.4 3.6 0 0 -7.2 3.6 0 0 -10.8 3.6 0 0 -21.6 3.6 0 0 -18 3.6 0 0 -28.8 3.6 0 0 -205.2 -3.6 0 0 -54 -3.6 0 0 -50.4 -3.6 0 0 -122.4 3.6 0 0 -28.8 3.6 0 0 -32.4 3.6 0 0 -28.8 3.6 0 0 -18 3.6 0 0 -21.6 3.6 0 0 -21.6 3.6 0 0 -18 3.6 0 0 -18 3.6 0 0 -21.6 3.6 0 0 -14.4 3.6 0 0 -10.8 3.6 0 0 -18 3.6 0 0 -14.4 3.6 0 0 -7.2 3.6 0 0 -14.4 3.6 0 0 -10.8 3.6 0 0 -10.8 3.6 0 0 -7.2 3.6 0 0 -14.4 3.6 0 0 -7.2 3.6 0 0 -10.8 3.6 0 0 -7.2 3.6 0 0 -7.2 3.6 0 0 -7.2 3.6 0 0 -7.2 3.6 0 0 -7.2 3.6 0 0 -3.6 3.6 0 0 -7.2 3.6 0 0 -3.6 3.6 0 0 -3.6 3.6 0 0 -3.6 3.6 0 0 -3.6 3.6 0 0 -3.6 7.2 0 0 -3.6 7.2 0 0 -3.6 21.6 0 0 3.6 7.2 0 0 3.6 3.6 0 0 7.2 3.6 0 0 3.6 3.6 0 0 10.8 3.6 0 0 14.4 3.6 0 0 14.4 3.6 0 0 180 3.6 0 0 -18 3.6 0 0 -25.2 3.6 0 0 -25.2 3.6 0 0 -25.2 3.6 0 0 -32.4 3.6 0 0 -21.6 3.6 0 0 -14.4 3.6 0 0 -21.6 3.6 0 0 -14.4 3.6 0 0 -21.6 3.6 0 0 -14.4 3.6 0 0 -14.4 3.6 0 0 -7.2 3.6 0 0 -14.4 3.6 0 0 -10.8 3.6 0 0 -7.2 3.6 0 0 -14.4 3.6 0 0 -10.8 3.6 0 0 -7.2 3.6 0 0 -7.2 3.6 0 0 -10.8 3.6 0 0 -7.2 3.6 0 0 -7.2 3.6 0 0 -7.2 3.6 0 0 -7.2 3.6 0 0 -3.6 3.6 0 0 -7.2 3.6 0 0 -3.6 3.6 0 0 -3.6 3.6 0 0 -3.6 3.6 0 0 -3.6 3.6 0 0 -3.6 3.6 0 0 -3.6 7.2 0 0 -3.6 7.2 0 0 -3.6 18 0 0 3.6z"/>
 </g>
</svg>
