<?xml version="1.0" encoding="UTF-8"?>
<!DOCTYPE svg PUBLIC "-//W3C//DTD SVG 1.1//EN" "http://www.w3.org/Graphics/SVG/1.1/DTD/svg11.dtd">
<!-- Creator: CorelDRAW (Versión de evaluación) -->
<svg xmlns="http://www.w3.org/2000/svg" xml:space="preserve" width="739px" height="2458px" version="1.1" style="shape-rendering:geometricPrecision; text-rendering:geometricPrecision; image-rendering:optimizeQuality; fill-rule:evenodd; clip-rule:evenodd"
viewBox="0 0 739 2457.4"
 xmlns:xlink="http://www.w3.org/1999/xlink"
 xmlns:xodm="http://www.corel.com/coreldraw/odm/2003">
 <defs>
  <style type="text/css">
   <![CDATA[
    .str0 {stroke:#4B4B4D;stroke-width:10;stroke-miterlimit:22.9256}
    .fil0 {fill:#FEFEFE}
   ]]>
  </style>
 </defs>
 <g id="tooth-fissure-crown-18">
  <metadata id="CorelCorpID_0Corel-Layer"/>
  <path id="crown" class="fil0 str0" d="M440.25 2368.85c57.06,14.92 100.95,140.99 179.96,63.6 164.76,-161.41 133.66,-641.7 50.53,-871.79 -70.59,-0.52 -68.66,43.19 -163.74,-8.4 -202.49,-109.89 -136.31,12.93 -287.8,73.63 -57.12,22.9 -117.04,25.12 -175.07,7.31 -94.7,254.2 -34.66,732.01 145.02,711.8 54.98,-6.19 51.34,-35.86 92.99,-70.46 66.95,-55.6 166.87,6.41 158.11,94.31 -57.07,-26.21 -83.41,-175.53 -173.24,-28.37 24.73,97.24 120.59,118.74 184.89,82.29l-11.65 -53.92zm140.11 -253.69l0.22 8.33 8.33 -0.23 -0.22 -8.32 -8.33 0.22zm132.86 129.77c3.6,-14.95 6.77,-30.34 9.56,-46.09l-2.65 0.07 -0.11 -4.17 -4.17 0.12 -0.11 -4.17 -8.33 0.23 -0.11 -4.17 -4.17 0.12 -0.11 -4.17 -0.22 -8.33 -16.66 0.45 0.12 4.16 -8.33 0.23 -0.12 -4.17 -12.49 0.34 -0.33 -12.49 -8.33 0.22 -0.12 -4.16 -4.16 0.11 -0.11 -4.16 -4.17 0.11 -0.11 -4.16 -4.16 0.11 -0.23 -8.33 -4.16 0.11 -0.11 -4.16 4.16 -0.12 -0.33 -12.49 -4.17 0.11 -0.11 -4.16 -0.11 -4.17 4.16 -0.11 -0.22 -8.32 4.16 -0.12 -0.22 -8.33 4.16 -0.11 -0.11 -4.16 4.16 -0.11 -0.11 -4.17 4.17 -0.11 -0.45 -16.66 -4.17 0.12 -0.11 -4.17 -8.33 0.23 0.12 4.16 -4.17 0.11 0.34 12.49 -4.17 0.12 -0.11 -4.17 -12.49 0.34 -0.11 -4.17 -4.17 0.12 -0.11 -4.17 -8.33 0.23 -0.11 -4.17 -8.33 0.23 -0.11 -4.17 4.16 -0.11 -0.22 -8.33 4.16 -0.11 -0.22 -8.33 -8.33 0.22 0.11 4.17 -4.16 0.11 0.11 4.17 -4.16 0.11 -0.23 -8.33 -0.22 -8.33 16.66 -0.45 -0.12 -4.16 4.17 -0.11 0.11 4.16 4.16 -0.11 -0.11 -4.16 4.17 -0.12 -0.23 -8.33 -12.49 0.34 0.11 4.16 -12.49 0.34 -0.11 -4.16 -0.23 -8.33 -16.65 0.45 -0.34 -12.5 -4.16 0.11 -0.12 -4.16 -4.16 0.11 -0.11 -4.16 -8.33 0.22 -0.34 -12.49 -12.49 0.34 0.22 8.33 -4.16 0.11 -0.45 -16.66 -8.32 0.23 0.33 12.49 -16.66 0.45 -0.44 -16.66 24.98 -0.67 0.11 4.16 4.17 -0.11 -0.34 -12.49 -4.16 0.11 -0.23 -8.33 -4.16 0.11 -0.11 -4.16 -4.17 0.11 0.11 4.16 -4.16 0.12 -0.22 -8.33 -4.17 0.11 -0.11 -4.17 -4.16 0.12 -0.12 -4.17 -4.16 0.12 -0.34 -12.5 -4.16 0.12 -0.45 -16.66 -4.16 0.11 -0.12 -4.16 4.17 -0.12 -0.11 -4.16 -4.17 0.11 -0.11 -4.16 -4.16 0.11 -0.12 -4.16 -4.16 0.11 -0.34 -12.49 -4.16 0.11 0.11 4.16 -4.16 0.12 -0.67 -24.99 -4.17 0.11 -0.11 -4.16 -4.17 0.11 -0.11 -4.17 -4.16 0.12 -0.11 -4.17 -4.17 0.12 -0.11 -4.17 -4.16 0.11 -0.12 -4.16 -0.33 -12.49 4.16 -0.12 -0.22 -8.32 4.16 -0.12 -0.22 -8.32 -4.16 0.11 0.11 4.16 -4.17 0.11 0.11 4.17 -4.16 0.11 0.11 4.17 -12.49 0.33 -0.11 -4.16 -4.17 0.11 -0.22 -8.33 -4.16 0.11 0.11 4.17 -16.66 0.44 -0.11 -4.16 -12.49 0.34 -0.45 -16.66 -8.33 0.22 -0.11 -4.16 -4.17 0.11 -0.11 -4.16 -4.16 0.11 -0.11 -4.16 -4.17 0.11 -0.11 -4.17 -4.17 0.12 -0.11 -4.17 4.17 -0.11 -0.9 -33.31 4.16 -0.12 -0.11 -4.16 16.66 -0.45 -0.11 -4.16 33.31 -0.9 -0.11 -4.16 24.98 -0.67 -0.11 -4.17 8.33 -0.22 -0.11 -4.17 8.33 -0.22 -0.12 -4.17 4.17 -0.11 -0.11 -4.16 8.32 -0.23 -0.11 -4.16 8.33 -0.22 -0.11 -4.17 16.65 -0.45 -0.11 -4.16 4.17 -0.11 0.33 12.49 4.17 -0.11 0.11 4.16 4.16 -0.11 0.11 4.16 4.17 -0.11 0.11 4.17 4.17 -0.12 0.11 4.17 4.16 -0.11 0.11 4.16 16.66 -0.45 0.11 4.17 4.17 -0.11 0.11 4.16 4.16 -0.11 0.56 20.82 4.17 -0.12 0.22 8.33 -4.16 0.12 0.33 12.49 4.17 -0.11 0.11 4.16 4.16 -0.11 0.23 8.33 4.16 -0.12 -0.56 -20.82 4.17 -0.11 -0.9 -33.31 4.16 -0.11 -0.11 -4.17 4.17 -0.11 -0.11 -4.16 8.32 -0.23 -0.11 -4.16 4.16 -0.11 -0.11 -4.17 4.17 -0.11 -0.23 -8.33 -8.33 0.22 0.23 8.33 -4.17 0.12 0.12 4.16 -8.33 0.22 0.11 4.17 -16.66 0.45 -0.11 -4.17 -8.33 0.23 -0.11 -4.17 -8.33 0.23 -0.11 -4.17 -8.33 0.23 -0.22 -8.33 -4.17 0.11 -0.11 -4.16 -8.33 0.22 -1.01 -37.48 8.33 -0.22 0.12 4.16 4.16 -0.11 -0.11 -4.16 4.16 -0.12 -0.11 -4.16 4.16 -0.11 -0.22 -8.33 4.17 -0.11 -0.34 -12.5 4.16 -0.11 -0.11 -4.16 4.16 -0.11 -0.11 -4.17 4.17 -0.11 -0.12 -4.16 4.17 -0.12 -0.11 -4.16 4.16 -0.11 -0.11 -4.17 4.16 -0.11 -0.22 -8.33 4.16 -0.11 -0.11 -4.16 8.33 -0.23 -0.11 -4.16 8.32 -0.23 -0.22 -8.32 4.17 -0.12 -0.12 -4.16 4.17 -0.11 -0.12 -4.17 -0.11 -4.16 4.17 -0.11 -0.23 -8.33 4.17 -0.11 -0.12 -4.17 4.17 -0.11 -0.11 -4.16 4.16 -0.11 -0.11 -4.17 33.31 -0.89 -0.16 -6.19c-21.89,-0.02 -36.75,4.23 -49.78,8.46l0.31 11.56 -4.17 0.11 0.12 4.17 -4.17 0.11 0.11 4.16 -4.16 0.12 0.22 8.32 -4.16 0.12 0.22 8.32 -8.32 0.23 0.11 4.16 -8.33 0.23 0.11 4.16 -4.16 0.11 0.22 8.33 -4.16 0.11 0.11 4.17 -4.17 0.11 0.12 4.16 -8.33 0.23 0.22 8.33 -12.49 0.33 0.11 4.17 -4.16 0.11 0.11 4.16 -8.33 0.23 0.11 4.16 -4.16 0.11 0.11 4.17 -4.16 0.11 0.33 12.49 -4.16 0.11 0.11 4.17 -4.16 0.11 0.11 4.16 -4.16 0.12 0.22 8.32 -4.16 0.12 0.11 4.16 -8.33 0.23 0.11 4.16 -4.16 0.11 0.11 4.17 -8.33 0.22 0.11 4.16 -8.32 0.23 0.11 4.16 -4.17 0.11 0.11 4.17 -4.16 0.11 0.11 4.16 -4.16 0.12 -4.16 0.11 0.11 4.16 -4.17 0.11 -4.16 0.12 -8.33 0.22 0.11 4.16 -8.33 0.23 0.12 4.16 -20.82 0.56 -0.12 -4.16 -8.33 0.22 0.12 4.17 -8.33 0.22 0.11 4.17 -12.49 0.33 0.11 4.17 -12.49 0.33 -0.23 -8.33 -4.16 0.12 -0.22 -8.33 -4.17 0.11 -0.22 -8.33 -4.17 0.11 -0.89 -33.31 -4.17 0.11 -0.33 -12.49 -4.17 0.11 -0.22 -8.33 4.16 -0.11 -0.22 -8.33 -4.16 0.12 -0.12 -4.17 4.17 -0.11 -0.45 -16.66 8.33 -0.22 0.11 4.16 4.16 -0.11 -0.11 -4.16 -4.16 0.11 -0.45 -16.66 12.49 -0.33 -0.11 -4.17 -4.17 0.11 -0.11 -4.16 4.17 -0.11 -0.23 -8.33 -8.32 0.22 0.11 4.17 -4.17 0.11 0.11 4.16 -8.32 0.23 0.11 4.16 4.16 -0.11 0.34 12.49 -4.17 0.11 0.12 4.17 -4.17 0.11 -0.11 -4.16 -4.16 0.11 -0.23 -8.33 -4.16 0.11 0.78 29.15 -4.16 0.11 0.33 12.5 -4.16 0.11 -0.11 -4.17 -4.17 0.11 0.34 12.5 8.33 -0.23 0.33 12.5 4.17 -0.12 0.45 16.66 4.16 -0.11 0.45 16.66 4.16 -0.12 0.12 4.17 0.11 4.16 4.16 -0.11 0.11 4.17 4.17 -0.12 0.22 8.33 4.17 -0.11 0.22 8.33 0.11 4.16 4.17 -0.11 0.89 33.31 -4.16 0.11 0.11 4.17 -12.49 0.33 0.22 8.33 12.49 -0.33 0.12 4.16 4.16 -0.11 0.11 4.16 4.17 -0.11 0.22 8.33 4.17 -0.11 0.11 4.16 4.16 -0.11 0.11 4.16 4.17 -0.11 0.11 4.17 4.16 -0.12 0.12 4.17 4.16 -0.12 0.11 4.17 4.17 -0.11 0.11 4.16 4.16 -0.11 0.12 4.16 12.49 -0.33 0.11 4.16 8.33 -0.22 0.11 4.16 4.16 -0.11 0.11 4.16 4.17 -0.11 0.11 4.17 -4.16 0.11 0.22 8.33 -4.16 0.11 0.11 4.16 8.33 -0.22 0.22 8.33 4.17 -0.12 0.33 12.5 4.17 -0.12 0.22 8.33 4.17 -0.11 0.11 4.17 4.16 -0.12 0.34 12.5 4.16 -0.11 0.23 8.32 0.11 4.17 0.78 29.14 4.17 -0.11 0.78 29.15 0.11 4.17 0.11 4.16 4.17 -0.11 0.11 4.16 0.11 4.17 -4.16 0.11 0.56 20.82 4.16 -0.11 0.45 16.65 0.23 8.33 -12.5 0.34 0.11 4.16 8.33 -0.22 0.12 4.16 4.16 -0.11 0.11 4.16 0.23 8.33 4.16 -0.11 1.23 45.81 4.17 -0.12 0.22 8.33 4.16 -0.11 0.12 4.17 4.16 -0.12 0.45 16.66 -4.16 0.11 0.44 16.66 -4.16 0.11 0.34 12.49 -4.17 0.11 0.11 4.17 -4.16 0.11 0.11 4.17 -4.16 0.11 0.11 4.16 -16.66 0.45 0.11 4.16 -12.49 0.34 0.11 4.16 -8.32 0.23 -0.23 -8.33 -4.16 0.11 -0.11 -4.16 -4.17 0.11 -0.11 -4.16 -4.16 0.11 -0.12 -4.17 -4.16 0.12 -0.11 -4.17 -8.33 0.23 -0.11 -4.17 -12.5 0.34 -0.11 -4.17 -12.49 0.34 -0.11 -4.16 -4.17 0.11 -0.56 -20.82 -4.16 0.11 0.22 8.33 -4.16 0.11 0.11 4.16 -8.33 0.23 0.11 4.16 -16.65 0.45 -0.11 -4.16 -20.83 0.56 -0.11 -4.17 -12.49 0.34 -0.11 -4.17 -16.66 0.45 -0.11 -4.16 -8.33 0.22 -0.11 -4.16 -12.49 0.33 0.11 4.17 -16.66 0.45 -0.11 -4.17 -12.49 0.34 -0.11 -4.17 -4.17 0.12 -0.11 -4.17 -4.16 0.12 -0.12 -4.17 -8.33 0.22 -0.11 -4.16 -8.33 0.22 -0.11 -4.16 -8.33 0.22 -0.11 -4.16 -4.16 0.11 -0.11 -4.16 -4.17 0.11 -0.11 -4.16 -4.16 0.11 -0.23 -8.33 4.17 -0.11 -0.12 -4.17 4.17 -0.11 -0.22 -8.33 4.16 -0.11 -0.23 -8.33 4.17 -0.11 -0.23 -8.33 4.17 -0.11 -0.11 -4.16 4.16 -0.12 -0.34 -12.49 -4.16 0.11 0.11 4.17 -8.33 0.22 0.23 8.33 -4.17 0.11 0.12 4.17 -4.17 0.11 0.11 4.16 -4.16 0.11 0.22 8.33 -4.16 0.11 0.11 4.17 -8.33 0.22 0.11 4.17 -24.98 0.67 -0.11 -4.16 -33.32 0.89 -0.11 -4.16 -8.32 0.22 -0.23 -8.33 4.17 -0.11 -0.23 -8.33 4.16 -0.11 -0.11 -4.16 4.17 -0.12 -0.12 -4.16 8.33 -0.22 -0.11 -4.17 12.49 -0.33 -0.11 -4.17 20.82 -0.56 -0.11 -4.16 -4.16 0.11 -0.12 -4.16 -20.82 0.55 -0.11 -4.16 -20.82 0.56 -0.11 -4.16 -4.16 0.11 -0.34 -12.49 -4.17 0.11 -0.22 -8.33 -4.16 0.11 -0.12 -4.16 -4.16 0.11 -0.11 -4.16 -4.17 0.11 -0.22 -8.33 -4.16 0.11 -0.23 -8.33 -4.16 0.12 -0.23 -8.33 -4.16 0.11 -0.11 -4.16 -4.17 0.11 -0.22 -8.33 -4.17 0.11 -0.22 -8.33 -4.16 0.12 -0.34 -12.5 -4.16 0.12 -0.23 -8.33 -4.16 0.11 0.56 20.82 4.16 -0.11 0.34 12.49 4.16 -0.11 0.23 8.33 4.16 -0.12 0.23 8.33 -4.17 0.12 0.22 8.32 12.5 -0.33 0.44 16.65 4.17 -0.11 0.11 4.17 8.33 -0.23 0.45 16.66 4.16 -0.11 0.23 8.32 4.16 -0.11 0.22 8.33 0.12 4.17 0.11 4.16 -4.16 0.11 0.11 4.16 -4.17 0.12 0.11 4.16 -4.16 0.11 0.11 4.17 -4.16 0.11 0.22 8.33 -8.33 0.22 0.23 8.33 -8.33 0.22 -0.11 -4.16 -8.33 0.22 -0.11 -4.16 8.33 -0.22 -0.12 -4.17 -4.16 0.12 -0.11 -4.17 -8.33 0.22 -0.11 -4.16 -12.5 0.34 -0.11 -4.17 -4.16 0.11 -0.11 -4.16 -4.17 0.11 -0.22 -8.33 -4.16 0.12 -0.34 -12.5 -4.17 0.12 0.79 29.14 4.16 -0.11 0.11 4.17 4.17 -0.12 0.11 4.17 4.16 -0.11 0.12 4.16 4.16 -0.11 0.11 4.16 4.17 -0.11 0.11 4.17 8.33 -0.23 0.11 4.16 12.49 -0.33 0.11 4.16 4.17 -0.11 0.34 12.49 -4.17 0.12 0.22 8.32 4.17 -0.11 -0.11 -4.16 4.16 -0.11 -0.22 -8.33 4.16 -0.12 -0.11 -4.16 4.16 -0.11 0.34 12.49 -4.17 0.11 0.34 12.5 4.16 -0.12 -0.22 -8.33 4.17 -0.11 -0.23 -8.32 4.16 -0.12 -0.11 -4.16 8.33 -0.23 -0.11 -4.16 33.31 -0.9 -0.11 -4.16 4.16 -0.11 0.12 4.16 16.65 -0.45 0.11 4.17 8.33 -0.23 0.12 4.17 8.32 -0.22 0.12 4.16 4.16 -0.11 0.11 4.16 4.17 -0.11 0.11 4.16 4.16 -0.11 0.12 4.17 4.16 -0.12 0.11 4.17 4.16 -0.12 0.12 4.17 4.16 -0.11 0.11 4.16 4.17 -0.11 0.11 4.16 4.16 -0.11 4.17 -0.11 0.11 4.16 4.16 -0.11 0.23 8.33 -4.17 0.11 0.12 4.17 -4.17 0.11 0.11 4.16 -8.32 0.23 0.11 4.16 -4.17 0.11 0.12 4.17 -8.33 0.22 -0.12 -4.16 -12.49 0.33 -0.11 -4.16 -8.33 0.22 -0.11 -4.16 -16.66 0.45 -0.11 -4.17 -20.82 0.56 -0.11 -4.16 -12.49 0.33 -0.12 -4.16 -0.22 -8.33 -4.16 0.11 0.11 4.17 -4.17 0.11 0.12 4.16 -8.33 0.23 -0.11 -4.17 -4.17 0.12 -0.11 -4.17 -4.17 0.11 -0.11 -4.16 -4.16 0.11 -0.11 -4.16 -8.33 0.22 0.33 12.49 8.33 -0.22 0.12 4.17 4.16 -0.12 0.11 4.17 -4.16 0.11 0.11 4.16 -8.33 0.23 -0.11 -4.17 -4.17 0.12 -0.22 -8.33 -8.33 0.22 0.11 4.17 -4.16 0.11 0.11 4.16 4.17 -0.11 0.11 4.16 4.16 -0.11 0.12 4.16 8.32 -0.22 0.11 4.17 8.33 -0.23 0.12 4.17 8.32 -0.23 0.12 4.17 12.49 -0.34 0.11 4.16 4.17 -0.11 -0.12 -4.16 4.17 -0.11 -0.12 -4.17 4.17 -0.11 -0.11 -4.17 12.49 -0.33 -0.11 -4.17 4.16 -0.11 0.11 4.17 12.5 -0.34 0.11 4.17 8.33 -0.23 0.11 4.17 12.49 -0.34 0.11 4.16 4.17 -0.11 0.11 4.17 4.16 -0.12 0.12 4.17 8.32 -0.23 0.12 4.17 8.32 -0.23 0.12 4.17 4.16 -0.12 0.34 12.5 -4.17 0.11 0.23 8.33 -12.5 0.33 0.34 12.5 -4.16 0.11 0.11 4.16 8.33 -0.22 -0.12 -4.17 4.17 -0.11 -0.11 -4.16 12.49 -0.34 -0.11 -4.16 4.16 -0.12 -0.34 -12.49 4.17 -0.11 -0.23 -8.33 4.17 -0.11 -0.11 -4.16 -0.11 -4.17 8.32 -0.22 0.12 4.16 4.16 -0.11 0.11 4.16 24.99 -0.67 -0.23 -8.33 -4.16 0.12 0.11 4.16 -8.33 0.22 -0.11 -4.16 -4.17 0.11 -0.11 -4.16 -4.16 0.11 -0.23 -8.33 24.99 -0.67 0.11 4.16 8.33 -0.22 0.11 4.16 4.17 -0.11 0.22 8.33 12.49 -0.34 -0.11 -4.16 4.17 -0.11 0.11 4.16 8.33 -0.22 0.11 4.16 8.32 -0.22 0.12 4.16 8.33 -0.22 0.11 4.16 4.16 -0.11 0.11 4.16 8.33 -0.22 -0.11 -4.16 -4.16 0.11 -0.12 -4.17 -4.16 0.12 -0.11 -4.17 -4.17 0.11 -0.11 -4.16 -12.49 0.34 -0.11 -4.17 -4.17 0.11 -0.11 -4.16 -12.49 0.33 -0.23 -8.32 -4.16 0.11 -0.33 -12.49 8.32 -0.23 0.11 4.17 16.66 -0.45 0.11 4.16 20.82 -0.56 0.12 4.17 37.47 -1.01 0.12 4.16 8.32 -0.22 0.12 4.16 8.32 -0.22 0.12 4.16 8.32 -0.22 0.12 4.16 8.32 -0.22 0.12 4.16 4.16 -0.11 0.11 4.16 8.33 -0.22 0.11 4.16 0.34 12.5 4.16 -0.12 0.12 4.17 4.16 -0.11 0.11 4.16 4.17 -0.11 0.22 8.33 8.33 -0.23 -0.23 -8.32 4.17 -0.12 1.34 49.97 8.33 -0.22 0.23 8.33 4.16 -0.11 0.11 4.16 4.17 -0.11 -0.34 -12.5 -4.16 0.12 -0.34 -12.5 4.16 -0.11 -0.22 -8.33 -4.16 0.12 -0.34 -12.5 -4.16 0.12 -0.12 -4.17 4.17 -0.11 -0.11 -4.16 -4.17 0.11 -0.22 -8.33 4.16 -0.11 -0.22 -8.33 4.16 -0.11 -0.11 -4.17 8.33 -0.22 -0.11 -4.17 8.32 -0.22 -0.11 -4.16 4.17 -0.12 -0.12 -4.16 4.17 -0.11 0.11 4.16 8.33 -0.22 -0.11 -4.17 4.16 -0.11 -0.11 -4.16 8.33 -0.23 -0.12 -4.16 4.17 -0.11 -0.11 -4.17 8.32 -0.22 -0.11 -4.16 12.5 -0.34 -0.12 -4.17 12.5 -0.33 -0.12 -4.17 8.33 -0.22 -0.11 -4.16 4.16 -0.12 0.12 4.17 16.65 -0.45 0.23 8.33 12.49 -0.34 0.11 4.17 8.33 -0.23 -0.11 -4.16 4.16 -0.11 0.11 4.16 8.33 -0.22 0.11 4.16 12.5 -0.34 8.32 -0.22 0.12 4.16 8.33 -0.22 0.11 4.16 4.16 -0.11 0.23 8.33 4.16 -0.11 0.11 4.16 8.33 -0.22 0.11 4.16 12.49 -0.33 0.12 4.16 4.16 -0.11 0.9 33.31 -4.17 0.11 0.11 4.17 4.17 -0.11 0.11 4.16 0.11 4.16 0.12 4.17 -4.17 0.11 0.9 33.31 -4.17 0.11 0.23 8.33 4.16 -0.11 -0.22 -8.33 4.16 -0.11 -0.34 -12.49 4.17 -0.11 -0.22 -8.33 4.16 -0.11 -0.22 -8.33 4.16 -0.11 -0.23 -8.33 4.17 -0.12 0.11 4.17 8.33 -0.22 -0.11 -4.17 4.35 -0.12zm-688.51 -548.2c-1.8,7.25 -3.48,14.63 -5.08,22.09l0.19 7.21 4.16 -0.11 0.45 16.65 1.01 37.48 0.67 24.99 -4.16 0.11 1.01 37.47 -16.66 0.45 0.11 4.17 -4.16 0.11 0.11 4.16 -0.59 0.02c-0.44,6.94 -0.81,13.89 -1.12,20.87l2.27 -0.07 -0.11 -4.16 4.16 -0.11 -0.11 -4.17 4.17 -0.11 -0.12 -4.16 4.17 -0.11 -0.11 -4.17 8.32 -0.22 0.23 8.33 16.65 -0.45 0.12 4.16 20.82 -0.56 0.11 4.17 8.33 -0.23 4.16 -0.11 -0.22 -8.33 8.33 -0.22 0.22 8.32 -8.33 0.23 0.11 4.16 8.33 -0.22 0.12 4.16 33.31 -0.89 0.11 4.16 8.33 -0.22 0.34 12.49 -4.17 0.11 0.22 8.33 8.33 -0.22 -0.22 -8.33 4.16 -0.12 -0.33 -12.49 8.33 -0.22 0.11 4.16 12.49 -0.33 -0.11 -4.17 -4.17 0.12 -0.11 -4.17 -4.16 0.11 -0.12 -4.16 -16.65 0.45 -0.11 -4.17 -12.5 0.34 -0.11 -4.16 -8.33 0.22 -0.11 -4.17 -8.33 0.23 -0.11 -4.17 -4.16 0.12 -0.12 -4.17 -8.32 0.23 -0.12 -4.17 -12.49 0.34 -0.11 -4.16 -8.33 0.22 -0.11 -4.17 -20.82 0.56 -1.01 -37.47 -0.22 -8.33 -0.23 -8.33 4.17 -0.11 -1.24 -45.81 -4.16 0.11 -0.22 -8.32 -4.17 0.11 -0.11 -4.16 4.16 -0.12 -0.11 -4.16 -0.11 -4.17 -4.17 0.12 -0.22 -8.33 -4.16 0.11 -0.34 -12.49 -4.16 0.11 -0.11 -4.16 -2.66 0.07zm2.48 457.95l0.09 0.37 8.25 -0.23 -0.12 -4.16 -8.32 0.22 0.1 3.8zm599.92 -470l0.12 4.17 -4.17 0.11 -0.11 -4.16 4.16 -0.12 -0.11 -4.16 4.17 -0.11 0.11 4.16 -4.17 0.11zm-190.35 359.34l0.11 4.16 -4.16 0.11 -0.11 -4.16 4.16 -0.11zm-21.94 -41.09l0.11 4.17 -4.16 0.11 -0.11 -4.16 4.16 -0.12 -0.11 -4.16 -12.5 0.34 -0.11 -4.17 4.17 -0.11 -0.12 -4.17 4.17 -0.11 -0.11 -4.16 4.16 -0.11 0.11 4.16 4.17 -0.11 0.22 8.33 4.16 -0.11 0.12 4.16 -8.33 0.22zm-326.28 108.8l0.11 4.16 -4.16 0.11 -0.11 -4.16 4.16 -0.11zm304.54 12.64l0.12 4.16 -4.17 0.11 -0.11 -4.16 4.16 -0.11zm144.65 -199.75l0.11 4.16 -4.17 0.11 -0.11 -4.16 4.17 -0.11zm-220.78 -306.6l0.11 4.16 -4.16 0.12 -0.11 -4.17 4.16 -0.11zm102.91 572.3l0.11 4.17 -8.33 0.22 -0.11 -4.17 8.33 -0.22zm-42.52 -186.38l0.11 4.17 -8.33 0.22 -0.11 -4.16 8.33 -0.23zm59.19 31.75l0.12 4.16 -8.33 0.22 -0.11 -4.16 8.32 -0.22zm-311.61 -120.8l0.22 8.33 -4.17 0.11 -0.22 -8.33 4.17 -0.11zm240.81 276.89l0.11 4.16 -8.33 0.23 -0.11 -4.17 8.33 -0.22zm108.17 -161.27l0.11 4.17 -8.33 0.22 -0.11 -4.16 8.33 -0.23zm-242.55 123.21l0.11 4.17 -8.32 0.22 0.22 8.33 -4.16 0.11 0.11 4.16 12.49 -0.33 -0.11 -4.17 4.16 -0.11 -0.11 -4.16 4.17 -0.11 -0.23 -8.33 -8.33 0.22zm414.07 -98.65l0.22 8.33 -4.16 0.11 -0.23 -8.33 4.17 -0.11zm-233.1 164.62l0.22 8.33 -4.16 0.11 -0.23 -8.32 4.17 -0.12zm220.72 -160.12l0.22 8.33 -4.16 0.11 -0.23 -8.33 4.17 -0.11zm-52.63 -406.97l0.11 4.17 -8.32 0.22 -0.12 -4.16 8.33 -0.23zm-88 -18.46l0.22 8.32 -4.17 0.12 -0.22 -8.33 4.17 -0.11zm29.59 15.87l0.11 4.16 -8.32 0.23 -0.12 -4.17 8.33 -0.22zm-92.39 -26.69l0.22 8.33 -4.16 0.11 -0.23 -8.32 4.17 -0.12 -0.34 -12.49 8.33 -0.22 -0.11 -4.17 4.16 -0.11 0.11 4.17 4.17 -0.12 0.11 4.17 -4.17 0.11 0.12 4.16 -8.33 0.23 0.11 4.16 -4.16 0.11zm36.3 419.91l0.11 4.16 -12.49 0.34 -0.11 -4.16 12.49 -0.34zm-284.77 257.69l0.11 4.17 -4.16 0.11 0.11 4.16 -4.16 0.12 -0.23 -8.33 8.33 -0.23zm306.69 -62.42l0.12 4.16 4.16 -0.11 0.11 4.16 -8.33 0.23 -0.22 -8.33 4.16 -0.11zm80.99 -552.25l0.11 4.16 -4.17 0.12 0.12 4.16 -4.17 0.12 -0.22 -8.33 8.33 -0.23zm-122.63 553.37l0.22 8.33 -4.16 0.11 -0.11 -4.17 -4.17 0.12 -0.11 -4.17 8.33 -0.22zm-50.01 -619.56l-0.11 -4.17 4.16 -0.11 0.23 8.33 -8.33 0.22 -0.11 -4.16 4.16 -0.11zm-301.85 87.29l0.11 4.17 4.16 -0.11 0.12 4.16 -8.33 0.23 -0.23 -8.33 4.17 -0.12zm14.15 216.32l0.23 8.32 -4.17 0.12 -0.11 -4.17 -4.16 0.11 -0.12 -4.16 8.33 -0.22zm299.86 -316.44l0.11 4.16 4.16 -0.11 0.12 4.16 -8.33 0.23 -0.11 -4.17 -4.17 0.12 -0.11 -4.17 8.33 -0.22zm-12.9 604.58l0.22 8.33 -8.33 0.23 -0.22 -8.33 8.33 -0.23zm150.84 -279.09l0.11 4.17 4.17 -0.12 0.11 4.17 -8.33 0.22 -0.11 -4.16 -4.17 0.11 -0.11 -4.16 8.33 -0.23zm-110.98 57.16l0.12 4.17 4.16 -0.12 0.11 4.17 -8.33 0.22 -0.11 -4.16 -4.16 0.11 -0.11 -4.17 8.32 -0.22zm35.95 -367.68l0.22 8.33 -8.33 0.23 -0.11 -4.17 -4.16 0.11 -0.12 -4.16 12.5 -0.34zm-170.73 4.6l-0.11 -4.17 8.32 -0.22 0.11 4.16 4.17 -0.11 0.11 4.17 -16.65 0.44 -0.12 -4.16 4.17 -0.11zm225.81 493.98l4.17 -0.11 0.11 4.16 8.33 -0.22 -0.11 -4.17 4.16 -0.11 -0.11 -4.16 4.16 -0.11 -0.56 -20.82 4.17 -0.12 -0.23 -8.32 -4.16 0.11 -0.22 -8.33 -4.17 0.11 -0.11 -4.16 -4.16 0.11 -0.12 -4.17 -4.16 0.12 0.11 4.16 -4.16 0.11 0.11 4.17 -4.17 0.11 0.12 4.16 -4.17 0.12 -0.33 -12.5 -4.17 0.11 -0.11 -4.16 -4.16 0.11 -0.12 -4.16 4.17 -0.11 -0.11 -4.17 4.16 -0.11 -0.11 -4.16 -4.17 0.11 -0.11 -4.17 -4.16 0.12 -0.11 -4.17 -4.17 0.11 0.11 4.17 -4.16 0.11 0.67 24.99 -4.16 0.11 0.11 4.16 4.17 -0.11 0.22 8.33 4.16 -0.11 0.23 8.32 8.33 -0.22 0.11 4.16 -4.17 0.12 0.23 8.32 4.16 -0.11 0.11 4.17 4.17 -0.11 0.11 4.16 4.16 -0.11 0.11 4.16zm-145.27 -133.61l-0.12 -4.16 4.17 -0.11 -0.23 -8.33 4.17 -0.11 0.45 16.65 -8.33 0.23 0.11 4.16 -4.16 0.11 -0.12 -4.16 -4.16 0.11 -0.11 -4.16 8.33 -0.23zm22.33 -408.98l-0.11 -4.16 4.16 -0.12 0.11 4.17 4.17 -0.11 -0.11 -4.17 8.32 -0.22 0.11 4.16 4.17 -0.11 0.11 4.16 -4.16 0.12 0.11 4.16 -4.16 0.11 -0.12 -4.16 -16.65 0.45 -0.11 -4.17 4.16 -0.11zm25.21 7.66l-0.11 -4.17 12.49 -0.33 0.33 12.49 -4.16 0.11 0.11 4.16 -4.16 0.12 -0.11 -4.17 -8.33 0.23 -0.23 -8.33 4.17 -0.11zm-295.6 474.67l-0.22 -8.32 -4.17 0.11 0.12 4.16 -4.17 0.11 0.11 4.17 8.33 -0.23zm468.18 54.08l-0.11 -4.16 -24.99 0.67 0.45 16.65 16.66 -0.44 -0.34 -12.5 8.33 -0.22zm-74.38 -131.35l0.23 8.33 8.33 -0.22 -0.23 -8.33 -8.33 0.22zm-462.91 141.64l-0.11 -4.16 24.98 -0.68 0.12 4.17 8.33 -0.23 0.11 4.17 -37.48 1.01 -0.11 -4.17 4.16 -0.11zm520.91 -464.07l-0.22 -8.33 4.16 -0.11 0.11 4.16 4.17 -0.11 0.11 4.17 4.16 -0.12 -0.11 -4.16 8.33 -0.23 0.22 8.33 12.49 -0.33 0.12 4.16 4.16 -0.11 0.12 4.16 4.16 -0.11 0.11 4.17 -12.49 0.33 -0.12 -4.16 -4.16 0.11 0.11 4.16 -4.16 0.12 0.11 4.16 -8.33 0.22 -0.11 -4.16 -4.16 0.11 0.11 4.17 -4.17 0.11 0.12 4.16 -8.33 0.23 -0.11 -4.17 4.16 -0.11 -0.11 -4.16 -4.17 0.11 -0.44 -16.66 4.16 -0.11zm-133.14 7.75l-0.22 -8.33 8.32 -0.22 -0.11 -4.17 8.33 -0.22 0.22 8.33 20.82 -0.56 0.57 20.82 -8.33 0.22 0.11 4.16 -12.49 0.34 -0.12 -4.16 -4.16 0.11 -0.11 -4.17 -4.17 0.12 -0.11 -4.17 -8.33 0.23 -0.11 -4.17 -4.16 0.12 -0.11 -4.17 4.16 -0.11zm222.9 385.72l-0.11 -4.17 8.33 -0.22 0.22 8.32 4.17 -0.11 0.22 8.33 8.33 -0.22 -0.11 -4.17 16.66 -0.45 -0.12 -4.16 4.17 -0.11 0.11 4.16 8.33 -0.22 0.11 4.16 4.17 -0.11 0.33 12.49 -4.16 0.11 -0.12 -4.16 -8.32 0.23 -0.23 -8.33 -4.16 0.11 0.11 4.16 -4.16 0.11 0.11 4.17 -4.17 0.11 0.12 4.17 -4.17 0.11 0.11 4.16 -12.49 0.34 -0.11 -4.17 -4.16 0.11 -0.23 -8.32 -8.33 0.22 -0.11 -4.16 -4.16 0.11 -0.34 -12.49 4.16 -0.11zm-557.77 23.34l0.11 4.16 4.17 -0.11 -0.11 -4.16 -4.17 0.11zm-33.42 -3.27l-0.12 -4.16 -8.32 0.22 0.11 4.16 8.33 -0.22zm499.58 -17.61l0.11 4.16 4.17 -0.11 -0.11 -4.16 -4.17 0.11zm-22.16 -49.41l0.33 12.49 4.17 -0.11 0.22 8.33 4.17 -0.11 -0.34 -12.49 -4.16 0.11 -0.23 -8.33 -4.16 0.11zm-8.56 -8.1l0.12 4.16 4.16 -0.11 -0.11 -4.17 -4.17 0.12zm-23.75 46.47l0.11 4.17 -4.16 0.11 0.11 4.16 24.99 -0.67 -0.11 -4.16 -12.5 0.33 -0.11 -4.16 -8.33 0.22zm20.6 -8.88l-0.11 -4.17 -24.99 0.67 0.11 4.17 4.17 -0.11 0.11 4.16 8.33 -0.22 -0.11 -4.17 12.49 -0.33zm-53.55 -131.91l-0.12 -4.17 -24.98 0.68 0.11 4.16 4.16 -0.11 0.11 4.16 8.33 -0.22 -0.11 -4.17 12.5 -0.33z"/>
  <path id="root" class="fil0 str0" d="M467.56 1490.67c220.64,110.74 245.67,0.12 262.81,-324.94 13.17,-249.83 -3.92,-483.14 -64.08,-712.52 -30.78,-117.37 -121.34,-454.09 -220.35,-453.19 -20.72,107.11 160.84,984.67 -43.59,1054.23 -145.47,49.5 -124.08,-317.61 -130.25,-450.21 -6.44,-138.08 31.9,-483.79 -44.17,-541.79 -40.32,54.1 -144.79,557.67 -159.7,666.13 -37.3,271.42 -46.6,584.51 -29.42,861.63 209.46,110.53 258.94,-184.57 428.75,-99.34zm-58.57 -1261.48c-22.51,-79.35 -9.12,-187.91 -71.1,-162.79 -21.45,59.25 -1.49,387.66 -23.59,508.9 -24.45,134.19 -27.06,343.59 38.65,442.6 118.84,14.87 136.26,-199.77 104.88,-333.48l-48.84 -455.23z"/>
 </g>
</svg>
