<?xml version="1.0" encoding="UTF-8"?>
<!DOCTYPE svg PUBLIC "-//W3C//DTD SVG 1.1//EN" "http://www.w3.org/Graphics/SVG/1.1/DTD/svg11.dtd">
<!-- Creator: CorelDRAW (Versión de evaluación) -->
<svg xmlns="http://www.w3.org/2000/svg" xml:space="preserve" width="739px" height="2458px" version="1.1" style="shape-rendering:geometricPrecision; text-rendering:geometricPrecision; image-rendering:optimizeQuality; fill-rule:evenodd; clip-rule:evenodd"
viewBox="0 0 739 2457.4"
 xmlns:xlink="http://www.w3.org/1999/xlink"
 xmlns:xodm="http://www.corel.com/coreldraw/odm/2003">
 <defs>
  <style type="text/css">
   <![CDATA[
    .str0 {stroke:#4B4B4D;stroke-width:10;stroke-miterlimit:22.9256}
    .fil1 {fill:none}
    .fil0 {fill:#FEFEFE}
   ]]>
  </style>
 </defs>
 <g id="tooth-fissure-crown-22">
  <metadata id="CorelCorpID_0Corel-Layer"/>
  <g>
   <path id="crown" class="fil0" d="M37.59 2455.83c-38.43,-38.53 -40.56,-80.82 -36.58,-129.61 5.26,-0.33 10.01,-1.39 17.03,-4.27 2.58,5.43 6.3,11.27 11.4,16.43 9.43,9.54 1.68,8.14 20.68,8.57l5.3 33.41c6.26,13.34 2.7,-4.44 7.2,12.41l-13.21 16.02c16.14,-2.95 12.36,-6.23 29.87,-7.69l4.16 0 8.33 8.33 4.17 4.17c12.84,17.52 8.38,-1.52 29.69,14.35 0.18,0.13 12.45,9.21 12.59,9.29 16.52,9.47 28.56,2.74 42.91,13.65 -59.34,5.53 -112.81,8.57 -143.54,4.94zm-35.38 -142.86c1.57,-16.28 3.52,-33.27 4.76,-51.07 10.02,-142.62 17.99,-215.53 30.92,-289.86l24.73 0c0,16.84 4.82,39.3 17.9,48.74 3.66,12.25 7.67,16.71 11.86,29.8 6.6,20.61 -1.88,17.75 16.06,29.76 -0.94,-11.24 -1.96,-11.33 -4.17,-20.82 11.25,-0.94 11.33,-1.96 20.83,-4.17l0 -8.33c-9.5,2.21 -9.58,3.23 -20.83,4.16 -2.85,-12.25 -2.28,-7.1 -3.76,-21.14 -0.44,-4.18 -0.06,-7.65 -1.11,-11.6 -2.98,-11.22 1.22,-1.72 -4.7,-8.91 2.62,-14.1 2,-5.34 -2.93,-8.33 -3.68,9.87 2.5,5.46 -8.33,8.33 2.7,-10.18 -1.84,-5.63 8.33,-8.33l0 -2.93c-2.05,-10.06 -3.1,-16.94 -5.72,-28.86 -0.13,-0.58 -3.68,-12.64 -3.77,-12.87l-7.17 -13.66c9.28,-6.22 11.54,-8.6 19.08,-18.42 14.78,-19.25 16.74,-9.14 28.11,-26.04 14.61,-21.73 2.22,-9.61 24.01,-21.9 7.06,-3.98 2.92,-1.22 7.95,-5.7l8.33 1.24c15.66,-4.18 6,-4.57 23.42,-9.91 13.28,-4.07 15.05,-1.23 26.57,-6.75l12.5 0 -4.17 -8.33 0 -8.33c-13.68,3.65 -6.94,7.47 -20.83,12.49l12.5 -45.82 8.33 -8.33c31.05,35.72 13.5,17.71 24.99,41.66l-16.5 4.67 -0.16 11.99c32.84,0 16.8,-2.81 37.49,-8.33l12.5 12.49 8.33 0 12.5 0c2.37,-8.88 3.61,-8.71 3.65,-8.83 4.99,-15.27 -1.27,-18.22 4.68,-24.49 16.07,-8.5 24.14,-6.09 37.49,-12.5l16.66 0 8.13 4.79c-3.27,-17.39 -5.85,-11.31 15.81,-26.56 5.72,-4.03 5.35,-3.88 9.39,-7.39 34.74,25.46 1.49,-1.44 35.92,9.43 20.03,6.33 22.33,14.86 43.23,19.73l0 4.17 4.86 -3.47 -4.86 -0.7c-12.15,-18.13 -20.71,-14.83 -33.3,-37.52l-12.41 -25.7c-7.44,-18.48 -6.21,-8.94 4.05,-24.26 -16.25,-7.79 -13.41,-3.33 -25,-16.66 2.02,24.18 7.1,18.18 -4.16,41.66l-4.17 8.33c-19.03,1.58 -17.43,2.94 -26.95,14.7 -7.9,9.77 -12.82,13.76 -18.87,22.79l-8.33 4.17c-7.69,3.69 -3.87,2.73 -15.12,5.26 -2.71,0.61 -7.82,1.05 -8.26,1.16 -4.92,1.22 -1.09,-1.35 -6.52,2.39 -8.9,6.13 -30.84,49.83 -60.08,6.18 -21.19,-31.64 -10.66,-21.38 -34.6,-48.71 -19.04,-21.74 -2.78,-17.96 -22.88,-35.44 -9.75,-8.46 -6.49,-1.45 -15,-14.16l0 -12.5c7.67,-11.44 10.98,-15.09 12.5,-33.32 -17.29,3.66 -7.77,0.58 -17.85,0.93 -33.09,1.13 -8.34,15.73 -69.63,15.73 10.77,14.7 9.99,6.39 32.8,8.86 14.41,1.56 17.49,6.44 33.85,7.8l0 8.34c0.39,17.77 10.28,30.32 17.98,44.5 6.94,12.8 6.18,9.26 13.96,19.8 10.14,13.73 9.54,9.35 5.55,19.01l0 4.17c-13.6,9.96 -12.91,19.53 -22.68,31.47 -7.39,9.03 -4.08,3.42 -13.62,11.37 -7.37,6.14 -8.95,8.4 -13.69,15.47l-11.25 0c-6.7,-4.3 -5.41,6.8 -5.41,-8.33l9.17 -15.82c9.25,-19.45 7.49,-11.41 7.49,-34.16l4.17 0 -3.47 -4.86 -0.7 4.86c-17.17,12.57 -13.87,28.16 -22.07,49.98 -10.22,7.52 -3.73,2.21 -5.85,8.33 -27.45,15.41 -18.12,29.4 -39.97,41.66l-11.26 11.25 -12.49 9.58c-5.59,-4.23 8.76,-4.17 -12.5,-4.17l0 4.17 12.5 0c-5.5,20.58 -7.75,2.75 -8.33,29.16 -5.51,0 -15.23,-0.59 -20.28,-0.32l-0.68 0.17c11.65,-62.97 27.25,-131.59 50.91,-247.59 24.31,-119.12 -0.1,-81.59 100.1,-127.59 182.91,-83.98 154.42,-259.06 392.18,-30.34 0.85,0.82 1.67,1.59 2.49,2.37 -12.29,15.78 -8.16,-1.2 -20.68,15.89l-8.96 2.29 8.96 -2.29c16.88,-3.93 19.92,-9.74 34.77,2.65 13.77,11.48 14.13,16.12 11.05,30.68l-17.01 24.65c-6.87,13.33 -0.57,19.98 -24.35,20.48 -19.21,0.4 -15.24,-7.64 -46.12,-7.64 18.79,28.06 30.38,-6.31 33.33,29.16 17.24,-19.84 36.9,-14.98 33.58,1.91 -2.7,13.73 0.55,-1.44 -3.56,10.83 -4.05,12.06 -2.94,10.05 -6.05,23.73 -4.51,19.91 -15.92,32.74 -18.66,43.82 -4.82,19.49 1.09,33.64 -6.18,56.3 -4.67,14.56 -11.16,29.62 -11.63,50.86l0 8.33 -12.5 0c12.7,12.05 5.81,5.23 4.17,25 17.99,-12.05 6.16,-6.08 29.16,-4.17 -7.85,10.72 -20.79,18.3 -33.33,12.5 4.88,20.92 8.21,7.5 -20.1,38.21 -14.65,15.89 -27.21,10.47 -50.71,15.94l12.76 4.04c17.93,1.54 26.51,-7.68 49.72,-8.2l4.17 4.16c1.7,7.3 1.99,9.88 3.94,16.89 1.98,7.15 -0.95,1.43 3.06,9.44 2.81,5.61 2.8,3.9 5.5,7l0 4.16 4.86 -3.47 -4.86 -0.69c-0.81,-9.74 -1.29,-11.57 -2.98,-17.85 -5.02,-18.72 4.37,-5.3 -9.52,-15.48l-4.17 -4.16c-3.4,-6.05 -2.02,-4.41 -4.16,-12.5 4.6,-2.43 7,-2.83 11.77,-5.16 15.55,-7.59 6.18,-1.5 9.77,-7.27 3.33,-5.35 -5.46,-6.45 14.28,-18.43 30.14,-18.29 22.56,-1.07 55.82,1.7 12.09,3.23 5.85,0.39 15.42,8.33l9.32 4.92c-2.85,-13.73 0.81,-7.07 -9.32,-13.25 1.63,-5.47 2.72,-4.16 -2.92,-4.16l-29.16 -41.66c3.23,-4.42 1.24,-2.22 6.39,-6.1 0.6,-0.45 1.77,-1.3 2.42,-1.76l7.85 -4.64c-21.41,-0.48 -11.96,3.77 -20.83,-8.33 31.7,-21.23 23.99,-2.39 37.5,-20.83 -20.51,-2.24 -5.99,3.14 -14.92,-5.91 -9.14,-9.29 -3.61,6.17 -5.91,-14.92 29.34,14.08 45.02,2.19 58.32,8.34 6.22,8.96 0.61,5.48 12.49,8.33l4.17 8.33c2.85,12.25 4.16,12.71 4.16,29.16l8.34 0c-1.34,-16.02 -2.68,-21.96 -12.5,-29.16l-4.17 -8.33 -4.16 -8.33 0 -12.5c8.96,-6.23 5.48,-0.61 8.33,-12.5 -9.21,6.4 -5.18,0.68 -8.33,12.5 -2.15,-0.18 -12.82,-1.35 -12.97,-1.35 -17.88,1.19 -17.44,11.42 -36.87,1.54 -8.57,-4.35 -8.17,-7.35 -19.6,-14.07 -7.95,-4.68 -14.94,-7.27 -22.21,-11.12 0,-61.83 1.83,-22.66 14.49,-72.99 2.61,-10.41 4.2,-13.61 6.34,-22.81 9.47,0.78 6.17,1.18 10.07,2.42l31.59 14.24c-7.9,-29.59 -13.77,6.21 -45.83,-41.66 3.3,-14.13 8.76,-21.44 12.5,-37.49l8.33 -8.33c1.17,-5 2.68,-11.11 2.47,-17.2 28.99,24.93 39.57,36.24 51.69,99.9l0 0.61 0.11 0c7.51,39.62 15.62,99.37 29.08,194.94 1.13,8.03 2.4,17.14 3.76,27.1 -4.57,3.1 -8.67,6.52 -12.12,11.24 4.96,0 9.43,-0.32 13.52,-0.91 14.08,104.63 36.08,288.59 27.24,360.64 -19.03,154.99 -174.69,137.66 -301,149.18 -5.36,0.49 -11.16,1.06 -17.29,1.7 0.64,-3.18 0.31,-6.65 -1.57,-10.73l4.16 -4.17c8.61,-9.91 4.88,-12.12 14.31,-19.4 4.79,-3.7 6.62,-3.58 10.34,-4.18 9.36,-1.5 19.09,4.34 32.29,4.69 15.7,0.43 10.84,0.94 26.37,2.23 -5.88,-8.03 -1.27,-0.49 -5.93,-6.56 -4.97,-6.47 -3.32,-1.14 -6.56,-10.1l-41.66 -12.5c-22.01,-5.88 -4.27,-10.43 -29.16,-12.5l-4.16 1.25c-5.33,-22.87 -22.94,-32.84 -24.97,-59.02 -2.5,-32.3 -6.26,-44.49 -12.52,-71.36 9.24,0.77 11.15,0.19 16.48,4.34 10.43,8.14 6.52,26.2 29.34,41.48 -3.25,-12.17 -4.62,-10.29 -11.23,-22.25 -1.72,-3.1 -5.08,-9.69 -5.49,-10.93 -4.59,-14 -0.58,-5.83 -1.22,-10.6 -3.43,-25.8 -15.39,2.42 -15.39,-47.87 28.09,7.5 3.84,15.2 20.83,20.83l-9.57 -29.16 4.16 -8.33 6.65 -4.16c12.6,0 4.23,1.09 5.85,-4.17l13.74 0c2.61,-5.44 3.2,-7.89 6.27,-14.56 6.88,-14.95 1.85,1.79 6.23,-14.6 -4.58,2.2 -4.9,1.02 -8.9,3.6 -6.75,4.38 -2.59,1.68 -6.72,5.77 -6.27,6.2 2.6,6.73 -17.71,11.46 -9.36,-6.86 -22.62,-29.91 -28.05,-42.83 -12.94,-30.73 -8.23,-25.74 7.22,-48.82 -0.57,-0.82 -1.37,-3.18 -1.58,-2.58l-10.79 -22.57c-3.39,-6.98 -10.56,-24.84 -17.88,-17.07 -13.74,14.61 12.11,2.06 7.45,20.14 -3.29,12.73 -5.53,1.55 -8.38,-0.09 -14.97,-8.61 12.15,-4.05 -14.64,-6.99 5.97,22.36 12.86,7.86 15.42,29.16l-7.76 7.76 7.76 0.58c11.87,13.32 8.61,23.77 13.59,41.8 4.86,17.61 15.51,26.31 8.48,41.51l-4.16 8.33c-11.58,7.75 -3.72,5.03 -17.91,8.33 1.63,-5.47 2.72,-4.16 -2.92,-4.16l0 -4.17 -4.17 -4.16c-15.6,-23.31 -49.59,-33.85 -36.68,-94.28 3.03,-14.15 5.02,-13.68 19.25,-23.14l-19.92 1.41c9.59,-13.91 6.8,-4.02 16.52,-17.3 -33.31,7.76 -16.52,2.59 -32.56,-21.58 -12.31,-18.54 -17.53,-20.07 -46.58,-20.07 11.14,7.74 18.73,4.42 27.2,18.81 3.29,5.59 2.2,8.32 6.58,14.98 6.9,10.49 3.72,12.05 7.87,-0.47 6.33,7.28 5.66,5.17 8.33,16.66l-17.44 11.72c-7.43,6.34 -7.84,7.89 -15.88,13.28l-4.17 0c-20.35,-4.74 -29.1,-10.65 -45.64,-21.24 -18.37,-11.76 -42.4,-20.42 -66.83,-20.42l48.67 26.31c8.12,4.49 11.54,5.53 18.62,10.54 37.15,26.3 26.79,-2.72 35.57,43.58 4,21.05 -3.79,9.73 9.61,19.55 0,-19.9 2.83,-17.27 4.17,-33.33 7.05,-8.11 -2.6,4.41 5.77,-6.72 3.5,-4.66 4.24,-6.22 6.72,-9.94 9.89,-2.04 24.88,-15.29 24.9,50.32 0.01,30.32 -22.05,20.66 -37.39,49.66 20.03,-1.67 35.27,-19.96 54.15,-25 4.37,6.52 5.6,7.14 10.61,14.39l10.22 14.77 2.92 8.33c8.47,9.81 13.73,16.68 12.61,32.51 -1.5,21.17 -1,14.43 6.16,37.4l10.27 40.12c1.23,10.02 1.06,13.55 -2.46,19.89 -7.35,13.22 0.94,0.3 -12.84,11.72 48.47,0 8.09,25.78 51.23,49.98 1.64,5.31 -7.26,4.17 7.09,4.17 -3.61,15.48 -7.91,18.7 -8.33,37.49 -12.61,8.45 -5.91,8.04 -23.31,14.24 -42.27,15.09 -29.57,-4.29 -64.1,-5.98 -21.07,-1.03 -20.39,-0.09 -37.56,-4.09l-8.33 -4.17 -2.29 -8.96 -1.88 13.13 -8.33 0c-9.16,-0.21 -15.79,-2.48 -18.67,-2.76 -5.33,-0.53 -2.06,-1.35 -9.93,-0.31 -9.41,1.23 -3.64,-0.27 -8.89,3.07l-4.16 0 -8.34 -4.17 -4.16 0 -58.32 -4.17 -4.17 0c-18.17,-4.23 -23.85,-9.33 -38.22,-16.15 -28.22,-13.39 -13.75,-9.39 -30.58,-8.82 -9.58,0.33 -11.63,-12.2 -14.05,-17.14 -10.54,-21.47 -24.98,-31.1 -46.28,-45.36l0 -12.5 -8.33 0 0 11.25c-3.41,2.22 -6.9,3.77 -10.42,4.76zm38.84 -358.62l0.55 -2.96 -0.55 2.96zm292.25 479.72c-11.95,1.42 -24.26,2.89 -36.79,4.36l0 0 -0.04 0 -8.76 0.51c-19.69,-5.44 -1.86,-12.17 11.2,-13.96 10.73,-1.47 23.02,3.06 34.39,9.09zm-112.4 12.85l-8.33 0.87 0.01 -0.87 8.32 0zm158.31 -295.76l4.16 -8.33c8.09,-2.15 6.44,-0.77 12.5,-4.17 -1.42,16.99 -2.14,16.95 -16.66,20.83l0 -8.33zm-8.34 -245.77l1.25 -1.25c-0.08,0.09 -1.66,0.83 -1.25,1.25zm295.77 -220.78l1.24 -1.24c-0.08,0.08 -1.66,0.82 -1.24,1.24zm-333.26 324.92l1.25 -1.24c-0.09,0.08 -1.66,0.82 -1.25,1.24zm20.83 304.09l1.24 -1.24c-0.08,0.08 -1.65,0.83 -1.24,1.24zm-79.15 45.82l1.25 -1.24c-0.09,0.08 -1.66,0.83 -1.25,1.24zm262.44 -524.87l1.24 -1.24c-0.08,0.08 -1.65,0.83 -1.24,1.24zm87.48 -233.28l1.24 -1.24c-0.08,0.08 -1.66,0.83 -1.24,1.24zm62.48 316.59l0.11 1.85c3.87,-0.35 -5.83,7.95 1.3,-0.44l0.44 -1.3c-0.01,-0.02 -0.68,-0.18 -0.7,-0.19 -0.03,-0.02 -0.87,-0.19 -1.15,0.08zm-454.05 420.73l4.16 0 -3.47 -4.85 -0.69 4.85c-4.23,-5.58 -4.17,8.77 -4.17,-12.49l-13.39 11.6 17.44 9.45 0.12 -8.56zm0 -41.65c0,10.35 6.66,1.06 2.58,0 -0.05,-0.02 -2.58,-11.82 -2.58,0zm187.45 37.49c0,10.35 6.66,1.06 2.59,0 -0.06,-0.01 -2.59,-11.82 -2.59,0zm0 -54.15c0,10.35 6.66,1.06 2.59,0 -0.06,-0.02 -2.59,-11.82 -2.59,0zm79.15 -449.89c0,10.34 6.66,1.06 2.58,0 -0.05,-0.02 -2.58,-11.82 -2.58,0zm-233.28 524.87c0,10.35 6.66,1.06 2.59,0 -0.05,-0.02 -2.59,-11.82 -2.59,0zm104.14 -404.07c0,10.35 6.66,1.06 2.59,0 -0.05,-0.01 -2.59,-11.82 -2.59,0zm-108.3 441.56c0,10.35 6.66,1.06 2.58,0 -0.05,-0.01 -2.58,-11.82 -2.58,0zm258.27 -562.36c0,10.34 6.66,1.06 2.58,0 -0.05,-0.02 -2.58,-11.82 -2.58,0zm129.13 -149.97c0.17,1.38 4.6,0.93 4.97,0.8 1.04,-0.39 7.23,9.64 1.81,-1.12l-2.17 -0.99c-3.23,-0.07 -5.67,-7.27 -4.61,1.31zm-179.12 724.83c0.17,1.37 4.6,0.93 4.96,0.79 1.04,-0.39 7.24,9.64 1.81,-1.12 -0.12,-0.24 -7.77,-7.7 -6.77,0.33zm54.15 -312.43c-2.14,11.58 9.94,-2 4.13,-1.63 -7.8,0.48 -2.54,-6.98 -4.13,1.63zm-83.31 216.62c0,4.89 8.96,9.38 6.45,0 -2.52,-9.42 10.6,-0.12 -1.92,-1.24 -5.25,-0.47 -4.53,-7.23 -4.53,1.24zm-304.09 -258.28c4.28,4.28 15.06,-5.99 4.83,-2.24 -0.1,0.03 -11.83,-4.75 -4.83,2.24zm337.42 -166.62c4.27,4.28 15.06,-6 4.83,-2.25 -0.1,0.04 -11.83,-4.74 -4.83,2.25zm145.79 -37.49c4.28,4.28 15.07,-6 4.84,-2.25 -0.11,0.04 -11.83,-4.74 -4.84,2.25zm-170.79 483.21c4.28,4.28 15.07,-5.99 4.83,-2.24 -0.1,0.03 -11.82,-4.75 -4.83,2.24zm20.83 29.16c0.88,4.76 9.16,9.11 5.61,0.85 -1.5,-3.49 -7.61,-11.66 -5.61,-0.85zm-324.92 -329.08c0.88,4.75 9.16,9.1 5.6,0.84 -1.5,-3.49 -7.6,-11.66 -5.6,-0.84zm237.44 -154.13c8.96,-6.23 5.49,-0.61 8.33,-12.5 -9.2,6.4 -5.17,0.68 -8.33,12.5l-9.16 7.5c11.46,3.67 7.11,-2.7 13.33,9.18 -5.35,15.82 0,11.1 0,33.31l8.33 0c0,-15.57 -2.08,-20.07 -4.17,-33.31 5.14,0.82 4.17,11.11 4.17,-4.19l-12.5 -12.49zm233.28 145.79c3.4,-6.05 2.02,-4.4 4.16,-12.49l-8.33 4.16c-0.11,0.18 -7.47,-4.05 -3.73,11.7 1.9,7.99 2.12,4.9 7.9,9.13l0 -12.5zm-387.41 341.59c-2.91,-12.18 0.54,-6 -8.33,-12.5 2.73,11.42 -1.69,6.49 8.33,12.5zm45.82 24.99l4.17 0 0 -12.49 -4.17 0 0 12.49zm367.83 -424.89l11.25 -11.26c7.53,-10.54 14.35,-16.55 20.83,-26.23 -9.82,0.81 -12.62,2.51 -16.05,1.54 -10.57,-2.98 2.09,2.02 -6.22,-4.14 -25.6,-18.99 16.27,3.61 -6.89,-5.74l-2.01 12.5c-3.15,11.63 -9.01,15.31 -14.01,25.62 -6.5,13.39 -12.73,31.02 -13.14,49.36l26.24 -41.65zm-438.64 349.91c29.32,-0.65 17.7,-10.3 16.66,-12.5 -7.9,-2.79 -8.83,5.34 -9.84,6.29l-4.49 4.26c-0.47,0.43 -1.57,1.29 -2.33,1.95zm433.23 -570.69c-1.36,-16.29 2.52,-12.66 -12.5,-16.67 1.35,16.29 -2.52,12.66 12.5,16.67zm-287.43 62.48c0,-8.47 -0.73,-1.7 4.52,-1.23 12.52,1.12 -0.6,-8.18 1.92,1.23 2.52,9.39 -6.44,4.9 -6.44,0zm-66.66 249.94l-8.33 -4.17c12.14,-5.2 4.83,-7.62 8.33,4.17zm58.32 -62.48c0,20.12 2.23,17.97 8.34,24.99l0 -37.49c-7.03,4.88 -8.34,0.6 -8.34,12.5zm170.8 -120.81l-12.5 0 0 16.66 16.02 -13.2c3.99,13.26 0.59,9.85 13.14,13.2 -2.29,-10.79 -1.08,-12.7 -1.98,-16.62 -2.27,-9.9 -5.1,-5.82 -6.35,-20.87l-12.5 0c2.21,9.5 3.21,9.59 4.17,20.83zm-333.26 -183.29l-4.16 4.17 4.16 -4.17zm0 0l-4.16 4.17 4.16 -4.17zm-4.16 16.66l4.16 -16.66 -4.16 16.66zm245.77 41.66l0 25 -4.16 0c0,-22.14 -12.74,-12.61 4.16,-25zm-120.8 291.6l1.24 1.24c-0.08,-0.08 -1.66,-0.83 -1.24,-1.24zm-4.17 -33.33l-4.79 -8.12 4.79 8.12zm283.27 -137.46c15.54,8.22 19.41,10.44 29.16,24.99 -24.07,-2 -28.53,-2.05 -29.16,-24.99zm-4.17 -87.48c-1.49,-7.89 5.25,-14.82 2.64,-2.64 -0.06,0.28 0.12,17.18 -2.64,2.64zm-441.56 616.51c16.9,12.39 4.17,2.86 4.17,25l-4.17 0 0 -25z"/>
   <path id="_1" class="fil1 str0" d="M37.59 2455.83c-38.43,-38.53 -40.56,-80.82 -36.58,-129.61 5.26,-0.33 10.01,-1.39 17.03,-4.27 2.58,5.43 6.3,11.27 11.4,16.43 9.43,9.54 1.68,8.14 20.68,8.57l5.3 33.41c6.26,13.34 2.7,-4.44 7.2,12.41l-13.21 16.02c16.14,-2.95 12.36,-6.23 29.87,-7.69l4.16 0 8.33 8.33 4.17 4.17c12.84,17.52 8.38,-1.52 29.69,14.35 0.18,0.13 12.45,9.21 12.59,9.29 16.52,9.47 28.56,2.74 42.91,13.65 -59.34,5.53 -112.81,8.57 -143.54,4.94zm-35.38 -142.86c1.57,-16.28 3.52,-33.27 4.76,-51.07 10.02,-142.62 17.99,-215.53 30.92,-289.86l24.73 0c0,16.84 4.82,39.3 17.9,48.74 3.66,12.25 7.67,16.71 11.86,29.8 6.6,20.61 -1.88,17.75 16.06,29.76 -0.94,-11.24 -1.96,-11.33 -4.17,-20.82 11.25,-0.94 11.33,-1.96 20.83,-4.17l0 -8.33c-9.5,2.21 -9.58,3.23 -20.83,4.16 -2.85,-12.25 -2.28,-7.1 -3.76,-21.14 -0.44,-4.18 -0.06,-7.65 -1.11,-11.6 -2.98,-11.22 1.22,-1.72 -4.7,-8.91 2.62,-14.1 2,-5.34 -2.93,-8.33 -3.68,9.87 2.5,5.46 -8.33,8.33 2.7,-10.18 -1.84,-5.63 8.33,-8.33l0 -2.93c-2.05,-10.06 -3.1,-16.94 -5.72,-28.86 -0.13,-0.58 -3.68,-12.64 -3.77,-12.87l-7.17 -13.66c9.28,-6.22 11.54,-8.6 19.08,-18.42 14.78,-19.25 16.74,-9.14 28.11,-26.04 14.61,-21.73 2.22,-9.61 24.01,-21.9 7.06,-3.98 2.92,-1.22 7.95,-5.7l8.33 1.24c15.66,-4.18 6,-4.57 23.42,-9.91 13.28,-4.07 15.05,-1.23 26.57,-6.75l12.5 0 -4.17 -8.33 0 -8.33c-13.68,3.65 -6.94,7.47 -20.83,12.49l12.5 -45.82 8.33 -8.33c31.05,35.72 13.5,17.71 24.99,41.66l-16.5 4.67 -0.16 11.99c32.84,0 16.8,-2.81 37.49,-8.33l12.5 12.49 8.33 0 12.5 0c2.37,-8.88 3.61,-8.71 3.65,-8.83 4.99,-15.27 -1.27,-18.22 4.68,-24.49 16.07,-8.5 24.14,-6.09 37.49,-12.5l16.66 0 8.13 4.79c-3.27,-17.39 -5.85,-11.31 15.81,-26.56 5.72,-4.03 5.35,-3.88 9.39,-7.39 34.74,25.46 1.49,-1.44 35.92,9.43 20.03,6.33 22.33,14.86 43.23,19.73l0 4.17 4.86 -3.47 -4.86 -0.7c-12.15,-18.13 -20.71,-14.83 -33.3,-37.52l-12.41 -25.7c-7.44,-18.48 -6.21,-8.94 4.05,-24.26 -16.25,-7.79 -13.41,-3.33 -25,-16.66 2.02,24.18 7.1,18.18 -4.16,41.66l-4.17 8.33c-19.03,1.58 -17.43,2.94 -26.95,14.7 -7.9,9.77 -12.82,13.76 -18.87,22.79l-8.33 4.17c-7.69,3.69 -3.87,2.73 -15.12,5.26 -2.71,0.61 -7.82,1.05 -8.26,1.16 -4.92,1.22 -1.09,-1.35 -6.52,2.39 -8.9,6.13 -30.84,49.83 -60.08,6.18 -21.19,-31.64 -10.66,-21.38 -34.6,-48.71 -19.04,-21.74 -2.78,-17.96 -22.88,-35.44 -9.75,-8.46 -6.49,-1.45 -15,-14.16l0 -12.5c7.67,-11.44 10.98,-15.09 12.5,-33.32 -17.29,3.66 -7.77,0.58 -17.85,0.93 -33.09,1.13 -8.34,15.73 -69.63,15.73 10.77,14.7 9.99,6.39 32.8,8.86 14.41,1.56 17.49,6.44 33.85,7.8l0 8.34c0.39,17.77 10.28,30.32 17.98,44.5 6.94,12.8 6.18,9.26 13.96,19.8 10.14,13.73 9.54,9.35 5.55,19.01l0 4.17c-13.6,9.96 -12.91,19.53 -22.68,31.47 -7.39,9.03 -4.08,3.42 -13.62,11.37 -7.37,6.14 -8.95,8.4 -13.69,15.47l-11.25 0c-6.7,-4.3 -5.41,6.8 -5.41,-8.33l9.17 -15.82c9.25,-19.45 7.49,-11.41 7.49,-34.16l4.17 0 -3.47 -4.86 -0.7 4.86c-17.17,12.57 -13.87,28.16 -22.07,49.98 -10.22,7.52 -3.73,2.21 -5.85,8.33 -27.45,15.41 -18.12,29.4 -39.97,41.66l-11.26 11.25 -12.49 9.58c-5.59,-4.23 8.76,-4.17 -12.5,-4.17l0 4.17 12.5 0c-5.5,20.58 -7.75,2.75 -8.33,29.16 -5.51,0 -15.23,-0.59 -20.28,-0.32l-0.68 0.17c11.65,-62.97 27.25,-131.59 50.91,-247.59 24.31,-119.12 -0.1,-81.59 100.1,-127.59 182.91,-83.98 154.42,-259.06 392.18,-30.34 0.85,0.82 1.67,1.59 2.49,2.37 -12.29,15.78 -8.16,-1.2 -20.68,15.89l-8.96 2.29 8.96 -2.29c16.88,-3.93 19.92,-9.74 34.77,2.65 13.77,11.48 14.13,16.12 11.05,30.68l-17.01 24.65c-6.87,13.33 -0.57,19.98 -24.35,20.48 -19.21,0.4 -15.24,-7.64 -46.12,-7.64 18.79,28.06 30.38,-6.31 33.33,29.16 17.24,-19.84 36.9,-14.98 33.58,1.91 -2.7,13.73 0.55,-1.44 -3.56,10.83 -4.05,12.06 -2.94,10.05 -6.05,23.73 -4.51,19.91 -15.92,32.74 -18.66,43.82 -4.82,19.49 1.09,33.64 -6.18,56.3 -4.67,14.56 -11.16,29.62 -11.63,50.86l0 8.33 -12.5 0c12.7,12.05 5.81,5.23 4.17,25 17.99,-12.05 6.16,-6.08 29.16,-4.17 -7.85,10.72 -20.79,18.3 -33.33,12.5 4.88,20.92 8.21,7.5 -20.1,38.21 -14.65,15.89 -27.21,10.47 -50.71,15.94l12.76 4.04c17.93,1.54 26.51,-7.68 49.72,-8.2l4.17 4.16c1.7,7.3 1.99,9.88 3.94,16.89 1.98,7.15 -0.95,1.43 3.06,9.44 2.81,5.61 2.8,3.9 5.5,7l0 4.16 4.86 -3.47 -4.86 -0.69c-0.81,-9.74 -1.29,-11.57 -2.98,-17.85 -5.02,-18.72 4.37,-5.3 -9.52,-15.48l-4.17 -4.16c-3.4,-6.05 -2.02,-4.41 -4.16,-12.5 4.6,-2.43 7,-2.83 11.77,-5.16 15.55,-7.59 6.18,-1.5 9.77,-7.27 3.33,-5.35 -5.46,-6.45 14.28,-18.43 30.14,-18.29 22.56,-1.07 55.82,1.7 12.09,3.23 5.85,0.39 15.42,8.33l9.32 4.92c-2.85,-13.73 0.81,-7.07 -9.32,-13.25 1.63,-5.47 2.72,-4.16 -2.92,-4.16l-29.16 -41.66c3.23,-4.42 1.24,-2.22 6.39,-6.1 0.6,-0.45 1.77,-1.3 2.42,-1.76l7.85 -4.64c-21.41,-0.48 -11.96,3.77 -20.83,-8.33 31.7,-21.23 23.99,-2.39 37.5,-20.83 -20.51,-2.24 -5.99,3.14 -14.92,-5.91 -9.14,-9.29 -3.61,6.17 -5.91,-14.92 29.34,14.08 45.02,2.19 58.32,8.34 6.22,8.96 0.61,5.48 12.49,8.33l4.17 8.33c2.85,12.25 4.16,12.71 4.16,29.16l8.34 0c-1.34,-16.02 -2.68,-21.96 -12.5,-29.16l-4.17 -8.33 -4.16 -8.33 0 -12.5c8.96,-6.23 5.48,-0.61 8.33,-12.5 -9.21,6.4 -5.18,0.68 -8.33,12.5 -2.15,-0.18 -12.82,-1.35 -12.97,-1.35 -17.88,1.19 -17.44,11.42 -36.87,1.54 -8.57,-4.35 -8.17,-7.35 -19.6,-14.07 -7.95,-4.68 -14.94,-7.27 -22.21,-11.12 0,-61.83 1.83,-22.66 14.49,-72.99 2.61,-10.41 4.2,-13.61 6.34,-22.81 9.47,0.78 6.17,1.18 10.07,2.42l31.59 14.24c-7.9,-29.59 -13.77,6.21 -45.83,-41.66 3.3,-14.13 8.76,-21.44 12.5,-37.49l8.33 -8.33c1.17,-5 2.68,-11.11 2.47,-17.2 28.99,24.93 39.57,36.24 51.69,99.9l0 0.61 0.11 0c7.51,39.62 15.62,99.37 29.08,194.94 1.13,8.03 2.4,17.14 3.76,27.1 -4.57,3.1 -8.67,6.52 -12.12,11.24 4.96,0 9.43,-0.32 13.52,-0.91 14.08,104.63 36.08,288.59 27.24,360.64 -19.03,154.99 -174.69,137.66 -301,149.18 -5.36,0.49 -11.16,1.06 -17.29,1.7 0.64,-3.18 0.31,-6.65 -1.57,-10.73l4.16 -4.17c8.61,-9.91 4.88,-12.12 14.31,-19.4 4.79,-3.7 6.62,-3.58 10.34,-4.18 9.36,-1.5 19.09,4.34 32.29,4.69 15.7,0.43 10.84,0.94 26.37,2.23 -5.88,-8.03 -1.27,-0.49 -5.93,-6.56 -4.97,-6.47 -3.32,-1.14 -6.56,-10.1l-41.66 -12.5c-22.01,-5.88 -4.27,-10.43 -29.16,-12.5l-4.16 1.25c-5.33,-22.87 -22.94,-32.84 -24.97,-59.02 -2.5,-32.3 -6.26,-44.49 -12.52,-71.36 9.24,0.77 11.15,0.19 16.48,4.34 10.43,8.14 6.52,26.2 29.34,41.48 -3.25,-12.17 -4.62,-10.29 -11.23,-22.25 -1.72,-3.1 -5.08,-9.69 -5.49,-10.93 -4.59,-14 -0.58,-5.83 -1.22,-10.6 -3.43,-25.8 -15.39,2.42 -15.39,-47.87 28.09,7.5 3.84,15.2 20.83,20.83l-9.57 -29.16 4.16 -8.33 6.65 -4.16c12.6,0 4.23,1.09 5.85,-4.17l13.74 0c2.61,-5.44 3.2,-7.89 6.27,-14.56 6.88,-14.95 1.85,1.79 6.23,-14.6 -4.58,2.2 -4.9,1.02 -8.9,3.6 -6.75,4.38 -2.59,1.68 -6.72,5.77 -6.27,6.2 2.6,6.73 -17.71,11.46 -9.36,-6.86 -22.62,-29.91 -28.05,-42.83 -12.94,-30.73 -8.23,-25.74 7.22,-48.82 -0.57,-0.82 -1.37,-3.18 -1.58,-2.58l-10.79 -22.57c-3.39,-6.98 -10.56,-24.84 -17.88,-17.07 -13.74,14.61 12.11,2.06 7.45,20.14 -3.29,12.73 -5.53,1.55 -8.38,-0.09 -14.97,-8.61 12.15,-4.05 -14.64,-6.99 5.97,22.36 12.86,7.86 15.42,29.16l-7.76 7.76 7.76 0.58c11.87,13.32 8.61,23.77 13.59,41.8 4.86,17.61 15.51,26.31 8.48,41.51l-4.16 8.33c-11.58,7.75 -3.72,5.03 -17.91,8.33 1.63,-5.47 2.72,-4.16 -2.92,-4.16l0 -4.17 -4.17 -4.16c-15.6,-23.31 -49.59,-33.85 -36.68,-94.28 3.03,-14.15 5.02,-13.68 19.25,-23.14l-19.92 1.41c9.59,-13.91 6.8,-4.02 16.52,-17.3 -33.31,7.76 -16.52,2.59 -32.56,-21.58 -12.31,-18.54 -17.53,-20.07 -46.58,-20.07 11.14,7.74 18.73,4.42 27.2,18.81 3.29,5.59 2.2,8.32 6.58,14.98 6.9,10.49 3.72,12.05 7.87,-0.47 6.33,7.28 5.66,5.17 8.33,16.66l-17.44 11.72c-7.43,6.34 -7.84,7.89 -15.88,13.28l-4.17 0c-20.35,-4.74 -29.1,-10.65 -45.64,-21.24 -18.37,-11.76 -42.4,-20.42 -66.83,-20.42l48.67 26.31c8.12,4.49 11.54,5.53 18.62,10.54 37.15,26.3 26.79,-2.72 35.57,43.58 4,21.05 -3.79,9.73 9.61,19.55 0,-19.9 2.83,-17.27 4.17,-33.33 7.05,-8.11 -2.6,4.41 5.77,-6.72 3.5,-4.66 4.24,-6.22 6.72,-9.94 9.89,-2.04 24.88,-15.29 24.9,50.32 0.01,30.32 -22.05,20.66 -37.39,49.66 20.03,-1.67 35.27,-19.96 54.15,-25 4.37,6.52 5.6,7.14 10.61,14.39l10.22 14.77 2.92 8.33c8.47,9.81 13.73,16.68 12.61,32.51 -1.5,21.17 -1,14.43 6.16,37.4l10.27 40.12c1.23,10.02 1.06,13.55 -2.46,19.89 -7.35,13.22 0.94,0.3 -12.84,11.72 48.47,0 8.09,25.78 51.23,49.98 1.64,5.31 -7.26,4.17 7.09,4.17 -3.61,15.48 -7.91,18.7 -8.33,37.49 -12.61,8.45 -5.91,8.04 -23.31,14.24 -42.27,15.09 -29.57,-4.29 -64.1,-5.98 -21.07,-1.03 -20.39,-0.09 -37.56,-4.09l-8.33 -4.17 -2.29 -8.96 -1.88 13.13 -8.33 0c-9.16,-0.21 -15.79,-2.48 -18.67,-2.76 -5.33,-0.53 -2.06,-1.35 -9.93,-0.31 -9.41,1.23 -3.64,-0.27 -8.89,3.07l-4.16 0 -8.34 -4.17 -4.16 0 -58.32 -4.17 -4.17 0c-18.17,-4.23 -23.85,-9.33 -38.22,-16.15 -28.22,-13.39 -13.75,-9.39 -30.58,-8.82 -9.58,0.33 -11.63,-12.2 -14.05,-17.14 -10.54,-21.47 -24.98,-31.1 -46.28,-45.36l0 -12.5 -8.33 0 0 11.25c-3.41,2.22 -6.9,3.77 -10.42,4.76zm38.84 -358.62l0.55 -2.96m291.7 482.68c-11.95,1.42 -24.26,2.89 -36.79,4.36l0 0 -0.04 0 -8.76 0.51c-19.69,-5.44 -1.86,-12.17 11.2,-13.96 10.73,-1.47 23.02,3.06 34.39,9.09zm-112.4 12.85l-8.33 0.87 0.01 -0.87 8.32 0zm158.31 -295.76l4.16 -8.33c8.09,-2.15 6.44,-0.77 12.5,-4.17 -1.42,16.99 -2.14,16.95 -16.66,20.83l0 -8.33zm-8.34 -245.77l1.25 -1.25c-0.08,0.09 -1.66,0.83 -1.25,1.25zm295.77 -220.78l1.24 -1.24c-0.08,0.08 -1.66,0.82 -1.24,1.24zm-333.26 324.92l1.25 -1.24c-0.09,0.08 -1.66,0.82 -1.25,1.24zm20.83 304.09l1.24 -1.24c-0.08,0.08 -1.65,0.83 -1.24,1.24zm-79.15 45.82l1.25 -1.24c-0.09,0.08 -1.66,0.83 -1.25,1.24zm262.44 -524.87l1.24 -1.24c-0.08,0.08 -1.65,0.83 -1.24,1.24zm87.48 -233.28l1.24 -1.24c-0.08,0.08 -1.66,0.83 -1.24,1.24zm62.48 316.59l0.11 1.85c3.87,-0.35 -5.83,7.95 1.3,-0.44l0.44 -1.3c-0.01,-0.02 -0.68,-0.18 -0.7,-0.19 -0.03,-0.02 -0.87,-0.19 -1.15,0.08zm-454.05 420.73l4.16 0 -3.47 -4.85 -0.69 4.85c-4.23,-5.58 -4.17,8.77 -4.17,-12.49l-13.39 11.6 17.44 9.45 0.12 -8.56zm0 -41.65c0,10.35 6.66,1.06 2.58,0 -0.05,-0.02 -2.58,-11.82 -2.58,0zm187.45 37.49c0,10.35 6.66,1.06 2.59,0 -0.06,-0.01 -2.59,-11.82 -2.59,0zm0 -54.15c0,10.35 6.66,1.06 2.59,0 -0.06,-0.02 -2.59,-11.82 -2.59,0zm79.15 -449.89c0,10.34 6.66,1.06 2.58,0 -0.05,-0.02 -2.58,-11.82 -2.58,0zm-233.28 524.87c0,10.35 6.66,1.06 2.59,0 -0.05,-0.02 -2.59,-11.82 -2.59,0zm104.14 -404.07c0,10.35 6.66,1.06 2.59,0 -0.05,-0.01 -2.59,-11.82 -2.59,0zm-108.3 441.56c0,10.35 6.66,1.06 2.58,0 -0.05,-0.01 -2.58,-11.82 -2.58,0zm258.27 -562.36c0,10.34 6.66,1.06 2.58,0 -0.05,-0.02 -2.58,-11.82 -2.58,0zm129.13 -149.97c0.17,1.38 4.6,0.93 4.97,0.8 1.04,-0.39 7.23,9.64 1.81,-1.12l-2.17 -0.99c-3.23,-0.07 -5.67,-7.27 -4.61,1.31zm-179.12 724.83c0.17,1.37 4.6,0.93 4.96,0.79 1.04,-0.39 7.24,9.64 1.81,-1.12 -0.12,-0.24 -7.77,-7.7 -6.77,0.33zm54.15 -312.43c-2.14,11.58 9.94,-2 4.13,-1.63 -7.8,0.48 -2.54,-6.98 -4.13,1.63zm-83.31 216.62c0,4.89 8.96,9.38 6.45,0 -2.52,-9.42 10.6,-0.12 -1.92,-1.24 -5.25,-0.47 -4.53,-7.23 -4.53,1.24zm-304.09 -258.28c4.28,4.28 15.06,-5.99 4.83,-2.24 -0.1,0.03 -11.83,-4.75 -4.83,2.24zm337.42 -166.62c4.27,4.28 15.06,-6 4.83,-2.25 -0.1,0.04 -11.83,-4.74 -4.83,2.25zm145.79 -37.49c4.28,4.28 15.07,-6 4.84,-2.25 -0.11,0.04 -11.83,-4.74 -4.84,2.25zm-170.79 483.21c4.28,4.28 15.07,-5.99 4.83,-2.24 -0.1,0.03 -11.82,-4.75 -4.83,2.24zm20.83 29.16c0.88,4.76 9.16,9.11 5.61,0.85 -1.5,-3.49 -7.61,-11.66 -5.61,-0.85zm-324.92 -329.08c0.88,4.75 9.16,9.1 5.6,0.84 -1.5,-3.49 -7.6,-11.66 -5.6,-0.84zm237.44 -154.13c8.96,-6.23 5.49,-0.61 8.33,-12.5 -9.2,6.4 -5.17,0.68 -8.33,12.5l-9.16 7.5c11.46,3.67 7.11,-2.7 13.33,9.18 -5.35,15.82 0,11.1 0,33.31l8.33 0c0,-15.57 -2.08,-20.07 -4.17,-33.31 5.14,0.82 4.17,11.11 4.17,-4.19l-12.5 -12.49zm233.28 145.79c3.4,-6.05 2.02,-4.4 4.16,-12.49l-8.33 4.16c-0.11,0.18 -7.47,-4.05 -3.73,11.7 1.9,7.99 2.12,4.9 7.9,9.13l0 -12.5zm-387.41 341.59c-2.91,-12.18 0.54,-6 -8.33,-12.5 2.73,11.42 -1.69,6.49 8.33,12.5zm45.82 24.99l4.17 0 0 -12.49 -4.17 0 0 12.49zm367.83 -424.89l11.25 -11.26c7.53,-10.54 14.35,-16.55 20.83,-26.23 -9.82,0.81 -12.62,2.51 -16.05,1.54 -10.57,-2.98 2.09,2.02 -6.22,-4.14 -25.6,-18.99 16.27,3.61 -6.89,-5.74l-2.01 12.5c-3.15,11.63 -9.01,15.31 -14.01,25.62 -6.5,13.39 -12.73,31.02 -13.14,49.36l26.24 -41.65zm-438.64 349.91c29.32,-0.65 17.7,-10.3 16.66,-12.5 -7.9,-2.79 -8.83,5.34 -9.84,6.29l-4.49 4.26c-0.47,0.43 -1.57,1.29 -2.33,1.95zm433.23 -570.69c-1.36,-16.29 2.52,-12.66 -12.5,-16.67 1.35,16.29 -2.52,12.66 12.5,16.67zm-287.43 62.48c0,-8.47 -0.73,-1.7 4.52,-1.23 12.52,1.12 -0.6,-8.18 1.92,1.23 2.52,9.39 -6.44,4.9 -6.44,0zm-66.66 249.94l-8.33 -4.17c12.14,-5.2 4.83,-7.62 8.33,4.17zm58.32 -62.48c0,20.12 2.23,17.97 8.34,24.99l0 -37.49c-7.03,4.88 -8.34,0.6 -8.34,12.5zm170.8 -120.81l-12.5 0 0 16.66 16.02 -13.2c3.99,13.26 0.59,9.85 13.14,13.2 -2.29,-10.79 -1.08,-12.7 -1.98,-16.62 -2.27,-9.9 -5.1,-5.82 -6.35,-20.87l-12.5 0c2.21,9.5 3.21,9.59 4.17,20.83zm-333.26 -183.29l-4.16 4.17 4.16 -4.17zm0 0l-4.16 4.17 4.16 -4.17zm-4.16 16.66l4.16 -16.66 -4.16 16.66zm245.77 41.66l0 25 -4.16 0c0,-22.14 -12.74,-12.61 4.16,-25zm-120.8 291.6l1.24 1.24c-0.08,-0.08 -1.66,-0.83 -1.24,-1.24zm-4.17 -33.33l-4.79 -8.12 4.79 8.12zm283.27 -137.46c15.54,8.22 19.41,10.44 29.16,24.99 -24.07,-2 -28.53,-2.05 -29.16,-24.99zm-4.17 -87.48c-1.49,-7.89 5.25,-14.82 2.64,-2.64 -0.06,0.28 0.12,17.18 -2.64,2.64zm-441.56 616.51c16.9,12.39 4.17,2.86 4.17,25l-4.17 0 0 -25z"/>
  </g>
  <path id="root" class="fil0 str0" d="M468.72 18.1c62.19,-1.98 27.84,-22.58 97.21,-17.21 47.56,70.28 19.71,81.33 10.44,163.76 -29.03,258.4 55.32,1120.15 75.95,1391.71 -94.11,-54.18 -148.29,-175.78 -274.39,-144.64 -80.13,19.77 -138.01,123.1 -262.59,157.74 19.94,-244.41 120.13,-523.73 162.99,-774.74 24.58,-143.96 26.15,-290.75 50.26,-437.06 39.41,-239.13 127.66,-268.26 140.13,-339.56z"/>
 </g>
</svg>
