<?xml version="1.0" encoding="UTF-8"?>
<!DOCTYPE svg PUBLIC "-//W3C//DTD SVG 1.1//EN" "http://www.w3.org/Graphics/SVG/1.1/DTD/svg11.dtd">
<!-- Creator: CorelDRAW (Versión de evaluación) -->
<svg xmlns="http://www.w3.org/2000/svg" xml:space="preserve" width="739px" height="2458px" version="1.1" style="shape-rendering:geometricPrecision; text-rendering:geometricPrecision; image-rendering:optimizeQuality; fill-rule:evenodd; clip-rule:evenodd"
viewBox="0 0 739 2457.4"
 xmlns:xlink="http://www.w3.org/1999/xlink"
 xmlns:xodm="http://www.corel.com/coreldraw/odm/2003">
 <defs>
  <style type="text/css">
   <![CDATA[
    .str0 {stroke:#D6D2C8;stroke-width:10;stroke-miterlimit:22.9256}
    .fil0 {fill:#F5F1E8}
   ]]>
  </style>
 </defs>
 <g id="tooth-fissure-crown-21">
  <metadata id="CorelCorpID_0Corel-Layer"/>
  <path id="crown" class="fil0 str0" d="M446.26 1515.02c24.06,75.22 174.89,148.54 242.36,176.59 19.76,121.94 93.73,596.63 14.61,689.34 -68.67,80.44 -563.16,94.35 -663.44,56.01 -85.74,-58.86 -18.26,-660.17 64.29,-729.73 27.18,-22.9 69.68,-60.99 97.9,-99.68 -5.49,12.53 -12.95,27.1 -16.14,51.03 48.55,25.99 70.65,-12.36 91.17,99.25 4.66,25.38 8.68,69.18 26.01,83.77 25.53,21.51 38.55,2.25 44.89,54.5 -37.66,43.28 -19.44,17.83 -30.38,73.61 -9.31,47.47 -26.77,19.41 1.58,81.91 28.57,62.99 39.23,60.72 46.83,77.63 14.78,32.86 -1,49.24 -13.56,84.35 11.09,19.43 26.89,26.33 40.46,55.57l9.93 21.48c-8.31,-46.78 -25.57,-47.57 -42.22,-79.15 8.68,-25.67 28.37,-38.43 16.77,-77.45 -6.53,-21.97 -30.53,-52.68 -42.89,-79.2 -27.98,-60.01 -10.12,-37.35 -0.48,-78.82 10.01,-43.05 -4.65,-36.1 35.92,-67.68 -19.76,-137.4 -48.57,-23.11 -68.46,-146.35 -14.26,-88.34 -3.59,-89.24 -72.48,-127.44 3.69,-24.28 14.36,-38.61 14.11,-71.65 -0.06,-7.19 -1.95,-13.75 -4.86,-19.93 31.96,-11.48 34.92,-41.47 90.27,-50.55 48.83,-8 69.89,24.01 117.81,22.59z"/>
  <path id="root" class="fil0 str0" d="M446.26 1515.02c-0.41,-52.24 -202.88,-79.84 -215.56,30.17 -19.62,4.84 -145.34,146.12 -146.88,148.48 -11.41,-72.16 20.13,-387.07 29.57,-476.35 35.52,-335.95 122.91,-523.81 202.77,-813.06 60.54,-219.33 13.69,-366.35 100.4,-404.26 80.88,54.32 154.37,675.96 166.65,802.09l92.94 850.87c-101.21,9.01 -142.84,-133.95 -229.89,-137.94z"/>
 </g>
</svg>
