<?xml version="1.0" encoding="UTF-8"?>
<!DOCTYPE svg PUBLIC "-//W3C//DTD SVG 1.1//EN" "http://www.w3.org/Graphics/SVG/1.1/DTD/svg11.dtd">
<!-- Creator: CorelDRAW (Versión de evaluación) -->
<svg xmlns="http://www.w3.org/2000/svg" xml:space="preserve" width="739px" height="2458px" version="1.1" style="shape-rendering:geometricPrecision; text-rendering:geometricPrecision; image-rendering:optimizeQuality; fill-rule:evenodd; clip-rule:evenodd"
viewBox="0 0 739 2457.4"
 xmlns:xlink="http://www.w3.org/1999/xlink"
 xmlns:xodm="http://www.corel.com/coreldraw/odm/2003">
 <defs>
  <style type="text/css">
   <![CDATA[
    .str0 {stroke:#373435;stroke-width:10;stroke-miterlimit:22.9256}
    .fil0 {fill:#FEFEFE}
   ]]>
  </style>
 </defs>
 <g id="tooth-fissure-crown-42">
  <metadata id="CorelCorpID_0Corel-Layer"/>
  <path id="root" class="fil0 str0" d="M88.71 793.8c4.4,112.08 32.6,296.97 48.58,415.16l57.77 833.93c3.74,93.57 -14.15,346.4 21.4,412.25 114.72,14.34 128.61,-41.27 172.3,-118.95 285.18,-507.25 216.43,-1074.36 304.34,-1531.14 -67.93,32.21 -130.32,94.96 -207.57,126.17 -198.47,80.21 -250.75,-73.41 -396.82,-137.42z"/>
  <path id="crown" class="fil0 str0" d="M518.43 878.56c82.1,-43.32 186.61,-98.81 204.82,-182.02 21.65,-99.04 22.9,-591.64 -12.71,-675.77 -74.96,-42.41 -357.09,-6.71 -465.02,-6.73 -168.39,-0.04 -262.19,45.66 -243.59,192.05 11.82,93.13 21.59,489.75 99.4,553.74 129.07,106.14 232.4,216.19 417.1,118.73zm-60.38 -108.99l8.33 0 0 8.33 -8.33 0 0 -8.33zm62.49 107.88c7.43,-3.92 15.03,-7.94 22.72,-12.07l-1.89 0 0 -12.5 -4.17 0 0 -8.33 -4.17 0 0 -4.17 -8.33 0 0 -4.16 -4.16 0 0 -8.33 -4.17 0 0 -8.33 0 -12.5 -4.16 0 0 -8.33 -4.17 0 0 -4.17 4.17 0 0 -8.33 -4.17 0 0 -12.5 -8.33 0 0 -16.66 -4.17 0 0 -4.17 4.17 0 0 -8.33 4.16 0 0 -12.49 4.17 0 0 -12.5 4.17 0 0 -8.33 4.16 0 0 -4.17 4.17 0 0 -8.33 4.16 0 0 -4.16 4.17 0 0 -8.34 -4.17 0 0 -4.16 4.17 0 0 -4.17 4.16 0 0 -8.33 4.17 0 0 -8.33 4.17 0 0 -4.16 8.33 0 0 -4.17 8.33 0 0 4.17 4.16 0 0 -4.17 4.17 0 0 4.17 12.5 0 0 4.16 8.33 0 0 -4.16 12.49 0 0 4.16 12.5 0 0 -4.16 -4.16 0 0 -4.17 -8.34 0 0 -8.33 -49.98 0 0 -4.17 8.33 0 0 -8.33 -8.33 0 0 -4.17 -4.17 0 0 -4.16 -4.16 0 0 -4.17 -12.5 0 -4.17 0 0 -8.33 -4.16 0 0 -4.16 -4.17 0 0 -8.33 -4.16 0 0 -8.34 -4.17 0 0 -8.33 -4.17 0 0 -8.33 -4.16 0 0 -37.49 -4.17 0 0 -20.83 -4.16 0 0 -16.66 -4.17 0 0 -8.33 12.5 0 0 4.16 8.33 0 0 12.5 4.17 0 0 4.17 4.16 0 0 12.49 4.17 0 0 4.17 4.16 0 0 4.16 4.17 0 0 4.17 4.16 0 0 -8.33 -4.16 0 0 -4.17 -4.17 0 0 -8.33 -4.16 0 0 -8.33 -4.17 0 0 -8.33 -4.16 0 0 -4.17 4.16 0 0 -12.49 -8.33 0 0 -4.17 -4.17 0 0 -8.33 -4.16 0 0 -24.99 8.33 0 0 4.16 4.17 0 0 4.17 4.16 0 0 8.33 -4.16 0 0 4.16 8.33 0 0 -24.99 -4.17 0 0 -4.16 -4.16 0 0 -8.34 4.16 0 4.17 0 0 -4.16 8.33 0 0 -4.17 12.5 0 0 -4.16 4.16 0 0 -12.5 4.17 0 0 -4.17 4.16 0 0 -8.33 -4.16 0 0 4.17 -12.5 0 0 12.5 -8.33 0 0 4.16 -12.5 0 0 -4.16 -4.16 0 0 -8.34 -4.17 0 0 -8.33 -4.17 0 0 -4.16 -4.16 0 0 -4.17 -4.17 0 0 -12.5 -4.16 0 0 -8.33 -4.17 0 0 -12.49 -4.16 0 0 -4.17 4.16 0 0 -12.5 4.17 0 0 -4.16 4.16 0 0 -4.17 4.17 0 0 -4.16 -4.17 0 0 -12.5 -4.16 0 0 -8.33 -4.17 0 0 -8.33 -4.16 0 0 -8.33 -4.17 0 0 -4.17 -4.16 0 0 -4.17 -4.17 0 0 4.17 -4.17 0 0 8.33 8.34 0 0 4.17 4.16 0 0 8.33 -4.16 0 0 4.16 -4.17 0 0 -4.16 -4.17 0 0 -8.33 -12.49 0 0 8.33 4.16 0 0 4.16 4.17 0 0 4.17 4.16 0 0 4.16 4.17 0 0 8.34 -4.17 0 0 4.16 -4.16 0 0 4.17 8.33 0 4.17 0 0 12.5 4.16 0 0 20.82 4.17 0 0 16.67 4.16 0 0 8.33 4.17 0 0 12.49 4.16 0 0 8.34 -4.16 0 0 4.16 -4.17 0 0 8.33 -4.16 0 0 4.17 -4.17 0 0 4.16 -8.33 0 0 -4.16 -4.17 0 0 -4.17 0 -4.16 -4.16 0 0 -4.17 -4.17 0 0 -4.16 -4.16 0 0 -4.17 -4.17 0 0 -4.17 -4.16 0 0 -4.16 -4.17 0 0 -4.17 -4.17 0 0 -4.16 -4.16 0 0 -8.33 -4.17 0 0 -8.34 -4.16 0 0 -16.66 -4.17 0 0 -4.16 4.17 0 0 -33.33 4.16 0 0 -8.33 4.17 0 0 -4.17 8.33 0 0 -4.16 8.33 0 0 -4.17 -12.5 0 0 4.17 -12.49 0 0 -4.17 4.16 0 0 -4.16 8.33 0 0 -4.17 4.17 0 0 -4.16 -8.33 0 0 4.16 -12.5 0 0 -4.16 -4.16 0 0 -12.5 -4.17 0 0 -8.33 -4.17 0 0 -4.17 -4.16 0 0 -4.16 -4.17 0 0 -4.17 -4.16 0 0 -4.17 -4.17 0 0 -4.16 -29.16 0 0 4.16 12.5 0 0 4.17 8.33 0 0 4.17 4.17 0 0 4.16 4.16 0 0 12.5 4.17 0 0 8.33 4.16 0 0 4.17 4.17 0 0 -8.34 4.16 0 0 8.34 4.17 0 0 8.33 -8.33 0 0 8.33 -8.33 0 0 4.16 -4.17 0 0 4.17 -4.16 0 0 4.16 -4.17 0 0 4.17 -4.16 0 -4.17 0 -8.33 0 0 -4.17 -8.33 0 0 -4.16 -16.67 0 0 -8.33 -4.16 0 0 -4.17 -16.66 0 0 -12.49 -8.34 0 0 4.16 -8.33 0 0 -4.16 -8.33 0 0 -4.17 -12.5 0 0 -4.17 -20.82 0 0 4.17 8.33 0 0 4.17 12.49 0 0 4.16 8.34 0 0 4.17 8.33 0 0 4.16 4.16 0 0 4.17 8.33 0 0 4.16 8.34 0 0 4.17 8.33 0 0 4.16 4.16 0 0 4.17 4.17 0 0 4.17 8.33 0 0 4.16 12.5 0 0 4.17 4.16 0 0 20.83 4.17 0 0 20.82 4.16 0 0 4.17 4.17 0 0 -20.83 4.17 0 0 -12.49 4.16 0 0 -8.34 4.17 0 0 -4.16 4.16 0 0 -4.17 8.33 0 0 -4.16 8.33 0 0 8.33 4.17 0 0 33.32 4.17 0 0 25 -4.17 0 0 8.33 -4.17 0 0 4.16 -8.33 0 0 4.17 -4.16 0 0 4.17 -4.17 0 0 4.16 -8.33 0 0 8.33 -4.16 0 0 4.17 12.49 0 0 -4.17 4.17 0 0 -4.16 8.33 0 0 -4.17 8.33 0 0 -4.16 8.33 0 0 -4.17 4.17 0 0 -4.17 8.33 0 0 4.17 4.16 0 0 4.17 4.17 0 0 4.16 4.17 0 0 8.33 4.16 0 0 8.33 4.17 0 0 8.34 4.16 0 0 4.16 4.17 0 0 4.17 4.16 0 0 12.49 4.17 0 0 16.67 -4.17 0 0 12.49 4.17 0 0 8.33 4.17 0 0 16.67 4.16 0 0 12.49 4.17 0 0 20.83 4.16 0 0 16.66 -4.16 0 0 8.34 -4.17 0 0 4.16 -8.33 0 0 4.17 20.83 0 0 4.16 4.16 0 0 12.5 4.17 0 0 12.5 4.16 0 0 8.33 4.17 0 0 4.16 4.17 0 0 4.17 4.16 0 0 4.16 4.17 0 0 4.17 8.33 0 0 8.33 -4.17 0 0 12.5 -4.16 0 0 16.66 -4.17 0 0 4.17 -4.16 0 0 4.16 -4.17 0 0 4.17 -12.5 0 0 4.16 -16.66 0 0 4.17 -16.66 0 0 -4.17 -4.17 0 0 -4.16 -8.33 0 0 -4.17 -45.82 0 0 -4.16 -8.33 0 -4.17 0 0 -4.17 -4.16 0 0 -8.33 -4.17 0 0 12.5 -8.33 0 -16.66 0 0 -4.17 -20.83 0 0 4.17 -4.17 0 -4.16 0 0 -4.17 -4.17 0 -4.16 0 -29.16 0 0 -4.16 -29.16 0 -4.17 0 -8.33 0 0 -4.17 -12.5 0 0 -4.16 -4.16 0 0 -4.17 -8.33 0 0 -4.17 -12.5 0 0 -4.16 -8.33 0 0 -8.33 -4.17 0 0 4.16 -8.33 0 0 4.17 -4.17 0 0 -4.17 -4.16 0 0 -4.16 -4.17 0 0 -8.34 -4.16 0 0 -12.49 -4.17 0 0 -4.17 -4.16 0 0 -4.16 -4.17 0 0 -4.17 -4.16 0 0 -4.16 -4.17 0 0 -4.17 -4.17 0 0 -4.17 -4.16 0 0 -4.16 -8.33 0 0 -4.17 -4.17 0 0 -4.16 -4.16 0 0 -12.5 -8.34 0 0 12.5 -4.16 0 0 4.16 -33.33 0 0 -4.16 -4.16 0 -8.33 0 0 -4.17 -8.33 0 0 -4.16 -4.17 0 0 -4.17 -4.17 0 -4.16 0 0 -4.17 -14.11 0c0.63,4.2 1.27,8.36 1.93,12.5l16.34 0 0 4.17 8.34 0 0 4.16 8.33 0 0 4.17 8.33 0 0 12.5 -4.17 0 0 12.49 -4.16 0 0 8.33 -4.17 0 0 8.33 4.17 0 0 20.83 -4.17 0 0 8.34 -4.16 0 0 8.33 0 4.16 0 4.17 -3.85 0c1.61,5.75 3.28,11.31 5,16.66l3.01 0 0 -8.33 4.17 0 0 -8.33 4.16 0 0 -25 4.17 0 0 -33.32 4.16 0 0 -16.66 4.17 0 0 -4.17 33.32 0 0 -4.17 4.17 0 0 4.17 4.17 0 0 4.17 4.16 0 0 4.16 4.17 0 0 4.17 4.16 0 0 8.33 16.67 0 0 12.49 4.16 0 0 16.67 -4.16 0 0 4.16 8.33 0 0 4.17 4.16 0 0 12.5 -4.16 0 0 4.16 -4.17 0 0 4.17 -4.16 0 0 4.16 8.33 0 0 -4.16 8.33 0 0 -4.17 12.49 0 4.17 0 0 4.17 4.17 0 0 4.16 4.16 0 0 4.17 4.17 0 0 4.16 4.16 0 0 4.17 25 0 0 4.17 -4.17 0 0 4.16 12.5 0 0 4.17 4.16 0 0 4.16 4.17 0 0 4.17 4.16 0 0 -4.17 4.17 0 0 4.17 16.66 0 0 4.16 12.5 0 0 4.17 4.17 0 0 4.17 4.16 0 0 4.16 8.33 0 0 4.17 -4.16 0 0 4.16 4.16 0 0 4.17 8.33 0 0 4.16 12.5 0 0 -4.16 -4.16 0 0 -25 16.66 0 0 16.67 -12.5 0 0 8.33 16.66 0 0 4.16 -8.33 0 0 12.5 12.5 0 0 8.33 4.16 0 0 4.17 4.17 0 0 4.16 12.5 0 0 16.67 8.33 0 4.17 0 0 12.49 -4.17 0 0 12.5 8.33 0 0 -4.17 4.17 0 0 -4.16 -4.17 0 0 -4.17 4.17 0 0 -16.66 8.33 0 8.33 0 0 4.17 -4.17 0 0 4.16 -4.16 0 0 8.33 8.33 0 0 -4.16 8.33 0 0 -4.17 4.17 0 0 8.33 4.16 0 0 8.33 4.17 0 0 4.17 4.16 0 0 12.5 4.17 0 0 4.16 -12.5 0 0 4.17 -4.16 0 0 8.33 4.16 0 0 4.16 16.66 0 0 -4.16 4.17 0 0 -4.17 4.17 0 0 -4.16 8.33 0 0 -4.17 8.33 0 0 -4.16 4.16 0 4.17 0 0 4.16 12.5 0 0 -4.16 4.16 0 0 4.16 8.33 0 0 4.17 4.17 0 0 4.16 4.16 0 0 4.17 4.17 0 0 8.33 12.5 0 0 12.5 4.16 0 0 8.33 -4.16 0 0 3.74zm215.79 -620.26c-0.28,-8.42 -0.59,-16.76 -0.93,-24.99l-2.41 0 0 8.33 -4.17 0 0 16.66 -4.17 0 0 16.66 4.17 0 0 -4.16 4.17 0 0 -12.5 3.34 0zm-3.94 -83.31c-0.36,-5.65 -0.73,-11.21 -1.12,-16.66l-2.45 0 0 -4.17 -4.17 0 0 -4.17 -4.16 0 0 -8.33 -4.17 0 0 -4.16 -4.16 0 0 -8.33 -4.17 0 0 -4.17 -4.16 0 0 -4.16 4.16 0 0 -4.17 12.5 0 0 -4.17 -16.66 0 0 -4.16 -4.17 0 0 -4.17 4.17 0 0 -4.16 4.16 0 0 -4.17 12.5 0 0 -4.16 4.53 0c-0.72,-5.82 -1.46,-11.37 -2.24,-16.67l-6.46 0 0 -12.49 4.17 0 0 4.16 1.01 0c-1.23,-7.62 -2.54,-14.56 -3.92,-20.83l-5.42 0 0 -4.16 -8.33 0 0 -4.17 -8.33 0 0 -4.16 -4.17 0 0 -19.43c-6.3,-1.94 -13.27,-3.63 -20.83,-5.08l0 49.5 -4.17 0 0 16.66 -4.16 0 0 8.33 -4.17 0 0 20.83 -4.16 0 0 16.67 0 8.33 -12.5 0 0 4.16 8.33 0 0 8.33 -4.16 0 0 12.5 4.16 0 0 -4.17 4.17 0 0 -4.16 8.33 0 0 4.16 12.5 0 0 4.17 -4.17 0 0 4.17 -8.33 0 0 4.16 -8.33 0 0 4.17 -8.33 0 0 -4.17 -4.17 0 0 8.33 4.17 0 0 8.33 -4.17 0 0 4.17 -4.16 0 0 4.17 -8.34 0 0 4.16 -4.16 0 0 8.33 -4.17 0 0 4.17 -4.16 0 0 4.16 -8.33 0 0 4.17 -29.16 0 0 4.16 -8.33 0 0 4.17 29.15 0 0 -4.17 16.67 0 0 -4.16 16.66 0 0 4.16 4.17 0 0 8.34 4.16 0 0 16.66 4.17 0 0 8.33 4.16 0 0 4.17 4.17 0 0 -4.17 -4.17 0 0 -12.5 -4.16 0 0 -16.66 -4.17 0 0 -4.17 -4.16 0 0 -4.16 -4.17 0 0 -4.17 -4.17 0 0 -8.33 4.17 0 0 -4.16 8.33 0 0 -4.17 12.5 0 0 -4.16 -4.17 0 0 -8.34 4.17 0 0 -4.16 4.16 0 0 -4.17 8.33 0 0 -4.16 8.34 0 0 -4.17 8.33 0 0 -4.16 4.16 0 0 4.16 8.34 0 0 4.17 12.49 0 0 4.16 12.5 0 8.33 0 0 4.17 3.57 0zm-195.19 -173.68c-5.51,0.09 -11.07,0.2 -16.66,0.34l0 2.55 -4.17 0 0 12.49 -4.16 0 0 4.17 0 4.17 -4.17 0 0 4.16 -12.5 0 0 4.17 -8.33 0 0 4.16 -4.16 0 0 8.33 -4.17 0 0 4.17 -4.16 0 0 4.16 -4.17 0 0 4.17 -4.17 0 0 4.17 -4.16 0 0 4.16 -8.33 0 0 4.17 -4.17 0 0 4.16 -12.5 0 0 4.17 -8.33 0 0 -4.17 -4.16 0 0 4.17 -4.17 0 0 8.33 -4.16 0 0 4.17 -4.17 0 0 4.16 -4.17 0 0 4.17 -4.16 0 0 4.16 -20.83 0 0 -4.16 -8.33 0 0 -4.17 -4.17 0 0 -4.16 -4.16 0 0 -4.17 -4.17 0 0 -8.33 -4.16 0 0 -8.33 -4.17 0 0 -4.17 -4.17 0 0 -4.16 -4.16 0 0 -8.34 -4.17 0 0 -8.33 -4.16 0 0 -4.16 -8.33 0 0 -8.33 -4.17 0 0 -4.17 -4.16 0 0 -8.33 -4.17 0 0 -8.39c-7.18,0.42 -14.13,0.79 -20.83,1.13l0 7.26 4.17 0 0 8.33 4.16 0 0 8.33 4.17 0 0 4.17 4.16 0 0 4.16 4.17 0 0 8.33 4.17 0 0 4.17 4.16 0 0 4.17 -4.16 0 0 4.16 0 4.17 -4.17 0 0 4.16 -4.17 0 0 8.33 -4.16 0 0 4.17 -4.17 0 0 8.33 -4.16 0 0 8.33 -4.17 0 0 4.17 -8.33 0 0 4.16 -4.17 0 0 4.17 -4.16 0 0 4.17 -4.17 0 0 4.16 -4.16 0 0 4.17 -12.5 0 -4.17 0 0 -8.33 4.17 0 0 -8.34 4.17 0 0 -12.49 4.16 0 0 -4.17 4.17 0 0 -24.99 4.16 0 0 -4.17 -4.16 0 0 4.17 -4.17 0 0 4.16 -4.16 0 0 8.33 -4.17 0 0 8.34 -4.17 0 0 20.82 -4.16 0 0 8.34 -4.17 0 0 4.16 -4.16 0 0 4.17 -4.17 0 0 4.16 -4.16 0 0 4.17 -4.17 0 0 4.16 -4.16 0 0 4.17 -4.17 0 0 8.33 -4.17 0 0 8.33 -4.16 0 0 4.17 -4.17 0 0 4.16 -4.16 0 -4.17 0 0 4.17 -4.16 0 0 4.16 -4.17 0 0 4.17 -4.17 0 0 4.17 -4.16 0 0 4.16 -4.17 0 0 -4.16 -12.49 0 0 4.16 12.49 0 0 8.33 -4.16 0 0 4.17 -4.17 0 0 16.66 -37.49 0 0 4.17 -24.99 0 -37.49 0 -16.67 0 0 -4.17 -16.66 0 0 -4.17 -8.33 0 0 -4.16 -8.33 0 0 -4.17 -18.6 0c0.32,2.58 0.64,5.34 0.95,8.33l5.15 0 0 4.17 8.33 0 0 4.17 8.33 0 0 4.16 4.17 0 0 4.17 12.5 0 0 4.16 8.33 0 0 4.17 4.16 0 4.17 0 0 -4.17 4.17 0 0 4.17 8.33 0 0 4.16 45.82 0 0 -4.16 8.33 0 8.33 0 37.49 0 0 20.83 4.17 0 0 8.33 4.16 0 0 12.5 4.17 0 0 8.33 4.16 0 0 4.16 4.17 0 0 8.33 4.17 0 0 8.33 4.16 0 0 12.5 4.17 0 0 16.67 4.16 0 0 4.16 4.17 0 0 4.17 4.16 0 0 -12.5 -4.16 0 0 -8.33 12.5 0 0 -4.17 8.33 0 0 -8.33 -8.33 0 0 4.17 -12.5 0 0 -8.34 -4.17 0 0 -33.32 -4.16 0 0 -8.33 -4.17 0 0 8.33 -8.33 0 0 -8.33 8.33 0 0 -4.17 0 -8.33 -4.16 0 0 -20.83 -4.17 0 0 -16.66 -8.33 0 0 -8.33 4.16 0 0 -4.17 4.17 0 0 -4.16 4.17 0 0 -4.17 4.16 0 0 -4.16 4.17 0 0 -8.33 4.16 0 0 -4.17 8.33 0 0 -4.17 4.17 0 0 -4.16 8.33 0 0 -8.33 4.17 0 0 -8.33 4.16 0 0 -4.17 4.17 0 0 -4.17 8.33 0 0 -4.16 12.5 0 0 -4.17 8.33 0 8.33 0 0 -4.16 4.16 0 0 -4.17 12.5 0 0 -4.16 20.83 0 0 -4.17 4.17 0 12.49 0 0 -8.33 -4.16 0 0 -8.33 -8.33 0 0 4.16 -4.17 0 0 8.34 -8.33 0 0 -8.34 4.16 0 0 -20.82 4.17 0 0 -8.34 4.17 0 0 -8.33 4.16 0 0 -4.16 4.17 0 0 -4.17 4.16 0 0 8.33 4.17 0 0 4.17 4.16 0 0 4.16 4.17 0 0 4.17 4.16 0 0 16.66 4.17 0 0 4.17 -8.33 0 0 4.16 -8.33 0 0 12.5 24.99 0 0 -4.16 4.17 0 0 -4.17 8.33 0 0 4.17 4.17 0 0 4.16 4.16 0 0 4.17 4.17 0 8.33 0 12.49 0 0 -8.33 4.17 0 0 -4.17 4.17 0 0 -8.33 -4.17 0 0 -8.33 4.17 0 0 -4.17 4.16 0 0 -4.16 8.33 0 0 -4.17 20.83 0 0 -4.17 4.17 0 16.66 0 0 4.17 8.33 0 0 -8.33 -4.16 0 0 -4.17 4.16 0 0 -4.16 4.17 0 0 -4.17 8.33 0 0 -4.16 4.16 0 0 -4.17 8.33 0 0 -4.17 4.17 0 0 4.17 4.17 0 0 8.33 4.16 0 0 -4.16 8.33 0 0 -4.17 4.17 0 0 4.17 12.5 0 0 4.16 12.49 0 0 4.17 4.17 0 0 4.16 8.33 0 0 4.17 8.33 0 0 4.16 8.33 0 0 4.17 4.17 0 0 -4.17 -4.17 0 0 -4.16 -4.16 0 0 -4.17 -4.17 0 0 -4.16 -4.16 0 0 -4.17 -8.34 0 0 -4.16 -4.16 0 0 -8.34 -4.17 0 0 -4.16 -4.16 0 0 -8.33 -4.17 0 0 -8.33 -4.16 0 0 -12.5 -4.17 0 0 -4.17 -4.17 0 0 -12.49 4.17 0 0 -2.89zm-414.13 777.7c4.99,4.18 9.96,8.35 14.9,12.5l3.49 0 0 -4.17 -8.33 0 0 -4.17 -4.16 0 0 -4.16 -5.9 0zm284.99 137.01c4.13,-0.46 8.3,-1.05 12.5,-1.73l0 -6.15 -8.33 0 0 -4.16 4.17 0 0 -4.17 4.16 0 0 -4.16 4.17 0 0 -4.17 4.16 0 0 -12.5 -4.16 0 0 -4.16 -8.33 0 0 -8.33 -4.17 0 0 -4.17 -12.5 0 0 4.17 -4.16 0 0 8.33 8.33 0 0 4.16 8.33 0 0 8.34 -4.17 0 0 16.66 -4.16 0 0 4.16 4.16 0 0 7.88zm-24.99 -286.98l4.17 0 0 -4.16 -4.17 0 0 4.16zm262.44 -524.87l4.16 0 0 -4.16 -4.16 0 0 4.16zm-304.1 504.05l4.17 0 0 -4.17 -4.17 0 0 4.17 -4.16 0 0 -12.5 -4.17 0 0 4.17 -4.16 0 0 4.16 -4.17 0 0 4.17 4.17 0 0 4.16 8.33 0 0 4.17 4.16 0 0 -8.33zm99.98 -329.09l4.17 0 0 -4.17 -4.17 0 0 4.17zm37.49 -104.14l4.17 0 0 -4.17 -4.17 0 0 4.17zm-16.66 408.23l4.16 0 0 -4.16 -4.16 0 0 4.16zm-195.79 149.97l4.17 0 0 -4.17 -4.17 0 0 4.17zm341.59 -629.02l4.16 0 0 -8.33 -4.16 0 0 8.33zm-79.15 504.05l4.16 0 0 -8.33 -4.16 0 0 8.33zm-187.46 -37.49l4.17 0 0 -8.34 -4.17 0 0 8.34zm33.33 58.31l4.17 0 0 -8.33 -4.17 0 0 8.33zm208.28 -474.88l8.33 0 0 -4.17 -8.33 0 0 4.17zm-337.42 166.63l8.33 0 0 -4.17 -8.33 0 0 4.17zm283.27 233.27l4.16 0 0 -8.33 -4.16 0 0 8.33zm-158.3 112.48l4.17 0 0 -8.33 -4.17 0 0 8.33zm116.64 -245.78l4.17 0 0 -8.33 8.33 0 0 -4.16 4.16 0 0 12.49 -4.16 0 0 4.17 -4.17 0 0 4.16 -8.33 0 0 -8.33zm-87.48 416.57l8.33 0 0 -4.17 -8.33 0 0 4.17zm79.15 -612.35l4.17 0 0 -8.34 -4.17 0 0 8.34zm79.15 374.91l8.33 0 0 -4.17 -8.33 0 0 4.17zm-154.13 224.94l8.33 0 0 -4.16 -8.33 0 0 4.16zm224.94 -720.66l4.17 0 0 -8.33 -4.17 0 0 8.33zm-245.77 554.04l4.17 0 0 -12.5 -4.17 0 0 12.5zm249.94 -291.6l4.17 0 0 -4.17 4.16 0 0 -4.16 -8.33 0 0 8.33zm-54.15 308.26l4.16 0 0 4.16 4.17 0 0 -8.33 -8.33 0 0 4.17zm0 -41.66l8.33 0 0 -4.17 -4.17 0 0 -4.16 -4.16 0 0 8.33zm-541.54 -337.42l4.17 0 0 4.17 4.16 0 0 -8.33 -8.33 0 0 4.16zm216.61 8.33l8.34 0 0 -4.16 -4.17 0 0 -4.17 -4.17 0 0 8.33zm237.45 -158.29l4.16 0 0 -4.17 4.17 0 0 -8.33 -4.17 0 0 4.17 -4.16 0 0 8.33 -4.17 0 0 4.16 -4.16 0 0 4.17 8.33 0 0 4.17 4.16 0 0 8.33 -4.16 0 0 8.33 4.16 0 0 20.83 8.33 0 0 -20.83 -4.16 0 0 -8.33 4.16 0 0 -8.33 -4.16 0 0 -4.17 -4.17 0 0 -4.17 -4.16 0 0 -4.16zm58.32 437.39l8.33 0 0 -8.33 -8.33 0 0 8.33zm-274.94 158.3l4.17 0 0 4.16 4.16 0 0 -8.33 -4.16 0 0 -4.16 -4.17 0 0 8.33zm54.16 -112.48l4.16 0 0 4.17 4.17 0 0 -8.33 -4.17 0 0 -4.17 -4.16 0 0 8.33zm395.73 -337.41l0 -4.17 4.17 0 0 -8.33 -8.33 0 0 4.17 -4.17 0 0 16.66 4.17 0 0 4.16 4.16 0 0 -12.49zm-262.43 424.89l0 4.17 4.16 0 0 8.33 -4.16 0 0 4.17 -4.17 0 0 4.16 -20.83 0 0 4.17 -8.33 0 0 -4.17 -8.33 0 0 -4.16 -4.16 0 0 -4.17 -4.17 0 0 -4.16 4.17 0 0 -4.17 4.16 0 0 -4.17 4.17 0 0 -4.16 -12.5 0 0 -4.17 -4.17 0 0 -4.16 -4.16 0 0 4.16 -4.17 0 0 4.17 -4.16 0 0 -4.17 -4.17 0 0 -4.16 -4.16 0 0 -4.17 4.16 0 0 -4.16 25 0 0 -4.17 4.16 0 0 4.17 8.33 0 0 4.16 8.33 0 0 8.33 4.17 0 0 -4.16 8.33 0 0 4.16 4.17 0 0 4.17 4.16 0 0 4.16 4.17 0zm-137.47 -141.63l-4.16 0 0 4.17 -8.34 0 0 4.16 16.67 0 0 -8.33 4.16 0 0 -4.16 -4.16 0 0 -4.17 -4.17 0 0 8.33zm133.3 -504.04l8.33 0 0 8.33 -8.33 0 0 -8.33zm-66.65 254.1l-8.33 0 0 -4.16 4.17 0 0 -4.17 4.16 0 0 8.33zm66.65 466.56l-4.16 0 0 -25 16.66 0 0 16.66 -12.5 0 0 8.34zm-133.3 -70.82l8.33 0 0 8.33 -8.33 0 0 -8.33zm129.14 -466.55l-4.17 0 0 24.99 4.17 0 0 8.33 4.16 0 0 -37.49 -4.16 0 0 4.17zm162.46 -124.97l4.16 0 0 12.49 -12.49 0 0 16.67 4.16 0 0 -4.17 4.17 0 0 -4.17 4.16 0 0 -4.16 4.17 0 0 8.33 4.16 0 0 4.17 8.34 0 0 -8.34 -4.17 0 0 -4.16 4.17 0 0 -8.33 -4.17 0 0 -4.17 -4.17 0 0 -12.49 -12.49 0 0 8.33zm-95.81 -108.31l4.16 0 0 -4.17 4.17 0 0 25 -4.17 0 0 -12.5 -4.16 0 0 -8.33zm-112.48 287.43l4.17 0 0 4.16 -4.17 0 0 -4.16zm-4.16 -33.33l-4.17 0 0 -8.33 4.17 0 0 8.33zm283.26 -137.46l4.17 0 0 4.16 8.33 0 0 4.17 4.17 0 0 4.16 4.16 0 0 4.17 4.17 0 0 4.17 4.16 0 0 4.16 -12.49 0 0 -4.16 -12.5 0 0 -4.17 -4.17 0 0 -16.66zm-4.16 -95.81l4.16 0 0 12.49 -4.16 0 0 -12.49zm-283.27 733.15l4.17 0 0 4.17 -4.17 0 0 -4.17zm-49.99 -20.83l12.5 0 0 4.17 8.33 0 0 4.17 -12.49 0 0 -4.17 -8.34 0 0 -4.17zm-8.33 -8.33l4.17 0 0 4.17 -4.17 0 0 -4.17zm45.83 -24.99l4.16 0 0 -4.17 4.17 0 0 25 -4.17 0 0 -12.5 -4.16 0 0 -8.33zm-8.33 20.83l-4.17 0 0 -25 4.17 0 0 4.17 4.16 0 0 8.33 -4.16 0 0 12.5zm-133.31 -49.99l-4.16 0 0 -24.99 4.16 0 0 4.16 4.17 0 0 8.33 -4.17 0 0 12.5z"/>
 </g>
</svg>
