<?xml version="1.0" encoding="UTF-8"?>
<!DOCTYPE svg PUBLIC "-//W3C//DTD SVG 1.1//EN" "http://www.w3.org/Graphics/SVG/1.1/DTD/svg11.dtd">
<!-- Creator: CorelDRAW (Versión de evaluación) -->
<svg xmlns="http://www.w3.org/2000/svg" xml:space="preserve" width="739px" height="2458px" version="1.1" style="shape-rendering:geometricPrecision; text-rendering:geometricPrecision; image-rendering:optimizeQuality; fill-rule:evenodd; clip-rule:evenodd"
viewBox="0 0 739 2457.4"
 xmlns:xlink="http://www.w3.org/1999/xlink"
 xmlns:xodm="http://www.corel.com/coreldraw/odm/2003">
 <defs>
  <style type="text/css">
   <![CDATA[
    .str0 {stroke:#373435;stroke-width:5;stroke-miterlimit:22.9256}
    .fil0 {fill:#FEFEFE}
   ]]>
  </style>
 </defs>
 <g id="tooth-fissure-crown-36">
  <metadata id="CorelCorpID_0Corel-Layer"/>
  <path id="root" class="fil0 str0" d="M664.48 2162.05c-17.66,14.48 -12.79,17.5 -25.98,55.17 -125.55,358.5 -112.07,-175.76 -113.76,-188.69 -13.75,-105.11 -38.36,-177 -58.49,-273.24 -25.92,-123.83 6.58,-224.71 -33.47,-299.89 -129.09,-59.05 -121.05,295.42 -117.17,445.47 2.58,99.98 7.29,212.29 15.41,311.1 7.09,86.08 29.41,179.94 -2.26,245.05 -131.72,15.94 -198.24,-473.79 -217.53,-643.11 -30.21,-265.34 -32.52,-454.94 -21.29,-710.3 3.06,-69.71 14.41,-142.93 3.78,-207.44 51.07,-4.48 64.35,7.52 116.14,-23.19 30.55,-18.12 69.35,-41.19 101.87,-27.5 37.72,15.88 60,57.99 101.8,49.88 24.09,-4.67 72.28,-25.02 113.52,-65.24 29.5,8.61 108.3,7.25 157.89,-33.12 -17.54,109.1 -43.54,194.48 -43.9,316.87 -0.34,123.88 0.1,242.55 8.4,363.11 7.53,109.46 28.47,223.12 31.8,336.03 6.17,208.77 -21.01,287.01 -16.76,349.04z"/>
  <path id="crown" class="fil0 str0" d="M477.09 814.03c-18.97,8.73 -34.09,39.97 -58.59,49.75 -31.18,12.41 -53.68,-16.35 -80.95,-36.05 -69.97,-50.54 -117.75,22.78 -183,39.87 -76.35,19.98 -89.05,-72.66 -115.41,-182.97 -43.55,-182.39 -59.05,-495.92 -5.25,-634.48 52.99,-136.49 140.77,47.94 239.51,57.03 46.85,4.3 119.64,-88.5 215.52,22.45 29.07,33.63 53.37,62.31 11.74,-19.3 150.73,-136.71 230.8,44.28 237.37,304.8 4.22,167.17 -13.78,389.84 -128.74,384.6 -17.98,-0.82 -37.26,-6.63 -56.21,-8.22 -38.72,-3.26 -48.21,9.74 -75.99,22.52zm0 0c-18.97,8.73 -34.09,39.97 -58.59,49.75 -31.18,12.41 -53.68,-16.35 -80.95,-36.05 -69.97,-50.54 -117.75,22.78 -183,39.87 -76.35,19.98 -89.05,-72.66 -115.41,-182.97 -43.55,-182.39 -59.05,-495.92 -5.25,-634.48 52.99,-136.49 140.77,47.94 239.51,57.03 46.85,4.3 119.64,-88.5 215.52,22.45 29.07,33.63 53.37,62.31 11.74,-19.3 150.73,-136.71 230.8,44.28 237.37,304.8 4.22,167.17 -13.78,389.84 -128.74,384.6 -17.98,-0.82 -37.26,-6.63 -56.21,-8.22 -38.72,-3.26 -48.21,9.74 -75.99,22.52zm-334.47 55.83c-3.83,0.44 -7.5,0.57 -10.98,0.37l0.24 -0.3 -3.25 -2.61 2.61 -3.25 -3.25 -2.61 2.61 -3.24 -3.25 -2.61 2.61 -3.25 -6.5 -5.21 2.61 -3.25 -6.5 -5.22 2.61 -3.25 -3.25 -2.6 2.61 -3.25 -3.25 -2.61 2.6 -3.25 -6.49 -5.21 2.6 -3.25 -3.24 -2.61 2.6 -3.25 -12.99 -10.43 -2.61 3.25 -6.5 -5.21 -2.61 3.25 -6.49 -5.22 -2.61 3.25 -6.5 -5.21 -2.6 3.25 -8.43 -6.77c-1.16,-3.82 -2.3,-7.75 -3.41,-11.76l0.81 -1.01 9.74 7.82 2.61 -3.25 6.5 5.22 2.6 -3.25 6.5 5.21 2.61 -3.24 3.25 2.6 2.61 -3.25 6.49 5.22 2.61 -3.25 3.25 2.61 10.43 -13 3.25 2.61 2.6 -3.25 -3.24 -2.61 10.42 -12.99 -3.24 -2.61 7.82 -9.75 -3.25 -2.6 5.21 -6.5 -3.25 -2.61 7.83 -9.75 6.49 5.22 2.61 -3.25 3.25 2.61 20.86 -25.99 3.25 2.6 10.43 -12.99 3.24 2.61 5.22 -6.5 -3.25 -2.61 15.64 -19.49 3.25 2.61 18.25 -22.75 3.25 2.61 2.61 -3.25 -3.25 -2.6 5.22 -6.5 -3.25 -2.61 2.6 -3.25 -9.74 -7.82 2.6 -3.25 -3.25 -2.61 -2.6 3.25 -6.5 -5.21 2.61 -3.25 3.25 2.61 5.21 -6.5 -3.25 -2.61 2.61 -3.25 -3.25 -2.61 2.61 -3.24 -3.25 -2.61 2.61 -3.25 -6.5 -5.21 2.61 -3.25 -6.5 -5.22 2.61 -3.25 -3.25 -2.6 2.6 -3.25 6.5 5.21 -2.6 3.25 9.74 7.82 -2.61 3.25 6.5 5.22 -2.61 3.25 3.25 2.6 -2.6 3.25 6.49 5.22 -2.6 3.24 6.49 5.22 -2.6 3.25 6.5 5.21 -2.61 3.25 6.49 5.22 -2.6 3.24 3.25 2.61 -2.61 3.25 6.5 5.21 2.6 -3.24 3.25 2.6 2.61 -3.24 3.25 2.6 2.61 -3.25 3.24 2.61 2.61 -3.25 3.25 2.61 5.22 -6.5 3.24 2.61 5.22 -6.5 3.25 2.61 5.21 -6.5 3.25 2.61 2.61 -3.25 3.25 2.61 2.6 -3.25 6.5 5.21 2.61 -3.25 3.25 2.61 5.21 -6.5 3.25 2.61 5.22 -6.5 -3.25 -2.6 5.21 -6.5 3.25 2.6 2.61 -3.24 -3.25 -2.61 2.61 -3.25 -3.25 -2.61 5.21 -6.49 -3.25 -2.61 2.61 -3.25 -3.25 -2.61 2.61 -3.25 -3.25 -2.61 5.21 -6.49 -3.24 -2.61 5.21 -6.5 -3.25 -2.61 2.61 -3.24 2.61 -3.25 -3.25 -2.61 7.82 -9.75 -6.5 -5.21 2.61 -3.25 -9.75 -7.82 5.22 -6.5 -3.25 -2.61 7.82 -9.74 -3.25 -2.61 2.61 -3.25 -3.25 -2.61 5.21 -6.49 -3.25 -2.61 2.61 -3.25 -9.74 -7.82 2.6 -3.25 -3.25 -2.61 2.61 -3.25 -6.5 -5.21 2.61 -3.25 6.5 5.21 -2.61 3.25 6.5 5.22 -2.61 3.25 16.25 13.03 2.6 -3.25 3.25 2.61 2.61 -3.25 3.25 2.61 2.61 -3.25 3.25 2.61 2.6 -3.25 3.25 2.61 5.22 -6.5 3.24 2.61 2.61 -3.25 -3.25 -2.61 5.22 -6.5 -3.25 -2.6 5.21 -6.5 -3.25 -2.61 2.61 -3.25 -3.25 -2.61 5.22 -6.49 -3.25 -2.61 2.6 -3.25 -3.24 -2.61 10.43 -12.99 -6.5 -5.22 2.61 -3.25 -16.25 -13.03 -2.61 3.25 -12.99 -10.43 -2.61 3.25 -16.24 -13.04 2.6 -3.25 3.25 2.61 2.61 -3.25 3.25 2.61 2.61 -3.25 6.49 5.21 -2.6 3.25 3.25 2.61 2.6 -3.25 6.5 5.22 2.61 -3.25 3.25 2.6 7.82 -9.74 3.25 2.6 -5.22 6.5 3.25 2.61 -2.61 3.25 16.25 13.04 2.61 -3.25 3.24 2.6 2.61 -3.25 3.25 2.61 2.61 -3.25 -3.25 -2.61 5.21 -6.49 -3.25 -2.61 7.83 -9.75 -3.25 -2.6 13.03 -16.25 -3.25 -2.6 7.83 -9.75 -3.25 -2.61 5.21 -6.5 -3.25 -2.6 5.22 -6.5 -3.25 -2.61 2.61 -3.25 -3.25 -2.6 31.28 -38.99 -3.24 -2.61 10.42 -12.99 -3.24 -2.61 5.21 -6.5 -3.25 -2.6 13.04 -16.25 -3.25 -2.61 10.43 -12.99 5.21 -6.5 -9.74 -7.82 2.6 -3.25 6.5 5.21 5.22 -6.49 -3.25 -2.61 7.82 -9.75 3.25 2.61 -2.61 3.25 3.25 2.61 -2.61 3.25 6.5 5.21 2.61 -3.25 9.74 7.82 2.61 -3.25 -3.25 -2.6 2.61 -3.25 -6.5 -5.22 2.61 -3.24 -6.5 -5.22 2.61 -3.25 -6.5 -5.21 -2.61 3.25 -3.24 -2.61 5.21 -6.5 3.25 2.61 5.21 -6.5 -3.25 -2.61 2.61 -3.25 -3.25 -2.6 2.61 -3.25 -6.5 -5.22 2.61 -3.25 -3.25 -2.6 5.21 -6.5 -3.24 -2.61 2.6 -3.25 -3.25 -2.6 2.61 -3.25 -6.49 -5.22 2.6 -3.25 -22.74 -18.25 2.61 -3.25 -6.5 -5.21 2.61 -3.25 22.74 18.25 -2.61 3.25 13 10.43 -2.61 3.25 12.99 10.43 2.61 -3.25 3.25 2.61 5.22 -6.5 3.24 2.61 10.43 -13 3.25 2.61 5.22 -6.5 3.25 2.61 2.6 -3.25 3.25 2.61 -2.61 3.24 -3.24 -2.6 -7.83 9.74 -3.25 -2.6 -10.42 12.99 -3.25 -2.61 -2.61 3.25 -3.25 -2.6 -2.61 3.24 -3.25 -2.6 -2.6 3.25 -3.25 -2.61 -5.22 6.5 3.25 2.6 -2.6 3.25 6.49 5.22 -2.6 3.25 9.74 7.82 -2.6 3.25 -3.25 -2.61 -5.22 6.5 3.25 2.61 -2.61 3.24 3.25 2.61 -2.61 3.25 6.5 5.21 -2.61 3.25 6.5 5.22 -2.6 3.25 6.49 5.21 -2.6 3.25 3.24 2.61 2.61 -3.25 6.5 5.21 2.61 -3.25 9.74 7.83 2.61 -3.25 9.75 7.82 6.5 5.21 2.6 -3.25 3.25 2.61 2.61 -3.25 3.25 2.61 2.6 -3.25 6.5 5.22 -5.21 6.49 -3.25 -2.6 -2.61 3.24 -3.25 -2.6 -2.6 3.25 -3.25 -2.61 -5.22 6.5 -3.25 -2.61 -2.6 3.25 -3.25 -2.61 -2.61 3.25 -3.25 -2.61 -5.21 6.5 -3.25 -2.61 -2.61 3.25 -3.25 -2.61 -5.21 6.5 -3.25 -2.6 -2.61 3.24 -3.25 -2.6 -2.61 3.25 3.25 2.6 -2.6 3.25 9.74 7.82 -2.6 3.25 -13 -10.43 -2.61 3.25 -3.25 -2.6 -2.6 3.24 3.25 2.61 -2.61 3.25 3.25 2.61 -2.61 3.25 9.75 7.82 -2.61 3.25 9.75 7.82 -2.61 3.25 3.25 2.61 -2.61 3.24 -9.75 -7.82 -5.21 6.5 -6.5 -5.22 -7.82 9.75 3.25 2.61 2.61 -3.25 9.74 7.82 2.61 -3.25 22.74 18.25 -2.61 3.25 6.5 5.22 2.61 -3.25 3.25 2.61 2.6 -3.25 3.25 2.6 2.61 -3.25 6.5 5.22 5.21 -6.5 3.25 2.61 5.22 -6.5 3.25 2.61 13.03 -16.25 6.5 5.22 -7.82 9.75 -3.25 -2.61 -7.82 9.74 -3.25 -2.6 -2.61 3.25 -3.25 -2.61 -5.21 6.5 -3.25 -2.61 -5.22 6.5 -3.25 -2.61 -7.82 9.75 3.25 2.6 -2.61 3.25 3.25 2.61 -5.21 6.5 -3.25 -2.61 2.61 -3.25 -3.25 -2.61 5.21 -6.49 -9.74 -7.83 -2.61 3.25 -3.25 -2.6 2.61 -3.25 -6.5 -5.22 2.61 -3.25 -16.25 -13.03 -2.6 3.25 -6.5 -5.22 -2.61 3.25 -3.25 -2.61 -2.61 3.25 -3.24 -2.6 -2.61 3.24 -6.5 -5.21 -2.61 3.25 -6.49 -5.22 -2.61 3.25 -6.5 -5.21 -2.61 3.25 -3.24 -2.61 -26.08 32.49 3.25 2.6 -5.21 6.5 3.25 2.61 -2.61 3.25 3.25 2.61 -13.04 16.24 3.25 2.61 -7.82 9.74 3.25 2.61 -5.22 6.5 9.75 7.82 2.61 -3.25 3.25 2.61 2.6 -3.25 13 10.43 2.6 -3.25 3.25 2.61 2.61 -3.25 3.25 2.61 -5.21 6.49 -3.25 -2.6 -2.61 3.25 -9.75 -7.83 -2.6 3.25 -6.5 -5.21 -2.61 3.25 -6.5 -5.22 -2.6 3.25 -3.25 -2.61 -5.22 6.5 -3.25 -2.61 -2.6 3.25 -3.25 -2.61 -7.82 9.75 3.24 2.61 -5.21 6.5 3.25 2.6 -7.82 9.75 3.25 2.61 -5.22 6.5 3.25 2.6 -2.61 3.25 3.25 2.61 -2.61 3.25 -5.21 6.49 3.25 2.61 -10.43 13 -3.25 -2.61 -2.61 3.25 -6.49 -5.22 -5.22 6.5 -3.25 -2.6 -2.6 3.24 -6.5 -5.21 -2.61 3.25 3.25 2.6 -10.43 13 3.25 2.61 -7.82 9.74 9.74 7.83 -2.6 3.24 6.49 5.22 -2.6 3.25 -2.61 3.25 3.25 2.6 -10.43 13 3.25 2.61 -5.22 6.49 3.25 2.61 -5.21 6.5 3.25 2.61 -2.61 3.25 3.25 2.6 -2.61 3.25 3.25 2.61 -2.61 3.25 6.5 5.21 2.61 -3.25 3.25 2.61 5.21 -6.5 6.5 5.22 -5.22 6.5 -3.25 -2.61 -5.21 6.5 -3.25 -2.61 -5.21 6.5 -3.25 -2.61 -18.25 22.74 -3.25 -2.61 -2.61 3.25 -6.5 -5.21 -2.6 3.25 -3.25 -2.61 -5.22 6.5 -3.24 -2.61 -2.61 3.25 -3.25 -2.61 -2.61 3.25 -3.25 -2.61 -2.61 3.25 -3.24 -2.6 -5.22 6.49 -3.25 -2.61 -5.21 6.5 -3.25 -2.6 -2.61 3.24 -6.5 -5.21 -2.6 3.25 -3.25 -2.61 -10.43 13 -3.25 -2.61 -33.89 42.23 -3.25 -2.6 -10.43 12.99 -3.25 -2.6 -7.82 9.74 -3.25 -2.61 -7.82 9.75 3.25 2.61 -5.22 6.5 -3.25 -2.61 -2.6 3.25 -3.25 -2.61 -5.22 6.5 -3.25 -2.61 -2.6 3.25 -3.25 -2.61 -5.22 6.5 3.25 2.61 -7.82 9.74 3.25 2.61 -5.22 6.5 3.25 2.61 -20.85 25.99 9.74 7.82 -2.61 3.25 3.25 2.6 -2.6 3.25 3.24 2.61 3.25 2.61 -2.6 3.25 3.24 2.6 -2.6 3.25 3.25 2.61 -2.61 3.25 6.5 5.21 -2.61 3.25 9.75 7.82 -2.61 3.25 -3.25 -2.61 -2.61 3.25 3.25 2.61 -2.61 3.25 3.25 2.61 -3.58 4.46zm-85.17 -107.74c-0.37,-1.45 -0.74,-2.91 -1.11,-4.38l0.9 -1.12 6.5 5.21 -2.61 3.25 -3.68 -2.96zm152.27 -681.36c8.36,5.62 16.84,10.7 25.44,14.89l-1.25 1.56 -3.25 -2.61 -5.21 6.5 -3.25 -2.61 -2.61 3.25 -6.5 -5.21 -5.21 6.5 -3.25 -2.61 -2.61 3.25 -3.25 -2.61 -5.21 6.5 -3.25 -2.61 -7.82 9.75 -3.25 -2.61 -2.61 3.25 -3.25 -2.61 -2.6 3.25 -6.5 -5.21 -2.61 3.25 -3.25 -2.61 -2.61 3.25 -3.24 -2.61 -2.61 3.25 -7.82 9.74 -2.61 3.25 3.25 2.61 -2.61 3.25 3.25 2.61 -7.82 9.74 3.25 2.61 -7.83 9.75 -6.49 -5.22 2.6 -3.25 -3.24 -2.6 -2.61 3.25 -13 -10.43 2.61 -3.25 -6.5 -5.22 2.61 -3.25 -6.5 -5.21 2.61 -3.25 -6.5 -5.21 2.61 -3.25 -25.99 -20.86 2.61 -3.25 3.24 2.61 2.61 -3.25 29.24 23.46 2.61 -3.24 9.75 7.82 2.6 -3.25 9.75 7.82 5.21 -6.5 10.43 -12.99 3.25 2.6 2.61 -3.24 3.25 2.6 5.21 -6.49 3.25 2.6 5.22 -6.5 3.24 2.61 5.22 -6.5 3.25 2.61 5.21 -6.5 3.25 2.61 2.61 -3.25 3.25 2.61 2.6 -3.25 3.25 2.61 3.77 -4.7zm99.29 17.97c5.56,-2.3 11.34,-4.87 17.35,-7.44l1.89 1.51 -5.22 6.5 -3.24 -2.61 -5.22 6.5 3.25 2.61 -2.61 3.25 3.25 2.6 -2.61 3.25 6.5 5.22 -2.61 3.25 16.25 13.03 -2.61 3.25 3.25 2.61 13 10.43 2.6 -3.25 6.5 5.21 -5.21 6.5 -3.25 -2.61 -2.61 3.25 3.25 2.61 -2.61 3.25 3.25 2.61 -2.61 3.24 6.5 5.22 -2.61 3.25 3.25 2.61 -2.6 3.25 6.49 5.21 -2.61 3.25 3.25 2.61 2.61 -3.25 3.25 2.6 5.21 -6.49 3.25 2.6 -2.6 3.25 6.49 5.22 -2.6 3.25 3.24 2.6 2.61 -3.25 9.75 7.83 2.61 -3.25 9.74 7.82 2.61 -3.25 3.25 2.61 2.61 -3.25 6.49 5.21 2.61 -3.25 6.5 5.22 2.61 -3.25 6.49 5.21 2.61 -3.24 3.25 2.6 -2.61 3.25 -3.25 -2.61 -2.6 3.25 -3.25 -2.6 -2.61 3.24 -3.25 -2.6 -2.61 3.25 -3.24 -2.61 -2.61 3.25 -6.5 -5.22 -2.61 3.25 -3.25 -2.61 -5.21 6.5 -3.25 -2.6 -2.61 3.24 -3.25 -2.6 -5.21 6.49 -3.25 -2.6 -5.21 6.5 -3.25 -2.61 -7.82 9.74 -3.25 -2.6 -2.61 3.25 -3.25 -2.61 -7.82 9.74 3.25 2.61 -2.61 3.25 3.25 2.61 -2.61 3.25 -3.25 -2.61 -2.6 3.25 -9.75 -7.82 -2.61 3.25 -3.25 -2.61 -5.21 6.5 -3.25 -2.61 7.82 -9.75 3.25 2.61 7.82 -9.75 -3.25 -2.6 7.82 -9.75 -3.24 -2.61 2.6 -3.25 2.61 -3.25 -3.25 -2.6 2.61 -3.25 -9.75 -7.82 2.61 -3.25 -6.5 -5.22 2.61 -3.25 -3.25 -2.6 5.22 -6.5 -3.25 -2.61 2.6 -3.25 -3.24 -2.6 2.6 -3.25 -3.25 -2.61 2.61 -3.25 -3.25 -2.61 2.61 -3.24 -3.25 -2.61 2.61 -3.25 -6.5 -5.22 2.61 -3.24 -3.25 -2.61 2.61 -3.25 -9.75 -7.82 2.61 -3.25 -6.5 -5.22 -2.61 3.25 -3.25 -2.6 2.61 -3.25 -3.25 -2.61 5.22 -6.5 -3.25 -2.6 2.6 -3.25 -3.24 -2.61 2.6 -3.25 -3.25 -2.61 2.61 -3.25 -2.31 -1.85zm126.4 -13c2.47,1.21 4.96,2.55 7.46,4.01l-9.89 12.33 -3.25 -2.61 -5.22 6.5 3.25 2.61 -5.21 6.5 -3.25 -2.61 -2.61 3.25 -3.25 -2.61 -2.61 3.25 -3.24 -2.61 -2.61 3.25 3.25 2.61 -2.61 3.25 3.25 2.61 -5.22 6.49 -3.24 -2.6 2.6 -3.25 -3.25 -2.61 5.22 -6.5 -3.25 -2.61 2.61 -3.24 -3.25 -2.61 2.61 -3.25 6.49 5.21 2.61 -3.24 3.25 2.6 5.21 -6.49 -3.24 -2.61 5.21 -6.5 3.25 2.61 8.93 -11.13zm302.78 336.06c0.11,5.36 0.2,10.78 0.27,16.24l-11.93 -9.57 -2.61 3.25 -32.49 -26.08 2.61 -3.25 -3.25 -2.6 2.61 -3.25 -3.25 -2.61 5.22 -6.5 -3.25 -2.6 2.6 -3.25 -9.74 -7.82 -2.61 3.25 -2.61 3.24 -3.25 -2.6 -15.64 19.49 -3.25 -2.61 -2.61 3.25 -2.6 3.25 -6.5 -5.21 -2.61 3.24 -3.25 -2.6 -2.6 3.25 -6.5 -5.22 -2.61 3.25 -6.5 -5.21 -2.6 3.24 -3.25 -2.6 -2.61 3.25 -6.5 -5.22 -2.61 3.25 -3.24 -2.61 -2.61 3.25 -3.25 -2.6 -2.61 3.24 -3.25 -2.6 -2.6 3.24 -3.25 -2.6 -2.61 3.25 -3.25 -2.61 5.22 -6.5 3.25 2.61 2.6 -3.25 3.25 2.61 2.61 -3.25 3.25 2.61 2.61 -3.25 3.24 2.6 2.61 -3.25 3.25 2.61 2.61 -3.25 3.25 2.61 2.6 -3.25 6.5 5.22 2.61 -3.25 3.25 2.6 2.6 -3.24 6.5 5.21 2.61 -3.25 3.25 2.61 2.61 -3.25 3.24 2.61 2.61 -3.25 3.25 2.61 15.64 -19.5 3.25 2.61 10.43 -12.99 -3.25 -2.61 2.61 -3.25 -3.25 -2.61 2.61 -3.25 -3.25 -2.6 5.22 -6.5 -3.25 -2.61 2.6 -3.25 -3.25 -2.61 2.61 -3.24 -6.5 -5.22 2.61 -3.25 -3.25 -2.6 2.61 -3.25 -6.5 -5.22 2.61 -3.25 -3.25 -2.6 2.61 -3.25 -6.5 -5.22 2.61 -3.25 -3.25 -2.6 2.61 -3.25 16.24 13.03 -2.61 3.25 6.5 5.22 -2.61 3.25 9.75 7.82 -2.61 3.25 3.25 2.6 -2.61 3.25 3.25 2.61 -2.61 3.25 3.25 2.61 -2.6 3.25 6.49 5.21 -2.6 3.25 3.25 2.61 -5.22 6.49 3.25 2.61 -2.61 3.25 3.25 2.61 -5.21 6.49 3.25 2.61 -2.61 3.25 3.25 2.61 -2.61 3.25 3.25 2.6 -5.22 6.5 6.5 5.22 -2.61 3.24 29.24 23.47 2.61 -3.25 3.84 3.08zm-451.75 208.97l3.24 2.6 -2.6 3.25 -3.25 -2.6 2.61 -3.25zm219.52 -187.03l3.25 2.61 -2.6 3.25 -3.25 -2.61 2.6 -3.25zm-6.85 -197.78l3.25 2.61 -2.61 3.24 -3.24 -2.6 2.6 -3.25zm-279.06 400.97l3.25 2.61 -2.61 3.25 -3.24 -2.61 2.6 -3.25zm154.19 0.89l3.24 2.6 -2.6 3.25 -3.25 -2.6 2.61 -3.25zm39.24 -561.38l3.25 2.61 -2.61 3.24 -3.25 -2.6 2.61 -3.25zm7.85 396.21l3.25 2.6 -2.61 3.25 -3.25 -2.61 2.61 -3.24zm48.54 -260.16l3.25 2.61 -5.21 6.5 -3.25 -2.61 5.21 -6.5zm11.8 -54.63l6.49 5.22 -2.6 3.25 -6.5 -5.22 2.61 -3.25zm90.24 120.5l6.5 5.21 -2.61 3.25 -6.5 -5.21 2.61 -3.25zm-85.79 -52.83l3.25 2.61 -5.22 6.5 -3.25 -2.61 5.22 -6.5zm30.55 441.13l3.24 2.61 -2.6 3.25 3.25 2.61 -2.61 3.24 -6.5 -5.21 5.22 -6.5zm151.55 -401.81l-3.25 -2.61 2.6 -3.25 6.5 5.21 -5.21 6.5 -3.25 -2.61 2.61 -3.24zm-177.86 161.71l3.25 2.61 2.61 -3.25 3.25 2.61 -5.22 6.5 -6.5 -5.22 2.61 -3.25zm19.49 15.64l9.75 7.83 -2.61 3.25 -9.74 -7.83 2.6 -3.25zm168.32 -302.9l-2.61 3.25 3.25 2.61 -5.22 6.49 -6.49 -5.21 2.6 -3.25 -3.24 -2.61 10.42 -12.99 3.25 2.61 2.61 -3.25 3.25 2.6 -7.82 9.75zm-234.22 431.62l3.25 2.6 2.6 -3.24 9.75 7.82 -2.61 3.25 -6.49 -5.22 -2.61 3.25 -6.5 -5.22 2.61 -3.24zm76.29 -115.04l16.25 13.04 -2.61 3.25 -16.25 -13.04 2.61 -3.25zm140.92 -255.45l3.25 2.6 -2.61 3.25 3.25 2.61 -2.61 3.25 3.25 2.61 -2.61 3.25 3.25 2.6 -5.21 6.5 3.25 2.61 -2.61 3.25 3.25 2.6 -2.61 3.25 3.25 2.61 -2.61 3.25 3.25 2.61 -2.61 3.24 -9.74 -7.82 2.6 -3.24 -6.49 -5.22 -7.83 9.75 -6.49 -5.22 2.6 -3.25 -3.24 -2.6 2.6 -3.25 3.25 2.6 5.22 -6.49 -3.25 -2.61 2.6 -3.25 -3.24 -2.61 5.21 -6.49 -3.25 -2.61 2.61 -3.25 -3.25 -2.61 7.82 -9.74 -3.25 -2.61 5.22 -6.5 -3.25 -2.61 10.43 -12.99 -3.25 -2.61 10.43 -12.99 3.25 2.6 -2.61 3.25 3.25 2.61 -7.82 9.75 3.25 2.6 -5.22 6.5 3.25 2.61 -2.61 3.25 3.25 2.6 -2.61 3.25 3.25 2.61 -5.21 6.5zm-338.22 374.85l-3.25 -2.6 5.21 -6.5 -3.25 -2.61 5.22 -6.5 3.25 2.61 -2.61 3.25 3.25 2.61 -5.21 6.5 3.24 2.6 -10.43 13 -3.24 -2.61 7.82 -9.75zm184.43 -209.85l3.25 2.61 2.61 -3.25 6.49 5.22 -7.82 9.74 -3.25 -2.6 -2.61 3.25 -6.49 -5.22 7.82 -9.75zm-114.12 175.48l3.25 2.61 2.61 -3.25 3.25 2.61 2.6 -3.25 3.25 2.61 2.61 -3.25 3.25 2.61 -5.22 6.49 -3.25 -2.6 -7.82 9.74 -9.74 -7.82 5.21 -6.5zm-61.19 -396.29l6.49 5.22 5.22 -6.5 -6.5 -5.21 -5.21 6.49zm-78.75 444.22l-3.25 -2.61 2.6 -3.25 3.25 2.61 5.22 -6.5 9.74 7.82 -5.21 6.5 3.25 2.61 -2.61 3.25 -3.25 -2.61 -2.61 3.25 -9.74 -7.82 2.61 -3.25zm26.71 -26.63l3.25 2.6 5.21 -6.49 6.5 5.21 -10.43 13 -3.25 -2.61 -5.21 6.5 -3.25 -2.61 -2.61 3.25 -3.25 -2.61 13.04 -16.24zm211.99 -363.99l3.25 2.6 7.82 -9.74 -9.74 -7.82 10.43 -13 3.25 2.61 -2.61 3.24 3.25 2.61 -2.61 3.25 3.25 2.61 -2.61 3.25 3.25 2.6 5.22 -6.49 3.24 2.6 2.61 -3.25 6.5 5.22 -5.22 6.5 -3.24 -2.61 -2.61 3.25 3.25 2.61 -5.22 6.49 -3.25 -2.6 -2.6 3.25 -3.25 -2.61 -7.82 9.74 -9.75 -7.82 5.21 -6.49zm-364.19 -78.63l2.6 -3.25 -3.24 -2.61 -2.61 3.25 3.25 2.61zm0.64 5.85l2.61 -3.25 -3.25 -2.6 -2.61 3.25 3.25 2.6zm0 0l-2.61 3.25 3.25 2.61 2.61 -3.25 -3.25 -2.61zm221.04 97.28l3.25 2.61 -2.61 3.24 3.25 2.61 15.65 -19.49 -3.25 -2.61 -7.82 9.75 -3.25 -2.61 -5.22 6.5zm202.96 13.32l3.25 2.61 2.6 -3.25 6.5 5.21 2.61 -3.24 3.25 2.6 2.6 -3.25 3.25 2.61 2.61 -3.25 3.25 2.61 2.61 -3.25 3.25 2.61 2.6 -3.25 -9.74 -7.82 -2.61 3.25 -9.75 -7.83 -2.6 3.25 -3.25 -2.6 -10.43 12.99zm-63.22 72.12l3.25 2.6 7.82 -9.74 -3.25 -2.61 -7.82 9.75z"/>
 </g>
</svg>
