<?xml version="1.0" encoding="UTF-8"?>
<!DOCTYPE svg PUBLIC "-//W3C//DTD SVG 1.1//EN" "http://www.w3.org/Graphics/SVG/1.1/DTD/svg11.dtd">
<!-- Creator: CorelDRAW (Versión de evaluación) -->
<svg xmlns="http://www.w3.org/2000/svg" xml:space="preserve" width="739px" height="2458px" version="1.1" style="shape-rendering:geometricPrecision; text-rendering:geometricPrecision; image-rendering:optimizeQuality; fill-rule:evenodd; clip-rule:evenodd"
viewBox="0 0 739 2457.4"
 xmlns:xlink="http://www.w3.org/1999/xlink"
 xmlns:xodm="http://www.corel.com/coreldraw/odm/2003">
 <defs>
  <style type="text/css">
   <![CDATA[
    .str0 {stroke:#4B4B4D;stroke-width:10;stroke-miterlimit:22.9256}
    .fil0 {fill:#FEFEFE}
   ]]>
  </style>
 </defs>
 <g id="tooth-fissure-crown-25">
  <metadata id="CorelCorpID_0Corel-Layer"/>
  <path id="crown" class="fil0 str0" d="M631.04 1667.25c69.82,146.14 173.37,487.41 50.53,624.84 -28.42,31.8 -203.52,141.64 -245.49,158.42 -92.47,36.99 -454.48,-74.52 -435.78,-346.31 2.31,-33.66 58.82,-317.07 69.76,-334.59 12.37,-19.8 85.22,-34.18 126.55,-77.35 77.35,-80.81 158.51,-120.4 275.04,-61.61 87.65,44.2 65.95,24.35 159.39,36.6zm54.02 138.09c0.53,1.66 1.06,3.32 1.59,4.98 -12.29,-0.33 -3.3,3.52 -11.78,-8.04 7.61,1.77 1,-1.17 9.67,2.82l0.52 0.24zm53.16 313.53c-0.3,8.13 -0.78,16.16 -1.47,24.06 -14.63,18.69 -36.04,38.42 -70.21,38.42 7.23,-9.87 19.16,-15.39 30.92,-23.23 18.92,-12.6 10.85,-15.67 27.4,-26.76l0 -16.66c-0.61,-0.8 -1.41,-1.9 -1.64,-2.53l-2.53 -22.46 -4.16 -4.17c-9.7,-6.49 -23.09,-14.11 -32.27,-21.88 -9.9,-8.38 -18.31,-14.7 -21.89,-28.11 11.8,7.9 14,13.62 27.41,22.59 12.93,8.66 18.71,8.1 26.75,19.07l8.33 4.16c6.68,13.94 1.64,19.4 8.33,33.33l0 4.17 5.03 0zm-357.39 338.31c-1.33,-0.06 -2.66,-0.12 -4.02,-0.19 0.84,-4.09 3.01,-8.57 -14.36,-13.2 0,4.49 -0.07,8.48 -0.03,12.03 -10.16,-1.06 -20.85,-2.66 -31.95,-4.8 -1.58,-3.81 -4.74,-8.4 -10.92,-15.56l-2.93 -8.34c-0.64,-0.74 -1.57,-1.75 -1.92,-2.24 -0.36,-0.49 -1.43,-1.69 -1.86,-2.31 -8.87,-12.92 -3.87,-12.99 -21.21,-24.61 -11.16,7.48 -36.17,23.85 -49.99,25 14.52,-27.44 30.3,-19.09 36.24,-38.94 3.07,-10.23 -3.83,-53.77 -7.08,-61.06 -9.75,-2.44 0.09,-3.99 -16.66,0.02 -2.48,3.7 -3.23,5.3 -6.72,9.95 -4.31,5.74 -3.4,3.98 -5.78,6.72 -1.33,16.05 -4.16,13.43 -4.16,33.32 -13.6,-9.96 -5.6,1.46 -9.46,-19.7 -8.58,-47.01 1.54,-16.26 -35.58,-43.57l-67.44 -36.71c35.76,0 30.62,14.79 58.32,8.34 2.98,27.19 -8.79,-0.15 21.22,20.43 0.72,0.5 1.53,1.43 2.28,1.89 3.16,1.94 26.75,10.09 30.66,11l4.16 0c11.63,-7.79 19.61,-20.03 33.33,-24.99l-8.33 -16.67 0 8.34c-19.11,-14 -6.78,-37.49 -41.66,-37.49l29.16 -4.17c20.06,29.95 2.24,-10.28 29.16,45.82 11.25,-0.93 11.33,-1.95 20.83,-4.16 -9.73,13.27 -6.94,3.39 -16.53,17.29l24.86 -4.8c-12.4,10.78 -20.91,7.87 -24.39,26.39 -11.75,62.54 19.85,68.98 36.88,94.42l4.17 4.16 0 4.17c5.64,0 4.56,-1.31 2.92,4.16 14.2,-3.3 6.34,-0.58 17.91,-8.33l4.17 -8.33c7.04,-15.24 -3.66,-23.87 -8.48,-41.51 -5.32,-19.43 -1.58,-28.31 -13.6,-41.8l-7.76 -0.57 7.76 -7.76c-2.56,-21.31 -9.45,-6.81 -15.42,-29.16 24.51,2.68 1.28,-1.83 20.83,12.49 12.88,-27.85 -16.34,-2.82 -4.16,-29.16 18.34,12.29 19.56,30 29.16,49.99 -37.05,24.81 17.96,85.38 20.82,87.48 30.47,-7.1 -2.54,-3.62 33.33,-20.83 -4.41,16.53 0.76,-0.52 -6.3,14.53 -3.02,6.45 -3.59,9.19 -6.2,14.63l-13.74 0c-1.62,5.26 6.76,4.17 -5.84,4.17l-6.66 4.16 -4.16 8.34 7.13 21.72zm-294.02 -131.82c-2.31,-2.32 -4.6,-4.66 -6.85,-7.04 6.62,-0.83 8.03,-1.84 15.88,-3.67l0 8.33c-4.3,1.01 -6.68,1.76 -9.03,2.38zm-13.41 -14.17c-14.38,-16.09 -27.21,-33.54 -37.98,-52.34 -1.41,-6.59 -2.06,-13.28 -2.06,-19.18l-7.98 0c-3.29,-6.93 -6.28,-14.04 -9,-21.31 4.99,0.07 10.44,0.48 16.98,0.48 0.59,-26.4 2.84,-8.58 8.33,-29.16l-12.5 0 0 -4.16c21.26,0 6.91,-0.06 12.5,4.16l12.5 -9.57 11.25 -11.26c21.85,-12.26 12.53,-26.25 39.98,-41.65 2.11,-6.13 -4.38,-0.82 5.84,-8.33 8.2,-21.82 4.91,-37.42 22.08,-49.99l0.69 -4.86 3.47 4.86 -4.16 0c0,23.04 1.6,15.26 -8.76,37.07 -13.19,27.8 -10.16,16.32 -2.5,21.25l11.26 0c4.26,-6.38 6.88,-10.1 13.56,-15.6 9.56,-7.86 6.86,-2.13 13.98,-11.01 9.54,-11.87 8.45,-21.46 22.44,-31.71l0 -4.17 4.17 -8.33c-8.7,-6.38 -19.84,-22.8 -25.06,-33.26 -17.14,-34.36 -16.08,-18.29 -16.6,-41.72l0 -8.33c-16.33,-1.36 -20.18,-6.7 -33.56,-8.1 -22.69,-2.38 -22.04,6.52 -33.09,-8.57 31.55,0 26.11,1.84 48.52,-9.83 23.35,-12.16 15.57,-1.87 38.96,-6.83 -1.52,18.23 -4.83,21.88 -12.5,33.33l0 12.49c15.3,22.85 13.59,0.91 26.69,31.64l45.68 66.79c10.38,15.82 30.47,28.41 49.61,6.86 32.2,-36.23 -3.64,-0.8 40.48,-21.97l8.33 -4.17c6.72,-10.02 11.2,-12.18 19.07,-22.59 9.05,-11.97 7.47,-13.29 26.76,-14.9l4.16 -8.33c11.27,-23.47 6.18,-17.48 4.17,-41.66l5.63 6.86c0.86,0.78 3.56,3.09 4.59,3.75 2.2,1.4 11.74,4.6 14.77,6.06 -6.63,9.91 -5.04,4.33 -8.33,16.66 11.7,17.47 8.46,21.28 21.51,40.98 11.53,17.41 16.92,12.58 28.48,29.83l4.86 0.7 -4.86 3.47 0 -4.17c-32.61,-7.59 -39.23,-33.37 -70.82,-16.66 -3.15,-11.81 0.88,-6.1 -8.33,-12.5 -0.74,0.65 -1.73,1.6 -2.19,1.98 -0.46,0.38 -1.63,1.49 -2.21,1.95 -0.82,0.65 -3.75,2.89 -4.75,3.6 -4.18,2.96 -7.69,4.51 -10.43,6.53 -10.42,7.67 -8.38,6.88 -5.62,19.9l-8.12 -4.8 -16.67 0c-13.19,6.33 -27.71,2.35 -36.89,13.42l-8.93 32.41 -12.5 0 -8.33 0 -16.66 -12.5c-14.69,9.84 -9.05,8.33 -33.32,8.33l0.16 -11.99 16.5 -4.67c-9.37,-19.53 4.32,-8.04 -17.4,-32.59 -0.54,-0.62 -1.39,-1.73 -1.88,-2.29l-3.8 -4.53c-0.27,-1.32 -1.27,-1.5 -1.92,-2.25l-8.33 8.33 -12.49 45.83c11.92,-4.32 6.83,-8.76 20.82,-12.5l0 8.33 4.17 8.33 -12.5 0c-12.06,5.79 -13.02,2.42 -26.75,6.58 -17.23,5.21 -7.15,5.79 -23.23,10.08l-8.34 -1.24c-12.17,10.85 -15.05,5.63 -24.04,14.69 -8.53,8.61 -1.86,3.89 -7.91,12.92l-47.19 44.45c9.54,26.35 5.11,-1.23 16.66,55.4l0 2.92c-10.18,2.7 -5.63,-1.85 -8.33,8.33 10.82,-2.87 4.64,1.55 8.33,-8.33 4.93,2.99 5.54,-5.77 2.92,8.33 8.77,5.64 3.08,8.32 7.96,34.03zm451.89 -656.08c4.22,1.49 8.01,2.65 11.58,3.54 -1.17,0.66 -2.35,1.34 -3.57,2.06 -15.74,9.26 -15.73,11.51 -37.55,16.6 8.33,-11.38 24.06,-14.13 29.54,-22.2zm67.59 8.25c3.37,0.23 6.98,0.51 10.86,0.86l0.31 0.59c15.98,10.7 7.88,12.58 25,23.75l4.34 17.83c3.75,28.93 7.25,15.79 12.32,37.57 -10.89,-3.95 -8.31,-6.38 -16.66,-12.5 -17.69,11.85 -17.23,16.7 -24.06,34.2l-6.34 11.62 1.24 4.17c-3.89,3.37 3.39,1.67 -9.85,6.81 -6.81,2.65 -4.35,0.97 -10.98,1.52 -0.92,11.08 -4.53,25.39 -8.33,33.32 13.79,3.69 4.7,-0.39 15.04,9.95 13.16,13.17 11.49,7.22 5.79,31.71l-8.33 8.33c-3.74,16.06 -9.21,23.36 -12.5,37.49 32.29,48.22 37.88,11.93 45.82,41.66 -13.17,-8.82 -4.74,-3.55 -19.79,-9.37l-11.37 -5.29c-6.98,-2.61 -2.81,-1.36 -10.5,-2 -2.15,9.23 -4.29,12.84 -6.64,22.51 -13.9,57.35 -14.18,7.4 -14.18,73.3l41.48 25.25c10.88,5.89 13.11,5.4 26.6,1.06 18.86,-6.07 0.28,-3.26 23.56,-1.32 3.16,-11.81 -0.87,-6.1 8.33,-12.5 -2.84,11.89 0.63,6.27 -8.33,12.5l0 12.5 4.17 8.33 4.16 8.33c9.83,7.2 11.17,13.14 12.5,29.16l-8.33 0c0,-16.45 -1.31,-16.9 -4.17,-29.16l-4.16 -8.33c-11.89,-2.85 -6.27,0.63 -12.5,-8.33 -13.29,-6.15 -28.98,5.74 -58.32,-8.33 1.94,17.73 3.43,18.92 20.83,20.82 -13.59,18.55 -21.89,1.7 -37.49,25 10.02,4.81 5.42,4.16 20.83,4.16l0 4.17c-9.75,0 -10.78,1.25 -16.67,4.17l29.16 45.82c5.64,0 4.56,-1.31 2.93,4.16 10.13,6.18 6.46,-0.48 9.31,13.26l-9.31 -4.93c-9.58,-7.94 -3.33,-5.1 -15.42,-8.33 -16.18,-1.34 -26.15,-6.49 -37.49,-12.49 -6.4,5.56 3.77,-1.15 -6.97,5.53l-5.48 2.85c-18.69,9.79 -23.79,9.65 -16.71,24.94 -14.15,1.18 -15.25,3.18 -25,8.33 2.15,8.09 0.77,6.45 4.17,12.5l4.16 4.16 8.33 4.17c0.41,18.31 2.82,12.98 4.17,29.16l4.86 0.7 -4.86 3.47 0 -4.17c-2.68,-3.08 -2.72,-1.37 -5.52,-6.97 -4.1,-8.2 -1.07,-2.38 -3.03,-9.48 -1.98,-7.19 -2.21,-9.44 -3.95,-16.88l-4.16 -4.16c-24.7,0.55 -30.66,8.33 -62.49,8.33 13.48,-11.71 12.28,-6.47 28.91,-8.58 10.81,-1.38 15.72,-4.06 21.92,-11.41 26.05,-30.87 25.52,-14.6 19.99,-38.33 12.53,5.8 25.47,-1.78 33.32,-12.5 -22.99,-1.91 -11.16,-7.88 -29.16,4.17 1.55,-18.54 6.64,-14.75 -4.16,-24.99l12.5 0 0 -8.33c0.64,-28.91 8.27,-37.1 13.5,-57.31 4.79,-18.49 -0.58,-43.42 7.97,-58.69 5.36,-9.57 8.66,-12.7 12.57,-24.92 2.71,-8.45 2.83,-16.85 5.93,-27.42 5.92,-20.17 20.8,-30.82 -14.98,-31.62l-12.5 12.5c-2.97,-35.76 -14.71,-1.36 -33.32,-29.16 34.96,0 30.59,12.57 66.65,4.17 0.36,-16.4 4.97,-21.66 15.05,-34.94 7.71,-10.17 -0.01,-0.07 5.78,-6.72 2.53,-11.95 4.64,-11.5 -3.02,-21.67 -5.56,-7.39 -10.93,-11.21 -17.81,-15.82 -12.69,0.28 -15.19,1.88 -25,4.16l-8.95 2.3 8.95 -2.3c13.42,-18.3 8.28,2.14 22.82,-18.83 6.87,-9.91 7.71,-14.95 10.51,-26.99 11.25,-0.93 11.33,-1.95 20.83,-4.16 1.31,-15.35 -1.51,-6.01 4.16,-15.42 15.77,-35.07 16.55,-24.71 24.4,-39.42 7.75,-14.54 1.59,-26.56 -3.57,-38.05l-7.97 1.02 -4.53 -8.11c-6.46,-7.43 -8.69,-12.91 -11.17,-18.11zm-242.93 755.43l4.17 -8.33c8.08,-2.14 6.44,-0.76 12.49,-4.16 -1.41,16.98 -2.14,16.95 -16.66,20.82l0 -8.33zm-8.33 -245.77l1.24 -1.24c-0.08,0.08 -1.66,0.82 -1.24,1.24zm295.76 -220.78l1.24 -1.24c-0.08,0.08 -1.65,0.83 -1.24,1.24zm-54.15 -283.27l1.24 -1.24c-0.08,0.08 -1.66,0.83 -1.24,1.24zm-279.1 608.19l1.24 -1.24c-0.08,0.08 -1.66,0.83 -1.24,1.24zm204.11 -174.96l1.25 -1.24c-0.08,0.08 -1.66,0.83 -1.25,1.24zm87.48 -233.27l1.25 -1.25c-0.09,0.09 -1.66,0.83 -1.25,1.25zm-99.97 495.71l9.16 -7.5c-21.4,4.62 -2.96,-0.07 -9.16,7.5zm132.47 -411.57c-2.04,-11.66 2.37,-5.48 -7.5,-9.16l7.5 9.16zm24.99 235.78c11.66,-2.04 5.48,2.38 9.16,-7.5l-9.16 7.5zm-182.46 -90.81c0,10.06 6.72,1.43 2.66,0 -0.05,-0.02 -2.66,-11.94 -2.66,0zm20.83 0c0,10.06 6.72,1.43 2.66,0 -0.05,-0.02 -2.66,-11.94 -2.66,0zm-149.96 120.8c0,10.06 6.72,1.43 2.66,0 -0.05,-0.02 -2.66,-11.94 -2.66,0zm-216.62 83.31l-7.49 -9.16c2.39,12.99 -7.4,7.56 7.49,9.16zm320.76 -149.96c4.14,4.14 15.1,-5.72 4.97,-2.31 -0.11,0.04 -11.97,-4.69 -4.97,2.31zm-337.42 166.63c4.14,4.14 15.1,-5.72 4.97,-2.31 -0.11,0.03 -11.97,-4.69 -4.97,2.31zm483.22 -204.12c4.14,4.14 15.1,-5.72 4.97,-2.31 -0.11,0.04 -11.97,-4.69 -4.97,2.31zm-237.44 29.16c8.96,-6.23 5.48,-0.61 8.33,-12.5 -9.21,6.4 -5.18,0.68 -8.33,12.5l-9.17 7.5c11.47,3.67 7.12,-2.7 13.33,9.18 -5.35,15.82 0,11.11 0,33.31l8.33 0c0,-15.57 -2.08,-20.07 -4.16,-33.31 5.13,0.82 4.16,11.12 4.16,-4.18l-12.49 -12.5zm233.27 145.8c3.4,-6.05 2.02,-4.41 4.17,-12.5l-8.33 4.17c-0.07,0.1 -7.59,-4.22 -3.79,11.71 1.89,7.95 2.26,4.95 7.95,9.11l0 -12.49zm58.32 -341.59l12.5 0 0 -4.16 -12.5 0 0 4.16zm-32.08 283.27l11.25 -11.26c7.54,-10.54 14.35,-16.55 20.83,-26.23 -11.25,0.93 -11.33,1.95 -20.83,4.16 -1.86,-21.79 3.98,-7.53 -8.33,-12.49 -8.7,21.06 6.07,-3.31 -3.25,17.49 -5.01,11.18 -25.04,30.83 -25.91,69.98 14.9,-10.91 3.62,-4.57 12.5,-20.81 6.45,-11.82 7.22,-5.09 13.74,-20.84zm48.74 -287.43l20.83 0 0 -4.17 -20.83 0 0 4.17zm-87.48 -199.95c10.53,-7.72 12.5,-10.7 12.5,-29.16l-4.16 0c0,15.13 -4.95,14.61 -8.34,29.16zm33.33 266.6c-1.35,-16.28 2.52,-12.65 -12.5,-16.66 1.36,16.28 -2.52,12.65 12.5,16.66zm24.99 -199.95c-2.21,-9.5 -3.23,-9.58 -4.16,-20.83l-12.5 0c3.66,13.69 6.04,13.72 16.66,20.83zm-312.42 266.6l0 -8.33 8.33 0 0 8.33 -8.33 0zm224.95 -358.25l8.33 0c-0.42,-18.74 -1.49,-21.09 -12.5,-29.16 0,16.45 1.31,16.91 4.17,29.16zm-291.6 604.02l-8.33 -4.16 8.11 -4.52 0.22 8.68zm58.32 -62.48c0,19.99 1.95,17.65 8.33,24.99l0 -37.49c-7.02,4.88 -8.33,0.6 -8.33,12.5zm220.78 -587.36c3.15,5.61 2.27,4.6 4.16,12.5l12.5 0c2.93,-11.03 -0.33,-3.43 4.17,-12.5 -8.99,-7.51 -19.22,-1.96 -20.83,0zm-49.99 466.55l-12.5 0 0 16.67 16.02 -13.21c4,13.26 0.59,9.86 13.14,13.21l-8.33 -37.49 -12.5 0c2.22,9.49 3.21,9.58 4.17,20.82zm-337.42 -179.12l0 4.17 -4.86 -3.48 4.86 -0.69zm4.17 -4.17l-4.17 4.17 4.17 -4.17zm0 0l0 -4.16 4.86 3.47 -4.86 0.69zm241.61 58.32l0 25 -4.17 0c0,-22.14 -12.74,-12.61 4.17,-25zm-120.81 291.6l1.24 1.24c-0.08,-0.08 -1.65,-0.83 -1.24,-1.24zm-4.16 -33.33l-4.8 -8.12 4.8 8.12zm283.26 -137.46c15.54,8.22 19.42,10.44 29.16,24.99 -12.77,-1.06 -20.02,-3.95 -29.16,-8.33l0 -16.66zm-4.16 -95.81l4.16 0 0 12.49 -4.16 0 0 -12.49z"/>
  <path id="root" class="fil0 str0" d="M114.65 873.24c25.21,-11.92 15.26,-3.04 30.9,-44.68 7.23,-19.27 12.81,-35.25 20.94,-54.61 135.66,-323.34 112.71,-218.76 191.06,-578.18 13.43,-61.66 41.33,-192.66 104.44,-195.76 78.88,93.16 38.64,712.28 43.29,852.02 10.81,325.1 117.58,729.35 116.41,787.76 -96.09,-0.27 -69.73,3.42 -146.22,-36.34 -49.64,-25.81 -111.07,-34.65 -169.6,-18.26 -120.45,33.73 -67.8,86.01 -237.68,149.75 -11.8,-226.51 -2.64,-447.59 15.02,-669.2 5.11,-64.22 40.88,-131.94 31.44,-192.5z"/>
 </g>
</svg>
