<?xml version="1.0" encoding="UTF-8"?>
<!DOCTYPE svg PUBLIC "-//W3C//DTD SVG 1.1//EN" "http://www.w3.org/Graphics/SVG/1.1/DTD/svg11.dtd">
<!-- Creator: CorelDRAW (Versión OEM) -->
<svg xmlns="http://www.w3.org/2000/svg" xml:space="preserve" width="44.1866mm" height="173.699mm" version="1.1" style="shape-rendering:geometricPrecision; text-rendering:geometricPrecision; image-rendering:optimizeQuality; fill-rule:evenodd; clip-rule:evenodd"
viewBox="0 0 4418.66 17369.86"
 xmlns:xlink="http://www.w3.org/1999/xlink"
 xmlns:xodm="http://www.corel.com/coreldraw/odm/2003">
 <defs>
  <style type="text/css">
   <![CDATA[
    .fil2 {fill:#020202}
    .fil0 {fill:#EDEAE0}
    .fil1 {fill:#F2E6C9}
   ]]>
  </style>
 </defs>
 <g id="fissure-crown">
  <metadata id="CorelCorpID_0Corel-Layer"/>
  <polygon id="crown" class="fil0" points="2071.76,248.09 1980.34,248.09 1980.34,278.54 1919.36,278.54 1919.36,309.02 1858.43,309.02 1858.43,339.51 1797.49,339.51 1797.49,369.96 1767.01,369.96 1767.01,400.44 1706.07,400.44 1706.07,430.93 1645.1,430.93 1645.1,461.38 1614.65,461.38 1614.65,491.86 1584.17,491.86 1584.17,522.35 1523.23,522.35 1523.23,552.8 1492.75,552.8 1492.75,583.28 1462.26,583.28 1462.26,613.77 1401.33,613.77 1401.33,644.22 1370.84,644.22 1370.84,674.7 1340.39,674.7 1340.39,705.19 1279.42,705.19 1279.42,735.64 1248.97,735.64 1248.97,766.12 1218.49,766.12 1218.49,796.61 1157.55,796.61 1157.55,827.06 1096.58,827.06 1096.58,857.54 1066.13,857.54 1066.13,888.03 1005.16,888.03 1005.16,918.48 974.71,918.48 974.71,948.97 913.74,948.97 913.74,979.45 852.8,979.45 852.8,1009.9 791.87,1009.9 791.87,1040.39 730.9,1040.39 730.9,1070.87 700.45,1070.87 700.45,1101.32 669.96,1101.32 669.96,1131.81 609.03,1131.81 609.03,1162.29 578.54,1162.29 578.54,1192.74 548.06,1192.74 548.06,1223.23 517.61,1223.23 517.61,1253.71 487.12,1253.71 487.12,1284.16 456.64,1284.16 456.64,1314.65 426.19,1314.65 426.19,1345.1 395.7,1345.1 395.7,1406.07 365.22,1406.07 365.22,1436.52 334.77,1436.52 334.77,1497.49 304.28,1497.49 304.28,1558.42 273.8,1558.42 273.8,1619.36 243.35,1619.36 243.35,1741.26 212.86,1741.26 212.86,1863.17 182.38,1863.17 182.38,2533.56 212.86,2533.56 212.86,2655.47 243.35,2655.47 243.35,2838.31 273.8,2838.31 273.8,2960.22 304.28,2960.22 304.28,3112.57 334.77,3112.57 334.77,3234.48 365.22,3234.48 365.22,3295.41 395.7,3295.41 395.7,3417.32 426.19,3417.32 426.19,3539.19 456.64,3539.19 456.64,3630.61 487.12,3630.61 487.12,3722.03 517.61,3722.03 517.61,3813.45 548.06,3813.45 548.06,3935.36 578.54,3935.36 578.54,4026.78 609.03,4026.78 609.03,4118.2 639.48,4118.2 639.48,4240.1 669.96,4240.1 669.96,4301.04 700.45,4301.04 700.45,4392.46 730.9,4392.46 730.9,4453.39 761.38,4453.39 761.38,4544.81 791.87,4544.81 791.87,4636.23 822.32,4636.23 822.32,4727.65 852.8,4727.65 852.8,4788.62 883.29,4788.62 883.29,4849.56 913.74,4849.56 913.74,4910.49 944.22,4910.49 944.22,4971.47 974.71,4971.47 974.71,5032.4 1005.16,5032.4 1005.16,5093.34 1035.65,5093.34 1035.65,5154.31 1066.13,5154.31 1066.13,5184.76 1096.58,5184.76 1096.58,5245.73 1127.07,5245.73 1127.07,5276.18 1157.55,5276.18 1157.55,5337.15 1188,5337.15 1188,5367.6 1218.49,5367.6 1218.49,5428.57 1248.97,5428.57 1248.97,5459.02 1279.42,5459.02 1279.42,5489.5 1309.91,5489.5 1309.91,5519.99 1340.39,5519.99 1340.39,5550.44 1370.84,5550.44 1370.84,5580.92 1401.33,5580.92 1401.33,5611.41 1431.81,5611.41 1431.81,5641.86 1492.75,5641.86 1492.75,5672.34 1523.23,5672.34 1523.23,5702.83 1553.68,5702.83 1553.68,5733.28 1614.65,5733.28 1614.65,5763.76 1675.59,5763.76 1675.59,5794.25 1736.52,5794.25 1736.52,5824.7 1827.94,5824.7 1827.94,5855.18 1949.85,5855.18 1949.85,5885.67 2406.95,5885.67 2406.95,5855.18 2528.86,5855.18 2528.86,5824.7 2589.79,5824.7 2589.79,5794.25 2650.73,5794.25 2650.73,5763.76 2711.7,5763.76 2711.7,5733.28 2742.15,5733.28 2742.15,5702.83 2803.12,5702.83 2803.12,5672.34 2833.57,5672.34 2833.57,5641.86 2864.05,5641.86 2864.05,5611.41 2894.54,5611.41 2894.54,5580.92 2924.99,5580.92 2924.99,5550.44 2955.48,5550.44 2955.48,5519.99 2985.96,5519.99 2985.96,5489.5 3016.41,5489.5 3016.41,5459.02 3046.9,5459.02 3046.9,5398.08 3077.38,5398.08 3077.38,5367.6 3107.83,5367.6 3107.83,5337.15 3138.32,5337.15 3138.32,5276.18 3168.8,5276.18 3168.8,5245.73 3199.25,5245.73 3199.25,5184.76 3229.74,5184.76 3229.74,5154.31 3260.22,5154.31 3260.22,5093.34 3290.67,5093.34 3290.67,5062.89 3321.16,5062.89 3321.16,5001.92 3351.64,5001.92 3351.64,4940.98 3382.09,4940.98 3382.09,4880.05 3412.58,4880.05 3412.58,4819.07 3443.06,4819.07 3443.06,4758.14 3473.51,4758.14 3473.51,4697.2 3504,4697.2 3504,4666.72 3534.48,4666.72 3534.48,4605.78 3564.93,4605.78 3564.93,4544.81 3595.42,4544.81 3595.42,4453.39 3625.9,4453.39 3625.9,4392.46 3656.35,4392.46 3656.35,4331.52 3686.84,4331.52 3686.84,4270.55 3717.32,4270.55 3717.32,4148.68 3747.77,4148.68 3747.77,4057.26 3778.26,4057.26 3778.26,3996.29 3808.74,3996.29 3808.74,3935.36 3839.19,3935.36 3839.19,3843.93 3869.68,3843.93 3869.68,3752.51 3900.17,3752.51 3900.17,3661.09 3930.61,3661.09 3930.61,3569.67 3961.1,3569.67 3961.1,3508.74 3991.59,3508.74 3991.59,3356.35 4022.04,3356.35 4022.04,3234.48 4052.52,3234.48 4052.52,3173.51 4083.01,3173.51 4083.01,3021.15 4113.46,3021.15 4113.46,2868.8 4143.94,2868.8 4143.94,2777.37 4174.43,2777.37 4174.43,2624.98 4204.88,2624.98 4204.88,1832.68 4174.43,1832.68 4174.43,1741.26 4143.94,1741.26 4143.94,1680.33 4113.46,1680.33 4113.46,1558.42 4083.01,1558.42 4083.01,1497.49 4052.52,1497.49 4052.52,1467 4022.04,1467 4022.04,1406.07 3991.59,1406.07 3991.59,1375.58 3961.1,1375.58 3961.1,1314.65 3930.61,1314.65 3930.61,1284.16 3900.17,1284.16 3900.17,1253.71 3869.68,1253.71 3869.68,1223.23 3839.19,1223.23 3839.19,1192.74 3808.74,1192.74 3808.74,1162.29 3778.26,1162.29 3778.26,1131.81 3747.77,1131.81 3747.77,1101.32 3686.84,1101.32 3686.84,1070.87 3656.35,1070.87 3656.35,1040.39 3595.42,1040.39 3595.42,1009.9 3564.93,1009.9 3564.93,979.45 3504,979.45 3504,948.97 3473.51,948.97 3473.51,918.48 3412.58,918.48 3412.58,888.03 3382.09,888.03 3382.09,857.54 3321.16,857.54 3321.16,827.06 3260.22,827.06 3260.22,796.61 3229.74,796.61 3229.74,766.12 3168.8,766.12 3168.8,735.64 3138.32,735.64 3138.32,705.19 3077.38,705.19 3077.38,674.7 3046.9,674.7 3046.9,644.22 3016.41,644.22 3016.41,613.77 2955.48,613.77 2955.48,583.28 2924.99,583.28 2924.99,552.8 2894.54,552.8 2894.54,522.35 2833.57,522.35 2833.57,491.86 2803.12,491.86 2803.12,461.38 2772.63,461.38 2772.63,430.93 2711.7,430.93 2711.7,400.44 2681.21,400.44 2681.21,369.96 2620.28,369.96 2620.28,339.51 2559.31,339.51 2559.31,309.02 2528.86,309.02 2528.86,278.54 2437.44,278.54 2437.44,248.09 2376.47,248.09 2376.47,217.6 2071.76,217.6 "/>
  <polygon id="root" class="fil1" points="3625.9,4849.56 3595.42,4849.56 3595.42,4910.49 3564.93,4910.49 3564.93,4971.47 3534.48,4971.47 3534.48,5032.4 3504,5032.4 3504,5062.89 3473.51,5062.89 3473.51,5123.82 3443.06,5123.82 3443.06,5184.76 3412.58,5184.76 3412.58,5215.24 3382.09,5215.24 3382.09,5276.18 3351.64,5276.18 3351.64,5337.15 3321.16,5337.15 3321.16,5367.6 3290.67,5367.6 3290.67,5398.08 3260.22,5398.08 3260.22,5459.02 3229.74,5459.02 3229.74,5489.5 3199.25,5489.5 3199.25,5519.99 3168.8,5519.99 3168.8,5580.92 3138.32,5580.92 3138.32,5611.41 3107.83,5611.41 3107.83,5641.86 3077.38,5641.86 3077.38,5672.34 3046.9,5672.34 3046.9,5702.83 3016.41,5702.83 3016.41,5733.28 2985.96,5733.28 2985.96,5763.76 2955.48,5763.76 2955.48,5794.25 2924.99,5794.25 2924.99,5824.7 2894.54,5824.7 2894.54,5855.18 2833.57,5855.18 2833.57,5885.67 2803.12,5885.67 2803.12,5916.12 2742.15,5916.12 2742.15,5946.61 2681.21,5946.61 2681.21,5977.09 2620.28,5977.09 2620.28,6007.54 2559.31,6007.54 2559.31,6038.03 2437.44,6038.03 2437.44,6068.51 1919.36,6068.51 1919.36,6038.03 1827.94,6038.03 1827.94,6007.54 1767.01,6007.54 1767.01,5977.09 1675.59,5977.09 1675.59,5946.61 1584.17,5946.61 1584.17,5916.12 1523.23,5916.12 1523.23,5885.67 1492.75,5885.67 1492.75,5855.18 1431.81,5855.18 1431.81,5824.7 1401.33,5824.7 1401.33,5794.25 1370.84,5794.25 1370.84,5763.76 1309.91,5763.76 1309.91,5733.28 1279.42,5733.28 1279.42,5702.83 1248.97,5702.83 1248.97,5672.34 1218.49,5672.34 1218.49,5641.86 1188,5641.86 1188,5611.41 1157.55,5611.41 1157.55,5580.92 1127.07,5580.92 1127.07,5519.99 1096.58,5519.99 1096.58,5489.5 1066.13,5489.5 1066.13,5459.02 1035.65,5459.02 1035.65,5398.08 1005.16,5398.08 1005.16,5367.6 974.71,5367.6 974.71,5306.66 944.22,5306.66 944.22,5276.18 913.74,5276.18 913.74,5245.73 883.29,5245.73 883.29,5702.83 913.74,5702.83 913.74,6068.51 944.22,6068.51 944.22,6677.97 974.71,6677.97 974.71,7256.98 1005.16,7256.98 1005.16,7653.11 1035.65,7653.11 1035.65,8049.28 1066.13,8049.28 1066.13,8384.47 1096.58,8384.47 1096.58,8628.28 1127.07,8628.28 1127.07,8933 1157.55,8933 1157.55,9237.74 1188,9237.74 1188,9420.58 1218.49,9420.58 1218.49,9603.42 1248.97,9603.42 1248.97,9816.71 1279.42,9816.71 1279.42,10030.04 1309.91,10030.04 1309.91,10334.79 1340.39,10334.79 1340.39,10517.63 1370.84,10517.63 1370.84,10822.34 1401.33,10822.34 1401.33,11157.57 1431.81,11157.57 1431.81,13839.21 1462.26,13839.21 1462.26,13991.61 1492.75,13991.61 1492.75,14113.48 1523.23,14113.48 1523.23,14235.38 1553.68,14235.38 1553.68,14296.32 1584.17,14296.32 1584.17,14357.29 1614.65,14357.29 1614.65,14387.74 1645.1,14387.74 1645.1,14418.22 1675.59,14418.22 1675.59,14448.71 1706.07,14448.71 1706.07,14479.16 1888.91,14479.16 1888.91,14448.71 1949.85,14448.71 1949.85,14418.22 1980.34,14418.22 1980.34,14387.74 2010.78,14387.74 2010.78,14357.29 2041.27,14357.29 2041.27,14326.8 2071.76,14326.8 2071.76,14296.32 2102.21,14296.32 2102.21,14235.38 2132.69,14235.38 2132.69,14204.9 2163.18,14204.9 2163.18,14143.96 2193.63,14143.96 2193.63,14083.03 2224.11,14083.03 2224.11,14022.06 2254.6,14022.06 2254.6,13961.12 2285.05,13961.12 2285.05,13900.19 2315.53,13900.19 2315.53,13839.21 2346.02,13839.21 2346.02,13747.79 2376.47,13747.79 2376.47,13686.86 2406.95,13686.86 2406.95,13595.44 2437.44,13595.44 2437.44,13504.02 2467.89,13504.02 2467.89,13443.08 2498.37,13443.08 2498.37,13351.66 2528.86,13351.66 2528.86,13260.24 2559.31,13260.24 2559.31,13168.82 2589.79,13168.82 2589.79,13046.92 2620.28,13046.92 2620.28,12925.01 2650.73,12925.01 2650.73,12833.59 2681.21,12833.59 2681.21,12772.65 2711.7,12772.65 2711.7,12589.81 2742.15,12589.81 2742.15,12498.39 2772.63,12498.39 2772.63,12376.49 2803.12,12376.49 2803.12,12254.62 2833.57,12254.62 2833.57,12132.71 2864.05,12132.71 2864.05,11980.36 2894.54,11980.36 2894.54,11827.96 2924.99,11827.96 2924.99,11736.54 2955.48,11736.54 2955.48,11553.7 2985.96,11553.7 2985.96,11462.28 3016.41,11462.28 3016.41,11279.44 3046.9,11279.44 3046.9,11066.15 3077.38,11066.15 3077.38,10883.31 3107.83,10883.31 3107.83,10730.92 3138.32,10730.92 3138.32,10517.63 3168.8,10517.63 3168.8,10304.3 3199.25,10304.3 3199.25,10030.04 3229.74,10030.04 3229.74,9877.69 3260.22,9877.69 3260.22,9451.03 3290.67,9451.03 3290.67,9176.77 3321.16,9176.77 3321.16,8689.22 3351.64,8689.22 3351.64,8079.76 3382.09,8079.76 3382.09,7531.24 3412.58,7531.24 3412.58,7196.01 3443.06,7196.01 3443.06,6677.97 3473.51,6677.97 3473.51,6190.38 3504,6190.38 3504,6007.54 3534.48,6007.54 3534.48,5580.92 3564.93,5580.92 3564.93,5276.18 3595.42,5276.18 3595.42,5032.4 3625.9,5032.4 3625.9,4940.98 3656.35,4940.98 3656.35,4788.62 3625.9,4788.62 "/>
  <path class="fil2" d="M3625.9 5032.4l-30.48 0 0 243.78 -30.49 0 0 304.74 -30.45 0 0 426.62 -30.48 0 0 182.84 -30.49 0 0 487.59 -30.45 0 0 518.04 -30.48 0 0 335.23 -30.49 0 0 548.52 -30.45 0 0 609.46 -30.48 0 0 487.55 -30.49 0 0 274.26 -30.45 0 0 426.66 -30.48 0 0 152.35 -30.49 0 0 274.26 -30.45 0 0 213.33 -30.48 0 0 213.29 -30.49 0 0 152.39 -30.45 0 0 182.84 -30.48 0 0 213.29 -30.49 0 0 182.84 -30.45 0 0 91.42 -30.48 0 0 182.84 -30.49 0 0 91.42 -30.45 0 0 152.4 -30.49 0 0 152.35 -30.48 0 0 121.91 -30.45 0 0 121.87 -30.49 0 0 121.9 -30.48 0 0 91.42 -30.45 0 0 182.84 -30.49 0 0 60.94 -30.48 0 0 91.42 -30.45 0 0 121.91 -30.49 0 0 121.9 -30.48 0 0 91.42 -30.45 0 0 91.42 -30.49 0 0 91.42 -30.48 0 0 60.94 -30.45 0 0 91.42 -30.49 0 0 91.42 -30.48 0 0 60.93 -30.45 0 0 91.42 -30.49 0 0 60.98 -30.48 0 0 60.93 -30.45 0 0 60.94 -30.49 0 0 60.97 -30.48 0 0 60.93 -30.45 0 0 60.94 -30.49 0 0 30.48 -30.48 0 0 60.94 -30.45 0 0 30.48 -30.49 0 0 30.49 -30.49 0 0 30.45 -30.44 0 0 30.48 -30.49 0 0 30.49 -60.94 0 0 30.45 -182.84 0 0 -30.45 -30.48 0 0 -30.49 -30.49 0 0 -30.48 -30.45 0 0 -30.45 -30.48 0 0 -60.97 -30.49 0 0 -60.94 -30.45 0 0 -121.9 -30.48 0 0 -121.87 -30.49 0 0 -152.4 -30.45 0 0 -2681.64 -30.48 0 0 -335.23 -30.49 0 0 -304.71 -30.45 0 0 -182.84 -30.48 0 0 -304.75 -30.49 0 0 -213.33 -30.45 0 0 -213.29 -30.48 0 0 -182.84 -30.49 0 0 -182.84 -30.45 0 0 -304.74 -30.48 0 0 -304.72 -30.49 0 0 -243.81 -30.45 0 0 -335.19 -30.48 0 0 -396.17 -30.49 0 0 -396.13 -30.45 0 0 -579.01 -30.49 0 0 -609.46 -30.48 0 0 -365.68 -30.45 0 0 -457.1 30.45 0 0 30.45 30.48 0 0 30.48 30.49 0 0 60.94 30.45 0 0 30.48 30.49 0 0 60.94 30.48 0 0 30.48 30.45 0 0 30.49 30.49 0 0 60.93 30.48 0 0 30.49 30.45 0 0 30.45 30.49 0 0 30.48 30.48 0 0 30.49 30.45 0 0 30.45 30.49 0 0 30.48 60.93 0 0 30.49 30.49 0 0 30.45 30.48 0 0 30.48 60.94 0 0 30.49 30.48 0 0 30.45 60.94 0 0 30.49 91.42 0 0 30.48 91.42 0 0 30.45 60.93 0 0 30.49 91.42 0 0 30.48 518.08 0 0 -30.48 121.87 0 0 -30.49 60.97 0 0 -30.45 60.93 0 0 -30.48 60.94 0 0 -30.49 60.97 0 0 -30.45 30.45 0 0 -30.49 60.97 0 0 -30.48 30.45 0 0 -30.45 30.49 0 0 -30.49 30.48 0 0 -30.48 30.45 0 0 -30.45 30.49 0 0 -30.49 30.48 0 0 -30.48 30.45 0 0 -30.45 30.49 0 0 -30.49 30.48 0 0 -60.93 30.45 0 0 -30.49 30.49 0 0 -30.48 30.48 0 0 -60.94 30.45 0 0 -30.48 30.49 0 0 -30.45 30.48 0 0 -60.97 30.45 0 0 -60.94 30.49 0 0 -30.48 30.48 0 0 -60.94 30.45 0 0 -60.93 30.49 0 0 -30.49 30.48 0 0 -60.93 30.45 0 0 -60.98 30.49 0 0 -60.93 30.48 0 0 -60.94 30.45 0 0 152.36 -30.45 0 0 91.42zm-3352.1 -2112.54c17.95,3.9 13.18,16.79 61.05,29.05 143.63,36.81 159.8,61.09 286.83,35.08 78.79,-16.14 71.69,-4.24 111.29,-61.73 75.58,8.88 69.2,-3.84 113.95,62.05 29.4,0.08 35.68,-12.9 65.36,-9.44l36.55 55.88c28.69,-5.58 51.61,-25.2 78.4,-29.56 31.72,-5.15 58.17,14.8 88.2,18.79 5.86,-20.58 17.31,-46.67 27.28,-64.63 20.64,-5.57 38.9,-2.58 54.32,-11.04 17.46,-9.58 14.7,-19.98 42.1,-24.89 20.01,-3.59 47.99,3.48 63.59,-1.4 22.61,-7.07 9.41,-18.25 28.95,-35.15 61.34,28.19 50.61,98 159.94,56.45 105.11,-39.94 88.61,8.53 166.86,40.22 48.75,-52.98 7.41,-93.48 155.42,-83.03 33.66,2.38 90.42,11.58 114.56,-5.59 35.56,-25.31 15.43,-48.09 83.65,-39.06 42.51,61.81 16.23,30.43 83.28,62.49 57.07,27.29 15.85,40.23 104.22,24.74 89.09,-15.61 89.69,-29.85 113.58,-33.96 46.43,-7.98 62.01,17.34 102.38,44.71 28.22,-7.71 42.11,-25.47 83.56,-33.1l30.43 -5.57c-61.94,-4.73 -68.57,16.86 -113.99,27.62 -29.67,-19.35 -39.39,-48.45 -92.59,-46.5 -29.95,1.09 -76.66,21.46 -114.27,28.46 -85.12,15.84 -50.6,0.62 -99.95,-25.13 -51.25,-26.72 -47.23,-5.89 -73.97,-67.56 -180.42,-19.83 -45.12,53.95 -207.64,38.92 -116.51,-10.78 -114.17,-24.59 -185.01,50.17 -29.55,-12.6 -44.21,-30.78 -86.12,-41.25 -51.45,-12.84 -96.98,54.67 -140.29,4.42 -15.73,-18.24 -14.78,-16.68 -34.19,-31.05 -28.02,-20.75 -49.17,-37.49 -77.09,-54.62l-42.12 66.96c-26.31,2.84 -41.22,-5.43 -64.06,2.13 -20.61,6.83 -21.68,21.29 -43.46,27.09 -62.56,16.67 -61.99,-28.38 -91.3,44.88 -41.44,-5.3 -37.9,-2.38 -76.7,3.54 -8.61,-23.5 -20.1,-36.82 -28.68,-57.28l-66.42 16.63c-58.12,-83.73 -20,-26.83 -123.78,-51.39 -30.06,-7.11 -50.76,-20.52 -79.6,-23.74 -30.5,45.41 -48.39,74.55 -86.94,81.2 -107.59,18.57 -87.18,-22.51 -136.35,-26.76 -63.34,-5.47 -23.51,24.87 -97.08,-22.87 -66.9,-43.41 -84,-43.94 -124.6,-37.19l0 -162.38 -30.49 0 0 -121.91 -30.48 0 0 -670.39 30.48 0 0 -121.91 30.49 0 0 -121.9 30.45 0 0 -60.94 30.48 0 0 -60.93 30.49 0 0 -60.97 30.45 0 0 -30.45 30.48 0 0 -60.97 30.49 0 0 -30.45 30.45 0 0 -30.49 30.48 0 0 -30.45 30.49 0 0 -30.48 30.45 0 0 -30.49 30.48 0 0 -30.45 30.49 0 0 -30.48 60.93 0 0 -30.49 30.49 0 0 -30.45 30.45 0 0 -30.48 60.97 0 0 -30.49 60.93 0 0 -30.45 60.94 0 0 -30.48 60.97 0 0 -30.49 30.45 0 0 -30.45 60.97 0 0 -30.49 30.45 0 0 -30.48 60.97 0 0 -30.45 60.94 0 0 -30.49 30.48 0 0 -30.48 30.45 0 0 -30.45 60.97 0 0 -30.49 30.45 0 0 -30.48 30.49 0 0 -30.45 60.93 0 0 -30.49 30.49 0 0 -30.48 30.48 0 0 -30.45 60.94 0 0 -30.49 30.48 0 0 -30.48 30.45 0 0 -30.45 60.97 0 0 -30.49 60.94 0 0 -30.48 30.48 0 0 -30.45 60.94 0 0 -30.49 60.93 0 0 -30.48 60.98 0 0 -30.45 91.42 0 0 -30.49 304.71 0 0 30.49 60.97 0 0 30.45 91.42 0 0 30.48 30.45 0 0 30.49 60.97 0 0 30.45 60.93 0 0 30.48 30.49 0 0 30.49 60.93 0 0 30.45 30.49 0 0 30.48 30.45 0 0 30.49 60.97 0 0 30.45 30.45 0 0 30.48 30.49 0 0 30.49 60.93 0 0 30.45 30.49 0 0 30.48 30.48 0 0 30.49 60.94 0 0 30.45 30.48 0 0 30.48 60.94 0 0 30.49 30.48 0 0 30.45 60.94 0 0 30.48 60.93 0 0 30.49 30.49 0 0 30.45 60.93 0 0 30.49 30.49 0 0 30.48 60.93 0 0 30.45 30.49 0 0 30.49 60.93 0 0 30.48 30.49 0 0 30.45 60.93 0 0 30.49 30.49 0 0 30.48 30.48 0 0 30.45 30.45 0 0 30.49 30.49 0 0 30.48 30.49 0 0 30.45 30.44 0 0 30.49 30.49 0 0 60.93 30.49 0 0 30.49 30.45 0 0 60.93 30.48 0 0 30.49 30.49 0 0 60.93 30.45 0 0 121.91 30.48 0 0 60.93 30.49 0 0 91.42 30.45 0 0 792.3 -30.45 0 0 152.39 -30.49 0 0 91.43 -30.48 0 0 152.35 -30.45 0 0 152.36 -30.49 0 0 60.97 -30.48 0 0 121.87 -30.45 0 0 152.39 -30.49 0 0 60.93 -30.49 0 0 91.42 -30.44 0 0 91.42 -30.49 0 0 91.42 -30.49 0 0 91.43 -30.45 0 0 60.93 -30.48 0 0 60.97 -30.49 0 0 91.42 -30.45 0 0 121.87 -30.48 0 0 60.97 -30.49 0 0 60.94 -30.45 0 0 60.93 -30.48 0 0 91.42 -30.49 0 0 60.97 -30.45 0 0 60.94 -30.48 0 0 30.48 -30.49 0 0 60.94 -30.45 0 0 60.93 -30.48 0 0 60.98 -30.49 0 0 60.93 -30.45 0 0 60.94 -30.48 0 0 60.97 -30.49 0 0 30.45 -30.45 0 0 60.97 -30.48 0 0 30.45 -30.49 0 0 60.97 -30.45 0 0 30.45 -30.48 0 0 60.97 -30.49 0 0 30.45 -30.45 0 0 30.48 -30.48 0 0 60.94 -30.49 0 0 30.48 -30.45 0 0 30.49 -30.48 0 0 30.45 -30.49 0 0 30.48 -30.45 0 0 30.49 -30.49 0 0 30.45 -30.48 0 0 30.48 -30.45 0 0 30.49 -60.97 0 0 30.45 -30.45 0 0 30.48 -60.97 0 0 30.49 -60.94 0 0 30.45 -60.93 0 0 30.48 -121.91 0 0 30.49 -457.1 0 0 -30.49 -121.91 0 0 -30.48 -91.42 0 0 -30.45 -60.93 0 0 -30.49 -60.94 0 0 -30.48 -60.97 0 0 -30.45 -30.45 0 0 -30.49 -30.48 0 0 -30.48 -60.94 0 0 -30.45 -30.48 0 0 -30.49 -30.49 0 0 -30.48 -30.45 0 0 -30.45 -30.48 0 0 -30.49 -30.49 0 0 -30.48 -30.45 0 0 -30.45 -30.48 0 0 -60.97 -30.49 0 0 -30.45 -30.45 0 0 -60.97 -30.48 0 0 -30.45 -30.49 0 0 -60.97 -30.45 0 0 -30.45 -30.48 0 0 -60.97 -30.49 0 0 -60.94 -30.45 0 0 -60.93 -30.49 0 0 -60.98 -30.48 0 0 -60.93 -30.45 0 0 -60.94 -30.49 0 0 -60.97 -30.48 0 0 -91.42 -30.45 0 0 -91.42 -30.49 0 0 -91.42 -30.48 0 0 -60.93 -30.45 0 0 -91.42 -30.49 0 0 -60.94 -30.48 0 0 -121.9 -30.45 0 0 -91.42 -30.49 0 0 -91.42 -30.48 0 0 -121.91 -30.45 0 0 -91.42 -30.49 0 0 -91.42 -30.48 0 0 -91.42 -30.45 0 0 -121.87 -30.49 0 0 -121.91 -30.48 0 0 -60.93 -30.45 0 0 -121.91 -30.49 0 0 -152.35 -30.48 0 0 -40.36zm1706.54 -2854.61l-60.98 0 0 30.45 -91.42 0 0 30.48 -60.93 0 0 30.49 -60.94 0 0 30.45 -60.97 0 0 30.48 -30.45 0 0 30.49 -30.48 0 0 30.45 -60.94 0 0 30.48 -30.48 0 0 30.49 -30.49 0 0 30.45 -60.93 0 0 30.48 -30.49 0 0 30.49 -30.45 0 0 30.45 -60.97 0 0 30.48 -30.45 0 0 30.49 -30.48 0 0 30.45 -60.94 0 0 30.48 -30.48 0 0 30.49 -60.94 0 0 30.45 -30.48 0 0 30.48 -60.94 0 0 30.49 -60.97 0 0 30.45 -30.45 0 0 30.48 -60.97 0 0 30.49 -30.45 0 0 30.45 -60.97 0 0 30.48 -60.94 0 0 30.49 -30.48 0 0 30.45 -60.94 0 0 30.49 -30.48 0 0 30.48 -60.94 0 0 30.45 -30.48 0 0 30.49 -30.45 0 0 30.48 -30.49 0 0 30.45 -30.48 0 0 30.49 -60.94 0 0 60.93 -30.48 0 0 30.49 -30.45 0 0 30.48 -30.49 0 0 60.94 -30.48 0 0 60.93 -30.45 0 0 60.94 -30.49 0 0 60.97 -30.48 0 0 60.93 -30.45 0 0 91.42 -30.49 0 0 182.84 -30.49 0 0 731.37 30.49 0 0 152.35 30.49 0 0 182.84 30.45 0 0 121.91 30.48 0 0 152.36 30.49 0 0 91.42 30.45 0 0 121.9 30.48 0 0 91.42 30.49 0 0 91.42 30.45 0 0 121.91 30.48 0 0 91.42 30.49 0 0 91.42 30.45 0 0 121.87 30.48 0 0 121.91 30.49 0 0 60.93 30.45 0 0 91.42 30.48 0 0 91.42 30.49 0 0 91.42 30.45 0 0 91.42 30.48 0 0 91.42 30.49 0 0 60.97 30.45 0 0 60.94 30.48 0 0 548.52 30.49 0 0 579.01 30.45 0 0 396.13 30.48 0 0 822.79 30.49 0 0 304.74 30.45 0 0 396.17 30.48 0 0 274.26 30.49 0 0 304.71 30.45 0 0 426.66 30.48 0 0 243.77 30.49 0 0 121.87 30.45 0 0 335.23 30.49 0 0 121.87 30.48 0 0 213.33 30.45 0 0 274.26 30.49 0 0 274.26 30.48 0 0 182.84 30.45 0 0 304.75 30.49 0 0 487.55 30.48 0 0 2498.84 30.45 0 0 182.84 30.49 0 0 182.84 30.48 0 0 60.94 30.45 0 0 91.42 30.49 0 0 60.97 30.48 0 0 30.45 30.45 0 0 30.48 30.49 0 0 30.49 30.48 0 0 30.45 30.45 0 0 30.48 30.49 0 0 30.49 60.93 0 0 30.45 335.24 0 0 -30.45 60.93 0 0 -30.49 30.49 0 0 -30.48 30.45 0 0 -30.45 30.48 0 0 -30.49 30.49 0 0 -30.48 30.45 0 0 -30.45 30.48 0 0 -30.49 30.49 0 0 -30.48 30.45 0 0 -60.94 30.48 0 0 -30.48 30.49 0 0 -60.94 30.45 0 0 -60.93 30.48 0 0 -60.97 30.49 0 0 -60.94 30.45 0 0 -91.42 30.48 0 0 -60.93 30.49 0 0 -91.42 30.45 0 0 -60.98 30.48 0 0 -91.42 30.49 0 0 -60.93 30.45 0 0 -91.42 30.48 0 0 -91.42 30.49 0 0 -91.42 30.45 0 0 -91.42 30.48 0 0 -121.91 30.49 0 0 -91.42 30.45 0 0 -121.87 30.48 0 0 -91.42 30.49 0 0 -91.42 30.45 0 0 -121.91 30.49 0 0 -121.9 30.48 0 0 -182.84 30.45 0 0 -121.87 30.49 0 0 -91.42 30.48 0 0 -152.4 30.45 0 0 -121.87 30.49 0 0 -182.84 30.48 0 0 -152.39 30.45 0 0 -152.35 30.49 0 0 -91.42 30.48 0 0 -243.78 30.45 0 0 -91.42 30.49 0 0 -182.84 30.48 0 0 -243.81 30.45 0 0 -213.29 30.49 0 0 -274.26 30.48 0 0 -365.69 30.45 0 0 -213.32 30.49 0 0 -426.62 30.48 0 0 -731.36 30.45 0 0 -426.62 30.49 0 0 -579.01 30.48 0 0 -487.59 30.45 0 0 -365.68 30.49 0 0 -365.68 30.48 0 0 -243.78 30.45 0 0 -365.68 30.49 0 0 -182.84 30.48 0 0 -243.77 30.45 0 0 -182.85 30.49 0 0 -274.26 30.49 0 0 -152.39 30.44 0 0 -121.87 30.49 0 0 -121.9 30.49 0 0 -91.42 30.45 0 0 -91.42 30.48 0 0 -121.91 30.49 0 0 -91.42 30.45 0 0 -121.87 30.48 0 0 -60.97 30.49 0 0 -91.42 30.45 0 0 -121.87 30.48 0 0 -121.91 30.49 0 0 -121.9 30.45 0 0 -121.87 30.48 0 0 -91.42 30.49 0 0 -182.85 30.45 0 0 -243.81 30.48 0 0 -548.52 -30.48 0 0 -91.42 -30.45 0 0 -121.87 -30.49 0 0 -91.42 -30.48 0 0 -91.42 -30.45 0 0 -60.97 -30.49 0 0 -60.94 -30.48 0 0 -60.93 -30.45 0 0 -30.49 -30.49 0 0 -30.45 -30.48 0 0 -60.97 -30.45 0 0 -30.45 -30.49 0 0 -30.48 -30.48 0 0 -30.49 -30.45 0 0 -30.45 -30.49 0 0 -30.48 -30.49 0 0 -30.49 -30.44 0 0 -30.45 -30.49 0 0 -30.48 -60.94 0 0 -30.49 -30.48 0 0 -30.45 -60.94 0 0 -30.49 -30.48 0 0 -30.48 -60.94 0 0 -30.45 -30.48 0 0 -30.49 -60.94 0 0 -30.48 -60.97 0 0 -30.45 -30.45 0 0 -30.49 -60.97 0 0 -30.48 -60.93 0 0 -30.45 -30.49 0 0 -30.49 -30.45 0 0 -30.48 -60.97 0 0 -30.45 -30.45 0 0 -30.49 -60.97 0 0 -30.48 -30.45 0 0 -30.45 -30.48 0 0 -30.49 -60.94 0 0 -30.48 -30.48 0 0 -30.45 -30.49 0 0 -30.49 -60.94 0 0 -30.48 -30.48 0 0 -30.45 -60.94 0 0 -30.49 -30.48 0 0 -30.48 -60.94 0 0 -30.45 -30.48 0 0 -30.49 -60.94 0 0 -30.48 -91.42 0 0 -30.45 -60.93 0 0 -30.49 -457.1 0 0 30.49z"/>
 </g>
</svg>
