<?xml version="1.0" encoding="UTF-8"?>
<!DOCTYPE svg PUBLIC "-//W3C//DTD SVG 1.1//EN" "http://www.w3.org/Graphics/SVG/1.1/DTD/svg11.dtd">
<!-- Creator: CorelDRAW (Versión de evaluación) -->
<svg xmlns="http://www.w3.org/2000/svg" xml:space="preserve" width="739px" height="2458px" version="1.1" style="shape-rendering:geometricPrecision; text-rendering:geometricPrecision; image-rendering:optimizeQuality; fill-rule:evenodd; clip-rule:evenodd"
viewBox="0 0 739 2457.4"
 xmlns:xlink="http://www.w3.org/1999/xlink"
 xmlns:xodm="http://www.corel.com/coreldraw/odm/2003">
 <defs>
  <style type="text/css">
   <![CDATA[
    .str0 {stroke:#373435;stroke-width:5;stroke-miterlimit:22.9256}
    .fil0 {fill:#FEFEFE}
   ]]>
  </style>
 </defs>
 <g id="tooth-fissure-crown-38">
  <metadata id="CorelCorpID_0Corel-Layer"/>
  <path id="root" class="fil0 str0" d="M664.44 827.52c38.35,253.59 66.5,562.49 59.7,826.16 -4.02,155.82 -68.29,631.75 -179.9,607.67 -21.28,-85.72 -6.25,-439.79 -15.85,-581.05 -12.49,-183.64 -22.99,-304.49 -103.84,-429.34 -97.42,-11.31 -103.5,71.98 -112.74,213.98 -7.22,111.16 2.2,258.71 17.69,365.91 22.86,158.37 109.08,495.03 99.19,619.87 -53.89,33.68 -98.83,-68.09 -133.15,-124.75 -118.79,-196.04 -183.27,-466.07 -213.69,-739.36 -25.7,-230.91 -20.72,-445.48 -4.88,-676.23 4.46,-65.07 2.63,-72.59 43.09,-106.1 18.74,-15.51 57.61,-37.71 77,-42.09 80.47,-20.24 232.27,197.98 467.38,65.33z"/>
  <path id="crown" class="fil0 str0" d="M580.57 89.09l-13.25 -10.32c82.72,-57.36 109.39,-87.38 148.24,82.45 45.87,200.52 26.59,588.74 -88.6,637.59 -215.99,91.58 -237.44,-77.6 -402.91,-75.49 -79.34,1.05 -104.9,60.33 -152.4,68.85 -76.88,-188.48 -115.64,-685.66 5.32,-773.95 40.18,-29.33 131.99,16.93 161.87,59.82l-39.12 51.37c62.71,3.92 44.19,-36.21 91.1,-66.32 213.32,-136.96 149.59,-22.38 291.73,74.56l28.62 -0.9 -30.6 -47.66zm116.27 3.1c0.49,1.45 0.98,2.91 1.47,4.42l-1.02 1.01 1.98 1.99 0.47 1.45 -2.46 2.45 2.94 2.95 -2.96 2.94 2.94 2.95 -2.95 2.94 2.94 2.95 -2.96 2.94 2.94 2.95 -2.95 2.94 2.94 2.95 -2.95 2.94 2.93 2.96 -2.95 2.93 2.94 2.96 -2.95 2.94 2.93 2.95 -2.95 2.94 5.88 5.9 -2.95 2.94 5.87 5.91 -2.95 2.93 2.94 2.96 -2.96 2.94 2.94 2.95 -2.95 2.94 5.88 5.9 -2.96 2.94 2.94 2.95 -2.95 2.94 11.75 11.81 2.95 -2.94 3.9 3.92c0.72,4.49 1.43,9.02 2.1,13.63l-0.15 0.14 -2.94 -2.95 -2.95 2.94 -5.88 -5.91 -2.95 2.94 -2.94 -2.95 -11.81 11.75 -2.94 -2.95 -2.95 2.94 2.94 2.95 -11.81 11.75 2.94 2.95 -8.86 8.82 2.94 2.95 -5.91 5.88 2.94 2.95 -8.86 8.82 -5.88 -5.91 -2.95 2.94 -2.94 -2.95 -23.62 23.5 -2.94 -2.95 -11.81 11.75 -2.94 -2.95 -5.9 5.88 2.93 2.95 -17.71 17.63 -2.94 -2.95 -20.67 20.56 -2.94 -2.95 -2.95 2.94 2.94 2.95 -5.91 5.88 2.94 2.95 -2.95 2.94 8.81 8.86 -2.95 2.94 2.94 2.95 2.95 -2.94 5.88 5.91 -2.96 2.93 -2.94 -2.95 -5.9 5.88 2.94 2.95 -2.96 2.94 2.94 2.95 -2.95 2.94 2.94 2.95 -2.96 2.94 5.88 5.91 -2.95 2.94 5.87 5.9 -2.95 2.94 2.94 2.95 -2.95 2.94 -5.88 -5.91 2.95 -2.93 -8.81 -8.86 2.95 -2.94 -5.88 -5.9 2.96 -2.94 -2.94 -2.96 2.95 -2.93 -5.87 -5.91 2.95 -2.94 -5.88 -5.9 2.95 -2.94 -5.87 -5.91 2.95 -2.94 -5.88 -5.9 2.96 -2.94 -2.94 -2.95 2.95 -2.94 -5.87 -5.91 -2.96 2.94 -2.93 -2.95 -2.96 2.94 -2.94 -2.96 -2.95 2.94 -2.94 -2.95 -2.95 2.94 -2.94 -2.96 -5.9 5.88 -2.94 -2.95 -5.91 5.88 -2.94 -2.96 -5.9 5.88 -2.94 -2.95 -2.95 2.93 -2.94 -2.95 -2.95 2.94 -5.88 -5.91 -2.95 2.94 -2.94 -2.95 -5.91 5.87 -2.94 -2.95 -5.9 5.88 2.94 2.95 -5.91 5.88 -2.94 -2.95 -2.95 2.93 2.94 2.96 -2.96 2.93 2.94 2.96 -5.9 5.87 2.94 2.96 -2.96 2.94 2.94 2.95 -2.95 2.94 2.94 2.95 -5.91 5.88 2.94 2.95 -5.91 5.87 2.94 2.96 -2.95 2.94 -2.95 2.93 2.93 2.96 -8.85 8.81 5.87 5.91 -2.95 2.94 8.81 8.86 -5.9 5.87 2.94 2.95 -8.86 8.82 2.94 2.95 -2.96 2.94 2.94 2.95 -5.9 5.88 2.93 2.95 -2.95 2.94 8.82 8.86 -2.96 2.94 2.94 2.95 -2.95 2.94 5.88 5.9 -2.96 2.94 -5.87 -5.9 2.95 -2.94 -5.88 -5.91 2.96 -2.94 -14.7 -14.76 -2.95 2.94 -2.94 -2.95 -2.95 2.93 -2.94 -2.95 -2.95 2.94 -2.94 -2.95 -2.95 2.93 -2.94 -2.95 -5.91 5.88 -2.93 -2.95 -2.96 2.93 2.94 2.96 -5.9 5.87 2.93 2.96 -5.9 5.87 2.94 2.96 -2.96 2.93 2.94 2.96 -5.9 5.87 2.93 2.96 -2.95 2.94 2.94 2.95 -11.81 11.75 5.88 5.91 -2.96 2.93 14.69 14.77 2.96 -2.94 11.75 11.81 2.95 -2.94 14.69 14.77 -2.95 2.94 -2.94 -2.96 -2.95 2.94 -2.94 -2.95 -2.95 2.94 -5.88 -5.91 2.95 -2.94 -2.93 -2.95 -2.96 2.94 -5.87 -5.91 -2.96 2.94 -2.93 -2.95 -8.86 8.81 -2.94 -2.95 5.91 -5.88 -2.94 -2.95 2.95 -2.94 -14.69 -14.76 -2.96 2.94 -2.93 -2.96 -2.96 2.94 -2.93 -2.95 -2.96 2.94 2.94 2.95 -5.9 5.88 2.93 2.95 -8.86 8.81 2.94 2.96 -14.76 14.69 2.94 2.95 -8.86 8.82 2.94 2.95 -5.91 5.87 2.94 2.96 -5.91 5.87 2.94 2.96 -2.95 2.94 2.94 2.95 -35.44 35.26 2.94 2.95 -11.81 11.75 2.94 2.96 -5.91 5.87 2.94 2.96 -14.76 14.69 2.93 2.95 -11.81 11.75 -5.64 5.62c-5,-0.26 -10.12,-0.38 -15.39,-0.31 -4.86,0.07 -9.52,0.35 -14,0.83l-0.33 -0.33 -0.42 0.41c-4.93,0.56 -9.64,1.35 -14.15,2.34l2.79 -2.78 -2.94 -2.96 -2.95 2.94 -5.88 -5.9 -2.95 2.93 -8.81 -8.85 -2.96 2.94 -8.81 -8.86 -5.88 -5.91 -2.95 2.94 -2.94 -2.95 -2.95 2.93 -2.94 -2.95 -2.95 2.94 -5.88 -5.91 5.9 -5.87 2.94 2.95 2.96 -2.94 2.93 2.95 2.96 -2.93 2.94 2.95 5.9 -5.88 2.94 2.96 2.95 -2.94 2.94 2.95 2.95 -2.94 2.94 2.95 5.91 -5.87 2.94 2.95 2.95 -2.94 2.94 2.96 5.9 -5.88 2.94 2.95 2.95 -2.94 2.94 2.96 2.96 -2.94 -2.94 -2.95 2.95 -2.94 -8.82 -8.86 2.96 -2.94 11.75 11.81 2.95 -2.94 2.94 2.96 2.95 -2.94 -2.93 -2.95 2.95 -2.94 -2.94 -2.96 2.95 -2.93 -8.81 -8.86 2.95 -2.94 -8.81 -8.86 2.95 -2.94 -2.94 -2.95 2.95 -2.94 8.82 8.86 5.91 -5.88 5.87 5.91 8.86 -8.82 -2.94 -2.95 -2.95 2.94 -8.82 -8.86 -2.95 2.94 -20.57 -20.67 2.96 -2.94 -5.88 -5.9 -2.95 2.93 -2.94 -2.95 -2.95 2.94 -2.94 -2.95 -2.95 2.94 -5.88 -5.91 -5.91 5.88 -2.94 -2.96 -5.9 5.88 -2.94 -2.95 -14.76 14.69 -5.88 -5.91 8.86 -8.81 2.94 2.95 8.85 -8.82 2.94 2.96 2.96 -2.94 2.93 2.95 5.91 -5.87 2.94 2.95 5.9 -5.88 2.94 2.95 8.86 -8.81 -2.94 -2.95 2.96 -2.94 -2.94 -2.95 5.9 -5.88 2.94 2.95 -2.95 2.94 2.94 2.95 -5.91 5.88 8.81 8.86 2.96 -2.94 2.94 2.95 -2.96 2.94 5.88 5.91 -2.95 2.94 14.69 14.76 2.95 -2.94 5.88 5.91 2.95 -2.94 2.94 2.95 2.95 -2.94 2.94 2.96 2.95 -2.94 5.88 5.9 2.95 -2.93 5.88 5.9 2.95 -2.94 5.88 5.91 2.95 -2.94 2.94 2.95 29.53 -29.38 -2.94 -2.95 5.91 -5.88 -2.94 -2.95 2.95 -2.94 -2.94 -2.95 14.77 -14.69 -2.94 -2.96 8.86 -8.81 -2.94 -2.95 5.9 -5.88 -8.81 -8.86 -2.95 2.94 -2.94 -2.95 -2.96 2.93 -11.75 -11.81 -2.95 2.94 -2.94 -2.95 -2.95 2.94 -2.94 -2.96 5.9 -5.87 2.94 2.95 2.96 -2.94 8.81 8.86 2.95 -2.94 5.88 5.91 2.95 -2.94 5.88 5.91 2.95 -2.94 2.94 2.95 5.91 -5.88 2.94 2.96 2.95 -2.94 2.94 2.95 8.85 -8.81 -2.93 -2.96 5.9 -5.87 -2.94 -2.96 8.86 -8.81 -2.94 -2.95 5.91 -5.88 -2.94 -2.95 2.95 -2.94 -2.93 -2.95 2.95 -2.94 5.91 -5.88 -2.94 -2.95 11.81 -11.75 2.94 2.95 2.95 -2.94 5.87 5.91 5.91 -5.88 2.94 2.95 2.95 -2.94 5.88 5.91 2.95 -2.94 -2.94 -2.95 11.81 -11.75 -2.93 -2.96 8.86 -8.81 -8.82 -8.86 2.95 -2.94 -5.87 -5.9 2.95 -2.94 2.95 -2.94 -2.94 -2.95 11.82 -11.76 -2.94 -2.95 5.9 -5.88 -2.94 -2.95 5.91 -5.88 -2.94 -2.95 2.96 -2.94 -2.94 -2.95 2.95 -2.94 -2.94 -2.95 2.95 -2.94 -5.87 -5.9 -2.96 2.93 -2.93 -2.95 -5.91 5.88 -5.88 -5.91 5.91 -5.88 2.94 2.96 5.9 -5.88 2.94 2.95 5.91 -5.87 2.94 2.95 20.67 -20.57 2.93 2.95 2.96 -2.93 5.87 5.9 2.96 -2.94 2.93 2.96 5.91 -5.88 2.94 2.95 2.95 -2.94 2.94 2.96 2.95 -2.94 2.94 2.95 2.95 -2.94 2.94 2.96 5.91 -5.88 2.94 2.95 5.9 -5.87 2.94 2.95 2.95 -2.94 5.88 5.91 2.95 -2.94 2.94 2.95 11.81 -11.75 2.94 2.95 38.39 -38.19 2.94 2.95 11.81 -11.76 2.94 2.96 8.85 -8.82 2.94 2.96 8.86 -8.82 -2.94 -2.95 5.91 -5.88 2.94 2.95 2.95 -2.93 2.94 2.95 5.9 -5.88 2.94 2.95 2.95 -2.93 2.94 2.95 5.91 -5.88 -2.94 -2.95 8.86 -8.81 -2.94 -2.96 5.91 -5.87 -2.94 -2.96 23.62 -23.5 -8.81 -8.86 2.95 -2.94 -2.94 -2.95 2.95 -2.94 -2.94 -2.95 -2.93 -2.96 2.95 -2.94 -2.94 -2.95 2.95 -2.94 -2.93 -2.95 2.95 -2.94 -5.88 -5.9 2.95 -2.94 -8.81 -8.86 2.95 -2.94 2.94 2.96 2.95 -2.94 -2.93 -2.96 2.95 -2.93 -2.94 -2.96 5.91 -5.87 -2.94 -2.96 5.9 -5.87 -2.93 -2.96 2.95 -2.93 -2.94 -2.96 2.95 -2.94 -2.94 -2.95 2.96 -2.94 -2.94 -2.95 8.39 -8.35zm-276.49 709.99c-7.13,-3.7 -14.1,-7.68 -20.99,-11.81l-1.28 -1.28 2.95 -2.94 -5.88 -5.91 2.96 -2.94 -2.94 -2.95 -2.95 2.94 -2.94 -2.95 -5.91 5.87 -2.94 -2.95 2.96 -2.94 -5.88 -5.9 2.95 -2.94 -2.94 -2.96 -2.95 2.94 -8.81 -8.86 -2.96 2.94 -8.81 -8.86 -2.95 2.94 -2.94 -2.95 -2.95 2.94 -5.88 -5.91 -2.95 2.94 -5.88 -5.9 -2.93 2.91 -0.1 -0.05 -5.8 -5.83 -2.08 2.06c-1.05,-0.49 -2.11,-0.97 -3.18,-1.44l-0.63 -0.64 2.95 -2.94 2.94 2.96 2.95 -2.94 2.94 2.95 2.95 -2.94 2.94 2.96 2.96 -2.94 2.93 2.95 2.95 -2.94 5.88 5.91 2.96 -2.94 2.93 2.95 5.91 -5.87 2.94 2.95 2.95 -2.94 2.94 2.95 5.9 -5.87 2.94 2.95 5.91 -5.88 2.94 2.96 8.86 -8.82 2.93 2.95 2.96 -2.93 2.93 2.95 8.86 -8.82 -2.93 -2.95 2.95 -2.94 -2.94 -2.95 2.95 -2.94 2.94 2.95 2.95 -2.93 8.82 8.86 2.95 -2.94 2.94 2.95 5.91 -5.88 2.93 2.96 -8.85 8.81 -2.94 -2.95 -8.86 8.81 2.94 2.96 -8.86 8.81 2.94 2.95 -2.96 2.94 -2.95 2.94 2.94 2.95 -2.95 2.94 8.81 8.86 -2.95 2.94 5.87 5.9 -2.95 2.94 2.94 2.95 -5.91 5.88 2.94 2.95 -2.95 2.94 2.94 2.95 -2.96 2.94 2.94 2.96 -1.26 1.25zm-126.2 -68.35c-1.48,-0.49 -2.98,-0.95 -4.49,-1.41l2.52 -2.51 2.94 2.95 -0.97 0.97zm-208.54 54.24c-4.48,1.82 -9.1,3.23 -13.96,4.1 -0.14,-0.35 -0.28,-0.72 -0.42,-1.06l2.84 -2.83 2.95 -2.94 -2.94 -2.95 5.91 -5.87 5.87 5.9 -2.95 2.94 2.7 2.71zm-80.51 -328.96l-0.14 -1.67 2.18 -2.17 49.95 50.2 2.96 -2.94 29.38 29.53 -2.95 2.94 2.93 2.95 -2.95 2.93 2.94 2.96 -5.91 5.88 2.94 2.95 -2.95 2.94 8.81 8.85 2.96 -2.93 2.95 -2.94 2.94 2.95 17.72 -17.63 2.93 2.95 2.96 -2.93 2.95 -2.94 5.88 5.9 2.95 -2.93 2.94 2.95 2.95 -2.94 5.88 5.9 2.95 -2.93 5.88 5.9 2.95 -2.94 2.94 2.96 2.95 -2.94 5.88 5.9 2.95 -2.93 2.94 2.95 2.95 -2.94 2.94 2.95 2.95 -2.93 2.94 2.95 2.95 -2.94 2.94 2.95 2.95 -2.94 2.94 2.96 -5.9 5.87 -2.94 -2.95 -2.95 2.94 -2.94 -2.95 -2.96 2.94 -2.93 -2.96 -2.96 2.94 -2.94 -2.95 -2.95 2.94 -2.94 -2.96 -2.95 2.94 -2.94 -2.95 -2.95 2.94 -5.88 -5.91 -2.95 2.94 -2.94 -2.95 -2.95 2.93 -5.88 -5.9 -2.95 2.94 -2.94 -2.96 -2.95 2.94 -2.94 -2.95 -2.95 2.94 -2.94 -2.95 -17.72 17.63 -2.94 -2.96 -11.81 11.75 2.94 2.96 -2.95 2.94 2.94 2.95 -2.96 2.94 2.94 2.95 -5.9 5.88 2.93 2.95 -2.95 2.94 2.94 2.95 -2.95 2.94 5.87 5.9 -2.95 2.94 2.94 2.95 -2.95 2.94 5.87 5.91 -2.95 2.94 2.94 2.95 -2.96 2.94 5.88 5.9 -2.95 2.94 2.94 2.96 -2.96 2.93 -14.69 -14.76 2.96 -2.94 -5.88 -5.9 2.95 -2.94 -8.81 -8.86 2.95 -2.94 -2.94 -2.95 2.95 -2.94 -2.93 -2.95 2.95 -2.94 -2.94 -2.95 2.95 -2.94 -5.87 -5.91 2.95 -2.94 -2.94 -2.95 5.91 -5.88 -2.94 -2.95 2.95 -2.94 -2.94 -2.95 5.91 -5.88 -2.94 -2.95 2.95 -2.94 -2.93 -2.95 2.95 -2.94 -2.94 -2.95 5.91 -5.88 -5.88 -5.9 2.95 -2.94 -26.44 -26.58 -2.95 2.94 -20.57 -20.67 2.95 -2.94 -5.88 -5.9 -2.95 2.93 -14.69 -14.76 2.95 -2.94 -2.94 -2.95 2.96 -2.94 -4.97 -5zm-0.56 -7.13c-0.15,-1.89 -0.29,-3.78 -0.43,-5.67l3.05 3.07 -2.62 2.6zm512.44 -98.55l-2.94 -2.95 2.95 -2.94 2.94 2.96 -2.95 2.93zm-238.99 161.42l-2.94 -2.95 2.95 -2.94 2.94 2.95 -2.95 2.94zm-15.22 197.32l-2.94 -2.96 2.96 -2.94 2.93 2.96 -2.95 2.94zm321.98 -367.4l-2.94 -2.96 2.95 -2.94 2.94 2.96 -2.95 2.94zm-153.13 -18.06l-2.93 -2.95 2.95 -2.94 2.94 2.96 -2.96 2.93zm-65.19 158.9l-2.94 -2.95 2.95 -2.94 2.94 2.95 -2.95 2.94zm-171.28 176.31l-5.88 -5.9 2.95 -2.94 5.88 5.9 -2.95 2.94zm79.37 62.06l-2.93 -2.96 5.9 -5.87 2.94 2.95 -5.91 5.88zm18.77 -441.79l-2.94 -2.96 2.96 -2.93 -2.94 -2.96 2.95 -2.93 5.88 5.9 -5.91 5.88zm-195.35 382.44l2.93 2.95 -2.95 2.94 -5.87 -5.91 5.9 -5.87 2.94 2.95 -2.95 2.94zm194.75 -140.91l-2.93 -2.95 -2.96 2.94 -2.94 -2.95 5.91 -5.88 5.88 5.9 -2.96 2.94zm-17.63 -17.71l-8.81 -8.86 2.95 -2.94 8.82 8.86 -2.96 2.94zm79.83 -120.58l-2.93 -2.95 -2.96 2.94 -8.81 -8.86 2.95 -2.94 5.88 5.91 2.95 -2.94 5.88 5.91 -2.96 2.93zm-88.63 105.83l-14.69 -14.77 2.96 -2.94 14.69 14.77 -2.96 2.94zm-168.48 238.17l-2.94 -2.95 2.95 -2.94 -2.94 -2.95 2.96 -2.94 -2.94 -2.95 2.95 -2.94 -2.94 -2.96 5.91 -5.87 -2.94 -2.95 2.95 -2.94 -2.94 -2.96 2.96 -2.93 -2.94 -2.96 2.95 -2.94 -2.94 -2.95 2.96 -2.94 8.81 8.86 -2.95 2.94 5.87 5.91 8.86 -8.82 5.88 5.91 -2.95 2.94 2.94 2.95 -2.96 2.94 -2.94 -2.96 -5.9 5.88 2.94 2.95 -2.96 2.94 2.94 2.95 -5.9 5.88 2.93 2.95 -2.95 2.94 2.94 2.95 -8.86 8.82 2.94 2.95 -5.91 5.88 2.94 2.95 -11.81 11.75 2.94 2.96 -11.81 11.75 -2.94 -2.95 2.95 -2.94 -2.94 -2.95 8.86 -8.82 -2.94 -2.95 5.91 -5.88 -2.94 -2.95 2.95 -2.94 -2.93 -2.95 2.95 -2.94 -2.94 -2.95 5.91 -5.88zm377.86 -334.86l2.94 2.95 -5.91 5.88 2.94 2.95 -5.91 5.88 -2.93 -2.95 2.95 -2.94 -2.94 -2.96 5.91 -5.87 -2.94 -2.95 11.81 -11.76 2.94 2.96 -8.86 8.81zm-206.66 188.01l-2.93 -2.96 -2.96 2.94 -5.87 -5.9 8.85 -8.82 2.94 2.95 2.96 -2.94 5.87 5.91 -8.86 8.82zm132.95 -161.68l-2.93 -2.95 -2.96 2.93 -2.93 -2.95 -2.96 2.94 -2.94 -2.95 -2.95 2.93 -2.94 -2.95 5.91 -5.87 2.94 2.95 8.86 -8.82 8.81 8.86 -5.91 5.88zm144.42 -32.05l2.94 2.96 -2.96 2.94 -2.93 -2.96 -5.91 5.88 -8.82 -8.86 5.91 -5.88 -2.94 -2.95 2.95 -2.94 2.94 2.96 2.96 -2.94 8.81 8.86 -2.95 2.93zm-29.52 23.5l-2.94 -2.96 -5.9 5.88 -5.88 -5.91 11.81 -11.75 2.94 2.95 5.91 -5.87 2.94 2.95 2.95 -2.94 2.94 2.96 -14.77 14.69zm-106.85 329.64l-2.94 -2.96 2.95 -2.94 -2.94 -2.95 -17.71 17.63 2.93 2.95 8.86 -8.81 2.94 2.95 5.91 -5.87zm-200.21 -35.85l-2.94 -2.95 -2.95 2.94 -5.88 -5.91 -2.95 2.94 -2.94 -2.95 -2.95 2.94 -2.94 -2.96 -2.96 2.94 -2.94 -2.95 -2.95 2.94 -2.94 -2.96 -2.95 2.94 8.82 8.86 2.95 -2.94 8.81 8.86 2.96 -2.94 2.93 2.96 11.82 -11.76zm70.85 -64.62l-2.94 -2.96 -8.86 8.82 2.94 2.95 8.86 -8.81z"/>
 </g>
</svg>
