<?xml version="1.0" encoding="UTF-8"?>
<!DOCTYPE svg PUBLIC "-//W3C//DTD SVG 1.1//EN" "http://www.w3.org/Graphics/SVG/1.1/DTD/svg11.dtd">
<!-- Creator: CorelDRAW (Versión de evaluación) -->
<svg xmlns="http://www.w3.org/2000/svg" xml:space="preserve" width="684px" height="2062px" version="1.1" style="shape-rendering:geometricPrecision; text-rendering:geometricPrecision; image-rendering:optimizeQuality; fill-rule:evenodd; clip-rule:evenodd"
viewBox="0 0 684 2062.8"
 xmlns:xlink="http://www.w3.org/1999/xlink"
 xmlns:xodm="http://www.corel.com/coreldraw/odm/2003">
 <defs>
  <style type="text/css">
   <![CDATA[
    .fil2 {fill:#4B4B4D}
    .fil0 {fill:#F2E6C9}
    .fil1 {fill:#FAFAF7}
   ]]>
  </style>
 </defs>
 <g id="fissure-crown">
  <metadata id="CorelCorpID_0Corel-Layer"/>
  <polygon id="root" class="fil0" points="381.52,481.03 385.13,481.03 385.13,484.63 388.73,484.63 388.73,491.83 392.32,491.83 392.32,589.03 388.73,589.03 388.73,715.03 392.32,715.03 392.32,747.43 395.93,747.43 395.93,779.83 399.53,779.83 399.53,801.43 403.12,801.43 403.12,819.43 406.73,819.43 406.73,851.83 410.33,851.83 410.33,869.83 413.92,869.83 413.92,902.23 417.53,902.23 417.53,913.03 421.13,913.03 421.13,931.03 424.72,931.03 424.72,941.83 421.13,941.83 421.13,956.23 417.53,956.23 417.53,963.43 413.92,963.43 413.92,977.83 410.33,977.83 410.33,988.63 406.73,988.63 406.73,995.83 403.12,995.83 403.12,1006.63 399.53,1006.63 399.53,1017.43 395.93,1017.43 395.93,1028.23 392.32,1028.23 392.32,1042.63 388.73,1042.63 388.73,1049.83 385.13,1049.83 385.13,1064.23 381.52,1064.23 381.52,1078.63 377.93,1078.63 377.93,1085.83 374.33,1085.83 374.33,1100.23 370.72,1100.23 370.72,1118.23 367.13,1118.23 367.13,1129.03 363.53,1129.03 363.53,1143.43 359.92,1143.43 359.92,1172.23 356.33,1172.23 356.33,1190.23 352.72,1190.23 352.72,1222.63 349.12,1222.63 349.12,1247.83 352.72,1247.83 352.72,1244.23 356.33,1244.23 356.33,1237.03 359.92,1237.03 359.92,1229.83 363.53,1229.83 363.53,1215.43 367.13,1215.43 367.13,1193.83 370.72,1193.83 370.72,1179.43 374.33,1179.43 374.33,1168.63 377.93,1168.63 377.93,1143.43 381.52,1143.43 381.52,1136.23 385.13,1136.23 385.13,1121.83 388.73,1121.83 388.73,1103.83 392.32,1103.83 392.32,1096.63 395.93,1096.63 395.93,1085.83 399.53,1085.83 399.53,1071.43 403.12,1071.43 403.12,1057.03 406.73,1057.03 406.73,1049.83 410.33,1049.83 410.33,1035.43 413.92,1035.43 413.92,1024.63 417.53,1024.63 417.53,1017.43 421.13,1017.43 421.13,1010.23 424.72,1010.23 424.72,995.83 428.33,995.83 428.33,988.63 431.93,988.63 431.93,977.83 435.52,977.83 435.52,967.03 439.13,967.03 439.13,956.23 442.73,956.23 442.73,949.03 446.32,949.03 446.32,934.63 449.93,934.63 449.93,923.83 453.53,923.83 453.53,913.03 457.12,913.03 457.12,905.83 460.73,905.83 460.73,891.43 464.33,891.43 464.33,880.63 467.92,880.63 467.92,848.23 471.53,848.23 471.53,833.83 475.13,833.83 475.13,794.23 478.72,794.23 478.72,769.03 482.33,769.03 482.33,754.63 485.93,754.63 485.93,722.23 489.53,722.23 489.53,657.43 493.13,657.43 493.13,628.63 496.73,628.63 496.73,603.43 500.33,603.43 500.33,585.43 503.93,585.43 503.93,578.23 507.53,578.23 507.53,571.03 511.13,571.03 511.13,567.43 514.73,567.43 514.73,563.83 529.13,563.83 529.13,567.43 532.73,567.43 532.73,571.03 536.33,571.03 536.33,574.63 539.93,574.63 539.93,581.83 543.53,581.83 543.53,589.03 547.13,589.03 547.13,592.63 550.73,592.63 550.73,603.43 554.33,603.43 554.33,610.63 557.93,610.63 557.93,621.43 561.53,621.43 561.53,632.23 565.13,632.23 565.13,646.63 568.73,646.63 568.73,653.83 572.33,653.83 572.33,668.23 575.93,668.23 575.93,689.83 579.53,689.83 579.53,707.83 583.13,707.83 583.13,725.83 586.73,725.83 586.73,747.43 590.33,747.43 590.33,783.43 593.93,783.43 593.93,812.23 597.53,812.23 597.53,830.23 601.13,830.23 601.13,859.03 604.73,859.03 604.73,1017.43 601.13,1017.43 601.13,1057.03 597.53,1057.03 597.53,1075.03 593.93,1075.03 593.93,1100.23 590.33,1100.23 590.33,1121.83 586.73,1121.83 586.73,1147.03 583.13,1147.03 583.13,1172.23 579.53,1172.23 579.53,1201.03 575.93,1201.03 575.93,1244.23 572.33,1244.23 572.33,1399.03 575.93,1399.03 575.93,1420.63 579.53,1420.63 579.53,1463.83 583.13,1463.83 583.13,1467.43 572.33,1467.43 572.33,1463.83 565.13,1463.83 565.13,1460.23 550.73,1460.23 550.73,1456.63 543.53,1456.63 543.53,1453.03 536.33,1453.03 536.33,1449.43 521.93,1449.43 521.93,1445.83 511.13,1445.83 511.13,1442.23 496.73,1442.23 496.73,1438.63 475.13,1438.63 475.13,1435.03 460.73,1435.03 460.73,1431.43 424.72,1431.43 424.72,1427.83 316.72,1427.83 316.72,1431.43 284.32,1431.43 284.32,1435.03 255.52,1435.03 255.52,1438.63 241.12,1438.63 241.12,1442.23 226.72,1442.23 226.72,1445.83 208.72,1445.83 208.72,1449.43 190.72,1449.43 190.72,1453.03 179.92,1453.03 179.92,1456.63 169.12,1456.63 169.12,1460.23 158.32,1460.23 158.32,1463.83 147.52,1463.83 147.52,1467.43 140.32,1467.43 140.32,1471.03 129.52,1471.03 129.52,1474.63 122.32,1474.63 122.32,1478.23 115.12,1478.23 115.12,1481.83 107.92,1481.83 107.92,1485.43 100.72,1485.43 100.72,1489.03 93.52,1489.03 93.52,1492.63 86.32,1492.63 86.32,1496.23 79.12,1496.23 79.12,1499.83 75.52,1499.83 75.52,1474.63 79.12,1474.63 79.12,1453.03 82.72,1453.03 82.72,1298.23 79.12,1298.23 79.12,1265.83 75.52,1265.83 75.52,1219.03 71.92,1219.03 71.92,1183.03 68.32,1183.03 68.32,1049.83 71.92,1049.83 71.92,1006.63 75.52,1006.63 75.52,985.03 79.12,985.03 79.12,952.63 82.72,952.63 82.72,934.63 86.32,934.63 86.32,916.63 89.92,916.63 89.92,895.03 93.52,895.03 93.52,884.23 97.12,884.23 97.12,866.23 100.72,866.23 100.72,844.63 104.32,844.63 104.32,823.03 107.92,823.03 107.92,812.23 111.52,812.23 111.52,797.83 115.12,797.83 115.12,787.03 118.72,787.03 118.72,776.23 122.32,776.23 122.32,765.43 125.92,765.43 125.92,754.63 129.52,754.63 129.52,743.83 133.12,743.83 133.12,733.03 136.72,733.03 136.72,722.23 140.32,722.23 140.32,711.43 143.92,711.43 143.92,704.23 147.52,704.23 147.52,693.43 151.12,693.43 151.12,686.23 154.72,686.23 154.72,679.03 158.32,679.03 158.32,675.43 161.92,675.43 161.92,668.23 165.52,668.23 165.52,661.03 169.12,661.03 169.12,657.43 172.72,657.43 172.72,653.83 176.32,653.83 176.32,650.23 179.92,650.23 179.92,646.63 187.12,646.63 187.12,643.03 194.32,643.03 194.32,646.63 197.92,646.63 197.92,653.83 201.52,653.83 201.52,671.83 205.12,671.83 205.12,819.43 208.72,819.43 208.72,862.63 212.32,862.63 212.32,898.63 215.92,898.63 215.92,927.43 219.52,927.43 219.52,952.63 223.12,952.63 223.12,977.83 226.72,977.83 226.72,992.23 230.32,992.23 230.32,1013.83 233.92,1013.83 233.92,1031.83 237.53,1031.83 237.53,1046.23 241.12,1046.23 241.12,1064.23 244.72,1064.23 244.72,1075.03 248.33,1075.03 248.33,1089.43 251.92,1089.43 251.92,1100.23 255.52,1100.23 255.52,1114.63 259.13,1114.63 259.13,1132.63 262.72,1132.63 262.72,1143.43 266.32,1143.43 266.32,1157.83 269.93,1157.83 269.93,1165.03 273.52,1165.03 273.52,1179.43 277.12,1179.43 277.12,1190.23 280.73,1190.23 280.73,1201.03 284.32,1201.03 284.32,1211.83 287.92,1211.83 287.92,1222.63 291.53,1222.63 291.53,1229.83 295.12,1229.83 295.12,1240.63 298.72,1240.63 298.72,1244.23 302.33,1244.23 302.33,1251.43 305.92,1251.43 305.92,1258.63 309.52,1258.63 309.52,1262.23 313.13,1262.23 313.13,1265.83 316.72,1265.83 316.72,1269.43 320.32,1269.43 320.32,1273.03 323.93,1273.03 323.93,1276.63 327.52,1276.63 327.52,1280.23 334.73,1280.23 334.73,1283.83 341.92,1283.83 341.92,1287.43 349.12,1287.43 349.12,1291.03 374.33,1291.03 374.33,1283.83 363.53,1283.83 363.53,1280.23 356.33,1280.23 356.33,1276.63 349.12,1276.63 349.12,1273.03 341.92,1273.03 341.92,1269.43 338.32,1269.43 338.32,1265.83 334.73,1265.83 334.73,1262.23 331.12,1262.23 331.12,1258.63 327.52,1258.63 327.52,1255.03 323.93,1255.03 323.93,1251.43 320.32,1251.43 320.32,1244.23 316.72,1244.23 316.72,1237.03 313.13,1237.03 313.13,1226.23 309.52,1226.23 309.52,1219.03 305.92,1219.03 305.92,1208.23 302.33,1208.23 302.33,1197.43 298.72,1197.43 298.72,1183.03 295.12,1183.03 295.12,1172.23 291.53,1172.23 291.53,1161.43 287.92,1161.43 287.92,1150.63 284.32,1150.63 284.32,1132.63 280.73,1132.63 280.73,1125.43 277.12,1125.43 277.12,1111.03 273.52,1111.03 273.52,1096.63 269.93,1096.63 269.93,1075.03 266.32,1075.03 266.32,1067.83 262.72,1067.83 262.72,1046.23 259.13,1046.23 259.13,1031.83 255.52,1031.83 255.52,1021.03 251.92,1021.03 251.92,1003.03 248.33,1003.03 248.33,988.63 244.72,988.63 244.72,967.03 241.12,967.03 241.12,949.03 244.72,949.03 244.72,927.43 248.33,927.43 248.33,898.63 251.92,898.63 251.92,880.63 255.52,880.63 255.52,851.83 259.13,851.83 259.13,819.43 262.72,819.43 262.72,790.63 266.32,790.63 266.32,769.03 269.93,769.03 269.93,740.23 273.52,740.23 273.52,725.83 277.12,725.83 277.12,704.23 280.73,704.23 280.73,679.03 284.32,679.03 284.32,668.23 287.92,668.23 287.92,650.23 291.53,650.23 291.53,632.23 295.12,632.23 295.12,625.03 298.72,625.03 298.72,610.63 302.33,610.63 302.33,596.23 305.92,596.23 305.92,581.83 309.52,581.83 309.52,574.63 313.13,574.63 313.13,563.83 316.72,563.83 316.72,556.63 320.32,556.63 320.32,545.83 323.93,545.83 323.93,535.03 327.52,535.03 327.52,527.83 331.12,527.83 331.12,520.63 334.73,520.63 334.73,513.43 338.32,513.43 338.32,506.23 341.92,506.23 341.92,499.03 345.53,499.03 345.53,495.43 349.12,495.43 349.12,488.23 352.72,488.23 352.72,484.63 356.33,484.63 356.33,481.03 359.92,481.03 359.92,477.43 381.52,477.43 "/>
  <polygon id="crown" class="fil1" points="431.93,1449.43 464.33,1449.43 464.33,1453.03 485.93,1453.03 485.93,1456.63 503.93,1456.63 503.93,1460.23 521.93,1460.23 521.93,1463.83 532.73,1463.83 532.73,1467.43 543.53,1467.43 543.53,1471.03 550.73,1471.03 550.73,1474.63 565.13,1474.63 565.13,1478.23 572.33,1478.23 572.33,1481.83 579.53,1481.83 579.53,1485.43 583.13,1485.43 583.13,1489.03 586.73,1489.03 586.73,1492.63 590.33,1492.63 590.33,1499.83 593.93,1499.83 593.93,1503.43 597.53,1503.43 597.53,1510.63 601.13,1510.63 601.13,1521.43 604.73,1521.43 604.73,1528.63 608.33,1528.63 608.33,1539.43 611.93,1539.43 611.93,1546.63 615.53,1546.63 615.53,1557.43 619.13,1557.43 619.13,1564.63 622.73,1564.63 622.73,1575.43 626.33,1575.43 626.33,1586.24 629.93,1586.24 629.93,1597.04 633.53,1597.04 633.53,1604.23 637.13,1604.23 637.13,1622.23 640.73,1622.23 640.73,1633.03 644.33,1633.03 644.33,1651.04 647.93,1651.04 647.93,1661.84 651.53,1661.84 651.53,1676.23 655.13,1676.23 655.13,1705.04 658.73,1705.04 658.73,1773.43 655.13,1773.43 655.13,1791.44 651.53,1791.44 651.53,1802.24 647.93,1802.24 647.93,1813.04 644.33,1813.04 644.33,1820.24 640.73,1820.24 640.73,1831.04 637.13,1831.04 637.13,1838.23 633.53,1838.23 633.53,1845.44 629.93,1845.44 629.93,1856.24 626.33,1856.24 626.33,1863.44 622.73,1863.44 622.73,1867.04 619.13,1867.04 619.13,1874.24 615.53,1874.24 615.53,1877.84 611.93,1877.84 611.93,1885.04 608.33,1885.04 608.33,1888.64 604.73,1888.64 604.73,1895.84 601.13,1895.84 601.13,1899.43 597.53,1899.43 597.53,1903.03 593.93,1903.03 593.93,1906.64 590.33,1906.64 590.33,1913.83 586.73,1913.83 586.73,1917.44 583.13,1917.44 583.13,1921.03 579.53,1921.03 579.53,1924.63 572.33,1924.63 572.33,1928.24 568.73,1928.24 568.73,1931.83 565.13,1931.83 565.13,1935.43 557.93,1935.43 557.93,1939.04 550.73,1939.04 550.73,1942.63 539.93,1942.63 539.93,1946.23 503.93,1946.23 503.93,1942.63 489.53,1942.63 489.53,1939.04 460.73,1939.04 460.73,1935.43 453.53,1935.43 453.53,1931.83 424.72,1931.83 424.72,1928.24 385.13,1928.24 385.13,1924.63 388.73,1924.63 388.73,1917.44 392.32,1917.44 392.32,1910.23 395.93,1910.23 395.93,1892.23 399.53,1892.23 399.53,1870.63 395.93,1870.63 395.93,1867.04 410.33,1867.04 410.33,1870.63 421.13,1870.63 421.13,1874.24 431.93,1874.24 431.93,1877.84 442.73,1877.84 442.73,1881.43 453.53,1881.43 453.53,1885.04 460.73,1885.04 460.73,1888.64 471.53,1888.64 471.53,1892.23 478.72,1892.23 478.72,1895.84 500.33,1895.84 500.33,1899.43 521.93,1899.43 521.93,1895.84 529.13,1895.84 529.13,1892.23 536.33,1892.23 536.33,1888.64 543.53,1888.64 543.53,1885.04 547.13,1885.04 547.13,1881.43 554.33,1881.43 554.33,1877.84 557.93,1877.84 557.93,1874.24 561.53,1874.24 561.53,1867.04 565.13,1867.04 565.13,1863.44 568.73,1863.44 568.73,1859.83 572.33,1859.83 572.33,1852.64 575.93,1852.64 575.93,1849.03 579.53,1849.03 579.53,1841.84 583.13,1841.84 583.13,1831.04 586.73,1831.04 586.73,1827.43 590.33,1827.43 590.33,1809.44 579.53,1809.44 579.53,1823.84 575.93,1823.84 575.93,1827.43 572.33,1827.43 572.33,1834.64 568.73,1834.64 568.73,1841.84 565.13,1841.84 565.13,1845.44 561.53,1845.44 561.53,1849.03 557.93,1849.03 557.93,1856.24 554.33,1856.24 554.33,1859.83 550.73,1859.83 550.73,1863.44 547.13,1863.44 547.13,1867.04 543.53,1867.04 543.53,1870.63 536.33,1870.63 536.33,1874.24 532.73,1874.24 532.73,1877.84 525.53,1877.84 525.53,1881.43 496.73,1881.43 496.73,1877.84 482.33,1877.84 482.33,1874.24 471.53,1874.24 471.53,1870.63 464.33,1870.63 464.33,1867.04 453.53,1867.04 453.53,1863.44 442.73,1863.44 442.73,1859.83 431.93,1859.83 431.93,1856.24 424.72,1856.24 424.72,1852.64 410.33,1852.64 410.33,1849.03 381.52,1849.03 381.52,1841.84 385.13,1841.84 385.13,1831.04 388.73,1831.04 388.73,1816.63 392.32,1816.63 392.32,1809.44 395.93,1809.44 395.93,1737.44 388.73,1737.44 388.73,1755.44 385.13,1755.44 385.13,1769.84 381.52,1769.84 381.52,1805.83 377.93,1805.83 377.93,1813.04 374.33,1813.04 374.33,1827.43 370.72,1827.43 370.72,1834.64 367.13,1834.64 367.13,1845.44 363.53,1845.44 363.53,1849.03 359.92,1849.03 359.92,1852.64 356.33,1852.64 356.33,1856.24 349.12,1856.24 349.12,1859.83 345.53,1859.83 345.53,1863.44 341.92,1863.44 341.92,1867.04 334.73,1867.04 334.73,1870.63 331.12,1870.63 331.12,1874.24 323.93,1874.24 323.93,1877.84 320.32,1877.84 320.32,1881.43 316.72,1881.43 316.72,1885.04 309.52,1885.04 309.52,1888.64 305.92,1888.64 305.92,1892.23 302.33,1892.23 302.33,1895.84 295.12,1895.84 295.12,1899.43 287.92,1899.43 287.92,1903.03 284.32,1903.03 284.32,1906.64 277.12,1906.64 277.12,1910.23 269.93,1910.23 269.93,1913.83 266.32,1913.83 266.32,1917.44 259.13,1917.44 259.13,1921.03 251.92,1921.03 251.92,1924.63 244.72,1924.63 244.72,1928.24 230.32,1928.24 230.32,1931.83 179.92,1931.83 179.92,1928.24 169.12,1928.24 169.12,1924.63 161.92,1924.63 161.92,1921.03 154.72,1921.03 154.72,1917.44 147.52,1917.44 147.52,1913.83 140.32,1913.83 140.32,1910.23 136.72,1910.23 136.72,1906.64 129.52,1906.64 129.52,1903.03 125.92,1903.03 125.92,1899.43 122.32,1899.43 122.32,1895.84 118.72,1895.84 118.72,1892.23 115.12,1892.23 115.12,1888.64 111.52,1888.64 111.52,1885.04 107.92,1885.04 107.92,1881.43 100.72,1881.43 100.72,1895.84 104.32,1895.84 104.32,1899.43 107.92,1899.43 107.92,1903.03 111.52,1903.03 111.52,1906.64 115.12,1906.64 115.12,1910.23 118.72,1910.23 118.72,1913.83 122.32,1913.83 122.32,1917.44 125.92,1917.44 125.92,1921.03 133.12,1921.03 133.12,1924.63 140.32,1924.63 140.32,1928.24 143.92,1928.24 143.92,1931.83 151.12,1931.83 151.12,1935.43 158.32,1935.43 158.32,1939.04 169.12,1939.04 169.12,1942.63 179.92,1942.63 179.92,1946.23 190.72,1946.23 190.72,1949.84 230.32,1949.84 230.32,1946.23 237.53,1946.23 237.53,1942.63 248.33,1942.63 248.33,1939.04 255.52,1939.04 255.52,1935.43 262.72,1935.43 262.72,1931.83 269.93,1931.83 269.93,1928.24 277.12,1928.24 277.12,1924.63 284.32,1924.63 284.32,1921.03 291.53,1921.03 291.53,1917.44 295.12,1917.44 295.12,1913.83 302.33,1913.83 302.33,1910.23 309.52,1910.23 309.52,1906.64 313.13,1906.64 313.13,1903.03 316.72,1903.03 316.72,1899.43 323.93,1899.43 323.93,1895.84 327.52,1895.84 327.52,1892.23 331.12,1892.23 331.12,1888.64 338.32,1888.64 338.32,1885.04 341.92,1885.04 341.92,1881.43 349.12,1881.43 349.12,1877.84 352.72,1877.84 352.72,1874.24 359.92,1874.24 359.92,1870.63 363.53,1870.63 363.53,1867.04 392.32,1867.04 392.32,1870.63 388.73,1870.63 388.73,1892.23 385.13,1892.23 385.13,1906.64 381.52,1906.64 381.52,1913.83 377.93,1913.83 377.93,1921.03 374.33,1921.03 374.33,1931.83 370.72,1931.83 370.72,1935.43 359.92,1935.43 359.92,1939.04 352.72,1939.04 352.72,1942.63 345.53,1942.63 345.53,1946.23 338.32,1946.23 338.32,1949.84 331.12,1949.84 331.12,1953.43 323.93,1953.43 323.93,1957.03 320.32,1957.03 320.32,1960.64 313.13,1960.64 313.13,1964.23 305.92,1964.23 305.92,1967.83 302.33,1967.83 302.33,1971.44 295.12,1971.44 295.12,1975.03 291.53,1975.03 291.53,1978.63 284.32,1978.63 284.32,1982.24 277.12,1982.24 277.12,1985.83 269.93,1985.83 269.93,1989.43 262.72,1989.43 262.72,1993.04 251.92,1993.04 251.92,1996.63 241.12,1996.63 241.12,2000.24 215.92,2000.24 215.92,1996.63 201.52,1996.63 201.52,1993.04 190.72,1993.04 190.72,1989.43 183.52,1989.43 183.52,1985.83 176.32,1985.83 176.32,1982.24 169.12,1982.24 169.12,1978.63 161.92,1978.63 161.92,1975.03 158.32,1975.03 158.32,1971.44 151.12,1971.44 151.12,1967.83 143.92,1967.83 143.92,1964.23 140.32,1964.23 140.32,1960.64 133.12,1960.64 133.12,1957.03 129.52,1957.03 129.52,1953.43 125.92,1953.43 125.92,1949.84 122.32,1949.84 122.32,1946.23 115.12,1946.23 115.12,1942.63 111.52,1942.63 111.52,1939.04 107.92,1939.04 107.92,1935.43 104.32,1935.43 104.32,1931.83 100.72,1931.83 100.72,1928.24 97.12,1928.24 97.12,1924.63 93.52,1924.63 93.52,1921.03 89.92,1921.03 89.92,1917.44 86.32,1917.44 86.32,1913.83 82.72,1913.83 82.72,1910.23 79.12,1910.23 79.12,1906.64 75.52,1906.64 75.52,1899.43 71.92,1899.43 71.92,1895.84 68.32,1895.84 68.32,1892.23 64.72,1892.23 64.72,1885.04 61.12,1885.04 61.12,1881.43 57.52,1881.43 57.52,1874.24 53.92,1874.24 53.92,1870.63 50.32,1870.63 50.32,1863.44 46.72,1863.44 46.72,1856.24 43.12,1856.24 43.12,1849.03 39.52,1849.03 39.52,1841.84 35.92,1841.84 35.92,1834.64 32.32,1834.64 32.32,1823.84 28.72,1823.84 28.72,1813.04 25.12,1813.04 25.12,1795.03 21.52,1795.03 21.52,1715.84 25.12,1715.84 25.12,1690.63 28.72,1690.63 28.72,1672.64 32.32,1672.64 32.32,1661.84 35.92,1661.84 35.92,1647.43 39.52,1647.43 39.52,1629.44 43.12,1629.44 43.12,1618.64 46.72,1618.64 46.72,1604.23 50.32,1604.23 50.32,1597.04 53.92,1597.04 53.92,1586.24 57.52,1586.24 57.52,1571.83 61.12,1571.83 61.12,1561.03 64.72,1561.03 64.72,1543.03 68.32,1543.03 68.32,1525.03 71.92,1525.03 71.92,1521.43 75.52,1521.43 75.52,1517.83 82.72,1517.83 82.72,1514.23 86.32,1514.23 86.32,1510.63 93.52,1510.63 93.52,1507.03 97.12,1507.03 97.12,1503.43 104.32,1503.43 104.32,1499.83 111.52,1499.83 111.52,1496.23 118.72,1496.23 118.72,1492.63 129.52,1492.63 129.52,1489.03 136.72,1489.03 136.72,1485.43 147.52,1485.43 147.52,1481.83 154.72,1481.83 154.72,1478.23 165.52,1478.23 165.52,1474.63 172.72,1474.63 172.72,1471.03 183.52,1471.03 183.52,1467.43 201.52,1467.43 201.52,1463.83 219.52,1463.83 219.52,1460.23 233.92,1460.23 233.92,1456.63 251.92,1456.63 251.92,1453.03 277.12,1453.03 277.12,1449.43 295.12,1449.43 295.12,1445.83 431.93,1445.83 "/>
  <path id="outline" class="fil2" d="M395.93 1809.44l-3.61 0 0 7.19 -3.59 0 0 14.41 -3.6 0 0 10.8 -3.61 0 0 7.19 28.81 0 0 3.61 14.39 0 0 3.6 7.21 0 0 3.59 10.8 0 0 3.61 10.8 0 0 3.6 10.8 0 0 3.59 7.2 0 0 3.61 10.8 0 0 3.6 14.4 0 0 3.59 28.8 0 0 -3.59 7.2 0 0 -3.6 3.6 0 0 -3.61 7.2 0 0 -3.59 3.6 0 0 -3.6 3.6 0 0 -3.61 3.6 0 0 -3.59 3.6 0 0 -7.21 3.6 0 0 -3.59 3.6 0 0 -3.6 3.6 0 0 -7.2 3.6 0 0 -7.21 3.6 0 0 -3.59 3.6 0 0 -14.4 10.8 0 0 17.99 -3.6 0 0 3.61 -3.6 0 0 10.8 -3.6 0 0 7.19 -3.6 0 0 3.61 -3.6 0 0 7.19 -3.6 0 0 3.61 -3.6 0 0 3.6 -3.6 0 0 7.2 -3.6 0 0 3.6 -3.6 0 0 3.59 -7.2 0 0 3.61 -3.6 0 0 3.6 -7.2 0 0 3.59 -7.2 0 0 3.61 -7.2 0 0 3.59 -21.6 0 0 -3.59 -21.61 0 0 -3.61 -7.19 0 0 -3.59 -10.8 0 0 -3.6 -7.2 0 0 -3.61 -10.8 0 0 -3.59 -10.8 0 0 -3.6 -10.8 0 0 -3.61 -10.8 0 0 -3.59 -14.4 0 0 3.59 3.6 0 0 21.6 -3.6 0 0 18 -3.61 0 0 7.21 -3.59 0 0 7.19 -3.6 0 0 3.61 39.59 0 0 3.59 28.81 0 0 3.6 7.2 0 0 3.61 28.8 0 0 3.59 14.4 0 0 3.6 36 0 0 -3.6 10.8 0 0 -3.59 7.2 0 0 -3.61 7.2 0 0 -3.6 3.6 0 0 -3.59 3.6 0 0 -3.61 7.2 0 0 -3.6 3.6 0 0 -3.59 3.6 0 0 -3.61 3.6 0 0 -7.19 3.6 0 0 -3.61 3.6 0 0 -3.6 3.6 0 0 -3.59 3.6 0 0 -7.2 3.6 0 0 -3.6 3.6 0 0 -7.2 3.6 0 0 -3.6 3.6 0 0 -7.2 3.6 0 0 -3.6 3.6 0 0 -7.2 3.6 0 0 -10.8 3.6 0 0 -7.21 3.6 0 0 -7.19 3.6 0 0 -10.8 3.6 0 0 -7.2 3.6 0 0 -10.8 3.6 0 0 -10.8 3.6 0 0 -18.01 3.6 0 0 -68.39 -3.6 0 0 -28.81 -3.6 0 0 -14.39 -3.6 0 0 -10.8 -3.6 0 0 -18.01 -3.6 0 0 -10.8 -3.6 0 0 -18 -3.6 0 0 -7.19 -3.6 0 0 -10.8 -3.6 0 0 -10.81 -3.6 0 0 -10.8 -3.6 0 0 -7.2 -3.6 0 0 -10.8 -3.6 0 0 -7.2 -3.6 0 0 -10.8 -3.6 0 0 -7.2 -3.6 0 0 -10.8 -3.6 0 0 -7.2 -3.6 0 0 -2.01c-9.41,4.59 -2.68,5.37 -13.46,15.36 -25.6,23.74 -26.22,30.59 -55.44,39.46 -18.12,5.51 -15.31,7.17 -29.96,-0.28 -14.65,10.32 -14.76,6.97 -16.63,25.63 -6.08,3.32 -8.83,1.34 -14.59,5.39l-1.29 15.67c-6.57,2.06 -13.51,0.57 -19.55,2.68 -7.14,2.49 -10.38,9.59 -16.15,13.79 -3.52,-3.6 -8.82,-7.72 -12.9,-10.32 -4.9,1.17 -8.34,3.84 -12.48,3.82 -4.69,-0.03 -5.29,-2.49 -11.51,-0.43 -4.55,1.5 -9.55,6.11 -13.32,6.85 -5.48,1.08 -4,-2.72 -9.94,-4.03 -9.54,12.72 0.52,25.97 -26.77,29.64 -26.25,3.53 -17.39,11.72 -30.03,27.06 -16.04,-5.49 -12.03,-18.52 -41.49,0.26 -6.7,4.27 -17.42,12.55 -24.34,11.7 -10.21,-1.25 -8.6,-8.22 -21.7,1.31 -1.87,17.57 0.05,8.12 -10.23,22.28 -8.75,12.06 1.24,10.11 -18.8,16.83 -20.19,6.76 -21.92,3.88 -27.32,5.72 -10.51,3.56 -10.89,10.55 -16.18,20.74 -6.7,1.58 -11.57,-0.54 -21.01,2.53l-6.92 2.27c12.29,-7.94 16.08,-4.21 26.7,-7.08 3.96,-7.34 2.71,-14.45 13.94,-20.02 6.32,-3.14 18.28,-4.17 26.85,-6.94 19.4,-6.28 10.54,-5.55 17.87,-16.42 7.61,-11.29 9.12,-6.52 7.73,-22.29 35.12,-24.36 15.39,6.1 47.35,-15.26 22.91,-15.3 20.87,-17.9 43.93,-10.38 4.7,-5.92 5.7,-11.33 13.2,-18.2 9.2,-8.44 26.21,0.42 29.53,-14.84 1.21,-5.54 1.19,-5.11 3.59,-10.27 3.48,-7.44 5.98,-13.28 9.83,-19.96l16.24 9.14c5.76,-2.37 7.92,-5.75 13.5,-6.75 5.03,-0.9 6.87,1.97 12.04,0.73 14.82,-3.58 9.64,-12.84 23.93,-0.96 7.99,-5.75 7.58,-4.75 16.28,-7.88 -0.86,-5.83 0.02,-9.88 -0.5,-15.08l15.62 -4.01c2.63,-23.86 1.13,-7.8 19.86,-24.53 5.42,-4.85 8.2,-9.95 13.81,-13.86 11.41,5.98 18.38,10.01 27.11,7.05 24.36,-8.23 15.52,-14.44 25.22,-20.84 12.5,-8.25 7.66,2.51 17.53,-15.63 6.69,-12.3 10.33,-16.56 15.54,-19.24l-6.29 0 0 -3.6 -7.2 0 0 -3.6 -14.4 0 0 -3.6 -7.2 0 0 -3.6 -10.8 0 0 -3.6 -10.8 0 0 -3.6 -18 0 0 -3.6 -18 0 0 -3.6 -21.6 0 0 -3.6 -32.4 0 0 -3.6 -136.81 0 0 3.6 -18 0 0 3.6 -25.2 0 0 3.6 -18 0 0 3.6 -14.4 0 0 3.6 -18 0 0 3.6 -18 0 0 3.6 -10.8 0 0 3.6 -7.2 0 0 3.6 -10.8 0 0 3.6 -7.2 0 0 3.6 -10.8 0 0 3.6 -7.2 0 0 3.6 -10.8 0 0 3.6 -7.2 0 0 3.6 -7.2 0 0 3.6 -7.2 0 0 3.6 -3.6 0 0 3.6 -7.2 0 0 3.6 -3.6 0 0 3.6 -7.2 0 0 3.6 -3.6 0 0 3.6 -3.6 0 0 18 -3.6 0 0 18 -3.6 0 0 10.8 -3.6 0 0 14.41 -3.6 0 0 10.8 -3.6 0 0 7.19 -3.6 0 0 14.41 -3.6 0 0 10.8 -3.6 0 0 17.99 -3.6 0 0 14.41 -3.6 0 0 10.8 -3.6 0 0 17.99 -3.6 0 0 25.21 -3.6 0 0 79.19 3.6 0 0 18.01 3.6 0 0 10.8 3.6 0 0 10.8 3.6 0 0 7.2 3.6 0 0 7.19 3.6 0 0 7.21 3.6 0 0 7.2 3.6 0 0 7.19 3.6 0 0 3.61 3.6 0 0 7.19 3.6 0 0 3.61 3.6 0 0 7.19 3.6 0 0 3.61 3.6 0 0 3.59 3.6 0 0 7.21 3.6 0 0 3.59 3.6 0 0 3.6 3.6 0 0 3.61 3.6 0 0 3.59 3.6 0 0 3.6 3.6 0 0 3.61 3.6 0 0 3.59 3.6 0 0 3.6 3.6 0 0 3.61 3.6 0 0 3.59 3.6 0 0 3.6 7.2 0 0 3.61 3.6 0 0 3.59 3.6 0 0 3.6 3.6 0 0 3.61 7.2 0 0 3.59 3.6 0 0 3.6 7.2 0 0 3.61 7.2 0 0 3.59 3.6 0 0 3.6 7.2 0 0 3.61 7.2 0 0 3.59 7.2 0 0 3.6 7.2 0 0 3.61 10.8 0 0 3.59 14.4 0 0 3.61 25.2 0 0 -3.61 10.8 0 0 -3.59 10.8 0 0 -3.61 7.21 0 0 -3.6 7.19 0 0 -3.59 7.2 0 0 -3.61 7.21 0 0 -3.6 3.59 0 0 -3.59 7.21 0 0 -3.61 3.59 0 0 -3.6 7.21 0 0 -3.59 7.19 0 0 -3.61 3.61 0 0 -3.6 7.19 0 0 -3.59 7.2 0 0 -3.61 7.21 0 0 -3.6 7.19 0 0 -3.59 7.2 0 0 -3.61 10.8 0 0 -3.6 3.61 0 0 -10.8 3.6 0 0 -7.2 3.59 0 0 -7.19 3.61 0 0 -14.41 3.6 0 0 -21.6 3.59 0 0 -3.59 -28.79 0 0 3.59 -3.61 0 0 3.61 -7.2 0 0 3.6 -3.6 0 0 3.59 -7.2 0 0 3.61 -3.6 0 0 3.6 -7.2 0 0 3.59 -3.6 0 0 3.61 -3.59 0 0 3.59 -7.21 0 0 3.6 -3.59 0 0 3.61 -3.61 0 0 3.59 -7.19 0 0 3.6 -7.21 0 0 3.61 -3.59 0 0 3.59 -7.21 0 0 3.6 -7.2 0 0 3.61 -7.19 0 0 3.59 -7.21 0 0 3.6 -7.2 0 0 3.61 -7.19 0 0 3.59 -10.8 0 0 3.6 -7.21 0 0 3.61 -39.6 0 0 -3.61 -10.8 0 0 -3.6 -10.8 0 0 -3.59 -10.8 0 0 -3.61 -7.2 0 0 -3.6 -7.2 0 0 -3.59 -3.6 0 0 -3.61 -7.2 0 0 -3.6 -7.2 0 0 -3.59 -3.6 0 0 -3.61 -3.6 0 0 -3.6 -3.6 0 0 -3.59 -3.6 0 0 -3.61 -3.6 0 0 -3.6 -3.6 0 0 -3.59 -3.6 0 0 -14.41 7.2 0 0 3.61 3.6 0 0 3.6 3.6 0 0 3.59 3.6 0 0 3.61 3.6 0 0 3.59 3.6 0 0 3.6 3.6 0 0 3.61 7.2 0 0 3.59 3.6 0 0 3.6 7.2 0 0 3.61 7.2 0 0 3.59 7.2 0 0 3.6 7.2 0 0 3.61 10.8 0 0 3.59 50.4 0 0 -3.59 14.4 0 0 -3.61 7.2 0 0 -3.6 7.21 0 0 -3.59 7.19 0 0 -3.61 3.61 0 0 -3.6 7.19 0 0 -3.59 7.2 0 0 -3.61 3.6 0 0 -3.6 7.2 0 0 -3.59 7.21 0 0 -3.61 3.59 0 0 -3.59 3.6 0 0 -3.6 7.2 0 0 -3.61 3.6 0 0 -3.59 3.61 0 0 -3.6 7.19 0 0 -3.61 3.61 0 0 -3.59 7.19 0 0 -3.6 3.61 0 0 -3.61 3.59 0 0 -3.59 7.21 0 0 -3.6 3.59 0 0 -3.61 3.61 0 0 -3.59 3.6 0 0 -10.8 3.59 0 0 -7.21 3.61 0 0 -14.39 3.6 0 0 -7.21 3.59 0 0 -35.99 3.61 0 0 -14.4 3.6 0 0 -18 7.2 0 0 72zm-3.61 -1317.61l-3.59 0 0 -7.2 -3.6 0 0 -3.6 -3.61 0 0 -3.6 -21.6 0 0 3.6 -3.59 0 0 3.6 -3.61 0 0 3.6 -3.6 0 0 7.2 -3.59 0 0 3.6 -3.61 0 0 7.2 -3.6 0 0 7.2 -3.59 0 0 7.2 -3.61 0 0 7.2 -3.6 0 0 7.2 -3.59 0 0 10.8 -3.61 0 0 10.8 -3.6 0 0 7.2 -3.59 0 0 10.8 -3.61 0 0 7.2 -3.6 0 0 14.4 -3.59 0 0 14.4 -3.61 0 0 14.4 -3.6 0 0 7.2 -3.59 0 0 18 -3.61 0 0 18 -3.6 0 0 10.8 -3.59 0 0 25.2 -3.61 0 0 21.6 -3.6 0 0 14.4 -3.59 0 0 28.8 -3.61 0 0 21.6 -3.6 0 0 28.8 -3.59 0 0 32.4 -3.61 0 0 28.8 -3.6 0 0 18 -3.59 0 0 28.8 -3.61 0 0 21.6 -3.6 0 0 18 3.6 0 0 21.6 3.61 0 0 14.4 3.59 0 0 18 3.6 0 0 10.8 3.61 0 0 14.4 3.59 0 0 21.6 3.6 0 0 7.2 3.61 0 0 21.6 3.59 0 0 14.4 3.6 0 0 14.4 3.61 0 0 7.2 3.59 0 0 18 3.6 0 0 10.8 3.61 0 0 10.8 3.59 0 0 10.8 3.6 0 0 14.4 3.61 0 0 10.8 3.59 0 0 10.8 3.6 0 0 7.2 3.61 0 0 10.8 3.59 0 0 7.2 3.6 0 0 7.2 3.61 0 0 3.6 3.59 0 0 3.6 3.6 0 0 3.6 3.61 0 0 3.6 3.59 0 0 3.6 3.6 0 0 3.6 7.2 0 0 3.6 7.21 0 0 3.6 7.2 0 0 3.6 10.8 0 0 7.2 -25.21 0 0 -3.6 -7.2 0 0 -3.6 -7.19 0 0 -3.6 -7.21 0 0 -3.6 -3.59 0 0 -3.6 -3.61 0 0 -3.6 -3.6 0 0 -3.6 -3.59 0 0 -3.6 -3.61 0 0 -3.6 -3.6 0 0 -7.2 -3.59 0 0 -7.2 -3.61 0 0 -3.6 -3.6 0 0 -10.8 -3.59 0 0 -7.2 -3.61 0 0 -10.8 -3.6 0 0 -10.8 -3.59 0 0 -10.8 -3.61 0 0 -10.8 -3.6 0 0 -14.4 -3.59 0 0 -7.2 -3.61 0 0 -14.4 -3.6 0 0 -10.8 -3.59 0 0 -18 -3.61 0 0 -14.4 -3.6 0 0 -10.8 -3.59 0 0 -14.4 -3.61 0 0 -10.8 -3.6 0 0 -18 -3.59 0 0 -14.4 -3.61 0 0 -18 -3.6 0 0 -21.6 -3.6 0 0 -14.4 -3.6 0 0 -25.2 -3.6 0 0 -25.2 -3.6 0 0 -28.8 -3.6 0 0 -36 -3.6 0 0 -43.2 -3.6 0 0 -147.6 -3.6 0 0 -18 -3.6 0 0 -7.2 -3.6 0 0 -3.6 -7.2 0 0 3.6 -7.2 0 0 3.6 -3.6 0 0 3.6 -3.6 0 0 3.6 -3.6 0 0 3.6 -3.6 0 0 7.2 -3.6 0 0 7.2 -3.6 0 0 3.6 -3.6 0 0 7.2 -3.6 0 0 7.2 -3.6 0 0 10.8 -3.6 0 0 7.2 -3.6 0 0 10.8 -3.6 0 0 10.8 -3.6 0 0 10.8 -3.6 0 0 10.8 -3.6 0 0 10.8 -3.6 0 0 10.8 -3.6 0 0 10.8 -3.6 0 0 10.8 -3.6 0 0 14.4 -3.6 0 0 10.8 -3.6 0 0 21.6 -3.6 0 0 21.6 -3.6 0 0 18 -3.6 0 0 10.8 -3.6 0 0 21.6 -3.6 0 0 18 -3.6 0 0 18 -3.6 0 0 32.4 -3.6 0 0 21.6 -3.6 0 0 43.2 -3.6 0 0 133.2 3.6 0 0 36 3.6 0 0 46.8 3.6 0 0 32.4 3.6 0 0 154.8 -3.6 0 0 21.6 -3.6 0 0 25.2 3.6 0 0 -3.6 7.2 0 0 -3.6 7.2 0 0 -3.6 7.2 0 0 -3.6 7.2 0 0 -3.6 7.2 0 0 -3.6 7.2 0 0 -3.6 7.2 0 0 -3.6 10.8 0 0 -3.6 7.2 0 0 -3.6 10.8 0 0 -3.6 10.8 0 0 -3.6 10.8 0 0 -3.6 10.8 0 0 -3.6 18 0 0 -3.6 18 0 0 -3.6 14.4 0 0 -3.6 14.4 0 0 -3.6 28.8 0 0 -3.6 32.4 0 0 -3.6 108 0 0 3.6 36.01 0 0 3.6 14.4 0 0 3.6 21.6 0 0 3.6 14.4 0 0 3.6 10.8 0 0 3.6 14.4 0 0 3.6 7.2 0 0 3.6 7.2 0 0 3.6 14.4 0 0 3.6 7.2 0 0 3.6 10.8 0 0 -3.6 -3.6 0 0 -43.2 -3.6 0 0 -21.6 -3.6 0 0 -154.8 3.6 0 0 -43.2 3.6 0 0 -28.8 3.6 0 0 -25.2 3.6 0 0 -25.2 3.6 0 0 -21.6 3.6 0 0 -25.2 3.6 0 0 -18 3.6 0 0 -39.6 3.6 0 0 -158.4 -3.6 0 0 -28.8 -3.6 0 0 -18 -3.6 0 0 -28.8 -3.6 0 0 -36 -3.6 0 0 -21.6 -3.6 0 0 -18 -3.6 0 0 -18 -3.6 0 0 -21.6 -3.6 0 0 -14.4 -3.6 0 0 -7.2 -3.6 0 0 -14.4 -3.6 0 0 -10.8 -3.6 0 0 -10.8 -3.6 0 0 -7.2 -3.6 0 0 -10.8 -3.6 0 0 -3.6 -3.6 0 0 -7.2 -3.6 0 0 -7.2 -3.6 0 0 -3.6 -3.6 0 0 -3.6 -3.6 0 0 -3.6 -14.4 0 0 3.6 -3.6 0 0 3.6 -3.6 0 0 7.2 -3.6 0 0 7.2 -3.6 0 0 18 -3.6 0 0 25.2 -3.6 0 0 28.8 -3.6 0 0 64.8 -3.6 0 0 32.4 -3.6 0 0 14.4 -3.61 0 0 25.2 -3.59 0 0 39.6 -3.6 0 0 14.4 -3.61 0 0 32.4 -3.59 0 0 10.8 -3.6 0 0 14.4 -3.61 0 0 7.2 -3.59 0 0 10.8 -3.6 0 0 10.8 -3.61 0 0 14.4 -3.59 0 0 7.2 -3.6 0 0 10.8 -3.61 0 0 10.8 -3.59 0 0 10.8 -3.6 0 0 7.2 -3.61 0 0 14.4 -3.59 0 0 7.2 -3.6 0 0 7.2 -3.61 0 0 10.8 -3.59 0 0 14.4 -3.6 0 0 7.2 -3.61 0 0 14.4 -3.59 0 0 14.4 -3.6 0 0 10.8 -3.61 0 0 7.2 -3.59 0 0 18 -3.6 0 0 14.4 -3.61 0 0 7.2 -3.59 0 0 25.2 -3.6 0 0 10.8 -3.61 0 0 14.4 -3.59 0 0 21.6 -3.6 0 0 14.4 -3.61 0 0 7.2 -3.59 0 0 7.2 -3.61 0 0 3.6 -3.6 0 0 -25.2 3.6 0 0 -32.4 3.61 0 0 -18 3.59 0 0 -28.8 3.61 0 0 -14.4 3.6 0 0 -10.8 3.59 0 0 -18 3.61 0 0 -14.4 3.6 0 0 -7.2 3.59 0 0 -14.4 3.61 0 0 -14.4 3.6 0 0 -7.2 3.59 0 0 -14.4 3.61 0 0 -10.8 3.6 0 0 -10.8 3.59 0 0 -10.8 3.61 0 0 -7.2 3.6 0 0 -10.8 3.59 0 0 -14.4 3.61 0 0 -7.2 3.6 0 0 -14.4 3.59 0 0 -10.8 -3.59 0 0 -18 -3.6 0 0 -10.8 -3.61 0 0 -32.4 -3.59 0 0 -18 -3.6 0 0 -32.4 -3.61 0 0 -18 -3.59 0 0 -21.6 -3.6 0 0 -32.4 -3.61 0 0 -32.4 -3.59 0 0 -126 3.59 0 0 -97.2zm-10.8 -36l7.21 0 0 3.6 7.2 0 0 3.6 3.6 0 0 3.6 3.59 0 0 3.6 3.61 0 0 7.2 3.6 0 0 7.2 3.59 0 0 14.4 3.61 0 0 68.4 -3.61 0 0 43.2 -3.59 0 0 111.6 3.59 0 0 25.2 3.61 0 0 21.6 3.6 0 0 25.2 3.59 0 0 28.8 3.61 0 0 18 3.6 0 0 28.8 3.59 0 0 21.6 7.21 0 0 -21.6 3.59 0 0 -28.8 3.61 0 0 -28.8 3.6 0 0 -14.4 3.59 0 0 -32.4 3.61 0 0 -28.8 3.6 0 0 -46.8 3.59 0 0 -43.2 3.61 0 0 -39.6 3.6 0 0 -10.8 3.59 0 0 -14.4 3.61 0 0 -10.8 3.6 0 0 -7.2 3.6 0 0 -7.2 3.6 0 0 -3.6 3.6 0 0 -3.6 3.6 0 0 -3.6 3.6 0 0 -3.6 7.2 0 0 -3.6 21.6 0 0 3.6 7.2 0 0 3.6 3.6 0 0 3.6 3.6 0 0 3.6 3.6 0 0 3.6 3.6 0 0 3.6 3.6 0 0 7.2 3.6 0 0 7.2 3.6 0 0 3.6 3.6 0 0 7.2 3.6 0 0 10.8 3.6 0 0 7.2 3.6 0 0 10.8 3.6 0 0 7.2 3.6 0 0 18 3.6 0 0 10.8 3.6 0 0 10.8 3.6 0 0 18 3.6 0 0 21.6 3.6 0 0 18 3.6 0 0 21.6 3.6 0 0 18 3.6 0 0 25.2 3.6 0 0 28.8 3.6 0 0 28.8 3.6 0 0 57.6 3.6 0 0 90 -3.6 0 0 54 -3.6 0 0 28.8 -3.6 0 0 21.6 -3.6 0 0 14.4 -3.6 0 0 28.8 -3.6 0 0 18 -3.6 0 0 28.8 -3.6 0 0 28.8 -3.6 0 0 36 -3.6 0 0 144 3.6 0 0 36 3.6 0 0 21.6 3.6 0 0 14.4 3.6 0 0 14.4 3.6 0 0 10.8 3.6 0 0 10.8 3.6 0 0 7.2 3.6 0 0 7.2 3.6 0 0 7.2 3.6 0 0 7.2 3.6 0 0 10.8 3.6 0 0 7.2 3.6 0 0 10.8 3.6 0 0 7.2 3.6 0 0 14.4 3.6 0 0 10.8 3.6 0 0 10.8 3.6 0 0 10.8 3.6 0 0 10.8 3.6 0 0 18.01 3.6 0 0 7.19 3.6 0 0 18 3.6 0 0 25.2 3.6 0 0 32.41 3.6 0 0 32.4 -3.6 0 0 25.2 -3.6 0 0 18 -3.6 0 0 10.8 -3.6 0 0 10.8 -3.6 0 0 7.19 -3.6 0 0 10.8 -3.6 0 0 7.21 -3.6 0 0 7.2 -3.6 0 0 7.19 -3.6 0 0 10.8 -3.6 0 0 3.61 -3.6 0 0 3.6 -3.6 0 0 7.2 -3.6 0 0 7.19 -3.6 0 0 7.2 -3.6 0 0 3.6 -3.6 0 0 3.61 -3.6 0 0 7.19 -3.6 0 0 3.61 -3.6 0 0 3.59 -3.6 0 0 3.6 -3.6 0 0 3.61 -3.6 0 0 3.59 -3.6 0 0 3.6 -3.6 0 0 3.61 -3.6 0 0 3.59 -3.6 0 0 3.6 -3.6 0 0 3.61 -7.2 0 0 3.59 -3.6 0 0 3.6 -7.2 0 0 3.61 -7.2 0 0 3.59 -14.4 0 0 3.6 -39.6 0 0 -3.6 -25.21 0 0 -3.59 -14.39 0 0 -3.61 -14.4 0 0 -3.6 -75.6 0 0 3.6 -10.8 0 0 3.61 -7.2 0 0 3.59 -7.21 0 0 3.6 -7.2 0 0 3.61 -3.6 0 0 3.59 -7.2 0 0 3.6 -3.6 0 0 3.61 -7.2 0 0 3.59 -3.6 0 0 3.6 -7.2 0 0 3.61 -7.19 0 0 3.59 -3.61 0 0 3.61 -7.19 0 0 3.6 -7.21 0 0 3.59 -7.2 0 0 3.61 -7.19 0 0 3.6 -10.8 0 0 3.59 -14.41 0 0 3.61 -28.8 0 0 -3.61 -18 0 0 -3.59 -10.8 0 0 -3.6 -10.8 0 0 -3.61 -7.2 0 0 -3.59 -7.2 0 0 -3.6 -7.2 0 0 -3.61 -7.2 0 0 -3.59 -3.6 0 0 -3.61 -7.2 0 0 -3.6 -3.6 0 0 -3.59 -7.2 0 0 -3.61 -3.6 0 0 -3.6 -7.2 0 0 -3.59 -3.6 0 0 -3.61 -7.2 0 0 -3.6 -3.6 0 0 -3.59 -3.6 0 0 -3.61 -3.6 0 0 -3.6 -7.2 0 0 -3.59 -3.6 0 0 -3.61 -3.6 0 0 -3.6 -3.6 0 0 -7.2 -3.6 0 0 -3.6 -3.6 0 0 -3.59 -3.6 0 0 -3.61 -3.6 0 0 -3.6 -3.6 0 0 -3.59 -3.6 0 0 -7.21 -3.6 0 0 -3.59 -3.6 0 0 -3.61 -3.6 0 0 -7.19 -3.6 0 0 -3.61 -3.6 0 0 -7.19 -3.6 0 0 -7.2 -3.6 0 0 -3.6 -3.6 0 0 -10.8 -3.6 0 0 -7.2 -3.6 0 0 -7.21 -3.6 0 0 -7.19 -3.6 0 0 -10.8 -3.6 0 0 -10.8 -3.6 0 0 -21.6 -3.6 0 0 -93.6 3.6 0 0 -25.21 3.6 0 0 -10.8 3.6 0 0 -14.4 3.6 0 0 -14.39 3.6 0 0 -18.01 3.6 0 0 -10.8 3.6 0 0 -14.39 3.6 0 0 -10.8 3.6 0 0 -10.81 3.6 0 0 -14.4 3.6 0 0 -7.2 3.6 0 0 -10.8 3.6 0 0 -21.6 3.6 0 0 -18 3.6 0 0 -28.8 3.6 0 0 -205.2 -3.6 0 0 -54 -3.6 0 0 -50.4 -3.6 0 0 -122.4 3.6 0 0 -28.8 3.6 0 0 -32.4 3.6 0 0 -28.8 3.6 0 0 -18 3.6 0 0 -21.6 3.6 0 0 -21.6 3.6 0 0 -18 3.6 0 0 -18 3.6 0 0 -21.6 3.6 0 0 -14.4 3.6 0 0 -10.8 3.6 0 0 -18 3.6 0 0 -14.4 3.6 0 0 -7.2 3.6 0 0 -14.4 3.6 0 0 -10.8 3.6 0 0 -10.8 3.6 0 0 -7.2 3.6 0 0 -14.4 3.6 0 0 -7.2 3.6 0 0 -10.8 3.6 0 0 -7.2 3.6 0 0 -7.2 3.6 0 0 -7.2 3.6 0 0 -7.2 3.6 0 0 -7.2 3.6 0 0 -3.6 3.6 0 0 -7.2 3.6 0 0 -3.6 3.6 0 0 -3.6 3.6 0 0 -3.6 3.6 0 0 -3.6 3.6 0 0 -3.6 7.2 0 0 -3.6 7.2 0 0 -3.6 21.6 0 0 3.6 7.2 0 0 3.6 3.6 0 0 7.2 3.6 0 0 3.6 3.6 0 0 10.8 3.6 0 0 14.4 3.6 0 0 14.4 3.6 0 0 180 3.6 0 0 -18 3.61 0 0 -25.2 3.59 0 0 -25.2 3.6 0 0 -25.2 3.61 0 0 -32.4 3.59 0 0 -21.6 3.6 0 0 -14.4 3.61 0 0 -21.6 3.59 0 0 -14.4 3.6 0 0 -21.6 3.61 0 0 -14.4 3.59 0 0 -14.4 3.6 0 0 -7.2 3.61 0 0 -14.4 3.59 0 0 -10.8 3.6 0 0 -7.2 3.61 0 0 -14.4 3.59 0 0 -10.8 3.6 0 0 -7.2 3.61 0 0 -7.2 3.59 0 0 -10.8 3.6 0 0 -7.2 3.61 0 0 -7.2 3.59 0 0 -7.2 3.6 0 0 -7.2 3.61 0 0 -3.6 3.59 0 0 -7.2 3.6 0 0 -3.6 3.61 0 0 -3.6 3.59 0 0 -3.6 3.6 0 0 -3.6 3.61 0 0 -3.6 3.59 0 0 -3.6 7.21 0 0 -3.6 7.2 0 0 -3.6 17.99 0 0 3.6z"/>
 </g>
</svg>
