<?xml version="1.0" encoding="UTF-8"?>
<!DOCTYPE svg PUBLIC "-//W3C//DTD SVG 1.1//EN" "http://www.w3.org/Graphics/SVG/1.1/DTD/svg11.dtd">
<!-- Creator: CorelDRAW (Versión de evaluación) -->
<svg xmlns="http://www.w3.org/2000/svg" xml:space="preserve" width="739px" height="2458px" version="1.1" style="shape-rendering:geometricPrecision; text-rendering:geometricPrecision; image-rendering:optimizeQuality; fill-rule:evenodd; clip-rule:evenodd"
viewBox="0 0 739 2457.4"
 xmlns:xlink="http://www.w3.org/1999/xlink"
 xmlns:xodm="http://www.corel.com/coreldraw/odm/2003">
 <defs>
  <style type="text/css">
   <![CDATA[
    .str0 {stroke:#373435;stroke-width:10;stroke-miterlimit:22.9256}
    .fil0 {fill:#FEFEFE}
    .fil1 {fill:#EA212D}
   ]]>
  </style>
 </defs>
 <g id="tooth-extraction-32">
  <metadata id="CorelCorpID_0Corel-Layer"/>
  <path id="root" class="fil0 str0" d="M649.47 793.8c-4.4,112.08 -32.6,296.97 -48.58,415.16l-57.77 833.93c-3.74,93.57 14.15,346.4 -21.4,412.25 -114.72,14.34 -128.61,-41.27 -172.3,-118.95 -285.18,-507.25 -216.43,-1074.36 -304.34,-1531.14 67.93,32.21 130.32,94.96 207.57,126.17 198.47,80.21 250.75,-73.41 396.82,-137.42z"/>
  <path id="crown" class="fil0 str0" d="M219.75 878.56c-82.1,-43.32 -186.61,-98.81 -204.82,-182.02 -21.65,-99.04 -22.89,-591.64 12.72,-675.77 74.95,-42.41 357.08,-6.71 465.01,-6.73 168.39,-0.04 262.19,45.66 243.59,192.05 -11.82,93.13 -21.59,489.75 -99.4,553.74 -129.06,106.14 -232.4,216.19 -417.1,118.73z"/>
  <polygon id="xmark" class="fil1" points="64.21,564.99 69.91,564.99 69.91,567.84 71.34,567.84 71.34,570.69 72.76,570.69 72.76,567.84 74.18,567.84 74.18,564.99 77.03,564.99 77.03,563.56 85.58,563.56 85.58,564.99 87.01,564.99 87.01,569.26 85.58,569.26 85.58,570.69 84.16,570.69 84.16,573.54 81.31,573.54 81.31,574.96 79.88,574.96 79.88,576.39 84.16,576.39 84.16,580.66 82.73,580.66 82.73,582.08 81.31,582.08 81.31,584.93 79.88,584.93 79.88,586.36 78.46,586.36 78.46,587.78 77.03,587.78 77.03,589.21 75.61,589.21 75.61,592.06 78.46,592.06 78.46,590.63 82.73,590.63 82.73,589.21 87.01,589.21 87.01,587.78 91.28,587.78 91.28,586.36 95.56,586.36 95.56,584.93 98.4,584.93 98.4,583.51 99.83,583.51 99.83,582.08 101.25,582.08 101.25,580.66 104.1,580.66 104.1,579.23 109.8,579.23 109.8,583.51 108.38,583.51 108.38,584.93 106.95,584.93 106.95,586.36 105.53,586.36 105.53,587.78 104.1,587.78 104.1,589.21 101.25,589.21 101.25,590.63 98.4,590.63 98.4,593.48 95.56,593.48 95.56,594.9 91.28,594.9 91.28,596.33 88.43,596.33 88.43,597.75 87.01,597.75 87.01,599.18 85.58,599.18 85.58,602.03 84.16,602.03 84.16,604.88 82.73,604.88 82.73,607.73 81.31,607.73 81.31,610.58 84.16,610.58 84.16,609.15 87.01,609.15 87.01,607.73 88.43,607.73 88.43,609.15 98.4,609.15 98.4,616.28 96.98,616.28 96.98,619.12 95.56,619.12 95.56,620.55 98.4,620.55 98.4,619.12 102.68,619.12 102.68,617.7 105.53,617.7 105.53,621.97 104.1,621.97 104.1,623.4 102.68,623.4 102.68,624.82 99.83,624.82 99.83,626.25 98.4,626.25 98.4,627.67 96.98,627.67 96.98,629.1 94.13,629.1 94.13,630.52 92.71,630.52 92.71,631.95 91.28,631.95 91.28,633.37 95.56,633.37 95.56,631.95 98.4,631.95 98.4,636.22 99.83,636.22 99.83,637.65 101.25,637.65 101.25,640.5 104.1,640.5 104.1,639.07 105.53,639.07 105.53,636.22 106.95,636.22 106.95,634.8 108.38,634.8 108.38,633.37 114.08,633.37 114.08,634.8 115.5,634.8 115.5,637.65 114.08,637.65 114.08,639.07 112.65,639.07 112.65,640.5 114.08,640.5 114.08,641.92 118.35,641.92 118.35,649.04 121.2,649.04 121.2,650.47 119.77,650.47 119.77,653.32 124.05,653.32 124.05,654.74 125.47,654.74 125.47,657.59 129.75,657.59 129.75,656.17 135.45,656.17 135.45,657.59 134.02,657.59 134.02,659.02 132.6,659.02 132.6,660.44 129.75,660.44 129.75,661.86 126.9,661.86 126.9,663.29 124.05,663.29 124.05,664.71 121.2,664.71 121.2,666.14 119.77,666.14 119.77,670.41 121.2,670.41 121.2,671.84 124.05,671.84 124.05,668.99 126.9,668.99 126.9,667.56 129.75,667.56 129.75,666.14 136.87,666.14 136.87,667.56 135.45,667.56 135.45,670.41 132.6,670.41 132.6,671.84 136.87,671.84 136.87,670.41 139.72,670.41 139.72,668.99 148.27,668.99 148.27,670.41 149.69,670.41 149.69,671.84 159.67,671.84 159.67,670.41 162.51,670.41 162.51,668.99 165.36,668.99 165.36,667.56 168.21,667.56 168.21,666.14 171.06,666.14 171.06,664.71 175.34,664.71 175.34,663.29 181.03,663.29 181.03,666.14 179.61,666.14 179.61,667.56 175.34,667.56 175.34,668.99 172.49,668.99 172.49,670.41 171.06,670.41 171.06,674.69 169.64,674.69 169.64,676.11 166.79,676.11 166.79,677.54 163.94,677.54 163.94,678.96 158.24,678.96 158.24,680.39 152.54,680.39 152.54,681.81 148.27,681.81 148.27,683.23 146.84,683.23 146.84,687.51 143.99,687.51 143.99,688.93 142.57,688.93 142.57,691.78 158.24,691.78 158.24,693.21 159.67,693.21 159.67,696.06 158.24,696.06 158.24,697.48 156.82,697.48 156.82,698.91 153.97,698.91 153.97,704.61 152.54,704.61 152.54,711.73 153.97,711.73 153.97,713.15 155.39,713.15 155.39,716 156.82,716 156.82,717.43 158.24,717.43 158.24,718.85 159.67,718.85 159.67,720.28 161.09,720.28 161.09,721.7 162.51,721.7 162.51,723.13 163.94,723.13 163.94,724.55 166.79,724.55 166.79,725.97 168.21,725.97 168.21,727.4 172.49,727.4 172.49,728.82 176.76,728.82 176.76,730.25 182.46,730.25 182.46,731.67 185.31,731.67 185.31,734.52 183.88,734.52 183.88,737.37 182.46,737.37 182.46,744.5 183.88,744.5 183.88,745.92 189.58,745.92 189.58,748.77 188.16,748.77 188.16,750.19 186.73,750.19 186.73,751.62 185.31,751.62 185.31,753.04 183.88,753.04 183.88,755.89 185.31,755.89 185.31,757.32 188.16,757.32 188.16,758.74 196.71,758.74 196.71,761.59 195.28,761.59 195.28,763.02 193.86,763.02 193.86,765.87 196.71,765.87 196.71,764.44 199.56,764.44 199.56,765.87 202.4,765.87 202.4,767.29 203.83,767.29 203.83,768.72 205.25,768.72 205.25,784.39 206.68,784.39 206.68,787.24 208.1,787.24 208.1,788.66 209.53,788.66 209.53,790.08 212.38,790.08 212.38,788.66 213.8,788.66 213.8,787.24 215.23,787.24 215.23,785.81 216.65,785.81 216.65,784.39 219.5,784.39 219.5,782.96 222.35,782.96 222.35,781.54 223.78,781.54 223.78,782.96 225.2,782.96 225.2,785.81 223.78,785.81 223.78,788.66 222.35,788.66 222.35,790.08 219.5,790.08 219.5,791.51 216.65,791.51 216.65,801.48 218.08,801.48 218.08,804.33 219.5,804.33 219.5,805.76 220.93,805.76 220.93,808.61 222.35,808.61 222.35,810.03 223.78,810.03 223.78,811.45 225.2,811.45 225.2,814.3 226.62,814.3 226.62,815.73 228.05,815.73 228.05,817.15 232.32,817.15 232.32,818.58 233.75,818.58 233.75,824.28 235.17,824.28 235.17,827.13 236.6,827.13 236.6,829.97 238.02,829.97 238.02,831.4 239.45,831.4 239.45,832.83 240.87,832.83 240.87,835.67 243.72,835.67 243.72,834.25 246.57,834.25 246.57,832.83 252.27,832.83 252.27,831.4 257.97,831.4 257.97,832.83 260.82,832.83 260.82,835.67 259.39,835.67 259.39,837.1 256.54,837.1 256.54,838.52 255.12,838.52 255.12,839.95 253.69,839.95 253.69,841.37 250.84,841.37 250.84,842.8 249.42,842.8 249.42,844.22 247.99,844.22 247.99,845.65 249.42,845.65 249.42,847.07 252.27,847.07 252.27,848.5 253.69,848.5 253.69,849.92 255.12,849.92 255.12,851.35 259.39,851.35 259.39,859.89 257.97,859.89 257.97,864.17 260.82,864.17 260.82,865.59 265.09,865.59 265.09,867.02 267.94,867.02 267.94,868.44 270.79,868.44 270.79,867.02 272.21,867.02 272.21,868.44 273.64,868.44 273.64,871.29 275.06,871.29 275.06,872.72 277.91,872.72 277.91,874.14 279.34,874.14 279.34,875.57 277.91,875.57 277.91,876.99 276.49,876.99 276.49,882.69 277.91,882.69 277.91,889.81 279.34,889.81 279.34,891.24 282.19,891.24 282.19,886.96 283.61,886.96 283.61,884.11 285.04,884.11 285.04,882.69 287.89,882.69 287.89,884.11 289.31,884.11 289.31,886.96 290.73,886.96 290.73,889.81 293.58,889.81 293.58,891.24 292.16,891.24 292.16,892.66 290.73,892.66 290.73,894.08 289.31,894.08 289.31,895.51 295.01,895.51 295.01,896.94 296.43,896.94 296.43,899.78 295.01,899.78 295.01,901.21 293.58,901.21 293.58,902.63 290.73,902.63 290.73,904.06 287.89,904.06 287.89,905.48 286.46,905.48 286.46,906.91 283.61,906.91 283.61,909.76 292.16,909.76 292.16,911.18 293.58,911.18 293.58,914.03 292.16,914.03 292.16,915.46 290.73,915.46 290.73,918.3 306.41,918.3 306.41,919.73 309.25,919.73 309.25,921.15 307.83,921.15 307.83,922.58 306.41,922.58 306.41,929.7 304.98,929.7 304.98,932.55 303.56,932.55 303.56,938.25 304.98,938.25 304.98,942.52 306.41,942.52 306.41,945.37 307.83,945.37 307.83,948.22 309.25,948.22 309.25,951.07 310.68,951.07 310.68,953.92 312.1,953.92 312.1,955.35 314.95,955.35 314.95,956.77 316.38,956.77 316.38,958.2 317.8,958.2 317.8,961.05 316.38,961.05 316.38,963.89 317.8,963.89 317.8,965.32 322.08,965.32 322.08,963.89 324.93,963.89 324.93,962.47 326.35,962.47 326.35,963.89 329.2,963.89 329.2,965.32 336.32,965.32 336.32,966.74 337.75,966.74 337.75,968.17 339.17,968.17 339.17,969.59 337.75,969.59 337.75,972.44 336.32,972.44 336.32,973.87 333.47,973.87 333.47,975.29 327.78,975.29 327.78,976.72 326.35,976.72 326.35,982.41 324.93,982.41 324.93,985.26 323.5,985.26 323.5,988.11 322.08,988.11 322.08,989.54 320.65,989.54 320.65,992.39 319.23,992.39 319.23,995.24 317.8,995.24 317.8,996.66 316.38,996.66 316.38,998.09 314.95,998.09 314.95,1000.94 316.38,1000.94 316.38,1010.91 314.95,1010.91 314.95,1012.33 312.1,1012.33 312.1,1010.91 310.68,1010.91 310.68,1008.06 307.83,1008.06 307.83,1012.33 306.41,1012.33 306.41,1018.03 307.83,1018.03 307.83,1022.31 306.41,1022.31 306.41,1023.73 302.13,1023.73 302.13,1025.16 299.28,1025.16 299.28,1028 295.01,1028 295.01,1029.43 293.58,1029.43 293.58,1033.7 292.16,1033.7 292.16,1035.13 290.73,1035.13 290.73,1036.55 289.31,1036.55 289.31,1037.98 287.89,1037.98 287.89,1039.4 286.46,1039.4 286.46,1040.83 285.04,1040.83 285.04,1043.68 283.61,1043.68 283.61,1046.52 282.19,1046.52 282.19,1052.22 283.61,1052.22 283.61,1056.5 282.19,1056.5 282.19,1055.07 280.76,1055.07 280.76,1053.65 276.49,1053.65 276.49,1066.47 275.06,1066.47 275.06,1069.32 272.21,1069.32 272.21,1067.9 270.79,1067.9 270.79,1066.47 269.36,1066.47 269.36,1069.32 267.94,1069.32 267.94,1073.59 260.82,1073.59 260.82,1075.02 262.24,1075.02 262.24,1076.44 260.82,1076.44 260.82,1080.72 259.39,1080.72 259.39,1082.14 257.97,1082.14 257.97,1084.99 256.54,1084.99 256.54,1087.84 255.12,1087.84 255.12,1090.69 253.69,1090.69 253.69,1094.96 252.27,1094.96 252.27,1097.81 250.84,1097.81 250.84,1099.24 249.42,1099.24 249.42,1100.66 247.99,1100.66 247.99,1103.51 246.57,1103.51 246.57,1104.94 245.14,1104.94 245.14,1106.36 243.72,1106.36 243.72,1109.21 242.3,1109.21 242.3,1113.48 240.87,1113.48 240.87,1114.91 239.45,1114.91 239.45,1116.33 238.02,1116.33 238.02,1117.76 235.17,1117.76 235.17,1122.03 233.75,1122.03 233.75,1126.31 232.32,1126.31 232.32,1129.16 230.9,1129.16 230.9,1132.01 232.32,1132.01 232.32,1134.85 233.75,1134.85 233.75,1139.13 230.9,1139.13 230.9,1144.83 229.47,1144.83 229.47,1146.25 228.05,1146.25 228.05,1144.83 226.62,1144.83 226.62,1143.4 222.35,1143.4 222.35,1144.83 220.93,1144.83 220.93,1150.53 219.5,1150.53 219.5,1153.37 218.08,1153.37 218.08,1154.8 219.5,1154.8 219.5,1159.07 220.93,1159.07 220.93,1163.35 218.08,1163.35 218.08,1161.92 215.23,1161.92 215.23,1167.62 216.65,1167.62 216.65,1179.02 215.23,1179.02 215.23,1180.44 213.8,1180.44 213.8,1181.87 212.38,1181.87 212.38,1180.44 209.53,1180.44 209.53,1179.02 206.68,1179.02 206.68,1177.59 202.4,1177.59 202.4,1179.02 200.98,1179.02 200.98,1180.44 199.56,1180.44 199.56,1181.87 198.13,1181.87 198.13,1186.14 196.71,1186.14 196.71,1188.99 198.13,1188.99 198.13,1194.69 196.71,1194.69 196.71,1196.12 191.01,1196.12 191.01,1197.54 189.58,1197.54 189.58,1198.96 188.16,1198.96 188.16,1201.81 186.73,1201.81 186.73,1203.24 185.31,1203.24 185.31,1206.09 183.88,1206.09 183.88,1207.51 182.46,1207.51 182.46,1208.94 181.03,1208.94 181.03,1211.79 179.61,1211.79 179.61,1214.64 178.19,1214.64 178.19,1217.48 176.76,1217.48 176.76,1218.91 175.34,1218.91 175.34,1220.33 173.91,1220.33 173.91,1221.76 175.34,1221.76 175.34,1223.18 176.76,1223.18 176.76,1226.03 172.49,1226.03 172.49,1227.46 171.06,1227.46 171.06,1228.88 168.21,1228.88 168.21,1231.73 166.79,1231.73 166.79,1233.16 165.36,1233.16 165.36,1236.01 163.94,1236.01 163.94,1241.7 162.51,1241.7 162.51,1240.28 161.09,1240.28 161.09,1244.55 158.24,1244.55 158.24,1245.98 156.82,1245.98 156.82,1248.83 155.39,1248.83 155.39,1250.25 153.97,1250.25 153.97,1251.68 152.54,1251.68 152.54,1253.1 149.69,1253.1 149.69,1254.53 148.27,1254.53 148.27,1255.95 146.84,1255.95 146.84,1257.38 145.42,1257.38 145.42,1258.8 143.99,1258.8 143.99,1260.23 142.57,1260.23 142.57,1263.07 141.14,1263.07 141.14,1264.5 139.72,1264.5 139.72,1267.35 138.29,1267.35 138.29,1268.77 136.87,1268.77 136.87,1271.62 135.45,1271.62 135.45,1273.05 134.02,1273.05 134.02,1275.9 132.6,1275.9 132.6,1277.32 131.17,1277.32 131.17,1280.17 129.75,1280.17 129.75,1281.59 128.32,1281.59 128.32,1284.44 126.9,1284.44 126.9,1287.29 125.47,1287.29 125.47,1288.72 124.05,1288.72 124.05,1291.57 122.62,1291.57 122.62,1294.42 121.2,1294.42 121.2,1297.27 114.08,1297.27 114.08,1298.69 112.65,1298.69 112.65,1300.12 111.23,1300.12 111.23,1301.54 109.8,1301.54 109.8,1305.81 106.95,1305.81 106.95,1307.24 104.1,1307.24 104.1,1310.09 102.68,1310.09 102.68,1308.66 101.25,1308.66 101.25,1312.94 98.4,1312.94 98.4,1315.79 96.98,1315.79 96.98,1318.64 95.56,1318.64 95.56,1324.34 92.71,1324.34 92.71,1328.61 91.28,1328.61 91.28,1331.46 88.43,1331.46 88.43,1334.31 87.01,1334.31 87.01,1335.73 85.58,1335.73 85.58,1338.58 84.16,1338.58 84.16,1341.43 82.73,1341.43 82.73,1342.86 81.31,1342.86 81.31,1345.7 79.88,1345.7 79.88,1348.55 78.46,1348.55 78.46,1349.98 77.03,1349.98 77.03,1352.83 75.61,1352.83 75.61,1355.68 74.18,1355.68 74.18,1358.53 72.76,1358.53 72.76,1362.8 71.34,1362.8 71.34,1367.08 68.49,1367.08 68.49,1369.92 67.06,1369.92 67.06,1371.35 65.64,1371.35 65.64,1372.77 64.21,1372.77 64.21,1374.2 62.79,1374.2 62.79,1377.05 61.36,1377.05 61.36,1378.47 59.94,1378.47 59.94,1382.75 61.36,1382.75 61.36,1385.6 62.79,1385.6 62.79,1388.45 57.09,1388.45 57.09,1395.57 55.66,1395.57 55.66,1394.14 54.24,1394.14 54.24,1404.12 49.97,1404.12 49.97,1405.54 48.54,1405.54 48.54,1406.97 47.12,1406.97 47.12,1408.39 44.27,1408.39 44.27,1409.81 42.84,1409.81 42.84,1411.24 41.42,1411.24 41.42,1412.66 39.99,1412.66 39.99,1414.09 38.57,1414.09 38.57,1415.51 37.14,1415.51 37.14,1416.94 35.72,1416.94 35.72,1418.36 34.29,1418.36 34.29,1419.79 32.87,1419.79 32.87,1422.64 31.45,1422.64 31.45,1424.06 30.02,1424.06 30.02,1425.49 28.6,1425.49 28.6,1428.34 27.17,1428.34 27.17,1431.19 25.75,1431.19 25.75,1434.03 24.32,1434.03 24.32,1436.88 22.9,1436.88 22.9,1448.28 21.47,1448.28 21.47,1449.71 18.62,1449.71 18.62,1451.13 17.2,1451.13 17.2,1452.55 15.77,1452.55 15.77,1456.83 14.35,1456.83 14.35,1459.68 12.92,1459.68 12.92,1462.53 11.5,1462.53 11.5,1463.95 10.07,1463.95 10.07,1466.8 8.65,1466.8 8.65,1469.65 7.23,1469.65 7.23,1472.5 5.8,1472.5 5.8,1475.35 4.38,1475.35 4.38,1478.2 2.95,1478.2 2.95,1481.05 1.53,1481.05 1.53,1493.87 2.95,1493.87 2.95,1499.57 4.38,1499.57 4.38,1503.84 5.8,1503.84 5.8,1506.69 8.65,1506.69 8.65,1503.84 10.07,1503.84 10.07,1502.42 11.5,1502.42 11.5,1499.57 12.92,1499.57 12.92,1496.72 14.35,1496.72 14.35,1493.87 15.77,1493.87 15.77,1491.02 17.2,1491.02 17.2,1489.6 18.62,1489.6 18.62,1486.75 20.05,1486.75 20.05,1485.32 21.47,1485.32 21.47,1482.47 22.9,1482.47 22.9,1481.05 24.32,1481.05 24.32,1478.2 25.75,1478.2 25.75,1476.77 27.17,1476.77 27.17,1475.35 28.6,1475.35 28.6,1472.5 30.02,1472.5 30.02,1471.08 31.45,1471.08 31.45,1469.65 32.87,1469.65 32.87,1468.23 34.29,1468.23 34.29,1466.8 35.72,1466.8 35.72,1465.38 37.14,1465.38 37.14,1463.95 38.57,1463.95 38.57,1462.53 39.99,1462.53 39.99,1459.68 41.42,1459.68 41.42,1458.25 42.84,1458.25 42.84,1456.83 44.27,1456.83 44.27,1455.4 45.69,1455.4 45.69,1452.55 47.12,1452.55 47.12,1451.13 48.54,1451.13 48.54,1448.28 49.97,1448.28 49.97,1446.86 51.39,1446.86 51.39,1444.01 52.81,1444.01 52.81,1441.16 54.24,1441.16 54.24,1438.31 55.66,1438.31 55.66,1436.88 57.09,1436.88 57.09,1434.03 58.51,1434.03 58.51,1431.19 59.94,1431.19 59.94,1429.76 61.36,1429.76 61.36,1426.91 62.79,1426.91 62.79,1425.49 64.21,1425.49 64.21,1422.64 65.64,1422.64 65.64,1421.21 67.06,1421.21 67.06,1418.36 68.49,1418.36 68.49,1416.94 69.91,1416.94 69.91,1414.09 71.34,1414.09 71.34,1412.66 72.76,1412.66 72.76,1411.24 74.18,1411.24 74.18,1409.81 75.61,1409.81 75.61,1406.97 77.03,1406.97 77.03,1405.54 78.46,1405.54 78.46,1404.12 79.88,1404.12 79.88,1401.27 81.31,1401.27 81.31,1399.84 82.73,1399.84 82.73,1398.42 84.16,1398.42 84.16,1396.99 85.58,1396.99 85.58,1394.14 87.01,1394.14 87.01,1392.72 88.43,1392.72 88.43,1391.29 89.86,1391.29 89.86,1389.87 91.28,1389.87 91.28,1388.45 92.71,1388.45 92.71,1387.02 94.13,1387.02 94.13,1384.17 95.56,1384.17 95.56,1382.75 96.98,1382.75 96.98,1381.32 98.4,1381.32 98.4,1379.9 99.83,1379.9 99.83,1378.47 101.25,1378.47 101.25,1377.05 102.68,1377.05 102.68,1374.2 104.1,1374.2 104.1,1372.77 105.53,1372.77 105.53,1371.35 106.95,1371.35 106.95,1368.5 108.38,1368.5 108.38,1367.08 109.8,1367.08 109.8,1365.65 111.23,1365.65 111.23,1362.8 112.65,1362.8 112.65,1359.95 114.08,1359.95 114.08,1357.1 115.5,1357.1 115.5,1347.13 119.77,1347.13 119.77,1345.7 121.2,1345.7 121.2,1342.86 122.62,1342.86 122.62,1341.43 124.05,1341.43 124.05,1340.01 125.47,1340.01 125.47,1338.58 126.9,1338.58 126.9,1335.73 128.32,1335.73 128.32,1334.31 129.75,1334.31 129.75,1331.46 131.17,1331.46 131.17,1330.03 132.6,1330.03 132.6,1328.61 134.02,1328.61 134.02,1325.76 135.45,1325.76 135.45,1324.34 136.87,1324.34 136.87,1321.49 138.29,1321.49 138.29,1320.06 139.72,1320.06 139.72,1315.79 141.14,1315.79 141.14,1312.94 142.57,1312.94 142.57,1310.09 143.99,1310.09 143.99,1307.24 145.42,1307.24 145.42,1304.39 148.27,1304.39 148.27,1302.97 152.54,1302.97 152.54,1301.54 155.39,1301.54 155.39,1300.12 156.82,1300.12 156.82,1298.69 158.24,1298.69 158.24,1295.84 159.67,1295.84 159.67,1294.42 161.09,1294.42 161.09,1292.99 162.51,1292.99 162.51,1291.57 163.94,1291.57 163.94,1290.14 165.36,1290.14 165.36,1288.72 166.79,1288.72 166.79,1287.29 168.21,1287.29 168.21,1284.44 169.64,1284.44 169.64,1283.02 171.06,1283.02 171.06,1281.59 172.49,1281.59 172.49,1280.17 173.91,1280.17 173.91,1277.32 175.34,1277.32 175.34,1275.9 176.76,1275.9 176.76,1274.47 178.19,1274.47 178.19,1273.05 179.61,1273.05 179.61,1271.62 181.03,1271.62 181.03,1268.77 182.46,1268.77 182.46,1267.35 183.88,1267.35 183.88,1264.5 185.31,1264.5 185.31,1263.07 186.73,1263.07 186.73,1260.23 188.16,1260.23 188.16,1258.8 189.58,1258.8 189.58,1257.38 191.01,1257.38 191.01,1254.53 192.43,1254.53 192.43,1253.1 193.86,1253.1 193.86,1250.25 195.28,1250.25 195.28,1248.83 196.71,1248.83 196.71,1247.4 198.13,1247.4 198.13,1244.55 199.56,1244.55 199.56,1243.13 200.98,1243.13 200.98,1241.7 202.4,1241.7 202.4,1240.28 203.83,1240.28 203.83,1237.43 205.25,1237.43 205.25,1236.01 206.68,1236.01 206.68,1234.58 208.1,1234.58 208.1,1231.73 209.53,1231.73 209.53,1230.31 210.95,1230.31 210.95,1228.88 212.38,1228.88 212.38,1226.03 213.8,1226.03 213.8,1224.61 215.23,1224.61 215.23,1221.76 216.65,1221.76 216.65,1220.33 218.08,1220.33 218.08,1217.48 219.5,1217.48 219.5,1216.06 220.93,1216.06 220.93,1214.64 222.35,1214.64 222.35,1211.79 223.78,1211.79 223.78,1210.36 225.2,1210.36 225.2,1207.51 226.62,1207.51 226.62,1206.09 228.05,1206.09 228.05,1203.24 229.47,1203.24 229.47,1201.81 230.9,1201.81 230.9,1198.96 232.32,1198.96 232.32,1197.54 233.75,1197.54 233.75,1194.69 235.17,1194.69 235.17,1191.84 236.6,1191.84 236.6,1190.42 238.02,1190.42 238.02,1187.57 239.45,1187.57 239.45,1186.14 240.87,1186.14 240.87,1183.29 242.3,1183.29 242.3,1181.87 243.72,1181.87 243.72,1179.02 245.14,1179.02 245.14,1176.17 246.57,1176.17 246.57,1174.75 247.99,1174.75 247.99,1171.9 249.42,1171.9 249.42,1170.47 250.84,1170.47 250.84,1167.62 252.27,1167.62 252.27,1164.77 253.69,1164.77 253.69,1163.35 255.12,1163.35 255.12,1160.5 256.54,1160.5 256.54,1157.65 257.97,1157.65 257.97,1156.22 259.39,1156.22 259.39,1153.37 260.82,1153.37 260.82,1150.53 262.24,1150.53 262.24,1149.1 263.67,1149.1 263.67,1146.25 265.09,1146.25 265.09,1143.4 266.52,1143.4 266.52,1140.55 267.94,1140.55 267.94,1137.7 269.36,1137.7 269.36,1134.85 270.79,1134.85 270.79,1126.31 272.21,1126.31 272.21,1120.61 273.64,1120.61 273.64,1116.33 275.06,1116.33 275.06,1114.91 276.49,1114.91 276.49,1112.06 277.91,1112.06 277.91,1110.63 279.34,1110.63 279.34,1109.21 282.19,1109.21 282.19,1107.79 283.61,1107.79 283.61,1106.36 285.04,1106.36 285.04,1103.51 283.61,1103.51 283.61,1100.66 287.89,1100.66 287.89,1099.24 289.31,1099.24 289.31,1093.54 292.16,1093.54 292.16,1094.96 296.43,1094.96 296.43,1093.54 299.28,1093.54 299.28,1092.11 300.71,1092.11 300.71,1090.69 302.13,1090.69 302.13,1089.26 303.56,1089.26 303.56,1086.42 304.98,1086.42 304.98,1083.57 306.41,1083.57 306.41,1080.72 307.83,1080.72 307.83,1077.87 309.25,1077.87 309.25,1075.02 310.68,1075.02 310.68,1073.59 312.1,1073.59 312.1,1070.74 313.53,1070.74 313.53,1067.9 314.95,1067.9 314.95,1065.05 316.38,1065.05 316.38,1063.62 317.8,1063.62 317.8,1060.77 319.23,1060.77 319.23,1059.35 320.65,1059.35 320.65,1056.5 322.08,1056.5 322.08,1055.07 323.5,1055.07 323.5,1052.22 324.93,1052.22 324.93,1046.52 327.78,1046.52 327.78,1047.95 329.2,1047.95 329.2,1046.52 330.63,1046.52 330.63,1045.1 332.05,1045.1 332.05,1043.68 333.47,1043.68 333.47,1040.83 334.9,1040.83 334.9,1039.4 336.32,1039.4 336.32,1036.55 337.75,1036.55 337.75,1035.13 340.6,1035.13 340.6,1032.28 342.02,1032.28 342.02,1029.43 343.45,1029.43 343.45,1028 344.87,1028 344.87,1026.58 347.72,1026.58 347.72,1028 351.99,1028 351.99,1029.43 353.42,1029.43 353.42,1032.28 367.67,1032.28 367.67,1033.7 364.82,1033.7 364.82,1035.13 363.39,1035.13 363.39,1036.55 360.54,1036.55 360.54,1039.4 359.12,1039.4 359.12,1042.25 360.54,1042.25 360.54,1045.1 364.82,1045.1 364.82,1046.52 371.94,1046.52 371.94,1047.95 376.21,1047.95 376.21,1049.37 377.64,1049.37 377.64,1050.8 376.21,1050.8 376.21,1052.22 373.36,1052.22 373.36,1053.65 370.52,1053.65 370.52,1055.07 369.09,1055.07 369.09,1057.92 370.52,1057.92 370.52,1059.35 373.36,1059.35 373.36,1062.2 374.79,1062.2 374.79,1066.47 373.36,1066.47 373.36,1067.9 370.52,1067.9 370.52,1069.32 369.09,1069.32 369.09,1070.74 370.52,1070.74 370.52,1072.17 379.06,1072.17 379.06,1073.59 380.49,1073.59 380.49,1077.87 381.91,1077.87 381.91,1080.72 383.34,1080.72 383.34,1082.14 384.76,1082.14 384.76,1084.99 386.19,1084.99 386.19,1086.42 387.61,1086.42 387.61,1087.84 389.04,1087.84 389.04,1089.26 390.46,1089.26 390.46,1090.69 391.89,1090.69 391.89,1092.11 393.31,1092.11 393.31,1093.54 396.16,1093.54 396.16,1094.96 397.58,1094.96 397.58,1096.39 399.01,1096.39 399.01,1100.66 397.58,1100.66 397.58,1102.09 396.16,1102.09 396.16,1104.94 400.43,1104.94 400.43,1107.79 401.86,1107.79 401.86,1109.21 403.28,1109.21 403.28,1112.06 406.13,1112.06 406.13,1113.48 407.56,1113.48 407.56,1114.91 408.98,1114.91 408.98,1116.33 410.41,1116.33 410.41,1119.18 411.83,1119.18 411.83,1122.03 407.56,1122.03 407.56,1124.88 408.98,1124.88 408.98,1126.31 410.41,1126.31 410.41,1127.73 413.26,1127.73 413.26,1129.16 417.53,1129.16 417.53,1130.58 420.38,1130.58 420.38,1132.01 421.8,1132.01 421.8,1133.43 420.38,1133.43 420.38,1137.7 423.23,1137.7 423.23,1139.13 427.5,1139.13 427.5,1140.55 428.93,1140.55 428.93,1137.7 431.78,1137.7 431.78,1136.28 436.05,1136.28 436.05,1137.7 437.47,1137.7 437.47,1140.55 438.9,1140.55 438.9,1141.98 440.32,1141.98 440.32,1143.4 441.75,1143.4 441.75,1144.83 444.6,1144.83 444.6,1147.68 438.9,1147.68 438.9,1149.1 437.47,1149.1 437.47,1150.53 436.05,1150.53 436.05,1151.95 434.63,1151.95 434.63,1157.65 436.05,1157.65 436.05,1159.07 437.47,1159.07 437.47,1160.5 438.9,1160.5 438.9,1161.92 440.32,1161.92 440.32,1160.5 444.6,1160.5 444.6,1161.92 443.17,1161.92 443.17,1163.35 444.6,1163.35 444.6,1164.77 458.85,1164.77 458.85,1167.62 457.42,1167.62 457.42,1169.05 456,1169.05 456,1170.47 454.57,1170.47 454.57,1171.9 456,1171.9 456,1173.32 464.54,1173.32 464.54,1174.75 474.52,1174.75 474.52,1176.17 477.37,1176.17 477.37,1177.59 478.79,1177.59 478.79,1179.02 480.21,1179.02 480.21,1180.44 481.64,1180.44 481.64,1183.29 480.21,1183.29 480.21,1184.72 477.37,1184.72 477.37,1186.14 475.94,1186.14 475.94,1187.57 473.09,1187.57 473.09,1188.99 471.67,1188.99 471.67,1190.42 468.82,1190.42 468.82,1191.84 467.39,1191.84 467.39,1193.26 465.97,1193.26 465.97,1194.69 464.54,1194.69 464.54,1203.24 465.97,1203.24 465.97,1206.09 467.39,1206.09 467.39,1207.51 468.82,1207.51 468.82,1208.94 481.64,1208.94 481.64,1210.36 485.91,1210.36 485.91,1213.21 484.49,1213.21 484.49,1214.64 483.07,1214.64 483.07,1216.06 481.64,1216.06 481.64,1217.48 480.21,1217.48 480.21,1218.91 478.79,1218.91 478.79,1220.33 480.21,1220.33 480.21,1223.18 481.64,1223.18 481.64,1224.61 483.07,1224.61 483.07,1227.46 484.49,1227.46 484.49,1230.31 485.91,1230.31 485.91,1231.73 487.34,1231.73 487.34,1238.86 488.76,1238.86 488.76,1240.28 490.19,1240.28 490.19,1241.7 491.61,1241.7 491.61,1243.13 493.04,1243.13 493.04,1244.55 495.89,1244.55 495.89,1245.98 497.31,1245.98 497.31,1247.4 498.74,1247.4 498.74,1248.83 500.16,1248.83 500.16,1250.25 501.58,1250.25 501.58,1251.68 504.43,1251.68 504.43,1253.1 508.71,1253.1 508.71,1255.95 507.28,1255.95 507.28,1257.38 505.86,1257.38 505.86,1258.8 507.28,1258.8 507.28,1264.5 508.71,1264.5 508.71,1268.77 510.13,1268.77 510.13,1270.2 511.56,1270.2 511.56,1273.05 514.41,1273.05 514.41,1274.47 515.83,1274.47 515.83,1275.9 518.68,1275.9 518.68,1277.32 517.26,1277.32 517.26,1278.75 512.98,1278.75 512.98,1280.17 514.41,1280.17 514.41,1281.59 520.11,1281.59 520.11,1287.29 521.53,1287.29 521.53,1290.14 522.96,1290.14 522.96,1291.57 524.38,1291.57 524.38,1292.99 525.8,1292.99 525.8,1294.42 527.23,1294.42 527.23,1295.84 525.8,1295.84 525.8,1298.69 524.38,1298.69 524.38,1300.12 522.96,1300.12 522.96,1301.54 521.53,1301.54 521.53,1304.39 522.96,1304.39 522.96,1307.24 524.38,1307.24 524.38,1310.09 525.8,1310.09 525.8,1312.94 527.23,1312.94 527.23,1314.36 528.65,1314.36 528.65,1315.79 530.08,1315.79 530.08,1318.64 531.5,1318.64 531.5,1321.49 532.93,1321.49 532.93,1324.34 534.35,1324.34 534.35,1327.18 535.78,1327.18 535.78,1330.03 537.2,1330.03 537.2,1331.46 538.63,1331.46 538.63,1334.31 540.05,1334.31 540.05,1337.16 541.48,1337.16 541.48,1338.58 542.9,1338.58 542.9,1341.43 544.32,1341.43 544.32,1342.86 545.75,1342.86 545.75,1344.28 547.17,1344.28 547.17,1347.13 548.6,1347.13 548.6,1348.55 550.02,1348.55 550.02,1349.98 551.45,1349.98 551.45,1351.4 552.87,1351.4 552.87,1354.25 554.3,1354.25 554.3,1355.68 555.72,1355.68 555.72,1357.1 557.15,1357.1 557.15,1358.53 558.57,1358.53 558.57,1361.38 557.15,1361.38 557.15,1362.8 552.87,1362.8 552.87,1368.5 554.3,1368.5 554.3,1371.35 555.72,1371.35 555.72,1377.05 560,1377.05 560,1385.6 561.42,1385.6 561.42,1391.29 562.85,1391.29 562.85,1394.14 564.27,1394.14 564.27,1396.99 565.7,1396.99 565.7,1399.84 567.12,1399.84 567.12,1401.27 569.97,1401.27 569.97,1402.69 572.82,1402.69 572.82,1404.12 574.24,1404.12 574.24,1406.97 575.67,1406.97 575.67,1408.39 577.09,1408.39 577.09,1409.81 579.94,1409.81 579.94,1411.24 582.79,1411.24 582.79,1412.66 587.07,1412.66 587.07,1414.09 584.22,1414.09 584.22,1415.51 581.37,1415.51 581.37,1418.36 582.79,1418.36 582.79,1421.21 584.22,1421.21 584.22,1422.64 585.64,1422.64 585.64,1425.49 587.07,1425.49 587.07,1426.91 588.49,1426.91 588.49,1429.76 589.91,1429.76 589.91,1431.19 591.34,1431.19 591.34,1434.03 592.76,1434.03 592.76,1435.46 594.19,1435.46 594.19,1436.88 595.61,1436.88 595.61,1439.73 597.04,1439.73 597.04,1441.16 598.46,1441.16 598.46,1442.58 599.89,1442.58 599.89,1444.01 601.31,1444.01 601.31,1445.43 602.74,1445.43 602.74,1446.86 604.16,1446.86 604.16,1448.28 605.59,1448.28 605.59,1449.71 607.01,1449.71 607.01,1451.13 608.43,1451.13 608.43,1452.55 609.86,1452.55 609.86,1453.98 611.28,1453.98 611.28,1455.4 612.71,1455.4 612.71,1456.83 614.13,1456.83 614.13,1461.1 615.56,1461.1 615.56,1465.38 616.98,1465.38 616.98,1472.5 618.41,1472.5 618.41,1475.35 621.26,1475.35 621.26,1476.77 636.93,1476.77 636.93,1478.2 635.5,1478.2 635.5,1479.62 634.08,1479.62 634.08,1481.05 632.65,1481.05 632.65,1482.47 631.23,1482.47 631.23,1485.32 632.65,1485.32 632.65,1486.75 634.08,1486.75 634.08,1488.17 636.93,1488.17 636.93,1489.6 638.35,1489.6 638.35,1492.45 636.93,1492.45 636.93,1495.3 639.78,1495.3 639.78,1496.72 644.05,1496.72 644.05,1498.14 645.48,1498.14 645.48,1499.57 646.9,1499.57 646.9,1502.42 645.48,1502.42 645.48,1503.84 644.05,1503.84 644.05,1509.54 642.63,1509.54 642.63,1528.06 644.05,1528.06 644.05,1536.61 645.48,1536.61 645.48,1540.88 646.9,1540.88 646.9,1543.73 648.33,1543.73 648.33,1546.58 649.75,1546.58 649.75,1549.43 651.17,1549.43 651.17,1550.86 652.6,1550.86 652.6,1553.71 654.02,1553.71 654.02,1555.13 655.45,1555.13 655.45,1556.56 656.87,1556.56 656.87,1557.98 658.3,1557.98 658.3,1559.41 659.72,1559.41 659.72,1560.83 662.57,1560.83 662.57,1562.25 664,1562.25 664,1563.68 666.85,1563.68 666.85,1565.1 669.7,1565.1 669.7,1567.95 668.27,1567.95 668.27,1569.38 666.85,1569.38 666.85,1570.8 665.42,1570.8 665.42,1572.23 664,1572.23 664,1575.08 665.42,1575.08 665.42,1576.5 666.85,1576.5 666.85,1577.93 668.27,1577.93 668.27,1579.35 669.7,1579.35 669.7,1580.77 671.12,1580.77 671.12,1582.2 672.54,1582.2 672.54,1585.05 673.97,1585.05 673.97,1587.9 675.39,1587.9 675.39,1590.75 676.82,1590.75 676.82,1593.6 678.24,1593.6 678.24,1596.45 679.67,1596.45 679.67,1600.72 681.09,1600.72 681.09,1603.57 682.52,1603.57 682.52,1606.42 683.94,1606.42 683.94,1609.27 685.37,1609.27 685.37,1610.69 686.79,1610.69 686.79,1612.12 688.22,1612.12 688.22,1613.54 689.64,1613.54 689.64,1614.97 692.49,1614.97 692.49,1616.39 695.34,1616.39 695.34,1617.82 699.61,1617.82 699.61,1619.24 702.46,1619.24 702.46,1620.67 706.74,1620.67 706.74,1622.09 709.59,1622.09 709.59,1623.52 725.26,1623.52 725.26,1622.09 732.38,1622.09 732.38,1620.67 736.65,1620.67 736.65,1617.82 735.23,1617.82 735.23,1616.39 733.81,1616.39 733.81,1614.97 732.38,1614.97 732.38,1613.54 730.96,1613.54 730.96,1610.69 729.53,1610.69 729.53,1609.27 728.11,1609.27 728.11,1606.42 726.68,1606.42 726.68,1604.99 725.26,1604.99 725.26,1602.15 723.83,1602.15 723.83,1599.3 722.41,1599.3 722.41,1596.45 720.98,1596.45 720.98,1593.6 719.56,1593.6 719.56,1590.75 718.13,1590.75 718.13,1586.47 716.71,1586.47 716.71,1580.77 715.28,1580.77 715.28,1576.5 713.86,1576.5 713.86,1569.38 712.44,1569.38 712.44,1560.83 711.01,1560.83 711.01,1548.01 709.59,1548.01 709.59,1532.34 708.16,1532.34 708.16,1529.49 706.74,1529.49 706.74,1528.06 705.31,1528.06 705.31,1525.21 703.89,1525.21 703.89,1523.79 702.46,1523.79 702.46,1522.36 701.04,1522.36 701.04,1519.51 699.61,1519.51 699.61,1518.09 698.19,1518.09 698.19,1515.24 696.76,1515.24 696.76,1513.82 695.34,1513.82 695.34,1510.97 693.92,1510.97 693.92,1506.69 692.49,1506.69 692.49,1500.99 691.07,1500.99 691.07,1498.14 689.64,1498.14 689.64,1495.3 688.22,1495.3 688.22,1492.45 686.79,1492.45 686.79,1489.6 685.37,1489.6 685.37,1486.75 683.94,1486.75 683.94,1482.47 682.52,1482.47 682.52,1479.62 681.09,1479.62 681.09,1475.35 679.67,1475.35 679.67,1471.08 678.24,1471.08 678.24,1466.8 676.82,1466.8 676.82,1462.53 675.39,1462.53 675.39,1458.25 673.97,1458.25 673.97,1452.55 672.54,1452.55 672.54,1448.28 671.12,1448.28 671.12,1444.01 669.7,1444.01 669.7,1438.31 668.27,1438.31 668.27,1434.03 666.85,1434.03 666.85,1429.76 665.42,1429.76 665.42,1425.49 664,1425.49 664,1421.21 662.57,1421.21 662.57,1418.36 661.15,1418.36 661.15,1414.09 659.72,1414.09 659.72,1411.24 658.3,1411.24 658.3,1408.39 656.87,1408.39 656.87,1405.54 655.45,1405.54 655.45,1402.69 654.02,1402.69 654.02,1399.84 652.6,1399.84 652.6,1396.99 651.17,1396.99 651.17,1394.14 649.75,1394.14 649.75,1392.72 648.33,1392.72 648.33,1389.87 646.9,1389.87 646.9,1388.45 645.48,1388.45 645.48,1387.02 644.05,1387.02 644.05,1385.6 642.63,1385.6 642.63,1387.02 641.2,1387.02 641.2,1388.45 635.5,1388.45 635.5,1385.6 629.81,1385.6 629.81,1384.17 634.08,1384.17 634.08,1382.75 635.5,1382.75 635.5,1384.17 636.93,1384.17 636.93,1379.9 635.5,1379.9 635.5,1377.05 634.08,1377.05 634.08,1375.62 632.65,1375.62 632.65,1372.77 631.23,1372.77 631.23,1369.92 629.81,1369.92 629.81,1367.08 628.38,1367.08 628.38,1365.65 626.96,1365.65 626.96,1362.8 625.53,1362.8 625.53,1359.95 624.11,1359.95 624.11,1357.1 622.68,1357.1 622.68,1354.25 621.26,1354.25 621.26,1352.83 619.83,1352.83 619.83,1348.55 618.41,1348.55 618.41,1345.7 616.98,1345.7 616.98,1342.86 615.56,1342.86 615.56,1340.01 614.13,1340.01 614.13,1341.43 611.28,1341.43 611.28,1340.01 609.86,1340.01 609.86,1338.58 608.43,1338.58 608.43,1337.16 607.01,1337.16 607.01,1335.73 605.59,1335.73 605.59,1334.31 604.16,1334.31 604.16,1332.88 602.74,1332.88 602.74,1331.46 601.31,1331.46 601.31,1330.03 599.89,1330.03 599.89,1328.61 598.46,1328.61 598.46,1321.49 599.89,1321.49 599.89,1317.21 601.31,1317.21 601.31,1314.36 602.74,1314.36 602.74,1311.51 601.31,1311.51 601.31,1307.24 599.89,1307.24 599.89,1302.97 598.46,1302.97 598.46,1298.69 597.04,1298.69 597.04,1294.42 595.61,1294.42 595.61,1291.57 594.19,1291.57 594.19,1287.29 592.76,1287.29 592.76,1285.87 591.34,1285.87 591.34,1283.02 589.91,1283.02 589.91,1280.17 588.49,1280.17 588.49,1277.32 587.07,1277.32 587.07,1274.47 585.64,1274.47 585.64,1271.62 584.22,1271.62 584.22,1268.77 582.79,1268.77 582.79,1265.92 581.37,1265.92 581.37,1263.07 579.94,1263.07 579.94,1260.23 578.52,1260.23 578.52,1257.38 577.09,1257.38 577.09,1254.53 575.67,1254.53 575.67,1251.68 574.24,1251.68 574.24,1248.83 572.82,1248.83 572.82,1245.98 571.39,1245.98 571.39,1243.13 569.97,1243.13 569.97,1240.28 568.54,1240.28 568.54,1237.43 567.12,1237.43 567.12,1234.58 565.7,1234.58 565.7,1231.73 564.27,1231.73 564.27,1228.88 562.85,1228.88 562.85,1226.03 561.42,1226.03 561.42,1223.18 560,1223.18 560,1221.76 558.57,1221.76 558.57,1218.91 557.15,1218.91 557.15,1216.06 555.72,1216.06 555.72,1213.21 554.3,1213.21 554.3,1210.36 552.87,1210.36 552.87,1207.51 551.45,1207.51 551.45,1204.66 550.02,1204.66 550.02,1201.81 548.6,1201.81 548.6,1198.96 547.17,1198.96 547.17,1197.54 545.75,1197.54 545.75,1194.69 544.32,1194.69 544.32,1191.84 542.9,1191.84 542.9,1188.99 541.48,1188.99 541.48,1186.14 540.05,1186.14 540.05,1183.29 538.63,1183.29 538.63,1181.87 537.2,1181.87 537.2,1179.02 535.78,1179.02 535.78,1176.17 534.35,1176.17 534.35,1173.32 532.93,1173.32 532.93,1171.9 531.5,1171.9 531.5,1169.05 530.08,1169.05 530.08,1166.2 528.65,1166.2 528.65,1164.77 527.23,1164.77 527.23,1161.92 525.8,1161.92 525.8,1160.5 524.38,1160.5 524.38,1157.65 522.96,1157.65 522.96,1156.22 521.53,1156.22 521.53,1153.37 520.11,1153.37 520.11,1150.53 518.68,1150.53 518.68,1149.1 517.26,1149.1 517.26,1146.25 515.83,1146.25 515.83,1144.83 514.41,1144.83 514.41,1141.98 512.98,1141.98 512.98,1140.55 511.56,1140.55 511.56,1137.7 510.13,1137.7 510.13,1134.85 508.71,1134.85 508.71,1133.43 507.28,1133.43 507.28,1130.58 505.86,1130.58 505.86,1129.16 504.43,1129.16 504.43,1126.31 503.01,1126.31 503.01,1124.88 501.58,1124.88 501.58,1122.03 500.16,1122.03 500.16,1120.61 498.74,1120.61 498.74,1117.76 497.31,1117.76 497.31,1114.91 495.89,1114.91 495.89,1113.48 494.46,1113.48 494.46,1110.63 493.04,1110.63 493.04,1109.21 491.61,1109.21 491.61,1106.36 490.19,1106.36 490.19,1104.94 488.76,1104.94 488.76,1102.09 487.34,1102.09 487.34,1100.66 485.91,1100.66 485.91,1097.81 484.49,1097.81 484.49,1094.96 483.07,1094.96 483.07,1093.54 481.64,1093.54 481.64,1090.69 480.21,1090.69 480.21,1087.84 478.79,1087.84 478.79,1086.42 477.37,1086.42 477.37,1083.57 471.67,1083.57 471.67,1082.14 467.39,1082.14 467.39,1080.72 464.54,1080.72 464.54,1079.29 461.69,1079.29 461.69,1077.87 460.27,1077.87 460.27,1076.44 458.85,1076.44 458.85,1075.02 456,1075.02 456,1073.59 453.15,1073.59 453.15,1072.17 450.3,1072.17 450.3,1070.74 447.45,1070.74 447.45,1065.05 446.02,1065.05 446.02,1059.35 447.45,1059.35 447.45,1050.8 441.75,1050.8 441.75,1052.22 440.32,1052.22 440.32,1053.65 437.47,1053.65 437.47,1052.22 436.05,1052.22 436.05,1050.8 437.47,1050.8 437.47,1047.95 438.9,1047.95 438.9,1046.52 440.32,1046.52 440.32,1043.68 441.75,1043.68 441.75,1042.25 440.32,1042.25 440.32,1040.83 438.9,1040.83 438.9,1039.4 434.63,1039.4 434.63,1037.98 433.2,1037.98 433.2,1036.55 436.05,1036.55 436.05,1035.13 437.47,1035.13 437.47,1033.7 438.9,1033.7 438.9,1032.28 440.32,1032.28 440.32,1030.85 441.75,1030.85 441.75,1029.43 443.17,1029.43 443.17,1028 444.6,1028 444.6,1023.73 443.17,1023.73 443.17,1020.88 441.75,1020.88 441.75,1019.46 440.32,1019.46 440.32,1018.03 438.9,1018.03 438.9,1015.18 437.47,1015.18 437.47,1013.76 436.05,1013.76 436.05,1012.33 434.63,1012.33 434.63,1009.48 433.2,1009.48 433.2,1008.06 431.78,1008.06 431.78,1006.63 430.35,1006.63 430.35,1005.21 428.93,1005.21 428.93,1003.79 427.5,1003.79 427.5,1000.94 426.08,1000.94 426.08,999.51 424.65,999.51 424.65,998.09 423.23,998.09 423.23,995.24 421.8,995.24 421.8,993.81 420.38,993.81 420.38,990.96 418.95,990.96 418.95,989.54 417.53,989.54 417.53,986.69 416.1,986.69 416.1,985.26 414.68,985.26 414.68,982.41 413.26,982.41 413.26,979.57 411.83,979.57 411.83,976.72 404.71,976.72 404.71,975.29 406.13,975.29 406.13,973.87 407.56,973.87 407.56,971.02 406.13,971.02 406.13,969.59 403.28,969.59 403.28,968.17 401.86,968.17 401.86,965.32 407.56,965.32 407.56,961.05 406.13,961.05 406.13,958.2 404.71,958.2 404.71,956.77 403.28,956.77 403.28,953.92 401.86,953.92 401.86,952.5 400.43,952.5 400.43,949.65 399.01,949.65 399.01,946.8 400.43,946.8 400.43,945.37 401.86,945.37 401.86,943.95 403.28,943.95 403.28,941.1 404.71,941.1 404.71,939.68 406.13,939.68 406.13,936.83 407.56,936.83 407.56,933.98 408.98,933.98 408.98,928.28 410.41,928.28 410.41,926.85 411.83,926.85 411.83,924 413.26,924 413.26,922.58 414.68,922.58 414.68,921.15 416.1,921.15 416.1,919.73 417.53,919.73 417.53,918.3 418.95,918.3 418.95,915.46 420.38,915.46 420.38,909.76 421.8,909.76 421.8,908.33 423.23,908.33 423.23,905.48 424.65,905.48 424.65,904.06 426.08,904.06 426.08,901.21 427.5,901.21 427.5,898.36 428.93,898.36 428.93,895.51 430.35,895.51 430.35,886.96 431.78,886.96 431.78,882.69 433.2,882.69 433.2,881.26 434.63,881.26 434.63,879.84 437.47,879.84 437.47,878.41 438.9,878.41 438.9,875.57 440.32,875.57 440.32,874.14 441.75,874.14 441.75,872.72 443.17,872.72 443.17,871.29 444.6,871.29 444.6,861.32 446.02,861.32 446.02,859.89 448.87,859.89 448.87,858.47 450.3,858.47 450.3,857.04 451.72,857.04 451.72,849.92 450.3,849.92 450.3,845.65 451.72,845.65 451.72,842.8 454.57,842.8 454.57,844.22 457.42,844.22 457.42,842.8 458.85,842.8 458.85,839.95 460.27,839.95 460.27,837.1 461.69,837.1 461.69,835.67 463.12,835.67 463.12,832.83 464.54,832.83 464.54,829.97 465.97,829.97 465.97,827.13 467.39,827.13 467.39,825.7 468.82,825.7 468.82,822.85 470.24,822.85 470.24,820 471.67,820 471.67,815.73 473.09,815.73 473.09,810.03 474.52,810.03 474.52,808.61 475.94,808.61 475.94,805.76 477.37,805.76 477.37,804.33 478.79,804.33 478.79,801.48 480.21,801.48 480.21,798.63 481.64,798.63 481.64,795.78 483.07,795.78 483.07,792.93 484.49,792.93 484.49,788.66 485.91,788.66 485.91,785.81 487.34,785.81 487.34,782.96 488.76,782.96 488.76,778.69 490.19,778.69 490.19,774.41 491.61,774.41 491.61,770.14 493.04,770.14 493.04,767.29 494.46,767.29 494.46,764.44 495.89,764.44 495.89,763.02 497.31,763.02 497.31,761.59 498.74,761.59 498.74,758.74 500.16,758.74 500.16,744.5 503.01,744.5 503.01,743.07 504.43,743.07 504.43,741.65 505.86,741.65 505.86,740.22 507.28,740.22 507.28,738.8 508.71,738.8 508.71,737.37 510.13,737.37 510.13,734.52 511.56,734.52 511.56,728.82 512.98,728.82 512.98,727.4 514.41,727.4 514.41,718.85 515.83,718.85 515.83,714.58 517.26,714.58 517.26,707.45 515.83,707.45 515.83,704.61 517.26,704.61 517.26,703.18 518.68,703.18 518.68,704.61 521.53,704.61 521.53,703.18 522.96,703.18 522.96,700.33 524.38,700.33 524.38,697.48 525.8,697.48 525.8,693.21 527.23,693.21 527.23,690.36 528.65,690.36 528.65,686.08 530.08,686.08 530.08,680.39 531.5,680.39 531.5,676.11 532.93,676.11 532.93,673.26 534.35,673.26 534.35,671.84 535.78,671.84 535.78,668.99 537.2,668.99 537.2,667.56 538.63,667.56 538.63,664.71 540.05,664.71 540.05,661.86 541.48,661.86 541.48,659.02 542.9,659.02 542.9,656.17 544.32,656.17 544.32,651.89 545.75,651.89 545.75,644.77 547.17,644.77 547.17,643.34 548.6,643.34 548.6,641.92 550.02,641.92 550.02,640.5 551.45,640.5 551.45,639.07 552.87,639.07 552.87,636.22 554.3,636.22 554.3,634.8 555.72,634.8 555.72,631.95 557.15,631.95 557.15,630.52 558.57,630.52 558.57,616.28 557.15,616.28 557.15,614.85 555.72,614.85 555.72,613.43 554.3,613.43 554.3,610.58 555.72,610.58 555.72,609.15 557.15,609.15 557.15,607.73 558.57,607.73 558.57,609.15 560,609.15 560,610.58 561.42,610.58 561.42,613.43 562.85,613.43 562.85,614.85 564.27,614.85 564.27,607.73 565.7,607.73 565.7,606.3 567.12,606.3 567.12,604.88 568.54,604.88 568.54,600.6 567.12,600.6 567.12,599.18 568.54,599.18 568.54,596.33 569.97,596.33 569.97,594.9 568.54,594.9 568.54,593.48 567.12,593.48 567.12,592.06 565.7,592.06 565.7,590.63 564.27,590.63 564.27,592.06 562.85,592.06 562.85,590.63 561.42,590.63 561.42,586.36 560,586.36 560,589.21 558.57,589.21 558.57,592.06 557.15,592.06 557.15,594.9 561.42,594.9 561.42,602.03 560,602.03 560,603.45 557.15,603.45 557.15,604.88 554.3,604.88 554.3,606.3 552.87,606.3 552.87,607.73 551.45,607.73 551.45,614.85 544.32,614.85 544.32,613.43 542.9,613.43 542.9,614.85 541.48,614.85 541.48,616.28 540.05,616.28 540.05,620.55 538.63,620.55 538.63,624.82 537.2,624.82 537.2,626.25 535.78,626.25 535.78,629.1 534.35,629.1 534.35,631.95 532.93,631.95 532.93,643.34 527.23,643.34 527.23,641.92 524.38,641.92 524.38,643.34 522.96,643.34 522.96,649.04 521.53,649.04 521.53,651.89 520.11,651.89 520.11,654.74 518.68,654.74 518.68,657.59 517.26,657.59 517.26,659.02 512.98,659.02 512.98,667.56 511.56,667.56 511.56,668.99 512.98,668.99 512.98,670.41 514.41,670.41 514.41,671.84 517.26,671.84 517.26,673.26 518.68,673.26 518.68,674.69 512.98,674.69 512.98,676.11 495.89,676.11 495.89,686.08 494.46,686.08 494.46,687.51 497.31,687.51 497.31,688.93 498.74,688.93 498.74,694.63 497.31,694.63 497.31,696.06 491.61,696.06 491.61,697.48 490.19,697.48 490.19,698.91 481.64,698.91 481.64,700.33 483.07,700.33 483.07,701.76 484.49,701.76 484.49,703.18 485.91,703.18 485.91,704.61 487.34,704.61 487.34,707.45 488.76,707.45 488.76,708.88 491.61,708.88 491.61,710.3 493.04,710.3 493.04,711.73 494.46,711.73 494.46,713.15 495.89,713.15 495.89,714.58 487.34,714.58 487.34,713.15 485.91,713.15 485.91,711.73 483.07,711.73 483.07,710.3 475.94,710.3 475.94,711.73 474.52,711.73 474.52,714.58 475.94,714.58 475.94,718.85 477.37,718.85 477.37,723.13 474.52,723.13 474.52,724.55 471.67,724.55 471.67,727.4 473.09,727.4 473.09,730.25 471.67,730.25 471.67,731.67 468.82,731.67 468.82,728.82 464.54,728.82 464.54,733.1 463.12,733.1 463.12,737.37 465.97,737.37 465.97,738.8 467.39,738.8 467.39,741.65 465.97,741.65 465.97,743.07 464.54,743.07 464.54,744.5 463.12,744.5 463.12,747.34 461.69,747.34 461.69,748.77 460.27,748.77 460.27,751.62 458.85,751.62 458.85,760.17 457.42,760.17 457.42,763.02 454.57,763.02 454.57,761.59 453.15,761.59 453.15,760.17 448.87,760.17 448.87,761.59 450.3,761.59 450.3,763.02 451.72,763.02 451.72,764.44 453.15,764.44 453.15,765.87 454.57,765.87 454.57,768.72 450.3,768.72 450.3,770.14 451.72,770.14 451.72,771.56 453.15,771.56 453.15,772.99 454.57,772.99 454.57,784.39 458.85,784.39 458.85,785.81 460.27,785.81 460.27,787.24 461.69,787.24 461.69,790.08 463.12,790.08 463.12,792.93 458.85,792.93 458.85,790.08 457.42,790.08 457.42,791.51 454.57,791.51 454.57,790.08 451.72,790.08 451.72,788.66 450.3,788.66 450.3,785.81 448.87,785.81 448.87,784.39 447.45,784.39 447.45,782.96 441.75,782.96 441.75,788.66 443.17,788.66 443.17,794.36 434.63,794.36 434.63,795.78 433.2,795.78 433.2,797.21 431.78,797.21 431.78,800.06 430.35,800.06 430.35,802.91 428.93,802.91 428.93,805.76 427.5,805.76 427.5,810.03 426.08,810.03 426.08,824.28 424.65,824.28 424.65,825.7 423.23,825.7 423.23,827.13 420.38,827.13 420.38,828.55 418.95,828.55 418.95,834.25 411.83,834.25 411.83,841.37 413.26,841.37 413.26,842.8 411.83,842.8 411.83,844.22 408.98,844.22 408.98,851.35 407.56,851.35 407.56,852.77 406.13,852.77 406.13,854.19 404.71,854.19 404.71,855.62 403.28,855.62 403.28,857.04 401.86,857.04 401.86,858.47 400.43,858.47 400.43,859.89 399.01,859.89 399.01,861.32 397.58,861.32 397.58,864.17 400.43,864.17 400.43,865.59 403.28,865.59 403.28,867.02 404.71,867.02 404.71,869.87 403.28,869.87 403.28,871.29 400.43,871.29 400.43,869.87 394.74,869.87 394.74,871.29 393.31,871.29 393.31,872.72 391.89,872.72 391.89,875.57 390.46,875.57 390.46,878.41 389.04,878.41 389.04,881.26 387.61,881.26 387.61,884.11 386.19,884.11 386.19,889.81 383.34,889.81 383.34,891.24 381.91,891.24 381.91,894.08 380.49,894.08 380.49,896.94 379.06,896.94 379.06,898.36 376.21,898.36 376.21,895.51 374.79,895.51 374.79,892.66 373.36,892.66 373.36,888.39 371.94,888.39 371.94,885.54 370.52,885.54 370.52,884.11 369.09,884.11 369.09,881.26 367.67,881.26 367.67,878.41 366.24,878.41 366.24,875.57 364.82,875.57 364.82,872.72 363.39,872.72 363.39,871.29 361.97,871.29 361.97,868.44 360.54,868.44 360.54,865.59 359.12,865.59 359.12,862.74 357.69,862.74 357.69,861.32 356.27,861.32 356.27,858.47 354.84,858.47 354.84,857.04 353.42,857.04 353.42,854.19 351.99,854.19 351.99,852.77 350.57,852.77 350.57,851.35 349.15,851.35 349.15,849.92 347.72,849.92 347.72,847.07 346.3,847.07 346.3,845.65 344.87,845.65 344.87,844.22 343.45,844.22 343.45,842.8 342.02,842.8 342.02,841.37 340.6,841.37 340.6,838.52 339.17,838.52 339.17,837.1 337.75,837.1 337.75,832.83 336.32,832.83 336.32,827.13 334.9,827.13 334.9,820 333.47,820 333.47,814.3 332.05,814.3 332.05,810.03 330.63,810.03 330.63,807.18 329.2,807.18 329.2,805.76 327.78,805.76 327.78,804.33 326.35,804.33 326.35,802.91 316.38,802.91 316.38,801.48 317.8,801.48 317.8,800.06 319.23,800.06 319.23,795.78 317.8,795.78 317.8,794.36 316.38,794.36 316.38,791.51 314.95,791.51 314.95,785.81 313.53,785.81 313.53,780.11 312.1,780.11 312.1,777.26 303.56,777.26 303.56,770.14 302.13,770.14 302.13,767.29 300.71,767.29 300.71,764.44 299.28,764.44 299.28,763.02 297.86,763.02 297.86,761.59 296.43,761.59 296.43,760.17 295.01,760.17 295.01,758.74 293.58,758.74 293.58,755.89 292.16,755.89 292.16,754.47 290.73,754.47 290.73,750.19 287.89,750.19 287.89,751.62 286.46,751.62 286.46,753.04 283.61,753.04 283.61,751.62 280.76,751.62 280.76,750.19 279.34,750.19 279.34,747.34 277.91,747.34 277.91,744.5 276.49,744.5 276.49,743.07 277.91,743.07 277.91,741.65 279.34,741.65 279.34,737.37 277.91,737.37 277.91,735.95 276.49,735.95 276.49,731.67 275.06,731.67 275.06,728.82 273.64,728.82 273.64,724.55 272.21,724.55 272.21,723.13 270.79,723.13 270.79,721.7 265.09,721.7 265.09,720.28 263.67,720.28 263.67,711.73 262.24,711.73 262.24,708.88 260.82,708.88 260.82,707.45 257.97,707.45 257.97,706.03 250.84,706.03 250.84,704.61 243.72,704.61 243.72,703.18 242.3,703.18 242.3,700.33 243.72,700.33 243.72,698.91 246.57,698.91 246.57,697.48 249.42,697.48 249.42,696.06 252.27,696.06 252.27,694.63 250.84,694.63 250.84,693.21 249.42,693.21 249.42,691.78 247.99,691.78 247.99,688.93 246.57,688.93 246.57,687.51 245.14,687.51 245.14,684.66 243.72,684.66 243.72,683.23 242.3,683.23 242.3,680.39 240.87,680.39 240.87,677.54 239.45,677.54 239.45,676.11 238.02,676.11 238.02,673.26 236.6,673.26 236.6,670.41 235.17,670.41 235.17,668.99 233.75,668.99 233.75,666.14 232.32,666.14 232.32,664.71 230.9,664.71 230.9,663.29 229.47,663.29 229.47,661.86 228.05,661.86 228.05,660.44 226.62,660.44 226.62,659.02 225.2,659.02 225.2,657.59 223.78,657.59 223.78,656.17 220.93,656.17 220.93,654.74 218.08,654.74 218.08,653.32 216.65,653.32 216.65,651.89 218.08,651.89 218.08,650.47 219.5,650.47 219.5,646.19 218.08,646.19 218.08,644.77 216.65,644.77 216.65,643.34 215.23,643.34 215.23,641.92 213.8,641.92 213.8,640.5 212.38,640.5 212.38,639.07 210.95,639.07 210.95,636.22 209.53,636.22 209.53,634.8 208.1,634.8 208.1,633.37 206.68,633.37 206.68,631.95 205.25,631.95 205.25,629.1 203.83,629.1 203.83,627.67 202.4,627.67 202.4,626.25 200.98,626.25 200.98,624.82 199.56,624.82 199.56,623.4 198.13,623.4 198.13,621.97 196.71,621.97 196.71,619.12 193.86,619.12 193.86,617.7 192.43,617.7 192.43,616.28 191.01,616.28 191.01,614.85 189.58,614.85 189.58,613.43 186.73,613.43 186.73,612 185.31,612 185.31,610.58 183.88,610.58 183.88,609.15 182.46,609.15 182.46,604.88 181.03,604.88 181.03,597.75 179.61,597.75 179.61,594.9 178.19,594.9 178.19,593.48 175.34,593.48 175.34,592.06 171.06,592.06 171.06,590.63 159.67,590.63 159.67,589.21 158.24,589.21 158.24,584.93 159.67,584.93 159.67,583.51 161.09,583.51 161.09,573.54 159.67,573.54 159.67,566.41 158.24,566.41 158.24,564.99 156.82,564.99 156.82,563.56 151.12,563.56 151.12,559.29 149.69,559.29 149.69,557.86 146.84,557.86 146.84,556.44 143.99,556.44 143.99,555.01 142.57,555.01 142.57,553.59 139.72,553.59 139.72,552.17 138.29,552.17 138.29,549.32 136.87,549.32 136.87,545.04 134.02,545.04 134.02,543.62 126.9,543.62 126.9,545.04 124.05,545.04 124.05,546.47 121.2,546.47 121.2,543.62 122.62,543.62 122.62,542.19 124.05,542.19 124.05,539.34 126.9,539.34 126.9,537.92 129.75,537.92 129.75,536.49 128.32,536.49 128.32,533.64 126.9,533.64 126.9,532.22 125.47,532.22 125.47,530.79 124.05,530.79 124.05,527.95 122.62,527.95 122.62,526.52 121.2,526.52 121.2,525.1 119.77,525.1 119.77,523.67 118.35,523.67 118.35,522.25 116.92,522.25 116.92,520.82 115.5,520.82 115.5,519.4 114.08,519.4 114.08,517.97 112.65,517.97 112.65,516.55 111.23,516.55 111.23,515.12 109.8,515.12 109.8,513.7 108.38,513.7 108.38,512.27 106.95,512.27 106.95,510.85 104.1,510.85 104.1,509.43 102.68,509.43 102.68,508 101.25,508 101.25,506.58 98.4,506.58 98.4,502.3 99.83,502.3 99.83,500.88 98.4,500.88 98.4,498.03 96.98,498.03 96.98,495.18 95.56,495.18 95.56,493.75 94.13,493.75 94.13,492.33 92.71,492.33 92.71,489.48 91.28,489.48 91.28,488.06 89.86,488.06 89.86,486.63 88.43,486.63 88.43,485.21 87.01,485.21 87.01,483.78 85.58,483.78 85.58,482.36 84.16,482.36 84.16,479.51 82.73,479.51 82.73,478.08 81.31,478.08 81.31,476.66 79.88,476.66 79.88,475.23 77.03,475.23 77.03,473.81 69.91,473.81 69.91,472.38 71.34,472.38 71.34,470.96 72.76,470.96 72.76,468.11 71.34,468.11 71.34,465.26 69.91,465.26 69.91,462.41 68.49,462.41 68.49,458.14 67.06,458.14 67.06,455.29 65.64,455.29 65.64,452.44 64.21,452.44 64.21,449.59 62.79,449.59 62.79,446.74 61.36,446.74 61.36,445.32 55.66,445.32 55.66,446.74 48.54,446.74 48.54,445.32 49.97,445.32 49.97,442.47 47.12,442.47 47.12,443.89 42.84,443.89 42.84,445.32 38.57,445.32 38.57,446.74 32.87,446.74 32.87,439.62 34.29,439.62 34.29,438.19 42.84,438.19 42.84,436.77 48.54,436.77 48.54,435.34 49.97,435.34 49.97,433.92 48.54,433.92 48.54,432.49 45.69,432.49 45.69,431.07 42.84,431.07 42.84,429.64 41.42,429.64 41.42,428.22 39.99,428.22 39.99,421.1 31.45,421.1 31.45,419.67 32.87,419.67 32.87,418.25 34.29,418.25 34.29,415.4 32.87,415.4 32.87,413.97 30.02,413.97 30.02,415.4 28.6,415.4 28.6,416.82 22.9,416.82 22.9,418.25 20.05,418.25 20.05,419.67 18.62,419.67 18.62,422.52 17.2,422.52 17.2,423.95 14.35,423.95 14.35,422.52 11.5,422.52 11.5,421.1 10.07,421.1 10.07,419.67 7.23,419.67 7.23,425.37 8.65,425.37 8.65,428.22 10.07,428.22 10.07,431.07 11.5,431.07 11.5,432.49 12.92,432.49 12.92,433.92 15.77,433.92 15.77,432.49 17.2,432.49 17.2,431.07 25.75,431.07 25.75,432.49 27.17,432.49 27.17,433.92 28.6,433.92 28.6,438.19 27.17,438.19 27.17,439.62 24.32,439.62 24.32,441.04 22.9,441.04 22.9,449.59 24.32,449.59 24.32,452.44 25.75,452.44 25.75,453.86 31.45,453.86 31.45,455.29 30.02,455.29 30.02,458.14 28.6,458.14 28.6,459.56 27.17,459.56 27.17,460.99 25.75,460.99 25.75,462.41 24.32,462.41 24.32,463.84 22.9,463.84 22.9,465.26 21.47,465.26 21.47,466.69 20.05,466.69 20.05,468.11 21.47,468.11 21.47,469.53 22.9,469.53 22.9,470.96 24.32,470.96 24.32,472.38 27.17,472.38 27.17,473.81 28.6,473.81 28.6,475.23 30.02,475.23 30.02,476.66 31.45,476.66 31.45,479.51 32.87,479.51 32.87,485.21 34.29,485.21 34.29,486.63 35.72,486.63 35.72,488.06 38.57,488.06 38.57,489.48 41.42,489.48 41.42,490.9 47.12,490.9 47.12,492.33 49.97,492.33 49.97,493.75 51.39,493.75 51.39,496.6 49.97,496.6 49.97,498.03 48.54,498.03 48.54,499.45 47.12,499.45 47.12,502.3 45.69,502.3 45.69,503.73 42.84,503.73 42.84,505.15 41.42,505.15 41.42,508 42.84,508 42.84,509.43 45.69,509.43 45.69,508 47.12,508 47.12,506.58 48.54,506.58 48.54,508 49.97,508 49.97,509.43 51.39,509.43 51.39,512.27 52.81,512.27 52.81,515.12 54.24,515.12 54.24,516.55 55.66,516.55 55.66,519.4 57.09,519.4 57.09,520.82 58.51,520.82 58.51,522.25 59.94,522.25 59.94,523.67 61.36,523.67 61.36,525.1 57.09,525.1 57.09,526.52 54.24,526.52 54.24,527.95 52.81,527.95 52.81,529.37 58.51,529.37 58.51,530.79 61.36,530.79 61.36,532.22 64.21,532.22 64.21,533.64 65.64,533.64 65.64,535.07 69.91,535.07 69.91,533.64 71.34,533.64 71.34,532.22 72.76,532.22 72.76,530.79 74.18,530.79 74.18,529.37 77.03,529.37 77.03,527.95 79.88,527.95 79.88,526.52 81.31,526.52 81.31,527.95 82.73,527.95 82.73,529.37 81.31,529.37 81.31,532.22 79.88,532.22 79.88,533.64 78.46,533.64 78.46,535.07 77.03,535.07 77.03,536.49 75.61,536.49 75.61,537.92 74.18,537.92 74.18,539.34 72.76,539.34 72.76,542.19 71.34,542.19 71.34,545.04 69.91,545.04 69.91,547.89 68.49,547.89 68.49,549.32 67.06,549.32 67.06,550.74 65.64,550.74 65.64,552.17 64.21,552.17 64.21,553.59 62.79,553.59 62.79,555.01 61.36,555.01 61.36,556.44 59.94,556.44 59.94,559.29 58.51,559.29 58.51,560.71 61.36,560.71 61.36,562.14 64.21,562.14 "/>
 </g>
</svg>
