<?xml version="1.0" encoding="UTF-8"?>
<!DOCTYPE svg PUBLIC "-//W3C//DTD SVG 1.1//EN" "http://www.w3.org/Graphics/SVG/1.1/DTD/svg11.dtd">
<!-- Creator: CorelDRAW (Versión de evaluación) -->
<svg xmlns="http://www.w3.org/2000/svg" xml:space="preserve" width="497px" height="2062px" version="1.1" style="shape-rendering:geometricPrecision; text-rendering:geometricPrecision; image-rendering:optimizeQuality; fill-rule:evenodd; clip-rule:evenodd"
viewBox="0 0 497 2063.64"
 xmlns:xlink="http://www.w3.org/1999/xlink"
 xmlns:xodm="http://www.corel.com/coreldraw/odm/2003">
 <defs>
  <style type="text/css">
   <![CDATA[
    .str0 {stroke:#ED3237;stroke-width:2;stroke-miterlimit:22.9256}
    .fil2 {fill:#4B4B4D}
    .fil3 {fill:#ED3237}
    .fil1 {fill:#F2E6C9}
    .fil0 {fill:#FAFAF7}
   ]]>
  </style>
 </defs>
 <g id="extraction">
  <metadata id="CorelCorpID_0Corel-Layer"/>
  <polygon id="crown" class="fil0" points="208.23,1350.96 197.42,1350.96 197.42,1354.57 190.22,1354.57 190.22,1358.17 183.02,1358.17 183.02,1361.77 175.81,1361.77 175.81,1365.37 172.21,1365.37 172.21,1368.97 165.01,1368.97 165.01,1372.57 161.41,1372.57 161.41,1376.17 157.81,1376.17 157.81,1379.78 154.2,1379.78 154.2,1383.38 150.6,1383.38 150.6,1390.58 143.4,1390.58 143.4,1397.78 139.8,1397.78 139.8,1401.39 136.2,1401.39 136.2,1408.59 132.59,1408.59 132.59,1415.79 129,1415.79 129,1419.39 125.39,1419.39 125.39,1426.59 121.79,1426.59 121.79,1433.8 118.19,1433.8 118.19,1441 114.59,1441 114.59,1448.2 110.98,1448.2 110.98,1455.41 107.39,1455.41 107.39,1462.61 103.78,1462.61 103.78,1469.81 100.18,1469.81 100.18,1477.02 96.58,1477.02 96.58,1484.22 92.98,1484.22 92.98,1495.02 89.38,1495.02 89.38,1505.83 85.78,1505.83 85.78,1513.03 82.17,1513.03 82.17,1527.44 78.57,1527.44 78.57,1541.84 74.97,1541.84 74.97,1552.65 71.37,1552.65 71.37,1563.45 67.77,1563.45 67.77,1574.26 64.17,1574.26 64.17,1588.66 60.57,1588.66 60.57,1603.07 56.96,1603.07 56.96,1613.87 53.36,1613.87 53.36,1621.07 49.76,1621.07 49.76,1639.08 46.16,1639.08 46.16,1649.89 42.56,1649.89 42.56,1664.29 38.96,1664.29 38.96,1678.7 35.35,1678.7 35.35,1693.11 31.75,1693.11 31.75,1711.11 28.15,1711.11 28.15,1729.12 24.55,1729.12 24.55,1743.53 20.95,1743.53 20.95,1819.16 24.55,1819.16 24.55,1837.16 28.15,1837.16 28.15,1847.97 31.75,1847.97 31.75,1858.77 35.35,1858.77 35.35,1865.98 38.96,1865.98 38.96,1873.18 42.56,1873.18 42.56,1876.78 46.16,1876.78 46.16,1883.98 49.76,1883.98 49.76,1887.58 53.36,1887.58 53.36,1891.19 56.96,1891.19 56.96,1894.79 64.17,1894.79 64.17,1898.39 67.77,1898.39 67.77,1901.99 71.37,1901.99 71.37,1905.59 74.97,1905.59 74.97,1909.19 82.17,1909.19 82.17,1912.79 85.78,1912.79 85.78,1916.4 92.98,1916.4 92.98,1920 96.58,1920 96.58,1923.6 103.78,1923.6 103.78,1927.2 110.98,1927.2 110.98,1930.8 118.19,1930.8 118.19,1934.4 125.39,1934.4 125.39,1938.01 129,1938.01 129,1941.61 136.2,1941.61 136.2,1945.21 139.8,1945.21 139.8,1948.81 147,1948.81 147,1952.41 154.2,1952.41 154.2,1956.01 157.81,1956.01 157.81,1959.62 161.41,1959.62 161.41,1963.21 168.61,1963.21 168.61,1966.82 175.81,1966.82 175.81,1970.42 179.41,1970.42 179.41,1974.02 183.02,1974.02 183.02,1977.62 190.22,1977.62 190.22,1981.22 193.82,1981.22 193.82,1984.82 201.02,1984.82 201.02,1988.43 204.63,1988.43 204.63,1992.03 215.43,1992.03 215.43,1995.63 222.63,1995.63 222.63,1999.23 237.04,1999.23 237.04,2002.83 262.25,2002.83 262.25,1999.23 276.66,1999.23 276.66,1995.63 283.86,1995.63 283.86,1992.03 291.06,1992.03 291.06,1988.43 294.66,1988.43 294.66,1984.82 298.26,1984.82 298.26,1981.22 301.87,1981.22 301.87,1977.62 309.07,1977.62 309.07,1974.02 312.67,1974.02 312.67,1970.42 316.27,1970.42 316.27,1966.82 319.87,1966.82 319.87,1963.21 327.07,1963.21 327.07,1959.62 330.68,1959.62 330.68,1956.01 334.28,1956.01 334.28,1952.41 341.48,1952.41 341.48,1948.81 345.08,1948.81 345.08,1945.21 352.29,1945.21 352.29,1941.61 355.89,1941.61 355.89,1938.01 363.09,1938.01 363.09,1934.4 366.69,1934.4 366.69,1930.8 373.89,1930.8 373.89,1927.2 377.5,1927.2 377.5,1923.6 384.7,1923.6 384.7,1920 388.3,1920 388.3,1916.4 391.9,1916.4 391.9,1912.79 399.11,1912.79 399.11,1909.19 402.71,1909.19 402.71,1905.59 409.91,1905.59 409.91,1901.99 413.51,1901.99 413.51,1898.39 420.72,1898.39 420.72,1894.79 424.31,1894.79 424.31,1891.19 427.92,1891.19 427.92,1887.58 431.52,1887.58 431.52,1883.98 435.12,1883.98 435.12,1880.38 438.72,1880.38 438.72,1876.78 442.32,1876.78 442.32,1873.18 445.92,1873.18 445.92,1869.58 449.53,1869.58 449.53,1865.98 453.13,1865.98 453.13,1858.77 456.73,1858.77 456.73,1855.17 460.33,1855.17 460.33,1847.97 463.93,1847.97 463.93,1840.77 467.53,1840.77 467.53,1829.96 471.14,1829.96 471.14,1811.96 474.74,1811.96 474.74,1747.13 471.14,1747.13 471.14,1725.52 467.53,1725.52 467.53,1711.11 463.93,1711.11 463.93,1693.11 460.33,1693.11 460.33,1682.3 456.73,1682.3 456.73,1667.89 453.13,1667.89 453.13,1660.69 449.53,1660.69 449.53,1649.89 445.92,1649.89 445.92,1639.08 442.32,1639.08 442.32,1628.28 438.72,1628.28 438.72,1621.07 435.12,1621.07 435.12,1610.27 431.52,1610.27 431.52,1603.07 427.92,1603.07 427.92,1592.26 424.31,1592.26 424.31,1581.46 420.72,1581.46 420.72,1570.65 417.11,1570.65 417.11,1563.45 413.51,1563.45 413.51,1552.65 409.91,1552.65 409.91,1538.24 406.31,1538.24 406.31,1531.04 402.71,1531.04 402.71,1520.24 399.11,1520.24 399.11,1505.83 395.5,1505.83 395.5,1498.63 391.9,1498.63 391.9,1487.82 388.3,1487.82 388.3,1480.62 384.7,1480.62 384.7,1469.81 381.1,1469.81 381.1,1462.61 377.5,1462.61 377.5,1455.41 373.89,1455.41 373.89,1451.81 370.29,1451.81 370.29,1444.6 366.69,1444.6 366.69,1437.4 363.09,1437.4 363.09,1433.8 359.49,1433.8 359.49,1426.59 355.89,1426.59 355.89,1419.39 352.29,1419.39 352.29,1415.79 348.68,1415.79 348.68,1408.59 345.08,1408.59 345.08,1404.99 341.48,1404.99 341.48,1401.39 337.88,1401.39 337.88,1394.18 334.28,1394.18 334.28,1390.58 330.68,1390.58 330.68,1386.98 327.07,1386.98 327.07,1383.38 323.47,1383.38 323.47,1379.78 316.27,1379.78 316.27,1376.17 312.67,1376.17 312.67,1372.57 309.07,1372.57 309.07,1368.97 305.46,1368.97 305.46,1365.37 298.26,1365.37 298.26,1361.77 291.06,1361.77 291.06,1358.17 283.86,1358.17 283.86,1354.57 276.66,1354.57 276.66,1350.96 262.25,1350.96 262.25,1347.36 208.23,1347.36 "/>
  <polygon id="root" class="fil1" points="186.62,241.71 183.02,241.71 183.02,248.91 179.41,248.91 179.41,252.51 175.81,252.51 175.81,263.32 172.21,263.32 172.21,277.72 168.61,277.72 168.61,421.78 172.21,421.78 172.21,594.66 168.61,594.66 168.61,634.27 165.01,634.27 165.01,666.68 161.41,666.68 161.41,695.49 157.81,695.49 157.81,724.31 154.2,724.31 154.2,749.52 150.6,749.52 150.6,771.13 147,771.13 147,789.14 143.4,789.14 143.4,810.74 139.8,810.74 139.8,832.35 136.2,832.35 136.2,853.96 132.59,853.96 132.59,882.77 129,882.77 129,907.98 125.39,907.98 125.39,929.59 121.79,929.59 121.79,958.4 118.19,958.4 118.19,972.81 114.59,972.81 114.59,1005.22 110.98,1005.22 110.98,1034.03 107.39,1034.03 107.39,1052.04 103.78,1052.04 103.78,1080.85 100.18,1080.85 100.18,1120.47 96.58,1120.47 96.58,1156.48 92.98,1156.48 92.98,1206.91 89.38,1206.91 89.38,1282.54 85.78,1282.54 85.78,1376.17 82.17,1376.17 82.17,1437.4 78.57,1437.4 78.57,1466.21 82.17,1466.21 82.17,1462.61 85.78,1462.61 85.78,1455.41 89.38,1455.41 89.38,1448.2 92.98,1448.2 92.98,1437.4 96.58,1437.4 96.58,1430.2 100.18,1430.2 100.18,1423 103.78,1423 103.78,1415.79 107.39,1415.79 107.39,1408.59 110.98,1408.59 110.98,1404.99 114.59,1404.99 114.59,1397.78 118.19,1397.78 118.19,1394.18 121.79,1394.18 121.79,1386.98 125.39,1386.98 125.39,1383.38 129,1383.38 129,1379.78 132.59,1379.78 132.59,1372.57 136.2,1372.57 136.2,1368.97 139.8,1368.97 139.8,1365.37 143.4,1365.37 143.4,1361.77 147,1361.77 147,1358.17 154.2,1358.17 154.2,1354.57 157.81,1354.57 157.81,1350.96 161.41,1350.96 161.41,1347.36 168.61,1347.36 168.61,1343.76 172.21,1343.76 172.21,1340.16 179.41,1340.16 179.41,1336.56 186.62,1336.56 186.62,1332.96 197.42,1332.96 197.42,1329.35 211.83,1329.35 211.83,1325.75 251.44,1325.75 251.44,1329.35 273.05,1329.35 273.05,1332.96 283.86,1332.96 283.86,1336.56 294.66,1336.56 294.66,1340.16 301.87,1340.16 301.87,1343.76 309.07,1343.76 309.07,1347.36 312.67,1347.36 312.67,1350.96 319.87,1350.96 319.87,1354.57 323.47,1354.57 323.47,1358.17 327.07,1358.17 327.07,1361.77 330.68,1361.77 330.68,1365.37 334.28,1365.37 334.28,1368.97 337.88,1368.97 337.88,1372.57 341.48,1372.57 341.48,1376.17 345.08,1376.17 345.08,1379.78 348.68,1379.78 348.68,1383.38 352.29,1383.38 352.29,1386.98 355.89,1386.98 355.89,1390.58 359.49,1390.58 359.49,1394.18 363.09,1394.18 363.09,1401.39 366.69,1401.39 366.69,1404.99 370.29,1404.99 370.29,1412.19 373.89,1412.19 373.89,1415.79 377.5,1415.79 377.5,1423 381.1,1423 381.1,1430.2 384.7,1430.2 384.7,1437.4 388.3,1437.4 388.3,1412.19 384.7,1412.19 384.7,1390.58 381.1,1390.58 381.1,1358.17 377.5,1358.17 377.5,1296.94 373.89,1296.94 373.89,1264.53 370.29,1264.53 370.29,1170.89 366.69,1170.89 366.69,1120.47 363.09,1120.47 363.09,1023.23 359.49,1023.23 359.49,976.41 355.89,976.41 355.89,940.4 352.29,940.4 352.29,886.38 348.68,886.38 348.68,843.16 345.08,843.16 345.08,814.34 341.48,814.34 341.48,789.14 337.88,789.14 337.88,767.53 334.28,767.53 334.28,738.71 330.68,738.71 330.68,709.9 327.07,709.9 327.07,677.49 323.47,677.49 323.47,659.48 319.87,659.48 319.87,641.47 316.27,641.47 316.27,612.66 312.67,612.66 312.67,598.25 309.07,598.25 309.07,569.44 305.46,569.44 305.46,555.04 301.87,555.04 301.87,537.03 298.26,537.03 298.26,526.23 294.66,526.23 294.66,508.22 291.06,508.22 291.06,493.81 287.46,493.81 287.46,475.81 283.86,475.81 283.86,457.8 280.26,457.8 280.26,446.99 276.66,446.99 276.66,428.99 273.05,428.99 273.05,414.58 269.45,414.58 269.45,407.38 265.85,407.38 265.85,389.37 262.25,389.37 262.25,378.57 258.65,378.57 258.65,371.36 255.05,371.36 255.05,360.56 251.44,360.56 251.44,349.75 247.84,349.75 247.84,335.35 244.24,335.35 244.24,324.54 240.64,324.54 240.64,317.34 237.04,317.34 237.04,306.53 233.44,306.53 233.44,299.33 229.83,299.33 229.83,292.13 226.24,292.13 226.24,281.33 222.63,281.33 222.63,274.12 219.03,274.12 219.03,270.52 215.43,270.52 215.43,263.32 211.83,263.32 211.83,256.11 208.23,256.11 208.23,252.51 204.63,252.51 204.63,248.91 201.02,248.91 201.02,245.31 197.42,245.31 197.42,241.71 193.82,241.71 193.82,238.11 186.62,238.11 "/>
  <path id="outline" class="fil2" d="M471.14 1829.96l-3.61 0 0 10.81 -3.6 0 0 7.2 -3.6 0 0 7.2 -3.6 0 0 3.6 -3.6 0 0 7.21 -3.6 0 0 3.6 -3.61 0 0 3.6 -3.6 0 0 3.6 -3.6 0 0 3.6 -3.6 0 0 3.6 -3.6 0 0 3.6 -3.6 0 0 3.61 -3.61 0 0 3.6 -3.59 0 0 3.6 -7.21 0 0 3.6 -3.6 0 0 3.6 -7.2 0 0 3.6 -3.6 0 0 3.6 -7.21 0 0 3.61 -3.6 0 0 3.6 -3.6 0 0 3.6 -7.2 0 0 3.6 -3.61 0 0 3.6 -7.2 0 0 3.6 -3.6 0 0 3.61 -7.2 0 0 3.6 -3.6 0 0 3.6 -7.21 0 0 3.6 -3.6 0 0 3.6 -7.2 0 0 3.6 -3.6 0 0 3.61 -3.61 0 0 3.59 -7.2 0 0 3.61 -3.6 0 0 3.6 -3.6 0 0 3.6 -3.6 0 0 3.6 -7.2 0 0 3.6 -3.61 0 0 3.6 -3.6 0 0 3.61 -3.6 0 0 3.6 -7.2 0 0 3.6 -7.2 0 0 3.6 -14.41 0 0 3.6 -25.21 0 0 -3.6 -14.41 0 0 -3.6 -7.2 0 0 -3.6 -10.8 0 0 -3.6 -3.61 0 0 -3.61 -7.2 0 0 -3.6 -3.6 0 0 -3.6 -7.2 0 0 -3.6 -3.61 0 0 -3.6 -3.6 0 0 -3.6 -7.2 0 0 -3.61 -7.2 0 0 -3.59 -3.6 0 0 -3.61 -3.61 0 0 -3.6 -7.2 0 0 -3.6 -7.2 0 0 -3.6 -3.6 0 0 -3.6 -7.2 0 0 -3.6 -3.61 0 0 -3.61 -7.2 0 0 -3.6 -7.21 0 0 -3.6 -7.2 0 0 -3.6 -7.2 0 0 -3.6 -3.6 0 0 -3.6 -7.2 0 0 -3.61 -3.61 0 0 -3.6 -7.2 0 0 -3.6 -3.6 0 0 -3.6 -3.6 0 0 -3.6 -3.6 0 0 -3.6 -7.21 0 0 -3.6 -3.6 0 0 -3.61 -3.6 0 0 -3.6 -3.6 0 0 -7.2 -3.6 0 0 -3.6 -3.6 0 0 -7.2 -3.61 0 0 -7.21 -3.6 0 0 -10.8 -3.6 0 0 -10.81 -3.6 0 0 -18 -3.6 0 0 -75.63 3.6 0 0 -14.41 3.6 0 0 -18.01 3.6 0 0 -18 3.6 0 0 -14.41 3.61 0 0 -14.41 3.6 0 0 -14.4 3.6 0 0 -10.81 3.6 0 0 -18.01 3.6 0 0 -7.2 3.6 0 0 -10.8 3.61 0 0 -14.41 3.6 0 0 -14.4 3.6 0 0 -10.81 3.6 0 0 -10.8 3.6 0 0 -10.81 3.6 0 0 -14.4 3.6 0 0 -14.41 3.61 0 0 -7.2 3.6 0 0 -10.81 3.6 0 0 -10.8 3.6 0 0 -7.2 3.6 0 0 -7.21 3.6 0 0 -7.2 3.61 0 0 -7.2 3.59 0 0 -7.21 3.61 0 0 -7.2 3.6 0 0 -7.2 3.6 0 0 -7.21 3.6 0 0 -7.2 3.61 0 0 -3.6 3.59 0 0 -7.2 3.61 0 0 -7.2 3.6 0 0 -3.61 3.6 0 0 -7.2 7.2 0 0 -7.2 3.6 0 0 -3.6 3.61 0 0 -3.61 3.6 0 0 -3.6 3.6 0 0 -3.6 7.2 0 0 -3.6 3.6 0 0 -3.6 7.21 0 0 -3.6 7.2 0 0 -3.6 7.2 0 0 -3.61 10.81 0 0 -3.6 54.02 0 0 3.6 14.41 0 0 3.61 7.2 0 0 3.6 7.2 0 0 3.6 7.2 0 0 3.6 7.2 0 0 3.6 3.61 0 0 3.6 3.6 0 0 3.6 3.6 0 0 3.61 7.2 0 0 3.6 3.6 0 0 3.6 3.61 0 0 3.6 3.6 0 0 3.6 3.6 0 0 7.21 3.6 0 0 3.6 3.6 0 0 3.6 3.6 0 0 7.2 3.61 0 0 3.6 3.6 0 0 7.2 3.6 0 0 7.21 3.6 0 0 3.6 3.6 0 0 7.2 3.6 0 0 7.21 3.6 0 0 3.6 3.61 0 0 7.2 3.6 0 0 7.2 3.6 0 0 10.81 3.6 0 0 7.2 3.6 0 0 10.81 3.6 0 0 7.2 3.61 0 0 14.41 3.6 0 0 10.8 3.6 0 0 7.2 3.6 0 0 14.41 3.6 0 0 10.8 3.6 0 0 7.2 3.61 0 0 10.81 3.59 0 0 10.8 3.61 0 0 10.81 3.6 0 0 7.2 3.6 0 0 10.8 3.6 0 0 7.21 3.6 0 0 10.8 3.6 0 0 10.81 3.61 0 0 10.8 3.6 0 0 7.2 3.6 0 0 14.41 3.6 0 0 10.81 3.6 0 0 18 3.6 0 0 14.41 3.61 0 0 21.61 3.6 0 0 64.83 -3.6 0 0 18zm-302.53 -1552.24l3.6 0 0 -14.4 3.6 0 0 -10.81 3.6 0 0 -3.6 3.61 0 0 -7.2 3.6 0 0 -3.6 7.2 0 0 3.6 3.6 0 0 3.6 3.6 0 0 3.6 3.61 0 0 3.6 3.6 0 0 3.6 3.6 0 0 7.21 3.6 0 0 7.2 3.6 0 0 3.6 3.6 0 0 7.21 3.61 0 0 10.8 3.59 0 0 7.2 3.61 0 0 7.2 3.6 0 0 10.81 3.6 0 0 7.2 3.6 0 0 10.81 3.6 0 0 14.4 3.6 0 0 10.81 3.61 0 0 10.8 3.6 0 0 7.21 3.6 0 0 10.8 3.6 0 0 18.01 3.6 0 0 7.2 3.6 0 0 14.41 3.61 0 0 18 3.6 0 0 10.81 3.6 0 0 18.01 3.6 0 0 18 3.6 0 0 14.41 3.6 0 0 18.01 3.6 0 0 10.8 3.61 0 0 18.01 3.59 0 0 14.4 3.61 0 0 28.81 3.6 0 0 14.41 3.6 0 0 28.81 3.6 0 0 18.01 3.6 0 0 18.01 3.6 0 0 32.41 3.61 0 0 28.81 3.6 0 0 28.82 3.6 0 0 21.61 3.6 0 0 25.2 3.6 0 0 28.82 3.6 0 0 43.22 3.61 0 0 54.02 3.6 0 0 36.01 3.6 0 0 46.82 3.6 0 0 97.24 3.6 0 0 50.42 3.6 0 0 93.64 3.6 0 0 32.41 3.61 0 0 61.23 3.6 0 0 32.41 3.6 0 0 21.61 3.6 0 0 25.21 -3.6 0 0 -7.2 -3.6 0 0 -7.2 -3.6 0 0 -7.21 -3.61 0 0 -3.6 -3.6 0 0 -7.2 -3.6 0 0 -3.6 -3.6 0 0 -7.21 -3.6 0 0 -3.6 -3.6 0 0 -3.6 -3.6 0 0 -3.6 -3.61 0 0 -3.6 -3.6 0 0 -3.61 -3.6 0 0 -3.6 -3.6 0 0 -3.6 -3.6 0 0 -3.6 -3.6 0 0 -3.6 -3.61 0 0 -3.6 -3.6 0 0 -3.6 -3.6 0 0 -3.61 -7.2 0 0 -3.6 -3.6 0 0 -3.6 -7.2 0 0 -3.6 -7.21 0 0 -3.6 -10.8 0 0 -3.6 -10.81 0 0 -3.61 -21.61 0 0 -3.6 -39.61 0 0 3.6 -14.41 0 0 3.61 -10.8 0 0 3.6 -7.21 0 0 3.6 -7.2 0 0 3.6 -3.6 0 0 3.6 -7.2 0 0 3.6 -3.6 0 0 3.61 -3.61 0 0 3.6 -7.2 0 0 3.6 -3.6 0 0 3.6 -3.6 0 0 3.6 -3.6 0 0 3.6 -3.61 0 0 7.21 -3.59 0 0 3.6 -3.61 0 0 3.6 -3.6 0 0 7.2 -3.6 0 0 3.6 -3.6 0 0 7.21 -3.61 0 0 3.6 -3.59 0 0 7.2 -3.61 0 0 7.21 -3.6 0 0 7.2 -3.6 0 0 7.2 -3.6 0 0 10.8 -3.6 0 0 7.21 -3.6 0 0 7.2 -3.61 0 0 3.6 -3.6 0 0 -28.81 3.6 0 0 -61.23 3.61 0 0 -93.63 3.6 0 0 -75.63 3.6 0 0 -50.43 3.6 0 0 -36.01 3.6 0 0 -39.62 3.6 0 0 -28.81 3.61 0 0 -18.01 3.59 0 0 -28.81 3.61 0 0 -32.41 3.6 0 0 -14.41 3.6 0 0 -28.81 3.6 0 0 -21.61 3.61 0 0 -25.21 3.59 0 0 -28.81 3.61 0 0 -21.61 3.6 0 0 -21.61 3.6 0 0 -21.6 3.6 0 0 -18.01 3.6 0 0 -21.61 3.6 0 0 -25.21 3.61 0 0 -28.82 3.6 0 0 -28.81 3.6 0 0 -32.41 3.6 0 0 -39.61 3.6 0 0 -172.88 -3.6 0 0 -144.06zm7.2 -54.02l-7.2 0 0 3.6 -3.6 0 0 3.6 -3.6 0 0 7.21 -3.6 0 0 7.2 -3.61 0 0 7.2 -3.6 0 0 10.81 -3.6 0 0 18.01 -3.6 0 0 72.02 3.6 0 0 72.03 3.6 0 0 151.27 -3.6 0 0 43.21 -3.6 0 0 36.02 -3.6 0 0 28.81 -3.6 0 0 28.81 -3.61 0 0 28.81 -3.59 0 0 14.41 -3.61 0 0 21.61 -3.6 0 0 32.41 -3.6 0 0 14.41 -3.6 0 0 25.21 -3.61 0 0 21.61 -3.59 0 0 18 -3.61 0 0 25.22 -3.6 0 0 21.61 -3.6 0 0 28.81 -3.6 0 0 25.21 -3.6 0 0 21.61 -3.6 0 0 39.61 -3.61 0 0 25.21 -3.6 0 0 50.42 -3.6 0 0 36.02 -3.6 0 0 50.42 -3.6 0 0 75.63 -3.6 0 0 75.63 -3.6 0 0 43.22 -3.61 0 0 72.03 -3.6 0 0 61.22 -3.6 0 0 18.01 -3.6 0 0 10.8 -3.6 0 0 7.21 -3.6 0 0 10.8 -3.61 0 0 10.81 -3.6 0 0 14.4 -3.6 0 0 14.41 -3.6 0 0 14.4 -3.6 0 0 14.41 -3.6 0 0 14.41 -3.61 0 0 10.8 -3.59 0 0 21.61 -3.61 0 0 10.81 -3.6 0 0 21.6 -3.6 0 0 86.44 3.6 0 0 18.01 3.6 0 0 14.4 3.61 0 0 10.81 3.59 0 0 7.2 3.61 0 0 7.2 3.6 0 0 7.2 3.6 0 0 3.61 3.6 0 0 7.2 3.6 0 0 3.6 3.6 0 0 3.6 3.61 0 0 3.6 3.6 0 0 3.6 3.6 0 0 3.61 7.2 0 0 3.6 3.6 0 0 3.6 3.61 0 0 3.6 7.2 0 0 3.6 3.6 0 0 3.6 7.2 0 0 3.61 7.21 0 0 3.6 3.6 0 0 3.6 7.2 0 0 3.6 3.6 0 0 3.6 7.21 0 0 3.6 7.2 0 0 3.61 7.2 0 0 3.59 3.6 0 0 3.61 7.2 0 0 3.6 3.61 0 0 3.6 7.2 0 0 3.6 3.6 0 0 3.6 7.2 0 0 3.6 3.61 0 0 3.61 3.6 0 0 3.6 7.2 0 0 3.6 7.2 0 0 3.6 3.6 0 0 3.6 7.21 0 0 3.6 7.2 0 0 3.6 7.2 0 0 3.61 7.21 0 0 3.6 7.2 0 0 3.6 10.81 0 0 3.6 46.81 0 0 -3.6 10.81 0 0 -3.6 7.2 0 0 -3.6 7.2 0 0 -3.61 7.2 0 0 -3.6 3.61 0 0 -3.6 3.6 0 0 -3.6 7.2 0 0 -3.6 3.6 0 0 -3.6 3.6 0 0 -3.6 7.21 0 0 -3.61 3.6 0 0 -3.6 3.6 0 0 -3.6 3.6 0 0 -3.6 7.21 0 0 -3.6 3.6 0 0 -3.6 3.6 0 0 -3.61 7.2 0 0 -3.59 3.6 0 0 -3.61 3.6 0 0 -3.6 7.21 0 0 -3.6 3.6 0 0 -3.6 7.2 0 0 -3.6 3.6 0 0 -3.6 7.21 0 0 -3.61 3.6 0 0 -3.6 7.2 0 0 -3.6 3.6 0 0 -3.6 7.2 0 0 -3.6 3.61 0 0 -3.6 3.6 0 0 -3.61 7.2 0 0 -3.6 3.6 0 0 -3.6 3.6 0 0 -3.6 3.61 0 0 -3.6 7.2 0 0 -3.6 3.6 0 0 -3.6 3.6 0 0 -7.21 3.6 0 0 -3.6 3.61 0 0 -3.6 3.6 0 0 -7.2 3.6 0 0 -3.6 3.6 0 0 -10.81 3.6 0 0 -7.2 3.6 0 0 -14.4 3.6 0 0 -10.81 3.61 0 0 -86.44 -3.61 0 0 -10.8 -3.6 0 0 -21.61 -3.6 0 0 -14.41 -3.6 0 0 -14.4 -3.6 0 0 -7.21 -3.6 0 0 -14.4 -3.6 0 0 -7.2 -3.61 0 0 -14.41 -3.6 0 0 -10.81 -3.6 0 0 -10.8 -3.6 0 0 -7.2 -3.6 0 0 -10.81 -3.6 0 0 -10.8 -3.61 0 0 -7.2 -3.6 0 0 -14.41 -3.6 0 0 -7.2 -3.6 0 0 -10.81 -3.6 0 0 -14.4 -3.6 0 0 -10.81 -3.61 0 0 -7.2 -3.59 0 0 -21.61 -3.61 0 0 -21.61 -3.6 0 0 -39.62 -3.6 0 0 -21.6 -3.6 0 0 -46.82 -3.6 0 0 -28.82 -3.6 0 0 -54.02 -3.61 0 0 -21.61 -3.6 0 0 -111.64 -3.6 0 0 -39.62 -3.6 0 0 -82.83 -3.6 0 0 -57.63 -3.6 0 0 -39.61 -3.61 0 0 -46.82 -3.6 0 0 -36.02 -3.6 0 0 -36.01 -3.6 0 0 -21.61 -3.6 0 0 -28.81 -3.6 0 0 -36.02 -3.6 0 0 -25.2 -3.61 0 0 -25.22 -3.6 0 0 -21.6 -3.6 0 0 -14.41 -3.6 0 0 -21.61 -3.6 0 0 -21.61 -3.6 0 0 -18.01 -3.61 0 0 -21.61 -3.6 0 0 -18 -3.6 0 0 -14.41 -3.6 0 0 -14.41 -3.6 0 0 -21.61 -3.6 0 0 -14.4 -3.61 0 0 -14.41 -3.59 0 0 -14.4 -3.61 0 0 -14.41 -3.6 0 0 -7.2 -3.6 0 0 -14.4 -3.6 0 0 -14.41 -3.6 0 0 -14.41 -3.6 0 0 -7.2 -3.6 0 0 -14.41 -3.61 0 0 -10.8 -3.6 0 0 -10.81 -3.6 0 0 -7.2 -3.6 0 0 -14.41 -3.6 0 0 -7.2 -3.6 0 0 -7.2 -3.61 0 0 -10.8 -3.6 0 0 -7.21 -3.6 0 0 -7.2 -3.6 0 0 -7.2 -3.6 0 0 -7.21 -3.6 0 0 -3.6 -3.61 0 0 -7.2 -3.59 0 0 -3.6 -3.61 0 0 -3.6 -3.6 0 0 -3.61 -3.6 0 0 -3.6 -3.6 0 0 -3.6 -7.2 0 0 -3.6 -28.82 0 0 3.6z"/>
  <path class="fil3 str0" d="M347.42 1339.07l-1.66 -2.54 1.66 2.54zm-1.66 -2.54l-0.72 -2.15 0.72 2.15zm-0.72 -2.15zm-4.77 -9.38l4.77 9.38zm-4.77 -9.38c0.36,-2.97 3.03,-1.31 1.18,0.5l-0.35 -0.05c-0.95,-0.36 -1.3,3.54 -0.83,-0.45zm-1.96 -8.2l0.21 0.64c-0.01,-0.04 -0.33,-0.5 -0.21,-0.64zm-7.88 -16.21c1.22,-1.45 3.21,4.27 0.94,1.35 -0.02,-0.03 -2.85,0.93 -0.94,-1.35zm-46.55 -168.87zm-6.21 -13.68l6.21 13.68zm-6.21 -13.68c2.69,2.65 0.67,-0.48 2.39,3.18 1.33,2.83 1.15,1.62 1.44,5.81 -5.22,-5.13 -3.42,-7.29 -3.83,-8.99zm-3.11 -6.83zm0 0zm0 0zm-11.29 -28.71l11.29 28.71zm-11.29 -28.71c3.4,1.58 7.32,7.03 8.37,12.61 0.82,4.34 0.73,0.86 0.02,7.5 -3.18,-6.27 -5.7,-13.25 -8.39,-20.11zm46.21 -174.07c0.54,-4.49 1.51,0.34 0.56,0.23 -0.02,0 -1.14,4.67 -0.56,-0.23zm37.94 430.64c3.97,3.89 12.62,25.08 16.2,33.39 7.7,17.92 8.19,16.2 16.48,33.05 1.85,3.75 3.84,7.88 5.3,11.76 2.04,5.42 1.97,8.66 5.21,11.85 -0.26,-12.22 -16.21,-48.61 -20.94,-59.35l-7.66 -19.48c-1.44,-3.95 -1.71,-5.48 -3.45,-9.44l-22.45 -57.57c-2.39,-5.73 -3.1,-3.41 -3.27,-11.17 2.24,-0.03 2.31,-0.45 4.88,0.21l0.42 -3.51c-4.29,-4.21 -11.22,-25.04 -13.93,-33.09 -2.86,-8.5 -4.69,-8.1 -7.14,-17.08l-13.17 -34c-1.34,-3.17 -1.74,-5.07 -3.07,-8.38 -2.89,-7.18 -16.8,-37.5 -16.95,-44.54 3.21,2.9 3.82,5.94 6,8.21 7.97,8.34 -5.73,-25.09 -6.45,-27.26 -1.37,-4.12 -1.96,-6.79 -3.14,-11.31 -2.13,-8.09 -0.73,-18.24 -5.34,-23.95 -3.47,-4.3 -5.09,-0.98 -8.04,-0.75 -0.2,-9.38 -2.71,-8.49 -6.22,-13.68 4.7,-8.4 4.59,-3.34 4.33,-15.54 -0.2,-9.68 0.87,-16.46 4.68,-21.88 7.09,-10.1 19.21,-28.41 22.32,-45.41 1.54,-8.36 2.51,-19.58 3.37,-23.96 0.72,-3.7 4.41,-13.27 6.14,-19.1 2,-6.74 4.27,-14.23 5.25,-22.43 3.25,3.2 0.99,2.28 4.25,5.48 1.12,-4.36 4.21,-11.87 5.83,-15.96 2.05,-5.19 4.54,-10.55 6.75,-15.6 4.72,-10.81 11.84,-33.75 15.8,-41.01 4.08,-7.48 5.86,-19.52 8.62,-29.07 7.11,-24.58 16.36,-44.86 26.05,-65.24 4.67,-9.81 8.68,-21.47 13.5,-31.23 3.07,-6.22 4.68,-5.88 6.31,-14.89 0.84,-4.65 -0.52,-1.82 2.25,-7.01 1.52,-2.85 2.47,-3.97 4.09,-7.07 2.7,-5.18 4.42,-10.98 6.35,-16.78 2.29,-6.87 4.64,-8.65 6.87,-15.28l18.28 -50.27c2.81,-7.48 4.49,-8.77 6.75,-15.61l6.36 -16.75c1.43,-3.95 1.16,-4.56 2.53,-9.12 4.76,-15.83 14.3,-32.1 19.93,-47.78 1.41,-3.92 1.5,-6.15 2.9,-10.39 6.5,-19.68 19.01,-20.49 22.16,-22.32l2.75 -5.06c2.43,-12.2 1.22,-35.75 -3.19,-41.3 -9.01,-11.33 -17.72,-1.8 -23.83,-1.7 -5.75,-11.37 -2.94,-16.43 -12.01,-11.86l-11.15 4.94c-3.91,2.25 -1.06,-2.46 -4.36,6.06 -3.19,8.21 -4.53,6.53 -7.8,14.91 -2.74,7.02 -2.49,11.83 -5.85,18.06 -2.91,5.38 -5.47,8.2 -7.85,14.9 -7.35,20.61 -11.72,25.48 -14.54,32.9l-14.05 36.69c-3.54,12.92 -9.03,24.41 -13.78,35.13 -2.61,5.88 -4.38,13.28 -6.89,19.94 -2.5,6.62 -4.94,10.68 -6.01,17.45 -1.01,6.46 -4.5,11.87 -6.81,18.18 -13.54,37.1 -25.06,78.62 -41.13,110.74 -6.51,13 -9.87,17.74 -15.02,33.86 -6.97,21.85 -16.7,45.8 -22.31,69.19l-9.03 30.22c-1.21,4.51 -1.65,6.05 -3.05,9.94 -1.03,2.83 -3.06,7.52 -3.81,10.23 -2.06,7.39 -0.57,6.63 -2.21,12.27l-3.55 10.88c-0.13,0.39 -0.27,0.82 -0.39,1.21l-4.72 16.88c-3.17,13.57 -11.32,24.76 -11.25,40.25 -5.8,-5.69 -24.39,-74.9 -28,-88.6 -2.79,-10.61 -8.4,-42.09 -10.73,-48.94 -1.56,-4.59 -2.49,-5.23 -4.24,-10.01 -2.53,-6.93 -9.8,-27.54 -13.23,-30.91 1.84,-15.41 3.37,-30.85 -6.71,-29.43 -3.8,0.53 0.27,1.16 -2.82,0.65 -1.94,-0.32 -1.36,-0.6 -3.41,-2.46 3.35,-13.08 4.9,-13.64 -7.82,-23.13 -1.71,-1.28 -1.76,-1.84 -3.68,-3.72 -4.24,-4.16 -5.53,-2.15 -5.7,-9.88 5.69,2.4 8.93,0.31 13.7,0.24 0.63,-8.62 -2.88,-15.75 -5.38,-20.7 -6.08,-6.31 0.13,11.83 -16.54,-14.91l-4.19 -8.55c2.7,-0.05 5.18,-0.33 7.88,-0.37 0.45,-6.07 0.06,-6.73 -0.61,-11.32l13.64 -2.15c4.96,-1.69 9.86,-6.08 14.79,-6.15 -2.13,-9.2 -15.68,-8.62 -24.09,-12.06 -6.18,-2.52 -5.05,-0.07 -7.95,-0.52l-15.77 -5.7c-10.72,-6.47 -20.64,-37.19 -33.83,-48.51 -4.73,-4.07 -30.43,-14.22 -36.92,-16.37 -5.55,-1.83 -9.64,1.52 -12.49,8.23 -3.71,8.73 -1.22,16.09 0.44,25.87 2.62,15.46 8.51,19.97 15.79,39.9 2.45,6.73 5.12,13.41 7.74,19.38l31.19 81.78c6.88,20.58 13.64,44.22 21.43,63.3l7.38 19.81c1.71,5.01 2.34,5.63 4.16,10.1 6.72,16.46 8.99,26.98 19.79,51.69 3.35,7.65 3.01,12.15 6.75,20.57 4.08,9.16 5.82,17.75 10.06,25.65 4.69,8.74 5.38,16.8 9.44,26.39 7.74,18.28 27.99,76.77 31.94,95.95 -4.91,11.7 -17.87,57.89 -21.47,64.58 -5.29,9.82 -3.05,10.56 -6.93,22.19l-7.34 20.98c-2.53,7.89 -4.76,14.86 -7.02,21.93 -2.48,7.75 -4.43,13.87 -7.03,21.92 -7.29,22.61 -12.84,45.59 -20.98,68.44 -2.8,7.86 -1.4,2.26 -2.54,11.82l-1.71 6.25c-0.1,0.23 -0.32,0.61 -0.42,0.84 -0.09,0.22 -0.28,0.64 -0.37,0.86l-11.96 39.01c-0.77,3.01 -0.77,4.09 -1.62,7.06 -2.28,7.95 -4.59,9.92 -7.34,21l-27.36 92.23c-6.22,21.14 -14.01,42.26 -18.87,64.8 -1.03,4.82 -1.21,2.46 -2.61,6.71 -2.78,8.43 -3.52,18.15 -6.6,25.64 -1.79,4.37 -2.2,5.39 -3.31,11.62 -2.43,13.63 -4.01,13.42 -7.32,23.4 -5.85,17.64 -10.8,47.41 -18.95,72.06 -2.57,7.77 -3.59,20.08 -6.01,27.28 -5.72,17 -4.75,23.01 -12.72,47.79 -3.68,11.46 -3.24,9.55 -5.86,25.35 -1.81,10.93 -5.24,11.35 -6.85,24.82l8.17 -16.39c2.94,-6.25 5.68,-11.38 7.78,-19.45 3.9,-15 10.33,-26.4 14.93,-41.22 1.51,-4.88 3.48,-13.86 4.84,-18.9 4.9,-18.22 8.67,-25.92 14.66,-50.53 0.95,-3.89 1.92,-3.49 2.87,-8.43 0.72,-3.75 -0.2,-2.26 1.2,-6.68 1.66,-5.24 1.17,-2.15 2.95,-7.76l8.22 -27.89c2.02,-5.56 4,-9.96 5.94,-15.64 4.56,-13.38 8.48,-32.24 14.17,-43.49 2.95,-5.84 7.77,-26.2 14.49,-42.51 1.74,-4.21 3.65,-11.69 5.41,-17.2 1.09,-3.39 1.66,-5.45 2.74,-8.51l30.19 -88.59c1.68,-5.84 2.51,-12.84 4.54,-19.78 3.84,-13.13 7.51,-22.07 11.88,-33.65 2.07,-5.5 3.81,-10.29 5.99,-15.47l12.66 -31.48c3.24,-9.85 1.8,-11.17 0.6,-19.46 16.67,-29.83 10.76,-23.97 17.38,-38.71l15.32 -30.55c2.97,-5.71 14.89,-27.63 15.63,-32.04l-2.8 -1.18 2.08 -17.55c5.24,-0.4 13.25,-10.71 16.72,-16.92 11,17.65 21.48,37.81 31.62,57.17 7.48,14.3 16.04,29.86 22.03,46.01 2.28,6.15 3.98,11.15 8.93,13.45l2.73 -7.2c0.03,-0.11 0.09,-0.56 0.18,-0.79 6.42,5.82 9.81,22.92 13.41,33.72 1.83,5.5 1.97,8.56 3.93,13.37 6.4,15.7 12.1,30.48 18.85,45.3 6.81,14.94 13.45,28.48 19.88,44.06l19.41 44.62c3.28,7.34 6.11,13.89 9.63,21.65 3.94,8.7 6,14.33 9.23,23.63 3.05,8.79 6.82,13.1 10.11,21.07 2.86,6.91 0.46,4.44 4.2,11.56l15.4 32.84c3,5.91 1.26,5.69 3.88,11.94l24.16 53.42c1.42,1.37 2.14,1.06 1.44,-2.78 -0.93,-5.17 -2.77,-8.63 -4.75,-12.25 -3.69,-6.7 -4.13,-10.45 -7.09,-17.15l-17.2 -42.75c-1.59,-4.22 -2.24,-5.14 -3.8,-9.01l-63.46 -154.74c-4.37,-10.53 -10.76,-23.63 -13.2,-35.46z"/>
 </g>
</svg>
