<?xml version="1.0" encoding="UTF-8"?>
<!DOCTYPE svg PUBLIC "-//W3C//DTD SVG 1.1//EN" "http://www.w3.org/Graphics/SVG/1.1/DTD/svg11.dtd">
<!-- Creator: CorelDRAW (Versión de evaluación) -->
<svg xmlns="http://www.w3.org/2000/svg" xml:space="preserve" width="756px" height="2062px" version="1.1" style="shape-rendering:geometricPrecision; text-rendering:geometricPrecision; image-rendering:optimizeQuality; fill-rule:evenodd; clip-rule:evenodd"
viewBox="0 0 756 2062.79"
 xmlns:xlink="http://www.w3.org/1999/xlink"
 xmlns:xodm="http://www.corel.com/coreldraw/odm/2003">
 <defs>
  <style type="text/css">
   <![CDATA[
    .fil2 {fill:#4B4B4D}
    .fil1 {fill:#EDEAE0}
    .fil0 {fill:#F2E6C9}
    .fil3 {fill:#ED3237;fill-rule:nonzero}
   ]]>
  </style>
 </defs>
 <g id="extraction">
  <metadata id="CorelCorpID_0Corel-Layer"/>
  <polygon id="root" class="fil0" points="287.92,418.61 280.72,418.61 280.72,425.82 277.12,425.82 277.12,433.02 273.52,433.02 273.52,443.82 269.92,443.82 269.92,465.42 266.32,465.42 266.32,587.82 269.92,587.82 269.92,710.21 266.32,710.21 266.32,760.62 262.72,760.62 262.72,807.41 259.12,807.41 259.12,829.01 255.52,829.01 255.52,854.22 251.92,854.22 251.92,886.62 248.32,886.62 248.32,908.22 244.72,908.22 244.72,951.42 248.32,951.42 248.32,958.61 251.92,958.61 251.92,969.41 255.52,969.41 255.52,976.61 259.12,976.61 259.12,983.82 262.72,983.82 262.72,991.01 266.32,991.01 266.32,1001.81 269.92,1001.81 269.92,1009.01 273.52,1009.01 273.52,1016.22 277.12,1016.22 277.12,1023.41 280.72,1023.41 280.72,1030.61 284.32,1030.61 284.32,1037.82 287.92,1037.82 287.92,1045.01 291.52,1045.01 291.52,1055.81 295.12,1055.81 295.12,1063.01 298.72,1063.01 298.72,1070.22 302.32,1070.22 302.32,1077.41 305.92,1077.41 305.92,1084.61 309.52,1084.61 309.52,1095.41 313.12,1095.41 313.12,1102.62 316.72,1102.62 316.72,1113.42 320.32,1113.42 320.32,1120.61 323.92,1120.61 323.92,1127.81 327.52,1127.81 327.52,1142.21 331.12,1142.21 331.12,1149.41 334.72,1149.41 334.72,1160.21 338.32,1160.21 338.32,1174.61 341.92,1174.61 341.92,1189.02 334.72,1189.02 334.72,1181.81 331.12,1181.81 331.12,1174.61 327.52,1174.61 327.52,1171.01 323.92,1171.01 323.92,1160.21 320.32,1160.21 320.32,1153.01 316.72,1153.01 316.72,1145.82 313.12,1145.82 313.12,1138.61 309.52,1138.61 309.52,1131.41 305.92,1131.41 305.92,1124.22 302.32,1124.22 302.32,1117.01 298.72,1117.01 298.72,1109.81 295.12,1109.81 295.12,1102.62 291.52,1102.62 291.52,1091.82 287.92,1091.82 287.92,1084.61 284.32,1084.61 284.32,1077.41 280.72,1077.41 280.72,1070.22 277.12,1070.22 277.12,1063.01 273.52,1063.01 273.52,1055.81 269.92,1055.81 269.92,1048.62 266.32,1048.62 266.32,1041.41 262.72,1041.41 262.72,1030.61 259.12,1030.61 259.12,1023.41 255.52,1023.41 255.52,1016.22 251.92,1016.22 251.92,1009.01 248.32,1009.01 248.32,1001.81 244.72,1001.81 244.72,994.62 241.12,994.62 241.12,987.41 237.52,987.41 237.52,980.21 233.92,980.21 233.92,969.41 230.32,969.41 230.32,962.22 226.72,962.22 226.72,955.02 223.12,955.02 223.12,940.62 219.52,940.62 219.52,929.82 215.92,929.82 215.92,919.02 212.32,919.02 212.32,908.22 208.72,908.22 208.72,893.81 205.12,893.81 205.12,883.01 201.52,883.01 201.52,872.21 197.92,872.21 197.92,854.22 194.32,854.22 194.32,843.42 190.72,843.42 190.72,825.42 187.12,825.42 187.12,803.82 183.52,803.82 183.52,785.81 179.92,785.81 179.92,764.22 176.32,764.22 176.32,728.22 172.72,728.22 172.72,699.41 169.12,699.41 169.12,656.21 165.52,656.21 165.52,587.82 161.92,587.82 161.92,526.62 158.32,526.62 158.32,505.01 154.72,505.01 154.72,497.82 151.12,497.82 151.12,487.02 147.52,487.02 147.52,476.22 143.92,476.22 143.92,472.61 140.32,472.61 140.32,469.02 136.72,469.02 136.72,465.42 122.32,465.42 122.32,469.02 118.72,469.02 118.72,472.61 115.12,472.61 115.12,476.22 111.52,476.22 111.52,479.82 107.92,479.82 107.92,490.62 104.32,490.62 104.32,497.82 100.72,497.82 100.72,505.01 97.12,505.01 97.12,515.81 93.52,515.81 93.52,530.22 89.92,530.22 89.92,541.02 86.32,541.02 86.32,555.42 82.72,555.42 82.72,573.42 79.12,573.42 79.12,591.42 75.52,591.42 75.52,605.82 71.92,605.82 71.92,627.42 68.32,627.42 68.32,656.21 64.72,656.21 64.72,677.81 61.12,677.81 61.12,706.62 57.52,706.62 57.52,742.61 53.92,742.61 53.92,879.42 57.52,879.42 57.52,893.81 61.12,893.81 61.12,922.62 64.72,922.62 64.72,940.62 68.32,940.62 68.32,973.02 71.92,973.02 71.92,994.62 75.52,994.62 75.52,1023.41 79.12,1023.41 79.12,1045.01 82.72,1045.01 82.72,1059.42 86.32,1059.42 86.32,1088.21 89.92,1088.21 89.92,1120.61 93.52,1120.61 93.52,1149.41 97.12,1149.41 97.12,1167.42 100.72,1167.42 100.72,1217.81 104.32,1217.81 104.32,1246.61 107.92,1246.61 107.92,1369.01 104.32,1369.01 104.32,1397.81 100.72,1397.81 100.72,1433.81 97.12,1433.81 97.12,1448.22 100.72,1448.22 100.72,1444.61 107.92,1444.61 107.92,1441.01 115.12,1441.01 115.12,1437.42 122.32,1437.42 122.32,1433.81 133.12,1433.81 133.12,1430.21 140.32,1430.21 140.32,1426.62 151.12,1426.62 151.12,1423.01 161.92,1423.01 161.92,1419.41 176.32,1419.41 176.32,1415.82 179.92,1415.82 179.92,1412.21 197.92,1412.21 197.92,1408.61 215.92,1408.61 215.92,1405.02 237.52,1405.02 237.52,1401.41 259.12,1401.41 259.12,1397.81 280.72,1397.81 280.72,1394.22 428.32,1394.22 428.32,1397.81 457.12,1397.81 457.12,1401.41 478.72,1401.41 478.72,1405.02 493.12,1405.02 493.12,1408.61 507.52,1408.61 507.52,1412.21 525.52,1412.21 525.52,1415.82 536.32,1415.82 536.32,1419.41 543.52,1419.41 543.52,1423.01 557.92,1423.01 557.92,1426.62 565.12,1426.62 565.12,1430.21 575.92,1430.21 575.92,1433.81 586.72,1433.81 586.72,1437.42 593.92,1437.42 593.92,1441.01 604.72,1441.01 604.72,1444.61 611.92,1444.61 611.92,1448.22 619.12,1448.22 619.12,1451.81 626.32,1451.81 626.32,1455.41 633.52,1455.41 633.52,1459.02 640.72,1459.02 640.72,1462.61 647.92,1462.61 647.92,1466.21 655.12,1466.21 655.12,1469.82 662.32,1469.82 662.32,1473.41 665.92,1473.41 665.92,1455.41 662.32,1455.41 662.32,1340.22 665.92,1340.22 665.92,1286.22 669.52,1286.22 669.52,1253.82 673.12,1253.82 673.12,1232.22 676.72,1232.22 676.72,1199.82 680.32,1199.82 680.32,1163.81 683.92,1163.81 683.92,1142.21 687.52,1142.21 687.52,1005.42 683.92,1005.42 683.92,958.61 680.32,958.61 680.32,940.62 676.72,940.62 676.72,919.02 673.12,919.02 673.12,897.42 669.52,897.42 669.52,872.21 665.92,872.21 665.92,861.41 662.32,861.41 662.32,847.02 658.72,847.02 658.72,829.01 655.12,829.01 655.12,814.62 651.52,814.62 651.52,800.22 647.92,800.22 647.92,785.81 644.32,785.81 644.32,771.42 640.72,771.42 640.72,757.02 637.12,757.02 637.12,746.22 633.52,746.22 633.52,735.42 629.92,735.42 629.92,728.22 626.32,728.22 626.32,710.21 622.72,710.21 622.72,703.02 619.12,703.02 619.12,692.22 615.52,692.22 615.52,685.02 611.92,685.02 611.92,670.62 608.32,670.62 608.32,663.42 604.72,663.42 604.72,652.62 601.12,652.62 601.12,641.82 597.52,641.82 597.52,634.61 593.92,634.61 593.92,623.81 590.32,623.81 590.32,616.62 586.72,616.62 586.72,609.42 583.12,609.42 583.12,602.21 579.52,602.21 579.52,595.02 575.92,595.02 575.92,587.82 572.32,587.82 572.32,577.02 568.72,577.02 568.72,573.42 565.12,573.42 565.12,566.22 561.52,566.22 561.52,559.02 557.92,559.02 557.92,555.42 554.32,555.42 554.32,548.22 550.72,548.22 550.72,544.62 547.12,544.62 547.12,537.42 543.52,537.42 543.52,533.82 539.92,533.82 539.92,530.22 536.32,530.22 536.32,526.62 532.72,526.62 532.72,523.02 529.12,523.02 529.12,519.42 525.52,519.42 525.52,515.81 521.92,515.81 521.92,512.22 514.72,512.22 514.72,508.62 503.92,508.62 503.92,512.22 500.32,512.22 500.32,515.81 496.72,515.81 496.72,533.82 493.12,533.82 493.12,602.21 496.72,602.21 496.72,645.41 500.32,645.41 500.32,706.62 503.92,706.62 503.92,836.22 500.32,836.22 500.32,872.21 496.72,872.21 496.72,904.61 493.12,904.61 493.12,919.02 489.52,919.02 489.52,944.22 485.92,944.22 485.92,965.81 482.32,965.81 482.32,980.21 478.72,980.21 478.72,994.62 475.12,994.62 475.12,1005.42 471.52,1005.42 471.52,1023.41 467.92,1023.41 467.92,1034.21 464.32,1034.21 464.32,1045.01 460.72,1045.01 460.72,1059.42 457.12,1059.42 457.12,1073.81 453.52,1073.81 453.52,1088.21 449.92,1088.21 449.92,1095.41 446.32,1095.41 446.32,1109.81 442.72,1109.81 442.72,1120.61 439.12,1120.61 439.12,1131.41 435.52,1131.41 435.52,1145.82 431.92,1145.82 431.92,1156.62 428.32,1156.62 428.32,1167.42 424.72,1167.42 424.72,1178.22 421.12,1178.22 421.12,1189.02 417.52,1189.02 417.52,1196.21 413.92,1196.21 413.92,1203.41 410.32,1203.41 410.32,1210.62 406.72,1210.62 406.72,1217.81 403.12,1217.81 403.12,1221.42 399.52,1221.42 399.52,1225.01 395.92,1225.01 395.92,1228.61 392.32,1228.61 392.32,1232.22 385.12,1232.22 385.12,1235.81 377.92,1235.81 377.92,1239.41 352.72,1239.41 352.72,1235.81 345.52,1235.81 345.52,1232.22 341.92,1232.22 341.92,1228.61 334.72,1228.61 334.72,1225.01 331.12,1225.01 331.12,1217.81 334.72,1217.81 334.72,1221.42 341.92,1221.42 341.92,1225.01 349.12,1225.01 349.12,1228.61 374.32,1228.61 374.32,1225.01 381.52,1225.01 381.52,1221.42 385.12,1221.42 385.12,1214.21 388.72,1214.21 388.72,1210.62 392.32,1210.62 392.32,1203.41 395.92,1203.41 395.92,1192.61 399.52,1192.61 399.52,1185.41 403.12,1185.41 403.12,1174.61 406.72,1174.61 406.72,1163.81 410.32,1163.81 410.32,1153.01 413.92,1153.01 413.92,1138.61 417.52,1138.61 417.52,1124.22 421.12,1124.22 421.12,1113.42 424.72,1113.42 424.72,1099.01 428.32,1099.01 428.32,1084.61 431.92,1084.61 431.92,1073.81 435.52,1073.81 435.52,1063.01 439.12,1063.01 439.12,1048.62 442.72,1048.62 442.72,1027.02 446.32,1027.02 446.32,1016.22 449.92,1016.22 449.92,1005.42 453.52,1005.42 453.52,991.01 457.12,991.01 457.12,976.61 460.72,976.61 460.72,958.61 464.32,958.61 464.32,947.81 467.92,947.81 467.92,922.62 464.32,922.62 464.32,904.61 460.72,904.61 460.72,890.22 457.12,890.22 457.12,872.21 453.52,872.21 453.52,857.82 449.92,857.82 449.92,836.22 446.32,836.22 446.32,818.21 442.72,818.21 442.72,800.22 439.12,800.22 439.12,785.81 435.52,785.81 435.52,771.42 431.92,771.42 431.92,760.62 428.32,760.62 428.32,746.22 424.72,746.22 424.72,735.42 421.12,735.42 421.12,721.01 417.52,721.01 417.52,703.02 413.92,703.02 413.92,692.22 410.32,692.22 410.32,677.81 406.72,677.81 406.72,663.42 403.12,663.42 403.12,649.02 399.52,649.02 399.52,634.61 395.92,634.61 395.92,627.42 392.32,627.42 392.32,613.01 388.72,613.01 388.72,598.62 385.12,598.62 385.12,587.82 381.52,587.82 381.52,577.02 377.92,577.02 377.92,562.62 374.32,562.62 374.32,555.42 370.72,555.42 370.72,541.02 367.12,541.02 367.12,530.22 363.52,530.22 363.52,523.02 359.92,523.02 359.92,512.22 356.32,512.22 356.32,501.42 352.72,501.42 352.72,494.21 349.12,494.21 349.12,483.41 345.52,483.41 345.52,476.22 341.92,476.22 341.92,469.02 338.32,469.02 338.32,461.81 334.72,461.81 334.72,454.62 331.12,454.62 331.12,447.42 327.52,447.42 327.52,443.82 323.92,443.82 323.92,436.62 320.32,436.62 320.32,433.02 316.72,433.02 316.72,429.41 313.12,429.41 313.12,422.22 309.52,422.22 309.52,418.61 302.32,418.61 302.32,415.02 287.92,415.02 "/>
  <path id="crown" class="fil1" d="M309.52 1743.41l7.2 0 0 28.8 3.6 0 0 7.2 3.6 0 0 18 3.6 0 0 10.8 3.6 0 0 7.21 3.6 0 0 10.8 3.6 0 0 7.19 3.6 0 0 7.2 3.6 0 0 7.21 3.6 0 0 3.59 3.6 0 0 3.6 7.2 0 0 3.6 7.2 0 0 3.6 3.6 0 0 3.6 3.6 0 0 3.6 7.2 0 0 3.6 3.6 0 0 3.6 7.2 0 0 3.6 3.6 0 0 3.6 7.2 0 0 3.6 7.2 0 0 3.6 3.6 0 0 3.6 7.2 0 0 3.6 7.2 0 0 3.6 7.2 0 0 3.6 7.2 0 0 3.6 7.2 0 0 3.6 7.2 0 0 3.6 10.8 0 0 3.6 7.2 0 0 3.6 7.2 0 0 3.6 14.4 0 0 3.6 10.8 0 0 3.6 14.4 0 0 3.6 39.6 0 0 -3.6 10.8 0 0 -3.6 10.8 0 0 -3.6 7.2 0 0 -3.6 10.8 0 0 -3.6 3.6 0 0 -3.6 7.2 0 0 -3.6 3.6 0 0 -3.6 3.6 0 0 -3.6 7.2 0 0 -3.6 3.6 0 0 -3.6 3.6 0 0 -3.6 3.6 0 0 -3.6 3.6 0 0 -3.6 3.6 0 0 -3.6 3.6 0 0 -3.6 3.6 0 0 -3.6 3.6 0 0 -3.6 3.6 0 0 -3.6 3.6 0 0 -3.6 3.6 0 0 -3.6 3.6 0 0 3.6 3.6 0 0 7.2 -3.6 0 0 7.2 -3.6 0 0 3.6 -3.6 0 0 7.2 -3.6 0 0 3.6 -3.6 0 0 3.6 -3.6 0 0 3.6 -3.6 0 0 3.6 -3.6 0 0 3.6 -3.6 0 0 3.6 -7.2 0 0 3.6 -3.6 0 0 3.6 -3.6 0 0 3.6 -3.6 0 0 3.6 -7.2 0 0 3.6 -7.2 0 0 3.6 -7.2 0 0 3.6 -7.2 0 0 3.6 -7.2 0 0 3.6 -7.2 0 0 3.6 -10.8 0 0 3.6 -57.6 0 0 -3.6 -14.4 0 0 -3.6 -10.8 0 0 -3.6 -10.8 0 0 -3.6 -7.2 0 0 -3.6 -7.2 0 0 -3.6 -10.8 0 0 -3.6 -7.2 0 0 -3.6 -10.8 0 0 -3.6 -3.6 0 0 -3.6 -7.2 0 0 -3.6 -7.2 0 0 -3.6 -7.2 0 0 -3.6 -7.2 0 0 -3.6 -7.2 0 0 -3.6 -3.6 0 0 -3.6 -7.2 0 0 -3.6 -3.6 0 0 -3.6 -7.2 0 0 -3.6 -3.6 0 0 -3.6 -3.6 0 0 -3.6 -7.2 0 0 -3.6 -3.6 0 0 -3.6 -7.2 0 0 32.4 3.6 0 0 14.4 3.6 0 0 7.2 3.6 0 0 10.8 -7.2 0 0 -3.6 -3.6 0 0 -3.6 -3.6 0 0 -7.2 -3.6 0 0 -10.8 -3.6 0 0 -43.2 -3.6 0 0 3.6 -10.8 0 0 3.6 -10.8 0 0 3.6 -7.2 0 0 3.6 -10.8 0 0 3.6 -7.2 0 0 3.6 -7.2 0 0 3.6 -10.8 0 0 3.6 -7.2 0 0 3.6 -10.8 0 0 3.6 -10.8 0 0 3.6 -10.8 0 0 3.6 -10.8 0 0 3.6 -18 0 0 3.6 -28.8 0 0 -3.6 -10.8 0 0 -3.6 -7.2 0 0 -3.6 -3.6 0 0 -3.6 -7.2 0 0 -3.6 -3.6 0 0 -3.6 -3.6 0 0 -3.6 -3.6 0 0 -3.6 -3.6 0 0 -3.6 -3.6 0 0 -3.6 -3.6 0 0 -3.6 -3.6 0 0 -3.6 -3.6 0 0 -7.2 -3.6 0 0 -3.6 -3.6 0 0 -7.2 -3.6 0 0 -3.6 -3.6 0 0 -7.2 -3.6 0 0 -7.19 -3.6 0 0 -7.21 -3.6 0 0 -7.2 -3.6 0 0 -10.8 -3.6 0 0 -28.8 7.2 0 0 10.8 3.6 0 0 10.81 3.6 0 0 7.19 3.6 0 0 7.2 3.6 0 0 10.8 3.6 0 0 3.6 3.6 0 0 7.2 3.6 0 0 3.6 3.6 0 0 7.2 3.6 0 0 3.6 3.6 0 0 7.2 3.6 0 0 3.6 3.6 0 0 3.6 3.6 0 0 3.6 3.6 0 0 3.6 3.6 0 0 3.6 3.6 0 0 3.6 3.6 0 0 3.6 3.6 0 0 3.6 7.2 0 0 3.6 7.2 0 0 3.6 10.8 0 0 3.6 18 0 0 -3.6 14.4 0 0 -3.6 7.2 0 0 -3.6 14.4 0 0 -3.6 7.2 0 0 -3.6 10.8 0 0 -3.6 10.8 0 0 -3.6 7.2 0 0 -3.6 7.2 0 0 -3.6 10.8 0 0 -3.6 7.2 0 0 -3.6 7.2 0 0 -3.6 10.8 0 0 -3.6 14.4 0 0 -3.6 7.2 0 0 -7.2 -3.6 0 0 -7.19 -3.6 0 0 -7.21 -3.6 0 0 -10.8 -3.6 0 0 -10.8 -3.6 0 0 -18 -3.6 0 0 -46.8zm-10.8 -331.2l-28.8 0 0 3.61 -21.6 0 0 3.59 -18 0 0 3.6 -25.2 0 0 3.61 -10.8 0 0 3.59 -14.4 0 0 3.6 -10.8 0 0 3.61 -14.4 0 0 3.59 -7.2 0 0 3.6 -10.8 0 0 3.61 -7.2 0 0 3.59 -10.8 0 0 3.6 -7.2 0 0 3.61 -7.2 0 0 3.59 -7.2 0 0 3.6 -3.6 0 0 7.2 -3.6 0 0 7.2 -3.6 0 0 7.2 -3.6 0 0 10.8 -3.6 0 0 7.2 -3.6 0 0 10.8 -3.6 0 0 7.2 -3.6 0 0 10.8 -3.6 0 0 7.2 -3.6 0 0 10.8 -3.6 0 0 10.8 -3.6 0 0 10.8 -3.6 0 0 10.8 -3.6 0 0 14.41 -3.6 0 0 14.39 -3.6 0 0 14.4 -3.6 0 0 21.6 -3.6 0 0 18 -3.6 0 0 21.6 -3.6 0 0 10.8 -3.6 0 0 72 3.6 0 0 25.2 3.6 0 0 10.8 3.6 0 0 14.4 3.6 0 0 10.8 3.6 0 0 7.2 3.6 0 0 7.21 3.6 0 0 7.19 3.6 0 0 7.2 3.6 0 0 7.2 3.6 0 0 3.6 3.6 0 0 7.2 3.6 0 0 3.6 3.6 0 0 3.6 3.6 0 0 3.6 3.6 0 0 7.2 3.6 0 0 3.6 3.6 0 0 3.6 3.6 0 0 3.6 3.6 0 0 3.6 3.6 0 0 3.6 3.6 0 0 3.6 3.6 0 0 3.6 7.2 0 0 3.6 3.6 0 0 3.6 3.6 0 0 3.6 3.6 0 0 3.6 3.6 0 0 3.6 3.6 0 0 3.6 3.6 0 0 3.6 7.2 0 0 3.6 3.6 0 0 3.6 3.6 0 0 3.6 7.2 0 0 3.6 3.6 0 0 3.6 7.2 0 0 3.6 7.2 0 0 3.6 7.2 0 0 3.6 14.4 0 0 3.6 18 0 0 -3.6 18 0 0 -3.6 10.8 0 0 -3.6 10.8 0 0 -3.6 7.2 0 0 -3.6 10.8 0 0 -3.6 7.2 0 0 -3.6 10.8 0 0 -3.6 7.2 0 0 -3.6 7.2 0 0 -3.6 18 0 0 -3.6 10.8 0 0 -3.6 43.2 0 0 3.6 7.2 0 0 3.6 14.4 0 0 3.6 7.2 0 0 3.6 7.2 0 0 3.6 7.2 0 0 3.6 7.2 0 0 3.6 7.2 0 0 3.6 7.2 0 0 3.6 7.2 0 0 3.6 7.2 0 0 3.6 7.2 0 0 3.6 7.2 0 0 3.6 10.8 0 0 3.6 7.2 0 0 3.6 14.4 0 0 3.6 7.2 0 0 3.6 36 0 0 -3.6 14.4 0 0 -3.6 14.4 0 0 -3.6 7.2 0 0 -3.6 7.2 0 0 -3.6 7.2 0 0 -3.6 3.6 0 0 -3.6 7.2 0 0 -3.6 7.2 0 0 -3.6 3.6 0 0 -3.6 7.2 0 0 -3.6 3.6 0 0 -3.6 3.6 0 0 -3.6 7.2 0 0 -3.6 3.6 0 0 -3.6 3.6 0 0 -3.6 3.6 0 0 -3.6 3.6 0 0 -3.6 3.6 0 0 -3.6 3.6 0 0 -3.6 3.6 0 0 -3.6 3.6 0 0 -3.6 3.6 0 0 -3.6 3.6 0 0 -7.2 3.6 0 0 -3.6 3.6 0 0 -3.6 3.6 0 0 -7.2 3.6 0 0 -3.6 3.6 0 0 -3.6 3.6 0 0 -7.2 3.6 0 0 -3.6 3.6 0 0 -7.2 3.6 0 0 -7.2 3.6 0 0 -7.2 3.6 0 0 -3.6 3.6 0 0 -10.8 3.6 0 0 -7.2 3.6 0 0 -10.8 3.6 0 0 -10.8 3.6 0 0 -14.4 3.6 0 0 -82.8 -3.6 0 0 -21.6 -3.6 0 0 -21.6 -3.6 0 0 -14.4 -3.6 0 0 -7.2 -3.6 0 0 -14.4 -3.6 0 0 -18 -3.6 0 0 -10.8 -3.6 0 0 -14.4 -3.6 0 0 -10.8 -3.6 0 0 -10.8 -3.6 0 0 -10.8 -3.6 0 0 -10.8 -3.6 0 0 -7.2 -3.6 0 0 -18 -3.6 0 0 -14.4 -3.6 0 0 -10.8 -3.6 0 0 -7.2 -3.6 0 0 -3.6 -7.2 0 0 -3.6 -7.2 0 0 -3.6 -7.2 0 0 -3.6 -7.2 0 0 -3.6 -7.2 0 0 -3.59 -7.2 0 0 -3.61 -7.2 0 0 -3.6 -7.2 0 0 -3.59 -7.2 0 0 -3.61 -7.2 0 0 -3.6 -10.8 0 0 -3.59 -10.8 0 0 -3.61 -10.8 0 0 -3.6 -10.8 0 0 -3.59 -10.8 0 0 -3.61 -10.8 0 0 -3.6 -10.8 0 0 -3.59 -18 0 0 -3.61 -14.4 0 0 -3.6 -18 0 0 -3.59 -21.6 0 0 -3.61 -36 0 0 -3.6 -111.6 0 0 3.6z"/>
  <path id="outline" class="fil2" d="M21.52 1700.21l3.6 0 0 -10.8 3.6 0 0 -21.6 3.6 0 0 -17.99 3.6 0 0 -21.61 3.6 0 0 -14.4 3.6 0 0 -14.4 3.6 0 0 -14.4 3.6 0 0 -10.8 3.6 0 0 -10.8 3.6 0 0 -10.8 3.6 0 0 -10.8 3.6 0 0 -7.2 3.6 0 0 -10.8 3.6 0 0 -7.2 3.6 0 0 -10.8 3.6 0 0 -7.2 3.6 0 0 -10.8 3.6 0 0 -7.19 3.6 0 0 -7.21 3.6 0 0 -7.2 3.6 0 0 -3.6 7.2 0 0 -3.59 7.2 0 0 -3.61 7.2 0 0 -3.6 10.8 0 0 -3.59 7.2 0 0 -3.61 10.8 0 0 -3.6 7.2 0 0 -3.59 14.4 0 0 -3.61 10.8 0 0 -3.6 14.4 0 0 -3.59 10.8 0 0 -3.61 25.2 0 0 -3.6 18 0 0 -3.59 21.6 0 0 -3.61 28.8 0 0 -3.6 111.6 0 0 3.6 36 0 0 3.61 21.6 0 0 3.59 18 0 0 3.6 14.4 0 0 3.61 18 0 0 3.59 10.8 0 0 3.6 10.8 0 0 3.61 10.8 0 0 3.59 10.8 0 0 3.6 10.8 0 0 3.61 10.8 0 0 3.59 10.8 0 0 3.6 7.2 0 0 3.61 7.19 0 0 3.59 7.21 0 0 3.6 7.19 0 0 3.61 7.21 0 0 3.59 7.2 0 0 3.6 7.2 0 0 3.61 7.2 0 0 3.59 7.2 0 0 3.6 7.2 0 0 3.6 3.6 0 0 7.2 3.6 0 0 10.8 3.6 0 0 14.4 3.6 0 0 18 3.6 0 0 7.2 3.6 0 0 10.8 3.6 0 0 10.8 3.6 0 0 10.8 3.6 0 0 10.8 3.6 0 0 14.4 3.6 0 0 10.8 3.6 0 0 18 3.6 0 0 14.41 3.6 0 0 7.19 3.6 0 0 14.4 3.6 0 0 21.6 3.6 0 0 21.6 3.6 0 0 82.8 -3.6 0 0 14.4 -3.6 0 0 10.8 -3.6 0 0 10.8 -3.6 0 0 7.2 -3.6 0 0 10.8 -3.6 0 0 3.6 -3.6 0 0 7.2 -3.6 0 0 7.2 -3.6 0 0 7.2 -3.6 0 0 3.6 -3.6 0 0 7.2 -3.6 0 0 3.6 -3.6 0 0 3.6 -3.6 0 0 7.2 -3.6 0 0 3.6 -3.6 0 0 3.6 -3.6 0 0 7.2 -3.6 0 0 3.6 -3.6 0 0 3.6 -3.6 0 0 3.6 -3.6 0 0 3.6 -3.6 0 0 3.6 -3.6 0 0 3.6 -3.6 0 0 3.6 -3.6 0 0 3.6 -3.6 0 0 3.6 -3.6 0 0 3.6 -7.2 0 0 3.6 -3.61 0 0 3.6 -3.59 0 0 3.6 -7.2 0 0 3.6 -3.61 0 0 3.6 -7.19 0 0 3.6 -7.2 0 0 3.6 -3.6 0 0 3.6 -7.2 0 0 3.6 -7.2 0 0 3.6 -7.2 0 0 3.6 -14.4 0 0 3.6 -14.4 0 0 3.6 -36 0 0 -3.6 -7.2 0 0 -3.6 -14.4 0 0 -3.6 -7.2 0 0 -3.6 -10.8 0 0 -3.6 -7.2 0 0 -3.6 -7.2 0 0 -3.6 -7.2 0 0 -3.6 -7.2 0 0 -3.6 -7.2 0 0 -3.6 -7.2 0 0 -3.6 -7.2 0 0 -3.6 -7.2 0 0 -3.6 -7.2 0 0 -3.6 -7.2 0 0 -3.6 -14.4 0 0 -3.6 -7.2 0 0 -3.6 -43.2 0 0 3.6 -10.8 0 0 3.6 -18 0 0 3.6 -7.2 0 0 3.6 -7.2 0 0 3.6 -10.8 0 0 3.6 -7.2 0 0 3.6 -10.8 0 0 3.6 -7.2 0 0 3.6 -10.8 0 0 3.6 -10.8 0 0 3.6 -18 0 0 3.6 -18 0 0 -3.6 -14.4 0 0 -3.6 -7.2 0 0 -3.6 -7.2 0 0 -3.6 -7.2 0 0 -3.6 -3.6 0 0 -3.6 -7.2 0 0 -3.6 -3.6 0 0 -3.6 -3.6 0 0 -3.6 -7.2 0 0 -3.6 -3.6 0 0 -3.6 -3.6 0 0 -3.6 -3.6 0 0 -3.6 -3.6 0 0 -3.6 -3.6 0 0 -3.6 -3.6 0 0 -3.6 -7.2 0 0 -3.6 -3.6 0 0 -3.6 -3.6 0 0 -3.6 -3.6 0 0 -3.6 -3.6 0 0 -3.6 -3.6 0 0 -3.6 -3.6 0 0 -3.6 -3.6 0 0 -7.2 -3.6 0 0 -3.6 -3.6 0 0 -3.6 -3.6 0 0 -3.6 -3.6 0 0 -7.2 -3.6 0 0 -3.6 -3.6 0 0 -7.2 -3.6 0 0 -7.2 -3.6 0 0 -7.2 -3.6 0 0 -7.2 -3.6 0 0 -7.2 -3.6 0 0 -10.8 -3.6 0 0 -14.4 -3.6 0 0 -10.8 -3.6 0 0 -25.19 -3.6 0 0 -72.01zm244.8 -1234.79l3.6 0 0 -21.6 3.6 0 0 -10.8 3.6 0 0 -7.2 3.6 0 0 -7.2 7.2 0 0 -3.6 14.4 0 0 3.6 7.2 0 0 3.6 3.6 0 0 7.2 3.6 0 0 3.6 3.6 0 0 3.6 3.6 0 0 7.2 3.6 0 0 3.6 3.6 0 0 7.19 3.6 0 0 7.2 3.6 0 0 7.21 3.6 0 0 7.2 3.6 0 0 7.19 3.6 0 0 10.8 3.6 0 0 7.21 3.6 0 0 10.8 3.6 0 0 10.8 3.6 0 0 7.2 3.6 0 0 10.8 3.6 0 0 14.4 3.6 0 0 7.2 3.6 0 0 14.4 3.6 0 0 10.8 3.6 0 0 10.8 3.6 0 0 14.39 3.6 0 0 14.4 3.6 0 0 7.2 3.6 0 0 14.41 3.6 0 0 14.4 3.6 0 0 14.39 3.6 0 0 14.41 3.6 0 0 10.8 3.6 0 0 18 3.6 0 0 14.4 3.6 0 0 10.8 3.6 0 0 14.4 3.6 0 0 10.8 3.6 0 0 14.39 3.6 0 0 14.41 3.6 0 0 17.99 3.6 0 0 18.01 3.6 0 0 21.6 3.6 0 0 14.39 3.6 0 0 18.01 3.6 0 0 14.4 3.6 0 0 18 3.6 0 0 25.2 -3.6 0 0 10.79 -3.6 0 0 18 -3.6 0 0 14.4 -3.6 0 0 14.4 -3.6 0 0 10.81 -3.6 0 0 10.79 -3.6 0 0 21.61 -3.6 0 0 14.39 -3.6 0 0 10.8 -3.6 0 0 10.8 -3.6 0 0 14.4 -3.6 0 0 14.4 -3.6 0 0 10.81 -3.6 0 0 14.39 -3.6 0 0 14.4 -3.6 0 0 10.8 -3.6 0 0 10.8 -3.6 0 0 10.8 -3.6 0 0 7.2 -3.6 0 0 10.8 -3.6 0 0 7.2 -3.6 0 0 3.6 -3.6 0 0 7.21 -3.6 0 0 3.59 -7.2 0 0 3.6 -25.2 0 0 -3.6 -7.2 0 0 -3.59 -7.2 0 0 -3.61 -3.6 0 0 7.2 3.6 0 0 3.6 7.2 0 0 3.6 3.6 0 0 3.6 7.2 0 0 3.6 25.2 0 0 -3.6 7.2 0 0 -3.6 7.2 0 0 -3.6 3.6 0 0 -3.6 3.6 0 0 -3.59 3.6 0 0 -3.61 3.6 0 0 -7.2 3.6 0 0 -7.2 3.6 0 0 -7.2 3.6 0 0 -7.19 3.6 0 0 -10.8 3.6 0 0 -10.8 3.6 0 0 -10.8 3.6 0 0 -10.81 3.6 0 0 -14.4 3.6 0 0 -10.79 3.6 0 0 -10.81 3.6 0 0 -14.4 3.6 0 0 -7.2 3.6 0 0 -14.4 3.6 0 0 -14.39 3.6 0 0 -14.4 3.6 0 0 -10.81 3.6 0 0 -10.79 3.6 0 0 -18.01 3.6 0 0 -10.8 3.6 0 0 -14.4 3.6 0 0 -14.4 3.6 0 0 -21.59 3.59 0 0 -25.2 3.61 0 0 -14.4 3.6 0 0 -32.41 3.6 0 0 -35.99 3.6 0 0 -129.6 -3.6 0 0 -61.21 -3.6 0 0 -43.2 -3.6 0 0 -68.39 3.6 0 0 -18 3.6 0 0 -3.6 3.6 0 0 -3.6 10.8 0 0 3.6 7.2 0 0 3.6 3.6 0 0 3.6 3.6 0 0 3.6 3.6 0 0 3.59 3.6 0 0 3.61 3.6 0 0 3.6 3.6 0 0 3.6 3.6 0 0 7.2 3.6 0 0 3.59 3.6 0 0 7.21 3.6 0 0 3.59 3.6 0 0 7.21 3.6 0 0 7.2 3.6 0 0 3.6 3.6 0 0 10.8 3.6 0 0 7.2 3.6 0 0 7.19 3.6 0 0 7.21 3.6 0 0 7.19 3.6 0 0 7.2 3.6 0 0 10.8 3.6 0 0 7.21 3.6 0 0 10.8 3.6 0 0 10.8 3.59 0 0 7.2 3.61 0 0 14.4 3.6 0 0 7.2 3.6 0 0 10.8 3.59 0 0 7.2 3.61 0 0 18 3.6 0 0 7.2 3.6 0 0 10.8 3.6 0 0 10.8 3.6 0 0 14.4 3.6 0 0 14.39 3.6 0 0 14.41 3.6 0 0 14.4 3.6 0 0 14.39 3.6 0 0 18.01 3.6 0 0 14.39 3.6 0 0 10.8 3.6 0 0 25.21 3.6 0 0 21.6 3.6 0 0 21.6 3.6 0 0 17.99 3.6 0 0 46.8 3.6 0 0 136.8 -3.6 0 0 21.6 -3.6 0 0 36.01 -3.6 0 0 32.39 -3.6 0 0 21.61 -3.6 0 0 32.4 -3.6 0 0 53.99 -3.6 0 0 115.2 3.6 0 0 18 -3.6 0 0 -3.59 -7.2 0 0 -3.61 -7.2 0 0 -3.6 -7.2 0 0 -3.59 -7.2 0 0 -3.61 -7.2 0 0 -3.6 -7.2 0 0 -3.59 -7.2 0 0 -3.61 -7.2 0 0 -3.6 -10.8 0 0 -3.59 -7.2 0 0 -3.61 -10.8 0 0 -3.6 -10.8 0 0 -3.59 -7.2 0 0 -3.61 -14.4 0 0 -3.6 -7.2 0 0 -3.59 -10.8 0 0 -3.61 -18 0 0 -3.6 -14.4 0 0 -3.59 -14.4 0 0 -3.61 -21.6 0 0 -3.6 -28.8 0 0 -3.59 -147.6 0 0 3.59 -21.6 0 0 3.6 -21.6 0 0 3.61 -21.6 0 0 3.59 -18 0 0 3.6 -18 0 0 3.61 -3.6 0 0 3.59 -14.4 0 0 3.6 -10.8 0 0 3.61 -10.8 0 0 3.59 -7.2 0 0 3.6 -10.8 0 0 3.61 -7.2 0 0 3.59 -7.2 0 0 3.6 -7.2 0 0 3.61 -3.6 0 0 -14.41 3.6 0 0 -36 3.6 0 0 -28.8 3.6 0 0 -122.4 -3.6 0 0 -28.8 -3.6 0 0 -50.39 -3.6 0 0 -18.01 -3.6 0 0 -28.79 -3.6 0 0 -32.41 -3.6 0 0 -28.79 -3.6 0 0 -14.4 -3.6 0 0 -21.6 -3.6 0 0 -28.81 -3.6 0 0 -21.6 -3.6 0 0 -32.39 -3.6 0 0 -18 -3.6 0 0 -28.81 -3.6 0 0 -14.39 -3.6 0 0 -136.8 3.6 0 0 -36 3.6 0 0 -28.81 3.6 0 0 -21.6 3.6 0 0 -28.8 3.6 0 0 -21.59 3.6 0 0 -14.4 3.6 0 0 -18 3.6 0 0 -18 3.6 0 0 -14.4 3.6 0 0 -10.8 3.6 0 0 -14.4 3.6 0 0 -10.81 3.6 0 0 -7.19 3.6 0 0 -7.2 3.6 0 0 -10.8 3.6 0 0 -3.6 3.6 0 0 -3.61 3.6 0 0 -3.59 3.6 0 0 -3.6 14.4 0 0 3.6 3.6 0 0 3.59 3.6 0 0 3.61 3.6 0 0 10.8 3.6 0 0 10.8 3.6 0 0 7.19 3.6 0 0 21.6 3.6 0 0 61.21 3.6 0 0 68.39 3.6 0 0 43.21 3.6 0 0 28.8 3.6 0 0 36 3.6 0 0 21.59 3.6 0 0 18.01 3.6 0 0 21.6 3.6 0 0 18 3.6 0 0 10.8 3.6 0 0 17.99 3.6 0 0 10.8 3.6 0 0 10.8 3.6 0 0 14.41 3.6 0 0 10.8 3.6 0 0 10.8 3.6 0 0 10.8 3.6 0 0 14.4 3.6 0 0 7.19 3.6 0 0 7.2 3.6 0 0 10.8 3.6 0 0 7.2 3.6 0 0 7.2 3.6 0 0 7.2 3.6 0 0 7.2 3.6 0 0 7.21 3.6 0 0 7.2 3.6 0 0 7.19 3.6 0 0 10.8 3.6 0 0 7.21 3.6 0 0 7.19 3.6 0 0 7.2 3.6 0 0 7.21 3.6 0 0 7.19 3.6 0 0 7.2 3.6 0 0 7.21 3.6 0 0 10.8 3.6 0 0 7.19 3.6 0 0 7.2 3.6 0 0 7.21 3.6 0 0 7.19 3.6 0 0 7.2 3.6 0 0 7.2 3.6 0 0 7.2 3.6 0 0 7.2 3.6 0 0 10.8 3.6 0 0 3.6 3.6 0 0 7.2 3.6 0 0 7.21 7.2 0 0 -14.41 -3.6 0 0 -14.4 -3.6 0 0 -10.8 -3.6 0 0 -7.2 -3.6 0 0 -14.4 -3.6 0 0 -7.19 -3.6 0 0 -7.21 -3.6 0 0 -10.79 -3.6 0 0 -7.21 -3.6 0 0 -10.8 -3.6 0 0 -7.2 -3.6 0 0 -7.19 -3.6 0 0 -7.21 -3.6 0 0 -7.2 -3.6 0 0 -10.79 -3.6 0 0 -7.2 -3.6 0 0 -7.21 -3.6 0 0 -7.19 -3.6 0 0 -7.2 -3.6 0 0 -7.21 -3.6 0 0 -7.2 -3.6 0 0 -10.8 -3.6 0 0 -7.2 -3.6 0 0 -7.2 -3.6 0 0 -7.2 -3.6 0 0 -10.8 -3.6 0 0 -7.19 -3.6 0 0 -43.2 3.6 0 0 -21.6 3.6 0 0 -32.4 3.6 0 0 -25.21 3.6 0 0 -21.6 3.6 0 0 -46.79 3.6 0 0 -50.4 3.6 0 0 -122.4 -3.6 0 0 -122.4zm14.4 -68.4l-7.2 0 0 3.6 -3.6 0 0 3.6 -3.6 0 0 3.6 -3.6 0 0 7.2 -3.6 0 0 3.6 -3.6 0 0 10.8 -3.6 0 0 7.2 -3.6 0 0 14.39 -3.6 0 0 126.01 3.6 0 0 129.6 -3.6 0 0 61.2 -3.6 0 0 25.2 -3.6 0 0 25.19 -3.6 0 0 32.4 -3.6 0 0 32.4 -7.2 0 0 -17.99 -3.6 0 0 -14.41 -3.6 0 0 -14.39 -3.6 0 0 -14.4 -3.6 0 0 -21.6 -3.6 0 0 -18 -3.6 0 0 -25.2 -3.6 0 0 -36 -3.6 0 0 -18 -3.6 0 0 -50.4 -3.6 0 0 -111.6 -3.6 0 0 -25.2 -3.6 0 0 -21.61 -3.6 0 0 -7.19 -3.6 0 0 -10.8 -3.6 0 0 -7.2 -3.6 0 0 -7.21 -3.6 0 0 -3.59 -3.6 0 0 -3.61 -3.6 0 0 -3.6 -3.6 0 0 -3.59 -3.6 0 0 -3.6 -7.2 0 0 -3.61 -21.6 0 0 3.61 -7.2 0 0 3.6 -3.6 0 0 3.59 -3.6 0 0 3.6 -3.6 0 0 3.61 -3.6 0 0 3.59 -3.6 0 0 7.21 -3.6 0 0 7.2 -3.6 0 0 3.6 -3.6 0 0 10.8 -3.6 0 0 7.2 -3.6 0 0 10.8 -3.6 0 0 10.8 -3.6 0 0 14.4 -3.6 0 0 10.8 -3.6 0 0 18 -3.6 0 0 10.8 -3.6 0 0 21.6 -3.6 0 0 17.99 -3.6 0 0 25.21 -3.6 0 0 21.6 -3.6 0 0 28.79 -3.6 0 0 50.41 -3.6 0 0 126 3.6 0 0 50.4 3.6 0 0 18 3.6 0 0 25.19 3.6 0 0 21.6 3.6 0 0 28.8 3.6 0 0 18 3.6 0 0 25.2 3.6 0 0 21.6 3.6 0 0 25.2 3.6 0 0 21.61 3.6 0 0 32.39 3.6 0 0 28.8 3.6 0 0 32.4 3.6 0 0 57.61 3.6 0 0 79.19 -3.6 0 0 36 -3.6 0 0 43.2 -3.6 0 0 14.4 -3.6 0 0 14.41 -3.6 0 0 14.39 -3.6 0 0 7.21 -3.6 0 0 7.19 -3.6 0 0 10.8 -3.6 0 0 7.2 -3.6 0 0 10.8 -3.6 0 0 7.2 -3.6 0 0 7.2 -3.6 0 0 10.8 -3.6 0 0 10.8 -3.6 0 0 10.8 -3.6 0 0 10.8 -3.6 0 0 10.8 -3.6 0 0 18 -3.6 0 0 18.01 -3.6 0 0 10.8 -3.6 0 0 18 -3.6 0 0 17.99 -3.6 0 0 21.6 -3.6 0 0 90 3.6 0 0 21.6 3.6 0 0 14.41 3.6 0 0 10.8 3.6 0 0 10.79 3.6 0 0 7.2 3.6 0 0 10.8 3.6 0 0 3.6 3.6 0 0 10.8 3.6 0 0 7.2 3.6 0 0 7.2 3.6 0 0 3.6 3.6 0 0 7.2 3.6 0 0 3.6 3.6 0 0 3.6 3.6 0 0 3.6 3.6 0 0 3.6 3.6 0 0 7.2 3.6 0 0 3.6 3.6 0 0 3.6 3.6 0 0 3.6 3.6 0 0 3.6 3.6 0 0 3.6 3.6 0 0 3.6 7.2 0 0 3.6 3.6 0 0 3.6 3.6 0 0 3.6 3.6 0 0 3.6 3.6 0 0 3.6 3.6 0 0 3.6 3.6 0 0 3.6 3.6 0 0 3.6 7.2 0 0 3.6 3.6 0 0 3.6 3.6 0 0 3.6 7.2 0 0 3.6 3.6 0 0 3.6 7.2 0 0 3.6 3.6 0 0 3.6 7.2 0 0 3.6 7.2 0 0 3.6 10.8 0 0 3.6 54 0 0 -3.6 7.2 0 0 -3.6 10.8 0 0 -3.6 10.8 0 0 -3.6 7.2 0 0 -3.6 7.2 0 0 -3.6 10.8 0 0 -3.6 7.2 0 0 -3.6 10.8 0 0 -3.6 10.8 0 0 -3.6 7.2 0 0 -3.6 14.4 0 0 -3.6 32.4 0 0 3.6 10.8 0 0 3.6 7.2 0 0 3.6 7.2 0 0 3.6 7.2 0 0 3.6 7.2 0 0 3.6 7.2 0 0 3.6 7.2 0 0 3.6 7.2 0 0 3.6 7.2 0 0 3.6 7.2 0 0 3.6 7.2 0 0 3.6 7.2 0 0 3.6 7.2 0 0 3.6 14.4 0 0 3.6 14.4 0 0 3.6 25.2 0 0 3.6 36 0 0 -3.6 10.8 0 0 -3.6 10.8 0 0 -3.6 7.2 0 0 -3.6 10.8 0 0 -3.6 7.2 0 0 -3.6 3.6 0 0 -3.6 7.2 0 0 -3.6 3.6 0 0 -3.6 7.19 0 0 -3.6 3.61 0 0 -3.6 7.2 0 0 -3.6 3.6 0 0 -3.6 3.6 0 0 -3.6 3.6 0 0 -3.6 7.2 0 0 -3.6 3.6 0 0 -3.6 3.6 0 0 -3.6 3.6 0 0 -3.6 3.6 0 0 -3.6 3.6 0 0 -3.6 3.6 0 0 -3.6 3.6 0 0 -3.6 3.6 0 0 -3.6 3.6 0 0 -7.2 3.6 0 0 -3.6 3.6 0 0 -3.6 3.6 0 0 -3.6 3.6 0 0 -3.6 3.6 0 0 -7.2 3.6 0 0 -3.6 3.6 0 0 -7.2 3.6 0 0 -3.6 3.6 0 0 -3.6 3.6 0 0 -7.2 3.6 0 0 -7.2 3.6 0 0 -7.2 3.6 0 0 -7.2 3.6 0 0 -7.2 3.6 0 0 -10.8 3.6 0 0 -7.2 3.6 0 0 -17.99 3.6 0 0 -7.21 3.6 0 0 -21.6 3.6 0 0 -61.2 -3.6 0 0 -17.99 -3.6 0 0 -21.6 -3.6 0 0 -14.41 -3.6 0 0 -17.99 -3.6 0 0 -10.8 -3.6 0 0 -14.41 -3.6 0 0 -14.4 -3.6 0 0 -18 -3.6 0 0 -10.8 -3.6 0 0 -10.8 -3.6 0 0 -7.19 -3.6 0 0 -10.81 -3.6 0 0 -14.4 -3.6 0 0 -7.2 -3.6 0 0 -14.4 -3.6 0 0 -14.4 -3.6 0 0 -14.4 -3.6 0 0 -28.8 -3.6 0 0 -21.6 -3.6 0 0 -115.2 3.6 0 0 -36 3.6 0 0 -25.19 3.6 0 0 -25.21 3.6 0 0 -17.99 3.6 0 0 -25.21 3.6 0 0 -46.8 3.6 0 0 -54 3.6 0 0 -75.6 -3.6 0 0 -25.2 -3.6 0 0 -39.59 -3.6 0 0 -25.2 -3.6 0 0 -28.8 -3.6 0 0 -14.4 -3.6 0 0 -14.41 -3.6 0 0 -10.8 -3.6 0 0 -17.99 -3.6 0 0 -21.6 -3.6 0 0 -18 -3.6 0 0 -14.41 -3.6 0 0 -7.19 -3.6 0 0 -18 -3.6 0 0 -10.8 -3.6 0 0 -10.8 -3.6 0 0 -14.4 -3.6 0 0 -7.2 -3.6 0 0 -14.4 -3.6 0 0 -14.4 -3.6 0 0 -7.2 -3.6 0 0 -10.8 -3.6 0 0 -10.8 -3.6 0 0 -7.21 -3.6 0 0 -10.8 -3.61 0 0 -10.8 -3.59 0 0 -7.2 -3.6 0 0 -10.8 -3.6 0 0 -7.19 -3.61 0 0 -10.8 -3.59 0 0 -7.2 -3.6 0 0 -7.21 -3.6 0 0 -10.79 -3.6 0 0 -7.2 -3.6 0 0 -3.6 -3.6 0 0 -7.2 -3.6 0 0 -7.21 -3.6 0 0 -3.59 -3.6 0 0 -7.2 -3.6 0 0 -3.6 -3.6 0 0 -3.6 -3.6 0 0 -7.2 -3.6 0 0 -3.6 -3.6 0 0 -3.6 -3.6 0 0 -3.6 -3.6 0 0 -3.6 -3.6 0 0 -3.61 -3.6 0 0 -3.59 -3.6 0 0 -3.6 -3.6 0 0 -3.61 -7.2 0 0 -3.59 -7.2 0 0 -3.6 -25.2 0 0 3.6 -7.21 0 0 3.59 -3.59 0 0 3.61 -3.6 0 0 7.19 -3.6 0 0 7.21 -3.6 0 0 18 -3.6 0 0 75.6 3.6 0 0 43.2 3.6 0 0 43.2 3.6 0 0 151.2 -3.6 0 0 17.99 -3.6 0 0 -14.39 -3.6 0 0 -18.01 -3.6 0 0 -14.39 -3.6 0 0 -21.6 -3.6 0 0 -14.4 -3.6 0 0 -14.4 -3.6 0 0 -14.4 -3.6 0 0 -7.2 -3.6 0 0 -14.4 -3.6 0 0 -18 -3.6 0 0 -10.8 -3.6 0 0 -14.4 -3.6 0 0 -14.4 -3.6 0 0 -10.8 -3.6 0 0 -14.41 -3.6 0 0 -10.8 -3.6 0 0 -14.39 -3.6 0 0 -18.01 -3.6 0 0 -10.79 -3.6 0 0 -10.8 -3.6 0 0 -10.81 -3.6 0 0 -14.39 -3.6 0 0 -10.8 -3.6 0 0 -10.8 -3.6 0 0 -10.8 -3.6 0 0 -7.2 -3.6 0 0 -10.81 -3.6 0 0 -10.8 -3.6 0 0 -10.8 -3.6 0 0 -7.19 -3.6 0 0 -7.2 -3.6 0 0 -10.8 -3.6 0 0 -7.21 -3.6 0 0 -7.19 -3.6 0 0 -3.61 -3.6 0 0 -7.19 -3.6 0 0 -3.6 -3.6 0 0 -7.2 -3.6 0 0 -3.6 -3.6 0 0 -3.6 -3.6 0 0 -3.6 -3.6 0 0 -3.6 -3.6 0 0 -3.6 -3.6 0 0 -3.6 -3.6 0 0 -3.6 -7.2 0 0 -3.6 -28.8 0 0 3.6zm28.8 1393.19l3.6 0 0 18 3.6 0 0 10.8 3.6 0 0 10.8 3.6 0 0 7.21 3.6 0 0 7.19 3.6 0 0 7.2 -7.2 0 0 3.6 -14.4 0 0 3.6 -10.8 0 0 3.6 -7.2 0 0 3.6 -7.2 0 0 3.6 -10.8 0 0 3.6 -7.2 0 0 3.6 -7.2 0 0 3.6 -10.8 0 0 3.6 -10.8 0 0 3.6 -7.2 0 0 3.6 -14.4 0 0 3.6 -7.2 0 0 3.6 -14.4 0 0 3.6 -18 0 0 -3.6 -10.8 0 0 -3.6 -7.2 0 0 -3.6 -7.2 0 0 -3.6 -3.6 0 0 -3.6 -3.6 0 0 -3.6 -3.6 0 0 -3.6 -3.6 0 0 -3.6 -3.6 0 0 -3.6 -3.6 0 0 -3.6 -3.6 0 0 -3.6 -3.6 0 0 -7.2 -3.6 0 0 -3.6 -3.6 0 0 -7.2 -3.6 0 0 -3.6 -3.6 0 0 -7.2 -3.6 0 0 -3.6 -3.6 0 0 -10.8 -3.6 0 0 -7.2 -3.6 0 0 -7.19 -3.6 0 0 -10.81 -3.6 0 0 -10.8 -7.2 0 0 28.8 3.6 0 0 10.8 3.6 0 0 7.2 3.6 0 0 7.21 3.6 0 0 7.19 3.6 0 0 7.2 3.6 0 0 3.6 3.6 0 0 7.2 3.6 0 0 3.6 3.6 0 0 7.2 3.6 0 0 3.6 3.6 0 0 3.6 3.6 0 0 3.6 3.6 0 0 3.6 3.6 0 0 3.6 3.6 0 0 3.6 3.6 0 0 3.6 3.6 0 0 3.6 7.2 0 0 3.6 3.6 0 0 3.6 7.2 0 0 3.6 10.8 0 0 3.6 28.8 0 0 -3.6 18 0 0 -3.6 10.8 0 0 -3.6 10.8 0 0 -3.6 10.8 0 0 -3.6 10.8 0 0 -3.6 7.2 0 0 -3.6 10.8 0 0 -3.6 7.2 0 0 -3.6 7.2 0 0 -3.6 10.8 0 0 -3.6 7.2 0 0 -3.6 10.8 0 0 -3.6 10.8 0 0 -3.6 3.6 0 0 43.2 3.6 0 0 10.8 3.6 0 0 7.2 3.6 0 0 3.6 3.6 0 0 3.6 7.2 0 0 -10.8 -3.6 0 0 -7.2 -3.6 0 0 -14.4 -3.6 0 0 -32.4 7.2 0 0 3.6 3.6 0 0 3.6 7.2 0 0 3.6 3.6 0 0 3.6 3.6 0 0 3.6 7.2 0 0 3.6 3.6 0 0 3.6 7.2 0 0 3.6 3.6 0 0 3.6 7.2 0 0 3.6 7.2 0 0 3.6 7.2 0 0 3.6 7.2 0 0 3.6 7.2 0 0 3.6 3.6 0 0 3.6 10.8 0 0 3.6 7.2 0 0 3.6 10.8 0 0 3.6 7.2 0 0 3.6 7.2 0 0 3.6 10.8 0 0 3.6 10.8 0 0 3.6 14.4 0 0 3.6 57.6 0 0 -3.6 10.8 0 0 -3.6 7.2 0 0 -3.6 7.2 0 0 -3.6 7.2 0 0 -3.6 7.2 0 0 -3.6 7.2 0 0 -3.6 7.2 0 0 -3.6 3.6 0 0 -3.6 3.6 0 0 -3.6 3.6 0 0 -3.6 7.2 0 0 -3.6 3.6 0 0 -3.6 3.6 0 0 -3.6 3.6 0 0 -3.6 3.6 0 0 -3.6 3.6 0 0 -3.6 3.6 0 0 -7.2 3.6 0 0 -3.6 3.6 0 0 -7.2 3.6 0 0 -7.2 -3.6 0 0 -3.6 -3.6 0 0 3.6 -3.6 0 0 3.6 -3.6 0 0 3.6 -3.6 0 0 3.6 -3.6 0 0 3.6 -3.6 0 0 3.6 -3.6 0 0 3.6 -3.6 0 0 3.6 -3.6 0 0 3.6 -3.6 0 0 3.6 -3.6 0 0 3.6 -3.6 0 0 3.6 -7.2 0 0 3.6 -3.6 0 0 3.6 -3.6 0 0 3.6 -7.2 0 0 3.6 -3.6 0 0 3.6 -10.8 0 0 3.6 -7.2 0 0 3.6 -10.8 0 0 3.6 -10.8 0 0 3.6 -39.6 0 0 -3.6 -14.4 0 0 -3.6 -10.8 0 0 -3.6 -14.4 0 0 -3.6 -7.2 0 0 -3.6 -7.2 0 0 -3.6 -10.8 0 0 -3.6 -7.2 0 0 -3.6 -7.2 0 0 -3.6 -7.2 0 0 -3.6 -7.2 0 0 -3.6 -7.2 0 0 -3.6 -7.2 0 0 -3.6 -3.6 0 0 -3.6 -7.2 0 0 -3.6 -7.2 0 0 -3.6 -3.6 0 0 -3.6 -7.2 0 0 -3.6 -3.6 0 0 -3.6 -7.2 0 0 -3.6 -3.6 0 0 -3.6 -3.6 0 0 -3.6 -7.2 0 0 -3.6 -7.2 0 0 -3.6 -3.6 0 0 -3.59 -3.6 0 0 -7.21 -3.6 0 0 -7.2 -3.6 0 0 -7.19 -3.6 0 0 -10.8 -3.6 0 0 -7.21 -3.6 0 0 -10.8 -3.6 0 0 -18 -3.6 0 0 -7.2 -3.6 0 0 -28.8 -7.2 0 0 46.8z"/>
  <path class="fil3" d="M-3.68 1897.58l318.84 -522.35 -280.81 -484.38 130.03 0 150.39 257.54c31.31,53.43 53.02,94.21 65.5,122.56 18.63,-35.15 40.53,-72.64 65.69,-112.25l164.8 -267.85 119.66 0 -286.57 478.53 308.47 528.2 -134.07 0 -208.21 -359.01c-11.91,-20.39 -23.24,-40.78 -34,-60.93 -18.24,33.75 -31.3,57.42 -39.56,70.77l-208.98 349.17 -131.18 0z"/>
 </g>
</svg>
