<?xml version="1.0" encoding="UTF-8"?>
<!DOCTYPE svg PUBLIC "-//W3C//DTD SVG 1.1//EN" "http://www.w3.org/Graphics/SVG/1.1/DTD/svg11.dtd">
<!-- Creator: CorelDRAW (Versión de evaluación) -->
<svg xmlns="http://www.w3.org/2000/svg" xml:space="preserve" width="561px" height="2062px" version="1.1" style="shape-rendering:geometricPrecision; text-rendering:geometricPrecision; image-rendering:optimizeQuality; fill-rule:evenodd; clip-rule:evenodd"
viewBox="0 0 561 2060.59"
 xmlns:xlink="http://www.w3.org/1999/xlink"
 xmlns:xodm="http://www.corel.com/coreldraw/odm/2003">
 <defs>
  <style type="text/css">
   <![CDATA[
    .str0 {stroke:#373435;stroke-width:2;stroke-miterlimit:22.9256}
    .str1 {stroke:#ED3237;stroke-width:2;stroke-miterlimit:22.9256}
    .fil2 {fill:#373435}
    .fil3 {fill:#ED3237}
    .fil1 {fill:#F2E6C9}
    .fil0 {fill:#FAFAF7}
   ]]>
  </style>
 </defs>
 <g id="extraction">
  <metadata id="CorelCorpID_0Corel-Layer"/>
  <polygon id="crown" class="fil0" points="240.68,1231.1 229.9,1231.1 229.9,1234.69 219.11,1234.69 219.11,1238.29 211.92,1238.29 211.92,1241.89 204.72,1241.89 204.72,1245.48 201.13,1245.48 201.13,1249.08 193.93,1249.08 193.93,1252.68 190.34,1252.68 190.34,1256.27 183.14,1256.27 183.14,1259.87 179.55,1259.87 179.55,1263.46 175.95,1263.46 175.95,1267.06 172.36,1267.06 172.36,1270.66 168.76,1270.66 168.76,1274.25 165.16,1274.25 165.16,1281.44 161.57,1281.44 161.57,1285.04 157.97,1285.04 157.97,1288.63 154.38,1288.63 154.38,1292.23 150.78,1292.23 150.78,1299.42 147.18,1299.42 147.18,1303.02 143.59,1303.02 143.59,1310.21 139.99,1310.21 139.99,1313.81 136.4,1313.81 136.4,1321 132.8,1321 132.8,1324.6 129.2,1324.6 129.2,1331.79 125.61,1331.79 125.61,1338.98 122.01,1338.98 122.01,1346.17 118.41,1346.17 118.41,1353.37 114.82,1353.37 114.82,1360.56 111.22,1360.56 111.22,1367.75 107.62,1367.75 107.62,1374.94 104.03,1374.94 104.03,1385.73 100.43,1385.73 100.43,1396.52 96.84,1396.52 96.84,1410.9 93.24,1410.9 93.24,1418.1 89.64,1418.1 89.64,1432.48 86.05,1432.48 86.05,1446.87 82.45,1446.87 82.45,1461.25 78.86,1461.25 78.86,1468.44 75.26,1468.44 75.26,1486.42 71.67,1486.42 71.67,1497.21 68.07,1497.21 68.07,1511.6 64.47,1511.6 64.47,1525.98 60.88,1525.98 60.88,1540.37 57.28,1540.37 57.28,1554.75 53.68,1554.75 53.68,1569.14 50.09,1569.14 50.09,1590.71 46.49,1590.71 46.49,1612.29 42.89,1612.29 42.89,1623.08 39.3,1623.08 39.3,1644.65 35.7,1644.65 35.7,1669.83 32.1,1669.83 32.1,1691.41 28.51,1691.41 28.51,1723.77 24.91,1723.77 24.91,1756.14 21.32,1756.14 21.32,1835.25 24.91,1835.25 24.91,1878.4 28.51,1878.4 28.51,1914.37 32.1,1914.37 32.1,1928.75 35.7,1928.75 35.7,1943.13 39.3,1943.13 39.3,1950.33 42.89,1950.33 42.89,1957.52 46.49,1957.52 46.49,1961.12 50.09,1961.12 50.09,1964.71 53.68,1964.71 53.68,1968.31 57.28,1968.31 57.28,1971.91 60.88,1971.91 60.88,1975.5 68.07,1975.5 68.07,1979.1 71.67,1979.1 71.67,1982.69 82.45,1982.69 82.45,1986.29 93.24,1986.29 93.24,1989.88 107.62,1989.88 107.62,1993.48 125.61,1993.48 125.61,1997.08 150.78,1997.08 150.78,2000.67 186.74,2000.67 186.74,2004.27 237.09,2004.27 237.09,2007.86 359.36,2007.86 359.36,2004.27 427.68,2004.27 427.68,2000.67 460.05,2000.67 460.05,1997.08 496.01,1997.08 496.01,1993.48 503.2,1993.48 503.2,1989.88 510.4,1989.88 510.4,1986.29 517.59,1986.29 517.59,1982.69 521.18,1982.69 521.18,1979.1 524.78,1979.1 524.78,1971.91 528.38,1971.91 528.38,1964.71 531.97,1964.71 531.97,1953.92 535.57,1953.92 535.57,1921.56 539.16,1921.56 539.16,1770.52 535.57,1770.52 535.57,1709.38 531.97,1709.38 531.97,1673.43 528.38,1673.43 528.38,1641.06 524.78,1641.06 524.78,1623.08 521.18,1623.08 521.18,1601.5 517.59,1601.5 517.59,1587.12 513.99,1587.12 513.99,1558.35 510.4,1558.35 510.4,1547.56 506.8,1547.56 506.8,1529.58 503.2,1529.58 503.2,1518.79 499.61,1518.79 499.61,1504.4 496.01,1504.4 496.01,1486.42 492.42,1486.42 492.42,1475.64 488.82,1475.64 488.82,1464.85 485.22,1464.85 485.22,1454.06 481.63,1454.06 481.63,1443.27 478.03,1443.27 478.03,1432.48 474.43,1432.48 474.43,1421.69 470.84,1421.69 470.84,1410.9 467.24,1410.9 467.24,1400.12 463.64,1400.12 463.64,1392.93 460.05,1392.93 460.05,1382.14 456.45,1382.14 456.45,1374.94 452.86,1374.94 452.86,1367.75 449.26,1367.75 449.26,1360.56 445.66,1360.56 445.66,1353.37 442.07,1353.37 442.07,1346.17 438.47,1346.17 438.47,1338.98 434.88,1338.98 434.88,1331.79 431.28,1331.79 431.28,1328.2 427.68,1328.2 427.68,1321 424.09,1321 424.09,1317.41 420.49,1317.41 420.49,1310.21 416.9,1310.21 416.9,1306.62 413.3,1306.62 413.3,1299.42 409.7,1299.42 409.7,1295.83 406.11,1295.83 406.11,1292.23 402.51,1292.23 402.51,1288.63 398.91,1288.63 398.91,1285.04 395.32,1285.04 395.32,1281.44 391.72,1281.44 391.72,1277.85 388.12,1277.85 388.12,1270.66 384.53,1270.66 384.53,1267.06 380.93,1267.06 380.93,1263.46 373.74,1263.46 373.74,1259.87 370.14,1259.87 370.14,1256.27 366.55,1256.27 366.55,1252.68 359.36,1252.68 359.36,1249.08 355.76,1249.08 355.76,1245.48 348.57,1245.48 348.57,1241.89 341.38,1241.89 341.38,1238.29 330.59,1238.29 330.59,1234.69 323.39,1234.69 323.39,1231.1 309.01,1231.1 309.01,1227.5 240.68,1227.5 "/>
  <polygon id="root" class="fil1" points="262.26,116.29 258.66,116.29 258.66,119.89 255.07,119.89 255.07,123.48 251.47,123.48 251.47,130.67 247.87,130.67 247.87,137.87 244.28,137.87 244.28,148.65 240.68,148.65 240.68,159.44 237.09,159.44 237.09,173.83 233.49,173.83 233.49,191.81 229.9,191.81 229.9,206.19 226.3,206.19 226.3,234.96 222.7,234.96 222.7,274.52 219.11,274.52 219.11,310.48 215.51,310.48 215.51,360.83 211.92,360.83 211.92,389.6 208.32,389.6 208.32,439.94 204.72,439.94 204.72,461.52 201.13,461.52 201.13,486.69 197.53,486.69 197.53,504.67 193.93,504.67 193.93,519.06 190.34,519.06 190.34,547.83 186.74,547.83 186.74,558.62 183.14,558.62 183.14,573 179.55,573 179.55,598.18 175.95,598.18 175.95,616.16 172.36,616.16 172.36,634.14 168.76,634.14 168.76,652.12 165.16,652.12 165.16,666.5 161.57,666.5 161.57,691.68 157.97,691.68 157.97,709.65 154.38,709.65 154.38,734.83 150.78,734.83 150.78,749.22 147.18,749.22 147.18,777.98 143.59,777.98 143.59,810.35 139.99,810.35 139.99,831.92 136.4,831.92 136.4,867.89 132.8,867.89 132.8,936.21 129.2,936.21 129.2,972.18 125.61,972.18 125.61,1026.12 122.01,1026.12 122.01,1087.25 118.41,1087.25 118.41,1123.21 114.82,1123.21 114.82,1180.75 111.22,1180.75 111.22,1209.52 107.62,1209.52 107.62,1249.08 104.03,1249.08 104.03,1281.44 100.43,1281.44 100.43,1317.41 96.84,1317.41 96.84,1338.98 100.43,1338.98 100.43,1331.79 104.03,1331.79 104.03,1324.6 107.62,1324.6 107.62,1317.41 111.22,1317.41 111.22,1313.81 114.82,1313.81 114.82,1306.62 118.41,1306.62 118.41,1303.02 122.01,1303.02 122.01,1295.83 125.61,1295.83 125.61,1288.63 129.2,1288.63 129.2,1285.04 132.8,1285.04 132.8,1281.44 136.4,1281.44 136.4,1277.85 139.99,1277.85 139.99,1270.66 143.59,1270.66 143.59,1267.06 147.18,1267.06 147.18,1263.46 150.78,1263.46 150.78,1259.87 154.38,1259.87 154.38,1256.27 157.97,1256.27 157.97,1252.68 161.57,1252.68 161.57,1249.08 165.16,1249.08 165.16,1245.48 168.76,1245.48 168.76,1241.89 172.36,1241.89 172.36,1238.29 179.55,1238.29 179.55,1234.69 183.14,1234.69 183.14,1231.1 186.74,1231.1 186.74,1227.5 193.93,1227.5 193.93,1223.9 201.13,1223.9 201.13,1220.31 208.32,1220.31 208.32,1216.71 219.11,1216.71 219.11,1213.12 233.49,1213.12 233.49,1209.52 251.47,1209.52 251.47,1205.92 305.41,1205.92 305.41,1209.52 319.8,1209.52 319.8,1213.12 330.59,1213.12 330.59,1216.71 341.38,1216.71 341.38,1220.31 352.17,1220.31 352.17,1223.9 359.36,1223.9 359.36,1227.5 366.55,1227.5 366.55,1231.1 370.14,1231.1 370.14,1234.69 377.34,1234.69 377.34,1238.29 380.93,1238.29 380.93,1241.89 384.53,1241.89 384.53,1245.48 388.12,1245.48 388.12,1249.08 391.72,1249.08 391.72,1252.68 395.32,1252.68 395.32,1256.27 398.91,1256.27 398.91,1259.87 406.11,1259.87 406.11,1267.06 409.7,1267.06 409.7,1270.66 413.3,1270.66 413.3,1274.25 416.9,1274.25 416.9,1277.85 420.49,1277.85 420.49,1281.44 424.09,1281.44 424.09,1285.04 427.68,1285.04 427.68,1292.23 431.28,1292.23 431.28,1295.83 434.88,1295.83 434.88,1299.42 438.47,1299.42 438.47,1306.62 442.07,1306.62 442.07,1310.21 445.66,1310.21 445.66,1317.41 449.26,1317.41 449.26,1321 452.86,1321 452.86,1328.2 456.45,1328.2 456.45,1335.39 460.05,1335.39 460.05,1342.58 463.64,1342.58 463.64,1349.77 467.24,1349.77 467.24,1356.96 470.84,1356.96 470.84,1360.56 474.43,1360.56 474.43,1346.17 470.84,1346.17 470.84,1310.21 467.24,1310.21 467.24,1270.66 463.64,1270.66 463.64,1238.29 460.05,1238.29 460.05,1198.73 456.45,1198.73 456.45,1155.58 452.86,1155.58 452.86,1101.64 449.26,1101.64 449.26,1065.67 445.66,1065.67 445.66,1000.94 442.07,1000.94 442.07,961.39 438.47,961.39 438.47,921.83 434.88,921.83 434.88,871.48 431.28,871.48 431.28,835.52 427.68,835.52 427.68,785.17 424.09,785.17 424.09,763.6 420.49,763.6 420.49,720.44 416.9,720.44 416.9,684.48 413.3,684.48 413.3,648.52 409.7,648.52 409.7,616.16 406.11,616.16 406.11,583.79 402.51,583.79 402.51,555.02 398.91,555.02 398.91,526.25 395.32,526.25 395.32,511.87 391.72,511.87 391.72,483.1 388.12,483.1 388.12,454.33 384.53,454.33 384.53,439.94 380.93,439.94 380.93,414.77 377.34,414.77 377.34,393.2 373.74,393.2 373.74,382.41 370.14,382.41 370.14,360.83 366.55,360.83 366.55,350.04 362.95,350.04 362.95,335.66 359.36,335.66 359.36,317.68 355.76,317.68 355.76,306.89 352.17,306.89 352.17,288.9 348.57,288.9 348.57,278.12 344.97,278.12 344.97,263.73 341.38,263.73 341.38,252.94 337.78,252.94 337.78,242.16 334.18,242.16 334.18,231.37 330.59,231.37 330.59,216.98 326.99,216.98 326.99,206.19 323.39,206.19 323.39,195.41 319.8,195.41 319.8,188.21 316.2,188.21 316.2,177.43 312.61,177.43 312.61,166.64 309.01,166.64 309.01,159.44 305.41,159.44 305.41,148.65 301.82,148.65 301.82,141.46 298.22,141.46 298.22,137.87 294.63,137.87 294.63,130.67 291.03,130.67 291.03,123.48 287.44,123.48 287.44,119.89 283.84,119.89 283.84,116.29 276.65,116.29 276.65,112.7 262.26,112.7 "/>
  <path id="outline" class="fil2 str0" d="M21.32 1756.14l3.59 0 0 -32.37 3.6 0 0 -32.36 3.59 0 0 -21.58 3.6 0 0 -25.18 3.6 0 0 -21.57 3.59 0 0 -10.79 3.6 0 0 -21.58 3.6 0 0 -21.57 3.59 0 0 -14.39 3.6 0 0 -14.38 3.6 0 0 -14.39 3.59 0 0 -14.38 3.6 0 0 -14.39 3.6 0 0 -10.79 3.59 0 0 -17.98 3.6 0 0 -7.19 3.59 0 0 -14.38 3.6 0 0 -14.39 3.59 0 0 -14.38 3.6 0 0 -7.2 3.6 0 0 -14.38 3.59 0 0 -10.79 3.6 0 0 -10.79 3.59 0 0 -7.19 3.6 0 0 -7.19 3.6 0 0 -7.19 3.59 0 0 -7.2 3.6 0 0 -7.19 3.6 0 0 -7.19 3.59 0 0 -7.19 3.6 0 0 -3.6 3.6 0 0 -7.19 3.59 0 0 -3.6 3.6 0 0 -7.19 3.59 0 0 -3.6 3.6 0 0 -7.19 3.6 0 0 -3.6 3.59 0 0 -3.59 3.6 0 0 -3.6 3.59 0 0 -7.19 3.6 0 0 -3.59 3.6 0 0 -3.6 3.59 0 0 -3.6 3.6 0 0 -3.59 3.59 0 0 -3.6 7.2 0 0 -3.59 3.59 0 0 -3.6 7.2 0 0 -3.6 3.59 0 0 -3.59 7.2 0 0 -3.6 7.19 0 0 -3.6 10.79 0 0 -3.59 10.78 0 0 -3.6 68.33 0 0 3.6 14.38 0 0 3.59 7.2 0 0 3.6 10.79 0 0 3.6 7.19 0 0 3.59 7.19 0 0 3.6 3.6 0 0 3.6 7.19 0 0 3.59 3.59 0 0 3.6 3.6 0 0 3.59 7.19 0 0 3.6 3.6 0 0 3.6 3.59 0 0 7.19 3.6 0 0 3.59 3.6 0 0 3.6 3.59 0 0 3.59 3.6 0 0 3.6 3.6 0 0 3.6 3.59 0 0 3.59 3.6 0 0 7.2 3.6 0 0 3.59 3.59 0 0 7.2 3.6 0 0 3.59 3.59 0 0 7.2 3.6 0 0 3.59 3.6 0 0 7.19 3.59 0 0 7.19 3.6 0 0 7.2 3.59 0 0 7.19 3.6 0 0 7.19 3.6 0 0 7.19 3.59 0 0 7.2 3.6 0 0 10.79 3.59 0 0 7.19 3.6 0 0 10.78 3.6 0 0 10.79 3.59 0 0 10.79 3.6 0 0 10.79 3.6 0 0 10.79 3.59 0 0 10.79 3.6 0 0 10.79 3.6 0 0 10.78 3.59 0 0 17.98 3.6 0 0 14.39 3.59 0 0 10.79 3.6 0 0 17.98 3.6 0 0 10.79 3.59 0 0 28.77 3.6 0 0 14.38 3.59 0 0 21.58 3.6 0 0 17.98 3.6 0 0 32.37 3.59 0 0 35.95 3.6 0 0 61.14 3.59 0 0 151.04 -3.59 0 0 32.36 -3.6 0 0 10.79 -3.59 0 0 7.2 -3.6 0 0 7.19 -3.6 0 0 3.59 -3.59 0 0 3.6 -7.19 0 0 3.59 -7.2 0 0 3.6 -7.19 0 0 3.6 -35.96 0 0 3.59 -32.37 0 0 3.6 -68.32 0 0 3.59 -122.27 0 0 -3.59 -50.35 0 0 -3.6 -35.96 0 0 -3.59 -25.17 0 0 -3.6 -17.99 0 0 -3.6 -14.38 0 0 -3.59 -10.79 0 0 -3.6 -10.78 0 0 -3.59 -3.6 0 0 -3.6 -7.19 0 0 -3.59 -3.6 0 0 -3.6 -3.6 0 0 -3.6 -3.59 0 0 -3.59 -3.6 0 0 -3.6 -3.6 0 0 -7.19 -3.59 0 0 -7.2 -3.6 0 0 -14.38 -3.6 0 0 -14.38 -3.59 0 0 -35.97 -3.6 0 0 -43.15 -3.59 0 0 -79.11zm230.15 -546.62l-17.98 0 0 3.6 -14.38 0 0 3.59 -10.79 0 0 3.6 -7.19 0 0 3.59 -7.2 0 0 3.6 -7.19 0 0 3.6 -3.6 0 0 3.59 -3.59 0 0 3.6 -7.19 0 0 3.6 -3.6 0 0 3.59 -3.6 0 0 3.6 -3.59 0 0 3.6 -3.6 0 0 3.59 -3.59 0 0 3.6 -3.6 0 0 3.59 -3.6 0 0 3.6 -3.59 0 0 3.6 -3.6 0 0 7.19 -3.59 0 0 3.59 -3.6 0 0 3.6 -3.6 0 0 3.59 -3.59 0 0 7.2 -3.6 0 0 7.19 -3.6 0 0 3.6 -3.59 0 0 7.19 -3.6 0 0 3.6 -3.6 0 0 7.19 -3.59 0 0 7.19 -3.6 0 0 7.19 -3.59 0 0 -21.57 3.59 0 0 -35.97 3.6 0 0 -32.36 3.59 0 0 -39.56 3.6 0 0 -28.77 3.6 0 0 -57.54 3.59 0 0 -35.96 3.6 0 0 -61.13 3.6 0 0 -53.94 3.59 0 0 -35.97 3.6 0 0 -68.32 3.6 0 0 -35.97 3.59 0 0 -21.57 3.6 0 0 -32.37 3.59 0 0 -28.76 3.6 0 0 -14.39 3.6 0 0 -25.18 3.59 0 0 -17.97 3.6 0 0 -25.18 3.59 0 0 -14.38 3.6 0 0 -17.98 3.6 0 0 -17.98 3.59 0 0 -17.98 3.6 0 0 -25.18 3.59 0 0 -14.38 3.6 0 0 -10.79 3.6 0 0 -28.77 3.59 0 0 -14.39 3.6 0 0 -17.98 3.6 0 0 -25.17 3.59 0 0 -21.58 3.6 0 0 -50.34 3.6 0 0 -28.77 3.59 0 0 -50.35 3.6 0 0 -35.96 3.59 0 0 -39.56 3.6 0 0 -28.77 3.6 0 0 -14.38 3.59 0 0 -17.98 3.6 0 0 -14.39 3.59 0 0 -10.79 3.6 0 0 -10.78 3.59 0 0 -7.2 3.6 0 0 -7.19 3.6 0 0 -3.59 3.59 0 0 -3.6 3.6 0 0 -3.59 14.39 0 0 3.59 7.19 0 0 3.6 3.6 0 0 3.59 3.59 0 0 7.19 3.6 0 0 7.2 3.59 0 0 3.59 3.6 0 0 7.19 3.59 0 0 10.79 3.6 0 0 7.2 3.6 0 0 10.79 3.59 0 0 10.78 3.6 0 0 7.2 3.59 0 0 10.78 3.6 0 0 10.79 3.6 0 0 14.39 3.59 0 0 10.79 3.6 0 0 10.78 3.6 0 0 10.79 3.59 0 0 14.39 3.6 0 0 10.78 3.6 0 0 17.99 3.59 0 0 10.79 3.6 0 0 17.98 3.59 0 0 14.38 3.6 0 0 10.79 3.59 0 0 21.58 3.6 0 0 10.79 3.6 0 0 21.57 3.59 0 0 25.17 3.6 0 0 14.39 3.59 0 0 28.77 3.6 0 0 28.77 3.6 0 0 14.38 3.59 0 0 28.77 3.6 0 0 28.77 3.6 0 0 32.37 3.59 0 0 32.36 3.6 0 0 35.96 3.6 0 0 35.96 3.59 0 0 43.16 3.6 0 0 21.57 3.59 0 0 50.35 3.6 0 0 35.96 3.6 0 0 50.35 3.59 0 0 39.56 3.6 0 0 39.55 3.59 0 0 64.73 3.6 0 0 35.97 3.6 0 0 53.94 3.59 0 0 43.15 3.6 0 0 39.56 3.59 0 0 32.37 3.6 0 0 39.55 3.6 0 0 35.96 3.59 0 0 14.39 -3.59 0 0 -3.6 -3.6 0 0 -7.19 -3.6 0 0 -7.19 -3.59 0 0 -7.19 -3.6 0 0 -7.19 -3.59 0 0 -7.2 -3.6 0 0 -3.59 -3.6 0 0 -7.2 -3.59 0 0 -3.59 -3.6 0 0 -7.2 -3.59 0 0 -3.59 -3.6 0 0 -3.6 -3.6 0 0 -7.19 -3.59 0 0 -3.6 -3.6 0 0 -3.59 -3.59 0 0 -3.6 -3.6 0 0 -3.59 -3.6 0 0 -3.6 -3.59 0 0 -7.19 -7.2 0 0 -3.6 -3.59 0 0 -3.59 -3.6 0 0 -3.6 -3.6 0 0 -3.6 -3.59 0 0 -3.59 -3.6 0 0 -3.6 -3.59 0 0 -3.6 -7.2 0 0 -3.59 -3.59 0 0 -3.6 -7.19 0 0 -3.6 -7.19 0 0 -3.59 -10.79 0 0 -3.6 -10.79 0 0 -3.59 -10.79 0 0 -3.6 -14.39 0 0 -3.6 -53.94 0 0 3.6zm7.19 -1114.81l-7.19 0 0 3.6 -7.19 0 0 3.6 -3.6 0 0 3.59 -3.59 0 0 3.6 -3.6 0 0 7.19 -3.59 0 0 3.6 -3.6 0 0 10.78 -3.6 0 0 7.2 -3.59 0 0 10.78 -3.6 0 0 17.99 -3.59 0 0 10.79 -3.6 0 0 21.57 -3.6 0 0 35.96 -3.59 0 0 28.77 -3.6 0 0 25.17 -3.6 0 0 61.14 -3.59 0 0 50.35 -3.6 0 0 17.98 -3.6 0 0 32.36 -3.59 0 0 17.98 -3.6 0 0 17.98 -3.59 0 0 28.77 -3.6 0 0 10.79 -3.6 0 0 25.17 -3.59 0 0 21.58 -3.6 0 0 10.79 -3.59 0 0 25.17 -3.6 0 0 17.98 -3.6 0 0 21.58 -3.59 0 0 17.98 -3.6 0 0 14.39 -3.59 0 0 17.98 -3.6 0 0 21.57 -3.6 0 0 32.37 -3.59 0 0 21.58 -3.6 0 0 17.98 -3.6 0 0 35.96 -3.59 0 0 32.36 -3.6 0 0 53.95 -3.6 0 0 32.36 -3.59 0 0 61.13 -3.6 0 0 43.16 -3.59 0 0 68.33 -3.6 0 0 46.75 -3.6 0 0 57.53 -3.59 0 0 17.99 -3.6 0 0 35.96 -3.59 0 0 39.56 -3.6 0 0 28.76 -3.59 0 0 25.18 -3.6 0 0 46.75 -3.6 0 0 17.98 -3.59 0 0 10.79 -3.6 0 0 17.98 -3.6 0 0 7.19 -3.59 0 0 21.58 -3.6 0 0 14.38 -3.6 0 0 14.39 -3.59 0 0 14.38 -3.6 0 0 14.39 -3.6 0 0 17.98 -3.59 0 0 10.78 -3.6 0 0 21.58 -3.59 0 0 17.98 -3.6 0 0 25.17 -3.59 0 0 17.99 -3.6 0 0 21.57 -3.6 0 0 25.17 -3.59 0 0 21.58 -3.6 0 0 133.06 3.6 0 0 32.37 3.59 0 0 25.17 3.6 0 0 14.38 3.6 0 0 10.79 3.59 0 0 7.19 3.6 0 0 10.79 3.59 0 0 7.2 3.6 0 0 3.59 3.59 0 0 3.6 3.6 0 0 3.59 3.6 0 0 3.6 3.59 0 0 3.59 7.2 0 0 3.6 3.59 0 0 3.6 7.2 0 0 3.59 7.19 0 0 3.6 7.19 0 0 3.59 10.79 0 0 3.6 14.38 0 0 3.6 17.98 0 0 3.59 17.99 0 0 3.6 32.36 0 0 3.6 64.73 0 0 3.59 161.83 0 0 -3.59 43.15 0 0 -3.6 43.16 0 0 -3.6 14.38 0 0 -3.59 14.39 0 0 -3.6 7.19 0 0 -3.6 7.19 0 0 -3.59 3.6 0 0 -3.6 3.59 0 0 -3.59 3.6 0 0 -3.6 3.59 0 0 -3.6 3.6 0 0 -3.59 3.6 0 0 -7.19 3.59 0 0 -7.19 3.6 0 0 -14.39 3.6 0 0 -14.39 3.59 0 0 -197.78 -3.59 0 0 -46.75 -3.6 0 0 -43.16 -3.6 0 0 -14.38 -3.59 0 0 -28.77 -3.6 0 0 -21.58 -3.6 0 0 -21.57 -3.59 0 0 -14.39 -3.6 0 0 -17.98 -3.59 0 0 -10.79 -3.6 0 0 -14.38 -3.6 0 0 -14.39 -3.59 0 0 -14.38 -3.6 0 0 -7.19 -3.59 0 0 -14.39 -3.6 0 0 -14.38 -3.6 0 0 -14.39 -3.59 0 0 -35.96 -3.6 0 0 -35.96 -3.59 0 0 -50.35 -3.6 0 0 -35.96 -3.6 0 0 -43.15 -3.59 0 0 -43.16 -3.6 0 0 -64.73 -3.6 0 0 -28.77 -3.59 0 0 -50.34 -3.6 0 0 -39.56 -3.6 0 0 -61.14 -3.59 0 0 -28.76 -3.6 0 0 -57.54 -3.59 0 0 -35.96 -3.6 0 0 -39.56 -3.6 0 0 -43.15 -3.59 0 0 -25.18 -3.6 0 0 -35.96 -3.59 0 0 -43.15 -3.6 0 0 -39.56 -3.6 0 0 -25.18 -3.59 0 0 -21.57 -3.6 0 0 -28.77 -3.59 0 0 -28.77 -3.6 0 0 -21.58 -3.6 0 0 -21.57 -3.59 0 0 -17.99 -3.6 0 0 -17.97 -3.6 0 0 -14.39 -3.59 0 0 -21.58 -3.6 0 0 -21.57 -3.6 0 0 -14.39 -3.59 0 0 -14.38 -3.6 0 0 -14.39 -3.59 0 0 -14.38 -3.6 0 0 -14.39 -3.6 0 0 -7.19 -3.59 0 0 -14.38 -3.6 0 0 -10.79 -3.59 0 0 -14.39 -3.6 0 0 -10.79 -3.59 0 0 -14.38 -3.6 0 0 -10.79 -3.6 0 0 -10.79 -3.59 0 0 -7.19 -3.6 0 0 -10.79 -3.6 0 0 -10.79 -3.59 0 0 -7.19 -3.6 0 0 -7.19 -3.6 0 0 -7.19 -3.59 0 0 -7.2 -3.6 0 0 -7.19 -3.59 0 0 -7.19 -3.6 0 0 -3.59 -3.6 0 0 -3.6 -3.59 0 0 -3.6 -3.6 0 0 -3.59 -3.59 0 0 -3.6 -3.6 0 0 -3.6 -7.19 0 0 -3.59 -25.18 0 0 3.59z"/>
  <path class="fil3 str1" d="M393.52 1276.76l-1.88 -2.54 1.88 2.54zm-1.88 -2.54l-0.83 -2.15 0.83 2.15zm-0.83 -2.15zm-5.42 -9.36l5.42 9.36zm-5.42 -9.36c0.4,-2.96 3.45,-1.31 1.34,0.5l-0.4 -0.05c-1.08,-0.36 -1.48,3.53 -0.94,-0.45zm-2.23 -8.19l0.24 0.64c-0.02,-0.04 -0.37,-0.5 -0.24,-0.64zm-8.96 -16.19c1.38,-1.44 3.65,4.27 1.06,1.35 -0.02,-0.02 -3.24,0.93 -1.06,-1.35zm-52.96 -168.62zm-7.07 -13.65l7.07 13.65zm-7.07 -13.65c3.06,2.64 0.77,-0.48 2.72,3.17 1.51,2.83 1.31,1.62 1.64,5.8 -5.94,-5.12 -3.89,-7.28 -4.36,-8.97zm-3.54 -6.83zm0 0zm0 0zm-12.84 -28.66l12.84 28.66zm-12.84 -28.66c3.87,1.58 8.33,7.02 9.53,12.59 0.93,4.33 0.82,0.86 0.02,7.49 -3.62,-6.26 -6.49,-13.23 -9.55,-20.08zm52.57 -173.82c0.61,-4.48 1.72,0.34 0.63,0.24 -0.01,-0.01 -1.29,4.66 -0.63,-0.24zm43.16 430.01c4.52,3.89 14.36,25.04 18.43,33.34 8.76,17.9 9.32,16.17 18.75,33 2.1,3.75 4.37,7.87 6.03,11.74 2.32,5.41 2.24,8.65 5.93,11.83 -0.3,-12.19 -18.44,-48.53 -23.83,-59.26l-8.71 -19.45c-1.63,-3.94 -1.94,-5.47 -3.93,-9.43l-25.54 -57.48c-2.71,-5.72 -3.52,-3.4 -3.71,-11.15 2.55,-0.03 2.63,-0.46 5.55,0.21l0.47 -3.5c-4.88,-4.21 -12.76,-25.01 -15.84,-33.04 -3.26,-8.5 -5.34,-8.1 -8.13,-17.06l-14.97 -33.95c-1.53,-3.17 -1.98,-5.07 -3.5,-8.37 -3.29,-7.17 -19.11,-37.44 -19.28,-44.48 3.65,2.91 4.34,5.94 6.82,8.21 9.08,8.32 -6.51,-25.06 -7.33,-27.22 -1.57,-4.12 -2.23,-6.79 -3.58,-11.3 -2.42,-8.07 -0.83,-18.21 -6.07,-23.91 -3.95,-4.3 -5.79,-0.98 -9.15,-0.76 -0.23,-9.36 -3.09,-8.47 -7.07,-13.65 5.34,-8.39 5.22,-3.34 4.92,-15.52 -0.23,-9.67 0.99,-16.44 5.32,-21.85 8.07,-10.08 21.86,-28.37 25.4,-45.34 1.74,-8.35 2.85,-19.55 3.83,-23.93 0.82,-3.69 5.02,-13.25 6.98,-19.07 2.28,-6.73 4.87,-14.21 5.98,-22.39 3.7,3.19 1.13,2.28 4.83,5.47 1.27,-4.36 4.8,-11.85 6.64,-15.93 2.33,-5.19 5.16,-10.54 7.68,-15.59 5.37,-10.79 13.47,-33.69 17.97,-40.95 4.64,-7.46 6.66,-19.48 9.81,-29.02 8.08,-24.54 18.61,-44.8 29.63,-65.14 5.31,-9.8 9.88,-21.44 15.36,-31.19 3.49,-6.21 5.32,-5.87 7.18,-14.87 0.95,-4.64 -0.6,-1.82 2.56,-7 1.73,-2.84 2.81,-3.96 4.65,-7.06 3.08,-5.17 5.03,-10.96 7.23,-16.75 2.6,-6.86 5.28,-8.63 7.81,-15.25l20.8 -50.2c3.19,-7.48 5.11,-8.76 7.67,-15.59l7.24 -16.73c1.62,-3.94 1.32,-4.54 2.88,-9.1 5.41,-15.81 16.26,-32.06 22.67,-47.71 1.6,-3.92 1.71,-6.14 3.3,-10.38 7.4,-19.65 21.63,-20.46 25.21,-22.28l3.13 -5.05c2.76,-12.19 1.39,-35.7 -3.63,-41.24 -10.25,-11.31 -20.16,-1.8 -27.11,-1.7 -6.55,-11.35 -3.35,-16.4 -13.67,-11.85l-12.68 4.94c-4.45,2.24 -1.2,-2.46 -4.96,6.05 -3.62,8.2 -5.15,6.52 -8.87,14.89 -3.12,7.01 -2.83,11.81 -6.66,18.03 -3.31,5.38 -6.21,8.18 -8.93,14.88 -8.36,20.58 -13.33,25.44 -16.53,32.85l-15.99 36.63c-4.03,12.91 -10.28,24.38 -15.68,35.08 -2.97,5.87 -4.98,13.27 -7.84,19.91 -2.84,6.61 -5.62,10.66 -6.83,17.43 -1.15,6.45 -5.13,11.85 -7.75,18.15 -15.41,37.05 -28.51,78.51 -46.8,110.58 -7.4,12.98 -11.22,17.71 -17.07,33.81 -7.94,21.81 -19.01,45.73 -25.39,69.08l-10.27 30.18c-1.38,4.5 -1.88,6.04 -3.48,9.92 -1.16,2.83 -3.47,7.52 -4.33,10.22 -2.34,7.38 -0.65,6.62 -2.51,12.25l-4.04 10.86c-0.14,0.4 -0.3,0.82 -0.44,1.22l-5.38 16.85c-3.6,13.55 -12.87,24.73 -12.79,40.19 -6.6,-5.68 -27.75,-74.79 -31.85,-88.47 -3.18,-10.59 -9.56,-42.03 -12.21,-48.87 -1.78,-4.58 -2.83,-5.22 -4.82,-9.99 -2.88,-6.92 -11.15,-27.5 -15.05,-30.86 2.08,-15.4 3.83,-30.81 -7.64,-29.4 -4.32,0.53 0.3,1.16 -3.2,0.65 -2.22,-0.31 -1.55,-0.59 -3.89,-2.45 3.81,-13.06 5.58,-13.62 -8.89,-23.1 -1.95,-1.27 -2,-1.83 -4.19,-3.71 -4.83,-4.15 -6.29,-2.15 -6.48,-9.86 6.47,2.39 10.16,0.31 15.58,0.23 0.72,-8.6 -3.27,-15.72 -6.12,-20.66 -6.92,-6.3 0.15,11.81 -18.81,-14.89l-4.77 -8.55c3.07,-0.04 5.89,-0.32 8.97,-0.36 0.5,-6.07 0.06,-6.72 -0.7,-11.3l15.51 -2.15c5.65,-1.69 11.22,-6.07 16.84,-6.15 -2.43,-9.18 -17.84,-8.6 -27.41,-12.03 -7.04,-2.52 -5.75,-0.07 -9.04,-0.52l-17.95 -5.69c-12.19,-6.46 -23.48,-37.14 -38.49,-48.45 -5.38,-4.05 -34.61,-14.2 -41.99,-16.33 -6.32,-1.83 -10.97,1.51 -14.21,8.21 -4.22,8.71 -1.4,16.07 0.49,25.83 2.99,15.44 9.69,19.94 17.97,39.85 2.79,6.71 5.82,13.38 8.8,19.35l35.49 81.65c7.82,20.55 15.52,44.16 24.37,63.21l8.4 19.78c1.94,5.01 2.67,5.62 4.74,10.08 7.64,16.44 10.22,26.95 22.51,51.62 3.81,7.64 3.42,12.13 7.68,20.54 4.63,9.15 6.61,17.72 11.44,25.61 5.34,8.72 6.12,16.77 10.74,26.36 8.81,18.25 31.84,76.65 36.34,95.8 -5.59,11.69 -20.33,57.81 -24.43,64.49 -6.01,9.8 -3.47,10.54 -7.88,22.15l-8.35 20.95c-2.88,7.88 -5.41,14.84 -7.99,21.9 -2.82,7.73 -5.04,13.85 -7.99,21.88 -8.3,22.58 -14.61,45.53 -23.88,68.34 -3.18,7.85 -1.58,2.26 -2.88,11.81l-1.95 6.24c-0.11,0.23 -0.36,0.61 -0.47,0.84 -0.11,0.22 -0.33,0.64 -0.42,0.86l-13.61 38.95c-0.88,3 -0.88,4.08 -1.85,7.04 -2.59,7.94 -5.22,9.91 -8.34,20.97l-31.13 92.1c-7.08,21.11 -15.94,42.2 -21.46,64.7 -1.19,4.81 -1.38,2.46 -2.98,6.71 -3.16,8.41 -4,18.11 -7.5,25.6 -2.04,4.36 -2.51,5.37 -3.77,11.59 -2.76,13.62 -4.57,13.41 -8.33,23.37 -6.66,17.62 -12.29,47.34 -21.55,71.95 -2.93,7.77 -4.09,20.05 -6.85,27.24 -6.51,16.98 -5.4,22.98 -14.46,47.72 -4.2,11.45 -3.69,9.54 -6.67,25.32 -2.06,10.91 -5.97,11.33 -7.79,24.79l9.3 -16.37c3.34,-6.24 6.45,-11.37 8.84,-19.42 4.44,-14.98 11.75,-26.36 16.98,-41.16 1.73,-4.88 3.96,-13.84 5.51,-18.87 5.58,-18.2 9.87,-25.89 16.68,-50.46 1.08,-3.89 2.19,-3.48 3.27,-8.42 0.82,-3.74 -0.24,-2.25 1.36,-6.67 1.89,-5.23 1.33,-2.15 3.36,-7.74l9.35 -27.86c2.3,-5.54 4.55,-9.94 6.76,-15.62 5.18,-13.35 9.65,-32.18 16.11,-43.42 3.36,-5.83 8.85,-26.16 16.49,-42.44 1.98,-4.21 4.16,-11.68 6.16,-17.18 1.23,-3.38 1.88,-5.44 3.11,-8.5l34.34 -88.46c1.91,-5.82 2.86,-12.82 5.17,-19.75 4.37,-13.11 8.54,-22.03 13.51,-33.6 2.36,-5.49 4.34,-10.27 6.82,-15.44l14.4 -31.44c3.68,-9.83 2.05,-11.15 0.68,-19.43 18.97,-29.79 12.25,-23.93 19.77,-38.66l17.44 -30.5c3.38,-5.69 16.94,-27.59 17.77,-31.99l-3.18 -1.18 2.37 -17.52c5.96,-0.4 15.07,-10.7 19.02,-16.9 12.51,17.63 24.44,37.75 35.97,57.09 8.52,14.28 18.25,29.81 25.07,45.94 2.59,6.14 4.52,11.14 10.15,13.44l3.11 -7.2c0.03,-0.11 0.1,-0.56 0.2,-0.78 7.3,5.8 11.17,22.88 15.25,33.66 2.09,5.49 2.25,8.55 4.48,13.35 7.27,15.67 13.76,30.44 21.44,45.23 7.75,14.92 15.3,28.44 22.62,44l22.08 44.55c3.73,7.33 6.95,13.87 10.95,21.62 4.49,8.69 6.84,14.31 10.51,23.59 3.47,8.78 7.76,13.09 11.5,21.04 3.25,6.9 0.52,4.44 4.78,11.55l17.52 32.79c3.41,5.9 1.43,5.69 4.41,11.92l27.49 53.34c1.62,1.37 2.43,1.06 1.64,-2.77 -1.07,-5.17 -3.15,-8.62 -5.42,-12.23 -4.19,-6.7 -4.69,-10.44 -8.06,-17.13l-19.56 -42.68c-1.81,-4.22 -2.56,-5.13 -4.33,-9l-72.2 -154.51c-4.97,-10.52 -12.23,-23.6 -15.01,-35.41z"/>
 </g>
</svg>
