<?xml version="1.0" encoding="UTF-8"?>
<!DOCTYPE svg PUBLIC "-//W3C//DTD SVG 1.1//EN" "http://www.w3.org/Graphics/SVG/1.1/DTD/svg11.dtd">
<!-- Creator: CorelDRAW (Versión de evaluación) -->
<svg xmlns="http://www.w3.org/2000/svg" xml:space="preserve" width="446px" height="2062px" version="1.1" style="shape-rendering:geometricPrecision; text-rendering:geometricPrecision; image-rendering:optimizeQuality; fill-rule:evenodd; clip-rule:evenodd"
viewBox="0 0 446 2060.93"
 xmlns:xlink="http://www.w3.org/1999/xlink"
 xmlns:xodm="http://www.corel.com/coreldraw/odm/2003">
 <defs>
  <style type="text/css">
   <![CDATA[
    .str0 {stroke:#ED3237;stroke-width:2;stroke-miterlimit:22.9256}
    .fil2 {fill:#4B4B4D}
    .fil3 {fill:#ED3237}
    .fil1 {fill:#F2E6C9}
    .fil0 {fill:#FAFAF7}
   ]]>
  </style>
 </defs>
 <g id="extraction">
  <metadata id="CorelCorpID_0Corel-Layer"/>
  <polygon id="crown" class="fil0" points="193.96,1322.83 183.17,1322.83 183.17,1326.43 172.38,1326.43 172.38,1330.03 168.79,1330.03 168.79,1333.62 161.59,1333.62 161.59,1337.22 154.4,1337.22 154.4,1340.82 150.8,1340.82 150.8,1344.41 147.21,1344.41 147.21,1348.01 140.01,1348.01 140.01,1351.61 136.42,1351.61 136.42,1355.2 132.82,1355.2 132.82,1362.4 129.22,1362.4 129.22,1366 125.63,1366 125.63,1369.59 122.03,1369.59 122.03,1376.79 118.43,1376.79 118.43,1380.38 114.84,1380.38 114.84,1387.58 111.24,1387.58 111.24,1394.77 107.64,1394.77 107.64,1398.37 104.05,1398.37 104.05,1405.56 100.45,1405.56 100.45,1416.35 96.85,1416.35 96.85,1423.54 93.26,1423.54 93.26,1434.33 89.66,1434.33 89.66,1445.12 86.06,1445.12 86.06,1452.32 82.47,1452.32 82.47,1463.11 78.87,1463.11 78.87,1473.9 75.27,1473.9 75.27,1488.29 71.68,1488.29 71.68,1502.67 68.08,1502.67 68.08,1517.06 64.48,1517.06 64.48,1531.45 60.89,1531.45 60.89,1545.83 57.29,1545.83 57.29,1560.22 53.69,1560.22 53.69,1578.21 50.1,1578.21 50.1,1599.79 46.5,1599.79 46.5,1610.58 42.9,1610.58 42.9,1628.56 39.31,1628.56 39.31,1646.54 35.71,1646.54 35.71,1668.12 32.11,1668.12 32.11,1696.9 28.52,1696.9 28.52,1718.48 24.92,1718.48 24.92,1869.54 28.52,1869.54 28.52,1880.33 32.11,1880.33 32.11,1898.31 35.71,1898.31 35.71,1905.51 39.31,1905.51 39.31,1916.3 42.9,1916.3 42.9,1919.89 46.5,1919.89 46.5,1923.49 50.1,1923.49 50.1,1927.09 53.69,1927.09 53.69,1930.68 57.29,1930.68 57.29,1937.88 64.48,1937.88 64.48,1941.48 68.08,1941.48 68.08,1945.07 75.27,1945.07 75.27,1948.67 86.06,1948.67 86.06,1952.27 93.26,1952.27 93.26,1955.86 104.05,1955.86 104.05,1959.46 114.84,1959.46 114.84,1963.06 125.63,1963.06 125.63,1966.65 140.01,1966.65 140.01,1970.25 161.59,1970.25 161.59,1973.85 179.58,1973.85 179.58,1977.44 337.84,1977.44 337.84,1973.85 359.42,1973.85 359.42,1970.25 370.21,1970.25 370.21,1966.65 381,1966.65 381,1963.06 388.19,1963.06 388.19,1959.46 395.39,1959.46 395.39,1955.86 402.58,1955.86 402.58,1952.27 406.18,1952.27 406.18,1945.07 409.77,1945.07 409.77,1937.88 413.37,1937.88 413.37,1927.09 416.97,1927.09 416.97,1916.3 420.56,1916.3 420.56,1876.73 424.16,1876.73 424.16,1808.39 420.56,1808.39 420.56,1761.64 416.97,1761.64 416.97,1743.65 413.37,1743.65 413.37,1711.28 409.77,1711.28 409.77,1682.51 406.18,1682.51 406.18,1664.53 402.58,1664.53 402.58,1646.54 398.98,1646.54 398.98,1632.16 395.39,1632.16 395.39,1610.58 391.79,1610.58 391.79,1596.19 388.19,1596.19 388.19,1581.8 384.6,1581.8 384.6,1567.41 381,1567.41 381,1556.62 377.4,1556.62 377.4,1545.83 373.81,1545.83 373.81,1535.04 370.21,1535.04 370.21,1524.25 366.61,1524.25 366.61,1509.87 363.02,1509.87 363.02,1499.08 359.42,1499.08 359.42,1488.29 355.82,1488.29 355.82,1477.5 352.22,1477.5 352.22,1466.7 348.63,1466.7 348.63,1455.91 345.03,1455.91 345.03,1448.72 341.43,1448.72 341.43,1441.53 337.84,1441.53 337.84,1430.74 334.24,1430.74 334.24,1423.54 330.64,1423.54 330.64,1412.75 327.05,1412.75 327.05,1405.56 323.45,1405.56 323.45,1401.96 319.85,1401.96 319.85,1394.77 316.26,1394.77 316.26,1391.17 312.66,1391.17 312.66,1383.98 309.06,1383.98 309.06,1380.38 305.47,1380.38 305.47,1373.19 301.87,1373.19 301.87,1369.59 298.27,1369.59 298.27,1366 294.68,1366 294.68,1362.4 291.08,1362.4 291.08,1355.2 287.48,1355.2 287.48,1351.61 280.29,1351.61 280.29,1348.01 276.69,1348.01 276.69,1344.41 273.09,1344.41 273.09,1340.82 269.5,1340.82 269.5,1337.22 262.3,1337.22 262.3,1333.62 255.11,1333.62 255.11,1330.03 251.51,1330.03 251.51,1326.43 244.32,1326.43 244.32,1322.83 233.53,1322.83 233.53,1319.24 193.96,1319.24 "/>
  <polygon id="root" class="fil1" points="183.17,286.97 175.98,286.97 175.98,294.17 172.38,294.17 172.38,301.36 168.79,301.36 168.79,304.96 165.19,304.96 165.19,330.14 161.59,330.14 161.59,463.21 165.19,463.21 165.19,610.68 161.59,610.68 161.59,650.25 158,650.25 158,689.81 154.4,689.81 154.4,714.99 150.8,714.99 150.8,754.55 147.21,754.55 147.21,768.94 143.61,768.94 143.61,797.71 140.01,797.71 140.01,826.49 136.42,826.49 136.42,851.66 132.82,851.66 132.82,869.65 129.22,869.65 129.22,891.23 125.63,891.23 125.63,916.4 122.03,916.4 122.03,941.58 118.43,941.58 118.43,966.76 114.84,966.76 114.84,984.74 111.24,984.74 111.24,1013.52 107.64,1013.52 107.64,1035.1 104.05,1035.1 104.05,1063.87 100.45,1063.87 100.45,1099.84 96.85,1099.84 96.85,1135.81 93.26,1135.81 93.26,1182.56 89.66,1182.56 89.66,1229.32 86.06,1229.32 86.06,1301.25 82.47,1301.25 82.47,1355.2 78.87,1355.2 78.87,1394.77 75.27,1394.77 75.27,1416.35 78.87,1416.35 78.87,1412.75 82.47,1412.75 82.47,1401.96 86.06,1401.96 86.06,1394.77 89.66,1394.77 89.66,1387.58 93.26,1387.58 93.26,1380.38 96.85,1380.38 96.85,1373.19 100.45,1373.19 100.45,1369.59 104.05,1369.59 104.05,1362.4 107.64,1362.4 107.64,1358.8 111.24,1358.8 111.24,1355.2 114.84,1355.2 114.84,1351.61 118.43,1351.61 118.43,1348.01 122.03,1348.01 122.03,1344.41 125.63,1344.41 125.63,1340.82 129.22,1340.82 129.22,1337.22 132.82,1337.22 132.82,1330.03 140.01,1330.03 140.01,1326.43 143.61,1326.43 143.61,1322.83 150.8,1322.83 150.8,1319.24 154.4,1319.24 154.4,1315.64 161.59,1315.64 161.59,1312.04 172.38,1312.04 172.38,1308.45 179.58,1308.45 179.58,1304.85 193.96,1304.85 193.96,1301.25 229.93,1301.25 229.93,1304.85 244.32,1304.85 244.32,1308.45 251.51,1308.45 251.51,1312.04 262.3,1312.04 262.3,1315.64 269.5,1315.64 269.5,1319.24 273.09,1319.24 273.09,1322.83 280.29,1322.83 280.29,1326.43 283.89,1326.43 283.89,1330.03 287.48,1330.03 287.48,1333.62 291.08,1333.62 291.08,1337.22 294.68,1337.22 294.68,1340.82 301.87,1340.82 301.87,1344.41 305.47,1344.41 305.47,1348.01 309.06,1348.01 309.06,1351.61 312.66,1351.61 312.66,1358.8 316.26,1358.8 316.26,1362.4 319.85,1362.4 319.85,1366 323.45,1366 323.45,1373.19 327.05,1373.19 327.05,1376.79 330.64,1376.79 330.64,1383.98 334.24,1383.98 334.24,1391.17 337.84,1391.17 337.84,1394.77 341.43,1394.77 341.43,1401.96 345.03,1401.96 345.03,1409.16 348.63,1409.16 348.63,1416.35 352.22,1416.35 352.22,1423.54 355.82,1423.54 355.82,1434.33 359.42,1434.33 359.42,1441.53 363.02,1441.53 363.02,1448.72 366.61,1448.72 366.61,1455.91 370.21,1455.91 370.21,1437.93 366.61,1437.93 366.61,1376.79 363.02,1376.79 363.02,1315.64 359.42,1315.64 359.42,1247.3 355.82,1247.3 355.82,1160.98 352.22,1160.98 352.22,1107.03 348.63,1107.03 348.63,984.74 345.03,984.74 345.03,955.97 341.43,955.97 341.43,894.82 337.84,894.82 337.84,855.26 334.24,855.26 334.24,819.29 330.64,819.29 330.64,786.92 327.05,786.92 327.05,750.95 323.45,750.95 323.45,722.18 319.85,722.18 319.85,697 316.26,697 316.26,679.02 312.66,679.02 312.66,650.25 309.06,650.25 309.06,632.26 305.47,632.26 305.47,610.68 301.87,610.68 301.87,589.1 298.27,589.1 298.27,574.71 294.68,574.71 294.68,553.13 291.08,553.13 291.08,538.74 287.48,538.74 287.48,517.16 283.89,517.16 283.89,502.78 280.29,502.78 280.29,491.99 276.69,491.99 276.69,474 273.09,474 273.09,459.62 269.5,459.62 269.5,452.42 265.9,452.42 265.9,438.04 262.3,438.04 262.3,423.65 258.71,423.65 258.71,412.86 255.11,412.86 255.11,402.07 251.51,402.07 251.51,387.68 247.92,387.68 247.92,380.49 244.32,380.49 244.32,369.7 240.72,369.7 240.72,358.91 237.13,358.91 237.13,351.72 233.53,351.72 233.53,340.93 229.93,340.93 229.93,333.73 226.34,333.73 226.34,322.94 222.74,322.94 222.74,315.75 219.14,315.75 219.14,308.56 215.55,308.56 215.55,304.96 211.95,304.96 211.95,297.77 208.35,297.77 208.35,294.17 204.76,294.17 204.76,290.57 201.16,290.57 201.16,286.97 197.56,286.97 197.56,283.38 183.17,283.38 "/>
  <path id="outline" class="fil2" d="M24.92 1718.48l3.6 0 0 -21.58 3.59 0 0 -28.78 3.6 0 0 -21.58 3.6 0 0 -17.98 3.59 0 0 -17.98 3.6 0 0 -10.79 3.6 0 0 -21.58 3.59 0 0 -17.99 3.6 0 0 -14.39 3.6 0 0 -14.38 3.59 0 0 -14.39 3.6 0 0 -14.39 3.6 0 0 -14.38 3.59 0 0 -14.39 3.6 0 0 -10.79 3.6 0 0 -10.79 3.59 0 0 -7.2 3.6 0 0 -10.79 3.6 0 0 -10.79 3.59 0 0 -7.19 3.6 0 0 -10.79 3.6 0 0 -7.19 3.59 0 0 -3.6 3.6 0 0 -7.19 3.6 0 0 -7.2 3.59 0 0 -3.59 3.6 0 0 -7.2 3.6 0 0 -3.59 3.59 0 0 -3.6 3.6 0 0 -7.2 3.6 0 0 -3.59 3.59 0 0 -3.6 7.2 0 0 -3.6 3.59 0 0 -3.59 3.6 0 0 -3.6 7.19 0 0 -3.6 7.2 0 0 -3.59 3.59 0 0 -3.6 10.79 0 0 -3.6 10.79 0 0 -3.59 39.57 0 0 3.59 10.79 0 0 3.6 7.19 0 0 3.6 3.6 0 0 3.59 7.19 0 0 3.6 7.2 0 0 3.6 3.59 0 0 3.59 3.6 0 0 3.6 3.6 0 0 3.6 7.19 0 0 3.59 3.6 0 0 7.2 3.6 0 0 3.6 3.59 0 0 3.59 3.6 0 0 3.6 3.6 0 0 7.19 3.59 0 0 3.6 3.6 0 0 7.19 3.6 0 0 3.6 3.59 0 0 7.19 3.6 0 0 3.6 3.6 0 0 7.19 3.59 0 0 10.79 3.6 0 0 7.2 3.6 0 0 10.79 3.59 0 0 7.19 3.6 0 0 7.19 3.6 0 0 10.79 3.59 0 0 10.8 3.6 0 0 10.79 3.6 0 0 10.79 3.6 0 0 10.79 3.59 0 0 14.38 3.6 0 0 10.79 3.6 0 0 10.79 3.59 0 0 10.79 3.6 0 0 10.79 3.6 0 0 14.39 3.59 0 0 14.39 3.6 0 0 14.39 3.6 0 0 21.58 3.59 0 0 14.38 3.6 0 0 17.99 3.6 0 0 17.98 3.59 0 0 28.77 3.6 0 0 32.37 3.6 0 0 17.99 3.59 0 0 46.75 3.6 0 0 68.34 -3.6 0 0 39.57 -3.59 0 0 10.79 -3.6 0 0 10.79 -3.6 0 0 7.19 -3.59 0 0 7.2 -3.6 0 0 3.59 -7.19 0 0 3.6 -7.2 0 0 3.6 -7.19 0 0 3.59 -10.79 0 0 3.6 -10.79 0 0 3.6 -21.58 0 0 3.59 -158.26 0 0 -3.59 -17.99 0 0 -3.6 -21.58 0 0 -3.6 -14.38 0 0 -3.59 -10.79 0 0 -3.6 -10.79 0 0 -3.6 -10.79 0 0 -3.59 -7.2 0 0 -3.6 -10.79 0 0 -3.6 -7.19 0 0 -3.59 -3.6 0 0 -3.6 -7.19 0 0 -7.2 -3.6 0 0 -3.59 -3.59 0 0 -3.6 -3.6 0 0 -3.6 -3.6 0 0 -3.59 -3.59 0 0 -10.79 -3.6 0 0 -7.2 -3.6 0 0 -17.98 -3.59 0 0 -10.79 -3.6 0 0 -151.06zm136.67 -1388.34l3.6 0 0 -25.18 3.6 0 0 -3.6 3.59 0 0 -7.19 3.6 0 0 -7.2 7.19 0 0 -3.59 14.39 0 0 3.59 3.6 0 0 3.6 3.6 0 0 3.6 3.59 0 0 3.6 3.6 0 0 7.19 3.6 0 0 3.6 3.59 0 0 7.19 3.6 0 0 7.19 3.6 0 0 10.79 3.59 0 0 7.2 3.6 0 0 10.79 3.6 0 0 7.19 3.59 0 0 10.79 3.6 0 0 10.79 3.6 0 0 7.19 3.59 0 0 14.39 3.6 0 0 10.79 3.6 0 0 10.79 3.59 0 0 14.39 3.6 0 0 14.38 3.6 0 0 7.2 3.59 0 0 14.38 3.6 0 0 17.99 3.6 0 0 10.79 3.6 0 0 14.38 3.59 0 0 21.58 3.6 0 0 14.39 3.6 0 0 21.58 3.59 0 0 14.39 3.6 0 0 21.58 3.6 0 0 21.58 3.59 0 0 17.99 3.6 0 0 28.77 3.6 0 0 17.98 3.59 0 0 25.18 3.6 0 0 28.77 3.6 0 0 35.97 3.59 0 0 32.37 3.6 0 0 35.97 3.6 0 0 39.56 3.59 0 0 61.15 3.6 0 0 28.77 3.6 0 0 122.29 3.59 0 0 53.95 3.6 0 0 86.32 3.6 0 0 68.34 3.6 0 0 61.15 3.59 0 0 61.14 3.6 0 0 17.98 -3.6 0 0 -7.19 -3.59 0 0 -7.19 -3.6 0 0 -7.2 -3.6 0 0 -10.79 -3.6 0 0 -7.19 -3.59 0 0 -7.19 -3.6 0 0 -7.2 -3.6 0 0 -7.19 -3.59 0 0 -3.6 -3.6 0 0 -7.19 -3.6 0 0 -7.19 -3.59 0 0 -3.6 -3.6 0 0 -7.19 -3.6 0 0 -3.6 -3.59 0 0 -3.6 -3.6 0 0 -7.19 -3.6 0 0 -3.6 -3.59 0 0 -3.6 -3.6 0 0 -3.59 -7.19 0 0 -3.6 -3.6 0 0 -3.6 -3.6 0 0 -3.59 -3.59 0 0 -3.6 -3.6 0 0 -3.6 -7.2 0 0 -3.59 -3.59 0 0 -3.6 -7.2 0 0 -3.6 -10.79 0 0 -3.59 -7.19 0 0 -3.6 -14.39 0 0 -3.6 -35.97 0 0 3.6 -14.38 0 0 3.6 -7.2 0 0 3.59 -10.79 0 0 3.6 -7.19 0 0 3.6 -3.6 0 0 3.59 -7.19 0 0 3.6 -3.6 0 0 3.6 -7.19 0 0 7.19 -3.6 0 0 3.6 -3.59 0 0 3.59 -3.6 0 0 3.6 -3.6 0 0 3.6 -3.59 0 0 3.59 -3.6 0 0 3.6 -3.6 0 0 3.6 -3.59 0 0 7.19 -3.6 0 0 3.6 -3.6 0 0 7.19 -3.59 0 0 7.2 -3.6 0 0 7.19 -3.6 0 0 7.19 -3.59 0 0 10.79 -3.6 0 0 3.6 -3.6 0 0 -21.58 3.6 0 0 -39.57 3.6 0 0 -53.95 3.59 0 0 -71.93 3.6 0 0 -46.76 3.6 0 0 -46.75 3.59 0 0 -35.97 3.6 0 0 -35.97 3.6 0 0 -28.77 3.59 0 0 -21.58 3.6 0 0 -28.78 3.6 0 0 -17.98 3.59 0 0 -25.18 3.6 0 0 -25.18 3.6 0 0 -25.17 3.59 0 0 -21.58 3.6 0 0 -17.99 3.6 0 0 -25.17 3.59 0 0 -28.78 3.6 0 0 -28.77 3.6 0 0 -14.39 3.59 0 0 -39.56 3.6 0 0 -25.18 3.6 0 0 -39.56 3.59 0 0 -39.57 3.6 0 0 -147.47 -3.6 0 0 -133.07zm17.99 -68.34l-7.2 0 0 3.59 -3.59 0 0 3.6 -3.6 0 0 3.6 -3.6 0 0 3.59 -3.59 0 0 3.6 -3.6 0 0 7.19 -3.6 0 0 7.2 -3.59 0 0 7.19 -3.6 0 0 14.39 -3.6 0 0 21.58 -3.59 0 0 89.92 3.59 0 0 46.75 3.6 0 0 129.49 -3.6 0 0 43.16 -3.59 0 0 28.77 -3.6 0 0 32.37 -3.6 0 0 43.16 -3.59 0 0 21.59 -3.6 0 0 32.37 -3.6 0 0 14.38 -3.59 0 0 17.99 -3.6 0 0 17.98 -3.6 0 0 25.18 -3.59 0 0 21.58 -3.6 0 0 28.77 -3.6 0 0 17.98 -3.59 0 0 25.18 -3.6 0 0 21.58 -3.6 0 0 21.58 -3.59 0 0 39.57 -3.6 0 0 32.37 -3.6 0 0 32.37 -3.59 0 0 32.37 -3.6 0 0 75.53 -3.6 0 0 64.74 -3.59 0 0 64.74 -3.6 0 0 61.15 -3.6 0 0 43.16 -3.59 0 0 32.37 -3.6 0 0 10.79 -3.6 0 0 21.58 -3.59 0 0 10.79 -3.6 0 0 17.98 -3.6 0 0 14.39 -3.59 0 0 14.39 -3.6 0 0 14.39 -3.6 0 0 14.38 -3.59 0 0 17.99 -3.6 0 0 17.98 -3.6 0 0 21.58 -3.59 0 0 25.18 -3.6 0 0 57.54 -3.6 0 0 82.73 3.6 0 0 35.97 3.6 0 0 17.98 3.59 0 0 17.98 3.6 0 0 7.2 3.6 0 0 7.19 3.59 0 0 3.6 3.6 0 0 7.19 3.6 0 0 3.6 3.59 0 0 7.19 3.6 0 0 3.6 3.6 0 0 3.6 7.19 0 0 3.59 3.6 0 0 3.6 3.59 0 0 3.6 7.2 0 0 3.59 7.19 0 0 3.6 7.19 0 0 3.6 7.2 0 0 3.59 10.79 0 0 3.6 10.79 0 0 3.6 17.98 0 0 3.59 10.79 0 0 3.6 21.58 0 0 3.6 17.98 0 0 3.59 21.58 0 0 3.6 133.09 0 0 -3.6 21.58 0 0 -3.59 21.58 0 0 -3.6 14.39 0 0 -3.6 7.19 0 0 -3.59 7.19 0 0 -3.6 7.2 0 0 -3.6 7.19 0 0 -3.59 3.6 0 0 -3.6 3.59 0 0 -3.6 3.6 0 0 -7.19 3.6 0 0 -3.6 3.59 0 0 -7.19 3.6 0 0 -7.19 3.6 0 0 -17.99 3.59 0 0 -25.18 3.6 0 0 -107.9 -3.6 0 0 -43.16 -3.59 0 0 -21.58 -3.6 0 0 -28.77 -3.6 0 0 -21.58 -3.59 0 0 -14.39 -3.6 0 0 -17.98 -3.6 0 0 -21.58 -3.59 0 0 -10.79 -3.6 0 0 -21.58 -3.6 0 0 -10.79 -3.59 0 0 -10.8 -3.6 0 0 -14.38 -3.6 0 0 -25.18 -3.59 0 0 -57.55 -3.6 0 0 -46.76 -3.6 0 0 -64.74 -3.59 0 0 -53.95 -3.6 0 0 -68.34 -3.6 0 0 -93.51 -3.59 0 0 -61.15 -3.6 0 0 -75.53 -3.6 0 0 -57.55 -3.59 0 0 -64.74 -3.6 0 0 -32.37 -3.6 0 0 -35.96 -3.6 0 0 -46.76 -3.59 0 0 -28.78 -3.6 0 0 -28.77 -3.6 0 0 -21.58 -3.59 0 0 -14.39 -3.6 0 0 -25.17 -3.6 0 0 -21.59 -3.59 0 0 -25.17 -3.6 0 0 -21.58 -3.6 0 0 -14.39 -3.59 0 0 -21.58 -3.6 0 0 -17.99 -3.6 0 0 -10.79 -3.59 0 0 -14.38 -3.6 0 0 -14.39 -3.6 0 0 -14.39 -3.59 0 0 -17.98 -3.6 0 0 -14.39 -3.6 0 0 -10.79 -3.59 0 0 -7.19 -3.6 0 0 -17.98 -3.6 0 0 -7.2 -3.6 0 0 -14.38 -3.59 0 0 -10.79 -3.6 0 0 -7.2 -3.6 0 0 -14.38 -3.59 0 0 -7.2 -3.6 0 0 -10.79 -3.6 0 0 -7.19 -3.59 0 0 -10.79 -3.6 0 0 -7.19 -3.6 0 0 -7.2 -3.59 0 0 -7.19 -3.6 0 0 -3.6 -3.6 0 0 -7.19 -3.59 0 0 -3.6 -3.6 0 0 -3.6 -3.6 0 0 -7.19 -7.19 0 0 -3.6 -3.6 0 0 -3.59 -7.19 0 0 -3.6 -21.58 0 0 3.6z"/>
  <path class="fil3 str0" d="M312.1 1346.92l-1.49 -2.54 1.49 2.54zm-1.49 -2.54l-0.65 -2.14 0.65 2.14zm-0.65 -2.14zm-4.27 -9.37l4.27 9.37zm-4.27 -9.37c0.31,-2.96 2.72,-1.3 1.05,0.5l-0.31 -0.05c-0.85,-0.36 -1.17,3.54 -0.74,-0.45zm-1.77 -8.18l0.2 0.63c-0.02,-0.04 -0.3,-0.5 -0.2,-0.63zm-7.06 -16.2c1.09,-1.44 2.88,4.27 0.83,1.35 -0.01,-0.03 -2.55,0.93 -0.83,-1.35zm-41.78 -168.65zm-5.58 -13.65l5.58 13.65zm-5.58 -13.65c2.42,2.64 0.61,-0.48 2.15,3.17 1.19,2.83 1.04,1.62 1.29,5.8 -4.68,-5.12 -3.06,-7.28 -3.44,-8.97zm-2.78 -6.83zm0 0zm0 0zm-10.13 -28.67l10.13 28.67zm-10.13 -28.67c3.05,1.58 6.57,7.02 7.51,12.59 0.73,4.34 0.65,0.87 0.01,7.5 -2.85,-6.27 -5.11,-13.24 -7.52,-20.09zm41.46 -173.84c0.48,-4.49 1.36,0.34 0.5,0.23 -0.01,0 -1.02,4.66 -0.5,-0.23zm34.05 430.07c3.56,3.89 11.33,25.05 14.53,33.35 6.92,17.9 7.36,16.18 14.8,33.01 1.65,3.74 3.45,7.87 4.75,11.74 1.83,5.41 1.77,8.65 4.68,11.83 -0.24,-12.19 -14.55,-48.54 -18.8,-59.27l-6.87 -19.45c-1.29,-3.95 -1.53,-5.48 -3.1,-9.43l-20.14 -57.49c-2.15,-5.72 -2.78,-3.41 -2.93,-11.15 2.01,-0.04 2.07,-0.46 4.38,0.2l0.37 -3.5c-3.85,-4.21 -10.07,-25.01 -12.5,-33.05 -2.57,-8.49 -4.21,-8.09 -6.41,-17.06l-11.81 -33.95c-1.21,-3.17 -1.56,-5.07 -2.76,-8.37 -2.6,-7.17 -15.07,-37.45 -15.21,-44.49 2.88,2.91 3.43,5.94 5.38,8.21 7.16,8.33 -5.13,-25.06 -5.78,-27.23 -1.24,-4.11 -1.76,-6.78 -2.83,-11.29 -1.9,-8.08 -0.65,-18.22 -4.78,-23.92 -3.12,-4.3 -4.57,-0.98 -7.22,-0.76 -0.18,-9.36 -2.43,-8.47 -5.58,-13.65 4.22,-8.39 4.12,-3.34 3.89,-15.52 -0.19,-9.67 0.78,-16.44 4.19,-21.86 6.36,-10.08 17.24,-28.37 20.04,-45.35 1.37,-8.35 2.25,-19.55 3.02,-23.93 0.64,-3.69 3.96,-13.25 5.51,-19.07 1.79,-6.73 3.83,-14.21 4.71,-22.4 2.92,3.19 0.89,2.28 3.81,5.47 1,-4.35 3.79,-11.85 5.24,-15.93 1.84,-5.18 4.07,-10.54 6.05,-15.59 4.24,-10.79 10.63,-33.7 14.18,-40.95 3.66,-7.47 5.26,-19.49 7.74,-29.03 6.37,-24.55 14.68,-44.8 23.38,-65.15 4.18,-9.8 7.79,-21.44 12.11,-31.19 2.75,-6.22 4.2,-5.87 5.66,-14.88 0.75,-4.64 -0.47,-1.82 2.02,-7 1.37,-2.84 2.22,-3.96 3.67,-7.06 2.43,-5.17 3.97,-10.96 5.7,-16.76 2.06,-6.86 4.16,-8.63 6.16,-15.25l16.41 -50.21c2.52,-7.47 4.03,-8.76 6.05,-15.59l5.71 -16.73c1.28,-3.94 1.04,-4.55 2.28,-9.11 4.26,-15.8 12.82,-32.06 17.88,-47.71 1.26,-3.92 1.34,-6.14 2.6,-10.38 5.84,-19.65 17.06,-20.46 19.89,-22.29l2.47 -5.05c2.17,-12.19 1.09,-35.7 -2.87,-41.25 -8.08,-11.31 -15.9,-1.79 -21.38,-1.7 -5.17,-11.35 -2.64,-16.4 -10.78,-11.84l-10.01 4.94c-3.51,2.24 -0.94,-2.46 -3.91,6.05 -2.86,8.2 -4.06,6.52 -7,14.88 -2.46,7.02 -2.23,11.82 -5.25,18.04 -2.61,5.38 -4.9,8.19 -7.05,14.88 -6.59,20.59 -10.51,25.45 -13.04,32.86l-12.61 36.64c-3.17,12.91 -8.1,24.38 -12.37,35.08 -2.34,5.88 -3.93,13.27 -6.18,19.91 -2.24,6.62 -4.43,10.67 -5.39,17.44 -0.91,6.45 -4.04,11.85 -6.11,18.15 -12.16,37.05 -22.5,78.52 -36.92,110.6 -5.83,12.98 -8.85,17.71 -13.47,33.81 -6.25,21.82 -14.99,45.74 -20.02,69.1l-8.11 30.18c-1.08,4.5 -1.47,6.05 -2.74,9.93 -0.92,2.82 -2.74,7.51 -3.41,10.22 -1.85,7.38 -0.52,6.61 -1.99,12.25l-3.18 10.86c-0.12,0.39 -0.24,0.82 -0.35,1.22l-4.24 16.85c-2.84,13.56 -10.16,24.73 -10.09,40.2 -5.21,-5.68 -21.89,-74.81 -25.12,-88.49 -2.51,-10.59 -7.54,-42.04 -9.64,-48.87 -1.4,-4.59 -2.23,-5.22 -3.8,-10 -2.27,-6.92 -8.8,-27.5 -11.87,-30.86 1.64,-15.4 3.02,-30.81 -6.03,-29.4 -3.4,0.53 0.24,1.16 -2.52,0.65 -1.75,-0.32 -1.23,-0.6 -3.07,-2.46 3.01,-13.06 4.41,-13.62 -7.01,-23.1 -1.54,-1.27 -1.58,-1.83 -3.31,-3.71 -3.8,-4.15 -4.96,-2.15 -5.11,-9.87 5.11,2.4 8.02,0.32 12.29,0.24 0.57,-8.6 -2.58,-15.73 -4.82,-20.67 -5.46,-6.3 0.11,11.81 -14.85,-14.89l-3.76 -8.55c2.42,-0.04 4.65,-0.32 7.08,-0.36 0.4,-6.07 0.04,-6.72 -0.55,-11.3l12.24 -2.15c4.45,-1.69 8.84,-6.07 13.27,-6.15 -1.91,-9.18 -14.07,-8.61 -21.62,-12.04 -5.55,-2.52 -4.53,-0.07 -7.13,-0.52l-14.16 -5.69c-9.62,-6.46 -18.52,-37.14 -30.36,-48.45 -4.24,-4.06 -27.3,-14.2 -33.12,-16.34 -4.99,-1.83 -8.65,1.52 -11.21,8.22 -3.33,8.71 -1.1,16.07 0.39,25.83 2.35,15.44 7.64,19.95 14.17,39.85 2.2,6.72 4.59,13.39 6.95,19.36l27.99 81.66c6.17,20.56 12.24,44.17 19.22,63.22l6.63 19.79c1.53,5 2.1,5.62 3.74,10.08 6.02,16.44 8.06,26.95 17.76,51.63 3,7.64 2.69,12.12 6.05,20.54 3.66,9.15 5.22,17.72 9.03,25.62 4.21,8.72 4.82,16.77 8.47,26.35 6.95,18.26 25.11,76.67 28.66,95.82 -4.4,11.69 -16.03,57.82 -19.26,64.5 -4.75,9.81 -2.75,10.54 -6.23,22.16l-6.58 20.95c-2.27,7.88 -4.27,14.84 -6.3,21.9 -2.23,7.74 -3.98,13.85 -6.31,21.89 -6.54,22.58 -11.52,45.54 -18.83,68.35 -2.51,7.85 -1.25,2.26 -2.27,11.81l-1.54 6.24c-0.09,0.23 -0.29,0.61 -0.37,0.84 -0.09,0.22 -0.26,0.64 -0.34,0.86l-10.73 38.95c-0.69,3.01 -0.69,4.09 -1.46,7.05 -2.04,7.94 -4.11,9.91 -6.58,20.97l-24.55 92.11c-5.59,21.12 -12.58,42.21 -16.93,64.72 -0.94,4.81 -1.09,2.46 -2.35,6.71 -2.49,8.42 -3.16,18.12 -5.92,25.6 -1.61,4.36 -1.98,5.38 -2.97,11.6 -2.18,13.62 -3.61,13.41 -6.58,23.37 -5.24,17.62 -9.69,47.35 -17,71.97 -2.3,7.76 -3.22,20.05 -5.39,27.24 -5.14,16.98 -4.26,22.98 -11.41,47.73 -3.31,11.45 -2.92,9.54 -5.27,25.32 -1.62,10.91 -4.7,11.33 -6.14,24.79l7.33 -16.37c2.64,-6.24 5.1,-11.37 6.98,-19.43 3.5,-14.98 9.27,-26.36 13.4,-41.16 1.36,-4.88 3.12,-13.84 4.34,-18.88 4.4,-18.19 7.78,-25.88 13.16,-50.46 0.85,-3.89 1.72,-3.48 2.58,-8.42 0.64,-3.74 -0.19,-2.26 1.07,-6.67 1.49,-5.23 1.05,-2.15 2.65,-7.75l7.38 -27.86c1.81,-5.54 3.59,-9.94 5.33,-15.62 4.08,-13.36 7.61,-32.19 12.71,-43.42 2.65,-5.84 6.98,-26.17 13.01,-42.46 1.56,-4.21 3.27,-11.67 4.85,-17.18 0.98,-3.38 1.49,-5.44 2.46,-8.5l27.09 -88.47c1.5,-5.83 2.25,-12.83 4.07,-19.76 3.45,-13.11 6.74,-22.03 10.66,-33.6 1.86,-5.49 3.42,-10.28 5.38,-15.45l11.36 -31.44c2.9,-9.83 1.62,-11.16 0.54,-19.43 14.96,-29.8 9.66,-23.94 15.59,-38.67l13.75 -30.5c2.67,-5.7 13.37,-27.6 14.03,-32l-2.52 -1.18 1.88 -17.53c4.69,-0.4 11.88,-10.7 15,-16.9 9.87,17.64 19.28,37.76 28.37,57.1 6.72,14.29 14.4,29.82 19.78,45.95 2.04,6.14 3.56,11.14 8,13.44l2.45 -7.2c0.03,-0.11 0.08,-0.56 0.17,-0.78 5.75,5.8 8.8,22.88 12.03,33.66 1.64,5.5 1.77,8.56 3.53,13.36 5.74,15.68 10.86,30.44 16.91,45.24 6.11,14.92 12.07,28.44 17.84,44l17.42 44.56c2.94,7.33 5.48,13.88 8.64,21.63 3.54,8.69 5.39,14.3 8.29,23.59 2.74,8.78 6.12,13.09 9.07,21.05 2.56,6.89 0.42,4.43 3.77,11.54l13.82 32.79c2.69,5.91 1.13,5.7 3.48,11.93l21.68 53.35c1.28,1.37 1.92,1.06 1.3,-2.77 -0.85,-5.17 -2.49,-8.62 -4.27,-12.23 -3.31,-6.7 -3.71,-10.44 -6.36,-17.13l-15.43 -42.69c-1.43,-4.23 -2.02,-5.14 -3.42,-9.01l-56.95 -154.53c-3.92,-10.52 -9.65,-23.6 -11.84,-35.42z"/>
 </g>
</svg>
