<?xml version="1.0" encoding="UTF-8"?>
<!DOCTYPE svg PUBLIC "-//W3C//DTD SVG 1.1//EN" "http://www.w3.org/Graphics/SVG/1.1/DTD/svg11.dtd">
<!-- Creator: CorelDRAW (Versión de evaluación) -->
<svg xmlns="http://www.w3.org/2000/svg" xml:space="preserve" width="518px" height="2062px" version="1.1" style="shape-rendering:geometricPrecision; text-rendering:geometricPrecision; image-rendering:optimizeQuality; fill-rule:evenodd; clip-rule:evenodd"
viewBox="0 0 518 2061.2"
 xmlns:xlink="http://www.w3.org/1999/xlink"
 xmlns:xodm="http://www.corel.com/coreldraw/odm/2003">
 <defs>
  <style type="text/css">
   <![CDATA[
    .str0 {stroke:#ED3237;stroke-width:2;stroke-miterlimit:22.9256}
    .fil2 {fill:#4B4B4D}
    .fil3 {fill:#ED3237}
    .fil0 {fill:#F2E6C9}
    .fil1 {fill:#FAFAF7}
   ]]>
  </style>
 </defs>
 <g id="extraction">
  <metadata id="CorelCorpID_0Corel-Layer"/>
  <polygon id="root" class="fil0" points="348.67,26 352.27,26 352.27,29.6 355.87,29.6 355.87,36.8 359.47,36.8 359.47,43.99 363.06,43.99 363.06,58.38 366.66,58.38 366.66,79.96 370.26,79.96 370.26,180.68 366.66,180.68 366.66,231.05 363.06,231.05 363.06,295.8 359.47,295.8 359.47,468.46 363.06,468.46 363.06,493.64 366.66,493.64 366.66,540.41 370.26,540.41 370.26,576.38 373.85,576.38 373.85,612.35 377.45,612.35 377.45,648.32 381.05,648.32 381.05,677.1 384.65,677.1 384.65,698.68 388.24,698.68 388.24,731.06 391.84,731.06 391.84,763.43 395.44,763.43 395.44,799.41 399.03,799.41 399.03,828.18 402.63,828.18 402.63,882.14 406.23,882.14 406.23,892.93 409.82,892.93 409.82,961.28 413.42,961.28 413.42,1000.85 417.02,1000.85 417.02,1087.18 420.62,1087.18 420.62,1184.31 424.21,1184.31 424.21,1220.28 427.81,1220.28 427.81,1331.79 431.41,1331.79 431.41,1382.16 427.81,1382.16 427.81,1374.96 424.21,1374.96 424.21,1364.17 420.62,1364.17 420.62,1356.97 417.02,1356.97 417.02,1349.78 413.42,1349.78 413.42,1342.58 409.82,1342.58 409.82,1331.79 406.23,1331.79 406.23,1324.6 402.63,1324.6 402.63,1317.41 399.03,1317.41 399.03,1313.81 395.44,1313.81 395.44,1306.61 391.84,1306.61 391.84,1303.02 388.24,1303.02 388.24,1295.82 384.65,1295.82 384.65,1292.22 381.05,1292.22 381.05,1285.03 377.45,1285.03 377.45,1281.43 373.85,1281.43 373.85,1277.83 370.26,1277.83 370.26,1274.24 366.66,1274.24 366.66,1270.64 363.06,1270.64 363.06,1267.04 359.47,1267.04 359.47,1263.45 355.87,1263.45 355.87,1259.85 348.67,1259.85 348.67,1256.25 345.07,1256.25 345.07,1252.66 341.48,1252.66 341.48,1249.06 334.28,1249.06 334.28,1245.46 327.09,1245.46 327.09,1241.86 319.9,1241.86 319.9,1238.27 312.7,1238.27 312.7,1234.67 301.91,1234.67 301.91,1231.07 287.52,1231.07 287.52,1227.48 247.95,1227.48 247.95,1231.07 233.56,1231.07 233.56,1234.67 222.77,1234.67 222.77,1238.27 211.98,1238.27 211.98,1241.86 204.78,1241.86 204.78,1245.46 197.59,1245.46 197.59,1249.06 190.4,1249.06 190.4,1252.66 186.8,1252.66 186.8,1256.25 179.6,1256.25 179.6,1259.85 176.01,1259.85 176.01,1263.45 172.41,1263.45 172.41,1267.04 168.81,1267.04 168.81,1270.64 165.21,1270.64 165.21,1274.24 161.62,1274.24 161.62,1277.83 158.02,1277.83 158.02,1281.43 154.42,1281.43 154.42,1285.03 150.82,1285.03 150.82,1288.63 147.23,1288.63 147.23,1292.22 143.63,1292.22 143.63,1295.82 140.03,1295.82 140.03,1303.02 136.44,1303.02 136.44,1310.21 132.84,1310.21 132.84,1313.81 129.25,1313.81 129.25,1317.41 125.65,1317.41 125.65,1324.6 122.05,1324.6 122.05,1328.2 118.45,1328.2 118.45,1335.39 114.85,1335.39 114.85,1342.58 111.26,1342.58 111.26,1349.78 107.66,1349.78 107.66,1356.97 104.06,1356.97 104.06,1364.17 100.46,1364.17 100.46,1367.77 96.87,1367.77 96.87,1374.96 93.27,1374.96 93.27,1385.75 89.67,1385.75 89.67,1392.95 86.08,1392.95 86.08,1403.74 82.48,1403.74 82.48,1414.53 78.88,1414.53 78.88,1421.72 75.29,1421.72 75.29,1428.92 71.69,1428.92 71.69,1403.74 75.29,1403.74 75.29,1353.38 78.88,1353.38 78.88,1281.43 82.48,1281.43 82.48,1231.07 86.08,1231.07 86.08,1187.91 89.67,1187.91 89.67,1133.95 93.27,1133.95 93.27,1054.81 96.87,1054.81 96.87,979.27 100.46,979.27 100.46,950.49 104.06,950.49 104.06,903.72 107.66,903.72 107.66,846.17 111.26,846.17 111.26,806.6 114.85,806.6 114.85,759.84 118.45,759.84 118.45,731.06 122.05,731.06 122.05,698.68 125.65,698.68 125.65,677.1 129.25,677.1 129.25,655.52 132.84,655.52 132.84,637.53 136.44,637.53 136.44,608.75 140.03,608.75 140.03,590.77 143.63,590.77 143.63,576.38 147.23,576.38 147.23,558.39 150.82,558.39 150.82,540.41 154.42,540.41 154.42,526.02 158.02,526.02 158.02,508.03 161.62,508.03 161.62,490.05 165.21,490.05 165.21,475.66 168.81,475.66 168.81,457.67 172.41,457.67 172.41,439.68 176.01,439.68 176.01,425.3 179.6,425.3 179.6,414.5 183.2,414.5 183.2,400.11 186.8,400.11 186.8,382.13 190.4,382.13 190.4,371.34 193.99,371.34 193.99,353.35 197.59,353.35 197.59,346.16 201.19,346.16 201.19,331.77 204.78,331.77 204.78,313.78 208.38,313.78 208.38,302.99 211.98,302.99 211.98,288.6 215.57,288.6 215.57,277.81 219.17,277.81 219.17,267.02 222.77,267.02 222.77,256.22 226.37,256.22 226.37,241.84 229.96,241.84 229.96,231.05 233.56,231.05 233.56,216.66 237.16,216.66 237.16,209.46 240.76,209.46 240.76,195.07 244.36,195.07 244.36,184.28 247.95,184.28 247.95,173.49 251.55,173.49 251.55,162.7 255.15,162.7 255.15,155.5 258.74,155.5 258.74,144.71 262.34,144.71 262.34,133.92 265.94,133.92 265.94,126.72 269.53,126.72 269.53,115.93 273.13,115.93 273.13,108.74 276.73,108.74 276.73,101.55 280.32,101.55 280.32,94.35 283.92,94.35 283.92,87.16 287.52,87.16 287.52,79.96 291.12,79.96 291.12,72.77 294.71,72.77 294.71,65.57 298.31,65.57 298.31,61.97 301.91,61.97 301.91,54.78 305.51,54.78 305.51,51.18 309.11,51.18 309.11,43.99 312.7,43.99 312.7,40.39 316.3,40.39 316.3,36.8 319.9,36.8 319.9,33.2 323.49,33.2 323.49,29.6 330.69,29.6 330.69,26 334.28,26 334.28,22.41 348.67,22.41 "/>
  <polygon id="crown" class="fil1" points="280.32,1245.46 294.71,1245.46 294.71,1249.06 305.51,1249.06 305.51,1252.66 312.7,1252.66 312.7,1256.25 319.9,1256.25 319.9,1259.85 323.49,1259.85 323.49,1263.45 330.69,1263.45 330.69,1267.04 334.28,1267.04 334.28,1270.64 341.48,1270.64 341.48,1274.24 345.07,1274.24 345.07,1277.83 348.67,1277.83 348.67,1281.43 352.27,1281.43 352.27,1285.03 355.87,1285.03 355.87,1292.22 359.47,1292.22 359.47,1295.82 363.06,1295.82 363.06,1299.42 366.66,1299.42 366.66,1303.02 370.26,1303.02 370.26,1310.21 373.85,1310.21 373.85,1313.81 377.45,1313.81 377.45,1321 381.05,1321 381.05,1328.2 384.65,1328.2 384.65,1331.79 388.24,1331.79 388.24,1338.99 391.84,1338.99 391.84,1346.18 395.44,1346.18 395.44,1353.38 399.03,1353.38 399.03,1364.17 402.63,1364.17 402.63,1371.37 406.23,1371.37 406.23,1382.16 409.82,1382.16 409.82,1392.95 413.42,1392.95 413.42,1400.14 417.02,1400.14 417.02,1410.93 420.62,1410.93 420.62,1425.32 424.21,1425.32 424.21,1432.52 427.81,1432.52 427.81,1443.31 431.41,1443.31 431.41,1454.1 435.01,1454.1 435.01,1472.08 438.6,1472.08 438.6,1490.07 442.2,1490.07 442.2,1504.46 445.8,1504.46 445.8,1518.85 449.4,1518.85 449.4,1533.24 452.99,1533.24 452.99,1547.63 456.59,1547.63 456.59,1554.82 460.19,1554.82 460.19,1569.21 463.78,1569.21 463.78,1587.2 467.38,1587.2 467.38,1597.99 470.98,1597.99 470.98,1612.38 474.57,1612.38 474.57,1623.17 478.17,1623.17 478.17,1637.56 481.77,1637.56 481.77,1655.54 485.37,1655.54 485.37,1666.33 488.96,1666.33 488.96,1684.32 492.56,1684.32 492.56,1705.91 496.16,1705.91 496.16,1785.04 492.56,1785.04 492.56,1806.63 488.96,1806.63 488.96,1824.62 485.37,1824.62 485.37,1835.41 481.77,1835.41 481.77,1842.6 478.17,1842.6 478.17,1853.39 474.57,1853.39 474.57,1860.58 470.98,1860.58 470.98,1867.78 467.38,1867.78 467.38,1874.97 463.78,1874.97 463.78,1882.17 460.19,1882.17 460.19,1889.36 456.59,1889.36 456.59,1892.96 452.99,1892.96 452.99,1896.56 449.4,1896.56 449.4,1903.75 445.8,1903.75 445.8,1907.35 442.2,1907.35 442.2,1910.94 438.6,1910.94 438.6,1914.54 435.01,1914.54 435.01,1918.14 431.41,1918.14 431.41,1921.74 427.81,1921.74 427.81,1925.33 424.21,1925.33 424.21,1928.93 420.62,1928.93 420.62,1932.53 417.02,1932.53 417.02,1936.13 409.82,1936.13 409.82,1939.73 406.23,1939.73 406.23,1943.32 402.63,1943.32 402.63,1946.92 399.03,1946.92 399.03,1950.52 395.44,1950.52 395.44,1954.11 388.24,1954.11 388.24,1957.71 384.65,1957.71 384.65,1961.31 381.05,1961.31 381.05,1964.9 373.85,1964.9 373.85,1968.5 370.26,1968.5 370.26,1972.1 366.66,1972.1 366.66,1975.69 359.47,1975.69 359.47,1979.29 355.87,1979.29 355.87,1982.89 352.27,1982.89 352.27,1986.49 345.07,1986.49 345.07,1990.08 341.48,1990.08 341.48,1993.68 337.88,1993.68 337.88,1997.28 330.69,1997.28 330.69,2000.88 327.09,2000.88 327.09,2004.48 323.49,2004.48 323.49,2008.07 316.3,2008.07 316.3,2011.67 309.11,2011.67 309.11,2015.27 305.51,2015.27 305.51,2018.86 298.31,2018.86 298.31,2022.46 294.71,2022.46 294.71,2026.06 287.52,2026.06 287.52,2029.65 280.32,2029.65 280.32,2033.25 273.13,2033.25 273.13,2036.85 240.76,2036.85 240.76,2033.25 229.96,2033.25 229.96,2029.65 222.77,2029.65 222.77,2026.06 215.57,2026.06 215.57,2022.46 211.98,2022.46 211.98,2018.86 208.38,2018.86 208.38,2015.27 201.19,2015.27 201.19,2011.67 197.59,2011.67 197.59,2008.07 193.99,2008.07 193.99,2004.48 186.8,2004.48 186.8,2000.88 183.2,2000.88 183.2,1997.28 179.6,1997.28 179.6,1993.68 172.41,1993.68 172.41,1990.08 168.81,1990.08 168.81,1986.49 165.21,1986.49 165.21,1982.89 161.62,1982.89 161.62,1979.29 154.42,1979.29 154.42,1975.69 150.82,1975.69 150.82,1972.1 143.63,1972.1 143.63,1968.5 140.03,1968.5 140.03,1964.9 136.44,1964.9 136.44,1961.31 129.25,1961.31 129.25,1957.71 125.65,1957.71 125.65,1954.11 118.45,1954.11 118.45,1950.52 114.85,1950.52 114.85,1946.92 111.26,1946.92 111.26,1943.32 104.06,1943.32 104.06,1939.73 100.46,1939.73 100.46,1936.13 96.87,1936.13 96.87,1932.53 93.27,1932.53 93.27,1928.93 89.67,1928.93 89.67,1925.33 82.48,1925.33 82.48,1921.74 78.88,1921.74 78.88,1918.14 75.29,1918.14 75.29,1914.54 71.69,1914.54 71.69,1910.94 68.09,1910.94 68.09,1907.35 64.49,1907.35 64.49,1903.75 60.9,1903.75 60.9,1896.56 57.3,1896.56 57.3,1892.96 53.7,1892.96 53.7,1889.36 50.11,1889.36 50.11,1882.17 46.51,1882.17 46.51,1874.97 42.91,1874.97 42.91,1867.78 39.31,1867.78 39.31,1860.58 35.71,1860.58 35.71,1853.39 32.12,1853.39 32.12,1846.2 28.52,1846.2 28.52,1824.62 24.92,1824.62 24.92,1716.7 28.52,1716.7 28.52,1691.52 32.12,1691.52 32.12,1666.33 35.71,1666.33 35.71,1651.95 39.31,1651.95 39.31,1623.17 42.91,1623.17 42.91,1601.58 46.51,1601.58 46.51,1583.6 50.11,1583.6 50.11,1572.81 53.7,1572.81 53.7,1547.63 57.3,1547.63 57.3,1533.24 60.9,1533.24 60.9,1518.85 64.49,1518.85 64.49,1504.46 68.09,1504.46 68.09,1490.07 71.69,1490.07 71.69,1482.88 75.29,1482.88 75.29,1472.08 78.88,1472.08 78.88,1457.7 82.48,1457.7 82.48,1450.5 86.08,1450.5 86.08,1439.71 89.67,1439.71 89.67,1432.52 93.27,1432.52 93.27,1421.72 96.87,1421.72 96.87,1414.53 100.46,1414.53 100.46,1403.74 104.06,1403.74 104.06,1396.54 107.66,1396.54 107.66,1389.35 111.26,1389.35 111.26,1378.56 114.85,1378.56 114.85,1371.37 118.45,1371.37 118.45,1367.77 122.05,1367.77 122.05,1360.57 125.65,1360.57 125.65,1353.38 129.25,1353.38 129.25,1346.18 132.84,1346.18 132.84,1338.99 136.44,1338.99 136.44,1331.79 140.03,1331.79 140.03,1328.2 143.63,1328.2 143.63,1324.6 147.23,1324.6 147.23,1317.41 150.82,1317.41 150.82,1313.81 154.42,1313.81 154.42,1306.61 158.02,1306.61 158.02,1303.02 161.62,1303.02 161.62,1299.42 165.21,1299.42 165.21,1292.22 168.81,1292.22 168.81,1288.63 172.41,1288.63 172.41,1285.03 176.01,1285.03 176.01,1281.43 179.6,1281.43 179.6,1277.83 183.2,1277.83 183.2,1274.24 190.4,1274.24 190.4,1270.64 193.99,1270.64 193.99,1267.04 201.19,1267.04 201.19,1263.45 204.78,1263.45 204.78,1259.85 211.98,1259.85 211.98,1256.25 219.17,1256.25 219.17,1252.66 226.37,1252.66 226.37,1249.06 233.56,1249.06 233.56,1245.46 244.36,1245.46 244.36,1241.86 280.32,1241.86 "/>
  <path id="outline" class="fil2" d="M496.16 1705.91l-3.6 0 0 -21.59 -3.6 0 0 -17.99 -3.59 0 0 -10.79 -3.6 0 0 -17.98 -3.6 0 0 -14.39 -3.6 0 0 -10.79 -3.59 0 0 -14.39 -3.6 0 0 -10.79 -3.6 0 0 -17.99 -3.59 0 0 -14.39 -3.6 0 0 -7.19 -3.6 0 0 -14.39 -3.59 0 0 -14.39 -3.6 0 0 -14.39 -3.6 0 0 -14.39 -3.6 0 0 -17.99 -3.59 0 0 -17.98 -3.6 0 0 -10.79 -3.6 0 0 -10.79 -3.6 0 0 -7.2 -3.59 0 0 -14.39 -3.6 0 0 -10.79 -3.6 0 0 -7.19 -3.6 0 0 -10.79 -3.59 0 0 -10.79 -3.6 0 0 -7.2 -3.6 0 0 -10.79 -3.59 0 0 -7.2 -3.6 0 0 -7.19 -3.6 0 0 -7.2 -3.59 0 0 -3.59 -3.6 0 0 -7.2 -3.6 0 0 -7.19 -3.6 0 0 -3.6 -3.59 0 0 -7.19 -3.6 0 0 -3.6 -3.6 0 0 -3.6 -3.59 0 0 -3.6 -3.6 0 0 -7.19 -3.6 0 0 -3.6 -3.6 0 0 -3.6 -3.6 0 0 -3.59 -3.59 0 0 -3.6 -7.2 0 0 -3.6 -3.59 0 0 -3.59 -7.2 0 0 -3.6 -3.59 0 0 -3.6 -7.2 0 0 -3.59 -7.19 0 0 -3.6 -10.8 0 0 -3.6 -14.39 0 0 -3.6 -35.96 0 0 3.6 -10.8 0 0 3.6 -7.19 0 0 3.6 -7.2 0 0 3.59 -7.19 0 0 3.6 -7.2 0 0 3.6 -3.59 0 0 3.59 -7.2 0 0 3.6 -3.59 0 0 3.6 -7.2 0 0 3.59 -3.6 0 0 3.6 -3.59 0 0 3.6 -3.6 0 0 3.6 -3.6 0 0 3.59 -3.6 0 0 7.2 -3.59 0 0 3.6 -3.6 0 0 3.59 -3.6 0 0 7.2 -3.6 0 0 3.6 -3.59 0 0 7.19 -3.6 0 0 3.6 -3.6 0 0 3.59 -3.59 0 0 7.2 -3.6 0 0 7.19 -3.59 0 0 7.2 -3.6 0 0 7.19 -3.6 0 0 7.2 -3.6 0 0 3.6 -3.6 0 0 7.19 -3.59 0 0 10.79 -3.6 0 0 7.19 -3.6 0 0 7.2 -3.6 0 0 10.79 -3.59 0 0 7.19 -3.6 0 0 10.8 -3.6 0 0 7.19 -3.59 0 0 10.79 -3.6 0 0 7.2 -3.6 0 0 14.38 -3.59 0 0 10.8 -3.6 0 0 7.19 -3.6 0 0 14.39 -3.6 0 0 14.39 -3.59 0 0 14.39 -3.6 0 0 14.39 -3.6 0 0 25.18 -3.59 0 0 10.79 -3.6 0 0 17.98 -3.6 0 0 21.59 -3.6 0 0 28.78 -3.6 0 0 14.38 -3.59 0 0 25.19 -3.6 0 0 25.18 -3.6 0 0 107.92 3.6 0 0 21.58 3.6 0 0 7.19 3.59 0 0 7.19 3.6 0 0 7.2 3.6 0 0 7.19 3.6 0 0 7.2 3.6 0 0 7.19 3.59 0 0 3.6 3.6 0 0 3.6 3.6 0 0 7.19 3.59 0 0 3.6 3.6 0 0 3.59 3.6 0 0 3.6 3.6 0 0 3.6 3.59 0 0 3.6 3.6 0 0 3.59 7.19 0 0 3.6 3.6 0 0 3.6 3.6 0 0 3.6 3.59 0 0 3.6 3.6 0 0 3.59 7.2 0 0 3.6 3.59 0 0 3.6 3.6 0 0 3.59 7.2 0 0 3.6 3.6 0 0 3.6 7.19 0 0 3.59 3.59 0 0 3.6 3.6 0 0 3.6 7.19 0 0 3.59 3.6 0 0 3.6 7.2 0 0 3.6 3.59 0 0 3.6 3.6 0 0 3.59 3.6 0 0 3.6 7.19 0 0 3.6 3.6 0 0 3.6 3.6 0 0 3.6 7.19 0 0 3.59 3.6 0 0 3.6 3.6 0 0 3.6 7.19 0 0 3.59 3.6 0 0 3.6 3.59 0 0 3.6 7.2 0 0 3.59 7.19 0 0 3.6 10.8 0 0 3.6 32.37 0 0 -3.6 7.19 0 0 -3.6 7.2 0 0 -3.59 7.19 0 0 -3.6 3.6 0 0 -3.6 7.2 0 0 -3.59 3.6 0 0 -3.6 7.19 0 0 -3.6 7.19 0 0 -3.59 3.6 0 0 -3.6 3.6 0 0 -3.6 7.19 0 0 -3.6 3.6 0 0 -3.6 3.59 0 0 -3.59 7.2 0 0 -3.6 3.6 0 0 -3.6 3.6 0 0 -3.6 7.19 0 0 -3.59 3.6 0 0 -3.6 3.59 0 0 -3.6 7.2 0 0 -3.59 3.6 0 0 -3.6 3.59 0 0 -3.6 7.2 0 0 -3.59 3.59 0 0 -3.6 3.6 0 0 -3.6 3.6 0 0 -3.59 3.59 0 0 -3.6 7.2 0 0 -3.6 3.6 0 0 -3.6 3.59 0 0 -3.6 3.6 0 0 -3.59 3.6 0 0 -3.6 3.6 0 0 -3.6 3.59 0 0 -3.6 3.6 0 0 -3.59 3.6 0 0 -3.6 3.6 0 0 -7.19 3.59 0 0 -3.6 3.6 0 0 -3.6 3.6 0 0 -7.19 3.59 0 0 -7.2 3.6 0 0 -7.19 3.6 0 0 -7.2 3.59 0 0 -7.19 3.6 0 0 -10.79 3.6 0 0 -7.19 3.6 0 0 -10.79 3.59 0 0 -17.99 3.6 0 0 -21.59 3.6 0 0 -79.13zm-125.9 -1625.95l-3.6 0 0 -21.58 -3.6 0 0 -14.39 -3.59 0 0 -7.19 -3.6 0 0 -7.2 -3.6 0 0 -3.6 -3.6 0 0 -3.59 -14.39 0 0 3.59 -3.59 0 0 3.6 -7.2 0 0 3.6 -3.59 0 0 3.6 -3.6 0 0 3.59 -3.6 0 0 3.6 -3.59 0 0 7.19 -3.6 0 0 3.6 -3.6 0 0 7.19 -3.6 0 0 3.6 -3.6 0 0 7.2 -3.59 0 0 7.19 -3.6 0 0 7.2 -3.6 0 0 7.19 -3.6 0 0 7.2 -3.59 0 0 7.19 -3.6 0 0 7.19 -3.6 0 0 10.79 -3.59 0 0 7.2 -3.6 0 0 10.79 -3.6 0 0 10.79 -3.59 0 0 7.2 -3.6 0 0 10.79 -3.6 0 0 10.79 -3.59 0 0 10.79 -3.6 0 0 14.39 -3.6 0 0 7.2 -3.6 0 0 14.39 -3.6 0 0 10.79 -3.59 0 0 14.38 -3.6 0 0 10.8 -3.6 0 0 10.79 -3.6 0 0 10.79 -3.59 0 0 14.39 -3.6 0 0 10.79 -3.6 0 0 17.99 -3.59 0 0 14.39 -3.6 0 0 7.19 -3.6 0 0 17.99 -3.59 0 0 10.79 -3.6 0 0 17.98 -3.6 0 0 14.39 -3.6 0 0 10.8 -3.59 0 0 14.38 -3.6 0 0 17.99 -3.6 0 0 17.99 -3.6 0 0 14.39 -3.59 0 0 17.98 -3.6 0 0 17.99 -3.6 0 0 14.39 -3.6 0 0 17.98 -3.59 0 0 17.99 -3.6 0 0 14.39 -3.6 0 0 17.98 -3.59 0 0 28.78 -3.6 0 0 17.99 -3.59 0 0 21.58 -3.6 0 0 21.58 -3.6 0 0 32.38 -3.6 0 0 28.78 -3.6 0 0 46.76 -3.59 0 0 39.57 -3.6 0 0 57.55 -3.6 0 0 46.77 -3.6 0 0 28.78 -3.59 0 0 75.54 -3.6 0 0 79.14 -3.6 0 0 53.96 -3.59 0 0 43.16 -3.6 0 0 50.36 -3.6 0 0 71.95 -3.59 0 0 50.36 -3.6 0 0 25.18 3.6 0 0 -7.2 3.59 0 0 -7.19 3.6 0 0 -10.79 3.6 0 0 -10.79 3.59 0 0 -7.2 3.6 0 0 -10.79 3.6 0 0 -7.19 3.59 0 0 -3.6 3.6 0 0 -7.2 3.6 0 0 -7.19 3.6 0 0 -7.2 3.59 0 0 -7.19 3.6 0 0 -7.19 3.6 0 0 -3.6 3.6 0 0 -7.19 3.6 0 0 -3.6 3.59 0 0 -3.6 3.6 0 0 -7.19 3.59 0 0 -7.2 3.6 0 0 -3.6 3.6 0 0 -3.59 3.59 0 0 -3.6 3.6 0 0 -3.6 3.6 0 0 -3.6 3.6 0 0 -3.59 3.59 0 0 -3.6 3.6 0 0 -3.6 3.6 0 0 -3.59 3.6 0 0 -3.6 3.59 0 0 -3.6 7.2 0 0 -3.59 3.6 0 0 -3.6 7.19 0 0 -3.6 7.19 0 0 -3.6 7.2 0 0 -3.59 10.79 0 0 -3.6 10.79 0 0 -3.6 14.39 0 0 -3.59 39.57 0 0 3.59 14.39 0 0 3.6 10.79 0 0 3.6 7.2 0 0 3.59 7.19 0 0 3.6 7.19 0 0 3.6 7.2 0 0 3.6 3.59 0 0 3.59 3.6 0 0 3.6 7.2 0 0 3.6 3.6 0 0 3.59 3.59 0 0 3.6 3.6 0 0 3.6 3.6 0 0 3.59 3.59 0 0 3.6 3.6 0 0 3.6 3.6 0 0 7.19 3.6 0 0 3.6 3.59 0 0 7.2 3.6 0 0 3.59 3.6 0 0 7.2 3.59 0 0 3.6 3.6 0 0 7.19 3.6 0 0 7.19 3.59 0 0 10.79 3.6 0 0 7.2 3.6 0 0 7.19 3.6 0 0 7.2 3.59 0 0 10.79 3.6 0 0 7.2 3.6 0 0 -50.37 -3.6 0 0 -111.51 -3.6 0 0 -35.97 -3.59 0 0 -97.13 -3.6 0 0 -86.33 -3.6 0 0 -39.57 -3.6 0 0 -68.35 -3.59 0 0 -10.79 -3.6 0 0 -53.96 -3.6 0 0 -28.77 -3.59 0 0 -35.98 -3.6 0 0 -32.37 -3.6 0 0 -32.38 -3.59 0 0 -21.58 -3.6 0 0 -28.78 -3.6 0 0 -35.97 -3.6 0 0 -35.97 -3.59 0 0 -35.97 -3.6 0 0 -46.77 -3.6 0 0 -25.18 -3.59 0 0 -172.66 3.59 0 0 -64.75 3.6 0 0 -50.37 3.6 0 0 -100.72zm-14.39 -75.54l7.19 0 0 3.6 3.6 0 0 3.59 3.6 0 0 3.6 3.59 0 0 7.2 3.6 0 0 7.19 3.6 0 0 7.2 3.6 0 0 10.79 3.59 0 0 17.98 3.6 0 0 143.89 -3.6 0 0 25.18 -3.59 0 0 233.82 3.59 0 0 50.36 3.6 0 0 50.36 3.6 0 0 32.38 3.59 0 0 28.78 3.6 0 0 39.57 3.6 0 0 28.77 3.59 0 0 35.98 3.6 0 0 17.98 3.6 0 0 43.17 3.6 0 0 21.58 3.59 0 0 32.38 3.6 0 0 50.36 3.6 0 0 35.97 3.6 0 0 57.56 3.59 0 0 57.55 3.6 0 0 53.96 3.6 0 0 122.31 3.6 0 0 75.54 3.59 0 0 75.54 3.6 0 0 68.35 3.6 0 0 28.77 3.59 0 0 14.39 3.6 0 0 17.99 3.6 0 0 10.79 3.59 0 0 14.39 3.6 0 0 17.98 3.6 0 0 14.4 3.6 0 0 3.59 3.59 0 0 17.99 3.6 0 0 10.79 3.6 0 0 17.98 3.6 0 0 14.4 3.6 0 0 14.38 3.59 0 0 14.39 3.6 0 0 17.99 3.6 0 0 17.98 3.59 0 0 97.13 -3.59 0 0 17.98 -3.6 0 0 21.59 -3.6 0 0 7.19 -3.59 0 0 10.79 -3.6 0 0 7.2 -3.6 0 0 10.79 -3.6 0 0 7.19 -3.6 0 0 7.2 -3.59 0 0 7.19 -3.6 0 0 3.6 -3.6 0 0 7.19 -3.6 0 0 7.2 -3.59 0 0 3.59 -3.6 0 0 3.6 -3.6 0 0 3.6 -3.59 0 0 7.19 -3.6 0 0 3.6 -3.6 0 0 3.6 -3.59 0 0 3.6 -3.6 0 0 3.6 -3.6 0 0 3.59 -3.6 0 0 3.6 -3.59 0 0 3.6 -3.6 0 0 3.59 -7.2 0 0 3.6 -3.59 0 0 3.6 -3.6 0 0 3.59 -3.6 0 0 3.6 -3.6 0 0 3.6 -7.19 0 0 3.59 -3.6 0 0 3.6 -7.19 0 0 3.6 -3.6 0 0 3.6 -3.59 0 0 3.59 -3.6 0 0 3.6 -7.2 0 0 3.6 -3.59 0 0 3.6 -7.2 0 0 3.6 -3.59 0 0 3.59 -3.6 0 0 3.6 -7.2 0 0 3.6 -3.6 0 0 3.59 -3.59 0 0 3.6 -7.2 0 0 3.6 -3.59 0 0 3.59 -3.6 0 0 3.6 -7.19 0 0 3.6 -3.6 0 0 3.59 -7.19 0 0 3.6 -7.2 0 0 3.6 -7.2 0 0 3.6 -7.19 0 0 3.6 -7.2 0 0 3.59 -14.38 0 0 3.6 -21.58 0 0 -3.6 -14.4 0 0 -3.59 -7.19 0 0 -3.6 -7.2 0 0 -3.6 -7.19 0 0 -3.6 -3.6 0 0 -3.6 -7.19 0 0 -3.59 -3.6 0 0 -3.6 -3.59 0 0 -3.6 -7.2 0 0 -3.59 -3.6 0 0 -3.6 -7.19 0 0 -3.6 -3.6 0 0 -3.59 -3.6 0 0 -3.6 -3.59 0 0 -3.6 -7.2 0 0 -3.59 -3.6 0 0 -3.6 -3.59 0 0 -3.6 -7.2 0 0 -3.6 -3.59 0 0 -3.6 -7.19 0 0 -3.59 -3.6 0 0 -3.6 -3.6 0 0 -3.6 -3.6 0 0 -3.6 -7.19 0 0 -3.59 -3.6 0 0 -3.6 -7.2 0 0 -3.6 -3.59 0 0 -3.59 -3.6 0 0 -3.6 -3.6 0 0 -3.6 -7.19 0 0 -3.59 -3.6 0 0 -3.6 -3.59 0 0 -3.6 -3.6 0 0 -3.59 -3.6 0 0 -3.6 -7.19 0 0 -3.6 -3.6 0 0 -3.6 -3.6 0 0 -3.6 -3.59 0 0 -3.59 -3.6 0 0 -7.2 -3.6 0 0 -3.6 -3.6 0 0 -3.59 -3.6 0 0 -3.6 -3.59 0 0 -7.19 -3.6 0 0 -3.6 -3.6 0 0 -7.19 -3.59 0 0 -7.2 -3.6 0 0 -7.19 -3.6 0 0 -10.8 -3.59 0 0 -10.79 -3.6 0 0 -17.98 -3.6 0 0 -10.79 -3.59 0 0 -79.14 3.59 0 0 -35.97 3.6 0 0 -28.78 3.6 0 0 -21.59 3.59 0 0 -17.98 3.6 0 0 -25.18 3.6 0 0 -14.39 3.59 0 0 -21.58 3.6 0 0 -21.59 3.6 0 0 -21.58 3.59 0 0 -21.58 3.6 0 0 -17.99 3.6 0 0 -43.17 3.6 0 0 -28.78 3.6 0 0 -53.95 3.59 0 0 -43.17 3.6 0 0 -50.36 3.6 0 0 -61.16 3.59 0 0 -46.76 3.6 0 0 -57.55 3.6 0 0 -57.56 3.6 0 0 -86.33 3.59 0 0 -28.78 3.6 0 0 -57.55 3.6 0 0 -43.17 3.59 0 0 -43.17 3.6 0 0 -28.78 3.6 0 0 -32.37 3.59 0 0 -25.18 3.6 0 0 -32.38 3.6 0 0 -25.18 3.6 0 0 -21.58 3.59 0 0 -21.58 3.6 0 0 -21.59 3.6 0 0 -14.39 3.6 0 0 -21.58 3.6 0 0 -14.39 3.59 0 0 -21.58 3.6 0 0 -10.79 3.59 0 0 -14.39 3.6 0 0 -25.18 3.6 0 0 -14.39 3.59 0 0 -14.39 3.6 0 0 -14.39 3.6 0 0 -10.79 3.6 0 0 -17.99 3.59 0 0 -14.39 3.6 0 0 -14.38 3.6 0 0 -7.2 3.6 0 0 -14.39 3.59 0 0 -14.39 3.6 0 0 -14.39 3.6 0 0 -10.79 3.6 0 0 -17.98 3.59 0 0 -10.8 3.6 0 0 -10.79 3.6 0 0 -14.39 3.59 0 0 -14.38 3.6 0 0 -10.8 3.6 0 0 -10.79 3.59 0 0 -10.79 3.6 0 0 -10.79 3.6 0 0 -7.2 3.6 0 0 -14.38 3.59 0 0 -10.8 3.6 0 0 -10.79 3.6 0 0 -7.19 3.6 0 0 -10.8 3.6 0 0 -10.79 3.59 0 0 -7.19 3.6 0 0 -7.19 3.6 0 0 -10.8 3.59 0 0 -7.19 3.6 0 0 -7.2 3.6 0 0 -7.19 3.59 0 0 -7.2 3.6 0 0 -3.59 3.6 0 0 -7.2 3.59 0 0 -3.59 3.6 0 0 -7.2 3.6 0 0 -3.59 3.6 0 0 -7.2 3.59 0 0 -3.6 3.6 0 0 -3.59 3.6 0 0 -3.6 3.6 0 0 -3.6 3.6 0 0 -3.6 7.19 0 0 -3.59 3.6 0 0 -3.6 10.79 0 0 -3.6 25.18 0 0 3.6z"/>
  <path class="fil3 str0" d="M154.36 1247.15l1.73 -2.54 -1.73 2.54zm1.73 -2.54l0.76 -2.14 -0.76 2.14zm0.76 -2.14zm4.96 -9.37l-4.96 9.37zm4.96 -9.37c-0.37,-2.97 -3.16,-1.31 -1.23,0.5l0.37 -0.05c0.99,-0.36 1.36,3.54 0.86,-0.45zm2.05 -8.19l-0.22 0.64c0.01,-0.04 0.34,-0.5 0.22,-0.64zm8.21 -16.19c-1.27,-1.45 -3.35,4.27 -0.98,1.34 0.02,-0.02 2.97,0.94 0.98,-1.34zm48.52 -168.68zm6.48 -13.65l-6.48 13.65zm6.48 -13.65c-2.81,2.64 -0.71,-0.48 -2.5,3.17 -1.38,2.83 -1.2,1.62 -1.5,5.8 5.44,-5.12 3.56,-7.28 4,-8.97zm3.23 -6.83zm0 0zm0 0zm11.77 -28.67l-11.77 28.67zm11.77 -28.67c-3.55,1.58 -7.63,7.02 -8.73,12.59 -0.85,4.34 -0.75,0.87 -0.02,7.5 3.31,-6.27 5.94,-13.24 8.75,-20.09zm-48.16 -173.87c-0.56,-4.48 -1.58,0.34 -0.58,0.23 0.01,0 1.18,4.66 0.58,-0.23zm-39.55 430.13c-4.14,3.89 -13.15,25.06 -16.88,33.36 -8.03,17.9 -8.54,16.17 -17.18,33.01 -1.92,3.74 -4,7.87 -5.52,11.74 -2.12,5.41 -2.05,8.65 -5.44,11.84 0.28,-12.2 16.9,-48.56 21.84,-59.29l7.98 -19.45c1.49,-3.95 1.78,-5.48 3.59,-9.43l23.4 -57.5c2.49,-5.72 3.23,-3.41 3.41,-11.15 -2.34,-0.04 -2.41,-0.46 -5.09,0.21l-0.43 -3.51c4.47,-4.21 11.69,-25.02 14.51,-33.05 2.99,-8.5 4.89,-8.1 7.45,-17.06l13.72 -33.96c1.4,-3.17 1.81,-5.07 3.2,-8.37 3.02,-7.17 17.51,-37.46 17.67,-44.5 -3.35,2.91 -3.98,5.94 -6.25,8.21 -8.32,8.33 5.96,-25.06 6.71,-27.23 1.44,-4.11 2.05,-6.78 3.28,-11.29 2.22,-8.08 0.76,-18.22 5.56,-23.92 3.62,-4.31 5.31,-0.99 8.39,-0.76 0.21,-9.36 2.82,-8.47 6.47,-13.66 -4.89,-8.39 -4.78,-3.34 -4.51,-15.52 0.22,-9.67 -0.9,-16.44 -4.87,-21.86 -7.39,-10.09 -20.03,-28.37 -23.27,-45.35 -1.6,-8.36 -2.61,-19.56 -3.51,-23.94 -0.75,-3.69 -4.59,-13.25 -6.4,-19.07 -2.08,-6.73 -4.45,-14.22 -5.47,-22.4 -3.39,3.19 -1.04,2.28 -4.43,5.47 -1.16,-4.36 -4.39,-11.86 -6.08,-15.94 -2.14,-5.18 -4.73,-10.54 -7.03,-15.58 -4.92,-10.8 -12.34,-33.71 -16.47,-40.97 -4.25,-7.46 -6.1,-19.49 -8.98,-29.03 -7.41,-24.55 -17.05,-44.81 -27.15,-65.16 -4.87,-9.8 -9.05,-21.44 -14.07,-31.19 -3.2,-6.22 -4.88,-5.88 -6.58,-14.88 -0.88,-4.65 0.54,-1.82 -2.35,-7 -1.58,-2.84 -2.57,-3.97 -4.26,-7.06 -2.82,-5.17 -4.6,-10.97 -6.62,-16.77 -2.39,-6.86 -4.83,-8.63 -7.15,-15.25l-19.06 -50.22c-2.93,-7.47 -4.68,-8.76 -7.03,-15.59l-6.64 -16.73c-1.48,-3.94 -1.2,-4.55 -2.63,-9.11 -4.96,-15.81 -14.9,-32.06 -20.77,-47.72 -1.47,-3.91 -1.57,-6.14 -3.03,-10.38 -6.77,-19.65 -19.81,-20.46 -23.1,-22.29l-2.86 -5.05c-2.53,-12.19 -1.27,-35.71 3.33,-41.25 9.39,-11.32 18.47,-1.8 24.84,-1.7 5.99,-11.36 3.06,-16.41 12.51,-11.85l11.62 4.94c4.08,2.24 1.1,-2.46 4.55,6.05 3.32,8.2 4.72,6.52 8.13,14.89 2.86,7.01 2.59,11.81 6.1,18.03 3.03,5.39 5.69,8.19 8.18,14.89 7.66,20.59 12.21,25.45 15.15,32.86l14.65 36.65c3.68,12.91 9.41,24.38 14.36,35.09 2.71,5.87 4.56,13.26 7.18,19.91 2.61,6.62 5.15,10.67 6.26,17.43 1.05,6.46 4.69,11.85 7.09,18.16 14.12,37.06 26.13,78.53 42.88,110.61 6.78,12.99 10.28,17.72 15.65,33.82 7.26,21.82 17.41,45.74 23.25,69.11l9.42 30.18c1.26,4.51 1.71,6.05 3.18,9.93 1.07,2.83 3.18,7.52 3.97,10.22 2.14,7.38 0.59,6.62 2.3,12.26l3.7 10.86c0.13,0.39 0.28,0.82 0.41,1.21l4.92 16.86c3.3,13.56 11.8,24.74 11.72,40.21 6.05,-5.69 25.42,-74.82 29.18,-88.5 2.91,-10.6 8.76,-42.05 11.19,-48.89 1.62,-4.58 2.59,-5.22 4.41,-9.99 2.64,-6.93 10.22,-27.51 13.79,-30.87 -1.91,-15.4 -3.51,-30.82 7,-29.41 3.96,0.54 -0.28,1.16 2.93,0.65 2.03,-0.31 1.42,-0.59 3.57,-2.45 -3.5,-13.07 -5.12,-13.63 8.14,-23.1 1.79,-1.28 1.83,-1.84 3.84,-3.72 4.42,-4.15 5.76,-2.15 5.94,-9.86 -5.93,2.39 -9.31,0.31 -14.28,0.23 -0.66,-8.6 3,-15.73 5.61,-20.67 6.34,-6.3 -0.14,11.81 17.23,-14.89l4.38 -8.55c-2.82,-0.04 -5.41,-0.32 -8.22,-0.37 -0.47,-6.06 -0.06,-6.71 0.64,-11.3l-14.22 -2.15c-5.17,-1.68 -10.28,-6.07 -15.42,-6.15 2.23,-9.18 16.35,-8.6 25.11,-12.03 6.44,-2.53 5.27,-0.08 8.28,-0.52l16.45 -5.69c11.17,-6.47 21.51,-37.15 35.26,-48.47 4.93,-4.05 31.7,-14.2 38.47,-16.34 5.79,-1.83 10.05,1.52 13.02,8.22 3.86,8.71 1.28,16.07 -0.45,25.84 -2.74,15.44 -8.88,19.95 -16.46,39.85 -2.56,6.72 -5.34,13.39 -8.07,19.36l-32.51 81.68c-7.17,20.56 -14.22,44.17 -22.33,63.23l-7.69 19.79c-1.79,5 -2.45,5.62 -4.34,10.08 -7.01,16.44 -9.37,26.95 -20.63,51.63 -3.49,7.64 -3.13,12.13 -7.04,20.55 -4.24,9.15 -6.06,17.72 -10.48,25.62 -4.89,8.72 -5.6,16.77 -9.84,26.36 -8.07,18.25 -29.17,76.67 -33.29,95.83 5.12,11.69 18.62,57.82 22.38,64.5 5.51,9.81 3.18,10.55 7.22,22.16l7.66 20.96c2.63,7.89 4.95,14.85 7.31,21.91 2.58,7.73 4.62,13.85 7.32,21.89 7.6,22.58 13.39,45.54 21.88,68.36 2.91,7.85 1.45,2.25 2.64,11.81l1.79 6.24c0.1,0.23 0.33,0.61 0.43,0.84 0.09,0.22 0.29,0.64 0.38,0.86l12.47 38.96c0.8,3 0.8,4.08 1.69,7.05 2.38,7.94 4.78,9.91 7.65,20.97l28.51 92.12c6.49,21.12 14.61,42.22 19.67,64.73 1.08,4.81 1.26,2.46 2.72,6.71 2.9,8.42 3.67,18.12 6.88,25.61 1.86,4.36 2.29,5.37 3.45,11.59 2.53,13.62 4.19,13.41 7.63,23.38 6.1,17.62 11.26,47.35 19.75,71.97 2.68,7.77 3.74,20.06 6.27,27.25 5.96,16.98 4.95,22.99 13.25,47.73 3.84,11.45 3.38,9.55 6.11,25.33 1.89,10.91 5.47,11.33 7.14,24.79l-8.52 -16.37c-3.06,-6.24 -5.91,-11.37 -8.1,-19.43 -4.07,-14.98 -10.77,-26.37 -15.56,-41.17 -1.58,-4.87 -3.63,-13.84 -5.04,-18.87 -5.12,-18.2 -9.05,-25.9 -15.29,-50.48 -0.99,-3.89 -2,-3.48 -2.99,-8.42 -0.75,-3.74 0.21,-2.25 -1.25,-6.67 -1.74,-5.23 -1.22,-2.15 -3.08,-7.75l-8.57 -27.86c-2.1,-5.55 -4.17,-9.95 -6.18,-15.62 -4.75,-13.36 -8.85,-32.2 -14.77,-43.44 -3.08,-5.83 -8.1,-26.17 -15.11,-42.45 -1.81,-4.21 -3.8,-11.68 -5.64,-17.18 -1.13,-3.39 -1.72,-5.45 -2.85,-8.51l-31.46 -88.49c-1.75,-5.82 -2.62,-12.82 -4.74,-19.75 -4,-13.11 -7.82,-22.04 -12.37,-33.61 -2.17,-5.49 -3.98,-10.28 -6.25,-15.45l-13.2 -31.45c-3.37,-9.83 -1.87,-11.15 -0.62,-19.43 -17.38,-29.8 -11.22,-23.94 -18.11,-38.67l-15.98 -30.51c-3.09,-5.7 -15.51,-27.6 -16.28,-32l2.92 -1.18 -2.18 -17.53c-5.45,-0.4 -13.8,-10.7 -17.42,-16.9 -11.46,17.63 -22.39,37.76 -32.95,57.1 -7.81,14.29 -16.73,29.83 -22.97,45.96 -2.37,6.14 -4.14,11.14 -9.3,13.44l-2.85 -7.2c-0.03,-0.11 -0.09,-0.56 -0.19,-0.78 -6.68,5.8 -10.22,22.89 -13.97,33.67 -1.91,5.49 -2.06,8.55 -4.1,13.36 -6.67,15.67 -12.61,30.44 -19.65,45.24 -7.09,14.92 -14.01,28.44 -20.72,44.01l-20.23 44.56c-3.41,7.33 -6.36,13.88 -10.03,21.63 -4.11,8.69 -6.26,14.31 -9.62,23.6 -3.18,8.78 -7.11,13.09 -10.54,21.05 -2.98,6.9 -0.48,4.43 -4.38,11.55l-16.05 32.79c-3.13,5.91 -1.31,5.69 -4.04,11.93l-25.18 53.36c-1.49,1.37 -2.23,1.05 -1.51,-2.77 0.98,-5.17 2.89,-8.62 4.96,-12.24 3.85,-6.7 4.3,-10.44 7.39,-17.13l17.92 -42.7c1.66,-4.22 2.34,-5.13 3.97,-9l66.14 -154.56c4.55,-10.51 11.21,-23.6 13.75,-35.42z"/>
 </g>
</svg>
