<?xml version="1.0" encoding="UTF-8"?>
<!DOCTYPE svg PUBLIC "-//W3C//DTD SVG 1.1//EN" "http://www.w3.org/Graphics/SVG/1.1/DTD/svg11.dtd">
<!-- Creator: CorelDRAW (Versión de evaluación) -->
<svg xmlns="http://www.w3.org/2000/svg" xml:space="preserve" width="497px" height="2062px" version="1.1" style="shape-rendering:geometricPrecision; text-rendering:geometricPrecision; image-rendering:optimizeQuality; fill-rule:evenodd; clip-rule:evenodd"
viewBox="0 0 497 2063.64"
 xmlns:xlink="http://www.w3.org/1999/xlink"
 xmlns:xodm="http://www.corel.com/coreldraw/odm/2003">
 <defs>
  <style type="text/css">
   <![CDATA[
    .str0 {stroke:#ED3237;stroke-width:2;stroke-miterlimit:22.9256}
    .fil2 {fill:#4B4B4D}
    .fil3 {fill:#ED3237}
    .fil1 {fill:#F2E6C9}
    .fil0 {fill:#FAFAF7}
   ]]>
  </style>
 </defs>
 <g id="extraction">
  <metadata id="CorelCorpID_0Corel-Layer"/>
  <polygon id="crown" class="fil0" points="287.46,1350.96 298.27,1350.96 298.27,1354.57 305.47,1354.57 305.47,1358.17 312.67,1358.17 312.67,1361.77 319.88,1361.77 319.88,1365.37 323.47,1365.37 323.47,1368.97 330.68,1368.97 330.68,1372.57 334.28,1372.57 334.28,1376.17 337.88,1376.17 337.88,1379.78 341.48,1379.78 341.48,1383.38 345.08,1383.38 345.08,1390.58 352.29,1390.58 352.29,1397.78 355.89,1397.78 355.89,1401.39 359.49,1401.39 359.49,1408.59 363.09,1408.59 363.09,1415.79 366.69,1415.79 366.69,1419.39 370.3,1419.39 370.3,1426.59 373.9,1426.59 373.9,1433.8 377.5,1433.8 377.5,1441 381.1,1441 381.1,1448.2 384.7,1448.2 384.7,1455.41 388.3,1455.41 388.3,1462.61 391.9,1462.61 391.9,1469.81 395.51,1469.81 395.51,1477.02 399.11,1477.02 399.11,1484.22 402.71,1484.22 402.71,1495.02 406.31,1495.02 406.31,1505.83 409.91,1505.83 409.91,1513.03 413.51,1513.03 413.51,1527.44 417.12,1527.44 417.12,1541.84 420.72,1541.84 420.72,1552.65 424.32,1552.65 424.32,1563.45 427.92,1563.45 427.92,1574.26 431.52,1574.26 431.52,1588.66 435.12,1588.66 435.12,1603.07 438.73,1603.07 438.73,1613.87 442.32,1613.87 442.32,1621.07 445.93,1621.07 445.93,1639.08 449.53,1639.08 449.53,1649.89 453.13,1649.89 453.13,1664.29 456.73,1664.29 456.73,1678.7 460.33,1678.7 460.33,1693.11 463.93,1693.11 463.93,1711.11 467.54,1711.11 467.54,1729.12 471.14,1729.12 471.14,1743.53 474.74,1743.53 474.74,1819.16 471.14,1819.16 471.14,1837.16 467.54,1837.16 467.54,1847.97 463.93,1847.97 463.93,1858.77 460.33,1858.77 460.33,1865.98 456.73,1865.98 456.73,1873.18 453.13,1873.18 453.13,1876.78 449.53,1876.78 449.53,1883.98 445.93,1883.98 445.93,1887.58 442.32,1887.58 442.32,1891.19 438.73,1891.19 438.73,1894.79 431.52,1894.79 431.52,1898.39 427.92,1898.39 427.92,1901.99 424.32,1901.99 424.32,1905.59 420.72,1905.59 420.72,1909.19 413.51,1909.19 413.51,1912.79 409.91,1912.79 409.91,1916.4 402.71,1916.4 402.71,1920 399.11,1920 399.11,1923.6 391.9,1923.6 391.9,1927.2 384.7,1927.2 384.7,1930.8 377.5,1930.8 377.5,1934.4 370.3,1934.4 370.3,1938.01 366.69,1938.01 366.69,1941.61 359.49,1941.61 359.49,1945.21 355.89,1945.21 355.89,1948.81 348.69,1948.81 348.69,1952.41 341.48,1952.41 341.48,1956.01 337.88,1956.01 337.88,1959.62 334.28,1959.62 334.28,1963.21 327.08,1963.21 327.08,1966.82 319.88,1966.82 319.88,1970.42 316.27,1970.42 316.27,1974.02 312.67,1974.02 312.67,1977.62 305.47,1977.62 305.47,1981.22 301.87,1981.22 301.87,1984.82 294.67,1984.82 294.67,1988.43 291.06,1988.43 291.06,1992.03 280.26,1992.03 280.26,1995.63 273.06,1995.63 273.06,1999.23 258.65,1999.23 258.65,2002.83 233.44,2002.83 233.44,1999.23 219.03,1999.23 219.03,1995.63 211.83,1995.63 211.83,1992.03 204.63,1992.03 204.63,1988.43 201.03,1988.43 201.03,1984.82 197.42,1984.82 197.42,1981.22 193.82,1981.22 193.82,1977.62 186.62,1977.62 186.62,1974.02 183.02,1974.02 183.02,1970.42 179.42,1970.42 179.42,1966.82 175.82,1966.82 175.82,1963.21 168.61,1963.21 168.61,1959.62 165.01,1959.62 165.01,1956.01 161.41,1956.01 161.41,1952.41 154.21,1952.41 154.21,1948.81 150.6,1948.81 150.6,1945.21 143.4,1945.21 143.4,1941.61 139.8,1941.61 139.8,1938.01 132.6,1938.01 132.6,1934.4 128.99,1934.4 128.99,1930.8 121.79,1930.8 121.79,1927.2 118.19,1927.2 118.19,1923.6 110.99,1923.6 110.99,1920 107.39,1920 107.39,1916.4 103.79,1916.4 103.79,1912.79 96.58,1912.79 96.58,1909.19 92.98,1909.19 92.98,1905.59 85.78,1905.59 85.78,1901.99 82.18,1901.99 82.18,1898.39 74.97,1898.39 74.97,1894.79 71.37,1894.79 71.37,1891.19 67.77,1891.19 67.77,1887.58 64.17,1887.58 64.17,1883.98 60.57,1883.98 60.57,1880.38 56.97,1880.38 56.97,1876.78 53.36,1876.78 53.36,1873.18 49.77,1873.18 49.77,1869.58 46.16,1869.58 46.16,1865.98 42.56,1865.98 42.56,1858.77 38.96,1858.77 38.96,1855.17 35.36,1855.17 35.36,1847.97 31.75,1847.97 31.75,1840.77 28.16,1840.77 28.16,1829.96 24.55,1829.96 24.55,1811.96 20.95,1811.96 20.95,1747.13 24.55,1747.13 24.55,1725.52 28.16,1725.52 28.16,1711.11 31.75,1711.11 31.75,1693.11 35.36,1693.11 35.36,1682.3 38.96,1682.3 38.96,1667.89 42.56,1667.89 42.56,1660.69 46.16,1660.69 46.16,1649.89 49.77,1649.89 49.77,1639.08 53.36,1639.08 53.36,1628.28 56.97,1628.28 56.97,1621.07 60.57,1621.07 60.57,1610.27 64.17,1610.27 64.17,1603.07 67.77,1603.07 67.77,1592.26 71.37,1592.26 71.37,1581.46 74.97,1581.46 74.97,1570.65 78.58,1570.65 78.58,1563.45 82.18,1563.45 82.18,1552.65 85.78,1552.65 85.78,1538.24 89.38,1538.24 89.38,1531.04 92.98,1531.04 92.98,1520.24 96.58,1520.24 96.58,1505.83 100.18,1505.83 100.18,1498.63 103.79,1498.63 103.79,1487.82 107.39,1487.82 107.39,1480.62 110.99,1480.62 110.99,1469.81 114.59,1469.81 114.59,1462.61 118.19,1462.61 118.19,1455.41 121.79,1455.41 121.79,1451.81 125.4,1451.81 125.4,1444.6 128.99,1444.6 128.99,1437.4 132.6,1437.4 132.6,1433.8 136.2,1433.8 136.2,1426.59 139.8,1426.59 139.8,1419.39 143.4,1419.39 143.4,1415.79 147.01,1415.79 147.01,1408.59 150.6,1408.59 150.6,1404.99 154.21,1404.99 154.21,1401.39 157.81,1401.39 157.81,1394.18 161.41,1394.18 161.41,1390.58 165.01,1390.58 165.01,1386.98 168.61,1386.98 168.61,1383.38 172.21,1383.38 172.21,1379.78 179.42,1379.78 179.42,1376.17 183.02,1376.17 183.02,1372.57 186.62,1372.57 186.62,1368.97 190.22,1368.97 190.22,1365.37 197.42,1365.37 197.42,1361.77 204.63,1361.77 204.63,1358.17 211.83,1358.17 211.83,1354.57 219.03,1354.57 219.03,1350.96 233.44,1350.96 233.44,1347.36 287.46,1347.36 "/>
  <polygon id="root" class="fil1" points="309.07,241.71 312.67,241.71 312.67,248.91 316.27,248.91 316.27,252.51 319.88,252.51 319.88,263.32 323.47,263.32 323.47,277.72 327.08,277.72 327.08,421.78 323.47,421.78 323.47,594.66 327.08,594.66 327.08,634.27 330.68,634.27 330.68,666.68 334.28,666.68 334.28,695.49 337.88,695.49 337.88,724.31 341.48,724.31 341.48,749.52 345.08,749.52 345.08,771.13 348.69,771.13 348.69,789.14 352.29,789.14 352.29,810.74 355.89,810.74 355.89,832.35 359.49,832.35 359.49,853.96 363.09,853.96 363.09,882.77 366.69,882.77 366.69,907.98 370.3,907.98 370.3,929.59 373.9,929.59 373.9,958.4 377.5,958.4 377.5,972.81 381.1,972.81 381.1,1005.22 384.7,1005.22 384.7,1034.03 388.3,1034.03 388.3,1052.04 391.9,1052.04 391.9,1080.85 395.51,1080.85 395.51,1120.47 399.11,1120.47 399.11,1156.48 402.71,1156.48 402.71,1206.91 406.31,1206.91 406.31,1282.54 409.91,1282.54 409.91,1376.17 413.51,1376.17 413.51,1437.4 417.12,1437.4 417.12,1466.21 413.51,1466.21 413.51,1462.61 409.91,1462.61 409.91,1455.41 406.31,1455.41 406.31,1448.2 402.71,1448.2 402.71,1437.4 399.11,1437.4 399.11,1430.2 395.51,1430.2 395.51,1423 391.9,1423 391.9,1415.79 388.3,1415.79 388.3,1408.59 384.7,1408.59 384.7,1404.99 381.1,1404.99 381.1,1397.78 377.5,1397.78 377.5,1394.18 373.9,1394.18 373.9,1386.98 370.3,1386.98 370.3,1383.38 366.69,1383.38 366.69,1379.78 363.09,1379.78 363.09,1372.57 359.49,1372.57 359.49,1368.97 355.89,1368.97 355.89,1365.37 352.29,1365.37 352.29,1361.77 348.69,1361.77 348.69,1358.17 341.48,1358.17 341.48,1354.57 337.88,1354.57 337.88,1350.96 334.28,1350.96 334.28,1347.36 327.08,1347.36 327.08,1343.76 323.47,1343.76 323.47,1340.16 316.27,1340.16 316.27,1336.56 309.07,1336.56 309.07,1332.96 298.27,1332.96 298.27,1329.35 283.86,1329.35 283.86,1325.75 244.25,1325.75 244.25,1329.35 222.64,1329.35 222.64,1332.96 211.83,1332.96 211.83,1336.56 201.03,1336.56 201.03,1340.16 193.82,1340.16 193.82,1343.76 186.62,1343.76 186.62,1347.36 183.02,1347.36 183.02,1350.96 175.82,1350.96 175.82,1354.57 172.21,1354.57 172.21,1358.17 168.61,1358.17 168.61,1361.77 165.01,1361.77 165.01,1365.37 161.41,1365.37 161.41,1368.97 157.81,1368.97 157.81,1372.57 154.21,1372.57 154.21,1376.17 150.6,1376.17 150.6,1379.78 147.01,1379.78 147.01,1383.38 143.4,1383.38 143.4,1386.98 139.8,1386.98 139.8,1390.58 136.2,1390.58 136.2,1394.18 132.6,1394.18 132.6,1401.39 128.99,1401.39 128.99,1404.99 125.4,1404.99 125.4,1412.19 121.79,1412.19 121.79,1415.79 118.19,1415.79 118.19,1423 114.59,1423 114.59,1430.2 110.99,1430.2 110.99,1437.4 107.39,1437.4 107.39,1412.19 110.99,1412.19 110.99,1390.58 114.59,1390.58 114.59,1358.17 118.19,1358.17 118.19,1296.94 121.79,1296.94 121.79,1264.53 125.4,1264.53 125.4,1170.89 128.99,1170.89 128.99,1120.47 132.6,1120.47 132.6,1023.23 136.2,1023.23 136.2,976.41 139.8,976.41 139.8,940.4 143.4,940.4 143.4,886.38 147.01,886.38 147.01,843.16 150.6,843.16 150.6,814.34 154.21,814.34 154.21,789.14 157.81,789.14 157.81,767.53 161.41,767.53 161.41,738.71 165.01,738.71 165.01,709.9 168.61,709.9 168.61,677.49 172.21,677.49 172.21,659.48 175.82,659.48 175.82,641.47 179.42,641.47 179.42,612.66 183.02,612.66 183.02,598.25 186.62,598.25 186.62,569.44 190.22,569.44 190.22,555.04 193.82,555.04 193.82,537.03 197.42,537.03 197.42,526.23 201.03,526.23 201.03,508.22 204.63,508.22 204.63,493.81 208.23,493.81 208.23,475.81 211.83,475.81 211.83,457.8 215.43,457.8 215.43,446.99 219.03,446.99 219.03,428.99 222.64,428.99 222.64,414.58 226.24,414.58 226.24,407.38 229.84,407.38 229.84,389.37 233.44,389.37 233.44,378.57 237.04,378.57 237.04,371.36 240.64,371.36 240.64,360.56 244.25,360.56 244.25,349.75 247.84,349.75 247.84,335.35 251.45,335.35 251.45,324.54 255.05,324.54 255.05,317.34 258.65,317.34 258.65,306.53 262.25,306.53 262.25,299.33 265.85,299.33 265.85,292.13 269.45,292.13 269.45,281.33 273.06,281.33 273.06,274.12 276.66,274.12 276.66,270.52 280.26,270.52 280.26,263.32 283.86,263.32 283.86,256.11 287.46,256.11 287.46,252.51 291.06,252.51 291.06,248.91 294.67,248.91 294.67,245.31 298.27,245.31 298.27,241.71 301.87,241.71 301.87,238.11 309.07,238.11 "/>
  <path id="outline" class="fil2" d="M24.55 1829.96l3.61 0 0 10.81 3.59 0 0 7.2 3.61 0 0 7.2 3.6 0 0 3.6 3.6 0 0 7.21 3.6 0 0 3.6 3.61 0 0 3.6 3.59 0 0 3.6 3.61 0 0 3.6 3.6 0 0 3.6 3.6 0 0 3.6 3.6 0 0 3.61 3.6 0 0 3.6 3.6 0 0 3.6 7.21 0 0 3.6 3.6 0 0 3.6 7.2 0 0 3.6 3.6 0 0 3.6 7.21 0 0 3.61 3.6 0 0 3.6 3.6 0 0 3.6 7.2 0 0 3.6 3.6 0 0 3.6 7.2 0 0 3.6 3.61 0 0 3.61 7.2 0 0 3.6 3.6 0 0 3.6 7.2 0 0 3.6 3.61 0 0 3.6 7.2 0 0 3.6 3.6 0 0 3.61 3.6 0 0 3.59 7.21 0 0 3.61 3.6 0 0 3.6 3.6 0 0 3.6 3.6 0 0 3.6 7.2 0 0 3.6 3.6 0 0 3.6 3.61 0 0 3.61 3.6 0 0 3.6 7.2 0 0 3.6 7.2 0 0 3.6 14.41 0 0 3.6 25.21 0 0 -3.6 14.41 0 0 -3.6 7.2 0 0 -3.6 10.8 0 0 -3.6 3.61 0 0 -3.61 7.2 0 0 -3.6 3.6 0 0 -3.6 7.2 0 0 -3.6 3.6 0 0 -3.6 3.61 0 0 -3.6 7.2 0 0 -3.61 7.2 0 0 -3.59 3.6 0 0 -3.61 3.6 0 0 -3.6 7.21 0 0 -3.6 7.2 0 0 -3.6 3.6 0 0 -3.6 7.2 0 0 -3.6 3.61 0 0 -3.61 7.2 0 0 -3.6 7.2 0 0 -3.6 7.2 0 0 -3.6 7.21 0 0 -3.6 3.6 0 0 -3.6 7.2 0 0 -3.61 3.6 0 0 -3.6 7.21 0 0 -3.6 3.6 0 0 -3.6 3.6 0 0 -3.6 3.6 0 0 -3.6 7.21 0 0 -3.6 3.59 0 0 -3.61 3.61 0 0 -3.6 3.6 0 0 -7.2 3.6 0 0 -3.6 3.6 0 0 -7.2 3.6 0 0 -7.21 3.6 0 0 -10.8 3.61 0 0 -10.81 3.6 0 0 -18 3.6 0 0 -75.63 -3.6 0 0 -14.41 -3.6 0 0 -18.01 -3.61 0 0 -18 -3.6 0 0 -14.41 -3.6 0 0 -14.41 -3.6 0 0 -14.4 -3.6 0 0 -10.81 -3.6 0 0 -18.01 -3.61 0 0 -7.2 -3.59 0 0 -10.8 -3.61 0 0 -14.41 -3.6 0 0 -14.4 -3.6 0 0 -10.81 -3.6 0 0 -10.8 -3.6 0 0 -10.81 -3.6 0 0 -14.4 -3.61 0 0 -14.41 -3.6 0 0 -7.2 -3.6 0 0 -10.81 -3.6 0 0 -10.8 -3.6 0 0 -7.2 -3.6 0 0 -7.21 -3.61 0 0 -7.2 -3.6 0 0 -7.2 -3.6 0 0 -7.21 -3.6 0 0 -7.2 -3.6 0 0 -7.2 -3.6 0 0 -7.21 -3.6 0 0 -7.2 -3.61 0 0 -3.6 -3.6 0 0 -7.2 -3.6 0 0 -7.2 -3.6 0 0 -3.61 -3.6 0 0 -7.2 -7.21 0 0 -7.2 -3.6 0 0 -3.6 -3.6 0 0 -3.61 -3.6 0 0 -3.6 -3.6 0 0 -3.6 -7.21 0 0 -3.6 -3.59 0 0 -3.6 -7.21 0 0 -3.6 -7.2 0 0 -3.6 -7.2 0 0 -3.61 -10.81 0 0 -3.6 -54.02 0 0 3.6 -14.41 0 0 3.61 -7.2 0 0 3.6 -7.2 0 0 3.6 -7.21 0 0 3.6 -7.2 0 0 3.6 -3.6 0 0 3.6 -3.6 0 0 3.6 -3.6 0 0 3.61 -7.21 0 0 3.6 -3.6 0 0 3.6 -3.6 0 0 3.6 -3.6 0 0 3.6 -3.6 0 0 7.21 -3.6 0 0 3.6 -3.61 0 0 3.6 -3.59 0 0 7.2 -3.61 0 0 3.6 -3.6 0 0 7.2 -3.6 0 0 7.21 -3.6 0 0 3.6 -3.61 0 0 7.2 -3.59 0 0 7.21 -3.61 0 0 3.6 -3.6 0 0 7.2 -3.6 0 0 7.2 -3.6 0 0 10.81 -3.6 0 0 7.2 -3.6 0 0 10.81 -3.61 0 0 7.2 -3.6 0 0 14.41 -3.6 0 0 10.8 -3.6 0 0 7.2 -3.6 0 0 14.41 -3.6 0 0 10.8 -3.6 0 0 7.2 -3.61 0 0 10.81 -3.6 0 0 10.8 -3.6 0 0 10.81 -3.6 0 0 7.2 -3.6 0 0 10.8 -3.6 0 0 7.21 -3.61 0 0 10.8 -3.59 0 0 10.81 -3.61 0 0 10.8 -3.6 0 0 7.2 -3.6 0 0 14.41 -3.6 0 0 10.81 -3.61 0 0 18 -3.59 0 0 14.41 -3.61 0 0 21.61 -3.6 0 0 64.83 3.6 0 0 18zm302.53 -1552.24l-3.61 0 0 -14.4 -3.59 0 0 -10.81 -3.61 0 0 -3.6 -3.6 0 0 -7.2 -3.6 0 0 -3.6 -7.2 0 0 3.6 -3.6 0 0 3.6 -3.6 0 0 3.6 -3.61 0 0 3.6 -3.6 0 0 3.6 -3.6 0 0 7.21 -3.6 0 0 7.2 -3.6 0 0 3.6 -3.6 0 0 7.21 -3.61 0 0 10.8 -3.6 0 0 7.2 -3.6 0 0 7.2 -3.6 0 0 10.81 -3.6 0 0 7.2 -3.6 0 0 10.81 -3.61 0 0 14.4 -3.59 0 0 10.81 -3.61 0 0 10.8 -3.6 0 0 7.21 -3.6 0 0 10.8 -3.6 0 0 18.01 -3.6 0 0 7.2 -3.6 0 0 14.41 -3.61 0 0 18 -3.6 0 0 10.81 -3.6 0 0 18.01 -3.6 0 0 18 -3.6 0 0 14.41 -3.6 0 0 18.01 -3.61 0 0 10.8 -3.6 0 0 18.01 -3.6 0 0 14.4 -3.6 0 0 28.81 -3.6 0 0 14.41 -3.6 0 0 28.81 -3.6 0 0 18.01 -3.61 0 0 18.01 -3.6 0 0 32.41 -3.6 0 0 28.81 -3.6 0 0 28.82 -3.6 0 0 21.61 -3.6 0 0 25.2 -3.61 0 0 28.82 -3.59 0 0 43.22 -3.61 0 0 54.02 -3.6 0 0 36.01 -3.6 0 0 46.82 -3.6 0 0 97.24 -3.61 0 0 50.42 -3.59 0 0 93.64 -3.61 0 0 32.41 -3.6 0 0 61.23 -3.6 0 0 32.41 -3.6 0 0 21.61 -3.6 0 0 25.21 3.6 0 0 -7.2 3.6 0 0 -7.2 3.6 0 0 -7.21 3.6 0 0 -3.6 3.61 0 0 -7.2 3.59 0 0 -3.6 3.61 0 0 -7.21 3.6 0 0 -3.6 3.6 0 0 -3.6 3.6 0 0 -3.6 3.61 0 0 -3.6 3.59 0 0 -3.61 3.61 0 0 -3.6 3.6 0 0 -3.6 3.6 0 0 -3.6 3.6 0 0 -3.6 3.6 0 0 -3.6 3.6 0 0 -3.6 3.61 0 0 -3.61 7.2 0 0 -3.6 3.6 0 0 -3.6 7.2 0 0 -3.6 7.21 0 0 -3.6 10.8 0 0 -3.6 10.81 0 0 -3.61 21.61 0 0 -3.6 39.61 0 0 3.6 14.41 0 0 3.61 10.8 0 0 3.6 7.2 0 0 3.6 7.2 0 0 3.6 3.61 0 0 3.6 7.2 0 0 3.6 3.6 0 0 3.61 3.6 0 0 3.6 7.21 0 0 3.6 3.6 0 0 3.6 3.6 0 0 3.6 3.6 0 0 3.6 3.6 0 0 7.21 3.6 0 0 3.6 3.61 0 0 3.6 3.6 0 0 7.2 3.6 0 0 3.6 3.6 0 0 7.21 3.6 0 0 3.6 3.6 0 0 7.2 3.6 0 0 7.21 3.61 0 0 7.2 3.6 0 0 7.2 3.6 0 0 10.8 3.6 0 0 7.21 3.6 0 0 7.2 3.6 0 0 3.6 3.61 0 0 -28.81 -3.61 0 0 -61.23 -3.6 0 0 -93.63 -3.6 0 0 -75.63 -3.6 0 0 -50.43 -3.6 0 0 -36.01 -3.6 0 0 -39.62 -3.61 0 0 -28.81 -3.6 0 0 -18.01 -3.6 0 0 -28.81 -3.6 0 0 -32.41 -3.6 0 0 -14.41 -3.6 0 0 -28.81 -3.6 0 0 -21.61 -3.61 0 0 -25.21 -3.6 0 0 -28.81 -3.6 0 0 -21.61 -3.6 0 0 -21.61 -3.6 0 0 -21.6 -3.6 0 0 -18.01 -3.61 0 0 -21.61 -3.6 0 0 -25.21 -3.6 0 0 -28.82 -3.6 0 0 -28.81 -3.6 0 0 -32.41 -3.6 0 0 -39.61 -3.61 0 0 -172.88 3.61 0 0 -144.06zm-7.2 -54.02l7.2 0 0 3.6 3.6 0 0 3.6 3.6 0 0 7.21 3.6 0 0 7.2 3.6 0 0 7.2 3.6 0 0 10.81 3.61 0 0 18.01 3.6 0 0 72.02 -3.6 0 0 72.03 -3.61 0 0 151.27 3.61 0 0 43.21 3.6 0 0 36.02 3.6 0 0 28.81 3.6 0 0 28.81 3.6 0 0 28.81 3.6 0 0 14.41 3.61 0 0 21.61 3.6 0 0 32.41 3.6 0 0 14.41 3.6 0 0 25.21 3.6 0 0 21.61 3.6 0 0 18 3.6 0 0 25.22 3.61 0 0 21.61 3.6 0 0 28.81 3.6 0 0 25.21 3.6 0 0 21.61 3.6 0 0 39.61 3.6 0 0 25.21 3.61 0 0 50.42 3.6 0 0 36.02 3.6 0 0 50.42 3.6 0 0 75.63 3.6 0 0 75.63 3.6 0 0 43.22 3.61 0 0 72.03 3.59 0 0 61.22 3.61 0 0 18.01 3.6 0 0 10.8 3.6 0 0 7.21 3.6 0 0 10.8 3.6 0 0 10.81 3.6 0 0 14.4 3.61 0 0 14.41 3.6 0 0 14.4 3.6 0 0 14.41 3.6 0 0 14.41 3.6 0 0 10.8 3.6 0 0 21.61 3.6 0 0 10.81 3.61 0 0 21.6 3.6 0 0 86.44 -3.6 0 0 18.01 -3.61 0 0 14.4 -3.6 0 0 10.81 -3.6 0 0 7.2 -3.6 0 0 7.2 -3.6 0 0 7.2 -3.6 0 0 3.61 -3.6 0 0 7.2 -3.61 0 0 3.6 -3.6 0 0 3.6 -3.6 0 0 3.6 -3.6 0 0 3.6 -3.6 0 0 3.61 -7.21 0 0 3.6 -3.59 0 0 3.6 -3.61 0 0 3.6 -7.2 0 0 3.6 -3.6 0 0 3.6 -7.2 0 0 3.61 -7.21 0 0 3.6 -3.6 0 0 3.6 -7.2 0 0 3.6 -3.6 0 0 3.6 -7.21 0 0 3.6 -7.2 0 0 3.61 -7.2 0 0 3.59 -3.6 0 0 3.61 -7.21 0 0 3.6 -3.6 0 0 3.6 -7.2 0 0 3.6 -3.6 0 0 3.6 -7.21 0 0 3.6 -3.6 0 0 3.61 -3.6 0 0 3.6 -7.2 0 0 3.6 -7.2 0 0 3.6 -3.61 0 0 3.6 -7.2 0 0 3.6 -7.2 0 0 3.6 -7.2 0 0 3.61 -7.21 0 0 3.6 -7.2 0 0 3.6 -10.81 0 0 3.6 -46.81 0 0 -3.6 -10.81 0 0 -3.6 -7.2 0 0 -3.6 -7.21 0 0 -3.61 -7.2 0 0 -3.6 -3.6 0 0 -3.6 -3.6 0 0 -3.6 -7.2 0 0 -3.6 -3.61 0 0 -3.6 -3.6 0 0 -3.6 -7.2 0 0 -3.61 -3.6 0 0 -3.6 -3.6 0 0 -3.6 -3.61 0 0 -3.6 -7.2 0 0 -3.6 -3.6 0 0 -3.6 -3.6 0 0 -3.61 -7.21 0 0 -3.59 -3.59 0 0 -3.61 -3.61 0 0 -3.6 -7.2 0 0 -3.6 -3.6 0 0 -3.6 -7.2 0 0 -3.6 -3.61 0 0 -3.6 -7.2 0 0 -3.61 -3.6 0 0 -3.6 -7.2 0 0 -3.6 -3.6 0 0 -3.6 -7.21 0 0 -3.6 -3.6 0 0 -3.6 -3.6 0 0 -3.61 -7.2 0 0 -3.6 -3.61 0 0 -3.6 -3.59 0 0 -3.6 -3.61 0 0 -3.6 -7.2 0 0 -3.6 -3.6 0 0 -3.6 -3.61 0 0 -7.21 -3.59 0 0 -3.6 -3.61 0 0 -3.6 -3.6 0 0 -7.2 -3.6 0 0 -3.6 -3.6 0 0 -10.81 -3.6 0 0 -7.2 -3.6 0 0 -14.4 -3.61 0 0 -10.81 -3.6 0 0 -86.44 3.6 0 0 -10.8 3.61 0 0 -21.61 3.6 0 0 -14.41 3.6 0 0 -14.4 3.6 0 0 -7.21 3.6 0 0 -14.4 3.6 0 0 -7.2 3.61 0 0 -14.41 3.59 0 0 -10.81 3.61 0 0 -10.8 3.6 0 0 -7.2 3.6 0 0 -10.81 3.6 0 0 -10.8 3.61 0 0 -7.2 3.59 0 0 -14.41 3.61 0 0 -7.2 3.6 0 0 -10.81 3.6 0 0 -14.4 3.6 0 0 -10.81 3.6 0 0 -7.2 3.6 0 0 -21.61 3.61 0 0 -21.61 3.6 0 0 -39.62 3.6 0 0 -21.6 3.6 0 0 -46.82 3.6 0 0 -28.82 3.6 0 0 -54.02 3.6 0 0 -21.61 3.61 0 0 -111.64 3.6 0 0 -39.62 3.6 0 0 -82.83 3.6 0 0 -57.63 3.6 0 0 -39.61 3.6 0 0 -46.82 3.61 0 0 -36.02 3.59 0 0 -36.01 3.61 0 0 -21.61 3.6 0 0 -28.81 3.6 0 0 -36.02 3.6 0 0 -25.2 3.61 0 0 -25.22 3.59 0 0 -21.6 3.61 0 0 -14.41 3.6 0 0 -21.61 3.6 0 0 -21.61 3.6 0 0 -18.01 3.6 0 0 -21.61 3.6 0 0 -18 3.61 0 0 -14.41 3.6 0 0 -14.41 3.6 0 0 -21.61 3.6 0 0 -14.4 3.6 0 0 -14.41 3.6 0 0 -14.4 3.6 0 0 -14.41 3.61 0 0 -7.2 3.6 0 0 -14.4 3.6 0 0 -14.41 3.6 0 0 -14.41 3.6 0 0 -7.2 3.6 0 0 -14.41 3.61 0 0 -10.8 3.6 0 0 -10.81 3.6 0 0 -7.2 3.6 0 0 -14.41 3.6 0 0 -7.2 3.6 0 0 -7.2 3.61 0 0 -10.8 3.59 0 0 -7.21 3.61 0 0 -7.2 3.6 0 0 -7.2 3.6 0 0 -7.21 3.6 0 0 -3.6 3.6 0 0 -7.2 3.6 0 0 -3.6 3.61 0 0 -3.6 3.6 0 0 -3.61 3.6 0 0 -3.6 3.6 0 0 -3.6 7.2 0 0 -3.6 28.82 0 0 3.6z"/>
  <path class="fil3 str0" d="M148.27 1339.07l1.66 -2.54 -1.66 2.54zm1.66 -2.54l0.72 -2.15 -0.72 2.15zm0.72 -2.15zm4.77 -9.38l-4.77 9.38zm4.77 -9.38c-0.36,-2.97 -3.04,-1.31 -1.18,0.5l0.35 -0.05c0.95,-0.36 1.3,3.54 0.83,-0.45zm1.96 -8.2l-0.22 0.64c0.02,-0.04 0.33,-0.5 0.22,-0.64zm7.87 -16.21c-1.21,-1.45 -3.21,4.27 -0.93,1.35 0.02,-0.03 2.85,0.93 0.93,-1.35zm46.56 -168.87zm6.21 -13.68l-6.21 13.68zm6.21 -13.68c-2.69,2.65 -0.67,-0.48 -2.39,3.18 -1.33,2.83 -1.16,1.62 -1.44,5.81 5.22,-5.13 3.41,-7.29 3.83,-8.99zm3.11 -6.83zm0 0zm0 0zm11.29 -28.71l-11.29 28.71zm11.29 -28.71c-3.41,1.58 -7.32,7.03 -8.38,12.61 -0.81,4.34 -0.72,0.86 -0.01,7.5 3.17,-6.27 5.7,-13.25 8.39,-20.11zm-46.21 -174.07c-0.54,-4.49 -1.52,0.34 -0.56,0.23 0.01,0 1.14,4.67 0.56,-0.23zm-37.94 430.64c-3.97,3.89 -12.63,25.08 -16.2,33.39 -7.7,17.92 -8.2,16.2 -16.48,33.05 -1.85,3.75 -3.85,7.88 -5.3,11.76 -2.04,5.42 -1.97,8.66 -5.22,11.85 0.27,-12.22 16.22,-48.61 20.95,-59.35l7.66 -19.48c1.43,-3.95 1.7,-5.48 3.45,-9.44l22.45 -57.57c2.39,-5.73 3.1,-3.41 3.26,-11.17 -2.23,-0.03 -2.3,-0.45 -4.87,0.21l-0.42 -3.51c4.29,-4.21 11.22,-25.04 13.93,-33.09 2.86,-8.5 4.69,-8.1 7.14,-17.08l13.17 -34c1.34,-3.17 1.73,-5.07 3.07,-8.38 2.89,-7.18 16.8,-37.5 16.95,-44.54 -3.21,2.9 -3.82,5.94 -6,8.21 -7.98,8.34 5.72,-25.09 6.45,-27.26 1.37,-4.12 1.95,-6.79 3.14,-11.31 2.13,-8.09 0.73,-18.24 5.33,-23.95 3.48,-4.3 5.1,-0.98 8.05,-0.75 0.2,-9.38 2.71,-8.49 6.22,-13.68 -4.7,-8.4 -4.59,-3.34 -4.33,-15.54 0.2,-9.68 -0.87,-16.46 -4.68,-21.88 -7.09,-10.1 -19.21,-28.41 -22.33,-45.41 -1.53,-8.36 -2.5,-19.58 -3.36,-23.96 -0.72,-3.7 -4.41,-13.27 -6.14,-19.1 -2,-6.74 -4.27,-14.23 -5.25,-22.43 -3.25,3.2 -1,2.28 -4.25,5.48 -1.12,-4.36 -4.22,-11.87 -5.83,-15.96 -2.05,-5.19 -4.54,-10.55 -6.75,-15.6 -4.72,-10.81 -11.84,-33.75 -15.81,-41.01 -4.07,-7.48 -5.85,-19.52 -8.61,-29.07 -7.11,-24.58 -16.36,-44.86 -26.05,-65.24 -4.67,-9.81 -8.69,-21.47 -13.5,-31.23 -3.07,-6.22 -4.68,-5.88 -6.31,-14.89 -0.84,-4.65 0.52,-1.82 -2.25,-7.01 -1.52,-2.85 -2.47,-3.97 -4.09,-7.07 -2.7,-5.18 -4.42,-10.98 -6.36,-16.78 -2.29,-6.87 -4.63,-8.65 -6.86,-15.28l-18.28 -50.27c-2.81,-7.48 -4.49,-8.77 -6.75,-15.61l-6.36 -16.75c-1.43,-3.95 -1.16,-4.56 -2.54,-9.12 -4.75,-15.83 -14.29,-32.1 -19.92,-47.78 -1.41,-3.92 -1.5,-6.15 -2.9,-10.39 -6.5,-19.68 -19.01,-20.49 -22.17,-22.32l-2.75 -5.06c-2.42,-12.2 -1.21,-35.75 3.2,-41.3 9,-11.33 17.72,-1.8 23.83,-1.7 5.75,-11.37 2.94,-16.43 12.01,-11.86l11.15 4.94c3.91,2.25 1.05,-2.46 4.36,6.06 3.19,8.21 4.53,6.53 7.8,14.91 2.74,7.02 2.48,11.83 5.85,18.06 2.91,5.38 5.46,8.2 7.85,14.9 7.35,20.61 11.72,25.48 14.54,32.9l14.05 36.69c3.54,12.92 9.03,24.41 13.78,35.13 2.61,5.88 4.38,13.28 6.89,19.94 2.5,6.62 4.94,10.68 6,17.45 1.02,6.46 4.51,11.87 6.81,18.18 13.55,37.1 25.07,78.62 41.14,110.74 6.51,13 9.87,17.74 15.01,33.86 6.98,21.85 16.71,45.8 22.32,69.19l9.03 30.22c1.21,4.51 1.65,6.05 3.05,9.94 1.03,2.83 3.06,7.52 3.81,10.23 2.06,7.39 0.57,6.63 2.21,12.27l3.55 10.88c0.13,0.39 0.26,0.82 0.39,1.21l4.72 16.88c3.17,13.57 11.32,24.76 11.25,40.25 5.8,-5.69 24.39,-74.9 27.99,-88.6 2.8,-10.61 8.41,-42.09 10.74,-48.94 1.56,-4.59 2.49,-5.23 4.23,-10.01 2.54,-6.93 9.81,-27.54 13.24,-30.91 -1.84,-15.41 -3.37,-30.85 6.71,-29.43 3.8,0.53 -0.27,1.16 2.81,0.65 1.95,-0.32 1.37,-0.6 3.42,-2.46 -3.35,-13.08 -4.91,-13.64 7.82,-23.13 1.71,-1.28 1.76,-1.84 3.68,-3.72 4.24,-4.16 5.53,-2.15 5.7,-9.88 -5.69,2.4 -8.93,0.31 -13.7,0.24 -0.63,-8.62 2.87,-15.75 5.38,-20.7 6.08,-6.31 -0.14,11.83 16.54,-14.91l4.19 -8.55c-2.7,-0.05 -5.18,-0.33 -7.88,-0.37 -0.45,-6.07 -0.06,-6.73 0.61,-11.32l-13.64 -2.15c-4.96,-1.69 -9.86,-6.08 -14.8,-6.15 2.14,-9.2 15.69,-8.62 24.1,-12.06 6.18,-2.52 5.05,-0.07 7.94,-0.52l15.78 -5.7c10.72,-6.47 20.64,-37.19 33.83,-48.51 4.73,-4.07 30.42,-14.22 36.91,-16.37 5.56,-1.83 9.64,1.52 12.5,8.23 3.7,8.73 1.22,16.09 -0.44,25.87 -2.62,15.46 -8.51,19.97 -15.79,39.9 -2.45,6.73 -5.12,13.41 -7.74,19.38l-31.19 81.78c-6.88,20.58 -13.64,44.22 -21.43,63.3l-7.38 19.81c-1.71,5.01 -2.34,5.63 -4.16,10.1 -6.72,16.46 -8.99,26.98 -19.8,51.69 -3.34,7.65 -3,12.15 -6.74,20.57 -4.08,9.16 -5.82,17.75 -10.06,25.65 -4.69,8.74 -5.38,16.8 -9.44,26.39 -7.75,18.28 -27.99,76.77 -31.94,95.95 4.91,11.7 17.86,57.89 21.47,64.58 5.28,9.82 3.05,10.56 6.93,22.19l7.34 20.98c2.53,7.89 4.76,14.86 7.02,21.93 2.48,7.75 4.43,13.87 7.02,21.92 7.3,22.61 12.85,45.59 20.99,68.44 2.8,7.86 1.4,2.26 2.54,11.82l1.71 6.25c0.1,0.23 0.32,0.61 0.42,0.84 0.09,0.22 0.28,0.64 0.37,0.86l11.96 39.01c0.77,3.01 0.77,4.09 1.62,7.06 2.28,7.95 4.59,9.92 7.33,21l27.36 92.23c6.23,21.14 14.02,42.26 18.87,64.8 1.04,4.82 1.22,2.46 2.62,6.71 2.77,8.43 3.51,18.15 6.59,25.64 1.79,4.37 2.21,5.39 3.32,11.62 2.43,13.63 4.01,13.42 7.32,23.4 5.85,17.64 10.8,47.41 18.95,72.06 2.57,7.77 3.59,20.08 6.01,27.28 5.72,17 4.75,23.01 12.72,47.79 3.68,11.46 3.24,9.55 5.86,25.35 1.81,10.93 5.24,11.35 6.85,24.82l-8.18 -16.39c-2.94,-6.25 -5.67,-11.38 -7.77,-19.45 -3.9,-15 -10.33,-26.4 -14.93,-41.22 -1.52,-4.88 -3.48,-13.86 -4.84,-18.9 -4.91,-18.22 -8.67,-25.92 -14.67,-50.53 -0.94,-3.89 -1.91,-3.49 -2.86,-8.43 -0.73,-3.75 0.2,-2.26 -1.2,-6.68 -1.67,-5.24 -1.17,-2.15 -2.95,-7.76l-8.23 -27.89c-2.01,-5.56 -4,-9.96 -5.93,-15.64 -4.56,-13.38 -8.49,-32.24 -14.17,-43.49 -2.95,-5.84 -7.77,-26.2 -14.5,-42.51 -1.73,-4.21 -3.65,-11.69 -5.41,-17.2 -1.08,-3.39 -1.65,-5.45 -2.73,-8.51l-30.19 -88.59c-1.68,-5.84 -2.51,-12.84 -4.54,-19.78 -3.84,-13.13 -7.51,-22.07 -11.88,-33.65 -2.07,-5.5 -3.81,-10.29 -6,-15.47l-12.65 -31.48c-3.24,-9.85 -1.8,-11.17 -0.6,-19.46 -16.67,-29.83 -10.76,-23.97 -17.38,-38.71l-15.32 -30.55c-2.97,-5.71 -14.89,-27.63 -15.63,-32.04l2.8 -1.18 -2.09 -17.55c-5.23,-0.4 -13.24,-10.71 -16.72,-16.92 -10.99,17.65 -21.48,37.81 -31.61,57.17 -7.49,14.3 -16.05,29.86 -22.04,46.01 -2.27,6.15 -3.97,11.15 -8.92,13.45l-2.73 -7.2c-0.03,-0.11 -0.09,-0.56 -0.18,-0.79 -6.42,5.82 -9.82,22.92 -13.41,33.72 -1.83,5.5 -1.97,8.56 -3.93,13.37 -6.4,15.7 -12.1,30.48 -18.85,45.3 -6.81,14.94 -13.45,28.48 -19.88,44.06l-19.41 44.62c-3.28,7.34 -6.11,13.89 -9.63,21.65 -3.94,8.7 -6.01,14.33 -9.23,23.63 -3.05,8.79 -6.82,13.1 -10.12,21.07 -2.85,6.91 -0.45,4.44 -4.19,11.56l-15.41 32.84c-3,5.91 -1.25,5.69 -3.87,11.94l-24.16 53.42c-1.43,1.37 -2.14,1.06 -1.45,-2.78 0.94,-5.17 2.77,-8.63 4.76,-12.25 3.69,-6.7 4.13,-10.45 7.09,-17.15l17.19 -42.75c1.6,-4.22 2.25,-5.14 3.81,-9.01l63.46 -154.74c4.37,-10.53 10.76,-23.63 13.2,-35.46z"/>
 </g>
</svg>
