<?xml version="1.0" encoding="UTF-8"?>
<!DOCTYPE svg PUBLIC "-//W3C//DTD SVG 1.1//EN" "http://www.w3.org/Graphics/SVG/1.1/DTD/svg11.dtd">
<!-- Creator: CorelDRAW (Versión OEM) -->
<svg xmlns="http://www.w3.org/2000/svg" xml:space="preserve" width="36.2636mm" height="173.699mm" version="1.1" style="shape-rendering:geometricPrecision; text-rendering:geometricPrecision; image-rendering:optimizeQuality; fill-rule:evenodd; clip-rule:evenodd"
viewBox="0 0 3626.36 17369.86"
 xmlns:xlink="http://www.w3.org/1999/xlink"
 xmlns:xodm="http://www.corel.com/coreldraw/odm/2003">
 <defs>
  <style type="text/css">
   <![CDATA[
    .fil2 {fill:#0B0B0B}
    .fil0 {fill:#EDEAE0}
    .fil1 {fill:#F2E6C9}
    .fil3 {fill:#ED3237;fill-rule:nonzero}
   ]]>
  </style>
 </defs>
 <g id="extraction">
  <metadata id="CorelCorpID_0Corel-Layer"/>
  <polygon id="crown" class="fil0" points="1333.7,767.79 876.59,767.79 876.59,798.27 632.78,798.27 632.78,828.76 510.91,828.76 510.91,859.21 419.49,859.21 419.49,889.69 358.52,889.69 358.52,920.18 328.07,920.18 328.07,950.63 297.59,950.63 297.59,981.11 267.1,981.11 267.1,1011.6 236.65,1011.6 236.65,1163.95 206.16,1163.95 206.16,1377.28 175.68,1377.28 175.68,1864.83 206.16,1864.83 206.16,2230.52 236.65,2230.52 236.65,2474.29 267.1,2474.29 267.1,2779.04 297.59,2779.04 297.59,2961.88 328.07,2961.88 328.07,3144.72 358.52,3144.72 358.52,3327.56 389.01,3327.56 389.01,3479.92 419.49,3479.92 419.49,3632.31 449.94,3632.31 449.94,3784.66 480.43,3784.66 480.43,3997.99 510.91,3997.99 510.91,4150.34 541.36,4150.34 541.36,4272.25 571.85,4272.25 571.85,4424.61 602.33,4424.61 602.33,4576.96 632.78,4576.96 632.78,4698.87 663.27,4698.87 663.27,4820.77 693.75,4820.77 693.75,4881.71 724.2,4881.71 724.2,5034.06 754.69,5034.06 754.69,5125.48 785.17,5125.48 785.17,5247.39 815.62,5247.39 815.62,5308.33 846.11,5308.33 846.11,5399.75 876.59,5399.75 876.59,5491.17 907.04,5491.17 907.04,5552.14 937.53,5552.14 937.53,5643.56 968.01,5643.56 968.01,5704.49 998.46,5704.49 998.46,5765.43 1028.95,5765.43 1028.95,5826.4 1059.43,5826.4 1059.43,5887.33 1089.88,5887.33 1089.88,5917.82 1120.37,5917.82 1120.37,5978.75 1150.85,5978.75 1150.85,6009.24 1181.3,6009.24 1181.3,6070.17 1211.79,6070.17 1211.79,6100.66 1242.28,6100.66 1242.28,6131.11 1272.72,6131.11 1272.72,6161.59 1303.21,6161.59 1303.21,6192.08 1333.7,6192.08 1333.7,6222.53 1364.15,6222.53 1364.15,6253.02 1394.63,6253.02 1394.63,6283.5 1425.12,6283.5 1425.12,6313.95 1486.05,6313.95 1486.05,6344.44 1546.99,6344.44 1546.99,6374.92 1577.47,6374.92 1577.47,6405.37 1699.38,6405.37 1699.38,6435.86 1973.64,6435.86 1973.64,6405.37 2095.51,6405.37 2095.51,6374.92 2125.99,6374.92 2125.99,6344.44 2217.41,6344.44 2217.41,6313.95 2247.9,6313.95 2247.9,6283.5 2278.35,6283.5 2278.35,6253.02 2339.32,6253.02 2339.32,6222.53 2369.77,6222.53 2369.77,6161.59 2400.26,6161.59 2400.26,6131.11 2430.74,6131.11 2430.74,6100.66 2461.19,6100.66 2461.19,6070.17 2491.68,6070.17 2491.68,6039.69 2522.16,6039.69 2522.16,5978.75 2552.61,5978.75 2552.61,5948.27 2583.1,5948.27 2583.1,5887.33 2613.58,5887.33 2613.58,5826.4 2644.03,5826.4 2644.03,5765.43 2674.52,5765.43 2674.52,5704.49 2705,5704.49 2705,5643.56 2735.45,5643.56 2735.45,5582.59 2765.94,5582.59 2765.94,5521.65 2796.42,5521.65 2796.42,5430.23 2826.87,5430.23 2826.87,5338.81 2857.36,5338.81 2857.36,5247.39 2887.84,5247.39 2887.84,5186.46 2918.29,5186.46 2918.29,5095.03 2948.78,5095.03 2948.78,5034.06 2979.26,5034.06 2979.26,4942.64 3009.71,4942.64 3009.71,4820.77 3040.2,4820.77 3040.2,4698.87 3070.68,4698.87 3070.68,4576.96 3101.13,4576.96 3101.13,4455.09 3131.62,4455.09 3131.62,4241.77 3162.1,4241.77 3162.1,4089.41 3192.55,4089.41 3192.55,3937.02 3223.04,3937.02 3223.04,3784.66 3253.53,3784.66 3253.53,3479.92 3283.97,3479.92 3283.97,3266.63 3314.46,3266.63 3314.46,3083.78 3344.95,3083.78 3344.95,2870.46 3375.4,2870.46 3375.4,2413.36 3405.88,2413.36 3405.88,2017.19 3436.37,2017.19 3436.37,1103.02 3405.88,1103.02 3405.88,1011.6 3375.4,1011.6 3375.4,950.63 3344.95,950.63 3344.95,889.69 3314.46,889.69 3314.46,859.21 3253.53,859.21 3253.53,828.76 3192.55,828.76 3192.55,798.27 3131.62,798.27 3131.62,767.79 2765.94,767.79 2765.94,737.34 1333.7,737.34 "/>
  <polygon id="root" class="fil1" points="2918.29,5674.01 2887.84,5674.01 2887.84,5765.43 2857.36,5765.43 2857.36,5826.4 2826.87,5826.4 2826.87,5856.85 2796.42,5856.85 2796.42,5917.82 2765.94,5917.82 2765.94,5978.75 2735.45,5978.75 2735.45,6039.69 2705,6039.69 2705,6070.17 2674.52,6070.17 2674.52,6131.11 2644.03,6131.11 2644.03,6161.59 2613.58,6161.59 2613.58,6192.08 2583.1,6192.08 2583.1,6222.53 2552.61,6222.53 2552.61,6283.5 2522.16,6283.5 2522.16,6313.95 2491.68,6313.95 2491.68,6344.44 2461.19,6344.44 2461.19,6374.92 2430.74,6374.92 2430.74,6405.37 2369.77,6405.37 2369.77,6435.86 2339.32,6435.86 2339.32,6466.34 2308.84,6466.34 2308.84,6496.79 2247.9,6496.79 2247.9,6527.28 2186.93,6527.28 2186.93,6557.76 2095.51,6557.76 2095.51,6588.21 2034.57,6588.21 2034.57,6618.7 1760.31,6618.7 1760.31,6588.21 1577.47,6588.21 1577.47,6557.76 1516.54,6557.76 1516.54,6527.28 1455.57,6527.28 1455.57,6496.79 1394.63,6496.79 1394.63,6466.34 1364.15,6466.34 1364.15,6435.86 1303.21,6435.86 1303.21,6405.37 1272.72,6405.37 1272.72,6374.92 1242.28,6374.92 1242.28,6344.44 1211.79,6344.44 1211.79,6313.95 1181.3,6313.95 1181.3,6283.5 1150.85,6283.5 1150.85,6253.02 1120.37,6253.02 1120.37,6222.53 1089.88,6222.53 1089.88,6192.08 1059.43,6192.08 1059.43,6131.11 1028.95,6131.11 1028.95,6100.66 998.46,6100.66 998.46,6070.17 968.01,6070.17 968.01,6009.24 937.53,6009.24 937.53,5948.27 907.04,5948.27 907.04,5887.33 876.59,5887.33 876.59,5826.4 846.11,5826.4 846.11,5765.43 815.62,5765.43 815.62,5704.49 785.17,5704.49 785.17,5674.01 754.69,5674.01 754.69,6253.02 785.17,6253.02 785.17,6618.7 815.62,6618.7 815.62,7289.13 846.11,7289.13 846.11,7715.74 876.59,7715.74 876.59,8111.91 907.04,8111.91 907.04,8386.17 937.53,8386.17 937.53,8873.72 968.01,8873.72 968.01,9056.56 998.46,9056.56 998.46,9361.31 1028.95,9361.31 1028.95,9635.57 1059.43,9635.57 1059.43,9848.86 1089.88,9848.86 1089.88,10153.61 1120.37,10153.61 1120.37,10336.45 1150.85,10336.45 1150.85,10580.23 1181.3,10580.23 1181.3,10824.04 1211.79,10824.04 1211.79,11128.75 1242.28,11128.75 1242.28,11433.5 1272.72,11433.5 1272.72,11677.27 1303.21,11677.27 1303.21,12042.95 1333.7,12042.95 1333.7,13779.94 1364.15,13779.94 1364.15,14237.05 1394.63,14237.05 1394.63,14328.47 1425.12,14328.47 1425.12,14419.89 1455.57,14419.89 1455.57,14511.31 1486.05,14511.31 1486.05,14572.28 1516.54,14572.28 1516.54,14602.73 1546.99,14602.73 1546.99,14633.21 1638.41,14633.21 1638.41,14602.73 1668.89,14602.73 1668.89,14572.28 1729.83,14572.28 1729.83,14511.31 1760.31,14511.31 1760.31,14480.86 1790.8,14480.86 1790.8,14450.37 1821.25,14450.37 1821.25,14389.44 1851.73,14389.44 1851.73,14328.47 1882.22,14328.47 1882.22,14267.53 1912.67,14267.53 1912.67,14206.6 1943.15,14206.6 1943.15,14115.18 1973.64,14115.18 1973.64,14054.2 2004.09,14054.2 2004.09,13962.78 2034.57,13962.78 2034.57,13871.36 2065.06,13871.36 2065.06,13779.94 2095.51,13779.94 2095.51,13658.07 2125.99,13658.07 2125.99,13597.1 2156.48,13597.1 2156.48,13475.23 2186.93,13475.23 2186.93,13353.33 2217.41,13353.33 2217.41,13261.91 2247.9,13261.91 2247.9,13109.55 2278.35,13109.55 2278.35,12987.64 2308.84,12987.64 2308.84,12835.29 2339.32,12835.29 2339.32,12743.87 2369.77,12743.87 2369.77,12621.96 2400.26,12621.96 2400.26,12408.64 2430.74,12408.64 2430.74,12286.77 2461.19,12286.77 2461.19,12103.92 2491.68,12103.92 2491.68,11951.53 2522.16,11951.53 2522.16,11707.76 2552.61,11707.76 2552.61,11555.4 2583.1,11555.4 2583.1,11372.56 2613.58,11372.56 2613.58,11128.75 2644.03,11128.75 2644.03,10854.49 2674.52,10854.49 2674.52,10610.71 2705,10610.71 2705,10123.12 2735.45,10123.12 2735.45,9848.86 2765.94,9848.86 2765.94,9208.96 2796.42,9208.96 2796.42,8508.04 2826.87,8508.04 2826.87,7776.68 2857.36,7776.68 2857.36,7471.97 2887.84,7471.97 2887.84,6710.12 2918.29,6710.12 2918.29,6100.66 2948.78,6100.66 2948.78,5613.07 2918.29,5613.07 "/>
  <path id="outline" class="fil2" d="M2918.29 6710.12l-30.45 0 0 761.85 -30.48 0 0 304.71 -30.49 0 0 731.36 -30.45 0 0 700.92 -30.48 0 0 639.9 -30.49 0 0 274.26 -30.45 0 0 487.59 -30.48 0 0 243.78 -30.49 0 0 274.26 -30.45 0 0 243.81 -30.48 0 0 182.84 -30.49 0 0 152.36 -30.45 0 0 243.77 -30.48 0 0 152.39 -30.49 0 0 182.85 -30.45 0 0 121.87 -30.48 0 0 213.32 -30.49 0 0 121.91 -30.45 0 0 91.42 -30.48 0 0 152.35 -30.49 0 0 121.91 -30.45 0 0 152.36 -30.49 0 0 91.42 -30.48 0 0 121.9 -30.45 0 0 121.87 -30.49 0 0 60.97 -30.48 0 0 121.87 -30.45 0 0 91.42 -30.49 0 0 91.42 -30.48 0 0 91.42 -30.45 0 0 60.98 -30.49 0 0 91.42 -30.48 0 0 60.93 -30.45 0 0 60.94 -30.49 0 0 60.97 -30.48 0 0 60.93 -30.45 0 0 30.49 -30.49 0 0 30.45 -30.48 0 0 60.97 -60.94 0 0 30.45 -30.48 0 0 30.48 -91.42 0 0 -30.48 -30.45 0 0 -30.45 -30.49 0 0 -60.97 -30.48 0 0 -91.42 -30.45 0 0 -91.42 -30.49 0 0 -91.42 -30.48 0 0 -457.11 -30.45 0 0 -1736.99 -30.49 0 0 -365.68 -30.49 0 0 -243.77 -30.44 0 0 -304.75 -30.49 0 0 -304.71 -30.49 0 0 -243.81 -30.45 0 0 -243.78 -30.48 0 0 -182.84 -30.49 0 0 -304.75 -30.45 0 0 -213.29 -30.48 0 0 -274.26 -30.49 0 0 -304.75 -30.45 0 0 -182.84 -30.48 0 0 -487.55 -30.49 0 0 -274.26 -30.45 0 0 -396.17 -30.48 0 0 -426.61 -30.49 0 0 -670.43 -30.45 0 0 -365.68 -30.48 0 0 -579.01 30.48 0 0 30.48 30.45 0 0 60.94 30.49 0 0 60.97 30.48 0 0 60.93 30.45 0 0 60.94 30.49 0 0 60.97 30.48 0 0 60.93 30.45 0 0 30.49 30.49 0 0 30.45 30.48 0 0 60.97 30.45 0 0 30.45 30.49 0 0 30.49 30.48 0 0 30.48 30.45 0 0 30.45 30.49 0 0 30.49 30.49 0 0 30.48 30.44 0 0 30.45 30.49 0 0 30.49 60.94 0 0 30.48 30.48 0 0 30.45 60.94 0 0 30.49 60.97 0 0 30.48 60.93 0 0 30.45 182.84 0 0 30.49 274.26 0 0 -30.49 60.94 0 0 -30.45 91.42 0 0 -30.48 60.97 0 0 -30.49 60.94 0 0 -30.45 30.48 0 0 -30.48 30.45 0 0 -30.49 60.97 0 0 -30.45 30.45 0 0 -30.48 30.49 0 0 -30.49 30.48 0 0 -30.45 30.45 0 0 -60.97 30.49 0 0 -30.45 30.48 0 0 -30.49 30.45 0 0 -30.48 30.49 0 0 -60.94 30.48 0 0 -30.48 30.45 0 0 -60.94 30.49 0 0 -60.93 30.48 0 0 -60.97 30.45 0 0 -30.45 30.49 0 0 -60.97 30.48 0 0 -91.42 30.45 0 0 -60.94 30.49 0 0 487.59 -30.49 0 0 609.46zm-2742.61 -5332.84l30.48 0 0 -213.33 30.49 0 0 -152.35 30.45 0 0 -30.49 30.49 0 0 -30.48 30.48 0 0 -30.45 30.45 0 0 -30.49 60.97 0 0 -30.48 91.42 0 0 -30.45 121.87 0 0 -30.49 243.81 0 0 -30.48 457.11 0 0 -30.45 1432.24 0 0 30.45 365.68 0 0 30.48 60.93 0 0 30.49 60.98 0 0 30.45 60.93 0 0 30.48 30.49 0 0 60.94 30.45 0 0 60.97 30.48 0 0 91.42 30.49 0 0 914.17 -30.49 0 0 396.17 -30.48 0 0 457.1 -30.45 0 0 213.32 -30.49 0 0 182.85 -30.49 0 0 213.29 -30.44 0 0 304.74 -30.49 0 0 152.36 -30.49 0 0 152.39 -30.45 0 0 152.36 -30.48 0 0 213.32 -30.49 0 0 121.87 -30.45 0 0 121.91 -30.48 0 0 121.9 -30.49 0 0 121.87 -30.45 0 0 91.42 -30.48 0 0 60.97 -30.49 0 0 91.43 -30.45 0 0 60.93 -30.48 0 0 91.42 -30.49 0 0 91.42 -30.45 0 0 91.42 -30.48 0 0 60.94 -30.49 0 0 60.97 -30.45 0 0 60.93 -30.48 0 0 60.94 -30.49 0 0 60.97 -30.45 0 0 60.93 -30.48 0 0 60.94 -30.49 0 0 30.48 -30.45 0 0 60.94 -30.48 0 0 30.48 -30.49 0 0 30.49 -30.45 0 0 30.45 -30.48 0 0 30.48 -30.49 0 0 60.94 -30.45 0 0 30.49 -60.97 0 0 30.48 -30.45 0 0 30.45 -30.49 0 0 30.49 -91.42 0 0 30.48 -30.48 0 0 30.45 -121.87 0 0 30.49 -274.26 0 0 -30.49 -121.91 0 0 -30.45 -30.48 0 0 -30.48 -60.94 0 0 -30.49 -60.93 0 0 -30.45 -30.49 0 0 -30.48 -30.48 0 0 -30.49 -30.45 0 0 -30.45 -30.49 0 0 -30.49 -30.49 0 0 -30.48 -30.44 0 0 -30.45 -30.49 0 0 -30.49 -30.49 0 0 -60.93 -30.45 0 0 -30.49 -30.48 0 0 -60.93 -30.49 0 0 -30.49 -30.45 0 0 -60.93 -30.48 0 0 -60.97 -30.49 0 0 -60.94 -30.45 0 0 -60.93 -30.48 0 0 -91.42 -30.49 0 0 -60.97 -30.45 0 0 -91.42 -30.48 0 0 -91.42 -30.49 0 0 -60.94 -30.45 0 0 -121.91 -30.48 0 0 -91.42 -30.49 0 0 -152.35 -30.45 0 0 -60.94 -30.48 0 0 -121.9 -30.49 0 0 -121.91 -30.45 0 0 -152.35 -30.48 0 0 -152.36 -30.49 0 0 -121.91 -30.45 0 0 -152.35 -30.48 0 0 -213.33 -30.49 0 0 -152.35 -30.45 0 0 -152.39 -30.48 0 0 -152.36 -30.49 0 0 -182.84 -30.45 0 0 -182.84 -30.48 0 0 -182.84 -30.49 0 0 -304.75 -30.45 0 0 -243.77 -30.49 0 0 -365.69 -30.48 0 0 -487.55zm1127.53 -822.78l-304.75 0 0 30.45 -274.26 0 0 30.48 -182.84 0 0 30.49 -91.42 0 0 30.45 -91.42 0 0 30.48 -60.93 0 0 30.49 -60.94 0 0 30.45 -30.49 0 0 30.48 -30.48 0 0 30.49 -30.45 0 0 30.45 -30.49 0 0 30.48 -30.48 0 0 60.94 -30.45 0 0 91.42 -30.49 0 0 152.39 -30.48 0 0 761.81 30.48 0 0 335.2 30.49 0 0 274.26 30.45 0 0 274.26 30.48 0 0 182.84 30.49 0 0 152.4 30.45 0 0 182.84 30.48 0 0 152.35 30.49 0 0 182.84 30.45 0 0 182.84 30.49 0 0 182.84 30.48 0 0 121.91 30.45 0 0 152.36 30.49 0 0 182.84 30.48 0 0 121.9 30.45 0 0 91.42 30.49 0 0 152.36 30.48 0 0 396.17 30.45 0 0 457.1 30.49 0 0 548.52 30.48 0 0 639.94 30.45 0 0 487.56 30.49 0 0 335.23 30.48 0 0 365.68 30.45 0 0 365.68 30.49 0 0 396.13 30.48 0 0 213.33 30.45 0 0 304.75 30.49 0 0 335.19 30.48 0 0 243.78 30.45 0 0 182.84 30.49 0 0 243.78 30.48 0 0 213.32 30.45 0 0 304.75 30.49 0 0 243.77 30.48 0 0 274.27 30.45 0 0 213.32 30.49 0 0 457.1 30.48 0 0 1615.09 30.45 0 0 457.1 30.49 0 0 243.78 30.49 0 0 60.97 30.44 0 0 60.93 30.49 0 0 60.94 30.49 0 0 60.97 30.45 0 0 30.45 30.48 0 0 30.48 30.49 0 0 30.49 30.45 0 0 30.45 60.97 0 0 30.48 152.35 0 0 -30.48 91.42 0 0 -30.45 30.49 0 0 -30.49 30.45 0 0 -30.48 60.97 0 0 -30.45 30.45 0 0 -60.97 30.48 0 0 -30.45 30.49 0 0 -60.97 30.45 0 0 -60.94 30.48 0 0 -30.48 30.49 0 0 -91.42 30.45 0 0 -60.94 30.48 0 0 -91.42 30.49 0 0 -60.93 30.45 0 0 -91.43 30.48 0 0 -91.42 30.49 0 0 -60.97 30.45 0 0 -121.87 30.49 0 0 -121.9 30.48 0 0 -121.91 30.45 0 0 -60.93 30.49 0 0 -91.42 30.48 0 0 -182.84 30.45 0 0 -91.43 30.49 0 0 -152.35 30.48 0 0 -121.91 30.45 0 0 -152.35 30.49 0 0 -121.91 30.48 0 0 -182.84 30.45 0 0 -121.91 30.49 0 0 -213.29 30.48 0 0 -243.81 30.45 0 0 -121.87 30.49 0 0 -274.26 30.48 0 0 -243.81 30.45 0 0 -243.78 30.49 0 0 -304.74 30.48 0 0 -335.2 30.45 0 0 -274.26 30.49 0 0 -761.81 30.48 0 0 -335.24 30.45 0 0 -792.3 30.49 0 0 -609.45 30.48 0 0 -670.43 30.45 0 0 -426.62 30.49 0 0 -731.36 30.48 0 0 -609.5 30.45 0 0 -121.87 30.49 0 0 -152.39 30.49 0 0 -91.42 30.44 0 0 -121.87 30.49 0 0 -182.84 30.49 0 0 -182.84 30.45 0 0 -121.91 30.48 0 0 -182.84 30.49 0 0 -182.84 30.45 0 0 -213.32 30.48 0 0 -274.27 30.49 0 0 -274.26 30.45 0 0 -335.19 30.48 0 0 -304.75 30.49 0 0 -1279.85 -30.49 0 0 -60.97 -30.48 0 0 -91.42 -30.45 0 0 -30.45 -30.49 0 0 -60.97 -30.48 0 0 -30.45 -30.45 0 0 -30.49 -60.97 0 0 -30.48 -30.45 0 0 -30.45 -60.98 0 0 -30.49 -91.42 0 0 -30.48 -152.35 0 0 -30.45 -335.2 0 0 -30.49 -1401.79 0 0 30.49z"/>
  <path class="fil3" d="M-14.74 10123.12l1416.9 -4746.52 -1312.22 -4416.96 808.77 0 613.11 2162.87c113.4,406.1 203.13,735.67 266.68,994.62 110.91,-367.84 209.36,-700.36 297.84,-997.57l645.52 -2159.92 803.77 0 -1319.7 4416.96 1405.69 4746.52 -800.04 0 -802.53 -2824.96 -183.19 -679.76 -1036.81 3504.72 -803.79 0z"/>
 </g>
</svg>
