<?xml version="1.0" encoding="UTF-8"?>
<!DOCTYPE svg PUBLIC "-//W3C//DTD SVG 1.1//EN" "http://www.w3.org/Graphics/SVG/1.1/DTD/svg11.dtd">
<!-- Creator: CorelDRAW (Versión de evaluación) -->
<svg xmlns="http://www.w3.org/2000/svg" xml:space="preserve" width="739px" height="2458px" version="1.1" style="shape-rendering:geometricPrecision; text-rendering:geometricPrecision; image-rendering:optimizeQuality; fill-rule:evenodd; clip-rule:evenodd"
viewBox="0 0 739 2457.4"
 xmlns:xlink="http://www.w3.org/1999/xlink"
 xmlns:xodm="http://www.corel.com/coreldraw/odm/2003">
 <defs>
  <style type="text/css">
   <![CDATA[
    .str0 {stroke:#D6D2C8;stroke-width:10;stroke-miterlimit:22.9256}
    .fil0 {fill:#F5F1E8}
    .fil1 {fill:#DC3438;fill-rule:nonzero}
   ]]>
  </style>
 </defs>
 <g id="tooth-extraction-21">
  <metadata id="CorelCorpID_0Corel-Layer"/>
  <path id="crown" class="fil0 str0" d="M446.26 1515.02c24.06,75.22 174.89,148.54 242.36,176.59 19.76,121.94 93.73,596.63 14.61,689.34 -68.67,80.44 -563.16,94.35 -663.44,56.01 -85.74,-58.86 -18.26,-660.17 64.29,-729.73 42.23,-35.58 121.45,-107.83 126.62,-162.04 39.3,-9.2 38.36,-43.02 97.75,-52.76 48.83,-8 69.89,24.01 117.81,22.59z"/>
  <path id="root" class="fil0 str0" d="M446.26 1515.02c-0.41,-52.24 -202.88,-79.84 -215.56,30.17 -19.62,4.84 -145.34,146.12 -146.88,148.48 -11.41,-72.16 20.13,-387.07 29.57,-476.35 35.52,-335.95 122.91,-523.81 202.77,-813.06 60.54,-219.33 13.69,-366.35 100.4,-404.26 80.88,54.32 154.37,675.96 166.65,802.09l92.94 850.87c-101.21,9.01 -142.84,-133.95 -229.89,-137.94z"/>
  <path class="fil1" d="M-0.41 2457.4l311.67 -1275.03 -274.5 -1182.36 127.11 0 147.02 628.65c30.6,130.42 51.82,229.95 64.02,299.16 18.21,-85.8 39.62,-177.32 64.21,-274l161.1 -653.81 116.97 0 -280.13 1168.06 301.53 1289.33 -131.05 0 -203.53 -876.33c-11.64,-49.77 -22.72,-99.54 -33.23,-148.73 -17.84,82.37 -30.61,140.15 -38.68,172.75l-204.28 852.31 -128.23 0z"/>
 </g>
</svg>
