<?xml version="1.0" encoding="UTF-8"?>
<!DOCTYPE svg PUBLIC "-//W3C//DTD SVG 1.1//EN" "http://www.w3.org/Graphics/SVG/1.1/DTD/svg11.dtd">
<!-- Creator: CorelDRAW (Versión de evaluación) -->
<svg xmlns="http://www.w3.org/2000/svg" xml:space="preserve" width="684px" height="2062px" version="1.1" style="shape-rendering:geometricPrecision; text-rendering:geometricPrecision; image-rendering:optimizeQuality; fill-rule:evenodd; clip-rule:evenodd"
viewBox="0 0 684 2062.8"
 xmlns:xlink="http://www.w3.org/1999/xlink"
 xmlns:xodm="http://www.corel.com/coreldraw/odm/2003">
 <defs>
  <style type="text/css">
   <![CDATA[
    .fil2 {fill:#4B4B4D}
    .fil1 {fill:#EDEAE0}
    .fil0 {fill:#F2E6C9}
    .fil3 {fill:#ED3237;fill-rule:nonzero}
   ]]>
  </style>
 </defs>
 <g id="extraction">
  <metadata id="CorelCorpID_0Corel-Layer"/>
  <polygon id="root" class="fil0" points="302.33,480.82 298.72,480.82 298.72,484.42 295.12,484.42 295.12,491.62 291.53,491.62 291.53,588.82 295.12,588.82 295.12,714.82 291.53,714.82 291.53,747.22 287.92,747.22 287.92,779.63 284.32,779.63 284.32,801.23 280.73,801.23 280.73,819.22 277.12,819.22 277.12,851.62 273.52,851.62 273.52,869.62 269.93,869.62 269.93,902.02 266.32,902.02 266.32,912.82 262.72,912.82 262.72,930.83 259.12,930.83 259.12,941.63 262.72,941.63 262.72,956.02 266.32,956.02 266.32,963.23 269.93,963.23 269.93,977.62 273.52,977.62 273.52,988.42 277.12,988.42 277.12,995.62 280.73,995.62 280.73,1006.42 284.32,1006.42 284.32,1017.22 287.92,1017.22 287.92,1028.02 291.53,1028.02 291.53,1042.42 295.12,1042.42 295.12,1049.62 298.72,1049.62 298.72,1064.02 302.33,1064.02 302.33,1078.43 305.92,1078.43 305.92,1085.62 309.52,1085.62 309.52,1100.03 313.13,1100.03 313.13,1118.02 316.72,1118.02 316.72,1128.82 320.32,1128.82 320.32,1143.23 323.93,1143.23 323.93,1172.02 327.52,1172.02 327.52,1190.02 331.12,1190.02 331.12,1222.42 334.73,1222.42 334.73,1247.63 331.12,1247.63 331.12,1244.02 327.52,1244.02 327.52,1236.82 323.93,1236.82 323.93,1229.63 320.32,1229.63 320.32,1215.22 316.72,1215.22 316.72,1193.62 313.13,1193.62 313.13,1179.22 309.52,1179.22 309.52,1168.42 305.92,1168.42 305.92,1143.23 302.33,1143.23 302.33,1136.02 298.72,1136.02 298.72,1121.63 295.12,1121.63 295.12,1103.62 291.53,1103.62 291.53,1096.42 287.92,1096.42 287.92,1085.62 284.32,1085.62 284.32,1071.22 280.73,1071.22 280.73,1056.83 277.12,1056.83 277.12,1049.62 273.52,1049.62 273.52,1035.23 269.93,1035.23 269.93,1024.43 266.32,1024.43 266.32,1017.22 262.72,1017.22 262.72,1010.02 259.12,1010.02 259.12,995.62 255.52,995.62 255.52,988.42 251.92,988.42 251.92,977.62 248.32,977.62 248.32,966.82 244.72,966.82 244.72,956.02 241.12,956.02 241.12,948.83 237.52,948.83 237.52,934.42 233.92,934.42 233.92,923.62 230.32,923.62 230.32,912.82 226.72,912.82 226.72,905.62 223.12,905.62 223.12,891.22 219.52,891.22 219.52,880.42 215.92,880.42 215.92,848.02 212.32,848.02 212.32,833.63 208.72,833.63 208.72,794.02 205.12,794.02 205.12,768.83 201.52,768.83 201.52,754.42 197.92,754.42 197.92,722.02 194.32,722.02 194.32,657.22 190.72,657.22 190.72,628.42 187.12,628.42 187.12,603.22 183.52,603.22 183.52,585.22 179.92,585.22 179.92,578.02 176.32,578.02 176.32,570.82 172.72,570.82 172.72,567.22 169.12,567.22 169.12,563.62 154.72,563.62 154.72,567.22 151.12,567.22 151.12,570.82 147.52,570.82 147.52,574.42 143.92,574.42 143.92,581.62 140.32,581.62 140.32,588.82 136.72,588.82 136.72,592.42 133.12,592.42 133.12,603.22 129.52,603.22 129.52,610.42 125.92,610.42 125.92,621.22 122.32,621.22 122.32,632.02 118.72,632.02 118.72,646.42 115.12,646.42 115.12,653.62 111.52,653.62 111.52,668.02 107.92,668.02 107.92,689.62 104.32,689.62 104.32,707.62 100.72,707.62 100.72,725.62 97.12,725.62 97.12,747.22 93.52,747.22 93.52,783.22 89.92,783.22 89.92,812.03 86.32,812.03 86.32,830.02 82.72,830.02 82.72,858.82 79.12,858.82 79.12,1017.22 82.72,1017.22 82.72,1056.83 86.32,1056.83 86.32,1074.82 89.92,1074.82 89.92,1100.03 93.52,1100.03 93.52,1121.63 97.12,1121.63 97.12,1146.82 100.72,1146.82 100.72,1172.02 104.32,1172.02 104.32,1200.82 107.92,1200.82 107.92,1244.02 111.52,1244.02 111.52,1398.83 107.92,1398.83 107.92,1420.43 104.32,1420.43 104.32,1463.63 100.72,1463.63 100.72,1467.23 111.52,1467.23 111.52,1463.63 118.72,1463.63 118.72,1460.03 133.12,1460.03 133.12,1456.43 140.32,1456.43 140.32,1452.83 147.52,1452.83 147.52,1449.23 161.92,1449.23 161.92,1445.63 172.72,1445.63 172.72,1442.03 187.12,1442.03 187.12,1438.43 208.72,1438.43 208.72,1434.83 223.12,1434.83 223.12,1431.23 259.12,1431.23 259.12,1427.63 367.13,1427.63 367.13,1431.23 399.53,1431.23 399.53,1434.83 428.32,1434.83 428.32,1438.43 442.73,1438.43 442.73,1442.03 457.12,1442.03 457.12,1445.63 475.13,1445.63 475.13,1449.23 493.12,1449.23 493.12,1452.83 503.92,1452.83 503.92,1456.43 514.72,1456.43 514.72,1460.03 525.52,1460.03 525.52,1463.63 536.32,1463.63 536.32,1467.23 543.52,1467.23 543.52,1470.83 554.32,1470.83 554.32,1474.43 561.53,1474.43 561.53,1478.03 568.73,1478.03 568.73,1481.63 575.92,1481.63 575.92,1485.23 583.13,1485.23 583.13,1488.83 590.33,1488.83 590.33,1492.43 597.52,1492.43 597.52,1496.03 604.73,1496.03 604.73,1499.63 608.32,1499.63 608.32,1474.43 604.73,1474.43 604.73,1452.83 601.13,1452.83 601.13,1298.02 604.73,1298.02 604.73,1265.62 608.32,1265.62 608.32,1218.83 611.93,1218.83 611.93,1182.82 615.53,1182.82 615.53,1049.62 611.93,1049.62 611.93,1006.42 608.32,1006.42 608.32,984.82 604.73,984.82 604.73,952.43 601.13,952.43 601.13,934.42 597.52,934.42 597.52,916.42 593.93,916.42 593.93,894.82 590.33,894.82 590.33,884.02 586.72,884.02 586.72,866.03 583.13,866.03 583.13,844.43 579.53,844.43 579.53,822.83 575.92,822.83 575.92,812.03 572.33,812.03 572.33,797.62 568.73,797.62 568.73,786.82 565.12,786.82 565.12,776.02 561.53,776.02 561.53,765.22 557.92,765.22 557.92,754.42 554.32,754.42 554.32,743.62 550.73,743.62 550.73,732.82 547.12,732.82 547.12,722.02 543.52,722.02 543.52,711.22 539.93,711.22 539.93,704.02 536.32,704.02 536.32,693.22 532.72,693.22 532.72,686.02 529.13,686.02 529.13,678.82 525.52,678.82 525.52,675.22 521.92,675.22 521.92,668.02 518.33,668.02 518.33,660.82 514.72,660.82 514.72,657.22 511.12,657.22 511.12,653.62 507.53,653.62 507.53,650.02 503.92,650.02 503.92,646.42 496.73,646.42 496.73,642.82 489.52,642.82 489.52,646.42 485.93,646.42 485.93,653.62 482.32,653.62 482.32,671.62 478.72,671.62 478.72,819.22 475.13,819.22 475.13,862.42 471.52,862.42 471.52,898.43 467.92,898.43 467.92,927.23 464.33,927.23 464.33,952.43 460.72,952.43 460.72,977.62 457.12,977.62 457.12,992.03 453.53,992.03 453.53,1013.63 449.92,1013.63 449.92,1031.62 446.32,1031.62 446.32,1046.03 442.73,1046.03 442.73,1064.02 439.12,1064.02 439.12,1074.82 435.52,1074.82 435.52,1089.23 431.93,1089.23 431.93,1100.03 428.32,1100.03 428.32,1114.42 424.72,1114.42 424.72,1132.43 421.13,1132.43 421.13,1143.23 417.52,1143.23 417.52,1157.62 413.92,1157.62 413.92,1164.83 410.33,1164.83 410.33,1179.22 406.72,1179.22 406.72,1190.02 403.12,1190.02 403.12,1200.82 399.53,1200.82 399.53,1211.62 395.92,1211.62 395.92,1222.42 392.32,1222.42 392.32,1229.63 388.73,1229.63 388.73,1240.43 385.12,1240.43 385.12,1244.02 381.52,1244.02 381.52,1251.23 377.93,1251.23 377.93,1258.43 374.32,1258.43 374.32,1262.03 370.72,1262.03 370.72,1265.62 367.13,1265.62 367.13,1269.23 363.52,1269.23 363.52,1272.83 359.92,1272.83 359.92,1276.42 356.33,1276.42 356.33,1280.03 349.12,1280.03 349.12,1283.63 341.92,1283.63 341.92,1287.22 334.73,1287.22 334.73,1290.83 309.52,1290.83 309.52,1283.63 320.32,1283.63 320.32,1280.03 327.52,1280.03 327.52,1276.42 334.73,1276.42 334.73,1272.83 341.92,1272.83 341.92,1269.23 345.53,1269.23 345.53,1265.62 349.12,1265.62 349.12,1262.03 352.72,1262.03 352.72,1258.43 356.33,1258.43 356.33,1254.82 359.92,1254.82 359.92,1251.23 363.52,1251.23 363.52,1244.02 367.13,1244.02 367.13,1236.82 370.72,1236.82 370.72,1226.02 374.32,1226.02 374.32,1218.83 377.93,1218.83 377.93,1208.03 381.52,1208.03 381.52,1197.23 385.12,1197.23 385.12,1182.82 388.73,1182.82 388.73,1172.02 392.32,1172.02 392.32,1161.22 395.92,1161.22 395.92,1150.42 399.53,1150.42 399.53,1132.43 403.12,1132.43 403.12,1125.22 406.72,1125.22 406.72,1110.83 410.33,1110.83 410.33,1096.42 413.92,1096.42 413.92,1074.82 417.52,1074.82 417.52,1067.63 421.13,1067.63 421.13,1046.03 424.72,1046.03 424.72,1031.62 428.32,1031.62 428.32,1020.82 431.93,1020.82 431.93,1002.83 435.52,1002.83 435.52,988.42 439.12,988.42 439.12,966.82 442.73,966.82 442.73,948.83 439.12,948.83 439.12,927.23 435.52,927.23 435.52,898.43 431.93,898.43 431.93,880.42 428.32,880.42 428.32,851.62 424.72,851.62 424.72,819.22 421.13,819.22 421.13,790.43 417.52,790.43 417.52,768.83 413.92,768.83 413.92,740.02 410.33,740.02 410.33,725.62 406.72,725.62 406.72,704.02 403.12,704.02 403.12,678.82 399.53,678.82 399.53,668.02 395.92,668.02 395.92,650.02 392.32,650.02 392.32,632.02 388.73,632.02 388.73,624.82 385.12,624.82 385.12,610.42 381.52,610.42 381.52,596.02 377.93,596.02 377.93,581.62 374.32,581.62 374.32,574.42 370.72,574.42 370.72,563.62 367.13,563.62 367.13,556.42 363.52,556.42 363.52,545.62 359.92,545.62 359.92,534.82 356.33,534.82 356.33,527.62 352.72,527.62 352.72,520.42 349.12,520.42 349.12,513.22 345.53,513.22 345.53,506.02 341.92,506.02 341.92,498.82 338.32,498.82 338.32,495.22 334.73,495.22 334.73,488.02 331.12,488.02 331.12,484.42 327.52,484.42 327.52,480.82 323.93,480.82 323.93,477.22 302.33,477.22 "/>
  <polygon id="crown" class="fil1" points="251.92,1449.23 219.52,1449.23 219.52,1452.83 197.92,1452.83 197.92,1456.43 179.92,1456.43 179.92,1460.03 161.92,1460.03 161.92,1463.63 151.12,1463.63 151.12,1467.23 140.32,1467.23 140.32,1470.83 133.12,1470.83 133.12,1474.43 118.72,1474.43 118.72,1478.03 111.52,1478.03 111.52,1481.63 104.32,1481.63 104.32,1485.23 100.72,1485.23 100.72,1488.83 97.12,1488.83 97.12,1492.43 93.52,1492.43 93.52,1499.63 89.92,1499.63 89.92,1503.23 86.32,1503.23 86.32,1510.43 82.72,1510.43 82.72,1521.23 79.12,1521.23 79.12,1528.43 75.52,1528.43 75.52,1539.23 71.92,1539.23 71.92,1546.43 68.32,1546.43 68.32,1557.23 64.72,1557.23 64.72,1564.43 61.12,1564.43 61.12,1575.23 57.52,1575.23 57.52,1586.03 53.92,1586.03 53.92,1596.83 50.32,1596.83 50.32,1604.03 46.72,1604.03 46.72,1622.03 43.12,1622.03 43.12,1632.83 39.52,1632.83 39.52,1650.83 35.92,1650.83 35.92,1661.63 32.32,1661.63 32.32,1676.03 28.72,1676.03 28.72,1704.83 25.12,1704.83 25.12,1773.23 28.72,1773.23 28.72,1791.23 32.32,1791.23 32.32,1802.03 35.92,1802.03 35.92,1812.83 39.52,1812.83 39.52,1820.03 43.12,1820.03 43.12,1830.83 46.72,1830.83 46.72,1838.03 50.32,1838.03 50.32,1845.23 53.92,1845.23 53.92,1856.03 57.52,1856.03 57.52,1863.23 61.12,1863.23 61.12,1866.83 64.72,1866.83 64.72,1874.03 68.32,1874.03 68.32,1877.63 71.92,1877.63 71.92,1884.83 75.52,1884.83 75.52,1888.43 79.12,1888.43 79.12,1895.63 82.72,1895.63 82.72,1899.23 86.32,1899.23 86.32,1902.83 89.92,1902.83 89.92,1906.43 93.52,1906.43 93.52,1913.63 97.12,1913.63 97.12,1917.23 100.72,1917.23 100.72,1920.83 104.32,1920.83 104.32,1924.43 111.52,1924.43 111.52,1928.03 115.12,1928.03 115.12,1931.63 118.72,1931.63 118.72,1935.23 125.92,1935.23 125.92,1938.83 133.12,1938.83 133.12,1942.43 143.92,1942.43 143.92,1946.03 179.92,1946.03 179.92,1942.43 194.32,1942.43 194.32,1938.83 223.12,1938.83 223.12,1935.23 230.32,1935.23 230.32,1931.63 259.12,1931.63 259.12,1928.03 298.72,1928.03 298.72,1924.43 295.12,1924.43 295.12,1917.23 291.53,1917.23 291.53,1910.03 287.92,1910.03 287.92,1892.03 284.32,1892.03 284.32,1870.43 287.92,1870.43 287.92,1866.83 273.52,1866.83 273.52,1870.43 262.72,1870.43 262.72,1874.03 251.92,1874.03 251.92,1877.63 241.12,1877.63 241.12,1881.23 230.32,1881.23 230.32,1884.83 223.12,1884.83 223.12,1888.43 212.32,1888.43 212.32,1892.03 205.12,1892.03 205.12,1895.63 183.52,1895.63 183.52,1899.23 161.92,1899.23 161.92,1895.63 154.72,1895.63 154.72,1892.03 147.52,1892.03 147.52,1888.43 140.32,1888.43 140.32,1884.83 136.72,1884.83 136.72,1881.23 129.52,1881.23 129.52,1877.63 125.92,1877.63 125.92,1874.03 122.32,1874.03 122.32,1866.83 118.72,1866.83 118.72,1863.23 115.12,1863.23 115.12,1859.63 111.52,1859.63 111.52,1852.43 107.92,1852.43 107.92,1848.83 104.32,1848.83 104.32,1841.63 100.72,1841.63 100.72,1830.83 97.12,1830.83 97.12,1827.23 93.52,1827.23 93.52,1809.23 104.32,1809.23 104.32,1823.63 107.92,1823.63 107.92,1827.23 111.52,1827.23 111.52,1834.43 115.12,1834.43 115.12,1841.63 118.72,1841.63 118.72,1845.23 122.32,1845.23 122.32,1848.83 125.92,1848.83 125.92,1856.03 129.52,1856.03 129.52,1859.63 133.12,1859.63 133.12,1863.23 136.72,1863.23 136.72,1866.83 140.32,1866.83 140.32,1870.43 147.52,1870.43 147.52,1874.03 151.12,1874.03 151.12,1877.63 158.32,1877.63 158.32,1881.23 187.12,1881.23 187.12,1877.63 201.52,1877.63 201.52,1874.03 212.32,1874.03 212.32,1870.43 219.52,1870.43 219.52,1866.83 230.32,1866.83 230.32,1863.23 241.12,1863.23 241.12,1859.63 251.92,1859.63 251.92,1856.03 259.12,1856.03 259.12,1852.43 273.52,1852.43 273.52,1848.83 302.33,1848.83 302.33,1841.63 298.72,1841.63 298.72,1830.83 295.12,1830.83 295.12,1816.43 291.53,1816.43 291.53,1809.23 287.92,1809.23 287.92,1737.23 295.12,1737.23 295.12,1755.23 298.72,1755.23 298.72,1769.63 302.33,1769.63 302.33,1805.63 305.92,1805.63 305.92,1812.83 309.52,1812.83 309.52,1827.23 313.13,1827.23 313.13,1834.43 316.72,1834.43 316.72,1845.23 320.32,1845.23 320.32,1848.83 323.93,1848.83 323.93,1852.43 327.52,1852.43 327.52,1856.03 334.73,1856.03 334.73,1859.63 338.32,1859.63 338.32,1863.23 341.92,1863.23 341.92,1866.83 349.12,1866.83 349.12,1870.43 352.72,1870.43 352.72,1874.03 359.92,1874.03 359.92,1877.63 363.52,1877.63 363.52,1881.23 367.13,1881.23 367.13,1884.83 374.32,1884.83 374.32,1888.43 377.93,1888.43 377.93,1892.03 381.52,1892.03 381.52,1895.63 388.73,1895.63 388.73,1899.23 395.92,1899.23 395.92,1902.83 399.53,1902.83 399.53,1906.43 406.72,1906.43 406.72,1910.03 413.92,1910.03 413.92,1913.63 417.52,1913.63 417.52,1917.23 424.72,1917.23 424.72,1920.83 431.93,1920.83 431.93,1924.43 439.12,1924.43 439.12,1928.03 453.53,1928.03 453.53,1931.63 503.92,1931.63 503.92,1928.03 514.72,1928.03 514.72,1924.43 521.92,1924.43 521.92,1920.83 529.13,1920.83 529.13,1917.23 536.32,1917.23 536.32,1913.63 543.52,1913.63 543.52,1910.03 547.12,1910.03 547.12,1906.43 554.32,1906.43 554.32,1902.83 557.92,1902.83 557.92,1899.23 561.53,1899.23 561.53,1895.63 565.12,1895.63 565.12,1892.03 568.73,1892.03 568.73,1888.43 572.33,1888.43 572.33,1884.83 575.92,1884.83 575.92,1881.23 583.13,1881.23 583.13,1895.63 579.53,1895.63 579.53,1899.23 575.92,1899.23 575.92,1902.83 572.33,1902.83 572.33,1906.43 568.73,1906.43 568.73,1910.03 565.12,1910.03 565.12,1913.63 561.53,1913.63 561.53,1917.23 557.92,1917.23 557.92,1920.83 550.73,1920.83 550.73,1924.43 543.52,1924.43 543.52,1928.03 539.93,1928.03 539.93,1931.63 532.72,1931.63 532.72,1935.23 525.52,1935.23 525.52,1938.83 514.72,1938.83 514.72,1942.43 503.92,1942.43 503.92,1946.03 493.12,1946.03 493.12,1949.63 453.53,1949.63 453.53,1946.03 446.32,1946.03 446.32,1942.43 435.52,1942.43 435.52,1938.83 428.32,1938.83 428.32,1935.23 421.13,1935.23 421.13,1931.63 413.92,1931.63 413.92,1928.03 406.72,1928.03 406.72,1924.43 399.53,1924.43 399.53,1920.83 392.32,1920.83 392.32,1917.23 388.73,1917.23 388.73,1913.63 381.52,1913.63 381.52,1910.03 374.32,1910.03 374.32,1906.43 370.72,1906.43 370.72,1902.83 367.13,1902.83 367.13,1899.23 359.92,1899.23 359.92,1895.63 356.33,1895.63 356.33,1892.03 352.72,1892.03 352.72,1888.43 345.53,1888.43 345.53,1884.83 341.92,1884.83 341.92,1881.23 334.73,1881.23 334.73,1877.63 331.12,1877.63 331.12,1874.03 323.93,1874.03 323.93,1870.43 320.32,1870.43 320.32,1866.83 291.53,1866.83 291.53,1870.43 295.12,1870.43 295.12,1892.03 298.72,1892.03 298.72,1906.43 302.33,1906.43 302.33,1913.63 305.92,1913.63 305.92,1920.83 309.52,1920.83 309.52,1931.63 313.13,1931.63 313.13,1935.23 323.93,1935.23 323.93,1938.83 331.12,1938.83 331.12,1942.43 338.32,1942.43 338.32,1946.03 345.53,1946.03 345.53,1949.63 352.72,1949.63 352.72,1953.23 359.92,1953.23 359.92,1956.83 363.52,1956.83 363.52,1960.43 370.72,1960.43 370.72,1964.03 377.93,1964.03 377.93,1967.63 381.52,1967.63 381.52,1971.23 388.73,1971.23 388.73,1974.83 392.32,1974.83 392.32,1978.43 399.53,1978.43 399.53,1982.03 406.72,1982.03 406.72,1985.63 413.92,1985.63 413.92,1989.23 421.13,1989.23 421.13,1992.83 431.93,1992.83 431.93,1996.43 442.73,1996.43 442.73,2000.03 467.92,2000.03 467.92,1996.43 482.32,1996.43 482.32,1992.83 493.12,1992.83 493.12,1989.23 500.32,1989.23 500.32,1985.63 507.53,1985.63 507.53,1982.03 514.72,1982.03 514.72,1978.43 521.92,1978.43 521.92,1974.83 525.52,1974.83 525.52,1971.23 532.72,1971.23 532.72,1967.63 539.93,1967.63 539.93,1964.03 543.52,1964.03 543.52,1960.43 550.73,1960.43 550.73,1956.83 554.32,1956.83 554.32,1953.23 557.92,1953.23 557.92,1949.63 561.53,1949.63 561.53,1946.03 568.73,1946.03 568.73,1942.43 572.33,1942.43 572.33,1938.83 575.92,1938.83 575.92,1935.23 579.53,1935.23 579.53,1931.63 583.13,1931.63 583.13,1928.03 586.72,1928.03 586.72,1924.43 590.33,1924.43 590.33,1920.83 593.93,1920.83 593.93,1917.23 597.52,1917.23 597.52,1913.63 601.13,1913.63 601.13,1910.03 604.73,1910.03 604.73,1906.43 608.32,1906.43 608.32,1899.23 611.93,1899.23 611.93,1895.63 615.53,1895.63 615.53,1892.03 619.12,1892.03 619.12,1884.83 622.73,1884.83 622.73,1881.23 626.33,1881.23 626.33,1874.03 629.92,1874.03 629.92,1870.43 633.53,1870.43 633.53,1863.23 637.13,1863.23 637.13,1856.03 640.72,1856.03 640.72,1848.83 644.33,1848.83 644.33,1841.63 647.93,1841.63 647.93,1834.43 651.52,1834.43 651.52,1823.63 655.13,1823.63 655.13,1812.83 658.73,1812.83 658.73,1794.83 662.32,1794.83 662.32,1715.63 658.73,1715.63 658.73,1690.43 655.13,1690.43 655.13,1672.43 651.52,1672.43 651.52,1661.63 647.93,1661.63 647.93,1647.23 644.33,1647.23 644.33,1629.23 640.72,1629.23 640.72,1618.43 637.13,1618.43 637.13,1604.03 633.53,1604.03 633.53,1596.83 629.92,1596.83 629.92,1586.03 626.33,1586.03 626.33,1571.63 622.73,1571.63 622.73,1560.83 619.12,1560.83 619.12,1542.83 615.53,1542.83 615.53,1524.83 611.93,1524.83 611.93,1521.23 608.32,1521.23 608.32,1517.63 601.13,1517.63 601.13,1514.03 597.52,1514.03 597.52,1510.43 590.33,1510.43 590.33,1506.83 586.72,1506.83 586.72,1503.23 579.53,1503.23 579.53,1499.63 572.33,1499.63 572.33,1496.03 565.12,1496.03 565.12,1492.43 554.32,1492.43 554.32,1488.83 547.12,1488.83 547.12,1485.23 536.32,1485.23 536.32,1481.63 529.13,1481.63 529.13,1478.03 518.33,1478.03 518.33,1474.43 511.12,1474.43 511.12,1470.83 500.32,1470.83 500.32,1467.23 482.32,1467.23 482.32,1463.63 464.33,1463.63 464.33,1460.03 449.92,1460.03 449.92,1456.43 431.93,1456.43 431.93,1452.83 406.72,1452.83 406.72,1449.23 388.73,1449.23 388.73,1445.63 251.92,1445.63 "/>
  <path id="outline" class="fil2" d="M287.92 1809.23l3.61 0 0 7.2 3.59 0 0 14.4 3.6 0 0 10.8 3.61 0 0 7.2 -28.81 0 0 3.6 -14.4 0 0 3.6 -7.2 0 0 3.6 -10.8 0 0 3.6 -10.8 0 0 3.6 -10.8 0 0 3.6 -7.2 0 0 3.6 -10.8 0 0 3.6 -14.4 0 0 3.6 -28.8 0 0 -3.6 -7.2 0 0 -3.6 -3.6 0 0 -3.6 -7.2 0 0 -3.6 -3.6 0 0 -3.6 -3.6 0 0 -3.6 -3.6 0 0 -3.6 -3.6 0 0 -7.2 -3.6 0 0 -3.6 -3.6 0 0 -3.6 -3.6 0 0 -7.2 -3.6 0 0 -7.2 -3.6 0 0 -3.6 -3.6 0 0 -14.4 -10.8 0 0 18 3.6 0 0 3.6 3.6 0 0 10.8 3.6 0 0 7.2 3.6 0 0 3.6 3.6 0 0 7.2 3.6 0 0 3.6 3.6 0 0 3.6 3.6 0 0 7.2 3.6 0 0 3.6 3.6 0 0 3.6 7.2 0 0 3.6 3.6 0 0 3.6 7.2 0 0 3.6 7.2 0 0 3.6 7.2 0 0 3.6 21.6 0 0 -3.6 21.6 0 0 -3.6 7.2 0 0 -3.6 10.8 0 0 -3.6 7.2 0 0 -3.6 10.8 0 0 -3.6 10.8 0 0 -3.6 10.8 0 0 -3.6 10.8 0 0 -3.6 14.4 0 0 3.6 -3.6 0 0 21.6 3.6 0 0 18 3.61 0 0 7.2 3.59 0 0 7.2 3.6 0 0 3.6 -39.6 0 0 3.6 -28.8 0 0 3.6 -7.2 0 0 3.6 -28.8 0 0 3.6 -14.4 0 0 3.6 -36 0 0 -3.6 -10.8 0 0 -3.6 -7.2 0 0 -3.6 -7.2 0 0 -3.6 -3.6 0 0 -3.6 -3.6 0 0 -3.6 -7.2 0 0 -3.6 -3.6 0 0 -3.6 -3.6 0 0 -3.6 -3.6 0 0 -7.2 -3.6 0 0 -3.6 -3.6 0 0 -3.6 -3.6 0 0 -3.6 -3.6 0 0 -7.2 -3.6 0 0 -3.6 -3.6 0 0 -7.2 -3.6 0 0 -3.6 -3.6 0 0 -7.2 -3.6 0 0 -3.6 -3.6 0 0 -7.2 -3.6 0 0 -10.8 -3.6 0 0 -7.2 -3.6 0 0 -7.2 -3.6 0 0 -10.8 -3.6 0 0 -7.2 -3.6 0 0 -10.8 -3.6 0 0 -10.8 -3.6 0 0 -18 -3.6 0 0 -68.4 3.6 0 0 -28.8 3.6 0 0 -14.4 3.6 0 0 -10.8 3.6 0 0 -18 3.6 0 0 -10.8 3.6 0 0 -18 3.6 0 0 -7.2 3.6 0 0 -10.8 3.6 0 0 -10.8 3.6 0 0 -10.8 3.6 0 0 -7.2 3.6 0 0 -10.8 3.6 0 0 -7.2 3.6 0 0 -10.8 3.6 0 0 -7.2 3.6 0 0 -10.8 3.6 0 0 -7.2 3.6 0 0 -3.6 3.6 0 0 -7.2 3.6 0 0 -3.6 3.6 0 0 -3.6 3.6 0 0 -3.6 7.2 0 0 -3.6 7.2 0 0 -3.6 14.4 0 0 -3.6 7.2 0 0 -3.6 10.8 0 0 -3.6 10.8 0 0 -3.6 18 0 0 -3.6 18 0 0 -3.6 21.6 0 0 -3.6 32.4 0 0 -3.6 136.81 0 0 3.6 17.99 0 0 3.6 25.21 0 0 3.6 17.99 0 0 3.6 14.41 0 0 3.6 17.99 0 0 3.6 18 0 0 3.6 10.8 0 0 3.6 7.21 0 0 3.6 10.8 0 0 3.6 7.19 0 0 3.6 10.8 0 0 3.6 7.2 0 0 3.6 10.8 0 0 3.6 7.21 0 0 3.6 7.2 0 0 3.6 7.19 0 0 3.6 3.61 0 0 3.6 7.19 0 0 3.6 3.61 0 0 3.6 7.19 0 0 3.6 3.61 0 0 3.6 3.6 0 0 18 3.59 0 0 18 3.61 0 0 10.8 3.6 0 0 14.4 3.59 0 0 10.8 3.61 0 0 7.2 3.6 0 0 14.4 3.59 0 0 10.8 3.61 0 0 18 3.6 0 0 14.4 3.59 0 0 10.8 3.61 0 0 18 3.6 0 0 25.2 3.59 0 0 79.2 -3.59 0 0 18 -3.6 0 0 10.8 -3.61 0 0 10.8 -3.59 0 0 7.2 -3.6 0 0 7.2 -3.61 0 0 7.2 -3.59 0 0 7.2 -3.6 0 0 7.2 -3.61 0 0 3.6 -3.59 0 0 7.2 -3.6 0 0 3.6 -3.61 0 0 7.2 -3.59 0 0 3.6 -3.6 0 0 3.6 -3.61 0 0 7.2 -3.59 0 0 3.6 -3.6 0 0 3.6 -3.61 0 0 3.6 -3.59 0 0 3.6 -3.6 0 0 3.6 -3.61 0 0 3.6 -3.59 0 0 3.6 -3.6 0 0 3.6 -3.61 0 0 3.6 -3.59 0 0 3.6 -3.6 0 0 3.6 -7.2 0 0 3.6 -3.61 0 0 3.6 -3.6 0 0 3.6 -3.59 0 0 3.6 -7.21 0 0 3.6 -3.59 0 0 3.6 -7.21 0 0 3.6 -7.2 0 0 3.6 -3.6 0 0 3.6 -7.2 0 0 3.6 -7.19 0 0 3.6 -7.21 0 0 3.6 -7.2 0 0 3.6 -10.8 0 0 3.6 -14.4 0 0 3.6 -25.19 0 0 -3.6 -10.8 0 0 -3.6 -10.8 0 0 -3.6 -7.21 0 0 -3.6 -7.2 0 0 -3.6 -7.19 0 0 -3.6 -7.21 0 0 -3.6 -3.59 0 0 -3.6 -7.21 0 0 -3.6 -3.59 0 0 -3.6 -7.21 0 0 -3.6 -7.2 0 0 -3.6 -3.6 0 0 -3.6 -7.2 0 0 -3.6 -7.19 0 0 -3.6 -7.21 0 0 -3.6 -7.2 0 0 -3.6 -7.19 0 0 -3.6 -10.8 0 0 -3.6 -3.61 0 0 -10.8 -3.6 0 0 -7.2 -3.59 0 0 -7.2 -3.61 0 0 -14.4 -3.6 0 0 -21.6 -3.59 0 0 -3.6 28.79 0 0 3.6 3.61 0 0 3.6 7.19 0 0 3.6 3.61 0 0 3.6 7.19 0 0 3.6 3.61 0 0 3.6 7.19 0 0 3.6 3.61 0 0 3.6 3.59 0 0 3.6 7.21 0 0 3.6 3.59 0 0 3.6 3.6 0 0 3.6 7.2 0 0 3.6 7.21 0 0 3.6 3.59 0 0 3.6 7.21 0 0 3.6 7.19 0 0 3.6 7.2 0 0 3.6 7.21 0 0 3.6 7.19 0 0 3.6 7.2 0 0 3.6 10.8 0 0 3.6 7.21 0 0 3.6 39.59 0 0 -3.6 10.8 0 0 -3.6 10.8 0 0 -3.6 10.8 0 0 -3.6 7.2 0 0 -3.6 7.21 0 0 -3.6 3.59 0 0 -3.6 7.21 0 0 -3.6 7.19 0 0 -3.6 3.61 0 0 -3.6 3.59 0 0 -3.6 3.61 0 0 -3.6 3.6 0 0 -3.6 3.59 0 0 -3.6 3.61 0 0 -3.6 3.6 0 0 -14.4 -7.21 0 0 3.6 -3.59 0 0 3.6 -3.6 0 0 3.6 -3.61 0 0 3.6 -3.59 0 0 3.6 -3.61 0 0 3.6 -3.6 0 0 3.6 -7.2 0 0 3.6 -3.6 0 0 3.6 -7.2 0 0 3.6 -7.19 0 0 3.6 -7.21 0 0 3.6 -7.2 0 0 3.6 -10.8 0 0 3.6 -50.39 0 0 -3.6 -14.41 0 0 -3.6 -7.19 0 0 -3.6 -7.21 0 0 -3.6 -7.2 0 0 -3.6 -3.6 0 0 -3.6 -7.2 0 0 -3.6 -7.19 0 0 -3.6 -3.61 0 0 -3.6 -7.19 0 0 -3.6 -7.21 0 0 -3.6 -3.59 0 0 -3.6 -3.61 0 0 -3.6 -7.19 0 0 -3.6 -3.61 0 0 -3.6 -3.6 0 0 -3.6 -7.2 0 0 -3.6 -3.6 0 0 -3.6 -7.2 0 0 -3.6 -3.6 0 0 -3.6 -3.59 0 0 -3.6 -7.21 0 0 -3.6 -3.59 0 0 -3.6 -3.61 0 0 -3.6 -3.6 0 0 -10.8 -3.59 0 0 -7.2 -3.61 0 0 -14.4 -3.6 0 0 -7.2 -3.59 0 0 -36 -3.61 0 0 -14.4 -3.6 0 0 -18 -7.2 0 0 72zm3.61 -1317.61l3.59 0 0 -7.2 3.6 0 0 -3.6 3.61 0 0 -3.6 21.6 0 0 3.6 3.59 0 0 3.6 3.6 0 0 3.6 3.61 0 0 7.2 3.59 0 0 3.6 3.6 0 0 7.2 3.61 0 0 7.2 3.59 0 0 7.2 3.6 0 0 7.2 3.61 0 0 7.2 3.59 0 0 10.8 3.6 0 0 10.8 3.61 0 0 7.2 3.59 0 0 10.8 3.6 0 0 7.2 3.61 0 0 14.4 3.59 0 0 14.4 3.6 0 0 14.4 3.61 0 0 7.2 3.59 0 0 18 3.6 0 0 18 3.61 0 0 10.8 3.59 0 0 25.2 3.6 0 0 21.6 3.61 0 0 14.4 3.59 0 0 28.81 3.6 0 0 21.6 3.61 0 0 28.79 3.59 0 0 32.4 3.6 0 0 28.8 3.61 0 0 18.01 3.59 0 0 28.8 3.6 0 0 21.6 3.61 0 0 17.99 -3.61 0 0 21.6 -3.6 0 0 14.41 -3.59 0 0 17.99 -3.61 0 0 10.8 -3.6 0 0 14.41 -3.59 0 0 21.6 -3.61 0 0 7.19 -3.6 0 0 21.6 -3.59 0 0 14.41 -3.61 0 0 14.39 -3.6 0 0 7.21 -3.59 0 0 17.99 -3.61 0 0 10.8 -3.6 0 0 10.8 -3.59 0 0 10.8 -3.61 0 0 14.41 -3.6 0 0 10.8 -3.59 0 0 10.8 -3.61 0 0 7.19 -3.6 0 0 10.8 -3.59 0 0 7.2 -3.61 0 0 7.21 -3.6 0 0 3.59 -3.59 0 0 3.61 -3.61 0 0 3.6 -3.6 0 0 3.59 -3.59 0 0 3.61 -3.61 0 0 3.6 -7.19 0 0 3.59 -7.21 0 0 3.61 -7.2 0 0 3.6 -10.8 0 0 7.2 25.21 0 0 -3.61 7.19 0 0 -3.59 7.2 0 0 -3.6 7.21 0 0 -3.61 3.59 0 0 -3.59 3.6 0 0 -3.6 3.61 0 0 -3.61 3.59 0 0 -3.59 3.6 0 0 -3.6 3.61 0 0 -7.2 3.59 0 0 -7.21 3.6 0 0 -3.59 3.61 0 0 -10.8 3.59 0 0 -7.21 3.6 0 0 -10.8 3.61 0 0 -10.8 3.59 0 0 -10.8 3.6 0 0 -10.8 3.61 0 0 -14.39 3.59 0 0 -7.21 3.6 0 0 -14.39 3.61 0 0 -10.8 3.59 0 0 -18.01 3.6 0 0 -14.39 3.61 0 0 -10.8 3.59 0 0 -14.41 3.6 0 0 -10.8 3.61 0 0 -17.99 3.59 0 0 -14.41 3.6 0 0 -17.99 3.61 0 0 -21.6 3.59 0 0 -14.41 3.6 0 0 -25.19 3.61 0 0 -25.2 3.59 0 0 -28.8 3.6 0 0 -36.01 3.61 0 0 -43.2 3.59 0 0 -147.6 3.6 0 0 -18 3.61 0 0 -7.2 3.59 0 0 -3.6 7.21 0 0 3.6 7.19 0 0 3.6 3.61 0 0 3.6 3.59 0 0 3.6 3.6 0 0 3.6 3.61 0 0 7.2 3.59 0 0 7.2 3.6 0 0 3.6 3.61 0 0 7.2 3.59 0 0 7.2 3.6 0 0 10.8 3.61 0 0 7.2 3.59 0 0 10.8 3.6 0 0 10.8 3.61 0 0 10.8 3.59 0 0 10.8 3.6 0 0 10.8 3.61 0 0 10.8 3.59 0 0 10.8 3.61 0 0 10.8 3.6 0 0 14.41 3.59 0 0 10.8 3.61 0 0 21.6 3.6 0 0 21.6 3.59 0 0 17.99 3.61 0 0 10.8 3.6 0 0 21.6 3.59 0 0 18 3.61 0 0 18.01 3.6 0 0 32.39 3.59 0 0 21.6 3.61 0 0 43.2 3.6 0 0 133.2 -3.6 0 0 36.01 -3.61 0 0 46.79 -3.59 0 0 32.4 -3.6 0 0 154.81 3.6 0 0 21.6 3.59 0 0 25.2 -3.59 0 0 -3.6 -7.21 0 0 -3.6 -7.19 0 0 -3.6 -7.2 0 0 -3.6 -7.21 0 0 -3.6 -7.19 0 0 -3.6 -7.2 0 0 -3.6 -7.21 0 0 -3.6 -10.8 0 0 -3.6 -7.2 0 0 -3.6 -10.8 0 0 -3.6 -10.8 0 0 -3.6 -10.8 0 0 -3.6 -10.8 0 0 -3.6 -17.99 0 0 -3.6 -18.01 0 0 -3.6 -14.39 0 0 -3.6 -14.41 0 0 -3.6 -28.79 0 0 -3.6 -32.4 0 0 -3.6 -108.01 0 0 3.6 -36 0 0 3.6 -14.4 0 0 3.6 -21.6 0 0 3.6 -14.4 0 0 3.6 -10.8 0 0 3.6 -14.4 0 0 3.6 -7.2 0 0 3.6 -7.2 0 0 3.6 -14.4 0 0 3.6 -7.2 0 0 3.6 -10.8 0 0 -3.6 3.6 0 0 -43.2 3.6 0 0 -21.6 3.6 0 0 -154.81 -3.6 0 0 -43.2 -3.6 0 0 -28.8 -3.6 0 0 -25.2 -3.6 0 0 -25.19 -3.6 0 0 -21.6 -3.6 0 0 -25.21 -3.6 0 0 -17.99 -3.6 0 0 -39.61 -3.6 0 0 -158.4 3.6 0 0 -28.8 3.6 0 0 -17.99 3.6 0 0 -28.81 3.6 0 0 -36 3.6 0 0 -21.6 3.6 0 0 -18 3.6 0 0 -18 3.6 0 0 -21.6 3.6 0 0 -14.4 3.6 0 0 -7.2 3.6 0 0 -14.4 3.6 0 0 -10.8 3.6 0 0 -10.8 3.6 0 0 -7.2 3.6 0 0 -10.8 3.6 0 0 -3.6 3.6 0 0 -7.2 3.6 0 0 -7.2 3.6 0 0 -3.6 3.6 0 0 -3.6 3.6 0 0 -3.6 14.4 0 0 3.6 3.6 0 0 3.6 3.6 0 0 7.2 3.6 0 0 7.2 3.6 0 0 18 3.6 0 0 25.2 3.6 0 0 28.8 3.6 0 0 64.8 3.6 0 0 32.4 3.6 0 0 14.41 3.6 0 0 25.19 3.6 0 0 39.61 3.6 0 0 14.39 3.6 0 0 32.4 3.6 0 0 10.8 3.6 0 0 14.4 3.6 0 0 7.2 3.6 0 0 10.8 3.6 0 0 10.8 3.6 0 0 14.41 3.6 0 0 7.19 3.6 0 0 10.8 3.6 0 0 10.8 3.6 0 0 10.8 3.6 0 0 7.2 3.6 0 0 14.4 3.6 0 0 7.2 3.6 0 0 7.21 3.61 0 0 10.8 3.59 0 0 14.39 3.6 0 0 7.21 3.61 0 0 14.39 3.59 0 0 14.4 3.6 0 0 10.8 3.61 0 0 7.2 3.59 0 0 18.01 3.6 0 0 14.39 3.61 0 0 7.21 3.59 0 0 25.19 3.6 0 0 10.8 3.61 0 0 14.4 3.59 0 0 21.6 3.6 0 0 14.41 3.61 0 0 7.19 3.59 0 0 7.2 3.6 0 0 3.61 3.61 0 0 -25.21 -3.61 0 0 -32.4 -3.6 0 0 -18 -3.59 0 0 -28.79 -3.61 0 0 -14.41 -3.6 0 0 -10.8 -3.59 0 0 -17.99 -3.61 0 0 -14.41 -3.6 0 0 -7.19 -3.59 0 0 -14.41 -3.61 0 0 -14.4 -3.6 0 0 -7.2 -3.59 0 0 -14.4 -3.61 0 0 -10.8 -3.6 0 0 -10.8 -3.59 0 0 -10.8 -3.61 0 0 -7.2 -3.6 0 0 -10.8 -3.59 0 0 -14.39 -3.61 0 0 -7.21 -3.6 0 0 -14.39 -3.6 0 0 -10.8 3.6 0 0 -18.01 3.6 0 0 -10.8 3.61 0 0 -32.4 3.59 0 0 -18 3.6 0 0 -32.4 3.61 0 0 -17.99 3.59 0 0 -21.6 3.6 0 0 -32.41 3.61 0 0 -32.4 3.59 0 0 -126 -3.59 0 0 -97.2zm10.8 -36l-7.21 0 0 3.6 -7.2 0 0 3.6 -3.6 0 0 3.6 -3.59 0 0 3.6 -3.61 0 0 7.2 -3.6 0 0 7.2 -3.59 0 0 14.4 -3.61 0 0 68.4 3.61 0 0 43.2 3.59 0 0 111.6 -3.59 0 0 25.2 -3.61 0 0 21.61 -3.6 0 0 25.19 -3.6 0 0 28.81 -3.6 0 0 17.99 -3.6 0 0 28.8 -3.6 0 0 21.6 -7.2 0 0 -21.6 -3.6 0 0 -28.8 -3.6 0 0 -28.79 -3.6 0 0 -14.41 -3.6 0 0 -32.4 -3.6 0 0 -28.8 -3.6 0 0 -46.8 -3.6 0 0 -43.2 -3.6 0 0 -39.6 -3.6 0 0 -10.8 -3.6 0 0 -14.4 -3.6 0 0 -10.8 -3.6 0 0 -7.2 -3.6 0 0 -7.2 -3.6 0 0 -3.6 -3.6 0 0 -3.6 -3.6 0 0 -3.6 -3.6 0 0 -3.6 -7.2 0 0 -3.6 -21.6 0 0 3.6 -7.2 0 0 3.6 -3.6 0 0 3.6 -3.6 0 0 3.6 -3.6 0 0 3.6 -3.6 0 0 3.6 -3.6 0 0 7.2 -3.6 0 0 7.2 -3.6 0 0 3.6 -3.6 0 0 7.2 -3.6 0 0 10.8 -3.6 0 0 7.2 -3.6 0 0 10.8 -3.6 0 0 7.2 -3.6 0 0 18 -3.6 0 0 10.8 -3.6 0 0 10.8 -3.6 0 0 18 -3.6 0 0 21.6 -3.6 0 0 18 -3.6 0 0 21.6 -3.6 0 0 18 -3.6 0 0 25.2 -3.6 0 0 28.81 -3.6 0 0 28.79 -3.6 0 0 57.61 -3.6 0 0 89.99 3.6 0 0 54 3.6 0 0 28.8 3.6 0 0 21.6 3.6 0 0 14.4 3.6 0 0 28.8 3.6 0 0 18.01 3.6 0 0 28.79 3.6 0 0 28.8 3.6 0 0 36.01 3.6 0 0 144 -3.6 0 0 36 -3.6 0 0 21.6 -3.6 0 0 14.4 -3.6 0 0 14.4 -3.6 0 0 10.8 -3.6 0 0 10.8 -3.6 0 0 7.2 -3.6 0 0 7.2 -3.6 0 0 7.2 -3.6 0 0 7.2 -3.6 0 0 10.8 -3.6 0 0 7.2 -3.6 0 0 10.8 -3.6 0 0 7.2 -3.6 0 0 14.4 -3.6 0 0 10.8 -3.6 0 0 10.8 -3.6 0 0 10.8 -3.6 0 0 10.8 -3.6 0 0 18 -3.6 0 0 7.2 -3.6 0 0 18 -3.6 0 0 25.2 -3.6 0 0 32.4 -3.6 0 0 32.4 3.6 0 0 25.2 3.6 0 0 18 3.6 0 0 10.8 3.6 0 0 10.8 3.6 0 0 7.2 3.6 0 0 10.8 3.6 0 0 7.2 3.6 0 0 7.2 3.6 0 0 7.2 3.6 0 0 10.8 3.6 0 0 3.6 3.6 0 0 3.6 3.6 0 0 7.2 3.6 0 0 7.2 3.6 0 0 7.2 3.6 0 0 3.6 3.6 0 0 3.6 3.6 0 0 7.2 3.6 0 0 3.6 3.6 0 0 3.6 3.6 0 0 3.6 3.6 0 0 3.6 3.6 0 0 3.6 3.6 0 0 3.6 3.6 0 0 3.6 3.6 0 0 3.6 3.6 0 0 3.6 3.6 0 0 3.6 7.2 0 0 3.6 3.6 0 0 3.6 7.2 0 0 3.6 7.2 0 0 3.6 14.4 0 0 3.6 39.6 0 0 -3.6 25.2 0 0 -3.6 14.4 0 0 -3.6 14.4 0 0 -3.6 75.6 0 0 3.6 10.8 0 0 3.6 7.2 0 0 3.6 7.21 0 0 3.6 7.19 0 0 3.6 3.61 0 0 3.6 7.19 0 0 3.6 3.61 0 0 3.6 7.19 0 0 3.6 3.61 0 0 3.6 7.19 0 0 3.6 7.2 0 0 3.6 3.6 0 0 3.6 7.2 0 0 3.6 7.21 0 0 3.6 7.19 0 0 3.6 7.2 0 0 3.6 10.8 0 0 3.6 14.4 0 0 3.6 28.8 0 0 -3.6 18.01 0 0 -3.6 10.8 0 0 -3.6 10.8 0 0 -3.6 7.19 0 0 -3.6 7.2 0 0 -3.6 7.21 0 0 -3.6 7.19 0 0 -3.6 3.61 0 0 -3.6 7.19 0 0 -3.6 3.61 0 0 -3.6 7.19 0 0 -3.6 3.61 0 0 -3.6 7.2 0 0 -3.6 3.6 0 0 -3.6 7.2 0 0 -3.6 3.6 0 0 -3.6 3.59 0 0 -3.6 3.61 0 0 -3.6 7.19 0 0 -3.6 3.61 0 0 -3.6 3.6 0 0 -3.6 3.59 0 0 -7.2 3.61 0 0 -3.6 3.6 0 0 -3.6 3.59 0 0 -3.6 3.61 0 0 -3.6 3.6 0 0 -3.6 3.59 0 0 -7.2 3.61 0 0 -3.6 3.6 0 0 -3.6 3.59 0 0 -7.2 3.61 0 0 -3.6 3.6 0 0 -7.2 3.59 0 0 -7.2 3.61 0 0 -3.6 3.6 0 0 -10.8 3.59 0 0 -7.2 3.61 0 0 -7.2 3.6 0 0 -7.2 3.59 0 0 -10.8 3.61 0 0 -10.8 3.6 0 0 -21.6 3.59 0 0 -93.6 -3.59 0 0 -25.2 -3.6 0 0 -10.8 -3.61 0 0 -14.4 -3.59 0 0 -14.4 -3.6 0 0 -18 -3.61 0 0 -10.8 -3.59 0 0 -14.4 -3.6 0 0 -10.8 -3.61 0 0 -10.8 -3.59 0 0 -14.4 -3.6 0 0 -7.2 -3.61 0 0 -10.8 -3.59 0 0 -21.6 -3.6 0 0 -18 -3.61 0 0 -28.8 -3.59 0 0 -205.2 3.59 0 0 -54.01 3.61 0 0 -50.39 3.6 0 0 -122.41 -3.6 0 0 -28.79 -3.61 0 0 -32.4 -3.59 0 0 -28.8 -3.6 0 0 -18.01 -3.61 0 0 -21.6 -3.59 0 0 -21.6 -3.6 0 0 -18 -3.61 0 0 -17.99 -3.59 0 0 -21.6 -3.6 0 0 -14.41 -3.61 0 0 -10.8 -3.59 0 0 -17.99 -3.6 0 0 -14.41 -3.61 0 0 -7.19 -3.59 0 0 -14.41 -3.6 0 0 -10.8 -3.61 0 0 -10.8 -3.59 0 0 -7.2 -3.6 0 0 -14.4 -3.61 0 0 -7.2 -3.59 0 0 -10.8 -3.61 0 0 -7.2 -3.6 0 0 -7.2 -3.59 0 0 -7.2 -3.61 0 0 -7.2 -3.6 0 0 -7.2 -3.59 0 0 -3.6 -3.61 0 0 -7.2 -3.6 0 0 -3.6 -3.59 0 0 -3.6 -3.61 0 0 -3.6 -3.6 0 0 -3.6 -3.59 0 0 -3.6 -7.21 0 0 -3.6 -7.2 0 0 -3.6 -21.6 0 0 3.6 -7.19 0 0 3.6 -3.61 0 0 7.2 -3.6 0 0 3.6 -3.59 0 0 10.8 -3.61 0 0 14.4 -3.6 0 0 14.4 -3.59 0 0 180 -3.61 0 0 -18 -3.6 0 0 -25.2 -3.59 0 0 -25.19 -3.61 0 0 -25.21 -3.6 0 0 -32.4 -3.59 0 0 -21.6 -3.61 0 0 -14.4 -3.6 0 0 -21.6 -3.59 0 0 -14.4 -3.61 0 0 -21.6 -3.6 0 0 -14.4 -3.59 0 0 -14.4 -3.61 0 0 -7.2 -3.6 0 0 -14.4 -3.59 0 0 -10.8 -3.61 0 0 -7.2 -3.6 0 0 -14.4 -3.59 0 0 -10.8 -3.61 0 0 -7.2 -3.6 0 0 -7.2 -3.59 0 0 -10.8 -3.61 0 0 -7.2 -3.6 0 0 -7.2 -3.59 0 0 -7.2 -3.61 0 0 -7.2 -3.6 0 0 -3.6 -3.59 0 0 -7.2 -3.61 0 0 -3.6 -3.6 0 0 -3.6 -3.59 0 0 -3.6 -3.61 0 0 -3.6 -3.6 0 0 -3.6 -3.59 0 0 -3.6 -7.21 0 0 -3.6 -7.2 0 0 -3.6 -17.99 0 0 3.6z"/>
  <path class="fil3" d="M-7.28 1930.99l288.48 -522.35 -254.07 -484.38 117.65 0 136.07 257.54c28.33,53.43 47.97,94.21 59.26,122.56 16.86,-35.15 36.67,-72.64 59.44,-112.25l149.1 -267.85 108.26 0 -259.28 478.53 279.1 528.2 -121.3 0 -188.38 -359.01c-10.78,-20.39 -21.03,-40.77 -30.76,-60.93 -16.51,33.75 -28.33,57.42 -35.8,70.77l-189.07 349.17 -118.7 0z"/>
 </g>
</svg>
