<!-- Creator: CorelDRAW (Versión de evaluación) -->
<svg xmlns="http://www.w3.org/2000/svg" xml:space="preserve" width="763px" height="2062px" version="1.1" style="shape-rendering:geometricPrecision; text-rendering:geometricPrecision; image-rendering:optimizeQuality; fill-rule:evenodd; clip-rule:evenodd"
viewBox="0 0 763 2062.24"
 xmlns:xlink="http://www.w3.org/1999/xlink"
 xmlns:xodm="http://www.corel.com/coreldraw/odm/2003">
 <defs>
  <style type="text/css">
   <![CDATA[
    .fil2 {fill:#4B4B4D}
    .fil1 {fill:#EDEAE0}
    .fil0 {fill:#F2E6C9}
    .fil3 {fill:#ED3237;fill-rule:nonzero}
   ]]>
  </style>
 </defs>
 <g id="extraction">
  <metadata id="CorelCorpID_0Corel-Layer"/>
  <path id="root" class="fil0" d="M207.89 375.31l3.6 0 0 7.2 3.6 0 0 7.2 3.6 0 0 10.8 3.6 0 0 14.4 3.59 0 0 115.17 -3.59 0 0 183.55 3.59 0 0 32.39 3.61 0 0 17.99 3.6 0 0 28.79 3.59 0 0 14.4 3.6 0 0 18 3.6 0 0 21.59 3.6 0 0 14.39 3.6 0 0 18 3.6 0 0 10.8 3.59 0 0 10.8 3.6 0 0 14.39 3.61 0 0 14.4 3.59 0 0 14.4 3.6 0 0 10.79 3.6 0 0 10.79 3.6 0 0 10.8 3.6 0 0 14.4 3.6 0 0 10.8 3.6 0 0 14.39 3.6 0 0 10.8 3.6 0 0 10.8 3.59 0 0 10.8 3.6 0 0 10.79 3.6 0 0 10.8 3.6 0 0 7.2 3.6 0 0 10.79 3.6 0 0 7.2 3.6 0 0 10.8 3.6 0 0 7.2 3.6 0 0 7.2 3.6 0 0 7.19 3.6 0 0 7.21 3.6 0 0 3.59 3.59 0 0 7.2 3.6 0 0 3.6 3.6 0 0 3.6 3.6 0 0 3.6 7.2 0 0 3.59 7.2 0 0 3.6 28.79 0 0 -3.6 7.2 0 0 -3.59 3.6 0 0 -3.6 3.59 0 0 -3.6 3.6 0 0 -3.6 3.6 0 0 -7.2 3.6 0 0 -7.2 3.6 0 0 -3.6 3.6 0 0 -7.19 3.6 0 0 -7.2 3.6 0 0 -3.6 3.6 0 0 -10.8 3.6 0 0 -7.2 3.6 0 0 -7.2 3.59 0 0 -7.19 3.6 0 0 -7.2 3.6 0 0 -7.2 3.6 0 0 -7.2 3.6 0 0 -7.19 3.6 0 0 -7.21 3.6 0 0 -10.79 3.6 0 0 -7.2 3.6 0 0 -7.2 3.59 0 0 -7.2 3.61 0 0 -7.19 3.6 0 0 -7.2 3.59 0 0 -10.8 3.6 0 0 -7.2 3.6 0 0 -10.8 3.6 0 0 -7.19 3.6 0 0 -10.8 3.6 0 0 -10.8 3.6 0 0 -7.19 3.6 0 0 -10.8 3.6 0 0 -7.2 3.6 0 0 -10.79 3.59 0 0 -10.8 3.61 0 0 -10.8 3.59 0 0 -7.2 3.6 0 0 -14.39 3.6 0 0 -10.8 3.6 0 0 -14.4 3.6 0 0 -10.79 3.6 0 0 -10.8 3.6 0 0 -18 3.6 0 0 -14.39 3.6 0 0 -14.4 3.59 0 0 -17.99 3.6 0 0 -21.6 3.6 0 0 -21.59 3.6 0 0 -28.79 3.6 0 0 -39.6 3.6 0 0 -136.76 3.59 0 0 -10.79 3.61 0 0 -32.4 3.6 0 0 -14.39 3.59 0 0 -10.8 3.6 0 0 -7.2 3.6 0 0 -7.19 7.2 0 0 -3.6 10.8 0 0 3.6 7.19 0 0 3.59 3.6 0 0 3.6 3.61 0 0 7.2 3.59 0 0 7.2 3.6 0 0 7.2 3.6 0 0 10.79 3.6 0 0 10.8 3.6 0 0 10.8 3.6 0 0 10.8 3.6 0 0 10.79 3.6 0 0 14.4 3.6 0 0 21.59 3.59 0 0 14.4 3.6 0 0 14.4 3.61 0 0 17.99 3.59 0 0 28.8 3.6 0 0 21.59 3.6 0 0 32.39 3.6 0 0 50.39 3.6 0 0 100.77 -3.6 0 0 28.79 -3.6 0 0 21.6 -3.6 0 0 35.99 -3.6 0 0 32.39 -3.59 0 0 25.19 -3.61 0 0 21.59 -3.6 0 0 28.79 -3.59 0 0 14.4 -3.6 0 0 32.39 -3.6 0 0 18 -3.6 0 0 21.59 -3.6 0 0 35.99 -3.6 0 0 18 -3.6 0 0 53.98 -3.6 0 0 46.79 -3.6 0 0 82.78 3.6 0 0 35.99 3.6 0 0 50.39 3.6 0 0 25.19 -3.6 0 0 -3.6 -7.2 0 0 -3.6 -7.2 0 0 -3.6 -7.19 0 0 -3.6 -7.2 0 0 -3.59 -7.2 0 0 -3.6 -10.8 0 0 -3.6 -10.79 0 0 -3.6 -10.8 0 0 -3.6 -7.2 0 0 -3.6 -17.99 0 0 -3.6 -10.8 0 0 -3.6 -18 0 0 -3.6 -14.39 0 0 -3.59 -39.59 0 0 -3.6 -140.36 0 0 3.6 -18 0 0 3.59 -21.59 0 0 3.6 -21.6 0 0 3.6 -14.4 0 0 3.6 -14.39 0 0 3.6 -14.39 0 0 3.6 -14.4 0 0 3.6 -10.8 0 0 3.6 -7.2 0 0 3.6 -10.79 0 0 3.59 -10.8 0 0 3.6 -7.2 0 0 3.6 -10.8 0 0 3.6 -7.2 0 0 3.6 -7.19 0 0 3.6 -7.2 0 0 3.6 -7.2 0 0 3.6 -7.2 0 0 3.6 -7.2 0 0 3.59 -7.19 0 0 3.6 -7.2 0 0 3.61 -7.2 0 0 -14.4 3.6 0 0 -14.4 3.6 0 0 -190.75 -3.6 0 0 -39.59 -3.6 0 0 -32.39 -3.6 0 0 -35.99 -3.6 0 0 -28.79 -3.6 0 0 -28.8 -3.6 0 0 -35.98 -3.6 0 0 -25.2 -3.6 0 0 -32.39 -3.59 0 0 -61.18 -3.6 0 0 -104.37 3.6 0 0 -50.39 3.59 0 0 -35.99 3.6 0 0 -35.99 3.6 0 0 -17.99 3.6 0 0 -21.6 3.6 0 0 -21.6 3.6 0 0 -21.59 3.6 0 0 -18 3.6 0 0 -10.79 3.6 0 0 -18 3.59 0 0 -10.79 3.61 0 0 -18 3.6 0 0 -10.8 3.59 0 0 -10.79 3.6 0 0 -10.8 3.6 0 0 -10.8 3.6 0 0 -7.2 3.6 0 0 -14.39 3.6 0 0 -7.2 3.6 0 0 -10.8 3.6 0 0 -10.8 3.6 0 0 -7.19 3.59 0 0 -7.2 3.6 0 0 -7.2 3.61 0 0 -7.2 3.59 0 0 -7.19 3.6 0 0 -7.2 3.6 0 0 -3.6 3.6 0 0 -7.2 3.6 0 0 -3.6 3.6 0 0 -7.2 3.6 0 0 -3.6 7.2 0 0 -3.6 3.59 0 0 -3.6 7.2 0 0 -3.59 7.2 0 0 3.59zm241.14 -3.59l3.59 0 0 3.59 3.6 0 0 10.8 3.6 0 0 10.8 3.6 0 0 18 3.6 0 0 25.19 3.6 0 0 32.39 3.6 0 0 118.77 -3.6 0 0 190.75 3.6 0 0 32.39 3.6 0 0 35.99 3.6 0 0 35.99 3.59 0 0 21.59 3.61 0 0 21.6 3.6 0 0 14.4 -3.6 0 0 10.79 -3.61 0 0 10.79 -3.59 0 0 7.21 -3.6 0 0 7.19 -3.6 0 0 10.8 -3.6 0 0 7.2 -3.6 0 0 7.2 -3.6 0 0 7.19 -3.6 0 0 10.8 -3.6 0 0 7.2 -3.6 0 0 7.2 -3.59 0 0 7.2 -3.6 0 0 7.19 -3.6 0 0 10.8 -3.6 0 0 7.2 -3.6 0 0 7.2 -3.6 0 0 3.6 -3.6 0 0 10.79 -3.6 0 0 7.2 -3.6 0 0 7.2 -3.6 0 0 3.6 -3.6 0 0 7.2 -3.59 0 0 7.2 -3.6 0 0 3.59 -3.6 0 0 7.21 -3.6 0 0 3.59 -3.6 0 0 3.6 -3.6 0 0 3.6 -17.99 0 0 -3.6 -3.6 0 0 -3.6 -3.6 0 0 -3.59 -3.6 0 0 -7.21 -3.6 0 0 -3.59 -3.6 0 0 -7.2 -3.6 0 0 -7.2 -3.6 0 0 -10.8 -3.6 0 0 -7.2 -3.59 0 0 -10.79 -3.6 0 0 -7.2 -3.6 0 0 -10.8 -3.6 0 0 -14.39 -3.6 0 0 -7.21 -3.6 0 0 -10.79 -3.6 0 0 -10.8 -3.6 0 0 -10.8 -3.6 0 0 -10.79 -3.6 0 0 -10.8 -3.6 0 0 -10.8 -3.6 0 0 -14.39 -3.59 0 0 -14.4 -3.6 0 0 -10.8 -3.6 0 0 -7.19 3.6 0 0 -3.6 3.6 0 0 -10.8 3.59 0 0 -7.2 3.6 0 0 -17.99 3.6 0 0 -14.4 3.6 0 0 -14.4 3.6 0 0 -17.99 3.6 0 0 -28.79 3.6 0 0 -14.4 3.6 0 0 -28.79 3.6 0 0 -28.79 3.6 0 0 -39.59 3.6 0 0 -32.39 3.6 0 0 -36 3.59 0 0 -14.39 3.6 0 0 -32.39 3.6 0 0 -14.4 3.6 0 0 -21.59 3.6 0 0 -10.8 3.6 0 0 -14.4 3.6 0 0 -14.39 3.6 0 0 -14.4 3.6 0 0 -14.4 3.59 0 0 -10.79 3.61 0 0 -14.4 3.59 0 0 -10.79 3.6 0 0 -7.2 3.6 0 0 -10.8 3.6 0 0 -10.8 3.6 0 0 -7.19 3.6 0 0 -7.2 3.6 0 0 -7.2 3.6 0 0 -7.2 3.59 0 0 -7.2 3.6 0 0 -3.6 3.6 0 0 -3.6 3.6 0 0 -3.59 3.6 0 0 -3.6 3.6 0 0 -3.6 18 0 0 7.2z"/>
  <polygon id="crown" class="fil1" points="467.02,1408.24 492.22,1408.24 492.22,1411.84 528.2,1411.84 528.2,1415.44 542.6,1415.44 542.6,1419.04 553.4,1419.04 553.4,1422.64 567.8,1422.64 567.8,1426.24 578.59,1426.24 578.59,1429.83 589.39,1429.83 589.39,1433.43 600.19,1433.43 600.19,1437.03 610.98,1437.03 610.98,1440.63 618.18,1440.63 618.18,1444.23 625.38,1444.23 625.38,1447.83 632.58,1447.83 632.58,1451.43 639.78,1451.43 639.78,1455.03 646.97,1455.03 646.97,1458.63 654.17,1458.63 654.17,1462.22 657.77,1462.22 657.77,1465.82 661.37,1465.82 661.37,1473.02 664.97,1473.02 664.97,1480.22 668.57,1480.22 668.57,1487.42 672.17,1487.42 672.17,1498.22 675.77,1498.22 675.77,1505.41 679.36,1505.41 679.36,1516.21 682.96,1516.21 682.96,1527.01 686.56,1527.01 686.56,1537.8 690.16,1537.8 690.16,1548.6 693.76,1548.6 693.76,1559.4 697.36,1559.4 697.36,1566.6 700.96,1566.6 700.96,1584.59 704.56,1584.59 704.56,1591.79 708.16,1591.79 708.16,1606.19 711.75,1606.19 711.75,1616.98 715.36,1616.98 715.36,1634.98 718.96,1634.98 718.96,1649.38 722.55,1649.38 722.55,1670.97 726.15,1670.97 726.15,1692.56 729.75,1692.56 729.75,1714.16 733.35,1714.16 733.35,1739.35 736.95,1739.35 736.95,1814.93 733.35,1814.93 733.35,1829.33 729.75,1829.33 729.75,1850.92 726.15,1850.92 726.15,1858.12 722.55,1858.12 722.55,1868.92 718.96,1868.92 718.96,1872.52 715.36,1872.52 715.36,1879.71 711.75,1879.71 711.75,1886.91 708.16,1886.91 708.16,1894.11 704.56,1894.11 704.56,1897.71 700.96,1897.71 700.96,1901.31 697.36,1901.31 697.36,1904.91 693.76,1904.91 693.76,1908.51 690.16,1908.51 690.16,1912.1 686.56,1912.1 686.56,1915.7 682.96,1915.7 682.96,1919.3 679.36,1919.3 679.36,1922.9 675.77,1922.9 675.77,1926.5 672.17,1926.5 672.17,1930.1 668.57,1930.1 668.57,1933.7 661.37,1933.7 661.37,1937.3 657.77,1937.3 657.77,1940.9 654.17,1940.9 654.17,1944.49 650.57,1944.49 650.57,1948.09 643.38,1948.09 643.38,1951.7 639.78,1951.7 639.78,1955.29 636.18,1955.29 636.18,1958.89 628.98,1958.89 628.98,1962.49 625.38,1962.49 625.38,1966.09 621.78,1966.09 621.78,1969.69 618.18,1969.69 618.18,1973.29 610.98,1973.29 610.98,1976.89 607.38,1976.89 607.38,1980.49 600.19,1980.49 600.19,1984.09 592.99,1984.09 592.99,1987.68 589.39,1987.68 589.39,1991.28 578.59,1991.28 578.59,1994.88 564.2,1994.88 564.2,1998.48 531.8,1998.48 531.8,1994.88 521.01,1994.88 521.01,1991.28 506.61,1991.28 506.61,1987.68 499.41,1987.68 499.41,1984.09 492.22,1984.09 492.22,1980.49 485.01,1980.49 485.01,1976.89 481.42,1976.89 481.42,1973.29 470.62,1973.29 470.62,1969.69 463.42,1969.69 463.42,1966.09 459.82,1966.09 459.82,1962.49 452.62,1962.49 452.62,1958.89 445.43,1958.89 445.43,1955.29 434.63,1955.29 434.63,1951.7 427.43,1951.7 427.43,1948.09 420.23,1948.09 420.23,1944.49 409.44,1944.49 409.44,1940.9 395.04,1940.9 395.04,1937.3 355.45,1937.3 355.45,1940.9 348.25,1940.9 348.25,1944.49 337.46,1944.49 337.46,1948.09 330.26,1948.09 330.26,1951.7 323.06,1951.7 323.06,1955.29 315.86,1955.29 315.86,1958.89 308.67,1958.89 308.67,1962.49 301.46,1962.49 301.46,1966.09 294.27,1966.09 294.27,1969.69 287.07,1969.69 287.07,1973.29 279.87,1973.29 279.87,1976.89 272.67,1976.89 272.67,1980.49 265.48,1980.49 265.48,1984.09 258.27,1984.09 258.27,1987.68 247.48,1987.68 247.48,1991.28 236.68,1991.28 236.68,1994.88 186.3,1994.88 186.3,1991.28 179.1,1991.28 179.1,1987.68 171.9,1987.68 171.9,1984.09 164.7,1984.09 164.7,1980.49 157.5,1980.49 157.5,1976.89 153.91,1976.89 153.91,1973.29 150.3,1973.29 150.3,1969.69 143.11,1969.69 143.11,1966.09 139.51,1966.09 139.51,1962.49 135.91,1962.49 135.91,1958.89 128.71,1958.89 128.71,1955.29 125.11,1955.29 125.11,1951.7 121.51,1951.7 121.51,1948.09 117.91,1948.09 117.91,1944.49 114.32,1944.49 114.32,1940.9 110.72,1940.9 110.72,1937.3 107.12,1937.3 107.12,1933.7 103.52,1933.7 103.52,1930.1 99.92,1930.1 99.92,1926.5 96.32,1926.5 96.32,1922.9 92.72,1922.9 92.72,1919.3 89.12,1919.3 89.12,1915.7 85.52,1915.7 85.52,1912.1 81.93,1912.1 81.93,1908.51 78.32,1908.51 78.32,1904.91 74.72,1904.91 74.72,1901.31 71.13,1901.31 71.13,1897.71 78.32,1897.71 78.32,1901.31 81.93,1901.31 81.93,1904.91 89.12,1904.91 89.12,1908.51 92.72,1908.51 92.72,1912.1 99.92,1912.1 99.92,1915.7 103.52,1915.7 103.52,1919.3 107.12,1919.3 107.12,1922.9 110.72,1922.9 110.72,1926.5 117.91,1926.5 117.91,1930.1 121.51,1930.1 121.51,1933.7 128.71,1933.7 128.71,1937.3 135.91,1937.3 135.91,1940.9 143.11,1940.9 143.11,1944.49 150.3,1944.49 150.3,1948.09 161.1,1948.09 161.1,1951.7 171.9,1951.7 171.9,1955.29 182.7,1955.29 182.7,1958.89 218.69,1958.89 218.69,1955.29 233.08,1955.29 233.08,1951.7 247.48,1951.7 247.48,1948.09 258.27,1948.09 258.27,1944.49 265.48,1944.49 265.48,1940.9 272.67,1940.9 272.67,1937.3 279.87,1937.3 279.87,1933.7 287.07,1933.7 287.07,1930.1 294.27,1930.1 294.27,1926.5 301.46,1926.5 301.46,1922.9 308.67,1922.9 308.67,1919.3 312.26,1919.3 312.26,1915.7 319.46,1915.7 319.46,1912.1 326.66,1912.1 326.66,1908.51 330.26,1908.51 330.26,1904.91 333.86,1904.91 333.86,1901.31 341.06,1901.31 341.06,1897.71 344.65,1897.71 344.65,1894.11 351.85,1894.11 351.85,1890.51 355.45,1890.51 355.45,1886.91 362.65,1886.91 362.65,1883.31 366.25,1883.31 366.25,1879.71 373.45,1879.71 373.45,1876.12 377.04,1876.12 377.04,1872.52 380.64,1872.52 380.64,1868.92 402.24,1868.92 402.24,1872.52 409.44,1872.52 409.44,1876.12 416.64,1876.12 416.64,1879.71 420.23,1879.71 420.23,1890.51 416.64,1890.51 416.64,1894.11 413.04,1894.11 413.04,1901.31 409.44,1901.31 409.44,1904.91 405.84,1904.91 405.84,1908.51 402.24,1908.51 402.24,1912.1 398.64,1912.1 398.64,1915.7 395.04,1915.7 395.04,1922.9 402.24,1922.9 402.24,1919.3 405.84,1919.3 405.84,1915.7 409.44,1915.7 409.44,1912.1 413.04,1912.1 413.04,1908.51 420.23,1908.51 420.23,1904.91 423.83,1904.91 423.83,1901.31 427.43,1901.31 427.43,1894.11 431.03,1894.11 431.03,1890.51 438.23,1890.51 438.23,1894.11 445.43,1894.11 445.43,1897.71 449.03,1897.71 449.03,1901.31 456.22,1901.31 456.22,1904.91 463.42,1904.91 463.42,1908.51 467.02,1908.51 467.02,1912.1 474.22,1912.1 474.22,1915.7 481.42,1915.7 481.42,1919.3 485.01,1919.3 485.01,1922.9 492.22,1922.9 492.22,1926.5 499.41,1926.5 499.41,1930.1 506.61,1930.1 506.61,1933.7 517.41,1933.7 517.41,1937.3 524.61,1937.3 524.61,1940.9 535.41,1940.9 535.41,1944.49 546.2,1944.49 546.2,1948.09 585.79,1948.09 585.79,1944.49 596.59,1944.49 596.59,1940.9 607.38,1940.9 607.38,1937.3 614.58,1937.3 614.58,1933.7 621.78,1933.7 621.78,1930.1 628.98,1930.1 628.98,1926.5 632.58,1926.5 632.58,1922.9 639.78,1922.9 639.78,1919.3 643.38,1919.3 643.38,1915.7 646.97,1915.7 646.97,1908.51 650.57,1908.51 650.57,1904.91 654.17,1904.91 654.17,1897.71 657.77,1897.71 657.77,1894.11 661.37,1894.11 661.37,1886.91 664.97,1886.91 664.97,1879.71 668.57,1879.71 668.57,1865.32 672.17,1865.32 672.17,1850.92 675.77,1850.92 675.77,1840.12 679.36,1840.12 679.36,1825.73 682.96,1825.73 682.96,1800.54 675.77,1800.54 675.77,1807.73 672.17,1807.73 672.17,1818.53 668.57,1818.53 668.57,1836.53 664.97,1836.53 664.97,1854.52 661.37,1854.52 661.37,1865.32 657.77,1865.32 657.77,1872.52 654.17,1872.52 654.17,1879.71 650.57,1879.71 650.57,1886.91 646.97,1886.91 646.97,1894.11 643.38,1894.11 643.38,1897.71 639.78,1897.71 639.78,1901.31 636.18,1901.31 636.18,1904.91 632.58,1904.91 632.58,1908.51 628.98,1908.51 628.98,1912.1 625.38,1912.1 625.38,1915.7 618.18,1915.7 618.18,1919.3 614.58,1919.3 614.58,1922.9 603.78,1922.9 603.78,1926.5 596.59,1926.5 596.59,1930.1 585.79,1930.1 585.79,1933.7 549.8,1933.7 549.8,1930.1 539,1930.1 539,1926.5 531.8,1926.5 531.8,1922.9 524.61,1922.9 524.61,1919.3 513.81,1919.3 513.81,1915.7 506.61,1915.7 506.61,1912.1 499.41,1912.1 499.41,1908.51 492.22,1908.51 492.22,1904.91 488.62,1904.91 488.62,1901.31 481.42,1901.31 481.42,1897.71 474.22,1897.71 474.22,1894.11 467.02,1894.11 467.02,1890.51 463.42,1890.51 463.42,1886.91 456.22,1886.91 456.22,1883.31 449.03,1883.31 449.03,1879.71 445.43,1879.71 445.43,1876.12 438.23,1876.12 438.23,1872.52 434.63,1872.52 434.63,1868.92 427.43,1868.92 427.43,1865.32 420.23,1865.32 420.23,1861.72 416.64,1861.72 416.64,1858.12 409.44,1858.12 409.44,1854.52 402.24,1854.52 402.24,1850.92 398.64,1850.92 398.64,1847.32 402.24,1847.32 402.24,1840.12 405.84,1840.12 405.84,1832.93 409.44,1832.93 409.44,1822.13 413.04,1822.13 413.04,1814.93 416.64,1814.93 416.64,1753.75 413.04,1753.75 413.04,1732.15 405.84,1732.15 405.84,1800.54 402.24,1800.54 402.24,1814.93 398.64,1814.93 398.64,1822.13 395.04,1822.13 395.04,1832.93 391.44,1832.93 391.44,1836.53 387.84,1836.53 387.84,1843.72 384.24,1843.72 384.24,1847.32 380.64,1847.32 380.64,1850.92 377.04,1850.92 377.04,1854.52 373.45,1854.52 373.45,1858.12 366.25,1858.12 366.25,1861.72 362.65,1861.72 362.65,1865.32 359.05,1865.32 359.05,1868.92 355.45,1868.92 355.45,1872.52 348.25,1872.52 348.25,1876.12 344.65,1876.12 344.65,1879.71 341.06,1879.71 341.06,1883.31 333.86,1883.31 333.86,1886.91 330.26,1886.91 330.26,1890.51 323.06,1890.51 323.06,1894.11 319.46,1894.11 319.46,1897.71 312.26,1897.71 312.26,1901.31 305.06,1901.31 305.06,1904.91 301.46,1904.91 301.46,1908.51 294.27,1908.51 294.27,1912.1 287.07,1912.1 287.07,1915.7 279.87,1915.7 279.87,1919.3 272.67,1919.3 272.67,1922.9 265.48,1922.9 265.48,1926.5 258.27,1926.5 258.27,1930.1 247.48,1930.1 247.48,1933.7 240.28,1933.7 240.28,1937.3 233.08,1937.3 233.08,1940.9 218.69,1940.9 218.69,1944.49 179.1,1944.49 179.1,1940.9 168.3,1940.9 168.3,1937.3 161.1,1937.3 161.1,1933.7 153.91,1933.7 153.91,1930.1 146.71,1930.1 146.71,1926.5 139.51,1926.5 139.51,1922.9 132.31,1922.9 132.31,1919.3 128.71,1919.3 128.71,1915.7 121.51,1915.7 121.51,1912.1 117.91,1912.1 117.91,1908.51 110.72,1908.51 110.72,1904.91 107.12,1904.91 107.12,1901.31 103.52,1901.31 103.52,1897.71 99.92,1897.71 99.92,1894.11 92.72,1894.11 92.72,1890.51 89.12,1890.51 89.12,1886.91 81.93,1886.91 81.93,1883.31 67.53,1883.31 67.53,1886.91 60.33,1886.91 60.33,1883.31 56.73,1883.31 56.73,1879.71 53.13,1879.71 53.13,1872.52 49.53,1872.52 49.53,1865.32 45.93,1865.32 45.93,1861.72 42.33,1861.72 42.33,1854.52 38.74,1854.52 38.74,1847.32 35.14,1847.32 35.14,1836.53 31.53,1836.53 31.53,1829.33 27.94,1829.33 27.94,1811.33 24.34,1811.33 24.34,1796.93 20.74,1796.93 20.74,1753.75 24.34,1753.75 24.34,1724.96 27.94,1724.96 27.94,1706.96 31.53,1706.96 31.53,1692.56 35.14,1692.56 35.14,1674.57 38.74,1674.57 38.74,1663.77 42.33,1663.77 42.33,1649.38 45.93,1649.38 45.93,1631.38 49.53,1631.38 49.53,1624.18 53.13,1624.18 53.13,1609.79 56.73,1609.79 56.73,1595.39 60.33,1595.39 60.33,1584.59 63.93,1584.59 63.93,1573.8 67.53,1573.8 67.53,1563 71.13,1563 71.13,1552.2 74.72,1552.2 74.72,1541.4 78.32,1541.4 78.32,1534.21 81.93,1534.21 81.93,1523.41 85.52,1523.41 85.52,1512.61 89.12,1512.61 89.12,1498.22 92.72,1498.22 92.72,1487.42 96.32,1487.42 96.32,1483.82 103.52,1483.82 103.52,1480.22 107.12,1480.22 107.12,1476.62 114.32,1476.62 114.32,1473.02 121.51,1473.02 121.51,1469.42 128.71,1469.42 128.71,1465.82 135.91,1465.82 135.91,1462.22 143.11,1462.22 143.11,1458.63 153.91,1458.63 153.91,1455.03 161.1,1455.03 161.1,1451.43 168.3,1451.43 168.3,1447.83 175.5,1447.83 175.5,1444.23 189.9,1444.23 189.9,1440.63 200.69,1440.63 200.69,1437.03 211.49,1437.03 211.49,1433.43 225.88,1433.43 225.88,1429.83 236.68,1429.83 236.68,1426.24 251.08,1426.24 251.08,1422.64 261.88,1422.64 261.88,1419.04 283.47,1419.04 283.47,1415.44 301.46,1415.44 301.46,1411.84 326.66,1411.84 326.66,1408.24 351.85,1408.24 351.85,1404.64 467.02,1404.64 "/>
  <path id="outline" class="fil2" d="M413.04 1753.75l3.6 0 0 61.18 -3.6 0 0 7.2 -3.6 0 0 10.8 -3.6 0 0 7.19 -3.6 0 0 7.2 -3.6 0 0 3.6 3.6 0 0 3.6 7.2 0 0 3.6 7.2 0 0 3.6 3.59 0 0 3.6 7.2 0 0 3.6 7.2 0 0 3.6 3.6 0 0 3.6 7.2 0 0 3.59 3.6 0 0 3.6 7.19 0 0 3.6 7.2 0 0 3.6 3.6 0 0 3.6 7.2 0 0 3.6 7.2 0 0 3.6 7.2 0 0 3.6 3.6 0 0 3.6 7.19 0 0 3.59 7.2 0 0 3.6 7.2 0 0 3.6 10.8 0 0 3.6 7.19 0 0 3.6 7.2 0 0 3.6 10.8 0 0 3.6 35.99 0 0 -3.6 10.8 0 0 -3.6 7.19 0 0 -3.6 10.8 0 0 -3.6 3.6 0 0 -3.6 7.2 0 0 -3.6 3.6 0 0 -3.59 3.6 0 0 -3.6 3.6 0 0 -3.6 3.6 0 0 -3.6 3.6 0 0 -3.6 3.59 0 0 -7.2 3.6 0 0 -7.2 3.6 0 0 -7.19 3.6 0 0 -7.2 3.6 0 0 -10.8 3.6 0 0 -17.99 3.6 0 0 -18 3.6 0 0 -10.8 3.6 0 0 -7.19 7.19 0 0 25.19 -3.6 0 0 14.39 -3.59 0 0 10.8 -3.6 0 0 14.4 -3.6 0 0 14.39 -3.6 0 0 7.2 -3.6 0 0 7.2 -3.6 0 0 3.6 -3.6 0 0 7.2 -3.6 0 0 3.6 -3.6 0 0 7.19 -3.59 0 0 3.6 -3.6 0 0 3.6 -7.2 0 0 3.6 -3.6 0 0 3.6 -7.2 0 0 3.6 -7.2 0 0 3.6 -7.2 0 0 3.6 -10.79 0 0 3.59 -10.8 0 0 3.6 -39.59 0 0 -3.6 -10.79 0 0 -3.59 -10.8 0 0 -3.6 -7.2 0 0 -3.6 -10.8 0 0 -3.6 -7.2 0 0 -3.6 -7.19 0 0 -3.6 -7.21 0 0 -3.6 -3.59 0 0 -3.6 -7.2 0 0 -3.6 -7.2 0 0 -3.59 -3.6 0 0 -3.6 -7.2 0 0 -3.6 -7.19 0 0 -3.6 -3.6 0 0 -3.6 -7.2 0 0 -3.6 -7.2 0 0 3.6 -3.6 0 0 7.2 -3.6 0 0 3.6 -3.6 0 0 3.6 -7.19 0 0 3.59 -3.6 0 0 3.6 -3.6 0 0 3.6 -3.6 0 0 3.6 -7.2 0 0 -7.2 3.6 0 0 -3.6 3.6 0 0 -3.59 3.6 0 0 -3.6 3.6 0 0 -3.6 3.6 0 0 -7.2 3.6 0 0 -3.6 3.59 0 0 -10.8 -3.59 0 0 -3.59 -7.2 0 0 -3.6 -7.2 0 0 -3.6 -21.6 0 0 3.6 -3.6 0 0 3.6 -3.59 0 0 3.59 -7.2 0 0 3.6 -3.6 0 0 3.6 -7.2 0 0 3.6 -3.6 0 0 3.6 -7.2 0 0 3.6 -3.59 0 0 3.6 -7.2 0 0 3.6 -3.6 0 0 3.6 -3.6 0 0 3.59 -7.2 0 0 3.6 -7.2 0 0 3.6 -3.59 0 0 3.6 -7.21 0 0 3.6 -7.19 0 0 3.6 -7.2 0 0 3.6 -7.2 0 0 3.6 -7.2 0 0 3.6 -7.19 0 0 3.59 -7.21 0 0 3.6 -10.79 0 0 3.61 -14.4 0 0 3.59 -14.39 0 0 3.6 -35.99 0 0 -3.6 -10.8 0 0 -3.59 -10.8 0 0 -3.61 -10.8 0 0 -3.6 -7.19 0 0 -3.59 -7.2 0 0 -3.6 -7.2 0 0 -3.6 -7.2 0 0 -3.6 -3.6 0 0 -3.6 -7.19 0 0 -3.6 -3.6 0 0 -3.6 -3.6 0 0 -3.6 -3.6 0 0 -3.6 -7.2 0 0 -3.59 -3.6 0 0 -3.6 -7.19 0 0 -3.6 -3.61 0 0 -3.6 -7.19 0 0 3.6 3.59 0 0 3.6 3.6 0 0 3.6 3.61 0 0 3.59 3.59 0 0 3.6 3.6 0 0 3.6 3.6 0 0 3.6 3.6 0 0 3.6 3.6 0 0 3.6 3.6 0 0 3.6 3.6 0 0 3.6 3.6 0 0 3.6 3.6 0 0 3.59 3.59 0 0 3.6 3.6 0 0 3.61 3.6 0 0 3.59 3.6 0 0 3.6 7.2 0 0 3.6 3.6 0 0 3.6 3.6 0 0 3.6 7.19 0 0 3.6 3.61 0 0 3.6 3.59 0 0 3.6 7.2 0 0 3.6 7.2 0 0 3.59 7.2 0 0 3.6 7.2 0 0 3.6 50.38 0 0 -3.6 10.8 0 0 -3.6 10.79 0 0 -3.59 7.21 0 0 -3.6 7.19 0 0 -3.6 7.2 0 0 -3.6 7.2 0 0 -3.6 7.2 0 0 -3.6 7.19 0 0 -3.6 7.21 0 0 -3.6 7.19 0 0 -3.6 7.2 0 0 -3.59 7.2 0 0 -3.61 7.2 0 0 -3.6 10.79 0 0 -3.59 7.2 0 0 -3.6 39.59 0 0 3.6 14.4 0 0 3.59 10.79 0 0 3.6 7.2 0 0 3.61 7.2 0 0 3.59 10.8 0 0 3.6 7.19 0 0 3.6 7.2 0 0 3.6 3.6 0 0 3.6 7.2 0 0 3.6 10.8 0 0 3.6 3.59 0 0 3.6 7.21 0 0 3.6 7.19 0 0 3.59 7.2 0 0 3.6 14.4 0 0 3.6 10.79 0 0 3.6 32.4 0 0 -3.6 14.39 0 0 -3.6 10.8 0 0 -3.6 3.6 0 0 -3.59 7.2 0 0 -3.6 7.19 0 0 -3.6 3.6 0 0 -3.6 7.2 0 0 -3.6 3.6 0 0 -3.6 3.6 0 0 -3.6 3.6 0 0 -3.6 7.2 0 0 -3.6 3.6 0 0 -3.59 3.6 0 0 -3.61 7.19 0 0 -3.6 3.6 0 0 -3.59 3.6 0 0 -3.6 3.6 0 0 -3.6 7.2 0 0 -3.6 3.6 0 0 -3.6 3.6 0 0 -3.6 3.59 0 0 -3.6 3.6 0 0 -3.6 3.6 0 0 -3.6 3.6 0 0 -3.59 3.6 0 0 -3.6 3.6 0 0 -3.6 3.6 0 0 -3.6 3.6 0 0 -3.6 3.6 0 0 -7.2 3.59 0 0 -7.2 3.61 0 0 -7.19 3.6 0 0 -3.6 3.59 0 0 -10.8 3.6 0 0 -7.2 3.6 0 0 -21.59 3.6 0 0 -14.4 3.6 0 0 -75.58 -3.6 0 0 -25.19 -3.6 0 0 -21.6 -3.6 0 0 -21.59 -3.6 0 0 -21.59 -3.59 0 0 -14.4 -3.6 0 0 -18 -3.61 0 0 -10.79 -3.59 0 0 -14.4 -3.6 0 0 -7.2 -3.6 0 0 -17.99 -3.6 0 0 -7.2 -3.6 0 0 -10.8 -3.6 0 0 -10.8 -3.6 0 0 -10.79 -3.6 0 0 -10.8 -3.6 0 0 -10.8 -3.59 0 0 -7.19 -3.6 0 0 -10.8 -3.6 0 0 -7.2 -3.6 0 0 -7.2 -3.6 0 0 -7.2 -3.6 0 0 -3.6 -3.6 0 0 -3.59 -7.2 0 0 -3.6 -7.19 0 0 -3.6 -7.2 0 0 -3.6 -7.2 0 0 -3.6 -7.2 0 0 -3.6 -7.2 0 0 -3.6 -10.79 0 0 -3.6 -10.8 0 0 -3.6 -10.8 0 0 -3.59 -10.79 0 0 -3.6 -14.4 0 0 -3.6 -10.8 0 0 -3.6 -14.4 0 0 -3.6 -35.98 0 0 -3.6 -25.2 0 0 -3.6 -115.17 0 0 3.6 -25.19 0 0 3.6 -25.2 0 0 3.6 -17.99 0 0 3.6 -21.59 0 0 3.6 -10.8 0 0 3.6 -14.4 0 0 3.59 -10.8 0 0 3.6 -14.39 0 0 3.6 -10.8 0 0 3.6 -10.79 0 0 3.6 -14.4 0 0 3.6 -7.2 0 0 3.6 -7.2 0 0 3.6 -7.19 0 0 3.6 -10.8 0 0 3.59 -7.2 0 0 3.6 -7.2 0 0 3.6 -7.2 0 0 3.6 -7.19 0 0 3.6 -7.2 0 0 3.6 -3.6 0 0 3.6 -7.2 0 0 3.6 -3.6 0 0 10.8 -3.6 0 0 14.39 -3.6 0 0 10.8 -3.59 0 0 10.8 -3.61 0 0 7.19 -3.6 0 0 10.8 -3.59 0 0 10.8 -3.6 0 0 10.8 -3.6 0 0 10.79 -3.6 0 0 10.8 -3.6 0 0 14.4 -3.6 0 0 14.39 -3.6 0 0 7.2 -3.6 0 0 18 -3.6 0 0 14.39 -3.59 0 0 10.8 -3.6 0 0 17.99 -3.61 0 0 14.4 -3.59 0 0 18 -3.6 0 0 28.79 -3.6 0 0 43.18 3.6 0 0 14.4 3.6 0 0 18 3.59 0 0 7.2 3.61 0 0 10.79 3.6 0 0 7.2 3.59 0 0 7.2 3.6 0 0 3.6 3.6 0 0 7.2 3.6 0 0 7.19 3.6 0 0 3.6 3.6 0 0 3.6 7.2 0 0 -3.6 14.4 0 0 3.6 7.19 0 0 3.6 3.6 0 0 3.6 7.2 0 0 3.6 3.6 0 0 3.6 3.6 0 0 3.6 3.6 0 0 3.6 7.19 0 0 3.59 3.6 0 0 3.6 7.2 0 0 3.6 3.6 0 0 3.6 7.2 0 0 3.6 7.2 0 0 3.6 7.2 0 0 3.6 7.19 0 0 3.6 7.2 0 0 3.6 10.8 0 0 3.59 39.59 0 0 -3.59 14.39 0 0 -3.6 7.2 0 0 -3.6 7.2 0 0 -3.6 10.79 0 0 -3.6 7.21 0 0 -3.6 7.19 0 0 -3.6 7.2 0 0 -3.6 7.2 0 0 -3.6 7.2 0 0 -3.59 7.19 0 0 -3.6 3.6 0 0 -3.6 7.2 0 0 -3.6 7.2 0 0 -3.6 3.6 0 0 -3.6 7.2 0 0 -3.6 3.6 0 0 -3.6 7.2 0 0 -3.6 3.59 0 0 -3.59 3.6 0 0 -3.6 7.2 0 0 -3.6 3.6 0 0 -3.6 3.6 0 0 -3.6 3.6 0 0 -3.6 7.2 0 0 -3.6 3.59 0 0 -3.6 3.6 0 0 -3.6 3.6 0 0 -3.6 3.6 0 0 -7.19 3.6 0 0 -3.6 3.6 0 0 -10.8 3.6 0 0 -7.2 3.6 0 0 -14.39 3.6 0 0 -68.39 7.2 0 0 21.6zm61.18 -1281.26l-3.6 0 0 -32.39 -3.6 0 0 -25.19 -3.6 0 0 -18 -3.6 0 0 -10.8 -3.6 0 0 -10.8 -3.6 0 0 -3.59 -3.59 0 0 -7.2 -18 0 0 3.6 -3.6 0 0 3.6 -3.6 0 0 3.59 -3.6 0 0 3.6 -3.59 0 0 3.6 -3.6 0 0 7.2 -3.6 0 0 7.2 -3.6 0 0 7.2 -3.6 0 0 7.2 -3.6 0 0 7.19 -3.6 0 0 10.8 -3.6 0 0 10.8 -3.6 0 0 7.2 -3.6 0 0 10.79 -3.6 0 0 14.4 -3.6 0 0 10.79 -3.59 0 0 14.4 -3.6 0 0 14.4 -3.6 0 0 14.39 -3.6 0 0 14.4 -3.6 0 0 10.8 -3.6 0 0 21.59 -3.6 0 0 14.4 -3.6 0 0 32.39 -3.6 0 0 14.39 -3.59 0 0 36 -3.6 0 0 32.39 -3.6 0 0 39.59 -3.6 0 0 28.79 -3.6 0 0 28.79 -3.6 0 0 14.4 -3.6 0 0 28.79 -3.6 0 0 17.99 -3.6 0 0 14.4 -3.59 0 0 14.4 -3.61 0 0 17.99 -3.6 0 0 7.2 -3.59 0 0 10.8 -3.6 0 0 3.6 -3.6 0 0 7.19 3.6 0 0 10.8 3.6 0 0 14.4 3.59 0 0 14.39 3.6 0 0 10.8 3.61 0 0 10.8 3.59 0 0 10.79 3.6 0 0 10.8 3.6 0 0 10.8 3.6 0 0 10.8 3.6 0 0 7.2 3.6 0 0 14.39 3.6 0 0 10.8 3.6 0 0 7.2 3.6 0 0 10.79 3.59 0 0 7.2 3.6 0 0 10.8 3.6 0 0 7.2 3.6 0 0 7.2 3.6 0 0 3.59 3.6 0 0 7.2 3.6 0 0 3.6 3.6 0 0 3.6 3.6 0 0 3.6 17.99 0 0 -3.6 3.6 0 0 -3.6 3.6 0 0 -3.6 3.6 0 0 -7.2 3.6 0 0 -3.59 3.6 0 0 -7.2 3.6 0 0 -7.2 3.6 0 0 -3.6 3.59 0 0 -7.2 3.6 0 0 -7.2 3.6 0 0 -10.79 3.6 0 0 -3.6 3.6 0 0 -7.2 3.6 0 0 -7.2 3.6 0 0 -10.8 3.6 0 0 -7.19 3.6 0 0 -7.2 3.59 0 0 -7.2 3.6 0 0 -7.2 3.6 0 0 -10.79 3.6 0 0 -7.2 3.6 0 0 -7.2 3.6 0 0 -7.2 3.6 0 0 -10.8 3.6 0 0 -7.19 3.6 0 0 -7.2 3.59 0 0 -10.8 3.61 0 0 -10.79 3.6 0 0 -14.4 -3.6 0 0 -21.6 -3.61 0 0 -21.59 -3.59 0 0 -35.99 -3.6 0 0 -35.99 -3.6 0 0 -32.39 -3.6 0 0 -190.75 3.6 0 0 -118.77zm-248.34 -57.58l-3.59 0 0 -14.4 -3.6 0 0 -10.8 -3.6 0 0 -7.2 -3.6 0 0 -7.2 -3.6 0 0 -3.59 -7.2 0 0 3.59 -7.2 0 0 3.6 -3.59 0 0 3.6 -7.2 0 0 3.6 -3.6 0 0 7.2 -3.6 0 0 3.6 -3.6 0 0 7.2 -3.6 0 0 3.59 -3.6 0 0 7.21 -3.6 0 0 7.19 -3.6 0 0 7.2 -3.59 0 0 7.2 -3.61 0 0 7.2 -3.59 0 0 7.19 -3.6 0 0 10.8 -3.6 0 0 10.8 -3.6 0 0 7.2 -3.6 0 0 14.39 -3.6 0 0 7.2 -3.6 0 0 10.8 -3.6 0 0 10.8 -3.6 0 0 10.79 -3.59 0 0 10.8 -3.6 0 0 18 -3.6 0 0 10.79 -3.6 0 0 18 -3.6 0 0 10.79 -3.6 0 0 18 -3.6 0 0 21.6 -3.6 0 0 21.59 -3.6 0 0 21.59 -3.59 0 0 18 -3.61 0 0 35.99 -3.6 0 0 35.99 -3.59 0 0 50.39 -3.6 0 0 104.37 3.6 0 0 61.18 3.59 0 0 32.39 3.6 0 0 25.2 3.61 0 0 35.98 3.59 0 0 28.8 3.6 0 0 28.79 3.6 0 0 35.99 3.6 0 0 32.39 3.6 0 0 39.59 3.6 0 0 190.75 -3.6 0 0 14.4 -3.6 0 0 14.39 7.2 0 0 -3.6 7.2 0 0 -3.6 7.19 0 0 -3.59 7.2 0 0 -3.6 7.2 0 0 -3.6 7.2 0 0 -3.6 7.2 0 0 -3.6 7.2 0 0 -3.6 7.19 0 0 -3.6 10.8 0 0 -3.6 7.2 0 0 -3.6 10.8 0 0 -3.59 10.79 0 0 -3.6 7.2 0 0 -3.6 10.8 0 0 -3.6 14.39 0 0 -3.6 14.4 0 0 -3.6 14.4 0 0 -3.6 14.39 0 0 -3.6 21.6 0 0 -3.6 21.59 0 0 -3.59 18 0 0 -3.61 140.36 0 0 3.61 39.59 0 0 3.59 14.39 0 0 3.6 18 0 0 3.6 10.8 0 0 3.6 17.99 0 0 3.6 7.2 0 0 3.6 10.8 0 0 3.6 10.79 0 0 3.6 10.8 0 0 3.6 7.2 0 0 3.59 7.2 0 0 3.6 7.2 0 0 3.6 7.19 0 0 3.6 7.2 0 0 3.6 3.6 0 0 -25.19 -3.6 0 0 -50.39 -3.6 0 0 -35.99 -3.6 0 0 -82.78 3.6 0 0 -46.79 3.6 0 0 -53.98 3.6 0 0 -18 3.6 0 0 -35.99 3.6 0 0 -21.59 3.6 0 0 -18 3.6 0 0 -32.39 3.6 0 0 -14.4 3.59 0 0 -28.79 3.6 0 0 -21.59 3.6 0 0 -25.19 3.6 0 0 -32.39 3.6 0 0 -36 3.6 0 0 -21.59 3.6 0 0 -28.79 3.6 0 0 -100.77 -3.6 0 0 -50.39 -3.6 0 0 -32.39 -3.6 0 0 -21.6 -3.6 0 0 -28.79 -3.6 0 0 -17.99 -3.6 0 0 -14.4 -3.6 0 0 -14.4 -3.59 0 0 -21.59 -3.6 0 0 -14.4 -3.6 0 0 -10.79 -3.6 0 0 -10.8 -3.6 0 0 -10.8 -3.6 0 0 -10.8 -3.6 0 0 -10.79 -3.6 0 0 -7.2 -3.6 0 0 -7.2 -3.59 0 0 -7.2 -3.6 0 0 -3.6 -3.6 0 0 -3.59 -7.2 0 0 -3.6 -10.8 0 0 3.6 -7.2 0 0 7.19 -3.6 0 0 7.2 -3.6 0 0 10.8 -3.59 0 0 14.39 -3.6 0 0 32.4 -3.6 0 0 10.79 -3.6 0 0 136.76 -3.6 0 0 39.6 -3.6 0 0 28.79 -3.6 0 0 21.59 -3.6 0 0 21.6 -3.6 0 0 17.99 -3.59 0 0 14.4 -3.6 0 0 14.4 -3.6 0 0 17.99 -3.6 0 0 10.8 -3.6 0 0 10.79 -3.6 0 0 14.4 -3.6 0 0 10.8 -3.6 0 0 14.39 -3.6 0 0 7.2 -3.59 0 0 10.8 -3.61 0 0 10.8 -3.6 0 0 10.79 -3.59 0 0 7.2 -3.6 0 0 10.8 -3.6 0 0 7.19 -3.6 0 0 10.8 -3.6 0 0 10.8 -3.6 0 0 7.2 -3.6 0 0 10.79 -3.6 0 0 7.2 -3.6 0 0 10.8 -3.59 0 0 7.2 -3.6 0 0 7.19 -3.61 0 0 7.2 -3.59 0 0 7.2 -3.6 0 0 7.2 -3.6 0 0 10.8 -3.6 0 0 7.2 -3.6 0 0 7.19 -3.6 0 0 7.2 -3.6 0 0 7.2 -3.6 0 0 7.2 -3.6 0 0 7.19 -3.59 0 0 7.2 -3.6 0 0 7.2 -3.6 0 0 10.8 -3.6 0 0 3.6 -3.6 0 0 7.2 -3.6 0 0 7.19 -3.6 0 0 3.6 -3.6 0 0 7.2 -3.6 0 0 7.2 -3.59 0 0 3.6 -3.6 0 0 3.6 -3.6 0 0 3.6 -3.6 0 0 3.59 -7.2 0 0 3.6 -28.79 0 0 -3.6 -7.2 0 0 -3.59 -7.2 0 0 -3.6 -3.6 0 0 -3.6 -3.6 0 0 -3.6 -3.6 0 0 -7.2 -3.59 0 0 -3.6 -3.6 0 0 -7.2 -3.6 0 0 -7.19 -3.6 0 0 -7.2 -3.6 0 0 -7.2 -3.6 0 0 -10.8 -3.6 0 0 -7.2 -3.6 0 0 -10.79 -3.6 0 0 -7.2 -3.59 0 0 -10.8 -3.61 0 0 -10.79 -3.6 0 0 -10.8 -3.59 0 0 -10.8 -3.6 0 0 -10.8 -3.6 0 0 -14.39 -3.6 0 0 -10.8 -3.6 0 0 -14.4 -3.6 0 0 -10.79 -3.6 0 0 -10.8 -3.6 0 0 -10.79 -3.6 0 0 -14.4 -3.59 0 0 -14.4 -3.6 0 0 -14.39 -3.61 0 0 -10.8 -3.59 0 0 -10.8 -3.6 0 0 -18 -3.6 0 0 -14.39 -3.6 0 0 -21.59 -3.6 0 0 -18 -3.6 0 0 -14.39 -3.6 0 0 -28.8 -3.6 0 0 -17.99 -3.6 0 0 -32.39 -3.59 0 0 -183.56 3.59 0 0 -115.16zm226.74 -68.39l7.2 0 0 3.6 3.6 0 0 3.6 3.6 0 0 3.6 3.6 0 0 7.2 3.6 0 0 7.2 3.6 0 0 10.79 3.6 0 0 10.8 3.59 0 0 14.39 3.61 0 0 28.8 3.6 0 0 17.99 3.59 0 0 143.97 -3.59 0 0 143.96 3.59 0 0 68.38 3.6 0 0 43.19 3.6 0 0 28.79 3.6 0 0 14.4 3.6 0 0 -10.8 3.6 0 0 -10.8 3.6 0 0 -10.8 3.6 0 0 -7.19 3.6 0 0 -14.4 3.59 0 0 -14.4 3.6 0 0 -14.39 3.61 0 0 -7.2 3.59 0 0 -14.39 3.6 0 0 -21.6 3.6 0 0 -14.4 3.6 0 0 -21.59 3.6 0 0 -14.4 3.6 0 0 -21.59 3.6 0 0 -28.79 3.6 0 0 -21.6 3.6 0 0 -129.56 3.59 0 0 -46.79 3.6 0 0 -21.6 3.6 0 0 -17.99 3.6 0 0 -7.2 3.6 0 0 -7.2 3.6 0 0 -7.19 3.6 0 0 -7.2 3.6 0 0 -3.6 3.6 0 0 -3.6 3.59 0 0 -3.6 7.2 0 0 -3.6 25.2 0 0 3.6 7.2 0 0 3.6 3.59 0 0 3.6 3.6 0 0 3.6 3.6 0 0 3.59 3.6 0 0 3.61 3.6 0 0 3.6 3.6 0 0 7.19 3.6 0 0 7.2 3.6 0 0 7.2 3.6 0 0 7.2 3.59 0 0 10.79 3.6 0 0 7.2 3.6 0 0 18 3.6 0 0 14.39 3.6 0 0 14.4 3.6 0 0 14.4 3.6 0 0 21.59 3.6 0 0 18 3.6 0 0 10.79 3.59 0 0 28.79 3.61 0 0 28.8 3.6 0 0 25.19 3.59 0 0 39.59 3.6 0 0 115.17 -3.6 0 0 32.39 -3.59 0 0 50.39 -3.6 0 0 21.59 -3.61 0 0 18 -3.59 0 0 25.19 -3.6 0 0 28.79 -3.6 0 0 25.2 -3.6 0 0 17.99 -3.6 0 0 28.79 -3.6 0 0 18 -3.6 0 0 32.39 -3.6 0 0 21.59 -3.6 0 0 32.39 -3.59 0 0 46.79 -3.6 0 0 161.96 3.6 0 0 21.6 3.59 0 0 35.98 3.6 0 0 25.2 3.6 0 0 10.79 3.6 0 0 14.4 3.6 0 0 10.8 3.6 0 0 10.8 3.6 0 0 7.19 3.6 0 0 10.8 3.6 0 0 10.8 3.59 0 0 7.19 3.61 0 0 14.4 3.6 0 0 10.8 3.59 0 0 10.8 3.6 0 0 7.19 3.6 0 0 18 3.6 0 0 10.8 3.6 0 0 17.99 3.6 0 0 10.8 3.6 0 0 17.99 3.6 0 0 18 3.6 0 0 21.59 3.59 0 0 21.6 3.6 0 0 35.99 3.6 0 0 50.39 -3.6 0 0 25.19 -3.6 0 0 10.79 -3.59 0 0 14.4 -3.6 0 0 10.8 -3.6 0 0 10.8 -3.6 0 0 7.19 -3.6 0 0 7.2 -3.6 0 0 7.2 -3.6 0 0 3.6 -3.6 0 0 3.6 -3.6 0 0 7.19 -3.59 0 0 3.6 -3.6 0 0 3.6 -3.61 0 0 3.6 -3.59 0 0 3.6 -3.6 0 0 3.6 -3.6 0 0 3.6 -3.6 0 0 3.6 -3.6 0 0 3.6 -3.6 0 0 3.59 -7.2 0 0 3.6 -3.6 0 0 3.61 -3.59 0 0 3.59 -3.6 0 0 3.6 -3.6 0 0 3.6 -3.6 0 0 3.6 -7.2 0 0 3.6 -3.6 0 0 3.6 -3.6 0 0 3.6 -7.19 0 0 3.6 -3.6 0 0 3.6 -3.6 0 0 3.59 -7.2 0 0 3.6 -3.6 0 0 3.6 -7.2 0 0 3.6 -3.6 0 0 3.6 -7.2 0 0 3.6 -7.19 0 0 3.6 -7.2 0 0 3.6 -10.8 0 0 3.6 -17.99 0 0 3.59 -36 0 0 -3.59 -21.59 0 0 -3.6 -7.2 0 0 -3.6 -7.19 0 0 -3.6 -10.8 0 0 -3.6 -7.2 0 0 -3.6 -7.2 0 0 -3.6 -7.2 0 0 -3.6 -3.6 0 0 -3.6 -7.19 0 0 -3.59 -7.2 0 0 -3.6 -7.2 0 0 -3.6 -10.8 0 0 -3.6 -7.19 0 0 -3.6 -7.2 0 0 -3.6 -10.8 0 0 -3.6 -46.79 0 0 3.6 -7.2 0 0 3.6 -7.19 0 0 3.6 -7.2 0 0 3.6 -7.2 0 0 3.6 -7.2 0 0 3.6 -7.19 0 0 3.59 -7.21 0 0 3.6 -3.59 0 0 3.6 -7.2 0 0 3.6 -10.8 0 0 3.6 -7.2 0 0 3.6 -7.19 0 0 3.6 -14.4 0 0 3.6 -14.4 0 0 3.6 -10.8 0 0 3.59 -35.98 0 0 -3.59 -10.8 0 0 -3.6 -10.8 0 0 -3.6 -7.2 0 0 -3.6 -7.19 0 0 -3.6 -3.61 0 0 -3.6 -7.19 0 0 -3.6 -7.2 0 0 -3.6 -3.6 0 0 -3.6 -3.6 0 0 -3.59 -3.6 0 0 -3.6 -7.2 0 0 -3.6 -3.59 0 0 -3.6 -3.6 0 0 -3.6 -3.6 0 0 -3.6 -3.6 0 0 -3.6 -3.6 0 0 -3.6 -3.6 0 0 -3.6 -7.2 0 0 -3.59 -3.6 0 0 -3.61 -3.59 0 0 -3.6 -3.61 0 0 -3.59 -3.6 0 0 -3.6 -3.59 0 0 -3.6 -3.6 0 0 -3.6 -3.6 0 0 -3.6 -3.6 0 0 -3.6 -3.6 0 0 -3.6 -3.6 0 0 -7.2 -3.6 0 0 -3.59 -3.6 0 0 -3.6 -3.6 0 0 -3.6 -3.59 0 0 -3.6 -3.6 0 0 -7.2 -3.61 0 0 -3.6 -3.59 0 0 -7.2 -3.6 0 0 -7.19 -3.6 0 0 -7.2 -3.6 0 0 -10.8 -3.6 0 0 -7.2 -3.6 0 0 -10.79 -3.6 0 0 -18 -3.6 0 0 -21.6 -3.6 0 0 -53.98 3.6 0 0 -28.79 3.6 0 0 -21.6 3.6 0 0 -10.79 3.6 0 0 -18 3.6 0 0 -7.2 3.6 0 0 -14.39 3.6 0 0 -14.4 3.6 0 0 -17.99 3.59 0 0 -10.8 3.61 0 0 -7.2 3.6 0 0 -17.99 3.59 0 0 -7.2 3.6 0 0 -10.8 3.6 0 0 -10.8 3.6 0 0 -10.79 3.6 0 0 -10.8 3.6 0 0 -10.8 3.6 0 0 -10.79 3.6 0 0 -10.8 3.6 0 0 -14.4 3.59 0 0 -21.59 3.6 0 0 -46.79 3.61 0 0 -133.16 -3.61 0 0 -50.39 -3.6 0 0 -28.79 -3.59 0 0 -43.19 -3.6 0 0 -21.6 -3.6 0 0 -28.79 -3.6 0 0 -35.99 -3.6 0 0 -35.99 -3.6 0 0 -50.39 -3.6 0 0 -61.18 -3.6 0 0 -97.17 3.6 0 0 -64.79 3.6 0 0 -17.99 3.6 0 0 -46.79 3.6 0 0 -14.4 3.6 0 0 -28.79 3.6 0 0 -14.4 3.6 0 0 -17.99 3.59 0 0 -21.59 3.6 0 0 -10.8 3.61 0 0 -14.4 3.59 0 0 -17.99 3.6 0 0 -10.8 3.6 0 0 -14.4 3.6 0 0 -7.19 3.6 0 0 -14.4 3.6 0 0 -10.8 3.6 0 0 -10.8 3.6 0 0 -10.79 3.6 0 0 -10.8 3.59 0 0 -7.2 3.6 0 0 -10.79 3.6 0 0 -7.2 3.6 0 0 -7.2 3.6 0 0 -10.8 3.6 0 0 -3.59 3.6 0 0 -7.21 3.6 0 0 -7.19 3.6 0 0 -7.2 3.59 0 0 -3.6 3.61 0 0 -7.2 3.59 0 0 -3.6 3.6 0 0 -3.6 3.6 0 0 -3.59 3.6 0 0 -3.6 3.6 0 0 -3.6 3.6 0 0 -3.6 3.6 0 0 -3.6 3.6 0 0 -3.6 10.79 0 0 -3.6 18 0 0 3.6 7.2 0 0 3.6 7.19 0 0 7.2 3.6 0 0 3.6 3.6 0 0 7.19 3.6 0 0 7.2 3.6 0 0 10.8 3.6 0 0 32.39 3.6 0 0 100.77 -3.6 0 0 165.56 3.6 0 0 46.79 3.6 0 0 25.19 3.6 0 0 14.4 3.59 0 0 17.99 3.61 0 0 18 3.6 0 0 17.99 3.59 0 0 18 3.6 0 0 18 3.6 0 0 10.79 3.6 0 0 14.4 3.6 0 0 -3.6 3.6 0 0 -14.4 3.6 0 0 -17.99 3.6 0 0 -21.6 3.6 0 0 -28.79 3.59 0 0 -28.79 3.6 0 0 -28.79 3.61 0 0 -43.19 3.59 0 0 -18 3.6 0 0 -32.39 3.6 0 0 -28.79 3.6 0 0 -14.4 3.6 0 0 -21.59 3.6 0 0 -25.19 3.6 0 0 -18 3.6 0 0 -14.4 3.6 0 0 -14.39 3.59 0 0 -10.8 3.6 0 0 -17.99 3.6 0 0 -14.4 3.6 0 0 -7.2 3.6 0 0 -18 3.6 0 0 -7.19 3.6 0 0 -10.8 3.6 0 0 -10.8 3.6 0 0 -7.19 3.59 0 0 -10.8 3.6 0 0 -7.2 3.6 0 0 -7.2 3.6 0 0 -7.2 3.6 0 0 -3.6 3.6 0 0 -7.19 3.6 0 0 -3.6 3.6 0 0 -7.2 3.6 0 0 -3.6 3.6 0 0 -3.6 3.6 0 0 -3.6 7.19 0 0 -3.6 7.2 0 0 -3.6 25.19 0 0 3.6z"/>
  <path class="fil3" d="M762.14 1893.48l-321.79 -522.21 283.41 -484.26 -131.24 0 -151.78 257.48c-31.6,53.41 -53.5,94.18 -66.11,122.52 -18.8,-35.14 -40.9,-72.62 -66.29,-112.22l-166.33 -267.78 -120.77 0 289.23 478.4 -311.33 528.07 135.31 0 210.14 -358.92c12.02,-20.38 23.45,-40.76 34.31,-60.91 18.42,33.73 31.6,57.4 39.93,70.75l210.91 349.08 132.4 0z"/>
 </g>
</svg>