<?xml version="1.0" encoding="UTF-8"?>
<!DOCTYPE svg PUBLIC "-//W3C//DTD SVG 1.1//EN" "http://www.w3.org/Graphics/SVG/1.1/DTD/svg11.dtd">
<!-- Creator: CorelDRAW (Versión de evaluación) -->
<svg xmlns="http://www.w3.org/2000/svg" xml:space="preserve" width="763px" height="2062px" version="1.1" style="shape-rendering:geometricPrecision; text-rendering:geometricPrecision; image-rendering:optimizeQuality; fill-rule:evenodd; clip-rule:evenodd"
viewBox="0 0 763 2062.24"
 xmlns:xlink="http://www.w3.org/1999/xlink"
 xmlns:xodm="http://www.corel.com/coreldraw/odm/2003">
 <defs>
  <style type="text/css">
   <![CDATA[
    .str0 {stroke:#ED3237;stroke-width:2;stroke-miterlimit:22.9256}
    .fil2 {fill:#4B4B4D}
    .fil3 {fill:#ED3237}
    .fil0 {fill:#F2E6C9}
    .fil1 {fill:#FAFAF7}
   ]]>
  </style>
 </defs>
 <g id="extraction">
  <metadata id="CorelCorpID_0Corel-Layer"/>
  <path id="root" class="fil0" d="M553.77 375.31l-3.6 0 0 7.2 -3.6 0 0 7.2 -3.6 0 0 10.8 -3.6 0 0 14.4 -3.59 0 0 115.17 3.59 0 0 183.55 -3.59 0 0 32.39 -3.6 0 0 17.99 -3.6 0 0 28.79 -3.6 0 0 14.4 -3.6 0 0 18 -3.6 0 0 21.59 -3.59 0 0 14.39 -3.6 0 0 18 -3.61 0 0 10.8 -3.59 0 0 10.8 -3.6 0 0 14.39 -3.6 0 0 14.4 -3.6 0 0 14.4 -3.6 0 0 10.79 -3.6 0 0 10.79 -3.59 0 0 10.8 -3.61 0 0 14.4 -3.6 0 0 10.8 -3.59 0 0 14.39 -3.6 0 0 10.8 -3.6 0 0 10.8 -3.6 0 0 10.8 -3.6 0 0 10.79 -3.6 0 0 10.8 -3.6 0 0 7.2 -3.6 0 0 10.79 -3.6 0 0 7.2 -3.59 0 0 10.8 -3.61 0 0 7.2 -3.6 0 0 7.2 -3.59 0 0 7.19 -3.6 0 0 7.21 -3.6 0 0 3.59 -3.6 0 0 7.2 -3.6 0 0 3.6 -3.6 0 0 3.6 -3.6 0 0 3.6 -7.2 0 0 3.59 -7.19 0 0 3.6 -28.8 0 0 -3.6 -7.2 0 0 -3.59 -3.59 0 0 -3.6 -3.6 0 0 -3.6 -3.6 0 0 -3.6 -3.6 0 0 -7.2 -3.6 0 0 -7.2 -3.6 0 0 -3.6 -3.6 0 0 -7.19 -3.6 0 0 -7.2 -3.6 0 0 -3.6 -3.59 0 0 -10.8 -3.6 0 0 -7.2 -3.6 0 0 -7.2 -3.6 0 0 -7.19 -3.6 0 0 -7.2 -3.6 0 0 -7.2 -3.6 0 0 -7.2 -3.6 0 0 -7.19 -3.6 0 0 -7.21 -3.6 0 0 -10.79 -3.6 0 0 -7.2 -3.6 0 0 -7.2 -3.59 0 0 -7.2 -3.6 0 0 -7.19 -3.6 0 0 -7.2 -3.6 0 0 -10.8 -3.6 0 0 -7.2 -3.6 0 0 -10.8 -3.6 0 0 -7.19 -3.6 0 0 -10.8 -3.6 0 0 -10.8 -3.59 0 0 -7.19 -3.6 0 0 -10.8 -3.6 0 0 -7.2 -3.6 0 0 -10.79 -3.6 0 0 -10.8 -3.6 0 0 -10.8 -3.6 0 0 -7.2 -3.6 0 0 -14.39 -3.6 0 0 -10.8 -3.6 0 0 -14.4 -3.6 0 0 -10.79 -3.6 0 0 -10.8 -3.59 0 0 -18 -3.6 0 0 -14.39 -3.6 0 0 -14.4 -3.6 0 0 -17.99 -3.6 0 0 -21.6 -3.6 0 0 -21.59 -3.6 0 0 -28.79 -3.6 0 0 -39.6 -3.6 0 0 -136.76 -3.59 0 0 -10.79 -3.6 0 0 -32.4 -3.6 0 0 -14.39 -3.6 0 0 -10.8 -3.6 0 0 -7.2 -3.6 0 0 -7.19 -7.2 0 0 -3.6 -10.8 0 0 3.6 -7.19 0 0 3.59 -3.6 0 0 3.6 -3.6 0 0 7.2 -3.6 0 0 7.2 -3.6 0 0 7.2 -3.6 0 0 10.79 -3.6 0 0 10.8 -3.6 0 0 10.8 -3.6 0 0 10.8 -3.59 0 0 10.79 -3.61 0 0 14.4 -3.59 0 0 21.59 -3.6 0 0 14.4 -3.6 0 0 14.4 -3.6 0 0 17.99 -3.6 0 0 28.8 -3.6 0 0 21.59 -3.6 0 0 32.39 -3.6 0 0 50.39 -3.6 0 0 100.77 3.6 0 0 28.79 3.6 0 0 21.6 3.6 0 0 35.99 3.6 0 0 32.39 3.6 0 0 25.19 3.6 0 0 21.59 3.6 0 0 28.79 3.6 0 0 14.4 3.59 0 0 32.39 3.61 0 0 18 3.59 0 0 21.59 3.6 0 0 35.99 3.6 0 0 18 3.6 0 0 53.98 3.6 0 0 46.79 3.6 0 0 82.78 -3.6 0 0 35.99 -3.6 0 0 50.39 -3.6 0 0 25.19 3.6 0 0 -3.6 7.2 0 0 -3.6 7.2 0 0 -3.6 7.2 0 0 -3.6 7.2 0 0 -3.59 7.19 0 0 -3.6 10.8 0 0 -3.6 10.8 0 0 -3.6 10.79 0 0 -3.6 7.2 0 0 -3.6 18 0 0 -3.6 10.79 0 0 -3.6 18 0 0 -3.6 14.4 0 0 -3.59 39.58 0 0 -3.6 140.37 0 0 3.6 17.99 0 0 3.59 21.6 0 0 3.6 21.59 0 0 3.6 14.4 0 0 3.6 14.4 0 0 3.6 14.39 0 0 3.6 14.39 0 0 3.6 10.8 0 0 3.6 7.2 0 0 3.6 10.8 0 0 3.59 10.79 0 0 3.6 7.2 0 0 3.6 10.8 0 0 3.6 7.2 0 0 3.6 7.2 0 0 3.6 7.2 0 0 3.6 7.19 0 0 3.6 7.2 0 0 3.6 7.2 0 0 3.59 7.2 0 0 3.6 7.19 0 0 3.61 7.21 0 0 -14.4 -3.61 0 0 -14.4 -3.6 0 0 -190.75 3.6 0 0 -39.59 3.61 0 0 -32.39 3.59 0 0 -35.99 3.6 0 0 -28.79 3.6 0 0 -28.8 3.6 0 0 -35.98 3.6 0 0 -25.2 3.6 0 0 -32.39 3.59 0 0 -61.18 3.61 0 0 -104.37 -3.61 0 0 -50.39 -3.59 0 0 -35.99 -3.6 0 0 -35.99 -3.6 0 0 -17.99 -3.6 0 0 -21.6 -3.6 0 0 -21.6 -3.6 0 0 -21.59 -3.59 0 0 -18 -3.61 0 0 -10.79 -3.6 0 0 -18 -3.59 0 0 -10.79 -3.6 0 0 -18 -3.6 0 0 -10.8 -3.6 0 0 -10.79 -3.6 0 0 -10.8 -3.6 0 0 -10.8 -3.6 0 0 -7.2 -3.6 0 0 -14.39 -3.6 0 0 -7.2 -3.59 0 0 -10.8 -3.6 0 0 -10.8 -3.6 0 0 -7.19 -3.6 0 0 -7.2 -3.6 0 0 -7.2 -3.6 0 0 -7.2 -3.6 0 0 -7.19 -3.6 0 0 -7.2 -3.6 0 0 -3.6 -3.6 0 0 -7.2 -3.6 0 0 -3.6 -3.6 0 0 -7.2 -3.59 0 0 -3.6 -7.2 0 0 -3.6 -3.6 0 0 -3.6 -7.2 0 0 -3.59 -7.2 0 0 3.59zm-241.13 -3.59l-3.6 0 0 3.59 -3.6 0 0 10.8 -3.6 0 0 10.8 -3.6 0 0 18 -3.6 0 0 25.19 -3.6 0 0 32.39 -3.6 0 0 118.77 3.6 0 0 190.75 -3.6 0 0 32.39 -3.6 0 0 35.99 -3.6 0 0 35.99 -3.59 0 0 21.59 -3.6 0 0 21.6 -3.6 0 0 14.4 3.6 0 0 10.79 3.6 0 0 10.79 3.59 0 0 7.21 3.6 0 0 7.19 3.6 0 0 10.8 3.6 0 0 7.2 3.6 0 0 7.2 3.6 0 0 7.19 3.6 0 0 10.8 3.6 0 0 7.2 3.6 0 0 7.2 3.6 0 0 7.2 3.6 0 0 7.19 3.6 0 0 10.8 3.59 0 0 7.2 3.6 0 0 7.2 3.6 0 0 3.6 3.6 0 0 10.79 3.6 0 0 7.2 3.6 0 0 7.2 3.6 0 0 3.6 3.6 0 0 7.2 3.6 0 0 7.2 3.59 0 0 3.59 3.6 0 0 7.21 3.6 0 0 3.59 3.6 0 0 3.6 3.6 0 0 3.6 17.99 0 0 -3.6 3.61 0 0 -3.6 3.6 0 0 -3.59 3.59 0 0 -7.21 3.6 0 0 -3.59 3.6 0 0 -7.2 3.6 0 0 -7.2 3.6 0 0 -10.8 3.6 0 0 -7.2 3.6 0 0 -10.79 3.6 0 0 -7.2 3.6 0 0 -10.8 3.59 0 0 -14.39 3.6 0 0 -7.21 3.61 0 0 -10.79 3.59 0 0 -10.8 3.6 0 0 -10.8 3.6 0 0 -10.79 3.6 0 0 -10.8 3.6 0 0 -10.8 3.6 0 0 -14.39 3.6 0 0 -14.4 3.6 0 0 -10.8 3.6 0 0 -7.19 -3.6 0 0 -3.6 -3.6 0 0 -10.8 -3.6 0 0 -7.2 -3.6 0 0 -17.99 -3.6 0 0 -14.4 -3.6 0 0 -14.4 -3.6 0 0 -17.99 -3.6 0 0 -28.79 -3.59 0 0 -14.4 -3.61 0 0 -28.79 -3.6 0 0 -28.79 -3.59 0 0 -39.59 -3.6 0 0 -32.39 -3.6 0 0 -36 -3.6 0 0 -14.39 -3.6 0 0 -32.39 -3.6 0 0 -14.4 -3.6 0 0 -21.59 -3.6 0 0 -10.8 -3.6 0 0 -14.4 -3.59 0 0 -14.39 -3.6 0 0 -14.4 -3.61 0 0 -14.4 -3.59 0 0 -10.79 -3.6 0 0 -14.4 -3.6 0 0 -10.79 -3.6 0 0 -7.2 -3.6 0 0 -10.8 -3.6 0 0 -10.8 -3.6 0 0 -7.19 -3.6 0 0 -7.2 -3.6 0 0 -7.2 -3.59 0 0 -7.2 -3.6 0 0 -7.2 -3.6 0 0 -3.6 -3.6 0 0 -3.6 -3.6 0 0 -3.59 -3.6 0 0 -3.6 -3.6 0 0 -3.6 -17.99 0 0 7.2z"/>
  <polygon id="crown" class="fil1" points="294.64,1408.24 269.45,1408.24 269.45,1411.84 233.46,1411.84 233.46,1415.44 219.06,1415.44 219.06,1419.04 208.26,1419.04 208.26,1422.64 193.87,1422.64 193.87,1426.24 183.07,1426.24 183.07,1429.83 172.27,1429.83 172.27,1433.43 161.48,1433.43 161.48,1437.03 150.68,1437.03 150.68,1440.63 143.48,1440.63 143.48,1444.23 136.29,1444.23 136.29,1447.83 129.08,1447.83 129.08,1451.43 121.89,1451.43 121.89,1455.03 114.69,1455.03 114.69,1458.63 107.49,1458.63 107.49,1462.22 103.89,1462.22 103.89,1465.82 100.29,1465.82 100.29,1473.02 96.69,1473.02 96.69,1480.22 93.1,1480.22 93.1,1487.42 89.5,1487.42 89.5,1498.22 85.9,1498.22 85.9,1505.41 82.3,1505.41 82.3,1516.21 78.7,1516.21 78.7,1527.01 75.1,1527.01 75.1,1537.8 71.5,1537.8 71.5,1548.6 67.9,1548.6 67.9,1559.4 64.3,1559.4 64.3,1566.6 60.71,1566.6 60.71,1584.59 57.1,1584.59 57.1,1591.79 53.5,1591.79 53.5,1606.19 49.91,1606.19 49.91,1616.98 46.31,1616.98 46.31,1634.98 42.71,1634.98 42.71,1649.38 39.11,1649.38 39.11,1670.97 35.51,1670.97 35.51,1692.56 31.91,1692.56 31.91,1714.16 28.31,1714.16 28.31,1739.35 24.71,1739.35 24.71,1814.93 28.31,1814.93 28.31,1829.33 31.91,1829.33 31.91,1850.92 35.51,1850.92 35.51,1858.12 39.11,1858.12 39.11,1868.92 42.71,1868.92 42.71,1872.52 46.31,1872.52 46.31,1879.71 49.91,1879.71 49.91,1886.91 53.5,1886.91 53.5,1894.11 57.1,1894.11 57.1,1897.71 60.71,1897.71 60.71,1901.31 64.3,1901.31 64.3,1904.91 67.9,1904.91 67.9,1908.51 71.5,1908.51 71.5,1912.1 75.1,1912.1 75.1,1915.7 78.7,1915.7 78.7,1919.3 82.3,1919.3 82.3,1922.9 85.9,1922.9 85.9,1926.5 89.5,1926.5 89.5,1930.1 93.1,1930.1 93.1,1933.7 100.29,1933.7 100.29,1937.3 103.89,1937.3 103.89,1940.9 107.49,1940.9 107.49,1944.49 111.09,1944.49 111.09,1948.09 118.29,1948.09 118.29,1951.7 121.89,1951.7 121.89,1955.29 125.49,1955.29 125.49,1958.89 132.68,1958.89 132.68,1962.49 136.29,1962.49 136.29,1966.09 139.88,1966.09 139.88,1969.69 143.48,1969.69 143.48,1973.29 150.68,1973.29 150.68,1976.89 154.28,1976.89 154.28,1980.49 161.48,1980.49 161.48,1984.09 168.68,1984.09 168.68,1987.68 172.27,1987.68 172.27,1991.28 183.07,1991.28 183.07,1994.88 197.47,1994.88 197.47,1998.48 229.86,1998.48 229.86,1994.88 240.66,1994.88 240.66,1991.28 255.05,1991.28 255.05,1987.68 262.25,1987.68 262.25,1984.09 269.45,1984.09 269.45,1980.49 276.65,1980.49 276.65,1976.89 280.24,1976.89 280.24,1973.29 291.04,1973.29 291.04,1969.69 298.24,1969.69 298.24,1966.09 301.84,1966.09 301.84,1962.49 309.04,1962.49 309.04,1958.89 316.24,1958.89 316.24,1955.29 327.03,1955.29 327.03,1951.7 334.23,1951.7 334.23,1948.09 341.43,1948.09 341.43,1944.49 352.23,1944.49 352.23,1940.9 366.62,1940.9 366.62,1937.3 406.21,1937.3 406.21,1940.9 413.41,1940.9 413.41,1944.49 424.21,1944.49 424.21,1948.09 431.4,1948.09 431.4,1951.7 438.6,1951.7 438.6,1955.29 445.8,1955.29 445.8,1958.89 453,1958.89 453,1962.49 460.2,1962.49 460.2,1966.09 467.4,1966.09 467.4,1969.69 474.59,1969.69 474.59,1973.29 481.79,1973.29 481.79,1976.89 488.99,1976.89 488.99,1980.49 496.19,1980.49 496.19,1984.09 503.39,1984.09 503.39,1987.68 514.19,1987.68 514.19,1991.28 524.98,1991.28 524.98,1994.88 575.37,1994.88 575.37,1991.28 582.56,1991.28 582.56,1987.68 589.76,1987.68 589.76,1984.09 596.96,1984.09 596.96,1980.49 604.16,1980.49 604.16,1976.89 607.76,1976.89 607.76,1973.29 611.36,1973.29 611.36,1969.69 618.56,1969.69 618.56,1966.09 622.16,1966.09 622.16,1962.49 625.75,1962.49 625.75,1958.89 632.95,1958.89 632.95,1955.29 636.55,1955.29 636.55,1951.7 640.15,1951.7 640.15,1948.09 643.75,1948.09 643.75,1944.49 647.35,1944.49 647.35,1940.9 650.95,1940.9 650.95,1937.3 654.55,1937.3 654.55,1933.7 658.14,1933.7 658.14,1930.1 661.74,1930.1 661.74,1926.5 665.34,1926.5 665.34,1922.9 668.94,1922.9 668.94,1919.3 672.54,1919.3 672.54,1915.7 676.14,1915.7 676.14,1912.1 679.74,1912.1 679.74,1908.51 683.34,1908.51 683.34,1904.91 686.94,1904.91 686.94,1901.31 690.53,1901.31 690.53,1897.71 683.34,1897.71 683.34,1901.31 679.74,1901.31 679.74,1904.91 672.54,1904.91 672.54,1908.51 668.94,1908.51 668.94,1912.1 661.74,1912.1 661.74,1915.7 658.14,1915.7 658.14,1919.3 654.55,1919.3 654.55,1922.9 650.95,1922.9 650.95,1926.5 643.75,1926.5 643.75,1930.1 640.15,1930.1 640.15,1933.7 632.95,1933.7 632.95,1937.3 625.75,1937.3 625.75,1940.9 618.56,1940.9 618.56,1944.49 611.36,1944.49 611.36,1948.09 600.56,1948.09 600.56,1951.7 589.76,1951.7 589.76,1955.29 578.97,1955.29 578.97,1958.89 542.98,1958.89 542.98,1955.29 528.58,1955.29 528.58,1951.7 514.19,1951.7 514.19,1948.09 503.39,1948.09 503.39,1944.49 496.19,1944.49 496.19,1940.9 488.99,1940.9 488.99,1937.3 481.79,1937.3 481.79,1933.7 474.59,1933.7 474.59,1930.1 467.4,1930.1 467.4,1926.5 460.2,1926.5 460.2,1922.9 453,1922.9 453,1919.3 449.4,1919.3 449.4,1915.7 442.2,1915.7 442.2,1912.1 435,1912.1 435,1908.51 431.4,1908.51 431.4,1904.91 427.81,1904.91 427.81,1901.31 420.61,1901.31 420.61,1897.71 417.01,1897.71 417.01,1894.11 409.81,1894.11 409.81,1890.51 406.21,1890.51 406.21,1886.91 399.01,1886.91 399.01,1883.31 395.42,1883.31 395.42,1879.71 388.22,1879.71 388.22,1876.12 384.62,1876.12 384.62,1872.52 381.02,1872.52 381.02,1868.92 359.42,1868.92 359.42,1872.52 352.23,1872.52 352.23,1876.12 345.03,1876.12 345.03,1879.71 341.43,1879.71 341.43,1890.51 345.03,1890.51 345.03,1894.11 348.63,1894.11 348.63,1901.31 352.23,1901.31 352.23,1904.91 355.82,1904.91 355.82,1908.51 359.42,1908.51 359.42,1912.1 363.02,1912.1 363.02,1915.7 366.62,1915.7 366.62,1922.9 359.42,1922.9 359.42,1919.3 355.82,1919.3 355.82,1915.7 352.23,1915.7 352.23,1912.1 348.63,1912.1 348.63,1908.51 341.43,1908.51 341.43,1904.91 337.83,1904.91 337.83,1901.31 334.23,1901.31 334.23,1894.11 330.63,1894.11 330.63,1890.51 323.43,1890.51 323.43,1894.11 316.24,1894.11 316.24,1897.71 312.64,1897.71 312.64,1901.31 305.44,1901.31 305.44,1904.91 298.24,1904.91 298.24,1908.51 294.64,1908.51 294.64,1912.1 287.45,1912.1 287.45,1915.7 280.24,1915.7 280.24,1919.3 276.65,1919.3 276.65,1922.9 269.45,1922.9 269.45,1926.5 262.25,1926.5 262.25,1930.1 255.05,1930.1 255.05,1933.7 244.26,1933.7 244.26,1937.3 237.06,1937.3 237.06,1940.9 226.26,1940.9 226.26,1944.49 215.46,1944.49 215.46,1948.09 175.87,1948.09 175.87,1944.49 165.08,1944.49 165.08,1940.9 154.28,1940.9 154.28,1937.3 147.08,1937.3 147.08,1933.7 139.88,1933.7 139.88,1930.1 132.68,1930.1 132.68,1926.5 129.08,1926.5 129.08,1922.9 121.89,1922.9 121.89,1919.3 118.29,1919.3 118.29,1915.7 114.69,1915.7 114.69,1908.51 111.09,1908.51 111.09,1904.91 107.49,1904.91 107.49,1897.71 103.89,1897.71 103.89,1894.11 100.29,1894.11 100.29,1886.91 96.69,1886.91 96.69,1879.71 93.1,1879.71 93.1,1865.32 89.5,1865.32 89.5,1850.92 85.9,1850.92 85.9,1840.12 82.3,1840.12 82.3,1825.73 78.7,1825.73 78.7,1800.54 85.9,1800.54 85.9,1807.73 89.5,1807.73 89.5,1818.53 93.1,1818.53 93.1,1836.53 96.69,1836.53 96.69,1854.52 100.29,1854.52 100.29,1865.32 103.89,1865.32 103.89,1872.52 107.49,1872.52 107.49,1879.71 111.09,1879.71 111.09,1886.91 114.69,1886.91 114.69,1894.11 118.29,1894.11 118.29,1897.71 121.89,1897.71 121.89,1901.31 125.49,1901.31 125.49,1904.91 129.08,1904.91 129.08,1908.51 132.68,1908.51 132.68,1912.1 136.29,1912.1 136.29,1915.7 143.48,1915.7 143.48,1919.3 147.08,1919.3 147.08,1922.9 157.88,1922.9 157.88,1926.5 165.08,1926.5 165.08,1930.1 175.87,1930.1 175.87,1933.7 211.86,1933.7 211.86,1930.1 222.66,1930.1 222.66,1926.5 229.86,1926.5 229.86,1922.9 237.06,1922.9 237.06,1919.3 247.85,1919.3 247.85,1915.7 255.05,1915.7 255.05,1912.1 262.25,1912.1 262.25,1908.51 269.45,1908.51 269.45,1904.91 273.05,1904.91 273.05,1901.31 280.24,1901.31 280.24,1897.71 287.45,1897.71 287.45,1894.11 294.64,1894.11 294.64,1890.51 298.24,1890.51 298.24,1886.91 305.44,1886.91 305.44,1883.31 312.64,1883.31 312.64,1879.71 316.24,1879.71 316.24,1876.12 323.43,1876.12 323.43,1872.52 327.03,1872.52 327.03,1868.92 334.23,1868.92 334.23,1865.32 341.43,1865.32 341.43,1861.72 345.03,1861.72 345.03,1858.12 352.23,1858.12 352.23,1854.52 359.42,1854.52 359.42,1850.92 363.02,1850.92 363.02,1847.32 359.42,1847.32 359.42,1840.12 355.82,1840.12 355.82,1832.93 352.23,1832.93 352.23,1822.13 348.63,1822.13 348.63,1814.93 345.03,1814.93 345.03,1753.75 348.63,1753.75 348.63,1732.15 355.82,1732.15 355.82,1800.54 359.42,1800.54 359.42,1814.93 363.02,1814.93 363.02,1822.13 366.62,1822.13 366.62,1832.93 370.22,1832.93 370.22,1836.53 373.82,1836.53 373.82,1843.72 377.42,1843.72 377.42,1847.32 381.02,1847.32 381.02,1850.92 384.62,1850.92 384.62,1854.52 388.22,1854.52 388.22,1858.12 395.42,1858.12 395.42,1861.72 399.01,1861.72 399.01,1865.32 402.61,1865.32 402.61,1868.92 406.21,1868.92 406.21,1872.52 413.41,1872.52 413.41,1876.12 417.01,1876.12 417.01,1879.71 420.61,1879.71 420.61,1883.31 427.81,1883.31 427.81,1886.91 431.4,1886.91 431.4,1890.51 438.6,1890.51 438.6,1894.11 442.2,1894.11 442.2,1897.71 449.4,1897.71 449.4,1901.31 456.6,1901.31 456.6,1904.91 460.2,1904.91 460.2,1908.51 467.4,1908.51 467.4,1912.1 474.59,1912.1 474.59,1915.7 481.79,1915.7 481.79,1919.3 488.99,1919.3 488.99,1922.9 496.19,1922.9 496.19,1926.5 503.39,1926.5 503.39,1930.1 514.19,1930.1 514.19,1933.7 521.38,1933.7 521.38,1937.3 528.58,1937.3 528.58,1940.9 542.98,1940.9 542.98,1944.49 582.56,1944.49 582.56,1940.9 593.36,1940.9 593.36,1937.3 600.56,1937.3 600.56,1933.7 607.76,1933.7 607.76,1930.1 614.96,1930.1 614.96,1926.5 622.16,1926.5 622.16,1922.9 629.35,1922.9 629.35,1919.3 632.95,1919.3 632.95,1915.7 640.15,1915.7 640.15,1912.1 643.75,1912.1 643.75,1908.51 650.95,1908.51 650.95,1904.91 654.55,1904.91 654.55,1901.31 658.14,1901.31 658.14,1897.71 661.74,1897.71 661.74,1894.11 668.94,1894.11 668.94,1890.51 672.54,1890.51 672.54,1886.91 679.74,1886.91 679.74,1883.31 694.14,1883.31 694.14,1886.91 701.33,1886.91 701.33,1883.31 704.93,1883.31 704.93,1879.71 708.53,1879.71 708.53,1872.52 712.13,1872.52 712.13,1865.32 715.73,1865.32 715.73,1861.72 719.33,1861.72 719.33,1854.52 722.93,1854.52 722.93,1847.32 726.53,1847.32 726.53,1836.53 730.13,1836.53 730.13,1829.33 733.72,1829.33 733.72,1811.33 737.32,1811.33 737.32,1796.93 740.93,1796.93 740.93,1753.75 737.32,1753.75 737.32,1724.96 733.72,1724.96 733.72,1706.96 730.13,1706.96 730.13,1692.56 726.53,1692.56 726.53,1674.57 722.93,1674.57 722.93,1663.77 719.33,1663.77 719.33,1649.38 715.73,1649.38 715.73,1631.38 712.13,1631.38 712.13,1624.18 708.53,1624.18 708.53,1609.79 704.93,1609.79 704.93,1595.39 701.33,1595.39 701.33,1584.59 697.74,1584.59 697.74,1573.8 694.14,1573.8 694.14,1563 690.53,1563 690.53,1552.2 686.94,1552.2 686.94,1541.4 683.34,1541.4 683.34,1534.21 679.74,1534.21 679.74,1523.41 676.14,1523.41 676.14,1512.61 672.54,1512.61 672.54,1498.22 668.94,1498.22 668.94,1487.42 665.34,1487.42 665.34,1483.82 658.14,1483.82 658.14,1480.22 654.55,1480.22 654.55,1476.62 647.35,1476.62 647.35,1473.02 640.15,1473.02 640.15,1469.42 632.95,1469.42 632.95,1465.82 625.75,1465.82 625.75,1462.22 618.56,1462.22 618.56,1458.63 607.76,1458.63 607.76,1455.03 600.56,1455.03 600.56,1451.43 593.36,1451.43 593.36,1447.83 586.16,1447.83 586.16,1444.23 571.77,1444.23 571.77,1440.63 560.97,1440.63 560.97,1437.03 550.17,1437.03 550.17,1433.43 535.78,1433.43 535.78,1429.83 524.98,1429.83 524.98,1426.24 510.58,1426.24 510.58,1422.64 499.79,1422.64 499.79,1419.04 478.19,1419.04 478.19,1415.44 460.2,1415.44 460.2,1411.84 435,1411.84 435,1408.24 409.81,1408.24 409.81,1404.64 294.64,1404.64 "/>
  <path id="outline" class="fil2" d="M348.63 1753.75l-3.6 0 0 61.18 3.6 0 0 7.2 3.6 0 0 10.8 3.59 0 0 7.19 3.6 0 0 7.2 3.6 0 0 3.6 -3.6 0 0 3.6 -7.19 0 0 3.6 -7.2 0 0 3.6 -3.6 0 0 3.6 -7.2 0 0 3.6 -7.2 0 0 3.6 -3.6 0 0 3.6 -7.19 0 0 3.59 -3.6 0 0 3.6 -7.2 0 0 3.6 -7.2 0 0 3.6 -3.6 0 0 3.6 -7.19 0 0 3.6 -7.21 0 0 3.6 -7.19 0 0 3.6 -3.6 0 0 3.6 -7.2 0 0 3.59 -7.2 0 0 3.6 -7.2 0 0 3.6 -10.79 0 0 3.6 -7.2 0 0 3.6 -7.2 0 0 3.6 -10.8 0 0 3.6 -35.99 0 0 -3.6 -10.79 0 0 -3.6 -7.2 0 0 -3.6 -10.8 0 0 -3.6 -3.6 0 0 -3.6 -7.19 0 0 -3.6 -3.61 0 0 -3.59 -3.6 0 0 -3.6 -3.59 0 0 -3.6 -3.6 0 0 -3.6 -3.6 0 0 -3.6 -3.6 0 0 -7.2 -3.6 0 0 -7.2 -3.6 0 0 -7.19 -3.6 0 0 -7.2 -3.6 0 0 -10.8 -3.6 0 0 -17.99 -3.59 0 0 -18 -3.6 0 0 -10.8 -3.6 0 0 -7.19 -7.2 0 0 25.19 3.6 0 0 14.39 3.6 0 0 10.8 3.6 0 0 14.4 3.6 0 0 14.39 3.59 0 0 7.2 3.6 0 0 7.2 3.6 0 0 3.6 3.6 0 0 7.2 3.6 0 0 3.6 3.6 0 0 7.19 3.6 0 0 3.6 3.6 0 0 3.6 7.19 0 0 3.6 3.6 0 0 3.6 7.2 0 0 3.6 7.2 0 0 3.6 7.2 0 0 3.6 10.8 0 0 3.59 10.79 0 0 3.6 39.59 0 0 -3.6 10.8 0 0 -3.59 10.8 0 0 -3.6 7.2 0 0 -3.6 10.79 0 0 -3.6 7.2 0 0 -3.6 7.2 0 0 -3.6 7.2 0 0 -3.6 3.59 0 0 -3.6 7.21 0 0 -3.6 7.19 0 0 -3.59 3.6 0 0 -3.6 7.2 0 0 -3.6 7.2 0 0 -3.6 3.6 0 0 -3.6 7.19 0 0 -3.6 7.2 0 0 3.6 3.6 0 0 7.2 3.6 0 0 3.6 3.6 0 0 3.6 7.2 0 0 3.59 3.6 0 0 3.6 3.59 0 0 3.6 3.6 0 0 3.6 7.2 0 0 -7.2 -3.6 0 0 -3.6 -3.6 0 0 -3.59 -3.6 0 0 -3.6 -3.59 0 0 -3.6 -3.6 0 0 -7.2 -3.6 0 0 -3.6 -3.6 0 0 -10.8 3.6 0 0 -3.59 7.2 0 0 -3.6 7.19 0 0 -3.6 21.6 0 0 3.6 3.6 0 0 3.6 3.6 0 0 3.59 7.2 0 0 3.6 3.59 0 0 3.6 7.2 0 0 3.6 3.6 0 0 3.6 7.2 0 0 3.6 3.6 0 0 3.6 7.2 0 0 3.6 3.59 0 0 3.6 3.6 0 0 3.59 7.2 0 0 3.6 7.2 0 0 3.6 3.6 0 0 3.6 7.2 0 0 3.6 7.2 0 0 3.6 7.19 0 0 3.6 7.2 0 0 3.6 7.2 0 0 3.6 7.2 0 0 3.59 7.2 0 0 3.6 10.8 0 0 3.61 14.39 0 0 3.59 14.4 0 0 3.6 35.99 0 0 -3.6 10.79 0 0 -3.59 10.8 0 0 -3.61 10.8 0 0 -3.6 7.2 0 0 -3.59 7.19 0 0 -3.6 7.2 0 0 -3.6 7.2 0 0 -3.6 3.6 0 0 -3.6 7.2 0 0 -3.6 3.6 0 0 -3.6 3.59 0 0 -3.6 3.6 0 0 -3.6 7.2 0 0 -3.59 3.6 0 0 -3.6 7.2 0 0 -3.6 3.6 0 0 -3.6 7.19 0 0 3.6 -3.59 0 0 3.6 -3.6 0 0 3.6 -3.6 0 0 3.59 -3.6 0 0 3.6 -3.6 0 0 3.6 -3.6 0 0 3.6 -3.6 0 0 3.6 -3.6 0 0 3.6 -3.6 0 0 3.6 -3.59 0 0 3.6 -3.6 0 0 3.6 -3.6 0 0 3.59 -3.6 0 0 3.6 -3.6 0 0 3.61 -3.6 0 0 3.59 -3.6 0 0 3.6 -7.2 0 0 3.6 -3.59 0 0 3.6 -3.6 0 0 3.6 -7.2 0 0 3.6 -3.6 0 0 3.6 -3.6 0 0 3.6 -7.2 0 0 3.6 -7.2 0 0 3.59 -7.2 0 0 3.6 -7.19 0 0 3.6 -50.39 0 0 -3.6 -10.79 0 0 -3.6 -10.8 0 0 -3.59 -7.2 0 0 -3.6 -7.2 0 0 -3.6 -7.2 0 0 -3.6 -7.2 0 0 -3.6 -7.19 0 0 -3.6 -7.2 0 0 -3.6 -7.2 0 0 -3.6 -7.2 0 0 -3.6 -7.2 0 0 -3.59 -7.2 0 0 -3.61 -7.19 0 0 -3.6 -10.8 0 0 -3.59 -7.2 0 0 -3.6 -39.59 0 0 3.6 -14.39 0 0 3.59 -10.8 0 0 3.6 -7.2 0 0 3.61 -7.2 0 0 3.59 -10.79 0 0 3.6 -7.2 0 0 3.6 -7.2 0 0 3.6 -3.6 0 0 3.6 -7.2 0 0 3.6 -10.8 0 0 3.6 -3.59 0 0 3.6 -7.2 0 0 3.6 -7.2 0 0 3.59 -7.2 0 0 3.6 -14.39 0 0 3.6 -10.8 0 0 3.6 -32.39 0 0 -3.6 -14.4 0 0 -3.6 -10.8 0 0 -3.6 -3.59 0 0 -3.59 -7.2 0 0 -3.6 -7.2 0 0 -3.6 -3.6 0 0 -3.6 -7.2 0 0 -3.6 -3.6 0 0 -3.6 -3.59 0 0 -3.6 -3.61 0 0 -3.6 -7.19 0 0 -3.6 -3.6 0 0 -3.59 -3.6 0 0 -3.61 -7.2 0 0 -3.6 -3.6 0 0 -3.59 -3.6 0 0 -3.6 -3.6 0 0 -3.6 -7.19 0 0 -3.6 -3.6 0 0 -3.6 -3.6 0 0 -3.6 -3.6 0 0 -3.6 -3.6 0 0 -3.6 -3.6 0 0 -3.6 -3.6 0 0 -3.59 -3.6 0 0 -3.6 -3.6 0 0 -3.6 -3.59 0 0 -3.6 -3.61 0 0 -3.6 -3.6 0 0 -7.2 -3.59 0 0 -7.2 -3.6 0 0 -7.19 -3.6 0 0 -3.6 -3.6 0 0 -10.8 -3.6 0 0 -7.2 -3.6 0 0 -21.59 -3.6 0 0 -14.4 -3.6 0 0 -75.58 3.6 0 0 -25.19 3.6 0 0 -21.6 3.6 0 0 -21.59 3.6 0 0 -21.59 3.6 0 0 -14.4 3.6 0 0 -18 3.6 0 0 -10.79 3.59 0 0 -14.4 3.6 0 0 -7.2 3.61 0 0 -17.99 3.59 0 0 -7.2 3.6 0 0 -10.8 3.6 0 0 -10.8 3.6 0 0 -10.79 3.6 0 0 -10.8 3.6 0 0 -10.8 3.6 0 0 -7.19 3.6 0 0 -10.8 3.6 0 0 -7.2 3.59 0 0 -7.2 3.6 0 0 -7.2 3.6 0 0 -3.6 3.6 0 0 -3.59 7.2 0 0 -3.6 7.2 0 0 -3.6 7.19 0 0 -3.6 7.21 0 0 -3.6 7.19 0 0 -3.6 7.2 0 0 -3.6 10.8 0 0 -3.6 10.79 0 0 -3.6 10.8 0 0 -3.59 10.8 0 0 -3.6 14.39 0 0 -3.6 10.8 0 0 -3.6 14.4 0 0 -3.6 35.99 0 0 -3.6 25.19 0 0 -3.6 115.17 0 0 3.6 25.19 0 0 3.6 25.2 0 0 3.6 17.99 0 0 3.6 21.6 0 0 3.6 10.79 0 0 3.6 14.4 0 0 3.59 10.8 0 0 3.6 14.39 0 0 3.6 10.8 0 0 3.6 10.8 0 0 3.6 14.39 0 0 3.6 7.2 0 0 3.6 7.2 0 0 3.6 7.2 0 0 3.6 10.8 0 0 3.59 7.19 0 0 3.6 7.2 0 0 3.6 7.2 0 0 3.6 7.2 0 0 3.6 7.2 0 0 3.6 3.59 0 0 3.6 7.2 0 0 3.6 3.6 0 0 10.8 3.6 0 0 14.39 3.6 0 0 10.8 3.6 0 0 10.8 3.6 0 0 7.19 3.6 0 0 10.8 3.59 0 0 10.8 3.61 0 0 10.8 3.6 0 0 10.79 3.59 0 0 10.8 3.6 0 0 14.4 3.6 0 0 14.39 3.6 0 0 7.2 3.6 0 0 18 3.6 0 0 14.39 3.6 0 0 10.8 3.6 0 0 17.99 3.6 0 0 14.4 3.59 0 0 18 3.6 0 0 28.79 3.61 0 0 43.18 -3.61 0 0 14.4 -3.6 0 0 18 -3.59 0 0 7.2 -3.6 0 0 10.79 -3.6 0 0 7.2 -3.6 0 0 7.2 -3.6 0 0 3.6 -3.6 0 0 7.2 -3.6 0 0 7.19 -3.6 0 0 3.6 -3.6 0 0 3.6 -7.19 0 0 -3.6 -14.4 0 0 3.6 -7.2 0 0 3.6 -3.6 0 0 3.6 -7.2 0 0 3.6 -3.6 0 0 3.6 -3.59 0 0 3.6 -3.6 0 0 3.6 -7.2 0 0 3.59 -3.6 0 0 3.6 -7.2 0 0 3.6 -3.6 0 0 3.6 -7.19 0 0 3.6 -7.2 0 0 3.6 -7.2 0 0 3.6 -7.2 0 0 3.6 -7.2 0 0 3.6 -10.8 0 0 3.59 -39.58 0 0 -3.59 -14.4 0 0 -3.6 -7.2 0 0 -3.6 -7.19 0 0 -3.6 -10.8 0 0 -3.6 -7.2 0 0 -3.6 -7.2 0 0 -3.6 -7.2 0 0 -3.6 -7.2 0 0 -3.6 -7.19 0 0 -3.59 -7.2 0 0 -3.6 -3.6 0 0 -3.6 -7.2 0 0 -3.6 -7.2 0 0 -3.6 -3.6 0 0 -3.6 -7.2 0 0 -3.6 -3.59 0 0 -3.6 -7.2 0 0 -3.6 -3.6 0 0 -3.59 -3.6 0 0 -3.6 -7.2 0 0 -3.6 -3.6 0 0 -3.6 -3.6 0 0 -3.6 -3.59 0 0 -3.6 -7.2 0 0 -3.6 -3.6 0 0 -3.6 -3.6 0 0 -3.6 -3.6 0 0 -3.6 -3.6 0 0 -7.19 -3.6 0 0 -3.6 -3.6 0 0 -10.8 -3.6 0 0 -7.2 -3.6 0 0 -14.39 -3.6 0 0 -68.39 -7.19 0 0 21.6zm-61.18 -1281.26l3.59 0 0 -32.39 3.6 0 0 -25.19 3.6 0 0 -18 3.6 0 0 -10.8 3.6 0 0 -10.8 3.6 0 0 -3.59 3.6 0 0 -7.2 17.99 0 0 3.6 3.6 0 0 3.6 3.6 0 0 3.59 3.6 0 0 3.6 3.6 0 0 3.6 3.6 0 0 7.2 3.6 0 0 7.2 3.59 0 0 7.2 3.6 0 0 7.2 3.6 0 0 7.19 3.6 0 0 10.8 3.6 0 0 10.8 3.6 0 0 7.2 3.6 0 0 10.79 3.6 0 0 14.4 3.6 0 0 10.79 3.6 0 0 14.4 3.6 0 0 14.4 3.6 0 0 14.39 3.59 0 0 14.4 3.6 0 0 10.8 3.6 0 0 21.59 3.6 0 0 14.4 3.6 0 0 32.39 3.6 0 0 14.39 3.6 0 0 36 3.6 0 0 32.39 3.6 0 0 39.59 3.59 0 0 28.79 3.6 0 0 28.79 3.6 0 0 14.4 3.6 0 0 28.79 3.6 0 0 17.99 3.6 0 0 14.4 3.6 0 0 14.4 3.6 0 0 17.99 3.6 0 0 7.2 3.59 0 0 10.8 3.61 0 0 3.6 3.6 0 0 7.19 -3.6 0 0 10.8 -3.61 0 0 14.4 -3.59 0 0 14.39 -3.6 0 0 10.8 -3.6 0 0 10.8 -3.6 0 0 10.79 -3.6 0 0 10.8 -3.6 0 0 10.8 -3.6 0 0 10.8 -3.6 0 0 7.2 -3.6 0 0 14.39 -3.59 0 0 10.8 -3.6 0 0 7.2 -3.6 0 0 10.79 -3.6 0 0 7.2 -3.6 0 0 10.8 -3.6 0 0 7.2 -3.6 0 0 7.2 -3.6 0 0 3.59 -3.6 0 0 7.2 -3.59 0 0 3.6 -3.6 0 0 3.6 -3.6 0 0 3.6 -18 0 0 -3.6 -3.6 0 0 -3.6 -3.6 0 0 -3.6 -3.6 0 0 -7.2 -3.6 0 0 -3.59 -3.59 0 0 -7.2 -3.6 0 0 -7.2 -3.6 0 0 -3.6 -3.6 0 0 -7.2 -3.6 0 0 -7.2 -3.6 0 0 -10.79 -3.6 0 0 -3.6 -3.6 0 0 -7.2 -3.6 0 0 -7.2 -3.59 0 0 -10.8 -3.6 0 0 -7.19 -3.6 0 0 -7.2 -3.6 0 0 -7.2 -3.6 0 0 -7.2 -3.6 0 0 -10.79 -3.6 0 0 -7.2 -3.6 0 0 -7.2 -3.6 0 0 -7.2 -3.59 0 0 -10.8 -3.61 0 0 -7.19 -3.6 0 0 -7.2 -3.59 0 0 -10.8 -3.6 0 0 -10.79 -3.6 0 0 -14.4 3.6 0 0 -21.6 3.6 0 0 -21.59 3.59 0 0 -35.99 3.6 0 0 -35.99 3.61 0 0 -32.39 3.59 0 0 -190.75 -3.59 0 0 -118.77zm248.33 -57.58l3.6 0 0 -14.4 3.6 0 0 -10.8 3.6 0 0 -7.2 3.59 0 0 -7.2 3.6 0 0 -3.59 7.2 0 0 3.59 7.2 0 0 3.6 3.6 0 0 3.6 7.2 0 0 3.6 3.59 0 0 7.2 3.6 0 0 3.6 3.6 0 0 7.2 3.6 0 0 3.59 3.6 0 0 7.21 3.6 0 0 7.19 3.6 0 0 7.2 3.6 0 0 7.2 3.6 0 0 7.2 3.6 0 0 7.19 3.6 0 0 10.8 3.6 0 0 10.8 3.59 0 0 7.2 3.6 0 0 14.39 3.6 0 0 7.2 3.6 0 0 10.8 3.6 0 0 10.8 3.6 0 0 10.79 3.6 0 0 10.8 3.6 0 0 18 3.6 0 0 10.79 3.59 0 0 18 3.6 0 0 10.79 3.6 0 0 18 3.6 0 0 21.6 3.6 0 0 21.59 3.6 0 0 21.59 3.6 0 0 18 3.6 0 0 35.99 3.6 0 0 35.99 3.59 0 0 50.39 3.61 0 0 104.37 -3.61 0 0 61.18 -3.59 0 0 32.39 -3.6 0 0 25.2 -3.6 0 0 35.98 -3.6 0 0 28.8 -3.6 0 0 28.79 -3.6 0 0 35.99 -3.6 0 0 32.39 -3.6 0 0 39.59 -3.6 0 0 190.75 3.6 0 0 14.4 3.6 0 0 14.39 -7.2 0 0 -3.6 -7.19 0 0 -3.6 -7.2 0 0 -3.59 -7.2 0 0 -3.6 -7.2 0 0 -3.6 -7.19 0 0 -3.6 -7.2 0 0 -3.6 -7.2 0 0 -3.6 -7.2 0 0 -3.6 -10.8 0 0 -3.6 -7.2 0 0 -3.6 -10.79 0 0 -3.59 -10.8 0 0 -3.6 -7.2 0 0 -3.6 -10.79 0 0 -3.6 -14.4 0 0 -3.6 -14.39 0 0 -3.6 -14.4 0 0 -3.6 -14.4 0 0 -3.6 -21.6 0 0 -3.6 -21.59 0 0 -3.59 -17.99 0 0 -3.61 -140.37 0 0 3.61 -39.58 0 0 3.59 -14.4 0 0 3.6 -18 0 0 3.6 -10.79 0 0 3.6 -18 0 0 3.6 -7.2 0 0 3.6 -10.79 0 0 3.6 -10.8 0 0 3.6 -10.8 0 0 3.6 -7.19 0 0 3.59 -7.21 0 0 3.6 -7.19 0 0 3.6 -7.2 0 0 3.6 -7.2 0 0 3.6 -3.6 0 0 -25.19 3.6 0 0 -50.39 3.6 0 0 -35.99 3.6 0 0 -82.78 -3.6 0 0 -46.79 -3.6 0 0 -53.98 -3.6 0 0 -18 -3.6 0 0 -35.99 -3.6 0 0 -21.59 -3.59 0 0 -18 -3.6 0 0 -32.39 -3.6 0 0 -14.4 -3.6 0 0 -28.79 -3.6 0 0 -21.59 -3.6 0 0 -25.19 -3.6 0 0 -32.39 -3.6 0 0 -36 -3.6 0 0 -21.59 -3.59 0 0 -28.79 -3.61 0 0 -100.77 3.61 0 0 -50.39 3.59 0 0 -32.39 3.6 0 0 -21.6 3.6 0 0 -28.79 3.6 0 0 -17.99 3.6 0 0 -14.4 3.6 0 0 -14.4 3.6 0 0 -21.59 3.6 0 0 -14.4 3.6 0 0 -10.79 3.59 0 0 -10.8 3.6 0 0 -10.8 3.6 0 0 -10.8 3.6 0 0 -10.79 3.6 0 0 -7.2 3.6 0 0 -7.2 3.6 0 0 -7.2 3.6 0 0 -3.6 3.6 0 0 -3.59 7.19 0 0 -3.6 10.8 0 0 3.6 7.2 0 0 7.19 3.6 0 0 7.2 3.6 0 0 10.8 3.6 0 0 14.39 3.6 0 0 32.4 3.6 0 0 10.79 3.59 0 0 136.76 3.6 0 0 39.6 3.6 0 0 28.79 3.6 0 0 21.59 3.6 0 0 21.6 3.6 0 0 17.99 3.6 0 0 14.4 3.6 0 0 14.4 3.6 0 0 17.99 3.59 0 0 10.8 3.6 0 0 10.79 3.6 0 0 14.4 3.6 0 0 10.8 3.6 0 0 14.39 3.6 0 0 7.2 3.6 0 0 10.8 3.6 0 0 10.8 3.6 0 0 10.79 3.6 0 0 7.2 3.6 0 0 10.8 3.6 0 0 7.19 3.59 0 0 10.8 3.6 0 0 10.8 3.6 0 0 7.2 3.6 0 0 10.79 3.6 0 0 7.2 3.6 0 0 10.8 3.6 0 0 7.2 3.6 0 0 7.19 3.6 0 0 7.2 3.59 0 0 7.2 3.6 0 0 7.2 3.61 0 0 10.8 3.59 0 0 7.2 3.6 0 0 7.19 3.6 0 0 7.2 3.6 0 0 7.2 3.6 0 0 7.2 3.6 0 0 7.19 3.6 0 0 7.2 3.6 0 0 7.2 3.6 0 0 10.8 3.59 0 0 3.6 3.6 0 0 7.2 3.6 0 0 7.19 3.6 0 0 3.6 3.6 0 0 7.2 3.6 0 0 7.2 3.6 0 0 3.6 3.6 0 0 3.6 3.6 0 0 3.6 3.59 0 0 3.59 7.2 0 0 3.6 28.8 0 0 -3.6 7.19 0 0 -3.59 7.2 0 0 -3.6 3.6 0 0 -3.6 3.6 0 0 -3.6 3.6 0 0 -7.2 3.6 0 0 -3.6 3.6 0 0 -7.2 3.6 0 0 -7.19 3.59 0 0 -7.2 3.6 0 0 -7.2 3.6 0 0 -10.8 3.6 0 0 -7.2 3.6 0 0 -10.79 3.6 0 0 -7.2 3.6 0 0 -10.8 3.6 0 0 -10.79 3.6 0 0 -10.8 3.59 0 0 -10.8 3.61 0 0 -10.8 3.6 0 0 -14.39 3.59 0 0 -10.8 3.6 0 0 -14.4 3.6 0 0 -10.79 3.6 0 0 -10.8 3.6 0 0 -10.79 3.6 0 0 -14.4 3.6 0 0 -14.4 3.6 0 0 -14.39 3.6 0 0 -10.8 3.59 0 0 -10.8 3.6 0 0 -18 3.61 0 0 -14.39 3.59 0 0 -21.59 3.6 0 0 -18 3.6 0 0 -14.39 3.6 0 0 -28.8 3.6 0 0 -17.99 3.6 0 0 -32.39 3.6 0 0 -183.56 -3.6 0 0 -115.16zm-226.74 -68.39l-7.2 0 0 3.6 -3.6 0 0 3.6 -3.6 0 0 3.6 -3.6 0 0 7.2 -3.59 0 0 7.2 -3.61 0 0 10.79 -3.6 0 0 10.8 -3.59 0 0 14.39 -3.6 0 0 28.8 -3.6 0 0 17.99 -3.6 0 0 143.97 3.6 0 0 143.96 -3.6 0 0 68.38 -3.6 0 0 43.19 -3.6 0 0 28.79 -3.6 0 0 14.4 -3.6 0 0 -10.8 -3.6 0 0 -10.8 -3.59 0 0 -10.8 -3.6 0 0 -7.19 -3.6 0 0 -14.4 -3.6 0 0 -14.4 -3.6 0 0 -14.39 -3.6 0 0 -7.2 -3.6 0 0 -14.39 -3.6 0 0 -21.6 -3.6 0 0 -14.4 -3.6 0 0 -21.59 -3.6 0 0 -14.4 -3.6 0 0 -21.59 -3.59 0 0 -28.79 -3.6 0 0 -21.6 -3.6 0 0 -129.56 -3.6 0 0 -46.79 -3.6 0 0 -21.6 -3.6 0 0 -17.99 -3.6 0 0 -7.2 -3.6 0 0 -7.2 -3.6 0 0 -7.19 -3.59 0 0 -7.2 -3.6 0 0 -3.6 -3.6 0 0 -3.6 -3.6 0 0 -3.6 -7.2 0 0 -3.6 -25.19 0 0 3.6 -7.2 0 0 3.6 -3.6 0 0 3.6 -3.6 0 0 3.6 -3.6 0 0 3.59 -3.6 0 0 3.61 -3.6 0 0 3.6 -3.6 0 0 7.19 -3.59 0 0 7.2 -3.6 0 0 7.2 -3.6 0 0 7.2 -3.6 0 0 10.79 -3.6 0 0 7.2 -3.6 0 0 18 -3.6 0 0 14.39 -3.6 0 0 14.4 -3.6 0 0 14.4 -3.59 0 0 21.59 -3.61 0 0 18 -3.6 0 0 10.79 -3.59 0 0 28.79 -3.6 0 0 28.8 -3.6 0 0 25.19 -3.6 0 0 39.59 -3.6 0 0 115.17 3.6 0 0 32.39 3.6 0 0 50.39 3.6 0 0 21.59 3.6 0 0 18 3.59 0 0 25.19 3.6 0 0 28.79 3.61 0 0 25.2 3.59 0 0 17.99 3.6 0 0 28.79 3.6 0 0 18 3.6 0 0 32.39 3.6 0 0 21.59 3.6 0 0 32.39 3.6 0 0 46.79 3.6 0 0 161.96 -3.6 0 0 21.6 -3.6 0 0 35.98 -3.6 0 0 25.2 -3.6 0 0 10.79 -3.6 0 0 14.4 -3.6 0 0 10.8 -3.6 0 0 10.8 -3.59 0 0 7.19 -3.61 0 0 10.8 -3.6 0 0 10.8 -3.59 0 0 7.19 -3.6 0 0 14.4 -3.6 0 0 10.8 -3.6 0 0 10.8 -3.6 0 0 7.19 -3.6 0 0 18 -3.6 0 0 10.8 -3.6 0 0 17.99 -3.6 0 0 10.8 -3.59 0 0 17.99 -3.6 0 0 18 -3.6 0 0 21.59 -3.6 0 0 21.6 -3.6 0 0 35.99 -3.6 0 0 50.39 3.6 0 0 25.19 3.6 0 0 10.79 3.6 0 0 14.4 3.6 0 0 10.8 3.6 0 0 10.8 3.59 0 0 7.19 3.6 0 0 7.2 3.6 0 0 7.2 3.6 0 0 3.6 3.6 0 0 3.6 3.6 0 0 7.19 3.6 0 0 3.6 3.6 0 0 3.6 3.6 0 0 3.6 3.59 0 0 3.6 3.6 0 0 3.6 3.61 0 0 3.6 3.59 0 0 3.6 3.6 0 0 3.6 3.6 0 0 3.59 7.2 0 0 3.6 3.6 0 0 3.61 3.6 0 0 3.59 3.6 0 0 3.6 3.6 0 0 3.6 3.59 0 0 3.6 7.2 0 0 3.6 3.6 0 0 3.6 3.6 0 0 3.6 7.2 0 0 3.6 3.6 0 0 3.6 3.6 0 0 3.59 7.19 0 0 3.6 3.61 0 0 3.6 7.19 0 0 3.6 3.6 0 0 3.6 7.2 0 0 3.6 7.2 0 0 3.6 7.2 0 0 3.6 10.79 0 0 3.6 18 0 0 3.59 35.99 0 0 -3.59 21.59 0 0 -3.6 7.2 0 0 -3.6 7.2 0 0 -3.6 10.79 0 0 -3.6 7.21 0 0 -3.6 7.19 0 0 -3.6 7.2 0 0 -3.6 3.6 0 0 -3.6 7.2 0 0 -3.59 7.2 0 0 -3.6 7.19 0 0 -3.6 10.8 0 0 -3.6 7.2 0 0 -3.6 7.2 0 0 -3.6 10.79 0 0 -3.6 46.79 0 0 3.6 7.2 0 0 3.6 7.2 0 0 3.6 7.19 0 0 3.6 7.2 0 0 3.6 7.2 0 0 3.6 7.2 0 0 3.59 7.2 0 0 3.6 3.59 0 0 3.6 7.21 0 0 3.6 10.79 0 0 3.6 7.2 0 0 3.6 7.2 0 0 3.6 14.39 0 0 3.6 14.4 0 0 3.6 10.8 0 0 3.59 35.99 0 0 -3.59 10.79 0 0 -3.6 10.8 0 0 -3.6 7.2 0 0 -3.6 7.2 0 0 -3.6 3.6 0 0 -3.6 7.2 0 0 -3.6 7.19 0 0 -3.6 3.6 0 0 -3.6 3.6 0 0 -3.59 3.6 0 0 -3.6 7.2 0 0 -3.6 3.6 0 0 -3.6 3.6 0 0 -3.6 3.6 0 0 -3.6 3.59 0 0 -3.6 3.6 0 0 -3.6 3.6 0 0 -3.6 7.2 0 0 -3.59 3.6 0 0 -3.61 3.6 0 0 -3.6 3.6 0 0 -3.59 3.6 0 0 -3.6 3.59 0 0 -3.6 3.61 0 0 -3.6 3.6 0 0 -3.6 3.59 0 0 -3.6 3.6 0 0 -3.6 3.6 0 0 -7.2 3.6 0 0 -3.59 3.6 0 0 -3.6 3.6 0 0 -3.6 3.6 0 0 -3.6 3.6 0 0 -7.2 3.6 0 0 -3.6 3.59 0 0 -7.2 3.6 0 0 -7.19 3.61 0 0 -7.2 3.59 0 0 -10.8 3.6 0 0 -7.2 3.6 0 0 -10.79 3.6 0 0 -18 3.6 0 0 -21.6 3.6 0 0 -53.98 -3.6 0 0 -28.79 -3.6 0 0 -21.6 -3.6 0 0 -10.79 -3.6 0 0 -18 -3.6 0 0 -7.2 -3.59 0 0 -14.39 -3.61 0 0 -14.4 -3.6 0 0 -17.99 -3.59 0 0 -10.8 -3.6 0 0 -7.2 -3.6 0 0 -17.99 -3.6 0 0 -7.2 -3.6 0 0 -10.8 -3.6 0 0 -10.8 -3.6 0 0 -10.79 -3.6 0 0 -10.8 -3.6 0 0 -10.8 -3.59 0 0 -10.79 -3.6 0 0 -10.8 -3.61 0 0 -14.4 -3.59 0 0 -21.59 -3.6 0 0 -46.79 -3.6 0 0 -133.16 3.6 0 0 -50.39 3.6 0 0 -28.79 3.59 0 0 -43.19 3.61 0 0 -21.6 3.6 0 0 -28.79 3.59 0 0 -35.99 3.6 0 0 -35.99 3.6 0 0 -50.39 3.6 0 0 -61.18 3.6 0 0 -97.17 -3.6 0 0 -64.79 -3.6 0 0 -17.99 -3.6 0 0 -46.79 -3.6 0 0 -14.4 -3.59 0 0 -28.79 -3.6 0 0 -14.4 -3.61 0 0 -17.99 -3.59 0 0 -21.59 -3.6 0 0 -10.8 -3.6 0 0 -14.4 -3.6 0 0 -17.99 -3.6 0 0 -10.8 -3.6 0 0 -14.4 -3.6 0 0 -7.19 -3.6 0 0 -14.4 -3.6 0 0 -10.8 -3.59 0 0 -10.8 -3.6 0 0 -10.79 -3.6 0 0 -10.8 -3.6 0 0 -7.2 -3.6 0 0 -10.79 -3.6 0 0 -7.2 -3.6 0 0 -7.2 -3.6 0 0 -10.8 -3.6 0 0 -3.59 -3.59 0 0 -7.21 -3.6 0 0 -7.19 -3.6 0 0 -7.2 -3.6 0 0 -3.6 -3.6 0 0 -7.2 -3.6 0 0 -3.6 -3.6 0 0 -3.6 -3.6 0 0 -3.59 -3.6 0 0 -3.6 -3.6 0 0 -3.6 -3.6 0 0 -3.6 -3.6 0 0 -3.6 -3.59 0 0 -3.6 -10.8 0 0 -3.6 -18 0 0 3.6 -7.19 0 0 3.6 -7.2 0 0 7.2 -3.6 0 0 3.6 -3.6 0 0 7.19 -3.6 0 0 7.2 -3.6 0 0 10.8 -3.6 0 0 32.39 -3.59 0 0 100.77 3.59 0 0 165.56 -3.59 0 0 46.79 -3.61 0 0 25.19 -3.6 0 0 14.4 -3.59 0 0 17.99 -3.6 0 0 18 -3.6 0 0 17.99 -3.6 0 0 18 -3.6 0 0 18 -3.6 0 0 10.79 -3.6 0 0 14.4 -3.6 0 0 -3.6 -3.6 0 0 -14.4 -3.59 0 0 -17.99 -3.6 0 0 -21.6 -3.61 0 0 -28.79 -3.59 0 0 -28.79 -3.6 0 0 -28.79 -3.6 0 0 -43.19 -3.6 0 0 -18 -3.6 0 0 -32.39 -3.6 0 0 -28.79 -3.6 0 0 -14.4 -3.6 0 0 -21.59 -3.6 0 0 -25.19 -3.59 0 0 -18 -3.6 0 0 -14.4 -3.6 0 0 -14.39 -3.6 0 0 -10.8 -3.6 0 0 -17.99 -3.6 0 0 -14.4 -3.6 0 0 -7.2 -3.6 0 0 -18 -3.6 0 0 -7.19 -3.59 0 0 -10.8 -3.6 0 0 -10.8 -3.6 0 0 -7.19 -3.6 0 0 -10.8 -3.6 0 0 -7.2 -3.6 0 0 -7.2 -3.6 0 0 -7.2 -3.6 0 0 -3.6 -3.6 0 0 -7.19 -3.6 0 0 -3.6 -3.6 0 0 -7.2 -3.6 0 0 -3.6 -3.59 0 0 -3.6 -3.6 0 0 -3.6 -7.2 0 0 -3.6 -7.2 0 0 -3.6 -25.19 0 0 3.6z"/>
  <path class="fil3 str0" d="M533.89 1398.15l-2.55 -2.54 2.55 2.54zm-2.55 -2.54l-1.11 -2.15 1.11 2.15zm-1.11 -2.15zm-7.31 -9.37l7.31 9.37zm-7.31 -9.37c0.54,-2.97 4.65,-1.31 1.81,0.5l-0.55 -0.05c-1.45,-0.36 -1.99,3.54 -1.26,-0.45zm-3.02 -8.19l0.33 0.64c-0.02,-0.04 -0.51,-0.51 -0.33,-0.64zm-12.09 -16.2c1.87,-1.45 4.93,4.27 1.43,1.34 -0.03,-0.02 -4.36,0.94 -1.43,-1.34zm-71.47 -168.76zm-9.54 -13.67l9.54 13.67zm-9.54 -13.67c4.14,2.64 1.04,-0.48 3.67,3.17 2.05,2.84 1.78,1.63 2.22,5.81 -8.02,-5.12 -5.25,-7.28 -5.89,-8.98zm-4.77 -6.83zm0 0zm0 0zm-17.32 -28.69l17.32 28.69zm-17.32 -28.69c5.22,1.58 11.23,7.03 12.85,12.6 1.26,4.34 1.11,0.87 0.02,7.51 -4.87,-6.27 -8.75,-13.25 -12.87,-20.11zm70.93 -173.95c0.83,-4.49 2.33,0.34 0.86,0.23 -0.02,0 -1.75,4.67 -0.86,-0.23zm58.25 430.35c6.1,3.89 19.38,25.07 24.86,33.37 11.83,17.91 12.59,16.19 25.31,33.03 2.83,3.75 5.9,7.87 8.14,11.74 3.12,5.42 3.02,8.67 8,11.85 -0.41,-12.21 -24.89,-48.58 -32.16,-59.31l-11.76 -19.47c-2.2,-3.95 -2.61,-5.48 -5.29,-9.43l-34.47 -57.53c-3.66,-5.73 -4.75,-3.41 -5.01,-11.16 3.44,-0.04 3.55,-0.46 7.49,0.21l0.64 -3.51c-6.59,-4.21 -17.22,-25.03 -21.38,-33.06 -4.4,-8.51 -7.2,-8.11 -10.97,-17.07l-20.21 -33.98c-2.06,-3.17 -2.67,-5.07 -4.72,-8.38 -4.44,-7.17 -25.78,-37.47 -26.02,-44.51 4.93,2.9 5.86,5.94 9.21,8.21 12.25,8.33 -8.79,-25.08 -9.89,-27.24 -2.12,-4.12 -3.01,-6.79 -4.83,-11.31 -3.27,-8.08 -1.12,-18.22 -8.19,-23.93 -5.34,-4.3 -7.83,-0.98 -12.35,-0.75 -0.32,-9.37 -4.17,-8.48 -9.54,-13.67 7.21,-8.39 7.04,-3.34 6.64,-15.53 -0.31,-9.68 1.33,-16.45 7.18,-21.87 10.88,-10.09 29.5,-28.39 34.28,-45.38 2.35,-8.35 3.84,-19.56 5.16,-23.94 1.11,-3.69 6.77,-13.26 9.43,-19.09 3.06,-6.73 6.56,-14.22 8.06,-22.41 4.99,3.19 1.52,2.28 6.52,5.47 1.72,-4.35 6.47,-11.86 8.96,-15.94 3.15,-5.19 6.97,-10.55 10.36,-15.59 7.25,-10.8 18.17,-33.73 24.26,-40.99 6.25,-7.47 8.98,-19.5 13.23,-29.05 10.9,-24.56 25.11,-44.83 39.99,-65.19 7.16,-9.8 13.33,-21.45 20.72,-31.21 4.71,-6.22 7.19,-5.87 9.69,-14.89 1.29,-4.64 -0.8,-1.81 3.46,-7 2.33,-2.84 3.79,-3.96 6.27,-7.06 4.15,-5.18 6.79,-10.97 9.76,-16.77 3.51,-6.87 7.12,-8.64 10.54,-15.26l28.06 -50.25c4.32,-7.47 6.9,-8.76 10.36,-15.6l9.77 -16.74c2.19,-3.94 1.78,-4.55 3.89,-9.11 7.3,-15.82 21.94,-32.08 30.59,-47.75 2.16,-3.91 2.3,-6.14 4.46,-10.38 9.98,-19.66 29.18,-20.48 34.02,-22.3l4.22 -5.05c3.72,-12.2 1.87,-35.73 -4.9,-41.28 -13.83,-11.32 -27.21,-1.8 -36.59,-1.7 -8.83,-11.36 -4.52,-16.41 -18.44,-11.86l-17.11 4.95c-6.01,2.24 -1.62,-2.46 -6.7,6.06 -4.89,8.2 -6.95,6.52 -11.97,14.89 -4.22,7.02 -3.82,11.82 -8.98,18.04 -4.47,5.39 -8.39,8.2 -12.06,14.9 -11.28,20.6 -17.98,25.46 -22.31,32.87l-21.58 36.67c-5.43,12.92 -13.86,24.39 -21.15,35.11 -4,5.87 -6.73,13.27 -10.58,19.92 -3.84,6.62 -7.59,10.67 -9.22,17.44 -1.55,6.46 -6.92,11.86 -10.45,18.17 -20.8,37.07 -38.49,78.57 -63.16,110.66 -9.99,13 -15.15,17.73 -23.04,33.84 -10.71,21.83 -25.65,45.77 -34.26,69.14l-13.87 30.2c-1.85,4.51 -2.52,6.05 -4.68,9.94 -1.58,2.82 -4.7,7.52 -5.85,10.22 -3.16,7.39 -0.88,6.62 -3.39,12.26l-5.45 10.87c-0.2,0.39 -0.41,0.82 -0.6,1.22l-7.25 16.86c-4.86,13.57 -17.38,24.75 -17.27,40.23 -8.9,-5.69 -37.44,-74.86 -42.97,-88.54 -4.29,-10.61 -12.9,-42.07 -16.48,-48.91 -2.4,-4.59 -3.82,-5.23 -6.51,-10 -3.89,-6.93 -15.05,-27.53 -20.31,-30.89 2.82,-15.41 5.17,-30.83 -10.31,-29.42 -5.83,0.53 0.41,1.16 -4.32,0.65 -2.99,-0.32 -2.09,-0.6 -5.25,-2.46 5.15,-13.07 7.54,-13.63 -12,-23.11 -2.62,-1.27 -2.69,-1.84 -5.64,-3.72 -6.52,-4.15 -8.49,-2.14 -8.75,-9.87 8.73,2.4 13.71,0.32 21.02,0.24 0.98,-8.61 -4.41,-15.73 -8.25,-20.68 -9.34,-6.31 0.2,11.82 -25.39,-14.9l-6.44 -8.55c4.14,-0.05 7.96,-0.33 12.1,-0.37 0.69,-6.07 0.09,-6.72 -0.94,-11.31l20.94 -2.15c7.62,-1.69 15.14,-6.07 22.72,-6.15 -3.28,-9.19 -24.08,-8.61 -36.99,-12.04 -9.49,-2.53 -7.76,-0.08 -12.2,-0.52l-24.22 -5.7c-16.46,-6.47 -31.69,-37.16 -51.94,-48.48 -7.26,-4.06 -46.7,-14.21 -56.67,-16.35 -8.53,-1.84 -14.8,1.52 -19.18,8.22 -5.69,8.72 -1.88,16.08 0.67,25.85 4.03,15.45 13.07,19.96 24.24,39.88 3.77,6.72 7.86,13.39 11.89,19.36l47.89 81.72c10.55,20.57 20.94,44.2 32.89,63.26l11.33 19.8c2.62,5.01 3.6,5.63 6.39,10.09 10.32,16.45 13.8,26.97 30.39,51.66 5.13,7.64 4.61,12.13 10.36,20.55 6.25,9.16 8.92,17.74 15.44,25.64 7.2,8.72 8.25,16.78 14.49,26.37 11.89,18.27 42.96,76.71 49.03,95.88 -7.53,11.7 -27.42,57.85 -32.95,64.54 -8.12,9.81 -4.7,10.55 -10.65,22.17l-11.27 20.96c-3.88,7.9 -7.3,14.86 -10.77,21.93 -3.81,7.73 -6.81,13.85 -10.79,21.89 -11.19,22.6 -19.72,45.57 -32.22,68.4 -4.29,7.85 -2.14,2.26 -3.89,11.81l-2.63 6.25c-0.15,0.23 -0.49,0.61 -0.64,0.84 -0.14,0.22 -0.43,0.64 -0.57,0.86l-18.36 38.98c-1.18,3.01 -1.18,4.09 -2.49,7.06 -3.5,7.94 -7.04,9.91 -11.26,20.98l-42 92.17c-9.56,21.12 -21.52,42.23 -28.97,64.75 -1.6,4.82 -1.87,2.46 -4.02,6.72 -4.26,8.42 -5.39,18.13 -10.12,25.62 -2.75,4.36 -3.38,5.38 -5.09,11.6 -3.73,13.63 -6.16,13.42 -11.24,23.39 -8.98,17.63 -16.58,47.38 -29.09,72.01 -3.94,7.77 -5.51,20.06 -9.23,27.26 -8.78,16.99 -7.29,23 -19.52,47.76 -5.66,11.45 -4.98,9.55 -9,25.34 -2.78,10.91 -8.05,11.33 -10.51,24.8l12.54 -16.38c4.52,-6.24 8.71,-11.37 11.94,-19.44 5.99,-14.98 15.85,-26.38 22.92,-41.19 2.33,-4.88 5.34,-13.85 7.43,-18.88 7.53,-18.21 13.31,-25.91 22.51,-50.5 1.46,-3.89 2.95,-3.49 4.41,-8.43 1.11,-3.74 -0.32,-2.25 1.84,-6.67 2.55,-5.24 1.79,-2.15 4.53,-7.75l12.62 -27.88c3.1,-5.55 6.14,-9.95 9.11,-15.63 7,-13.37 13.03,-32.21 21.76,-43.46 4.53,-5.83 11.93,-26.18 22.25,-42.48 2.67,-4.21 5.6,-11.68 8.31,-17.18 1.66,-3.39 2.54,-5.45 4.2,-8.52l46.34 -88.53c2.58,-5.82 3.86,-12.82 6.97,-19.76 5.9,-13.12 11.53,-22.05 18.24,-33.63 3.18,-5.49 5.85,-10.28 9.2,-15.46l19.43 -31.46c4.97,-9.84 2.77,-11.16 0.92,-19.44 25.6,-29.81 16.52,-23.95 26.68,-38.69l23.53 -30.52c4.56,-5.71 22.85,-27.61 23.98,-32.02l-4.3 -1.18 3.21 -17.54c8.04,-0.4 20.34,-10.71 25.67,-16.91 16.88,17.64 32.97,37.78 48.53,57.13 11.5,14.3 24.64,29.84 33.83,45.98 3.5,6.15 6.11,11.15 13.7,13.45l4.2 -7.2c0.04,-0.12 0.13,-0.56 0.27,-0.79 9.85,5.81 15.07,22.9 20.58,33.69 2.82,5.5 3.04,8.56 6.05,13.37 9.81,15.68 18.57,30.45 28.93,45.26 10.46,14.94 20.65,28.46 30.52,44.03l29.8 44.59c5.03,7.34 9.38,13.89 14.78,21.64 6.05,8.7 9.22,14.32 14.18,23.61 4.68,8.79 10.47,13.1 15.52,21.06 4.38,6.9 0.71,4.44 6.44,11.55l23.65 32.82c4.61,5.91 1.93,5.69 5.95,11.93l37.09 53.38c2.19,1.37 3.29,1.06 2.22,-2.77 -1.44,-5.17 -4.25,-8.62 -7.3,-12.24 -5.67,-6.7 -6.34,-10.45 -10.89,-17.14l-26.39 -42.72c-2.45,-4.22 -3.45,-5.14 -5.85,-9.01l-97.42 -154.63c-6.71,-10.52 -16.51,-23.61 -20.26,-35.44z"/>
 </g>
</svg>
