<?xml version="1.0" encoding="UTF-8"?>
<!DOCTYPE svg PUBLIC "-//W3C//DTD SVG 1.1//EN" "http://www.w3.org/Graphics/SVG/1.1/DTD/svg11.dtd">
<!-- Creator: CorelDRAW (Versión de evaluación) -->
<svg xmlns="http://www.w3.org/2000/svg" xml:space="preserve" width="45.4652mm" height="173.699mm" version="1.1" style="shape-rendering:geometricPrecision; text-rendering:geometricPrecision; image-rendering:optimizeQuality; fill-rule:evenodd; clip-rule:evenodd"
viewBox="0 0 4546.52 17369.86"
 xmlns:xlink="http://www.w3.org/1999/xlink"
 xmlns:xodm="http://www.corel.com/coreldraw/odm/2003">
 <defs>
  <style type="text/css">
   <![CDATA[
    .str0 {stroke:#ED3237;stroke-width:16.93;stroke-miterlimit:22.9256}
    .fil3 {fill:#ED3237}
    .fil2 {fill:#0B0B0B}
    .fil1 {fill:#F2E6C9}
    .fil0 {fill:#FAFAF7}
   ]]>
  </style>
 </defs>
 <g id="extraction">
  <metadata id="CorelCorpID_0Corel-Layer"/>
  <polygon id="crown" class="fil0" points="2161.97,252.11 2101,252.11 2101,282.59 2040.07,282.59 2040.07,313.08 1979.13,313.08 1979.13,343.53 1948.64,343.53 1948.64,374.01 1887.71,374.01 1887.71,404.5 1857.22,404.5 1857.22,434.95 1796.29,434.95 1796.29,465.43 1765.8,465.43 1765.8,495.92 1704.87,495.92 1704.87,526.37 1674.38,526.37 1674.38,556.85 1613.45,556.85 1613.45,587.34 1582.96,587.34 1582.96,617.79 1552.48,617.79 1552.48,648.27 1491.54,648.27 1491.54,678.76 1461.06,678.76 1461.06,709.21 1400.12,709.21 1400.12,739.69 1369.64,739.69 1369.64,770.18 1308.7,770.18 1308.7,800.63 1278.22,800.63 1278.22,831.11 1217.28,831.11 1217.28,861.6 1156.35,861.6 1156.35,892.05 1095.38,892.05 1095.38,922.54 1064.93,922.54 1064.93,953.02 1003.95,953.02 1003.95,983.47 912.53,983.47 912.53,1013.96 882.08,1013.96 882.08,1044.44 821.11,1044.44 821.11,1074.89 760.18,1074.89 760.18,1105.38 729.69,1105.38 729.69,1135.86 668.76,1135.86 668.76,1166.31 638.27,1166.31 638.27,1196.8 607.82,1196.8 607.82,1227.28 577.34,1227.28 577.34,1257.73 546.85,1257.73 546.85,1288.22 516.4,1288.22 516.4,1318.67 485.92,1318.67 485.92,1349.15 455.43,1349.15 455.43,1379.64 424.98,1379.64 424.98,1410.09 394.5,1410.09 394.5,1471.06 364.01,1471.06 364.01,1531.99 333.56,1531.99 333.56,1562.48 303.08,1562.48 303.08,1623.41 272.59,1623.41 272.59,1714.83 242.14,1714.83 242.14,1806.25 211.66,1806.25 211.66,2019.58 181.17,2019.58 181.17,2385.26 211.66,2385.26 211.66,2689.97 242.14,2689.97 242.14,2811.88 272.59,2811.88 272.59,2964.24 303.08,2964.24 303.08,3086.14 333.56,3086.14 333.56,3177.56 364.01,3177.56 364.01,3299.47 394.5,3299.47 394.5,3421.34 424.98,3421.34 424.98,3482.31 455.43,3482.31 455.43,3604.18 485.92,3604.18 485.92,3695.6 516.4,3695.6 516.4,3817.5 546.85,3817.5 546.85,3969.86 577.34,3969.86 577.34,4030.83 607.82,4030.83 607.82,4122.25 638.27,4122.25 638.27,4244.12 668.76,4244.12 668.76,4366.03 699.24,4366.03 699.24,4457.45 729.69,4457.45 729.69,4518.38 760.18,4518.38 760.18,4609.8 790.66,4609.8 790.66,4670.77 821.11,4670.77 821.11,4731.71 851.6,4731.71 851.6,4792.64 882.08,4792.64 882.08,4853.62 912.53,4853.62 912.53,4884.06 943.02,4884.06 943.02,4945.04 973.51,4945.04 973.51,4975.49 1003.95,4975.49 1003.95,5036.46 1034.44,5036.46 1034.44,5066.91 1064.93,5066.91 1064.93,5127.88 1095.38,5127.88 1095.38,5158.33 1125.86,5158.33 1125.86,5188.81 1156.35,5188.81 1156.35,5249.75 1186.8,5249.75 1186.8,5280.23 1217.28,5280.23 1217.28,5310.72 1247.77,5310.72 1247.77,5341.17 1278.22,5341.17 1278.22,5371.65 1339.19,5371.65 1339.19,5402.14 1369.64,5402.14 1369.64,5432.59 1400.12,5432.59 1400.12,5463.07 1430.61,5463.07 1430.61,5493.56 1491.54,5493.56 1491.54,5524.01 1552.48,5524.01 1552.48,5554.49 1582.96,5554.49 1582.96,5584.98 1643.9,5584.98 1643.9,5615.43 1704.87,5615.43 1704.87,5645.91 1826.74,5645.91 1826.74,5676.4 1887.71,5676.4 1887.71,5706.85 2070.55,5706.85 2070.55,5737.33 2466.68,5737.33 2466.68,5706.85 2588.59,5706.85 2588.59,5676.4 2680.01,5676.4 2680.01,5645.91 2740.94,5645.91 2740.94,5615.43 2801.91,5615.43 2801.91,5584.98 2862.85,5584.98 2862.85,5554.49 2923.78,5554.49 2923.78,5524.01 2984.76,5524.01 2984.76,5493.56 3015.21,5493.56 3015.21,5463.07 3076.18,5463.07 3076.18,5432.59 3106.63,5432.59 3106.63,5402.14 3137.11,5402.14 3137.11,5371.65 3167.6,5371.65 3167.6,5341.17 3198.05,5341.17 3198.05,5310.72 3228.53,5310.72 3228.53,5280.23 3259.02,5280.23 3259.02,5249.75 3289.47,5249.75 3289.47,5219.3 3319.95,5219.3 3319.95,5188.81 3350.44,5188.81 3350.44,5158.33 3380.89,5158.33 3380.89,5127.88 3411.37,5127.88 3411.37,5066.91 3441.86,5066.91 3441.86,5036.46 3472.31,5036.46 3472.31,5005.97 3502.79,5005.97 3502.79,4945.04 3533.28,4945.04 3533.28,4914.55 3563.73,4914.55 3563.73,4853.62 3594.21,4853.62 3594.21,4792.64 3624.7,4792.64 3624.7,4762.19 3655.15,4762.19 3655.15,4670.77 3685.63,4670.77 3685.63,4609.8 3716.12,4609.8 3716.12,4518.38 3746.57,4518.38 3746.57,4457.45 3777.05,4457.45 3777.05,4366.03 3807.54,4366.03 3807.54,4305.09 3837.99,4305.09 3837.99,4183.19 3868.47,4183.19 3868.47,4091.77 3898.96,4091.77 3898.96,4000.35 3929.41,4000.35 3929.41,3939.41 3959.9,3939.41 3959.9,3817.5 3990.38,3817.5 3990.38,3726.08 4020.83,3726.08 4020.83,3634.66 4051.32,3634.66 4051.32,3573.73 4081.8,3573.73 4081.8,3421.34 4112.25,3421.34 4112.25,3329.92 4142.74,3329.92 4142.74,3268.98 4173.22,3268.98 4173.22,3147.08 4203.67,3147.08 4203.67,3025.21 4234.16,3025.21 4234.16,2933.79 4264.64,2933.79 4264.64,2842.37 4295.09,2842.37 4295.09,2689.97 4325.58,2689.97 4325.58,2415.71 4356.06,2415.71 4356.06,1897.68 4325.58,1897.68 4325.58,1775.77 4295.09,1775.77 4295.09,1684.35 4264.64,1684.35 4264.64,1562.48 4234.16,1562.48 4234.16,1531.99 4203.67,1531.99 4203.67,1471.06 4173.22,1471.06 4173.22,1410.09 4142.74,1410.09 4142.74,1379.64 4112.25,1379.64 4112.25,1349.15 4081.8,1349.15 4081.8,1288.22 4020.83,1288.22 4020.83,1227.28 3959.9,1227.28 3959.9,1196.8 3929.41,1196.8 3929.41,1166.31 3898.96,1166.31 3898.96,1135.86 3868.47,1135.86 3868.47,1105.38 3807.54,1105.38 3807.54,1074.89 3777.05,1074.89 3777.05,1044.44 3716.12,1044.44 3716.12,1013.96 3685.63,1013.96 3685.63,983.47 3624.7,983.47 3624.7,953.02 3594.21,953.02 3594.21,922.54 3533.28,922.54 3533.28,892.05 3502.79,892.05 3502.79,861.6 3441.86,861.6 3441.86,831.11 3380.89,831.11 3380.89,800.63 3350.44,800.63 3350.44,770.18 3319.95,770.18 3319.95,739.69 3259.02,739.69 3259.02,709.21 3228.53,709.21 3228.53,678.76 3198.05,678.76 3198.05,648.27 3137.11,648.27 3137.11,617.79 3106.63,617.79 3106.63,587.34 3076.18,587.34 3076.18,556.85 3015.21,556.85 3015.21,526.37 2984.76,526.37 2984.76,495.92 2954.27,495.92 2954.27,465.43 2893.34,465.43 2893.34,434.95 2862.85,434.95 2862.85,404.5 2801.91,404.5 2801.91,374.01 2771.43,374.01 2771.43,343.53 2710.49,343.53 2710.49,313.08 2680.01,313.08 2680.01,282.59 2619.07,282.59 2619.07,252.11 2558.1,252.11 2558.1,221.66 2161.97,221.66 "/>
  <polygon id="root" class="fil1" points="790.66,5249.75 821.11,5249.75 821.11,6224.92 851.6,6224.92 851.6,6742.96 882.08,6742.96 882.08,7687.65 912.53,7687.65 912.53,7961.91 943.02,7961.91 943.02,8388.53 973.51,8388.53 973.51,8662.79 1003.95,8662.79 1003.95,9028.47 1034.44,9028.47 1034.44,9394.15 1064.93,9394.15 1064.93,9698.86 1095.38,9698.86 1095.38,9973.13 1125.86,9973.13 1125.86,10674.04 1156.35,10674.04 1156.35,11953.93 1125.86,11953.93 1125.86,12197.7 1095.38,12197.7 1095.38,12624.32 1064.93,12624.32 1064.93,12868.13 1034.44,12868.13 1034.44,13233.81 1003.95,13233.81 1003.95,14087.05 1034.44,14087.05 1034.44,14178.47 1064.93,14178.47 1064.93,14239.44 1095.38,14239.44 1095.38,14300.37 1125.86,14300.37 1125.86,14361.31 1156.35,14361.31 1156.35,14391.79 1217.28,14391.79 1217.28,14422.28 1400.12,14422.28 1400.12,14391.79 1461.06,14391.79 1461.06,14361.31 1491.54,14361.31 1491.54,14330.86 1552.48,14330.86 1552.48,14300.37 1582.96,14300.37 1582.96,14269.89 1613.45,14269.89 1613.45,14239.44 1643.9,14239.44 1643.9,14208.95 1674.38,14208.95 1674.38,14178.47 1704.87,14178.47 1704.87,14148.02 1735.32,14148.02 1735.32,14087.05 1765.8,14087.05 1765.8,14056.6 1796.29,14056.6 1796.29,14026.11 1826.74,14026.11 1826.74,13965.18 1857.22,13965.18 1857.22,13904.21 1887.71,13904.21 1887.71,13843.27 1918.16,13843.27 1918.16,13812.78 1948.64,13812.78 1948.64,13751.85 1979.13,13751.85 1979.13,13690.91 2009.58,13690.91 2009.58,13629.94 2040.07,13629.94 2040.07,13569.01 2070.55,13569.01 2070.55,13508.07 2101,13508.07 2101,13416.65 2131.49,13416.65 2131.49,13355.68 2161.97,13355.68 2161.97,13294.75 2192.42,13294.75 2192.42,13203.33 2222.91,13203.33 2222.91,13142.39 2253.39,13142.39 2253.39,13050.97 2283.84,13050.97 2283.84,12959.55 2314.33,12959.55 2314.33,12898.58 2344.81,12898.58 2344.81,12807.16 2375.26,12807.16 2375.26,12715.74 2405.75,12715.74 2405.75,12654.8 2436.23,12654.8 2436.23,12532.9 2466.68,12532.9 2466.68,12471.96 2497.17,12471.96 2497.17,12350.06 2527.65,12350.06 2527.65,12289.12 2558.1,12289.12 2558.1,12167.22 2588.59,12167.22 2588.59,12075.8 2619.07,12075.8 2619.07,11984.38 2649.52,11984.38 2649.52,11862.51 2680.01,11862.51 2680.01,11801.53 2710.49,11801.53 2710.49,11710.11 2740.94,11710.11 2740.94,11618.69 2771.43,11618.69 2771.43,11527.27 2801.91,11527.27 2801.91,11374.92 2832.36,11374.92 2832.36,11283.5 2862.85,11283.5 2862.85,11161.59 2893.34,11161.59 2893.34,11070.17 2923.78,11070.17 2923.78,10978.75 2954.27,10978.75 2954.27,10826.39 2984.76,10826.39 2984.76,10674.04 3015.21,10674.04 3015.21,10552.13 3045.69,10552.13 3045.69,10460.71 3076.18,10460.71 3076.18,10277.87 3106.63,10277.87 3106.63,10095.03 3137.11,10095.03 3137.11,9881.7 3167.6,9881.7 3167.6,9637.93 3198.05,9637.93 3198.05,9394.15 3228.53,9394.15 3228.53,9241.76 3259.02,9241.76 3259.02,8906.57 3289.47,8906.57 3289.47,8662.79 3319.95,8662.79 3319.95,8479.95 3350.44,8479.95 3350.44,8114.27 3380.89,8114.27 3380.89,7779.07 3411.37,7779.07 3411.37,7474.32 3441.86,7474.32 3441.86,7200.06 3472.31,7200.06 3472.31,6803.89 3502.79,6803.89 3502.79,6255.37 3533.28,6255.37 3533.28,5981.11 3563.73,5981.11 3563.73,5706.85 3594.21,5706.85 3594.21,5310.72 3624.7,5310.72 3624.7,5097.39 3594.21,5097.39 3594.21,5158.33 3563.73,5158.33 3563.73,5188.81 3533.28,5188.81 3533.28,5219.3 3502.79,5219.3 3502.79,5249.75 3472.31,5249.75 3472.31,5280.23 3441.86,5280.23 3441.86,5341.17 3411.37,5341.17 3411.37,5371.65 3380.89,5371.65 3380.89,5402.14 3350.44,5402.14 3350.44,5432.59 3319.95,5432.59 3319.95,5463.07 3289.47,5463.07 3289.47,5493.56 3228.53,5493.56 3228.53,5524.01 3198.05,5524.01 3198.05,5554.49 3167.6,5554.49 3167.6,5584.98 3137.11,5584.98 3137.11,5615.43 3076.18,5615.43 3076.18,5645.91 3045.69,5645.91 3045.69,5676.4 2984.76,5676.4 2984.76,5706.85 2923.78,5706.85 2923.78,5737.33 2862.85,5737.33 2862.85,5767.82 2801.91,5767.82 2801.91,5798.27 2710.49,5798.27 2710.49,5828.75 2588.59,5828.75 2588.59,5859.24 2436.23,5859.24 2436.23,5889.69 2009.58,5889.69 2009.58,5859.24 1857.22,5859.24 1857.22,5828.75 1765.8,5828.75 1765.8,5798.27 1643.9,5798.27 1643.9,5767.82 1582.96,5767.82 1582.96,5737.33 1522.03,5737.33 1522.03,5706.85 1491.54,5706.85 1491.54,5676.4 1430.61,5676.4 1430.61,5645.91 1369.64,5645.91 1369.64,5615.43 1339.19,5615.43 1339.19,5584.98 1308.7,5584.98 1308.7,5554.49 1247.77,5554.49 1247.77,5524.01 1217.28,5524.01 1217.28,5493.56 1186.8,5493.56 1186.8,5463.07 1156.35,5463.07 1156.35,5432.59 1125.86,5432.59 1125.86,5402.14 1095.38,5402.14 1095.38,5371.65 1064.93,5371.65 1064.93,5341.17 1034.44,5341.17 1034.44,5310.72 1003.95,5310.72 1003.95,5280.23 973.51,5280.23 973.51,5249.75 943.02,5249.75 943.02,5219.3 912.53,5219.3 912.53,5188.81 882.08,5188.81 882.08,5127.88 851.6,5127.88 851.6,5066.91 821.11,5066.91 821.11,5036.46 790.66,5036.46 "/>
  <path id="outline" class="fil2" d="M790.66 5036.46l30.45 0 0 30.45 30.49 0 0 60.97 30.48 0 0 60.93 30.45 0 0 30.49 30.49 0 0 30.45 30.49 0 0 30.48 30.44 0 0 30.49 30.49 0 0 30.45 30.49 0 0 30.48 30.45 0 0 30.49 30.48 0 0 30.45 30.49 0 0 30.48 30.45 0 0 30.49 30.48 0 0 30.45 30.49 0 0 30.48 60.93 0 0 30.49 30.49 0 0 30.45 30.45 0 0 30.48 60.97 0 0 30.49 60.93 0 0 30.45 30.49 0 0 30.48 60.93 0 0 30.49 60.94 0 0 30.45 121.9 0 0 30.48 91.42 0 0 30.49 152.36 0 0 30.45 426.65 0 0 -30.45 152.36 0 0 -30.49 121.9 0 0 -30.48 91.42 0 0 -30.45 60.94 0 0 -30.49 60.93 0 0 -30.48 60.98 0 0 -30.45 60.93 0 0 -30.49 30.49 0 0 -30.48 60.93 0 0 -30.45 30.49 0 0 -30.49 30.45 0 0 -30.48 30.48 0 0 -30.45 60.94 0 0 -30.49 30.48 0 0 -30.48 30.49 0 0 -30.45 30.45 0 0 -30.49 30.48 0 0 -30.48 30.49 0 0 -60.94 30.45 0 0 -30.48 30.48 0 0 -30.45 30.49 0 0 -30.49 30.45 0 0 -30.48 30.48 0 0 -60.94 30.49 0 0 213.33 -30.49 0 0 396.13 -30.48 0 0 274.26 -30.45 0 0 274.26 -30.49 0 0 548.52 -30.48 0 0 396.17 -30.45 0 0 274.26 -30.49 0 0 304.75 -30.48 0 0 335.2 -30.45 0 0 365.68 -30.49 0 0 182.84 -30.48 0 0 243.78 -30.45 0 0 335.19 -30.49 0 0 152.39 -30.48 0 0 243.78 -30.45 0 0 243.77 -30.49 0 0 213.33 -30.48 0 0 182.84 -30.45 0 0 182.84 -30.49 0 0 91.42 -30.48 0 0 121.91 -30.45 0 0 152.35 -30.49 0 0 152.36 -30.49 0 0 91.42 -30.44 0 0 91.42 -30.49 0 0 121.91 -30.49 0 0 91.42 -30.45 0 0 152.35 -30.48 0 0 91.42 -30.49 0 0 91.42 -30.45 0 0 91.42 -30.48 0 0 60.98 -30.49 0 0 121.87 -30.45 0 0 91.42 -30.48 0 0 91.42 -30.49 0 0 121.9 -30.45 0 0 60.94 -30.48 0 0 121.9 -30.49 0 0 60.94 -30.45 0 0 121.9 -30.48 0 0 60.94 -30.49 0 0 91.42 -30.45 0 0 91.42 -30.48 0 0 60.97 -30.49 0 0 91.42 -30.45 0 0 91.42 -30.48 0 0 60.94 -30.49 0 0 91.42 -30.45 0 0 60.93 -30.48 0 0 60.97 -30.49 0 0 91.42 -30.45 0 0 60.94 -30.48 0 0 60.93 -30.49 0 0 60.97 -30.45 0 0 60.94 -30.49 0 0 60.93 -30.48 0 0 30.49 -30.45 0 0 60.94 -30.49 0 0 60.97 -30.48 0 0 60.93 -30.45 0 0 30.49 -30.49 0 0 30.45 -30.48 0 0 60.97 -30.45 0 0 30.45 -30.49 0 0 30.48 -30.48 0 0 30.49 -30.45 0 0 30.45 -30.49 0 0 30.48 -30.48 0 0 30.49 -60.94 0 0 30.45 -30.48 0 0 30.48 -60.94 0 0 30.49 -182.84 0 0 -30.49 -60.93 0 0 -30.48 -30.49 0 0 -60.94 -30.48 0 0 -60.93 -30.45 0 0 -60.97 -30.49 0 0 -91.42 -30.49 0 0 -853.24 30.49 0 0 -365.68 30.49 0 0 -243.81 30.45 0 0 -426.62 30.48 0 0 -243.77 30.49 0 0 -1279.89 -30.49 0 0 -700.91 -30.48 0 0 -274.27 -30.45 0 0 -304.71 -30.49 0 0 -365.68 -30.49 0 0 -365.68 -30.44 0 0 -274.26 -30.49 0 0 -426.62 -30.49 0 0 -274.26 -30.45 0 0 -944.69 -30.48 0 0 -518.04 -30.49 0 0 -975.17 -30.45 0 0 -213.29zm-609.49 -3016.88l30.49 0 0 -213.33 30.48 0 0 -91.42 30.45 0 0 -91.42 30.49 0 0 -60.93 30.48 0 0 -30.49 30.45 0 0 -60.93 30.49 0 0 -60.97 30.48 0 0 -30.45 30.45 0 0 -30.49 30.49 0 0 -30.48 30.48 0 0 -30.45 30.45 0 0 -30.49 30.49 0 0 -30.45 30.48 0 0 -30.48 30.45 0 0 -30.49 30.49 0 0 -30.45 60.93 0 0 -30.48 30.49 0 0 -30.49 60.93 0 0 -30.45 60.97 0 0 -30.48 30.45 0 0 -30.49 91.42 0 0 -30.45 60.98 0 0 -30.48 30.45 0 0 -30.49 60.97 0 0 -30.45 60.93 0 0 -30.49 60.94 0 0 -30.48 30.48 0 0 -30.45 60.94 0 0 -30.49 30.48 0 0 -30.48 60.94 0 0 -30.45 30.48 0 0 -30.49 60.94 0 0 -30.48 30.48 0 0 -30.45 30.49 0 0 -30.49 60.93 0 0 -30.48 30.49 0 0 -30.45 60.93 0 0 -30.49 30.49 0 0 -30.48 60.93 0 0 -30.45 30.49 0 0 -30.49 60.93 0 0 -30.48 30.49 0 0 -30.45 60.94 0 0 -30.49 60.93 0 0 -30.48 60.97 0 0 -30.45 396.13 0 0 30.45 60.97 0 0 30.48 60.94 0 0 30.49 30.48 0 0 30.45 60.94 0 0 30.48 30.48 0 0 30.49 60.94 0 0 30.45 30.49 0 0 30.48 60.93 0 0 30.49 30.49 0 0 30.45 30.45 0 0 30.48 60.97 0 0 30.49 30.45 0 0 30.45 30.48 0 0 30.48 60.94 0 0 30.49 30.48 0 0 30.45 30.49 0 0 30.48 60.93 0 0 30.49 30.49 0 0 30.45 30.45 0 0 30.48 60.97 0 0 30.49 60.93 0 0 30.45 30.49 0 0 30.49 60.93 0 0 30.48 30.49 0 0 30.45 60.93 0 0 30.49 30.49 0 0 30.48 60.93 0 0 30.45 30.49 0 0 30.49 60.93 0 0 30.48 30.49 0 0 30.45 30.45 0 0 30.49 30.49 0 0 30.48 60.93 0 0 60.94 60.97 0 0 60.93 30.45 0 0 30.49 30.49 0 0 30.45 30.48 0 0 60.97 30.45 0 0 60.93 30.49 0 0 30.49 30.48 0 0 121.87 30.45 0 0 91.42 30.49 0 0 121.91 30.48 0 0 518.03 -30.48 0 0 274.26 -30.49 0 0 152.4 -30.45 0 0 91.42 -30.48 0 0 91.42 -30.49 0 0 121.87 -30.45 0 0 121.9 -30.48 0 0 60.94 -30.49 0 0 91.42 -30.45 0 0 152.39 -30.48 0 0 60.93 -30.49 0 0 91.42 -30.45 0 0 91.42 -30.48 0 0 121.91 -30.49 0 0 60.94 -30.45 0 0 91.42 -30.49 0 0 91.42 -30.48 0 0 121.9 -30.45 0 0 60.94 -30.49 0 0 91.42 -30.48 0 0 60.93 -30.45 0 0 91.42 -30.49 0 0 60.97 -30.48 0 0 91.42 -30.45 0 0 30.45 -30.49 0 0 60.98 -30.48 0 0 60.93 -30.45 0 0 30.49 -30.49 0 0 60.93 -30.48 0 0 30.49 -30.45 0 0 30.45 -30.49 0 0 60.97 -30.48 0 0 30.45 -30.45 0 0 30.48 -30.49 0 0 30.49 -30.48 0 0 30.45 -30.45 0 0 30.48 -30.49 0 0 30.49 -30.48 0 0 30.45 -30.45 0 0 30.48 -30.49 0 0 30.49 -30.48 0 0 30.45 -30.45 0 0 30.48 -60.97 0 0 30.49 -30.45 0 0 30.45 -60.98 0 0 30.48 -60.93 0 0 30.49 -60.94 0 0 30.45 -60.97 0 0 30.48 -60.93 0 0 30.49 -91.42 0 0 30.45 -121.91 0 0 30.48 -396.13 0 0 -30.48 -182.84 0 0 -30.45 -60.97 0 0 -30.49 -121.87 0 0 -30.48 -60.97 0 0 -30.45 -60.94 0 0 -30.49 -30.48 0 0 -30.48 -60.94 0 0 -30.45 -60.93 0 0 -30.49 -30.49 0 0 -30.48 -30.48 0 0 -30.45 -30.45 0 0 -30.49 -60.97 0 0 -30.48 -30.45 0 0 -30.45 -30.49 0 0 -30.49 -30.48 0 0 -30.48 -30.45 0 0 -60.94 -30.49 0 0 -30.48 -30.48 0 0 -30.45 -30.45 0 0 -60.97 -30.49 0 0 -30.45 -30.49 0 0 -60.97 -30.44 0 0 -30.45 -30.49 0 0 -60.98 -30.49 0 0 -30.44 -30.45 0 0 -60.98 -30.48 0 0 -60.93 -30.49 0 0 -60.94 -30.45 0 0 -60.97 -30.48 0 0 -91.42 -30.49 0 0 -60.93 -30.45 0 0 -91.42 -30.48 0 0 -121.91 -30.49 0 0 -121.87 -30.45 0 0 -91.42 -30.48 0 0 -60.97 -30.49 0 0 -152.36 -30.45 0 0 -121.9 -30.48 0 0 -91.42 -30.49 0 0 -121.87 -30.45 0 0 -60.97 -30.48 0 0 -121.87 -30.49 0 0 -121.91 -30.45 0 0 -91.42 -30.48 0 0 -121.9 -30.49 0 0 -152.36 -30.45 0 0 -121.91 -30.48 0 0 -304.71 -30.49 0 0 -365.68zm2041.74 -1980.76l-152.36 0 0 30.45 -60.97 0 0 30.48 -60.94 0 0 30.49 -30.48 0 0 30.45 -60.94 0 0 30.48 -60.93 0 0 30.49 -30.49 0 0 30.45 -60.93 0 0 30.48 -30.49 0 0 30.49 -30.48 0 0 30.45 -60.94 0 0 30.48 -30.48 0 0 30.49 -60.94 0 0 30.45 -30.48 0 0 30.48 -30.45 0 0 30.49 -60.97 0 0 30.45 -30.45 0 0 30.48 -60.97 0 0 30.49 -30.45 0 0 30.45 -60.97 0 0 30.48 -30.45 0 0 30.49 -60.97 0 0 30.45 -60.94 0 0 30.48 -60.93 0 0 30.49 -60.98 0 0 30.45 -60.93 0 0 30.48 -60.94 0 0 30.49 -30.48 0 0 30.45 -60.94 0 0 30.49 -60.97 0 0 30.48 -30.45 0 0 30.45 -60.97 0 0 30.49 -30.45 0 0 30.48 -30.48 0 0 30.45 -30.49 0 0 30.49 -30.45 0 0 30.48 -60.97 0 0 30.45 -30.45 0 0 60.97 -30.48 0 0 30.45 -30.49 0 0 30.49 -30.45 0 0 60.93 -30.48 0 0 30.49 -30.49 0 0 60.93 -30.45 0 0 60.94 -30.48 0 0 91.42 -30.49 0 0 60.97 -30.45 0 0 121.87 -30.48 0 0 213.33 -30.49 0 0 457.1 30.49 0 0 304.74 30.48 0 0 121.87 30.45 0 0 152.4 30.49 0 0 91.42 30.48 0 0 152.35 30.45 0 0 91.42 30.49 0 0 152.36 30.48 0 0 60.97 30.45 0 0 121.87 30.49 0 0 152.39 30.48 0 0 60.94 30.45 0 0 152.35 30.49 0 0 60.97 30.48 0 0 152.36 30.45 0 0 60.93 30.49 0 0 121.91 30.48 0 0 60.93 30.45 0 0 121.91 30.49 0 0 243.77 30.48 0 0 579.01 30.45 0 0 944.69 30.49 0 0 761.82 30.48 0 0 609.49 30.45 0 0 457.1 30.49 0 0 274.26 30.48 0 0 426.62 30.45 0 0 274.26 30.49 0 0 304.71 30.48 0 0 396.17 30.45 0 0 335.2 30.49 0 0 335.23 30.49 0 0 944.65 -30.49 0 0 579.01 -30.49 0 0 213.33 -30.45 0 0 396.13 -30.48 0 0 426.65 -30.49 0 0 1005.63 30.49 0 0 91.42 30.48 0 0 91.42 30.45 0 0 60.93 30.49 0 0 60.94 30.49 0 0 30.48 30.44 0 0 30.49 30.49 0 0 30.45 60.94 0 0 30.48 30.48 0 0 30.49 60.94 0 0 30.45 243.81 0 0 -30.45 60.93 0 0 -30.49 60.94 0 0 -30.48 60.97 0 0 -30.45 30.45 0 0 -30.49 30.48 0 0 -30.48 30.49 0 0 -30.45 60.93 0 0 -30.49 30.49 0 0 -60.93 30.45 0 0 -30.49 30.48 0 0 -30.48 30.49 0 0 -30.45 30.45 0 0 -30.49 30.48 0 0 -60.93 30.49 0 0 -30.49 30.45 0 0 -60.93 30.49 0 0 -60.97 30.48 0 0 -60.94 30.45 0 0 -60.93 30.49 0 0 -60.98 30.48 0 0 -30.44 30.45 0 0 -91.43 30.49 0 0 -60.97 30.48 0 0 -60.93 30.45 0 0 -60.94 30.49 0 0 -91.42 30.48 0 0 -60.97 30.45 0 0 -91.42 30.49 0 0 -60.93 30.48 0 0 -91.42 30.45 0 0 -60.94 30.49 0 0 -91.42 30.48 0 0 -60.97 30.45 0 0 -91.42 30.49 0 0 -91.42 30.48 0 0 -91.42 30.45 0 0 -121.87 30.49 0 0 -91.42 30.48 0 0 -60.97 30.45 0 0 -91.42 30.49 0 0 -91.42 30.48 0 0 -91.42 30.45 0 0 -91.42 30.49 0 0 -91.43 30.49 0 0 -121.87 30.44 0 0 -121.9 30.49 0 0 -60.94 30.49 0 0 -121.9 30.45 0 0 -60.94 30.48 0 0 -152.39 30.49 0 0 -91.42 30.45 0 0 -121.87 30.48 0 0 -121.9 30.49 0 0 -121.91 30.45 0 0 -182.84 30.48 0 0 -91.42 30.49 0 0 -152.36 30.45 0 0 -152.35 30.48 0 0 -274.26 30.49 0 0 -182.85 30.45 0 0 -121.9 30.48 0 0 -304.75 30.49 0 0 -182.84 30.45 0 0 -274.22 30.48 0 0 -335.24 30.49 0 0 -213.29 30.45 0 0 -457.1 30.48 0 0 -182.84 30.49 0 0 -396.17 30.45 0 0 -396.17 30.48 0 0 -487.55 30.49 0 0 -274.26 30.45 0 0 -457.1 30.48 0 0 -274.26 30.49 0 0 -274.26 30.45 0 0 -365.69 30.48 0 0 -60.97 30.49 0 0 -60.93 30.45 0 0 -91.42 30.49 0 0 -91.42 30.48 0 0 -91.42 30.45 0 0 -60.94 30.49 0 0 -91.42 30.48 0 0 -91.42 30.45 0 0 -121.9 30.49 0 0 -91.42 30.48 0 0 -121.91 30.45 0 0 -91.42 30.49 0 0 -91.42 30.48 0 0 -91.42 30.45 0 0 -91.42 30.49 0 0 -121.87 30.48 0 0 -60.97 30.45 0 0 -121.87 30.49 0 0 -91.42 30.48 0 0 -152.4 30.45 0 0 -91.42 30.49 0 0 -213.29 30.48 0 0 -731.36 -30.48 0 0 -121.91 -30.49 0 0 -121.9 -30.45 0 0 -60.94 -30.48 0 0 -60.93 -30.49 0 0 -60.97 -30.45 0 0 -60.94 -30.48 0 0 -30.48 -30.49 0 0 -60.94 -30.45 0 0 -30.45 -30.48 0 0 -30.48 -30.49 0 0 -30.49 -30.45 0 0 -30.45 -30.48 0 0 -30.48 -30.49 0 0 -30.49 -30.45 0 0 -30.45 -30.48 0 0 -30.48 -30.49 0 0 -30.49 -30.45 0 0 -30.45 -60.97 0 0 -30.48 -30.45 0 0 -30.49 -60.97 0 0 -30.45 -30.45 0 0 -30.49 -60.97 0 0 -30.48 -60.94 0 0 -30.45 -30.48 0 0 -30.49 -60.94 0 0 -30.48 -30.48 0 0 -30.45 -60.94 0 0 -30.49 -30.48 0 0 -30.48 -60.94 0 0 -30.45 -30.48 0 0 -30.49 -60.94 0 0 -30.48 -30.48 0 0 -30.45 -30.45 0 0 -30.49 -30.49 0 0 -30.48 -60.93 0 0 -30.45 -30.49 0 0 -30.49 -30.48 0 0 -30.48 -60.94 0 0 -30.45 -30.48 0 0 -30.49 -30.45 0 0 -30.48 -60.98 0 0 -30.45 -30.44 0 0 -30.49 -60.98 0 0 -30.48 -30.45 0 0 -30.45 -60.97 0 0 -30.49 -60.93 0 0 -30.48 -60.94 0 0 -30.45 -121.9 0 0 -30.49 -274.26 0 0 30.49z"/>
  <path class="fil3 str0" d="M3239.44 10519.42l-15.98 -21.5 15.98 21.5zm-15.98 -21.5l-6.98 -18.18 6.98 18.18zm-6.98 -18.18zm-45.94 -79.33l45.94 79.33zm-45.94 -79.33c3.41,-25.14 29.23,-11.09 11.39,4.2l-3.43 -0.42c-9.13,-3.06 -12.54,29.96 -7.96,-3.78zm-18.94 -69.38l2.09 5.41c-0.15,-0.35 -3.19,-4.27 -2.09,-5.41zm-75.89 -137.2c11.71,-12.25 30.93,36.18 8.98,11.42 -0.18,-0.21 -27.42,7.89 -8.98,-11.42zm-448.79 -1428.89zm-59.92 -115.7l59.92 115.7zm-59.92 -115.7c25.97,22.37 6.53,-4.05 23.06,26.86 12.83,23.99 11.15,13.75 13.89,49.17 -50.34,-43.36 -32.91,-61.68 -36.95,-76.03zm-29.94 -57.84zm0 0zm0 0zm-108.81 -242.9l108.81 242.9zm-108.81 -242.9c32.8,13.38 70.57,59.49 80.71,106.67 7.89,36.77 6.98,7.35 0.15,63.54 -30.61,-53.1 -54.94,-112.18 -80.86,-170.21zm445.46 -1472.88c5.15,-37.99 14.58,2.88 5.35,1.98 -0.11,-0.03 -10.97,39.47 -5.35,-1.98zm365.73 3643.8c38.29,32.97 121.7,212.26 156.15,282.56 74.27,151.65 79.01,137.04 158.91,279.66 17.78,31.73 37.04,66.65 51.08,99.45 19.64,45.87 18.97,73.33 50.27,100.29 -2.56,-103.35 -156.28,-411.3 -201.94,-502.21l-73.85 -164.81c-13.81,-33.42 -16.41,-46.38 -33.24,-79.89l-216.42 -487.07c-23.03,-48.49 -29.84,-28.87 -31.47,-94.49 21.59,-0.31 22.26,-3.88 47.01,1.76l4.03 -29.69c-41.35,-35.63 -108.14,-211.93 -134.26,-279.98 -27.62,-71.98 -45.2,-68.6 -68.88,-144.54l-126.9 -287.67c-12.94,-26.85 -16.75,-42.95 -29.62,-70.95 -27.89,-60.73 -161.93,-317.26 -163.39,-376.9 30.94,24.61 36.8,50.3 57.79,69.54 76.92,70.55 -55.15,-212.34 -62.11,-230.66 -13.25,-34.86 -18.88,-57.48 -30.33,-95.71 -20.49,-68.44 -7.01,-154.34 -51.41,-202.64 -33.5,-36.44 -49.12,-8.32 -77.55,-6.41 -1.97,-79.31 -26.15,-71.76 -59.92,-115.69 45.28,-71.08 44.22,-28.28 41.72,-131.52 -1.97,-81.91 8.38,-139.28 45.07,-185.14 68.36,-85.47 185.24,-240.39 215.25,-384.23 14.76,-70.76 24.16,-165.66 32.42,-202.76 6.95,-31.25 42.53,-112.27 59.19,-161.59 19.27,-57.02 41.21,-120.41 50.62,-189.75 31.37,27.02 9.59,19.29 40.96,46.32 10.77,-36.88 40.65,-100.42 56.24,-134.98 19.78,-43.92 43.78,-89.31 65.06,-132.05 45.52,-91.43 114.15,-285.54 152.34,-347.01 39.28,-63.25 56.44,-165.12 83.07,-245.96 68.5,-207.94 157.71,-379.58 251.14,-552 44.96,-83 83.7,-181.64 130.1,-264.24 29.6,-52.68 45.15,-49.74 60.86,-126.05 8.08,-39.32 -5.03,-15.39 21.71,-59.3 14.66,-24.05 23.8,-33.57 39.41,-59.8 26.05,-43.81 42.61,-92.87 61.26,-142 22.07,-58.12 44.71,-73.14 66.15,-129.23l176.26 -425.4c27.08,-63.32 43.29,-74.21 65.04,-132.11l61.36 -141.72c13.74,-33.39 11.18,-38.52 24.41,-77.15 45.83,-133.92 137.76,-271.63 192.09,-404.29 13.57,-33.15 14.46,-52 27.98,-87.93 62.66,-166.47 183.23,-173.35 213.63,-188.82l26.51 -42.78c23.37,-103.3 11.74,-302.52 -30.79,-349.48 -86.82,-95.85 -170.82,-15.24 -229.73,-14.4 -55.46,-96.18 -28.36,-138.98 -115.8,-100.38l-107.47 41.84c-37.69,19.02 -10.17,-20.81 -42.05,51.31 -30.7,69.43 -43.63,55.21 -75.19,126.1 -26.44,59.44 -23.94,100.09 -56.38,152.79 -28.07,45.59 -52.68,69.39 -75.71,126.09 -70.83,174.43 -112.92,215.64 -140.09,278.39l-135.5 310.45c-34.08,109.37 -87.04,206.55 -132.84,297.25 -25.12,49.74 -42.23,112.4 -66.44,168.69 -24.09,56.05 -47.62,90.37 -57.86,147.7 -9.76,54.65 -43.44,100.39 -65.65,153.78 -130.6,313.95 -241.66,665.3 -396.58,937.05 -62.71,110.01 -95.11,150.09 -144.71,286.49 -67.22,184.86 -161.04,387.51 -215.11,585.45l-87.06 255.68c-11.65,38.18 -15.88,51.23 -29.45,84.12 -9.87,23.94 -29.45,63.68 -36.71,86.6 -19.84,62.53 -5.5,56.04 -21.29,103.81l-34.21 92c-1.23,3.34 -2.55,6.94 -3.77,10.3l-45.51 142.79c-30.52,114.88 -109.14,209.56 -108.45,340.62 -55.92,-48.17 -235.08,-633.82 -269.85,-749.71 -26.93,-89.79 -81.01,-356.18 -103.48,-414.12 -15.07,-38.85 -24,-44.21 -40.86,-84.68 -24.42,-58.66 -94.5,-233.03 -127.55,-261.5 17.69,-130.46 32.5,-261.05 -64.73,-249.09 -36.58,4.5 2.59,9.82 -27.11,5.51 -18.78,-2.7 -13.15,-5.07 -32.96,-20.83 32.33,-110.67 47.33,-115.39 -75.35,-195.67 -16.49,-10.81 -16.95,-15.58 -35.47,-31.5 -40.9,-35.17 -53.31,-18.17 -54.92,-83.56 54.84,20.26 86.08,2.64 132.02,1.98 6.1,-72.87 -27.7,-133.21 -51.85,-175.08 -58.65,-53.4 1.29,100.05 -159.43,-126.2l-40.43 -72.38c26.03,-0.37 49.98,-2.74 76.02,-3.11 4.3,-51.38 0.51,-56.89 -5.91,-95.75l131.48 -18.22c47.84,-14.27 95.05,-51.39 142.64,-52.06 -20.6,-77.81 -151.19,-72.92 -232.25,-101.99 -59.62,-21.38 -48.74,-0.62 -76.63,-4.4l-152.08 -48.21c-103.33,-54.78 -198.96,-314.69 -326.14,-410.53 -45.6,-34.38 -293.28,-120.33 -355.85,-138.44 -53.58,-15.52 -92.92,12.86 -120.42,69.62 -35.75,73.81 -11.81,136.15 4.19,218.87 25.3,130.81 82.08,168.99 152.22,337.64 23.68,56.92 49.36,113.41 74.64,163.99l300.71 691.91c66.27,174.16 131.49,374.22 206.53,535.65l71.15 167.63c16.48,42.4 22.6,47.63 40.15,85.4 64.76,139.31 86.61,228.35 190.79,437.42 32.25,64.72 28.96,102.75 65.05,174.03 39.28,77.53 56.06,150.18 96.99,217.05 45.2,73.89 51.81,142.12 91,223.31 74.64,154.65 269.76,649.55 307.88,811.85 -47.3,99.02 -172.22,489.83 -206.95,546.43 -50.97,83.09 -29.46,89.34 -66.84,187.72l-70.77 177.51c-24.35,66.82 -45.83,125.78 -67.65,185.61 -23.9,65.53 -42.73,117.34 -67.73,185.42 -70.29,191.36 -123.83,385.83 -202.31,579.14 -26.98,66.47 -13.45,19.1 -24.44,100.01l-16.54 52.9c-0.95,1.95 -3.07,5.17 -3.99,7.11 -0.89,1.86 -2.74,5.4 -3.58,7.26l-115.3 330.06c-7.41,25.46 -7.43,34.59 -15.65,59.73 -21.95,67.25 -44.22,83.92 -70.7,177.67l-263.75 780.4c-60.02,178.88 -135.08,357.63 -181.91,548.3 -10.02,40.78 -11.7,20.82 -25.2,56.83 -26.76,71.33 -33.9,153.51 -63.58,216.96 -17.26,36.92 -21.23,45.53 -31.93,98.25 -23.44,115.36 -38.72,113.6 -70.61,198.02 -56.4,149.27 -104.11,401.14 -182.64,609.7 -24.78,65.79 -34.63,169.9 -58,230.84 -55.15,143.85 -45.74,194.72 -122.56,404.36 -35.54,97 -31.29,80.85 -56.53,214.55 -17.45,92.43 -50.53,95.99 -66,210.02l78.78 -138.68c28.35,-52.89 54.7,-96.33 74.93,-164.6 37.61,-126.9 99.58,-223.36 143.93,-348.75 14.62,-41.32 33.56,-117.27 46.65,-159.92 47.3,-154.17 83.62,-219.34 141.4,-427.59 9.13,-32.93 18.48,-29.5 27.65,-71.31 6.96,-31.72 -1.97,-19.13 11.57,-56.53 16.02,-44.32 11.22,-18.23 28.43,-65.64l79.26 -236.04c19.44,-46.99 38.57,-84.24 57.24,-132.34 43.93,-113.17 81.78,-272.73 136.58,-367.93 28.44,-49.43 74.94,-221.71 139.73,-359.68 16.75,-35.66 35.2,-98.93 52.17,-145.54 10.45,-28.68 15.96,-46.13 26.37,-72.07l291.02 -749.59c16.17,-49.35 24.23,-108.63 43.78,-167.35 37.01,-111.08 72.39,-186.71 114.5,-284.71 20,-46.54 36.76,-87.08 57.8,-130.9l122.01 -266.39c31.19,-83.3 17.36,-94.51 5.75,-164.64 160.75,-252.4 103.77,-202.79 167.54,-327.56l147.75 -258.47c28.62,-48.28 143.53,-233.78 150.61,-271.12l-26.99 -9.97 20.14 -148.49c50.45,-3.4 127.7,-90.66 161.17,-143.21 106,149.41 207.07,319.94 304.77,483.77 72.18,121.04 154.69,252.65 212.43,389.33 21.96,52.02 38.32,94.35 86.03,113.83l26.32 -60.95c0.28,-0.97 0.85,-4.76 1.76,-6.67 61.84,49.2 94.6,193.91 129.22,285.25 17.67,46.57 19.05,72.46 37.95,113.19 61.64,132.78 116.63,257.87 181.7,383.24 65.63,126.45 129.65,240.98 191.65,372.81l187.12 377.56c31.57,62.09 58.88,117.56 92.79,183.23 38.02,73.62 57.93,121.2 89.03,199.9 29.4,74.38 65.75,110.87 97.49,178.29 27.51,58.45 4.42,37.58 40.44,97.83l148.5 277.83c28.92,50.05 12.13,48.22 37.34,101.07l232.94 451.97c13.73,11.61 20.63,8.97 13.93,-23.46 -9.06,-43.79 -26.7,-73.03 -45.89,-103.66 -35.54,-56.72 -39.79,-88.43 -68.32,-145.12l-165.76 -361.7c-15.35,-35.78 -21.65,-43.49 -36.69,-76.28l-611.78 -1309.28c-42.11,-89.11 -103.67,-199.95 -127.22,-300.09z"/>
 </g>
</svg>
