<?xml version="1.0" encoding="UTF-8"?>
<!DOCTYPE svg PUBLIC "-//W3C//DTD SVG 1.1//EN" "http://www.w3.org/Graphics/SVG/1.1/DTD/svg11.dtd">
<!-- Creator: CorelDRAW (Versión OEM) -->
<svg xmlns="http://www.w3.org/2000/svg" xml:space="preserve" width="60.3376mm" height="173.699mm" version="1.1" style="shape-rendering:geometricPrecision; text-rendering:geometricPrecision; image-rendering:optimizeQuality; fill-rule:evenodd; clip-rule:evenodd"
viewBox="0 0 6033.76 17369.86"
 xmlns:xlink="http://www.w3.org/1999/xlink"
 xmlns:xodm="http://www.corel.com/coreldraw/odm/2003">
 <defs>
  <style type="text/css">
   <![CDATA[
    .str0 {stroke:#F1E6C9;stroke-width:16.93;stroke-miterlimit:22.9256}
    .fil2 {fill:#0B0B0B}
    .fil1 {fill:#EDEAE0}
    .fil0 {fill:#F2E6C9}
    .fil3 {fill:#ED3237;fill-rule:nonzero}
   ]]>
  </style>
 </defs>
 <g id="extraction">
  <metadata id="CorelCorpID_0Corel-Layer"/>
  <polygon id="root" class="fil0" points="634.23,4623.64 664.68,4623.64 664.68,4867.42 695.16,4867.42 695.16,5903.53 664.68,5903.53 664.68,6086.37 634.23,6086.37 634.23,6360.63 603.74,6360.63 603.74,6573.92 573.26,6573.92 573.26,6726.32 542.81,6726.32 542.81,6909.16 512.32,6909.16 512.32,7152.93 481.84,7152.93 481.84,7244.35 451.39,7244.35 451.39,7488.13 420.9,7488.13 420.9,7701.46 390.42,7701.46 390.42,7884.3 359.97,7884.3 359.97,9072.76 390.42,9072.76 390.42,9499.38 420.9,9499.38 420.9,9621.28 451.39,9621.28 451.39,9865.06 481.84,9865.06 481.84,10078.39 512.32,10078.39 512.32,10200.26 542.81,10200.26 542.81,10444.07 573.26,10444.07 573.26,10657.36 603.74,10657.36 603.74,10809.75 634.23,10809.75 634.23,10931.62 664.68,10931.62 664.68,11053.53 695.16,11053.53 695.16,11114.46 725.65,11114.46 725.65,11175.43 756.1,11175.43 756.1,11205.88 817.07,11205.88 817.07,11236.37 938.94,11236.37 938.94,11205.88 999.91,11205.88 999.91,11175.43 1030.36,11175.43 1030.36,11144.95 1060.85,11144.95 1060.85,11114.46 1091.33,11114.46 1091.33,11084.01 1121.78,11084.01 1121.78,11023.04 1152.27,11023.04 1152.27,10962.11 1182.75,10962.11 1182.75,10901.17 1213.2,10901.17 1213.2,10840.2 1243.69,10840.2 1243.69,10748.78 1274.17,10748.78 1274.17,10657.36 1304.62,10657.36 1304.62,10565.94 1335.11,10565.94 1335.11,10444.07 1365.59,10444.07 1365.59,10352.65 1396.04,10352.65 1396.04,10230.74 1426.53,10230.74 1426.53,10078.39 1457.01,10078.39 1457.01,9926 1487.46,9926 1487.46,9773.64 1517.95,9773.64 1517.95,9651.73 1548.43,9651.73 1548.43,9529.86 1578.88,9529.86 1578.88,9407.96 1609.37,9407.96 1609.37,9255.6 1639.85,9255.6 1639.85,9042.28 1670.3,9042.28 1670.3,8920.41 1700.79,8920.41 1700.79,8798.5 1731.28,8798.5 1731.28,8676.59 1761.72,8676.59 1761.72,8585.17 1792.21,8585.17 1792.21,8493.75 1822.7,8493.75 1822.7,8371.88 1853.15,8371.88 1853.15,8280.46 1883.63,8280.46 1883.63,8189.04 1914.12,8189.04 1914.12,8128.07 1944.57,8128.07 1944.57,8006.2 1975.05,8006.2 1975.05,7945.23 2005.54,7945.23 2005.54,7853.81 2035.99,7853.81 2035.99,7762.39 2066.47,7762.39 2066.47,7701.46 2096.96,7701.46 2096.96,7640.52 2127.41,7640.52 2127.41,7549.1 2157.89,7549.1 2157.89,7488.13 2188.38,7488.13 2188.38,7427.19 2218.83,7427.19 2218.83,7366.26 2249.31,7366.26 2249.31,7305.29 2279.8,7305.29 2279.8,7244.35 2310.25,7244.35 2310.25,7213.87 2340.73,7213.87 2340.73,7152.93 2371.22,7152.93 2371.22,7092 2401.67,7092 2401.67,7061.51 2432.15,7061.51 2432.15,7000.58 2462.64,7000.58 2462.64,6939.61 2493.09,6939.61 2493.09,6909.16 2523.57,6909.16 2523.57,6878.67 2554.06,6878.67 2554.06,6817.74 2584.51,6817.74 2584.51,6787.25 2614.99,6787.25 2614.99,6756.76 2675.93,6756.76 2675.93,6726.32 2706.41,6726.32 2706.41,6695.83 2675.93,6695.83 2675.93,6634.9 2645.48,6634.9 2645.48,6604.41 2614.99,6604.41 2614.99,6573.92 2584.51,6573.92 2584.51,6543.47 2554.06,6543.47 2554.06,6512.99 2523.57,6512.99 2523.57,6482.5 2493.09,6482.5 2493.09,6452.05 2462.64,6452.05 2462.64,6421.57 2554.06,6421.57 2554.06,6452.05 2614.99,6452.05 2614.99,6482.5 2645.48,6482.5 2645.48,6512.99 2675.93,6512.99 2675.93,6543.47 2706.41,6543.47 2706.41,6573.92 2736.9,6573.92 2736.9,6604.41 2767.35,6604.41 2767.35,6665.34 2797.84,6665.34 2797.84,6695.83 2828.32,6695.83 2828.32,6756.76 2858.77,6756.76 2858.77,6817.74 2889.26,6817.74 2889.26,6878.67 2919.74,6878.67 2919.74,6939.61 2950.19,6939.61 2950.19,7031.03 2980.68,7031.03 2980.68,7122.45 3011.16,7122.45 3011.16,7305.29 3041.61,7305.29 3041.61,7427.19 3072.1,7427.19 3072.1,7610.03 3102.58,7610.03 3102.58,8280.46 3072.1,8280.46 3072.1,8585.17 3041.61,8585.17 3041.61,8768.02 3011.16,8768.02 3011.16,8950.86 2980.68,8950.86 2980.68,9042.28 2950.19,9042.28 2950.19,9194.63 2919.74,9194.63 2919.74,9255.6 2889.26,9255.6 2889.26,9377.47 2858.77,9377.47 2858.77,9499.38 2828.32,9499.38 2828.32,9590.8 2797.84,9590.8 2797.84,9682.22 2767.35,9682.22 2767.35,9773.64 2736.9,9773.64 2736.9,9895.55 2706.41,9895.55 2706.41,9986.97 2675.93,9986.97 2675.93,10047.9 2645.48,10047.9 2645.48,10139.32 2614.99,10139.32 2614.99,10230.74 2584.51,10230.74 2584.51,10322.16 2554.06,10322.16 2554.06,10413.58 2523.57,10413.58 2523.57,10505 2493.09,10505 2493.09,10596.42 2462.64,10596.42 2462.64,10687.84 2432.15,10687.84 2432.15,10840.2 2401.67,10840.2 2401.67,10962.11 2371.22,10962.11 2371.22,11297.3 2401.67,11297.3 2401.67,11388.72 2432.15,11388.72 2432.15,11449.69 2462.64,11449.69 2462.64,11480.14 2523.57,11480.14 2523.57,11510.63 2706.41,11510.63 2706.41,11480.14 2736.9,11480.14 2736.9,11449.69 2797.84,11449.69 2797.84,11419.21 2828.32,11419.21 2828.32,11388.72 2858.77,11388.72 2858.77,11358.27 2919.74,11358.27 2919.74,11327.79 2950.19,11327.79 2950.19,11297.3 2980.68,11297.3 2980.68,11266.85 3011.16,11266.85 3011.16,11236.37 3041.61,11236.37 3041.61,11205.88 3102.58,11205.88 3102.58,11144.95 3163.52,11144.95 3163.52,11084.01 3194,11084.01 3194,11053.53 3224.45,11053.53 3224.45,11023.04 3254.94,11023.04 3254.94,10992.59 3285.42,10992.59 3285.42,10962.11 3315.87,10962.11 3315.87,10901.17 3346.36,10901.17 3346.36,10870.69 3376.84,10870.69 3376.84,10840.2 3407.29,10840.2 3407.29,10779.27 3437.78,10779.27 3437.78,10748.78 3468.26,10748.78 3468.26,10718.33 3498.71,10718.33 3498.71,10657.36 3529.2,10657.36 3529.2,10626.91 3559.68,10626.91 3559.68,10596.42 3590.13,10596.42 3590.13,10565.94 3620.62,10565.94 3620.62,10505 3651.1,10505 3651.1,10474.52 3681.55,10474.52 3681.55,10413.58 3712.04,10413.58 3712.04,10383.1 3742.53,10383.1 3742.53,10352.65 3772.97,10352.65 3772.97,10291.68 3803.46,10291.68 3803.46,10261.23 3833.95,10261.23 3833.95,10200.26 3864.4,10200.26 3864.4,10169.81 3894.88,10169.81 3894.88,10108.84 3925.37,10108.84 3925.37,10047.9 3955.82,10047.9 3955.82,10017.42 3986.3,10017.42 3986.3,9956.48 4016.79,9956.48 4016.79,9895.55 4047.24,9895.55 4047.24,9865.06 4077.72,9865.06 4077.72,9804.13 4108.21,9804.13 4108.21,9743.15 4138.66,9743.15 4138.66,9682.22 4169.14,9682.22 4169.14,9621.28 4199.63,9621.28 4199.63,9560.31 4230.08,9560.31 4230.08,9499.38 4260.56,9499.38 4260.56,9438.44 4291.05,9438.44 4291.05,9377.47 4321.5,9377.47 4321.5,9286.05 4351.98,9286.05 4351.98,9225.12 4382.47,9225.12 4382.47,9133.7 4412.92,9133.7 4412.92,9072.76 4443.4,9072.76 4443.4,8981.34 4473.89,8981.34 4473.89,8920.41 4504.34,8920.41 4504.34,8798.5 4534.82,8798.5 4534.82,8737.57 4565.31,8737.57 4565.31,8585.17 4595.76,8585.17 4595.76,8463.3 4626.24,8463.3 4626.24,8402.33 4656.73,8402.33 4656.73,8249.98 4687.18,8249.98 4687.18,8097.62 4717.66,8097.62 4717.66,8006.2 4748.15,8006.2 4748.15,7792.88 4778.6,7792.88 4778.6,7670.97 4809.09,7670.97 4809.09,7427.19 4839.57,7427.19 4839.57,7183.42 4870.02,7183.42 4870.02,6909.16 4900.51,6909.16 4900.51,6391.08 4930.99,6391.08 4930.99,5751.14 4961.44,5751.14 4961.44,5537.85 4991.93,5537.85 4991.93,5202.62 5022.41,5202.62 5022.41,5019.78 5052.86,5019.78 5052.86,4836.94 5083.35,4836.94 5083.35,4745.51 5113.83,4745.51 5113.83,4623.64 5083.35,4623.64 5083.35,4654.09 5022.41,4654.09 5022.41,4684.58 4961.44,4684.58 4961.44,4715.07 4870.02,4715.07 4870.02,4745.51 4809.09,4745.51 4809.09,4776 4717.66,4776 4717.66,4806.49 4656.73,4806.49 4656.73,4836.94 4534.82,4836.94 4534.82,4867.42 4443.4,4867.42 4443.4,4897.91 4291.05,4897.91 4291.05,4928.36 4199.63,4928.36 4199.63,4958.84 3986.3,4958.84 3986.3,4989.33 3742.53,4989.33 3742.53,5019.78 3224.45,5019.78 3224.45,4989.33 2736.9,4989.33 2736.9,4958.84 2523.57,4958.84 2523.57,4928.36 2401.67,4928.36 2401.67,4897.91 2188.38,4897.91 2188.38,4867.42 2066.47,4867.42 2066.47,4836.94 1975.05,4836.94 1975.05,4806.49 1792.21,4806.49 1792.21,4776 1700.79,4776 1700.79,4745.51 1578.88,4745.51 1578.88,4715.07 1457.01,4715.07 1457.01,4684.58 1365.59,4684.58 1365.59,4654.09 1274.17,4654.09 1274.17,4623.64 1182.75,4623.64 1182.75,4593.16 1091.33,4593.16 1091.33,4562.67 999.91,4562.67 999.91,4532.22 938.94,4532.22 938.94,4501.74 847.52,4501.74 847.52,4471.25 786.58,4471.25 786.58,4440.8 725.65,4440.8 725.65,4410.32 664.68,4410.32 664.68,4379.83 634.23,4379.83 "/>
  <path id="crown" class="fil1 str0" d="M2249.31 723.05l91.42 0 0 30.45 30.49 0 0 30.49 30.45 0 0 60.93 30.48 0 0 30.49 30.49 0 0 60.93 30.45 0 0 30.49 30.48 0 0 60.93 30.49 0 0 30.49 30.45 0 0 60.93 30.48 0 0 30.49 30.49 0 0 60.93 30.45 0 0 30.49 30.48 0 0 30.45 30.49 0 0 60.97 30.45 0 0 30.45 30.49 0 0 30.48 30.48 0 0 30.49 30.45 0 0 30.45 243.81 0 0 -30.45 91.42 0 0 -30.49 91.42 0 0 -30.48 60.94 0 0 -30.45 91.42 0 0 -30.49 60.93 0 0 -30.48 60.97 0 0 -30.45 60.94 0 0 -30.49 60.93 0 0 -30.48 60.98 0 0 -30.45 60.93 0 0 -30.49 91.42 0 0 -30.45 60.94 0 0 -30.48 91.42 0 0 -30.49 152.39 0 0 -30.45 274.26 0 0 30.45 91.42 0 0 30.49 60.93 0 0 30.48 60.94 0 0 30.45 30.48 0 0 30.49 60.94 0 0 30.45 60.97 0 0 30.48 30.45 0 0 30.49 30.49 0 0 30.45 30.48 0 0 30.48 30.45 0 0 30.49 30.49 0 0 30.45 30.48 0 0 30.48 30.45 0 0 30.49 30.49 0 0 30.45 30.48 0 0 30.48 30.45 0 0 30.49 30.49 0 0 30.45 30.48 0 0 30.48 30.45 0 0 30.49 30.49 0 0 30.45 30.48 0 0 30.48 30.45 0 0 60.94 -91.42 0 0 -30.45 -30.45 0 0 -30.49 -30.48 0 0 -30.48 -60.94 0 0 -30.45 -30.48 0 0 -30.49 -30.49 0 0 -30.48 -30.45 0 0 -30.45 -30.48 0 0 -30.49 -30.49 0 0 -30.48 -30.45 0 0 -30.45 -60.97 0 0 -30.49 -30.45 0 0 -30.48 -30.48 0 0 -30.45 -30.49 0 0 -30.49 -30.45 0 0 -30.48 -60.97 0 0 -30.45 -30.45 0 0 -30.49 -60.97 0 0 -30.48 -60.94 0 0 -30.45 -121.9 0 0 -30.49 -182.84 0 0 30.49 -121.87 0 0 30.45 -91.42 0 0 30.48 -60.97 0 0 30.49 -91.42 0 0 30.45 -60.94 0 0 30.48 -60.93 0 0 30.49 -60.98 0 0 30.45 -60.93 0 0 30.48 -60.94 0 0 30.49 -91.42 0 0 30.45 -60.97 0 0 30.48 -60.93 0 0 30.49 -60.94 0 0 30.45 -91.42 0 0 30.48 -121.9 0 0 30.49 -213.33 0 0 -30.49 -91.42 0 0 -30.48 -60.94 0 0 -30.45 -91.42 0 0 -30.49 -60.93 0 0 -30.48 -60.97 0 0 -30.45 -60.94 0 0 -30.49 -60.93 0 0 -30.48 -91.42 0 0 -30.45 -30.49 0 0 -30.49 -60.93 0 0 -30.48 -91.42 0 0 -30.45 -60.97 0 0 -30.49 -60.94 0 0 -30.48 -60.93 0 0 -30.45 -91.42 0 0 -30.49 -304.75 0 0 30.49 -60.94 0 0 30.45 -60.97 0 0 30.48 -121.87 0 0 -30.48 30.45 0 0 -30.45 30.49 0 0 -30.49 30.48 0 0 -30.45 60.94 0 0 -30.48 30.48 0 0 -30.49 60.94 0 0 -30.45 365.68 0 0 30.45 60.94 0 0 30.49 91.42 0 0 30.48 60.97 0 0 30.45 60.93 0 0 30.49 60.94 0 0 30.45 60.97 0 0 30.48 60.93 0 0 30.49 60.94 0 0 30.45 60.97 0 0 30.48 60.93 0 0 30.49 60.94 0 0 30.45 60.97 0 0 -30.45 -30.49 0 0 -30.49 -30.48 0 0 -60.93 -30.45 0 0 -30.49 -30.49 0 0 -60.93 -30.48 0 0 -30.49 -30.45 0 0 -60.93 -30.49 0 0 -60.94 -30.48 0 0 -30.48 -30.45 0 0 -60.94 -30.49 0 0 -30.48 -30.48 0 0 -60.94 -30.45 0 0 -30.48 -30.49 0 0 -60.94zm-579.01 -243.81l-91.42 0 0 30.48 -91.42 0 0 30.49 -30.45 0 0 30.45 -60.97 0 0 30.48 -30.45 0 0 30.49 -60.97 0 0 30.45 -60.93 0 0 30.48 -60.94 0 0 30.49 -30.48 0 0 30.45 -60.94 0 0 30.49 -30.48 0 0 30.48 -60.94 0 0 30.45 -30.48 0 0 30.49 -30.49 0 0 30.48 -60.93 0 0 30.45 -30.49 0 0 30.49 -30.45 0 0 30.48 -30.49 0 0 30.45 -30.48 0 0 30.49 -30.45 0 0 30.48 -30.49 0 0 30.45 -30.48 0 0 30.49 -30.45 0 0 30.45 -30.49 0 0 60.97 -30.48 0 0 30.45 -30.45 0 0 60.97 -30.49 0 0 30.45 -30.48 0 0 60.97 -30.45 0 0 60.93 -30.49 0 0 60.94 -30.48 0 0 91.42 -30.45 0 0 60.97 -30.49 0 0 121.87 -30.48 0 0 121.91 -30.45 0 0 121.9 -30.49 0 0 182.84 -30.48 0 0 639.95 30.48 0 0 152.35 30.49 0 0 152.36 30.45 0 0 152.39 30.48 0 0 60.93 30.49 0 0 152.36 30.45 0 0 91.42 30.48 0 0 91.42 30.49 0 0 91.42 30.45 0 0 60.97 30.48 0 0 121.87 30.49 0 0 91.42 30.45 0 0 60.97 30.48 0 0 30.45 60.94 0 0 30.49 30.48 0 0 30.48 60.94 0 0 30.45 60.97 0 0 30.49 60.94 0 0 30.48 60.93 0 0 30.45 60.97 0 0 30.49 91.42 0 0 30.48 91.42 0 0 30.45 91.42 0 0 30.49 91.42 0 0 30.48 91.42 0 0 30.45 91.42 0 0 30.49 121.87 0 0 30.48 121.91 0 0 30.45 152.36 0 0 30.49 30.48 0 0 30.49 213.33 0 0 30.44 152.35 0 0 30.49 121.91 0 0 30.49 304.71 0 0 30.45 182.84 0 0 30.48 914.21 0 0 -30.48 243.81 0 0 -30.45 152.35 0 0 -30.49 121.91 0 0 -30.49 91.42 0 0 -30.44 91.42 0 0 -30.49 121.87 0 0 -30.49 60.97 0 0 -30.45 91.42 0 0 -30.48 60.94 0 0 -30.49 60.93 0 0 -30.45 60.97 0 0 -30.48 60.94 0 0 -30.49 60.93 0 0 -30.45 60.97 0 0 -60.97 30.45 0 0 -60.93 30.49 0 0 -91.42 30.48 0 0 -60.94 30.45 0 0 -60.97 30.49 0 0 -91.42 30.48 0 0 -60.93 30.45 0 0 -60.94 30.49 0 0 -91.42 30.48 0 0 -60.97 30.45 0 0 -91.42 30.49 0 0 -60.94 30.48 0 0 -60.93 30.45 0 0 -91.42 30.49 0 0 -91.42 30.48 0 0 -60.97 30.45 0 0 -91.42 30.49 0 0 -121.87 30.49 0 0 -182.84 30.44 0 0 -152.4 30.49 0 0 -609.45 -30.49 0 0 -182.84 -30.44 0 0 -121.91 -30.49 0 0 -91.42 -30.49 0 0 -60.94 -30.45 0 0 -60.93 -30.48 0 0 -60.97 -30.49 0 0 -60.94 -30.45 0 0 -60.93 -30.48 0 0 -60.97 -30.49 0 0 -30.45 -30.45 0 0 -60.97 -30.48 0 0 -30.45 -30.49 0 0 -60.97 -30.45 0 0 -30.45 -30.48 0 0 -30.49 -30.49 0 0 -30.45 -30.45 0 0 -60.97 -30.48 0 0 -30.45 -30.49 0 0 -30.48 -30.45 0 0 -30.49 -30.48 0 0 -30.45 -30.49 0 0 -30.48 -30.45 0 0 -30.49 -30.48 0 0 -30.45 -60.94 0 0 -30.48 -30.48 0 0 -30.49 -30.49 0 0 -30.45 -30.45 0 0 -30.49 -60.97 0 0 -30.48 -60.93 0 0 -30.45 -30.49 0 0 -30.49 -60.94 0 0 -30.48 -91.42 0 0 -30.45 -91.42 0 0 -30.49 -243.77 0 0 30.49 -152.39 0 0 30.45 -91.42 0 0 30.48 -91.42 0 0 30.49 -30.45 0 0 30.45 -91.42 0 0 30.48 -60.98 0 0 30.49 -60.93 0 0 30.45 -60.94 0 0 30.49 -91.42 0 0 30.48 -60.97 0 0 30.45 -121.87 0 0 30.49 -457.1 0 0 -30.49 -91.42 0 0 -30.45 -91.42 0 0 -30.48 -91.42 0 0 -30.49 -60.97 0 0 -30.45 -60.94 0 0 -30.49 -60.93 0 0 -30.48 -91.42 0 0 -30.45 -60.97 0 0 -30.49 -60.94 0 0 -30.48 -60.93 0 0 -30.45 -60.97 0 0 -30.49 -91.42 0 0 -30.48 -60.94 0 0 -30.45 -304.75 0 0 30.45z"/>
  <path id="outline" class="fil2" d="M634.24 4379.84l30.45 0 0 30.48 60.97 0 0 30.48 60.91 0 0 30.46 60.94 0 0 30.48 91.43 0 0 30.51 60.97 0 0 30.43 91.41 0 0 30.48 91.44 0 0 30.49 91.41 0 0 30.46 91.42 0 0 30.47 91.41 0 0 30.5 121.89 0 0 30.43 121.9 0 0 30.49 91.43 0 0 30.47 182.83 0 0 30.47 91.44 0 0 30.47 121.9 0 0 30.49 213.27 0 0 30.44 121.92 0 0 30.5 213.31 0 0 30.48 487.56 0 0 30.45 518.07 0 0 -30.45 243.78 0 0 -30.48 213.33 0 0 -30.5 91.41 0 0 -30.44 152.36 0 0 -30.49 91.43 0 0 -30.47 121.9 0 0 -30.47 60.94 0 0 -30.47 91.43 0 0 -30.49 60.94 0 0 -30.43 91.4 0 0 -30.5 60.98 0 0 -30.47 60.94 0 0 -30.46 30.48 0 0 121.86 -30.48 0 0 91.43 -30.48 0 0 182.83 -30.46 0 0 182.84 -30.48 0 0 335.22 -30.5 0 0 213.31 -30.44 0 0 639.94 -30.48 0 0 518.07 -30.48 0 0 274.28 -30.47 0 0 243.76 -30.47 0 0 243.77 -30.49 0 0 121.91 -30.46 0 0 213.32 -30.48 0 0 91.43 -30.48 0 0 152.36 -30.46 0 0 152.35 -30.48 0 0 60.98 -30.49 0 0 121.86 -30.46 0 0 152.39 -30.47 0 0 60.94 -30.48 0 0 121.9 -30.47 0 0 60.95 -30.48 0 0 91.42 -30.48 0 0 60.93 -30.44 0 0 91.4 -30.5 0 0 60.95 -30.48 0 0 91.42 -30.46 0 0 60.97 -30.48 0 0 60.93 -30.49 0 0 60.94 -30.44 0 0 60.97 -30.49 0 0 60.93 -30.48 0 0 60.95 -30.46 0 0 60.96 -30.49 0 0 60.94 -30.48 0 0 30.48 -30.44 0 0 60.95 -30.49 0 0 60.95 -30.49 0 0 30.46 -30.44 0 0 60.95 -30.5 0 0 60.96 -30.48 0 0 30.47 -30.45 0 0 60.96 -30.48 0 0 30.43 -30.49 0 0 60.99 -30.45 0 0 30.44 -30.49 0 0 30.48 -30.47 0 0 60.94 -30.45 0 0 30.51 -30.49 0 0 60.9 -30.48 0 0 30.49 -30.44 0 0 30.49 -30.5 0 0 30.43 -30.48 0 0 60.98 -30.46 0 0 30.46 -30.48 0 0 30.48 -30.48 0 0 60.93 -30.45 0 0 30.5 -30.5 0 0 30.47 -30.47 0 0 60.95 -30.46 0 0 30.48 -30.49 0 0 30.44 -30.48 0 0 30.5 -30.44 0 0 30.48 -30.49 0 0 60.93 -60.94 0 0 60.93 -60.97 0 0 30.5 -30.44 0 0 30.48 -30.5 0 0 30.45 -30.49 0 0 30.49 -30.44 0 0 30.49 -60.98 0 0 30.44 -30.44 0 0 30.49 -30.48 0 0 30.49 -60.95 0 0 30.45 -30.47 0 0 30.49 -182.84 0 0 -30.49 -60.95 0 0 -30.45 -30.48 0 0 -60.98 -30.49 0 0 -91.42 -30.46 0 0 -335.19 30.46 0 0 -121.92 30.49 0 0 -152.35 30.48 0 0 -91.42 30.45 0 0 -91.39 30.5 0 0 -91.45 30.47 0 0 -91.4 30.44 0 0 -91.43 30.5 0 0 -91.41 30.49 0 0 -91.44 30.45 0 0 -60.93 30.49 0 0 -91.43 30.47 0 0 -121.9 30.45 0 0 -91.43 30.5 0 0 -91.41 30.48 0 0 -91.43 30.44 0 0 -121.9 30.51 0 0 -121.86 30.47 0 0 -60.99 30.44 0 0 -152.34 30.49 0 0 -91.42 30.5 0 0 -182.84 30.44 0 0 -182.85 30.5 0 0 -304.71 30.47 0 0 -670.42 -30.47 0 0 -182.85 -30.5 0 0 -121.9 -30.44 0 0 -182.83 -30.5 0 0 -91.43 -30.49 0 0 -91.42 -30.44 0 0 -60.94 -30.47 0 0 -60.93 -30.51 0 0 -60.97 -30.44 0 0 -60.95 -30.48 0 0 -30.48 -30.5 0 0 -60.93 -30.45 0 0 -30.49 -30.47 0 0 -30.46 -30.49 0 0 -30.47 -30.45 0 0 -30.49 -30.49 0 0 -30.45 -60.94 0 0 -30.49 -91.42 0 0 30.49 30.45 0 0 30.45 30.5 0 0 30.49 30.47 0 0 30.47 30.44 0 0 30.46 30.5 0 0 30.49 30.49 0 0 30.49 30.45 0 0 60.92 30.49 0 0 30.49 -30.49 0 0 30.46 -60.94 0 0 30.47 -30.5 0 0 30.5 -30.44 0 0 60.93 -30.47 0 0 30.48 -30.5 0 0 30.46 -30.45 0 0 60.98 -30.48 0 0 60.92 -30.49 0 0 30.49 -30.46 0 0 60.93 -30.47 0 0 60.93 -30.48 0 0 30.5 -30.46 0 0 60.93 -30.49 0 0 60.99 -30.48 0 0 60.91 -30.43 0 0 60.95 -30.49 0 0 60.97 -30.49 0 0 91.42 -30.44 0 0 60.91 -30.48 0 0 60.95 -30.49 0 0 91.42 -30.46 0 0 91.42 -30.49 0 0 60.96 -30.48 0 0 121.89 -30.44 0 0 60.95 -30.49 0 0 91.43 -30.49 0 0 91.42 -30.46 0 0 121.87 -30.47 0 0 91.42 -30.5 0 0 91.42 -30.44 0 0 121.91 -30.49 0 0 121.9 -30.47 0 0 121.88 -30.47 0 0 213.33 -30.48 0 0 152.34 -30.48 0 0 121.9 -30.45 0 0 121.89 -30.49 0 0 121.9 -30.48 0 0 152.36 -30.47 0 0 152.39 -30.47 0 0 152.36 -30.48 0 0 121.91 -30.46 0 0 91.42 -30.49 0 0 121.85 -30.47 0 0 91.41 -30.46 0 0 91.44 -30.49 0 0 91.41 -30.48 0 0 60.97 -30.44 0 0 60.95 -30.5 0 0 60.92 -30.48 0 0 60.98 -30.46 0 0 30.46 -30.48 0 0 30.47 -30.48 0 0 30.49 -30.45 0 0 30.44 -60.97 0 0 30.5 -121.86 0 0 -30.5 -60.99 0 0 -30.44 -30.43 0 0 -60.96 -30.48 0 0 -60.94 -30.49 0 0 -121.91 -30.45 0 0 -121.87 -30.49 0 0 -152.41 -30.47 0 0 -213.26 -30.46 0 0 -243.8 -30.49 0 0 -121.89 -30.49 0 0 -213.33 -30.45 0 0 -243.78 -30.47 0 0 -121.91 -30.49 0 0 -426.6 -30.46 0 0 -1188.48 30.46 0 0 -182.85 30.49 0 0 -213.3 30.47 0 0 -243.78 30.45 0 0 -91.43 30.49 0 0 -243.78 30.49 0 0 -182.84 30.46 0 0 -152.39 30.47 0 0 -213.3 30.49 0 0 -274.24 30.45 0 0 -182.85 30.49 0 0 -1036.12 -30.49 0 0 -243.76 -30.45 0 0 -243.81zm5149.99 -1493.17l-30.46 0 0 182.84 -30.48 0 0 121.84 -30.49 0 0 91.43 -30.44 0 0 60.96 -30.49 0 0 91.43 -30.49 0 0 91.42 -30.46 0 0 60.94 -30.47 0 0 60.94 -30.49 0 0 91.42 -30.45 0 0 60.97 -30.49 0 0 91.42 -30.48 0 0 60.93 -30.46 0 0 60.94 -30.47 0 0 91.42 -30.5 0 0 60.98 -30.44 0 0 60.92 -30.49 0 0 91.42 -30.49 0 0 60.95 -30.46 0 0 60.96 -60.96 0 0 30.46 -60.91 0 0 30.48 -60.94 0 0 30.51 -60.98 0 0 30.43 -60.92 0 0 30.48 -60.95 0 0 30.49 -91.42 0 0 30.46 -60.96 0 0 30.47 -121.89 0 0 30.5 -91.42 0 0 30.43 -91.4 0 0 30.49 -121.92 0 0 30.47 -152.36 0 0 30.47 -243.81 0 0 30.47 -914.21 0 0 -30.47 -182.84 0 0 -30.47 -304.71 0 0 -30.47 -121.9 0 0 -30.49 -152.34 0 0 -30.43 -213.34 0 0 -30.5 -30.48 0 0 -30.47 -152.35 0 0 -30.46 -121.9 0 0 -30.49 -121.88 0 0 -30.48 -91.44 0 0 -30.43 -91.41 0 0 -30.51 -91.42 0 0 -30.48 -91.41 0 0 -30.46 -91.44 0 0 -30.48 -91.41 0 0 -30.48 -60.97 0 0 -30.44 -60.94 0 0 -30.51 -60.92 0 0 -30.48 -60.99 0 0 -30.44 -60.91 0 0 -30.5 -30.49 0 0 -30.48 -60.94 0 0 -30.44 -30.47 0 0 -60.98 -30.46 0 0 -91.42 -30.49 0 0 -121.87 -30.49 0 0 -60.97 -30.45 0 0 -91.42 -30.47 0 0 -91.42 -30.49 0 0 -91.43 -30.46 0 0 -152.35 -30.48 0 0 -60.95 -30.49 0 0 -152.39 -30.45 0 0 -152.32 -30.48 0 0 -152.36 -30.49 0 0 -639.97 30.49 0 0 -182.84 30.48 0 0 -121.91 30.45 0 0 -121.9 30.49 0 0 -121.85 30.48 0 0 -60.97 30.46 0 0 -91.42 30.49 0 0 -60.95 30.47 0 0 -60.94 30.45 0 0 -60.96 30.49 0 0 -30.45 30.49 0 0 -60.97 30.46 0 0 -30.46 30.47 0 0 -60.97 30.49 0 0 -30.43 30.45 0 0 -30.5 30.49 0 0 -30.45 30.48 0 0 -30.5 30.43 0 0 -30.46 30.48 0 0 -30.46 30.51 0 0 -30.48 30.43 0 0 -30.5 30.49 0 0 -30.44 60.94 0 0 -30.48 30.47 0 0 -30.48 30.5 0 0 -30.47 60.93 0 0 -30.47 30.48 0 0 -30.49 60.94 0 0 -30.46 30.5 0 0 -30.48 60.92 0 0 -30.47 60.95 0 0 -30.47 60.96 0 0 -30.48 30.46 0 0 -30.49 60.95 0 0 -30.45 30.47 0 0 -30.48 91.42 0 0 -30.48 91.43 0 0 -30.47 304.73 0 0 30.47 60.95 0 0 30.48 91.41 0 0 30.48 60.98 0 0 30.45 60.91 0 0 30.49 60.95 0 0 30.48 60.95 0 0 30.47 91.43 0 0 30.47 60.95 0 0 30.48 60.91 0 0 30.46 60.99 0 0 30.49 91.41 0 0 30.47 91.43 0 0 30.47 91.42 0 0 30.48 457.11 0 0 -30.48 121.87 0 0 -30.47 60.98 0 0 -30.47 91.41 0 0 -30.49 60.92 0 0 -30.46 60.94 0 0 -30.48 60.97 0 0 -30.47 91.43 0 0 -30.47 30.44 0 0 -30.48 91.42 0 0 -30.49 91.43 0 0 -30.45 152.38 0 0 -30.48 243.79 0 0 30.48 91.42 0 0 30.45 91.42 0 0 30.49 60.94 0 0 30.48 30.49 0 0 30.47 60.94 0 0 30.47 60.96 0 0 30.48 30.44 0 0 30.46 30.5 0 0 30.49 30.48 0 0 30.47 60.94 0 0 30.47 30.48 0 0 30.48 30.43 0 0 30.48 30.5 0 0 30.44 30.46 0 0 30.5 30.46 0 0 30.48 30.49 0 0 30.46 30.49 0 0 60.96 30.44 0 0 30.45 30.5 0 0 30.5 30.47 0 0 30.43 30.46 0 0 60.97 30.48 0 0 30.46 30.49 0 0 60.97 30.45 0 0 30.45 30.49 0 0 60.96 30.47 0 0 60.94 30.46 0 0 60.95 30.49 0 0 60.96 30.49 0 0 60.94 30.44 0 0 60.92 30.49 0 0 91.42 30.48 0 0 121.9 30.46 0 0 182.85 30.48 0 0 609.47 -30.48 0 0 152.4zm-4174.86 -2590.27l-91.42 0 0 30.47 -60.95 0 0 30.48 -91.41 0 0 30.46 -30.49 0 0 30.49 -60.93 0 0 30.47 -60.97 0 0 30.47 -60.94 0 0 30.48 -30.48 0 0 30.48 -60.94 0 0 30.45 -30.48 0 0 30.49 -60.95 0 0 30.48 -30.47 0 0 30.47 -60.94 0 0 30.47 -30.49 0 0 30.48 -30.43 0 0 30.46 -60.99 0 0 30.49 -30.43 0 0 30.47 -30.48 0 0 30.47 -30.49 0 0 30.48 -30.45 0 0 30.48 -30.49 0 0 30.44 -30.47 0 0 30.5 -30.46 0 0 30.48 -30.49 0 0 30.46 -30.49 0 0 30.46 -30.45 0 0 60.95 -30.47 0 0 30.5 -30.49 0 0 60.92 -30.46 0 0 30.48 -30.48 0 0 60.93 -30.49 0 0 60.95 -30.45 0 0 60.96 -30.48 0 0 60.94 -30.49 0 0 60.95 -30.45 0 0 91.42 -30.48 0 0 91.4 -30.5 0 0 60.98 -30.45 0 0 121.87 -30.47 0 0 182.84 -30.49 0 0 182.85 -30.46 0 0 518.06 30.46 0 0 152.37 30.49 0 0 182.85 30.47 0 0 121.9 30.45 0 0 152.34 30.5 0 0 91.43 30.48 0 0 91.41 30.45 0 0 121.9 30.49 0 0 60.95 30.48 0 0 121.9 30.45 0 0 121.87 30.49 0 0 91.42 30.48 0 0 91.42 30.46 0 0 152.41 30.49 0 0 152.34 30.47 0 0 182.84 30.45 0 0 1249.4 -30.45 0 0 274.25 -30.47 0 0 182.85 -30.49 0 0 274.26 -30.46 0 0 152.4 -30.48 0 0 182.85 -30.49 0 0 213.27 -30.45 0 0 182.85 -30.48 0 0 182.84 -30.49 0 0 274.26 -30.45 0 0 304.75 -30.48 0 0 700.88 30.48 0 0 335.18 30.45 0 0 243.82 30.49 0 0 304.72 30.48 0 0 152.38 30.45 0 0 213.31 30.49 0 0 182.82 30.48 0 0 274.26 30.46 0 0 121.91 30.49 0 0 243.78 30.47 0 0 121.91 30.45 0 0 60.94 30.49 0 0 60.96 30.49 0 0 60.94 30.46 0 0 30.48 30.47 0 0 30.45 30.49 0 0 30.49 30.45 0 0 30.49 30.49 0 0 30.44 60.91 0 0 30.49 243.82 0 0 -30.49 60.93 0 0 -30.44 60.94 0 0 -30.49 30.48 0 0 -30.49 30.5 0 0 -30.45 30.44 0 0 -30.48 30.48 0 0 -60.94 30.49 0 0 -30.49 30.46 0 0 -60.93 30.47 0 0 -60.98 30.49 0 0 -60.92 30.46 0 0 -60.95 30.48 0 0 -91.41 30.47 0 0 -91.43 30.47 0 0 -91.41 30.48 0 0 -91.41 30.49 0 0 -121.92 30.45 0 0 -121.91 30.48 0 0 -152.33 30.48 0 0 -121.9 30.47 0 0 -91.44 30.47 0 0 -121.88 30.49 0 0 -182.84 30.44 0 0 -182.84 30.5 0 0 -121.91 30.47 0 0 -121.91 30.46 0 0 -152.34 30.49 0 0 -152.35 30.49 0 0 -91.43 30.44 0 0 -152.34 30.48 0 0 -60.99 30.49 0 0 -121.86 30.46 0 0 -121.9 30.49 0 0 -91.43 30.48 0 0 -91.42 30.44 0 0 -91.43 30.49 0 0 -60.94 30.49 0 0 -91.42 30.43 0 0 -91.43 30.48 0 0 -60.95 30.49 0 0 -60.95 30.46 0 0 -60.91 30.48 0 0 -91.42 30.47 0 0 -60.97 30.46 0 0 -60.95 30.49 0 0 -60.91 30.48 0 0 -30.5 30.45 0 0 -91.42 30.5 0 0 -30.5 30.47 0 0 -60.93 30.44 0 0 -30.47 30.5 0 0 -30.46 30.49 0 0 -60.97 30.45 0 0 -30.44 30.49 0 0 -30.5 60.92 0 0 91.42 30.5 0 0 121.92 30.48 0 0 91.42 30.44 0 0 213.29 30.51 0 0 121.9 30.47 0 0 639.94 -30.47 0 0 213.33 -30.51 0 0 182.85 -30.44 0 0 152.34 -30.48 0 0 182.85 -30.5 0 0 152.35 -30.45 0 0 91.4 -30.47 0 0 121.91 -30.49 0 0 91.43 -30.45 0 0 91.41 -30.49 0 0 91.43 -30.5 0 0 91.42 -30.44 0 0 91.42 -30.47 0 0 91.42 -30.5 0 0 121.9 -30.45 0 0 60.95 -30.48 0 0 91.42 -30.49 0 0 91.43 -30.46 0 0 60.94 -30.47 0 0 121.9 -30.48 0 0 91.42 -30.46 0 0 121.84 -30.49 0 0 91.44 -30.48 0 0 182.84 -30.43 0 0 426.66 30.43 0 0 91.42 30.48 0 0 60.94 30.49 0 0 30.48 30.46 0 0 60.93 60.95 0 0 30.5 30.46 0 0 30.44 91.42 0 0 30.47 213.34 0 0 -30.47 91.42 0 0 -30.44 60.92 0 0 -30.5 60.98 0 0 -30.49 30.44 0 0 -30.44 60.99 0 0 -30.48 30.44 0 0 -30.49 30.5 0 0 -30.45 30.47 0 0 -30.49 30.45 0 0 -30.49 60.98 0 0 -60.93 30.44 0 0 -30.49 30.48 0 0 -30.45 30.49 0 0 -30.48 30.46 0 0 -30.5 30.47 0 0 -30.44 30.5 0 0 -30.49 30.45 0 0 -30.47 30.48 0 0 -30.46 30.48 0 0 -30.48 30.46 0 0 -60.94 30.48 0 0 -30.48 30.5 0 0 -30.49 30.44 0 0 -30.46 30.48 0 0 -30.47 30.49 0 0 -60.94 30.45 0 0 -30.49 30.47 0 0 -30.48 30.49 0 0 -60.94 30.45 0 0 -30.5 30.49 0 0 -60.92 30.48 0 0 -30.49 30.45 0 0 -30.43 30.48 0 0 -60.98 30.5 0 0 -30.44 30.44 0 0 -30.5 30.49 0 0 -60.92 30.49 0 0 -30.48 30.44 0 0 -60.94 30.48 0 0 -60.96 30.49 0 0 -30.47 30.46 0 0 -60.96 30.48 0 0 -60.95 30.49 0 0 -30.46 30.44 0 0 -60.95 30.49 0 0 -60.95 30.48 0 0 -60.95 30.46 0 0 -60.95 30.48 0 0 -60.94 30.5 0 0 -60.96 30.44 0 0 -60.94 30.48 0 0 -60.95 30.48 0 0 -91.41 30.47 0 0 -60.97 30.48 0 0 -91.42 30.47 0 0 -60.95 30.46 0 0 -121.9 30.49 0 0 -60.92 30.48 0 0 -60.93 30.46 0 0 -91.42 30.48 0 0 -121.91 30.48 0 0 -91.43 30.46 0 0 -91.42 30.49 0 0 -121.86 30.47 0 0 -121.9 30.47 0 0 -121.92 30.48 0 0 -121.87 30.48 0 0 -182.85 30.44 0 0 -182.84 30.5 0 0 -213.3 30.48 0 0 -152.35 30.46 0 0 -335.25 30.48 0 0 -304.72 30.48 0 0 -548.51 30.43 0 0 -457.12 30.5 0 0 -396.16 30.46 0 0 -152.36 30.46 0 0 -213.32 30.49 0 0 -121.9 30.49 0 0 -91.43 30.44 0 0 -121.86 30.5 0 0 -60.97 30.47 0 0 -121.88 30.46 0 0 -60.96 30.48 0 0 -60.95 30.49 0 0 -91.42 30.45 0 0 -60.92 30.49 0 0 -60.98 30.47 0 0 -60.95 30.46 0 0 -91.41 30.49 0 0 -60.93 30.49 0 0 -60.97 30.44 0 0 -91.42 30.49 0 0 -60.93 30.48 0 0 -60.94 30.46 0 0 -91.43 30.48 0 0 -91.42 30.49 0 0 -91.43 30.45 0 0 -91.39 30.48 0 0 -91.42 30.48 0 0 -121.9 30.46 0 0 -182.85 30.48 0 0 -182.85 30.5 0 0 -426.63 -30.5 0 0 -182.84 -30.48 0 0 -182.83 -30.46 0 0 -121.91 -30.48 0 0 -91.41 -30.48 0 0 -60.94 -30.45 0 0 -91.41 -30.49 0 0 -60.98 -30.48 0 0 -60.93 -30.46 0 0 -60.94 -30.48 0 0 -30.5 -30.49 0 0 -60.93 -30.44 0 0 -60.97 -30.49 0 0 -30.43 -30.49 0 0 -30.5 -30.46 0 0 -60.95 -30.47 0 0 -30.46 -30.49 0 0 -30.46 -30.45 0 0 -30.48 -30.49 0 0 -30.5 -30.48 0 0 -60.92 -30.46 0 0 -30.48 -30.47 0 0 -30.47 -30.5 0 0 -30.47 -30.44 0 0 -30.49 -30.49 0 0 -30.46 -30.49 0 0 -30.48 -60.92 0 0 -30.47 -30.5 0 0 -30.47 -30.43 0 0 -30.48 -30.48 0 0 -30.49 -60.94 0 0 -30.45 -30.48 0 0 -30.48 -30.5 0 0 -30.48 -60.92 0 0 -30.47 -60.95 0 0 -30.47 -60.96 0 0 -30.49 -91.42 0 0 -30.46 -91.43 0 0 -30.48 -335.2 0 0 30.48 -182.85 0 0 30.46 -91.41 0 0 30.49 -60.93 0 0 30.47 -91.43 0 0 30.47 -60.97 0 0 30.48 -60.94 0 0 30.48 -60.92 0 0 30.45 -91.41 0 0 30.49 -60.98 0 0 30.48 -91.42 0 0 30.47 -152.37 0 0 30.47 -243.76 0 0 -30.47 -121.9 0 0 -30.47 -91.43 0 0 -30.48 -91.42 0 0 -30.49 -60.94 0 0 -30.45 -60.99 0 0 -30.48 -60.91 0 0 -30.48 -60.95 0 0 -30.47 -60.97 0 0 -30.47 -60.93 0 0 -30.49 -60.94 0 0 -30.46 -91.4 0 0 -30.48 -60.98 0 0 -30.47 -91.41 0 0 -30.45 -426.63 0 0 30.45zm639.94 487.59l30.49 0 0 30.48 30.45 0 0 60.94 30.48 0 0 30.48 30.49 0 0 60.94 30.45 0 0 30.48 30.48 0 0 60.94 30.49 0 0 60.93 30.45 0 0 30.49 30.48 0 0 60.93 30.49 0 0 30.49 30.45 0 0 60.93 30.48 0 0 30.49 30.49 0 0 30.45 -60.97 0 0 -30.45 -60.94 0 0 -30.49 -60.93 0 0 -30.48 -60.97 0 0 -30.45 -60.94 0 0 -30.49 -60.93 0 0 -30.48 -60.97 0 0 -30.45 -60.94 0 0 -30.49 -60.93 0 0 -30.45 -60.97 0 0 -30.48 -91.42 0 0 -30.49 -60.94 0 0 -30.45 -365.68 0 0 30.45 -60.94 0 0 30.49 -30.48 0 0 30.48 -60.94 0 0 30.45 -30.48 0 0 30.49 -30.49 0 0 30.45 -30.45 0 0 30.48 121.87 0 0 -30.48 60.97 0 0 -30.45 60.94 0 0 -30.49 304.75 0 0 30.49 91.42 0 0 30.45 60.93 0 0 30.48 60.94 0 0 30.49 60.97 0 0 30.45 91.42 0 0 30.48 60.93 0 0 30.49 30.49 0 0 30.45 91.42 0 0 30.48 60.93 0 0 30.49 60.94 0 0 30.45 60.97 0 0 30.48 60.93 0 0 30.49 91.42 0 0 30.45 60.94 0 0 30.48 91.42 0 0 30.49 213.33 0 0 -30.49 121.9 0 0 -30.48 91.42 0 0 -30.45 60.94 0 0 -30.49 60.93 0 0 -30.48 60.97 0 0 -30.45 91.42 0 0 -30.49 60.94 0 0 -30.48 60.93 0 0 -30.45 60.98 0 0 -30.49 60.93 0 0 -30.48 60.94 0 0 -30.45 91.42 0 0 -30.49 60.97 0 0 -30.48 91.42 0 0 -30.45 121.87 0 0 -30.49 182.84 0 0 30.49 121.9 0 0 30.45 60.94 0 0 30.48 60.97 0 0 30.49 30.45 0 0 30.45 60.97 0 0 30.48 30.45 0 0 30.49 30.49 0 0 30.45 30.48 0 0 30.48 30.45 0 0 30.49 60.97 0 0 30.45 30.45 0 0 30.48 30.49 0 0 30.49 30.48 0 0 30.45 30.45 0 0 30.48 30.49 0 0 30.49 30.48 0 0 30.45 60.94 0 0 30.48 30.48 0 0 30.49 30.45 0 0 30.45 91.42 0 0 -60.94 -30.45 0 0 -30.48 -30.48 0 0 -30.45 -30.49 0 0 -30.49 -30.45 0 0 -30.48 -30.48 0 0 -30.45 -30.49 0 0 -30.49 -30.45 0 0 -30.48 -30.48 0 0 -30.45 -30.49 0 0 -30.49 -30.45 0 0 -30.48 -30.48 0 0 -30.45 -30.49 0 0 -30.49 -30.45 0 0 -30.48 -30.48 0 0 -30.45 -30.49 0 0 -30.49 -30.45 0 0 -30.48 -60.97 0 0 -30.45 -60.94 0 0 -30.49 -30.48 0 0 -30.45 -60.94 0 0 -30.48 -60.93 0 0 -30.49 -91.42 0 0 -30.45 -274.26 0 0 30.45 -152.39 0 0 30.49 -91.42 0 0 30.48 -60.94 0 0 30.45 -91.42 0 0 30.49 -60.93 0 0 30.45 -60.98 0 0 30.48 -60.93 0 0 30.49 -60.94 0 0 30.45 -60.97 0 0 30.48 -60.93 0 0 30.49 -91.42 0 0 30.45 -60.94 0 0 30.48 -91.42 0 0 30.49 -91.42 0 0 30.45 -243.81 0 0 -30.45 -30.45 0 0 -30.49 -30.48 0 0 -30.48 -30.49 0 0 -30.45 -30.45 0 0 -60.97 -30.49 0 0 -30.45 -30.48 0 0 -30.49 -30.45 0 0 -60.93 -30.49 0 0 -30.49 -30.48 0 0 -60.93 -30.45 0 0 -30.49 -30.49 0 0 -60.93 -30.48 0 0 -30.49 -30.45 0 0 -60.93 -30.49 0 0 -30.49 -30.48 0 0 -60.93 -30.45 0 0 -30.49 -30.49 0 0 -30.45 -91.42 0 0 60.94z"/>
  <path class="fil3" d="M-5.68 9832.43l2357.52 -4737.21 -2183.35 -4408.29 1345.68 0 1020.13 2158.63c188.69,405.29 337.98,734.22 443.73,992.66 184.54,-367.11 348.34,-698.98 495.56,-995.61l1074.05 -2155.68 1337.38 0 -2195.8 4408.29 2338.87 4737.21 -1331.16 0 -1335.31 -2819.42 -304.79 -678.42 -1725.12 3497.84 -1337.39 0z"/>
 </g>
</svg>
