<?xml version="1.0" encoding="UTF-8"?>
<!DOCTYPE svg PUBLIC "-//W3C//DTD SVG 1.1//EN" "http://www.w3.org/Graphics/SVG/1.1/DTD/svg11.dtd">
<!-- Creator: CorelDRAW (Versión de evaluación) -->
<svg xmlns="http://www.w3.org/2000/svg" xml:space="preserve" width="739px" height="2458px" version="1.1" style="shape-rendering:geometricPrecision; text-rendering:geometricPrecision; image-rendering:optimizeQuality; fill-rule:evenodd; clip-rule:evenodd"
viewBox="0 0 739 2457.4"
 xmlns:xlink="http://www.w3.org/1999/xlink"
 xmlns:xodm="http://www.corel.com/coreldraw/odm/2003">
 <defs>
  <style type="text/css">
   <![CDATA[
    .str0 {stroke:#4B4B4D;stroke-width:10;stroke-miterlimit:22.9256}
    .fil0 {fill:#FEFEFE}
    .fil1 {fill:#EA212D}
   ]]>
  </style>
 </defs>
 <g id="tooth-extraction-25">
  <metadata id="CorelCorpID_0Corel-Layer"/>
  <path id="crown" class="fil0 str0" d="M631.04 1667.25c69.82,146.14 173.37,487.41 50.53,624.84 -28.42,31.8 -203.52,141.64 -245.49,158.42 -92.47,36.99 -454.48,-74.52 -435.78,-346.31 2.31,-33.66 58.82,-317.07 69.76,-334.59 12.37,-19.8 85.22,-34.18 126.55,-77.35 77.35,-80.81 158.51,-120.4 275.04,-61.61 87.65,44.2 65.95,24.35 159.39,36.6z"/>
  <path id="root" class="fil0 str0" d="M114.65 873.24c25.21,-11.92 15.26,-3.04 30.9,-44.68 7.23,-19.27 12.81,-35.25 20.94,-54.61 135.66,-323.34 112.71,-218.76 191.06,-578.18 13.43,-61.66 41.33,-192.66 104.44,-195.76 78.88,93.16 38.64,712.28 43.29,852.02 10.81,325.1 117.58,729.35 116.41,787.76 -96.09,-0.27 -69.73,3.42 -146.22,-36.34 -49.64,-25.81 -111.07,-34.65 -169.6,-18.26 -120.45,33.73 -67.8,86.01 -237.68,149.75 -11.8,-226.51 -2.64,-447.59 15.02,-669.2 5.11,-64.22 40.88,-131.94 31.44,-192.5z"/>
  <polygon id="xmark" class="fil1" points="75.61,1038.63 81.31,1038.63 81.31,1041.48 82.73,1041.48 82.73,1044.33 84.16,1044.33 84.16,1041.48 85.58,1041.48 85.58,1038.63 88.43,1038.63 88.43,1037.21 96.98,1037.21 96.98,1038.63 98.4,1038.63 98.4,1042.9 96.98,1042.9 96.98,1044.33 95.56,1044.33 95.56,1047.18 92.71,1047.18 92.71,1048.6 91.28,1048.6 91.28,1050.03 95.56,1050.03 95.56,1054.3 94.13,1054.3 94.13,1055.73 92.71,1055.73 92.71,1058.58 91.28,1058.58 91.28,1060 89.86,1060 89.86,1061.43 88.43,1061.43 88.43,1062.85 87.01,1062.85 87.01,1065.7 89.86,1065.7 89.86,1064.27 94.13,1064.27 94.13,1062.85 98.4,1062.85 98.4,1061.43 102.68,1061.43 102.68,1060 106.95,1060 106.95,1058.58 109.8,1058.58 109.8,1057.15 111.23,1057.15 111.23,1055.73 112.65,1055.73 112.65,1054.3 115.5,1054.3 115.5,1052.88 121.2,1052.88 121.2,1057.15 119.77,1057.15 119.77,1058.58 118.35,1058.58 118.35,1060 116.92,1060 116.92,1061.43 115.5,1061.43 115.5,1062.85 112.65,1062.85 112.65,1064.27 109.8,1064.27 109.8,1067.12 106.95,1067.12 106.95,1068.55 102.68,1068.55 102.68,1069.97 99.83,1069.97 99.83,1071.4 98.4,1071.4 98.4,1072.82 96.98,1072.82 96.98,1075.67 95.56,1075.67 95.56,1078.52 94.13,1078.52 94.13,1081.37 92.71,1081.37 92.71,1084.22 95.56,1084.22 95.56,1082.8 98.4,1082.8 98.4,1081.37 99.83,1081.37 99.83,1082.8 109.8,1082.8 109.8,1089.92 108.38,1089.92 108.38,1092.77 106.95,1092.77 106.95,1094.19 109.8,1094.19 109.8,1092.77 114.08,1092.77 114.08,1091.34 116.92,1091.34 116.92,1095.62 115.5,1095.62 115.5,1097.04 114.08,1097.04 114.08,1098.47 111.23,1098.47 111.23,1099.89 109.8,1099.89 109.8,1101.32 108.38,1101.32 108.38,1102.74 105.53,1102.74 105.53,1104.17 104.1,1104.17 104.1,1105.59 102.68,1105.59 102.68,1107.01 106.95,1107.01 106.95,1105.59 109.8,1105.59 109.8,1109.86 111.23,1109.86 111.23,1111.29 112.65,1111.29 112.65,1114.14 115.5,1114.14 115.5,1112.71 116.92,1112.71 116.92,1109.86 118.35,1109.86 118.35,1108.44 119.77,1108.44 119.77,1107.01 125.47,1107.01 125.47,1108.44 126.9,1108.44 126.9,1111.29 125.47,1111.29 125.47,1112.71 124.05,1112.71 124.05,1114.14 125.47,1114.14 125.47,1115.56 129.75,1115.56 129.75,1122.69 132.6,1122.69 132.6,1124.11 131.17,1124.11 131.17,1126.96 135.45,1126.96 135.45,1128.38 136.87,1128.38 136.87,1131.23 141.14,1131.23 141.14,1129.81 146.84,1129.81 146.84,1131.23 145.42,1131.23 145.42,1132.66 143.99,1132.66 143.99,1134.08 141.14,1134.08 141.14,1135.51 138.29,1135.51 138.29,1136.93 135.45,1136.93 135.45,1138.36 132.6,1138.36 132.6,1139.78 131.17,1139.78 131.17,1144.06 132.6,1144.06 132.6,1145.48 135.45,1145.48 135.45,1142.63 138.29,1142.63 138.29,1141.21 141.14,1141.21 141.14,1139.78 148.27,1139.78 148.27,1141.21 146.84,1141.21 146.84,1144.06 143.99,1144.06 143.99,1145.48 148.27,1145.48 148.27,1144.06 151.12,1144.06 151.12,1142.63 159.67,1142.63 159.67,1144.06 161.09,1144.06 161.09,1145.48 171.06,1145.48 171.06,1144.06 173.91,1144.06 173.91,1142.63 176.76,1142.63 176.76,1141.21 179.61,1141.21 179.61,1139.78 182.46,1139.78 182.46,1138.36 186.73,1138.36 186.73,1136.93 192.43,1136.93 192.43,1139.78 191.01,1139.78 191.01,1141.21 186.73,1141.21 186.73,1142.63 183.88,1142.63 183.88,1144.06 182.46,1144.06 182.46,1148.33 181.03,1148.33 181.03,1149.75 178.19,1149.75 178.19,1151.18 175.34,1151.18 175.34,1152.6 169.64,1152.6 169.64,1154.03 163.94,1154.03 163.94,1155.45 159.67,1155.45 159.67,1156.88 158.24,1156.88 158.24,1161.15 155.39,1161.15 155.39,1162.58 153.97,1162.58 153.97,1165.43 169.64,1165.43 169.64,1166.85 171.06,1166.85 171.06,1169.7 169.64,1169.7 169.64,1171.12 168.21,1171.12 168.21,1172.55 165.36,1172.55 165.36,1178.25 163.94,1178.25 163.94,1185.37 165.36,1185.37 165.36,1186.8 166.79,1186.8 166.79,1189.65 168.21,1189.65 168.21,1191.07 169.64,1191.07 169.64,1192.5 171.06,1192.5 171.06,1193.92 172.49,1193.92 172.49,1195.34 173.91,1195.34 173.91,1196.77 175.34,1196.77 175.34,1198.19 178.19,1198.19 178.19,1199.62 179.61,1199.62 179.61,1201.04 183.88,1201.04 183.88,1202.47 188.16,1202.47 188.16,1203.89 193.86,1203.89 193.86,1205.32 196.71,1205.32 196.71,1208.17 195.28,1208.17 195.28,1211.02 193.86,1211.02 193.86,1218.14 195.28,1218.14 195.28,1219.56 200.98,1219.56 200.98,1222.41 199.56,1222.41 199.56,1223.84 198.13,1223.84 198.13,1225.26 196.71,1225.26 196.71,1226.69 195.28,1226.69 195.28,1229.54 196.71,1229.54 196.71,1230.96 199.56,1230.96 199.56,1232.39 208.1,1232.39 208.1,1235.23 206.68,1235.23 206.68,1236.66 205.25,1236.66 205.25,1239.51 208.1,1239.51 208.1,1238.08 210.95,1238.08 210.95,1239.51 213.8,1239.51 213.8,1240.93 215.23,1240.93 215.23,1242.36 216.65,1242.36 216.65,1258.03 218.08,1258.03 218.08,1260.88 219.5,1260.88 219.5,1262.3 220.93,1262.3 220.93,1263.73 223.77,1263.73 223.77,1262.3 225.2,1262.3 225.2,1260.88 226.62,1260.88 226.62,1259.45 228.05,1259.45 228.05,1258.03 230.9,1258.03 230.9,1256.61 233.75,1256.61 233.75,1255.18 235.17,1255.18 235.17,1256.61 236.6,1256.61 236.6,1259.45 235.17,1259.45 235.17,1262.3 233.75,1262.3 233.75,1263.73 230.9,1263.73 230.9,1265.15 228.05,1265.15 228.05,1275.13 229.47,1275.13 229.47,1277.97 230.9,1277.97 230.9,1279.4 232.32,1279.4 232.32,1282.25 233.75,1282.25 233.75,1283.67 235.17,1283.67 235.17,1285.1 236.6,1285.1 236.6,1287.95 238.02,1287.95 238.02,1289.37 239.45,1289.37 239.45,1290.8 243.72,1290.8 243.72,1292.22 245.14,1292.22 245.14,1297.92 246.57,1297.92 246.57,1300.77 247.99,1300.77 247.99,1303.62 249.42,1303.62 249.42,1305.04 250.84,1305.04 250.84,1306.47 252.27,1306.47 252.27,1309.32 255.12,1309.32 255.12,1307.89 257.97,1307.89 257.97,1306.47 263.67,1306.47 263.67,1305.04 269.36,1305.04 269.36,1306.47 272.21,1306.47 272.21,1309.32 270.79,1309.32 270.79,1310.74 267.94,1310.74 267.94,1312.17 266.52,1312.17 266.52,1313.59 265.09,1313.59 265.09,1315.02 262.24,1315.02 262.24,1316.44 260.82,1316.44 260.82,1317.87 259.39,1317.87 259.39,1319.29 260.82,1319.29 260.82,1320.71 263.67,1320.71 263.67,1322.14 265.09,1322.14 265.09,1323.56 266.52,1323.56 266.52,1324.99 270.79,1324.99 270.79,1333.54 269.36,1333.54 269.36,1337.81 272.21,1337.81 272.21,1339.24 276.49,1339.24 276.49,1340.66 279.34,1340.66 279.34,1342.08 282.19,1342.08 282.19,1340.66 283.61,1340.66 283.61,1342.08 285.04,1342.08 285.04,1344.93 286.46,1344.93 286.46,1346.36 289.31,1346.36 289.31,1347.78 290.73,1347.78 290.73,1349.21 289.31,1349.21 289.31,1350.63 287.88,1350.63 287.88,1356.33 289.31,1356.33 289.31,1363.45 290.73,1363.45 290.73,1364.88 293.58,1364.88 293.58,1360.61 295.01,1360.61 295.01,1357.76 296.43,1357.76 296.43,1356.33 299.28,1356.33 299.28,1357.76 300.71,1357.76 300.71,1360.61 302.13,1360.61 302.13,1363.45 304.98,1363.45 304.98,1364.88 303.56,1364.88 303.56,1366.3 302.13,1366.3 302.13,1367.73 300.71,1367.73 300.71,1369.15 306.41,1369.15 306.41,1370.58 307.83,1370.58 307.83,1373.43 306.41,1373.43 306.41,1374.85 304.98,1374.85 304.98,1376.28 302.13,1376.28 302.13,1377.7 299.28,1377.7 299.28,1379.13 297.86,1379.13 297.86,1380.55 295.01,1380.55 295.01,1383.4 303.56,1383.4 303.56,1384.82 304.98,1384.82 304.98,1387.67 303.56,1387.67 303.56,1389.1 302.13,1389.1 302.13,1391.95 317.8,1391.95 317.8,1393.37 320.65,1393.37 320.65,1394.8 319.23,1394.8 319.23,1396.22 317.8,1396.22 317.8,1403.35 316.38,1403.35 316.38,1406.19 314.95,1406.19 314.95,1411.89 316.38,1411.89 316.38,1416.17 317.8,1416.17 317.8,1419.02 319.23,1419.02 319.23,1421.87 320.65,1421.87 320.65,1424.72 322.08,1424.72 322.08,1427.56 323.5,1427.56 323.5,1428.99 326.35,1428.99 326.35,1430.41 327.78,1430.41 327.78,1431.84 329.2,1431.84 329.2,1434.69 327.78,1434.69 327.78,1437.54 329.2,1437.54 329.2,1438.96 333.47,1438.96 333.47,1437.54 336.32,1437.54 336.32,1436.11 337.75,1436.11 337.75,1437.54 340.6,1437.54 340.6,1438.96 347.72,1438.96 347.72,1440.39 349.15,1440.39 349.15,1441.81 350.57,1441.81 350.57,1443.24 349.15,1443.24 349.15,1446.09 347.72,1446.09 347.72,1447.51 344.87,1447.51 344.87,1448.93 339.17,1448.93 339.17,1450.36 337.75,1450.36 337.75,1456.06 336.32,1456.06 336.32,1458.91 334.9,1458.91 334.9,1461.76 333.47,1461.76 333.47,1463.18 332.05,1463.18 332.05,1466.03 330.63,1466.03 330.63,1468.88 329.2,1468.88 329.2,1470.3 327.78,1470.3 327.78,1471.73 326.35,1471.73 326.35,1474.58 327.78,1474.58 327.78,1484.55 326.35,1484.55 326.35,1485.98 323.5,1485.98 323.5,1484.55 322.08,1484.55 322.08,1481.7 319.23,1481.7 319.23,1485.98 317.8,1485.98 317.8,1491.68 319.23,1491.68 319.23,1495.95 317.8,1495.95 317.8,1497.37 313.53,1497.37 313.53,1498.8 310.68,1498.8 310.68,1501.65 306.41,1501.65 306.41,1503.07 304.98,1503.07 304.98,1507.35 303.56,1507.35 303.56,1508.77 302.13,1508.77 302.13,1510.2 300.71,1510.2 300.71,1511.62 299.28,1511.62 299.28,1513.04 297.86,1513.04 297.86,1514.47 296.43,1514.47 296.43,1517.32 295.01,1517.32 295.01,1520.17 293.58,1520.17 293.58,1525.87 295.01,1525.87 295.01,1530.14 293.58,1530.14 293.58,1528.72 292.16,1528.72 292.16,1527.29 287.88,1527.29 287.88,1540.11 286.46,1540.11 286.46,1542.96 283.61,1542.96 283.61,1541.54 282.19,1541.54 282.19,1540.11 280.76,1540.11 280.76,1542.96 279.34,1542.96 279.34,1547.24 272.21,1547.24 272.21,1548.66 273.64,1548.66 273.64,1550.09 272.21,1550.09 272.21,1554.36 270.79,1554.36 270.79,1555.79 269.36,1555.79 269.36,1558.63 267.94,1558.63 267.94,1561.48 266.52,1561.48 266.52,1564.33 265.09,1564.33 265.09,1568.61 263.67,1568.61 263.67,1571.46 262.24,1571.46 262.24,1572.88 260.82,1572.88 260.82,1574.31 259.39,1574.31 259.39,1577.15 257.97,1577.15 257.97,1578.58 256.54,1578.58 256.54,1580 255.12,1580 255.12,1582.85 253.69,1582.85 253.69,1587.13 252.27,1587.13 252.27,1588.55 250.84,1588.55 250.84,1589.98 249.42,1589.98 249.42,1591.4 246.57,1591.4 246.57,1595.68 245.14,1595.68 245.14,1599.95 243.72,1599.95 243.72,1602.8 242.3,1602.8 242.3,1605.65 243.72,1605.65 243.72,1608.5 245.14,1608.5 245.14,1612.77 242.3,1612.77 242.3,1618.47 240.87,1618.47 240.87,1619.9 239.45,1619.9 239.45,1618.47 238.02,1618.47 238.02,1617.05 233.75,1617.05 233.75,1618.47 232.32,1618.47 232.32,1624.17 230.9,1624.17 230.9,1627.02 229.47,1627.02 229.47,1628.44 230.9,1628.44 230.9,1632.72 232.32,1632.72 232.32,1636.99 229.47,1636.99 229.47,1635.57 226.62,1635.57 226.62,1641.26 228.05,1641.26 228.05,1652.66 226.62,1652.66 226.62,1654.09 225.2,1654.09 225.2,1655.51 223.77,1655.51 223.77,1654.09 220.93,1654.09 220.93,1652.66 218.08,1652.66 218.08,1651.24 213.8,1651.24 213.8,1652.66 212.38,1652.66 212.38,1654.09 210.95,1654.09 210.95,1655.51 209.53,1655.51 209.53,1659.79 208.1,1659.79 208.1,1662.63 209.53,1662.63 209.53,1668.33 208.1,1668.33 208.1,1669.76 202.4,1669.76 202.4,1671.18 200.98,1671.18 200.98,1672.61 199.56,1672.61 199.56,1675.46 198.13,1675.46 198.13,1676.88 196.71,1676.88 196.71,1679.73 195.28,1679.73 195.28,1681.16 193.86,1681.16 193.86,1682.58 192.43,1682.58 192.43,1685.43 191.01,1685.43 191.01,1688.28 189.58,1688.28 189.58,1691.13 188.16,1691.13 188.16,1692.55 186.73,1692.55 186.73,1693.98 185.31,1693.98 185.31,1695.4 186.73,1695.4 186.73,1696.83 188.16,1696.83 188.16,1699.68 183.88,1699.68 183.88,1701.1 182.46,1701.1 182.46,1702.53 179.61,1702.53 179.61,1705.37 178.19,1705.37 178.19,1706.8 176.76,1706.8 176.76,1709.65 175.34,1709.65 175.34,1715.35 173.91,1715.35 173.91,1713.92 172.49,1713.92 172.49,1718.2 169.64,1718.2 169.64,1719.62 168.21,1719.62 168.21,1722.47 166.79,1722.47 166.79,1723.9 165.36,1723.9 165.36,1725.32 163.94,1725.32 163.94,1726.74 161.09,1726.74 161.09,1728.17 159.67,1728.17 159.67,1729.59 158.24,1729.59 158.24,1731.02 156.82,1731.02 156.82,1732.44 155.39,1732.44 155.39,1733.87 153.97,1733.87 153.97,1736.72 152.54,1736.72 152.54,1738.14 151.12,1738.14 151.12,1740.99 149.69,1740.99 149.69,1742.42 148.27,1742.42 148.27,1745.27 146.84,1745.27 146.84,1746.69 145.42,1746.69 145.42,1749.54 143.99,1749.54 143.99,1750.96 142.57,1750.96 142.57,1753.81 141.14,1753.81 141.14,1755.24 139.72,1755.24 139.72,1758.09 138.29,1758.09 138.29,1760.94 136.87,1760.94 136.87,1762.36 135.45,1762.36 135.45,1765.21 134.02,1765.21 134.02,1768.06 132.6,1768.06 132.6,1770.91 125.47,1770.91 125.47,1772.33 124.05,1772.33 124.05,1773.76 122.62,1773.76 122.62,1775.18 121.2,1775.18 121.2,1779.46 118.35,1779.46 118.35,1780.88 115.5,1780.88 115.5,1783.73 114.08,1783.73 114.08,1782.31 112.65,1782.31 112.65,1786.58 109.8,1786.58 109.8,1789.43 108.38,1789.43 108.38,1792.28 106.95,1792.28 106.95,1797.98 104.1,1797.98 104.1,1802.25 102.68,1802.25 102.68,1805.1 99.83,1805.1 99.83,1807.95 98.4,1807.95 98.4,1809.38 96.98,1809.38 96.98,1812.23 95.56,1812.23 95.56,1815.07 94.13,1815.07 94.13,1816.5 92.71,1816.5 92.71,1819.35 91.28,1819.35 91.28,1822.2 89.86,1822.2 89.86,1823.62 88.43,1823.62 88.43,1826.47 87.01,1826.47 87.01,1829.32 85.58,1829.32 85.58,1832.17 84.16,1832.17 84.16,1836.44 82.73,1836.44 82.73,1840.72 79.88,1840.72 79.88,1843.57 78.46,1843.57 78.46,1844.99 77.03,1844.99 77.03,1846.42 75.61,1846.42 75.61,1847.84 74.18,1847.84 74.18,1850.69 72.76,1850.69 72.76,1852.12 71.34,1852.12 71.34,1856.39 72.76,1856.39 72.76,1859.24 74.18,1859.24 74.18,1862.09 68.49,1862.09 68.49,1869.21 67.06,1869.21 67.06,1867.79 65.64,1867.79 65.64,1877.76 61.36,1877.76 61.36,1879.18 59.94,1879.18 59.94,1880.61 58.51,1880.61 58.51,1882.03 55.66,1882.03 55.66,1883.46 54.24,1883.46 54.24,1884.88 52.81,1884.88 52.81,1886.31 51.39,1886.31 51.39,1887.73 49.97,1887.73 49.97,1889.16 48.54,1889.16 48.54,1890.58 47.12,1890.58 47.12,1892.01 45.69,1892.01 45.69,1893.43 44.27,1893.43 44.27,1896.28 42.84,1896.28 42.84,1897.7 41.42,1897.7 41.42,1899.13 39.99,1899.13 39.99,1901.98 38.57,1901.98 38.57,1904.83 37.14,1904.83 37.14,1907.68 35.72,1907.68 35.72,1910.53 34.29,1910.53 34.29,1921.92 32.87,1921.92 32.87,1923.35 30.02,1923.35 30.02,1924.77 28.6,1924.77 28.6,1926.2 27.17,1926.2 27.17,1930.47 25.75,1930.47 25.75,1933.32 24.32,1933.32 24.32,1936.17 22.9,1936.17 22.9,1937.6 21.47,1937.6 21.47,1940.44 20.05,1940.44 20.05,1943.29 18.62,1943.29 18.62,1946.14 17.2,1946.14 17.2,1948.99 15.77,1948.99 15.77,1951.84 14.35,1951.84 14.35,1954.69 12.92,1954.69 12.92,1967.51 14.35,1967.51 14.35,1973.21 15.77,1973.21 15.77,1977.49 17.2,1977.49 17.2,1980.34 20.05,1980.34 20.05,1977.49 21.47,1977.49 21.47,1976.06 22.9,1976.06 22.9,1973.21 24.32,1973.21 24.32,1970.36 25.75,1970.36 25.75,1967.51 27.17,1967.51 27.17,1964.66 28.6,1964.66 28.6,1963.24 30.02,1963.24 30.02,1960.39 31.45,1960.39 31.45,1958.97 32.87,1958.97 32.87,1956.12 34.29,1956.12 34.29,1954.69 35.72,1954.69 35.72,1951.84 37.14,1951.84 37.14,1950.42 38.57,1950.42 38.57,1948.99 39.99,1948.99 39.99,1946.14 41.42,1946.14 41.42,1944.72 42.84,1944.72 42.84,1943.29 44.27,1943.29 44.27,1941.87 45.69,1941.87 45.69,1940.44 47.12,1940.44 47.12,1939.02 48.54,1939.02 48.54,1937.6 49.97,1937.6 49.97,1936.17 51.39,1936.17 51.39,1933.32 52.81,1933.32 52.81,1931.9 54.24,1931.9 54.24,1930.47 55.66,1930.47 55.66,1929.05 57.09,1929.05 57.09,1926.2 58.51,1926.2 58.51,1924.77 59.94,1924.77 59.94,1921.92 61.36,1921.92 61.36,1920.5 62.79,1920.5 62.79,1917.65 64.21,1917.65 64.21,1914.8 65.64,1914.8 65.64,1911.95 67.06,1911.95 67.06,1910.53 68.49,1910.53 68.49,1907.68 69.91,1907.68 69.91,1904.83 71.34,1904.83 71.34,1903.4 72.76,1903.4 72.76,1900.55 74.18,1900.55 74.18,1899.13 75.61,1899.13 75.61,1896.28 77.03,1896.28 77.03,1894.86 78.46,1894.86 78.46,1892.01 79.88,1892.01 79.88,1890.58 81.31,1890.58 81.31,1887.73 82.73,1887.73 82.73,1886.31 84.16,1886.31 84.16,1884.88 85.58,1884.88 85.58,1883.46 87.01,1883.46 87.01,1880.61 88.43,1880.61 88.43,1879.18 89.86,1879.18 89.86,1877.76 91.28,1877.76 91.28,1874.91 92.71,1874.91 92.71,1873.49 94.13,1873.49 94.13,1872.06 95.56,1872.06 95.56,1870.64 96.98,1870.64 96.98,1867.79 98.4,1867.79 98.4,1866.36 99.83,1866.36 99.83,1864.94 101.25,1864.94 101.25,1863.51 102.68,1863.51 102.68,1862.09 104.1,1862.09 104.1,1860.66 105.53,1860.66 105.53,1857.81 106.95,1857.81 106.95,1856.39 108.38,1856.39 108.38,1854.97 109.8,1854.97 109.8,1853.54 111.23,1853.54 111.23,1852.12 112.65,1852.12 112.65,1850.69 114.08,1850.69 114.08,1847.84 115.5,1847.84 115.5,1846.42 116.92,1846.42 116.92,1844.99 118.35,1844.99 118.35,1842.14 119.77,1842.14 119.77,1840.72 121.2,1840.72 121.2,1839.29 122.62,1839.29 122.62,1836.44 124.05,1836.44 124.05,1833.59 125.47,1833.59 125.47,1830.75 126.9,1830.75 126.9,1820.77 131.17,1820.77 131.17,1819.35 132.6,1819.35 132.6,1816.5 134.02,1816.5 134.02,1815.07 135.45,1815.07 135.45,1813.65 136.87,1813.65 136.87,1812.23 138.29,1812.23 138.29,1809.38 139.72,1809.38 139.72,1807.95 141.14,1807.95 141.14,1805.1 142.57,1805.1 142.57,1803.68 143.99,1803.68 143.99,1802.25 145.42,1802.25 145.42,1799.4 146.84,1799.4 146.84,1797.98 148.27,1797.98 148.27,1795.13 149.69,1795.13 149.69,1793.7 151.12,1793.7 151.12,1789.43 152.54,1789.43 152.54,1786.58 153.97,1786.58 153.97,1783.73 155.39,1783.73 155.39,1780.88 156.82,1780.88 156.82,1778.03 159.67,1778.03 159.67,1776.61 163.94,1776.61 163.94,1775.18 166.79,1775.18 166.79,1773.76 168.21,1773.76 168.21,1772.33 169.64,1772.33 169.64,1769.48 171.06,1769.48 171.06,1768.06 172.49,1768.06 172.49,1766.64 173.91,1766.64 173.91,1765.21 175.34,1765.21 175.34,1763.79 176.76,1763.79 176.76,1762.36 178.19,1762.36 178.19,1760.94 179.61,1760.94 179.61,1758.09 181.03,1758.09 181.03,1756.66 182.46,1756.66 182.46,1755.24 183.88,1755.24 183.88,1753.81 185.31,1753.81 185.31,1750.96 186.73,1750.96 186.73,1749.54 188.16,1749.54 188.16,1748.12 189.58,1748.12 189.58,1746.69 191.01,1746.69 191.01,1745.27 192.43,1745.27 192.43,1742.42 193.86,1742.42 193.86,1740.99 195.28,1740.99 195.28,1738.14 196.71,1738.14 196.71,1736.72 198.13,1736.72 198.13,1733.87 199.56,1733.87 199.56,1732.44 200.98,1732.44 200.98,1731.02 202.4,1731.02 202.4,1728.17 203.83,1728.17 203.83,1726.74 205.25,1726.74 205.25,1723.9 206.68,1723.9 206.68,1722.47 208.1,1722.47 208.1,1721.05 209.53,1721.05 209.53,1718.2 210.95,1718.2 210.95,1716.77 212.38,1716.77 212.38,1715.35 213.8,1715.35 213.8,1713.92 215.23,1713.92 215.23,1711.07 216.65,1711.07 216.65,1709.65 218.08,1709.65 218.08,1708.22 219.5,1708.22 219.5,1705.37 220.93,1705.37 220.93,1703.95 222.35,1703.95 222.35,1702.53 223.77,1702.53 223.77,1699.68 225.2,1699.68 225.2,1698.25 226.62,1698.25 226.62,1695.4 228.05,1695.4 228.05,1693.98 229.47,1693.98 229.47,1691.13 230.9,1691.13 230.9,1689.7 232.32,1689.7 232.32,1688.28 233.75,1688.28 233.75,1685.43 235.17,1685.43 235.17,1684.01 236.6,1684.01 236.6,1681.16 238.02,1681.16 238.02,1679.73 239.45,1679.73 239.45,1676.88 240.87,1676.88 240.87,1675.46 242.3,1675.46 242.3,1672.61 243.72,1672.61 243.72,1671.18 245.14,1671.18 245.14,1668.33 246.57,1668.33 246.57,1665.48 247.99,1665.48 247.99,1664.06 249.42,1664.06 249.42,1661.21 250.84,1661.21 250.84,1659.79 252.27,1659.79 252.27,1656.94 253.69,1656.94 253.69,1655.51 255.12,1655.51 255.12,1652.66 256.54,1652.66 256.54,1649.81 257.97,1649.81 257.97,1648.39 259.39,1648.39 259.39,1645.54 260.82,1645.54 260.82,1644.11 262.24,1644.11 262.24,1641.26 263.67,1641.26 263.67,1638.42 265.09,1638.42 265.09,1636.99 266.52,1636.99 266.52,1634.14 267.94,1634.14 267.94,1631.29 269.36,1631.29 269.36,1629.87 270.79,1629.87 270.79,1627.02 272.21,1627.02 272.21,1624.17 273.64,1624.17 273.64,1622.74 275.06,1622.74 275.06,1619.9 276.49,1619.9 276.49,1617.05 277.91,1617.05 277.91,1614.2 279.34,1614.2 279.34,1611.35 280.76,1611.35 280.76,1608.5 282.19,1608.5 282.19,1599.95 283.61,1599.95 283.61,1594.25 285.04,1594.25 285.04,1589.98 286.46,1589.98 286.46,1588.55 287.88,1588.55 287.88,1585.7 289.31,1585.7 289.31,1584.28 290.73,1584.28 290.73,1582.85 293.58,1582.85 293.58,1581.43 295.01,1581.43 295.01,1580 296.43,1580 296.43,1577.15 295.01,1577.15 295.01,1574.31 299.28,1574.31 299.28,1572.88 300.71,1572.88 300.71,1567.18 303.56,1567.18 303.56,1568.61 307.83,1568.61 307.83,1567.18 310.68,1567.18 310.68,1565.76 312.1,1565.76 312.1,1564.33 313.53,1564.33 313.53,1562.91 314.95,1562.91 314.95,1560.06 316.38,1560.06 316.38,1557.21 317.8,1557.21 317.8,1554.36 319.23,1554.36 319.23,1551.51 320.65,1551.51 320.65,1548.66 322.08,1548.66 322.08,1547.24 323.5,1547.24 323.5,1544.39 324.93,1544.39 324.93,1541.54 326.35,1541.54 326.35,1538.69 327.78,1538.69 327.78,1537.26 329.2,1537.26 329.2,1534.41 330.63,1534.41 330.63,1532.99 332.05,1532.99 332.05,1530.14 333.47,1530.14 333.47,1528.72 334.9,1528.72 334.9,1525.87 336.32,1525.87 336.32,1520.17 339.17,1520.17 339.17,1521.59 340.6,1521.59 340.6,1520.17 342.02,1520.17 342.02,1518.74 343.45,1518.74 343.45,1517.32 344.87,1517.32 344.87,1514.47 346.3,1514.47 346.3,1513.04 347.72,1513.04 347.72,1510.2 349.15,1510.2 349.15,1508.77 351.99,1508.77 351.99,1505.92 353.42,1505.92 353.42,1503.07 354.84,1503.07 354.84,1501.65 356.27,1501.65 356.27,1500.22 359.12,1500.22 359.12,1501.65 363.39,1501.65 363.39,1503.07 364.82,1503.07 364.82,1505.92 379.06,1505.92 379.06,1507.35 376.21,1507.35 376.21,1508.77 374.79,1508.77 374.79,1510.2 371.94,1510.2 371.94,1513.04 370.52,1513.04 370.52,1515.89 371.94,1515.89 371.94,1518.74 376.21,1518.74 376.21,1520.17 383.34,1520.17 383.34,1521.59 387.61,1521.59 387.61,1523.02 389.04,1523.02 389.04,1524.44 387.61,1524.44 387.61,1525.87 384.76,1525.87 384.76,1527.29 381.91,1527.29 381.91,1528.72 380.49,1528.72 380.49,1531.57 381.91,1531.57 381.91,1532.99 384.76,1532.99 384.76,1535.84 386.19,1535.84 386.19,1540.11 384.76,1540.11 384.76,1541.54 381.91,1541.54 381.91,1542.96 380.49,1542.96 380.49,1544.39 381.91,1544.39 381.91,1545.81 390.46,1545.81 390.46,1547.24 391.89,1547.24 391.89,1551.51 393.31,1551.51 393.31,1554.36 394.74,1554.36 394.74,1555.79 396.16,1555.79 396.16,1558.63 397.58,1558.63 397.58,1560.06 399.01,1560.06 399.01,1561.48 400.43,1561.48 400.43,1562.91 401.86,1562.91 401.86,1564.33 403.28,1564.33 403.28,1565.76 404.71,1565.76 404.71,1567.18 407.56,1567.18 407.56,1568.61 408.98,1568.61 408.98,1570.03 410.41,1570.03 410.41,1574.31 408.98,1574.31 408.98,1575.73 407.56,1575.73 407.56,1578.58 411.83,1578.58 411.83,1581.43 413.26,1581.43 413.26,1582.85 414.68,1582.85 414.68,1585.7 417.53,1585.7 417.53,1587.13 418.95,1587.13 418.95,1588.55 420.38,1588.55 420.38,1589.98 421.8,1589.98 421.8,1592.83 423.23,1592.83 423.23,1595.68 418.95,1595.68 418.95,1598.52 420.38,1598.52 420.38,1599.95 421.8,1599.95 421.8,1601.37 424.65,1601.37 424.65,1602.8 428.93,1602.8 428.93,1604.22 431.78,1604.22 431.78,1605.65 433.2,1605.65 433.2,1607.07 431.78,1607.07 431.78,1611.35 434.63,1611.35 434.63,1612.77 438.9,1612.77 438.9,1614.2 440.32,1614.2 440.32,1611.35 443.17,1611.35 443.17,1609.92 447.45,1609.92 447.45,1611.35 448.87,1611.35 448.87,1614.2 450.3,1614.2 450.3,1615.62 451.72,1615.62 451.72,1617.05 453.15,1617.05 453.15,1618.47 456,1618.47 456,1621.32 450.3,1621.32 450.3,1622.74 448.87,1622.74 448.87,1624.17 447.45,1624.17 447.45,1625.59 446.02,1625.59 446.02,1631.29 447.45,1631.29 447.45,1632.72 448.87,1632.72 448.87,1634.14 450.3,1634.14 450.3,1635.57 451.72,1635.57 451.72,1634.14 456,1634.14 456,1635.57 454.57,1635.57 454.57,1636.99 456,1636.99 456,1638.42 470.24,1638.42 470.24,1641.26 468.82,1641.26 468.82,1642.69 467.39,1642.69 467.39,1644.11 465.97,1644.11 465.97,1645.54 467.39,1645.54 467.39,1646.96 475.94,1646.96 475.94,1648.39 485.91,1648.39 485.91,1649.81 488.76,1649.81 488.76,1651.24 490.19,1651.24 490.19,1652.66 491.61,1652.66 491.61,1654.09 493.04,1654.09 493.04,1656.94 491.61,1656.94 491.61,1658.36 488.76,1658.36 488.76,1659.79 487.34,1659.79 487.34,1661.21 484.49,1661.21 484.49,1662.63 483.06,1662.63 483.06,1664.06 480.21,1664.06 480.21,1665.48 478.79,1665.48 478.79,1666.91 477.37,1666.91 477.37,1668.33 475.94,1668.33 475.94,1676.88 477.37,1676.88 477.37,1679.73 478.79,1679.73 478.79,1681.16 480.21,1681.16 480.21,1682.58 493.04,1682.58 493.04,1684.01 497.31,1684.01 497.31,1686.85 495.89,1686.85 495.89,1688.28 494.46,1688.28 494.46,1689.7 493.04,1689.7 493.04,1691.13 491.61,1691.13 491.61,1692.55 490.19,1692.55 490.19,1693.98 491.61,1693.98 491.61,1696.83 493.04,1696.83 493.04,1698.25 494.46,1698.25 494.46,1701.1 495.89,1701.1 495.89,1703.95 497.31,1703.95 497.31,1705.37 498.74,1705.37 498.74,1712.5 500.16,1712.5 500.16,1713.92 501.58,1713.92 501.58,1715.35 503.01,1715.35 503.01,1716.77 504.43,1716.77 504.43,1718.2 507.28,1718.2 507.28,1719.62 508.71,1719.62 508.71,1721.05 510.13,1721.05 510.13,1722.47 511.56,1722.47 511.56,1723.9 512.98,1723.9 512.98,1725.32 515.83,1725.32 515.83,1726.74 520.11,1726.74 520.11,1729.59 518.68,1729.59 518.68,1731.02 517.26,1731.02 517.26,1732.44 518.68,1732.44 518.68,1738.14 520.11,1738.14 520.11,1742.42 521.53,1742.42 521.53,1743.84 522.96,1743.84 522.96,1746.69 525.8,1746.69 525.8,1748.12 527.23,1748.12 527.23,1749.54 530.08,1749.54 530.08,1750.96 528.65,1750.96 528.65,1752.39 524.38,1752.39 524.38,1753.81 525.8,1753.81 525.8,1755.24 531.5,1755.24 531.5,1760.94 532.93,1760.94 532.93,1763.79 534.35,1763.79 534.35,1765.21 535.78,1765.21 535.78,1766.64 537.2,1766.64 537.2,1768.06 538.63,1768.06 538.63,1769.48 537.2,1769.48 537.2,1772.33 535.78,1772.33 535.78,1773.76 534.35,1773.76 534.35,1775.18 532.93,1775.18 532.93,1778.03 534.35,1778.03 534.35,1780.88 535.78,1780.88 535.78,1783.73 537.2,1783.73 537.2,1786.58 538.63,1786.58 538.63,1788.01 540.05,1788.01 540.05,1789.43 541.48,1789.43 541.48,1792.28 542.9,1792.28 542.9,1795.13 544.32,1795.13 544.32,1797.98 545.75,1797.98 545.75,1800.83 547.17,1800.83 547.17,1803.68 548.6,1803.68 548.6,1805.1 550.02,1805.1 550.02,1807.95 551.45,1807.95 551.45,1810.8 552.87,1810.8 552.87,1812.23 554.3,1812.23 554.3,1815.07 555.72,1815.07 555.72,1816.5 557.15,1816.5 557.15,1817.92 558.57,1817.92 558.57,1820.77 560,1820.77 560,1822.2 561.42,1822.2 561.42,1823.62 562.85,1823.62 562.85,1825.05 564.27,1825.05 564.27,1827.9 565.7,1827.9 565.7,1829.32 567.12,1829.32 567.12,1830.75 568.54,1830.75 568.54,1832.17 569.97,1832.17 569.97,1835.02 568.54,1835.02 568.54,1836.44 564.27,1836.44 564.27,1842.14 565.7,1842.14 565.7,1844.99 567.12,1844.99 567.12,1850.69 571.39,1850.69 571.39,1859.24 572.82,1859.24 572.82,1864.94 574.24,1864.94 574.24,1867.79 575.67,1867.79 575.67,1870.64 577.09,1870.64 577.09,1873.49 578.52,1873.49 578.52,1874.91 581.37,1874.91 581.37,1876.34 584.22,1876.34 584.22,1877.76 585.64,1877.76 585.64,1880.61 587.06,1880.61 587.06,1882.03 588.49,1882.03 588.49,1883.46 591.34,1883.46 591.34,1884.88 594.19,1884.88 594.19,1886.31 598.46,1886.31 598.46,1887.73 595.61,1887.73 595.61,1889.16 592.76,1889.16 592.76,1892.01 594.19,1892.01 594.19,1894.86 595.61,1894.86 595.61,1896.28 597.04,1896.28 597.04,1899.13 598.46,1899.13 598.46,1900.55 599.89,1900.55 599.89,1903.4 601.31,1903.4 601.31,1904.83 602.74,1904.83 602.74,1907.68 604.16,1907.68 604.16,1909.1 605.59,1909.1 605.59,1910.53 607.01,1910.53 607.01,1913.38 608.43,1913.38 608.43,1914.8 609.86,1914.8 609.86,1916.23 611.28,1916.23 611.28,1917.65 612.71,1917.65 612.71,1919.08 614.13,1919.08 614.13,1920.5 615.56,1920.5 615.56,1921.92 616.98,1921.92 616.98,1923.35 618.41,1923.35 618.41,1924.77 619.83,1924.77 619.83,1926.2 621.26,1926.2 621.26,1927.62 622.68,1927.62 622.68,1929.05 624.11,1929.05 624.11,1930.47 625.53,1930.47 625.53,1934.75 626.96,1934.75 626.96,1939.02 628.38,1939.02 628.38,1946.14 629.81,1946.14 629.81,1948.99 632.65,1948.99 632.65,1950.42 648.33,1950.42 648.33,1951.84 646.9,1951.84 646.9,1953.27 645.48,1953.27 645.48,1954.69 644.05,1954.69 644.05,1956.12 642.63,1956.12 642.63,1958.97 644.05,1958.97 644.05,1960.39 645.48,1960.39 645.48,1961.81 648.33,1961.81 648.33,1963.24 649.75,1963.24 649.75,1966.09 648.33,1966.09 648.33,1968.94 651.17,1968.94 651.17,1970.36 655.45,1970.36 655.45,1971.79 656.87,1971.79 656.87,1973.21 658.3,1973.21 658.3,1976.06 656.87,1976.06 656.87,1977.49 655.45,1977.49 655.45,1983.19 654.02,1983.19 654.02,2001.71 655.45,2001.71 655.45,2010.25 656.87,2010.25 656.87,2014.53 658.3,2014.53 658.3,2017.38 659.72,2017.38 659.72,2020.23 661.15,2020.23 661.15,2023.08 662.57,2023.08 662.57,2024.5 664,2024.5 664,2027.35 665.42,2027.35 665.42,2028.77 666.85,2028.77 666.85,2030.2 668.27,2030.2 668.27,2031.62 669.7,2031.62 669.7,2033.05 671.12,2033.05 671.12,2034.47 673.97,2034.47 673.97,2035.9 675.39,2035.9 675.39,2037.32 678.24,2037.32 678.24,2038.75 681.09,2038.75 681.09,2041.6 679.67,2041.6 679.67,2043.02 678.24,2043.02 678.24,2044.45 676.82,2044.45 676.82,2045.87 675.39,2045.87 675.39,2048.72 676.82,2048.72 676.82,2050.14 678.24,2050.14 678.24,2051.57 679.67,2051.57 679.67,2052.99 681.09,2052.99 681.09,2054.42 682.52,2054.42 682.52,2055.84 683.94,2055.84 683.94,2058.69 685.37,2058.69 685.37,2061.54 686.79,2061.54 686.79,2064.39 688.22,2064.39 688.22,2067.24 689.64,2067.24 689.64,2070.09 691.07,2070.09 691.07,2074.36 692.49,2074.36 692.49,2077.21 693.92,2077.21 693.92,2080.06 695.34,2080.06 695.34,2082.91 696.76,2082.91 696.76,2084.34 698.19,2084.34 698.19,2085.76 699.61,2085.76 699.61,2087.19 701.04,2087.19 701.04,2088.61 703.89,2088.61 703.89,2090.04 706.74,2090.04 706.74,2091.46 711.01,2091.46 711.01,2092.88 713.86,2092.88 713.86,2094.31 718.13,2094.31 718.13,2095.73 720.98,2095.73 720.98,2097.16 736.65,2097.16 736.65,2095.73 743.78,2095.73 743.78,2094.31 748.05,2094.31 748.05,2091.46 746.63,2091.46 746.63,2090.04 745.2,2090.04 745.2,2088.61 743.78,2088.61 743.78,2087.19 742.35,2087.19 742.35,2084.34 740.93,2084.34 740.93,2082.91 739.5,2082.91 739.5,2080.06 738.08,2080.06 738.08,2078.64 736.65,2078.64 736.65,2075.79 735.23,2075.79 735.23,2072.94 733.81,2072.94 733.81,2070.09 732.38,2070.09 732.38,2067.24 730.96,2067.24 730.96,2064.39 729.53,2064.39 729.53,2060.12 728.11,2060.12 728.11,2054.42 726.68,2054.42 726.68,2050.14 725.26,2050.14 725.26,2043.02 723.83,2043.02 723.83,2034.47 722.41,2034.47 722.41,2021.65 720.98,2021.65 720.98,2005.98 719.56,2005.98 719.56,2003.13 718.13,2003.13 718.13,2001.71 716.71,2001.71 716.71,1998.86 715.28,1998.86 715.28,1997.43 713.86,1997.43 713.86,1996.01 712.44,1996.01 712.44,1993.16 711.01,1993.16 711.01,1991.73 709.59,1991.73 709.59,1988.88 708.16,1988.88 708.16,1987.46 706.74,1987.46 706.74,1984.61 705.31,1984.61 705.31,1980.34 703.89,1980.34 703.89,1974.64 702.46,1974.64 702.46,1971.79 701.04,1971.79 701.04,1968.94 699.61,1968.94 699.61,1966.09 698.19,1966.09 698.19,1963.24 696.76,1963.24 696.76,1960.39 695.34,1960.39 695.34,1956.12 693.92,1956.12 693.92,1953.27 692.49,1953.27 692.49,1948.99 691.07,1948.99 691.07,1944.72 689.64,1944.72 689.64,1940.44 688.22,1940.44 688.22,1936.17 686.79,1936.17 686.79,1931.9 685.37,1931.9 685.37,1926.2 683.94,1926.2 683.94,1921.92 682.52,1921.92 682.52,1917.65 681.09,1917.65 681.09,1911.95 679.67,1911.95 679.67,1907.68 678.24,1907.68 678.24,1903.4 676.82,1903.4 676.82,1899.13 675.39,1899.13 675.39,1894.86 673.97,1894.86 673.97,1892.01 672.54,1892.01 672.54,1887.73 671.12,1887.73 671.12,1884.88 669.7,1884.88 669.7,1882.03 668.27,1882.03 668.27,1879.18 666.85,1879.18 666.85,1876.34 665.42,1876.34 665.42,1873.49 664,1873.49 664,1870.64 662.57,1870.64 662.57,1867.79 661.15,1867.79 661.15,1866.36 659.72,1866.36 659.72,1863.51 658.3,1863.51 658.3,1862.09 656.87,1862.09 656.87,1860.66 655.45,1860.66 655.45,1859.24 654.02,1859.24 654.02,1860.66 652.6,1860.66 652.6,1862.09 646.9,1862.09 646.9,1859.24 641.2,1859.24 641.2,1857.81 645.48,1857.81 645.48,1856.39 646.9,1856.39 646.9,1857.81 648.33,1857.81 648.33,1853.54 646.9,1853.54 646.9,1850.69 645.48,1850.69 645.48,1849.27 644.05,1849.27 644.05,1846.42 642.63,1846.42 642.63,1843.57 641.2,1843.57 641.2,1840.72 639.78,1840.72 639.78,1839.29 638.35,1839.29 638.35,1836.44 636.93,1836.44 636.93,1833.59 635.5,1833.59 635.5,1830.75 634.08,1830.75 634.08,1827.9 632.65,1827.9 632.65,1826.47 631.23,1826.47 631.23,1822.2 629.81,1822.2 629.81,1819.35 628.38,1819.35 628.38,1816.5 626.96,1816.5 626.96,1813.65 625.53,1813.65 625.53,1815.07 622.68,1815.07 622.68,1813.65 621.26,1813.65 621.26,1812.23 619.83,1812.23 619.83,1810.8 618.41,1810.8 618.41,1809.38 616.98,1809.38 616.98,1807.95 615.56,1807.95 615.56,1806.53 614.13,1806.53 614.13,1805.1 612.71,1805.1 612.71,1803.68 611.28,1803.68 611.28,1802.25 609.86,1802.25 609.86,1795.13 611.28,1795.13 611.28,1790.86 612.71,1790.86 612.71,1788.01 614.13,1788.01 614.13,1785.16 612.71,1785.16 612.71,1780.88 611.28,1780.88 611.28,1776.61 609.86,1776.61 609.86,1772.33 608.43,1772.33 608.43,1768.06 607.01,1768.06 607.01,1765.21 605.59,1765.21 605.59,1760.94 604.16,1760.94 604.16,1759.51 602.74,1759.51 602.74,1756.66 601.31,1756.66 601.31,1753.81 599.89,1753.81 599.89,1750.96 598.46,1750.96 598.46,1748.12 597.04,1748.12 597.04,1745.27 595.61,1745.27 595.61,1742.42 594.19,1742.42 594.19,1739.57 592.76,1739.57 592.76,1736.72 591.34,1736.72 591.34,1733.87 589.91,1733.87 589.91,1731.02 588.49,1731.02 588.49,1728.17 587.06,1728.17 587.06,1725.32 585.64,1725.32 585.64,1722.47 584.22,1722.47 584.22,1719.62 582.79,1719.62 582.79,1716.77 581.37,1716.77 581.37,1713.92 579.94,1713.92 579.94,1711.07 578.52,1711.07 578.52,1708.22 577.09,1708.22 577.09,1705.37 575.67,1705.37 575.67,1702.53 574.24,1702.53 574.24,1699.68 572.82,1699.68 572.82,1696.83 571.39,1696.83 571.39,1695.4 569.97,1695.4 569.97,1692.55 568.54,1692.55 568.54,1689.7 567.12,1689.7 567.12,1686.85 565.7,1686.85 565.7,1684.01 564.27,1684.01 564.27,1681.16 562.85,1681.16 562.85,1678.31 561.42,1678.31 561.42,1675.46 560,1675.46 560,1672.61 558.57,1672.61 558.57,1671.18 557.15,1671.18 557.15,1668.33 555.72,1668.33 555.72,1665.48 554.3,1665.48 554.3,1662.63 552.87,1662.63 552.87,1659.79 551.45,1659.79 551.45,1656.94 550.02,1656.94 550.02,1655.51 548.6,1655.51 548.6,1652.66 547.17,1652.66 547.17,1649.81 545.75,1649.81 545.75,1646.96 544.32,1646.96 544.32,1645.54 542.9,1645.54 542.9,1642.69 541.48,1642.69 541.48,1639.84 540.05,1639.84 540.05,1638.42 538.63,1638.42 538.63,1635.57 537.2,1635.57 537.2,1634.14 535.78,1634.14 535.78,1631.29 534.35,1631.29 534.35,1629.87 532.93,1629.87 532.93,1627.02 531.5,1627.02 531.5,1624.17 530.08,1624.17 530.08,1622.74 528.65,1622.74 528.65,1619.9 527.23,1619.9 527.23,1618.47 525.8,1618.47 525.8,1615.62 524.38,1615.62 524.38,1614.2 522.96,1614.2 522.96,1611.35 521.53,1611.35 521.53,1608.5 520.11,1608.5 520.11,1607.07 518.68,1607.07 518.68,1604.22 517.26,1604.22 517.26,1602.8 515.83,1602.8 515.83,1599.95 514.41,1599.95 514.41,1598.52 512.98,1598.52 512.98,1595.68 511.56,1595.68 511.56,1594.25 510.13,1594.25 510.13,1591.4 508.71,1591.4 508.71,1588.55 507.28,1588.55 507.28,1587.13 505.86,1587.13 505.86,1584.28 504.43,1584.28 504.43,1582.85 503.01,1582.85 503.01,1580 501.58,1580 501.58,1578.58 500.16,1578.58 500.16,1575.73 498.74,1575.73 498.74,1574.31 497.31,1574.31 497.31,1571.46 495.89,1571.46 495.89,1568.61 494.46,1568.61 494.46,1567.18 493.04,1567.18 493.04,1564.33 491.61,1564.33 491.61,1561.48 490.19,1561.48 490.19,1560.06 488.76,1560.06 488.76,1557.21 483.06,1557.21 483.06,1555.79 478.79,1555.79 478.79,1554.36 475.94,1554.36 475.94,1552.94 473.09,1552.94 473.09,1551.51 471.67,1551.51 471.67,1550.09 470.24,1550.09 470.24,1548.66 467.39,1548.66 467.39,1547.24 464.54,1547.24 464.54,1545.81 461.69,1545.81 461.69,1544.39 458.85,1544.39 458.85,1538.69 457.42,1538.69 457.42,1532.99 458.85,1532.99 458.85,1524.44 453.15,1524.44 453.15,1525.87 451.72,1525.87 451.72,1527.29 448.87,1527.29 448.87,1525.87 447.45,1525.87 447.45,1524.44 448.87,1524.44 448.87,1521.59 450.3,1521.59 450.3,1520.17 451.72,1520.17 451.72,1517.32 453.15,1517.32 453.15,1515.89 451.72,1515.89 451.72,1514.47 450.3,1514.47 450.3,1513.04 446.02,1513.04 446.02,1511.62 444.6,1511.62 444.6,1510.2 447.45,1510.2 447.45,1508.77 448.87,1508.77 448.87,1507.35 450.3,1507.35 450.3,1505.92 451.72,1505.92 451.72,1504.5 453.15,1504.5 453.15,1503.07 454.57,1503.07 454.57,1501.65 456,1501.65 456,1497.37 454.57,1497.37 454.57,1494.52 453.15,1494.52 453.15,1493.1 451.72,1493.1 451.72,1491.68 450.3,1491.68 450.3,1488.83 448.87,1488.83 448.87,1487.4 447.45,1487.4 447.45,1485.98 446.02,1485.98 446.02,1483.13 444.6,1483.13 444.6,1481.7 443.17,1481.7 443.17,1480.28 441.75,1480.28 441.75,1478.85 440.32,1478.85 440.32,1477.43 438.9,1477.43 438.9,1474.58 437.47,1474.58 437.47,1473.15 436.05,1473.15 436.05,1471.73 434.63,1471.73 434.63,1468.88 433.2,1468.88 433.2,1467.46 431.78,1467.46 431.78,1464.61 430.35,1464.61 430.35,1463.18 428.93,1463.18 428.93,1460.33 427.5,1460.33 427.5,1458.91 426.08,1458.91 426.08,1456.06 424.65,1456.06 424.65,1453.21 423.23,1453.21 423.23,1450.36 416.1,1450.36 416.1,1448.93 417.53,1448.93 417.53,1447.51 418.95,1447.51 418.95,1444.66 417.53,1444.66 417.53,1443.24 414.68,1443.24 414.68,1441.81 413.26,1441.81 413.26,1438.96 418.95,1438.96 418.95,1434.69 417.53,1434.69 417.53,1431.84 416.1,1431.84 416.1,1430.41 414.68,1430.41 414.68,1427.56 413.26,1427.56 413.26,1426.14 411.83,1426.14 411.83,1423.29 410.41,1423.29 410.41,1420.44 411.83,1420.44 411.83,1419.02 413.26,1419.02 413.26,1417.59 414.68,1417.59 414.68,1414.74 416.1,1414.74 416.1,1413.32 417.53,1413.32 417.53,1410.47 418.95,1410.47 418.95,1407.62 420.38,1407.62 420.38,1401.92 421.8,1401.92 421.8,1400.5 423.23,1400.5 423.23,1397.65 424.65,1397.65 424.65,1396.22 426.08,1396.22 426.08,1394.8 427.5,1394.8 427.5,1393.37 428.93,1393.37 428.93,1391.95 430.35,1391.95 430.35,1389.1 431.78,1389.1 431.78,1383.4 433.2,1383.4 433.2,1381.98 434.63,1381.98 434.63,1379.13 436.05,1379.13 436.05,1377.7 437.47,1377.7 437.47,1374.85 438.9,1374.85 438.9,1372 440.32,1372 440.32,1369.15 441.75,1369.15 441.75,1360.61 443.17,1360.61 443.17,1356.33 444.6,1356.33 444.6,1354.91 446.02,1354.91 446.02,1353.48 448.87,1353.48 448.87,1352.06 450.3,1352.06 450.3,1349.21 451.72,1349.21 451.72,1347.78 453.15,1347.78 453.15,1346.36 454.57,1346.36 454.57,1344.93 456,1344.93 456,1334.96 457.42,1334.96 457.42,1333.54 460.27,1333.54 460.27,1332.11 461.69,1332.11 461.69,1330.69 463.12,1330.69 463.12,1323.56 461.69,1323.56 461.69,1319.29 463.12,1319.29 463.12,1316.44 465.97,1316.44 465.97,1317.87 468.82,1317.87 468.82,1316.44 470.24,1316.44 470.24,1313.59 471.67,1313.59 471.67,1310.74 473.09,1310.74 473.09,1309.32 474.52,1309.32 474.52,1306.47 475.94,1306.47 475.94,1303.62 477.37,1303.62 477.37,1300.77 478.79,1300.77 478.79,1299.34 480.21,1299.34 480.21,1296.5 481.64,1296.5 481.64,1293.65 483.06,1293.65 483.06,1289.37 484.49,1289.37 484.49,1283.67 485.91,1283.67 485.91,1282.25 487.34,1282.25 487.34,1279.4 488.76,1279.4 488.76,1277.97 490.19,1277.97 490.19,1275.13 491.61,1275.13 491.61,1272.28 493.04,1272.28 493.04,1269.43 494.46,1269.43 494.46,1266.58 495.89,1266.58 495.89,1262.3 497.31,1262.3 497.31,1259.45 498.74,1259.45 498.74,1256.61 500.16,1256.61 500.16,1252.33 501.58,1252.33 501.58,1248.06 503.01,1248.06 503.01,1243.78 504.43,1243.78 504.43,1240.93 505.86,1240.93 505.86,1238.08 507.28,1238.08 507.28,1236.66 508.71,1236.66 508.71,1235.23 510.13,1235.23 510.13,1232.39 511.56,1232.39 511.56,1218.14 514.41,1218.14 514.41,1216.71 515.83,1216.71 515.83,1215.29 517.26,1215.29 517.26,1213.86 518.68,1213.86 518.68,1212.44 520.11,1212.44 520.11,1211.02 521.53,1211.02 521.53,1208.17 522.96,1208.17 522.96,1202.47 524.38,1202.47 524.38,1201.04 525.8,1201.04 525.8,1192.5 527.23,1192.5 527.23,1188.22 528.65,1188.22 528.65,1181.1 527.23,1181.1 527.23,1178.25 528.65,1178.25 528.65,1176.82 530.08,1176.82 530.08,1178.25 532.93,1178.25 532.93,1176.82 534.35,1176.82 534.35,1173.97 535.78,1173.97 535.78,1171.12 537.2,1171.12 537.2,1166.85 538.63,1166.85 538.63,1164 540.05,1164 540.05,1159.73 541.48,1159.73 541.48,1154.03 542.9,1154.03 542.9,1149.75 544.32,1149.75 544.32,1146.91 545.75,1146.91 545.75,1145.48 547.17,1145.48 547.17,1142.63 548.6,1142.63 548.6,1141.21 550.02,1141.21 550.02,1138.36 551.45,1138.36 551.45,1135.51 552.87,1135.51 552.87,1132.66 554.3,1132.66 554.3,1129.81 555.72,1129.81 555.72,1125.54 557.15,1125.54 557.15,1118.41 558.57,1118.41 558.57,1116.99 560,1116.99 560,1115.56 561.42,1115.56 561.42,1114.14 562.85,1114.14 562.85,1112.71 564.27,1112.71 564.27,1109.86 565.7,1109.86 565.7,1108.44 567.12,1108.44 567.12,1105.59 568.54,1105.59 568.54,1104.17 569.97,1104.17 569.97,1089.92 568.54,1089.92 568.54,1088.49 567.12,1088.49 567.12,1087.07 565.7,1087.07 565.7,1084.22 567.12,1084.22 567.12,1082.8 568.54,1082.8 568.54,1081.37 569.97,1081.37 569.97,1082.8 571.39,1082.8 571.39,1084.22 572.82,1084.22 572.82,1087.07 574.24,1087.07 574.24,1088.49 575.67,1088.49 575.67,1081.37 577.09,1081.37 577.09,1079.95 578.52,1079.95 578.52,1078.52 579.94,1078.52 579.94,1074.25 578.52,1074.25 578.52,1072.82 579.94,1072.82 579.94,1069.97 581.37,1069.97 581.37,1068.55 579.94,1068.55 579.94,1067.12 578.52,1067.12 578.52,1065.7 577.09,1065.7 577.09,1064.27 575.67,1064.27 575.67,1065.7 574.24,1065.7 574.24,1064.27 572.82,1064.27 572.82,1060 571.39,1060 571.39,1062.85 569.97,1062.85 569.97,1065.7 568.54,1065.7 568.54,1068.55 572.82,1068.55 572.82,1075.67 571.39,1075.67 571.39,1077.1 568.54,1077.1 568.54,1078.52 565.7,1078.52 565.7,1079.95 564.27,1079.95 564.27,1081.37 562.85,1081.37 562.85,1088.49 555.72,1088.49 555.72,1087.07 554.3,1087.07 554.3,1088.49 552.87,1088.49 552.87,1089.92 551.45,1089.92 551.45,1094.19 550.02,1094.19 550.02,1098.47 548.6,1098.47 548.6,1099.89 547.17,1099.89 547.17,1102.74 545.75,1102.74 545.75,1105.59 544.32,1105.59 544.32,1116.99 538.63,1116.99 538.63,1115.56 535.78,1115.56 535.78,1116.99 534.35,1116.99 534.35,1122.69 532.93,1122.69 532.93,1125.54 531.5,1125.54 531.5,1128.38 530.08,1128.38 530.08,1131.23 528.65,1131.23 528.65,1132.66 524.38,1132.66 524.38,1141.21 522.96,1141.21 522.96,1142.63 524.38,1142.63 524.38,1144.06 525.8,1144.06 525.8,1145.48 528.65,1145.48 528.65,1146.91 530.08,1146.91 530.08,1148.33 524.38,1148.33 524.38,1149.75 507.28,1149.75 507.28,1159.73 505.86,1159.73 505.86,1161.15 508.71,1161.15 508.71,1162.58 510.13,1162.58 510.13,1168.28 508.71,1168.28 508.71,1169.7 503.01,1169.7 503.01,1171.12 501.58,1171.12 501.58,1172.55 493.04,1172.55 493.04,1173.97 494.46,1173.97 494.46,1175.4 495.89,1175.4 495.89,1176.82 497.31,1176.82 497.31,1178.25 498.74,1178.25 498.74,1181.1 500.16,1181.1 500.16,1182.52 503.01,1182.52 503.01,1183.95 504.43,1183.95 504.43,1185.37 505.86,1185.37 505.86,1186.8 507.28,1186.8 507.28,1188.22 498.74,1188.22 498.74,1186.8 497.31,1186.8 497.31,1185.37 494.46,1185.37 494.46,1183.95 487.34,1183.95 487.34,1185.37 485.91,1185.37 485.91,1188.22 487.34,1188.22 487.34,1192.5 488.76,1192.5 488.76,1196.77 485.91,1196.77 485.91,1198.19 483.06,1198.19 483.06,1201.04 484.49,1201.04 484.49,1203.89 483.06,1203.89 483.06,1205.32 480.21,1205.32 480.21,1202.47 475.94,1202.47 475.94,1206.74 474.52,1206.74 474.52,1211.02 477.37,1211.02 477.37,1212.44 478.79,1212.44 478.79,1215.29 477.37,1215.29 477.37,1216.71 475.94,1216.71 475.94,1218.14 474.52,1218.14 474.52,1220.99 473.09,1220.99 473.09,1222.41 471.67,1222.41 471.67,1225.26 470.24,1225.26 470.24,1233.81 468.82,1233.81 468.82,1236.66 465.97,1236.66 465.97,1235.23 464.54,1235.23 464.54,1233.81 460.27,1233.81 460.27,1235.23 461.69,1235.23 461.69,1236.66 463.12,1236.66 463.12,1238.08 464.54,1238.08 464.54,1239.51 465.97,1239.51 465.97,1242.36 461.69,1242.36 461.69,1243.78 463.12,1243.78 463.12,1245.21 464.54,1245.21 464.54,1246.63 465.97,1246.63 465.97,1258.03 470.24,1258.03 470.24,1259.45 471.67,1259.45 471.67,1260.88 473.09,1260.88 473.09,1263.73 474.52,1263.73 474.52,1266.58 470.24,1266.58 470.24,1263.73 468.82,1263.73 468.82,1265.15 465.97,1265.15 465.97,1263.73 463.12,1263.73 463.12,1262.3 461.69,1262.3 461.69,1259.45 460.27,1259.45 460.27,1258.03 458.85,1258.03 458.85,1256.61 453.15,1256.61 453.15,1262.3 454.57,1262.3 454.57,1268 446.02,1268 446.02,1269.43 444.6,1269.43 444.6,1270.85 443.17,1270.85 443.17,1273.7 441.75,1273.7 441.75,1276.55 440.32,1276.55 440.32,1279.4 438.9,1279.4 438.9,1283.67 437.47,1283.67 437.47,1297.92 436.05,1297.92 436.05,1299.34 434.63,1299.34 434.63,1300.77 431.78,1300.77 431.78,1302.19 430.35,1302.19 430.35,1307.89 423.23,1307.89 423.23,1315.02 424.65,1315.02 424.65,1316.44 423.23,1316.44 423.23,1317.87 420.38,1317.87 420.38,1324.99 418.95,1324.99 418.95,1326.41 417.53,1326.41 417.53,1327.84 416.1,1327.84 416.1,1329.26 414.68,1329.26 414.68,1330.69 413.26,1330.69 413.26,1332.11 411.83,1332.11 411.83,1333.54 410.41,1333.54 410.41,1334.96 408.98,1334.96 408.98,1337.81 411.83,1337.81 411.83,1339.24 414.68,1339.24 414.68,1340.66 416.1,1340.66 416.1,1343.51 414.68,1343.51 414.68,1344.93 411.83,1344.93 411.83,1343.51 406.13,1343.51 406.13,1344.93 404.71,1344.93 404.71,1346.36 403.28,1346.36 403.28,1349.21 401.86,1349.21 401.86,1352.06 400.43,1352.06 400.43,1354.91 399.01,1354.91 399.01,1357.76 397.58,1357.76 397.58,1363.45 394.74,1363.45 394.74,1364.88 393.31,1364.88 393.31,1367.73 391.89,1367.73 391.89,1370.58 390.46,1370.58 390.46,1372 387.61,1372 387.61,1369.15 386.19,1369.15 386.19,1366.3 384.76,1366.3 384.76,1362.03 383.34,1362.03 383.34,1359.18 381.91,1359.18 381.91,1357.76 380.49,1357.76 380.49,1354.91 379.06,1354.91 379.06,1352.06 377.64,1352.06 377.64,1349.21 376.21,1349.21 376.21,1346.36 374.79,1346.36 374.79,1344.93 373.36,1344.93 373.36,1342.08 371.94,1342.08 371.94,1339.24 370.52,1339.24 370.52,1336.39 369.09,1336.39 369.09,1334.96 367.67,1334.96 367.67,1332.11 366.24,1332.11 366.24,1330.69 364.82,1330.69 364.82,1327.84 363.39,1327.84 363.39,1326.41 361.97,1326.41 361.97,1324.99 360.54,1324.99 360.54,1323.56 359.12,1323.56 359.12,1320.71 357.69,1320.71 357.69,1319.29 356.27,1319.29 356.27,1317.87 354.84,1317.87 354.84,1316.44 353.42,1316.44 353.42,1315.02 351.99,1315.02 351.99,1312.17 350.57,1312.17 350.57,1310.74 349.15,1310.74 349.15,1306.47 347.72,1306.47 347.72,1300.77 346.3,1300.77 346.3,1293.65 344.87,1293.65 344.87,1287.95 343.45,1287.95 343.45,1283.67 342.02,1283.67 342.02,1280.82 340.6,1280.82 340.6,1279.4 339.17,1279.4 339.17,1277.97 337.75,1277.97 337.75,1276.55 327.78,1276.55 327.78,1275.13 329.2,1275.13 329.2,1273.7 330.63,1273.7 330.63,1269.43 329.2,1269.43 329.2,1268 327.78,1268 327.78,1265.15 326.35,1265.15 326.35,1259.45 324.93,1259.45 324.93,1253.76 323.5,1253.76 323.5,1250.91 314.95,1250.91 314.95,1243.78 313.53,1243.78 313.53,1240.93 312.1,1240.93 312.1,1238.08 310.68,1238.08 310.68,1236.66 309.25,1236.66 309.25,1235.23 307.83,1235.23 307.83,1233.81 306.41,1233.81 306.41,1232.39 304.98,1232.39 304.98,1229.54 303.56,1229.54 303.56,1228.11 302.13,1228.11 302.13,1223.84 299.28,1223.84 299.28,1225.26 297.86,1225.26 297.86,1226.69 295.01,1226.69 295.01,1225.26 292.16,1225.26 292.16,1223.84 290.73,1223.84 290.73,1220.99 289.31,1220.99 289.31,1218.14 287.88,1218.14 287.88,1216.71 289.31,1216.71 289.31,1215.29 290.73,1215.29 290.73,1211.02 289.31,1211.02 289.31,1209.59 287.88,1209.59 287.88,1205.32 286.46,1205.32 286.46,1202.47 285.04,1202.47 285.04,1198.19 283.61,1198.19 283.61,1196.77 282.19,1196.77 282.19,1195.34 276.49,1195.34 276.49,1193.92 275.06,1193.92 275.06,1185.37 273.64,1185.37 273.64,1182.52 272.21,1182.52 272.21,1181.1 269.36,1181.1 269.36,1179.67 262.24,1179.67 262.24,1178.25 255.12,1178.25 255.12,1176.82 253.69,1176.82 253.69,1173.97 255.12,1173.97 255.12,1172.55 257.97,1172.55 257.97,1171.12 260.82,1171.12 260.82,1169.7 263.67,1169.7 263.67,1168.28 262.24,1168.28 262.24,1166.85 260.82,1166.85 260.82,1165.43 259.39,1165.43 259.39,1162.58 257.97,1162.58 257.97,1161.15 256.54,1161.15 256.54,1158.3 255.12,1158.3 255.12,1156.88 253.69,1156.88 253.69,1154.03 252.27,1154.03 252.27,1151.18 250.84,1151.18 250.84,1149.75 249.42,1149.75 249.42,1146.91 247.99,1146.91 247.99,1144.06 246.57,1144.06 246.57,1142.63 245.14,1142.63 245.14,1139.78 243.72,1139.78 243.72,1138.36 242.3,1138.36 242.3,1136.93 240.87,1136.93 240.87,1135.51 239.45,1135.51 239.45,1134.08 238.02,1134.08 238.02,1132.66 236.6,1132.66 236.6,1131.23 235.17,1131.23 235.17,1129.81 232.32,1129.81 232.32,1128.38 229.47,1128.38 229.47,1126.96 228.05,1126.96 228.05,1125.54 229.47,1125.54 229.47,1124.11 230.9,1124.11 230.9,1119.84 229.47,1119.84 229.47,1118.41 228.05,1118.41 228.05,1116.99 226.62,1116.99 226.62,1115.56 225.2,1115.56 225.2,1114.14 223.77,1114.14 223.77,1112.71 222.35,1112.71 222.35,1109.86 220.93,1109.86 220.93,1108.44 219.5,1108.44 219.5,1107.01 218.08,1107.01 218.08,1105.59 216.65,1105.59 216.65,1102.74 215.23,1102.74 215.23,1101.32 213.8,1101.32 213.8,1099.89 212.38,1099.89 212.38,1098.47 210.95,1098.47 210.95,1097.04 209.53,1097.04 209.53,1095.62 208.1,1095.62 208.1,1092.77 205.25,1092.77 205.25,1091.34 203.83,1091.34 203.83,1089.92 202.4,1089.92 202.4,1088.49 200.98,1088.49 200.98,1087.07 198.13,1087.07 198.13,1085.64 196.71,1085.64 196.71,1084.22 195.28,1084.22 195.28,1082.8 193.86,1082.8 193.86,1078.52 192.43,1078.52 192.43,1071.4 191.01,1071.4 191.01,1068.55 189.58,1068.55 189.58,1067.12 186.73,1067.12 186.73,1065.7 182.46,1065.7 182.46,1064.27 171.06,1064.27 171.06,1062.85 169.64,1062.85 169.64,1058.58 171.06,1058.58 171.06,1057.15 172.49,1057.15 172.49,1047.18 171.06,1047.18 171.06,1040.06 169.64,1040.06 169.64,1038.63 168.21,1038.63 168.21,1037.21 162.51,1037.21 162.51,1032.93 161.09,1032.93 161.09,1031.51 158.24,1031.51 158.24,1030.08 155.39,1030.08 155.39,1028.66 153.97,1028.66 153.97,1027.23 151.12,1027.23 151.12,1025.81 149.69,1025.81 149.69,1022.96 148.27,1022.96 148.27,1018.69 145.42,1018.69 145.42,1017.26 138.29,1017.26 138.29,1018.69 135.45,1018.69 135.45,1020.11 132.6,1020.11 132.6,1017.26 134.02,1017.26 134.02,1015.84 135.45,1015.84 135.45,1012.99 138.29,1012.99 138.29,1011.56 141.14,1011.56 141.14,1010.14 139.72,1010.14 139.72,1007.29 138.29,1007.29 138.29,1005.86 136.87,1005.86 136.87,1004.44 135.45,1004.44 135.45,1001.59 134.02,1001.59 134.02,1000.16 132.6,1000.16 132.6,998.74 131.17,998.74 131.17,997.32 129.75,997.32 129.75,995.89 128.32,995.89 128.32,994.47 126.9,994.47 126.9,993.04 125.47,993.04 125.47,991.62 124.05,991.62 124.05,990.19 122.62,990.19 122.62,988.77 121.2,988.77 121.2,987.34 119.77,987.34 119.77,985.92 118.35,985.92 118.35,984.49 115.5,984.49 115.5,983.07 114.08,983.07 114.08,981.64 112.65,981.64 112.65,980.22 109.8,980.22 109.8,975.95 111.23,975.95 111.23,974.52 109.8,974.52 109.8,971.67 108.38,971.67 108.38,968.82 106.95,968.82 106.95,967.4 105.53,967.4 105.53,965.97 104.1,965.97 104.1,963.12 102.68,963.12 102.68,961.7 101.25,961.7 101.25,960.27 99.83,960.27 99.83,958.85 98.4,958.85 98.4,957.43 96.98,957.43 96.98,956 95.56,956 95.56,953.15 94.13,953.15 94.13,951.73 92.71,951.73 92.71,950.3 91.28,950.3 91.28,948.88 88.43,948.88 88.43,947.45 81.31,947.45 81.31,946.03 82.73,946.03 82.73,944.6 84.16,944.6 84.16,941.75 82.73,941.75 82.73,938.9 81.31,938.9 81.31,936.05 79.88,936.05 79.88,931.78 78.46,931.78 78.46,928.93 77.03,928.93 77.03,926.08 75.61,926.08 75.61,923.23 74.18,923.23 74.18,920.38 72.76,920.38 72.76,918.96 67.06,918.96 67.06,920.38 59.94,920.38 59.94,918.96 61.36,918.96 61.36,916.11 58.51,916.11 58.51,917.53 54.24,917.53 54.24,918.96 49.97,918.96 49.97,920.38 44.27,920.38 44.27,913.26 45.69,913.26 45.69,911.83 54.24,911.83 54.24,910.41 59.94,910.41 59.94,908.99 61.36,908.99 61.36,907.56 59.94,907.56 59.94,906.14 57.09,906.14 57.09,904.71 54.24,904.71 54.24,903.29 52.81,903.29 52.81,901.86 51.39,901.86 51.39,894.74 42.84,894.74 42.84,893.32 44.27,893.32 44.27,891.89 45.69,891.89 45.69,889.04 44.27,889.04 44.27,887.62 41.42,887.62 41.42,889.04 39.99,889.04 39.99,890.47 34.29,890.47 34.29,891.89 31.45,891.89 31.45,893.32 30.02,893.32 30.02,896.16 28.6,896.16 28.6,897.59 25.75,897.59 25.75,896.16 22.9,896.16 22.9,894.74 21.47,894.74 21.47,893.32 18.62,893.32 18.62,899.01 20.05,899.01 20.05,901.86 21.47,901.86 21.47,904.71 22.9,904.71 22.9,906.14 24.32,906.14 24.32,907.56 27.17,907.56 27.17,906.14 28.6,906.14 28.6,904.71 37.14,904.71 37.14,906.14 38.57,906.14 38.57,907.56 39.99,907.56 39.99,911.83 38.57,911.83 38.57,913.26 35.72,913.26 35.72,914.68 34.29,914.68 34.29,923.23 35.72,923.23 35.72,926.08 37.14,926.08 37.14,927.51 42.84,927.51 42.84,928.93 41.42,928.93 41.42,931.78 39.99,931.78 39.99,933.21 38.57,933.21 38.57,934.63 37.14,934.63 37.14,936.05 35.72,936.05 35.72,937.48 34.29,937.48 34.29,938.9 32.87,938.9 32.87,940.33 31.45,940.33 31.45,941.75 32.87,941.75 32.87,943.18 34.29,943.18 34.29,944.6 35.72,944.6 35.72,946.03 38.57,946.03 38.57,947.45 39.99,947.45 39.99,948.88 41.42,948.88 41.42,950.3 42.84,950.3 42.84,953.15 44.27,953.15 44.27,958.85 45.69,958.85 45.69,960.27 47.12,960.27 47.12,961.7 49.97,961.7 49.97,963.12 52.81,963.12 52.81,964.55 58.51,964.55 58.51,965.97 61.36,965.97 61.36,967.4 62.79,967.4 62.79,970.25 61.36,970.25 61.36,971.67 59.94,971.67 59.94,973.1 58.51,973.1 58.51,975.95 57.09,975.95 57.09,977.37 54.24,977.37 54.24,978.79 52.81,978.79 52.81,981.64 54.24,981.64 54.24,983.07 57.09,983.07 57.09,981.64 58.51,981.64 58.51,980.22 59.94,980.22 59.94,981.64 61.36,981.64 61.36,983.07 62.79,983.07 62.79,985.92 64.21,985.92 64.21,988.77 65.64,988.77 65.64,990.19 67.06,990.19 67.06,993.04 68.49,993.04 68.49,994.47 69.91,994.47 69.91,995.89 71.34,995.89 71.34,997.32 72.76,997.32 72.76,998.74 68.49,998.74 68.49,1000.16 65.64,1000.16 65.64,1001.59 64.21,1001.59 64.21,1003.01 69.91,1003.01 69.91,1004.44 72.76,1004.44 72.76,1005.86 75.61,1005.86 75.61,1007.29 77.03,1007.29 77.03,1008.71 81.31,1008.71 81.31,1007.29 82.73,1007.29 82.73,1005.86 84.16,1005.86 84.16,1004.44 85.58,1004.44 85.58,1003.01 88.43,1003.01 88.43,1001.59 91.28,1001.59 91.28,1000.16 92.71,1000.16 92.71,1001.59 94.13,1001.59 94.13,1003.01 92.71,1003.01 92.71,1005.86 91.28,1005.86 91.28,1007.29 89.86,1007.29 89.86,1008.71 88.43,1008.71 88.43,1010.14 87.01,1010.14 87.01,1011.56 85.58,1011.56 85.58,1012.99 84.16,1012.99 84.16,1015.84 82.73,1015.84 82.73,1018.69 81.31,1018.69 81.31,1021.53 79.88,1021.53 79.88,1022.96 78.46,1022.96 78.46,1024.38 77.03,1024.38 77.03,1025.81 75.61,1025.81 75.61,1027.23 74.18,1027.23 74.18,1028.66 72.76,1028.66 72.76,1030.08 71.34,1030.08 71.34,1032.93 69.91,1032.93 69.91,1034.36 72.76,1034.36 72.76,1035.78 75.61,1035.78 "/>
 </g>
</svg>
