<?xml version="1.0" encoding="UTF-8"?>
<!DOCTYPE svg PUBLIC "-//W3C//DTD SVG 1.1//EN" "http://www.w3.org/Graphics/SVG/1.1/DTD/svg11.dtd">
<!-- Creator: CorelDRAW (Versión de evaluación) -->
<svg xmlns="http://www.w3.org/2000/svg" xml:space="preserve" width="518px" height="2062px" version="1.1" style="shape-rendering:geometricPrecision; text-rendering:geometricPrecision; image-rendering:optimizeQuality; fill-rule:evenodd; clip-rule:evenodd"
viewBox="0 0 518 2061.2"
 xmlns:xlink="http://www.w3.org/1999/xlink"
 xmlns:xodm="http://www.corel.com/coreldraw/odm/2003">
 <defs>
  <style type="text/css">
   <![CDATA[
    .str0 {stroke:#ED3237;stroke-width:2;stroke-miterlimit:22.9256}
    .fil2 {fill:#4B4B4D}
    .fil3 {fill:#ED3237}
    .fil0 {fill:#F2E6C9}
    .fil1 {fill:#FAFAF7}
   ]]>
  </style>
 </defs>
 <g id="extraction">
  <metadata id="CorelCorpID_0Corel-Layer"/>
  <polygon id="root" class="fil0" points="168.22,26 164.62,26 164.62,29.6 161.02,29.6 161.02,36.8 157.42,36.8 157.42,43.99 153.82,43.99 153.82,58.38 150.23,58.38 150.23,79.96 146.63,79.96 146.63,180.68 150.23,180.68 150.23,231.05 153.82,231.05 153.82,295.8 157.42,295.8 157.42,468.46 153.82,468.46 153.82,493.64 150.23,493.64 150.23,540.41 146.63,540.41 146.63,576.38 143.03,576.38 143.03,612.35 139.44,612.35 139.44,648.32 135.84,648.32 135.84,677.1 132.24,677.1 132.24,698.68 128.65,698.68 128.65,731.06 125.05,731.06 125.05,763.43 121.45,763.43 121.45,799.41 117.86,799.41 117.86,828.18 114.26,828.18 114.26,882.14 110.66,882.14 110.66,892.93 107.06,892.93 107.06,961.28 103.46,961.28 103.46,1000.85 99.87,1000.85 99.87,1087.18 96.27,1087.18 96.27,1184.31 92.67,1184.31 92.67,1220.28 89.08,1220.28 89.08,1331.79 85.48,1331.79 85.48,1382.16 89.08,1382.16 89.08,1374.96 92.67,1374.96 92.67,1364.17 96.27,1364.17 96.27,1356.97 99.87,1356.97 99.87,1349.78 103.46,1349.78 103.46,1342.58 107.06,1342.58 107.06,1331.79 110.66,1331.79 110.66,1324.6 114.26,1324.6 114.26,1317.41 117.86,1317.41 117.86,1313.81 121.45,1313.81 121.45,1306.61 125.05,1306.61 125.05,1303.02 128.65,1303.02 128.65,1295.82 132.24,1295.82 132.24,1292.22 135.84,1292.22 135.84,1285.03 139.44,1285.03 139.44,1281.43 143.03,1281.43 143.03,1277.83 146.63,1277.83 146.63,1274.24 150.23,1274.24 150.23,1270.64 153.82,1270.64 153.82,1267.04 157.42,1267.04 157.42,1263.45 161.02,1263.45 161.02,1259.85 168.22,1259.85 168.22,1256.25 171.81,1256.25 171.81,1252.66 175.41,1252.66 175.41,1249.06 182.61,1249.06 182.61,1245.46 189.8,1245.46 189.8,1241.86 196.99,1241.86 196.99,1238.27 204.19,1238.27 204.19,1234.67 214.98,1234.67 214.98,1231.07 229.37,1231.07 229.37,1227.48 268.94,1227.48 268.94,1231.07 283.32,1231.07 283.32,1234.67 294.12,1234.67 294.12,1238.27 304.91,1238.27 304.91,1241.86 312.11,1241.86 312.11,1245.46 319.3,1245.46 319.3,1249.06 326.49,1249.06 326.49,1252.66 330.09,1252.66 330.09,1256.25 337.28,1256.25 337.28,1259.85 340.88,1259.85 340.88,1263.45 344.48,1263.45 344.48,1267.04 348.08,1267.04 348.08,1270.64 351.67,1270.64 351.67,1274.24 355.27,1274.24 355.27,1277.83 358.87,1277.83 358.87,1281.43 362.46,1281.43 362.46,1285.03 366.06,1285.03 366.06,1288.63 369.66,1288.63 369.66,1292.22 373.26,1292.22 373.26,1295.82 376.86,1295.82 376.86,1303.02 380.45,1303.02 380.45,1310.21 384.05,1310.21 384.05,1313.81 387.64,1313.81 387.64,1317.41 391.24,1317.41 391.24,1324.6 394.84,1324.6 394.84,1328.2 398.43,1328.2 398.43,1335.39 402.03,1335.39 402.03,1342.58 405.63,1342.58 405.63,1349.78 409.23,1349.78 409.23,1356.97 412.82,1356.97 412.82,1364.17 416.42,1364.17 416.42,1367.77 420.02,1367.77 420.02,1374.96 423.62,1374.96 423.62,1385.75 427.22,1385.75 427.22,1392.95 430.81,1392.95 430.81,1403.74 434.41,1403.74 434.41,1414.53 438.01,1414.53 438.01,1421.72 441.6,1421.72 441.6,1428.92 445.2,1428.92 445.2,1403.74 441.6,1403.74 441.6,1353.38 438.01,1353.38 438.01,1281.43 434.41,1281.43 434.41,1231.07 430.81,1231.07 430.81,1187.91 427.22,1187.91 427.22,1133.95 423.62,1133.95 423.62,1054.81 420.02,1054.81 420.02,979.27 416.42,979.27 416.42,950.49 412.82,950.49 412.82,903.72 409.23,903.72 409.23,846.17 405.63,846.17 405.63,806.6 402.03,806.6 402.03,759.84 398.43,759.84 398.43,731.06 394.84,731.06 394.84,698.68 391.24,698.68 391.24,677.1 387.64,677.1 387.64,655.52 384.05,655.52 384.05,637.53 380.45,637.53 380.45,608.75 376.86,608.75 376.86,590.77 373.26,590.77 373.26,576.38 369.66,576.38 369.66,558.39 366.06,558.39 366.06,540.41 362.46,540.41 362.46,526.02 358.87,526.02 358.87,508.03 355.27,508.03 355.27,490.05 351.67,490.05 351.67,475.66 348.08,475.66 348.08,457.67 344.48,457.67 344.48,439.68 340.88,439.68 340.88,425.3 337.28,425.3 337.28,414.5 333.69,414.5 333.69,400.11 330.09,400.11 330.09,382.13 326.49,382.13 326.49,371.34 322.9,371.34 322.9,353.35 319.3,353.35 319.3,346.16 315.7,346.16 315.7,331.77 312.11,331.77 312.11,313.78 308.51,313.78 308.51,302.99 304.91,302.99 304.91,288.6 301.31,288.6 301.31,277.81 297.72,277.81 297.72,267.02 294.12,267.02 294.12,256.22 290.52,256.22 290.52,241.84 286.92,241.84 286.92,231.05 283.32,231.05 283.32,216.66 279.73,216.66 279.73,209.46 276.13,209.46 276.13,195.07 272.53,195.07 272.53,184.28 268.94,184.28 268.94,173.49 265.34,173.49 265.34,162.7 261.74,162.7 261.74,155.5 258.15,155.5 258.15,144.71 254.55,144.71 254.55,133.92 250.95,133.92 250.95,126.72 247.35,126.72 247.35,115.93 243.76,115.93 243.76,108.74 240.16,108.74 240.16,101.55 236.56,101.55 236.56,94.35 232.97,94.35 232.97,87.16 229.37,87.16 229.37,79.96 225.77,79.96 225.77,72.77 222.17,72.77 222.17,65.57 218.57,65.57 218.57,61.97 214.98,61.97 214.98,54.78 211.38,54.78 211.38,51.18 207.78,51.18 207.78,43.99 204.19,43.99 204.19,40.39 200.59,40.39 200.59,36.8 196.99,36.8 196.99,33.2 193.4,33.2 193.4,29.6 186.2,29.6 186.2,26 182.61,26 182.61,22.41 168.22,22.41 "/>
  <polygon id="crown" class="fil1" points="236.56,1245.46 222.17,1245.46 222.17,1249.06 211.38,1249.06 211.38,1252.66 204.19,1252.66 204.19,1256.25 196.99,1256.25 196.99,1259.85 193.4,1259.85 193.4,1263.45 186.2,1263.45 186.2,1267.04 182.61,1267.04 182.61,1270.64 175.41,1270.64 175.41,1274.24 171.81,1274.24 171.81,1277.83 168.22,1277.83 168.22,1281.43 164.62,1281.43 164.62,1285.03 161.02,1285.03 161.02,1292.22 157.42,1292.22 157.42,1295.82 153.82,1295.82 153.82,1299.42 150.23,1299.42 150.23,1303.02 146.63,1303.02 146.63,1310.21 143.03,1310.21 143.03,1313.81 139.44,1313.81 139.44,1321 135.84,1321 135.84,1328.2 132.24,1328.2 132.24,1331.79 128.65,1331.79 128.65,1338.99 125.05,1338.99 125.05,1346.18 121.45,1346.18 121.45,1353.38 117.86,1353.38 117.86,1364.17 114.26,1364.17 114.26,1371.37 110.66,1371.37 110.66,1382.16 107.06,1382.16 107.06,1392.95 103.46,1392.95 103.46,1400.14 99.87,1400.14 99.87,1410.93 96.27,1410.93 96.27,1425.32 92.67,1425.32 92.67,1432.52 89.08,1432.52 89.08,1443.31 85.48,1443.31 85.48,1454.1 81.88,1454.1 81.88,1472.08 78.28,1472.08 78.28,1490.07 74.69,1490.07 74.69,1504.46 71.09,1504.46 71.09,1518.85 67.49,1518.85 67.49,1533.24 63.9,1533.24 63.9,1547.63 60.3,1547.63 60.3,1554.82 56.7,1554.82 56.7,1569.21 53.11,1569.21 53.11,1587.2 49.51,1587.2 49.51,1597.99 45.91,1597.99 45.91,1612.38 42.31,1612.38 42.31,1623.17 38.72,1623.17 38.72,1637.56 35.12,1637.56 35.12,1655.54 31.52,1655.54 31.52,1666.33 27.92,1666.33 27.92,1684.32 24.32,1684.32 24.32,1705.91 20.73,1705.91 20.73,1785.04 24.32,1785.04 24.32,1806.63 27.92,1806.63 27.92,1824.62 31.52,1824.62 31.52,1835.41 35.12,1835.41 35.12,1842.6 38.72,1842.6 38.72,1853.39 42.31,1853.39 42.31,1860.58 45.91,1860.58 45.91,1867.78 49.51,1867.78 49.51,1874.97 53.11,1874.97 53.11,1882.17 56.7,1882.17 56.7,1889.36 60.3,1889.36 60.3,1892.96 63.9,1892.96 63.9,1896.56 67.49,1896.56 67.49,1903.75 71.09,1903.75 71.09,1907.35 74.69,1907.35 74.69,1910.94 78.28,1910.94 78.28,1914.54 81.88,1914.54 81.88,1918.14 85.48,1918.14 85.48,1921.74 89.08,1921.74 89.08,1925.33 92.67,1925.33 92.67,1928.93 96.27,1928.93 96.27,1932.53 99.87,1932.53 99.87,1936.13 107.06,1936.13 107.06,1939.73 110.66,1939.73 110.66,1943.32 114.26,1943.32 114.26,1946.92 117.86,1946.92 117.86,1950.52 121.45,1950.52 121.45,1954.11 128.65,1954.11 128.65,1957.71 132.24,1957.71 132.24,1961.31 135.84,1961.31 135.84,1964.9 143.03,1964.9 143.03,1968.5 146.63,1968.5 146.63,1972.1 150.23,1972.1 150.23,1975.69 157.42,1975.69 157.42,1979.29 161.02,1979.29 161.02,1982.89 164.62,1982.89 164.62,1986.49 171.81,1986.49 171.81,1990.08 175.41,1990.08 175.41,1993.68 179.01,1993.68 179.01,1997.28 186.2,1997.28 186.2,2000.88 189.8,2000.88 189.8,2004.48 193.4,2004.48 193.4,2008.07 200.59,2008.07 200.59,2011.67 207.78,2011.67 207.78,2015.27 211.38,2015.27 211.38,2018.86 218.57,2018.86 218.57,2022.46 222.17,2022.46 222.17,2026.06 229.37,2026.06 229.37,2029.65 236.56,2029.65 236.56,2033.25 243.76,2033.25 243.76,2036.85 276.13,2036.85 276.13,2033.25 286.92,2033.25 286.92,2029.65 294.12,2029.65 294.12,2026.06 301.31,2026.06 301.31,2022.46 304.91,2022.46 304.91,2018.86 308.51,2018.86 308.51,2015.27 315.7,2015.27 315.7,2011.67 319.3,2011.67 319.3,2008.07 322.9,2008.07 322.9,2004.48 330.09,2004.48 330.09,2000.88 333.69,2000.88 333.69,1997.28 337.28,1997.28 337.28,1993.68 344.48,1993.68 344.48,1990.08 348.08,1990.08 348.08,1986.49 351.67,1986.49 351.67,1982.89 355.27,1982.89 355.27,1979.29 362.46,1979.29 362.46,1975.69 366.06,1975.69 366.06,1972.1 373.26,1972.1 373.26,1968.5 376.86,1968.5 376.86,1964.9 380.45,1964.9 380.45,1961.31 387.64,1961.31 387.64,1957.71 391.24,1957.71 391.24,1954.11 398.43,1954.11 398.43,1950.52 402.03,1950.52 402.03,1946.92 405.63,1946.92 405.63,1943.32 412.82,1943.32 412.82,1939.73 416.42,1939.73 416.42,1936.13 420.02,1936.13 420.02,1932.53 423.62,1932.53 423.62,1928.93 427.22,1928.93 427.22,1925.33 434.41,1925.33 434.41,1921.74 438.01,1921.74 438.01,1918.14 441.6,1918.14 441.6,1914.54 445.2,1914.54 445.2,1910.94 448.8,1910.94 448.8,1907.35 452.39,1907.35 452.39,1903.75 455.99,1903.75 455.99,1896.56 459.59,1896.56 459.59,1892.96 463.18,1892.96 463.18,1889.36 466.78,1889.36 466.78,1882.17 470.38,1882.17 470.38,1874.97 473.98,1874.97 473.98,1867.78 477.57,1867.78 477.57,1860.58 481.17,1860.58 481.17,1853.39 484.77,1853.39 484.77,1846.2 488.37,1846.2 488.37,1824.62 491.97,1824.62 491.97,1716.7 488.37,1716.7 488.37,1691.52 484.77,1691.52 484.77,1666.33 481.17,1666.33 481.17,1651.95 477.57,1651.95 477.57,1623.17 473.98,1623.17 473.98,1601.58 470.38,1601.58 470.38,1583.6 466.78,1583.6 466.78,1572.81 463.18,1572.81 463.18,1547.63 459.59,1547.63 459.59,1533.24 455.99,1533.24 455.99,1518.85 452.39,1518.85 452.39,1504.46 448.8,1504.46 448.8,1490.07 445.2,1490.07 445.2,1482.88 441.6,1482.88 441.6,1472.08 438.01,1472.08 438.01,1457.7 434.41,1457.7 434.41,1450.5 430.81,1450.5 430.81,1439.71 427.22,1439.71 427.22,1432.52 423.62,1432.52 423.62,1421.72 420.02,1421.72 420.02,1414.53 416.42,1414.53 416.42,1403.74 412.82,1403.74 412.82,1396.54 409.23,1396.54 409.23,1389.35 405.63,1389.35 405.63,1378.56 402.03,1378.56 402.03,1371.37 398.43,1371.37 398.43,1367.77 394.84,1367.77 394.84,1360.57 391.24,1360.57 391.24,1353.38 387.64,1353.38 387.64,1346.18 384.05,1346.18 384.05,1338.99 380.45,1338.99 380.45,1331.79 376.86,1331.79 376.86,1328.2 373.26,1328.2 373.26,1324.6 369.66,1324.6 369.66,1317.41 366.06,1317.41 366.06,1313.81 362.46,1313.81 362.46,1306.61 358.87,1306.61 358.87,1303.02 355.27,1303.02 355.27,1299.42 351.67,1299.42 351.67,1292.22 348.08,1292.22 348.08,1288.63 344.48,1288.63 344.48,1285.03 340.88,1285.03 340.88,1281.43 337.28,1281.43 337.28,1277.83 333.69,1277.83 333.69,1274.24 326.49,1274.24 326.49,1270.64 322.9,1270.64 322.9,1267.04 315.7,1267.04 315.7,1263.45 312.11,1263.45 312.11,1259.85 304.91,1259.85 304.91,1256.25 297.72,1256.25 297.72,1252.66 290.52,1252.66 290.52,1249.06 283.32,1249.06 283.32,1245.46 272.53,1245.46 272.53,1241.86 236.56,1241.86 "/>
  <path id="outline" class="fil2" d="M20.73 1705.91l3.59 0 0 -21.59 3.6 0 0 -17.99 3.6 0 0 -10.79 3.6 0 0 -17.98 3.6 0 0 -14.39 3.59 0 0 -10.79 3.6 0 0 -14.39 3.6 0 0 -10.79 3.6 0 0 -17.99 3.59 0 0 -14.39 3.6 0 0 -7.19 3.6 0 0 -14.39 3.59 0 0 -14.39 3.6 0 0 -14.39 3.6 0 0 -14.39 3.59 0 0 -17.99 3.6 0 0 -17.98 3.6 0 0 -10.79 3.6 0 0 -10.79 3.59 0 0 -7.2 3.6 0 0 -14.39 3.6 0 0 -10.79 3.59 0 0 -7.19 3.6 0 0 -10.79 3.6 0 0 -10.79 3.6 0 0 -7.2 3.6 0 0 -10.79 3.59 0 0 -7.2 3.6 0 0 -7.19 3.6 0 0 -7.2 3.59 0 0 -3.59 3.6 0 0 -7.2 3.6 0 0 -7.19 3.59 0 0 -3.6 3.6 0 0 -7.19 3.6 0 0 -3.6 3.59 0 0 -3.6 3.6 0 0 -3.6 3.6 0 0 -7.19 3.6 0 0 -3.6 3.6 0 0 -3.6 3.59 0 0 -3.59 3.6 0 0 -3.6 7.2 0 0 -3.6 3.59 0 0 -3.59 7.2 0 0 -3.6 3.59 0 0 -3.6 7.2 0 0 -3.59 7.19 0 0 -3.6 10.79 0 0 -3.6 14.39 0 0 -3.6 35.97 0 0 3.6 10.79 0 0 3.6 7.2 0 0 3.6 7.2 0 0 3.59 7.19 0 0 3.6 7.2 0 0 3.6 3.59 0 0 3.59 7.2 0 0 3.6 3.59 0 0 3.6 7.2 0 0 3.59 3.59 0 0 3.6 3.6 0 0 3.6 3.6 0 0 3.6 3.6 0 0 3.59 3.59 0 0 7.2 3.6 0 0 3.6 3.6 0 0 3.59 3.59 0 0 7.2 3.6 0 0 3.6 3.6 0 0 7.19 3.6 0 0 3.6 3.6 0 0 3.59 3.59 0 0 7.2 3.6 0 0 7.19 3.59 0 0 7.2 3.6 0 0 7.19 3.6 0 0 7.2 3.59 0 0 3.6 3.6 0 0 7.19 3.6 0 0 10.79 3.6 0 0 7.19 3.59 0 0 7.2 3.6 0 0 10.79 3.6 0 0 7.19 3.6 0 0 10.8 3.6 0 0 7.19 3.59 0 0 10.79 3.6 0 0 7.2 3.6 0 0 14.38 3.59 0 0 10.8 3.6 0 0 7.19 3.6 0 0 14.39 3.59 0 0 14.39 3.6 0 0 14.39 3.6 0 0 14.39 3.59 0 0 25.18 3.6 0 0 10.79 3.6 0 0 17.98 3.6 0 0 21.59 3.59 0 0 28.78 3.6 0 0 14.38 3.6 0 0 25.19 3.6 0 0 25.18 3.6 0 0 107.92 -3.6 0 0 21.58 -3.6 0 0 7.19 -3.6 0 0 7.19 -3.6 0 0 7.2 -3.59 0 0 7.19 -3.6 0 0 7.2 -3.6 0 0 7.19 -3.6 0 0 3.6 -3.59 0 0 3.6 -3.6 0 0 7.19 -3.6 0 0 3.6 -3.59 0 0 3.59 -3.6 0 0 3.6 -3.6 0 0 3.6 -3.59 0 0 3.6 -3.6 0 0 3.59 -7.19 0 0 3.6 -3.6 0 0 3.6 -3.6 0 0 3.6 -3.6 0 0 3.6 -3.6 0 0 3.59 -7.19 0 0 3.6 -3.6 0 0 3.6 -3.6 0 0 3.59 -7.19 0 0 3.6 -3.6 0 0 3.6 -7.19 0 0 3.59 -3.59 0 0 3.6 -3.6 0 0 3.6 -7.2 0 0 3.59 -3.6 0 0 3.6 -7.19 0 0 3.6 -3.6 0 0 3.6 -3.59 0 0 3.59 -3.6 0 0 3.6 -7.2 0 0 3.6 -3.59 0 0 3.6 -3.6 0 0 3.6 -7.19 0 0 3.59 -3.6 0 0 3.6 -3.6 0 0 3.6 -7.19 0 0 3.59 -3.6 0 0 3.6 -3.6 0 0 3.6 -7.19 0 0 3.59 -7.2 0 0 3.6 -10.79 0 0 3.6 -32.37 0 0 -3.6 -7.2 0 0 -3.6 -7.19 0 0 -3.59 -7.2 0 0 -3.6 -3.6 0 0 -3.6 -7.19 0 0 -3.59 -3.6 0 0 -3.6 -7.19 0 0 -3.6 -7.19 0 0 -3.59 -3.6 0 0 -3.6 -3.6 0 0 -3.6 -7.19 0 0 -3.6 -3.6 0 0 -3.6 -3.6 0 0 -3.59 -7.19 0 0 -3.6 -3.6 0 0 -3.6 -3.6 0 0 -3.6 -7.19 0 0 -3.59 -3.6 0 0 -3.6 -3.6 0 0 -3.6 -7.19 0 0 -3.59 -3.6 0 0 -3.6 -3.59 0 0 -3.6 -7.2 0 0 -3.59 -3.59 0 0 -3.6 -3.6 0 0 -3.6 -3.6 0 0 -3.59 -3.6 0 0 -3.6 -7.19 0 0 -3.6 -3.6 0 0 -3.6 -3.6 0 0 -3.6 -3.59 0 0 -3.59 -3.6 0 0 -3.6 -3.6 0 0 -3.6 -3.6 0 0 -3.6 -3.59 0 0 -3.59 -3.6 0 0 -3.6 -3.6 0 0 -7.19 -3.59 0 0 -3.6 -3.6 0 0 -3.6 -3.6 0 0 -7.19 -3.59 0 0 -7.2 -3.6 0 0 -7.19 -3.6 0 0 -7.2 -3.6 0 0 -7.19 -3.59 0 0 -10.79 -3.6 0 0 -7.19 -3.6 0 0 -10.79 -3.6 0 0 -17.99 -3.6 0 0 -21.59 -3.59 0 0 -79.13zm125.9 -1625.95l3.6 0 0 -21.58 3.59 0 0 -14.39 3.6 0 0 -7.19 3.6 0 0 -7.2 3.6 0 0 -3.6 3.6 0 0 -3.59 14.39 0 0 3.59 3.59 0 0 3.6 7.2 0 0 3.6 3.59 0 0 3.6 3.6 0 0 3.59 3.6 0 0 3.6 3.59 0 0 7.19 3.6 0 0 3.6 3.6 0 0 7.19 3.59 0 0 3.6 3.6 0 0 7.2 3.6 0 0 7.19 3.6 0 0 7.2 3.6 0 0 7.19 3.59 0 0 7.2 3.6 0 0 7.19 3.6 0 0 7.19 3.59 0 0 10.79 3.6 0 0 7.2 3.6 0 0 10.79 3.6 0 0 10.79 3.59 0 0 7.2 3.6 0 0 10.79 3.6 0 0 10.79 3.59 0 0 10.79 3.6 0 0 14.39 3.6 0 0 7.2 3.59 0 0 14.39 3.6 0 0 10.79 3.6 0 0 14.38 3.6 0 0 10.8 3.6 0 0 10.79 3.59 0 0 10.79 3.6 0 0 14.39 3.6 0 0 10.79 3.6 0 0 17.99 3.59 0 0 14.39 3.6 0 0 7.19 3.6 0 0 17.99 3.59 0 0 10.79 3.6 0 0 17.98 3.6 0 0 14.39 3.59 0 0 10.8 3.6 0 0 14.38 3.6 0 0 17.99 3.6 0 0 17.99 3.59 0 0 14.39 3.6 0 0 17.98 3.6 0 0 17.99 3.59 0 0 14.39 3.6 0 0 17.98 3.6 0 0 17.99 3.6 0 0 14.39 3.6 0 0 17.98 3.59 0 0 28.78 3.6 0 0 17.99 3.59 0 0 21.58 3.6 0 0 21.58 3.6 0 0 32.38 3.59 0 0 28.78 3.6 0 0 46.76 3.6 0 0 39.57 3.6 0 0 57.55 3.59 0 0 46.77 3.6 0 0 28.78 3.6 0 0 75.54 3.6 0 0 79.14 3.6 0 0 53.96 3.59 0 0 43.16 3.6 0 0 50.36 3.6 0 0 71.95 3.59 0 0 50.36 3.6 0 0 25.18 -3.6 0 0 -7.2 -3.59 0 0 -7.19 -3.6 0 0 -10.79 -3.6 0 0 -10.79 -3.59 0 0 -7.2 -3.6 0 0 -10.79 -3.6 0 0 -7.19 -3.6 0 0 -3.6 -3.6 0 0 -7.2 -3.59 0 0 -7.19 -3.6 0 0 -7.2 -3.6 0 0 -7.19 -3.6 0 0 -7.19 -3.59 0 0 -3.6 -3.6 0 0 -7.19 -3.6 0 0 -3.6 -3.59 0 0 -3.6 -3.6 0 0 -7.19 -3.59 0 0 -7.2 -3.6 0 0 -3.6 -3.6 0 0 -3.59 -3.6 0 0 -3.6 -3.6 0 0 -3.6 -3.59 0 0 -3.6 -3.6 0 0 -3.59 -3.6 0 0 -3.6 -3.59 0 0 -3.6 -3.6 0 0 -3.59 -3.6 0 0 -3.6 -3.6 0 0 -3.6 -7.19 0 0 -3.59 -3.6 0 0 -3.6 -7.19 0 0 -3.6 -7.19 0 0 -3.6 -7.2 0 0 -3.59 -10.79 0 0 -3.6 -10.8 0 0 -3.6 -14.38 0 0 -3.59 -39.57 0 0 3.59 -14.39 0 0 3.6 -10.79 0 0 3.6 -7.2 0 0 3.59 -7.19 0 0 3.6 -7.19 0 0 3.6 -7.2 0 0 3.6 -3.6 0 0 3.59 -3.59 0 0 3.6 -7.2 0 0 3.6 -3.6 0 0 3.59 -3.6 0 0 3.6 -3.59 0 0 3.6 -3.6 0 0 3.59 -3.6 0 0 3.6 -3.59 0 0 3.6 -3.6 0 0 7.19 -3.6 0 0 3.6 -3.59 0 0 7.2 -3.6 0 0 3.59 -3.6 0 0 7.2 -3.59 0 0 3.6 -3.6 0 0 7.19 -3.6 0 0 7.19 -3.6 0 0 10.79 -3.6 0 0 7.2 -3.59 0 0 7.19 -3.6 0 0 7.2 -3.6 0 0 10.79 -3.59 0 0 7.2 -3.6 0 0 -50.37 3.6 0 0 -111.51 3.59 0 0 -35.97 3.6 0 0 -97.13 3.6 0 0 -86.33 3.59 0 0 -39.57 3.6 0 0 -68.35 3.6 0 0 -10.79 3.6 0 0 -53.96 3.6 0 0 -28.77 3.59 0 0 -35.98 3.6 0 0 -32.37 3.6 0 0 -32.38 3.59 0 0 -21.58 3.6 0 0 -28.78 3.6 0 0 -35.97 3.59 0 0 -35.97 3.6 0 0 -35.97 3.6 0 0 -46.77 3.59 0 0 -25.18 3.6 0 0 -172.66 -3.6 0 0 -64.75 -3.59 0 0 -50.37 -3.6 0 0 -100.72zm14.39 -75.54l-7.2 0 0 3.6 -3.59 0 0 3.59 -3.6 0 0 3.6 -3.6 0 0 7.2 -3.59 0 0 7.19 -3.6 0 0 7.2 -3.6 0 0 10.79 -3.59 0 0 17.98 -3.6 0 0 143.89 3.6 0 0 25.18 3.59 0 0 233.82 -3.59 0 0 50.36 -3.6 0 0 50.36 -3.6 0 0 32.38 -3.59 0 0 28.78 -3.6 0 0 39.57 -3.6 0 0 28.77 -3.6 0 0 35.98 -3.6 0 0 17.98 -3.59 0 0 43.17 -3.6 0 0 21.58 -3.6 0 0 32.38 -3.59 0 0 50.36 -3.6 0 0 35.97 -3.6 0 0 57.56 -3.6 0 0 57.55 -3.59 0 0 53.96 -3.6 0 0 122.31 -3.6 0 0 75.54 -3.59 0 0 75.54 -3.6 0 0 68.35 -3.6 0 0 28.77 -3.59 0 0 14.39 -3.6 0 0 17.99 -3.6 0 0 10.79 -3.6 0 0 14.39 -3.59 0 0 17.98 -3.6 0 0 14.4 -3.6 0 0 3.59 -3.6 0 0 17.99 -3.6 0 0 10.79 -3.59 0 0 17.98 -3.6 0 0 14.4 -3.6 0 0 14.38 -3.59 0 0 14.39 -3.6 0 0 17.99 -3.6 0 0 17.98 -3.59 0 0 97.13 3.59 0 0 17.98 3.6 0 0 21.59 3.6 0 0 7.19 3.59 0 0 10.79 3.6 0 0 7.2 3.6 0 0 10.79 3.59 0 0 7.19 3.6 0 0 7.2 3.6 0 0 7.19 3.6 0 0 3.6 3.6 0 0 7.19 3.59 0 0 7.2 3.6 0 0 3.59 3.6 0 0 3.6 3.6 0 0 3.6 3.59 0 0 7.19 3.6 0 0 3.6 3.6 0 0 3.6 3.59 0 0 3.6 3.6 0 0 3.6 3.6 0 0 3.59 3.59 0 0 3.6 3.6 0 0 3.6 3.6 0 0 3.59 7.19 0 0 3.6 3.6 0 0 3.6 3.6 0 0 3.59 3.59 0 0 3.6 3.6 0 0 3.6 7.2 0 0 3.59 3.6 0 0 3.6 7.19 0 0 3.6 3.6 0 0 3.6 3.59 0 0 3.59 3.6 0 0 3.6 7.19 0 0 3.6 3.6 0 0 3.6 7.19 0 0 3.6 3.6 0 0 3.59 3.6 0 0 3.6 7.2 0 0 3.6 3.59 0 0 3.59 3.6 0 0 3.6 7.2 0 0 3.6 3.59 0 0 3.59 3.6 0 0 3.6 7.19 0 0 3.6 3.6 0 0 3.59 7.19 0 0 3.6 7.2 0 0 3.6 7.19 0 0 3.6 7.2 0 0 3.6 7.19 0 0 3.59 14.39 0 0 3.6 21.58 0 0 -3.6 14.39 0 0 -3.59 7.2 0 0 -3.6 7.19 0 0 -3.6 7.2 0 0 -3.6 3.6 0 0 -3.6 7.19 0 0 -3.59 3.6 0 0 -3.6 3.59 0 0 -3.6 7.2 0 0 -3.59 3.59 0 0 -3.6 7.2 0 0 -3.6 3.6 0 0 -3.59 3.59 0 0 -3.6 3.6 0 0 -3.6 7.19 0 0 -3.59 3.6 0 0 -3.6 3.6 0 0 -3.6 7.2 0 0 -3.6 3.59 0 0 -3.6 7.19 0 0 -3.59 3.6 0 0 -3.6 3.6 0 0 -3.6 3.59 0 0 -3.6 7.2 0 0 -3.59 3.6 0 0 -3.6 7.19 0 0 -3.6 3.6 0 0 -3.59 3.6 0 0 -3.6 3.6 0 0 -3.6 7.19 0 0 -3.59 3.6 0 0 -3.6 3.59 0 0 -3.6 3.6 0 0 -3.59 3.6 0 0 -3.6 7.19 0 0 -3.6 3.6 0 0 -3.6 3.59 0 0 -3.6 3.6 0 0 -3.59 3.6 0 0 -7.2 3.6 0 0 -3.6 3.59 0 0 -3.59 3.6 0 0 -3.6 3.6 0 0 -7.19 3.6 0 0 -3.6 3.6 0 0 -7.19 3.59 0 0 -7.2 3.6 0 0 -7.19 3.6 0 0 -10.8 3.59 0 0 -10.79 3.6 0 0 -17.98 3.6 0 0 -10.79 3.59 0 0 -79.14 -3.59 0 0 -35.97 -3.6 0 0 -28.78 -3.6 0 0 -21.59 -3.59 0 0 -17.98 -3.6 0 0 -25.18 -3.6 0 0 -14.39 -3.59 0 0 -21.58 -3.6 0 0 -21.59 -3.6 0 0 -21.58 -3.6 0 0 -21.58 -3.6 0 0 -17.99 -3.59 0 0 -43.17 -3.6 0 0 -28.78 -3.6 0 0 -53.95 -3.6 0 0 -43.17 -3.59 0 0 -50.36 -3.6 0 0 -61.16 -3.6 0 0 -46.76 -3.59 0 0 -57.55 -3.6 0 0 -57.56 -3.6 0 0 -86.33 -3.59 0 0 -28.78 -3.6 0 0 -57.55 -3.6 0 0 -43.17 -3.59 0 0 -43.17 -3.6 0 0 -28.78 -3.6 0 0 -32.37 -3.6 0 0 -25.18 -3.6 0 0 -32.38 -3.59 0 0 -25.18 -3.6 0 0 -21.58 -3.6 0 0 -21.58 -3.6 0 0 -21.59 -3.59 0 0 -14.39 -3.6 0 0 -21.58 -3.6 0 0 -14.39 -3.59 0 0 -21.58 -3.6 0 0 -10.79 -3.59 0 0 -14.39 -3.6 0 0 -25.18 -3.6 0 0 -14.39 -3.6 0 0 -14.39 -3.6 0 0 -14.39 -3.59 0 0 -10.79 -3.6 0 0 -17.99 -3.6 0 0 -14.39 -3.59 0 0 -14.38 -3.6 0 0 -7.2 -3.6 0 0 -14.39 -3.6 0 0 -14.39 -3.59 0 0 -14.39 -3.6 0 0 -10.79 -3.6 0 0 -17.98 -3.59 0 0 -10.8 -3.6 0 0 -10.79 -3.6 0 0 -14.39 -3.59 0 0 -14.38 -3.6 0 0 -10.8 -3.6 0 0 -10.79 -3.6 0 0 -10.79 -3.59 0 0 -10.79 -3.6 0 0 -7.2 -3.6 0 0 -14.38 -3.6 0 0 -10.8 -3.6 0 0 -10.79 -3.59 0 0 -7.19 -3.6 0 0 -10.8 -3.6 0 0 -10.79 -3.59 0 0 -7.19 -3.6 0 0 -7.19 -3.6 0 0 -10.8 -3.59 0 0 -7.19 -3.6 0 0 -7.2 -3.6 0 0 -7.19 -3.6 0 0 -7.2 -3.59 0 0 -3.59 -3.6 0 0 -7.2 -3.6 0 0 -3.59 -3.59 0 0 -7.2 -3.6 0 0 -3.59 -3.6 0 0 -7.2 -3.6 0 0 -3.6 -3.6 0 0 -3.59 -3.59 0 0 -3.6 -3.6 0 0 -3.6 -3.6 0 0 -3.6 -7.19 0 0 -3.59 -3.6 0 0 -3.6 -10.79 0 0 -3.6 -25.18 0 0 3.6z"/>
  <path class="fil3 str0" d="M362.52 1247.15l-1.72 -2.54 1.72 2.54zm-1.72 -2.54l-0.76 -2.14 0.76 2.14zm-0.76 -2.14zm-4.97 -9.37l4.97 9.37zm-4.97 -9.37c0.37,-2.97 3.16,-1.31 1.24,0.5l-0.38 -0.05c-0.98,-0.36 -1.35,3.54 -0.86,-0.45zm-2.04 -8.19l0.22 0.64c-0.01,-0.04 -0.34,-0.5 -0.22,-0.64zm-8.21 -16.19c1.27,-1.45 3.35,4.27 0.97,1.34 -0.02,-0.02 -2.96,0.94 -0.97,-1.34zm-48.52 -168.68zm-6.48 -13.65l6.48 13.65zm-6.48 -13.65c2.81,2.64 0.71,-0.48 2.5,3.17 1.38,2.83 1.2,1.62 1.5,5.8 -5.44,-5.12 -3.56,-7.28 -4,-8.97zm-3.23 -6.83zm0 0zm0 0zm-11.77 -28.67l11.77 28.67zm-11.77 -28.67c3.55,1.58 7.63,7.02 8.73,12.59 0.85,4.34 0.75,0.87 0.01,7.5 -3.31,-6.27 -5.94,-13.24 -8.74,-20.09zm48.16 -173.87c0.56,-4.48 1.58,0.34 0.58,0.23 -0.01,0 -1.19,4.66 -0.58,-0.23zm39.54 430.13c4.14,3.89 13.16,25.06 16.89,33.36 8.03,17.9 8.54,16.17 17.18,33.01 1.92,3.74 4,7.87 5.52,11.74 2.12,5.41 2.05,8.65 5.43,11.84 -0.27,-12.2 -16.89,-48.56 -21.83,-59.29l-7.98 -19.45c-1.5,-3.95 -1.78,-5.48 -3.6,-9.43l-23.4 -57.5c-2.48,-5.72 -3.22,-3.41 -3.4,-11.15 2.34,-0.04 2.41,-0.46 5.09,0.21l0.43 -3.51c-4.47,-4.21 -11.69,-25.02 -14.51,-33.05 -2.99,-8.5 -4.89,-8.1 -7.45,-17.06l-13.72 -33.96c-1.4,-3.17 -1.81,-5.07 -3.2,-8.37 -3.02,-7.17 -17.51,-37.46 -17.67,-44.5 3.35,2.91 3.98,5.94 6.25,8.21 8.32,8.33 -5.96,-25.06 -6.72,-27.23 -1.43,-4.11 -2.04,-6.78 -3.27,-11.29 -2.22,-8.08 -0.76,-18.22 -5.56,-23.92 -3.63,-4.31 -5.31,-0.99 -8.39,-0.76 -0.21,-9.36 -2.83,-8.47 -6.48,-13.66 4.9,-8.39 4.78,-3.34 4.52,-15.52 -0.22,-9.67 0.9,-16.44 4.87,-21.86 7.39,-10.09 20.02,-28.37 23.27,-45.35 1.6,-8.36 2.61,-19.56 3.5,-23.94 0.76,-3.69 4.6,-13.25 6.4,-19.07 2.09,-6.73 4.46,-14.22 5.48,-22.4 3.39,3.19 1.03,2.28 4.42,5.47 1.17,-4.36 4.4,-11.86 6.08,-15.94 2.14,-5.18 4.74,-10.54 7.04,-15.58 4.92,-10.8 12.34,-33.71 16.47,-40.97 4.25,-7.46 6.1,-19.49 8.98,-29.03 7.41,-24.55 17.05,-44.81 27.15,-65.16 4.86,-9.8 9.05,-21.44 14.07,-31.19 3.2,-6.22 4.88,-5.88 6.58,-14.88 0.87,-4.65 -0.54,-1.82 2.35,-7 1.58,-2.84 2.57,-3.97 4.26,-7.06 2.81,-5.17 4.6,-10.97 6.62,-16.77 2.39,-6.86 4.83,-8.63 7.15,-15.25l19.06 -50.22c2.93,-7.47 4.68,-8.76 7.03,-15.59l6.63 -16.73c1.49,-3.94 1.21,-4.55 2.64,-9.11 4.96,-15.81 14.9,-32.06 20.77,-47.72 1.47,-3.91 1.56,-6.14 3.03,-10.38 6.77,-19.65 19.81,-20.46 23.09,-22.29l2.87 -5.05c2.53,-12.19 1.27,-35.71 -3.33,-41.25 -9.39,-11.32 -18.47,-1.8 -24.84,-1.7 -5.99,-11.36 -3.06,-16.41 -12.52,-11.85l-11.62 4.94c-4.07,2.24 -1.1,-2.46 -4.54,6.05 -3.32,8.2 -4.72,6.52 -8.13,14.89 -2.86,7.01 -2.59,11.81 -6.1,18.03 -3.03,5.39 -5.69,8.19 -8.18,14.89 -7.66,20.59 -12.21,25.45 -15.15,32.86l-14.65 36.65c-3.68,12.91 -9.41,24.38 -14.36,35.09 -2.72,5.87 -4.57,13.26 -7.18,19.91 -2.61,6.62 -5.15,10.67 -6.26,17.43 -1.05,6.46 -4.7,11.85 -7.1,18.16 -14.12,37.06 -26.12,78.53 -42.87,110.61 -6.78,12.99 -10.29,17.72 -15.65,33.82 -7.27,21.82 -17.41,45.74 -23.26,69.11l-9.41 30.18c-1.26,4.51 -1.71,6.05 -3.18,9.93 -1.07,2.83 -3.19,7.52 -3.97,10.22 -2.15,7.38 -0.6,6.62 -2.3,12.26l-3.7 10.86c-0.13,0.39 -0.28,0.82 -0.41,1.21l-4.92 16.86c-3.3,13.56 -11.8,24.74 -11.72,40.21 -6.05,-5.69 -25.42,-74.82 -29.18,-88.5 -2.91,-10.6 -8.76,-42.05 -11.19,-48.89 -1.63,-4.58 -2.59,-5.22 -4.41,-9.99 -2.65,-6.93 -10.22,-27.51 -13.79,-30.87 1.91,-15.4 3.51,-30.82 -7,-29.41 -3.96,0.54 0.28,1.16 -2.93,0.65 -2.04,-0.31 -1.43,-0.59 -3.57,-2.45 3.5,-13.07 5.12,-13.63 -8.14,-23.1 -1.79,-1.28 -1.84,-1.84 -3.84,-3.72 -4.42,-4.15 -5.76,-2.15 -5.94,-9.86 5.93,2.39 9.31,0.31 14.28,0.23 0.66,-8.6 -3,-15.73 -5.61,-20.67 -6.34,-6.3 0.14,11.81 -17.24,-14.89l-4.37 -8.55c2.82,-0.04 5.41,-0.32 8.22,-0.37 0.47,-6.06 0.06,-6.71 -0.64,-11.3l14.22 -2.15c5.17,-1.68 10.27,-6.07 15.42,-6.15 -2.23,-9.18 -16.35,-8.6 -25.11,-12.03 -6.45,-2.53 -5.27,-0.08 -8.29,-0.52l-16.44 -5.69c-11.17,-6.47 -21.51,-37.15 -35.26,-48.47 -4.93,-4.05 -31.71,-14.2 -38.47,-16.34 -5.79,-1.83 -10.05,1.52 -13.02,8.22 -3.87,8.71 -1.28,16.07 0.45,25.84 2.74,15.44 8.88,19.95 16.46,39.85 2.56,6.72 5.34,13.39 8.07,19.36l32.51 81.68c7.17,20.56 14.22,44.17 22.33,63.23l7.69 19.79c1.78,5 2.44,5.62 4.34,10.08 7.01,16.44 9.37,26.95 20.63,51.63 3.49,7.64 3.13,12.13 7.03,20.55 4.25,9.15 6.06,17.72 10.49,25.62 4.89,8.72 5.6,16.77 9.84,26.36 8.07,18.25 29.16,76.67 33.29,95.83 -5.12,11.69 -18.63,57.82 -22.38,64.5 -5.51,9.81 -3.18,10.55 -7.23,22.16l-7.65 20.96c-2.63,7.89 -4.95,14.85 -7.31,21.91 -2.59,7.73 -4.62,13.85 -7.32,21.89 -7.6,22.58 -13.39,45.54 -21.88,68.36 -2.91,7.85 -1.45,2.25 -2.64,11.81l-1.79 6.24c-0.1,0.23 -0.33,0.61 -0.43,0.84 -0.1,0.22 -0.3,0.64 -0.39,0.86l-12.46 38.96c-0.8,3 -0.8,4.08 -1.69,7.05 -2.38,7.94 -4.78,9.91 -7.65,20.97l-28.51 92.12c-6.49,21.12 -14.61,42.22 -19.67,64.73 -1.08,4.81 -1.27,2.46 -2.72,6.71 -2.9,8.42 -3.67,18.12 -6.88,25.61 -1.87,4.36 -2.29,5.37 -3.45,11.59 -2.54,13.62 -4.19,13.41 -7.64,23.38 -6.09,17.62 -11.25,47.35 -19.74,71.97 -2.68,7.77 -3.75,20.06 -6.27,27.25 -5.96,16.98 -4.95,22.99 -13.25,47.73 -3.85,11.45 -3.39,9.55 -6.12,25.33 -1.88,10.91 -5.46,11.33 -7.13,24.79l8.52 -16.37c3.06,-6.24 5.91,-11.37 8.1,-19.43 4.06,-14.98 10.76,-26.37 15.56,-41.17 1.58,-4.87 3.63,-13.84 5.04,-18.87 5.12,-18.2 9.04,-25.9 15.29,-50.48 0.99,-3.89 2,-3.48 2.99,-8.42 0.75,-3.74 -0.21,-2.25 1.25,-6.67 1.73,-5.23 1.21,-2.15 3.07,-7.75l8.57 -27.86c2.11,-5.55 4.17,-9.95 6.19,-15.62 4.75,-13.36 8.84,-32.2 14.77,-43.44 3.07,-5.83 8.1,-26.17 15.11,-42.45 1.81,-4.21 3.8,-11.68 5.64,-17.18 1.13,-3.39 1.72,-5.45 2.85,-8.51l31.46 -88.49c1.75,-5.82 2.62,-12.82 4.73,-19.75 4.01,-13.11 7.83,-22.04 12.38,-33.61 2.17,-5.49 3.98,-10.28 6.25,-15.45l13.19 -31.45c3.38,-9.83 1.88,-11.15 0.63,-19.43 17.37,-29.8 11.21,-23.94 18.11,-38.67l15.97 -30.51c3.1,-5.7 15.52,-27.6 16.29,-32l-2.92 -1.18 2.18 -17.53c5.45,-0.4 13.8,-10.7 17.42,-16.9 11.46,17.63 22.39,37.76 32.95,57.1 7.8,14.29 16.72,29.83 22.97,45.96 2.37,6.14 4.14,11.14 9.3,13.44l2.85 -7.2c0.02,-0.11 0.09,-0.56 0.19,-0.78 6.68,5.8 10.22,22.89 13.97,33.67 1.91,5.49 2.06,8.55 4.1,13.36 6.66,15.67 12.61,30.44 19.64,45.24 7.1,14.92 14.02,28.44 20.72,44.01l20.23 44.56c3.42,7.33 6.37,13.88 10.04,21.63 4.11,8.69 6.26,14.31 9.62,23.6 3.18,8.78 7.11,13.09 10.54,21.05 2.98,6.9 0.48,4.43 4.37,11.55l16.06 32.79c3.13,5.91 1.31,5.69 4.04,11.93l25.18 53.36c1.48,1.37 2.23,1.05 1.51,-2.77 -0.98,-5.17 -2.89,-8.62 -4.96,-12.24 -3.85,-6.7 -4.31,-10.44 -7.39,-17.13l-17.92 -42.7c-1.66,-4.22 -2.34,-5.13 -3.97,-9l-66.14 -154.56c-4.55,-10.51 -11.21,-23.6 -13.76,-35.42z"/>
 </g>
</svg>
