<?xml version="1.0" encoding="UTF-8"?>
<!DOCTYPE svg PUBLIC "-//W3C//DTD SVG 1.1//EN" "http://www.w3.org/Graphics/SVG/1.1/DTD/svg11.dtd">
<!-- Creator: CorelDRAW (Versión de evaluación) -->
<svg xmlns="http://www.w3.org/2000/svg" xml:space="preserve" width="756px" height="2062px" version="1.1" style="shape-rendering:geometricPrecision; text-rendering:geometricPrecision; image-rendering:optimizeQuality; fill-rule:evenodd; clip-rule:evenodd"
viewBox="0 0 756 2062.79"
 xmlns:xlink="http://www.w3.org/1999/xlink"
 xmlns:xodm="http://www.corel.com/coreldraw/odm/2003">
 <defs>
  <style type="text/css">
   <![CDATA[
    .str0 {stroke:#ED3237;stroke-width:2;stroke-miterlimit:22.9256}
    .fil2 {fill:#4B4B4D}
    .fil3 {fill:#ED3237}
    .fil0 {fill:#F2E6C9}
    .fil1 {fill:#FAFAF7}
   ]]>
  </style>
 </defs>
 <g id="extraction">
  <metadata id="CorelCorpID_0Corel-Layer"/>
  <polygon id="root" class="fil0" points="287.92,418.61 280.72,418.61 280.72,425.82 277.12,425.82 277.12,433.02 273.52,433.02 273.52,443.82 269.92,443.82 269.92,465.42 266.32,465.42 266.32,587.82 269.92,587.82 269.92,710.21 266.32,710.21 266.32,760.62 262.72,760.62 262.72,807.41 259.12,807.41 259.12,829.01 255.52,829.01 255.52,854.22 251.92,854.22 251.92,886.62 248.32,886.62 248.32,908.22 244.72,908.22 244.72,951.42 248.32,951.42 248.32,958.61 251.92,958.61 251.92,969.41 255.52,969.41 255.52,976.61 259.12,976.61 259.12,983.82 262.72,983.82 262.72,991.01 266.32,991.01 266.32,1001.81 269.92,1001.81 269.92,1009.01 273.52,1009.01 273.52,1016.22 277.12,1016.22 277.12,1023.41 280.72,1023.41 280.72,1030.61 284.32,1030.61 284.32,1037.82 287.92,1037.82 287.92,1045.01 291.52,1045.01 291.52,1055.81 295.12,1055.81 295.12,1063.01 298.72,1063.01 298.72,1070.22 302.32,1070.22 302.32,1077.41 305.92,1077.41 305.92,1084.61 309.52,1084.61 309.52,1095.41 313.12,1095.41 313.12,1102.62 316.72,1102.62 316.72,1113.42 320.32,1113.42 320.32,1120.61 323.92,1120.61 323.92,1127.81 327.52,1127.81 327.52,1142.21 331.12,1142.21 331.12,1149.41 334.72,1149.41 334.72,1160.21 338.32,1160.21 338.32,1174.61 341.92,1174.61 341.92,1189.02 334.72,1189.02 334.72,1181.81 331.12,1181.81 331.12,1174.61 327.52,1174.61 327.52,1171.01 323.92,1171.01 323.92,1160.21 320.32,1160.21 320.32,1153.01 316.72,1153.01 316.72,1145.82 313.12,1145.82 313.12,1138.61 309.52,1138.61 309.52,1131.41 305.92,1131.41 305.92,1124.22 302.32,1124.22 302.32,1117.01 298.72,1117.01 298.72,1109.81 295.12,1109.81 295.12,1102.62 291.52,1102.62 291.52,1091.82 287.92,1091.82 287.92,1084.61 284.32,1084.61 284.32,1077.41 280.72,1077.41 280.72,1070.22 277.12,1070.22 277.12,1063.01 273.52,1063.01 273.52,1055.81 269.92,1055.81 269.92,1048.62 266.32,1048.62 266.32,1041.41 262.72,1041.41 262.72,1030.61 259.12,1030.61 259.12,1023.41 255.52,1023.41 255.52,1016.22 251.92,1016.22 251.92,1009.01 248.32,1009.01 248.32,1001.81 244.72,1001.81 244.72,994.62 241.12,994.62 241.12,987.41 237.52,987.41 237.52,980.21 233.92,980.21 233.92,969.41 230.32,969.41 230.32,962.22 226.72,962.22 226.72,955.02 223.12,955.02 223.12,940.62 219.52,940.62 219.52,929.82 215.92,929.82 215.92,919.02 212.32,919.02 212.32,908.22 208.72,908.22 208.72,893.81 205.12,893.81 205.12,883.01 201.52,883.01 201.52,872.21 197.92,872.21 197.92,854.22 194.32,854.22 194.32,843.42 190.72,843.42 190.72,825.42 187.12,825.42 187.12,803.82 183.52,803.82 183.52,785.81 179.92,785.81 179.92,764.22 176.32,764.22 176.32,728.22 172.72,728.22 172.72,699.41 169.12,699.41 169.12,656.21 165.52,656.21 165.52,587.82 161.92,587.82 161.92,526.62 158.32,526.62 158.32,505.01 154.72,505.01 154.72,497.82 151.12,497.82 151.12,487.02 147.52,487.02 147.52,476.22 143.92,476.22 143.92,472.61 140.32,472.61 140.32,469.02 136.72,469.02 136.72,465.42 122.32,465.42 122.32,469.02 118.72,469.02 118.72,472.61 115.12,472.61 115.12,476.22 111.52,476.22 111.52,479.82 107.92,479.82 107.92,490.62 104.32,490.62 104.32,497.82 100.72,497.82 100.72,505.01 97.12,505.01 97.12,515.81 93.52,515.81 93.52,530.22 89.92,530.22 89.92,541.02 86.32,541.02 86.32,555.42 82.72,555.42 82.72,573.42 79.12,573.42 79.12,591.42 75.52,591.42 75.52,605.82 71.92,605.82 71.92,627.42 68.32,627.42 68.32,656.21 64.72,656.21 64.72,677.81 61.12,677.81 61.12,706.62 57.52,706.62 57.52,742.61 53.92,742.61 53.92,879.42 57.52,879.42 57.52,893.81 61.12,893.81 61.12,922.62 64.72,922.62 64.72,940.62 68.32,940.62 68.32,973.02 71.92,973.02 71.92,994.62 75.52,994.62 75.52,1023.41 79.12,1023.41 79.12,1045.01 82.72,1045.01 82.72,1059.42 86.32,1059.42 86.32,1088.21 89.92,1088.21 89.92,1120.61 93.52,1120.61 93.52,1149.41 97.12,1149.41 97.12,1167.42 100.72,1167.42 100.72,1217.81 104.32,1217.81 104.32,1246.61 107.92,1246.61 107.92,1369.01 104.32,1369.01 104.32,1397.81 100.72,1397.81 100.72,1433.81 97.12,1433.81 97.12,1448.22 100.72,1448.22 100.72,1444.61 107.92,1444.61 107.92,1441.01 115.12,1441.01 115.12,1437.42 122.32,1437.42 122.32,1433.81 133.12,1433.81 133.12,1430.21 140.32,1430.21 140.32,1426.62 151.12,1426.62 151.12,1423.01 161.92,1423.01 161.92,1419.41 176.32,1419.41 176.32,1415.82 179.92,1415.82 179.92,1412.21 197.92,1412.21 197.92,1408.61 215.92,1408.61 215.92,1405.02 237.52,1405.02 237.52,1401.41 259.12,1401.41 259.12,1397.81 280.72,1397.81 280.72,1394.22 428.32,1394.22 428.32,1397.81 457.12,1397.81 457.12,1401.41 478.72,1401.41 478.72,1405.02 493.12,1405.02 493.12,1408.61 507.52,1408.61 507.52,1412.21 525.52,1412.21 525.52,1415.82 536.32,1415.82 536.32,1419.41 543.52,1419.41 543.52,1423.01 557.92,1423.01 557.92,1426.62 565.12,1426.62 565.12,1430.21 575.92,1430.21 575.92,1433.81 586.72,1433.81 586.72,1437.42 593.92,1437.42 593.92,1441.01 604.72,1441.01 604.72,1444.61 611.92,1444.61 611.92,1448.22 619.12,1448.22 619.12,1451.81 626.32,1451.81 626.32,1455.41 633.52,1455.41 633.52,1459.02 640.72,1459.02 640.72,1462.61 647.92,1462.61 647.92,1466.21 655.12,1466.21 655.12,1469.82 662.32,1469.82 662.32,1473.41 665.92,1473.41 665.92,1455.41 662.32,1455.41 662.32,1340.22 665.92,1340.22 665.92,1286.22 669.52,1286.22 669.52,1253.82 673.12,1253.82 673.12,1232.22 676.72,1232.22 676.72,1199.82 680.32,1199.82 680.32,1163.81 683.92,1163.81 683.92,1142.21 687.52,1142.21 687.52,1005.42 683.92,1005.42 683.92,958.61 680.32,958.61 680.32,940.62 676.72,940.62 676.72,919.02 673.12,919.02 673.12,897.42 669.52,897.42 669.52,872.21 665.92,872.21 665.92,861.41 662.32,861.41 662.32,847.02 658.72,847.02 658.72,829.01 655.12,829.01 655.12,814.62 651.52,814.62 651.52,800.22 647.92,800.22 647.92,785.81 644.32,785.81 644.32,771.42 640.72,771.42 640.72,757.02 637.12,757.02 637.12,746.22 633.52,746.22 633.52,735.42 629.92,735.42 629.92,728.22 626.32,728.22 626.32,710.21 622.72,710.21 622.72,703.02 619.12,703.02 619.12,692.22 615.52,692.22 615.52,685.02 611.92,685.02 611.92,670.62 608.32,670.62 608.32,663.42 604.72,663.42 604.72,652.62 601.12,652.62 601.12,641.82 597.52,641.82 597.52,634.61 593.92,634.61 593.92,623.81 590.32,623.81 590.32,616.62 586.72,616.62 586.72,609.42 583.12,609.42 583.12,602.21 579.52,602.21 579.52,595.02 575.92,595.02 575.92,587.82 572.32,587.82 572.32,577.02 568.72,577.02 568.72,573.42 565.12,573.42 565.12,566.22 561.52,566.22 561.52,559.02 557.92,559.02 557.92,555.42 554.32,555.42 554.32,548.22 550.72,548.22 550.72,544.62 547.12,544.62 547.12,537.42 543.52,537.42 543.52,533.82 539.92,533.82 539.92,530.22 536.32,530.22 536.32,526.62 532.72,526.62 532.72,523.02 529.12,523.02 529.12,519.42 525.52,519.42 525.52,515.81 521.92,515.81 521.92,512.22 514.72,512.22 514.72,508.62 503.92,508.62 503.92,512.22 500.32,512.22 500.32,515.81 496.72,515.81 496.72,533.82 493.12,533.82 493.12,602.21 496.72,602.21 496.72,645.41 500.32,645.41 500.32,706.62 503.92,706.62 503.92,836.22 500.32,836.22 500.32,872.21 496.72,872.21 496.72,904.61 493.12,904.61 493.12,919.02 489.52,919.02 489.52,944.22 485.92,944.22 485.92,965.81 482.32,965.81 482.32,980.21 478.72,980.21 478.72,994.62 475.12,994.62 475.12,1005.42 471.52,1005.42 471.52,1023.41 467.92,1023.41 467.92,1034.21 464.32,1034.21 464.32,1045.01 460.72,1045.01 460.72,1059.42 457.12,1059.42 457.12,1073.81 453.52,1073.81 453.52,1088.21 449.92,1088.21 449.92,1095.41 446.32,1095.41 446.32,1109.81 442.72,1109.81 442.72,1120.61 439.12,1120.61 439.12,1131.41 435.52,1131.41 435.52,1145.82 431.92,1145.82 431.92,1156.62 428.32,1156.62 428.32,1167.42 424.72,1167.42 424.72,1178.22 421.12,1178.22 421.12,1189.02 417.52,1189.02 417.52,1196.21 413.92,1196.21 413.92,1203.41 410.32,1203.41 410.32,1210.62 406.72,1210.62 406.72,1217.81 403.12,1217.81 403.12,1221.42 399.52,1221.42 399.52,1225.01 395.92,1225.01 395.92,1228.61 392.32,1228.61 392.32,1232.22 385.12,1232.22 385.12,1235.81 377.92,1235.81 377.92,1239.41 352.72,1239.41 352.72,1235.81 345.52,1235.81 345.52,1232.22 341.92,1232.22 341.92,1228.61 334.72,1228.61 334.72,1225.01 331.12,1225.01 331.12,1217.81 334.72,1217.81 334.72,1221.42 341.92,1221.42 341.92,1225.01 349.12,1225.01 349.12,1228.61 374.32,1228.61 374.32,1225.01 381.52,1225.01 381.52,1221.42 385.12,1221.42 385.12,1214.21 388.72,1214.21 388.72,1210.62 392.32,1210.62 392.32,1203.41 395.92,1203.41 395.92,1192.61 399.52,1192.61 399.52,1185.41 403.12,1185.41 403.12,1174.61 406.72,1174.61 406.72,1163.81 410.32,1163.81 410.32,1153.01 413.92,1153.01 413.92,1138.61 417.52,1138.61 417.52,1124.22 421.12,1124.22 421.12,1113.42 424.72,1113.42 424.72,1099.01 428.32,1099.01 428.32,1084.61 431.92,1084.61 431.92,1073.81 435.52,1073.81 435.52,1063.01 439.12,1063.01 439.12,1048.62 442.72,1048.62 442.72,1027.02 446.32,1027.02 446.32,1016.22 449.92,1016.22 449.92,1005.42 453.52,1005.42 453.52,991.01 457.12,991.01 457.12,976.61 460.72,976.61 460.72,958.61 464.32,958.61 464.32,947.81 467.92,947.81 467.92,922.62 464.32,922.62 464.32,904.61 460.72,904.61 460.72,890.22 457.12,890.22 457.12,872.21 453.52,872.21 453.52,857.82 449.92,857.82 449.92,836.22 446.32,836.22 446.32,818.21 442.72,818.21 442.72,800.22 439.12,800.22 439.12,785.81 435.52,785.81 435.52,771.42 431.92,771.42 431.92,760.62 428.32,760.62 428.32,746.22 424.72,746.22 424.72,735.42 421.12,735.42 421.12,721.01 417.52,721.01 417.52,703.02 413.92,703.02 413.92,692.22 410.32,692.22 410.32,677.81 406.72,677.81 406.72,663.42 403.12,663.42 403.12,649.02 399.52,649.02 399.52,634.61 395.92,634.61 395.92,627.42 392.32,627.42 392.32,613.01 388.72,613.01 388.72,598.62 385.12,598.62 385.12,587.82 381.52,587.82 381.52,577.02 377.92,577.02 377.92,562.62 374.32,562.62 374.32,555.42 370.72,555.42 370.72,541.02 367.12,541.02 367.12,530.22 363.52,530.22 363.52,523.02 359.92,523.02 359.92,512.22 356.32,512.22 356.32,501.42 352.72,501.42 352.72,494.21 349.12,494.21 349.12,483.41 345.52,483.41 345.52,476.22 341.92,476.22 341.92,469.02 338.32,469.02 338.32,461.81 334.72,461.81 334.72,454.62 331.12,454.62 331.12,447.42 327.52,447.42 327.52,443.82 323.92,443.82 323.92,436.62 320.32,436.62 320.32,433.02 316.72,433.02 316.72,429.41 313.12,429.41 313.12,422.22 309.52,422.22 309.52,418.61 302.32,418.61 302.32,415.02 287.92,415.02 "/>
  <path id="crown" class="fil1" d="M309.52 1743.41l7.2 0 0 28.8 3.6 0 0 7.2 3.6 0 0 18 3.6 0 0 10.8 3.6 0 0 7.21 3.6 0 0 10.8 3.6 0 0 7.19 3.6 0 0 7.2 3.6 0 0 7.21 3.6 0 0 3.59 3.6 0 0 3.6 7.2 0 0 3.6 7.2 0 0 3.6 3.6 0 0 3.6 3.6 0 0 3.6 7.2 0 0 3.6 3.6 0 0 3.6 7.2 0 0 3.6 3.6 0 0 3.6 7.2 0 0 3.6 7.2 0 0 3.6 3.6 0 0 3.6 7.2 0 0 3.6 7.2 0 0 3.6 7.2 0 0 3.6 7.2 0 0 3.6 7.2 0 0 3.6 7.2 0 0 3.6 10.8 0 0 3.6 7.2 0 0 3.6 7.2 0 0 3.6 14.4 0 0 3.6 10.8 0 0 3.6 14.4 0 0 3.6 39.6 0 0 -3.6 10.8 0 0 -3.6 10.8 0 0 -3.6 7.2 0 0 -3.6 10.8 0 0 -3.6 3.6 0 0 -3.6 7.2 0 0 -3.6 3.6 0 0 -3.6 3.6 0 0 -3.6 7.2 0 0 -3.6 3.6 0 0 -3.6 3.6 0 0 -3.6 3.6 0 0 -3.6 3.6 0 0 -3.6 3.6 0 0 -3.6 3.6 0 0 -3.6 3.6 0 0 -3.6 3.6 0 0 -3.6 3.6 0 0 -3.6 3.6 0 0 -3.6 3.6 0 0 -3.6 3.6 0 0 3.6 3.6 0 0 7.2 -3.6 0 0 7.2 -3.6 0 0 3.6 -3.6 0 0 7.2 -3.6 0 0 3.6 -3.6 0 0 3.6 -3.6 0 0 3.6 -3.6 0 0 3.6 -3.6 0 0 3.6 -3.6 0 0 3.6 -7.2 0 0 3.6 -3.6 0 0 3.6 -3.6 0 0 3.6 -3.6 0 0 3.6 -7.2 0 0 3.6 -7.2 0 0 3.6 -7.2 0 0 3.6 -7.2 0 0 3.6 -7.2 0 0 3.6 -7.2 0 0 3.6 -10.8 0 0 3.6 -57.6 0 0 -3.6 -14.4 0 0 -3.6 -10.8 0 0 -3.6 -10.8 0 0 -3.6 -7.2 0 0 -3.6 -7.2 0 0 -3.6 -10.8 0 0 -3.6 -7.2 0 0 -3.6 -10.8 0 0 -3.6 -3.6 0 0 -3.6 -7.2 0 0 -3.6 -7.2 0 0 -3.6 -7.2 0 0 -3.6 -7.2 0 0 -3.6 -7.2 0 0 -3.6 -3.6 0 0 -3.6 -7.2 0 0 -3.6 -3.6 0 0 -3.6 -7.2 0 0 -3.6 -3.6 0 0 -3.6 -3.6 0 0 -3.6 -7.2 0 0 -3.6 -3.6 0 0 -3.6 -7.2 0 0 32.4 3.6 0 0 14.4 3.6 0 0 7.2 3.6 0 0 10.8 -7.2 0 0 -3.6 -3.6 0 0 -3.6 -3.6 0 0 -7.2 -3.6 0 0 -10.8 -3.6 0 0 -43.2 -3.6 0 0 3.6 -10.8 0 0 3.6 -10.8 0 0 3.6 -7.2 0 0 3.6 -10.8 0 0 3.6 -7.2 0 0 3.6 -7.2 0 0 3.6 -10.8 0 0 3.6 -7.2 0 0 3.6 -10.8 0 0 3.6 -10.8 0 0 3.6 -10.8 0 0 3.6 -10.8 0 0 3.6 -18 0 0 3.6 -28.8 0 0 -3.6 -10.8 0 0 -3.6 -7.2 0 0 -3.6 -3.6 0 0 -3.6 -7.2 0 0 -3.6 -3.6 0 0 -3.6 -3.6 0 0 -3.6 -3.6 0 0 -3.6 -3.6 0 0 -3.6 -3.6 0 0 -3.6 -3.6 0 0 -3.6 -3.6 0 0 -3.6 -3.6 0 0 -7.2 -3.6 0 0 -3.6 -3.6 0 0 -7.2 -3.6 0 0 -3.6 -3.6 0 0 -7.2 -3.6 0 0 -7.19 -3.6 0 0 -7.21 -3.6 0 0 -7.2 -3.6 0 0 -10.8 -3.6 0 0 -28.8 7.2 0 0 10.8 3.6 0 0 10.81 3.6 0 0 7.19 3.6 0 0 7.2 3.6 0 0 10.8 3.6 0 0 3.6 3.6 0 0 7.2 3.6 0 0 3.6 3.6 0 0 7.2 3.6 0 0 3.6 3.6 0 0 7.2 3.6 0 0 3.6 3.6 0 0 3.6 3.6 0 0 3.6 3.6 0 0 3.6 3.6 0 0 3.6 3.6 0 0 3.6 3.6 0 0 3.6 3.6 0 0 3.6 7.2 0 0 3.6 7.2 0 0 3.6 10.8 0 0 3.6 18 0 0 -3.6 14.4 0 0 -3.6 7.2 0 0 -3.6 14.4 0 0 -3.6 7.2 0 0 -3.6 10.8 0 0 -3.6 10.8 0 0 -3.6 7.2 0 0 -3.6 7.2 0 0 -3.6 10.8 0 0 -3.6 7.2 0 0 -3.6 7.2 0 0 -3.6 10.8 0 0 -3.6 14.4 0 0 -3.6 7.2 0 0 -7.2 -3.6 0 0 -7.19 -3.6 0 0 -7.21 -3.6 0 0 -10.8 -3.6 0 0 -10.8 -3.6 0 0 -18 -3.6 0 0 -46.8zm-10.8 -331.2l-28.8 0 0 3.61 -21.6 0 0 3.59 -18 0 0 3.6 -25.2 0 0 3.61 -10.8 0 0 3.59 -14.4 0 0 3.6 -10.8 0 0 3.61 -14.4 0 0 3.59 -7.2 0 0 3.6 -10.8 0 0 3.61 -7.2 0 0 3.59 -10.8 0 0 3.6 -7.2 0 0 3.61 -7.2 0 0 3.59 -7.2 0 0 3.6 -3.6 0 0 7.2 -3.6 0 0 7.2 -3.6 0 0 7.2 -3.6 0 0 10.8 -3.6 0 0 7.2 -3.6 0 0 10.8 -3.6 0 0 7.2 -3.6 0 0 10.8 -3.6 0 0 7.2 -3.6 0 0 10.8 -3.6 0 0 10.8 -3.6 0 0 10.8 -3.6 0 0 10.8 -3.6 0 0 14.41 -3.6 0 0 14.39 -3.6 0 0 14.4 -3.6 0 0 21.6 -3.6 0 0 18 -3.6 0 0 21.6 -3.6 0 0 10.8 -3.6 0 0 72 3.6 0 0 25.2 3.6 0 0 10.8 3.6 0 0 14.4 3.6 0 0 10.8 3.6 0 0 7.2 3.6 0 0 7.21 3.6 0 0 7.19 3.6 0 0 7.2 3.6 0 0 7.2 3.6 0 0 3.6 3.6 0 0 7.2 3.6 0 0 3.6 3.6 0 0 3.6 3.6 0 0 3.6 3.6 0 0 7.2 3.6 0 0 3.6 3.6 0 0 3.6 3.6 0 0 3.6 3.6 0 0 3.6 3.6 0 0 3.6 3.6 0 0 3.6 3.6 0 0 3.6 7.2 0 0 3.6 3.6 0 0 3.6 3.6 0 0 3.6 3.6 0 0 3.6 3.6 0 0 3.6 3.6 0 0 3.6 3.6 0 0 3.6 7.2 0 0 3.6 3.6 0 0 3.6 3.6 0 0 3.6 7.2 0 0 3.6 3.6 0 0 3.6 7.2 0 0 3.6 7.2 0 0 3.6 7.2 0 0 3.6 14.4 0 0 3.6 18 0 0 -3.6 18 0 0 -3.6 10.8 0 0 -3.6 10.8 0 0 -3.6 7.2 0 0 -3.6 10.8 0 0 -3.6 7.2 0 0 -3.6 10.8 0 0 -3.6 7.2 0 0 -3.6 7.2 0 0 -3.6 18 0 0 -3.6 10.8 0 0 -3.6 43.2 0 0 3.6 7.2 0 0 3.6 14.4 0 0 3.6 7.2 0 0 3.6 7.2 0 0 3.6 7.2 0 0 3.6 7.2 0 0 3.6 7.2 0 0 3.6 7.2 0 0 3.6 7.2 0 0 3.6 7.2 0 0 3.6 7.2 0 0 3.6 7.2 0 0 3.6 10.8 0 0 3.6 7.2 0 0 3.6 14.4 0 0 3.6 7.2 0 0 3.6 36 0 0 -3.6 14.4 0 0 -3.6 14.4 0 0 -3.6 7.2 0 0 -3.6 7.2 0 0 -3.6 7.2 0 0 -3.6 3.6 0 0 -3.6 7.2 0 0 -3.6 7.2 0 0 -3.6 3.6 0 0 -3.6 7.2 0 0 -3.6 3.6 0 0 -3.6 3.6 0 0 -3.6 7.2 0 0 -3.6 3.6 0 0 -3.6 3.6 0 0 -3.6 3.6 0 0 -3.6 3.6 0 0 -3.6 3.6 0 0 -3.6 3.6 0 0 -3.6 3.6 0 0 -3.6 3.6 0 0 -3.6 3.6 0 0 -3.6 3.6 0 0 -7.2 3.6 0 0 -3.6 3.6 0 0 -3.6 3.6 0 0 -7.2 3.6 0 0 -3.6 3.6 0 0 -3.6 3.6 0 0 -7.2 3.6 0 0 -3.6 3.6 0 0 -7.2 3.6 0 0 -7.2 3.6 0 0 -7.2 3.6 0 0 -3.6 3.6 0 0 -10.8 3.6 0 0 -7.2 3.6 0 0 -10.8 3.6 0 0 -10.8 3.6 0 0 -14.4 3.6 0 0 -82.8 -3.6 0 0 -21.6 -3.6 0 0 -21.6 -3.6 0 0 -14.4 -3.6 0 0 -7.2 -3.6 0 0 -14.4 -3.6 0 0 -18 -3.6 0 0 -10.8 -3.6 0 0 -14.4 -3.6 0 0 -10.8 -3.6 0 0 -10.8 -3.6 0 0 -10.8 -3.6 0 0 -10.8 -3.6 0 0 -7.2 -3.6 0 0 -18 -3.6 0 0 -14.4 -3.6 0 0 -10.8 -3.6 0 0 -7.2 -3.6 0 0 -3.6 -7.2 0 0 -3.6 -7.2 0 0 -3.6 -7.2 0 0 -3.6 -7.2 0 0 -3.6 -7.2 0 0 -3.59 -7.2 0 0 -3.61 -7.2 0 0 -3.6 -7.2 0 0 -3.59 -7.2 0 0 -3.61 -7.2 0 0 -3.6 -10.8 0 0 -3.59 -10.8 0 0 -3.61 -10.8 0 0 -3.6 -10.8 0 0 -3.59 -10.8 0 0 -3.61 -10.8 0 0 -3.6 -10.8 0 0 -3.59 -18 0 0 -3.61 -14.4 0 0 -3.6 -18 0 0 -3.59 -21.6 0 0 -3.61 -36 0 0 -3.6 -111.6 0 0 3.6z"/>
  <path id="outline" class="fil2" d="M21.52 1700.21l3.6 0 0 -10.8 3.6 0 0 -21.6 3.6 0 0 -17.99 3.6 0 0 -21.61 3.6 0 0 -14.4 3.6 0 0 -14.4 3.6 0 0 -14.4 3.6 0 0 -10.8 3.6 0 0 -10.8 3.6 0 0 -10.8 3.6 0 0 -10.8 3.6 0 0 -7.2 3.6 0 0 -10.8 3.6 0 0 -7.2 3.6 0 0 -10.8 3.6 0 0 -7.2 3.6 0 0 -10.8 3.6 0 0 -7.19 3.6 0 0 -7.21 3.6 0 0 -7.2 3.6 0 0 -3.6 7.2 0 0 -3.59 7.2 0 0 -3.61 7.2 0 0 -3.6 10.8 0 0 -3.59 7.2 0 0 -3.61 10.8 0 0 -3.6 7.2 0 0 -3.59 14.4 0 0 -3.61 10.8 0 0 -3.6 14.4 0 0 -3.59 10.8 0 0 -3.61 25.2 0 0 -3.6 18 0 0 -3.59 21.6 0 0 -3.61 28.8 0 0 -3.6 111.6 0 0 3.6 36 0 0 3.61 21.6 0 0 3.59 18 0 0 3.6 14.4 0 0 3.61 18 0 0 3.59 10.8 0 0 3.6 10.8 0 0 3.61 10.8 0 0 3.59 10.8 0 0 3.6 10.8 0 0 3.61 10.8 0 0 3.59 10.8 0 0 3.6 7.2 0 0 3.61 7.19 0 0 3.59 7.21 0 0 3.6 7.19 0 0 3.61 7.21 0 0 3.59 7.2 0 0 3.6 7.2 0 0 3.61 7.2 0 0 3.59 7.2 0 0 3.6 7.2 0 0 3.6 3.6 0 0 7.2 3.6 0 0 10.8 3.6 0 0 14.4 3.6 0 0 18 3.6 0 0 7.2 3.6 0 0 10.8 3.6 0 0 10.8 3.6 0 0 10.8 3.6 0 0 10.8 3.6 0 0 14.4 3.6 0 0 10.8 3.6 0 0 18 3.6 0 0 14.41 3.6 0 0 7.19 3.6 0 0 14.4 3.6 0 0 21.6 3.6 0 0 21.6 3.6 0 0 82.8 -3.6 0 0 14.4 -3.6 0 0 10.8 -3.6 0 0 10.8 -3.6 0 0 7.2 -3.6 0 0 10.8 -3.6 0 0 3.6 -3.6 0 0 7.2 -3.6 0 0 7.2 -3.6 0 0 7.2 -3.6 0 0 3.6 -3.6 0 0 7.2 -3.6 0 0 3.6 -3.6 0 0 3.6 -3.6 0 0 7.2 -3.6 0 0 3.6 -3.6 0 0 3.6 -3.6 0 0 7.2 -3.6 0 0 3.6 -3.6 0 0 3.6 -3.6 0 0 3.6 -3.6 0 0 3.6 -3.6 0 0 3.6 -3.6 0 0 3.6 -3.6 0 0 3.6 -3.6 0 0 3.6 -3.6 0 0 3.6 -3.6 0 0 3.6 -7.2 0 0 3.6 -3.61 0 0 3.6 -3.59 0 0 3.6 -7.2 0 0 3.6 -3.61 0 0 3.6 -7.19 0 0 3.6 -7.2 0 0 3.6 -3.6 0 0 3.6 -7.2 0 0 3.6 -7.2 0 0 3.6 -7.2 0 0 3.6 -14.4 0 0 3.6 -14.4 0 0 3.6 -36 0 0 -3.6 -7.2 0 0 -3.6 -14.4 0 0 -3.6 -7.2 0 0 -3.6 -10.8 0 0 -3.6 -7.2 0 0 -3.6 -7.2 0 0 -3.6 -7.2 0 0 -3.6 -7.2 0 0 -3.6 -7.2 0 0 -3.6 -7.2 0 0 -3.6 -7.2 0 0 -3.6 -7.2 0 0 -3.6 -7.2 0 0 -3.6 -7.2 0 0 -3.6 -14.4 0 0 -3.6 -7.2 0 0 -3.6 -43.2 0 0 3.6 -10.8 0 0 3.6 -18 0 0 3.6 -7.2 0 0 3.6 -7.2 0 0 3.6 -10.8 0 0 3.6 -7.2 0 0 3.6 -10.8 0 0 3.6 -7.2 0 0 3.6 -10.8 0 0 3.6 -10.8 0 0 3.6 -18 0 0 3.6 -18 0 0 -3.6 -14.4 0 0 -3.6 -7.2 0 0 -3.6 -7.2 0 0 -3.6 -7.2 0 0 -3.6 -3.6 0 0 -3.6 -7.2 0 0 -3.6 -3.6 0 0 -3.6 -3.6 0 0 -3.6 -7.2 0 0 -3.6 -3.6 0 0 -3.6 -3.6 0 0 -3.6 -3.6 0 0 -3.6 -3.6 0 0 -3.6 -3.6 0 0 -3.6 -3.6 0 0 -3.6 -7.2 0 0 -3.6 -3.6 0 0 -3.6 -3.6 0 0 -3.6 -3.6 0 0 -3.6 -3.6 0 0 -3.6 -3.6 0 0 -3.6 -3.6 0 0 -3.6 -3.6 0 0 -7.2 -3.6 0 0 -3.6 -3.6 0 0 -3.6 -3.6 0 0 -3.6 -3.6 0 0 -7.2 -3.6 0 0 -3.6 -3.6 0 0 -7.2 -3.6 0 0 -7.2 -3.6 0 0 -7.2 -3.6 0 0 -7.2 -3.6 0 0 -7.2 -3.6 0 0 -10.8 -3.6 0 0 -14.4 -3.6 0 0 -10.8 -3.6 0 0 -25.19 -3.6 0 0 -72.01zm244.8 -1234.79l3.6 0 0 -21.6 3.6 0 0 -10.8 3.6 0 0 -7.2 3.6 0 0 -7.2 7.2 0 0 -3.6 14.4 0 0 3.6 7.2 0 0 3.6 3.6 0 0 7.2 3.6 0 0 3.6 3.6 0 0 3.6 3.6 0 0 7.2 3.6 0 0 3.6 3.6 0 0 7.19 3.6 0 0 7.2 3.6 0 0 7.21 3.6 0 0 7.2 3.6 0 0 7.19 3.6 0 0 10.8 3.6 0 0 7.21 3.6 0 0 10.8 3.6 0 0 10.8 3.6 0 0 7.2 3.6 0 0 10.8 3.6 0 0 14.4 3.6 0 0 7.2 3.6 0 0 14.4 3.6 0 0 10.8 3.6 0 0 10.8 3.6 0 0 14.39 3.6 0 0 14.4 3.6 0 0 7.2 3.6 0 0 14.41 3.6 0 0 14.4 3.6 0 0 14.39 3.6 0 0 14.41 3.6 0 0 10.8 3.6 0 0 18 3.6 0 0 14.4 3.6 0 0 10.8 3.6 0 0 14.4 3.6 0 0 10.8 3.6 0 0 14.39 3.6 0 0 14.41 3.6 0 0 17.99 3.6 0 0 18.01 3.6 0 0 21.6 3.6 0 0 14.39 3.6 0 0 18.01 3.6 0 0 14.4 3.6 0 0 18 3.6 0 0 25.2 -3.6 0 0 10.79 -3.6 0 0 18 -3.6 0 0 14.4 -3.6 0 0 14.4 -3.6 0 0 10.81 -3.6 0 0 10.79 -3.6 0 0 21.61 -3.6 0 0 14.39 -3.6 0 0 10.8 -3.6 0 0 10.8 -3.6 0 0 14.4 -3.6 0 0 14.4 -3.6 0 0 10.81 -3.6 0 0 14.39 -3.6 0 0 14.4 -3.6 0 0 10.8 -3.6 0 0 10.8 -3.6 0 0 10.8 -3.6 0 0 7.2 -3.6 0 0 10.8 -3.6 0 0 7.2 -3.6 0 0 3.6 -3.6 0 0 7.21 -3.6 0 0 3.59 -7.2 0 0 3.6 -25.2 0 0 -3.6 -7.2 0 0 -3.59 -7.2 0 0 -3.61 -3.6 0 0 7.2 3.6 0 0 3.6 7.2 0 0 3.6 3.6 0 0 3.6 7.2 0 0 3.6 25.2 0 0 -3.6 7.2 0 0 -3.6 7.2 0 0 -3.6 3.6 0 0 -3.6 3.6 0 0 -3.59 3.6 0 0 -3.61 3.6 0 0 -7.2 3.6 0 0 -7.2 3.6 0 0 -7.2 3.6 0 0 -7.19 3.6 0 0 -10.8 3.6 0 0 -10.8 3.6 0 0 -10.8 3.6 0 0 -10.81 3.6 0 0 -14.4 3.6 0 0 -10.79 3.6 0 0 -10.81 3.6 0 0 -14.4 3.6 0 0 -7.2 3.6 0 0 -14.4 3.6 0 0 -14.39 3.6 0 0 -14.4 3.6 0 0 -10.81 3.6 0 0 -10.79 3.6 0 0 -18.01 3.6 0 0 -10.8 3.6 0 0 -14.4 3.6 0 0 -14.4 3.6 0 0 -21.59 3.59 0 0 -25.2 3.61 0 0 -14.4 3.6 0 0 -32.41 3.6 0 0 -35.99 3.6 0 0 -129.6 -3.6 0 0 -61.21 -3.6 0 0 -43.2 -3.6 0 0 -68.39 3.6 0 0 -18 3.6 0 0 -3.6 3.6 0 0 -3.6 10.8 0 0 3.6 7.2 0 0 3.6 3.6 0 0 3.6 3.6 0 0 3.6 3.6 0 0 3.59 3.6 0 0 3.61 3.6 0 0 3.6 3.6 0 0 3.6 3.6 0 0 7.2 3.6 0 0 3.59 3.6 0 0 7.21 3.6 0 0 3.59 3.6 0 0 7.21 3.6 0 0 7.2 3.6 0 0 3.6 3.6 0 0 10.8 3.6 0 0 7.2 3.6 0 0 7.19 3.6 0 0 7.21 3.6 0 0 7.19 3.6 0 0 7.2 3.6 0 0 10.8 3.6 0 0 7.21 3.6 0 0 10.8 3.6 0 0 10.8 3.59 0 0 7.2 3.61 0 0 14.4 3.6 0 0 7.2 3.6 0 0 10.8 3.59 0 0 7.2 3.61 0 0 18 3.6 0 0 7.2 3.6 0 0 10.8 3.6 0 0 10.8 3.6 0 0 14.4 3.6 0 0 14.39 3.6 0 0 14.41 3.6 0 0 14.4 3.6 0 0 14.39 3.6 0 0 18.01 3.6 0 0 14.39 3.6 0 0 10.8 3.6 0 0 25.21 3.6 0 0 21.6 3.6 0 0 21.6 3.6 0 0 17.99 3.6 0 0 46.8 3.6 0 0 136.8 -3.6 0 0 21.6 -3.6 0 0 36.01 -3.6 0 0 32.39 -3.6 0 0 21.61 -3.6 0 0 32.4 -3.6 0 0 53.99 -3.6 0 0 115.2 3.6 0 0 18 -3.6 0 0 -3.59 -7.2 0 0 -3.61 -7.2 0 0 -3.6 -7.2 0 0 -3.59 -7.2 0 0 -3.61 -7.2 0 0 -3.6 -7.2 0 0 -3.59 -7.2 0 0 -3.61 -7.2 0 0 -3.6 -10.8 0 0 -3.59 -7.2 0 0 -3.61 -10.8 0 0 -3.6 -10.8 0 0 -3.59 -7.2 0 0 -3.61 -14.4 0 0 -3.6 -7.2 0 0 -3.59 -10.8 0 0 -3.61 -18 0 0 -3.6 -14.4 0 0 -3.59 -14.4 0 0 -3.61 -21.6 0 0 -3.6 -28.8 0 0 -3.59 -147.6 0 0 3.59 -21.6 0 0 3.6 -21.6 0 0 3.61 -21.6 0 0 3.59 -18 0 0 3.6 -18 0 0 3.61 -3.6 0 0 3.59 -14.4 0 0 3.6 -10.8 0 0 3.61 -10.8 0 0 3.59 -7.2 0 0 3.6 -10.8 0 0 3.61 -7.2 0 0 3.59 -7.2 0 0 3.6 -7.2 0 0 3.61 -3.6 0 0 -14.41 3.6 0 0 -36 3.6 0 0 -28.8 3.6 0 0 -122.4 -3.6 0 0 -28.8 -3.6 0 0 -50.39 -3.6 0 0 -18.01 -3.6 0 0 -28.79 -3.6 0 0 -32.41 -3.6 0 0 -28.79 -3.6 0 0 -14.4 -3.6 0 0 -21.6 -3.6 0 0 -28.81 -3.6 0 0 -21.6 -3.6 0 0 -32.39 -3.6 0 0 -18 -3.6 0 0 -28.81 -3.6 0 0 -14.39 -3.6 0 0 -136.8 3.6 0 0 -36 3.6 0 0 -28.81 3.6 0 0 -21.6 3.6 0 0 -28.8 3.6 0 0 -21.59 3.6 0 0 -14.4 3.6 0 0 -18 3.6 0 0 -18 3.6 0 0 -14.4 3.6 0 0 -10.8 3.6 0 0 -14.4 3.6 0 0 -10.81 3.6 0 0 -7.19 3.6 0 0 -7.2 3.6 0 0 -10.8 3.6 0 0 -3.6 3.6 0 0 -3.61 3.6 0 0 -3.59 3.6 0 0 -3.6 14.4 0 0 3.6 3.6 0 0 3.59 3.6 0 0 3.61 3.6 0 0 10.8 3.6 0 0 10.8 3.6 0 0 7.19 3.6 0 0 21.6 3.6 0 0 61.21 3.6 0 0 68.39 3.6 0 0 43.21 3.6 0 0 28.8 3.6 0 0 36 3.6 0 0 21.59 3.6 0 0 18.01 3.6 0 0 21.6 3.6 0 0 18 3.6 0 0 10.8 3.6 0 0 17.99 3.6 0 0 10.8 3.6 0 0 10.8 3.6 0 0 14.41 3.6 0 0 10.8 3.6 0 0 10.8 3.6 0 0 10.8 3.6 0 0 14.4 3.6 0 0 7.19 3.6 0 0 7.2 3.6 0 0 10.8 3.6 0 0 7.2 3.6 0 0 7.2 3.6 0 0 7.2 3.6 0 0 7.2 3.6 0 0 7.21 3.6 0 0 7.2 3.6 0 0 7.19 3.6 0 0 10.8 3.6 0 0 7.21 3.6 0 0 7.19 3.6 0 0 7.2 3.6 0 0 7.21 3.6 0 0 7.19 3.6 0 0 7.2 3.6 0 0 7.21 3.6 0 0 10.8 3.6 0 0 7.19 3.6 0 0 7.2 3.6 0 0 7.21 3.6 0 0 7.19 3.6 0 0 7.2 3.6 0 0 7.2 3.6 0 0 7.2 3.6 0 0 7.2 3.6 0 0 10.8 3.6 0 0 3.6 3.6 0 0 7.2 3.6 0 0 7.21 7.2 0 0 -14.41 -3.6 0 0 -14.4 -3.6 0 0 -10.8 -3.6 0 0 -7.2 -3.6 0 0 -14.4 -3.6 0 0 -7.19 -3.6 0 0 -7.21 -3.6 0 0 -10.79 -3.6 0 0 -7.21 -3.6 0 0 -10.8 -3.6 0 0 -7.2 -3.6 0 0 -7.19 -3.6 0 0 -7.21 -3.6 0 0 -7.2 -3.6 0 0 -10.79 -3.6 0 0 -7.2 -3.6 0 0 -7.21 -3.6 0 0 -7.19 -3.6 0 0 -7.2 -3.6 0 0 -7.21 -3.6 0 0 -7.2 -3.6 0 0 -10.8 -3.6 0 0 -7.2 -3.6 0 0 -7.2 -3.6 0 0 -7.2 -3.6 0 0 -10.8 -3.6 0 0 -7.19 -3.6 0 0 -43.2 3.6 0 0 -21.6 3.6 0 0 -32.4 3.6 0 0 -25.21 3.6 0 0 -21.6 3.6 0 0 -46.79 3.6 0 0 -50.4 3.6 0 0 -122.4 -3.6 0 0 -122.4zm14.4 -68.4l-7.2 0 0 3.6 -3.6 0 0 3.6 -3.6 0 0 3.6 -3.6 0 0 7.2 -3.6 0 0 3.6 -3.6 0 0 10.8 -3.6 0 0 7.2 -3.6 0 0 14.39 -3.6 0 0 126.01 3.6 0 0 129.6 -3.6 0 0 61.2 -3.6 0 0 25.2 -3.6 0 0 25.19 -3.6 0 0 32.4 -3.6 0 0 32.4 -7.2 0 0 -17.99 -3.6 0 0 -14.41 -3.6 0 0 -14.39 -3.6 0 0 -14.4 -3.6 0 0 -21.6 -3.6 0 0 -18 -3.6 0 0 -25.2 -3.6 0 0 -36 -3.6 0 0 -18 -3.6 0 0 -50.4 -3.6 0 0 -111.6 -3.6 0 0 -25.2 -3.6 0 0 -21.61 -3.6 0 0 -7.19 -3.6 0 0 -10.8 -3.6 0 0 -7.2 -3.6 0 0 -7.21 -3.6 0 0 -3.59 -3.6 0 0 -3.61 -3.6 0 0 -3.6 -3.6 0 0 -3.59 -3.6 0 0 -3.6 -7.2 0 0 -3.61 -21.6 0 0 3.61 -7.2 0 0 3.6 -3.6 0 0 3.59 -3.6 0 0 3.6 -3.6 0 0 3.61 -3.6 0 0 3.59 -3.6 0 0 7.21 -3.6 0 0 7.2 -3.6 0 0 3.6 -3.6 0 0 10.8 -3.6 0 0 7.2 -3.6 0 0 10.8 -3.6 0 0 10.8 -3.6 0 0 14.4 -3.6 0 0 10.8 -3.6 0 0 18 -3.6 0 0 10.8 -3.6 0 0 21.6 -3.6 0 0 17.99 -3.6 0 0 25.21 -3.6 0 0 21.6 -3.6 0 0 28.79 -3.6 0 0 50.41 -3.6 0 0 126 3.6 0 0 50.4 3.6 0 0 18 3.6 0 0 25.19 3.6 0 0 21.6 3.6 0 0 28.8 3.6 0 0 18 3.6 0 0 25.2 3.6 0 0 21.6 3.6 0 0 25.2 3.6 0 0 21.61 3.6 0 0 32.39 3.6 0 0 28.8 3.6 0 0 32.4 3.6 0 0 57.61 3.6 0 0 79.19 -3.6 0 0 36 -3.6 0 0 43.2 -3.6 0 0 14.4 -3.6 0 0 14.41 -3.6 0 0 14.39 -3.6 0 0 7.21 -3.6 0 0 7.19 -3.6 0 0 10.8 -3.6 0 0 7.2 -3.6 0 0 10.8 -3.6 0 0 7.2 -3.6 0 0 7.2 -3.6 0 0 10.8 -3.6 0 0 10.8 -3.6 0 0 10.8 -3.6 0 0 10.8 -3.6 0 0 10.8 -3.6 0 0 18 -3.6 0 0 18.01 -3.6 0 0 10.8 -3.6 0 0 18 -3.6 0 0 17.99 -3.6 0 0 21.6 -3.6 0 0 90 3.6 0 0 21.6 3.6 0 0 14.41 3.6 0 0 10.8 3.6 0 0 10.79 3.6 0 0 7.2 3.6 0 0 10.8 3.6 0 0 3.6 3.6 0 0 10.8 3.6 0 0 7.2 3.6 0 0 7.2 3.6 0 0 3.6 3.6 0 0 7.2 3.6 0 0 3.6 3.6 0 0 3.6 3.6 0 0 3.6 3.6 0 0 3.6 3.6 0 0 7.2 3.6 0 0 3.6 3.6 0 0 3.6 3.6 0 0 3.6 3.6 0 0 3.6 3.6 0 0 3.6 3.6 0 0 3.6 7.2 0 0 3.6 3.6 0 0 3.6 3.6 0 0 3.6 3.6 0 0 3.6 3.6 0 0 3.6 3.6 0 0 3.6 3.6 0 0 3.6 3.6 0 0 3.6 7.2 0 0 3.6 3.6 0 0 3.6 3.6 0 0 3.6 7.2 0 0 3.6 3.6 0 0 3.6 7.2 0 0 3.6 3.6 0 0 3.6 7.2 0 0 3.6 7.2 0 0 3.6 10.8 0 0 3.6 54 0 0 -3.6 7.2 0 0 -3.6 10.8 0 0 -3.6 10.8 0 0 -3.6 7.2 0 0 -3.6 7.2 0 0 -3.6 10.8 0 0 -3.6 7.2 0 0 -3.6 10.8 0 0 -3.6 10.8 0 0 -3.6 7.2 0 0 -3.6 14.4 0 0 -3.6 32.4 0 0 3.6 10.8 0 0 3.6 7.2 0 0 3.6 7.2 0 0 3.6 7.2 0 0 3.6 7.2 0 0 3.6 7.2 0 0 3.6 7.2 0 0 3.6 7.2 0 0 3.6 7.2 0 0 3.6 7.2 0 0 3.6 7.2 0 0 3.6 7.2 0 0 3.6 7.2 0 0 3.6 14.4 0 0 3.6 14.4 0 0 3.6 25.2 0 0 3.6 36 0 0 -3.6 10.8 0 0 -3.6 10.8 0 0 -3.6 7.2 0 0 -3.6 10.8 0 0 -3.6 7.2 0 0 -3.6 3.6 0 0 -3.6 7.2 0 0 -3.6 3.6 0 0 -3.6 7.19 0 0 -3.6 3.61 0 0 -3.6 7.2 0 0 -3.6 3.6 0 0 -3.6 3.6 0 0 -3.6 3.6 0 0 -3.6 7.2 0 0 -3.6 3.6 0 0 -3.6 3.6 0 0 -3.6 3.6 0 0 -3.6 3.6 0 0 -3.6 3.6 0 0 -3.6 3.6 0 0 -3.6 3.6 0 0 -3.6 3.6 0 0 -3.6 3.6 0 0 -7.2 3.6 0 0 -3.6 3.6 0 0 -3.6 3.6 0 0 -3.6 3.6 0 0 -3.6 3.6 0 0 -7.2 3.6 0 0 -3.6 3.6 0 0 -7.2 3.6 0 0 -3.6 3.6 0 0 -3.6 3.6 0 0 -7.2 3.6 0 0 -7.2 3.6 0 0 -7.2 3.6 0 0 -7.2 3.6 0 0 -7.2 3.6 0 0 -10.8 3.6 0 0 -7.2 3.6 0 0 -17.99 3.6 0 0 -7.21 3.6 0 0 -21.6 3.6 0 0 -61.2 -3.6 0 0 -17.99 -3.6 0 0 -21.6 -3.6 0 0 -14.41 -3.6 0 0 -17.99 -3.6 0 0 -10.8 -3.6 0 0 -14.41 -3.6 0 0 -14.4 -3.6 0 0 -18 -3.6 0 0 -10.8 -3.6 0 0 -10.8 -3.6 0 0 -7.19 -3.6 0 0 -10.81 -3.6 0 0 -14.4 -3.6 0 0 -7.2 -3.6 0 0 -14.4 -3.6 0 0 -14.4 -3.6 0 0 -14.4 -3.6 0 0 -28.8 -3.6 0 0 -21.6 -3.6 0 0 -115.2 3.6 0 0 -36 3.6 0 0 -25.19 3.6 0 0 -25.21 3.6 0 0 -17.99 3.6 0 0 -25.21 3.6 0 0 -46.8 3.6 0 0 -54 3.6 0 0 -75.6 -3.6 0 0 -25.2 -3.6 0 0 -39.59 -3.6 0 0 -25.2 -3.6 0 0 -28.8 -3.6 0 0 -14.4 -3.6 0 0 -14.41 -3.6 0 0 -10.8 -3.6 0 0 -17.99 -3.6 0 0 -21.6 -3.6 0 0 -18 -3.6 0 0 -14.41 -3.6 0 0 -7.19 -3.6 0 0 -18 -3.6 0 0 -10.8 -3.6 0 0 -10.8 -3.6 0 0 -14.4 -3.6 0 0 -7.2 -3.6 0 0 -14.4 -3.6 0 0 -14.4 -3.6 0 0 -7.2 -3.6 0 0 -10.8 -3.6 0 0 -10.8 -3.6 0 0 -7.21 -3.6 0 0 -10.8 -3.61 0 0 -10.8 -3.59 0 0 -7.2 -3.6 0 0 -10.8 -3.6 0 0 -7.19 -3.61 0 0 -10.8 -3.59 0 0 -7.2 -3.6 0 0 -7.21 -3.6 0 0 -10.79 -3.6 0 0 -7.2 -3.6 0 0 -3.6 -3.6 0 0 -7.2 -3.6 0 0 -7.21 -3.6 0 0 -3.59 -3.6 0 0 -7.2 -3.6 0 0 -3.6 -3.6 0 0 -3.6 -3.6 0 0 -7.2 -3.6 0 0 -3.6 -3.6 0 0 -3.6 -3.6 0 0 -3.6 -3.6 0 0 -3.6 -3.6 0 0 -3.61 -3.6 0 0 -3.59 -3.6 0 0 -3.6 -3.6 0 0 -3.61 -7.2 0 0 -3.59 -7.2 0 0 -3.6 -25.2 0 0 3.6 -7.21 0 0 3.59 -3.59 0 0 3.61 -3.6 0 0 7.19 -3.6 0 0 7.21 -3.6 0 0 18 -3.6 0 0 75.6 3.6 0 0 43.2 3.6 0 0 43.2 3.6 0 0 151.2 -3.6 0 0 17.99 -3.6 0 0 -14.39 -3.6 0 0 -18.01 -3.6 0 0 -14.39 -3.6 0 0 -21.6 -3.6 0 0 -14.4 -3.6 0 0 -14.4 -3.6 0 0 -14.4 -3.6 0 0 -7.2 -3.6 0 0 -14.4 -3.6 0 0 -18 -3.6 0 0 -10.8 -3.6 0 0 -14.4 -3.6 0 0 -14.4 -3.6 0 0 -10.8 -3.6 0 0 -14.41 -3.6 0 0 -10.8 -3.6 0 0 -14.39 -3.6 0 0 -18.01 -3.6 0 0 -10.79 -3.6 0 0 -10.8 -3.6 0 0 -10.81 -3.6 0 0 -14.39 -3.6 0 0 -10.8 -3.6 0 0 -10.8 -3.6 0 0 -10.8 -3.6 0 0 -7.2 -3.6 0 0 -10.81 -3.6 0 0 -10.8 -3.6 0 0 -10.8 -3.6 0 0 -7.19 -3.6 0 0 -7.2 -3.6 0 0 -10.8 -3.6 0 0 -7.21 -3.6 0 0 -7.19 -3.6 0 0 -3.61 -3.6 0 0 -7.19 -3.6 0 0 -3.6 -3.6 0 0 -7.2 -3.6 0 0 -3.6 -3.6 0 0 -3.6 -3.6 0 0 -3.6 -3.6 0 0 -3.6 -3.6 0 0 -3.6 -3.6 0 0 -3.6 -3.6 0 0 -3.6 -7.2 0 0 -3.6 -28.8 0 0 3.6zm28.8 1393.19l3.6 0 0 18 3.6 0 0 10.8 3.6 0 0 10.8 3.6 0 0 7.21 3.6 0 0 7.19 3.6 0 0 7.2 -7.2 0 0 3.6 -14.4 0 0 3.6 -10.8 0 0 3.6 -7.2 0 0 3.6 -7.2 0 0 3.6 -10.8 0 0 3.6 -7.2 0 0 3.6 -7.2 0 0 3.6 -10.8 0 0 3.6 -10.8 0 0 3.6 -7.2 0 0 3.6 -14.4 0 0 3.6 -7.2 0 0 3.6 -14.4 0 0 3.6 -18 0 0 -3.6 -10.8 0 0 -3.6 -7.2 0 0 -3.6 -7.2 0 0 -3.6 -3.6 0 0 -3.6 -3.6 0 0 -3.6 -3.6 0 0 -3.6 -3.6 0 0 -3.6 -3.6 0 0 -3.6 -3.6 0 0 -3.6 -3.6 0 0 -3.6 -3.6 0 0 -7.2 -3.6 0 0 -3.6 -3.6 0 0 -7.2 -3.6 0 0 -3.6 -3.6 0 0 -7.2 -3.6 0 0 -3.6 -3.6 0 0 -10.8 -3.6 0 0 -7.2 -3.6 0 0 -7.19 -3.6 0 0 -10.81 -3.6 0 0 -10.8 -7.2 0 0 28.8 3.6 0 0 10.8 3.6 0 0 7.2 3.6 0 0 7.21 3.6 0 0 7.19 3.6 0 0 7.2 3.6 0 0 3.6 3.6 0 0 7.2 3.6 0 0 3.6 3.6 0 0 7.2 3.6 0 0 3.6 3.6 0 0 3.6 3.6 0 0 3.6 3.6 0 0 3.6 3.6 0 0 3.6 3.6 0 0 3.6 3.6 0 0 3.6 3.6 0 0 3.6 7.2 0 0 3.6 3.6 0 0 3.6 7.2 0 0 3.6 10.8 0 0 3.6 28.8 0 0 -3.6 18 0 0 -3.6 10.8 0 0 -3.6 10.8 0 0 -3.6 10.8 0 0 -3.6 10.8 0 0 -3.6 7.2 0 0 -3.6 10.8 0 0 -3.6 7.2 0 0 -3.6 7.2 0 0 -3.6 10.8 0 0 -3.6 7.2 0 0 -3.6 10.8 0 0 -3.6 10.8 0 0 -3.6 3.6 0 0 43.2 3.6 0 0 10.8 3.6 0 0 7.2 3.6 0 0 3.6 3.6 0 0 3.6 7.2 0 0 -10.8 -3.6 0 0 -7.2 -3.6 0 0 -14.4 -3.6 0 0 -32.4 7.2 0 0 3.6 3.6 0 0 3.6 7.2 0 0 3.6 3.6 0 0 3.6 3.6 0 0 3.6 7.2 0 0 3.6 3.6 0 0 3.6 7.2 0 0 3.6 3.6 0 0 3.6 7.2 0 0 3.6 7.2 0 0 3.6 7.2 0 0 3.6 7.2 0 0 3.6 7.2 0 0 3.6 3.6 0 0 3.6 10.8 0 0 3.6 7.2 0 0 3.6 10.8 0 0 3.6 7.2 0 0 3.6 7.2 0 0 3.6 10.8 0 0 3.6 10.8 0 0 3.6 14.4 0 0 3.6 57.6 0 0 -3.6 10.8 0 0 -3.6 7.2 0 0 -3.6 7.2 0 0 -3.6 7.2 0 0 -3.6 7.2 0 0 -3.6 7.2 0 0 -3.6 7.2 0 0 -3.6 3.6 0 0 -3.6 3.6 0 0 -3.6 3.6 0 0 -3.6 7.2 0 0 -3.6 3.6 0 0 -3.6 3.6 0 0 -3.6 3.6 0 0 -3.6 3.6 0 0 -3.6 3.6 0 0 -3.6 3.6 0 0 -7.2 3.6 0 0 -3.6 3.6 0 0 -7.2 3.6 0 0 -7.2 -3.6 0 0 -3.6 -3.6 0 0 3.6 -3.6 0 0 3.6 -3.6 0 0 3.6 -3.6 0 0 3.6 -3.6 0 0 3.6 -3.6 0 0 3.6 -3.6 0 0 3.6 -3.6 0 0 3.6 -3.6 0 0 3.6 -3.6 0 0 3.6 -3.6 0 0 3.6 -3.6 0 0 3.6 -7.2 0 0 3.6 -3.6 0 0 3.6 -3.6 0 0 3.6 -7.2 0 0 3.6 -3.6 0 0 3.6 -10.8 0 0 3.6 -7.2 0 0 3.6 -10.8 0 0 3.6 -10.8 0 0 3.6 -39.6 0 0 -3.6 -14.4 0 0 -3.6 -10.8 0 0 -3.6 -14.4 0 0 -3.6 -7.2 0 0 -3.6 -7.2 0 0 -3.6 -10.8 0 0 -3.6 -7.2 0 0 -3.6 -7.2 0 0 -3.6 -7.2 0 0 -3.6 -7.2 0 0 -3.6 -7.2 0 0 -3.6 -7.2 0 0 -3.6 -3.6 0 0 -3.6 -7.2 0 0 -3.6 -7.2 0 0 -3.6 -3.6 0 0 -3.6 -7.2 0 0 -3.6 -3.6 0 0 -3.6 -7.2 0 0 -3.6 -3.6 0 0 -3.6 -3.6 0 0 -3.6 -7.2 0 0 -3.6 -7.2 0 0 -3.6 -3.6 0 0 -3.59 -3.6 0 0 -7.21 -3.6 0 0 -7.2 -3.6 0 0 -7.19 -3.6 0 0 -10.8 -3.6 0 0 -7.21 -3.6 0 0 -10.8 -3.6 0 0 -18 -3.6 0 0 -7.2 -3.6 0 0 -28.8 -7.2 0 0 46.8z"/>
  <path class="fil3 str0" d="M529.39 1423.72l-2.53 -2.54 2.53 2.54zm-2.53 -2.54l-1.1 -2.15 1.1 2.15zm-1.1 -2.15zm-7.25 -9.37l7.25 9.37zm-7.25 -9.37c0.54,-2.97 4.62,-1.31 1.8,0.5l-0.54 -0.05c-1.44,-0.36 -1.98,3.54 -1.26,-0.45zm-2.99 -8.19l0.33 0.63c-0.02,-0.04 -0.5,-0.5 -0.33,-0.63zm-11.97 -16.21c1.85,-1.45 4.88,4.27 1.42,1.35 -0.03,-0.03 -4.33,0.93 -1.42,-1.35zm-70.81 -168.81zm-9.46 -13.66l9.46 13.66zm-9.46 -13.66c4.1,2.64 1.03,-0.48 3.64,3.17 2.02,2.83 1.76,1.62 2.19,5.81 -7.94,-5.12 -5.19,-7.29 -5.83,-8.98zm-4.72 -6.84zm0 0zm0 0zm-17.17 -28.69l17.17 28.69zm-17.17 -28.69c5.17,1.58 11.13,7.03 12.73,12.6 1.25,4.34 1.1,0.87 0.03,7.51 -4.83,-6.28 -8.67,-13.26 -12.76,-20.11zm70.29 -174c0.81,-4.49 2.3,0.34 0.84,0.23 -0.02,0 -1.73,4.67 -0.84,-0.23zm57.71 430.46c6.04,3.9 19.2,25.08 24.63,33.38 11.72,17.92 12.47,16.19 25.08,33.04 2.81,3.75 5.84,7.87 8.06,11.75 3.1,5.42 2.99,8.66 7.93,11.85 -0.4,-12.21 -24.66,-48.59 -31.86,-59.33l-11.66 -19.47c-2.17,-3.95 -2.59,-5.48 -5.24,-9.44l-34.15 -57.54c-3.63,-5.73 -4.71,-3.41 -4.96,-11.16 3.4,-0.04 3.51,-0.46 7.41,0.2l0.64 -3.5c-6.53,-4.21 -17.06,-25.04 -21.19,-33.08 -4.35,-8.5 -7.13,-8.1 -10.87,-17.07l-20.02 -33.99c-2.04,-3.17 -2.64,-5.07 -4.67,-8.38 -4.4,-7.17 -25.55,-37.48 -25.78,-44.53 4.88,2.91 5.8,5.95 9.11,8.22 12.14,8.33 -8.7,-25.08 -9.8,-27.25 -2.09,-4.12 -2.98,-6.79 -4.78,-11.31 -3.24,-8.08 -1.11,-18.23 -8.11,-23.93 -5.29,-4.31 -7.75,-0.99 -12.24,-0.76 -0.31,-9.37 -4.13,-8.48 -9.45,-13.67 7.14,-8.4 6.97,-3.34 6.58,-15.54 -0.31,-9.67 1.32,-16.45 7.11,-21.87 10.79,-10.09 29.23,-28.4 33.96,-45.39 2.33,-8.36 3.82,-19.57 5.12,-23.95 1.1,-3.69 6.71,-13.27 9.34,-19.09 3.04,-6.74 6.5,-14.23 7.99,-22.42 4.95,3.19 1.51,2.28 6.46,5.47 1.7,-4.35 6.41,-11.86 8.87,-15.94 3.13,-5.19 6.91,-10.55 10.27,-15.6 7.18,-10.8 18.01,-33.73 24.04,-41 6.2,-7.47 8.9,-19.5 13.11,-29.05 10.8,-24.57 24.88,-44.84 39.62,-65.21 7.1,-9.81 13.21,-21.46 20.53,-31.22 4.67,-6.22 7.12,-5.87 9.6,-14.89 1.28,-4.64 -0.79,-1.82 3.43,-7.01 2.31,-2.84 3.75,-3.96 6.22,-7.06 4.11,-5.18 6.72,-10.97 9.66,-16.77 3.49,-6.87 7.06,-8.65 10.44,-15.27l27.81 -50.26c4.28,-7.48 6.84,-8.76 10.27,-15.6l9.68 -16.75c2.17,-3.94 1.76,-4.55 3.85,-9.11 7.23,-15.82 21.74,-32.09 30.31,-47.76 2.14,-3.92 2.28,-6.14 4.42,-10.39 9.88,-19.66 28.91,-20.48 33.71,-22.3l4.18 -5.06c3.69,-12.2 1.85,-35.74 -4.86,-41.28 -13.7,-11.33 -26.95,-1.8 -36.25,-1.71 -8.75,-11.36 -4.48,-16.41 -18.27,-11.85l-16.96 4.94c-5.95,2.25 -1.6,-2.46 -6.64,6.06 -4.84,8.2 -6.88,6.52 -11.86,14.9 -4.17,7.02 -3.78,11.82 -8.9,18.05 -4.42,5.38 -8.31,8.19 -11.94,14.89 -11.18,20.61 -17.82,25.48 -22.11,32.89l-21.38 36.68c-5.38,12.92 -13.73,24.4 -20.96,35.11 -3.96,5.88 -6.66,13.28 -10.48,19.93 -3.8,6.62 -7.52,10.68 -9.13,17.45 -1.54,6.45 -6.86,11.86 -10.36,18.17 -20.61,37.08 -38.13,78.59 -62.58,110.69 -9.89,13 -15,17.73 -22.83,33.85 -10.61,21.84 -25.41,45.78 -33.94,69.16l-13.74 30.21c-1.84,4.51 -2.51,6.05 -4.65,9.93 -1.56,2.83 -4.64,7.53 -5.79,10.23 -3.13,7.39 -0.87,6.62 -3.36,12.27l-5.4 10.87c-0.19,0.39 -0.4,0.82 -0.59,1.21l-7.18 16.87c-4.82,13.57 -17.22,24.76 -17.12,40.24 -8.82,-5.69 -37.09,-74.88 -42.57,-88.57 -4.25,-10.6 -12.79,-42.07 -16.33,-48.92 -2.38,-4.59 -3.79,-5.22 -6.45,-10 -3.85,-6.93 -14.91,-27.53 -20.13,-30.9 2.8,-15.41 5.13,-30.83 -10.21,-29.42 -5.77,0.53 0.41,1.16 -4.28,0.65 -2.96,-0.32 -2.07,-0.6 -5.2,-2.46 5.1,-13.08 7.47,-13.63 -11.89,-23.12 -2.6,-1.27 -2.67,-1.84 -5.6,-3.72 -6.45,-4.15 -8.41,-2.14 -8.66,-9.87 8.65,2.39 13.58,0.31 20.83,0.23 0.96,-8.6 -4.37,-15.73 -8.18,-20.68 -9.26,-6.31 0.2,11.82 -25.16,-14.91l-6.38 -8.55c4.11,-0.04 7.89,-0.32 12,-0.37 0.68,-6.07 0.08,-6.72 -0.93,-11.31l20.74 -2.15c7.55,-1.69 15,-6.07 22.51,-6.15 -3.25,-9.19 -23.86,-8.61 -36.65,-12.05 -9.4,-2.52 -7.69,-0.07 -12.09,-0.52l-24 -5.69c-16.3,-6.47 -31.39,-37.18 -51.46,-48.5 -7.19,-4.06 -46.27,-14.22 -56.15,-16.36 -8.45,-1.83 -14.66,1.52 -19,8.23 -5.64,8.72 -1.86,16.08 0.66,25.86 3.99,15.45 12.95,19.96 24.02,39.88 3.74,6.73 7.79,13.4 11.78,19.38l47.45 81.73c10.46,20.58 20.75,44.21 32.59,63.28l11.22 19.81c2.6,5.01 3.57,5.62 6.34,10.09 10.22,16.45 13.66,26.97 30.1,51.67 5.09,7.65 4.57,12.14 10.27,20.56 6.2,9.16 8.84,17.74 15.3,25.64 7.14,8.73 8.18,16.79 14.36,26.38 11.78,18.27 42.57,76.74 48.58,95.91 -7.46,11.7 -27.17,57.87 -32.65,64.55 -8.05,9.82 -4.65,10.56 -10.55,22.18l-11.17 20.97c-3.84,7.89 -7.23,14.86 -10.67,21.93 -3.77,7.74 -6.74,13.86 -10.69,21.9 -11.09,22.61 -19.54,45.58 -31.92,68.42 -4.26,7.85 -2.12,2.25 -3.86,11.81l-2.61 6.25c-0.15,0.23 -0.48,0.61 -0.63,0.84 -0.14,0.22 -0.43,0.64 -0.56,0.86l-18.19 38.99c-1.17,3.01 -1.18,4.09 -2.47,7.06 -3.47,7.94 -6.98,9.91 -11.16,20.99l-41.62 92.19c-9.47,21.13 -21.31,42.25 -28.7,64.77 -1.58,4.82 -1.85,2.46 -3.98,6.72 -4.22,8.42 -5.35,18.13 -10.03,25.63 -2.72,4.36 -3.35,5.38 -5.04,11.6 -3.7,13.63 -6.11,13.42 -11.14,23.4 -8.9,17.63 -16.43,47.39 -28.82,72.02 -3.91,7.78 -5.46,20.07 -9.15,27.27 -8.7,17 -7.22,23.01 -19.34,47.77 -5.61,11.46 -4.94,9.55 -8.92,25.35 -2.75,10.92 -7.97,11.34 -10.41,24.81l12.43 -16.38c4.47,-6.25 8.63,-11.38 11.82,-19.45 5.94,-14.99 15.71,-26.38 22.71,-41.2 2.31,-4.88 5.3,-13.85 7.36,-18.89 7.47,-18.21 13.2,-25.91 22.31,-50.51 1.45,-3.89 2.92,-3.49 4.37,-8.43 1.1,-3.74 -0.31,-2.26 1.82,-6.68 2.53,-5.23 1.77,-2.15 4.49,-7.75l12.51 -27.88c3.06,-5.56 6.08,-9.96 9.03,-15.64 6.93,-13.37 12.9,-32.22 21.55,-43.46 4.49,-5.84 11.82,-26.2 22.05,-42.5 2.64,-4.21 5.55,-11.68 8.23,-17.19 1.65,-3.39 2.52,-5.45 4.16,-8.51l45.92 -88.56c2.55,-5.83 3.82,-12.83 6.91,-19.77 5.84,-13.12 11.42,-22.05 18.06,-33.63 3.16,-5.5 5.8,-10.29 9.12,-15.46l19.26 -31.47c4.92,-9.84 2.73,-11.17 0.9,-19.45 25.37,-29.82 16.38,-23.96 26.44,-38.7l23.31 -30.53c4.52,-5.71 22.65,-27.62 23.77,-32.03l-4.26 -1.18 3.18 -17.54c7.96,-0.41 20.15,-10.71 25.43,-16.92 16.73,17.65 32.67,37.79 48.09,57.15 11.39,14.3 24.41,29.85 33.52,45.99 3.46,6.15 6.04,11.15 13.57,13.45l4.16 -7.2c0.04,-0.12 0.13,-0.56 0.27,-0.79 9.76,5.81 14.93,22.91 20.39,33.7 2.79,5.5 3.01,8.56 5.99,13.37 9.73,15.69 18.41,30.46 28.67,45.28 10.36,14.93 20.46,28.46 30.24,44.04l29.53 44.6c4.98,7.34 9.29,13.89 14.64,21.65 6,8.69 9.14,14.31 14.05,23.61 4.64,8.79 10.37,13.1 15.38,21.06 4.34,6.91 0.7,4.44 6.38,11.56l23.43 32.82c4.57,5.92 1.92,5.7 5.89,11.94l36.76 53.4c2.17,1.37 3.26,1.06 2.2,-2.77 -1.43,-5.18 -4.21,-8.63 -7.24,-12.25 -5.61,-6.7 -6.28,-10.45 -10.78,-17.14l-26.16 -42.73c-2.42,-4.23 -3.41,-5.14 -5.79,-9.02l-96.53 -154.67c-6.64,-10.52 -16.36,-23.62 -20.07,-35.45z"/>
 </g>
</svg>
