<?xml version="1.0" encoding="UTF-8"?>
<!DOCTYPE svg PUBLIC "-//W3C//DTD SVG 1.1//EN" "http://www.w3.org/Graphics/SVG/1.1/DTD/svg11.dtd">
<!-- Creator: CorelDRAW (Versión de evaluación) -->
<svg xmlns="http://www.w3.org/2000/svg" xml:space="preserve" width="756px" height="2062px" version="1.1" style="shape-rendering:geometricPrecision; text-rendering:geometricPrecision; image-rendering:optimizeQuality; fill-rule:evenodd; clip-rule:evenodd"
viewBox="0 0 756 2062.79"
 xmlns:xlink="http://www.w3.org/1999/xlink"
 xmlns:xodm="http://www.corel.com/coreldraw/odm/2003">
 <defs>
  <style type="text/css">
   <![CDATA[
    .fil2 {fill:#4B4B4D}
    .fil1 {fill:#EDEAE0}
    .fil0 {fill:#F2E6C9}
    .fil3 {fill:#ED3237;fill-rule:nonzero}
   ]]>
  </style>
 </defs>
 <g id="extraction">
  <metadata id="CorelCorpID_0Corel-Layer"/>
  <polygon id="root" class="fil0" points="464.32,418.61 471.52,418.61 471.52,425.82 475.12,425.82 475.12,433.02 478.72,433.02 478.72,443.82 482.32,443.82 482.32,465.42 485.92,465.42 485.92,587.82 482.32,587.82 482.32,710.21 485.92,710.21 485.92,760.62 489.52,760.62 489.52,807.41 493.12,807.41 493.12,829.01 496.72,829.01 496.72,854.22 500.31,854.22 500.31,886.62 503.92,886.62 503.92,908.22 507.52,908.22 507.52,951.42 503.92,951.42 503.92,958.61 500.31,958.61 500.31,969.41 496.72,969.41 496.72,976.61 493.12,976.61 493.12,983.82 489.52,983.82 489.52,991.01 485.92,991.01 485.92,1001.81 482.32,1001.81 482.32,1009.01 478.72,1009.01 478.72,1016.22 475.12,1016.22 475.12,1023.41 471.52,1023.41 471.52,1030.61 467.92,1030.61 467.92,1037.82 464.32,1037.82 464.32,1045.01 460.72,1045.01 460.72,1055.81 457.12,1055.81 457.12,1063.01 453.52,1063.01 453.52,1070.22 449.92,1070.22 449.92,1077.41 446.32,1077.41 446.32,1084.61 442.72,1084.61 442.72,1095.41 439.12,1095.41 439.12,1102.62 435.52,1102.62 435.52,1113.42 431.92,1113.42 431.92,1120.61 428.32,1120.61 428.32,1127.81 424.72,1127.81 424.72,1142.21 421.12,1142.21 421.12,1149.41 417.52,1149.41 417.52,1160.21 413.92,1160.21 413.92,1174.61 410.32,1174.61 410.32,1189.02 417.52,1189.02 417.52,1181.81 421.12,1181.81 421.12,1174.61 424.72,1174.61 424.72,1171.01 428.32,1171.01 428.32,1160.21 431.92,1160.21 431.92,1153.01 435.52,1153.01 435.52,1145.82 439.12,1145.82 439.12,1138.61 442.72,1138.61 442.72,1131.41 446.32,1131.41 446.32,1124.22 449.92,1124.22 449.92,1117.01 453.52,1117.01 453.52,1109.81 457.12,1109.81 457.12,1102.62 460.72,1102.62 460.72,1091.82 464.32,1091.82 464.32,1084.61 467.92,1084.61 467.92,1077.41 471.52,1077.41 471.52,1070.22 475.12,1070.22 475.12,1063.01 478.72,1063.01 478.72,1055.81 482.32,1055.81 482.32,1048.62 485.92,1048.62 485.92,1041.41 489.52,1041.41 489.52,1030.61 493.12,1030.61 493.12,1023.41 496.72,1023.41 496.72,1016.22 500.31,1016.22 500.31,1009.01 503.92,1009.01 503.92,1001.81 507.52,1001.81 507.52,994.62 511.11,994.62 511.11,987.41 514.72,987.41 514.72,980.21 518.32,980.21 518.32,969.41 521.91,969.41 521.91,962.22 525.52,962.22 525.52,955.02 529.12,955.02 529.12,940.62 532.71,940.62 532.71,929.82 536.32,929.82 536.32,919.02 539.92,919.02 539.92,908.22 543.51,908.22 543.51,893.81 547.12,893.81 547.12,883.01 550.72,883.01 550.72,872.21 554.32,872.21 554.32,854.22 557.92,854.22 557.92,843.42 561.52,843.42 561.52,825.42 565.12,825.42 565.12,803.82 568.72,803.82 568.72,785.81 572.32,785.81 572.32,764.22 575.92,764.22 575.92,728.22 579.52,728.22 579.52,699.41 583.12,699.41 583.12,656.21 586.72,656.21 586.72,587.82 590.32,587.82 590.32,526.62 593.92,526.62 593.92,505.01 597.52,505.01 597.52,497.82 601.12,497.82 601.12,487.02 604.72,487.02 604.72,476.22 608.32,476.22 608.32,472.61 611.92,472.61 611.92,469.02 615.52,469.02 615.52,465.42 629.92,465.42 629.92,469.02 633.52,469.02 633.52,472.61 637.12,472.61 637.12,476.22 640.72,476.22 640.72,479.82 644.32,479.82 644.32,490.62 647.92,490.62 647.92,497.82 651.52,497.82 651.52,505.01 655.12,505.01 655.12,515.81 658.72,515.81 658.72,530.22 662.32,530.22 662.32,541.02 665.92,541.02 665.92,555.42 669.52,555.42 669.52,573.42 673.12,573.42 673.12,591.42 676.72,591.42 676.72,605.82 680.32,605.82 680.32,627.42 683.91,627.42 683.91,656.21 687.52,656.21 687.52,677.81 691.12,677.81 691.12,706.62 694.71,706.62 694.71,742.61 698.32,742.61 698.32,879.42 694.71,879.42 694.71,893.81 691.12,893.81 691.12,922.62 687.52,922.62 687.52,940.62 683.91,940.62 683.91,973.02 680.32,973.02 680.32,994.62 676.72,994.62 676.72,1023.41 673.12,1023.41 673.12,1045.01 669.52,1045.01 669.52,1059.42 665.92,1059.42 665.92,1088.21 662.32,1088.21 662.32,1120.61 658.72,1120.61 658.72,1149.41 655.12,1149.41 655.12,1167.42 651.52,1167.42 651.52,1217.81 647.92,1217.81 647.92,1246.61 644.32,1246.61 644.32,1369.01 647.92,1369.01 647.92,1397.81 651.52,1397.81 651.52,1433.81 655.12,1433.81 655.12,1448.22 651.52,1448.22 651.52,1444.61 644.32,1444.61 644.32,1441.01 637.12,1441.01 637.12,1437.42 629.92,1437.42 629.92,1433.81 619.12,1433.81 619.12,1430.21 611.92,1430.21 611.92,1426.62 601.12,1426.62 601.12,1423.01 590.32,1423.01 590.32,1419.41 575.92,1419.41 575.92,1415.82 572.32,1415.82 572.32,1412.21 554.32,1412.21 554.32,1408.61 536.32,1408.61 536.32,1405.02 514.72,1405.02 514.72,1401.41 493.12,1401.41 493.12,1397.81 471.52,1397.81 471.52,1394.22 323.92,1394.22 323.92,1397.81 295.12,1397.81 295.12,1401.41 273.52,1401.41 273.52,1405.02 259.12,1405.02 259.12,1408.61 244.72,1408.61 244.72,1412.21 226.72,1412.21 226.72,1415.82 215.92,1415.82 215.92,1419.41 208.72,1419.41 208.72,1423.01 194.32,1423.01 194.32,1426.62 187.12,1426.62 187.12,1430.21 176.32,1430.21 176.32,1433.81 165.52,1433.81 165.52,1437.42 158.32,1437.42 158.32,1441.01 147.52,1441.01 147.52,1444.61 140.32,1444.61 140.32,1448.22 133.12,1448.22 133.12,1451.81 125.92,1451.81 125.92,1455.41 118.72,1455.41 118.72,1459.02 111.52,1459.02 111.52,1462.61 104.32,1462.61 104.32,1466.21 97.12,1466.21 97.12,1469.82 89.92,1469.82 89.92,1473.41 86.32,1473.41 86.32,1455.41 89.92,1455.41 89.92,1340.22 86.32,1340.22 86.32,1286.22 82.72,1286.22 82.72,1253.82 79.12,1253.82 79.12,1232.22 75.52,1232.22 75.52,1199.82 71.92,1199.82 71.92,1163.81 68.32,1163.81 68.32,1142.21 64.72,1142.21 64.72,1005.42 68.32,1005.42 68.32,958.61 71.92,958.61 71.92,940.62 75.52,940.62 75.52,919.02 79.12,919.02 79.12,897.42 82.72,897.42 82.72,872.21 86.32,872.21 86.32,861.41 89.92,861.41 89.92,847.02 93.52,847.02 93.52,829.01 97.12,829.01 97.12,814.62 100.72,814.62 100.72,800.22 104.32,800.22 104.32,785.81 107.92,785.81 107.92,771.42 111.52,771.42 111.52,757.02 115.12,757.02 115.12,746.22 118.72,746.22 118.72,735.42 122.32,735.42 122.32,728.22 125.92,728.22 125.92,710.21 129.52,710.21 129.52,703.02 133.12,703.02 133.12,692.22 136.72,692.22 136.72,685.02 140.32,685.02 140.32,670.62 143.92,670.62 143.92,663.42 147.52,663.42 147.52,652.62 151.12,652.62 151.12,641.82 154.72,641.82 154.72,634.61 158.32,634.61 158.32,623.81 161.92,623.81 161.92,616.62 165.52,616.62 165.52,609.42 169.12,609.42 169.12,602.21 172.72,602.21 172.72,595.02 176.32,595.02 176.32,587.82 179.92,587.82 179.92,577.02 183.52,577.02 183.52,573.42 187.12,573.42 187.12,566.22 190.72,566.22 190.72,559.02 194.32,559.02 194.32,555.42 197.92,555.42 197.92,548.22 201.52,548.22 201.52,544.62 205.12,544.62 205.12,537.42 208.72,537.42 208.72,533.82 212.32,533.82 212.32,530.22 215.92,530.22 215.92,526.62 219.52,526.62 219.52,523.02 223.12,523.02 223.12,519.42 226.72,519.42 226.72,515.81 230.32,515.81 230.32,512.22 237.52,512.22 237.52,508.62 248.32,508.62 248.32,512.22 251.92,512.22 251.92,515.81 255.52,515.81 255.52,533.82 259.12,533.82 259.12,602.21 255.52,602.21 255.52,645.41 251.92,645.41 251.92,706.62 248.32,706.62 248.32,836.22 251.92,836.22 251.92,872.21 255.52,872.21 255.52,904.61 259.12,904.61 259.12,919.02 262.72,919.02 262.72,944.22 266.32,944.22 266.32,965.81 269.92,965.81 269.92,980.21 273.52,980.21 273.52,994.62 277.12,994.62 277.12,1005.42 280.72,1005.42 280.72,1023.41 284.32,1023.41 284.32,1034.21 287.92,1034.21 287.92,1045.01 291.52,1045.01 291.52,1059.42 295.12,1059.42 295.12,1073.81 298.72,1073.81 298.72,1088.21 302.32,1088.21 302.32,1095.41 305.91,1095.41 305.91,1109.81 309.52,1109.81 309.52,1120.61 313.12,1120.61 313.12,1131.41 316.72,1131.41 316.72,1145.82 320.32,1145.82 320.32,1156.62 323.92,1156.62 323.92,1167.42 327.52,1167.42 327.52,1178.22 331.12,1178.22 331.12,1189.02 334.72,1189.02 334.72,1196.21 338.32,1196.21 338.32,1203.41 341.92,1203.41 341.92,1210.62 345.52,1210.62 345.52,1217.81 349.12,1217.81 349.12,1221.42 352.72,1221.42 352.72,1225.01 356.32,1225.01 356.32,1228.61 359.92,1228.61 359.92,1232.22 367.12,1232.22 367.12,1235.81 374.32,1235.81 374.32,1239.41 399.52,1239.41 399.52,1235.81 406.72,1235.81 406.72,1232.22 410.32,1232.22 410.32,1228.61 417.52,1228.61 417.52,1225.01 421.12,1225.01 421.12,1217.81 417.52,1217.81 417.52,1221.42 410.32,1221.42 410.32,1225.01 403.12,1225.01 403.12,1228.61 377.92,1228.61 377.92,1225.01 370.72,1225.01 370.72,1221.42 367.12,1221.42 367.12,1214.21 363.52,1214.21 363.52,1210.62 359.92,1210.62 359.92,1203.41 356.32,1203.41 356.32,1192.61 352.72,1192.61 352.72,1185.41 349.12,1185.41 349.12,1174.61 345.52,1174.61 345.52,1163.81 341.92,1163.81 341.92,1153.01 338.32,1153.01 338.32,1138.61 334.72,1138.61 334.72,1124.22 331.12,1124.22 331.12,1113.42 327.52,1113.42 327.52,1099.01 323.92,1099.01 323.92,1084.61 320.32,1084.61 320.32,1073.81 316.72,1073.81 316.72,1063.01 313.12,1063.01 313.12,1048.62 309.52,1048.62 309.52,1027.02 305.91,1027.02 305.91,1016.22 302.32,1016.22 302.32,1005.42 298.72,1005.42 298.72,991.01 295.12,991.01 295.12,976.61 291.52,976.61 291.52,958.61 287.92,958.61 287.92,947.81 284.32,947.81 284.32,922.62 287.92,922.62 287.92,904.61 291.52,904.61 291.52,890.22 295.12,890.22 295.12,872.21 298.72,872.21 298.72,857.82 302.32,857.82 302.32,836.22 305.91,836.22 305.91,818.21 309.52,818.21 309.52,800.22 313.12,800.22 313.12,785.81 316.72,785.81 316.72,771.42 320.32,771.42 320.32,760.62 323.92,760.62 323.92,746.22 327.52,746.22 327.52,735.42 331.12,735.42 331.12,721.01 334.72,721.01 334.72,703.02 338.32,703.02 338.32,692.22 341.92,692.22 341.92,677.81 345.52,677.81 345.52,663.42 349.12,663.42 349.12,649.02 352.72,649.02 352.72,634.61 356.32,634.61 356.32,627.42 359.92,627.42 359.92,613.01 363.52,613.01 363.52,598.62 367.12,598.62 367.12,587.82 370.72,587.82 370.72,577.02 374.32,577.02 374.32,562.62 377.92,562.62 377.92,555.42 381.52,555.42 381.52,541.02 385.12,541.02 385.12,530.22 388.72,530.22 388.72,523.02 392.32,523.02 392.32,512.22 395.92,512.22 395.92,501.42 399.52,501.42 399.52,494.21 403.12,494.21 403.12,483.41 406.72,483.41 406.72,476.22 410.32,476.22 410.32,469.02 413.92,469.02 413.92,461.81 417.52,461.81 417.52,454.62 421.12,454.62 421.12,447.42 424.72,447.42 424.72,443.82 428.32,443.82 428.32,436.62 431.92,436.62 431.92,433.02 435.52,433.02 435.52,429.41 439.12,429.41 439.12,422.22 442.72,422.22 442.72,418.61 449.92,418.61 449.92,415.02 464.32,415.02 "/>
  <path id="crown" class="fil1" d="M442.72 1743.41l-7.2 0 0 28.8 -3.6 0 0 7.2 -3.6 0 0 18 -3.6 0 0 10.8 -3.6 0 0 7.21 -3.6 0 0 10.8 -3.6 0 0 7.19 -3.6 0 0 7.2 -3.6 0 0 7.21 -3.6 0 0 3.59 -3.6 0 0 3.6 -7.2 0 0 3.6 -7.2 0 0 3.6 -3.6 0 0 3.6 -3.6 0 0 3.6 -7.2 0 0 3.6 -3.6 0 0 3.6 -7.2 0 0 3.6 -3.6 0 0 3.6 -7.2 0 0 3.6 -7.2 0 0 3.6 -3.6 0 0 3.6 -7.2 0 0 3.6 -7.2 0 0 3.6 -7.2 0 0 3.6 -7.2 0 0 3.6 -7.2 0 0 3.6 -7.2 0 0 3.6 -10.8 0 0 3.6 -7.2 0 0 3.6 -7.2 0 0 3.6 -14.4 0 0 3.6 -10.8 0 0 3.6 -14.4 0 0 3.6 -39.6 0 0 -3.6 -10.8 0 0 -3.6 -10.8 0 0 -3.6 -7.2 0 0 -3.6 -10.8 0 0 -3.6 -3.6 0 0 -3.6 -7.2 0 0 -3.6 -3.6 0 0 -3.6 -3.6 0 0 -3.6 -7.2 0 0 -3.6 -3.6 0 0 -3.6 -3.6 0 0 -3.6 -3.6 0 0 -3.6 -3.6 0 0 -3.6 -3.6 0 0 -3.6 -3.6 0 0 -3.6 -3.6 0 0 -3.6 -3.6 0 0 -3.6 -3.6 0 0 -3.6 -3.6 0 0 -3.6 -3.6 0 0 -3.6 -3.6 0 0 3.6 -3.6 0 0 7.2 3.6 0 0 7.2 3.6 0 0 3.6 3.6 0 0 7.2 3.6 0 0 3.6 3.6 0 0 3.6 3.6 0 0 3.6 3.6 0 0 3.6 3.6 0 0 3.6 3.6 0 0 3.6 7.2 0 0 3.6 3.6 0 0 3.6 3.6 0 0 3.6 3.6 0 0 3.6 7.2 0 0 3.6 7.2 0 0 3.6 7.2 0 0 3.6 7.2 0 0 3.6 7.2 0 0 3.6 7.2 0 0 3.6 10.8 0 0 3.6 57.6 0 0 -3.6 14.4 0 0 -3.6 10.8 0 0 -3.6 10.8 0 0 -3.6 7.2 0 0 -3.6 7.2 0 0 -3.6 10.8 0 0 -3.6 7.2 0 0 -3.6 10.8 0 0 -3.6 3.6 0 0 -3.6 7.2 0 0 -3.6 7.2 0 0 -3.6 7.2 0 0 -3.6 7.2 0 0 -3.6 7.2 0 0 -3.6 3.6 0 0 -3.6 7.2 0 0 -3.6 3.6 0 0 -3.6 7.2 0 0 -3.6 3.6 0 0 -3.6 3.6 0 0 -3.6 7.2 0 0 -3.6 3.6 0 0 -3.6 7.2 0 0 32.4 -3.6 0 0 14.4 -3.6 0 0 7.2 -3.6 0 0 10.8 7.2 0 0 -3.6 3.6 0 0 -3.6 3.6 0 0 -7.2 3.6 0 0 -10.8 3.6 0 0 -43.2 3.6 0 0 3.6 10.8 0 0 3.6 10.8 0 0 3.6 7.2 0 0 3.6 10.8 0 0 3.6 7.2 0 0 3.6 7.2 0 0 3.6 10.8 0 0 3.6 7.2 0 0 3.6 10.8 0 0 3.6 10.8 0 0 3.6 10.8 0 0 3.6 10.8 0 0 3.6 18 0 0 3.6 28.8 0 0 -3.6 10.8 0 0 -3.6 7.2 0 0 -3.6 3.6 0 0 -3.6 7.2 0 0 -3.6 3.6 0 0 -3.6 3.6 0 0 -3.6 3.6 0 0 -3.6 3.6 0 0 -3.6 3.6 0 0 -3.6 3.6 0 0 -3.6 3.6 0 0 -3.6 3.6 0 0 -7.2 3.6 0 0 -3.6 3.6 0 0 -7.2 3.6 0 0 -3.6 3.6 0 0 -7.2 3.6 0 0 -7.19 3.6 0 0 -7.21 3.6 0 0 -7.2 3.6 0 0 -10.8 3.6 0 0 -28.8 -7.2 0 0 10.8 -3.6 0 0 10.81 -3.6 0 0 7.19 -3.6 0 0 7.2 -3.6 0 0 10.8 -3.6 0 0 3.6 -3.6 0 0 7.2 -3.6 0 0 3.6 -3.6 0 0 7.2 -3.6 0 0 3.6 -3.6 0 0 7.2 -3.6 0 0 3.6 -3.6 0 0 3.6 -3.6 0 0 3.6 -3.6 0 0 3.6 -3.6 0 0 3.6 -3.6 0 0 3.6 -3.6 0 0 3.6 -3.6 0 0 3.6 -7.2 0 0 3.6 -7.2 0 0 3.6 -10.8 0 0 3.6 -18 0 0 -3.6 -14.41 0 0 -3.6 -7.19 0 0 -3.6 -14.41 0 0 -3.6 -7.19 0 0 -3.6 -10.8 0 0 -3.6 -10.8 0 0 -3.6 -7.2 0 0 -3.6 -7.2 0 0 -3.6 -10.8 0 0 -3.6 -7.2 0 0 -3.6 -7.2 0 0 -3.6 -10.8 0 0 -3.6 -14.4 0 0 -3.6 -7.2 0 0 -7.2 3.6 0 0 -7.19 3.6 0 0 -7.21 3.6 0 0 -10.8 3.6 0 0 -10.8 3.6 0 0 -18 3.6 0 0 -46.8zm10.8 -331.2l28.8 0 0 3.61 21.6 0 0 3.59 17.99 0 0 3.6 25.21 0 0 3.61 10.8 0 0 3.59 14.4 0 0 3.6 10.8 0 0 3.61 14.4 0 0 3.59 7.2 0 0 3.6 10.8 0 0 3.61 7.2 0 0 3.59 10.8 0 0 3.6 7.2 0 0 3.61 7.2 0 0 3.59 7.2 0 0 3.6 3.6 0 0 7.2 3.6 0 0 7.2 3.6 0 0 7.2 3.6 0 0 10.8 3.6 0 0 7.2 3.6 0 0 10.8 3.6 0 0 7.2 3.59 0 0 10.8 3.61 0 0 7.2 3.6 0 0 10.8 3.59 0 0 10.8 3.61 0 0 10.8 3.6 0 0 10.8 3.59 0 0 14.41 3.61 0 0 14.39 3.6 0 0 14.4 3.59 0 0 21.6 3.61 0 0 18 3.6 0 0 21.6 3.59 0 0 10.8 3.61 0 0 72 -3.61 0 0 25.2 -3.59 0 0 10.8 -3.6 0 0 14.4 -3.61 0 0 10.8 -3.59 0 0 7.2 -3.6 0 0 7.21 -3.61 0 0 7.19 -3.59 0 0 7.2 -3.6 0 0 7.2 -3.61 0 0 3.6 -3.59 0 0 7.2 -3.6 0 0 3.6 -3.61 0 0 3.6 -3.59 0 0 3.6 -3.6 0 0 7.2 -3.6 0 0 3.6 -3.6 0 0 3.6 -3.6 0 0 3.6 -3.6 0 0 3.6 -3.6 0 0 3.6 -3.6 0 0 3.6 -3.6 0 0 3.6 -7.2 0 0 3.6 -3.6 0 0 3.6 -3.6 0 0 3.6 -3.6 0 0 3.6 -3.6 0 0 3.6 -3.6 0 0 3.6 -3.6 0 0 3.6 -7.2 0 0 3.6 -3.6 0 0 3.6 -3.6 0 0 3.6 -7.2 0 0 3.6 -3.6 0 0 3.6 -7.2 0 0 3.6 -7.2 0 0 3.6 -7.2 0 0 3.6 -14.4 0 0 3.6 -18.01 0 0 -3.6 -17.99 0 0 -3.6 -10.8 0 0 -3.6 -10.8 0 0 -3.6 -7.2 0 0 -3.6 -10.8 0 0 -3.6 -7.2 0 0 -3.6 -10.8 0 0 -3.6 -7.2 0 0 -3.6 -7.2 0 0 -3.6 -18 0 0 -3.6 -10.8 0 0 -3.6 -43.2 0 0 3.6 -7.2 0 0 3.6 -14.4 0 0 3.6 -7.2 0 0 3.6 -7.2 0 0 3.6 -7.2 0 0 3.6 -7.2 0 0 3.6 -7.2 0 0 3.6 -7.2 0 0 3.6 -7.2 0 0 3.6 -7.2 0 0 3.6 -7.2 0 0 3.6 -7.2 0 0 3.6 -10.8 0 0 3.6 -7.2 0 0 3.6 -14.4 0 0 3.6 -7.2 0 0 3.6 -36 0 0 -3.6 -14.4 0 0 -3.6 -14.4 0 0 -3.6 -7.2 0 0 -3.6 -7.2 0 0 -3.6 -7.2 0 0 -3.6 -3.6 0 0 -3.6 -7.2 0 0 -3.6 -7.2 0 0 -3.6 -3.6 0 0 -3.6 -7.2 0 0 -3.6 -3.6 0 0 -3.6 -3.6 0 0 -3.6 -7.2 0 0 -3.6 -3.6 0 0 -3.6 -3.6 0 0 -3.6 -3.6 0 0 -3.6 -3.6 0 0 -3.6 -3.6 0 0 -3.6 -3.6 0 0 -3.6 -3.6 0 0 -3.6 -3.6 0 0 -3.6 -3.6 0 0 -3.6 -3.6 0 0 -7.2 -3.6 0 0 -3.6 -3.6 0 0 -3.6 -3.6 0 0 -7.2 -3.6 0 0 -3.6 -3.6 0 0 -3.6 -3.6 0 0 -7.2 -3.6 0 0 -3.6 -3.6 0 0 -7.2 -3.6 0 0 -7.2 -3.6 0 0 -7.2 -3.6 0 0 -3.6 -3.6 0 0 -10.8 -3.6 0 0 -7.2 -3.6 0 0 -10.8 -3.6 0 0 -10.8 -3.6 0 0 -14.4 -3.6 0 0 -82.8 3.6 0 0 -21.6 3.6 0 0 -21.6 3.6 0 0 -14.4 3.6 0 0 -7.2 3.6 0 0 -14.4 3.6 0 0 -18 3.6 0 0 -10.8 3.6 0 0 -14.4 3.6 0 0 -10.8 3.6 0 0 -10.8 3.6 0 0 -10.8 3.6 0 0 -10.8 3.6 0 0 -7.2 3.6 0 0 -18 3.6 0 0 -14.4 3.6 0 0 -10.8 3.6 0 0 -7.2 3.6 0 0 -3.6 7.2 0 0 -3.6 7.2 0 0 -3.6 7.2 0 0 -3.6 7.2 0 0 -3.6 7.2 0 0 -3.59 7.2 0 0 -3.61 7.2 0 0 -3.6 7.2 0 0 -3.59 7.2 0 0 -3.61 7.2 0 0 -3.6 10.8 0 0 -3.59 10.8 0 0 -3.61 10.8 0 0 -3.6 10.8 0 0 -3.59 10.8 0 0 -3.61 10.8 0 0 -3.6 10.8 0 0 -3.59 18 0 0 -3.61 14.4 0 0 -3.6 18 0 0 -3.59 21.59 0 0 -3.61 36.01 0 0 -3.6 111.6 0 0 3.6z"/>
  <path id="outline" class="fil2" d="M730.72 1700.21l-3.61 0 0 -10.8 -3.59 0 0 -21.6 -3.6 0 0 -17.99 -3.61 0 0 -21.61 -3.59 0 0 -14.4 -3.6 0 0 -14.4 -3.61 0 0 -14.4 -3.59 0 0 -10.8 -3.6 0 0 -10.8 -3.61 0 0 -10.8 -3.59 0 0 -10.8 -3.6 0 0 -7.2 -3.61 0 0 -10.8 -3.59 0 0 -7.2 -3.6 0 0 -10.8 -3.61 0 0 -7.2 -3.59 0 0 -10.8 -3.6 0 0 -7.19 -3.6 0 0 -7.21 -3.6 0 0 -7.2 -3.6 0 0 -3.6 -7.2 0 0 -3.59 -7.2 0 0 -3.61 -7.2 0 0 -3.6 -10.8 0 0 -3.59 -7.2 0 0 -3.61 -10.8 0 0 -3.6 -7.2 0 0 -3.59 -14.4 0 0 -3.61 -10.8 0 0 -3.6 -14.4 0 0 -3.59 -10.8 0 0 -3.61 -25.21 0 0 -3.6 -18 0 0 -3.59 -21.59 0 0 -3.61 -28.8 0 0 -3.6 -111.6 0 0 3.6 -36 0 0 3.61 -21.6 0 0 3.59 -18 0 0 3.6 -14.4 0 0 3.61 -18 0 0 3.59 -10.8 0 0 3.6 -10.8 0 0 3.61 -10.8 0 0 3.59 -10.8 0 0 3.6 -10.8 0 0 3.61 -10.8 0 0 3.59 -10.8 0 0 3.6 -7.2 0 0 3.61 -7.2 0 0 3.59 -7.2 0 0 3.6 -7.2 0 0 3.61 -7.2 0 0 3.59 -7.2 0 0 3.6 -7.2 0 0 3.61 -7.2 0 0 3.59 -7.2 0 0 3.6 -7.2 0 0 3.6 -3.6 0 0 7.2 -3.6 0 0 10.8 -3.6 0 0 14.4 -3.6 0 0 18 -3.6 0 0 7.2 -3.6 0 0 10.8 -3.6 0 0 10.8 -3.6 0 0 10.8 -3.6 0 0 10.8 -3.6 0 0 14.4 -3.6 0 0 10.8 -3.6 0 0 18 -3.6 0 0 14.41 -3.6 0 0 7.19 -3.6 0 0 14.4 -3.6 0 0 21.6 -3.6 0 0 21.6 -3.6 0 0 82.8 3.6 0 0 14.4 3.6 0 0 10.8 3.6 0 0 10.8 3.6 0 0 7.2 3.6 0 0 10.8 3.6 0 0 3.6 3.6 0 0 7.2 3.6 0 0 7.2 3.6 0 0 7.2 3.6 0 0 3.6 3.6 0 0 7.2 3.6 0 0 3.6 3.6 0 0 3.6 3.6 0 0 7.2 3.6 0 0 3.6 3.6 0 0 3.6 3.6 0 0 7.2 3.6 0 0 3.6 3.6 0 0 3.6 3.6 0 0 3.6 3.6 0 0 3.6 3.6 0 0 3.6 3.6 0 0 3.6 3.6 0 0 3.6 3.6 0 0 3.6 3.6 0 0 3.6 3.6 0 0 3.6 7.2 0 0 3.6 3.6 0 0 3.6 3.6 0 0 3.6 7.2 0 0 3.6 3.6 0 0 3.6 7.2 0 0 3.6 7.2 0 0 3.6 3.6 0 0 3.6 7.2 0 0 3.6 7.2 0 0 3.6 7.2 0 0 3.6 14.4 0 0 3.6 14.4 0 0 3.6 36 0 0 -3.6 7.2 0 0 -3.6 14.4 0 0 -3.6 7.2 0 0 -3.6 10.8 0 0 -3.6 7.2 0 0 -3.6 7.2 0 0 -3.6 7.2 0 0 -3.6 7.19 0 0 -3.6 7.21 0 0 -3.6 7.2 0 0 -3.6 7.19 0 0 -3.6 7.21 0 0 -3.6 7.2 0 0 -3.6 7.19 0 0 -3.6 14.41 0 0 -3.6 7.19 0 0 -3.6 43.21 0 0 3.6 10.8 0 0 3.6 18 0 0 3.6 7.2 0 0 3.6 7.2 0 0 3.6 10.8 0 0 3.6 7.2 0 0 3.6 10.8 0 0 3.6 7.19 0 0 3.6 10.81 0 0 3.6 10.8 0 0 3.6 17.99 0 0 3.6 18.01 0 0 -3.6 14.4 0 0 -3.6 7.2 0 0 -3.6 7.2 0 0 -3.6 7.2 0 0 -3.6 3.6 0 0 -3.6 7.2 0 0 -3.6 3.6 0 0 -3.6 3.6 0 0 -3.6 7.2 0 0 -3.6 3.6 0 0 -3.6 3.6 0 0 -3.6 3.6 0 0 -3.6 3.6 0 0 -3.6 3.6 0 0 -3.6 3.6 0 0 -3.6 7.2 0 0 -3.6 3.6 0 0 -3.6 3.6 0 0 -3.6 3.6 0 0 -3.6 3.6 0 0 -3.6 3.6 0 0 -3.6 3.59 0 0 -3.6 3.61 0 0 -7.2 3.6 0 0 -3.6 3.59 0 0 -3.6 3.61 0 0 -3.6 3.6 0 0 -7.2 3.59 0 0 -3.6 3.61 0 0 -7.2 3.6 0 0 -7.2 3.59 0 0 -7.2 3.61 0 0 -7.2 3.6 0 0 -7.2 3.59 0 0 -10.8 3.61 0 0 -14.4 3.6 0 0 -10.8 3.59 0 0 -25.19 3.61 0 0 -72.01zm-244.8 -1234.79l-3.6 0 0 -21.6 -3.6 0 0 -10.8 -3.6 0 0 -7.2 -3.6 0 0 -7.2 -7.2 0 0 -3.6 -14.4 0 0 3.6 -7.2 0 0 3.6 -3.6 0 0 7.2 -3.6 0 0 3.6 -3.6 0 0 3.6 -3.6 0 0 7.2 -3.6 0 0 3.6 -3.6 0 0 7.19 -3.6 0 0 7.2 -3.6 0 0 7.21 -3.6 0 0 7.2 -3.6 0 0 7.19 -3.61 0 0 10.8 -3.59 0 0 7.21 -3.6 0 0 10.8 -3.6 0 0 10.8 -3.6 0 0 7.2 -3.6 0 0 10.8 -3.61 0 0 14.4 -3.59 0 0 7.2 -3.6 0 0 14.4 -3.61 0 0 10.8 -3.59 0 0 10.8 -3.6 0 0 14.39 -3.61 0 0 14.4 -3.59 0 0 7.2 -3.6 0 0 14.41 -3.61 0 0 14.4 -3.59 0 0 14.39 -3.6 0 0 14.41 -3.61 0 0 10.8 -3.59 0 0 18 -3.6 0 0 14.4 -3.61 0 0 10.8 -3.59 0 0 14.4 -3.6 0 0 10.8 -3.61 0 0 14.39 -3.59 0 0 14.41 -3.6 0 0 17.99 -3.6 0 0 18.01 -3.6 0 0 21.6 -3.6 0 0 14.39 -3.6 0 0 18.01 -3.6 0 0 14.4 -3.6 0 0 18 -3.6 0 0 25.2 3.6 0 0 10.79 3.6 0 0 18 3.6 0 0 14.4 3.6 0 0 14.4 3.6 0 0 10.81 3.6 0 0 10.79 3.6 0 0 21.61 3.6 0 0 14.39 3.59 0 0 10.8 3.61 0 0 10.8 3.6 0 0 14.4 3.59 0 0 14.4 3.61 0 0 10.81 3.6 0 0 14.39 3.59 0 0 14.4 3.61 0 0 10.8 3.6 0 0 10.8 3.59 0 0 10.8 3.61 0 0 7.2 3.6 0 0 10.8 3.59 0 0 7.2 3.61 0 0 3.6 3.6 0 0 7.21 3.59 0 0 3.59 7.21 0 0 3.6 25.19 0 0 -3.6 7.21 0 0 -3.59 7.2 0 0 -3.61 3.6 0 0 7.2 -3.6 0 0 3.6 -7.2 0 0 3.6 -3.6 0 0 3.6 -7.2 0 0 3.6 -25.2 0 0 -3.6 -7.2 0 0 -3.6 -7.21 0 0 -3.6 -3.59 0 0 -3.6 -3.6 0 0 -3.59 -3.61 0 0 -3.61 -3.59 0 0 -7.2 -3.6 0 0 -7.2 -3.61 0 0 -7.2 -3.59 0 0 -7.19 -3.6 0 0 -10.8 -3.61 0 0 -10.8 -3.59 0 0 -10.8 -3.6 0 0 -10.81 -3.61 0 0 -14.4 -3.59 0 0 -10.79 -3.6 0 0 -10.81 -3.6 0 0 -14.4 -3.6 0 0 -7.2 -3.6 0 0 -14.4 -3.6 0 0 -14.39 -3.6 0 0 -14.4 -3.6 0 0 -10.81 -3.6 0 0 -10.79 -3.6 0 0 -18.01 -3.6 0 0 -10.8 -3.6 0 0 -14.4 -3.6 0 0 -14.4 -3.6 0 0 -21.59 -3.6 0 0 -25.2 -3.6 0 0 -14.4 -3.6 0 0 -32.41 -3.6 0 0 -35.99 -3.6 0 0 -129.6 3.6 0 0 -61.21 3.6 0 0 -43.2 3.6 0 0 -68.39 -3.6 0 0 -18 -3.6 0 0 -3.6 -3.6 0 0 -3.6 -10.8 0 0 3.6 -7.2 0 0 3.6 -3.6 0 0 3.6 -3.6 0 0 3.6 -3.6 0 0 3.59 -3.6 0 0 3.61 -3.6 0 0 3.6 -3.6 0 0 3.6 -3.6 0 0 7.2 -3.6 0 0 3.59 -3.6 0 0 7.21 -3.6 0 0 3.59 -3.6 0 0 7.21 -3.6 0 0 7.2 -3.6 0 0 3.6 -3.6 0 0 10.8 -3.6 0 0 7.2 -3.6 0 0 7.19 -3.6 0 0 7.21 -3.6 0 0 7.19 -3.6 0 0 7.2 -3.6 0 0 10.8 -3.6 0 0 7.21 -3.6 0 0 10.8 -3.6 0 0 10.8 -3.6 0 0 7.2 -3.6 0 0 14.4 -3.6 0 0 7.2 -3.6 0 0 10.8 -3.6 0 0 7.2 -3.6 0 0 18 -3.6 0 0 7.2 -3.6 0 0 10.8 -3.6 0 0 10.8 -3.6 0 0 14.4 -3.6 0 0 14.39 -3.6 0 0 14.41 -3.6 0 0 14.4 -3.6 0 0 14.39 -3.6 0 0 18.01 -3.6 0 0 14.39 -3.6 0 0 10.8 -3.6 0 0 25.21 -3.6 0 0 21.6 -3.6 0 0 21.6 -3.6 0 0 17.99 -3.6 0 0 46.8 -3.6 0 0 136.8 3.6 0 0 21.6 3.6 0 0 36.01 3.6 0 0 32.39 3.6 0 0 21.61 3.6 0 0 32.4 3.6 0 0 53.99 3.6 0 0 115.2 -3.6 0 0 18 3.6 0 0 -3.59 7.2 0 0 -3.61 7.2 0 0 -3.6 7.2 0 0 -3.59 7.2 0 0 -3.61 7.2 0 0 -3.6 7.2 0 0 -3.59 7.2 0 0 -3.61 7.2 0 0 -3.6 10.8 0 0 -3.59 7.2 0 0 -3.61 10.8 0 0 -3.6 10.8 0 0 -3.59 7.2 0 0 -3.61 14.4 0 0 -3.6 7.2 0 0 -3.59 10.8 0 0 -3.61 18 0 0 -3.6 14.4 0 0 -3.59 14.4 0 0 -3.61 21.6 0 0 -3.6 28.8 0 0 -3.59 147.6 0 0 3.59 21.6 0 0 3.6 21.6 0 0 3.61 21.6 0 0 3.59 18 0 0 3.6 18 0 0 3.61 3.6 0 0 3.59 14.4 0 0 3.6 10.8 0 0 3.61 10.8 0 0 3.59 7.2 0 0 3.6 10.8 0 0 3.61 7.2 0 0 3.59 7.2 0 0 3.6 7.2 0 0 3.61 3.6 0 0 -14.41 -3.6 0 0 -36 -3.6 0 0 -28.8 -3.6 0 0 -122.4 3.6 0 0 -28.8 3.6 0 0 -50.39 3.6 0 0 -18.01 3.6 0 0 -28.79 3.6 0 0 -32.41 3.6 0 0 -28.79 3.6 0 0 -14.4 3.59 0 0 -21.6 3.61 0 0 -28.81 3.6 0 0 -21.6 3.59 0 0 -32.39 3.61 0 0 -18 3.6 0 0 -28.81 3.59 0 0 -14.39 3.61 0 0 -136.8 -3.61 0 0 -36 -3.59 0 0 -28.81 -3.6 0 0 -21.6 -3.61 0 0 -28.8 -3.59 0 0 -21.59 -3.6 0 0 -14.4 -3.61 0 0 -18 -3.59 0 0 -18 -3.6 0 0 -14.4 -3.6 0 0 -10.8 -3.6 0 0 -14.4 -3.6 0 0 -10.81 -3.6 0 0 -7.19 -3.6 0 0 -7.2 -3.6 0 0 -10.8 -3.6 0 0 -3.6 -3.6 0 0 -3.61 -3.6 0 0 -3.59 -3.6 0 0 -3.6 -14.4 0 0 3.6 -3.6 0 0 3.59 -3.6 0 0 3.61 -3.6 0 0 10.8 -3.6 0 0 10.8 -3.6 0 0 7.19 -3.6 0 0 21.6 -3.6 0 0 61.21 -3.6 0 0 68.39 -3.6 0 0 43.21 -3.6 0 0 28.8 -3.6 0 0 36 -3.6 0 0 21.59 -3.6 0 0 18.01 -3.61 0 0 21.6 -3.59 0 0 18 -3.6 0 0 10.8 -3.6 0 0 17.99 -3.6 0 0 10.8 -3.6 0 0 10.8 -3.61 0 0 14.41 -3.59 0 0 10.8 -3.6 0 0 10.8 -3.6 0 0 10.8 -3.6 0 0 14.4 -3.6 0 0 7.19 -3.61 0 0 7.2 -3.59 0 0 10.8 -3.6 0 0 7.2 -3.61 0 0 7.2 -3.59 0 0 7.2 -3.61 0 0 7.2 -3.6 0 0 7.21 -3.59 0 0 7.2 -3.6 0 0 7.19 -3.6 0 0 10.8 -3.6 0 0 7.21 -3.6 0 0 7.19 -3.6 0 0 7.2 -3.6 0 0 7.21 -3.6 0 0 7.19 -3.6 0 0 7.2 -3.6 0 0 7.21 -3.6 0 0 10.8 -3.6 0 0 7.19 -3.6 0 0 7.2 -3.6 0 0 7.21 -3.61 0 0 7.19 -3.59 0 0 7.2 -3.6 0 0 7.2 -3.6 0 0 7.2 -3.6 0 0 7.2 -3.6 0 0 10.8 -3.6 0 0 3.6 -3.6 0 0 7.2 -3.6 0 0 7.21 -7.2 0 0 -14.41 3.6 0 0 -14.4 3.6 0 0 -10.8 3.6 0 0 -7.2 3.6 0 0 -14.4 3.6 0 0 -7.19 3.6 0 0 -7.21 3.6 0 0 -10.79 3.6 0 0 -7.21 3.6 0 0 -10.8 3.59 0 0 -7.2 3.61 0 0 -7.19 3.6 0 0 -7.21 3.6 0 0 -7.2 3.6 0 0 -10.79 3.6 0 0 -7.2 3.6 0 0 -7.21 3.6 0 0 -7.19 3.6 0 0 -7.2 3.6 0 0 -7.21 3.6 0 0 -7.2 3.6 0 0 -10.8 3.6 0 0 -7.2 3.6 0 0 -7.2 3.6 0 0 -7.2 3.59 0 0 -10.8 3.6 0 0 -7.19 3.61 0 0 -43.2 -3.61 0 0 -21.6 -3.6 0 0 -32.4 -3.59 0 0 -25.21 -3.6 0 0 -21.6 -3.6 0 0 -46.79 -3.6 0 0 -50.4 -3.6 0 0 -122.4 3.6 0 0 -122.4zm-14.4 -68.4l7.2 0 0 3.6 3.6 0 0 3.6 3.6 0 0 3.6 3.6 0 0 7.2 3.6 0 0 3.6 3.6 0 0 10.8 3.59 0 0 7.2 3.6 0 0 14.39 3.61 0 0 126.01 -3.61 0 0 129.6 3.61 0 0 61.2 3.59 0 0 25.2 3.61 0 0 25.19 3.6 0 0 32.4 3.59 0 0 32.4 7.21 0 0 -17.99 3.6 0 0 -14.41 3.6 0 0 -14.39 3.6 0 0 -14.4 3.59 0 0 -21.6 3.61 0 0 -18 3.6 0 0 -25.2 3.6 0 0 -36 3.6 0 0 -18 3.6 0 0 -50.4 3.59 0 0 -111.6 3.61 0 0 -25.2 3.6 0 0 -21.61 3.6 0 0 -7.19 3.6 0 0 -10.8 3.6 0 0 -7.2 3.6 0 0 -7.21 3.6 0 0 -3.59 3.6 0 0 -3.61 3.6 0 0 -3.6 3.6 0 0 -3.59 3.6 0 0 -3.6 7.2 0 0 -3.61 21.6 0 0 3.61 7.2 0 0 3.6 3.6 0 0 3.59 3.6 0 0 3.6 3.6 0 0 3.61 3.6 0 0 3.59 3.6 0 0 7.21 3.6 0 0 7.2 3.6 0 0 3.6 3.6 0 0 10.8 3.59 0 0 7.2 3.61 0 0 10.8 3.6 0 0 10.8 3.59 0 0 14.4 3.61 0 0 10.8 3.6 0 0 18 3.59 0 0 10.8 3.61 0 0 21.6 3.6 0 0 17.99 3.59 0 0 25.21 3.61 0 0 21.6 3.6 0 0 28.79 3.59 0 0 50.41 3.61 0 0 126 -3.61 0 0 50.4 -3.59 0 0 18 -3.6 0 0 25.19 -3.61 0 0 21.6 -3.59 0 0 28.8 -3.6 0 0 18 -3.61 0 0 25.2 -3.59 0 0 21.6 -3.6 0 0 25.2 -3.61 0 0 21.61 -3.59 0 0 32.39 -3.6 0 0 28.8 -3.61 0 0 32.4 -3.59 0 0 57.61 -3.6 0 0 79.19 3.6 0 0 36 3.59 0 0 43.2 3.61 0 0 14.4 3.6 0 0 14.41 3.59 0 0 14.39 3.61 0 0 7.21 3.6 0 0 7.19 3.59 0 0 10.8 3.61 0 0 7.2 3.6 0 0 10.8 3.59 0 0 7.2 3.61 0 0 7.2 3.6 0 0 10.8 3.59 0 0 10.8 3.61 0 0 10.8 3.6 0 0 10.8 3.59 0 0 10.8 3.61 0 0 18 3.6 0 0 18.01 3.59 0 0 10.8 3.61 0 0 18 3.6 0 0 17.99 3.6 0 0 21.6 3.6 0 0 90 -3.6 0 0 21.6 -3.6 0 0 14.41 -3.6 0 0 10.8 -3.61 0 0 10.79 -3.59 0 0 7.2 -3.6 0 0 10.8 -3.61 0 0 3.6 -3.59 0 0 10.8 -3.6 0 0 7.2 -3.61 0 0 7.2 -3.59 0 0 3.6 -3.6 0 0 7.2 -3.61 0 0 3.6 -3.59 0 0 3.6 -3.6 0 0 3.6 -3.61 0 0 3.6 -3.59 0 0 7.2 -3.6 0 0 3.6 -3.61 0 0 3.6 -3.59 0 0 3.6 -3.6 0 0 3.6 -3.61 0 0 3.6 -3.59 0 0 3.6 -7.2 0 0 3.6 -3.6 0 0 3.6 -3.6 0 0 3.6 -3.6 0 0 3.6 -3.6 0 0 3.6 -3.6 0 0 3.6 -3.6 0 0 3.6 -3.6 0 0 3.6 -7.2 0 0 3.6 -3.6 0 0 3.6 -3.6 0 0 3.6 -7.2 0 0 3.6 -3.6 0 0 3.6 -7.2 0 0 3.6 -3.6 0 0 3.6 -7.2 0 0 3.6 -7.2 0 0 3.6 -10.8 0 0 3.6 -54.01 0 0 -3.6 -7.19 0 0 -3.6 -10.81 0 0 -3.6 -10.79 0 0 -3.6 -7.2 0 0 -3.6 -7.2 0 0 -3.6 -10.8 0 0 -3.6 -7.2 0 0 -3.6 -10.8 0 0 -3.6 -10.8 0 0 -3.6 -7.2 0 0 -3.6 -14.4 0 0 -3.6 -32.4 0 0 3.6 -10.8 0 0 3.6 -7.2 0 0 3.6 -7.21 0 0 3.6 -7.19 0 0 3.6 -7.2 0 0 3.6 -7.21 0 0 3.6 -7.19 0 0 3.6 -7.2 0 0 3.6 -7.21 0 0 3.6 -7.19 0 0 3.6 -7.2 0 0 3.6 -7.2 0 0 3.6 -7.2 0 0 3.6 -14.4 0 0 3.6 -14.4 0 0 3.6 -25.2 0 0 3.6 -36 0 0 -3.6 -10.8 0 0 -3.6 -10.8 0 0 -3.6 -7.2 0 0 -3.6 -10.8 0 0 -3.6 -7.2 0 0 -3.6 -3.6 0 0 -3.6 -7.2 0 0 -3.6 -3.6 0 0 -3.6 -7.2 0 0 -3.6 -3.6 0 0 -3.6 -7.2 0 0 -3.6 -3.6 0 0 -3.6 -3.6 0 0 -3.6 -3.6 0 0 -3.6 -7.2 0 0 -3.6 -3.6 0 0 -3.6 -3.6 0 0 -3.6 -3.6 0 0 -3.6 -3.6 0 0 -3.6 -3.6 0 0 -3.6 -3.6 0 0 -3.6 -3.6 0 0 -3.6 -3.6 0 0 -3.6 -3.6 0 0 -7.2 -3.6 0 0 -3.6 -3.6 0 0 -3.6 -3.6 0 0 -3.6 -3.6 0 0 -3.6 -3.6 0 0 -7.2 -3.6 0 0 -3.6 -3.6 0 0 -7.2 -3.6 0 0 -3.6 -3.6 0 0 -3.6 -3.6 0 0 -7.2 -3.6 0 0 -7.2 -3.6 0 0 -7.2 -3.6 0 0 -7.2 -3.6 0 0 -7.2 -3.6 0 0 -10.8 -3.6 0 0 -7.2 -3.6 0 0 -17.99 -3.6 0 0 -7.21 -3.6 0 0 -21.6 -3.6 0 0 -61.2 3.6 0 0 -17.99 3.6 0 0 -21.6 3.6 0 0 -14.41 3.6 0 0 -17.99 3.6 0 0 -10.8 3.6 0 0 -14.41 3.6 0 0 -14.4 3.6 0 0 -18 3.6 0 0 -10.8 3.6 0 0 -10.8 3.6 0 0 -7.19 3.6 0 0 -10.81 3.6 0 0 -14.4 3.6 0 0 -7.2 3.6 0 0 -14.4 3.6 0 0 -14.4 3.6 0 0 -14.4 3.6 0 0 -28.8 3.6 0 0 -21.6 3.6 0 0 -115.2 -3.6 0 0 -36 -3.6 0 0 -25.19 -3.6 0 0 -25.21 -3.6 0 0 -17.99 -3.6 0 0 -25.21 -3.6 0 0 -46.8 -3.6 0 0 -54 -3.6 0 0 -75.6 3.6 0 0 -25.2 3.6 0 0 -39.59 3.6 0 0 -25.2 3.6 0 0 -28.8 3.6 0 0 -14.4 3.6 0 0 -14.41 3.6 0 0 -10.8 3.6 0 0 -17.99 3.6 0 0 -21.6 3.6 0 0 -18 3.6 0 0 -14.41 3.6 0 0 -7.19 3.6 0 0 -18 3.6 0 0 -10.8 3.6 0 0 -10.8 3.6 0 0 -14.4 3.6 0 0 -7.2 3.6 0 0 -14.4 3.6 0 0 -14.4 3.6 0 0 -7.2 3.6 0 0 -10.8 3.6 0 0 -10.8 3.6 0 0 -7.21 3.6 0 0 -10.8 3.6 0 0 -10.8 3.6 0 0 -7.2 3.6 0 0 -10.8 3.6 0 0 -7.19 3.6 0 0 -10.8 3.6 0 0 -7.2 3.6 0 0 -7.21 3.6 0 0 -10.79 3.6 0 0 -7.2 3.6 0 0 -3.6 3.6 0 0 -7.2 3.6 0 0 -7.21 3.6 0 0 -3.59 3.6 0 0 -7.2 3.6 0 0 -3.6 3.6 0 0 -3.6 3.6 0 0 -7.2 3.6 0 0 -3.6 3.6 0 0 -3.6 3.6 0 0 -3.6 3.6 0 0 -3.6 3.6 0 0 -3.61 3.6 0 0 -3.59 3.6 0 0 -3.6 3.6 0 0 -3.61 7.2 0 0 -3.59 7.2 0 0 -3.6 25.2 0 0 3.6 7.2 0 0 3.59 3.6 0 0 3.61 3.6 0 0 7.19 3.6 0 0 7.21 3.6 0 0 18 3.6 0 0 75.6 -3.6 0 0 43.2 -3.6 0 0 43.2 -3.6 0 0 151.2 3.6 0 0 17.99 3.6 0 0 -14.39 3.6 0 0 -18.01 3.6 0 0 -14.39 3.6 0 0 -21.6 3.6 0 0 -14.4 3.6 0 0 -14.4 3.6 0 0 -14.4 3.6 0 0 -7.2 3.6 0 0 -14.4 3.6 0 0 -18 3.6 0 0 -10.8 3.59 0 0 -14.4 3.61 0 0 -14.4 3.6 0 0 -10.8 3.59 0 0 -14.41 3.61 0 0 -10.8 3.6 0 0 -14.39 3.59 0 0 -18.01 3.61 0 0 -10.79 3.6 0 0 -10.8 3.59 0 0 -10.81 3.61 0 0 -14.39 3.6 0 0 -10.8 3.59 0 0 -10.8 3.61 0 0 -10.8 3.6 0 0 -7.2 3.59 0 0 -10.81 3.61 0 0 -10.8 3.6 0 0 -10.8 3.59 0 0 -7.19 3.61 0 0 -7.2 3.6 0 0 -10.8 3.6 0 0 -7.21 3.6 0 0 -7.19 3.6 0 0 -3.61 3.59 0 0 -7.19 3.61 0 0 -3.6 3.6 0 0 -7.2 3.6 0 0 -3.6 3.6 0 0 -3.6 3.6 0 0 -3.6 3.6 0 0 -3.6 3.6 0 0 -3.6 3.6 0 0 -3.6 3.6 0 0 -3.6 7.2 0 0 -3.6 28.8 0 0 3.6zm-28.8 1393.19l-3.6 0 0 18 -3.6 0 0 10.8 -3.6 0 0 10.8 -3.6 0 0 7.21 -3.6 0 0 7.19 -3.6 0 0 7.2 7.2 0 0 3.6 14.4 0 0 3.6 10.8 0 0 3.6 7.2 0 0 3.6 7.2 0 0 3.6 10.8 0 0 3.6 7.2 0 0 3.6 7.2 0 0 3.6 10.8 0 0 3.6 10.8 0 0 3.6 7.19 0 0 3.6 14.41 0 0 3.6 7.19 0 0 3.6 14.41 0 0 3.6 18 0 0 -3.6 10.8 0 0 -3.6 7.2 0 0 -3.6 7.2 0 0 -3.6 3.6 0 0 -3.6 3.6 0 0 -3.6 3.6 0 0 -3.6 3.6 0 0 -3.6 3.6 0 0 -3.6 3.6 0 0 -3.6 3.6 0 0 -3.6 3.6 0 0 -7.2 3.6 0 0 -3.6 3.6 0 0 -7.2 3.6 0 0 -3.6 3.6 0 0 -7.2 3.6 0 0 -3.6 3.6 0 0 -10.8 3.6 0 0 -7.2 3.6 0 0 -7.19 3.6 0 0 -10.81 3.6 0 0 -10.8 7.2 0 0 28.8 -3.6 0 0 10.8 -3.6 0 0 7.2 -3.6 0 0 7.21 -3.6 0 0 7.19 -3.6 0 0 7.2 -3.6 0 0 3.6 -3.6 0 0 7.2 -3.6 0 0 3.6 -3.6 0 0 7.2 -3.6 0 0 3.6 -3.6 0 0 3.6 -3.6 0 0 3.6 -3.6 0 0 3.6 -3.6 0 0 3.6 -3.6 0 0 3.6 -3.6 0 0 3.6 -3.6 0 0 3.6 -7.2 0 0 3.6 -3.6 0 0 3.6 -7.2 0 0 3.6 -10.8 0 0 3.6 -28.8 0 0 -3.6 -18 0 0 -3.6 -10.8 0 0 -3.6 -10.8 0 0 -3.6 -10.8 0 0 -3.6 -10.8 0 0 -3.6 -7.2 0 0 -3.6 -10.8 0 0 -3.6 -7.2 0 0 -3.6 -7.2 0 0 -3.6 -10.8 0 0 -3.6 -7.2 0 0 -3.6 -10.8 0 0 -3.6 -10.8 0 0 -3.6 -3.6 0 0 43.2 -3.6 0 0 10.8 -3.6 0 0 7.2 -3.6 0 0 3.6 -3.6 0 0 3.6 -7.2 0 0 -10.8 3.6 0 0 -7.2 3.6 0 0 -14.4 3.6 0 0 -32.4 -7.2 0 0 3.6 -3.6 0 0 3.6 -7.2 0 0 3.6 -3.6 0 0 3.6 -3.6 0 0 3.6 -7.2 0 0 3.6 -3.6 0 0 3.6 -7.2 0 0 3.6 -3.6 0 0 3.6 -7.2 0 0 3.6 -7.2 0 0 3.6 -7.2 0 0 3.6 -7.2 0 0 3.6 -7.2 0 0 3.6 -3.6 0 0 3.6 -10.8 0 0 3.6 -7.2 0 0 3.6 -10.8 0 0 3.6 -7.2 0 0 3.6 -7.2 0 0 3.6 -10.8 0 0 3.6 -10.8 0 0 3.6 -14.4 0 0 3.6 -57.6 0 0 -3.6 -10.8 0 0 -3.6 -7.2 0 0 -3.6 -7.2 0 0 -3.6 -7.2 0 0 -3.6 -7.2 0 0 -3.6 -7.2 0 0 -3.6 -7.2 0 0 -3.6 -3.6 0 0 -3.6 -3.6 0 0 -3.6 -3.6 0 0 -3.6 -7.2 0 0 -3.6 -3.6 0 0 -3.6 -3.6 0 0 -3.6 -3.6 0 0 -3.6 -3.6 0 0 -3.6 -3.6 0 0 -3.6 -3.6 0 0 -7.2 -3.6 0 0 -3.6 -3.6 0 0 -7.2 -3.6 0 0 -7.2 3.6 0 0 -3.6 3.6 0 0 3.6 3.6 0 0 3.6 3.6 0 0 3.6 3.6 0 0 3.6 3.6 0 0 3.6 3.6 0 0 3.6 3.6 0 0 3.6 3.6 0 0 3.6 3.6 0 0 3.6 3.6 0 0 3.6 3.6 0 0 3.6 3.6 0 0 3.6 7.2 0 0 3.6 3.6 0 0 3.6 3.6 0 0 3.6 7.2 0 0 3.6 3.6 0 0 3.6 10.8 0 0 3.6 7.2 0 0 3.6 10.8 0 0 3.6 10.8 0 0 3.6 39.6 0 0 -3.6 14.4 0 0 -3.6 10.8 0 0 -3.6 14.4 0 0 -3.6 7.2 0 0 -3.6 7.2 0 0 -3.6 10.8 0 0 -3.6 7.2 0 0 -3.6 7.2 0 0 -3.6 7.2 0 0 -3.6 7.2 0 0 -3.6 7.2 0 0 -3.6 7.2 0 0 -3.6 3.6 0 0 -3.6 7.2 0 0 -3.6 7.2 0 0 -3.6 3.6 0 0 -3.6 7.2 0 0 -3.6 3.6 0 0 -3.6 7.2 0 0 -3.6 3.6 0 0 -3.6 3.6 0 0 -3.6 7.2 0 0 -3.6 7.2 0 0 -3.6 3.6 0 0 -3.59 3.6 0 0 -7.21 3.6 0 0 -7.2 3.6 0 0 -7.19 3.6 0 0 -10.8 3.6 0 0 -7.21 3.6 0 0 -10.8 3.6 0 0 -18 3.6 0 0 -7.2 3.6 0 0 -28.8 7.2 0 0 46.8z"/>
  <path class="fil3" d="M755.92 1897.58l-318.84 -522.35 280.81 -484.38 -130.03 0 -150.4 257.54c-31.31,53.43 -53.01,94.21 -65.5,122.56 -18.63,-35.15 -40.52,-72.64 -65.68,-112.25l-164.8 -267.85 -119.67 0 286.58 478.53 -308.47 528.2 134.07 0 208.2 -359.01c11.91,-20.39 23.25,-40.78 34,-60.93 18.25,33.75 31.31,57.42 39.57,70.77l208.97 349.17 131.19 0z"/>
 </g>
</svg>
