<?xml version="1.0" encoding="UTF-8"?>
<!DOCTYPE svg PUBLIC "-//W3C//DTD SVG 1.1//EN" "http://www.w3.org/Graphics/SVG/1.1/DTD/svg11.dtd">
<!-- Creator: CorelDRAW (Versión de evaluación) -->
<svg xmlns="http://www.w3.org/2000/svg" xml:space="preserve" width="500px" height="2062px" version="1.1" style="shape-rendering:geometricPrecision; text-rendering:geometricPrecision; image-rendering:optimizeQuality; fill-rule:evenodd; clip-rule:evenodd"
viewBox="0 0 500 2061.16"
 xmlns:xlink="http://www.w3.org/1999/xlink"
 xmlns:xodm="http://www.corel.com/coreldraw/odm/2003">
 <defs>
  <style type="text/css">
   <![CDATA[
    .str0 {stroke:#ED3237;stroke-width:2;stroke-miterlimit:22.9256}
    .fil2 {fill:#4B4B4D}
    .fil3 {fill:#ED3237}
    .fil0 {fill:#F2E6C9}
    .fil1 {fill:#FAFAF7}
   ]]>
  </style>
 </defs>
 <g id="extraction">
  <metadata id="CorelCorpID_0Corel-Layer"/>
  <polygon id="root" class="fil0" points="233.16,267.6 240.35,267.6 240.35,271.2 243.95,271.2 243.95,278.4 247.55,278.4 247.55,281.99 251.15,281.99 251.15,289.19 254.74,289.19 254.74,296.38 258.34,296.38 258.34,303.57 261.94,303.57 261.94,310.77 265.53,310.77 265.53,321.56 269.13,321.56 269.13,328.75 272.73,328.75 272.73,339.54 276.32,339.54 276.32,350.34 279.92,350.34 279.92,361.13 283.52,361.13 283.52,375.52 287.11,375.52 287.11,382.71 290.71,382.71 290.71,397.1 294.31,397.1 294.31,407.89 297.9,407.89 297.9,425.88 301.5,425.88 301.5,440.27 305.1,440.27 305.1,451.06 308.7,451.06 308.7,469.04 312.3,469.04 312.3,490.63 315.89,490.63 315.89,505.02 319.49,505.02 319.49,526.6 323.09,526.6 323.09,540.98 326.69,540.98 326.69,555.37 330.28,555.37 330.28,580.56 333.88,580.56 333.88,591.35 337.48,591.35 337.48,612.93 341.07,612.93 341.07,641.71 344.67,641.71 344.67,659.69 348.27,659.69 348.27,692.06 351.86,692.06 351.86,713.65 355.46,713.65 355.46,760.41 359.06,760.41 359.06,778.4 362.65,778.4 362.65,828.76 366.25,828.76 366.25,843.14 369.85,843.14 369.85,897.1 373.45,897.1 373.45,951.06 377.04,951.06 377.04,983.43 380.64,983.43 380.64,1062.57 384.24,1062.57 384.24,1112.93 387.84,1112.93 387.84,1253.22 391.43,1253.22 391.43,1343.15 395.03,1343.15 395.03,1379.12 398.63,1379.12 398.63,1433.08 402.23,1433.08 402.23,1443.87 398.63,1443.87 398.63,1436.67 395.03,1436.67 395.03,1433.08 391.43,1433.08 391.43,1425.88 387.84,1425.88 387.84,1422.28 384.24,1422.28 384.24,1415.09 380.64,1415.09 380.64,1411.49 377.04,1411.49 377.04,1404.3 373.45,1404.3 373.45,1400.7 369.85,1400.7 369.85,1397.11 366.25,1397.11 366.25,1393.51 362.65,1393.51 362.65,1389.91 359.06,1389.91 359.06,1386.32 355.46,1386.32 355.46,1382.72 351.86,1382.72 351.86,1379.12 348.27,1379.12 348.27,1375.52 341.07,1375.52 341.07,1371.93 337.48,1371.93 337.48,1368.33 333.88,1368.33 333.88,1364.73 326.69,1364.73 326.69,1361.13 319.49,1361.13 319.49,1357.54 312.3,1357.54 312.3,1353.94 301.5,1353.94 301.5,1350.34 290.71,1350.34 290.71,1346.74 276.32,1346.74 276.32,1343.15 229.56,1343.15 229.56,1346.74 218.77,1346.74 218.77,1350.34 207.98,1350.34 207.98,1353.94 200.78,1353.94 200.78,1357.54 193.59,1357.54 193.59,1361.13 186.4,1361.13 186.4,1364.73 182.8,1364.73 182.8,1368.33 175.61,1368.33 175.61,1371.93 172.01,1371.93 172.01,1375.52 168.41,1375.52 168.41,1379.12 164.81,1379.12 164.81,1382.72 157.62,1382.72 157.62,1386.32 154.02,1386.32 154.02,1393.51 150.42,1393.51 150.42,1397.11 146.83,1397.11 146.83,1400.7 143.23,1400.7 143.23,1404.3 139.63,1404.3 139.63,1407.9 136.03,1407.9 136.03,1411.49 132.44,1411.49 132.44,1418.69 128.84,1418.69 128.84,1422.28 125.24,1422.28 125.24,1425.88 121.65,1425.88 121.65,1433.08 118.05,1433.08 118.05,1440.27 114.45,1440.27 114.45,1443.87 110.86,1443.87 110.86,1451.06 107.26,1451.06 107.26,1458.26 103.66,1458.26 103.66,1465.45 100.07,1465.45 100.07,1469.05 96.47,1469.05 96.47,1476.24 92.87,1476.24 92.87,1433.08 96.47,1433.08 96.47,1382.72 100.07,1382.72 100.07,1332.36 103.66,1332.36 103.66,1282 107.26,1282 107.26,1213.65 110.86,1213.65 110.86,1174.08 114.45,1174.08 114.45,1141.71 118.05,1141.71 118.05,1109.33 121.65,1109.33 121.65,1076.96 125.24,1076.96 125.24,1037.39 128.84,1037.39 128.84,1015.81 132.44,1015.81 132.44,994.23 136.03,994.23 136.03,969.04 139.63,969.04 139.63,951.06 143.23,951.06 143.23,925.88 146.83,925.88 146.83,911.49 150.42,911.49 150.42,886.31 154.02,886.31 154.02,868.33 157.62,868.33 157.62,843.14 161.21,843.14 161.21,832.35 164.81,832.35 164.81,807.18 168.41,807.18 168.41,789.19 172.01,789.19 172.01,771.2 175.61,771.2 175.61,756.81 179.2,756.81 179.2,728.04 182.8,728.04 182.8,706.45 186.4,706.45 186.4,674.08 189.99,674.08 189.99,652.5 193.59,652.5 193.59,627.32 197.19,627.32 197.19,594.94 200.78,594.94 200.78,562.57 204.38,562.57 204.38,436.67 200.78,436.67 200.78,307.17 204.38,307.17 204.38,289.19 207.98,289.19 207.98,281.99 211.57,281.99 211.57,274.8 215.17,274.8 215.17,267.6 218.77,267.6 218.77,264 233.16,264 "/>
  <polygon id="crown" class="fil1" points="276.32,1364.73 283.52,1364.73 283.52,1368.33 297.9,1368.33 297.9,1371.93 305.1,1371.93 305.1,1375.52 312.3,1375.52 312.3,1379.12 319.49,1379.12 319.49,1382.72 323.09,1382.72 323.09,1386.32 330.28,1386.32 330.28,1389.91 333.88,1389.91 333.88,1393.51 337.48,1393.51 337.48,1397.11 341.07,1397.11 341.07,1400.7 344.67,1400.7 344.67,1404.3 348.27,1404.3 348.27,1407.9 351.86,1407.9 351.86,1411.49 355.46,1411.49 355.46,1415.09 359.06,1415.09 359.06,1418.69 362.65,1418.69 362.65,1425.88 366.25,1425.88 366.25,1429.48 369.85,1429.48 369.85,1433.08 373.45,1433.08 373.45,1440.27 377.04,1440.27 377.04,1443.87 380.64,1443.87 380.64,1451.06 384.24,1451.06 384.24,1454.66 387.84,1454.66 387.84,1461.86 391.43,1461.86 391.43,1469.05 395.03,1469.05 395.03,1476.24 398.63,1476.24 398.63,1483.44 402.23,1483.44 402.23,1494.23 405.82,1494.23 405.82,1505.02 409.42,1505.02 409.42,1515.81 413.02,1515.81 413.02,1530.2 416.61,1530.2 416.61,1548.19 420.21,1548.19 420.21,1558.98 423.81,1558.98 423.81,1569.77 427.4,1569.77 427.4,1580.56 431,1580.56 431,1591.35 434.6,1591.35 434.6,1602.15 438.19,1602.15 438.19,1612.94 441.79,1612.94 441.79,1623.73 445.39,1623.73 445.39,1634.52 448.99,1634.52 448.99,1648.91 452.58,1648.91 452.58,1656.1 456.18,1656.1 456.18,1666.89 459.78,1666.89 459.78,1681.28 463.38,1681.28 463.38,1688.48 466.97,1688.48 466.97,1702.86 470.57,1702.86 470.57,1724.45 474.17,1724.45 474.17,1738.84 477.77,1738.84 477.77,1803.58 474.17,1803.58 474.17,1821.57 470.57,1821.57 470.57,1835.96 466.97,1835.96 466.97,1846.75 463.38,1846.75 463.38,1857.54 459.78,1857.54 459.78,1864.73 456.18,1864.73 456.18,1868.33 452.58,1868.33 452.58,1875.53 448.99,1875.53 448.99,1879.12 445.39,1879.12 445.39,1882.72 441.79,1882.72 441.79,1886.32 438.19,1886.32 438.19,1889.92 434.6,1889.92 434.6,1893.51 431,1893.51 431,1897.11 427.4,1897.11 427.4,1900.71 420.21,1900.71 420.21,1904.3 416.61,1904.3 416.61,1907.9 409.42,1907.9 409.42,1911.5 405.82,1911.5 405.82,1915.09 398.63,1915.09 398.63,1918.69 391.43,1918.69 391.43,1922.29 387.84,1922.29 387.84,1925.88 380.64,1925.88 380.64,1929.48 373.45,1929.48 373.45,1933.08 366.25,1933.08 366.25,1936.68 362.65,1936.68 362.65,1940.27 359.06,1940.27 359.06,1943.87 351.86,1943.87 351.86,1947.47 344.67,1947.47 344.67,1951.07 337.48,1951.07 337.48,1954.66 333.88,1954.66 333.88,1958.26 330.28,1958.26 330.28,1961.86 323.09,1961.86 323.09,1965.46 319.49,1965.46 319.49,1969.05 312.3,1969.05 312.3,1972.65 308.7,1972.65 308.7,1976.25 305.1,1976.25 305.1,1979.84 297.9,1979.84 297.9,1983.44 290.71,1983.44 290.71,1987.04 287.11,1987.04 287.11,1990.63 279.92,1990.63 279.92,1994.23 269.13,1994.23 269.13,1997.83 225.96,1997.83 225.96,1994.23 218.77,1994.23 218.77,1990.63 211.57,1990.63 211.57,1987.04 204.38,1987.04 204.38,1983.44 200.78,1983.44 200.78,1979.84 193.59,1979.84 193.59,1976.25 189.99,1976.25 189.99,1972.65 186.4,1972.65 186.4,1969.05 179.2,1969.05 179.2,1965.46 175.61,1965.46 175.61,1961.86 172.01,1961.86 172.01,1958.26 164.81,1958.26 164.81,1954.66 161.21,1954.66 161.21,1951.07 157.62,1951.07 157.62,1947.47 150.42,1947.47 150.42,1943.87 146.83,1943.87 146.83,1940.27 139.63,1940.27 139.63,1936.68 136.03,1936.68 136.03,1933.08 128.84,1933.08 128.84,1929.48 121.65,1929.48 121.65,1925.88 118.05,1925.88 118.05,1922.29 110.86,1922.29 110.86,1918.69 107.26,1918.69 107.26,1915.09 100.07,1915.09 100.07,1911.5 96.47,1911.5 96.47,1907.9 89.27,1907.9 89.27,1904.3 82.08,1904.3 82.08,1900.71 78.48,1900.71 78.48,1897.11 71.28,1897.11 71.28,1893.51 67.69,1893.51 67.69,1889.92 64.09,1889.92 64.09,1886.32 60.49,1886.32 60.49,1882.72 56.9,1882.72 56.9,1879.12 53.3,1879.12 53.3,1875.53 49.7,1875.53 49.7,1871.93 46.11,1871.93 46.11,1864.73 42.51,1864.73 42.51,1861.14 38.91,1861.14 38.91,1853.94 35.32,1853.94 35.32,1846.75 31.72,1846.75 31.72,1839.56 28.12,1839.56 28.12,1821.57 24.52,1821.57 24.52,1742.43 28.12,1742.43 28.12,1724.45 31.72,1724.45 31.72,1706.46 35.32,1706.46 35.32,1692.07 38.91,1692.07 38.91,1681.28 42.51,1681.28 42.51,1670.49 46.11,1670.49 46.11,1656.1 49.7,1656.1 49.7,1648.91 53.3,1648.91 53.3,1638.11 56.9,1638.11 56.9,1627.32 60.49,1627.32 60.49,1616.53 64.09,1616.53 64.09,1609.34 67.69,1609.34 67.69,1594.95 71.28,1594.95 71.28,1587.75 74.88,1587.75 74.88,1576.96 78.48,1576.96 78.48,1566.17 82.08,1566.17 82.08,1555.38 85.67,1555.38 85.67,1544.59 89.27,1544.59 89.27,1530.2 92.87,1530.2 92.87,1526.6 96.47,1526.6 96.47,1515.81 100.07,1515.81 100.07,1508.62 103.66,1508.62 103.66,1501.42 107.26,1501.42 107.26,1490.63 110.86,1490.63 110.86,1483.44 114.45,1483.44 114.45,1476.24 118.05,1476.24 118.05,1472.65 121.65,1472.65 121.65,1465.45 125.24,1465.45 125.24,1458.26 128.84,1458.26 128.84,1451.06 132.44,1451.06 132.44,1443.87 136.03,1443.87 136.03,1440.27 139.63,1440.27 139.63,1433.08 143.23,1433.08 143.23,1429.48 146.83,1429.48 146.83,1425.88 150.42,1425.88 150.42,1418.69 154.02,1418.69 154.02,1415.09 157.62,1415.09 157.62,1411.49 161.21,1411.49 161.21,1407.9 164.81,1407.9 164.81,1404.3 168.41,1404.3 168.41,1400.7 172.01,1400.7 172.01,1397.11 175.61,1397.11 175.61,1393.51 179.2,1393.51 179.2,1389.91 182.8,1389.91 182.8,1386.32 186.4,1386.32 186.4,1382.72 189.99,1382.72 189.99,1379.12 197.19,1379.12 197.19,1375.52 204.38,1375.52 204.38,1371.93 211.57,1371.93 211.57,1368.33 222.37,1368.33 222.37,1364.73 236.76,1364.73 236.76,1361.13 276.32,1361.13 "/>
  <path id="outline" class="fil2" d="M477.77 1738.84l-3.6 0 0 -14.39 -3.6 0 0 -21.59 -3.6 0 0 -14.38 -3.59 0 0 -7.2 -3.6 0 0 -14.39 -3.6 0 0 -10.79 -3.6 0 0 -7.19 -3.59 0 0 -14.39 -3.6 0 0 -10.79 -3.6 0 0 -10.79 -3.6 0 0 -10.79 -3.59 0 0 -10.8 -3.6 0 0 -10.79 -3.6 0 0 -10.79 -3.59 0 0 -10.79 -3.6 0 0 -10.79 -3.6 0 0 -17.99 -3.59 0 0 -14.39 -3.6 0 0 -10.79 -3.6 0 0 -10.79 -3.59 0 0 -10.79 -3.6 0 0 -7.2 -3.6 0 0 -7.19 -3.6 0 0 -7.19 -3.59 0 0 -7.2 -3.6 0 0 -3.6 -3.6 0 0 -7.19 -3.6 0 0 -3.6 -3.59 0 0 -7.19 -3.6 0 0 -3.6 -3.6 0 0 -3.6 -3.6 0 0 -7.19 -3.59 0 0 -3.6 -3.6 0 0 -3.6 -3.6 0 0 -3.59 -3.59 0 0 -3.6 -3.6 0 0 -3.6 -3.6 0 0 -3.59 -3.59 0 0 -3.6 -3.6 0 0 -3.6 -3.6 0 0 -3.59 -7.19 0 0 -3.6 -3.6 0 0 -3.6 -7.19 0 0 -3.6 -7.2 0 0 -3.59 -7.2 0 0 -3.6 -14.38 0 0 -3.6 -7.2 0 0 -3.6 -39.56 0 0 3.6 -14.39 0 0 3.6 -10.8 0 0 3.6 -7.19 0 0 3.59 -7.19 0 0 3.6 -7.2 0 0 3.6 -3.59 0 0 3.6 -3.6 0 0 3.59 -3.6 0 0 3.6 -3.59 0 0 3.6 -3.6 0 0 3.59 -3.6 0 0 3.6 -3.6 0 0 3.6 -3.6 0 0 3.59 -3.59 0 0 3.6 -3.6 0 0 3.6 -3.6 0 0 7.19 -3.59 0 0 3.6 -3.6 0 0 3.6 -3.6 0 0 7.19 -3.6 0 0 3.6 -3.59 0 0 7.19 -3.6 0 0 7.2 -3.6 0 0 7.19 -3.59 0 0 7.2 -3.6 0 0 3.59 -3.6 0 0 7.2 -3.59 0 0 7.19 -3.6 0 0 10.79 -3.6 0 0 7.2 -3.59 0 0 7.19 -3.6 0 0 10.79 -3.6 0 0 3.6 -3.6 0 0 14.39 -3.6 0 0 10.79 -3.59 0 0 10.79 -3.6 0 0 10.79 -3.6 0 0 10.79 -3.6 0 0 7.2 -3.59 0 0 14.39 -3.6 0 0 7.19 -3.6 0 0 10.79 -3.59 0 0 10.79 -3.6 0 0 10.8 -3.6 0 0 7.19 -3.59 0 0 14.39 -3.6 0 0 10.79 -3.6 0 0 10.79 -3.59 0 0 14.39 -3.6 0 0 17.99 -3.6 0 0 17.98 -3.6 0 0 79.14 3.6 0 0 17.99 3.6 0 0 7.19 3.6 0 0 7.19 3.59 0 0 7.2 3.6 0 0 3.59 3.6 0 0 7.2 3.59 0 0 3.6 3.6 0 0 3.59 3.6 0 0 3.6 3.59 0 0 3.6 3.6 0 0 3.6 3.6 0 0 3.59 3.59 0 0 3.6 7.2 0 0 3.6 3.6 0 0 3.59 7.19 0 0 3.6 7.2 0 0 3.6 3.6 0 0 3.59 7.19 0 0 3.6 3.6 0 0 3.6 7.19 0 0 3.59 3.6 0 0 3.6 7.19 0 0 3.6 7.19 0 0 3.6 3.6 0 0 3.59 7.2 0 0 3.6 3.59 0 0 3.6 7.2 0 0 3.6 3.59 0 0 3.59 3.6 0 0 3.6 7.2 0 0 3.6 3.6 0 0 3.6 3.59 0 0 3.59 7.2 0 0 3.6 3.59 0 0 3.6 3.6 0 0 3.59 7.19 0 0 3.6 3.6 0 0 3.6 7.19 0 0 3.59 7.2 0 0 3.6 7.19 0 0 3.6 43.17 0 0 -3.6 10.79 0 0 -3.6 7.19 0 0 -3.59 3.6 0 0 -3.6 7.19 0 0 -3.6 7.2 0 0 -3.59 3.6 0 0 -3.6 3.6 0 0 -3.6 7.19 0 0 -3.59 3.6 0 0 -3.6 7.19 0 0 -3.6 3.6 0 0 -3.6 3.6 0 0 -3.59 7.19 0 0 -3.6 7.19 0 0 -3.6 7.2 0 0 -3.6 3.59 0 0 -3.59 3.6 0 0 -3.6 7.2 0 0 -3.6 7.19 0 0 -3.6 7.2 0 0 -3.59 3.59 0 0 -3.6 7.2 0 0 -3.6 7.19 0 0 -3.59 3.6 0 0 -3.6 7.19 0 0 -3.6 3.6 0 0 -3.59 7.19 0 0 -3.6 3.6 0 0 -3.6 3.6 0 0 -3.59 3.59 0 0 -3.6 3.6 0 0 -3.6 3.6 0 0 -3.6 3.6 0 0 -3.59 3.59 0 0 -7.2 3.6 0 0 -3.6 3.6 0 0 -7.19 3.6 0 0 -10.79 3.59 0 0 -10.79 3.6 0 0 -14.39 3.6 0 0 -17.99 3.6 0 0 -64.74zm-273.39 -1176.27l-3.6 0 0 32.37 -3.59 0 0 32.38 -3.6 0 0 25.18 -3.6 0 0 21.58 -3.59 0 0 32.37 -3.6 0 0 21.59 -3.6 0 0 28.77 -3.59 0 0 14.39 -3.6 0 0 17.99 -3.6 0 0 17.99 -3.6 0 0 25.17 -3.6 0 0 10.79 -3.59 0 0 25.19 -3.6 0 0 17.98 -3.6 0 0 25.18 -3.59 0 0 14.39 -3.6 0 0 25.18 -3.6 0 0 17.98 -3.6 0 0 25.19 -3.59 0 0 21.58 -3.6 0 0 21.58 -3.6 0 0 39.57 -3.59 0 0 32.37 -3.6 0 0 32.38 -3.6 0 0 32.37 -3.59 0 0 39.57 -3.6 0 0 68.35 -3.6 0 0 50.36 -3.59 0 0 50.36 -3.6 0 0 50.36 -3.6 0 0 43.16 3.6 0 0 -7.19 3.6 0 0 -3.6 3.59 0 0 -7.19 3.6 0 0 -7.2 3.6 0 0 -7.19 3.59 0 0 -3.6 3.6 0 0 -7.19 3.6 0 0 -7.2 3.59 0 0 -3.6 3.6 0 0 -3.59 3.6 0 0 -7.2 3.59 0 0 -3.59 3.6 0 0 -3.6 3.6 0 0 -3.6 3.6 0 0 -3.59 3.59 0 0 -3.6 3.6 0 0 -7.19 3.6 0 0 -3.6 7.19 0 0 -3.6 3.6 0 0 -3.6 3.6 0 0 -3.59 3.6 0 0 -3.6 7.19 0 0 -3.6 3.6 0 0 -3.6 7.19 0 0 -3.59 7.19 0 0 -3.6 7.2 0 0 -3.6 10.79 0 0 -3.6 10.79 0 0 -3.59 46.76 0 0 3.59 14.39 0 0 3.6 10.79 0 0 3.6 10.8 0 0 3.6 7.19 0 0 3.59 7.2 0 0 3.6 7.19 0 0 3.6 3.6 0 0 3.6 3.59 0 0 3.59 7.2 0 0 3.6 3.59 0 0 3.6 3.6 0 0 3.6 3.6 0 0 3.59 3.59 0 0 3.6 3.6 0 0 3.6 3.6 0 0 3.59 3.6 0 0 3.6 3.59 0 0 7.19 3.6 0 0 3.6 3.6 0 0 7.19 3.6 0 0 3.6 3.59 0 0 7.2 3.6 0 0 3.59 3.6 0 0 7.2 3.6 0 0 -10.79 -3.6 0 0 -53.96 -3.6 0 0 -35.97 -3.6 0 0 -89.93 -3.59 0 0 -140.29 -3.6 0 0 -50.36 -3.6 0 0 -79.14 -3.6 0 0 -32.37 -3.59 0 0 -53.96 -3.6 0 0 -53.96 -3.6 0 0 -14.38 -3.6 0 0 -50.36 -3.59 0 0 -17.99 -3.6 0 0 -46.76 -3.6 0 0 -21.59 -3.59 0 0 -32.37 -3.6 0 0 -17.98 -3.6 0 0 -28.78 -3.59 0 0 -21.58 -3.6 0 0 -10.79 -3.6 0 0 -25.19 -3.59 0 0 -14.39 -3.6 0 0 -14.38 -3.6 0 0 -21.58 -3.6 0 0 -14.39 -3.59 0 0 -21.59 -3.6 0 0 -17.98 -3.6 0 0 -10.79 -3.6 0 0 -14.39 -3.6 0 0 -17.99 -3.59 0 0 -10.79 -3.6 0 0 -14.39 -3.6 0 0 -7.19 -3.59 0 0 -14.39 -3.6 0 0 -10.79 -3.6 0 0 -10.8 -3.59 0 0 -10.79 -3.6 0 0 -7.19 -3.6 0 0 -10.79 -3.59 0 0 -7.2 -3.6 0 0 -7.19 -3.6 0 0 -7.19 -3.59 0 0 -7.2 -3.6 0 0 -3.59 -3.6 0 0 -7.2 -3.6 0 0 -3.6 -7.19 0 0 -3.6 -14.39 0 0 3.6 -3.6 0 0 7.2 -3.6 0 0 7.19 -3.59 0 0 7.2 -3.6 0 0 17.98 -3.6 0 0 129.5 3.6 0 0 125.9zm32.38 -320.15l7.19 0 0 3.6 7.2 0 0 3.59 3.59 0 0 3.6 3.6 0 0 7.2 3.6 0 0 3.59 3.59 0 0 3.6 3.6 0 0 7.2 3.6 0 0 7.19 3.59 0 0 7.2 3.6 0 0 7.19 3.6 0 0 7.19 3.59 0 0 10.79 3.6 0 0 7.2 3.6 0 0 14.39 3.59 0 0 10.79 3.6 0 0 10.79 3.6 0 0 7.2 3.6 0 0 17.98 3.6 0 0 10.79 3.59 0 0 14.39 3.6 0 0 7.2 3.6 0 0 14.38 3.6 0 0 14.39 3.59 0 0 14.39 3.6 0 0 21.58 3.6 0 0 10.8 3.59 0 0 25.18 3.6 0 0 10.79 3.6 0 0 21.58 3.59 0 0 17.98 3.6 0 0 21.59 3.6 0 0 28.77 3.59 0 0 14.39 3.6 0 0 25.19 3.6 0 0 25.17 3.6 0 0 32.38 3.59 0 0 17.99 3.6 0 0 32.37 3.6 0 0 35.97 3.6 0 0 32.37 3.59 0 0 43.17 3.6 0 0 28.78 3.6 0 0 46.76 3.6 0 0 46.76 3.59 0 0 147.48 3.6 0 0 100.73 3.6 0 0 89.92 3.59 0 0 32.38 3.6 0 0 46.76 3.6 0 0 32.38 3.59 0 0 46.76 3.6 0 0 14.39 3.6 0 0 17.98 3.59 0 0 17.99 3.6 0 0 7.19 3.6 0 0 10.79 3.6 0 0 10.79 3.59 0 0 10.8 3.6 0 0 10.79 3.6 0 0 10.79 3.6 0 0 7.2 3.59 0 0 10.79 3.6 0 0 14.38 3.6 0 0 7.2 3.6 0 0 14.39 3.59 0 0 7.19 3.6 0 0 14.39 3.6 0 0 14.39 3.59 0 0 17.98 3.6 0 0 25.19 3.6 0 0 82.73 -3.6 0 0 10.79 -3.6 0 0 14.39 -3.59 0 0 10.79 -3.6 0 0 7.19 -3.6 0 0 7.2 -3.59 0 0 7.19 -3.6 0 0 3.6 -3.6 0 0 7.2 -3.6 0 0 3.59 -3.59 0 0 3.6 -3.6 0 0 3.6 -3.6 0 0 3.59 -3.6 0 0 3.6 -3.59 0 0 3.6 -3.6 0 0 3.59 -3.6 0 0 3.6 -7.19 0 0 3.6 -3.6 0 0 3.59 -7.19 0 0 3.6 -7.2 0 0 3.6 -3.59 0 0 3.6 -7.2 0 0 3.59 -3.59 0 0 3.6 -7.2 0 0 3.6 -7.19 0 0 3.6 -3.6 0 0 3.59 -7.2 0 0 3.6 -7.19 0 0 3.6 -7.2 0 0 3.6 -3.59 0 0 3.59 -3.6 0 0 3.6 -7.19 0 0 3.6 -7.2 0 0 3.59 -3.59 0 0 3.6 -3.6 0 0 3.6 -7.19 0 0 3.59 -3.6 0 0 3.6 -7.2 0 0 3.6 -7.19 0 0 3.59 -3.6 0 0 3.6 -7.2 0 0 3.6 -7.19 0 0 3.6 -7.19 0 0 3.59 -7.2 0 0 3.6 -14.38 0 0 3.6 -28.78 0 0 -3.6 -14.39 0 0 -3.6 -7.2 0 0 -3.59 -7.19 0 0 -3.6 -7.19 0 0 -3.6 -7.2 0 0 -3.6 -3.59 0 0 -3.59 -7.2 0 0 -3.6 -3.59 0 0 -3.6 -3.6 0 0 -3.59 -7.2 0 0 -3.6 -3.6 0 0 -3.6 -7.19 0 0 -3.59 -3.6 0 0 -3.6 -3.59 0 0 -3.6 -7.2 0 0 -3.59 -3.6 0 0 -3.6 -7.19 0 0 -3.6 -3.6 0 0 -3.6 -7.19 0 0 -3.59 -3.6 0 0 -3.6 -7.19 0 0 -3.6 -3.6 0 0 -3.6 -7.19 0 0 -3.59 -7.2 0 0 -3.6 -3.6 0 0 -3.6 -7.19 0 0 -3.6 -3.6 0 0 -3.59 -7.19 0 0 -3.6 -3.6 0 0 -3.6 -3.6 0 0 -3.59 -7.19 0 0 -3.6 -3.6 0 0 -3.6 -3.59 0 0 -3.59 -3.6 0 0 -3.6 -3.6 0 0 -3.6 -3.59 0 0 -3.59 -3.6 0 0 -3.6 -3.6 0 0 -3.6 -3.6 0 0 -3.6 -3.59 0 0 -7.19 -3.6 0 0 -7.2 -3.6 0 0 -10.79 -3.59 0 0 -7.19 -3.6 0 0 -14.39 -3.6 0 0 -17.98 -3.6 0 0 -64.75 3.6 0 0 -17.99 3.6 0 0 -17.99 3.6 0 0 -14.38 3.59 0 0 -14.39 3.6 0 0 -10.79 3.6 0 0 -10.8 3.59 0 0 -14.38 3.6 0 0 -7.2 3.6 0 0 -10.79 3.6 0 0 -7.19 3.59 0 0 -10.79 3.6 0 0 -10.79 3.6 0 0 -10.8 3.59 0 0 -10.79 3.6 0 0 -7.2 3.6 0 0 -17.98 3.59 0 0 -7.19 3.6 0 0 -32.38 3.6 0 0 -39.57 3.59 0 0 -53.96 3.6 0 0 -39.56 3.6 0 0 -57.56 3.6 0 0 -64.75 3.59 0 0 -61.15 3.6 0 0 -28.77 3.6 0 0 -39.57 3.6 0 0 -35.97 3.6 0 0 -32.38 3.59 0 0 -32.37 3.6 0 0 -28.78 3.6 0 0 -21.59 3.59 0 0 -17.98 3.6 0 0 -17.98 3.6 0 0 -14.39 3.59 0 0 -28.78 3.6 0 0 -14.39 3.6 0 0 -21.58 3.59 0 0 -28.78 3.6 0 0 -21.58 3.6 0 0 -7.19 3.6 0 0 -28.78 3.59 0 0 -10.8 3.6 0 0 -25.17 3.6 0 0 -21.59 3.59 0 0 -21.58 3.6 0 0 -25.18 3.6 0 0 -17.98 3.6 0 0 -32.38 3.6 0 0 -39.57 3.59 0 0 -287.77 3.6 0 0 -10.79 3.6 0 0 -10.79 3.59 0 0 -7.2 3.6 0 0 -7.19 3.6 0 0 -7.2 3.59 0 0 -3.6 3.6 0 0 -3.59 3.6 0 0 -3.6 7.19 0 0 -3.6 21.59 0 0 3.6z"/>
  <path class="fil3 str0" d="M149.17 1347.45l1.67 -2.54 -1.67 2.54zm1.67 -2.54l0.73 -2.14 -0.73 2.14zm0.73 -2.14zm4.79 -9.37l-4.79 9.37zm4.79 -9.37c-0.36,-2.96 -3.05,-1.31 -1.19,0.5l0.36 -0.05c0.95,-0.36 1.31,3.54 0.83,-0.45zm1.98 -8.19l-0.22 0.64c0.01,-0.04 0.33,-0.5 0.22,-0.64zm7.92 -16.19c-1.23,-1.45 -3.23,4.27 -0.94,1.35 0.02,-0.03 2.86,0.93 0.94,-1.35zm46.83 -168.67zm6.25 -13.66l-6.25 13.66zm6.25 -13.66c-2.7,2.64 -0.68,-0.48 -2.4,3.17 -1.34,2.83 -1.17,1.62 -1.45,5.81 5.25,-5.12 3.43,-7.29 3.85,-8.98zm3.13 -6.83zm0 0zm0 0zm11.35 -28.67l-11.35 28.67zm11.35 -28.67c-3.42,1.58 -7.36,7.02 -8.42,12.59 -0.82,4.34 -0.73,0.87 -0.01,7.5 3.19,-6.27 5.73,-13.24 8.43,-20.09zm-46.48 -173.86c-0.54,-4.49 -1.52,0.34 -0.56,0.23 0.01,0 1.14,4.66 0.56,-0.23zm-38.17 430.12c-4,3.89 -12.7,25.06 -16.29,33.35 -7.76,17.91 -8.25,16.18 -16.59,33.02 -1.86,3.74 -3.86,7.86 -5.33,11.74 -2.05,5.41 -1.98,8.65 -5.25,11.83 0.27,-12.2 16.31,-48.55 21.08,-59.28l7.7 -19.45c1.45,-3.95 1.72,-5.48 3.47,-9.43l22.59 -57.5c2.4,-5.72 3.11,-3.41 3.28,-11.15 -2.25,-0.04 -2.32,-0.46 -4.9,0.21l-0.42 -3.51c4.31,-4.2 11.28,-25.01 14.01,-33.05 2.88,-8.49 4.71,-8.1 7.19,-17.06l13.24 -33.96c1.35,-3.17 1.75,-5.07 3.09,-8.37 2.91,-7.17 16.9,-37.45 17.05,-44.49 -3.23,2.9 -3.84,5.94 -6.03,8.21 -8.03,8.32 5.76,-25.07 6.48,-27.23 1.39,-4.12 1.97,-6.79 3.17,-11.3 2.14,-8.08 0.73,-18.22 5.36,-23.92 3.5,-4.3 5.13,-0.98 8.1,-0.76 0.2,-9.36 2.73,-8.47 6.25,-13.65 -4.73,-8.39 -4.61,-3.34 -4.36,-15.53 0.21,-9.66 -0.87,-16.44 -4.7,-21.85 -7.13,-10.09 -19.33,-28.38 -22.46,-45.36 -1.54,-8.35 -2.52,-19.55 -3.38,-23.93 -0.73,-3.69 -4.44,-13.25 -6.18,-19.07 -2.01,-6.74 -4.3,-14.22 -5.28,-22.4 -3.28,3.19 -1.01,2.27 -4.28,5.46 -1.12,-4.35 -4.24,-11.85 -5.87,-15.93 -2.06,-5.18 -4.57,-10.54 -6.79,-15.59 -4.75,-10.79 -11.91,-33.7 -15.9,-40.96 -4.09,-7.46 -5.89,-19.49 -8.67,-29.03 -7.14,-24.55 -16.45,-44.81 -26.2,-65.16 -4.7,-9.8 -8.74,-21.44 -13.58,-31.19 -3.09,-6.22 -4.71,-5.87 -6.35,-14.88 -0.84,-4.64 0.52,-1.82 -2.27,-7 -1.53,-2.84 -2.48,-3.96 -4.11,-7.06 -2.72,-5.17 -4.45,-10.96 -6.39,-16.76 -2.31,-6.86 -4.67,-8.64 -6.91,-15.26l-18.39 -50.21c-2.83,-7.48 -4.52,-8.76 -6.79,-15.6l-6.4 -16.72c-1.44,-3.95 -1.17,-4.55 -2.55,-9.11 -4.78,-15.81 -14.38,-32.07 -20.05,-47.73 -1.41,-3.91 -1.5,-6.13 -2.92,-10.37 -6.53,-19.65 -19.12,-20.47 -22.29,-22.29l-2.77 -5.05c-2.44,-12.2 -1.22,-35.71 3.22,-41.26 9.06,-11.31 17.82,-1.8 23.97,-1.7 5.79,-11.35 2.96,-16.4 12.09,-11.85l11.21 4.94c3.94,2.25 1.06,-2.45 4.39,6.06 3.2,8.2 4.55,6.52 7.85,14.89 2.76,7.01 2.49,11.81 5.88,18.03 2.93,5.38 5.5,8.19 7.9,14.89 7.39,20.59 11.79,25.45 14.62,32.86l14.14 36.64c3.56,12.91 9.09,24.38 13.86,35.09 2.63,5.87 4.41,13.27 6.94,19.91 2.51,6.62 4.97,10.67 6.04,17.44 1.02,6.45 4.53,11.85 6.85,18.15 13.63,37.06 25.22,78.53 41.38,110.61 6.55,12.99 9.93,17.72 15.11,33.82 7.01,21.82 16.8,45.74 22.44,69.11l9.09 30.18c1.22,4.51 1.66,6.05 3.07,9.93 1.03,2.82 3.08,7.52 3.83,10.22 2.07,7.38 0.58,6.62 2.23,12.25l3.57 10.86c0.13,0.4 0.26,0.82 0.39,1.22l4.75 16.86c3.18,13.56 11.39,24.73 11.32,40.2 5.83,-5.68 24.53,-74.81 28.16,-88.49 2.81,-10.6 8.45,-42.05 10.8,-48.89 1.57,-4.58 2.5,-5.22 4.26,-9.99 2.55,-6.93 9.86,-27.51 13.31,-30.87 -1.84,-15.4 -3.39,-30.82 6.76,-29.4 3.81,0.53 -0.27,1.15 2.83,0.65 1.96,-0.32 1.37,-0.6 3.44,-2.46 -3.38,-13.07 -4.94,-13.62 7.86,-23.1 1.72,-1.28 1.77,-1.84 3.7,-3.72 4.27,-4.15 5.56,-2.14 5.73,-9.86 -5.72,2.39 -8.98,0.31 -13.77,0.23 -0.64,-8.6 2.89,-15.72 5.41,-20.67 6.12,-6.3 -0.14,11.81 16.63,-14.89l4.22 -8.55c-2.71,-0.04 -5.21,-0.32 -7.93,-0.36 -0.45,-6.07 -0.05,-6.72 0.62,-11.31l-13.72 -2.15c-5,-1.68 -9.92,-6.06 -14.89,-6.14 2.15,-9.19 15.78,-8.61 24.24,-12.04 6.22,-2.52 5.08,-0.07 7.99,-0.52l15.88 -5.69c10.78,-6.47 20.76,-37.15 34.03,-48.46 4.76,-4.06 30.61,-14.2 37.14,-16.34 5.59,-1.83 9.69,1.52 12.56,8.22 3.73,8.71 1.24,16.07 -0.43,25.83 -2.64,15.44 -8.57,19.95 -15.89,39.86 -2.47,6.72 -5.15,13.38 -7.79,19.35l-31.38 81.68c-6.92,20.56 -13.72,44.17 -21.55,63.23l-7.43 19.79c-1.72,5 -2.36,5.62 -4.19,10.08 -6.76,16.44 -9.04,26.95 -19.91,51.63 -3.37,7.64 -3.02,12.13 -6.79,20.54 -4.1,9.16 -5.85,17.73 -10.12,25.62 -4.72,8.73 -5.41,16.78 -9.5,26.36 -7.79,18.26 -28.15,76.68 -32.13,95.84 4.94,11.69 17.98,57.82 21.6,64.5 5.32,9.81 3.08,10.54 6.98,22.16l7.38 20.95c2.54,7.89 4.79,14.85 7.06,21.91 2.5,7.74 4.46,13.85 7.07,21.89 7.33,22.59 12.92,45.54 21.11,68.36 2.82,7.85 1.41,2.26 2.55,11.81l1.73 6.24c0.1,0.23 0.32,0.61 0.42,0.84 0.09,0.22 0.28,0.64 0.37,0.86l12.03 38.96c0.78,3 0.78,4.08 1.63,7.05 2.3,7.94 4.62,9.9 7.38,20.97l27.53 92.12c6.26,21.12 14.1,42.22 18.98,64.72 1.05,4.82 1.22,2.46 2.63,6.71 2.79,8.42 3.54,18.12 6.64,25.61 1.8,4.36 2.21,5.38 3.33,11.6 2.45,13.62 4.04,13.41 7.37,23.37 5.88,17.62 10.86,47.36 19.06,71.97 2.58,7.77 3.61,20.06 6.05,27.25 5.76,16.98 4.77,22.99 12.79,47.74 3.71,11.45 3.27,9.54 5.9,25.32 1.82,10.91 5.27,11.33 6.89,24.79l-8.22 -16.37c-2.96,-6.24 -5.71,-11.37 -7.82,-19.43 -3.93,-14.98 -10.39,-26.36 -15.02,-41.16 -1.53,-4.88 -3.51,-13.85 -4.87,-18.88 -4.94,-18.2 -8.73,-25.89 -14.76,-50.48 -0.95,-3.88 -1.93,-3.48 -2.88,-8.41 -0.73,-3.75 0.2,-2.26 -1.21,-6.68 -1.67,-5.23 -1.17,-2.15 -2.97,-7.74l-8.27 -27.87c-2.03,-5.54 -4.02,-9.94 -5.97,-15.62 -4.59,-13.36 -8.54,-32.19 -14.26,-43.43 -2.96,-5.83 -7.82,-26.17 -14.58,-42.46 -1.75,-4.21 -3.67,-11.68 -5.44,-17.18 -1.09,-3.38 -1.67,-5.44 -2.76,-8.5l-30.37 -88.49c-1.68,-5.82 -2.52,-12.82 -4.56,-19.75 -3.87,-13.11 -7.56,-22.04 -11.95,-33.61 -2.09,-5.49 -3.84,-10.28 -6.03,-15.45l-12.74 -31.45c-3.25,-9.83 -1.81,-11.15 -0.6,-19.43 -16.77,-29.79 -10.83,-23.94 -17.48,-38.67l-15.42 -30.51c-2.99,-5.7 -14.98,-27.59 -15.72,-32l2.82 -1.18 -2.1 -17.53c-5.27,-0.4 -13.33,-10.7 -16.82,-16.9 -11.07,17.64 -21.61,37.77 -31.81,57.1 -7.53,14.29 -16.14,29.83 -22.17,45.96 -2.29,6.14 -4,11.14 -8.98,13.44l-2.74 -7.2c-0.03,-0.11 -0.09,-0.56 -0.19,-0.78 -6.45,5.8 -9.87,22.89 -13.48,33.67 -1.85,5.5 -1.99,8.55 -3.96,13.36 -6.43,15.67 -12.17,30.44 -18.96,45.24 -6.85,14.92 -13.53,28.44 -20,44.01l-19.53 44.56c-3.3,7.33 -6.15,13.88 -9.68,21.63 -3.97,8.69 -6.05,14.31 -9.3,23.6 -3.06,8.78 -6.86,13.09 -10.17,21.04 -2.87,6.9 -0.46,4.44 -4.22,11.55l-15.5 32.8c-3.02,5.91 -1.26,5.69 -3.9,11.93l-24.3 53.35c-1.44,1.37 -2.16,1.06 -1.46,-2.77 0.95,-5.17 2.79,-8.62 4.79,-12.24 3.71,-6.69 4.16,-10.43 7.13,-17.13l17.3 -42.69c1.6,-4.23 2.26,-5.14 3.83,-9.01l63.84 -154.55c4.4,-10.51 10.82,-23.6 13.28,-35.42z"/>
 </g>
</svg>
