<?xml version="1.0" encoding="UTF-8"?>
<!DOCTYPE svg PUBLIC "-//W3C//DTD SVG 1.1//EN" "http://www.w3.org/Graphics/SVG/1.1/DTD/svg11.dtd">
<!-- Creator: CorelDRAW (Versión de evaluación) -->
<svg xmlns="http://www.w3.org/2000/svg" xml:space="preserve" width="739px" height="2458px" version="1.1" style="shape-rendering:geometricPrecision; text-rendering:geometricPrecision; image-rendering:optimizeQuality; fill-rule:evenodd; clip-rule:evenodd"
viewBox="0 0 739 2457.4"
 xmlns:xlink="http://www.w3.org/1999/xlink"
 xmlns:xodm="http://www.corel.com/coreldraw/odm/2003">
 <defs>
  <style type="text/css">
   <![CDATA[
    .str0 {stroke:#4B4B4D;stroke-width:10;stroke-miterlimit:22.9256}
    .fil0 {fill:#FEFEFE}
    .fil1 {fill:#DC3438;fill-rule:nonzero}
   ]]>
  </style>
 </defs>
 <g id="tooth-extraction-13">
  <metadata id="CorelCorpID_0Corel-Layer"/>
  <path id="crown" class="fil0 str0" d="M326.71 2444.63c63.77,-3.83 115.44,54.88 275.42,-51.4 93.46,-62.09 144.2,-65.31 135.49,-190.24 -12.88,-184.76 -83.55,-354.16 -131.74,-528.97l-245.94 -165.8c-64.78,-22.43 -103.27,8.29 -149.53,42.53 -172.76,127.89 -109.41,-18.39 -156.25,247.17 -9.08,51.41 -20.94,108.61 -29.5,160.01 -55.07,330.36 -5.2,189.98 15.36,305.86 0.27,43.29 100.91,70.41 137.37,92.3 18.3,10.99 49.6,33.53 66.76,46.4 33.76,25.34 42.17,44.83 82.56,42.14z"/>
  <path id="root" class="fil0 str0" d="M231.43 1.1c-102.9,-9.92 -50.72,47.08 -47.37,191.22l-36.74 613.66c-18.21,133.65 -74.55,679.07 -68.2,787.56 95.83,-7.49 140.54,-135.67 268.94,-115.09 100.49,16.1 150.33,124.13 246.76,151.8 -33.53,-180.86 -32.01,-480.6 -65.15,-682.47 -36.29,-221.23 -57.18,-384.57 -136.96,-606.75 -42.14,-117.4 -160.65,-314 -161.28,-339.93z"/>
  <path class="fil1" d="M-0.41 2457.4l311.67 -1275.03 -274.5 -1182.36 127.11 0 147.02 628.65c30.6,130.42 51.82,229.95 64.02,299.16 18.21,-85.8 39.62,-177.32 64.21,-274l161.1 -653.81 116.97 0 -280.13 1168.06 301.53 1289.33 -131.05 0 -203.53 -876.33c-11.64,-49.77 -22.72,-99.54 -33.23,-148.73 -17.84,82.37 -30.61,140.15 -38.68,172.75l-204.28 852.31 -128.23 0z"/>
 </g>
</svg>
