<?xml version="1.0" encoding="UTF-8"?>
<!DOCTYPE svg PUBLIC "-//W3C//DTD SVG 1.1//EN" "http://www.w3.org/Graphics/SVG/1.1/DTD/svg11.dtd">
<!-- Creator: CorelDRAW (Versión de evaluación) -->
<svg xmlns="http://www.w3.org/2000/svg" xml:space="preserve" width="497px" height="2062px" version="1.1" style="shape-rendering:geometricPrecision; text-rendering:geometricPrecision; image-rendering:optimizeQuality; fill-rule:evenodd; clip-rule:evenodd"
viewBox="0 0 497 2063.64"
 xmlns:xlink="http://www.w3.org/1999/xlink"
 xmlns:xodm="http://www.corel.com/coreldraw/odm/2003">
 <defs>
  <style type="text/css">
   <![CDATA[
    .str0 {stroke:#ED3237;stroke-width:2;stroke-miterlimit:22.9256}
    .fil2 {fill:#4B4B4D}
    .fil3 {fill:#ED3237}
    .fil0 {fill:#F2E6C9}
    .fil1 {fill:#FAFAF7}
   ]]>
  </style>
 </defs>
 <g id="extraction">
  <metadata id="CorelCorpID_0Corel-Layer"/>
  <polygon id="root" class="fil0" points="263.85,267.92 256.65,267.92 256.65,271.52 253.05,271.52 253.05,278.73 249.45,278.73 249.45,282.33 245.84,282.33 245.84,289.53 242.24,289.53 242.24,296.74 238.64,296.74 238.64,303.94 235.04,303.94 235.04,311.14 231.44,311.14 231.44,321.95 227.84,321.95 227.84,329.15 224.23,329.15 224.23,339.95 220.64,339.95 220.64,350.76 217.03,350.76 217.03,361.56 213.43,361.56 213.43,375.97 209.83,375.97 209.83,383.17 206.23,383.17 206.23,397.58 202.63,397.58 202.63,408.38 199.03,408.38 199.03,426.39 195.42,426.39 195.42,440.8 191.82,440.8 191.82,451.6 188.22,451.6 188.22,469.61 184.62,469.61 184.62,491.22 181.02,491.22 181.02,505.62 177.42,505.62 177.42,527.23 173.81,527.23 173.81,541.64 170.21,541.64 170.21,556.04 166.61,556.04 166.61,581.25 163.01,581.25 163.01,592.06 159.41,592.06 159.41,613.67 155.81,613.67 155.81,642.48 152.21,642.48 152.21,660.48 148.6,660.48 148.6,692.9 145,692.9 145,714.51 141.4,714.51 141.4,761.33 137.8,761.33 137.8,779.33 134.2,779.33 134.2,829.76 130.6,829.76 130.6,844.16 126.99,844.16 126.99,898.18 123.39,898.18 123.39,952.2 119.79,952.2 119.79,984.62 116.19,984.62 116.19,1063.85 112.59,1063.85 112.59,1114.27 108.99,1114.27 108.99,1254.73 105.38,1254.73 105.38,1344.77 101.79,1344.77 101.79,1380.78 98.18,1380.78 98.18,1434.8 94.58,1434.8 94.58,1445.61 98.18,1445.61 98.18,1438.4 101.79,1438.4 101.79,1434.8 105.38,1434.8 105.38,1427.6 108.99,1427.6 108.99,1424 112.59,1424 112.59,1416.8 116.19,1416.8 116.19,1413.19 119.79,1413.19 119.79,1405.99 123.39,1405.99 123.39,1402.39 126.99,1402.39 126.99,1398.79 130.6,1398.79 130.6,1395.19 134.2,1395.19 134.2,1391.58 137.8,1391.58 137.8,1387.99 141.4,1387.99 141.4,1384.38 145,1384.38 145,1380.78 148.6,1380.78 148.6,1377.18 155.81,1377.18 155.81,1373.58 159.41,1373.58 159.41,1369.98 163.01,1369.98 163.01,1366.38 170.21,1366.38 170.21,1362.77 177.42,1362.77 177.42,1359.17 184.62,1359.17 184.62,1355.57 195.42,1355.57 195.42,1351.97 206.23,1351.97 206.23,1348.37 220.64,1348.37 220.64,1344.77 267.45,1344.77 267.45,1348.37 278.26,1348.37 278.26,1351.97 289.06,1351.97 289.06,1355.57 296.27,1355.57 296.27,1359.17 303.47,1359.17 303.47,1362.77 310.67,1362.77 310.67,1366.38 314.27,1366.38 314.27,1369.98 321.47,1369.98 321.47,1373.58 325.08,1373.58 325.08,1377.18 328.68,1377.18 328.68,1380.78 332.28,1380.78 332.28,1384.38 339.48,1384.38 339.48,1387.99 343.08,1387.99 343.08,1395.19 346.69,1395.19 346.69,1398.79 350.29,1398.79 350.29,1402.39 353.89,1402.39 353.89,1405.99 357.49,1405.99 357.49,1409.59 361.09,1409.59 361.09,1413.19 364.69,1413.19 364.69,1420.4 368.3,1420.4 368.3,1424 371.9,1424 371.9,1427.6 375.5,1427.6 375.5,1434.8 379.1,1434.8 379.1,1442.01 382.7,1442.01 382.7,1445.61 386.3,1445.61 386.3,1452.81 389.9,1452.81 389.9,1460.01 393.51,1460.01 393.51,1467.22 397.1,1467.22 397.1,1470.82 400.71,1470.82 400.71,1478.02 404.31,1478.02 404.31,1434.8 400.71,1434.8 400.71,1384.38 397.1,1384.38 397.1,1333.96 393.51,1333.96 393.51,1283.54 389.9,1283.54 389.9,1215.11 386.3,1215.11 386.3,1175.5 382.7,1175.5 382.7,1143.08 379.1,1143.08 379.1,1110.67 375.5,1110.67 375.5,1078.25 371.9,1078.25 371.9,1038.64 368.3,1038.64 368.3,1017.03 364.69,1017.03 364.69,995.42 361.09,995.42 361.09,970.21 357.49,970.21 357.49,952.2 353.89,952.2 353.89,927 350.29,927 350.29,912.59 346.69,912.59 346.69,887.38 343.08,887.38 343.08,869.37 339.48,869.37 339.48,844.16 335.88,844.16 335.88,833.36 332.28,833.36 332.28,808.15 328.68,808.15 328.68,790.14 325.08,790.14 325.08,772.13 321.47,772.13 321.47,757.72 317.88,757.72 317.88,728.91 314.27,728.91 314.27,707.31 310.67,707.31 310.67,674.89 307.07,674.89 307.07,653.28 303.47,653.28 303.47,628.07 299.87,628.07 299.87,595.66 296.27,595.66 296.27,563.24 292.66,563.24 292.66,437.19 296.27,437.19 296.27,307.54 292.66,307.54 292.66,289.53 289.06,289.53 289.06,282.33 285.46,282.33 285.46,275.13 281.86,275.13 281.86,267.92 278.26,267.92 278.26,264.32 263.85,264.32 "/>
  <polygon id="crown" class="fil1" points="220.64,1366.38 213.43,1366.38 213.43,1369.98 199.03,1369.98 199.03,1373.58 191.82,1373.58 191.82,1377.18 184.62,1377.18 184.62,1380.78 177.42,1380.78 177.42,1384.38 173.81,1384.38 173.81,1387.99 166.61,1387.99 166.61,1391.58 163.01,1391.58 163.01,1395.19 159.41,1395.19 159.41,1398.79 155.81,1398.79 155.81,1402.39 152.21,1402.39 152.21,1405.99 148.6,1405.99 148.6,1409.59 145,1409.59 145,1413.19 141.4,1413.19 141.4,1416.8 137.8,1416.8 137.8,1420.4 134.2,1420.4 134.2,1427.6 130.6,1427.6 130.6,1431.2 126.99,1431.2 126.99,1434.8 123.39,1434.8 123.39,1442.01 119.79,1442.01 119.79,1445.61 116.19,1445.61 116.19,1452.81 112.59,1452.81 112.59,1456.41 108.99,1456.41 108.99,1463.62 105.38,1463.62 105.38,1470.82 101.79,1470.82 101.79,1478.02 98.18,1478.02 98.18,1485.23 94.58,1485.23 94.58,1496.03 90.98,1496.03 90.98,1506.83 87.38,1506.83 87.38,1517.64 83.78,1517.64 83.78,1532.04 80.18,1532.04 80.18,1550.05 76.58,1550.05 76.58,1560.86 72.97,1560.86 72.97,1571.66 69.37,1571.66 69.37,1582.47 65.77,1582.47 65.77,1593.27 62.17,1593.27 62.17,1604.08 58.57,1604.08 58.57,1614.88 54.97,1614.88 54.97,1625.68 51.36,1625.68 51.36,1636.49 47.76,1636.49 47.76,1650.89 44.16,1650.89 44.16,1658.1 40.56,1658.1 40.56,1668.9 36.96,1668.9 36.96,1683.3 33.36,1683.3 33.36,1690.51 29.75,1690.51 29.75,1704.91 26.16,1704.91 26.16,1726.52 22.55,1726.52 22.55,1740.93 18.95,1740.93 18.95,1805.76 22.55,1805.76 22.55,1823.76 26.16,1823.76 26.16,1838.17 29.75,1838.17 29.75,1848.97 33.36,1848.97 33.36,1859.78 36.96,1859.78 36.96,1866.98 40.56,1866.98 40.56,1870.58 44.16,1870.58 44.16,1877.78 47.76,1877.78 47.76,1881.39 51.36,1881.39 51.36,1884.99 54.97,1884.99 54.97,1888.59 58.57,1888.59 58.57,1892.19 62.17,1892.19 62.17,1895.79 65.77,1895.79 65.77,1899.39 69.37,1899.39 69.37,1903 76.58,1903 76.58,1906.59 80.18,1906.59 80.18,1910.2 87.38,1910.2 87.38,1913.8 90.98,1913.8 90.98,1917.4 98.18,1917.4 98.18,1921 105.38,1921 105.38,1924.61 108.99,1924.61 108.99,1928.2 116.19,1928.2 116.19,1931.81 123.39,1931.81 123.39,1935.41 130.6,1935.41 130.6,1939.01 134.2,1939.01 134.2,1942.61 137.8,1942.61 137.8,1946.21 145,1946.21 145,1949.81 152.21,1949.81 152.21,1953.42 159.41,1953.42 159.41,1957.02 163.01,1957.02 163.01,1960.62 166.61,1960.62 166.61,1964.22 173.81,1964.22 173.81,1967.82 177.42,1967.82 177.42,1971.42 184.62,1971.42 184.62,1975.02 188.22,1975.02 188.22,1978.63 191.82,1978.63 191.82,1982.23 199.03,1982.23 199.03,1985.83 206.23,1985.83 206.23,1989.43 209.83,1989.43 209.83,1993.03 217.03,1993.03 217.03,1996.63 227.84,1996.63 227.84,2000.24 271.05,2000.24 271.05,1996.63 278.26,1996.63 278.26,1993.03 285.46,1993.03 285.46,1989.43 292.66,1989.43 292.66,1985.83 296.27,1985.83 296.27,1982.23 303.47,1982.23 303.47,1978.63 307.07,1978.63 307.07,1975.02 310.67,1975.02 310.67,1971.42 317.88,1971.42 317.88,1967.82 321.47,1967.82 321.47,1964.22 325.08,1964.22 325.08,1960.62 332.28,1960.62 332.28,1957.02 335.88,1957.02 335.88,1953.42 339.48,1953.42 339.48,1949.81 346.69,1949.81 346.69,1946.21 350.29,1946.21 350.29,1942.61 357.49,1942.61 357.49,1939.01 361.09,1939.01 361.09,1935.41 368.3,1935.41 368.3,1931.81 375.5,1931.81 375.5,1928.2 379.1,1928.2 379.1,1924.61 386.3,1924.61 386.3,1921 389.9,1921 389.9,1917.4 397.1,1917.4 397.1,1913.8 400.71,1913.8 400.71,1910.2 407.91,1910.2 407.91,1906.59 415.12,1906.59 415.12,1903 418.71,1903 418.71,1899.39 425.92,1899.39 425.92,1895.79 429.52,1895.79 429.52,1892.19 433.12,1892.19 433.12,1888.59 436.72,1888.59 436.72,1884.99 440.32,1884.99 440.32,1881.39 443.93,1881.39 443.93,1877.78 447.53,1877.78 447.53,1874.18 451.13,1874.18 451.13,1866.98 454.73,1866.98 454.73,1863.38 458.33,1863.38 458.33,1856.18 461.93,1856.18 461.93,1848.97 465.53,1848.97 465.53,1841.77 469.14,1841.77 469.14,1823.76 472.74,1823.76 472.74,1744.53 469.14,1744.53 469.14,1726.52 465.53,1726.52 465.53,1708.52 461.93,1708.52 461.93,1694.11 458.33,1694.11 458.33,1683.3 454.73,1683.3 454.73,1672.5 451.13,1672.5 451.13,1658.1 447.53,1658.1 447.53,1650.89 443.93,1650.89 443.93,1640.09 440.32,1640.09 440.32,1629.28 436.72,1629.28 436.72,1618.48 433.12,1618.48 433.12,1611.28 429.52,1611.28 429.52,1596.87 425.92,1596.87 425.92,1589.67 422.32,1589.67 422.32,1578.86 418.71,1578.86 418.71,1568.06 415.12,1568.06 415.12,1557.25 411.51,1557.25 411.51,1546.45 407.91,1546.45 407.91,1532.04 404.31,1532.04 404.31,1528.44 400.71,1528.44 400.71,1517.64 397.1,1517.64 397.1,1510.43 393.51,1510.43 393.51,1503.23 389.9,1503.23 389.9,1492.43 386.3,1492.43 386.3,1485.23 382.7,1485.23 382.7,1478.02 379.1,1478.02 379.1,1474.42 375.5,1474.42 375.5,1467.22 371.9,1467.22 371.9,1460.01 368.3,1460.01 368.3,1452.81 364.69,1452.81 364.69,1445.61 361.09,1445.61 361.09,1442.01 357.49,1442.01 357.49,1434.8 353.89,1434.8 353.89,1431.2 350.29,1431.2 350.29,1427.6 346.69,1427.6 346.69,1420.4 343.08,1420.4 343.08,1416.8 339.48,1416.8 339.48,1413.19 335.88,1413.19 335.88,1409.59 332.28,1409.59 332.28,1405.99 328.68,1405.99 328.68,1402.39 325.08,1402.39 325.08,1398.79 321.47,1398.79 321.47,1395.19 317.88,1395.19 317.88,1391.58 314.27,1391.58 314.27,1387.99 310.67,1387.99 310.67,1384.38 307.07,1384.38 307.07,1380.78 299.87,1380.78 299.87,1377.18 292.66,1377.18 292.66,1373.58 285.46,1373.58 285.46,1369.98 274.66,1369.98 274.66,1366.38 260.25,1366.38 260.25,1362.77 220.64,1362.77 "/>
  <path id="outline" class="fil2" d="M18.95 1740.93l3.6 0 0 -14.41 3.61 0 0 -21.61 3.59 0 0 -14.4 3.61 0 0 -7.21 3.6 0 0 -14.4 3.6 0 0 -10.8 3.6 0 0 -7.21 3.6 0 0 -14.4 3.6 0 0 -10.81 3.61 0 0 -10.8 3.6 0 0 -10.8 3.6 0 0 -10.81 3.6 0 0 -10.8 3.6 0 0 -10.81 3.6 0 0 -10.8 3.61 0 0 -10.81 3.6 0 0 -18.01 3.6 0 0 -14.4 3.6 0 0 -10.81 3.6 0 0 -10.8 3.6 0 0 -10.8 3.6 0 0 -7.21 3.61 0 0 -7.2 3.59 0 0 -7.2 3.61 0 0 -7.21 3.6 0 0 -3.6 3.6 0 0 -7.2 3.6 0 0 -3.6 3.6 0 0 -7.21 3.6 0 0 -3.6 3.61 0 0 -3.6 3.6 0 0 -7.2 3.6 0 0 -3.6 3.6 0 0 -3.61 3.6 0 0 -3.6 3.6 0 0 -3.6 3.61 0 0 -3.6 3.6 0 0 -3.6 3.6 0 0 -3.6 3.6 0 0 -3.61 3.6 0 0 -3.59 7.2 0 0 -3.61 3.61 0 0 -3.6 7.2 0 0 -3.6 7.2 0 0 -3.6 7.21 0 0 -3.6 14.4 0 0 -3.6 7.21 0 0 -3.61 39.61 0 0 3.61 14.41 0 0 3.6 10.8 0 0 3.6 7.2 0 0 3.6 7.21 0 0 3.6 7.2 0 0 3.6 3.6 0 0 3.61 3.6 0 0 3.59 3.61 0 0 3.61 3.59 0 0 3.6 3.61 0 0 3.6 3.6 0 0 3.6 3.6 0 0 3.6 3.6 0 0 3.6 3.6 0 0 3.61 3.6 0 0 3.6 3.61 0 0 7.2 3.6 0 0 3.6 3.6 0 0 3.6 3.6 0 0 7.21 3.6 0 0 3.6 3.6 0 0 7.2 3.61 0 0 7.2 3.6 0 0 7.21 3.6 0 0 7.2 3.6 0 0 3.6 3.6 0 0 7.21 3.6 0 0 7.2 3.6 0 0 10.8 3.61 0 0 7.2 3.59 0 0 7.21 3.61 0 0 10.8 3.6 0 0 3.6 3.6 0 0 14.41 3.6 0 0 10.8 3.61 0 0 10.81 3.59 0 0 10.8 3.61 0 0 10.81 3.6 0 0 7.2 3.6 0 0 14.41 3.6 0 0 7.2 3.6 0 0 10.8 3.6 0 0 10.81 3.61 0 0 10.8 3.6 0 0 7.21 3.6 0 0 14.4 3.6 0 0 10.8 3.6 0 0 10.81 3.6 0 0 14.41 3.6 0 0 18 3.61 0 0 18.01 3.6 0 0 79.23 -3.6 0 0 18.01 -3.61 0 0 7.2 -3.6 0 0 7.21 -3.6 0 0 7.2 -3.6 0 0 3.6 -3.6 0 0 7.2 -3.6 0 0 3.6 -3.6 0 0 3.61 -3.61 0 0 3.6 -3.6 0 0 3.6 -3.6 0 0 3.6 -3.6 0 0 3.6 -3.6 0 0 3.6 -7.21 0 0 3.61 -3.59 0 0 3.59 -7.21 0 0 3.61 -7.2 0 0 3.6 -3.61 0 0 3.6 -7.2 0 0 3.6 -3.6 0 0 3.61 -7.2 0 0 3.59 -3.6 0 0 3.61 -7.2 0 0 3.6 -7.21 0 0 3.6 -3.6 0 0 3.6 -7.2 0 0 3.6 -3.6 0 0 3.6 -7.21 0 0 3.61 -3.6 0 0 3.6 -3.6 0 0 3.6 -7.2 0 0 3.6 -3.61 0 0 3.6 -3.59 0 0 3.6 -7.21 0 0 3.6 -3.6 0 0 3.61 -3.6 0 0 3.6 -7.2 0 0 3.6 -3.61 0 0 3.6 -7.2 0 0 3.6 -7.2 0 0 3.6 -7.21 0 0 3.61 -43.21 0 0 -3.61 -10.81 0 0 -3.6 -7.2 0 0 -3.6 -3.6 0 0 -3.6 -7.2 0 0 -3.6 -7.21 0 0 -3.6 -3.6 0 0 -3.61 -3.6 0 0 -3.6 -7.2 0 0 -3.6 -3.61 0 0 -3.6 -7.2 0 0 -3.6 -3.6 0 0 -3.6 -3.6 0 0 -3.6 -7.2 0 0 -3.61 -7.21 0 0 -3.6 -7.2 0 0 -3.6 -3.6 0 0 -3.6 -3.6 0 0 -3.6 -7.21 0 0 -3.6 -7.2 0 0 -3.61 -7.2 0 0 -3.59 -3.61 0 0 -3.61 -7.2 0 0 -3.6 -7.2 0 0 -3.6 -3.6 0 0 -3.6 -7.2 0 0 -3.61 -3.6 0 0 -3.59 -7.21 0 0 -3.61 -3.6 0 0 -3.6 -3.6 0 0 -3.6 -3.6 0 0 -3.6 -3.6 0 0 -3.6 -3.61 0 0 -3.6 -3.6 0 0 -3.61 -3.6 0 0 -7.2 -3.6 0 0 -3.6 -3.6 0 0 -7.2 -3.6 0 0 -10.81 -3.61 0 0 -10.8 -3.59 0 0 -14.41 -3.61 0 0 -18 -3.6 0 0 -64.83zm273.71 -1177.69l3.61 0 0 32.42 3.6 0 0 32.41 3.6 0 0 25.21 3.6 0 0 21.61 3.6 0 0 32.42 3.6 0 0 21.6 3.61 0 0 28.81 3.59 0 0 14.41 3.61 0 0 18.01 3.6 0 0 18.01 3.6 0 0 25.21 3.6 0 0 10.8 3.6 0 0 25.21 3.6 0 0 18.01 3.61 0 0 25.21 3.6 0 0 14.41 3.6 0 0 25.2 3.6 0 0 18.01 3.6 0 0 25.21 3.6 0 0 21.61 3.61 0 0 21.61 3.6 0 0 39.61 3.6 0 0 32.42 3.6 0 0 32.41 3.6 0 0 32.42 3.6 0 0 39.61 3.6 0 0 68.43 3.61 0 0 50.42 3.59 0 0 50.42 3.61 0 0 50.42 3.6 0 0 43.22 -3.6 0 0 -7.2 -3.61 0 0 -3.6 -3.59 0 0 -7.21 -3.61 0 0 -7.2 -3.6 0 0 -7.2 -3.6 0 0 -3.6 -3.6 0 0 -7.21 -3.6 0 0 -7.2 -3.6 0 0 -3.6 -3.6 0 0 -3.6 -3.61 0 0 -7.21 -3.6 0 0 -3.6 -3.6 0 0 -3.6 -3.6 0 0 -3.6 -3.6 0 0 -3.6 -3.6 0 0 -3.6 -3.61 0 0 -7.2 -3.6 0 0 -3.61 -7.2 0 0 -3.6 -3.6 0 0 -3.6 -3.6 0 0 -3.6 -3.61 0 0 -3.6 -7.2 0 0 -3.6 -3.6 0 0 -3.61 -7.2 0 0 -3.6 -7.2 0 0 -3.6 -7.21 0 0 -3.6 -10.8 0 0 -3.6 -10.81 0 0 -3.6 -46.81 0 0 3.6 -14.41 0 0 3.6 -10.81 0 0 3.6 -10.8 0 0 3.6 -7.2 0 0 3.6 -7.21 0 0 3.61 -7.2 0 0 3.6 -3.6 0 0 3.6 -3.6 0 0 3.6 -7.21 0 0 3.6 -3.6 0 0 3.6 -3.6 0 0 3.61 -3.6 0 0 3.59 -3.6 0 0 3.61 -3.6 0 0 3.6 -3.61 0 0 3.6 -3.6 0 0 3.6 -3.6 0 0 7.2 -3.6 0 0 3.61 -3.6 0 0 7.2 -3.6 0 0 3.6 -3.61 0 0 7.2 -3.59 0 0 3.6 -3.61 0 0 7.21 -3.6 0 0 -10.81 3.6 0 0 -54.02 3.61 0 0 -36.01 3.59 0 0 -90.04 3.61 0 0 -140.46 3.6 0 0 -50.42 3.6 0 0 -79.23 3.6 0 0 -32.42 3.6 0 0 -54.02 3.6 0 0 -54.02 3.61 0 0 -14.4 3.6 0 0 -50.43 3.6 0 0 -18 3.6 0 0 -46.82 3.6 0 0 -21.61 3.6 0 0 -32.42 3.61 0 0 -18 3.6 0 0 -28.81 3.6 0 0 -21.61 3.6 0 0 -10.81 3.6 0 0 -25.21 3.6 0 0 -14.4 3.6 0 0 -14.41 3.61 0 0 -21.61 3.6 0 0 -14.4 3.6 0 0 -21.61 3.6 0 0 -18.01 3.6 0 0 -10.8 3.6 0 0 -14.41 3.61 0 0 -18.01 3.6 0 0 -10.8 3.6 0 0 -14.41 3.6 0 0 -7.2 3.6 0 0 -14.41 3.6 0 0 -10.8 3.61 0 0 -10.81 3.59 0 0 -10.8 3.61 0 0 -7.2 3.6 0 0 -10.81 3.6 0 0 -7.2 3.6 0 0 -7.2 3.6 0 0 -7.21 3.6 0 0 -7.2 3.61 0 0 -3.6 3.6 0 0 -7.21 3.6 0 0 -3.6 7.2 0 0 -3.6 14.41 0 0 3.6 3.6 0 0 7.21 3.6 0 0 7.2 3.6 0 0 7.2 3.6 0 0 18.01 3.61 0 0 129.65 -3.61 0 0 126.05zm-32.41 -320.53l-7.2 0 0 3.61 -7.21 0 0 3.59 -3.6 0 0 3.61 -3.6 0 0 7.2 -3.6 0 0 3.6 -3.6 0 0 3.6 -3.6 0 0 7.21 -3.61 0 0 7.2 -3.59 0 0 7.2 -3.61 0 0 7.21 -3.6 0 0 7.2 -3.6 0 0 10.8 -3.6 0 0 7.21 -3.6 0 0 14.4 -3.6 0 0 10.81 -3.61 0 0 10.8 -3.6 0 0 7.21 -3.6 0 0 18 -3.6 0 0 10.81 -3.6 0 0 14.4 -3.6 0 0 7.21 -3.61 0 0 14.4 -3.6 0 0 14.41 -3.6 0 0 14.4 -3.6 0 0 21.61 -3.6 0 0 10.81 -3.6 0 0 25.21 -3.6 0 0 10.8 -3.61 0 0 21.61 -3.6 0 0 18.01 -3.6 0 0 21.61 -3.6 0 0 28.81 -3.6 0 0 14.4 -3.6 0 0 25.22 -3.61 0 0 25.2 -3.6 0 0 32.42 -3.6 0 0 18.01 -3.6 0 0 32.41 -3.6 0 0 36.01 -3.6 0 0 32.42 -3.61 0 0 43.21 -3.59 0 0 28.82 -3.61 0 0 46.81 -3.6 0 0 46.83 -3.6 0 0 147.65 -3.6 0 0 100.85 -3.6 0 0 90.03 -3.6 0 0 32.42 -3.6 0 0 46.82 -3.61 0 0 32.41 -3.6 0 0 46.82 -3.6 0 0 14.4 -3.6 0 0 18.01 -3.6 0 0 18.01 -3.6 0 0 7.2 -3.61 0 0 10.81 -3.6 0 0 10.8 -3.6 0 0 10.81 -3.6 0 0 10.8 -3.6 0 0 10.8 -3.6 0 0 7.21 -3.61 0 0 10.8 -3.59 0 0 14.41 -3.61 0 0 7.2 -3.6 0 0 14.41 -3.6 0 0 7.2 -3.6 0 0 14.4 -3.6 0 0 14.41 -3.6 0 0 18.01 -3.61 0 0 25.21 -3.6 0 0 82.83 3.6 0 0 10.81 3.61 0 0 14.4 3.6 0 0 10.81 3.6 0 0 7.2 3.6 0 0 7.2 3.6 0 0 7.21 3.6 0 0 3.6 3.61 0 0 7.2 3.59 0 0 3.6 3.61 0 0 3.6 3.6 0 0 3.61 3.6 0 0 3.59 3.6 0 0 3.61 3.6 0 0 3.6 3.6 0 0 3.6 3.61 0 0 3.6 7.2 0 0 3.61 3.6 0 0 3.59 7.2 0 0 3.61 7.21 0 0 3.6 3.6 0 0 3.6 7.2 0 0 3.6 3.6 0 0 3.6 7.21 0 0 3.6 7.2 0 0 3.61 3.6 0 0 3.6 7.2 0 0 3.6 7.2 0 0 3.6 7.21 0 0 3.6 3.6 0 0 3.6 3.6 0 0 3.6 7.2 0 0 3.61 7.21 0 0 3.6 3.6 0 0 3.6 3.6 0 0 3.6 7.2 0 0 3.6 3.6 0 0 3.6 7.21 0 0 3.61 7.2 0 0 3.6 3.6 0 0 3.6 7.21 0 0 3.6 7.2 0 0 3.6 7.2 0 0 3.6 7.21 0 0 3.61 14.4 0 0 3.59 28.81 0 0 -3.59 14.41 0 0 -3.61 7.2 0 0 -3.6 7.2 0 0 -3.6 7.21 0 0 -3.6 7.2 0 0 -3.6 3.6 0 0 -3.6 7.21 0 0 -3.61 3.59 0 0 -3.6 3.61 0 0 -3.6 7.2 0 0 -3.6 3.6 0 0 -3.6 7.2 0 0 -3.6 3.61 0 0 -3.61 3.6 0 0 -3.6 7.2 0 0 -3.6 3.6 0 0 -3.6 7.21 0 0 -3.6 3.6 0 0 -3.6 7.2 0 0 -3.6 3.6 0 0 -3.61 7.2 0 0 -3.6 3.61 0 0 -3.6 7.2 0 0 -3.6 7.2 0 0 -3.6 3.6 0 0 -3.6 7.2 0 0 -3.61 3.61 0 0 -3.59 7.2 0 0 -3.61 3.6 0 0 -3.6 3.6 0 0 -3.6 7.21 0 0 -3.6 3.6 0 0 -3.61 3.6 0 0 -3.59 3.6 0 0 -3.61 3.6 0 0 -3.6 3.6 0 0 -3.6 3.6 0 0 -3.6 3.61 0 0 -3.6 3.6 0 0 -3.6 3.6 0 0 -7.21 3.6 0 0 -7.2 3.6 0 0 -10.8 3.6 0 0 -7.21 3.61 0 0 -14.4 3.6 0 0 -18.01 3.6 0 0 -64.83 -3.6 0 0 -18 -3.6 0 0 -18.01 -3.61 0 0 -14.41 -3.6 0 0 -14.4 -3.6 0 0 -10.81 -3.6 0 0 -10.8 -3.6 0 0 -14.41 -3.6 0 0 -7.2 -3.61 0 0 -10.81 -3.6 0 0 -7.2 -3.6 0 0 -10.8 -3.6 0 0 -10.8 -3.6 0 0 -10.81 -3.6 0 0 -10.8 -3.6 0 0 -7.21 -3.61 0 0 -18.01 -3.6 0 0 -7.2 -3.6 0 0 -32.41 -3.6 0 0 -39.62 -3.6 0 0 -54.02 -3.6 0 0 -39.62 -3.61 0 0 -57.62 -3.59 0 0 -64.83 -3.61 0 0 -61.22 -3.6 0 0 -28.81 -3.6 0 0 -39.62 -3.6 0 0 -36.01 -3.61 0 0 -32.42 -3.59 0 0 -32.41 -3.61 0 0 -28.82 -3.6 0 0 -21.6 -3.6 0 0 -18.01 -3.6 0 0 -18.01 -3.6 0 0 -14.4 -3.6 0 0 -28.81 -3.6 0 0 -14.41 -3.61 0 0 -21.61 -3.6 0 0 -28.81 -3.6 0 0 -21.61 -3.6 0 0 -7.2 -3.6 0 0 -28.82 -3.6 0 0 -10.8 -3.61 0 0 -25.21 -3.6 0 0 -21.61 -3.6 0 0 -21.61 -3.6 0 0 -25.21 -3.6 0 0 -18 -3.6 0 0 -32.42 -3.61 0 0 -39.62 -3.59 0 0 -288.11 -3.61 0 0 -10.81 -3.6 0 0 -10.8 -3.6 0 0 -7.21 -3.6 0 0 -7.2 -3.6 0 0 -7.2 -3.6 0 0 -3.61 -3.61 0 0 -3.59 -3.6 0 0 -3.61 -7.2 0 0 -3.6 -21.61 0 0 3.6z"/>
  <path class="fil3 str0" d="M347.94 1349.07l-1.67 -2.54 1.67 2.54zm-1.67 -2.54l-0.73 -2.15 0.73 2.15zm-0.73 -2.15zm-4.8 -9.37l4.8 9.37zm-4.8 -9.37c0.36,-2.97 3.06,-1.31 1.19,0.5l-0.36 -0.05c-0.95,-0.37 -1.31,3.54 -0.83,-0.45zm-1.98 -8.2l0.22 0.64c-0.01,-0.04 -0.33,-0.51 -0.22,-0.64zm-7.93 -16.22c1.23,-1.44 3.24,4.28 0.94,1.35 -0.02,-0.02 -2.86,0.94 -0.94,-1.35zm-46.89 -168.87zm-6.26 -13.67l6.26 13.67zm-6.26 -13.67c2.71,2.64 0.68,-0.48 2.41,3.17 1.34,2.84 1.17,1.63 1.45,5.81 -5.26,-5.12 -3.44,-7.29 -3.86,-8.98zm-3.13 -6.84zm0 0zm0 0zm-11.37 -28.7l11.37 28.7zm-11.37 -28.7c3.43,1.58 7.38,7.03 8.44,12.6 0.82,4.35 0.73,0.87 0.01,7.51 -3.2,-6.27 -5.74,-13.26 -8.45,-20.11zm46.55 -174.08c0.54,-4.49 1.52,0.34 0.56,0.24 -0.02,-0.01 -1.15,4.66 -0.56,-0.24zm38.21 430.64c4,3.9 12.72,25.09 16.32,33.4 7.76,17.92 8.25,16.19 16.6,33.05 1.86,3.75 3.87,7.88 5.34,11.75 2.05,5.42 1.98,8.67 5.25,11.86 -0.27,-12.22 -16.33,-48.61 -21.1,-59.36l-7.72 -19.48c-1.44,-3.95 -1.71,-5.48 -3.47,-9.44l-22.61 -57.56c-2.41,-5.73 -3.12,-3.41 -3.29,-11.17 2.26,-0.04 2.33,-0.46 4.91,0.21l0.42 -3.51c-4.32,-4.21 -11.3,-25.05 -14.03,-33.09 -2.88,-8.51 -4.72,-8.11 -7.19,-17.08l-13.26 -34c-1.35,-3.17 -1.75,-5.08 -3.1,-8.38 -2.91,-7.18 -16.92,-37.5 -17.07,-44.55 3.23,2.91 3.85,5.95 6.04,8.22 8.04,8.34 -5.76,-25.09 -6.49,-27.26 -1.38,-4.12 -1.97,-6.79 -3.17,-11.31 -2.14,-8.09 -0.73,-18.24 -5.37,-23.95 -3.5,-4.31 -5.13,-0.98 -8.1,-0.76 -0.21,-9.37 -2.74,-8.48 -6.26,-13.67 4.73,-8.4 4.62,-3.34 4.36,-15.54 -0.21,-9.68 0.87,-16.46 4.7,-21.88 7.15,-10.11 19.36,-28.41 22.5,-45.41 1.54,-8.37 2.52,-19.58 3.38,-23.97 0.73,-3.69 4.45,-13.27 6.19,-19.09 2.01,-6.74 4.3,-14.24 5.29,-22.43 3.27,3.19 1,2.28 4.28,5.47 1.12,-4.35 4.24,-11.86 5.87,-15.95 2.07,-5.19 4.58,-10.55 6.8,-15.6 4.76,-10.81 11.93,-33.75 15.92,-41.02 4.1,-7.47 5.89,-19.51 8.68,-29.06 7.15,-24.58 16.47,-44.86 26.24,-65.24 4.7,-9.81 8.74,-21.47 13.59,-31.23 3.09,-6.23 4.72,-5.88 6.36,-14.9 0.84,-4.65 -0.53,-1.82 2.27,-7.01 1.53,-2.84 2.48,-3.96 4.11,-7.06 2.73,-5.18 4.46,-10.98 6.41,-16.79 2.3,-6.87 4.67,-8.64 6.91,-15.27l18.41 -50.27c2.83,-7.49 4.53,-8.78 6.8,-15.62l6.41 -16.75c1.44,-3.94 1.17,-4.55 2.55,-9.11 4.79,-15.83 14.39,-32.11 20.07,-47.79 1.42,-3.91 1.51,-6.14 2.93,-10.39 6.54,-19.67 19.14,-20.48 22.32,-22.31l2.77 -5.06c2.44,-12.21 1.22,-35.75 -3.22,-41.3 -9.07,-11.33 -17.85,-1.8 -24,-1.7 -5.8,-11.37 -2.97,-16.43 -12.1,-11.87l-11.23 4.95c-3.94,2.25 -1.07,-2.46 -4.4,6.06 -3.2,8.21 -4.55,6.53 -7.85,14.9 -2.76,7.03 -2.5,11.83 -5.89,18.06 -2.94,5.39 -5.51,8.2 -7.91,14.9 -7.4,20.62 -11.8,25.49 -14.64,32.91l-14.16 36.69c-3.56,12.92 -9.09,24.41 -13.88,35.13 -2.62,5.87 -4.41,13.28 -6.94,19.93 -2.52,6.63 -4.98,10.68 -6.05,17.46 -1.02,6.46 -4.53,11.86 -6.85,18.17 -13.65,37.11 -25.25,78.63 -41.44,110.75 -6.55,13 -9.94,17.74 -15.12,33.86 -7.02,21.84 -16.83,45.79 -22.48,69.19l-9.09 30.21c-1.22,4.52 -1.66,6.06 -3.08,9.95 -1.03,2.82 -3.08,7.52 -3.84,10.23 -2.07,7.39 -0.57,6.62 -2.22,12.27l-3.57 10.87c-0.13,0.4 -0.27,0.82 -0.4,1.22l-4.75 16.87c-3.19,13.58 -11.41,24.77 -11.34,40.26 -5.84,-5.69 -24.56,-74.91 -28.19,-88.6 -2.81,-10.62 -8.46,-42.1 -10.81,-48.95 -1.58,-4.59 -2.51,-5.22 -4.27,-10 -2.55,-6.94 -9.88,-27.54 -13.33,-30.91 1.85,-15.42 3.4,-30.85 -6.76,-29.44 -3.82,0.53 0.27,1.16 -2.83,0.65 -1.97,-0.32 -1.38,-0.6 -3.45,-2.46 3.38,-13.08 4.95,-13.64 -7.87,-23.12 -1.72,-1.28 -1.77,-1.84 -3.71,-3.73 -4.27,-4.15 -5.57,-2.14 -5.74,-9.87 5.73,2.39 9,0.31 13.8,0.23 0.64,-8.61 -2.9,-15.74 -5.42,-20.69 -6.13,-6.31 0.14,11.83 -16.66,-14.91l-4.22 -8.56c2.72,-0.04 5.22,-0.32 7.94,-0.37 0.45,-6.07 0.06,-6.72 -0.62,-11.31l13.74 -2.16c5,-1.68 9.93,-6.07 14.91,-6.15 -2.16,-9.19 -15.8,-8.62 -24.27,-12.05 -6.23,-2.53 -5.09,-0.07 -8.01,-0.52l-15.89 -5.7c-10.8,-6.47 -20.79,-37.19 -34.07,-48.52 -4.77,-4.06 -30.65,-14.22 -37.18,-16.36 -5.6,-1.83 -9.71,1.52 -12.59,8.23 -3.73,8.72 -1.23,16.09 0.44,25.87 2.64,15.46 8.58,19.97 15.9,39.9 2.48,6.73 5.16,13.4 7.8,19.38l31.42 81.77c6.93,20.59 13.74,44.23 21.58,63.31l7.44 19.81c1.72,5.01 2.36,5.63 4.19,10.09 6.77,16.47 9.05,26.99 19.94,51.7 3.37,7.65 3.02,12.14 6.79,20.57 4.11,9.16 5.86,17.75 10.14,25.65 4.72,8.73 5.41,16.8 9.5,26.39 7.8,18.28 28.19,76.77 32.17,95.95 -4.94,11.7 -17.99,57.89 -21.62,64.58 -5.33,9.82 -3.08,10.56 -6.98,22.18l-7.4 20.98c-2.54,7.9 -4.79,14.87 -7.07,21.94 -2.49,7.74 -4.46,13.87 -7.07,21.91 -7.35,22.62 -12.94,45.6 -21.14,68.45 -2.82,7.85 -1.41,2.25 -2.55,11.82l-1.73 6.25c-0.1,0.23 -0.32,0.61 -0.42,0.84 -0.09,0.22 -0.29,0.64 -0.37,0.86l-12.05 39.01c-0.77,3 -0.78,4.08 -1.64,7.05 -2.29,7.95 -4.62,9.92 -7.38,21l-27.56 92.23c-6.27,21.14 -14.11,42.27 -19.01,64.8 -1.04,4.82 -1.22,2.46 -2.63,6.72 -2.8,8.43 -3.54,18.14 -6.64,25.64 -1.81,4.36 -2.22,5.38 -3.34,11.61 -2.45,13.64 -4.04,13.43 -7.38,23.41 -5.89,17.64 -10.87,47.4 -19.08,72.05 -2.59,7.78 -3.62,20.08 -6.06,27.28 -5.76,17 -4.78,23.02 -12.81,47.79 -3.71,11.47 -3.27,9.56 -5.9,25.36 -1.83,10.92 -5.28,11.34 -6.9,24.82l8.23 -16.39c2.96,-6.25 5.72,-11.38 7.83,-19.45 3.93,-15 10.41,-26.4 15.04,-41.22 1.53,-4.88 3.51,-13.86 4.87,-18.9 4.95,-18.22 8.74,-25.92 14.78,-50.53 0.95,-3.9 1.93,-3.49 2.89,-8.43 0.72,-3.75 -0.21,-2.26 1.21,-6.68 1.67,-5.24 1.17,-2.16 2.97,-7.76l8.28 -27.9c2.03,-5.55 4.03,-9.95 5.98,-15.64 4.59,-13.37 8.54,-32.23 14.27,-43.48 2.97,-5.84 7.83,-26.2 14.6,-42.51 1.75,-4.21 3.68,-11.69 5.45,-17.2 1.09,-3.39 1.67,-5.45 2.76,-8.52l30.4 -88.59c1.69,-5.83 2.53,-12.83 4.58,-19.77 3.86,-13.13 7.56,-22.07 11.96,-33.65 2.09,-5.5 3.84,-10.29 6.04,-15.47l12.75 -31.49c3.26,-9.84 1.81,-11.17 0.6,-19.45 16.79,-29.83 10.84,-23.97 17.5,-38.72l15.44 -30.54c2.99,-5.71 15,-27.63 15.74,-32.05l-2.82 -1.17 2.1 -17.55c5.27,-0.4 13.34,-10.72 16.84,-16.93 11.08,17.66 21.64,37.81 31.85,57.18 7.54,14.3 16.16,29.86 22.19,46.01 2.3,6.15 4,11.15 8.99,13.45l2.75 -7.2c0.03,-0.12 0.09,-0.56 0.18,-0.79 6.47,5.81 9.89,22.92 13.51,33.71 1.84,5.51 1.99,8.57 3.96,13.38 6.44,15.69 12.19,30.48 18.99,45.29 6.85,14.95 13.54,28.48 20.02,44.06l19.55 44.62c3.3,7.34 6.15,13.9 9.7,21.66 3.97,8.7 6.05,14.32 9.3,23.62 3.07,8.79 6.87,13.11 10.18,21.07 2.88,6.91 0.47,4.45 4.23,11.57l15.52 32.83c3.02,5.92 1.26,5.7 3.9,11.95l24.34 53.41c1.43,1.37 2.15,1.06 1.45,-2.77 -0.95,-5.18 -2.79,-8.63 -4.79,-12.25 -3.72,-6.7 -4.16,-10.45 -7.14,-17.15l-17.32 -42.75c-1.61,-4.23 -2.26,-5.14 -3.83,-9.01l-63.93 -154.74c-4.4,-10.53 -10.83,-23.63 -13.29,-35.47z"/>
 </g>
</svg>
