<?xml version="1.0" encoding="UTF-8"?>
<!DOCTYPE svg PUBLIC "-//W3C//DTD SVG 1.1//EN" "http://www.w3.org/Graphics/SVG/1.1/DTD/svg11.dtd">
<!-- Creator: CorelDRAW (Versión de evaluación) -->
<svg xmlns="http://www.w3.org/2000/svg" xml:space="preserve" width="739px" height="2458px" version="1.1" style="shape-rendering:geometricPrecision; text-rendering:geometricPrecision; image-rendering:optimizeQuality; fill-rule:evenodd; clip-rule:evenodd"
viewBox="0 0 739 2457.4"
 xmlns:xlink="http://www.w3.org/1999/xlink"
 xmlns:xodm="http://www.corel.com/coreldraw/odm/2003">
 <defs>
  <style type="text/css">
   <![CDATA[
    .str0 {stroke:#373435;stroke-width:10;stroke-miterlimit:22.9256}
    .fil0 {fill:#FEFEFE}
    .fil1 {fill:#DC3438;fill-rule:nonzero}
   ]]>
  </style>
 </defs>
 <g id="tooth-extraction-46">
  <metadata id="CorelCorpID_0Corel-Layer"/>
  <path id="root" class="fil0 str0" d="M73.7 2162.05c17.66,14.48 12.79,17.5 25.98,55.17 125.55,358.5 112.07,-175.76 113.76,-188.69 13.75,-105.11 38.36,-177 58.5,-273.24 25.91,-123.83 -6.59,-224.71 33.46,-299.89 129.09,-59.05 121.05,295.42 117.18,445.47 -2.59,99.98 -7.3,212.29 -15.42,311.1 -7.09,86.08 -29.41,179.94 2.26,245.05 131.72,15.94 198.24,-473.79 217.53,-643.11 30.21,-265.34 32.52,-454.94 21.29,-710.3 -3.06,-69.71 -14.41,-142.93 -3.78,-207.44 -51.07,-4.48 -64.34,7.52 -116.14,-23.19 -30.55,-18.12 -69.35,-41.19 -101.87,-27.5 -37.72,15.88 -60,57.99 -101.8,49.88 -24.09,-4.67 -72.28,-25.02 -113.52,-65.24 -29.5,8.61 -108.3,7.25 -157.89,-33.12 17.54,109.1 43.54,194.48 43.9,316.87 0.34,123.88 -0.1,242.55 -8.4,363.11 -7.53,109.46 -28.47,223.12 -31.8,336.03 -6.16,208.77 21.02,287.01 16.76,349.04z"/>
  <path id="crown" class="fil0 str0" d="M261.09 814.03c18.97,8.73 34.09,39.97 58.59,49.75 31.18,12.41 53.68,-16.35 80.95,-36.05 69.97,-50.54 117.75,22.78 183,39.87 76.35,19.98 89.05,-72.66 115.41,-182.97 43.55,-182.39 59.05,-495.92 5.25,-634.48 -52.99,-136.49 -140.77,47.94 -239.51,57.03 -46.85,4.3 -119.64,-88.5 -215.52,22.45 -29.07,33.63 -53.37,62.31 -11.74,-19.3 -150.73,-136.71 -230.8,44.28 -237.37,304.8 -4.22,167.17 13.78,389.84 128.74,384.6 17.98,-0.82 37.27,-6.63 56.21,-8.22 38.72,-3.26 48.22,9.74 75.99,22.52z"/>
  <path class="fil1" d="M-0.41 2457.4l311.67 -1275.03 -274.5 -1182.36 127.11 0 147.02 628.65c30.6,130.42 51.82,229.95 64.02,299.16 18.21,-85.8 39.62,-177.32 64.21,-274l161.1 -653.81 116.97 0 -280.13 1168.06 301.53 1289.33 -131.05 0 -203.53 -876.33c-11.64,-49.77 -22.72,-99.54 -33.23,-148.73 -17.84,82.37 -30.61,140.15 -38.68,172.75l-204.28 852.31 -128.23 0z"/>
 </g>
</svg>
