<?xml version="1.0" encoding="UTF-8"?>
<!DOCTYPE svg PUBLIC "-//W3C//DTD SVG 1.1//EN" "http://www.w3.org/Graphics/SVG/1.1/DTD/svg11.dtd">
<!-- Creator: CorelDRAW (Versión de evaluación) -->
<svg xmlns="http://www.w3.org/2000/svg" xml:space="preserve" width="684px" height="2062px" version="1.1" style="shape-rendering:geometricPrecision; text-rendering:geometricPrecision; image-rendering:optimizeQuality; fill-rule:evenodd; clip-rule:evenodd"
viewBox="0 0 684 2062.8"
 xmlns:xlink="http://www.w3.org/1999/xlink"
 xmlns:xodm="http://www.corel.com/coreldraw/odm/2003">
 <defs>
  <style type="text/css">
   <![CDATA[
    .str0 {stroke:#ED3237;stroke-width:2;stroke-miterlimit:22.9256}
    .fil2 {fill:#4B4B4D}
    .fil3 {fill:#ED3237}
    .fil0 {fill:#F2E6C9}
    .fil1 {fill:#FAFAF7}
   ]]>
  </style>
 </defs>
 <g id="extraction">
  <metadata id="CorelCorpID_0Corel-Layer"/>
  <polygon id="root" class="fil0" points="381.52,480.82 385.12,480.82 385.12,484.42 388.72,484.42 388.72,491.62 392.32,491.62 392.32,588.82 388.72,588.82 388.72,714.82 392.32,714.82 392.32,747.22 395.92,747.22 395.92,779.63 399.52,779.63 399.52,801.23 403.12,801.23 403.12,819.22 406.72,819.22 406.72,851.62 410.32,851.62 410.32,869.62 413.92,869.62 413.92,902.02 417.52,902.02 417.52,912.82 421.12,912.82 421.12,930.83 424.72,930.83 424.72,941.63 421.12,941.63 421.12,956.02 417.52,956.02 417.52,963.23 413.92,963.23 413.92,977.62 410.32,977.62 410.32,988.42 406.72,988.42 406.72,995.62 403.12,995.62 403.12,1006.42 399.52,1006.42 399.52,1017.22 395.92,1017.22 395.92,1028.02 392.32,1028.02 392.32,1042.42 388.72,1042.42 388.72,1049.62 385.12,1049.62 385.12,1064.02 381.52,1064.02 381.52,1078.43 377.92,1078.43 377.92,1085.62 374.32,1085.62 374.32,1100.03 370.72,1100.03 370.72,1118.02 367.12,1118.02 367.12,1128.82 363.52,1128.82 363.52,1143.23 359.92,1143.23 359.92,1172.02 356.32,1172.02 356.32,1190.02 352.72,1190.02 352.72,1222.42 349.12,1222.42 349.12,1247.63 352.72,1247.63 352.72,1244.02 356.32,1244.02 356.32,1236.82 359.92,1236.82 359.92,1229.63 363.52,1229.63 363.52,1215.22 367.12,1215.22 367.12,1193.62 370.72,1193.62 370.72,1179.22 374.32,1179.22 374.32,1168.42 377.92,1168.42 377.92,1143.23 381.52,1143.23 381.52,1136.02 385.12,1136.02 385.12,1121.63 388.72,1121.63 388.72,1103.62 392.32,1103.62 392.32,1096.42 395.92,1096.42 395.92,1085.62 399.52,1085.62 399.52,1071.22 403.12,1071.22 403.12,1056.83 406.72,1056.83 406.72,1049.62 410.32,1049.62 410.32,1035.23 413.92,1035.23 413.92,1024.43 417.52,1024.43 417.52,1017.22 421.12,1017.22 421.12,1010.02 424.72,1010.02 424.72,995.62 428.32,995.62 428.32,988.42 431.92,988.42 431.92,977.62 435.52,977.62 435.52,966.82 439.12,966.82 439.12,956.02 442.72,956.02 442.72,948.83 446.32,948.83 446.32,934.42 449.92,934.42 449.92,923.62 453.52,923.62 453.52,912.82 457.12,912.82 457.12,905.62 460.72,905.62 460.72,891.22 464.32,891.22 464.32,880.42 467.92,880.42 467.92,848.02 471.52,848.02 471.52,833.63 475.12,833.63 475.12,794.02 478.72,794.02 478.72,768.83 482.32,768.83 482.32,754.42 485.92,754.42 485.92,722.02 489.52,722.02 489.52,657.22 493.12,657.22 493.12,628.42 496.72,628.42 496.72,603.22 500.32,603.22 500.32,585.22 503.92,585.22 503.92,578.02 507.52,578.02 507.52,570.82 511.12,570.82 511.12,567.22 514.72,567.22 514.72,563.62 529.12,563.62 529.12,567.22 532.72,567.22 532.72,570.82 536.32,570.82 536.32,574.42 539.92,574.42 539.92,581.62 543.52,581.62 543.52,588.82 547.12,588.82 547.12,592.42 550.72,592.42 550.72,603.22 554.32,603.22 554.32,610.42 557.92,610.42 557.92,621.22 561.52,621.22 561.52,632.02 565.12,632.02 565.12,646.42 568.72,646.42 568.72,653.62 572.32,653.62 572.32,668.02 575.92,668.02 575.92,689.62 579.52,689.62 579.52,707.62 583.12,707.62 583.12,725.62 586.72,725.62 586.72,747.22 590.32,747.22 590.32,783.22 593.92,783.22 593.92,812.03 597.52,812.03 597.52,830.02 601.12,830.02 601.12,858.82 604.72,858.82 604.72,1017.22 601.12,1017.22 601.12,1056.83 597.52,1056.83 597.52,1074.82 593.92,1074.82 593.92,1100.03 590.32,1100.03 590.32,1121.63 586.72,1121.63 586.72,1146.82 583.12,1146.82 583.12,1172.02 579.52,1172.02 579.52,1200.82 575.92,1200.82 575.92,1244.02 572.32,1244.02 572.32,1398.83 575.92,1398.83 575.92,1420.43 579.52,1420.43 579.52,1463.63 583.12,1463.63 583.12,1467.23 572.32,1467.23 572.32,1463.63 565.12,1463.63 565.12,1460.03 550.72,1460.03 550.72,1456.43 543.52,1456.43 543.52,1452.83 536.32,1452.83 536.32,1449.23 521.92,1449.23 521.92,1445.63 511.12,1445.63 511.12,1442.03 496.72,1442.03 496.72,1438.43 475.12,1438.43 475.12,1434.83 460.72,1434.83 460.72,1431.23 424.72,1431.23 424.72,1427.63 316.72,1427.63 316.72,1431.23 284.32,1431.23 284.32,1434.83 255.52,1434.83 255.52,1438.43 241.12,1438.43 241.12,1442.03 226.72,1442.03 226.72,1445.63 208.72,1445.63 208.72,1449.23 190.72,1449.23 190.72,1452.83 179.92,1452.83 179.92,1456.43 169.12,1456.43 169.12,1460.03 158.32,1460.03 158.32,1463.63 147.52,1463.63 147.52,1467.23 140.32,1467.23 140.32,1470.83 129.52,1470.83 129.52,1474.43 122.32,1474.43 122.32,1478.03 115.12,1478.03 115.12,1481.63 107.92,1481.63 107.92,1485.23 100.72,1485.23 100.72,1488.83 93.52,1488.83 93.52,1492.43 86.32,1492.43 86.32,1496.03 79.12,1496.03 79.12,1499.63 75.52,1499.63 75.52,1474.43 79.12,1474.43 79.12,1452.83 82.72,1452.83 82.72,1298.02 79.12,1298.02 79.12,1265.62 75.52,1265.62 75.52,1218.83 71.92,1218.83 71.92,1182.82 68.32,1182.82 68.32,1049.62 71.92,1049.62 71.92,1006.42 75.52,1006.42 75.52,984.82 79.12,984.82 79.12,952.43 82.72,952.43 82.72,934.42 86.32,934.42 86.32,916.42 89.92,916.42 89.92,894.82 93.52,894.82 93.52,884.02 97.12,884.02 97.12,866.03 100.72,866.03 100.72,844.43 104.32,844.43 104.32,822.83 107.92,822.83 107.92,812.03 111.52,812.03 111.52,797.62 115.12,797.62 115.12,786.82 118.72,786.82 118.72,776.02 122.32,776.02 122.32,765.22 125.92,765.22 125.92,754.42 129.52,754.42 129.52,743.62 133.12,743.62 133.12,732.82 136.72,732.82 136.72,722.02 140.32,722.02 140.32,711.22 143.92,711.22 143.92,704.02 147.52,704.02 147.52,693.22 151.12,693.22 151.12,686.02 154.72,686.02 154.72,678.82 158.32,678.82 158.32,675.22 161.92,675.22 161.92,668.02 165.52,668.02 165.52,660.82 169.12,660.82 169.12,657.22 172.72,657.22 172.72,653.62 176.32,653.62 176.32,650.02 179.92,650.02 179.92,646.42 187.12,646.42 187.12,642.82 194.32,642.82 194.32,646.42 197.92,646.42 197.92,653.62 201.52,653.62 201.52,671.62 205.12,671.62 205.12,819.22 208.72,819.22 208.72,862.42 212.32,862.42 212.32,898.43 215.92,898.43 215.92,927.23 219.52,927.23 219.52,952.43 223.12,952.43 223.12,977.62 226.72,977.62 226.72,992.03 230.32,992.03 230.32,1013.63 233.92,1013.63 233.92,1031.62 237.52,1031.62 237.52,1046.03 241.12,1046.03 241.12,1064.02 244.72,1064.02 244.72,1074.82 248.32,1074.82 248.32,1089.23 251.92,1089.23 251.92,1100.03 255.52,1100.03 255.52,1114.42 259.12,1114.42 259.12,1132.43 262.72,1132.43 262.72,1143.23 266.32,1143.23 266.32,1157.62 269.92,1157.62 269.92,1164.83 273.52,1164.83 273.52,1179.22 277.12,1179.22 277.12,1190.02 280.72,1190.02 280.72,1200.82 284.32,1200.82 284.32,1211.62 287.92,1211.62 287.92,1222.42 291.52,1222.42 291.52,1229.63 295.12,1229.63 295.12,1240.43 298.72,1240.43 298.72,1244.02 302.32,1244.02 302.32,1251.23 305.92,1251.23 305.92,1258.43 309.52,1258.43 309.52,1262.03 313.12,1262.03 313.12,1265.62 316.72,1265.62 316.72,1269.23 320.32,1269.23 320.32,1272.83 323.92,1272.83 323.92,1276.42 327.52,1276.42 327.52,1280.03 334.72,1280.03 334.72,1283.63 341.92,1283.63 341.92,1287.22 349.12,1287.22 349.12,1290.83 374.32,1290.83 374.32,1283.63 363.52,1283.63 363.52,1280.03 356.32,1280.03 356.32,1276.42 349.12,1276.42 349.12,1272.83 341.92,1272.83 341.92,1269.23 338.32,1269.23 338.32,1265.62 334.72,1265.62 334.72,1262.03 331.12,1262.03 331.12,1258.43 327.52,1258.43 327.52,1254.82 323.92,1254.82 323.92,1251.23 320.32,1251.23 320.32,1244.02 316.72,1244.02 316.72,1236.82 313.12,1236.82 313.12,1226.02 309.52,1226.02 309.52,1218.83 305.92,1218.83 305.92,1208.03 302.32,1208.03 302.32,1197.23 298.72,1197.23 298.72,1182.82 295.12,1182.82 295.12,1172.02 291.52,1172.02 291.52,1161.22 287.92,1161.22 287.92,1150.42 284.32,1150.42 284.32,1132.43 280.72,1132.43 280.72,1125.22 277.12,1125.22 277.12,1110.83 273.52,1110.83 273.52,1096.42 269.92,1096.42 269.92,1074.82 266.32,1074.82 266.32,1067.63 262.72,1067.63 262.72,1046.03 259.12,1046.03 259.12,1031.62 255.52,1031.62 255.52,1020.82 251.92,1020.82 251.92,1002.83 248.32,1002.83 248.32,988.42 244.72,988.42 244.72,966.82 241.12,966.82 241.12,948.83 244.72,948.83 244.72,927.23 248.32,927.23 248.32,898.43 251.92,898.43 251.92,880.42 255.52,880.42 255.52,851.62 259.12,851.62 259.12,819.22 262.72,819.22 262.72,790.43 266.32,790.43 266.32,768.83 269.92,768.83 269.92,740.02 273.52,740.02 273.52,725.62 277.12,725.62 277.12,704.02 280.72,704.02 280.72,678.82 284.32,678.82 284.32,668.02 287.92,668.02 287.92,650.02 291.52,650.02 291.52,632.02 295.12,632.02 295.12,624.82 298.72,624.82 298.72,610.42 302.32,610.42 302.32,596.02 305.92,596.02 305.92,581.62 309.52,581.62 309.52,574.42 313.12,574.42 313.12,563.62 316.72,563.62 316.72,556.42 320.32,556.42 320.32,545.62 323.92,545.62 323.92,534.82 327.52,534.82 327.52,527.62 331.12,527.62 331.12,520.42 334.72,520.42 334.72,513.22 338.32,513.22 338.32,506.02 341.92,506.02 341.92,498.82 345.52,498.82 345.52,495.22 349.12,495.22 349.12,488.02 352.72,488.02 352.72,484.42 356.32,484.42 356.32,480.82 359.92,480.82 359.92,477.22 381.52,477.22 "/>
  <polygon id="crown" class="fil1" points="431.92,1449.23 464.32,1449.23 464.32,1452.83 485.92,1452.83 485.92,1456.43 503.92,1456.43 503.92,1460.03 521.92,1460.03 521.92,1463.63 532.72,1463.63 532.72,1467.23 543.52,1467.23 543.52,1470.83 550.72,1470.83 550.72,1474.43 565.12,1474.43 565.12,1478.03 572.32,1478.03 572.32,1481.63 579.52,1481.63 579.52,1485.23 583.12,1485.23 583.12,1488.83 586.72,1488.83 586.72,1492.43 590.32,1492.43 590.32,1499.63 593.92,1499.63 593.92,1503.23 597.52,1503.23 597.52,1510.43 601.12,1510.43 601.12,1521.23 604.72,1521.23 604.72,1528.43 608.32,1528.43 608.32,1539.23 611.92,1539.23 611.92,1546.43 615.52,1546.43 615.52,1557.23 619.12,1557.23 619.12,1564.43 622.72,1564.43 622.72,1575.23 626.32,1575.23 626.32,1586.03 629.92,1586.03 629.92,1596.83 633.52,1596.83 633.52,1604.03 637.12,1604.03 637.12,1622.03 640.72,1622.03 640.72,1632.83 644.32,1632.83 644.32,1650.83 647.92,1650.83 647.92,1661.63 651.52,1661.63 651.52,1676.03 655.12,1676.03 655.12,1704.83 658.72,1704.83 658.72,1773.23 655.12,1773.23 655.12,1791.23 651.52,1791.23 651.52,1802.03 647.92,1802.03 647.92,1812.83 644.32,1812.83 644.32,1820.03 640.72,1820.03 640.72,1830.83 637.12,1830.83 637.12,1838.03 633.52,1838.03 633.52,1845.23 629.92,1845.23 629.92,1856.03 626.32,1856.03 626.32,1863.23 622.72,1863.23 622.72,1866.83 619.12,1866.83 619.12,1874.03 615.52,1874.03 615.52,1877.63 611.92,1877.63 611.92,1884.83 608.32,1884.83 608.32,1888.43 604.72,1888.43 604.72,1895.63 601.12,1895.63 601.12,1899.23 597.52,1899.23 597.52,1902.83 593.92,1902.83 593.92,1906.43 590.32,1906.43 590.32,1913.63 586.72,1913.63 586.72,1917.23 583.12,1917.23 583.12,1920.83 579.52,1920.83 579.52,1924.43 572.32,1924.43 572.32,1928.03 568.72,1928.03 568.72,1931.63 565.12,1931.63 565.12,1935.23 557.92,1935.23 557.92,1938.83 550.72,1938.83 550.72,1942.43 539.92,1942.43 539.92,1946.03 503.92,1946.03 503.92,1942.43 489.52,1942.43 489.52,1938.83 460.72,1938.83 460.72,1935.23 453.52,1935.23 453.52,1931.63 424.72,1931.63 424.72,1928.03 385.12,1928.03 385.12,1924.43 388.72,1924.43 388.72,1917.23 392.32,1917.23 392.32,1910.03 395.92,1910.03 395.92,1892.03 399.52,1892.03 399.52,1870.43 395.92,1870.43 395.92,1866.83 410.32,1866.83 410.32,1870.43 421.12,1870.43 421.12,1874.03 431.92,1874.03 431.92,1877.63 442.72,1877.63 442.72,1881.23 453.52,1881.23 453.52,1884.83 460.72,1884.83 460.72,1888.43 471.52,1888.43 471.52,1892.03 478.72,1892.03 478.72,1895.63 500.32,1895.63 500.32,1899.23 521.92,1899.23 521.92,1895.63 529.12,1895.63 529.12,1892.03 536.32,1892.03 536.32,1888.43 543.52,1888.43 543.52,1884.83 547.12,1884.83 547.12,1881.23 554.32,1881.23 554.32,1877.63 557.92,1877.63 557.92,1874.03 561.52,1874.03 561.52,1866.83 565.12,1866.83 565.12,1863.23 568.72,1863.23 568.72,1859.63 572.32,1859.63 572.32,1852.43 575.92,1852.43 575.92,1848.83 579.52,1848.83 579.52,1841.63 583.12,1841.63 583.12,1830.83 586.72,1830.83 586.72,1827.23 590.32,1827.23 590.32,1809.23 579.52,1809.23 579.52,1823.63 575.92,1823.63 575.92,1827.23 572.32,1827.23 572.32,1834.43 568.72,1834.43 568.72,1841.63 565.12,1841.63 565.12,1845.23 561.52,1845.23 561.52,1848.83 557.92,1848.83 557.92,1856.03 554.32,1856.03 554.32,1859.63 550.72,1859.63 550.72,1863.23 547.12,1863.23 547.12,1866.83 543.52,1866.83 543.52,1870.43 536.32,1870.43 536.32,1874.03 532.72,1874.03 532.72,1877.63 525.52,1877.63 525.52,1881.23 496.72,1881.23 496.72,1877.63 482.32,1877.63 482.32,1874.03 471.52,1874.03 471.52,1870.43 464.32,1870.43 464.32,1866.83 453.52,1866.83 453.52,1863.23 442.72,1863.23 442.72,1859.63 431.92,1859.63 431.92,1856.03 424.72,1856.03 424.72,1852.43 410.32,1852.43 410.32,1848.83 381.52,1848.83 381.52,1841.63 385.12,1841.63 385.12,1830.83 388.72,1830.83 388.72,1816.43 392.32,1816.43 392.32,1809.23 395.92,1809.23 395.92,1737.23 388.72,1737.23 388.72,1755.23 385.12,1755.23 385.12,1769.63 381.52,1769.63 381.52,1805.63 377.92,1805.63 377.92,1812.83 374.32,1812.83 374.32,1827.23 370.72,1827.23 370.72,1834.43 367.12,1834.43 367.12,1845.23 363.52,1845.23 363.52,1848.83 359.92,1848.83 359.92,1852.43 356.32,1852.43 356.32,1856.03 349.12,1856.03 349.12,1859.63 345.52,1859.63 345.52,1863.23 341.92,1863.23 341.92,1866.83 334.72,1866.83 334.72,1870.43 331.12,1870.43 331.12,1874.03 323.92,1874.03 323.92,1877.63 320.32,1877.63 320.32,1881.23 316.72,1881.23 316.72,1884.83 309.52,1884.83 309.52,1888.43 305.92,1888.43 305.92,1892.03 302.32,1892.03 302.32,1895.63 295.12,1895.63 295.12,1899.23 287.92,1899.23 287.92,1902.83 284.32,1902.83 284.32,1906.43 277.12,1906.43 277.12,1910.03 269.92,1910.03 269.92,1913.63 266.32,1913.63 266.32,1917.23 259.12,1917.23 259.12,1920.83 251.92,1920.83 251.92,1924.43 244.72,1924.43 244.72,1928.03 230.32,1928.03 230.32,1931.63 179.92,1931.63 179.92,1928.03 169.12,1928.03 169.12,1924.43 161.92,1924.43 161.92,1920.83 154.72,1920.83 154.72,1917.23 147.52,1917.23 147.52,1913.63 140.32,1913.63 140.32,1910.03 136.72,1910.03 136.72,1906.43 129.52,1906.43 129.52,1902.83 125.92,1902.83 125.92,1899.23 122.32,1899.23 122.32,1895.63 118.72,1895.63 118.72,1892.03 115.12,1892.03 115.12,1888.43 111.52,1888.43 111.52,1884.83 107.92,1884.83 107.92,1881.23 100.72,1881.23 100.72,1895.63 104.32,1895.63 104.32,1899.23 107.92,1899.23 107.92,1902.83 111.52,1902.83 111.52,1906.43 115.12,1906.43 115.12,1910.03 118.72,1910.03 118.72,1913.63 122.32,1913.63 122.32,1917.23 125.92,1917.23 125.92,1920.83 133.12,1920.83 133.12,1924.43 140.32,1924.43 140.32,1928.03 143.92,1928.03 143.92,1931.63 151.12,1931.63 151.12,1935.23 158.32,1935.23 158.32,1938.83 169.12,1938.83 169.12,1942.43 179.92,1942.43 179.92,1946.03 190.72,1946.03 190.72,1949.63 230.32,1949.63 230.32,1946.03 237.52,1946.03 237.52,1942.43 248.32,1942.43 248.32,1938.83 255.52,1938.83 255.52,1935.23 262.72,1935.23 262.72,1931.63 269.92,1931.63 269.92,1928.03 277.12,1928.03 277.12,1924.43 284.32,1924.43 284.32,1920.83 291.52,1920.83 291.52,1917.23 295.12,1917.23 295.12,1913.63 302.32,1913.63 302.32,1910.03 309.52,1910.03 309.52,1906.43 313.12,1906.43 313.12,1902.83 316.72,1902.83 316.72,1899.23 323.92,1899.23 323.92,1895.63 327.52,1895.63 327.52,1892.03 331.12,1892.03 331.12,1888.43 338.32,1888.43 338.32,1884.83 341.92,1884.83 341.92,1881.23 349.12,1881.23 349.12,1877.63 352.72,1877.63 352.72,1874.03 359.92,1874.03 359.92,1870.43 363.52,1870.43 363.52,1866.83 392.32,1866.83 392.32,1870.43 388.72,1870.43 388.72,1892.03 385.12,1892.03 385.12,1906.43 381.52,1906.43 381.52,1913.63 377.92,1913.63 377.92,1920.83 374.32,1920.83 374.32,1931.63 370.72,1931.63 370.72,1935.23 359.92,1935.23 359.92,1938.83 352.72,1938.83 352.72,1942.43 345.52,1942.43 345.52,1946.03 338.32,1946.03 338.32,1949.63 331.12,1949.63 331.12,1953.23 323.92,1953.23 323.92,1956.83 320.32,1956.83 320.32,1960.43 313.12,1960.43 313.12,1964.03 305.92,1964.03 305.92,1967.63 302.32,1967.63 302.32,1971.23 295.12,1971.23 295.12,1974.83 291.52,1974.83 291.52,1978.43 284.32,1978.43 284.32,1982.03 277.12,1982.03 277.12,1985.63 269.92,1985.63 269.92,1989.23 262.72,1989.23 262.72,1992.83 251.92,1992.83 251.92,1996.43 241.12,1996.43 241.12,2000.03 215.92,2000.03 215.92,1996.43 201.52,1996.43 201.52,1992.83 190.72,1992.83 190.72,1989.23 183.52,1989.23 183.52,1985.63 176.32,1985.63 176.32,1982.03 169.12,1982.03 169.12,1978.43 161.92,1978.43 161.92,1974.83 158.32,1974.83 158.32,1971.23 151.12,1971.23 151.12,1967.63 143.92,1967.63 143.92,1964.03 140.32,1964.03 140.32,1960.43 133.12,1960.43 133.12,1956.83 129.52,1956.83 129.52,1953.23 125.92,1953.23 125.92,1949.63 122.32,1949.63 122.32,1946.03 115.12,1946.03 115.12,1942.43 111.52,1942.43 111.52,1938.83 107.92,1938.83 107.92,1935.23 104.32,1935.23 104.32,1931.63 100.72,1931.63 100.72,1928.03 97.12,1928.03 97.12,1924.43 93.52,1924.43 93.52,1920.83 89.92,1920.83 89.92,1917.23 86.32,1917.23 86.32,1913.63 82.72,1913.63 82.72,1910.03 79.12,1910.03 79.12,1906.43 75.52,1906.43 75.52,1899.23 71.92,1899.23 71.92,1895.63 68.32,1895.63 68.32,1892.03 64.72,1892.03 64.72,1884.83 61.12,1884.83 61.12,1881.23 57.52,1881.23 57.52,1874.03 53.92,1874.03 53.92,1870.43 50.32,1870.43 50.32,1863.23 46.72,1863.23 46.72,1856.03 43.12,1856.03 43.12,1848.83 39.52,1848.83 39.52,1841.63 35.92,1841.63 35.92,1834.43 32.32,1834.43 32.32,1823.63 28.72,1823.63 28.72,1812.83 25.12,1812.83 25.12,1794.83 21.52,1794.83 21.52,1715.63 25.12,1715.63 25.12,1690.43 28.72,1690.43 28.72,1672.43 32.32,1672.43 32.32,1661.63 35.92,1661.63 35.92,1647.23 39.52,1647.23 39.52,1629.23 43.12,1629.23 43.12,1618.43 46.72,1618.43 46.72,1604.03 50.32,1604.03 50.32,1596.83 53.92,1596.83 53.92,1586.03 57.52,1586.03 57.52,1571.63 61.12,1571.63 61.12,1560.83 64.72,1560.83 64.72,1542.83 68.32,1542.83 68.32,1524.83 71.92,1524.83 71.92,1521.23 75.52,1521.23 75.52,1517.63 82.72,1517.63 82.72,1514.03 86.32,1514.03 86.32,1510.43 93.52,1510.43 93.52,1506.83 97.12,1506.83 97.12,1503.23 104.32,1503.23 104.32,1499.63 111.52,1499.63 111.52,1496.03 118.72,1496.03 118.72,1492.43 129.52,1492.43 129.52,1488.83 136.72,1488.83 136.72,1485.23 147.52,1485.23 147.52,1481.63 154.72,1481.63 154.72,1478.03 165.52,1478.03 165.52,1474.43 172.72,1474.43 172.72,1470.83 183.52,1470.83 183.52,1467.23 201.52,1467.23 201.52,1463.63 219.52,1463.63 219.52,1460.03 233.92,1460.03 233.92,1456.43 251.92,1456.43 251.92,1452.83 277.12,1452.83 277.12,1449.23 295.12,1449.23 295.12,1445.63 431.92,1445.63 "/>
  <path id="outline" class="fil2" d="M395.92 1809.23l-3.6 0 0 7.2 -3.6 0 0 14.4 -3.6 0 0 10.8 -3.6 0 0 7.2 28.8 0 0 3.6 14.4 0 0 3.6 7.2 0 0 3.6 10.8 0 0 3.6 10.8 0 0 3.6 10.8 0 0 3.6 7.2 0 0 3.6 10.8 0 0 3.6 14.4 0 0 3.6 28.8 0 0 -3.6 7.2 0 0 -3.6 3.6 0 0 -3.6 7.2 0 0 -3.6 3.6 0 0 -3.6 3.6 0 0 -3.6 3.6 0 0 -3.6 3.6 0 0 -7.2 3.6 0 0 -3.6 3.6 0 0 -3.6 3.6 0 0 -7.2 3.6 0 0 -7.2 3.6 0 0 -3.6 3.6 0 0 -14.4 10.8 0 0 18 -3.6 0 0 3.6 -3.6 0 0 10.8 -3.6 0 0 7.2 -3.6 0 0 3.6 -3.6 0 0 7.2 -3.6 0 0 3.6 -3.6 0 0 3.6 -3.6 0 0 7.2 -3.6 0 0 3.6 -3.6 0 0 3.6 -7.2 0 0 3.6 -3.6 0 0 3.6 -7.2 0 0 3.6 -7.2 0 0 3.6 -7.2 0 0 3.6 -21.6 0 0 -3.6 -21.6 0 0 -3.6 -7.2 0 0 -3.6 -10.8 0 0 -3.6 -7.2 0 0 -3.6 -10.8 0 0 -3.6 -10.8 0 0 -3.6 -10.8 0 0 -3.6 -10.8 0 0 -3.6 -14.4 0 0 3.6 3.6 0 0 21.6 -3.6 0 0 18 -3.6 0 0 7.2 -3.6 0 0 7.2 -3.6 0 0 3.6 39.6 0 0 3.6 28.8 0 0 3.6 7.2 0 0 3.6 28.8 0 0 3.6 14.4 0 0 3.6 36 0 0 -3.6 10.8 0 0 -3.6 7.2 0 0 -3.6 7.2 0 0 -3.6 3.6 0 0 -3.6 3.6 0 0 -3.6 7.2 0 0 -3.6 3.6 0 0 -3.6 3.6 0 0 -3.6 3.6 0 0 -7.2 3.6 0 0 -3.6 3.6 0 0 -3.6 3.6 0 0 -3.6 3.6 0 0 -7.2 3.6 0 0 -3.6 3.6 0 0 -7.2 3.6 0 0 -3.6 3.6 0 0 -7.2 3.6 0 0 -3.6 3.6 0 0 -7.2 3.6 0 0 -10.8 3.6 0 0 -7.2 3.6 0 0 -7.2 3.6 0 0 -10.8 3.6 0 0 -7.2 3.6 0 0 -10.8 3.6 0 0 -10.8 3.6 0 0 -18 3.6 0 0 -68.4 -3.6 0 0 -28.8 -3.6 0 0 -14.4 -3.6 0 0 -10.8 -3.6 0 0 -18 -3.6 0 0 -10.8 -3.6 0 0 -18 -3.6 0 0 -7.2 -3.6 0 0 -10.8 -3.6 0 0 -10.8 -3.6 0 0 -10.8 -3.6 0 0 -7.2 -3.6 0 0 -10.8 -3.6 0 0 -7.2 -3.6 0 0 -10.8 -3.6 0 0 -7.2 -3.6 0 0 -10.8 -3.6 0 0 -7.2 -3.6 0 0 -3.6 -3.6 0 0 -7.2 -3.6 0 0 -3.6 -3.6 0 0 -3.6 -3.6 0 0 -3.6 -7.2 0 0 -3.6 -7.2 0 0 -3.6 -14.4 0 0 -3.6 -7.2 0 0 -3.6 -10.8 0 0 -3.6 -10.8 0 0 -3.6 -18 0 0 -3.6 -18 0 0 -3.6 -21.6 0 0 -3.6 -32.4 0 0 -3.6 -136.8 0 0 3.6 -18 0 0 3.6 -25.2 0 0 3.6 -18 0 0 3.6 -14.4 0 0 3.6 -18 0 0 3.6 -18 0 0 3.6 -10.8 0 0 3.6 -7.2 0 0 3.6 -10.8 0 0 3.6 -7.2 0 0 3.6 -10.8 0 0 3.6 -7.2 0 0 3.6 -10.8 0 0 3.6 -7.2 0 0 3.6 -7.2 0 0 3.6 -7.2 0 0 3.6 -3.6 0 0 3.6 -7.2 0 0 3.6 -3.6 0 0 3.6 -7.2 0 0 3.6 -3.6 0 0 3.6 -3.6 0 0 18 -3.6 0 0 18 -3.6 0 0 10.8 -3.6 0 0 14.4 -3.6 0 0 10.8 -3.6 0 0 7.2 -3.6 0 0 14.4 -3.6 0 0 10.8 -3.6 0 0 18 -3.6 0 0 14.4 -3.6 0 0 10.8 -3.6 0 0 18 -3.6 0 0 25.2 -3.6 0 0 79.2 3.6 0 0 18 3.6 0 0 10.8 3.6 0 0 10.8 3.6 0 0 7.2 3.6 0 0 7.2 3.6 0 0 7.2 3.6 0 0 7.2 3.6 0 0 7.2 3.6 0 0 3.6 3.6 0 0 7.2 3.6 0 0 3.6 3.6 0 0 7.2 3.6 0 0 3.6 3.6 0 0 3.6 3.6 0 0 7.2 3.6 0 0 3.6 3.6 0 0 3.6 3.6 0 0 3.6 3.6 0 0 3.6 3.6 0 0 3.6 3.6 0 0 3.6 3.6 0 0 3.6 3.6 0 0 3.6 3.6 0 0 3.6 3.6 0 0 3.6 3.6 0 0 3.6 7.2 0 0 3.6 3.6 0 0 3.6 3.6 0 0 3.6 3.6 0 0 3.6 7.2 0 0 3.6 3.6 0 0 3.6 7.2 0 0 3.6 7.2 0 0 3.6 3.6 0 0 3.6 7.2 0 0 3.6 7.2 0 0 3.6 7.2 0 0 3.6 7.2 0 0 3.6 10.8 0 0 3.6 14.4 0 0 3.6 25.2 0 0 -3.6 10.8 0 0 -3.6 10.8 0 0 -3.6 7.2 0 0 -3.6 7.2 0 0 -3.6 7.2 0 0 -3.6 7.2 0 0 -3.6 3.6 0 0 -3.6 7.2 0 0 -3.6 3.6 0 0 -3.6 7.2 0 0 -3.6 7.2 0 0 -3.6 3.6 0 0 -3.6 7.2 0 0 -3.6 7.2 0 0 -3.6 7.2 0 0 -3.6 7.2 0 0 -3.6 7.2 0 0 -3.6 10.8 0 0 -3.6 3.6 0 0 -10.8 3.6 0 0 -7.2 3.6 0 0 -7.2 3.6 0 0 -14.4 3.6 0 0 -21.6 3.6 0 0 -3.6 -28.8 0 0 3.6 -3.6 0 0 3.6 -7.2 0 0 3.6 -3.6 0 0 3.6 -7.2 0 0 3.6 -3.6 0 0 3.6 -7.2 0 0 3.6 -3.6 0 0 3.6 -3.6 0 0 3.6 -7.2 0 0 3.6 -3.6 0 0 3.6 -3.6 0 0 3.6 -7.2 0 0 3.6 -7.2 0 0 3.6 -3.6 0 0 3.6 -7.2 0 0 3.6 -7.2 0 0 3.6 -7.2 0 0 3.6 -7.2 0 0 3.6 -7.2 0 0 3.6 -7.2 0 0 3.6 -10.8 0 0 3.6 -7.2 0 0 3.6 -39.6 0 0 -3.6 -10.8 0 0 -3.6 -10.8 0 0 -3.6 -10.8 0 0 -3.6 -7.2 0 0 -3.6 -7.2 0 0 -3.6 -3.6 0 0 -3.6 -7.2 0 0 -3.6 -7.2 0 0 -3.6 -3.6 0 0 -3.6 -3.6 0 0 -3.6 -3.6 0 0 -3.6 -3.6 0 0 -3.6 -3.6 0 0 -3.6 -3.6 0 0 -3.6 -3.6 0 0 -14.4 7.2 0 0 3.6 3.6 0 0 3.6 3.6 0 0 3.6 3.6 0 0 3.6 3.6 0 0 3.6 3.6 0 0 3.6 3.6 0 0 3.6 7.2 0 0 3.6 3.6 0 0 3.6 7.2 0 0 3.6 7.2 0 0 3.6 7.2 0 0 3.6 7.2 0 0 3.6 10.8 0 0 3.6 50.4 0 0 -3.6 14.4 0 0 -3.6 7.2 0 0 -3.6 7.2 0 0 -3.6 7.2 0 0 -3.6 3.6 0 0 -3.6 7.2 0 0 -3.6 7.2 0 0 -3.6 3.6 0 0 -3.6 7.2 0 0 -3.6 7.2 0 0 -3.6 3.6 0 0 -3.6 3.6 0 0 -3.6 7.2 0 0 -3.6 3.6 0 0 -3.6 3.6 0 0 -3.6 7.2 0 0 -3.6 3.6 0 0 -3.6 7.2 0 0 -3.6 3.6 0 0 -3.6 3.6 0 0 -3.6 7.2 0 0 -3.6 3.6 0 0 -3.6 3.6 0 0 -3.6 3.6 0 0 -10.8 3.6 0 0 -7.2 3.6 0 0 -14.4 3.6 0 0 -7.2 3.6 0 0 -36 3.6 0 0 -14.4 3.6 0 0 -18 7.2 0 0 72zm-3.6 -1317.61l-3.6 0 0 -7.2 -3.6 0 0 -3.6 -3.6 0 0 -3.6 -21.6 0 0 3.6 -3.6 0 0 3.6 -3.6 0 0 3.6 -3.6 0 0 7.2 -3.6 0 0 3.6 -3.6 0 0 7.2 -3.6 0 0 7.2 -3.6 0 0 7.2 -3.6 0 0 7.2 -3.6 0 0 7.2 -3.6 0 0 10.8 -3.6 0 0 10.8 -3.6 0 0 7.2 -3.6 0 0 10.8 -3.6 0 0 7.2 -3.6 0 0 14.4 -3.6 0 0 14.4 -3.6 0 0 14.4 -3.6 0 0 7.2 -3.6 0 0 18 -3.6 0 0 18 -3.6 0 0 10.8 -3.6 0 0 25.2 -3.6 0 0 21.6 -3.6 0 0 14.4 -3.6 0 0 28.81 -3.6 0 0 21.6 -3.6 0 0 28.79 -3.6 0 0 32.4 -3.6 0 0 28.8 -3.6 0 0 18.01 -3.6 0 0 28.8 -3.6 0 0 21.6 -3.6 0 0 17.99 3.6 0 0 21.6 3.6 0 0 14.41 3.6 0 0 17.99 3.6 0 0 10.8 3.6 0 0 14.41 3.6 0 0 21.6 3.6 0 0 7.19 3.6 0 0 21.6 3.6 0 0 14.41 3.6 0 0 14.39 3.6 0 0 7.21 3.6 0 0 17.99 3.6 0 0 10.8 3.6 0 0 10.8 3.6 0 0 10.8 3.6 0 0 14.41 3.6 0 0 10.8 3.6 0 0 10.8 3.6 0 0 7.19 3.6 0 0 10.8 3.6 0 0 7.2 3.6 0 0 7.21 3.6 0 0 3.59 3.6 0 0 3.61 3.6 0 0 3.6 3.6 0 0 3.59 3.6 0 0 3.61 3.6 0 0 3.6 7.2 0 0 3.59 7.2 0 0 3.61 7.2 0 0 3.6 10.8 0 0 7.2 -25.2 0 0 -3.61 -7.2 0 0 -3.59 -7.2 0 0 -3.6 -7.2 0 0 -3.61 -3.6 0 0 -3.59 -3.6 0 0 -3.6 -3.6 0 0 -3.61 -3.6 0 0 -3.59 -3.6 0 0 -3.6 -3.6 0 0 -7.2 -3.6 0 0 -7.21 -3.6 0 0 -3.59 -3.6 0 0 -10.8 -3.6 0 0 -7.21 -3.6 0 0 -10.8 -3.6 0 0 -10.8 -3.6 0 0 -10.8 -3.6 0 0 -10.8 -3.6 0 0 -14.39 -3.6 0 0 -7.21 -3.6 0 0 -14.39 -3.6 0 0 -10.8 -3.6 0 0 -18.01 -3.6 0 0 -14.39 -3.6 0 0 -10.8 -3.6 0 0 -14.41 -3.6 0 0 -10.8 -3.6 0 0 -17.99 -3.6 0 0 -14.41 -3.6 0 0 -17.99 -3.6 0 0 -21.6 -3.6 0 0 -14.41 -3.6 0 0 -25.19 -3.6 0 0 -25.2 -3.6 0 0 -28.8 -3.6 0 0 -36.01 -3.6 0 0 -43.2 -3.6 0 0 -147.6 -3.6 0 0 -18 -3.6 0 0 -7.2 -3.6 0 0 -3.6 -7.2 0 0 3.6 -7.2 0 0 3.6 -3.6 0 0 3.6 -3.6 0 0 3.6 -3.6 0 0 3.6 -3.6 0 0 7.2 -3.6 0 0 7.2 -3.6 0 0 3.6 -3.6 0 0 7.2 -3.6 0 0 7.2 -3.6 0 0 10.8 -3.6 0 0 7.2 -3.6 0 0 10.8 -3.6 0 0 10.8 -3.6 0 0 10.8 -3.6 0 0 10.8 -3.6 0 0 10.8 -3.6 0 0 10.8 -3.6 0 0 10.8 -3.6 0 0 10.8 -3.6 0 0 14.41 -3.6 0 0 10.8 -3.6 0 0 21.6 -3.6 0 0 21.6 -3.6 0 0 17.99 -3.6 0 0 10.8 -3.6 0 0 21.6 -3.6 0 0 18 -3.6 0 0 18.01 -3.6 0 0 32.39 -3.6 0 0 21.6 -3.6 0 0 43.2 -3.6 0 0 133.2 3.6 0 0 36.01 3.6 0 0 46.79 3.6 0 0 32.4 3.6 0 0 154.81 -3.6 0 0 21.6 -3.6 0 0 25.2 3.6 0 0 -3.6 7.2 0 0 -3.6 7.2 0 0 -3.6 7.2 0 0 -3.6 7.2 0 0 -3.6 7.2 0 0 -3.6 7.2 0 0 -3.6 7.2 0 0 -3.6 10.8 0 0 -3.6 7.2 0 0 -3.6 10.8 0 0 -3.6 10.8 0 0 -3.6 10.8 0 0 -3.6 10.8 0 0 -3.6 18 0 0 -3.6 18 0 0 -3.6 14.4 0 0 -3.6 14.4 0 0 -3.6 28.8 0 0 -3.6 32.4 0 0 -3.6 108 0 0 3.6 36 0 0 3.6 14.4 0 0 3.6 21.6 0 0 3.6 14.4 0 0 3.6 10.8 0 0 3.6 14.4 0 0 3.6 7.2 0 0 3.6 7.2 0 0 3.6 14.4 0 0 3.6 7.2 0 0 3.6 10.8 0 0 -3.6 -3.6 0 0 -43.2 -3.6 0 0 -21.6 -3.6 0 0 -154.81 3.6 0 0 -43.2 3.6 0 0 -28.8 3.6 0 0 -25.2 3.6 0 0 -25.19 3.6 0 0 -21.6 3.6 0 0 -25.21 3.6 0 0 -17.99 3.6 0 0 -39.61 3.6 0 0 -158.4 -3.6 0 0 -28.8 -3.6 0 0 -17.99 -3.6 0 0 -28.81 -3.6 0 0 -36 -3.6 0 0 -21.6 -3.6 0 0 -18 -3.6 0 0 -18 -3.6 0 0 -21.6 -3.6 0 0 -14.4 -3.6 0 0 -7.2 -3.6 0 0 -14.4 -3.6 0 0 -10.8 -3.6 0 0 -10.8 -3.6 0 0 -7.2 -3.6 0 0 -10.8 -3.6 0 0 -3.6 -3.6 0 0 -7.2 -3.6 0 0 -7.2 -3.6 0 0 -3.6 -3.6 0 0 -3.6 -3.6 0 0 -3.6 -14.4 0 0 3.6 -3.6 0 0 3.6 -3.6 0 0 7.2 -3.6 0 0 7.2 -3.6 0 0 18 -3.6 0 0 25.2 -3.6 0 0 28.8 -3.6 0 0 64.8 -3.6 0 0 32.4 -3.6 0 0 14.41 -3.6 0 0 25.19 -3.6 0 0 39.61 -3.6 0 0 14.39 -3.6 0 0 32.4 -3.6 0 0 10.8 -3.6 0 0 14.4 -3.6 0 0 7.2 -3.6 0 0 10.8 -3.6 0 0 10.8 -3.6 0 0 14.41 -3.6 0 0 7.19 -3.6 0 0 10.8 -3.6 0 0 10.8 -3.6 0 0 10.8 -3.6 0 0 7.2 -3.6 0 0 14.4 -3.6 0 0 7.2 -3.6 0 0 7.21 -3.6 0 0 10.8 -3.6 0 0 14.39 -3.6 0 0 7.21 -3.6 0 0 14.39 -3.6 0 0 14.4 -3.6 0 0 10.8 -3.6 0 0 7.2 -3.6 0 0 18.01 -3.6 0 0 14.39 -3.6 0 0 7.21 -3.6 0 0 25.19 -3.6 0 0 10.8 -3.6 0 0 14.4 -3.6 0 0 21.6 -3.6 0 0 14.41 -3.6 0 0 7.19 -3.6 0 0 7.2 -3.6 0 0 3.61 -3.6 0 0 -25.21 3.6 0 0 -32.4 3.6 0 0 -18 3.6 0 0 -28.79 3.6 0 0 -14.41 3.6 0 0 -10.8 3.6 0 0 -17.99 3.6 0 0 -14.41 3.6 0 0 -7.19 3.6 0 0 -14.41 3.6 0 0 -14.4 3.6 0 0 -7.2 3.6 0 0 -14.4 3.6 0 0 -10.8 3.6 0 0 -10.8 3.6 0 0 -10.8 3.6 0 0 -7.2 3.6 0 0 -10.8 3.6 0 0 -14.39 3.6 0 0 -7.21 3.6 0 0 -14.39 3.6 0 0 -10.8 -3.6 0 0 -18.01 -3.6 0 0 -10.8 -3.6 0 0 -32.4 -3.6 0 0 -18 -3.6 0 0 -32.4 -3.6 0 0 -17.99 -3.6 0 0 -21.6 -3.6 0 0 -32.41 -3.6 0 0 -32.4 -3.6 0 0 -126 3.6 0 0 -97.2zm-10.8 -36l7.2 0 0 3.6 7.2 0 0 3.6 3.6 0 0 3.6 3.6 0 0 3.6 3.6 0 0 7.2 3.6 0 0 7.2 3.6 0 0 14.4 3.6 0 0 68.4 -3.6 0 0 43.2 -3.6 0 0 111.6 3.6 0 0 25.2 3.6 0 0 21.61 3.6 0 0 25.19 3.6 0 0 28.81 3.6 0 0 17.99 3.6 0 0 28.8 3.6 0 0 21.6 7.2 0 0 -21.6 3.6 0 0 -28.8 3.6 0 0 -28.79 3.6 0 0 -14.41 3.6 0 0 -32.4 3.6 0 0 -28.8 3.6 0 0 -46.8 3.6 0 0 -43.2 3.6 0 0 -39.6 3.6 0 0 -10.8 3.6 0 0 -14.4 3.6 0 0 -10.8 3.6 0 0 -7.2 3.6 0 0 -7.2 3.6 0 0 -3.6 3.6 0 0 -3.6 3.6 0 0 -3.6 3.6 0 0 -3.6 7.2 0 0 -3.6 21.6 0 0 3.6 7.2 0 0 3.6 3.6 0 0 3.6 3.6 0 0 3.6 3.6 0 0 3.6 3.6 0 0 3.6 3.6 0 0 7.2 3.6 0 0 7.2 3.6 0 0 3.6 3.6 0 0 7.2 3.6 0 0 10.8 3.6 0 0 7.2 3.6 0 0 10.8 3.6 0 0 7.2 3.6 0 0 18 3.6 0 0 10.8 3.6 0 0 10.8 3.6 0 0 18 3.6 0 0 21.6 3.6 0 0 18 3.6 0 0 21.6 3.6 0 0 18 3.6 0 0 25.2 3.6 0 0 28.81 3.6 0 0 28.79 3.6 0 0 57.61 3.6 0 0 89.99 -3.6 0 0 54 -3.6 0 0 28.8 -3.6 0 0 21.6 -3.6 0 0 14.4 -3.6 0 0 28.8 -3.6 0 0 18.01 -3.6 0 0 28.79 -3.6 0 0 28.8 -3.6 0 0 36.01 -3.6 0 0 144 3.6 0 0 36 3.6 0 0 21.6 3.6 0 0 14.4 3.6 0 0 14.4 3.6 0 0 10.8 3.6 0 0 10.8 3.6 0 0 7.2 3.6 0 0 7.2 3.6 0 0 7.2 3.6 0 0 7.2 3.6 0 0 10.8 3.6 0 0 7.2 3.6 0 0 10.8 3.6 0 0 7.2 3.6 0 0 14.4 3.6 0 0 10.8 3.6 0 0 10.8 3.6 0 0 10.8 3.6 0 0 10.8 3.6 0 0 18 3.6 0 0 7.2 3.6 0 0 18 3.6 0 0 25.2 3.6 0 0 32.4 3.6 0 0 32.4 -3.6 0 0 25.2 -3.6 0 0 18 -3.6 0 0 10.8 -3.6 0 0 10.8 -3.6 0 0 7.2 -3.6 0 0 10.8 -3.6 0 0 7.2 -3.6 0 0 7.2 -3.6 0 0 7.2 -3.6 0 0 10.8 -3.6 0 0 3.6 -3.6 0 0 3.6 -3.6 0 0 7.2 -3.6 0 0 7.2 -3.6 0 0 7.2 -3.6 0 0 3.6 -3.6 0 0 3.6 -3.6 0 0 7.2 -3.6 0 0 3.6 -3.6 0 0 3.6 -3.6 0 0 3.6 -3.6 0 0 3.6 -3.6 0 0 3.6 -3.6 0 0 3.6 -3.6 0 0 3.6 -3.6 0 0 3.6 -3.6 0 0 3.6 -3.6 0 0 3.6 -7.2 0 0 3.6 -3.6 0 0 3.6 -7.2 0 0 3.6 -7.2 0 0 3.6 -14.4 0 0 3.6 -39.6 0 0 -3.6 -25.2 0 0 -3.6 -14.4 0 0 -3.6 -14.4 0 0 -3.6 -75.6 0 0 3.6 -10.8 0 0 3.6 -7.2 0 0 3.6 -7.2 0 0 3.6 -7.2 0 0 3.6 -3.6 0 0 3.6 -7.2 0 0 3.6 -3.6 0 0 3.6 -7.2 0 0 3.6 -3.6 0 0 3.6 -7.2 0 0 3.6 -7.2 0 0 3.6 -3.6 0 0 3.6 -7.2 0 0 3.6 -7.2 0 0 3.6 -7.2 0 0 3.6 -7.2 0 0 3.6 -10.8 0 0 3.6 -14.4 0 0 3.6 -28.8 0 0 -3.6 -18 0 0 -3.6 -10.8 0 0 -3.6 -10.8 0 0 -3.6 -7.2 0 0 -3.6 -7.2 0 0 -3.6 -7.2 0 0 -3.6 -7.2 0 0 -3.6 -3.6 0 0 -3.6 -7.2 0 0 -3.6 -3.6 0 0 -3.6 -7.2 0 0 -3.6 -3.6 0 0 -3.6 -7.2 0 0 -3.6 -3.6 0 0 -3.6 -7.2 0 0 -3.6 -3.6 0 0 -3.6 -3.6 0 0 -3.6 -3.6 0 0 -3.6 -7.2 0 0 -3.6 -3.6 0 0 -3.6 -3.6 0 0 -3.6 -3.6 0 0 -7.2 -3.6 0 0 -3.6 -3.6 0 0 -3.6 -3.6 0 0 -3.6 -3.6 0 0 -3.6 -3.6 0 0 -3.6 -3.6 0 0 -7.2 -3.6 0 0 -3.6 -3.6 0 0 -3.6 -3.6 0 0 -7.2 -3.6 0 0 -3.6 -3.6 0 0 -7.2 -3.6 0 0 -7.2 -3.6 0 0 -3.6 -3.6 0 0 -10.8 -3.6 0 0 -7.2 -3.6 0 0 -7.2 -3.6 0 0 -7.2 -3.6 0 0 -10.8 -3.6 0 0 -10.8 -3.6 0 0 -21.6 -3.6 0 0 -93.6 3.6 0 0 -25.2 3.6 0 0 -10.8 3.6 0 0 -14.4 3.6 0 0 -14.4 3.6 0 0 -18 3.6 0 0 -10.8 3.6 0 0 -14.4 3.6 0 0 -10.8 3.6 0 0 -10.8 3.6 0 0 -14.4 3.6 0 0 -7.2 3.6 0 0 -10.8 3.6 0 0 -21.6 3.6 0 0 -18 3.6 0 0 -28.8 3.6 0 0 -205.2 -3.6 0 0 -54.01 -3.6 0 0 -50.39 -3.6 0 0 -122.41 3.6 0 0 -28.79 3.6 0 0 -32.4 3.6 0 0 -28.8 3.6 0 0 -18.01 3.6 0 0 -21.6 3.6 0 0 -21.6 3.6 0 0 -18 3.6 0 0 -17.99 3.6 0 0 -21.6 3.6 0 0 -14.41 3.6 0 0 -10.8 3.6 0 0 -17.99 3.6 0 0 -14.41 3.6 0 0 -7.19 3.6 0 0 -14.41 3.6 0 0 -10.8 3.6 0 0 -10.8 3.6 0 0 -7.2 3.6 0 0 -14.4 3.6 0 0 -7.2 3.6 0 0 -10.8 3.6 0 0 -7.2 3.6 0 0 -7.2 3.6 0 0 -7.2 3.6 0 0 -7.2 3.6 0 0 -7.2 3.6 0 0 -3.6 3.6 0 0 -7.2 3.6 0 0 -3.6 3.6 0 0 -3.6 3.6 0 0 -3.6 3.6 0 0 -3.6 3.6 0 0 -3.6 7.2 0 0 -3.6 7.2 0 0 -3.6 21.6 0 0 3.6 7.2 0 0 3.6 3.6 0 0 7.2 3.6 0 0 3.6 3.6 0 0 10.8 3.6 0 0 14.4 3.6 0 0 14.4 3.6 0 0 180 3.6 0 0 -18 3.6 0 0 -25.2 3.6 0 0 -25.19 3.6 0 0 -25.21 3.6 0 0 -32.4 3.6 0 0 -21.6 3.6 0 0 -14.4 3.6 0 0 -21.6 3.6 0 0 -14.4 3.6 0 0 -21.6 3.6 0 0 -14.4 3.6 0 0 -14.4 3.6 0 0 -7.2 3.6 0 0 -14.4 3.6 0 0 -10.8 3.6 0 0 -7.2 3.6 0 0 -14.4 3.6 0 0 -10.8 3.6 0 0 -7.2 3.6 0 0 -7.2 3.6 0 0 -10.8 3.6 0 0 -7.2 3.6 0 0 -7.2 3.6 0 0 -7.2 3.6 0 0 -7.2 3.6 0 0 -3.6 3.6 0 0 -7.2 3.6 0 0 -3.6 3.6 0 0 -3.6 3.6 0 0 -3.6 3.6 0 0 -3.6 3.6 0 0 -3.6 3.6 0 0 -3.6 7.2 0 0 -3.6 7.2 0 0 -3.6 18 0 0 3.6z"/>
  <path class="fil3 str0" d="M204.88 1453.53l2.28 -2.54 -2.28 2.54zm2.28 -2.54l1 -2.14 -1 2.14zm1 -2.14zm6.56 -9.38l-6.56 9.38zm6.56 -9.38c-0.49,-2.97 -4.18,-1.31 -1.63,0.5l0.49 -0.05c1.3,-0.36 1.79,3.54 1.14,-0.45zm2.7 -8.19l-0.3 0.64c0.02,-0.04 0.46,-0.51 0.3,-0.64zm10.83 -16.21c-1.67,-1.45 -4.41,4.27 -1.28,1.35 0.03,-0.03 3.92,0.93 1.28,-1.35zm64.07 -168.8zm8.56 -13.67l-8.56 13.67zm8.56 -13.67c-3.71,2.64 -0.93,-0.48 -3.29,3.17 -1.84,2.84 -1.6,1.63 -1.99,5.81 7.19,-5.12 4.7,-7.29 5.28,-8.98zm4.27 -6.83zm0 0zm0 0zm15.54 -28.7l-15.54 28.7zm15.54 -28.7c-4.69,1.58 -10.08,7.03 -11.53,12.6 -1.12,4.35 -0.99,0.87 -0.02,7.51 4.37,-6.28 7.85,-13.25 11.55,-20.11zm-63.6 -174c-0.73,-4.49 -2.08,0.34 -0.76,0.23 0.01,0 1.56,4.67 0.76,-0.23zm-52.21 430.46c-5.47,3.9 -17.38,25.08 -22.29,33.38 -10.61,17.92 -11.28,16.19 -22.69,33.04 -2.54,3.75 -5.29,7.88 -7.29,11.75 -2.81,5.42 -2.71,8.66 -7.18,11.85 0.37,-12.21 22.31,-48.59 28.83,-59.33l10.54 -19.47c1.97,-3.95 2.35,-5.48 4.75,-9.44l30.9 -57.54c3.28,-5.73 4.26,-3.41 4.49,-11.16 -3.08,-0.04 -3.18,-0.46 -6.71,0.21l-0.58 -3.51c5.91,-4.21 15.44,-25.04 19.17,-33.08 3.94,-8.5 6.45,-8.1 9.83,-17.07l18.12 -33.99c1.85,-3.17 2.39,-5.07 4.23,-8.38 3.98,-7.17 23.11,-37.48 23.32,-44.52 -4.41,2.9 -5.25,5.94 -8.25,8.21 -10.98,8.34 7.88,-25.08 8.87,-27.25 1.89,-4.12 2.7,-6.79 4.33,-11.3 2.93,-8.09 1,-18.24 7.34,-23.94 4.78,-4.31 7.01,-0.99 11.07,-0.76 0.28,-9.37 3.73,-8.48 8.56,-13.67 -6.47,-8.4 -6.32,-3.34 -5.96,-15.54 0.28,-9.67 -1.2,-16.45 -6.44,-21.87 -9.75,-10.09 -26.44,-28.4 -30.72,-45.39 -2.11,-8.36 -3.45,-19.57 -4.63,-23.95 -0.99,-3.69 -6.07,-13.27 -8.45,-19.09 -2.75,-6.74 -5.89,-14.23 -7.23,-22.42 -4.48,3.19 -1.37,2.28 -5.85,5.47 -1.54,-4.35 -5.8,-11.86 -8.03,-15.94 -2.82,-5.19 -6.25,-10.55 -9.28,-15.6 -6.5,-10.8 -16.3,-33.73 -21.75,-41 -5.61,-7.47 -8.06,-19.5 -11.86,-29.05 -9.78,-24.57 -22.52,-44.85 -35.86,-65.21 -6.41,-9.81 -11.94,-21.46 -18.57,-31.22 -4.22,-6.22 -6.44,-5.88 -8.69,-14.89 -1.15,-4.65 0.72,-1.82 -3.1,-7.01 -2.09,-2.84 -3.39,-3.96 -5.62,-7.06 -3.72,-5.18 -6.09,-10.97 -8.75,-16.78 -3.15,-6.86 -6.38,-8.64 -9.44,-15.26l-25.17 -50.26c-3.86,-7.48 -6.18,-8.77 -9.28,-15.61l-8.76 -16.74c-1.96,-3.94 -1.6,-4.55 -3.49,-9.11 -6.54,-15.82 -19.66,-32.09 -27.42,-47.76 -1.94,-3.92 -2.06,-6.15 -3.99,-10.39 -8.95,-19.67 -26.16,-20.48 -30.5,-22.31l-3.79 -5.05c-3.33,-12.21 -1.67,-35.74 4.4,-41.29 12.39,-11.32 24.39,-1.8 32.8,-1.7 7.91,-11.36 4.05,-16.42 16.53,-11.86l15.34 4.94c5.38,2.25 1.45,-2.45 6,6.07 4.39,8.2 6.23,6.52 10.74,14.89 3.77,7.03 3.42,11.83 8.05,18.05 4,5.39 7.52,8.2 10.81,14.9 10.11,20.61 16.12,25.47 20,32.89l19.34 36.67c4.87,12.92 12.43,24.4 18.96,35.12 3.59,5.87 6.03,13.28 9.49,19.93 3.44,6.62 6.8,10.67 8.26,17.45 1.39,6.45 6.2,11.86 9.37,18.16 18.65,37.09 34.5,78.6 56.62,110.7 8.95,13 13.58,17.73 20.66,33.85 9.59,21.84 22.99,45.78 30.71,69.16l12.43 30.21c1.66,4.51 2.26,6.05 4.2,9.93 1.41,2.83 4.21,7.53 5.24,10.23 2.83,7.39 0.79,6.62 3.04,12.27l4.88 10.87c0.18,0.39 0.37,0.82 0.54,1.21l6.5 16.87c4.36,13.57 15.58,24.76 15.48,40.24 7.99,-5.69 33.56,-74.88 38.53,-88.57 3.84,-10.6 11.56,-42.08 14.77,-48.92 2.15,-4.59 3.43,-5.22 5.83,-10 3.49,-6.93 13.5,-27.53 18.21,-30.9 -2.52,-15.41 -4.64,-30.84 9.24,-29.42 5.23,0.53 -0.37,1.16 3.87,0.65 2.69,-0.32 1.88,-0.6 4.71,-2.46 -4.62,-13.08 -6.76,-13.63 10.76,-23.12 2.35,-1.28 2.42,-1.84 5.06,-3.72 5.84,-4.15 7.61,-2.15 7.84,-9.87 -7.83,2.39 -12.29,0.31 -18.85,0.23 -0.87,-8.61 3.96,-15.73 7.41,-20.68 8.37,-6.31 -0.19,11.82 22.76,-14.91l5.77 -8.55c-3.72,-0.04 -7.14,-0.32 -10.85,-0.37 -0.62,-6.07 -0.08,-6.72 0.84,-11.31l-18.77 -2.15c-6.83,-1.69 -13.57,-6.07 -20.36,-6.15 2.94,-9.19 21.58,-8.62 33.15,-12.05 8.51,-2.53 6.96,-0.07 10.94,-0.52l21.71 -5.7c14.76,-6.47 28.41,-37.17 46.56,-48.49 6.51,-4.07 41.87,-14.22 50.81,-16.36 7.64,-1.83 13.26,1.52 17.19,8.23 5.1,8.72 1.68,16.08 -0.6,25.85 -3.61,15.46 -11.72,19.97 -21.73,39.89 -3.38,6.72 -7.05,13.4 -10.66,19.37l-42.93 81.74c-9.46,20.58 -18.77,44.21 -29.48,63.28l-10.16 19.81c-2.35,5 -3.23,5.62 -5.73,10.08 -9.25,16.46 -12.37,26.98 -27.24,51.68 -4.6,7.65 -4.13,12.14 -9.29,20.56 -5.6,9.16 -8,17.74 -13.84,25.64 -6.46,8.73 -7.4,16.79 -12.99,26.38 -10.66,18.27 -38.52,76.74 -43.96,95.91 6.75,11.7 24.59,57.87 29.55,64.55 7.27,9.82 4.2,10.56 9.54,22.18l10.1 20.97c3.48,7.89 6.55,14.86 9.66,21.93 3.41,7.74 6.1,13.86 9.67,21.9 10.03,22.61 17.68,45.58 28.88,68.42 3.85,7.85 1.92,2.26 3.49,11.82l2.36 6.24c0.14,0.23 0.44,0.62 0.57,0.84 0.13,0.22 0.39,0.64 0.51,0.86l16.46 38.99c1.06,3.01 1.06,4.09 2.24,7.06 3.13,7.95 6.31,9.91 10.09,20.99l37.65 92.19c8.57,21.14 19.29,42.25 25.98,64.78 1.42,4.82 1.66,2.46 3.59,6.71 3.82,8.43 4.84,18.14 9.08,25.63 2.46,4.36 3.03,5.38 4.56,11.61 3.34,13.63 5.52,13.42 10.08,23.39 8.05,17.64 14.86,47.39 26.07,72.03 3.54,7.77 4.95,20.07 8.28,27.27 7.88,16.99 6.53,23 17.5,47.77 5.07,11.46 4.47,9.55 8.07,25.35 2.49,10.92 7.21,11.34 9.42,24.81l-11.24 -16.39c-4.05,-6.24 -7.81,-11.38 -10.7,-19.44 -5.37,-14.99 -14.22,-26.39 -20.55,-41.2 -2.09,-4.88 -4.79,-13.85 -6.66,-18.89 -6.75,-18.22 -11.94,-25.92 -20.19,-50.52 -1.3,-3.89 -2.63,-3.48 -3.94,-8.42 -1,-3.75 0.28,-2.26 -1.66,-6.68 -2.28,-5.24 -1.6,-2.15 -4.05,-7.75l-11.32 -27.89c-2.78,-5.55 -5.51,-9.95 -8.17,-15.63 -6.27,-13.37 -11.68,-32.22 -19.5,-43.47 -4.06,-5.84 -10.7,-26.19 -19.95,-42.49 -2.39,-4.21 -5.02,-11.69 -7.45,-17.19 -1.49,-3.39 -2.28,-5.45 -3.76,-8.52l-41.55 -88.55c-2.31,-5.83 -3.46,-12.84 -6.25,-19.77 -5.28,-13.12 -10.33,-22.06 -16.34,-33.64 -2.86,-5.49 -5.25,-10.28 -8.26,-15.46l-17.41 -31.47c-4.46,-9.84 -2.48,-11.17 -0.82,-19.45 -22.95,-29.82 -14.82,-23.96 -23.92,-38.7l-21.1 -30.53c-4.08,-5.71 -20.49,-27.62 -21.5,-32.03l3.85 -1.18 -2.87 -17.54c-7.2,-0.4 -18.23,-10.71 -23.01,-16.92 -15.13,17.65 -29.56,37.8 -43.51,57.15 -10.3,14.3 -22.08,29.85 -30.33,45.99 -3.13,6.15 -5.47,11.15 -12.28,13.45l-3.76 -7.2c-0.04,-0.11 -0.12,-0.56 -0.25,-0.79 -8.83,5.82 -13.5,22.91 -18.44,33.7 -2.53,5.5 -2.72,8.56 -5.42,13.37 -8.8,15.69 -16.65,30.47 -25.94,45.28 -9.37,14.94 -18.51,28.47 -27.36,44.04l-26.72 44.6c-4.5,7.34 -8.4,13.89 -13.24,21.65 -5.43,8.7 -8.27,14.32 -12.71,23.62 -4.2,8.78 -9.39,13.09 -13.92,21.06 -3.93,6.9 -0.63,4.44 -5.78,11.56l-21.2 32.82c-4.12,5.91 -1.73,5.69 -5.33,11.94l-33.25 53.39c-1.96,1.37 -2.95,1.06 -1.99,-2.77 1.29,-5.17 3.81,-8.63 6.55,-12.25 5.08,-6.7 5.68,-10.44 9.76,-17.14l23.66 -42.73c2.19,-4.23 3.09,-5.14 5.24,-9.01l87.34 -154.67c6.01,-10.53 14.8,-23.63 18.16,-35.46z"/>
 </g>
</svg>
