<?xml version="1.0" encoding="UTF-8"?>
<!DOCTYPE svg PUBLIC "-//W3C//DTD SVG 1.1//EN" "http://www.w3.org/Graphics/SVG/1.1/DTD/svg11.dtd">
<!-- Creator: CorelDRAW (Versión de evaluación) -->
<svg xmlns="http://www.w3.org/2000/svg" xml:space="preserve" width="763px" height="2062px" version="1.1" style="shape-rendering:geometricPrecision; text-rendering:geometricPrecision; image-rendering:optimizeQuality; fill-rule:evenodd; clip-rule:evenodd"
viewBox="0 0 763 2062.24"
 xmlns:xlink="http://www.w3.org/1999/xlink"
 xmlns:xodm="http://www.corel.com/coreldraw/odm/2003">
 <defs>
  <style type="text/css">
   <![CDATA[
    .str0 {stroke:#ED3237;stroke-width:2;stroke-miterlimit:22.9256}
    .fil2 {fill:#4B4B4D}
    .fil3 {fill:#ED3237}
    .fil0 {fill:#F2E6C9}
    .fil1 {fill:#FAFAF7}
   ]]>
  </style>
 </defs>
 <g id="extraction">
  <metadata id="CorelCorpID_0Corel-Layer"/>
  <path id="root" class="fil0" d="M207.89 375.31l3.6 0 0 7.2 3.6 0 0 7.2 3.6 0 0 10.8 3.6 0 0 14.4 3.59 0 0 115.17 -3.59 0 0 183.55 3.59 0 0 32.39 3.61 0 0 17.99 3.6 0 0 28.79 3.59 0 0 14.4 3.6 0 0 18 3.6 0 0 21.59 3.6 0 0 14.39 3.6 0 0 18 3.6 0 0 10.8 3.59 0 0 10.8 3.6 0 0 14.39 3.61 0 0 14.4 3.59 0 0 14.4 3.6 0 0 10.79 3.6 0 0 10.79 3.6 0 0 10.8 3.6 0 0 14.4 3.6 0 0 10.8 3.6 0 0 14.39 3.6 0 0 10.8 3.6 0 0 10.8 3.59 0 0 10.8 3.6 0 0 10.79 3.6 0 0 10.8 3.6 0 0 7.2 3.6 0 0 10.79 3.6 0 0 7.2 3.6 0 0 10.8 3.6 0 0 7.2 3.6 0 0 7.2 3.6 0 0 7.19 3.6 0 0 7.21 3.6 0 0 3.59 3.59 0 0 7.2 3.6 0 0 3.6 3.6 0 0 3.6 3.6 0 0 3.6 7.2 0 0 3.59 7.2 0 0 3.6 28.79 0 0 -3.6 7.2 0 0 -3.59 3.6 0 0 -3.6 3.59 0 0 -3.6 3.6 0 0 -3.6 3.6 0 0 -7.2 3.6 0 0 -7.2 3.6 0 0 -3.6 3.6 0 0 -7.19 3.6 0 0 -7.2 3.6 0 0 -3.6 3.6 0 0 -10.8 3.6 0 0 -7.2 3.6 0 0 -7.2 3.59 0 0 -7.19 3.6 0 0 -7.2 3.6 0 0 -7.2 3.6 0 0 -7.2 3.6 0 0 -7.19 3.6 0 0 -7.21 3.6 0 0 -10.79 3.6 0 0 -7.2 3.6 0 0 -7.2 3.59 0 0 -7.2 3.61 0 0 -7.19 3.6 0 0 -7.2 3.59 0 0 -10.8 3.6 0 0 -7.2 3.6 0 0 -10.8 3.6 0 0 -7.19 3.6 0 0 -10.8 3.6 0 0 -10.8 3.6 0 0 -7.19 3.6 0 0 -10.8 3.6 0 0 -7.2 3.6 0 0 -10.79 3.59 0 0 -10.8 3.61 0 0 -10.8 3.59 0 0 -7.2 3.6 0 0 -14.39 3.6 0 0 -10.8 3.6 0 0 -14.4 3.6 0 0 -10.79 3.6 0 0 -10.8 3.6 0 0 -18 3.6 0 0 -14.39 3.6 0 0 -14.4 3.59 0 0 -17.99 3.6 0 0 -21.6 3.6 0 0 -21.59 3.6 0 0 -28.79 3.6 0 0 -39.6 3.6 0 0 -136.76 3.59 0 0 -10.79 3.61 0 0 -32.4 3.6 0 0 -14.39 3.59 0 0 -10.8 3.6 0 0 -7.2 3.6 0 0 -7.19 7.2 0 0 -3.6 10.8 0 0 3.6 7.19 0 0 3.59 3.6 0 0 3.6 3.61 0 0 7.2 3.59 0 0 7.2 3.6 0 0 7.2 3.6 0 0 10.79 3.6 0 0 10.8 3.6 0 0 10.8 3.6 0 0 10.8 3.6 0 0 10.79 3.6 0 0 14.4 3.6 0 0 21.59 3.59 0 0 14.4 3.6 0 0 14.4 3.61 0 0 17.99 3.59 0 0 28.8 3.6 0 0 21.59 3.6 0 0 32.39 3.6 0 0 50.39 3.6 0 0 100.77 -3.6 0 0 28.79 -3.6 0 0 21.6 -3.6 0 0 35.99 -3.6 0 0 32.39 -3.59 0 0 25.19 -3.61 0 0 21.59 -3.6 0 0 28.79 -3.59 0 0 14.4 -3.6 0 0 32.39 -3.6 0 0 18 -3.6 0 0 21.59 -3.6 0 0 35.99 -3.6 0 0 18 -3.6 0 0 53.98 -3.6 0 0 46.79 -3.6 0 0 82.78 3.6 0 0 35.99 3.6 0 0 50.39 3.6 0 0 25.19 -3.6 0 0 -3.6 -7.2 0 0 -3.6 -7.2 0 0 -3.6 -7.19 0 0 -3.6 -7.2 0 0 -3.59 -7.2 0 0 -3.6 -10.8 0 0 -3.6 -10.79 0 0 -3.6 -10.8 0 0 -3.6 -7.2 0 0 -3.6 -17.99 0 0 -3.6 -10.8 0 0 -3.6 -18 0 0 -3.6 -14.39 0 0 -3.59 -39.59 0 0 -3.6 -140.36 0 0 3.6 -18 0 0 3.59 -21.59 0 0 3.6 -21.6 0 0 3.6 -14.4 0 0 3.6 -14.39 0 0 3.6 -14.39 0 0 3.6 -14.4 0 0 3.6 -10.8 0 0 3.6 -7.2 0 0 3.6 -10.79 0 0 3.59 -10.8 0 0 3.6 -7.2 0 0 3.6 -10.8 0 0 3.6 -7.2 0 0 3.6 -7.19 0 0 3.6 -7.2 0 0 3.6 -7.2 0 0 3.6 -7.2 0 0 3.6 -7.2 0 0 3.59 -7.19 0 0 3.6 -7.2 0 0 3.61 -7.2 0 0 -14.4 3.6 0 0 -14.4 3.6 0 0 -190.75 -3.6 0 0 -39.59 -3.6 0 0 -32.39 -3.6 0 0 -35.99 -3.6 0 0 -28.79 -3.6 0 0 -28.8 -3.6 0 0 -35.98 -3.6 0 0 -25.2 -3.6 0 0 -32.39 -3.59 0 0 -61.18 -3.6 0 0 -104.37 3.6 0 0 -50.39 3.59 0 0 -35.99 3.6 0 0 -35.99 3.6 0 0 -17.99 3.6 0 0 -21.6 3.6 0 0 -21.6 3.6 0 0 -21.59 3.6 0 0 -18 3.6 0 0 -10.79 3.6 0 0 -18 3.59 0 0 -10.79 3.61 0 0 -18 3.6 0 0 -10.8 3.59 0 0 -10.79 3.6 0 0 -10.8 3.6 0 0 -10.8 3.6 0 0 -7.2 3.6 0 0 -14.39 3.6 0 0 -7.2 3.6 0 0 -10.8 3.6 0 0 -10.8 3.6 0 0 -7.19 3.59 0 0 -7.2 3.6 0 0 -7.2 3.61 0 0 -7.2 3.59 0 0 -7.19 3.6 0 0 -7.2 3.6 0 0 -3.6 3.6 0 0 -7.2 3.6 0 0 -3.6 3.6 0 0 -7.2 3.6 0 0 -3.6 7.2 0 0 -3.6 3.59 0 0 -3.6 7.2 0 0 -3.59 7.2 0 0 3.59zm241.14 -3.59l3.59 0 0 3.59 3.6 0 0 10.8 3.6 0 0 10.8 3.6 0 0 18 3.6 0 0 25.19 3.6 0 0 32.39 3.6 0 0 118.77 -3.6 0 0 190.75 3.6 0 0 32.39 3.6 0 0 35.99 3.6 0 0 35.99 3.59 0 0 21.59 3.61 0 0 21.6 3.6 0 0 14.4 -3.6 0 0 10.79 -3.61 0 0 10.79 -3.59 0 0 7.21 -3.6 0 0 7.19 -3.6 0 0 10.8 -3.6 0 0 7.2 -3.6 0 0 7.2 -3.6 0 0 7.19 -3.6 0 0 10.8 -3.6 0 0 7.2 -3.6 0 0 7.2 -3.59 0 0 7.2 -3.6 0 0 7.19 -3.6 0 0 10.8 -3.6 0 0 7.2 -3.6 0 0 7.2 -3.6 0 0 3.6 -3.6 0 0 10.79 -3.6 0 0 7.2 -3.6 0 0 7.2 -3.6 0 0 3.6 -3.6 0 0 7.2 -3.59 0 0 7.2 -3.6 0 0 3.59 -3.6 0 0 7.21 -3.6 0 0 3.59 -3.6 0 0 3.6 -3.6 0 0 3.6 -17.99 0 0 -3.6 -3.6 0 0 -3.6 -3.6 0 0 -3.59 -3.6 0 0 -7.21 -3.6 0 0 -3.59 -3.6 0 0 -7.2 -3.6 0 0 -7.2 -3.6 0 0 -10.8 -3.6 0 0 -7.2 -3.59 0 0 -10.79 -3.6 0 0 -7.2 -3.6 0 0 -10.8 -3.6 0 0 -14.39 -3.6 0 0 -7.21 -3.6 0 0 -10.79 -3.6 0 0 -10.8 -3.6 0 0 -10.8 -3.6 0 0 -10.79 -3.6 0 0 -10.8 -3.6 0 0 -10.8 -3.6 0 0 -14.39 -3.59 0 0 -14.4 -3.6 0 0 -10.8 -3.6 0 0 -7.19 3.6 0 0 -3.6 3.6 0 0 -10.8 3.59 0 0 -7.2 3.6 0 0 -17.99 3.6 0 0 -14.4 3.6 0 0 -14.4 3.6 0 0 -17.99 3.6 0 0 -28.79 3.6 0 0 -14.4 3.6 0 0 -28.79 3.6 0 0 -28.79 3.6 0 0 -39.59 3.6 0 0 -32.39 3.6 0 0 -36 3.59 0 0 -14.39 3.6 0 0 -32.39 3.6 0 0 -14.4 3.6 0 0 -21.59 3.6 0 0 -10.8 3.6 0 0 -14.4 3.6 0 0 -14.39 3.6 0 0 -14.4 3.6 0 0 -14.4 3.59 0 0 -10.79 3.61 0 0 -14.4 3.59 0 0 -10.79 3.6 0 0 -7.2 3.6 0 0 -10.8 3.6 0 0 -10.8 3.6 0 0 -7.19 3.6 0 0 -7.2 3.6 0 0 -7.2 3.6 0 0 -7.2 3.59 0 0 -7.2 3.6 0 0 -3.6 3.6 0 0 -3.6 3.6 0 0 -3.59 3.6 0 0 -3.6 3.6 0 0 -3.6 18 0 0 7.2z"/>
  <polygon id="crown" class="fil1" points="467.02,1408.24 492.22,1408.24 492.22,1411.84 528.2,1411.84 528.2,1415.44 542.6,1415.44 542.6,1419.04 553.4,1419.04 553.4,1422.64 567.8,1422.64 567.8,1426.24 578.59,1426.24 578.59,1429.83 589.39,1429.83 589.39,1433.43 600.19,1433.43 600.19,1437.03 610.98,1437.03 610.98,1440.63 618.18,1440.63 618.18,1444.23 625.38,1444.23 625.38,1447.83 632.58,1447.83 632.58,1451.43 639.78,1451.43 639.78,1455.03 646.97,1455.03 646.97,1458.63 654.17,1458.63 654.17,1462.22 657.77,1462.22 657.77,1465.82 661.37,1465.82 661.37,1473.02 664.97,1473.02 664.97,1480.22 668.57,1480.22 668.57,1487.42 672.17,1487.42 672.17,1498.22 675.77,1498.22 675.77,1505.41 679.36,1505.41 679.36,1516.21 682.96,1516.21 682.96,1527.01 686.56,1527.01 686.56,1537.8 690.16,1537.8 690.16,1548.6 693.76,1548.6 693.76,1559.4 697.36,1559.4 697.36,1566.6 700.96,1566.6 700.96,1584.59 704.56,1584.59 704.56,1591.79 708.16,1591.79 708.16,1606.19 711.75,1606.19 711.75,1616.98 715.36,1616.98 715.36,1634.98 718.96,1634.98 718.96,1649.38 722.55,1649.38 722.55,1670.97 726.15,1670.97 726.15,1692.56 729.75,1692.56 729.75,1714.16 733.35,1714.16 733.35,1739.35 736.95,1739.35 736.95,1814.93 733.35,1814.93 733.35,1829.33 729.75,1829.33 729.75,1850.92 726.15,1850.92 726.15,1858.12 722.55,1858.12 722.55,1868.92 718.96,1868.92 718.96,1872.52 715.36,1872.52 715.36,1879.71 711.75,1879.71 711.75,1886.91 708.16,1886.91 708.16,1894.11 704.56,1894.11 704.56,1897.71 700.96,1897.71 700.96,1901.31 697.36,1901.31 697.36,1904.91 693.76,1904.91 693.76,1908.51 690.16,1908.51 690.16,1912.1 686.56,1912.1 686.56,1915.7 682.96,1915.7 682.96,1919.3 679.36,1919.3 679.36,1922.9 675.77,1922.9 675.77,1926.5 672.17,1926.5 672.17,1930.1 668.57,1930.1 668.57,1933.7 661.37,1933.7 661.37,1937.3 657.77,1937.3 657.77,1940.9 654.17,1940.9 654.17,1944.49 650.57,1944.49 650.57,1948.09 643.38,1948.09 643.38,1951.7 639.78,1951.7 639.78,1955.29 636.18,1955.29 636.18,1958.89 628.98,1958.89 628.98,1962.49 625.38,1962.49 625.38,1966.09 621.78,1966.09 621.78,1969.69 618.18,1969.69 618.18,1973.29 610.98,1973.29 610.98,1976.89 607.38,1976.89 607.38,1980.49 600.19,1980.49 600.19,1984.09 592.99,1984.09 592.99,1987.68 589.39,1987.68 589.39,1991.28 578.59,1991.28 578.59,1994.88 564.2,1994.88 564.2,1998.48 531.8,1998.48 531.8,1994.88 521.01,1994.88 521.01,1991.28 506.61,1991.28 506.61,1987.68 499.41,1987.68 499.41,1984.09 492.22,1984.09 492.22,1980.49 485.01,1980.49 485.01,1976.89 481.42,1976.89 481.42,1973.29 470.62,1973.29 470.62,1969.69 463.42,1969.69 463.42,1966.09 459.82,1966.09 459.82,1962.49 452.62,1962.49 452.62,1958.89 445.43,1958.89 445.43,1955.29 434.63,1955.29 434.63,1951.7 427.43,1951.7 427.43,1948.09 420.23,1948.09 420.23,1944.49 409.44,1944.49 409.44,1940.9 395.04,1940.9 395.04,1937.3 355.45,1937.3 355.45,1940.9 348.25,1940.9 348.25,1944.49 337.46,1944.49 337.46,1948.09 330.26,1948.09 330.26,1951.7 323.06,1951.7 323.06,1955.29 315.86,1955.29 315.86,1958.89 308.67,1958.89 308.67,1962.49 301.46,1962.49 301.46,1966.09 294.27,1966.09 294.27,1969.69 287.07,1969.69 287.07,1973.29 279.87,1973.29 279.87,1976.89 272.67,1976.89 272.67,1980.49 265.48,1980.49 265.48,1984.09 258.27,1984.09 258.27,1987.68 247.48,1987.68 247.48,1991.28 236.68,1991.28 236.68,1994.88 186.3,1994.88 186.3,1991.28 179.1,1991.28 179.1,1987.68 171.9,1987.68 171.9,1984.09 164.7,1984.09 164.7,1980.49 157.5,1980.49 157.5,1976.89 153.91,1976.89 153.91,1973.29 150.3,1973.29 150.3,1969.69 143.11,1969.69 143.11,1966.09 139.51,1966.09 139.51,1962.49 135.91,1962.49 135.91,1958.89 128.71,1958.89 128.71,1955.29 125.11,1955.29 125.11,1951.7 121.51,1951.7 121.51,1948.09 117.91,1948.09 117.91,1944.49 114.32,1944.49 114.32,1940.9 110.72,1940.9 110.72,1937.3 107.12,1937.3 107.12,1933.7 103.52,1933.7 103.52,1930.1 99.92,1930.1 99.92,1926.5 96.32,1926.5 96.32,1922.9 92.72,1922.9 92.72,1919.3 89.12,1919.3 89.12,1915.7 85.52,1915.7 85.52,1912.1 81.93,1912.1 81.93,1908.51 78.32,1908.51 78.32,1904.91 74.72,1904.91 74.72,1901.31 71.13,1901.31 71.13,1897.71 78.32,1897.71 78.32,1901.31 81.93,1901.31 81.93,1904.91 89.12,1904.91 89.12,1908.51 92.72,1908.51 92.72,1912.1 99.92,1912.1 99.92,1915.7 103.52,1915.7 103.52,1919.3 107.12,1919.3 107.12,1922.9 110.72,1922.9 110.72,1926.5 117.91,1926.5 117.91,1930.1 121.51,1930.1 121.51,1933.7 128.71,1933.7 128.71,1937.3 135.91,1937.3 135.91,1940.9 143.11,1940.9 143.11,1944.49 150.3,1944.49 150.3,1948.09 161.1,1948.09 161.1,1951.7 171.9,1951.7 171.9,1955.29 182.7,1955.29 182.7,1958.89 218.69,1958.89 218.69,1955.29 233.08,1955.29 233.08,1951.7 247.48,1951.7 247.48,1948.09 258.27,1948.09 258.27,1944.49 265.48,1944.49 265.48,1940.9 272.67,1940.9 272.67,1937.3 279.87,1937.3 279.87,1933.7 287.07,1933.7 287.07,1930.1 294.27,1930.1 294.27,1926.5 301.46,1926.5 301.46,1922.9 308.67,1922.9 308.67,1919.3 312.26,1919.3 312.26,1915.7 319.46,1915.7 319.46,1912.1 326.66,1912.1 326.66,1908.51 330.26,1908.51 330.26,1904.91 333.86,1904.91 333.86,1901.31 341.06,1901.31 341.06,1897.71 344.65,1897.71 344.65,1894.11 351.85,1894.11 351.85,1890.51 355.45,1890.51 355.45,1886.91 362.65,1886.91 362.65,1883.31 366.25,1883.31 366.25,1879.71 373.45,1879.71 373.45,1876.12 377.04,1876.12 377.04,1872.52 380.64,1872.52 380.64,1868.92 402.24,1868.92 402.24,1872.52 409.44,1872.52 409.44,1876.12 416.64,1876.12 416.64,1879.71 420.23,1879.71 420.23,1890.51 416.64,1890.51 416.64,1894.11 413.04,1894.11 413.04,1901.31 409.44,1901.31 409.44,1904.91 405.84,1904.91 405.84,1908.51 402.24,1908.51 402.24,1912.1 398.64,1912.1 398.64,1915.7 395.04,1915.7 395.04,1922.9 402.24,1922.9 402.24,1919.3 405.84,1919.3 405.84,1915.7 409.44,1915.7 409.44,1912.1 413.04,1912.1 413.04,1908.51 420.23,1908.51 420.23,1904.91 423.83,1904.91 423.83,1901.31 427.43,1901.31 427.43,1894.11 431.03,1894.11 431.03,1890.51 438.23,1890.51 438.23,1894.11 445.43,1894.11 445.43,1897.71 449.03,1897.71 449.03,1901.31 456.22,1901.31 456.22,1904.91 463.42,1904.91 463.42,1908.51 467.02,1908.51 467.02,1912.1 474.22,1912.1 474.22,1915.7 481.42,1915.7 481.42,1919.3 485.01,1919.3 485.01,1922.9 492.22,1922.9 492.22,1926.5 499.41,1926.5 499.41,1930.1 506.61,1930.1 506.61,1933.7 517.41,1933.7 517.41,1937.3 524.61,1937.3 524.61,1940.9 535.41,1940.9 535.41,1944.49 546.2,1944.49 546.2,1948.09 585.79,1948.09 585.79,1944.49 596.59,1944.49 596.59,1940.9 607.38,1940.9 607.38,1937.3 614.58,1937.3 614.58,1933.7 621.78,1933.7 621.78,1930.1 628.98,1930.1 628.98,1926.5 632.58,1926.5 632.58,1922.9 639.78,1922.9 639.78,1919.3 643.38,1919.3 643.38,1915.7 646.97,1915.7 646.97,1908.51 650.57,1908.51 650.57,1904.91 654.17,1904.91 654.17,1897.71 657.77,1897.71 657.77,1894.11 661.37,1894.11 661.37,1886.91 664.97,1886.91 664.97,1879.71 668.57,1879.71 668.57,1865.32 672.17,1865.32 672.17,1850.92 675.77,1850.92 675.77,1840.12 679.36,1840.12 679.36,1825.73 682.96,1825.73 682.96,1800.54 675.77,1800.54 675.77,1807.73 672.17,1807.73 672.17,1818.53 668.57,1818.53 668.57,1836.53 664.97,1836.53 664.97,1854.52 661.37,1854.52 661.37,1865.32 657.77,1865.32 657.77,1872.52 654.17,1872.52 654.17,1879.71 650.57,1879.71 650.57,1886.91 646.97,1886.91 646.97,1894.11 643.38,1894.11 643.38,1897.71 639.78,1897.71 639.78,1901.31 636.18,1901.31 636.18,1904.91 632.58,1904.91 632.58,1908.51 628.98,1908.51 628.98,1912.1 625.38,1912.1 625.38,1915.7 618.18,1915.7 618.18,1919.3 614.58,1919.3 614.58,1922.9 603.78,1922.9 603.78,1926.5 596.59,1926.5 596.59,1930.1 585.79,1930.1 585.79,1933.7 549.8,1933.7 549.8,1930.1 539,1930.1 539,1926.5 531.8,1926.5 531.8,1922.9 524.61,1922.9 524.61,1919.3 513.81,1919.3 513.81,1915.7 506.61,1915.7 506.61,1912.1 499.41,1912.1 499.41,1908.51 492.22,1908.51 492.22,1904.91 488.62,1904.91 488.62,1901.31 481.42,1901.31 481.42,1897.71 474.22,1897.71 474.22,1894.11 467.02,1894.11 467.02,1890.51 463.42,1890.51 463.42,1886.91 456.22,1886.91 456.22,1883.31 449.03,1883.31 449.03,1879.71 445.43,1879.71 445.43,1876.12 438.23,1876.12 438.23,1872.52 434.63,1872.52 434.63,1868.92 427.43,1868.92 427.43,1865.32 420.23,1865.32 420.23,1861.72 416.64,1861.72 416.64,1858.12 409.44,1858.12 409.44,1854.52 402.24,1854.52 402.24,1850.92 398.64,1850.92 398.64,1847.32 402.24,1847.32 402.24,1840.12 405.84,1840.12 405.84,1832.93 409.44,1832.93 409.44,1822.13 413.04,1822.13 413.04,1814.93 416.64,1814.93 416.64,1753.75 413.04,1753.75 413.04,1732.15 405.84,1732.15 405.84,1800.54 402.24,1800.54 402.24,1814.93 398.64,1814.93 398.64,1822.13 395.04,1822.13 395.04,1832.93 391.44,1832.93 391.44,1836.53 387.84,1836.53 387.84,1843.72 384.24,1843.72 384.24,1847.32 380.64,1847.32 380.64,1850.92 377.04,1850.92 377.04,1854.52 373.45,1854.52 373.45,1858.12 366.25,1858.12 366.25,1861.72 362.65,1861.72 362.65,1865.32 359.05,1865.32 359.05,1868.92 355.45,1868.92 355.45,1872.52 348.25,1872.52 348.25,1876.12 344.65,1876.12 344.65,1879.71 341.06,1879.71 341.06,1883.31 333.86,1883.31 333.86,1886.91 330.26,1886.91 330.26,1890.51 323.06,1890.51 323.06,1894.11 319.46,1894.11 319.46,1897.71 312.26,1897.71 312.26,1901.31 305.06,1901.31 305.06,1904.91 301.46,1904.91 301.46,1908.51 294.27,1908.51 294.27,1912.1 287.07,1912.1 287.07,1915.7 279.87,1915.7 279.87,1919.3 272.67,1919.3 272.67,1922.9 265.48,1922.9 265.48,1926.5 258.27,1926.5 258.27,1930.1 247.48,1930.1 247.48,1933.7 240.28,1933.7 240.28,1937.3 233.08,1937.3 233.08,1940.9 218.69,1940.9 218.69,1944.49 179.1,1944.49 179.1,1940.9 168.3,1940.9 168.3,1937.3 161.1,1937.3 161.1,1933.7 153.91,1933.7 153.91,1930.1 146.71,1930.1 146.71,1926.5 139.51,1926.5 139.51,1922.9 132.31,1922.9 132.31,1919.3 128.71,1919.3 128.71,1915.7 121.51,1915.7 121.51,1912.1 117.91,1912.1 117.91,1908.51 110.72,1908.51 110.72,1904.91 107.12,1904.91 107.12,1901.31 103.52,1901.31 103.52,1897.71 99.92,1897.71 99.92,1894.11 92.72,1894.11 92.72,1890.51 89.12,1890.51 89.12,1886.91 81.93,1886.91 81.93,1883.31 67.53,1883.31 67.53,1886.91 60.33,1886.91 60.33,1883.31 56.73,1883.31 56.73,1879.71 53.13,1879.71 53.13,1872.52 49.53,1872.52 49.53,1865.32 45.93,1865.32 45.93,1861.72 42.33,1861.72 42.33,1854.52 38.74,1854.52 38.74,1847.32 35.14,1847.32 35.14,1836.53 31.53,1836.53 31.53,1829.33 27.94,1829.33 27.94,1811.33 24.34,1811.33 24.34,1796.93 20.74,1796.93 20.74,1753.75 24.34,1753.75 24.34,1724.96 27.94,1724.96 27.94,1706.96 31.53,1706.96 31.53,1692.56 35.14,1692.56 35.14,1674.57 38.74,1674.57 38.74,1663.77 42.33,1663.77 42.33,1649.38 45.93,1649.38 45.93,1631.38 49.53,1631.38 49.53,1624.18 53.13,1624.18 53.13,1609.79 56.73,1609.79 56.73,1595.39 60.33,1595.39 60.33,1584.59 63.93,1584.59 63.93,1573.8 67.53,1573.8 67.53,1563 71.13,1563 71.13,1552.2 74.72,1552.2 74.72,1541.4 78.32,1541.4 78.32,1534.21 81.93,1534.21 81.93,1523.41 85.52,1523.41 85.52,1512.61 89.12,1512.61 89.12,1498.22 92.72,1498.22 92.72,1487.42 96.32,1487.42 96.32,1483.82 103.52,1483.82 103.52,1480.22 107.12,1480.22 107.12,1476.62 114.32,1476.62 114.32,1473.02 121.51,1473.02 121.51,1469.42 128.71,1469.42 128.71,1465.82 135.91,1465.82 135.91,1462.22 143.11,1462.22 143.11,1458.63 153.91,1458.63 153.91,1455.03 161.1,1455.03 161.1,1451.43 168.3,1451.43 168.3,1447.83 175.5,1447.83 175.5,1444.23 189.9,1444.23 189.9,1440.63 200.69,1440.63 200.69,1437.03 211.49,1437.03 211.49,1433.43 225.88,1433.43 225.88,1429.83 236.68,1429.83 236.68,1426.24 251.08,1426.24 251.08,1422.64 261.88,1422.64 261.88,1419.04 283.47,1419.04 283.47,1415.44 301.46,1415.44 301.46,1411.84 326.66,1411.84 326.66,1408.24 351.85,1408.24 351.85,1404.64 467.02,1404.64 "/>
  <path id="outline" class="fil2" d="M413.04 1753.75l3.6 0 0 61.18 -3.6 0 0 7.2 -3.6 0 0 10.8 -3.6 0 0 7.19 -3.6 0 0 7.2 -3.6 0 0 3.6 3.6 0 0 3.6 7.2 0 0 3.6 7.2 0 0 3.6 3.59 0 0 3.6 7.2 0 0 3.6 7.2 0 0 3.6 3.6 0 0 3.6 7.2 0 0 3.59 3.6 0 0 3.6 7.19 0 0 3.6 7.2 0 0 3.6 3.6 0 0 3.6 7.2 0 0 3.6 7.2 0 0 3.6 7.2 0 0 3.6 3.6 0 0 3.6 7.19 0 0 3.59 7.2 0 0 3.6 7.2 0 0 3.6 10.8 0 0 3.6 7.19 0 0 3.6 7.2 0 0 3.6 10.8 0 0 3.6 35.99 0 0 -3.6 10.8 0 0 -3.6 7.19 0 0 -3.6 10.8 0 0 -3.6 3.6 0 0 -3.6 7.2 0 0 -3.6 3.6 0 0 -3.59 3.6 0 0 -3.6 3.6 0 0 -3.6 3.6 0 0 -3.6 3.6 0 0 -3.6 3.59 0 0 -7.2 3.6 0 0 -7.2 3.6 0 0 -7.19 3.6 0 0 -7.2 3.6 0 0 -10.8 3.6 0 0 -17.99 3.6 0 0 -18 3.6 0 0 -10.8 3.6 0 0 -7.19 7.19 0 0 25.19 -3.6 0 0 14.39 -3.59 0 0 10.8 -3.6 0 0 14.4 -3.6 0 0 14.39 -3.6 0 0 7.2 -3.6 0 0 7.2 -3.6 0 0 3.6 -3.6 0 0 7.2 -3.6 0 0 3.6 -3.6 0 0 7.19 -3.59 0 0 3.6 -3.6 0 0 3.6 -7.2 0 0 3.6 -3.6 0 0 3.6 -7.2 0 0 3.6 -7.2 0 0 3.6 -7.2 0 0 3.6 -10.79 0 0 3.59 -10.8 0 0 3.6 -39.59 0 0 -3.6 -10.79 0 0 -3.59 -10.8 0 0 -3.6 -7.2 0 0 -3.6 -10.8 0 0 -3.6 -7.2 0 0 -3.6 -7.19 0 0 -3.6 -7.21 0 0 -3.6 -3.59 0 0 -3.6 -7.2 0 0 -3.6 -7.2 0 0 -3.59 -3.6 0 0 -3.6 -7.2 0 0 -3.6 -7.19 0 0 -3.6 -3.6 0 0 -3.6 -7.2 0 0 -3.6 -7.2 0 0 3.6 -3.6 0 0 7.2 -3.6 0 0 3.6 -3.6 0 0 3.6 -7.19 0 0 3.59 -3.6 0 0 3.6 -3.6 0 0 3.6 -3.6 0 0 3.6 -7.2 0 0 -7.2 3.6 0 0 -3.6 3.6 0 0 -3.59 3.6 0 0 -3.6 3.6 0 0 -3.6 3.6 0 0 -7.2 3.6 0 0 -3.6 3.59 0 0 -10.8 -3.59 0 0 -3.59 -7.2 0 0 -3.6 -7.2 0 0 -3.6 -21.6 0 0 3.6 -3.6 0 0 3.6 -3.59 0 0 3.59 -7.2 0 0 3.6 -3.6 0 0 3.6 -7.2 0 0 3.6 -3.6 0 0 3.6 -7.2 0 0 3.6 -3.59 0 0 3.6 -7.2 0 0 3.6 -3.6 0 0 3.6 -3.6 0 0 3.59 -7.2 0 0 3.6 -7.2 0 0 3.6 -3.59 0 0 3.6 -7.21 0 0 3.6 -7.19 0 0 3.6 -7.2 0 0 3.6 -7.2 0 0 3.6 -7.2 0 0 3.6 -7.19 0 0 3.59 -7.21 0 0 3.6 -10.79 0 0 3.61 -14.4 0 0 3.59 -14.39 0 0 3.6 -35.99 0 0 -3.6 -10.8 0 0 -3.59 -10.8 0 0 -3.61 -10.8 0 0 -3.6 -7.19 0 0 -3.59 -7.2 0 0 -3.6 -7.2 0 0 -3.6 -7.2 0 0 -3.6 -3.6 0 0 -3.6 -7.19 0 0 -3.6 -3.6 0 0 -3.6 -3.6 0 0 -3.6 -3.6 0 0 -3.6 -7.2 0 0 -3.59 -3.6 0 0 -3.6 -7.19 0 0 -3.6 -3.61 0 0 -3.6 -7.19 0 0 3.6 3.59 0 0 3.6 3.6 0 0 3.6 3.61 0 0 3.59 3.59 0 0 3.6 3.6 0 0 3.6 3.6 0 0 3.6 3.6 0 0 3.6 3.6 0 0 3.6 3.6 0 0 3.6 3.6 0 0 3.6 3.6 0 0 3.6 3.6 0 0 3.59 3.59 0 0 3.6 3.6 0 0 3.61 3.6 0 0 3.59 3.6 0 0 3.6 7.2 0 0 3.6 3.6 0 0 3.6 3.6 0 0 3.6 7.19 0 0 3.6 3.61 0 0 3.6 3.59 0 0 3.6 7.2 0 0 3.6 7.2 0 0 3.59 7.2 0 0 3.6 7.2 0 0 3.6 50.38 0 0 -3.6 10.8 0 0 -3.6 10.79 0 0 -3.59 7.21 0 0 -3.6 7.19 0 0 -3.6 7.2 0 0 -3.6 7.2 0 0 -3.6 7.2 0 0 -3.6 7.19 0 0 -3.6 7.21 0 0 -3.6 7.19 0 0 -3.6 7.2 0 0 -3.59 7.2 0 0 -3.61 7.2 0 0 -3.6 10.79 0 0 -3.59 7.2 0 0 -3.6 39.59 0 0 3.6 14.4 0 0 3.59 10.79 0 0 3.6 7.2 0 0 3.61 7.2 0 0 3.59 10.8 0 0 3.6 7.19 0 0 3.6 7.2 0 0 3.6 3.6 0 0 3.6 7.2 0 0 3.6 10.8 0 0 3.6 3.59 0 0 3.6 7.21 0 0 3.6 7.19 0 0 3.59 7.2 0 0 3.6 14.4 0 0 3.6 10.79 0 0 3.6 32.4 0 0 -3.6 14.39 0 0 -3.6 10.8 0 0 -3.6 3.6 0 0 -3.59 7.2 0 0 -3.6 7.19 0 0 -3.6 3.6 0 0 -3.6 7.2 0 0 -3.6 3.6 0 0 -3.6 3.6 0 0 -3.6 3.6 0 0 -3.6 7.2 0 0 -3.6 3.6 0 0 -3.59 3.6 0 0 -3.61 7.19 0 0 -3.6 3.6 0 0 -3.59 3.6 0 0 -3.6 3.6 0 0 -3.6 7.2 0 0 -3.6 3.6 0 0 -3.6 3.6 0 0 -3.6 3.59 0 0 -3.6 3.6 0 0 -3.6 3.6 0 0 -3.6 3.6 0 0 -3.59 3.6 0 0 -3.6 3.6 0 0 -3.6 3.6 0 0 -3.6 3.6 0 0 -3.6 3.6 0 0 -7.2 3.59 0 0 -7.2 3.61 0 0 -7.19 3.6 0 0 -3.6 3.59 0 0 -10.8 3.6 0 0 -7.2 3.6 0 0 -21.59 3.6 0 0 -14.4 3.6 0 0 -75.58 -3.6 0 0 -25.19 -3.6 0 0 -21.6 -3.6 0 0 -21.59 -3.6 0 0 -21.59 -3.59 0 0 -14.4 -3.6 0 0 -18 -3.61 0 0 -10.79 -3.59 0 0 -14.4 -3.6 0 0 -7.2 -3.6 0 0 -17.99 -3.6 0 0 -7.2 -3.6 0 0 -10.8 -3.6 0 0 -10.8 -3.6 0 0 -10.79 -3.6 0 0 -10.8 -3.6 0 0 -10.8 -3.59 0 0 -7.19 -3.6 0 0 -10.8 -3.6 0 0 -7.2 -3.6 0 0 -7.2 -3.6 0 0 -7.2 -3.6 0 0 -3.6 -3.6 0 0 -3.59 -7.2 0 0 -3.6 -7.19 0 0 -3.6 -7.2 0 0 -3.6 -7.2 0 0 -3.6 -7.2 0 0 -3.6 -7.2 0 0 -3.6 -10.79 0 0 -3.6 -10.8 0 0 -3.6 -10.8 0 0 -3.59 -10.79 0 0 -3.6 -14.4 0 0 -3.6 -10.8 0 0 -3.6 -14.4 0 0 -3.6 -35.98 0 0 -3.6 -25.2 0 0 -3.6 -115.17 0 0 3.6 -25.19 0 0 3.6 -25.2 0 0 3.6 -17.99 0 0 3.6 -21.59 0 0 3.6 -10.8 0 0 3.6 -14.4 0 0 3.59 -10.8 0 0 3.6 -14.39 0 0 3.6 -10.8 0 0 3.6 -10.79 0 0 3.6 -14.4 0 0 3.6 -7.2 0 0 3.6 -7.2 0 0 3.6 -7.19 0 0 3.6 -10.8 0 0 3.59 -7.2 0 0 3.6 -7.2 0 0 3.6 -7.2 0 0 3.6 -7.19 0 0 3.6 -7.2 0 0 3.6 -3.6 0 0 3.6 -7.2 0 0 3.6 -3.6 0 0 10.8 -3.6 0 0 14.39 -3.6 0 0 10.8 -3.59 0 0 10.8 -3.61 0 0 7.19 -3.6 0 0 10.8 -3.59 0 0 10.8 -3.6 0 0 10.8 -3.6 0 0 10.79 -3.6 0 0 10.8 -3.6 0 0 14.4 -3.6 0 0 14.39 -3.6 0 0 7.2 -3.6 0 0 18 -3.6 0 0 14.39 -3.59 0 0 10.8 -3.6 0 0 17.99 -3.61 0 0 14.4 -3.59 0 0 18 -3.6 0 0 28.79 -3.6 0 0 43.18 3.6 0 0 14.4 3.6 0 0 18 3.59 0 0 7.2 3.61 0 0 10.79 3.6 0 0 7.2 3.59 0 0 7.2 3.6 0 0 3.6 3.6 0 0 7.2 3.6 0 0 7.19 3.6 0 0 3.6 3.6 0 0 3.6 7.2 0 0 -3.6 14.4 0 0 3.6 7.19 0 0 3.6 3.6 0 0 3.6 7.2 0 0 3.6 3.6 0 0 3.6 3.6 0 0 3.6 3.6 0 0 3.6 7.19 0 0 3.59 3.6 0 0 3.6 7.2 0 0 3.6 3.6 0 0 3.6 7.2 0 0 3.6 7.2 0 0 3.6 7.2 0 0 3.6 7.19 0 0 3.6 7.2 0 0 3.6 10.8 0 0 3.59 39.59 0 0 -3.59 14.39 0 0 -3.6 7.2 0 0 -3.6 7.2 0 0 -3.6 10.79 0 0 -3.6 7.21 0 0 -3.6 7.19 0 0 -3.6 7.2 0 0 -3.6 7.2 0 0 -3.6 7.2 0 0 -3.59 7.19 0 0 -3.6 3.6 0 0 -3.6 7.2 0 0 -3.6 7.2 0 0 -3.6 3.6 0 0 -3.6 7.2 0 0 -3.6 3.6 0 0 -3.6 7.2 0 0 -3.6 3.59 0 0 -3.59 3.6 0 0 -3.6 7.2 0 0 -3.6 3.6 0 0 -3.6 3.6 0 0 -3.6 3.6 0 0 -3.6 7.2 0 0 -3.6 3.59 0 0 -3.6 3.6 0 0 -3.6 3.6 0 0 -3.6 3.6 0 0 -7.19 3.6 0 0 -3.6 3.6 0 0 -10.8 3.6 0 0 -7.2 3.6 0 0 -14.39 3.6 0 0 -68.39 7.2 0 0 21.6zm61.18 -1281.26l-3.6 0 0 -32.39 -3.6 0 0 -25.19 -3.6 0 0 -18 -3.6 0 0 -10.8 -3.6 0 0 -10.8 -3.6 0 0 -3.59 -3.59 0 0 -7.2 -18 0 0 3.6 -3.6 0 0 3.6 -3.6 0 0 3.59 -3.6 0 0 3.6 -3.59 0 0 3.6 -3.6 0 0 7.2 -3.6 0 0 7.2 -3.6 0 0 7.2 -3.6 0 0 7.2 -3.6 0 0 7.19 -3.6 0 0 10.8 -3.6 0 0 10.8 -3.6 0 0 7.2 -3.6 0 0 10.79 -3.6 0 0 14.4 -3.6 0 0 10.79 -3.59 0 0 14.4 -3.6 0 0 14.4 -3.6 0 0 14.39 -3.6 0 0 14.4 -3.6 0 0 10.8 -3.6 0 0 21.59 -3.6 0 0 14.4 -3.6 0 0 32.39 -3.6 0 0 14.39 -3.59 0 0 36 -3.6 0 0 32.39 -3.6 0 0 39.59 -3.6 0 0 28.79 -3.6 0 0 28.79 -3.6 0 0 14.4 -3.6 0 0 28.79 -3.6 0 0 17.99 -3.6 0 0 14.4 -3.59 0 0 14.4 -3.61 0 0 17.99 -3.6 0 0 7.2 -3.59 0 0 10.8 -3.6 0 0 3.6 -3.6 0 0 7.19 3.6 0 0 10.8 3.6 0 0 14.4 3.59 0 0 14.39 3.6 0 0 10.8 3.61 0 0 10.8 3.59 0 0 10.79 3.6 0 0 10.8 3.6 0 0 10.8 3.6 0 0 10.8 3.6 0 0 7.2 3.6 0 0 14.39 3.6 0 0 10.8 3.6 0 0 7.2 3.6 0 0 10.79 3.59 0 0 7.2 3.6 0 0 10.8 3.6 0 0 7.2 3.6 0 0 7.2 3.6 0 0 3.59 3.6 0 0 7.2 3.6 0 0 3.6 3.6 0 0 3.6 3.6 0 0 3.6 17.99 0 0 -3.6 3.6 0 0 -3.6 3.6 0 0 -3.6 3.6 0 0 -7.2 3.6 0 0 -3.59 3.6 0 0 -7.2 3.6 0 0 -7.2 3.6 0 0 -3.6 3.59 0 0 -7.2 3.6 0 0 -7.2 3.6 0 0 -10.79 3.6 0 0 -3.6 3.6 0 0 -7.2 3.6 0 0 -7.2 3.6 0 0 -10.8 3.6 0 0 -7.19 3.6 0 0 -7.2 3.59 0 0 -7.2 3.6 0 0 -7.2 3.6 0 0 -10.79 3.6 0 0 -7.2 3.6 0 0 -7.2 3.6 0 0 -7.2 3.6 0 0 -10.8 3.6 0 0 -7.19 3.6 0 0 -7.2 3.59 0 0 -10.8 3.61 0 0 -10.79 3.6 0 0 -14.4 -3.6 0 0 -21.6 -3.61 0 0 -21.59 -3.59 0 0 -35.99 -3.6 0 0 -35.99 -3.6 0 0 -32.39 -3.6 0 0 -190.75 3.6 0 0 -118.77zm-248.34 -57.58l-3.59 0 0 -14.4 -3.6 0 0 -10.8 -3.6 0 0 -7.2 -3.6 0 0 -7.2 -3.6 0 0 -3.59 -7.2 0 0 3.59 -7.2 0 0 3.6 -3.59 0 0 3.6 -7.2 0 0 3.6 -3.6 0 0 7.2 -3.6 0 0 3.6 -3.6 0 0 7.2 -3.6 0 0 3.59 -3.6 0 0 7.21 -3.6 0 0 7.19 -3.6 0 0 7.2 -3.59 0 0 7.2 -3.61 0 0 7.2 -3.59 0 0 7.19 -3.6 0 0 10.8 -3.6 0 0 10.8 -3.6 0 0 7.2 -3.6 0 0 14.39 -3.6 0 0 7.2 -3.6 0 0 10.8 -3.6 0 0 10.8 -3.6 0 0 10.79 -3.59 0 0 10.8 -3.6 0 0 18 -3.6 0 0 10.79 -3.6 0 0 18 -3.6 0 0 10.79 -3.6 0 0 18 -3.6 0 0 21.6 -3.6 0 0 21.59 -3.6 0 0 21.59 -3.59 0 0 18 -3.61 0 0 35.99 -3.6 0 0 35.99 -3.59 0 0 50.39 -3.6 0 0 104.37 3.6 0 0 61.18 3.59 0 0 32.39 3.6 0 0 25.2 3.61 0 0 35.98 3.59 0 0 28.8 3.6 0 0 28.79 3.6 0 0 35.99 3.6 0 0 32.39 3.6 0 0 39.59 3.6 0 0 190.75 -3.6 0 0 14.4 -3.6 0 0 14.39 7.2 0 0 -3.6 7.2 0 0 -3.6 7.19 0 0 -3.59 7.2 0 0 -3.6 7.2 0 0 -3.6 7.2 0 0 -3.6 7.2 0 0 -3.6 7.2 0 0 -3.6 7.19 0 0 -3.6 10.8 0 0 -3.6 7.2 0 0 -3.6 10.8 0 0 -3.59 10.79 0 0 -3.6 7.2 0 0 -3.6 10.8 0 0 -3.6 14.39 0 0 -3.6 14.4 0 0 -3.6 14.4 0 0 -3.6 14.39 0 0 -3.6 21.6 0 0 -3.6 21.59 0 0 -3.59 18 0 0 -3.61 140.36 0 0 3.61 39.59 0 0 3.59 14.39 0 0 3.6 18 0 0 3.6 10.8 0 0 3.6 17.99 0 0 3.6 7.2 0 0 3.6 10.8 0 0 3.6 10.79 0 0 3.6 10.8 0 0 3.6 7.2 0 0 3.59 7.2 0 0 3.6 7.2 0 0 3.6 7.19 0 0 3.6 7.2 0 0 3.6 3.6 0 0 -25.19 -3.6 0 0 -50.39 -3.6 0 0 -35.99 -3.6 0 0 -82.78 3.6 0 0 -46.79 3.6 0 0 -53.98 3.6 0 0 -18 3.6 0 0 -35.99 3.6 0 0 -21.59 3.6 0 0 -18 3.6 0 0 -32.39 3.6 0 0 -14.4 3.59 0 0 -28.79 3.6 0 0 -21.59 3.6 0 0 -25.19 3.6 0 0 -32.39 3.6 0 0 -36 3.6 0 0 -21.59 3.6 0 0 -28.79 3.6 0 0 -100.77 -3.6 0 0 -50.39 -3.6 0 0 -32.39 -3.6 0 0 -21.6 -3.6 0 0 -28.79 -3.6 0 0 -17.99 -3.6 0 0 -14.4 -3.6 0 0 -14.4 -3.59 0 0 -21.59 -3.6 0 0 -14.4 -3.6 0 0 -10.79 -3.6 0 0 -10.8 -3.6 0 0 -10.8 -3.6 0 0 -10.8 -3.6 0 0 -10.79 -3.6 0 0 -7.2 -3.6 0 0 -7.2 -3.59 0 0 -7.2 -3.6 0 0 -3.6 -3.6 0 0 -3.59 -7.2 0 0 -3.6 -10.8 0 0 3.6 -7.2 0 0 7.19 -3.6 0 0 7.2 -3.6 0 0 10.8 -3.59 0 0 14.39 -3.6 0 0 32.4 -3.6 0 0 10.79 -3.6 0 0 136.76 -3.6 0 0 39.6 -3.6 0 0 28.79 -3.6 0 0 21.59 -3.6 0 0 21.6 -3.6 0 0 17.99 -3.59 0 0 14.4 -3.6 0 0 14.4 -3.6 0 0 17.99 -3.6 0 0 10.8 -3.6 0 0 10.79 -3.6 0 0 14.4 -3.6 0 0 10.8 -3.6 0 0 14.39 -3.6 0 0 7.2 -3.59 0 0 10.8 -3.61 0 0 10.8 -3.6 0 0 10.79 -3.59 0 0 7.2 -3.6 0 0 10.8 -3.6 0 0 7.19 -3.6 0 0 10.8 -3.6 0 0 10.8 -3.6 0 0 7.2 -3.6 0 0 10.79 -3.6 0 0 7.2 -3.6 0 0 10.8 -3.59 0 0 7.2 -3.6 0 0 7.19 -3.61 0 0 7.2 -3.59 0 0 7.2 -3.6 0 0 7.2 -3.6 0 0 10.8 -3.6 0 0 7.2 -3.6 0 0 7.19 -3.6 0 0 7.2 -3.6 0 0 7.2 -3.6 0 0 7.2 -3.6 0 0 7.19 -3.59 0 0 7.2 -3.6 0 0 7.2 -3.6 0 0 10.8 -3.6 0 0 3.6 -3.6 0 0 7.2 -3.6 0 0 7.19 -3.6 0 0 3.6 -3.6 0 0 7.2 -3.6 0 0 7.2 -3.59 0 0 3.6 -3.6 0 0 3.6 -3.6 0 0 3.6 -3.6 0 0 3.59 -7.2 0 0 3.6 -28.79 0 0 -3.6 -7.2 0 0 -3.59 -7.2 0 0 -3.6 -3.6 0 0 -3.6 -3.6 0 0 -3.6 -3.6 0 0 -7.2 -3.59 0 0 -3.6 -3.6 0 0 -7.2 -3.6 0 0 -7.19 -3.6 0 0 -7.2 -3.6 0 0 -7.2 -3.6 0 0 -10.8 -3.6 0 0 -7.2 -3.6 0 0 -10.79 -3.6 0 0 -7.2 -3.59 0 0 -10.8 -3.61 0 0 -10.79 -3.6 0 0 -10.8 -3.59 0 0 -10.8 -3.6 0 0 -10.8 -3.6 0 0 -14.39 -3.6 0 0 -10.8 -3.6 0 0 -14.4 -3.6 0 0 -10.79 -3.6 0 0 -10.8 -3.6 0 0 -10.79 -3.6 0 0 -14.4 -3.59 0 0 -14.4 -3.6 0 0 -14.39 -3.61 0 0 -10.8 -3.59 0 0 -10.8 -3.6 0 0 -18 -3.6 0 0 -14.39 -3.6 0 0 -21.59 -3.6 0 0 -18 -3.6 0 0 -14.39 -3.6 0 0 -28.8 -3.6 0 0 -17.99 -3.6 0 0 -32.39 -3.59 0 0 -183.56 3.59 0 0 -115.16zm226.74 -68.39l7.2 0 0 3.6 3.6 0 0 3.6 3.6 0 0 3.6 3.6 0 0 7.2 3.6 0 0 7.2 3.6 0 0 10.79 3.6 0 0 10.8 3.59 0 0 14.39 3.61 0 0 28.8 3.6 0 0 17.99 3.59 0 0 143.97 -3.59 0 0 143.96 3.59 0 0 68.38 3.6 0 0 43.19 3.6 0 0 28.79 3.6 0 0 14.4 3.6 0 0 -10.8 3.6 0 0 -10.8 3.6 0 0 -10.8 3.6 0 0 -7.19 3.6 0 0 -14.4 3.59 0 0 -14.4 3.6 0 0 -14.39 3.61 0 0 -7.2 3.59 0 0 -14.39 3.6 0 0 -21.6 3.6 0 0 -14.4 3.6 0 0 -21.59 3.6 0 0 -14.4 3.6 0 0 -21.59 3.6 0 0 -28.79 3.6 0 0 -21.6 3.6 0 0 -129.56 3.59 0 0 -46.79 3.6 0 0 -21.6 3.6 0 0 -17.99 3.6 0 0 -7.2 3.6 0 0 -7.2 3.6 0 0 -7.19 3.6 0 0 -7.2 3.6 0 0 -3.6 3.6 0 0 -3.6 3.59 0 0 -3.6 7.2 0 0 -3.6 25.2 0 0 3.6 7.2 0 0 3.6 3.59 0 0 3.6 3.6 0 0 3.6 3.6 0 0 3.59 3.6 0 0 3.61 3.6 0 0 3.6 3.6 0 0 7.19 3.6 0 0 7.2 3.6 0 0 7.2 3.6 0 0 7.2 3.59 0 0 10.79 3.6 0 0 7.2 3.6 0 0 18 3.6 0 0 14.39 3.6 0 0 14.4 3.6 0 0 14.4 3.6 0 0 21.59 3.6 0 0 18 3.6 0 0 10.79 3.59 0 0 28.79 3.61 0 0 28.8 3.6 0 0 25.19 3.59 0 0 39.59 3.6 0 0 115.17 -3.6 0 0 32.39 -3.59 0 0 50.39 -3.6 0 0 21.59 -3.61 0 0 18 -3.59 0 0 25.19 -3.6 0 0 28.79 -3.6 0 0 25.2 -3.6 0 0 17.99 -3.6 0 0 28.79 -3.6 0 0 18 -3.6 0 0 32.39 -3.6 0 0 21.59 -3.6 0 0 32.39 -3.59 0 0 46.79 -3.6 0 0 161.96 3.6 0 0 21.6 3.59 0 0 35.98 3.6 0 0 25.2 3.6 0 0 10.79 3.6 0 0 14.4 3.6 0 0 10.8 3.6 0 0 10.8 3.6 0 0 7.19 3.6 0 0 10.8 3.6 0 0 10.8 3.59 0 0 7.19 3.61 0 0 14.4 3.6 0 0 10.8 3.59 0 0 10.8 3.6 0 0 7.19 3.6 0 0 18 3.6 0 0 10.8 3.6 0 0 17.99 3.6 0 0 10.8 3.6 0 0 17.99 3.6 0 0 18 3.6 0 0 21.59 3.59 0 0 21.6 3.6 0 0 35.99 3.6 0 0 50.39 -3.6 0 0 25.19 -3.6 0 0 10.79 -3.59 0 0 14.4 -3.6 0 0 10.8 -3.6 0 0 10.8 -3.6 0 0 7.19 -3.6 0 0 7.2 -3.6 0 0 7.2 -3.6 0 0 3.6 -3.6 0 0 3.6 -3.6 0 0 7.19 -3.59 0 0 3.6 -3.6 0 0 3.6 -3.61 0 0 3.6 -3.59 0 0 3.6 -3.6 0 0 3.6 -3.6 0 0 3.6 -3.6 0 0 3.6 -3.6 0 0 3.6 -3.6 0 0 3.59 -7.2 0 0 3.6 -3.6 0 0 3.61 -3.59 0 0 3.59 -3.6 0 0 3.6 -3.6 0 0 3.6 -3.6 0 0 3.6 -7.2 0 0 3.6 -3.6 0 0 3.6 -3.6 0 0 3.6 -7.19 0 0 3.6 -3.6 0 0 3.6 -3.6 0 0 3.59 -7.2 0 0 3.6 -3.6 0 0 3.6 -7.2 0 0 3.6 -3.6 0 0 3.6 -7.2 0 0 3.6 -7.19 0 0 3.6 -7.2 0 0 3.6 -10.8 0 0 3.6 -17.99 0 0 3.59 -36 0 0 -3.59 -21.59 0 0 -3.6 -7.2 0 0 -3.6 -7.19 0 0 -3.6 -10.8 0 0 -3.6 -7.2 0 0 -3.6 -7.2 0 0 -3.6 -7.2 0 0 -3.6 -3.6 0 0 -3.6 -7.19 0 0 -3.59 -7.2 0 0 -3.6 -7.2 0 0 -3.6 -10.8 0 0 -3.6 -7.19 0 0 -3.6 -7.2 0 0 -3.6 -10.8 0 0 -3.6 -46.79 0 0 3.6 -7.2 0 0 3.6 -7.19 0 0 3.6 -7.2 0 0 3.6 -7.2 0 0 3.6 -7.2 0 0 3.6 -7.19 0 0 3.59 -7.21 0 0 3.6 -3.59 0 0 3.6 -7.2 0 0 3.6 -10.8 0 0 3.6 -7.2 0 0 3.6 -7.19 0 0 3.6 -14.4 0 0 3.6 -14.4 0 0 3.6 -10.8 0 0 3.59 -35.98 0 0 -3.59 -10.8 0 0 -3.6 -10.8 0 0 -3.6 -7.2 0 0 -3.6 -7.19 0 0 -3.6 -3.61 0 0 -3.6 -7.19 0 0 -3.6 -7.2 0 0 -3.6 -3.6 0 0 -3.6 -3.6 0 0 -3.59 -3.6 0 0 -3.6 -7.2 0 0 -3.6 -3.59 0 0 -3.6 -3.6 0 0 -3.6 -3.6 0 0 -3.6 -3.6 0 0 -3.6 -3.6 0 0 -3.6 -3.6 0 0 -3.6 -7.2 0 0 -3.59 -3.6 0 0 -3.61 -3.59 0 0 -3.6 -3.61 0 0 -3.59 -3.6 0 0 -3.6 -3.59 0 0 -3.6 -3.6 0 0 -3.6 -3.6 0 0 -3.6 -3.6 0 0 -3.6 -3.6 0 0 -3.6 -3.6 0 0 -7.2 -3.6 0 0 -3.59 -3.6 0 0 -3.6 -3.6 0 0 -3.6 -3.59 0 0 -3.6 -3.6 0 0 -7.2 -3.61 0 0 -3.6 -3.59 0 0 -7.2 -3.6 0 0 -7.19 -3.6 0 0 -7.2 -3.6 0 0 -10.8 -3.6 0 0 -7.2 -3.6 0 0 -10.79 -3.6 0 0 -18 -3.6 0 0 -21.6 -3.6 0 0 -53.98 3.6 0 0 -28.79 3.6 0 0 -21.6 3.6 0 0 -10.79 3.6 0 0 -18 3.6 0 0 -7.2 3.6 0 0 -14.39 3.6 0 0 -14.4 3.6 0 0 -17.99 3.59 0 0 -10.8 3.61 0 0 -7.2 3.6 0 0 -17.99 3.59 0 0 -7.2 3.6 0 0 -10.8 3.6 0 0 -10.8 3.6 0 0 -10.79 3.6 0 0 -10.8 3.6 0 0 -10.8 3.6 0 0 -10.79 3.6 0 0 -10.8 3.6 0 0 -14.4 3.59 0 0 -21.59 3.6 0 0 -46.79 3.61 0 0 -133.16 -3.61 0 0 -50.39 -3.6 0 0 -28.79 -3.59 0 0 -43.19 -3.6 0 0 -21.6 -3.6 0 0 -28.79 -3.6 0 0 -35.99 -3.6 0 0 -35.99 -3.6 0 0 -50.39 -3.6 0 0 -61.18 -3.6 0 0 -97.17 3.6 0 0 -64.79 3.6 0 0 -17.99 3.6 0 0 -46.79 3.6 0 0 -14.4 3.6 0 0 -28.79 3.6 0 0 -14.4 3.6 0 0 -17.99 3.59 0 0 -21.59 3.6 0 0 -10.8 3.61 0 0 -14.4 3.59 0 0 -17.99 3.6 0 0 -10.8 3.6 0 0 -14.4 3.6 0 0 -7.19 3.6 0 0 -14.4 3.6 0 0 -10.8 3.6 0 0 -10.8 3.6 0 0 -10.79 3.6 0 0 -10.8 3.59 0 0 -7.2 3.6 0 0 -10.79 3.6 0 0 -7.2 3.6 0 0 -7.2 3.6 0 0 -10.8 3.6 0 0 -3.59 3.6 0 0 -7.21 3.6 0 0 -7.19 3.6 0 0 -7.2 3.59 0 0 -3.6 3.61 0 0 -7.2 3.59 0 0 -3.6 3.6 0 0 -3.6 3.6 0 0 -3.59 3.6 0 0 -3.6 3.6 0 0 -3.6 3.6 0 0 -3.6 3.6 0 0 -3.6 3.6 0 0 -3.6 10.79 0 0 -3.6 18 0 0 3.6 7.2 0 0 3.6 7.19 0 0 7.2 3.6 0 0 3.6 3.6 0 0 7.19 3.6 0 0 7.2 3.6 0 0 10.8 3.6 0 0 32.39 3.6 0 0 100.77 -3.6 0 0 165.56 3.6 0 0 46.79 3.6 0 0 25.19 3.6 0 0 14.4 3.59 0 0 17.99 3.61 0 0 18 3.6 0 0 17.99 3.59 0 0 18 3.6 0 0 18 3.6 0 0 10.79 3.6 0 0 14.4 3.6 0 0 -3.6 3.6 0 0 -14.4 3.6 0 0 -17.99 3.6 0 0 -21.6 3.6 0 0 -28.79 3.59 0 0 -28.79 3.6 0 0 -28.79 3.61 0 0 -43.19 3.59 0 0 -18 3.6 0 0 -32.39 3.6 0 0 -28.79 3.6 0 0 -14.4 3.6 0 0 -21.59 3.6 0 0 -25.19 3.6 0 0 -18 3.6 0 0 -14.4 3.6 0 0 -14.39 3.59 0 0 -10.8 3.6 0 0 -17.99 3.6 0 0 -14.4 3.6 0 0 -7.2 3.6 0 0 -18 3.6 0 0 -7.19 3.6 0 0 -10.8 3.6 0 0 -10.8 3.6 0 0 -7.19 3.59 0 0 -10.8 3.6 0 0 -7.2 3.6 0 0 -7.2 3.6 0 0 -7.2 3.6 0 0 -3.6 3.6 0 0 -7.19 3.6 0 0 -3.6 3.6 0 0 -7.2 3.6 0 0 -3.6 3.6 0 0 -3.6 3.6 0 0 -3.6 7.19 0 0 -3.6 7.2 0 0 -3.6 25.19 0 0 3.6z"/>
  <path class="fil3 str0" d="M227.77 1398.15l2.55 -2.54 -2.55 2.54zm2.55 -2.54l1.11 -2.15 -1.11 2.15zm1.11 -2.15zm7.32 -9.37l-7.32 9.37zm7.32 -9.37c-0.54,-2.97 -4.66,-1.31 -1.82,0.5l0.55 -0.05c1.45,-0.36 2,3.54 1.27,-0.45zm3.01 -8.19l-0.33 0.64c0.02,-0.04 0.51,-0.51 0.33,-0.64zm12.09 -16.2c-1.87,-1.45 -4.93,4.27 -1.43,1.34 0.03,-0.02 4.37,0.94 1.43,-1.34zm71.47 -168.76zm9.54 -13.67l-9.54 13.67zm9.54 -13.67c-4.13,2.64 -1.04,-0.48 -3.67,3.17 -2.04,2.84 -1.78,1.63 -2.21,5.81 8.01,-5.12 5.24,-7.28 5.88,-8.98zm4.77 -6.83zm0 0zm0 0zm17.33 -28.69l-17.33 28.69zm17.33 -28.69c-5.22,1.58 -11.24,7.03 -12.85,12.6 -1.26,4.34 -1.12,0.87 -0.03,7.51 4.88,-6.27 8.75,-13.25 12.88,-20.11zm-70.94 -173.95c-0.82,-4.49 -2.32,0.34 -0.85,0.23 0.01,0 1.74,4.67 0.85,-0.23zm-58.25 430.35c-6.09,3.89 -19.38,25.07 -24.86,33.37 -11.83,17.91 -12.59,16.19 -25.31,33.03 -2.83,3.75 -5.9,7.87 -8.13,11.74 -3.13,5.42 -3.02,8.67 -8.01,11.85 0.41,-12.21 24.89,-48.58 32.16,-59.31l11.76 -19.47c2.2,-3.95 2.62,-5.48 5.3,-9.43l34.46 -57.53c3.67,-5.73 4.75,-3.41 5.01,-11.16 -3.44,-0.04 -3.54,-0.46 -7.48,0.21l-0.65 -3.51c6.59,-4.21 17.22,-25.03 21.38,-33.06 4.4,-8.51 7.2,-8.11 10.97,-17.07l20.21 -33.98c2.06,-3.17 2.67,-5.07 4.72,-8.38 4.44,-7.17 25.79,-37.47 26.02,-44.51 -4.93,2.9 -5.86,5.94 -9.2,8.21 -12.25,8.33 8.78,-25.08 9.89,-27.24 2.11,-4.12 3,-6.79 4.83,-11.31 3.26,-8.08 1.11,-18.22 8.19,-23.93 5.33,-4.3 7.82,-0.98 12.35,-0.75 0.31,-9.37 4.16,-8.48 9.54,-13.67 -7.21,-8.39 -7.04,-3.34 -6.65,-15.53 0.32,-9.68 -1.33,-16.45 -7.17,-21.87 -10.89,-10.09 -29.5,-28.39 -34.28,-45.38 -2.35,-8.35 -3.85,-19.56 -5.17,-23.94 -1.1,-3.69 -6.77,-13.26 -9.42,-19.09 -3.07,-6.73 -6.57,-14.22 -8.06,-22.41 -5,3.19 -1.53,2.28 -6.53,5.47 -1.71,-4.35 -6.47,-11.86 -8.95,-15.94 -3.15,-5.19 -6.98,-10.55 -10.36,-15.59 -7.25,-10.8 -18.18,-33.73 -24.26,-40.99 -6.26,-7.47 -8.99,-19.5 -13.23,-29.05 -10.91,-24.56 -25.12,-44.83 -40,-65.19 -7.16,-9.8 -13.33,-21.45 -20.71,-31.21 -4.72,-6.22 -7.2,-5.87 -9.7,-14.89 -1.28,-4.64 0.8,-1.81 -3.46,-7 -2.33,-2.84 -3.78,-3.96 -6.27,-7.06 -4.15,-5.18 -6.79,-10.97 -9.76,-16.77 -3.51,-6.87 -7.12,-8.64 -10.53,-15.26l-28.07 -50.25c-4.31,-7.47 -6.89,-8.76 -10.36,-15.6l-9.77 -16.74c-2.19,-3.94 -1.78,-4.55 -3.89,-9.11 -7.3,-15.82 -21.94,-32.08 -30.59,-47.75 -2.16,-3.91 -2.3,-6.14 -4.45,-10.38 -9.98,-19.66 -29.18,-20.48 -34.03,-22.3l-4.22 -5.05c-3.72,-12.2 -1.87,-35.73 4.91,-41.28 13.82,-11.32 27.2,-1.8 36.58,-1.7 8.83,-11.36 4.52,-16.41 18.44,-11.86l17.12 4.95c6,2.24 1.62,-2.46 6.69,6.06 4.89,8.2 6.95,6.52 11.98,14.89 4.21,7.02 3.81,11.82 8.98,18.04 4.47,5.39 8.39,8.2 12.05,14.9 11.28,20.6 17.99,25.46 22.31,32.87l21.58 36.67c5.43,12.92 13.86,24.39 21.16,35.11 4,5.87 6.72,13.27 10.58,19.92 3.83,6.62 7.58,10.67 9.21,17.44 1.55,6.46 6.92,11.86 10.46,18.17 20.79,37.07 38.48,78.57 63.15,110.66 9.99,13 15.15,17.73 23.05,33.84 10.7,21.83 25.64,45.77 34.25,69.14l13.87 30.2c1.85,4.51 2.53,6.05 4.69,9.94 1.57,2.82 4.69,7.52 5.84,10.22 3.16,7.39 0.88,6.62 3.39,12.26l5.45 10.87c0.2,0.39 0.41,0.82 0.6,1.22l7.25 16.86c4.86,13.57 17.38,24.75 17.27,40.23 8.91,-5.69 37.44,-74.86 42.98,-88.54 4.28,-10.61 12.9,-42.07 16.48,-48.91 2.4,-4.59 3.82,-5.23 6.5,-10 3.89,-6.93 15.05,-27.53 20.31,-30.89 -2.81,-15.41 -5.17,-30.83 10.31,-29.42 5.83,0.53 -0.41,1.16 4.32,0.65 2.99,-0.32 2.09,-0.6 5.25,-2.46 -5.15,-13.07 -7.54,-13.63 12,-23.11 2.63,-1.27 2.7,-1.84 5.65,-3.72 6.51,-4.15 8.49,-2.14 8.74,-9.87 -8.73,2.4 -13.71,0.32 -21.02,0.24 -0.97,-8.61 4.41,-15.73 8.26,-20.68 9.34,-6.31 -0.21,11.82 25.39,-14.9l6.43 -8.55c-4.14,-0.05 -7.96,-0.33 -12.1,-0.37 -0.69,-6.07 -0.08,-6.72 0.94,-11.31l-20.94 -2.15c-7.62,-1.69 -15.14,-6.07 -22.72,-6.15 3.29,-9.19 24.08,-8.61 36.99,-12.04 9.5,-2.53 7.76,-0.08 12.21,-0.52l24.21 -5.7c16.46,-6.47 31.69,-37.16 51.94,-48.48 7.26,-4.06 46.71,-14.21 56.67,-16.35 8.53,-1.84 14.8,1.52 19.18,8.22 5.69,8.72 1.88,16.08 -0.67,25.85 -4.03,15.45 -13.07,19.96 -24.24,39.88 -3.77,6.72 -7.86,13.39 -11.89,19.36l-47.89 81.72c-10.55,20.57 -20.93,44.2 -32.89,63.26l-11.33 19.8c-2.62,5.01 -3.59,5.63 -6.39,10.09 -10.31,16.45 -13.79,26.97 -30.38,51.66 -5.14,7.64 -4.61,12.13 -10.36,20.55 -6.26,9.16 -8.93,17.74 -15.45,25.64 -7.2,8.72 -8.25,16.78 -14.49,26.37 -11.89,18.27 -42.96,76.71 -49.03,95.88 7.53,11.7 27.43,57.85 32.96,64.54 8.11,9.81 4.69,10.55 10.64,22.17l11.27 20.96c3.88,7.9 7.3,14.86 10.78,21.93 3.8,7.73 6.8,13.85 10.78,21.89 11.19,22.6 19.72,45.57 32.22,68.4 4.3,7.85 2.14,2.26 3.89,11.81l2.63 6.25c0.16,0.23 0.49,0.61 0.64,0.84 0.14,0.22 0.44,0.64 0.57,0.86l18.36 38.98c1.18,3.01 1.18,4.09 2.49,7.06 3.5,7.94 7.05,9.91 11.26,20.98l42.01 92.17c9.55,21.12 21.51,42.23 28.97,64.75 1.59,4.82 1.86,2.46 4.01,6.72 4.26,8.42 5.4,18.13 10.12,25.62 2.75,4.36 3.38,5.38 5.09,11.6 3.73,13.63 6.16,13.42 11.24,23.39 8.98,17.63 16.58,47.38 29.09,72.01 3.94,7.77 5.51,20.06 9.24,27.26 8.78,16.99 7.28,23 19.51,47.76 5.66,11.45 4.99,9.55 9.01,25.34 2.77,10.91 8.04,11.33 10.51,24.8l-12.55 -16.38c-4.51,-6.24 -8.71,-11.37 -11.93,-19.44 -5.99,-14.98 -15.86,-26.38 -22.92,-41.19 -2.33,-4.88 -5.35,-13.85 -7.43,-18.88 -7.54,-18.21 -13.32,-25.91 -22.52,-50.5 -1.46,-3.89 -2.94,-3.49 -4.4,-8.43 -1.11,-3.74 0.31,-2.25 -1.85,-6.67 -2.55,-5.24 -1.78,-2.15 -4.52,-7.75l-12.63 -27.88c-3.09,-5.55 -6.14,-9.95 -9.11,-15.63 -7,-13.37 -13.03,-32.21 -21.75,-43.46 -4.53,-5.83 -11.94,-26.18 -22.26,-42.48 -2.66,-4.21 -5.6,-11.68 -8.3,-17.18 -1.67,-3.39 -2.55,-5.45 -4.2,-8.52l-46.35 -88.53c-2.57,-5.82 -3.86,-12.82 -6.97,-19.76 -5.89,-13.12 -11.53,-22.05 -18.23,-33.63 -3.19,-5.49 -5.86,-10.28 -9.21,-15.46l-19.43 -31.46c-4.97,-9.84 -2.76,-11.16 -0.91,-19.44 -25.6,-29.81 -16.53,-23.95 -26.69,-38.69l-23.52 -30.52c-4.56,-5.71 -22.86,-27.61 -23.99,-32.02l4.3 -1.18 -3.21 -17.54c-8.03,-0.4 -20.33,-10.71 -25.66,-16.91 -16.89,17.64 -32.98,37.78 -48.54,57.13 -11.49,14.3 -24.64,29.84 -33.83,45.98 -3.5,6.15 -6.1,11.15 -13.7,13.45l-4.19 -7.2c-0.05,-0.12 -0.14,-0.56 -0.28,-0.79 -9.85,5.81 -15.07,22.9 -20.58,33.69 -2.81,5.5 -3.03,8.56 -6.05,13.37 -9.81,15.68 -18.57,30.45 -28.93,45.26 -10.45,14.94 -20.65,28.46 -30.52,44.03l-29.8 44.59c-5.03,7.34 -9.38,13.89 -14.78,21.64 -6.05,8.7 -9.22,14.32 -14.17,23.61 -4.69,8.79 -10.48,13.1 -15.53,21.06 -4.38,6.9 -0.7,4.44 -6.44,11.55l-23.65 32.82c-4.6,5.91 -1.93,5.69 -5.95,11.93l-37.09 53.38c-2.19,1.37 -3.29,1.06 -2.22,-2.77 1.44,-5.17 4.25,-8.62 7.31,-12.24 5.66,-6.7 6.33,-10.45 10.88,-17.14l26.4 -42.72c2.44,-4.22 3.44,-5.14 5.84,-9.01l97.43 -154.63c6.7,-10.52 16.51,-23.61 20.25,-35.44z"/>
 </g>
</svg>
