<?xml version="1.0" encoding="UTF-8"?>
<!DOCTYPE svg PUBLIC "-//W3C//DTD SVG 1.1//EN" "http://www.w3.org/Graphics/SVG/1.1/DTD/svg11.dtd">
<!-- Creator: CorelDRAW (Versión de evaluación) -->
<svg xmlns="http://www.w3.org/2000/svg" xml:space="preserve" width="561px" height="2062px" version="1.1" style="shape-rendering:geometricPrecision; text-rendering:geometricPrecision; image-rendering:optimizeQuality; fill-rule:evenodd; clip-rule:evenodd"
viewBox="0 0 561 2060.59"
 xmlns:xlink="http://www.w3.org/1999/xlink"
 xmlns:xodm="http://www.corel.com/coreldraw/odm/2003">
 <defs>
  <style type="text/css">
   <![CDATA[
    .str0 {stroke:#373435;stroke-width:2;stroke-miterlimit:22.9256}
    .str1 {stroke:#ED3237;stroke-width:2;stroke-miterlimit:22.9256}
    .fil2 {fill:#373435}
    .fil3 {fill:#ED3237}
    .fil1 {fill:#F2E6C9}
    .fil0 {fill:#FAFAF7}
   ]]>
  </style>
 </defs>
 <g id="extraction">
  <metadata id="CorelCorpID_0Corel-Layer"/>
  <polygon id="crown" class="fil0" points="319.8,1231.1 330.59,1231.1 330.59,1234.69 341.38,1234.69 341.38,1238.29 348.57,1238.29 348.57,1241.89 355.76,1241.89 355.76,1245.48 359.36,1245.48 359.36,1249.08 366.55,1249.08 366.55,1252.68 370.14,1252.68 370.14,1256.27 377.34,1256.27 377.34,1259.87 380.93,1259.87 380.93,1263.46 384.53,1263.46 384.53,1267.06 388.13,1267.06 388.13,1270.66 391.72,1270.66 391.72,1274.25 395.32,1274.25 395.32,1281.44 398.92,1281.44 398.92,1285.04 402.51,1285.04 402.51,1288.63 406.11,1288.63 406.11,1292.23 409.7,1292.23 409.7,1299.42 413.3,1299.42 413.3,1303.02 416.9,1303.02 416.9,1310.21 420.49,1310.21 420.49,1313.81 424.09,1313.81 424.09,1321 427.68,1321 427.68,1324.6 431.28,1324.6 431.28,1331.79 434.88,1331.79 434.88,1338.98 438.47,1338.98 438.47,1346.17 442.07,1346.17 442.07,1353.37 445.66,1353.37 445.66,1360.56 449.26,1360.56 449.26,1367.75 452.86,1367.75 452.86,1374.94 456.45,1374.94 456.45,1385.73 460.05,1385.73 460.05,1396.52 463.65,1396.52 463.65,1410.9 467.24,1410.9 467.24,1418.1 470.84,1418.1 470.84,1432.48 474.44,1432.48 474.44,1446.87 478.03,1446.87 478.03,1461.25 481.63,1461.25 481.63,1468.44 485.22,1468.44 485.22,1486.42 488.82,1486.42 488.82,1497.21 492.42,1497.21 492.42,1511.6 496.01,1511.6 496.01,1525.98 499.61,1525.98 499.61,1540.37 503.2,1540.37 503.2,1554.75 506.8,1554.75 506.8,1569.14 510.39,1569.14 510.39,1590.71 513.99,1590.71 513.99,1612.29 517.59,1612.29 517.59,1623.08 521.18,1623.08 521.18,1644.65 524.78,1644.65 524.78,1669.83 528.38,1669.83 528.38,1691.41 531.97,1691.41 531.97,1723.77 535.57,1723.77 535.57,1756.14 539.17,1756.14 539.17,1835.25 535.57,1835.25 535.57,1878.4 531.97,1878.4 531.97,1914.37 528.38,1914.37 528.38,1928.75 524.78,1928.75 524.78,1943.13 521.18,1943.13 521.18,1950.33 517.59,1950.33 517.59,1957.52 513.99,1957.52 513.99,1961.12 510.39,1961.12 510.39,1964.71 506.8,1964.71 506.8,1968.31 503.2,1968.31 503.2,1971.91 499.61,1971.91 499.61,1975.5 492.42,1975.5 492.42,1979.1 488.82,1979.1 488.82,1982.69 478.03,1982.69 478.03,1986.29 467.24,1986.29 467.24,1989.88 452.86,1989.88 452.86,1993.48 434.88,1993.48 434.88,1997.08 409.7,1997.08 409.7,2000.67 373.74,2000.67 373.74,2004.27 323.4,2004.27 323.4,2007.86 201.13,2007.86 201.13,2004.27 132.8,2004.27 132.8,2000.67 100.43,2000.67 100.43,1997.08 64.47,1997.08 64.47,1993.48 57.28,1993.48 57.28,1989.88 50.09,1989.88 50.09,1986.29 42.9,1986.29 42.9,1982.69 39.3,1982.69 39.3,1979.1 35.7,1979.1 35.7,1971.91 32.11,1971.91 32.11,1964.71 28.51,1964.71 28.51,1953.92 24.91,1953.92 24.91,1921.56 21.32,1921.56 21.32,1770.52 24.91,1770.52 24.91,1709.38 28.51,1709.38 28.51,1673.43 32.11,1673.43 32.11,1641.06 35.7,1641.06 35.7,1623.08 39.3,1623.08 39.3,1601.5 42.9,1601.5 42.9,1587.12 46.49,1587.12 46.49,1558.35 50.09,1558.35 50.09,1547.56 53.69,1547.56 53.69,1529.58 57.28,1529.58 57.28,1518.79 60.88,1518.79 60.88,1504.4 64.47,1504.4 64.47,1486.42 68.07,1486.42 68.07,1475.64 71.66,1475.64 71.66,1464.85 75.26,1464.85 75.26,1454.06 78.86,1454.06 78.86,1443.27 82.45,1443.27 82.45,1432.48 86.05,1432.48 86.05,1421.69 89.64,1421.69 89.64,1410.9 93.24,1410.9 93.24,1400.12 96.84,1400.12 96.84,1392.93 100.43,1392.93 100.43,1382.14 104.03,1382.14 104.03,1374.94 107.63,1374.94 107.63,1367.75 111.22,1367.75 111.22,1360.56 114.82,1360.56 114.82,1353.37 118.42,1353.37 118.42,1346.17 122.01,1346.17 122.01,1338.98 125.61,1338.98 125.61,1331.79 129.2,1331.79 129.2,1328.2 132.8,1328.2 132.8,1321 136.4,1321 136.4,1317.41 139.99,1317.41 139.99,1310.21 143.59,1310.21 143.59,1306.62 147.18,1306.62 147.18,1299.42 150.78,1299.42 150.78,1295.83 154.38,1295.83 154.38,1292.23 157.97,1292.23 157.97,1288.63 161.57,1288.63 161.57,1285.04 165.16,1285.04 165.16,1281.44 168.76,1281.44 168.76,1277.85 172.36,1277.85 172.36,1270.66 175.95,1270.66 175.95,1267.06 179.55,1267.06 179.55,1263.46 186.74,1263.46 186.74,1259.87 190.34,1259.87 190.34,1256.27 193.94,1256.27 193.94,1252.68 201.13,1252.68 201.13,1249.08 204.72,1249.08 204.72,1245.48 211.92,1245.48 211.92,1241.89 219.11,1241.89 219.11,1238.29 229.89,1238.29 229.89,1234.69 237.09,1234.69 237.09,1231.1 251.47,1231.1 251.47,1227.5 319.8,1227.5 "/>
  <polygon id="root" class="fil1" points="298.22,116.29 301.82,116.29 301.82,119.89 305.41,119.89 305.41,123.48 309.01,123.48 309.01,130.67 312.61,130.67 312.61,137.87 316.2,137.87 316.2,148.65 319.8,148.65 319.8,159.44 323.4,159.44 323.4,173.83 326.99,173.83 326.99,191.81 330.59,191.81 330.59,206.19 334.19,206.19 334.19,234.96 337.78,234.96 337.78,274.52 341.38,274.52 341.38,310.48 344.97,310.48 344.97,360.83 348.57,360.83 348.57,389.6 352.16,389.6 352.16,439.94 355.76,439.94 355.76,461.52 359.36,461.52 359.36,486.69 362.95,486.69 362.95,504.67 366.55,504.67 366.55,519.06 370.14,519.06 370.14,547.83 373.74,547.83 373.74,558.62 377.34,558.62 377.34,573 380.93,573 380.93,598.18 384.53,598.18 384.53,616.16 388.13,616.16 388.13,634.14 391.72,634.14 391.72,652.12 395.32,652.12 395.32,666.5 398.92,666.5 398.92,691.68 402.51,691.68 402.51,709.65 406.11,709.65 406.11,734.83 409.7,734.83 409.7,749.22 413.3,749.22 413.3,777.98 416.9,777.98 416.9,810.35 420.49,810.35 420.49,831.92 424.09,831.92 424.09,867.89 427.68,867.89 427.68,936.21 431.28,936.21 431.28,972.18 434.88,972.18 434.88,1026.12 438.47,1026.12 438.47,1087.25 442.07,1087.25 442.07,1123.21 445.66,1123.21 445.66,1180.75 449.26,1180.75 449.26,1209.52 452.86,1209.52 452.86,1249.08 456.45,1249.08 456.45,1281.44 460.05,1281.44 460.05,1317.41 463.65,1317.41 463.65,1338.98 460.05,1338.98 460.05,1331.79 456.45,1331.79 456.45,1324.6 452.86,1324.6 452.86,1317.41 449.26,1317.41 449.26,1313.81 445.66,1313.81 445.66,1306.62 442.07,1306.62 442.07,1303.02 438.47,1303.02 438.47,1295.83 434.88,1295.83 434.88,1288.63 431.28,1288.63 431.28,1285.04 427.68,1285.04 427.68,1281.44 424.09,1281.44 424.09,1277.85 420.49,1277.85 420.49,1270.66 416.9,1270.66 416.9,1267.06 413.3,1267.06 413.3,1263.46 409.7,1263.46 409.7,1259.87 406.11,1259.87 406.11,1256.27 402.51,1256.27 402.51,1252.68 398.92,1252.68 398.92,1249.08 395.32,1249.08 395.32,1245.48 391.72,1245.48 391.72,1241.89 388.13,1241.89 388.13,1238.29 380.93,1238.29 380.93,1234.69 377.34,1234.69 377.34,1231.1 373.74,1231.1 373.74,1227.5 366.55,1227.5 366.55,1223.9 359.36,1223.9 359.36,1220.31 352.16,1220.31 352.16,1216.71 341.38,1216.71 341.38,1213.12 326.99,1213.12 326.99,1209.52 309.01,1209.52 309.01,1205.92 255.07,1205.92 255.07,1209.52 240.68,1209.52 240.68,1213.12 229.89,1213.12 229.89,1216.71 219.11,1216.71 219.11,1220.31 208.32,1220.31 208.32,1223.9 201.13,1223.9 201.13,1227.5 193.94,1227.5 193.94,1231.1 190.34,1231.1 190.34,1234.69 183.15,1234.69 183.15,1238.29 179.55,1238.29 179.55,1241.89 175.95,1241.89 175.95,1245.48 172.36,1245.48 172.36,1249.08 168.76,1249.08 168.76,1252.68 165.16,1252.68 165.16,1256.27 161.57,1256.27 161.57,1259.87 154.38,1259.87 154.38,1267.06 150.78,1267.06 150.78,1270.66 147.18,1270.66 147.18,1274.25 143.59,1274.25 143.59,1277.85 139.99,1277.85 139.99,1281.44 136.4,1281.44 136.4,1285.04 132.8,1285.04 132.8,1292.23 129.2,1292.23 129.2,1295.83 125.61,1295.83 125.61,1299.42 122.01,1299.42 122.01,1306.62 118.42,1306.62 118.42,1310.21 114.82,1310.21 114.82,1317.41 111.22,1317.41 111.22,1321 107.63,1321 107.63,1328.2 104.03,1328.2 104.03,1335.39 100.43,1335.39 100.43,1342.58 96.84,1342.58 96.84,1349.77 93.24,1349.77 93.24,1356.96 89.64,1356.96 89.64,1360.56 86.05,1360.56 86.05,1346.17 89.64,1346.17 89.64,1310.21 93.24,1310.21 93.24,1270.66 96.84,1270.66 96.84,1238.29 100.43,1238.29 100.43,1198.73 104.03,1198.73 104.03,1155.58 107.63,1155.58 107.63,1101.64 111.22,1101.64 111.22,1065.67 114.82,1065.67 114.82,1000.94 118.42,1000.94 118.42,961.39 122.01,961.39 122.01,921.83 125.61,921.83 125.61,871.48 129.2,871.48 129.2,835.52 132.8,835.52 132.8,785.17 136.4,785.17 136.4,763.6 139.99,763.6 139.99,720.44 143.59,720.44 143.59,684.48 147.18,684.48 147.18,648.52 150.78,648.52 150.78,616.16 154.38,616.16 154.38,583.79 157.97,583.79 157.97,555.02 161.57,555.02 161.57,526.25 165.16,526.25 165.16,511.87 168.76,511.87 168.76,483.1 172.36,483.1 172.36,454.33 175.95,454.33 175.95,439.94 179.55,439.94 179.55,414.77 183.15,414.77 183.15,393.2 186.74,393.2 186.74,382.41 190.34,382.41 190.34,360.83 193.94,360.83 193.94,350.04 197.53,350.04 197.53,335.66 201.13,335.66 201.13,317.68 204.72,317.68 204.72,306.89 208.32,306.89 208.32,288.9 211.92,288.9 211.92,278.12 215.51,278.12 215.51,263.73 219.11,263.73 219.11,252.94 222.7,252.94 222.7,242.16 226.3,242.16 226.3,231.37 229.89,231.37 229.89,216.98 233.49,216.98 233.49,206.19 237.09,206.19 237.09,195.41 240.68,195.41 240.68,188.21 244.28,188.21 244.28,177.43 247.88,177.43 247.88,166.64 251.47,166.64 251.47,159.44 255.07,159.44 255.07,148.65 258.67,148.65 258.67,141.46 262.26,141.46 262.26,137.87 265.86,137.87 265.86,130.67 269.45,130.67 269.45,123.48 273.05,123.48 273.05,119.89 276.65,119.89 276.65,116.29 283.84,116.29 283.84,112.7 298.22,112.7 "/>
  <path id="outline" class="fil2 str0" d="M539.17 1756.14l-3.6 0 0 -32.37 -3.6 0 0 -32.36 -3.59 0 0 -21.58 -3.6 0 0 -25.18 -3.6 0 0 -21.57 -3.59 0 0 -10.79 -3.6 0 0 -21.58 -3.6 0 0 -21.57 -3.59 0 0 -14.39 -3.6 0 0 -14.38 -3.59 0 0 -14.39 -3.6 0 0 -14.38 -3.59 0 0 -14.39 -3.6 0 0 -10.79 -3.6 0 0 -17.98 -3.59 0 0 -7.19 -3.6 0 0 -14.38 -3.59 0 0 -14.39 -3.6 0 0 -14.38 -3.6 0 0 -7.2 -3.59 0 0 -14.38 -3.6 0 0 -10.79 -3.6 0 0 -10.79 -3.59 0 0 -7.19 -3.6 0 0 -7.19 -3.6 0 0 -7.19 -3.59 0 0 -7.2 -3.6 0 0 -7.19 -3.59 0 0 -7.19 -3.6 0 0 -7.19 -3.6 0 0 -3.6 -3.59 0 0 -7.19 -3.6 0 0 -3.6 -3.59 0 0 -7.19 -3.6 0 0 -3.6 -3.6 0 0 -7.19 -3.59 0 0 -3.6 -3.6 0 0 -3.59 -3.59 0 0 -3.6 -3.6 0 0 -7.19 -3.6 0 0 -3.59 -3.59 0 0 -3.6 -3.6 0 0 -3.6 -3.6 0 0 -3.59 -3.59 0 0 -3.6 -7.2 0 0 -3.59 -3.59 0 0 -3.6 -7.19 0 0 -3.6 -3.6 0 0 -3.59 -7.19 0 0 -3.6 -7.19 0 0 -3.6 -10.79 0 0 -3.59 -10.79 0 0 -3.6 -68.33 0 0 3.6 -14.38 0 0 3.59 -7.2 0 0 3.6 -10.78 0 0 3.6 -7.19 0 0 3.59 -7.2 0 0 3.6 -3.59 0 0 3.6 -7.19 0 0 3.59 -3.6 0 0 3.6 -3.6 0 0 3.59 -7.19 0 0 3.6 -3.6 0 0 3.6 -3.59 0 0 7.19 -3.6 0 0 3.59 -3.6 0 0 3.6 -3.59 0 0 3.59 -3.6 0 0 3.6 -3.59 0 0 3.6 -3.6 0 0 3.59 -3.6 0 0 7.2 -3.59 0 0 3.59 -3.6 0 0 7.2 -3.59 0 0 3.59 -3.6 0 0 7.2 -3.6 0 0 3.59 -3.59 0 0 7.19 -3.6 0 0 7.19 -3.59 0 0 7.2 -3.6 0 0 7.19 -3.6 0 0 7.19 -3.59 0 0 7.19 -3.6 0 0 7.2 -3.6 0 0 10.79 -3.59 0 0 7.19 -3.6 0 0 10.78 -3.6 0 0 10.79 -3.59 0 0 10.79 -3.6 0 0 10.79 -3.59 0 0 10.79 -3.6 0 0 10.79 -3.6 0 0 10.79 -3.59 0 0 10.78 -3.6 0 0 17.98 -3.59 0 0 14.39 -3.6 0 0 10.79 -3.59 0 0 17.98 -3.6 0 0 10.79 -3.6 0 0 28.77 -3.59 0 0 14.38 -3.6 0 0 21.58 -3.6 0 0 17.98 -3.59 0 0 32.37 -3.6 0 0 35.95 -3.6 0 0 61.14 -3.59 0 0 151.04 3.59 0 0 32.36 3.6 0 0 10.79 3.6 0 0 7.2 3.59 0 0 7.19 3.6 0 0 3.59 3.6 0 0 3.6 7.19 0 0 3.59 7.19 0 0 3.6 7.19 0 0 3.6 35.96 0 0 3.59 32.37 0 0 3.6 68.33 0 0 3.59 122.27 0 0 -3.59 50.34 0 0 -3.6 35.96 0 0 -3.59 25.18 0 0 -3.6 17.98 0 0 -3.6 14.38 0 0 -3.59 10.79 0 0 -3.6 10.79 0 0 -3.59 3.6 0 0 -3.6 7.19 0 0 -3.59 3.59 0 0 -3.6 3.6 0 0 -3.6 3.59 0 0 -3.59 3.6 0 0 -3.6 3.6 0 0 -7.19 3.59 0 0 -7.2 3.6 0 0 -14.38 3.6 0 0 -14.38 3.59 0 0 -35.97 3.6 0 0 -43.15 3.6 0 0 -79.11zm-230.16 -546.62l17.98 0 0 3.6 14.39 0 0 3.59 10.78 0 0 3.6 7.2 0 0 3.59 7.19 0 0 3.6 7.19 0 0 3.6 3.6 0 0 3.59 3.59 0 0 3.6 7.2 0 0 3.6 3.59 0 0 3.59 3.6 0 0 3.6 3.6 0 0 3.6 3.59 0 0 3.59 3.6 0 0 3.6 3.59 0 0 3.59 3.6 0 0 3.6 3.6 0 0 3.6 3.59 0 0 7.19 3.6 0 0 3.59 3.59 0 0 3.6 3.6 0 0 3.59 3.6 0 0 7.2 3.59 0 0 7.19 3.6 0 0 3.6 3.59 0 0 7.19 3.6 0 0 3.6 3.6 0 0 7.19 3.59 0 0 7.19 3.6 0 0 7.19 3.6 0 0 -21.57 -3.6 0 0 -35.97 -3.6 0 0 -32.36 -3.59 0 0 -39.56 -3.6 0 0 -28.77 -3.6 0 0 -57.54 -3.59 0 0 -35.96 -3.6 0 0 -61.13 -3.59 0 0 -53.94 -3.6 0 0 -35.97 -3.6 0 0 -68.32 -3.59 0 0 -35.97 -3.6 0 0 -21.57 -3.59 0 0 -32.37 -3.6 0 0 -28.76 -3.6 0 0 -14.39 -3.59 0 0 -25.18 -3.6 0 0 -17.97 -3.59 0 0 -25.18 -3.6 0 0 -14.38 -3.6 0 0 -17.98 -3.59 0 0 -17.98 -3.6 0 0 -17.98 -3.6 0 0 -25.18 -3.59 0 0 -14.38 -3.6 0 0 -10.79 -3.6 0 0 -28.77 -3.59 0 0 -14.39 -3.6 0 0 -17.98 -3.59 0 0 -25.17 -3.6 0 0 -21.58 -3.6 0 0 -50.34 -3.59 0 0 -28.77 -3.6 0 0 -50.35 -3.59 0 0 -35.96 -3.6 0 0 -39.56 -3.59 0 0 -28.77 -3.6 0 0 -14.38 -3.6 0 0 -17.98 -3.59 0 0 -14.39 -3.6 0 0 -10.79 -3.6 0 0 -10.78 -3.59 0 0 -7.2 -3.6 0 0 -7.19 -3.6 0 0 -3.59 -3.59 0 0 -3.6 -3.6 0 0 -3.59 -14.38 0 0 3.59 -7.19 0 0 3.6 -3.6 0 0 3.59 -3.6 0 0 7.19 -3.59 0 0 7.2 -3.6 0 0 3.59 -3.59 0 0 7.19 -3.6 0 0 10.79 -3.6 0 0 7.2 -3.59 0 0 10.79 -3.6 0 0 10.78 -3.6 0 0 7.2 -3.59 0 0 10.78 -3.6 0 0 10.79 -3.6 0 0 14.39 -3.59 0 0 10.79 -3.6 0 0 10.78 -3.59 0 0 10.79 -3.6 0 0 14.39 -3.59 0 0 10.78 -3.6 0 0 17.99 -3.6 0 0 10.79 -3.59 0 0 17.98 -3.6 0 0 14.38 -3.59 0 0 10.79 -3.6 0 0 21.58 -3.6 0 0 10.79 -3.59 0 0 21.57 -3.6 0 0 25.17 -3.6 0 0 14.39 -3.59 0 0 28.77 -3.6 0 0 28.77 -3.6 0 0 14.38 -3.59 0 0 28.77 -3.6 0 0 28.77 -3.59 0 0 32.37 -3.6 0 0 32.36 -3.6 0 0 35.96 -3.59 0 0 35.96 -3.6 0 0 43.16 -3.59 0 0 21.57 -3.6 0 0 50.35 -3.6 0 0 35.96 -3.59 0 0 50.35 -3.6 0 0 39.56 -3.59 0 0 39.55 -3.6 0 0 64.73 -3.6 0 0 35.97 -3.59 0 0 53.94 -3.6 0 0 43.15 -3.6 0 0 39.56 -3.59 0 0 32.37 -3.6 0 0 39.55 -3.6 0 0 35.96 -3.59 0 0 14.39 3.59 0 0 -3.6 3.6 0 0 -7.19 3.6 0 0 -7.19 3.59 0 0 -7.19 3.6 0 0 -7.19 3.6 0 0 -7.2 3.59 0 0 -3.59 3.6 0 0 -7.2 3.6 0 0 -3.59 3.59 0 0 -7.2 3.6 0 0 -3.59 3.59 0 0 -3.6 3.6 0 0 -7.19 3.6 0 0 -3.6 3.59 0 0 -3.59 3.6 0 0 -3.6 3.59 0 0 -3.59 3.6 0 0 -3.6 3.6 0 0 -7.19 7.19 0 0 -3.6 3.59 0 0 -3.59 3.6 0 0 -3.6 3.6 0 0 -3.6 3.59 0 0 -3.59 3.6 0 0 -3.6 3.6 0 0 -3.6 7.19 0 0 -3.59 3.6 0 0 -3.6 7.19 0 0 -3.6 7.19 0 0 -3.59 10.79 0 0 -3.6 10.78 0 0 -3.59 10.79 0 0 -3.6 14.39 0 0 -3.6 53.94 0 0 3.6zm-7.19 -1114.81l7.19 0 0 3.6 7.19 0 0 3.6 3.6 0 0 3.59 3.6 0 0 3.6 3.59 0 0 7.19 3.6 0 0 3.6 3.6 0 0 10.78 3.59 0 0 7.2 3.6 0 0 10.78 3.59 0 0 17.99 3.6 0 0 10.79 3.59 0 0 21.57 3.6 0 0 35.96 3.6 0 0 28.77 3.59 0 0 25.17 3.6 0 0 61.14 3.59 0 0 50.35 3.6 0 0 17.98 3.6 0 0 32.36 3.59 0 0 17.98 3.6 0 0 17.98 3.6 0 0 28.77 3.59 0 0 10.79 3.6 0 0 25.17 3.6 0 0 21.58 3.59 0 0 10.79 3.6 0 0 25.17 3.59 0 0 17.98 3.6 0 0 21.58 3.6 0 0 17.98 3.59 0 0 14.39 3.6 0 0 17.98 3.59 0 0 21.57 3.6 0 0 32.37 3.6 0 0 21.58 3.59 0 0 17.98 3.6 0 0 35.96 3.59 0 0 32.36 3.6 0 0 53.95 3.6 0 0 32.36 3.59 0 0 61.13 3.6 0 0 43.16 3.6 0 0 68.33 3.59 0 0 46.75 3.6 0 0 57.53 3.6 0 0 17.99 3.59 0 0 35.96 3.6 0 0 39.56 3.59 0 0 28.76 3.6 0 0 25.18 3.6 0 0 46.75 3.59 0 0 17.98 3.6 0 0 10.79 3.59 0 0 17.98 3.6 0 0 7.19 3.59 0 0 21.58 3.6 0 0 14.38 3.6 0 0 14.39 3.59 0 0 14.38 3.6 0 0 14.39 3.6 0 0 17.98 3.59 0 0 10.78 3.6 0 0 21.58 3.6 0 0 17.98 3.59 0 0 25.17 3.6 0 0 17.99 3.6 0 0 21.57 3.59 0 0 25.17 3.6 0 0 21.58 3.59 0 0 133.06 -3.59 0 0 32.37 -3.6 0 0 25.17 -3.59 0 0 14.38 -3.6 0 0 10.79 -3.6 0 0 7.19 -3.59 0 0 10.79 -3.6 0 0 7.2 -3.6 0 0 3.59 -3.59 0 0 3.6 -3.6 0 0 3.59 -3.6 0 0 3.6 -3.59 0 0 3.59 -7.2 0 0 3.6 -3.59 0 0 3.6 -7.19 0 0 3.59 -7.19 0 0 3.6 -7.2 0 0 3.59 -10.78 0 0 3.6 -14.39 0 0 3.6 -17.98 0 0 3.59 -17.98 0 0 3.6 -32.37 0 0 3.6 -64.73 0 0 3.59 -161.83 0 0 -3.59 -43.15 0 0 -3.6 -43.15 0 0 -3.6 -14.39 0 0 -3.59 -14.38 0 0 -3.6 -7.19 0 0 -3.6 -7.2 0 0 -3.59 -3.59 0 0 -3.6 -3.6 0 0 -3.59 -3.6 0 0 -3.6 -3.59 0 0 -3.6 -3.6 0 0 -3.59 -3.6 0 0 -7.19 -3.59 0 0 -7.19 -3.6 0 0 -14.39 -3.59 0 0 -14.39 -3.6 0 0 -197.78 3.6 0 0 -46.75 3.59 0 0 -43.16 3.6 0 0 -14.38 3.59 0 0 -28.77 3.6 0 0 -21.58 3.6 0 0 -21.57 3.59 0 0 -14.39 3.6 0 0 -17.98 3.6 0 0 -10.79 3.59 0 0 -14.38 3.6 0 0 -14.39 3.6 0 0 -14.38 3.59 0 0 -7.19 3.6 0 0 -14.39 3.6 0 0 -14.38 3.59 0 0 -14.39 3.6 0 0 -35.96 3.59 0 0 -35.96 3.6 0 0 -50.35 3.59 0 0 -35.96 3.6 0 0 -43.15 3.6 0 0 -43.16 3.59 0 0 -64.73 3.6 0 0 -28.77 3.59 0 0 -50.34 3.6 0 0 -39.56 3.6 0 0 -61.14 3.59 0 0 -28.76 3.6 0 0 -57.54 3.6 0 0 -35.96 3.59 0 0 -39.56 3.6 0 0 -43.15 3.6 0 0 -25.18 3.59 0 0 -35.96 3.6 0 0 -43.15 3.59 0 0 -39.56 3.6 0 0 -25.18 3.6 0 0 -21.57 3.59 0 0 -28.77 3.6 0 0 -28.77 3.59 0 0 -21.58 3.6 0 0 -21.57 3.6 0 0 -17.99 3.59 0 0 -17.97 3.6 0 0 -14.39 3.59 0 0 -21.58 3.6 0 0 -21.57 3.6 0 0 -14.39 3.59 0 0 -14.38 3.6 0 0 -14.39 3.6 0 0 -14.38 3.59 0 0 -14.39 3.6 0 0 -7.19 3.6 0 0 -14.38 3.59 0 0 -10.79 3.6 0 0 -14.39 3.59 0 0 -10.79 3.6 0 0 -14.38 3.6 0 0 -10.79 3.59 0 0 -10.79 3.6 0 0 -7.19 3.59 0 0 -10.79 3.6 0 0 -10.79 3.59 0 0 -7.19 3.6 0 0 -7.19 3.6 0 0 -7.19 3.59 0 0 -7.2 3.6 0 0 -7.19 3.6 0 0 -7.19 3.59 0 0 -3.59 3.6 0 0 -3.6 3.6 0 0 -3.6 3.59 0 0 -3.59 3.6 0 0 -3.6 3.59 0 0 -3.6 7.2 0 0 -3.59 25.17 0 0 3.59z"/>
  <path class="fil3 str1" d="M166.96 1276.76l1.89 -2.54 -1.89 2.54zm1.89 -2.54l0.82 -2.15 -0.82 2.15zm0.82 -2.15zm5.42 -9.36l-5.42 9.36zm5.42 -9.36c-0.4,-2.96 -3.45,-1.31 -1.34,0.5l0.4 -0.05c1.08,-0.36 1.48,3.53 0.94,-0.45zm2.24 -8.19l-0.25 0.64c0.02,-0.04 0.38,-0.5 0.25,-0.64zm8.95 -16.19c-1.38,-1.44 -3.65,4.27 -1.06,1.35 0.03,-0.02 3.24,0.93 1.06,-1.35zm52.97 -168.62zm7.07 -13.65l-7.07 13.65zm7.07 -13.65c-3.07,2.64 -0.77,-0.48 -2.73,3.17 -1.51,2.83 -1.31,1.62 -1.63,5.8 5.94,-5.12 3.88,-7.28 4.36,-8.97zm3.53 -6.83zm0 0zm0 0zm12.84 -28.66l-12.84 28.66zm12.84 -28.66c-3.87,1.58 -8.33,7.02 -9.52,12.59 -0.94,4.33 -0.83,0.86 -0.02,7.49 3.61,-6.26 6.48,-13.23 9.54,-20.08zm-52.57 -173.82c-0.61,-4.48 -1.72,0.34 -0.63,0.24 0.01,-0.01 1.29,4.66 0.63,-0.24zm-43.16 430.01c-4.52,3.89 -14.36,25.04 -18.43,33.34 -8.76,17.9 -9.32,16.17 -18.75,33 -2.1,3.75 -4.37,7.87 -6.03,11.74 -2.31,5.41 -2.23,8.65 -5.93,11.83 0.3,-12.19 18.44,-48.53 23.83,-59.26l8.72 -19.45c1.63,-3.94 1.93,-5.47 3.92,-9.43l25.54 -57.48c2.72,-5.72 3.52,-3.4 3.71,-11.15 -2.54,-0.03 -2.62,-0.46 -5.54,0.21l-0.48 -3.5c4.88,-4.21 12.76,-25.01 15.84,-33.04 3.26,-8.5 5.34,-8.1 8.13,-17.06l14.98 -33.95c1.53,-3.17 1.97,-5.07 3.49,-8.37 3.29,-7.17 19.11,-37.44 19.29,-44.48 -3.66,2.91 -4.35,5.94 -6.82,8.21 -9.08,8.32 6.5,-25.06 7.32,-27.22 1.57,-4.12 2.23,-6.79 3.58,-11.3 2.42,-8.07 0.83,-18.21 6.07,-23.91 3.95,-4.3 5.8,-0.98 9.15,-0.76 0.24,-9.36 3.09,-8.47 7.07,-13.65 -5.34,-8.39 -5.21,-3.34 -4.92,-15.52 0.23,-9.67 -0.99,-16.44 -5.32,-21.85 -8.07,-10.08 -21.86,-28.37 -25.4,-45.34 -1.74,-8.35 -2.85,-19.55 -3.83,-23.93 -0.82,-3.69 -5.01,-13.25 -6.98,-19.07 -2.27,-6.73 -4.86,-14.21 -5.97,-22.39 -3.71,3.19 -1.14,2.28 -4.84,5.47 -1.27,-4.36 -4.8,-11.85 -6.63,-15.93 -2.34,-5.19 -5.17,-10.54 -7.68,-15.59 -5.37,-10.79 -13.47,-33.69 -17.98,-40.95 -4.64,-7.46 -6.66,-19.48 -9.8,-29.02 -8.09,-24.54 -18.61,-44.8 -29.64,-65.14 -5.31,-9.8 -9.88,-21.44 -15.35,-31.19 -3.5,-6.21 -5.33,-5.87 -7.19,-14.87 -0.95,-4.64 0.6,-1.82 -2.56,-7 -1.73,-2.84 -2.81,-3.96 -4.65,-7.06 -3.07,-5.17 -5.03,-10.96 -7.23,-16.75 -2.6,-6.86 -5.27,-8.63 -7.8,-15.25l-20.8 -50.2c-3.2,-7.48 -5.11,-8.76 -7.68,-15.59l-7.24 -16.73c-1.62,-3.94 -1.32,-4.54 -2.88,-9.1 -5.41,-15.81 -16.26,-32.06 -22.67,-47.71 -1.6,-3.92 -1.71,-6.14 -3.3,-10.38 -7.4,-19.65 -21.62,-20.46 -25.21,-22.28l-3.13 -5.05c-2.76,-12.19 -1.39,-35.7 3.63,-41.24 10.25,-11.31 20.16,-1.8 27.11,-1.7 6.55,-11.35 3.35,-16.4 13.67,-11.85l12.68 4.94c4.45,2.24 1.2,-2.46 4.96,6.05 3.63,8.2 5.15,6.52 8.88,14.89 3.12,7.01 2.82,11.81 6.65,18.03 3.31,5.38 6.22,8.18 8.94,14.88 8.35,20.58 13.32,25.44 16.53,32.85l15.99 36.63c4.02,12.91 10.27,24.38 15.67,35.08 2.97,5.87 4.99,13.27 7.84,19.91 2.85,6.61 5.62,10.66 6.83,17.43 1.15,6.45 5.13,11.85 7.75,18.15 15.41,37.05 28.52,78.51 46.8,110.58 7.4,12.98 11.22,17.71 17.08,33.81 7.93,21.81 19,45.73 25.38,69.08l10.28 30.18c1.37,4.5 1.87,6.04 3.47,9.92 1.17,2.83 3.48,7.52 4.33,10.22 2.34,7.38 0.65,6.62 2.52,12.25l4.03 10.86c0.15,0.4 0.3,0.82 0.45,1.22l5.37 16.85c3.6,13.55 12.88,24.73 12.8,40.19 6.6,-5.68 27.74,-74.79 31.84,-88.47 3.18,-10.59 9.56,-42.03 12.21,-48.87 1.78,-4.58 2.84,-5.22 4.82,-9.99 2.89,-6.92 11.16,-27.5 15.06,-30.86 -2.09,-15.4 -3.84,-30.81 7.64,-29.4 4.31,0.53 -0.31,1.16 3.19,0.65 2.22,-0.31 1.56,-0.59 3.89,-2.45 -3.81,-13.06 -5.58,-13.62 8.9,-23.1 1.94,-1.27 2,-1.83 4.18,-3.71 4.83,-4.15 6.29,-2.15 6.48,-9.86 -6.47,2.39 -10.15,0.31 -15.58,0.23 -0.72,-8.6 3.27,-15.72 6.12,-20.66 6.92,-6.3 -0.15,11.81 18.82,-14.89l4.77 -8.55c-3.07,-0.04 -5.9,-0.32 -8.97,-0.36 -0.51,-6.07 -0.06,-6.72 0.69,-11.3l-15.51 -2.15c-5.65,-1.69 -11.22,-6.07 -16.83,-6.15 2.43,-9.18 17.84,-8.6 27.4,-12.03 7.04,-2.52 5.76,-0.07 9.05,-0.52l17.94 -5.69c12.2,-6.46 23.48,-37.14 38.49,-48.45 5.38,-4.05 34.61,-14.2 41.99,-16.33 6.33,-1.83 10.97,1.51 14.22,8.21 4.21,8.71 1.39,16.07 -0.5,25.83 -2.99,15.44 -9.69,19.94 -17.96,39.85 -2.8,6.71 -5.83,13.38 -8.81,19.35l-35.49 81.65c-7.82,20.55 -15.51,44.16 -24.37,63.21l-8.4 19.78c-1.94,5.01 -2.66,5.62 -4.73,10.08 -7.65,16.44 -10.23,26.95 -22.52,51.62 -3.81,7.64 -3.42,12.13 -7.68,20.54 -4.63,9.15 -6.61,17.72 -11.44,25.61 -5.34,8.72 -6.12,16.77 -10.74,26.36 -8.81,18.25 -31.83,76.65 -36.33,95.8 5.58,11.69 20.32,57.81 24.42,64.49 6.01,9.8 3.48,10.54 7.89,22.15l8.35 20.95c2.87,7.88 5.41,14.84 7.98,21.9 2.82,7.73 5.04,13.85 7.99,21.88 8.3,22.58 14.62,45.53 23.88,68.34 3.18,7.85 1.59,2.26 2.88,11.81l1.95 6.24c0.12,0.23 0.37,0.61 0.48,0.84 0.1,0.22 0.32,0.64 0.42,0.86l13.6 38.95c0.88,3 0.88,4.08 1.85,7.04 2.59,7.94 5.22,9.91 8.34,20.97l31.13 92.1c7.08,21.11 15.94,42.2 21.47,64.7 1.18,4.81 1.38,2.46 2.97,6.71 3.16,8.41 4,18.11 7.5,25.6 2.04,4.36 2.51,5.37 3.77,11.59 2.77,13.62 4.57,13.41 8.33,23.37 6.66,17.62 12.29,47.34 21.56,71.95 2.92,7.77 4.08,20.05 6.84,27.24 6.51,16.98 5.4,22.98 14.47,47.72 4.19,11.45 3.69,9.54 6.67,25.32 2.06,10.91 5.96,11.33 7.78,24.79l-9.29 -16.37c-3.35,-6.24 -6.46,-11.37 -8.84,-19.42 -4.44,-14.98 -11.76,-26.36 -16.99,-41.16 -1.72,-4.88 -3.96,-13.84 -5.5,-18.87 -5.59,-18.2 -9.87,-25.89 -16.69,-50.46 -1.08,-3.89 -2.18,-3.48 -3.26,-8.42 -0.83,-3.74 0.23,-2.25 -1.37,-6.67 -1.89,-5.23 -1.32,-2.15 -3.35,-7.74l-9.36 -27.86c-2.29,-5.54 -4.55,-9.94 -6.75,-15.62 -5.19,-13.35 -9.65,-32.18 -16.12,-43.42 -3.36,-5.83 -8.84,-26.16 -16.49,-42.44 -1.98,-4.21 -4.15,-11.68 -6.16,-17.18 -1.23,-3.38 -1.88,-5.44 -3.11,-8.5l-34.34 -88.46c-1.91,-5.82 -2.86,-12.82 -5.17,-19.75 -4.37,-13.11 -8.54,-22.03 -13.51,-33.6 -2.36,-5.49 -4.34,-10.27 -6.82,-15.44l-14.4 -31.44c-3.68,-9.83 -2.05,-11.15 -0.68,-19.43 -18.97,-29.79 -12.24,-23.93 -19.77,-38.66l-17.44 -30.5c-3.37,-5.69 -16.93,-27.59 -17.77,-31.99l3.19 -1.18 -2.38 -17.52c-5.95,-0.4 -15.07,-10.7 -19.02,-16.9 -12.51,17.63 -24.44,37.75 -35.97,57.09 -8.51,14.28 -18.25,29.81 -25.06,45.94 -2.6,6.14 -4.53,11.14 -10.16,13.44l-3.1 -7.2c-0.04,-0.11 -0.1,-0.56 -0.21,-0.78 -7.3,5.8 -11.16,22.88 -15.25,33.66 -2.08,5.49 -2.25,8.55 -4.48,13.35 -7.27,15.67 -13.76,30.44 -21.44,45.23 -7.74,14.92 -15.3,28.44 -22.62,44l-22.08 44.55c-3.72,7.33 -6.95,13.87 -10.95,21.62 -4.49,8.69 -6.83,14.31 -10.5,23.59 -3.47,8.78 -7.76,13.09 -11.51,21.04 -3.25,6.9 -0.52,4.44 -4.77,11.55l-17.53 32.79c-3.41,5.9 -1.43,5.69 -4.4,11.92l-27.49 53.34c-1.62,1.37 -2.44,1.06 -1.65,-2.77 1.07,-5.17 3.16,-8.62 5.42,-12.23 4.19,-6.7 4.7,-10.44 8.06,-17.13l19.56 -42.68c1.81,-4.22 2.56,-5.13 4.33,-9l72.2 -154.51c4.97,-10.52 12.23,-23.6 15.01,-35.41z"/>
 </g>
</svg>
