<?xml version="1.0" encoding="UTF-8"?>
<!DOCTYPE svg PUBLIC "-//W3C//DTD SVG 1.1//EN" "http://www.w3.org/Graphics/SVG/1.1/DTD/svg11.dtd">
<!-- Creator: CorelDRAW (Versión de evaluación) -->
<svg xmlns="http://www.w3.org/2000/svg" xml:space="preserve" width="739px" height="2458px" version="1.1" style="shape-rendering:geometricPrecision; text-rendering:geometricPrecision; image-rendering:optimizeQuality; fill-rule:evenodd; clip-rule:evenodd"
viewBox="0 0 739 2457.4"
 xmlns:xlink="http://www.w3.org/1999/xlink"
 xmlns:xodm="http://www.corel.com/coreldraw/odm/2003">
 <defs>
  <style type="text/css">
   <![CDATA[
    .str0 {stroke:#373435;stroke-width:10;stroke-miterlimit:22.9256}
    .fil0 {fill:#FEFEFE}
    .fil1 {fill:#DC3438;fill-rule:nonzero}
   ]]>
  </style>
 </defs>
 <g id="tooth-extraction-35">
  <metadata id="CorelCorpID_0Corel-Layer"/>
  <path id="root" class="fil0 str0" d="M507.76 2455.72c-111.82,21.73 -172.82,-173.87 -209.94,-271.91 -120.47,-318.13 -126.85,-541.65 -107.37,-869.25 14.08,-236.76 -45.72,-370.18 -44.57,-451.84 136.29,-21.51 188.93,81.7 265.09,60.73 109.36,-30.1 59.21,-96.17 247.29,-81.94 13.05,653.68 -119.72,934.16 -140.02,1197.48 -18.38,238.28 41.96,338.28 -10.48,416.73z"/>
  <path id="crown" class="fil0 str0" d="M719.53 255.51c23.7,38.34 18.63,153.52 18.52,203.33 -0.24,95.42 -10.93,294.82 -78.59,352.64 -60.02,-0.05 -68.7,-14.39 -135.05,11.72 -146.56,57.68 -64.24,118.44 -236.07,29.88 -64.04,-33.01 -100.51,-18.2 -166.68,-15.78 -73.21,-131.5 -97.56,-306.9 -114.54,-474.59 -7.54,-74.44 -25.93,-208.45 50.24,-238.99 152.14,-60.98 259.35,-182.78 396.22,-90.04 27.91,18.92 52.64,45.31 74.8,68.59 38.68,40.62 181.4,137.48 191.15,153.24z"/>
  <path class="fil1" d="M-0.41 2457.4l311.67 -1275.03 -274.5 -1182.36 127.11 0 147.02 628.65c30.6,130.42 51.82,229.95 64.02,299.16 18.21,-85.8 39.62,-177.32 64.21,-274l161.1 -653.81 116.97 0 -280.13 1168.06 301.53 1289.33 -131.05 0 -203.53 -876.33c-11.64,-49.77 -22.72,-99.54 -33.23,-148.73 -17.84,82.37 -30.61,140.15 -38.68,172.75l-204.28 852.31 -128.23 0z"/>
 </g>
</svg>
