<!-- Creator: CorelDRAW (Versión de evaluación) -->
<svg xmlns="http://www.w3.org/2000/svg" xml:space="preserve" width="500px" height="2062px" version="1.1" style="shape-rendering:geometricPrecision; text-rendering:geometricPrecision; image-rendering:optimizeQuality; fill-rule:evenodd; clip-rule:evenodd"
viewBox="0 0 500 2061.16"
 xmlns:xlink="http://www.w3.org/1999/xlink"
 xmlns:xodm="http://www.corel.com/coreldraw/odm/2003">
 <defs>
  <style type="text/css">
   <![CDATA[
    .fil2 {fill:#4B4B4D}
    .fil1 {fill:#EDEAE0}
    .fil0 {fill:#F2E6C9}
    .fil3 {fill:#ED3237;fill-rule:nonzero}
   ]]>
  </style>
 </defs>
 <g id="extraction">
  <metadata id="CorelCorpID_0Corel-Layer"/>
  <polygon id="root" class="fil0" points="233.16,267.6 240.35,267.6 240.35,271.2 243.95,271.2 243.95,278.4 247.55,278.4 247.55,281.99 251.15,281.99 251.15,289.19 254.74,289.19 254.74,296.38 258.34,296.38 258.34,303.57 261.94,303.57 261.94,310.77 265.53,310.77 265.53,321.56 269.13,321.56 269.13,328.75 272.73,328.75 272.73,339.54 276.32,339.54 276.32,350.34 279.92,350.34 279.92,361.13 283.52,361.13 283.52,375.52 287.11,375.52 287.11,382.71 290.71,382.71 290.71,397.1 294.31,397.1 294.31,407.89 297.9,407.89 297.9,425.88 301.5,425.88 301.5,440.27 305.1,440.27 305.1,451.06 308.7,451.06 308.7,469.04 312.3,469.04 312.3,490.63 315.89,490.63 315.89,505.02 319.49,505.02 319.49,526.6 323.09,526.6 323.09,540.98 326.69,540.98 326.69,555.37 330.28,555.37 330.28,580.56 333.88,580.56 333.88,591.35 337.48,591.35 337.48,612.93 341.07,612.93 341.07,641.71 344.67,641.71 344.67,659.69 348.27,659.69 348.27,692.06 351.86,692.06 351.86,713.65 355.46,713.65 355.46,760.41 359.06,760.41 359.06,778.4 362.65,778.4 362.65,828.76 366.25,828.76 366.25,843.14 369.85,843.14 369.85,897.1 373.45,897.1 373.45,951.06 377.04,951.06 377.04,983.43 380.64,983.43 380.64,1062.57 384.24,1062.57 384.24,1112.93 387.84,1112.93 387.84,1253.22 391.43,1253.22 391.43,1343.15 395.03,1343.15 395.03,1379.12 398.63,1379.12 398.63,1433.08 402.23,1433.08 402.23,1443.87 398.63,1443.87 398.63,1436.67 395.03,1436.67 395.03,1433.08 391.43,1433.08 391.43,1425.88 387.84,1425.88 387.84,1422.28 384.24,1422.28 384.24,1415.09 380.64,1415.09 380.64,1411.49 377.04,1411.49 377.04,1404.3 373.45,1404.3 373.45,1400.7 369.85,1400.7 369.85,1397.11 366.25,1397.11 366.25,1393.51 362.65,1393.51 362.65,1389.91 359.06,1389.91 359.06,1386.32 355.46,1386.32 355.46,1382.72 351.86,1382.72 351.86,1379.12 348.27,1379.12 348.27,1375.52 341.07,1375.52 341.07,1371.93 337.48,1371.93 337.48,1368.33 333.88,1368.33 333.88,1364.73 326.69,1364.73 326.69,1361.13 319.49,1361.13 319.49,1357.54 312.3,1357.54 312.3,1353.94 301.5,1353.94 301.5,1350.34 290.71,1350.34 290.71,1346.74 276.32,1346.74 276.32,1343.15 229.56,1343.15 229.56,1346.74 218.77,1346.74 218.77,1350.34 207.98,1350.34 207.98,1353.94 200.78,1353.94 200.78,1357.54 193.59,1357.54 193.59,1361.13 186.4,1361.13 186.4,1364.73 182.8,1364.73 182.8,1368.33 175.61,1368.33 175.61,1371.93 172.01,1371.93 172.01,1375.52 168.41,1375.52 168.41,1379.12 164.81,1379.12 164.81,1382.72 157.62,1382.72 157.62,1386.32 154.02,1386.32 154.02,1393.51 150.42,1393.51 150.42,1397.11 146.83,1397.11 146.83,1400.7 143.23,1400.7 143.23,1404.3 139.63,1404.3 139.63,1407.9 136.03,1407.9 136.03,1411.49 132.44,1411.49 132.44,1418.69 128.84,1418.69 128.84,1422.28 125.24,1422.28 125.24,1425.88 121.65,1425.88 121.65,1433.08 118.05,1433.08 118.05,1440.27 114.45,1440.27 114.45,1443.87 110.86,1443.87 110.86,1451.06 107.26,1451.06 107.26,1458.26 103.66,1458.26 103.66,1465.45 100.07,1465.45 100.07,1469.05 96.47,1469.05 96.47,1476.24 92.87,1476.24 92.87,1433.08 96.47,1433.08 96.47,1382.72 100.07,1382.72 100.07,1332.36 103.66,1332.36 103.66,1282 107.26,1282 107.26,1213.65 110.86,1213.65 110.86,1174.08 114.45,1174.08 114.45,1141.71 118.05,1141.71 118.05,1109.33 121.65,1109.33 121.65,1076.96 125.24,1076.96 125.24,1037.39 128.84,1037.39 128.84,1015.81 132.44,1015.81 132.44,994.23 136.03,994.23 136.03,969.04 139.63,969.04 139.63,951.06 143.23,951.06 143.23,925.88 146.83,925.88 146.83,911.49 150.42,911.49 150.42,886.31 154.02,886.31 154.02,868.33 157.62,868.33 157.62,843.14 161.21,843.14 161.21,832.35 164.81,832.35 164.81,807.18 168.41,807.18 168.41,789.19 172.01,789.19 172.01,771.2 175.61,771.2 175.61,756.81 179.2,756.81 179.2,728.04 182.8,728.04 182.8,706.45 186.4,706.45 186.4,674.08 189.99,674.08 189.99,652.5 193.59,652.5 193.59,627.32 197.19,627.32 197.19,594.94 200.78,594.94 200.78,562.57 204.38,562.57 204.38,436.67 200.78,436.67 200.78,307.17 204.38,307.17 204.38,289.19 207.98,289.19 207.98,281.99 211.57,281.99 211.57,274.8 215.17,274.8 215.17,267.6 218.77,267.6 218.77,264 233.16,264 "/>
  <polygon id="crown" class="fil1" points="276.32,1364.73 283.52,1364.73 283.52,1368.33 297.9,1368.33 297.9,1371.93 305.1,1371.93 305.1,1375.52 312.3,1375.52 312.3,1379.12 319.49,1379.12 319.49,1382.72 323.09,1382.72 323.09,1386.32 330.28,1386.32 330.28,1389.91 333.88,1389.91 333.88,1393.51 337.48,1393.51 337.48,1397.11 341.07,1397.11 341.07,1400.7 344.67,1400.7 344.67,1404.3 348.27,1404.3 348.27,1407.9 351.86,1407.9 351.86,1411.49 355.46,1411.49 355.46,1415.09 359.06,1415.09 359.06,1418.69 362.65,1418.69 362.65,1425.88 366.25,1425.88 366.25,1429.48 369.85,1429.48 369.85,1433.08 373.45,1433.08 373.45,1440.27 377.04,1440.27 377.04,1443.87 380.64,1443.87 380.64,1451.06 384.24,1451.06 384.24,1454.66 387.84,1454.66 387.84,1461.86 391.43,1461.86 391.43,1469.05 395.03,1469.05 395.03,1476.24 398.63,1476.24 398.63,1483.44 402.23,1483.44 402.23,1494.23 405.82,1494.23 405.82,1505.02 409.42,1505.02 409.42,1515.81 413.02,1515.81 413.02,1530.2 416.61,1530.2 416.61,1548.19 420.21,1548.19 420.21,1558.98 423.81,1558.98 423.81,1569.77 427.4,1569.77 427.4,1580.56 431,1580.56 431,1591.35 434.6,1591.35 434.6,1602.15 438.19,1602.15 438.19,1612.94 441.79,1612.94 441.79,1623.73 445.39,1623.73 445.39,1634.52 448.99,1634.52 448.99,1648.91 452.58,1648.91 452.58,1656.1 456.18,1656.1 456.18,1666.89 459.78,1666.89 459.78,1681.28 463.38,1681.28 463.38,1688.48 466.97,1688.48 466.97,1702.86 470.57,1702.86 470.57,1724.45 474.17,1724.45 474.17,1738.84 477.77,1738.84 477.77,1803.58 474.17,1803.58 474.17,1821.57 470.57,1821.57 470.57,1835.96 466.97,1835.96 466.97,1846.75 463.38,1846.75 463.38,1857.54 459.78,1857.54 459.78,1864.73 456.18,1864.73 456.18,1868.33 452.58,1868.33 452.58,1875.53 448.99,1875.53 448.99,1879.12 445.39,1879.12 445.39,1882.72 441.79,1882.72 441.79,1886.32 438.19,1886.32 438.19,1889.92 434.6,1889.92 434.6,1893.51 431,1893.51 431,1897.11 427.4,1897.11 427.4,1900.71 420.21,1900.71 420.21,1904.3 416.61,1904.3 416.61,1907.9 409.42,1907.9 409.42,1911.5 405.82,1911.5 405.82,1915.09 398.63,1915.09 398.63,1918.69 391.43,1918.69 391.43,1922.29 387.84,1922.29 387.84,1925.88 380.64,1925.88 380.64,1929.48 373.45,1929.48 373.45,1933.08 366.25,1933.08 366.25,1936.68 362.65,1936.68 362.65,1940.27 359.06,1940.27 359.06,1943.87 351.86,1943.87 351.86,1947.47 344.67,1947.47 344.67,1951.07 337.48,1951.07 337.48,1954.66 333.88,1954.66 333.88,1958.26 330.28,1958.26 330.28,1961.86 323.09,1961.86 323.09,1965.46 319.49,1965.46 319.49,1969.05 312.3,1969.05 312.3,1972.65 308.7,1972.65 308.7,1976.25 305.1,1976.25 305.1,1979.84 297.9,1979.84 297.9,1983.44 290.71,1983.44 290.71,1987.04 287.11,1987.04 287.11,1990.63 279.92,1990.63 279.92,1994.23 269.13,1994.23 269.13,1997.83 225.96,1997.83 225.96,1994.23 218.77,1994.23 218.77,1990.63 211.57,1990.63 211.57,1987.04 204.38,1987.04 204.38,1983.44 200.78,1983.44 200.78,1979.84 193.59,1979.84 193.59,1976.25 189.99,1976.25 189.99,1972.65 186.4,1972.65 186.4,1969.05 179.2,1969.05 179.2,1965.46 175.61,1965.46 175.61,1961.86 172.01,1961.86 172.01,1958.26 164.81,1958.26 164.81,1954.66 161.21,1954.66 161.21,1951.07 157.62,1951.07 157.62,1947.47 150.42,1947.47 150.42,1943.87 146.83,1943.87 146.83,1940.27 139.63,1940.27 139.63,1936.68 136.03,1936.68 136.03,1933.08 128.84,1933.08 128.84,1929.48 121.65,1929.48 121.65,1925.88 118.05,1925.88 118.05,1922.29 110.86,1922.29 110.86,1918.69 107.26,1918.69 107.26,1915.09 100.07,1915.09 100.07,1911.5 96.47,1911.5 96.47,1907.9 89.27,1907.9 89.27,1904.3 82.08,1904.3 82.08,1900.71 78.48,1900.71 78.48,1897.11 71.28,1897.11 71.28,1893.51 67.69,1893.51 67.69,1889.92 64.09,1889.92 64.09,1886.32 60.49,1886.32 60.49,1882.72 56.9,1882.72 56.9,1879.12 53.3,1879.12 53.3,1875.53 49.7,1875.53 49.7,1871.93 46.11,1871.93 46.11,1864.73 42.51,1864.73 42.51,1861.14 38.91,1861.14 38.91,1853.94 35.32,1853.94 35.32,1846.75 31.72,1846.75 31.72,1839.56 28.12,1839.56 28.12,1821.57 24.52,1821.57 24.52,1742.43 28.12,1742.43 28.12,1724.45 31.72,1724.45 31.72,1706.46 35.32,1706.46 35.32,1692.07 38.91,1692.07 38.91,1681.28 42.51,1681.28 42.51,1670.49 46.11,1670.49 46.11,1656.1 49.7,1656.1 49.7,1648.91 53.3,1648.91 53.3,1638.11 56.9,1638.11 56.9,1627.32 60.49,1627.32 60.49,1616.53 64.09,1616.53 64.09,1609.34 67.69,1609.34 67.69,1594.95 71.28,1594.95 71.28,1587.75 74.88,1587.75 74.88,1576.96 78.48,1576.96 78.48,1566.17 82.08,1566.17 82.08,1555.38 85.67,1555.38 85.67,1544.59 89.27,1544.59 89.27,1530.2 92.87,1530.2 92.87,1526.6 96.47,1526.6 96.47,1515.81 100.07,1515.81 100.07,1508.62 103.66,1508.62 103.66,1501.42 107.26,1501.42 107.26,1490.63 110.86,1490.63 110.86,1483.44 114.45,1483.44 114.45,1476.24 118.05,1476.24 118.05,1472.65 121.65,1472.65 121.65,1465.45 125.24,1465.45 125.24,1458.26 128.84,1458.26 128.84,1451.06 132.44,1451.06 132.44,1443.87 136.03,1443.87 136.03,1440.27 139.63,1440.27 139.63,1433.08 143.23,1433.08 143.23,1429.48 146.83,1429.48 146.83,1425.88 150.42,1425.88 150.42,1418.69 154.02,1418.69 154.02,1415.09 157.62,1415.09 157.62,1411.49 161.21,1411.49 161.21,1407.9 164.81,1407.9 164.81,1404.3 168.41,1404.3 168.41,1400.7 172.01,1400.7 172.01,1397.11 175.61,1397.11 175.61,1393.51 179.2,1393.51 179.2,1389.91 182.8,1389.91 182.8,1386.32 186.4,1386.32 186.4,1382.72 189.99,1382.72 189.99,1379.12 197.19,1379.12 197.19,1375.52 204.38,1375.52 204.38,1371.93 211.57,1371.93 211.57,1368.33 222.37,1368.33 222.37,1364.73 236.76,1364.73 236.76,1361.13 276.32,1361.13 "/>
  <path id="outline" class="fil2" d="M477.77 1738.84l-3.6 0 0 -14.39 -3.6 0 0 -21.59 -3.6 0 0 -14.38 -3.59 0 0 -7.2 -3.6 0 0 -14.39 -3.6 0 0 -10.79 -3.6 0 0 -7.19 -3.59 0 0 -14.39 -3.6 0 0 -10.79 -3.6 0 0 -10.79 -3.6 0 0 -10.79 -3.59 0 0 -10.8 -3.6 0 0 -10.79 -3.6 0 0 -10.79 -3.59 0 0 -10.79 -3.6 0 0 -10.79 -3.6 0 0 -17.99 -3.59 0 0 -14.39 -3.6 0 0 -10.79 -3.6 0 0 -10.79 -3.59 0 0 -10.79 -3.6 0 0 -7.2 -3.6 0 0 -7.19 -3.6 0 0 -7.19 -3.59 0 0 -7.2 -3.6 0 0 -3.6 -3.6 0 0 -7.19 -3.6 0 0 -3.6 -3.59 0 0 -7.19 -3.6 0 0 -3.6 -3.6 0 0 -3.6 -3.6 0 0 -7.19 -3.59 0 0 -3.6 -3.6 0 0 -3.6 -3.6 0 0 -3.59 -3.59 0 0 -3.6 -3.6 0 0 -3.6 -3.6 0 0 -3.59 -3.59 0 0 -3.6 -3.6 0 0 -3.6 -3.6 0 0 -3.59 -7.19 0 0 -3.6 -3.6 0 0 -3.6 -7.19 0 0 -3.6 -7.2 0 0 -3.59 -7.2 0 0 -3.6 -14.38 0 0 -3.6 -7.2 0 0 -3.6 -39.56 0 0 3.6 -14.39 0 0 3.6 -10.8 0 0 3.6 -7.19 0 0 3.59 -7.19 0 0 3.6 -7.2 0 0 3.6 -3.59 0 0 3.6 -3.6 0 0 3.59 -3.6 0 0 3.6 -3.59 0 0 3.6 -3.6 0 0 3.59 -3.6 0 0 3.6 -3.6 0 0 3.6 -3.6 0 0 3.59 -3.59 0 0 3.6 -3.6 0 0 3.6 -3.6 0 0 7.19 -3.59 0 0 3.6 -3.6 0 0 3.6 -3.6 0 0 7.19 -3.6 0 0 3.6 -3.59 0 0 7.19 -3.6 0 0 7.2 -3.6 0 0 7.19 -3.59 0 0 7.2 -3.6 0 0 3.59 -3.6 0 0 7.2 -3.59 0 0 7.19 -3.6 0 0 10.79 -3.6 0 0 7.2 -3.59 0 0 7.19 -3.6 0 0 10.79 -3.6 0 0 3.6 -3.6 0 0 14.39 -3.6 0 0 10.79 -3.59 0 0 10.79 -3.6 0 0 10.79 -3.6 0 0 10.79 -3.6 0 0 7.2 -3.59 0 0 14.39 -3.6 0 0 7.19 -3.6 0 0 10.79 -3.59 0 0 10.79 -3.6 0 0 10.8 -3.6 0 0 7.19 -3.59 0 0 14.39 -3.6 0 0 10.79 -3.6 0 0 10.79 -3.59 0 0 14.39 -3.6 0 0 17.99 -3.6 0 0 17.98 -3.6 0 0 79.14 3.6 0 0 17.99 3.6 0 0 7.19 3.6 0 0 7.19 3.59 0 0 7.2 3.6 0 0 3.59 3.6 0 0 7.2 3.59 0 0 3.6 3.6 0 0 3.59 3.6 0 0 3.6 3.59 0 0 3.6 3.6 0 0 3.6 3.6 0 0 3.59 3.59 0 0 3.6 7.2 0 0 3.6 3.6 0 0 3.59 7.19 0 0 3.6 7.2 0 0 3.6 3.6 0 0 3.59 7.19 0 0 3.6 3.6 0 0 3.6 7.19 0 0 3.59 3.6 0 0 3.6 7.19 0 0 3.6 7.19 0 0 3.6 3.6 0 0 3.59 7.2 0 0 3.6 3.59 0 0 3.6 7.2 0 0 3.6 3.59 0 0 3.59 3.6 0 0 3.6 7.2 0 0 3.6 3.6 0 0 3.6 3.59 0 0 3.59 7.2 0 0 3.6 3.59 0 0 3.6 3.6 0 0 3.59 7.19 0 0 3.6 3.6 0 0 3.6 7.19 0 0 3.59 7.2 0 0 3.6 7.19 0 0 3.6 43.17 0 0 -3.6 10.79 0 0 -3.6 7.19 0 0 -3.59 3.6 0 0 -3.6 7.19 0 0 -3.6 7.2 0 0 -3.59 3.6 0 0 -3.6 3.6 0 0 -3.6 7.19 0 0 -3.59 3.6 0 0 -3.6 7.19 0 0 -3.6 3.6 0 0 -3.6 3.6 0 0 -3.59 7.19 0 0 -3.6 7.19 0 0 -3.6 7.2 0 0 -3.6 3.59 0 0 -3.59 3.6 0 0 -3.6 7.2 0 0 -3.6 7.19 0 0 -3.6 7.2 0 0 -3.59 3.59 0 0 -3.6 7.2 0 0 -3.6 7.19 0 0 -3.59 3.6 0 0 -3.6 7.19 0 0 -3.6 3.6 0 0 -3.59 7.19 0 0 -3.6 3.6 0 0 -3.6 3.6 0 0 -3.59 3.59 0 0 -3.6 3.6 0 0 -3.6 3.6 0 0 -3.6 3.6 0 0 -3.59 3.59 0 0 -7.2 3.6 0 0 -3.6 3.6 0 0 -7.19 3.6 0 0 -10.79 3.59 0 0 -10.79 3.6 0 0 -14.39 3.6 0 0 -17.99 3.6 0 0 -64.74zm-273.39 -1176.27l-3.6 0 0 32.37 -3.59 0 0 32.38 -3.6 0 0 25.18 -3.6 0 0 21.58 -3.59 0 0 32.37 -3.6 0 0 21.59 -3.6 0 0 28.77 -3.59 0 0 14.39 -3.6 0 0 17.99 -3.6 0 0 17.99 -3.6 0 0 25.17 -3.6 0 0 10.79 -3.59 0 0 25.19 -3.6 0 0 17.98 -3.6 0 0 25.18 -3.59 0 0 14.39 -3.6 0 0 25.18 -3.6 0 0 17.98 -3.6 0 0 25.19 -3.59 0 0 21.58 -3.6 0 0 21.58 -3.6 0 0 39.57 -3.59 0 0 32.37 -3.6 0 0 32.38 -3.6 0 0 32.37 -3.59 0 0 39.57 -3.6 0 0 68.35 -3.6 0 0 50.36 -3.59 0 0 50.36 -3.6 0 0 50.36 -3.6 0 0 43.16 3.6 0 0 -7.19 3.6 0 0 -3.6 3.59 0 0 -7.19 3.6 0 0 -7.2 3.6 0 0 -7.19 3.59 0 0 -3.6 3.6 0 0 -7.19 3.6 0 0 -7.2 3.59 0 0 -3.6 3.6 0 0 -3.59 3.6 0 0 -7.2 3.59 0 0 -3.59 3.6 0 0 -3.6 3.6 0 0 -3.6 3.6 0 0 -3.59 3.59 0 0 -3.6 3.6 0 0 -7.19 3.6 0 0 -3.6 7.19 0 0 -3.6 3.6 0 0 -3.6 3.6 0 0 -3.59 3.6 0 0 -3.6 7.19 0 0 -3.6 3.6 0 0 -3.6 7.19 0 0 -3.59 7.19 0 0 -3.6 7.2 0 0 -3.6 10.79 0 0 -3.6 10.79 0 0 -3.59 46.76 0 0 3.59 14.39 0 0 3.6 10.79 0 0 3.6 10.8 0 0 3.6 7.19 0 0 3.59 7.2 0 0 3.6 7.19 0 0 3.6 3.6 0 0 3.6 3.59 0 0 3.59 7.2 0 0 3.6 3.59 0 0 3.6 3.6 0 0 3.6 3.6 0 0 3.59 3.59 0 0 3.6 3.6 0 0 3.6 3.6 0 0 3.59 3.6 0 0 3.6 3.59 0 0 7.19 3.6 0 0 3.6 3.6 0 0 7.19 3.6 0 0 3.6 3.59 0 0 7.2 3.6 0 0 3.59 3.6 0 0 7.2 3.6 0 0 -10.79 -3.6 0 0 -53.96 -3.6 0 0 -35.97 -3.6 0 0 -89.93 -3.59 0 0 -140.29 -3.6 0 0 -50.36 -3.6 0 0 -79.14 -3.6 0 0 -32.37 -3.59 0 0 -53.96 -3.6 0 0 -53.96 -3.6 0 0 -14.38 -3.6 0 0 -50.36 -3.59 0 0 -17.99 -3.6 0 0 -46.76 -3.6 0 0 -21.59 -3.59 0 0 -32.37 -3.6 0 0 -17.98 -3.6 0 0 -28.78 -3.59 0 0 -21.58 -3.6 0 0 -10.79 -3.6 0 0 -25.19 -3.59 0 0 -14.39 -3.6 0 0 -14.38 -3.6 0 0 -21.58 -3.6 0 0 -14.39 -3.59 0 0 -21.59 -3.6 0 0 -17.98 -3.6 0 0 -10.79 -3.6 0 0 -14.39 -3.6 0 0 -17.99 -3.59 0 0 -10.79 -3.6 0 0 -14.39 -3.6 0 0 -7.19 -3.59 0 0 -14.39 -3.6 0 0 -10.79 -3.6 0 0 -10.8 -3.59 0 0 -10.79 -3.6 0 0 -7.19 -3.6 0 0 -10.79 -3.59 0 0 -7.2 -3.6 0 0 -7.19 -3.6 0 0 -7.19 -3.59 0 0 -7.2 -3.6 0 0 -3.59 -3.6 0 0 -7.2 -3.6 0 0 -3.6 -7.19 0 0 -3.6 -14.39 0 0 3.6 -3.6 0 0 7.2 -3.6 0 0 7.19 -3.59 0 0 7.2 -3.6 0 0 17.98 -3.6 0 0 129.5 3.6 0 0 125.9zm32.38 -320.15l7.19 0 0 3.6 7.2 0 0 3.59 3.59 0 0 3.6 3.6 0 0 7.2 3.6 0 0 3.59 3.59 0 0 3.6 3.6 0 0 7.2 3.6 0 0 7.19 3.59 0 0 7.2 3.6 0 0 7.19 3.6 0 0 7.19 3.59 0 0 10.79 3.6 0 0 7.2 3.6 0 0 14.39 3.59 0 0 10.79 3.6 0 0 10.79 3.6 0 0 7.2 3.6 0 0 17.98 3.6 0 0 10.79 3.59 0 0 14.39 3.6 0 0 7.2 3.6 0 0 14.38 3.6 0 0 14.39 3.59 0 0 14.39 3.6 0 0 21.58 3.6 0 0 10.8 3.59 0 0 25.18 3.6 0 0 10.79 3.6 0 0 21.58 3.59 0 0 17.98 3.6 0 0 21.59 3.6 0 0 28.77 3.59 0 0 14.39 3.6 0 0 25.19 3.6 0 0 25.17 3.6 0 0 32.38 3.59 0 0 17.99 3.6 0 0 32.37 3.6 0 0 35.97 3.6 0 0 32.37 3.59 0 0 43.17 3.6 0 0 28.78 3.6 0 0 46.76 3.6 0 0 46.76 3.59 0 0 147.48 3.6 0 0 100.73 3.6 0 0 89.92 3.59 0 0 32.38 3.6 0 0 46.76 3.6 0 0 32.38 3.59 0 0 46.76 3.6 0 0 14.39 3.6 0 0 17.98 3.59 0 0 17.99 3.6 0 0 7.19 3.6 0 0 10.79 3.6 0 0 10.79 3.59 0 0 10.8 3.6 0 0 10.79 3.6 0 0 10.79 3.6 0 0 7.2 3.59 0 0 10.79 3.6 0 0 14.38 3.6 0 0 7.2 3.6 0 0 14.39 3.59 0 0 7.19 3.6 0 0 14.39 3.6 0 0 14.39 3.59 0 0 17.98 3.6 0 0 25.19 3.6 0 0 82.73 -3.6 0 0 10.79 -3.6 0 0 14.39 -3.59 0 0 10.79 -3.6 0 0 7.19 -3.6 0 0 7.2 -3.59 0 0 7.19 -3.6 0 0 3.6 -3.6 0 0 7.2 -3.6 0 0 3.59 -3.59 0 0 3.6 -3.6 0 0 3.6 -3.6 0 0 3.59 -3.6 0 0 3.6 -3.59 0 0 3.6 -3.6 0 0 3.59 -3.6 0 0 3.6 -7.19 0 0 3.6 -3.6 0 0 3.59 -7.19 0 0 3.6 -7.2 0 0 3.6 -3.59 0 0 3.6 -7.2 0 0 3.59 -3.59 0 0 3.6 -7.2 0 0 3.6 -7.19 0 0 3.6 -3.6 0 0 3.59 -7.2 0 0 3.6 -7.19 0 0 3.6 -7.2 0 0 3.6 -3.59 0 0 3.59 -3.6 0 0 3.6 -7.19 0 0 3.6 -7.2 0 0 3.59 -3.59 0 0 3.6 -3.6 0 0 3.6 -7.19 0 0 3.59 -3.6 0 0 3.6 -7.2 0 0 3.6 -7.19 0 0 3.59 -3.6 0 0 3.6 -7.2 0 0 3.6 -7.19 0 0 3.6 -7.19 0 0 3.59 -7.2 0 0 3.6 -14.38 0 0 3.6 -28.78 0 0 -3.6 -14.39 0 0 -3.6 -7.2 0 0 -3.59 -7.19 0 0 -3.6 -7.19 0 0 -3.6 -7.2 0 0 -3.6 -3.59 0 0 -3.59 -7.2 0 0 -3.6 -3.59 0 0 -3.6 -3.6 0 0 -3.59 -7.2 0 0 -3.6 -3.6 0 0 -3.6 -7.19 0 0 -3.59 -3.6 0 0 -3.6 -3.59 0 0 -3.6 -7.2 0 0 -3.59 -3.6 0 0 -3.6 -7.19 0 0 -3.6 -3.6 0 0 -3.6 -7.19 0 0 -3.59 -3.6 0 0 -3.6 -7.19 0 0 -3.6 -3.6 0 0 -3.6 -7.19 0 0 -3.59 -7.2 0 0 -3.6 -3.6 0 0 -3.6 -7.19 0 0 -3.6 -3.6 0 0 -3.59 -7.19 0 0 -3.6 -3.6 0 0 -3.6 -3.6 0 0 -3.59 -7.19 0 0 -3.6 -3.6 0 0 -3.6 -3.59 0 0 -3.59 -3.6 0 0 -3.6 -3.6 0 0 -3.6 -3.59 0 0 -3.59 -3.6 0 0 -3.6 -3.6 0 0 -3.6 -3.6 0 0 -3.6 -3.59 0 0 -7.19 -3.6 0 0 -7.2 -3.6 0 0 -10.79 -3.59 0 0 -7.19 -3.6 0 0 -14.39 -3.6 0 0 -17.98 -3.6 0 0 -64.75 3.6 0 0 -17.99 3.6 0 0 -17.99 3.6 0 0 -14.38 3.59 0 0 -14.39 3.6 0 0 -10.79 3.6 0 0 -10.8 3.59 0 0 -14.38 3.6 0 0 -7.2 3.6 0 0 -10.79 3.6 0 0 -7.19 3.59 0 0 -10.79 3.6 0 0 -10.79 3.6 0 0 -10.8 3.59 0 0 -10.79 3.6 0 0 -7.2 3.6 0 0 -17.98 3.59 0 0 -7.19 3.6 0 0 -32.38 3.6 0 0 -39.57 3.59 0 0 -53.96 3.6 0 0 -39.56 3.6 0 0 -57.56 3.6 0 0 -64.75 3.59 0 0 -61.15 3.6 0 0 -28.77 3.6 0 0 -39.57 3.6 0 0 -35.97 3.6 0 0 -32.38 3.59 0 0 -32.37 3.6 0 0 -28.78 3.6 0 0 -21.59 3.59 0 0 -17.98 3.6 0 0 -17.98 3.6 0 0 -14.39 3.59 0 0 -28.78 3.6 0 0 -14.39 3.6 0 0 -21.58 3.59 0 0 -28.78 3.6 0 0 -21.58 3.6 0 0 -7.19 3.6 0 0 -28.78 3.59 0 0 -10.8 3.6 0 0 -25.17 3.6 0 0 -21.59 3.59 0 0 -21.58 3.6 0 0 -25.18 3.6 0 0 -17.98 3.6 0 0 -32.38 3.6 0 0 -39.57 3.59 0 0 -287.77 3.6 0 0 -10.79 3.6 0 0 -10.79 3.59 0 0 -7.2 3.6 0 0 -7.19 3.6 0 0 -7.2 3.59 0 0 -3.6 3.6 0 0 -3.59 3.6 0 0 -3.6 7.19 0 0 -3.6 21.59 0 0 3.6z"/>
  <path class="fil3" d="M499.35 1846.12l-210.88 -521.94 185.72 -483.99 -86 0 -99.47 257.33c-20.7,53.39 -35.06,94.13 -43.31,122.47 -12.32,-35.13 -26.81,-72.59 -43.45,-112.17l-108.99 -267.63 -79.14 0 189.53 478.14 -204.02 527.79 88.67 0 137.71 -358.73c7.87,-20.37 15.37,-40.74 22.48,-60.88 12.07,33.72 20.71,57.37 26.17,70.71l138.21 348.9 86.77 0z"/>
 </g>
</svg>