<?xml version="1.0" encoding="UTF-8"?>
<!DOCTYPE svg PUBLIC "-//W3C//DTD SVG 1.1//EN" "http://www.w3.org/Graphics/SVG/1.1/DTD/svg11.dtd">
<!-- Creator: CorelDRAW (Versión de evaluación) -->
<svg xmlns="http://www.w3.org/2000/svg" xml:space="preserve" width="739px" height="2458px" version="1.1" style="shape-rendering:geometricPrecision; text-rendering:geometricPrecision; image-rendering:optimizeQuality; fill-rule:evenodd; clip-rule:evenodd"
viewBox="0 0 739 2457.4"
 xmlns:xlink="http://www.w3.org/1999/xlink"
 xmlns:xodm="http://www.corel.com/coreldraw/odm/2003">
 <defs>
  <style type="text/css">
   <![CDATA[
    .str0 {stroke:#4B4B4D;stroke-width:10;stroke-miterlimit:22.9256}
    .fil0 {fill:#FEFEFE}
   ]]>
  </style>
 </defs>
 <g id="tooth-fissure-root-12">
  <metadata id="CorelCorpID_0Corel-Layer"/>
  <path id="crown" class="fil0 str0" d="M700.59 2455.83c54.39,-54.52 36.06,-116.6 30.63,-193.93 -19.36,-275.35 -31.03,-290.87 -85.61,-558.43 -24.31,-119.12 0.1,-81.59 -100.1,-127.59 -182.91,-83.98 -154.42,-259.06 -392.18,-30.34 -87.83,84.5 -76.36,24.9 -119.31,329.84 -12.77,90.58 -42.43,316.35 -32.39,398.07 19.02,154.99 174.68,137.66 301,149.18 95.04,8.67 319.87,42.4 397.96,33.2z"/>
  <path id="root" class="fil0 str0" d="M207.1 354.11l-4.17 4.17 4.17 -4.17zm112.47 816.47l1.24 1.24c-0.08,-0.08 -1.65,-0.82 -1.24,-1.24zm-49.99 -20.83c14.57,1.22 12.24,0.87 20.83,8.34 -14.56,-1.22 -12.24,-0.87 -20.83,-8.34zm58.32 -445.72l1.25 1.24c-0.09,-0.08 -1.66,-0.83 -1.25,-1.24zm-4.16 -33.33l-4.79 -8.12 4.79 8.12zm-54.28 -652.6c-62.19,-1.98 -27.83,-22.58 -97.2,-17.21 -47.57,70.28 -19.71,81.33 -10.45,163.76 5.14,45.74 6.72,110.39 5.74,187.32 21.46,-4.1 13.23,-12.73 38.37,-13.59 10.08,-0.35 0.55,2.73 17.84,-0.93 -1.51,18.23 -4.83,21.88 -12.5,33.33l0 12.49c8.52,12.71 5.26,5.7 15,14.17 20.11,17.47 3.85,13.69 22.89,35.43 23.94,27.33 13.4,17.07 34.6,48.71 29.24,43.65 51.18,-0.05 60.08,-6.18 5.43,-3.74 1.59,-1.16 6.51,-2.38 0.44,-0.11 5.56,-0.55 8.27,-1.16 11.25,-2.54 7.42,-1.58 15.12,-5.27l8.33 -4.17c6.05,-9.03 10.97,-13.02 18.87,-22.78 7.78,-9.63 8.13,-12.29 18.43,-13.8 -2.82,-22.73 -6.02,-45.46 -9.76,-68.18 -39.41,-239.13 -127.67,-268.26 -140.14,-339.56zm-66.53 361.01l0 -8.33 4.17 -16.67 -4.17 16.67c-16.35,-1.36 -19.44,-6.25 -33.85,-7.81 -0.58,-0.06 -1.13,-0.11 -1.68,-0.16 -0.76,48.66 -2.51,101.98 -4.99,158.36 0.09,-0.4 1.26,-1.14 5.96,-4.59 8.2,-21.82 4.9,-37.42 22.07,-49.99l4.16 0 -3.47 -4.86 -0.69 4.86c0,22.75 1.75,14.71 -7.49,34.16l-9.18 15.83c0,15.12 -1.28,4.02 5.41,8.33l11.26 0c4.73,-7.08 6.32,-9.33 13.69,-15.47 9.54,-7.96 6.23,-2.35 13.62,-11.38 9.77,-11.94 9.08,-21.51 22.67,-31.47l0 -4.17c4,-9.66 4.59,-5.28 -5.54,-19.01 -7.78,-10.54 -7.02,-7 -13.97,-19.8 -7.69,-14.18 -17.58,-26.73 -17.98,-44.5zm-40.41 145.8c1.06,-3.08 -0.05,-3.27 -0.12,-3.65l-0.17 3.81 0.29 -0.16zm-1.36 23.41c-2.5,52.79 -5.6,107.97 -9.12,164.26l0.91 -0.22 0 8.33 -1.44 0.35c-6.65,105.57 -14.72,214.85 -22.98,319.59 2.71,1.38 6.31,3.18 11.19,5.49 14.37,6.82 20.05,11.92 38.22,16.16l4.17 0 58.31 4.16 4.17 0 8.33 4.17 4.17 0c5.25,-3.33 -0.52,-1.84 8.89,-3.07 7.86,-1.03 4.6,-0.22 9.93,0.31 2.87,0.28 9.51,2.55 18.67,2.76l8.33 0 1.87 -13.12 2.29 8.95 8.34 4.17c17.17,4 16.49,3.07 37.56,4.09 34.53,1.69 21.83,21.07 64.09,5.99 17.4,-6.21 10.7,-5.8 23.32,-14.25 0.42,-18.79 4.72,-22.01 8.33,-37.49 -14.35,0 -5.46,1.14 -7.09,-4.17 -43.14,-24.2 -2.77,-49.98 -51.23,-49.98 13.78,-11.42 5.49,1.5 12.83,-11.72 3.53,-6.34 3.69,-9.86 2.46,-19.89l-10.26 -40.12c-7.16,-22.97 -7.66,-16.23 -6.16,-37.4 1.12,-15.83 -4.14,-22.69 -12.61,-32.5l-2.92 -8.34 -10.23 -14.77c-5,-7.25 -6.24,-7.87 -10.6,-14.39 -18.88,5.04 -34.13,23.33 -54.16,25 15.35,-29 37.41,-19.34 37.4,-49.66 -0.03,-65.61 -15.01,-52.36 -24.9,-50.32 -2.49,3.72 -3.22,5.28 -6.72,9.94 -8.37,11.13 1.28,-1.39 -5.78,6.73 -1.33,16.05 -4.16,13.43 -4.16,33.32 -13.4,-9.82 -5.62,1.5 -9.61,-19.55 -8.79,-46.3 1.58,-17.28 -35.57,-43.58 -7.09,-5.01 -10.5,-6.05 -18.62,-10.54l-48.67 -26.31c24.42,0 48.46,8.66 66.83,20.42 16.53,10.59 25.28,16.5 45.64,21.24l4.16 0c8.05,-5.39 8.46,-6.94 15.89,-13.28l17.44 -11.71c-2.68,-11.5 -2.01,-9.39 -8.33,-16.67 -4.15,12.52 -0.97,10.96 -7.87,0.47 -4.39,-6.66 -3.29,-9.39 -6.58,-14.97 -8.47,-14.4 -16.06,-11.08 -27.21,-18.82 29.06,0 34.28,1.53 46.58,20.08 16.04,24.17 -0.74,29.34 32.57,21.58 -9.73,13.27 -6.94,3.38 -16.52,17.29l19.92 -1.41c-14.24,9.47 -16.23,8.99 -19.25,23.15 -12.92,60.42 21.07,70.97 36.68,94.27l4.16 4.16 0 4.17c5.64,0 4.56,-1.31 2.93,4.16 14.19,-3.3 6.33,-0.58 17.9,-8.33l4.17 -8.33c8.08,-2.14 6.44,-0.76 12.49,-4.16 -1.41,16.98 -2.14,16.95 -16.66,20.82l0 -8.33 4.17 -8.33c7.03,-15.2 -3.62,-23.9 -8.48,-41.51 -4.98,-18.03 -1.72,-28.48 -13.59,-41.8l-7.77 -0.57 7.77 -7.76c-2.57,-21.31 -9.45,-6.81 -15.42,-29.16 26.79,2.93 -0.33,-1.63 14.63,6.98 2.86,1.64 5.1,12.83 8.38,0.09 4.67,-18.08 -21.19,-5.53 -7.44,-20.14 7.31,-7.77 14.48,10.09 17.88,17.07l10.78 22.58c0.22,-0.61 1.01,1.75 1.59,2.58 -15.46,23.08 -20.16,18.08 -7.23,48.81 5.44,12.92 18.69,35.97 28.06,42.83 20.3,-4.73 11.44,-5.26 17.7,-11.45 0.96,-0.95 1.47,-1.54 1.78,-1.93l-0.01 -0.07c-19.35,-113.32 -24.44,-228.4 -37.49,-343.62 -2.68,2.36 -3.04,2.69 -8.04,6.21 -21.66,15.26 -19.08,9.17 -15.81,26.57l-8.12 -4.8 -16.66 0c-13.35,6.41 -21.43,4 -37.49,12.5 -5.95,6.27 0.31,9.23 -4.69,24.49 -0.03,0.12 -1.27,-0.05 -3.65,8.84l-12.49 0 -8.34 0 -12.49 -12.5c-20.69,5.52 -4.65,8.33 -37.49,8.33l0.16 -11.99 16.5 -4.67c-11.49,-23.95 6.05,-5.94 -24.99,-41.66l-8.34 8.33 -12.49 45.83c13.89,-5.03 7.14,-8.85 20.83,-12.5l0 8.33 4.16 8.33 -12.5 0c-11.51,5.53 -13.28,2.69 -26.57,6.76 -17.41,5.33 -7.75,5.72 -23.41,9.9l-8.33 -1.24c-5.04,4.49 -0.89,1.72 -7.96,5.7 -7.69,4.34 -11.13,5.64 -12.99,6.46zm-35.84 532.64c-15.9,198.41 -31.92,376.25 -39.45,475.4 94.1,-54.18 148.28,-175.78 274.38,-144.64 80.13,19.77 138.01,123.1 262.59,157.74 -13.2,-161.8 -61.56,-338.89 -105.19,-512.94 -2.38,-0.26 -5.34,-0.46 -12,-0.63 -13.21,-0.36 -22.94,-6.2 -32.29,-4.7 -3.72,0.6 -5.55,0.49 -10.34,4.18 -9.43,7.28 -5.7,9.49 -14.31,19.4l-4.17 4.17c6.57,14.2 -5.71,21.07 -12.33,33.46 -19.02,35.63 -16.12,42.25 -6.9,60.86l5.46 18.78c0.11,0.67 0.24,1.88 0.37,2.55l5.07 21.82 0 8.33c27.36,31.47 5.44,-7.79 29.16,41.65 17.49,0 34.58,-2.92 41.66,0l4.16 0 4.17 4.15c7.53,-11.37 -7.43,-6.14 16.34,-8.95 0.58,-0.06 14.74,0.64 16.98,0.64l8.96 -2.29 -8.96 2.29c-3.97,2.76 0.96,0.3 -7.67,4.67 -1.08,0.54 -4.33,2.06 -5.6,2.57 -13.53,5.45 -3.81,2.69 -20.03,5.25 -0.06,0.7 -0.08,1.79 -0.17,2.08 -0.1,0.3 -0.57,1.79 -0.69,2.09 -0.22,0.57 -2.31,3.22 -3.33,4.17 3.62,6.2 0.54,-0.97 1.2,7.45 0.08,1.08 -0.02,4.67 0.07,5.89 0.92,12.88 -3.77,1.93 2.9,15.82l-8.33 0 0 20.82c-11.3,-7.56 -21.7,-13.49 -33.26,-20.89 -16.18,-10.36 -12.62,-15.81 -25.06,-24.93l-8.33 0c0.28,-12.69 1.88,-15.19 4.16,-24.99l-13.74 -15.43c-13.52,-13.23 -11.2,-15.8 -24.56,-19.03 -11.74,-2.84 7.43,1.68 -7.96,-0.99 -7.91,-1.38 -2.5,1.31 -7.89,-2.04l-4.17 0 -4.16 0 -8.33 4.16c-12.62,10.97 -17.22,22.23 -37.49,12.5 4.01,-15.02 0.37,-11.14 16.66,-12.5l-16.66 -37.49c-8.59,4.54 -9.88,5.78 -20.83,8.33 5.82,-21.8 15.44,-11.54 0,-16.66l-8.34 0c-0.13,6.08 -1.33,19.93 -1.39,20.1 -2.99,9.68 1.12,5.8 -11.73,8.92l4.79 -24.85 -4.16 0c-18.33,-7.4 3.47,0.49 -18.5,-18.99 -17.26,-15.3 -9.61,-12.86 -23.16,-14.34l8.33 -12.5c-4.15,-2.73 -1.06,-1.71 -8.61,-3.88 -1.25,-0.37 -5.73,-0.28 -8.05,-0.28l16.66 4.16 -16.66 -4.16c-7.19,4.73 10.01,5.48 -11.25,2.19 -8.38,-1.3 -11.5,-9.03 -11.52,-9.06 -20.77,-30.14 -34.57,-15.68 -55.75,-27.81 -0.14,-0.08 -12.42,-9.16 -12.59,-9.29 -20.41,-15.2 -17.19,1.62 -28.16,-12.33zm319.22 -63.26l4.17 -1.25c24.89,2.08 7.15,6.62 29.16,12.5l35.56 10.67c-19.15,-76.93 -37.12,-153.14 -50.45,-227.06 -0.5,1.19 -1.06,2.46 -1.78,3.94l-13.74 0c-1.62,5.26 6.76,4.17 -5.84,4.17l-6.65 4.16 -4.17 8.34 9.58 29.15c-17,-5.63 7.26,-13.32 -20.83,-20.82 0,50.28 11.95,22.06 15.39,47.86 0.63,4.77 -3.38,-3.4 1.21,10.6 0.41,1.25 3.78,7.84 5.49,10.93 6.61,11.96 7.98,10.08 11.23,22.25 -22.81,-15.28 -18.9,-33.34 -29.34,-41.48 -5.33,-4.15 -7.23,-3.57 -16.48,-4.34 6.26,26.88 10.02,39.06 12.53,71.36 2.03,26.18 19.64,36.15 24.96,59.02zm-237.44 -663.59l-4.17 4.17 4.17 -4.17zm108.31 908.12c2.92,6.7 -1.99,5.11 10.54,11.05 11.07,5.25 -11.62,-3.35 6.12,1.44 -4.93,21.17 -16.19,39.27 12.5,41.66 -9.48,-17.9 1.13,-7.56 -12.5,-12.5 8.62,-12.87 12.46,-9.25 16.66,-24.99l-20.83 -20.83c-1.22,0.65 -6.07,2.08 -6.75,2.31l-5.74 1.86zm54.15 120.8l-20.72 -12.7c2.82,-12.35 3.55,-31.72 8.22,-41.45 -9.8,-2.29 -12.3,-3.89 -24.99,-4.17 0.37,16.79 2.48,10.7 9.25,36.57 4.33,16.53 6.38,21.26 28.24,21.75zm141.63 -45.82c6.52,9.73 12.53,21.29 11.89,37.31 -0.63,15.66 -8.51,23.57 13.11,29.34l-12.5 -79.15c-0.84,0.59 -2.19,1.12 -2.68,1.49l-9.82 11.01zm-141.63 -679c0,20.12 2.23,17.97 8.33,24.99l0 -37.49c-7.02,4.88 -8.33,0.6 -8.33,12.5zm-58.32 62.48l-8.33 -4.16c12.14,-5.21 4.83,-7.63 8.33,4.16zm-79.15 258.27c29.33,-0.65 17.7,-10.3 16.67,-12.49 -7.9,-2.8 -8.83,5.33 -9.84,6.28l-4.5 4.26c-0.46,0.43 -1.56,1.29 -2.33,1.95zm149.97 133.3l4.52 8.12 -4.52 8.55c-11.27,5.4 -28.92,8.7 -38.16,4.34 -19.28,-9.08 -6.87,-13.91 0.67,-25.17l-18.02 -4.33c-0.53,-0.04 -1.73,0.01 -2.23,0l-8.77 0.51c-19.68,-5.44 -1.86,-12.17 11.21,-13.96 17.94,-2.46 40.21,11.84 55.3,21.94zm-79.15 -58.31l4.16 0 0 -12.5 -4.16 0 0 12.5zm-99.98 87.47c-2.91,-12.18 0.54,-6 -8.33,-12.49 2.74,11.42 -1.69,6.48 8.33,12.49zm54.16 -112.47c-2.92,-12.18 0.53,-6 -8.33,-12.5 2.73,11.42 -1.69,6.49 8.33,12.5zm154.13 -487.38c8.96,-6.23 5.48,-0.61 8.33,-12.5 -9.21,6.4 -5.18,0.68 -8.33,12.5l-9.17 7.5c11.47,3.67 7.12,-2.7 13.33,9.18 -5.34,15.82 0,11.11 0,33.31l8.33 0c0,-15.57 -2.07,-20.07 -4.16,-33.31 5.14,0.82 4.16,11.12 4.16,-4.18l-12.49 -12.5zm-237.45 154.13c0.88,4.75 9.16,9.11 5.61,0.84 -1.5,-3.49 -7.61,-11.66 -5.61,-0.84zm324.93 329.08c0.87,4.76 9.15,9.11 5.6,0.85 -1.5,-3.49 -7.6,-11.66 -5.6,-0.85zm-174.96 195.79c4.28,4.28 15.07,-5.99 4.83,-2.25 -0.1,0.04 -11.82,-4.74 -4.83,2.25zm154.13 -224.94c4.28,4.27 15.07,-6 4.83,-2.25 -0.1,0.04 -11.82,-4.75 -4.83,2.25zm-312.43 -279.1c4.28,4.27 15.07,-6 4.83,-2.25 -0.1,0.04 -11.82,-4.75 -4.83,2.25zm154.13 516.54c4.28,4.28 15.07,-6 4.83,-2.25 -0.1,0.04 -11.82,-4.74 -4.83,2.25zm149.97 -258.27c0,4.89 8.96,9.38 6.44,0 -2.52,-9.41 10.6,-0.12 -1.92,-1.24 -5.25,-0.47 -4.52,-7.23 -4.52,1.24zm29.16 95.81c0.17,1.37 4.59,0.93 4.96,0.79 1.04,-0.39 7.24,9.64 1.81,-1.12 -0.12,-0.23 -7.77,-7.7 -6.77,0.33zm-208.29 -12.5c0,10.35 6.66,1.06 2.59,0 -0.05,-0.01 -2.59,-11.82 -2.59,0zm108.31 -441.56c0,10.35 6.66,1.07 2.58,0 -0.05,-0.01 -2.58,-11.82 -2.58,0zm-104.14 404.07c0,10.35 6.66,1.06 2.58,0 -0.05,-0.01 -2.58,-11.82 -2.58,0zm154.13 -74.98c0,10.35 6.66,1.06 2.58,0 -0.05,-0.02 -2.58,-11.82 -2.58,0zm0 54.15c0,10.35 6.66,1.07 2.58,0 -0.05,-0.01 -2.58,-11.82 -2.58,0zm-187.46 -37.49c0,10.35 6.66,1.06 2.59,0 -0.05,-0.01 -2.59,-11.82 -2.59,0zm0 41.66l4.17 0 -3.47 -4.86 -0.7 4.86c-4.22,-5.59 -4.16,8.76 -4.16,-12.5l-13.39 11.6 17.43 9.46 0.12 -8.56zm-74.98 124.97l1.24 -1.25c-0.08,0.09 -1.65,0.83 -1.24,1.25zm116.64 -104.15l1.24 -1.24c-0.08,0.08 -1.65,0.83 -1.24,1.24zm79.15 -45.82l1.24 -1.24c-0.08,0.08 -1.66,0.83 -1.24,1.24zm-20.83 -304.09l1.24 -1.24c-0.08,0.08 -1.65,0.83 -1.24,1.24zm0 666.5l1.24 -1.24c-0.08,0.08 -1.65,0.83 -1.24,1.24zm37.49 -770.64l1.24 -1.24c-0.08,0.08 -1.65,0.82 -1.24,1.24z"/>
 </g>
</svg>
