<?xml version="1.0" encoding="UTF-8"?>
<!DOCTYPE svg PUBLIC "-//W3C//DTD SVG 1.1//EN" "http://www.w3.org/Graphics/SVG/1.1/DTD/svg11.dtd">
<!-- Creator: CorelDRAW (Versión de evaluación) -->
<svg xmlns="http://www.w3.org/2000/svg" xml:space="preserve" width="739px" height="2458px" version="1.1" style="shape-rendering:geometricPrecision; text-rendering:geometricPrecision; image-rendering:optimizeQuality; fill-rule:evenodd; clip-rule:evenodd"
viewBox="0 0 739 2457.4"
 xmlns:xlink="http://www.w3.org/1999/xlink"
 xmlns:xodm="http://www.corel.com/coreldraw/odm/2003">
 <defs>
  <style type="text/css">
   <![CDATA[
    .str0 {stroke:#373435;stroke-width:10;stroke-miterlimit:22.9256}
    .fil0 {fill:#FEFEFE}
   ]]>
  </style>
 </defs>
 <g id="tooth-fissure-root-33">
  <metadata id="CorelCorpID_0Corel-Layer"/>
  <path id="crown" class="fil0 str0" d="M6.42 498.82c-22.12,-120.88 10.81,-235.23 81.37,-332.51 46.54,-64.15 170.13,-177.6 265.03,-165.39 45.28,5.84 95.41,56.75 130.98,84.01 51.43,39.39 81.35,54.44 138.52,78.95 133.01,57.02 115.58,186.65 115.44,313.16 -0.18,159.9 -119.43,567.82 -354.47,508.39 -110.68,-27.97 -185.99,-108.59 -254.05,-180.88 -108.58,-115.32 -94.85,-153 -122.82,-305.73z"/>
  <path id="root" class="fil0 str0" d="M625.73 901.9c7.94,54.39 -26.81,360.53 -38.74,431.04 -78.34,463.06 -129.8,484.14 -169.97,1026.13 -16.21,218.65 -279.5,109.63 -279.76,-706.41 -0.13,-434.7 9.04,-471.52 -68.45,-871.05 82.61,79.84 129.5,154.91 240.95,204.72 158.81,70.96 218.25,10.13 315.97,-84.43zm0 0c0.58,3.92 0.92,9.19 1.07,15.55l-1.04 -2.09 -7.45 3.73 1.86 3.72 6.68 -3.34c0.32,19.13 -1,47.56 -3.35,80.83l-1.51 0.76 1.28 2.54 -0.11 1.53 -6.76 3.37 1.87 3.73 -3.73 1.86 3.72 7.46 -3.73 1.86 1.86 3.72 -3.72 1.87 1.86 3.72 -3.73 1.86 1.86 3.73 -3.72 1.86 1.86 3.73 -3.73 1.86 1.86 3.73 -3.72 1.86 5.58 11.18 -3.73 1.86 3.73 7.45 -3.73 1.86 1.86 3.73 -3.73 1.86 1.87 3.73 -3.73 1.86 -1.86 -3.73 -7.46 3.73 16.76 33.54 2.46 -1.23c-0.44,4.28 -0.87,8.57 -1.31,12.86l-1.16 -2.32 -3.73 1.86 -1.86 -3.72 -3.72 1.86 -5.59 -11.18 -3.72 1.86 1.86 3.72 -14.91 7.45 1.86 3.73 -7.45 3.72 1.86 3.73 -7.45 3.72 1.86 3.72 -3.73 1.87 1.86 3.72 -7.45 3.73 1.86 3.72 -7.45 3.72 1.86 3.73 -22.36 11.17 1.86 3.73 -29.81 14.89 1.86 3.72 -14.91 7.45 1.86 3.72 -3.73 1.87 14.9 29.81 -3.73 1.86 1.86 3.73 3.73 -1.86 1.86 3.72 3.72 -1.86 1.87 3.73 3.72 -1.86 1.86 3.72 3.73 -1.86 1.86 3.73 7.45 -3.72 7.45 14.9 11.18 -5.58 1.86 3.73 14.91 -7.45 -1.86 -3.72 3.72 -1.87 3.73 7.46 3.72 -1.86 1.86 3.72 11.18 -5.58 -1.86 -3.73 3.73 -1.86 -1.86 -3.73 3.72 -1.86 -1.86 -3.72 3.73 -1.86 1.43 2.86 -0.75 6.11 -0.68 0.34 0.51 1.03c-2.42,19.57 -4.71,37.14 -6.75,51.74l-3.1 -6.2 -7.45 3.72 -1.86 -3.73 3.72 -1.86 -3.72 -7.45 3.73 -1.86 -1.86 -3.73 -3.73 1.86 -1.86 -3.72 -3.73 1.86 -1.86 -3.73 -7.45 3.72 -1.86 -3.72 -11.18 5.58 -1.87 -3.73 -3.72 1.87 -1.86 -3.73 -3.73 1.86 -1.86 -3.73 -3.73 1.86 -1.86 -3.72 -3.73 1.86 -1.86 -3.73 -3.72 1.86 -1.87 -3.72 -3.72 1.86 -1.86 -3.73 -3.73 1.86 -3.72 -7.45 -3.73 1.86 -1.86 -3.73 -3.73 1.86 -1.86 -3.72 -11.18 5.58 -3.72 -7.45 11.18 -5.58 -1.86 -3.73 3.72 -1.86 -14.89 -29.82 -3.72 1.86 -1.86 -3.72 -3.73 -7.46 -3.72 1.87 -3.73 -7.46 -3.72 1.86 -1.87 -3.72 -3.72 1.86 -1.86 -3.73 -1.86 -3.73 -3.73 1.87 -7.45 -14.91 -3.72 1.86 -7.45 -14.91 -3.73 1.87 -5.58 -11.18 -7.45 3.72 -5.59 -11.18 3.73 -1.86 1.86 3.72 3.73 -1.86 -5.59 -11.18 3.73 -1.86 -13.03 -26.09 3.73 -1.86 3.72 7.46 3.73 -1.87 1.86 3.73 3.73 -1.86 -1.86 -3.73 3.72 -1.86 -5.58 -11.18 -3.73 1.86 -1.86 -3.72 7.45 -3.73 -1.86 -3.72 3.73 -1.86 -1.86 -3.73 7.45 -3.72 3.72 7.45 -3.72 1.86 1.86 3.73 3.73 -1.86 1.86 3.72 -11.18 5.59 7.44 14.9 3.73 -1.86 1.86 3.73 -3.73 1.86 -1.86 -3.73 -7.45 3.73 7.44 14.9 -3.72 1.86 1.86 3.73 3.72 -1.86 3.73 7.45 -3.73 1.86 3.72 7.46 3.73 -1.86 5.58 11.18 3.73 -1.86 14.89 29.81 3.73 -1.86 3.72 7.45 3.73 -1.86 3.72 7.45 3.73 -1.86 3.72 7.46 11.18 -5.59 -1.86 -3.73 11.18 -5.58 -1.86 -3.73 7.45 -3.72 -1.86 -3.73 7.45 -3.72 1.86 3.73 18.64 -9.31 -1.86 -3.72 7.45 -3.73 -1.86 -3.72 7.45 -3.72 3.73 -1.87 3.72 -1.86 -1.86 -3.72 3.73 -1.87 3.73 -1.86 -1.87 -3.72 3.73 -1.87 -1.86 -3.72 3.73 -1.86 -1.86 -3.73 7.45 -3.72 -1.86 -3.73 7.45 -3.72 -1.86 -3.73 3.73 -1.86 -1.86 -3.73 7.45 -3.72 -1.86 -3.73 3.72 -1.86 -3.72 -7.45 3.73 -1.86 -1.86 -3.73 3.72 -1.86 -1.86 -3.73 3.73 -1.86 -5.58 -11.18 3.72 -1.86 -1.86 -3.73 3.73 -1.86 -1.86 -3.72 7.45 -3.73 -1.86 -3.72 3.73 -1.86 -1.87 -3.73 11.18 -5.58 -3.72 -7.46 7.45 -3.72 -1.86 -3.73 3.73 -1.86 -1.86 -3.73 3.73 -1.86 -3.73 -7.45 3.73 -1.86 -1.86 -3.73 7.45 -3.72 -1.86 -3.73 7.45 -3.72 -3.72 -7.45 3.73 -1.86 -3.72 -7.46 3.72 -1.86 -1.86 -3.73 3.73 -1.86 -1.86 -3.72 3.72 -1.87 -11.16 -22.36 3.72 -1.86 -3.72 -7.45 3.73 -1.86 -1.87 -3.73 -3.72 1.86 -5.34 -10.68c6.59,-6.33 13.31,-12.84 20.22,-19.54zm-6.33 149.89l-0.17 1.86 -6.58 3.29 -1.86 -3.73 7.46 -3.72 1.15 2.3zm-3.29 36.02l-0.33 3.36 -1.28 -2.56 1.61 -0.8zm-84.51 531.12c-2.56,11.71 -5.09,23.15 -7.59,34.34l-2.9 -5.82 -7.45 3.72 1.86 3.73 -7.46 3.72 3.73 7.46 -3.73 1.86 1.86 3.72 11.18 -5.58 -1.86 -3.73 3.08 -1.54c-1.58,7.08 -3.16,14.08 -4.71,20.98l-2.11 1.05 -1.86 -3.72 -7.45 3.72 -1.86 -3.73 -7.45 3.73 -1.87 -3.73 -3.72 1.86 -1.86 -3.73 -3.73 1.87 -1.86 -3.73 -11.18 5.58 -1.86 -3.72 -7.46 3.72 -1.86 -3.73 -11.18 5.59 -1.86 -3.73 -3.73 1.86 1.86 3.73 -11.17 5.58 1.86 3.73 -3.73 1.86 1.86 3.73 -3.72 1.86 1.86 3.72 -3.73 1.86 -1.86 -3.72 -11.18 5.58 -1.86 -3.72 -7.46 3.72 -1.86 -3.73 -7.45 3.72 -1.86 -3.72 -7.46 3.72 -1.86 -3.73 -3.73 1.86 -1.86 -3.72 -3.72 1.86 -1.86 -3.73 3.72 -1.86 -1.86 -3.73 7.46 -3.72 3.72 7.46 3.72 -1.87 1.86 3.73 7.46 -3.72 -1.86 -3.73 3.72 -1.86 -1.86 -3.73 -3.72 1.86 -1.86 -3.72 -7.46 3.72 -5.58 -11.18 7.45 -3.72 1.86 3.72 3.73 -1.86 1.86 3.73 3.73 -1.86 1.86 3.72 3.72 -1.86 1.87 3.73 7.45 -3.72 -1.86 -3.73 3.73 -1.86 -1.87 -3.73 3.73 -1.86 3.72 7.46 1.86 3.72 11.18 -5.58 1.87 3.72 18.63 -9.3 1.86 3.72 14.91 -7.44 1.86 3.73 7.45 -3.73 1.86 3.73 11.18 -5.58 1.87 3.72 7.45 -3.72 -1.86 -3.73 3.72 -1.86 -1.86 -3.72 7.46 -3.73 -1.87 -3.72 3.73 -1.86 -1.86 -3.73 3.73 -1.86 -3.73 -7.46 -3.72 1.87 -1.86 -3.73 -3.73 1.86 -3.73 1.86 -1.86 -3.73 -3.73 1.87 -1.86 -3.73 -3.72 1.86 -1.86 -3.73 -3.73 1.87 -1.86 -3.73 -3.73 1.86 -1.86 -3.73 -3.73 1.86 -1.86 -3.72 -3.73 1.86 -1.86 -3.73 -3.72 1.86 -1.86 -3.72 -7.46 3.72 -1.86 -3.73 -7.45 3.73 -1.86 -3.73 -14.91 7.44 -1.86 -3.72 -3.73 1.86 1.86 3.73 -29.81 14.89 1.86 3.72 -7.45 3.73 1.86 3.72 -3.73 1.86 3.72 7.46 -3.72 1.86 3.72 7.45 -3.73 1.86 -5.58 -11.18 3.73 -1.86 -5.59 -11.18 -3.72 1.86 1.86 3.73 -3.73 1.86 3.72 7.45 -3.72 1.86 1.86 3.73 -3.73 1.86 -3.72 -7.45 3.72 -1.86 -5.58 -11.18 -3.73 1.86 -1.86 -3.73 -11.18 5.59 -1.86 -3.73 -7.45 3.72 -1.86 -3.73 -3.73 1.87 -1.86 -3.73 -3.73 1.86 -1.86 -3.73 -3.73 1.87 -1.86 -3.73 -3.72 1.86 -1.86 -3.73 -3.73 1.86 -13.03 -26.08 3.73 -1.86 5.58 11.18 3.73 -1.86 3.72 7.45 3.73 -1.86 1.86 3.72 3.72 -1.86 1.87 3.73 11.18 -5.58 1.86 3.72 7.45 -3.72 1.86 3.73 3.73 -1.86 1.86 3.72 -7.46 3.72 1.87 3.73 7.45 -3.72 1.86 3.73 7.45 -3.73 -3.72 -7.45 7.46 -3.72 -3.73 -7.46 3.73 -1.86 -1.86 -3.73 3.73 -1.86 -1.87 -3.72 3.73 -1.86 -1.86 -3.73 3.73 -1.86 -1.86 -3.73 -1.87 -3.72 -3.72 -7.46 -3.73 1.86 -3.72 -7.45 -3.73 1.86 -7.44 -14.91 -7.45 3.73 -1.86 -3.73 -3.73 1.86 -7.45 -14.91 -11.18 5.59 -3.72 -7.46 3.73 -1.86 -3.72 -7.45 -3.73 1.86 -3.72 -7.45 -3.73 1.86 -5.58 -11.18 -3.73 1.86 -9.31 -18.63 3.73 -1.86 3.72 7.45 3.73 -1.86 5.58 11.18 3.73 -1.86 3.72 7.45 3.73 -1.86 3.72 7.45 3.73 -1.86 1.86 3.73 3.73 -1.86 3.72 7.45 3.72 -1.86 3.73 7.45 3.72 -1.86 3.73 7.45 3.72 -1.86 1.86 3.73 3.73 -1.86 1.86 3.72 3.73 -1.86 3.72 7.46 3.73 -1.86 5.58 11.18 3.73 -1.87 1.86 3.73 18.63 -9.3 1.86 3.72 18.64 -9.31 1.86 3.73 3.73 -1.86 1.86 3.73 -18.64 9.3 1.87 3.73 -11.18 5.58 1.86 3.73 -7.46 3.72 1.86 3.73 -3.72 1.86 1.86 3.73 -3.73 1.86 3.73 7.45 -3.73 1.86 3.72 7.46 7.45 -3.73 1.87 3.73 29.81 -14.89 1.86 3.73 22.36 -11.17 -1.86 -3.73 7.45 -3.72 -1.86 -3.73 3.73 -1.86 -3.72 -7.45 3.72 -1.86 -1.86 -3.73 3.73 -1.86 -1.86 -3.73 3.72 -1.86 -3.72 -7.45 7.45 -3.72 -1.86 -3.73 3.73 -1.86 5.58 11.18 -3.72 1.86 1.86 3.73 -3.73 1.86 3.72 7.45 -3.72 1.86 3.72 7.46 -3.73 1.86 3.73 7.45 -3.73 1.86 1.86 3.73 -3.73 1.86 3.73 7.45 3.72 -1.86 1.86 3.73 3.73 -1.86 1.86 3.72 3.73 -1.86 1.86 3.73 7.45 -3.72 1.86 3.72 7.46 -3.72 1.86 3.73 7.45 -3.72 1.86 3.72 3.73 -1.86 1.86 3.73 3.73 -1.86 1.86 3.72 4.89 -2.44zm-8.1 36.64l-0.93 4.13 -1.46 -2.93 2.39 -1.2zm-60.56 291l-0.49 2.97 -1.09 -2.18 1.58 -0.79zm-0.84 5.07c-2.16,13.09 -4.29,26.54 -6.38,40.45l-3.69 1.84 1.86 3.72 -3.73 1.87 1.86 3.72 -3.72 1.86 1.86 3.73 -3.73 1.86 1.86 3.73 -3.72 1.86 -5.59 -11.18 3.73 -1.86 -3.72 -7.46 -11.18 5.59 -3.73 -7.45 3.73 -1.87 -1.86 -3.72 3.73 -1.86 1.86 3.72 7.45 -3.72 -1.86 -3.73 3.72 -1.86 -1.86 -3.73 7.46 -3.72 -1.87 -3.72 3.73 -1.87 -1.86 -3.72 11.18 -5.59 -1.86 -3.72 6.33 -3.17zm-14.6 98.49c-2.78,21.05 -5.52,43.18 -8.2,66.56l-0.37 0.19 0.28 0.56 -0.48 4.19 -1.66 0.83 1.28 2.58 -0.17 1.52 -6.71 3.35 1.86 3.73 -3.72 1.86 1.86 3.73 -3.73 1.86 1.86 3.73 -7.45 3.72 3.72 7.45 -3.72 1.86 10.45 20.94c-0.55,5.44 -1.1,10.99 -1.64,16.57l-3.24 1.62 -18.61 -37.27 3.72 -1.86 -1.86 -3.73 3.73 -1.86 -1.86 -3.73 7.45 -3.72 -1.86 -3.73 3.72 -1.86 -5.58 -11.18 -3.72 1.87 -3.73 1.86 -1.86 -3.73 -22.36 11.17 -1.87 -3.73 -3.72 1.86 -3.73 1.86 -3.72 -7.45 -3.73 1.86 -1.86 -3.73 -3.73 1.87 -3.72 -7.46 -3.72 1.86 -3.73 -7.45 -3.72 1.86 -1.87 -3.73 -3.72 1.87 -3.73 -7.46 -3.72 1.86 -1.86 -3.72 -3.73 1.86 -1.86 -3.73 -3.73 1.86 -1.86 -3.72 -3.72 1.86 -1.87 -3.73 -3.72 1.86 -1.86 -3.73 7.45 -3.72 1.86 3.73 3.73 -1.86 1.86 3.72 3.72 -1.86 1.87 3.73 3.72 -1.86 1.86 3.72 3.73 -1.86 1.86 3.73 3.73 -1.86 1.86 3.73 3.73 -1.86 3.72 7.45 3.73 -1.86 1.86 3.72 3.72 -1.86 3.73 7.46 3.72 -1.87 1.86 3.73 3.73 -1.86 1.86 3.73 3.73 -1.87 1.86 3.73 22.36 -11.17 1.86 3.73 14.91 -7.44 -1.86 -3.73 3.72 -1.86 -1.86 -3.73 3.73 -1.86 -1.86 -3.73 7.45 -3.72 -1.86 -3.73 3.73 -1.86 -1.86 -3.72 3.72 -1.87 -3.72 -7.45 3.73 -1.86 -1.86 -3.73 3.72 -1.86 -3.72 -7.45 3.73 -1.86 -1.87 -3.73 3.73 -1.86 -3.72 -7.45 3.72 -1.86 -1.86 -3.73 3.73 -1.86 4.81 9.63zm-279.91 26.91c-0.78,-4.77 -1.57,-9.52 -2.33,-14.39l3.57 -1.78 1.86 3.72 3.73 -1.86 -1.86 -3.72 7.45 -3.73 -1.86 -3.72 11.18 -5.59 -1.86 -3.72 18.63 -9.31 -1.86 -3.73 11.18 -5.58 -1.86 -3.73 7.45 -3.72 -1.86 -3.73 7.45 -3.72 -1.86 -3.73 3.73 -1.86 -1.86 -3.72 44.72 -22.34 -1.86 -3.73 14.9 -7.44 -1.86 -3.73 7.46 -3.72 -1.86 -3.73 18.63 -9.3 -1.86 -3.73 14.91 -7.45 7.45 -3.72 -5.59 -11.18 3.73 -1.86 3.72 7.45 7.46 -3.72 -1.86 -3.72 11.18 -5.59 1.86 3.73 -3.73 1.86 1.86 3.73 -3.73 1.86 3.73 7.45 3.72 -1.86 5.59 11.18 3.72 -1.86 -1.86 -3.73 3.73 -1.86 -3.72 -7.45 3.72 -1.86 -3.72 -7.46 3.73 -1.86 -3.72 -7.45 -3.73 1.86 -1.86 -3.73 7.45 -3.72 1.86 3.73 7.46 -3.73 -1.87 -3.72 3.73 -1.86 -1.86 -3.73 3.73 -1.86 -3.73 -7.46 3.73 -1.86 -1.86 -3.72 7.45 -3.73 -1.86 -3.72 3.73 -1.87 -1.86 -3.72 3.72 -1.86 -3.72 -7.46 3.73 -1.86 -13.03 -26.08 3.73 -1.87 -3.73 -7.45 3.73 -1.86 13.03 26.09 -3.73 1.86 7.45 14.9 -3.73 1.87 7.45 14.9 3.72 -1.86 1.86 3.73 7.46 -3.72 1.86 3.72 14.91 -7.44 1.86 3.72 7.45 -3.72 1.86 3.73 3.73 -1.86 1.86 3.72 -3.73 1.86 -1.86 -3.72 -11.18 5.58 -1.86 -3.72 -14.91 7.44 -1.86 -3.73 -3.73 1.87 -1.86 -3.73 -3.72 1.86 -1.86 -3.73 -3.73 1.86 -1.86 -3.72 -7.46 3.72 1.86 3.73 -3.72 1.86 3.72 7.45 -3.72 1.86 5.58 11.18 -3.73 1.86 -1.86 -3.72 -7.45 3.72 1.86 3.73 -3.73 1.86 1.86 3.72 -3.72 1.87 3.72 7.45 -3.73 1.86 3.72 7.45 -3.72 1.87 3.72 7.45 -3.73 1.86 1.87 3.73 3.72 -1.87 3.72 7.46 3.73 -1.86 5.58 11.18 3.73 -1.86 5.59 11.18 3.72 7.45 3.73 -1.86 1.86 3.72 3.72 -1.86 1.86 3.73 3.73 -1.86 3.72 7.45 -7.45 3.72 -1.86 -3.72 -3.73 1.86 -1.86 -3.73 -3.73 1.86 -1.86 -3.72 -7.45 3.72 -1.86 -3.73 -3.73 1.86 -1.86 -3.72 -3.73 1.86 -1.86 -3.73 -7.45 3.73 -1.86 -3.73 -3.73 1.86 -1.86 -3.73 -7.45 3.73 -1.87 -3.73 -3.72 1.86 -1.86 -3.73 -3.73 1.86 1.86 3.73 -3.73 1.86 5.59 11.18 -3.73 1.86 -7.44 -14.9 -3.73 1.86 -1.86 -3.73 -3.73 1.86 1.86 3.73 -3.72 1.86 1.86 3.73 -3.73 1.86 5.59 11.18 -3.73 1.86 5.58 11.18 -3.72 1.86 1.86 3.73 -3.73 1.86 -5.58 -11.18 -7.46 3.72 -3.72 -7.45 -11.18 5.58 1.86 3.73 3.73 -1.86 5.58 11.18 3.73 -1.86 13.03 26.08 -3.73 1.87 3.72 7.45 3.73 -1.86 1.86 3.73 3.73 -1.87 1.86 3.73 3.73 -1.86 3.72 7.45 7.45 -3.72 1.86 3.73 7.46 -3.73 1.86 3.73 18.63 -9.31 3.72 7.46 -11.18 5.58 -1.86 -3.73 -11.18 5.59 -1.86 -3.73 -3.73 1.86 -1.86 -3.72 -7.45 3.72 -1.86 -3.73 -7.46 3.73 -1.86 -3.73 -11.18 5.58 1.86 3.73 -3.72 1.86 1.86 3.73 -7.45 3.72 -1.87 -3.73 3.73 -1.86 -1.86 -3.73 7.45 -3.72 -5.58 -11.18 -3.73 1.86 -1.86 -3.72 3.73 -1.87 -3.72 -7.45 3.72 -1.86 -9.3 -18.63 -3.73 1.86 -3.72 -7.46 -3.73 1.87 -1.86 -3.73 -3.73 1.86 -1.86 -3.73 -3.73 1.87 -3.72 -7.46 -3.73 1.86 -3.72 -7.45 -3.73 1.86 -3.72 -7.45 -3.72 1.86 -1.86 -3.73 -37.27 18.61 1.86 3.73 -7.45 3.72 1.86 3.73 -3.73 1.86 1.86 3.73 -18.63 9.3 1.86 3.73 -11.18 5.58 1.86 3.73 -7.45 3.72 5.58 11.18 3.73 -1.86 1.86 3.73 3.73 -1.86 7.44 14.91 3.73 -1.87 1.86 3.73 3.73 -1.86 1.86 3.73 -7.46 3.72 -1.86 -3.73 -3.72 1.86 -5.59 -11.18 -3.72 1.86 -3.73 -7.45 -3.72 1.86 -3.73 -7.45 -3.72 1.86 -1.86 -3.73 -7.46 3.73 -1.23 -2.46zm-22.78 -199.74c-0.12,-1.71 -0.25,-3.39 -0.37,-5.11l0.26 0.51 11.18 -5.58 -1.87 -3.73 11.18 -5.59 -1.86 -3.72 3.73 -1.86 3.73 -1.86 -1.86 -3.73 3.72 -1.86 -5.58 -11.18 3.72 -1.86 -3.72 -7.46 3.73 -1.86 -1.86 -3.73 7.45 -3.72 -1.86 -3.73 3.73 -1.86 -1.86 -3.72 3.72 -1.86 -1.86 -3.73 3.73 -1.86 -1.86 -3.73 3.72 -1.86 -1.86 -3.73 3.73 -1.86 -3.72 -7.45 3.72 -1.86 -1.86 -3.73 3.73 -1.86 -5.59 -11.18 3.73 -1.86 -3.72 -7.46 -3.73 1.87 -1.86 -3.73 3.73 -1.86 -1.86 -3.73 7.45 -3.72 -1.86 -3.73 3.72 -1.86 -1.86 -3.73 3.73 -1.86 -1.86 -3.72 3.73 -1.87 -1.87 -3.72 3.73 -1.86 -9.3 -18.64 -3.73 1.87 -3.72 -7.46 -3.73 1.86 -1.86 -3.72 -3.73 1.86 -1.86 -3.73 -3.73 1.86 -1.86 -3.72 -7.45 3.72 -1.86 -3.73 -7.46 3.72 -1.86 -3.72 -3.59 1.79c-0.07,-6.11 -0.07,-12.38 -0.1,-18.57l3.7 -1.85 1.86 3.72 3.73 -1.86 1.86 3.73 3.73 -1.86 1.86 3.73 14.9 -7.45 1.87 3.73 3.72 -1.86 -3.72 -7.46 3.73 -1.86 -3.73 -7.45 11.18 -5.59 11.17 22.36 -3.72 1.87 1.86 3.72 -3.73 1.86 3.72 7.46 3.73 -1.87 1.86 3.73 3.73 -1.86 1.86 3.73 3.72 -1.86 1.87 3.72 3.72 7.46 5.58 11.18 -7.45 3.72 1.86 3.72 -3.73 1.87 1.86 3.72 -7.45 3.73 -1.86 -3.73 -7.45 3.72 1.86 3.73 -3.73 1.86 1.86 3.73 -3.72 1.86 3.72 7.45 -3.73 1.86 9.31 18.64 -3.73 1.86 1.86 3.72 7.45 14.91 3.72 -1.86 3.73 7.45 -7.46 3.72 -1.86 -3.72 -3.72 1.86 1.86 3.73 -3.73 1.86 1.86 3.72 -3.73 1.87 3.73 7.45 -3.73 1.86 1.86 3.73 -3.72 1.86 3.72 7.45 -3.73 1.86 1.86 3.73 3.73 -1.86 1.86 3.73 7.45 -3.73 1.86 3.73 -3.72 1.86 3.72 7.45 -3.73 1.87 1.87 3.72 3.72 -1.86 5.59 11.18 3.72 -1.86 5.59 11.18 3.72 -1.86 1.86 3.73 3.73 -1.87 3.72 7.46 3.73 -1.86 3.72 7.45 3.73 -1.86 3.72 7.45 3.73 -1.86 1.86 3.73 -3.73 1.86 -1.86 -3.73 -3.72 1.86 -1.87 -3.72 -3.72 1.86 -1.86 -3.73 -3.73 1.86 -1.86 -3.72 -3.73 1.86 -3.72 -7.46 -3.73 1.87 -1.86 -3.73 -7.45 3.72 -1.86 -3.73 -3.73 1.86 -1.86 -3.72 -7.45 3.72 -1.87 -3.73 -7.45 3.73 -1.86 -3.73 -11.18 5.58 -1.86 -3.72 -3.73 1.86 -1.86 -3.73 -11.18 5.59 1.86 3.72 -3.73 1.86 1.87 3.73 -3.73 1.86 -1.86 -3.72 -3.73 1.86 -5.58 -11.18 -1.75 0.87zm-7.55 -224.39l0 -0.21 0.08 0.17 -0.08 0.04zm0 -4.65l0 -13.97 3.82 -1.91 -1.86 -3.73 7.45 -3.72 -1.86 -3.73 3.72 -1.86 -3.72 -7.45 3.73 -1.86 -1.86 -3.73 3.72 -1.86 -1.86 -3.73 3.73 -1.86 -1.86 -3.73 3.72 -1.86 -1.86 -3.72 3.73 -1.86 -5.58 -11.19 -1.86 -3.72 -7.46 3.72 1.86 3.73 -5.65 2.82 0.01 -9.32 1.92 -0.96 -1.86 -3.72 3.73 -1.86 -1.87 -3.73 3.73 -1.86 -1.86 -3.73 3.73 -1.86 -1.86 -3.73 3.72 -1.86 -1.86 -3.72 3.73 -1.87 -1.86 -3.72 3.72 -1.86 -1.86 -3.73 7.45 -3.72 -1.86 -3.73 7.46 -3.72 -1.86 -3.73 3.72 -1.86 -1.86 -3.73 3.73 -1.86 -1.86 -3.73 -1.86 -3.72 3.72 -1.86 -1.86 -3.73 3.73 -1.86 -1.86 -3.73 3.72 -1.86 -1.86 -3.73 3.73 -1.86 -1.86 -3.72 3.72 -1.87 -1.86 -3.72 -3.73 1.86 -5.58 -11.18 3.73 -1.86 5.58 11.18 7.45 -3.72 -1.86 -3.73 3.73 -1.86 -1.86 -3.73 14.91 -7.44 -16.75 -33.54 3.72 -1.87 -11.17 -22.36 -16.75 -33.54 -7.44 -14.9 -3.73 1.86 -4.19 -8.39c-0.08,-6.5 -0.18,-12.92 -0.29,-19.22l0.77 1.52 3.72 -1.86 5.59 11.18 3.72 -1.86 3.73 7.46 3.72 -1.87 1.86 3.73 1.87 3.73 -3.73 1.86 1.86 3.73 3.73 -1.86 3.72 7.45 3.73 -1.86 20.47 40.99 -3.73 1.86 3.73 7.46 3.72 7.45 16.75 33.54 18.63 -9.31 1.86 3.73 7.46 -3.72 1.86 3.72 11.18 -5.58 1.86 3.73 7.45 -3.73 1.87 3.73 3.72 -1.86 1.86 3.73 7.46 -3.73 1.86 3.73 7.45 -3.72 1.86 3.72 11.18 -5.58 1.87 3.73 14.9 -7.45 1.86 3.73 3.73 -1.86 1.86 3.73 3.73 -1.87 1.86 3.73 -11.18 5.58 -1.86 -3.72 -7.46 3.72 5.59 11.18 -3.73 1.86 3.72 7.45 -7.45 3.73 -3.72 -7.46 3.72 -1.86 -5.58 -11.18 -7.45 3.73 -1.87 -3.73 -29.81 14.89 -1.86 -3.73 -7.45 3.72 -1.86 -3.72 7.45 -3.73 -3.72 -7.45 -7.46 3.72 3.73 7.46 -3.73 1.86 -7.45 3.72 -1.87 -3.73 -18.63 9.31 -1.86 -3.73 -14.91 7.45 -3.72 -7.45 -7.45 3.72 1.86 3.72 -3.73 1.87 1.86 3.72 -3.72 1.86 1.86 3.73 -3.73 1.86 1.86 3.73 -3.72 1.86 1.86 3.73 -7.46 3.72 1.87 3.73 -3.73 1.86 3.72 7.45 -3.73 1.86 1.86 3.73 -3.72 1.86 3.72 7.45 -7.45 3.73 1.86 3.72 -7.45 3.73 1.86 3.72 -3.73 1.86 1.86 3.73 -3.73 1.86 3.73 7.45 -3.73 1.87 5.58 11.18 -3.72 1.86 3.72 7.45 3.72 7.45 -3.72 1.87 1.86 3.72 -3.73 1.86 5.58 11.18 -3.72 1.87 9.3 18.63 -3.72 1.86 1.86 3.73 5.58 11.18 -7.45 3.72 -1.86 -3.73 -7.46 3.72 -3.72 -7.45 3.73 -1.86 -1.86 -3.73 7.45 -3.72 -3.72 -7.45 -7.46 3.72 1.87 3.73 -18.64 9.3 1.86 3.73 -5.67 2.84zm0.04 -60.56l0 -0.18 0.07 0.15 -0.07 0.03zm87.39 529.08l1.87 3.73 -3.73 1.86 -1.86 -3.73 3.72 -1.86zm76.47 -182.53l1.86 3.72 -3.73 1.86 -1.86 -3.72 3.73 -1.86zm65.31 -260.79l1.86 3.73 -3.72 1.86 -1.86 -3.72 3.72 -1.87zm-76.41 80.08l1.86 3.72 -3.73 1.86 -1.86 -3.72 3.73 -1.86zm74.79 -624.06l1.86 3.73 -3.72 1.86 -1.86 -3.72 3.72 -1.87zm-80.45 771.23l1.87 3.72 -7.46 3.73 -1.86 -3.73 7.45 -3.72zm33.56 -44.7l3.72 7.45 -3.73 1.86 -3.72 -7.45 3.73 -1.86zm-1.7 -376.31l3.72 7.45 -3.72 1.86 -3.73 -7.45 3.73 -1.86zm33.3 523.5l3.72 7.45 -3.72 1.86 -3.73 -7.45 3.73 -1.86zm-14.78 -272l1.86 3.73 -7.45 3.72 -1.87 -3.73 7.46 -3.72zm195.9 -661.26l3.72 7.46 -3.72 1.86 -3.73 -7.46 3.73 -1.86zm33.53 1.88l1.86 3.73 -7.45 3.72 -1.86 -3.73 7.45 -3.72zm-95.01 14.86l3.72 7.46 -3.73 1.86 -3.72 -7.45 3.73 -1.87 -5.59 -11.18 7.46 -3.72 -1.87 -3.73 3.73 -1.86 1.86 3.73 3.73 -1.86 1.86 3.72 -3.73 1.87 1.86 3.72 -7.45 3.73 1.86 3.72 -3.72 1.86zm-175.49 832.66l1.86 3.73 -7.45 3.72 -1.86 -3.73 7.45 -3.72zm148.99 111.84l-1.87 -3.72 3.73 -1.87 3.72 7.46 -7.45 3.72 -1.86 -3.73 3.73 -1.86zm-229.18 72.55l1.86 3.73 3.73 -1.86 1.86 3.73 -7.45 3.72 -3.72 -7.45 3.72 -1.87zm11.17 22.36l5.58 11.18 -3.72 1.87 -5.59 -11.18 3.73 -1.87zm212.83 -1028.24l-1.86 -3.73 3.73 -1.86 3.72 7.45 -7.45 3.73 -1.87 -3.73 3.73 -1.86zm-236.68 206.68l1.86 3.73 3.72 -1.87 1.87 3.73 -7.46 3.72 -3.72 -7.45 3.73 -1.86zm104.24 190.06l3.72 7.46 -3.73 1.86 -1.86 -3.73 -3.73 1.86 -1.86 -3.72 7.46 -3.73zm-35.53 283.16l1.87 3.72 -3.73 1.86 1.86 3.73 -7.45 3.72 -1.86 -3.72 3.72 -1.87 -1.86 -3.72 7.45 -3.72 -1.86 -3.73 3.73 -1.86 -1.86 -3.73 3.73 -1.86 3.72 7.45 3.73 -1.86 1.86 3.73 7.45 -3.72 -1.86 -3.73 7.45 -3.72 1.86 3.72 18.64 -9.3 3.72 7.45 -18.63 9.31 -1.87 -3.73 -7.45 3.72 1.86 3.73 -7.45 3.72 -1.86 -3.73 -3.73 1.87 -1.86 -3.73 -3.73 1.86 -1.86 -3.73 -3.73 1.87zm173.57 -696.67l1.86 3.73 3.73 -1.86 1.86 3.72 -7.46 3.73 -1.86 -3.73 -3.72 1.86 -1.87 -3.72 7.46 -3.73zm-214.71 1061.78l9.3 18.64 -3.72 1.86 -9.31 -18.64 3.73 -1.86zm278.05 -1074.79l3.73 7.45 -7.46 3.73 -1.86 -3.73 -3.73 1.86 -1.86 -3.72 11.18 -5.59zm-152.79 76.31l-1.86 -3.72 7.45 -3.73 1.86 3.73 3.73 -1.86 1.86 3.73 -14.91 7.44 -1.86 -3.73 3.73 -1.86zm72.69 -87.52l-1.86 -3.73 3.73 -1.86 1.86 3.73 3.73 -1.87 -1.87 -3.72 7.46 -3.72 1.86 3.72 3.73 -1.86 1.86 3.73 -3.73 1.86 1.86 3.73 -3.72 1.86 -1.87 -3.73 -14.9 7.44 -1.86 -3.72 3.72 -1.86zm-171.83 998.46l1.86 3.72 3.73 -1.86 3.72 7.46 -11.18 5.58 -1.86 -3.73 -3.73 1.86 -3.72 -7.45 11.18 -5.58zm-66.95 -273.88l3.73 7.45 7.45 -3.73 -3.72 -7.45 -7.46 3.73zm264.87 -728.3l-1.87 -3.72 11.18 -5.59 5.59 11.18 -3.73 1.86 1.86 3.73 -3.72 1.86 -1.86 -3.72 -7.46 3.72 -3.72 -7.46 3.73 -1.86zm-67.32 555.13l-3.72 -7.45 -3.73 1.86 1.86 3.72 -3.72 1.86 1.86 3.73 7.45 -3.72zm-35.43 87.54l-1.86 -3.72 22.36 -11.17 1.86 3.72 7.45 -3.72 1.86 3.73 -33.54 16.75 -1.86 -3.73 3.73 -1.86zm-39.21 201.18l1.86 3.73 11.18 -5.58 -5.59 -11.18 14.91 -7.45 1.86 3.73 -3.72 1.86 1.86 3.72 -3.73 1.87 1.86 3.72 -3.73 1.86 1.87 3.73 7.45 -3.72 1.86 3.72 3.73 -1.86 3.72 7.46 -7.45 3.72 -1.87 -3.73 -3.72 1.86 1.86 3.73 -7.45 3.72 -1.87 -3.72 -3.72 1.86 -1.86 -3.73 -11.18 5.58 -5.59 -11.18 7.46 -3.72zm197.81 -778.62l-3.72 -7.45 7.45 -3.72 -1.86 -3.73 7.46 -3.72 3.72 7.45 18.63 -9.31 9.31 18.64 -7.45 3.72 1.86 3.72 -11.18 5.59 -1.86 -3.73 -3.73 1.86 -1.86 -3.72 -3.73 1.86 -1.86 -3.73 -7.45 3.72 -1.87 -3.72 -3.72 1.86 -1.86 -3.73 3.72 -1.86zm-337.52 741.3l1.86 3.73 -3.72 1.86 1.86 3.73 22.36 -11.17 -1.86 -3.73 -11.18 5.58 -1.86 -3.72 -7.46 3.72zm206.89 -229.05l1.86 3.73 3.73 -1.86 -1.86 -3.73 -3.73 1.86zm-31.68 11.16l-1.86 -3.72 -7.45 3.72 1.86 3.73 7.45 -3.73zm274.18 -718.97l-3.73 1.86 1.86 3.73 3.73 -1.86 -1.86 -3.73zm-270.59 1033.81l1.86 3.73 3.73 -1.86 3.72 7.45 3.73 -1.86 1.86 3.73 3.73 -1.86 1.86 3.72 3.72 -1.86 1.87 3.73 3.72 -1.86 1.86 3.72 3.73 -1.86 -5.58 -11.18 -3.73 1.86 -5.58 -11.18 -3.73 1.86 -1.86 -3.72 -14.91 7.44zm-87.57 39.09l1.86 3.72 11.18 -5.58 -1.86 -3.73 -11.18 5.59z"/>
 </g>
</svg>
