<?xml version="1.0" encoding="UTF-8"?>
<!DOCTYPE svg PUBLIC "-//W3C//DTD SVG 1.1//EN" "http://www.w3.org/Graphics/SVG/1.1/DTD/svg11.dtd">
<!-- Creator: CorelDRAW (Versión de evaluación) -->
<svg xmlns="http://www.w3.org/2000/svg" xml:space="preserve" width="739px" height="2458px" version="1.1" style="shape-rendering:geometricPrecision; text-rendering:geometricPrecision; image-rendering:optimizeQuality; fill-rule:evenodd; clip-rule:evenodd"
viewBox="0 0 739 2457.4"
 xmlns:xlink="http://www.w3.org/1999/xlink"
 xmlns:xodm="http://www.corel.com/coreldraw/odm/2003">
 <defs>
  <style type="text/css">
   <![CDATA[
    .str0 {stroke:#4B4B4D;stroke-width:10;stroke-miterlimit:22.9256}
    .fil0 {fill:#FEFEFE}
   ]]>
  </style>
 </defs>
 <g id="tooth-fissure-root-14">
  <metadata id="CorelCorpID_0Corel-Layer"/>
  <path id="crown" class="fil0 str0" d="M114.15 1628.31c-16.16,84.94 -37.64,170.32 -57.29,254.38 -38.24,163.37 -128.27,352.32 47.49,449.7 48.56,26.9 150.52,96.62 196.66,112.7 148.44,51.74 341.04,-69.12 416.69,-186.42 60.96,-94.51 -30.88,-412.49 -31.45,-543.3 -277.71,-85.14 -235.87,-228.5 -422.44,-136.4 -58.85,29.06 -85.37,34 -149.66,49.34z"/>
  <path id="root" class="fil0 str0" d="M395.82 1319.18c0,-8.47 0.72,-1.71 -4.52,-1.24 -12.52,1.12 0.6,-8.18 -1.93,1.24 -2.51,9.38 6.45,4.89 6.45,0zm111.07 -1217.29c-10.44,52.04 -12.27,385.69 -6.3,511.77 7.51,-12.37 5.72,-11.36 23.97,-32.2 19.04,-21.74 2.79,-17.95 22.89,-35.43 9.74,-8.47 6.49,-1.45 15,-14.16l0 -12.5c-7.67,-11.45 -10.98,-15.1 -12.5,-33.32 17.29,3.66 7.76,0.58 17.84,0.92 33.1,1.13 8.35,15.74 69.64,15.74 -10.77,14.7 -9.99,6.39 -32.8,8.86 -14.41,1.56 -17.5,6.44 -33.85,7.8l0 8.33c-0.4,17.78 -10.29,30.33 -17.98,44.51 -6.95,12.79 -6.18,9.26 -13.97,19.8 -10.13,13.72 -9.53,9.34 -5.54,19.01l0 4.16c13.59,9.96 12.91,19.54 22.68,31.48 7.38,9.03 4.08,3.42 13.62,11.37 7.37,6.14 8.95,8.4 13.69,15.47l11.25 0c6.7,-4.31 5.41,6.79 5.41,-8.33l-9.18 -15.82c-9.24,-19.46 -7.48,-11.42 -7.48,-34.17l-4.17 0 3.47 -4.86 0.7 4.86c17.16,12.58 13.87,28.17 22.07,49.99 10.22,7.52 3.73,2.2 5.84,8.33 27.46,15.4 18.13,29.4 39.98,41.66l11.25 11.25 12.5 9.58c5.59,-4.23 -8.76,-4.17 12.5,-4.17l0 4.17 -12.5 0c5.5,20.57 7.74,2.75 8.33,29.15 5.27,0 14.4,-0.54 19.6,-0.34 -10.01,-102.16 -50.12,-252.13 -73.19,-340.92 -30.99,-119.28 -45.1,-311.9 -122.77,-321.99zm-4.13 544.4c0.25,2.55 0.51,4.84 0.79,6.79l0.08 0.63 12.83 3.64 0.17 11.98c-4.42,0 -7.94,-0.05 -10.79,-0.15 7.19,49.64 16.64,107.1 25.26,166.74 17.39,-9.78 38.79,-16.62 60.51,-16.62l-48.67 26.31c-4.08,2.25 -6.96,3.63 -9.73,5.08 15.84,112.12 27.88,230.19 15.99,317.19 -12.88,-15.48 -17.17,-26.98 -18.73,-41.26 -14.72,-2.62 -6.38,-9.71 -5.51,-11.56 1.98,-0.7 3.53,-0.71 4.74,-0.32 -0.3,-9.03 -0.22,-19.48 -0.78,-32.52 -1.07,-24.75 -3.14,-48.48 -6.4,-72.63 -6.57,-48.83 -7.76,-96.08 -13.49,-144.12 -18.86,9.22 -13.01,-4.08 -20.28,34.26 -4,21.04 3.79,9.73 -9.61,19.54 0,-19.89 -2.83,-17.27 -4.17,-33.32 -7.05,-8.11 2.6,4.41 -5.77,-6.73 -3.51,-4.66 -4.24,-6.22 -6.73,-9.93 -9.88,-2.04 -24.87,-15.29 -24.89,50.31 -0.01,30.32 22.05,20.67 37.39,49.66 -20.03,-1.66 -35.28,-19.95 -54.15,-24.99 -4.37,6.52 -5.6,7.13 -10.61,14.38l-10.22 14.78 -2.93 8.33c-8.46,9.81 -13.72,16.68 -12.6,32.5 1.5,21.17 1,14.43 -6.17,37.41l-10.26 40.12c-1.23,10.02 -1.06,13.55 2.46,19.89 7.35,13.21 -0.94,0.29 12.84,11.71 -48.47,0 -8.1,25.78 -51.24,49.99 -1.63,5.31 7.27,4.16 -7.08,4.16 3.6,15.49 7.91,18.71 8.33,37.5 9.03,6.04 34,25.47 55.99,18.63 14.22,-4.41 5.89,-9.07 31.42,-10.37 21.03,-1.06 20.38,-0.1 37.56,-4.1l8.33 -4.16 2.29 -8.96 1.87 13.12 8.34 0c8.94,-0.2 16.08,-2.51 18.66,-2.75 5.49,-0.52 2.04,-1.3 9.92,-0.26 9.46,1.24 3.6,-0.36 8.91,3.01l4.16 0 8.33 -4.16 4.17 0 58.32 -4.17 4.16 0c22.36,-5.21 49.14,-23.08 56.18,-24.98l12.62 -0.01c10.74,0.38 12.46,-20.52 25.76,-34.58 1.82,-1.91 3.51,-3.65 5.13,-5.24l9.68 -343.77c-0.08,-5.22 -0.29,-10.67 -0.62,-16.32l-21.27 0c0,16.85 -4.82,39.31 -17.9,48.75 -3.67,12.25 -7.67,16.71 -11.86,29.8 -6.6,20.61 1.88,17.75 -16.06,29.76 0.94,-11.25 1.95,-11.33 4.17,-20.83 -11.25,-0.93 -11.34,-1.95 -20.83,-4.16l0 -8.34c9.49,2.22 9.58,3.23 20.83,4.17 2.85,-12.25 2.27,-7.1 3.76,-21.14 0.44,-4.19 0.06,-7.65 1.11,-11.61 2.97,-11.22 -1.23,-1.71 4.7,-8.91 -2.62,-14.1 -2.01,-5.34 2.92,-8.33 3.69,9.88 -2.49,5.46 8.33,8.33 -2.7,-10.17 1.85,-5.63 -8.33,-8.33l0 -2.92c2.05,-10.06 3.1,-16.95 5.73,-28.86 0.13,-0.59 3.68,-12.64 3.77,-12.87l7.17 -13.67c-9.28,-6.21 -11.54,-8.59 -19.08,-18.41 -14.78,-19.26 -16.74,-9.14 -28.11,-26.05 -14.61,-21.72 -2.22,-9.6 -24.01,-21.89 -7.06,-3.99 -2.92,-1.22 -7.95,-5.71l-8.33 1.25c-15.67,-4.19 -6.01,-4.58 -23.42,-9.91 -13.28,-4.07 -15.06,-1.23 -26.57,-6.76l-12.5 0 4.17 -8.33 0 -8.33c13.68,3.66 6.94,7.47 20.83,12.5l-12.5 -45.82 -8.33 -8.33c-27.71,31.88 -16.72,20.96 -22.2,35.27zm4.33 204.29c-0.41,-2.95 -0.85,-5.9 -1.3,-8.85 -9.4,-60.56 -19.77,-119.05 -30.05,-177.33l-9.1 9.1 -8.33 0 -12.5 0c-2.37,-8.89 -3.61,-8.72 -3.65,-8.83 -4.99,-15.27 1.26,-18.22 -4.68,-24.49 -16.07,-8.51 -24.15,-6.1 -37.49,-12.5l-16.66 0 -8.13 4.79c3.27,-17.39 5.85,-11.31 -15.81,-26.57 -5.73,-4.03 -5.36,-3.87 -9.39,-7.38 -34.74,25.45 -1.49,-1.45 -35.92,9.43 -20.03,6.33 -22.33,14.86 -43.23,19.73l0 4.16 -4.86 -3.47 4.86 -0.69c12.15,-18.14 20.71,-14.83 33.3,-37.52l12.41 -25.7c7.44,-18.48 6.21,-8.94 -4.05,-24.26 16.25,-7.8 13.41,-3.34 24.99,-16.66 -2.01,24.17 -7.09,18.18 4.17,41.65l4.16 8.34c19.04,1.58 17.44,2.94 26.96,14.7 7.89,9.76 12.82,13.75 18.87,22.79l8.33 4.16c7.69,3.69 3.86,2.74 15.12,5.27 2.71,0.61 7.82,1.05 8.26,1.16 4.92,1.22 1.09,-1.36 6.51,2.38 7.05,4.86 22.28,33.26 42.83,23.21 -5.87,-33.33 -11.66,-66.64 -17.19,-100.29 -16.61,-101.13 -35.15,-201.82 -52.03,-302.48 -12.58,-74.96 -21.69,-229.9 -107.99,-244.43 -41.81,51.31 -35.67,324.94 -43.36,409.45 -7.66,84.1 -15.53,170.21 -22.85,255.72l8.24 0c-2.22,9.5 -3.21,9.58 -4.17,20.83l12.5 0 0 16.66 -16.02 -13.21c-2.07,6.86 -2.15,9.26 -3.49,10.44 -1,11.87 -1.98,23.72 -2.95,35.54 2.62,2.62 5.68,5.77 9.24,9.6 14.8,15.94 27.08,10.44 50.71,15.95 -0.93,0.59 -2.48,0.1 -3.01,1.34 -0.53,1.25 -2.33,1.03 -3.09,1.2 -25.26,5.48 -28.07,-5.86 -55.59,-6.68 -1.51,18.77 -2.99,37.47 -4.41,56.06 -19.5,254.65 -83.92,531.05 -96.04,782.7 130.89,-9.08 189.19,-120.39 303.1,-52.89 64.02,37.94 186.28,141.81 256.12,137.34l12.87 -457.29c-12.62,-3.36 -10.2,-6.35 -26.71,-7.72l-4.17 0 -8.33 8.33 -4.16 4.16c-10.33,14.1 -0.74,3.67 -16.49,8.53 -31.62,9.75 -8.39,13.51 -42.87,20.07 -25.34,4.82 -28.55,8.33 -38.68,22.87 -0.01,0.02 -3.15,7.7 -11.52,8.99 -21.08,3.23 -4.07,2.59 -11.25,-2.14l-16.66 4.17 16.66 -4.17c-2.32,0 -6.8,-0.08 -8.05,0.28 -7.54,2.17 -4.45,1.15 -8.61,3.89l8.33 12.49c-13.29,1.46 -4.8,-2.05 -23.16,14.33 -0.91,0.81 -3.55,3.08 -4.41,3.93 -14.59,14.46 3.12,8.13 -14.08,15.07l-4.17 0 4.8 24.86c-12.96,-3.16 -8.68,0.74 -11.73,-8.94 -0.06,-0.19 -1.27,-13.99 -1.4,-20.09l-8.33 0c-15.45,5.12 -5.82,-5.13 0,16.67 -10.96,-2.56 -12.24,-3.79 -20.83,-8.33 -2.57,11 -2.67,8.51 -7.37,17.62 -3.96,7.7 -5.88,12.75 -9.29,19.87 16.28,1.35 12.65,-2.53 16.66,12.49 -20.28,9.73 -24.87,-1.53 -37.49,-12.49l-8.33 -4.17 -4.17 0 -4.16 0c-5.43,3.37 -0.01,0.6 -7.9,2 -21.29,3.77 -11.66,-0.64 -30.38,18.01l-14.19 15.01c-0.38,0.48 -1.12,1.65 -1.69,2.47 2.29,9.81 3.88,12.3 4.17,25l-8.33 0c-12.43,9.1 -8.89,14.52 -25.07,24.92 -11.5,7.39 -21.98,13.35 -33.25,20.9l-4.17 4.16c-6.51,9.73 -12.53,21.3 -11.89,37.31 0.63,15.66 8.51,23.57 -13.1,29.34l12.49 -79.14 4.17 -8.34c3.68,9.88 -2.5,5.46 8.33,8.34 -2.7,-10.18 1.85,-5.64 -8.33,-8.34l4.17 -4.16c6.71,-14 1.9,-3 2.89,-15.81 0.09,-1.22 0.03,-4.78 0.12,-5.86 0.68,-8.47 -2.49,-1.23 1.15,-7.49 -1.02,-0.94 -3.11,-3.6 -3.33,-4.17 -0.12,-0.3 -0.58,-1.78 -0.69,-2.09 -0.09,-0.28 -0.11,-1.38 -0.17,-2.07 -16.22,-2.56 -6.49,0.19 -20.03,-5.26 -1.27,-0.5 -4.52,-2.02 -5.6,-2.57 -8.63,-4.37 -3.7,-1.91 -7.67,-4.67l-8.96 -2.29 8.96 2.29c2.25,0 16.4,-0.7 16.98,-0.63 23.78,2.8 8.81,-2.43 16.35,8.94l4.16 -4.14 4.17 0c7.07,-2.92 24.16,0 41.65,0 4.4,-9.17 3.72,-14.41 10.26,-23.07 4.43,-5.86 12.35,-11.05 18.9,-18.59l0 -8.33 7.22 -34.94c2.06,-6.47 2.23,-5.23 3.7,-8.2 23.9,-48.56 -30.39,-70.25 -19.25,-94.33l-4.16 -4.16c-8.62,-9.91 -4.88,-12.13 -14.31,-19.4 -4.79,-3.7 -6.62,-3.59 -10.35,-4.18 -9.35,-1.5 -19.08,4.33 -32.29,4.69 -15.69,0.42 -10.83,0.93 -26.37,2.22 5.89,-8.03 1.28,-0.49 5.94,-6.55 4.97,-6.47 3.31,-1.14 6.56,-10.11l41.66 -12.5c22.01,-5.87 4.27,-10.42 29.16,-12.49l4.16 1.24c5.33,-22.87 22.94,-32.84 24.97,-59.01 2.5,-32.3 6.26,-44.49 12.52,-71.37 -9.25,0.77 -11.15,0.19 -16.48,4.35 -10.44,8.13 -6.52,26.2 -29.34,41.47 3.25,-12.16 4.62,-10.29 11.23,-22.24 1.72,-3.1 5.08,-9.69 5.49,-10.94 4.59,-13.99 0.58,-5.83 1.22,-10.6 3.43,-25.79 15.39,2.43 15.39,-47.86 -28.09,7.5 -3.84,15.19 -20.83,20.83l9.57 -29.16 -4.16 -8.33 -6.66 -4.17c-12.6,0 -4.22,1.09 -5.84,-4.16l-13.74 0c-2.61,-5.44 -3.2,-7.9 -6.27,-14.56 -6.88,-14.95 -1.85,1.79 -6.23,-14.6 4.58,2.19 4.9,1.01 8.9,3.6 6.75,4.37 2.58,1.68 6.72,5.77 6.26,6.19 -2.6,6.72 17.71,11.46 9.36,-6.86 22.61,-29.92 28.05,-42.84 12.94,-30.73 8.23,-25.73 -7.22,-48.81 0.57,-0.83 1.37,-3.18 1.58,-2.58l10.78 -22.57c3.4,-6.99 10.57,-24.85 17.88,-17.08 13.75,14.61 -12.11,2.06 -7.44,20.15 3.29,12.73 5.53,1.55 8.38,-0.1 14.97,-8.61 -12.15,-4.05 14.64,-6.98 -5.97,22.36 -12.86,7.85 -15.42,29.16l7.76 7.76 -7.76 0.57c-11.87,13.32 -8.62,23.77 -13.6,41.81 -4.86,17.6 -15.5,26.31 -8.47,41.51l4.16 8.33c11.57,7.74 3.71,5.02 17.91,8.33 -1.63,-5.48 -2.72,-4.17 2.92,-4.17l0 -4.16 4.17 -4.17c15.6,-23.3 49.59,-33.85 36.68,-94.27 -3.03,-14.16 -5.02,-13.68 -19.26,-23.15l19.93 1.41c-9.59,-13.9 -6.8,-4.02 -16.52,-17.29 33.3,7.76 16.52,2.59 32.56,-21.58 12.3,-18.54 17.52,-20.08 46.58,-20.08 -11.14,7.75 -18.73,4.42 -27.2,18.82 -3.29,5.59 -2.2,8.31 -6.58,14.98 -6.9,10.48 -3.73,12.04 -7.87,-0.47 -6.33,7.27 -5.66,5.17 -8.34,16.66l17.45 11.72c7.43,6.34 7.83,7.89 15.88,13.27l4.17 0c12.04,-2.8 20.02,-6.02 27.95,-10.37zm-284.32 -107.38l-0.97 11.92c2.21,-4.12 1.31,-3.58 3.23,-10.8 -0.8,-0.43 -1.55,-0.8 -2.26,-1.12zm470.61 476.84l1.3 -46.45c-2.41,27.99 -2.27,16.45 -11.43,28.95 3.63,13.59 4.28,9.88 10.13,17.5zm-326.72 -254.94l-4.16 -8.33c-8.09,-2.15 -6.45,-0.77 -12.5,-4.17 1.41,16.98 2.14,16.95 16.66,20.83l0 -8.33zm8.33 -245.78l-1.24 -1.24c0.08,0.08 1.66,0.83 1.24,1.24zm37.5 770.65l-1.25 -1.24c0.08,0.08 1.66,0.82 1.25,1.24zm0 -666.51l-1.25 -1.24c0.08,0.08 1.66,0.83 1.25,1.24zm-20.83 304.1l-1.25 -1.25c0.09,0.09 1.66,0.83 1.25,1.25zm79.14 45.82l-1.24 -1.24c0.08,0.08 1.66,0.82 1.24,1.24zm116.64 104.14l-1.24 -1.24c0.08,0.08 1.66,0.83 1.24,1.24zm-74.98 -124.97l-4.17 0 3.48 -4.86 0.69 4.86c4.23,-5.58 4.17,8.76 4.17,-12.5l13.39 11.61 -17.44 9.45 -0.12 -8.56zm0 -41.66c0,10.35 -6.66,1.07 -2.58,0 0.05,-0.01 2.58,-11.81 2.58,0zm-187.45 37.5c0,10.34 -6.66,1.06 -2.59,0 0.05,-0.02 2.59,-11.82 2.59,0zm0 -54.16c0,10.35 -6.66,1.07 -2.59,0 0.05,-0.01 2.59,-11.82 2.59,0zm-79.15 -449.89c0,10.35 -6.66,1.07 -2.59,0 0.06,-0.01 2.59,-11.82 2.59,0zm233.28 524.87c0,10.35 -6.67,1.07 -2.59,0 0.05,-0.01 2.59,-11.81 2.59,0zm-104.15 -404.07c0,10.35 -6.66,1.07 -2.58,0 0.05,-0.01 2.58,-11.81 2.58,0zm108.31 441.56c0,10.35 -6.66,1.07 -2.58,0 0.05,-0.01 2.58,-11.81 2.58,0zm-208.28 12.5c-0.17,1.38 -4.6,0.93 -4.97,0.8 -1.04,-0.39 -7.23,9.64 -1.81,-1.12 0.12,-0.24 7.77,-7.71 6.78,0.32zm-54.16 -312.42c2.15,11.58 -9.93,-2 -4.12,-1.64 7.79,0.49 2.53,-6.97 4.12,1.64zm83.32 216.61c0,4.9 -8.97,9.39 -6.45,0 2.52,-9.41 -10.6,-0.11 1.92,-1.23 5.25,-0.47 4.53,-7.24 4.53,1.23zm149.96 258.27c-4.28,4.28 -15.07,-5.99 -4.83,-2.25 0.1,0.04 11.82,-4.74 4.83,2.25zm154.13 -516.54c-4.28,4.28 -15.07,-5.99 -4.83,-2.25 0.1,0.04 11.82,-4.74 4.83,2.25zm-337.42 -166.63c-4.28,4.28 -15.07,-5.99 -4.83,-2.24 0.1,0.03 11.83,-4.75 4.83,2.24zm25 445.73c-4.28,4.28 -15.07,-6 -4.84,-2.25 0.11,0.04 11.83,-4.74 4.84,2.25zm154.13 224.95c-4.28,4.27 -15.07,-6 -4.84,-2.25 0.11,0.03 11.83,-4.75 4.84,2.25zm-174.96 -195.79c-0.88,4.75 -9.16,9.11 -5.61,0.84 1.5,-3.49 7.61,-11.66 5.61,-0.84zm324.92 -329.09c-0.88,4.76 -9.16,9.11 -5.61,0.84 1.5,-3.49 7.61,-11.66 5.61,-0.84zm-237.44 -154.13c-8.97,-6.23 -5.49,-0.61 -8.33,-12.49 9.2,6.39 5.17,0.68 8.33,12.49l9.16 7.5c-11.46,3.67 -7.11,-2.7 -13.33,9.19 5.35,15.82 0,11.1 0,33.3l-8.33 0c0,-15.57 2.08,-20.07 4.17,-33.3 -5.14,0.82 -4.17,11.11 -4.17,-4.19l12.5 -12.5zm154.13 487.38c2.91,-12.17 -0.54,-6 8.33,-12.49 -2.74,11.42 1.69,6.49 -8.33,12.49zm54.15 112.48c2.92,-12.18 -0.54,-6 8.33,-12.5 -2.73,11.42 1.69,6.49 -8.33,12.5zm-99.98 -87.48l-4.16 0 0 -12.5 4.16 0 0 12.5zm-79.14 58.32l-4.52 8.11 4.52 8.55c11.29,5.42 28.89,8.7 38.18,4.33 19.26,-9.06 6.84,-13.91 -0.69,-25.16l20.14 -4.23c0.46,-0.01 1.65,0.24 2.08,0.24l6.02 0.27c6.85,-2.17 7.11,-5.58 9.25,-8.78 -31.25,-14.99 -41.61,-0.69 -51.83,4.07 -0.5,0.23 -1.65,0.64 -2.16,0.85 -0.9,0.38 -3.48,1.08 -4.41,1.46l-16.58 10.29zm4.16 -641.51c0,-8.47 0.72,-1.71 -4.52,-1.24 -12.52,1.12 0.6,-8.18 -1.93,1.24 -2.51,9.38 6.45,4.89 6.45,0zm66.65 249.94l8.33 -4.17c-12.13,-5.2 -4.82,-7.63 -8.33,4.17zm-58.32 -62.49c0,20.13 -2.22,17.97 -8.33,25l0 -37.5c7.02,4.88 8.33,0.6 8.33,12.5zm124.97 462.39c0,-8.47 0.73,-1.71 -4.52,-1.24 -12.52,1.13 0.6,-8.17 -1.93,1.24 -2.51,9.39 6.45,4.9 6.45,0zm-129.13 41.66l-16.66 0 0 16.66c8.35,0.91 3.1,-0.74 10.09,2.4l6.57 5.93 0 -24.99zm4.16 220.78l20.72 -12.71c-2.81,-12.35 -3.55,-31.71 -8.22,-41.45 9.81,-2.28 12.3,-3.88 24.99,-4.16 -0.37,16.79 -2.48,10.69 -9.25,36.56 -4.33,16.54 -6.37,21.27 -28.24,21.76zm54.16 -120.81c-2.93,6.7 1.98,5.11 -10.55,11.06 -11.06,5.25 11.62,-3.35 -6.12,1.44 4.94,21.16 16.2,39.27 -12.49,41.65 9.47,-17.9 -1.13,-7.56 12.49,-12.49 -8.62,-12.88 -12.46,-9.26 -16.66,-25l20.83 -20.82c1.23,0.64 6.07,2.08 6.76,2.3l5.74 1.86zm108.3 -908.11l4.17 4.16 -4.17 -4.16zm0 0l4.17 4.16 -4.17 -4.16zm4.17 16.66l-4.17 -16.66 4.17 16.66zm-245.77 41.66l0 24.99 4.16 0c0,-22.14 12.74,-12.61 -4.16,-24.99zm120.8 291.59l-1.24 1.25c0.08,-0.09 1.65,-0.83 1.24,-1.25zm4.17 -33.32l4.79 -8.12 -4.79 8.12zm4.16 499.88l-1.24 1.24c0.08,-0.08 1.66,-0.83 1.24,-1.24zm49.99 -20.83c-14.56,1.21 -12.24,0.86 -20.83,8.33 14.56,-1.21 12.24,-0.87 20.83,-8.33zm24.99 -12.5l4.34 -12.32c0.17,-1.17 -0.17,-10.79 -0.17,-12.67l-16.66 0c0.62,28.17 4.91,6.19 12.49,24.99zm-70.81 -24.99l0 24.99 4.16 0c0,-22.14 12.74,-12.61 -4.16,-24.99zm20.83 0c-16.91,12.38 -4.17,2.85 -4.17,24.99l4.17 0 0 -24.99zm133.3 -49.99c-16.91,12.38 -4.17,2.86 -4.17,24.99l4.17 0 0 -24.99z"/>
 </g>
</svg>
