<?xml version="1.0" encoding="UTF-8"?>
<!DOCTYPE svg PUBLIC "-//W3C//DTD SVG 1.1//EN" "http://www.w3.org/Graphics/SVG/1.1/DTD/svg11.dtd">
<!-- Creator: CorelDRAW (Versión de evaluación) -->
<svg xmlns="http://www.w3.org/2000/svg" xml:space="preserve" width="739px" height="2458px" version="1.1" style="shape-rendering:geometricPrecision; text-rendering:geometricPrecision; image-rendering:optimizeQuality; fill-rule:evenodd; clip-rule:evenodd"
viewBox="0 0 739 2457.4"
 xmlns:xlink="http://www.w3.org/1999/xlink"
 xmlns:xodm="http://www.corel.com/coreldraw/odm/2003">
 <defs>
  <style type="text/css">
   <![CDATA[
    .str0 {stroke:#4B4B4D;stroke-width:10;stroke-miterlimit:22.9256}
    .fil1 {fill:none}
    .fil0 {fill:#FEFEFE}
   ]]>
  </style>
 </defs>
 <g id="tooth-fissure-root-15">
  <metadata id="CorelCorpID_0Corel-Layer"/>
  <path id="crown" class="fil0 str0" d="M107.14 1667.25c-69.82,146.14 -173.37,487.41 -50.53,624.84 28.43,31.8 203.52,141.64 245.49,158.42 92.47,36.99 454.48,-74.52 435.78,-346.31 -2.31,-33.66 -58.82,-317.07 -69.76,-334.59 -12.37,-19.8 -85.22,-34.18 -126.55,-77.35 -77.35,-80.81 -158.51,-120.4 -275.04,-61.61 -87.65,44.2 -65.95,24.35 -159.39,36.6z"/>
  <g>
   <path id="root" class="fil0" d="M349.37 1192.06l0 -8.33 -8.33 0 0 8.33 8.33 0zm54.16 -504.04l4.79 -8.12 -4.79 8.12zm220 185.22c-25.21,-11.92 -15.26,-3.04 -30.9,-44.68 -7.23,-19.27 -12.81,-35.25 -20.94,-54.61 -6.02,-14.36 -11.72,-27.85 -17.14,-40.59 -1.74,-1.13 -2.61,-2.48 -1.08,-2.55 -2.02,-4.73 -3.98,-9.33 -5.91,-13.85 -0.72,0.05 -1.51,0.12 -2.4,0.22l1.63 -2c-3.36,-7.87 -6.63,-15.46 -9.76,-22.73l-59.3 32.28c-37.13,27.31 -27,-3.44 -35.58,43.56 -3.87,21.16 4.13,9.74 -9.46,19.71 0,-19.9 -2.83,-17.28 -4.17,-33.33 -2.38,-2.74 -1.46,-0.97 -5.78,-6.72 -3.49,-4.65 -4.24,-6.24 -6.71,-9.94 -16.76,-4.01 -6.91,-2.46 -16.67,-0.02 -3.24,7.29 -10.14,50.83 -7.08,61.06 5.95,19.84 21.72,11.5 36.24,38.93 -13.81,-1.15 -38.82,-17.52 -49.99,-24.99 -17.34,11.61 -12.34,11.69 -21.21,24.61 -0.42,0.62 -1.5,1.82 -1.86,2.31 -0.35,0.49 -1.27,1.5 -1.92,2.24l-2.92 8.33c-23.79,27.56 -2.93,17.12 -18.7,69.96 -0.8,2.67 -6.07,16.54 -6.74,19.17 -0.09,0.34 -3.44,20.06 -3.55,20.89 -3.5,25.4 8.65,26.15 15.25,31.61 -48.45,0 -8.02,25.74 -51.23,49.99 -1.59,5.16 6.74,4.23 -5.9,4.17l343.78 -173.03zm-343.78 173.03l-0.94 0 0.94 0zm-0.94 0l-0.25 0 0 -12.5 0 12.5 0.25 0zm-0.25 -12.5l4.16 1.24c5.3,-22.74 23.27,-32.87 25.04,-58.93 2.21,-32.3 6.21,-44.64 12.46,-71.45 -17.05,1.42 -16.03,1.96 -21.69,11.64 -9.68,16.55 -5.28,21.56 -24.14,34.19 3.02,-11.3 7.19,-14.6 12.69,-25 9.63,-18.19 5.7,-8.46 3.98,-29.16 18.29,-4.88 16.66,-14.84 16.66,-37.49 -29.05,7.76 -3.46,15.07 -20.83,20.83l9.57 -29.16 -4.16 -8.33 -6.65 -4.17c-12.6,0 -4.23,1.1 -5.85,-4.16l-13.74 0c-2.61,-5.44 -3.17,-8.18 -6.2,-14.63 -7.06,-15.06 -1.88,2 -6.29,-14.53 35.86,17.21 2.85,13.73 33.32,20.83 2.86,-2.1 57.88,-62.67 20.83,-87.48 9.59,-20 10.82,-37.71 29.16,-49.99 12.18,26.34 -17.05,1.31 -4.17,29.16 19.56,-14.33 -3.67,-9.82 20.83,-12.5 -5.97,22.36 -12.86,7.85 -15.42,29.16l7.76 7.76 -7.76 0.57c-12.02,13.49 -8.28,22.37 -13.59,41.8 -4.83,17.64 -15.53,26.27 -8.48,41.52l4.17 8.33c11.57,7.75 3.71,5.02 17.9,8.33 -1.63,-5.47 -2.72,-4.17 2.92,-4.17l0 -4.16 4.17 -4.17c17.03,-25.44 48.64,-31.88 36.89,-94.41 -3.49,-18.52 -11.99,-15.61 -24.39,-26.39l24.85 4.8c-9.58,-13.91 -6.8,-4.03 -16.52,-17.3 9.49,2.21 9.58,3.23 20.83,4.17 26.91,-56.1 9.1,-15.87 29.16,-45.83l29.15 4.17c-34.87,0 -22.55,23.49 -41.65,37.49l0 -8.33 -8.33 16.66c13.71,4.97 21.69,17.21 33.32,25l4.17 0c3.9,-0.91 27.5,-9.06 30.66,-11 0.75,-0.47 1.55,-1.4 2.27,-1.89 30.01,-20.59 18.25,6.75 21.22,-20.44 24.84,5.79 23.28,-5.5 48.46,-7.89 -30.75,-71.2 -50.45,-114.17 -65.35,-150.4 -24.01,0.01 -18.45,1.47 -33.1,-8.33l-16.66 12.49 -8.33 0 -12.5 0 -8.93 -32.4c-9.17,-11.07 -23.7,-7.09 -36.89,-13.42l-16.66 0 -8.13 4.79c2.76,-13.01 4.81,-12.22 -5.61,-19.9 -2.75,-2.02 -6.25,-3.57 -10.44,-6.53 -1,-0.7 -3.92,-2.94 -4.74,-3.59 -0.58,-0.46 -1.75,-1.57 -2.22,-1.96 -0.46,-0.38 -1.45,-1.33 -2.19,-1.97 -9.2,6.4 -5.17,0.68 -8.33,12.5 -30.68,-16.24 -37.81,7.62 -68.08,15.96 0.51,45.69 1.4,90.49 2.35,132.45 1.95,1.19 4.28,3 7.41,5.72 -2.59,0 -5.01,-0.06 -7.29,-0.15 2.21,96.76 4.64,177.75 3.3,218.31 -2.23,66.82 -8.51,136.98 -17.07,206.8l62.72 -25.06zm-62.72 25.06c-0.57,4.71 -1.16,9.42 -1.76,14.13l1.76 -14.13zm-1.76 14.13c-8.99,70.72 -20.19,140.82 -31.78,206.46 4.94,-0.2 12.65,-0.58 13.26,-0.51 23.74,2.67 8.9,-2.29 16.35,8.94l4.16 -4.14 4.17 0 0 16.66 -4.17 0c-1.01,-0.94 -3.1,-3.59 -3.33,-4.17 -0.11,-0.3 -0.58,-1.78 -0.68,-2.09 -0.1,-0.28 -0.11,-1.38 -0.17,-2.07 -16.25,-2.56 -6.48,0.21 -20.03,-5.26 -1.26,-0.51 -4.52,-2.02 -5.59,-2.56 -2.28,-1.15 -3.61,-1.83 -4.42,-2.25 -31.69,179.1 -66.03,324.56 -65.36,357.82 96.09,-0.27 69.73,3.42 146.22,-36.34 49.64,-25.81 111.07,-34.65 169.6,-18.26 120.45,33.73 67.8,86.01 237.68,149.75 11.46,-219.94 3.15,-434.75 -13.5,-649.91 -0.5,-6.43 -1.01,-12.86 -1.52,-19.29 -0.95,-11.95 -2.96,-24.02 -5.55,-36.14l-0.12 0 0.12 0 -0.12 0 0.12 0 -0.12 0 -435.22 43.36zm435.34 -43.36c-0.93,-4.37 -1.93,-8.74 -2.99,-13.12l2.99 13.12zm-2.99 -13.12l-0.51 -2.12 0.51 2.12zm-0.51 -2.12c-11.79,-48.08 -29.34,-96.54 -22.39,-141.12 -6.95,44.58 10.6,93.04 22.39,141.12zm-29.94 69.4l-8.33 8.33 -4.17 4.16 0 -16.66c2.32,0 6.8,-0.08 8.05,0.28 7.37,2.12 4.63,1.36 8.61,3.89 17.51,1.45 13.73,4.73 29.16,8.33 -8.1,-12.1 -8.43,-5.59 -12.49,-20.83 6.49,-8.87 0.31,-5.42 12.49,-8.33 -7.83,-16.32 -1.48,-15.54 0,-33.33l0.12 0 -0.12 0 -33.32 54.16zm4.16 0l-4.16 0 4.16 0zm-187.45 120.8l-2.99 0 2.99 0zm-2.99 0l-1.18 0 4.8 24.86c-11.35,-2.75 -10.45,2.64 -12.06,-14 -0.09,-0.94 -0.26,-2.19 -0.34,-3.19 -0.37,-4.58 -0.62,-7.03 -0.73,-11.83 0.11,4.8 0.36,7.25 0.73,11.83 0.08,1 0.25,2.25 0.34,3.19 1.61,16.64 0.71,11.25 12.06,14l-4.8 -24.86 -0.05 -0.54c-0.33,-3.7 -0.85,-6.54 -1.43,-8.75 -2.8,-10.85 -6.7,-6.66 5.65,-15.7l0 11.47 0 13.52 -2.99 0zm-84.49 37.49l-4.17 0 -2.98 0 7.15 0zm-7.15 0l-1.18 0c-17.72,11 -7.56,-11.47 -35.92,18.24l-18.24 19.25 18.24 -19.25c28.36,-29.71 18.2,-7.24 35.92,-18.24l0 -12.5 16.66 0 0 7.13 0 9.54c19.94,17.33 19.21,21.27 37.49,12.49 -4.01,-15.01 -0.38,-11.14 -16.66,-12.49 3.93,-8.2 4.27,-11.21 9.23,-19.93 5.22,-9.18 4.86,-6.53 7.43,-17.56 8.59,4.54 9.88,5.78 20.83,8.33 -3.29,-12.33 -1.7,-6.75 -8.33,-16.66l8.33 0 -8.33 0c6.63,9.91 5.04,4.33 8.33,16.66 -10.95,-2.55 -12.24,-3.79 -20.83,-8.33 -2.57,11.03 -2.21,8.38 -7.43,17.56 -4.96,8.72 -5.3,11.73 -9.23,19.93 16.28,1.35 12.65,-2.52 16.66,12.49 -18.28,8.78 -17.55,4.84 -37.49,-12.49l-8.29 -4.15 -0.04 -0.02 -7.15 0zm-55.34 37.49c0.97,4.16 1.82,7.01 2.49,9.87 0.92,3.89 1.52,7.82 1.68,15.13l-7.15 0 2.98 -25zm-2.98 25l-1.18 0c-12.53,9.18 -9.04,15.33 -25,24.98 -12.27,7.42 -21.68,13.04 -33.32,20.84l59.5 -45.82zm-1.18 0c0,-1.15 -0.14,-5.41 -0.2,-8.7 -0.04,-1.97 -0.06,-3.59 0,-4l2.73 -9.77c0.23,-0.63 1.03,-1.73 1.63,-2.53l-4.16 25zm266.6 -224.95l4.17 0c5.61,-1.31 10.89,-2.34 16.17,-4.66 7.87,-3.45 5.82,-4.02 13.08,-7.74 16.15,-8.29 19.27,-1.2 24.9,-16.76l16.54 8.56c8.66,-13.02 11.38,-20.84 15.23,-27.97 2.55,-4.71 5.59,-9.13 11.18,-14.54 0.52,-0.51 1.07,-1.02 1.64,-1.55 6.36,-5.87 15.7,-12.98 30.39,-22.82l-133.3 87.48zm4.17 0c9.39,20.32 0,1.99 0,25l-4.17 0 0 -25 4.17 0zm99.97 -49.99c-1.48,17.79 -7.83,17.01 0,33.33 -12.18,2.91 -6,-0.54 -12.49,8.33 4.06,15.24 4.39,8.73 12.49,20.83 -15.43,-3.6 -11.65,-6.88 -29.16,-8.33 17.51,1.45 13.73,4.73 29.16,8.33 -8.1,-12.1 -8.43,-5.59 -12.49,-20.83 6.49,-8.87 0.31,-5.42 12.49,-8.33 -7.83,-16.32 -1.48,-15.54 0,-33.33l0.12 0 -0.12 0zm-184.81 -505.1c-2.39,-6.04 -4.65,-11.96 -6.83,-17.88 -0.65,2.84 0.75,4.57 -4.14,14.77l10.97 3.11zm-13.38 -36.42c-19.14,-56.63 -33.56,-122.96 -70.48,-292.31 -13.43,-61.66 -41.33,-192.66 -104.44,-195.76 -45.45,53.68 -51.35,281.99 -49.08,492.59 9.77,-12.82 15.18,-10.04 25.78,-26.04 13.05,-19.7 9.81,-23.51 21.5,-40.98 -3.29,-12.32 -1.69,-6.75 -8.33,-16.66 3.03,-1.45 12.58,-4.66 14.77,-6.06 1.03,-0.66 3.74,-2.97 4.59,-3.74l5.64 -6.86c-2.02,24.17 -7.1,18.18 4.16,41.65l4.17 8.34c19.29,1.6 17.7,2.92 26.75,14.9 7.87,10.41 12.36,12.56 19.07,22.59l8.33 4.16c44.13,21.18 8.28,-14.26 40.48,21.98 19.15,21.54 39.23,8.96 49.61,-6.87l7.48 -10.93zm-130.89 345.74l-4.17 -8.33c-8.09,-2.15 -6.44,-0.77 -12.5,-4.17 1.42,16.99 2.14,16.95 16.67,20.83l0 -8.33zm8.33 -245.78l-1.25 -1.24c0.08,0.08 1.66,0.83 1.25,1.24zm37.49 770.65l-1.25 -1.24c0.09,0.08 1.66,0.83 1.25,1.24zm0 -666.5l-1.25 -1.25c0.09,0.08 1.66,0.83 1.25,1.25zm-20.83 304.09l-1.24 -1.24c0.08,0.08 1.65,0.82 1.24,1.24zm79.15 45.82l-1.25 -1.24c0.09,0.08 1.66,0.83 1.25,1.24zm116.63 104.14l-1.24 -1.24c0.08,0.08 1.66,0.83 1.24,1.24zm-74.98 -124.97l-4.16 0 3.47 -4.86 0.69 4.86zm-244.94 71.65c2.04,-11.66 -2.38,-5.48 7.5,-9.16l-7.5 9.16zm57.49 -75.81c0,10.06 -6.72,1.43 -2.66,0 0.05,-0.02 2.66,-11.94 2.66,0zm187.45 -37.49c0,10.06 -6.71,1.43 -2.66,0 0.06,-0.02 2.66,-11.95 2.66,0zm-33.32 58.31c0,10.07 -6.72,1.44 -2.66,0 0.05,-0.01 2.66,-11.94 2.66,0zm-154.13 -74.98c0,10.07 -6.72,1.43 -2.66,0 0.05,-0.02 2.66,-11.94 2.66,0zm158.29 112.48c0,10.06 -6.71,1.43 -2.66,0 0.06,-0.02 2.66,-11.95 2.66,0zm-108.3 -441.56c0,10.06 -6.72,1.43 -2.66,0 0.05,-0.02 2.66,-11.94 2.66,0zm-108.31 412.4l7.5 -9.17c-2.39,12.99 7.4,7.56 -7.5,9.17zm187.45 204.11c-4.14,4.14 -15.1,-5.72 -4.96,-2.31 0.1,0.04 11.96,-4.68 4.96,2.31zm-158.29 -237.44c-4.14,4.14 -15.1,-5.72 -4.97,-2.31 0.11,0.04 11.97,-4.69 4.97,2.31zm154.13 224.95c-4.14,4.14 -15.1,-5.72 -4.97,-2.31 0.11,0.03 11.97,-4.69 4.97,2.31zm29.16 -149.97l-8.33 0c3.16,6.6 4.16,5.98 4.16,16.67l4.17 0 0 -16.67zm132.81 -12.99c7.87,-3.45 5.82,-4.02 13.08,-7.74 16.15,-8.29 19.27,-1.2 24.9,-16.76l16.54 8.56c8.66,-13.02 11.38,-20.84 15.23,-27.97 2.55,-4.71 5.59,-9.13 11.18,-14.54 0.52,-0.51 1.07,-1.02 1.64,-1.55 6.36,-5.87 15.7,-12.98 30.39,-22.82 -14.69,9.84 -24.03,16.95 -30.39,22.82 -0.57,0.53 -1.12,1.04 -1.64,1.55 -5.59,5.41 -8.63,9.83 -11.18,14.54 -3.85,7.13 -6.57,14.95 -15.23,27.97l-16.54 -8.56c-5.63,15.56 -8.75,8.47 -24.9,16.76 -7.26,3.72 -5.21,4.29 -13.08,7.74 -5.28,2.32 -10.56,3.35 -16.17,4.66 5.61,-1.31 10.89,-2.34 16.17,-4.66zm0 0c7.87,-3.45 5.82,-4.02 13.08,-7.74 16.15,-8.29 19.27,-1.2 24.9,-16.76l16.54 8.56c8.66,-13.02 11.38,-20.84 15.23,-27.97 2.55,-4.71 5.59,-9.13 11.18,-14.54 0.52,-0.51 1.07,-1.02 1.64,-1.55 6.36,-5.87 15.7,-12.98 30.39,-22.82 -14.69,9.84 -24.03,16.95 -30.39,22.82 -0.57,0.53 -1.12,1.04 -1.64,1.55 -5.59,5.41 -8.63,9.83 -11.18,14.54 -3.85,7.13 -6.57,14.95 -15.23,27.97l-16.54 -8.56c-5.63,15.56 -8.75,8.47 -24.9,16.76 -7.26,3.72 -5.21,4.29 -13.08,7.74 -5.28,2.32 -10.56,3.35 -16.17,4.66 5.61,-1.31 10.89,-2.34 16.17,-4.66zm-91.16 12.99l8.34 -4.16 4.16 0 58.32 -4.17 -58.32 4.17 0 20.83c-0.95,-1.01 -3.72,-3.42 -4.39,-3.94 -10.12,-7.79 -8.46,-3.28 -12.27,-12.73 -4.62,-3.49 0.4,-2.86 -8.61,-3.96 -6.38,-0.78 -6.72,0.6 -10.31,1.2 -7.16,1.18 -6.81,2.5 -18.57,2.76 11.76,-0.26 11.41,-1.58 18.57,-2.76 3.59,-0.6 3.93,-1.98 10.31,-1.2 9.01,1.1 3.99,0.47 8.61,3.96l4.16 0zm-158.29 -529.04c-8.96,-6.22 -5.49,-0.61 -8.33,-12.49 9.2,6.4 5.18,0.68 8.33,12.49zm154.13 487.39c2.91,-12.18 -0.54,-6 8.33,-12.5 -2.73,11.42 1.69,6.49 -8.33,12.5zm54.15 112.47c2.92,-12.18 -0.53,-6 8.33,-12.5 -2.73,11.42 1.69,6.49 -8.33,12.5zm-99.97 -87.48l-4.17 0 0 -12.5 4.17 0 0 12.5zm-12.5 129.14l1.18 0 4.44 0 2.71 0c-0.01,-0.67 -0.02,-1.31 -0.03,-1.93 -0.2,-18.91 3.42,-10.31 -8.3,-18.9l0 20.83zm-158.3 129.12c-12.27,7.42 -21.68,13.04 -33.32,20.84 11.64,-7.8 21.05,-13.42 33.32,-20.84 15.96,-9.65 12.47,-15.8 25,-24.98 -12.53,9.18 -9.04,15.33 -25,24.98zm0 0c-12.27,7.42 -21.68,13.04 -33.32,20.84 11.64,-7.8 21.05,-13.42 33.32,-20.84 15.96,-9.65 12.47,-15.8 25,-24.98 -12.53,9.18 -9.04,15.33 -25,24.98zm4.17 -333.24l-8.33 0 0 -8.33 8.33 0 0 8.33zm33.33 237.44l0 8.33c3.87,5.9 4.14,-7.64 4.16,8.8l0 3.7 4.17 0 -0.07 -7.52 -0.15 -17.83 -6.98 3.89 -1.13 0.63zm-12.5 -129.13c51.76,77.29 23.27,72.97 18.49,97.06l-5.99 32.07 5.99 -32.07c4.78,-24.09 33.27,-19.77 -18.49,-97.06l4.16 -8.34 -4.16 8.34zm8.33 -20.83c-1.49,8.04 -1,6.94 -4.17,12.49l-4.16 8.34c51.76,77.29 23.27,72.97 18.49,97.06l-5.99 32.07 5.99 -32.07c4.78,-24.09 33.27,-19.77 -18.49,-97.06l4.16 -8.34 -4.16 -4.16c-11.13,-12.8 -4.72,-12.36 -14.06,-19.59l-15.81 -4.01c-1.01,0.04 -3.51,0.37 -4.52,0.54l-30.09 3.93 -18.83 2.47c5.72,-7.81 0.79,-0.24 5.97,-6.52 5.37,-6.51 3.24,-1.09 6.52,-10.15 2.66,0 5.37,0.03 8.1,0.07 8.69,0.12 17.59,0.34 25.95,0.15 15.31,-0.34 13.91,0.31 10.91,-6.77 -0.27,-0.63 -1.34,-2.25 -1.63,-2.82 -0.31,-0.61 -1.27,-2.01 -1.67,-3.12 22.01,-5.88 4.27,-10.43 29.16,-12.5 -24.89,2.07 -7.15,6.62 -29.16,12.5 0.4,1.11 1.36,2.51 1.67,3.12 0.29,0.57 1.36,2.19 1.63,2.82 3,7.08 4.4,6.43 -10.91,6.77 -8.36,0.19 -17.26,-0.03 -25.95,-0.15 -2.73,-0.04 -5.44,-0.07 -8.1,-0.07 -3.28,9.06 -1.15,3.64 -6.52,10.15 -5.18,6.28 -0.25,-1.29 -5.97,6.52l18.83 -2.47 30.09 -3.93c1.01,-0.17 3.51,-0.5 4.52,-0.54l15.81 4.01c9.34,7.23 2.93,6.79 14.06,19.59l0.22 -12.85 0.71 0.39 7.4 4.13zm124.97 4.16l8.33 -4.16 2.29 -8.96 1.88 13.12 -1.88 -13.12 -2.29 8.96c-2.18,9.34 -4.16,9.57 -4.16,20.83l-4.17 0 0 -16.67zm83.31 -91.64c-20.07,-0.45 -25.43,-7.32 -12.49,-16.66 2.99,11.23 0.99,6.66 12.49,16.66zm-61.85 233.14c-11.35,-2.75 -10.45,2.64 -12.06,-14 -0.09,-0.94 -0.26,-2.19 -0.34,-3.19 -0.37,-4.58 -0.62,-7.03 -0.73,-11.83 0.11,4.8 0.36,7.25 0.73,11.83 0.08,1 0.25,2.25 0.34,3.19 1.61,16.64 0.71,11.25 12.06,14l-4.8 -24.86 4.8 24.86zm-83.95 -737.19l0 -8.33 -8.33 0 0 8.33 8.33 0zm-141.63 841.47c3.69,9.87 -2.49,5.46 8.33,8.33 -2.7,-10.18 1.85,-5.63 -8.33,-8.33zm274.94 -191.62l0 -8.34 -8.34 0 0 8.34 8.34 0zm-66.65 -404.07l8.33 -4.17 -8.12 -4.52 -0.21 8.69zm-58.32 -62.49c0,19.99 -1.96,17.66 -8.34,25l0 -37.49c7.03,4.88 8.34,0.59 8.34,12.49zm-4.17 504.05l-16.66 0 0 16.66c8.21,0.9 2.95,-0.89 10.14,2.35l6.52 5.98 0 -24.99zm4.17 220.78l20.71 -12.71c-2.81,-12.34 -3.55,-31.71 -8.22,-41.45 9.81,-2.28 12.31,-3.88 25,-4.16 -0.33,14.71 0.51,7.72 -3.35,17.48 -12,30.4 -3.42,40.15 -34.14,40.84zm54.15 -120.81c-5.74,13.15 -11.09,10.99 -16.66,12.5 4.93,21.17 16.19,39.27 -12.5,41.66 9.47,-17.9 -1.13,-7.57 12.5,-12.5 -8.63,-12.88 -12.46,-9.25 -16.67,-25 5.92,-8.07 3.62,-4.35 10.05,-10.77 6.39,-6.38 2.71,-4.14 10.78,-10.05 1.23,0.65 6.08,2.08 6.76,2.3l5.74 1.86zm-133.3 -849.79l0 24.99 4.16 0c0,-22.13 12.74,-12.61 -4.16,-24.99zm120.8 291.59l-1.24 1.25c0.08,-0.08 1.66,-0.83 1.24,-1.25zm8.33 466.56l-1.24 1.24c0.08,-0.08 1.66,-0.83 1.24,-1.24zm49.99 -20.83c-20.76,1.73 -16.7,4.74 -20.83,8.33 20.76,-1.73 16.7,-4.74 20.83,-8.33zm8.33 -8.33l-4.16 0 3.47 4.86 0.69 -4.86zm17.8 -5.8c0.22,-0.34 0.41,-0.65 0.5,-0.9l2.53 -22.46 -16.66 0c0.55,24.69 0.69,10.47 4.89,15.94 3.65,4.75 6.04,7.56 7.53,9.05 0.22,0.22 0.41,0.41 0.59,0.57 0.17,0.16 0.32,0.28 0.46,0.39 1.98,2.62 -0.82,4.53 19.85,-0.96 6.16,-14.89 -5.2,-5.46 10.94,-17.91 25.78,-19.88 23.14,-1.79 53.76,-21.67 0.69,-0.45 1.97,-1 2.62,-1.44 0.58,-0.38 1.81,-0.94 2.31,-1.31l4.74 -5.93c0.09,-0.75 0.32,-1.19 0.62,-1.72l24.99 -8.34 -24.99 8.34c-0.3,0.53 -0.53,0.97 -0.62,1.72l-4.74 5.93c-0.5,0.37 -1.73,0.93 -2.31,1.31 -0.65,0.44 -1.93,0.99 -2.62,1.44 -30.62,19.88 -27.98,1.79 -53.76,21.67 -16.14,12.45 -4.78,3.02 -10.94,17.91 -20.67,5.49 -17.87,3.58 -19.85,0.96 1.07,0.86 1.27,0.45 1.01,-0.49 -0.15,-0.56 -0.47,-1.31 -0.85,-2.1zm-1.13 1.63c0.32,-0.51 0.77,-1.1 1.13,-1.63 -1.76,-3.58 -4.99,-7.91 -1.13,1.63zm-70.82 -24.99l0 24.99 4.17 0c0,-22.13 12.73,-12.61 -4.17,-24.99zm20.83 0c-16.91,12.38 -4.17,2.86 -4.17,24.99l4.17 0 0 -24.99zm-87.48 0l-8.33 0 0 16.66 8.33 0c8.55,4.11 22.84,5.89 33.32,8.33l16.67 -12.49 -13.21 -16.02c20.06,-2.26 7.99,3.82 17.37,-8.98 5.01,3.36 17.39,14.07 18.81,-0.9 0.85,-8.94 -26.05,-13 -38.4,-6.33l-22.71 10.67c-3.72,1.94 -6.55,5.51 -11.85,9.06zm220.78 -49.99c-16.9,12.39 -4.17,2.86 -4.17,25l4.17 0 0 -25z"/>
   <path id="_1" class="fil1 str0" d="M349.37 1192.06l0 -8.33 -8.33 0 0 8.33 8.33 0zm54.16 -504.04l4.79 -8.12 -4.79 8.12zm220 185.22c-25.21,-11.92 -15.26,-3.04 -30.9,-44.68 -7.23,-19.27 -12.81,-35.25 -20.94,-54.61 -6.02,-14.36 -11.72,-27.85 -17.14,-40.59 -1.74,-1.13 -2.61,-2.48 -1.08,-2.55 -2.02,-4.73 -3.98,-9.33 -5.91,-13.85 -0.72,0.05 -1.51,0.12 -2.4,0.22l1.63 -2c-3.36,-7.87 -6.63,-15.46 -9.76,-22.73l-59.3 32.28c-37.13,27.31 -27,-3.44 -35.58,43.56 -3.87,21.16 4.13,9.74 -9.46,19.71 0,-19.9 -2.83,-17.28 -4.17,-33.33 -2.38,-2.74 -1.46,-0.97 -5.78,-6.72 -3.49,-4.65 -4.24,-6.24 -6.71,-9.94 -16.76,-4.01 -6.91,-2.46 -16.67,-0.02 -3.24,7.29 -10.14,50.83 -7.08,61.06 5.95,19.84 21.72,11.5 36.24,38.93 -13.81,-1.15 -38.82,-17.52 -49.99,-24.99 -17.34,11.61 -12.34,11.69 -21.21,24.61 -0.42,0.62 -1.5,1.82 -1.86,2.31 -0.35,0.49 -1.27,1.5 -1.92,2.24l-2.92 8.33c-23.79,27.56 -2.93,17.12 -18.7,69.96 -0.8,2.67 -6.07,16.54 -6.74,19.17 -0.09,0.34 -3.44,20.06 -3.55,20.89 -3.5,25.4 8.65,26.15 15.25,31.61 -48.45,0 -8.02,25.74 -51.23,49.99 -1.59,5.16 6.74,4.23 -5.9,4.17m0 0l-0.94 0 0.94 0zm-0.94 0l-0.25 0 0 -12.5 0 12.5 0.25 0zm-0.25 -12.5l4.16 1.24c5.3,-22.74 23.27,-32.87 25.04,-58.93 2.21,-32.3 6.21,-44.64 12.46,-71.45 -17.05,1.42 -16.03,1.96 -21.69,11.64 -9.68,16.55 -5.28,21.56 -24.14,34.19 3.02,-11.3 7.19,-14.6 12.69,-25 9.63,-18.19 5.7,-8.46 3.98,-29.16 18.29,-4.88 16.66,-14.84 16.66,-37.49 -29.05,7.76 -3.46,15.07 -20.83,20.83l9.57 -29.16 -4.16 -8.33 -6.65 -4.17c-12.6,0 -4.23,1.1 -5.85,-4.16l-13.74 0c-2.61,-5.44 -3.17,-8.18 -6.2,-14.63 -7.06,-15.06 -1.88,2 -6.29,-14.53 35.86,17.21 2.85,13.73 33.32,20.83 2.86,-2.1 57.88,-62.67 20.83,-87.48 9.59,-20 10.82,-37.71 29.16,-49.99 12.18,26.34 -17.05,1.31 -4.17,29.16 19.56,-14.33 -3.67,-9.82 20.83,-12.5 -5.97,22.36 -12.86,7.85 -15.42,29.16l7.76 7.76 -7.76 0.57c-12.02,13.49 -8.28,22.37 -13.59,41.8 -4.83,17.64 -15.53,26.27 -8.48,41.52l4.17 8.33c11.57,7.75 3.71,5.02 17.9,8.33 -1.63,-5.47 -2.72,-4.17 2.92,-4.17l0 -4.16 4.17 -4.17c17.03,-25.44 48.64,-31.88 36.89,-94.41 -3.49,-18.52 -11.99,-15.61 -24.39,-26.39l24.85 4.8c-9.58,-13.91 -6.8,-4.03 -16.52,-17.3 9.49,2.21 9.58,3.23 20.83,4.17 26.91,-56.1 9.1,-15.87 29.16,-45.83l29.15 4.17c-34.87,0 -22.55,23.49 -41.65,37.49l0 -8.33 -8.33 16.66c13.71,4.97 21.69,17.21 33.32,25l4.17 0c3.9,-0.91 27.5,-9.06 30.66,-11 0.75,-0.47 1.55,-1.4 2.27,-1.89 30.01,-20.59 18.25,6.75 21.22,-20.44 24.84,5.79 23.28,-5.5 48.46,-7.89 -30.75,-71.2 -50.45,-114.17 -65.35,-150.4 -24.01,0.01 -18.45,1.47 -33.1,-8.33l-16.66 12.49 -8.33 0 -12.5 0 -8.93 -32.4c-9.17,-11.07 -23.7,-7.09 -36.89,-13.42l-16.66 0 -8.13 4.79c2.76,-13.01 4.81,-12.22 -5.61,-19.9 -2.75,-2.02 -6.25,-3.57 -10.44,-6.53 -1,-0.7 -3.92,-2.94 -4.74,-3.59 -0.58,-0.46 -1.75,-1.57 -2.22,-1.96 -0.46,-0.38 -1.45,-1.33 -2.19,-1.97 -9.2,6.4 -5.17,0.68 -8.33,12.5 -30.68,-16.24 -37.81,7.62 -68.08,15.96 0.51,45.69 1.4,90.49 2.35,132.45 1.95,1.19 4.28,3 7.41,5.72 -2.59,0 -5.01,-0.06 -7.29,-0.15 2.21,96.76 4.64,177.75 3.3,218.31 -2.23,66.82 -8.51,136.98 -17.07,206.8m0 0c-0.57,4.71 -1.16,9.42 -1.76,14.13m0 0c-8.99,70.72 -20.19,140.82 -31.78,206.46 4.94,-0.2 12.65,-0.58 13.26,-0.51 23.74,2.67 8.9,-2.29 16.35,8.94l4.16 -4.14 4.17 0 0 16.66 -4.17 0c-1.01,-0.94 -3.1,-3.59 -3.33,-4.17 -0.11,-0.3 -0.58,-1.78 -0.68,-2.09 -0.1,-0.28 -0.11,-1.38 -0.17,-2.07 -16.25,-2.56 -6.48,0.21 -20.03,-5.26 -1.26,-0.51 -4.52,-2.02 -5.59,-2.56 -2.28,-1.15 -3.61,-1.83 -4.42,-2.25 -31.69,179.1 -66.03,324.56 -65.36,357.82 96.09,-0.27 69.73,3.42 146.22,-36.34 49.64,-25.81 111.07,-34.65 169.6,-18.26 120.45,33.73 67.8,86.01 237.68,149.75 11.46,-219.94 3.15,-434.75 -13.5,-649.91 -0.5,-6.43 -1.01,-12.86 -1.52,-19.29 -0.95,-11.95 -2.96,-24.02 -5.55,-36.14l-0.12 0 0.12 0 -0.12 0 0.12 0 -0.12 0m0.12 0c-0.93,-4.37 -1.93,-8.74 -2.99,-13.12m0 0l-0.51 -2.12m0 0c-11.79,-48.08 -29.34,-96.54 -22.39,-141.12 -6.95,44.58 10.6,93.04 22.39,141.12zm-29.94 69.4l-8.33 8.33 -4.17 4.16 0 -16.66c2.32,0 6.8,-0.08 8.05,0.28 7.37,2.12 4.63,1.36 8.61,3.89 17.51,1.45 13.73,4.73 29.16,8.33 -8.1,-12.1 -8.43,-5.59 -12.49,-20.83 6.49,-8.87 0.31,-5.42 12.49,-8.33 -7.83,-16.32 -1.48,-15.54 0,-33.33l0.12 0 -0.12 0m-29.16 54.16l-4.16 0m-183.29 120.8l-2.99 0m0 0l-1.18 0 4.8 24.86c-11.35,-2.75 -10.45,2.64 -12.06,-14 -0.09,-0.94 -0.26,-2.19 -0.34,-3.19 -0.37,-4.58 -0.62,-7.03 -0.73,-11.83 0.11,4.8 0.36,7.25 0.73,11.83 0.08,1 0.25,2.25 0.34,3.19 1.61,16.64 0.71,11.25 12.06,14l-4.8 -24.86 -0.05 -0.54c-0.33,-3.7 -0.85,-6.54 -1.43,-8.75 -2.8,-10.85 -6.7,-6.66 5.65,-15.7l0 11.47 0 13.52m-87.48 37.49l-4.17 0 -2.98 0m0 0l-1.18 0c-17.72,11 -7.56,-11.47 -35.92,18.24l-18.24 19.25 18.24 -19.25c28.36,-29.71 18.2,-7.24 35.92,-18.24l0 -12.5 16.66 0 0 7.13 0 9.54c19.94,17.33 19.21,21.27 37.49,12.49 -4.01,-15.01 -0.38,-11.14 -16.66,-12.49 3.93,-8.2 4.27,-11.21 9.23,-19.93 5.22,-9.18 4.86,-6.53 7.43,-17.56 8.59,4.54 9.88,5.78 20.83,8.33 -3.29,-12.33 -1.7,-6.75 -8.33,-16.66l8.33 0 -8.33 0c6.63,9.91 5.04,4.33 8.33,16.66 -10.95,-2.55 -12.24,-3.79 -20.83,-8.33 -2.57,11.03 -2.21,8.38 -7.43,17.56 -4.96,8.72 -5.3,11.73 -9.23,19.93 16.28,1.35 12.65,-2.52 16.66,12.49 -18.28,8.78 -17.55,4.84 -37.49,-12.49l-8.29 -4.15 -0.04 -0.02m-62.49 37.49c0.97,4.16 1.82,7.01 2.49,9.87 0.92,3.89 1.52,7.82 1.68,15.13l-7.15 0m0 0l-1.18 0c-12.53,9.18 -9.04,15.33 -25,24.98 -12.27,7.42 -21.68,13.04 -33.32,20.84m58.32 -45.82c0,-1.15 -0.14,-5.41 -0.2,-8.7 -0.04,-1.97 -0.06,-3.59 0,-4l2.73 -9.77c0.23,-0.63 1.03,-1.73 1.63,-2.53m262.44 -199.95l4.17 0c5.61,-1.31 10.89,-2.34 16.17,-4.66 7.87,-3.45 5.82,-4.02 13.08,-7.74 16.15,-8.29 19.27,-1.2 24.9,-16.76l16.54 8.56c8.66,-13.02 11.38,-20.84 15.23,-27.97 2.55,-4.71 5.59,-9.13 11.18,-14.54 0.52,-0.51 1.07,-1.02 1.64,-1.55 6.36,-5.87 15.7,-12.98 30.39,-22.82m-129.13 87.48c9.39,20.32 0,1.99 0,25l-4.17 0 0 -25m104.14 -49.99c-1.48,17.79 -7.83,17.01 0,33.33 -12.18,2.91 -6,-0.54 -12.49,8.33 4.06,15.24 4.39,8.73 12.49,20.83 -15.43,-3.6 -11.65,-6.88 -29.16,-8.33 17.51,1.45 13.73,4.73 29.16,8.33 -8.1,-12.1 -8.43,-5.59 -12.49,-20.83 6.49,-8.87 0.31,-5.42 12.49,-8.33 -7.83,-16.32 -1.48,-15.54 0,-33.33l0.12 0 -0.12 0zm-184.81 -505.1c-2.39,-6.04 -4.65,-11.96 -6.83,-17.88 -0.65,2.84 0.75,4.57 -4.14,14.77l10.97 3.11zm-13.38 -36.42c-19.14,-56.63 -33.56,-122.96 -70.48,-292.31 -13.43,-61.66 -41.33,-192.66 -104.44,-195.76 -45.45,53.68 -51.35,281.99 -49.08,492.59 9.77,-12.82 15.18,-10.04 25.78,-26.04 13.05,-19.7 9.81,-23.51 21.5,-40.98 -3.29,-12.32 -1.69,-6.75 -8.33,-16.66 3.03,-1.45 12.58,-4.66 14.77,-6.06 1.03,-0.66 3.74,-2.97 4.59,-3.74l5.64 -6.86c-2.02,24.17 -7.1,18.18 4.16,41.65l4.17 8.34c19.29,1.6 17.7,2.92 26.75,14.9 7.87,10.41 12.36,12.56 19.07,22.59l8.33 4.16c44.13,21.18 8.28,-14.26 40.48,21.98 19.15,21.54 39.23,8.96 49.61,-6.87l7.48 -10.93zm-130.89 345.74l-4.17 -8.33c-8.09,-2.15 -6.44,-0.77 -12.5,-4.17 1.42,16.99 2.14,16.95 16.67,20.83l0 -8.33zm8.33 -245.78l-1.25 -1.24c0.08,0.08 1.66,0.83 1.25,1.24zm37.49 770.65l-1.25 -1.24c0.09,0.08 1.66,0.83 1.25,1.24zm0 -666.5l-1.25 -1.25c0.09,0.08 1.66,0.83 1.25,1.25zm-20.83 304.09l-1.24 -1.24c0.08,0.08 1.65,0.82 1.24,1.24zm79.15 45.82l-1.25 -1.24c0.09,0.08 1.66,0.83 1.25,1.24zm116.63 104.14l-1.24 -1.24c0.08,0.08 1.66,0.83 1.24,1.24zm-74.98 -124.97l-4.16 0 3.47 -4.86 0.69 4.86zm-244.94 71.65c2.04,-11.66 -2.38,-5.48 7.5,-9.16l-7.5 9.16zm57.49 -75.81c0,10.06 -6.72,1.43 -2.66,0 0.05,-0.02 2.66,-11.94 2.66,0zm187.45 -37.49c0,10.06 -6.71,1.43 -2.66,0 0.06,-0.02 2.66,-11.95 2.66,0zm-33.32 58.31c0,10.07 -6.72,1.44 -2.66,0 0.05,-0.01 2.66,-11.94 2.66,0zm-154.13 -74.98c0,10.07 -6.72,1.43 -2.66,0 0.05,-0.02 2.66,-11.94 2.66,0zm158.29 112.48c0,10.06 -6.71,1.43 -2.66,0 0.06,-0.02 2.66,-11.95 2.66,0zm-108.3 -441.56c0,10.06 -6.72,1.43 -2.66,0 0.05,-0.02 2.66,-11.94 2.66,0zm-108.31 412.4l7.5 -9.17c-2.39,12.99 7.4,7.56 -7.5,9.17zm187.45 204.11c-4.14,4.14 -15.1,-5.72 -4.96,-2.31 0.1,0.04 11.96,-4.68 4.96,2.31zm-158.29 -237.44c-4.14,4.14 -15.1,-5.72 -4.97,-2.31 0.11,0.04 11.97,-4.69 4.97,2.31zm154.13 224.95c-4.14,4.14 -15.1,-5.72 -4.97,-2.31 0.11,0.03 11.97,-4.69 4.97,2.31zm29.16 -149.97l-8.33 0c3.16,6.6 4.16,5.98 4.16,16.67l4.17 0 0 -16.67zm132.81 -12.99c7.87,-3.45 5.82,-4.02 13.08,-7.74 16.15,-8.29 19.27,-1.2 24.9,-16.76l16.54 8.56c8.66,-13.02 11.38,-20.84 15.23,-27.97 2.55,-4.71 5.59,-9.13 11.18,-14.54 0.52,-0.51 1.07,-1.02 1.64,-1.55 6.36,-5.87 15.7,-12.98 30.39,-22.82 -14.69,9.84 -24.03,16.95 -30.39,22.82 -0.57,0.53 -1.12,1.04 -1.64,1.55 -5.59,5.41 -8.63,9.83 -11.18,14.54 -3.85,7.13 -6.57,14.95 -15.23,27.97l-16.54 -8.56c-5.63,15.56 -8.75,8.47 -24.9,16.76 -7.26,3.72 -5.21,4.29 -13.08,7.74 -5.28,2.32 -10.56,3.35 -16.17,4.66 5.61,-1.31 10.89,-2.34 16.17,-4.66zm0 0c7.87,-3.45 5.82,-4.02 13.08,-7.74 16.15,-8.29 19.27,-1.2 24.9,-16.76l16.54 8.56c8.66,-13.02 11.38,-20.84 15.23,-27.97 2.55,-4.71 5.59,-9.13 11.18,-14.54 0.52,-0.51 1.07,-1.02 1.64,-1.55 6.36,-5.87 15.7,-12.98 30.39,-22.82 -14.69,9.84 -24.03,16.95 -30.39,22.82 -0.57,0.53 -1.12,1.04 -1.64,1.55 -5.59,5.41 -8.63,9.83 -11.18,14.54 -3.85,7.13 -6.57,14.95 -15.23,27.97l-16.54 -8.56c-5.63,15.56 -8.75,8.47 -24.9,16.76 -7.26,3.72 -5.21,4.29 -13.08,7.74 -5.28,2.32 -10.56,3.35 -16.17,4.66 5.61,-1.31 10.89,-2.34 16.17,-4.66zm-91.16 12.99l8.34 -4.16 4.16 0 58.32 -4.17 -58.32 4.17 0 20.83c-0.95,-1.01 -3.72,-3.42 -4.39,-3.94 -10.12,-7.79 -8.46,-3.28 -12.27,-12.73 -4.62,-3.49 0.4,-2.86 -8.61,-3.96 -6.38,-0.78 -6.72,0.6 -10.31,1.2 -7.16,1.18 -6.81,2.5 -18.57,2.76 11.76,-0.26 11.41,-1.58 18.57,-2.76 3.59,-0.6 3.93,-1.98 10.31,-1.2 9.01,1.1 3.99,0.47 8.61,3.96l4.16 0zm-158.29 -529.04c-8.96,-6.22 -5.49,-0.61 -8.33,-12.49 9.2,6.4 5.18,0.68 8.33,12.49zm154.13 487.39c2.91,-12.18 -0.54,-6 8.33,-12.5 -2.73,11.42 1.69,6.49 -8.33,12.5zm54.15 112.47c2.92,-12.18 -0.53,-6 8.33,-12.5 -2.73,11.42 1.69,6.49 -8.33,12.5zm-99.97 -87.48l-4.17 0 0 -12.5 4.17 0 0 12.5zm-12.5 129.14l1.18 0 4.44 0 2.71 0c-0.01,-0.67 -0.02,-1.31 -0.03,-1.93 -0.2,-18.91 3.42,-10.31 -8.3,-18.9l0 20.83zm-158.3 129.12c-12.27,7.42 -21.68,13.04 -33.32,20.84 11.64,-7.8 21.05,-13.42 33.32,-20.84 15.96,-9.65 12.47,-15.8 25,-24.98 -12.53,9.18 -9.04,15.33 -25,24.98zm0 0c-12.27,7.42 -21.68,13.04 -33.32,20.84 11.64,-7.8 21.05,-13.42 33.32,-20.84 15.96,-9.65 12.47,-15.8 25,-24.98 -12.53,9.18 -9.04,15.33 -25,24.98zm4.17 -333.24l-8.33 0 0 -8.33 8.33 0 0 8.33zm33.33 237.44l0 8.33c3.87,5.9 4.14,-7.64 4.16,8.8l0 3.7 4.17 0 -0.07 -7.52 -0.15 -17.83 -6.98 3.89 -1.13 0.63zm-12.5 -129.13c51.76,77.29 23.27,72.97 18.49,97.06l-5.99 32.07 5.99 -32.07c4.78,-24.09 33.27,-19.77 -18.49,-97.06l4.16 -8.34 -4.16 8.34zm8.33 -20.83c-1.49,8.04 -1,6.94 -4.17,12.49l-4.16 8.34c51.76,77.29 23.27,72.97 18.49,97.06l-5.99 32.07 5.99 -32.07c4.78,-24.09 33.27,-19.77 -18.49,-97.06l4.16 -8.34 -4.16 -4.16c-11.13,-12.8 -4.72,-12.36 -14.06,-19.59l-15.81 -4.01c-1.01,0.04 -3.51,0.37 -4.52,0.54l-30.09 3.93 -18.83 2.47c5.72,-7.81 0.79,-0.24 5.97,-6.52 5.37,-6.51 3.24,-1.09 6.52,-10.15 2.66,0 5.37,0.03 8.1,0.07 8.69,0.12 17.59,0.34 25.95,0.15 15.31,-0.34 13.91,0.31 10.91,-6.77 -0.27,-0.63 -1.34,-2.25 -1.63,-2.82 -0.31,-0.61 -1.27,-2.01 -1.67,-3.12 22.01,-5.88 4.27,-10.43 29.16,-12.5 -24.89,2.07 -7.15,6.62 -29.16,12.5 0.4,1.11 1.36,2.51 1.67,3.12 0.29,0.57 1.36,2.19 1.63,2.82 3,7.08 4.4,6.43 -10.91,6.77 -8.36,0.19 -17.26,-0.03 -25.95,-0.15 -2.73,-0.04 -5.44,-0.07 -8.1,-0.07 -3.28,9.06 -1.15,3.64 -6.52,10.15 -5.18,6.28 -0.25,-1.29 -5.97,6.52l18.83 -2.47 30.09 -3.93c1.01,-0.17 3.51,-0.5 4.52,-0.54l15.81 4.01c9.34,7.23 2.93,6.79 14.06,19.59l0.22 -12.85 0.71 0.39 7.4 4.13zm124.97 4.16l8.33 -4.16 2.29 -8.96 1.88 13.12 -1.88 -13.12 -2.29 8.96c-2.18,9.34 -4.16,9.57 -4.16,20.83l-4.17 0 0 -16.67zm83.31 -91.64c-20.07,-0.45 -25.43,-7.32 -12.49,-16.66 2.99,11.23 0.99,6.66 12.49,16.66zm-61.85 233.14c-11.35,-2.75 -10.45,2.64 -12.06,-14 -0.09,-0.94 -0.26,-2.19 -0.34,-3.19 -0.37,-4.58 -0.62,-7.03 -0.73,-11.83 0.11,4.8 0.36,7.25 0.73,11.83 0.08,1 0.25,2.25 0.34,3.19 1.61,16.64 0.71,11.25 12.06,14l-4.8 -24.86 4.8 24.86zm-83.95 -737.19l0 -8.33 -8.33 0 0 8.33 8.33 0zm-141.63 841.47c3.69,9.87 -2.49,5.46 8.33,8.33 -2.7,-10.18 1.85,-5.63 -8.33,-8.33zm274.94 -191.62l0 -8.34 -8.34 0 0 8.34 8.34 0zm-66.65 -404.07l8.33 -4.17 -8.12 -4.52 -0.21 8.69zm-58.32 -62.49c0,19.99 -1.96,17.66 -8.34,25l0 -37.49c7.03,4.88 8.34,0.59 8.34,12.49zm-4.17 504.05l-16.66 0 0 16.66c8.21,0.9 2.95,-0.89 10.14,2.35l6.52 5.98 0 -24.99zm4.17 220.78l20.71 -12.71c-2.81,-12.34 -3.55,-31.71 -8.22,-41.45 9.81,-2.28 12.31,-3.88 25,-4.16 -0.33,14.71 0.51,7.72 -3.35,17.48 -12,30.4 -3.42,40.15 -34.14,40.84zm54.15 -120.81c-5.74,13.15 -11.09,10.99 -16.66,12.5 4.93,21.17 16.19,39.27 -12.5,41.66 9.47,-17.9 -1.13,-7.57 12.5,-12.5 -8.63,-12.88 -12.46,-9.25 -16.67,-25 5.92,-8.07 3.62,-4.35 10.05,-10.77 6.39,-6.38 2.71,-4.14 10.78,-10.05 1.23,0.65 6.08,2.08 6.76,2.3l5.74 1.86zm-133.3 -849.79l0 24.99 4.16 0c0,-22.13 12.74,-12.61 -4.16,-24.99zm120.8 291.59l-1.24 1.25c0.08,-0.08 1.66,-0.83 1.24,-1.25zm8.33 466.56l-1.24 1.24c0.08,-0.08 1.66,-0.83 1.24,-1.24zm49.99 -20.83c-20.76,1.73 -16.7,4.74 -20.83,8.33 20.76,-1.73 16.7,-4.74 20.83,-8.33zm8.33 -8.33l-4.16 0 3.47 4.86 0.69 -4.86zm17.8 -5.8c0.22,-0.34 0.41,-0.65 0.5,-0.9l2.53 -22.46 -16.66 0c0.55,24.69 0.69,10.47 4.89,15.94 3.65,4.75 6.04,7.56 7.53,9.05 0.22,0.22 0.41,0.41 0.59,0.57 0.17,0.16 0.32,0.28 0.46,0.39 1.98,2.62 -0.82,4.53 19.85,-0.96 6.16,-14.89 -5.2,-5.46 10.94,-17.91 25.78,-19.88 23.14,-1.79 53.76,-21.67 0.69,-0.45 1.97,-1 2.62,-1.44 0.58,-0.38 1.81,-0.94 2.31,-1.31l4.74 -5.93c0.09,-0.75 0.32,-1.19 0.62,-1.72l24.99 -8.34 -24.99 8.34c-0.3,0.53 -0.53,0.97 -0.62,1.72l-4.74 5.93c-0.5,0.37 -1.73,0.93 -2.31,1.31 -0.65,0.44 -1.93,0.99 -2.62,1.44 -30.62,19.88 -27.98,1.79 -53.76,21.67 -16.14,12.45 -4.78,3.02 -10.94,17.91 -20.67,5.49 -17.87,3.58 -19.85,0.96 1.07,0.86 1.27,0.45 1.01,-0.49 -0.15,-0.56 -0.47,-1.31 -0.85,-2.1zm-1.13 1.63c0.32,-0.51 0.77,-1.1 1.13,-1.63 -1.76,-3.58 -4.99,-7.91 -1.13,1.63zm-70.82 -24.99l0 24.99 4.17 0c0,-22.13 12.73,-12.61 -4.17,-24.99zm20.83 0c-16.91,12.38 -4.17,2.86 -4.17,24.99l4.17 0 0 -24.99zm-87.48 0l-8.33 0 0 16.66 8.33 0c8.55,4.11 22.84,5.89 33.32,8.33l16.67 -12.49 -13.21 -16.02c20.06,-2.26 7.99,3.82 17.37,-8.98 5.01,3.36 17.39,14.07 18.81,-0.9 0.85,-8.94 -26.05,-13 -38.4,-6.33l-22.71 10.67c-3.72,1.94 -6.55,5.51 -11.85,9.06zm220.78 -49.99c-16.9,12.39 -4.17,2.86 -4.17,25l4.17 0 0 -25z"/>
  </g>
 </g>
</svg>
