<?xml version="1.0" encoding="UTF-8"?>
<!DOCTYPE svg PUBLIC "-//W3C//DTD SVG 1.1//EN" "http://www.w3.org/Graphics/SVG/1.1/DTD/svg11.dtd">
<!-- Creator: CorelDRAW (Versión de evaluación) -->
<svg xmlns="http://www.w3.org/2000/svg" xml:space="preserve" width="739px" height="2458px" version="1.1" style="shape-rendering:geometricPrecision; text-rendering:geometricPrecision; image-rendering:optimizeQuality; fill-rule:evenodd; clip-rule:evenodd"
viewBox="0 0 739 2457.4"
 xmlns:xlink="http://www.w3.org/1999/xlink"
 xmlns:xodm="http://www.corel.com/coreldraw/odm/2003">
 <defs>
  <style type="text/css">
   <![CDATA[
    .str0 {stroke:#D6D2C8;stroke-width:10;stroke-miterlimit:22.9256}
    .fil0 {fill:#F5F1E8}
   ]]>
  </style>
 </defs>
 <g id="tooth-fissure-root-21">
  <metadata id="CorelCorpID_0Corel-Layer"/>
  <path id="crown" class="fil0 str0" d="M446.26 1515.02c24.06,75.22 174.89,148.54 242.36,176.59 19.76,121.94 93.73,596.63 14.61,689.34 -68.67,80.44 -563.16,94.35 -663.44,56.01 -85.74,-58.86 -18.26,-660.17 64.29,-729.73 42.23,-35.58 121.45,-107.83 126.62,-162.04 39.3,-9.2 38.36,-43.02 97.75,-52.76 48.83,-8 69.89,24.01 117.81,22.59z"/>
  <path id="root" class="fil0 str0" d="M369.29 1470.79c-58.86,-7.19 -131.17,10.06 -138.59,74.4 -19.62,4.84 -145.34,146.12 -146.88,148.48 -11.41,-72.16 20.13,-387.07 29.57,-476.35 35.52,-335.95 122.91,-523.81 202.77,-813.06 60.54,-219.33 13.69,-366.35 100.4,-404.26 80.88,54.32 154.37,675.96 166.65,802.09l92.94 850.87c-98.96,8.81 -140.97,-127.65 -224.16,-137.44 1.53,-18.99 12.32,-36.04 14.83,-54.96 -15.73,-4.48 -35.69,-13.24 -49.43,-20.86 -4.26,-15.79 -1.97,-29.75 -8.44,-41.55 -7.32,-13.35 -15.28,-11.25 -19.04,-32.2 -2.74,-15.3 2.67,-36.7 -1.06,-48.64 -5.41,-17.28 -13.96,-7.19 -26.89,-22.13 21.56,-46.92 74.95,-38.71 43.18,-122.33 -30.56,-80.39 6.52,-67.77 30.75,-127.61 -40.51,-37.29 -71.49,-5.67 -63.5,-118.87 1.82,-25.74 8.86,-69.16 -4.28,-87.61 -19.35,-27.2 -36.77,-11.81 -29.86,-63.98 47.27,-32.51 23.27,-12.42 47.79,-63.7 20.87,-43.64 30.77,-12.12 18.92,-79.71 -11.94,-68.13 -22.83,-68.59 -25.97,-86.86 -6.11,-35.51 13.26,-47.43 34.19,-78.3 -5.89,-21.59 -19.48,-32.21 -25.31,-63.91l-4.26 -23.27c-3.63,47.37 12.89,52.44 21.12,87.18 -14.8,22.69 -37.05,30.12 -35.57,70.81 0.84,22.91 16.42,58.63 21.77,87.39 12.12,65.11 0.47,38.7 -19.21,76.45 -20.45,39.19 -4.51,36.12 -51.68,56.57 -15.16,137.99 41.26,34.51 29.77,158.81 -8.25,89.1 -18.81,87.31 38.37,141.49 -9.64,22.6 -23.54,33.81 -31.55,65.87 -9.82,39.34 41.81,74.17 3.38,107.29 -13.95,12.03 -12.76,11.31 -23.75,26.15 -15.87,21.43 -28.67,37.61 -41.77,58.96l51.21 32.22c2.18,20.12 -4.15,31.52 1.63,48.99 5.22,15.76 16.28,16.58 20.72,33.24 5.43,20.37 2.3,31.99 1.24,40.34z"/>
 </g>
</svg>
