<?xml version="1.0" encoding="UTF-8"?>
<!DOCTYPE svg PUBLIC "-//W3C//DTD SVG 1.1//EN" "http://www.w3.org/Graphics/SVG/1.1/DTD/svg11.dtd">
<!-- Creator: CorelDRAW (Versión OEM) -->
<svg xmlns="http://www.w3.org/2000/svg" xml:space="preserve" width="45.4058mm" height="173.699mm" version="1.1" style="shape-rendering:geometricPrecision; text-rendering:geometricPrecision; image-rendering:optimizeQuality; fill-rule:evenodd; clip-rule:evenodd"
viewBox="0 0 4540.58 17369.86"
 xmlns:xlink="http://www.w3.org/1999/xlink"
 xmlns:xodm="http://www.corel.com/coreldraw/odm/2003">
 <defs>
  <style type="text/css">
   <![CDATA[
    .fil2 {fill:#0B0B0B}
    .fil0 {fill:#EDEAE0}
    .fil1 {fill:#F2E6C9}
   ]]>
  </style>
 </defs>
 <g id="fissure-root">
  <metadata id="CorelCorpID_0Corel-Layer"/>
  <polygon id="crown" class="fil0" points="2156.41,252.13 2095.44,252.13 2095.44,282.61 2034.51,282.61 2034.51,313.1 1973.57,313.1 1973.57,343.55 1943.08,343.55 1943.08,374.03 1882.15,374.03 1882.15,404.52 1851.66,404.52 1851.66,434.97 1790.73,434.97 1790.73,465.45 1760.24,465.45 1760.24,495.94 1699.31,495.94 1699.31,526.39 1668.82,526.39 1668.82,556.87 1607.89,556.87 1607.89,587.36 1577.4,587.36 1577.4,617.81 1546.92,617.81 1546.92,648.29 1485.98,648.29 1485.98,678.78 1455.5,678.78 1455.5,709.23 1394.56,709.23 1394.56,739.71 1364.08,739.71 1364.08,770.2 1303.14,770.2 1303.14,800.65 1272.66,800.65 1272.66,831.13 1211.72,831.13 1211.72,861.62 1150.79,861.62 1150.79,892.07 1089.82,892.07 1089.82,922.56 1059.37,922.56 1059.37,953.04 998.39,953.04 998.39,983.49 906.97,983.49 906.97,1013.98 876.52,1013.98 876.52,1044.46 815.55,1044.46 815.55,1074.91 754.62,1074.91 754.62,1105.4 724.13,1105.4 724.13,1135.88 663.2,1135.88 663.2,1166.33 632.71,1166.33 632.71,1196.82 602.26,1196.82 602.26,1227.3 571.78,1227.3 571.78,1257.75 541.29,1257.75 541.29,1288.24 510.84,1288.24 510.84,1318.69 480.36,1318.69 480.36,1349.17 449.87,1349.17 449.87,1379.66 419.42,1379.66 419.42,1410.11 388.94,1410.11 388.94,1471.08 358.45,1471.08 358.45,1532.01 328,1532.01 328,1562.5 297.52,1562.5 297.52,1623.43 267.03,1623.43 267.03,1714.85 236.58,1714.85 236.58,1806.27 206.1,1806.27 206.1,2019.6 175.61,2019.6 175.61,2385.28 206.1,2385.28 206.1,2689.99 236.58,2689.99 236.58,2811.9 267.03,2811.9 267.03,2964.26 297.52,2964.26 297.52,3086.16 328,3086.16 328,3177.58 358.45,3177.58 358.45,3299.49 388.94,3299.49 388.94,3421.36 419.42,3421.36 419.42,3482.33 449.87,3482.33 449.87,3604.2 480.36,3604.2 480.36,3695.62 510.84,3695.62 510.84,3817.52 541.29,3817.52 541.29,3969.88 571.78,3969.88 571.78,4030.85 602.26,4030.85 602.26,4122.27 632.71,4122.27 632.71,4244.14 663.2,4244.14 663.2,4366.05 693.68,4366.05 693.68,4457.47 724.13,4457.47 724.13,4518.4 754.62,4518.4 754.62,4609.82 785.1,4609.82 785.1,4670.79 815.55,4670.79 815.55,4731.73 846.04,4731.73 846.04,4792.66 876.52,4792.66 876.52,4853.64 906.97,4853.64 906.97,4884.08 937.46,4884.08 937.46,4945.06 967.95,4945.06 967.95,4975.51 998.39,4975.51 998.39,5036.48 1028.88,5036.48 1028.88,5066.93 1059.37,5066.93 1059.37,5127.9 1089.82,5127.9 1089.82,5158.35 1120.3,5158.35 1120.3,5188.83 1150.79,5188.83 1150.79,5249.77 1181.24,5249.77 1181.24,5280.25 1211.72,5280.25 1211.72,5310.74 1242.21,5310.74 1242.21,5341.19 1272.66,5341.19 1272.66,5371.67 1333.63,5371.67 1333.63,5402.16 1364.08,5402.16 1364.08,5432.61 1394.56,5432.61 1394.56,5463.09 1425.05,5463.09 1425.05,5493.58 1485.98,5493.58 1485.98,5524.03 1546.92,5524.03 1546.92,5554.51 1577.4,5554.51 1577.4,5585 1638.34,5585 1638.34,5615.45 1699.31,5615.45 1699.31,5645.93 1821.18,5645.93 1821.18,5676.42 1882.15,5676.42 1882.15,5706.87 2064.99,5706.87 2064.99,5737.35 2461.12,5737.35 2461.12,5706.87 2583.03,5706.87 2583.03,5676.42 2674.45,5676.42 2674.45,5645.93 2735.38,5645.93 2735.38,5615.45 2796.35,5615.45 2796.35,5585 2857.29,5585 2857.29,5554.51 2918.22,5554.51 2918.22,5524.03 2979.2,5524.03 2979.2,5493.58 3009.65,5493.58 3009.65,5463.09 3070.62,5463.09 3070.62,5432.61 3101.07,5432.61 3101.07,5402.16 3131.55,5402.16 3131.55,5371.67 3162.04,5371.67 3162.04,5341.19 3192.49,5341.19 3192.49,5310.74 3222.97,5310.74 3222.97,5280.25 3253.46,5280.25 3253.46,5249.77 3283.91,5249.77 3283.91,5219.32 3314.39,5219.32 3314.39,5188.83 3344.88,5188.83 3344.88,5158.35 3375.33,5158.35 3375.33,5127.9 3405.81,5127.9 3405.81,5066.93 3436.3,5066.93 3436.3,5036.48 3466.75,5036.48 3466.75,5005.99 3497.23,5005.99 3497.23,4945.06 3527.72,4945.06 3527.72,4914.57 3558.17,4914.57 3558.17,4853.64 3588.65,4853.64 3588.65,4792.66 3619.14,4792.66 3619.14,4762.21 3649.59,4762.21 3649.59,4670.79 3680.07,4670.79 3680.07,4609.82 3710.56,4609.82 3710.56,4518.4 3741.01,4518.4 3741.01,4457.47 3771.49,4457.47 3771.49,4366.05 3801.98,4366.05 3801.98,4305.11 3832.43,4305.11 3832.43,4183.21 3862.91,4183.21 3862.91,4091.79 3893.4,4091.79 3893.4,4000.37 3923.85,4000.37 3923.85,3939.43 3954.34,3939.43 3954.34,3817.52 3984.82,3817.52 3984.82,3726.1 4015.27,3726.1 4015.27,3634.68 4045.76,3634.68 4045.76,3573.75 4076.24,3573.75 4076.24,3421.36 4106.69,3421.36 4106.69,3329.94 4137.18,3329.94 4137.18,3269 4167.66,3269 4167.66,3147.1 4198.11,3147.1 4198.11,3025.23 4228.6,3025.23 4228.6,2933.81 4259.08,2933.81 4259.08,2842.39 4289.53,2842.39 4289.53,2689.99 4320.02,2689.99 4320.02,2415.73 4350.5,2415.73 4350.5,1897.7 4320.02,1897.7 4320.02,1775.79 4289.53,1775.79 4289.53,1684.37 4259.08,1684.37 4259.08,1562.5 4228.6,1562.5 4228.6,1532.01 4198.11,1532.01 4198.11,1471.08 4167.66,1471.08 4167.66,1410.11 4137.18,1410.11 4137.18,1379.66 4106.69,1379.66 4106.69,1349.17 4076.24,1349.17 4076.24,1288.24 4015.27,1288.24 4015.27,1227.3 3954.34,1227.3 3954.34,1196.82 3923.85,1196.82 3923.85,1166.33 3893.4,1166.33 3893.4,1135.88 3862.91,1135.88 3862.91,1105.4 3801.98,1105.4 3801.98,1074.91 3771.49,1074.91 3771.49,1044.46 3710.56,1044.46 3710.56,1013.98 3680.07,1013.98 3680.07,983.49 3619.14,983.49 3619.14,953.04 3588.65,953.04 3588.65,922.56 3527.72,922.56 3527.72,892.07 3497.23,892.07 3497.23,861.62 3436.3,861.62 3436.3,831.13 3375.33,831.13 3375.33,800.65 3344.88,800.65 3344.88,770.2 3314.39,770.2 3314.39,739.71 3253.46,739.71 3253.46,709.23 3222.97,709.23 3222.97,678.78 3192.49,678.78 3192.49,648.29 3131.55,648.29 3131.55,617.81 3101.07,617.81 3101.07,587.36 3070.62,587.36 3070.62,556.87 3009.65,556.87 3009.65,526.39 2979.2,526.39 2979.2,495.94 2948.71,495.94 2948.71,465.45 2887.78,465.45 2887.78,434.97 2857.29,434.97 2857.29,404.52 2796.35,404.52 2796.35,374.03 2765.87,374.03 2765.87,343.55 2704.93,343.55 2704.93,313.1 2674.45,313.1 2674.45,282.61 2613.51,282.61 2613.51,252.13 2552.54,252.13 2552.54,221.68 2156.41,221.68 "/>
  <polygon id="root" class="fil1" points="785.1,5249.77 815.55,5249.77 815.55,6224.94 846.04,6224.94 846.04,6742.98 876.52,6742.98 876.52,7687.67 906.97,7687.67 906.97,7961.93 937.46,7961.93 937.46,8388.55 967.95,8388.55 967.95,8662.81 998.39,8662.81 998.39,9028.49 1028.88,9028.49 1028.88,9394.17 1059.37,9394.17 1059.37,9698.88 1089.82,9698.88 1089.82,9973.15 1120.3,9973.15 1120.3,10674.06 1150.79,10674.06 1150.79,11953.95 1120.3,11953.95 1120.3,12197.72 1089.82,12197.72 1089.82,12624.34 1059.37,12624.34 1059.37,12868.15 1028.88,12868.15 1028.88,13233.83 998.39,13233.83 998.39,14087.07 1028.88,14087.07 1028.88,14178.49 1059.37,14178.49 1059.37,14239.46 1089.82,14239.46 1089.82,14300.39 1120.3,14300.39 1120.3,14361.33 1150.79,14361.33 1150.79,14391.81 1211.72,14391.81 1211.72,14422.3 1394.56,14422.3 1394.56,14391.81 1455.5,14391.81 1455.5,14361.33 1485.98,14361.33 1485.98,14330.88 1546.92,14330.88 1546.92,14300.39 1577.4,14300.39 1577.4,14269.91 1607.89,14269.91 1607.89,14239.46 1638.34,14239.46 1638.34,14208.97 1668.82,14208.97 1668.82,14178.49 1699.31,14178.49 1699.31,14148.04 1729.76,14148.04 1729.76,14087.07 1760.24,14087.07 1760.24,14056.62 1790.73,14056.62 1790.73,14026.13 1821.18,14026.13 1821.18,13965.2 1851.66,13965.2 1851.66,13904.23 1882.15,13904.23 1882.15,13843.29 1912.6,13843.29 1912.6,13812.8 1943.08,13812.8 1943.08,13751.87 1973.57,13751.87 1973.57,13690.93 2004.02,13690.93 2004.02,13629.96 2034.51,13629.96 2034.51,13569.03 2064.99,13569.03 2064.99,13508.09 2095.44,13508.09 2095.44,13416.67 2125.93,13416.67 2125.93,13355.7 2156.41,13355.7 2156.41,13294.77 2186.86,13294.77 2186.86,13203.35 2217.35,13203.35 2217.35,13142.41 2247.83,13142.41 2247.83,13050.99 2278.28,13050.99 2278.28,12959.57 2308.77,12959.57 2308.77,12898.6 2339.25,12898.6 2339.25,12807.18 2369.7,12807.18 2369.7,12715.76 2400.19,12715.76 2400.19,12654.82 2430.67,12654.82 2430.67,12532.92 2461.12,12532.92 2461.12,12471.98 2491.61,12471.98 2491.61,12350.08 2522.09,12350.08 2522.09,12289.14 2552.54,12289.14 2552.54,12167.24 2583.03,12167.24 2583.03,12075.82 2613.51,12075.82 2613.51,11984.4 2643.96,11984.4 2643.96,11862.53 2674.45,11862.53 2674.45,11801.55 2704.93,11801.55 2704.93,11710.13 2735.38,11710.13 2735.38,11618.71 2765.87,11618.71 2765.87,11527.29 2796.35,11527.29 2796.35,11374.94 2826.8,11374.94 2826.8,11283.52 2857.29,11283.52 2857.29,11161.61 2887.78,11161.61 2887.78,11070.19 2918.22,11070.19 2918.22,10978.77 2948.71,10978.77 2948.71,10826.41 2979.2,10826.41 2979.2,10674.06 3009.65,10674.06 3009.65,10552.15 3040.13,10552.15 3040.13,10460.73 3070.62,10460.73 3070.62,10277.89 3101.07,10277.89 3101.07,10095.05 3131.55,10095.05 3131.55,9881.72 3162.04,9881.72 3162.04,9637.95 3192.49,9637.95 3192.49,9394.17 3222.97,9394.17 3222.97,9241.78 3253.46,9241.78 3253.46,8906.59 3283.91,8906.59 3283.91,8662.81 3314.39,8662.81 3314.39,8479.97 3344.88,8479.97 3344.88,8114.29 3375.33,8114.29 3375.33,7779.09 3405.81,7779.09 3405.81,7474.34 3436.3,7474.34 3436.3,7200.08 3466.75,7200.08 3466.75,6803.91 3497.23,6803.91 3497.23,6255.39 3527.72,6255.39 3527.72,5981.13 3558.17,5981.13 3558.17,5706.87 3588.65,5706.87 3588.65,5310.74 3619.14,5310.74 3619.14,5097.41 3588.65,5097.41 3588.65,5158.35 3558.17,5158.35 3558.17,5188.83 3527.72,5188.83 3527.72,5219.32 3497.23,5219.32 3497.23,5249.77 3466.75,5249.77 3466.75,5280.25 3436.3,5280.25 3436.3,5341.19 3405.81,5341.19 3405.81,5371.67 3375.33,5371.67 3375.33,5402.16 3344.88,5402.16 3344.88,5432.61 3314.39,5432.61 3314.39,5463.09 3283.91,5463.09 3283.91,5493.58 3222.97,5493.58 3222.97,5524.03 3192.49,5524.03 3192.49,5554.51 3162.04,5554.51 3162.04,5585 3131.55,5585 3131.55,5615.45 3070.62,5615.45 3070.62,5645.93 3040.13,5645.93 3040.13,5676.42 2979.2,5676.42 2979.2,5706.87 2918.22,5706.87 2918.22,5737.35 2857.29,5737.35 2857.29,5767.84 2796.35,5767.84 2796.35,5798.29 2704.93,5798.29 2704.93,5828.77 2583.03,5828.77 2583.03,5859.26 2430.67,5859.26 2430.67,5889.71 2004.02,5889.71 2004.02,5859.26 1851.66,5859.26 1851.66,5828.77 1760.24,5828.77 1760.24,5798.29 1638.34,5798.29 1638.34,5767.84 1577.4,5767.84 1577.4,5737.35 1516.47,5737.35 1516.47,5706.87 1485.98,5706.87 1485.98,5676.42 1425.05,5676.42 1425.05,5645.93 1364.08,5645.93 1364.08,5615.45 1333.63,5615.45 1333.63,5585 1303.14,5585 1303.14,5554.51 1242.21,5554.51 1242.21,5524.03 1211.72,5524.03 1211.72,5493.58 1181.24,5493.58 1181.24,5463.09 1150.79,5463.09 1150.79,5432.61 1120.3,5432.61 1120.3,5402.16 1089.82,5402.16 1089.82,5371.67 1059.37,5371.67 1059.37,5341.19 1028.88,5341.19 1028.88,5310.74 998.39,5310.74 998.39,5280.25 967.95,5280.25 967.95,5249.77 937.46,5249.77 937.46,5219.32 906.97,5219.32 906.97,5188.83 876.52,5188.83 876.52,5127.9 846.04,5127.9 846.04,5066.93 815.55,5066.93 815.55,5036.48 785.1,5036.48 "/>
  <path id="outline" class="fil2" d="M785.1 5036.48l30.45 0 0 30.45 30.49 0 0 60.97 30.48 0 0 60.93 30.45 0 0 30.49 30.49 0 0 30.45 30.49 0 0 30.48 30.44 0 0 30.49 30.49 0 0 30.45 30.49 0 0 30.48 30.45 0 0 30.49 30.48 0 0 30.45 30.49 0 0 30.48 30.45 0 0 30.49 30.48 0 0 30.45 30.49 0 0 30.48 60.93 0 0 30.49 30.49 0 0 30.45 30.45 0 0 30.48 60.97 0 0 30.49 60.93 0 0 30.45 30.49 0 0 30.48 60.93 0 0 30.49 60.94 0 0 30.45 121.9 0 0 30.48 91.42 0 0 30.49 152.36 0 0 30.45 66.19 0c15.13,96.26 -30.25,44.56 -72.66,143.93 -92.06,215.69 -152.79,239.98 -87.73,430.73 40.36,118.33 10.59,107.66 154.39,167.13 -22.2,113.49 9.59,103.92 -155.2,171.11 -0.19,44.16 32.27,53.58 23.6,98.15l-139.75 54.9c13.96,43.07 63.03,77.49 73.92,117.73 12.91,47.64 -37,87.34 -46.98,132.45 51.46,8.8 116.73,25.98 161.65,40.96 13.93,30.99 6.45,58.41 27.6,81.57 23.96,26.22 49.99,22.09 62.27,63.23 8.97,30.04 -8.71,72.06 3.49,95.49 17.68,33.94 45.65,14.12 87.92,43.47 -70.51,92.11 -245.11,76 -141.19,240.18 99.92,157.85 -21.33,133.07 -100.59,250.57 132.5,73.21 233.81,11.13 207.67,233.39 -5.95,50.54 -28.97,135.79 13.99,172.03 63.31,53.4 120.26,23.17 97.68,125.62 -154.59,63.83 -76.11,24.38 -156.3,125.06 -68.24,85.7 -100.62,23.8 -61.88,156.51 39.06,133.78 74.68,134.69 84.95,170.56 19.97,69.72 -43.38,93.12 -111.82,153.74 19.27,42.38 63.69,63.24 82.78,125.49l13.92 45.69c11.85,-93.02 -42.16,-102.97 -69.08,-171.18 48.42,-44.55 121.19,-59.15 116.32,-139.04 -2.74,-44.97 -53.68,-115.12 -71.19,-171.59 -39.62,-127.83 -1.54,-75.99 62.84,-150.1 66.85,-76.96 14.73,-70.93 168.99,-111.08 49.6,-270.93 -134.94,-67.76 -97.34,-311.82 26.96,-174.95 61.5,-171.43 -125.48,-277.82 31.52,-44.37 76.98,-66.38 103.16,-129.32 32.14,-77.25 -136.72,-145.64 -11.06,-210.67 45.64,-23.62 41.73,-22.21 77.68,-51.35 51.9,-42.08 93.77,-73.84 136.6,-115.77l-167.46 -63.25c-7.13,-39.5 13.56,-61.9 -5.35,-96.2 -17.06,-30.93 -53.23,-32.55 -67.75,-65.26 -41.7,-93.94 70.99,-93.08 -112.25,-137.1 13.26,-62.23 5.96,-56.91 -8.84,-115.18 58.76,-12.92 92.09,-30.18 143.25,-43.06l-41.58 -99.75c209.41,-87.27 67.09,-30.03 128.51,-185.88 17.79,-45.14 51.34,-76.22 59.39,-119.53 -113.57,-45.81 -186.47,-72.66 -203.11,-130.56 -46.41,-161.56 56.33,-130.91 66.95,-204.76 13.68,-95.11 -62.2,-35.3 57.2,-145.77 112.38,-103.99 109.88,-127.85 91.2,-193.65l107.13 0 0 -30.45 152.36 0 0 -30.49 121.9 0 0 -30.48 91.42 0 0 -30.45 60.94 0 0 -30.49 60.93 0 0 -30.48 60.98 0 0 -30.45 60.93 0 0 -30.49 30.49 0 0 -30.48 60.93 0 0 -30.45 30.49 0 0 -30.49 30.45 0 0 -30.48 30.48 0 0 -30.45 60.94 0 0 -30.49 30.48 0 0 -30.48 30.49 0 0 -30.45 30.45 0 0 -30.49 30.48 0 0 -30.48 30.49 0 0 -60.94 30.45 0 0 -30.48 30.48 0 0 -30.45 30.49 0 0 -30.49 30.45 0 0 -30.48 30.48 0 0 -60.94 30.49 0 0 213.33 -30.49 0 0 396.13 -30.48 0 0 274.26 -30.45 0 0 274.26 -30.49 0 0 548.52 -30.48 0 0 396.17 -30.45 0 0 274.26 -30.49 0 0 304.75 -30.48 0 0 335.2 -30.45 0 0 365.68 -30.49 0 0 182.84 -30.48 0 0 243.78 -30.45 0 0 335.19 -30.49 0 0 152.39 -30.48 0 0 243.78 -30.45 0 0 243.77 -30.49 0 0 213.33 -30.48 0 0 182.84 -30.45 0 0 182.84 -30.49 0 0 91.42 -30.48 0 0 121.91 -30.45 0 0 152.35 -30.49 0 0 152.36 -30.49 0 0 91.42 -30.44 0 0 91.42 -30.49 0 0 121.91 -30.49 0 0 91.42 -30.45 0 0 152.35 -30.48 0 0 91.42 -30.49 0 0 91.42 -30.45 0 0 91.42 -30.48 0 0 60.98 -30.49 0 0 121.87 -30.45 0 0 91.42 -30.48 0 0 91.42 -30.49 0 0 121.9 -30.45 0 0 60.94 -30.48 0 0 121.9 -30.49 0 0 60.94 -30.45 0 0 121.9 -30.48 0 0 60.94 -30.49 0 0 91.42 -30.45 0 0 91.42 -30.48 0 0 60.97 -30.49 0 0 91.42 -30.45 0 0 91.42 -30.48 0 0 60.94 -30.49 0 0 91.42 -30.45 0 0 60.93 -30.48 0 0 60.97 -30.49 0 0 91.42 -30.45 0 0 60.94 -30.48 0 0 60.93 -30.49 0 0 60.97 -30.45 0 0 60.94 -30.49 0 0 60.93 -30.48 0 0 30.49 -30.45 0 0 60.94 -30.49 0 0 60.97 -30.48 0 0 60.93 -30.45 0 0 30.49 -30.49 0 0 30.45 -30.48 0 0 60.97 -30.45 0 0 30.45 -30.49 0 0 30.48 -30.48 0 0 30.49 -30.45 0 0 30.45 -30.49 0 0 30.48 -30.48 0 0 30.49 -60.94 0 0 30.45 -30.48 0 0 30.48 -60.94 0 0 30.49 -182.84 0 0 -30.49 -60.93 0 0 -30.48 -30.49 0 0 -60.94 -30.48 0 0 -60.93 -30.45 0 0 -60.97 -30.49 0 0 -91.42 -30.49 0 0 -853.24 30.49 0 0 -365.68 30.49 0 0 -243.81 30.45 0 0 -426.62 30.48 0 0 -243.77 30.49 0 0 -1279.89 -30.49 0 0 -700.91 -30.48 0 0 -274.27 -30.45 0 0 -304.71 -30.49 0 0 -365.68 -30.49 0 0 -365.68 -30.44 0 0 -274.26 -30.49 0 0 -426.62 -30.49 0 0 -274.26 -30.45 0 0 -944.69 -30.48 0 0 -518.04 -30.49 0 0 -975.17 -30.45 0 0 -213.29zm-609.49 -3016.88l30.49 0 0 -213.33 30.48 0 0 -91.42 30.45 0 0 -91.42 30.49 0 0 -60.93 30.48 0 0 -30.49 30.45 0 0 -60.93 30.49 0 0 -60.97 30.48 0 0 -30.45 30.45 0 0 -30.49 30.49 0 0 -30.48 30.48 0 0 -30.45 30.45 0 0 -30.49 30.49 0 0 -30.45 30.48 0 0 -30.48 30.45 0 0 -30.49 30.49 0 0 -30.45 60.93 0 0 -30.48 30.49 0 0 -30.49 60.93 0 0 -30.45 60.97 0 0 -30.48 30.45 0 0 -30.49 91.42 0 0 -30.45 60.98 0 0 -30.48 30.45 0 0 -30.49 60.97 0 0 -30.45 60.93 0 0 -30.49 60.94 0 0 -30.48 30.48 0 0 -30.45 60.94 0 0 -30.49 30.48 0 0 -30.48 60.94 0 0 -30.45 30.48 0 0 -30.49 60.94 0 0 -30.48 30.48 0 0 -30.45 30.49 0 0 -30.49 60.93 0 0 -30.48 30.49 0 0 -30.45 60.93 0 0 -30.49 30.49 0 0 -30.48 60.93 0 0 -30.45 30.49 0 0 -30.49 60.93 0 0 -30.48 30.49 0 0 -30.45 60.94 0 0 -30.49 60.93 0 0 -30.48 60.97 0 0 -30.45 396.13 0 0 30.45 60.97 0 0 30.48 60.94 0 0 30.49 30.48 0 0 30.45 60.94 0 0 30.48 30.48 0 0 30.49 60.94 0 0 30.45 30.49 0 0 30.48 60.93 0 0 30.49 30.49 0 0 30.45 30.45 0 0 30.48 60.97 0 0 30.49 30.45 0 0 30.45 30.48 0 0 30.48 60.94 0 0 30.49 30.48 0 0 30.45 30.49 0 0 30.48 60.93 0 0 30.49 30.49 0 0 30.45 30.45 0 0 30.48 60.97 0 0 30.49 60.93 0 0 30.45 30.49 0 0 30.49 60.93 0 0 30.48 30.49 0 0 30.45 60.93 0 0 30.49 30.49 0 0 30.48 60.93 0 0 30.45 30.49 0 0 30.49 60.93 0 0 30.48 30.49 0 0 30.45 30.45 0 0 30.49 30.49 0 0 30.48 60.93 0 0 60.94 60.97 0 0 60.93 30.45 0 0 30.49 30.49 0 0 30.45 30.48 0 0 60.97 30.45 0 0 60.93 30.49 0 0 30.49 30.48 0 0 121.87 30.45 0 0 91.42 30.49 0 0 121.91 30.48 0 0 518.03 -30.48 0 0 274.26 -30.49 0 0 152.4 -30.45 0 0 91.42 -30.48 0 0 91.42 -30.49 0 0 121.87 -30.45 0 0 121.9 -30.48 0 0 60.94 -30.49 0 0 91.42 -30.45 0 0 152.39 -30.48 0 0 60.93 -30.49 0 0 91.42 -30.45 0 0 91.42 -30.48 0 0 121.91 -30.49 0 0 60.94 -30.45 0 0 91.42 -30.49 0 0 91.42 -30.48 0 0 121.9 -30.45 0 0 60.94 -30.49 0 0 91.42 -30.48 0 0 60.93 -30.45 0 0 91.42 -30.49 0 0 60.97 -30.48 0 0 91.42 -30.45 0 0 30.45 -30.49 0 0 60.98 -30.48 0 0 60.93 -30.45 0 0 30.49 -30.49 0 0 60.93 -30.48 0 0 30.49 -30.45 0 0 30.45 -30.49 0 0 60.97 -30.48 0 0 30.45 -30.45 0 0 30.48 -30.49 0 0 30.49 -30.48 0 0 30.45 -30.45 0 0 30.48 -30.49 0 0 30.49 -30.48 0 0 30.45 -30.45 0 0 30.48 -30.49 0 0 30.49 -30.48 0 0 30.45 -30.45 0 0 30.48 -60.97 0 0 30.49 -30.45 0 0 30.45 -60.98 0 0 30.48 -60.93 0 0 30.49 -60.94 0 0 30.45 -60.97 0 0 30.48 -60.93 0 0 30.49 -91.42 0 0 30.45 -121.91 0 0 30.48 -396.13 0 0 -30.48 -182.84 0 0 -30.45 -60.97 0 0 -30.49 -121.87 0 0 -30.48 -60.97 0 0 -30.45 -60.94 0 0 -30.49 -30.48 0 0 -30.48 -60.94 0 0 -30.45 -60.93 0 0 -30.49 -30.49 0 0 -30.48 -30.48 0 0 -30.45 -30.45 0 0 -30.49 -60.97 0 0 -30.48 -30.45 0 0 -30.45 -30.49 0 0 -30.49 -30.48 0 0 -30.48 -30.45 0 0 -60.94 -30.49 0 0 -30.48 -30.48 0 0 -30.45 -30.45 0 0 -60.97 -30.49 0 0 -30.45 -30.49 0 0 -60.97 -30.44 0 0 -30.45 -30.49 0 0 -60.98 -30.49 0 0 -30.44 -30.45 0 0 -60.98 -30.48 0 0 -60.93 -30.49 0 0 -60.94 -30.45 0 0 -60.97 -30.48 0 0 -91.42 -30.49 0 0 -60.93 -30.45 0 0 -91.42 -30.48 0 0 -121.91 -30.49 0 0 -121.87 -30.45 0 0 -91.42 -30.48 0 0 -60.97 -30.49 0 0 -152.36 -30.45 0 0 -121.9 -30.48 0 0 -91.42 -30.49 0 0 -121.87 -30.45 0 0 -60.97 -30.48 0 0 -121.87 -30.49 0 0 -121.91 -30.45 0 0 -91.42 -30.48 0 0 -121.9 -30.49 0 0 -152.36 -30.45 0 0 -121.91 -30.48 0 0 -304.71 -30.49 0 0 -365.68zm2041.74 -1980.76l-152.36 0 0 30.45 -60.97 0 0 30.48 -60.94 0 0 30.49 -30.48 0 0 30.45 -60.94 0 0 30.48 -60.93 0 0 30.49 -30.49 0 0 30.45 -60.93 0 0 30.48 -30.49 0 0 30.49 -30.48 0 0 30.45 -60.94 0 0 30.48 -30.48 0 0 30.49 -60.94 0 0 30.45 -30.48 0 0 30.48 -30.45 0 0 30.49 -60.97 0 0 30.45 -30.45 0 0 30.48 -60.97 0 0 30.49 -30.45 0 0 30.45 -60.97 0 0 30.48 -30.45 0 0 30.49 -60.97 0 0 30.45 -60.94 0 0 30.48 -60.93 0 0 30.49 -60.98 0 0 30.45 -60.93 0 0 30.48 -60.94 0 0 30.49 -30.48 0 0 30.45 -60.94 0 0 30.49 -60.97 0 0 30.48 -30.45 0 0 30.45 -60.97 0 0 30.49 -30.45 0 0 30.48 -30.48 0 0 30.45 -30.49 0 0 30.49 -30.45 0 0 30.48 -60.97 0 0 30.45 -30.45 0 0 60.97 -30.48 0 0 30.45 -30.49 0 0 30.49 -30.45 0 0 60.93 -30.48 0 0 30.49 -30.49 0 0 60.93 -30.45 0 0 60.94 -30.48 0 0 91.42 -30.49 0 0 60.97 -30.45 0 0 121.87 -30.48 0 0 213.33 -30.49 0 0 457.1 30.49 0 0 304.74 30.48 0 0 121.87 30.45 0 0 152.4 30.49 0 0 91.42 30.48 0 0 152.35 30.45 0 0 91.42 30.49 0 0 152.36 30.48 0 0 60.97 30.45 0 0 121.87 30.49 0 0 152.39 30.48 0 0 60.94 30.45 0 0 152.35 30.49 0 0 60.97 30.48 0 0 152.36 30.45 0 0 60.93 30.49 0 0 121.91 30.48 0 0 60.93 30.45 0 0 121.91 30.49 0 0 243.77 30.48 0 0 579.01 30.45 0 0 944.69 30.49 0 0 761.82 30.48 0 0 609.49 30.45 0 0 457.1 30.49 0 0 274.26 30.48 0 0 426.62 30.45 0 0 274.26 30.49 0 0 304.71 30.48 0 0 396.17 30.45 0 0 335.2 30.49 0 0 335.23 30.49 0 0 944.65 -30.49 0 0 579.01 -30.49 0 0 213.33 -30.45 0 0 396.13 -30.48 0 0 426.65 -30.49 0 0 1005.63 30.49 0 0 91.42 30.48 0 0 91.42 30.45 0 0 60.93 30.49 0 0 60.94 30.49 0 0 30.48 30.44 0 0 30.49 30.49 0 0 30.45 60.94 0 0 30.48 30.48 0 0 30.49 60.94 0 0 30.45 243.81 0 0 -30.45 60.93 0 0 -30.49 60.94 0 0 -30.48 60.97 0 0 -30.45 30.45 0 0 -30.49 30.48 0 0 -30.48 30.49 0 0 -30.45 60.93 0 0 -30.49 30.49 0 0 -60.93 30.45 0 0 -30.49 30.48 0 0 -30.48 30.49 0 0 -30.45 30.45 0 0 -30.49 30.48 0 0 -60.93 30.49 0 0 -30.49 30.45 0 0 -60.93 30.49 0 0 -60.97 30.48 0 0 -60.94 30.45 0 0 -60.93 30.49 0 0 -60.98 30.48 0 0 -30.44 30.45 0 0 -91.43 30.49 0 0 -60.97 30.48 0 0 -60.93 30.45 0 0 -60.94 30.49 0 0 -91.42 30.48 0 0 -60.97 30.45 0 0 -91.42 30.49 0 0 -60.93 30.48 0 0 -91.42 30.45 0 0 -60.94 30.49 0 0 -91.42 30.48 0 0 -60.97 30.45 0 0 -91.42 30.49 0 0 -91.42 30.48 0 0 -91.42 30.45 0 0 -121.87 30.49 0 0 -91.42 30.48 0 0 -60.97 30.45 0 0 -91.42 30.49 0 0 -91.42 30.48 0 0 -91.42 30.45 0 0 -91.42 30.49 0 0 -91.43 30.49 0 0 -121.87 30.44 0 0 -121.9 30.49 0 0 -60.94 30.49 0 0 -121.9 30.45 0 0 -60.94 30.48 0 0 -152.39 30.49 0 0 -91.42 30.45 0 0 -121.87 30.48 0 0 -121.9 30.49 0 0 -121.91 30.45 0 0 -182.84 30.48 0 0 -91.42 30.49 0 0 -152.36 30.45 0 0 -152.35 30.48 0 0 -274.26 30.49 0 0 -182.85 30.45 0 0 -121.9 30.48 0 0 -304.75 30.49 0 0 -182.84 30.45 0 0 -274.22 30.48 0 0 -335.24 30.49 0 0 -213.29 30.45 0 0 -457.1 30.48 0 0 -182.84 30.49 0 0 -396.17 30.45 0 0 -396.17 30.48 0 0 -487.55 30.49 0 0 -274.26 30.45 0 0 -457.1 30.48 0 0 -274.26 30.49 0 0 -274.26 30.45 0 0 -365.69 30.48 0 0 -60.97 30.49 0 0 -60.93 30.45 0 0 -91.42 30.49 0 0 -91.42 30.48 0 0 -91.42 30.45 0 0 -60.94 30.49 0 0 -91.42 30.48 0 0 -91.42 30.45 0 0 -121.9 30.49 0 0 -91.42 30.48 0 0 -121.91 30.45 0 0 -91.42 30.49 0 0 -91.42 30.48 0 0 -91.42 30.45 0 0 -91.42 30.49 0 0 -121.87 30.48 0 0 -60.97 30.45 0 0 -121.87 30.49 0 0 -91.42 30.48 0 0 -152.4 30.45 0 0 -91.42 30.49 0 0 -213.29 30.48 0 0 -731.36 -30.48 0 0 -121.91 -30.49 0 0 -121.9 -30.45 0 0 -60.94 -30.48 0 0 -60.93 -30.49 0 0 -60.97 -30.45 0 0 -60.94 -30.48 0 0 -30.48 -30.49 0 0 -60.94 -30.45 0 0 -30.45 -30.48 0 0 -30.48 -30.49 0 0 -30.49 -30.45 0 0 -30.45 -30.48 0 0 -30.48 -30.49 0 0 -30.49 -30.45 0 0 -30.45 -30.48 0 0 -30.48 -30.49 0 0 -30.49 -30.45 0 0 -30.45 -60.97 0 0 -30.48 -30.45 0 0 -30.49 -60.97 0 0 -30.45 -30.45 0 0 -30.49 -60.97 0 0 -30.48 -60.94 0 0 -30.45 -30.48 0 0 -30.49 -60.94 0 0 -30.48 -30.48 0 0 -30.45 -60.94 0 0 -30.49 -30.48 0 0 -30.48 -60.94 0 0 -30.45 -30.48 0 0 -30.49 -60.94 0 0 -30.48 -30.48 0 0 -30.45 -30.45 0 0 -30.49 -30.49 0 0 -30.48 -60.93 0 0 -30.45 -30.49 0 0 -30.49 -30.48 0 0 -30.48 -60.94 0 0 -30.45 -30.48 0 0 -30.49 -30.45 0 0 -30.48 -60.98 0 0 -30.45 -30.44 0 0 -30.49 -60.98 0 0 -30.48 -30.45 0 0 -30.45 -60.97 0 0 -30.49 -60.93 0 0 -30.48 -60.94 0 0 -30.45 -121.9 0 0 -30.49 -274.26 0 0 30.49z"/>
 </g>
</svg>
