<?xml version="1.0" encoding="UTF-8"?>
<!DOCTYPE svg PUBLIC "-//W3C//DTD SVG 1.1//EN" "http://www.w3.org/Graphics/SVG/1.1/DTD/svg11.dtd">
<!-- Creator: CorelDRAW (Versión de evaluación) -->
<svg xmlns="http://www.w3.org/2000/svg" xml:space="preserve" width="739px" height="2458px" version="1.1" style="shape-rendering:geometricPrecision; text-rendering:geometricPrecision; image-rendering:optimizeQuality; fill-rule:evenodd; clip-rule:evenodd"
viewBox="0 0 739 2457.4"
 xmlns:xlink="http://www.w3.org/1999/xlink"
 xmlns:xodm="http://www.corel.com/coreldraw/odm/2003">
 <defs>
  <style type="text/css">
   <![CDATA[
    .str0 {stroke:#4B4B4D;stroke-width:10;stroke-miterlimit:22.9256}
    .fil0 {fill:#FEFEFE}
   ]]>
  </style>
 </defs>
 <g id="tooth-fissure-root-28">
  <metadata id="CorelCorpID_0Corel-Layer"/>
  <path id="crown" class="fil0 str0" d="M297.93 2368.85c-57.06,14.92 -100.95,140.99 -179.96,63.6 -164.76,-161.41 -133.66,-641.7 -50.53,-871.79 70.59,-0.52 68.66,43.19 163.74,-8.4 202.5,-109.89 136.31,12.93 287.8,73.63 57.13,22.9 117.04,25.12 175.07,7.31 94.7,254.2 34.66,732.01 -145.02,711.8 -54.98,-6.19 -51.34,-35.86 -92.99,-70.46 -66.95,-55.6 -166.87,6.41 -158.11,94.31 57.07,-26.21 83.41,-175.53 173.24,-28.37 -24.73,97.24 -120.59,118.74 -184.89,82.29l11.65 -53.92z"/>
  <path id="root" class="fil0 str0" d="M270.62 1490.67c-220.63,110.74 -245.67,0.12 -262.81,-324.94 -4.55,-86.42 -5.49,-170.87 -2.27,-253.86l21.19 -23.52 3.09 2.79 11.15 -12.39 3.1 2.79 5.57 -6.19 3.1 2.79 13.93 -15.48 3.1 2.79 11.15 -12.38 5.58 -6.19 9.28 8.36 2.79 -3.1 -6.19 -5.57 5.57 -6.19 3.1 2.78 8.36 -9.28 -3.09 -2.79 -2.79 3.1 -3.1 -2.79 -2.78 3.09 -6.2 -5.57 2.79 -3.1 -9.28 -8.36 2.78 -3.1 3.1 2.79 2.79 -3.09 6.19 5.57 2.78 -3.09 6.2 5.57 2.78 -3.09 6.19 5.57 -2.78 3.1 3.09 2.78 5.58 -6.19 -3.1 -2.78 5.58 -6.19 3.09 2.78 2.79 -3.09 3.1 2.79 2.78 -3.1 6.2 5.57 2.78 -3.09 3.1 2.79 5.57 -6.19 3.1 2.78 2.79 -3.09 3.09 2.79 2.79 -3.1 6.19 5.57 2.79 -3.09 21.67 19.51 2.78 -3.09 6.19 5.57 2.79 -3.09 -21.67 -19.52 -2.78 3.1 -12.39 -11.15 -2.78 3.09 -12.38 -11.15 2.78 -3.09 -3.09 -2.79 5.57 -6.19 -3.09 -2.79 11.15 -12.38 -3.1 -2.79 5.58 -6.19 -3.1 -2.79 2.79 -3.09 -3.1 -2.79 -2.78 3.1 3.09 2.78 -8.36 9.29 3.09 2.79 -11.15 12.38 3.1 2.79 -2.79 3.09 3.1 2.79 -2.79 3.1 3.1 2.78 -2.79 3.1 3.09 2.79 -5.57 6.19 -3.1 -2.79 -2.79 3.1 -6.19 -5.58 -2.78 3.1 -9.29 -8.37 -2.79 3.1 3.1 2.79 -5.58 6.19 -3.09 -2.79 -2.79 3.09 -3.1 -2.78 -2.78 3.09 -6.19 -5.57 -2.79 3.09 -6.19 -5.57 -2.79 3.09 -6.19 -5.57 -2.79 3.09 -3.09 -2.78 2.78 -3.1 -6.19 -5.57 2.79 -3.1 -9.29 -8.36 2.79 -3.1 -9.29 -8.36 -6.19 -5.58 2.79 -3.09 -3.09 -2.79 2.78 -3.09 -3.09 -2.79 2.78 -3.1 -6.19 -5.57 -5.57 6.19 3.09 2.79 -2.78 3.09 3.09 2.79 -2.79 3.09 3.1 2.79 -5.58 6.19 3.1 2.79 -2.79 3.1 3.1 2.78 -2.79 3.1 3.1 2.79 -5.58 6.19 3.1 2.79 -2.79 3.09 3.09 2.79 -5.57 6.19 3.09 2.79 -2.78 3.09 3.09 2.79 -2.78 3.1 -3.1 -2.79 -2.79 3.09 -9.28 -8.36 -2.79 3.1 12.38 11.15 -2.79 3.09 3.1 2.79 -2.79 3.09 -3.1 -2.78 -2.78 3.09 -3.1 -2.78 -2.79 3.09 -9.28 -8.36 -2.79 3.09 -1.66 -1.49c2.93,-39.69 6.88,-79.08 11.9,-118.22l1.25 1.13 2.79 -3.1 -3.4 -3.05c11.1,-84.99 27.27,-168.85 49.13,-252.19 30.78,-117.37 121.34,-454.09 220.35,-453.19 20.72,107.11 -160.84,984.67 43.59,1054.23 57.09,19.42 88.47,-25.33 105.92,-94.87l1.72 1.55 2.79 -3.1 6.19 5.57 -2.79 3.1 6.19 5.58 -2.79 3.09 9.29 8.36 -2.79 3.1 15.48 13.94 2.78 -3.1 -6.19 -5.57 2.79 -3.1 -9.28 -8.36 2.78 -3.1 -6.19 -5.57 2.79 -3.1 -6.19 -5.57 2.79 -3.1 -3.1 -2.79 2.79 -3.09 -6.19 -5.58 2.78 -3.09 -6.19 -5.58 2.79 -3.09 -6.17 -5.56 0.01 -0.05 2.76 -3.06 -1.88 -1.7c0.18,-1 0.35,-2.01 0.52,-3.02l1.05 -1.17 -0.74 -0.66c3.04,-18 5.43,-36.98 7.32,-56.44l4.9 -5.44 -3.1 -2.79 2.79 -3.09 -3.1 -2.79 -0.24 0.26c1.05,-12.35 1.9,-24.85 2.61,-37.36l1.67 1.49 2.79 -3.09 3.09 2.79 2.79 -3.1 6.19 5.58 5.57 -6.19 3.1 2.78 2.79 -3.09 -9.29 -8.37 -2.79 3.1 -3.09 -2.79 -2.79 3.1 -6.19 -5.58 -2.79 3.1 -0.48 -0.43c1.65,-32.7 2.37,-65.29 2.82,-95.54l1.41 -1.56 -1.38 -1.24 0.06 -3.52 3.79 -4.22 -3.09 -2.79 11.15 -12.38 -3.1 -2.79 8.37 -9.29 -3.1 -2.78 13.94 -15.48 -3.09 -2.79 11.14 -12.38 3.1 2.79 5.58 -6.19 3.09 2.78 2.79 -3.09 6.19 5.57 2.79 -3.09 -15.48 -13.94 2.79 -3.1 -3.1 -2.78 8.36 -9.29 -3.09 -2.79 8.36 -9.28 -3.09 -2.79 5.57 -6.19 -3.09 -2.79 2.78 -3.1 -3.09 -2.78 2.79 -3.1 -3.1 -2.79 2.79 -3.09 -3.1 -2.79 2.79 -3.09 -6.19 -5.58 5.57 -6.19 3.1 2.79 8.36 -9.29 3.1 2.79 11.15 -12.38 3.09 2.78 2.79 -3.09 3.1 2.79 2.78 -3.1 3.1 2.79 2.79 -3.1 9.28 8.36 2.79 -3.09 12.38 11.15 2.79 -3.1 12.38 11.15 -2.78 3.1 3.09 2.79 -2.79 3.09 6.19 5.58 -2.78 3.09 34.05 30.67 -2.79 3.09 6.19 5.58 3.1 2.79 -2.79 3.09 3.09 2.79 -5.57 6.19 3.09 2.79 7.21 -8c0.69,3.63 1.37,7.2 2.03,10.71l-0.26 -0.23 -5.57 6.19 3.09 2.79 3.63 -4.03c7.31,38.82 12.69,70.06 15.31,89.1 37.3,271.42 46.6,584.51 29.43,861.63 -209.47,110.53 -258.95,-184.57 -428.76,-99.34zm-264.24 -598.4c0.1,-2.2 0.21,-4.39 0.32,-6.58l4.86 -5.4 3.09 2.79 -8.27 9.19zm438.21 54.96l0.39 -1.76 0.66 0.59 -1.05 1.17zm20.01 -277.45l0.05 -3.7 1.82 1.63 -1.87 2.07zm0.08 -6.31c0.29,-22.63 0.63,-42.86 1.4,-59.43 0.35,-7.36 0.56,-15.33 0.67,-23.79l0.98 -1.09 -0.96 -0.86c0.06,-5.4 0.09,-10.98 0.08,-16.76l3.05 2.76 2.79 -3.1 -5.87 -5.29c-0.93,-157.38 -24.9,-441.57 43.43,-493.66 25.07,33.64 74.95,241.1 112.68,419.27l-0.97 1.08 1.48 1.34 0.55 2.62 -1.73 1.92 -3.09 -2.79 -5.58 6.19 -3.09 -2.78 -8.36 9.28 -3.1 -2.78 -8.36 9.28 -3.1 -2.78 -5.57 6.19 -3.1 -2.79 -2.79 3.09 -3.09 -2.78 -5.58 6.19 -3.09 -2.79 -2.79 3.09 -3.1 -2.78 -5.57 6.19 3.09 2.79 -2.78 3.09 -3.1 -2.79 -2.79 3.1 -3.09 -2.79 -5.58 6.19 -3.09 -2.78 -5.58 6.19 -3.09 -2.79 -2.79 3.09 -6.19 -5.57 -2.79 3.09 -6.19 -5.57 2.79 -3.1 -3.1 -2.78 -2.79 3.09 -3.09 -2.79 2.79 -3.09 -9.29 -8.36 2.79 -3.1 -6.19 -5.57 -2.79 3.09 -9.29 -8.36 2.79 -3.1 -9.29 -8.36 -2.78 3.09 3.09 2.79 -2.79 3.1 6.19 5.57 -5.57 6.19 37.14 33.46 -2.78 3.09 -6.19 -5.57 -5.58 6.19 6.19 5.57 -2.79 3.1 3.1 2.79 -2.79 3.09 3.1 2.79 -2.79 3.09 9.29 8.37 3.09 2.78 -5.57 6.19 3.09 2.79 -2.79 3.1 3.1 2.79 -5.57 6.19 3.09 2.78 -5.58 6.2 3.1 2.78 -5.57 6.19 3.09 2.79 -5.57 6.19 3.09 2.79 -25.09 27.86 3.1 2.79 -12.63 14.02zm167.75 -136.47c4.28,20.81 8.35,40.96 12.12,60.03l-2.5 -2.25 -2.79 3.1 -3.09 -2.79 2.79 -3.1 -6.19 -5.57 2.78 -3.1 -6.19 -5.57 5.58 -6.19 -3.1 -2.79 -2.79 3.1 -6.19 -5.58 2.79 -3.1 -3.1 -2.78 2.79 -3.1 -3.09 -2.79 2.78 -3.09 -3.09 -2.79 2.79 -3.09 -3.1 -2.79 5.58 -6.19 3.09 2.79 2.13 -2.36zm-300.18 619.67l-3.09 -2.79 -2.79 3.1 3.1 2.79 2.78 -3.1 3.1 2.79 2.79 -3.1 3.09 2.79 5.58 -6.19 3.09 2.79 5.58 -6.19 3.09 2.78 13.94 -15.47 3.1 2.78 5.57 -6.19 3.1 2.79 2.79 -3.09 3.09 2.78 2.79 -3.09 3.09 2.79 2.79 -3.1 3.1 2.79 2.79 -3.1 3.09 2.79 2.79 -3.1 3.09 2.79 2.79 -3.09 3.1 2.78 5.57 -6.19 3.1 2.79 5.57 -6.19 3.1 2.79 2.79 -3.1 3.09 2.79 2.79 -3.1 3.09 2.79 3.1 2.79 2.79 -3.1 3.09 2.79 2.79 -3.09 3.09 2.78 2.79 -3.09 3.1 2.79 2.79 -3.1 3.09 2.79 2.79 -3.1 3.1 2.79 -2.79 3.09 9.28 8.37 2.79 -3.1 -9.28 -8.36 5.57 -6.19 3.1 2.79 2.78 -3.1 3.1 2.79 11.15 -12.38 27.86 25.08 2.79 -3.09 18.57 16.72 27.86 25.09 12.38 11.15 -2.79 3.1 12.39 11.15 -2.79 3.1 6.19 5.57 -2.79 3.09 6.19 5.58 -2.79 3.1 18.58 16.72 -2.79 3.1 9.29 8.36 -2.79 3.1 3.09 2.78 -2.78 3.1 6.19 5.57 -2.79 3.1 3.1 2.79 -2.79 3.09 9.28 8.37 -2.78 3.09 9.28 8.36 2.79 -3.09 -6.19 -5.58 2.79 -3.09 -6.19 -5.58 2.78 -3.09 -3.09 -2.79 2.79 -3.1 -3.1 -2.78 2.79 -3.1 -3.1 -2.79 2.79 -3.09 3.1 2.78 5.57 -6.19 -6.19 -5.57 -5.58 6.19 -3.09 -2.79 2.79 -3.09 -12.38 -11.15 2.78 -3.1 -9.28 -8.36 2.78 -3.1 -6.19 -5.57 2.79 -3.1 -6.19 -5.57 2.79 -3.1 -3.1 -2.79 2.79 -3.09 -9.29 -8.37 2.79 -3.09 -6.19 -5.58 2.79 -3.09 -3.1 -2.79 -3.09 -2.79 -2.79 3.1 -3.1 -2.79 2.79 -3.09 -6.19 -5.58 2.79 -3.09 -34.05 -30.67 -2.79 3.1 -6.19 -5.58 -6.19 -5.57 -27.86 -25.09 13.94 -15.48 -3.1 -2.79 5.58 -6.19 -3.1 -2.79 8.36 -9.28 -3.09 -2.79 5.57 -6.19 -3.09 -2.79 2.78 -3.09 -3.09 -2.79 5.57 -6.19 -3.09 -2.79 5.57 -6.19 -3.09 -2.79 8.36 -9.28 -3.09 -2.79 11.15 -12.38 -3.1 -2.79 2.79 -3.1 -3.1 -2.78 2.79 -3.1 -3.1 -2.79 -8.36 9.29 3.1 2.79 -5.58 6.19 -9.29 -8.36 -2.78 3.09 -6.19 -5.58 -5.58 6.2 6.19 5.57 2.79 -3.09 9.29 8.36 -5.58 6.19 3.1 2.79 -22.3 24.76 3.09 2.79 -5.57 6.19 3.09 2.79 5.58 -6.19 6.19 5.57 -5.58 6.19 -6.19 -5.57 -2.78 3.09 -5.58 6.19 3.09 2.79 -13.93 15.48 3.09 2.79 -11.15 12.38 6.19 5.57 -5.57 6.19 -3.1 -2.78 -2.78 3.09 -3.1 -2.79 -2.79 3.1 -3.09 -2.79 -2.79 3.1 -3.1 -2.79 -2.78 3.1 -3.1 -2.79 -5.58 6.19 -3.09 -2.79 -2.79 3.1 -6.19 -5.58 -2.79 3.1 -3.09 -2.79 -2.79 3.1 -6.19 -5.58 -5.58 6.19 -3.09 -2.79 -5.58 6.19 -3.09 -2.78 -2.79 3.09 -3.1 -2.78 -2.78 3.09 -6.19 -5.58 -2.79 3.1 -9.29 -8.36 -2.79 3.09 -6.19 -5.57 -6.19 -5.58 -2.78 3.1 -3.1 -2.79 -2.79 3.1 -9.28 -8.37 -2.79 3.1 -15.48 -13.94 -2.79 3.1 -3.09 -2.79 -9.29 -8.36 -5.57 6.19 3.09 2.79 -5.57 6.19 6.19 5.57 2.78 -3.1 3.1 2.79 5.58 -6.19 6.19 5.58 -5.58 6.19 -3.09 -2.79 -13.94 15.48 -3.1 -2.79 -5.57 6.19 -3.1 -2.79 -5.57 6.19 -3.1 -2.78 -2.79 3.09 -3.09 -2.78 -2.79 3.09 -3.1 -2.79 5.58 -6.19 -3.1 -2.79 2.79 -3.09 -3.09 -2.79 2.78 -3.09 -3.09 -2.79 2.78 -3.1 -3.09 -2.78 11.15 -12.39 -3.09 -2.79 2.78 -3.09 6.19 5.57 2.79 -3.09 6.19 5.58 8.36 -9.29 -18.57 -16.73 -2.79 3.1 -3.09 -2.79 -2.79 3.1 -6.19 -5.58 2.79 -3.09 -3.1 -2.79 2.79 -3.1 -3.1 -2.79 2.79 -3.09 -3.09 -2.79 -6.19 -5.57 -9.29 -8.37 -5.58 6.19 -3.09 -2.78 -2.79 3.09 -3.09 -2.79 -5.58 6.2 3.1 2.78 -5.58 6.19 -3.09 -2.78 -2.79 3.09 -3.1 -2.79 -2.79 3.1 -6.19 -5.57 -2.78 3.09 -15.48 -13.94 -2.79 3.1 -3.09 -2.79 -12.39 -11.15 2.79 -3.1 -6.19 -5.57 -5.57 6.19 3.09 2.79 -2.79 3.09 -3.09 -2.78 -2.79 3.09 -3.1 -2.79 -2.78 3.1 -6.19 -5.58 -2.79 3.1 -3.1 -2.79 -2.79 3.1 -6.19 -5.58 -2.78 3.1 -3.1 -2.79 2.79 -3.1 -3.1 -2.78 5.58 -6.19 -3.1 -2.79 -2.78 3.09 -6.2 -5.57 -2.78 3.09 -3.1 -2.78 2.79 -3.1 -9.29 -8.36 2.79 -3.1 -9.29 -8.36 2.79 -3.09 -3.09 -2.79 2.78 -3.1 -6.19 -5.57 2.79 -3.1 -6.19 -5.57 2.79 -3.1 -6.19 -5.58 2.78 -3.09 -3.09 -2.79 -2.79 3.1 3.1 2.78 -2.79 3.1 3.09 2.79 -2.78 3.09 3.09 2.79 -2.79 3.1 3.1 2.78 -2.79 3.1 6.19 5.57 -2.78 3.1 3.09 2.79 -5.57 6.19 3.09 2.79 -2.79 3.09 3.1 2.79 -5.58 6.19 3.1 2.79 -5.58 6.19 3.1 2.79 -8.36 9.28 3.09 2.79 -2.78 3.1 3.09 2.78 -8.36 9.29 -3.1 -2.79 -2.79 3.1 -3.09 -2.79 -2.79 3.1 3.1 2.78 -2.79 3.1 9.29 8.36 -2.79 3.1 3.09 2.78 -5.57 6.2 3.09 2.78 8.37 -9.28 -3.1 -2.79 8.36 -9.29 3.1 2.79 8.36 -9.29 3.1 2.79 2.78 -3.09 2.79 -3.1 3.1 2.79 2.79 -3.1 9.28 8.36 2.79 -3.09 6.19 5.58 2.79 -3.1 3.09 2.79 5.58 -6.19 3.1 2.78 2.78 -3.09 3.1 2.79 2.78 -3.1 3.1 2.79 2.79 -3.1 3.09 2.79 2.79 -3.1 3.1 2.79 2.79 -3.09 6.19 5.57 2.78 -3.09 3.1 2.79 2.79 -3.1 9.28 8.36 2.79 -3.09 6.19 5.57 -2.79 3.1 3.1 2.79 2.79 -3.1 3.09 2.79 5.58 -6.19 3.09 2.78 2.79 -3.09 3.1 2.79 2.78 -3.1 3.1 2.79 2.79 -3.1 3.09 2.79 2.79 -3.1 15.48 13.94 -2.79 3.1 6.19 5.57 -2.79 3.1 3.1 2.79 -2.79 3.09 3.1 2.79 -2.79 3.1 3.09 2.78 -5.57 6.19 3.09 2.79 -5.57 6.19 3.09 2.79 -2.78 3.09 3.09 2.79 -2.78 3.1 3.09 2.78 -5.57 6.2 3.09 2.78 -5.57 6.19 3.09 2.79 -2.79 3.1 6.19 5.57 -5.57 6.2 3.09 2.78 -2.78 3.1 3.09 2.78 -5.57 6.2 3.09 2.78 -8.36 9.29 3.1 2.79 -2.79 3.09 3.09 2.79 -2.78 3.1 6.19 5.57 -2.79 3.1 3.1 2.79 -2.79 3.09 3.09 2.79 -2.78 3.09 -8.37 9.29 -2.79 3.09 -3.09 -2.78 -2.79 3.09 -3.09 -2.78 -8.37 9.28 -3.09 -2.79 -8.37 9.29 6.2 5.58 2.78 -3.1 3.1 2.79 -2.79 3.09 12.38 11.15 2.79 -3.09 6.19 5.57 2.79 -3.09 6.19 5.57 2.79 -3.09 6.19 5.57 2.79 -3.09 24.76 22.3 2.79 -3.1 -3.1 -2.79 2.79 -3.09 -27.86 -25.09 2.79 -3.09 -9.29 -8.37 2.79 -3.09 -9.29 -8.37 5.58 -6.19 11.15 -12.38 -3.1 -2.79 2.79 -3.09 -3.09 -2.79 5.57 -6.19 -3.1 -2.79 5.58 -6.19 -3.09 -2.79 5.57 -6.19 -3.09 -2.79 5.57 -6.19 -3.1 -2.78 2.79 -3.1 -3.09 -2.79 2.78 -3.09 -3.09 -2.79 5.57 -6.19 -3.09 -2.79 2.79 -3.09 -3.1 -2.79 2.79 -3.1 3.09 2.79 2.79 -3.1 2.79 -3.09 3.09 2.79 2.79 -3.1 3.1 2.79 5.57 -6.19 3.1 2.79 2.78 -3.1 3.1 2.79 5.58 -6.19 3.09 2.79 5.58 -6.2 3.09 2.79 2.79 -3.09 6.19 5.57 2.79 -3.09 3.09 2.78 2.79 -3.09 3.1 2.79 2.79 -3.1 3.09 2.79 2.79 -3.1 3.09 2.79 2.79 -3.1 9.29 8.37 3.09 2.79 -5.57 6.19 -3.1 -2.79 -5.57 6.19 -3.1 -2.79 -8.36 9.29 -3.1 -2.79 -2.79 3.1 -3.09 -2.79 -16.73 18.57zm289.96 -490.06l-3.09 -2.79 -2.79 3.1 3.1 2.79 2.78 -3.1zm-546.25 214.41l-3.09 -2.78 -2.79 3.09 3.09 2.79 2.79 -3.1zm563.27 -171.06l-3.1 -2.78 -2.78 3.09 3.09 2.79 2.79 -3.1 3.1 2.79 -8.37 9.29 3.1 2.79 2.79 -3.1 3.09 2.79 2.79 -3.1 3.09 2.79 2.79 -3.09 -3.09 -2.79 2.78 -3.1 -6.19 -5.57 2.79 -3.1 -3.09 -2.79 -5.58 6.19zm-294.51 177.65l-3.1 -2.79 -2.78 3.09 3.09 2.79 2.79 -3.09zm-97.55 52.29l-3.1 -2.78 -2.78 3.09 3.09 2.79 2.79 -3.1zm285.57 -292.2l-3.1 -2.79 -2.79 3.09 3.1 2.79 2.79 -3.09zm131.11 588.95l-3.1 -2.78 -5.58 6.19 3.1 2.78 5.58 -6.19zm-560.03 -330.54l-3.09 -2.79 -5.58 6.2 3.1 2.78 5.57 -6.19zm396.11 -321.59l-3.09 -2.79 -5.58 6.2 3.1 2.78 5.57 -6.19zm114.21 153.3l-3.09 -2.78 -5.58 6.19 3.1 2.78 5.57 -6.19zm14.26 -65.63l-3.09 -2.79 -5.58 6.19 3.1 2.79 5.57 -6.19zm-472.56 213.5l-6.19 -5.57 -2.78 3.09 6.19 5.58 2.78 -3.1zm362.24 101.98l-6.19 -5.58 -2.79 3.1 6.2 5.57 2.78 -3.09zm-112.63 -235.97l-3.1 -2.79 -5.57 6.19 -6.19 -5.58 -2.79 3.1 -3.1 -2.79 8.36 -9.28 3.1 2.78 2.79 -3.09 3.09 2.79 2.79 -3.1 6.19 5.57 -5.57 6.2zm-383.04 64.29l-6.19 -5.58 -2.78 3.1 6.19 5.57 2.78 -3.09zm65.93 76.18l-3.09 -2.78 -5.58 6.19 3.1 2.79 5.57 -6.2zm553.39 -247.23l-3.1 -2.79 -8.36 9.29 3.09 2.79 8.37 -9.29zm-134.34 -143.4l-3.1 -2.78 2.79 -3.1 -3.09 -2.79 -5.58 6.19 6.19 5.58 2.79 -3.1zm-27.88 30.96l-6.19 -5.58 -2.79 3.1 3.1 2.79 -2.79 3.09 3.1 2.79 5.57 -6.19zm176.62 613.12l-3.09 -2.79 2.78 -3.09 -3.09 -2.79 -5.58 6.19 6.19 5.58 2.79 -3.1zm-155.39 -151.15l-6.19 -5.57 -2.79 3.09 3.1 2.79 -2.79 3.1 3.1 2.79 5.57 -6.2zm-282.37 -41.26l-3.1 -2.79 -2.78 3.1 -3.1 -2.79 -5.57 6.19 3.09 2.79 2.79 -3.1 3.09 2.79 5.58 -6.19 3.1 2.79 2.78 -3.1 3.1 2.79 2.79 -3.1 -6.19 -5.57 2.78 -3.1 -3.09 -2.78 5.57 -6.2 3.1 2.79 5.57 -6.19 -3.09 -2.79 13.94 -15.47 -6.19 -5.58 -13.94 15.48 3.09 2.79 -5.57 6.19 -3.1 -2.79 -5.57 6.19 3.09 2.79 -2.79 3.09 3.1 2.79 -2.79 3.1 3.1 2.78 -2.79 3.1zm444.08 -250.36l-3.09 -2.79 2.79 -3.09 -3.1 -2.79 -5.57 6.19 3.09 2.79 -2.78 3.09 3.09 2.79 5.57 -6.19zm-519.86 -14.09l-2.79 3.1 -3.09 -2.79 -5.58 6.19 6.19 5.58 2.79 -3.1 3.09 2.79 11.16 -12.38 -3.1 -2.79 2.79 -3.1 -3.1 -2.78 -8.36 9.28zm-57.6 26.61l-3.1 -2.78 -2.78 3.09 -3.1 -2.79 -2.79 3.1 -3.09 -2.79 -2.79 3.1 -3.1 -2.79 -5.57 6.19 -3.1 -2.79 -2.78 3.1 -3.1 -2.79 -2.79 3.1 -3.09 -2.79 -2.79 3.09 -3.1 -2.78 -2.78 3.09 9.28 8.36 2.79 -3.09 6.19 5.58 -8.36 9.28 6.19 5.58 2.79 -3.1 3.09 2.79 2.79 -3.1 -3.09 -2.79 5.57 -6.18 3.1 2.78 2.78 -3.09 3.1 2.78 5.57 -6.19 3.1 2.79 2.79 -3.09 3.09 2.78 8.37 -9.28 3.09 2.78 5.58 -6.19 3.09 2.79 11.15 -12.38 3.1 2.79 11.15 -12.38 -3.1 -2.79 -2.78 3.09 -3.1 -2.79 -8.36 9.29 -3.1 -2.79 -5.57 6.19 -3.1 -2.78 -2.79 3.09 -3.09 -2.79 -2.79 3.1 -3.09 -2.79 -5.58 6.19zm544.32 30.51l3.1 2.79 2.78 -3.1 6.2 5.58 2.78 -3.1 -12.38 -11.15 -5.57 6.19 -3.1 -2.79 -2.79 3.1 3.1 2.79 -2.79 3.09 3.1 2.79 5.57 -6.19zm-436.35 285.35l-6.19 -5.58 5.57 -6.19 6.19 5.58 -5.57 6.19zm219.57 -144.22l6.19 5.57 -2.79 3.1 -3.09 -2.79 -2.79 3.1 -3.1 -2.79 5.58 -6.19zm-93.82 10.81l3.09 2.78 16.73 -18.57 -3.1 -2.79 5.58 -6.19 -3.1 -2.79 -25.09 27.86 3.1 2.79 2.79 -3.09zm-204.35 -15.86l-3.1 -2.78 8.36 -9.29 9.29 8.36 11.15 -12.38 -3.1 -2.79 -2.78 3.1 -3.1 -2.79 -2.79 3.1 -3.09 -2.79 -2.79 3.09 -3.1 -2.78 5.58 -6.19 -3.09 -2.79 2.78 -3.1 -6.19 -5.57 -5.57 6.19 3.09 2.79 -2.79 3.09 -3.09 -2.79 -5.58 6.2 3.1 2.78 -2.79 3.1 3.1 2.79 -8.37 9.28 9.29 8.36 5.58 -6.19zm136.13 346.83l2.79 -3.09 3.09 2.78 -2.78 3.1 -3.1 -2.79zm-5.88 0.31l2.78 -3.1 3.1 2.79 -2.79 3.1 -3.09 -2.79zm0 0l-2.79 3.09 -3.1 -2.78 2.79 -3.1 3.1 2.79zm-131.54 -202.54l-3.09 -2.79 -2.79 3.1 -3.1 -2.79 16.73 -18.57 3.1 2.79 -8.37 9.28 3.1 2.79 -5.58 6.19zm275.93 -138.32l-3.1 -2.79 2.79 -3.09 3.09 2.78 -2.78 3.1zm-19.21 27.55l3.1 2.79 -5.58 6.19 -3.09 -2.79 5.57 -6.19zm-302.48 -87.41l-3.1 -2.78 2.79 -3.1 -6.19 -5.57 2.79 -3.1 -3.1 -2.79 2.79 -3.09 -3.1 -2.79 2.79 -3.1 -3.09 -2.78 2.78 -3.1 -3.09 -2.79 2.78 -3.09 9.29 8.36 -2.79 3.1 9.29 8.36 -2.79 3.09 3.1 2.79 -11.15 12.38zm261.88 -589.19c22.51,-79.35 9.12,-187.91 71.1,-162.79 21.45,59.25 1.49,387.66 23.59,508.9 5.14,28.24 9.32,59.81 12.09,92.98l-2.02 -1.82 -8.36 9.29 6.19 5.58 -2.78 3.09 3.09 2.79 -5.57 6.19 3.09 2.79 -16.72 18.57 -6.2 -5.58 2.79 -3.09 -3.09 -2.79 2.78 -3.09 -3.09 -2.79 5.58 -6.19 3.09 2.78 2.79 -3.09 -6.19 -5.58 -16.73 18.58 3.1 2.79 -2.79 3.09 3.09 2.79 -5.57 6.19 -3.1 -2.79 -3.09 -2.79 -2.79 3.1 -6.19 -5.58 -2.79 3.1 -9.28 -8.36 -2.79 3.09 -3.1 -2.79 -8.36 9.29 -3.1 -2.79 -2.78 3.1 -3.1 -2.79 -5.57 6.19 3.09 2.79 2.79 -3.1 9.29 8.37 8.36 -9.29 6.19 5.58 2.79 -3.1 9.28 8.36 -2.78 3.1 3.09 2.79 -5.57 6.19 3.09 2.78 -5.57 6.2 3.09 2.78 -2.79 3.1 3.1 2.79 -2.79 3.09 3.1 2.79 -8.37 9.29 3.1 2.78 -5.57 6.19 3.09 2.79 -8.36 9.29 3.09 2.79 -2.79 3.09 -3.09 -2.78 -8.36 9.28 -3.1 -2.79 -2.79 3.1 -3.09 -2.79 -2.79 3.1 -3.09 -2.79 -2.79 3.09 3.09 2.79 -8.36 9.29 3.1 2.79 -5.58 6.19 3.1 2.79 -5.58 6.19 3.1 2.78 -5.58 6.19 3.1 2.79 -2.79 3.1 3.1 2.78 -2.79 3.1 3.09 2.79 2.79 -3.1 3.1 2.79 5.57 -6.19 -6.19 -5.58 2.79 -3.09 -3.1 -2.79 5.58 -6.19 3.09 2.79 2.79 -3.1 3.1 2.79 -2.79 3.09 3.09 2.79 -5.57 6.19 9.28 8.37 5.58 -6.2 -3.1 -2.78 2.79 -3.1 -3.09 -2.78 2.78 -3.1 -3.09 -2.79 2.79 -3.09 -3.1 -2.79 5.58 -6.19 3.09 2.79 2.79 -3.1 3.1 2.79 2.78 -3.1 -6.19 -5.57 -3.09 -2.79 8.36 -9.29 -3.1 -2.79 13.94 -15.47 -3.09 -2.79 11.15 -12.38 -3.1 -2.79 5.58 -6.19 -3.1 -2.79 8.36 -9.29 -3.09 -2.78 5.57 -6.19 3.1 2.78 2.79 -3.09 3.09 2.79 5.58 -6.19 3.09 2.78 2.79 -3.09 3.1 2.79 2.78 -3.1 6.19 5.58 -2.78 3.09 3.09 2.79 -2.79 3.09 -2.78 3.1 3.09 2.79 -2.79 3.09 3.1 2.79 -2.79 3.09 3.1 2.79 -2.79 3.1 3.09 2.79 -2.78 3.09 3.09 2.79 -2.78 3.09 3.09 2.79 -2.79 3.1 3.1 2.79 -2.79 3.09 3.1 2.79 -5.58 6.19 3.1 2.79 -5.58 6.19 3.1 2.79 -11.15 12.38 3.09 2.78 -2.79 3.1 -3.09 -2.79 -22.3 24.77 -3.1 -2.79 -5.57 6.19 -3.1 -2.79 -2.78 3.1 -6.19 -5.58 -2.79 3.1 -6.19 -5.58 -2.79 3.1 9.28 8.36 2.79 -3.09 9.29 8.36 -2.79 3.09 -3.09 -2.78 -2.79 3.09 -6.19 -5.57 -2.79 3.09 -3.09 -2.79 -2.79 3.1 6.19 5.58 2.79 -3.1 9.28 8.36 -2.79 3.1 3.1 2.79 -8.36 9.28 3.09 2.79 -5.57 6.19 3.09 2.79 -2.78 3.09 3.09 2.79 -2.79 3.1 3.1 2.78 -2.79 3.1 3.1 2.79 -2.79 3.09 3.09 2.79 -2.78 3.1 21.66 19.51 2.79 -3.1 -9.28 -8.36 2.78 -3.09 -6.19 -5.58 2.79 -3.1 -3.1 -2.78 2.79 -3.1 -3.09 -2.79 8.36 -9.28 -3.1 -2.79 5.58 -6.19 -3.1 -2.79 2.79 -3.09 -3.09 -2.79 -5.58 6.19 -3.09 -2.79 5.57 -6.19 -3.09 -2.79 5.57 -6.19 6.19 5.58 5.58 -6.19 6.19 5.57 2.78 -3.09 3.1 2.78 2.79 -3.09 3.09 2.79 2.79 -3.1 3.1 2.79 2.78 -3.1 3.1 2.79 3.1 2.79 6.19 5.57 -2.79 3.1 3.92 3.53c-8.68,43.52 -22.1,82.22 -41.43,111.35 -61.76,7.73 -96.12,-46.54 -110.48,-119.22l0.3 0.27 5.57 -6.19 -3.09 -2.79 -3.68 4.08c-12.2,-66.31 -8.23,-146.88 6.5,-209.63l48.84 -455.23zm110.32 505.81l0.08 3.8 -1.94 -1.74 1.86 -2.06zm0.12 6.09c0.02,1.13 0.03,2.26 0.04,3.4l-1.71 -1.55 1.67 -1.85zm0.08 6.14l0.02 2.91 -1.46 -1.31 1.44 -1.6zm0.04 6.17c0.06,14.85 -0.2,29.72 -0.82,44.49l-0.99 1.1 -6.19 -5.58 2.79 -3.09 -3.1 -2.79 2.79 -3.1 -3.09 -2.78 2.78 -3.1 -3.09 -2.79 5.57 -6.19 -3.09 -2.79 5.57 -6.19 -3.09 -2.78 3.96 -4.41zm-1.75 62.46c-1.2,19.25 -3.04,38.23 -5.6,56.61l-2.53 -2.27 -5.58 6.19 -3.09 -2.79 -2.79 3.1 -3.09 -2.79 -2.79 3.1 -6.19 -5.58 -2.79 3.1 -6.19 -5.58 5.57 -6.19 -3.09 -2.79 22.3 -24.76 -3.1 -2.79 16.73 -18.57 2.23 2.01z"/>
 </g>
</svg>
