<?xml version="1.0" encoding="UTF-8"?>
<!DOCTYPE svg PUBLIC "-//W3C//DTD SVG 1.1//EN" "http://www.w3.org/Graphics/SVG/1.1/DTD/svg11.dtd">
<!-- Creator: CorelDRAW (Versión de evaluación) -->
<svg xmlns="http://www.w3.org/2000/svg" xml:space="preserve" width="739px" height="2458px" version="1.1" style="shape-rendering:geometricPrecision; text-rendering:geometricPrecision; image-rendering:optimizeQuality; fill-rule:evenodd; clip-rule:evenodd"
viewBox="0 0 739 2457.4"
 xmlns:xlink="http://www.w3.org/1999/xlink"
 xmlns:xodm="http://www.corel.com/coreldraw/odm/2003">
 <defs>
  <style type="text/css">
   <![CDATA[
    .str0 {stroke:#4B4B4D;stroke-width:10;stroke-miterlimit:22.9256}
    .fil0 {fill:#FEFEFE}
   ]]>
  </style>
 </defs>
 <g id="tooth-fissure-root-24">
  <metadata id="CorelCorpID_0Corel-Layer"/>
  <path id="crown" class="fil0 str0" d="M624.03 1628.31c16.16,84.94 37.64,170.32 57.29,254.38 38.24,163.37 128.27,352.32 -47.49,449.7 -48.56,26.9 -150.52,96.62 -196.66,112.7 -148.44,51.74 -341.04,-69.12 -416.69,-186.42 -60.96,-94.51 30.88,-412.49 31.45,-543.3 277.71,-85.14 235.87,-228.5 422.44,-136.4 58.85,29.06 85.37,34 149.66,49.34z"/>
  <path id="root" class="fil0 str0" d="M342.36 1319.18c0,-8.47 -0.72,-1.71 4.52,-1.24 12.52,1.12 -0.6,-8.18 1.93,1.24 2.51,9.38 -6.45,4.89 -6.45,0zm-111.07 -1217.29c10.44,52.04 12.27,385.69 6.3,511.77 -7.51,-12.37 -5.72,-11.36 -23.97,-32.2 -19.04,-21.74 -2.79,-17.95 -22.89,-35.43 -9.74,-8.47 -6.49,-1.45 -15,-14.16l0 -12.5c7.67,-11.45 10.98,-15.1 12.5,-33.32 -17.29,3.66 -7.76,0.58 -17.84,0.92 -33.1,1.13 -8.35,15.74 -69.64,15.74 10.77,14.7 9.99,6.39 32.8,8.86 14.41,1.56 17.5,6.44 33.85,7.8l0 8.33c0.4,17.78 10.29,30.33 17.98,44.51 6.95,12.79 6.19,9.26 13.97,19.8 10.13,13.72 9.53,9.34 5.54,19.01l0 4.16c-13.59,9.96 -12.91,19.54 -22.68,31.48 -7.38,9.03 -4.08,3.42 -13.62,11.37 -7.37,6.14 -8.95,8.4 -13.69,15.47l-11.25 0c-6.7,-4.31 -5.41,6.79 -5.41,-8.33l9.18 -15.82c9.24,-19.46 7.48,-11.42 7.48,-34.17l4.17 0 -3.47 -4.86 -0.7 4.86c-17.16,12.58 -13.87,28.17 -22.07,49.99 -10.22,7.52 -3.73,2.2 -5.84,8.33 -27.46,15.4 -18.13,29.4 -39.98,41.66l-11.25 11.25 -12.5 9.58c-5.59,-4.23 8.76,-4.17 -12.5,-4.17l0 4.17 12.5 0c-5.5,20.57 -7.74,2.75 -8.33,29.15 -5.27,0 -14.4,-0.54 -19.6,-0.34 10.01,-102.16 50.12,-252.13 73.19,-340.92 30.99,-119.28 45.1,-311.9 122.77,-321.99zm4.13 544.4c-0.25,2.55 -0.51,4.84 -0.79,6.79l-0.08 0.63 -12.83 3.64 -0.17 11.98c4.42,0 7.94,-0.05 10.79,-0.15 -7.19,49.64 -16.64,107.1 -25.26,166.74 -17.39,-9.78 -38.79,-16.62 -60.51,-16.62l48.67 26.31c4.08,2.25 6.96,3.63 9.73,5.08 -15.84,112.12 -27.88,230.19 -15.99,317.19 12.88,-15.48 17.17,-26.98 18.73,-41.26 14.72,-2.62 6.38,-9.71 5.51,-11.56 -1.98,-0.7 -3.52,-0.71 -4.74,-0.32 0.3,-9.03 0.22,-19.48 0.78,-32.52 1.08,-24.75 3.14,-48.48 6.4,-72.63 6.57,-48.83 7.76,-96.08 13.5,-144.12 18.85,9.22 13,-4.08 20.27,34.26 4,21.04 -3.78,9.73 9.62,19.54 0,-19.89 2.82,-17.27 4.16,-33.32 7.05,-8.11 -2.6,4.41 5.77,-6.73 3.51,-4.66 4.24,-6.22 6.73,-9.93 9.88,-2.04 24.87,-15.29 24.89,50.31 0.01,30.32 -22.05,20.67 -37.39,49.66 20.03,-1.66 35.28,-19.95 54.15,-24.99 4.37,6.52 5.61,7.13 10.61,14.38l10.22 14.78 2.93 8.33c8.46,9.81 13.72,16.68 12.6,32.5 -1.5,21.17 -1,14.43 6.17,37.41l10.26 40.12c1.23,10.02 1.06,13.55 -2.46,19.89 -7.35,13.21 0.94,0.29 -12.83,11.71 48.46,0 8.09,25.78 51.23,49.99 1.63,5.31 -7.27,4.16 7.08,4.16 -3.6,15.49 -7.91,18.71 -8.33,37.5 -9.03,6.04 -34,25.47 -55.99,18.63 -14.22,-4.41 -5.89,-9.07 -31.42,-10.37 -21.03,-1.06 -20.38,-0.1 -37.56,-4.1l-8.33 -4.16 -2.29 -8.96 -1.87 13.12 -8.33 0c-8.95,-0.2 -16.09,-2.51 -18.67,-2.75 -5.49,-0.52 -2.03,-1.3 -9.92,-0.26 -9.45,1.24 -3.6,-0.36 -8.91,3.01l-4.16 0 -8.33 -4.16 -4.17 0 -58.32 -4.17 -4.16 0c-22.36,-5.21 -49.14,-23.08 -56.18,-24.98l-12.62 -0.01c-10.74,0.38 -12.46,-20.52 -25.76,-34.58 -1.82,-1.91 -3.51,-3.65 -5.13,-5.24l-9.67 -343.77c0.07,-5.22 0.28,-10.67 0.61,-16.32l21.27 0c0,16.85 4.82,39.31 17.9,48.75 3.67,12.25 7.67,16.71 11.86,29.8 6.6,20.61 -1.88,17.75 16.06,29.76 -0.94,-11.25 -1.95,-11.33 -4.17,-20.83 11.25,-0.93 11.34,-1.95 20.83,-4.16l0 -8.34c-9.49,2.22 -9.58,3.23 -20.83,4.17 -2.85,-12.25 -2.27,-7.1 -3.76,-21.14 -0.44,-4.19 -0.06,-7.65 -1.11,-11.61 -2.97,-11.22 1.23,-1.71 -4.7,-8.91 2.62,-14.1 2.01,-5.34 -2.92,-8.33 -3.69,9.88 2.49,5.46 -8.33,8.33 2.7,-10.17 -1.85,-5.63 8.33,-8.33l0 -2.92c-2.05,-10.06 -3.1,-16.95 -5.73,-28.86 -0.13,-0.59 -3.67,-12.64 -3.77,-12.87l-7.17 -13.67c9.28,-6.21 11.54,-8.59 19.08,-18.41 14.78,-19.26 16.74,-9.14 28.11,-26.05 14.61,-21.72 2.22,-9.6 24.01,-21.89 7.06,-3.99 2.92,-1.22 7.95,-5.71l8.33 1.25c15.67,-4.19 6.01,-4.58 23.42,-9.91 13.28,-4.07 15.06,-1.23 26.57,-6.76l12.5 0 -4.17 -8.33 0 -8.33c-13.68,3.66 -6.94,7.47 -20.82,12.5l12.49 -45.82 8.33 -8.33c27.71,31.88 16.72,20.96 22.2,35.27zm-4.33 204.29c0.41,-2.95 0.85,-5.9 1.31,-8.85 9.39,-60.56 19.76,-119.05 30.04,-177.33l9.1 9.1 8.33 0 12.5 0c2.37,-8.89 3.61,-8.72 3.65,-8.83 4.99,-15.27 -1.26,-18.22 4.68,-24.49 16.07,-8.51 24.15,-6.1 37.49,-12.5l16.67 0 8.12 4.79c-3.27,-17.39 -5.85,-11.31 15.81,-26.57 5.73,-4.03 5.36,-3.87 9.39,-7.38 34.74,25.45 1.49,-1.45 35.92,9.43 20.03,6.33 22.33,14.86 43.23,19.73l0 4.16 4.86 -3.47 -4.86 -0.69c-12.15,-18.14 -20.71,-14.83 -33.3,-37.52l-12.41 -25.7c-7.44,-18.48 -6.21,-8.94 4.05,-24.26 -16.25,-7.8 -13.41,-3.34 -24.99,-16.66 2.01,24.17 7.09,18.18 -4.17,41.65l-4.16 8.34c-19.04,1.58 -17.44,2.94 -26.96,14.7 -7.89,9.76 -12.82,13.75 -18.87,22.79l-8.33 4.16c-7.69,3.69 -3.86,2.74 -15.12,5.27 -2.7,0.61 -7.82,1.05 -8.26,1.16 -4.92,1.22 -1.09,-1.36 -6.51,2.38 -7.05,4.86 -22.28,33.26 -42.83,23.21 5.87,-33.33 11.67,-66.64 17.19,-100.29 16.61,-101.13 35.15,-201.82 52.04,-302.48 12.57,-74.96 21.68,-229.9 107.98,-244.43 41.81,51.31 35.67,324.94 43.36,409.45 7.66,84.1 15.53,170.21 22.85,255.72l-8.24 0c2.22,9.5 3.21,9.58 4.17,20.83l-12.5 0 0 16.66 16.02 -13.21c2.07,6.86 2.15,9.26 3.49,10.44 1,11.87 1.98,23.72 2.95,35.54 -2.62,2.62 -5.68,5.77 -9.24,9.6 -14.8,15.94 -27.08,10.44 -50.71,15.95 0.93,0.59 2.48,0.1 3.01,1.34 0.53,1.25 2.33,1.03 3.09,1.2 25.26,5.48 28.07,-5.86 55.59,-6.68 1.51,18.77 2.99,37.47 4.41,56.06 19.5,254.65 83.92,531.05 96.04,782.7 -130.89,-9.08 -189.19,-120.39 -303.1,-52.89 -64.02,37.94 -186.28,141.81 -256.12,137.34l-12.87 -457.29c12.62,-3.36 10.2,-6.35 26.71,-7.72l4.17 0 8.33 8.33 4.16 4.16c10.34,14.1 0.74,3.67 16.49,8.53 31.62,9.75 8.39,13.51 42.87,20.07 25.34,4.82 28.55,8.33 38.68,22.87 0.01,0.02 3.15,7.7 11.52,8.99 21.08,3.23 4.07,2.59 11.25,-2.14l16.66 4.17 -16.66 -4.17c2.32,0 6.8,-0.08 8.05,0.28 7.54,2.17 4.45,1.15 8.61,3.89l-8.33 12.49c13.29,1.46 4.81,-2.05 23.16,14.33 0.91,0.81 3.55,3.08 4.41,3.93 14.6,14.46 -3.12,8.13 14.09,15.07l4.16 0 -4.8 24.86c12.97,-3.16 8.68,0.74 11.73,-8.94 0.06,-0.19 1.27,-13.99 1.4,-20.09l8.33 0c15.45,5.12 5.83,-5.13 0,16.67 10.96,-2.56 12.25,-3.79 20.83,-8.33 2.57,11 2.67,8.51 7.37,17.62 3.96,7.7 5.88,12.75 9.29,19.87 -16.28,1.35 -12.65,-2.53 -16.66,12.49 20.28,9.73 24.87,-1.53 37.49,-12.49l8.33 -4.17 4.17 0 4.17 0c5.42,3.37 0,0.6 7.9,2 21.28,3.77 11.65,-0.64 30.37,18.01l14.19 15.01c0.38,0.48 1.12,1.65 1.69,2.47 -2.29,9.81 -3.88,12.3 -4.17,25l8.33 0c12.43,9.1 8.89,14.52 25.07,24.92 11.5,7.39 21.98,13.35 33.25,20.9l4.17 4.16c6.51,9.73 12.53,21.3 11.89,37.31 -0.63,15.66 -8.51,23.57 13.1,29.34l-12.49 -79.14 -4.17 -8.34c-3.68,9.88 2.5,5.46 -8.33,8.34 2.7,-10.18 -1.85,-5.64 8.33,-8.34l-4.17 -4.16c-6.71,-14 -1.9,-3 -2.89,-15.81 -0.09,-1.22 -0.03,-4.78 -0.12,-5.86 -0.68,-8.47 2.49,-1.23 -1.15,-7.49 1.02,-0.94 3.11,-3.6 3.33,-4.17 0.12,-0.3 0.58,-1.78 0.69,-2.09 0.09,-0.28 0.11,-1.38 0.17,-2.07 16.22,-2.56 6.49,0.19 20.03,-5.26 1.27,-0.5 4.52,-2.02 5.6,-2.57 8.63,-4.37 3.7,-1.91 7.67,-4.67l8.96 -2.29 -8.96 2.29c-2.24,0 -16.4,-0.7 -16.98,-0.63 -23.77,2.8 -8.81,-2.43 -16.35,8.94l-4.16 -4.14 -4.17 0c-7.07,-2.92 -24.16,0 -41.65,0 -4.4,-9.17 -3.72,-14.41 -10.26,-23.07 -4.43,-5.86 -12.35,-11.05 -18.9,-18.59l0 -8.33 -7.22 -34.94c-2.06,-6.47 -2.23,-5.23 -3.7,-8.2 -23.9,-48.56 30.39,-70.25 19.25,-94.33l4.16 -4.16c8.62,-9.91 4.89,-12.13 14.31,-19.4 4.79,-3.7 6.62,-3.59 10.35,-4.18 9.35,-1.5 19.08,4.33 32.29,4.69 15.69,0.42 10.83,0.93 26.37,2.22 -5.89,-8.03 -1.28,-0.49 -5.94,-6.55 -4.97,-6.47 -3.31,-1.14 -6.56,-10.11l-41.66 -12.5c-22.01,-5.87 -4.27,-10.42 -29.16,-12.49l-4.16 1.24c-5.33,-22.87 -22.94,-32.84 -24.97,-59.01 -2.5,-32.3 -6.26,-44.49 -12.52,-71.37 9.25,0.77 11.15,0.19 16.48,4.35 10.44,8.13 6.53,26.2 29.34,41.47 -3.25,-12.16 -4.62,-10.29 -11.23,-22.24 -1.71,-3.1 -5.08,-9.69 -5.49,-10.94 -4.59,-13.99 -0.58,-5.83 -1.22,-10.6 -3.43,-25.79 -15.39,2.43 -15.39,-47.86 28.09,7.5 3.84,15.19 20.83,20.83l-9.57 -29.16 4.16 -8.33 6.66 -4.17c12.6,0 4.22,1.09 5.84,-4.16l13.74 0c2.61,-5.44 3.2,-7.9 6.27,-14.56 6.88,-14.95 1.85,1.79 6.23,-14.6 -4.58,2.19 -4.9,1.01 -8.89,3.6 -6.76,4.37 -2.59,1.68 -6.73,5.77 -6.26,6.19 2.6,6.72 -17.71,11.46 -9.36,-6.86 -22.61,-29.92 -28.05,-42.84 -12.94,-30.73 -8.23,-25.73 7.22,-48.81 -0.57,-0.83 -1.37,-3.18 -1.58,-2.58l-10.78 -22.57c-3.4,-6.99 -10.57,-24.85 -17.88,-17.08 -13.75,14.61 12.11,2.06 7.44,20.15 -3.29,12.73 -5.53,1.55 -8.38,-0.1 -14.97,-8.61 12.15,-4.05 -14.64,-6.98 5.97,22.36 12.86,7.85 15.42,29.16l-7.76 7.76 7.76 0.57c11.88,13.32 8.62,23.77 13.6,41.81 4.86,17.6 15.5,26.31 8.47,41.51l-4.16 8.33c-11.57,7.74 -3.71,5.02 -17.91,8.33 1.64,-5.48 2.72,-4.17 -2.92,-4.17l0 -4.16 -4.17 -4.17c-15.6,-23.3 -49.59,-33.85 -36.68,-94.27 3.03,-14.16 5.02,-13.68 19.26,-23.15l-19.93 1.41c9.59,-13.9 6.8,-4.02 16.53,-17.29 -33.31,7.76 -16.53,2.59 -32.57,-21.58 -12.3,-18.54 -17.52,-20.08 -46.58,-20.08 11.14,7.75 18.73,4.42 27.2,18.82 3.29,5.59 2.2,8.31 6.59,14.98 6.89,10.48 3.72,12.04 7.86,-0.47 6.33,7.27 5.66,5.17 8.34,16.66l-17.45 11.72c-7.43,6.34 -7.83,7.89 -15.88,13.27l-4.16 0c-12.05,-2.8 -20.03,-6.02 -27.96,-10.37zm284.32 -107.38l0.97 11.92c-2.21,-4.12 -1.31,-3.58 -3.23,-10.8 0.81,-0.43 1.55,-0.8 2.26,-1.12zm-470.61 476.84l-1.3 -46.45c2.41,27.99 2.27,16.45 11.43,28.95 -3.63,13.59 -4.28,9.88 -10.13,17.5zm326.72 -254.94l4.16 -8.33c8.09,-2.15 6.45,-0.77 12.5,-4.17 -1.41,16.98 -2.14,16.95 -16.66,20.83l0 -8.33zm-8.33 -245.78l1.24 -1.24c-0.08,0.08 -1.66,0.83 -1.24,1.24zm-37.49 770.65l1.24 -1.24c-0.08,0.08 -1.66,0.82 -1.24,1.24zm0 -666.51l1.24 -1.24c-0.08,0.08 -1.66,0.83 -1.24,1.24zm20.82 304.1l1.25 -1.25c-0.09,0.09 -1.66,0.83 -1.25,1.25zm-79.14 45.82l1.24 -1.24c-0.08,0.08 -1.66,0.82 -1.24,1.24zm-116.64 104.14l1.24 -1.24c-0.08,0.08 -1.66,0.83 -1.24,1.24zm74.98 -124.97l4.17 0 -3.48 -4.86 -0.69 4.86c-4.22,-5.58 -4.17,8.76 -4.17,-12.5l-13.38 11.61 17.43 9.45 0.12 -8.56zm0 -41.66c0,10.35 6.66,1.07 2.58,0 -0.05,-0.01 -2.58,-11.81 -2.58,0zm187.45 37.5c0,10.34 6.66,1.06 2.59,0 -0.05,-0.02 -2.59,-11.82 -2.59,0zm0 -54.16c0,10.35 6.66,1.07 2.59,0 -0.05,-0.01 -2.59,-11.82 -2.59,0zm79.15 -449.89c0,10.35 6.66,1.07 2.59,0 -0.05,-0.01 -2.59,-11.82 -2.59,0zm-233.27 524.87c0,10.35 6.66,1.07 2.58,0 -0.05,-0.01 -2.58,-11.81 -2.58,0zm104.14 -404.07c0,10.35 6.66,1.07 2.58,0 -0.05,-0.01 -2.58,-11.81 -2.58,0zm-108.31 441.56c0,10.35 6.66,1.07 2.58,0 -0.05,-0.01 -2.58,-11.81 -2.58,0zm208.28 12.5c0.17,1.38 4.6,0.93 4.97,0.8 1.04,-0.39 7.23,9.64 1.81,-1.12 -0.12,-0.24 -7.77,-7.71 -6.78,0.32zm54.16 -312.42c-2.14,11.58 9.93,-2 4.12,-1.64 -7.79,0.49 -2.53,-6.97 -4.12,1.64zm-83.32 216.61c0,4.9 8.97,9.39 6.45,0 -2.52,-9.41 10.6,-0.11 -1.92,-1.23 -5.25,-0.47 -4.53,-7.24 -4.53,1.23zm-149.96 258.27c4.28,4.28 15.07,-5.99 4.83,-2.25 -0.1,0.04 -11.82,-4.74 -4.83,2.25zm-154.13 -516.54c4.28,4.28 15.07,-5.99 4.83,-2.25 -0.1,0.04 -11.82,-4.74 -4.83,2.25zm337.42 -166.63c4.28,4.28 15.07,-5.99 4.83,-2.24 -0.1,0.03 -11.82,-4.75 -4.83,2.24zm-25 445.73c4.28,4.28 15.07,-6 4.84,-2.25 -0.11,0.04 -11.83,-4.74 -4.84,2.25zm-154.13 224.95c4.28,4.27 15.07,-6 4.84,-2.25 -0.11,0.03 -11.83,-4.75 -4.84,2.25zm174.96 -195.79c0.88,4.75 9.16,9.11 5.61,0.84 -1.5,-3.49 -7.61,-11.66 -5.61,-0.84zm-324.92 -329.09c0.88,4.76 9.16,9.11 5.61,0.84 -1.5,-3.49 -7.61,-11.66 -5.61,-0.84zm237.44 -154.13c8.97,-6.23 5.49,-0.61 8.33,-12.49 -9.2,6.39 -5.17,0.68 -8.33,12.49l-9.16 7.5c11.46,3.67 7.11,-2.7 13.33,9.19 -5.35,15.82 0,11.1 0,33.3l8.33 0c0,-15.57 -2.08,-20.07 -4.17,-33.3 5.14,0.82 4.17,11.11 4.17,-4.19l-12.5 -12.5zm-154.13 487.38c-2.91,-12.17 0.54,-6 -8.33,-12.49 2.74,11.42 -1.69,6.49 8.33,12.49zm-54.15 112.48c-2.91,-12.18 0.54,-6 -8.33,-12.5 2.73,11.42 -1.69,6.49 8.33,12.5zm99.98 -87.48l4.16 0 0 -12.5 -4.16 0 0 12.5zm79.14 58.32l4.53 8.11 -4.53 8.55c-11.29,5.42 -28.89,8.7 -38.18,4.33 -19.25,-9.06 -6.84,-13.91 0.69,-25.16l-20.14 -4.23c-0.46,-0.01 -1.64,0.24 -2.08,0.24l-6.02 0.27c-6.85,-2.17 -7.11,-5.58 -9.25,-8.78 31.25,-14.99 41.61,-0.69 51.83,4.07 0.5,0.23 1.65,0.64 2.16,0.85 0.9,0.38 3.48,1.08 4.41,1.46l16.58 10.29zm-4.16 -641.51c0,-8.47 -0.72,-1.71 4.52,-1.24 12.52,1.12 -0.6,-8.18 1.93,1.24 2.51,9.38 -6.45,4.89 -6.45,0zm-66.65 249.94l-8.33 -4.17c12.13,-5.2 4.82,-7.63 8.33,4.17zm58.32 -62.49c0,20.13 2.22,17.97 8.33,25l0 -37.5c-7.02,4.88 -8.33,0.6 -8.33,12.5zm-124.97 462.39c0,-8.47 -0.72,-1.71 4.52,-1.24 12.52,1.13 -0.6,-8.17 1.93,1.24 2.51,9.39 -6.45,4.9 -6.45,0zm129.13 41.66l16.67 0 0 16.66c-8.36,0.91 -3.11,-0.74 -10.1,2.4l-6.57 5.93 0 -24.99zm-4.16 220.78l-20.72 -12.71c2.81,-12.35 3.55,-31.71 8.22,-41.45 -9.81,-2.28 -12.3,-3.88 -24.99,-4.16 0.37,16.79 2.48,10.69 9.25,36.56 4.33,16.54 6.37,21.27 28.24,21.76zm-54.16 -120.81c2.93,6.7 -1.98,5.11 10.55,11.06 11.06,5.25 -11.62,-3.35 6.12,1.44 -4.93,21.16 -16.2,39.27 12.49,41.65 -9.47,-17.9 1.13,-7.56 -12.49,-12.49 8.62,-12.88 12.46,-9.26 16.66,-25l-20.83 -20.82c-1.23,0.64 -6.07,2.08 -6.76,2.3l-5.74 1.86zm-108.3 -908.11l-4.17 4.16 4.17 -4.16zm0 0l-4.17 4.16 4.17 -4.16zm-4.17 16.66l4.17 -16.66 -4.17 16.66zm245.77 41.66l0 24.99 -4.16 0c0,-22.14 -12.74,-12.61 4.16,-24.99zm-120.8 291.59l1.24 1.25c-0.08,-0.09 -1.65,-0.83 -1.24,-1.25zm-4.17 -33.32l-4.79 -8.12 4.79 8.12zm-4.16 499.88l1.24 1.24c-0.08,-0.08 -1.65,-0.83 -1.24,-1.24zm-49.99 -20.83c14.56,1.21 12.24,0.86 20.83,8.33 -14.56,-1.21 -12.24,-0.87 -20.83,-8.33zm-24.99 -12.5l-4.34 -12.32c-0.17,-1.17 0.17,-10.79 0.17,-12.67l16.66 0c-0.62,28.17 -4.91,6.19 -12.49,24.99zm70.81 -24.99l0 24.99 -4.16 0c0,-22.14 -12.74,-12.61 4.16,-24.99zm-20.82 0c16.9,12.38 4.16,2.85 4.16,24.99l-4.16 0 0 -24.99zm-133.31 -49.99c16.91,12.38 4.17,2.86 4.17,24.99l-4.17 0 0 -24.99z"/>
 </g>
</svg>
