<?xml version="1.0" encoding="UTF-8"?>
<!DOCTYPE svg PUBLIC "-//W3C//DTD SVG 1.1//EN" "http://www.w3.org/Graphics/SVG/1.1/DTD/svg11.dtd">
<!-- Creator: CorelDRAW (Versión de evaluación) -->
<svg xmlns="http://www.w3.org/2000/svg" xml:space="preserve" width="739px" height="2458px" version="1.1" style="shape-rendering:geometricPrecision; text-rendering:geometricPrecision; image-rendering:optimizeQuality; fill-rule:evenodd; clip-rule:evenodd"
viewBox="0 0 739 2457.4"
 xmlns:xlink="http://www.w3.org/1999/xlink"
 xmlns:xodm="http://www.corel.com/coreldraw/odm/2003">
 <defs>
  <style type="text/css">
   <![CDATA[
    .str0 {stroke:#4B4B4D;stroke-width:10;stroke-miterlimit:22.9256}
    .fil0 {fill:#FEFEFE}
   ]]>
  </style>
 </defs>
 <g id="tooth-fissure-root-18">
  <metadata id="CorelCorpID_0Corel-Layer"/>
  <path id="crown" class="fil0 str0" d="M440.25 2368.85c57.06,14.92 100.95,140.99 179.96,63.6 164.76,-161.41 133.66,-641.7 50.53,-871.79 -70.59,-0.52 -68.66,43.19 -163.74,-8.4 -202.49,-109.89 -136.31,12.93 -287.8,73.63 -57.12,22.9 -117.04,25.12 -175.07,7.31 -94.7,254.2 -34.66,732.01 145.02,711.8 54.98,-6.19 51.34,-35.86 92.99,-70.46 66.95,-55.6 166.87,6.41 158.11,94.31 -57.07,-26.21 -83.41,-175.53 -173.24,-28.37 24.73,97.24 120.59,118.74 184.89,82.29l-11.65 -53.92z"/>
  <path id="root" class="fil0 str0" d="M467.56 1490.67c220.64,110.74 245.67,0.12 262.81,-324.94 4.55,-86.42 5.49,-170.87 2.27,-253.86l-21.18 -23.52 -3.1 2.79 -11.15 -12.39 -3.1 2.79 -5.57 -6.19 -3.1 2.79 -13.93 -15.48 -3.1 2.79 -11.15 -12.38 -5.58 -6.19 -9.28 8.36 -2.79 -3.1 6.19 -5.57 -5.57 -6.19 -3.1 2.78 -8.36 -9.28 3.09 -2.79 2.79 3.1 3.1 -2.79 2.78 3.09 6.2 -5.57 -2.79 -3.1 9.28 -8.36 -2.78 -3.1 -3.1 2.79 -2.79 -3.09 -6.19 5.57 -2.78 -3.09 -6.2 5.57 -2.78 -3.09 -6.19 5.57 2.78 3.1 -3.09 2.78 -5.58 -6.19 3.1 -2.78 -5.58 -6.19 -3.09 2.78 -2.79 -3.09 -3.1 2.79 -2.78 -3.1 -6.19 5.57 -2.79 -3.09 -3.1 2.79 -5.57 -6.19 -3.1 2.78 -2.79 -3.09 -3.09 2.79 -2.79 -3.1 -6.19 5.57 -2.79 -3.09 -21.67 19.51 -2.78 -3.09 -6.19 5.57 -2.79 -3.09 21.67 -19.52 2.78 3.1 12.39 -11.15 2.78 3.09 12.39 -11.15 -2.79 -3.09 3.09 -2.79 -5.57 -6.19 3.09 -2.79 -11.15 -12.38 3.1 -2.79 -5.58 -6.19 3.1 -2.79 -2.79 -3.09 3.1 -2.79 2.78 3.1 -3.09 2.78 8.36 9.29 -3.09 2.79 11.15 12.38 -3.1 2.79 2.79 3.09 -3.1 2.79 2.79 3.1 -3.09 2.78 2.78 3.1 -3.09 2.79 5.57 6.19 3.1 -2.79 2.79 3.1 6.19 -5.58 2.78 3.1 9.29 -8.37 2.79 3.1 -3.1 2.79 5.58 6.19 3.09 -2.79 2.79 3.09 3.1 -2.78 2.78 3.09 6.19 -5.57 2.79 3.09 6.19 -5.57 2.79 3.09 6.19 -5.57 2.79 3.09 3.09 -2.78 -2.78 -3.1 6.19 -5.57 -2.79 -3.1 9.29 -8.36 -2.79 -3.1 9.29 -8.36 6.19 -5.58 -2.79 -3.09 3.1 -2.79 -2.79 -3.09 3.09 -2.79 -2.78 -3.1 6.19 -5.57 5.57 6.19 -3.09 2.79 2.78 3.09 -3.09 2.79 2.79 3.09 -3.1 2.79 5.58 6.19 -3.1 2.79 2.79 3.1 -3.1 2.78 2.79 3.1 -3.1 2.79 5.58 6.19 -3.09 2.79 2.78 3.09 -3.09 2.79 5.57 6.19 -3.09 2.79 2.78 3.09 -3.09 2.79 2.79 3.1 3.09 -2.79 2.79 3.09 9.29 -8.36 2.78 3.1 -12.38 11.15 2.79 3.09 -3.1 2.79 2.79 3.09 3.1 -2.78 2.78 3.09 3.1 -2.78 2.79 3.09 9.28 -8.36 2.79 3.09 1.66 -1.49c-2.93,-39.69 -6.88,-79.08 -11.9,-118.22l-1.25 1.13 -2.79 -3.1 3.4 -3.05c-11.1,-84.99 -27.27,-168.85 -49.13,-252.19 -30.78,-117.37 -121.34,-454.09 -220.35,-453.19 -20.72,107.11 160.84,984.67 -43.59,1054.23 -57.09,19.42 -88.47,-25.33 -105.92,-94.87l-1.72 1.55 -2.78 -3.1 -6.19 5.57 2.78 3.1 -6.19 5.58 2.79 3.09 -9.29 8.36 2.79 3.1 -15.48 13.94 -2.78 -3.1 6.19 -5.57 -2.79 -3.1 9.28 -8.36 -2.78 -3.1 6.19 -5.57 -2.79 -3.1 6.19 -5.57 -2.79 -3.1 3.1 -2.79 -2.79 -3.09 6.19 -5.58 -2.78 -3.09 6.19 -5.58 -2.79 -3.09 6.17 -5.56 -0.01 -0.05 -2.76 -3.06 1.88 -1.7c-0.18,-1 -0.35,-2.01 -0.52,-3.02l-1.05 -1.17 0.74 -0.66c-3.04,-18 -5.43,-36.98 -7.32,-56.44l-4.89 -5.44 3.09 -2.79 -2.79 -3.09 3.1 -2.79 0.24 0.26c-1.04,-12.35 -1.9,-24.85 -2.61,-37.36l-1.67 1.49 -2.78 -3.09 -3.1 2.79 -2.79 -3.1 -6.19 5.58 -5.57 -6.19 -3.1 2.78 -2.79 -3.09 9.29 -8.37 2.79 3.1 3.09 -2.79 2.79 3.1 6.19 -5.58 2.79 3.1 0.48 -0.43c-1.65,-32.7 -2.36,-65.29 -2.81,-95.54l-1.42 -1.56 1.38 -1.24 -0.05 -3.52 -3.8 -4.22 3.09 -2.79 -11.15 -12.38 3.1 -2.79 -8.37 -9.29 3.1 -2.78 -13.94 -15.48 3.1 -2.79 -11.15 -12.38 -3.1 2.79 -5.57 -6.19 -3.1 2.78 -2.79 -3.09 -6.19 5.57 -2.79 -3.09 15.48 -13.94 -2.79 -3.1 3.1 -2.78 -8.36 -9.29 3.09 -2.79 -8.36 -9.28 3.09 -2.79 -5.57 -6.19 3.09 -2.79 -2.78 -3.1 3.09 -2.78 -2.79 -3.1 3.1 -2.79 -2.79 -3.09 3.1 -2.79 -2.79 -3.09 6.19 -5.58 -5.57 -6.19 -3.1 2.79 -8.36 -9.29 -3.1 2.79 -11.15 -12.38 -3.09 2.78 -2.79 -3.09 -3.1 2.79 -2.78 -3.1 -3.1 2.79 -2.79 -3.1 -9.28 8.36 -2.79 -3.09 -12.38 11.15 -2.79 -3.1 -12.38 11.15 2.78 3.1 -3.09 2.79 2.79 3.09 -6.19 5.58 2.78 3.09 -34.05 30.67 2.79 3.09 -6.19 5.58 -3.1 2.79 2.79 3.09 -3.09 2.79 5.57 6.19 -3.09 2.79 -7.2 -8c-0.7,3.63 -1.38,7.2 -2.04,10.71l0.26 -0.23 5.57 6.19 -3.09 2.79 -3.63 -4.03c-7.31,38.82 -12.69,70.06 -15.31,89.1 -37.3,271.42 -46.6,584.51 -29.42,861.63 209.46,110.53 258.94,-184.57 428.75,-99.34zm264.24 -598.4c-0.1,-2.2 -0.21,-4.39 -0.32,-6.58l-4.85 -5.4 -3.1 2.79 8.27 9.19zm-438.21 54.96l-0.39 -1.76 -0.66 0.59 1.05 1.17zm-20.01 -277.45l-0.05 -3.7 -1.81 1.63 1.86 2.07zm-0.08 -6.31c-0.29,-22.63 -0.63,-42.86 -1.4,-59.43 -0.35,-7.36 -0.56,-15.33 -0.67,-23.79l-0.98 -1.09 0.96 -0.86c-0.06,-5.4 -0.09,-10.98 -0.07,-16.76l-3.06 2.76 -2.79 -3.1 5.87 -5.29c0.93,-157.38 24.9,-441.57 -43.43,-493.66 -25.07,33.64 -74.95,241.1 -112.68,419.27l0.98 1.08 -1.49 1.34 -0.55 2.62 1.73 1.92 3.09 -2.79 5.58 6.19 3.09 -2.78 8.37 9.28 3.09 -2.78 8.37 9.28 3.09 -2.78 5.57 6.19 3.1 -2.79 2.79 3.09 3.09 -2.78 5.58 6.19 3.09 -2.79 2.79 3.09 3.1 -2.78 5.57 6.19 -3.09 2.79 2.78 3.09 3.1 -2.79 2.79 3.1 3.09 -2.79 5.58 6.19 3.09 -2.78 5.58 6.19 3.1 -2.79 2.78 3.09 6.19 -5.57 2.79 3.09 6.19 -5.57 -2.79 -3.1 3.1 -2.78 2.79 3.09 3.09 -2.79 -2.78 -3.09 9.28 -8.36 -2.79 -3.1 6.2 -5.57 2.78 3.09 9.29 -8.36 -2.79 -3.1 9.29 -8.36 2.79 3.09 -3.1 2.79 2.79 3.1 -6.19 5.57 5.57 6.19 -37.14 33.46 2.78 3.09 6.19 -5.57 5.58 6.19 -6.19 5.57 2.79 3.1 -3.1 2.79 2.79 3.09 -3.1 2.79 2.79 3.09 -9.29 8.37 -3.09 2.78 5.57 6.19 -3.09 2.79 2.79 3.1 -3.1 2.79 5.58 6.19 -3.1 2.78 5.58 6.2 -3.1 2.78 5.57 6.19 -3.09 2.79 5.57 6.19 -3.09 2.79 25.09 27.86 -3.1 2.79 12.63 14.02zm-167.75 -136.47c-4.28,20.81 -8.35,40.96 -12.12,60.03l2.5 -2.25 2.79 3.1 3.09 -2.79 -2.78 -3.1 6.19 -5.57 -2.79 -3.1 6.19 -5.57 -5.58 -6.19 3.1 -2.79 2.79 3.1 6.19 -5.58 -2.79 -3.1 3.1 -2.78 -2.79 -3.1 3.09 -2.79 -2.78 -3.09 3.09 -2.79 -2.79 -3.09 3.1 -2.79 -5.58 -6.19 -3.09 2.79 -2.13 -2.36zm300.18 619.67l3.09 -2.79 2.79 3.1 -3.1 2.79 -2.78 -3.1 -3.1 2.79 -2.79 -3.1 -3.09 2.79 -5.58 -6.19 -3.09 2.79 -5.58 -6.19 -3.09 2.78 -13.94 -15.47 -3.1 2.78 -5.57 -6.19 -3.1 2.79 -2.79 -3.09 -3.09 2.78 -2.79 -3.09 -3.09 2.79 -2.79 -3.1 -3.1 2.79 -2.78 -3.1 -3.1 2.79 -2.79 -3.1 -3.09 2.79 -2.79 -3.09 -3.1 2.78 -5.57 -6.19 -3.1 2.79 -5.57 -6.19 -3.1 2.79 -2.78 -3.1 -3.1 2.79 -2.79 -3.1 -3.09 2.79 -3.1 2.79 -2.79 -3.1 -3.09 2.79 -2.79 -3.09 -3.09 2.78 -2.79 -3.09 -3.1 2.79 -2.79 -3.1 -3.09 2.79 -2.79 -3.1 -3.1 2.79 2.79 3.09 -9.28 8.37 -2.79 -3.1 9.28 -8.36 -5.57 -6.19 -3.09 2.79 -2.79 -3.1 -3.1 2.79 -11.15 -12.38 -27.86 25.08 -2.79 -3.09 -18.57 16.72 -27.86 25.09 -12.38 11.15 2.79 3.1 -12.38 11.15 2.78 3.1 -6.19 5.57 2.79 3.09 -6.19 5.58 2.79 3.1 -18.58 16.72 2.79 3.1 -9.29 8.36 2.79 3.1 -3.09 2.78 2.78 3.1 -6.19 5.57 2.79 3.1 -3.09 2.79 2.78 3.09 -9.28 8.37 2.78 3.09 -9.28 8.36 -2.79 -3.09 6.19 -5.58 -2.79 -3.09 6.19 -5.58 -2.78 -3.09 3.09 -2.79 -2.79 -3.1 3.1 -2.78 -2.79 -3.1 3.1 -2.79 -2.79 -3.09 -3.1 2.78 -5.57 -6.19 6.19 -5.57 5.58 6.19 3.09 -2.79 -2.79 -3.09 12.39 -11.15 -2.79 -3.1 9.29 -8.36 -2.79 -3.1 6.19 -5.57 -2.79 -3.1 6.19 -5.57 -2.79 -3.1 3.1 -2.79 -2.79 -3.09 9.29 -8.37 -2.79 -3.09 6.19 -5.58 -2.79 -3.09 3.1 -2.79 3.1 -2.79 2.78 3.1 3.1 -2.79 -2.79 -3.09 6.19 -5.58 -2.79 -3.09 34.05 -30.67 2.79 3.1 6.19 -5.58 6.19 -5.57 27.86 -25.09 -13.93 -15.48 3.09 -2.79 -5.57 -6.19 3.09 -2.79 -8.36 -9.28 3.09 -2.79 -5.57 -6.19 3.09 -2.79 -2.78 -3.09 3.09 -2.79 -5.57 -6.19 3.09 -2.79 -5.57 -6.19 3.09 -2.79 -8.36 -9.28 3.1 -2.79 -11.16 -12.38 3.1 -2.79 -2.79 -3.1 3.1 -2.78 -2.79 -3.1 3.1 -2.79 8.36 9.29 -3.1 2.79 5.58 6.19 9.29 -8.36 2.78 3.09 6.19 -5.58 5.58 6.2 -6.19 5.57 -2.79 -3.09 -9.29 8.36 5.58 6.19 -3.1 2.79 22.3 24.76 -3.09 2.79 5.57 6.19 -3.09 2.79 -5.58 -6.19 -6.19 5.57 5.58 6.19 6.19 -5.57 2.79 3.09 5.57 6.19 -3.09 2.79 13.93 15.48 -3.09 2.79 11.15 12.38 -6.19 5.57 5.57 6.19 3.1 -2.78 2.79 3.09 3.09 -2.79 2.79 3.1 3.1 -2.79 2.78 3.1 3.1 -2.79 2.78 3.1 3.1 -2.79 5.58 6.19 3.09 -2.79 2.79 3.1 6.19 -5.58 2.79 3.1 3.09 -2.79 2.79 3.1 6.19 -5.58 5.58 6.19 3.09 -2.79 5.58 6.19 3.09 -2.78 2.79 3.09 3.1 -2.78 2.78 3.09 6.19 -5.58 2.79 3.1 9.29 -8.36 2.79 3.09 6.19 -5.57 6.19 -5.58 2.79 3.1 3.09 -2.79 2.79 3.1 9.28 -8.37 2.79 3.1 15.48 -13.94 2.79 3.1 3.09 -2.79 9.29 -8.36 5.57 6.19 -3.09 2.79 5.57 6.19 -6.19 5.57 -2.78 -3.1 -3.1 2.79 -5.58 -6.19 -6.19 5.58 5.58 6.19 3.1 -2.79 13.93 15.48 3.1 -2.79 5.57 6.19 3.1 -2.79 5.57 6.19 3.1 -2.78 2.79 3.09 3.09 -2.78 2.79 3.09 3.1 -2.79 -5.58 -6.19 3.1 -2.79 -2.79 -3.09 3.09 -2.79 -2.78 -3.09 3.09 -2.79 -2.78 -3.1 3.09 -2.78 -11.15 -12.39 3.1 -2.79 -2.79 -3.09 -6.19 5.57 -2.79 -3.09 -6.19 5.58 -8.36 -9.29 18.57 -16.73 2.79 3.1 3.09 -2.79 2.79 3.1 6.19 -5.58 -2.79 -3.09 3.1 -2.79 -2.79 -3.1 3.1 -2.79 -2.79 -3.09 3.09 -2.79 6.2 -5.57 9.28 -8.37 5.58 6.19 3.09 -2.78 2.79 3.09 3.09 -2.79 5.58 6.2 -3.1 2.78 5.58 6.19 3.1 -2.78 2.78 3.09 3.1 -2.79 2.79 3.1 6.19 -5.57 2.78 3.09 15.48 -13.94 2.79 3.1 3.09 -2.79 12.39 -11.15 -2.79 -3.1 6.19 -5.57 5.57 6.19 -3.09 2.79 2.79 3.09 3.09 -2.78 2.79 3.09 3.1 -2.79 2.78 3.1 6.19 -5.58 2.79 3.1 3.1 -2.79 2.79 3.1 6.19 -5.58 2.78 3.1 3.1 -2.79 -2.79 -3.1 3.1 -2.78 -5.58 -6.19 3.1 -2.79 2.79 3.09 6.19 -5.57 2.78 3.09 3.1 -2.78 -2.79 -3.1 9.29 -8.36 -2.79 -3.1 9.29 -8.36 -2.79 -3.09 3.09 -2.79 -2.78 -3.1 6.19 -5.57 -2.79 -3.1 6.19 -5.57 -2.79 -3.1 6.19 -5.58 -2.78 -3.09 3.09 -2.79 2.79 3.1 -3.1 2.78 2.79 3.1 -3.09 2.79 2.78 3.09 -3.09 2.79 2.79 3.1 -3.1 2.78 2.79 3.1 -6.19 5.57 2.79 3.1 -3.1 2.79 5.57 6.19 -3.09 2.79 2.79 3.09 -3.1 2.79 5.58 6.19 -3.1 2.79 5.58 6.19 -3.1 2.79 8.36 9.28 -3.09 2.79 2.79 3.1 -3.1 2.78 8.36 9.29 3.1 -2.79 2.79 3.1 3.09 -2.79 2.79 3.1 -3.1 2.78 2.79 3.1 -9.29 8.36 2.79 3.1 -3.09 2.78 5.57 6.2 -3.09 2.78 -8.37 -9.28 3.1 -2.79 -8.36 -9.29 -3.1 2.79 -8.36 -9.29 -3.1 2.79 -2.78 -3.09 -2.79 -3.1 -3.1 2.79 -2.79 -3.1 -9.28 8.36 -2.79 -3.09 -6.19 5.58 -2.79 -3.1 -3.09 2.79 -5.58 -6.19 -3.09 2.78 -2.79 -3.09 -3.1 2.79 -2.78 -3.1 -3.1 2.79 -2.79 -3.1 -3.09 2.79 -2.79 -3.1 -3.1 2.79 -2.79 -3.09 -6.18 5.57 -2.79 -3.09 -3.1 2.79 -2.79 -3.1 -9.28 8.36 -2.79 -3.09 -6.19 5.57 2.79 3.1 -3.1 2.79 -2.79 -3.1 -3.09 2.79 -5.58 -6.19 -3.09 2.78 -2.79 -3.09 -3.1 2.79 -2.78 -3.1 -3.1 2.79 -2.79 -3.1 -3.09 2.79 -2.79 -3.1 -15.48 13.94 2.79 3.1 -6.19 5.57 2.79 3.1 -3.1 2.79 2.79 3.09 -3.1 2.79 2.79 3.1 -3.09 2.78 5.57 6.19 -3.09 2.79 5.57 6.19 -3.09 2.79 2.78 3.09 -3.09 2.79 2.78 3.1 -3.09 2.78 5.58 6.2 -3.1 2.78 5.58 6.19 -3.1 2.79 2.79 3.1 -6.19 5.57 5.57 6.2 -3.09 2.78 2.78 3.1 -3.09 2.78 5.57 6.2 -3.09 2.78 8.36 9.29 -3.1 2.79 2.79 3.09 -3.09 2.79 2.78 3.1 -6.19 5.57 2.79 3.1 -3.09 2.79 2.78 3.09 -3.09 2.79 2.79 3.09 8.36 9.29 2.79 3.09 3.09 -2.78 2.79 3.09 3.09 -2.78 8.37 9.28 3.09 -2.79 8.37 9.29 -6.2 5.58 -2.78 -3.1 -3.1 2.79 2.79 3.09 -12.38 11.15 -2.79 -3.09 -6.19 5.57 -2.79 -3.09 -6.19 5.57 -2.79 -3.09 -6.19 5.57 -2.79 -3.09 -24.76 22.3 -2.79 -3.1 3.1 -2.79 -2.79 -3.09 27.86 -25.09 -2.79 -3.09 9.29 -8.37 -2.79 -3.09 9.29 -8.37 -5.58 -6.19 -11.15 -12.38 3.1 -2.79 -2.79 -3.09 3.09 -2.79 -5.57 -6.19 3.1 -2.79 -5.58 -6.19 3.1 -2.79 -5.58 -6.19 3.1 -2.79 -5.58 -6.19 3.1 -2.78 -2.79 -3.1 3.09 -2.79 -2.78 -3.09 3.09 -2.79 -5.57 -6.19 3.09 -2.79 -2.79 -3.09 3.1 -2.79 -2.79 -3.1 -3.09 2.79 -2.79 -3.1 -2.79 -3.09 -3.09 2.79 -2.79 -3.1 -3.1 2.79 -5.57 -6.19 -3.1 2.79 -2.78 -3.1 -3.1 2.79 -5.58 -6.19 -3.09 2.79 -5.58 -6.2 -3.09 2.79 -2.79 -3.09 -6.19 5.57 -2.79 -3.09 -3.09 2.78 -2.79 -3.09 -3.1 2.79 -2.78 -3.1 -3.1 2.79 -2.79 -3.1 -3.09 2.79 -2.79 -3.1 -9.29 8.37 -3.09 2.79 5.57 6.19 3.1 -2.79 5.57 6.19 3.1 -2.79 8.36 9.29 3.1 -2.79 2.79 3.1 3.09 -2.79 16.73 18.57zm-289.96 -490.06l3.09 -2.79 2.79 3.1 -3.1 2.79 -2.78 -3.1zm546.25 214.41l3.09 -2.78 2.79 3.09 -3.09 2.79 -2.79 -3.1zm-563.27 -171.06l3.1 -2.78 2.78 3.09 -3.09 2.79 -2.79 -3.1 -3.09 2.79 8.36 9.29 -3.1 2.79 -2.79 -3.1 -3.09 2.79 -2.79 -3.1 -3.09 2.79 -2.79 -3.09 3.09 -2.79 -2.78 -3.1 6.19 -5.57 -2.79 -3.1 3.1 -2.79 5.57 6.19zm294.51 177.65l3.1 -2.79 2.79 3.09 -3.1 2.79 -2.79 -3.09zm97.55 52.29l3.1 -2.78 2.78 3.09 -3.09 2.79 -2.79 -3.1zm-285.57 -292.2l3.1 -2.79 2.79 3.09 -3.1 2.79 -2.79 -3.09zm-131.11 588.95l3.1 -2.78 5.58 6.19 -3.1 2.78 -5.58 -6.19zm560.03 -330.54l3.09 -2.79 5.58 6.2 -3.09 2.78 -5.58 -6.19zm-396.11 -321.59l3.09 -2.79 5.58 6.2 -3.1 2.78 -5.57 -6.19zm-114.21 153.3l3.09 -2.78 5.58 6.19 -3.1 2.78 -5.57 -6.19zm-14.26 -65.63l3.09 -2.79 5.58 6.19 -3.1 2.79 -5.57 -6.19zm472.56 213.5l6.19 -5.57 2.78 3.09 -6.19 5.58 -2.78 -3.1zm-362.24 101.98l6.19 -5.58 2.79 3.1 -6.19 5.57 -2.79 -3.09zm112.63 -235.97l3.1 -2.79 5.57 6.19 6.19 -5.58 2.79 3.1 3.1 -2.79 -8.36 -9.28 -3.1 2.78 -2.79 -3.09 -3.09 2.79 -2.79 -3.1 -6.19 5.57 5.57 6.2zm383.04 64.29l6.19 -5.58 2.79 3.1 -6.2 5.57 -2.78 -3.09zm-65.93 76.18l3.09 -2.78 5.58 6.19 -3.1 2.79 -5.57 -6.2zm-553.39 -247.23l3.1 -2.79 8.36 9.29 -3.09 2.79 -8.37 -9.29zm134.34 -143.4l3.1 -2.78 -2.79 -3.1 3.09 -2.79 5.58 6.19 -6.19 5.58 -2.79 -3.1zm27.88 30.96l6.19 -5.58 2.79 3.1 -3.1 2.79 2.79 3.09 -3.1 2.79 -5.57 -6.19zm-176.62 613.12l3.1 -2.79 -2.79 -3.09 3.09 -2.79 5.58 6.19 -6.19 5.58 -2.79 -3.1zm155.39 -151.15l6.19 -5.57 2.79 3.09 -3.1 2.79 2.79 3.1 -3.1 2.79 -5.57 -6.2zm282.37 -41.26l3.1 -2.79 2.78 3.1 3.1 -2.79 5.57 6.19 -3.09 2.79 -2.79 -3.1 -3.09 2.79 -5.58 -6.19 -3.1 2.79 -2.78 -3.1 -3.1 2.79 -2.79 -3.1 6.2 -5.57 -2.79 -3.1 3.09 -2.78 -5.57 -6.2 -3.1 2.79 -5.57 -6.19 3.09 -2.79 -13.94 -15.47 6.2 -5.58 13.93 15.48 -3.09 2.79 5.57 6.19 3.1 -2.79 5.57 6.19 -3.09 2.79 2.79 3.09 -3.1 2.79 2.79 3.1 -3.1 2.78 2.79 3.1zm-444.08 -250.36l3.09 -2.79 -2.79 -3.09 3.1 -2.79 5.57 6.19 -3.09 2.79 2.79 3.09 -3.1 2.79 -5.57 -6.19zm519.86 -14.09l2.79 3.1 3.09 -2.79 5.58 6.19 -6.19 5.58 -2.79 -3.1 -3.09 2.79 -11.15 -12.38 3.09 -2.79 -2.79 -3.1 3.1 -2.78 8.36 9.28zm57.6 26.61l3.1 -2.78 2.78 3.09 3.1 -2.79 2.79 3.1 3.09 -2.79 2.79 3.1 3.1 -2.79 5.57 6.19 3.1 -2.79 2.78 3.1 3.1 -2.79 2.79 3.1 3.09 -2.79 2.79 3.09 3.1 -2.78 2.78 3.09 -9.28 8.36 -2.79 -3.09 -6.19 5.58 8.36 9.28 -6.19 5.58 -2.79 -3.1 -3.09 2.79 -2.79 -3.1 3.09 -2.79 -5.57 -6.18 -3.1 2.78 -2.78 -3.09 -3.1 2.78 -5.57 -6.19 -3.1 2.79 -2.79 -3.09 -3.09 2.78 -8.37 -9.28 -3.09 2.78 -5.58 -6.19 -3.09 2.79 -11.15 -12.38 -3.1 2.79 -11.15 -12.38 3.1 -2.79 2.78 3.09 3.1 -2.79 8.36 9.29 3.1 -2.79 5.57 6.19 3.1 -2.78 2.79 3.09 3.09 -2.79 2.79 3.1 3.1 -2.79 5.57 6.19zm-544.32 30.51l-3.1 2.79 -2.78 -3.1 -6.2 5.58 -2.78 -3.1 12.38 -11.15 5.57 6.19 3.1 -2.79 2.79 3.1 -3.1 2.79 2.79 3.09 -3.1 2.79 -5.57 -6.19zm436.35 285.35l6.19 -5.58 -5.57 -6.19 -6.19 5.58 5.57 6.19zm-219.57 -144.22l-6.19 5.57 2.79 3.1 3.09 -2.79 2.79 3.1 3.1 -2.79 -5.58 -6.19zm93.82 10.81l-3.09 2.78 -16.73 -18.57 3.1 -2.79 -5.58 -6.19 3.1 -2.79 25.09 27.86 -3.1 2.79 -2.79 -3.09zm204.36 -15.86l3.09 -2.78 -8.36 -9.29 -9.29 8.36 -11.15 -12.38 3.1 -2.79 2.78 3.1 3.1 -2.79 2.79 3.1 3.09 -2.79 2.79 3.09 3.1 -2.78 -5.58 -6.19 3.1 -2.79 -2.79 -3.1 6.19 -5.57 5.58 6.19 -3.1 2.79 2.79 3.09 3.09 -2.79 5.58 6.2 -3.1 2.78 2.79 3.1 -3.1 2.79 8.37 9.28 -9.29 8.36 -5.57 -6.19zm-136.14 346.83l-2.79 -3.09 -3.09 2.78 2.78 3.1 3.1 -2.79zm5.88 0.31l-2.78 -3.1 -3.1 2.79 2.79 3.1 3.09 -2.79zm0 0l2.79 3.09 3.1 -2.78 -2.79 -3.1 -3.1 2.79zm131.54 -202.54l3.09 -2.79 2.79 3.1 3.1 -2.79 -16.73 -18.57 -3.1 2.79 8.37 9.28 -3.1 2.79 5.58 6.19zm-275.92 -138.32l3.09 -2.79 -2.79 -3.09 -3.09 2.78 2.79 3.1zm19.2 27.55l-3.09 2.79 5.57 6.19 3.09 -2.79 -5.57 -6.19zm302.48 -87.41l3.1 -2.78 -2.79 -3.1 6.19 -5.57 -2.78 -3.1 3.09 -2.79 -2.79 -3.09 3.1 -2.79 -2.79 -3.1 3.1 -2.78 -2.79 -3.1 3.09 -2.79 -2.78 -3.09 -9.29 8.36 2.79 3.1 -9.29 8.36 2.79 3.09 -3.1 2.79 11.15 12.38zm-261.88 -589.19c-22.51,-79.35 -9.12,-187.91 -71.1,-162.79 -21.45,59.25 -1.49,387.66 -23.59,508.9 -5.14,28.24 -9.32,59.81 -12.09,92.98l2.02 -1.82 8.36 9.29 -6.19 5.58 2.79 3.09 -3.1 2.79 5.57 6.19 -3.09 2.79 16.72 18.57 6.2 -5.58 -2.79 -3.09 3.09 -2.79 -2.78 -3.09 3.09 -2.79 -5.57 -6.19 -3.1 2.78 -2.79 -3.09 6.19 -5.58 16.73 18.58 -3.1 2.79 2.79 3.09 -3.09 2.79 5.57 6.19 3.1 -2.79 3.09 -2.79 2.79 3.1 6.19 -5.58 2.79 3.1 9.29 -8.36 2.78 3.09 3.1 -2.79 8.36 9.29 3.1 -2.79 2.78 3.1 3.1 -2.79 5.57 6.19 -3.09 2.79 -2.79 -3.1 -9.29 8.37 -8.36 -9.29 -6.19 5.58 -2.79 -3.1 -9.28 8.36 2.78 3.1 -3.09 2.79 5.57 6.19 -3.09 2.78 5.57 6.2 -3.09 2.78 2.79 3.1 -3.1 2.79 2.79 3.09 -3.1 2.79 8.37 9.29 -3.1 2.78 5.58 6.19 -3.1 2.79 8.36 9.29 -3.09 2.79 2.79 3.09 3.09 -2.78 8.36 9.28 3.1 -2.79 2.79 3.1 3.09 -2.79 2.79 3.1 3.09 -2.79 2.79 3.09 -3.09 2.79 8.36 9.29 -3.1 2.79 5.58 6.19 -3.1 2.79 5.58 6.19 -3.1 2.78 5.58 6.19 -3.1 2.79 2.79 3.1 -3.09 2.78 2.78 3.1 -3.09 2.79 -2.79 -3.1 -3.1 2.79 -5.57 -6.19 6.19 -5.58 -2.79 -3.09 3.1 -2.79 -5.58 -6.19 -3.09 2.79 -2.79 -3.1 -3.1 2.79 2.79 3.09 -3.09 2.79 5.57 6.19 -9.28 8.37 -5.58 -6.2 3.1 -2.78 -2.79 -3.1 3.09 -2.78 -2.78 -3.1 3.09 -2.79 -2.79 -3.09 3.1 -2.79 -5.58 -6.19 -3.09 2.79 -2.79 -3.1 -3.1 2.79 -2.78 -3.1 6.19 -5.57 3.1 -2.79 -8.37 -9.29 3.1 -2.79 -13.94 -15.47 3.09 -2.79 -11.15 -12.38 3.1 -2.79 -5.58 -6.19 3.1 -2.79 -8.36 -9.29 3.09 -2.78 -5.57 -6.19 -3.1 2.78 -2.79 -3.09 -3.09 2.79 -5.58 -6.19 -3.09 2.78 -2.79 -3.09 -3.09 2.79 -2.79 -3.1 -6.19 5.58 2.78 3.09 -3.09 2.79 2.79 3.09 2.78 3.1 -3.09 2.79 2.79 3.09 -3.1 2.79 2.79 3.09 -3.1 2.79 2.79 3.1 -3.09 2.79 2.78 3.09 -3.09 2.79 2.78 3.09 -3.09 2.79 2.79 3.1 -3.1 2.79 2.79 3.09 -3.1 2.79 5.58 6.19 -3.1 2.79 5.58 6.19 -3.1 2.79 11.15 12.38 -3.09 2.78 2.79 3.1 3.09 -2.79 22.3 24.77 3.1 -2.79 5.57 6.19 3.1 -2.79 2.79 3.1 6.18 -5.58 2.79 3.1 6.19 -5.58 2.79 3.1 -9.28 8.36 -2.79 -3.09 -9.29 8.36 2.79 3.09 3.09 -2.78 2.79 3.09 6.19 -5.57 2.79 3.09 3.1 -2.79 2.78 3.1 -6.19 5.58 -2.78 -3.1 -9.29 8.36 2.79 3.1 -3.1 2.79 8.36 9.28 -3.09 2.79 5.57 6.19 -3.09 2.79 2.79 3.09 -3.1 2.79 2.79 3.1 -3.1 2.78 2.79 3.1 -3.1 2.79 2.79 3.09 -3.09 2.79 2.78 3.1 -21.66 19.51 -2.79 -3.1 9.28 -8.36 -2.78 -3.09 6.19 -5.58 -2.79 -3.1 3.1 -2.78 -2.79 -3.1 3.09 -2.79 -8.36 -9.28 3.1 -2.79 -5.58 -6.19 3.1 -2.79 -2.79 -3.09 3.09 -2.79 5.58 6.19 3.09 -2.79 -5.57 -6.19 3.1 -2.79 -5.58 -6.19 -6.19 5.58 -5.58 -6.19 -6.19 5.57 -2.78 -3.09 -3.1 2.78 -2.79 -3.09 -3.09 2.79 -2.79 -3.1 -3.1 2.79 -2.78 -3.1 -3.1 2.79 -3.09 2.79 -6.2 5.57 2.79 3.1 -3.92 3.53c8.68,43.52 22.1,82.22 41.43,111.35 61.76,7.73 96.12,-46.54 110.48,-119.22l-0.29 0.27 -5.58 -6.19 3.09 -2.79 3.68 4.08c12.21,-66.31 8.23,-146.88 -6.5,-209.63l-48.84 -455.23zm-110.32 505.81l-0.07 3.8 1.93 -1.74 -1.86 -2.06zm-0.12 6.09c-0.02,1.13 -0.03,2.26 -0.04,3.4l1.71 -1.55 -1.67 -1.85zm-0.08 6.14l-0.02 2.91 1.46 -1.31 -1.44 -1.6zm-0.04 6.17c-0.06,14.85 0.2,29.72 0.82,44.49l0.99 1.1 6.19 -5.58 -2.79 -3.09 3.1 -2.79 -2.79 -3.1 3.1 -2.78 -2.79 -3.1 3.09 -2.79 -5.57 -6.19 3.1 -2.79 -5.58 -6.19 3.1 -2.78 -3.97 -4.41zm1.75 62.46c1.2,19.25 3.05,38.23 5.61,56.61l2.52 -2.27 5.58 6.19 3.09 -2.79 2.79 3.1 3.09 -2.79 2.79 3.1 6.19 -5.58 2.79 3.1 6.19 -5.58 -5.57 -6.19 3.09 -2.79 -22.3 -24.76 3.1 -2.79 -16.73 -18.57 -2.23 2.01z"/>
 </g>
</svg>
