<?xml version="1.0" encoding="UTF-8"?>
<!DOCTYPE svg PUBLIC "-//W3C//DTD SVG 1.1//EN" "http://www.w3.org/Graphics/SVG/1.1/DTD/svg11.dtd">
<!-- Creator: CorelDRAW (Versión de evaluación) -->
<svg xmlns="http://www.w3.org/2000/svg" xml:space="preserve" width="739px" height="2458px" version="1.1" style="shape-rendering:geometricPrecision; text-rendering:geometricPrecision; image-rendering:optimizeQuality; fill-rule:evenodd; clip-rule:evenodd"
viewBox="0 0 739 2457.4"
 xmlns:xlink="http://www.w3.org/1999/xlink"
 xmlns:xodm="http://www.corel.com/coreldraw/odm/2003">
 <defs>
  <style type="text/css">
   <![CDATA[
    .str0 {stroke:#373435;stroke-width:10;stroke-miterlimit:22.9256}
    .fil0 {fill:#FEFEFE}
   ]]>
  </style>
 </defs>
 <g id="tooth-fissure-root-34">
  <metadata id="CorelCorpID_0Corel-Layer"/>
  <path id="root" class="fil0 str0" d="M651.79 753.58c-31.2,133.85 -68.71,247.78 -91.46,390.91 -24.91,156.79 -6.45,314.78 -27.58,456.63 -26.62,178.61 -40.54,146.16 -65.67,413.26 -24.4,259.25 40.89,372.97 -32.9,443.02 -104.34,-30.92 -273.63,-346.71 -297.03,-459.33 -65,-312.87 -78.77,-892.67 -59.85,-1200.35 124.11,-12.85 150.52,78.33 244.94,125.37 54.74,27.26 106.42,28.52 151.65,-12.66 29.29,-26.69 18.93,-21.71 40.37,-50.74 38.39,-51.99 65.28,-97.02 137.53,-106.11zm-107.27 664.28c-0.18,10.58 -0.38,21.12 -0.64,31.6l-13.56 -10.94 -2.61 3.24 -6.49 -5.23 -3.24 -2.61 5.23 -6.49 -6.48 -5.23 -5.23 6.48 6.48 5.24 -2.62 3.24 -6.48 -5.23 -2.62 3.24 -25.93 -20.93 -2.62 3.25 -6.48 -5.24 -7.85 9.73 3.24 2.62 -5.23 6.48 -6.48 -5.23 5.23 -6.49 -3.24 -2.61 7.84 -9.73 -6.48 -5.23 -2.61 3.24 -9.73 -7.85 2.61 -3.24 3.25 2.62 2.61 -3.24 3.24 2.61 2.62 -3.24 12.97 10.46 2.61 -3.24 9.73 7.85 2.62 -3.24 6.48 5.23 2.62 -3.24 6.48 5.23 2.62 -3.24 3.24 2.61 2.61 -3.24 6.49 5.23 2.61 -3.24 9.73 7.85 2.61 -3.25 6.49 5.23 2.61 -3.24 1.75 1.41zm-22.65 249.35c-2.51,13.68 -4.9,25.81 -7.23,36.99l-3.62 -2.93 -2.62 3.24 -6.48 -5.23 2.61 -3.24 -3.24 -2.62 2.62 -3.24 -6.49 -5.23 7.85 -9.72 5.23 -6.49 2.62 -3.24 3.24 2.62 2.62 -3.25 2.89 2.34zm-14.85 72.19l-1.28 5.78 -2.05 -1.65 3.33 -4.13zm-2.03 9.15c-0.68,3.04 -1.34,6.07 -2.01,9.12l-3.27 4.06 2.03 1.64c-1.29,5.96 -2.57,12.01 -3.85,18.3l-2.16 -1.74 2.62 -3.24 -3.25 -2.62 2.62 -3.24 -3.24 -2.62 -2.62 3.24 -6.48 -5.23 5.23 -6.48 3.24 2.61 10.46 -12.96 0.68 -0.84zm-7.69 36.07c-0.42,2.06 -0.83,4.15 -1.25,6.27l-2.31 -1.86 3.56 -4.41zm-1.74 8.78l-0.4 2.12 -0.79 -0.63 1.19 -1.49zm-1.64 8.67l-0.51 2.75 -1.03 -0.83 1.54 -1.92zm-1.35 7.42c-2.27,12.64 -4.56,26.61 -6.91,42.6l-6.47 -5.22 -2.62 3.24 -6.48 -5.23 -2.62 3.24 -3.24 -2.61 -2.61 3.24 -6.49 -5.23 -2.62 3.24 -3.24 -2.62 -5.23 6.49 -3.24 -2.62 -2.62 3.24 -3.24 -2.61 -2.61 3.24 -3.25 -2.62 -2.61 3.25 -3.24 -2.62 -2.62 3.24 -3.24 -2.61 2.61 -3.25 3.25 2.62 5.23 -6.49 3.24 2.62 5.23 -6.48 3.24 2.61 5.24 -6.48 3.24 2.61 2.61 -3.24 3.24 2.62 7.85 -9.73 3.24 2.62 7.85 -9.73 3.24 2.62 2.62 -3.24 -3.24 -2.62 5.23 -6.48 -3.24 -2.62 2.61 -3.24 6.48 5.23 2.62 -3.24 2.81 2.26zm-27.17 224.3c-0.07,0.98 -0.16,1.97 -0.23,2.94l-1.09 1.34 0.93 0.75c-0.39,5.13 -0.74,10.19 -1.06,15.21l-4.47 -3.61 -2.62 3.24 -3.24 -2.62 -5.23 6.49 -3.24 -2.62 -5.23 6.48 -3.25 -2.61 -7.84 9.73 -3.24 -2.62 -2.62 3.24 -6.49 -5.23 2.62 -3.24 3.24 2.61 2.62 -3.24 3.24 2.62 10.46 -12.97 3.25 2.61 2.61 -3.24 3.24 2.62 7.85 -9.73 -6.48 -5.23 2.61 -3.24 -9.72 -7.85 2.61 -3.24 -16.21 -13.08 2.62 -3.24 -3.25 -2.62 2.62 -3.24 -6.48 -5.23 2.61 -3.24 -32.42 -26.16 -2.61 3.24 -3.25 -2.61 -5.23 6.48 -3.24 -2.61 -5.23 6.48 -3.24 -2.62 -5.23 6.49 -3.25 -2.62 -2.61 3.24 -3.24 -2.61 -2.62 3.24 -3.24 -2.62 -5.23 6.49 -3.25 -2.62 -13.07 16.21 3.24 2.62 -5.23 6.48 3.24 2.62 -2.62 3.24 -3.24 -2.61 -7.85 9.72 6.49 5.23 -2.62 3.25 3.24 2.61 -2.61 3.24 -6.48 -5.23 2.61 -3.24 -3.24 -2.62 2.61 -3.24 -9.72 -7.85 -2.62 3.25 -6.48 -5.24 -2.62 3.25 -6.48 -5.23 -2.62 3.24 -3.24 -2.62 -2.61 3.24 -9.73 -7.84 -2.62 3.24 -9.72 -7.85 5.23 -6.48 16.21 13.08 2.61 -3.25 6.49 5.24 2.61 -3.25 6.49 5.23 5.23 -6.48 3.24 2.62 2.62 -3.25 3.24 2.62 2.62 -3.24 3.24 2.61 5.23 -6.48 -3.24 -2.62 18.31 -22.69 3.24 2.62 7.84 -9.73 3.25 2.62 2.61 -3.25 -9.72 -7.84 -5.23 6.48 -6.49 -5.23 -7.85 9.72 -3.24 -2.61 2.62 -3.24 -3.24 -2.62 7.84 -9.72 -3.24 -2.62 7.85 -9.73 -3.24 -2.61 2.61 -3.24 -3.24 -2.62 2.62 -3.24 -3.25 -2.62 -2.61 3.24 -3.24 -2.61 -10.47 12.97 -3.24 -2.62 7.85 -9.72 -3.24 -2.62 2.61 -3.24 -3.24 -2.62 -2.61 3.24 -3.25 -2.61 -2.61 3.24 -6.49 -5.23 -2.61 3.24 -3.24 -2.61 -2.62 3.24 -6.49 -5.23 -2.61 3.24 -3.24 -2.62 -2.62 3.24 -3.24 -2.61 -2.62 3.24 -6.48 -5.23 -2.62 3.24 -3.24 -2.61 -2.61 3.24 -3.25 -2.62 -2.61 3.24 -6.48 -5.23 5.23 -6.48 3.24 2.61 2.61 -3.24 3.25 2.62 2.61 -3.25 3.24 2.62 5.23 -6.48 7.85 -9.73 3.24 2.62 7.85 -9.73 3.24 2.62 5.24 -6.49 3.24 2.62 2.61 -3.24 -3.24 -2.62 5.23 -6.48 -3.24 -2.62 5.23 -6.48 -3.24 -2.62 5.23 -6.48 -3.24 -2.62 2.61 -3.24 -3.24 -2.62 2.62 -3.24 -6.49 -5.23 -2.61 3.24 -3.24 -2.61 7.84 -9.73 -3.24 -2.62 5.23 -6.48 -3.24 -2.62 2.62 -3.24 -6.49 -5.23 -2.61 3.24 -3.25 -2.61 -2.61 3.24 -3.24 -2.62 -2.62 3.25 -3.24 -2.62 -2.62 3.24 -12.96 -10.46 -2.62 3.24 -9.73 -7.85 -2.61 3.25 -3.24 -2.62 2.61 -3.24 3.24 2.61 2.62 -3.24 6.48 5.23 2.62 -3.24 12.97 10.46 2.61 -3.24 6.49 5.23 2.61 -3.24 3.24 2.62 10.47 -12.97 -3.24 -2.62 10.46 -12.96 -3.24 -2.62 18.31 -22.69 3.24 2.61 -5.23 6.49 3.24 2.61 -18.31 22.69 3.24 2.62 -5.23 6.48 3.24 2.62 -2.61 3.24 3.24 2.62 -2.62 3.24 6.49 5.23 -2.62 3.24 3.24 2.62 -5.23 6.48 3.24 2.62 -2.61 3.24 3.24 2.62 -2.62 3.24 6.49 5.23 2.61 -3.24 6.49 5.23 -2.62 3.24 -3.24 -2.61 -5.23 6.48 3.24 2.62 -5.23 6.48 3.24 2.62 -5.23 6.48 3.24 2.62 -2.61 3.24 3.24 2.61 7.84 -9.72 3.25 2.61 5.23 -6.48 -3.24 -2.62 2.61 -3.24 -3.24 -2.62 2.62 -3.24 9.72 7.85 -2.61 3.24 6.48 5.23 5.23 -6.48 3.24 2.62 -7.84 9.72 6.48 5.23 12.97 10.46 -2.62 3.25 16.21 13.08 -2.61 3.24 6.48 5.23 -2.61 3.24 12.96 10.46 -2.61 3.25 38.9 31.39 -2.61 3.24 3.24 2.61 -2.62 3.25 6.49 5.23 -2.62 3.24 6.49 5.23 -2.62 3.24 9.73 7.85 -2.62 3.24 16.21 13.08 -2.62 3.24 9.73 7.85 -2.61 3.24 5.18 4.19zm-284.68 83.5c-1.96,-4.28 -3.88,-8.54 -5.74,-12.73l3.22 2.59 23.54 -29.18 -3.24 -2.61 5.23 -6.49 -6.49 -5.23 2.62 -3.24 -3.24 -2.61 2.61 -3.25 -3.24 -2.61 2.62 -3.24 -6.49 -5.24 2.62 -3.24 -3.24 -2.61 2.61 -3.25 -6.48 -5.23 2.61 -3.24 -3.24 -2.62 5.23 -6.48 -3.24 -2.61 2.62 -3.25 -3.24 -2.61 2.61 -3.24 -3.24 -2.62 2.61 -3.24 -3.24 -2.62 7.85 -9.72 -3.24 -2.62 5.23 -6.48 -3.24 -2.62 13.07 -16.21 3.25 2.62 -2.62 3.24 3.24 2.61 -5.23 6.49 3.24 2.61 -2.61 3.25 3.24 2.61 -5.23 6.49 3.24 2.61 -2.61 3.24 3.24 2.62 -5.23 6.48 3.24 2.62 -2.62 3.24 3.24 2.62 -2.61 3.24 6.48 5.23 -2.61 3.24 3.24 2.62 -2.62 3.24 3.25 2.61 -2.62 3.25 12.97 10.46 2.61 -3.24 19.46 15.69 2.61 -3.24 3.24 2.62 2.62 -3.25 3.24 2.62 2.62 -3.24 3.24 2.61 5.23 -6.48 3.24 2.62 2.62 -3.25 3.24 2.62 5.23 -6.49 3.24 2.62 2.62 -3.24 3.24 2.61 2.62 -3.24 3.24 2.62 2.61 -3.24 3.25 2.61 2.61 -3.24 3.24 2.62 2.62 -3.25 3.24 2.62 2.62 -3.24 6.48 5.23 -2.61 3.24 -3.25 -2.62 -2.61 3.25 -3.24 -2.62 -2.62 3.24 -3.24 -2.61 -2.62 3.24 -3.24 -2.62 -2.61 3.25 -3.25 -2.62 -5.23 6.48 -3.24 -2.61 -2.62 3.24 -3.24 -2.61 -5.23 6.48 -3.24 -2.62 -5.23 6.49 -3.25 -2.62 -2.61 3.24 -3.24 -2.61 -5.23 6.48 -3.25 -2.61 -3.24 -2.62 -2.61 3.24 -19.46 -15.69 -2.61 3.24 -3.24 -2.62 -3.25 -2.61 -7.84 9.72 3.24 2.62 -2.62 3.24 6.49 5.23 -2.62 3.25 3.24 2.61 -2.61 3.24 3.24 2.62 -26.16 32.42 -3.24 -2.62 -3.96 4.91zm-101.17 -641.03c-0.27,-5.13 -0.54,-10.26 -0.8,-15.39l0.64 -0.79 9.72 7.84 2.62 -3.24 3.24 2.62 13.08 -16.21 3.24 2.61 -5.23 6.49 3.24 2.61 -2.61 3.24 6.48 5.23 -2.62 3.25 12.97 10.46 2.62 -3.24 16.21 13.07 2.61 -3.24 9.73 7.85 2.62 -3.24 12.96 10.46 2.62 -3.24 6.48 5.23 2.62 -3.24 9.73 7.85 -2.62 3.24 12.97 10.46 2.61 -3.24 9.73 7.85 2.62 -3.25 3.24 2.62 2.61 -3.24 3.24 2.61 2.62 -3.24 6.48 5.23 2.62 -3.24 6.49 5.23 2.61 -3.24 6.48 5.23 2.62 -3.24 3.24 2.61 2.62 -3.24 3.24 2.62 2.62 -3.24 3.24 2.61 5.23 -6.48 -3.24 -2.62 2.61 -3.24 -3.24 -2.61 5.23 -6.49 -3.24 -2.62 5.23 -6.48 -3.24 -2.62 5.23 -6.48 -3.24 -2.61 2.61 -3.25 -3.24 -2.61 7.85 -9.73 3.24 2.62 -2.61 3.24 6.48 5.23 -5.23 6.48 3.24 2.62 -2.62 3.24 3.25 2.62 -2.62 3.24 3.24 2.62 -5.23 6.48 3.24 2.62 -2.61 3.24 6.48 5.23 -2.61 3.24 19.45 15.7 2.61 -3.25 25.94 20.93 2.62 -3.24 6.48 5.23 5.23 -6.48 -3.24 -2.62 5.23 -6.48 -3.24 -2.62 2.62 -3.24 -3.25 -2.62 2.62 -3.24 -6.49 -5.23 2.62 -3.24 -9.73 -7.85 2.62 -3.24 -16.21 -13.08 2.62 -3.24 3.24 2.61 2.61 -3.24 16.21 13.08 2.62 -3.24 16.21 13.08 2.61 -3.25 3.25 2.62 7.84 -9.73 3.25 2.62 5.23 -6.49 3.24 2.62 2.62 -3.24 3.24 2.61 2.61 -3.24 3.25 2.62 5.23 -6.49 3.24 2.62 5.23 -6.49 3.24 2.62 5.23 -6.48 3.25 2.61 2.61 -3.24 3.24 2.62 5.24 -6.49 3.24 2.62 5.23 -6.49 3.24 2.62 7.85 -9.73 3.24 2.62 5.23 -6.48 3.24 2.61 -13.08 16.21 -3.24 -2.61 -7.84 9.72 -3.25 -2.61 -5.23 6.48 -3.24 -2.62 -5.23 6.49 3.24 2.61 -5.23 6.49 -9.73 -7.85 -10.46 12.97 -3.24 -2.62 -2.62 3.24 -6.48 -5.23 -10.46 12.97 -3.25 -2.61 -5.23 6.48 -3.24 -2.62 -5.23 6.49 -2.62 3.24 -2.61 3.24 3.24 2.62 -2.62 3.24 3.25 2.62 -2.62 3.24 3.24 2.61 -2.61 3.25 3.24 2.61 -5.23 6.48 6.48 5.24 -5.23 6.48 6.48 5.23 2.62 -3.24 6.48 5.23 2.62 -3.24 -6.49 -5.23 2.62 -3.24 3.24 2.61 2.62 -3.24 6.48 5.23 2.62 -3.24 9.72 7.85 2.62 -3.25 3.24 2.62 2.62 -3.24 3.24 2.61 5.23 -6.48 3.24 2.62 7.85 -9.73 3.24 2.62 -18.31 22.69 -3.24 -2.62 -2.62 3.25 -3.24 -2.62 -2.61 3.24 -3.25 -2.61 -2.61 3.24 -3.24 -2.62 -2.62 3.24 -3.24 -2.61 -2.62 3.24 -6.48 -5.23 -2.62 3.24 -9.72 -7.85 -2.62 3.25 -3.24 -2.62 -7.85 9.73 3.24 2.61 -5.23 6.49 -3.24 -2.62 2.62 -3.24 -3.25 -2.62 5.24 -6.48 -3.25 -2.62 2.62 -3.24 -3.24 -2.62 -7.85 9.73 3.24 2.62 -7.84 9.72 -3.25 -2.61 5.24 -6.49 -3.25 -2.61 5.23 -6.49 -3.24 -2.61 2.62 -3.24 -6.49 -5.23 2.62 -3.25 -25.94 -20.92 2.62 -3.24 -3.24 -2.62 -2.62 3.24 -12.97 -10.46 -2.61 3.24 -6.49 -5.23 -2.61 3.24 -6.49 -5.23 -2.61 3.24 -3.24 -2.61 -2.62 3.24 -3.24 -2.62 -2.62 3.24 -3.24 -2.61 -2.62 3.24 -3.24 -2.61 -2.61 3.24 -3.25 -2.62 -2.61 3.24 -3.24 -2.61 -2.62 3.24 -3.24 -2.62 -2.62 3.25 -3.24 -2.62 -3.24 -2.61 -2.62 3.24 -3.24 -2.62 -5.23 6.48 3.24 2.62 -2.61 3.24 3.24 2.62 -2.62 3.24 6.49 5.23 -2.62 3.24 3.24 2.62 -2.61 3.24 6.48 5.23 2.62 -3.24 9.72 7.85 2.62 -3.24 6.48 5.23 2.62 -3.25 12.97 10.47 2.61 -3.24 16.21 13.07 2.62 -3.24 9.72 7.85 2.62 -3.24 5.23 -6.49 3.24 2.62 -2.61 3.24 3.24 2.62 -2.62 3.24 6.49 5.23 2.61 -3.24 3.25 2.61 2.61 -3.24 3.24 2.62 2.62 -3.24 3.24 2.61 2.62 -3.24 6.48 5.23 -7.85 9.73 -6.48 -5.23 -2.62 3.24 -3.24 -2.62 -2.61 3.24 3.24 2.62 -2.62 3.24 6.49 5.23 2.61 -3.24 3.25 2.62 5.23 -6.49 6.48 5.23 -2.62 3.25 3.25 2.61 -2.62 3.24 -3.24 -2.61 -2.62 3.24 -3.24 -2.62 -2.61 3.25 -6.49 -5.23 -2.61 3.24 -6.49 -5.23 -2.61 3.24 -6.49 -5.23 -2.61 3.24 -9.73 -7.85 -2.62 3.24 -3.24 -2.61 2.62 -3.24 -3.24 -2.62 2.61 -3.24 -3.24 -2.62 2.62 -3.24 -9.73 -7.85 2.62 -3.24 -3.25 -2.61 -2.61 3.24 -9.73 -7.85 -2.62 3.24 -6.48 -5.23 -2.61 3.24 -9.73 -7.84 -2.62 3.24 -3.24 -2.62 -2.61 3.24 -3.25 -2.61 -2.61 3.24 -6.49 -5.23 -2.61 3.24 -6.49 -5.23 -2.61 3.24 -3.24 -2.61 -7.85 9.72 3.24 2.62 -5.23 6.48 9.73 7.85 -7.85 9.72 3.24 2.62 -2.61 3.24 -6.49 -5.23 2.62 -3.24 -3.24 -2.62 2.61 -3.24 -9.72 -7.85 2.61 -3.24 -3.24 -2.61 7.85 -9.73 -3.25 -2.61 5.24 -6.49 -3.25 -2.61 2.62 -3.25 2.61 -3.24 -6.48 -5.23 -2.62 3.24 -3.24 -2.61 -2.61 3.24 -19.46 -15.7 5.24 -6.48 3.24 2.62 -2.62 3.24 6.49 5.23 2.61 -3.24 3.24 2.61 2.62 -3.24 3.24 2.62 5.23 -6.49 -19.45 -15.69 -2.61 3.24 -6.49 -5.23 -2.61 3.24 -3.25 -2.61 -5.23 6.48 -9.72 -7.85 2.61 -3.24 -3.24 -2.62 -2.62 3.25 -6.48 -5.24 -2.62 3.25 -6.48 -5.23 -2.61 3.24 -6.49 -5.23 -2.62 3.24 -3.24 -2.62 -2.61 3.24 -6.49 -5.23 2.62 -3.24 3.24 2.62 2.62 -3.25 3.24 2.62 2.61 -3.24 3.25 2.61 2.61 -3.24 9.73 7.85 2.61 -3.24 3.25 2.61 2.61 -3.24 9.73 7.85 5.23 -6.49 3.24 2.62 7.85 -9.73 -6.49 -5.23 -2.61 3.24 -12.97 -10.46 -2.62 3.24 -16.21 -13.08 -2.61 3.25 -29.18 -23.54 -2.61 3.24 -6.49 -5.23 -2.62 3.24 -1.71 -1.39zm-5.96 -138.62c-1.11,-33.32 -1.99,-66.5 -2.64,-99.3l2.21 -2.74 6.48 5.23 -7.84 9.73 12.96 10.46 10.47 -12.97 -19.45 -15.69 -2.62 3.24 -2.3 -1.86 -0.04 -1.87 6.95 -8.61 3.24 2.62 5.23 -6.49 3.24 2.62 2.62 -3.24 3.24 2.61 -2.62 3.24 3.24 2.62 5.24 -6.49 3.24 2.62 2.61 -3.24 3.25 2.61 2.61 -3.24 3.24 2.62 7.85 -9.73 3.24 2.62 10.46 -12.97 3.25 2.62 2.61 -3.25 -3.24 -2.61 2.62 -3.25 3.24 2.62 2.61 -3.24 3.25 2.61 2.61 -3.24 3.24 2.62 7.85 -9.73 3.24 2.62 -2.61 3.24 3.24 2.62 15.69 -19.46 3.25 2.62 2.61 -3.24 3.24 2.61 2.62 -3.24 3.24 2.62 2.62 -3.24 3.24 2.61 2.61 -3.24 3.25 2.61 2.61 -3.24 7.85 -9.72 -3.24 -2.62 5.23 -6.48 -3.24 -2.62 5.23 -6.48 3.24 2.61 -2.61 3.24 3.24 2.62 -2.62 3.24 3.24 2.62 -2.61 3.24 9.72 7.85 2.62 -3.25 3.24 2.62 5.23 -6.48 3.24 2.61 -2.61 3.24 12.97 10.47 2.61 -3.25 9.73 7.85 10.46 -12.97 6.49 5.23 2.61 -3.24 3.24 2.62 2.62 -3.24 3.24 2.61 2.62 -3.24 3.24 2.62 2.62 -3.25 3.24 2.62 2.61 -3.24 -3.24 -2.62 20.93 -25.93 -3.25 -2.62 2.62 -3.24 -12.97 -10.46 2.62 -3.25 -25.94 -20.92 2.62 -3.25 -19.46 -15.69 2.62 -3.24 -6.48 -5.23 2.61 -3.24 -6.48 -5.24 2.61 -3.24 -3.24 -2.61 2.62 -3.25 -6.49 -5.23 2.62 -3.24 -6.48 -5.23 2.61 -3.24 -12.97 -10.47 2.62 -3.24 -3.24 -2.61 -7.85 9.72 -3.24 -2.61 -2.62 3.24 -3.24 -2.62 -2.62 3.25 -3.24 -2.62 -2.61 3.24 -3.25 -2.61 -2.61 3.24 -3.24 -2.62 -2.62 3.24 -12.97 -10.46 -2.61 3.24 -3.25 -2.61 -2.61 3.24 -3.24 -2.62 -13.08 16.21 -3.24 -2.61 -5.24 6.48 3.25 2.62 -7.85 9.73 -3.24 -2.62 -2.62 3.24 -3.24 -2.61 -5.23 6.48 -3.24 -2.62 13.07 -16.21 -3.24 -2.61 20.93 -25.94 -3.24 -2.61 2.61 -3.25 -3.24 -2.61 2.62 -3.24 -6.49 -5.23 2.62 -3.25 -3.24 -2.61 2.61 -3.25 -3.24 -2.61 5.23 -6.48 6.49 5.23 -5.24 6.48 3.25 2.62 -2.62 3.24 6.48 5.23 -2.61 3.24 12.97 10.47 2.61 -3.25 6.49 5.23 2.61 -3.24 6.49 5.23 2.61 -3.24 6.49 5.23 5.23 -6.48 3.24 2.61 2.62 -3.24 6.48 5.23 23.54 -29.17 -6.48 -5.24 -2.62 3.25 -3.24 -2.62 2.61 -3.24 -3.24 -2.62 2.62 -3.24 -3.24 -2.62 5.23 -6.48 -3.25 -2.62 7.85 -9.72 -3.24 -2.62 2.62 -3.24 -3.25 -2.61 2.62 -3.25 -3.24 -2.61 2.61 -3.24 -3.24 -2.62 2.62 -3.24 -3.24 -2.62 2.61 -3.24 -3.24 -2.62 5.23 -6.48 -3.24 -2.61 2.61 -3.25 -6.48 -5.23 2.62 -3.24 -6.49 -5.23 5.23 -6.49 -3.24 -2.61 2.62 -3.24 -3.25 -2.62 2.62 -3.24 2.62 -3.24 -3.25 -2.62 1.55 -1.91c3.11,2.73 6.26,5.45 9.47,8.16l-1.29 1.6 3.24 2.61 -5.23 6.49 3.24 2.61 -5.23 6.49 6.49 5.23 -2.62 3.24 6.48 5.23 -2.61 3.24 3.24 2.62 -5.23 6.48 3.24 2.62 -2.62 3.24 3.25 2.62 -2.62 3.24 6.49 5.23 -5.24 6.48 9.73 7.85 -2.62 3.24 3.25 2.62 -2.62 3.24 6.48 5.23 -2.61 3.24 3.24 2.62 -2.62 3.24 3.25 2.62 -7.85 9.72 3.24 2.62 -2.61 3.24 3.24 2.62 -2.62 3.24 3.25 2.62 -5.24 6.48 3.25 2.62 -2.62 3.24 6.48 5.23 -2.61 3.24 3.24 2.62 -2.62 3.24 6.49 5.23 -2.62 3.24 6.49 5.23 -2.62 3.25 3.24 2.61 -2.61 3.24 3.24 2.62 -2.62 3.24 3.25 2.62 3.24 2.61 -2.62 3.25 3.24 2.61 3.25 2.62 6.48 5.23 -2.62 3.24 6.49 5.23 -2.62 3.24 16.21 13.08 2.62 -3.24 6.48 5.23 -2.61 3.24 6.48 5.23 -2.61 3.25 9.72 7.84 -2.62 3.25 9.73 7.84 5.23 -6.48 3.24 2.61 5.24 -6.48 3.24 2.62 5.23 -6.49 3.24 2.62 20.93 -25.94 3.24 2.62 7.85 -9.73 3.24 2.62 5.23 -6.49 -3.24 -2.61 5.23 -6.49 3.24 2.62 2.62 -3.24 -3.24 -2.62 10.46 -12.97 -6.49 -5.23 -2.61 3.24 -3.24 -2.61 2.61 -3.24 3.24 2.61 10.47 -12.97 -9.73 -7.84 2.62 -3.24 3.24 2.61 2.61 -3.24 -3.24 -2.62 5.23 -6.48 6.49 5.23 -2.62 3.24 3.24 2.62 -2.61 3.24 6.48 5.23 -2.61 3.24 -3.25 -2.61 -7.84 9.72 3.24 2.62 -2.62 3.24 3.24 2.62 2.62 -3.25 3.24 2.62 5.24 -6.48 3.24 2.61 -18.31 22.7 3.24 2.61 -7.85 9.73 3.25 2.61 2.61 -3.24 3.24 2.62 -7.85 9.72 -6.48 -5.23 -7.85 9.73 -3.24 -2.62 -10.46 12.97 -3.24 -2.62 -10.47 12.97 -3.24 -2.61 -2.61 3.24 -2.62 3.24 -3.24 -2.61 -2.62 3.24 -3.24 -2.62 -5.23 6.49 -3.24 -2.62 -5.23 6.48 -2.62 3.25 -3.24 -2.62 -20.93 25.94 3.24 2.61 -2.61 3.25 9.72 7.84 -5.23 6.49 -9.72 -7.85 -2.62 3.24 -3.24 -2.62 -2.62 3.25 -3.24 -2.62 -5.23 6.49 -3.24 -2.62 -2.62 3.24 -3.24 -2.61 -2.62 3.24 -3.24 -2.62 -2.61 3.24 -3.25 -2.61 -2.61 3.24 -3.24 -2.62 -2.62 3.25 -3.24 -2.62 -2.62 3.24 -3.24 -2.61 -2.61 3.24 -9.73 -7.85 -2.62 3.24 -6.48 -5.23 -2.62 3.25 -3.24 -2.62 -2.61 3.24 -3.25 -2.61 -2.61 3.24 3.24 2.61 -5.23 6.49 3.24 2.61 -2.61 3.25 -6.49 -5.24 -5.23 6.49 -3.24 -2.62 -7.85 9.73 -3.24 -2.62 -5.23 6.49 -3.24 -2.62 -2.62 3.24 -3.24 -2.61 -7.85 9.72 -3.24 -2.61 -5.23 6.48 -2.62 3.24 -18.31 22.7 -3.24 -2.62 -18.31 22.7 -2.62 3.24 -2.61 3.24 -3.24 -2.62 -2.62 3.25 -2.62 3.24 3.25 2.61 -13.08 16.21 -3.24 -2.61 -10.47 12.97 -5.23 6.48 9.73 7.85 -2.62 3.24 -6.48 -5.23 -2.62 3.24 -3.24 -2.61 -2.62 3.24 -5.23 6.48 -1.74 -1.41zm117.2 -387.15l-2.61 3.24 3.24 2.61 2.61 -3.24 -3.24 -2.61 2.62 -3.24 -3.24 -2.62 -2.62 3.24 3.24 2.62zm212.62 1129.62l-2.62 3.24 3.24 2.62 2.62 -3.24 -3.24 -2.62zm-279.34 -728.5l-2.61 3.25 3.24 2.61 2.62 -3.24 -3.25 -2.62zm243.71 533.83l-2.62 3.24 3.25 2.62 2.61 -3.24 -3.24 -2.62zm-201.34 -553.17l-2.61 3.25 3.24 2.61 2.61 -3.24 -3.24 -2.62 2.62 -3.24 9.72 7.85 2.62 -3.24 -3.24 -2.62 2.61 -3.24 -3.24 -2.62 2.62 -3.24 -3.25 -2.61 -2.61 3.24 -3.24 -2.62 -5.23 6.49 -3.25 -2.62 -2.61 3.24 6.48 5.23zm193.35 284.45l-2.62 3.24 3.24 2.62 2.62 -3.24 -3.24 -2.62zm57.5 94.57l-2.61 3.25 3.24 2.61 2.62 -3.24 -3.25 -2.62zm-307.25 -269.3l-2.62 3.24 3.24 2.61 2.62 -3.24 -3.24 -2.61zm6.22 -246.55l-2.61 3.25 3.24 2.61 2.62 -3.24 -3.25 -2.62zm361.53 -109.75l-2.62 3.25 3.24 2.61 2.62 -3.24 -3.24 -2.62zm-86.47 770.57l-2.61 3.24 6.48 5.24 2.62 -3.24 -6.49 -5.24zm-195.7 -500.45l-2.62 3.25 6.49 5.23 2.61 -3.25 -6.48 -5.23zm-66.31 -10.68l-2.62 3.24 6.48 5.23 2.62 -3.24 -6.48 -5.23zm238.8 460.29l-5.23 6.49 3.24 2.61 5.23 -6.48 -3.24 -2.62zm82.19 -367.23l-5.23 6.48 3.24 2.62 5.23 -6.48 -3.24 -2.62zm-359.42 73.98l-2.62 3.24 6.49 5.23 2.61 -3.24 -6.48 -5.23zm11.86 -193.82l-2.61 3.24 6.48 5.23 2.62 -3.24 -6.49 -5.23zm118.04 245.1l-2.61 3.24 6.48 5.23 -5.23 6.49 3.24 2.61 -2.61 3.25 -9.73 -7.85 2.62 -3.24 -3.25 -2.62 2.62 -3.24 -3.24 -2.62 5.23 -6.48 6.48 5.23zm84.96 378.99l-5.23 6.48 3.24 2.61 5.23 -6.48 -3.24 -2.61zm72.65 -262.54l-2.62 3.25 6.49 5.23 2.61 -3.24 -6.48 -5.24zm-131.01 -726.58l-2.62 3.25 6.49 5.23 2.61 -3.24 -6.48 -5.24zm81.16 38.72l-5.23 6.49 3.24 2.61 5.23 -6.48 -3.24 -2.62zm-33.16 -5.34l-2.61 3.24 6.48 5.24 2.62 -3.25 -6.49 -5.23zm89.64 34.85l-5.23 6.49 3.24 2.61 5.23 -6.48 -3.24 -2.62 7.85 -9.72 -6.49 -5.23 2.62 -3.25 -3.24 -2.61 -2.62 3.24 -3.24 -2.62 -2.62 3.25 3.25 2.61 -2.62 3.24 6.48 5.23 -2.61 3.25 3.24 2.61zm-6.78 850.92l-2.61 3.24 6.48 5.24 2.62 -3.25 -6.49 -5.23zm-276.86 -539.17l-2.62 3.25 9.73 7.84 2.62 -3.24 -9.73 -7.85zm341.41 976.62l-2.62 3.25 3.25 2.61 -2.62 3.24 3.24 2.62 5.23 -6.48 -6.48 -5.24zm-234.02 -360.08l2.62 -3.24 -3.24 -2.62 -5.23 6.49 6.48 5.23 2.62 -3.24 -3.25 -2.62zm-37.39 -238.91l-2.62 3.24 3.25 2.61 -2.62 3.24 3.24 2.62 5.23 -6.48 -6.48 -5.23zm245.73 358.83l-2.61 3.24 -3.25 -2.62 -2.61 3.25 6.48 5.23 5.23 -6.49 -3.24 -2.61zm-15.69 19.45l-7.85 9.73 3.24 2.61 7.85 -9.72 -3.24 -2.62zm-165.24 -1102.1l-2.62 3.24 3.25 2.62 -2.62 3.24 3.24 2.61 5.23 -6.48 -6.48 -5.23zm177.39 52.13l2.62 -3.25 -3.25 -2.61 -5.23 6.48 6.49 5.23 2.61 -3.24 -3.24 -2.61zm44.47 415.9l-5.23 6.48 3.24 2.62 2.62 -3.25 3.24 2.62 2.61 -3.24 -6.48 -5.23zm-25.9 284.19l-2.61 3.24 3.24 2.62 -2.62 3.24 6.49 5.23 2.61 -3.24 -3.24 -2.62 2.62 -3.24 -6.49 -5.23 2.62 -3.24 -3.24 -2.62 2.61 -3.24 -3.24 -2.62 -5.23 6.49 -3.25 -2.62 -2.61 3.24 -6.48 -5.23 2.61 -3.24 -6.48 -5.23 -2.62 3.24 -16.21 -13.08 -5.23 6.49 16.21 13.08 2.62 -3.25 6.48 5.24 -2.62 3.24 6.49 5.23 2.61 -3.24 3.25 2.61 2.61 -3.24 3.24 2.62 2.62 -3.25 3.24 2.62zm-20.45 -717.67l-2.61 3.25 -3.25 -2.62 -2.61 3.24 6.48 5.23 2.62 -3.24 3.24 2.62 2.62 -3.25 -6.49 -5.23zm-307.14 175.04l-2.62 3.24 -3.24 -2.62 -2.62 3.25 6.49 5.23 2.62 -3.24 3.24 2.61 2.61 -3.24 -6.48 -5.23zm53.53 112.77l-2.62 3.24 -3.24 -2.62 -2.62 3.25 6.49 5.23 2.62 -3.24 3.24 2.61 2.61 -3.24 -6.48 -5.23zm14.11 519.86l3.24 2.62 -2.61 3.24 6.48 5.23 5.23 -6.48 -3.24 -2.62 2.62 -3.24 -12.97 -10.46 -2.62 3.24 -3.24 -2.62 -2.62 3.25 9.73 7.84zm222.01 275.46l-13.08 16.21 3.24 2.62 13.08 -16.21 -3.24 -2.62zm-41.6 -1109.39l-5.23 6.48 6.48 5.23 2.62 -3.24 3.24 2.62 2.62 -3.25 -9.73 -7.84zm132.92 107.24l2.62 -3.24 -6.49 -5.23 -2.61 3.24 -3.24 -2.62 -2.62 3.25 12.97 10.46 2.61 -3.24 -3.24 -2.62zm-283.64 782.77l-2.61 3.24 3.24 2.61 -2.62 3.25 3.25 2.61 -2.62 3.24 3.24 2.62 -2.61 3.24 6.48 5.23 -2.61 3.24 3.24 2.62 -2.62 3.24 3.24 2.62 -2.61 3.24 3.24 2.61 -2.61 3.25 3.24 2.61 7.84 -9.72 -3.24 -2.62 5.23 -6.48 9.73 7.84 5.23 -6.48 -3.24 -2.62 2.61 -3.24 -3.24 -2.61 -2.61 3.24 -6.49 -5.23 2.62 -3.24 -3.24 -2.62 2.61 -3.24 -6.48 -5.23 2.62 -3.25 -3.25 -2.61 2.62 -3.24 -9.73 -7.85 2.62 -3.24 -6.49 -5.23 2.62 -3.25 -12.97 -10.46 2.62 -3.24 -12.97 -10.46 -2.62 3.24 3.24 2.61 -2.61 3.25 9.73 7.84 -2.62 3.25 6.48 5.23 -2.61 3.24 3.24 2.61 -2.62 3.25 3.25 2.61 -2.62 3.24 6.48 5.24zm0.96 -545.18l2.62 -3.24 -3.25 -2.62 5.24 -6.48 -3.25 -2.62 -10.46 12.97 6.49 5.23 -2.62 3.24 3.24 2.62 2.62 -3.24 3.24 2.61 2.61 -3.24 -6.48 -5.23zm230.41 -338.64l2.61 -3.25 -3.24 -2.61 -2.62 3.24 -3.24 -2.62 2.62 -3.24 -6.49 -5.23 -2.61 3.24 -3.25 -2.61 -2.61 3.24 3.24 2.61 -2.61 3.25 3.24 2.61 2.61 -3.24 12.97 10.46 2.62 -3.24 -3.24 -2.61zm-45.83 1012.1l-2.62 3.24 -3.24 -2.62 -5.23 6.49 9.72 7.84 2.62 -3.24 3.24 2.62 5.23 -6.49 -9.72 -7.84zm21.14 -1021.32l2.62 -3.24 -9.73 -7.84 -7.85 9.72 3.25 2.62 -2.62 3.24 3.24 2.61 2.62 -3.24 6.48 5.24 5.23 -6.49 -3.24 -2.62zm-53.05 556.68l5.23 -6.49 3.24 2.62 -2.61 3.24 3.24 2.61 -2.62 3.25 -6.48 -5.23zm-266.14 -300.37l-5.23 6.48 -6.49 -5.23 5.24 -6.48 6.48 5.23zm282.02 393.46l2.62 -3.24 -19.46 -15.69 -2.61 3.24 -6.49 -5.23 -2.61 3.24 29.18 23.54 2.61 -3.24 -3.24 -2.62zm-4.75 204.91l-2.62 3.24 -9.72 -7.84 7.84 -9.73 -12.97 -10.46 -2.61 3.24 3.24 2.62 -2.61 3.24 3.24 2.61 -2.62 3.25 3.24 2.61 -2.61 3.24 -6.49 -5.23 -2.61 3.24 -3.24 -2.61 -5.24 6.48 6.49 5.24 2.62 -3.25 3.24 2.62 -2.62 3.24 6.49 5.23 2.61 -3.24 3.24 2.62 2.62 -3.25 9.73 7.85 7.84 -9.73 -6.48 -5.23zm-127.73 -889.86l5.23 -6.48 -3.24 -2.62 -2.62 3.24 -3.24 -2.61 -2.62 3.24 -3.24 -2.61 2.62 -3.25 -6.49 -5.23 -5.23 6.49 -9.73 -7.85 -2.61 3.24 -3.24 -2.62 -2.62 3.25 -3.24 -2.62 -2.62 3.24 9.73 7.85 2.62 -3.24 3.24 2.61 -2.62 3.25 3.24 2.61 -2.61 3.25 6.48 5.23 2.62 -3.25 3.24 2.62 -2.62 3.24 3.25 2.62 -2.62 3.24 6.48 5.23 2.62 -3.24 -3.24 -2.62 2.61 -3.24 3.25 2.62 10.46 -12.97 -3.24 -2.62zm101.13 86.95l5.23 -6.49 -6.49 -5.23 2.62 -3.24 -6.48 -5.23 -5.24 6.48 -16.21 -13.08 -13.07 16.21 6.48 5.24 -2.62 3.24 9.73 7.84 2.62 -3.24 3.24 2.62 2.61 -3.24 3.25 2.61 2.61 -3.24 6.49 5.23 2.61 -3.24 3.24 2.61 2.62 -3.24 -3.24 -2.61zm17.98 528.34l-2.62 3.24 -3.24 -2.62 2.62 -3.24 3.24 2.62zm28.55 17.68l2.61 -3.24 6.49 5.23 -2.62 3.24 -6.48 -5.23zm-70.88 306.78l-2.62 3.24 -3.24 -2.62 -5.23 6.49 -3.24 -2.62 -2.62 3.24 -3.24 -2.61 -2.62 3.24 -3.24 -2.62 -2.62 3.25 -3.24 -2.62 -2.61 3.24 -3.24 -2.61 7.84 -9.73 3.24 2.62 7.85 -9.73 3.24 2.62 2.62 -3.25 12.97 10.47zm77.18 56.92l-2.62 3.24 -9.72 -7.85 2.61 -3.24 9.73 7.85zm-231.11 -748.47l2.62 -3.24 19.45 15.69 -2.61 3.25 -3.25 -2.62 -2.61 3.24 -6.49 -5.23 2.62 -3.24 -9.73 -7.85z"/>
  <path id="crown" class="fil0 str0" d="M314.61 885.26c-119.5,-72.85 -78.21,-109.9 -246.25,-125.97 -60.58,-126.04 -87.17,-363.78 -54.98,-505.92 16.88,-74.56 89.17,-100.87 143.84,-136.98 259.89,-171.71 160.76,-131.74 358.95,-19.62 121.64,68.8 334.14,35.74 150.87,620.62 -202.17,44.65 -181.94,271.8 -352.43,167.87z"/>
 </g>
</svg>
