<?xml version="1.0" encoding="UTF-8"?>
<!DOCTYPE svg PUBLIC "-//W3C//DTD SVG 1.1//EN" "http://www.w3.org/Graphics/SVG/1.1/DTD/svg11.dtd">
<!-- Creator: CorelDRAW (Versión de evaluación) -->
<svg xmlns="http://www.w3.org/2000/svg" xml:space="preserve" width="739px" height="2458px" version="1.1" style="shape-rendering:geometricPrecision; text-rendering:geometricPrecision; image-rendering:optimizeQuality; fill-rule:evenodd; clip-rule:evenodd"
viewBox="0 0 739 2457.4"
 xmlns:xlink="http://www.w3.org/1999/xlink"
 xmlns:xodm="http://www.corel.com/coreldraw/odm/2003">
 <defs>
  <style type="text/css">
   <![CDATA[
    .str0 {stroke:#373435;stroke-width:5;stroke-miterlimit:22.9256}
    .fil0 {fill:#FEFEFE}
   ]]>
  </style>
 </defs>
 <g id="tooth-fissure-root-48">
  <metadata id="CorelCorpID_0Corel-Layer"/>
  <path id="root" class="fil0 str0" d="M73.74 827.52c-38.35,253.59 -66.5,562.49 -59.7,826.16 4.02,155.82 68.29,631.75 179.9,607.67 21.28,-85.72 6.25,-439.79 15.85,-581.05 12.49,-183.64 22.99,-304.49 103.84,-429.34 97.42,-11.31 103.5,71.98 112.74,213.98 7.22,111.16 -2.2,258.71 -17.69,365.91 -22.86,158.37 -109.08,495.03 -99.19,619.87 53.89,33.68 98.83,-68.09 133.15,-124.75 118.79,-196.04 183.27,-466.07 213.69,-739.36 25.7,-230.91 20.72,-445.48 4.88,-676.23 -4.46,-65.07 -2.62,-72.59 -43.09,-106.1 -18.74,-15.51 -57.61,-37.71 -77,-42.09 -80.46,-20.24 -232.27,197.98 -467.38,65.33zm0 0c-0.68,4.53 -1.36,9.08 -2.04,13.65l4.8 4.77 2.94 -2.95 2.95 2.94 -2.94 2.95 5.91 5.88 -2.94 2.95 2.95 2.94 -8.81 8.86 2.95 2.94 -2.94 2.95 -2.95 -2.94 -5.88 5.91 2.96 2.93 2.93 -2.95 5.91 5.88 -2.94 2.95 2.96 2.94 -2.94 2.95 2.95 2.94 -2.94 2.95 2.95 2.94 -5.87 5.91 2.95 2.94 -5.88 5.9 2.96 2.94 -2.94 2.95 2.95 2.94 5.88 -5.9 -2.95 -2.94 8.81 -8.86 -2.95 -2.94 5.87 -5.9 -2.95 -2.94 2.94 -2.96 -2.96 -2.93 5.88 -5.91 -2.95 -2.94 5.88 -5.9 -2.96 -2.94 5.88 -5.91 -2.95 -2.94 5.87 -5.9 -2.95 -2.94 2.94 -2.95 -2.96 -2.94 5.88 -5.91 2.95 2.94 1.46 -1.46c-11.03,-4.85 -22.25,-10.45 -33.67,-16.89zm-54.45 525.65c-0.77,14.22 -1.48,28.41 -2.12,42.57l7.65 -7.68 2.95 2.94 8.82 -8.86 5.9 5.87 11.82 11.76 2.93 -2.96 2.96 2.94 2.93 -2.95 5.91 5.88 2.94 -2.96 5.91 5.88 2.93 -2.95 5.91 5.87 2.94 -2.95 5.9 5.88 2.94 -2.96 2.96 2.94 2.93 -2.95 2.96 2.94 2.93 -2.95 5.91 5.87 2.94 -2.95 2.95 2.94 2.94 -2.96 2.95 2.94 -2.94 2.96 2.96 2.93 2.95 2.94 -2.94 2.95 2.95 2.94 -2.93 2.96 5.9 5.87 -2.94 2.95 2.96 2.94 -2.94 2.96 5.9 5.87 -2.94 2.96 5.91 5.87 -2.94 2.96 2.95 2.93 -5.87 5.91 2.95 2.94 -2.94 2.95 2.96 2.94 -2.94 2.95 2.95 2.94 -2.94 2.95 2.95 2.94 -2.93 2.95 2.95 2.94 -8.82 8.86 -2.93 2.95 -5.91 -5.87 2.94 -2.96 -5.91 -5.87 2.94 -2.96 -8.86 -8.81 2.94 -2.95 -2.95 -2.94 2.94 -2.95 -17.72 -17.63 2.94 -2.96 -2.95 -2.93 -2.94 2.95 2.95 2.94 -2.94 2.95 2.96 2.94 -2.94 2.95 5.9 5.88 -2.94 2.95 5.91 5.88 -2.94 2.95 14.76 14.69 -2.93 2.95 5.9 5.88 -2.93 2.95 2.95 2.94 -2.94 2.95 2.95 2.94 -2.94 2.96 2.96 2.93 -2.94 2.96 2.95 2.94 -2.94 2.95 2.96 2.93 -2.94 2.96 2.95 2.94 -2.94 2.95 5.91 5.88 -2.94 2.95 5.9 5.87 -2.93 2.96 2.95 2.94 -2.94 2.95 2.95 2.94 -2.93 2.95 -2.94 2.95 2.95 2.94 -2.94 2.95 2.96 2.94 -2.94 2.96 2.95 2.93 -2.94 2.96 2.95 2.93 -2.93 2.96 2.95 2.94 -2.94 2.95 -2.95 -2.94 -8.82 8.86 2.96 2.94 8.81 -8.86 5.91 5.88 -2.94 2.95 2.95 2.94 -2.94 2.95 11.81 11.75 -26.44 26.58 2.95 2.94 -17.63 17.71 -26.44 26.58 -11.75 11.81 -2.96 -2.94 -11.75 11.81 -2.95 -2.94 -5.88 5.91 -2.95 -2.94 -5.88 5.91 -0.61 -0.61c0.35,3.92 0.71,7.89 1.1,11.93l2.48 -2.49 2.95 2.94 5.88 -5.91 2.95 2.94 2.94 -2.95 2.95 2.93 8.82 -8.85 2.95 2.93 5.87 -5.9 2.96 2.94 2.94 -2.96 2.94 -2.95 -2.96 -2.94 2.94 -2.95 2.95 2.94 5.88 -5.91 2.95 2.94 32.32 -32.48 -2.95 -2.94 5.88 -5.91 5.87 -5.9 26.45 -26.58 14.76 14.69 2.94 -2.95 5.91 5.88 2.94 -2.95 8.85 8.81 2.94 -2.95 5.91 5.87 2.93 -2.95 2.96 2.94 2.94 -2.95 5.9 5.87 2.94 -2.95 1.79 1.78 1.13 -16.51 -11.82 -11.76 -2.94 2.95 -5.91 -5.87 -2.93 2.95 5.9 5.88 -5.87 5.9 -5.91 -5.87 5.88 -5.91 -2.96 -2.94 -5.9 -5.87 -2.94 2.95 -14.76 -14.69 -2.94 2.95 -11.81 -11.75 -5.88 5.9 -5.91 -5.87 2.94 -2.96 -2.95 -2.93 2.94 -2.96 -2.96 -2.94 2.94 -2.95 -2.95 -2.94 2.94 -2.95 -2.96 -2.94 2.94 -2.95 -5.9 -5.88 2.94 -2.95 -2.96 -2.94 5.88 -5.9 -2.95 -2.94 2.94 -2.96 -2.96 -2.93 5.88 -5.91 -5.91 -5.88 2.94 -2.95 -5.9 -5.88 2.93 -2.95 -2.95 -2.94 2.94 -2.95 -2.95 -2.94 5.87 -5.9 -2.95 -2.94 8.82 -8.86 -2.96 -2.94 5.88 -5.9 5.87 -5.91 -2.95 -2.94 2.94 -2.95 -2.95 -2.94 8.81 -8.86 -2.95 -2.93 14.69 -14.77 -2.95 -2.94 2.94 -2.95 8.81 -8.86 -5.9 -5.88 -2.94 2.96 -5.91 -5.88 -5.88 5.91 2.96 2.94 -2.94 2.95 5.91 5.87 -5.88 5.91 -5.91 -5.88 2.94 -2.95 -14.76 -14.69 2.93 -2.95 -5.9 -5.88 2.94 -2.95 -5.91 -5.88 2.94 -2.95 -2.95 -2.94 2.93 -2.95 -2.95 -2.94 2.94 -2.95 5.91 5.87 2.93 -2.95 2.96 2.94 2.94 -2.96 2.95 2.94 2.94 -2.95 2.95 2.94 2.94 -2.95 11.81 11.75 2.94 -2.95 2.95 2.93 -5.88 5.91 2.96 2.94 -5.88 5.9 8.86 8.82 17.63 -17.72 -2.95 -2.94 2.93 -2.95 -2.95 -2.94 5.88 -5.9 2.95 2.93 2.94 -2.95 2.95 2.94 2.94 -2.95 2.95 2.93 2.94 -2.95 5.88 -5.9 8.81 -8.86 -5.9 -5.88 2.94 -2.95 -2.96 -2.94 2.94 -2.95 -5.9 -5.88 -2.94 2.95 -5.91 -5.87 2.94 -2.96 -2.95 -2.93 2.94 -2.96 -2.96 -2.94 5.88 -5.9 -2.96 -2.94 14.7 -14.76 -2.96 -2.94 2.94 -2.95 11.76 -11.82 2.95 2.94 5.87 -5.9 -5.9 -5.88 -2.94 2.95 -2.95 -2.94 2.94 -2.95 -2.96 -2.94 2.94 -2.95 -2.95 -2.94 5.88 -5.9 -2.96 -2.94 2.94 -2.96 -2.95 -2.93 5.87 -5.91 -2.95 -2.94 2.94 -2.95 2.95 2.94 2.94 -2.95 5.91 5.87 2.93 -2.95 -2.95 -2.94 5.88 -5.9 -2.95 -2.94 2.93 -2.96 2.96 2.94 8.81 -8.85 2.95 2.93 8.82 -8.86 2.95 2.94 2.94 -2.95 2.95 2.94 5.88 -5.91 2.95 2.94 2.7 -2.71 0.72 -1.13 0.45 -0.04 2.01 -2.02 1.65 1.64c0.95,-0.08 1.88,-0.15 2.8,-0.22l4.38 -4.39 2.95 2.93 2.94 -2.95 -2.95 -2.94 -2.94 2.96 -2.95 -2.94 -2.94 2.95 -2.96 -2.94 -2.94 2.96 -2.95 -2.94 -2.94 2.95 -2.95 -2.94 -5.87 5.91 -2.96 -2.94 -2.94 2.95 -5.9 -5.87 -2.94 2.95 -2.95 -2.94 -2.94 2.95 -5.91 -5.87 -2.93 2.95 -5.91 -5.88 -2.94 2.96 -8.86 -8.82 -2.94 2.95 -2.95 -2.93 -2.94 2.95 -8.86 -8.82 2.94 -2.95 -2.95 -2.94 2.94 -2.95 -2.95 -2.94 -2.94 2.96 -2.95 -2.94 -8.82 8.86 -2.95 -2.94 -2.94 2.95 -5.91 -5.88 -2.94 2.96 8.86 8.81 2.94 -2.95 8.86 8.81 -2.94 2.96 8.86 8.81 -2.94 2.95 2.96 2.94 2.95 2.94 -2.94 2.95 2.95 2.94 -8.81 8.86 2.95 2.94 -5.88 5.9 2.96 2.94 -2.94 2.95 5.9 5.88 -2.93 2.95 2.95 2.94 -2.94 2.95 2.95 2.94 -2.94 2.96 2.96 2.93 -2.94 2.96 2.95 2.94 -2.94 2.95 2.96 2.94 -5.88 5.9 2.95 2.94 -2.93 2.95 2.95 2.94 -8.82 8.86 2.96 2.94 -5.88 5.91 -2.95 -2.94 -2.94 2.95 2.95 2.94 -2.94 2.95 5.91 5.88 -2.94 2.95 2.95 2.94 -2.93 2.95 2.95 2.94 -2.94 2.95 2.95 2.94 -2.94 2.95 2.96 2.94 -14.69 14.77 -2.96 -2.94 -5.87 5.9 -2.96 -2.93 -2.93 2.95 -2.96 -2.94 -2.94 2.95 -2.95 -2.94 -2.94 2.96 -5.9 -5.88 -2.94 2.95 -5.91 -5.87 -2.93 2.95 -2.96 -2.94 -2.94 2.95 -2.95 -2.93 -2.94 2.95 -5.9 -5.88 -2.94 2.96 -5.91 -5.88 -2.94 2.95 -2.95 -2.94 -5.87 5.91 -5.91 -5.88 -2.94 2.95 -2.95 -2.93 -2.94 2.95 -5.9 -5.88 -2.94 2.96 -8.86 -8.82 -2.94 2.95 -2.95 -2.93 -2.94 2.95 -2.95 -2.94 -5.88 5.91 -2.95 -2.94 -2.94 2.95 -2.95 -2.94 -2.94 2.96 -2.96 -2.94 -8.86 -8.82 -2.95 -2.94 2.94 -2.95 -2.95 -2.94 2.94 -2.95 -8.86 -8.81 2.94 -2.96 -8.86 -8.81 -5.88 5.9 2.95 2.94 -2.93 2.96 -2.51 -2.5zm394.6 -13.58l0.18 0.93 2.4 2.39 -1.66 1.66c0.29,1.67 0.58,3.35 0.86,5.05l18.45 -18.54 -2.96 -2.94 11.75 -11.81 -2.95 -2.94 11.76 -11.81 2.95 2.94 2.94 -2.96 5.9 5.88 2.94 -2.95 11.81 11.75 2.94 -2.95 5.91 5.87 2.93 -2.95 2.96 2.94 2.93 -2.95 -2.95 -2.94 -2.94 2.95 -8.85 -8.81 -2.94 2.95 -11.81 -11.75 -2.94 2.95 -2.95 -2.94 -2.94 2.95 -2.96 -2.93 -2.93 2.95 -2.96 -2.94 -2.94 2.95 -5.9 -5.87 2.94 -2.96 -2.96 -2.93 5.88 -5.91 -2.95 -2.94 8.81 -8.86 -2.95 -2.93 -2.94 2.95 -5.9 -5.88 2.93 -2.95 -2.95 -2.94 2.94 -2.95 -2.95 -2.94 5.87 -5.91 -2.95 -2.93 5.88 -5.91 -2.96 -2.94 5.88 -5.91 -2.95 -2.93 2.94 -2.95 2.95 2.93 5.87 -5.9 2.96 2.94 8.81 -8.86 2.96 2.94 8.81 -8.86 5.88 -5.91 2.95 2.94 2.94 -2.95 2.95 2.93 2.94 -2.95 2.95 2.94 5.88 -5.91 -5.91 -5.87 -2.94 2.95 -2.95 -2.94 -2.94 2.96 -2.95 -2.94 -2.94 2.95 -5.9 -5.88 -2.94 2.96 -2.95 -2.94 -2.94 2.95 -2.96 -2.94 -2.93 2.96 -5.91 -5.88 -2.94 2.95 -2.95 -2.94 -2.94 2.96 -5.9 -5.88 -2.94 2.95 -2.96 -2.94 -2.93 2.96 -2.96 -2.94 2.94 -2.95 -2.95 -2.94 8.81 -8.86 -2.95 -2.94 -11.75 11.81 -2.96 -2.94 -2.93 2.96 -2.96 -2.94 2.94 -2.95 -2.95 -2.94 2.94 -2.95 -2.96 -2.94 8.82 -8.86 -2.95 -2.94 8.81 -8.86 -2.95 -2.94 2.94 -2.95 -2.96 -2.94 -8.81 8.86 -5.91 -5.88 -5.87 5.91 -8.86 -8.81 2.94 -2.96 2.95 2.94 8.81 -8.86 2.96 2.94 20.56 -20.67 -2.95 -2.94 5.88 -5.9 2.95 2.93 2.94 -2.95 2.95 2.94 2.94 -2.95 2.95 2.94 5.88 -5.91 5.9 5.87 2.94 -2.95 5.91 5.88 2.94 -2.95 14.76 14.69 5.88 -5.91 -8.86 -8.81 -2.94 2.95 -8.86 -8.81 -2.93 2.95 -2.96 -2.94 -2.94 2.95 -5.9 -5.87 -2.94 2.95 -5.91 -5.88 -2.93 2.96 -8.86 -8.82 2.94 -2.95 -2.96 -2.94 2.94 -2.95 -5.9 -5.88 -2.94 2.95 2.95 2.94 -2.94 2.95 5.91 5.88 -8.82 8.86 -2.95 -2.94 -2.94 2.95 2.95 2.94 -5.87 5.91 2.95 2.94 -14.69 14.76 -2.95 -2.94 -5.88 5.91 -2.95 -2.94 -2.94 2.95 -2.95 -2.94 -2.94 2.96 -2.95 -2.94 -5.88 5.9 -2.95 -2.93 -5.88 5.9 -2.95 -2.94 -5.88 5.91 -2.95 -2.94 -2.94 2.95 -29.53 -29.38 2.94 -2.95 -5.91 -5.88 2.94 -2.95 -2.95 -2.94 2.93 -2.95 -14.76 -14.69 2.94 -2.96 -8.86 -8.81 2.94 -2.96 -5.91 -5.87 8.82 -8.86 2.95 2.94 2.94 -2.95 2.95 2.93 11.76 -11.81 2.95 2.94 2.94 -2.95 2.95 2.94 2.94 -2.96 -5.91 -5.87 -2.94 2.95 -2.95 -2.94 -8.81 8.86 -2.95 -2.94 -5.88 5.91 -2.96 -2.94 -5.87 5.9 -2.96 -2.93 -2.93 2.95 -5.91 -5.88 -2.94 2.96 -2.95 -2.94 -2.94 2.95 -8.86 -8.81 2.94 -2.96 -5.9 -5.87 2.93 -2.96 -8.85 -8.81 2.93 -2.95 -5.9 -5.88 2.94 -2.95 -2.96 -2.94 2.94 -2.95 -2.95 -2.94 -5.91 -5.88 2.94 -2.95 -11.81 -11.75 -2.94 2.95 -2.95 -2.94 -5.88 5.91 -5.9 -5.88 -2.94 2.95 -2.95 -2.94 -5.88 5.91 -2.95 -2.94 2.93 -2.95 -11.81 -11.75 2.94 -2.96 -8.86 -8.81 8.82 -8.86 -2.95 -2.94 5.87 -5.9 -2.95 -2.94 -2.95 -2.94 2.93 -2.95 -11.81 -11.76 2.94 -2.95 -5.91 -5.88 2.94 -2.95 -5.9 -5.88 2.94 -2.95 -2.96 -2.94 2.94 -2.95 -2.95 -2.94 2.94 -2.95 -2.96 -2.94 2.38 -2.38c-3.55,-0.27 -7.12,-0.63 -10.72,-1.04l-0.5 0.5 2.95 2.93 -2.94 2.96 5.91 5.87 -2.94 2.96 2.95 2.93 -2.93 2.96 2.95 2.94 -2.94 2.95 5.91 5.88 -2.94 2.95 5.91 5.88 -2.94 2.95 2.95 2.94 2.95 2.94 -2.94 2.95 8.86 8.81 -5.87 5.91 2.95 2.94 -8.82 8.85 5.91 5.88 -2.94 2.96 8.86 8.81 -2.94 2.95 2.95 2.94 -2.93 2.95 5.9 5.88 -2.94 2.95 2.96 2.94 -8.82 8.86 2.95 2.94 -2.94 2.95 2.96 2.94 -5.88 5.9 2.96 2.94 5.87 -5.9 -2.95 -2.94 5.88 -5.91 -2.96 -2.94 14.69 -14.76 2.96 2.94 2.93 -2.95 2.96 2.94 2.94 -2.96 2.95 2.94 2.94 -2.95 2.95 2.93 2.94 -2.95 5.9 5.88 2.94 -2.95 2.95 2.94 -2.93 2.95 5.9 5.87 -2.94 2.96 5.91 5.87 -2.94 2.96 2.96 2.93 -2.94 2.96 5.9 5.87 -2.94 2.96 2.96 2.93 -2.94 2.96 11.81 11.75 -5.88 5.91 2.96 2.93 -14.69 14.77 -2.96 -2.94 -11.75 11.81 -2.95 -2.94 -14.7 14.77 2.96 2.94 2.94 -2.96 2.95 2.94 2.94 -2.95 2.95 2.94 5.88 -5.91 -2.96 -2.94 2.94 -2.95 2.95 2.94 5.88 -5.91 2.95 2.94 2.94 -2.95 8.86 8.81 2.94 -2.95 -5.91 -5.88 2.94 -2.95 -2.95 -2.94 14.69 -14.76 2.95 2.94 2.94 -2.96 2.95 2.94 2.94 -2.95 2.95 2.94 -2.93 2.95 5.9 5.88 -2.94 2.95 8.86 8.81 -2.94 2.96 14.77 14.69 -2.94 2.95 8.86 8.82 -2.94 2.95 5.91 5.87 -2.94 2.96 5.9 5.87 -2.93 2.96 2.95 2.94 -2.94 2.95 35.43 35.26 -2.93 2.95 11.81 11.75 -2.94 2.96 5.9 5.87 -2.93 2.96 14.76 14.69 -2.94 2.95 11.81 11.75 5.91 5.88 -8.81 8.86 2.95 2.94 5.87 -5.91 5.91 5.88 -2.94 2.95 8.86 8.81 2.94 -2.95 -2.95 -2.94 2.93 -2.95 -2.95 -2.94 5.88 -5.9 2.95 2.93 8.82 -8.85 2.95 2.94 -2.94 2.95 2.95 2.94 -5.87 5.9 2.95 2.94 -5.88 5.9 2.96 2.94 -5.88 5.91 -2.95 -2.94 -2.94 2.95 5.9 5.88 2.94 -2.95 5.91 5.87 -2.94 2.96 2.95 2.93 -2.94 2.96 2.96 2.94 -5.88 5.9 2.95 2.94 -2.94 2.95 5.91 5.88 -2.94 2.95 2.96 2.94 -2.94 2.95 2.95 2.94 -5.88 5.91 2.96 2.94 -20.2 20.29zm12.83 131.05c0.6,9.99 1.06,20.27 1.4,30.77l3.48 3.46 2.94 -2.95 14.76 14.69 2.94 -2.95 11.81 11.75 2.94 -2.95 5.91 5.88 2.93 -2.96 8.86 8.82 2.94 -2.96 5.91 5.88 -2.94 2.95 2.95 2.94 -2.94 2.96 5.91 5.87 -2.94 2.95 2.95 2.94 -2.94 2.96 2.96 2.93 -5.88 5.91 -2.95 -2.94 -2.94 2.95 -2.95 -2.93 -2.95 -2.94 -2.94 2.95 -2.96 -2.94 -2.93 2.96 -2.96 -2.94 -2.94 2.95 -2.95 -2.94 -2.94 2.95 -2.95 -2.93 -2.94 2.95 -2.95 -2.94 -2.94 2.95 -2.95 -2.93 -2.94 2.95 -2.95 -2.94 -2.94 2.95 -5.91 -5.87 0 0c-0.16,21.88 -0.75,44.24 -1.71,66.68l4.81 -4.84 -2.95 -2.93 2.94 -2.96 -2.96 -2.93 5.88 -5.91 -2.95 -2.94 5.87 -5.9 -2.95 -2.94 5.88 -5.91 -2.95 -2.94 2.93 -2.95 -2.95 -2.94 5.88 -5.9 2.95 2.94 2.94 -2.96 2.95 2.94 2.94 -2.95 2.95 2.94 2.94 -2.96 5.91 5.88 2.93 -2.95 5.91 5.87 2.94 -2.95 5.91 5.88 2.93 -2.96 2.96 2.94 2.93 -2.95 2.96 2.94 2.93 -2.95 8.86 8.81 2.94 -2.95 11.81 11.75 -2.94 2.95 8.86 8.82 2.94 -2.96 5.91 5.88 2.94 -2.95 11.81 11.75 2.93 -2.95 8.86 8.81 2.94 -2.95 14.77 14.69 2.94 -2.95 11.81 11.75 -2.94 2.96 5.9 5.87 -2.94 2.96 2.96 2.93 -5.88 5.91 2.95 2.94 14.7 -14.77 2.95 2.94 2.94 -2.95 8.86 8.81 2.93 -2.95 8.86 8.81 2.94 -2.95 3.94 3.92c0.72,-5.17 1.43,-10.34 2.13,-15.51l-3.16 -3.14 -2.94 2.95 -5.9 -5.88 -2.94 2.96 -5.91 -5.88 -2.94 2.95 -5.9 -5.87 -2.94 2.95 -26.58 -26.45 -2.93 2.96 -14.77 -14.69 -2.94 2.95 -11.81 -11.75 -2.94 2.95 -5.9 -5.88 8.81 -8.86 2.95 2.94 5.88 -5.9 8.86 8.81 2.94 -2.95 2.95 2.94 2.94 -2.96 8.86 8.82 2.94 -2.95 2.95 2.93 2.94 -2.95 2.95 2.94 2.94 -2.95 2.95 2.93 2.94 -2.95 -5.91 -5.88 -2.93 2.96 -2.96 -2.94 -2.94 2.95 -5.9 -5.87 -2.94 2.95 -5.9 -5.88 -2.94 2.96 -5.91 -5.88 -2.94 2.95 -2.95 -2.94 2.94 -2.95 -8.86 -8.81 -5.88 5.9 -2.95 -2.94 -2.94 2.96 -5.9 -5.88 -2.94 2.95 -17.72 -17.63 5.88 -5.9 2.95 2.93 2.94 -2.95 2.95 2.94 2.94 -2.95 5.9 5.87 -2.93 2.96 2.95 2.94 5.88 -5.91 -17.72 -17.63 -2.94 2.95 -2.95 -2.93 -2.94 2.95 -5.91 -5.88 2.94 -2.95 2.94 -2.95 -2.95 -2.94 5.87 -5.91 -2.95 -2.94 8.82 -8.85 -2.96 -2.94 2.94 -2.96 -8.86 -8.81 2.94 -2.96 -2.95 -2.93 2.94 -2.95 -5.91 -5.88 -2.94 2.95 2.96 2.94 -8.82 8.86 8.86 8.81 -5.88 5.91 2.96 2.94 -8.82 8.86 -2.95 -2.94 -2.94 2.95 -5.9 -5.88 -2.94 2.96 -5.91 -5.88 -2.94 2.95 -2.95 -2.94 -2.94 2.96 -2.95 -2.94 -2.94 2.95 -8.86 -8.81 -2.94 2.95 -5.9 -5.88 -2.94 2.96 -8.86 -8.82 -2.94 2.95 -2.95 -2.93 2.94 -2.96 -8.86 -8.81 2.94 -2.96 -2.96 -2.93 2.94 -2.96 -2.95 -2.93 2.94 -2.96 -2.96 -2.93 -2.93 2.95 -4.81 -4.78zm-32.35 443.72c-1.23,6.49 -2.49,13.1 -3.79,19.82l0.85 0.85 11.75 -11.81 8.86 8.81 2.94 -2.95 11.81 11.75 -2.94 2.95 2.95 2.94 5.88 -5.9 2.95 2.93 2.94 -2.95 8.86 8.82 -2.94 2.95 2.95 2.94 -2.93 2.95 2.95 2.94 -2.94 2.95 2.95 2.94 5.88 -5.91 -2.95 -2.93 5.87 -5.91 -2.95 -2.94 8.82 -8.86 2.93 -2.95 2.96 2.94 2.94 -2.95 2.95 2.93 2.94 -2.95 2.95 2.94 2.94 -2.95 2.95 2.93 2.94 -2.95 2.95 2.94 17.63 -17.72 2.95 2.94 -2.93 2.95 2.95 2.94 8.81 -8.86 2.96 2.94 2.93 -2.95 2.96 2.94 2.94 -2.96 2.95 2.94 2.94 -2.95 -2.96 -2.94 2.94 -2.95 2.95 2.94 11.76 -11.81 2.95 2.93 8.82 -8.86 2.95 2.94 2.94 -2.95 2.95 2.94 2.94 -2.95 2.95 2.93 5.88 -5.9 2.95 2.94 -2.94 2.95 2.95 2.94 2.94 -2.96 2.96 2.94 5.87 -5.9 2.58 2.56c0.74,-3.18 1.47,-6.37 2.2,-9.56l-16.62 -16.54 11.75 -11.81 9.18 9.13c6.47,-29.48 12.41,-59.34 17.86,-89.45l-6.6 6.63 -2.95 -2.94 -5.88 5.91 -2.94 2.95 -2.95 -2.94 -2.94 2.96 -5.9 -5.88 -2.94 2.95 8.86 8.82 -5.88 5.9 -11.75 11.81 -2.96 -2.93 -14.69 14.76 2.95 2.94 -2.93 2.95 -2.94 2.95 -2.95 -2.93 -2.94 2.95 -2.94 2.95 -20.57 20.67 -2.95 -2.94 -20.57 20.67 -2.94 2.96 -5.87 5.9 -2.96 -2.94 -8.81 8.86 -2.95 -2.94 -2.94 2.96 -2.95 -2.94 -5.88 5.9 -2.95 -2.93 -8.82 8.85 -2.95 -2.93 -5.88 5.9 -5.9 -5.87 -2.94 2.95 2.95 2.94 -5.88 5.9 2.96 2.94 -2.94 2.95 -2.96 -2.94 -2.93 2.96 -2.96 -2.94 -2.94 2.95 -5.9 -5.87 -2.94 2.95 -8.86 -8.82 -2.93 2.96 -2.96 -2.94 -2.94 2.95 -2.95 -2.94 -2.94 2.96 -2.95 -2.94 -2.89 2.91zm-19.4 98.31l-2.97 14.68 1.99 1.98 2.95 2.94 -2.94 2.95 2.95 2.94 2.96 2.93 -2.94 2.96 2.95 2.94 -2.94 2.95 2.96 2.94 -2.94 2.95 5.9 5.88 -2.93 2.95 5.9 5.88 -2.94 2.95 2.96 2.94 -2.94 2.95 5.9 5.88 -2.94 2.95 2.96 2.94 -5.88 5.9 2.95 2.94 -2.93 2.96 2.95 2.93 -2.94 2.96 2.95 2.93 -8.81 8.86 2.95 2.94 -2.94 2.95 2.96 2.94 -2.94 2.96 5.9 5.87 -2.93 2.95 2.95 2.94 -2.94 2.96 8.86 8.81 -5.88 5.91 5.91 5.87 -2.94 2.95 2.95 2.94 -2.94 2.96 2.96 2.93 -5.88 5.91 2.95 2.94 -2.94 2.95 5.91 5.88 -2.94 2.95 5.91 5.88 -5.88 5.9 2.95 2.94 -5.87 5.91 2.95 2.93 -2.94 2.96 2.96 2.94 -2.94 2.95 2.95 2.94 -17.63 17.72 2.95 2.93 -5.87 5.91 2.95 2.94 -2.94 2.95 -2.95 -2.94 -20.57 20.67 2.95 2.94 -8.81 8.86 2.95 2.94 -21.51 21.61c-0.95,6.93 -1.84,13.74 -2.67,20.4l3.66 -3.67 2.95 2.94 5.88 -5.91 2.95 2.94 17.63 -17.72 2.95 2.94 5.88 -5.9 2.95 2.93 2.94 -2.95 20.67 20.57 2.94 -2.95 11.81 11.75 -2.94 2.95 8.86 8.82 -2.94 2.95 13.04 12.98c1.45,-2.49 2.89,-4.98 4.32,-7.46l-8.53 -8.49 2.94 -2.95 -11.81 -11.75 5.88 -5.91 5.9 5.88 -2.94 2.95 12.83 12.77 2.7 -4.75 -0.78 0.78 -5.9 -5.88 2.93 -2.95 -11.81 -11.75 2.94 -2.96 -2.95 -2.93 2.94 -2.96 -2.96 -2.93 2.94 -2.96 -2.95 -2.93 2.94 -2.96 -2.95 -2.94 2.93 -2.95 -2.95 -2.94 2.94 -2.95 -2.95 -2.94 2.93 -2.95 -5.9 -5.88 2.94 -2.95 -2.96 -2.94 5.88 -5.91 -23.62 -23.5 2.93 -2.95 -2.95 -2.94 2.94 -2.96 -2.95 -2.93 2.94 -2.96 -2.96 -2.93 5.88 -5.91 -2.95 -2.94 2.93 -2.95 2.94 -2.95 -2.95 -2.94 2.94 -2.95 -2.95 -2.94 5.87 -5.91 -5.9 -5.87 2.93 -2.96 -5.9 -5.87 2.94 -2.96 -2.96 -2.93 5.88 -5.91 -2.95 -2.94 2.94 -2.95 -2.96 -2.94 2.94 -2.95 -2.95 -2.94 2.94 -2.95 -2.96 -2.94 2.94 -2.96 -2.95 -2.93 2.94 -2.96 -2.95 -2.93 8.81 -8.86 -2.95 -2.94 5.87 -5.91 -2.95 -2.94 2.94 -2.95 -2.95 -2.94 2.94 -2.95 -2.96 -2.94 -2.94 2.95 -5.9 -5.87 26.44 -26.58 5.91 5.88 2.94 -2.95 2.95 2.93 5.87 -5.9 5.91 5.88 2.94 -2.96 5.91 5.88 2.93 -2.95 5.91 5.87 2.94 -2.95 11.81 11.75 -2.94 2.96 5.91 5.87 -2.94 2.95 2.95 2.94 -5.88 5.91 5.91 5.88 5.88 -5.91 -2.96 -2.94 2.94 -2.95 -2.95 -2.94 2.94 -2.95 -5.91 -5.88 2.94 -2.95 -2.95 -2.94 2.94 -2.95 -2.96 -2.94 23.51 -23.62 -2.96 -2.94 14.7 -14.77 -2.96 -2.93 -5.87 5.9 -2.96 -2.94 -2.93 2.96 -2.96 -2.94 -8.81 8.86 2.95 2.93 -5.87 5.91 -2.96 -2.94 -14.69 14.77 -2.95 -2.94 -2.94 2.95 -2.95 -2.94 -2.94 2.95 -11.81 -11.75 -2.94 2.96 -2.95 -2.94 -2.94 2.95 -2.96 -2.94 -2.93 2.95 -2.96 -2.93 -2.93 2.95 -2.96 -2.94 -2.94 2.95 -2.95 -2.93 -8.81 8.85 -2.96 -2.93 2.94 -2.96 -11.81 -11.75 2.94 -2.95 -5.91 -5.88 2.94 -2.95 -5.9 -5.88 2.94 -2.95 -2.96 -2.94 2.94 -2.95 -5.91 -5.88 2.94 -2.95 -5.9 -5.88 2.94 -2.95 -10.79 -10.74zm231.39 -122.35c0.57,-2.54 1.14,-5.1 1.71,-7.65l-4.68 4.7 2.97 2.95zm46.2 -271.36l0.75 -6.18 -3.46 3.48 2.71 2.7zm-430.07 -748.46c-1.09,-0.02 -2.18,-0.04 -3.27,-0.07l1.68 1.67 1.59 -1.6zm-90.6 -16.45c-1.16,-0.4 -2.32,-0.78 -3.49,-1.21l-1.8 1.82 2.95 2.93 2.94 -2.95 -0.6 -0.59zm330.8 1310.56l2.94 -2.96 -2.96 -2.94 -2.93 2.96 2.95 2.94 -2.94 2.95 2.95 2.94 2.94 -2.96 -2.95 -2.93zm-94.15 -1145.6l2.94 -2.95 -2.96 -2.94 -2.93 2.95 2.95 2.94zm202.17 753.57l2.93 -2.96 -2.95 -2.94 -2.94 2.96 2.96 2.94zm-186.95 -556.25l2.94 -2.96 -2.96 -2.93 -2.94 2.95 2.96 2.94zm142.8 571.08l2.94 -2.95 -2.96 -2.94 -2.94 2.96 2.96 2.93 -2.94 2.96 -8.86 -8.82 -2.94 2.95 2.96 2.94 -2.94 2.96 2.95 2.93 -2.94 2.96 2.96 2.93 2.93 -2.95 2.96 2.94 5.87 -5.91 2.96 2.94 2.93 -2.95 -5.9 -5.88zm67.49 -103.26l2.94 -2.95 -2.95 -2.94 -2.94 2.95 2.95 2.94zm-313.95 -694.38l2.94 -2.95 -2.95 -2.94 -2.94 2.95 2.95 2.94zm282.16 938.94l2.93 -2.95 -2.95 -2.94 -2.94 2.95 2.96 2.94zm-370.97 71.62l2.94 -2.96 -2.96 -2.94 -2.93 2.96 2.95 2.94zm166.02 -757.43l2.94 -2.95 -5.91 -5.88 -2.93 2.95 5.9 5.88zm142.67 518.07l2.94 -2.95 -5.9 -5.88 -2.94 2.95 5.9 5.88zm64.85 17.51l2.94 -2.95 -5.91 -5.88 -2.94 2.96 5.91 5.87zm55.56 -162.14l2.94 -2.96 -5.9 -5.87 -2.94 2.95 5.9 5.88zm-31.92 191.54l2.93 -2.95 -5.9 -5.88 -2.94 2.95 5.91 5.88zm-91.95 -256.04l2.94 -2.95 -5.91 -5.88 5.88 -5.9 -2.96 -2.94 2.94 -2.95 8.86 8.81 -2.94 2.95 2.96 2.94 -2.94 2.95 2.95 2.94 -5.88 5.91 -5.9 -5.88zm-45.14 -385.76l5.88 -5.9 -2.96 -2.94 -5.87 5.91 2.95 2.93zm-44.68 989.83l2.94 -2.96 -5.9 -5.87 -2.94 2.95 5.9 5.88zm-44.28 -38.19l2.94 -2.95 -5.9 -5.87 -2.94 2.95 5.9 5.87zm9.58 -889.58l2.94 -2.96 -5.91 -5.87 -2.93 2.95 5.9 5.88zm219.38 565l2.93 -2.95 -8.86 -8.81 -2.93 2.95 8.86 8.81zm-42.79 -624.35l-2.94 2.95 2.96 2.94 5.87 -5.91 -5.9 -5.87 -2.94 2.95 2.95 2.94zm12.38 241.5l2.94 -2.95 -2.95 -2.94 2.93 -2.95 -2.95 -2.94 -5.87 5.91 5.9 5.87zm90.15 -468.57l8.82 -8.85 -2.96 -2.94 -8.81 8.86 2.95 2.93 -11.75 11.82 2.95 2.94 11.76 -11.82 -2.96 -2.94zm-297.29 86.16l2.94 -2.95 2.96 2.94 2.93 -2.95 -5.9 -5.88 -5.88 5.91 2.95 2.93zm17.63 -17.71l8.82 -8.86 -2.95 -2.94 -8.82 8.86 2.95 2.94zm49.89 1113.3l2.94 -2.95 -2.95 -2.94 2.93 -2.95 -2.95 -2.94 -5.88 5.9 5.91 5.88zm-330.75 -340.87l2.94 -2.95 2.95 2.94 2.94 -2.96 -5.9 -5.87 -5.88 5.9 2.95 2.94zm483.44 146.08l2.94 -2.95 2.95 2.94 2.94 -2.96 -5.91 -5.87 -2.94 2.95 -2.95 -2.94 -2.94 2.96 5.91 5.87zm-41.53 -117.72l2.94 -2.95 2.95 2.94 2.94 -2.95 -5.91 -5.88 -2.94 2.95 -2.95 -2.94 -2.94 2.96 5.91 5.87zm-10.73 -762.87l-2.95 -2.94 -5.88 5.9 -2.95 -2.93 -2.94 2.95 -2.95 -2.94 -5.88 5.9 -2.95 -2.93 -5.88 5.9 -2.95 -2.94 -2.94 2.96 -2.95 -2.94 -5.88 5.91 -2.95 -2.94 -2.94 2.95 -2.95 -2.94 -2.94 2.95 -2.95 -2.93 -2.94 2.95 -2.95 -2.94 -2.94 2.95 -2.96 -2.94 -2.93 2.96 5.9 5.88 2.94 -2.96 2.95 2.94 2.94 -2.95 2.95 2.94 2.94 -2.96 2.96 2.94 2.93 -2.95 2.96 2.94 2.93 -2.96 2.96 2.94 2.94 -2.95 2.95 2.94 5.87 -5.91 2.96 2.94 2.94 -2.95 2.95 2.93 5.88 -5.9 2.95 2.94 2.94 -2.96 2.95 2.94 2.94 -2.95 2.95 2.94 2.94 -2.96 17.71 17.64 2.94 -2.96 11.82 11.76 -2.94 2.95 2.95 2.94 -2.94 2.95 2.95 2.94 -2.93 2.95 5.9 5.88 -2.94 2.95 2.96 2.94 -2.94 2.95 2.95 2.94 -5.87 5.9 2.95 2.94 -2.94 2.96 2.95 2.93 -5.87 5.91 2.95 2.94 -2.94 2.95 2.95 2.94 -5.87 5.91 2.95 2.93 -2.94 2.96 2.95 2.93 14.7 -14.76 -2.96 -2.94 5.88 -5.9 -2.95 -2.94 8.81 -8.86 -2.95 -2.94 2.94 -2.95 -2.96 -2.94 2.94 -2.95 -2.95 -2.94 2.94 -2.95 -2.96 -2.94 5.88 -5.91 -2.95 -2.94 2.94 -2.95 -5.91 -5.88 2.94 -2.95 -2.95 -2.94 2.93 -2.95 -5.9 -5.88 2.94 -2.95 -2.96 -2.94 2.94 -2.95 -2.95 -2.94 2.94 -2.95 -5.91 -5.88 5.88 -5.9 -2.95 -2.94 26.44 -26.58 2.95 2.94 20.57 -20.67 -2.95 -2.94 5.88 -5.9 2.95 2.93 14.69 -14.76 -2.95 -2.94 2.93 -2.95 -2.95 -2.94 5.88 -5.9 -2.95 -2.94 -49.95 50.2 -2.96 -2.94 -29.38 29.53 2.95 2.94 -2.94 2.95 2.96 2.94 -2.94 2.95 5.9 5.87 -2.93 2.96 2.95 2.94 -8.82 8.85 -2.95 -2.93 -2.95 -2.94 -2.94 2.95 -17.72 -17.63 -2.94 2.95 -2.95 -2.93zm50.68 244.35l-2.95 -2.93 2.94 -2.96 -5.91 -5.87 -5.88 5.9 2.96 2.94 -2.94 2.95 11.81 11.76 2.94 -2.96 2.95 2.94 2.94 -2.95 -8.86 -8.82zm-280.83 -402.84l2.94 -2.96 2.95 2.94 8.82 -8.86 -2.95 -2.94 -5.88 5.91 -2.95 -2.94 -5.88 5.91 2.95 2.94zm88.63 105.82l14.69 -14.77 -2.95 -2.94 -14.69 14.77 2.95 2.94zm-194.9 987.25l-2.94 2.95 5.9 5.87 2.94 -2.95 2.95 2.94 2.94 -2.95 -11.81 -11.76 -2.94 2.96 2.96 2.94zm363.39 -749.08l2.94 -2.95 -2.95 -2.94 2.94 -2.95 -2.96 -2.94 2.94 -2.95 -2.95 -2.94 2.94 -2.96 -5.91 -5.87 2.94 -2.95 -2.95 -2.94 2.93 -2.96 -2.95 -2.93 2.94 -2.96 -2.95 -2.94 2.93 -2.95 -2.95 -2.94 -8.81 8.86 2.95 2.94 -5.88 5.91 -8.86 -8.82 -5.87 5.91 2.95 2.94 -2.94 2.95 2.96 2.94 2.93 -2.96 5.91 5.88 -2.94 2.95 2.95 2.94 -2.93 2.95 5.9 5.88 -2.94 2.95 2.95 2.94 -2.93 2.95 8.86 8.82 -2.94 2.95 5.9 5.88 -2.93 2.95 11.81 11.75 -2.94 2.96 11.81 11.75 2.94 -2.95 -2.95 -2.94 2.93 -2.95 -8.86 -8.82 2.94 -2.95 -5.9 -5.88 2.94 -2.95 -2.96 -2.94 2.94 -2.95 -2.95 -2.94 2.94 -2.95 -5.91 -5.88zm-377.86 -334.86l-2.94 2.95 5.91 5.88 -2.94 2.95 5.9 5.88 2.94 -2.95 -2.95 -2.94 2.94 -2.95 -5.91 -5.88 2.94 -2.95 -11.81 -11.76 -2.94 2.96 8.86 8.81zm320.29 876.99l-2.94 2.95 2.96 2.94 -5.88 5.91 2.95 2.93 11.76 -11.81 -5.91 -5.87 2.94 -2.96 -2.95 -2.93 -2.94 2.95 -2.96 -2.94 -2.93 2.95 5.9 5.88zm-113.64 -688.98l2.94 -2.96 2.95 2.94 5.88 -5.9 -8.86 -8.82 -2.94 2.95 -2.95 -2.93 -5.87 5.9 8.85 8.82zm-132.95 -161.68l2.94 -2.95 2.95 2.93 2.94 -2.95 2.96 2.94 2.93 -2.95 2.96 2.94 2.93 -2.96 -5.9 -5.87 -2.94 2.95 -8.86 -8.82 -8.81 8.86 5.9 5.88zm-16.68 400.64l5.88 -5.91 5.9 5.88 -5.87 5.9 -5.91 -5.87zm-127.73 -432.68l-2.94 2.95 2.95 2.94 2.94 -2.96 5.91 5.88 8.81 -8.86 -5.9 -5.88 2.94 -2.95 -2.96 -2.94 -2.93 2.96 -2.96 -2.94 -8.81 8.86 2.95 2.94zm494.35 985.54l5.88 -5.91 5.9 5.88 -5.87 5.9 -5.91 -5.87zm-464.83 -962.05l2.93 -2.96 5.91 5.88 5.88 -5.91 -11.82 -11.75 -2.93 2.95 -5.91 -5.87 -2.94 2.95 -2.95 -2.94 -2.94 2.96 14.77 14.69zm251.21 338.11l2.93 -2.95 8.86 8.82 -8.81 8.85 11.81 11.76 2.94 -2.95 -2.96 -2.94 2.94 -2.95 -2.95 -2.94 2.94 -2.96 -2.95 -2.93 2.93 -2.96 5.91 5.88 2.94 -2.95 2.95 2.94 5.88 -5.91 -5.91 -5.88 -2.94 2.95 -2.95 -2.93 2.94 -2.96 -5.91 -5.87 -2.94 2.95 -2.95 -2.94 -2.94 2.96 -8.85 -8.82 -8.82 8.86 5.91 5.87zm34.62 898.32l-5.88 5.91 2.96 2.93 2.94 -2.95 2.95 2.94 2.94 -2.95 2.95 2.93 -2.94 2.96 5.91 5.87 5.87 -5.9 8.86 8.81 2.94 -2.95 2.95 2.94 2.94 -2.95 2.96 2.93 2.93 -2.95 -8.86 -8.81 -2.93 2.95 -2.96 -2.94 2.94 -2.95 -2.95 -2.94 2.94 -2.95 -5.91 -5.88 -2.94 2.95 -2.95 -2.94 2.94 -2.95 -2.95 -2.94 2.93 -2.95 -5.9 -5.88 -2.94 2.96 2.95 2.93 -2.93 2.96 -2.96 -2.94 -11.75 11.81 2.95 2.94zm-387.8 -779.62l2.95 2.94 -2.93 2.95 -2.96 -2.93 2.94 -2.96zm-0.01 -5.89l2.95 2.94 -2.94 2.95 -2.95 -2.94 2.94 -2.95zm0 0l-2.96 -2.94 2.94 -2.95 2.95 2.94 -2.93 2.95zm208.83 -121.28l2.94 -2.96 -2.95 -2.93 2.93 -2.96 17.72 17.63 -2.94 2.96 -8.85 -8.82 -2.94 2.95 -5.91 -5.87zm152.9 1080.64l-2.94 2.96 -8.85 -8.82 -2.94 2.95 -5.91 -5.87 2.94 -2.95 -2.95 -2.94 2.93 -2.96 17.72 17.63 2.94 -2.95 -5.91 -5.88 2.94 -2.95 -8.86 -8.81 2.94 -2.96 -2.95 -2.94 5.88 -5.9 -2.96 -2.94 5.88 -5.91 -2.95 -2.93 5.87 -5.91 2.96 2.94 2.93 -2.95 8.86 8.81 -5.87 5.91 2.95 2.94 -2.94 2.95 2.95 2.94 -2.93 2.95 2.95 2.94 -2.94 2.95 5.91 5.88 -2.94 2.95 2.95 2.94 -2.94 2.95 2.96 2.94 -5.88 5.9 -2.95 -2.93 -2.94 2.95 -5.91 -5.88zm-20.74 -50.02l5.9 5.88 -2.93 2.95 -5.91 -5.88 2.94 -2.95zm0 0l-2.95 -2.94 2.93 -2.95 2.96 2.94 -2.94 2.95zm68.05 -1066.47l2.94 -2.95 2.95 2.94 5.88 -5.91 2.95 2.94 2.94 -2.95 2.95 2.94 2.94 -2.96 2.96 2.94 2.93 -2.95 2.96 2.94 2.93 -2.96 2.96 2.94 -8.82 8.86 -2.95 -2.94 -8.82 8.86 -2.95 -2.94 -2.94 2.96 -11.81 -11.76zm-70.85 -64.62l2.94 -2.96 8.85 8.82 -2.93 2.95 -8.86 -8.81zm152.12 768.41l-2.93 2.96 -17.72 -17.63 2.94 -2.96 2.95 2.94 2.94 -2.95 5.91 5.88 -2.94 2.95 8.85 8.81z"/>
  <path id="crown" class="fil0 str0" d="M157.61 89.09l13.26 -10.32c-82.73,-57.36 -109.4,-87.38 -148.25,82.45 -45.87,200.52 -26.59,588.74 88.6,637.59 215.99,91.58 237.44,-77.6 402.91,-75.49 79.34,1.05 104.9,60.33 152.4,68.85 76.88,-188.48 115.64,-685.66 -5.32,-773.95 -40.18,-29.33 -131.99,16.93 -161.87,59.82l39.12 51.37c-62.71,3.92 -44.19,-36.21 -91.1,-66.32 -213.32,-136.96 -149.59,-22.38 -291.73,74.56l-28.62 -0.9 30.6 -47.66z"/>
 </g>
</svg>
