<?xml version="1.0" encoding="UTF-8"?>
<!DOCTYPE svg PUBLIC "-//W3C//DTD SVG 1.1//EN" "http://www.w3.org/Graphics/SVG/1.1/DTD/svg11.dtd">
<!-- Creator: CorelDRAW (Versión de evaluación) -->
<svg xmlns="http://www.w3.org/2000/svg" xml:space="preserve" width="739px" height="2458px" version="1.1" style="shape-rendering:geometricPrecision; text-rendering:geometricPrecision; image-rendering:optimizeQuality; fill-rule:evenodd; clip-rule:evenodd"
viewBox="0 0 739 2457.4"
 xmlns:xlink="http://www.w3.org/1999/xlink"
 xmlns:xodm="http://www.corel.com/coreldraw/odm/2003">
 <defs>
  <style type="text/css">
   <![CDATA[
    .str0 {stroke:#4B4B4D;stroke-width:10;stroke-miterlimit:22.9256}
    .fil0 {fill:#FEFEFE}
   ]]>
  </style>
 </defs>
 <g id="tooth-fissure-root-13">
  <metadata id="CorelCorpID_0Corel-Layer"/>
  <path id="crown" class="fil0 str0" d="M326.71 2444.63c63.77,-3.83 115.44,54.88 275.42,-51.4 93.46,-62.09 144.2,-65.31 135.49,-190.24 -12.88,-184.76 -83.55,-354.16 -131.74,-528.97l-245.94 -165.8c-64.78,-22.43 -103.27,8.29 -149.53,42.53 -172.76,127.89 -109.41,-18.39 -156.25,247.17 -9.08,51.41 -20.94,108.61 -29.5,160.01 -55.07,330.36 -5.2,189.98 15.36,305.86 0.27,43.29 100.91,70.41 137.37,92.3 18.3,10.99 49.6,33.53 66.76,46.4 33.76,25.34 42.17,44.83 82.56,42.14z"/>
  <path id="root" class="fil0 str0" d="M231.43 1.1c-102.9,-9.92 -50.72,47.08 -47.37,191.22l-24.31 405.98c13.53,3.36 15.43,9.94 35.04,14.51l48.98 -30.17c14.32,-11.81 22.95,-26.06 38.5,-36.48 -1.71,20.53 -6.84,13.98 -16.63,29.24l-10.48 19.76c-0.14,0.33 -0.6,1.56 -0.71,1.82l-18 7.5 -12.5 12.5c-13.32,8.92 -2.91,6.84 -20.82,8.33 0,29.78 -3.14,38.81 -12.5,58.32 29.12,43.49 12.47,17.19 13.87,36.84 0.79,11.17 9.97,29.18 11.13,46.47 1.35,20.13 -2.12,38.35 4.83,53.48 8.06,17.57 2.71,1.06 14.26,14.9 3.42,4.1 7.7,14.63 10.06,19.1 15.98,10.7 7.87,12.58 25,23.75 7.49,14.06 1.49,16.51 6.86,31.88 3.78,10.82 6.57,9.65 9.8,23.52 -10.64,-3.85 -8.58,-6.58 -16.66,-12.5 -8.9,5.96 -12.45,8.19 -18.27,19.22 -3.57,6.75 -3.95,10.36 -5.82,14.98 -9.57,23.66 8.67,-18.36 -2.66,6.1 -0.32,0.68 -1.5,3.44 -1.74,2.82 -0.25,-0.62 -1.21,1.85 -1.92,2.71l1.25 4.16c-3.29,2.86 0.04,6.6 -20.83,8.33 -0.93,11.09 -4.53,25.4 -8.33,33.33 13.69,3.66 4.39,-0.8 15.14,9.85 13.23,13.13 11.18,8.23 5.68,31.8l-8.33 8.34c-3.74,16.05 -9.2,23.35 -12.49,37.49 32.26,48.18 37.88,11.93 45.82,41.65l-41.66 -16.66 -13.31 45c-11.03,20.65 -7.52,21.77 -7.52,50.81l41.55 25.24c22.86,12.26 9.02,-3.66 50.1,-0.25 3.15,-11.81 -0.88,-6.1 8.33,-12.49 -2.85,11.89 0.63,6.27 -8.33,12.49l0 12.5 4.16 8.33 4.17 8.33c9.82,7.2 11.16,13.14 12.5,29.16l-8.33 0c0,-16.44 -1.32,-16.9 -4.17,-29.16l-4.17 -8.33c-11.88,-2.84 -6.26,0.63 -12.49,-8.33 -13.3,-6.15 -28.98,5.75 -58.32,-8.33 1.9,17.38 -3.38,6.09 5.6,15.23 9.13,9.28 -1.77,3.74 15.23,5.6 -13.59,18.55 -21.89,1.69 -37.49,24.99 10.02,4.81 5.41,4.17 20.82,4.17l0 4.16c-9.74,0 -10.77,1.25 -16.66,4.17 5.19,7.74 8.87,13.82 14.94,22.55 8.76,12.58 10.56,9.57 14.22,23.27 5.64,0 4.56,-1.31 2.92,4.17 10.13,6.18 6.47,-0.48 9.32,13.25l-9.32 -4.92c-9.57,-7.95 -3.33,-5.1 -15.42,-8.33 -13.5,-1.13 -14.96,-2.94 -26.39,-7.35 -19.86,-7.66 -48.57,10.19 -40.26,28.18 -14.15,1.17 -15.25,3.17 -24.99,8.33 2.14,8.08 0.76,6.44 4.16,12.49l4.17 4.17c13.89,10.17 4.5,-3.24 9.52,15.47 1.69,6.28 2.17,8.12 2.98,17.85l4.86 0.7 -4.86 3.47 0 -4.17c-2.69,-3.09 -2.69,-1.38 -5.5,-7 -4.01,-8.01 -1.08,-2.29 -3.06,-9.43 -1.95,-7.02 -2.24,-9.59 -3.94,-16.89l-4.17 -4.17c-20.87,0.47 -28.36,6.1 -49.39,7.83 -6.32,85.01 -9.82,153.93 -7.96,185.59 95.83,-7.49 140.54,-135.67 268.94,-115.09 100.49,16.1 150.33,124.13 246.76,151.8 -33.53,-180.86 -32.01,-480.6 -65.15,-682.47 -36.29,-221.23 -57.18,-384.57 -136.96,-606.75 -42.14,-117.4 -160.65,-314 -161.28,-339.93zm-72.39 609.06l-11.72 195.82c-1.97,14.46 -4.39,33.76 -7.13,56.79 13.14,-12.22 34.94,-12.81 25.44,-33.34 45.86,9.71 27.27,-24.64 25.28,-54.71 -2.09,-31.48 6.95,8.98 -2.87,-42.63 -4.64,-24.38 6.85,-30.95 -14.07,-35.96 1.44,-17.33 6.33,-18.34 10.99,-34.3 10.72,-36.7 -7.89,-44.32 -25.92,-51.67zm-19.23 255.87c-13.27,112.2 -33.75,309.53 -47.3,473.13 5.13,-1.58 3.03,1.51 -0.25,2.98 -1.67,20.17 -3.23,39.82 -4.65,58.71 13.08,-3.38 22.91,4.17 37.15,-12.44 26,-30.32 25.47,-15 20.05,-38.27 12.53,5.79 25.47,-1.78 33.32,-12.5 -22.99,-1.92 -11.17,-7.88 -29.16,4.16 1.43,-17.16 6.35,-15.01 -4.16,-24.99l12.49 0 0 -8.33c0.24,-10.55 2.38,-22.12 5.11,-32.39 2.75,-10.38 5.85,-13.12 9.28,-28.2 8.25,-36.24 -8.36,-27.02 12.03,-62.96 10.49,-18.5 10.34,-35.93 18.52,-57.07 9.51,-24.56 -15.79,-21.73 -24.65,-16.03l-7.79 9.19c-2.97,-35.64 -14.67,-1.3 -33.33,-29.16 15.86,0 19.43,1.73 32.49,5.2 27.94,7.42 27.22,3.16 37.7,-18.32 0.42,-0.86 0.96,-1.93 1.41,-2.76l15.88 -21.61c3.22,-15.21 2.76,-18.59 -11.09,-30.59 -14.5,-12.55 -18.04,-6.62 -34.73,-2.73l-8.96 2.29 8.96 -2.29c13.34,-18.21 8.19,2.01 22.85,-18.8 6.77,-9.61 7.75,-15.32 10.48,-27.02 11.24,-0.94 11.33,-1.96 20.82,-4.17 1.31,-15.34 -1.5,-6 4.17,-15.42 15.5,-34.48 16.76,-25.03 24.34,-39.37 7.78,-14.71 1.79,-26.29 -3.51,-38.1l-7.98 1.03 -4.52 -8.12c-4.93,-5.67 0.85,3.07 -5.48,-7.01 -8.71,-13.92 -5.9,-19.95 -27.84,-34.64 -15.65,10.48 -51.34,30.61 -71.65,36.6zm138.3 275.82l1.24 -1.24c-0.08,0.08 -1.66,0.83 -1.24,1.24zm-54.16 -283.26l1.25 -1.24c-0.09,0.08 -1.66,0.82 -1.25,1.24zm79.15 41.66l1.24 -1.25c-0.08,0.08 -1.65,0.83 -1.24,1.25zm-120.8 -95.82l1.24 -1.24c-0.08,0.08 -1.66,0.83 -1.24,1.24zm-33.33 487.39l1.24 -1.25c-0.08,0.09 -1.65,0.83 -1.24,1.25zm87.48 -233.28l1.24 -1.24c-0.08,0.08 -1.65,0.83 -1.24,1.24zm62.49 316.59l0.1 1.85c3.87,-0.36 -5.83,7.95 1.3,-0.45l0.44 -1.3c-0.01,-0.02 -0.68,-0.17 -0.7,-0.19 -0.03,-0.02 -0.87,-0.18 -1.14,0.09zm-187.46 -87.48c0,10.35 6.66,1.07 2.58,0 -0.05,-0.01 -2.58,-11.82 -2.58,0zm20.83 0c0,10.35 6.66,1.07 2.58,0 -0.05,-0.01 -2.58,-11.82 -2.58,0zm129.13 -149.96c0.17,1.37 4.6,0.93 4.97,0.79 1.04,-0.39 7.24,9.64 1.81,-1.12l-2.17 -0.98c-3.23,-0.07 -5.67,-7.27 -4.61,1.31zm-124.97 412.4c-2.14,11.58 9.94,-2 4.13,-1.64 -7.8,0.49 -2.53,-6.97 -4.13,1.64zm295.77 -587.36c-2.05,11.1 8.32,-0.72 5.28,-1.52 -8.36,-2.21 -4.11,-4.82 -5.28,1.52zm-199.96 341.58c4.28,4.28 15.07,-5.99 4.84,-2.24 -0.11,0.03 -11.83,-4.75 -4.84,2.24zm299.93 -16.66l12.5 0 0 -4.16c-22.03,0 -6.21,0.02 -12.5,4.16l-16.66 0 0 4.17c2.32,0 6.8,0.08 8.05,-0.28 7.37,-2.12 4.63,-1.36 8.61,-3.89zm-304.09 191.62c3.4,-6.05 2.02,-4.41 4.16,-12.5l-8.33 4.17c-0.11,0.18 -7.47,-4.05 -3.73,11.7 1.91,7.99 2.12,4.89 7.9,9.13l0 -12.5zm58.32 -341.58l12.5 0 0 -4.17 -12.5 0 0 4.17zm70.81 137.46l4.17 4.17c0,1.89 -0.34,11.5 -0.17,12.67l4.34 12.32 0 16.67c-16.48,11.03 -8.58,14.17 -27.37,26.78 -11.91,8 -23.6,13.16 -30.95,23.2 16.93,0 23.97,-2.95 34.07,-7.58 22.28,-10.22 31.28,-24.91 42.58,-40.73 30.79,-43.08 21.78,-13.15 80.71,-19.3 27.29,-2.84 21.57,6.4 37.81,-3.68l6.79 -5.84c0.45,-0.39 1.41,-1.37 2.15,-2.01 -43.17,0 -73.12,-4.17 -112.47,-4.17 -5.55,8.29 -7.58,11.54 -12.5,20.83l-12.49 0 0 -4.17c-6.69,-13.93 -1.65,-19.39 -8.33,-33.32l-8.34 -4.17 -54.15 -41.65c5.97,22.36 36.15,37.93 54.15,49.98zm-102.89 145.8l11.25 -11.25c7.53,-10.55 14.35,-16.56 20.83,-26.24 -37.45,3.12 -11.07,-1.03 -29.16,-8.33 -8.65,20.94 5.89,-3.38 -3.37,17.49 -5.23,11.81 -24.93,31.18 -25.79,69.99l26.24 -41.66zm77.9 -420.73c-3.17,-2.75 -1.17,-2.77 -7.02,-5.47 -8.48,-3.91 -1.96,-1.07 -9.64,-2.86 9.41,12.84 -2.71,6.68 16.66,8.33zm-29.16 133.3l20.83 0 0 -4.16 -20.83 0 0 4.16zm-87.48 -199.95c10.53,-7.71 12.5,-10.7 12.5,-29.16l-4.17 0c0,15.13 -4.94,14.61 -8.33,29.16zm33.33 266.6c-1.36,-16.28 2.52,-12.65 -12.5,-16.66 1.35,16.28 -2.52,12.65 12.5,16.66zm24.99 -199.95c-2.21,-9.5 -3.23,-9.58 -4.16,-20.83l-12.5 0c3.65,13.69 6.04,13.72 16.66,20.83zm-87.48 -91.64l8.33 0c-0.41,-18.75 -1.48,-21.09 -12.49,-29.16 0,16.44 1.31,16.9 4.16,29.16zm-12.49 -45.83c3.15,5.62 2.27,4.61 4.16,12.5l12.5 0c2.92,-11.02 -0.33,-3.42 4.16,-12.5 -8.98,-7.5 -19.22,-1.96 -20.82,0zm-49.99 466.56l-12.5 0 0 16.66 16.02 -13.21c3.99,13.26 0.59,9.86 13.14,13.21 -2.28,-10.77 -1.08,-12.92 -1.92,-16.64 -3.59,-15.77 -4.6,0.97 -6.41,-20.85l-12.5 0c2.21,9.5 3.21,9.58 4.17,20.83zm66.65 -4.17c15.54,8.23 19.41,10.44 29.16,25 -24.07,-2.01 -28.53,-2.05 -29.16,-25zm-4.17 -87.48c-1.14,-6.04 2.72,-16.71 3.14,-3.14 0.17,5.41 -1.03,14.26 -3.14,3.14z"/>
 </g>
</svg>
