<?xml version="1.0" encoding="UTF-8"?>
<!DOCTYPE svg PUBLIC "-//W3C//DTD SVG 1.1//EN" "http://www.w3.org/Graphics/SVG/1.1/DTD/svg11.dtd">
<!-- Creator: CorelDRAW (Versión de evaluación) -->
<svg xmlns="http://www.w3.org/2000/svg" xml:space="preserve" width="739px" height="2458px" version="1.1" style="shape-rendering:geometricPrecision; text-rendering:geometricPrecision; image-rendering:optimizeQuality; fill-rule:evenodd; clip-rule:evenodd"
viewBox="0 0 739 2457.4"
 xmlns:xlink="http://www.w3.org/1999/xlink"
 xmlns:xodm="http://www.corel.com/coreldraw/odm/2003">
 <defs>
  <style type="text/css">
   <![CDATA[
    .str0 {stroke:#D6D2C8;stroke-width:10;stroke-miterlimit:22.9256}
    .fil0 {fill:#F5F1E8}
   ]]>
  </style>
 </defs>
 <g id="tooth-fissure-root-11">
  <metadata id="CorelCorpID_0Corel-Layer"/>
  <path id="crown" class="fil0 str0" d="M292.74 1515.02c-24.06,75.22 -174.89,148.54 -242.36,176.59 -19.76,121.94 -93.73,596.63 -14.61,689.34 68.67,80.44 563.16,94.35 663.44,56.01 85.74,-58.86 18.26,-660.17 -64.29,-729.73 -42.23,-35.58 -121.45,-107.83 -126.62,-162.04 -39.3,-9.2 -38.36,-43.02 -97.75,-52.76 -48.83,-8 -69.89,24.01 -117.81,22.59z"/>
  <path id="root" class="fil0 str0" d="M292.74 1515.02c0.41,-52.24 202.88,-79.84 215.56,30.17 19.62,4.84 145.34,146.12 146.88,148.48 11.41,-72.16 -20.13,-387.07 -29.57,-476.35 -35.52,-335.95 -122.91,-523.81 -202.77,-813.06 -60.54,-219.33 -13.69,-366.35 -100.4,-404.26 -80.88,54.32 -154.37,675.96 -166.65,802.09l-92.94 850.87c101.21,9.01 142.84,-133.95 229.89,-137.94zm100.36 -48.11l-25.42 0c3.97,-40.29 -1.37,-19.9 -6.31,-47.4 -9.36,-52.11 -15.54,-57.97 -8.92,-104.06 4.1,-28.59 1.07,-26.01 15.7,-40.38 -2.26,-27.42 0.97,-25.1 -15.79,-41.34 -0.02,-10.67 3.29,-12.94 2.4,-23.71l-14.21 -13.26c1.42,-10.41 6.41,-18.73 7.52,-28.45 1.31,-11.51 -3.76,-21.1 -4.78,-32 5.24,-2.12 11.87,-6.28 16.44,-9.89 1.42,-7.49 0.66,-14.11 2.81,-19.71 2.44,-6.33 5.08,-5.34 6.33,-15.28 0.91,-7.26 -0.88,-17.41 0.36,-23.07 1.79,-8.2 4.64,-3.41 8.94,-10.5 -7.17,-22.25 -24.93,-18.36 -14.36,-58.03 10.16,-38.13 -2.17,-32.14 -10.23,-60.53 13.47,-17.69 23.78,-2.69 21.12,-56.39 -0.61,-12.21 -2.95,-32.81 1.42,-41.56 6.44,-12.9 12.23,-5.6 9.94,-30.35 -15.73,-15.42 -7.75,-5.89 -15.9,-30.22 -6.94,-20.7 -10.23,-5.75 -6.29,-37.81 3.97,-32.32 7.59,-32.54 8.64,-41.2 2.03,-16.85 -4.42,-22.5 -11.38,-37.15 1.96,-10.24 6.48,-15.27 8.42,-30.31l1.42 -11.04c1.2,22.47 -4.29,24.87 -7.03,41.35 4.93,10.77 12.33,14.29 11.83,33.59 -0.28,10.87 -5.46,27.82 -7.24,41.46 -4.03,30.88 -0.16,18.36 6.39,36.26 6.8,18.6 1.5,17.14 17.19,26.84 5.04,65.46 -13.72,16.37 -9.9,75.33 2.74,42.27 6.26,41.42 -12.76,67.12 3.2,10.73 7.83,16.04 10.49,31.25 3.27,18.66 -13.9,35.18 -1.12,50.9 4.64,5.7 4.24,5.36 7.9,12.4 5.27,10.17 9.53,17.84 13.89,27.97l-17.03 15.28c-0.73,9.55 1.38,14.96 -0.55,23.24 -1.73,7.48 -5.41,7.87 -6.89,15.77 -4.24,22.7 7.22,22.49 -11.41,33.13 1.34,15.03 0.6,13.74 -0.9,27.82 5.97,3.12 9.36,7.29 14.57,10.41l-4.23 24.09c21.29,21.09 6.82,7.26 13.07,44.91 1.81,10.91 5.22,18.42 6.04,28.88 -11.55,11.07 -18.97,17.56 -20.66,31.54 -4.72,39.04 5.73,31.63 6.81,49.47 1.39,22.98 -6.33,8.53 5.82,35.22 14,30.78 10.46,32.5 7.85,59.41z"/>
 </g>
</svg>
