<?xml version="1.0" encoding="UTF-8"?>
<!DOCTYPE svg PUBLIC "-//W3C//DTD SVG 1.1//EN" "http://www.w3.org/Graphics/SVG/1.1/DTD/svg11.dtd">
<!-- Creator: CorelDRAW (Versión de evaluación) -->
<svg xmlns="http://www.w3.org/2000/svg" xml:space="preserve" width="739px" height="2458px" version="1.1" style="shape-rendering:geometricPrecision; text-rendering:geometricPrecision; image-rendering:optimizeQuality; fill-rule:evenodd; clip-rule:evenodd"
viewBox="0 0 739 2457.4"
 xmlns:xlink="http://www.w3.org/1999/xlink"
 xmlns:xodm="http://www.corel.com/coreldraw/odm/2003">
 <defs>
  <style type="text/css">
   <![CDATA[
    .str0 {stroke:#373435;stroke-width:10;stroke-miterlimit:22.9256}
    .fil0 {fill:#FEFEFE}
   ]]>
  </style>
 </defs>
 <g id="tooth-fissure-root-42">
  <metadata id="CorelCorpID_0Corel-Layer"/>
  <path id="root" class="fil0 str0" d="M88.71 793.8c4.4,112.08 32.6,296.97 48.58,415.16l57.77 833.93c3.74,93.57 -14.15,346.4 21.4,412.25 114.72,14.34 128.61,-41.27 172.3,-118.95 285.18,-507.25 216.43,-1074.36 304.34,-1531.14 -67.93,32.21 -130.32,94.96 -207.57,126.17 -198.47,80.21 -250.75,-73.41 -396.82,-137.42zm225.98 1463.04l8.33 0 0 8.33 -8.33 0 0 -8.33zm-162.23 -828.96l1.73 24.99 2.21 0 0 -12.49 4.16 0 0 -12.5 -8.1 0zm3.75 54.15l0.19 2.71 0 -2.71 -0.19 0zm0.29 4.17l2.02 29.16 2.04 0 0 8.33 4.17 0 0 4.16 4.16 0 0 4.17 4.17 0 0 8.33 4.16 0 0 4.17 4.17 0 0 4.16 -4.17 0 0 4.17 0 4.16 -4.16 0 0 4.17 -4.17 0 0 8.33 -4.16 0 0 4.17 -2.17 0 2.17 31.34 0 -6.35 4.16 0 0 -20.83 4.17 0 0 -8.33 4.16 0 0 -8.33 4.17 0 0 -4.17 4.16 0 0 -4.16 4.17 0 0 8.33 4.17 0 0 4.17 4.16 0 0 4.16 4.17 0 0 4.17 4.16 0 0 16.66 4.17 0 0 4.16 -8.33 0 0 4.17 -8.33 0 0 12.5 24.99 0 0 -4.17 4.17 0 0 -4.16 8.33 0 0 4.16 4.16 0 0 4.17 4.17 0 0 4.16 4.16 0 8.34 0 12.49 0 0 -8.33 4.17 0 0 -4.16 4.16 0 0 -8.34 -4.16 0 0 -8.33 4.16 0 0 -4.16 4.17 0 0 -4.17 8.33 0 0 -4.16 20.83 0 0 -4.17 4.17 0 16.66 0 0 4.17 8.33 0 0 -8.33 -4.17 0 0 -4.17 4.17 0 0 -4.17 4.16 0 0 -4.16 8.34 0 0 -4.17 4.16 0 0 -4.16 8.33 0 0 -4.17 4.17 0 0 4.17 4.16 0 0 8.33 4.17 0 0 -4.17 8.33 0 0 -4.16 4.17 0 0 4.16 12.49 0 0 4.17 12.5 0 0 4.16 4.17 0 0 4.17 8.33 0 0 4.17 8.33 0 0 4.16 8.33 0 0 4.17 4.17 0 0 -4.17 -4.17 0 0 -4.16 -4.17 0 0 -4.17 -4.16 0 0 -4.17 -4.17 0 0 -4.16 -8.33 0 0 -4.17 -4.16 0 0 -8.33 -4.17 0 0 -4.17 -4.16 0 0 -8.33 -4.17 0 0 -8.33 -4.17 0 0 -12.49 -4.16 0 0 -4.17 -4.17 0 0 -12.5 4.17 0 0 -4.16 4.16 0 0 -4.17 -4.16 0 0 -4.16 -12.5 0 0 -4.17 -4.16 0 0 -8.33 -4.17 0 0 12.5 4.17 0 0 12.49 -4.17 0 0 12.5 -4.17 0 0 4.17 0 4.16 -4.16 0 0 4.17 -12.5 0 0 4.16 -8.33 0 0 4.17 -4.17 0 0 8.33 -4.16 0 0 4.16 -4.17 0 0 4.17 -4.16 0 0 4.17 -4.17 0 0 4.16 -4.16 0 0 4.17 -8.33 0 0 4.16 -4.17 0 0 4.17 -12.5 0 0 4.17 -8.33 0 0 -4.17 -4.16 0 0 4.17 -4.17 0 0 8.33 -4.17 0 0 4.16 -4.16 0 0 4.17 -4.17 0 0 4.16 -4.16 0 0 4.17 -20.83 0 0 -4.17 -8.33 0 0 -4.16 -4.17 0 0 -4.17 -4.16 0 0 -4.16 -4.17 0 0 -8.33 -4.17 0 0 -8.34 -4.16 0 0 -4.16 -4.17 0 0 -4.17 -4.16 0 0 -8.33 -4.17 0 0 -8.33 -4.16 0 0 -4.17 -8.34 0 0 -8.33 -4.16 0 0 -4.16 -4.17 0 0 -8.33 -4.16 0 0 -12.5 -4.17 0 0 -4.17 -4.16 0 0 -4.16 -8.23 0zm8.37 120.8l0.57 8.33 7.62 0 0 -4.16 4.16 0 12.5 0 0 -8.33 -4.17 0 0 -8.34 -8.33 0 0 4.17 -4.16 0 0 8.33 -8.19 0zm11.25 162.46l1.73 25 7.7 0 0 4.16 4.17 0 0 4.17 4.17 0 0 4.16 8.33 0 0 4.17 12.49 0 0 4.16 4.17 0 0 20.83 4.17 0 0 20.83 4.16 0 0 4.17 4.17 0 0 -20.83 4.16 0 0 -12.5 4.17 0 0 -8.33 4.16 0 0 -4.17 4.17 0 0 -4.16 8.33 0 0 -4.17 8.33 0 0 8.33 4.17 0 0 33.33 4.16 0 0 24.99 -4.16 0 0 8.33 -4.17 0 0 4.17 -8.33 0 0 4.17 -4.16 0 0 4.16 -4.17 0 0 4.17 -8.33 0 0 8.33 -4.17 0 0 4.16 12.5 0 0 -4.16 4.17 0 0 -4.17 8.33 0 0 -4.16 8.33 0 0 -4.17 8.33 0 0 -4.16 4.17 0 0 -4.17 8.33 0 0 4.17 4.16 0 0 4.16 4.17 0 0 4.17 4.16 0 0 8.33 4.17 0 0 8.33 4.17 0 0 8.33 4.16 0 0 4.17 4.17 0 0 4.16 4.16 0 0 12.5 4.17 0 0 16.66 -4.17 0 0 12.5 4.17 0 0 8.33 4.16 0 0 16.66 4.17 0 0 12.5 4.16 0 0 20.83 4.17 0 0 16.66 -4.17 0 0 8.33 -4.16 0 0 4.17 -8.33 0 0 4.16 20.83 0 0 4.17 4.16 0 0 12.5 4.17 0 0 12.49 4.16 0 0 8.33 4.17 0 0 4.17 4.16 0 0 4.17 4.17 0 0 4.16 4.17 0 0 4.17 8.33 0 0 8.33 -4.17 0 0 12.5 -4.16 0 0 16.66 -4.17 0 0 4.16 -4.17 0 0 4.17 -4.16 0 0 4.16 -12.5 0 0 4.17 -16.66 0 0 4.17 -16.66 0 0 -4.17 -4.17 0 0 -4.17 -8.33 0 0 -4.16 -45.82 0 0 -4.17 -8.33 0 -4.17 0 0 -4.16 -4.17 0 0 -8.33 -4.16 0 0 12.49 -8.33 0 -16.67 0 0 -4.16 -20.04 0c-0.36,22.74 -0.71,46.69 -0.83,70.81l4.21 0 0 4.17 -4.23 0c-0.02,4.16 -0.03,8.33 -0.03,12.5l8.43 0 0 8.33 4.16 0 0 4.16 4.17 0 0 4.17 12.5 0 0 16.66 8.33 0 4.16 0 0 12.5 -4.16 0 0 12.5 8.33 0 0 -4.17 4.16 0 0 -4.17 -4.16 0 0 -4.16 4.16 0 0 -16.66 8.34 0 8.33 0 0 4.16 -4.17 0 0 4.17 -4.16 0 0 8.33 8.33 0 0 -4.17 8.33 0 0 -4.16 4.16 0 0 8.33 4.17 0 0 8.33 4.17 0 0 4.17 4.16 0 0 12.49 4.17 0 0 4.17 -12.5 0 0 4.16 -4.17 0 0 8.33 4.17 0 0 4.17 16.66 0 0 -4.17 4.17 0 0 -4.16 4.16 0 0 -4.17 8.34 0 0 -4.16 8.33 0 0 -4.17 4.16 0 4.17 0 0 4.17 12.49 0 0 -4.17 4.17 0 0 4.17 8.33 0 0 4.16 4.17 0 0 4.17 4.16 0 0 4.16 4.17 0 0 8.34 12.5 0 0 12.49 2.53 0c2.89,-5.36 5.89,-10.85 9.05,-16.46 0.81,-1.45 1.59,-2.91 2.4,-4.37l-1.49 0 0 -4.16 -8.33 0 0 -4.17 -4.16 0 0 -8.33 -4.17 0 0 -8.33 0 -12.5 -4.17 0 0 -8.33 -4.16 0 0 -4.16 4.16 0 0 -8.33 -4.16 0 0 -12.5 -8.33 0 0 -16.66 -4.17 0 0 -4.17 4.17 0 0 -8.33 4.16 0 0 -12.5 4.17 0 0 -12.49 4.16 0 0 -8.34 4.17 0 0 -4.16 4.17 0 0 -8.33 4.16 0 0 -4.17 4.17 0 0 -8.33 -4.17 0 0 -4.17 4.17 0 0 -4.16 4.16 0 0 -8.33 4.17 0 0 -8.33 4.16 0 0 -4.17 8.34 0 0 -4.16 8.33 0 0 4.16 4.16 0 0 -4.16 4.17 0 0 4.16 12.49 0 0 4.17 8.34 0 0 -4.17 12.49 0 0 4.17 12.5 0 0 -4.17 -4.17 0 0 -4.16 -8.33 0 0 -8.34 -49.98 0 0 -4.16 8.33 0 0 -8.33 -8.33 0 0 -4.17 -4.17 0 0 -4.16 -4.17 0 0 -4.17 -12.49 0 -4.17 0 0 -8.33 -4.16 0 0 -4.17 -4.17 0 0 -8.33 -4.17 0 0 -8.33 -4.16 0 0 -8.33 -4.17 0 0 -8.33 -4.16 0 0 -37.49 -4.17 0 0 -20.83 -4.16 0 0 -16.66 -4.17 0 0 -8.33 12.5 0 0 4.16 8.33 0 0 12.5 4.16 0 0 4.16 4.17 0 0 12.5 4.17 0 0 4.17 4.16 0 0 4.16 4.17 0 0 4.17 4.16 0 0 -8.33 -4.16 0 0 -4.17 -4.17 0 0 -8.33 -4.16 0 0 -8.33 -4.17 0 0 -8.33 -4.17 0 0 -4.17 4.17 0 0 -12.5 -8.33 0 0 -4.16 -4.17 0 0 -8.33 -4.16 0 0 -25 8.33 0 0 4.17 4.16 0 0 4.16 4.17 0 0 8.33 -4.17 0 0 4.17 8.34 0 0 -24.99 -4.17 0 0 -4.17 -4.17 0 0 -8.33 4.17 0 4.17 0 0 -4.17 8.33 0 0 -4.16 12.49 0 0 -4.17 4.17 0 0 -12.49 4.17 0 0 -4.17 4.16 0 0 -8.33 -4.16 0 0 4.16 -12.5 0 0 12.5 -8.33 0 0 4.17 -12.5 0 0 -4.17 -4.17 0 0 -8.33 -4.16 0 0 -8.33 -4.17 0 0 -4.17 -4.16 0 0 -4.16 -4.17 0 0 -12.5 -4.16 0 0 -8.33 -4.17 0 0 -12.5 -4.17 0 0 -4.16 4.17 0 0 -12.5 4.17 0 0 -4.17 4.16 0 0 -4.16 4.17 0 0 -4.17 -4.17 0 0 -12.49 -4.16 0 0 -8.34 -4.17 0 0 -8.33 -4.17 0 0 -8.33 -4.16 0 0 -4.16 -4.17 0 0 -4.17 -4.16 0 0 4.17 -4.17 0 0 8.33 8.33 0 0 4.16 4.17 0 0 8.33 -4.17 0 0 4.17 -4.16 0 0 -4.17 -4.17 0 0 -8.33 -12.49 0 0 8.33 4.16 0 0 4.17 4.17 0 0 4.17 4.16 0 0 4.16 4.17 0 0 8.33 -4.17 0 0 4.17 -4.16 0 0 4.16 8.33 0 4.16 0 0 12.5 4.17 0 0 20.83 4.16 0 0 16.66 4.17 0 0 8.33 4.17 0 0 12.5 4.16 0 0 8.33 -4.16 0 0 4.17 -4.17 0 0 8.33 -4.17 0 0 4.16 -4.16 0 0 4.17 -8.33 0 0 -4.17 -4.17 0 0 -4.16 0 -4.17 -4.16 0 0 -4.16 -4.17 0 0 -4.17 -4.16 0 0 -4.16 -4.17 0 0 -4.17 -4.17 0 0 -4.17 -4.16 0 0 -4.16 -4.17 0 0 -4.17 -4.16 0 0 -8.33 -4.17 0 0 -8.33 -4.16 0 0 -16.66 -4.17 0 0 -4.17 4.17 0 0 -33.32 4.16 0 0 -8.33 4.17 0 0 -4.17 8.33 0 0 -4.17 8.33 0 0 -4.16 -12.5 0 0 4.16 -12.49 0 0 -4.16 4.16 0 0 -4.17 8.33 0 0 -4.16 4.17 0 0 -4.17 -8.33 0 0 4.17 -12.5 0 0 -4.17 -4.17 0 0 -12.49 -4.16 0 0 -8.34 -4.17 0 0 -4.16 -4.16 0 0 -4.17 -4.17 0 0 -4.16 -4.16 0 0 -4.17 -4.17 0 0 -4.16 -29.16 0 0 4.16 12.5 0 0 4.17 8.33 0 0 4.16 4.16 0 0 4.17 4.17 0 0 12.5 4.17 0 0 8.33 4.16 0 0 4.16 4.17 0 0 -8.33 4.16 0 0 8.33 4.17 0 0 8.33 -8.33 0 0 8.33 -8.33 0 0 4.17 -4.17 0 0 4.17 -4.17 0 0 4.16 -4.16 0 0 4.17 -4.17 0 -4.16 0 -8.33 0 0 -4.17 -8.34 0 0 -4.16 -16.66 0 0 -8.34 -4.16 0 0 -4.16 -16.67 0 0 -12.5 -1.1 0zm19.41 324.92c-0.02,2.74 -0.04,5.51 -0.07,8.33l2.59 0 0 -8.33 4.17 0 0 -4.16 -4.17 0 0 4.16 -2.52 0zm81.67 360.87c2.87,-0.49 5.65,-1.05 8.33,-1.7l0 -0.92 3.54 0 0.63 -0.18 0 -28.98 4.16 0 0 -4.17 -8.33 0 0 -4.16 -16.66 0 0 16.66 4.16 0 0 4.17 4.17 0 0 19.28zm302.52 -664.96c0.53,-2.78 1.05,-5.56 1.57,-8.34l0 -4.16 0 -4.16 1.57 0c0.5,-2.78 0.98,-5.56 1.48,-8.33l-7.21 0 0 4.16 -4.17 0 0 16.66 4.17 0 0 4.17 2.59 0zm5.36 -29.16l0.38 -2.11 0 -2.05 0.36 0c2.21,-12.5 4.33,-25 6.35,-37.5l-2.55 0 0 8.34 -4.16 0 0 16.66 -4.17 0 0 16.66 3.79 0zm8.71 -51.79l0.38 -2.36 -0.38 0 0 2.36zm6.05 -39.85c0.4,-2.78 0.8,-5.56 1.19,-8.33l-3.08 0 0 -4.17 -4.16 0 0 -4.17 -4.17 0 0 -8.33 -4.16 0 0 -4.16 -4.17 0 0 -4.17 -4.16 0 0 -8.33 -4.17 0 0 -4.17 -4.16 0 0 -8.33 -4.17 0 0 -4.16 -4.17 0 0 -4.17 4.17 0 0 -4.16 12.5 0 0 -4.17 -16.67 0 0 -4.17 -4.16 0 0 -4.16 4.16 0 0 -4.17 4.17 0 0 -4.16 12.5 0 0 -4.17 12.49 0 0 -4.16 4.17 0 0 -4.17 -12.5 0 0 -8.33 -8.33 0 0 -12.5 4.17 0 0 4.17 12.49 0 0 4.16 24.67 0c0.48,-4.16 0.94,-8.33 1.4,-12.49l-1.07 0 0 4.16 -20.83 0 0 -4.16 -8.33 0 0 -4.17 -4.17 0 0 -4.17 -4.16 0 0 -4.16 -8.33 0 0 -4.17 -8.34 0 0 -4.16 -8.33 0 0 -4.17 -4.16 0 0 -41.65 4.16 0 0 -8.34 4.17 0 0 -4.16 4.16 0 0 -20.83 4.17 0 0 -12.5 4.17 0 0 -8.33 12.49 0 0 4.17 4.17 0 0 4.16 16.66 0 0 4.17 4.17 0 0 4.17 4.16 0 0 -8.34 -4.16 0 0 -4.16 -12.5 0 0 -4.17 -8.33 0 0 -4.16 -8.33 0 0 -4.17 -4.17 0 0 -8.33 -4.16 0 0 -4.17 -4.17 0 0 -12.49 4.17 0 0 -8.33 4.16 0 0 -12.5 4.17 0 0 -8.33 4.16 0 0 -4.17 4.17 0 0 -4.16 0 -8.33 4.16 0 0 -16.67 -4.16 0 0 -4.16 -8.33 0 0 -8.33 -4.17 0 0 -4.17 -8.33 0 0 -4.17 4.17 0 0 -16.66 4.16 0 0 -12.5 12.5 0 0 -4.16 8.33 0 0 -4.17 0 -4.16 4.16 0 0 -16.66 4.17 0 0 -8.34 4.17 0 0 -8.33 4.16 0 0 -4.16 4.17 0 0 -4.17 4.16 0 0 -4.16 8.34 0 0 4.16 4.16 0 0 8.33 8.33 0 0 -8.33 -4.16 0 0 -8.33 -4.17 0 0 -8.33 -4.16 0 0 -29.16 -4.17 0 0 -4.17 -8.33 0 0 -4.16 -4.17 0 0 -8.33 -4.16 0 0 -4.17 -4.17 0 0 -4.17 -4.17 0 0 -4.16 -4.16 0 0 -8.33 -4.17 0 0 -8.33 -4.16 0 0 -4.17 -8.33 0 0 -4.16 -4.17 0 0 -16.67 -4.16 0 0 -54.15 -4.17 0 0 -16.66 -4.17 0 0 -12.5 -4.16 0 0 -12.5 4.16 0 0 -8.33 -4.16 0 0 -4.16 -4.17 0 0 -8.34 -4.16 0 0 -4.16 -4.17 0 0 -8.33 4.17 0 0 -12.5 4.16 0 0 -8.33 4.17 0 0 -33.33 12.5 0 0 -4.16 4.16 0 0 -4.17 4.17 0 4.16 0 0 -4.16 4.17 0 0 -4.17 4.16 0 0 -4.16 8.33 0 0 -4.17 12.5 0 0 -4.17 -4.16 0 0 -4.16 4.16 0 0 -4.17 4.17 0 0 -8.33 4.16 0 0 -8.33 4.17 0 0 -4.16 4.17 0 0 -4.17 4.16 0 0 -4.17 4.17 0 0 -12.49 -4.17 0 0 4.16 -4.16 0 0 4.17 -4.17 0 0 4.16 -4.17 0 0 4.17 -4.16 0 0 4.17 -4.17 0 0 4.16 -4.16 0 0 4.17 -4.17 0 0 4.16 -4.17 0 0 4.17 -4.16 0 0 4.16 -8.33 0 0 4.17 -8.33 0 0 4.16 -4.17 0 0 4.17 -4.16 0 0 4.17 -8.34 0 0 4.16 -4.16 0 0 4.17 -16.66 0 0 -4.17 -5.87 0c-3.57,2.09 -7.17,4.13 -10.8,6.12l0 2.21 4.17 0 0 4.17 8.33 0 0 4.16 4.17 0 0 16.67 4.16 0 0 4.16 -4.16 0 0 16.66 -4.17 0 0 12.5 -4.17 0 0 8.33 -4.16 0 0 12.5 8.33 0 0 4.17 4.17 0 0 33.32 4.16 0 0 16.66 4.17 0 0 8.33 -4.17 0 0 25 4.17 0 0 29.16 4.16 0 0 4.16 -4.16 0 0 8.34 -4.17 0 0 4.16 -12.5 0 0 4.17 -4.16 0 0 -4.17 -8.33 0 0 4.17 4.16 0 0 8.33 -4.16 0 0 4.16 -4.17 0 0 4.17 -4.16 0 0 4.16 -8.33 0 0 4.17 -8.34 0 0 4.17 -4.16 0 0 4.16 8.33 0 0 -4.16 12.5 0 0 -4.17 8.33 0 0 -4.17 4.16 0 0 -4.16 8.33 0 0 -4.17 8.34 0 0 -4.16 8.33 0 0 -4.17 8.33 0 0 -4.16 4.16 0 0 -4.17 8.34 0 0 4.17 4.16 0 0 4.16 4.17 0 0 4.17 4.16 0 0 4.16 4.17 0 0 8.33 4.16 0 0 8.34 4.17 0 0 8.33 4.16 0 0 4.16 4.17 0 0 4.17 8.33 0 0 4.17 4.17 0 0 8.33 4.16 0 0 8.33 -4.16 0 0 8.33 4.16 0 0 4.16 -4.16 0 0 4.17 -4.17 0 0 8.33 -4.16 0 0 4.17 -4.17 0 0 4.16 -4.17 0 0 8.33 -4.16 0 0 8.34 -4.17 0 0 4.16 0 4.17 -4.16 0 0 12.49 -8.33 0 0 4.17 -12.5 0 0 8.33 -4.17 0 0 12.5 -4.16 0 0 4.16 -4.17 0 0 8.33 -4.16 0 0 4.17 -12.5 0 0 4.17 -4.17 0 0 4.16 -8.33 0 0 4.17 8.33 0 0 -4.17 8.34 0 0 -4.16 20.82 0 0 4.16 4.17 0 0 4.17 4.17 0 0 4.16 4.16 0 0 4.17 4.17 0 0 8.33 4.16 0 0 4.17 -4.16 0 0 8.33 -4.17 0 0 8.33 -4.16 0 0 4.16 -4.17 0 0 8.33 -4.17 0 0 4.17 -4.16 0 0 16.66 -8.33 0 0 4.17 -20.83 0 0 -4.17 -16.66 0 0 -4.16 -20.83 0 0 4.16 4.16 0 0 4.17 4.17 0 0 4.16 8.33 0 0 -4.16 4.17 0 0 4.16 8.33 0 0 4.17 4.16 0 0 12.5 4.17 0 0 -8.33 4.16 0 0 -4.17 20.83 0 0 4.17 4.17 0 0 4.16 4.16 0 0 4.17 -4.16 0 0 8.33 -4.17 0 0 12.5 -4.16 0 0 20.82 -4.17 0 0 12.5 -4.16 0 0 8.33 -4.17 0 0 8.33 -4.17 0 0 4.17 -4.16 0 0 49.99 -4.17 0 0 16.66 -4.16 0 0 8.33 -4.17 0 0 20.83 -4.16 0 0 16.66 0 8.33 -12.5 0 0 4.17 8.33 0 0 8.33 -4.16 0 0 12.5 4.16 0 0 -4.17 4.17 0 0 -4.16 8.33 0 0 4.16 12.49 0 0 4.17 -4.16 0 0 4.16 -8.33 0 0 4.17 -8.33 0 0 4.16 -8.33 0 0 -4.16 -4.17 0 0 8.33 4.17 0 0 8.33 -4.17 0 0 4.17 -4.17 0 0 4.16 -8.33 0 0 4.17 -4.16 0 0 8.33 -4.17 0 0 4.16 -4.16 0 0 4.17 -8.34 0 0 4.17 -29.16 0 0 4.16 -8.33 0 0 4.17 29.16 0 0 -4.17 16.67 0 0 -4.16 16.66 0 0 4.16 4.16 0 0 8.33 4.17 0 0 16.67 4.17 0 0 8.33 4.16 0 0 4.16 4.17 0 0 -4.16 -4.17 0 0 -12.5 -4.16 0 0 -16.66 -4.17 0 0 -4.17 -4.17 0 0 -4.16 -4.16 0 0 -4.17 -4.17 0 0 -8.33 4.17 0 0 -4.17 8.33 0 0 -4.16 12.5 0 0 -4.17 -4.17 0 0 -8.33 4.17 0 0 -4.16 4.16 0 0 -4.17 8.33 0 0 -4.17 8.33 0 0 -4.16 8.34 0 0 -4.17 4.16 0 0 4.17 8.33 0 0 4.16 12.5 0 0 4.17 12.5 0 8.33 0 0 4.17 4.16 0 0 4.16 4.17 0 0 4.17 6.05 0zm-22.71 -512.38l4.16 0 0 -4.17 -4.16 0 0 4.17zm-337.42 958.1l4.16 0 0 -4.16 -4.16 0 0 4.16zm262.44 -524.87l4.16 0 0 -4.17 -4.16 0 0 4.17zm-204.12 841.46l4.16 0 0 -4.16 -4.16 0 0 4.16zm237.44 -1328.84l4.17 0 0 -4.17 -4.17 0 0 4.17zm-237.44 662.34l4.16 0 0 -4.17 -4.16 0 0 4.17zm37.49 -104.14l4.16 0 0 -4.17 -4.16 0 0 4.17zm-16.66 408.23l4.16 0 0 -4.17 -4.16 0 0 4.17zm270.76 -712.33l4.17 0 0 -4.16 -4.17 0 0 4.16zm-124.97 233.28l4.17 0 0 -8.33 -4.17 0 0 8.33zm-79.14 504.04l4.16 0 0 -8.33 -4.16 0 0 8.33zm-187.46 -37.49l4.17 0 0 -8.33 -4.17 0 0 8.33zm33.33 58.32l4.16 0 0 -8.33 -4.16 0 0 8.33zm208.28 -474.88l8.33 0 0 -4.17 -8.33 0 0 4.17zm-54.15 399.9l4.16 0 0 -8.33 -4.16 0 0 8.33zm-158.3 112.47l4.17 0 0 -8.33 -4.17 0 0 8.33zm116.64 -245.77l4.17 0 0 -8.33 8.33 0 0 -4.17 4.16 0 0 12.5 -4.16 0 0 4.16 -4.17 0 0 4.17 -8.33 0 0 -8.33zm-87.48 416.56l8.33 0 0 -4.16 -8.33 0 0 4.16zm329.09 -720.65l8.33 0 0 -4.17 -8.33 0 0 4.17zm-249.94 108.3l4.16 0 0 -8.33 -4.16 0 0 8.33zm79.15 374.91l8.33 0 0 -4.16 -8.33 0 0 4.16zm-154.13 224.95l8.33 0 0 -4.17 -8.33 0 0 4.17zm224.94 -720.66l4.17 0 0 -8.33 -4.17 0 0 8.33zm-245.77 554.03l4.16 0 0 -12.5 -4.16 0 0 12.5zm249.94 -291.6l4.16 0 0 -4.16 4.17 0 0 -4.17 -8.33 0 0 8.33zm-54.16 308.26l4.17 0 0 4.17 4.17 0 0 -8.33 -8.34 0 0 4.16zm179.13 -724.82l4.16 0 0 4.17 4.17 0 0 -8.34 -8.33 0 0 4.17zm-179.13 683.17l8.34 0 0 -4.17 -4.17 0 0 -4.16 -4.17 0 0 8.33zm-87.47 -487.38l4.16 0 0 -4.17 4.17 0 0 -8.33 -4.17 0 0 4.16 -4.16 0 0 8.34 -4.17 0 0 4.16 -4.17 0 0 4.17 8.34 0 0 4.16 4.16 0 0 8.33 -4.16 0 0 8.34 4.16 0 0 20.82 8.33 0 0 -20.82 -4.16 0 0 -8.34 4.16 0 0 -8.33 -4.16 0 0 -4.16 -4.17 0 0 -4.17 -4.16 0 0 -4.16zm58.32 437.39l8.33 0 0 -8.33 -8.33 0 0 8.33zm-87.48 133.3l0 4.17 4.16 0 0 8.33 -4.16 0 0 4.16 -4.17 0 0 4.17 -20.83 0 0 4.16 -8.33 0 0 -4.16 -8.33 0 0 -4.17 -4.17 0 0 -4.16 -4.16 0 0 -4.17 4.16 0 0 -4.16 4.17 0 0 -4.17 4.17 0 0 -4.17 -12.5 0 0 -4.16 -4.17 0 0 -4.17 -4.16 0 0 4.17 -4.17 0 0 4.16 -4.16 0 0 -4.16 -4.17 0 0 -4.17 -4.17 0 0 -4.16 4.17 0 0 -4.17 24.99 0 0 -4.16 4.17 0 0 4.16 8.33 0 0 4.17 8.33 0 0 8.33 4.17 0 0 -4.17 8.33 0 0 4.17 4.17 0 0 4.16 4.16 0 0 4.17 4.17 0zm258.27 -987.26l-4.17 0 0 8.33 -4.16 0 0 8.33 4.16 0 0 -4.16 4.17 0 0 -8.33 4.16 0 0 -16.67 -4.16 0 0 12.5zm12.49 279.1l4.17 0 0 4.16 8.33 0 0 -12.49 -4.17 0 0 -4.17 -8.33 0 0 12.5zm20.83 -208.28l4.17 0 0 4.16 4.16 0 0 4.17 4.17 0 0 4.16 4.17 0 0 -8.33 -4.17 0 0 -12.5 -12.5 0 0 8.34zm-295.76 270.76l8.33 0 0 8.34 -8.33 0 0 -8.34zm216.61 -395.73l-4.16 0 0 4.16 4.16 0 0 8.33 12.5 0 0 -8.33 4.17 0 0 -4.16 -4.17 0 0 -4.17 -12.5 0 0 4.17zm-283.26 649.84l-8.33 0 0 -4.17 4.16 0 0 -4.16 4.17 0 0 8.33zm66.65 466.55l-4.16 0 0 -24.99 16.66 0 0 16.66 -12.5 0 0 8.33zm220.78 -1078.9l4.17 0 0 8.33 8.33 0 0 -16.66 -4.17 0 0 -8.33 -4.16 0 0 -4.17 -4.17 0 0 20.83zm-224.94 541.53l-4.17 0 0 25 4.17 0 0 8.33 4.16 0 0 -37.49 -4.16 0 0 4.16zm162.46 -124.97l4.16 0 0 12.5 -12.5 0 0 16.66 4.17 0 0 -4.16 4.17 0 0 -4.17 4.16 0 0 -4.16 4.17 0 0 8.33 4.16 0 0 4.16 8.33 0 0 -8.33 -4.16 0 0 -4.16 4.16 0 0 -8.34 -4.16 0 0 -4.16 -4.17 0 0 -12.5 -12.49 0 0 8.33zm-216.62 737.32l-4.16 0 0 8.34 8.33 0 0 4.16 8.33 0 0 8.33 -4.17 0 0 16.66 -4.16 0 0 4.17 4.16 0 0 8.33 4.17 0 0 4.17 12.5 0 0 -4.17 -4.17 0 0 -8.33 -8.33 0 0 -4.17 4.16 0 0 -4.16 4.17 0 0 -4.17 4.17 0 0 -4.16 4.16 0 0 -12.5 -4.16 0 0 -4.16 -8.34 0 0 -8.34 -4.16 0 0 -4.16 -12.5 0 0 4.16zm120.81 -845.62l4.16 0 0 -4.17 4.17 0 0 24.99 -4.17 0 0 -12.49 -4.16 0 0 -8.33zm-112.48 287.43l4.17 0 0 4.16 -4.17 0 0 -4.16zm-4.16 -33.33l-4.17 0 0 -8.33 4.17 0 0 8.33zm283.26 -137.47l4.17 0 0 4.17 8.33 0 0 4.17 4.16 0 0 4.16 4.17 0 0 4.17 4.17 0 0 4.16 4.16 0 0 4.17 -12.5 0 0 -4.17 -12.49 0 0 -4.16 -4.17 0 0 -16.67zm-4.16 -95.81l4.16 0 0 12.5 -4.16 0 0 -12.5zm-283.27 733.16l4.17 0 0 4.16 -4.17 0 0 -4.16zm-49.99 -20.83l12.5 0 0 4.17 8.33 0 0 4.16 -12.5 0 0 -4.16 -8.33 0 0 -4.17zm-8.33 -8.33l4.17 0 0 4.17 -4.17 0 0 -4.17zm45.82 -24.99l4.17 0 0 -4.17 4.17 0 0 24.99 -4.17 0 0 -12.49 -4.17 0 0 -8.33zm-8.33 20.82l-4.16 0 0 -24.99 4.16 0 0 4.17 4.17 0 0 8.33 -4.17 0 0 12.49z"/>
  <path id="crown" class="fil0 str0" d="M518.43 878.56c82.1,-43.32 186.61,-98.81 204.82,-182.02 21.65,-99.04 22.9,-591.64 -12.71,-675.77 -74.96,-42.41 -357.09,-6.71 -465.02,-6.73 -168.39,-0.04 -262.19,45.66 -243.59,192.05 11.82,93.13 21.59,489.75 99.4,553.74 129.07,106.14 232.4,216.19 417.1,118.73z"/>
 </g>
</svg>
