<?xml version="1.0" encoding="UTF-8"?>
<!DOCTYPE svg PUBLIC "-//W3C//DTD SVG 1.1//EN" "http://www.w3.org/Graphics/SVG/1.1/DTD/svg11.dtd">
<!-- Creator: CorelDRAW (Versión de evaluación) -->
<svg xmlns="http://www.w3.org/2000/svg" xml:space="preserve" width="739px" height="2458px" version="1.1" style="shape-rendering:geometricPrecision; text-rendering:geometricPrecision; image-rendering:optimizeQuality; fill-rule:evenodd; clip-rule:evenodd"
viewBox="0 0 739 2457.4"
 xmlns:xlink="http://www.w3.org/1999/xlink"
 xmlns:xodm="http://www.corel.com/coreldraw/odm/2003">
 <defs>
  <style type="text/css">
   <![CDATA[
    .str0 {stroke:#373435;stroke-width:5;stroke-miterlimit:22.9256}
    .fil0 {fill:#FEFEFE}
   ]]>
  </style>
 </defs>
 <g id="tooth-fissure-root-37">
  <metadata id="CorelCorpID_0Corel-Layer"/>
  <path id="root" class="fil0 str0" d="M476.48 2256.96c-68.09,-100.71 -4.03,-199.08 -9.05,-482.12 -1.94,-109.6 -29.58,-370.01 -93.41,-423.4 -146.98,69.67 -85.81,635.95 -55.54,834.98 13.59,89.34 31.47,192.68 -1.49,270.97 -128.1,-17.22 -227.44,-456.35 -247.65,-629.94 -28.1,-241.4 -29.73,-463.59 -28.13,-705.45 0.54,-82.28 10.11,-150.71 5.92,-240.19 154.19,-125.7 175.41,51.48 309.89,44.79 137.08,-6.85 146.91,-134.2 329.8,-106.93 74.49,222.88 -23.52,897.82 -84.3,1174.66 -21.81,99.26 -41.18,263.56 -126.04,262.63zm-48.58 -789.81c-2.15,-8.3 -4.39,-16.35 -6.73,-24.11l9.77 -3.33 1.35 3.94 7.88 -2.69 1.35 3.94 3.94 -1.34 2.69 7.88 3.94 -1.34 1.35 3.94 3.94 -1.34 1.34 3.94 3.95 -1.34 1.34 3.94 3.94 -1.35 1.35 3.95 3.94 -1.35 1.34 3.94 7.89 -2.69 1.34 3.95 3.95 -1.35 1.34 3.95 11.83 -4.04 1.34 3.94 7.89 -2.69 -1.34 -3.94 3.94 -1.34 1.34 3.94 3.94 -1.34 2.69 7.88 3.95 -1.34 1.34 3.94 3.94 -1.35 1.35 3.95 3.94 -1.35 1.35 3.94 3.94 -1.34 1.34 3.94 19.72 -6.72 -1.35 -3.94 7.89 -2.69 -1.35 -3.95 3.95 -1.34 -1.35 -3.94 3.94 -1.35 -1.34 -3.94 3.94 -1.34 -2.69 -7.89 3.95 -1.34 -2.69 -7.89 3.94 -1.34 -1.35 -3.95 3.95 -1.34 -1.35 -3.94 3.94 -1.35 -2.68 -7.88 3.94 -1.35 -2.69 -7.88 3.94 -1.35 -1.34 -3.94 7.88 -2.69 -2.69 -7.89 3.95 -1.34 -1.35 -3.94 3.94 -1.35 -2.69 -7.88 3.95 -1.35 -4.04 -11.83 3.95 -1.34 -1.35 -3.94 3.94 -1.35 -1.34 -3.94 7.88 -2.69 -1.34 -3.94 3.94 -1.35 -1.34 -3.94 3.94 -1.34 -1.34 -3.95 -4.04 -11.83 -1.34 -3.94 -3.94 1.35 -1.35 -3.94 -3.94 1.34 -4.04 -11.83 -3.94 1.35 -4.03 -11.83 7.88 -2.69 1.35 3.94 3.94 -1.34 -1.34 -3.95 15.77 -5.38 1.34 3.95 7.89 -2.69 1.34 3.94 7.89 -2.69 1.34 3.95 7.89 -2.69 1.34 3.94 31.54 -10.76 1.35 3.94 -3.95 1.35 1.35 3.94 -35.49 12.1 1.35 3.95 -11.83 4.03 1.35 3.94 -11.83 4.04 2.69 7.88 5.38 15.77 -3.95 1.35 1.35 3.94 -3.94 1.34 2.68 7.89 -3.94 1.34 2.69 7.89 -3.94 1.34 2.69 7.89 -3.95 1.34 2.69 7.89 -3.94 1.34 1.35 3.95 -3.95 1.34 1.35 3.94 -3.95 1.35 2.69 7.88 -3.94 1.35 1.35 3.94 -3.95 1.35 1.35 3.94 3.94 -1.35 1.35 3.95 1.34 3.94 3.94 -1.35 1.35 3.95 3.94 -1.35 2.69 7.89 3.94 -1.35 1.35 3.95 3.94 -1.35 2.69 7.89 3.94 -1.35 2.69 7.89 3.94 -1.35 1.35 3.94 7.88 -2.68 1.35 3.94 3.94 -1.35 1.34 3.95 3.95 -1.35 1.34 3.95 3.95 -1.35 1.34 3.94 3.94 -1.34 1.35 3.94 11.78 -4.02c-0.51,4.58 -1.03,9.16 -1.55,13.73l-6.2 2.12 -7.89 2.69 -1.34 -3.94 -3.94 1.34 -1.35 -3.94 -11.82 4.03 -1.35 -3.94 -19.71 6.72 -1.35 -3.94 -3.94 1.34 -11.83 4.04 -2.69 -7.89 3.95 -1.34 -2.69 -7.89 7.88 -2.69 1.35 3.95 3.94 -1.35 2.69 7.89 7.88 -2.69 -2.69 -7.89 -3.94 1.35 -6.72 -19.72 -3.94 1.35 -2.69 -7.89 -3.95 1.35 -2.69 -7.89 -3.94 1.35 -1.34 -3.95 -3.95 1.35 -1.34 -3.94 -3.94 1.34 2.69 7.89 -3.95 1.34 1.35 3.94 -3.94 1.35 1.34 3.94 -3.94 1.35 1.34 3.94 -3.94 1.34 5.38 15.77 -3.94 1.35 1.34 3.94 7.88 -2.69 1.35 3.94 7.89 -2.69 4.03 11.83 -23.66 8.07 -1.34 -3.94 -3.94 1.34 -1.35 -3.94 -7.88 2.69 1.34 3.94 -3.94 1.35 1.34 3.94 -3.94 1.34 1.34 3.95 -3.94 1.34 -7.88 2.69 -11.83 4.03 -2.69 -7.88 -3.94 1.34 -1.35 -3.94 -3.94 1.35 -2.69 -7.89 3.94 -1.35 -2.69 -7.88 -3.94 1.34 -1.34 -3.94 -3.95 1.35 -1.34 -3.95 -7.89 2.69 -1.34 -3.94 -19.71 6.72 -1.35 -3.94 -3.94 1.35 -15.77 5.37 1.34 3.95 -7.88 2.68 -2.69 -7.88 3.94 -1.34 -1.35 -3.95 -3.94 1.35 -1.34 -3.95 -3.94 1.35 -1.35 -3.94 -7.88 2.69 -1.35 -3.95 -3.94 1.35 -1.35 -3.94 -7.88 2.68 -1.35 -3.94 -3.22 1.1zm-138.59 73.47c-2.65,20.37 -4.69,41.77 -6.19,63.93l-2.52 0.86 1.34 3.95 -7.89 2.69 1.35 3.94 -3.94 1.34 1.34 3.95 -3.94 1.34 1.34 3.94 -3.94 1.35 1.35 3.94 -3.95 1.34 1.35 3.95 11.83 -4.04 -1.35 -3.94 6.3 -2.15c-0.15,2.97 -0.28,5.96 -0.42,8.95l-7.13 2.43 1.34 3.94 -11.83 4.04 -7.88 2.69 1.34 3.94 -3.94 1.34 1.34 3.95 -3.94 1.34 1.35 3.94 -7.89 2.69 -2.69 -7.88 3.95 -1.35 -1.35 -3.94 3.94 -1.34 -1.34 -3.95 3.94 -1.34 -2.69 -7.89 3.95 -1.34 -1.35 -3.94 3.94 -1.35 -1.34 -3.94 3.94 -1.35 -2.69 -7.88 3.94 -1.35 -1.34 -3.94 3.94 -1.34 -2.69 -7.89 3.95 -1.34 -1.35 -3.95 3.94 -1.34 -1.34 -3.94 -3.94 1.34 -1.35 -3.94 -11.83 4.03 -1.34 -3.94 15.77 -5.38 -1.34 -3.94 3.94 -1.35 -1.35 -3.94 -3.94 1.35 -1.34 -3.95 -3.95 1.35 -1.34 -3.95 -11.83 4.04 -1.34 -3.94 -11.83 4.03 -1.35 -3.94 -3.94 1.34 -1.34 -3.94 11.82 -4.03 -2.69 -7.89 7.89 -2.69 -4.03 -11.83 -3.95 1.35 1.35 3.94 -11.83 4.04 1.34 3.94 -27.59 9.41 -1.35 -3.94 -7.88 2.69 1.34 3.94 -3.94 1.34 1.34 3.95 -3.94 1.34 1.35 3.94 -7.89 2.69 2.69 7.89 -3.94 1.34 2.69 7.89 -3.95 1.34 6.73 19.72 -7.89 2.69 -4.03 -11.83 3.94 -1.35 -4.03 -11.83 3.94 -1.34 -1.35 -3.94 3.95 -1.35 -2.69 -7.88 3.94 -1.35 -2.69 -7.88 3.94 -1.35 -4.03 -11.83 -3.94 1.35 -1.35 -3.94 -3.94 1.34 -2.69 -7.88 3.94 -1.35 1.35 3.94 3.94 -1.34 2.69 7.88 11.83 -4.03 -1.35 -3.94 3.94 -1.35 1.35 3.95 7.88 -2.69 1.35 3.94 19.71 -6.72 -1.34 -3.95 7.88 -2.69 -1.34 -3.94 3.94 -1.34 -1.34 -3.95 3.94 -1.34 -1.34 -3.94 7.88 -2.69 -1.34 -3.94 7.88 -2.69 -1.34 -3.95 7.88 -2.69 -1.34 -3.94 3.94 -1.34 -13.45 -39.43 -3.94 1.34 -2.69 -7.88 -3.94 1.34 -1.35 -3.94 -3.94 1.35 -6.72 -19.72 -3.94 1.35 -4.04 -11.83 -3.94 1.34 -2.69 -7.88 -11.83 4.03 1.35 3.94 -3.95 1.35 1.35 3.94 -15.77 5.38 1.34 3.94 -3.94 1.35 1.35 3.94 -3.95 1.35 -2.69 -7.89 3.95 -1.34 -1.35 -3.95 11.83 -4.03 -1.35 -3.94 7.89 -2.69 -1.34 -3.95 7.88 -2.69 -1.35 -3.94 3.95 -1.34 -2.69 -7.89 3.94 -1.34 -1.34 -3.94 3.94 -1.35 -4.03 -11.83 -3.95 1.35 -2.69 -7.89 -3.94 1.35 -4.03 -11.83 -3.95 1.34 -2.68 -7.88 -3.95 1.34 -1.34 -3.94 -3.94 1.34 -1.35 -3.94 -2.69 -7.88 -3.94 1.34 -5.38 -15.77 3.94 -1.34 -1.34 -3.95 7.88 -2.69 -2.69 -7.88 3.95 -1.35 -1.35 -3.94 7.89 -2.69 -1.35 -3.94 -3.94 1.34 -5.38 -15.77 -3.94 1.35 -4.04 -11.83 -11.82 4.03 -1.35 -3.94 -7.88 2.69 -1.35 -3.94 -1.34 -3.95 -3.94 1.35 -5.38 -15.77 -3.95 1.34 -2.68 -7.88 -3.95 1.34 -2.69 -7.88 -3.94 1.34 -1.34 -3.94 -3.95 1.34 -1.34 -3.94 -3.94 1.35 -1.35 -3.95 -7.88 2.69 1.34 3.95 -3.94 1.34 2.69 7.89 -7.89 2.68 -2.69 -7.88 3.95 -1.35 -2.69 -7.88 3.94 -1.35 -2.69 -7.88 3.94 -1.35 -9.41 -27.59 3.94 -1.35 -1.34 -3.94 7.88 -2.69 -1.34 -3.94 3.94 -1.35 -2.69 -7.88 3.94 -1.35 -1.34 -3.94 3.94 -1.35 -1.34 -3.94 3.94 -1.34 -1.34 -3.95 3.94 -1.34 -2.69 -7.89 3.94 -1.34 -2.69 -7.89 3.95 -1.34 -1.35 -3.94 7.89 -2.69 -1.35 -3.94 3.94 -1.35 -5.37 -15.77 3.94 -1.34 -17.48 -51.26 3.94 -1.34 -5.38 -15.78 3.95 -1.34 -4.04 -11.83 3.94 -1.34 -4.03 -11.83 -3.94 1.34 -2.69 -7.88 3.94 -1.35 -1.34 -3.94 3.94 -1.34 -2.69 -7.89 3.94 -1.34 -1.34 -3.95 3.94 -1.34 -2.69 -7.89 -3.94 1.35 -4.04 -11.83 -3.94 1.35 -2.69 -7.89 -3.94 1.35 -9.58 -28.1c0.1,-5.64 0.17,-11.35 0.19,-17.12l10.37 -3.53 -1.35 -3.95 7.89 -2.69 -1.34 -3.94 7.88 -2.69 -1.34 -3.94 7.88 -2.69 -1.34 -3.94 23.65 -8.07 1.35 3.94 -3.94 1.35 1.34 3.94 -11.83 4.04 1.35 3.94 -7.89 2.69 1.35 3.94 -7.89 2.69 1.35 3.94 -3.95 1.35 1.35 3.94 -7.89 2.69 1.35 3.94 -3.95 1.35 5.38 15.77 -3.94 1.34 1.35 3.94 3.94 -1.34 5.38 15.77 3.94 -1.35 4.03 11.83 3.94 -1.34 2.69 7.88 3.95 -1.34 4.03 11.83 -7.88 2.69 1.34 3.94 -3.94 1.34 10.75 31.55 -3.94 1.34 5.38 15.77 -3.94 1.35 2.69 7.88 3.94 -1.35 8.07 23.66 -3.95 1.35 9.42 27.59 -3.95 1.35 1.35 3.94 3.94 -1.34 2.69 7.88 3.94 -1.34 1.35 3.94 11.83 -4.03 1.34 3.94 3.94 -1.35 -1.34 -3.94 7.88 -2.69 1.35 3.95 -3.94 1.34 2.69 7.89 3.94 -1.35 1.34 3.94 3.95 -1.34 1.34 3.94 3.94 -1.34 1.35 3.94 7.88 -2.69 1.35 3.94 7.88 -2.69 1.35 3.95 3.94 -1.35 1.34 3.94 -7.88 2.69 -1.35 -3.94 -11.82 4.04 -1.35 -3.95 -7.88 2.69 -1.35 -3.94 -3.94 1.34 -1.34 -3.94 -7.89 2.69 -1.35 -3.94 -7.88 2.69 -1.35 -3.95 -7.88 2.69 -1.35 -3.94 -7.88 2.69 -1.35 -3.94 -3.94 1.34 -1.34 -3.94 -7.89 2.69 1.35 3.94 -3.95 1.35 1.35 3.94 -3.94 1.34 1.34 3.95 -3.94 1.34 1.34 3.94 -3.94 1.35 2.69 7.88 -3.94 1.35 2.69 7.88 -3.95 1.35 2.69 7.88 -3.94 1.35 1.34 3.94 -3.94 1.34 1.35 3.95 -7.89 2.69 1.35 3.94 -3.95 1.35 2.69 7.88 -3.94 1.34 2.69 7.89 3.94 -1.34 2.69 7.88 -3.94 1.34 1.34 3.95 3.94 -1.35 1.35 3.95 3.94 -1.35 2.69 7.89 3.94 -1.35 1.35 3.94 3.94 -1.34 1.35 3.94 3.94 -1.34 2.69 7.88 3.94 -1.34 2.69 7.88 3.94 -1.34 1.35 3.94 1.34 3.94 3.95 -1.34 4.03 11.83 7.88 -2.69 1.35 3.94 11.83 -4.03 2.69 7.88 3.94 -1.34 4.03 11.83 3.94 -1.35 1.35 3.94 3.94 -1.34 2.69 7.89 3.94 -1.35 1.35 3.94 11.83 -4.03 1.34 3.94 3.94 -1.34 1.35 3.94 7.89 -2.69 1.34 3.94 -7.89 2.69 -1.34 -3.94 -7.89 2.69 -1.34 -3.94 -19.71 6.72 1.34 3.94 -3.94 1.35 1.34 3.94 -3.94 1.34 1.34 3.95 -3.94 1.34 1.35 3.94 -3.95 1.35 2.69 7.88 -3.94 1.35 1.35 3.94 3.94 -1.34 2.69 7.88 3.94 -1.34 2.69 7.88 3.94 -1.34 1.35 3.94 3.94 -1.34 2.69 7.88 3.94 -1.34 1.34 3.94 3.95 -1.34 5.38 15.77 7.88 -2.69 1.35 3.94 19.71 -6.72 -1.34 -3.95 15.77 -5.37 -1.35 -3.95 19.71 -6.72 1.35 3.94 -3.94 1.35 1.34 3.94 -3.94 1.34 1.34 3.95 -7.88 2.69 -1.35 -3.95 -3.94 1.35 1.35 3.94 -7.89 2.69 1.34 3.94 -3.94 1.35 4.04 11.83 -3.95 1.34 -2.69 -7.89 -3.94 1.35 -1.34 -3.94 -19.72 6.72 1.35 3.94 -3.95 1.35 1.35 3.94 -3.94 1.34 1.34 3.95 3.94 -1.35 2.69 7.89 3.95 -1.35 4.03 11.83 3.94 -1.34 6.73 19.71 3.94 -1.35 4.03 11.83 3.94 -1.34 2.69 7.88 3.95 -1.34 2.69 7.88 3.94 -1.34 1.34 3.94 3.95 -1.34 16.13 47.31 3.94 -1.34 5.38 15.77 3.94 -1.35 1.29 3.76zm-9.53 178.55c0.02,4.69 0.05,9.41 0.1,14.12l-3.66 1.25 -2.69 -7.88 -3.94 1.34 -1.35 -3.94 -3.94 1.34 -1.34 -3.94 -3.95 1.34 -2.69 -7.88 -3.94 1.35 -1.34 -3.95 -3.95 1.35 -1.34 -3.95 -3.94 1.35 -1.35 -3.94 -3.94 1.34 -2.69 -7.88 -3.94 1.34 -1.35 -3.94 -3.94 1.34 -1.34 -3.94 -3.95 1.34 -1.34 -3.94 -3.94 1.35 -1.35 -3.95 11.83 -4.03 1.34 3.94 7.89 -2.69 -4.03 -11.83 7.88 -2.69 1.35 3.95 3.94 -1.35 1.34 3.95 -3.94 1.34 2.69 7.89 3.94 -1.35 1.35 3.94 3.94 -1.34 2.69 7.88 3.94 -1.34 1.35 3.94 3.94 -1.34 4.03 11.83 3.95 -1.35 2.68 7.89 3.95 -1.35 1.05 3.09zm-226.41 -62.67c-0.31,-4.3 -0.61,-8.6 -0.9,-12.9l22.83 -7.78 1.35 3.94 3.94 -1.34 1.35 3.94 3.94 -1.35 2.69 7.89 3.94 -1.35 1.34 3.95 11.83 -4.04 -1.34 -3.94 -1.35 -3.94 3.95 -1.35 -8.07 -23.65 3.94 -1.35 -1.34 -3.94 -1.35 -3.94 7.89 -2.69 -1.35 -3.95 3.94 -1.34 -1.34 -3.94 7.89 -2.69 -1.35 -3.94 7.89 -2.69 -1.35 -3.95 3.94 -1.34 -1.34 -3.94 7.89 -2.69 -1.35 -3.95 3.94 -1.34 -1.34 -3.94 3.94 -1.35 -1.34 -3.94 3.94 -1.35 -1.35 -3.94 3.95 -1.34 -1.35 -3.95 3.95 -1.34 2.69 7.88 -3.95 1.35 1.35 3.94 -3.95 1.35 1.35 3.94 -3.95 1.34 1.35 3.95 -3.94 1.34 1.34 3.94 -3.94 1.35 1.34 3.94 -3.94 1.35 1.35 3.94 -7.89 2.69 1.34 3.94 -3.94 1.35 1.35 3.94 -7.89 2.69 1.35 3.94 -3.95 1.35 1.35 3.94 -3.94 1.34 1.34 3.94 -3.94 1.35 8.07 23.65 -3.95 1.35 5.38 15.77 3.94 -1.34 1.35 3.94 3.94 -1.35 1.35 3.95 3.94 -1.35 2.69 7.89 3.94 -1.35 1.35 3.95 3.94 -1.35 1.34 3.94 7.89 -2.68 1.34 3.94 3.95 -1.35 1.34 3.94 7.89 -2.68 1.34 3.94 3.94 -1.35 1.35 3.95 7.88 -2.69 1.35 3.94 3.94 -1.35 1.34 3.95 -19.71 6.72 -1.34 -3.94 -7.89 2.69 -1.34 -3.94 -11.83 4.03 -1.35 -3.94 -3.94 1.34 -1.34 -3.94 -3.95 1.34 -1.34 -3.94 -3.94 1.34 -1.35 -3.94 -7.88 2.69 -1.35 -3.94 -3.94 1.34 -2.69 -7.88 -3.94 1.34 -1.35 -3.94 -3.94 1.34 -2.69 -7.88 -3.94 1.34 -1.35 -3.94 -3.94 1.35 -1.34 -3.95 -3.95 1.35 -2.69 -7.89 -7.88 2.69 -1.35 -3.94 -22.02 7.51zm-12.58 -418.23l0 -0.48 0.15 0.43 -0.15 0.05zm649.13 201.14l-0.99 9.14 -3.67 1.25 -2.69 -7.88 -3.95 1.34 -4.03 -11.83 -3.94 1.35 -1.35 -3.94 -3.94 1.34 -8.07 -23.66 -3.94 1.35 -1.34 -3.94 3.94 -1.35 1.34 3.94 3.94 -1.34 1.35 3.94 3.94 -1.34 2.69 7.88 3.94 -1.34 2.69 7.88 3.95 -1.34 6.72 19.71 3.41 -1.16zm-27.59 216.27c-0.91,6.21 -1.82,12.38 -2.73,18.53l-3.08 1.05 1.34 3.95 -3.94 1.34 3.29 9.65c-1.36,8.98 -2.72,17.88 -4.09,26.71l-2.96 -8.67 -3.94 1.35 -4.04 -11.83 -3.94 1.34 -2.69 -7.88 -3.94 1.34 -1.35 -3.94 -3.94 1.34 -1.34 -3.94 -7.89 2.69 -1.34 -3.94 -7.89 2.69 2.69 7.88 -3.94 1.35 10.76 31.54 -3.95 1.34 8.07 23.66 3.94 -1.35 2.69 7.89 3.95 -1.34 1.34 3.94 7.88 -2.69 1.35 3.94 3.22 -1.1c-0.77,4.7 -1.54,9.35 -2.3,13.99l-0.83 0.28 -1.34 -3.94 -7.89 2.69 -1.34 -3.94 -7.89 2.69 -1.34 -3.95 -3.95 1.35 -1.34 -3.94 -7.89 2.69 1.35 3.94 -3.95 1.34 1.35 3.95 -3.94 1.34 1.34 3.94 -3.94 1.35 2.69 7.88 -3.94 1.35 2.69 7.88 -3.95 1.35 2.69 7.88 -3.94 1.35 1.34 3.94 -3.94 1.34 1.35 3.95 -3.95 1.34 4.04 11.83 -3.95 1.34 5.38 15.77 3.94 -1.34 4.04 11.83 -3.94 1.34 2.68 7.89 -3.94 1.34 5.38 15.77 -3.94 1.35 4.03 11.83 -3.94 1.34 6.72 19.71 -3.94 1.35 5.38 15.77 2.8 -0.96c-3.84,19.16 -7.6,37.11 -11.22,53.61 -1.88,8.55 -3.74,17.59 -5.63,26.96l-2.52 0.86 1.48 4.33c-1.59,7.96 -3.21,16.14 -4.87,24.44l-0.37 -1.08 -7.89 2.69 -1.34 -3.94 -7.88 2.69 1.34 3.94 -3.94 1.34 -1.35 -3.94 -3.94 1.35 1.34 3.94 -11.82 4.03 1.34 3.94 -7.88 2.69 -1.35 -3.94 -11.83 4.04 1.35 3.94 -11.83 4.03 -1.35 -3.94 3.95 -1.34 -1.35 -3.95 7.89 -2.69 -2.69 -7.88 47.31 -16.14 -1.34 -3.94 -7.89 2.69 -2.69 -7.89 7.89 -2.69 -1.35 -3.94 3.95 -1.34 -1.35 -3.95 3.94 -1.34 -1.34 -3.94 11.83 -4.04 3.94 -1.34 -2.69 -7.89 3.94 -1.34 -1.34 -3.94 3.94 -1.35 -2.69 -7.88 3.94 -1.35 -2.68 -7.88 3.94 -1.35 -2.69 -7.88 3.94 -1.35 -2.69 -7.88 3.94 -1.35 -12.1 -35.48 3.95 -1.35 -6.73 -19.71 3.94 -1.35 -5.37 -15.77 3.94 -1.34 -2.69 -7.89 -11.83 4.04 1.35 3.94 -7.89 2.69 4.03 11.83 -3.94 1.34 1.35 3.95 -3.94 1.34 4.03 11.83 -3.94 1.34 1.34 3.95 -3.94 1.34 1.34 3.94 -3.94 1.35 1.34 3.94 -3.94 1.34 -2.69 -7.88 3.94 -1.35 -1.34 -3.94 3.94 -1.34 -2.69 -7.89 3.95 -1.34 -2.69 -7.89 3.94 -1.34 -2.69 -7.89 3.94 -1.34 -1.34 -3.95 -3.94 1.35 -4.04 -11.83 7.89 -2.69 -1.35 -3.94 3.95 -1.35 -2.69 -7.88 3.94 -1.34 -8.07 -23.66 -7.88 2.69 1.34 3.94 -3.94 1.35 1.34 3.94 -3.94 1.34 2.69 7.89 3.94 -1.35 1.35 3.95 -7.89 2.68 -8.07 -23.65 3.95 -1.35 -1.35 -3.94 3.94 -1.34 -2.69 -7.89 -3.94 1.35 -3.94 1.34 -1.35 -3.94 -7.88 2.69 -1.35 -3.95 -11.82 4.04 -1.35 -3.94 -3.94 1.34 -4.03 -11.83 -3.95 1.35 -1.34 -3.94 -3.94 1.34 -2.69 -7.89 3.94 -1.34 1.34 3.94 11.83 -4.03 4.04 11.83 7.88 -2.69 1.35 3.94 11.82 -4.03 -1.34 -3.95 3.94 -1.34 -2.69 -7.89 3.95 -1.34 -2.69 -7.89 3.94 -1.34 -1.35 -3.94 3.95 -1.35 -1.35 -3.94 3.94 -1.35 -4.03 -11.82 3.94 -1.35 -2.69 -7.88 3.95 -1.35 -4.04 -11.83 3.95 -1.34 -1.35 -3.94 -3.94 1.34 -4.04 -11.83 -3.94 1.35 -1.34 -3.95 -3.95 1.35 -1.34 -3.94 -3.94 1.34 -1.35 -3.94 3.94 -1.35 -4.03 -11.82 3.94 -1.35 -2.69 -7.88 3.95 -1.35 -2.69 -7.88 3.94 -1.35 -2.69 -7.88 3.94 -1.35 -1.34 -3.94 3.94 -1.35 -1.34 -3.94 3.94 -1.34 1.34 3.94 3.95 -1.34 2.69 7.88 -7.89 2.69 1.35 3.94 -3.95 1.35 2.69 7.88 3.94 -1.34 1.35 3.94 3.94 -1.34 -1.34 -3.95 3.94 -1.34 -2.69 -7.89 11.83 -4.03 2.69 7.88 -3.94 1.35 1.34 3.94 -3.94 1.35 1.34 3.94 -3.94 1.34 1.34 3.95 -3.94 1.34 2.69 7.89 3.94 -1.35 1.35 3.94 3.94 -1.34 1.35 3.94 -7.89 2.69 -3.94 1.35 4.03 11.83 -3.94 1.34 6.72 19.71 -3.94 1.35 5.38 15.77 -3.94 1.34 2.68 7.89 -3.94 1.34 4.04 11.83 -3.95 1.34 2.69 7.89 3.95 -1.34 1.34 3.94 3.94 -1.35 2.69 7.89 3.94 -1.35 1.35 3.95 3.94 -1.35 1.35 3.94 7.88 -2.68 -1.34 -3.95 3.94 -1.34 -1.34 -3.95 -1.35 -3.94 3.94 -1.34 -1.34 -3.94 3.94 -1.35 -1.34 -3.94 3.94 -1.35 -1.35 -3.94 3.95 -1.34 -1.35 -3.95 3.95 -1.34 -1.35 -3.94 3.94 -1.35 -1.34 -3.94 3.94 -1.35 -1.34 -3.94 3.94 -1.34 -2.69 -7.89 3.94 -1.34 -2.69 -7.89 3.95 -1.34 -5.38 -15.77 3.94 -1.35 -1.35 -3.94 -3.94 1.34 -10.75 -31.54 -3.95 1.35 -2.69 -7.89 -3.94 1.35 -1.34 -3.95 -7.89 2.69 -1.34 -3.94 -7.89 2.69 -1.34 -3.94 11.82 -4.04 1.35 3.95 11.83 -4.04 -1.35 -3.94 -3.94 1.34 -1.34 -3.94 -7.89 2.69 -1.34 -3.94 -3.95 1.34 -1.34 -3.94 7.88 -2.69 1.35 3.94 11.83 -4.03 -1.35 -3.94 3.94 -1.35 -4.03 -11.83 3.94 -1.34 -2.69 -7.89 3.95 -1.34 -1.35 -3.94 3.95 -1.35 -1.35 -3.94 3.94 -1.35 -1.34 -3.94 3.94 -1.34 -1.34 -3.95 3.94 -1.34 -1.35 -3.94 27.6 -9.42 1.35 3.95 -11.83 4.03 1.34 3.94 -7.88 2.69 1.34 3.95 -3.94 1.34 1.35 3.94 -3.95 1.35 4.04 11.83 -3.95 1.34 2.69 7.89 -3.94 1.34 1.34 3.94 -3.94 1.35 -2.69 -7.89 -3.94 1.35 2.69 7.88 -3.94 1.35 2.69 7.88 7.88 -2.69 2.69 7.89 7.89 -2.69 1.34 3.94 3.94 -1.34 1.35 3.94 3.94 -1.34 1.35 3.94 3.94 -1.35 1.34 3.95 3.95 -1.35 3.94 -1.34 7.88 -2.69 -1.34 -3.95 7.88 -2.68 -1.34 -3.95 11.19 -3.81zm-559.93 -482.43l-3.94 1.34 -1.35 -3.94 3.94 -1.35 1.35 3.95zm40.18 285.58l-3.94 1.34 -1.35 -3.94 3.94 -1.34 1.35 3.94zm-18.23 -350.28l-3.95 1.34 -1.34 -3.94 3.94 -1.35 1.35 3.95zm438.52 550.24l-3.94 1.34 -1.34 -3.94 3.94 -1.35 1.34 3.95zm-69.09 -86.47l-3.95 1.35 -1.34 -3.95 3.94 -1.34 1.35 3.94zm-338.67 -205.79l-3.94 1.34 -1.34 -3.94 3.94 -1.34 1.34 3.94zm431.19 631.96l-3.94 1.35 -2.69 -7.88 3.94 -1.35 2.69 7.88zm-467.27 -1086.19l-7.88 2.69 -1.34 -3.94 7.88 -2.69 1.34 3.94zm449.79 1034.94l-3.94 1.34 -2.69 -7.88 3.94 -1.34 2.69 7.88zm-3.6 -139.61l-3.94 1.34 -2.69 -7.88 -7.89 2.69 -1.34 -3.95 -3.94 1.35 4.03 11.83 3.94 -1.35 1.35 3.94 3.94 -1.34 1.34 3.94 7.89 -2.69 -2.69 -7.88zm-326.83 -209.83l-7.89 2.69 -1.34 -3.94 7.88 -2.69 1.35 3.94zm271.52 21.83l-3.94 1.35 -2.69 -7.89 3.94 -1.34 2.69 7.88zm46.1 380.39l-7.88 2.69 -1.35 -3.94 7.89 -2.69 1.34 3.94zm-357.85 -313.68l3.95 -1.34 1.34 3.94 -7.88 2.69 -2.69 -7.89 3.94 -1.34 1.34 3.94zm362.35 391.37l-3.95 1.35 1.35 3.94 -3.95 1.34 -2.69 -7.88 7.89 -2.69 1.35 3.94zm-403.51 -628.2l-3.94 1.34 1.35 3.94 -3.95 1.35 -2.69 -7.89 7.89 -2.68 1.34 3.94zm-23.65 8.07l-11.83 4.03 -1.34 -3.94 11.82 -4.04 1.35 3.95zm413.71 580.71l-7.89 2.69 -1.34 -3.95 3.94 -1.34 -1.34 -3.94 3.94 -1.35 2.69 7.89zm-74.53 -489.53l-3.94 1.34 -1.34 -3.94 -3.95 1.34 -2.69 -7.88 3.95 -1.35 1.34 3.95 3.94 -1.35 2.69 7.89 3.95 -1.35 1.34 3.94 3.94 -1.34 1.35 3.94 -7.89 2.69 1.35 3.95 -3.95 1.34 2.69 7.88 3.95 -1.34 2.69 7.89 -3.95 1.34 6.73 19.71 -7.89 2.69 -6.72 -19.71 3.94 -1.35 -2.69 -7.88 -3.94 1.34 -2.69 -7.88 3.94 -1.34 -1.34 -3.95 3.94 -1.34 -1.35 -3.95 3.95 -1.34 -1.35 -3.94zm85.99 432.8l-7.88 2.69 -2.69 -7.88 7.88 -2.69 2.69 7.88zm-498.49 -648.62l-3.94 1.34 1.34 3.94 -11.82 4.04 -1.35 -3.95 7.89 -2.68 -1.35 -3.95 7.89 -2.69 1.34 3.95zm56.2 126.07l-19.71 6.72 -1.34 -3.94 19.71 -6.72 1.34 3.94zm4.99 -230.56l3.95 -1.35 2.69 7.88 3.94 -1.34 2.69 7.89 -3.94 1.34 -1.35 -3.94 -3.94 1.34 -2.69 -7.88 -3.94 1.34 -5.38 -15.77 3.94 -1.34 4.03 11.83zm78.27 268.19l-3.95 1.34 1.35 3.94 -7.89 2.69 -4.03 -11.82 3.94 -1.35 -1.34 -3.94 7.88 -2.69 4.04 11.83zm-86.95 -190.41l-3.94 1.34 1.34 3.94 -3.94 1.35 1.34 3.94 -3.94 1.34 1.35 3.95 -3.95 1.34 -2.68 -7.88 3.94 -1.35 -4.04 -11.83 11.83 -4.03 2.69 7.89zm367.33 160.8l-7.88 2.69 2.69 7.89 7.88 -2.69 -2.69 -7.89zm-332.76 -304.63l3.95 -1.35 1.34 3.95 -3.94 1.34 2.69 7.89 -11.83 4.03 -2.69 -7.89 -3.94 1.35 -1.35 -3.94 3.94 -1.35 -1.34 -3.94 11.83 -4.03 1.34 3.94zm477.87 523.62l7.88 -2.69 -1.34 -3.94 -3.95 1.34 -1.34 -3.94 -3.94 1.35 2.69 7.88zm-469.71 -486.79l-3.94 1.34 2.69 7.89 -7.89 2.69 -5.38 -15.77 3.95 -1.35 -2.69 -7.88 3.94 -1.35 -1.34 -3.94 3.94 -1.35 6.72 19.72zm387.71 439.93l3.94 -1.34 8.07 23.66 -3.94 1.34 2.68 7.89 -3.94 1.34 -12.1 -35.48 3.94 -1.35 1.35 3.94zm67.52 -331.11l1.35 3.94 3.94 -1.34 -1.34 -3.95 -3.95 1.35zm-5.28 -2.6l1.34 3.94 3.94 -1.34 -1.34 -3.95 -3.94 1.35zm0 0l-1.35 -3.94 -3.94 1.34 1.34 3.94 3.95 -1.34zm-1.39 370.18l-3.95 1.34 1.35 3.95 3.94 -1.35 -1.34 -3.94zm-6.82 -32.89l3.95 -1.34 -2.69 -7.89 -3.95 1.35 2.69 7.88zm-339.46 -130.7l-3.94 1.35 4.04 11.82 3.94 -1.34 -4.04 -11.83z"/>
  <path id="crown" class="fil0 str0" d="M615.38 243.17c-136.83,-148.46 -164.73,26.89 -249.51,-34.95 -95.66,-69.77 -87.4,-166.72 -224.78,-67.6 52.21,9.41 78.03,-32.36 136,12.03 32.07,24.56 57.6,74.98 90.44,92.4 66.7,35.4 78.9,-18.67 126,-30.59 64.33,-16.27 73.94,21.09 121.85,28.71zm79.08 547.9c-241.42,-25.13 -200.74,98.54 -337.22,103.77 -90.82,3.47 -84.96,-41.26 -150.73,-75 -83.17,-42.64 -93.4,7.71 -163.14,13.91 -19.23,-111.39 -41.49,-164.85 -43.62,-298.5 -2.64,-166.72 28.81,-453.35 146.77,-519.54 80.18,-45.01 121.2,16.9 186.02,58.68 157.67,101.63 198.55,-144.5 362.08,83.78 71.27,99.48 44.49,511.94 -0.16,632.9z"/>
 </g>
</svg>
