<?xml version="1.0" encoding="UTF-8"?>
<!DOCTYPE svg PUBLIC "-//W3C//DTD SVG 1.1//EN" "http://www.w3.org/Graphics/SVG/1.1/DTD/svg11.dtd">
<!-- Creator: CorelDRAW (Versión de evaluación) -->
<svg xmlns="http://www.w3.org/2000/svg" xml:space="preserve" width="739px" height="2458px" version="1.1" style="shape-rendering:geometricPrecision; text-rendering:geometricPrecision; image-rendering:optimizeQuality; fill-rule:evenodd; clip-rule:evenodd"
viewBox="0 0 739 2457.4"
 xmlns:xlink="http://www.w3.org/1999/xlink"
 xmlns:xodm="http://www.corel.com/coreldraw/odm/2003">
 <defs>
  <style type="text/css">
   <![CDATA[
    .str0 {stroke:#4B4B4D;stroke-width:10;stroke-miterlimit:22.9256}
    .fil0 {fill:#FEFEFE}
   ]]>
  </style>
 </defs>
 <g id="tooth-fissure-root-27">
  <metadata id="CorelCorpID_0Corel-Layer"/>
  <path id="crown" class="fil0 str0" d="M631.28 2090.07c25.95,-14.76 20.44,-14.73 24.63,-56.02 -26.12,19.86 -22.4,10.04 -24.63,56.02 -34.53,25.5 -20.4,81.52 -28.44,137.54 -3.06,21.33 -28.76,108 -38.8,118.95 -65.73,71.55 -102.16,-76.92 -135.36,-125.07 -80.1,-2.78 -88.81,76.99 -142.29,157.67 -62.63,94.46 -97.16,105.17 -174.32,22.38 -106.87,-114.65 -123.55,-386.09 -106.93,-580.28 27.47,-321.05 84.77,-394.49 247.59,-295.22 183.06,111.61 193.89,-177.65 367.38,-75.5 0.08,0.12 149.36,460.26 112.66,600.5 -17.84,68.18 -57.1,108.17 -102.5,109.96l1.01 -70.93zm-172.99 253.61c-33.11,73.95 -87.81,69.94 -132.59,21.3 16.8,-76.27 23.12,-77.16 64.05,-122.21 53.82,5.47 53.07,23.68 68.54,100.91z"/>
  <path id="root" class="fil0 str0" d="M392.69 1370.48l-8.33 0 0 8.33 8.33 0 0 -8.33zm98.98 -1339.84c-1.2,50.38 15.86,83.04 38.75,152.96 51.73,157.97 83.75,275.28 102.63,374.58l-32.08 0 0 -4.17 -8.33 0 0 -4.16 -8.33 0 0 -4.17 -8.33 0 0 -4.17 -16.66 0 0 4.17 -4.17 0 0 -4.17 -8.33 0 0 12.5 4.17 0 0 12.5 4.16 0 0 4.16 4.17 0 0 4.17 0 12.5 0 4.16 -4.17 0 0 4.17 -4.16 0 0 4.16 -8.34 0 0 4.17 -4.16 0 0 4.17 -4.17 0 0 12.49 -4.16 0 0 8.33 -4.17 0 0 4.17 -4.16 0 0 8.33 -8.33 0 0 4.17 -4.17 0 0 8.33 -4.17 0 0 8.33 -4.16 0 0 4.16 -4.17 0 0 4.17 -4.16 0 0 8.33 -4.17 0 0 8.33 -4.16 0 0 4.17 -4.17 0 0 4.16 -4.17 0 0 4.17 -8.33 0 0 4.17 -20.82 0 0 -4.17 -0.74 0c-11.05,-253.29 -33.84,-530.08 -10.55,-617.35 18.77,-70.36 22.08,-57.73 56.11,-51.82zm142.17 531.7c14.96,79.81 21.41,148.07 22.75,216.62l-1.46 0 0 -4.17 -4.17 0 0 -4.16 -4.16 0 -4.17 0 0 -4.17 -4.16 0 0 -4.17 -4.17 0 0 -8.33 -4.17 0 0 -8.33 -4.16 0 0 -4.16 -4.17 0 0 -4.17 -4.16 0 0 -4.17 -4.17 0 0 -4.16 -4.16 0 0 -4.17 -4.17 0 0 -4.16 -4.17 0 0 -8.33 -4.16 0 0 -20.83 -4.17 0 0 -8.33 -4.16 0 0 -8.33 -4.17 0 0 -4.17 -4.16 0 0 -4.17 -4.17 0 0 4.17 4.17 0 0 24.99 4.16 0 0 4.17 4.17 0 0 12.5 4.16 0 0 8.33 4.17 0 0 8.33 -4.17 0 -12.49 0 0 -4.17 -4.17 0 0 -4.16 -4.16 0 0 -4.17 -4.17 0 0 -4.16 -4.17 0 0 -4.17 -8.33 0 0 -4.16 -4.16 0 0 -8.34 -4.17 0 0 -8.33 -4.17 0 0 -4.16 -4.16 0 0 -8.33 -4.17 0 0 -4.17 -4.16 0 0 -4.17 0 -4.16 -4.17 0 0 -4.17 4.17 0 0 -4.16 4.16 0 0 -8.33 4.17 0 0 -4.17 4.16 0 0 -4.17 4.17 0 0 -8.33 4.17 0 0 -8.33 4.16 0 0 -8.33 4.17 0 0 -8.33 4.16 0 0 -4.17 4.17 0 0 -16.66 0 -8.33 12.5 0 0 -4.17 12.49 0 0 -4.16 37.49 0 0 -4.17 3.71 0zm23.03 241.61c0.03,11.05 -0.07,22.14 -0.27,33.33l-1.47 0 0 20.82 -4.17 0 0 8.34 0 4.16 4.76 0c-0.1,2.77 -0.2,5.55 -0.31,8.33l-4.45 0 0 -8.33 -4.16 0 0 8.33 -4.17 0 0 33.33 -4.16 0 0 8.33 -12.5 0 0 -4.17 -8.33 0 0 8.34 8.33 0 0 4.16 12.5 0 0 8.33 -4.17 0 0 12.5 4.17 0 0 -4.17 4.16 0 0 -4.16 4.17 0 0 -16.66 4.16 0 0 -12.5 2.97 0c-4.65,92.37 -13.89,197.02 -20.95,337.42l-7.01 0 0 4.16 -8.33 0 0 4.17 -4.17 0 0 4.16 -12.5 0 0 4.17 -8.33 0 -4.16 0 -29.16 0 0 4.16 -29.16 0 -4.17 0 -4.16 0 0 4.17 -4.17 0 -4.16 0 0 -4.17 -20.83 0 0 4.17 -16.67 0 -8.33 0 0 -12.5 -4.16 0 0 8.33 -4.17 0 0 4.17 -4.16 0 -8.33 0 0 4.17 -45.83 0 0 4.16 -8.33 0 0 4.17 -4.16 0 0 4.16 -16.67 0 0 -4.16 -16.66 0 0 -4.17 -12.5 0 0 -4.16 -4.16 0 0 -4.17 -4.17 0 0 -4.17 -4.16 0 0 -16.66 -4.17 0 0 -12.5 -4.16 0 0 -8.33 8.33 0 0 -4.16 4.16 0 0 -4.17 4.17 0 0 -4.16 4.16 0 0 -4.17 4.17 0 0 -8.33 4.17 0 0 -12.5 4.16 0 0 -12.49 4.17 0 0 -4.17 20.82 0 0 -4.17 -8.33 0 0 -4.16 -4.16 0 0 -6.01c10.33,10.01 20.83,14 31.32,10.08 28.92,-10.82 43.26,-70.97 49.06,-158.2l7.1 0 0 4.16 4.16 0 0 4.17 12.5 0 0 -4.17 -4.17 0 0 -8.33 -8.33 0 0 -4.16 -4.16 0 0 -4.17 -4.17 0 0 -4.16 -1.93 0c1.23,-23.41 1.92,-48.52 2.16,-74.98l8.1 0 0 4.16 4.17 0 0 4.17 4.16 0 0 8.33 4.17 0 0 12.49 4.16 0 0 20.83 4.17 0 0 -4.16 4.17 0 0 -20.83 4.16 0 0 -20.83 4.17 0 0 -4.16 12.49 0 0 -4.17 8.34 0 0 -4.17 4.16 0 0 -4.16 4.17 0 0 -4.17 8.33 0 0 -4.16 8.33 0 0 -4.17 8.33 0 0 -4.16 4.17 0 0 -4.17 8.33 0 0 -4.17 8.33 0 0 -4.16 12.5 0 0 -4.17 8.33 0 0 -4.16 -20.83 0 0 4.16 -12.5 0 0 4.17 -8.33 0 0 4.16 -8.33 0 0 -4.16 -8.33 0 0 12.5 -16.66 0 0 4.16 -4.17 0 0 8.33 -16.66 0 0 4.17 -8.33 0 0 4.16 -8.34 0 -4.16 0 -4.17 0 0 -4.16 -4.16 0 0 -4.17 -4.17 0 0 -4.16 -4.16 0 0 -4.17 -3.82 0c-0.01,-6.87 -0.04,-13.81 -0.09,-20.83l3.91 0 0 -8.33 4.16 0 0 -12.5 4.17 0 0 -4.16 4.16 0 0 -4.17 8.33 0 0 -4.16 12.5 0 0 -4.17 -29.16 0 0 4.17 -4.16 0 0 4.16 -4.17 0 0 4.17 -0.03 0c-0.61,-40.02 -1.93,-82.04 -3.65,-124.97l7.85 0 8.33 0 4.16 0 0 -4.17 4.17 0 0 -4.16 4.16 0 0 -4.17 8.34 0 0 4.17 4.16 0 0 4.16 25 0 0 -12.49 -8.34 0 0 -4.17 -8.33 0 0 -4.16 4.17 0 0 -16.67 4.16 0 0 -4.16 4.17 0 0 -4.17 4.17 0 0 -4.16 4.16 0 0 -8.34 4.17 0 0 4.17 4.16 0 0 4.17 4.17 0 0 8.33 4.16 0 0 8.33 4.17 0 0 20.83 4.16 0 0 8.33 -8.33 0 0 -8.33 -4.16 0 0 -4.17 -8.33 0 0 8.33 -4.17 0 0 8.33 12.5 0 4.16 0 0 4.17 20.83 0 0 4.16 12.5 0 0 4.17 4.17 0 0 4.17 8.33 0 8.33 0 0 4.16 12.49 0 0 4.17 8.34 0 0 4.16 4.16 0 0 4.17 4.17 0 0 8.33 4.16 0 0 8.33 8.33 0 0 4.17 4.17 0 0 4.16 8.33 0 0 4.17 4.17 0 0 8.33 4.16 0 0 4.16 4.17 0 0 4.17 1.74 0zm-25.86 487.38c-1.63,36.53 -3.09,75.31 -4.27,116.86 -50.19,13.32 -80.43,-51.77 -158.63,20.61 -98.38,91.04 -130.93,102.21 -167.06,85.56l0 -2.25 4.16 0 0 -4.16 4.17 0 0 -4.17 4.16 0 0 -8.33 4.17 0 0 -4.17 4.17 0 8.33 0 0 -16.66 -4.17 0 0 -8.33 4.17 0 0 -12.5 12.49 0 0 -8.33 4.17 0 0 -4.16 4.17 0 0 -4.17 4.16 0 0 -4.17 8.33 0 0 -4.16 4.17 0 0 4.16 12.49 0 0 -4.16 4.17 0 4.17 0 0 4.16 8.33 0 0 4.17 8.33 0 0 4.17 4.16 0 0 4.16 4.17 0 0 4.17 16.66 0 0 -4.17 4.17 0 0 -8.33 -4.17 0 0 -4.17 -12.49 0 0 -4.16 4.16 0 0 -12.5 4.17 0 0 -4.16 4.16 0 0 -8.33 4.17 0 0 -8.34 4.16 0 0 4.17 8.34 0 0 4.17 8.33 0 0 -8.34 -4.17 0 0 -4.16 -4.16 0 0 -4.17 8.33 0 8.33 0 0 16.67 4.16 0 0 4.16 -4.16 0 0 4.17 4.16 0 0 4.16 8.33 0 0 -12.49 -4.16 0 0 -12.5 4.16 0 8.34 0 0 -16.66 12.49 0 0 -4.17 4.17 0 0 -4.17 4.16 0 0 -8.33 12.5 0 0 -12.49 -8.33 0 0 -4.17 16.66 0 0 -8.33 -12.49 0 0 -16.66 16.66 0 0 24.99 -4.17 0 0 4.17 12.5 0 0 -4.17 8.33 0 0 -4.17 4.17 0 0 -4.16 -4.17 0 0 -4.17 8.33 0 0 -4.16 4.17 0 0 -4.17 4.16 0 0 -4.16 12.5 0 0 -4.17 16.66 0 0 -4.16 4.17 0 0 4.16 4.16 0 0 -4.16 4.17 0 0 -4.17 4.17 0 0 -4.17 12.49 0 0 -4.16 -4.16 0 0 -4.17 13.37 0zm-375.03 195.79c-6.5,-4.05 -13.54,-8.26 -21.26,-12.5l8.01 0 0 4.17 8.33 0 0 4.16 8.33 0 0 4.17 -3.41 0zm-21.58 -12.67c-2.43,-1.33 -4.93,-2.66 -7.5,-3.99l7.5 0 0 3.99zm-12.5 -6.53c-1.09,-0.54 -2.2,-1.09 -3.32,-1.63l3.32 0 0 1.63zm-8.33 -4c-7.69,-3.57 -15.98,-7.09 -25,-10.47 -66.7,-25.01 -91.35,36.64 -129.31,43.23 -10.55,-153.08 -12.96,-258.78 -31.31,-414.52 -13.63,-115.81 -18.18,-214.56 -14.12,-307.37l3.95 0 0 4.17 8.33 0 0 4.16 20.83 0 0 -4.16 -4.16 0 0 -4.17 -8.33 0 0 -4.16 -4.17 0 0 -4.17 -8.33 0 0 -4.17 -4.17 0 0 -4.16 -3.12 0c1.63,-29.58 4.14,-58.62 7.53,-87.48l3.92 0 0 -4.17 4.17 0 0 -4.16 4.17 0 0 -4.17 4.16 0 0 -4.16 4.17 0 0 -4.17 4.16 0 0 -4.16 4.17 0 0 -8.34 -4.17 0 0 4.17 -4.16 0 0 4.17 -4.17 0 0 4.16 -4.16 0 0 4.17 -4.17 0 0 4.16 -6.58 0c4.73,-37.43 10.91,-74.65 18.51,-112.47l8.9 0 0 -4.17 -8.05 0c12.96,-63.61 29.92,-128.99 50.74,-199.95l3.13 0 0 4.17 4.17 0 0 8.33 4.16 0 0 8.33 4.17 0 0 16.66 4.16 0 0 4.17 0 4.17 8.33 0 0 4.16 12.5 0 0 12.5 4.17 0 0 16.66 4.16 0 0 4.17 -8.33 0 0 4.16 -4.17 0 0 8.33 -8.33 0 0 4.17 -4.16 0 0 16.66 4.16 0 0 8.33 0 4.17 4.17 0 0 4.16 4.16 0 0 8.33 4.17 0 0 12.5 4.17 0 0 8.33 4.16 0 0 12.5 -4.16 0 0 4.17 -4.17 0 0 8.33 -4.17 0 0 4.16 -8.33 0 0 4.17 -8.33 0 0 4.16 -12.49 0 0 4.17 -4.17 0 0 8.33 4.17 0 0 -4.16 4.16 0 0 -4.17 16.66 0 0 -4.17 4.17 0 0 -4.16 12.5 0 0 8.33 4.16 0 0 12.5 4.17 0 0 20.83 4.16 0 0 4.16 4.17 0 0 8.33 4.16 0 0 41.66 -4.16 0 0 4.16 -8.33 0 0 4.17 -8.33 0 0 4.17 -8.34 0 0 4.16 -4.16 0 0 4.17 -4.17 0 0 4.16 -8.33 0 0 4.17 -20.83 0 0 -4.17 -8.33 0 0 -4.16 -4.16 0 0 4.16 -12.5 0 0 -8.33 -4.17 0 0 -4.16 -4.16 0 0 8.33 4.16 0 0 4.16 4.17 0 0 12.5 -4.17 0 0 8.33 -4.16 0 0 8.33 -4.17 0 0 4.17 -4.16 0 0 12.5 -4.17 0 0 12.49 8.33 0 0 -20.83 4.17 0 0 -8.33 4.16 0 0 -8.33 8.34 0 0 -4.16 4.16 0 0 -4.17 4.17 0 0 -4.17 8.33 0 0 4.17 29.16 0 0 -4.17 12.49 0 0 -4.16 4.17 0 0 12.5 -8.33 0 0 8.33 -12.5 0 0 4.16 4.17 0 0 4.17 12.49 0 0 4.16 12.5 0 0 4.17 4.17 0 0 4.17 4.16 0 0 4.16 -4.16 0 0 4.17 -16.67 0 0 4.16 12.5 0 0 4.17 4.17 0 0 4.16 -4.17 0 0 4.17 -4.16 0 0 8.33 -4.17 0 0 4.17 -4.17 0 0 8.33 -4.16 0 0 4.16 -4.17 0 0 4.17 -4.16 0 0 8.33 -4.17 0 0 4.17 -4.16 0 0 4.16 -4.17 0 0 8.33 8.33 0 0 -4.16 4.17 0 0 -4.17 4.16 0 0 -4.16 8.33 0 12.5 0 0 -4.17 12.5 0 0 -4.17 8.33 0 0 -4.16 4.17 0 0 4.16 8.33 0 0 4.17 8.33 0 0 4.17 8.33 0 0 4.16 4.17 0 0 4.17 4.16 0 0 8.33 -4.16 0 0 4.16 12.49 0 0 4.17 8.33 0 0 4.16 4.17 0 0 8.34 -4.17 0 0 4.16 -4.16 0 0 4.17 -4.17 0 0 4.16 -4.16 0 0 16.67 -4.17 0 0 12.49 -4.16 0 0 4.17 4.16 0 0 -4.17 4.17 0 0 -8.33 4.16 0 0 -16.66 4.17 0 0 -8.33 4.16 0 0 -4.17 16.67 0 0 4.17 13.69 0c19.47,91.05 49.84,215.52 84.37,291.59l-2.25 0 0 8.33 -4.17 0 0 8.34 -4.16 0 0 4.16 -4.17 0 0 8.33 4.17 0 0 -4.16 4.16 0 0 -4.17 4.17 0 0 -4.16 4.16 0 0 -12.5 0.02 0c5.46,11.68 11.02,22.12 16.65,31.01l0 31.47 -4.17 0 0 8.34 -4.17 0 0 8.33 -4.16 0 0 8.33 -4.17 0 0 8.33 -4.16 0 0 4.17 -4.17 0 0 8.33 -4.16 0 -12.5 0 0 4.16 -4.17 0 0 4.17 -4.16 0 0 4.16 -8.33 0 0 8.33 8.33 0 0 4.17 -49.99 0 0 8.33 -8.33 0 0 4.17 -4.17 0 0 4.16 12.5 0 0 -4.16 12.5 0 0 4.16 8.33 0 0 -4.16 12.49 0 0 -4.17 4.17 0 0 4.17 4.17 0 0 -4.17 8.33 0 0 4.17 8.33 0 0 4.16 4.16 0 0 8.33 4.17 0 0 8.34 4.17 0 0 4.16 4.16 0 0 4.17 -4.16 0 0 8.33 4.16 0 0 4.16 4.17 0 0 8.34 4.16 0 0 4.16 4.17 0 0 8.33 4.16 0 0 12.5 4.17 0 0 12.5 4.17 0 0 8.33 4.16 0 0 4.16 -4.16 0 0 16.67 -8.34 0 0 12.49 -4.16 0 0 8.33 4.16 0 0 4.17 -4.16 0 0 8.33 -4.17 0 0 12.5 0 8.33 -4.16 0 0 8.33 -4.17 0 0 4.17 -8.33 0 0 4.16 -4.17 0 0 8.33 -4.16 0 0 12.5 -4.17 0 0 4.17 -33.32 0 0 -4.17 -4.17 0 0 4.17 -4.16 0 -4.17 0 -4.16 0 0 -4.17 -33.33 0 0 -4.16 -8.33 0 0 1.79zm-116.64 -1132.98c2.66,-9 5.39,-18.08 8.18,-27.27 1.81,-5.98 3.8,-12.87 5.94,-20.43l2.54 0 0 -8.33 4.17 0 0 -8.33 4.16 0 0 -8.33 4.17 0 0 -4.17 4.16 0 0 -4.16 4.17 0 0 -4.17 4.17 0 0 -4.16 8.33 0 0 4.16 4.16 0 0 4.17 8.33 0 0 4.16 8.34 0 0 4.17 8.33 0 0 4.17 8.33 0 0 4.16 4.16 0 0 4.17 8.34 0 0 4.16 12.49 0 0 4.17 8.33 0 0 -4.17 -4.16 0 0 -4.16 -8.33 0 0 -4.17 -8.33 0 0 -4.16 -4.17 0 0 -4.17 -4.17 0 0 -4.17 -4.16 0 0 -8.33 4.16 0 0 -4.16 -8.33 0 0 4.16 -4.16 0 0 -4.16 -12.5 0 0 -4.17 -4.17 0 0 -8.33 -4.16 0 0 -4.17 4.16 0 0 -29.15 4.17 0 0 -25 -4.17 0 0 -8.33 4.17 0 0 -16.66 4.17 0 0 -31.96 0.65 -1.37 3.51 0 0 -4.16 8.33 0 0 -12.5 -2.93 0c15.94,-27.07 33.64,-42.22 52.71,-32.87 19.9,115.04 -13.47,268.77 -16.96,441.1l-16.15 0 0 4.17 -16.67 0 0 4.17 -20.83 0 0 -4.17 -8.33 0 0 -16.66 -4.16 0 0 -4.17 -4.17 0 0 -8.33 -4.16 0 0 -4.17 -4.17 0 0 -8.33 -4.17 0 0 -8.33 -4.16 0 0 -4.16 4.16 0 0 -8.34 4.17 0 0 -4.16 4.17 0 0 -4.17 4.16 0 0 -4.16 4.17 0 0 -4.17 20.83 0 0 4.17 8.33 0 0 4.16 8.33 0 0 -4.16 -8.33 0 0 -4.17 -4.17 0 0 -4.16 -12.5 0 0 -4.17 -4.16 0 0 -8.33 -4.17 0 0 -4.17 -4.16 0 0 -12.49 -4.17 0 0 -8.33 -12.5 0 0 -4.17 -8.33 0 0 -12.5 -4.16 0 0 -4.16 0 -4.17 -4.17 0 0 -8.33 -4.16 0 0 -8.33 -4.17 0 0 -4.17 -4.16 0 0 -4.16 -4.17 0 0 -6.46zm24.7 -85.19l0.29 -1.02 0 1.02 -0.29 0zm1.19 -4.16c4.78,-16.66 10.05,-34.43 15.77,-52.1l0 31.27 -4.17 0 0 16.66 -4.17 0 0 4.17 -7.43 0zm90.09 270.77c-0.97,67.06 2.75,136.88 16.02,208.28l-7.03 0 0 12.49 -4.17 0 0 4.17 -4.16 0 0 8.33 4.16 0 0 4.17 -4.16 0 0 8.33 8.33 0 0 -4.17 4.17 0 0 -8.33 4.16 0 0 4.17 4.17 0 0 4.16 0.9 0c3.25,16.61 7.25,36.45 11.9,58.32l-4.47 0 0 -4.16 -8.33 0 0 -4.17 -4.17 0 0 -4.17 -4.16 0 0 -8.33 -4.17 0 0 -4.16 -8.33 0 0 -4.17 -4.17 0 0 -4.16 -4.16 0 0 -8.33 4.16 0 0 -8.34 -4.16 0 0 4.17 -8.33 0 0 -4.17 -8.34 0 0 -4.16 -8.33 0 0 -4.17 -4.16 0 0 -4.16 12.49 0 0 -4.17 8.34 0 0 4.17 4.16 0 0 4.16 4.17 0 0 -12.49 -4.17 0 0 -8.34 8.33 0 0 -4.16 -12.49 0 0 -8.33 0 -16.66 -4.17 0 0 -20.83 -4.17 0 0 -8.33 -4.16 0 0 -16.67 -4.17 0 0 -49.98 -4.16 0 0 -4.17 -4.17 0 0 -8.33 -4.16 0 0 -8.33 -4.17 0 0 -12.5 -4.17 0 0 -20.83 -4.16 0 0 -12.5 -4.17 0 0 -8.33 -4.16 0 0 -4.16 4.16 0 0 -4.17 4.17 0 0 -4.16 20.83 0 0 4.16 4.16 0 0 8.33 4.17 0 0 -12.49 4.16 0 0 -4.17 8.34 0 0 -4.16 4.16 0 0 4.16 8.33 0 0 -4.16 3.51 0zm17.58 216.61c0.72,3.83 1.51,7.98 2.38,12.5l-2.64 0 0 -12.5 0.26 0zm133.04 431.23c0.63,0.7 1.25,1.34 1.88,2l-1.88 0 0 -2zm-233.28 -889.45l-4.16 0 0 -4.17 4.16 0 0 4.17zm-54.15 283.26l-4.16 0 0 -4.16 4.16 0 0 4.16zm391.57 674.84l-4.16 0 0 -4.17 4.16 0 0 4.17zm-262.43 -524.87l-4.17 0 0 -4.17 4.17 0 0 4.17zm304.09 504.04l-4.17 0 0 -4.17 4.17 0 0 4.17 4.17 0 0 -12.5 4.16 0 0 4.17 4.17 0 0 4.16 4.16 0 0 4.17 -4.16 0 0 4.17 -8.33 0 0 4.16 -4.17 0 0 -8.33zm-337.42 -991.43l-4.16 0 0 -4.16 4.16 0 0 4.16zm237.44 662.34l-4.16 0 0 -4.16 4.16 0 0 4.16zm-37.49 -104.14l-4.16 0 0 -4.16 4.16 0 0 4.16zm16.67 408.24l-4.17 0 0 -4.17 4.17 0 0 4.17zm-270.77 -712.33l-4.17 0 0 -4.17 4.17 0 0 4.17zm466.55 862.29l-4.16 0 0 -4.17 4.16 0 0 4.17zm-262.43 -124.97l-4.17 0 0 -8.33 4.17 0 0 8.33zm187.45 -37.49l-4.17 0 0 -8.33 4.17 0 0 8.33zm-33.33 58.32l-4.16 0 0 -8.33 4.16 0 0 8.33zm-208.28 -474.89l-8.33 0 0 -4.16 8.33 0 0 4.16zm337.42 166.63l-8.33 0 0 -4.17 8.33 0 0 4.17zm-283.26 233.28l-4.17 0 0 -8.33 4.17 0 0 8.33zm158.29 112.47l-4.17 0 0 -8.33 4.17 0 0 8.33zm-116.64 -245.78l-4.16 0 0 -8.33 -8.33 0 0 -4.16 -4.17 0 0 12.49 4.17 0 0 4.17 4.16 0 0 4.17 8.33 0 0 -8.34zm87.48 416.57l-8.33 0 0 -4.17 8.33 0 0 4.17zm-329.09 -720.66l-8.33 0 0 -4.16 8.33 0 0 4.16zm249.94 108.31l-4.16 0 0 -8.33 4.16 0 0 8.33zm-79.14 374.91l-8.34 0 0 -4.17 8.34 0 0 4.17zm154.13 224.94l-8.34 0 0 -4.16 8.34 0 0 4.16zm-224.95 -720.65l-4.17 0 0 -8.34 4.17 0 0 8.34zm245.77 554.03l-4.16 0 0 -12.5 4.16 0 0 12.5zm-412.4 -470.72l4.17 0 0 4.16 -8.33 0 0 -8.33 4.16 0 0 4.17zm162.46 179.12l-4.16 0 0 -4.16 -4.17 0 0 -4.17 8.33 0 0 8.33zm54.16 308.26l-4.17 0 0 4.17 -4.16 0 0 -8.34 8.33 0 0 4.17zm-179.13 -724.82l-4.16 0 0 4.16 -4.17 0 0 -8.33 8.33 0 0 4.17zm-24.99 0l-12.5 0 0 -4.17 12.5 0 0 4.17zm204.12 683.16l-8.33 0 0 -4.16 4.16 0 0 -4.17 4.17 0 0 8.33zm324.92 -329.08l-8.33 0 0 -4.17 4.16 0 0 -4.16 4.17 0 0 8.33zm-237.44 -158.3l-4.17 0 0 -4.16 -4.16 0 0 -8.34 4.16 0 0 4.17 4.17 0 0 8.33 4.16 0 0 4.17 4.17 0 0 4.16 -8.33 0 0 4.17 -4.17 0 0 8.33 4.17 0 0 8.33 -4.17 0 0 20.83 -8.33 0 0 -20.83 4.17 0 0 -8.33 -4.17 0 0 -8.33 4.17 0 0 -4.17 4.16 0 0 -4.16 4.17 0 0 -4.17zm-58.32 437.4l-8.33 0 0 -8.34 8.33 0 0 8.34zm274.93 158.29l-4.16 0 0 4.17 -4.17 0 0 -8.34 4.17 0 0 -4.16 4.16 0 0 8.33zm-54.15 -112.47l-4.17 0 0 4.16 -4.16 0 0 -8.33 4.16 0 0 -4.16 4.17 0 0 8.33zm-395.74 -337.42l0 -4.17 -4.17 0 0 -8.33 8.33 0 0 4.17 4.17 0 0 16.66 -4.17 0 0 4.17 -4.16 0 0 -12.5zm-24.99 -58.32l-4.17 0 0 -4.16 -4.17 0 0 -4.17 -4.16 0 0 -4.17 -4.17 0 0 -8.33 -4.16 0 0 -4.16 -4.17 0 0 -4.17 -4.16 0 0 -4.17 -4.17 0 0 -4.16 12.5 0 0 4.16 8.33 0 0 -12.49 8.33 0 0 4.16 4.17 0 0 4.17 -4.17 0 0 8.33 4.17 0 0 4.17 4.16 0 0 8.33 4.17 0 0 4.16 4.16 0 0 12.5 4.17 0 0 8.33 4.16 0 0 16.66 4.17 0 0 16.67 -4.17 0 0 -4.17 -4.16 0 0 -12.5 -4.17 0 0 -8.33 -4.16 0 0 -4.16 -4.17 0 0 -4.17 -4.16 0 0 -8.33zm287.43 483.22l0 4.16 -4.17 0 0 8.33 4.17 0 0 4.17 4.16 0 0 4.16 20.83 0 0 4.17 8.33 0 0 -4.17 8.33 0 0 -4.16 4.17 0 0 -4.17 4.16 0 0 -4.16 -4.16 0 0 -4.17 -4.17 0 0 -4.16 -4.16 0 0 -4.17 12.49 0 0 -4.16 4.17 0 0 -4.17 4.17 0 0 4.17 4.16 0 0 4.16 4.17 0 0 -4.16 4.16 0 0 -4.17 4.17 0 0 -4.17 -4.17 0 0 -4.16 -24.99 0 0 -4.17 -4.17 0 0 4.17 -8.33 0 0 4.16 -8.33 0 0 8.34 -4.17 0 0 -4.17 -8.33 0 0 4.17 -4.16 0 0 4.16 -4.17 0 0 4.17 -4.16 0zm-258.28 -987.26l4.17 0 0 8.33 4.17 0 0 8.33 -4.17 0 0 -4.17 -4.17 0 0 -8.33 -4.16 0 0 -16.66 4.16 0 0 12.5zm395.74 845.62l4.17 0 0 4.17 8.33 0 0 4.17 -16.66 0 0 -8.34 -4.17 0 0 -4.16 4.17 0 0 -4.17 4.16 0 0 8.33zm-408.23 -566.52l-4.17 0 0 4.16 -8.33 0 0 -12.5 4.17 0 0 -4.16 8.33 0 0 12.5zm-20.83 -208.29l-4.17 0 0 4.17 -4.16 0 0 4.16 -4.17 0 0 4.17 -4.16 0 0 -8.33 4.16 0 0 -12.5 12.5 0 0 8.33zm295.76 270.77l-8.33 0 0 8.33 8.33 0 0 -8.33zm-216.61 -395.74l4.16 0 0 4.17 -4.16 0 0 8.33 -12.5 0 0 -8.33 -4.17 0 0 -4.17 4.17 0 0 -4.16 12.5 0 0 4.16zm283.26 649.85l8.33 0 0 -4.17 -4.16 0 0 -4.17 -4.17 0 0 8.34zm-66.65 466.55l4.17 0 0 -25 -16.67 0 0 16.67 12.5 0 0 8.33zm133.3 -70.82l-8.33 0 0 8.33 8.33 0 0 -8.33zm-354.08 -1008.09l-4.16 0 0 8.33 -8.34 0 0 -16.66 4.17 0 0 -8.33 4.17 0 0 -4.16 4.16 0 0 20.82zm224.95 541.54l4.16 0 0 24.99 -4.16 0 0 8.33 -4.17 0 0 -37.49 4.17 0 0 4.17zm170.79 -291.6l0 4.17 4.17 0 0 -4.17 -4.17 0zm-4.17 -4.16l0 4.16 4.17 0 0 -4.16 -4.17 0zm0 0l0 -4.17 -4.16 0 0 4.17 4.16 0zm-233.27 62.48l-4.17 0 0 -4.16 -4.16 0 0 24.99 4.16 0 0 -12.5 4.17 0 0 -8.33zm-166.63 116.64l-4.17 0 0 4.17 -8.33 0 0 4.16 -4.16 0 0 4.17 -4.17 0 0 4.16 -4.16 0 0 4.17 -4.17 0 0 4.16 12.5 0 0 -4.16 12.49 0 0 -4.17 4.17 0 0 -16.66zm4.17 -95.81l-4.17 0 0 12.5 4.17 0 0 -12.5zm283.26 733.16l-4.16 0 0 4.16 4.16 0 0 -4.16zm49.99 -20.83l-12.5 0 0 4.16 -8.33 0 0 4.17 12.5 0 0 -4.17 8.33 0 0 -4.16zm8.33 -8.33l-4.17 0 0 4.16 4.17 0 0 -4.16zm-45.82 -25l-4.17 0 0 -4.16 -4.16 0 0 24.99 4.16 0 0 -12.5 4.17 0 0 -8.33zm8.33 20.83l4.16 0 0 -24.99 -4.16 0 0 4.16 -4.17 0 0 8.33 4.17 0 0 12.5zm133.3 -49.99l4.17 0 0 -24.99 -4.17 0 0 4.16 -4.17 0 0 8.34 4.17 0 0 12.49zm-196.26 -158.13c-15.68,2.97 -28.64,-0.43 -39.54,-8.49l2.52 0 0 -12.5 4.17 0 0 -16.66 4.16 0 0 -8.33 4.17 0 0 -12.5 -4.17 0 0 -16.66 4.17 0 0 -12.5 4.17 0 0 -4.17 4.16 0 0 -4.16 4.17 0 0 -8.33 4.16 0 0 -8.34 4.17 0 0 -8.33 4.16 0 0 -4.16 4.17 0 0 -4.17 4.17 0 0 -4.16 8.33 0 0 4.16 4.16 0 0 4.17 1.84 0c-2.44,32.34 -9.1,67.29 -23.14,125.13zm-49.51 -17.74c-4.95,-5.62 -9.42,-12.33 -13.48,-19.91l5.15 0 0 -4.17 12.49 0 0 8.33 -4.16 0 0 15.75zm-19.49 -32.41c-2.3,-5.28 -4.46,-10.85 -6.51,-16.66l5.17 0 0 -4.17 -4.17 0 0 -8.33 4.17 0 0 -4.17 4.16 0 0 -4.16 8.34 0 0 24.99 -4.17 0 0 8.33 -4.17 0 0 4.17 -2.82 0zm-9.67 -26.15c-3.66,-11.49 -6.94,-23.73 -9.98,-36.34l1.65 0 0 4.17 8.33 0 0 4.17 4.16 0 4.17 0 0 8.33 -4.17 0 0 4.16 -4.16 0 0 15.51zm-12.91 -48.83c-6.17,-27.11 -11.55,-55.32 -17.55,-80.99 -9.66,-41.27 -18.11,-76.2 -25.5,-106.47l5.97 0 0 -4.16 -6.98 0c-54.6,-223.72 -48.53,-186.67 -26.5,-551.11 4.86,-80.28 7.62,-254.92 69.9,-265.33 17.44,229.36 -5.93,333.49 90.2,524.52 13.55,26.93 17.46,87.12 18.52,150.29l-3.51 0 0 4.16 -8.33 0 0 -4.16 -12.5 0 0 -4.17 -4.16 0 0 -4.17 -8.33 0 0 -4.16 -4.17 0 0 -4.17 -4.17 0 0 -4.16 -4.16 0 0 -4.17 -4.17 0 0 -4.16 -4.16 0 0 -8.34 -4.17 0 0 -4.16 -8.33 0 0 -4.17 -12.5 0 0 -4.16 -4.16 0 0 -4.17 0 -4.16 -4.17 0 0 -12.5 -4.16 0 0 -12.5 4.16 0 0 -12.49 -4.16 0 0 8.33 -4.17 0 0 4.16 -12.5 0 0 4.17 -4.16 0 0 4.16 4.16 0 0 4.17 4.17 0 0 12.5 -4.17 0 0 4.16 -4.16 0 0 12.5 -4.17 0 0 8.33 -4.16 0 0 8.33 -4.17 0 0 4.17 -4.16 0 0 8.33 -4.17 0 0 4.16 -8.33 0 0 4.17 -4.17 0 0 4.17 -4.16 0 0 4.16 -4.17 0 0 4.17 -4.16 0 0 4.16 4.16 0 0 -4.16 8.33 0 0 -4.17 8.33 0 0 -4.16 8.34 0 0 -4.17 4.16 0 0 -4.17 12.5 0 0 -4.16 12.5 0 0 -4.17 4.16 0 0 4.17 8.33 0 0 4.16 4.17 0 0 -8.33 4.16 0 0 -4.16 4.17 0 0 4.16 8.33 0 0 4.17 4.17 0 0 4.16 8.33 0 0 4.17 4.16 0 0 4.17 4.17 0 0 4.16 -4.17 0 0 8.33 8.33 0 0 -4.16 16.67 0 4.16 0 0 4.16 20.83 0 0 4.17 3.73 0c0.54,57.1 -0.75,114.47 1.07,150.03 0.87,16.96 1.74,32.06 2.55,45.75l-11.51 0 0 -4.16 -8.34 0 0 4.16 4.17 0 0 4.17 8.33 0 0 4.17 4.17 0 0 4.16 -12.5 0 0 -4.16 -12.5 0 0 4.16 8.33 0 0 4.17 8.34 0 0 4.16 4.16 0 0 8.33 4.17 0 0 33.33 4.16 0 0 4.16 -4.16 0 0 16.67 -4.17 0 0 8.33 -4.16 0 0 8.33 -4.17 0 0 4.17 -4.17 0 0 4.16 -4.16 0 0 4.17 -4.17 0 0 4.16 -4.16 0 0 4.17 -4.17 0 0 4.16 -4.16 0 0 4.17 -4.17 0 0 4.16 0 4.17 -4.17 0 0 4.17 -8.33 0 0 -4.17 -4.16 0 0 -4.17 -4.17 0 0 -8.33 -4.16 0 0 -4.16 -4.17 0 0 -8.33 4.17 0 0 -12.5 4.16 0 0 -8.33 4.17 0 0 -16.66 4.16 0 0 -20.83 4.17 0 0 -12.5 4.16 0 8.34 0 0 -4.16 -4.17 0 0 -4.17 -4.17 0 0 -8.33 4.17 0 0 -4.17 4.17 0 0 -4.16 4.16 0 0 -4.17 4.17 0 0 -8.33 -12.5 0 0 8.33 -4.17 0 0 4.17 -4.16 0 0 -4.17 -4.17 0 0 -8.33 4.17 0 0 -4.17 8.33 0 0 -8.33 -4.17 0 0 -4.16 -4.16 0 0 4.16 -4.17 0 0 4.17 -4.16 0 0 8.33 -4.17 0 0 8.33 -4.16 0 0 8.33 -4.17 0 0 12.5 -4.16 0 0 4.17 4.16 0 0 4.16 4.17 0 0 4.17 4.16 0 0 12.49 4.17 0 0 4.17 -4.17 0 0 12.5 -4.16 0 0 8.33 -4.17 0 0 12.49 -4.16 0 0 4.17 -4.17 0 0 4.17 -4.17 0 0 8.33 -4.16 0 0 8.33 -4.17 0 0 4.16 -12.49 0 0 -4.16 -4.58 0z"/>
 </g>
</svg>
