<?xml version="1.0" encoding="UTF-8"?>
<!DOCTYPE svg PUBLIC "-//W3C//DTD SVG 1.1//EN" "http://www.w3.org/Graphics/SVG/1.1/DTD/svg11.dtd">
<!-- Creator: CorelDRAW (Versión de evaluación) -->
<svg xmlns="http://www.w3.org/2000/svg" xml:space="preserve" width="739px" height="2458px" version="1.1" style="shape-rendering:geometricPrecision; text-rendering:geometricPrecision; image-rendering:optimizeQuality; fill-rule:evenodd; clip-rule:evenodd"
viewBox="0 0 739 2457.4"
 xmlns:xlink="http://www.w3.org/1999/xlink"
 xmlns:xodm="http://www.corel.com/coreldraw/odm/2003">
 <defs>
  <style type="text/css">
   <![CDATA[
    .str0 {stroke:#4B4B4D;stroke-width:10;stroke-miterlimit:22.9256}
    .fil0 {fill:#FEFEFE}
   ]]>
  </style>
 </defs>
 <g id="tooth-fissure-root-21">
  <metadata id="CorelCorpID_0Corel-Layer"/>
  <path id="crown" class="fil0 str0" d="M446.26 1515.02c24.06,75.22 174.89,148.54 242.36,176.59 19.76,121.94 93.73,596.63 14.61,689.34 -68.67,80.44 -563.16,94.35 -663.44,56.01 -85.74,-58.86 -18.26,-660.17 64.29,-729.73 42.23,-35.58 121.45,-107.83 126.62,-162.04 39.3,-9.2 38.36,-43.02 97.75,-52.76 48.83,-8 69.89,24.01 117.81,22.59z"/>
  <path id="root" class="fil0 str0" d="M446.26 1515.02c-0.12,-15.52 -18.09,-28.87 -43.62,-37.08 0.4,-1.04 0.8,-2.46 1.28,-4.46 4.48,-18.78 -4.53,-13.9 -4.55,-13.93l-9.89 -4.95c2.54,9.6 0.9,7.65 4.94,14.85l0 6.1c-61.02,-16.06 -155.2,-4.27 -163.72,69.64 -19.62,4.84 -145.34,146.12 -146.88,148.48 -9.97,-63.09 12.87,-311.72 25.09,-432.9 31.18,-1.35 69.03,-7.57 77.66,-4.12 16.35,6.52 39.91,84.12 113.83,84.12 -8.56,-11.67 -22.79,-18.33 -36.73,-27.6 -22.5,-14.97 -12.88,-18.6 -32.55,-31.78l0 -19.79 5.19 -14.6c0.17,-1.24 -0.25,-12.94 -0.25,-15.1l4.95 -4.95c11.49,-7.69 27.47,-16.78 38.35,-25.99 11.74,-9.95 21.73,-17.46 25.99,-33.39l-64.34 49.49 -9.89 4.94c-7.95,16.56 -1.96,23.04 -9.91,39.6l0 4.94 -14.84 0c-5.84,-11.03 -8.26,-14.9 -14.85,-24.74 -29.18,0 -54.01,1.93 -81.03,3.38 1.1,-10.75 2.09,-20.16 2.9,-27.86 35.52,-335.95 122.91,-523.81 202.77,-813.06 60.54,-219.33 13.69,-366.35 100.4,-404.26 80.88,54.32 154.37,675.96 166.65,802.09l34.25 313.57c-1.54,0.67 -3.29,1.46 -5.29,2.42 4.07,6.07 5.53,7.25 6.53,8.98l1.49 13.63c-6.98,10.49 -4.65,7.66 -11.41,23.49 -4.41,10.34 -6.85,14.18 -12.27,22.37 -13.72,20.72 -20.1,14.95 -33.83,35.45l0 4.95 -5.77 -4.12 5.77 -0.83c30.52,-7.1 41.85,-27.52 63.52,-26.31l49.95 457.27c-101.21,9.01 -142.84,-133.95 -229.89,-137.94zm-61.74 -545.41l-1.47 -1.47c0.1,0.1 1.96,0.98 1.47,1.47zm103.93 277.14l-1.48 -1.48c0.1,0.1 1.97,0.99 1.48,1.48zm-153.41 -178.16l-1.48 -1.47c0.1,0.09 1.97,0.98 1.48,1.47zm-29.69 -287.03l-1.48 -1.47c0.1,0.09 1.97,0.98 1.48,1.47zm143.51 -113.82l-1.48 -1.47c0.1,0.09 1.97,0.98 1.48,1.47zm-49.49 64.33l-1.48 -1.47c0.1,0.1 1.97,0.98 1.48,1.47zm-53.45 337.51c2.42,-13.85 -2.82,-6.51 8.91,-10.89l-8.91 10.89zm-29.69 280.1c-13.85,-2.42 -6.51,2.83 -10.88,-8.91l10.88 8.91zm216.76 -107.88c0,11.73 -8.02,1.99 -3.21,0 0.06,-0.02 3.21,-14.25 3.21,0zm-24.74 0c0,11.73 -8.02,1.99 -3.22,0 0.07,-0.02 3.22,-14.25 3.22,0zm9.89 -796.76c-4.81,4.81 -17.98,-6.59 -5.99,-2.78 0.12,0.04 14.3,-5.53 5.99,2.78zm-128.66 816.56c-4.81,4.8 -17.98,-6.59 -6,-2.79 0.13,0.04 14.3,-5.52 6,2.79zm173.2 44.54c-4.81,4.8 -17.98,-6.59 -6,-2.79 0.13,0.04 14.31,-5.52 6,2.79zm-237.54 -242.5l-14.85 0 0 -4.95 14.85 0 0 4.95zm-54.44 -163.31c3.73,-3.23 1.36,-3.38 8.29,-6.56 10.44,-4.8 2.51,-1.24 11.51,-3.33 -11.18,15.25 3.21,7.93 -19.8,9.89zm34.65 158.36l-24.75 0 0 -4.94 24.75 0 0 4.94zm103.92 -237.54c-12.51,-9.16 -14.85,-12.7 -14.85,-34.64l4.95 0c0,17.98 5.87,17.36 9.9,34.64zm-39.59 316.73c1.61,-19.35 -3,-15.04 14.84,-19.8 -1.6,19.35 3,15.03 -14.84,19.8zm113.82 282.08c1.6,-19.23 4.47,-12.9 4.95,-34.65l9.89 -4.94 4.96 -4.95c4.03,-7.19 2.4,-5.24 4.95,-14.85 -11.58,-6.12 -12.89,-8.5 -29.7,-9.89 5.76,-12.45 6.6,-14.15 -6.45,-23.03l-28.19 -16.57c-13.48,7.14 -25.32,13.25 -44.54,14.85 -14.36,3.83 -6.94,0.45 -18.32,9.9l-11.06 5.85c3.38,-16.32 -0.97,-8.4 11.06,-15.75 -1.94,-6.5 -3.23,-4.95 3.47,-4.95l34.65 -54.44c-6.99,-3.46 -8.22,-4.94 -19.8,-4.94l0 -4.95c18.31,0 12.84,0.76 24.74,-4.95 -18.53,-27.68 -28.39,-7.66 -44.53,-29.7 20.69,-2.26 22.43,-3.63 24.74,-24.74 -34.85,16.72 -53.49,2.6 -69.28,9.9 -7.4,10.65 -0.72,6.51 -14.85,9.9l-4.95 9.89c-3.39,14.56 -4.95,15.11 -4.95,34.65l-9.89 0c1.58,-19.03 3.17,-26.09 14.84,-34.65l4.95 -9.89 4.95 -9.9 0 -14.85c-10.65,-7.4 -6.52,-0.72 -9.9,-14.85 10.94,7.61 6.15,0.82 9.9,14.85 27.64,-2.3 5.6,-5.69 27.97,1.56 28.93,9.39 24.71,-1.52 80.9,-31.25 0,-69.94 -6.43,-35.2 -24.74,-113.82 -17.84,1.48 -13.65,3.93 -25.96,8.68 -17.92,6.92 -7.78,0.56 -23.53,11.11 9.43,-35.32 16.09,7.79 54.44,-49.49 -3.91,-16.78 -10.41,-25.46 -14.85,-44.54l-9.89 -9.89c-6.84,-29.34 -8.72,-22.01 6.89,-37.64 12.32,-12.34 1.38,-7.46 17.85,-11.85 -4.52,-9.42 -8.81,-26.42 -9.9,-39.59 -24.62,-2.05 -19.65,-5.47 -24.74,-9.9l1.47 -4.95 -7.53 -13.81c-8.09,-20.88 -7.75,-26.67 -28.58,-40.62 -9.2,6.74 -0.24,0.84 -7.76,7.09 -7.72,6.43 -1.26,3.85 -12.04,7.75 3.86,-16.57 7.06,-14.98 11.7,-27.88 6.84,-19.04 -1.51,-19.92 8.1,-37.93 20.34,-13.27 10.71,-15.51 29.69,-28.21 13.65,-25.81 3.64,-20.86 29.69,-34.65l5.86 -78.27c4.94,-31.65 16.88,-31.38 8.99,-65.24 10.44,-7.66 12.61,-14.02 19.79,-24.75 -11.12,-23.17 -14.85,-33.9 -14.85,-69.28 -21.27,-1.77 -8.91,0.7 -24.74,-9.9l-14.85 -14.84c-31.75,-9.01 -12.09,1.28 -34.63,-34.61 -11.57,-18.41 -17.73,-9.78 -19.8,-34.68 18.42,12.34 28.76,29.22 45.73,43.36l58.19 35.82c32.51,-7.57 24.05,-19.79 69.29,-19.79l-59.39 34.64c-1.71,76.61 11.43,43.14 14.85,84.13 -25.34,6.07 -8.61,9.27 -17.69,46.74l-7.06 106.67c17.41,8.35 17.48,8.59 34.64,4.95 -12.43,26.89 20.32,24.98 34.65,44.54 -22.91,-5.34 -69.6,-31.49 -89.08,-44.54 -31.24,20.92 -21.53,28.71 -39.59,49.49l-5.37 9.64 -9.48 -1.22c-21.44,47.69 0.4,37.88 24.74,92.04 6.74,11.18 3.4,0.08 4.96,18.31 11.28,2.63 11.38,3.84 24.74,4.95 3.35,14.39 4.3,20.19 12.49,32.04 17.27,24.96 11.14,0.63 27.1,22.39l10.64 2.73 -10.64 -2.73c-11.65,-2.71 -14.62,-4.61 -29.7,-4.94 -8.17,5.48 -14.55,10.01 -21.16,18.79 -9.1,12.08 -6.58,11.56 -3.58,25.75l15 19.64c7.48,11.02 9.32,10.52 9.74,29.84 42.85,9.99 37.65,-4.94 79.19,-4.94 -22.11,33.01 -36.06,-7.87 -39.59,34.64l-6.84 -8.01c-14.37,-14.17 -26.2,-4.64 -37.7,3.06 11.8,22.31 9.89,24.16 16.75,52.53 5.07,20.96 13.34,32.26 22.84,46.45 0,26.53 -0.66,47.86 5.83,68.39 6.47,20.48 13.32,31.4 13.96,60.27l0 9.9 9.62 4.71c-5.61,11.36 -1.46,4.08 0.28,24.99 -21.38,-14.32 -7.33,-7.23 -34.64,-4.95 9.33,12.73 24.7,21.73 39.59,14.84 -6.59,28.27 -7.24,8.74 23.74,45.55 7.32,8.71 13.24,11.93 26.04,13.55l22.75 2c1.15,0.37 2.48,0.98 3.5,1.44 6.74,3.1 4.53,3.64 8.1,6.74 -37.82,0 -44.9,-9.24 -74.23,-9.89l-4.96 4.95c-2.08,8.93 -2.32,11.36 -4.69,20.04 -2.31,8.4 1.36,1.4 -3.57,11.28 -3.31,6.65 -3.41,4.62 -6.58,8.27l0 4.95 -5.77 -4.13 5.77 -0.82zm-143.52 -519.63c2.64,-11.28 3.85,-11.38 4.96,-24.74l14.84 0c-4.34,16.26 -7.18,16.3 -19.8,24.74zm103.93 -108.87l-9.9 0c0.5,-22.27 1.76,-25.06 14.85,-34.64 0,19.53 -1.56,20.08 -4.95,34.64zm14.85 -54.44c-3.75,6.67 -2.71,5.47 -4.95,14.85l-14.85 0c-3.47,-13.1 0.4,-4.07 -4.95,-14.85 10.68,-8.92 22.84,-2.33 24.75,0zm59.38 554.27l14.85 0 0 19.79 -19.03 -15.69c-4.75,15.76 -0.71,11.71 -15.62,15.69l9.91 -44.54 14.84 0c-2.63,11.29 -3.81,11.39 -4.95,24.75zm-168.25 95.5c-8.96,-12.52 -17.05,-19.67 -24.75,-31.17 13.36,1.12 13.46,2.32 24.75,4.95 2.2,-25.89 -4.73,-8.94 9.89,-14.84 10.35,25.04 -7.26,-3.92 3.84,20.78 3.5,7.79 11.27,15.86 15.27,24.45 7.62,16.42 15.04,36.44 15.53,58.69l-31.17 -49.49 -13.36 -13.37zm89.07 -100.45c-18.46,9.77 -23.07,12.4 -34.64,29.69 15.17,-1.26 23.79,-4.69 34.64,-9.89l0 -19.8zm4.95 -113.82l-4.95 0 0 14.85 4.95 0 0 -14.85z"/>
 </g>
</svg>
