<?xml version="1.0" encoding="UTF-8"?>
<!DOCTYPE svg PUBLIC "-//W3C//DTD SVG 1.1//EN" "http://www.w3.org/Graphics/SVG/1.1/DTD/svg11.dtd">
<!-- Creator: CorelDRAW (Versión de evaluación) -->
<svg xmlns="http://www.w3.org/2000/svg" xml:space="preserve" width="739px" height="2458px" version="1.1" style="shape-rendering:geometricPrecision; text-rendering:geometricPrecision; image-rendering:optimizeQuality; fill-rule:evenodd; clip-rule:evenodd"
viewBox="0 0 739 2457.4"
 xmlns:xlink="http://www.w3.org/1999/xlink"
 xmlns:xodm="http://www.corel.com/coreldraw/odm/2003">
 <defs>
  <style type="text/css">
   <![CDATA[
    .str0 {stroke:#373435;stroke-width:5;stroke-miterlimit:22.9256}
    .fil0 {fill:#FEFEFE}
   ]]>
  </style>
 </defs>
 <g id="tooth-fissure-root-36">
  <metadata id="CorelCorpID_0Corel-Layer"/>
  <path id="root" class="fil0 str0" d="M664.48 2162.05c-17.66,14.48 -12.79,17.5 -25.98,55.17 -125.55,358.5 -112.07,-175.76 -113.76,-188.69 -13.75,-105.11 -38.36,-177 -58.49,-273.24 -25.92,-123.83 6.58,-224.71 -33.47,-299.89 -129.09,-59.05 -121.05,295.42 -117.17,445.47 2.58,99.98 7.29,212.29 15.41,311.1 7.09,86.08 29.41,179.94 -2.26,245.05 -131.72,15.94 -198.24,-473.79 -217.53,-643.11 -30.21,-265.34 -32.52,-454.94 -21.29,-710.3 3.06,-69.71 14.41,-142.93 3.78,-207.44 51.07,-4.48 64.35,7.52 116.14,-23.19 30.55,-18.12 69.35,-41.19 101.87,-27.5 37.72,15.88 60,57.99 101.8,49.88 24.09,-4.67 72.28,-25.02 113.52,-65.24 29.5,8.61 108.3,7.25 157.89,-33.12 -17.54,109.1 -43.54,194.48 -43.9,316.87 -0.34,123.88 0.1,242.55 8.4,363.11 7.53,109.46 28.47,223.12 31.8,336.03 6.17,208.77 -21.01,287.01 -16.76,349.04zm0 0c-17.66,14.48 -12.79,17.5 -25.98,55.17 -125.55,358.5 -112.07,-175.76 -113.76,-188.69 -0.76,-5.82 -1.56,-11.53 -2.38,-17.16l2.71 2.19 15.65 -19.5 3.25 2.61 2.61 -3.25 2.6 -3.25 9.75 7.82 -2.61 3.25 3.25 2.61 -5.22 6.5 3.25 2.6 -2.6 3.25 3.25 2.61 -2.61 3.25 32.49 26.07 2.6 -3.25 55.23 44.33 2.61 -3.25 -6.5 -5.22 2.61 -3.24 -3.25 -2.61 2.61 -3.25 -16.24 -13.04 -2.61 3.25 -6.5 -5.21 2.61 -3.25 -22.75 -18.25 -2.6 3.25 -29.24 -23.47 2.61 -3.25 -6.5 -5.21 5.21 -6.5 -3.25 -2.61 2.61 -3.25 -3.25 -2.6 2.61 -3.25 -3.25 -2.61 5.21 -6.5 -3.24 -2.6 2.6 -3.25 -3.25 -2.61 5.22 -6.5 -3.25 -2.61 2.61 -3.25 -6.5 -5.21 2.61 -3.25 -3.25 -2.61 2.61 -3.24 -3.25 -2.61 2.6 -3.25 -3.24 -2.61 2.6 -3.25 -9.74 -7.82 2.6 -3.25 -6.49 -5.21 2.6 -3.25 -16.24 -13.04 -2.61 3.25 3.25 2.61 -2.61 3.25 6.5 5.21 -2.61 3.25 3.25 2.61 -2.6 3.25 6.49 5.21 -2.61 3.25 3.26 2.61 -2.61 3.25 6.5 5.21 -2.61 3.25 3.25 2.61 -2.61 3.25 3.25 2.6 -5.22 6.5 3.25 2.61 -2.6 3.25 3.24 2.61 -2.6 3.24 3.25 2.61 -10.43 13 -3.25 -2.61 -15.45 19.25c-14.15,-92.63 -36.54,-160.72 -55.13,-249.56 -16.88,-80.63 -8.99,-151.53 -12.48,-211.94l1.77 -2.21 9.75 7.82 -2.61 3.25 6.5 5.21 -7.83 9.75 9.75 7.82 -2.61 3.25 3.25 2.61 5.22 -6.5 -3.25 -2.61 2.61 -3.25 -3.25 -2.6 7.82 -9.75 -3.25 -2.61 2.61 -3.25 -9.75 -7.82 2.61 -3.25 -6.5 -5.21 2.61 -3.25 -3.25 -2.61 -3.25 -2.61 5.22 -6.49 3.24 2.6 2.61 -3.24 3.25 2.6 15.64 -19.49 -6.49 -5.21 -2.61 3.24 3.25 2.61 -5.22 6.5 -3.25 -2.61 -2.6 3.25 -3.25 -2.61 -2.61 3.25 -6.5 -5.21 15.65 -19.5 3.24 2.61 5.22 -6.5 3.25 2.61 2.61 -3.25 6.49 5.22 7.82 -9.75 -3.24 -2.61 2.6 -3.25 3.25 2.61 5.22 -6.5 3.25 2.61 5.21 -6.5 3.25 2.61 5.21 -6.5 3.25 2.61 2.61 -3.25 3.25 2.61 5.21 -6.5 -3.25 -2.61 -2.6 3.25 -3.25 -2.6 -2.61 3.24 -3.25 -2.6 -2.61 3.25 -3.24 -2.61 -7.83 9.75 -3.24 -2.61 -2.61 3.25 -3.25 -2.61 -7.82 9.75 -6.5 -5.22 -2.61 3.25 -9.74 -7.82 5.21 -6.5 3.25 2.61 10.43 -13 3.25 2.61 13.03 -16.24 3.25 2.6 23.47 -29.24 3.25 2.61 5.21 -6.5 3.25 2.61 5.21 -6.5 3.25 2.61 5.22 -6.5 3.25 2.61 5.21 -6.5 3.25 2.61 2.61 -3.25 3.25 2.61 5.21 -6.5 3.25 2.61 9.75 7.82 2.6 -3.25 3.25 2.61 2.61 -3.25 3.25 2.61 2.61 -3.25 6.49 5.21 5.22 -6.5 -6.5 -5.21 2.61 -3.25 17.33 13.91c0.24,5.54 0.48,11.08 0.74,16.62l-3.15 -2.53 -5.22 6.5 3.25 2.6 2.61 -3.25 2.78 2.24c0.99,20.24 2.16,40.51 3.56,60.83 7.53,109.46 28.47,223.12 31.8,336.03 4.63,156.63 -9.52,239.79 -15.07,297.75l-6.57 -5.27 2.61 -3.25 -13 -10.43 -2.6 3.25 12.99 10.43 -2.61 3.25 8.72 7c-1.53,17.18 -2.2,32.17 -1.23,46.31zm-222.09 -684.39c-2.62,-7.66 -5.78,-15.08 -9.61,-22.26 -26.69,-12.21 -47.51,-6.71 -63.73,10.99l-5.12 -4.11 2.61 -3.25 -3.25 -2.61 2.61 -3.25 -9.75 -7.82 -2.61 3.25 3.25 2.61 -5.21 6.49 6.5 5.22 -2.61 3.25 3.25 2.61 -2.61 3.25 3.25 2.6 -2.61 3.25 2.29 1.83c-6.2,9.91 -11.58,21.89 -16.24,35.52l-20.63 25.7 -3.25 -2.61 -5.21 6.5 -6.5 -5.21 2.61 -3.25 -6.5 -5.22 2.61 -3.24 -3.25 -2.61 2.61 -3.25 -3.25 -2.61 5.21 -6.5 -3.24 -2.6 7.82 -9.75 -3.25 -2.61 13.03 -16.24 -3.24 -2.61 -2.61 3.25 -3.25 -2.61 -13.04 16.25 -3.25 -2.61 -13.03 16.24 -3.25 -2.6 -2.61 3.25 -9.75 -7.83 -2.6 3.25 -6.5 -5.21 -2.61 3.25 -3.25 -2.61 -2.6 3.25 -3.25 -2.61 -2.61 3.25 -6.5 -5.21 -2.6 3.25 -6.5 -5.22 -2.61 3.25 -6.5 -5.22 -2.6 3.25 -3.25 -2.6 -2.61 3.25 -6.5 -5.22 -2.6 3.25 -6.5 -5.22 -2.61 3.25 -9.75 -7.82 -2.6 3.25 -6.5 -5.21 -2.61 3.25 16.25 13.03 2.6 -3.25 9.75 7.82 2.61 -3.24 6.49 5.21 2.61 -3.25 6.5 5.21 -2.61 3.25 6.5 5.22 7.82 -9.75 13 10.43 2.6 -3.25 3.25 2.61 5.22 -6.5 12.99 10.43 2.61 -3.25 6.5 5.22 2.6 -3.25 6.5 5.21 3.25 2.61 3.25 2.61 -2.61 3.25 3.25 2.6 -2.61 3.25 3.25 2.61 -2.6 3.25 3.24 2.61 -2.6 3.25 6.49 5.21 -5.21 6.5 6.5 5.21 -5.22 6.5 -3.25 -2.61 -5.21 6.5 -3.25 -2.61 5.22 -6.5 -3.25 -2.6 -2.61 3.25 -3.25 -2.61 -5.21 6.5 -3.25 -2.61 -7.82 9.75 -3.25 -2.61 -2.61 3.25 -3.25 -2.61 -2.6 3.25 -6.5 -5.22 -2.61 3.25 -9.75 -7.82 -2.61 3.25 22.75 18.25 2.6 -3.25 3.25 2.61 2.61 -3.25 3.25 2.61 2.61 -3.25 3.24 2.61 2.61 -3.25 3.25 2.6 2.61 -3.24 3.25 2.6 5.21 -6.5 3.25 2.61 7.82 -9.74 3.25 2.6 2.61 -3.24 9.74 7.82 -2.6 3.25 6.49 5.21 2.61 -3.25 -3.25 -2.61 2.61 -3.24 -6.5 -5.22 2.61 -3.25 -3.25 -2.61 2.61 -3.24 9.75 7.82 -2.61 3.25 5.4 4.33c-0.96,6.18 -1.85,12.48 -2.67,18.88l-0.17 0.21 -3.24 -2.61 -15.65 19.5 3.25 2.6 -2.61 3.25 3.25 2.61 14.2 -17.69c-11.61,97.54 -8.82,215.64 -6.96,287.22 0.7,27.34 1.57,55.59 2.62,84.24l-3.25 4.05 3.25 2.61 -13.04 16.24 3.25 2.61 -7.82 9.75 3.25 2.6 -5.22 6.5 3.25 2.61 -2.61 3.25 -3.24 -2.61 -2.61 3.25 -3.25 -2.61 -2.61 3.25 -16.24 -13.03 2.6 -3.25 -3.24 -2.61 5.21 -6.5 -3.25 -2.61 -7.82 9.75 -3.25 -2.61 -2.61 3.25 -6.49 -5.21 -2.61 3.25 -3.25 -2.61 2.61 -3.25 -6.5 -5.21 -2.61 3.24 -3.25 -2.6 -2.6 3.25 -3.25 -2.61 -2.61 3.25 16.25 13.03 2.6 -3.25 13 10.43 2.6 -3.25 16.25 13.04 -2.61 3.25 6.5 5.22 -10.43 12.99 3.25 2.61 -2.61 3.24 3.25 2.61 -5.21 6.5 3.25 2.61 -2.61 3.25 3.25 2.6 -5.22 6.5 3.25 2.61 -5.21 6.5 3.24 2.6 -2.6 3.25 -3.25 -2.6 -5.22 6.49 -3.25 -2.6 -2.6 3.24 -3.25 -2.6 -2.61 3.25 -3.25 -2.61 -2.6 3.25 -3.25 -2.61 -2.61 3.25 -16.24 -13.04 2.6 -3.25 -6.49 -5.21 2.6 -3.25 -6.5 -5.21 -2.6 3.24 6.5 5.22 -2.61 3.25 3.25 2.61 -2.61 3.24 9.75 7.83 -2.61 3.24 3.25 2.61 -5.22 6.5 3.25 2.61 -2.61 3.25 3.25 2.6 -7.82 9.75 3.25 2.61 -5.21 6.49 9.74 7.83 -2.6 3.25 6.49 5.21 -7.82 9.75 3.25 2.6 -2.61 3.25 -2.61 3.25 3.25 2.61 -5.21 6.5 3.25 2.6 -5.22 6.5 3.25 2.61 -2.6 3.25 3.24 2.61 -2.6 3.24 3.25 2.61 -5.22 6.5 3.25 2.61 -2.61 3.24 3.25 2.61 -2.61 3.25 -3.24 -2.61 -5.22 6.5 3.25 2.61 -5.21 6.5 -3.25 -2.61 -5.22 6.5 -3.25 -2.61 -2.06 2.57c-3.69,-12.88 -7.24,-26.07 -10.67,-39.49l3.03 2.42 10.43 -12.99 -3.25 -2.61 5.21 -6.5 -3.25 -2.6 2.61 -3.25 -3.25 -2.61 -5.21 6.5 3.25 2.61 -5.22 6.49 3.25 2.61 -7.69 9.58c-36.46,-142.99 -58.43,-311.44 -68.22,-397.37 -4.06,-35.68 -7.62,-69.99 -10.7,-103.28l2.8 -3.49 3.25 2.61 2.6 -3.25 3.25 2.6 2.61 -3.24 3.25 2.6 5.21 -6.49 3.25 2.6 5.22 -6.49 3.25 2.6 2.6 -3.25 3.25 2.61 2.61 -3.25 3.25 2.61 2.61 -3.25 6.49 5.22 2.61 -3.25 16.24 13.03 -2.6 3.25 3.24 2.61 -2.6 3.25 3.25 2.61 -2.61 3.25 3.25 2.6 -2.61 3.25 3.25 2.61 -5.21 6.5 3.24 2.6 -2.6 3.25 3.25 2.61 2.6 -3.25 6.5 5.22 -2.61 3.24 9.75 7.83 -2.61 3.24 3.25 2.61 -2.61 3.25 6.5 5.22 -2.61 3.24 3.25 2.61 -2.6 3.25 3.25 2.61 -2.61 3.25 3.25 2.6 -2.61 3.25 3.25 2.61 -2.61 3.25 3.25 2.6 -5.22 6.5 3.25 2.61 -2.6 3.25 6.49 5.21 -2.6 3.25 9.74 7.82 -2.6 3.25 3.25 2.61 -2.61 3.25 -2.61 3.25 3.25 2.61 -7.82 9.74 3.25 2.61 -7.83 9.74 -3.24 -2.6 -7.83 9.74 3.25 2.61 5.22 -6.5 3.25 2.61 2.6 -3.25 9.75 7.82 2.61 -3.25 3.25 2.61 2.6 -3.25 -3.25 -2.6 2.61 -3.25 -3.25 -2.61 7.82 -9.75 3.25 2.61 2.61 -3.25 3.25 2.61 7.82 -9.75 3.25 2.61 5.21 -6.5 3.25 2.61 5.22 -6.5 3.25 2.61 2.6 -3.25 3.25 2.61 5.22 -6.5 3.25 2.61 2.6 -3.25 6.5 5.21 2.61 -3.24 3.25 2.6 2.6 -3.25 3.25 2.61 2.61 -3.25 3.25 2.61 2.61 -3.25 3.25 2.61 2.6 -3.25 -3.25 -2.61 -2.6 3.25 -6.5 -5.22 -2.61 3.25 -6.5 -5.21 -2.6 3.25 -6.5 -5.22 -2.61 3.25 -3.25 -2.6 -2.6 3.24 -9.75 -7.82 -2.61 3.25 -9.74 -7.82 -2.61 3.25 -3.25 -2.61 2.61 -3.25 -6.5 -5.21 2.61 -3.25 -3.25 -2.61 -5.22 6.5 -3.25 -2.61 -2.6 3.25 -3.25 -2.61 2.61 -3.24 -6.5 -5.22 2.61 -3.25 -3.25 -2.61 2.6 -3.24 -6.49 -5.22 2.6 -3.25 -3.25 -2.6 2.61 -3.25 -3.25 -2.61 2.61 -3.25 3.25 2.61 5.21 -6.5 -6.49 -5.21 -2.61 3.24 -13 -10.43 -3.25 -2.6 2.61 -3.25 -16.24 -13.04 2.6 -3.25 -6.49 -5.21 2.61 -3.25 -3.25 -2.61 2.6 -3.25 -3.25 -2.6 5.22 -6.5 3.25 2.61 5.21 -6.5 -3.25 -2.61 2.61 -3.25 -3.25 -2.61 5.22 -6.49 -9.75 -7.82 -6.5 -5.22 -3.25 -2.6 -2.6 3.24 -3.25 -2.6 -2.61 3.25 -3.25 -2.61 -2.61 3.25 -6.49 -5.22 2.6 -3.25 -3.25 -2.6 2.61 -3.25 -19.49 -15.65 -7.82 9.75 6.49 5.22 -2.6 3.24 6.49 5.22 -2.6 3.25 -3.25 -2.61 -10.43 12.99 -3.25 -2.6 -2.61 3.25 -3.24 -2.61 -2.61 3.25 -3.25 -2.61 -2.61 3.25 -3.25 -2.61 -2.5 3.12c-0.72,-8.07 -1.41,-16.08 -2.07,-24.04l2.01 -2.5 -2.37 -1.9 -0.13 -1.64 12.28 -15.31 -3.24 -2.61 5.21 -6.5 6.5 5.22 -5.22 6.49 3.25 2.61 -2.6 3.25 6.49 5.21 5.22 -6.49 3.25 2.6 5.21 -6.49 -9.75 -7.83 -3.25 -2.6 2.61 -3.25 -16.24 -13.04 2.6 -3.25 -9.74 -7.82 2.61 -3.25 -3.25 -2.6 2.6 -3.25 -6.49 -5.22 -2.92 -2.34c-2.49,-38.56 -4.33,-76.18 -5.59,-113.51l6.75 -8.41 3.25 2.61 13.03 -16.25 3.25 2.61 5.21 -6.5 2.61 -3.25 -6.5 -5.21 5.22 -6.5 6.5 5.22 -5.22 6.49 3.25 2.61 5.22 -6.5 3.24 2.61 20.86 -25.99 3.25 2.61 5.22 -6.5 9.74 7.82 -2.61 3.25 6.5 5.22 5.22 -6.5 -6.5 -5.22 2.61 -3.24 -9.75 -7.83 5.22 -6.49 3.24 2.6 7.83 -9.74 -3.25 -2.61 -2.61 3.25 -3.25 -2.61 -2.61 3.25 -3.25 -2.61 -10.42 13 -3.25 -2.61 -7.83 9.75 -3.24 -2.61 -5.22 6.5 -3.25 -2.61 -5.21 6.5 -3.25 -2.61 -2.61 3.25 -3.25 -2.61 -5.21 6.5 -3.25 -2.61 -7.82 9.75 -3.25 -2.61 -5.22 6.5 -3.25 -2.61 -7.09 8.84c-2.66,-106.42 -0.7,-211.94 4.35,-331.53l2.6 -3.24 -2.38 -1.91 0.44 -10.24c3.06,-69.71 14.41,-142.93 3.78,-207.44 51.07,-4.48 64.35,7.52 116.14,-23.19 12.65,-7.51 26.72,-15.86 41.17,-22.1l-1.31 1.64 3.25 2.61 -2.61 3.25 3.25 2.6 -2.61 3.25 6.5 5.22 -2.61 3.25 6.5 5.21 -5.22 6.5 3.25 2.6 -5.21 6.5 3.25 2.61 -2.61 3.25 6.5 5.21 -2.61 3.25 3.25 2.61 -2.61 3.25 3.25 2.61 -5.21 6.49 6.49 5.22 -7.82 9.75 3.25 2.6 -2.61 3.25 3.25 2.61 -5.21 6.49 3.25 2.61 -2.61 3.25 3.25 2.61 -2.61 3.25 9.75 7.82 -2.61 3.25 3.25 2.6 -2.61 3.25 3.25 2.61 -2.61 3.25 6.5 5.21 -2.61 3.25 3.25 2.61 -5.21 6.5 3.25 2.61 -2.61 3.25 3.25 2.6 -5.22 6.5 3.25 2.61 -5.21 6.5 3.25 2.6 -2.61 3.25 3.25 2.61 -2.61 3.25 3.25 2.6 -2.61 3.25 -2.6 3.25 3.25 2.61 -2.61 3.25 -2.61 3.25 -5.21 6.49 3.24 2.61 -5.21 6.5 3.25 2.61 -13.04 16.24 -3.25 -2.61 -5.21 6.5 3.25 2.61 -5.22 6.5 3.25 2.6 -7.82 9.75 3.25 2.61 -7.82 9.74 -6.5 -5.21 -2.61 3.25 -6.49 -5.22 -2.61 3.25 -6.5 -5.21 -2.61 3.25 -25.99 -20.86 -2.6 3.25 -9.75 -7.82 -2.61 3.24 -6.5 -5.21 2.61 -3.25 -6.5 -5.21 -2.6 3.24 -3.25 -2.6 2.61 -3.25 -13 -10.43 5.21 -6.5 3.25 2.61 2.61 -3.25 -3.25 -2.61 -2.61 3.25 -12.99 -10.43 7.82 -9.74 -3.25 -2.61 -2.61 3.25 -3.24 -2.61 2.6 -3.25 -6.5 -5.21 -5.21 6.49 3.25 2.61 -2.61 3.25 3.25 2.61 -5.21 6.5 3.25 2.6 2.6 -3.25 9.75 7.83 -2.61 3.25 3.25 2.6 -2.61 3.25 -3.25 -2.61 -2.6 3.25 -6.5 -5.21 -2.61 3.25 22.74 18.25 -2.6 3.25 9.74 7.82 -2.6 3.25 -3.25 -2.61 -2.61 3.25 9.75 7.82 5.21 -6.5 9.75 7.82 2.6 -3.24 13 10.43 2.61 -3.25 12.99 10.42 2.61 -3.24 3.25 2.6 3.25 2.61 2.6 -3.25 3.25 2.61 2.61 -3.25 6.5 5.22 2.61 -3.25 6.49 5.21 3.25 2.61 2.61 -3.25 25.99 20.86 -2.61 3.25 3.25 2.6 -7.82 9.75 6.5 5.21 7.82 -9.74 3.25 2.61 2.61 -3.25 3.24 2.6 2.61 -3.24 6.5 5.21 2.61 -3.25 3.25 2.61 2.6 -3.25 3.25 2.61 2.61 -3.25 3.25 2.6 2.61 -3.24 3.24 2.6 2.61 -3.24 3.25 2.6 2.61 -3.25 3.25 2.61 2.6 -3.25 3.25 2.61 7.82 -9.75 3.25 2.61 5.22 -6.5 3.25 2.61 2.6 -3.25 3.25 2.61 2.61 -3.25 3.25 2.61 -2.61 3.25 6.5 5.21 -2.61 3.25 3.25 2.61 5.21 -6.5 6.5 5.21 2.61 -3.25 9.75 7.82 2.6 -3.24 6.5 5.21 2.61 -3.25 3.25 2.61 2.6 -3.25 9.75 7.82 2.61 -3.25 6.49 5.22 3.25 2.61 22.75 18.25 2.6 -3.25 22.74 18.25 3.25 2.61 3.25 2.6 2.61 -3.25 3.25 2.61 3.25 2.61 -2.61 3.25 16.24 13.03 2.61 -3.25 13 10.43 6.5 5.22 -7.83 9.75 3.25 2.6 5.22 -6.5 3.25 2.61 2.6 -3.25 3.25 2.61 6.5 5.21 2.61 -3.24 35.73 28.68 2.61 -3.25 6.5 5.21 2.61 -3.25 3.24 2.61 2.61 -3.25 13 10.43 -2.61 3.25 13 10.43 -2.61 3.25 9.74 7.82 -2.6 3.25 3.25 2.61 -2.61 3.24 3.25 2.61 -2.61 3.25 3.25 2.61 -10.43 12.99 3.25 2.61 -7.82 9.75 3.25 2.6 -5.22 6.5 -6.5 -5.21 -2.6 3.24 -3.25 -2.6 -2.61 3.25 -3.25 -2.61 -2.6 3.25 -3.25 -2.61 -2.61 3.25 -3.25 -2.61 -5.22 6.5 -3.25 -2.61 -7.82 9.75 -3.24 -2.61 -7.83 9.75 -3.24 -2.61 -2.61 3.25 -16.25 -13.04 -2.6 3.25 6.49 5.22 -2.6 3.25 3.24 2.6 -5.21 6.5 3.25 2.61 -10.43 12.99 -3.25 -2.6 -13.04 16.24 -3.24 -2.61 -7.83 9.75 -3.24 -2.61 -10.43 13 -3.25 -2.61 -5.22 6.5 -3.25 -2.61 -7.82 9.75 3.25 2.61 -10.43 12.99 -3.25 -2.61 -2.84 3.55zm-108.37 68.47c-2.34,9.95 -4.42,20.43 -6.27,31.32l-4.97 -3.99 2.6 -3.25 -3.25 -2.6 5.22 -6.5 -3.25 -2.61 9.92 -12.37zm-6.95 35.29l-0.12 0.74 -0.29 -0.24 0.41 -0.5zm-7.86 429.1l0.14 3.51 -1.81 -1.44 1.67 -2.07zm0.25 6.33c0.34,8.27 0.7,16.55 1.08,24.84l-9.53 -7.65 5.21 -6.49 -3.25 -2.61 6.49 -8.09zm1.33 30.38c2.58,56.14 5.93,112.34 10.23,164.74 7.09,86.08 29.41,179.94 -2.26,245.05 -57.17,6.92 -102.05,-81.44 -136.12,-197.5l4.17 3.35 2.6 -3.25 3.25 2.61 18.25 -22.74 3.25 2.6 5.22 -6.49 3.24 2.6 5.22 -6.5 3.25 2.61 5.21 -6.5 -6.49 -5.21 -5.22 6.5 -3.25 -2.61 -2.61 3.25 -6.49 -5.22 2.6 -3.24 -3.25 -2.61 2.61 -3.25 -3.25 -2.61 2.61 -3.25 -3.25 -2.6 5.22 -6.5 -3.25 -2.61 5.21 -6.5 -3.25 -2.6 10.43 -13 -3.25 -2.61 2.61 -3.25 2.61 -3.24 -6.5 -5.22 2.61 -3.25 -9.75 -7.82 7.82 -9.75 -3.25 -2.6 10.43 -13 -3.25 -2.61 2.61 -3.24 6.5 5.21 2.61 -3.25 3.24 2.61 5.22 -6.5 6.5 5.21 2.6 -3.24 3.25 2.6 10.43 -12.99 -3.25 -2.61 5.22 -6.5 2.6 -3.24 -3.24 -2.61 2.6 -3.25 -3.24 -2.61 5.21 -6.5 -3.25 -2.6 7.82 -9.75 -3.25 -2.61 5.22 -6.49 -3.25 -2.61 7.82 -9.75 3.25 2.61 2.61 -3.25 3.25 2.61 5.21 -6.5 3.25 2.61 2.61 -3.25 5.89 4.72zm-63.15 -1199.03c18.36,-6.98 37.08,-9.88 54.09,-2.72 37.72,15.88 60,57.99 101.8,49.88 24.09,-4.67 72.28,-25.02 113.52,-65.24 29.5,8.61 108.3,7.25 157.89,-33.12 -17.54,109.1 -43.54,194.48 -43.9,316.87 -0.05,18.93 -0.08,37.74 -0.07,56.45l-0.75 0.93 -3.25 -2.61 -2.61 3.25 -3.25 -2.61 -5.21 6.5 -3.25 -2.61 -5.21 6.5 -3.25 -2.61 2.6 -3.25 -6.49 -5.21 2.6 -3.25 -6.49 -5.21 -5.22 6.49 3.25 2.61 -2.61 3.25 3.25 2.61 -2.6 3.25 -6.5 -5.22 -6.5 -5.21 10.43 -13 -3.25 -2.61 2.61 -3.24 3.25 2.6 2.6 -3.25 -3.24 -2.6 2.6 -3.25 -6.5 -5.22 -7.82 9.75 3.25 2.61 -7.82 9.74 -3.25 -2.6 -6.5 -5.22 -10.43 13 -9.74 -7.82 -2.61 3.24 -3.25 -2.6 -2.61 3.25 -3.24 -2.61 -5.22 6.5 -9.75 -7.83 -7.82 9.75 6.5 5.22 -2.61 3.25 -12.99 -10.43 -5.22 6.49 9.75 7.82 -10.43 13 -13 -10.43 15.65 -19.49 3.25 2.61 2.6 -3.25 -9.74 -7.83 -2.61 3.25 -6.5 -5.21 -2.6 3.25 -3.25 -2.61 -2.61 3.25 3.25 2.61 -2.61 3.25 -6.5 -5.22 -2.6 3.25 -3.25 -2.61 -2.61 3.25 -3.25 -2.61 -2.6 3.25 -9.75 -7.82 -2.61 3.25 -12.99 -10.43 -2.61 3.25 -3.25 -2.61 2.61 -3.25 -3.25 -2.6 -2.61 3.25 -3.25 -2.61 -2.61 3.25 -3.24 -2.61 -2.61 3.25 -9.75 -7.82 -2.61 3.25 3.25 2.6 -2.6 3.25 -19.5 -15.64 -2.6 3.25 -3.25 -2.61 -2.61 3.25 -3.25 -2.61 -2.61 3.25 -3.24 -2.61 -2.61 3.25 -3.25 -2.61 -2.61 3.25 -3.25 -2.6 -9.74 -7.83 2.6 -3.24 -6.49 -5.22 2.6 -3.25 -6.49 -5.21 -2.61 3.25 3.25 2.6 -2.61 3.25 3.25 2.61 -2.61 3.25 3.25 2.61 -7.82 9.74 -3.25 -2.61 -2.61 3.25 -6.5 -5.21 -2.6 3.25 3.25 2.6 -10.43 13 -3.25 -2.61 -7.82 9.75 -13 -10.43 -5.21 6.5 -3.25 -2.61 -2.61 3.25 -3.25 -2.61 -2.61 3.25 -3.24 -2.61 -2.61 3.25 -3.25 -2.6 -2.61 3.24 -3.25 -2.6 2.61 -3.25 -25.99 -20.86 2.61 -3.25 -3.25 -2.61 10.43 -12.99 -3.25 -2.61 20.86 -25.99 -3.25 -2.61 15.64 -19.49 -3.25 -2.61 5.22 -6.49 -3.25 -2.61 5.21 -6.5 -3.25 -2.61 2.61 -3.24 -3.25 -2.61 5.22 -6.5 -3.25 -2.61 5.21 -6.5 -3.25 -2.6 10.43 -13 -3.25 -2.6 2.61 -3.25 9.75 7.82 2.6 -3.25 3.25 2.61 2.61 -3.25 3.25 2.6 2.61 -3.24 3.25 2.6 2.6 -3.25 3.25 2.61 2.61 -3.25 3.25 2.61 10.43 -12.99 3.25 2.6 2.6 -3.25 3.25 2.61 2.61 -3.25 16.24 13.04 2.61 -3.25 6.5 5.22 -2.61 3.24 9.75 7.83 2.6 -3.25 3.25 2.6 2.61 -3.25 6.5 5.22 2.61 -3.25 -16.25 -13.04 2.61 -3.24 -25.99 -20.86 2.61 -3.25 -3.25 -2.61 2.6 -3.25 -3.24 -2.61 5.21 -6.49 -3.25 -2.61 2.61 -3.25 -3.25 -2.61 2.61 -3.25 -6.5 -5.21 -5.22 6.5 6.5 5.21 -2.6 3.25 3.24 2.61 -5.21 6.5 3.25 2.6 -10.43 13 -3.25 -2.61 -5.21 6.5 -3.25 -2.61 -5.22 6.5 -3.25 -2.61 -5.21 6.5 -6.5 -5.21 -2.61 3.25 -3.24 -2.61 -5.22 6.49 -29.24 -23.46 5.22 -6.5 3.24 2.61 2.61 -3.25 -3.25 -2.61 2.61 -3.25 -3.25 -2.6 2.61 -3.25 -6.5 -5.22 2.61 -3.25 -9.75 -7.82 2.61 -3.25 -3.25 -2.6 2.61 -3.25 -3.25 -2.61 2.61 -3.25 -3.25 -2.61 2.6 -3.24 -3.24 -2.61 2.6 -3.25 -3.25 -2.61 2.61 -3.25 -6.5 -5.21 2.61 -3.25 -3.25 -2.61 5.22 -6.5 -3.25 -2.6 5.21 -6.5 -6.49 -5.22 2.6 -3.24 -3.25 -2.61 2.61 -3.25 -3.25 -2.61 -3.25 -2.6 2.61 -3.25 -3.79 -3.04zm383.42 361.93l0.05 9.91 -1.61 -1.3 -5.22 6.5 6.5 5.21 0.4 -0.5 0.04 6.2 -12.8 -10.27 12.64 -15.75zm0.92 85.38l0 0 0 0 0 0zm0.12 6.5l0.09 4.35 -2.18 -1.75 2.09 -2.6zm0.13 6.49l0.07 3.29 -1.64 -1.32 1.57 -1.97zm0.14 6.49c0.46,20.83 1.07,41.63 1.85,62.43l-2.36 -1.89 -2.61 3.25 -6.5 -5.22 2.61 -3.25 -6.5 -5.21 2.61 -3.25 -3.25 -2.61 5.21 -6.49 -3.24 -2.61 5.21 -6.5 -3.25 -2.61 2.61 -3.24 -3.25 -2.61 2.61 -3.25 3.24 2.61 5.22 -6.5 -3.25 -2.61 2.61 -3.25 -3.25 -2.6 3.68 -4.59zm1.91 64.17l0.15 3.77 -1.93 -1.55 1.78 -2.22zm-308.13 -467.96l3.25 2.61 -2.61 3.25 -3.24 -2.61 2.6 -3.25 -3.25 -2.6 2.61 -3.25 3.25 2.61 -2.61 3.24zm151.01 377.57l3.24 2.6 -2.6 3.25 -3.25 -2.6 2.61 -3.25zm-45.53 -9.83l3.25 2.61 -2.61 3.24 -3.25 -2.6 2.61 -3.25 -3.25 -2.61 -7.82 9.75 -3.25 -2.61 2.61 -3.25 -3.25 -2.61 2.61 -3.25 -3.25 -2.6 2.61 -3.25 3.24 2.6 2.61 -3.24 6.5 5.21 2.61 -3.25 3.24 2.61 -5.21 6.5zm-203.19 985.29l3.25 2.61 -2.61 3.25 -3.25 -2.61 2.61 -3.25zm75.19 -666.06l3.25 2.61 -2.61 3.25 -3.25 -2.61 2.61 -3.25zm-35.94 104.68l3.25 2.61 -2.61 3.25 -3.25 -2.61 2.61 -3.25zm242.51 -328.81l3.25 2.61 -2.61 3.25 -3.24 -2.61 2.6 -3.25zm-234.67 725.02l3.25 2.61 -2.6 3.25 -3.25 -2.61 2.6 -3.25zm175.84 -964.52l3.25 2.61 -2.61 3.25 -3.25 -2.61 2.61 -3.25zm126.46 261.72l3.25 2.61 -5.22 6.5 -3.25 -2.61 5.22 -6.5zm-169.66 -88.08l3.24 2.6 -5.21 6.5 -3.25 -2.61 5.22 -6.49zm62.49 -24.63l3.25 2.61 -5.22 6.5 -3.25 -2.61 5.22 -6.5zm-293.65 159.59l6.49 5.21 -2.6 3.25 -6.5 -5.21 2.61 -3.25zm366.92 -4.64l3.25 2.61 -5.21 6.49 -3.25 -2.6 5.21 -6.5zm-53.06 -186.8l3.25 2.61 -5.21 6.5 -3.25 -2.61 5.21 -6.5zm129.64 -114.95l6.5 5.22 -2.61 3.25 -6.49 -5.22 2.6 -3.25zm-321.54 527.12l3.25 2.61 -5.21 6.49 -3.25 -2.6 5.21 -6.5zm296.39 -242.86l6.49 5.22 -2.61 3.25 -6.49 -5.22 2.61 -3.25zm20.58 -271.9l6.5 5.21 -2.61 3.25 -6.5 -5.21 2.61 -3.25zm-344.46 -223.03l3.25 2.61 -5.21 6.5 -3.25 -2.61 5.21 -6.5zm-70.99 55.19l6.49 5.22 -2.6 3.25 -6.5 -5.22 2.61 -3.25zm31.24 -12.31l3.25 2.61 -5.21 6.49 -3.25 -2.6 5.21 -6.5zm-80.1 53.22l6.5 5.22 -2.61 3.25 -6.5 -5.22 2.61 -3.25 -9.75 -7.82 5.22 -6.5 -3.25 -2.6 2.61 -3.25 3.25 2.61 2.6 -3.25 3.25 2.6 -2.61 3.25 3.25 2.61 -5.21 6.5 3.25 2.6 -2.61 3.25zm343.78 243.84l3.24 2.61 -7.82 9.75 -3.25 -2.61 7.83 -9.75zm27.01 625.24l-3.25 -2.61 2.61 -3.25 6.49 5.22 -5.21 6.5 -3.25 -2.61 2.61 -3.25zm-14.59 -241.38l3.25 2.6 -2.61 3.25 3.25 2.61 -2.61 3.25 -6.5 -5.21 5.22 -6.5zm-218.18 -693.19l3.25 2.6 -2.61 3.25 3.25 2.61 -2.61 3.25 -6.49 -5.21 5.21 -6.5zm-162.13 88.88l-3.24 -2.61 2.6 -3.25 6.5 5.21 -5.21 6.5 -3.25 -2.61 2.6 -3.24zm45.55 415.78l6.5 5.21 -2.61 3.25 -3.24 -2.61 -2.61 3.25 -3.25 -2.6 5.21 -6.5zm86.11 272.07l3.25 2.6 -2.61 3.25 3.25 2.61 -5.21 6.5 -3.25 -2.61 2.61 -3.25 -3.25 -2.6 5.21 -6.5 -3.25 -2.61 2.61 -3.25 -3.25 -2.61 2.61 -3.24 6.5 5.21 2.6 -3.25 3.25 2.61 5.22 -6.5 -3.25 -2.61 5.21 -6.49 3.25 2.6 13.04 -16.24 6.5 5.21 -13.04 16.25 -3.25 -2.61 -5.21 6.5 3.25 2.61 -5.22 6.49 -3.25 -2.61 -2.61 3.26 -3.24 -2.61 -2.61 3.25 -3.25 -2.61 -2.61 3.25zm-133.58 -705.42l3.25 2.61 2.61 -3.25 3.24 2.6 -5.21 6.5 -3.25 -2.61 -2.61 3.25 -3.25 -2.6 5.22 -6.5zm452.83 400.79l6.5 5.22 -5.22 6.5 -6.5 -5.22 5.22 -6.5zm-115.35 -295.53l3.25 2.61 2.61 -3.25 3.25 2.6 -5.22 6.5 -3.25 -2.61 -2.6 3.25 -3.25 -2.6 5.21 -6.5zm-28.16 121.61l3.25 2.61 2.61 -3.25 3.25 2.61 -5.22 6.49 -3.25 -2.6 -2.6 3.24 -3.25 -2.6 5.21 -6.5zm97.45 510.85l-2.61 3.24 3.25 2.61 -5.21 6.5 -6.5 -5.21 2.61 -3.25 -3.25 -2.61 10.43 -13 3.25 2.61 2.6 -3.25 3.25 2.61 -7.82 9.75zm-234.22 431.61l3.25 2.61 2.61 -3.25 9.75 7.82 -2.61 3.25 -6.5 -5.21 -2.61 3.25 -6.49 -5.22 2.6 -3.25zm-120.45 -1207.64l6.5 5.22 -5.21 6.5 -3.25 -2.61 -2.61 3.25 -3.25 -2.61 7.82 -9.75zm337.66 837.15l3.25 2.61 -2.61 3.25 3.25 2.61 -2.6 3.25 3.24 2.6 -2.6 3.25 3.25 2.61 -5.22 6.5 3.25 2.6 -2.61 3.25 3.25 2.61 -2.61 3.25 3.25 2.61 -2.6 3.24 3.24 2.61 -2.6 3.25 -9.75 -7.82 2.61 -3.25 -6.5 -5.21 -7.82 9.74 -6.5 -5.21 2.61 -3.25 -3.25 -2.61 2.61 -3.25 3.25 2.61 5.21 -6.5 -3.25 -2.6 2.61 -3.25 -3.25 -2.61 5.21 -6.5 -3.25 -2.61 2.61 -3.25 -3.25 -2.6 7.83 -9.75 -3.25 -2.61 5.21 -6.49 -3.25 -2.61 10.43 -13 -3.25 -2.6 10.43 -13 3.25 2.61 -2.61 3.25 3.25 2.6 -7.82 9.75 3.25 2.61 -5.22 6.49 3.25 2.61 -2.6 3.25 3.25 2.61 -2.61 3.25 3.25 2.61 -5.22 6.49zm78.27 -556.76l2.61 -3.25 3.25 2.61 5.22 -6.5 -3.25 -2.61 2.6 -3.25 -3.24 -2.61 2.6 -3.24 -16.24 -13.04 2.61 -3.25 -6.5 -5.21 -2.61 3.25 -6.5 -5.22 -2.6 3.25 -3.25 -2.61 -2.61 3.25 -3.25 -2.61 -2.61 3.25 3.25 2.61 -2.6 3.25 3.24 2.61 -2.6 3.25 3.24 2.6 -2.6 3.25 -9.75 -7.82 -2.61 3.25 -3.24 -2.61 -2.61 3.25 -3.25 -2.61 2.61 -3.25 -3.25 -2.6 2.61 -3.25 -3.25 -2.61 -2.61 3.25 -3.25 -2.61 -2.61 3.25 -3.25 -2.61 -2.6 3.25 3.25 2.61 -2.61 3.25 19.49 15.64 -2.6 3.25 3.24 2.61 2.61 -3.25 6.5 5.21 2.6 -3.24 6.5 5.21 5.22 -6.5 3.25 2.61 -2.61 3.25 6.5 5.21 2.6 -3.25 3.25 2.61 2.61 -3.25 3.25 2.61 2.61 -3.25 3.24 2.61zm-195.85 24.42l-3.25 -2.61 2.61 -3.25 -6.5 -5.21 2.6 -3.25 13 10.43 -5.22 6.49 3.25 2.61 -2.6 3.25 -3.25 -2.61 -2.61 3.25 -3.25 -2.6 5.22 -6.5zm-297.53 -281.5l-3.25 -2.61 2.61 -3.25 3.25 2.61 2.6 -3.25 -3.24 -2.61 5.21 -6.5 3.25 2.61 2.61 -3.25 3.25 2.61 -2.61 3.25 3.25 2.61 -2.61 3.24 -3.25 -2.6 -10.43 12.99 -3.25 -2.61 2.61 -3.24zm147.2 1154.33l3.25 2.61 2.61 -3.25 3.25 2.6 2.61 -3.24 3.25 2.6 2.6 -3.25 3.25 2.61 -5.21 6.5 -3.25 -2.61 -7.82 9.75 -9.75 -7.82 5.21 -6.5zm-61.19 -396.29l6.5 5.21 5.21 -6.49 -6.5 -5.22 -5.21 6.5zm-63.87 -772.32l-3.25 -2.61 7.82 -9.75 9.75 7.83 -2.61 3.24 3.25 2.61 -2.61 3.25 -3.24 -2.61 -5.22 6.5 -6.5 -5.21 2.61 -3.25zm170.93 532.42l-6.49 -5.21 -2.61 3.25 3.25 2.61 -2.61 3.24 3.25 2.61 5.21 -6.5zm195.71 -350.35l6.5 5.21 5.21 -6.49 -6.49 -5.22 -5.22 6.5zm-208.44 -252.74l-6.5 -5.22 2.61 -3.24 3.25 2.6 2.6 -3.25 3.25 2.61 2.61 -3.25 -3.25 -2.6 5.21 -6.5 6.5 5.21 7.83 -9.74 3.24 2.6 2.61 -3.25 3.25 2.61 2.61 -3.25 3.25 2.61 -7.83 9.75 -3.25 -2.61 -2.6 3.25 3.25 2.6 -2.61 3.25 3.25 2.61 -5.22 6.5 -3.25 -2.61 -2.6 3.25 3.25 2.61 -2.61 3.25 3.25 2.6 -5.22 6.5 -3.25 -2.61 2.61 -3.25 -3.25 -2.6 -2.6 3.25 -13 -10.43 2.61 -3.25zm-80.19 106.57l-6.49 -5.22 5.21 -6.49 -3.25 -2.61 5.22 -6.5 6.49 5.22 13.04 -16.25 16.25 13.04 -5.22 6.5 3.25 2.6 -7.82 9.75 -3.25 -2.61 -2.61 3.25 -3.25 -2.61 -2.61 3.25 -3.24 -2.6 -5.22 6.49 -3.25 -2.6 -2.6 3.24 -3.25 -2.6 2.6 -3.25zm3.31 814.51l3.25 2.61 -2.61 3.25 3.25 2.61 15.64 -19.5 -3.25 -2.6 -7.82 9.74 -3.25 -2.6 -5.21 6.49zm92.18 -294.56l3.25 2.61 2.6 -3.25 -3.24 -2.61 -2.61 3.25zm-24.11 23.38l-3.25 -2.6 -5.21 6.49 3.25 2.61 5.21 -6.5zm309.62 -392.46l3.25 2.6 2.61 -3.25 -3.25 -2.6 -2.61 3.25zm-52.02 -15.05l9.75 7.83 2.61 -3.25 6.49 5.21 2.61 -3.25 -9.74 -7.82 -2.61 3.25 -6.5 -5.22 -2.61 3.25zm-11.71 1.29l3.25 2.6 2.61 -3.25 -3.25 -2.6 -2.61 3.25zm20.09 48.17l3.25 2.61 -2.6 3.25 3.24 2.6 15.65 -19.49 -3.25 -2.61 -7.82 9.75 -3.25 -2.61 -5.22 6.5zm6.54 -21.46l-3.25 -2.61 -15.64 19.49 3.25 2.61 2.61 -3.25 3.24 2.61 5.22 -6.5 -3.25 -2.6 7.82 -9.75zm-135.25 -44.45l-3.25 -2.6 -15.64 19.49 3.25 2.61 2.61 -3.25 3.25 2.61 5.21 -6.5 -3.25 -2.61 7.82 -9.75zm117.78 831.61l-15.45 19.25 0 -0.01 15.45 -19.24zm-445.36 -389.46l2.92 2.34 -2.92 -2.34 0 0zm548.75 -424.89l0.75 -0.93 0 0 -0.75 0.93zm-306.2 374.89l-9.92 12.36 9.92 -12.37 0 0.01zm-11.85 -5.21l20.63 -25.7 0 0 -20.63 25.7zm-2.96 469.59l-1.67 2.07 1.67 -2.07 0 0zm-8.2 23.52l9.53 7.65 0 0 -9.53 -7.65zm9.78 13.2l-5.89 -4.73 5.89 4.72 0 0.01zm-123.98 215.63l-4.17 -3.35 0 0 4.17 3.35zm118.17 -273.71l3.25 -4.05 0 0 -3.25 4.05zm-132.41 224.89l-3.03 -2.42 0 0 3.03 2.42zm140 -600.4l-14.2 17.69 14.2 -17.69 0 0zm13.58 -702.45l3.25 2.61 -2.61 3.25 -3.24 -2.61 2.6 -3.25 -3.25 -2.6 2.61 -3.25 3.25 2.61 -2.61 3.24zm151.01 377.57l3.24 2.6 -2.6 3.25 -3.25 -2.6 2.61 -3.25zm-45.53 -9.83l3.25 2.61 -2.61 3.24 -3.25 -2.6 2.61 -3.25 -3.25 -2.61 -7.82 9.75 -3.25 -2.61 2.61 -3.25 -3.25 -2.61 2.61 -3.25 -3.25 -2.6 2.61 -3.25 3.24 2.6 2.61 -3.24 6.5 5.21 2.61 -3.25 3.24 2.61 -5.21 6.5zm-203.19 985.29l3.25 2.61 -2.61 3.25 -3.25 -2.61 2.61 -3.25zm75.19 -666.06l3.25 2.61 -2.61 3.25 -3.25 -2.61 2.61 -3.25zm-35.94 104.68l3.25 2.61 -2.61 3.25 -3.25 -2.61 2.61 -3.25zm242.51 -328.81l3.25 2.61 -2.61 3.25 -3.24 -2.61 2.6 -3.25zm-234.67 725.02l3.25 2.61 -2.6 3.25 -3.25 -2.61 2.6 -3.25zm175.84 -964.52l3.25 2.61 -2.61 3.25 -3.25 -2.61 2.61 -3.25zm126.46 261.72l3.25 2.61 -5.22 6.5 -3.25 -2.61 5.22 -6.5zm-169.66 -88.08l3.24 2.6 -5.21 6.5 -3.25 -2.61 5.22 -6.49zm62.49 -24.63l3.25 2.61 -5.22 6.5 -3.25 -2.61 5.22 -6.5zm-293.65 159.59l6.49 5.21 -2.6 3.25 -6.5 -5.21 2.61 -3.25zm366.92 -4.64l3.25 2.61 -5.21 6.49 -3.25 -2.6 5.21 -6.5zm-53.06 -186.8l3.25 2.61 -5.21 6.5 -3.25 -2.61 5.21 -6.5zm129.64 -114.95l6.5 5.22 -2.61 3.25 -6.49 -5.22 2.6 -3.25zm-321.54 527.12l3.25 2.61 -5.21 6.49 -3.25 -2.6 5.21 -6.5zm296.39 -242.86l6.49 5.22 -2.61 3.25 -6.49 -5.22 2.61 -3.25zm20.58 -271.9l6.5 5.21 -2.61 3.25 -6.5 -5.21 2.61 -3.25zm-344.46 -223.03l3.25 2.61 -5.21 6.5 -3.25 -2.61 5.21 -6.5zm-70.99 55.19l6.49 5.22 -2.6 3.25 -6.5 -5.22 2.61 -3.25zm31.24 -12.31l3.25 2.61 -5.21 6.49 -3.25 -2.6 5.21 -6.5zm-80.1 53.22l6.5 5.22 -2.61 3.25 -6.5 -5.22 2.61 -3.25 -9.75 -7.82 5.22 -6.5 -3.25 -2.6 2.61 -3.25 3.25 2.61 2.6 -3.25 3.25 2.6 -2.61 3.25 3.25 2.61 -5.21 6.5 3.25 2.6 -2.61 3.25zm343.78 243.84l3.24 2.61 -7.82 9.75 -3.25 -2.61 7.83 -9.75zm27.01 625.24l-3.25 -2.61 2.61 -3.25 6.49 5.22 -5.21 6.5 -3.25 -2.61 2.61 -3.25zm-14.59 -241.38l3.25 2.6 -2.61 3.25 3.25 2.61 -2.61 3.25 -6.5 -5.21 5.22 -6.5zm-218.18 -693.19l3.25 2.6 -2.61 3.25 3.25 2.61 -2.61 3.25 -6.49 -5.21 5.21 -6.5zm-162.13 88.88l-3.24 -2.61 2.6 -3.25 6.5 5.21 -5.21 6.5 -3.25 -2.61 2.6 -3.24zm45.55 415.78l6.5 5.21 -2.61 3.25 -3.24 -2.61 -2.61 3.25 -3.25 -2.6 5.21 -6.5zm86.11 272.07l3.25 2.6 -2.61 3.25 3.25 2.61 -5.21 6.5 -3.25 -2.61 2.61 -3.25 -3.25 -2.6 5.21 -6.5 -3.25 -2.61 2.61 -3.25 -3.25 -2.61 2.61 -3.24 6.5 5.21 2.6 -3.25 3.25 2.61 5.22 -6.5 -3.25 -2.61 5.21 -6.49 3.25 2.6 13.04 -16.24 6.5 5.21 -13.04 16.25 -3.25 -2.61 -5.21 6.5 3.25 2.61 -5.22 6.49 -3.25 -2.61 -2.61 3.26 -3.24 -2.61 -2.61 3.25 -3.25 -2.61 -2.61 3.25zm-133.58 -705.42l3.25 2.61 2.61 -3.25 3.24 2.6 -5.21 6.5 -3.25 -2.61 -2.61 3.25 -3.25 -2.6 5.22 -6.5zm452.83 400.79l6.5 5.22 -5.22 6.5 -6.5 -5.22 5.22 -6.5zm-115.35 -295.53l3.25 2.61 2.61 -3.25 3.25 2.6 -5.22 6.5 -3.25 -2.61 -2.6 3.25 -3.25 -2.6 5.21 -6.5zm-28.16 121.61l3.25 2.61 2.61 -3.25 3.25 2.61 -5.22 6.49 -3.25 -2.6 -2.6 3.24 -3.25 -2.6 5.21 -6.5zm97.45 510.85l-2.61 3.24 3.25 2.61 -5.21 6.5 -6.5 -5.21 2.61 -3.25 -3.25 -2.61 10.43 -13 3.25 2.61 2.6 -3.25 3.25 2.61 -7.82 9.75zm-234.22 431.61l3.25 2.61 2.61 -3.25 9.75 7.82 -2.61 3.25 -6.5 -5.21 -2.61 3.25 -6.49 -5.22 2.6 -3.25zm-120.45 -1207.64l6.5 5.22 -5.21 6.5 -3.25 -2.61 -2.61 3.25 -3.25 -2.61 7.82 -9.75zm337.66 837.15l3.25 2.61 -2.61 3.25 3.25 2.61 -2.6 3.25 3.24 2.6 -2.6 3.25 3.25 2.61 -5.22 6.5 3.25 2.6 -2.61 3.25 3.25 2.61 -2.61 3.25 3.25 2.61 -2.6 3.24 3.24 2.61 -2.6 3.25 -9.75 -7.82 2.61 -3.25 -6.5 -5.21 -7.82 9.74 -6.5 -5.21 2.61 -3.25 -3.25 -2.61 2.61 -3.25 3.25 2.61 5.21 -6.5 -3.25 -2.6 2.61 -3.25 -3.25 -2.61 5.21 -6.5 -3.25 -2.61 2.61 -3.25 -3.25 -2.6 7.83 -9.75 -3.25 -2.61 5.21 -6.49 -3.25 -2.61 10.43 -13 -3.25 -2.6 10.43 -13 3.25 2.61 -2.61 3.25 3.25 2.6 -7.82 9.75 3.25 2.61 -5.22 6.49 3.25 2.61 -2.6 3.25 3.25 2.61 -2.61 3.25 3.25 2.61 -5.22 6.49zm78.27 -556.76l2.61 -3.25 3.25 2.61 5.22 -6.5 -3.25 -2.61 2.6 -3.25 -3.24 -2.61 2.6 -3.24 -16.24 -13.04 2.61 -3.25 -6.5 -5.21 -2.61 3.25 -6.5 -5.22 -2.6 3.25 -3.25 -2.61 -2.61 3.25 -3.25 -2.61 -2.61 3.25 3.25 2.61 -2.6 3.25 3.24 2.61 -2.6 3.25 3.24 2.6 -2.6 3.25 -9.75 -7.82 -2.61 3.25 -3.24 -2.61 -2.61 3.25 -3.25 -2.61 2.61 -3.25 -3.25 -2.6 2.61 -3.25 -3.25 -2.61 -2.61 3.25 -3.25 -2.61 -2.61 3.25 -3.25 -2.61 -2.6 3.25 3.25 2.61 -2.61 3.25 19.49 15.64 -2.6 3.25 3.24 2.61 2.61 -3.25 6.5 5.21 2.6 -3.24 6.5 5.21 5.22 -6.5 3.25 2.61 -2.61 3.25 6.5 5.21 2.6 -3.25 3.25 2.61 2.61 -3.25 3.25 2.61 2.61 -3.25 3.24 2.61zm-195.85 24.42l-3.25 -2.61 2.61 -3.25 -6.5 -5.21 2.6 -3.25 13 10.43 -5.22 6.49 3.25 2.61 -2.6 3.25 -3.25 -2.61 -2.61 3.25 -3.25 -2.6 5.22 -6.5zm-297.53 -281.5l-3.25 -2.61 2.61 -3.25 3.25 2.61 2.6 -3.25 -3.24 -2.61 5.21 -6.5 3.25 2.61 2.61 -3.25 3.25 2.61 -2.61 3.25 3.25 2.61 -2.61 3.24 -3.25 -2.6 -10.43 12.99 -3.25 -2.61 2.61 -3.24zm147.2 1154.33l3.25 2.61 2.61 -3.25 3.25 2.6 2.61 -3.24 3.25 2.6 2.6 -3.25 3.25 2.61 -5.21 6.5 -3.25 -2.61 -7.82 9.75 -9.75 -7.82 5.21 -6.5zm-61.19 -396.29l6.5 5.21 5.21 -6.49 -6.5 -5.22 -5.21 6.5zm-63.87 -772.32l-3.25 -2.61 7.82 -9.75 9.75 7.83 -2.61 3.24 3.25 2.61 -2.61 3.25 -3.24 -2.61 -5.22 6.5 -6.5 -5.21 2.61 -3.25zm170.93 532.42l-6.49 -5.21 -2.61 3.25 3.25 2.61 -2.61 3.24 3.25 2.61 5.21 -6.5zm195.71 -350.35l6.5 5.21 5.21 -6.49 -6.49 -5.22 -5.22 6.5zm-208.44 -252.74l-6.5 -5.22 2.61 -3.24 3.25 2.6 2.6 -3.25 3.25 2.61 2.61 -3.25 -3.25 -2.6 5.21 -6.5 6.5 5.21 7.83 -9.74 3.24 2.6 2.61 -3.25 3.25 2.61 2.61 -3.25 3.25 2.61 -7.83 9.75 -3.25 -2.61 -2.6 3.25 3.25 2.6 -2.61 3.25 3.25 2.61 -5.22 6.5 -3.25 -2.61 -2.6 3.25 3.25 2.61 -2.61 3.25 3.25 2.6 -5.22 6.5 -3.25 -2.61 2.61 -3.25 -3.25 -2.6 -2.6 3.25 -13 -10.43 2.61 -3.25zm-80.19 106.57l-6.49 -5.22 5.21 -6.49 -3.25 -2.61 5.22 -6.5 6.49 5.22 13.04 -16.25 16.25 13.04 -5.22 6.5 3.25 2.6 -7.82 9.75 -3.25 -2.61 -2.61 3.25 -3.25 -2.61 -2.61 3.25 -3.24 -2.6 -5.22 6.49 -3.25 -2.6 -2.6 3.24 -3.25 -2.6 2.6 -3.25zm3.31 814.51l3.25 2.61 -2.61 3.25 3.25 2.61 15.64 -19.5 -3.25 -2.6 -7.82 9.74 -3.25 -2.6 -5.21 6.49zm92.18 -294.56l3.25 2.61 2.6 -3.25 -3.24 -2.61 -2.61 3.25zm-24.11 23.38l-3.25 -2.6 -5.21 6.49 3.25 2.61 5.21 -6.5zm309.62 -392.46l3.25 2.6 2.61 -3.25 -3.25 -2.6 -2.61 3.25zm-52.02 -15.05l9.75 7.83 2.61 -3.25 6.49 5.21 2.61 -3.25 -9.74 -7.82 -2.61 3.25 -6.5 -5.22 -2.61 3.25zm-11.71 1.29l3.25 2.6 2.61 -3.25 -3.25 -2.6 -2.61 3.25zm20.09 48.17l3.25 2.61 -2.6 3.25 3.24 2.6 15.65 -19.49 -3.25 -2.61 -7.82 9.75 -3.25 -2.61 -5.22 6.5zm6.54 -21.46l-3.25 -2.61 -15.64 19.49 3.25 2.61 2.61 -3.25 3.24 2.61 5.22 -6.5 -3.25 -2.6 7.82 -9.75zm-135.25 -44.45l-3.25 -2.6 -15.64 19.49 3.25 2.61 2.61 -3.25 3.25 2.61 5.21 -6.5 -3.25 -2.61 7.82 -9.75z"/>
  <path id="crown" class="fil0 str0" d="M477.09 814.03c-18.97,8.73 -34.09,39.97 -58.59,49.75 -31.18,12.41 -53.68,-16.35 -80.95,-36.05 -69.97,-50.54 -117.75,22.78 -183,39.87 -76.35,19.98 -89.05,-72.66 -115.41,-182.97 -43.55,-182.39 -59.05,-495.92 -5.25,-634.48 52.99,-136.49 140.77,47.94 239.51,57.03 46.85,4.3 119.64,-88.5 215.52,22.45 29.07,33.63 53.37,62.31 11.74,-19.3 150.73,-136.71 230.8,44.28 237.37,304.8 4.22,167.17 -13.78,389.84 -128.74,384.6 -17.98,-0.82 -37.26,-6.63 -56.21,-8.22 -38.72,-3.26 -48.21,9.74 -75.99,22.52z"/>
 </g>
</svg>
