<?xml version="1.0" encoding="UTF-8"?>
<!DOCTYPE svg PUBLIC "-//W3C//DTD SVG 1.1//EN" "http://www.w3.org/Graphics/SVG/1.1/DTD/svg11.dtd">
<!-- Creator: CorelDRAW (Versión de evaluación) -->
<svg xmlns="http://www.w3.org/2000/svg" xml:space="preserve" width="739px" height="2458px" version="1.1" style="shape-rendering:geometricPrecision; text-rendering:geometricPrecision; image-rendering:optimizeQuality; fill-rule:evenodd; clip-rule:evenodd"
viewBox="0 0 739 2457.4"
 xmlns:xlink="http://www.w3.org/1999/xlink"
 xmlns:xodm="http://www.corel.com/coreldraw/odm/2003">
 <defs>
  <style type="text/css">
   <![CDATA[
    .str0 {stroke:#373435;stroke-width:10;stroke-miterlimit:22.9256}
    .fil0 {fill:#FEFEFE}
   ]]>
  </style>
 </defs>
 <g id="tooth-fissure-root-45">
  <metadata id="CorelCorpID_0Corel-Layer"/>
  <path id="root" class="fil0 str0" d="M230.42 2455.72c111.82,21.73 172.82,-173.87 209.94,-271.91 120.47,-318.13 126.85,-541.65 107.37,-869.25 -14.08,-236.76 45.72,-370.18 44.57,-451.84 -136.29,-21.51 -188.93,81.7 -265.09,60.73 -109.36,-30.1 -59.21,-96.17 -247.29,-81.94 -13.05,653.68 119.72,934.16 140.02,1197.48 18.38,238.28 -41.96,338.28 10.48,416.73zm259.22 -417.69c4.96,-16.85 9.6,-33.51 13.92,-49.99l-16.64 8.92 -3.68 1.97 -7.34 3.93 -1.97 -3.67 -11.01 5.9 -1.97 -3.67 -3.67 1.97 -1.97 -3.68 -7.34 3.94 -1.97 -3.67 -11.02 5.9 -1.96 -3.67 -7.35 3.93 -3.93 -7.34 -3.67 1.96 1.96 3.68 -7.34 3.93 1.97 3.67 -3.68 1.97 -1.96 -3.67 -3.68 1.96 -1.96 -3.67 -3.67 1.97 -3.94 -7.35 -3.67 1.97 -5.9 -11.01 -3.67 1.96 -1.97 -3.67 -3.67 1.97 -1.97 -3.67 -3.67 1.96 -1.97 -3.67 -3.67 1.97 -1.97 -3.67 -3.67 1.96 -1.97 -3.67 -3.67 1.97 -1.96 -3.67 -3.68 1.96 -1.96 -3.67 -7.35 3.93 -1.96 -3.67 -3.68 1.97 -1.96 -3.67 -3.68 1.97 -5.9 -11.02 -7.34 3.93 5.9 11.02 -3.67 1.97 1.97 3.67 -29.38 15.74 -1.97 -3.68 -3.67 1.97 -7.34 3.93 -1.97 -3.67 -7.34 3.94 -1.97 -3.68 -3.67 1.97 -1.97 -3.67 -3.67 1.97 -3.67 1.96 -1.97 -3.67 -14.69 7.87 -1.97 -3.67 -14.68 7.87 -1.33 -2.48c0.56,5.52 1.06,11.04 1.53,16.54l9.37 -5.02 1.97 3.68 29.37 -15.74 1.97 3.67 7.34 -3.93 1.97 3.67 7.34 -3.93 1.97 3.67 7.34 -3.94 5.91 11.02 -3.68 1.97 5.91 11.01 -3.68 1.97 3.94 7.34 -3.68 1.97 3.94 7.35 3.67 -1.97 9.84 18.36 -3.68 1.96 3.94 7.35 -3.67 1.97 3.93 7.34 1.97 3.67 1.96 3.67 -3.67 1.97 1.97 3.67 1.97 3.67 -3.68 1.97 1.97 3.67 -3.67 1.97 1.97 3.67 -3.67 1.97 3.93 7.34 -3.67 1.97 3.93 7.34 -3.67 1.97 1.97 3.67 -3.68 1.97 3.94 7.35 -3.67 1.96 1.96 3.67 -7.34 3.94 1.97 3.67 -3.68 1.97 1.97 3.67 -3.67 1.97 1.97 3.67 -11.02 5.9 1.97 3.67 -3.67 1.97 1.96 3.67 -3.67 1.97 3.93 7.34 -3.67 1.97 1.97 3.67 -3.67 1.97 5.9 11.01 -7.35 3.94 3.94 7.34 -3.67 1.97 1.96 3.67 -3.67 1.97 1.97 3.67 -7.35 3.93 1.97 3.67 -3.67 1.97 3.93 7.35 -3.67 1.96 3.94 7.35 -7.35 3.93 1.97 3.67 -7.34 3.94 1.96 3.67 -3.67 1.97 1.97 3.67 -3.67 1.97 1.96 3.67 -22.03 11.8 1.97 3.67 -7.35 3.94 1.97 3.67 -3.67 1.97 -1.97 -3.68 -22.73 12.18c-1.13,13.86 -1.88,26.76 -1.96,38.86l3.71 -1.99 1.97 3.67 3.67 -1.97 13.77 25.71 3.67 -1.97 7.87 14.69 -3.68 1.97 5.91 11.01 -3.68 1.97 9.84 18.36 7.34 -3.94 -7.87 -14.68 3.68 -1.97 -7.87 -14.69 7.34 -3.93 3.94 7.34 -3.68 1.97 9.84 18.36 7.34 -3.94 1.97 3.68 3.67 -1.97 -1.96 -3.67 -3.68 1.96 -1.96 -3.67 -3.67 1.97 -3.94 -7.34 3.67 -1.97 -7.86 -14.69 3.67 -1.97 -1.97 -3.67 3.67 -1.97 -1.97 -3.67 3.68 -1.96 -1.97 -3.68 3.67 -1.96 -1.97 -3.68 3.68 -1.96 -1.97 -3.68 3.67 -1.96 -1.97 -3.67 3.68 -1.97 -3.94 -7.34 3.67 -1.97 -1.96 -3.67 7.34 -3.94 -15.73 -29.37 3.67 -1.97 -1.97 -3.67 3.67 -1.97 -1.97 -3.67 3.68 -1.97 -1.97 -3.67 7.34 -3.94 -1.96 -3.67 3.67 -1.96 3.67 -1.97 -1.97 -3.67 3.68 -1.97 -1.97 -3.67 7.34 -3.94 -3.93 -7.34 3.67 -1.97 -3.93 -7.34 3.67 -1.97 -1.97 -3.67 7.35 -3.93 -1.97 -3.68 3.67 -1.96 -1.97 -3.67 3.68 -1.97 -1.97 -3.67 3.67 -1.97 -1.97 -3.67 3.68 -1.97 -1.97 -3.67 3.67 -1.97 -1.97 -3.67 11.02 -5.9 -1.97 -3.67 7.35 -3.94 -1.97 -3.67 3.67 -1.97 -1.97 -3.67 3.68 -1.97 -1.97 -3.67 -3.67 1.97 -3.94 -7.35 33.05 -17.7 3.93 7.35 3.68 -1.97 1.96 3.67 7.35 -3.93 3.93 7.34 3.67 -1.97 3.94 7.35 3.67 -1.97 3.93 7.34 3.68 -1.96 7.86 14.69 -3.67 1.96 3.94 7.34 -3.68 1.97 1.97 3.67 -7.34 3.94 3.93 7.34 7.34 -3.93 -1.96 -3.67 3.67 -1.97 -1.97 -3.67 3.67 -1.97 -3.93 -7.34 3.67 -1.97 -1.96 -3.67 3.67 -1.97 -1.97 -3.67 29.38 -15.74 -1.97 -3.67 18.36 -9.83 -1.97 -3.68 -7.34 3.94 -1.97 -3.67 -3.67 1.96 -1.97 -3.67 -11.01 5.9 1.96 3.67 -7.34 3.94 -1.97 -3.67 -18.36 9.83 -1.96 -3.67 -3.68 1.97 -1.96 -3.68 -3.68 1.97 -7.86 -14.69 -3.68 1.97 -1.96 -3.67 -3.68 1.97 -1.96 -3.68 -3.67 1.97 -1.97 -3.67 -3.67 1.97 -1.97 -3.68 -3.67 1.97 -1.97 -3.67 -11.01 5.9 -1.97 -3.67 3.67 -1.97 -7.87 -14.69 3.67 -1.96 -3.93 -7.35 3.67 -1.97 -3.93 -7.34 3.67 -1.97 -1.97 -3.67 3.67 -1.96 -3.93 -7.35 3.67 -1.97 -3.93 -7.34 3.67 -1.97 -11.8 -22.03 3.67 -1.97 -15.74 -29.37 3.68 -1.97 -7.87 -14.69 3.67 -1.96 -1.97 -3.68 29.38 -15.73 -1.97 -3.68 3.67 -1.96 1.97 3.67 3.67 -1.97 1.97 3.68 3.67 -1.97 1.97 3.67 3.67 -1.97 1.97 3.68 3.67 -1.97 3.93 7.34 14.69 -7.87 5.9 11.02 3.67 -1.97 7.87 14.69 -3.67 1.97 1.97 3.67 7.34 -3.93 1.97 3.67 3.67 -1.97 5.9 11.02 -3.67 1.96 1.97 3.68 -3.67 1.96 1.96 3.68 -3.67 1.96 1.97 3.67 7.34 -3.93 -1.97 -3.67 7.35 -3.94 -1.97 -3.67 11.02 -5.9 3.67 -1.97 1.97 3.68 3.67 -1.97 1.96 3.67 3.68 -1.97 1.96 3.68 3.68 -1.97 1.96 3.67 3.68 -1.97 1.96 3.68 22.03 -11.81 1.97 3.68 -3.67 1.96 1.97 3.67 11.01 -5.9 1.97 3.67 3.38 -1.81zm30.72 -120.42c0.88,-4.07 1.74,-8.14 2.58,-12.2l-3.37 -6.28 -3.67 1.97 1.97 3.67 -3.68 1.97 1.97 3.67 -3.67 1.97 1.97 3.67 3.67 -1.97 1.97 3.67 0.26 -0.14zm30.6 -214.87c0.4,-5.45 0.77,-10.91 1.13,-16.38l-1.3 -2.43 -1.97 -3.67 -3.67 1.97 -1.97 -3.68 -3.67 1.97 -1.97 -3.67 -3.67 1.96 -1.97 -3.67 -3.67 1.97 -1.97 -3.67 -3.67 1.97 -1.97 -3.68 -3.67 1.97 -1.97 -3.67 -3.67 1.97 -1.96 -3.68 -3.68 1.97 -3.93 -7.34 -3.67 1.96 -3.94 -7.34 -3.67 1.97 -7.87 -14.69 -3.67 1.97 -1.96 -3.68 3.67 -1.96 -15.74 -29.38 3.67 -1.97 -3.93 -7.34 3.67 -1.97 -1.97 -3.67 7.35 -3.93 -1.97 -3.68 7.34 -3.93 -1.96 -3.67 -11.02 5.9 1.97 3.67 -11.02 5.9 -1.97 -3.67 3.68 -1.97 -1.97 -3.67 7.34 -3.93 -1.96 -3.67 3.67 -1.97 -1.97 -3.67 -7.34 3.93 1.97 3.67 -11.02 5.9 -1.97 -3.67 -3.67 1.97 -5.9 -11.02 -3.67 1.97 -3.94 -7.34 -3.67 1.96 -1.97 -3.67 -3.67 1.97 -1.97 -3.67 -3.67 1.96 -1.96 -3.67 -3.68 1.97 -1.96 -3.67 -3.67 1.96 -1.97 -3.67 -25.7 13.77 1.96 3.67 11.02 -5.9 1.96 3.67 7.35 -3.93 1.97 3.67 3.67 -1.97 1.96 3.68 3.68 -1.97 5.9 11.02 3.67 -1.97 3.93 7.34 3.68 -1.97 1.96 3.68 3.67 -1.97 -3.93 -7.34 3.67 -1.97 3.94 7.34 3.67 -1.96 3.93 7.34 -7.34 3.93 3.93 7.35 -7.34 3.93 1.97 3.67 -3.68 1.97 1.97 3.67 -3.67 1.97 1.97 3.67 -3.68 1.97 1.97 3.67 -3.67 1.97 -3.67 1.97 -7.35 3.93 -1.96 -3.67 -7.35 3.93 -1.96 -3.67 -14.69 7.87 -3.94 -7.35 -3.67 1.97 -1.97 -3.67 -14.68 7.87 -5.9 -11.02 -7.35 3.94 1.97 3.67 -7.35 3.93 -1.96 -3.67 -7.35 3.93 -1.96 -3.67 -11.02 5.9 -1.97 -3.67 -18.36 9.83 1.97 3.68 7.34 -3.94 1.97 3.68 11.02 -5.91 1.97 3.68 7.34 -3.94 1.96 3.67 7.35 -3.93 1.97 3.67 3.67 -1.97 1.97 3.68 7.34 -3.94 1.97 3.68 7.34 -3.94 1.97 3.67 7.34 -3.93 1.97 3.67 3.67 -1.97 1.97 3.68 3.67 -1.97 1.97 3.67 7.34 -3.93 1.97 3.67 11.01 -5.9 1.97 3.67 3.67 -1.97 9.84 18.36 3.67 -1.97 9.83 18.37 3.68 -1.97 1.96 3.67 3.68 -1.97 -9.84 -18.36 3.67 -1.96 -5.9 -11.02 3.67 -1.97 -3.93 -7.34 3.67 -1.97 -1.97 -3.67 3.68 -1.97 -1.97 -3.67 7.34 -3.93 -1.96 -3.67 7.34 -3.94 3.93 7.34 3.68 -1.96 15.73 29.37 3.67 -1.96 11.81 22.03 -3.68 1.97 3.94 7.34 -3.67 1.97 1.96 3.67 -7.34 3.93 1.97 3.67 -3.68 1.97 1.97 3.67 -3.67 1.97 1.97 3.67 -7.35 3.94 3.94 7.34 -3.67 1.97 1.96 3.67 11.02 -5.9 -1.97 -3.67 3.67 -1.97 -1.96 -3.67 7.34 -3.94 -1.97 -3.67 7.35 -3.93 -1.97 -3.67 7.34 -3.94 -1.96 -3.67 3.67 -1.97 -1.97 -3.67 7.35 -3.93 1.96 3.67 3.68 -1.97 1.96 3.67 3.67 -1.96 1.97 3.67 3.67 -1.97 3.94 7.34 3.67 -1.96 3.93 7.34 3.67 -1.97 3.94 7.35 3.32 -1.78zm3.34 -58.5c0.21,-4.82 0.39,-9.64 0.55,-14.47l-1.96 -3.67 -3.68 1.96 -3.93 -7.34 -3.67 1.97 -5.9 -11.02 -3.68 1.97 -1.96 -3.67 3.67 -1.97 -5.9 -11.02 3.67 -1.96 -1.97 -3.68 3.68 -1.96 -1.97 -3.68 3.67 -1.96 -1.97 -3.67 -3.67 1.96 -5.9 -11.01 -3.67 1.96 -3.94 -7.34 -3.67 1.97 -3.93 -7.35 -3.67 1.97 -3.94 -7.34 -3.67 1.96 -1.97 -3.67 -3.67 1.97 -1.97 -3.67 -3.67 1.96 1.97 3.67 -3.67 1.97 3.93 7.35 7.35 -3.94 1.96 3.67 3.67 -1.96 3.94 7.34 -3.67 1.97 1.96 3.67 -3.67 1.97 -1.97 -3.67 -3.67 1.96 -3.93 -7.34 -11.02 5.9 3.94 7.34 3.67 -1.96 1.97 3.67 3.67 -1.97 1.96 3.67 3.68 -1.96 1.96 3.67 3.68 -1.97 3.93 7.35 -3.67 1.96 1.97 3.67 -3.68 1.97 1.97 3.67 7.34 -3.93 3.68 -1.97 5.9 11.02 3.67 -1.97 9.83 18.36 3.68 -1.97 7.86 14.69 3.68 -1.97 3.93 7.35 0.89 -0.48zm0.13 -189.1c-0.1,-3.08 -0.2,-6.18 -0.31,-9.28l-2.54 1.36 1.96 3.67 -7.34 3.94 1.97 3.67 6.26 -3.36zm-2.85 -69.67c-0.29,-6 -0.6,-12.03 -0.91,-18.1l-6.83 3.66 7.74 14.44zm-1.5 -29.25l-0.64 -11.82 -8.09 4.33 3.93 7.35 3.68 -1.97 1.12 2.11zm-4.49 -114.26c0.01,-17.56 0.42,-34.48 1.16,-50.76l-0.54 -1.02 0.6 -0.32c0.23,-4.97 0.49,-9.88 0.78,-14.73l-5.84 -10.91 3.67 -1.97 -5.9 -11.02 3.67 -1.96 -3.93 -7.34 11.01 -5.91 0.27 0.5c0.18,-1.89 0.36,-3.78 0.54,-5.66l-6.45 3.46 -1.96 -3.67 -3.68 1.96 -3.93 -7.34 -3.67 1.97 -1.97 -3.68 -3.67 1.97 -5.9 -11.01 3.67 -1.97 -3.93 -7.35 3.67 -1.96 -5.9 -11.02 3.67 -1.97 -3.93 -7.34 3.67 -1.97 -1.97 -3.67 3.67 -1.97 -1.97 -3.67 -3.93 -7.34 3.67 -1.97 -7.86 -14.69 -3.68 1.97 -1.96 -3.67 -7.35 3.93 -3.93 -7.34 -3.67 1.97 -1.97 -3.68 -7.35 3.94 -1.96 -3.67 3.67 -1.97 -7.87 -14.69 3.67 -1.97 -5.9 -11.01 11.02 -5.9 -1.97 -3.67 7.35 -3.94 -1.97 -3.67 -1.97 -3.67 3.67 -1.97 -7.87 -14.69 3.68 -1.96 -3.94 -7.35 3.67 -1.97 -3.93 -7.34 3.67 -1.97 -1.96 -3.67 3.67 -1.97 -1.97 -3.67 3.67 -1.96 -1.97 -3.68 7.35 -3.93 1.97 3.67 3.67 -1.97 3.93 7.35 7.35 -3.94 -3.94 -7.34 -3.67 1.97 -3.93 -7.35 -3.68 1.97 -3.93 -7.34 -3.67 1.96 -13.77 -25.7 -3.67 1.97 -1.97 -3.68 -7.34 3.94 -1.97 -3.67 -3.67 1.96 -3.94 -7.34 -3.67 1.97 -1.97 -3.68 -3.67 1.97 -0.47 -0.88c-3.77,1.91 -7.47,3.83 -11.11,5.73l2.53 4.73 3.68 -1.97 3.93 7.34 3.67 -1.97 1.97 3.68 3.67 -1.97 1.97 3.67 7.34 -3.93 1.97 3.67 3.67 -1.97 3.93 7.35 3.68 -1.97 3.93 7.34 -3.67 1.97 3.93 7.34 3.67 -1.96 1.97 3.67 -3.67 1.97 1.97 3.67 -3.67 1.96 3.93 7.35 -3.67 1.97 1.96 3.67 -3.67 1.97 1.97 3.67 -3.67 1.96 3.93 7.35 -3.67 1.96 3.93 7.35 -3.67 1.97 1.97 3.67 1.96 3.67 -3.67 1.97 5.9 11.01 -7.34 3.94 1.97 3.67 -11.02 5.9 3.94 7.34 -3.68 1.97 5.9 11.02 -3.67 1.96 1.97 3.68 -3.67 1.96 3.93 7.35 -3.67 1.96 1.97 3.68 -11.02 5.9 1.97 3.67 -3.67 1.97 1.96 3.67 -7.34 3.93 1.97 3.67 7.34 -3.93 -1.97 -3.67 7.35 -3.94 -1.97 -3.67 18.36 -9.83 1.97 3.67 3.67 -1.97 1.97 3.67 3.67 -1.96 1.96 3.67 3.68 -1.97 1.96 3.67 3.68 -1.96 3.93 7.34 3.67 -1.97 1.97 3.68 -3.67 1.96 3.93 7.35 -3.67 1.96 3.93 7.35 -3.67 1.97 1.97 3.67 -3.67 1.96 3.93 7.35 -3.67 1.97 1.96 3.67 -3.67 1.96 7.87 14.69 -7.34 3.94 1.96 3.67 -18.36 9.83 -1.96 -3.67 -14.69 7.87 -1.97 -3.67 -18.36 9.83 1.97 3.67 3.67 -1.96 1.97 3.67 3.67 -1.97 1.97 3.67 7.34 -3.93 -1.97 -3.67 3.68 -1.97 1.96 3.67 7.35 -3.93 1.96 3.67 3.68 -1.97 5.9 11.02 3.67 -1.97 -3.94 -7.34 3.68 -1.97 -1.97 -3.67 18.36 -9.84 1.97 3.68 3.67 -1.97 1.97 3.67 3.67 -1.96 1.96 3.67 -3.67 1.96 3.94 7.35 -3.67 1.96 5.9 11.02 -3.67 1.97 9.83 18.36 -3.67 1.96 5.9 11.02 -3.67 1.97 3.93 7.34 -3.67 1.97 3.93 7.34 -3.67 1.97 1.97 3.67 -3.67 1.97 9.61 17.94zm28.99 -260.73l1.06 -5.29 -1.89 1.01 -1.97 -3.67 -7.34 3.93 1.97 3.67 3.67 -1.96 1.96 3.67 2.54 -1.36zm-150.79 -81.32l-3.69 1.93 0.61 1.14 3.67 -1.96 -0.59 -1.11zm-53.63 23.4c-2.82,0.72 -5.64,1.34 -8.48,1.81l0.02 0.03 -3.68 1.96 1.97 3.67 -7.34 3.94 1.96 3.67 -7.34 3.93 1.97 3.68 -3.68 1.96 1.97 3.68 7.35 -3.94 -1.97 -3.67 11.02 -5.9 -1.97 -3.67 7.34 -3.94 -1.96 -3.67 3.67 -1.97 -0.85 -1.57zm-215.69 750.82c1.16,5.72 2.33,11.4 3.49,17.03l7.14 -3.83 7.35 -3.93 33.04 -17.71 9.84 18.36 3.67 -1.96 3.93 7.34 3.68 -1.96 5.9 11.01 3.67 -1.97 3.93 7.35 3.68 -1.97 1.96 3.67 3.68 -1.96 3.93 7.34 3.67 -1.97 3.94 7.35 3.67 -1.97 5.9 11.02 3.67 -1.97 7.87 14.69 3.67 -1.97 1.97 3.67 3.67 -1.97 1.97 3.68 3.67 -1.97 -5.9 -11.02 -3.67 1.97 -3.94 -7.34 11.02 -5.91 -1.97 -3.67 7.34 -3.93 -3.93 -7.35 -7.34 3.94 1.96 3.67 -11.01 5.9 -3.94 -7.34 -3.67 1.96 -15.74 -29.37 -3.67 1.97 -3.93 -7.35 -3.67 1.97 3.93 7.34 -7.34 3.94 -3.94 -7.35 7.35 -3.93 -1.97 -3.67 -3.94 -7.35 -3.67 1.97 -9.83 -18.36 -3.67 1.97 -7.87 -14.69 -7.35 3.93 -3.93 -7.34 3.67 -1.97 -1.96 -3.67 3.67 -1.97 -1.97 -3.67 3.67 -1.97 -1.97 -3.67 3.68 -1.96 -1.97 -3.68 3.67 -1.96 -3.93 -7.35 3.67 -1.96 -1.97 -3.68 7.35 -3.93 -1.97 -3.67 3.67 -1.97 -1.97 -3.67 7.35 -3.93 -3.94 -7.35 3.68 -1.97 -3.94 -7.34 3.67 -1.97 -1.96 -3.67 3.67 -1.97 -1.97 -3.67 7.35 -3.93 -1.97 -3.68 11.01 -5.9 -1.96 -3.67 7.34 -3.93 7.35 -3.94 -1.97 -3.67 3.67 -1.96 -1.97 -3.68 11.02 -5.9 -1.97 -3.67 18.36 -9.84 -1.97 -3.67 3.68 -1.96 11.01 -5.91 -3.93 -7.34 -3.67 1.97 -3.94 -7.35 -7.34 3.94 1.97 3.67 -3.68 1.97 3.94 7.34 -7.34 3.94 -3.94 -7.35 3.67 -1.97 -9.83 -18.36 3.67 -1.96 -3.94 -7.35 3.68 -1.96 -3.94 -7.35 3.68 -1.96 -1.97 -3.68 3.67 -1.96 -1.97 -3.68 3.68 -1.96 3.93 7.34 3.67 -1.97 1.97 3.68 3.67 -1.97 1.97 3.67 3.67 -1.97 1.97 3.67 3.67 -1.96 7.87 14.69 3.67 -1.97 1.96 3.67 -7.34 3.94 1.97 3.67 -7.35 3.93 5.91 11.02 22.03 -11.81 -1.97 -3.67 3.67 -1.96 -1.97 -3.67 7.35 -3.94 1.97 3.67 3.67 -1.96 1.97 3.67 3.67 -1.97 1.96 3.67 3.68 -1.97 7.34 -3.93 11.02 -5.9 -3.94 -7.34 3.67 -1.97 -1.96 -3.67 3.67 -1.97 -3.93 -7.34 -3.68 1.96 -3.93 -7.34 3.67 -1.97 -1.97 -3.67 3.68 -1.97 -1.97 -3.67 7.34 -3.93 -1.97 -3.68 18.37 -9.83 -1.97 -3.67 3.67 -1.97 14.69 -7.87 1.97 3.67 7.34 -3.93 -3.94 -7.34 -3.67 1.96 -1.96 -3.67 3.67 -1.97 -1.97 -3.67 3.67 -1.97 -1.96 -3.67 7.34 -3.93 -1.97 -3.67 3.68 -1.97 -1.97 -3.67 7.34 -3.94 -1.97 -3.67 3.68 -1.97 1.96 3.68 3.68 -1.97 3.93 7.34 3.67 -1.96 -1.97 -3.67 7.35 -3.94 -1.97 -3.67 3.67 -1.97 1.97 3.67 11.02 -5.9 1.96 3.67 11.02 -5.9 1.97 3.68 3.67 -1.97 1.97 3.67 7.34 -3.93 1.97 3.67 7.34 -3.94 1.97 3.68 7.34 -3.94 1.97 3.67 3.67 -1.96 -1.97 -3.67 -3.67 1.96 -1.97 -3.67 -3.67 1.97 -1.96 -3.67 -3.68 1.96 -1.96 -3.67 -3.68 1.97 -1.96 -3.67 -7.35 3.93 -1.96 -3.67 -3.68 1.96 -3.93 -7.34 -3.67 1.97 -1.97 -3.68 -3.67 1.97 -3.93 -7.34 -3.68 1.97 -3.93 -7.35 -3.67 1.97 -5.9 -11.02 -3.68 1.97 -1.96 -3.67 -3.67 1.96 -5.91 -11.01 3.68 -1.97 -1.97 -3.67 3.67 -1.97 -1.97 -3.67 -3.67 1.97 -1.97 -3.67 -11.01 5.9 -1.97 -3.67 -3.67 1.96 -3.93 -7.34 -3.68 1.96 5.9 11.02 3.68 -1.97 5.9 11.02 -3.67 1.97 5.9 11.01 -3.67 1.97 1.96 3.67 1.97 3.67 -3.67 1.97 1.97 3.67 -11.02 5.9 1.97 3.68 -7.35 3.93 1.97 3.67 -3.67 1.97 3.93 7.34 -3.67 1.97 1.97 3.67 -3.68 1.97 1.97 3.67 -3.67 1.97 1.97 3.67 -3.68 1.97 1.97 3.67 -3.67 1.97 1.97 3.67 -7.35 3.93 1.97 3.67 -3.67 1.97 1.96 3.67 -11.01 5.9 1.97 3.68 -7.35 3.93 -1.97 -3.67 -3.67 1.97 1.97 3.67 -3.67 1.96 3.93 7.35 -3.67 1.97 1.97 3.67 -3.68 1.96 1.97 3.68 -3.67 1.96 1.97 3.68 -3.68 1.96 1.97 3.68 -18.36 9.83 -1.96 -3.67 -7.35 3.93 -1.97 -3.67 -3.67 1.97 -1.97 -3.67 -3.67 1.96 -1.96 -3.67 -3.68 1.97 -3.93 -7.35 -3.67 1.97 -3.94 -7.34 -3.67 1.96 -1.97 -3.67 -3.67 1.97 -1.96 -3.67 -3.68 1.96 -3.93 -7.34 -3.67 1.97 -3.94 -7.35 -3.67 1.97 -1.97 -3.67 -7.34 3.93 -3.93 -7.34 -3.67 1.96 -1.97 -3.67 -3.67 1.97 -3.94 -7.34 -3.67 1.96 -5.9 -11.01 -3.67 1.97 -1.97 -3.68 -3.67 1.97 -1.97 -3.67 -7.34 3.93 -1.97 -3.67 -3.67 1.97 -1.97 -3.67 -3.67 1.96 -1.97 -3.67 -5.9 -11.02 -1.97 -3.67 3.67 -1.96 -1.96 -3.68 3.67 -1.96 -5.9 -11.02 3.67 -1.97 -5.9 -11.01 -7.34 3.93 1.96 3.67 -3.67 1.97 -1.97 -3.67 -14.69 7.87 1.97 3.67 -7.34 3.93 1.97 3.67 -7.35 3.94 1.97 3.67 -7.34 3.93 1.96 3.68 -29.37 15.73 1.96 3.68 3.68 -1.97 1.96 3.67 33.05 -17.7 1.97 3.67 11.01 -5.9 1.97 3.67 11.02 -5.9 3.93 7.34 7.87 14.69 3.67 -1.97 1.97 3.67 3.67 -1.96 3.93 7.34 3.67 -1.97 3.94 7.35 3.67 -1.97 3.94 7.35 3.67 -1.97 3.93 7.34 3.67 -1.96 1.97 3.67 3.67 -1.97 1.97 3.67 3.67 -1.96 3.94 7.34 3.67 -1.97 1.96 3.67 3.68 -1.96 1.96 3.67 -3.67 1.97 1.97 3.67 1.97 3.67 -3.68 1.97 1.97 3.67 -3.67 1.97 3.93 7.34 -3.67 1.97 1.97 3.67 -3.67 1.97 3.93 7.34 -3.67 1.97 3.93 7.34 -3.67 1.97 1.97 3.67 -7.35 3.93 1.97 3.68 -3.67 1.96 1.97 3.68 -3.68 1.96 1.97 3.67 -3.67 1.97 1.97 3.67 -3.68 1.97 1.97 3.67 -11.02 5.9 -3.67 1.97 -3.93 -7.34 3.67 -1.97 -3.93 -7.34 3.67 -1.97 -5.9 -11.02 3.67 -1.96 -1.97 -3.68 3.67 -1.96 -11.8 -22.04 3.67 -1.96 -1.96 -3.67 -3.67 1.96 1.96 3.67 -3.67 1.97 1.97 3.67 -3.68 1.97 3.94 7.35 -3.67 1.96 3.93 7.35 -3.67 1.96 9.83 18.36 -3.67 1.97 3.94 7.34 -3.68 1.97 1.97 3.67 -3.67 1.97 1.97 3.67 -3.68 1.97 1.97 3.67 -3.67 1.97 1.97 3.67 -3.67 1.97 1.96 3.67 -3.67 1.96 1.97 3.68 -3.68 1.96 3.94 7.35 -3.67 1.97 3.93 7.34 -3.67 1.97 1.97 3.67 -3.68 1.97 1.97 3.67 -3.67 1.96 -3.67 1.97 1.96 3.67 -3.67 1.97 1.97 3.67 -3.67 1.97 1.96 3.67 -3.67 1.97 1.97 3.67 -3.67 1.97 1.96 3.67 -3.67 1.97 -1.96 -3.67 -11.02 5.9 1.97 3.67 11.01 -5.9 3.94 7.34 -3.67 1.97 1.96 3.67 -3.67 1.97 7.87 14.69 -33.05 17.7 1.97 3.67 -10.11 5.42zm3.65 17.81l0.72 3.47 0.88 -0.47 -1.6 -3zm65.43 441.38c0,2.39 -0.01,4.77 -0.02,7.12l2.94 5.49 7.34 -3.93 -3.93 -7.35 -3.68 1.97 -1.96 -3.67 -0.69 0.37zm134.45 117l3.67 -1.96 -1.97 -3.67 -3.67 1.96 1.97 3.67 -3.67 1.97 1.96 3.67 3.68 -1.97 -1.97 -3.67zm152.15 -1347.99l3.67 -1.97 -1.97 -3.67 -3.67 1.97 1.97 3.67zm-48.27 668.56l3.67 -1.97 -1.97 -3.67 -3.67 1.96 1.97 3.68zm-16.13 -109.51l3.67 -1.96 -1.97 -3.68 -3.67 1.97 1.97 3.67zm80.39 -388.04l3.68 -1.97 -1.97 -3.67 -3.67 1.97 1.96 3.67zm0 264.64l3.67 -1.97 -3.93 -7.34 -3.67 1.97 3.93 7.34zm-14.7 537.15l3.67 -1.96 -3.93 -7.35 -3.67 1.97 3.93 7.34zm16.27 -481.28l7.35 -3.94 -1.97 -3.67 -7.35 3.93 1.97 3.68zm-218.75 306.21l7.35 -3.94 -1.97 -3.67 -7.34 3.93 1.96 3.68zm160.39 -194.61l3.67 -1.97 -3.93 -7.35 -3.67 1.97 3.93 7.35zm-162.36 720.22l3.67 -1.97 -3.94 -7.34 -3.67 1.96 3.94 7.35zm-59.67 -67.28l7.34 -3.93 -1.97 -3.67 -7.34 3.93 1.97 3.67zm28.46 17.84l3.67 -1.97 -3.94 -7.34 -3.67 1.96 3.94 7.35zm268.72 -848.09l3.67 -1.96 -3.93 -7.35 -3.68 1.97 3.94 7.34zm-214.04 870.78l3.67 -1.97 -1.97 -3.67 3.68 -1.97 -1.97 -3.67 -7.34 3.93 3.93 7.35zm-22.02 -517.49l7.34 -3.93 -1.96 -3.67 -3.68 1.97 -1.96 -3.68 -3.68 1.97 3.94 7.34zm134.55 -251.65l3.68 -1.97 -1.97 -3.67 3.67 -1.97 -3.93 -7.34 -3.68 1.96 1.97 3.68 -3.67 1.96 3.93 7.35 -3.67 1.96 1.97 3.68 -3.67 1.96 1.96 3.67 7.35 -3.93 1.97 3.67 3.67 -1.96 3.93 7.34 -3.67 1.97 3.93 7.34 3.68 -1.97 9.83 18.36 7.34 -3.93 -9.83 -18.36 -3.67 1.97 -3.94 -7.35 3.67 -1.96 -3.93 -7.35 -3.67 1.97 -1.97 -3.67 -3.67 1.96 -1.97 -3.67 -3.67 1.97 -1.97 -3.67zm5.26 -475.39l-3.67 1.97 3.93 7.34 -3.67 1.97 3.93 7.34 3.68 -1.96 -1.97 -3.68 3.67 -1.96 -3.93 -7.35 3.67 -1.96 -7.87 -14.69 -3.67 1.96 5.9 11.02zm50.47 932.28l-3.67 1.97 1.97 3.67 -7.35 3.94 1.97 3.67 14.69 -7.87 -3.94 -7.34 3.67 -1.97 -1.96 -3.67 -3.68 1.96 -1.96 -3.67 -3.67 1.97 3.93 7.34zm12.34 -885.59l3.68 -1.97 1.96 3.67 3.67 -1.96 1.97 3.67 3.67 -1.97 1.97 3.67 3.67 -1.96 -3.93 -7.35 -3.67 1.97 -5.9 -11.02 -11.02 5.9 3.93 7.35zm-132.85 378.34l7.34 -3.94 3.94 7.35 -7.34 3.93 -3.94 -7.34zm4.07 -451.13l-3.67 1.97 1.97 3.67 3.67 -1.97 3.94 7.35 11.01 -5.9 -3.93 -7.35 3.67 -1.96 -1.97 -3.67 -3.67 1.96 -1.97 -3.67 -11.01 5.9 1.96 3.67zm57.17 706.59l-7.34 3.94 -1.97 -3.68 3.67 -1.96 -1.97 -3.68 3.67 -1.96 3.94 7.34zm-35.79 -675.51l3.67 -1.96 3.94 7.34 7.34 -3.93 -7.87 -14.69 -3.67 1.97 -3.93 -7.35 -3.68 1.97 -1.96 -3.67 -3.67 1.96 9.83 18.36zm57.43 583.58l-3.67 1.97 11.8 22.03 3.67 -1.97 3.94 7.35 3.67 -1.97 -17.7 -33.05 -3.68 1.97 1.97 3.67zm-144.79 682.46l-7.35 3.93 1.97 3.67 3.67 -1.97 1.97 3.68 3.67 -1.97 1.97 3.67 -3.67 1.97 3.93 7.34 7.34 -3.93 5.91 11.01 3.67 -1.96 1.96 3.67 3.68 -1.97 1.96 3.67 3.68 -1.96 -5.91 -11.02 -3.67 1.97 -1.96 -3.67 3.67 -1.97 -1.97 -3.67 3.67 -1.97 -3.93 -7.34 -3.67 1.96 -1.97 -3.67 3.67 -1.97 -1.97 -3.67 3.67 -1.96 -3.93 -7.35 -3.67 1.97 1.97 3.67 -3.67 1.97 -1.97 -3.67 -14.69 7.86 1.97 3.68zm-59.28 -119.47l-7.34 3.93 3.93 7.34 -3.67 1.97 3.94 7.34 7.34 -3.93 9.84 18.36 18.35 -9.83 -3.93 -7.35 3.67 -1.97 -5.9 -11.01 -3.67 1.97 -1.97 -3.68 -3.67 1.97 -1.97 -3.67 -3.67 1.96 -3.93 -7.34 -3.68 1.97 -1.96 -3.67 -3.67 1.96 1.96 3.68zm-84.18 -739.38l1.97 3.67 -3.67 1.97 -1.97 -3.67 3.67 -1.97zm1.71 -5.64l1.97 3.67 -3.68 1.97 -1.96 -3.67 3.67 -1.97zm0 0l-1.97 -3.67 3.67 -1.97 1.97 3.68 -3.67 1.96zm235.14 -55.07l3.67 -1.97 -1.97 -3.67 3.67 -1.97 11.81 22.03 -3.68 1.97 -5.9 -11.02 -3.67 1.97 -3.93 -7.34zm36.58 306.47l3.67 -1.96 1.97 3.67 -3.67 1.97 -1.97 -3.68zm-19.41 -27.4l-3.67 1.96 -3.94 -7.34 3.68 -1.97 3.93 7.35zm-186.23 799.17l-3.68 1.96 -5.9 -11.01 -3.67 1.96 -3.93 -7.34 3.67 -1.97 -1.97 -3.67 3.67 -1.97 11.81 22.04 3.67 -1.97 -3.94 -7.35 3.68 -1.96 -5.91 -11.02 3.68 -1.97 -1.97 -3.67 7.34 -3.93 -1.96 -3.67 7.34 -3.94 -1.97 -3.67 7.35 -3.93 1.96 3.67 3.68 -1.97 5.9 11.02 -7.35 3.93 1.97 3.67 -3.67 1.97 1.97 3.67 -3.68 1.97 1.97 3.67 -3.67 1.97 3.93 7.34 -3.67 1.97 1.97 3.67 -3.67 1.97 1.96 3.67 -7.34 3.93 -1.97 -3.67 -3.67 1.97 -3.93 -7.34zm-5.25 -53.9l3.93 7.34 -3.67 1.97 -3.93 -7.35 3.67 -1.96zm0 0l-1.97 -3.68 3.68 -1.96 1.96 3.67 -3.67 1.97zm248.65 -303.33l-3.67 1.97 -11.8 -22.03 3.67 -1.97 1.96 3.67 3.68 -1.97 3.93 7.35 -3.67 1.97 5.9 11.01z"/>
  <path id="crown" class="fil0 str0" d="M18.65 255.51c-23.7,38.34 -18.63,153.52 -18.52,203.33 0.24,95.42 10.93,294.82 78.59,352.64 60.02,-0.05 68.7,-14.39 135.06,11.72 146.55,57.68 64.23,118.44 236.06,29.88 64.04,-33.01 100.52,-18.2 166.68,-15.78 73.21,-131.5 97.56,-306.9 114.54,-474.59 7.54,-74.44 25.93,-208.45 -50.24,-238.99 -152.14,-60.98 -259.35,-182.78 -396.22,-90.04 -27.91,18.92 -52.64,45.31 -74.8,68.59 -38.68,40.62 -181.4,137.48 -191.15,153.24z"/>
 </g>
</svg>
