<?xml version="1.0" encoding="UTF-8"?>
<!DOCTYPE svg PUBLIC "-//W3C//DTD SVG 1.1//EN" "http://www.w3.org/Graphics/SVG/1.1/DTD/svg11.dtd">
<!-- Creator: CorelDRAW (Versión de evaluación) -->
<svg xmlns="http://www.w3.org/2000/svg" xml:space="preserve" width="3025px" height="2842px" version="1.1" style="shape-rendering:geometricPrecision; text-rendering:geometricPrecision; image-rendering:optimizeQuality; fill-rule:evenodd; clip-rule:evenodd"
viewBox="0 0 3025 2841.67"
 xmlns:xlink="http://www.w3.org/1999/xlink"
 xmlns:xodm="http://www.corel.com/coreldraw/odm/2003">
 <defs>
  <style type="text/css">
   <![CDATA[
    .str0 {stroke:#373435;stroke-width:25;stroke-miterlimit:22.9256}
    .fil0 {fill:#BDBFC1}
   ]]>
  </style>
 </defs>
 <g id="original">
  <metadata id="CorelCorpID_0Corel-Layer"/>
  <path id="bracket" class="fil0 str0" d="M1192.4 968.44l-4.07 0 0 12.63 -4.07 0 0 12.63 -4.08 0 0 37.88 -4.07 0 0 8.42 -4.07 0 0 25.26 -4.07 0 0 8.42 -4.07 0 0 8.42 -4.07 0 0 4.21 -4.07 0 0 8.42 -4.08 0 0 4.21 -4.07 0 0 4.21 -4.07 0 0 4.21 -4.07 0 0 4.21 -4.07 0 0 4.21 -4.07 0 0 4.21 -4.07 0 0 4.21 -8.15 0 0 4.21 -8.14 0 0 4.21 -8.14 0 0 4.21 -8.14 0 0 4.21 -12.22 0 0 4.21 -24.43 0 0 4.21 -411.2 0 0 -4.21 -16.29 0 0 -4.21 -12.21 0 0 -4.21 -8.14 0 0 -4.21 -8.15 0 0 -4.21 -8.14 0 0 -4.21 -4.07 0 0 -4.21 -4.07 0 0 -4.21 -4.07 0 0 -4.21 -4.07 0 0 -4.21 -4.07 0 0 -4.21 -4.08 0 0 -4.21 -4.07 0 0 -8.42 -4.07 0 0 -8.42 -4.07 0 0 -8.42 -4.07 0 0 -16.84 -4.07 0 0 -16.84 -4.07 0 0 -4.21 -8.14 0 0 -4.21 -4.08 0 0 -4.21 -4.07 0 0 -4.21 -4.07 0 0 -8.42 -4.07 0 0 -4.21 -4.07 0 0 -8.42 -4.07 0 0 -8.41 -4.08 0 0 -12.63 -4.07 0 0 -21.06 -4.07 0 0 -244.17 -109.92 0 0 1422.94 109.92 0 0 -311.53 4.07 0 0 -21.05 4.07 0 0 -12.63 4.08 0 0 -8.42 4.07 0 0 -8.41 4.07 0 0 -4.22 4.07 0 0 -8.41 4.07 0 0 -4.22 4.07 0 0 -4.21 4.08 0 0 -4.2 8.14 0 0 -4.22 4.07 0 0 -21.04 4.07 0 0 -12.63 4.07 0 0 -8.43 4.07 0 0 -8.41 4.07 0 0 -8.42 4.07 0 0 -4.21 4.08 0 0 -8.42 4.07 0 0 -4.21 4.07 0 0 -4.21 8.14 0 0 -4.21 4.07 0 0 -4.21 4.08 0 0 -4.21 8.14 0 0 -4.21 8.14 0 0 -4.21 8.14 0 0 -4.21 16.29 0 0 -4.21 435.63 0 0 4.21 16.28 0 0 4.21 12.22 0 0 4.21 8.14 0 0 4.21 8.14 0 0 4.21 8.15 0 0 4.21 4.07 0 0 4.21 4.07 0 0 4.21 4.07 0 0 4.21 4.07 0 0 4.2 4.07 0 0 4.22 4.07 0 0 4.21 4.08 0 0 8.42 4.07 0 0 4.21 4.07 0 0 8.42 4.07 0 0 12.63 4.07 0 0 8.41 4.07 0 0 12.63 4.07 0 0 50.52 4.08 0 0 8.42 4.07 0 0 16.84 4.07 0 0 399.94 635.13 0 0 -391.52 4.07 0 0 -25.26 4.07 0 0 -16.84 4.07 0 0 -25.26 4.07 0 0 -21.04 4.07 0 0 -16.84 4.07 0 0 -8.42 4.08 0 0 -8.43 4.07 0 0 -8.41 4.07 0 0 -4.22 4.07 0 0 -8.41 4.07 0 0 -4.22 4.07 0 0 -4.2 4.08 0 0 -4.21 4.06 0 0 -4.21 4.08 0 0 -4.21 8.14 0 0 -4.21 4.07 0 0 -4.21 8.14 0 0 -4.21 12.22 0 0 -4.21 8.14 0 0 -4.21 20.36 0 0 -4.21 427.49 0 0 4.21 24.43 0 0 4.21 8.14 0 0 4.21 8.14 0 0 4.21 4.07 0 0 4.21 8.15 0 0 4.21 4.06 0 0 4.21 4.08 0 0 4.21 4.07 0 0 4.21 4.07 0 0 4.2 4.07 0 0 8.43 4.07 0 0 4.2 4.07 0 0 8.43 4.08 0 0 8.42 4.07 0 0 12.63 4.07 0 0 21.04 4.07 0 0 4.21 4.07 0 0 4.22 4.07 0 0 4.2 4.07 0 0 4.21 4.08 0 0 4.22 4.06 0 0 4.2 4.08 0 0 4.21 4.07 0 0 8.42 4.07 0 0 8.42 4.07 0 0 12.63 4.07 0 0 25.26 4.07 0 0 311.53 109.93 0 0 -1422.94 -109.93 0 0 239.97 -4.07 0 0 29.46 -4.07 0 0 8.43 -4.07 0 0 8.41 -4.07 0 0 8.42 -4.07 0 0 4.21 -4.08 0 0 8.42 -4.06 0 0 4.21 -4.08 0 0 4.21 -4.07 0 0 4.21 -4.07 0 0 4.21 -4.07 0 0 4.21 -4.07 0 0 25.26 -4.07 0 0 8.42 -4.07 0 0 8.42 -4.08 0 0 8.42 -4.07 0 0 4.21 -4.07 0 0 8.42 -4.07 0 0 4.21 -4.07 0 0 4.21 -4.07 0 0 4.21 -4.08 0 0 4.21 -8.14 0 0 4.21 -4.07 0 0 4.21 -8.14 0 0 4.21 -12.21 0 0 4.21 -12.22 0 0 4.21 -20.35 0 0 4.21 -399 0 0 -4.21 -28.49 0 0 -4.21 -16.29 0 0 -4.21 -8.14 0 0 -4.21 -8.15 0 0 -4.21 -8.14 0 0 -4.21 -8.14 0 0 -4.21 -4.07 0 0 -4.21 -4.08 0 0 -4.21 -4.06 0 0 -4.21 -4.08 0 0 -4.21 -4.07 0 0 -4.21 -4.07 0 0 -4.21 -4.07 0 0 -8.42 -4.07 0 0 -8.42 -4.07 0 0 -8.42 -4.08 0 0 -8.42 -4.07 0 0 -12.63 -4.07 0 0 -16.84 -4.07 0 0 -37.88 -4.07 0 0 -12.63 -4.07 0 0 -16.84 -4.07 0 0 -387.31 -635.13 0 0 391.52zm-36.64 1827.09l4.07 0 0 -4.21 4.07 0 0 -8.42 4.07 0 0 -4.21 4.07 0 0 -8.42 4.07 0 0 -8.43 4.07 0 0 -8.41 36.65 0 0 4.21 40.71 0 0 4.2 65.14 0 0 4.22 362.35 0 0 -4.22 57 0 0 -4.2 73.28 0 0 -4.21 24.43 0 0 8.41 4.07 0 0 8.43 4.07 0 0 8.42 4.07 0 0 4.21 4.08 0 0 8.42 4.07 0 0 4.21 4.07 0 0 4.2 4.07 0 0 4.21 -48.85 0 0 4.22 -81.43 0 0 4.2 -32.57 0 0 4.21 -362.35 0 0 -4.21 -85.5 0 0 -4.2 -52.93 0 0 -4.22 -48.85 0 0 -8.41zm32.57 -63.15l0 -29.47 4.07 0 0 -404.15 635.13 0 0 416.78 4.07 0 0 21.05 -8.15 0 0 4.21 -44.78 0 0 4.21 -81.42 0 0 4.2 -362.36 0 0 -4.2 -101.78 0 0 -4.21 -48.85 0 0 -8.42 4.07 0zm-16.29 12.63l-4.07 0 0 8.42 -4.07 0 0 8.41 -4.07 0 0 8.43 -4.07 0 0 8.42 -4.08 0 0 4.21 -4.07 0 0 4.2 -4.07 0 0 4.22 -4.07 0 0 4.21 -4.07 0 0 4.2 -4.07 0 0 4.21 -8.14 0 0 4.22 -12.22 0 0 4.2 -8.14 0 0 4.21 -16.29 0 0 4.22 -28.5 0 0 -16.85 4.08 0 0 -972.48 40.71 0 0 4.21 24.43 0 0 4.21 48.85 0 0 884.08 -4.07 0 0 21.05zm671.77 -909.34l85.5 0 0 -4.21 32.57 0 0 985.11 4.07 0 0 4.22 -28.5 0 0 -4.22 -16.28 0 0 -4.21 -16.29 0 0 -4.2 -8.14 0 0 -4.22 -8.14 0 0 -4.21 -4.08 0 0 -4.2 -4.06 0 0 -4.21 -4.08 0 0 -4.22 -4.07 0 0 -4.2 -4.07 0 0 -4.21 -4.07 0 0 -8.42 -4.07 0 0 -8.43 -4.07 0 0 -8.41 -4.08 0 0 -16.84 -4.07 0 0 -16.84 -4.07 0 0 -884.08zm582.2 812.51l-4.07 0 0 12.63 -4.07 0 0 12.63 -4.07 0 0 8.42 -4.07 0 0 4.21 -4.07 0 0 8.42 -4.07 0 0 4.21 -4.08 0 0 4.21 -4.07 0 0 4.21 -4.07 0 0 4.21 -4.07 0 0 4.21 -4.07 0 0 4.21 -4.07 0 0 4.21 -4.08 0 0 4.21 -8.14 0 0 4.21 -4.07 0 0 4.21 -8.14 0 0 4.21 -12.21 0 0 4.21 -8.15 0 0 4.2 -16.28 0 0 4.22 -16.29 0 0 4.21 -24.43 0 0 4.2 -301.27 0 0 -930.38 455.99 0 0 795.67 -4.08 0 0 21.05zm-1836.17 -816.72l455.99 0 0 930.38 -305.35 0 0 -4.2 -24.43 0 0 -4.21 -20.35 0 0 -4.22 -8.15 0 0 -4.2 -8.14 0 0 -4.21 -8.14 0 0 -4.21 -8.15 0 0 -4.21 -8.14 0 0 -4.21 -8.14 0 0 -4.21 -4.07 0 0 -4.21 -4.07 0 0 -4.21 -4.07 0 0 -4.21 -4.08 0 0 -4.21 -4.07 0 0 -4.21 -4.07 0 0 -4.21 -4.07 0 0 -4.21 -4.07 0 0 -8.42 -4.07 0 0 -8.42 -4.07 0 0 -8.42 -4.08 0 0 -12.63 -4.06 0 0 -12.63 -4.08 0 0 -25.26 -4.07 0 0 -787.25zm1909.46 795.67l-4.08 0 0 16.84 -4.06 0 0 16.84 -4.08 0 0 8.42 -4.07 0 0 12.63 -4.07 0 0 8.42 -4.07 0 0 8.42 -4.07 0 0 4.21 -4.07 0 0 8.42 -4.07 0 0 8.42 -4.08 0 0 4.21 -4.07 0 0 4.21 -4.07 0 0 8.42 -4.07 0 0 4.21 -4.07 0 0 4.21 -4.07 0 0 4.2 -4.08 0 0 4.22 -4.06 0 0 4.21 -4.08 0 0 4.2 -4.07 0 0 4.22 -4.07 0 0 4.21 -4.07 0 0 4.2 -8.14 0 0 4.22 -4.07 0 0 4.21 -8.15 0 0 4.2 -4.07 0 0 4.22 -8.14 0 0 4.21 -8.15 0 0 4.2 -8.14 0 0 4.21 -12.21 0 0 4.22 -12.21 0 0 4.2 -16.29 0 0 4.21 -16.28 0 0 4.22 -20.36 0 0 4.2 -305.35 0 0 -8.42 -4.07 0 0 -8.41 -4.07 0 0 -33.69 305.35 0 0 -4.2 36.64 0 0 -4.21 12.21 0 0 -4.22 12.22 0 0 -4.2 8.14 0 0 -4.21 8.14 0 0 -4.22 8.14 0 0 -4.2 8.14 0 0 -4.21 4.08 0 0 -4.21 8.14 0 0 -4.21 4.07 0 0 -4.21 4.07 0 0 -4.21 4.07 0 0 -4.21 4.08 0 0 -4.21 4.07 0 0 -4.21 4.07 0 0 -8.42 4.07 0 0 -4.21 4.07 0 0 -4.21 4.07 0 0 -8.42 4.07 0 0 -8.42 4.08 0 0 -12.63 4.06 0 0 -8.42 4.08 0 0 -16.84 4.07 0 0 -33.68 4.07 0 0 -770.41 24.43 0 0 4.21 8.14 0 0 4.21 16.28 0 0 4.21 8.15 0 0 753.57 -4.07 0 0 25.26zm-1982.74 -778.83l8.14 0 0 -4.21 12.22 0 0 -4.21 16.28 0 0 -4.21 12.21 0 0 -4.21 12.22 0 0 799.88 4.07 0 0 16.84 4.07 0 0 16.84 4.07 0 0 12.63 4.07 0 0 8.42 4.08 0 0 8.42 4.06 0 0 4.21 4.08 0 0 4.21 4.07 0 0 8.42 4.07 0 0 4.21 4.07 0 0 4.21 4.07 0 0 4.21 4.07 0 0 4.21 4.07 0 0 4.21 8.15 0 0 4.21 4.07 0 0 4.21 8.14 0 0 4.21 4.07 0 0 4.2 8.14 0 0 4.22 8.15 0 0 4.21 12.21 0 0 4.2 8.14 0 0 4.22 20.36 0 0 4.21 16.29 0 0 4.2 317.56 0 0 33.69 -4.07 0 0 8.41 -4.07 0 0 8.42 -305.35 0 0 -4.2 -24.43 0 0 -4.22 -16.29 0 0 -4.21 -12.21 0 0 -4.2 -12.21 0 0 -4.22 -8.14 0 0 -4.21 -8.15 0 0 -4.2 -12.21 0 0 -4.21 -4.07 0 0 -4.22 -8.15 0 0 -4.2 -8.14 0 0 -4.21 -4.07 0 0 -4.22 -4.07 0 0 -4.2 -8.15 0 0 -4.21 -4.06 0 0 -4.22 -4.08 0 0 -4.2 -4.07 0 0 -4.21 -4.07 0 0 -4.22 -4.07 0 0 -4.2 -4.07 0 0 -4.21 -4.07 0 0 -8.42 -4.08 0 0 -4.21 -4.07 0 0 -4.21 -4.07 0 0 -8.42 -4.07 0 0 -4.21 -4.07 0 0 -8.42 -4.07 0 0 -8.42 -4.07 0 0 -8.42 -4.08 0 0 -8.42 -4.06 0 0 -12.63 -4.08 0 0 -8.42 -4.07 0 0 -21.05 -4.07 0 0 -16.84 -4.07 0 0 -16.84 -4.07 0 0 -753.57zm675.84 383.1l635.13 0 0 54.73 -635.13 0 0 -54.73zm1429.04 -33.68l-4.08 0 0 8.42 -4.07 0 0 4.21 -4.07 0 0 8.42 -4.07 0 0 4.21 -4.07 0 0 4.21 -8.14 0 0 4.21 -4.08 0 0 4.21 -8.14 0 0 4.21 -8.14 0 0 4.21 -20.35 0 0 4.21 -32.58 0 0 -92.62 105.86 0 0 33.68 -4.07 0 0 8.42zm-2227.02 -42.1l105.85 0 0 92.62 -36.64 0 0 -4.21 -16.29 0 0 -4.21 -8.14 0 0 -4.21 -8.14 0 0 -4.21 -4.07 0 0 -4.21 -4.07 0 0 -4.21 -4.07 0 0 -4.21 -4.08 0 0 -4.21 -4.07 0 0 -4.21 -4.07 0 0 -8.42 -4.07 0 0 -8.42 -4.07 0 0 -16.84 -4.07 0 0 -21.05zm1579.68 -345.21l4.07 0 0 -25.26 4.07 0 0 -8.41 4.07 0 0 -8.43 4.07 0 0 -8.42 4.07 0 0 -4.21 4.07 0 0 -4.2 4.08 0 0 -4.22 4.06 0 0 -8.41 390.85 0 0 4.2 4.08 0 0 4.21 4.07 0 0 4.22 4.07 0 0 8.41 4.07 0 0 4.22 4.07 0 0 8.41 4.07 0 0 8.42 4.07 0 0 25.26 4.08 0 0 12.63 -455.99 0 0 -8.42zm-1384.26 0l4.07 0 0 -16.84 4.08 0 0 -16.83 4.06 0 0 -8.43 4.08 0 0 -8.42 4.07 0 0 -4.21 4.07 0 0 -4.2 4.07 0 0 -8.43 4.07 0 0 -4.2 390.85 0 0 8.41 4.07 0 0 4.22 4.07 0 0 4.2 4.08 0 0 8.43 4.06 0 0 4.2 4.08 0 0 12.63 4.07 0 0 8.42 4.07 0 0 12.63 4.07 0 0 16.84 -455.99 0 0 -8.42zm1832.1 -67.36l20.36 0 0 4.21 8.14 0 0 4.22 8.14 0 0 4.2 8.15 0 0 4.21 4.07 0 0 4.22 4.07 0 0 4.2 4.07 0 0 4.21 4.07 0 0 4.22 4.07 0 0 8.41 4.08 0 0 8.42 4.06 0 0 8.42 4.08 0 0 12.63 4.07 0 0 16.84 -16.29 0 0 -4.21 -12.21 0 0 -4.21 -16.29 0 0 -4.21 -16.28 0 0 -25.26 -4.07 0 0 -12.63 -4.08 0 0 -12.63 -4.06 0 0 -8.42 -4.08 0 0 -8.41 -4.07 0 0 -8.43zm-1392.4 -4.2l73.29 0 0 4.2 12.21 0 0 4.21 8.15 0 0 4.22 8.14 0 0 4.2 8.14 0 0 4.21 4.07 0 0 4.22 4.07 0 0 4.2 4.07 0 0 4.21 4.08 0 0 4.22 4.07 0 0 8.41 4.07 0 0 4.21 4.07 0 0 12.63 4.07 0 0 12.63 4.07 0 0 8.42 -61.07 0 0 -4.21 -57 0 0 -21.05 -4.07 0 0 -16.84 -4.07 0 0 -12.63 -4.07 0 0 -4.2 -4.07 0 0 -8.43 -4.07 0 0 -8.42 -8.15 0 0 -8.41zm-431.55 12.63l-4.08 0 0 8.41 -4.07 0 0 8.42 -4.07 0 0 12.63 -4.07 0 0 12.63 -4.07 0 0 25.26 -16.29 0 0 4.21 -12.21 0 0 4.21 -16.29 0 0 4.21 -16.28 0 0 -4.21 4.07 0 0 -21.05 4.07 0 0 -12.63 4.07 0 0 -8.42 4.07 0 0 -8.41 4.08 0 0 -4.22 4.06 0 0 -4.21 4.08 0 0 -4.2 4.07 0 0 -4.22 4.07 0 0 -4.21 8.14 0 0 -4.2 8.14 0 0 -4.22 8.15 0 0 -4.21 16.28 0 0 -4.2 8.14 0 0 8.41 -4.06 0 0 4.22zm1388.32 -4.22l-4.07 0 0 8.42 -4.07 0 0 8.43 -4.07 0 0 8.41 -4.08 0 0 12.63 -4.07 0 0 16.84 -4.07 0 0 16.84 -44.78 0 0 4.21 -73.29 0 0 -8.42 4.07 0 0 -16.84 4.07 0 0 -8.42 4.08 0 0 -4.21 4.07 0 0 -8.41 4.07 0 0 -4.22 4.07 0 0 -4.21 4.07 0 0 -4.2 4.07 0 0 -4.22 4.08 0 0 -4.21 8.14 0 0 -4.2 8.14 0 0 -4.22 8.14 0 0 -4.21 16.29 0 0 -4.2 69.21 0 0 4.2 -4.07 0 0 4.21zm-122.14 4.22l0 4.2 -4.07 0 0 4.21 -4.07 0 0 -12.63 4.07 0 0 -16.84 4.07 0 0 -8.41 4.07 0 0 -8.42 4.07 0 0 -8.43 4.07 0 0 -8.41 4.08 0 0 -4.22 4.06 0 0 -4.2 4.08 0 0 -4.21 4.07 0 0 -4.22 4.07 0 0 -4.2 8.14 0 0 -4.21 4.07 0 0 -4.21 8.15 0 0 -4.21 12.21 0 0 -4.21 16.28 0 0 -4.21 16.29 0 0 -4.21 411.2 0 0 4.21 16.29 0 0 4.21 8.14 0 0 4.21 12.22 0 0 4.21 4.07 0 0 4.21 8.14 0 0 4.21 4.07 0 0 4.2 4.08 0 0 4.22 4.06 0 0 4.21 4.08 0 0 4.2 4.07 0 0 8.43 4.07 0 0 4.2 4.07 0 0 12.63 4.07 0 0 12.63 4.07 0 0 4.21 -8.14 0 0 -4.21 -24.43 0 0 -4.2 -517.06 0 0 4.2 -12.21 0 0 4.21 -8.14 0 0 4.22 -8.14 0 0 4.2 -8.15 0 0 4.21 -4.07 0 0 4.22 -4.07 0zm-704.34 -4.22l4.07 0 0 12.63 -4.07 0 0 -4.21 -4.07 0 0 -4.2 -4.08 0 0 -4.22 -4.07 0 0 -4.21 -8.14 0 0 -4.2 -8.14 0 0 -4.22 -8.14 0 0 -4.21 -16.29 0 0 -4.2 -517.06 0 0 4.2 -16.28 0 0 4.21 -8.15 0 0 -16.84 4.07 0 0 -8.41 4.08 0 0 -8.42 4.07 0 0 -4.21 4.07 0 0 -8.42 4.07 0 0 -4.21 4.07 0 0 -4.22 8.15 0 0 -4.2 4.06 0 0 -4.21 4.08 0 0 -4.21 8.14 0 0 -4.21 8.14 0 0 -4.21 12.22 0 0 -4.21 12.21 0 0 -4.21 415.28 0 0 4.21 16.28 0 0 4.21 16.29 0 0 4.21 8.14 0 0 4.21 8.14 0 0 4.21 4.07 0 0 4.21 8.15 0 0 4.2 4.07 0 0 4.22 4.07 0 0 4.21 4.07 0 0 4.2 4.07 0 0 4.22 4.07 0 0 8.41 4.07 0 0 4.22 4.07 0 0 8.41 4.08 0 0 12.63 4.07 0 0 16.84zm-521.13 -105.24l-16.29 0 0 4.21 -8.14 0 0 4.21 -8.14 0 0 4.21 -8.14 0 0 4.21 -4.08 0 0 4.21 -4.07 0 0 4.21 -8.14 0 0 4.21 -4.07 0 0 4.21 -4.07 0 0 8.42 -4.08 0 0 4.21 -4.07 0 0 8.42 -4.07 0 0 8.41 -4.07 0 0 8.43 -4.07 0 0 12.63 -4.07 0 0 21.04 -4.07 0 0 4.22 -8.14 0 0 4.2 -4.08 0 0 4.21 -4.07 0 0 4.22 -4.07 0 0 8.41 -4.07 0 0 4.22 -4.07 0 0 8.41 -4.07 0 0 8.42 -4.08 0 0 12.63 -4.07 0 0 21.05 -4.07 0 0 311.53 -109.92 0 0 -1422.94 109.92 0 0 244.17 4.07 0 0 21.06 4.07 0 0 12.63 4.08 0 0 8.41 4.07 0 0 8.42 4.07 0 0 4.21 4.07 0 0 8.42 4.07 0 0 4.21 4.07 0 0 4.21 4.08 0 0 4.21 8.14 0 0 4.21 4.07 0 0 16.84 4.07 0 0 16.84 4.07 0 0 8.42 4.07 0 0 8.42 4.07 0 0 8.42 4.07 0 0 4.21 4.08 0 0 4.21 4.07 0 0 4.21 4.07 0 0 4.21 4.07 0 0 4.21 4.07 0 0 4.21 4.07 0 0 4.21 8.14 0 0 4.21 8.15 0 0 4.21 8.14 0 0 4.21 12.21 0 0 4.21 16.29 0 0 4.21 411.2 0 0 -4.21 24.43 0 0 -4.21 12.22 0 0 -4.21 8.14 0 0 -4.21 8.14 0 0 -4.21 8.14 0 0 -4.21 8.15 0 0 -4.21 4.07 0 0 -4.21 4.07 0 0 -4.21 4.07 0 0 -4.21 4.07 0 0 -4.21 4.07 0 0 -4.21 4.07 0 0 -4.21 4.08 0 0 -8.42 4.07 0 0 -4.21 4.07 0 0 -8.42 4.07 0 0 -8.42 4.07 0 0 -25.26 4.07 0 0 -8.42 4.07 0 0 -37.88 4.08 0 0 -12.63 4.07 0 0 -12.63 4.07 0 0 -391.52 635.13 0 0 387.31 4.07 0 0 16.84 4.07 0 0 12.63 4.07 0 0 37.88 4.07 0 0 16.84 4.07 0 0 12.63 4.07 0 0 8.42 4.08 0 0 8.42 4.07 0 0 8.42 4.07 0 0 8.42 4.07 0 0 4.21 4.07 0 0 4.21 4.07 0 0 4.21 4.08 0 0 4.21 4.06 0 0 4.21 4.08 0 0 4.21 4.07 0 0 4.21 8.14 0 0 4.21 8.14 0 0 4.21 8.15 0 0 4.21 8.14 0 0 4.21 16.29 0 0 4.21 28.49 0 0 4.21 399 0 0 -4.21 20.35 0 0 -4.21 12.22 0 0 -4.21 12.21 0 0 -4.21 8.14 0 0 -4.21 4.07 0 0 -4.21 8.14 0 0 -4.21 4.08 0 0 -4.21 4.07 0 0 -4.21 4.07 0 0 -4.21 4.07 0 0 -8.42 4.07 0 0 -4.21 4.07 0 0 -8.42 4.08 0 0 -8.42 4.07 0 0 -8.42 4.07 0 0 -25.26 4.07 0 0 -4.21 4.07 0 0 -4.21 4.07 0 0 -4.21 4.07 0 0 -4.21 4.08 0 0 -4.21 4.06 0 0 -8.42 4.08 0 0 -4.21 4.07 0 0 -8.42 4.07 0 0 -8.41 4.07 0 0 -8.43 4.07 0 0 -29.46 4.07 0 0 -239.97 109.93 0 0 1422.94 -109.93 0 0 -311.53 -4.07 0 0 -25.26 -4.07 0 0 -12.63 -4.07 0 0 -8.42 -4.07 0 0 -8.42 -4.07 0 0 -4.21 -4.08 0 0 -4.2 -4.06 0 0 -4.22 -4.08 0 0 -4.21 -4.07 0 0 -4.2 -4.07 0 0 -4.22 -4.07 0 0 -4.21 -4.07 0 0 -21.04 -4.07 0 0 -12.63 -4.07 0 0 -8.42 -4.08 0 0 -8.43 -4.07 0 0 -4.2 -4.07 0 0 -8.43 -4.07 0 0 -4.2 -4.07 0 0 -4.21 -4.07 0 0 -4.21 -4.08 0 0 -4.21 -4.06 0 0 -4.21 -8.15 0 0 -4.21 -4.07 0 0 -4.21 -8.14 0 0 -4.21 -8.14 0 0 -4.21 -24.43 0 0 -4.21 -427.49 0 0 4.21 -20.36 0 0 4.21 -8.14 0 0 4.21 -12.22 0 0 4.21 -8.14 0 0 4.21 -4.07 0 0 4.21 -8.14 0 0 4.21 -4.08 0 0 4.21 -4.06 0 0 4.21 -4.08 0 0 4.2 -4.07 0 0 4.22 -4.07 0 0 8.41 -4.07 0 0 4.22 -4.07 0 0 8.41 -4.07 0 0 8.43 -4.08 0 0 8.42 -4.07 0 0 16.84 -4.07 0 0 21.04 -4.07 0 0 25.26 -4.07 0 0 16.84 -4.07 0 0 25.26 -4.07 0 0 391.52 -635.13 0 0 -399.94 -4.07 0 0 -16.84 -4.07 0 0 -8.42 -4.08 0 0 -50.52 -4.07 0 0 -12.63 -4.07 0 0 -8.41 -4.07 0 0 -12.63 -4.07 0 0 -8.42 -4.07 0 0 -4.21 -4.07 0 0 -8.42 -4.08 0 0 -4.21 -4.07 0 0 -4.22 -4.07 0 0 -4.2 -4.07 0 0 -4.21 -4.07 0 0 -4.21 -4.07 0 0 -4.21 -4.07 0 0 -4.21 -8.15 0 0 -4.21 -8.14 0 0 -4.21 -8.14 0 0 -4.21 -12.22 0 0 -4.21 -16.28 0 0 -4.21 -435.63 0 0 4.21zm1225.47 -610.44l4.07 0 0 4.21 8.14 0 0 4.21 4.08 0 0 4.21 8.14 0 0 4.21 8.14 0 0 4.21 12.21 0 0 4.21 525.2 0 0 -4.21 16.29 0 0 -4.21 8.14 0 0 12.63 -4.07 0 0 8.42 -4.07 0 0 8.42 -4.07 0 0 8.42 -4.07 0 0 4.21 -4.07 0 0 8.42 -4.08 0 0 4.21 -4.06 0 0 4.21 -4.08 0 0 4.21 -8.14 0 0 4.21 -4.07 0 0 4.21 -8.14 0 0 4.21 -8.15 0 0 4.21 -20.35 0 0 4.21 -431.57 0 0 -4.21 -8.14 0 0 -4.21 -12.21 0 0 -4.21 -8.14 0 0 -4.21 -8.15 0 0 -4.21 -8.14 0 0 -4.21 -4.07 0 0 -4.21 -4.07 0 0 -4.21 -4.07 0 0 -4.21 -4.08 0 0 -4.21 -4.06 0 0 -4.21 -4.08 0 0 -8.42 -4.07 0 0 -4.21 -4.07 0 0 -8.42 -4.07 0 0 -12.63 -4.07 0 0 -21.05 -4.07 0 0 -8.42 4.07 0 0 4.21 4.07 0 0 4.21zm-704.34 21.05l-4.07 0 0 12.63 -4.08 0 0 8.42 -4.07 0 0 8.42 -4.07 0 0 4.21 -4.07 0 0 4.21 -4.07 0 0 4.21 -4.07 0 0 4.21 -4.07 0 0 4.21 -4.07 0 0 4.21 -4.08 0 0 4.21 -8.14 0 0 4.21 -4.07 0 0 4.21 -12.21 0 0 4.21 -8.15 0 0 4.21 -16.28 0 0 4.21 -423.42 0 0 -4.21 -20.36 0 0 -4.21 -8.14 0 0 -4.21 -8.14 0 0 -4.21 -8.15 0 0 -4.21 -4.06 0 0 -4.21 -4.08 0 0 -4.21 -4.07 0 0 -4.21 -4.07 0 0 -4.21 -4.07 0 0 -4.21 -4.07 0 0 -8.42 -4.07 0 0 -4.21 -4.08 0 0 -12.63 -4.07 0 0 -16.84 4.07 0 0 4.21 12.22 0 0 4.21 525.2 0 0 -4.21 12.21 0 0 -4.21 12.22 0 0 -4.21 8.14 0 0 -4.21 8.14 0 0 -4.21 4.07 0 0 -4.21 4.08 0 0 -4.21 8.14 0 0 4.21 -4.07 0 0 21.05zm818.34 -84.19l447.84 0 0 33.67 -4.07 0 0 8.42 -4.07 0 0 8.42 -4.07 0 0 4.21 -4.07 0 0 4.21 -4.07 0 0 8.42 -4.07 0 0 4.21 -4.08 0 0 4.21 -386.77 0 0 -4.21 -4.08 0 0 -4.21 -4.06 0 0 -4.21 -4.08 0 0 -4.21 -4.07 0 0 -8.42 -4.07 0 0 -4.21 -4.07 0 0 -12.63 -4.07 0 0 -8.41 -4.07 0 0 -25.26zm-936.41 25.26l-4.07 0 0 12.63 -4.07 0 0 8.41 -4.08 0 0 8.42 -4.06 0 0 4.21 -4.08 0 0 8.42 -4.07 0 0 4.21 -8.14 0 0 4.21 -382.71 0 0 -4.21 -8.14 0 0 -8.42 -4.07 0 0 -4.21 -4.07 0 0 -4.21 -4.07 0 0 -8.42 -4.08 0 0 -12.63 -4.06 0 0 -8.41 -4.08 0 0 -25.26 451.92 0 0 16.83 -4.07 0 0 8.43zm1457.54 -8.43l-4.08 0 0 8.43 -4.06 0 0 8.41 -4.08 0 0 8.42 -4.07 0 0 4.21 -4.07 0 0 4.21 -4.07 0 0 4.21 -4.07 0 0 4.21 -8.14 0 0 4.21 -8.15 0 0 4.21 -8.14 0 0 4.21 -12.22 0 0 4.21 -16.28 0 0 -4.21 4.07 0 0 -8.42 4.07 0 0 -8.42 4.08 0 0 -8.42 4.06 0 0 -8.41 4.08 0 0 -21.06 4.07 0 0 -16.83 4.07 0 0 -4.21 12.21 0 0 -4.22 16.29 0 0 -4.2 16.29 0 0 -4.21 12.21 0 0 21.04 -4.07 0 0 12.63zm-1327.26 -4.2l-4.07 0 0 12.63 -4.07 0 0 4.2 -4.07 0 0 8.43 -4.07 0 0 4.2 -4.08 0 0 4.21 -4.07 0 0 4.21 -4.07 0 0 4.21 -4.07 0 0 4.21 -4.07 0 0 4.21 -8.14 0 0 4.21 -16.29 0 0 4.21 -16.28 0 0 4.21 -65.15 0 0 -4.21 4.08 0 0 -4.21 4.07 0 0 -4.21 4.07 0 0 -8.42 4.07 0 0 -8.42 4.07 0 0 -8.41 4.07 0 0 -16.85 4.07 0 0 -21.04 4.08 0 0 -4.21 52.92 0 0 -4.22 61.07 0 0 12.63 -4.07 0 0 8.43zm-655.48 -29.47l8.14 0 0 4.21 16.28 0 0 4.2 16.29 0 0 4.22 20.36 0 0 16.84 4.07 0 0 16.83 4.07 0 0 16.84 4.07 0 0 8.42 4.07 0 0 8.42 4.08 0 0 4.21 4.06 0 0 8.42 -12.21 0 0 -4.21 -16.28 0 0 -4.21 -8.15 0 0 -4.21 -8.14 0 0 -4.21 -4.07 0 0 -4.21 -8.14 0 0 -4.21 -4.08 0 0 -4.21 -4.06 0 0 -4.21 -4.08 0 0 -8.42 -4.07 0 0 -8.41 -4.07 0 0 -8.43 -4.07 0 0 -12.63 -4.07 0 0 -21.04zm1327.25 8.41l65.14 0 0 4.22 52.93 0 0 16.84 4.07 0 0 16.83 4.07 0 0 12.63 4.08 0 0 8.42 4.07 0 0 8.42 4.07 0 0 4.21 4.07 0 0 8.42 4.07 0 0 4.21 -69.21 0 0 -4.21 -16.29 0 0 -4.21 -8.14 0 0 -4.21 -8.14 0 0 -4.21 -8.14 0 0 -4.21 -4.08 0 0 -4.21 -4.07 0 0 -4.21 -4.07 0 0 -4.21 -4.07 0 0 -4.2 -4.07 0 0 -4.22 -4.07 0 0 -8.41 -4.08 0 0 -8.43 -4.07 0 0 -21.04 -4.07 0 0 -4.22zm130.29 -879.86l309.42 0 0 4.21 24.43 0 0 4.21 16.28 0 0 4.21 8.14 0 0 4.21 12.22 0 0 4.21 8.14 0 0 4.21 8.14 0 0 4.21 4.07 0 0 4.21 8.14 0 0 4.21 4.08 0 0 4.21 4.07 0 0 4.21 4.07 0 0 4.21 4.07 0 0 4.21 4.07 0 0 4.21 4.07 0 0 4.21 4.08 0 0 4.21 4.07 0 0 8.42 4.07 0 0 4.21 4.07 0 0 8.42 4.07 0 0 12.63 4.07 0 0 8.42 4.07 0 0 25.26 4.08 0 0 736.73 -455.99 0 0 -871.45zm-1384.26 134.72l4.07 0 0 -16.84 4.08 0 0 -16.84 4.06 0 0 -8.42 4.08 0 0 -8.42 4.07 0 0 -8.42 4.07 0 0 -4.21 4.07 0 0 -8.42 4.07 0 0 -4.21 4.07 0 0 -4.21 4.07 0 0 -4.21 4.08 0 0 -4.21 4.07 0 0 -4.21 4.07 0 0 -4.21 8.14 0 0 -4.21 4.07 0 0 -4.21 8.14 0 0 -4.21 8.15 0 0 -4.21 8.14 0 0 -4.21 8.14 0 0 -4.21 12.22 0 0 -4.21 16.28 0 0 -4.21 16.29 0 0 -4.21 313.49 0 0 871.45 -455.99 0 0 -736.73zm1929.81 395.72l48.86 0 0 4.22 8.14 0 0 4.21 8.15 0 0 4.2 8.14 0 0 4.22 4.07 0 0 4.21 4.07 0 0 4.2 4.07 0 0 4.22 4.07 0 0 4.21 4.07 0 0 8.42 4.07 0 0 8.41 4.08 0 0 8.43 4.07 0 0 12.63 4.07 0 0 21.04 -109.93 0 0 -92.62zm-2125.23 67.36l4.07 0 0 -12.63 4.07 0 0 -12.62 4.07 0 0 -4.22 4.07 0 0 -4.2 4.07 0 0 -8.43 4.08 0 0 -4.2 4.07 0 0 -4.21 8.14 0 0 -4.22 4.07 0 0 -4.2 8.15 0 0 -4.21 12.21 0 0 -4.22 44.78 0 0 92.62 -105.85 0 0 -25.26zm2125.23 -151.55l40.72 0 0 4.21 16.28 0 0 4.21 16.29 0 0 4.21 12.21 0 0 4.21 8.14 0 0 4.21 8.15 0 0 4.21 8.14 0 0 4.21 4.07 0 0 4.21 8.14 0 0 4.21 4.08 0 0 4.21 4.06 0 0 4.2 4.08 0 0 4.22 4.07 0 0 4.21 4.07 0 0 4.21 4.07 0 0 4.21 4.07 0 0 8.42 4.07 0 0 4.21 4.07 0 0 8.41 4.08 0 0 8.43 4.07 0 0 4.2 4.07 0 0 12.63 4.07 0 0 8.43 4.07 0 0 16.83 4.07 0 0 16.84 4.07 0 0 16.85 4.07 0 0 1469.24 -4.07 0 0 16.84 -4.07 0 0 21.05 -4.07 0 0 8.42 -4.07 0 0 12.63 -4.07 0 0 8.42 -4.07 0 0 8.42 -4.07 0 0 8.42 -4.08 0 0 4.21 -4.07 0 0 8.42 -4.07 0 0 4.21 -4.07 0 0 4.21 -4.07 0 0 4.21 -4.07 0 0 4.21 -4.07 0 0 4.21 -4.08 0 0 4.21 -4.06 0 0 4.21 -4.08 0 0 4.21 -4.07 0 0 4.21 -4.07 0 0 4.21 -8.14 0 0 4.21 -8.15 0 0 4.21 -8.14 0 0 4.21 -8.14 0 0 4.21 -8.14 0 0 4.21 -16.29 0 0 4.21 -57 0 0 -67.36 44.79 0 0 -4.21 16.28 0 0 -4.21 8.14 0 0 -4.21 8.15 0 0 -4.21 4.07 0 0 -4.21 4.07 0 0 -4.21 8.14 0 0 -8.42 4.07 0 0 -4.21 4.08 0 0 -4.21 4.07 0 0 -8.42 4.07 0 0 -4.21 4.07 0 0 -8.42 4.07 0 0 -16.84 4.07 0 0 -12.63 4.08 0 0 -1473.45 -4.08 0 0 -21.06 -4.07 0 0 -12.63 -4.07 0 0 -8.41 -4.07 0 0 -8.42 -4.07 0 0 -8.43 -4.07 0 0 -4.2 -4.08 0 0 -4.21 -4.07 0 0 -4.22 -4.07 0 0 -4.2 -4.07 0 0 -4.21 -4.07 0 0 -4.22 -8.14 0 0 -4.2 -8.14 0 0 -4.21 -8.15 0 0 -4.21 -12.21 0 0 -4.21 -44.79 0 0 -67.36zm-2051.95 71.57l-16.28 0 0 4.21 -16.29 0 0 4.21 -8.14 0 0 4.2 -4.07 0 0 4.22 -8.15 0 0 4.21 -4.07 0 0 4.2 -4.07 0 0 4.22 -4.07 0 0 4.21 -4.07 0 0 8.42 -4.07 0 0 4.21 -4.07 0 0 8.42 -4.08 0 0 12.62 -4.06 0 0 8.42 -4.08 0 0 1502.93 4.08 0 0 16.84 4.06 0 0 8.42 4.08 0 0 8.42 4.07 0 0 8.42 4.07 0 0 4.21 4.07 0 0 4.21 4.07 0 0 4.21 4.07 0 0 4.21 4.07 0 0 4.21 4.08 0 0 4.21 8.14 0 0 4.21 4.07 0 0 4.21 12.22 0 0 4.21 12.21 0 0 4.21 44.78 0 0 67.36 -52.93 0 0 -4.21 -16.28 0 0 -4.21 -8.14 0 0 -4.21 -12.22 0 0 -4.21 -8.14 0 0 -4.21 -8.14 0 0 -4.21 -4.07 0 0 -4.21 -8.14 0 0 -4.21 -4.08 0 0 -4.21 -4.07 0 0 -4.21 -4.07 0 0 -4.21 -4.07 0 0 -4.21 -4.07 0 0 -4.21 -4.07 0 0 -4.21 -4.08 0 0 -4.21 -4.07 0 0 -8.42 -4.07 0 0 -4.21 -4.07 0 0 -8.42 -4.07 0 0 -4.21 -4.07 0 0 -12.63 -4.07 0 0 -8.42 -4.08 0 0 -12.63 -4.06 0 0 -12.63 -4.08 0 0 -16.84 -4.07 0 0 -1502.93 4.07 0 0 -8.42 4.08 0 0 -16.84 4.06 0 0 -12.63 4.08 0 0 -8.41 4.07 0 0 -8.42 4.07 0 0 -8.43 4.07 0 0 -4.2 4.07 0 0 -8.42 4.07 0 0 -4.21 4.07 0 0 -4.21 4.08 0 0 -8.42 4.07 0 0 -4.21 4.07 0 0 -4.22 4.07 0 0 -4.2 4.07 0 0 -4.21 8.15 0 0 -4.21 4.06 0 0 -4.21 8.15 0 0 -4.21 4.07 0 0 -4.21 8.14 0 0 -4.21 12.22 0 0 -4.21 8.14 0 0 -4.21 20.35 0 0 -4.21 16.29 0 0 -4.21 36.64 0 0 67.36 -32.57 0 0 4.21zm724.7 -84.2l635.13 0 0 50.52 -635.13 0 0 -50.52zm-688.06 -252.6l-4.07 0 0 252.6 -40.71 0 0 4.21 -24.43 0 0 4.21 -16.28 0 0 4.21 -8.15 0 0 4.21 -12.21 0 0 4.21 -4.07 0 0 4.21 -8.15 0 0 4.21 -8.14 0 0 4.21 -4.07 0 0 4.21 -4.07 0 0 4.21 -4.07 0 0 4.21 -4.07 0 0 4.21 -4.07 0 0 4.21 -4.08 0 0 4.2 -4.07 0 0 4.22 -4.07 0 0 4.21 -4.07 0 0 4.21 -4.07 0 0 8.42 -4.07 0 0 4.21 -4.07 0 0 4.21 -4.08 0 0 8.41 -4.06 0 0 8.43 -4.08 0 0 8.42 -4.07 0 0 12.63 -4.07 0 0 8.41 -4.07 0 0 16.84 -4.07 0 0 25.26 -4.07 0 0 1460.83 4.07 0 0 33.68 4.07 0 0 21.05 4.07 0 0 12.63 4.07 0 0 8.42 4.07 0 0 8.42 4.08 0 0 8.42 4.06 0 0 8.42 4.08 0 0 8.42 4.07 0 0 4.21 4.07 0 0 4.21 4.07 0 0 8.42 4.07 0 0 4.21 4.07 0 0 4.21 4.07 0 0 4.21 4.08 0 0 4.21 4.07 0 0 4.21 4.07 0 0 4.21 4.07 0 0 4.21 4.07 0 0 4.21 8.15 0 0 4.21 4.06 0 0 4.21 8.15 0 0 4.21 8.14 0 0 4.21 8.14 0 0 4.21 8.15 0 0 4.21 20.35 0 0 4.21 20.36 0 0 4.21 40.71 0 0 218.91 4.07 0 0 54.73 4.07 0 0 4.21 -20.35 0 0 -4.21 -8.15 0 0 -4.21 -20.35 0 0 -4.21 -12.22 0 0 -4.21 -8.14 0 0 -4.21 -12.21 0 0 -4.21 -8.14 0 0 -4.21 -12.22 0 0 -4.21 -8.14 0 0 -4.21 -8.14 0 0 -4.21 -8.14 0 0 -4.21 -8.15 0 0 -4.21 -8.14 0 0 -4.21 -8.14 0 0 -4.21 -8.15 0 0 -4.21 -8.14 0 0 -4.21 -4.07 0 0 -4.21 -8.14 0 0 -4.21 -4.08 0 0 -4.21 -8.14 0 0 -4.21 -4.07 0 0 -4.21 -8.14 0 0 -4.21 -4.07 0 0 -4.21 -4.07 0 0 -4.21 -8.15 0 0 -4.21 -4.07 0 0 -4.21 -4.07 0 0 -4.21 -4.07 0 0 -4.21 -4.07 0 0 -4.21 -8.15 0 0 -4.21 -4.06 0 0 -4.21 -4.08 0 0 -4.21 -4.07 0 0 -4.21 -4.07 0 0 -4.2 -4.07 0 0 -4.22 -4.07 0 0 -8.41 -4.07 0 0 -4.22 -4.08 0 0 -4.21 -4.07 0 0 -4.2 -4.07 0 0 -8.43 -4.07 0 0 -4.2 -4.07 0 0 -4.22 -4.07 0 0 -4.21 -4.07 0 0 -8.41 -4.08 0 0 -4.22 -4.06 0 0 -8.41 -4.08 0 0 -8.42 -4.07 0 0 -4.21 -4.07 0 0 -8.42 -4.07 0 0 -8.43 -4.07 0 0 -8.41 -4.07 0 0 -8.42 -4.08 0 0 -8.43 -4.07 0 0 -8.41 -4.07 0 0 -12.63 -4.07 0 0 -8.42 -4.07 0 0 -12.63 -4.07 0 0 -12.63 -4.07 0 0 -8.42 -4.08 0 0 -16.84 -4.06 0 0 -16.84 -4.08 0 0 -8.42 -4.07 0 0 -21.05 -4.07 0 0 -21.05 -4.07 0 0 -16.84 -4.07 0 0 -21.05 -4.07 0 0 -33.68 -4.08 0 0 -25.25 -4.07 0 0 -42.11 -4.07 0 0 -33.67 -4.07 0 0 -54.73 -4.07 0 0 -1098.78 4.07 0 0 -79.99 4.07 0 0 -37.89 4.07 0 0 -37.89 4.07 0 0 -33.67 4.08 0 0 -33.69 4.07 0 0 -25.26 4.07 0 0 -12.63 4.07 0 0 -21.04 4.07 0 0 -25.26 4.07 0 0 -16.84 4.08 0 0 -8.42 4.06 0 0 -16.84 4.08 0 0 -16.84 4.07 0 0 -8.42 4.07 0 0 -12.63 4.07 0 0 -12.63 4.07 0 0 -8.42 4.07 0 0 -8.42 4.07 0 0 -12.63 4.08 0 0 -8.42 4.07 0 0 -8.42 4.07 0 0 -8.42 4.07 0 0 -4.21 4.07 0 0 -8.42 4.07 0 0 -8.42 4.08 0 0 -4.21 4.06 0 0 -8.42 4.08 0 0 -4.21 4.07 0 0 -8.42 4.07 0 0 -4.21 4.07 0 0 -4.21 4.07 0 0 -8.42 4.07 0 0 -4.21 4.07 0 0 -4.21 4.08 0 0 -4.21 4.07 0 0 -4.21 4.07 0 0 -4.21 4.07 0 0 -4.2 4.07 0 0 -4.22 4.07 0 0 -4.21 4.08 0 0 -4.2 4.06 0 0 -4.22 4.08 0 0 -4.21 4.07 0 0 -4.2 4.07 0 0 -4.22 4.07 0 0 -4.21 4.07 0 0 -4.2 8.14 0 0 -4.22 4.08 0 0 -4.21 4.07 0 0 -4.2 4.07 0 0 -4.21 8.14 0 0 -4.22 8.15 0 0 -4.2 4.06 0 0 -4.22 8.15 0 0 -4.21 8.14 0 0 -4.2 4.07 0 0 -4.22 8.14 0 0 -4.21 8.15 0 0 -4.2 8.14 0 0 -4.21 8.14 0 0 -4.22 8.14 0 0 -4.2 12.22 0 0 -4.21 8.14 0 0 -4.22 12.22 0 0 -4.2 8.14 0 0 -4.21 12.21 0 0 -4.22 16.29 0 0 -4.2 8.14 0 0 -4.21 16.28 0 0 -4.22 16.29 0 0 -4.2 12.21 0 0 25.26 -4.07 0 0 33.67zm2007.17 -58.93l8.14 0 0 4.2 24.43 0 0 4.22 8.15 0 0 4.21 16.28 0 0 4.2 12.21 0 0 4.22 12.22 0 0 4.21 12.21 0 0 4.2 8.14 0 0 4.22 12.22 0 0 4.21 8.14 0 0 4.2 8.14 0 0 4.22 12.22 0 0 4.21 8.14 0 0 4.2 4.07 0 0 4.21 8.14 0 0 4.22 8.15 0 0 4.2 8.14 0 0 4.21 4.07 0 0 4.22 8.14 0 0 4.2 8.14 0 0 4.22 4.08 0 0 4.21 4.07 0 0 4.2 8.14 0 0 4.21 4.07 0 0 4.22 4.07 0 0 4.2 8.15 0 0 4.21 4.07 0 0 4.22 4.07 0 0 4.2 4.07 0 0 4.21 4.07 0 0 4.22 4.07 0 0 4.2 4.08 0 0 4.21 4.06 0 0 4.22 4.08 0 0 4.2 4.07 0 0 4.21 4.07 0 0 4.21 4.07 0 0 4.21 4.07 0 0 8.42 4.07 0 0 4.21 4.08 0 0 4.21 4.07 0 0 8.42 4.07 0 0 4.21 4.07 0 0 8.42 4.07 0 0 4.21 4.07 0 0 8.42 4.07 0 0 4.21 4.08 0 0 8.42 4.06 0 0 8.42 4.08 0 0 4.21 4.07 0 0 8.42 4.07 0 0 12.63 4.07 0 0 8.42 4.07 0 0 8.42 4.07 0 0 8.42 4.08 0 0 12.63 4.07 0 0 12.63 4.07 0 0 8.42 4.07 0 0 16.84 4.07 0 0 16.84 4.07 0 0 12.63 4.07 0 0 16.84 4.08 0 0 16.84 4.06 0 0 16.83 4.08 0 0 25.26 4.07 0 0 25.26 4.07 0 0 25.26 4.07 0 0 25.26 4.07 0 0 54.73 4.07 0 0 29.47 4.08 0 0 58.94 4.07 0 0 117.87 4.07 0 0 943.02 -4.07 0 0 71.57 -4.07 0 0 42.09 -4.08 0 0 50.52 -4.07 0 0 29.47 -4.07 0 0 37.89 -4.07 0 0 25.26 -4.07 0 0 25.26 -4.07 0 0 21.05 -4.08 0 0 21.05 -4.06 0 0 16.84 -4.08 0 0 8.42 -4.07 0 0 21.05 -4.07 0 0 8.42 -4.07 0 0 12.63 -4.07 0 0 12.63 -4.07 0 0 12.63 -4.07 0 0 8.42 -4.08 0 0 12.63 -4.07 0 0 8.42 -4.07 0 0 8.42 -4.07 0 0 8.42 -4.07 0 0 8.42 -4.07 0 0 8.41 -4.08 0 0 8.43 -4.06 0 0 4.2 -4.08 0 0 8.43 -4.07 0 0 4.2 -4.07 0 0 8.43 -4.07 0 0 4.2 -4.07 0 0 8.43 -4.07 0 0 4.2 -4.07 0 0 4.21 -4.08 0 0 8.42 -4.07 0 0 4.21 -4.07 0 0 4.22 -4.07 0 0 4.2 -4.07 0 0 4.21 -4.07 0 0 4.22 -4.08 0 0 4.2 -4.06 0 0 4.21 -4.08 0 0 4.21 -4.07 0 0 4.21 -4.07 0 0 4.21 -4.07 0 0 4.21 -4.07 0 0 4.21 -4.07 0 0 4.21 -8.15 0 0 4.21 -4.07 0 0 4.21 -4.07 0 0 4.21 -4.07 0 0 4.21 -8.14 0 0 4.21 -4.08 0 0 4.21 -8.14 0 0 4.21 -4.07 0 0 4.21 -8.14 0 0 4.21 -4.07 0 0 4.21 -8.15 0 0 4.21 -4.07 0 0 4.21 -8.14 0 0 4.21 -8.14 0 0 4.21 -8.15 0 0 4.21 -8.14 0 0 4.21 -8.14 0 0 4.21 -8.14 0 0 4.21 -12.22 0 0 4.21 -8.14 0 0 4.21 -12.21 0 0 4.21 -12.22 0 0 4.21 -12.21 0 0 4.21 -8.14 0 0 4.21 -20.36 0 0 4.21 -12.21 0 0 4.21 -16.29 0 0 -4.21 4.07 0 0 -54.73 4.07 0 0 -218.91 48.86 0 0 -4.21 12.21 0 0 -4.21 16.29 0 0 -4.21 12.21 0 0 -4.21 12.22 0 0 -4.21 8.14 0 0 -4.21 4.07 0 0 -4.21 8.14 0 0 -4.21 4.08 0 0 -4.21 4.06 0 0 -4.21 8.15 0 0 -4.21 4.07 0 0 -4.21 4.07 0 0 -4.21 4.07 0 0 -8.42 4.07 0 0 -4.21 4.07 0 0 -4.21 4.08 0 0 -4.21 4.07 0 0 -8.42 4.07 0 0 -4.21 4.07 0 0 -8.42 4.07 0 0 -8.42 4.07 0 0 -8.42 4.07 0 0 -12.63 4.07 0 0 -8.42 4.08 0 0 -21.05 4.07 0 0 -16.84 4.07 0 0 -1490.29 -4.07 0 0 -21.06 -4.07 0 0 -16.83 -4.08 0 0 -8.43 -4.07 0 0 -12.63 -4.07 0 0 -8.41 -4.07 0 0 -4.22 -4.07 0 0 -8.41 -4.07 0 0 -8.42 -4.07 0 0 -4.21 -4.07 0 0 -4.21 -4.08 0 0 -8.42 -4.07 0 0 -4.22 -4.07 0 0 -4.2 -4.07 0 0 -4.21 -4.07 0 0 -4.21 -4.07 0 0 -4.21 -4.07 0 0 -4.21 -8.14 0 0 -4.21 -4.08 0 0 -4.21 -8.14 0 0 -4.21 -4.07 0 0 -4.21 -8.14 0 0 -4.21 -8.15 0 0 -4.21 -12.21 0 0 -4.21 -16.28 0 0 -4.21 -12.22 0 0 -4.21 -52.93 0 0 -248.38 -4.07 0 0 -46.32 -4.07 0 0 -16.83zm476.35 1911.29l0 25.25 -4.08 0 0 25.26 -4.07 0 0 21.05 -4.07 0 0 21.05 -4.07 0 0 21.05 -4.07 0 0 21.05 -4.07 0 0 16.84 -4.07 0 0 8.42 -4.08 0 0 21.05 -4.06 0 0 8.42 -4.08 0 0 12.63 -4.07 0 0 12.63 -4.07 0 0 12.63 -4.07 0 0 8.42 -4.07 0 0 12.63 -4.07 0 0 8.42 -4.07 0 0 8.42 -4.08 0 0 8.42 -4.07 0 0 8.41 -4.07 0 0 8.43 -4.07 0 0 8.42 -4.07 0 0 8.41 -4.07 0 0 8.43 -4.08 0 0 4.2 -4.06 0 0 8.43 -4.08 0 0 4.2 -4.07 0 0 8.43 -4.07 0 0 4.2 -4.07 0 0 8.43 -4.07 0 0 8.41 -4.07 0 0 4.22 -4.07 0 0 4.2 -4.08 0 0 4.21 -4.07 0 0 4.21 -4.07 0 0 8.42 -4.07 0 0 4.21 -4.07 0 0 4.21 -4.07 0 0 4.21 -4.08 0 0 4.21 -4.06 0 0 4.21 -4.08 0 0 4.21 -4.07 0 0 4.21 -4.07 0 0 4.21 -4.07 0 0 4.21 -4.07 0 0 4.21 -4.07 0 0 4.21 -4.07 0 0 4.21 -4.08 0 0 4.21 -4.07 0 0 4.21 -4.07 0 0 4.21 -8.14 0 0 4.21 -4.07 0 0 4.21 -4.08 0 0 4.21 -4.06 0 0 4.21 -8.15 0 0 4.21 -4.07 0 0 4.21 -8.14 0 0 4.21 -4.07 0 0 4.21 -4.07 0 0 4.21 -8.15 0 0 4.21 -4.07 0 0 4.21 -8.14 0 0 4.21 -8.15 0 0 4.21 -8.14 0 0 4.21 -4.07 0 0 4.21 -8.14 0 0 4.21 -8.14 0 0 4.21 -8.15 0 0 4.21 -8.14 0 0 4.21 -8.14 0 0 4.21 -8.15 0 0 4.21 -12.21 0 0 4.21 -8.14 0 0 4.21 -12.22 0 0 4.21 -12.21 0 0 4.21 -8.14 0 0 4.21 -12.21 0 0 4.21 -16.29 0 0 4.21 -8.14 0 0 4.21 -20.36 0 0 4.21 -8.14 0 0 4.21 -20.36 0 0 4.21 -12.21 0 0 4.21 -12.22 0 0 -8.42 4.08 0 0 -8.42 4.06 0 0 -8.42 4.08 0 0 -8.42 4.07 0 0 -12.63 4.07 0 0 -12.63 8.14 0 0 -4.21 8.15 0 0 -4.21 16.28 0 0 -4.21 16.28 0 0 -4.21 16.29 0 0 -4.21 8.14 0 0 -4.21 12.22 0 0 -4.21 8.14 0 0 -4.21 12.21 0 0 -4.21 8.15 0 0 -4.21 12.21 0 0 -4.21 8.14 0 0 -4.21 8.14 0 0 -4.21 8.15 0 0 -4.21 8.14 0 0 -4.21 8.14 0 0 -4.21 4.07 0 0 -4.21 8.15 0 0 -4.21 8.14 0 0 -4.21 8.14 0 0 -4.21 4.07 0 0 -4.21 8.15 0 0 -4.21 4.07 0 0 -4.21 4.07 0 0 -4.21 8.14 0 0 -4.21 4.07 0 0 -4.21 4.08 0 0 -4.21 8.14 0 0 -4.21 4.07 0 0 -4.21 4.07 0 0 -4.21 4.07 0 0 -4.21 4.07 0 0 -4.21 4.08 0 0 -4.21 4.06 0 0 -4.21 4.08 0 0 -4.21 4.07 0 0 -4.21 4.07 0 0 -4.21 4.07 0 0 -4.21 4.07 0 0 -4.2 4.07 0 0 -4.22 4.08 0 0 -4.21 4.07 0 0 -4.2 4.07 0 0 -8.43 4.07 0 0 -4.2 4.07 0 0 -4.22 4.07 0 0 -4.21 4.07 0 0 -8.42 4.08 0 0 -4.21 4.06 0 0 -8.41 4.08 0 0 -8.42 4.07 0 0 -4.21 4.07 0 0 -8.42 4.07 0 0 -8.43 4.07 0 0 -8.41 4.07 0 0 -8.42 4.08 0 0 -8.42 4.07 0 0 -8.42 4.07 0 0 -8.42 4.07 0 0 -12.63 4.07 0 0 -8.42 4.07 0 0 -12.63 4.07 0 0 -12.63 4.08 0 0 -12.63 4.06 0 0 -16.84 4.08 0 0 -8.42 4.07 0 0 -16.84 4.07 0 0 -25.26 4.07 0 0 -16.84 4.07 0 0 -21.05 4.07 0 0 -25.26 4.08 0 0 -21.05 4.07 0 0 -46.31 4.07 0 0 -33.67 4.07 0 0 -46.32 4.07 0 0 -42.09 4.07 0 0 -1056.68 -4.07 0 0 -117.88 -4.07 0 0 -33.68 -4.07 0 0 -29.47 -4.07 0 0 -33.68 -4.07 0 0 -25.26 -4.08 0 0 -29.47 -4.07 0 0 -25.26 -4.07 0 0 -16.83 -4.07 0 0 -25.26 -4.07 0 0 -21.05 -4.07 0 0 -8.42 -4.08 0 0 -16.84 -4.06 0 0 -12.63 -4.08 0 0 -16.84 -4.07 0 0 -8.42 -4.07 0 0 -12.63 -4.07 0 0 -12.63 -4.07 0 0 -8.42 -4.07 0 0 -8.42 -4.07 0 0 -8.42 -4.08 0 0 -8.42 -4.07 0 0 -8.42 -4.07 0 0 -8.42 -4.07 0 0 -8.42 -4.07 0 0 -8.42 -4.07 0 0 -4.21 -4.08 0 0 -8.42 -4.06 0 0 -8.42 -4.08 0 0 -4.21 -4.07 0 0 -4.21 -4.07 0 0 -8.42 -4.07 0 0 -4.21 -4.07 0 0 -4.21 -4.07 0 0 -8.42 -4.07 0 0 -4.21 -4.08 0 0 -4.2 -4.07 0 0 -4.22 -4.07 0 0 -4.21 -4.07 0 0 -4.2 -4.07 0 0 -4.22 -4.07 0 0 -4.21 -4.08 0 0 -4.2 -4.06 0 0 -4.22 -4.08 0 0 -4.21 -4.07 0 0 -4.2 -4.07 0 0 -4.22 -8.14 0 0 -4.21 -4.07 0 0 -4.2 -4.07 0 0 -4.21 -4.08 0 0 -4.22 -8.14 0 0 -4.2 -4.07 0 0 -4.22 -8.14 0 0 -4.21 -4.08 0 0 -4.2 -8.14 0 0 -4.22 -4.07 0 0 -4.21 -8.14 0 0 -4.2 -8.14 0 0 -4.21 -8.15 0 0 -4.22 -4.07 0 0 -4.2 -8.14 0 0 -4.21 -12.22 0 0 -4.22 -8.14 0 0 -4.2 -8.14 0 0 -4.21 -12.21 0 0 -4.22 -8.15 0 0 -4.2 -12.21 0 0 -4.21 -12.22 0 0 -4.22 -12.21 0 0 -4.2 -8.14 0 0 -4.21 -20.36 0 0 -4.21 -8.14 0 0 -4.21 -16.28 0 0 -4.21 -16.29 0 0 -4.21 -4.07 0 0 -8.42 -4.07 0 0 -12.63 -4.08 0 0 -8.42 -4.06 0 0 -8.42 -4.08 0 0 -8.42 -4.07 0 0 -8.42 20.36 0 0 4.21 20.36 0 0 4.21 12.21 0 0 4.21 16.29 0 0 4.21 16.28 0 0 4.21 16.29 0 0 4.21 12.21 0 0 4.21 12.21 0 0 4.21 8.14 0 0 4.21 12.22 0 0 4.21 8.14 0 0 4.21 12.21 0 0 4.21 8.15 0 0 4.21 8.14 0 0 4.21 8.14 0 0 4.21 8.15 0 0 4.21 8.14 0 0 4.21 8.14 0 0 4.21 8.14 0 0 4.2 8.15 0 0 4.22 8.14 0 0 4.21 4.07 0 0 4.2 8.14 0 0 4.22 4.08 0 0 4.21 8.14 0 0 4.2 4.07 0 0 4.22 8.14 0 0 4.21 4.07 0 0 4.2 4.08 0 0 4.22 8.14 0 0 4.21 4.07 0 0 4.2 4.07 0 0 4.21 4.07 0 0 4.22 4.07 0 0 4.2 8.15 0 0 4.21 4.07 0 0 4.22 4.07 0 0 4.2 4.07 0 0 4.22 4.07 0 0 4.21 4.07 0 0 4.2 4.07 0 0 4.21 4.08 0 0 4.22 4.06 0 0 4.2 4.08 0 0 4.21 4.07 0 0 8.42 4.07 0 0 4.21 4.07 0 0 4.22 4.07 0 0 4.2 4.07 0 0 8.43 4.08 0 0 4.2 4.07 0 0 4.21 4.07 0 0 8.42 4.07 0 0 4.21 4.07 0 0 8.42 4.07 0 0 4.21 4.07 0 0 8.42 4.08 0 0 4.21 4.06 0 0 8.42 4.08 0 0 8.42 4.07 0 0 8.42 4.07 0 0 4.21 4.07 0 0 8.42 4.07 0 0 12.63 4.07 0 0 8.42 4.08 0 0 8.42 4.07 0 0 8.42 4.07 0 0 8.42 4.07 0 0 12.63 4.07 0 0 8.42 4.07 0 0 16.84 4.07 0 0 12.63 4.08 0 0 8.42 4.06 0 0 21.05 4.08 0 0 8.42 4.07 0 0 16.84 4.07 0 0 25.26 4.07 0 0 16.84 4.07 0 0 25.26 4.07 0 0 25.26 4.07 0 0 25.26 4.08 0 0 42.09 4.07 0 0 33.68 4.07 0 0 42.1 4.07 0 0 75.78 4.07 0 0 92.62 4.07 0 0 896.7 -4.07 0 0 50.52 -4.07 0 0 101.03 -4.07 0 0 42.1 -4.07 0 0 42.11 -4.07 0zm-2459.09 580.96l4.07 0 0 8.42 -8.14 0 0 -4.21 -12.21 0 0 -4.21 -16.29 0 0 -4.21 -16.29 0 0 -4.21 -12.21 0 0 -4.21 -20.36 0 0 -4.21 -8.14 0 0 -4.21 -12.21 0 0 -4.21 -12.22 0 0 -4.21 -12.21 0 0 -4.21 -8.14 0 0 -4.21 -12.21 0 0 -4.21 -8.15 0 0 -4.21 -8.14 0 0 -4.21 -8.14 0 0 -4.21 -8.15 0 0 -4.21 -8.14 0 0 -4.21 -8.14 0 0 -4.21 -8.15 0 0 -4.21 -8.14 0 0 -4.21 -4.07 0 0 -4.21 -8.14 0 0 -4.21 -8.14 0 0 -4.21 -4.08 0 0 -4.21 -8.14 0 0 -4.21 -4.07 0 0 -4.21 -8.14 0 0 -4.21 -4.07 0 0 -4.21 -4.08 0 0 -4.21 -8.14 0 0 -4.21 -4.07 0 0 -4.21 -4.07 0 0 -4.21 -8.14 0 0 -4.21 -4.07 0 0 -4.21 -4.08 0 0 -4.21 -4.07 0 0 -4.21 -4.07 0 0 -4.21 -4.07 0 0 -4.21 -4.07 0 0 -4.21 -8.14 0 0 -4.21 -4.08 0 0 -4.21 -4.06 0 0 -4.21 -4.08 0 0 -4.21 -4.07 0 0 -4.21 -4.07 0 0 -8.42 -4.07 0 0 -4.21 -4.07 0 0 -4.21 -4.07 0 0 -4.21 -4.08 0 0 -4.21 -4.07 0 0 -4.21 -4.07 0 0 -8.41 -4.07 0 0 -4.22 -4.07 0 0 -4.21 -4.07 0 0 -8.42 -4.07 0 0 -4.21 -4.08 0 0 -8.42 -4.06 0 0 -4.21 -4.08 0 0 -8.42 -4.07 0 0 -4.21 -4.07 0 0 -8.41 -4.07 0 0 -8.42 -4.07 0 0 -8.43 -4.07 0 0 -4.2 -4.08 0 0 -12.63 -4.07 0 0 -8.43 -4.07 0 0 -8.41 -4.07 0 0 -8.42 -4.07 0 0 -8.43 -4.07 0 0 -12.62 -4.07 0 0 -8.42 -4.08 0 0 -12.63 -4.06 0 0 -12.63 -4.08 0 0 -8.42 -4.07 0 0 -16.84 -4.07 0 0 -16.84 -4.07 0 0 -16.84 -4.07 0 0 -8.42 -4.07 0 0 -21.05 -4.08 0 0 -21.05 -4.07 0 0 -29.47 -4.07 0 0 -16.84 -4.07 0 0 -29.47 -4.07 0 0 -33.68 -4.07 0 0 -50.52 -4.07 0 0 -37.89 -4.08 0 0 -92.61 -4.06 0 0 -96.83 -4.08 0 0 -825.14 4.08 0 0 -67.36 4.06 0 0 -88.4 4.08 0 0 -58.94 4.07 0 0 -46.31 4.07 0 0 -25.26 4.07 0 0 -25.26 4.07 0 0 -25.25 4.07 0 0 -33.68 4.07 0 0 -16.84 4.08 0 0 -16.84 4.07 0 0 -12.64 4.07 0 0 -25.25 4.07 0 0 -8.42 4.07 0 0 -16.84 4.07 0 0 -12.63 4.08 0 0 -8.42 4.06 0 0 -12.63 4.08 0 0 -12.63 4.07 0 0 -8.42 4.07 0 0 -12.63 4.07 0 0 -8.42 4.07 0 0 -8.42 4.07 0 0 -8.42 4.07 0 0 -8.42 4.08 0 0 -8.42 4.07 0 0 -8.42 4.07 0 0 -8.42 4.07 0 0 -4.21 4.07 0 0 -8.42 4.07 0 0 -4.21 4.08 0 0 -8.42 4.06 0 0 -4.21 4.08 0 0 -8.42 4.07 0 0 -4.21 4.07 0 0 -4.21 4.07 0 0 -8.41 4.07 0 0 -4.22 4.07 0 0 -4.21 4.07 0 0 -8.42 4.08 0 0 -4.21 4.07 0 0 -4.2 4.07 0 0 -4.22 4.07 0 0 -4.21 4.07 0 0 -4.2 4.07 0 0 -4.22 4.08 0 0 -4.21 4.06 0 0 -4.2 4.08 0 0 -8.43 8.14 0 0 -4.2 4.07 0 0 -4.22 4.07 0 0 -4.21 4.07 0 0 -4.2 4.07 0 0 -4.22 8.15 0 0 -4.21 4.07 0 0 -4.2 4.07 0 0 -4.21 4.07 0 0 -4.22 8.15 0 0 -4.2 4.06 0 0 -4.21 4.08 0 0 -4.22 8.14 0 0 -4.2 4.07 0 0 -4.21 8.14 0 0 -4.22 4.07 0 0 -4.2 8.15 0 0 -4.21 8.14 0 0 -4.22 4.07 0 0 -4.2 8.15 0 0 -4.21 8.14 0 0 -4.21 8.14 0 0 -4.21 8.14 0 0 -4.21 8.14 0 0 -4.21 8.15 0 0 -4.21 12.21 0 0 -4.21 8.15 0 0 -4.21 12.21 0 0 -4.21 8.14 0 0 -4.21 8.14 0 0 -4.21 12.22 0 0 -4.21 12.21 0 0 -4.21 20.36 0 0 -4.21 16.28 0 0 -4.21 16.29 0 0 -4.21 16.28 0 0 -4.21 16.29 0 0 -4.21 16.29 0 0 8.42 -4.08 0 0 12.63 -4.07 0 0 8.42 -4.07 0 0 8.42 -4.07 0 0 8.42 -4.07 0 0 12.63 -16.29 0 0 4.21 -16.28 0 0 4.21 -16.29 0 0 4.21 -8.14 0 0 4.21 -20.36 0 0 4.2 -12.21 0 0 4.22 -8.14 0 0 4.21 -12.22 0 0 4.2 -8.14 0 0 4.22 -8.14 0 0 4.21 -12.22 0 0 4.2 -8.14 0 0 4.22 -8.14 0 0 4.21 -8.15 0 0 4.2 -8.14 0 0 4.22 -8.14 0 0 4.21 -8.14 0 0 4.2 -4.08 0 0 4.21 -8.14 0 0 4.22 -4.07 0 0 4.2 -8.14 0 0 4.21 -4.07 0 0 4.22 -8.15 0 0 4.2 -4.07 0 0 4.22 -4.07 0 0 4.21 -8.14 0 0 4.2 -4.07 0 0 4.21 -4.07 0 0 4.22 -4.08 0 0 4.2 -4.06 0 0 4.21 -4.08 0 0 4.22 -4.07 0 0 4.2 -4.07 0 0 4.21 -4.07 0 0 4.22 -4.07 0 0 4.2 -4.07 0 0 4.21 -4.08 0 0 4.22 -4.07 0 0 4.2 -4.07 0 0 4.21 -4.07 0 0 4.21 -4.07 0 0 4.21 -4.07 0 0 8.42 -4.07 0 0 4.21 -4.08 0 0 4.21 -4.06 0 0 8.42 -4.08 0 0 4.21 -4.07 0 0 8.42 -4.07 0 0 4.21 -4.07 0 0 8.42 -4.07 0 0 8.42 -4.07 0 0 8.42 -4.08 0 0 8.42 -4.07 0 0 8.42 -4.07 0 0 8.42 -4.07 0 0 4.21 -4.07 0 0 12.63 -4.07 0 0 8.42 -4.07 0 0 12.63 -4.08 0 0 8.42 -4.06 0 0 12.63 -4.08 0 0 12.63 -4.07 0 0 16.84 -4.07 0 0 8.42 -4.07 0 0 16.84 -4.07 0 0 25.26 -4.07 0 0 16.84 -4.08 0 0 21.05 -4.07 0 0 21.04 -4.07 0 0 25.26 -4.07 0 0 33.68 -4.07 0 0 42.1 -4.07 0 0 29.47 -4.07 0 0 63.15 -4.08 0 0 75.78 -4.06 0 0 1048.26 4.06 0 0 33.68 4.08 0 0 58.93 4.07 0 0 42.11 4.07 0 0 25.25 4.07 0 0 33.68 4.07 0 0 25.26 4.07 0 0 25.26 4.07 0 0 16.84 4.08 0 0 16.84 4.07 0 0 16.84 4.07 0 0 16.84 4.07 0 0 12.63 4.07 0 0 12.63 4.07 0 0 12.63 4.08 0 0 8.42 4.06 0 0 12.63 4.08 0 0 12.63 4.07 0 0 8.41 4.07 0 0 8.43 4.07 0 0 8.42 4.07 0 0 8.41 4.07 0 0 8.43 4.07 0 0 8.42 4.08 0 0 8.41 4.07 0 0 4.22 4.07 0 0 8.41 4.07 0 0 8.43 4.07 0 0 4.2 4.07 0 0 4.21 4.08 0 0 8.42 4.06 0 0 4.21 4.08 0 0 8.42 4.07 0 0 4.21 4.07 0 0 4.22 4.07 0 0 4.2 4.07 0 0 4.21 4.07 0 0 4.22 4.07 0 0 8.41 4.08 0 0 4.21 4.07 0 0 4.21 4.07 0 0 4.21 4.07 0 0 4.21 4.07 0 0 4.21 8.15 0 0 4.21 4.06 0 0 4.21 4.08 0 0 4.21 4.07 0 0 4.21 4.07 0 0 4.21 4.07 0 0 4.21 8.14 0 0 4.21 4.07 0 0 4.21 4.08 0 0 4.21 8.14 0 0 4.21 4.07 0 0 4.21 8.14 0 0 4.21 4.08 0 0 4.21 8.14 0 0 4.21 8.14 0 0 4.21 4.07 0 0 4.21 8.14 0 0 4.21 8.15 0 0 4.21 8.14 0 0 4.21 8.14 0 0 4.21 8.15 0 0 4.21 8.14 0 0 4.21 8.14 0 0 4.21 8.14 0 0 4.21 12.22 0 0 4.21 8.14 0 0 4.21 12.21 0 0 4.21 12.22 0 0 4.21 12.21 0 0 4.21 16.28 0 0 4.21 16.29 0 0 4.21 8.14 0 0 4.21 8.15 0 0 8.42 4.07 0 0 12.63 4.07 0 0 8.42 4.07 0 0 12.63 4.07 0 0 8.42zm659.56 -2593.29l24.42 0 0 -4.21 73.29 0 0 -4.21 61.07 0 0 -4.21 276.85 0 0 4.21 142.5 0 0 4.21 36.64 0 0 4.21 28.5 0 0 33.68 -4.07 0 0 366.26 -635.13 0 0 -370.47 -4.07 0 0 -29.47zm785.77 -67.36l4.07 0 0 -8.42 4.07 0 0 -8.42 301.28 0 0 4.21 32.57 0 0 4.21 16.28 0 0 4.21 8.15 0 0 4.21 16.28 0 0 4.21 8.14 0 0 4.21 8.14 0 0 4.21 8.15 0 0 4.21 8.14 0 0 4.21 8.14 0 0 4.21 4.08 0 0 4.21 8.14 0 0 4.21 4.07 0 0 4.21 4.07 0 0 4.21 4.07 0 0 4.21 4.07 0 0 4.21 8.14 0 0 4.21 4.08 0 0 4.21 4.07 0 0 8.42 4.07 0 0 4.21 4.07 0 0 4.21 4.07 0 0 4.21 4.07 0 0 8.42 4.08 0 0 4.21 4.07 0 0 8.42 4.07 0 0 8.42 4.07 0 0 8.42 4.07 0 0 8.42 4.07 0 0 8.42 4.07 0 0 16.84 4.08 0 0 8.42 4.06 0 0 21.05 4.08 0 0 25.26 4.07 0 0 694.62 -8.15 0 0 4.22 -8.14 0 0 4.21 -16.28 0 0 4.2 -16.29 0 0 4.22 -8.14 0 0 -715.68 -4.07 0 0 -33.68 -4.07 0 0 -16.84 -4.08 0 0 -12.63 -4.06 0 0 -8.42 -4.08 0 0 -8.42 -4.07 0 0 -8.42 -4.07 0 0 -4.21 -4.07 0 0 -8.42 -4.07 0 0 -4.21 -4.07 0 0 -4.21 -4.07 0 0 -4.21 -4.08 0 0 -4.21 -4.07 0 0 -4.21 -4.07 0 0 -4.21 -4.07 0 0 -4.21 -8.14 0 0 -4.21 -4.08 0 0 -4.21 -8.14 0 0 -4.21 -8.14 0 0 -4.21 -8.14 0 0 -4.21 -12.22 0 0 -4.21 -8.14 0 0 -4.21 -24.43 0 0 -4.21 -20.35 0 0 -4.21 -309.42 0 0 -33.68zm-1237.69 37.89l-24.43 0 0 4.21 -12.21 0 0 4.21 -20.36 0 0 4.21 -8.14 0 0 4.21 -8.15 0 0 4.21 -8.14 0 0 4.21 -4.07 0 0 4.21 -8.14 0 0 4.21 -4.07 0 0 4.21 -8.15 0 0 4.21 -4.07 0 0 4.21 -4.07 0 0 4.21 -4.07 0 0 4.21 -4.07 0 0 4.21 -4.07 0 0 4.21 -4.07 0 0 8.42 -4.08 0 0 4.21 -4.06 0 0 8.42 -4.08 0 0 8.42 -4.07 0 0 12.63 -4.07 0 0 8.42 -4.07 0 0 16.84 -4.07 0 0 749.36 -16.29 0 0 -4.22 -16.28 0 0 -4.2 -12.22 0 0 -4.21 -8.14 0 0 -4.22 -8.14 0 0 -698.83 4.07 0 0 -21.05 4.07 0 0 -16.84 4.07 0 0 -16.84 4.07 0 0 -8.42 4.08 0 0 -12.63 4.06 0 0 -8.42 4.08 0 0 -8.42 4.07 0 0 -4.21 4.07 0 0 -8.42 4.07 0 0 -4.21 4.07 0 0 -8.42 4.07 0 0 -4.21 4.07 0 0 -8.42 4.08 0 0 -4.21 4.07 0 0 -4.21 4.07 0 0 -4.21 4.07 0 0 -4.21 4.07 0 0 -4.21 4.07 0 0 -4.21 4.08 0 0 -4.21 4.06 0 0 -4.21 4.08 0 0 -4.21 8.14 0 0 -4.21 4.07 0 0 -4.21 8.14 0 0 -4.21 4.07 0 0 -4.21 8.15 0 0 -4.21 8.14 0 0 -4.21 8.14 0 0 -4.21 12.22 0 0 -4.21 8.14 0 0 -4.21 12.21 0 0 -4.21 28.5 0 0 -4.21 24.43 0 0 -4.21 297.21 0 0 4.21 4.07 0 0 8.42 4.07 0 0 37.89 -309.42 0 0 4.21zm419.35 -33.68l16.28 0 0 -4.21 40.71 0 0 -4.21 48.86 0 0 -4.21 73.28 0 0 -4.21 285 0 0 4.21 109.92 0 0 4.21 89.58 0 0 4.21 48.85 0 0 8.42 -4.07 0 0 4.21 -4.07 0 0 4.21 -4.07 0 0 4.21 -4.08 0 0 8.42 -4.07 0 0 8.42 -4.07 0 0 8.42 -4.07 0 0 4.21 -40.71 0 0 -4.21 -81.43 0 0 -4.21 -415.27 0 0 4.21 -65.15 0 0 4.21 -57 0 0 -8.42 -4.07 0 0 -8.42 -4.07 0 0 -8.42 -4.07 0 0 -8.42 -4.07 0 0 -4.21 -4.07 0 0 -4.21 -4.07 0 0 -4.21zm806.12 913.55l-40.71 0 0 -4.22 -32.57 0 0 -4.2 -44.79 0 0 -820.93 4.07 0 0 -25.26 4.07 0 0 -8.42 4.08 0 0 -12.63 4.07 0 0 -8.42 4.07 0 0 -4.21 4.07 0 0 -4.21 4.07 0 0 -4.21 4.07 0 0 -4.21 4.08 0 0 -4.21 4.06 0 0 -4.21 4.08 0 0 -4.21 4.07 0 0 -4.21 8.14 0 0 -4.21 12.21 0 0 -4.21 12.22 0 0 -4.21 40.71 0 0 4.21 -4.07 0 0 926.18zm-891.62 -930.39l24.43 0 0 4.21 16.28 0 0 4.21 8.14 0 0 4.21 8.15 0 0 4.21 8.14 0 0 4.21 4.07 0 0 4.21 4.07 0 0 4.21 4.07 0 0 4.21 4.07 0 0 8.42 4.08 0 0 4.21 4.07 0 0 8.42 4.07 0 0 4.21 4.07 0 0 16.84 4.07 0 0 16.84 4.07 0 0 829.35 -36.64 0 0 4.2 -44.78 0 0 4.22 -32.57 0 0 -905.13 -4.08 0 0 -21.05 -4.07 0 0 -8.42 16.29 0 0 4.21zm-317.57 -16.84l-24.42 0 0 4.21 -32.57 0 0 4.21 -16.29 0 0 4.21 -16.29 0 0 4.21 -8.14 0 0 4.21 -8.14 0 0 4.21 -8.14 0 0 4.21 -8.15 0 0 4.21 -8.14 0 0 4.21 -4.07 0 0 4.21 -8.14 0 0 4.21 -4.07 0 0 4.21 -4.08 0 0 4.21 -8.14 0 0 4.21 -4.07 0 0 4.21 -4.07 0 0 4.21 -4.07 0 0 4.21 -4.07 0 0 4.21 -4.07 0 0 4.21 -4.08 0 0 4.21 -4.07 0 0 4.21 -4.07 0 0 4.21 -4.07 0 0 4.21 -4.07 0 0 4.21 -4.07 0 0 4.21 -24.43 0 0 4.21 -16.29 0 0 4.21 -20.35 0 0 4.21 -20.36 0 0 4.21 -8.14 0 0 4.21 -16.28 0 0 4.21 -12.22 0 0 4.21 -12.21 0 0 4.21 -16.29 0 0 4.21 -8.14 0 0 4.21 -12.21 0 0 4.21 -8.15 0 0 4.21 -12.21 0 0 4.21 -8.15 0 0 4.21 -8.14 0 0 4.21 -8.14 0 0 4.21 -8.14 0 0 4.21 -8.14 0 0 4.21 -8.15 0 0 4.21 -8.14 0 0 4.21 -4.07 0 0 4.21 -8.15 0 0 4.21 -8.14 0 0 4.2 -4.07 0 0 4.22 -8.14 0 0 4.21 -4.07 0 0 4.2 -8.14 0 0 4.22 -4.08 0 0 4.21 -8.14 0 0 4.2 -4.07 0 0 4.22 -4.07 0 0 4.21 -4.07 0 0 4.2 -8.15 0 0 4.22 -4.07 0 0 4.21 -4.07 0 0 4.2 -4.07 0 0 4.21 -4.07 0 0 4.22 -8.15 0 0 4.2 -4.06 0 0 4.21 -4.08 0 0 4.22 -4.07 0 0 4.2 -4.07 0 0 4.22 -4.07 0 0 4.21 -4.07 0 0 8.41 -4.07 0 0 4.22 -4.08 0 0 4.2 -4.07 0 0 4.21 -4.07 0 0 4.22 -4.07 0 0 4.2 -4.07 0 0 4.21 -4.07 0 0 8.42 -4.07 0 0 4.21 -4.08 0 0 8.42 -4.06 0 0 4.21 -4.08 0 0 4.21 -4.07 0 0 8.42 -4.07 0 0 8.42 -4.07 0 0 4.21 -4.07 0 0 8.42 -4.07 0 0 8.42 -4.08 0 0 4.21 -4.07 0 0 8.42 -4.07 0 0 8.42 -4.07 0 0 8.42 -4.07 0 0 8.42 -4.07 0 0 8.42 -4.07 0 0 8.42 -4.08 0 0 8.42 -4.06 0 0 12.63 -4.08 0 0 8.42 -4.07 0 0 12.63 -4.07 0 0 12.63 -4.07 0 0 12.63 -4.07 0 0 16.84 -4.07 0 0 8.42 -4.08 0 0 21.05 -4.07 0 0 16.84 -4.07 0 0 8.42 -4.07 0 0 29.47 -4.07 0 0 21.04 -4.07 0 0 12.63 -4.07 0 0 33.69 -4.08 0 0 25.25 -4.06 0 0 25.26 -4.08 0 0 67.36 -4.07 0 0 58.94 -4.07 0 0 109.46 -4.07 0 0 829.34 4.07 0 0 193.66 4.07 0 0 50.51 4.07 0 0 33.69 4.08 0 0 33.67 4.06 0 0 42.1 4.08 0 0 16.84 4.07 0 0 25.26 4.07 0 0 21.05 4.07 0 0 21.05 4.07 0 0 16.84 4.07 0 0 16.84 4.07 0 0 16.84 4.08 0 0 12.63 4.07 0 0 12.63 4.07 0 0 12.63 4.07 0 0 12.63 4.07 0 0 12.63 4.07 0 0 8.41 4.08 0 0 12.64 4.06 0 0 8.42 4.08 0 0 8.42 4.07 0 0 8.41 4.07 0 0 8.43 4.07 0 0 8.42 4.07 0 0 4.21 4.07 0 0 8.42 4.07 0 0 8.41 4.08 0 0 8.43 4.07 0 0 4.2 4.07 0 0 8.43 4.07 0 0 8.41 4.07 0 0 4.22 4.07 0 0 8.41 4.08 0 0 4.22 4.06 0 0 4.2 4.08 0 0 8.42 4.07 0 0 4.21 4.07 0 0 4.21 4.07 0 0 4.21 4.07 0 0 4.21 4.07 0 0 4.21 4.07 0 0 8.42 4.08 0 0 4.21 4.07 0 0 4.21 4.07 0 0 4.21 4.07 0 0 4.21 4.07 0 0 4.21 4.07 0 0 4.21 4.08 0 0 4.21 4.06 0 0 4.21 4.08 0 0 4.21 4.07 0 0 4.21 8.14 0 0 4.21 4.07 0 0 4.21 4.07 0 0 4.21 4.07 0 0 4.21 8.15 0 0 4.21 4.07 0 0 4.21 4.07 0 0 4.21 4.07 0 0 4.21 8.15 0 0 4.21 4.06 0 0 4.21 8.15 0 0 4.21 4.07 0 0 4.21 8.14 0 0 4.21 4.07 0 0 4.21 8.15 0 0 4.21 8.14 0 0 4.21 4.07 0 0 4.21 8.14 0 0 4.21 8.14 0 0 4.21 8.15 0 0 4.21 8.14 0 0 4.21 8.14 0 0 4.21 8.15 0 0 4.21 8.14 0 0 4.21 12.21 0 0 4.21 8.14 0 0 4.21 8.15 0 0 4.21 12.21 0 0 4.21 8.14 0 0 4.21 12.22 0 0 4.21 16.29 0 0 4.21 8.14 0 0 4.21 12.21 0 0 4.21 20.36 0 0 4.21 16.28 0 0 4.21 16.29 0 0 4.21 16.28 0 0 4.21 12.22 0 0 4.21 4.07 0 0 8.42 4.07 0 0 4.21 4.07 0 0 4.21 4.07 0 0 8.41 4.07 0 0 4.22 4.07 0 0 4.21 4.08 0 0 4.2 4.07 0 0 4.22 4.07 0 0 4.21 4.07 0 0 4.2 8.14 0 0 4.22 4.08 0 0 4.21 4.06 0 0 4.2 4.08 0 0 4.22 8.14 0 0 4.21 4.07 0 0 4.2 8.14 0 0 4.21 8.15 0 0 4.22 8.14 0 0 4.2 8.14 0 0 4.21 8.15 0 0 4.22 12.21 0 0 4.2 16.28 0 0 4.21 12.22 0 0 4.22 20.36 0 0 4.2 32.56 0 0 4.21 297.21 0 0 -4.21 32.57 0 0 -4.2 16.29 0 0 -4.22 12.21 0 0 -4.21 12.22 0 0 -4.2 8.14 0 0 -4.22 28.5 0 0 4.22 52.92 0 0 4.2 44.79 0 0 4.21 130.28 0 0 4.22 280.92 0 0 -4.22 73.29 0 0 -4.21 65.14 0 0 -4.2 48.86 0 0 -4.22 32.57 0 0 4.22 8.14 0 0 4.2 12.21 0 0 4.21 16.29 0 0 4.22 20.35 0 0 4.2 28.51 0 0 4.21 289.06 0 0 -4.21 32.57 0 0 -4.2 24.43 0 0 -4.22 16.28 0 0 -4.21 12.22 0 0 -4.2 12.21 0 0 -4.22 8.15 0 0 -4.21 12.21 0 0 -4.2 4.07 0 0 -4.22 8.14 0 0 -4.21 8.15 0 0 -4.2 8.14 0 0 -4.21 4.07 0 0 -4.22 4.07 0 0 -4.2 8.14 0 0 -4.21 4.08 0 0 -4.22 4.06 0 0 -4.2 4.08 0 0 -4.21 4.07 0 0 -4.22 4.07 0 0 -4.2 4.07 0 0 -4.21 4.07 0 0 -4.22 4.07 0 0 -4.2 4.08 0 0 -4.21 4.07 0 0 -8.42 4.07 0 0 -4.21 4.07 0 0 -8.42 12.21 0 0 -4.21 20.36 0 0 -4.21 16.29 0 0 -4.21 16.28 0 0 -4.21 16.28 0 0 -4.21 16.29 0 0 -4.21 12.22 0 0 -4.21 8.14 0 0 -4.21 12.21 0 0 -4.21 12.21 0 0 -4.21 12.22 0 0 -4.21 8.14 0 0 -4.21 8.15 0 0 -4.21 8.14 0 0 -4.21 12.21 0 0 -4.21 8.14 0 0 -4.21 8.15 0 0 -4.21 8.14 0 0 -4.21 8.14 0 0 -4.21 8.14 0 0 -4.21 4.07 0 0 -4.21 8.15 0 0 -4.21 8.14 0 0 -4.21 8.14 0 0 -4.21 4.08 0 0 -4.21 8.14 0 0 -4.21 4.07 0 0 -4.21 8.14 0 0 -4.21 4.07 0 0 -4.21 8.14 0 0 -4.21 4.08 0 0 -4.21 4.07 0 0 -4.21 4.07 0 0 -4.21 4.07 0 0 -4.21 8.14 0 0 -4.21 4.08 0 0 -4.21 4.07 0 0 -4.21 4.07 0 0 -4.21 4.07 0 0 -4.21 4.07 0 0 -4.21 8.14 0 0 -4.21 4.08 0 0 -4.21 4.06 0 0 -4.21 4.08 0 0 -4.21 4.07 0 0 -8.42 4.07 0 0 -4.21 4.07 0 0 -4.21 4.07 0 0 -4.21 4.07 0 0 -4.21 4.08 0 0 -8.42 4.07 0 0 -4.21 4.07 0 0 -4.21 4.07 0 0 -4.21 4.07 0 0 -8.41 4.07 0 0 -4.22 4.07 0 0 -4.21 4.08 0 0 -8.42 4.06 0 0 -4.21 4.08 0 0 -8.42 4.07 0 0 -8.41 4.07 0 0 -4.22 4.07 0 0 -8.41 4.07 0 0 -4.21 4.07 0 0 -8.42 4.08 0 0 -8.43 4.07 0 0 -12.63 4.07 0 0 -8.41 4.07 0 0 -8.42 4.07 0 0 -8.42 4.07 0 0 -8.42 4.07 0 0 -12.63 4.08 0 0 -8.42 4.06 0 0 -12.63 4.08 0 0 -12.63 4.07 0 0 -12.63 4.07 0 0 -12.63 4.07 0 0 -12.63 4.07 0 0 -16.84 4.07 0 0 -16.84 4.07 0 0 -21.05 4.08 0 0 -21.05 4.07 0 0 -25.26 4.07 0 0 -16.84 4.07 0 0 -42.1 4.07 0 0 -25.26 4.07 0 0 -33.68 4.08 0 0 -58.93 4.06 0 0 -67.36 4.08 0 0 -109.46 4.07 0 0 -778.83 -4.07 0 0 -155.76 -4.08 0 0 -46.31 -4.06 0 0 -50.52 -4.08 0 0 -42.1 -4.07 0 0 -42.1 -4.07 0 0 -42.1 -4.07 0 0 -16.84 -4.07 0 0 -16.83 -4.07 0 0 -25.26 -4.08 0 0 -21.05 -4.07 0 0 -12.64 -4.07 0 0 -16.83 -4.07 0 0 -16.84 -4.07 0 0 -16.84 -4.07 0 0 -12.63 -4.07 0 0 -12.63 -4.08 0 0 -12.63 -4.06 0 0 -8.42 -4.08 0 0 -12.63 -4.07 0 0 -8.42 -4.07 0 0 -12.63 -4.07 0 0 -8.42 -4.07 0 0 -8.42 -4.07 0 0 -8.42 -4.07 0 0 -8.42 -4.08 0 0 -4.21 -4.07 0 0 -8.42 -4.07 0 0 -8.42 -4.07 0 0 -8.42 -4.07 0 0 -4.21 -4.07 0 0 -8.42 -4.08 0 0 -8.42 -4.06 0 0 -4.21 -4.08 0 0 -4.21 -4.07 0 0 -8.41 -4.07 0 0 -4.22 -4.07 0 0 -4.21 -4.07 0 0 -8.42 -4.07 0 0 -4.21 -4.07 0 0 -4.2 -4.08 0 0 -4.22 -4.07 0 0 -4.21 -4.07 0 0 -8.42 -4.07 0 0 -4.21 -4.07 0 0 -4.2 -4.07 0 0 -4.21 -4.08 0 0 -4.22 -4.06 0 0 -4.2 -4.08 0 0 -4.22 -4.07 0 0 -4.21 -4.07 0 0 -4.2 -4.07 0 0 -4.22 -4.07 0 0 -4.21 -4.07 0 0 -4.2 -8.15 0 0 -4.21 -4.07 0 0 -4.22 -4.07 0 0 -4.2 -4.07 0 0 -4.21 -8.14 0 0 -4.22 -4.08 0 0 -4.2 -4.06 0 0 -4.21 -4.08 0 0 -4.22 -8.14 0 0 -4.2 -8.14 0 0 -4.21 -4.07 0 0 -4.22 -8.15 0 0 -4.2 -8.14 0 0 -4.21 -4.07 0 0 -4.21 -8.14 0 0 -4.21 -8.15 0 0 -4.21 -4.07 0 0 -4.21 -8.14 0 0 -4.21 -8.14 0 0 -4.21 -12.22 0 0 -4.21 -8.14 0 0 -4.21 -8.14 0 0 -4.21 -8.15 0 0 -4.21 -12.21 0 0 -4.21 -8.14 0 0 -4.21 -12.22 0 0 -4.21 -16.28 0 0 -4.21 -12.22 0 0 -4.21 -8.14 0 0 -4.21 -16.28 0 0 -4.21 -16.29 0 0 -4.21 -16.28 0 0 -4.21 -16.29 0 0 -4.21 -16.28 0 0 -4.21 -28.5 0 0 -4.21 -4.07 0 0 -4.21 -4.07 0 0 -4.21 -4.08 0 0 -4.21 -4.07 0 0 -4.21 -4.07 0 0 -4.21 -4.07 0 0 -4.21 -4.07 0 0 -4.21 -4.07 0 0 -4.21 -4.08 0 0 -4.21 -4.06 0 0 -4.21 -4.08 0 0 -4.21 -4.07 0 0 -4.21 -8.14 0 0 -4.21 -4.07 0 0 -4.21 -4.07 0 0 -4.21 -8.15 0 0 -4.21 -8.14 0 0 -4.21 -8.14 0 0 -4.21 -8.15 0 0 -4.21 -8.14 0 0 -4.21 -8.14 0 0 -4.21 -20.36 0 0 -4.21 -8.14 0 0 -4.21 -24.43 0 0 -4.21 -40.71 0 0 -4.21 -305.35 0 0 4.21 -8.14 0 0 4.21 -32.57 0 0 4.21 -8.15 0 0 4.21 -16.28 0 0 4.21 -57 0 0 -4.21 -57 0 0 -4.21 -61.07 0 0 -4.21 -419.35 0 0 4.21 -65.14 0 0 4.21 -48.85 0 0 4.21 -57 0 0 -4.21 -12.22 0 0 -4.21 -8.14 0 0 -4.21 -24.43 0 0 -4.21 -36.64 0 0 -4.21 -293.14 0 0 4.21zm1758.82 214.7l4.07 0 0 46.32 4.07 0 0 248.38 52.93 0 0 4.21 12.22 0 0 4.21 16.28 0 0 4.21 12.21 0 0 4.21 8.15 0 0 4.21 8.14 0 0 4.21 4.07 0 0 4.21 8.14 0 0 4.21 4.08 0 0 4.21 8.14 0 0 4.21 4.07 0 0 4.21 4.07 0 0 4.21 4.07 0 0 4.21 4.07 0 0 4.2 4.07 0 0 4.22 4.07 0 0 8.42 4.08 0 0 4.21 4.07 0 0 4.21 4.07 0 0 8.42 4.07 0 0 8.41 4.07 0 0 4.22 4.07 0 0 8.41 4.07 0 0 12.63 4.07 0 0 8.43 4.08 0 0 16.83 4.07 0 0 21.06 4.07 0 0 1490.29 -4.07 0 0 16.84 -4.07 0 0 21.05 -4.08 0 0 8.42 -4.07 0 0 12.63 -4.07 0 0 8.42 -4.07 0 0 8.42 -4.07 0 0 8.42 -4.07 0 0 4.21 -4.07 0 0 8.42 -4.07 0 0 4.21 -4.08 0 0 4.21 -4.07 0 0 4.21 -4.07 0 0 8.42 -4.07 0 0 4.21 -4.07 0 0 4.21 -4.07 0 0 4.21 -8.15 0 0 4.21 -4.06 0 0 4.21 -4.08 0 0 4.21 -8.14 0 0 4.21 -4.07 0 0 4.21 -8.14 0 0 4.21 -12.22 0 0 4.21 -12.21 0 0 4.21 -16.29 0 0 4.21 -12.21 0 0 4.21 -48.86 0 0 218.91 -4.07 0 0 54.73 -4.07 0 0 4.21 16.29 0 0 -4.21 12.21 0 0 -4.21 20.36 0 0 -4.21 8.14 0 0 -4.21 12.21 0 0 -4.21 12.22 0 0 -4.21 12.21 0 0 -4.21 8.14 0 0 -4.21 12.22 0 0 -4.21 8.14 0 0 -4.21 8.14 0 0 -4.21 8.14 0 0 -4.21 8.15 0 0 -4.21 8.14 0 0 -4.21 8.14 0 0 -4.21 4.07 0 0 -4.21 8.15 0 0 -4.21 4.07 0 0 -4.21 8.14 0 0 -4.21 4.07 0 0 -4.21 8.14 0 0 -4.21 4.08 0 0 -4.21 8.14 0 0 -4.21 4.07 0 0 -4.21 4.07 0 0 -4.21 4.07 0 0 -4.21 8.15 0 0 -4.21 4.07 0 0 -4.21 4.07 0 0 -4.21 4.07 0 0 -4.21 4.07 0 0 -4.21 4.07 0 0 -4.21 4.08 0 0 -4.21 4.06 0 0 -4.2 4.08 0 0 -4.22 4.07 0 0 -4.21 4.07 0 0 -4.2 4.07 0 0 -4.22 4.07 0 0 -4.21 4.07 0 0 -8.42 4.08 0 0 -4.21 4.07 0 0 -4.2 4.07 0 0 -8.43 4.07 0 0 -4.2 4.07 0 0 -8.43 4.07 0 0 -4.2 4.07 0 0 -8.43 4.08 0 0 -4.2 4.06 0 0 -8.43 4.08 0 0 -8.41 4.07 0 0 -8.42 4.07 0 0 -8.42 4.07 0 0 -8.42 4.07 0 0 -8.42 4.07 0 0 -12.63 4.08 0 0 -8.42 4.07 0 0 -12.63 4.07 0 0 -12.63 4.07 0 0 -12.63 4.07 0 0 -8.42 4.07 0 0 -21.05 4.07 0 0 -8.42 4.08 0 0 -16.84 4.06 0 0 -21.05 4.08 0 0 -21.05 4.07 0 0 -25.26 4.07 0 0 -25.26 4.07 0 0 -37.89 4.07 0 0 -29.47 4.07 0 0 -50.52 4.08 0 0 -42.09 4.07 0 0 -71.57 4.07 0 0 -943.02 -4.07 0 0 -117.87 -4.07 0 0 -58.94 -4.08 0 0 -29.47 -4.07 0 0 -54.73 -4.07 0 0 -25.26 -4.07 0 0 -25.26 -4.07 0 0 -25.26 -4.07 0 0 -25.26 -4.08 0 0 -16.83 -4.06 0 0 -16.84 -4.08 0 0 -16.84 -4.07 0 0 -12.63 -4.07 0 0 -16.84 -4.07 0 0 -16.84 -4.07 0 0 -8.42 -4.07 0 0 -12.63 -4.07 0 0 -12.63 -4.08 0 0 -8.42 -4.07 0 0 -8.42 -4.07 0 0 -8.42 -4.07 0 0 -12.63 -4.07 0 0 -8.42 -4.07 0 0 -4.21 -4.08 0 0 -8.42 -4.06 0 0 -8.42 -4.08 0 0 -4.21 -4.07 0 0 -8.42 -4.07 0 0 -4.21 -4.07 0 0 -8.42 -4.07 0 0 -4.21 -4.07 0 0 -8.42 -4.07 0 0 -4.21 -4.08 0 0 -4.21 -4.07 0 0 -8.42 -4.07 0 0 -4.21 -4.07 0 0 -4.21 -4.07 0 0 -4.21 -4.07 0 0 -4.2 -4.08 0 0 -4.22 -4.06 0 0 -4.21 -4.08 0 0 -4.2 -4.07 0 0 -4.22 -4.07 0 0 -4.21 -4.07 0 0 -4.2 -4.07 0 0 -4.22 -4.07 0 0 -4.21 -8.15 0 0 -4.2 -4.07 0 0 -4.22 -4.07 0 0 -4.21 -8.14 0 0 -4.2 -4.07 0 0 -4.21 -4.08 0 0 -4.22 -8.14 0 0 -4.2 -8.14 0 0 -4.22 -4.07 0 0 -4.21 -8.14 0 0 -4.2 -8.15 0 0 -4.22 -8.14 0 0 -4.21 -4.07 0 0 -4.2 -8.14 0 0 -4.21 -12.22 0 0 -4.22 -8.14 0 0 -4.2 -8.14 0 0 -4.21 -12.22 0 0 -4.22 -8.14 0 0 -4.2 -12.21 0 0 -4.21 -12.22 0 0 -4.22 -12.21 0 0 -4.2 -16.28 0 0 -4.21 -8.15 0 0 -4.22 -24.43 0 0 -4.2 -8.14 0 0 16.83zm-2015.31 -12.63l-16.29 0 0 4.22 -16.28 0 0 4.21 -8.14 0 0 4.2 -16.29 0 0 4.22 -12.21 0 0 4.21 -8.14 0 0 4.2 -12.22 0 0 4.22 -8.14 0 0 4.21 -12.22 0 0 4.2 -8.14 0 0 4.22 -8.14 0 0 4.21 -8.14 0 0 4.2 -8.15 0 0 4.21 -8.14 0 0 4.22 -4.07 0 0 4.2 -8.14 0 0 4.21 -8.15 0 0 4.22 -4.06 0 0 4.2 -8.15 0 0 4.22 -8.14 0 0 4.21 -4.07 0 0 4.2 -4.07 0 0 4.21 -4.08 0 0 4.22 -8.14 0 0 4.2 -4.07 0 0 4.21 -4.07 0 0 4.22 -4.07 0 0 4.2 -4.07 0 0 4.21 -4.08 0 0 4.22 -4.06 0 0 4.2 -4.08 0 0 4.21 -4.07 0 0 4.22 -4.07 0 0 4.2 -4.07 0 0 4.21 -4.07 0 0 4.21 -4.07 0 0 4.21 -4.08 0 0 4.21 -4.07 0 0 4.21 -4.07 0 0 8.42 -4.07 0 0 4.21 -4.07 0 0 4.21 -4.07 0 0 8.42 -4.07 0 0 4.21 -4.08 0 0 8.42 -4.06 0 0 4.21 -4.08 0 0 8.42 -4.07 0 0 8.42 -4.07 0 0 4.21 -4.07 0 0 8.42 -4.07 0 0 8.42 -4.07 0 0 8.42 -4.08 0 0 12.63 -4.07 0 0 8.42 -4.07 0 0 8.42 -4.07 0 0 12.63 -4.07 0 0 12.63 -4.07 0 0 8.42 -4.07 0 0 16.84 -4.08 0 0 16.84 -4.06 0 0 8.42 -4.08 0 0 16.84 -4.07 0 0 25.26 -4.07 0 0 21.04 -4.07 0 0 12.63 -4.07 0 0 25.26 -4.07 0 0 33.69 -4.08 0 0 33.67 -4.07 0 0 37.89 -4.07 0 0 37.89 -4.07 0 0 79.99 -4.07 0 0 1098.78 4.07 0 0 54.73 4.07 0 0 33.67 4.07 0 0 42.11 4.07 0 0 25.25 4.08 0 0 33.68 4.07 0 0 21.05 4.07 0 0 16.84 4.07 0 0 21.05 4.07 0 0 21.05 4.07 0 0 8.42 4.08 0 0 16.84 4.06 0 0 16.84 4.08 0 0 8.42 4.07 0 0 12.63 4.07 0 0 12.63 4.07 0 0 8.42 4.07 0 0 12.63 4.07 0 0 8.41 4.07 0 0 8.43 4.08 0 0 8.42 4.07 0 0 8.41 4.07 0 0 8.43 4.07 0 0 8.42 4.07 0 0 4.21 4.07 0 0 8.42 4.08 0 0 8.41 4.06 0 0 4.22 4.08 0 0 8.41 4.07 0 0 4.21 4.07 0 0 4.22 4.07 0 0 4.2 4.07 0 0 8.43 4.07 0 0 4.2 4.07 0 0 4.21 4.08 0 0 4.22 4.07 0 0 8.41 4.07 0 0 4.22 4.07 0 0 4.2 4.07 0 0 4.21 4.07 0 0 4.21 4.08 0 0 4.21 4.06 0 0 4.21 8.15 0 0 4.21 4.07 0 0 4.21 4.07 0 0 4.21 4.07 0 0 4.21 4.07 0 0 4.21 8.15 0 0 4.21 4.07 0 0 4.21 4.07 0 0 4.21 8.14 0 0 4.21 4.07 0 0 4.21 8.14 0 0 4.21 4.08 0 0 4.21 8.14 0 0 4.21 4.07 0 0 4.21 8.14 0 0 4.21 8.15 0 0 4.21 8.14 0 0 4.21 8.14 0 0 4.21 8.15 0 0 4.21 8.14 0 0 4.21 8.14 0 0 4.21 8.14 0 0 4.21 12.22 0 0 4.21 8.14 0 0 4.21 12.21 0 0 4.21 8.14 0 0 4.21 12.22 0 0 4.21 20.35 0 0 4.21 8.15 0 0 4.21 20.35 0 0 -4.21 -4.07 0 0 -54.73 -4.07 0 0 -218.91 -40.71 0 0 -4.21 -20.36 0 0 -4.21 -20.35 0 0 -4.21 -8.15 0 0 -4.21 -8.14 0 0 -4.21 -8.14 0 0 -4.21 -8.15 0 0 -4.21 -4.06 0 0 -4.21 -8.15 0 0 -4.21 -4.07 0 0 -4.21 -4.07 0 0 -4.21 -4.07 0 0 -4.21 -4.07 0 0 -4.21 -4.08 0 0 -4.21 -4.07 0 0 -4.21 -4.07 0 0 -4.21 -4.07 0 0 -8.42 -4.07 0 0 -4.21 -4.07 0 0 -4.21 -4.07 0 0 -8.42 -4.08 0 0 -8.42 -4.06 0 0 -8.42 -4.08 0 0 -8.42 -4.07 0 0 -8.42 -4.07 0 0 -12.63 -4.07 0 0 -21.05 -4.07 0 0 -33.68 -4.07 0 0 -1460.83 4.07 0 0 -25.26 4.07 0 0 -16.84 4.07 0 0 -8.41 4.07 0 0 -12.63 4.07 0 0 -8.42 4.08 0 0 -8.43 4.06 0 0 -8.41 4.08 0 0 -4.21 4.07 0 0 -4.21 4.07 0 0 -8.42 4.07 0 0 -4.21 4.07 0 0 -4.21 4.07 0 0 -4.22 4.07 0 0 -4.2 4.08 0 0 -4.21 4.07 0 0 -4.21 4.07 0 0 -4.21 4.07 0 0 -4.21 4.07 0 0 -4.21 4.07 0 0 -4.21 8.14 0 0 -4.21 8.15 0 0 -4.21 4.07 0 0 -4.21 12.21 0 0 -4.21 8.15 0 0 -4.21 16.28 0 0 -4.21 24.43 0 0 -4.21 40.71 0 0 -252.6 4.07 0 0 -33.67 4.07 0 0 -25.26 -12.21 0 0 4.2zm1477.9 2555.4l301.27 0 0 -4.2 24.43 0 0 -4.21 16.29 0 0 -4.22 16.28 0 0 -4.2 8.15 0 0 -4.21 12.21 0 0 -4.21 8.14 0 0 -4.21 4.07 0 0 -4.21 8.14 0 0 -4.21 4.08 0 0 -4.21 4.07 0 0 -4.21 4.07 0 0 -4.21 4.07 0 0 -4.21 4.07 0 0 -4.21 4.07 0 0 -4.21 4.08 0 0 -4.21 4.07 0 0 -8.42 4.07 0 0 -4.21 4.07 0 0 -8.42 4.07 0 0 -12.63 4.07 0 0 -12.63 4.07 0 0 -21.05 4.08 0 0 -795.67 -455.99 0 0 930.38zm-1384.26 -143.13l4.07 0 0 25.26 4.08 0 0 12.63 4.06 0 0 12.63 4.08 0 0 8.42 4.07 0 0 8.42 4.07 0 0 8.42 4.07 0 0 4.21 4.07 0 0 4.21 4.07 0 0 4.21 4.07 0 0 4.21 4.08 0 0 4.21 4.07 0 0 4.21 4.07 0 0 4.21 4.07 0 0 4.21 8.14 0 0 4.21 8.14 0 0 4.21 8.15 0 0 4.21 8.14 0 0 4.21 8.14 0 0 4.2 8.15 0 0 4.22 20.35 0 0 4.21 24.43 0 0 4.2 305.35 0 0 -930.38 -455.99 0 0 787.25zm1384.26 -1667.11l455.99 0 0 -736.73 -4.08 0 0 -25.26 -4.07 0 0 -8.42 -4.07 0 0 -12.63 -4.07 0 0 -8.42 -4.07 0 0 -4.21 -4.07 0 0 -8.42 -4.07 0 0 -4.21 -4.08 0 0 -4.21 -4.07 0 0 -4.21 -4.07 0 0 -4.21 -4.07 0 0 -4.21 -4.07 0 0 -4.21 -4.07 0 0 -4.21 -4.08 0 0 -4.21 -8.14 0 0 -4.21 -4.07 0 0 -4.21 -8.14 0 0 -4.21 -8.14 0 0 -4.21 -12.22 0 0 -4.21 -8.14 0 0 -4.21 -16.28 0 0 -4.21 -24.43 0 0 -4.21 -309.42 0 0 871.45zm-1241.76 -867.24l-16.29 0 0 4.21 -16.28 0 0 4.21 -12.22 0 0 4.21 -8.14 0 0 4.21 -8.14 0 0 4.21 -8.15 0 0 4.21 -8.14 0 0 4.21 -4.07 0 0 4.21 -8.14 0 0 4.21 -4.07 0 0 4.21 -4.07 0 0 4.21 -4.08 0 0 4.21 -4.07 0 0 4.21 -4.07 0 0 4.21 -4.07 0 0 8.42 -4.07 0 0 4.21 -4.07 0 0 8.42 -4.07 0 0 8.42 -4.08 0 0 8.42 -4.06 0 0 16.84 -4.08 0 0 16.84 -4.07 0 0 736.73 455.99 0 0 -871.45 -313.49 0 0 4.21zm472.27 2656.44l28.5 0 0 4.21 101.78 0 0 4.2 362.36 0 0 -4.2 81.42 0 0 -4.21 44.78 0 0 -4.21 8.15 0 0 -21.05 -4.07 0 0 -416.78 -635.13 0 0 404.15 -4.07 0 0 33.68 16.28 0 0 4.21zm142.5 -2648.02l-61.07 0 0 4.21 -73.29 0 0 4.21 -24.42 0 0 29.47 4.07 0 0 370.47 635.13 0 0 -366.26 4.07 0 0 -33.68 -28.5 0 0 -4.21 -36.64 0 0 -4.21 -142.5 0 0 -4.21 -276.85 0 0 4.21zm-826.48 37.89l-16.29 0 0 4.21 -16.28 0 0 4.21 -16.29 0 0 4.21 -16.28 0 0 4.21 -20.36 0 0 4.21 -12.21 0 0 4.21 -12.22 0 0 4.21 -8.14 0 0 4.21 -8.14 0 0 4.21 -12.21 0 0 4.21 -8.15 0 0 4.21 -12.21 0 0 4.21 -8.15 0 0 4.21 -8.14 0 0 4.21 -8.14 0 0 4.21 -8.14 0 0 4.21 -8.14 0 0 4.21 -8.15 0 0 4.2 -4.07 0 0 4.22 -8.14 0 0 4.21 -8.15 0 0 4.2 -4.07 0 0 4.22 -8.14 0 0 4.21 -4.07 0 0 4.2 -8.14 0 0 4.22 -4.08 0 0 4.21 -4.06 0 0 4.2 -8.15 0 0 4.22 -4.07 0 0 4.21 -4.07 0 0 4.2 -4.07 0 0 4.21 -8.15 0 0 4.22 -4.07 0 0 4.2 -4.07 0 0 4.21 -4.07 0 0 4.22 -4.07 0 0 4.2 -8.14 0 0 8.43 -4.08 0 0 4.2 -4.06 0 0 4.21 -4.08 0 0 4.22 -4.07 0 0 4.2 -4.07 0 0 4.21 -4.07 0 0 4.22 -4.07 0 0 4.2 -4.07 0 0 4.21 -4.08 0 0 8.42 -4.07 0 0 4.21 -4.07 0 0 4.22 -4.07 0 0 8.41 -4.07 0 0 4.21 -4.07 0 0 4.21 -4.07 0 0 8.42 -4.08 0 0 4.21 -4.06 0 0 8.42 -4.08 0 0 4.21 -4.07 0 0 8.42 -4.07 0 0 4.21 -4.07 0 0 8.42 -4.07 0 0 8.42 -4.07 0 0 8.42 -4.08 0 0 8.42 -4.07 0 0 8.42 -4.07 0 0 8.42 -4.07 0 0 8.42 -4.07 0 0 12.63 -4.07 0 0 8.42 -4.07 0 0 12.63 -4.08 0 0 12.63 -4.06 0 0 8.42 -4.08 0 0 12.63 -4.07 0 0 16.84 -4.07 0 0 8.42 -4.07 0 0 25.25 -4.07 0 0 12.64 -4.07 0 0 16.84 -4.08 0 0 16.84 -4.07 0 0 33.68 -4.07 0 0 25.25 -4.07 0 0 25.26 -4.07 0 0 25.26 -4.07 0 0 46.31 -4.07 0 0 58.94 -4.08 0 0 88.4 -4.06 0 0 67.36 -4.08 0 0 825.14 4.08 0 0 96.83 4.06 0 0 92.61 4.08 0 0 37.89 4.07 0 0 50.52 4.07 0 0 33.68 4.07 0 0 29.47 4.07 0 0 16.84 4.07 0 0 29.47 4.07 0 0 21.05 4.08 0 0 21.05 4.07 0 0 8.42 4.07 0 0 16.84 4.07 0 0 16.84 4.07 0 0 16.84 4.07 0 0 8.42 4.08 0 0 12.63 4.06 0 0 12.63 4.08 0 0 8.42 4.07 0 0 12.62 4.07 0 0 8.43 4.07 0 0 8.42 4.07 0 0 8.41 4.07 0 0 8.43 4.07 0 0 12.63 4.08 0 0 4.2 4.07 0 0 8.43 4.07 0 0 8.42 4.07 0 0 8.41 4.07 0 0 4.21 4.07 0 0 8.42 4.08 0 0 4.21 4.06 0 0 8.42 4.08 0 0 4.21 4.07 0 0 8.42 4.07 0 0 4.21 4.07 0 0 4.22 4.07 0 0 8.41 4.07 0 0 4.21 4.07 0 0 4.21 4.08 0 0 4.21 4.07 0 0 4.21 4.07 0 0 4.21 4.07 0 0 8.42 4.07 0 0 4.21 4.07 0 0 4.21 4.08 0 0 4.21 4.06 0 0 4.21 4.08 0 0 4.21 8.14 0 0 4.21 4.07 0 0 4.21 4.07 0 0 4.21 4.07 0 0 4.21 4.07 0 0 4.21 4.08 0 0 4.21 4.07 0 0 4.21 8.14 0 0 4.21 4.07 0 0 4.21 4.07 0 0 4.21 8.14 0 0 4.21 4.08 0 0 4.21 4.07 0 0 4.21 8.14 0 0 4.21 4.07 0 0 4.21 8.14 0 0 4.21 4.08 0 0 4.21 8.14 0 0 4.21 8.14 0 0 4.21 4.07 0 0 4.21 8.14 0 0 4.21 8.15 0 0 4.21 8.14 0 0 4.21 8.14 0 0 4.21 8.15 0 0 4.21 8.14 0 0 4.21 8.14 0 0 4.21 8.15 0 0 4.21 12.21 0 0 4.21 8.14 0 0 4.21 12.21 0 0 4.21 12.22 0 0 4.21 12.21 0 0 4.21 8.14 0 0 4.21 20.36 0 0 4.21 12.21 0 0 4.21 16.29 0 0 4.21 16.29 0 0 4.21 16.28 0 0 -12.63 -4.07 0 0 -12.63 -4.07 0 0 -8.42 -4.07 0 0 -12.63 -4.07 0 0 -8.42 -8.15 0 0 -4.21 -8.14 0 0 -4.21 -16.29 0 0 -4.21 -16.28 0 0 -4.21 -12.21 0 0 -4.21 -12.22 0 0 -4.21 -12.21 0 0 -4.21 -8.14 0 0 -4.21 -12.22 0 0 -4.21 -8.14 0 0 -4.21 -8.14 0 0 -4.21 -8.14 0 0 -4.21 -8.15 0 0 -4.21 -8.14 0 0 -4.21 -8.14 0 0 -4.21 -8.15 0 0 -4.21 -8.14 0 0 -4.21 -4.07 0 0 -4.21 -8.14 0 0 -4.21 -8.14 0 0 -4.21 -4.08 0 0 -4.21 -8.14 0 0 -4.21 -4.07 0 0 -4.21 -8.14 0 0 -4.21 -4.08 0 0 -4.21 -4.07 0 0 -4.21 -8.14 0 0 -4.21 -4.07 0 0 -4.21 -4.07 0 0 -4.21 -4.07 0 0 -4.21 -4.08 0 0 -4.21 -4.06 0 0 -4.21 -8.15 0 0 -4.21 -4.07 0 0 -4.21 -4.07 0 0 -4.21 -4.07 0 0 -4.21 -4.07 0 0 -4.21 -4.08 0 0 -8.41 -4.07 0 0 -4.22 -4.07 0 0 -4.21 -4.07 0 0 -4.2 -4.07 0 0 -4.22 -4.07 0 0 -4.21 -4.07 0 0 -8.42 -4.08 0 0 -4.21 -4.06 0 0 -8.42 -4.08 0 0 -4.21 -4.07 0 0 -4.2 -4.07 0 0 -8.43 -4.07 0 0 -8.41 -4.07 0 0 -4.22 -4.07 0 0 -8.41 -4.08 0 0 -8.42 -4.07 0 0 -8.43 -4.07 0 0 -8.41 -4.07 0 0 -8.42 -4.07 0 0 -8.43 -4.07 0 0 -8.41 -4.07 0 0 -12.63 -4.08 0 0 -12.63 -4.06 0 0 -8.42 -4.08 0 0 -12.63 -4.07 0 0 -12.63 -4.07 0 0 -12.63 -4.07 0 0 -16.84 -4.07 0 0 -16.84 -4.07 0 0 -16.84 -4.08 0 0 -16.84 -4.07 0 0 -25.26 -4.07 0 0 -25.26 -4.07 0 0 -33.68 -4.07 0 0 -25.25 -4.07 0 0 -42.11 -4.07 0 0 -58.93 -4.08 0 0 -33.68 -4.06 0 0 -1048.26 4.06 0 0 -75.78 4.08 0 0 -63.15 4.07 0 0 -29.47 4.07 0 0 -42.1 4.07 0 0 -33.68 4.07 0 0 -25.26 4.07 0 0 -21.04 4.07 0 0 -21.05 4.08 0 0 -16.84 4.07 0 0 -25.26 4.07 0 0 -16.84 4.07 0 0 -8.42 4.07 0 0 -16.84 4.07 0 0 -12.63 4.08 0 0 -12.63 4.06 0 0 -8.42 4.08 0 0 -12.63 4.07 0 0 -8.42 4.07 0 0 -12.63 4.07 0 0 -4.21 4.07 0 0 -8.42 4.07 0 0 -8.42 4.07 0 0 -8.42 4.08 0 0 -8.42 4.07 0 0 -8.42 4.07 0 0 -8.42 4.07 0 0 -4.21 4.07 0 0 -8.42 4.07 0 0 -4.21 4.08 0 0 -8.42 4.06 0 0 -4.21 4.08 0 0 -4.21 4.07 0 0 -8.42 4.07 0 0 -4.21 4.07 0 0 -4.21 4.07 0 0 -4.21 4.07 0 0 -4.2 4.07 0 0 -4.22 4.08 0 0 -4.21 4.07 0 0 -4.2 4.07 0 0 -4.22 4.07 0 0 -4.21 4.07 0 0 -4.2 4.07 0 0 -4.22 4.08 0 0 -4.21 4.06 0 0 -4.2 4.08 0 0 -4.22 4.07 0 0 -4.21 4.07 0 0 -4.2 8.14 0 0 -4.21 4.07 0 0 -4.22 4.07 0 0 -4.2 8.15 0 0 -4.22 4.07 0 0 -4.21 8.14 0 0 -4.2 4.07 0 0 -4.22 8.14 0 0 -4.21 4.08 0 0 -4.2 8.14 0 0 -4.21 8.14 0 0 -4.22 8.14 0 0 -4.2 8.15 0 0 -4.21 8.14 0 0 -4.22 8.14 0 0 -4.2 12.22 0 0 -4.21 8.14 0 0 -4.22 8.14 0 0 -4.2 12.22 0 0 -4.21 8.14 0 0 -4.22 12.21 0 0 -4.2 20.36 0 0 -4.21 8.14 0 0 -4.21 16.29 0 0 -4.21 16.28 0 0 -4.21 16.29 0 0 -12.63 4.07 0 0 -8.42 4.07 0 0 -8.42 4.07 0 0 -8.42 4.07 0 0 -12.63 4.08 0 0 -8.42 -16.29 0 0 4.21zm1999.02 463.09l44.79 0 0 4.21 12.21 0 0 4.21 8.15 0 0 4.21 8.14 0 0 4.2 8.14 0 0 4.22 4.07 0 0 4.21 4.07 0 0 4.2 4.07 0 0 4.22 4.07 0 0 4.21 4.08 0 0 4.2 4.07 0 0 8.43 4.07 0 0 8.42 4.07 0 0 8.41 4.07 0 0 12.63 4.07 0 0 21.06 4.08 0 0 1473.45 -4.08 0 0 12.63 -4.07 0 0 16.84 -4.07 0 0 8.42 -4.07 0 0 4.21 -4.07 0 0 8.42 -4.07 0 0 4.21 -4.08 0 0 4.21 -4.07 0 0 8.42 -8.14 0 0 4.21 -4.07 0 0 4.21 -4.07 0 0 4.21 -8.15 0 0 4.21 -8.14 0 0 4.21 -16.28 0 0 4.21 -44.79 0 0 67.36 57 0 0 -4.21 16.29 0 0 -4.21 8.14 0 0 -4.21 8.14 0 0 -4.21 8.14 0 0 -4.21 8.15 0 0 -4.21 8.14 0 0 -4.21 4.07 0 0 -4.21 4.07 0 0 -4.21 4.08 0 0 -4.21 4.06 0 0 -4.21 4.08 0 0 -4.21 4.07 0 0 -4.21 4.07 0 0 -4.21 4.07 0 0 -4.21 4.07 0 0 -4.21 4.07 0 0 -8.42 4.07 0 0 -4.21 4.08 0 0 -8.42 4.07 0 0 -8.42 4.07 0 0 -8.42 4.07 0 0 -12.63 4.07 0 0 -8.42 4.07 0 0 -21.05 4.07 0 0 -16.84 4.07 0 0 -1469.24 -4.07 0 0 -16.85 -4.07 0 0 -16.84 -4.07 0 0 -16.83 -4.07 0 0 -8.43 -4.07 0 0 -12.63 -4.07 0 0 -4.2 -4.07 0 0 -8.43 -4.08 0 0 -8.41 -4.07 0 0 -4.21 -4.07 0 0 -8.42 -4.07 0 0 -4.21 -4.07 0 0 -4.21 -4.07 0 0 -4.21 -4.07 0 0 -4.22 -4.08 0 0 -4.2 -4.06 0 0 -4.21 -4.08 0 0 -4.21 -8.14 0 0 -4.21 -4.07 0 0 -4.21 -8.14 0 0 -4.21 -8.15 0 0 -4.21 -8.14 0 0 -4.21 -12.21 0 0 -4.21 -16.29 0 0 -4.21 -16.28 0 0 -4.21 -40.72 0 0 67.36zm-2056.02 -63.15l-16.29 0 0 4.21 -20.35 0 0 4.21 -8.14 0 0 4.21 -12.22 0 0 4.21 -8.14 0 0 4.21 -4.07 0 0 4.21 -8.15 0 0 4.21 -4.06 0 0 4.21 -8.15 0 0 4.21 -4.07 0 0 4.2 -4.07 0 0 4.22 -4.07 0 0 4.21 -4.07 0 0 8.42 -4.08 0 0 4.21 -4.07 0 0 4.21 -4.07 0 0 8.42 -4.07 0 0 4.2 -4.07 0 0 8.43 -4.07 0 0 8.42 -4.07 0 0 8.41 -4.08 0 0 12.63 -4.06 0 0 16.84 -4.08 0 0 8.42 -4.07 0 0 1502.93 4.07 0 0 16.84 4.08 0 0 12.63 4.06 0 0 12.63 4.08 0 0 8.42 4.07 0 0 12.63 4.07 0 0 4.21 4.07 0 0 8.42 4.07 0 0 4.21 4.07 0 0 8.42 4.07 0 0 4.21 4.08 0 0 4.21 4.07 0 0 4.21 4.07 0 0 4.21 4.07 0 0 4.21 4.07 0 0 4.21 4.07 0 0 4.21 4.08 0 0 4.21 8.14 0 0 4.21 4.07 0 0 4.21 8.14 0 0 4.21 8.14 0 0 4.21 12.22 0 0 4.21 8.14 0 0 4.21 16.28 0 0 4.21 52.93 0 0 -67.36 -44.78 0 0 -4.21 -12.21 0 0 -4.21 -12.22 0 0 -4.21 -4.07 0 0 -4.21 -8.14 0 0 -4.21 -4.08 0 0 -4.21 -4.07 0 0 -4.21 -4.07 0 0 -4.21 -4.07 0 0 -4.21 -4.07 0 0 -4.21 -4.07 0 0 -8.42 -4.07 0 0 -8.42 -4.08 0 0 -8.42 -4.06 0 0 -16.84 -4.08 0 0 -1502.93 4.08 0 0 -8.42 4.06 0 0 -12.62 4.08 0 0 -8.42 4.07 0 0 -4.21 4.07 0 0 -8.42 4.07 0 0 -4.21 4.07 0 0 -4.22 4.07 0 0 -4.2 4.07 0 0 -4.21 8.15 0 0 -4.22 4.07 0 0 -4.2 8.14 0 0 -4.21 16.29 0 0 -4.21 16.28 0 0 -4.21 32.57 0 0 -67.36 -36.64 0 0 4.21zm1465.68 1305.06l-85.5 0 0 884.08 4.07 0 0 16.84 4.07 0 0 16.84 4.08 0 0 8.41 4.07 0 0 8.43 4.07 0 0 8.42 4.07 0 0 4.21 4.07 0 0 4.2 4.07 0 0 4.22 4.08 0 0 4.21 4.06 0 0 4.2 4.08 0 0 4.21 8.14 0 0 4.22 8.14 0 0 4.2 16.29 0 0 4.21 16.28 0 0 4.22 28.5 0 0 -4.22 -4.07 0 0 -985.11 -32.57 0 0 4.21zm-867.19 968.27l-4.08 0 0 16.85 28.5 0 0 -4.22 16.29 0 0 -4.21 8.14 0 0 -4.2 12.22 0 0 -4.22 8.14 0 0 -4.21 4.07 0 0 -4.2 4.07 0 0 -4.21 4.07 0 0 -4.22 4.07 0 0 -4.2 4.07 0 0 -4.21 4.08 0 0 -8.42 4.07 0 0 -8.43 4.07 0 0 -8.41 4.07 0 0 -8.42 4.07 0 0 -21.05 4.07 0 0 -884.08 -48.85 0 0 -4.21 -24.43 0 0 -4.21 -40.71 0 0 972.48zm863.12 -2778.52l-12.22 0 0 4.21 -12.21 0 0 4.21 -8.14 0 0 4.21 -4.07 0 0 4.21 -4.08 0 0 4.21 -4.06 0 0 4.21 -4.08 0 0 4.21 -4.07 0 0 4.21 -4.07 0 0 4.21 -4.07 0 0 4.21 -4.07 0 0 8.42 -4.07 0 0 12.63 -4.08 0 0 8.42 -4.07 0 0 25.26 -4.07 0 0 820.93 44.79 0 0 4.2 32.57 0 0 4.22 40.71 0 0 -926.18 4.07 0 0 -4.21 -40.71 0 0 4.21zm-867.2 21.05l4.08 0 0 905.13 32.57 0 0 -4.22 44.78 0 0 -4.2 36.64 0 0 -829.35 -4.07 0 0 -16.84 -4.07 0 0 -16.84 -4.07 0 0 -4.21 -4.07 0 0 -8.42 -4.07 0 0 -4.21 -4.08 0 0 -8.42 -4.07 0 0 -4.21 -4.07 0 0 -4.21 -4.07 0 0 -4.21 -4.07 0 0 -4.21 -8.14 0 0 -4.21 -8.15 0 0 -4.21 -8.14 0 0 -4.21 -16.28 0 0 -4.21 -36.65 0 0 25.26zm-492.63 1789.2l-12.21 0 0 4.21 -16.28 0 0 4.21 -12.22 0 0 4.21 -8.14 0 0 753.57 4.07 0 0 16.84 4.07 0 0 16.84 4.07 0 0 21.05 4.07 0 0 8.42 4.08 0 0 12.63 4.06 0 0 8.42 4.08 0 0 8.42 4.07 0 0 8.42 4.07 0 0 8.42 4.07 0 0 4.21 4.07 0 0 8.42 4.07 0 0 4.21 4.07 0 0 4.21 4.08 0 0 8.42 4.07 0 0 4.21 4.07 0 0 4.2 4.07 0 0 4.22 4.07 0 0 4.21 4.07 0 0 4.2 4.08 0 0 4.22 4.06 0 0 4.21 8.15 0 0 4.2 4.07 0 0 4.22 4.07 0 0 4.21 8.14 0 0 4.2 8.15 0 0 4.22 4.07 0 0 4.21 12.21 0 0 4.2 8.15 0 0 4.21 8.14 0 0 4.22 12.21 0 0 4.2 12.21 0 0 4.21 16.29 0 0 4.22 24.43 0 0 4.2 305.35 0 0 -8.42 4.07 0 0 -8.41 4.07 0 0 -33.69 -317.56 0 0 -4.2 -16.29 0 0 -4.21 -20.36 0 0 -4.22 -8.14 0 0 -4.2 -12.21 0 0 -4.21 -8.15 0 0 -4.22 -8.14 0 0 -4.2 -4.07 0 0 -4.21 -8.14 0 0 -4.21 -4.07 0 0 -4.21 -8.15 0 0 -4.21 -4.07 0 0 -4.21 -4.07 0 0 -4.21 -4.07 0 0 -4.21 -4.07 0 0 -4.21 -4.07 0 0 -8.42 -4.07 0 0 -4.21 -4.08 0 0 -4.21 -4.06 0 0 -8.42 -4.08 0 0 -8.42 -4.07 0 0 -12.63 -4.07 0 0 -16.84 -4.07 0 0 -16.84 -4.07 0 0 -799.88 -12.22 0 0 4.21zm1880.96 770.41l-4.07 0 0 33.68 -4.07 0 0 16.84 -4.08 0 0 8.42 -4.06 0 0 12.63 -4.08 0 0 8.42 -4.07 0 0 8.42 -4.07 0 0 4.21 -4.07 0 0 4.21 -4.07 0 0 8.42 -4.07 0 0 4.21 -4.07 0 0 4.21 -4.08 0 0 4.21 -4.07 0 0 4.21 -4.07 0 0 4.21 -4.07 0 0 4.21 -8.14 0 0 4.21 -4.08 0 0 4.21 -8.14 0 0 4.2 -8.14 0 0 4.22 -8.14 0 0 4.21 -8.14 0 0 4.2 -12.22 0 0 4.22 -12.21 0 0 4.21 -36.64 0 0 4.2 -305.35 0 0 33.69 4.07 0 0 8.41 4.07 0 0 8.42 305.35 0 0 -4.2 20.36 0 0 -4.22 16.28 0 0 -4.21 16.29 0 0 -4.2 12.21 0 0 -4.22 12.21 0 0 -4.21 8.14 0 0 -4.2 8.15 0 0 -4.21 8.14 0 0 -4.22 4.07 0 0 -4.2 8.15 0 0 -4.21 4.07 0 0 -4.22 8.14 0 0 -4.2 4.07 0 0 -4.21 4.07 0 0 -4.22 4.07 0 0 -4.2 4.08 0 0 -4.21 4.06 0 0 -4.22 4.08 0 0 -4.2 4.07 0 0 -4.21 4.07 0 0 -4.21 4.07 0 0 -8.42 4.07 0 0 -4.21 4.07 0 0 -4.21 4.08 0 0 -8.42 4.07 0 0 -8.42 4.07 0 0 -4.21 4.07 0 0 -8.42 4.07 0 0 -8.42 4.07 0 0 -12.63 4.07 0 0 -8.42 4.08 0 0 -16.84 4.06 0 0 -16.84 4.08 0 0 -25.26 4.07 0 0 -753.57 -8.15 0 0 -4.21 -16.28 0 0 -4.21 -8.14 0 0 -4.21 -24.43 0 0 770.41zm-1705.89 -2584.87l-24.43 0 0 4.21 -28.5 0 0 4.21 -12.21 0 0 4.21 -8.14 0 0 4.21 -12.22 0 0 4.21 -8.14 0 0 4.21 -8.14 0 0 4.21 -8.15 0 0 4.21 -4.07 0 0 4.21 -8.14 0 0 4.21 -4.07 0 0 4.21 -8.14 0 0 4.21 -4.08 0 0 4.21 -4.06 0 0 4.21 -4.08 0 0 4.21 -4.07 0 0 4.21 -4.07 0 0 4.21 -4.07 0 0 4.21 -4.07 0 0 4.21 -4.07 0 0 4.21 -4.08 0 0 8.42 -4.07 0 0 4.21 -4.07 0 0 8.42 -4.07 0 0 4.21 -4.07 0 0 8.42 -4.07 0 0 4.21 -4.07 0 0 8.42 -4.08 0 0 8.42 -4.06 0 0 12.63 -4.08 0 0 8.42 -4.07 0 0 16.84 -4.07 0 0 16.84 -4.07 0 0 21.05 -4.07 0 0 698.83 8.14 0 0 4.22 8.14 0 0 4.21 12.22 0 0 4.2 16.28 0 0 4.22 16.29 0 0 -749.36 4.07 0 0 -16.84 4.07 0 0 -8.42 4.07 0 0 -12.63 4.07 0 0 -8.42 4.08 0 0 -8.42 4.06 0 0 -4.21 4.08 0 0 -8.42 4.07 0 0 -4.21 4.07 0 0 -4.21 4.07 0 0 -4.21 4.07 0 0 -4.21 4.07 0 0 -4.21 4.07 0 0 -4.21 8.15 0 0 -4.21 4.07 0 0 -4.21 8.14 0 0 -4.21 4.07 0 0 -4.21 8.14 0 0 -4.21 8.15 0 0 -4.21 8.14 0 0 -4.21 20.36 0 0 -4.21 12.21 0 0 -4.21 24.43 0 0 -4.21 309.42 0 0 -37.89 -4.07 0 0 -8.42 -4.07 0 0 -4.21 -297.21 0 0 4.21zm1241.76 4.21l-4.07 0 0 8.42 -4.07 0 0 33.68 309.42 0 0 4.21 20.35 0 0 4.21 24.43 0 0 4.21 8.14 0 0 4.21 12.22 0 0 4.21 8.14 0 0 4.21 8.14 0 0 4.21 8.14 0 0 4.21 4.08 0 0 4.21 8.14 0 0 4.21 4.07 0 0 4.21 4.07 0 0 4.21 4.07 0 0 4.21 4.08 0 0 4.21 4.07 0 0 4.21 4.07 0 0 4.21 4.07 0 0 8.42 4.07 0 0 4.21 4.07 0 0 8.42 4.07 0 0 8.42 4.08 0 0 8.42 4.06 0 0 12.63 4.08 0 0 16.84 4.07 0 0 33.68 4.07 0 0 715.68 8.14 0 0 -4.22 16.29 0 0 -4.2 16.28 0 0 -4.21 8.14 0 0 -4.22 8.15 0 0 -694.62 -4.07 0 0 -25.26 -4.08 0 0 -21.05 -4.06 0 0 -8.42 -4.08 0 0 -16.84 -4.07 0 0 -8.42 -4.07 0 0 -8.42 -4.07 0 0 -8.42 -4.07 0 0 -8.42 -4.07 0 0 -8.42 -4.07 0 0 -4.21 -4.08 0 0 -8.42 -4.07 0 0 -4.21 -4.07 0 0 -4.21 -4.07 0 0 -4.21 -4.07 0 0 -8.42 -4.07 0 0 -4.21 -4.08 0 0 -4.21 -8.14 0 0 -4.21 -4.07 0 0 -4.21 -4.07 0 0 -4.21 -4.07 0 0 -4.21 -4.07 0 0 -4.21 -8.14 0 0 -4.21 -4.08 0 0 -4.21 -8.14 0 0 -4.21 -8.14 0 0 -4.21 -8.15 0 0 -4.21 -8.14 0 0 -4.21 -8.14 0 0 -4.21 -16.28 0 0 -4.21 -8.15 0 0 -4.21 -16.28 0 0 -4.21 -32.57 0 0 -4.21 -301.28 0 0 8.42zm952.69 2037.59l-4.07 0 0 33.67 -4.07 0 0 46.31 -4.07 0 0 21.05 -4.08 0 0 25.26 -4.07 0 0 21.05 -4.07 0 0 16.84 -4.07 0 0 25.26 -4.07 0 0 16.84 -4.07 0 0 8.42 -4.08 0 0 16.84 -4.06 0 0 12.63 -4.08 0 0 12.63 -4.07 0 0 12.63 -4.07 0 0 8.42 -4.07 0 0 12.63 -4.07 0 0 8.42 -4.07 0 0 8.42 -4.07 0 0 8.42 -4.08 0 0 8.42 -4.07 0 0 8.41 -4.07 0 0 8.43 -4.07 0 0 8.42 -4.07 0 0 4.21 -4.07 0 0 8.42 -4.08 0 0 8.41 -4.06 0 0 4.21 -4.08 0 0 8.42 -4.07 0 0 4.21 -4.07 0 0 4.22 -4.07 0 0 4.2 -4.07 0 0 8.43 -4.07 0 0 4.2 -4.07 0 0 4.21 -4.08 0 0 4.22 -4.07 0 0 4.2 -4.07 0 0 4.21 -4.07 0 0 4.21 -4.07 0 0 4.21 -4.07 0 0 4.21 -4.08 0 0 4.21 -4.06 0 0 4.21 -4.08 0 0 4.21 -4.07 0 0 4.21 -4.07 0 0 4.21 -4.07 0 0 4.21 -4.07 0 0 4.21 -8.14 0 0 4.21 -4.08 0 0 4.21 -4.07 0 0 4.21 -8.14 0 0 4.21 -4.07 0 0 4.21 -4.07 0 0 4.21 -8.15 0 0 4.21 -4.07 0 0 4.21 -8.14 0 0 4.21 -8.14 0 0 4.21 -8.15 0 0 4.21 -4.07 0 0 4.21 -8.14 0 0 4.21 -8.14 0 0 4.21 -8.15 0 0 4.21 -8.14 0 0 4.21 -8.14 0 0 4.21 -12.21 0 0 4.21 -8.15 0 0 4.21 -12.21 0 0 4.21 -8.14 0 0 4.21 -12.22 0 0 4.21 -8.14 0 0 4.21 -16.29 0 0 4.21 -16.28 0 0 4.21 -16.28 0 0 4.21 -8.15 0 0 4.21 -8.14 0 0 12.63 -4.07 0 0 12.63 -4.07 0 0 8.42 -4.08 0 0 8.42 -4.06 0 0 8.42 -4.08 0 0 8.42 12.22 0 0 -4.21 12.21 0 0 -4.21 20.36 0 0 -4.21 8.14 0 0 -4.21 20.36 0 0 -4.21 8.14 0 0 -4.21 16.29 0 0 -4.21 12.21 0 0 -4.21 8.14 0 0 -4.21 12.21 0 0 -4.21 12.22 0 0 -4.21 8.14 0 0 -4.21 12.21 0 0 -4.21 8.15 0 0 -4.21 8.14 0 0 -4.21 8.14 0 0 -4.21 8.15 0 0 -4.21 8.14 0 0 -4.21 8.14 0 0 -4.21 4.07 0 0 -4.21 8.14 0 0 -4.21 8.15 0 0 -4.21 8.14 0 0 -4.21 4.07 0 0 -4.21 8.15 0 0 -4.21 4.07 0 0 -4.21 4.07 0 0 -4.21 8.14 0 0 -4.21 4.07 0 0 -4.21 8.15 0 0 -4.21 4.06 0 0 -4.21 4.08 0 0 -4.21 4.07 0 0 -4.21 8.14 0 0 -4.21 4.07 0 0 -4.21 4.07 0 0 -4.21 4.08 0 0 -4.21 4.07 0 0 -4.21 4.07 0 0 -4.21 4.07 0 0 -4.21 4.07 0 0 -4.21 4.07 0 0 -4.21 4.07 0 0 -4.21 4.08 0 0 -4.21 4.06 0 0 -4.21 4.08 0 0 -4.21 4.07 0 0 -4.21 4.07 0 0 -4.21 4.07 0 0 -8.42 4.07 0 0 -4.21 4.07 0 0 -4.21 4.08 0 0 -4.2 4.07 0 0 -4.22 4.07 0 0 -8.41 4.07 0 0 -8.43 4.07 0 0 -4.2 4.07 0 0 -8.43 4.07 0 0 -4.2 4.08 0 0 -8.43 4.06 0 0 -4.2 4.08 0 0 -8.43 4.07 0 0 -8.41 4.07 0 0 -8.42 4.07 0 0 -8.43 4.07 0 0 -8.41 4.07 0 0 -8.42 4.08 0 0 -8.42 4.07 0 0 -8.42 4.07 0 0 -12.63 4.07 0 0 -8.42 4.07 0 0 -12.63 4.07 0 0 -12.63 4.07 0 0 -12.63 4.08 0 0 -8.42 4.06 0 0 -21.05 4.08 0 0 -8.42 4.07 0 0 -16.84 4.07 0 0 -21.05 4.07 0 0 -21.05 4.07 0 0 -21.05 4.07 0 0 -21.05 4.07 0 0 -25.26 4.08 0 0 -25.25 4.07 0 0 -42.11 4.07 0 0 -42.1 4.07 0 0 -101.03 4.07 0 0 -50.52 4.07 0 0 -896.7 -4.07 0 0 -92.62 -4.07 0 0 -75.78 -4.07 0 0 -42.1 -4.07 0 0 -33.68 -4.07 0 0 -42.09 -4.08 0 0 -25.26 -4.07 0 0 -25.26 -4.07 0 0 -25.26 -4.07 0 0 -16.84 -4.07 0 0 -25.26 -4.07 0 0 -16.84 -4.07 0 0 -8.42 -4.08 0 0 -21.05 -4.06 0 0 -8.42 -4.08 0 0 -12.63 -4.07 0 0 -16.84 -4.07 0 0 -8.42 -4.07 0 0 -12.63 -4.07 0 0 -8.42 -4.07 0 0 -8.42 -4.07 0 0 -8.42 -4.08 0 0 -8.42 -4.07 0 0 -12.63 -4.07 0 0 -8.42 -4.07 0 0 -4.21 -4.07 0 0 -8.42 -4.07 0 0 -8.42 -4.08 0 0 -8.42 -4.06 0 0 -4.21 -4.08 0 0 -8.42 -4.07 0 0 -4.21 -4.07 0 0 -8.42 -4.07 0 0 -4.21 -4.07 0 0 -8.42 -4.07 0 0 -4.21 -4.07 0 0 -4.2 -4.08 0 0 -8.43 -4.07 0 0 -4.2 -4.07 0 0 -4.22 -4.07 0 0 -4.21 -4.07 0 0 -8.42 -4.07 0 0 -4.21 -4.08 0 0 -4.2 -4.06 0 0 -4.22 -4.08 0 0 -4.21 -4.07 0 0 -4.2 -4.07 0 0 -4.21 -4.07 0 0 -4.22 -4.07 0 0 -4.2 -4.07 0 0 -4.22 -4.07 0 0 -4.21 -8.15 0 0 -4.2 -4.07 0 0 -4.22 -4.07 0 0 -4.21 -4.07 0 0 -4.2 -4.07 0 0 -4.21 -8.14 0 0 -4.22 -4.08 0 0 -4.2 -4.07 0 0 -4.21 -8.14 0 0 -4.22 -4.07 0 0 -4.2 -8.14 0 0 -4.21 -4.08 0 0 -4.22 -8.14 0 0 -4.2 -4.07 0 0 -4.21 -8.14 0 0 -4.22 -8.15 0 0 -4.2 -8.14 0 0 -4.21 -8.14 0 0 -4.21 -8.14 0 0 -4.21 -8.15 0 0 -4.21 -8.14 0 0 -4.21 -8.14 0 0 -4.21 -8.15 0 0 -4.21 -12.21 0 0 -4.21 -8.14 0 0 -4.21 -12.22 0 0 -4.21 -8.14 0 0 -4.21 -12.21 0 0 -4.21 -12.21 0 0 -4.21 -16.29 0 0 -4.21 -16.28 0 0 -4.21 -16.29 0 0 -4.21 -12.21 0 0 -4.21 -20.36 0 0 -4.21 -20.36 0 0 8.42 4.07 0 0 8.42 4.08 0 0 8.42 4.06 0 0 8.42 4.08 0 0 12.63 4.07 0 0 8.42 4.07 0 0 4.21 16.29 0 0 4.21 16.28 0 0 4.21 8.14 0 0 4.21 20.36 0 0 4.21 8.14 0 0 4.2 12.21 0 0 4.22 12.22 0 0 4.21 12.21 0 0 4.2 8.15 0 0 4.22 12.21 0 0 4.21 8.14 0 0 4.2 8.14 0 0 4.22 12.22 0 0 4.21 8.14 0 0 4.2 4.07 0 0 4.22 8.15 0 0 4.21 8.14 0 0 4.2 8.14 0 0 4.21 4.07 0 0 4.22 8.14 0 0 4.2 4.08 0 0 4.21 8.14 0 0 4.22 4.07 0 0 4.2 8.14 0 0 4.22 4.08 0 0 4.21 4.07 0 0 4.2 4.07 0 0 4.21 8.14 0 0 4.22 4.07 0 0 4.2 4.07 0 0 4.21 4.08 0 0 4.22 4.06 0 0 4.2 4.08 0 0 4.21 4.07 0 0 4.22 4.07 0 0 4.2 4.07 0 0 4.21 4.07 0 0 4.22 4.07 0 0 4.2 4.08 0 0 4.21 4.07 0 0 8.42 4.07 0 0 4.21 4.07 0 0 4.21 4.07 0 0 8.42 4.07 0 0 4.21 4.07 0 0 4.21 4.08 0 0 8.42 4.06 0 0 8.42 4.08 0 0 4.21 4.07 0 0 8.42 4.07 0 0 8.42 4.07 0 0 8.42 4.07 0 0 8.42 4.07 0 0 8.42 4.08 0 0 8.42 4.07 0 0 8.42 4.07 0 0 8.42 4.07 0 0 12.63 4.07 0 0 12.63 4.07 0 0 8.42 4.07 0 0 16.84 4.08 0 0 12.63 4.06 0 0 16.84 4.08 0 0 8.42 4.07 0 0 21.05 4.07 0 0 25.26 4.07 0 0 16.83 4.07 0 0 25.26 4.07 0 0 29.47 4.08 0 0 25.26 4.07 0 0 33.68 4.07 0 0 29.47 4.07 0 0 33.68 4.07 0 0 117.88 4.07 0 0 1056.68 -4.07 0 0 42.09 -4.07 0 0 46.32zm-1074.83 -1031.43l0 21.05 4.07 0 0 12.63 4.07 0 0 8.42 4.07 0 0 4.21 4.07 0 0 8.42 4.08 0 0 4.21 4.06 0 0 4.21 4.08 0 0 4.21 4.07 0 0 4.21 4.07 0 0 4.21 4.07 0 0 4.21 8.14 0 0 4.21 8.15 0 0 4.21 8.14 0 0 4.21 12.21 0 0 4.21 8.14 0 0 4.21 431.57 0 0 -4.21 20.35 0 0 -4.21 8.15 0 0 -4.21 8.14 0 0 -4.21 4.07 0 0 -4.21 8.14 0 0 -4.21 4.08 0 0 -4.21 4.06 0 0 -4.21 4.08 0 0 -8.42 4.07 0 0 -4.21 4.07 0 0 -8.42 4.07 0 0 -8.42 4.07 0 0 -16.84 -20.36 0 0 4.21 -525.2 0 0 -4.21 -12.21 0 0 -4.21 -8.14 0 0 -4.21 -8.14 0 0 -4.21 -4.08 0 0 -4.21 -8.14 0 0 -4.21 -8.14 0zm-704.34 0l-4.08 0 0 4.21 -4.07 0 0 4.21 -8.14 0 0 4.21 -8.14 0 0 4.21 -12.22 0 0 4.21 -12.21 0 0 4.21 -525.2 0 0 -4.21 -12.22 0 0 -4.21 -4.07 0 0 16.84 4.07 0 0 12.63 4.08 0 0 4.21 4.07 0 0 8.42 4.07 0 0 4.21 4.07 0 0 4.21 4.07 0 0 4.21 4.07 0 0 4.21 4.08 0 0 4.21 4.06 0 0 4.21 8.15 0 0 4.21 8.14 0 0 4.21 8.14 0 0 4.21 20.36 0 0 4.21 423.42 0 0 -4.21 16.28 0 0 -4.21 8.15 0 0 -4.21 12.21 0 0 -4.21 4.07 0 0 -4.21 8.14 0 0 -4.21 4.08 0 0 -4.21 4.07 0 0 -4.21 4.07 0 0 -4.21 4.07 0 0 -4.21 4.07 0 0 -4.21 4.07 0 0 -4.21 4.07 0 0 -8.42 4.07 0 0 -8.42 4.08 0 0 -12.63 4.07 0 0 -21.05 4.07 0 0 -4.21 -8.14 0 0 4.21zm806.12 623.07l-16.29 0 0 4.21 -16.28 0 0 4.21 -12.21 0 0 4.21 -8.15 0 0 4.21 -4.07 0 0 4.21 -8.14 0 0 4.2 -4.07 0 0 4.22 -4.07 0 0 4.21 -4.08 0 0 4.2 -4.06 0 0 4.22 -4.08 0 0 8.41 -4.07 0 0 8.43 -4.07 0 0 8.42 -4.07 0 0 8.41 -4.07 0 0 21.06 8.14 0 0 -4.22 4.07 0 0 -4.21 8.15 0 0 -4.2 8.14 0 0 -4.22 8.14 0 0 -4.21 12.21 0 0 -4.2 517.06 0 0 4.2 24.43 0 0 4.21 8.14 0 0 -4.21 -4.07 0 0 -12.63 -4.07 0 0 -12.63 -4.07 0 0 -4.2 -4.07 0 0 -8.43 -4.07 0 0 -4.2 -4.08 0 0 -4.21 -4.06 0 0 -4.22 -4.08 0 0 -4.2 -4.07 0 0 -4.21 -8.14 0 0 -4.21 -4.07 0 0 -4.21 -12.22 0 0 -4.21 -8.14 0 0 -4.21 -16.29 0 0 -4.21 -411.2 0 0 4.21zm-1315.04 0l-12.21 0 0 4.21 -12.22 0 0 4.21 -8.14 0 0 4.21 -8.14 0 0 4.21 -4.08 0 0 4.21 -4.06 0 0 4.2 -8.15 0 0 4.22 -4.07 0 0 4.21 -4.07 0 0 8.42 -4.07 0 0 4.21 -4.07 0 0 8.42 -4.08 0 0 8.41 -4.07 0 0 16.84 8.15 0 0 -4.21 16.28 0 0 -4.2 517.06 0 0 4.2 16.29 0 0 4.21 8.14 0 0 4.22 8.14 0 0 4.2 8.14 0 0 4.21 4.07 0 0 4.22 8.15 0 0 -21.06 -4.07 0 0 -12.63 -4.08 0 0 -8.41 -4.07 0 0 -4.22 -4.07 0 0 -8.41 -4.07 0 0 -4.22 -4.07 0 0 -4.2 -4.07 0 0 -4.21 -4.07 0 0 -4.22 -4.07 0 0 -4.2 -8.15 0 0 -4.21 -4.07 0 0 -4.21 -8.14 0 0 -4.21 -8.14 0 0 -4.21 -16.29 0 0 -4.21 -16.28 0 0 -4.21 -415.28 0 0 4.21zm688.05 -1629.23l-73.28 0 0 4.21 -48.86 0 0 4.21 -40.71 0 0 4.21 -16.28 0 0 4.21 4.07 0 0 4.21 4.07 0 0 4.21 4.07 0 0 8.42 4.07 0 0 8.42 4.07 0 0 8.42 4.07 0 0 8.42 57 0 0 -4.21 65.15 0 0 -4.21 415.27 0 0 4.21 81.43 0 0 4.21 40.71 0 0 -4.21 4.07 0 0 -8.42 4.07 0 0 -8.42 4.07 0 0 -8.42 4.08 0 0 -4.21 4.07 0 0 -4.21 4.07 0 0 -4.21 4.07 0 0 -8.42 -48.85 0 0 -4.21 -89.58 0 0 -4.21 -109.92 0 0 -4.21 -285 0 0 4.21zm-142.49 2260.71l635.13 0 0 -54.73 -635.13 0 0 54.73zm814.26 -538.87l-4.06 0 0 4.22 -4.08 0 0 4.2 -4.07 0 0 4.21 -4.07 0 0 8.42 -4.07 0 0 8.43 -4.07 0 0 8.41 -4.07 0 0 25.26 -4.07 0 0 8.42 455.99 0 0 -12.63 -4.08 0 0 -25.26 -4.07 0 0 -8.42 -4.07 0 0 -8.41 -4.07 0 0 -4.22 -4.07 0 0 -8.41 -4.07 0 0 -4.22 -4.07 0 0 -4.21 -4.08 0 0 -4.2 -390.85 0 0 8.41zm-826.48 1014.58l-4.07 0 0 8.43 -4.07 0 0 8.42 -4.07 0 0 4.21 -4.07 0 0 8.42 -4.07 0 0 4.21 -4.07 0 0 8.41 48.85 0 0 4.22 52.93 0 0 4.2 85.5 0 0 4.21 362.35 0 0 -4.21 32.57 0 0 -4.2 81.43 0 0 -4.22 48.85 0 0 -4.21 -4.07 0 0 -4.2 -4.07 0 0 -4.21 -4.07 0 0 -8.42 -4.08 0 0 -4.21 -4.07 0 0 -8.42 -4.07 0 0 -8.43 -4.07 0 0 -8.41 -24.43 0 0 4.21 -73.28 0 0 4.2 -57 0 0 4.22 -362.35 0 0 -4.22 -65.14 0 0 -4.2 -40.71 0 0 -4.21 -36.65 0 0 8.41zm-557.77 -1018.79l-4.07 0 0 8.43 -4.07 0 0 4.2 -4.07 0 0 4.21 -4.07 0 0 8.42 -4.08 0 0 8.43 -4.06 0 0 16.83 -4.08 0 0 16.84 -4.07 0 0 8.42 455.99 0 0 -16.84 -4.07 0 0 -12.63 -4.07 0 0 -8.42 -4.07 0 0 -12.63 -4.08 0 0 -4.2 -4.06 0 0 -8.43 -4.08 0 0 -4.2 -4.07 0 0 -4.22 -4.07 0 0 -8.41 -390.85 0 0 4.2zm-28.5 -749.35l4.08 0 0 8.41 4.06 0 0 12.63 4.08 0 0 8.42 4.07 0 0 4.21 4.07 0 0 4.21 4.07 0 0 8.42 8.14 0 0 4.21 382.71 0 0 -4.21 8.14 0 0 -4.21 4.07 0 0 -8.42 4.08 0 0 -4.21 4.06 0 0 -8.42 4.08 0 0 -8.41 4.07 0 0 -12.63 4.07 0 0 -8.43 4.07 0 0 -16.83 -451.92 0 0 25.26zm1384.26 0l4.07 0 0 8.41 4.07 0 0 12.63 4.07 0 0 4.21 4.07 0 0 8.42 4.07 0 0 4.21 4.08 0 0 4.21 4.06 0 0 4.21 4.08 0 0 4.21 386.77 0 0 -4.21 4.08 0 0 -4.21 4.07 0 0 -8.42 4.07 0 0 -4.21 4.07 0 0 -4.21 4.07 0 0 -8.42 4.07 0 0 -8.42 4.07 0 0 -33.67 -447.84 0 0 25.26zm-785.77 -429.41l635.13 0 0 -50.52 -635.13 0 0 50.52zm728.77 1178.76l-16.29 0 0 4.21 -8.14 0 0 4.22 -8.14 0 0 4.2 -8.14 0 0 4.21 -4.08 0 0 4.22 -4.07 0 0 4.2 -4.07 0 0 4.21 -4.07 0 0 4.22 -4.07 0 0 8.41 -4.07 0 0 4.21 -4.08 0 0 8.42 -4.07 0 0 16.84 -4.07 0 0 8.42 73.29 0 0 -4.21 44.78 0 0 -16.84 4.07 0 0 -16.84 4.07 0 0 -12.63 4.08 0 0 -8.41 4.07 0 0 -8.43 4.07 0 0 -8.42 4.07 0 0 -4.21 4.07 0 0 -4.2 -69.21 0 0 4.2zm-77.36 -778.82l4.07 0 0 21.04 4.07 0 0 8.43 4.08 0 0 8.41 4.07 0 0 4.22 4.07 0 0 4.2 4.07 0 0 4.21 4.07 0 0 4.21 4.07 0 0 4.21 4.08 0 0 4.21 8.14 0 0 4.21 8.14 0 0 4.21 8.14 0 0 4.21 16.29 0 0 4.21 69.21 0 0 -4.21 -4.07 0 0 -8.42 -4.07 0 0 -4.21 -4.07 0 0 -8.42 -4.07 0 0 -8.42 -4.08 0 0 -12.63 -4.07 0 0 -16.83 -4.07 0 0 -16.84 -52.93 0 0 -4.22 -65.14 0 0 4.22zm675.84 -261.02l109.93 0 0 -21.04 -4.07 0 0 -12.63 -4.07 0 0 -8.43 -4.08 0 0 -8.41 -4.07 0 0 -8.42 -4.07 0 0 -4.21 -4.07 0 0 -4.22 -4.07 0 0 -4.2 -4.07 0 0 -4.21 -4.07 0 0 -4.22 -8.14 0 0 -4.2 -8.15 0 0 -4.21 -8.14 0 0 -4.22 -48.86 0 0 92.62zm-1490.11 1044.05l8.15 0 0 8.42 4.07 0 0 8.43 4.07 0 0 4.2 4.07 0 0 12.63 4.07 0 0 16.84 4.07 0 0 21.05 57 0 0 4.21 61.07 0 0 -8.42 -4.07 0 0 -12.63 -4.07 0 0 -12.63 -4.07 0 0 -4.21 -4.07 0 0 -8.41 -4.07 0 0 -4.22 -4.08 0 0 -4.21 -4.07 0 0 -4.2 -4.07 0 0 -4.22 -4.07 0 0 -4.21 -8.14 0 0 -4.2 -8.14 0 0 -4.22 -8.15 0 0 -4.21 -12.21 0 0 -4.2 -73.29 0 0 8.41zm85.5 -783.03l-52.92 0 0 4.21 -4.08 0 0 21.04 -4.07 0 0 16.85 -4.07 0 0 8.41 -4.07 0 0 8.42 -4.07 0 0 8.42 -4.07 0 0 4.21 -4.07 0 0 4.21 -4.08 0 0 4.21 65.15 0 0 -4.21 16.28 0 0 -4.21 16.29 0 0 -4.21 8.14 0 0 -4.21 4.07 0 0 -4.21 4.07 0 0 -4.21 4.07 0 0 -4.21 4.07 0 0 -4.21 4.08 0 0 -4.2 4.07 0 0 -8.43 4.07 0 0 -4.2 4.07 0 0 -12.63 4.07 0 0 -8.43 4.07 0 0 -12.63 -61.07 0 0 4.22zm-659.55 -349.42l-12.21 0 0 4.21 -8.15 0 0 4.2 -4.07 0 0 4.22 -8.14 0 0 4.21 -4.07 0 0 4.2 -4.08 0 0 8.43 -4.07 0 0 4.2 -4.07 0 0 4.22 -4.07 0 0 12.62 -4.07 0 0 12.63 -4.07 0 0 25.26 105.85 0 0 -92.62 -44.78 0 0 4.22zm2064.16 1633.43l32.58 0 0 -4.21 20.35 0 0 -4.21 8.14 0 0 -4.21 8.14 0 0 -4.21 4.08 0 0 -4.21 8.14 0 0 -4.21 4.07 0 0 -4.21 4.07 0 0 -8.42 4.07 0 0 -4.21 4.07 0 0 -8.42 4.08 0 0 -8.42 4.07 0 0 -33.68 -105.86 0 0 92.62zm-2125.23 -71.57l4.07 0 0 16.84 4.07 0 0 8.42 4.07 0 0 8.42 4.07 0 0 4.21 4.07 0 0 4.21 4.08 0 0 4.21 4.07 0 0 4.21 4.07 0 0 4.21 4.07 0 0 4.21 8.14 0 0 4.21 8.14 0 0 4.21 16.29 0 0 4.21 36.64 0 0 -92.62 -105.85 0 0 21.05zm122.14 -1204.03l4.07 0 0 12.63 4.07 0 0 8.43 4.07 0 0 8.41 4.07 0 0 8.42 4.08 0 0 4.21 4.06 0 0 4.21 4.08 0 0 4.21 8.14 0 0 4.21 4.07 0 0 4.21 8.14 0 0 4.21 8.15 0 0 4.21 16.28 0 0 4.21 12.21 0 0 -8.42 -4.06 0 0 -4.21 -4.08 0 0 -8.42 -4.07 0 0 -8.42 -4.07 0 0 -16.84 -4.07 0 0 -16.83 -4.07 0 0 -16.84 -20.36 0 0 -4.22 -16.29 0 0 -4.2 -16.28 0 0 -4.21 -8.14 0 0 21.04zm1974.6 -16.83l-16.29 0 0 4.2 -16.29 0 0 4.22 -12.21 0 0 4.21 -4.07 0 0 16.83 -4.07 0 0 21.06 -4.08 0 0 8.41 -4.06 0 0 8.42 -4.08 0 0 8.42 -4.07 0 0 8.42 -4.07 0 0 4.21 16.28 0 0 -4.21 12.22 0 0 -4.21 8.14 0 0 -4.21 8.15 0 0 -4.21 8.14 0 0 -4.21 4.07 0 0 -4.21 4.07 0 0 -4.21 4.07 0 0 -4.21 4.07 0 0 -8.42 4.08 0 0 -8.41 4.06 0 0 -8.43 4.08 0 0 -12.63 4.07 0 0 -21.04 -12.21 0 0 4.21zm-69.22 795.67l4.07 0 0 8.41 4.08 0 0 8.42 4.06 0 0 12.63 4.08 0 0 12.63 4.07 0 0 25.26 16.28 0 0 4.21 16.29 0 0 4.21 12.21 0 0 4.21 16.29 0 0 -16.84 -4.07 0 0 -12.63 -4.08 0 0 -8.42 -4.06 0 0 -8.42 -4.08 0 0 -8.41 -4.07 0 0 -4.22 -4.07 0 0 -4.21 -4.07 0 0 -4.2 -4.07 0 0 -4.22 -4.07 0 0 -4.21 -8.15 0 0 -4.2 -8.14 0 0 -4.22 -8.14 0 0 -4.21 -20.36 0 0 8.43zm-1828.03 -8.43l-16.28 0 0 4.21 -8.15 0 0 4.22 -8.14 0 0 4.2 -8.14 0 0 4.21 -4.07 0 0 4.22 -4.07 0 0 4.2 -4.08 0 0 4.21 -4.06 0 0 4.22 -4.08 0 0 8.41 -4.07 0 0 8.42 -4.07 0 0 12.63 -4.07 0 0 21.05 -4.07 0 0 4.21 16.28 0 0 -4.21 16.29 0 0 -4.21 12.21 0 0 -4.21 16.29 0 0 -25.26 4.07 0 0 -12.63 4.07 0 0 -12.63 4.07 0 0 -8.42 4.07 0 0 -8.41 4.08 0 0 -4.22 4.06 0 0 -8.41 -8.14 0 0 4.2zm610.7 997.75l0 -4.21 -16.28 0 0 -4.21 -4.07 0 0 8.42 20.35 0zm-146.57 -2715.38l0 -4.21 12.22 0 0 -4.21 -16.29 0 0 8.42 4.07 0zm1396.47 1035.63l4.07 0 0 -12.63 -8.14 0 0 4.21 4.07 0 0 8.42zm-1298.75 690.43l0 4.2 4.07 0 0 4.21 4.07 0 0 -12.63 -4.07 0 0 4.22 -4.07 0zm708.41 0l-4.07 0 0 -4.22 -4.07 0 0 12.63 4.07 0 0 -4.21 4.07 0 0 -4.2zm0 -719.9l0 -4.21 -4.07 0 0 -4.21 -4.07 0 0 8.42 8.14 0zm-1339.47 1667.12l0 4.21 8.14 0 0 -8.42 -4.07 0 0 4.21 -4.07 0z"/>
 </g>
</svg>
