<?xml version="1.0" encoding="UTF-8"?>
<!DOCTYPE svg PUBLIC "-//W3C//DTD SVG 1.1//EN" "http://www.w3.org/Graphics/SVG/1.1/DTD/svg11.dtd">
<!-- Creator: CorelDRAW (Versión de evaluación) -->
<svg xmlns="http://www.w3.org/2000/svg" xml:space="preserve" width="739px" height="2458px" version="1.1" style="shape-rendering:geometricPrecision; text-rendering:geometricPrecision; image-rendering:optimizeQuality; fill-rule:evenodd; clip-rule:evenodd"
viewBox="0 0 739 2457.4"
 xmlns:xlink="http://www.w3.org/1999/xlink"
 xmlns:xodm="http://www.corel.com/coreldraw/odm/2003">
 <defs>
  <style type="text/css">
   <![CDATA[
    .str0 {stroke:#4B4B4D;stroke-width:10;stroke-miterlimit:22.9256}
    .fil0 {fill:#FEFEFE}
   ]]>
  </style>
 </defs>
 <g id="tooth-fissure-full-13">
  <metadata id="CorelCorpID_0Corel-Layer"/>
  <path id="root" class="fil0 str0" d="M231.43 1.1c-102.9,-9.92 -50.72,47.08 -47.37,191.22l-24.31 405.98c13.53,3.36 15.43,9.94 35.04,14.51l48.98 -30.17c14.32,-11.81 22.95,-26.06 38.5,-36.48 -1.71,20.53 -6.84,13.98 -16.63,29.24l-10.48 19.76c-0.14,0.33 -0.6,1.56 -0.71,1.82l-18 7.5 -12.5 12.5c-13.32,8.92 -2.91,6.84 -20.82,8.33 0,29.78 -3.14,38.81 -12.5,58.32 29.12,43.49 12.47,17.19 13.87,36.84 0.79,11.17 9.97,29.18 11.13,46.47 1.35,20.13 -2.12,38.35 4.83,53.48 8.06,17.57 2.71,1.06 14.26,14.9 3.42,4.1 7.7,14.63 10.06,19.1 15.98,10.7 7.87,12.58 25,23.75 7.49,14.06 1.49,16.51 6.86,31.88 3.78,10.82 6.57,9.65 9.8,23.52 -10.64,-3.85 -8.58,-6.58 -16.66,-12.5 -8.9,5.96 -12.45,8.19 -18.27,19.22 -3.57,6.75 -3.95,10.36 -5.82,14.98 -9.57,23.66 8.67,-18.36 -2.66,6.1 -0.32,0.68 -1.5,3.44 -1.74,2.82 -0.25,-0.62 -1.21,1.85 -1.92,2.71l1.25 4.16c-3.29,2.86 0.04,6.6 -20.83,8.33 -0.93,11.09 -4.53,25.4 -8.33,33.33 13.69,3.66 4.39,-0.8 15.14,9.85 13.23,13.13 11.18,8.23 5.68,31.8l-8.33 8.34c-3.74,16.05 -9.2,23.35 -12.49,37.49 32.26,48.18 37.88,11.93 45.82,41.65l-41.66 -16.66 -13.31 45c-11.03,20.65 -7.52,21.77 -7.52,50.81l41.55 25.24c22.86,12.26 9.02,-3.66 50.1,-0.25 3.15,-11.81 -0.88,-6.1 8.33,-12.49 -2.85,11.89 0.63,6.27 -8.33,12.49l0 12.5 4.16 8.33 4.17 8.33c9.82,7.2 11.16,13.14 12.5,29.16l-8.33 0c0,-16.44 -1.32,-16.9 -4.17,-29.16l-4.17 -8.33c-11.88,-2.84 -6.26,0.63 -12.49,-8.33 -13.3,-6.15 -28.98,5.75 -58.32,-8.33 1.9,17.38 -3.38,6.09 5.6,15.23 9.13,9.28 -1.77,3.74 15.23,5.6 -13.59,18.55 -21.89,1.69 -37.49,24.99 10.02,4.81 5.41,4.17 20.82,4.17l0 4.16c-9.74,0 -10.77,1.25 -16.66,4.17 5.19,7.74 8.87,13.82 14.94,22.55 8.76,12.58 10.56,9.57 14.22,23.27 5.64,0 4.56,-1.31 2.92,4.17 10.13,6.18 6.47,-0.48 9.32,13.25l-9.32 -4.92c-9.57,-7.95 -3.33,-5.1 -15.42,-8.33 -13.5,-1.13 -14.96,-2.94 -26.39,-7.35 -19.86,-7.66 -48.57,10.19 -40.26,28.18 -14.15,1.17 -15.25,3.17 -24.99,8.33 2.14,8.08 0.76,6.44 4.16,12.49l4.17 4.17c13.89,10.17 4.5,-3.24 9.52,15.47 1.69,6.28 2.17,8.12 2.98,17.85l4.86 0.7 -4.86 3.47 0 -4.17c-2.69,-3.09 -2.69,-1.38 -5.5,-7 -4.01,-8.01 -1.08,-2.29 -3.06,-9.43 -1.95,-7.02 -2.24,-9.59 -3.94,-16.89l-4.17 -4.17c-20.87,0.47 -28.36,6.1 -49.39,7.83 -6.32,85.01 -9.82,153.93 -7.96,185.59 95.83,-7.49 140.54,-135.67 268.94,-115.09 100.49,16.1 150.33,124.13 246.76,151.8 -33.53,-180.86 -32.01,-480.6 -65.15,-682.47 -36.29,-221.23 -57.18,-384.57 -136.96,-606.75 -42.14,-117.4 -160.65,-314 -161.28,-339.93zm-72.39 609.06l-11.72 195.82c-1.97,14.46 -4.39,33.76 -7.13,56.79 13.14,-12.22 34.94,-12.81 25.44,-33.34 45.86,9.71 27.27,-24.64 25.28,-54.71 -2.09,-31.48 6.95,8.98 -2.87,-42.63 -4.64,-24.38 6.85,-30.95 -14.07,-35.96 1.44,-17.33 6.33,-18.34 10.99,-34.3 10.72,-36.7 -7.89,-44.32 -25.92,-51.67zm-19.23 255.87c-13.27,112.2 -33.75,309.53 -47.3,473.13 5.13,-1.58 3.03,1.51 -0.25,2.98 -1.67,20.17 -3.23,39.82 -4.65,58.71 13.08,-3.38 22.91,4.17 37.15,-12.44 26,-30.32 25.47,-15 20.05,-38.27 12.53,5.79 25.47,-1.78 33.32,-12.5 -22.99,-1.92 -11.17,-7.88 -29.16,4.16 1.43,-17.16 6.35,-15.01 -4.16,-24.99l12.49 0 0 -8.33c0.24,-10.55 2.38,-22.12 5.11,-32.39 2.75,-10.38 5.85,-13.12 9.28,-28.2 8.25,-36.24 -8.36,-27.02 12.03,-62.96 10.49,-18.5 10.34,-35.93 18.52,-57.07 9.51,-24.56 -15.79,-21.73 -24.65,-16.03l-7.79 9.19c-2.97,-35.64 -14.67,-1.3 -33.33,-29.16 15.86,0 19.43,1.73 32.49,5.2 27.94,7.42 27.22,3.16 37.7,-18.32 0.42,-0.86 0.96,-1.93 1.41,-2.76l15.88 -21.61c3.22,-15.21 2.76,-18.59 -11.09,-30.59 -14.5,-12.55 -18.04,-6.62 -34.73,-2.73l-8.96 2.29 8.96 -2.29c13.34,-18.21 8.19,2.01 22.85,-18.8 6.77,-9.61 7.75,-15.32 10.48,-27.02 11.24,-0.94 11.33,-1.96 20.82,-4.17 1.31,-15.34 -1.5,-6 4.17,-15.42 15.5,-34.48 16.76,-25.03 24.34,-39.37 7.78,-14.71 1.79,-26.29 -3.51,-38.1l-7.98 1.03 -4.52 -8.12c-4.93,-5.67 0.85,3.07 -5.48,-7.01 -8.71,-13.92 -5.9,-19.95 -27.84,-34.64 -15.65,10.48 -51.34,30.61 -71.65,36.6zm138.3 275.82l1.24 -1.24c-0.08,0.08 -1.66,0.83 -1.24,1.24zm-54.16 -283.26l1.25 -1.24c-0.09,0.08 -1.66,0.82 -1.25,1.24zm79.15 41.66l1.24 -1.25c-0.08,0.08 -1.65,0.83 -1.24,1.25zm-120.8 -95.82l1.24 -1.24c-0.08,0.08 -1.66,0.83 -1.24,1.24zm-33.33 487.39l1.24 -1.25c-0.08,0.09 -1.65,0.83 -1.24,1.25zm87.48 -233.28l1.24 -1.24c-0.08,0.08 -1.65,0.83 -1.24,1.24zm62.49 316.59l0.1 1.85c3.87,-0.36 -5.83,7.95 1.3,-0.45l0.44 -1.3c-0.01,-0.02 -0.68,-0.17 -0.7,-0.19 -0.03,-0.02 -0.87,-0.18 -1.14,0.09zm-187.46 -87.48c0,10.35 6.66,1.07 2.58,0 -0.05,-0.01 -2.58,-11.82 -2.58,0zm20.83 0c0,10.35 6.66,1.07 2.58,0 -0.05,-0.01 -2.58,-11.82 -2.58,0zm129.13 -149.96c0.17,1.37 4.6,0.93 4.97,0.79 1.04,-0.39 7.24,9.64 1.81,-1.12l-2.17 -0.98c-3.23,-0.07 -5.67,-7.27 -4.61,1.31zm-124.97 412.4c-2.14,11.58 9.94,-2 4.13,-1.64 -7.8,0.49 -2.53,-6.97 -4.13,1.64zm295.77 -587.36c-2.05,11.1 8.32,-0.72 5.28,-1.52 -8.36,-2.21 -4.11,-4.82 -5.28,1.52zm-199.96 341.58c4.28,4.28 15.07,-5.99 4.84,-2.24 -0.11,0.03 -11.83,-4.75 -4.84,2.24zm299.93 -16.66l12.5 0 0 -4.16c-22.03,0 -6.21,0.02 -12.5,4.16l-16.66 0 0 4.17c2.32,0 6.8,0.08 8.05,-0.28 7.37,-2.12 4.63,-1.36 8.61,-3.89zm-304.09 191.62c3.4,-6.05 2.02,-4.41 4.16,-12.5l-8.33 4.17c-0.11,0.18 -7.47,-4.05 -3.73,11.7 1.91,7.99 2.12,4.89 7.9,9.13l0 -12.5zm58.32 -341.58l12.5 0 0 -4.17 -12.5 0 0 4.17zm70.81 137.46l4.17 4.17c0,1.89 -0.34,11.5 -0.17,12.67l4.34 12.32 0 16.67c-16.48,11.03 -8.58,14.17 -27.37,26.78 -11.91,8 -23.6,13.16 -30.95,23.2 16.93,0 23.97,-2.95 34.07,-7.58 22.28,-10.22 31.28,-24.91 42.58,-40.73 30.79,-43.08 21.78,-13.15 80.71,-19.3 27.29,-2.84 21.57,6.4 37.81,-3.68l6.79 -5.84c0.45,-0.39 1.41,-1.37 2.15,-2.01 -43.17,0 -73.12,-4.17 -112.47,-4.17 -5.55,8.29 -7.58,11.54 -12.5,20.83l-12.49 0 0 -4.17c-6.69,-13.93 -1.65,-19.39 -8.33,-33.32l-8.34 -4.17 -54.15 -41.65c5.97,22.36 36.15,37.93 54.15,49.98zm-102.89 145.8l11.25 -11.25c7.53,-10.55 14.35,-16.56 20.83,-26.24 -37.45,3.12 -11.07,-1.03 -29.16,-8.33 -8.65,20.94 5.89,-3.38 -3.37,17.49 -5.23,11.81 -24.93,31.18 -25.79,69.99l26.24 -41.66zm77.9 -420.73c-3.17,-2.75 -1.17,-2.77 -7.02,-5.47 -8.48,-3.91 -1.96,-1.07 -9.64,-2.86 9.41,12.84 -2.71,6.68 16.66,8.33zm-29.16 133.3l20.83 0 0 -4.16 -20.83 0 0 4.16zm-87.48 -199.95c10.53,-7.71 12.5,-10.7 12.5,-29.16l-4.17 0c0,15.13 -4.94,14.61 -8.33,29.16zm33.33 266.6c-1.36,-16.28 2.52,-12.65 -12.5,-16.66 1.35,16.28 -2.52,12.65 12.5,16.66zm24.99 -199.95c-2.21,-9.5 -3.23,-9.58 -4.16,-20.83l-12.5 0c3.65,13.69 6.04,13.72 16.66,20.83zm-87.48 -91.64l8.33 0c-0.41,-18.75 -1.48,-21.09 -12.49,-29.16 0,16.44 1.31,16.9 4.16,29.16zm-12.49 -45.83c3.15,5.62 2.27,4.61 4.16,12.5l12.5 0c2.92,-11.02 -0.33,-3.42 4.16,-12.5 -8.98,-7.5 -19.22,-1.96 -20.82,0zm-49.99 466.56l-12.5 0 0 16.66 16.02 -13.21c3.99,13.26 0.59,9.86 13.14,13.21 -2.28,-10.77 -1.08,-12.92 -1.92,-16.64 -3.59,-15.77 -4.6,0.97 -6.41,-20.85l-12.5 0c2.21,9.5 3.21,9.58 4.17,20.83zm66.65 -4.17c15.54,8.23 19.41,10.44 29.16,25 -24.07,-2.01 -28.53,-2.05 -29.16,-25zm-4.17 -87.48c-1.14,-6.04 2.72,-16.71 3.14,-3.14 0.17,5.41 -1.03,14.26 -3.14,3.14z"/>
  <path id="crown" class="fil0 str0" d="M326.71 2444.63c60.81,-3.66 110.62,49.56 253.84,-37.65l-9.16 -35.78c-16.23,-52.7 5.21,-42.15 -18.76,-69.92l-2.92 -8.33 -24.99 -29.16c-11.33,7.58 -35.97,23.83 -49.99,24.99 14.56,-27.51 30.23,-18.93 36.24,-39 3.05,-10.21 -3.84,-53.7 -7.08,-60.99 -9.75,-2.44 0.09,-4 -16.66,0.02 -2.49,3.71 -3.23,5.27 -6.73,9.93 -8.37,11.14 1.28,-1.38 -5.77,6.73 -1.34,16.05 -4.17,13.43 -4.17,33.32 -13.4,-9.82 -5.68,1.49 -9.54,-19.61 -7.71,-42.08 -3.45,-25.18 -20.85,-33.3l-48.8 -30.35c-15.81,-9.22 -20.75,-5.82 -33.28,-16.71 20.63,0 18.76,1.23 34.73,7.27 31.32,11.83 -4.39,-8.57 32.04,13.31 0.83,0.5 2.07,0.84 2.91,1.33 0.82,0.48 2.01,0.88 2.82,1.38l12.08 8.76c3.71,1.94 24.09,8.72 27.89,9.6l4.17 0 33.32 -24.99c-1.8,-7.73 0.7,-1.85 -2.89,-9.6 -2.73,-5.88 -2.66,-3.87 -5.44,-7.06l0 8.33c-19.1,-14 -6.78,-37.49 -41.65,-37.49l29.16 -4.17c6.71,10.03 11.1,11.29 17.57,19.92 7.01,9.37 6.78,15.9 11.59,25.91 11.24,-0.94 11.33,-1.96 20.82,-4.17 -9.72,13.27 -6.93,3.39 -16.52,17.29l24.85 -4.79c-4.27,3.71 -0.04,0.61 -7.2,5.29 -9.08,5.93 -14.23,6 -17.13,21.12 -11.95,62.29 19.82,68.99 36.83,94.39l4.17 4.17 0 4.16c5.64,0 4.55,-1.31 2.92,4.17 14.19,-3.31 6.33,-0.59 17.91,-8.33l4.16 -8.33c7.04,-15.22 -3.63,-23.9 -8.48,-41.51 -5.09,-18.46 -1.65,-28.42 -13.59,-41.81l-7.76 -0.57 7.76 -7.76c-2.56,-21.31 -9.45,-6.8 -15.42,-29.16 24.5,2.68 1.27,-1.83 20.83,12.5 10.08,-21.8 -0.39,-7.77 -5.48,-19.61 -3.57,-8.32 1.39,-10.52 8.39,-4.9 6.88,5.54 15.11,31.13 22.08,41.17 -15.56,23.24 -20.12,17.97 -7.19,48.8 5.38,12.83 18.79,36.08 28.02,42.85 24.01,-5.6 7.79,-6.59 24.39,-17.27 4.01,-2.58 4.35,-1.36 8.94,-3.56 -4.39,16.41 0.69,-0.4 -6.25,14.58 -3.06,6.61 -3.65,9.15 -6.25,14.58l-13.74 0c-1.62,5.25 6.75,4.16 -5.85,4.16l-6.65 4.17 -4.16 8.33 9.57 29.16c-17.14,-5.68 7.6,-13.24 -20.83,-20.83 0,50.75 12.25,22.04 15.4,47.88 1.71,14.04 4.93,19.61 8.42,24.62 82.42,-51.86 126.43,-62.09 118.27,-179.12 -2.98,-42.78 -9.07,-84.74 -17.25,-126.14 -18.12,1.86 -26.17,7.81 -54.02,7.81 20.92,-18.18 32.03,1.82 50.77,-20.04l0.61 -0.71c-3.13,-15.01 -6.52,-29.95 -10.13,-44.83l-3.76 3.1 0 -16.66 0.4 0c-28.17,-111.86 -67.79,-220.6 -98.36,-331.5l-245.94 -165.8c-64.78,-22.43 -103.27,8.29 -149.53,42.53 -172.76,127.89 -109.41,-18.39 -156.25,247.17 -9.08,51.41 -20.94,108.61 -29.5,160.01 -55.07,330.36 -5.2,189.98 15.36,305.86 0.27,43.29 100.91,70.41 137.37,92.3 18.3,10.99 49.6,33.53 66.76,46.4 33.76,25.34 42.17,44.83 82.56,42.14zm265.84 -45.16c3.15,-2.02 6.33,-4.08 9.58,-6.24 3.9,-2.59 7.73,-5.08 11.48,-7.48 -1.97,-3.92 -3.72,-8.7 -7.5,-15.9 -6,-11.42 -4.84,-12.9 -23.07,-14.42 4.12,17.73 7.2,29.08 9.51,44.04zm-9.51 -114.85l4.16 -8.33c8.09,-2.15 6.44,-0.77 12.5,-4.17 -1.42,16.98 -2.14,16.95 -16.66,20.83l0 -8.33zm-8.34 -245.78l1.25 -1.24c-0.08,0.08 -1.66,0.83 -1.25,1.24zm-37.49 104.14l1.25 -1.24c-0.09,0.08 -1.66,0.83 -1.25,1.24zm-170.79 -208.28l4.17 0 -3.47 -4.86 -0.7 4.86c-17.17,12.58 -13.87,28.17 -22.07,49.99 -10.22,7.52 -3.73,2.2 -5.85,8.33 -27.45,15.4 -18.12,29.4 -39.97,41.66l-11.26 11.25 -12.49 9.58c-5.59,-4.23 8.76,-4.17 -12.5,-4.17l0 4.17 12.5 0c-5.5,20.57 -7.75,2.75 -8.33,29.15 -5.51,0 -15.23,-0.59 -20.28,-0.31l-18.46 4.48 -22.51 0 -39.97 0 -15.42 0c-0.87,-0.55 -2.26,-2.3 -2.71,-1.46l-54.06 -16.75c-25.33,-5.73 -23.6,-20.77 -55.71,-23.45l20.22 13.46c10.02,8.45 7.45,7.23 4.78,19.87 9.19,-3.33 7.31,-12.77 43.07,2.75l44.41 22.24c5.64,0 4.55,1.31 2.92,-4.16 26.83,12.06 37.6,10.59 69.14,4.16l5.84 0 38.74 0c0,16.85 4.82,39.31 17.9,48.75 3.67,12.27 7.7,16.72 11.88,29.77 6.61,20.63 -1.97,17.73 16.04,29.79 -0.94,-11.25 -1.96,-11.33 -4.17,-20.83 11.25,-0.93 11.33,-1.95 20.83,-4.16l0 -8.34c-9.5,2.22 -9.58,3.23 -20.83,4.17 -6.17,-26.5 -1.1,-31.37 -9.57,-41.66 2.62,-14.09 2,-5.34 -2.93,-8.33 -3.68,9.88 2.5,5.46 -8.33,8.33 2.7,-10.17 -1.84,-5.63 8.33,-8.33l0 -2.92c-2.05,-10.06 -3.1,-16.95 -5.72,-28.86 -0.13,-0.59 -3.68,-12.64 -3.77,-12.87l-7.17 -13.67c9.28,-6.21 11.54,-8.59 19.08,-18.41 14.78,-19.26 16.74,-9.14 28.11,-26.05 14.61,-21.72 2.22,-9.6 24.01,-21.89 7.06,-3.99 2.92,-1.22 7.95,-5.71l8.33 1.25c15.97,-4.27 6,-4.79 23.29,-10.04 13.61,-4.14 14.78,-0.9 26.7,-6.63l12.5 0 -4.17 -8.33 0 -8.33c-15.56,4.16 -4.95,6.75 -20.83,12.5 1.93,-8.3 2.69,-14.62 5.12,-24.04 2.41,-9.36 4.71,-10.35 7.38,-21.78l8.33 -8.33 7.63 9.02c1.49,1.67 7.53,7.93 8.03,8.64 8.08,11.43 3.41,11.65 9.33,23.99l-16.5 4.68 -0.16 11.98c24.27,0 18.63,1.51 33.33,-8.33l16.66 12.5 8.33 0 12.5 0c15.89,-59.52 7.1,-27.24 45.82,-45.82l16.66 0 8.13 4.79c-3.54,-18.93 -4.94,-11.65 16.01,-26.46l9.19 -7.49c9.2,6.4 5.17,0.68 8.33,12.5 15.73,-8.33 15.45,-8.28 33.89,-0.7 14.57,6 20.62,13.56 36.93,17.36l0 4.16 4.86 -3.47 -4.86 -0.69c-11.53,-17.22 -17.04,-12.54 -28.53,-29.79 -12.49,-18.75 -9.85,-23.68 -21.46,-41.03 3.29,-12.32 1.69,-6.75 8.33,-16.66 -11.78,-5.65 -11.88,-2.4 -21.3,-12.02l-3.7 -4.64c2.02,24.17 7.1,18.18 -4.16,41.65l-4.17 8.34c-19.28,1.6 -17.66,2.94 -26.8,14.85 -7.94,10.35 -12.42,12.78 -19.02,22.64l-8.33 4.16c-5.48,2.63 -6.65,3.87 -15.11,5.69 -23.12,4.98 -2.78,-9.33 -25.38,16.25 -31.2,35.29 -54.82,-17.17 -60.6,-24.99l-34.63 -48.68c-5.84,-13.46 1.21,-7.39 -11.63,-17.53 -10.95,-8.63 -6.59,-1.32 -15.11,-14.05l0 -12.5c7.67,-11.45 10.98,-15.09 12.5,-33.32 -21.48,4.54 -18.29,-3.96 -38.98,6.79 -22.55,11.71 -16.72,9.87 -48.5,9.87 10.97,14.98 10.28,6.24 33.02,8.64 13.65,1.44 17.28,6.66 33.63,8.02l0 8.33c0.51,23.16 -0.16,8.36 16.58,41.74 5.24,10.45 16.38,26.88 25.08,33.24l-4.17 8.34 0 4.16c-13.85,10.15 -12.9,19.73 -22.53,31.63 -7.25,8.96 -4.28,3.24 -13.86,11.13 -6.85,5.64 -9.23,9.03 -13.6,15.56l-11.25 0c-6.7,-4.31 -5.41,6.79 -5.41,-8.33l9.17 -15.82c9.25,-19.46 7.49,-11.42 7.49,-34.17zm70.82 495.71c0,10.35 6.66,1.07 2.58,0 -0.05,-0.01 -2.58,-11.81 -2.58,0zm-370.75 -337.41c0,10.35 6.66,1.06 2.59,0 -0.05,-0.02 -2.59,-11.82 -2.59,0zm508.21 -8.34c0,10.35 6.66,1.07 2.59,0 -0.05,-0.01 -2.59,-11.81 -2.59,0zm-441.56 74.99c0.18,1.37 4.6,0.93 4.97,0.79 1.04,-0.39 7.24,9.64 1.81,-1.12l-2.17 -0.99c-3.23,-0.07 -5.67,-7.26 -4.61,1.32zm595.69 66.65c-2.14,11.58 9.94,-2 4.13,-1.64 -7.8,0.49 -2.54,-6.97 -4.13,1.64zm-387.4 -41.66c4.28,4.28 15.06,-5.99 4.83,-2.25 -0.1,0.04 -11.83,-4.74 -4.83,2.25zm337.42 -166.63c4.27,4.28 15.06,-5.99 4.83,-2.24 -0.1,0.03 -11.83,-4.75 -4.83,2.24zm-329.09 145.8c0.88,4.76 9.16,9.11 5.6,0.84 -1.5,-3.48 -7.6,-11.66 -5.6,-0.84zm237.44 -154.13c8.96,-6.23 5.49,-0.61 8.33,-12.49 -9.2,6.39 -5.17,0.68 -8.33,12.49l-9.16 7.5c11.46,3.67 7.11,-2.7 13.33,9.19 -5.35,15.82 0,11.1 0,33.3l8.33 0c0,-15.57 -2.08,-20.07 -4.17,-33.3 5.14,0.82 4.17,11.11 4.17,-4.19l-12.5 -12.5zm-179.12 437.4c29.32,-0.66 17.7,-10.3 16.66,-12.5 -7.9,-2.79 -8.83,5.34 -9.84,6.29l-4.49 4.25c-0.47,0.43 -1.57,1.29 -2.33,1.96zm145.8 -508.21c0,-8.47 -0.73,-1.71 4.52,-1.24 12.52,1.12 -0.6,-8.18 1.92,1.24 2.52,9.38 -6.44,4.89 -6.44,0zm-66.65 249.94l-8.34 -4.17 8.12 -4.52 0.22 8.69zm58.31 -62.49c0,20.13 2.23,17.97 8.34,25l0 -37.5c-7.02,4.88 -8.34,0.6 -8.34,12.5zm-166.62 -299.93l0 4.17 -4.86 -3.47 4.86 -0.7zm4.16 -4.16l-4.16 4.16 4.16 -4.16zm0 0l0 -4.17 4.86 3.47 -4.86 0.7zm241.61 58.32l0 24.99 -4.16 0c0,-22.13 -12.74,-12.61 4.16,-24.99zm-120.8 291.59l1.24 1.25c-0.08,-0.08 -1.66,-0.83 -1.24,-1.25zm-4.17 -33.32l-4.79 -8.12 4.79 8.12z"/>
 </g>
</svg>
