<?xml version="1.0" encoding="UTF-8"?>
<!DOCTYPE svg PUBLIC "-//W3C//DTD SVG 1.1//EN" "http://www.w3.org/Graphics/SVG/1.1/DTD/svg11.dtd">
<!-- Creator: CorelDRAW (Versión de evaluación) -->
<svg xmlns="http://www.w3.org/2000/svg" xml:space="preserve" width="739px" height="2458px" version="1.1" style="shape-rendering:geometricPrecision; text-rendering:geometricPrecision; image-rendering:optimizeQuality; fill-rule:evenodd; clip-rule:evenodd"
viewBox="0 0 739 2457.4"
 xmlns:xlink="http://www.w3.org/1999/xlink"
 xmlns:xodm="http://www.corel.com/coreldraw/odm/2003">
 <defs>
  <style type="text/css">
   <![CDATA[
    .str0 {stroke:#4B4B4D;stroke-width:10;stroke-miterlimit:22.9256}
    .fil0 {fill:#FEFEFE}
   ]]>
  </style>
 </defs>
 <g id="tooth-fissure-full-26">
  <metadata id="CorelCorpID_0Corel-Layer"/>
  <path id="crown" class="fil0 str0" d="M271.74 2284.42l-8.34 0 0 8.33 8.34 0 0 -8.33zm2.75 62.49c-8.82,20.57 -16.63,41.07 -23.56,55.31 -38.25,78.64 -61.87,53.36 -100,42.73l0 -2.23 8.33 0 0 -4.17 4.17 0 0 -4.16 8.33 0 0 -4.17 8.33 0 0 -4.16 4.17 0 0 -4.17 4.16 0 0 -4.17 4.17 0 0 -8.33 4.16 0 0 -4.16 4.17 0 8.33 0 0 -16.67 -4.16 0 0 -8.33 4.16 0 0 -12.49 12.5 0 0 -8.34 4.16 0 0 -4.16 4.17 0 0 -4.17 4.16 0 0 -4.16 8.34 0 0 -4.17 4.16 0 0 4.17 12.5 0 0 -4.17 4.16 0 4.17 0 0 4.17 6.92 0zm-136.05 95.31c-2.7,-0.4 -5.48,-0.69 -8.34,-0.84l0 -6.99 -2.38 0c-2.96,-10.67 -9.89,-27.48 -19.1,-49.99l4.82 0 0 4.16 8.33 0 0 4.17 8.33 0 0 4.17 8.34 0 0 4.16 -4.17 0 0 8.33 4.17 0 0 16.67 -4.17 0 0 4.16 -4.17 0 0 4.17 8.34 0 0 7.83zm-31.52 -61.99c-40.85,-100.01 -121.73,-305.27 -105.06,-579.02l3.27 0 0 4.16 0 12.5 4.17 0 0 -4.17 4.16 0 0 -16.66 -4.16 0 0 -4.16 -6.92 0c0.09,-1.39 0.21,-2.78 0.31,-4.17l2.44 0 0 -16.66 -1.15 0c2.43,-28.47 5.94,-57.65 10.65,-87.48l7.17 0 0 -4.17 12.49 0 0 -4.16 8.34 0 0 -4.17 4.16 0 0 4.17 8.33 0 0 4.16 8.33 0 0 4.17 8.33 0 0 4.16 4.17 0 0 4.17 4.17 0 0 8.33 -4.17 0 0 4.17 12.5 0 0 4.16 8.33 0 0 4.17 4.16 0 0 8.33 -4.16 0 0 4.17 -4.17 0 0 4.16 -4.16 0 0 4.17 -4.17 0 0 16.66 -4.16 0 0 12.5 -4.17 0 0 4.16 4.17 0 0 -4.16 4.16 0 0 -8.34 4.17 0 0 -16.66 4.16 0 0 -8.33 4.17 0 0 -4.16 16.66 0 0 4.16 16.66 0 0 4.17 29.16 0 0 -4.17 -8.33 0 0 -4.16 -29.16 0 0 -4.17 -8.33 0 0 -4.17 -4.16 0 0 -4.16 -4.17 0 0 -8.33 -4.17 0 0 -4.17 -8.33 0 0 -4.16 -4.16 0 0 -4.17 -4.17 0 0 -8.33 4.17 0 0 -8.33 -4.17 0 0 4.16 -8.33 0 0 -4.16 -8.33 0 0 -4.17 -8.33 0 0 -4.16 -4.17 0 0 -4.17 12.5 0 0 -4.17 8.33 0 0 4.17 4.17 0 0 4.17 4.16 0 0 -12.5 -4.16 0 0 -8.33 8.33 0 0 -4.17 -12.5 0 0 -8.33 0 -14.85c2.66,-0.61 5.27,-1.21 7.82,-1.81l0.51 0 0 -0.12c4.27,-1.01 8.41,-2.03 12.5,-3.14l0 3.26 4.16 0 0 -4.44c14.56,-4.23 28.72,-9.94 45.83,-20.54l0 4.15 -4.17 0 0 4.16 4.17 0 0 -4.16 8.33 0 0 -4.17 8.33 0 0 -4.16 8.33 0 0 -4.17 4.17 0 0 -4.16 12.49 0 0 -4.17 12.5 0 0 -4.16 4.17 0 0 4.16 8.33 0 0 4.17 4.16 0 0 -8.33 4.17 0 0 -4.17 4.16 0 0 4.17 8.33 0 0 4.16 4.17 0 0 4.17 8.33 0 0 4.16 4.17 0 0 4.17 4.16 0 0 4.16 -4.16 0 0 8.33 8.33 0 0 -4.16 16.66 0 4.17 0 0 4.16 20.83 0 0 4.17 8.33 0 0 4.17 4.16 0 0 4.16 4.17 0 0 8.33 -4.17 0 0 8.34 4.17 0 0 4.16 4.16 0 0 8.33 12.5 0 8.33 0 4.17 0 0 -4.16 4.16 0 0 -4.17 4.17 0 0 -4.16 8.33 0 0 4.16 4.17 0 0 4.17 24.99 0 0 -12.5 -8.33 0 0 -4.17 -8.33 0 0 -4.16 4.16 0 0 -16.67 4.17 0 0 -4.16 4.16 0 0 -4.17 4.17 0 0 -4.16 4.17 0 0 -8.33 4.16 0 0 4.16 4.17 0 0 4.17 4.16 0 0 8.33 4.17 0 0 8.33 4.16 0 0 20.83 4.17 0 0 8.33 -8.33 0 0 -8.33 -4.17 0 0 -4.17 -8.33 0 0 8.34 -4.16 0 0 8.33 12.49 0 4.17 0 0 4.16 20.83 0 0 4.17 12.49 0 0 4.16 4.17 0 0 4.17 8.33 0 8.33 0 0 4.16 12.5 0 0 4.17 8.33 0 0 4.17 4.17 0 0 4.16 4.16 0 0 8.33 4.17 0 0 8.33 8.33 0 0 4.17 4.16 0 0 4.17 8.34 0 0 4.16 4.16 0 0 8.33 4.17 0 0 4.17 4.16 0 0 4.16 4.17 0 0 4.17 4.16 0 0 4.17 4.17 0 0 8.33 -8.33 0 0 16.66 -4.17 0 0 20.83 -4.16 0 0 8.33 0 4.16 8.33 0 0 8.34 -8.33 0 0 -8.34 -4.17 0 0 8.34 -4.16 0 0 33.32 -4.17 0 0 8.33 -12.5 0 0 -4.16 -8.33 0 0 8.33 8.33 0 0 4.16 12.5 0 0 8.33 -4.17 0 0 12.5 4.17 0 0 -4.16 4.17 0 0 -4.17 4.16 0 0 -16.66 4.17 0 0 -12.5 4.16 0 0 -8.33 4.17 0 0 -8.33 4.16 0 0 -4.17 4.17 0 0 -8.33 4.17 0 0 -12.5 4.16 0 0 -8.33 4.17 0 0 -20.83 37.49 0 8.33 0 8.33 0 0 4.17 45.82 0 0 -4.17 8.33 0 0 -4.16 4.17 0 0 4.16 4.17 0 4.16 0 0 -4.16 8.33 0 0 -4.17 12.5 0 0 -4.16 4.16 0 0 -4.17 8.34 0 0 -4.16 8.33 0 0 -4.17 8.91 0c6.14,65.54 6.81,132.59 7.92,190.62 0.6,31.38 -1,82.51 -5.25,138.47l-7.42 0 0 8.33 -12.49 0 0 4.16 -16.67 0 0 4.17 -16.66 0 0 4.17 -4.16 0 -4.17 0 0 4.16 -4.17 0 0 4.17 -8.33 0 0 4.16 -8.33 0 -4.17 0 0 4.17 -33.32 0 0 -4.17 -4.17 0 0 -12.49 -8.33 0 0 12.49 -4.16 0 0 4.17 -4.17 0 0 4.16 -8.33 0 0 4.17 -4.17 0 0 4.17 -4.16 0 0 4.16 -4.17 0 0 4.17 -4.16 0 0 4.16 -4.17 0 0 4.17 -4.16 0 0 4.16 -4.17 0 0 12.5 -4.16 0 0 8.33 -4.17 0 0 4.17 -4.17 0 0 4.16 -4.16 0 0 -4.16 -8.33 0 0 -4.17 -4.17 0 0 8.33 -8.33 0 0 4.17 -12.5 0 0 4.16 -8.33 0 0 4.17 -4.16 0 0 4.17 -12.5 0 0 4.16 -8.33 0 -4.17 0 -29.16 0 0 4.17 -1.06 0c-2.24,-15.92 -4.11,-33.58 -5.55,-53.22 -12.71,10.35 -33.54,30.18 -53,53.22l-7.04 0 0 4.16 -16.66 0 -8.33 0 0 -12.49 -4.17 0 0 8.33 -4.16 0 0 4.16 -4.17 0 -8.33 0 0 4.17 -45.82 0 0 4.16 -8.33 0 0 4.17 -4.17 0 0 4.17 -16.66 0 0 -4.17 -16.67 0 0 -4.17 -12.49 0 0 -4.16 -4.17 0 0 -4.17 -4.16 0 0 -4.16 -4.17 0 0 -16.67 -4.16 0 0 -12.49 -4.17 0 0 -8.33 8.33 0 0 -4.17 4.17 0 0 -4.17 4.16 0 0 -4.16 4.17 0 0 -4.17 4.16 0 0 -8.33 4.17 0 0 -12.49 4.16 0 0 -12.5 4.17 0 0 -4.17 20.83 0 0 -4.16 -8.33 0 0 -4.17 -4.17 0 0 -8.33 -4.16 0 0 -16.66 4.16 0 0 -20.83 4.17 0 0 -12.5 4.16 0 0 -16.66 4.17 0 0 -8.33 4.16 0 0 -12.5 -4.16 0 0 -16.66 4.16 0 0 -12.5 4.17 0 0 -4.16 4.17 0 0 -4.17 4.16 0 0 -8.33 4.17 0 0 -8.33 4.16 0 0 -8.33 4.17 0 0 -4.17 4.16 0 0 -4.17 4.17 0 0 -4.16 8.33 0 0 4.16 4.17 0 0 4.17 8.33 0 0 4.17 8.33 0 0 4.16 8.33 0 0 4.17 4.17 0 0 4.16 12.49 0 0 -4.16 -4.16 0 0 -8.33 -8.33 0 0 -4.17 -4.17 0 0 -4.17 -4.17 0 0 -4.16 -8.33 0 0 -4.17 -4.16 0 0 -8.33 -4.17 0 0 -24.99 4.17 0 0 -33.33 4.16 0 0 -8.33 8.33 0 0 4.17 8.34 0 0 4.16 4.16 0 0 4.17 4.17 0 0 8.33 4.16 0 0 12.5 4.17 0 0 20.83 4.17 0 0 -4.17 4.16 0 0 -20.83 4.17 0 0 -20.83 4.16 0 0 -4.16 12.5 0 0 -4.17 8.33 0 0 -4.16 4.17 0 0 -4.17 4.16 0 0 -4.17 8.33 0 0 -4.16 8.33 0 0 -4.17 8.34 0 0 -4.16 4.16 0 0 -4.17 8.33 0 0 -4.16 8.33 0 0 -4.17 12.5 0 0 -4.16 8.33 0 0 -4.17 -20.83 0 0 4.17 -12.49 0 0 4.16 -8.33 0 0 4.17 -8.34 0 0 -4.17 -8.33 0 0 12.5 -16.66 0 0 4.16 -4.17 0 0 8.33 -16.66 0 0 4.17 -8.33 0 0 4.17 -8.33 0 -4.17 0 -4.16 0 0 -4.17 -4.17 0 0 -4.17 -4.16 0 0 -4.16 -4.17 0 0 -4.17 -8.33 0 0 -8.33 -8.33 0 0 -8.33 4.16 0 0 -8.33 4.17 0 0 8.33 4.16 0 0 -4.16 4.17 0 0 -8.34 4.17 0 0 -12.49 4.16 0 0 -4.17 4.17 0 0 -4.16 8.33 0 0 -4.17 12.5 0 0 -4.17 -29.16 0 0 4.17 -4.17 0 0 4.17 -4.17 0 0 4.16 -4.16 0 0 4.17 -4.17 0 0 4.16 -4.16 0 0 8.33 -4.17 0 0 12.5 -4.16 0 0 4.17 -12.5 0 0 -4.17 -8.33 0 0 4.17 4.16 0 0 4.16 8.34 0 0 4.17 4.16 0 0 4.16 -12.5 0 0 -4.16 -12.49 0 0 4.16 8.33 0 0 4.17 8.33 0 0 4.16 4.17 0 0 8.34 4.16 0 0 33.32 4.17 0 0 4.17 -4.17 0 0 16.66 -4.16 0 0 8.33 -4.17 0 0 8.33 -4.17 0 0 4.17 -4.16 0 0 4.16 -4.17 0 0 4.17 -4.16 0 0 4.16 -4.17 0 0 4.17 -4.16 0 0 4.17 -4.17 0 0 4.16 -4.17 0 0 4.17 0 4.16 -4.16 0 0 4.17 -8.33 0 0 -4.17 -4.17 0 0 -4.16 -4.16 0 0 -8.33 -4.17 0 0 -4.17 -4.17 0 0 -8.33 4.17 0 0 -12.5 4.17 0 0 -8.33 4.16 0 0 -16.66 4.17 0 0 -20.83 4.16 0 0 -12.5 4.17 0 8.33 0 0 -4.16 -4.17 0 0 -4.17 -4.16 0 0 -8.33 4.16 0 0 -4.17 4.17 0 0 -4.16 4.17 0 0 -4.17 4.16 0 0 -8.33 -12.5 0 0 8.33 -4.16 0 0 4.17 -4.17 0 0 -4.17 -4.16 0 0 -8.33 4.16 0 0 -4.16 8.33 0 0 -8.33 -4.16 0 0 -4.17 -4.17 0 0 4.17 -4.16 0 0 4.16 -4.17 0 0 8.33 -4.16 0 0 8.33 -4.17 0 0 8.33 -4.17 0 0 12.5 -4.16 0 0 4.17 4.16 0 0 4.16 4.17 0 0 4.17 4.17 0 0 12.5 4.16 0 0 4.16 -4.16 0 0 12.5 -4.17 0 0 8.33 -4.17 0 0 12.5 -4.16 0 0 4.16 -4.17 0 0 4.17 -4.16 0 0 8.33 -4.17 0 0 8.33 -4.16 0 0 4.17 -12.5 0 0 -4.17 -8.33 0 0 -12.5 -12.5 0 0 -4.16 -4.16 0 0 8.33 4.16 0 0 4.16 4.17 0 0 12.5 4.16 0 0 4.17 12.5 0 0 4.16 8.33 0 0 4.17 4.17 0 4.16 0 0 8.33 -4.16 0 0 4.17 -4.17 0 0 24.99 8.33 0 0 -4.17 -4.16 0 0 -8.33 4.16 0 0 -4.16 4.17 0 0 -4.17 8.33 0 0 25 -4.17 0 0 8.33 -4.16 0 0 4.16 -8.33 0 0 12.5 4.16 0 0 4.17 -4.16 0 0 8.33 -4.17 0 0 8.33 -4.16 0 0 8.33 -4.17 0 0 4.17 -4.17 0 0 8.33 4.17 0 0 -4.17 4.17 0 0 -4.16 4.16 0 0 -4.17 4.17 0 0 -12.5 4.16 0 0 -4.16 4.17 0 0 -12.5 8.33 0 0 -4.17 12.5 0 0 8.34 -4.17 0 0 16.66 -4.17 0 0 20.83 -4.16 0 0 37.49 -4.17 0 0 8.33 -4.16 0 0 8.33 -4.17 0 0 8.33 -4.16 0 0 8.33 -4.17 0 0 4.17 -4.16 0 0 8.33 -4.17 0 -12.5 0 0 4.16 -4.16 0 0 4.17 -4.17 0 0 4.17 -8.33 0 0 8.33 8.33 0 0 4.16 -49.99 0 0 8.33 -8.33 0 0 4.17 -4.16 0 0 4.17 12.49 0 0 -4.17 12.5 0 0 4.17 8.33 0 0 -4.17 12.5 0 0 -4.17 4.16 0 0 4.17 4.17 0 0 -4.17 8.33 0 0 4.17 8.33 0 0 4.17 4.17 0 0 8.33 4.16 0 0 8.33 4.17 0 0 4.16 4.17 0 0 4.17 -4.17 0 0 8.33 4.17 0 0 4.17 4.16 0 0 8.33 4.17 0 0 4.16 4.16 0 0 8.33 4.17 0 0 12.5 4.16 0 0 12.5 4.17 0 0 8.33 4.16 0 0 4.17 -4.16 0 0 16.66 -8.33 0 0 12.5 -4.17 0 0 8.33 4.17 0 0 4.16 -4.17 0 0 8.33 -4.16 0 0 12.5 0 8.33 -4.17 0 0 8.33 -4.16 0 0 4.17 -8.34 0 0 4.16 -4.16 0 0 8.34 -4.17 0 0 12.49 -4.16 0 0 4.17 -33.33 0 0 -4.17 -4.16 0 0 4.17 -4.17 0 -4.16 0 -4.17 0 0 -4.17 -27.35 0zm-90.98 -703.99c0.22,-1.39 0.47,-2.78 0.71,-4.17l0.98 0 0 -4.16 4.17 0 0 -4.17 4.16 0 0 -4.17 4.17 0 0 -4.16 8.33 0 0 -4.17 4.17 0 0 16.67 -4.17 0 0 4.16 -12.5 0 0 4.17 -10.02 0zm6.79 -37.49c0.28,-1.4 0.53,-2.78 0.8,-4.17l2.43 0 0 4.17 -3.23 0zm124.06 -45.83c1.36,-0.84 2.74,-1.72 4.14,-2.63l0 2.63 -4.14 0zm6.48 -4.16l1.83 -1.22 0 1.22 -1.83 0zm11.91 -8.33c0.8,-0.59 1.6,-1.18 2.41,-1.79l0 1.79 -2.41 0zm5.56 -4.17l1.02 -0.78 0 0.78 -1.02 0zm30.18 -24.06c1.39,-1.11 2.78,-2.21 4.17,-3.3l0 6.53 -4.17 0 0 -3.23zm17.31 -13.43c31.55,-23.62 62.87,-41.17 104.49,-42.14 50.63,-1.18 81.64,7.05 107.31,16.61l0 0.54 -8.33 0 0 4.16 -4.17 0 0 4.17 -4.16 0 0 12.49 -4.17 0 0 8.34 -4.16 0 0 4.16 -4.17 0 0 8.33 -8.33 0 0 4.17 -4.17 0 0 8.33 -4.16 0 0 8.33 -4.17 0 0 4.17 -4.16 0 0 4.16 -4.17 0 0 8.33 -4.16 0 0 8.33 -4.17 0 0 4.17 -4.16 0 0 4.17 -4.17 0 0 4.16 -8.33 0 0 4.17 -20.83 0 0 -4.17 -4.17 0 0 -4.16 -4.16 0 0 -4.17 -4.17 0 0 -4.17 -4.16 0 0 -8.33 -4.17 0 0 -4.16 -4.16 0 0 4.16 -8.34 0 0 -4.16 -12.49 0 0 -4.17 -4.17 0 0 -4.16 -8.33 0 0 -4.17 -4.17 0 0 -4.16 -4.16 0 0 -4.17 -4.17 0 0 -4.17 -4.16 0 0 -4.16 -4.17 0 0 -8.33 -4.16 0 0 -4.17 -8.34 0 0 -4.16 -12.49 0 0 -4.17 -3.52 0zm223.88 -20.83c49.06,19.73 85.8,39.57 227.5,-6.71 35.6,54.83 52.09,131.39 60.12,210.83l-20.6 0 0 4.17 -8.33 0 0 4.16 -8.33 0 0 4.17 -16.66 0 0 4.16 -16.67 0 -37.49 0 -24.99 0 0 -4.16 -37.49 0 0 -16.67 -4.17 0 0 -4.16 -4.16 0 0 -8.33 12.49 0 0 -4.17 -12.49 0 0 4.17 -4.17 0 0 -4.17 -4.17 0 0 -4.16 -4.16 0 0 -4.17 -4.17 0 0 -4.17 -4.16 0 0 -4.16 -4.17 0 -4.16 0 0 -4.17 -4.17 0 0 -4.16 -4.17 0 0 -8.33 -4.16 0 0 -8.34 -4.17 0 0 -4.16 -4.16 0 0 -4.17 -4.17 0 0 -4.16 -4.16 0 0 -4.17 -4.17 0 0 -4.16 -4.17 0 0 -4.17 -4.16 0 0 -8.33 -4.17 0 0 -20.83 -4.16 0 0 -8.33 -4.17 0 0 -8.33 -4.16 0 0 -4.17 -4.17 0 0 -4.16 -4.16 0 0 4.16 4.16 0 0 25 4.17 0 0 4.16 4.16 0 0 12.5 4.17 0 0 8.33 4.16 0 0 8.33 -4.16 0 -12.5 0 0 -4.16 -4.16 0 0 -4.17 -4.17 0 0 -4.16 -4.17 0 0 -4.17 -4.16 0 0 -4.17 -8.33 0 0 -4.16 -4.17 0 0 -8.33 -4.16 0 0 -8.34 -4.17 0 0 -4.16 -4.17 0 0 -8.33 -4.16 0 0 -4.17 -4.17 0 0 -4.16 0 -4.17 -4.16 0 0 -4.16 4.16 0 0 -4.17 4.17 0 0 -8.33 4.16 0 0 -4.17 4.17 0 0 -4.16 4.17 0 0 -8.33 4.16 0 0 -8.34 4.17 0 0 -8.33 4.16 0 0 -8.33 3.75 0zm289.05 566.53c-2.45,27.72 -5.55,56.07 -9.34,83.31l-0.19 0 0 -4.16 -4.17 0 0 4.16 -4.16 0 0 8.34 -4.17 0 0 4.16 -4.17 0 0 4.17 -4.16 0 0 12.49 4.16 0 0 8.34 11.05 0c-2.13,12.32 -4.42,24.21 -6.88,35.48l0 -2.16 -8.33 0 0 -4.17 -4.17 0 0 -8.33 -4.16 0 0 -4.16 -4.17 0 0 -8.33 -4.16 0 0 -8.33 -4.17 0 0 -4.17 -4.16 0 0 -4.17 -4.17 0 0 -4.16 0 -4.17 -4.17 0 0 -4.16 0 -4.17 0 -8.33 -4.16 0 0 -8.33 -4.17 0 0 -20.83 4.17 0 0 -8.33 -4.17 0 0 -8.33 -4.16 0 0 -12.5 -4.17 0 0 -12.5 8.33 0 0 -4.16 8.33 0 0 -4.17 8.34 0 0 -4.16 33.32 0 0 -4.17 12.5 0 0 -4.16 8.33 0 0 4.16 1.2 0zm-26.41 174.96c-1.46,5.78 -2.97,11.35 -4.53,16.66l-7.75 0 0 4.17 4.16 0 0 4.16 1.01 0c-6.66,20.69 -14.23,36.91 -22.78,46.51 -2.51,-0.37 -4.96,-0.86 -7.39,-1.44l0 -3.41 -8.33 0 0 -4.17 -4.16 0 0 -8.33 -4.17 0 0 -16.66 4.17 0 0 -8.33 4.16 0 0 -8.33 4.17 0 0 -8.33 8.33 0 0 -4.17 4.17 0 0 -8.33 28.94 0zm-53.94 64.7c-18.08,-6.95 -35.67,-16.1 -57.93,-15.65 -38.9,0.79 -104.35,51.27 -139.89,-53.22l2.04 0 0 -8.33 -4.17 0 0 1.75c-1.77,-5.71 -3.46,-11.82 -5.05,-18.41l9.22 0 0 -4.17 16.66 0 0 -4.16 4.16 0 0 4.16 4.17 0 0 -4.16 4.16 0 0 -4.17 4.17 0 0 -4.16 12.5 0 0 -4.17 -4.17 0 0 -4.16 25 0 0 -4.17 4.16 0 0 -4.17 4.17 0 0 -4.16 4.16 0 0 -4.17 4.17 0 0 -4.16 4.16 0 12.5 0 0 4.16 8.33 0 0 4.17 8.33 0 0 -4.17 -4.16 0 0 -4.16 -4.17 0 0 -4.17 -4.16 0 0 -12.5 4.16 0 0 -4.16 8.33 0 0 -4.17 -4.16 0 0 -16.66 4.16 0 0 -12.5 16.67 0 0 -8.33 4.16 0 0 -4.16 4.17 0 0 -4.17 4.16 0 0 -4.16 4.17 0 0 -4.17 4.16 0 0 4.17 33.33 0 0 4.16 4.16 0 0 16.66 4.17 0 0 33.33 4.17 0 0 24.99 4.16 0 0 8.33 4.17 0 0 8.34 4.16 0 0 4.16 4.17 0 0 8.33 4.17 0 0 8.33 4.16 0 0 16.67 4.17 0 0 4.16 -12.5 0 0 4.17 -4.17 0 0 4.16 -4.16 0 0 4.17 -4.17 0 0 4.17 -4.16 0 0 4.16 -4.17 0 0 16.66 -4.17 0 0 4.17 -4.16 0 0 4.16 -20.83 0 0 4.17 -8.33 0 0 -4.17 -12.5 0 0 4.17 -4.16 0 0 4.17 -8.33 0 0 4.16 20.82 0 0 4.17 33.33 0 0 4.16 4.16 0 0 4.17 4.17 0 0 6.38zm-308.26 -87.66c-1.09,2.11 -2.13,4.21 -3.1,6.3l-1.06 0 0 2.34c-1.52,3.43 -2.85,6.82 -3.96,10.15l-0.21 0 0 -24.99 4.17 0 0 4.16 4.16 0 0 2.04zm4.17 -93.68l-4.17 0 0 -4.17 4.17 0 0 4.17zm41.65 -20.83l-4.16 0 0 -4.16 4.16 0 0 4.16 4.17 0 0 -12.49 4.17 0 0 4.16 4.16 0 0 4.17 4.17 0 0 4.16 -4.17 0 0 4.17 -8.33 0 0 4.16 -4.17 0 0 -8.33zm-99.97 -329.08l-4.17 0 0 -4.17 4.17 0 0 4.17zm-37.49 -104.15l-4.17 0 0 -4.16 4.17 0 0 4.16zm16.66 408.24l-4.17 0 0 -4.17 4.17 0 0 4.17zm195.79 149.96l-4.17 0 0 -4.16 4.17 0 0 4.16zm-341.59 -629.01l-4.16 0 0 -8.33 4.16 0 0 8.33zm79.15 504.04l-4.17 0 0 -8.33 4.17 0 0 8.33zm187.45 -37.49l-4.16 0 0 -8.33 4.16 0 0 8.33zm-33.32 58.32l-4.17 0 0 -8.33 4.17 0 0 8.33zm-208.28 -474.88l-8.33 0 0 -4.17 8.33 0 0 4.17zm337.41 166.62l-8.33 0 0 -4.16 8.33 0 0 4.16zm-283.26 233.28l-4.17 0 0 -8.33 4.17 0 0 8.33zm158.3 112.47l-4.17 0 0 -8.33 4.17 0 0 8.33zm-116.64 -245.77l-4.17 0 0 -8.33 -8.33 0 0 -4.17 -4.17 0 0 12.5 4.17 0 0 4.16 4.16 0 0 4.17 8.34 0 0 -8.33zm8.33 -195.79l-4.17 0 0 -8.33 4.17 0 0 8.33zm-79.15 374.91l-8.33 0 0 -4.16 8.33 0 0 4.16zm174.96 58.32l-4.17 0 0 -12.5 4.17 0 0 12.5zm-249.94 -291.6l-4.17 0 0 -4.16 -4.16 0 0 -4.17 8.33 0 0 8.33zm54.15 308.26l-4.16 0 0 4.17 -4.17 0 0 -8.33 8.33 0 0 4.16zm0 -41.65l-8.33 0 0 -4.17 4.17 0 0 -4.17 4.16 0 0 8.34zm541.54 -337.42l-4.17 0 0 4.16 -4.16 0 0 -8.33 8.33 0 0 4.17zm-216.62 8.33l-8.33 0 0 -4.17 4.17 0 0 -4.16 4.16 0 0 8.33zm-237.44 -158.3l-4.17 0 0 -4.16 -4.16 0 0 -8.33 4.16 0 0 4.16 4.17 0 0 8.33 4.17 0 0 4.17 4.16 0 0 4.17 -8.33 0 0 4.16 -4.17 0 0 8.33 4.17 0 0 8.33 -4.17 0 0 20.83 -8.33 0 0 -20.83 4.17 0 0 -8.33 -4.17 0 0 -8.33 4.17 0 0 -4.16 4.16 0 0 -4.17 4.17 0 0 -4.17zm-58.32 437.4l-8.33 0 0 -8.33 8.33 0 0 8.33zm220.78 45.82l-4.16 0 0 4.17 -4.17 0 0 -8.34 4.17 0 0 -4.16 4.16 0 0 8.33zm-133.3 87.48l0 4.16 -4.17 0 0 8.34 4.17 0 0 4.16 4.17 0 0 4.17 20.82 0 0 4.16 8.34 0 0 -4.16 8.33 0 0 -4.17 4.16 0 0 -4.16 4.17 0 0 -4.17 -4.17 0 0 -4.17 -4.16 0 0 -4.16 -4.17 0 0 -4.17 12.5 0 0 -4.16 4.16 0 0 -4.17 4.17 0 0 4.17 4.16 0 0 4.16 4.17 0 0 -4.16 4.17 0 0 -4.17 4.16 0 0 -4.16 -4.16 0 0 -4.17 -25 0 0 -4.16 -4.16 0 0 4.16 -8.33 0 0 4.17 -8.34 0 0 8.33 -4.16 0 0 -4.17 -8.33 0 0 4.17 -4.17 0 0 4.16 -4.16 0 0 4.17 -4.17 0zm137.47 -141.63l4.16 0 0 4.16 8.33 0 0 4.17 -16.66 0 0 -8.33 -4.16 0 0 -4.17 4.16 0 0 -4.16 4.17 0 0 8.33zm-133.3 -504.05l-8.34 0 0 8.33 8.34 0 0 -8.33zm66.65 254.11l8.33 0 0 -4.17 -4.17 0 0 -4.16 -4.16 0 0 8.33zm-66.65 466.55l4.16 0 0 -24.99 -16.66 0 0 16.66 12.5 0 0 8.33zm133.3 -70.82l-8.33 0 0 8.34 8.33 0 0 -8.34zm-129.14 -466.55l4.17 0 0 25 -4.17 0 0 8.33 -4.16 0 0 -37.49 4.16 0 0 4.16zm-162.46 -124.97l-4.16 0 0 12.5 12.49 0 0 16.66 -4.16 0 0 -4.16 -4.17 0 0 -4.17 -4.16 0 0 -4.17 -4.17 0 0 8.34 -4.17 0 0 4.16 -8.33 0 0 -8.33 4.17 0 0 -4.17 -4.17 0 0 -8.33 4.17 0 0 -4.16 4.16 0 0 -12.5 12.5 0 0 8.33zm208.28 179.12l-4.16 0 0 4.17 4.16 0 0 -4.17zm4.17 -33.32l4.16 0 0 -8.33 -4.16 0 0 8.33zm54.15 479.05l-12.49 0 0 4.17 -8.33 0 0 4.16 12.49 0 0 -4.16 8.33 0 0 -4.17zm8.33 -8.33l-4.16 0 0 4.17 4.16 0 0 -4.17zm95.81 -54.15l4.17 0 0 -25 -4.17 0 0 4.17 -4.16 0 0 8.33 4.16 0 0 12.5zm-58.31 46.41l7.58 32.02c-35.14,68.75 -59.62,99.27 -113.64,44.65 1.07,-6.32 1.97,-11.09 2.75,-14.78l3.33 0 0 4.17 8.33 0 0 -8.33 -4.17 0 0 -4.17 -4.16 0 0 -4.08 0.03 -0.08 8.3 0 8.33 0 0 16.66 4.17 0 0 4.16 -4.17 0 0 4.17 4.17 0 0 4.17 8.33 0 0 -12.5 -4.17 0 0 -12.5 4.17 0 8.33 0 0 -16.66 12.5 0 0 -4.17 4.16 0 0 -4.16 4.17 0 0 -8.33 12.5 0 0 -12.5 -8.34 0 0 -4.17 16.67 0 0 -8.33 -12.5 0 0 -16.66 16.66 0 0 24.99 -4.16 0 0 4.17 12.49 0 0 -4.17 8.34 0 0 -3.57zm-97.66 41.06c0.21,-1.17 0.43,-2.53 0.66,-4.16l1.18 0 0 4.16 -1.84 0z"/>
  <path id="root" class="fil0 str0" d="M428.44 437.22l8.33 0 0 -8.33 -8.33 0 0 8.33zm-350.02 -202.26c19.66,-12.42 4.82,16.6 21.11,-38.67 11.97,-40.63 18.86,-84.87 54.24,-93.1 20.27,39.2 16.1,254.53 15.17,425.68l-2.93 0 0 4.16 -4.17 0 0 4.17 -4.17 0 -12.49 0 0 -4.17 -8.33 0 0 -4.16 -8.33 0 0 4.16 4.16 0 0 4.17 4.17 0 0 4.17 4.16 0 0 12.49 -4.16 0 0 4.17 -8.33 0 0 4.17 4.16 0 0 16.66 -4.16 0 0 12.49 -16.67 0 0 8.34 -4.16 0 0 4.16 -4.17 0 0 4.17 -4.16 0 0 4.16 -4.17 0 0 4.17 -4.17 0 0 -4.17 -33.32 0 0 -4.16 -4.17 0 0 -16.67 -4.16 0 0 -33.32 -4.17 0 0 -25 -4.16 0 0 -8.33 -4.17 0 0 -8.33 -2.85 0c2.84,-20.74 5.86,-40.14 8.95,-58.32l2.23 0 0 -4.16 4.17 0 0 -16.67 4.16 0 0 -4.16 4.17 0 0 -4.17 20.83 0 0 -4.16 8.33 0 0 4.16 12.5 0 0 -4.16 4.16 0 0 -4.17 8.33 0 0 -4.16 -20.83 0 0 -4.17 -33.32 0 0 -4.16 -4.17 0 0 -4.17 -0.6 0c16.07,-81.56 30.36,-132.9 25.49,-168.94zm90.38 331.4c-0.11,66.24 0.64,122.52 4.12,154.12 3.76,34.05 11,97.01 23.18,162.47l-0.93 0 0 -4.16 -12.5 0 0 -8.34 4.16 0 0 -12.49 -4.16 0 0 4.16 -4.17 0 0 4.17 -4.16 0 0 16.66 -4.17 0 0 12.5 -4.16 0 0 8.33 -4.17 0 0 8.33 -4.17 0 0 4.17 -4.16 0 0 8.33 -4.17 0 0 12.49 -4.16 0 0 8.34 -4.17 0 0 20.82 -37.49 0 -8.33 0 -8.33 0 0 -4.16 -45.82 0 0 4.16 -8.33 0 0 4.17 -4.17 0 0 -4.17 -4.17 0 -3.59 0c-0.66,-28.61 -1.49,-57.3 -2.54,-86.07 -3.35,-91.58 -1.56,-170.52 3.09,-238.85l3.04 0 4.17 0 0 -4.16 4.17 0 0 -4.17 8.33 0 0 -4.16 8.33 0 4.16 0 0 -4.17 33.33 0 0 4.17 4.16 0 0 12.49 8.34 0 0 -12.49 4.16 0 0 -4.17 4.17 0 0 -4.17 8.33 0 0 -4.16 4.16 0 0 -4.17 4.17 0 0 -4.16 4.17 0 0 -4.17 4.16 0 0 -4.16 4.17 0 0 -4.17 4.16 0 0 -4.17 4.17 0 0 -12.49 4.16 0 0 -8.33 4.17 0 0 -4.17 4.16 0 0 -4.16 4.17 0 0 4.16 6.96 0zm28.87 324.92c13.51,70.35 32.76,142.25 59.52,183.29l-3.71 0 0 -4.17 -4.16 0 0 -4.16 -8.33 0 -8.33 0 0 -4.17 -12.5 0 0 -4.16 -8.33 0 0 -4.17 -4.17 0 0 -4.16 -4.16 0 0 -8.33 -4.17 0 0 -8.34 -8.33 0 0 -4.16 -4.17 0 0 -4.17 -8.33 0 0 -4.16 -4.16 0 0 -8.33 -4.17 0 0 -4.17 -4.16 0 0 -4.17 -4.17 0 0 -4.16 -4.17 0 0 -4.17 -4.16 0 0 -8.33 8.33 0 0 -16.66 4.17 0 0 -20.83 4.16 0 0 -8.33 0 -4.17 -8.33 0 0 -8.33 8.33 0 0 8.33 4.17 0 0 -8.33 4.16 0 0 -33.32 4.17 0 0 -8.33 12.5 0 0 4.16 2.5 0zm84.97 210.58c11.4,7.35 23.88,9.28 37.49,4.34l0 14.19 -4.16 0 0 4.17 -4.17 0 0 4.16 -4.16 0 0 4.17 -4.17 0 0 8.33 -4.16 0 0 -4.16 -4.17 0 0 -4.17 -4.16 0 0 -8.33 -4.17 0 0 -8.33 -4.17 0 0 -14.37zm61.36 -10.63c0.12,-0.1 0.23,-0.19 0.35,-0.29 0.27,-0.24 0.52,-0.5 0.78,-0.74l0 1.03 -1.13 0zm4.44 -4.16c0.28,-0.28 0.57,-0.54 0.86,-0.82l0 0.82 -0.86 0zm4.13 -4.17c0.3,-0.31 0.59,-0.63 0.89,-0.95l0 0.95 -0.89 0zm3.89 -4.16c28.07,-31.8 48.61,-80.99 63.65,-140.26l0 15.29 4.17 0 0 4.16 4.16 0 0 -37.49 -3.98 0c0.32,-1.38 0.63,-2.77 0.94,-4.16l11.37 0 0 -8.34 4.17 0 0 -4.16 4.17 0 0 4.16 4.16 0 0 8.34 -4.16 0 0 4.16 -8.34 0 0 8.33 4.17 0 0 4.17 4.17 0 0 -4.17 4.16 0 0 -4.16 4.17 0 0 -8.33 4.16 0 0 -8.34 4.17 0 0 -8.33 4.16 0 0 -12.49 4.17 0 0 -4.17 -4.17 0 0 -4.16 -4.16 0 0 -4.17 -4.17 0 0 -12.5 -4.16 0 0 -4.16 4.16 0 0 -12.5 4.17 0 0 -8.33 4.16 0 0 -12.5 4.17 0 0 -4.16 4.16 0 0 -4.17 4.17 0 0 -8.33 4.17 0 0 -8.33 4.16 0 0 -4.17 12.5 0 0 4.17 8.33 0 0 12.49 12.5 0 0 4.17 4.16 0 0 -8.33 -4.16 0 0 -4.17 -4.17 0 0 -12.49 -4.16 0 0 -4.17 -12.5 0 0 -4.17 -8.33 0 0 -4.16 -4.17 0 -4.16 0 0 -8.33 4.16 0 0 -4.17 4.17 0 0 -24.99 -8.33 0 0 4.16 4.16 0 0 8.33 -4.16 0 0 4.17 -4.17 0 0 4.17 -8.33 0 0 -25 4.16 0 0 -8.33 4.17 0 0 -4.16 8.33 0 0 -12.5 -4.16 0 0 -4.17 4.16 0 0 -8.33 4.17 0 0 -8.33 4.16 0 0 -8.33 4.17 0 0 -4.17 4.16 0 0 -8.33 -4.16 0 0 4.17 -4.17 0 0 4.16 -4.16 0 0 4.17 -4.17 0 0 12.5 -4.16 0 0 4.16 -4.17 0 0 12.5 -8.33 0 0 4.16 -12.5 0 0 -8.33 4.17 0 0 -16.66 4.16 0 0 -20.83 4.17 0 0 -37.49 4.16 0 0 -8.33 4.17 0 0 -8.33 4.17 0 0 -8.33 4.16 0 0 -8.33 4.17 0 0 -4.17 4.16 0 0 -8.33 4.17 0 12.5 0 0 -4.17 4.16 0 0 -4.16 4.17 0 0 -4.17 8.33 0 0 -8.33 -8.33 0 0 -4.16 49.98 0 0 -8.34 8.34 0 0 -4.16 4.16 0 0 -4.17 -12.5 0 0 4.17 -12.49 0 0 -4.17 -8.33 0 0 4.17 -12.5 0 0 4.16 -4.17 0 0 -4.16 -4.16 0 0 4.16 -8.33 0 0 -4.16 -8.33 0 0 -4.17 -4.17 0 0 -8.33 -4.17 0 0 -8.33 -4.16 0 0 -4.17 -4.17 0 0 -4.16 4.17 0 0 -8.33 -4.17 0 0 -4.17 -4.16 0 0 -8.33 -4.17 0 0 -4.17 -4.16 0 0 -8.33 -4.17 0 0 -12.49 -4.17 0 0 -12.5 -4.16 0 0 -8.33 -4.17 0 0 -4.17 4.17 0 0 -16.66 8.33 0 0 -12.5 4.17 0 0 -8.33 -4.17 0 0 -4.16 4.17 0 0 -8.34 4.16 0 0 -12.49 0 -8.33 4.17 0 0 -8.34 4.16 0 0 -4.16 8.33 0 0 -4.17 4.17 0 0 -8.33 4.17 0 0 -12.49 4.16 0 0 -4.17 33.33 0 0 4.17 4.16 0 0 -4.17 4.17 0 4.16 0 4.17 0 0 4.17 33.32 0 0 4.16 8.34 0 0 -1.28c41.9,227.75 73.73,452.16 72.52,692.78l-1.71 0 0 4.17 -12.49 0 0 4.16 -8.34 0 0 4.17 -4.16 0 0 -4.17 -8.33 0 0 -4.16 -8.34 0 0 -4.17 -8.33 0 0 -4.17 -4.16 0 0 -4.16 -4.17 0 0 -8.33 4.17 0 0 -4.17 -12.5 0 0 -4.16 -8.33 0 0 -4.17 -4.17 0 0 -8.33 4.17 0 0 -4.17 4.17 0 0 -4.16 4.16 0 0 -4.17 4.17 0 0 -16.66 4.16 0 0 -12.5 4.17 0 0 -4.16 -4.17 0 0 4.16 -4.16 0 0 8.33 -4.17 0 0 16.67 -4.16 0 0 8.33 -4.17 0 0 4.16 -16.66 0 0 -4.16 -16.67 0 0 -4.17 -29.15 0 0 4.17 8.33 0 0 4.16 29.16 0 0 4.17 8.33 0 0 4.16 4.16 0 0 4.17 4.17 0 0 8.33 4.16 0 0 4.17 8.34 0 0 4.16 4.16 0 0 4.17 4.17 0 0 8.33 -4.17 0 0 8.33 4.17 0 0 -4.16 8.33 0 0 4.16 8.33 0 0 4.17 8.33 0 0 4.16 4.17 0 0 4.17 -12.5 0 0 4.16 -8.33 0 0 -4.16 -4.17 0 0 -4.17 -4.16 0 0 12.5 4.16 0 0 8.33 -8.33 0 0 4.17 12.5 0 0 8.33 0 16.66 4.16 0 0 20.83 4.17 0 0 8.33 4.16 0 0 16.66 4.17 0 0 49.99 4.17 0 0 4.17 4.16 0 0 8.33 4.17 0 0 8.33 4.16 0 0 12.5 4.17 0 0 20.82 4.17 0 0 12.5 4.16 0 0 8.33 4.17 0 0 2.2 -0.08 1.97 -4.09 0 0 4.16 -4.16 0 0 4.17 -20.83 0 0 -4.17 -4.17 0 0 -8.33 -4.17 0 0 12.5 -4.16 0 0 4.16 -8.33 0 0 4.17 -4.17 0 0 -4.17 -8.33 0 0 4.17 -4.16 0 0 4.17 -4.17 0 0 4.16 20.83 0 0 -4.16 16.66 0 0 -4.17 20.83 0 0 4.17 8.33 0 0 16.66 2.55 0c-0.97,21.82 -2.05,42.97 -3.26,62.48l-15.95 0 0 -4.16 -8.33 0 0 -4.17 -8.34 0 0 4.17 8.34 0 0 4.16 4.16 0 0 4.17 12.5 0 0 4.16 4.17 0 0 8.34 2.36 0c-2.67,38.7 -5.89,68.97 -9.75,81.82 -94.96,88.29 -219.92,-6.45 -327.34,-8.45 -140.13,-2.61 -163.62,138.79 -302.89,122.94 -6.68,-201.38 -2.89,-401.28 -7.04,-604.55l3.14 0 0 -4.16 16.67 0 37.49 0 24.99 0 0 4.16 37.49 0 0 16.66 4.17 0 0 4.17 4.16 0 0 8.33 -12.49 0 0 4.17 12.49 0 0 -4.17 4.17 0 0 4.17 4.16 0 0 4.16 4.17 0 0 4.17 4.17 0 0 4.16 4.16 0 0 4.17 4.17 0 4.16 0 0 4.17 4.17 0 0 4.16 4.16 0 0 8.33 4.17 0 0 8.33 4.17 0 0 4.17 4.16 0 0 4.16 4.17 0 0 4.17 4.16 0 0 4.17 4.17 0 0 4.16 4.16 0 0 4.17 4.17 0 0 8.33 4.16 0 0 20.83 4.17 0 0 8.33 4.17 0 0 8.33 4.16 0 0 4.17 4.17 0 0 4.16 4.16 0 0 -4.16 -4.16 0 0 -25 -4.17 0 0 -4.16 -4.16 0 0 -12.5 -4.17 0 0 -8.33 -4.17 0 0 -8.33 4.17 0 12.5 0 0 4.16 4.16 0 0 4.17 4.17 0 0 4.16 4.16 0 0 4.17 4.17 0 0 4.16 8.33 0 0 4.17 4.17 0 0 8.33 4.16 0 0 8.33 4.17 0 0 4.17 4.16 0 0 8.33 4.17 0 0 4.17 4.17 0 0 4.16 0 4.17 4.16 0 0 4.16 -4.16 0 0 4.17 -4.17 0 0 8.33 -4.17 0 0 4.16 -4.16 0 0 4.17 -4.17 0 0 8.33 -4.16 0 0 8.33 -4.17 0 0 8.34 -4.16 0 0 8.33 -4.17 0 0 4.16 -4.17 0 0 16.66 0 8.34 -12.49 0 0 4.16 -12.5 0 0 4.17 -37.49 0 0 4.16 -4.17 0 0 4.17 33.33 0 0 4.16 8.33 0 0 4.17 8.33 0 0 4.17 8.33 0 0 4.16 16.67 0 0 -4.16 4.16 0 0 4.16 8.33 0 0 -12.5 -4.16 0 0 -12.49 -4.17 0 0 -4.17 -4.16 0 0 -4.16 0 -12.5 0 -4.17 4.16 0 0 -4.16 4.17 0 0 -4.17 8.33 0 0 -4.16 4.16 0 0 -4.17 4.17 0 0 -12.5 4.17 0 0 -8.33 4.16 0 0 -4.16 4.17 0 0 -8.34 8.33 0 0 -4.16 4.16 0 0 -8.33 4.17 0 0 -8.33 4.16 0 0 -4.17 4.17 0 0 -4.16 4.17 0 0 -8.34 4.16 0 0 -8.33 4.17 0 0 -4.16 4.16 0 0 -4.17 4.17 0 0 -4.16 8.33 0 0 -4.17 20.83 0 0 4.17 4.16 0 0 4.16 4.17 0 0 4.17 4.17 0 0 4.16 4.16 0 0 8.33 4.17 0 0 4.17 4.16 0 0 -4.17 8.33 0 0 4.17 12.5 0 0 4.17 4.17 0 0 4.16 8.33 0 0 4.17 4.16 0 0 4.16 4.17 0 0 4.17 4.17 0 0 4.16 4.16 0 0 4.17 4.17 0 0 8.33 4.16 0 0 4.17 8.33 0 0 4.16 12.5 0 0 4.17 4.17 0 0 4.16 0 4.17 4.16 0 0 12.5 4.17 0 0 12.49 -4.17 0 0 12.5 4.17 0 0 -8.33 4.16 0 0 -4.17 12.5 0 0 -4.16 4.17 0 0 -4.17 -4.17 0 0 -4.16 -4.17 0 0 -12.5 4.17 0 0 -4.17 4.17 0 0 -12.49 4.16 0 0 -8.34 4.17 0 0 -8.33 4.16 0 0 -4.16 4.17 0 0 -8.33 4.16 0 0 -4.17 8.34 0 0 -4.16 4.16 0 0 -4.17 4.17 0 0 -4.17 4.16 0 0 -4.16 4.17 0 0 -4.17 -4.17 0 0 4.17 -8.33 0 0 4.16 -8.33 0 0 4.17 -8.33 0 0 4.17 -4.17 0 0 4.16 -12.49 0 0 4.17 -12.5 0 0 4.16 -4.17 0 0 -4.16 -8.33 0 0 -4.17 -4.16 0 0 8.33 -4.17 0 0 4.17 -4.17 0 0 -4.17 -8.33 0 0 -4.16 -4.16 0 0 -4.17 -8.33 0 0 -4.16 -4.17 0 0 -4.17 -4.16 0 0 -4.17 4.16 0 0 -8.33 -8.33 0 0 4.17 -16.66 0 -4.17 0 0 -4.17 -20.83 0 0 -4.16 -8.33 0 0 -4.17 -4.16 0 0 -4.16 -4.17 0 0 -8.34 4.17 0 0 -8.33 -4.17 0 0 -4.16 -4.17 0 0 -8.33 -12.49 0 -8.33 0 -1.17 0zm66.06 -149.97c0.6,-2.49 1.18,-5.02 1.76,-7.55l0 7.55 -1.76 0zm4.69 -20.83c1.9,-8.97 3.7,-18.13 5.4,-27.45l0 2.46 4.16 0 0 4.17 4.17 0 0 8.33 -4.17 0 0 4.16 -4.16 0 0 4.17 -4.17 0 0 4.16 -1.23 0zm5.72 -29.15c5.72,-31.75 10.28,-65.37 13.91,-99.98l2.43 0 0 4.16 4.17 0 0 4.17 4.16 0 0 8.33 4.17 0 0 4.17 4.16 0 0 8.33 -4.16 0 0 12.5 -4.17 0 0 8.33 -4.16 0 0 16.66 -4.17 0 0 20.83 -4.16 0 0 12.5 -4.17 0 -8.01 0zm22.78 -216.62c0.29,-5.55 0.57,-11.11 0.82,-16.66l1.07 0 0 16.66 -1.89 0zm1.55 -33.32c1.5,-36.6 2.36,-73.01 2.85,-108.31l5.82 0 0 4.16 12.5 0 0 4.17 4.17 0 0 4.16 4.16 0 0 4.17 4.17 0 0 16.66 4.16 0 0 12.5 4.17 0 0 8.33 -8.33 0 0 4.17 -4.17 0 0 4.16 -4.16 0 0 4.17 -4.17 0 0 4.16 -4.17 0 0 8.34 -4.16 0 0 12.49 -4.17 0 0 12.5 -4.16 0 0 4.17 -4.51 0zm3.28 -254.11c-0.12,-35.34 -0.27,-67.36 -0.03,-94.53 0.84,-97.92 -9.45,-196.05 19.23,-280.2 70.83,1.43 67.59,34.96 83.93,117.29 5.48,27.62 10.92,55.11 16.29,82.48l-1.55 0 0 4.17 -4.17 0 0 8.33 -4.17 0 0 8.33 4.17 0 0 20.83 -4.17 0 0 16.66 -4.16 0 0 4.17 -4.17 0 0 4.16 -4.16 0 0 4.17 -4.17 0 0 4.16 -4.16 0 0 4.17 -8.33 0 0 4.17 -4.17 0 0 4.16 -8.33 0 0 4.17 -8.33 0 0 4.16 -4.17 0 0 4.17 -4.16 0 0 4.16 -4.17 0 0 8.34 -4.17 0 0 4.16 -4.16 0 -8.33 0 0 16.66 4.16 0 0 8.34 -4.16 0 0 12.49 -12.5 0 0 8.33 -4.17 0 0 4.17 -4.16 0 0 4.16 -4.17 0 0 4.17 -5.39 0zm125.12 -145.8c7.33,37.64 14.49,75.11 21.38,112.48l-7.81 0 0 -4.17 -12.49 0 0 -4.17 -8.33 0 0 -4.16 -8.34 0 0 -4.17 -8.33 0 0 -4.16 4.17 0 0 -8.33 -4.17 0 0 -16.67 4.17 0 0 -4.16 4.16 0 0 -4.17 -8.33 0 0 -8.33 8.33 0 0 8.33 4.17 0 0 -8.33 4.17 0 0 -16.66 4.16 0 0 -33.33 3.09 0zm94.38 816.47c-0.03,2.78 -0.05,5.55 -0.08,8.33l-1.58 0 0 4.17 -4.16 0 0 4.16 -4.17 0 0 4.17 -8.33 0 0 4.16 -4.17 0 0 -16.66 4.17 0 0 -4.16 12.5 0 0 -4.17 5.82 0zm-0.47 33.33l-0.24 12.49 -0.95 0 0 -4.16 -4.16 0 0 -4.17 4.16 0 0 -4.16 1.19 0zm-0.33 16.66c-0.1,5.14 -0.21,10.71 -0.34,16.66l-0.52 0 0 -4.16 -4.16 0 0 -4.17 -4.17 0 0 -4.17 4.17 0 0 -4.16 5.02 0zm-1.6 70.81c-0.65,25.81 -1.46,54.3 -2.45,83.32l-0.97 0 0 -20.83 -4.17 0 0 -4.17 -4.16 0 0 -8.33 -4.17 0 0 -41.65 4.17 0 0 -4.17 8.33 0 0 -4.17 3.42 0zm-655.73 -533.2c2.62,-36.29 6.05,-69.5 9.92,-99.98l0.88 0 0 4.17 0 4.17 0 8.33 4.16 0 0 8.33 4.17 0 0 20.83 -4.17 0 0 8.33 4.17 0 0 8.33 4.16 0 0 12.5 4.17 0 0 12.49 -8.33 0 0 4.17 -8.33 0 0 4.17 -8.34 0 0 4.16 -2.46 0zm27.01 -208.28l0.45 -2.35 0 2.35 -0.45 0zm304.54 154.13l4.17 0 0 4.16 -4.17 0 0 -4.16zm262.44 524.87l4.16 0 0 4.17 -4.16 0 0 -4.17zm-304.1 -504.04l4.17 0 0 4.16 -4.17 0 0 -4.16 -4.16 0 0 12.49 -4.17 0 0 -4.16 -4.16 0 0 -4.17 -4.17 0 0 -4.16 4.17 0 0 -4.17 8.33 0 0 -4.17 4.16 0 0 8.34zm137.47 433.22l4.17 0 0 4.17 -4.17 0 0 -4.17zm129.14 70.82l4.16 0 0 8.33 -4.16 0 0 -8.33zm-79.15 -504.04l4.16 0 0 8.33 -4.16 0 0 -8.33zm-187.46 37.49l4.17 0 0 8.33 -4.17 0 0 -8.33zm33.33 -58.32l4.17 0 0 8.33 -4.17 0 0 -8.33zm208.28 474.88l8.33 0 0 4.17 -8.33 0 0 -4.17zm-54.15 -399.9l4.16 0 0 8.33 -4.16 0 0 -8.33zm-158.3 -112.47l4.17 0 0 8.33 -4.17 0 0 -8.33zm116.64 245.77l4.17 0 0 8.33 8.33 0 0 4.17 4.16 0 0 -12.5 -4.16 0 0 -4.17 -4.17 0 0 -4.16 -8.33 0 0 8.33zm-87.48 -416.57l8.33 0 0 4.17 -8.33 0 0 -4.17zm79.15 612.36l4.17 0 0 8.33 -4.17 0 0 -8.33zm79.15 -374.91l8.33 0 0 4.16 -8.33 0 0 -4.16zm-154.13 -224.95l8.33 0 0 4.17 -8.33 0 0 -4.17zm224.94 720.66l4.17 0 0 8.33 -4.17 0 0 -8.33zm-245.77 -554.03l4.17 0 0 12.5 -4.17 0 0 -12.5zm249.94 291.59l4.17 0 0 4.17 4.16 0 0 4.16 -8.33 0 0 -8.33zm-54.15 -308.26l4.16 0 0 -4.16 4.17 0 0 8.33 -8.33 0 0 -4.17zm0 41.66l8.33 0 0 4.17 -4.17 0 0 4.16 -4.16 0 0 -8.33zm-87.48 487.38l4.16 0 0 4.17 4.17 0 0 8.33 -4.17 0 0 -4.17 -4.16 0 0 -8.33 -4.17 0 0 -4.16 -4.16 0 0 -4.17 8.33 0 0 -4.16 4.16 0 0 -8.33 -4.16 0 0 -8.34 4.16 0 0 -20.82 8.33 0 0 20.82 -4.16 0 0 8.34 4.16 0 0 8.33 -4.16 0 0 4.16 -4.17 0 0 4.17 -4.16 0 0 4.16zm58.32 -437.39l8.33 0 0 8.33 -8.33 0 0 -8.33zm-220.78 -45.82l4.16 0 0 -4.17 4.17 0 0 8.33 -4.17 0 0 4.17 -4.16 0 0 -8.33zm133.3 -87.48l0 -4.17 4.16 0 0 -8.33 -4.16 0 0 -4.16 -4.17 0 0 -4.17 -20.83 0 0 -4.17 -8.33 0 0 4.17 -8.33 0 0 4.17 -4.16 0 0 4.16 -4.17 0 0 4.17 4.17 0 0 4.16 4.16 0 0 4.17 4.17 0 0 4.16 -12.5 0 0 4.17 -4.17 0 0 4.17 -4.16 0 0 -4.17 -4.17 0 0 -4.17 -4.16 0 0 4.17 -4.17 0 0 4.17 -4.16 0 0 4.16 4.16 0 0 4.17 25 0 0 4.16 4.16 0 0 -4.16 8.33 0 0 -4.17 8.33 0 0 -8.33 4.17 0 0 4.17 8.33 0 0 -4.17 4.17 0 0 -4.17 4.16 0 0 -4.16 4.17 0zm-137.47 141.63l-4.16 0 0 -4.16 -8.34 0 0 -4.17 16.67 0 0 8.33 4.16 0 0 4.17 -4.16 0 0 4.16 -4.17 0 0 -8.33zm133.3 504.05l8.33 0 0 -8.34 -8.33 0 0 8.34zm-66.65 -254.11l-8.33 0 0 4.17 4.17 0 0 4.16 4.16 0 0 -8.33zm66.65 -466.55l-4.16 0 0 24.99 16.66 0 0 -16.66 -12.5 0 0 -8.33zm-133.3 70.81l8.33 0 0 -8.33 -8.33 0 0 8.33zm291.6 591.53l4.16 0 0 -12.5 -12.49 0 0 -16.66 4.16 0 0 4.16 4.17 0 0 4.17 4.16 0 0 4.16 4.17 0 0 -8.33 4.16 0 0 -4.16 8.34 0 0 8.33 -4.17 0 0 4.16 4.17 0 0 8.33 -4.17 0 0 4.17 -4.17 0 0 12.5 -12.49 0 0 -8.33zm-216.62 -737.32l-4.16 0 0 -8.34 8.33 0 0 -4.16 8.33 0 0 -8.33 -4.17 0 0 -16.67 -4.16 0 0 -4.16 4.16 0 0 -8.33 4.17 0 0 -4.17 12.5 0 0 4.17 -4.17 0 0 8.33 -8.33 0 0 4.16 4.17 0 0 4.17 4.16 0 0 4.17 4.17 0 0 4.16 4.16 0 0 12.5 -4.16 0 0 4.16 -8.33 0 0 8.34 -4.17 0 0 4.16 -12.5 0 0 -4.16zm-116.64 903.94l0 -4.16 -4.16 0 0 4.16 4.16 0zm4.17 4.17l0 -4.17 -4.17 0 0 4.17 4.17 0zm0 0l0 4.16 4.17 0 0 -4.16 -4.17 0zm233.28 -62.49l4.16 0 0 4.17 4.17 0 0 -25 -4.17 0 0 12.5 -4.16 0 0 8.33zm-112.48 -287.43l4.17 0 0 -4.16 -4.17 0 0 4.16zm-4.16 33.33l-4.17 0 0 8.33 4.17 0 0 -8.33zm279.1 233.27l4.16 0 0 -12.49 -4.16 0 0 12.49zm-283.27 -733.15l4.17 0 0 -4.17 -4.17 0 0 4.17zm-49.99 20.83l12.5 0 0 -4.17 8.33 0 0 -4.16 -12.49 0 0 4.16 -8.34 0 0 4.17zm-8.33 8.33l4.17 0 0 -4.17 -4.17 0 0 4.17zm45.83 24.99l4.16 0 0 4.17 4.17 0 0 -25 -4.17 0 0 12.5 -4.16 0 0 8.33zm-8.33 -20.83l-4.17 0 0 25 4.17 0 0 -4.17 4.16 0 0 -8.33 -4.16 0 0 -12.5zm-33.58 -410.64c18.11,17.46 53.74,124.73 75.23,185.99l0 16.37 -4.16 0 0 4.17 -4.17 0 0 16.66 16.66 0 0 -4.17 3.75 0c17.16,43.75 27.13,75.01 32.65,104.15l-3.07 0 0 -4.17 -8.33 0 0 -4.17 -8.33 0 0 -4.16 -4.17 0 0 -4.17 -4.17 0 0 -4.16 -16.66 0 0 4.16 -4.16 0 0 8.33 4.16 0 0 4.17 12.5 0 0 4.17 -4.17 0 0 12.49 -4.16 0 0 4.17 -4.17 0 0 8.33 -4.16 0 0 8.33 -4.17 0 0 -4.16 -8.33 0 0 -4.17 -8.33 0 0 8.33 4.16 0 0 4.17 4.17 0 0 4.16 -8.33 0 -8.33 0 0 -16.66 -4.17 0 0 -4.17 4.17 0 0 -4.16 -4.17 0 0 -4.17 -8.33 0 0 12.5 4.17 0 0 12.5 -4.17 0 -8.33 0 0 16.66 -12.5 0 0 4.16 -4.17 0 0 4.17 -4.16 0 0 8.33 -12.5 0 0 12.5 8.33 0 0 4.16 -16.66 0 0 8.34 12.5 0 0 16.66 -16.66 0 0 -25 4.16 0 0 -4.16 -12.5 0 0 4.16 -8.33 0 0 4.17 -4.16 0 0 4.17 4.16 0 0 4.16 -8.33 0 0 4.17 -4.16 0 0 4.16 -2.07 0c56.33,-270.87 -12.98,-360.55 55.97,-431.47zm124.69 460.63c-0.48,14.26 -1.03,29.83 -1.54,47.12 -0.46,15.59 -1.25,36.59 -2.54,61.19l-3.72 0 0 4.17 3.5 0c-2.18,40.47 -5.73,90.16 -11.46,141.63l-0.37 0 0 3.34c-0.19,1.66 -0.39,3.33 -0.58,4.99l-3.59 0 0 8.33 -4.16 0 0 8.33 -4.17 0 0 4.17 -4.17 0 0 4.16 -4.16 0 0 4.17 -8.33 0 0 -4.17 -4.17 0 0 -4.16 -8.33 0 0 -4.17 -8.33 0 0 -4.16 -8.33 0 0 -4.17 -4.17 0 0 -4.17 -12.49 0 0 4.17 4.16 0 0 8.33 8.33 0 0 4.17 4.17 0 0 4.16 4.16 0 0 4.17 8.33 0 0 4.16 4.17 0 0 8.34 4.17 0 0 24.99 -4.17 0 0 33.33 -4.17 0 0 8.33 -8.33 0 0 -4.17 -8.33 0 0 -4.16 -4.16 0 0 -4.17 -4.17 0 0 -8.33 -4.16 0 0 -12.5 -4.17 0 0 -20.83 -4.17 0 0 4.17 -4.16 0 0 20.83 -4.17 0 0 20.83 -4.16 0 0 4.16 -12.5 0 0 4.17 -8.33 0 0 4.16 -4.17 0 0 4.17 -4.16 0 0 4.16 -8.33 0 0 4.17 -8.34 0 0 4.16 -8.33 0 0 4.17 -4.16 0 0 4.17 -8.33 0 0 4.16 -8.34 0 0 4.17 -12.49 0 0 4.16 -8.33 0 0 4.17 20.82 0 0 -4.17 12.5 0 0 -4.16 8.33 0 0 -4.17 8.33 0 0 4.17 8.34 0 0 -12.5 16.66 0 0 -4.17 4.16 0 0 -8.33 16.67 0 0 -4.16 8.33 0 0 -4.17 8.33 0 4.17 0 4.16 0 0 4.17 4.17 0 0 4.16 4.16 0 0 4.17 4.17 0 0 4.16 8.33 0 0 8.34 8.33 0 0 8.33 -4.17 0 0 8.33 -4.16 0 0 -8.33 -4.17 0 0 4.16 -4.16 0 0 8.33 -4.17 0 0 12.5 -4.16 0 0 4.17 -4.17 0 0 4.16 -8.33 0 0 4.17 -12.5 0 0 4.16 29.16 0 0 -4.16 4.17 0 0 -4.17 4.16 0 0 -4.16 4.17 0 0 -4.17 4.16 0 0 -4.16 4.17 0 0 -8.34 4.17 0 0 -12.49 4.16 0 0 -4.17 9.64 0c-17.86,78.67 -43.84,142.08 -81.63,156.57 -59.79,22.92 -78.1,-92.68 -90.53,-164.9l0.06 0 0 -4.17 4.17 0 0 -4.16 -5.68 0c-0.9,-5.17 -1.78,-10.05 -2.66,-14.56l0 -2.1 -0.41 0c-0.44,-2.27 -0.89,-4.44 -1.33,-6.49 -31.72,-146.47 -36.21,-129.69 4.41,-265.19 7.78,-25.98 14.5,-50.61 20.35,-74.07l14.48 0 0 -4.17 29.16 0 4.16 0 4.17 0 0 -4.17 4.16 0 4.17 0 0 4.17 20.83 0 0 -4.17 16.66 0 8.33 0 0 12.5 4.17 0 0 -8.33 4.16 0 0 -4.17 4.17 0 8.33 0 0 -4.16 45.82 0 0 -4.17 8.33 0 0 -4.16 4.17 0 0 -4.17 7.8 0zm-19.76 287.43l-0.54 4.08 0 -4.08 0.54 0zm-0.55 4.17c-4.29,32.58 -9.53,65.12 -15.9,95.81l-0.75 0 0 -4.17 -4.17 0 0 -8.33 -4.16 0 0 -33.32 -4.17 0 0 -4.17 4.17 0 0 -16.66 4.16 0 0 -8.33 4.17 0 0 -8.33 4.16 0 0 -4.17 4.17 0 0 -4.17 4.17 0 0 -4.16 4.15 0zm-16.76 99.97c-0.6,2.8 -1.2,5.58 -1.81,8.34l-2.25 0 0 -4.17 -4.16 0 0 -4.17 8.22 0z"/>
 </g>
</svg>
