<?xml version="1.0" encoding="UTF-8"?>
<!DOCTYPE svg PUBLIC "-//W3C//DTD SVG 1.1//EN" "http://www.w3.org/Graphics/SVG/1.1/DTD/svg11.dtd">
<!-- Creator: CorelDRAW (Versión de evaluación) -->
<svg xmlns="http://www.w3.org/2000/svg" xml:space="preserve" width="739px" height="2458px" version="1.1" style="shape-rendering:geometricPrecision; text-rendering:geometricPrecision; image-rendering:optimizeQuality; fill-rule:evenodd; clip-rule:evenodd"
viewBox="0 0 739 2457.4"
 xmlns:xlink="http://www.w3.org/1999/xlink"
 xmlns:xodm="http://www.corel.com/coreldraw/odm/2003">
 <defs>
  <style type="text/css">
   <![CDATA[
    .str0 {stroke:#4B4B4D;stroke-width:10;stroke-miterlimit:22.9256}
    .fil1 {fill:none}
    .fil0 {fill:#FEFEFE}
   ]]>
  </style>
 </defs>
 <g id="tooth-fissure-full-22">
  <metadata id="CorelCorpID_0Corel-Layer"/>
  <path id="root" class="fil0 str0" d="M531.08 354.11l4.17 4.17 -4.17 -4.17zm-112.47 816.47l-1.24 1.24c0.08,-0.08 1.65,-0.82 1.24,-1.24zm49.99 -20.83c-14.56,1.22 -12.24,0.87 -20.83,8.34 14.56,-1.22 12.24,-0.87 20.83,-8.34zm-58.32 -445.72l-1.24 1.24c0.08,-0.08 1.65,-0.83 1.24,-1.24zm4.17 -33.33l4.79 -8.12 -4.79 8.12zm54.27 -652.6c62.19,-1.98 27.84,-22.58 97.21,-17.21 47.56,70.28 19.71,81.33 10.44,163.76 -5.14,45.74 -6.72,110.39 -5.74,187.32 -21.46,-4.1 -13.23,-12.73 -38.37,-13.59 -10.08,-0.35 -0.55,2.73 -17.84,-0.93 1.52,18.23 4.83,21.88 12.5,33.33l0 12.49c-8.51,12.71 -5.26,5.7 -15,14.17 -20.1,17.47 -3.85,13.69 -22.89,35.43 -23.93,27.33 -13.4,17.07 -34.59,48.71 -29.24,43.65 -51.19,-0.05 -60.09,-6.18 -5.42,-3.74 -1.59,-1.16 -6.51,-2.38 -0.44,-0.11 -5.56,-0.55 -8.26,-1.16 -11.26,-2.54 -7.43,-1.58 -15.12,-5.27l-8.33 -4.17c-6.05,-9.03 -10.98,-13.02 -18.87,-22.78 -7.79,-9.63 -8.14,-12.29 -18.44,-13.8 2.83,-22.73 6.02,-45.46 9.77,-68.18 39.41,-239.13 127.66,-268.26 140.13,-339.56zm66.53 361.01l0 -8.33 -4.17 -16.67 4.17 16.67c16.35,-1.36 19.44,-6.25 33.85,-7.81 0.58,-0.06 1.14,-0.11 1.69,-0.16 0.76,48.66 2.5,101.98 4.99,158.36 -0.1,-0.4 -1.26,-1.14 -5.96,-4.59 -8.2,-21.82 -4.91,-37.42 -22.07,-49.99l-4.17 0 3.47 -4.86 0.7 4.86c0,22.75 -1.76,14.71 7.48,34.16l9.18 15.83c0,15.12 1.29,4.02 -5.41,8.33l-11.25 0c-4.74,-7.08 -6.32,-9.33 -13.69,-15.47 -9.54,-7.96 -6.24,-2.35 -13.62,-11.38 -9.77,-11.94 -9.09,-21.51 -22.68,-31.47l0 -4.17c-3.99,-9.66 -4.59,-5.28 5.54,-19.01 7.78,-10.54 7.02,-7 13.97,-19.8 7.69,-14.18 17.58,-26.73 17.98,-44.5zm40.41 145.8c-1.06,-3.08 0.05,-3.27 0.12,-3.65l0.17 3.81 -0.29 -0.16zm1.36 23.41c2.51,52.79 5.61,107.97 9.12,164.26l-0.9 -0.22 0 8.33 1.43 0.35c6.66,105.57 14.73,214.85 22.99,319.59 -2.71,1.38 -6.32,3.18 -11.2,5.49 -14.37,6.82 -20.05,11.92 -38.22,16.16l-4.16 0 -58.32 4.16 -4.17 0 -8.33 4.17 -4.16 0c-5.26,-3.33 0.51,-1.84 -8.89,-3.07 -7.87,-1.03 -4.6,-0.22 -9.93,0.31 -2.88,0.28 -9.51,2.55 -18.68,2.76l-8.33 0 -1.87 -13.12 -2.29 8.95 -8.33 4.17c-17.18,4 -16.5,3.07 -37.57,4.09 -34.52,1.69 -21.82,21.07 -64.09,5.99 -17.4,-6.21 -10.7,-5.8 -23.31,-14.25 -0.42,-18.79 -4.73,-22.01 -8.34,-37.49 14.36,0 5.46,1.14 7.09,-4.17 43.14,-24.2 2.77,-49.98 51.23,-49.98 -13.77,-11.42 -5.48,1.5 -12.83,-11.72 -3.52,-6.34 -3.69,-9.86 -2.46,-19.89l10.26 -40.12c7.17,-22.97 7.67,-16.23 6.17,-37.4 -1.12,-15.83 4.14,-22.69 12.6,-32.5l2.93 -8.34 10.22 -14.77c5,-7.25 6.24,-7.87 10.61,-14.39 18.87,5.04 34.12,23.33 54.15,25 -15.34,-29 -37.4,-19.34 -37.39,-49.66 0.02,-65.61 15.01,-52.36 24.89,-50.32 2.49,3.72 3.22,5.28 6.73,9.94 8.37,11.13 -1.28,-1.39 5.77,6.73 1.34,16.05 4.16,13.43 4.16,33.32 13.4,-9.82 5.62,1.5 9.62,-19.55 8.78,-46.3 -1.58,-17.28 35.57,-43.58 7.08,-5.01 10.49,-6.05 18.62,-10.54l48.67 -26.31c-24.43,0 -48.46,8.66 -66.83,20.42 -16.54,10.59 -25.29,16.5 -45.65,21.24l-4.16 0c-8.05,-5.39 -8.45,-6.94 -15.88,-13.28l-17.45 -11.71c2.68,-11.5 2.01,-9.39 8.34,-16.67 4.14,12.52 0.97,10.96 7.86,0.47 4.39,-6.66 3.3,-9.39 6.59,-14.97 8.47,-14.4 16.06,-11.08 27.2,-18.82 -29.06,0 -34.28,1.53 -46.58,20.08 -16.04,24.17 0.74,29.34 -32.57,21.58 9.73,13.27 6.94,3.38 16.53,17.29l-19.93 -1.41c14.24,9.47 16.23,8.99 19.26,23.15 12.91,60.42 -21.08,70.97 -36.68,94.27l-4.17 4.16 0 4.17c-5.64,0 -4.56,-1.31 -2.92,4.16 -14.2,-3.3 -6.34,-0.58 -17.91,-8.33l-4.16 -8.33c-8.09,-2.14 -6.45,-0.76 -12.5,-4.16 1.41,16.98 2.14,16.95 16.66,20.82l0 -8.33 -4.16 -8.33c-7.03,-15.2 3.61,-23.9 8.47,-41.51 4.98,-18.03 1.72,-28.48 13.6,-41.8l7.76 -0.57 -7.76 -7.76c2.56,-21.31 9.45,-6.81 15.42,-29.16 -26.79,2.93 0.33,-1.63 -14.64,6.98 -2.85,1.64 -5.09,12.83 -8.38,0.09 -4.67,-18.08 21.19,-5.53 7.44,-20.14 -7.31,-7.77 -14.48,10.09 -17.88,17.07l-10.78 22.58c-0.22,-0.61 -1.01,1.75 -1.58,2.58 15.45,23.08 20.16,18.08 7.22,48.81 -5.44,12.92 -18.69,35.97 -28.05,42.83 -20.31,-4.73 -11.45,-5.26 -17.71,-11.45 -0.96,-0.95 -1.47,-1.54 -1.78,-1.93l0.01 -0.07c19.35,-113.32 24.44,-228.4 37.49,-343.62 2.69,2.36 3.04,2.69 8.04,6.21 21.66,15.26 19.08,9.17 15.81,26.57l8.12 -4.8 16.67 0c13.34,6.41 21.42,4 37.49,12.5 5.94,6.27 -0.31,9.23 4.68,24.49 0.04,0.12 1.28,-0.05 3.65,8.84l12.5 0 8.33 0 12.49 -12.5c20.69,5.52 4.65,8.33 37.5,8.33l-0.17 -11.99 -16.5 -4.67c11.49,-23.95 -6.05,-5.94 25,-41.66l8.33 8.33 12.49 45.83c-13.88,-5.03 -7.14,-8.85 -20.82,-12.5l0 8.33 -4.17 8.33 12.5 0c11.51,5.53 13.29,2.69 26.57,6.76 17.41,5.33 7.75,5.72 23.42,9.9l8.33 -1.24c5.03,4.49 0.89,1.72 7.95,5.7 7.7,4.34 11.13,5.64 12.99,6.46zm35.84 532.64c15.9,198.41 31.93,376.25 39.46,475.4 -94.11,-54.18 -148.29,-175.78 -274.39,-144.64 -80.13,19.77 -138.01,123.1 -262.59,157.74 13.2,-161.8 61.57,-338.89 105.19,-512.94 2.38,-0.26 5.34,-0.46 12,-0.63 13.21,-0.36 22.94,-6.2 32.29,-4.7 3.72,0.6 5.56,0.49 10.35,4.18 9.42,7.28 5.69,9.49 14.3,19.4l4.17 4.17c-6.57,14.2 5.71,21.07 12.33,33.46 19.03,35.63 16.12,42.25 6.9,60.86l-5.45 18.78c-0.12,0.67 -0.25,1.88 -0.38,2.55l-5.07 21.82 0 8.33c-27.35,31.47 -5.44,-7.79 -29.16,41.65 -17.49,0 -34.58,-2.92 -41.65,0l-4.17 0 -4.17 4.15c-7.53,-11.37 7.43,-6.14 -16.34,-8.95 -0.58,-0.06 -14.74,0.64 -16.98,0.64l-8.96 -2.29 8.96 2.29c3.97,2.76 -0.96,0.3 7.67,4.67 1.08,0.54 4.33,2.06 5.6,2.57 13.54,5.45 3.81,2.69 20.03,5.25 0.06,0.7 0.08,1.79 0.17,2.08 0.11,0.3 0.57,1.79 0.69,2.09 0.22,0.57 2.31,3.22 3.33,4.17 -3.61,6.2 -0.54,-0.97 -1.19,7.45 -0.09,1.08 0.01,4.67 -0.07,5.89 -0.93,12.88 3.76,1.93 -2.91,15.82l8.34 0 0 20.82c11.3,-7.56 21.69,-13.49 33.25,-20.89 16.18,-10.36 12.62,-15.81 25.06,-24.93l8.34 0c-0.29,-12.69 -1.88,-15.19 -4.17,-24.99l13.74 -15.43c13.52,-13.23 11.2,-15.8 24.56,-19.03 11.74,-2.84 -7.43,1.68 7.96,-0.99 7.92,-1.38 2.5,1.31 7.89,-2.04l4.17 0 4.17 0 8.33 4.16c12.62,10.97 17.21,22.23 37.49,12.5 -4.01,-15.02 -0.38,-11.14 -16.66,-12.5l16.66 -37.49c8.58,4.54 9.87,5.78 20.83,8.33 -5.83,-21.8 -15.45,-11.54 0,-16.66l8.33 0c0.13,6.08 1.34,19.93 1.39,20.1 2.99,9.68 -1.12,5.8 11.74,8.92l-4.8 -24.85 4.16 0c18.33,-7.4 -3.46,0.49 18.51,-18.99 17.25,-15.3 9.6,-12.86 23.15,-14.34l-8.33 -12.5c4.16,-2.73 1.07,-1.71 8.61,-3.88 1.25,-0.37 5.73,-0.28 8.05,-0.28l-16.66 4.16 16.66 -4.16c7.19,4.73 -10,5.48 11.25,2.19 8.39,-1.3 11.51,-9.03 11.53,-9.06 20.77,-30.14 34.57,-15.68 55.75,-27.81 0.14,-0.08 12.41,-9.16 12.59,-9.29 20.41,-15.2 17.18,1.62 28.15,-12.33zm-319.22 -63.26l-4.17 -1.25c-24.88,2.08 -7.14,6.62 -29.15,12.5l-35.57 10.67c19.15,-76.93 37.12,-153.14 50.45,-227.06 0.5,1.19 1.07,2.46 1.78,3.94l13.74 0c1.62,5.26 -6.76,4.17 5.84,4.17l6.66 4.16 4.16 8.34 -9.57 29.15c16.99,-5.63 -7.26,-13.32 20.83,-20.82 0,50.28 -11.96,22.06 -15.39,47.86 -0.64,4.77 3.37,-3.4 -1.22,10.6 -0.41,1.25 -3.78,7.84 -5.49,10.93 -6.61,11.96 -7.98,10.08 -11.23,22.25 22.81,-15.28 18.9,-33.34 29.34,-41.48 5.33,-4.15 7.23,-3.57 16.48,-4.34 -6.26,26.88 -10.02,39.06 -12.52,71.36 -2.03,26.18 -19.64,36.15 -24.97,59.02zm237.44 -663.59l4.17 4.17 -4.17 -4.17zm-108.3 908.12c-2.93,6.7 1.98,5.11 -10.55,11.05 -11.06,5.25 11.62,-3.35 -6.12,1.44 4.93,21.17 16.19,39.27 -12.49,41.66 9.47,-17.9 -1.13,-7.56 12.49,-12.5 -8.62,-12.87 -12.46,-9.25 -16.66,-24.99l20.83 -20.83c1.23,0.65 6.07,2.08 6.75,2.31l5.75 1.86zm-54.16 120.8l20.72 -12.7c-2.81,-12.35 -3.55,-31.72 -8.22,-41.45 9.81,-2.29 12.3,-3.89 24.99,-4.17 -0.37,16.79 -2.48,10.7 -9.25,36.57 -4.33,16.53 -6.37,21.26 -28.24,21.75zm-141.63 -45.82c-6.51,9.73 -12.53,21.29 -11.89,37.31 0.63,15.66 8.51,23.57 -13.1,29.34l12.49 -79.15c0.84,0.59 2.19,1.12 2.69,1.49l9.81 11.01zm141.63 -679c0,20.12 -2.22,17.97 -8.33,24.99l0 -37.49c7.02,4.88 8.33,0.6 8.33,12.5zm58.32 62.48l8.33 -4.16c-12.13,-5.21 -4.82,-7.63 -8.33,4.16zm79.15 258.27c-29.32,-0.65 -17.7,-10.3 -16.66,-12.49 7.89,-2.8 8.83,5.33 9.83,6.28l4.5 4.26c0.46,0.43 1.56,1.29 2.33,1.95zm-149.96 133.3l-4.53 8.12 4.53 8.55c11.26,5.4 28.91,8.7 38.16,4.34 19.28,-9.08 6.87,-13.91 -0.67,-25.17l18.02 -4.33c0.53,-0.04 1.72,0.01 2.22,0l8.77 0.51c19.69,-5.44 1.86,-12.17 -11.21,-13.96 -17.93,-2.46 -40.21,11.84 -55.29,21.94zm79.14 -58.31l-4.16 0 0 -12.5 4.16 0 0 12.5zm99.98 87.47c2.91,-12.18 -0.54,-6 8.33,-12.49 -2.73,11.42 1.69,6.48 -8.33,12.49zm-54.15 -112.47c2.91,-12.18 -0.54,-6 8.33,-12.5 -2.74,11.42 1.69,6.49 -8.33,12.5zm-154.13 -487.38c-8.97,-6.23 -5.49,-0.61 -8.33,-12.5 9.2,6.4 5.17,0.68 8.33,12.5l9.16 7.5c-11.46,3.67 -7.11,-2.7 -13.33,9.18 5.35,15.82 0,11.11 0,33.31l-8.33 0c0,-15.57 2.08,-20.07 4.17,-33.31 -5.14,0.82 -4.17,11.12 -4.17,-4.18l12.5 -12.5zm237.44 154.13c-0.88,4.75 -9.16,9.11 -5.61,0.84 1.5,-3.49 7.61,-11.66 5.61,-0.84zm-324.92 329.08c-0.88,4.76 -9.16,9.11 -5.61,0.85 1.5,-3.49 7.61,-11.66 5.61,-0.85zm174.96 195.79c-4.28,4.28 -15.07,-5.99 -4.84,-2.25 0.11,0.04 11.83,-4.74 4.84,2.25zm-154.13 -224.94c-4.28,4.27 -15.07,-6 -4.84,-2.25 0.11,0.04 11.83,-4.75 4.84,2.25zm312.42 -279.1c-4.28,4.27 -15.07,-6 -4.83,-2.25 0.1,0.04 11.82,-4.75 4.83,2.25zm-154.13 516.54c-4.28,4.28 -15.07,-6 -4.83,-2.25 0.1,0.04 11.82,-4.74 4.83,2.25zm-149.96 -258.27c0,4.89 -8.97,9.38 -6.45,0 2.52,-9.41 -10.6,-0.12 1.92,-1.24 5.25,-0.47 4.53,-7.23 4.53,1.24zm-29.16 95.81c-0.17,1.37 -4.6,0.93 -4.97,0.79 -1.04,-0.39 -7.23,9.64 -1.81,-1.12 0.12,-0.23 7.77,-7.7 6.78,0.33zm208.28 -12.5c0,10.35 -6.66,1.06 -2.58,0 0.05,-0.01 2.58,-11.82 2.58,0zm-108.31 -441.56c0,10.35 -6.66,1.07 -2.58,0 0.05,-0.01 2.58,-11.82 2.58,0zm104.14 404.07c0,10.35 -6.66,1.06 -2.58,0 0.05,-0.01 2.58,-11.82 2.58,0zm-154.13 -74.98c0,10.35 -6.65,1.06 -2.58,0 0.05,-0.02 2.58,-11.82 2.58,0zm0 54.15c0,10.35 -6.65,1.07 -2.58,0 0.05,-0.01 2.58,-11.82 2.58,0zm187.46 -37.49c0,10.35 -6.66,1.06 -2.58,0 0.05,-0.01 2.58,-11.82 2.58,0zm0 41.66l-4.17 0 3.48 -4.86 0.69 4.86c4.22,-5.59 4.17,8.76 4.17,-12.5l13.38 11.6 -17.43 9.46 -0.12 -8.56zm74.98 124.97l-1.24 -1.25c0.08,0.09 1.66,0.83 1.24,1.25zm-116.64 -104.15l-1.24 -1.24c0.08,0.08 1.66,0.83 1.24,1.24zm-79.14 -45.82l-1.25 -1.24c0.09,0.08 1.66,0.83 1.25,1.24zm20.82 -304.09l-1.24 -1.24c0.08,0.08 1.66,0.83 1.24,1.24zm0 666.5l-1.24 -1.24c0.08,0.08 1.66,0.83 1.24,1.24zm-37.49 -770.64l-1.24 -1.24c0.08,0.08 1.66,0.82 1.24,1.24z"/>
  <g>
   <path id="crown" class="fil0" d="M37.59 2455.83c-38.43,-38.53 -40.56,-80.82 -36.58,-129.61 5.26,-0.33 10.01,-1.39 17.03,-4.27 2.58,5.43 6.3,11.27 11.4,16.43 9.43,9.54 1.68,8.14 20.68,8.57l5.3 33.41c6.26,13.34 2.7,-4.44 7.2,12.41l-13.21 16.02c16.14,-2.95 12.36,-6.23 29.87,-7.69l4.16 0 8.33 8.33 4.17 4.17c12.84,17.52 8.38,-1.52 29.69,14.35 0.18,0.13 12.45,9.21 12.59,9.29 16.52,9.47 28.56,2.74 42.91,13.65 -59.34,5.53 -112.81,8.57 -143.54,4.94zm-35.38 -142.86c1.57,-16.28 3.52,-33.27 4.76,-51.07 10.02,-142.62 17.99,-215.53 30.92,-289.86l24.73 0c0,16.84 4.82,39.3 17.9,48.74 3.66,12.25 7.67,16.71 11.86,29.8 6.6,20.61 -1.88,17.75 16.06,29.76 -0.94,-11.24 -1.96,-11.33 -4.17,-20.82 11.25,-0.94 11.33,-1.96 20.83,-4.17l0 -8.33c-9.5,2.21 -9.58,3.23 -20.83,4.16 -2.85,-12.25 -2.28,-7.1 -3.76,-21.14 -0.44,-4.18 -0.06,-7.65 -1.11,-11.6 -2.98,-11.22 1.22,-1.72 -4.7,-8.91 2.62,-14.1 2,-5.34 -2.93,-8.33 -3.68,9.87 2.5,5.46 -8.33,8.33 2.7,-10.18 -1.84,-5.63 8.33,-8.33l0 -2.93c-2.05,-10.06 -3.1,-16.94 -5.72,-28.86 -0.13,-0.58 -3.68,-12.64 -3.77,-12.87l-7.17 -13.66c9.28,-6.22 11.54,-8.6 19.08,-18.42 14.78,-19.25 16.74,-9.14 28.11,-26.04 14.61,-21.73 2.22,-9.61 24.01,-21.9 7.06,-3.98 2.92,-1.22 7.95,-5.7l8.33 1.24c15.66,-4.18 6,-4.57 23.42,-9.91 13.28,-4.07 15.05,-1.23 26.57,-6.75l12.5 0 -4.17 -8.33 0 -8.33c-13.68,3.65 -6.94,7.47 -20.83,12.49l12.5 -45.82 8.33 -8.33c31.05,35.72 13.5,17.71 24.99,41.66l-16.5 4.67 -0.16 11.99c32.84,0 16.8,-2.81 37.49,-8.33l12.5 12.49 8.33 0 12.5 0c2.37,-8.88 3.61,-8.71 3.65,-8.83 4.99,-15.27 -1.27,-18.22 4.68,-24.49 16.07,-8.5 24.14,-6.09 37.49,-12.5l16.66 0 8.13 4.79c-3.27,-17.39 -5.85,-11.31 15.81,-26.56 5.72,-4.03 5.35,-3.88 9.39,-7.39 34.74,25.46 1.49,-1.44 35.92,9.43 20.03,6.33 22.33,14.86 43.23,19.73l0 4.17 4.86 -3.47 -4.86 -0.7c-12.15,-18.13 -20.71,-14.83 -33.3,-37.52l-12.41 -25.7c-7.44,-18.48 -6.21,-8.94 4.05,-24.26 -16.25,-7.79 -13.41,-3.33 -25,-16.66 2.02,24.18 7.1,18.18 -4.16,41.66l-4.17 8.33c-19.03,1.58 -17.43,2.94 -26.95,14.7 -7.9,9.77 -12.82,13.76 -18.87,22.79l-8.33 4.17c-7.69,3.69 -3.87,2.73 -15.12,5.26 -2.71,0.61 -7.82,1.05 -8.26,1.16 -4.92,1.22 -1.09,-1.35 -6.52,2.39 -8.9,6.13 -30.84,49.83 -60.08,6.18 -21.19,-31.64 -10.66,-21.38 -34.6,-48.71 -19.04,-21.74 -2.78,-17.96 -22.88,-35.44 -9.75,-8.46 -6.49,-1.45 -15,-14.16l0 -12.5c7.67,-11.44 10.98,-15.09 12.5,-33.32 -17.29,3.66 -7.77,0.58 -17.85,0.93 -33.09,1.13 -8.34,15.73 -69.63,15.73 10.77,14.7 9.99,6.39 32.8,8.86 14.41,1.56 17.49,6.44 33.85,7.8l0 8.34c0.39,17.77 10.28,30.32 17.98,44.5 6.94,12.8 6.18,9.26 13.96,19.8 10.14,13.73 9.54,9.35 5.55,19.01l0 4.17c-13.6,9.96 -12.91,19.53 -22.68,31.47 -7.39,9.03 -4.08,3.42 -13.62,11.37 -7.37,6.14 -8.95,8.4 -13.69,15.47l-11.25 0c-6.7,-4.3 -5.41,6.8 -5.41,-8.33l9.17 -15.82c9.25,-19.45 7.49,-11.41 7.49,-34.16l4.17 0 -3.47 -4.86 -0.7 4.86c-17.17,12.57 -13.87,28.16 -22.07,49.98 -10.22,7.52 -3.73,2.21 -5.85,8.33 -27.45,15.41 -18.12,29.4 -39.97,41.66l-11.26 11.25 -12.49 9.58c-5.59,-4.23 8.76,-4.17 -12.5,-4.17l0 4.17 12.5 0c-5.5,20.58 -7.75,2.75 -8.33,29.16 -5.51,0 -15.23,-0.59 -20.28,-0.32l-0.68 0.17c11.65,-62.97 27.25,-131.59 50.91,-247.59 24.31,-119.12 -0.1,-81.59 100.1,-127.59 182.91,-83.98 154.42,-259.06 392.18,-30.34 0.85,0.82 1.67,1.59 2.49,2.37 -12.29,15.78 -8.16,-1.2 -20.68,15.89l-8.96 2.29 8.96 -2.29c16.88,-3.93 19.92,-9.74 34.77,2.65 13.77,11.48 14.13,16.12 11.05,30.68l-17.01 24.65c-6.87,13.33 -0.57,19.98 -24.35,20.48 -19.21,0.4 -15.24,-7.64 -46.12,-7.64 18.79,28.06 30.38,-6.31 33.33,29.16 17.24,-19.84 36.9,-14.98 33.58,1.91 -2.7,13.73 0.55,-1.44 -3.56,10.83 -4.05,12.06 -2.94,10.05 -6.05,23.73 -4.51,19.91 -15.92,32.74 -18.66,43.82 -4.82,19.49 1.09,33.64 -6.18,56.3 -4.67,14.56 -11.16,29.62 -11.63,50.86l0 8.33 -12.5 0c12.7,12.05 5.81,5.23 4.17,25 17.99,-12.05 6.16,-6.08 29.16,-4.17 -7.85,10.72 -20.79,18.3 -33.33,12.5 4.88,20.92 8.21,7.5 -20.1,38.21 -14.65,15.89 -27.21,10.47 -50.71,15.94l12.76 4.04c17.93,1.54 26.51,-7.68 49.72,-8.2l4.17 4.16c1.7,7.3 1.99,9.88 3.94,16.89 1.98,7.15 -0.95,1.43 3.06,9.44 2.81,5.61 2.8,3.9 5.5,7l0 4.16 4.86 -3.47 -4.86 -0.69c-0.81,-9.74 -1.29,-11.57 -2.98,-17.85 -5.02,-18.72 4.37,-5.3 -9.52,-15.48l-4.17 -4.16c-3.4,-6.05 -2.02,-4.41 -4.16,-12.5 4.6,-2.43 7,-2.83 11.77,-5.16 15.55,-7.59 6.18,-1.5 9.77,-7.27 3.33,-5.35 -5.46,-6.45 14.28,-18.43 30.14,-18.29 22.56,-1.07 55.82,1.7 12.09,3.23 5.85,0.39 15.42,8.33l9.32 4.92c-2.85,-13.73 0.81,-7.07 -9.32,-13.25 1.63,-5.47 2.72,-4.16 -2.92,-4.16l-29.16 -41.66c3.23,-4.42 1.24,-2.22 6.39,-6.1 0.6,-0.45 1.77,-1.3 2.42,-1.76l7.85 -4.64c-21.41,-0.48 -11.96,3.77 -20.83,-8.33 31.7,-21.23 23.99,-2.39 37.5,-20.83 -20.51,-2.24 -5.99,3.14 -14.92,-5.91 -9.14,-9.29 -3.61,6.17 -5.91,-14.92 29.34,14.08 45.02,2.19 58.32,8.34 6.22,8.96 0.61,5.48 12.49,8.33l4.17 8.33c2.85,12.25 4.16,12.71 4.16,29.16l8.34 0c-1.34,-16.02 -2.68,-21.96 -12.5,-29.16l-4.17 -8.33 -4.16 -8.33 0 -12.5c8.96,-6.23 5.48,-0.61 8.33,-12.5 -9.21,6.4 -5.18,0.68 -8.33,12.5 -2.15,-0.18 -12.82,-1.35 -12.97,-1.35 -17.88,1.19 -17.44,11.42 -36.87,1.54 -8.57,-4.35 -8.17,-7.35 -19.6,-14.07 -7.95,-4.68 -14.94,-7.27 -22.21,-11.12 0,-61.83 1.83,-22.66 14.49,-72.99 2.61,-10.41 4.2,-13.61 6.34,-22.81 9.47,0.78 6.17,1.18 10.07,2.42l31.59 14.24c-7.9,-29.59 -13.77,6.21 -45.83,-41.66 3.3,-14.13 8.76,-21.44 12.5,-37.49l8.33 -8.33c1.17,-5 2.68,-11.11 2.47,-17.2 28.99,24.93 39.57,36.24 51.69,99.9l0 0.61 0.11 0c7.51,39.62 15.62,99.37 29.08,194.94 1.13,8.03 2.4,17.14 3.76,27.1 -4.57,3.1 -8.67,6.52 -12.12,11.24 4.96,0 9.43,-0.32 13.52,-0.91 14.08,104.63 36.08,288.59 27.24,360.64 -19.03,154.99 -174.69,137.66 -301,149.18 -5.36,0.49 -11.16,1.06 -17.29,1.7 0.64,-3.18 0.31,-6.65 -1.57,-10.73l4.16 -4.17c8.61,-9.91 4.88,-12.12 14.31,-19.4 4.79,-3.7 6.62,-3.58 10.34,-4.18 9.36,-1.5 19.09,4.34 32.29,4.69 15.7,0.43 10.84,0.94 26.37,2.23 -5.88,-8.03 -1.27,-0.49 -5.93,-6.56 -4.97,-6.47 -3.32,-1.14 -6.56,-10.1l-41.66 -12.5c-22.01,-5.88 -4.27,-10.43 -29.16,-12.5l-4.16 1.25c-5.33,-22.87 -22.94,-32.84 -24.97,-59.02 -2.5,-32.3 -6.26,-44.49 -12.52,-71.36 9.24,0.77 11.15,0.19 16.48,4.34 10.43,8.14 6.52,26.2 29.34,41.48 -3.25,-12.17 -4.62,-10.29 -11.23,-22.25 -1.72,-3.1 -5.08,-9.69 -5.49,-10.93 -4.59,-14 -0.58,-5.83 -1.22,-10.6 -3.43,-25.8 -15.39,2.42 -15.39,-47.87 28.09,7.5 3.84,15.2 20.83,20.83l-9.57 -29.16 4.16 -8.33 6.65 -4.16c12.6,0 4.23,1.09 5.85,-4.17l13.74 0c2.61,-5.44 3.2,-7.89 6.27,-14.56 6.88,-14.95 1.85,1.79 6.23,-14.6 -4.58,2.2 -4.9,1.02 -8.9,3.6 -6.75,4.38 -2.59,1.68 -6.72,5.77 -6.27,6.2 2.6,6.73 -17.71,11.46 -9.36,-6.86 -22.62,-29.91 -28.05,-42.83 -12.94,-30.73 -8.23,-25.74 7.22,-48.82 -0.57,-0.82 -1.37,-3.18 -1.58,-2.58l-10.79 -22.57c-3.39,-6.98 -10.56,-24.84 -17.88,-17.07 -13.74,14.61 12.11,2.06 7.45,20.14 -3.29,12.73 -5.53,1.55 -8.38,-0.09 -14.97,-8.61 12.15,-4.05 -14.64,-6.99 5.97,22.36 12.86,7.86 15.42,29.16l-7.76 7.76 7.76 0.58c11.87,13.32 8.61,23.77 13.59,41.8 4.86,17.61 15.51,26.31 8.48,41.51l-4.16 8.33c-11.58,7.75 -3.72,5.03 -17.91,8.33 1.63,-5.47 2.72,-4.16 -2.92,-4.16l0 -4.17 -4.17 -4.16c-15.6,-23.31 -49.59,-33.85 -36.68,-94.28 3.03,-14.15 5.02,-13.68 19.25,-23.14l-19.92 1.41c9.59,-13.91 6.8,-4.02 16.52,-17.3 -33.31,7.76 -16.52,2.59 -32.56,-21.58 -12.31,-18.54 -17.53,-20.07 -46.58,-20.07 11.14,7.74 18.73,4.42 27.2,18.81 3.29,5.59 2.2,8.32 6.58,14.98 6.9,10.49 3.72,12.05 7.87,-0.47 6.33,7.28 5.66,5.17 8.33,16.66l-17.44 11.72c-7.43,6.34 -7.84,7.89 -15.88,13.28l-4.17 0c-20.35,-4.74 -29.1,-10.65 -45.64,-21.24 -18.37,-11.76 -42.4,-20.42 -66.83,-20.42l48.67 26.31c8.12,4.49 11.54,5.53 18.62,10.54 37.15,26.3 26.79,-2.72 35.57,43.58 4,21.05 -3.79,9.73 9.61,19.55 0,-19.9 2.83,-17.27 4.17,-33.33 7.05,-8.11 -2.6,4.41 5.77,-6.72 3.5,-4.66 4.24,-6.22 6.72,-9.94 9.89,-2.04 24.88,-15.29 24.9,50.32 0.01,30.32 -22.05,20.66 -37.39,49.66 20.03,-1.67 35.27,-19.96 54.15,-25 4.37,6.52 5.6,7.14 10.61,14.39l10.22 14.77 2.92 8.33c8.47,9.81 13.73,16.68 12.61,32.51 -1.5,21.17 -1,14.43 6.16,37.4l10.27 40.12c1.23,10.02 1.06,13.55 -2.46,19.89 -7.35,13.22 0.94,0.3 -12.84,11.72 48.47,0 8.09,25.78 51.23,49.98 1.64,5.31 -7.26,4.17 7.09,4.17 -3.61,15.48 -7.91,18.7 -8.33,37.49 -12.61,8.45 -5.91,8.04 -23.31,14.24 -42.27,15.09 -29.57,-4.29 -64.1,-5.98 -21.07,-1.03 -20.39,-0.09 -37.56,-4.09l-8.33 -4.17 -2.29 -8.96 -1.88 13.13 -8.33 0c-9.16,-0.21 -15.79,-2.48 -18.67,-2.76 -5.33,-0.53 -2.06,-1.35 -9.93,-0.31 -9.41,1.23 -3.64,-0.27 -8.89,3.07l-4.16 0 -8.34 -4.17 -4.16 0 -58.32 -4.17 -4.17 0c-18.17,-4.23 -23.85,-9.33 -38.22,-16.15 -28.22,-13.39 -13.75,-9.39 -30.58,-8.82 -9.58,0.33 -11.63,-12.2 -14.05,-17.14 -10.54,-21.47 -24.98,-31.1 -46.28,-45.36l0 -12.5 -8.33 0 0 11.25c-3.41,2.22 -6.9,3.77 -10.42,4.76zm38.84 -358.62l0.55 -2.96 -0.55 2.96zm292.25 479.72c-11.95,1.42 -24.26,2.89 -36.79,4.36l0 0 -0.04 0 -8.76 0.51c-19.69,-5.44 -1.86,-12.17 11.2,-13.96 10.73,-1.47 23.02,3.06 34.39,9.09zm-112.4 12.85l-8.33 0.87 0.01 -0.87 8.32 0zm158.31 -295.76l4.16 -8.33c8.09,-2.15 6.44,-0.77 12.5,-4.17 -1.42,16.99 -2.14,16.95 -16.66,20.83l0 -8.33zm-8.34 -245.77l1.25 -1.25c-0.08,0.09 -1.66,0.83 -1.25,1.25zm295.77 -220.78l1.24 -1.24c-0.08,0.08 -1.66,0.82 -1.24,1.24zm-333.26 324.92l1.25 -1.24c-0.09,0.08 -1.66,0.82 -1.25,1.24zm20.83 304.09l1.24 -1.24c-0.08,0.08 -1.65,0.83 -1.24,1.24zm-79.15 45.82l1.25 -1.24c-0.09,0.08 -1.66,0.83 -1.25,1.24zm262.44 -524.87l1.24 -1.24c-0.08,0.08 -1.65,0.83 -1.24,1.24zm87.48 -233.28l1.24 -1.24c-0.08,0.08 -1.66,0.83 -1.24,1.24zm62.48 316.59l0.11 1.85c3.87,-0.35 -5.83,7.95 1.3,-0.44l0.44 -1.3c-0.01,-0.02 -0.68,-0.18 -0.7,-0.19 -0.03,-0.02 -0.87,-0.19 -1.15,0.08zm-454.05 420.73l4.16 0 -3.47 -4.85 -0.69 4.85c-4.23,-5.58 -4.17,8.77 -4.17,-12.49l-13.39 11.6 17.44 9.45 0.12 -8.56zm0 -41.65c0,10.35 6.66,1.06 2.58,0 -0.05,-0.02 -2.58,-11.82 -2.58,0zm187.45 37.49c0,10.35 6.66,1.06 2.59,0 -0.06,-0.01 -2.59,-11.82 -2.59,0zm0 -54.15c0,10.35 6.66,1.06 2.59,0 -0.06,-0.02 -2.59,-11.82 -2.59,0zm79.15 -449.89c0,10.34 6.66,1.06 2.58,0 -0.05,-0.02 -2.58,-11.82 -2.58,0zm-233.28 524.87c0,10.35 6.66,1.06 2.59,0 -0.05,-0.02 -2.59,-11.82 -2.59,0zm104.14 -404.07c0,10.35 6.66,1.06 2.59,0 -0.05,-0.01 -2.59,-11.82 -2.59,0zm-108.3 441.56c0,10.35 6.66,1.06 2.58,0 -0.05,-0.01 -2.58,-11.82 -2.58,0zm258.27 -562.36c0,10.34 6.66,1.06 2.58,0 -0.05,-0.02 -2.58,-11.82 -2.58,0zm129.13 -149.97c0.17,1.38 4.6,0.93 4.97,0.8 1.04,-0.39 7.23,9.64 1.81,-1.12l-2.17 -0.99c-3.23,-0.07 -5.67,-7.27 -4.61,1.31zm-179.12 724.83c0.17,1.37 4.6,0.93 4.96,0.79 1.04,-0.39 7.24,9.64 1.81,-1.12 -0.12,-0.24 -7.77,-7.7 -6.77,0.33zm54.15 -312.43c-2.14,11.58 9.94,-2 4.13,-1.63 -7.8,0.48 -2.54,-6.98 -4.13,1.63zm-83.31 216.62c0,4.89 8.96,9.38 6.45,0 -2.52,-9.42 10.6,-0.12 -1.92,-1.24 -5.25,-0.47 -4.53,-7.23 -4.53,1.24zm-304.09 -258.28c4.28,4.28 15.06,-5.99 4.83,-2.24 -0.1,0.03 -11.83,-4.75 -4.83,2.24zm337.42 -166.62c4.27,4.28 15.06,-6 4.83,-2.25 -0.1,0.04 -11.83,-4.74 -4.83,2.25zm145.79 -37.49c4.28,4.28 15.07,-6 4.84,-2.25 -0.11,0.04 -11.83,-4.74 -4.84,2.25zm-170.79 483.21c4.28,4.28 15.07,-5.99 4.83,-2.24 -0.1,0.03 -11.82,-4.75 -4.83,2.24zm20.83 29.16c0.88,4.76 9.16,9.11 5.61,0.85 -1.5,-3.49 -7.61,-11.66 -5.61,-0.85zm-324.92 -329.08c0.88,4.75 9.16,9.1 5.6,0.84 -1.5,-3.49 -7.6,-11.66 -5.6,-0.84zm237.44 -154.13c8.96,-6.23 5.49,-0.61 8.33,-12.5 -9.2,6.4 -5.17,0.68 -8.33,12.5l-9.16 7.5c11.46,3.67 7.11,-2.7 13.33,9.18 -5.35,15.82 0,11.1 0,33.31l8.33 0c0,-15.57 -2.08,-20.07 -4.17,-33.31 5.14,0.82 4.17,11.11 4.17,-4.19l-12.5 -12.49zm233.28 145.79c3.4,-6.05 2.02,-4.4 4.16,-12.49l-8.33 4.16c-0.11,0.18 -7.47,-4.05 -3.73,11.7 1.9,7.99 2.12,4.9 7.9,9.13l0 -12.5zm-387.41 341.59c-2.91,-12.18 0.54,-6 -8.33,-12.5 2.73,11.42 -1.69,6.49 8.33,12.5zm45.82 24.99l4.17 0 0 -12.49 -4.17 0 0 12.49zm367.83 -424.89l11.25 -11.26c7.53,-10.54 14.35,-16.55 20.83,-26.23 -9.82,0.81 -12.62,2.51 -16.05,1.54 -10.57,-2.98 2.09,2.02 -6.22,-4.14 -25.6,-18.99 16.27,3.61 -6.89,-5.74l-2.01 12.5c-3.15,11.63 -9.01,15.31 -14.01,25.62 -6.5,13.39 -12.73,31.02 -13.14,49.36l26.24 -41.65zm-438.64 349.91c29.32,-0.65 17.7,-10.3 16.66,-12.5 -7.9,-2.79 -8.83,5.34 -9.84,6.29l-4.49 4.26c-0.47,0.43 -1.57,1.29 -2.33,1.95zm433.23 -570.69c-1.36,-16.29 2.52,-12.66 -12.5,-16.67 1.35,16.29 -2.52,12.66 12.5,16.67zm-287.43 62.48c0,-8.47 -0.73,-1.7 4.52,-1.23 12.52,1.12 -0.6,-8.18 1.92,1.23 2.52,9.39 -6.44,4.9 -6.44,0zm-66.66 249.94l-8.33 -4.17c12.14,-5.2 4.83,-7.62 8.33,4.17zm58.32 -62.48c0,20.12 2.23,17.97 8.34,24.99l0 -37.49c-7.03,4.88 -8.34,0.6 -8.34,12.5zm170.8 -120.81l-12.5 0 0 16.66 16.02 -13.2c3.99,13.26 0.59,9.85 13.14,13.2 -2.29,-10.79 -1.08,-12.7 -1.98,-16.62 -2.27,-9.9 -5.1,-5.82 -6.35,-20.87l-12.5 0c2.21,9.5 3.21,9.59 4.17,20.83zm-333.26 -183.29l-4.16 4.17 4.16 -4.17zm0 0l-4.16 4.17 4.16 -4.17zm-4.16 16.66l4.16 -16.66 -4.16 16.66zm245.77 41.66l0 25 -4.16 0c0,-22.14 -12.74,-12.61 4.16,-25zm-120.8 291.6l1.24 1.24c-0.08,-0.08 -1.66,-0.83 -1.24,-1.24zm-4.17 -33.33l-4.79 -8.12 4.79 8.12zm283.27 -137.46c15.54,8.22 19.41,10.44 29.16,24.99 -24.07,-2 -28.53,-2.05 -29.16,-24.99zm-4.17 -87.48c-1.49,-7.89 5.25,-14.82 2.64,-2.64 -0.06,0.28 0.12,17.18 -2.64,2.64zm-441.56 616.51c16.9,12.39 4.17,2.86 4.17,25l-4.17 0 0 -25z"/>
   <path id="_1" class="fil1 str0" d="M37.59 2455.83c-38.43,-38.53 -40.56,-80.82 -36.58,-129.61 5.26,-0.33 10.01,-1.39 17.03,-4.27 2.58,5.43 6.3,11.27 11.4,16.43 9.43,9.54 1.68,8.14 20.68,8.57l5.3 33.41c6.26,13.34 2.7,-4.44 7.2,12.41l-13.21 16.02c16.14,-2.95 12.36,-6.23 29.87,-7.69l4.16 0 8.33 8.33 4.17 4.17c12.84,17.52 8.38,-1.52 29.69,14.35 0.18,0.13 12.45,9.21 12.59,9.29 16.52,9.47 28.56,2.74 42.91,13.65 -59.34,5.53 -112.81,8.57 -143.54,4.94zm-35.38 -142.86c1.57,-16.28 3.52,-33.27 4.76,-51.07 10.02,-142.62 17.99,-215.53 30.92,-289.86l24.73 0c0,16.84 4.82,39.3 17.9,48.74 3.66,12.25 7.67,16.71 11.86,29.8 6.6,20.61 -1.88,17.75 16.06,29.76 -0.94,-11.24 -1.96,-11.33 -4.17,-20.82 11.25,-0.94 11.33,-1.96 20.83,-4.17l0 -8.33c-9.5,2.21 -9.58,3.23 -20.83,4.16 -2.85,-12.25 -2.28,-7.1 -3.76,-21.14 -0.44,-4.18 -0.06,-7.65 -1.11,-11.6 -2.98,-11.22 1.22,-1.72 -4.7,-8.91 2.62,-14.1 2,-5.34 -2.93,-8.33 -3.68,9.87 2.5,5.46 -8.33,8.33 2.7,-10.18 -1.84,-5.63 8.33,-8.33l0 -2.93c-2.05,-10.06 -3.1,-16.94 -5.72,-28.86 -0.13,-0.58 -3.68,-12.64 -3.77,-12.87l-7.17 -13.66c9.28,-6.22 11.54,-8.6 19.08,-18.42 14.78,-19.25 16.74,-9.14 28.11,-26.04 14.61,-21.73 2.22,-9.61 24.01,-21.9 7.06,-3.98 2.92,-1.22 7.95,-5.7l8.33 1.24c15.66,-4.18 6,-4.57 23.42,-9.91 13.28,-4.07 15.05,-1.23 26.57,-6.75l12.5 0 -4.17 -8.33 0 -8.33c-13.68,3.65 -6.94,7.47 -20.83,12.49l12.5 -45.82 8.33 -8.33c31.05,35.72 13.5,17.71 24.99,41.66l-16.5 4.67 -0.16 11.99c32.84,0 16.8,-2.81 37.49,-8.33l12.5 12.49 8.33 0 12.5 0c2.37,-8.88 3.61,-8.71 3.65,-8.83 4.99,-15.27 -1.27,-18.22 4.68,-24.49 16.07,-8.5 24.14,-6.09 37.49,-12.5l16.66 0 8.13 4.79c-3.27,-17.39 -5.85,-11.31 15.81,-26.56 5.72,-4.03 5.35,-3.88 9.39,-7.39 34.74,25.46 1.49,-1.44 35.92,9.43 20.03,6.33 22.33,14.86 43.23,19.73l0 4.17 4.86 -3.47 -4.86 -0.7c-12.15,-18.13 -20.71,-14.83 -33.3,-37.52l-12.41 -25.7c-7.44,-18.48 -6.21,-8.94 4.05,-24.26 -16.25,-7.79 -13.41,-3.33 -25,-16.66 2.02,24.18 7.1,18.18 -4.16,41.66l-4.17 8.33c-19.03,1.58 -17.43,2.94 -26.95,14.7 -7.9,9.77 -12.82,13.76 -18.87,22.79l-8.33 4.17c-7.69,3.69 -3.87,2.73 -15.12,5.26 -2.71,0.61 -7.82,1.05 -8.26,1.16 -4.92,1.22 -1.09,-1.35 -6.52,2.39 -8.9,6.13 -30.84,49.83 -60.08,6.18 -21.19,-31.64 -10.66,-21.38 -34.6,-48.71 -19.04,-21.74 -2.78,-17.96 -22.88,-35.44 -9.75,-8.46 -6.49,-1.45 -15,-14.16l0 -12.5c7.67,-11.44 10.98,-15.09 12.5,-33.32 -17.29,3.66 -7.77,0.58 -17.85,0.93 -33.09,1.13 -8.34,15.73 -69.63,15.73 10.77,14.7 9.99,6.39 32.8,8.86 14.41,1.56 17.49,6.44 33.85,7.8l0 8.34c0.39,17.77 10.28,30.32 17.98,44.5 6.94,12.8 6.18,9.26 13.96,19.8 10.14,13.73 9.54,9.35 5.55,19.01l0 4.17c-13.6,9.96 -12.91,19.53 -22.68,31.47 -7.39,9.03 -4.08,3.42 -13.62,11.37 -7.37,6.14 -8.95,8.4 -13.69,15.47l-11.25 0c-6.7,-4.3 -5.41,6.8 -5.41,-8.33l9.17 -15.82c9.25,-19.45 7.49,-11.41 7.49,-34.16l4.17 0 -3.47 -4.86 -0.7 4.86c-17.17,12.57 -13.87,28.16 -22.07,49.98 -10.22,7.52 -3.73,2.21 -5.85,8.33 -27.45,15.41 -18.12,29.4 -39.97,41.66l-11.26 11.25 -12.49 9.58c-5.59,-4.23 8.76,-4.17 -12.5,-4.17l0 4.17 12.5 0c-5.5,20.58 -7.75,2.75 -8.33,29.16 -5.51,0 -15.23,-0.59 -20.28,-0.32l-0.68 0.17c11.65,-62.97 27.25,-131.59 50.91,-247.59 24.31,-119.12 -0.1,-81.59 100.1,-127.59 182.91,-83.98 154.42,-259.06 392.18,-30.34 0.85,0.82 1.67,1.59 2.49,2.37 -12.29,15.78 -8.16,-1.2 -20.68,15.89l-8.96 2.29 8.96 -2.29c16.88,-3.93 19.92,-9.74 34.77,2.65 13.77,11.48 14.13,16.12 11.05,30.68l-17.01 24.65c-6.87,13.33 -0.57,19.98 -24.35,20.48 -19.21,0.4 -15.24,-7.64 -46.12,-7.64 18.79,28.06 30.38,-6.31 33.33,29.16 17.24,-19.84 36.9,-14.98 33.58,1.91 -2.7,13.73 0.55,-1.44 -3.56,10.83 -4.05,12.06 -2.94,10.05 -6.05,23.73 -4.51,19.91 -15.92,32.74 -18.66,43.82 -4.82,19.49 1.09,33.64 -6.18,56.3 -4.67,14.56 -11.16,29.62 -11.63,50.86l0 8.33 -12.5 0c12.7,12.05 5.81,5.23 4.17,25 17.99,-12.05 6.16,-6.08 29.16,-4.17 -7.85,10.72 -20.79,18.3 -33.33,12.5 4.88,20.92 8.21,7.5 -20.1,38.21 -14.65,15.89 -27.21,10.47 -50.71,15.94l12.76 4.04c17.93,1.54 26.51,-7.68 49.72,-8.2l4.17 4.16c1.7,7.3 1.99,9.88 3.94,16.89 1.98,7.15 -0.95,1.43 3.06,9.44 2.81,5.61 2.8,3.9 5.5,7l0 4.16 4.86 -3.47 -4.86 -0.69c-0.81,-9.74 -1.29,-11.57 -2.98,-17.85 -5.02,-18.72 4.37,-5.3 -9.52,-15.48l-4.17 -4.16c-3.4,-6.05 -2.02,-4.41 -4.16,-12.5 4.6,-2.43 7,-2.83 11.77,-5.16 15.55,-7.59 6.18,-1.5 9.77,-7.27 3.33,-5.35 -5.46,-6.45 14.28,-18.43 30.14,-18.29 22.56,-1.07 55.82,1.7 12.09,3.23 5.85,0.39 15.42,8.33l9.32 4.92c-2.85,-13.73 0.81,-7.07 -9.32,-13.25 1.63,-5.47 2.72,-4.16 -2.92,-4.16l-29.16 -41.66c3.23,-4.42 1.24,-2.22 6.39,-6.1 0.6,-0.45 1.77,-1.3 2.42,-1.76l7.85 -4.64c-21.41,-0.48 -11.96,3.77 -20.83,-8.33 31.7,-21.23 23.99,-2.39 37.5,-20.83 -20.51,-2.24 -5.99,3.14 -14.92,-5.91 -9.14,-9.29 -3.61,6.17 -5.91,-14.92 29.34,14.08 45.02,2.19 58.32,8.34 6.22,8.96 0.61,5.48 12.49,8.33l4.17 8.33c2.85,12.25 4.16,12.71 4.16,29.16l8.34 0c-1.34,-16.02 -2.68,-21.96 -12.5,-29.16l-4.17 -8.33 -4.16 -8.33 0 -12.5c8.96,-6.23 5.48,-0.61 8.33,-12.5 -9.21,6.4 -5.18,0.68 -8.33,12.5 -2.15,-0.18 -12.82,-1.35 -12.97,-1.35 -17.88,1.19 -17.44,11.42 -36.87,1.54 -8.57,-4.35 -8.17,-7.35 -19.6,-14.07 -7.95,-4.68 -14.94,-7.27 -22.21,-11.12 0,-61.83 1.83,-22.66 14.49,-72.99 2.61,-10.41 4.2,-13.61 6.34,-22.81 9.47,0.78 6.17,1.18 10.07,2.42l31.59 14.24c-7.9,-29.59 -13.77,6.21 -45.83,-41.66 3.3,-14.13 8.76,-21.44 12.5,-37.49l8.33 -8.33c1.17,-5 2.68,-11.11 2.47,-17.2 28.99,24.93 39.57,36.24 51.69,99.9l0 0.61 0.11 0c7.51,39.62 15.62,99.37 29.08,194.94 1.13,8.03 2.4,17.14 3.76,27.1 -4.57,3.1 -8.67,6.52 -12.12,11.24 4.96,0 9.43,-0.32 13.52,-0.91 14.08,104.63 36.08,288.59 27.24,360.64 -19.03,154.99 -174.69,137.66 -301,149.18 -5.36,0.49 -11.16,1.06 -17.29,1.7 0.64,-3.18 0.31,-6.65 -1.57,-10.73l4.16 -4.17c8.61,-9.91 4.88,-12.12 14.31,-19.4 4.79,-3.7 6.62,-3.58 10.34,-4.18 9.36,-1.5 19.09,4.34 32.29,4.69 15.7,0.43 10.84,0.94 26.37,2.23 -5.88,-8.03 -1.27,-0.49 -5.93,-6.56 -4.97,-6.47 -3.32,-1.14 -6.56,-10.1l-41.66 -12.5c-22.01,-5.88 -4.27,-10.43 -29.16,-12.5l-4.16 1.25c-5.33,-22.87 -22.94,-32.84 -24.97,-59.02 -2.5,-32.3 -6.26,-44.49 -12.52,-71.36 9.24,0.77 11.15,0.19 16.48,4.34 10.43,8.14 6.52,26.2 29.34,41.48 -3.25,-12.17 -4.62,-10.29 -11.23,-22.25 -1.72,-3.1 -5.08,-9.69 -5.49,-10.93 -4.59,-14 -0.58,-5.83 -1.22,-10.6 -3.43,-25.8 -15.39,2.42 -15.39,-47.87 28.09,7.5 3.84,15.2 20.83,20.83l-9.57 -29.16 4.16 -8.33 6.65 -4.16c12.6,0 4.23,1.09 5.85,-4.17l13.74 0c2.61,-5.44 3.2,-7.89 6.27,-14.56 6.88,-14.95 1.85,1.79 6.23,-14.6 -4.58,2.2 -4.9,1.02 -8.9,3.6 -6.75,4.38 -2.59,1.68 -6.72,5.77 -6.27,6.2 2.6,6.73 -17.71,11.46 -9.36,-6.86 -22.62,-29.91 -28.05,-42.83 -12.94,-30.73 -8.23,-25.74 7.22,-48.82 -0.57,-0.82 -1.37,-3.18 -1.58,-2.58l-10.79 -22.57c-3.39,-6.98 -10.56,-24.84 -17.88,-17.07 -13.74,14.61 12.11,2.06 7.45,20.14 -3.29,12.73 -5.53,1.55 -8.38,-0.09 -14.97,-8.61 12.15,-4.05 -14.64,-6.99 5.97,22.36 12.86,7.86 15.42,29.16l-7.76 7.76 7.76 0.58c11.87,13.32 8.61,23.77 13.59,41.8 4.86,17.61 15.51,26.31 8.48,41.51l-4.16 8.33c-11.58,7.75 -3.72,5.03 -17.91,8.33 1.63,-5.47 2.72,-4.16 -2.92,-4.16l0 -4.17 -4.17 -4.16c-15.6,-23.31 -49.59,-33.85 -36.68,-94.28 3.03,-14.15 5.02,-13.68 19.25,-23.14l-19.92 1.41c9.59,-13.91 6.8,-4.02 16.52,-17.3 -33.31,7.76 -16.52,2.59 -32.56,-21.58 -12.31,-18.54 -17.53,-20.07 -46.58,-20.07 11.14,7.74 18.73,4.42 27.2,18.81 3.29,5.59 2.2,8.32 6.58,14.98 6.9,10.49 3.72,12.05 7.87,-0.47 6.33,7.28 5.66,5.17 8.33,16.66l-17.44 11.72c-7.43,6.34 -7.84,7.89 -15.88,13.28l-4.17 0c-20.35,-4.74 -29.1,-10.65 -45.64,-21.24 -18.37,-11.76 -42.4,-20.42 -66.83,-20.42l48.67 26.31c8.12,4.49 11.54,5.53 18.62,10.54 37.15,26.3 26.79,-2.72 35.57,43.58 4,21.05 -3.79,9.73 9.61,19.55 0,-19.9 2.83,-17.27 4.17,-33.33 7.05,-8.11 -2.6,4.41 5.77,-6.72 3.5,-4.66 4.24,-6.22 6.72,-9.94 9.89,-2.04 24.88,-15.29 24.9,50.32 0.01,30.32 -22.05,20.66 -37.39,49.66 20.03,-1.67 35.27,-19.96 54.15,-25 4.37,6.52 5.6,7.14 10.61,14.39l10.22 14.77 2.92 8.33c8.47,9.81 13.73,16.68 12.61,32.51 -1.5,21.17 -1,14.43 6.16,37.4l10.27 40.12c1.23,10.02 1.06,13.55 -2.46,19.89 -7.35,13.22 0.94,0.3 -12.84,11.72 48.47,0 8.09,25.78 51.23,49.98 1.64,5.31 -7.26,4.17 7.09,4.17 -3.61,15.48 -7.91,18.7 -8.33,37.49 -12.61,8.45 -5.91,8.04 -23.31,14.24 -42.27,15.09 -29.57,-4.29 -64.1,-5.98 -21.07,-1.03 -20.39,-0.09 -37.56,-4.09l-8.33 -4.17 -2.29 -8.96 -1.88 13.13 -8.33 0c-9.16,-0.21 -15.79,-2.48 -18.67,-2.76 -5.33,-0.53 -2.06,-1.35 -9.93,-0.31 -9.41,1.23 -3.64,-0.27 -8.89,3.07l-4.16 0 -8.34 -4.17 -4.16 0 -58.32 -4.17 -4.17 0c-18.17,-4.23 -23.85,-9.33 -38.22,-16.15 -28.22,-13.39 -13.75,-9.39 -30.58,-8.82 -9.58,0.33 -11.63,-12.2 -14.05,-17.14 -10.54,-21.47 -24.98,-31.1 -46.28,-45.36l0 -12.5 -8.33 0 0 11.25c-3.41,2.22 -6.9,3.77 -10.42,4.76zm38.84 -358.62l0.55 -2.96m291.7 482.68c-11.95,1.42 -24.26,2.89 -36.79,4.36l0 0 -0.04 0 -8.76 0.51c-19.69,-5.44 -1.86,-12.17 11.2,-13.96 10.73,-1.47 23.02,3.06 34.39,9.09zm-112.4 12.85l-8.33 0.87 0.01 -0.87 8.32 0zm158.31 -295.76l4.16 -8.33c8.09,-2.15 6.44,-0.77 12.5,-4.17 -1.42,16.99 -2.14,16.95 -16.66,20.83l0 -8.33zm-8.34 -245.77l1.25 -1.25c-0.08,0.09 -1.66,0.83 -1.25,1.25zm295.77 -220.78l1.24 -1.24c-0.08,0.08 -1.66,0.82 -1.24,1.24zm-333.26 324.92l1.25 -1.24c-0.09,0.08 -1.66,0.82 -1.25,1.24zm20.83 304.09l1.24 -1.24c-0.08,0.08 -1.65,0.83 -1.24,1.24zm-79.15 45.82l1.25 -1.24c-0.09,0.08 -1.66,0.83 -1.25,1.24zm262.44 -524.87l1.24 -1.24c-0.08,0.08 -1.65,0.83 -1.24,1.24zm87.48 -233.28l1.24 -1.24c-0.08,0.08 -1.66,0.83 -1.24,1.24zm62.48 316.59l0.11 1.85c3.87,-0.35 -5.83,7.95 1.3,-0.44l0.44 -1.3c-0.01,-0.02 -0.68,-0.18 -0.7,-0.19 -0.03,-0.02 -0.87,-0.19 -1.15,0.08zm-454.05 420.73l4.16 0 -3.47 -4.85 -0.69 4.85c-4.23,-5.58 -4.17,8.77 -4.17,-12.49l-13.39 11.6 17.44 9.45 0.12 -8.56zm0 -41.65c0,10.35 6.66,1.06 2.58,0 -0.05,-0.02 -2.58,-11.82 -2.58,0zm187.45 37.49c0,10.35 6.66,1.06 2.59,0 -0.06,-0.01 -2.59,-11.82 -2.59,0zm0 -54.15c0,10.35 6.66,1.06 2.59,0 -0.06,-0.02 -2.59,-11.82 -2.59,0zm79.15 -449.89c0,10.34 6.66,1.06 2.58,0 -0.05,-0.02 -2.58,-11.82 -2.58,0zm-233.28 524.87c0,10.35 6.66,1.06 2.59,0 -0.05,-0.02 -2.59,-11.82 -2.59,0zm104.14 -404.07c0,10.35 6.66,1.06 2.59,0 -0.05,-0.01 -2.59,-11.82 -2.59,0zm-108.3 441.56c0,10.35 6.66,1.06 2.58,0 -0.05,-0.01 -2.58,-11.82 -2.58,0zm258.27 -562.36c0,10.34 6.66,1.06 2.58,0 -0.05,-0.02 -2.58,-11.82 -2.58,0zm129.13 -149.97c0.17,1.38 4.6,0.93 4.97,0.8 1.04,-0.39 7.23,9.64 1.81,-1.12l-2.17 -0.99c-3.23,-0.07 -5.67,-7.27 -4.61,1.31zm-179.12 724.83c0.17,1.37 4.6,0.93 4.96,0.79 1.04,-0.39 7.24,9.64 1.81,-1.12 -0.12,-0.24 -7.77,-7.7 -6.77,0.33zm54.15 -312.43c-2.14,11.58 9.94,-2 4.13,-1.63 -7.8,0.48 -2.54,-6.98 -4.13,1.63zm-83.31 216.62c0,4.89 8.96,9.38 6.45,0 -2.52,-9.42 10.6,-0.12 -1.92,-1.24 -5.25,-0.47 -4.53,-7.23 -4.53,1.24zm-304.09 -258.28c4.28,4.28 15.06,-5.99 4.83,-2.24 -0.1,0.03 -11.83,-4.75 -4.83,2.24zm337.42 -166.62c4.27,4.28 15.06,-6 4.83,-2.25 -0.1,0.04 -11.83,-4.74 -4.83,2.25zm145.79 -37.49c4.28,4.28 15.07,-6 4.84,-2.25 -0.11,0.04 -11.83,-4.74 -4.84,2.25zm-170.79 483.21c4.28,4.28 15.07,-5.99 4.83,-2.24 -0.1,0.03 -11.82,-4.75 -4.83,2.24zm20.83 29.16c0.88,4.76 9.16,9.11 5.61,0.85 -1.5,-3.49 -7.61,-11.66 -5.61,-0.85zm-324.92 -329.08c0.88,4.75 9.16,9.1 5.6,0.84 -1.5,-3.49 -7.6,-11.66 -5.6,-0.84zm237.44 -154.13c8.96,-6.23 5.49,-0.61 8.33,-12.5 -9.2,6.4 -5.17,0.68 -8.33,12.5l-9.16 7.5c11.46,3.67 7.11,-2.7 13.33,9.18 -5.35,15.82 0,11.1 0,33.31l8.33 0c0,-15.57 -2.08,-20.07 -4.17,-33.31 5.14,0.82 4.17,11.11 4.17,-4.19l-12.5 -12.49zm233.28 145.79c3.4,-6.05 2.02,-4.4 4.16,-12.49l-8.33 4.16c-0.11,0.18 -7.47,-4.05 -3.73,11.7 1.9,7.99 2.12,4.9 7.9,9.13l0 -12.5zm-387.41 341.59c-2.91,-12.18 0.54,-6 -8.33,-12.5 2.73,11.42 -1.69,6.49 8.33,12.5zm45.82 24.99l4.17 0 0 -12.49 -4.17 0 0 12.49zm367.83 -424.89l11.25 -11.26c7.53,-10.54 14.35,-16.55 20.83,-26.23 -9.82,0.81 -12.62,2.51 -16.05,1.54 -10.57,-2.98 2.09,2.02 -6.22,-4.14 -25.6,-18.99 16.27,3.61 -6.89,-5.74l-2.01 12.5c-3.15,11.63 -9.01,15.31 -14.01,25.62 -6.5,13.39 -12.73,31.02 -13.14,49.36l26.24 -41.65zm-438.64 349.91c29.32,-0.65 17.7,-10.3 16.66,-12.5 -7.9,-2.79 -8.83,5.34 -9.84,6.29l-4.49 4.26c-0.47,0.43 -1.57,1.29 -2.33,1.95zm433.23 -570.69c-1.36,-16.29 2.52,-12.66 -12.5,-16.67 1.35,16.29 -2.52,12.66 12.5,16.67zm-287.43 62.48c0,-8.47 -0.73,-1.7 4.52,-1.23 12.52,1.12 -0.6,-8.18 1.92,1.23 2.52,9.39 -6.44,4.9 -6.44,0zm-66.66 249.94l-8.33 -4.17c12.14,-5.2 4.83,-7.62 8.33,4.17zm58.32 -62.48c0,20.12 2.23,17.97 8.34,24.99l0 -37.49c-7.03,4.88 -8.34,0.6 -8.34,12.5zm170.8 -120.81l-12.5 0 0 16.66 16.02 -13.2c3.99,13.26 0.59,9.85 13.14,13.2 -2.29,-10.79 -1.08,-12.7 -1.98,-16.62 -2.27,-9.9 -5.1,-5.82 -6.35,-20.87l-12.5 0c2.21,9.5 3.21,9.59 4.17,20.83zm-333.26 -183.29l-4.16 4.17 4.16 -4.17zm0 0l-4.16 4.17 4.16 -4.17zm-4.16 16.66l4.16 -16.66 -4.16 16.66zm245.77 41.66l0 25 -4.16 0c0,-22.14 -12.74,-12.61 4.16,-25zm-120.8 291.6l1.24 1.24c-0.08,-0.08 -1.66,-0.83 -1.24,-1.24zm-4.17 -33.33l-4.79 -8.12 4.79 8.12zm283.27 -137.46c15.54,8.22 19.41,10.44 29.16,24.99 -24.07,-2 -28.53,-2.05 -29.16,-24.99zm-4.17 -87.48c-1.49,-7.89 5.25,-14.82 2.64,-2.64 -0.06,0.28 0.12,17.18 -2.64,2.64zm-441.56 616.51c16.9,12.39 4.17,2.86 4.17,25l-4.17 0 0 -25z"/>
  </g>
 </g>
</svg>
