<?xml version="1.0" encoding="UTF-8"?>
<!DOCTYPE svg PUBLIC "-//W3C//DTD SVG 1.1//EN" "http://www.w3.org/Graphics/SVG/1.1/DTD/svg11.dtd">
<!-- Creator: CorelDRAW (Versión de evaluación) -->
<svg xmlns="http://www.w3.org/2000/svg" xml:space="preserve" width="446px" height="2062px" version="1.1" style="shape-rendering:geometricPrecision; text-rendering:geometricPrecision; image-rendering:optimizeQuality; fill-rule:evenodd; clip-rule:evenodd"
viewBox="0 0 446 2060.93"
 xmlns:xlink="http://www.w3.org/1999/xlink"
 xmlns:xodm="http://www.corel.com/coreldraw/odm/2003">
 <defs>
  <style type="text/css">
   <![CDATA[
    .fil2 {fill:#4B4B4D}
    .fil1 {fill:#F2E6C9}
    .fil0 {fill:#FAFAF7}
   ]]>
  </style>
 </defs>
 <g id="fissure-full">
  <metadata id="CorelCorpID_0Corel-Layer"/>
  <polygon id="crown" class="fil0" points="251.52,1322.83 262.31,1322.83 262.31,1326.43 273.1,1326.43 273.1,1330.03 276.69,1330.03 276.69,1333.62 283.89,1333.62 283.89,1337.22 291.08,1337.22 291.08,1340.82 294.68,1340.82 294.68,1344.41 298.27,1344.41 298.27,1348.01 305.47,1348.01 305.47,1351.61 309.06,1351.61 309.06,1355.2 312.66,1355.2 312.66,1362.4 316.26,1362.4 316.26,1366 319.85,1366 319.85,1369.59 323.45,1369.59 323.45,1376.79 327.05,1376.79 327.05,1380.38 330.64,1380.38 330.64,1387.58 334.24,1387.58 334.24,1394.77 337.84,1394.77 337.84,1398.37 341.43,1398.37 341.43,1405.56 345.03,1405.56 345.03,1416.35 348.63,1416.35 348.63,1423.54 352.22,1423.54 352.22,1434.33 355.82,1434.33 355.82,1445.12 359.42,1445.12 359.42,1452.32 363.01,1452.32 363.01,1463.11 366.61,1463.11 366.61,1473.9 370.21,1473.9 370.21,1488.29 373.8,1488.29 373.8,1502.67 377.4,1502.67 377.4,1517.06 381,1517.06 381,1531.45 384.59,1531.45 384.59,1545.83 388.19,1545.83 388.19,1560.22 391.79,1560.22 391.79,1578.21 395.39,1578.21 395.39,1599.79 398.98,1599.79 398.98,1610.58 402.58,1610.58 402.58,1628.56 406.18,1628.56 406.18,1646.54 409.77,1646.54 409.77,1668.12 413.37,1668.12 413.37,1696.9 416.97,1696.9 416.97,1718.48 420.56,1718.48 420.56,1869.54 416.97,1869.54 416.97,1880.33 413.37,1880.33 413.37,1898.31 409.77,1898.31 409.77,1905.51 406.18,1905.51 406.18,1916.3 402.58,1916.3 402.58,1919.89 398.98,1919.89 398.98,1923.49 395.39,1923.49 395.39,1927.09 391.79,1927.09 391.79,1930.68 388.19,1930.68 388.19,1937.88 381,1937.88 381,1941.48 377.4,1941.48 377.4,1945.07 370.21,1945.07 370.21,1948.67 359.42,1948.67 359.42,1952.27 352.22,1952.27 352.22,1955.86 341.43,1955.86 341.43,1959.46 330.64,1959.46 330.64,1963.06 319.85,1963.06 319.85,1966.65 305.47,1966.65 305.47,1970.25 283.89,1970.25 283.89,1973.85 265.9,1973.85 265.9,1977.44 107.65,1977.44 107.65,1973.85 86.07,1973.85 86.07,1970.25 75.28,1970.25 75.28,1966.65 64.49,1966.65 64.49,1963.06 57.29,1963.06 57.29,1959.46 50.1,1959.46 50.1,1955.86 42.91,1955.86 42.91,1952.27 39.31,1952.27 39.31,1945.07 35.71,1945.07 35.71,1937.88 32.12,1937.88 32.12,1927.09 28.52,1927.09 28.52,1916.3 24.92,1916.3 24.92,1876.73 21.32,1876.73 21.32,1808.39 24.92,1808.39 24.92,1761.64 28.52,1761.64 28.52,1743.65 32.12,1743.65 32.12,1711.28 35.71,1711.28 35.71,1682.51 39.31,1682.51 39.31,1664.53 42.91,1664.53 42.91,1646.54 46.5,1646.54 46.5,1632.16 50.1,1632.16 50.1,1610.58 53.7,1610.58 53.7,1596.19 57.29,1596.19 57.29,1581.8 60.89,1581.8 60.89,1567.41 64.49,1567.41 64.49,1556.62 68.08,1556.62 68.08,1545.83 71.68,1545.83 71.68,1535.04 75.28,1535.04 75.28,1524.25 78.87,1524.25 78.87,1509.87 82.47,1509.87 82.47,1499.08 86.07,1499.08 86.07,1488.29 89.66,1488.29 89.66,1477.5 93.26,1477.5 93.26,1466.7 96.86,1466.7 96.86,1455.91 100.45,1455.91 100.45,1448.72 104.05,1448.72 104.05,1441.53 107.65,1441.53 107.65,1430.74 111.24,1430.74 111.24,1423.54 114.84,1423.54 114.84,1412.75 118.44,1412.75 118.44,1405.56 122.03,1405.56 122.03,1401.96 125.63,1401.96 125.63,1394.77 129.23,1394.77 129.23,1391.17 132.82,1391.17 132.82,1383.98 136.42,1383.98 136.42,1380.38 140.02,1380.38 140.02,1373.19 143.62,1373.19 143.62,1369.59 147.21,1369.59 147.21,1366 150.81,1366 150.81,1362.4 154.41,1362.4 154.41,1355.2 158,1355.2 158,1351.61 165.2,1351.61 165.2,1348.01 168.79,1348.01 168.79,1344.41 172.39,1344.41 172.39,1340.82 175.99,1340.82 175.99,1337.22 183.18,1337.22 183.18,1333.62 190.37,1333.62 190.37,1330.03 193.97,1330.03 193.97,1326.43 201.16,1326.43 201.16,1322.83 211.95,1322.83 211.95,1319.24 251.52,1319.24 "/>
  <polygon id="root" class="fil1" points="262.31,286.97 269.5,286.97 269.5,294.17 273.1,294.17 273.1,301.36 276.69,301.36 276.69,304.96 280.29,304.96 280.29,330.14 283.89,330.14 283.89,463.21 280.29,463.21 280.29,610.68 283.89,610.68 283.89,650.25 287.48,650.25 287.48,689.81 291.08,689.81 291.08,714.99 294.68,714.99 294.68,754.55 298.27,754.55 298.27,768.94 301.87,768.94 301.87,797.71 305.47,797.71 305.47,826.49 309.06,826.49 309.06,851.66 312.66,851.66 312.66,869.65 316.26,869.65 316.26,891.23 319.85,891.23 319.85,916.4 323.45,916.4 323.45,941.58 327.05,941.58 327.05,966.76 330.64,966.76 330.64,984.74 334.24,984.74 334.24,1013.52 337.84,1013.52 337.84,1035.1 341.43,1035.1 341.43,1063.87 345.03,1063.87 345.03,1099.84 348.63,1099.84 348.63,1135.81 352.22,1135.81 352.22,1182.56 355.82,1182.56 355.82,1229.32 359.42,1229.32 359.42,1301.25 363.01,1301.25 363.01,1355.2 366.61,1355.2 366.61,1394.77 370.21,1394.77 370.21,1416.35 366.61,1416.35 366.61,1412.75 363.01,1412.75 363.01,1401.96 359.42,1401.96 359.42,1394.77 355.82,1394.77 355.82,1387.58 352.22,1387.58 352.22,1380.38 348.63,1380.38 348.63,1373.19 345.03,1373.19 345.03,1369.59 341.43,1369.59 341.43,1362.4 337.84,1362.4 337.84,1358.8 334.24,1358.8 334.24,1355.2 330.64,1355.2 330.64,1351.61 327.05,1351.61 327.05,1348.01 323.45,1348.01 323.45,1344.41 319.85,1344.41 319.85,1340.82 316.26,1340.82 316.26,1337.22 312.66,1337.22 312.66,1330.03 305.47,1330.03 305.47,1326.43 301.87,1326.43 301.87,1322.83 294.68,1322.83 294.68,1319.24 291.08,1319.24 291.08,1315.64 283.89,1315.64 283.89,1312.04 273.1,1312.04 273.1,1308.45 265.9,1308.45 265.9,1304.85 251.52,1304.85 251.52,1301.25 215.55,1301.25 215.55,1304.85 201.16,1304.85 201.16,1308.45 193.97,1308.45 193.97,1312.04 183.18,1312.04 183.18,1315.64 175.99,1315.64 175.99,1319.24 172.39,1319.24 172.39,1322.83 165.2,1322.83 165.2,1326.43 161.6,1326.43 161.6,1330.03 158,1330.03 158,1333.62 154.41,1333.62 154.41,1337.22 150.81,1337.22 150.81,1340.82 143.62,1340.82 143.62,1344.41 140.02,1344.41 140.02,1348.01 136.42,1348.01 136.42,1351.61 132.82,1351.61 132.82,1358.8 129.23,1358.8 129.23,1362.4 125.63,1362.4 125.63,1366 122.03,1366 122.03,1373.19 118.44,1373.19 118.44,1376.79 114.84,1376.79 114.84,1383.98 111.24,1383.98 111.24,1391.17 107.65,1391.17 107.65,1394.77 104.05,1394.77 104.05,1401.96 100.45,1401.96 100.45,1409.16 96.86,1409.16 96.86,1416.35 93.26,1416.35 93.26,1423.54 89.66,1423.54 89.66,1434.33 86.07,1434.33 86.07,1441.53 82.47,1441.53 82.47,1448.72 78.87,1448.72 78.87,1455.91 75.28,1455.91 75.28,1437.93 78.87,1437.93 78.87,1376.79 82.47,1376.79 82.47,1315.64 86.07,1315.64 86.07,1247.3 89.66,1247.3 89.66,1160.98 93.26,1160.98 93.26,1107.03 96.86,1107.03 96.86,984.74 100.45,984.74 100.45,955.97 104.05,955.97 104.05,894.82 107.65,894.82 107.65,855.26 111.24,855.26 111.24,819.29 114.84,819.29 114.84,786.92 118.44,786.92 118.44,750.95 122.03,750.95 122.03,722.18 125.63,722.18 125.63,697 129.23,697 129.23,679.02 132.82,679.02 132.82,650.25 136.42,650.25 136.42,632.26 140.02,632.26 140.02,610.68 143.62,610.68 143.62,589.1 147.21,589.1 147.21,574.71 150.81,574.71 150.81,553.13 154.41,553.13 154.41,538.74 158,538.74 158,517.16 161.6,517.16 161.6,502.78 165.2,502.78 165.2,491.99 168.79,491.99 168.79,474 172.39,474 172.39,459.62 175.99,459.62 175.99,452.42 179.58,452.42 179.58,438.04 183.18,438.04 183.18,423.65 186.78,423.65 186.78,412.86 190.37,412.86 190.37,402.07 193.97,402.07 193.97,387.68 197.57,387.68 197.57,380.49 201.16,380.49 201.16,369.7 204.76,369.7 204.76,358.91 208.36,358.91 208.36,351.72 211.95,351.72 211.95,340.93 215.55,340.93 215.55,333.73 219.15,333.73 219.15,322.94 222.74,322.94 222.74,315.75 226.34,315.75 226.34,308.56 229.94,308.56 229.94,304.96 233.53,304.96 233.53,297.77 237.13,297.77 237.13,294.17 240.73,294.17 240.73,290.57 244.32,290.57 244.32,286.97 247.92,286.97 247.92,283.38 262.31,283.38 "/>
  <path id="outline" class="fil2" d="M420.56 1718.48l-3.59 0 0 -21.58 -3.6 0 0 -28.78 -3.6 0 0 -21.58 -3.59 0 0 -12.44c-1.92,0.68 -4.26,1.36 -7.16,2.11 -13.71,3.54 -5.76,2.12 -13.32,9.05 -5.88,5.39 -8.53,-1.52 -18.07,13.3 -3.42,5.32 -1.9,10.63 0.17,19.21 -3.53,3.08 -7.38,4.08 -11.51,6.88 -14.25,9.66 -3.32,11.34 -19.63,9.12l-5.27 9.71c-3.37,-1.21 -6.21,-1.3 -9.94,-2.84 -3.53,5.27 -2.8,5.16 -7.95,9.51 5.51,11.49 0.21,6.5 -4.63,15.76 -1.69,3.23 -0.08,4.93 -1.52,8.13 -1.6,3.54 -4.21,4.41 -6.74,7.85l3.37 12.32c-5.09,1.46 -9.39,2.15 -14.91,3.21 -3.83,0.74 -3.54,0.8 -7.43,0.68 -10.71,-0.33 -7.64,12.46 -14.79,17.17 -5.82,3.85 -9.58,3.61 -14.31,5.75 1.17,16.59 -0.22,14.8 -14.22,27.48 -19.53,17.7 4.02,9.66 -18.04,28.95 -10.25,-3.55 -7.34,-1.75 -16.11,1.43 -8.45,3.06 -6.49,-2.71 -13.9,9.15 -3.27,5.23 -5.95,13.01 -9.09,16.7 -5.57,6.54 -10.09,4.52 -15.64,5.94 -3.67,6.57 -1.83,9.72 -9.15,16.57l2.66 -4.23c3.61,-5.76 3.02,-9.35 5.18,-13.55 7.66,-1.81 12.38,-0.9 16.5,-7.3 2.11,-3.29 0.49,-4.91 8.35,-17.22 7.8,-12.2 4.85,-5.89 14.32,-9.7 11.13,-4.47 4.53,-4.77 16.53,-3.08 8.52,-7.13 3.61,-7.22 4.48,-14.22 0.59,-4.74 7.88,-10.49 11.84,-14.24 17.4,-16.46 8.07,-15.97 7.09,-27.55 12.31,-5.85 16.27,1.4 23,-15.46 6.99,-17.54 14.12,-8.65 24.17,-12.87 0.12,-4.17 -2.65,-3.82 -1.02,-7.28 1.12,-2.38 5.02,-4.94 6.77,-7.71 2.41,-3.8 0.87,-4.61 1.64,-7.73 0.67,-2.76 3.02,-4.6 4.61,-7.67 -1.04,-3.14 -2.9,-7.35 -4.71,-10.3 3.76,-3.14 9.02,-4.1 11.86,-8.44 2.41,-3.66 2.58,-8.53 5.04,-12.55l10.64 1.75c3.65,-3.16 2.8,-5.32 6.02,-8.81 12.72,1.87 10.51,1.24 19.82,-6.78 -2.52,-10.99 -1.88,-8.84 4.8,-19.98 10.77,-17.95 15.42,-17.22 35.48,-30.29 7.53,-4.91 7.86,-1.79 11.12,-4.94l0 -6.51 -3.6 0 0 -10.79 -3.59 0 0 -21.58 -3.6 0 0 -17.99 -3.6 0 0 -14.39 -3.6 0 0 -14.38 -3.59 0 0 -14.39 -3.6 0 0 -14.39 -3.6 0 0 -14.38 -3.59 0 0 -14.39 -3.6 0 0 -10.79 -3.6 0 0 -10.79 -3.59 0 0 -7.2 -3.6 0 0 -10.79 -3.6 0 0 -10.79 -3.59 0 0 -7.19 -3.6 0 0 -10.79 -3.6 0 0 -7.19 -3.59 0 0 -3.6 -3.6 0 0 -7.19 -3.6 0 0 -7.2 -3.59 0 0 -3.59 -3.6 0 0 -7.2 -3.6 0 0 -3.59 -3.59 0 0 -3.6 -3.6 0 0 -7.2 -3.6 0 0 -3.59 -3.59 0 0 -3.6 -7.2 0 0 -3.6 -3.59 0 0 -3.59 -3.6 0 0 -3.6 -7.19 0 0 -3.6 -7.2 0 0 -3.59 -3.59 0 0 -3.6 -10.79 0 0 -3.6 -10.79 0 0 -3.59 -39.57 0 0 3.59 -10.79 0 0 3.6 -7.19 0 0 3.6 -3.6 0 0 3.59 -7.19 0 0 3.6 -7.19 0 0 3.6 -3.6 0 0 3.59 -3.6 0 0 3.6 -3.59 0 0 3.6 -7.2 0 0 3.59 -3.59 0 0 7.2 -3.6 0 0 3.6 -3.6 0 0 3.59 -3.59 0 0 3.6 -3.6 0 0 7.19 -3.6 0 0 3.6 -3.6 0 0 7.19 -3.59 0 0 3.6 -3.6 0 0 7.19 -3.6 0 0 3.6 -3.59 0 0 7.19 -3.6 0 0 10.79 -3.6 0 0 7.2 -3.59 0 0 10.79 -3.6 0 0 7.19 -3.6 0 0 7.19 -3.59 0 0 10.79 -3.6 0 0 10.8 -3.6 0 0 10.79 -3.59 0 0 10.79 -3.6 0 0 10.79 -3.6 0 0 14.38 -3.59 0 0 10.79 -3.6 0 0 10.79 -3.6 0 0 10.79 -3.59 0 0 10.79 -3.6 0 0 14.39 -3.6 0 0 14.39 -3.59 0 0 14.39 -3.6 0 0 21.58 -3.6 0 0 14.38 -3.59 0 0 17.99 -3.6 0 0 17.98 -3.6 0 0 28.77 -3.59 0 0 32.37 -3.6 0 0 17.99 -3.6 0 0 46.75 -3.6 0 0 68.34 3.6 0 0 39.57 3.6 0 0 10.79 3.6 0 0 10.79 3.59 0 0 7.19 3.6 0 0 7.2 3.6 0 0 3.59 7.19 0 0 3.6 7.19 0 0 3.6 7.2 0 0 3.59 10.79 0 0 3.6 10.79 0 0 3.6 21.58 0 0 3.59 158.25 0 0 -3.59 17.99 0 0 -3.6 21.58 0 0 -3.6 14.38 0 0 -3.59 10.79 0 0 -3.6 10.79 0 0 -3.6 10.79 0 0 -3.59 7.2 0 0 -3.6 10.79 0 0 -3.6 7.19 0 0 -3.59 3.6 0 0 -3.6 7.19 0 0 -7.2 3.6 0 0 -3.59 3.6 0 0 -3.6 3.59 0 0 -3.6 3.6 0 0 -3.59 3.6 0 0 -10.79 3.59 0 0 -7.2 3.6 0 0 -17.98 3.6 0 0 -10.79 3.59 0 0 -151.06zm-197.21 -417.23c2.17,-21.12 -3.49,-9.82 -8.76,-30.41 -11.24,-43.86 -18.66,-48.8 -10.71,-87.59 4.92,-24.07 1.29,-21.9 18.85,-33.99 -2.71,-23.09 1.17,-21.14 -18.95,-34.8 -0.03,-8.98 3.94,-10.9 2.88,-19.97l-17.07 -11.16c1.71,-8.76 7.7,-15.76 9.03,-23.94 1.58,-9.69 -4.52,-17.77 -5.74,-26.94 6.29,-1.79 14.26,-5.28 19.74,-8.33 1.7,-6.3 0.79,-11.88 3.37,-16.59 2.93,-5.33 6.11,-4.49 7.6,-12.86 1.1,-6.11 -1.06,-14.65 0.43,-19.42 2.16,-6.9 5.57,-2.87 10.74,-8.84 -8.61,-18.73 -29.93,-15.45 -17.24,-48.84 12.2,-32.11 -2.61,-27.07 -12.29,-50.96 16.18,-14.89 28.55,-2.27 25.36,-47.47 -0.73,-10.28 -3.54,-27.61 1.71,-34.98 7.73,-10.86 14.68,-4.72 11.93,-25.55 -18.88,-12.98 -9.3,-4.96 -19.09,-25.44 -8.33,-17.42 -12.28,-4.83 -7.55,-31.83 4.77,-27.2 9.11,-27.39 10.37,-34.68 2.44,-14.18 -5.3,-18.94 -13.66,-31.27 2.36,-8.62 7.78,-12.86 10.11,-25.52l1.7 -9.29c1.45,18.92 -5.14,20.94 -8.43,34.81 5.91,9.06 14.79,12.03 14.2,28.28 -0.33,9.15 -6.55,23.41 -8.69,34.9 -4.84,25.99 -0.19,15.45 7.67,30.52 8.16,15.65 1.8,14.43 20.64,22.59 6.05,55.1 -16.48,13.78 -11.89,63.42 3.29,35.58 7.51,34.86 -15.32,56.5 3.85,9.02 9.4,13.5 12.59,26.3 3.93,15.71 -16.69,29.62 -1.35,42.84 5.58,4.81 5.1,4.52 9.49,10.45 6.34,8.55 11.45,15.01 16.68,23.54l-20.45 12.86c-0.87,8.04 1.66,12.59 -0.65,19.57 -2.09,6.29 -6.5,6.62 -8.28,13.27 -5.09,19.1 8.67,18.93 -13.7,27.88 1.62,12.66 0.73,11.58 -1.08,23.43 7.17,2.62 11.24,6.13 17.49,8.75l-5.08 20.29c25.57,17.75 8.2,6.11 15.7,37.8 2.17,9.18 6.26,15.5 7.25,24.31 -13.87,9.32 -22.77,14.78 -24.8,26.55 -5.67,32.86 6.87,26.63 8.17,41.64 1.67,19.35 -7.59,7.18 6.98,29.65 15.23,23.47 13.19,26.87 10.34,44.12l12.31 0 0 3.6 7.2 0 0 3.59 10.79 0 0 3.6 7.19 0 0 3.6 3.6 0 0 3.59 7.19 0 0 3.6 3.6 0 0 3.6 7.19 0 0 7.19 3.6 0 0 3.6 3.59 0 0 3.59 3.6 0 0 3.6 3.6 0 0 3.6 3.59 0 0 3.59 3.6 0 0 3.6 3.6 0 0 3.6 3.59 0 0 7.19 3.6 0 0 3.6 3.6 0 0 7.19 3.59 0 0 7.2 3.6 0 0 7.19 3.6 0 0 7.19 3.59 0 0 10.79 3.6 0 0 3.6 3.6 0 0 -21.58 -3.6 0 0 -39.57 -3.6 0 0 -53.95 -3.59 0 0 -71.93 -3.6 0 0 -46.76 -3.6 0 0 -46.75 -3.59 0 0 -35.97 -3.6 0 0 -35.97 -3.6 0 0 -28.77 -3.59 0 0 -21.58 -3.6 0 0 -28.78 -3.6 0 0 -17.98 -3.59 0 0 -25.18 -3.6 0 0 -25.18 -3.6 0 0 -25.17 -3.59 0 0 -21.58 -3.6 0 0 -17.99 -3.6 0 0 -25.17 -3.59 0 0 -28.78 -3.6 0 0 -28.77 -3.6 0 0 -14.39 -3.59 0 0 -39.56 -3.6 0 0 -25.18 -3.6 0 0 -39.56 -3.59 0 0 -39.57 -3.6 0 0 -147.47 3.6 0 0 -133.07 -3.6 0 0 -25.18 -3.6 0 0 -3.6 -3.59 0 0 -7.19 -3.6 0 0 -7.2 -7.19 0 0 -3.59 -14.39 0 0 3.59 -3.6 0 0 3.6 -3.59 0 0 3.6 -3.6 0 0 3.6 -3.6 0 0 7.19 -3.59 0 0 3.6 -3.6 0 0 7.19 -3.6 0 0 7.19 -3.59 0 0 10.79 -3.6 0 0 7.2 -3.6 0 0 10.79 -3.59 0 0 7.19 -3.6 0 0 10.79 -3.6 0 0 10.79 -3.59 0 0 7.19 -3.6 0 0 14.39 -3.6 0 0 10.79 -3.59 0 0 10.79 -3.6 0 0 14.39 -3.6 0 0 14.38 -3.59 0 0 7.2 -3.6 0 0 14.38 -3.6 0 0 17.99 -3.59 0 0 10.79 -3.6 0 0 14.38 -3.6 0 0 21.58 -3.59 0 0 14.39 -3.6 0 0 21.58 -3.6 0 0 14.39 -3.59 0 0 21.58 -3.6 0 0 21.58 -3.6 0 0 17.99 -3.6 0 0 28.77 -3.59 0 0 17.98 -3.6 0 0 25.18 -3.6 0 0 28.77 -3.59 0 0 35.97 -3.6 0 0 32.37 -3.6 0 0 35.97 -3.59 0 0 39.56 -3.6 0 0 61.15 -3.6 0 0 28.77 -3.59 0 0 122.29 -3.6 0 0 53.95 -3.6 0 0 86.32 -3.59 0 0 68.34 -3.6 0 0 61.15 -3.6 0 0 61.14 -3.59 0 0 17.98 3.59 0 0 -7.19 3.6 0 0 -7.19 3.6 0 0 -7.2 3.59 0 0 -10.79 3.6 0 0 -7.19 3.6 0 0 -7.19 3.59 0 0 -7.2 3.6 0 0 -7.19 3.6 0 0 -3.6 3.59 0 0 -7.19 3.6 0 0 -7.19 3.6 0 0 -3.6 3.59 0 0 -7.19 3.6 0 0 -3.6 3.6 0 0 -3.6 3.59 0 0 -7.19 3.6 0 0 -3.6 3.6 0 0 -3.6 3.6 0 0 -3.59 7.19 0 0 -3.6 3.6 0 0 -3.6 3.59 0 0 -3.59 3.6 0 0 -3.6 3.6 0 0 -3.6 7.19 0 0 -3.59 3.6 0 0 -3.6 7.19 0 0 -3.6 10.79 0 0 -3.59 7.19 0 0 -3.6 14.39 0 0 -3.6 7.8 0zm42.55 -1039.45l7.2 0 0 3.59 3.59 0 0 3.6 3.6 0 0 3.6 3.6 0 0 3.59 3.59 0 0 3.6 3.6 0 0 7.19 3.6 0 0 7.2 3.59 0 0 7.19 3.6 0 0 14.39 3.6 0 0 21.58 3.59 0 0 89.92 -3.59 0 0 46.75 -3.6 0 0 129.49 3.6 0 0 43.16 3.59 0 0 28.77 3.6 0 0 32.37 3.6 0 0 43.16 3.59 0 0 21.59 3.6 0 0 32.37 3.6 0 0 14.38 3.59 0 0 17.99 3.6 0 0 17.98 3.6 0 0 25.18 3.59 0 0 21.58 3.6 0 0 28.77 3.6 0 0 17.98 3.59 0 0 25.18 3.6 0 0 21.58 3.6 0 0 21.58 3.59 0 0 39.57 3.6 0 0 32.37 3.6 0 0 32.37 3.59 0 0 32.37 3.6 0 0 75.53 3.6 0 0 64.74 3.59 0 0 64.74 3.6 0 0 61.15 3.6 0 0 43.16 3.6 0 0 32.37 3.59 0 0 10.79 3.6 0 0 21.58 3.6 0 0 10.79 3.59 0 0 17.98 3.6 0 0 14.39 3.6 0 0 14.39 3.59 0 0 14.39 3.6 0 0 14.38 3.6 0 0 17.99 3.59 0 0 17.98 3.6 0 0 21.58 3.6 0 0 25.18 3.59 0 0 57.54 3.6 0 0 82.73 -3.6 0 0 35.97 -3.59 0 0 17.98 -3.6 0 0 17.98 -3.6 0 0 7.2 -3.59 0 0 7.19 -3.6 0 0 3.6 -3.6 0 0 7.19 -3.59 0 0 3.6 -3.6 0 0 7.19 -3.6 0 0 3.6 -3.59 0 0 3.6 -7.2 0 0 3.59 -3.59 0 0 3.6 -3.6 0 0 3.6 -7.2 0 0 3.59 -7.19 0 0 3.6 -7.19 0 0 3.6 -7.2 0 0 3.59 -10.79 0 0 3.6 -10.79 0 0 3.6 -17.98 0 0 3.59 -10.79 0 0 3.6 -21.58 0 0 3.6 -17.98 0 0 3.59 -21.58 0 0 3.6 -133.08 0 0 -3.6 -21.58 0 0 -3.59 -21.58 0 0 -3.6 -14.39 0 0 -3.6 -7.19 0 0 -3.59 -7.2 0 0 -3.6 -7.19 0 0 -3.6 -7.19 0 0 -3.59 -3.6 0 0 -3.6 -3.6 0 0 -3.6 -3.6 0 0 -7.19 -3.59 0 0 -3.6 -3.6 0 0 -7.19 -3.6 0 0 -7.19 -3.59 0 0 -17.99 -3.6 0 0 -25.18 -3.6 0 0 -107.9 3.6 0 0 -43.16 3.6 0 0 -21.58 3.59 0 0 -28.77 3.6 0 0 -21.58 3.6 0 0 -14.39 3.59 0 0 -17.98 3.6 0 0 -21.58 3.6 0 0 -10.79 3.6 0 0 -21.58 3.59 0 0 -10.79 3.6 0 0 -10.8 3.6 0 0 -14.38 3.59 0 0 -25.18 3.6 0 0 -57.55 3.6 0 0 -46.76 3.59 0 0 -64.74 3.6 0 0 -53.95 3.6 0 0 -68.34 3.59 0 0 -93.51 3.6 0 0 -61.15 3.6 0 0 -75.53 3.59 0 0 -57.55 3.6 0 0 -64.74 3.6 0 0 -32.37 3.59 0 0 -35.96 3.6 0 0 -46.76 3.6 0 0 -28.78 3.59 0 0 -28.77 3.6 0 0 -21.58 3.6 0 0 -14.39 3.59 0 0 -25.17 3.6 0 0 -21.59 3.6 0 0 -25.17 3.59 0 0 -21.58 3.6 0 0 -14.39 3.6 0 0 -21.58 3.59 0 0 -17.99 3.6 0 0 -10.79 3.6 0 0 -14.38 3.6 0 0 -14.39 3.59 0 0 -14.39 3.6 0 0 -17.98 3.6 0 0 -14.39 3.59 0 0 -10.79 3.6 0 0 -7.19 3.6 0 0 -17.98 3.59 0 0 -7.2 3.6 0 0 -14.38 3.6 0 0 -10.79 3.59 0 0 -7.2 3.6 0 0 -14.38 3.6 0 0 -7.2 3.59 0 0 -10.79 3.6 0 0 -7.19 3.6 0 0 -10.79 3.59 0 0 -7.19 3.6 0 0 -7.2 3.6 0 0 -7.19 3.59 0 0 -3.6 3.6 0 0 -7.19 3.6 0 0 -3.6 3.59 0 0 -3.6 3.6 0 0 -7.19 7.19 0 0 -3.6 3.6 0 0 -3.59 7.19 0 0 -3.6 21.58 0 0 3.6z"/>
 </g>
</svg>
