<?xml version="1.0" encoding="UTF-8"?>
<!DOCTYPE svg PUBLIC "-//W3C//DTD SVG 1.1//EN" "http://www.w3.org/Graphics/SVG/1.1/DTD/svg11.dtd">
<!-- Creator: CorelDRAW (Versión OEM) -->
<svg xmlns="http://www.w3.org/2000/svg" xml:space="preserve" width="36.2636mm" height="173.699mm" version="1.1" style="shape-rendering:geometricPrecision; text-rendering:geometricPrecision; image-rendering:optimizeQuality; fill-rule:evenodd; clip-rule:evenodd"
viewBox="0 0 3626.36 17369.86"
 xmlns:xlink="http://www.w3.org/1999/xlink"
 xmlns:xodm="http://www.corel.com/coreldraw/odm/2003">
 <defs>
  <style type="text/css">
   <![CDATA[
    .fil2 {fill:#0B0B0B}
    .fil0 {fill:#EDEAE0}
    .fil1 {fill:#F2E6C9}
   ]]>
  </style>
 </defs>
 <g id="fissure-full">
  <metadata id="CorelCorpID_0Corel-Layer"/>
  <polygon id="crown" class="fil0" points="2278.36,767.79 2735.47,767.79 2735.47,798.27 2979.28,798.27 2979.28,828.76 3101.15,828.76 3101.15,859.21 3192.57,859.21 3192.57,889.69 3253.54,889.69 3253.54,920.18 3283.99,920.18 3283.99,950.63 3314.47,950.63 3314.47,981.11 3344.96,981.11 3344.96,1011.6 3375.41,1011.6 3375.41,1163.95 3405.9,1163.95 3405.9,1377.28 3436.38,1377.28 3436.38,1864.83 3405.9,1864.83 3405.9,2230.52 3375.41,2230.52 3375.41,2474.29 3344.96,2474.29 3344.96,2779.04 3314.47,2779.04 3314.47,2961.88 3283.99,2961.88 3283.99,3144.72 3253.54,3144.72 3253.54,3327.56 3223.05,3327.56 3223.05,3479.92 3192.57,3479.92 3192.57,3632.31 3162.12,3632.31 3162.12,3784.66 3131.63,3784.66 3131.63,3997.99 3101.15,3997.99 3101.15,4150.34 3070.7,4150.34 3070.7,4272.25 3040.21,4272.25 3040.21,4424.61 3009.73,4424.61 3009.73,4576.96 2979.28,4576.96 2979.28,4698.87 2948.79,4698.87 2948.79,4820.77 2918.31,4820.77 2918.31,4881.71 2887.86,4881.71 2887.86,5034.06 2857.37,5034.06 2857.37,5125.48 2826.89,5125.48 2826.89,5247.39 2796.44,5247.39 2796.44,5308.33 2765.95,5308.33 2765.95,5399.75 2735.47,5399.75 2735.47,5491.17 2705.02,5491.17 2705.02,5552.14 2674.53,5552.14 2674.53,5643.56 2644.05,5643.56 2644.05,5704.49 2613.6,5704.49 2613.6,5765.43 2583.11,5765.43 2583.11,5826.4 2552.63,5826.4 2552.63,5887.33 2522.18,5887.33 2522.18,5917.82 2491.69,5917.82 2491.69,5978.75 2461.21,5978.75 2461.21,6009.24 2430.76,6009.24 2430.76,6070.17 2400.27,6070.17 2400.27,6100.66 2369.78,6100.66 2369.78,6131.11 2339.34,6131.11 2339.34,6161.59 2308.85,6161.59 2308.85,6192.08 2278.36,6192.08 2278.36,6222.53 2247.91,6222.53 2247.91,6253.02 2217.43,6253.02 2217.43,6283.5 2186.94,6283.5 2186.94,6313.95 2126.01,6313.95 2126.01,6344.44 2065.07,6344.44 2065.07,6374.92 2034.59,6374.92 2034.59,6405.37 1912.68,6405.37 1912.68,6435.86 1638.42,6435.86 1638.42,6405.37 1516.55,6405.37 1516.55,6374.92 1486.07,6374.92 1486.07,6344.44 1394.65,6344.44 1394.65,6313.95 1364.16,6313.95 1364.16,6283.5 1333.71,6283.5 1333.71,6253.02 1272.74,6253.02 1272.74,6222.53 1242.29,6222.53 1242.29,6161.59 1211.8,6161.59 1211.8,6131.11 1181.32,6131.11 1181.32,6100.66 1150.87,6100.66 1150.87,6070.17 1120.38,6070.17 1120.38,6039.69 1089.9,6039.69 1089.9,5978.75 1059.45,5978.75 1059.45,5948.27 1028.96,5948.27 1028.96,5887.33 998.48,5887.33 998.48,5826.4 968.03,5826.4 968.03,5765.43 937.54,5765.43 937.54,5704.49 907.06,5704.49 907.06,5643.56 876.61,5643.56 876.61,5582.59 846.12,5582.59 846.12,5521.65 815.64,5521.65 815.64,5430.23 785.19,5430.23 785.19,5338.81 754.7,5338.81 754.7,5247.39 724.22,5247.39 724.22,5186.46 693.77,5186.46 693.77,5095.03 663.28,5095.03 663.28,5034.06 632.8,5034.06 632.8,4942.64 602.35,4942.64 602.35,4820.77 571.86,4820.77 571.86,4698.87 541.38,4698.87 541.38,4576.96 510.93,4576.96 510.93,4455.09 480.44,4455.09 480.44,4241.77 449.96,4241.77 449.96,4089.41 419.51,4089.41 419.51,3937.02 389.02,3937.02 389.02,3784.66 358.53,3784.66 358.53,3479.92 328.09,3479.92 328.09,3266.63 297.6,3266.63 297.6,3083.78 267.11,3083.78 267.11,2870.46 236.66,2870.46 236.66,2413.36 206.18,2413.36 206.18,2017.19 175.69,2017.19 175.69,1103.02 206.18,1103.02 206.18,1011.6 236.66,1011.6 236.66,950.63 267.11,950.63 267.11,889.69 297.6,889.69 297.6,859.21 358.53,859.21 358.53,828.76 419.51,828.76 419.51,798.27 480.44,798.27 480.44,767.79 846.12,767.79 846.12,737.34 2278.36,737.34 "/>
  <polygon id="root" class="fil1" points="693.77,5674.01 724.22,5674.01 724.22,5765.43 754.7,5765.43 754.7,5826.4 785.19,5826.4 785.19,5856.85 815.64,5856.85 815.64,5917.82 846.12,5917.82 846.12,5978.75 876.61,5978.75 876.61,6039.69 907.06,6039.69 907.06,6070.17 937.54,6070.17 937.54,6131.11 968.03,6131.11 968.03,6161.59 998.48,6161.59 998.48,6192.08 1028.96,6192.08 1028.96,6222.53 1059.45,6222.53 1059.45,6283.5 1089.9,6283.5 1089.9,6313.95 1120.38,6313.95 1120.38,6344.44 1150.87,6344.44 1150.87,6374.92 1181.32,6374.92 1181.32,6405.37 1242.29,6405.37 1242.29,6435.86 1272.74,6435.86 1272.74,6466.34 1303.22,6466.34 1303.22,6496.79 1364.16,6496.79 1364.16,6527.28 1425.13,6527.28 1425.13,6557.76 1516.55,6557.76 1516.55,6588.21 1577.49,6588.21 1577.49,6618.7 1851.75,6618.7 1851.75,6588.21 2034.59,6588.21 2034.59,6557.76 2095.52,6557.76 2095.52,6527.28 2156.49,6527.28 2156.49,6496.79 2217.43,6496.79 2217.43,6466.34 2247.91,6466.34 2247.91,6435.86 2308.85,6435.86 2308.85,6405.37 2339.34,6405.37 2339.34,6374.92 2369.78,6374.92 2369.78,6344.44 2400.27,6344.44 2400.27,6313.95 2430.76,6313.95 2430.76,6283.5 2461.21,6283.5 2461.21,6253.02 2491.69,6253.02 2491.69,6222.53 2522.18,6222.53 2522.18,6192.08 2552.63,6192.08 2552.63,6131.11 2583.11,6131.11 2583.11,6100.66 2613.6,6100.66 2613.6,6070.17 2644.05,6070.17 2644.05,6009.24 2674.53,6009.24 2674.53,5948.27 2705.02,5948.27 2705.02,5887.33 2735.47,5887.33 2735.47,5826.4 2765.95,5826.4 2765.95,5765.43 2796.44,5765.43 2796.44,5704.49 2826.89,5704.49 2826.89,5674.01 2857.37,5674.01 2857.37,6253.02 2826.89,6253.02 2826.89,6618.7 2796.44,6618.7 2796.44,7289.13 2765.95,7289.13 2765.95,7715.74 2735.47,7715.74 2735.47,8111.91 2705.02,8111.91 2705.02,8386.17 2674.53,8386.17 2674.53,8873.72 2644.05,8873.72 2644.05,9056.56 2613.6,9056.56 2613.6,9361.31 2583.11,9361.31 2583.11,9635.57 2552.63,9635.57 2552.63,9848.86 2522.18,9848.86 2522.18,10153.61 2491.69,10153.61 2491.69,10336.45 2461.21,10336.45 2461.21,10580.23 2430.76,10580.23 2430.76,10824.04 2400.27,10824.04 2400.27,11128.75 2369.78,11128.75 2369.78,11433.5 2339.34,11433.5 2339.34,11677.27 2308.85,11677.27 2308.85,12042.95 2278.36,12042.95 2278.36,13779.94 2247.91,13779.94 2247.91,14237.05 2217.43,14237.05 2217.43,14328.47 2186.94,14328.47 2186.94,14419.89 2156.49,14419.89 2156.49,14511.31 2126.01,14511.31 2126.01,14572.28 2095.52,14572.28 2095.52,14602.73 2065.07,14602.73 2065.07,14633.21 1973.65,14633.21 1973.65,14602.73 1943.17,14602.73 1943.17,14572.28 1882.23,14572.28 1882.23,14511.31 1851.75,14511.31 1851.75,14480.86 1821.26,14480.86 1821.26,14450.37 1790.81,14450.37 1790.81,14389.44 1760.33,14389.44 1760.33,14328.47 1729.84,14328.47 1729.84,14267.53 1699.39,14267.53 1699.39,14206.6 1668.91,14206.6 1668.91,14115.18 1638.42,14115.18 1638.42,14054.2 1607.97,14054.2 1607.97,13962.78 1577.49,13962.78 1577.49,13871.36 1547,13871.36 1547,13779.94 1516.55,13779.94 1516.55,13658.07 1486.07,13658.07 1486.07,13597.1 1455.58,13597.1 1455.58,13475.23 1425.13,13475.23 1425.13,13353.33 1394.65,13353.33 1394.65,13261.91 1364.16,13261.91 1364.16,13109.55 1333.71,13109.55 1333.71,12987.64 1303.22,12987.64 1303.22,12835.29 1272.74,12835.29 1272.74,12743.87 1242.29,12743.87 1242.29,12621.96 1211.8,12621.96 1211.8,12408.64 1181.32,12408.64 1181.32,12286.77 1150.87,12286.77 1150.87,12103.92 1120.38,12103.92 1120.38,11951.53 1089.9,11951.53 1089.9,11707.76 1059.45,11707.76 1059.45,11555.4 1028.96,11555.4 1028.96,11372.56 998.48,11372.56 998.48,11128.75 968.03,11128.75 968.03,10854.49 937.54,10854.49 937.54,10610.71 907.06,10610.71 907.06,10123.12 876.61,10123.12 876.61,9848.86 846.12,9848.86 846.12,9208.96 815.64,9208.96 815.64,8508.04 785.19,8508.04 785.19,7776.68 754.7,7776.68 754.7,7471.97 724.22,7471.97 724.22,6710.12 693.77,6710.12 693.77,6100.66 663.28,6100.66 663.28,5613.07 693.77,5613.07 "/>
  <path id="outline" class="fil2" d="M693.77 6710.12l30.45 0 0 761.85 30.48 0 0 304.71 30.49 0 0 731.36 30.45 0 0 700.92 30.48 0 0 639.9 30.49 0 0 274.26 30.45 0 0 487.59 30.48 0 0 243.78 30.49 0 0 274.26 30.45 0 0 243.81 30.48 0 0 182.84 30.49 0 0 152.36 30.45 0 0 243.77 30.48 0 0 152.39 30.49 0 0 182.85 30.45 0 0 121.87 30.48 0 0 213.32 30.49 0 0 121.91 30.45 0 0 91.42 30.48 0 0 152.35 30.49 0 0 121.91 30.45 0 0 152.36 30.49 0 0 91.42 30.48 0 0 121.9 30.45 0 0 121.87 30.49 0 0 60.97 30.48 0 0 121.87 30.45 0 0 91.42 30.49 0 0 91.42 30.48 0 0 91.42 30.45 0 0 60.98 30.49 0 0 91.42 30.48 0 0 60.93 30.45 0 0 60.94 30.49 0 0 60.97 30.48 0 0 60.93 30.45 0 0 30.49 30.49 0 0 30.45 30.48 0 0 60.97 60.94 0 0 30.45 30.48 0 0 30.48 91.42 0 0 -30.48 30.45 0 0 -30.45 30.49 0 0 -60.97 30.48 0 0 -91.42 30.45 0 0 -91.42 30.49 0 0 -91.42 30.48 0 0 -457.11 30.45 0 0 -1736.99 30.49 0 0 -365.68 30.49 0 0 -243.77 30.44 0 0 -304.75 30.49 0 0 -304.71 30.49 0 0 -243.81 30.45 0 0 -243.78 30.48 0 0 -182.84 30.49 0 0 -304.75 30.45 0 0 -213.29 30.48 0 0 -274.26 30.49 0 0 -304.75 30.45 0 0 -182.84 30.48 0 0 -487.55 30.49 0 0 -274.26 30.45 0 0 -396.17 30.48 0 0 -426.61 30.49 0 0 -670.43 30.45 0 0 -365.68 30.48 0 0 -579.01 -30.48 0 0 30.48 -30.45 0 0 60.94 -30.49 0 0 60.97 -30.48 0 0 60.93 -30.45 0 0 60.94 -30.49 0 0 60.97 -30.48 0 0 60.93 -30.45 0 0 30.49 -30.49 0 0 30.45 -30.48 0 0 60.97 -30.45 0 0 30.45 -30.49 0 0 30.49 -30.48 0 0 30.48 -30.45 0 0 30.45 -30.49 0 0 30.49 -30.49 0 0 30.48 -30.44 0 0 30.45 -30.49 0 0 30.49 -60.94 0 0 30.48 -30.48 0 0 30.45 -60.94 0 0 30.49 -60.97 0 0 30.48 -60.93 0 0 30.45 -182.84 0 0 30.49 -57.26 0c0.64,38.26 18.28,19.31 34.93,84.28 42.53,165.99 70.6,184.67 40.53,331.46 -18.65,91.07 -4.89,82.85 -71.34,128.61 10.28,87.34 -4.42,79.98 71.72,131.68 0.08,33.99 -14.91,41.23 -10.91,75.54l64.57 42.25c-6.46,33.14 -29.12,59.63 -34.16,90.59 -5.95,36.67 17.1,67.22 21.72,101.93 -23.79,6.78 -53.93,19.99 -74.69,31.52 -6.44,23.85 -2.99,44.95 -12.76,62.77 -11.06,20.17 -23.09,17 -28.76,48.65 -4.15,23.13 4.01,55.46 -1.62,73.5 -8.17,26.11 -21.08,10.86 -40.61,33.44 32.58,70.89 113.24,58.49 65.23,184.84 -46.17,121.46 9.85,102.39 46.48,192.81 -61.22,56.34 -108.03,8.56 -95.95,179.62 2.74,38.88 13.38,104.48 -6.48,132.38 -29.24,41.09 -55.56,17.82 -45.12,96.66 71.42,49.13 35.15,18.76 72.2,96.24 31.54,65.94 46.49,18.32 28.6,120.44 -18.05,102.96 -34.51,103.65 -39.25,131.25 -9.23,53.65 20.05,71.66 51.67,118.31 -8.91,32.62 -29.44,48.67 -38.24,96.57l-6.44 35.17c-5.47,-71.58 19.48,-79.25 31.91,-131.74 -22.37,-34.28 -55.99,-45.51 -53.73,-106.99 1.27,-34.62 24.8,-88.6 32.88,-132.04 18.3,-98.38 0.71,-58.48 -29.04,-115.52 -30.88,-59.22 -6.8,-54.58 -78.07,-85.48 -22.92,-208.49 62.35,-52.14 44.98,-239.95 -12.46,-134.64 -28.43,-131.92 57.98,-213.8 -14.58,-34.14 -35.58,-51.08 -47.68,-99.51 -14.85,-59.46 63.18,-112.07 5.11,-162.13 -21.08,-18.18 -19.27,-17.09 -35.88,-39.52 -23.99,-32.36 -43.33,-56.81 -63.12,-89.08l77.38 -48.68c3.29,-30.39 -6.28,-47.62 2.47,-74.02 7.88,-23.82 24.59,-25.05 31.3,-50.22 19.26,-72.29 -32.8,-71.64 51.86,-105.51 -6.12,-47.89 -2.76,-43.79 4.09,-88.63 -27.15,-9.94 -42.55,-23.23 -66.19,-33.14l19.21 -76.77c-96.75,-67.16 -31,-23.11 -59.38,-143.03 -8.21,-34.73 -23.72,-58.66 -27.43,-91.98 52.48,-35.25 86.15,-55.92 93.85,-100.49 21.44,-124.31 -26.04,-100.73 -30.95,-157.56 -6.32,-73.19 28.75,-27.17 -26.42,-112.18 -41.87,-64.52 -49.23,-88.95 -45.98,-122.54l-97.47 0 0 -30.49 -60.94 0 0 -30.45 -91.42 0 0 -30.48 -60.97 0 0 -30.49 -60.94 0 0 -30.45 -30.48 0 0 -30.48 -30.45 0 0 -30.49 -60.97 0 0 -30.45 -30.45 0 0 -30.48 -30.49 0 0 -30.49 -30.48 0 0 -30.45 -30.45 0 0 -60.97 -30.49 0 0 -30.45 -30.48 0 0 -30.49 -30.45 0 0 -30.48 -30.49 0 0 -60.94 -30.48 0 0 -30.48 -30.45 0 0 -60.94 -30.49 0 0 -60.93 -30.48 0 0 -60.97 -30.45 0 0 -30.45 -30.49 0 0 -60.97 -30.48 0 0 -91.42 -30.45 0 0 -60.94 -30.49 0 0 487.59 30.49 0 0 609.46zm1074.34 -5972.78c-13.13,119.84 17.38,56.03 45.81,166.98 59.56,232.45 98.85,258.62 56.77,464.2 -26.12,127.52 -6.86,116.01 -99.9,180.1 14.36,122.31 -6.21,112 100.41,184.42 0.12,47.58 -20.88,57.74 -15.27,105.78l90.43 59.15c-9.03,46.41 -40.78,83.52 -47.83,126.88 -8.35,51.34 23.94,94.13 30.4,142.73 -33.31,9.49 -75.53,28.01 -104.6,44.15 -9.01,33.41 -4.18,62.95 -17.86,87.91 -15.5,28.25 -32.35,23.81 -40.29,68.14 -5.8,32.38 5.63,77.67 -2.25,102.92 -11.44,36.57 -29.54,15.21 -56.89,46.84 45.62,99.27 158.59,81.9 91.36,258.83 -64.66,170.11 13.8,143.42 65.08,270.05 -85.73,78.89 -151.28,11.99 -134.37,251.52 3.85,54.47 18.75,146.34 -9.05,185.39 -40.96,57.55 -77.82,24.97 -63.2,135.38 100.02,68.8 49.24,26.27 101.13,134.78 44.15,92.36 65.1,25.64 40.04,168.67 -25.27,144.17 -48.33,145.15 -54.97,183.8 -12.92,75.14 28.07,100.37 72.35,165.69 -12.47,45.67 -41.21,68.16 -53.56,135.23l-9 49.25c-7.68,-100.25 27.27,-110.97 44.7,-184.48 -31.34,-48.01 -78.42,-63.74 -75.27,-149.84 1.77,-48.47 34.73,-124.06 46.06,-184.93 25.63,-137.75 1,-81.88 -40.66,-161.76 -43.26,-82.94 -9.53,-76.43 -109.35,-119.7 -32.09,-291.98 87.31,-73.03 62.98,-336.05 -17.44,-188.53 -39.79,-184.74 81.2,-299.4 -20.39,-47.82 -49.81,-71.55 -66.75,-139.37 -20.8,-83.25 88.47,-156.95 7.16,-227.04 -29.54,-25.45 -27,-23.93 -50.27,-55.34 -33.58,-45.34 -60.67,-79.57 -88.38,-124.76l108.36 -68.17c4.61,-42.56 -8.78,-66.69 3.45,-103.67 11.04,-33.34 34.44,-35.07 43.84,-70.33 26.98,-101.24 -45.94,-100.31 72.63,-147.76 -8.58,-67.04 -3.85,-61.32 5.72,-124.12 -38.02,-13.92 -59.58,-32.53 -92.69,-46.41l26.91 -107.49c-135.5,-94.05 -43.41,-32.37 -83.16,-200.32 -11.51,-48.65 -33.21,-82.14 -38.42,-128.82 73.48,-49.37 120.65,-78.31 131.42,-140.71 30.03,-174.1 -36.45,-141.07 -43.32,-220.66 -8.85,-102.5 40.25,-38.04 -37.01,-157.1 -76.63,-118.1 -70.7,-140.29 -56.97,-220.56l-758.91 0 0 30.45 -365.68 0 0 30.48 -60.93 0 0 30.49 -60.98 0 0 30.45 -60.93 0 0 30.48 -30.49 0 0 60.94 -30.45 0 0 60.97 -30.48 0 0 91.42 -30.49 0 0 914.17 30.49 0 0 396.17 30.48 0 0 457.1 30.45 0 0 213.32 30.49 0 0 182.85 30.49 0 0 213.29 30.44 0 0 304.74 30.49 0 0 152.36 30.49 0 0 152.39 30.45 0 0 152.36 30.48 0 0 213.32 30.49 0 0 121.87 30.45 0 0 121.91 30.48 0 0 121.9 30.49 0 0 121.87 30.45 0 0 91.42 30.48 0 0 60.97 30.49 0 0 91.43 30.45 0 0 60.93 30.48 0 0 91.42 30.49 0 0 91.42 30.45 0 0 91.42 30.48 0 0 60.94 30.49 0 0 60.97 30.45 0 0 60.93 30.48 0 0 60.94 30.49 0 0 60.97 30.45 0 0 60.93 30.48 0 0 60.94 30.49 0 0 30.48 30.45 0 0 60.94 30.48 0 0 30.48 30.49 0 0 30.49 30.45 0 0 30.45 30.48 0 0 30.48 30.49 0 0 60.94 30.45 0 0 30.49 60.97 0 0 30.48 30.45 0 0 30.45 30.49 0 0 30.49 91.42 0 0 30.48 30.48 0 0 30.45 121.87 0 0 30.49 274.26 0 0 -30.49 121.91 0 0 -30.45 30.48 0 0 -30.48 60.94 0 0 -30.49 60.93 0 0 -30.45 30.49 0 0 -30.48 30.48 0 0 -30.49 30.45 0 0 -30.45 30.49 0 0 -30.49 30.49 0 0 -30.48 30.44 0 0 -30.45 30.49 0 0 -30.49 30.49 0 0 -60.93 30.45 0 0 -30.49 30.48 0 0 -60.93 30.49 0 0 -30.49 30.45 0 0 -60.93 30.48 0 0 -60.97 30.49 0 0 -60.94 30.45 0 0 -60.93 30.48 0 0 -91.42 30.49 0 0 -60.97 30.45 0 0 -91.42 30.48 0 0 -91.42 30.49 0 0 -60.94 30.45 0 0 -121.91 30.48 0 0 -91.42 30.49 0 0 -152.35 30.45 0 0 -60.94 30.48 0 0 -121.9 30.49 0 0 -121.91 30.45 0 0 -152.35 30.48 0 0 -152.36 30.49 0 0 -121.91 30.45 0 0 -152.35 30.48 0 0 -213.33 30.49 0 0 -152.35 30.45 0 0 -152.39 30.48 0 0 -152.36 30.49 0 0 -182.84 30.45 0 0 -182.84 30.48 0 0 -182.84 30.49 0 0 -304.75 30.45 0 0 -243.77 30.49 0 0 -365.69 30.48 0 0 -487.55 -30.48 0 0 -213.33 -30.49 0 0 -152.35 -30.45 0 0 -30.49 -30.49 0 0 -30.48 -30.48 0 0 -30.45 -30.45 0 0 -30.49 -60.97 0 0 -30.48 -91.42 0 0 -30.45 -121.87 0 0 -30.49 -243.81 0 0 -30.48 -457.11 0 0 -30.45 -510.25 0zm540.74 -182.84l304.75 0 0 30.45 274.26 0 0 30.48 182.84 0 0 30.49 91.42 0 0 30.45 91.42 0 0 30.48 60.93 0 0 30.49 60.94 0 0 30.45 30.49 0 0 30.48 30.48 0 0 30.49 30.45 0 0 30.45 30.49 0 0 30.48 30.48 0 0 60.94 30.45 0 0 91.42 30.49 0 0 152.39 30.48 0 0 761.81 -30.48 0 0 335.2 -30.49 0 0 274.26 -30.45 0 0 274.26 -30.48 0 0 182.84 -30.49 0 0 152.4 -30.45 0 0 182.84 -30.48 0 0 152.35 -30.49 0 0 182.84 -30.45 0 0 182.84 -30.49 0 0 182.84 -30.48 0 0 121.91 -30.45 0 0 152.36 -30.49 0 0 182.84 -30.48 0 0 121.9 -30.45 0 0 91.42 -30.49 0 0 152.36 -30.48 0 0 396.17 -30.45 0 0 457.1 -30.49 0 0 548.52 -30.48 0 0 639.94 -30.45 0 0 487.56 -30.49 0 0 335.23 -30.48 0 0 365.68 -30.45 0 0 365.68 -30.49 0 0 396.13 -30.48 0 0 213.33 -30.45 0 0 304.75 -30.49 0 0 335.19 -30.48 0 0 243.78 -30.45 0 0 182.84 -30.49 0 0 243.78 -30.48 0 0 213.32 -30.45 0 0 304.75 -30.49 0 0 243.77 -30.48 0 0 274.27 -30.45 0 0 213.32 -30.49 0 0 457.1 -30.48 0 0 1615.09 -30.45 0 0 457.1 -30.49 0 0 243.78 -30.49 0 0 60.97 -30.44 0 0 60.93 -30.49 0 0 60.94 -30.49 0 0 60.97 -30.45 0 0 30.45 -30.48 0 0 30.48 -30.49 0 0 30.49 -30.45 0 0 30.45 -60.97 0 0 30.48 -152.35 0 0 -30.48 -91.42 0 0 -30.45 -30.49 0 0 -30.49 -30.45 0 0 -30.48 -60.97 0 0 -30.45 -30.45 0 0 -60.97 -30.48 0 0 -30.45 -30.49 0 0 -60.97 -30.45 0 0 -60.94 -30.48 0 0 -30.48 -30.49 0 0 -91.42 -30.45 0 0 -60.94 -30.48 0 0 -91.42 -30.49 0 0 -60.93 -30.45 0 0 -91.43 -30.48 0 0 -91.42 -30.49 0 0 -60.97 -30.45 0 0 -121.87 -30.49 0 0 -121.9 -30.48 0 0 -121.91 -30.45 0 0 -60.93 -30.49 0 0 -91.42 -30.48 0 0 -182.84 -30.45 0 0 -91.43 -30.49 0 0 -152.35 -30.48 0 0 -121.91 -30.45 0 0 -152.35 -30.49 0 0 -121.91 -30.48 0 0 -182.84 -30.45 0 0 -121.91 -30.49 0 0 -213.29 -30.48 0 0 -243.81 -30.45 0 0 -121.87 -30.49 0 0 -274.26 -30.48 0 0 -243.81 -30.45 0 0 -243.78 -30.49 0 0 -304.74 -30.48 0 0 -335.2 -30.45 0 0 -274.26 -30.49 0 0 -761.81 -30.48 0 0 -335.24 -30.45 0 0 -792.3 -30.49 0 0 -609.45 -30.48 0 0 -670.43 -30.45 0 0 -426.62 -30.49 0 0 -731.36 -30.48 0 0 -609.5 -30.45 0 0 -121.87 -30.49 0 0 -152.39 -30.49 0 0 -91.42 -30.44 0 0 -121.87 -30.49 0 0 -182.84 -30.49 0 0 -182.84 -30.45 0 0 -121.91 -30.48 0 0 -182.84 -30.49 0 0 -182.84 -30.45 0 0 -213.32 -30.48 0 0 -274.27 -30.49 0 0 -274.26 -30.45 0 0 -335.19 -30.48 0 0 -304.75 -30.49 0 0 -1279.85 30.49 0 0 -60.97 30.48 0 0 -91.42 30.45 0 0 -30.45 30.49 0 0 -60.97 30.48 0 0 -30.45 30.45 0 0 -30.49 60.97 0 0 -30.48 30.45 0 0 -30.45 60.98 0 0 -30.49 91.42 0 0 -30.48 152.35 0 0 -30.45 335.2 0 0 -30.49 1401.79 0 0 30.49z"/>
 </g>
</svg>
