<?xml version="1.0" encoding="UTF-8"?>
<!DOCTYPE svg PUBLIC "-//W3C//DTD SVG 1.1//EN" "http://www.w3.org/Graphics/SVG/1.1/DTD/svg11.dtd">
<!-- Creator: CorelDRAW (Versión OEM) -->
<svg xmlns="http://www.w3.org/2000/svg" xml:space="preserve" width="60.3376mm" height="173.699mm" version="1.1" style="shape-rendering:geometricPrecision; text-rendering:geometricPrecision; image-rendering:optimizeQuality; fill-rule:evenodd; clip-rule:evenodd"
viewBox="0 0 6033.76 17369.86"
 xmlns:xlink="http://www.w3.org/1999/xlink"
 xmlns:xodm="http://www.corel.com/coreldraw/odm/2003">
 <defs>
  <style type="text/css">
   <![CDATA[
    .fil2 {fill:#0B0B0B}
    .fil1 {fill:#EDEAE0}
    .fil0 {fill:#F2E6C9}
   ]]>
  </style>
 </defs>
 <g id="fissure-full">
  <metadata id="CorelCorpID_0Corel-Layer"/>
  <polygon id="root" class="fil0" points="5388.1,4623.61 5357.65,4623.61 5357.65,4867.39 5327.17,4867.39 5327.17,5903.5 5357.65,5903.5 5357.65,6086.34 5388.1,6086.34 5388.1,6360.6 5418.59,6360.6 5418.59,6573.89 5449.07,6573.89 5449.07,6726.29 5479.52,6726.29 5479.52,6909.13 5510.01,6909.13 5510.01,7152.9 5540.49,7152.9 5540.49,7244.32 5570.94,7244.32 5570.94,7488.1 5601.43,7488.1 5601.43,7701.43 5631.91,7701.43 5631.91,7884.27 5662.36,7884.27 5662.36,9072.73 5631.91,9072.73 5631.91,9499.35 5601.43,9499.35 5601.43,9621.25 5570.94,9621.25 5570.94,9865.03 5540.49,9865.03 5540.49,10078.36 5510.01,10078.36 5510.01,10200.23 5479.52,10200.23 5479.52,10444.04 5449.07,10444.04 5449.07,10657.33 5418.59,10657.33 5418.59,10809.72 5388.1,10809.72 5388.1,10931.59 5357.65,10931.59 5357.65,11053.5 5327.17,11053.5 5327.17,11114.43 5296.68,11114.43 5296.68,11175.4 5266.23,11175.4 5266.23,11205.85 5205.26,11205.85 5205.26,11236.34 5083.39,11236.34 5083.39,11205.85 5022.42,11205.85 5022.42,11175.4 4991.97,11175.4 4991.97,11144.92 4961.48,11144.92 4961.48,11114.43 4931,11114.43 4931,11083.98 4900.55,11083.98 4900.55,11023.01 4870.06,11023.01 4870.06,10962.08 4839.58,10962.08 4839.58,10901.14 4809.13,10901.14 4809.13,10840.17 4778.64,10840.17 4778.64,10748.75 4748.16,10748.75 4748.16,10657.33 4717.71,10657.33 4717.71,10565.91 4687.22,10565.91 4687.22,10444.04 4656.74,10444.04 4656.74,10352.62 4626.29,10352.62 4626.29,10230.71 4595.8,10230.71 4595.8,10078.36 4565.32,10078.36 4565.32,9925.97 4534.87,9925.97 4534.87,9773.61 4504.38,9773.61 4504.38,9651.7 4473.9,9651.7 4473.9,9529.83 4443.45,9529.83 4443.45,9407.93 4412.96,9407.93 4412.96,9255.57 4382.48,9255.57 4382.48,9042.25 4352.03,9042.25 4352.03,8920.38 4321.54,8920.38 4321.54,8798.47 4291.05,8798.47 4291.05,8676.56 4260.61,8676.56 4260.61,8585.14 4230.12,8585.14 4230.12,8493.72 4199.63,8493.72 4199.63,8371.85 4169.18,8371.85 4169.18,8280.43 4138.7,8280.43 4138.7,8189.01 4108.21,8189.01 4108.21,8128.04 4077.76,8128.04 4077.76,8006.17 4047.28,8006.17 4047.28,7945.2 4016.79,7945.2 4016.79,7853.78 3986.34,7853.78 3986.34,7762.36 3955.86,7762.36 3955.86,7701.43 3925.37,7701.43 3925.37,7640.49 3894.92,7640.49 3894.92,7549.07 3864.44,7549.07 3864.44,7488.1 3833.95,7488.1 3833.95,7427.16 3803.5,7427.16 3803.5,7366.23 3773.02,7366.23 3773.02,7305.26 3742.53,7305.26 3742.53,7244.32 3712.08,7244.32 3712.08,7213.84 3681.6,7213.84 3681.6,7152.9 3651.11,7152.9 3651.11,7091.97 3620.66,7091.97 3620.66,7061.48 3590.18,7061.48 3590.18,7000.55 3559.69,7000.55 3559.69,6939.58 3529.24,6939.58 3529.24,6909.13 3498.76,6909.13 3498.76,6878.64 3468.27,6878.64 3468.27,6817.71 3437.82,6817.71 3437.82,6787.22 3407.34,6787.22 3407.34,6756.73 3346.4,6756.73 3346.4,6726.29 3315.92,6726.29 3315.92,6695.8 3346.4,6695.8 3346.4,6634.87 3376.85,6634.87 3376.85,6604.38 3407.34,6604.38 3407.34,6573.89 3437.82,6573.89 3437.82,6543.44 3468.27,6543.44 3468.27,6512.96 3498.76,6512.96 3498.76,6482.47 3529.24,6482.47 3529.24,6452.02 3559.69,6452.02 3559.69,6421.54 3468.27,6421.54 3468.27,6452.02 3407.34,6452.02 3407.34,6482.47 3376.85,6482.47 3376.85,6512.96 3346.4,6512.96 3346.4,6543.44 3315.92,6543.44 3315.92,6573.89 3285.43,6573.89 3285.43,6604.38 3254.98,6604.38 3254.98,6665.31 3224.49,6665.31 3224.49,6695.8 3194.01,6695.8 3194.01,6756.73 3163.56,6756.73 3163.56,6817.71 3133.07,6817.71 3133.07,6878.64 3102.59,6878.64 3102.59,6939.58 3072.14,6939.58 3072.14,7031 3041.65,7031 3041.65,7122.42 3011.17,7122.42 3011.17,7305.26 2980.72,7305.26 2980.72,7427.16 2950.23,7427.16 2950.23,7610 2919.75,7610 2919.75,8280.43 2950.23,8280.43 2950.23,8585.14 2980.72,8585.14 2980.72,8767.99 3011.17,8767.99 3011.17,8950.83 3041.65,8950.83 3041.65,9042.25 3072.14,9042.25 3072.14,9194.6 3102.59,9194.6 3102.59,9255.57 3133.07,9255.57 3133.07,9377.44 3163.56,9377.44 3163.56,9499.35 3194.01,9499.35 3194.01,9590.77 3224.49,9590.77 3224.49,9682.19 3254.98,9682.19 3254.98,9773.61 3285.43,9773.61 3285.43,9895.52 3315.92,9895.52 3315.92,9986.94 3346.4,9986.94 3346.4,10047.87 3376.85,10047.87 3376.85,10139.29 3407.34,10139.29 3407.34,10230.71 3437.82,10230.71 3437.82,10322.13 3468.27,10322.13 3468.27,10413.55 3498.76,10413.55 3498.76,10504.97 3529.24,10504.97 3529.24,10596.39 3559.69,10596.39 3559.69,10687.81 3590.18,10687.81 3590.18,10840.17 3620.66,10840.17 3620.66,10962.08 3651.11,10962.08 3651.11,11297.27 3620.66,11297.27 3620.66,11388.69 3590.18,11388.69 3590.18,11449.66 3559.69,11449.66 3559.69,11480.11 3498.76,11480.11 3498.76,11510.6 3315.92,11510.6 3315.92,11480.11 3285.43,11480.11 3285.43,11449.66 3224.49,11449.66 3224.49,11419.18 3194.01,11419.18 3194.01,11388.69 3163.56,11388.69 3163.56,11358.24 3102.59,11358.24 3102.59,11327.76 3072.14,11327.76 3072.14,11297.27 3041.65,11297.27 3041.65,11266.82 3011.17,11266.82 3011.17,11236.34 2980.72,11236.34 2980.72,11205.85 2919.75,11205.85 2919.75,11144.92 2858.81,11144.92 2858.81,11083.98 2828.33,11083.98 2828.33,11053.5 2797.88,11053.5 2797.88,11023.01 2767.39,11023.01 2767.39,10992.56 2736.91,10992.56 2736.91,10962.08 2706.46,10962.08 2706.46,10901.14 2675.97,10901.14 2675.97,10870.66 2645.49,10870.66 2645.49,10840.17 2615.04,10840.17 2615.04,10779.24 2584.55,10779.24 2584.55,10748.75 2554.07,10748.75 2554.07,10718.3 2523.62,10718.3 2523.62,10657.33 2493.13,10657.33 2493.13,10626.88 2462.65,10626.88 2462.65,10596.39 2432.2,10596.39 2432.2,10565.91 2401.71,10565.91 2401.71,10504.97 2371.23,10504.97 2371.23,10474.49 2340.78,10474.49 2340.78,10413.55 2310.29,10413.55 2310.29,10383.07 2279.8,10383.07 2279.8,10352.62 2249.36,10352.62 2249.36,10291.65 2218.87,10291.65 2218.87,10261.2 2188.38,10261.2 2188.38,10200.23 2157.93,10200.23 2157.93,10169.78 2127.45,10169.78 2127.45,10108.81 2096.96,10108.81 2096.96,10047.87 2066.51,10047.87 2066.51,10017.39 2036.03,10017.39 2036.03,9956.45 2005.54,9956.45 2005.54,9895.52 1975.09,9895.52 1975.09,9865.03 1944.61,9865.03 1944.61,9804.1 1914.12,9804.1 1914.12,9743.12 1883.67,9743.12 1883.67,9682.19 1853.19,9682.19 1853.19,9621.25 1822.7,9621.25 1822.7,9560.28 1792.25,9560.28 1792.25,9499.35 1761.77,9499.35 1761.77,9438.41 1731.28,9438.41 1731.28,9377.44 1700.83,9377.44 1700.83,9286.02 1670.35,9286.02 1670.35,9225.09 1639.86,9225.09 1639.86,9133.67 1609.41,9133.67 1609.41,9072.73 1578.93,9072.73 1578.93,8981.31 1548.44,8981.31 1548.44,8920.38 1517.99,8920.38 1517.99,8798.47 1487.51,8798.47 1487.51,8737.54 1457.02,8737.54 1457.02,8585.14 1426.57,8585.14 1426.57,8463.27 1396.09,8463.27 1396.09,8402.3 1365.6,8402.3 1365.6,8249.95 1335.15,8249.95 1335.15,8097.59 1304.67,8097.59 1304.67,8006.17 1274.18,8006.17 1274.18,7792.85 1243.73,7792.85 1243.73,7670.94 1213.24,7670.94 1213.24,7427.16 1182.76,7427.16 1182.76,7183.39 1152.31,7183.39 1152.31,6909.13 1121.82,6909.13 1121.82,6391.05 1091.34,6391.05 1091.34,5751.11 1060.89,5751.11 1060.89,5537.82 1030.4,5537.82 1030.4,5202.59 999.92,5202.59 999.92,5019.75 969.47,5019.75 969.47,4836.91 938.98,4836.91 938.98,4745.48 908.5,4745.48 908.5,4623.61 938.98,4623.61 938.98,4654.06 999.92,4654.06 999.92,4684.55 1060.89,4684.55 1060.89,4715.04 1152.31,4715.04 1152.31,4745.48 1213.24,4745.48 1213.24,4775.97 1304.67,4775.97 1304.67,4806.46 1365.6,4806.46 1365.6,4836.91 1487.51,4836.91 1487.51,4867.39 1578.93,4867.39 1578.93,4897.88 1731.28,4897.88 1731.28,4928.33 1822.7,4928.33 1822.7,4958.81 2036.03,4958.81 2036.03,4989.3 2279.8,4989.3 2279.8,5019.75 2797.88,5019.75 2797.88,4989.3 3285.43,4989.3 3285.43,4958.81 3498.76,4958.81 3498.76,4928.33 3620.66,4928.33 3620.66,4897.88 3833.95,4897.88 3833.95,4867.39 3955.86,4867.39 3955.86,4836.91 4047.28,4836.91 4047.28,4806.46 4230.12,4806.46 4230.12,4775.97 4321.54,4775.97 4321.54,4745.48 4443.45,4745.48 4443.45,4715.04 4565.32,4715.04 4565.32,4684.55 4656.74,4684.55 4656.74,4654.06 4748.16,4654.06 4748.16,4623.61 4839.58,4623.61 4839.58,4593.13 4931,4593.13 4931,4562.64 5022.42,4562.64 5022.42,4532.19 5083.39,4532.19 5083.39,4501.71 5174.81,4501.71 5174.81,4471.22 5235.75,4471.22 5235.75,4440.77 5296.68,4440.77 5296.68,4410.29 5357.65,4410.29 5357.65,4379.8 5388.1,4379.8 "/>
  <path id="crown" class="fil1" d="M3773.02 723.02l-91.42 0 0 30.45 -30.49 0 0 30.49 -30.45 0 0 60.93 -30.48 0 0 30.49 -30.49 0 0 60.93 -30.45 0 0 30.49 -30.48 0 0 60.93 -30.49 0 0 30.49 -30.45 0 0 60.93 -30.48 0 0 30.49 -30.49 0 0 60.93 -30.45 0 0 30.49 -30.48 0 0 30.45 -30.49 0 0 60.97 -30.45 0 0 30.45 -30.49 0 0 30.48 -30.48 0 0 30.49 -30.45 0 0 30.45 -243.81 0 0 -30.45 -91.42 0 0 -30.49 -91.42 0 0 -30.48 -60.94 0 0 -30.45 -91.42 0 0 -30.49 -60.93 0 0 -30.48 -60.97 0 0 -30.45 -60.94 0 0 -30.49 -60.93 0 0 -30.48 -60.98 0 0 -30.45 -60.93 0 0 -30.49 -91.42 0 0 -30.45 -60.94 0 0 -30.48 -91.42 0 0 -30.49 -152.39 0 0 -30.45 -274.26 0 0 30.45 -91.42 0 0 30.49 -60.93 0 0 30.48 -60.94 0 0 30.45 -30.48 0 0 30.49 -60.94 0 0 30.45 -60.97 0 0 30.48 -30.45 0 0 30.49 -30.49 0 0 30.45 -30.48 0 0 30.48 -30.45 0 0 30.49 -30.49 0 0 30.45 -30.48 0 0 30.48 -30.45 0 0 30.49 -30.49 0 0 30.45 -30.48 0 0 30.48 -30.45 0 0 30.49 -30.49 0 0 30.45 -30.48 0 0 30.48 -30.45 0 0 30.49 -30.49 0 0 30.45 -30.48 0 0 30.48 -30.45 0 0 60.94 91.42 0 0 -30.45 30.45 0 0 -30.49 30.48 0 0 -30.48 60.94 0 0 -30.45 30.48 0 0 -30.49 30.49 0 0 -30.48 30.45 0 0 -30.45 30.48 0 0 -30.49 30.49 0 0 -30.48 30.45 0 0 -30.45 60.97 0 0 -30.49 30.45 0 0 -30.48 30.48 0 0 -30.45 30.49 0 0 -30.49 30.45 0 0 -30.48 60.97 0 0 -30.45 30.45 0 0 -30.49 60.97 0 0 -30.48 60.94 0 0 -30.45 121.9 0 0 -30.49 182.84 0 0 30.49 121.87 0 0 30.45 91.42 0 0 30.48 60.97 0 0 30.49 91.42 0 0 30.45 60.94 0 0 30.48 60.93 0 0 30.49 60.98 0 0 30.45 60.93 0 0 30.48 60.94 0 0 30.49 91.42 0 0 30.45 60.97 0 0 30.48 60.93 0 0 30.49 60.94 0 0 30.45 91.42 0 0 30.48 121.9 0 0 30.49 213.33 0 0 -30.49 91.42 0 0 -30.48 60.94 0 0 -30.45 91.42 0 0 -30.49 60.93 0 0 -30.48 60.97 0 0 -30.45 60.94 0 0 -30.49 60.93 0 0 -30.48 91.42 0 0 -30.45 30.49 0 0 -30.49 60.93 0 0 -30.48 91.42 0 0 -30.45 60.97 0 0 -30.49 60.94 0 0 -30.48 60.93 0 0 -30.45 91.42 0 0 -30.49 304.75 0 0 30.49 60.94 0 0 30.45 60.97 0 0 30.48 121.87 0 0 -30.48 -30.45 0 0 -30.45 -30.49 0 0 -30.49 -30.48 0 0 -30.45 -60.94 0 0 -30.48 -30.48 0 0 -30.49 -60.94 0 0 -30.45 -365.68 0 0 30.45 -60.94 0 0 30.49 -91.42 0 0 30.48 -60.97 0 0 30.45 -60.93 0 0 30.49 -60.94 0 0 30.45 -60.97 0 0 30.48 -60.93 0 0 30.49 -60.94 0 0 30.45 -60.97 0 0 30.48 -60.93 0 0 30.49 -60.94 0 0 30.45 -60.97 0 0 -30.45 30.49 0 0 -30.49 30.48 0 0 -60.93 30.45 0 0 -30.49 30.49 0 0 -60.93 30.48 0 0 -30.49 30.45 0 0 -60.93 30.49 0 0 -60.94 30.48 0 0 -30.48 30.45 0 0 -60.94 30.49 0 0 -30.48 30.48 0 0 -60.94 30.45 0 0 -30.48 30.49 0 0 -60.94zm579.01 -243.81l91.42 0 0 30.48 91.42 0 0 30.49 30.45 0 0 30.45 60.97 0 0 30.48 30.45 0 0 30.49 60.97 0 0 30.45 60.93 0 0 30.48 60.94 0 0 30.49 30.48 0 0 30.45 60.94 0 0 30.49 30.48 0 0 30.48 60.94 0 0 30.45 30.48 0 0 30.49 30.49 0 0 30.48 60.93 0 0 30.45 30.49 0 0 30.49 30.45 0 0 30.48 30.49 0 0 30.45 30.48 0 0 30.49 30.45 0 0 30.48 30.49 0 0 30.45 30.48 0 0 30.49 30.45 0 0 30.45 30.49 0 0 60.97 30.48 0 0 30.45 30.45 0 0 60.97 30.49 0 0 30.45 30.48 0 0 60.97 30.45 0 0 60.93 30.49 0 0 60.94 30.48 0 0 91.42 30.45 0 0 60.97 30.49 0 0 121.87 30.48 0 0 121.91 30.45 0 0 121.9 30.49 0 0 182.84 30.48 0 0 639.95 -30.48 0 0 152.35 -30.49 0 0 152.36 -30.45 0 0 152.39 -30.48 0 0 60.93 -30.49 0 0 152.36 -30.45 0 0 91.42 -30.48 0 0 91.42 -30.49 0 0 91.42 -30.45 0 0 60.97 -30.48 0 0 121.87 -30.49 0 0 91.42 -30.45 0 0 60.97 -30.48 0 0 30.45 -60.94 0 0 30.49 -30.48 0 0 30.48 -60.94 0 0 30.45 -60.97 0 0 30.49 -60.94 0 0 30.48 -60.93 0 0 30.45 -60.97 0 0 30.49 -91.42 0 0 30.48 -91.42 0 0 30.45 -91.42 0 0 30.49 -91.42 0 0 30.48 -91.42 0 0 30.45 -91.42 0 0 30.49 -121.87 0 0 30.48 -121.91 0 0 30.45 -152.36 0 0 30.49 -30.48 0 0 30.49 -213.33 0 0 30.44 -152.35 0 0 30.49 -121.91 0 0 30.49 -304.71 0 0 30.45 -182.84 0 0 30.48 -914.21 0 0 -30.48 -243.81 0 0 -30.45 -152.35 0 0 -30.49 -121.91 0 0 -30.49 -91.42 0 0 -30.44 -91.42 0 0 -30.49 -121.87 0 0 -30.49 -60.97 0 0 -30.45 -91.42 0 0 -30.48 -60.94 0 0 -30.49 -60.93 0 0 -30.45 -60.97 0 0 -30.48 -60.94 0 0 -30.49 -60.93 0 0 -30.45 -60.97 0 0 -60.97 -30.45 0 0 -60.93 -30.49 0 0 -91.42 -30.48 0 0 -60.94 -30.45 0 0 -60.97 -30.49 0 0 -91.42 -30.48 0 0 -60.93 -30.45 0 0 -60.94 -30.49 0 0 -91.42 -30.48 0 0 -60.97 -30.45 0 0 -91.42 -30.49 0 0 -60.94 -30.48 0 0 -60.93 -30.45 0 0 -91.42 -30.49 0 0 -91.42 -30.48 0 0 -60.97 -30.45 0 0 -91.42 -30.49 0 0 -121.87 -30.49 0 0 -182.84 -30.44 0 0 -152.4 -30.49 0 0 -609.45 30.49 0 0 -182.84 30.44 0 0 -121.91 30.49 0 0 -91.42 30.49 0 0 -60.94 30.45 0 0 -60.93 30.48 0 0 -60.97 30.49 0 0 -60.94 30.45 0 0 -60.93 30.48 0 0 -60.97 30.49 0 0 -30.45 30.45 0 0 -60.97 30.48 0 0 -30.45 30.49 0 0 -60.97 30.45 0 0 -30.45 30.48 0 0 -30.49 30.49 0 0 -30.45 30.45 0 0 -60.97 30.48 0 0 -30.45 30.49 0 0 -30.48 30.45 0 0 -30.49 30.48 0 0 -30.45 30.49 0 0 -30.48 30.45 0 0 -30.49 30.48 0 0 -30.45 60.94 0 0 -30.48 30.48 0 0 -30.49 30.49 0 0 -30.45 30.45 0 0 -30.49 60.97 0 0 -30.48 60.93 0 0 -30.45 30.49 0 0 -30.49 60.94 0 0 -30.48 91.42 0 0 -30.45 91.42 0 0 -30.49 243.77 0 0 30.49 152.39 0 0 30.45 91.42 0 0 30.48 91.42 0 0 30.49 30.45 0 0 30.45 91.42 0 0 30.48 60.98 0 0 30.49 60.93 0 0 30.45 60.94 0 0 30.49 91.42 0 0 30.48 60.97 0 0 30.45 121.87 0 0 30.49 457.1 0 0 -30.49 91.42 0 0 -30.45 91.42 0 0 -30.48 91.42 0 0 -30.49 60.97 0 0 -30.45 60.94 0 0 -30.49 60.93 0 0 -30.48 91.42 0 0 -30.45 60.97 0 0 -30.49 60.94 0 0 -30.48 60.93 0 0 -30.45 60.97 0 0 -30.49 91.42 0 0 -30.48 60.94 0 0 -30.45 304.75 0 0 30.45z"/>
  <path id="outline" class="fil2" d="M5388.09 4379.81l-30.45 0 0 30.48 -60.97 0 0 30.48 -60.91 0 0 30.46 -60.94 0 0 30.48 -91.43 0 0 30.51 -60.97 0 0 30.43 -91.41 0 0 30.48 -91.44 0 0 30.49 -91.41 0 0 30.46 -91.42 0 0 30.47 -91.41 0 0 30.5 -121.89 0 0 30.43 -121.9 0 0 30.49 -91.43 0 0 30.47 -182.83 0 0 30.47 -91.44 0 0 30.47 -121.9 0 0 30.49 -213.27 0 0 30.44 -121.92 0 0 30.5 -76.59 0c-44.64,93.53 1.37,51.36 -9.26,159.24 -22.97,233.09 4.34,270.21 -102.9,444.72 -66.52,108.24 -45.01,104.12 -151.75,131.85 -27.66,116.98 -43.09,100.65 30.54,202.67 -15.77,43.68 -38.43,45.99 -49.32,91.92l63.19 84.45c-23.78,39.55 -65.29,62.99 -86.23,100.4 -24.8,44.31 -9.46,94.34 -19.77,141.07 -33.71,-2.42 -78.62,0.48 -110.67,5.58 -19.42,27.63 -24.84,56.34 -45.73,74.66 -23.65,20.74 -37.61,11.04 -59.7,49.05 -16.13,27.76 -20.76,73.12 -36.43,93.65 -22.7,29.73 -32.17,4.09 -67.82,23.97 8.71,106.28 118.13,128.07 -2.61,267.91 -116.09,134.45 -35.22,136.14 -30.45,269.41 -104.98,43.75 -142.77,-39.5 -207.22,185.85 -14.65,51.24 -31.66,140.48 -70.19,167.02 -56.79,39.11 -79.71,-3.08 -103.17,103.07 68.78,96.49 36.4,40.54 47.77,157.38 9.67,99.45 51.15,45.26 -19.59,168.07 -71.31,123.81 -92.77,117.01 -111.77,150.24 -36.94,64.61 -7.77,101.43 11.05,176.13 -26.69,37.73 -60.56,48.75 -94.28,106.16l-24.7 42.16c26.43,-94.51 62.06,-92.68 102.58,-154.29 -12.7,-54.49 -50.64,-84.64 -19,-162.56 17.8,-43.86 73.27,-102.19 103.97,-154.24 69.51,-117.8 28.26,-74.77 16.72,-161.94 -11.99,-90.51 16.77,-73.29 -60.34,-146.3 68.04,-278.53 104.47,-37.83 169.96,-287.2 46.95,-178.76 25.18,-182.74 174.42,-247.51 -2.74,-50.67 -21.8,-82.25 -14.69,-150.12 8.72,-83.3 133.53,-114.42 82.35,-205.85 -18.58,-33.21 -16.77,-30.96 -27.62,-67.54 -15.67,-52.8 -29.08,-93.24 -39.42,-143.94l122.14 -26.35c18.44,-37.5 14.22,-64.11 37.78,-93.93 21.26,-26.9 43.3,-20.68 63.69,-49.88 58.55,-83.85 -8.64,-107.34 115.94,-111.27 14.52,-64.37 16.94,-57.54 46.69,-111.95 -30.23,-25.46 -43.79,-49.72 -69.52,-73.5l60.56 -89.62c-92.88,-131.5 -29.01,-44.18 -9.39,-211.5 5.68,-48.46 -3.04,-86.43 7.76,-130.98 83.88,-20.74 136.8,-31.54 167.51,-85.18 85.67,-149.67 13.67,-141.57 33.93,-216.86 26.11,-96.97 49.62,-21.46 18.51,-156.45 -14.13,-61.29 -19.1,-98.37 -16.56,-127.19l-441.24 0 0 30.45 -518.07 0 0 -30.45 -243.78 0 0 -30.48 -213.33 0 0 -30.5 -91.41 0 0 -30.44 -152.36 0 0 -30.49 -91.43 0 0 -30.47 -121.9 0 0 -30.47 -60.94 0 0 -30.47 -91.43 0 0 -30.49 -60.94 0 0 -30.43 -91.4 0 0 -30.5 -60.98 0 0 -30.47 -60.94 0 0 -30.46 -30.48 0 0 121.86 30.48 0 0 91.43 30.48 0 0 182.83 30.46 0 0 182.84 30.48 0 0 335.22 30.5 0 0 213.31 30.44 0 0 639.94 30.48 0 0 518.07 30.48 0 0 274.28 30.47 0 0 243.76 30.47 0 0 243.77 30.49 0 0 121.91 30.46 0 0 213.32 30.48 0 0 91.43 30.48 0 0 152.36 30.46 0 0 152.35 30.48 0 0 60.98 30.49 0 0 121.86 30.46 0 0 152.39 30.47 0 0 60.94 30.48 0 0 121.9 30.47 0 0 60.95 30.48 0 0 91.42 30.48 0 0 60.93 30.44 0 0 91.4 30.5 0 0 60.95 30.48 0 0 91.42 30.46 0 0 60.97 30.48 0 0 60.93 30.49 0 0 60.94 30.44 0 0 60.97 30.49 0 0 60.93 30.48 0 0 60.95 30.46 0 0 60.96 30.49 0 0 60.94 30.48 0 0 30.48 30.44 0 0 60.95 30.49 0 0 60.95 30.49 0 0 30.46 30.44 0 0 60.95 30.5 0 0 60.96 30.48 0 0 30.47 30.45 0 0 60.96 30.48 0 0 30.43 30.49 0 0 60.99 30.45 0 0 30.44 30.49 0 0 30.48 30.47 0 0 60.94 30.45 0 0 30.51 30.49 0 0 60.9 30.48 0 0 30.49 30.44 0 0 30.49 30.5 0 0 30.43 30.48 0 0 60.98 30.46 0 0 30.46 30.48 0 0 30.48 30.48 0 0 60.93 30.45 0 0 30.5 30.5 0 0 30.47 30.47 0 0 60.95 30.46 0 0 30.48 30.49 0 0 30.44 30.48 0 0 30.5 30.44 0 0 30.48 30.49 0 0 60.93 60.94 0 0 60.93 60.97 0 0 30.5 30.44 0 0 30.48 30.5 0 0 30.45 30.49 0 0 30.49 30.44 0 0 30.49 60.98 0 0 30.44 30.44 0 0 30.49 30.48 0 0 30.49 60.95 0 0 30.45 30.47 0 0 30.49 182.84 0 0 -30.49 60.95 0 0 -30.45 30.48 0 0 -60.98 30.49 0 0 -91.42 30.46 0 0 -335.19 -30.46 0 0 -121.92 -30.49 0 0 -152.35 -30.48 0 0 -91.42 -30.45 0 0 -91.39 -30.5 0 0 -91.45 -30.47 0 0 -91.4 -30.44 0 0 -91.43 -30.5 0 0 -91.41 -30.49 0 0 -91.44 -30.45 0 0 -60.93 -30.49 0 0 -91.43 -30.47 0 0 -121.9 -30.45 0 0 -91.43 -30.5 0 0 -91.41 -30.48 0 0 -91.43 -30.44 0 0 -121.9 -30.51 0 0 -121.86 -30.47 0 0 -60.99 -30.44 0 0 -152.34 -30.49 0 0 -91.42 -30.5 0 0 -182.84 -30.44 0 0 -182.85 -30.5 0 0 -304.71 -30.47 0 0 -670.42 30.47 0 0 -182.85 30.5 0 0 -121.9 30.44 0 0 -182.83 30.5 0 0 -91.43 30.49 0 0 -91.42 30.44 0 0 -60.94 30.47 0 0 -60.93 30.51 0 0 -60.97 30.44 0 0 -60.95 30.48 0 0 -30.48 30.5 0 0 -60.93 30.45 0 0 -30.49 30.47 0 0 -30.46 30.49 0 0 -30.47 30.45 0 0 -30.49 30.49 0 0 -30.45 60.94 0 0 -30.49 91.42 0 0 30.49 -30.45 0 0 30.45 -30.5 0 0 30.49 -30.47 0 0 30.47 -30.44 0 0 30.46 -30.5 0 0 30.49 -30.49 0 0 30.49 -30.45 0 0 60.92 -30.49 0 0 30.49 30.49 0 0 30.46 60.94 0 0 30.47 30.5 0 0 30.5 30.44 0 0 60.93 30.47 0 0 30.48 30.5 0 0 30.46 30.45 0 0 60.98 30.48 0 0 60.92 30.49 0 0 30.49 30.46 0 0 60.93 30.47 0 0 60.93 30.48 0 0 30.5 30.46 0 0 60.93 30.49 0 0 60.99 30.48 0 0 60.91 30.43 0 0 60.95 30.49 0 0 60.97 30.49 0 0 91.42 30.44 0 0 60.91 30.48 0 0 60.95 30.49 0 0 91.42 30.46 0 0 91.42 30.49 0 0 60.96 30.48 0 0 121.89 30.44 0 0 60.95 30.49 0 0 91.43 30.49 0 0 91.42 30.46 0 0 121.87 30.47 0 0 91.42 30.5 0 0 91.42 30.44 0 0 121.91 30.49 0 0 121.9 30.47 0 0 121.88 30.47 0 0 213.33 30.48 0 0 152.34 30.48 0 0 121.9 30.45 0 0 121.89 30.49 0 0 121.9 30.48 0 0 152.36 30.47 0 0 152.39 30.47 0 0 152.36 30.48 0 0 121.91 30.46 0 0 91.42 30.49 0 0 121.85 30.47 0 0 91.41 30.46 0 0 91.44 30.49 0 0 91.41 30.48 0 0 60.97 30.44 0 0 60.95 30.5 0 0 60.92 30.48 0 0 60.98 30.46 0 0 30.46 30.48 0 0 30.47 30.48 0 0 30.49 30.45 0 0 30.44 60.97 0 0 30.5 121.86 0 0 -30.5 60.99 0 0 -30.44 30.43 0 0 -60.96 30.48 0 0 -60.94 30.49 0 0 -121.91 30.45 0 0 -121.87 30.49 0 0 -152.41 30.47 0 0 -213.26 30.46 0 0 -243.8 30.49 0 0 -121.89 30.49 0 0 -213.33 30.45 0 0 -243.78 30.47 0 0 -121.91 30.49 0 0 -426.6 30.46 0 0 -1188.48 -30.46 0 0 -182.85 -30.49 0 0 -213.3 -30.47 0 0 -243.78 -30.45 0 0 -91.43 -30.49 0 0 -243.78 -30.49 0 0 -182.84 -30.46 0 0 -152.39 -30.47 0 0 -213.3 -30.49 0 0 -274.24 -30.45 0 0 -182.85 -30.49 0 0 -1036.12 30.49 0 0 -243.76 30.45 0 0 -243.81zm-1511.5 -3108.3c-7.04,21.97 9.32,19.84 -0.5,72.18 -27.67,147.46 -12.32,172.67 -90.5,278.05 -48.48,65.35 -34.52,63.92 -104.19,75.65 -24.18,73.12 -33.11,61.83 8.18,131.04 -12.51,27.01 -27.09,27.2 -36.62,55.91l35.62 57.42c-17.38,23.9 -45.17,36.54 -60.64,59.25 -18.29,26.88 -11.29,59.66 -20.48,88.91 -21.37,-3.42 -50.19,-4.09 -70.93,-2.62 -13.93,16.54 -19,34.57 -33.35,45.1 -16.26,11.91 -24.61,4.93 -40.83,27.95 -11.86,16.82 -17.34,45.5 -28.49,57.73 -16.13,17.71 -20.74,0.81 -44.61,11.51 -0.38,68.31 68.24,88.32 -16.62,170.81 -81.59,79.32 -30.07,84.91 -34.48,170.23 -69.42,22.04 -88.88,-33.19 -142.6,107.02 -12.21,31.88 -28.05,87.87 -54.12,102.66 -38.41,21.78 -50.68,-6.41 -71.57,60.01 38.48,65.41 20.95,27.9 21.68,103.09 0.62,64 30.13,31.74 -21.88,106.17 -52.42,75.02 -65.74,69.48 -79.72,89.62 -27.16,39.17 -10.61,64.28 -2.77,113.01 -19.14,22.59 -41.37,27.72 -66.1,62.48l-18.11 25.52c22.16,-58.83 44.77,-55.67 74.08,-92.72 -5.06,-35.48 -27.6,-56.85 -3.05,-104.8 13.81,-27 52.46,-61.12 74.96,-92.62 50.93,-71.29 22.2,-46.13 19.7,-102.4 -2.6,-58.43 14.79,-45.83 -30.33,-96.73 58.97,-173.94 68.77,-18.3 124.49,-173.78 39.94,-111.45 26.26,-115.2 125.11,-148.2 1.09,-32.49 -9.32,-53.71 -0.98,-96.62 10.21,-52.67 91.6,-65.57 64.03,-126.75 -10,-22.24 -8.97,-20.7 -13.84,-44.65 -7.06,-34.56 -13.35,-61.12 -17.12,-94.06l79.4 -9.98c13.85,-22.9 12.66,-40.12 29.36,-57.83 15.06,-15.99 28.79,-10.78 43.42,-28.28 42.05,-50.24 0.48,-68.98 80.2,-64.54 12.87,-40.26 14.03,-35.77 36.04,-68.82 -17.86,-17.93 -25.17,-34.17 -40.26,-50.77l43.64 -53.82c-51.91,-89.1 -16.03,-29.81 5.82,-135.49 6.34,-30.61 2.89,-55.32 12.27,-83.14 54.69,-8.56 89.07,-12.5 111.64,-45 63.04,-90.74 16.64,-89.57 33.76,-136.5 22.08,-60.43 32.86,-10.92 20.55,-98.8 -1.12,-8.03 -2.07,-15.4 -2.83,-22.22l0 20.79 -30.49 0 0 30.45 -91.42 0 0 30.48 -60.93 0 0 30.49 -60.94 0 0 30.45 -60.97 0 0 30.48 -60.93 0 0 30.49 -91.42 0 0 30.45 -60.94 0 0 30.48 -91.42 0 0 30.49 -213.33 0 0 -30.49 -121.9 0 0 -30.48 -91.42 0 0 -30.45 -60.94 0 0 -30.49 -60.93 0 0 -30.48 -60.97 0 0 -30.45 -91.42 0 0 -30.49 -60.94 0 0 -30.48 -60.93 0 0 -30.45 -60.98 0 0 -30.49 -60.93 0 0 -30.48 -60.94 0 0 -30.45 -91.42 0 0 -30.49 -60.97 0 0 -30.48 -91.42 0 0 -30.45 -121.87 0 0 -30.49 -182.84 0 0 30.49 -121.9 0 0 30.45 -60.94 0 0 30.48 -60.97 0 0 30.49 -30.45 0 0 30.45 -60.97 0 0 30.48 -30.45 0 0 30.49 -30.49 0 0 30.45 -30.48 0 0 30.48 -30.45 0 0 30.49 -60.97 0 0 30.45 -30.45 0 0 30.48 -30.49 0 0 30.49 -30.48 0 0 30.45 -30.45 0 0 30.48 -30.49 0 0 30.49 -30.48 0 0 30.45 -60.94 0 0 30.48 -30.48 0 0 30.49 -30.45 0 0 30.45 -91.42 0 0 -60.94 30.45 0 0 -30.48 30.48 0 0 -30.45 30.49 0 0 -30.49 30.45 0 0 -30.48 30.48 0 0 -30.45 30.49 0 0 -30.49 30.45 0 0 -30.48 30.48 0 0 -30.45 30.49 0 0 -30.49 30.45 0 0 -30.48 30.48 0 0 -30.45 30.49 0 0 -30.49 30.45 0 0 -30.48 30.48 0 0 -30.45 30.49 0 0 -30.49 30.45 0 0 -30.48 60.97 0 0 -30.45 60.94 0 0 -30.49 30.48 0 0 -30.45 60.94 0 0 -30.48 60.93 0 0 -30.49 91.42 0 0 -30.45 274.26 0 0 30.45 152.39 0 0 30.49 91.42 0 0 30.48 60.94 0 0 30.45 91.42 0 0 30.49 60.93 0 0 30.45 60.98 0 0 30.48 60.93 0 0 30.49 60.94 0 0 30.45 60.97 0 0 30.48 60.93 0 0 30.49 91.42 0 0 30.45 60.94 0 0 30.48 91.42 0 0 30.49 91.42 0 0 30.45 243.81 0 0 -30.45 30.45 0 0 -30.49 30.48 0 0 -30.48 30.49 0 0 -30.45 30.45 0 0 -60.97 30.49 0 0 -30.45 30.48 0 0 -30.49 30.45 0 0 -60.93 30.49 0 0 -30.49 30.48 0 0 -60.93 30.45 0 0 -30.49 30.49 0 0 -60.93 30.48 0 0 -30.49 30.45 0 0 -60.93 30.49 0 0 -30.49 30.48 0 0 -60.93 30.45 0 0 -30.49 30.49 0 0 -30.45 91.42 0 0 60.94 -30.49 0 0 30.48 -30.45 0 0 60.94 -30.48 0 0 30.48 -30.49 0 0 60.94 -30.45 0 0 30.48 -30.48 0 0 60.94 -30.49 0 0 60.93 -30.45 0 0 30.49 -30.48 0 0 60.93 -30.49 0 0 30.49 -30.45 0 0 60.93 -30.48 0 0 30.49 -30.49 0 0 30.45 60.97 0 0 -30.45 60.94 0 0 -30.49 60.93 0 0 -30.48 60.97 0 0 -30.45 60.94 0 0 -30.49 60.93 0 0 -30.48 60.97 0 0 -30.45 60.94 0 0 -30.49 60.93 0 0 -30.45 60.97 0 0 -30.48 91.42 0 0 -30.49 60.94 0 0 -30.45 365.68 0 0 30.45 60.94 0 0 30.49 30.48 0 0 30.48 60.94 0 0 30.45 30.48 0 0 30.49 30.49 0 0 30.45 30.45 0 0 30.48 -121.87 0 0 -30.48 -60.97 0 0 -30.45 -60.94 0 0 -30.49 -304.75 0 0 30.49 -91.42 0 0 30.45 -60.93 0 0 30.48 -60.94 0 0 30.49 -60.97 0 0 30.45 -48.78 0zm-3638.49 1615.13l30.46 0 0 182.84 30.48 0 0 121.84 30.49 0 0 91.43 30.44 0 0 60.96 30.49 0 0 91.43 30.49 0 0 91.42 30.46 0 0 60.94 30.47 0 0 60.94 30.49 0 0 91.42 30.45 0 0 60.97 30.49 0 0 91.42 30.48 0 0 60.93 30.46 0 0 60.94 30.47 0 0 91.42 30.5 0 0 60.98 30.44 0 0 60.92 30.49 0 0 91.42 30.49 0 0 60.95 30.46 0 0 60.96 60.96 0 0 30.46 60.91 0 0 30.48 60.94 0 0 30.51 60.98 0 0 30.43 60.92 0 0 30.48 60.95 0 0 30.49 91.42 0 0 30.46 60.96 0 0 30.47 121.89 0 0 30.5 91.42 0 0 30.43 91.4 0 0 30.49 121.92 0 0 30.47 152.36 0 0 30.47 243.81 0 0 30.47 914.21 0 0 -30.47 182.84 0 0 -30.47 304.71 0 0 -30.47 121.9 0 0 -30.49 152.34 0 0 -30.43 213.34 0 0 -30.5 30.48 0 0 -30.47 152.35 0 0 -30.46 121.9 0 0 -30.49 121.88 0 0 -30.48 91.44 0 0 -30.43 91.41 0 0 -30.51 91.42 0 0 -30.48 91.41 0 0 -30.46 91.44 0 0 -30.48 91.41 0 0 -30.48 60.97 0 0 -30.44 60.94 0 0 -30.51 60.92 0 0 -30.48 60.99 0 0 -30.44 60.91 0 0 -30.5 30.49 0 0 -30.48 60.94 0 0 -30.44 30.47 0 0 -60.98 30.46 0 0 -91.42 30.49 0 0 -121.87 30.49 0 0 -60.97 30.45 0 0 -91.42 30.47 0 0 -91.42 30.49 0 0 -91.43 30.46 0 0 -152.35 30.48 0 0 -60.95 30.49 0 0 -152.39 30.45 0 0 -152.32 30.48 0 0 -152.36 30.49 0 0 -639.97 -30.49 0 0 -182.84 -30.48 0 0 -121.91 -30.45 0 0 -121.9 -30.49 0 0 -121.85 -30.48 0 0 -60.97 -30.46 0 0 -91.42 -30.49 0 0 -60.95 -30.47 0 0 -60.94 -30.45 0 0 -60.96 -30.49 0 0 -30.45 -30.49 0 0 -60.97 -30.46 0 0 -30.46 -30.47 0 0 -60.97 -30.49 0 0 -30.43 -30.45 0 0 -30.5 -30.49 0 0 -30.45 -30.48 0 0 -30.5 -30.43 0 0 -30.46 -30.48 0 0 -30.46 -30.51 0 0 -30.48 -30.43 0 0 -30.5 -30.49 0 0 -30.44 -60.94 0 0 -30.48 -30.47 0 0 -30.48 -30.5 0 0 -30.47 -60.93 0 0 -30.47 -30.48 0 0 -30.49 -60.94 0 0 -30.46 -30.5 0 0 -30.48 -60.92 0 0 -30.47 -60.95 0 0 -30.47 -60.96 0 0 -30.48 -30.46 0 0 -30.49 -60.95 0 0 -30.45 -30.47 0 0 -30.48 -91.42 0 0 -30.48 -91.43 0 0 -30.47 -304.73 0 0 30.47 -60.95 0 0 30.48 -91.41 0 0 30.48 -60.98 0 0 30.45 -60.91 0 0 30.49 -60.95 0 0 30.48 -60.95 0 0 30.47 -91.43 0 0 30.47 -60.95 0 0 30.48 -60.91 0 0 30.46 -60.99 0 0 30.49 -91.41 0 0 30.47 -91.43 0 0 30.47 -91.42 0 0 30.48 -457.11 0 0 -30.48 -121.87 0 0 -30.47 -60.98 0 0 -30.47 -91.41 0 0 -30.49 -60.92 0 0 -30.46 -60.94 0 0 -30.48 -60.97 0 0 -30.47 -91.43 0 0 -30.47 -30.44 0 0 -30.48 -91.42 0 0 -30.49 -91.43 0 0 -30.45 -152.38 0 0 -30.48 -243.79 0 0 30.48 -91.42 0 0 30.45 -91.42 0 0 30.49 -60.94 0 0 30.48 -30.49 0 0 30.47 -60.94 0 0 30.47 -60.96 0 0 30.48 -30.44 0 0 30.46 -30.5 0 0 30.49 -30.48 0 0 30.47 -60.94 0 0 30.47 -30.48 0 0 30.48 -30.43 0 0 30.48 -30.5 0 0 30.44 -30.46 0 0 30.5 -30.46 0 0 30.48 -30.49 0 0 30.46 -30.49 0 0 60.96 -30.44 0 0 30.45 -30.5 0 0 30.5 -30.47 0 0 30.43 -30.46 0 0 60.97 -30.48 0 0 30.46 -30.49 0 0 60.97 -30.45 0 0 30.45 -30.49 0 0 60.96 -30.47 0 0 60.94 -30.46 0 0 60.95 -30.49 0 0 60.96 -30.49 0 0 60.94 -30.44 0 0 60.92 -30.49 0 0 91.42 -30.48 0 0 121.9 -30.46 0 0 182.85 -30.48 0 0 609.47 30.48 0 0 152.4zm4174.86 -2590.27l91.42 0 0 30.47 60.95 0 0 30.48 91.41 0 0 30.46 30.49 0 0 30.49 60.93 0 0 30.47 60.97 0 0 30.47 60.94 0 0 30.48 30.48 0 0 30.48 60.94 0 0 30.45 30.48 0 0 30.49 60.95 0 0 30.48 30.47 0 0 30.47 60.94 0 0 30.47 30.49 0 0 30.48 30.43 0 0 30.46 60.99 0 0 30.49 30.43 0 0 30.47 30.48 0 0 30.47 30.49 0 0 30.48 30.45 0 0 30.48 30.49 0 0 30.44 30.47 0 0 30.5 30.46 0 0 30.48 30.49 0 0 30.46 30.49 0 0 30.46 30.45 0 0 60.95 30.47 0 0 30.5 30.49 0 0 60.92 30.46 0 0 30.48 30.48 0 0 60.93 30.49 0 0 60.95 30.45 0 0 60.96 30.48 0 0 60.94 30.49 0 0 60.95 30.45 0 0 91.42 30.48 0 0 91.4 30.5 0 0 60.98 30.45 0 0 121.87 30.47 0 0 182.84 30.49 0 0 182.85 30.46 0 0 518.06 -30.46 0 0 152.37 -30.49 0 0 182.85 -30.47 0 0 121.9 -30.45 0 0 152.34 -30.5 0 0 91.43 -30.48 0 0 91.41 -30.45 0 0 121.9 -30.49 0 0 60.95 -30.48 0 0 121.9 -30.45 0 0 121.87 -30.49 0 0 91.42 -30.48 0 0 91.42 -30.46 0 0 152.41 -30.49 0 0 152.34 -30.47 0 0 182.84 -30.45 0 0 1249.4 30.45 0 0 274.25 30.47 0 0 182.85 30.49 0 0 274.26 30.46 0 0 152.4 30.48 0 0 182.85 30.49 0 0 213.27 30.45 0 0 182.85 30.48 0 0 182.84 30.49 0 0 274.26 30.45 0 0 304.75 30.48 0 0 700.88 -30.48 0 0 335.18 -30.45 0 0 243.82 -30.49 0 0 304.72 -30.48 0 0 152.38 -30.45 0 0 213.31 -30.49 0 0 182.82 -30.48 0 0 274.26 -30.46 0 0 121.91 -30.49 0 0 243.78 -30.47 0 0 121.91 -30.45 0 0 60.94 -30.49 0 0 60.96 -30.49 0 0 60.94 -30.46 0 0 30.48 -30.47 0 0 30.45 -30.49 0 0 30.49 -30.45 0 0 30.49 -30.49 0 0 30.44 -60.91 0 0 30.49 -243.82 0 0 -30.49 -60.93 0 0 -30.44 -60.94 0 0 -30.49 -30.48 0 0 -30.49 -30.5 0 0 -30.45 -30.44 0 0 -30.48 -30.48 0 0 -60.94 -30.49 0 0 -30.49 -30.46 0 0 -60.93 -30.47 0 0 -60.98 -30.49 0 0 -60.92 -30.46 0 0 -60.95 -30.48 0 0 -91.41 -30.47 0 0 -91.43 -30.47 0 0 -91.41 -30.48 0 0 -91.41 -30.49 0 0 -121.92 -30.45 0 0 -121.91 -30.48 0 0 -152.33 -30.48 0 0 -121.9 -30.47 0 0 -91.44 -30.47 0 0 -121.88 -30.49 0 0 -182.84 -30.44 0 0 -182.84 -30.5 0 0 -121.91 -30.47 0 0 -121.91 -30.46 0 0 -152.34 -30.49 0 0 -152.35 -30.49 0 0 -91.43 -30.44 0 0 -152.34 -30.48 0 0 -60.99 -30.49 0 0 -121.86 -30.46 0 0 -121.9 -30.49 0 0 -91.43 -30.48 0 0 -91.42 -30.44 0 0 -91.43 -30.49 0 0 -60.94 -30.49 0 0 -91.42 -30.43 0 0 -91.43 -30.48 0 0 -60.95 -30.49 0 0 -60.95 -30.46 0 0 -60.91 -30.48 0 0 -91.42 -30.47 0 0 -60.97 -30.46 0 0 -60.95 -30.49 0 0 -60.91 -30.48 0 0 -30.5 -30.45 0 0 -91.42 -30.5 0 0 -30.5 -30.47 0 0 -60.93 -30.44 0 0 -30.47 -30.5 0 0 -30.46 -30.49 0 0 -60.97 -30.45 0 0 -30.44 -30.49 0 0 -30.5 -60.92 0 0 91.42 -30.5 0 0 121.92 -30.48 0 0 91.42 -30.44 0 0 213.29 -30.51 0 0 121.9 -30.47 0 0 639.94 30.47 0 0 213.33 30.51 0 0 182.85 30.44 0 0 152.34 30.48 0 0 182.85 30.5 0 0 152.35 30.45 0 0 91.4 30.47 0 0 121.91 30.49 0 0 91.43 30.45 0 0 91.41 30.49 0 0 91.43 30.5 0 0 91.42 30.44 0 0 91.42 30.47 0 0 91.42 30.5 0 0 121.9 30.45 0 0 60.95 30.48 0 0 91.42 30.49 0 0 91.43 30.46 0 0 60.94 30.47 0 0 121.9 30.48 0 0 91.42 30.46 0 0 121.84 30.49 0 0 91.44 30.48 0 0 182.84 30.43 0 0 426.66 -30.43 0 0 91.42 -30.48 0 0 60.94 -30.49 0 0 30.48 -30.46 0 0 60.93 -60.95 0 0 30.5 -30.46 0 0 30.44 -91.42 0 0 30.47 -213.34 0 0 -30.47 -91.42 0 0 -30.44 -60.92 0 0 -30.5 -60.98 0 0 -30.49 -30.44 0 0 -30.44 -60.99 0 0 -30.48 -30.44 0 0 -30.49 -30.5 0 0 -30.45 -30.47 0 0 -30.49 -30.45 0 0 -30.49 -60.98 0 0 -60.93 -30.44 0 0 -30.49 -30.48 0 0 -30.45 -30.49 0 0 -30.48 -30.46 0 0 -30.5 -30.47 0 0 -30.44 -30.5 0 0 -30.49 -30.45 0 0 -30.47 -30.48 0 0 -30.46 -30.48 0 0 -30.48 -30.46 0 0 -60.94 -30.48 0 0 -30.48 -30.5 0 0 -30.49 -30.44 0 0 -30.46 -30.48 0 0 -30.47 -30.49 0 0 -60.94 -30.45 0 0 -30.49 -30.47 0 0 -30.48 -30.49 0 0 -60.94 -30.45 0 0 -30.5 -30.49 0 0 -60.92 -30.48 0 0 -30.49 -30.45 0 0 -30.43 -30.48 0 0 -60.98 -30.5 0 0 -30.44 -30.44 0 0 -30.5 -30.49 0 0 -60.92 -30.49 0 0 -30.48 -30.44 0 0 -60.94 -30.48 0 0 -60.96 -30.49 0 0 -30.47 -30.46 0 0 -60.96 -30.48 0 0 -60.95 -30.49 0 0 -30.46 -30.44 0 0 -60.95 -30.49 0 0 -60.95 -30.48 0 0 -60.95 -30.46 0 0 -60.95 -30.48 0 0 -60.94 -30.5 0 0 -60.96 -30.44 0 0 -60.94 -30.48 0 0 -60.95 -30.48 0 0 -91.41 -30.47 0 0 -60.97 -30.48 0 0 -91.42 -30.47 0 0 -60.95 -30.46 0 0 -121.9 -30.49 0 0 -60.92 -30.48 0 0 -60.93 -30.46 0 0 -91.42 -30.48 0 0 -121.91 -30.48 0 0 -91.43 -30.46 0 0 -91.42 -30.49 0 0 -121.86 -30.47 0 0 -121.9 -30.47 0 0 -121.92 -30.48 0 0 -121.87 -30.48 0 0 -182.85 -30.44 0 0 -182.84 -30.5 0 0 -213.3 -30.48 0 0 -152.35 -30.46 0 0 -335.25 -30.48 0 0 -304.72 -30.48 0 0 -548.51 -30.43 0 0 -457.12 -30.5 0 0 -396.16 -30.46 0 0 -152.36 -30.46 0 0 -213.32 -30.49 0 0 -121.9 -30.49 0 0 -91.43 -30.44 0 0 -121.86 -30.5 0 0 -60.97 -30.47 0 0 -121.88 -30.46 0 0 -60.96 -30.48 0 0 -60.95 -30.49 0 0 -91.42 -30.45 0 0 -60.92 -30.49 0 0 -60.98 -30.47 0 0 -60.95 -30.46 0 0 -91.41 -30.49 0 0 -60.93 -30.49 0 0 -60.97 -30.44 0 0 -91.42 -30.49 0 0 -60.93 -30.48 0 0 -60.94 -30.46 0 0 -91.43 -30.48 0 0 -91.42 -30.49 0 0 -91.43 -30.45 0 0 -91.39 -30.48 0 0 -91.42 -30.48 0 0 -121.9 -30.46 0 0 -182.85 -30.48 0 0 -182.85 -30.5 0 0 -426.63 30.5 0 0 -182.84 30.48 0 0 -182.83 30.46 0 0 -121.91 30.48 0 0 -91.41 30.48 0 0 -60.94 30.45 0 0 -91.41 30.49 0 0 -60.98 30.48 0 0 -60.93 30.46 0 0 -60.94 30.48 0 0 -30.5 30.49 0 0 -60.93 30.44 0 0 -60.97 30.49 0 0 -30.43 30.49 0 0 -30.5 30.46 0 0 -60.95 30.47 0 0 -30.46 30.49 0 0 -30.46 30.45 0 0 -30.48 30.49 0 0 -30.5 30.48 0 0 -60.92 30.46 0 0 -30.48 30.47 0 0 -30.47 30.5 0 0 -30.47 30.44 0 0 -30.49 30.49 0 0 -30.46 30.49 0 0 -30.48 60.92 0 0 -30.47 30.5 0 0 -30.47 30.43 0 0 -30.48 30.48 0 0 -30.49 60.94 0 0 -30.45 30.48 0 0 -30.48 30.5 0 0 -30.48 60.92 0 0 -30.47 60.95 0 0 -30.47 60.96 0 0 -30.49 91.42 0 0 -30.46 91.43 0 0 -30.48 335.2 0 0 30.48 182.85 0 0 30.46 91.41 0 0 30.49 60.93 0 0 30.47 91.43 0 0 30.47 60.97 0 0 30.48 60.94 0 0 30.48 60.92 0 0 30.45 91.41 0 0 30.49 60.98 0 0 30.48 91.42 0 0 30.47 152.37 0 0 30.47 243.76 0 0 -30.47 121.9 0 0 -30.47 91.43 0 0 -30.48 91.42 0 0 -30.49 60.94 0 0 -30.45 60.99 0 0 -30.48 60.91 0 0 -30.48 60.95 0 0 -30.47 60.97 0 0 -30.47 60.93 0 0 -30.49 60.94 0 0 -30.46 91.4 0 0 -30.48 60.98 0 0 -30.47 91.41 0 0 -30.45 426.63 0 0 30.45z"/>
 </g>
</svg>
