<?xml version="1.0" encoding="UTF-8"?>
<!DOCTYPE svg PUBLIC "-//W3C//DTD SVG 1.1//EN" "http://www.w3.org/Graphics/SVG/1.1/DTD/svg11.dtd">
<!-- Creator: CorelDRAW (Versión de evaluación) -->
<svg xmlns="http://www.w3.org/2000/svg" xml:space="preserve" width="739px" height="2458px" version="1.1" style="shape-rendering:geometricPrecision; text-rendering:geometricPrecision; image-rendering:optimizeQuality; fill-rule:evenodd; clip-rule:evenodd"
viewBox="0 0 739 2457.4"
 xmlns:xlink="http://www.w3.org/1999/xlink"
 xmlns:xodm="http://www.corel.com/coreldraw/odm/2003">
 <defs>
  <style type="text/css">
   <![CDATA[
    .str0 {stroke:#373435;stroke-width:5;stroke-miterlimit:22.9256}
    .fil0 {fill:#FEFEFE}
   ]]>
  </style>
 </defs>
 <g id="tooth-fissure-full-47">
  <metadata id="CorelCorpID_0Corel-Layer"/>
  <path id="root" class="fil0 str0" d="M261.7 2256.96c68.09,-100.71 4.03,-199.08 9.05,-482.12 1.94,-109.6 29.58,-370.01 93.41,-423.4 146.98,69.67 85.81,635.95 55.54,834.98 -13.59,89.34 -31.47,192.68 1.49,270.97 128.1,-17.22 227.44,-456.35 247.65,-629.94 28.1,-241.4 29.73,-463.59 28.13,-705.45 -0.54,-82.28 -10.11,-150.71 -5.92,-240.19 -154.19,-125.7 -175.41,51.48 -309.89,44.79 -137.07,-6.85 -146.91,-134.2 -329.8,-106.93 -74.49,222.88 23.52,897.82 84.31,1174.66 21.8,99.26 41.17,263.56 126.03,262.63zm48.58 -789.81c2.15,-8.3 4.39,-16.35 6.73,-24.11l-9.77 -3.33 -1.34 3.94 -7.89 -2.69 -1.35 3.94 -3.94 -1.34 -2.69 7.88 -3.94 -1.34 -1.35 3.94 -3.94 -1.34 -1.34 3.94 -3.94 -1.34 -1.35 3.94 -3.94 -1.35 -1.35 3.95 -3.94 -1.35 -1.34 3.94 -7.89 -2.69 -1.34 3.95 -3.95 -1.35 -1.34 3.95 -11.83 -4.04 -1.34 3.94 -7.89 -2.69 1.35 -3.94 -3.95 -1.34 -1.34 3.94 -3.94 -1.34 -2.69 7.88 -3.95 -1.34 -1.34 3.94 -3.94 -1.35 -1.35 3.95 -3.94 -1.35 -1.35 3.94 -3.94 -1.34 -1.34 3.94 -19.72 -6.72 1.35 -3.94 -7.89 -2.69 1.35 -3.95 -3.95 -1.34 1.35 -3.94 -3.94 -1.35 1.34 -3.94 -3.94 -1.34 2.69 -7.89 -3.95 -1.34 2.69 -7.89 -3.94 -1.34 1.35 -3.95 -3.95 -1.34 1.35 -3.94 -3.94 -1.35 2.69 -7.88 -3.95 -1.35 2.69 -7.88 -3.94 -1.35 1.34 -3.94 -7.88 -2.69 2.69 -7.89 -3.94 -1.34 1.34 -3.94 -3.94 -1.35 2.69 -7.88 -3.95 -1.35 4.04 -11.83 -3.95 -1.34 1.35 -3.94 -3.94 -1.35 1.34 -3.94 -7.88 -2.69 1.34 -3.94 -3.94 -1.35 1.34 -3.94 -3.94 -1.34 1.34 -3.95 4.04 -11.83 1.34 -3.94 3.95 1.35 1.34 -3.94 3.94 1.34 4.04 -11.83 3.94 1.35 4.03 -11.83 -7.88 -2.69 -1.35 3.94 -3.94 -1.34 1.34 -3.95 -15.77 -5.38 -1.34 3.95 -7.89 -2.69 -1.34 3.94 -7.89 -2.69 -1.34 3.95 -7.89 -2.69 -1.34 3.94 -31.54 -10.76 -1.35 3.94 3.95 1.35 -1.35 3.94 35.49 12.1 -1.35 3.95 11.83 4.03 -1.34 3.94 11.82 4.04 -2.69 7.88 -5.38 15.77 3.95 1.35 -1.35 3.94 3.95 1.34 -2.69 7.89 3.94 1.34 -2.69 7.89 3.94 1.34 -2.69 7.89 3.95 1.34 -2.69 7.89 3.94 1.34 -1.34 3.95 3.94 1.34 -1.35 3.94 3.95 1.35 -2.69 7.88 3.94 1.35 -1.35 3.94 3.95 1.35 -1.35 3.94 -3.94 -1.35 -1.34 3.95 -1.35 3.94 -3.94 -1.35 -1.35 3.95 -3.94 -1.35 -2.69 7.89 -3.94 -1.35 -1.35 3.95 -3.94 -1.35 -2.69 7.89 -3.94 -1.35 -2.69 7.89 -3.94 -1.35 -1.35 3.94 -7.88 -2.68 -1.35 3.94 -3.94 -1.35 -1.34 3.95 -3.95 -1.35 -1.34 3.95 -3.94 -1.35 -1.35 3.94 -3.94 -1.34 -1.35 3.94 -11.78 -4.02c0.51,4.58 1.03,9.16 1.55,13.73l6.2 2.12 7.89 2.69 1.34 -3.94 3.94 1.34 1.35 -3.94 11.83 4.03 1.34 -3.94 19.71 6.72 1.35 -3.94 3.94 1.34 11.83 4.04 2.69 -7.89 -3.95 -1.34 2.69 -7.89 -7.88 -2.69 -1.35 3.95 -3.94 -1.35 -2.69 7.89 -7.88 -2.69 2.69 -7.89 3.94 1.35 6.72 -19.72 3.94 1.35 2.69 -7.89 3.95 1.35 2.69 -7.89 3.94 1.35 1.34 -3.95 3.95 1.35 1.34 -3.94 3.94 1.34 -2.69 7.89 3.95 1.34 -1.35 3.94 3.95 1.35 -1.35 3.94 3.94 1.35 -1.34 3.94 3.94 1.34 -5.38 15.77 3.94 1.35 -1.34 3.94 -7.88 -2.69 -1.35 3.94 -7.88 -2.69 -4.04 11.83 23.66 8.07 1.34 -3.94 3.94 1.34 1.35 -3.94 7.88 2.69 -1.34 3.94 3.94 1.35 -1.34 3.94 3.94 1.34 -1.34 3.95 3.94 1.34 7.88 2.69 11.83 4.03 2.69 -7.88 3.94 1.34 1.35 -3.94 3.94 1.35 2.69 -7.89 -3.94 -1.35 2.69 -7.88 3.94 1.34 1.34 -3.94 3.95 1.35 1.34 -3.95 7.89 2.69 1.34 -3.94 19.72 6.72 1.34 -3.94 3.94 1.35 15.77 5.37 -1.34 3.95 7.88 2.68 2.69 -7.88 -3.94 -1.34 1.35 -3.95 3.94 1.35 1.34 -3.95 3.94 1.35 1.35 -3.94 7.89 2.69 1.34 -3.95 3.94 1.35 1.35 -3.94 7.88 2.68 1.35 -3.94 3.22 1.1zm138.59 73.47c2.66,20.37 4.69,41.77 6.19,63.93l2.52 0.86 -1.34 3.95 7.89 2.69 -1.35 3.94 3.94 1.34 -1.34 3.95 3.94 1.34 -1.34 3.94 3.94 1.35 -1.35 3.94 3.95 1.34 -1.35 3.95 -11.82 -4.04 1.34 -3.94 -6.3 -2.15c0.15,2.97 0.28,5.96 0.42,8.95l7.13 2.43 -1.34 3.94 11.83 4.04 7.88 2.69 -1.34 3.94 3.94 1.34 -1.34 3.95 3.94 1.34 -1.35 3.94 7.89 2.69 2.69 -7.88 -3.95 -1.35 1.35 -3.94 -3.94 -1.34 1.34 -3.95 -3.94 -1.34 2.69 -7.89 -3.94 -1.34 1.34 -3.94 -3.94 -1.35 1.34 -3.94 -3.94 -1.35 2.69 -7.88 -3.94 -1.35 1.34 -3.94 -3.94 -1.34 2.69 -7.89 -3.95 -1.34 1.35 -3.95 -3.94 -1.34 1.34 -3.94 3.94 1.34 1.35 -3.94 11.83 4.03 1.34 -3.94 -15.77 -5.38 1.34 -3.94 -3.94 -1.35 1.35 -3.94 3.94 1.35 1.34 -3.95 3.95 1.35 1.34 -3.95 11.83 4.04 1.34 -3.94 11.83 4.03 1.35 -3.94 3.94 1.34 1.34 -3.94 -11.82 -4.03 2.69 -7.89 -7.89 -2.69 4.03 -11.83 3.95 1.35 -1.35 3.94 11.83 4.04 -1.34 3.94 27.59 9.41 1.35 -3.94 7.88 2.69 -1.34 3.94 3.94 1.34 -1.34 3.95 3.94 1.34 -1.34 3.94 7.88 2.69 -2.69 7.89 3.94 1.34 -2.69 7.89 3.95 1.34 -6.72 19.72 7.88 2.69 4.03 -11.83 -3.94 -1.35 4.04 -11.83 -3.95 -1.34 1.35 -3.94 -3.95 -1.35 2.69 -7.88 -3.94 -1.35 2.69 -7.88 -3.94 -1.35 4.03 -11.83 3.94 1.35 1.35 -3.94 3.94 1.34 2.69 -7.88 -3.94 -1.35 -1.35 3.94 -3.94 -1.34 -2.69 7.88 -11.83 -4.03 1.35 -3.94 -3.94 -1.35 -1.35 3.95 -7.88 -2.69 -1.35 3.94 -19.71 -6.72 1.34 -3.95 -7.88 -2.69 1.34 -3.94 -3.94 -1.34 1.34 -3.95 -3.94 -1.34 1.35 -3.94 -7.89 -2.69 1.34 -3.94 -7.88 -2.69 1.34 -3.95 -7.88 -2.69 1.34 -3.94 -3.94 -1.34 13.45 -39.43 3.94 1.34 2.69 -7.88 3.94 1.34 1.35 -3.94 3.94 1.35 6.72 -19.72 3.94 1.35 4.04 -11.83 3.94 1.34 2.69 -7.88 11.83 4.03 -1.35 3.94 3.95 1.35 -1.35 3.94 15.77 5.38 -1.34 3.94 3.94 1.35 -1.34 3.94 3.94 1.35 2.69 -7.89 -3.94 -1.34 1.34 -3.95 -11.83 -4.03 1.35 -3.94 -7.89 -2.69 1.34 -3.95 -7.88 -2.69 1.35 -3.94 -3.95 -1.34 2.69 -7.89 -3.94 -1.34 1.34 -3.94 -3.94 -1.35 4.03 -11.83 3.95 1.35 2.69 -7.89 3.94 1.35 4.03 -11.83 3.95 1.34 2.69 -7.88 3.94 1.34 1.34 -3.94 3.94 1.34 1.35 -3.94 2.69 -7.88 3.94 1.34 5.38 -15.77 -3.94 -1.34 1.34 -3.95 -7.88 -2.69 2.69 -7.88 -3.95 -1.35 1.35 -3.94 -7.89 -2.69 1.35 -3.94 3.94 1.34 5.38 -15.77 3.94 1.35 4.04 -11.83 11.82 4.03 1.35 -3.94 7.88 2.69 1.35 -3.94 1.34 -3.95 3.94 1.35 5.38 -15.77 3.95 1.34 2.68 -7.88 3.95 1.34 2.69 -7.88 3.94 1.34 1.34 -3.94 3.95 1.34 1.34 -3.94 3.94 1.35 1.35 -3.95 7.88 2.69 -1.34 3.95 3.94 1.34 -2.69 7.89 7.89 2.68 2.69 -7.88 -3.95 -1.35 2.69 -7.88 -3.94 -1.35 2.69 -7.88 -3.94 -1.35 9.41 -27.59 -3.94 -1.35 1.34 -3.94 -7.88 -2.69 1.34 -3.94 -3.94 -1.35 2.69 -7.88 -3.94 -1.35 1.34 -3.94 -3.94 -1.35 1.34 -3.94 -3.94 -1.34 1.34 -3.95 -3.94 -1.34 2.69 -7.89 -3.94 -1.34 2.69 -7.89 -3.95 -1.34 1.35 -3.94 -7.89 -2.69 1.35 -3.94 -3.94 -1.35 5.37 -15.77 -3.94 -1.34 17.48 -51.26 -3.94 -1.34 5.38 -15.78 -3.95 -1.34 4.04 -11.83 -3.94 -1.34 4.03 -11.83 3.94 1.34 2.69 -7.88 -3.94 -1.35 1.35 -3.94 -3.95 -1.34 2.69 -7.89 -3.94 -1.34 1.34 -3.95 -3.94 -1.34 2.69 -7.89 3.94 1.35 4.04 -11.83 3.94 1.35 2.69 -7.89 3.94 1.35 9.58 -28.1c-0.1,-5.64 -0.17,-11.35 -0.19,-17.12l-10.37 -3.53 1.35 -3.95 -7.89 -2.69 1.34 -3.94 -7.88 -2.69 1.34 -3.94 -7.88 -2.69 1.34 -3.94 -23.65 -8.07 -1.35 3.94 3.94 1.35 -1.34 3.94 11.83 4.04 -1.35 3.94 7.89 2.69 -1.35 3.94 7.89 2.69 -1.35 3.94 3.95 1.35 -1.35 3.94 7.89 2.69 -1.35 3.94 3.95 1.35 -5.38 15.77 3.94 1.34 -1.34 3.94 -3.95 -1.34 -5.37 15.77 -3.95 -1.35 -4.03 11.83 -3.94 -1.34 -2.69 7.88 -3.95 -1.34 -4.03 11.83 7.89 2.69 -1.35 3.94 3.94 1.34 -10.75 31.55 3.94 1.34 -5.38 15.77 3.94 1.35 -2.69 7.88 -3.94 -1.35 -8.07 23.66 3.95 1.35 -9.42 27.59 3.95 1.35 -1.35 3.94 -3.94 -1.34 -2.69 7.88 -3.94 -1.34 -1.35 3.94 -11.83 -4.03 -1.34 3.94 -3.94 -1.35 1.34 -3.94 -7.88 -2.69 -1.35 3.95 3.94 1.34 -2.69 7.89 -3.94 -1.35 -1.34 3.94 -3.95 -1.34 -1.34 3.94 -3.94 -1.34 -1.35 3.94 -7.88 -2.69 -1.35 3.94 -7.88 -2.69 -1.35 3.95 -3.94 -1.35 -1.34 3.94 7.88 2.69 1.35 -3.94 11.82 4.04 1.35 -3.95 7.88 2.69 1.35 -3.94 3.94 1.34 1.35 -3.94 7.88 2.69 1.35 -3.94 7.88 2.69 1.35 -3.95 7.88 2.69 1.35 -3.94 7.88 2.69 1.35 -3.94 3.94 1.34 1.34 -3.94 7.89 2.69 -1.35 3.94 3.95 1.35 -1.35 3.94 3.94 1.34 -1.34 3.95 3.94 1.34 -1.34 3.94 3.94 1.35 -2.69 7.88 3.94 1.35 -2.69 7.88 3.95 1.35 -2.69 7.88 3.94 1.35 -1.34 3.94 3.94 1.34 -1.35 3.95 7.89 2.69 -1.35 3.94 3.95 1.35 -2.69 7.88 3.94 1.34 -2.69 7.89 -3.94 -1.34 -2.69 7.88 3.94 1.34 -1.34 3.95 -3.94 -1.35 -1.35 3.95 -3.94 -1.35 -2.69 7.89 -3.94 -1.35 -1.35 3.94 -3.94 -1.34 -1.35 3.94 -3.94 -1.34 -2.69 7.88 -3.94 -1.34 -2.69 7.88 -3.94 -1.34 -1.35 3.94 -1.34 3.94 -3.94 -1.34 -4.04 11.83 -7.88 -2.69 -1.35 3.94 -11.83 -4.03 -2.69 7.88 -3.94 -1.34 -4.03 11.83 -3.94 -1.35 -1.35 3.94 -3.94 -1.34 -2.69 7.89 -3.94 -1.35 -1.35 3.94 -11.83 -4.03 -1.34 3.94 -3.94 -1.34 -1.35 3.94 -7.88 -2.69 -1.35 3.94 7.89 2.69 1.34 -3.94 7.89 2.69 1.34 -3.94 19.72 6.72 -1.35 3.94 3.94 1.35 -1.34 3.94 3.94 1.34 -1.34 3.95 3.94 1.34 -1.35 3.94 3.95 1.35 -2.69 7.88 3.94 1.35 -1.34 3.94 -3.95 -1.34 -2.68 7.88 -3.95 -1.34 -2.69 7.88 -3.94 -1.34 -1.35 3.94 -3.94 -1.34 -2.69 7.88 -3.94 -1.34 -1.34 3.94 -3.95 -1.34 -5.37 15.77 -7.89 -2.69 -1.35 3.94 -19.71 -6.72 1.35 -3.95 -15.77 -5.37 1.34 -3.95 -19.71 -6.72 -1.35 3.94 3.94 1.35 -1.34 3.94 3.94 1.34 -1.34 3.95 7.88 2.69 1.35 -3.95 3.94 1.35 -1.34 3.94 7.88 2.69 -1.34 3.94 3.94 1.35 -4.04 11.83 3.95 1.34 2.69 -7.89 3.94 1.35 1.35 -3.94 19.71 6.72 -1.35 3.94 3.95 1.35 -1.35 3.94 3.94 1.34 -1.34 3.95 -3.94 -1.35 -2.69 7.89 -3.94 -1.35 -4.04 11.83 -3.94 -1.34 -6.72 19.71 -3.95 -1.35 -4.03 11.83 -3.94 -1.34 -2.69 7.88 -3.95 -1.34 -2.69 7.88 -3.94 -1.34 -1.34 3.94 -3.95 -1.34 -16.13 47.31 -3.94 -1.34 -5.38 15.77 -3.94 -1.35 -1.29 3.76zm9.53 178.55c-0.02,4.69 -0.05,9.41 -0.1,14.12l3.66 1.25 2.69 -7.88 3.94 1.34 1.35 -3.94 3.94 1.34 1.34 -3.94 3.95 1.34 2.69 -7.88 3.94 1.35 1.34 -3.95 3.95 1.35 1.34 -3.95 3.94 1.35 1.35 -3.94 3.94 1.34 2.69 -7.88 3.94 1.34 1.35 -3.94 3.94 1.34 1.34 -3.94 3.95 1.34 1.34 -3.94 3.94 1.35 1.35 -3.95 -11.83 -4.03 -1.34 3.94 -7.89 -2.69 4.03 -11.83 -7.88 -2.69 -1.35 3.95 -3.94 -1.35 -1.34 3.95 3.94 1.34 -2.69 7.89 -3.94 -1.35 -1.35 3.94 -3.94 -1.34 -2.69 7.88 -3.94 -1.34 -1.35 3.94 -3.94 -1.34 -4.03 11.83 -3.95 -1.35 -2.68 7.89 -3.95 -1.35 -1.05 3.09zm226.41 -62.67c0.31,-4.3 0.61,-8.6 0.9,-12.9l-22.83 -7.78 -1.35 3.94 -3.94 -1.34 -1.35 3.94 -3.94 -1.35 -2.69 7.89 -3.94 -1.35 -1.34 3.95 -11.83 -4.04 1.34 -3.94 1.35 -3.94 -3.95 -1.35 8.07 -23.65 -3.94 -1.35 1.34 -3.94 1.35 -3.94 -7.89 -2.69 1.35 -3.95 -3.94 -1.34 1.34 -3.94 -7.88 -2.69 1.34 -3.94 -7.89 -2.69 1.35 -3.95 -3.94 -1.34 1.34 -3.94 -7.88 -2.69 1.34 -3.95 -3.94 -1.34 1.34 -3.94 -3.94 -1.35 1.34 -3.94 -3.94 -1.35 1.35 -3.94 -3.95 -1.34 1.35 -3.95 -3.95 -1.34 -2.68 7.88 3.94 1.35 -1.35 3.94 3.95 1.35 -1.35 3.94 3.95 1.34 -1.35 3.95 3.94 1.34 -1.34 3.94 3.94 1.35 -1.34 3.94 3.94 1.35 -1.35 3.94 7.89 2.69 -1.34 3.94 3.94 1.35 -1.35 3.94 7.89 2.69 -1.35 3.94 3.95 1.35 -1.35 3.94 3.94 1.34 -1.34 3.94 3.94 1.35 -8.07 23.65 3.95 1.35 -5.38 15.77 -3.94 -1.34 -1.35 3.94 -3.94 -1.35 -1.35 3.95 -3.94 -1.35 -2.69 7.89 -3.94 -1.35 -1.35 3.95 -3.94 -1.35 -1.34 3.94 -7.89 -2.68 -1.34 3.94 -3.94 -1.35 -1.35 3.94 -7.89 -2.68 -1.34 3.94 -3.94 -1.35 -1.35 3.95 -7.88 -2.69 -1.35 3.94 -3.94 -1.35 -1.34 3.95 19.71 6.72 1.34 -3.94 7.89 2.69 1.34 -3.94 11.83 4.03 1.35 -3.94 3.94 1.34 1.34 -3.94 3.95 1.34 1.34 -3.94 3.94 1.34 1.35 -3.94 7.88 2.69 1.35 -3.94 3.94 1.34 2.69 -7.88 3.94 1.34 1.35 -3.94 3.94 1.34 2.69 -7.88 3.94 1.34 1.35 -3.94 3.94 1.35 1.34 -3.95 3.95 1.35 2.69 -7.89 7.88 2.69 1.35 -3.94 22.02 7.51zm12.58 -418.23l0 -0.48 -0.14 0.43 0.14 0.05zm-649.13 201.14l1 9.14 3.66 1.25 2.69 -7.88 3.95 1.34 4.03 -11.83 3.94 1.35 1.35 -3.94 3.94 1.34 8.07 -23.66 3.94 1.35 1.34 -3.94 -3.94 -1.35 -1.34 3.94 -3.94 -1.34 -1.35 3.94 -3.94 -1.34 -2.69 7.88 -3.94 -1.34 -2.69 7.88 -3.95 -1.34 -6.72 19.71 -3.41 -1.16zm27.59 216.27c0.91,6.21 1.82,12.38 2.73,18.53l3.08 1.05 -1.34 3.95 3.94 1.34 -3.29 9.65c1.36,8.98 2.72,17.88 4.09,26.71l2.96 -8.67 3.94 1.35 4.04 -11.83 3.94 1.34 2.69 -7.88 3.94 1.34 1.35 -3.94 3.94 1.34 1.34 -3.94 7.89 2.69 1.34 -3.94 7.89 2.69 -2.69 7.88 3.94 1.35 -10.75 31.54 3.94 1.34 -8.07 23.66 -3.94 -1.35 -2.69 7.89 -3.94 -1.34 -1.35 3.94 -7.88 -2.69 -1.35 3.94 -3.22 -1.1c0.77,4.7 1.54,9.35 2.3,13.99l0.83 0.28 1.34 -3.94 7.89 2.69 1.34 -3.94 7.89 2.69 1.34 -3.95 3.95 1.35 1.34 -3.94 7.89 2.69 -1.35 3.94 3.95 1.34 -1.35 3.95 3.94 1.34 -1.34 3.94 3.94 1.35 -2.69 7.88 3.95 1.35 -2.69 7.88 3.94 1.35 -2.69 7.88 3.94 1.35 -1.34 3.94 3.94 1.34 -1.34 3.95 3.94 1.34 -4.04 11.83 3.95 1.34 -5.38 15.77 -3.94 -1.34 -4.04 11.83 3.94 1.34 -2.68 7.89 3.94 1.34 -5.38 15.77 3.94 1.35 -4.03 11.83 3.94 1.34 -6.72 19.71 3.94 1.35 -5.38 15.77 -2.8 -0.96c3.84,19.16 7.6,37.11 11.23,53.61 1.87,8.55 3.73,17.59 5.62,26.96l2.52 0.86 -1.48 4.33c1.59,7.96 3.21,16.14 4.87,24.44l0.37 -1.08 7.89 2.69 1.34 -3.94 7.88 2.69 -1.34 3.94 3.94 1.34 1.35 -3.94 3.94 1.35 -1.34 3.94 11.82 4.03 -1.34 3.94 7.89 2.69 1.34 -3.94 11.83 4.04 -1.35 3.94 11.83 4.03 1.35 -3.94 -3.95 -1.34 1.35 -3.95 -7.89 -2.69 2.69 -7.88 -47.31 -16.14 1.34 -3.94 7.89 2.69 2.69 -7.89 -7.89 -2.69 1.35 -3.94 -3.94 -1.34 1.34 -3.95 -3.94 -1.34 1.34 -3.94 -11.83 -4.04 -3.94 -1.34 2.69 -7.89 -3.94 -1.34 1.34 -3.94 -3.94 -1.35 2.69 -7.88 -3.94 -1.35 2.69 -7.88 -3.95 -1.35 2.69 -7.88 -3.94 -1.35 2.69 -7.88 -3.94 -1.35 12.1 -35.48 -3.94 -1.35 6.72 -19.71 -3.94 -1.35 5.37 -15.77 -3.94 -1.34 2.69 -7.89 11.83 4.04 -1.35 3.94 7.89 2.69 -4.03 11.83 3.94 1.34 -1.35 3.95 3.95 1.34 -4.04 11.83 3.94 1.34 -1.34 3.95 3.94 1.34 -1.34 3.94 3.94 1.35 -1.34 3.94 3.94 1.34 2.69 -7.88 -3.94 -1.35 1.34 -3.94 -3.94 -1.34 2.69 -7.89 -3.95 -1.34 2.69 -7.89 -3.94 -1.34 2.69 -7.89 -3.94 -1.34 1.34 -3.95 3.94 1.35 4.04 -11.83 -7.89 -2.69 1.35 -3.94 -3.94 -1.35 2.68 -7.88 -3.94 -1.34 8.07 -23.66 7.89 2.69 -1.35 3.94 3.94 1.35 -1.34 3.94 3.94 1.34 -2.69 7.89 -3.94 -1.35 -1.35 3.95 7.89 2.68 8.07 -23.65 -3.95 -1.35 1.35 -3.94 -3.94 -1.34 2.69 -7.89 3.94 1.35 3.94 1.34 1.35 -3.94 7.88 2.69 1.35 -3.95 11.82 4.04 1.35 -3.94 3.94 1.34 4.03 -11.83 3.95 1.35 1.34 -3.94 3.94 1.34 2.69 -7.89 -3.94 -1.34 -1.34 3.94 -11.83 -4.03 -4.04 11.83 -7.88 -2.69 -1.34 3.94 -11.83 -4.03 1.34 -3.95 -3.94 -1.34 2.69 -7.89 -3.94 -1.34 2.68 -7.89 -3.94 -1.34 1.35 -3.94 -3.95 -1.35 1.35 -3.94 -3.94 -1.35 4.03 -11.82 -3.94 -1.35 2.69 -7.88 -3.95 -1.35 4.04 -11.83 -3.95 -1.34 1.35 -3.94 3.94 1.34 4.04 -11.83 3.94 1.35 1.34 -3.95 3.95 1.35 1.34 -3.94 3.94 1.34 1.35 -3.94 -3.94 -1.35 4.03 -11.82 -3.94 -1.35 2.69 -7.88 -3.95 -1.35 2.69 -7.88 -3.94 -1.35 2.69 -7.88 -3.94 -1.35 1.34 -3.94 -3.94 -1.35 1.34 -3.94 -3.94 -1.34 -1.34 3.94 -3.95 -1.34 -2.69 7.88 7.89 2.69 -1.35 3.94 3.95 1.35 -2.69 7.88 -3.94 -1.34 -1.35 3.94 -3.94 -1.34 1.34 -3.95 -3.94 -1.34 2.69 -7.89 -11.83 -4.03 -2.69 7.88 3.95 1.35 -1.35 3.94 3.94 1.35 -1.34 3.94 3.94 1.34 -1.34 3.95 3.94 1.34 -2.69 7.89 -3.94 -1.35 -1.35 3.94 -3.94 -1.34 -1.35 3.94 7.89 2.69 3.94 1.35 -4.03 11.83 3.94 1.34 -6.72 19.71 3.94 1.35 -5.38 15.77 3.94 1.34 -2.68 7.89 3.94 1.34 -4.03 11.83 3.94 1.34 -2.69 7.89 -3.94 -1.34 -1.35 3.94 -3.94 -1.35 -2.69 7.89 -3.94 -1.35 -1.35 3.95 -3.94 -1.35 -1.35 3.94 -7.88 -2.68 1.34 -3.95 -3.94 -1.34 1.35 -3.95 1.34 -3.94 -3.94 -1.34 1.34 -3.94 -3.94 -1.35 1.34 -3.94 -3.94 -1.35 1.35 -3.94 -3.95 -1.34 1.35 -3.95 -3.94 -1.34 1.34 -3.94 -3.94 -1.35 1.34 -3.94 -3.94 -1.35 1.34 -3.94 -3.94 -1.34 2.69 -7.89 -3.94 -1.34 2.69 -7.89 -3.95 -1.34 5.38 -15.77 -3.94 -1.35 1.35 -3.94 3.94 1.34 10.75 -31.54 3.95 1.35 2.69 -7.89 3.94 1.35 1.34 -3.95 7.89 2.69 1.34 -3.94 7.89 2.69 1.34 -3.94 -11.82 -4.04 -1.35 3.95 -11.83 -4.04 1.35 -3.94 3.94 1.34 1.34 -3.94 7.89 2.69 1.34 -3.94 3.95 1.34 1.34 -3.94 -7.88 -2.69 -1.35 3.94 -11.82 -4.03 1.34 -3.94 -3.94 -1.35 4.03 -11.83 -3.94 -1.34 2.69 -7.89 -3.95 -1.34 1.35 -3.94 -3.94 -1.35 1.34 -3.94 -3.94 -1.35 1.34 -3.94 -3.94 -1.34 1.34 -3.95 -3.94 -1.34 1.35 -3.94 -27.6 -9.42 -1.35 3.95 11.83 4.03 -1.34 3.94 7.88 2.69 -1.34 3.95 3.94 1.34 -1.34 3.94 3.94 1.35 -4.04 11.83 3.95 1.34 -2.69 7.89 3.94 1.34 -1.34 3.94 3.94 1.35 2.69 -7.89 3.94 1.35 -2.69 7.88 3.94 1.35 -2.69 7.88 -7.88 -2.69 -2.69 7.89 -7.89 -2.69 -1.34 3.94 -3.94 -1.34 -1.35 3.94 -3.94 -1.34 -1.35 3.94 -3.94 -1.35 -1.34 3.95 -3.94 -1.35 -3.95 -1.34 -7.88 -2.69 1.34 -3.95 -7.88 -2.68 1.34 -3.95 -11.19 -3.81zm559.93 -482.43l3.94 1.34 1.35 -3.94 -3.94 -1.35 -1.35 3.95zm-40.18 285.58l3.94 1.34 1.35 -3.94 -3.94 -1.34 -1.35 3.94zm18.23 -350.28l3.95 1.34 1.34 -3.94 -3.94 -1.35 -1.35 3.95zm-438.52 550.24l3.94 1.34 1.34 -3.94 -3.94 -1.35 -1.34 3.95zm69.1 -86.47l3.94 1.35 1.34 -3.95 -3.94 -1.34 -1.34 3.94zm338.66 -205.79l3.94 1.34 1.34 -3.94 -3.94 -1.34 -1.34 3.94zm-431.19 631.96l3.94 1.35 2.69 -7.88 -3.94 -1.35 -2.69 7.88zm467.27 -1086.19l7.88 2.69 1.35 -3.94 -7.89 -2.69 -1.34 3.94zm-449.79 1034.94l3.94 1.34 2.69 -7.88 -3.94 -1.34 -2.69 7.88zm3.6 -139.61l3.94 1.34 2.69 -7.88 7.89 2.69 1.34 -3.95 3.94 1.35 -4.03 11.83 -3.94 -1.35 -1.35 3.94 -3.94 -1.34 -1.34 3.94 -7.89 -2.69 2.69 -7.88zm326.83 -209.83l7.89 2.69 1.34 -3.94 -7.88 -2.69 -1.35 3.94zm-271.52 21.83l3.94 1.35 2.69 -7.89 -3.94 -1.34 -2.69 7.88zm-46.1 380.39l7.88 2.69 1.35 -3.94 -7.89 -2.69 -1.34 3.94zm357.85 -313.68l-3.95 -1.34 -1.34 3.94 7.88 2.69 2.69 -7.89 -3.94 -1.34 -1.34 3.94zm-362.34 391.37l3.94 1.35 -1.35 3.94 3.95 1.34 2.69 -7.88 -7.89 -2.69 -1.34 3.94zm403.5 -628.2l3.94 1.34 -1.35 3.94 3.95 1.35 2.69 -7.89 -7.89 -2.68 -1.34 3.94zm23.65 8.07l11.83 4.03 1.35 -3.94 -11.83 -4.04 -1.35 3.95zm-413.71 580.71l7.89 2.69 1.34 -3.95 -3.94 -1.34 1.34 -3.94 -3.94 -1.35 -2.69 7.89zm74.53 -489.53l3.94 1.34 1.34 -3.94 3.95 1.34 2.69 -7.88 -3.95 -1.35 -1.34 3.95 -3.94 -1.35 -2.69 7.89 -3.95 -1.35 -1.34 3.94 -3.94 -1.34 -1.35 3.94 7.89 2.69 -1.35 3.95 3.95 1.34 -2.69 7.88 -3.95 -1.34 -2.69 7.89 3.95 1.34 -6.73 19.71 7.89 2.69 6.72 -19.71 -3.94 -1.35 2.69 -7.88 3.94 1.34 2.69 -7.88 -3.94 -1.34 1.34 -3.95 -3.94 -1.34 1.35 -3.95 -3.95 -1.34 1.35 -3.94zm-85.99 432.8l7.88 2.69 2.69 -7.88 -7.88 -2.69 -2.69 7.88zm498.49 -648.62l3.94 1.34 -1.34 3.94 11.82 4.04 1.35 -3.95 -7.89 -2.68 1.35 -3.95 -7.89 -2.69 -1.34 3.95zm-56.2 126.07l19.71 6.72 1.35 -3.94 -19.72 -6.72 -1.34 3.94zm-4.99 -230.56l-3.95 -1.35 -2.68 7.88 -3.95 -1.34 -2.69 7.89 3.95 1.34 1.34 -3.94 3.94 1.34 2.69 -7.88 3.94 1.34 5.38 -15.77 -3.94 -1.34 -4.03 11.83zm-78.27 268.19l3.95 1.34 -1.35 3.94 7.89 2.69 4.03 -11.82 -3.94 -1.35 1.34 -3.94 -7.88 -2.69 -4.04 11.83zm86.95 -190.41l3.94 1.34 -1.34 3.94 3.94 1.35 -1.34 3.94 3.94 1.34 -1.35 3.95 3.95 1.34 2.69 -7.88 -3.95 -1.35 4.04 -11.83 -11.83 -4.03 -2.69 7.89zm-367.33 160.8l7.88 2.69 -2.68 7.89 -7.89 -2.69 2.69 -7.89zm332.76 -304.63l-3.95 -1.35 -1.34 3.95 3.94 1.34 -2.69 7.89 11.83 4.03 2.69 -7.89 3.94 1.35 1.35 -3.94 -3.94 -1.35 1.34 -3.94 -11.83 -4.03 -1.34 3.94zm-477.87 523.62l-7.88 -2.69 1.34 -3.94 3.95 1.34 1.34 -3.94 3.94 1.35 -2.69 7.88zm469.71 -486.79l3.94 1.34 -2.69 7.89 7.89 2.69 5.38 -15.77 -3.95 -1.35 2.69 -7.88 -3.94 -1.35 1.34 -3.94 -3.94 -1.35 -6.72 19.72zm-387.71 439.93l-3.94 -1.34 -8.07 23.66 3.94 1.34 -2.68 7.89 3.94 1.34 12.1 -35.48 -3.94 -1.35 -1.35 3.94zm-67.52 -331.11l-1.35 3.94 -3.94 -1.34 1.34 -3.95 3.95 1.35zm5.28 -2.6l-1.34 3.94 -3.94 -1.34 1.34 -3.95 3.94 1.35zm0 0l1.35 -3.94 3.94 1.34 -1.34 3.94 -3.95 -1.34zm1.39 370.18l3.95 1.34 -1.35 3.95 -3.94 -1.35 1.34 -3.94zm6.82 -32.89l-3.94 -1.34 2.68 -7.89 3.95 1.35 -2.69 7.88zm339.46 -130.7l3.94 1.35 -4.04 11.82 -3.94 -1.34 4.04 -11.83z"/>
  <path id="crown" class="fil0 str0" d="M122.8 243.17c136.83,-148.46 164.73,26.89 249.51,-34.95 95.66,-69.77 87.4,-166.72 224.78,-67.6 -52.21,9.41 -78.03,-32.36 -136,12.03 -32.07,24.56 -57.6,74.98 -90.44,92.4 -66.7,35.4 -78.9,-18.67 -126,-30.59 -64.33,-16.27 -73.94,21.09 -121.85,28.71zm-79.08 547.9c241.42,-25.13 200.74,98.54 337.22,103.77 90.82,3.47 84.96,-41.26 150.73,-75 83.17,-42.64 93.4,7.71 163.14,13.91 19.23,-111.39 41.49,-164.85 43.62,-298.5 2.64,-166.72 -28.81,-453.35 -146.77,-519.54 -80.18,-45.01 -121.2,16.9 -186.02,58.68 -157.67,101.63 -198.54,-144.5 -362.08,83.78 -71.27,99.48 -44.49,511.94 0.16,632.9zm551.9 -650.2c-0.76,0.12 -1.51,0.24 -2.26,0.34l-3.7 10.84 -3.94 -1.35 -2.69 7.88 -3.94 -1.34 -4.03 11.83 7.88 2.69 -1.34 3.94 3.94 1.35 -10.76 31.54 3.94 1.34 -5.37 15.77 3.94 1.35 -2.69 7.88 -3.94 -1.34 -8.07 23.65 3.94 1.35 -9.41 27.6 3.94 1.34 -1.34 3.94 -3.94 -1.34 -2.69 7.89 -3.95 -1.35 -1.34 3.94 -11.83 -4.03 -1.34 3.94 -3.95 -1.34 1.35 -3.95 -7.89 -2.69 -1.34 3.95 3.94 1.34 -2.69 7.89 -3.94 -1.35 -1.35 3.95 -3.94 -1.35 -1.34 3.94 -3.95 -1.34 -1.34 3.94 -7.89 -2.69 -1.34 3.95 -7.89 -2.69 -1.34 3.94 -3.94 -1.35 -1.35 3.95 7.89 2.69 1.34 -3.95 11.83 4.04 1.34 -3.95 7.89 2.69 1.34 -3.94 3.95 1.35 1.34 -3.95 7.89 2.69 1.34 -3.94 7.89 2.69 1.34 -3.94 7.89 2.69 1.34 -3.95 7.89 2.69 1.34 -3.94 3.94 1.34 1.35 -3.94 7.89 2.69 -1.35 3.94 3.94 1.35 -1.34 3.94 3.94 1.35 -1.34 3.94 3.94 1.34 -1.35 3.95 3.95 1.34 -2.69 7.88 3.94 1.35 -2.69 7.89 3.94 1.34 -2.69 7.89 3.95 1.34 -1.35 3.94 3.94 1.35 -1.34 3.94 7.89 2.69 -1.35 3.94 3.94 1.35 -2.69 7.88 3.95 1.35 -2.69 7.88 -3.94 -1.34 -2.69 7.88 3.94 1.35 -1.35 3.94 -3.94 -1.34 -1.34 3.94 -3.95 -1.35 -2.69 7.89 -3.94 -1.35 -1.34 3.95 -3.95 -1.35 -1.34 3.94 -3.94 -1.34 -2.69 7.88 -3.94 -1.34 -2.69 7.89 -3.95 -1.35 -1.34 3.94 -1.35 3.95 -3.94 -1.35 -4.03 11.83 -7.89 -2.69 -1.34 3.94 -11.83 -4.03 -2.69 7.89 -3.94 -1.35 -4.04 11.83 -3.94 -1.35 -1.34 3.95 -3.95 -1.35 -2.68 7.89 -3.95 -1.35 -1.34 3.95 -11.83 -4.04 -1.34 3.94 -3.95 -1.34 -1.34 3.94 -7.89 -2.69 -1.34 3.95 7.88 2.69 1.35 -3.95 7.88 2.69 1.35 -3.94 19.71 6.72 -1.34 3.94 3.94 1.35 -1.35 3.94 3.95 1.35 -1.35 3.94 3.95 1.34 -1.35 3.95 3.94 1.34 -2.69 7.89 3.95 1.34 -1.35 3.94 -3.94 -1.34 -2.69 7.88 -3.94 -1.34 -2.69 7.88 -3.94 -1.34 -1.35 3.94 -3.94 -1.34 -2.69 7.88 -3.94 -1.34 -1.35 3.94 -3.94 -1.34 -5.38 15.77 -7.89 -2.69 -1.34 3.94 -19.71 -6.72 1.34 -3.94 -15.77 -5.38 1.35 -3.95 -19.72 -6.72 -1.34 3.94 3.94 1.35 -1.34 3.94 3.94 1.35 -1.35 3.94 7.89 2.69 1.34 -3.94 3.95 1.34 -1.35 3.94 7.89 2.69 -1.35 3.94 3.94 1.35 -4.03 11.83 3.94 1.34 2.69 -7.88 3.95 1.34 1.34 -3.94 19.71 6.72 -1.34 3.94 3.94 1.35 -1.34 3.94 3.94 1.35 -1.35 3.94 -3.94 -1.35 -2.69 7.89 -3.94 -1.35 -4.03 11.83 -3.95 -1.34 -6.72 19.71 -3.94 -1.34 -4.04 11.83 -3.94 -1.35 -2.69 7.88 -3.94 -1.34 -2.69 7.89 -3.94 -1.35 -1.35 3.94 -3.94 -1.34 -16.14 47.31 -3.94 -1.34 -5.38 15.77 -3.94 -1.35 -2.69 7.89 -3.94 -1.35 -6.72 19.72 -3.95 -1.35 -5.37 15.77 -2.69 7.89 -11.83 -4.04 -1.35 3.95 7.89 2.69 -2.69 7.88 -3.94 -1.34 -4.04 11.83 3.95 1.34 1.34 -3.94 3.94 1.34 1.35 -3.94 7.88 2.69 -1.34 3.94 11.83 4.04 -1.35 3.94 -3.94 -1.35 -1.35 3.95 -7.88 -2.69 -1.35 3.94 -7.88 -2.69 -1.35 3.94 -7.88 -2.69 1.34 -3.94 -3.94 -1.34 -2.69 7.88 3.94 1.35 -2.68 7.88 -3.95 -1.34 -1.34 3.94 -3.95 -1.34 -1.34 3.94 -7.89 -2.69 -1.34 3.94 -3.94 -1.34 -2.69 7.88 -3.94 -1.34 -1.35 3.94 -3.94 -1.34 -1.35 3.94 -7.88 -2.69 -1.35 3.94 -27.59 -9.41 -1.35 3.94 -7.88 -2.69 -1.35 3.95 27.6 9.41 1.34 -3.95 15.77 5.38 1.35 -3.94 15.77 5.38 -1.35 3.94 3.95 1.35 -2.69 7.88 3.94 1.35 -5.38 15.77 3.95 1.34 -2.69 7.89 3.94 1.34 -1.35 3.94 3.95 1.35 1.34 -3.94 -3.94 -1.35 4.03 -11.83 -3.94 -1.34 5.38 -15.77 -3.94 -1.35 1.34 -3.94 -3.94 -1.34 1.34 -3.95 -3.94 -1.34 1.34 -3.94 -3.94 -1.35 2.69 -7.88 3.94 1.34 1.35 -3.94 7.88 2.69 1.35 -3.94 11.83 4.03 1.34 -3.94 -3.94 -1.35 2.69 -7.88 3.94 1.34 1.34 -3.94 3.95 1.34 1.34 -3.94 7.89 2.69 1.34 -3.94 7.89 2.69 1.34 -3.95 7.89 2.69 1.34 -3.94 3.94 1.34 -1.34 3.95 7.89 2.69 -1.35 3.94 11.83 4.03 -1.35 3.95 11.83 4.03 7.89 2.69 -1.35 3.94 3.95 1.35 -1.35 3.94 3.94 1.34 -1.34 3.95 7.88 2.68 2.69 -7.88 -3.94 -1.34 1.34 -3.95 -3.94 -1.34 1.35 -3.95 -3.94 -1.34 2.68 -7.88 -3.94 -1.35 1.35 -3.94 -3.95 -1.35 1.35 -3.94 -3.94 -1.34 2.69 -7.89 -3.95 -1.34 1.35 -3.95 -3.95 -1.34 2.69 -7.89 -3.94 -1.34 1.34 -3.94 -3.94 -1.35 1.35 -3.94 3.94 1.34 1.34 -3.94 11.83 4.04 1.35 -3.95 -15.77 -5.38 1.34 -3.94 -3.94 -1.34 1.34 -3.95 3.94 1.35 1.35 -3.94 3.94 1.34 1.35 -3.94 11.83 4.03 1.34 -3.94 11.83 4.03 1.34 -3.94 3.95 1.34 1.34 -3.94 -11.83 -4.03 2.69 -7.89 -7.88 -2.69 4.03 -11.82 3.94 1.34 -1.34 3.94 11.83 4.04 -1.35 3.94 27.6 9.41 1.34 -3.94 7.89 2.69 -1.34 3.94 3.94 1.35 -1.35 3.94 3.95 1.34 -1.35 3.95 7.89 2.69 -2.69 7.88 3.94 1.34 -2.69 7.89 3.94 1.35 -6.72 19.71 7.89 2.69 4.03 -11.83 -3.94 -1.34 4.03 -11.83 -3.94 -1.35 1.34 -3.94 -3.94 -1.35 2.69 -7.88 -3.94 -1.34 2.69 -7.89 -3.95 -1.35 4.04 -11.82 3.94 1.34 1.35 -3.94 3.94 1.34 2.69 -7.88 -3.95 -1.35 -1.34 3.95 -3.94 -1.35 -2.69 7.89 -11.83 -4.04 1.34 -3.94 -3.94 -1.34 -1.34 3.94 -7.89 -2.69 -1.34 3.94 -19.72 -6.72 1.35 -3.94 -7.89 -2.69 1.35 -3.95 -3.95 -1.34 1.35 -3.94 -3.94 -1.35 1.34 -3.94 -7.88 -2.69 1.34 -3.94 -7.89 -2.69 1.35 -3.95 -7.89 -2.68 1.35 -3.95 -3.94 -1.34 13.44 -39.43 3.95 1.35 2.68 -7.89 3.95 1.35 1.34 -3.95 3.94 1.35 6.73 -19.72 3.94 1.35 4.03 -11.83 3.95 1.35 2.69 -7.89 11.82 4.03 -1.34 3.95 3.94 1.34 -1.34 3.94 15.77 5.38 -1.35 3.95 3.95 1.34 -1.35 3.94 3.94 1.35 2.69 -7.89 -3.94 -1.34 1.35 -3.95 -11.83 -4.03 1.34 -3.94 -7.88 -2.69 1.34 -3.94 -7.88 -2.69 1.34 -3.95 -3.94 -1.34 2.69 -7.89 -3.95 -1.34 1.35 -3.94 -3.94 -1.35 4.03 -11.83 3.94 1.35 2.69 -7.89 3.94 1.35 4.04 -11.83 3.94 1.35 2.69 -7.89 3.94 1.34 1.35 -3.94 3.94 1.35 1.35 -3.95 2.68 -7.88 3.95 1.34 5.38 -15.77 -3.95 -1.34 1.35 -3.94 -7.89 -2.69 2.69 -7.89 -3.94 -1.34 1.34 -3.95 -7.88 -2.69 1.34 -3.94 3.95 1.35 5.37 -15.77 3.95 1.34 4.03 -11.83 11.83 4.03 1.34 -3.94 7.89 2.69 1.34 -3.94 1.35 -3.94 3.94 1.34 5.38 -15.77 3.94 1.35 2.69 -7.89 3.94 1.34 2.69 -7.88 3.95 1.34 1.34 -3.94 3.94 1.35 1.35 -3.95 3.94 1.35 1.34 -3.94 7.89 2.68 -1.34 3.95 3.94 1.34 -2.69 7.89 7.88 2.69 2.69 -7.89 -3.94 -1.34 2.69 -7.89 -3.94 -1.34 2.69 -7.89 -3.95 -1.34 9.42 -27.6 -3.95 -1.35 1.35 -3.94 -7.89 -2.69 1.35 -3.94 -3.94 -1.35 2.68 -7.88 -3.94 -1.35 1.35 -3.94 -3.95 -1.34 1.35 -3.95 -3.95 -1.34 1.35 -3.94 -3.94 -1.35 2.69 -7.88 -3.95 -1.35 2.69 -7.88 -3.94 -1.35 1.34 -3.94 -7.88 -2.69 1.34 -3.94 -3.94 -1.35 5.38 -15.77 -3.94 -1.34 17.48 -51.26 -3.95 -1.34 5.38 -15.77 -3.94 -1.35 4.03 -11.83 -3.94 -1.34 4.04 -11.83 3.94 1.35 2.69 -7.89 -3.94 -1.34 1.34 -3.95 -3.94 -1.34 2.69 -7.89 -3.95 -1.34 1.35 -3.94 -3.94 -1.35 2.68 -7.88 3.95 1.34 4.03 -11.83 3.94 1.35 2.69 -7.89 3.95 1.35 10.75 -31.54 11.83 4.03 1.35 -3.94 3.94 1.34 1.34 -3.94 3.95 1.34 3.94 1.35 1.34 -3.94 3.95 1.34 1.34 -3.94 3.94 1.34 1.35 -3.94 1.81 0.62c-2.75,-5.54 -5.58,-10.92 -8.51,-16.11l-1.1 -0.37 -1.34 3.94 -3.94 -1.34 -1.35 3.94 -3.94 -1.35 -1.35 3.95 -7.88 -2.69 -1.35 3.94 -3.94 -1.34 -1.34 3.94 -15.77 -5.38 1.34 -3.94 -7.88 -2.69 1.34 -3.94 -7.89 -2.69 1.35 -3.95 -7.89 -2.69 1.35 -3.94 -23.66 -8.07 -1.34 3.95 3.94 1.34 -1.34 3.94 11.82 4.04 -1.34 3.94 7.89 2.69 -1.35 3.94 7.88 2.69 -1.34 3.94 3.94 1.35 -1.34 3.94 7.88 2.69 -1.34 3.94 3.94 1.35 -5.38 15.77 3.95 1.34 -1.35 3.94 -3.94 -1.34 -5.38 15.77 -2.02 -0.69zm-580.58 431.38l3.94 1.34 1.34 -3.94 -3.94 -1.35 -1.34 3.95 -3.95 -1.35 -1.34 3.94 -3.7 -1.26c0.56,6.66 1.15,13.27 1.77,19.82l7.22 -21.15zm-2.46 65.18l5.94 2.02 1.34 -3.94 19.72 6.72 1.34 -3.94 3.95 1.35 11.82 4.03 2.69 -7.89 -3.94 -1.34 2.69 -7.89 -7.89 -2.68 -1.34 3.94 -3.94 -1.35 -2.69 7.89 -7.89 -2.69 2.69 -7.89 3.94 1.35 6.73 -19.72 3.94 1.35 2.69 -7.88 3.94 1.34 2.69 -7.89 3.94 1.35 1.35 -3.94 3.94 1.34 1.35 -3.94 3.94 1.34 -2.69 7.89 3.94 1.34 -1.34 3.95 3.94 1.34 -1.34 3.94 3.94 1.35 -1.35 3.94 3.95 1.34 -5.38 15.78 3.94 1.34 -1.34 3.94 -7.89 -2.69 -1.34 3.95 -7.89 -2.69 -4.03 11.82 23.65 8.07 1.35 -3.94 3.94 1.34 1.34 -3.94 7.89 2.69 -1.34 3.94 3.94 1.35 -1.35 3.94 3.95 1.34 -1.35 3.95 3.94 1.34 7.89 2.69 11.83 4.04 2.69 -7.89 3.94 1.35 1.34 -3.95 3.95 1.35 2.69 -7.89 -3.95 -1.34 2.69 -7.89 3.95 1.35 1.34 -3.95 3.94 1.35 1.35 -3.94 7.88 2.69 1.35 -3.95 19.71 6.72 1.35 -3.94 3.94 1.35 15.77 5.38 -1.34 3.94 7.88 2.69 2.69 -7.89 -3.94 -1.34 1.34 -3.94 3.94 1.34 1.35 -3.94 3.94 1.34 1.34 -3.94 7.89 2.69 1.35 -3.94 3.94 1.34 1.34 -3.94 7.89 2.69 1.34 -3.95 3.95 1.35 -1.35 3.94 3.94 1.35 -2.69 7.88 3.95 1.35 1.34 -3.95 7.89 2.69 1.34 -3.94 3.94 1.34 -1.34 3.95 11.83 4.03 -1.35 3.94 11.83 4.04 -1.34 3.94 3.94 1.34 -1.35 3.95 7.89 2.69 -1.34 3.94 7.88 2.69 -1.34 3.94 7.88 2.69 -1.34 3.94 3.94 1.35 1.34 -3.94 -3.94 -1.35 1.35 -3.94 -3.95 -1.35 1.35 -3.94 -3.94 -1.34 1.34 -3.95 -3.94 -1.34 1.34 -3.94 -7.88 -2.69 1.34 -3.95 -3.94 -1.34 2.69 -7.89 -3.95 -1.34 1.35 -3.94 -3.94 -1.35 2.69 -7.88 -3.95 -1.35 2.69 -7.88 -3.94 -1.35 4.03 -11.83 -3.94 -1.34 1.34 -3.94 -3.94 -1.35 4.04 -11.82 3.94 1.34 1.34 -3.94 3.95 1.34 1.34 -3.94 -3.94 -1.35 1.34 -3.94 -11.82 -4.03 1.34 -3.95 -3.94 -1.34 2.69 -7.89 -3.95 -1.34 -4.03 11.83 3.94 1.34 -4.03 11.83 -3.94 -1.34 -4.04 11.82 -3.94 -1.34 -1.34 3.94 -1.35 3.95 -3.94 -1.35 -1.35 3.94 -11.83 -4.03 -1.34 3.94 -7.88 -2.69 -1.35 3.95 -3.94 -1.35 -2.69 7.89 -3.94 -1.35 -1.35 3.94 -3.94 -1.34 -1.35 3.94 -3.94 -1.34 -1.34 3.94 -3.95 -1.34 -1.34 3.94 -3.94 -1.35 -1.35 3.95 -7.88 -2.69 -1.35 3.94 -3.94 -1.35 -1.35 3.95 -11.82 -4.04 -1.35 3.95 -7.88 -2.69 1.34 -3.95 -3.94 -1.34 -1.35 3.94 -3.94 -1.34 -2.69 7.88 -3.94 -1.34 -1.34 3.94 -3.95 -1.34 -1.34 3.94 -3.94 -1.35 -1.35 3.95 -3.94 -1.35 -1.35 3.95 -19.71 -6.73 1.34 -3.94 -7.88 -2.69 1.34 -3.94 -3.94 -1.35 1.35 -3.94 -3.95 -1.34 1.35 -3.95 -3.95 -1.34 2.69 -7.89 -3.94 -1.34 2.69 -7.89 -3.94 -1.34 1.34 -3.94 -3.94 -1.35 1.34 -3.94 -3.94 -1.35 2.69 -7.88 -3.94 -1.35 2.69 -7.88 -3.95 -1.35 1.35 -3.94 -7.89 -2.69 2.69 -7.88 -3.94 -1.35 1.35 -3.94 -3.95 -1.35 2.69 -7.88 -3.94 -1.35 4.03 -11.82 -3.94 -1.35 1.34 -3.94 -3.94 -1.35 1.35 -3.94 -7.89 -2.69 1.35 -3.94 -3.95 -1.34 1.35 -3.95 -3.95 -1.34 1.35 -3.94 4.03 -11.83 1.35 -3.94 3.94 1.34 1.35 -3.94 3.94 1.34 4.03 -11.83 3.95 1.35 4.03 -11.83 -7.89 -2.69 -1.34 3.94 -3.94 -1.34 1.34 -3.94 -15.77 -5.38 -1.34 3.94 -7.89 -2.69 -1.34 3.94 -7.89 -2.69 -1.34 3.95 -7.89 -2.69 -1.34 3.94 -31.55 -10.76 -0.26 0.78 0.05 3.55 2.81 0.96 -1.34 3.94 35.48 12.11 -1.34 3.94 11.83 4.03 -1.35 3.94 11.83 4.04 -2.69 7.88 -5.38 15.77 3.94 1.35 -1.34 3.94 3.94 1.35 -2.69 7.88 3.95 1.35 -2.69 7.88 3.94 1.35 -2.69 7.88 3.94 1.35 -2.69 7.88 3.95 1.35 -1.35 3.94 3.94 1.34 -1.34 3.95 3.94 1.34 -2.69 7.89 3.94 1.34 -1.34 3.94 3.94 1.35 -1.34 3.94 -3.94 -1.34 -1.35 3.94 -1.34 3.94 -3.95 -1.34 -1.34 3.94 -3.94 -1.35 -2.69 7.89 -3.94 -1.34 -1.35 3.94 -3.94 -1.35 -2.69 7.89 -3.95 -1.35 -2.68 7.89 -3.95 -1.34 -1.34 3.94 -7.89 -2.69 -1.34 3.94 -3.94 -1.34 -1.35 3.94 -1.62 -0.55c0.69,6.18 1.39,12.29 2.13,18.33zm557.35 -298.46l3.94 1.34 1.34 -3.94 -3.94 -1.34 -1.34 3.94zm-489.29 449.31l-2.55 -0.87 1.35 -3.95 -3.94 -1.34 1.34 -3.94 -3.94 -1.35 1.34 -3.94 -27.6 -9.41 -1.34 3.94 11.83 4.03 -1.35 3.95 7.89 2.69 -1.35 3.94 3.95 1.34 -1.35 3.95 3.94 1.34 -0.09 0.28c4.04,-0.26 8,-0.49 11.87,-0.66zm449.11 -163.73l3.94 1.35 1.34 -3.95 -3.94 -1.34 -1.34 3.94zm-170.63 100.25l3.94 1.35 1.34 -3.94 -3.94 -1.35 -1.34 3.94zm188.86 -450.53l3.94 1.34 1.35 -3.94 -3.94 -1.34 -1.35 3.94zm83.41 129.67l3.94 1.35 1.35 -3.94 -3.94 -1.35 -1.35 3.94zm-452.84 334.1l3.95 1.35 1.34 -3.94 -3.94 -1.35 -1.35 3.94zm338.66 -205.79l3.95 1.35 1.34 -3.95 -3.94 -1.34 -1.35 3.94zm-193.58 180.45l3.95 1.35 2.69 -7.89 -3.95 -1.34 -2.69 7.88zm229.66 -634.68l7.89 2.69 1.34 -3.94 -7.88 -2.69 -1.35 3.94zm-269.45 673.93l7.89 2.69 1.34 -3.95 -7.88 -2.69 -1.35 3.95zm150.1 11.57l7.88 2.69 1.35 -3.94 -7.89 -2.69 -1.34 3.94zm-271.52 21.84l3.94 1.34 2.69 -7.89 -3.94 -1.34 -2.69 7.89zm180.93 -65.93l3.94 1.34 2.69 -7.89 -3.94 -1.34 -2.69 7.89zm388.75 -210.72l3.94 1.34 1.35 -3.94 1.15 0.39c-0.01,-1.46 -0.02,-2.93 -0.03,-4.41l-3.72 -1.27 -2.69 7.89zm-257.94 343.35l-3.94 -1.34 -1.34 3.94 7.88 2.69 2.69 -7.88 -3.94 -1.35 -1.35 3.94zm41.16 -236.83l3.94 1.34 -1.34 3.95 3.94 1.34 2.69 -7.88 -7.88 -2.69 -1.35 3.94zm23.66 8.07l11.83 4.03 1.34 -3.94 -11.83 -4.04 -1.34 3.95zm-339.19 91.18l3.95 1.34 1.34 -3.94 3.94 1.35 2.69 -7.89 -3.94 -1.34 -1.34 3.94 -3.95 -1.35 -2.69 7.89 -3.94 -1.35 -1.34 3.95 -3.95 -1.35 -1.34 3.95 7.88 2.68 -1.34 3.95 3.94 1.34 -2.69 7.89 -3.94 -1.35 -2.69 7.89 3.94 1.34 -6.72 19.72 7.89 2.69 6.72 -19.72 -3.94 -1.34 2.68 -7.89 3.95 1.35 2.69 -7.89 -3.95 -1.34 1.35 -3.95 -3.94 -1.34 1.34 -3.94 -3.94 -1.35 1.34 -3.94zm371.07 60.53l1.34 -3.94 -7.88 -2.69 1.34 -3.94 -3.94 -1.35 1.35 -3.94 -7.89 -2.69 1.34 -3.94 -7.88 -2.69 1.35 -3.94 -3.95 -1.35 1.35 -3.94 -7.89 -2.69 1.35 -3.95 -3.95 -1.34 1.35 -3.94 -3.94 -1.35 1.34 -3.94 -3.94 -1.34 1.34 -3.95 -3.94 -1.34 1.34 -3.94 -3.94 -1.35 -2.69 7.89 3.94 1.34 -1.34 3.94 3.94 1.35 -1.34 3.94 3.94 1.35 -1.34 3.94 3.94 1.34 -1.35 3.95 3.95 1.34 -1.35 3.94 3.95 1.35 -1.35 3.94 7.89 2.69 -1.35 3.94 3.94 1.35 -1.34 3.94 7.88 2.69 -1.34 3.94 3.94 1.35 -1.34 3.94 3.94 1.34 -1.34 3.95 3.94 1.34 -8.07 23.66 3.94 1.34 -0.48 1.42c3.36,-1.08 6.58,-1.97 9.67,-2.69l-3.9 -1.33 8.07 -23.65 -3.94 -1.35 1.34 -3.94zm-76.93 70.59l-3.91 -1.33 -1.34 3.94 -3.94 -1.34 -1.35 3.94 3.44 1.17c2.28,-2.1 4.63,-4.24 7.1,-6.38zm142.14 -29.49l0.38 -1.12 -12.55 -4.28c4.03,1.67 8.05,3.51 12.17,5.4zm-28.44 -10.95l-10.61 -3.62 -0.57 1.68c3.88,0.38 7.59,1.04 11.18,1.94zm4.66 -306.5l3.95 1.34 -1.35 3.95 11.83 4.03 1.34 -3.94 -7.88 -2.69 1.34 -3.94 -7.88 -2.69 -1.35 3.94zm-56.2 126.07l19.72 6.73 1.34 -3.95 -19.71 -6.72 -1.35 3.94zm-140.09 255.91l3.94 1.35 1.35 -3.95 3.94 1.35 1.35 -3.94 3.94 1.34 1.34 -3.94 3.95 1.34 2.69 -7.88 3.94 1.34 1.34 -3.94 3.95 1.34 1.34 -3.94 3.94 1.35 1.35 -3.95 3.94 1.35 1.34 -3.94 -11.82 -4.04 -1.35 3.94 -7.88 -2.69 4.03 -11.82 -7.88 -2.69 -1.35 3.94 -3.94 -1.34 -1.35 3.94 3.95 1.34 -2.69 7.89 -3.95 -1.35 -1.34 3.95 -3.94 -1.35 -2.69 7.89 -3.95 -1.35 -1.34 3.94 -3.94 -1.34 -4.04 11.83 -3.94 -1.35 -2.69 7.89 -3.94 -1.35 -4.51 13.22c3.07,0.02 6.01,-0.03 8.85,-0.12l0.85 -2.52 3.95 1.34 1.34 -3.94 3.95 1.35 1.34 -3.95 3.94 1.35 2.69 -7.89zm135.1 -486.47l-3.94 -1.35 -2.69 7.89 -3.94 -1.35 -2.69 7.89 3.94 1.34 1.35 -3.94 3.94 1.34 2.69 -7.88 3.94 1.34 5.38 -15.77 -3.94 -1.34 -4.04 11.83zm-78.26 268.19l3.94 1.34 -1.34 3.95 7.88 2.69 4.04 -11.83 -3.95 -1.35 1.35 -3.94 -7.88 -2.69 -4.04 11.83zm86.95 -190.41l3.94 1.34 -1.35 3.95 3.95 1.34 -1.35 3.94 3.94 1.35 -1.34 3.94 3.94 1.34 2.69 -7.88 -3.94 -1.34 4.03 -11.83 -11.83 -4.04 -2.68 7.89zm-367.33 160.8l7.88 2.69 -2.69 7.89 -7.88 -2.69 2.69 -7.89zm332.75 -304.63l-3.94 -1.34 -1.34 3.94 3.94 1.34 -2.69 7.89 11.83 4.03 2.69 -7.88 3.94 1.34 1.34 -3.94 -3.94 -1.35 1.35 -3.94 -11.83 -4.03 -1.35 3.94zm-8.16 36.83l3.95 1.34 -2.69 7.89 7.88 2.69 5.38 -15.77 -3.94 -1.35 2.69 -7.88 -3.94 -1.35 1.34 -3.94 -3.94 -1.34 -6.73 19.71zm-193.6 374.1l3.94 1.34 -4.03 11.83 -11.83 -4.03 -5.38 15.77 3.95 1.34 1.34 -3.94 3.94 1.34 1.35 -3.94 3.94 1.34 1.35 -3.94 3.94 1.35 -2.69 7.88 3.94 1.35 -1.34 3.94 7.88 2.69 2.69 -7.89 -3.94 -1.34 1.34 -3.94 3.95 1.34 2.69 -7.88 -3.95 -1.35 1.35 -3.94 -3.95 -1.35 4.04 -11.82 -11.83 -4.04 -2.69 7.89zm-261.63 -265.28l-1.34 3.94 -3.94 -1.34 1.34 -3.94 3.94 1.34zm5.29 -2.6l-1.34 3.94 -3.95 -1.34 1.35 -3.94 3.94 1.34zm0 0l1.34 -3.94 3.95 1.34 -1.35 3.95 -3.94 -1.35zm200.62 134.44l3.94 1.35 1.35 -3.95 3.94 1.35 -8.07 23.65 -3.94 -1.34 4.03 -11.83 -3.94 -1.34 2.69 -7.89zm120.06 164.18l3.94 1.35 -1.34 3.94 7.88 2.69 -1.34 3.94 3.94 1.35 -1.35 3.94 3.95 1.34 -1.35 3.95 3.95 1.34 -1.35 3.94 3.94 1.35 -1.34 3.94 -11.83 -4.04 1.34 -3.94 -11.82 -4.03 1.34 -3.94 -3.94 -1.35 5.38 -15.77zm26.98 -92.02l3.94 1.34 -4.03 11.83 -3.94 -1.35 4.03 -11.82z"/>
 </g>
</svg>
