<?xml version="1.0" encoding="UTF-8"?>
<!DOCTYPE svg PUBLIC "-//W3C//DTD SVG 1.1//EN" "http://www.w3.org/Graphics/SVG/1.1/DTD/svg11.dtd">
<!-- Creator: CorelDRAW (Versión OEM) -->
<svg xmlns="http://www.w3.org/2000/svg" xml:space="preserve" width="42.3578mm" height="173.699mm" version="1.1" style="shape-rendering:geometricPrecision; text-rendering:geometricPrecision; image-rendering:optimizeQuality; fill-rule:evenodd; clip-rule:evenodd"
viewBox="0 0 4235.78 17369.86"
 xmlns:xlink="http://www.w3.org/1999/xlink"
 xmlns:xodm="http://www.corel.com/coreldraw/odm/2003">
 <defs>
  <style type="text/css">
   <![CDATA[
    .fil2 {fill:#0C0C0C}
    .fil0 {fill:#EDEAE0}
    .fil1 {fill:#F2E6C9}
   ]]>
  </style>
 </defs>
 <g id="fissure-full">
  <metadata id="CorelCorpID_0Corel-Layer"/>
  <polygon id="crown" class="fil0" points="2064.94,247.77 1973.52,247.77 1973.52,278.25 1912.59,278.25 1912.59,308.74 1851.62,308.74 1851.62,339.19 1790.68,339.19 1790.68,369.67 1760.2,369.67 1760.2,400.16 1729.75,400.16 1729.75,430.61 1668.78,430.61 1668.78,461.09 1638.33,461.09 1638.33,491.58 1577.36,491.58 1577.36,522.03 1546.91,522.03 1546.91,552.51 1516.42,552.51 1516.42,583 1455.49,583 1455.49,613.45 1425,613.45 1425,643.93 1394.52,643.93 1394.52,674.42 1333.58,674.42 1333.58,704.87 1303.1,704.87 1303.1,735.35 1272.65,735.35 1272.65,765.84 1211.68,765.84 1211.68,796.29 1181.23,796.29 1181.23,826.77 1150.74,826.77 1150.74,857.26 1089.81,857.26 1089.81,887.71 1059.32,887.71 1059.32,918.19 1028.83,918.19 1028.83,948.68 998.38,948.68 998.38,979.13 937.41,979.13 937.41,1009.61 906.96,1009.61 906.96,1040.1 876.48,1040.1 876.48,1070.55 815.54,1070.55 815.54,1101.04 785.06,1101.04 785.06,1131.52 754.57,1131.52 754.57,1161.97 724.12,1161.97 724.12,1192.46 693.64,1192.46 693.64,1222.94 663.15,1222.94 663.15,1253.39 632.7,1253.39 632.7,1283.88 602.22,1283.88 602.22,1314.36 571.73,1314.36 571.73,1375.3 541.28,1375.3 541.28,1405.78 510.8,1405.78 510.8,1436.23 480.31,1436.23 480.31,1497.17 449.86,1497.17 449.86,1558.14 419.38,1558.14 419.38,1588.59 388.89,1588.59 388.89,1649.56 358.44,1649.56 358.44,1710.49 327.96,1710.49 327.96,1771.43 297.47,1771.43 297.47,1862.85 267.02,1862.85 267.02,1954.27 236.54,1954.27 236.54,2137.11 206.05,2137.11 206.05,2990.38 236.54,2990.38 236.54,3234.16 267.02,3234.16 267.02,3417 297.47,3417 297.47,3599.84 327.96,3599.84 327.96,3721.74 358.44,3721.74 358.44,3843.65 388.89,3843.65 388.89,4026.49 419.38,4026.49 419.38,4148.36 449.86,4148.36 449.86,4300.75 480.31,4300.75 480.31,4392.17 510.8,4392.17 510.8,4514.04 541.28,4514.04 541.28,4666.43 571.73,4666.43 571.73,4818.79 602.22,4818.79 602.22,4910.21 632.7,4910.21 632.7,5062.56 663.15,5062.56 663.15,5184.47 693.64,5184.47 693.64,5275.89 724.12,5275.89 724.12,5458.73 754.57,5458.73 754.57,5550.15 785.06,5550.15 785.06,5672.06 815.54,5672.06 815.54,5793.93 845.99,5793.93 845.99,5885.35 876.48,5885.35 876.48,5976.77 906.96,5976.77 906.96,6068.19 937.41,6068.19 937.41,6159.61 967.9,6159.61 967.9,6220.58 998.38,6220.58 998.38,6281.52 1028.83,6281.52 1028.83,6372.94 1059.32,6372.94 1059.32,6433.87 1089.81,6433.87 1089.81,6494.84 1120.25,6494.84 1120.25,6555.78 1150.74,6555.78 1150.74,6586.26 1181.23,6586.26 1181.23,6647.2 1211.68,6647.2 1211.68,6708.13 1242.16,6708.13 1242.16,6738.62 1272.65,6738.62 1272.65,6799.55 1303.1,6799.55 1303.1,6830.04 1333.58,6830.04 1333.58,6860.52 1364.07,6860.52 1364.07,6890.97 1394.52,6890.97 1394.52,6921.46 1425,6921.46 1425,6982.39 1455.49,6982.39 1455.49,7012.88 1516.42,7012.88 1516.42,7043.37 1546.91,7043.37 1546.91,7073.81 1577.36,7073.81 1577.36,7104.3 1607.84,7104.3 1607.84,7134.79 1668.78,7134.79 1668.78,7165.24 1699.26,7165.24 1699.26,7195.72 1790.68,7195.72 1790.68,7226.21 1882.1,7226.21 1882.1,7256.66 1973.52,7256.66 1973.52,7287.14 2278.24,7287.14 2278.24,7256.66 2369.66,7256.66 2369.66,7226.21 2461.08,7226.21 2461.08,7195.72 2522.05,7195.72 2522.05,7165.24 2582.98,7165.24 2582.98,7134.79 2613.47,7134.79 2613.47,7104.3 2674.4,7104.3 2674.4,7073.81 2704.89,7073.81 2704.89,7043.37 2735.34,7043.37 2735.34,7012.88 2765.82,7012.88 2765.82,6982.39 2796.31,6982.39 2796.31,6951.95 2826.76,6951.95 2826.76,6921.46 2857.24,6921.46 2857.24,6890.97 2887.73,6890.97 2887.73,6860.52 2918.18,6860.52 2918.18,6830.04 2948.66,6830.04 2948.66,6769.1 2979.15,6769.1 2979.15,6738.62 3009.6,6738.62 3009.6,6708.13 3040.08,6708.13 3040.08,6647.2 3070.57,6647.2 3070.57,6616.71 3101.02,6616.71 3101.02,6555.78 3131.51,6555.78 3131.51,6494.84 3161.99,6494.84 3161.99,6433.87 3192.44,6433.87 3192.44,6372.94 3222.93,6372.94 3222.93,6312 3253.41,6312 3253.41,6251.03 3283.86,6251.03 3283.86,6190.1 3314.35,6190.1 3314.35,6098.68 3344.83,6098.68 3344.83,6007.25 3375.28,6007.25 3375.28,5946.32 3405.77,5946.32 3405.77,5854.9 3436.25,5854.9 3436.25,5763.48 3466.7,5763.48 3466.7,5672.06 3497.19,5672.06 3497.19,5611.09 3527.67,5611.09 3527.67,5458.73 3558.12,5458.73 3558.12,5397.8 3588.61,5397.8 3588.61,5245.41 3619.09,5245.41 3619.09,5123.54 3649.54,5123.54 3649.54,4971.14 3680.03,4971.14 3680.03,4818.79 3710.51,4818.79 3710.51,4727.37 3740.96,4727.37 3740.96,4544.53 3771.45,4544.53 3771.45,4361.69 3801.93,4361.69 3801.93,4148.36 3832.38,4148.36 3832.38,4087.43 3862.87,4087.43 3862.87,3813.16 3893.35,3813.16 3893.35,3660.81 3923.8,3660.81 3923.8,3477.97 3954.29,3477.97 3954.29,3234.16 3984.77,3234.16 3984.77,3081.8 4015.22,3081.8 4015.22,2746.6 4045.71,2746.6 4045.71,2076.18 4015.22,2076.18 4015.22,1923.82 3984.77,1923.82 3984.77,1771.43 3954.29,1771.43 3954.29,1680.01 3923.8,1680.01 3923.8,1619.07 3893.35,1619.07 3893.35,1527.65 3862.87,1527.65 3862.87,1497.17 3832.38,1497.17 3832.38,1436.23 3801.93,1436.23 3801.93,1375.3 3771.45,1375.3 3771.45,1344.81 3740.96,1344.81 3740.96,1314.36 3710.51,1314.36 3710.51,1283.88 3680.03,1283.88 3680.03,1222.94 3649.54,1222.94 3649.54,1192.46 3619.09,1192.46 3619.09,1161.97 3558.12,1161.97 3558.12,1131.52 3527.67,1131.52 3527.67,1101.04 3497.19,1101.04 3497.19,1070.55 3466.7,1070.55 3466.7,1040.1 3436.25,1040.1 3436.25,1009.61 3405.77,1009.61 3405.77,979.13 3344.83,979.13 3344.83,948.68 3314.35,948.68 3314.35,918.19 3283.86,918.19 3283.86,887.71 3253.41,887.71 3253.41,857.26 3192.44,857.26 3192.44,826.77 3161.99,826.77 3161.99,796.29 3131.51,796.29 3131.51,765.84 3101.02,765.84 3101.02,735.35 3040.08,735.35 3040.08,704.87 3009.6,704.87 3009.6,674.42 2979.15,674.42 2979.15,643.93 2948.66,643.93 2948.66,613.45 2887.73,613.45 2887.73,583 2857.24,583 2857.24,552.51 2826.76,552.51 2826.76,522.03 2796.31,522.03 2796.31,491.58 2735.34,491.58 2735.34,461.09 2704.89,461.09 2704.89,430.61 2674.4,430.61 2674.4,400.16 2613.47,400.16 2613.47,369.67 2582.98,369.67 2582.98,339.19 2552.5,339.19 2552.5,308.74 2491.56,308.74 2491.56,278.25 2430.63,278.25 2430.63,247.77 2339.21,247.77 2339.21,217.32 2064.94,217.32 "/>
  <polygon id="root" class="fil1" points="3527.67,6098.68 3497.19,6098.68 3497.19,6159.61 3466.7,6159.61 3466.7,6220.58 3436.25,6220.58 3436.25,6312 3405.77,6312 3405.77,6372.94 3375.28,6372.94 3375.28,6433.87 3344.83,6433.87 3344.83,6494.84 3314.35,6494.84 3314.35,6555.78 3283.86,6555.78 3283.86,6586.26 3253.41,6586.26 3253.41,6647.2 3222.93,6647.2 3222.93,6708.13 3192.44,6708.13 3192.44,6738.62 3161.99,6738.62 3161.99,6799.55 3131.51,6799.55 3131.51,6830.04 3101.02,6830.04 3101.02,6890.97 3070.57,6890.97 3070.57,6921.46 3040.08,6921.46 3040.08,6951.95 3009.6,6951.95 3009.6,6982.39 2979.15,6982.39 2979.15,7043.37 2948.66,7043.37 2948.66,7073.81 2918.18,7073.81 2918.18,7104.3 2857.24,7104.3 2857.24,7134.79 2826.76,7134.79 2826.76,7165.24 2796.31,7165.24 2796.31,7195.72 2765.82,7195.72 2765.82,7226.21 2704.89,7226.21 2704.89,7256.66 2674.4,7256.66 2674.4,7287.14 2613.47,7287.14 2613.47,7317.63 2552.5,7317.63 2552.5,7348.08 2491.56,7348.08 2491.56,7378.56 2400.14,7378.56 2400.14,7409.05 1821.17,7409.05 1821.17,7378.56 1760.2,7378.56 1760.2,7348.08 1699.26,7348.08 1699.26,7317.63 1607.84,7317.63 1607.84,7287.14 1577.36,7287.14 1577.36,7256.66 1516.42,7256.66 1516.42,7226.21 1485.94,7226.21 1485.94,7195.72 1455.49,7195.72 1455.49,7165.24 1425,7165.24 1425,7134.79 1364.07,7134.79 1364.07,7104.3 1333.58,7104.3 1333.58,7073.81 1303.1,7073.81 1303.1,7043.37 1272.65,7043.37 1272.65,6982.39 1242.16,6982.39 1242.16,6951.95 1211.68,6951.95 1211.68,6921.46 1181.23,6921.46 1181.23,6890.97 1150.74,6890.97 1150.74,6830.04 1120.25,6830.04 1120.25,6799.55 1089.81,6799.55 1089.81,6738.62 1059.32,6738.62 1059.32,6708.13 1028.83,6708.13 1028.83,6647.2 998.38,6647.2 998.38,6586.26 967.9,6586.26 967.9,6525.29 937.41,6525.29 937.41,6464.36 906.96,6464.36 906.96,6403.42 876.48,6403.42 876.48,6342.45 845.99,6342.45 845.99,6281.52 815.54,6281.52 815.54,6220.58 785.06,6220.58 785.06,6464.36 815.54,6464.36 815.54,7591.89 845.99,7591.89 845.99,8475.61 876.48,8475.61 876.48,9206.97 906.96,9206.97 906.96,9572.65 937.41,9572.65 937.41,9877.36 967.9,9877.36 967.9,10182.11 998.38,10182.11 998.38,10578.28 1028.83,10578.28 1028.83,10761.12 1059.32,10761.12 1059.32,10974.41 1089.81,10974.41 1089.81,11340.09 1120.25,11340.09 1120.25,11553.42 1150.74,11553.42 1150.74,11858.16 1181.23,11858.16 1181.23,11980.03 1211.68,11980.03 1211.68,12254.3 1242.16,12254.3 1242.16,12437.14 1272.65,12437.14 1272.65,12711.4 1303.1,12711.4 1303.1,12985.66 1333.58,12985.66 1333.58,13351.34 1364.07,13351.34 1364.07,13595.15 1394.52,13595.15 1394.52,14052.26 1425,14052.26 1425,14509.36 1455.49,14509.36 1455.49,16033.02 1485.94,16033.02 1485.94,16642.48 1516.42,16642.48 1516.42,16764.38 1546.91,16764.38 1546.91,16886.29 1577.36,16886.29 1577.36,16977.71 1607.84,16977.71 1607.84,17038.65 1638.33,17038.65 1638.33,17069.09 1668.78,17069.09 1668.78,17130.07 1729.75,17130.07 1729.75,17160.52 1943.04,17160.52 1943.04,17130.07 1973.52,17130.07 1973.52,17099.58 2003.97,17099.58 2003.97,17069.09 2034.46,17069.09 2034.46,17038.65 2064.94,17038.65 2064.94,17008.16 2095.39,17008.16 2095.39,16947.22 2125.88,16947.22 2125.88,16886.29 2156.37,16886.29 2156.37,16855.8 2186.81,16855.8 2186.81,16794.87 2217.3,16794.87 2217.3,16733.9 2247.79,16733.9 2247.79,16672.96 2278.24,16672.96 2278.24,16612.03 2308.72,16612.03 2308.72,16551.06 2339.21,16551.06 2339.21,16459.64 2369.66,16459.64 2369.66,16398.7 2400.14,16398.7 2400.14,16307.28 2430.63,16307.28 2430.63,16215.86 2461.08,16215.86 2461.08,16124.44 2491.56,16124.44 2491.56,16033.02 2522.05,16033.02 2522.05,15911.11 2552.5,15911.11 2552.5,15819.69 2582.98,15819.69 2582.98,15728.27 2613.47,15728.27 2613.47,15606.4 2643.92,15606.4 2643.92,15514.98 2674.4,15514.98 2674.4,15393.08 2704.89,15393.08 2704.89,15271.17 2735.34,15271.17 2735.34,15149.3 2765.82,15149.3 2765.82,14966.46 2796.31,14966.46 2796.31,14844.55 2826.76,14844.55 2826.76,14722.65 2857.24,14722.65 2857.24,14600.78 2887.73,14600.78 2887.73,14478.87 2918.18,14478.87 2918.18,14296.03 2948.66,14296.03 2948.66,14174.13 2979.15,14174.13 2979.15,13991.28 3009.6,13991.28 3009.6,13869.41 3040.08,13869.41 3040.08,13717.02 3070.57,13717.02 3070.57,13534.18 3101.02,13534.18 3101.02,13320.89 3131.51,13320.89 3131.51,13077.08 3161.99,13077.08 3161.99,12863.79 3192.44,12863.79 3192.44,12680.95 3222.93,12680.95 3222.93,12437.14 3253.41,12437.14 3253.41,12284.78 3283.86,12284.78 3283.86,11980.03 3314.35,11980.03 3314.35,11797.19 3344.83,11797.19 3344.83,11492.48 3375.28,11492.48 3375.28,11279.16 3405.77,11279.16 3405.77,10669.7 3436.25,10669.7 3436.25,9755.49 3466.7,9755.49 3466.7,8810.8 3497.19,8810.8 3497.19,7713.76 3527.67,7713.76 3527.67,7226.21 3558.12,7226.21 3558.12,6007.25 3527.67,6007.25 "/>
  <path id="outline" class="fil2" d="M785.06 6220.58l30.48 0 0 60.94 30.45 0 0 60.93 30.49 0 0 60.97 30.48 0 0 60.94 30.45 0 0 60.93 30.49 0 0 60.97 30.48 0 0 60.94 30.45 0 0 60.93 30.49 0 0 30.49 30.49 0 0 60.93 30.44 0 0 30.49 30.49 0 0 60.93 30.49 0 0 30.49 30.45 0 0 30.49 30.48 0 0 30.44 30.49 0 0 60.98 30.45 0 0 30.44 30.48 0 0 30.49 30.49 0 0 30.49 60.93 0 0 30.45 30.49 0 0 30.48 30.45 0 0 30.49 30.48 0 0 30.45 60.94 0 0 30.48 30.48 0 0 30.49 91.42 0 0 30.45 60.94 0 0 30.48 60.97 0 0 30.49 180 0c35.52,270.15 -21.07,130.51 -73.58,335.42 -103.04,402.12 -171.01,447.39 -98.19,803.03 45.17,220.6 11.85,200.7 172.81,311.57 -24.85,211.59 10.74,193.75 -173.72,319.02 -0.21,82.32 36.12,99.89 26.42,182.99l-156.43 102.34c15.63,80.3 70.55,144.48 82.75,219.49 14.44,88.82 -41.43,162.84 -52.6,246.93 57.61,16.4 130.67,48.45 180.95,76.36 15.59,57.79 7.22,108.9 30.89,152.07 26.82,48.89 55.96,41.19 69.7,117.89 10.05,56.02 -9.75,134.35 3.91,178.04 19.78,63.27 51.09,26.32 98.41,81.03 -78.92,171.74 -274.36,141.7 -158.04,447.78 111.84,294.28 -23.88,248.08 -112.6,467.15 148.32,136.48 261.72,20.74 232.45,435.12 -6.65,94.22 -32.42,253.15 15.67,320.71 70.86,99.56 134.61,43.21 109.33,234.2 -173.03,119.02 -85.19,45.45 -174.95,233.16 -76.38,159.77 -112.63,44.37 -69.26,291.79 43.72,249.42 83.59,251.1 95.08,317.97 22.36,129.99 -48.55,173.62 -125.16,286.63 21.57,79.01 71.29,117.9 92.66,233.95l15.58 85.19c13.27,-173.42 -47.19,-191.98 -77.32,-319.14 54.19,-83.05 135.65,-110.28 130.19,-259.21 -3.06,-83.85 -60.08,-214.63 -79.67,-319.91 -44.35,-238.32 -1.73,-141.66 70.33,-279.84 74.83,-143.47 16.49,-132.22 189.16,-207.08 55.52,-505.12 -151.04,-126.33 -108.95,-581.34 30.17,-326.17 68.83,-319.61 -140.46,-517.95 35.28,-82.72 86.17,-123.76 115.47,-241.1 35.97,-144.03 -153.04,-271.52 -12.38,-392.77 51.09,-44.03 46.71,-41.39 86.95,-95.73 58.09,-78.44 104.96,-137.65 152.9,-215.82l-187.44 -117.93c-7.98,-73.64 15.18,-115.39 -5.99,-179.34 -19.1,-57.68 -59.58,-60.68 -75.84,-121.68 -46.67,-175.13 79.47,-173.53 -125.64,-255.6 14.84,-116.01 6.66,-106.1 -9.89,-214.74 65.77,-24.07 103.07,-56.25 160.34,-80.27l-46.55 -185.96c234.4,-162.71 75.1,-56 143.86,-346.54 19.91,-84.16 57.45,-142.11 66.47,-222.85 -127.13,-85.4 -208.72,-135.47 -227.34,-243.42 -51.96,-301.19 63.04,-244.05 74.93,-381.72 15.31,-177.33 -69.63,-65.82 64.02,-271.78 146.26,-225.4 118.69,-248.88 90.93,-428.11l118.81 0 0 -30.49 91.42 0 0 -30.48 60.94 0 0 -30.45 60.97 0 0 -30.49 60.93 0 0 -30.48 30.49 0 0 -30.45 60.93 0 0 -30.49 30.49 0 0 -30.48 30.45 0 0 -30.45 30.48 0 0 -30.49 60.94 0 0 -30.49 30.48 0 0 -30.44 30.49 0 0 -60.98 30.45 0 0 -30.44 30.48 0 0 -30.49 30.49 0 0 -30.49 30.45 0 0 -60.93 30.49 0 0 -30.49 30.48 0 0 -60.93 30.45 0 0 -30.49 30.49 0 0 -60.93 30.48 0 0 -60.94 30.45 0 0 -30.48 30.49 0 0 -60.94 30.48 0 0 -60.97 30.45 0 0 -60.93 30.49 0 0 -60.94 30.48 0 0 -91.42 30.45 0 0 -60.97 30.49 0 0 -60.93 30.48 0 0 -91.43 30.45 0 0 1218.96 -30.45 0 0 487.55 -30.48 0 0 1097.04 -30.49 0 0 944.69 -30.45 0 0 914.21 -30.48 0 0 609.46 -30.49 0 0 213.32 -30.45 0 0 304.71 -30.48 0 0 182.84 -30.49 0 0 304.75 -30.45 0 0 152.36 -30.48 0 0 243.81 -30.49 0 0 182.84 -30.45 0 0 213.29 -30.48 0 0 243.81 -30.49 0 0 213.29 -30.45 0 0 182.84 -30.49 0 0 152.39 -30.48 0 0 121.87 -30.45 0 0 182.85 -30.49 0 0 121.9 -30.48 0 0 182.84 -30.45 0 0 121.91 -30.49 0 0 121.87 -30.48 0 0 121.9 -30.45 0 0 121.91 -30.49 0 0 182.84 -30.48 0 0 121.87 -30.45 0 0 121.91 -30.49 0 0 121.9 -30.48 0 0 91.42 -30.45 0 0 121.87 -30.49 0 0 91.42 -30.48 0 0 91.42 -30.45 0 0 121.91 -30.49 0 0 91.42 -30.48 0 0 91.42 -30.45 0 0 91.42 -30.49 0 0 91.42 -30.48 0 0 60.94 -30.45 0 0 91.42 -30.49 0 0 60.97 -30.48 0 0 60.93 -30.45 0 0 60.94 -30.49 0 0 60.97 -30.49 0 0 60.93 -30.44 0 0 30.49 -30.49 0 0 60.93 -30.49 0 0 60.94 -30.45 0 0 30.49 -30.48 0 0 30.44 -30.49 0 0 30.49 -30.45 0 0 30.49 -30.48 0 0 30.45 -213.29 0 0 -30.45 -60.97 0 0 -60.98 -30.45 0 0 -30.44 -30.49 0 0 -60.94 -30.48 0 0 -91.42 -30.45 0 0 -121.91 -30.49 0 0 -121.9 -30.48 0 0 -609.46 -30.45 0 0 -1523.66 -30.49 0 0 -457.1 -30.48 0 0 -457.11 -30.45 0 0 -243.81 -30.49 0 0 -365.68 -30.48 0 0 -274.26 -30.45 0 0 -274.26 -30.49 0 0 -182.84 -30.48 0 0 -274.27 -30.45 0 0 -121.87 -30.49 0 0 -304.74 -30.49 0 0 -213.33 -30.44 0 0 -365.68 -30.49 0 0 -213.29 -30.49 0 0 -182.84 -30.45 0 0 -396.17 -30.48 0 0 -304.75 -30.49 0 0 -304.71 -30.45 0 0 -365.68 -30.48 0 0 -731.36 -30.49 0 0 -883.72 -30.45 0 0 -1127.53 -30.48 0 0 -243.78zm214.86 -5271.9c15.58,50.37 -17.92,36.31 -7.95,137.45 26.28,266.93 -4.99,309.42 117.82,509.27 76.16,123.94 51.54,119.22 173.77,150.95 31.67,133.98 49.33,115.27 -34.97,232.09 18.07,50.02 43.99,52.67 56.46,105.27l-72.35 96.69c27.24,45.29 74.76,72.14 98.73,114.97 28.4,50.74 10.84,108.03 22.63,161.54 38.61,-2.76 90.06,0.55 126.74,6.38 22.24,31.65 28.44,64.52 52.38,85.51 27.08,23.76 43.07,12.65 68.35,56.16 18.49,31.81 23.77,83.74 41.71,107.23 26,34.05 36.84,4.7 77.68,27.46 -9.99,121.72 -135.28,146.66 2.98,306.79 132.94,153.93 40.32,155.89 34.87,308.5 120.2,50.08 163.49,-45.25 237.28,212.81 16.78,58.67 36.26,160.85 80.38,191.25 65.01,44.79 91.29,-3.51 118.14,118.04 -78.77,110.49 -41.68,46.4 -54.69,180.22 -11.08,113.88 -58.59,51.81 22.42,192.45 81.66,141.77 106.23,133.97 127.98,172.03 42.31,73.99 8.9,116.15 -12.64,201.68 30.56,43.22 69.33,55.84 107.96,121.58l28.28 48.27c-30.27,-108.22 -71.07,-106.14 -117.48,-176.68 14.56,-62.4 58.01,-96.94 21.77,-186.14 -20.38,-50.23 -83.91,-117.03 -119.06,-176.63 -79.58,-134.88 -32.36,-85.62 -19.14,-185.44 13.72,-103.64 -19.2,-83.9 69.09,-167.52 -77.91,-318.95 -119.63,-43.32 -194.61,-328.88 -53.76,-204.69 -28.84,-209.23 -199.75,-283.41 3.16,-58.03 24.98,-94.18 16.85,-171.9 -9.99,-95.4 -152.94,-131.05 -94.31,-235.73 21.27,-38.01 19.2,-35.47 31.63,-77.34 17.95,-60.45 33.28,-106.77 45.13,-164.81l-139.85 -30.2c-21.12,-42.94 -16.31,-73.4 -43.27,-107.55 -24.33,-30.8 -49.59,-23.68 -72.93,-57.11 -67.05,-96.02 9.9,-122.93 -132.77,-127.41 -16.63,-73.72 -19.41,-65.91 -53.45,-128.2 34.61,-29.16 50.13,-56.94 79.6,-84.15l-69.36 -102.64c106.37,-150.57 33.22,-50.59 10.77,-242.17 -6.5,-55.52 3.49,-98.98 -8.88,-150 -96.07,-23.76 -156.65,-36.12 -191.82,-97.55 -98.11,-171.38 -15.67,-162.09 -38.88,-248.32 -29.87,-111.04 -56.81,-24.57 -21.17,-179.14 34.48,-149.61 21.31,-173.3 -21.25,-247.81l0 -9.77 30.49 0 0 -30.48 30.45 0 0 -30.45 60.97 0 0 -30.49 30.45 0 0 -30.48 30.48 0 0 -30.45 60.94 0 0 -30.49 30.48 0 0 -30.48 30.49 0 0 -30.45 60.93 0 0 -30.49 30.49 0 0 -30.48 30.45 0 0 -30.45 60.97 0 0 -30.49 30.45 0 0 -30.48 60.97 0 0 -30.45 30.45 0 0 -30.49 30.48 0 0 -30.48 60.94 0 0 -30.45 60.97 0 0 -30.49 60.93 0 0 -30.48 91.42 0 0 -30.45 274.27 0 0 30.45 91.42 0 0 30.48 60.93 0 0 30.49 60.94 0 0 30.45 30.48 0 0 30.48 30.49 0 0 30.49 60.93 0 0 30.45 30.49 0 0 30.48 30.45 0 0 30.49 60.97 0 0 30.45 30.45 0 0 30.48 30.48 0 0 30.49 30.49 0 0 30.45 60.93 0 0 30.48 30.49 0 0 30.49 30.45 0 0 30.45 30.48 0 0 30.48 60.94 0 0 30.49 30.49 0 0 30.45 30.48 0 0 30.48 30.45 0 0 30.49 60.97 0 0 30.45 30.45 0 0 30.48 30.49 0 0 30.49 30.48 0 0 30.45 60.94 0 0 30.48 30.48 0 0 30.49 30.45 0 0 30.45 30.49 0 0 30.49 30.48 0 0 30.48 30.45 0 0 30.45 60.97 0 0 30.49 30.45 0 0 30.48 30.49 0 0 60.94 30.48 0 0 30.48 30.45 0 0 30.45 30.49 0 0 30.49 30.48 0 0 60.93 30.45 0 0 60.94 30.49 0 0 30.48 30.48 0 0 91.42 30.45 0 0 60.94 30.49 0 0 91.42 30.48 0 0 152.39 30.45 0 0 152.36 30.49 0 0 670.42 -30.49 0 0 335.2 -30.45 0 0 152.36 -30.48 0 0 243.81 -30.49 0 0 182.84 -30.45 0 0 152.35 -30.48 0 0 274.27 -30.49 0 0 60.93 -30.45 0 0 213.33 -30.48 0 0 182.84 -30.49 0 0 182.84 -30.45 0 0 91.42 -30.48 0 0 152.35 -30.49 0 0 152.4 -30.45 0 0 121.87 -30.48 0 0 152.39 -30.49 0 0 60.93 -30.45 0 0 152.36 -30.48 0 0 60.97 -30.49 0 0 91.42 -30.45 0 0 91.42 -30.48 0 0 91.42 -30.49 0 0 60.93 -30.45 0 0 91.43 -30.48 0 0 91.42 -30.49 0 0 60.93 -30.45 0 0 60.97 -30.48 0 0 60.94 -30.49 0 0 60.93 -30.45 0 0 60.97 -30.48 0 0 60.94 -30.49 0 0 60.93 -30.45 0 0 30.49 -30.49 0 0 60.93 -30.48 0 0 30.49 -30.45 0 0 30.48 -30.49 0 0 60.94 -30.48 0 0 30.48 -30.45 0 0 30.45 -30.49 0 0 30.49 -30.48 0 0 30.49 -30.45 0 0 30.44 -30.49 0 0 30.49 -30.48 0 0 30.49 -30.45 0 0 30.44 -30.49 0 0 30.49 -60.93 0 0 30.49 -30.49 0 0 30.45 -60.93 0 0 30.48 -60.97 0 0 30.49 -91.42 0 0 30.45 -91.42 0 0 30.48 -304.72 0 0 -30.48 -91.42 0 0 -30.45 -91.42 0 0 -30.49 -91.42 0 0 -30.48 -30.48 0 0 -30.45 -60.94 0 0 -30.49 -30.48 0 0 -30.49 -30.45 0 0 -30.44 -30.49 0 0 -30.49 -60.93 0 0 -30.49 -30.49 0 0 -60.93 -30.48 0 0 -30.49 -30.45 0 0 -30.45 -30.49 0 0 -30.48 -30.48 0 0 -30.49 -30.45 0 0 -60.93 -30.49 0 0 -30.49 -30.48 0 0 -60.93 -30.45 0 0 -60.94 -30.49 0 0 -30.48 -30.49 0 0 -60.94 -30.44 0 0 -60.97 -30.49 0 0 -60.93 -30.49 0 0 -91.42 -30.45 0 0 -60.94 -30.48 0 0 -60.97 -30.49 0 0 -91.42 -30.45 0 0 -91.42 -30.48 0 0 -91.42 -30.49 0 0 -91.42 -30.45 0 0 -121.87 -30.48 0 0 -121.91 -30.49 0 0 -91.42 -30.45 0 0 -182.84 -30.48 0 0 -91.42 -30.49 0 0 -121.91 -30.45 0 0 -152.35 -30.48 0 0 -91.42 -30.49 0 0 -152.36 -30.45 0 0 -152.39 -30.48 0 0 -121.87 -30.49 0 0 -91.42 -30.45 0 0 -152.39 -30.48 0 0 -121.87 -30.49 0 0 -182.84 -30.45 0 0 -121.91 -30.48 0 0 -121.9 -30.49 0 0 -182.84 -30.45 0 0 -182.84 -30.48 0 0 -243.78 -30.49 0 0 -853.27 30.49 0 0 -182.84 30.48 0 0 -91.42 30.45 0 0 -91.42 30.49 0 0 -60.94 30.48 0 0 -60.93 30.45 0 0 -60.97 30.49 0 0 -30.45 30.48 0 0 -60.97 30.45 0 0 -60.94 30.49 0 0 -30.45 30.48 0 0 -30.48 30.45 0 0 -60.94 30.49 0 0 -30.48 30.48 0 0 -30.49 30.45 0 0 -30.45 30.49 0 0 -30.48 30.48 0 0 -30.49 30.45 0 0 -30.45 30.49 0 0 -30.48 30.48 0 0 -30.49 60.94 0 0 -30.45 30.48 0 0 -30.49 30.45 0 0 -30.48 60.97 0 0 -30.45 1.54 0zm1065.02 -914.2l-121.9 0 0 30.44 -60.94 0 0 30.49 -60.93 0 0 30.49 -60.97 0 0 30.45 -30.45 0 0 30.48 -60.97 0 0 30.49 -30.45 0 0 30.45 -60.97 0 0 30.48 -30.45 0 0 30.49 -30.49 0 0 30.45 -60.93 0 0 30.48 -30.49 0 0 30.49 -30.48 0 0 30.45 -60.94 0 0 30.48 -30.48 0 0 30.49 -30.45 0 0 30.45 -60.97 0 0 30.48 -30.45 0 0 30.49 -30.49 0 0 30.45 -60.93 0 0 30.48 -30.49 0 0 30.49 -30.49 0 0 30.45 -60.93 0 0 30.48 -30.49 0 0 30.49 -30.45 0 0 30.45 -60.97 0 0 30.48 -30.45 0 0 30.49 -60.97 0 0 30.45 -30.45 0 0 30.48 -30.48 0 0 30.49 -30.49 0 0 30.45 -30.45 0 0 30.48 -30.48 0 0 30.49 -30.49 0 0 30.45 -30.45 0 0 30.49 -30.48 0 0 30.48 -30.49 0 0 30.45 -30.45 0 0 30.49 -30.48 0 0 30.48 -30.49 0 0 60.94 -30.45 0 0 30.48 -30.48 0 0 30.45 -30.49 0 0 60.97 -30.45 0 0 60.94 -30.48 0 0 60.93 -30.49 0 0 30.49 -30.45 0 0 91.42 -30.48 0 0 60.93 -30.49 0 0 121.91 -30.45 0 0 91.42 -30.49 0 0 91.42 -30.48 0 0 243.78 -30.45 0 0 609.45 30.45 0 0 243.82 30.48 0 0 182.84 30.49 0 0 182.84 30.45 0 0 213.29 30.49 0 0 152.39 30.48 0 0 121.87 30.45 0 0 121.91 30.49 0 0 121.9 30.48 0 0 182.84 30.45 0 0 121.87 30.49 0 0 152.39 30.48 0 0 60.94 30.45 0 0 182.84 30.49 0 0 91.42 30.48 0 0 152.36 30.45 0 0 91.42 30.49 0 0 182.84 30.48 0 0 152.39 30.45 0 0 670.39 30.49 0 0 731.36 30.48 0 0 1249.44 30.45 0 0 700.88 30.49 0 0 487.55 30.48 0 0 304.75 30.45 0 0 426.62 30.49 0 0 152.39 30.48 0 0 304.71 30.45 0 0 304.74 30.49 0 0 335.2 30.48 0 0 213.33 30.45 0 0 121.9 30.49 0 0 304.71 30.48 0 0 243.82 30.45 0 0 243.77 30.49 0 0 182.84 30.49 0 0 274.26 30.44 0 0 274.27 30.49 0 0 243.77 30.49 0 0 487.59 30.45 0 0 426.62 30.48 0 0 1889.38 30.49 0 0 335.19 30.45 0 0 213.33 30.48 0 0 152.35 30.49 0 0 91.42 30.45 0 0 121.87 30.48 0 0 60.98 30.49 0 0 60.93 30.45 0 0 30.49 30.48 0 0 30.45 30.49 0 0 30.48 30.45 0 0 30.49 60.97 0 0 30.45 60.93 0 0 30.48 243.78 0 0 -30.48 60.93 0 0 -30.45 60.97 0 0 -30.49 30.45 0 0 -30.48 30.49 0 0 -30.45 30.49 0 0 -30.49 30.44 0 0 -30.48 30.49 0 0 -30.45 30.49 0 0 -30.49 30.45 0 0 -60.93 30.48 0 0 -30.49 30.49 0 0 -60.94 30.45 0 0 -60.93 30.48 0 0 -60.97 30.49 0 0 -60.94 30.45 0 0 -60.93 30.48 0 0 -60.97 30.49 0 0 -91.42 30.45 0 0 -91.42 30.48 0 0 -60.94 30.49 0 0 -91.42 30.45 0 0 -91.42 30.48 0 0 -121.9 30.49 0 0 -60.94 30.45 0 0 -121.91 30.48 0 0 -91.42 30.49 0 0 -121.87 30.45 0 0 -91.42 30.48 0 0 -152.39 30.49 0 0 -91.42 30.45 0 0 -121.87 30.48 0 0 -121.9 30.49 0 0 -152.36 30.45 0 0 -152.39 30.48 0 0 -121.87 30.49 0 0 -152.39 30.45 0 0 -152.36 30.49 0 0 -182.84 30.48 0 0 -91.42 30.45 0 0 -213.33 30.49 0 0 -152.35 30.48 0 0 -182.84 30.45 0 0 -182.84 30.49 0 0 -152.36 30.48 0 0 -213.32 30.45 0 0 -182.85 30.49 0 0 -152.35 30.48 0 0 -243.81 30.45 0 0 -243.78 30.49 0 0 -182.84 30.48 0 0 -304.75 30.45 0 0 -487.55 30.49 0 0 -274.26 30.48 0 0 -883.76 30.45 0 0 -548.52 30.49 0 0 -1523.66 30.48 0 0 -578.97 30.45 0 0 -1371.31 30.49 0 0 -518.07 30.48 0 0 -304.71 30.45 0 0 -91.42 30.49 0 0 -121.91 30.48 0 0 -182.84 30.45 0 0 -182.84 30.49 0 0 -91.42 30.48 0 0 -182.84 30.45 0 0 -182.84 30.49 0 0 -182.85 30.49 0 0 -213.32 30.44 0 0 -213.29 30.49 0 0 -243.81 30.49 0 0 -182.84 30.45 0 0 -304.72 30.48 0 0 -883.75 -30.48 0 0 -121.87 -30.45 0 0 -121.91 -30.49 0 0 -121.9 -30.49 0 0 -60.94 -30.44 0 0 -60.93 -30.49 0 0 -60.94 -30.49 0 0 -60.97 -30.45 0 0 -30.45 -30.48 0 0 -60.97 -30.49 0 0 -30.45 -30.45 0 0 -60.97 -30.48 0 0 -30.45 -30.49 0 0 -30.48 -30.45 0 0 -30.49 -60.97 0 0 -60.94 -60.93 0 0 -30.48 -30.49 0 0 -30.45 -30.45 0 0 -30.49 -30.48 0 0 -30.48 -30.49 0 0 -30.45 -60.93 0 0 -30.49 -30.49 0 0 -30.48 -30.45 0 0 -30.45 -30.48 0 0 -30.49 -60.94 0 0 -30.48 -30.48 0 0 -30.45 -30.49 0 0 -30.49 -30.45 0 0 -30.48 -60.97 0 0 -30.45 -30.45 0 0 -30.49 -30.48 0 0 -30.48 -30.49 0 0 -30.45 -30.45 0 0 -30.49 -60.97 0 0 -30.48 -30.45 0 0 -30.45 -30.49 0 0 -30.49 -30.48 0 0 -30.48 -60.94 0 0 -30.45 -30.48 0 0 -30.49 -30.45 0 0 -30.48 -30.49 0 0 -30.45 -60.93 0 0 -30.49 -60.97 0 0 -30.48 -30.45 0 0 -30.45 -60.97 0 0 -30.49 -60.94 0 0 -30.49 -60.93 0 0 -30.44 -121.91 0 0 -30.49 -243.78 0 0 30.49z"/>
 </g>
</svg>
