<?xml version="1.0" encoding="UTF-8"?>
<!DOCTYPE svg PUBLIC "-//W3C//DTD SVG 1.1//EN" "http://www.w3.org/Graphics/SVG/1.1/DTD/svg11.dtd">
<!-- Creator: CorelDRAW (Versión de evaluación) -->
<svg xmlns="http://www.w3.org/2000/svg" xml:space="preserve" width="739px" height="2458px" version="1.1" style="shape-rendering:geometricPrecision; text-rendering:geometricPrecision; image-rendering:optimizeQuality; fill-rule:evenodd; clip-rule:evenodd"
viewBox="0 0 739 2457.4"
 xmlns:xlink="http://www.w3.org/1999/xlink"
 xmlns:xodm="http://www.corel.com/coreldraw/odm/2003">
 <defs>
  <style type="text/css">
   <![CDATA[
    .str0 {stroke:#373435;stroke-width:10;stroke-miterlimit:22.9256}
    .fil0 {fill:#FEFEFE}
   ]]>
  </style>
 </defs>
 <g id="tooth-fissure-full-32">
  <metadata id="CorelCorpID_0Corel-Layer"/>
  <path id="root" class="fil0 str0" d="M649.47 793.8c-4.4,112.08 -32.6,296.97 -48.58,415.16l-57.77 833.93c-3.74,93.57 14.15,346.4 -21.4,412.25 -114.72,14.34 -128.61,-41.27 -172.3,-118.95 -285.18,-507.25 -216.43,-1074.36 -304.34,-1531.14 67.93,32.21 130.32,94.96 207.57,126.17 198.47,80.21 250.75,-73.41 396.82,-137.42zm-225.98 1463.04l-8.33 0 0 8.33 8.33 0 0 -8.33zm162.23 -828.96l-1.73 24.99 -2.21 0 0 -12.49 -4.16 0 0 -12.5 8.1 0zm-3.75 54.15l-0.19 2.71 0 -2.71 0.19 0zm-0.29 4.17l-2.02 29.16 -2.04 0 0 8.33 -4.17 0 0 4.16 -4.16 0 0 4.17 -4.17 0 0 8.33 -4.16 0 0 4.17 -4.17 0 0 4.16 4.17 0 0 4.17 0 4.16 4.16 0 0 4.17 4.17 0 0 8.33 4.16 0 0 4.17 2.17 0 -2.17 31.34 0 -6.35 -4.16 0 0 -20.83 -4.17 0 0 -8.33 -4.16 0 0 -8.33 -4.17 0 0 -4.17 -4.16 0 0 -4.16 -4.17 0 0 8.33 -4.17 0 0 4.17 -4.16 0 0 4.16 -4.17 0 0 4.17 -4.16 0 0 16.66 -4.17 0 0 4.16 8.33 0 0 4.17 8.33 0 0 12.5 -24.99 0 0 -4.17 -4.17 0 0 -4.16 -8.33 0 0 4.16 -4.16 0 0 4.17 -4.17 0 0 4.16 -4.16 0 -8.34 0 -12.49 0 0 -8.33 -4.17 0 0 -4.16 -4.16 0 0 -8.34 4.16 0 0 -8.33 -4.16 0 0 -4.16 -4.17 0 0 -4.17 -8.33 0 0 -4.16 -20.83 0 0 -4.17 -4.16 0 -16.67 0 0 4.17 -8.33 0 0 -8.33 4.17 0 0 -4.17 -4.17 0 0 -4.17 -4.16 0 0 -4.16 -8.34 0 0 -4.17 -4.16 0 0 -4.16 -8.33 0 0 -4.17 -4.17 0 0 4.17 -4.16 0 0 8.33 -4.17 0 0 -4.17 -8.33 0 0 -4.16 -4.17 0 0 4.16 -12.49 0 0 4.17 -12.5 0 0 4.16 -4.17 0 0 4.17 -8.33 0 0 4.17 -8.33 0 0 4.16 -8.33 0 0 4.17 -4.17 0 0 -4.17 4.17 0 0 -4.16 4.17 0 0 -4.17 4.16 0 0 -4.17 4.17 0 0 -4.16 8.33 0 0 -4.17 4.16 0 0 -8.33 4.17 0 0 -4.17 4.16 0 0 -8.33 4.17 0 0 -8.33 4.17 0 0 -12.49 4.16 0 0 -4.17 4.17 0 0 -12.5 -4.17 0 0 -4.16 -4.16 0 0 -4.17 4.16 0 0 -4.16 12.5 0 0 -4.17 4.17 0 0 -8.33 4.16 0 0 12.5 -4.16 0 0 12.49 4.16 0 0 12.5 4.17 0 0 4.17 0 4.16 4.16 0 0 4.17 12.5 0 0 4.16 8.33 0 0 4.17 4.17 0 0 8.33 4.16 0 0 4.16 4.17 0 0 4.17 4.16 0 0 4.17 4.17 0 0 4.16 4.16 0 0 4.17 8.34 0 0 4.16 4.16 0 0 4.17 12.5 0 0 4.17 8.33 0 0 -4.17 4.17 0 0 4.17 4.16 0 0 8.33 4.17 0 0 4.16 4.16 0 0 4.17 4.17 0 0 4.16 4.16 0 0 4.17 20.83 0 0 -4.17 8.33 0 0 -4.16 4.17 0 0 -4.17 4.16 0 0 -4.16 4.17 0 0 -8.33 4.17 0 0 -8.34 4.16 0 0 -4.16 4.17 0 0 -4.17 4.16 0 0 -8.33 4.17 0 0 -8.33 4.16 0 0 -4.17 8.34 0 0 -8.33 4.16 0 0 -4.16 4.17 0 0 -8.33 4.16 0 0 -12.5 4.17 0 0 -4.17 4.16 0 0 -4.16 8.23 0zm-8.37 120.8l-0.57 8.33 -7.62 0 0 -4.16 -4.16 0 -12.5 0 0 -8.33 4.17 0 0 -8.34 8.33 0 0 4.17 4.16 0 0 8.33 8.19 0zm-11.25 162.46l-1.73 25 -7.7 0 0 4.16 -4.17 0 0 4.17 -4.17 0 0 4.16 -8.33 0 0 4.17 -12.49 0 0 4.16 -4.17 0 0 20.83 -4.17 0 0 20.83 -4.16 0 0 4.17 -4.17 0 0 -20.83 -4.16 0 0 -12.5 -4.17 0 0 -8.33 -4.16 0 0 -4.17 -4.17 0 0 -4.16 -8.33 0 0 -4.17 -8.33 0 0 8.33 -4.17 0 0 33.33 -4.16 0 0 24.99 4.16 0 0 8.33 4.17 0 0 4.17 8.33 0 0 4.17 4.16 0 0 4.16 4.17 0 0 4.17 8.33 0 0 8.33 4.17 0 0 4.16 -12.5 0 0 -4.16 -4.17 0 0 -4.17 -8.33 0 0 -4.16 -8.33 0 0 -4.17 -8.33 0 0 -4.16 -4.16 0 0 -4.17 -8.34 0 0 4.17 -4.16 0 0 4.16 -4.17 0 0 4.17 -4.16 0 0 8.33 -4.17 0 0 8.33 -4.16 0 0 8.33 -4.17 0 0 4.17 -4.17 0 0 4.16 -4.16 0 0 12.5 -4.17 0 0 16.66 4.17 0 0 12.5 -4.17 0 0 8.33 -4.16 0 0 16.66 -4.17 0 0 12.5 -4.16 0 0 20.83 -4.17 0 0 16.66 4.17 0 0 8.33 4.16 0 0 4.17 8.33 0 0 4.16 -20.83 0 0 4.17 -4.16 0 0 12.5 -4.17 0 0 12.49 -4.16 0 0 8.33 -4.17 0 0 4.17 -4.16 0 0 4.17 -4.17 0 0 4.16 -4.16 0 0 4.17 -8.34 0 0 8.33 4.17 0 0 12.5 4.17 0 0 16.66 4.16 0 0 4.16 4.17 0 0 4.17 4.16 0 0 4.16 12.5 0 0 4.17 16.66 0 0 4.17 16.66 0 0 -4.17 4.17 0 0 -4.17 8.33 0 0 -4.16 45.82 0 0 -4.17 8.33 0 4.17 0 0 -4.16 4.17 0 0 -8.33 4.16 0 0 12.49 8.33 0 16.67 0 0 -4.16 20.04 0c0.36,22.74 0.71,46.69 0.83,70.81l-4.21 0 0 4.17 4.23 0c0.02,4.16 0.03,8.33 0.03,12.5l-8.43 0 0 8.33 -4.16 0 0 4.16 -4.17 0 0 4.17 -12.5 0 0 16.66 -8.33 0 -4.16 0 0 12.5 4.16 0 0 12.5 -8.33 0 0 -4.17 -4.16 0 0 -4.17 4.16 0 0 -4.16 -4.16 0 0 -16.66 -8.34 0 -8.33 0 0 4.16 4.17 0 0 4.17 4.16 0 0 8.33 -8.33 0 0 -4.17 -8.33 0 0 -4.16 -4.16 0 0 8.33 -4.17 0 0 8.33 -4.16 0 0 4.17 -4.17 0 0 12.49 -4.17 0 0 4.17 12.5 0 0 4.16 4.17 0 0 8.33 -4.17 0 0 4.17 -16.66 0 0 -4.17 -4.17 0 0 -4.16 -4.16 0 0 -4.17 -8.33 0 0 -4.16 -8.34 0 0 -4.17 -4.16 0 -4.17 0 0 4.17 -12.49 0 0 -4.17 -4.17 0 0 4.17 -8.33 0 0 4.16 -4.17 0 0 4.17 -4.16 0 0 4.16 -4.17 0 0 8.34 -12.49 0 0 12.49 -2.54 0c-2.89,-5.36 -5.89,-10.85 -9.05,-16.46 -0.81,-1.45 -1.59,-2.91 -2.4,-4.37l1.49 0 0 -4.16 8.33 0 0 -4.17 4.17 0 0 -8.33 4.16 0 0 -8.33 0 -12.5 4.17 0 0 -8.33 4.16 0 0 -4.16 -4.16 0 0 -8.33 4.16 0 0 -12.5 8.33 0 0 -16.66 4.17 0 0 -4.17 -4.17 0 0 -8.33 -4.16 0 0 -12.5 -4.17 0 0 -12.49 -4.16 0 0 -8.34 -4.17 0 0 -4.16 -4.16 0 0 -8.33 -4.17 0 0 -4.17 -4.17 0 0 -8.33 4.17 0 0 -4.17 -4.17 0 0 -4.16 -4.16 0 0 -8.33 -4.17 0 0 -8.33 -4.16 0 0 -4.17 -8.34 0 0 -4.16 -8.33 0 0 4.16 -4.16 0 0 -4.16 -4.17 0 0 4.16 -12.49 0 0 4.17 -8.34 0 0 -4.17 -12.49 0 0 4.17 -12.5 0 0 -4.17 4.17 0 0 -4.16 8.33 0 0 -8.34 49.98 0 0 -4.16 -8.33 0 0 -8.33 8.33 0 0 -4.17 4.17 0 0 -4.16 4.17 0 0 -4.17 12.49 0 4.17 0 0 -8.33 4.17 0 0 -4.17 4.16 0 0 -8.33 4.17 0 0 -8.33 4.16 0 0 -8.33 4.17 0 0 -8.33 4.16 0 0 -37.49 4.17 0 0 -20.83 4.16 0 0 -16.66 4.17 0 0 -8.33 -12.5 0 0 4.16 -8.33 0 0 12.5 -4.16 0 0 4.16 -4.17 0 0 12.5 -4.16 0 0 4.17 -4.17 0 0 4.16 -4.17 0 0 4.17 -4.16 0 0 -8.33 4.16 0 0 -4.17 4.17 0 0 -8.33 4.17 0 0 -8.33 4.16 0 0 -8.33 4.17 0 0 -4.17 -4.17 0 0 -12.5 8.33 0 0 -4.16 4.17 0 0 -8.33 4.16 0 0 -25 -8.33 0 0 4.17 -4.16 0 0 4.16 -4.17 0 0 8.33 4.17 0 0 4.17 -8.33 0 0 -24.99 4.16 0 0 -4.17 4.17 0 0 -8.33 -4.17 0 -4.16 0 0 -4.17 -8.34 0 0 -4.16 -12.49 0 0 -4.17 -4.17 0 0 -12.49 -4.17 0 0 -4.17 -4.16 0 0 -8.33 4.16 0 0 4.16 12.5 0 0 12.5 8.33 0 0 4.17 12.5 0 0 -4.17 4.17 0 0 -8.33 4.16 0 0 -8.33 4.17 0 0 -4.17 4.16 0 0 -4.16 4.17 0 0 -12.5 4.16 0 0 -8.33 4.17 0 0 -12.5 4.17 0 0 -4.16 -4.17 0 0 -12.5 -4.17 0 0 -4.17 -4.16 0 0 -4.16 -4.17 0 0 -4.17 4.17 0 0 -12.49 4.16 0 0 -8.34 4.17 0 0 -8.33 4.17 0 0 -8.33 4.16 0 0 -4.16 4.17 0 0 -4.17 4.16 0 0 4.17 4.17 0 0 8.33 -8.33 0 0 4.16 -4.17 0 0 8.33 4.17 0 0 4.17 4.16 0 0 -4.17 4.17 0 0 -8.33 12.5 0 0 8.33 -4.17 0 0 4.17 -4.17 0 0 4.17 -4.16 0 0 4.16 -4.17 0 0 8.33 4.17 0 0 4.17 4.16 0 0 4.16 -8.33 0 -4.16 0 0 12.5 -4.17 0 0 20.83 -4.16 0 0 16.66 -4.17 0 0 8.33 -4.17 0 0 12.5 -4.16 0 0 8.33 4.16 0 0 4.17 4.17 0 0 8.33 4.17 0 0 4.16 4.16 0 0 4.17 8.33 0 0 -4.17 4.17 0 0 -4.16 0 -4.17 4.16 0 0 -4.16 4.17 0 0 -4.17 4.17 0 0 -4.16 4.16 0 0 -4.17 4.17 0 0 -4.17 4.16 0 0 -4.16 4.17 0 0 -4.17 4.16 0 0 -8.33 4.17 0 0 -8.33 4.17 0 0 -16.66 4.16 0 0 -4.17 -4.16 0 0 -33.32 -4.17 0 0 -8.33 -4.17 0 0 -4.17 -8.33 0 0 -4.17 -8.33 0 0 -4.16 12.5 0 0 4.16 12.5 0 0 -4.16 -4.17 0 0 -4.17 -8.33 0 0 -4.16 -4.17 0 0 -4.17 8.33 0 0 4.17 12.5 0 0 -4.17 4.17 0 0 -12.49 4.16 0 0 -8.34 4.17 0 0 -4.16 4.16 0 0 -4.17 4.17 0 0 -4.16 4.16 0 0 -4.17 4.17 0 0 -4.16 29.16 0 0 4.16 -12.5 0 0 4.17 -8.33 0 0 4.16 -4.16 0 0 4.17 -4.17 0 0 12.5 -4.17 0 0 8.33 -4.16 0 0 4.16 -4.17 0 0 -8.33 -4.16 0 0 8.33 -4.17 0 0 8.33 8.33 0 0 8.33 8.33 0 0 4.17 4.17 0 0 4.17 4.17 0 0 4.16 4.16 0 0 4.17 4.17 0 4.16 0 8.33 0 0 -4.17 8.34 0 0 -4.16 16.66 0 0 -8.34 4.16 0 0 -4.16 16.67 0 0 -12.5 1.1 0zm-19.41 324.92c0.02,2.74 0.04,5.51 0.07,8.33l-2.59 0 0 -8.33 -4.17 0 0 -4.16 4.17 0 0 4.16 2.52 0zm-81.67 360.87c-2.87,-0.49 -5.65,-1.05 -8.33,-1.7l0 -0.92 -3.54 0 -0.63 -0.18 0 -28.98 -4.16 0 0 -4.17 8.33 0 0 -4.16 16.66 0 0 16.66 -4.16 0 0 4.17 -4.17 0 0 19.28zm-302.52 -664.96c-0.53,-2.78 -1.05,-5.56 -1.57,-8.34l0 -4.16 0 -4.16 -1.57 0c-0.5,-2.78 -0.98,-5.56 -1.48,-8.33l7.21 0 0 4.16 4.17 0 0 16.66 -4.17 0 0 4.17 -2.59 0zm-5.36 -29.16l-0.38 -2.11 0 -2.05 -0.36 0c-2.21,-12.5 -4.33,-25 -6.35,-37.5l2.55 0 0 8.34 4.16 0 0 16.66 4.17 0 0 16.66 -3.79 0zm-8.71 -51.79l-0.38 -2.36 0.38 0 0 2.36zm-6.05 -39.85c-0.4,-2.78 -0.8,-5.56 -1.19,-8.33l3.08 0 0 -4.17 4.16 0 0 -4.17 4.17 0 0 -8.33 4.16 0 0 -4.16 4.17 0 0 -4.17 4.16 0 0 -8.33 4.17 0 0 -4.17 4.16 0 0 -8.33 4.17 0 0 -4.16 4.17 0 0 -4.17 -4.17 0 0 -4.16 -12.5 0 0 -4.17 16.67 0 0 -4.17 4.16 0 0 -4.16 -4.16 0 0 -4.17 -4.17 0 0 -4.16 -12.5 0 0 -4.17 -12.49 0 0 -4.16 -4.17 0 0 -4.17 12.5 0 0 -8.33 8.33 0 0 -12.5 -4.17 0 0 4.17 -12.49 0 0 4.16 -24.67 0c-0.48,-4.16 -0.94,-8.33 -1.4,-12.49l1.07 0 0 4.16 20.83 0 0 -4.16 8.33 0 0 -4.17 4.17 0 0 -4.17 4.16 0 0 -4.16 8.33 0 0 -4.17 8.34 0 0 -4.16 8.33 0 0 -4.17 4.16 0 0 -41.65 -4.16 0 0 -8.34 -4.17 0 0 -4.16 -4.16 0 0 -20.83 -4.17 0 0 -12.5 -4.17 0 0 -8.33 -12.49 0 0 4.17 -4.17 0 0 4.16 -16.66 0 0 4.17 -4.17 0 0 4.17 -4.16 0 0 -8.34 4.16 0 0 -4.16 12.5 0 0 -4.17 8.33 0 0 -4.16 8.33 0 0 -4.17 4.17 0 0 -8.33 4.16 0 0 -4.17 4.17 0 0 -12.49 -4.17 0 0 -8.33 -4.16 0 0 -12.5 -4.17 0 0 -8.33 -4.16 0 0 -4.17 -4.17 0 0 -4.16 0 -8.33 -4.16 0 0 -16.67 4.16 0 0 -4.16 8.33 0 0 -8.33 4.17 0 0 -4.17 8.33 0 0 -4.17 -4.17 0 0 -16.66 -4.16 0 0 -12.5 -12.5 0 0 -4.16 -8.33 0 0 -4.17 0 -4.16 -4.16 0 0 -16.66 -4.17 0 0 -8.34 -4.17 0 0 -8.33 -4.16 0 0 -4.16 -4.17 0 0 -4.17 -4.16 0 0 -4.16 -8.33 0 0 4.16 -4.17 0 0 8.33 -8.33 0 0 -8.33 4.16 0 0 -8.33 4.17 0 0 -8.33 4.17 0 0 -29.16 4.16 0 0 -4.17 8.33 0 0 -4.16 4.17 0 0 -8.33 4.16 0 0 -4.17 4.17 0 0 -4.17 4.17 0 0 -4.16 4.16 0 0 -8.33 4.17 0 0 -8.33 4.16 0 0 -4.17 8.33 0 0 -4.16 4.17 0 0 -16.67 4.16 0 0 -54.15 4.17 0 0 -16.66 4.17 0 0 -12.5 4.16 0 0 -12.5 -4.16 0 0 -8.33 4.16 0 0 -4.16 4.17 0 0 -8.34 4.16 0 0 -4.16 4.17 0 0 -8.33 -4.17 0 0 -12.5 -4.16 0 0 -8.33 -4.17 0 0 -33.33 -12.5 0 0 -4.16 -4.16 0 0 -4.17 -4.17 0 -4.16 0 0 -4.16 -4.17 0 0 -4.17 -4.16 0 0 -4.16 -8.33 0 0 -4.17 -12.5 0 0 -4.17 4.16 0 0 -4.16 -4.16 0 0 -4.17 -4.17 0 0 -8.33 -4.16 0 0 -8.33 -4.17 0 0 -4.16 -4.16 0 0 -4.17 -4.17 0 0 -4.17 -4.17 0 0 -12.49 4.17 0 0 4.16 4.17 0 0 4.17 4.16 0 0 4.16 4.17 0 0 4.17 4.16 0 0 4.17 4.17 0 0 4.16 4.16 0 0 4.17 4.17 0 0 4.16 4.17 0 0 4.17 4.16 0 0 4.16 8.33 0 0 4.17 8.33 0 0 4.16 4.17 0 0 4.17 4.16 0 0 4.17 8.34 0 0 4.16 4.16 0 0 4.17 16.66 0 0 -4.17 5.87 0c3.57,2.09 7.17,4.13 10.8,6.12l0 2.21 -4.17 0 0 4.17 -8.33 0 0 4.16 -4.17 0 0 16.67 -4.16 0 0 4.16 4.16 0 0 16.66 4.17 0 0 12.5 4.17 0 0 8.33 4.16 0 0 12.5 -8.33 0 0 4.17 -4.17 0 0 33.32 -4.16 0 0 16.66 -4.17 0 0 8.33 4.17 0 0 25 -4.17 0 0 29.16 -4.16 0 0 4.16 4.16 0 0 8.34 4.17 0 0 4.16 12.5 0 0 4.17 4.16 0 0 -4.17 8.33 0 0 4.17 -4.16 0 0 8.33 4.16 0 0 4.16 4.17 0 0 4.17 4.16 0 0 4.16 8.33 0 0 4.17 8.34 0 0 4.17 4.16 0 0 4.16 -8.33 0 0 -4.16 -12.5 0 0 -4.17 -8.33 0 0 -4.17 -4.16 0 0 -4.16 -8.33 0 0 -4.17 -8.34 0 0 -4.16 -8.33 0 0 -4.17 -8.33 0 0 -4.16 -4.16 0 0 -4.17 -8.34 0 0 4.17 -4.16 0 0 4.16 -4.17 0 0 4.17 -4.16 0 0 4.16 -4.17 0 0 8.33 -4.16 0 0 8.34 -4.17 0 0 8.33 -4.16 0 0 4.16 -4.17 0 0 4.17 -8.33 0 0 4.17 -4.17 0 0 8.33 -4.16 0 0 8.33 4.16 0 0 8.33 -4.16 0 0 4.16 4.16 0 0 4.17 4.17 0 0 8.33 4.16 0 0 4.17 4.17 0 0 4.16 4.17 0 0 8.33 4.16 0 0 8.34 4.17 0 0 4.16 0 4.17 4.16 0 0 12.49 8.33 0 0 4.17 12.5 0 0 8.33 4.17 0 0 12.5 4.16 0 0 4.16 4.17 0 0 8.33 4.16 0 0 4.17 12.5 0 0 4.17 4.17 0 0 4.16 8.33 0 0 4.17 -8.33 0 0 -4.17 -8.34 0 0 -4.16 -20.82 0 0 4.16 -4.17 0 0 4.17 -4.17 0 0 4.16 -4.16 0 0 4.17 -4.17 0 0 8.33 -4.16 0 0 4.17 4.16 0 0 8.33 4.17 0 0 8.33 4.16 0 0 4.16 4.17 0 0 8.33 4.17 0 0 4.17 4.16 0 0 16.66 8.33 0 0 4.17 20.83 0 0 -4.17 16.66 0 0 -4.16 20.83 0 0 4.16 -4.16 0 0 4.17 -4.17 0 0 4.16 -8.33 0 0 -4.16 -4.17 0 0 4.16 -8.33 0 0 4.17 -4.16 0 0 12.5 -4.17 0 0 -8.33 -4.16 0 0 -4.17 -20.83 0 0 4.17 -4.17 0 0 4.16 -4.16 0 0 4.17 4.16 0 0 8.33 4.17 0 0 12.5 4.16 0 0 20.82 4.17 0 0 12.5 4.16 0 0 8.33 4.17 0 0 8.33 4.17 0 0 4.17 4.16 0 0 49.99 4.17 0 0 16.66 4.16 0 0 8.33 4.17 0 0 20.83 4.16 0 0 16.66 0 8.33 12.5 0 0 4.17 -8.33 0 0 8.33 4.16 0 0 12.5 -4.16 0 0 -4.17 -4.17 0 0 -4.16 -8.33 0 0 4.16 -12.49 0 0 4.17 4.16 0 0 4.16 8.33 0 0 4.17 8.33 0 0 4.16 8.33 0 0 -4.16 4.17 0 0 8.33 -4.17 0 0 8.33 4.17 0 0 4.17 4.17 0 0 4.16 8.33 0 0 4.17 4.16 0 0 8.33 4.17 0 0 4.16 4.16 0 0 4.17 8.34 0 0 4.17 29.16 0 0 4.16 8.33 0 0 4.17 -29.16 0 0 -4.17 -16.67 0 0 -4.16 -16.66 0 0 4.16 -4.16 0 0 8.33 -4.17 0 0 16.67 -4.17 0 0 8.33 -4.16 0 0 4.16 -4.17 0 0 -4.16 4.17 0 0 -12.5 4.16 0 0 -16.66 4.17 0 0 -4.17 4.17 0 0 -4.16 4.16 0 0 -4.17 4.17 0 0 -8.33 -4.17 0 0 -4.17 -8.33 0 0 -4.16 -12.5 0 0 -4.17 4.17 0 0 -8.33 -4.17 0 0 -4.16 -4.16 0 0 -4.17 -8.33 0 0 -4.17 -8.33 0 0 -4.16 -8.34 0 0 -4.17 -4.16 0 0 4.17 -8.33 0 0 4.16 -12.5 0 0 4.17 -12.5 0 -8.33 0 0 4.17 -4.16 0 0 4.16 -4.17 0 0 4.17 -6.05 0zm22.71 -512.38l-4.16 0 0 -4.17 4.16 0 0 4.17zm337.42 958.1l-4.16 0 0 -4.16 4.16 0 0 4.16zm-262.44 -524.87l-4.16 0 0 -4.17 4.16 0 0 4.17zm204.12 841.46l-4.16 0 0 -4.16 4.16 0 0 4.16zm-237.44 -1328.84l-4.17 0 0 -4.17 4.17 0 0 4.17zm237.44 662.34l-4.16 0 0 -4.17 4.16 0 0 4.17zm-37.49 -104.14l-4.16 0 0 -4.17 4.16 0 0 4.17zm16.66 408.23l-4.16 0 0 -4.17 4.16 0 0 4.17zm-270.76 -712.33l-4.17 0 0 -4.16 4.17 0 0 4.16zm124.97 233.28l-4.17 0 0 -8.33 4.17 0 0 8.33zm79.14 504.04l-4.16 0 0 -8.33 4.16 0 0 8.33zm187.46 -37.49l-4.17 0 0 -8.33 4.17 0 0 8.33zm-33.33 58.32l-4.16 0 0 -8.33 4.16 0 0 8.33zm-208.28 -474.88l-8.33 0 0 -4.17 8.33 0 0 4.17zm54.15 399.9l-4.16 0 0 -8.33 4.16 0 0 8.33zm158.3 112.47l-4.17 0 0 -8.33 4.17 0 0 8.33zm-116.64 -245.77l-4.17 0 0 -8.33 -8.33 0 0 -4.17 -4.16 0 0 12.5 4.16 0 0 4.16 4.17 0 0 4.17 8.33 0 0 -8.33zm87.48 416.56l-8.33 0 0 -4.16 8.33 0 0 4.16zm-329.09 -720.65l-8.33 0 0 -4.17 8.33 0 0 4.17zm249.94 108.3l-4.16 0 0 -8.33 4.16 0 0 8.33zm-79.15 374.91l-8.33 0 0 -4.16 8.33 0 0 4.16zm154.13 224.95l-8.33 0 0 -4.17 8.33 0 0 4.17zm-224.94 -720.66l-4.17 0 0 -8.33 4.17 0 0 8.33zm245.77 554.03l-4.16 0 0 -12.5 4.16 0 0 12.5zm-249.94 -291.6l-4.16 0 0 -4.16 -4.17 0 0 -4.17 8.33 0 0 8.33zm54.16 308.26l-4.17 0 0 4.17 -4.17 0 0 -8.33 8.34 0 0 4.16zm-179.13 -724.82l-4.16 0 0 4.17 -4.17 0 0 -8.34 8.33 0 0 4.17zm179.13 683.17l-8.34 0 0 -4.17 4.17 0 0 -4.16 4.17 0 0 8.33zm87.47 -487.38l-4.16 0 0 -4.17 -4.17 0 0 -8.33 4.17 0 0 4.16 4.16 0 0 8.34 4.17 0 0 4.16 4.17 0 0 4.17 -8.34 0 0 4.16 -4.16 0 0 8.33 4.16 0 0 8.34 -4.16 0 0 20.82 -8.33 0 0 -20.82 4.16 0 0 -8.34 -4.16 0 0 -8.33 4.16 0 0 -4.16 4.17 0 0 -4.17 4.16 0 0 -4.16zm-58.32 437.39l-8.33 0 0 -8.33 8.33 0 0 8.33zm87.48 133.3l0 4.17 -4.16 0 0 8.33 4.16 0 0 4.16 4.17 0 0 4.17 20.83 0 0 4.16 8.33 0 0 -4.16 8.33 0 0 -4.17 4.17 0 0 -4.16 4.16 0 0 -4.17 -4.16 0 0 -4.16 -4.17 0 0 -4.17 -4.16 0 0 -4.17 12.49 0 0 -4.16 4.17 0 0 -4.17 4.16 0 0 4.17 4.17 0 0 4.16 4.16 0 0 -4.16 4.17 0 0 -4.17 4.17 0 0 -4.16 -4.17 0 0 -4.17 -24.99 0 0 -4.16 -4.17 0 0 4.16 -8.33 0 0 4.17 -8.33 0 0 8.33 -4.17 0 0 -4.17 -8.33 0 0 4.17 -4.16 0 0 4.16 -4.17 0 0 4.17 -4.17 0zm-258.27 -987.26l4.17 0 0 8.33 4.16 0 0 8.33 -4.16 0 0 -4.16 -4.17 0 0 -8.33 -4.16 0 0 -16.67 4.16 0 0 12.5zm-12.49 279.1l-4.17 0 0 4.16 -8.33 0 0 -12.49 4.17 0 0 -4.17 8.33 0 0 12.5zm-20.83 -208.28l-4.17 0 0 4.16 -4.16 0 0 4.17 -4.17 0 0 4.16 -4.16 0 0 -8.33 4.16 0 0 -12.5 12.5 0 0 8.34zm295.76 270.76l-8.33 0 0 8.34 8.33 0 0 -8.34zm-216.61 -395.73l4.16 0 0 4.16 -4.16 0 0 8.33 -12.5 0 0 -8.33 -4.17 0 0 -4.16 4.17 0 0 -4.17 12.5 0 0 4.17zm283.26 649.84l8.33 0 0 -4.17 -4.16 0 0 -4.16 -4.17 0 0 8.33zm-66.65 466.55l4.17 0 0 -24.99 -16.67 0 0 16.66 12.5 0 0 8.33zm-220.78 -1078.9l-4.17 0 0 8.33 -8.33 0 0 -16.66 4.17 0 0 -8.33 4.16 0 0 -4.17 4.17 0 0 20.83zm224.95 541.53l4.16 0 0 25 -4.16 0 0 8.33 -4.17 0 0 -37.49 4.17 0 0 4.16zm-162.47 -124.97l-4.16 0 0 12.5 12.5 0 0 16.66 -4.17 0 0 -4.16 -4.17 0 0 -4.17 -4.16 0 0 -4.16 -4.17 0 0 8.33 -4.16 0 0 4.16 -8.33 0 0 -8.33 4.16 0 0 -4.16 -4.16 0 0 -8.34 4.16 0 0 -4.16 4.17 0 0 -12.5 12.49 0 0 8.33zm216.62 737.32l4.16 0 0 8.34 -8.33 0 0 4.16 -8.33 0 0 8.33 4.17 0 0 16.66 4.16 0 0 4.17 -4.16 0 0 8.33 -4.17 0 0 4.17 -12.49 0 0 -4.17 4.16 0 0 -8.33 8.33 0 0 -4.17 -4.16 0 0 -4.16 -4.17 0 0 -4.17 -4.16 0 0 -4.16 -4.17 0 0 -12.5 4.17 0 0 -4.16 8.33 0 0 -8.34 4.16 0 0 -4.16 12.5 0 0 4.16zm-120.8 -845.62l-4.17 0 0 -4.17 -4.17 0 0 24.99 4.17 0 0 -12.49 4.17 0 0 -8.33zm112.47 287.43l-4.17 0 0 4.16 4.17 0 0 -4.16zm4.16 -33.33l4.17 0 0 -8.33 -4.17 0 0 8.33zm-283.26 -137.47l-4.17 0 0 4.17 -8.33 0 0 4.17 -4.16 0 0 4.16 -4.17 0 0 4.17 -4.17 0 0 4.16 -4.16 0 0 4.17 12.5 0 0 -4.17 12.49 0 0 -4.16 4.17 0 0 -16.67zm4.16 -95.81l-4.16 0 0 12.5 4.16 0 0 -12.5zm283.27 733.16l-4.17 0 0 4.16 4.17 0 0 -4.16zm49.99 -20.83l-12.5 0 0 4.17 -8.33 0 0 4.16 12.5 0 0 -4.16 8.33 0 0 -4.17zm8.33 -8.33l-4.17 0 0 4.17 4.17 0 0 -4.17zm-45.82 -24.99l-4.17 0 0 -4.17 -4.17 0 0 24.99 4.17 0 0 -12.49 4.17 0 0 -8.33zm8.33 20.82l4.16 0 0 -24.99 -4.16 0 0 4.17 -4.17 0 0 8.33 4.17 0 0 12.49z"/>
  <path id="crown" class="fil0 str0" d="M219.75 878.56c-82.1,-43.32 -186.61,-98.81 -204.82,-182.02 -21.65,-99.04 -22.89,-591.64 12.72,-675.77 74.95,-42.41 357.08,-6.71 465.01,-6.73 168.39,-0.04 262.19,45.66 243.59,192.05 -11.82,93.13 -21.59,489.75 -99.4,553.74 -129.06,106.14 -232.4,216.19 -417.1,118.73zm60.38 -108.99l-8.33 0 0 8.33 8.33 0 0 -8.33zm-62.49 107.88c-7.43,-3.92 -15.02,-7.94 -22.72,-12.07l1.89 0 0 -12.5 4.17 0 0 -8.33 4.17 0 0 -4.17 8.33 0 0 -4.16 4.16 0 0 -8.33 4.17 0 0 -8.33 0 -12.5 4.16 0 0 -8.33 4.17 0 0 -4.17 -4.17 0 0 -8.33 4.17 0 0 -12.5 8.33 0 0 -16.66 4.17 0 0 -4.17 -4.17 0 0 -8.33 -4.16 0 0 -12.49 -4.17 0 0 -12.5 -4.17 0 0 -8.33 -4.16 0 0 -4.17 -4.17 0 0 -8.33 -4.16 0 0 -4.16 -4.17 0 0 -8.34 4.17 0 0 -4.16 -4.17 0 0 -4.17 -4.16 0 0 -8.33 -4.17 0 0 -8.33 -4.17 0 0 -4.16 -8.33 0 0 -4.17 -8.33 0 0 4.17 -4.16 0 0 -4.17 -4.17 0 0 4.17 -12.5 0 0 4.16 -8.33 0 0 -4.16 -12.49 0 0 4.16 -12.5 0 0 -4.16 4.16 0 0 -4.17 8.34 0 0 -8.33 49.98 0 0 -4.17 -8.33 0 0 -8.33 8.33 0 0 -4.17 4.17 0 0 -4.16 4.16 0 0 -4.17 12.5 0 4.17 0 0 -8.33 4.16 0 0 -4.16 4.17 0 0 -8.33 4.16 0 0 -8.34 4.17 0 0 -8.33 4.17 0 0 -8.33 4.16 0 0 -37.49 4.17 0 0 -20.83 4.16 0 0 -16.66 4.17 0 0 -8.33 -12.5 0 0 4.16 -8.33 0 0 12.5 -4.17 0 0 4.17 -4.16 0 0 12.49 -4.17 0 0 4.17 -4.16 0 0 4.16 -4.17 0 0 4.17 -4.16 0 0 -8.33 4.16 0 0 -4.17 4.17 0 0 -8.33 4.16 0 0 -8.33 4.17 0 0 -8.33 4.16 0 0 -4.17 -4.16 0 0 -12.49 8.33 0 0 -4.17 4.17 0 0 -8.33 4.16 0 0 -24.99 -8.33 0 0 4.16 -4.17 0 0 4.17 -4.16 0 0 8.33 4.16 0 0 4.16 -8.33 0 0 -24.99 4.17 0 0 -4.16 4.16 0 0 -8.34 -4.16 0 -4.17 0 0 -4.16 -8.33 0 0 -4.17 -12.5 0 0 -4.16 -4.16 0 0 -12.5 -4.17 0 0 -4.17 -4.16 0 0 -8.33 4.16 0 0 4.17 12.5 0 0 12.5 8.33 0 0 4.16 12.5 0 0 -4.16 4.16 0 0 -8.34 4.17 0 0 -8.33 4.17 0 0 -4.16 4.16 0 0 -4.17 4.17 0 0 -12.5 4.16 0 0 -8.33 4.17 0 0 -12.49 4.16 0 0 -4.17 -4.16 0 0 -12.5 -4.17 0 0 -4.16 -4.16 0 0 -4.17 -4.17 0 0 -4.16 4.17 0 0 -12.5 4.16 0 0 -8.33 4.17 0 0 -8.33 4.16 0 0 -8.33 4.17 0 0 -4.17 4.17 0 0 -4.17 4.16 0 0 4.17 4.17 0 0 8.33 -8.33 0 0 4.17 -4.17 0 0 8.33 4.17 0 0 4.16 4.16 0 0 -4.16 4.17 0 0 -8.33 12.49 0 0 8.33 -4.16 0 0 4.16 -4.17 0 0 4.17 -4.16 0 0 4.16 -4.17 0 0 8.34 4.17 0 0 4.16 4.16 0 0 4.17 -8.33 0 -4.16 0 0 12.5 -4.17 0 0 20.82 -4.17 0 0 16.67 -4.16 0 0 8.33 -4.17 0 0 12.49 -4.16 0 0 8.34 4.16 0 0 4.16 4.17 0 0 8.33 4.16 0 0 4.17 4.17 0 0 4.16 8.33 0 0 -4.16 4.17 0 0 -4.17 0 -4.16 4.16 0 0 -4.17 4.17 0 0 -4.16 4.16 0 0 -4.17 4.17 0 0 -4.17 4.17 0 0 -4.16 4.16 0 0 -4.17 4.17 0 0 -4.16 4.16 0 0 -8.33 4.17 0 0 -8.34 4.16 0 0 -16.66 4.17 0 0 -4.16 -4.17 0 0 -33.33 -4.16 0 0 -8.33 -4.17 0 0 -4.17 -8.33 0 0 -4.16 -8.33 0 0 -4.17 12.5 0 0 4.17 12.49 0 0 -4.17 -4.16 0 0 -4.16 -8.33 0 0 -4.17 -4.17 0 0 -4.16 8.33 0 0 4.16 12.5 0 0 -4.16 4.16 0 0 -12.5 4.17 0 0 -8.33 4.17 0 0 -4.17 4.16 0 0 -4.16 4.17 0 0 -4.17 4.16 0 0 -4.17 4.17 0 0 -4.16 29.16 0 0 4.16 -12.5 0 0 4.17 -8.33 0 0 4.17 -4.17 0 0 4.16 -4.16 0 0 12.5 -4.17 0 0 8.33 -4.16 0 0 4.17 -4.17 0 0 -8.34 -4.16 0 0 8.34 -4.17 0 0 8.33 8.33 0 0 8.33 8.33 0 0 4.16 4.17 0 0 4.17 4.16 0 0 4.16 4.17 0 0 4.17 4.17 0 4.16 0 8.33 0 0 -4.17 8.33 0 0 -4.16 16.67 0 0 -8.33 4.16 0 0 -4.17 16.66 0 0 -12.49 8.34 0 0 4.16 8.33 0 0 -4.16 8.33 0 0 -4.17 12.5 0 0 -4.17 20.82 0 0 4.17 -8.33 0 0 4.17 -12.49 0 0 4.16 -8.34 0 0 4.17 -8.33 0 0 4.16 -4.16 0 0 4.17 -8.33 0 0 4.16 -8.34 0 0 4.17 -8.33 0 0 4.16 -4.16 0 0 4.17 -4.17 0 0 4.17 -8.33 0 0 4.16 -12.5 0 0 4.17 -4.16 0 0 20.83 -4.17 0 0 20.82 -4.16 0 0 4.17 -4.17 0 0 -20.83 -4.16 0 0 -12.49 -4.17 0 0 -8.34 -4.17 0 0 -4.16 -4.16 0 0 -4.17 -8.33 0 0 -4.16 -8.33 0 0 8.33 -4.17 0 0 33.32 -4.17 0 0 25 4.17 0 0 8.33 4.17 0 0 4.16 8.33 0 0 4.17 4.16 0 0 4.17 4.17 0 0 4.16 8.33 0 0 8.33 4.17 0 0 4.17 -12.5 0 0 -4.17 -4.17 0 0 -4.16 -8.33 0 0 -4.17 -8.33 0 0 -4.16 -8.33 0 0 -4.17 -4.17 0 0 -4.17 -8.33 0 0 4.17 -4.16 0 0 4.17 -4.17 0 0 4.16 -4.16 0 0 8.33 -4.17 0 0 8.33 -4.17 0 0 8.34 -4.16 0 0 4.16 -4.17 0 0 4.17 -4.16 0 0 12.49 -4.17 0 0 16.67 4.17 0 0 12.49 -4.17 0 0 8.33 -4.16 0 0 16.67 -4.17 0 0 12.49 -4.17 0 0 20.83 -4.16 0 0 16.66 4.16 0 0 8.34 4.17 0 0 4.16 8.33 0 0 4.17 -20.83 0 0 4.16 -4.16 0 0 12.5 -4.17 0 0 12.5 -4.16 0 0 8.33 -4.17 0 0 4.16 -4.17 0 0 4.17 -4.16 0 0 4.16 -4.17 0 0 4.17 -8.33 0 0 8.33 4.17 0 0 12.5 4.16 0 0 16.66 4.17 0 0 4.17 4.16 0 0 4.16 4.17 0 0 4.17 12.5 0 0 4.16 16.66 0 0 4.17 16.66 0 0 -4.17 4.17 0 0 -4.16 8.33 0 0 -4.17 45.82 0 0 -4.16 8.33 0 4.17 0 0 -4.17 4.16 0 0 -8.33 4.17 0 0 12.5 8.33 0 16.66 0 0 -4.17 20.83 0 0 4.17 4.17 0 4.16 0 0 -4.17 4.17 0 4.16 0 29.16 0 0 -4.16 29.16 0 4.17 0 8.33 0 0 -4.17 12.5 0 0 -4.16 4.16 0 0 -4.17 8.33 0 0 -4.17 12.5 0 0 -4.16 8.33 0 0 -8.33 4.17 0 0 4.16 8.33 0 0 4.17 4.17 0 0 -4.17 4.16 0 0 -4.16 4.17 0 0 -8.34 4.16 0 0 -12.49 4.17 0 0 -4.17 4.16 0 0 -4.16 4.17 0 0 -4.17 4.16 0 0 -4.16 4.17 0 0 -4.17 4.17 0 0 -4.17 4.16 0 0 -4.16 8.33 0 0 -4.17 4.17 0 0 -4.16 4.17 0 0 -12.5 8.33 0 0 12.5 4.16 0 0 4.16 33.33 0 0 -4.16 4.16 0 8.33 0 0 -4.17 8.34 0 0 -4.16 4.16 0 0 -4.17 4.17 0 4.16 0 0 -4.17 14.11 0c-0.63,4.2 -1.27,8.36 -1.93,12.5l-16.34 0 0 4.17 -8.33 0 0 4.16 -8.34 0 0 4.17 -8.33 0 0 12.5 4.17 0 0 12.49 4.16 0 0 8.33 4.17 0 0 8.33 -4.17 0 0 20.83 4.17 0 0 8.34 4.17 0 0 8.33 0 4.16 0 4.17 3.84 0c-1.61,5.75 -3.28,11.31 -5,16.66l-3.01 0 0 -8.33 -4.17 0 0 -8.33 -4.16 0 0 -25 -4.17 0 0 -33.32 -4.16 0 0 -16.66 -4.17 0 0 -4.17 -33.32 0 0 -4.17 -4.17 0 0 4.17 -4.16 0 0 4.17 -4.17 0 0 4.16 -4.17 0 0 4.17 -4.16 0 0 8.33 -16.67 0 0 12.49 -4.16 0 0 16.67 4.16 0 0 4.16 -8.33 0 0 4.17 -4.16 0 0 12.5 4.16 0 0 4.16 4.17 0 0 4.17 4.16 0 0 4.16 -8.33 0 0 -4.16 -8.33 0 0 -4.17 -12.49 0 -4.17 0 0 4.17 -4.17 0 0 4.16 -4.16 0 0 4.17 -4.17 0 0 4.16 -4.16 0 0 4.17 -25 0 0 4.17 4.17 0 0 4.16 -12.5 0 0 4.17 -4.16 0 0 4.16 -4.17 0 0 4.17 -4.16 0 0 -4.17 -4.17 0 0 4.17 -16.66 0 0 4.16 -12.5 0 0 4.17 -4.17 0 0 4.17 -4.16 0 0 4.16 -8.33 0 0 4.17 4.16 0 0 4.16 -4.16 0 0 4.17 -8.33 0 0 4.16 -12.5 0 0 -4.16 4.16 0 0 -25 -16.66 0 0 16.67 12.5 0 0 8.33 -16.66 0 0 4.16 8.33 0 0 12.5 -12.5 0 0 8.33 -4.16 0 0 4.17 -4.17 0 0 4.16 -12.5 0 0 16.67 -8.33 0 -4.16 0 0 12.49 4.16 0 0 12.5 -8.33 0 0 -4.17 -4.17 0 0 -4.16 4.17 0 0 -4.17 -4.17 0 0 -16.66 -8.33 0 -8.33 0 0 4.17 4.17 0 0 4.16 4.16 0 0 8.33 -8.33 0 0 -4.16 -8.33 0 0 -4.17 -4.17 0 0 8.33 -4.16 0 0 8.33 -4.17 0 0 4.17 -4.16 0 0 12.5 -4.17 0 0 4.16 12.5 0 0 4.17 4.16 0 0 8.33 -4.16 0 0 4.16 -16.66 0 0 -4.16 -4.17 0 0 -4.17 -4.16 0 0 -4.16 -8.34 0 0 -4.17 -8.33 0 0 -4.16 -4.16 0 -4.17 0 0 4.16 -12.5 0 0 -4.16 -4.16 0 0 4.16 -8.33 0 0 4.17 -4.17 0 0 4.16 -4.16 0 0 4.17 -4.17 0 0 8.33 -12.5 0 0 12.5 -4.16 0 0 8.33 4.16 0 0 3.74zm-215.79 -620.26c0.28,-8.42 0.59,-16.76 0.93,-24.99l2.41 0 0 8.33 4.17 0 0 16.66 4.17 0 0 16.66 -4.17 0 0 -4.16 -4.17 0 0 -12.5 -3.34 0zm3.94 -83.31c0.36,-5.65 0.73,-11.21 1.12,-16.66l2.45 0 0 -4.17 4.17 0 0 -4.17 4.16 0 0 -8.33 4.17 0 0 -4.16 4.16 0 0 -8.33 4.17 0 0 -4.17 4.16 0 0 -4.16 -4.16 0 0 -4.17 -12.5 0 0 -4.17 16.66 0 0 -4.16 4.17 0 0 -4.17 -4.17 0 0 -4.16 -4.16 0 0 -4.17 -12.5 0 0 -4.16 -4.53 0c0.72,-5.82 1.46,-11.37 2.24,-16.67l6.46 0 0 -12.49 -4.17 0 0 4.16 -1.01 0c1.23,-7.62 2.54,-14.56 3.92,-20.83l5.42 0 0 -4.16 8.33 0 0 -4.17 8.34 0 0 -4.16 4.16 0 0 -19.43c6.3,-1.94 13.27,-3.63 20.83,-5.08l0 49.5 4.17 0 0 16.66 4.16 0 0 8.33 4.17 0 0 20.83 4.16 0 0 16.67 0 8.33 12.5 0 0 4.16 -8.33 0 0 8.33 4.16 0 0 12.5 -4.16 0 0 -4.17 -4.17 0 0 -4.16 -8.33 0 0 4.16 -12.5 0 0 4.17 4.17 0 0 4.17 8.33 0 0 4.16 8.33 0 0 4.17 8.33 0 0 -4.17 4.17 0 0 8.33 -4.17 0 0 8.33 4.17 0 0 4.17 4.16 0 0 4.17 8.34 0 0 4.16 4.16 0 0 8.33 4.17 0 0 4.17 4.16 0 0 4.16 8.33 0 0 4.17 29.16 0 0 4.16 8.33 0 0 4.17 -29.15 0 0 -4.17 -16.67 0 0 -4.16 -16.66 0 0 4.16 -4.17 0 0 8.34 -4.16 0 0 16.66 -4.17 0 0 8.33 -4.16 0 0 4.17 -4.17 0 0 -4.17 4.17 0 0 -12.5 4.16 0 0 -16.66 4.17 0 0 -4.17 4.16 0 0 -4.16 4.17 0 0 -4.17 4.17 0 0 -8.33 -4.17 0 0 -4.16 -8.33 0 0 -4.17 -12.5 0 0 -4.16 4.17 0 0 -8.34 -4.17 0 0 -4.16 -4.16 0 0 -4.17 -8.33 0 0 -4.16 -8.34 0 0 -4.17 -8.33 0 0 -4.16 -4.16 0 0 4.16 -8.33 0 0 4.17 -12.5 0 0 4.16 -12.5 0 -8.33 0 0 4.17 -3.57 0zm195.19 -173.68c5.51,0.09 11.07,0.2 16.66,0.34l0 2.55 4.17 0 0 12.49 4.16 0 0 4.17 0 4.17 4.17 0 0 4.16 12.5 0 0 4.17 8.33 0 0 4.16 4.16 0 0 8.33 4.17 0 0 4.17 4.17 0 0 4.16 4.16 0 0 4.17 4.17 0 0 4.17 4.16 0 0 4.16 8.33 0 0 4.17 4.17 0 0 4.16 12.5 0 0 4.17 8.33 0 0 -4.17 4.16 0 0 4.17 4.17 0 0 8.33 4.16 0 0 4.17 4.17 0 0 4.16 4.17 0 0 4.17 4.16 0 0 4.16 20.83 0 0 -4.16 8.33 0 0 -4.17 4.17 0 0 -4.16 4.16 0 0 -4.17 4.17 0 0 -8.33 4.16 0 0 -8.33 4.17 0 0 -4.17 4.17 0 0 -4.16 4.16 0 0 -8.34 4.17 0 0 -8.33 4.16 0 0 -4.16 8.33 0 0 -8.33 4.17 0 0 -4.17 4.16 0 0 -8.33 4.17 0 0 -8.39c7.18,0.42 14.13,0.79 20.83,1.13l0 7.26 -4.17 0 0 8.33 -4.16 0 0 8.33 -4.17 0 0 4.17 -4.16 0 0 4.16 -4.17 0 0 8.33 -4.17 0 0 4.17 -4.16 0 0 4.17 4.16 0 0 4.16 0 4.17 4.17 0 0 4.16 4.17 0 0 8.33 4.16 0 0 4.17 4.17 0 0 8.33 4.16 0 0 8.33 4.17 0 0 4.17 8.33 0 0 4.16 4.17 0 0 4.17 4.16 0 0 4.17 4.17 0 0 4.16 4.16 0 0 4.17 12.5 0 4.17 0 0 -8.33 -4.17 0 0 -8.34 -4.17 0 0 -12.49 -4.16 0 0 -4.17 -4.17 0 0 -24.99 -4.16 0 0 -4.17 4.16 0 0 4.17 4.17 0 0 4.16 4.16 0 0 8.33 4.17 0 0 8.34 4.17 0 0 20.82 4.16 0 0 8.34 4.17 0 0 4.16 4.16 0 0 4.17 4.17 0 0 4.16 4.16 0 0 4.17 4.17 0 0 4.16 4.16 0 0 4.17 4.17 0 0 8.33 4.17 0 0 8.33 4.16 0 0 4.17 4.17 0 0 4.16 4.16 0 4.17 0 0 4.17 4.16 0 0 4.16 4.17 0 0 4.17 4.17 0 0 4.17 4.16 0 0 4.16 4.17 0 0 -4.16 12.49 0 0 4.16 -12.49 0 0 8.33 4.16 0 0 4.17 4.17 0 0 16.66 37.49 0 0 4.17 24.99 0 37.49 0 16.67 0 0 -4.17 16.66 0 0 -4.17 8.33 0 0 -4.16 8.33 0 0 -4.17 18.6 0c-0.32,2.58 -0.64,5.34 -0.95,8.33l-5.15 0 0 4.17 -8.33 0 0 4.17 -8.33 0 0 4.16 -4.17 0 0 4.17 -12.5 0 0 4.16 -8.33 0 0 4.17 -4.16 0 -4.17 0 0 -4.17 -4.16 0 0 4.17 -8.34 0 0 4.16 -45.82 0 0 -4.16 -8.33 0 -8.33 0 -37.49 0 0 20.83 -4.17 0 0 8.33 -4.16 0 0 12.5 -4.17 0 0 8.33 -4.16 0 0 4.16 -4.17 0 0 8.33 -4.17 0 0 8.33 -4.16 0 0 12.5 -4.17 0 0 16.67 -4.16 0 0 4.16 -4.17 0 0 4.17 -4.16 0 0 -12.5 4.16 0 0 -8.33 -12.5 0 0 -4.17 -8.33 0 0 -8.33 8.33 0 0 4.17 12.5 0 0 -8.34 4.17 0 0 -33.32 4.16 0 0 -8.33 4.17 0 0 8.33 8.33 0 0 -8.33 -8.33 0 0 -4.17 0 -8.33 4.16 0 0 -20.83 4.17 0 0 -16.66 8.33 0 0 -8.33 -4.16 0 0 -4.17 -4.17 0 0 -4.16 -4.17 0 0 -4.17 -4.16 0 0 -4.16 -4.17 0 0 -8.33 -4.16 0 0 -4.17 -8.33 0 0 -4.17 -4.17 0 0 -4.16 -8.33 0 0 -8.33 -4.17 0 0 -8.33 -4.16 0 0 -4.17 -4.17 0 0 -4.17 -8.33 0 0 -4.16 -12.5 0 0 -4.17 -8.33 0 -8.33 0 0 -4.16 -4.16 0 0 -4.17 -12.5 0 0 -4.16 -20.83 0 0 -4.17 -4.17 0 -12.49 0 0 -8.33 4.16 0 0 -8.33 8.33 0 0 4.16 4.17 0 0 8.34 8.33 0 0 -8.34 -4.16 0 0 -20.82 -4.17 0 0 -8.34 -4.17 0 0 -8.33 -4.16 0 0 -4.16 -4.17 0 0 -4.17 -4.16 0 0 8.33 -4.17 0 0 4.17 -4.16 0 0 4.16 -4.17 0 0 4.17 -4.16 0 0 16.66 -4.17 0 0 4.17 8.33 0 0 4.16 8.33 0 0 12.5 -24.99 0 0 -4.16 -4.17 0 0 -4.17 -8.33 0 0 4.17 -4.16 0 0 4.16 -4.17 0 0 4.17 -4.17 0 -8.33 0 -12.49 0 0 -8.33 -4.17 0 0 -4.17 -4.17 0 0 -8.33 4.17 0 0 -8.33 -4.17 0 0 -4.17 -4.16 0 0 -4.16 -8.33 0 0 -4.17 -20.83 0 0 -4.17 -4.17 0 -16.66 0 0 4.17 -8.33 0 0 -8.33 4.17 0 0 -4.17 -4.17 0 0 -4.16 -4.17 0 0 -4.17 -8.33 0 0 -4.16 -4.16 0 0 -4.17 -8.33 0 0 -4.17 -4.17 0 0 4.17 -4.17 0 0 8.33 -4.16 0 0 -4.16 -8.33 0 0 -4.17 -4.17 0 0 4.17 -12.5 0 0 4.16 -12.49 0 0 4.17 -4.17 0 0 4.16 -8.33 0 0 4.17 -8.33 0 0 4.16 -8.33 0 0 4.17 -4.17 0 0 -4.17 4.17 0 0 -4.16 4.16 0 0 -4.17 4.17 0 0 -4.16 4.16 0 0 -4.17 8.34 0 0 -4.16 4.16 0 0 -8.34 4.17 0 0 -4.16 4.16 0 0 -8.33 4.17 0 0 -8.33 4.16 0 0 -12.5 4.17 0 0 -4.17 4.17 0 0 -12.49 -4.17 0 0 -2.89zm414.13 777.7c-4.99,4.18 -9.96,8.35 -14.9,12.5l-3.49 0 0 -4.17 8.33 0 0 -4.17 4.17 0 0 -4.16 5.89 0zm-284.99 137.01c-4.12,-0.46 -8.3,-1.05 -12.5,-1.73l0 -6.15 8.33 0 0 -4.16 -4.17 0 0 -4.17 -4.16 0 0 -4.16 -4.17 0 0 -4.17 -4.16 0 0 -12.5 4.16 0 0 -4.16 8.33 0 0 -8.33 4.17 0 0 -4.17 12.5 0 0 4.17 4.16 0 0 8.33 -8.33 0 0 4.16 -8.33 0 0 8.34 4.17 0 0 16.66 4.16 0 0 4.16 -4.16 0 0 7.88zm24.99 -286.98l-4.17 0 0 -4.16 4.17 0 0 4.16zm-262.44 -524.87l-4.16 0 0 -4.16 4.16 0 0 4.16zm304.1 504.05l-4.17 0 0 -4.17 4.17 0 0 4.17 4.16 0 0 -12.5 4.17 0 0 4.17 4.16 0 0 4.16 4.17 0 0 4.17 -4.17 0 0 4.16 -8.33 0 0 4.17 -4.16 0 0 -8.33zm-99.98 -329.09l-4.16 0 0 -4.17 4.16 0 0 4.17zm-37.49 -104.14l-4.17 0 0 -4.17 4.17 0 0 4.17zm16.66 408.23l-4.16 0 0 -4.16 4.16 0 0 4.16zm195.79 149.97l-4.17 0 0 -4.17 4.17 0 0 4.17zm-341.59 -629.02l-4.16 0 0 -8.33 4.16 0 0 8.33zm79.15 504.05l-4.16 0 0 -8.33 4.16 0 0 8.33zm187.46 -37.49l-4.17 0 0 -8.34 4.17 0 0 8.34zm-33.33 58.31l-4.16 0 0 -8.33 4.16 0 0 8.33zm-208.28 -474.88l-8.33 0 0 -4.17 8.33 0 0 4.17zm337.42 166.63l-8.33 0 0 -4.17 8.33 0 0 4.17zm-283.27 233.27l-4.16 0 0 -8.33 4.16 0 0 8.33zm158.3 112.48l-4.17 0 0 -8.33 4.17 0 0 8.33zm-116.64 -245.78l-4.17 0 0 -8.33 -8.33 0 0 -4.16 -4.16 0 0 12.49 4.16 0 0 4.17 4.17 0 0 4.16 8.33 0 0 -8.33zm87.48 416.57l-8.33 0 0 -4.17 8.33 0 0 4.17zm-79.15 -612.35l-4.17 0 0 -8.34 4.17 0 0 8.34zm-79.15 374.91l-8.33 0 0 -4.17 8.33 0 0 4.17zm154.13 224.94l-8.33 0 0 -4.16 8.33 0 0 4.16zm-224.94 -720.66l-4.17 0 0 -8.33 4.17 0 0 8.33zm245.77 554.04l-4.17 0 0 -12.5 4.17 0 0 12.5zm-249.94 -291.6l-4.17 0 0 -4.17 -4.16 0 0 -4.16 8.33 0 0 8.33zm54.15 308.26l-4.16 0 0 4.16 -4.17 0 0 -8.33 8.33 0 0 4.17zm0 -41.66l-8.33 0 0 -4.17 4.17 0 0 -4.16 4.16 0 0 8.33zm541.54 -337.42l-4.17 0 0 4.17 -4.16 0 0 -8.33 8.33 0 0 4.16zm-216.61 8.33l-8.34 0 0 -4.16 4.17 0 0 -4.17 4.17 0 0 8.33zm-237.45 -158.29l-4.16 0 0 -4.17 -4.17 0 0 -8.33 4.17 0 0 4.17 4.16 0 0 8.33 4.17 0 0 4.16 4.16 0 0 4.17 -8.33 0 0 4.17 -4.16 0 0 8.33 4.16 0 0 8.33 -4.16 0 0 20.83 -8.33 0 0 -20.83 4.16 0 0 -8.33 -4.16 0 0 -8.33 4.16 0 0 -4.17 4.17 0 0 -4.17 4.16 0 0 -4.16zm-58.32 437.39l-8.33 0 0 -8.33 8.33 0 0 8.33zm274.94 158.3l-4.17 0 0 4.16 -4.16 0 0 -8.33 4.16 0 0 -4.16 4.17 0 0 8.33zm-54.16 -112.48l-4.16 0 0 4.17 -4.17 0 0 -8.33 4.17 0 0 -4.17 4.16 0 0 8.33zm-395.73 -337.41l0 -4.17 -4.17 0 0 -8.33 8.33 0 0 4.17 4.17 0 0 16.66 -4.17 0 0 4.16 -4.16 0 0 -12.49zm262.43 424.89l0 4.17 -4.16 0 0 8.33 4.16 0 0 4.17 4.17 0 0 4.16 20.83 0 0 4.17 8.33 0 0 -4.17 8.33 0 0 -4.16 4.16 0 0 -4.17 4.17 0 0 -4.16 -4.17 0 0 -4.17 -4.16 0 0 -4.17 -4.17 0 0 -4.16 12.5 0 0 -4.17 4.17 0 0 -4.16 4.16 0 0 4.16 4.17 0 0 4.17 4.16 0 0 -4.17 4.17 0 0 -4.16 4.16 0 0 -4.17 -4.16 0 0 -4.16 -25 0 0 -4.17 -4.16 0 0 4.17 -8.33 0 0 4.16 -8.33 0 0 8.33 -4.17 0 0 -4.16 -8.33 0 0 4.16 -4.17 0 0 4.17 -4.16 0 0 4.16 -4.17 0zm137.47 -141.63l4.16 0 0 4.17 8.34 0 0 4.16 -16.67 0 0 -8.33 -4.16 0 0 -4.16 4.16 0 0 -4.17 4.17 0 0 8.33zm-133.3 -504.04l-8.33 0 0 8.33 8.33 0 0 -8.33zm66.65 254.1l8.33 0 0 -4.16 -4.17 0 0 -4.17 -4.16 0 0 8.33zm-66.65 466.56l4.16 0 0 -25 -16.66 0 0 16.66 12.5 0 0 8.34zm133.3 -70.82l-8.33 0 0 8.33 8.33 0 0 -8.33zm-129.14 -466.55l4.17 0 0 24.99 -4.17 0 0 8.33 -4.16 0 0 -37.49 4.16 0 0 4.17zm-162.46 -124.97l-4.16 0 0 12.49 12.49 0 0 16.67 -4.16 0 0 -4.17 -4.17 0 0 -4.17 -4.16 0 0 -4.16 -4.17 0 0 8.33 -4.16 0 0 4.17 -8.34 0 0 -8.34 4.17 0 0 -4.16 -4.17 0 0 -8.33 4.17 0 0 -4.17 4.17 0 0 -12.49 12.49 0 0 8.33zm95.81 -108.31l-4.16 0 0 -4.17 -4.17 0 0 25 4.17 0 0 -12.5 4.16 0 0 -8.33zm112.48 287.43l-4.17 0 0 4.16 4.17 0 0 -4.16zm4.16 -33.33l4.17 0 0 -8.33 -4.17 0 0 8.33zm-283.26 -137.46l-4.17 0 0 4.16 -8.33 0 0 4.17 -4.17 0 0 4.16 -4.16 0 0 4.17 -4.17 0 0 4.17 -4.16 0 0 4.16 12.49 0 0 -4.16 12.5 0 0 -4.17 4.17 0 0 -16.66zm4.16 -95.81l-4.16 0 0 12.49 4.16 0 0 -12.49zm283.27 733.15l-4.17 0 0 4.17 4.17 0 0 -4.17zm49.99 -20.83l-12.5 0 0 4.17 -8.33 0 0 4.17 12.49 0 0 -4.17 8.34 0 0 -4.17zm8.33 -8.33l-4.17 0 0 4.17 4.17 0 0 -4.17zm-45.83 -24.99l-4.16 0 0 -4.17 -4.17 0 0 25 4.17 0 0 -12.5 4.16 0 0 -8.33zm8.34 20.83l4.16 0 0 -25 -4.16 0 0 4.17 -4.17 0 0 8.33 4.17 0 0 12.5zm133.3 -49.99l4.16 0 0 -24.99 -4.16 0 0 4.16 -4.17 0 0 8.33 4.17 0 0 12.5z"/>
 </g>
</svg>
