<?xml version="1.0" encoding="UTF-8"?>
<!DOCTYPE svg PUBLIC "-//W3C//DTD SVG 1.1//EN" "http://www.w3.org/Graphics/SVG/1.1/DTD/svg11.dtd">
<!-- Creator: CorelDRAW (Versión de evaluación) -->
<svg xmlns="http://www.w3.org/2000/svg" xml:space="preserve" width="739px" height="2458px" version="1.1" style="shape-rendering:geometricPrecision; text-rendering:geometricPrecision; image-rendering:optimizeQuality; fill-rule:evenodd; clip-rule:evenodd"
viewBox="0 0 739 2457.4"
 xmlns:xlink="http://www.w3.org/1999/xlink"
 xmlns:xodm="http://www.corel.com/coreldraw/odm/2003">
 <defs>
  <style type="text/css">
   <![CDATA[
    .str0 {stroke:#373435;stroke-width:10;stroke-miterlimit:22.9256}
    .fil0 {fill:#FEFEFE}
   ]]>
  </style>
 </defs>
 <g id="tooth-fissure-full-41">
  <metadata id="CorelCorpID_0Corel-Layer"/>
  <path id="root" class="fil0 str0" d="M275.12 2457.4c107.5,-16.13 113.27,-52.85 149.8,-133.64 23.6,-52.19 52.93,-140.56 64.73,-194.36 37.1,-169.04 41.77,-285.97 43.94,-457.91 2.89,-228.73 59.91,-557.32 114.99,-793.57 3.13,-13.39 11.2,-36.51 12.93,-46.27l-6.73 -40.93c-108.72,52.08 -122.28,225.88 -314.54,174.79 -125.7,-33.41 -177.51,-155.31 -322.89,-176.84 113.6,472.34 198.12,732.37 220.72,1232.92l12.67 350.81c4.02,60.94 16.92,33.65 24.38,85zm178.6 -206.89l0.04 -0.11 0 -4.05 1.42 0c14.41,-41.33 27.5,-85.17 34.47,-116.95l0.84 -3.86 -36.73 0 0 -4.16 -8.33 0 -4.16 0 0 -4.17 -4.17 0 0 -8.33 -4.17 0 0 12.5 -8.33 0 -16.66 0 0 -4.17 -20.83 0 0 4.17 -4.16 0 -4.17 0 0 -4.17 -4.16 0 -4.17 0 -29.16 0 0 -4.17 -29.16 0 -4.17 0 -8.33 0 0 -4.16 -12.49 0 0 -4.17 -4.17 0 0 -4.16 -8.33 0 0 -4.17 -12.5 0 0 -4.16 -8.33 0 0 -8.33 -4.17 0 0 4.16 -8.33 0 0 4.17 -0.69 0 1.05 29.16 3.81 0 0 4.16 4.16 0 0 4.17 4.17 0 0 4.16 4.17 0 0 4.17 24.99 0 0 4.16 -4.16 0 0 4.17 12.49 0 0 4.17 4.17 0 0 4.16 4.16 0 0 4.17 4.17 0 0 -4.17 4.16 0 0 4.17 16.67 0 0 4.16 12.49 0 0 4.17 4.17 0 0 4.16 4.17 0 0 4.17 8.33 0 0 4.17 -4.17 0 0 4.16 4.17 0 0 4.17 8.33 0 0 4.16 12.5 0 0 -4.16 -4.17 0 0 -25 16.66 0 0 16.67 -12.49 0 0 8.33 16.66 0 0 4.16 -8.33 0 0 12.5 12.49 0 0 8.33 4.17 0 0 4.17 4.16 0 0 4.16 12.5 0 0 16.66 8.33 0 4.17 0 0 12.5 -4.17 0 0 12.5 8.33 0 0 -4.17 4.17 0 0 -4.16 -4.17 0 0 -4.17 4.17 0 0 -16.66 8.33 0 8.33 0 0 4.16 -4.16 0 0 4.17 -4.17 0 0 8.33 8.29 0zm67.07 -308.26c2.42,-22.29 4.36,-44.37 5.93,-66.65l-6.31 0 0 -4.16 -4.16 0 0 -4.17 0 -4.16 -4.17 0 0 -4.17 -4.16 0 0 -4.17 -4.17 0 0 -4.16 -4.17 0 0 -4.17 -4.16 0 0 -4.16 -4.17 0 0 -4.17 -4.16 0 0 -4.16 -4.17 0 0 -8.34 -4.16 0 0 -8.33 -4.17 0 0 -16.66 -4.16 0 0 -4.17 4.16 0 0 -33.32 4.17 0 0 -8.33 4.16 0 0 -4.17 8.33 0 0 -4.16 8.33 0 0 -4.17 -12.49 0 0 4.17 -12.5 0 0 -4.17 4.17 0 0 -4.16 8.33 0 0 -4.17 4.16 0 0 -4.17 -8.33 0 0 4.17 -12.49 0 0 -4.17 -4.17 0 0 -12.49 -4.17 0 0 0 12.5 0 0 -4.17 8.33 0 0 -4.16 12.5 0 0 -4.17 4.17 0 0 -4.17 4.16 0 0 -4.16 4.17 0 0 -4.17 8.33 0 0 -4.16 4.16 0 0 -8.33 4.17 0 0 -4.17 4.16 0 0 -8.33 4.17 0 0 -4.17 0.81 0c0.08,-4.13 0.17,-8.29 0.28,-12.49l-1.09 0 0 4.16 -12.5 0 0 -4.16 0 -4.17 -4.16 0 0 -24.99 -4.17 0 0 -4.17 0 -4.16 -8.33 0 0 -4.17 -4.16 0 0 -4.17 -8.34 0 0 -4.16 -8.33 0 0 -4.17 -4.16 0 0 -4.16 -8.33 0 0 -4.17 -4.17 0 0 -4.16 -4.17 0 0 -4.17 -4.16 0 0 -4.17 0 0 0 -8.33 4.16 0 0 -4.16 4.17 0 0 -8.33 -4.17 0 0 -8.33 4.17 0 0 -4.17 4.17 0 0 -4.17 8.33 0 0 -4.16 20.82 0 0 -4.17 4.17 0 16.66 0 0 4.17 8.33 0 0 -8.33 -4.16 0 0 -4.17 4.16 0 0 -4.16 4.17 0 0 -4.17 8.33 0 0 -4.17 1.43 0c1,-11 2.08,-22.12 3.22,-33.32l-0.48 0 0 4.16 -8.33 0 0 4.17 -4.17 0 0 8.33 -4.17 0 0 4.17 -4.16 0 0 4.16 -4.17 0 0 4.17 -4.16 0 0 4.16 -4.17 0 0 4.17 -8.33 0 0 4.17 -4.17 0 0 4.16 -12.49 0 0 4.17 -8.33 0 0 -4.17 -4.17 0 0 4.17 -4.16 0 0 8.33 -4.17 0 0 4.16 -4.17 0 0 4.17 -4.16 0 0 4.17 -4.17 0 0 4.16 -20.83 0 0 -4.16 -8.33 0 0 -4.17 -4.16 0 0 -4.17 -4.17 0 0 -4.16 -4.16 0 0 -8.33 -4.17 0 0 -8.33 -4.17 0 0 -4.17 -4.16 0 0 -4.17 -4.17 0 0 -8.33 -4.16 0 0 -8.33 -4.17 0 0 -4.16 -8.33 0 0 -8.34 -4.16 0 0 -4.16 -4.17 0 0 -4.17 4.17 0 0 4.17 4.16 0 0 4.16 16.66 0 0 4.17 4.17 0 0 4.17 4.17 0 0 -8.34 -4.17 0 0 -4.16 -12.5 0 0 -4.17 -8.33 0 0 -4.16 -8.33 0 0 -4.17 -4.17 0 0 -8.33 -4.16 0 0 -4.16 0 0 -4.17 0 0 -4.17 0 -8.33 4.17 0 0 -8.33 4.16 0 0 -12.5 4.17 0 0 -8.33 4.17 0 0 -4.17 4.16 0 0 -4.16 0 -8.33 4.17 0 0 -16.67 -4.17 0 0 -4.16 -8.33 0 0 -8.33 -4.17 0 0 -4.17 -8.33 0 0 -4.16 4.17 0 0 -16.67 4.16 0 0 -12.5 12.5 0 0 -4.16 8.33 0 0 -4.17 0 -4.16 4.17 0 0 -16.66 4.16 0 0 -8.34 4.17 0 0 -8.33 4.17 0 0 -4.16 4.16 0 0 -4.17 4.17 0 0 -4.16 8.33 0 0 4.16 4.16 0 0 8.33 8.33 0 0 -8.33 -4.16 0 0 -8.33 -4.17 0 0 -8.33 -4.16 0 0 -29.16 -4.17 0 0 -4.17 -8.33 0 0 -4.16 -4.16 0 0 -8.33 -4.17 0 0 -4.17 -4.17 0 0 -4.16 -4.16 0 0 -4.17 -4.17 0 0 -8.33 -4.16 0 0 -8.33 -4.17 0 0 -4.17 -8.33 0 0 -4.16 -4.17 0 0 -16.67 -4.16 0 0 -54.15 -4.17 0 0 -16.66 -4.16 0 0 -12.5 -4.17 0 0 -12.5 4.17 0 0 -8.33 -4.17 0 0 -4.16 -4.16 0 0 -8.33 -4.17 0 0 -4.17 -4.17 0 0 -8.33 4.17 0 0 -12.5 4.17 0 0 -8.33 4.16 0 0 -33.32 12.5 0 0 -1.18c-7.04,-1.33 -14.3,-2.96 -21.88,-4.97 -20.8,-5.53 -39.58,-13.49 -57.09,-23.02l-0.18 0 0 4.17 4.17 0 0 4.17 12.49 0 0 4.16 8.34 0 0 4.17 8.33 0 0 4.16 4.16 0 0 4.17 8.33 0 0 4.17 4.17 0 0 16.66 4.16 0 0 4.16 -4.16 0 0 16.66 -4.17 0 0 12.5 -4.16 0 0 8.33 -4.17 0 0 12.5 8.33 0 0 4.17 4.17 0 0 33.32 4.16 0 0 16.66 4.17 0 0 8.34 -4.17 0 0 24.99 4.17 0 0 29.16 4.17 0 0 4.16 -4.17 0 0 8.34 -4.17 0 0 4.16 -12.49 0 0 4.17 -4.17 0 0 -4.17 -8.33 0 0 4.17 4.17 0 0 8.33 -4.17 0 0 4.16 -4.16 0 0 4.17 -4.17 0 0 4.17 -8.33 0 0 4.16 -8.33 0 0 4.17 -4.17 0 0 4.16 8.33 0 0 -4.16 12.5 0 0 -4.17 8.33 0 0 -4.16 4.17 0 0 -4.17 8.33 0 0 -4.17 8.33 0 0 -4.16 8.33 0 0 -4.17 8.33 0 0 -4.16 4.17 0 0 -4.17 8.33 0 0 4.17 4.16 0 0 4.16 4.17 0 0 4.17 4.17 0 0 4.16 4.16 0 0 8.34 4.17 0 0 8.33 4.16 0 0 8.33 4.17 0 0 4.16 4.16 0 0 4.17 8.34 0 0 4.17 4.16 0 0 8.33 4.17 0 0 8.33 -4.17 0 0 8.33 4.17 0 0 4.16 -4.17 0 0 4.17 -4.16 0 0 8.33 -4.17 0 0 4.17 -4.17 0 0 4.16 -4.16 0 0 8.33 -4.17 0 0 8.34 -4.16 0 0 4.16 0 4.17 -4.17 0 0 12.49 -8.33 0 0 4.17 -12.5 0 0 8.33 -4.16 0 0 12.5 -4.17 0 0 4.16 -4.16 0 0 8.34 -4.17 0 0 4.16 -12.5 0 0 4.17 -4.16 0 0 4.16 -8.33 0 0 4.17 8.33 0 0 -4.17 8.33 0 0 -4.16 20.83 0 0 4.16 4.16 0 0 4.17 4.17 0 0 4.16 4.16 0 0 4.17 4.17 0 0 8.33 4.17 0 0 4.17 -4.17 0 0 8.33 -4.17 0 0 8.33 -4.16 0 0 4.16 -4.17 0 0 8.34 -4.16 0 0 4.16 -4.17 0 0 16.66 0 0 -4.16 0 0 -4.16 -4.17 0 0 -4.17 0 -12.49 0 -4.17 4.17 0 0 -4.17 4.16 0 0 -12.49 4.17 0 0 -12.5 -8.33 0 0 4.17 -4.17 0 0 -4.17 -16.66 0 0 4.17 -8.33 0 0 4.16 -8.34 0 0 4.17 -8.33 0 0 4.16 -33.32 0 0 4.17 4.16 0 0 4.16 37.49 0 0 4.17 12.5 0 0 4.17 12.5 0 0 8.33 0 16.66 -12.5 0 0 -4.17 -16.66 0 0 -4.16 -20.83 0 0 4.16 4.17 0 0 4.17 4.16 0 0 4.17 8.33 0 0 -4.17 4.17 0 0 4.17 8.33 0 0 4.16 4.17 0 0 12.5 4.16 0 0 -8.33 4.17 0 0 -4.17 16.66 0 0 4.17 4.17 0 0 8.33 4.16 0 0 8.33 -4.16 0 0 12.5 -4.17 0 0 20.82 -4.17 0 0 12.5 -4.16 0 0 8.33 -4.17 0 0 8.33 -4.16 0 0 4.17 -4.17 0 0 -24.99 4.17 0 0 -4.17 -4.17 0 0 4.17 -4.16 0 0 4.16 -4.17 0 0 8.33 -4.17 0 0 8.33 -4.16 0 0 20.83 -4.17 0 0 8.33 -4.16 0 0 4.17 -4.17 0 0 4.16 -4.16 0 0 4.17 -4.17 0 0 4.17 -4.16 0 0 4.16 -4.17 0 0 4.17 -4.17 0 0 8.33 -4.16 0 0 8.33 -4.17 0 0 4.17 -4.16 0 0 4.16 -4.17 0 -4.17 0 0 4.17 -4.16 0 0 4.16 -4.17 0 0 4.17 -4.16 0 0 4.16 -4.17 0 0 4.17 -4.16 0 0 -4.17 -12.5 0 0 4.17 12.5 0 0 8.33 -4.17 0 0 4.17 -4.16 0 0 16.66 -12.64 0c0.9,6.9 1.79,13.85 2.66,20.83l9.98 0 0 20.83 4.16 0 0 8.33 4.17 0 0 12.49 4.16 0 0 8.34 4.17 0 0 4.16 4.16 0 0 4.17 -12.49 0 0 4.16 -8.33 0 0 4.17 24.99 0 0 4.16 4.16 0 0 12.5 4.17 0 0 16.66 4.17 0 0 4.17 4.16 0 0 4.16 4.17 0 0 -12.49 -4.17 0 0 -8.33 12.5 0 0 -4.17 8.33 0 0 -8.33 -8.33 0 0 4.17 -12.5 0 0 -8.34 -4.16 0 0 -8.33 8.33 0 0 -4.16 16.66 0 0 4.16 4.17 0 0 8.33 4.16 0 0 16.67 4.17 0 0 8.33 4.16 0 0 4.16 4.17 0 0 -4.16 -4.17 0 0 -12.5 -4.16 0 0 -4.16 8.33 0 0 -4.17 -8.33 0 0 -8.33 -4.17 0 0 -4.17 -4.16 0 0 -4.16 -4.17 0 0 -4.17 -4.16 0 0 -8.33 4.16 0 0 -4.17 8.33 0 0 -4.16 12.5 0 0 -4.17 -4.17 0 0 -8.33 4.17 0 0 -4.16 4.17 0 0 -4.17 8.33 0 0 -4.17 8.33 0 0 -4.16 8.33 0 0 -4.17 4.16 0 0 4.17 8.34 0 0 4.16 12.49 0 0 4.17 12.5 0 8.33 0 0 4.17 4.17 0 0 4.16 4.16 0 0 4.17 8.33 0 0 -8.33 -4.16 0 0 -4.17 -4.17 0 0 -4.17 -4.16 0 0 -8.33 -4.17 0 0 -4.16 -4.16 0 0 -4.17 -4.17 0 0 -8.33 -4.17 0 0 -4.16 -4.16 0 0 -8.34 -4.17 0 0 -4.16 -4.16 0 0 -4.17 4.16 0 0 -4.16 12.5 0 0 -4.17 -16.66 0 0 -4.17 -4.17 0 0 -4.16 4.17 0 0 -4.17 4.16 0 0 -4.16 12.5 0 0 -4.17 12.5 0 0 -4.16 4.16 0 0 -4.17 -12.49 0 0 -8.33 -8.34 0 0 -12.5 4.17 0 0 4.17 12.5 0 0 4.16 29.16 0 0 -4.16 8.33 0 0 4.16 4.16 0 0 4.17 4.17 0 0 4.17 8.33 0 0 8.33 4.17 0 0 8.33 4.16 0 0 20.83 8.33 0 0 -12.5 -4.16 0 0 -12.5 -4.17 0 0 -4.16 -4.16 0 0 -8.33 -4.17 0 0 -8.34 -4.17 0 0 -12.49 4.17 0 0 -4.17 4.17 0 0 -8.33 -4.17 0 0 4.17 -4.17 0 0 8.33 -12.49 0 0 -4.17 -4.17 0 0 4.17 -8.33 0 0 4.16 -20.83 0 0 -4.16 -8.33 0 0 -4.17 -4.16 0 0 -4.16 -4.17 0 0 -4.17 -8.33 0 0 -4.17 4.16 0 0 -4.16 4.17 0 12.5 0 0 -8.33 -4.17 0 0 -8.33 -8.33 0 0 4.16 -4.17 0 0 8.33 -8.33 0 0 -8.33 4.17 0 0 -20.83 4.16 0 0 -8.33 4.17 0 0 -8.33 4.17 0 0 -4.16 4.16 0 0 -4.17 4.17 0 0 8.33 4.16 0 0 4.17 4.17 0 0 4.16 -8.33 0 0 12.5 4.16 0 0 4.16 8.33 0 0 -12.49 4.17 0 0 16.66 4.16 0 0 4.17 -8.33 0 0 4.16 -8.33 0 0 12.5 25 0 0 -4.17 4.16 0 0 -4.16 8.33 0 0 4.16 4.17 0 0 4.17 4.16 0 0 4.16 4.17 0 8.33 0 4.17 0 0 4.17 4.16 0 0 4.17 4.17 0 0 4.16 4.16 0 0 4.17 4.17 0 0 4.16 4.17 0 0 4.17 4.16 0 0 4.16 8.33 0 0 4.17 4.17 0 0 4.17 8.33 0 0 4.16 4.17 0 0 4.17 4.16 0 0 4.16 4.17 0 0 25 4.16 0 0 16.66 -4.16 0 0 4.17 -4.17 0 0 4.16 -4.16 0 0 8.33 -4.17 0 0 4.17 -4.17 0 0 4.16 -8.33 0 0 4.17 -4.16 0 0 4.16 -8.33 0 0 4.17 -4.17 0 0 4.17 -4.17 0 -4.16 0 0 0 0 -4.17 -4.17 0 0 -4.17 -4.16 0 0 -4.16 -4.17 0 0 -4.17 -4.16 0 0 -4.16 -29.16 0 0 4.16 12.49 0 0 4.17 8.33 0 0 4.16 4.17 0 0 4.17 4.17 0 0 12.5 4.16 0 0 4.16 -4.16 0 0 4.17 4.16 0 4.17 0 0 4.16 4.16 0 0 -8.33 4.17 0 0 8.33 4.16 0 0 8.34 -8.33 0 0 8.33 -8.33 0 0 4.16 -4.16 0 0 4.17 -4.17 0 0 4.16 -4.17 0 0 4.17 -4.16 0 -4.17 0 -8.33 0 0 -4.17 -4.16 0 0 -4.16 4.16 0 0 -8.33 4.17 0 0 -4.17 4.16 0 0 -4.16 4.17 0 0 -4.17 4.16 0 0 -4.17 -12.49 0 0 4.17 -8.33 0 0 -12.5 -8.33 0 0 4.17 -4.17 0 0 4.16 4.17 0 0 8.34 -4.17 0 0 4.16 -4.17 0 0 8.33 -4.16 0 0 -4.16 -4.17 0 0 -4.17 -16.66 0 0 -12.5 -8.33 0 0 4.17 -8.33 0 0 -4.17 -8.33 0 0 -4.16 -12.5 0 0 -4.17 -20.83 0 0 4.17 8.33 0 0 4.16 12.5 0 0 4.17 8.33 0 0 4.17 8.33 0 0 4.16 4.17 0 0 4.17 8.33 0 0 4.16 8.33 0 0 4.17 8.33 0 0 4.16 4.17 0 0 4.17 4.16 0 0 4.17 -4.16 0 0 8.33 -4.17 0 0 16.66 -4.16 0 0 16.66 4.16 0 0 -4.16 4.17 0 0 -12.5 4.16 0 0 -8.33 4.17 0 0 -4.17 4.16 0 0 -4.16 4.17 0 0 -4.17 8.33 0 0 4.17 4.17 0 0 20.82 4.16 0 0 20.83 4.17 0 0 4.17 4.16 0 0 -20.83 4.17 0 0 -12.5 4.16 0 0 -8.33 4.17 0 0 -4.16 4.17 0 0 -4.17 8.33 0 0 -4.16 8.33 0 0 8.33 4.16 0 0 33.32 4.17 0 0 25 -4.17 0 0 8.33 -4.16 0 0 4.16 -8.33 0 0 4.17 -4.17 0 0 4.16 -4.16 0 0 4.17 -8.34 0 0 8.33 -4.16 0 0 4.17 12.5 0 0 -4.17 4.16 0 0 -4.16 8.33 0 0 -4.17 8.33 0 0 -4.17 8.34 0 0 -4.16 4.16 0 0 -4.17 8.33 0 0 4.17 4.17 0 0 4.16 4.16 0 0 4.17 4.17 0 0 8.33 4.16 0 0 8.33 4.17 0 0 8.33 4.17 0 0 4.17 4.16 0 0 4.16 4.17 0 0 12.5 4.16 0 0 16.66 -4.16 0 0 12.5 4.16 0 0 8.33 0.38 0zm9.58 -133.3c1.04,-25.5 1.76,-51.7 2.3,-79.15l-3.93 0 0 -4.16 -4.16 0 0 -4.17 -4.17 0 0 4.17 -4.16 0 0 8.33 8.33 0 0 4.17 4.16 0 0 8.33 -4.16 0 0 4.16 -4.17 0 0 -4.16 -4.16 0 0 -8.33 -12.5 0 0 8.33 4.17 0 0 4.16 4.16 0 0 4.17 4.17 0 0 4.16 4.16 0 0 8.34 -4.16 0 0 4.16 -4.17 0 0 4.17 8.33 0 4.17 0 0 12.49 4.16 0 0 20.83 1.63 0zm-272.39 -62.48l0 -20.83 -4.17 0 0 -8.33 -4.17 0 0 8.33 -8.33 0 0 -8.33 8.33 0 0 -4.17 0 -8.33 -4.16 0 0 -20.83 -4.17 0 0 -16.66 -8.33 0 0 -8.33 4.17 0 0 -4.17 4.16 0 0 -4.16 4.17 0 0 -4.17 4.16 0 0 -4.16 4.17 0 0 -8.34 4.17 0 0 -4.16 0 0 0 8.33 4.16 0 0 -8.33 4.17 0 0 -4.17 4.16 0 0 -4.16 8.34 0 0 -8.33 4.16 0 0 -8.33 4.17 0 0 -4.17 4.16 0 0 -4.17 8.33 0 0 -4.16 12.5 0 0 -4.17 8.33 0 0 4.17 -4.16 0 0 16.66 -4.17 0 0 8.33 -4.16 0 0 20.83 -4.17 0 0 16.66 0 8.33 -12.5 0 0 4.17 8.33 0 0 8.33 -4.16 0 0 12.5 4.16 0 0 -4.17 4.17 0 0 -4.16 8.33 0 0 4.16 12.5 0 0 4.17 -4.17 0 0 4.16 -8.33 0 0 4.17 -8.33 0 0 4.16 -8.33 0 0 -4.16 -4.17 0 0 8.33 4.17 0 0 8.33 -4.17 0 0 4.17 -4.16 0 0 4.16 -8.33 0 0 4.17 -4.17 0 0 8.33 -4.17 0 0 4.17 -4.16 0 0 4.16 -8.33 0 0 4.17 0 0zm133.3 -216.62l4.16 0 0 4.17 -4.16 0 0 -4.17zm-33.33 -41.65l4.17 0 0 4.16 4.16 0 0 8.33 4.17 0 0 4.17 4.17 0 0 4.16 -4.17 0 0 4.17 0 4.17 -4.17 0 0 4.16 -4.16 0 0 8.33 -4.17 0 0 4.17 -4.16 0 0 8.33 -4.17 0 0 8.33 -4.16 0 0 4.17 -4.17 0 0 -29.16 4.17 0 0 -8.33 4.16 0 0 -4.17 4.17 0 0 -20.83 4.16 0 0 -4.16zm-37.49 87.47l-12.5 0 -4.16 0 0 -8.33 4.16 0 0 -8.33 4.17 0 0 -12.49 4.17 0 0 -4.17 4.16 0 0 29.16 0 4.16zm49.99 -370.74l4.17 0 0 -4.16 -4.17 0 0 4.16zm54.15 283.27l4.17 0 0 -4.17 -4.17 0 0 4.17zm8.33 587.35l4.17 0 0 -4.16 -4.17 0 0 4.16zm-137.46 -437.39l4.16 0 0 -4.17 -4.16 0 0 4.17zm95.81 416.57l4.16 0 0 -4.17 -4.16 0 0 4.17 -4.17 0 0 -12.5 -4.16 0 0 4.16 -4.17 0 0 4.17 -4.16 0 0 4.17 4.16 0 0 4.16 8.33 0 0 4.17 4.17 0 0 -8.33zm-62.49 -903.95l4.17 0 0 -4.17 -4.17 0 0 4.17zm120.81 95.81l4.16 0 0 -4.17 -4.16 0 0 4.17zm-66.65 158.29l4.16 0 0 -4.16 -4.16 0 0 4.16zm-66.65 774.82l4.16 0 0 -4.17 -4.16 0 0 4.17zm74.98 -162.47l4.16 0 0 -8.33 -4.16 0 0 8.33zm33.32 58.32l4.17 0 0 -8.33 -4.17 0 0 8.33zm-154.13 -1112.23l8.34 0 0 -4.16 -8.34 0 0 4.16zm149.97 1149.72l4.16 0 0 -8.33 -4.16 0 0 8.33zm-41.66 -462.38l8.33 0 0 -4.17 -8.33 0 0 4.17zm-99.97 -12.5l4.16 0 0 -8.33 -4.16 0 0 8.33zm154.12 466.55l4.17 0 0 -12.49 -4.17 0 0 12.49zm-24.99 -620.68l4.17 0 0 4.17 4.16 0 0 -8.34 -8.33 0 0 4.17zm24.99 0l12.5 0 0 -4.17 -12.5 0 0 4.17zm-129.13 266.6l8.33 0 0 -4.16 -4.17 0 0 -4.17 -4.16 0 0 8.33zm20.83 437.4l4.16 0 0 4.16 4.17 0 0 -8.33 -4.17 0 0 -4.16 -4.16 0 0 8.33zm54.15 -112.48l4.17 0 0 4.17 4.16 0 0 -8.33 -4.16 0 0 -4.17 -4.17 0 0 8.33zm83.31 -733.15l4.17 0 0 4.16 12.5 0 0 -4.16 -8.33 0 0 -4.17 -8.34 0 0 4.17zm-12.49 137.46l20.83 0 0 -4.16 -20.83 0 0 4.16zm-79.15 -216.61l-4.17 0 0 8.33 -4.16 0 0 8.33 4.16 0 0 -4.16 4.17 0 0 -8.33 4.17 0 0 -16.67 -4.17 0 0 12.5zm4.17 758.15l-4.17 0 0 4.17 -8.33 0 0 4.16 16.66 0 0 -8.33 4.17 0 0 -4.17 -4.17 0 0 -4.16 -4.16 0 0 8.33zm29.16 -687.33l4.16 0 0 4.16 4.17 0 0 4.17 4.16 0 0 4.16 4.17 0 0 -8.33 -4.17 0 0 -12.5 -12.49 0 0 8.34zm-79.15 -124.97l-4.17 0 0 4.16 4.17 0 0 8.33 12.49 0 0 -8.33 4.17 0 0 -4.16 -4.17 0 0 -4.17 -12.49 0 0 4.17zm49.99 958.1l8.33 0 0 8.33 -8.33 0 0 -8.33zm-45.83 -920.61l4.17 0 0 8.33 8.33 0 0 -16.66 -4.17 0 0 -8.33 -4.16 0 0 -4.17 -4.17 0 0 20.83zm-62.48 416.56l4.16 0 0 12.5 -12.49 0 0 16.66 4.16 0 0 -4.16 4.17 0 0 -4.17 4.16 0 0 -4.16 4.17 0 0 8.33 4.17 0 0 4.16 8.33 0 0 -8.33 -4.17 0 0 -4.16 4.17 0 0 -8.33 -4.17 0 0 -4.17 -4.16 0 0 -12.5 -12.5 0 0 8.33z"/>
  <path id="crown" class="fil0 str0" d="M16.78 752.82c146.62,39.86 159.19,87.55 275.23,159.21 155.4,95.96 212.37,-24.46 285.55,-101.9 52.21,-55.25 94.62,-40.4 118.71,-95.18 59.14,-134.35 39.17,-410.84 38.67,-552.63 -0.57,-156.98 -88.65,-159.09 -268.23,-162.24 -76.6,-1.36 -343.44,16.68 -390.17,57.95 -98.29,86.81 -82.7,571.94 -59.76,694.79zm410.86 190.61l-6.11 0 0 1.48c-33.71,7.23 -73.97,0.33 -124.97,-30.15l0 -0.49 4.17 0 0 -4.16 8.33 0 0 -4.17 45.82 0 0 -4.16 8.33 0 4.17 0 0 -4.17 4.17 0 0 -8.33 4.16 0 0 12.5 8.33 0 16.66 0 0 -4.17 20.83 0 0 4.17 4.17 0 4.16 0 0 -4.17 4.17 0 4.17 0 29.16 0 0 -4.17 29.15 0 4.17 0 3.72 0c-22.54,22.99 -47.11,41.97 -76.76,49.99zm-215.48 -87.48l1.09 0 0 -4.16 4.17 0 0 -4.17 12.49 0 4.17 0 0 -8.33 4.16 0 0 -4.17 4.17 0 0 -8.33 4.16 0 0 -8.33 4.17 0 0 -8.33 4.17 0 0 -8.33 4.16 0 0 -37.49 4.17 0 0 -20.83 4.16 0 0 -16.66 4.17 0 0 -8.33 -12.5 0 0 4.16 -8.33 0 0 12.5 -4.17 0 0 4.16 -4.16 0 0 12.5 -4.17 0 0 4.17 -4.16 0 0 4.16 -4.17 0 0 4.17 -4.16 0 0 -8.33 4.16 0 0 -4.17 4.17 0 0 -8.33 4.16 0 0 -8.33 4.17 0 0 -8.33 4.16 0 0 -4.17 -4.16 0 0 -12.49 8.33 0 0 -4.17 4.17 0 0 -8.33 4.16 0 0 -25 -8.33 0 0 4.17 -4.17 0 0 4.17 -4.16 0 0 8.33 4.16 0 0 4.16 -8.33 0 0 -24.99 4.17 0 0 -4.17 4.16 0 0 -8.33 -4.16 0 -4.17 0 0 -4.16 -8.33 0 0 -4.17 -12.49 0 0 -4.17 -4.17 0 0 -12.49 -4.17 0 0 -4.17 -4.16 0 0 -8.33 4.16 0 0 4.17 12.5 0 0 12.49 8.33 0 0 4.17 12.5 0 0 -4.17 4.16 0 0 -8.33 4.17 0 0 -8.33 4.17 0 0 -4.17 4.16 0 0 -4.16 4.17 0 0 -12.5 4.16 0 0 -8.33 4.17 0 0 -12.5 4.16 0 0 -4.16 -4.16 0 0 -12.5 -4.17 0 0 -4.16 -4.16 0 0 -4.17 -4.17 0 0 -4.17 4.17 0 0 -12.49 4.16 0 0 -8.33 4.17 0 0 -8.34 4.16 0 0 -8.33 4.17 0 0 -4.16 4.17 0 0 -4.17 4.16 0 0 4.17 4.17 0 0 8.33 -8.33 0 0 4.16 -4.17 0 0 8.34 4.17 0 0 4.16 4.16 0 0 -4.16 4.17 0 0 -8.34 12.49 0 0 8.34 -4.16 0 0 4.16 -4.17 0 0 4.17 -4.16 0 0 4.16 -4.17 0 0 8.33 4.17 0 0 4.17 4.16 0 0 4.17 -8.33 0 -4.16 0 0 12.49 -4.17 0 0 20.83 -4.17 0 0 16.66 -4.16 0 0 8.33 -4.17 0 0 12.5 -4.16 0 0 8.33 4.16 0 0 4.17 4.17 0 0 8.33 4.16 0 0 4.17 4.17 0 0 4.16 8.33 0 0 -4.16 4.17 0 0 -4.17 0 -4.17 4.16 0 0 -4.16 4.17 0 0 -4.17 4.16 0 0 -4.16 4.17 0 0 -4.17 4.17 0 0 -4.16 4.16 0 0 -4.17 4.17 0 0 -4.17 4.16 0 0 -8.33 4.17 0 0 -8.33 4.16 0 0 -16.66 4.17 0 0 -4.17 -4.17 0 0 -33.32 -4.16 0 0 -8.33 -4.17 0 0 -4.17 -8.33 0 0 -4.16 -8.33 0 0 -4.17 12.5 0 0 4.17 12.49 0 0 -4.17 -4.16 0 0 -4.17 -8.33 0 0 -4.16 -4.17 0 0 -4.17 8.33 0 0 4.17 12.5 0 0 -4.17 4.16 0 0 -12.49 4.17 0 0 0 -12.5 0 0 -4.17 -8.33 0 0 -4.16 -12.5 0 0 -4.17 -4.16 0 0 -4.17 -4.17 0 0 -4.16 -4.16 0 0 -4.17 -8.33 0 0 -4.16 -4.17 0 0 -8.33 -4.16 0 0 -4.17 -4.17 0 0 -8.33 -4.17 0 0 -4.17 -4.16 0 0 -4.16 -4.17 0 0 -8.33 -8.33 0 0 -4.17 -37.49 0 0 4.17 -29.16 0 0 -4.17 -8.33 0 0 4.17 -20.83 0 0 -4.17 -4.17 0 0 -4.17 -8.33 0 0 -4.16 70.82 0 0 -4.17 41.66 0 0 4.17 4.16 0 0 4.16 4.17 0 0 8.34 4.16 0 0 4.16 12.5 0 0 -4.16 0 -4.17 4.17 0 0 -24.99 4.16 0 0 -4.17 0 -4.16 8.33 0 0 -4.17 4.17 0 0 -4.17 8.33 0 0 -4.16 8.33 0 0 -4.17 4.17 0 0 -4.16 8.33 0 0 -4.17 4.16 0 0 -4.17 4.17 0 0 -4.16 4.17 0 0 -4.17 0 0 0 -8.33 -4.17 0 0 -4.16 -4.17 0 0 -8.33 4.17 0 0 -8.33 -4.17 0 0 -4.17 -4.16 0 0 -4.17 -8.33 0 0 -4.16 -20.83 0 0 -4.17 -4.17 0 -16.66 0 0 4.17 -8.33 0 0 -8.33 4.17 0 0 -4.17 -4.17 0 0 -4.17 -4.17 0 0 -4.16 -8.33 0 0 -4.17 -4.16 0 0 -4.16 -8.33 0 0 -4.17 -4.17 0 0 4.17 -4.17 0 0 8.33 -4.16 0 0 -4.17 -8.33 0 0 -4.16 -4.17 0 0 4.16 -12.49 0 0 4.17 -12.5 0 0 4.16 -4.17 0 0 4.17 -8.33 0 0 4.17 -8.33 0 0 4.16 -8.33 0 0 4.17 -4.17 0 0 -4.17 4.17 0 0 -4.16 4.16 0 0 -4.17 4.17 0 0 -4.17 4.17 0 0 -4.16 8.33 0 0 -4.17 4.16 0 0 -8.33 4.17 0 0 -4.16 4.16 0 0 -8.33 4.17 0 0 -8.34 4.17 0 0 -12.49 4.16 0 0 -4.17 4.17 0 0 -12.5 -4.17 0 0 -4.16 -4.16 0 0 -4.17 4.16 0 0 -4.16 12.5 0 0 -4.17 4.16 0 0 -8.33 4.17 0 0 12.5 -4.17 0 0 12.49 4.17 0 0 12.5 4.16 0 0 4.17 0 4.16 4.17 0 0 4.17 12.5 0 0 4.16 8.33 0 0 4.17 4.16 0 0 8.33 4.17 0 0 4.17 4.17 0 0 4.16 4.16 0 0 4.17 4.17 0 0 4.16 4.16 0 0 4.17 8.33 0 0 4.16 4.17 0 0 4.17 12.5 0 0 4.17 8.33 0 0 -4.17 4.16 0 0 4.17 4.17 0 0 8.33 4.16 0 0 4.16 4.17 0 0 4.17 4.17 0 0 4.17 4.16 0 0 4.16 20.83 0 0 -4.16 8.33 0 0 -4.17 4.17 0 0 -4.17 4.16 0 0 -4.16 4.17 0 0 -8.33 4.16 0 0 -8.34 4.17 0 0 -4.16 4.17 0 0 -4.17 4.16 0 0 -8.33 4.17 0 0 -8.33 4.16 0 0 -4.16 8.33 0 0 -8.34 4.17 0 0 -4.16 4.17 0 0 -4.17 -4.17 0 0 4.17 -4.17 0 0 4.16 -16.66 0 0 4.17 -4.17 0 0 4.17 -4.16 0 0 -8.34 4.16 0 0 -4.16 12.5 0 0 -4.17 8.33 0 0 -4.16 8.33 0 0 -4.17 4.17 0 0 -8.33 4.17 0 0 -4.17 0 0 4.16 0 0 -4.16 0 -8.33 -4.16 0 0 -8.33 -4.17 0 0 -12.5 -4.17 0 0 -8.33 -4.16 0 0 -4.17 -4.17 0 0 -4.16 0 -8.33 -4.16 0 0 -16.67 4.16 0 0 -4.16 8.33 0 0 -8.33 4.17 0 0 -4.17 8.33 0 0 -4.17 -4.16 0 0 -16.66 -4.17 0 0 -12.5 -12.5 0 0 -4.16 -8.33 0 0 -4.17 0 -4.16 -4.16 0 0 -16.66 -4.17 0 0 -8.34 -4.17 0 0 -8.33 -4.16 0 0 -4.16 -4.17 0 0 -4.17 -4.16 0 0 -4.16 -8.33 0 0 4.16 -4.17 0 0 8.33 -8.33 0 0 -8.33 4.17 0 0 -8.33 4.16 0 0 -8.33 4.17 0 0 -29.16 4.16 0 0 -4.09 1.47 -0.08 6.86 0 0 -0.34c5.76,-0.28 11.32,-0.52 16.67,-0.73l0 1.07 -4.17 0 0 4.17 -8.33 0 0 4.17 -4.17 0 0 8.33 -4.16 0 0 8.33 4.16 0 0 8.33 -4.16 0 0 4.16 4.16 0 0 4.17 4.17 0 0 8.33 4.16 0 0 4.17 4.17 0 0 4.16 4.17 0 0 8.33 4.16 0 0 8.34 4.17 0 0 4.16 0 4.17 4.16 0 0 12.49 8.33 0 0 4.17 12.5 0 0 8.33 4.17 0 0 12.5 4.16 0 0 4.16 4.17 0 0 8.33 4.16 0 0 4.17 12.5 0 0 4.17 4.17 0 0 4.16 8.33 0 0 4.17 -8.33 0 0 -4.17 -8.34 0 0 -4.16 -20.82 0 0 4.16 -4.17 0 0 4.17 -4.16 0 0 4.16 -4.17 0 0 4.17 -4.17 0 0 8.33 -4.16 0 0 4.17 4.16 0 0 8.33 4.17 0 0 8.33 4.17 0 0 4.16 4.16 0 0 8.33 4.17 0 0 4.17 4.16 0 0 16.66 0 0 4.17 0 0 -4.16 4.17 0 0 -4.17 0 -12.5 0 -4.16 -4.17 0 0 -4.17 -4.17 0 0 -12.49 -4.16 0 0 -12.5 8.33 0 0 4.17 4.17 0 0 -4.17 16.66 0 0 4.17 8.33 0 0 4.16 8.33 0 0 4.17 8.33 0 0 4.16 33.33 0 0 4.17 -4.17 0 0 4.16 -37.49 0 0 4.17 -12.5 0 0 4.16 -12.49 0 0 8.34 0 16.66 12.49 0 0 -4.17 16.67 0 0 -4.16 20.82 0 0 4.16 -4.16 0 0 4.17 -4.17 0 0 4.16 -8.33 0 0 -4.16 -4.16 0 0 4.16 -8.34 0 0 4.17 -4.16 0 0 12.5 -4.17 0 0 -8.33 -4.16 0 0 -4.17 -16.66 0 0 4.17 -4.17 0 0 8.33 -4.17 0 0 8.33 4.17 0 0 12.5 4.16 0 0 20.82 4.17 0 0 12.5 4.16 0 0 8.33 4.17 0 0 8.33 4.17 0 0 4.17 4.16 0 0 -25 -4.16 0 0 -4.16 4.16 0 0 4.16 4.17 0 0 4.17 4.16 0 0 8.33 4.17 0 0 8.33 4.17 0 0 20.83 4.16 0 0 8.33 4.17 0 0 4.17 4.16 0 0 4.16 4.17 0 0 4.17 4.16 0 0 4.17 4.17 0 0 4.16 4.17 0 0 4.17 4.16 0 0 8.33 4.17 0 0 8.33 4.16 0 0 4.17 4.17 0 0 4.16 4.16 0 4.17 0 0 4.17 4.16 0 0 4.16 4.17 0 0 4.17 4.17 0 0 4.16 4.16 0 0 4.17 4.17 0 0 -4.17 12.49 0 0 4.17 -12.49 0 0 8.33 4.16 0 0 4.17 4.17 0 0 16.66 37.49 0 0 4.16 24.99 0 8.33 0 0 -4.16 4.17 0 0 4.16 4.17 0 20.83 0 16.66 0 0 -4.16 16.66 0 0 -4.17 8.33 0 0 -4.16 8.22 0c-0.09,4.16 -0.19,8.33 -0.3,12.49l-3.75 0 0 4.17 -4.17 0 0 4.17 -12.5 0 0 4.16 -8.33 0 0 4.17 -4.16 0 -4.17 0 0 -4.17 -4.16 0 0 4.17 -8.33 0 0 4.16 -20.83 0 -4.17 0 0 8.33 4.17 0 0 8.34 -4.17 0 0 20.82 -8.33 0 0 -20.82 4.16 0 0 -8.34 -4.16 0 0 -8.33 -12.5 0 0 -4.16 -8.33 0 -8.33 0 -37.49 0 0 20.83 -4.17 0 0 8.33 -4.16 0 0 12.49 -4.17 0 0 8.33 -4.16 0 0 4.17 -4.17 0 0 4.17 12.5 0 0 4.16 8.33 0 0 4.17 -25 0 0 4.16 -4.16 0 0 12.5 -4.17 0 0 16.66 -4.16 0 0 4.17 -4.17 0 0 4.16 -4.16 0 0 -12.49 4.16 0 0 -8.33 -12.49 0 0 -4.17 -8.34 0 0 -8.33 8.34 0 0 4.16 12.49 0 0 -8.33 4.17 0 0 -8.33 -8.33 0 0 -4.16 -16.67 0 0 4.16 -4.16 0 0 8.33 -4.17 0 0 16.67 -4.16 0 0 8.33 -4.17 0 0 4.16 -4.16 0 0 -4.16 4.16 0 0 -12.5 4.17 0 0 -4.17 -8.33 0 0 -4.16 8.33 0 0 -8.33 4.16 0 0 -4.17 4.17 0 0 -4.16 4.16 0 0 -4.17 4.17 0 0 -8.33 -4.17 0 0 -4.17 -8.33 0 0 -4.16 -12.49 0 0 -4.17 4.16 0 0 -8.33 -4.16 0 0 -4.16 -4.17 0 0 -4.17 -8.33 0 0 -4.17 -8.33 0 0 -4.16 -8.34 0 0 -4.17 -4.16 0 0 4.17 -8.33 0 0 4.16 -12.5 0 0 4.17 -12.5 0 -8.33 0 0 4.17 -4.16 0 0 4.16 -4.17 0 0 4.17 -8.33 0 0 -8.33 4.17 0 0 -4.17 4.16 0 0 -4.17 4.17 0 0 -8.33 4.16 0 0 -4.16 4.17 0 0 -4.17 4.16 0 0 -8.33 4.17 0 0 -4.17 4.17 0 0 -8.33 4.16 0 0 -4.16 4.17 0 0 -4.17 -4.17 0 0 -4.16 -12.5 0 0 -4.17 16.67 0 0 -4.17 4.16 0 0 -4.16 -4.16 0 0 -4.17 -4.17 0 0 -4.16 -12.5 0 0 -4.17 -12.49 0 0 -4.16 -4.17 0 0 -4.17 12.5 0 0 -8.33 8.33 0 0 -12.5 -4.17 0 0 4.17 -12.49 0 0 4.16 -29.16 0 0 -4.16 -8.33 0 0 4.16 -4.17 0 0 4.17 -4.16 0 0 4.17 -8.34 0 0 8.33 -4.16 0 0 8.33 -4.17 0 0 20.83 -8.33 0 0 -12.5 4.17 0 0 -12.5 4.16 0 0 -4.16 4.17 0 0 -8.33 4.16 0 0 -8.34 4.17 0 0 -12.49 -4.17 0 0 -4.17 -4.16 0 0 -8.33 4.16 0 0 4.16 4.17 0 0 8.34 12.5 0 0 -4.17 4.16 0 0 4.17 8.33 0 0 4.16 20.83 0 0 -4.16 8.33 0 0 -4.17 4.17 0 0 -4.17 4.16 0 0 -4.16 8.34 0 0 -4.17 -4.17 0 0 -4.16 -4.16 0 -12.5 0 0 -8.33 4.16 0 0 -8.33 8.34 0 0 4.16 4.16 0 0 8.33 8.33 0 0 -8.33 -4.16 0 0 -20.83 -4.17 0 0 -8.33 -4.16 0 0 -8.33 -4.17 0 0 -4.17 -4.17 0 0 -4.16 -4.16 0 0 8.33 -4.17 0 0 4.17 -4.16 0 0 4.16 8.33 0 0 12.5 -4.17 0 0 4.16 -8.33 0 0 -12.49 -4.16 0 0 16.66 -4.17 0 0 4.17 8.33 0 0 4.16 8.33 0 0 12.5 -24.99 0 0 -4.17 -4.17 0 0 -4.16 -8.33 0 0 4.16 -4.16 0 0 4.17 -4.17 0 0 4.16 -4.16 0 -8.34 0 -4.16 0 0 4.17 -4.17 0 0 4.16 -4.16 0 0 4.17 -4.17 0 0 4.17 -4.17 0 0 4.16 -4.16 0 0 4.17 -4.17 0 0 4.16 -8.33 0 0 4.17 -4.16 0 0 4.17 -8.34 0 0 4.16 -4.16 0 0 4.17 -4.17 0 0 4.16 -4.16 0 0 25 -4.17 0 0 16.66 4.17 0 0 4.16 4.16 0 0 4.17 4.17 0 0 8.33 4.16 0 0 4.17 4.17 0 0 4.16 8.33 0 0 4.17 4.17 0 0 4.16 8.33 0 0 4.17 4.16 0 0 4.17 4.17 0 4.17 0 0 0 0 -4.17 4.16 0 0 -4.17 4.17 0 0 -4.16 4.16 0 0 -4.17 4.17 0 0 -4.16 29.16 0 0 4.16 -12.5 0 0 4.17 -8.33 0 0 4.16 -4.16 0 0 4.17 -4.17 0 0 12.5 -4.17 0 0 4.16 4.17 0 0 4.17 -4.17 0 -4.16 0 0 4.16 -4.17 0 0 -8.33 -4.16 0 0 8.33 -4.17 0 0 8.33 8.33 0 0 8.34 8.33 0 0 4.16 4.17 0 0 4.17 4.17 0 0 4.16 4.16 0 0 4.17 4.17 0 4.16 0 8.33 0 0 -4.17 4.17 0 0 -4.16 -4.17 0 0 -8.33 -4.16 0 0 -4.17 -4.17 0 0 -4.17 -4.16 0 0 -4.16 -4.17 0 0 -4.17 12.5 0 0 4.17 8.33 0 0 -12.5 8.33 0 0 4.17 4.16 0 0 4.16 -4.16 0 0 8.33 4.16 0 0 4.17 4.17 0 0 8.33 4.17 0 0 -4.16 4.16 0 0 -4.17 16.67 0 0 -12.5 8.33 0 0 4.17 8.33 0 0 -4.17 8.33 0 0 -4.16 12.5 0 0 -4.17 20.82 0 0 4.17 -8.33 0 0 4.16 -12.49 0 0 4.17 -8.33 0 0 4.16 -8.34 0 0 4.17 -4.16 0 0 4.17 -8.33 0 0 4.16 -8.33 0 0 4.17 -8.34 0 0 4.16 -4.16 0 0 4.17 -4.17 0 0 4.16 4.17 0 0 8.34 4.16 0 0 16.66 4.17 0 0 16.66 -4.17 0 0 -4.16 -4.16 0 0 -12.5 -4.17 0 0 -8.33 -4.16 0 0 -4.17 -4.17 0 0 -4.16 -4.17 0 0 -4.17 -8.33 0 0 4.17 -4.16 0 0 20.82 -4.17 0 0 20.83 -4.16 0 0 4.17 -4.17 0 0 -20.83 -4.16 0 0 -12.5 -4.17 0 0 -8.33 -4.16 0 0 -4.16 -4.17 0 0 -4.17 -8.33 0 0 -4.17 -8.33 0 0 8.34 -4.17 0 0 33.32 -4.17 0 0 24.99 4.17 0 0 8.34 4.17 0 0 4.16 8.33 0 0 4.17 4.16 0 0 4.16 4.17 0 0 4.17 8.33 0 0 8.33 4.17 0 0 4.17 -12.5 0 0 -4.17 -4.17 0 0 -4.17 -8.33 0 0 -4.16 -8.33 0 0 -4.17 -8.33 0 0 -4.16 -4.17 0 0 -4.17 -8.33 0 0 4.17 -4.16 0 0 4.16 -4.17 0 0 4.17 -4.16 0 0 8.33 -4.17 0 0 8.33 -4.17 0 0 8.33 -4.16 0 0 4.17 -4.17 0 0 4.16 -4.16 0 0 12.5 -4.17 0 0 16.66 4.17 0 0 12.5 -4.17 0 0 8.33 -4.16 0 0 16.66 -4.17 0 0 12.5 -4.17 0 0 20.83 -4.16 0 0 16.66 4.16 0 0 8.33 4.17 0 0 4.17 8.33 0 0 4.17 -20.83 0 0 4.16 -4.16 0 0 12.5 -4.17 0 0 12.49 -4.16 0 0 8.34 -4.17 0 0 4.16 -4.17 0 0 4.17 -4.16 0 0 4.16 -4.17 0 0 4.17 -8.33 0 0 8.33 4.17 0 0 4.2c-7.72,-5.74 -14.97,-11.3 -21.92,-16.7zm271.86 -855.56l-12.5 -0.23 0 1.83 12.5 0 0 -1.6zm66.65 526.48l0 -20.83 4.16 0 0 -8.33 4.17 0 0 8.33 8.33 0 0 -8.33 -8.33 0 0 -4.17 0 -8.33 4.16 0 0 -20.83 4.17 0 0 -16.66 8.33 0 0 -8.33 -4.16 0 0 -4.17 -4.17 0 0 -4.16 -4.17 0 0 -4.17 -4.16 0 0 -4.16 -4.17 0 0 -8.34 -4.16 0 0 -4.16 0 0 0 8.33 -4.17 0 0 -8.33 -4.16 0 0 -4.17 -4.17 0 0 -4.16 -8.33 0 0 -8.33 -4.17 0 0 -8.34 -4.16 0 0 -4.16 -4.17 0 0 -4.17 -8.33 0 0 -4.16 -12.5 0 0 -4.17 -8.33 0 0 4.17 4.17 0 0 16.66 4.16 0 0 8.33 4.17 0 0 20.83 4.17 0 0 16.66 0 8.33 12.49 0 0 4.17 -8.33 0 0 8.33 4.17 0 0 12.5 -4.17 0 0 -4.17 -4.16 0 0 -4.16 -8.34 0 0 4.16 -12.49 0 0 4.17 4.16 0 0 4.16 8.33 0 0 4.17 8.34 0 0 4.16 8.33 0 0 -4.16 4.16 0 0 8.33 -4.16 0 0 8.33 4.16 0 0 4.17 4.17 0 0 4.16 8.33 0 0 4.17 4.16 0 0 8.33 4.17 0 0 4.16 4.17 0 0 4.17 8.33 0 0 4.17 0 0zm-133.3 -216.62l-4.17 0 0 4.17 4.17 0 0 -4.17zm33.32 -41.65l-4.16 0 0 4.16 -4.17 0 0 8.33 -4.16 0 0 4.17 -4.17 0 0 4.16 4.17 0 0 4.17 0 4.16 4.16 0 0 4.17 4.17 0 0 8.33 4.16 0 0 4.17 4.17 0 0 8.33 4.16 0 0 8.33 4.17 0 0 4.17 4.16 0 0 -29.16 -4.16 0 0 -8.34 -4.17 0 0 -4.16 -4.16 0 0 -20.83 -4.17 0 0 -4.16zm37.49 87.47l12.5 0 4.17 0 0 -8.33 -4.17 0 0 -8.33 -4.17 0 0 -12.49 -4.16 0 0 -4.17 -4.17 0 0 29.16 0 4.16zm-104.14 -87.47l-4.16 0 0 -4.17 4.16 0 0 4.17zm-8.33 587.35l-4.16 0 0 -4.16 4.16 0 0 4.16zm137.47 -437.39l-4.17 0 0 -4.17 4.17 0 0 4.17zm-95.81 416.56l-4.17 0 0 -4.16 4.17 0 0 4.16 4.16 0 0 -12.49 4.17 0 0 4.16 4.16 0 0 4.17 4.17 0 0 4.16 -4.17 0 0 4.17 -8.33 0 0 4.17 -4.16 0 0 -8.34zm-58.32 -808.13l-4.17 0 0 -4.17 4.17 0 0 4.17zm358.24 566.53l-4.16 0 0 -4.17 4.16 0 0 4.17zm-37.49 -104.14l-4.16 0 0 -4.17 4.16 0 0 4.17zm-383.24 320.75l-4.16 0 0 -4.16 4.16 0 0 4.16zm129.14 -624.85l-4.17 0 0 -4.16 4.17 0 0 4.16zm-195.79 649.84l-4.16 0 0 -8.33 4.16 0 0 8.33zm187.46 -37.49l-4.17 0 0 -8.33 4.17 0 0 8.33zm-33.33 58.32l-4.16 0 0 -8.33 4.16 0 0 8.33zm-154.13 -74.98l-4.16 0 0 -8.33 4.16 0 0 8.33zm158.3 112.47l-4.17 0 0 -8.33 4.17 0 0 8.33zm41.65 -462.38l-8.33 0 0 -4.17 8.33 0 0 4.17zm249.94 108.3l-4.16 0 0 -8.33 4.16 0 0 8.33zm-479.05 287.43l-8.33 0 0 -4.16 8.33 0 0 4.16zm329.09 -408.23l-4.17 0 0 -8.33 4.17 0 0 8.33zm-154.13 466.55l-4.16 0 0 -12.49 4.16 0 0 12.49zm-145.8 -791.47l-4.16 0 0 -4.17 -4.17 0 0 -4.16 8.33 0 0 8.33zm-104.14 499.88l-4.16 0 0 -4.17 -4.17 0 0 -4.16 8.33 0 0 8.33zm4.17 -179.13l-12.5 0 0 -4.16 12.5 0 0 4.16 16.66 0 0 4.17 -16.66 0 0 -4.17zm270.76 -149.96l-4.16 0 0 4.17 -4.17 0 0 -8.34 8.33 0 0 4.17zm-24.99 0l-12.5 0 0 -4.17 12.5 0 0 4.17zm345.75 258.27l-4.17 0 0 4.17 -4.16 0 0 -8.34 8.33 0 0 4.17zm-216.61 8.33l-8.34 0 0 -4.16 4.17 0 0 -4.17 4.17 0 0 8.33zm-295.77 279.1l-8.33 0 0 -8.33 8.33 0 0 8.33zm220.78 45.82l-4.16 0 0 4.17 -4.17 0 0 -8.33 4.17 0 0 -4.17 4.16 0 0 8.33zm-395.73 -337.42l0 -4.16 -4.17 0 0 -8.33 8.33 0 0 4.16 4.17 0 0 16.67 -4.17 0 0 4.16 -4.16 0 0 -12.5zm312.42 -395.73l-4.17 0 0 4.16 -12.49 0 0 -4.16 8.33 0 0 -4.17 8.33 0 0 4.17zm12.5 137.46l-20.83 0 0 -4.16 20.83 0 0 4.16zm79.14 -216.61l4.17 0 0 8.33 4.17 0 0 8.33 -4.17 0 0 -4.16 -4.17 0 0 -8.33 -4.16 0 0 -16.67 4.16 0 0 12.5zm-4.16 758.15l4.17 0 0 4.17 8.33 0 0 4.16 -16.67 0 0 -8.33 -4.16 0 0 -4.17 4.16 0 0 -4.16 4.17 0 0 8.33zm-29.16 -687.33l-4.17 0 0 4.16 -4.16 0 0 4.17 -4.17 0 0 4.16 -4.16 0 0 -8.33 4.16 0 0 -12.5 12.5 0 0 8.34zm295.76 270.76l-8.33 0 0 8.34 8.33 0 0 -8.34zm-220.78 -358.24l-4.17 0 0 8.33 -8.33 0 0 -16.66 4.17 0 0 -8.33 4.16 0 0 -4.17 4.17 0 0 20.83zm224.95 541.53l4.16 0 0 25 -4.16 0 0 8.33 -4.17 0 0 -37.49 4.17 0 0 4.16zm-162.46 -124.97l-4.17 0 0 12.5 12.5 0 0 16.66 -4.17 0 0 -4.16 -4.16 0 0 -4.17 -4.17 0 0 -4.16 -4.17 0 0 8.33 -4.16 0 0 4.16 -8.33 0 0 -8.33 4.16 0 0 -4.16 -4.16 0 0 -8.34 4.16 0 0 -4.16 4.17 0 0 -12.5 12.5 0 0 8.33zm95.81 -108.3l-4.17 0 0 -4.17 -4.17 0 0 24.99 4.17 0 0 -12.49 4.17 0 0 -8.33z"/>
 </g>
</svg>
