<?xml version="1.0" encoding="UTF-8"?>
<!DOCTYPE svg PUBLIC "-//W3C//DTD SVG 1.1//EN" "http://www.w3.org/Graphics/SVG/1.1/DTD/svg11.dtd">
<!-- Creator: CorelDRAW (Versión OEM) -->
<svg xmlns="http://www.w3.org/2000/svg" xml:space="preserve" width="36.2636mm" height="173.699mm" version="1.1" style="shape-rendering:geometricPrecision; text-rendering:geometricPrecision; image-rendering:optimizeQuality; fill-rule:evenodd; clip-rule:evenodd"
viewBox="0 0 3626.36 17369.86"
 xmlns:xlink="http://www.w3.org/1999/xlink"
 xmlns:xodm="http://www.corel.com/coreldraw/odm/2003">
 <defs>
  <style type="text/css">
   <![CDATA[
    .fil2 {fill:#0B0B0B}
    .fil0 {fill:#EDEAE0}
    .fil1 {fill:#F2E6C9}
   ]]>
  </style>
 </defs>
 <g id="fissure-full">
  <metadata id="CorelCorpID_0Corel-Layer"/>
  <polygon id="crown" class="fil0" points="1333.7,767.79 876.59,767.79 876.59,798.27 632.78,798.27 632.78,828.76 510.91,828.76 510.91,859.21 419.49,859.21 419.49,889.69 358.52,889.69 358.52,920.18 328.07,920.18 328.07,950.63 297.59,950.63 297.59,981.11 267.1,981.11 267.1,1011.6 236.65,1011.6 236.65,1163.95 206.16,1163.95 206.16,1377.28 175.68,1377.28 175.68,1864.83 206.16,1864.83 206.16,2230.52 236.65,2230.52 236.65,2474.29 267.1,2474.29 267.1,2779.04 297.59,2779.04 297.59,2961.88 328.07,2961.88 328.07,3144.72 358.52,3144.72 358.52,3327.56 389.01,3327.56 389.01,3479.92 419.49,3479.92 419.49,3632.31 449.94,3632.31 449.94,3784.66 480.43,3784.66 480.43,3997.99 510.91,3997.99 510.91,4150.34 541.36,4150.34 541.36,4272.25 571.85,4272.25 571.85,4424.61 602.33,4424.61 602.33,4576.96 632.78,4576.96 632.78,4698.87 663.27,4698.87 663.27,4820.77 693.75,4820.77 693.75,4881.71 724.2,4881.71 724.2,5034.06 754.69,5034.06 754.69,5125.48 785.17,5125.48 785.17,5247.39 815.62,5247.39 815.62,5308.33 846.11,5308.33 846.11,5399.75 876.59,5399.75 876.59,5491.17 907.04,5491.17 907.04,5552.14 937.53,5552.14 937.53,5643.56 968.01,5643.56 968.01,5704.49 998.46,5704.49 998.46,5765.43 1028.95,5765.43 1028.95,5826.4 1059.43,5826.4 1059.43,5887.33 1089.88,5887.33 1089.88,5917.82 1120.37,5917.82 1120.37,5978.75 1150.85,5978.75 1150.85,6009.24 1181.3,6009.24 1181.3,6070.17 1211.79,6070.17 1211.79,6100.66 1242.28,6100.66 1242.28,6131.11 1272.72,6131.11 1272.72,6161.59 1303.21,6161.59 1303.21,6192.08 1333.7,6192.08 1333.7,6222.53 1364.15,6222.53 1364.15,6253.02 1394.63,6253.02 1394.63,6283.5 1425.12,6283.5 1425.12,6313.95 1486.05,6313.95 1486.05,6344.44 1546.99,6344.44 1546.99,6374.92 1577.47,6374.92 1577.47,6405.37 1699.38,6405.37 1699.38,6435.86 1973.64,6435.86 1973.64,6405.37 2095.51,6405.37 2095.51,6374.92 2125.99,6374.92 2125.99,6344.44 2217.41,6344.44 2217.41,6313.95 2247.9,6313.95 2247.9,6283.5 2278.35,6283.5 2278.35,6253.02 2339.32,6253.02 2339.32,6222.53 2369.77,6222.53 2369.77,6161.59 2400.26,6161.59 2400.26,6131.11 2430.74,6131.11 2430.74,6100.66 2461.19,6100.66 2461.19,6070.17 2491.68,6070.17 2491.68,6039.69 2522.16,6039.69 2522.16,5978.75 2552.61,5978.75 2552.61,5948.27 2583.1,5948.27 2583.1,5887.33 2613.58,5887.33 2613.58,5826.4 2644.03,5826.4 2644.03,5765.43 2674.52,5765.43 2674.52,5704.49 2705,5704.49 2705,5643.56 2735.45,5643.56 2735.45,5582.59 2765.94,5582.59 2765.94,5521.65 2796.42,5521.65 2796.42,5430.23 2826.87,5430.23 2826.87,5338.81 2857.36,5338.81 2857.36,5247.39 2887.84,5247.39 2887.84,5186.46 2918.29,5186.46 2918.29,5095.03 2948.78,5095.03 2948.78,5034.06 2979.26,5034.06 2979.26,4942.64 3009.71,4942.64 3009.71,4820.77 3040.2,4820.77 3040.2,4698.87 3070.68,4698.87 3070.68,4576.96 3101.13,4576.96 3101.13,4455.09 3131.62,4455.09 3131.62,4241.77 3162.1,4241.77 3162.1,4089.41 3192.55,4089.41 3192.55,3937.02 3223.04,3937.02 3223.04,3784.66 3253.53,3784.66 3253.53,3479.92 3283.97,3479.92 3283.97,3266.63 3314.46,3266.63 3314.46,3083.78 3344.95,3083.78 3344.95,2870.46 3375.4,2870.46 3375.4,2413.36 3405.88,2413.36 3405.88,2017.19 3436.37,2017.19 3436.37,1103.02 3405.88,1103.02 3405.88,1011.6 3375.4,1011.6 3375.4,950.63 3344.95,950.63 3344.95,889.69 3314.46,889.69 3314.46,859.21 3253.53,859.21 3253.53,828.76 3192.55,828.76 3192.55,798.27 3131.62,798.27 3131.62,767.79 2765.94,767.79 2765.94,737.34 1333.7,737.34 "/>
  <polygon id="root" class="fil1" points="2918.29,5674.01 2887.84,5674.01 2887.84,5765.43 2857.36,5765.43 2857.36,5826.4 2826.87,5826.4 2826.87,5856.85 2796.42,5856.85 2796.42,5917.82 2765.94,5917.82 2765.94,5978.75 2735.45,5978.75 2735.45,6039.69 2705,6039.69 2705,6070.17 2674.52,6070.17 2674.52,6131.11 2644.03,6131.11 2644.03,6161.59 2613.58,6161.59 2613.58,6192.08 2583.1,6192.08 2583.1,6222.53 2552.61,6222.53 2552.61,6283.5 2522.16,6283.5 2522.16,6313.95 2491.68,6313.95 2491.68,6344.44 2461.19,6344.44 2461.19,6374.92 2430.74,6374.92 2430.74,6405.37 2369.77,6405.37 2369.77,6435.86 2339.32,6435.86 2339.32,6466.34 2308.84,6466.34 2308.84,6496.79 2247.9,6496.79 2247.9,6527.28 2186.93,6527.28 2186.93,6557.76 2095.51,6557.76 2095.51,6588.21 2034.57,6588.21 2034.57,6618.7 1760.31,6618.7 1760.31,6588.21 1577.47,6588.21 1577.47,6557.76 1516.54,6557.76 1516.54,6527.28 1455.57,6527.28 1455.57,6496.79 1394.63,6496.79 1394.63,6466.34 1364.15,6466.34 1364.15,6435.86 1303.21,6435.86 1303.21,6405.37 1272.72,6405.37 1272.72,6374.92 1242.28,6374.92 1242.28,6344.44 1211.79,6344.44 1211.79,6313.95 1181.3,6313.95 1181.3,6283.5 1150.85,6283.5 1150.85,6253.02 1120.37,6253.02 1120.37,6222.53 1089.88,6222.53 1089.88,6192.08 1059.43,6192.08 1059.43,6131.11 1028.95,6131.11 1028.95,6100.66 998.46,6100.66 998.46,6070.17 968.01,6070.17 968.01,6009.24 937.53,6009.24 937.53,5948.27 907.04,5948.27 907.04,5887.33 876.59,5887.33 876.59,5826.4 846.11,5826.4 846.11,5765.43 815.62,5765.43 815.62,5704.49 785.17,5704.49 785.17,5674.01 754.69,5674.01 754.69,6253.02 785.17,6253.02 785.17,6618.7 815.62,6618.7 815.62,7289.13 846.11,7289.13 846.11,7715.74 876.59,7715.74 876.59,8111.91 907.04,8111.91 907.04,8386.17 937.53,8386.17 937.53,8873.72 968.01,8873.72 968.01,9056.56 998.46,9056.56 998.46,9361.31 1028.95,9361.31 1028.95,9635.57 1059.43,9635.57 1059.43,9848.86 1089.88,9848.86 1089.88,10153.61 1120.37,10153.61 1120.37,10336.45 1150.85,10336.45 1150.85,10580.23 1181.3,10580.23 1181.3,10824.04 1211.79,10824.04 1211.79,11128.75 1242.28,11128.75 1242.28,11433.5 1272.72,11433.5 1272.72,11677.27 1303.21,11677.27 1303.21,12042.95 1333.7,12042.95 1333.7,13779.94 1364.15,13779.94 1364.15,14237.05 1394.63,14237.05 1394.63,14328.47 1425.12,14328.47 1425.12,14419.89 1455.57,14419.89 1455.57,14511.31 1486.05,14511.31 1486.05,14572.28 1516.54,14572.28 1516.54,14602.73 1546.99,14602.73 1546.99,14633.21 1638.41,14633.21 1638.41,14602.73 1668.89,14602.73 1668.89,14572.28 1729.83,14572.28 1729.83,14511.31 1760.31,14511.31 1760.31,14480.86 1790.8,14480.86 1790.8,14450.37 1821.25,14450.37 1821.25,14389.44 1851.73,14389.44 1851.73,14328.47 1882.22,14328.47 1882.22,14267.53 1912.67,14267.53 1912.67,14206.6 1943.15,14206.6 1943.15,14115.18 1973.64,14115.18 1973.64,14054.2 2004.09,14054.2 2004.09,13962.78 2034.57,13962.78 2034.57,13871.36 2065.06,13871.36 2065.06,13779.94 2095.51,13779.94 2095.51,13658.07 2125.99,13658.07 2125.99,13597.1 2156.48,13597.1 2156.48,13475.23 2186.93,13475.23 2186.93,13353.33 2217.41,13353.33 2217.41,13261.91 2247.9,13261.91 2247.9,13109.55 2278.35,13109.55 2278.35,12987.64 2308.84,12987.64 2308.84,12835.29 2339.32,12835.29 2339.32,12743.87 2369.77,12743.87 2369.77,12621.96 2400.26,12621.96 2400.26,12408.64 2430.74,12408.64 2430.74,12286.77 2461.19,12286.77 2461.19,12103.92 2491.68,12103.92 2491.68,11951.53 2522.16,11951.53 2522.16,11707.76 2552.61,11707.76 2552.61,11555.4 2583.1,11555.4 2583.1,11372.56 2613.58,11372.56 2613.58,11128.75 2644.03,11128.75 2644.03,10854.49 2674.52,10854.49 2674.52,10610.71 2705,10610.71 2705,10123.12 2735.45,10123.12 2735.45,9848.86 2765.94,9848.86 2765.94,9208.96 2796.42,9208.96 2796.42,8508.04 2826.87,8508.04 2826.87,7776.68 2857.36,7776.68 2857.36,7471.97 2887.84,7471.97 2887.84,6710.12 2918.29,6710.12 2918.29,6100.66 2948.78,6100.66 2948.78,5613.07 2918.29,5613.07 "/>
  <path id="outline" class="fil2" d="M2918.29 6710.12l-30.45 0 0 761.85 -30.48 0 0 304.71 -30.49 0 0 731.36 -30.45 0 0 700.92 -30.48 0 0 639.9 -30.49 0 0 274.26 -30.45 0 0 487.59 -30.48 0 0 243.78 -30.49 0 0 274.26 -30.45 0 0 243.81 -30.48 0 0 182.84 -30.49 0 0 152.36 -30.45 0 0 243.77 -30.48 0 0 152.39 -30.49 0 0 182.85 -30.45 0 0 121.87 -30.48 0 0 213.32 -30.49 0 0 121.91 -30.45 0 0 91.42 -30.48 0 0 152.35 -30.49 0 0 121.91 -30.45 0 0 152.36 -30.49 0 0 91.42 -30.48 0 0 121.9 -30.45 0 0 121.87 -30.49 0 0 60.97 -30.48 0 0 121.87 -30.45 0 0 91.42 -30.49 0 0 91.42 -30.48 0 0 91.42 -30.45 0 0 60.98 -30.49 0 0 91.42 -30.48 0 0 60.93 -30.45 0 0 60.94 -30.49 0 0 60.97 -30.48 0 0 60.93 -30.45 0 0 30.49 -30.49 0 0 30.45 -30.48 0 0 60.97 -60.94 0 0 30.45 -30.48 0 0 30.48 -91.42 0 0 -30.48 -30.45 0 0 -30.45 -30.49 0 0 -60.97 -30.48 0 0 -91.42 -30.45 0 0 -91.42 -30.49 0 0 -91.42 -30.48 0 0 -457.11 -30.45 0 0 -1736.99 -30.49 0 0 -365.68 -30.49 0 0 -243.77 -30.44 0 0 -304.75 -30.49 0 0 -304.71 -30.49 0 0 -243.81 -30.45 0 0 -243.78 -30.48 0 0 -182.84 -30.49 0 0 -304.75 -30.45 0 0 -213.29 -30.48 0 0 -274.26 -30.49 0 0 -304.75 -30.45 0 0 -182.84 -30.48 0 0 -487.55 -30.49 0 0 -274.26 -30.45 0 0 -396.17 -30.48 0 0 -426.61 -30.49 0 0 -670.43 -30.45 0 0 -365.68 -30.48 0 0 -579.01 30.48 0 0 30.48 30.45 0 0 60.94 30.49 0 0 60.97 30.48 0 0 60.93 30.45 0 0 60.94 30.49 0 0 60.97 30.48 0 0 60.93 30.45 0 0 30.49 30.49 0 0 30.45 30.48 0 0 60.97 30.45 0 0 30.45 30.49 0 0 30.49 30.48 0 0 30.48 30.45 0 0 30.45 30.49 0 0 30.49 30.49 0 0 30.48 30.44 0 0 30.45 30.49 0 0 30.49 60.94 0 0 30.48 30.48 0 0 30.45 60.94 0 0 30.49 60.97 0 0 30.48 60.93 0 0 30.45 182.84 0 0 30.49 57.26 0c-0.64,38.26 -18.28,19.31 -34.93,84.28 -42.53,165.99 -70.6,184.67 -40.53,331.46 18.65,91.07 4.89,82.85 71.34,128.61 -10.28,87.34 4.42,79.98 -71.72,131.68 -0.08,33.99 14.91,41.23 10.91,75.54l-64.57 42.25c6.46,33.14 29.12,59.63 34.16,90.59 5.95,36.67 -17.1,67.22 -21.72,101.93 23.79,6.78 53.93,19.99 74.69,31.52 6.44,23.85 2.99,44.95 12.76,62.77 11.06,20.17 23.09,17 28.76,48.65 4.15,23.13 -4.01,55.46 1.62,73.5 8.17,26.11 21.08,10.86 40.61,33.44 -32.58,70.89 -113.24,58.49 -65.23,184.84 46.17,121.46 -9.85,102.39 -46.48,192.81 61.22,56.34 108.03,8.56 95.95,179.62 -2.74,38.88 -13.38,104.48 6.48,132.38 29.24,41.09 55.56,17.82 45.12,96.66 -71.42,49.13 -35.15,18.76 -72.2,96.24 -31.54,65.94 -46.49,18.32 -28.6,120.44 18.05,102.96 34.51,103.65 39.25,131.25 9.23,53.65 -20.05,71.66 -51.67,118.31 8.91,32.62 29.44,48.67 38.24,96.57l6.44 35.17c5.47,-71.58 -19.48,-79.25 -31.91,-131.74 22.37,-34.28 55.99,-45.51 53.73,-106.99 -1.27,-34.62 -24.8,-88.6 -32.88,-132.04 -18.3,-98.38 -0.71,-58.48 29.04,-115.52 30.88,-59.22 6.8,-54.58 78.07,-85.48 22.92,-208.49 -62.35,-52.14 -44.98,-239.95 12.46,-134.64 28.43,-131.92 -57.98,-213.8 14.58,-34.14 35.58,-51.08 47.68,-99.51 14.85,-59.46 -63.18,-112.07 -5.11,-162.13 21.08,-18.18 19.27,-17.09 35.88,-39.52 23.99,-32.36 43.33,-56.81 63.12,-89.08l-77.38 -48.68c-3.29,-30.39 6.28,-47.62 -2.47,-74.02 -7.88,-23.82 -24.59,-25.05 -31.3,-50.22 -19.26,-72.29 32.8,-71.64 -51.86,-105.51 6.12,-47.89 2.76,-43.79 -4.09,-88.63 27.15,-9.94 42.55,-23.23 66.19,-33.14l-19.21 -76.77c96.75,-67.16 31,-23.11 59.38,-143.03 8.21,-34.73 23.72,-58.66 27.43,-91.98 -52.48,-35.25 -86.15,-55.92 -93.85,-100.49 -21.44,-124.31 26.04,-100.73 30.95,-157.56 6.32,-73.19 -28.75,-27.17 26.42,-112.18 41.87,-64.52 49.23,-88.95 45.98,-122.54l97.47 0 0 -30.49 60.94 0 0 -30.45 91.42 0 0 -30.48 60.97 0 0 -30.49 60.94 0 0 -30.45 30.48 0 0 -30.48 30.45 0 0 -30.49 60.97 0 0 -30.45 30.45 0 0 -30.48 30.49 0 0 -30.49 30.48 0 0 -30.45 30.45 0 0 -60.97 30.49 0 0 -30.45 30.48 0 0 -30.49 30.45 0 0 -30.48 30.49 0 0 -60.94 30.48 0 0 -30.48 30.45 0 0 -60.94 30.49 0 0 -60.93 30.48 0 0 -60.97 30.45 0 0 -30.45 30.49 0 0 -60.97 30.48 0 0 -91.42 30.45 0 0 -60.94 30.49 0 0 487.59 -30.49 0 0 609.46zm-1074.34 -5972.78c13.13,119.84 -17.38,56.03 -45.81,166.98 -59.56,232.45 -98.85,258.62 -56.77,464.2 26.12,127.52 6.86,116.01 99.9,180.1 -14.36,122.31 6.21,112 -100.41,184.42 -0.12,47.58 20.88,57.74 15.27,105.78l-90.43 59.15c9.03,46.41 40.78,83.52 47.83,126.88 8.35,51.34 -23.94,94.13 -30.4,142.73 33.31,9.49 75.53,28.01 104.6,44.15 9.01,33.41 4.18,62.95 17.86,87.91 15.5,28.25 32.35,23.81 40.29,68.14 5.8,32.38 -5.63,77.67 2.25,102.92 11.44,36.57 29.54,15.21 56.89,46.84 -45.62,99.27 -158.59,81.9 -91.36,258.83 64.66,170.11 -13.8,143.42 -65.08,270.05 85.73,78.89 151.28,11.99 134.37,251.52 -3.85,54.47 -18.75,146.34 9.05,185.39 40.96,57.55 77.82,24.97 63.2,135.38 -100.02,68.8 -49.24,26.27 -101.13,134.78 -44.15,92.36 -65.1,25.64 -40.04,168.67 25.27,144.17 48.33,145.15 54.97,183.8 12.92,75.14 -28.07,100.37 -72.35,165.69 12.47,45.67 41.21,68.16 53.56,135.23l9 49.25c7.68,-100.25 -27.27,-110.97 -44.7,-184.48 31.34,-48.01 78.42,-63.74 75.27,-149.84 -1.77,-48.47 -34.73,-124.06 -46.06,-184.93 -25.63,-137.75 -1,-81.88 40.66,-161.76 43.26,-82.94 9.53,-76.43 109.35,-119.7 32.09,-291.98 -87.31,-73.03 -62.98,-336.05 17.44,-188.53 39.79,-184.74 -81.2,-299.4 20.39,-47.82 49.81,-71.55 66.75,-139.37 20.8,-83.25 -88.47,-156.95 -7.16,-227.04 29.54,-25.45 27,-23.93 50.27,-55.34 33.58,-45.34 60.67,-79.57 88.38,-124.76l-108.36 -68.17c-4.61,-42.56 8.78,-66.69 -3.45,-103.67 -11.04,-33.34 -34.44,-35.07 -43.84,-70.33 -26.98,-101.24 45.94,-100.31 -72.63,-147.76 8.58,-67.04 3.85,-61.32 -5.72,-124.12 38.02,-13.92 59.58,-32.53 92.69,-46.41l-26.91 -107.49c135.5,-94.05 43.41,-32.37 83.16,-200.32 11.51,-48.65 33.21,-82.14 38.42,-128.82 -73.48,-49.37 -120.65,-78.31 -131.42,-140.71 -30.03,-174.1 36.45,-141.07 43.32,-220.66 8.85,-102.5 -40.25,-38.04 37.01,-157.1 76.63,-118.1 70.7,-140.29 56.97,-220.56l758.91 0 0 30.45 365.68 0 0 30.48 60.93 0 0 30.49 60.98 0 0 30.45 60.93 0 0 30.48 30.49 0 0 60.94 30.45 0 0 60.97 30.48 0 0 91.42 30.49 0 0 914.17 -30.49 0 0 396.17 -30.48 0 0 457.1 -30.45 0 0 213.32 -30.49 0 0 182.85 -30.49 0 0 213.29 -30.44 0 0 304.74 -30.49 0 0 152.36 -30.49 0 0 152.39 -30.45 0 0 152.36 -30.48 0 0 213.32 -30.49 0 0 121.87 -30.45 0 0 121.91 -30.48 0 0 121.9 -30.49 0 0 121.87 -30.45 0 0 91.42 -30.48 0 0 60.97 -30.49 0 0 91.43 -30.45 0 0 60.93 -30.48 0 0 91.42 -30.49 0 0 91.42 -30.45 0 0 91.42 -30.48 0 0 60.94 -30.49 0 0 60.97 -30.45 0 0 60.93 -30.48 0 0 60.94 -30.49 0 0 60.97 -30.45 0 0 60.93 -30.48 0 0 60.94 -30.49 0 0 30.48 -30.45 0 0 60.94 -30.48 0 0 30.48 -30.49 0 0 30.49 -30.45 0 0 30.45 -30.48 0 0 30.48 -30.49 0 0 60.94 -30.45 0 0 30.49 -60.97 0 0 30.48 -30.45 0 0 30.45 -30.49 0 0 30.49 -91.42 0 0 30.48 -30.48 0 0 30.45 -121.87 0 0 30.49 -274.26 0 0 -30.49 -121.91 0 0 -30.45 -30.48 0 0 -30.48 -60.94 0 0 -30.49 -60.93 0 0 -30.45 -30.49 0 0 -30.48 -30.48 0 0 -30.49 -30.45 0 0 -30.45 -30.49 0 0 -30.49 -30.49 0 0 -30.48 -30.44 0 0 -30.45 -30.49 0 0 -30.49 -30.49 0 0 -60.93 -30.45 0 0 -30.49 -30.48 0 0 -60.93 -30.49 0 0 -30.49 -30.45 0 0 -60.93 -30.48 0 0 -60.97 -30.49 0 0 -60.94 -30.45 0 0 -60.93 -30.48 0 0 -91.42 -30.49 0 0 -60.97 -30.45 0 0 -91.42 -30.48 0 0 -91.42 -30.49 0 0 -60.94 -30.45 0 0 -121.91 -30.48 0 0 -91.42 -30.49 0 0 -152.35 -30.45 0 0 -60.94 -30.48 0 0 -121.9 -30.49 0 0 -121.91 -30.45 0 0 -152.35 -30.48 0 0 -152.36 -30.49 0 0 -121.91 -30.45 0 0 -152.35 -30.48 0 0 -213.33 -30.49 0 0 -152.35 -30.45 0 0 -152.39 -30.48 0 0 -152.36 -30.49 0 0 -182.84 -30.45 0 0 -182.84 -30.48 0 0 -182.84 -30.49 0 0 -304.75 -30.45 0 0 -243.77 -30.49 0 0 -365.69 -30.48 0 0 -487.55 30.48 0 0 -213.33 30.49 0 0 -152.35 30.45 0 0 -30.49 30.49 0 0 -30.48 30.48 0 0 -30.45 30.45 0 0 -30.49 60.97 0 0 -30.48 91.42 0 0 -30.45 121.87 0 0 -30.49 243.81 0 0 -30.48 457.11 0 0 -30.45 510.25 0zm-540.74 -182.84l-304.75 0 0 30.45 -274.26 0 0 30.48 -182.84 0 0 30.49 -91.42 0 0 30.45 -91.42 0 0 30.48 -60.93 0 0 30.49 -60.94 0 0 30.45 -30.49 0 0 30.48 -30.48 0 0 30.49 -30.45 0 0 30.45 -30.49 0 0 30.48 -30.48 0 0 60.94 -30.45 0 0 91.42 -30.49 0 0 152.39 -30.48 0 0 761.81 30.48 0 0 335.2 30.49 0 0 274.26 30.45 0 0 274.26 30.48 0 0 182.84 30.49 0 0 152.4 30.45 0 0 182.84 30.48 0 0 152.35 30.49 0 0 182.84 30.45 0 0 182.84 30.49 0 0 182.84 30.48 0 0 121.91 30.45 0 0 152.36 30.49 0 0 182.84 30.48 0 0 121.9 30.45 0 0 91.42 30.49 0 0 152.36 30.48 0 0 396.17 30.45 0 0 457.1 30.49 0 0 548.52 30.48 0 0 639.94 30.45 0 0 487.56 30.49 0 0 335.23 30.48 0 0 365.68 30.45 0 0 365.68 30.49 0 0 396.13 30.48 0 0 213.33 30.45 0 0 304.75 30.49 0 0 335.19 30.48 0 0 243.78 30.45 0 0 182.84 30.49 0 0 243.78 30.48 0 0 213.32 30.45 0 0 304.75 30.49 0 0 243.77 30.48 0 0 274.27 30.45 0 0 213.32 30.49 0 0 457.1 30.48 0 0 1615.09 30.45 0 0 457.1 30.49 0 0 243.78 30.49 0 0 60.97 30.44 0 0 60.93 30.49 0 0 60.94 30.49 0 0 60.97 30.45 0 0 30.45 30.48 0 0 30.48 30.49 0 0 30.49 30.45 0 0 30.45 60.97 0 0 30.48 152.35 0 0 -30.48 91.42 0 0 -30.45 30.49 0 0 -30.49 30.45 0 0 -30.48 60.97 0 0 -30.45 30.45 0 0 -60.97 30.48 0 0 -30.45 30.49 0 0 -60.97 30.45 0 0 -60.94 30.48 0 0 -30.48 30.49 0 0 -91.42 30.45 0 0 -60.94 30.48 0 0 -91.42 30.49 0 0 -60.93 30.45 0 0 -91.43 30.48 0 0 -91.42 30.49 0 0 -60.97 30.45 0 0 -121.87 30.49 0 0 -121.9 30.48 0 0 -121.91 30.45 0 0 -60.93 30.49 0 0 -91.42 30.48 0 0 -182.84 30.45 0 0 -91.43 30.49 0 0 -152.35 30.48 0 0 -121.91 30.45 0 0 -152.35 30.49 0 0 -121.91 30.48 0 0 -182.84 30.45 0 0 -121.91 30.49 0 0 -213.29 30.48 0 0 -243.81 30.45 0 0 -121.87 30.49 0 0 -274.26 30.48 0 0 -243.81 30.45 0 0 -243.78 30.49 0 0 -304.74 30.48 0 0 -335.2 30.45 0 0 -274.26 30.49 0 0 -761.81 30.48 0 0 -335.24 30.45 0 0 -792.3 30.49 0 0 -609.45 30.48 0 0 -670.43 30.45 0 0 -426.62 30.49 0 0 -731.36 30.48 0 0 -609.5 30.45 0 0 -121.87 30.49 0 0 -152.39 30.49 0 0 -91.42 30.44 0 0 -121.87 30.49 0 0 -182.84 30.49 0 0 -182.84 30.45 0 0 -121.91 30.48 0 0 -182.84 30.49 0 0 -182.84 30.45 0 0 -213.32 30.48 0 0 -274.27 30.49 0 0 -274.26 30.45 0 0 -335.19 30.48 0 0 -304.75 30.49 0 0 -1279.85 -30.49 0 0 -60.97 -30.48 0 0 -91.42 -30.45 0 0 -30.45 -30.49 0 0 -60.97 -30.48 0 0 -30.45 -30.45 0 0 -30.49 -60.97 0 0 -30.48 -30.45 0 0 -30.45 -60.98 0 0 -30.49 -91.42 0 0 -30.48 -152.35 0 0 -30.45 -335.2 0 0 -30.49 -1401.79 0 0 30.49z"/>
 </g>
</svg>
