<?xml version="1.0" encoding="UTF-8"?>
<!DOCTYPE svg PUBLIC "-//W3C//DTD SVG 1.1//EN" "http://www.w3.org/Graphics/SVG/1.1/DTD/svg11.dtd">
<!-- Creator: CorelDRAW (Versión de evaluación) -->
<svg xmlns="http://www.w3.org/2000/svg" xml:space="preserve" width="739px" height="2458px" version="1.1" style="shape-rendering:geometricPrecision; text-rendering:geometricPrecision; image-rendering:optimizeQuality; fill-rule:evenodd; clip-rule:evenodd"
viewBox="0 0 739 2457.4"
 xmlns:xlink="http://www.w3.org/1999/xlink"
 xmlns:xodm="http://www.corel.com/coreldraw/odm/2003">
 <defs>
  <style type="text/css">
   <![CDATA[
    .str0 {stroke:#4B4B4D;stroke-width:10;stroke-miterlimit:22.9256}
    .fil0 {fill:#FEFEFE}
   ]]>
  </style>
 </defs>
 <g id="tooth-fissure-full-16">
  <metadata id="CorelCorpID_0Corel-Layer"/>
  <path id="crown" class="fil0 str0" d="M466.45 2284.42l8.33 0 0 8.33 -8.33 0 0 -8.33zm-2.76 62.49c8.82,20.57 16.63,41.07 23.56,55.31 38.25,78.64 61.87,53.36 100,42.73l0 -2.23 -8.33 0 0 -4.17 -4.17 0 0 -4.16 -8.33 0 0 -4.17 -8.33 0 0 -4.16 -4.17 0 0 -4.17 -4.16 0 0 -4.17 -4.17 0 0 -8.33 -4.16 0 0 -4.16 -4.17 0 -8.33 0 0 -16.67 4.17 0 0 -8.33 -4.17 0 0 -12.49 -12.5 0 0 -8.34 -4.16 0 0 -4.16 -4.17 0 0 -4.17 -4.16 0 0 -4.16 -8.34 0 0 -4.17 -4.16 0 0 4.17 -12.5 0 0 -4.17 -4.16 0 -4.17 0 0 4.17 -6.92 0zm136.06 95.31c2.69,-0.4 5.47,-0.69 8.33,-0.84l0 -6.99 2.38 0c2.96,-10.67 9.89,-27.48 19.1,-49.99l-4.82 0 0 4.16 -8.33 0 0 4.17 -8.33 0 0 4.17 -8.33 0 0 4.16 4.16 0 0 8.33 -4.16 0 0 16.67 4.16 0 0 4.16 4.17 0 0 4.17 -8.33 0 0 7.83zm31.51 -61.99c40.85,-100.01 121.73,-305.27 105.06,-579.02l-3.27 0 0 4.16 0 12.5 -4.17 0 0 -4.17 -4.16 0 0 -16.66 4.16 0 0 -4.16 6.92 0c-0.09,-1.39 -0.21,-2.78 -0.31,-4.17l-2.44 0 0 -16.66 1.15 0c-2.43,-28.47 -5.94,-57.65 -10.65,-87.48l-7.17 0 0 -4.17 -12.49 0 0 -4.16 -8.33 0 0 -4.17 -4.17 0 0 4.17 -8.33 0 0 4.16 -8.33 0 0 4.17 -8.33 0 0 4.16 -4.17 0 0 4.17 -4.17 0 0 8.33 4.17 0 0 4.17 -12.5 0 0 4.16 -8.33 0 0 4.17 -4.16 0 0 8.33 4.16 0 0 4.17 4.17 0 0 4.16 4.16 0 0 4.17 4.17 0 0 16.66 4.16 0 0 12.5 4.17 0 0 4.16 -4.17 0 0 -4.16 -4.16 0 0 -8.34 -4.17 0 0 -16.66 -4.16 0 0 -8.33 -4.17 0 0 -4.16 -16.66 0 0 4.16 -16.66 0 0 4.17 -29.16 0 0 -4.17 8.33 0 0 -4.16 29.16 0 0 -4.17 8.33 0 0 -4.17 4.17 0 0 -4.16 4.16 0 0 -8.33 4.17 0 0 -4.17 8.33 0 0 -4.16 4.16 0 0 -4.17 4.17 0 0 -8.33 -4.17 0 0 -8.33 4.17 0 0 4.16 8.33 0 0 -4.16 8.33 0 0 -4.17 8.33 0 0 -4.16 4.17 0 0 -4.17 -12.5 0 0 -4.17 -8.33 0 0 4.17 -4.17 0 0 4.17 -4.16 0 0 -12.5 4.16 0 0 -8.33 -8.33 0 0 -4.17 12.5 0 0 -8.33 0 -14.85c-2.66,-0.61 -5.26,-1.21 -7.82,-1.81l-0.51 0 0 -0.12c-4.27,-1.01 -8.41,-2.03 -12.5,-3.14l0 3.26 -4.16 0 0 -4.44c-14.56,-4.23 -28.72,-9.94 -45.83,-20.54l0 4.15 4.17 0 0 4.16 -4.17 0 0 -4.16 -8.33 0 0 -4.17 -8.33 0 0 -4.16 -8.33 0 0 -4.17 -4.17 0 0 -4.16 -12.49 0 0 -4.17 -12.5 0 0 -4.16 -4.16 0 0 4.16 -8.34 0 0 4.17 -4.16 0 0 -8.33 -4.17 0 0 -4.17 -4.16 0 0 4.17 -8.33 0 0 4.16 -4.17 0 0 4.17 -8.33 0 0 4.16 -4.17 0 0 4.17 -4.16 0 0 4.16 4.16 0 0 8.33 -8.33 0 0 -4.16 -16.66 0 -4.17 0 0 4.16 -20.83 0 0 4.17 -8.33 0 0 4.17 -4.16 0 0 4.16 -4.17 0 0 8.33 4.17 0 0 8.34 -4.17 0 0 4.16 -4.16 0 0 8.33 -12.5 0 -8.33 0 -4.17 0 0 -4.16 -4.16 0 0 -4.17 -4.17 0 0 -4.16 -8.33 0 0 4.16 -4.17 0 0 4.17 -24.99 0 0 -12.5 8.33 0 0 -4.17 8.33 0 0 -4.16 -4.16 0 0 -16.67 -4.17 0 0 -4.16 -4.16 0 0 -4.17 -4.17 0 0 -4.16 -4.17 0 0 -8.33 -4.16 0 0 4.16 -4.17 0 0 4.17 -4.16 0 0 8.33 -4.17 0 0 8.33 -4.16 0 0 20.83 -4.17 0 0 8.33 8.33 0 0 -8.33 4.17 0 0 -4.17 8.33 0 0 8.34 4.16 0 0 8.33 -12.49 0 -4.17 0 0 4.16 -20.83 0 0 4.17 -12.49 0 0 4.16 -4.17 0 0 4.17 -8.33 0 -8.33 0 0 4.16 -12.5 0 0 4.17 -8.33 0 0 4.17 -4.17 0 0 4.16 -4.16 0 0 8.33 -4.17 0 0 8.33 -8.33 0 0 4.17 -4.16 0 0 4.17 -8.33 0 0 4.16 -4.17 0 0 8.33 -4.17 0 0 4.17 -4.16 0 0 4.16 -4.17 0 0 4.17 -4.16 0 0 4.17 -4.17 0 0 8.33 8.33 0 0 16.66 4.17 0 0 20.83 4.16 0 0 8.33 0 4.16 -8.33 0 0 8.34 8.33 0 0 -8.34 4.17 0 0 8.34 4.17 0 0 33.32 4.16 0 0 8.33 12.5 0 0 -4.16 8.33 0 0 8.33 -8.33 0 0 4.16 -12.5 0 0 8.33 4.17 0 0 12.5 -4.17 0 0 -4.16 -4.16 0 0 -4.17 -4.17 0 0 -16.66 -4.17 0 0 -12.5 -4.16 0 0 -8.33 -4.17 0 0 -8.33 -4.16 0 0 -4.17 -4.17 0 0 -8.33 -4.17 0 0 -12.5 -4.16 0 0 -8.33 -4.17 0 0 -20.83 -37.49 0 -8.33 0 -8.33 0 0 4.17 -45.82 0 0 -4.17 -8.33 0 0 -4.16 -4.17 0 0 4.16 -4.16 0 -4.17 0 0 -4.16 -8.33 0 0 -4.17 -12.5 0 0 -4.16 -4.16 0 0 -4.17 -8.34 0 0 -4.16 -8.33 0 0 -4.17 -8.91 0c-6.14,65.54 -6.81,132.59 -7.92,190.62 -0.6,31.38 1,82.51 5.25,138.47l7.42 0 0 8.33 12.49 0 0 4.16 16.67 0 0 4.17 16.66 0 0 4.17 4.17 0 4.16 0 0 4.16 4.17 0 0 4.17 8.33 0 0 4.16 8.33 0 4.17 0 0 4.17 33.32 0 0 -4.17 4.17 0 0 -12.49 8.33 0 0 12.49 4.16 0 0 4.17 4.17 0 0 4.16 8.33 0 0 4.17 4.17 0 0 4.17 4.16 0 0 4.16 4.17 0 0 4.17 4.16 0 0 4.16 4.17 0 0 4.17 4.16 0 0 4.16 4.17 0 0 12.5 4.16 0 0 8.33 4.17 0 0 4.17 4.17 0 0 4.16 4.16 0 0 -4.16 8.33 0 0 -4.17 4.17 0 0 8.33 8.33 0 0 4.17 12.5 0 0 4.16 8.33 0 0 4.17 4.16 0 0 4.17 12.5 0 0 4.16 8.33 0 4.17 0 29.16 0 0 4.17 1.06 0c2.24,-15.92 4.11,-33.58 5.55,-53.22 12.72,10.35 33.54,30.18 53,53.22l7.04 0 0 4.16 16.66 0 8.33 0 0 -12.49 4.17 0 0 8.33 4.16 0 0 4.16 4.17 0 8.33 0 0 4.17 45.82 0 0 4.16 8.34 0 0 4.17 4.16 0 0 4.17 16.66 0 0 -4.17 16.67 0 0 -4.17 12.49 0 0 -4.16 4.17 0 0 -4.17 4.16 0 0 -4.16 4.17 0 0 -16.67 4.17 0 0 -12.49 4.16 0 0 -8.33 -8.33 0 0 -4.17 -4.17 0 0 -4.17 -4.16 0 0 -4.16 -4.17 0 0 -4.17 -4.16 0 0 -8.33 -4.17 0 0 -12.49 -4.16 0 0 -12.5 -4.17 0 0 -4.17 -20.83 0 0 -4.16 8.33 0 0 -4.17 4.17 0 0 -8.33 4.16 0 0 -16.66 -4.16 0 0 -20.83 -4.17 0 0 -12.5 -4.16 0 0 -16.66 -4.17 0 0 -8.33 -4.16 0 0 -12.5 4.16 0 0 -16.66 -4.16 0 0 -12.5 -4.17 0 0 -4.16 -4.16 0 0 -4.17 -4.17 0 0 -8.33 -4.17 0 0 -8.33 -4.16 0 0 -8.33 -4.17 0 0 -4.17 -4.16 0 0 -4.17 -4.17 0 0 -4.16 -8.33 0 0 4.16 -4.17 0 0 4.17 -8.33 0 0 4.17 -8.33 0 0 4.16 -8.33 0 0 4.17 -4.17 0 0 4.16 -12.49 0 0 -4.16 4.16 0 0 -8.33 8.33 0 0 -4.17 4.17 0 0 -4.17 4.17 0 0 -4.16 8.33 0 0 -4.17 4.16 0 0 -8.33 4.17 0 0 -24.99 -4.17 0 0 -33.33 -4.16 0 0 -8.33 -8.33 0 0 4.17 -8.34 0 0 4.16 -4.16 0 0 4.17 -4.17 0 0 8.33 -4.16 0 0 12.5 -4.17 0 0 20.83 -4.16 0 0 -4.17 -4.17 0 0 -20.83 -4.17 0 0 -20.83 -4.16 0 0 -4.16 -12.5 0 0 -4.17 -8.33 0 0 -4.16 -4.17 0 0 -4.17 -4.16 0 0 -4.17 -8.33 0 0 -4.16 -8.33 0 0 -4.17 -8.33 0 0 -4.16 -4.17 0 0 -4.17 -8.33 0 0 -4.16 -8.33 0 0 -4.17 -12.5 0 0 -4.16 -8.33 0 0 -4.17 20.83 0 0 4.17 12.49 0 0 4.16 8.34 0 0 4.17 8.33 0 0 -4.17 8.33 0 0 12.5 16.66 0 0 4.16 4.17 0 0 8.33 16.66 0 0 4.17 8.33 0 0 4.17 8.33 0 4.17 0 4.16 0 0 -4.17 4.17 0 0 -4.17 4.16 0 0 -4.16 4.17 0 0 -4.17 8.33 0 0 -8.33 8.33 0 0 -8.33 -4.16 0 0 -8.33 -4.17 0 0 8.33 -4.16 0 0 -4.16 -4.17 0 0 -8.34 -4.17 0 0 -12.49 -4.16 0 0 -4.17 -4.17 0 0 -4.16 -8.33 0 0 -4.17 -12.5 0 0 -4.17 29.16 0 0 4.17 4.17 0 0 4.17 4.17 0 0 4.16 4.16 0 0 4.17 4.17 0 0 4.16 4.16 0 0 8.33 4.17 0 0 12.5 4.16 0 0 4.17 12.5 0 0 -4.17 8.33 0 0 4.17 -4.16 0 0 4.16 -8.34 0 0 4.17 -4.16 0 0 4.16 12.5 0 0 -4.16 12.49 0 0 4.16 -8.33 0 0 4.17 -8.33 0 0 4.16 -4.17 0 0 8.34 -4.16 0 0 33.32 -4.17 0 0 4.17 4.17 0 0 16.66 4.16 0 0 8.33 4.17 0 0 8.33 4.17 0 0 4.17 4.16 0 0 4.16 4.17 0 0 4.17 4.16 0 0 4.16 4.17 0 0 4.17 4.17 0 0 4.17 4.16 0 0 4.16 4.17 0 0 4.17 0 4.16 4.16 0 0 4.17 8.33 0 0 -4.17 4.17 0 0 -4.16 4.16 0 0 -8.33 4.17 0 0 -4.17 4.17 0 0 -8.33 -4.17 0 0 -12.5 -4.17 0 0 -8.33 -4.16 0 0 -16.66 -4.17 0 0 -20.83 -4.16 0 0 -12.5 -4.17 0 -8.33 0 0 -4.16 4.17 0 0 -4.17 4.16 0 0 -8.33 -4.16 0 0 -4.17 -4.17 0 0 -4.16 -4.16 0 0 -4.17 -4.17 0 0 -8.33 12.5 0 0 8.33 4.16 0 0 4.17 4.17 0 0 -4.17 4.16 0 0 -8.33 -4.16 0 0 -4.16 -8.33 0 0 -8.33 4.16 0 0 -4.17 4.17 0 0 4.17 4.16 0 0 4.16 4.17 0 0 8.33 4.16 0 0 8.33 4.17 0 0 8.33 4.17 0 0 12.5 4.16 0 0 4.17 -4.16 0 0 4.16 -4.17 0 0 4.17 -4.17 0 0 12.5 -4.16 0 0 4.16 4.16 0 0 12.5 4.17 0 0 8.33 4.17 0 0 12.5 4.16 0 0 4.16 4.17 0 0 4.17 4.16 0 0 8.33 4.17 0 0 8.33 4.16 0 0 4.17 12.5 0 0 -4.17 8.33 0 0 -12.5 12.5 0 0 -4.16 4.16 0 0 8.33 -4.16 0 0 4.16 -4.17 0 0 12.5 -4.16 0 0 4.17 -12.5 0 0 4.16 -8.33 0 0 4.17 -4.17 0 -4.16 0 0 8.33 4.16 0 0 4.17 4.17 0 0 24.99 -8.33 0 0 -4.17 4.16 0 0 -8.33 -4.16 0 0 -4.16 -4.17 0 0 -4.17 -8.33 0 0 25 4.17 0 0 8.33 4.16 0 0 4.16 8.33 0 0 12.5 -4.16 0 0 4.17 4.16 0 0 8.33 4.17 0 0 8.33 4.17 0 0 8.33 4.16 0 0 4.17 4.17 0 0 8.33 -4.17 0 0 -4.17 -4.16 0 0 -4.16 -4.17 0 0 -4.17 -4.17 0 0 -12.5 -4.16 0 0 -4.16 -4.17 0 0 -12.5 -8.33 0 0 -4.17 -12.5 0 0 8.34 4.17 0 0 16.66 4.17 0 0 20.83 4.16 0 0 37.49 4.17 0 0 8.33 4.16 0 0 8.33 4.17 0 0 8.33 4.16 0 0 8.33 4.17 0 0 4.17 4.17 0 0 8.33 4.16 0 12.5 0 0 4.16 4.16 0 0 4.17 4.17 0 0 4.17 8.33 0 0 8.33 -8.33 0 0 4.16 49.99 0 0 8.33 8.33 0 0 4.17 4.16 0 0 4.17 -12.49 0 0 -4.17 -12.5 0 0 4.17 -8.33 0 0 -4.17 -12.5 0 0 -4.17 -4.16 0 0 4.17 -4.17 0 0 -4.17 -8.33 0 0 4.17 -8.33 0 0 4.17 -4.17 0 0 8.33 -4.16 0 0 8.33 -4.17 0 0 4.16 -4.16 0 0 4.17 4.16 0 0 8.33 -4.16 0 0 4.17 -4.17 0 0 8.33 -4.17 0 0 4.16 -4.16 0 0 8.33 -4.17 0 0 12.5 -4.16 0 0 12.5 -4.17 0 0 8.33 -4.16 0 0 4.17 4.16 0 0 16.66 8.33 0 0 12.5 4.17 0 0 8.33 -4.17 0 0 4.16 4.17 0 0 8.33 4.16 0 0 12.5 0 8.33 4.17 0 0 8.33 4.17 0 0 4.17 8.33 0 0 4.16 4.16 0 0 8.34 4.17 0 0 12.49 4.16 0 0 4.17 33.33 0 0 -4.17 4.16 0 0 4.17 4.17 0 4.17 0 4.16 0 0 -4.17 27.35 0zm90.98 -703.99c-0.22,-1.39 -0.47,-2.78 -0.71,-4.17l-0.98 0 0 -4.16 -4.17 0 0 -4.17 -4.16 0 0 -4.17 -4.17 0 0 -4.16 -8.33 0 0 -4.17 -4.16 0 0 16.67 4.16 0 0 4.16 12.5 0 0 4.17 10.02 0zm-6.79 -37.49c-0.28,-1.4 -0.53,-2.78 -0.8,-4.17l-2.43 0 0 4.17 3.23 0zm-124.06 -45.83c-1.36,-0.84 -2.74,-1.72 -4.14,-2.63l0 2.63 4.14 0zm-6.48 -4.16l-1.83 -1.22 0 1.22 1.83 0zm-11.91 -8.33c-0.8,-0.59 -1.6,-1.18 -2.41,-1.79l0 1.79 2.41 0zm-5.56 -4.17l-1.02 -0.78 0 0.78 1.02 0zm-30.18 -24.06c-1.39,-1.11 -2.78,-2.21 -4.16,-3.3l0 6.53 4.16 0 0 -3.23zm-17.31 -13.43c-31.55,-23.62 -62.87,-41.17 -104.49,-42.14 -50.63,-1.18 -81.64,7.05 -107.31,16.61l0 0.54 8.33 0 0 4.16 4.17 0 0 4.17 4.16 0 0 12.49 4.17 0 0 8.34 4.16 0 0 4.16 4.17 0 0 8.33 8.33 0 0 4.17 4.17 0 0 8.33 4.16 0 0 8.33 4.17 0 0 4.17 4.16 0 0 4.16 4.17 0 0 8.33 4.16 0 0 8.33 4.17 0 0 4.17 4.17 0 0 4.17 4.16 0 0 4.16 8.33 0 0 4.17 20.83 0 0 -4.17 4.17 0 0 -4.16 4.16 0 0 -4.17 4.17 0 0 -4.17 4.16 0 0 -8.33 4.17 0 0 -4.16 4.16 0 0 4.16 8.34 0 0 -4.16 12.49 0 0 -4.17 4.17 0 0 -4.16 8.33 0 0 -4.17 4.17 0 0 -4.16 4.16 0 0 -4.17 4.17 0 0 -4.17 4.16 0 0 -4.16 4.17 0 0 -8.33 4.16 0 0 -4.17 8.34 0 0 -4.16 12.49 0 0 -4.17 3.52 0zm-223.88 -20.83c-49.06,19.73 -85.8,39.57 -227.5,-6.71 -35.6,54.83 -52.09,131.39 -60.12,210.83l20.6 0 0 4.17 8.33 0 0 4.16 8.33 0 0 4.17 16.67 0 0 4.16 16.66 0 37.49 0 24.99 0 0 -4.16 37.49 0 0 -16.67 4.17 0 0 -4.16 4.16 0 0 -8.33 -12.49 0 0 -4.17 12.49 0 0 4.17 4.17 0 0 -4.17 4.17 0 0 -4.16 4.16 0 0 -4.17 4.17 0 0 -4.17 4.16 0 0 -4.16 4.17 0 4.17 0 0 -4.17 4.16 0 0 -4.16 4.17 0 0 -8.33 4.16 0 0 -8.34 4.17 0 0 -4.16 4.16 0 0 -4.17 4.17 0 0 -4.16 4.16 0 0 -4.17 4.17 0 0 -4.16 4.17 0 0 -4.17 4.16 0 0 -8.33 4.17 0 0 -20.83 4.16 0 0 -8.33 4.17 0 0 -8.33 4.16 0 0 -4.17 4.17 0 0 -4.16 4.17 0 0 4.16 -4.17 0 0 25 -4.17 0 0 4.16 -4.16 0 0 12.5 -4.17 0 0 8.33 -4.16 0 0 8.33 4.16 0 12.5 0 0 -4.16 4.17 0 0 -4.17 4.16 0 0 -4.16 4.17 0 0 -4.17 4.16 0 0 -4.17 8.33 0 0 -4.16 4.17 0 0 -8.33 4.17 0 0 -8.34 4.16 0 0 -4.16 4.17 0 0 -8.33 4.16 0 0 -4.17 4.17 0 0 -4.16 0 -4.17 4.16 0 0 -4.16 -4.16 0 0 -4.17 -4.17 0 0 -8.33 -4.16 0 0 -4.17 -4.17 0 0 -4.16 -4.16 0 0 -8.33 -4.17 0 0 -8.34 -4.17 0 0 -8.33 -4.16 0 0 -8.33 -3.75 0zm-289.05 566.53c2.45,27.72 5.55,56.07 9.34,83.31l0.19 0 0 -4.16 4.17 0 0 4.16 4.16 0 0 8.34 4.17 0 0 4.16 4.17 0 0 4.17 4.16 0 0 12.49 -4.16 0 0 8.34 -11.05 0c2.13,12.32 4.42,24.21 6.88,35.48l0 -2.16 8.33 0 0 -4.17 4.17 0 0 -8.33 4.16 0 0 -4.16 4.17 0 0 -8.33 4.16 0 0 -8.33 4.17 0 0 -4.17 4.17 0 0 -4.17 4.16 0 0 -4.16 0 -4.17 4.17 0 0 -4.16 0 -4.17 0 -8.33 4.16 0 0 -8.33 4.17 0 0 -20.83 -4.17 0 0 -8.33 4.17 0 0 -8.33 4.16 0 0 -12.5 4.17 0 0 -12.5 -8.33 0 0 -4.16 -8.33 0 0 -4.17 -8.33 0 0 -4.16 -33.33 0 0 -4.17 -12.5 0 0 -4.16 -8.33 0 0 4.16 -1.2 0zm26.41 174.96c1.46,5.78 2.97,11.35 4.53,16.66l7.75 0 0 4.17 -4.16 0 0 4.16 -1.01 0c6.66,20.69 14.23,36.91 22.78,46.51 2.51,-0.37 4.96,-0.86 7.39,-1.44l0 -3.41 8.33 0 0 -4.17 4.16 0 0 -8.33 4.17 0 0 -16.66 -4.17 0 0 -8.33 -4.16 0 0 -8.33 -4.17 0 0 -8.33 -8.33 0 0 -4.17 -4.16 0 0 -8.33 -28.95 0zm53.94 64.7c18.08,-6.95 35.67,-16.1 57.93,-15.65 38.9,0.79 104.35,51.27 139.89,-53.22l-2.03 0 0 -8.33 4.16 0 0 1.75c1.77,-5.71 3.46,-11.82 5.05,-18.41l-9.21 0 0 -4.17 -16.67 0 0 -4.16 -4.16 0 0 4.16 -4.17 0 0 -4.16 -4.16 0 0 -4.17 -4.17 0 0 -4.16 -12.5 0 0 -4.17 4.17 0 0 -4.16 -24.99 0 0 -4.17 -4.17 0 0 -4.17 -4.17 0 0 -4.16 -4.16 0 0 -4.17 -4.17 0 0 -4.16 -4.16 0 -12.5 0 0 4.16 -8.33 0 0 4.17 -8.33 0 0 -4.17 4.16 0 0 -4.16 4.17 0 0 -4.17 4.16 0 0 -12.5 -4.16 0 0 -4.16 -8.33 0 0 -4.17 4.16 0 0 -16.66 -4.16 0 0 -12.5 -16.67 0 0 -8.33 -4.16 0 0 -4.16 -4.17 0 0 -4.17 -4.16 0 0 -4.16 -4.17 0 0 -4.17 -4.16 0 0 4.17 -33.33 0 0 4.16 -4.16 0 0 16.66 -4.17 0 0 33.33 -4.17 0 0 24.99 -4.16 0 0 8.33 -4.17 0 0 8.34 -4.16 0 0 4.16 -4.17 0 0 8.33 -4.16 0 0 8.33 -4.17 0 0 16.67 -4.17 0 0 4.16 12.5 0 0 4.17 4.17 0 0 4.16 4.16 0 0 4.17 4.17 0 0 4.17 4.16 0 0 4.16 4.17 0 0 16.66 4.17 0 0 4.17 4.16 0 0 4.16 20.83 0 0 4.17 8.33 0 0 -4.17 12.5 0 0 4.17 4.16 0 0 4.17 8.33 0 0 4.16 -20.82 0 0 4.17 -33.33 0 0 4.16 -4.16 0 0 4.17 -4.17 0 0 6.38zm308.26 -87.66c1.09,2.11 2.13,4.21 3.1,6.3l1.06 0 0 2.34c1.52,3.43 2.85,6.82 3.96,10.15l0.21 0 0 -24.99 -4.17 0 0 4.16 -4.16 0 0 2.04zm-4.17 -93.68l4.17 0 0 -4.17 -4.17 0 0 4.17zm-41.65 -20.83l4.16 0 0 -4.16 -4.16 0 0 4.16 -4.17 0 0 -12.49 -4.17 0 0 4.16 -4.16 0 0 4.17 -4.17 0 0 4.16 4.17 0 0 4.17 8.33 0 0 4.16 4.17 0 0 -8.33zm99.97 -329.08l4.17 0 0 -4.17 -4.17 0 0 4.17zm37.49 -104.15l4.17 0 0 -4.16 -4.17 0 0 4.16zm-16.66 408.24l4.17 0 0 -4.17 -4.17 0 0 4.17zm-195.79 149.96l4.17 0 0 -4.16 -4.17 0 0 4.16zm341.59 -629.01l4.16 0 0 -8.33 -4.16 0 0 8.33zm-79.15 504.04l4.17 0 0 -8.33 -4.17 0 0 8.33zm-187.45 -37.49l4.16 0 0 -8.33 -4.16 0 0 8.33zm33.32 58.32l4.17 0 0 -8.33 -4.17 0 0 8.33zm208.28 -474.88l8.34 0 0 -4.17 -8.34 0 0 4.17zm-337.41 166.62l8.33 0 0 -4.16 -8.33 0 0 4.16zm283.26 233.28l4.17 0 0 -8.33 -4.17 0 0 8.33zm-158.29 112.47l4.16 0 0 -8.33 -4.16 0 0 8.33zm116.63 -245.77l4.17 0 0 -8.33 8.33 0 0 -4.17 4.17 0 0 12.5 -4.17 0 0 4.16 -4.16 0 0 4.17 -8.34 0 0 -8.33zm-8.33 -195.79l4.17 0 0 -8.33 -4.17 0 0 8.33zm79.15 374.91l8.33 0 0 -4.16 -8.33 0 0 4.16zm-174.96 58.32l4.17 0 0 -12.5 -4.17 0 0 12.5zm249.94 -291.6l4.17 0 0 -4.16 4.16 0 0 -4.17 -8.33 0 0 8.33zm-54.15 308.26l4.16 0 0 4.17 4.17 0 0 -8.33 -8.33 0 0 4.16zm0 -41.65l8.33 0 0 -4.17 -4.17 0 0 -4.17 -4.16 0 0 8.34zm-541.54 -337.42l4.17 0 0 4.16 4.16 0 0 -8.33 -8.33 0 0 4.17zm216.62 8.33l8.33 0 0 -4.17 -4.17 0 0 -4.16 -4.16 0 0 8.33zm237.44 -158.3l4.17 0 0 -4.16 4.16 0 0 -8.33 -4.16 0 0 4.16 -4.17 0 0 8.33 -4.17 0 0 4.17 -4.16 0 0 4.17 8.33 0 0 4.16 4.17 0 0 8.33 -4.17 0 0 8.33 4.17 0 0 20.83 8.33 0 0 -20.83 -4.17 0 0 -8.33 4.17 0 0 -8.33 -4.17 0 0 -4.16 -4.16 0 0 -4.17 -4.17 0 0 -4.17zm58.32 437.4l8.33 0 0 -8.33 -8.33 0 0 8.33zm-220.78 45.82l4.16 0 0 4.17 4.17 0 0 -8.34 -4.17 0 0 -4.16 -4.16 0 0 8.33zm133.3 87.48l0 4.16 4.17 0 0 8.34 -4.17 0 0 4.16 -4.16 0 0 4.17 -20.83 0 0 4.16 -8.34 0 0 -4.16 -8.33 0 0 -4.17 -4.16 0 0 -4.16 -4.17 0 0 -4.17 4.17 0 0 -4.17 4.16 0 0 -4.16 4.17 0 0 -4.17 -12.5 0 0 -4.16 -4.16 0 0 -4.17 -4.17 0 0 4.17 -4.16 0 0 4.16 -4.17 0 0 -4.16 -4.17 0 0 -4.17 -4.16 0 0 -4.16 4.16 0 0 -4.17 25 0 0 -4.16 4.16 0 0 4.16 8.33 0 0 4.17 8.34 0 0 8.33 4.16 0 0 -4.17 8.33 0 0 4.17 4.17 0 0 4.16 4.17 0 0 4.17 4.16 0zm-137.47 -141.63l-4.16 0 0 4.16 -8.33 0 0 4.17 16.66 0 0 -8.33 4.16 0 0 -4.17 -4.16 0 0 -4.16 -4.17 0 0 8.33zm133.31 -504.05l8.33 0 0 8.33 -8.33 0 0 -8.33zm-66.66 254.11l-8.33 0 0 -4.17 4.17 0 0 -4.16 4.16 0 0 8.33zm66.66 466.55l-4.17 0 0 -24.99 16.66 0 0 16.66 -12.49 0 0 8.33zm-133.31 -70.82l8.33 0 0 8.34 -8.33 0 0 -8.34zm129.14 -466.55l-4.17 0 0 25 4.17 0 0 8.33 4.17 0 0 -37.49 -4.17 0 0 4.16zm162.46 -124.97l4.17 0 0 12.5 -12.5 0 0 16.66 4.16 0 0 -4.16 4.17 0 0 -4.17 4.17 0 0 -4.17 4.16 0 0 8.34 4.17 0 0 4.16 8.33 0 0 -8.33 -4.17 0 0 -4.17 4.17 0 0 -8.33 -4.17 0 0 -4.16 -4.16 0 0 -12.5 -12.5 0 0 8.33zm-208.28 179.12l4.16 0 0 4.17 -4.16 0 0 -4.17zm-4.17 -33.32l-4.16 0 0 -8.33 4.16 0 0 8.33zm-54.15 479.05l12.49 0 0 4.17 8.34 0 0 4.16 -12.5 0 0 -4.16 -8.33 0 0 -4.17zm-8.33 -8.33l4.16 0 0 4.17 -4.16 0 0 -4.17zm-95.81 -54.15l-4.17 0 0 -25 4.17 0 0 4.17 4.16 0 0 8.33 -4.16 0 0 12.5zm58.32 46.41l-7.59 32.02c35.14,68.75 59.62,99.27 113.64,44.65 -1.07,-6.32 -1.97,-11.09 -2.75,-14.78l-3.33 0 0 4.17 -8.33 0 0 -8.33 4.17 0 0 -4.17 4.16 0 0 -4.08 -0.03 -0.08 -8.3 0 -8.33 0 0 16.66 -4.17 0 0 4.16 4.17 0 0 4.17 -4.17 0 0 4.17 -8.33 0 0 -12.5 4.17 0 0 -12.5 -4.17 0 -8.33 0 0 -16.66 -12.5 0 0 -4.17 -4.16 0 0 -4.16 -4.17 0 0 -8.33 -12.5 0 0 -12.5 8.34 0 0 -4.17 -16.67 0 0 -8.33 12.5 0 0 -16.66 -16.66 0 0 24.99 4.16 0 0 4.17 -12.49 0 0 -4.17 -8.33 0 0 -3.57zm97.65 41.06c-0.21,-1.17 -0.43,-2.53 -0.66,-4.16l-1.18 0 0 4.16 1.84 0z"/>
  <path id="root" class="fil0 str0" d="M309.74 437.22l-8.33 0 0 -8.33 8.33 0 0 8.33zm350.02 -202.26c-19.66,-12.42 -4.82,16.6 -21.11,-38.67 -11.97,-40.63 -18.86,-84.87 -54.24,-93.1 -20.27,39.2 -16.1,254.53 -15.17,425.68l2.93 0 0 4.16 4.17 0 0 4.17 4.17 0 12.49 0 0 -4.17 8.33 0 0 -4.16 8.34 0 0 4.16 -4.17 0 0 4.17 -4.17 0 0 4.17 -4.16 0 0 12.49 4.16 0 0 4.17 8.34 0 0 4.17 -4.17 0 0 16.66 4.17 0 0 12.49 16.66 0 0 8.34 4.16 0 0 4.16 4.17 0 0 4.17 4.17 0 0 4.16 4.16 0 0 4.17 4.17 0 0 -4.17 33.32 0 0 -4.16 4.17 0 0 -16.67 4.16 0 0 -33.32 4.17 0 0 -25 4.16 0 0 -8.33 4.17 0 0 -8.33 2.85 0c-2.84,-20.74 -5.86,-40.14 -8.95,-58.32l-2.23 0 0 -4.16 -4.17 0 0 -16.67 -4.16 0 0 -4.16 -4.17 0 0 -4.17 -20.83 0 0 -4.16 -8.33 0 0 4.16 -12.49 0 0 -4.16 -4.17 0 0 -4.17 -8.33 0 0 -4.16 20.83 0 0 -4.17 33.32 0 0 -4.16 4.17 0 0 -4.17 0.6 0c-16.07,-81.56 -30.36,-132.9 -25.49,-168.94zm-90.38 331.4c0.11,66.24 -0.64,122.52 -4.12,154.12 -3.76,34.05 -11,97.01 -23.18,162.47l0.94 0 0 -4.16 12.49 0 0 -8.34 -4.16 0 0 -12.49 4.16 0 0 4.16 4.17 0 0 4.17 4.16 0 0 16.66 4.17 0 0 12.5 4.16 0 0 8.33 4.17 0 0 8.33 4.17 0 0 4.17 4.16 0 0 8.33 4.17 0 0 12.49 4.16 0 0 8.34 4.17 0 0 20.82 37.49 0 8.33 0 8.33 0 0 -4.16 45.82 0 0 4.16 8.34 0 0 4.17 4.16 0 0 -4.17 4.17 0 3.59 0c0.66,-28.61 1.49,-57.3 2.54,-86.07 3.35,-91.58 1.56,-170.52 -3.09,-238.85l-3.04 0 -4.17 0 0 -4.16 -4.16 0 0 -4.17 -8.34 0 0 -4.16 -8.33 0 -4.16 0 0 -4.17 -33.33 0 0 4.17 -4.16 0 0 12.49 -8.33 0 0 -12.49 -4.17 0 0 -4.17 -4.17 0 0 -4.17 -8.33 0 0 -4.16 -4.16 0 0 -4.17 -4.17 0 0 -4.16 -4.16 0 0 -4.17 -4.17 0 0 -4.16 -4.17 0 0 -4.17 -4.16 0 0 -4.17 -4.17 0 0 -12.49 -4.16 0 0 -8.33 -4.17 0 0 -4.17 -4.16 0 0 -4.16 -4.17 0 0 4.16 -6.96 0zm-28.87 324.92c-13.51,70.35 -32.76,142.25 -59.51,183.29l3.7 0 0 -4.17 4.16 0 0 -4.16 8.33 0 8.33 0 0 -4.17 12.5 0 0 -4.16 8.33 0 0 -4.17 4.17 0 0 -4.16 4.16 0 0 -8.33 4.17 0 0 -8.34 8.33 0 0 -4.16 4.17 0 0 -4.17 8.33 0 0 -4.16 4.16 0 0 -8.33 4.17 0 0 -4.17 4.16 0 0 -4.17 4.17 0 0 -4.16 4.17 0 0 -4.17 4.16 0 0 -8.33 -8.33 0 0 -16.66 -4.17 0 0 -20.83 -4.16 0 0 -8.33 0 -4.17 8.33 0 0 -8.33 -8.33 0 0 8.33 -4.17 0 0 -8.33 -4.16 0 0 -33.32 -4.17 0 0 -8.33 -12.49 0 0 4.16 -2.51 0zm-84.97 210.58c-11.4,7.35 -23.88,9.28 -37.49,4.34l0 14.19 4.16 0 0 4.17 4.17 0 0 4.16 4.16 0 0 4.17 4.17 0 0 8.33 4.16 0 0 -4.16 4.17 0 0 -4.17 4.16 0 0 -8.33 4.17 0 0 -8.33 4.17 0 0 -14.37zm-61.36 -10.63c-0.12,-0.1 -0.23,-0.19 -0.35,-0.29 -0.27,-0.24 -0.52,-0.5 -0.78,-0.74l0 1.03 1.13 0zm-4.43 -4.16c-0.29,-0.28 -0.58,-0.54 -0.86,-0.82l0 0.82 0.86 0zm-4.14 -4.17c-0.3,-0.31 -0.59,-0.63 -0.89,-0.95l0 0.95 0.89 0zm-3.89 -4.16c-28.07,-31.8 -48.61,-80.99 -63.65,-140.26l0 15.29 -4.17 0 0 4.16 -4.16 0 0 -37.49 3.98 0c-0.31,-1.38 -0.63,-2.77 -0.94,-4.16l-11.37 0 0 -8.34 -4.17 0 0 -4.16 -4.16 0 0 4.16 -4.17 0 0 8.34 4.17 0 0 4.16 8.33 0 0 8.33 -4.17 0 0 4.17 -4.16 0 0 -4.17 -4.17 0 0 -4.16 -4.17 0 0 -8.33 -4.16 0 0 -8.34 -4.17 0 0 -8.33 -4.16 0 0 -12.49 -4.17 0 0 -4.17 4.17 0 0 -4.16 4.16 0 0 -4.17 4.17 0 0 -12.5 4.16 0 0 -4.16 -4.16 0 0 -12.5 -4.17 0 0 -8.33 -4.16 0 0 -12.5 -4.17 0 0 -4.16 -4.16 0 0 -4.17 -4.17 0 0 -8.33 -4.17 0 0 -8.33 -4.16 0 0 -4.17 -12.5 0 0 4.17 -8.33 0 0 12.49 -12.5 0 0 4.17 -4.16 0 0 -8.33 4.16 0 0 -4.17 4.17 0 0 -12.49 4.17 0 0 -4.17 12.49 0 0 -4.17 8.33 0 0 -4.16 4.17 0 4.16 0 0 -8.33 -4.16 0 0 -4.17 -4.17 0 0 -24.99 8.33 0 0 4.16 -4.16 0 0 8.33 4.16 0 0 4.17 4.17 0 0 4.17 8.33 0 0 -25 -4.16 0 0 -8.33 -4.17 0 0 -4.16 -8.33 0 0 -12.5 4.16 0 0 -4.17 -4.16 0 0 -8.33 -4.17 0 0 -8.33 -4.16 0 0 -8.33 -4.17 0 0 -4.17 -4.16 0 0 -8.33 4.16 0 0 4.17 4.17 0 0 4.16 4.16 0 0 4.17 4.17 0 0 12.5 4.16 0 0 4.16 4.17 0 0 12.5 8.33 0 0 4.16 12.5 0 0 -8.33 -4.17 0 0 -16.66 -4.16 0 0 -20.83 -4.17 0 0 -37.49 -4.16 0 0 -8.33 -4.17 0 0 -8.33 -4.17 0 0 -8.33 -4.16 0 0 -8.33 -4.17 0 0 -4.17 -4.16 0 0 -8.33 -4.17 0 -12.49 0 0 -4.17 -4.17 0 0 -4.16 -4.17 0 0 -4.17 -8.33 0 0 -8.33 8.33 0 0 -4.16 -49.98 0 0 -8.34 -8.34 0 0 -4.16 -4.16 0 0 -4.17 12.5 0 0 4.17 12.49 0 0 -4.17 8.33 0 0 4.17 12.5 0 0 4.16 4.17 0 0 -4.16 4.16 0 0 4.16 8.33 0 0 -4.16 8.34 0 0 -4.17 4.16 0 0 -8.33 4.17 0 0 -8.33 4.16 0 0 -4.17 4.17 0 0 -4.16 -4.17 0 0 -8.33 4.17 0 0 -4.17 4.16 0 0 -8.33 4.17 0 0 -4.17 4.16 0 0 -8.33 4.17 0 0 -12.49 4.17 0 0 -12.5 4.16 0 0 -8.33 4.17 0 0 -4.17 -4.17 0 0 -16.66 -8.33 0 0 -12.5 -4.17 0 0 -8.33 4.17 0 0 -4.16 -4.17 0 0 -8.34 -4.16 0 0 -12.49 0 -8.33 -4.17 0 0 -8.34 -4.16 0 0 -4.16 -8.33 0 0 -4.17 -4.17 0 0 -8.33 -4.16 0 0 -12.49 -4.17 0 0 -4.17 -33.33 0 0 4.17 -4.16 0 0 -4.17 -4.17 0 -4.16 0 -4.17 0 0 4.17 -33.32 0 0 4.16 -8.34 0 0 -1.28c-41.9,227.75 -73.73,452.16 -72.52,692.78l1.71 0 0 4.17 12.5 0 0 4.16 8.33 0 0 4.17 4.16 0 0 -4.17 8.33 0 0 -4.16 8.34 0 0 -4.17 8.33 0 0 -4.17 4.16 0 0 -4.16 4.17 0 0 -8.33 -4.17 0 0 -4.17 12.5 0 0 -4.16 8.33 0 0 -4.17 4.17 0 0 -8.33 -4.17 0 0 -4.17 -4.17 0 0 -4.16 -4.16 0 0 -4.17 -4.17 0 0 -16.66 -4.16 0 0 -12.5 -4.17 0 0 -4.16 4.17 0 0 4.16 4.16 0 0 8.33 4.17 0 0 16.67 4.16 0 0 8.33 4.17 0 0 4.16 16.66 0 0 -4.16 16.67 0 0 -4.17 29.15 0 0 4.17 -8.33 0 0 4.16 -29.16 0 0 4.17 -8.33 0 0 4.16 -4.16 0 0 4.17 -4.17 0 0 8.33 -4.16 0 0 4.17 -8.34 0 0 4.16 -4.16 0 0 4.17 -4.17 0 0 8.33 4.17 0 0 8.33 -4.17 0 0 -4.16 -8.33 0 0 4.16 -8.33 0 0 4.17 -8.33 0 0 4.16 -4.17 0 0 4.17 12.5 0 0 4.16 8.33 0 0 -4.16 4.17 0 0 -4.17 4.16 0 0 12.5 -4.16 0 0 8.33 8.33 0 0 4.17 -12.5 0 0 8.33 0 16.66 -4.16 0 0 20.83 -4.17 0 0 8.33 -4.16 0 0 16.66 -4.17 0 0 49.99 -4.17 0 0 4.17 -4.16 0 0 8.33 -4.17 0 0 8.33 -4.16 0 0 12.5 -4.17 0 0 20.82 -4.16 0 0 12.5 -4.17 0 0 8.33 -4.17 0 0 2.2 0.08 1.97 4.09 0 0 4.16 4.17 0 0 4.17 20.82 0 0 -4.17 4.17 0 0 -8.33 4.17 0 0 12.5 4.16 0 0 4.16 8.33 0 0 4.17 4.17 0 0 -4.17 8.33 0 0 4.17 4.16 0 0 4.17 4.17 0 0 4.16 -20.83 0 0 -4.16 -16.66 0 0 -4.17 -20.83 0 0 4.17 -8.33 0 0 16.66 -2.55 0c0.97,21.82 2.05,42.97 3.26,62.48l15.95 0 0 -4.16 8.33 0 0 -4.17 8.34 0 0 4.17 -8.34 0 0 4.16 -4.16 0 0 4.17 -12.5 0 0 4.16 -4.16 0 0 8.34 -2.37 0c2.67,38.7 5.89,68.97 9.75,81.82 94.96,88.29 219.92,-6.45 327.34,-8.45 140.13,-2.61 163.62,138.79 302.89,122.94 6.68,-201.38 2.89,-401.28 7.04,-604.55l-3.14 0 0 -4.16 -16.67 0 -37.49 0 -24.99 0 0 4.16 -37.49 0 0 16.66 -4.17 0 0 4.17 -4.16 0 0 8.33 12.49 0 0 4.17 -12.49 0 0 -4.17 -4.17 0 0 4.17 -4.16 0 0 4.16 -4.17 0 0 4.17 -4.17 0 0 4.16 -4.16 0 0 4.17 -4.17 0 -4.16 0 0 4.17 -4.17 0 0 4.16 -4.16 0 0 8.33 -4.17 0 0 8.33 -4.16 0 0 4.17 -4.17 0 0 4.16 -4.17 0 0 4.17 -4.16 0 0 4.17 -4.17 0 0 4.16 -4.16 0 0 4.17 -4.17 0 0 8.33 -4.16 0 0 20.83 -4.17 0 0 8.33 -4.17 0 0 8.33 -4.16 0 0 4.17 -4.17 0 0 4.16 -4.16 0 0 -4.16 4.16 0 0 -25 4.17 0 0 -4.16 4.16 0 0 -12.5 4.17 0 0 -8.33 4.17 0 0 -8.33 -4.17 0 -12.5 0 0 4.16 -4.16 0 0 4.17 -4.17 0 0 4.16 -4.16 0 0 4.17 -4.17 0 0 4.16 -8.33 0 0 4.17 -4.17 0 0 8.33 -4.16 0 0 8.33 -4.17 0 0 4.17 -4.16 0 0 8.33 -4.17 0 0 4.17 -4.17 0 0 4.16 0 4.17 -4.16 0 0 4.16 4.16 0 0 4.17 4.17 0 0 8.33 4.17 0 0 4.16 4.16 0 0 4.17 4.17 0 0 8.33 4.16 0 0 8.33 4.17 0 0 8.34 4.17 0 0 8.33 4.16 0 0 4.16 4.17 0 0 16.66 0 8.34 12.49 0 0 4.16 12.5 0 0 4.17 37.49 0 0 4.16 4.17 0 0 4.17 -33.33 0 0 4.16 -8.33 0 0 4.17 -8.33 0 0 4.17 -8.33 0 0 4.16 -16.66 0 0 -4.16 -4.17 0 0 4.16 -8.33 0 0 -12.5 4.16 0 0 -12.49 4.17 0 0 -4.17 4.17 0 0 -4.16 0 -12.5 0 -4.17 -4.17 0 0 -4.16 -4.17 0 0 -4.17 -8.33 0 0 -4.16 -4.16 0 0 -4.17 -4.17 0 0 -12.5 -4.17 0 0 -8.33 -4.16 0 0 -4.16 -4.17 0 0 -8.34 -8.33 0 0 -4.16 -4.16 0 0 -8.33 -4.17 0 0 -8.33 -4.16 0 0 -4.17 -4.17 0 0 -4.16 -4.17 0 0 -8.34 -4.16 0 0 -8.33 -4.17 0 0 -4.16 -4.16 0 0 -4.17 -4.17 0 0 -4.16 -8.33 0 0 -4.17 -20.83 0 0 4.17 -4.16 0 0 4.16 -4.17 0 0 4.17 -4.17 0 0 4.16 -4.16 0 0 8.33 -4.17 0 0 4.17 -4.16 0 0 -4.17 -8.33 0 0 4.17 -12.5 0 0 4.17 -4.17 0 0 4.16 -8.33 0 0 4.17 -4.16 0 0 4.16 -4.17 0 0 4.17 -4.16 0 0 4.16 -4.17 0 0 4.17 -4.17 0 0 8.33 -4.16 0 0 4.17 -8.33 0 0 4.16 -12.5 0 0 4.17 -4.17 0 0 4.16 0 4.17 -4.16 0 0 12.5 -4.17 0 0 12.49 4.17 0 0 12.5 -4.17 0 0 -8.33 -4.16 0 0 -4.17 -12.5 0 0 -4.16 -4.16 0 0 -4.17 4.16 0 0 -4.16 4.17 0 0 -12.5 -4.17 0 0 -4.17 -4.16 0 0 -12.49 -4.17 0 0 -8.34 -4.17 0 0 -8.33 -4.16 0 0 -4.16 -4.17 0 0 -8.33 -4.16 0 0 -4.17 -8.34 0 0 -4.16 -4.16 0 0 -4.17 -4.17 0 0 -4.17 -4.16 0 0 -4.16 -4.17 0 0 -4.17 4.17 0 0 4.17 8.33 0 0 4.16 8.33 0 0 4.17 8.33 0 0 4.17 4.17 0 0 4.16 12.5 0 0 4.17 12.49 0 0 4.16 4.17 0 0 -4.16 8.33 0 0 -4.17 4.16 0 0 8.33 4.17 0 0 4.17 4.17 0 0 -4.17 8.33 0 0 -4.16 4.16 0 0 -4.17 8.33 0 0 -4.16 4.17 0 0 -4.17 4.17 0 0 -4.17 -4.17 0 0 -8.33 8.33 0 0 4.17 16.66 0 4.17 0 0 -4.17 20.83 0 0 -4.16 8.33 0 0 -4.17 4.16 0 0 -4.16 4.17 0 0 -8.34 -4.17 0 0 -8.33 4.17 0 0 -4.16 4.17 0 0 -8.33 12.49 0 8.33 0 1.17 0zm-66.06 -149.97c-0.6,-2.49 -1.18,-5.02 -1.76,-7.55l0 7.55 1.76 0zm-4.68 -20.83c-1.91,-8.97 -3.71,-18.13 -5.41,-27.45l0 2.46 -4.16 0 0 4.17 -4.17 0 0 8.33 4.17 0 0 4.16 4.16 0 0 4.17 4.17 0 0 4.16 1.24 0zm-5.72 -29.15c-5.73,-31.75 -10.29,-65.37 -13.91,-99.98l-2.44 0 0 4.16 -4.17 0 0 4.17 -4.16 0 0 8.33 -4.17 0 0 4.17 -4.16 0 0 8.33 4.16 0 0 12.5 4.17 0 0 8.33 4.16 0 0 16.66 4.17 0 0 20.83 4.17 0 0 12.5 4.16 0 8.02 0zm-22.79 -216.62c-0.29,-5.55 -0.57,-11.11 -0.82,-16.66l-1.07 0 0 16.66 1.89 0zm-1.55 -33.32c-1.5,-36.6 -2.36,-73.01 -2.85,-108.31l-5.82 0 0 4.16 -12.5 0 0 4.17 -4.17 0 0 4.16 -4.16 0 0 4.17 -4.17 0 0 16.66 -4.16 0 0 12.5 -4.17 0 0 8.33 8.33 0 0 4.17 4.17 0 0 4.16 4.16 0 0 4.17 4.17 0 0 4.16 4.17 0 0 8.34 4.16 0 0 12.49 4.17 0 0 12.5 4.16 0 0 4.17 4.51 0zm-3.28 -254.11c0.12,-35.34 0.27,-67.36 0.03,-94.53 -0.84,-97.92 9.45,-196.05 -19.23,-280.2 -70.82,1.43 -67.59,34.96 -83.93,117.29 -5.48,27.62 -10.92,55.11 -16.29,82.48l1.55 0 0 4.17 4.17 0 0 8.33 4.17 0 0 8.33 -4.17 0 0 20.83 4.17 0 0 16.66 4.16 0 0 4.17 4.17 0 0 4.16 4.16 0 0 4.17 4.17 0 0 4.16 4.16 0 0 4.17 8.33 0 0 4.17 4.17 0 0 4.16 8.33 0 0 4.17 8.33 0 0 4.16 4.17 0 0 4.17 4.17 0 0 4.16 4.16 0 0 8.34 4.17 0 0 4.16 4.16 0 8.33 0 0 16.66 -4.16 0 0 8.34 4.16 0 0 12.49 12.5 0 0 8.33 4.17 0 0 4.17 4.16 0 0 4.16 4.17 0 0 4.17 5.39 0zm-125.12 -145.8c-7.33,37.64 -14.49,75.11 -21.37,112.48l7.8 0 0 -4.17 12.49 0 0 -4.17 8.33 0 0 -4.16 8.34 0 0 -4.17 8.33 0 0 -4.16 -4.17 0 0 -8.33 4.17 0 0 -16.67 -4.17 0 0 -4.16 -4.16 0 0 -4.17 8.33 0 0 -8.33 -8.33 0 0 8.33 -4.17 0 0 -8.33 -4.17 0 0 -16.66 -4.16 0 0 -33.33 -3.09 0zm-94.38 816.47c0.03,2.78 0.05,5.55 0.08,8.33l1.58 0 0 4.17 4.16 0 0 4.16 4.17 0 0 4.17 8.33 0 0 4.16 4.17 0 0 -16.66 -4.17 0 0 -4.16 -12.5 0 0 -4.17 -5.82 0zm0.47 33.33l0.24 12.49 0.95 0 0 -4.16 4.16 0 0 -4.17 -4.16 0 0 -4.16 -1.19 0zm0.33 16.66c0.1,5.14 0.21,10.71 0.34,16.66l0.52 0 0 -4.16 4.16 0 0 -4.17 4.17 0 0 -4.17 -4.17 0 0 -4.16 -5.02 0zm1.6 70.81c0.65,25.81 1.46,54.3 2.45,83.32l0.97 0 0 -20.83 4.17 0 0 -4.17 4.17 0 0 -8.33 4.16 0 0 -41.65 -4.16 0 0 -4.17 -8.34 0 0 -4.17 -3.42 0zm655.74 -533.2c-2.63,-36.29 -6.06,-69.5 -9.93,-99.98l-0.87 0 0 4.17 0 4.17 0 8.33 -4.17 0 0 8.33 -4.17 0 0 20.83 4.17 0 0 8.33 -4.17 0 0 8.33 -4.16 0 0 12.5 -4.17 0 0 12.49 8.33 0 0 4.17 8.34 0 0 4.17 8.33 0 0 4.16 2.47 0zm-27.02 -208.28l-0.45 -2.35 0 2.35 0.45 0zm-304.54 154.13l-4.17 0 0 4.16 4.17 0 0 -4.16zm-262.44 524.87l-4.16 0 0 4.17 4.16 0 0 -4.17zm304.1 -504.04l-4.17 0 0 4.16 4.17 0 0 -4.16 4.16 0 0 12.49 4.17 0 0 -4.16 4.16 0 0 -4.17 4.17 0 0 -4.16 -4.17 0 0 -4.17 -8.33 0 0 -4.17 -4.16 0 0 8.34zm-137.47 433.22l-4.17 0 0 4.17 4.17 0 0 -4.17zm-129.14 70.82l-4.16 0 0 8.33 4.16 0 0 -8.33zm79.15 -504.04l-4.16 0 0 8.33 4.16 0 0 -8.33zm187.46 37.49l-4.17 0 0 8.33 4.17 0 0 -8.33zm-33.33 -58.32l-4.16 0 0 8.33 4.16 0 0 -8.33zm-208.28 474.88l-8.33 0 0 4.17 8.33 0 0 -4.17zm54.15 -399.9l-4.16 0 0 8.33 4.16 0 0 -8.33zm158.3 -112.47l-4.17 0 0 8.33 4.17 0 0 -8.33zm-116.64 245.77l-4.17 0 0 8.33 -8.33 0 0 4.17 -4.16 0 0 -12.5 4.16 0 0 -4.17 4.17 0 0 -4.16 8.33 0 0 8.33zm87.48 -416.57l-8.33 0 0 4.17 8.33 0 0 -4.17zm-79.15 612.36l-4.17 0 0 8.33 4.17 0 0 -8.33zm-79.15 -374.91l-8.33 0 0 4.16 8.33 0 0 -4.16zm154.13 -224.95l-8.33 0 0 4.17 8.33 0 0 -4.17zm-224.94 720.66l-4.17 0 0 8.33 4.17 0 0 -8.33zm245.77 -554.03l-4.17 0 0 12.5 4.17 0 0 -12.5zm-249.94 291.59l-4.17 0 0 4.17 -4.16 0 0 4.16 8.33 0 0 -8.33zm54.15 -308.26l-4.16 0 0 -4.16 -4.17 0 0 8.33 8.33 0 0 -4.17zm0 41.66l-8.33 0 0 4.17 4.17 0 0 4.16 4.16 0 0 -8.33zm87.48 487.38l-4.16 0 0 4.17 -4.17 0 0 8.33 4.17 0 0 -4.17 4.16 0 0 -8.33 4.17 0 0 -4.16 4.16 0 0 -4.17 -8.33 0 0 -4.16 -4.16 0 0 -8.33 4.16 0 0 -8.34 -4.16 0 0 -20.82 -8.33 0 0 20.82 4.16 0 0 8.34 -4.16 0 0 8.33 4.16 0 0 4.16 4.17 0 0 4.17 4.16 0 0 4.16zm-58.32 -437.39l-8.33 0 0 8.33 8.33 0 0 -8.33zm220.78 -45.82l-4.16 0 0 -4.17 -4.17 0 0 8.33 4.17 0 0 4.17 4.16 0 0 -8.33zm-133.3 -87.48l0 -4.17 -4.16 0 0 -8.33 4.16 0 0 -4.16 4.17 0 0 -4.17 20.83 0 0 -4.17 8.33 0 0 4.17 8.33 0 0 4.17 4.16 0 0 4.16 4.17 0 0 4.17 -4.17 0 0 4.16 -4.16 0 0 4.17 -4.17 0 0 4.16 12.5 0 0 4.17 4.17 0 0 4.17 4.16 0 0 -4.17 4.17 0 0 -4.17 4.16 0 0 4.17 4.17 0 0 4.17 4.16 0 0 4.16 -4.16 0 0 4.17 -25 0 0 4.16 -4.16 0 0 -4.16 -8.33 0 0 -4.17 -8.33 0 0 -8.33 -4.17 0 0 4.17 -8.33 0 0 -4.17 -4.17 0 0 -4.17 -4.16 0 0 -4.16 -4.17 0zm137.47 141.63l4.16 0 0 -4.16 8.34 0 0 -4.17 -16.67 0 0 8.33 -4.16 0 0 4.17 4.16 0 0 4.16 4.17 0 0 -8.33zm-133.3 504.05l-8.33 0 0 -8.34 8.33 0 0 8.34zm66.65 -254.11l8.33 0 0 4.17 -4.17 0 0 4.16 -4.16 0 0 -8.33zm-66.65 -466.55l4.16 0 0 24.99 -16.66 0 0 -16.66 12.5 0 0 -8.33zm133.3 70.81l-8.33 0 0 -8.33 8.33 0 0 8.33zm-291.6 591.53l-4.16 0 0 -12.5 12.49 0 0 -16.66 -4.16 0 0 4.16 -4.17 0 0 4.17 -4.16 0 0 4.16 -4.17 0 0 -8.33 -4.16 0 0 -4.16 -8.34 0 0 8.33 4.17 0 0 4.16 -4.17 0 0 8.33 4.17 0 0 4.17 4.17 0 0 12.5 12.49 0 0 -8.33zm216.62 -737.32l4.16 0 0 -8.34 -8.33 0 0 -4.16 -8.33 0 0 -8.33 4.17 0 0 -16.67 4.16 0 0 -4.16 -4.16 0 0 -8.33 -4.17 0 0 -4.17 -12.5 0 0 4.17 4.17 0 0 8.33 8.33 0 0 4.16 -4.17 0 0 4.17 -4.16 0 0 4.17 -4.17 0 0 4.16 -4.16 0 0 12.5 4.16 0 0 4.16 8.33 0 0 8.34 4.17 0 0 4.16 12.5 0 0 -4.16zm116.64 903.94l0 -4.16 4.16 0 0 4.16 -4.16 0zm-4.17 4.17l0 -4.17 4.17 0 0 4.17 -4.17 0zm0 0l0 4.16 -4.16 0 0 -4.16 4.16 0zm-233.28 -62.49l-4.16 0 0 4.17 -4.17 0 0 -25 4.17 0 0 12.5 4.16 0 0 8.33zm112.48 -287.43l-4.17 0 0 -4.16 4.17 0 0 4.16zm4.16 33.33l4.17 0 0 8.33 -4.17 0 0 -8.33zm-279.1 233.27l-4.16 0 0 -12.49 4.16 0 0 12.49zm283.27 -733.15l-4.17 0 0 -4.17 4.17 0 0 4.17zm49.99 20.83l-12.5 0 0 -4.17 -8.33 0 0 -4.16 12.49 0 0 4.16 8.34 0 0 4.17zm8.33 8.33l-4.17 0 0 -4.17 4.17 0 0 4.17zm-45.83 24.99l-4.16 0 0 4.17 -4.17 0 0 -25 4.17 0 0 12.5 4.16 0 0 8.33zm8.34 -20.83l4.16 0 0 25 -4.16 0 0 -4.17 -4.17 0 0 -8.33 4.17 0 0 -12.5zm33.57 -410.64c-18.11,17.46 -53.74,124.73 -75.23,185.99l0 16.37 4.16 0 0 4.17 4.17 0 0 16.66 -16.66 0 0 -4.17 -3.75 0c-17.16,43.75 -27.13,75.01 -32.65,104.15l3.07 0 0 -4.17 8.33 0 0 -4.17 8.34 0 0 -4.16 4.16 0 0 -4.17 4.17 0 0 -4.16 16.66 0 0 4.16 4.16 0 0 8.33 -4.16 0 0 4.17 -12.5 0 0 4.17 4.17 0 0 12.49 4.16 0 0 4.17 4.17 0 0 8.33 4.16 0 0 8.33 4.17 0 0 -4.16 8.33 0 0 -4.17 8.33 0 0 8.33 -4.16 0 0 4.17 -4.17 0 0 4.16 8.33 0 8.33 0 0 -16.66 4.17 0 0 -4.17 -4.17 0 0 -4.16 4.17 0 0 -4.17 8.33 0 0 12.5 -4.16 0 0 12.5 4.16 0 8.33 0 0 16.66 12.5 0 0 4.16 4.17 0 0 4.17 4.16 0 0 8.33 12.5 0 0 12.5 -8.33 0 0 4.16 16.66 0 0 8.34 -12.5 0 0 16.66 16.66 0 0 -25 -4.16 0 0 -4.16 12.5 0 0 4.16 8.33 0 0 4.17 4.16 0 0 4.17 -4.16 0 0 4.16 8.33 0 0 4.17 4.17 0 0 4.16 2.06 0c-56.33,-270.87 12.98,-360.55 -55.97,-431.47zm-124.69 460.63c0.48,14.26 1.03,29.83 1.54,47.12 0.46,15.59 1.25,36.59 2.54,61.19l3.72 0 0 4.17 -3.5 0c2.18,40.47 5.73,90.16 11.46,141.63l0.37 0 0 3.34c0.19,1.66 0.39,3.33 0.58,4.99l3.59 0 0 8.33 4.17 0 0 8.33 4.16 0 0 4.17 4.17 0 0 4.16 4.16 0 0 4.17 8.33 0 0 -4.17 4.17 0 0 -4.16 8.33 0 0 -4.17 8.33 0 0 -4.16 8.33 0 0 -4.17 4.17 0 0 -4.17 12.5 0 0 4.17 -4.17 0 0 8.33 -8.33 0 0 4.17 -4.17 0 0 4.16 -4.16 0 0 4.17 -8.33 0 0 4.16 -4.17 0 0 8.34 -4.17 0 0 24.99 4.17 0 0 33.33 4.17 0 0 8.33 8.33 0 0 -4.17 8.33 0 0 -4.16 4.16 0 0 -4.17 4.17 0 0 -8.33 4.17 0 0 -12.5 4.16 0 0 -20.83 4.17 0 0 4.17 4.16 0 0 20.83 4.17 0 0 20.83 4.16 0 0 4.16 12.5 0 0 4.17 8.33 0 0 4.16 4.17 0 0 4.17 4.16 0 0 4.16 8.33 0 0 4.17 8.34 0 0 4.16 8.33 0 0 4.17 4.16 0 0 4.17 8.34 0 0 4.16 8.33 0 0 4.17 12.49 0 0 4.16 8.33 0 0 4.17 -20.82 0 0 -4.17 -12.5 0 0 -4.16 -8.33 0 0 -4.17 -8.33 0 0 4.17 -8.34 0 0 -12.5 -16.66 0 0 -4.17 -4.16 0 0 -8.33 -16.67 0 0 -4.16 -8.33 0 0 -4.17 -8.33 0 -4.16 0 -4.17 0 0 4.17 -4.17 0 0 4.16 -4.16 0 0 4.17 -4.17 0 0 4.16 -8.33 0 0 8.34 -8.33 0 0 8.33 4.17 0 0 8.33 4.16 0 0 -8.33 4.17 0 0 4.16 4.16 0 0 8.33 4.17 0 0 12.5 4.16 0 0 4.17 4.17 0 0 4.16 8.33 0 0 4.17 12.5 0 0 4.16 -29.16 0 0 -4.16 -4.17 0 0 -4.17 -4.16 0 0 -4.16 -4.17 0 0 -4.17 -4.16 0 0 -4.16 -4.17 0 0 -8.34 -4.17 0 0 -12.49 -4.16 0 0 -4.17 -9.64 0c17.86,78.67 43.84,142.08 81.64,156.57 59.78,22.92 78.09,-92.68 90.52,-164.9l-0.06 0 0 -4.17 -4.17 0 0 -4.16 5.68 0c0.9,-5.17 1.78,-10.05 2.66,-14.56l0 -2.1 0.41 0c0.44,-2.27 0.89,-4.44 1.33,-6.49 31.72,-146.47 36.21,-129.69 -4.41,-265.19 -7.78,-25.98 -14.5,-50.61 -20.35,-74.07l-14.47 0 0 -4.17 -29.17 0 -4.16 0 -4.17 0 0 -4.17 -4.16 0 -4.17 0 0 4.17 -20.83 0 0 -4.17 -16.66 0 -8.33 0 0 12.5 -4.17 0 0 -8.33 -4.16 0 0 -4.17 -4.17 0 -8.33 0 0 -4.16 -45.82 0 0 -4.17 -8.33 0 0 -4.16 -4.17 0 0 -4.17 -7.8 0zm19.76 287.43l0.54 4.08 0 -4.08 -0.54 0zm0.55 4.17c4.29,32.58 9.53,65.12 15.9,95.81l0.75 0 0 -4.17 4.17 0 0 -8.33 4.16 0 0 -33.32 4.17 0 0 -4.17 -4.17 0 0 -16.66 -4.16 0 0 -8.33 -4.17 0 0 -8.33 -4.16 0 0 -4.17 -4.17 0 0 -4.17 -4.16 0 0 -4.16 -4.16 0zm16.76 99.97c0.6,2.8 1.2,5.58 1.81,8.34l2.25 0 0 -4.17 4.16 0 0 -4.17 -8.22 0z"/>
 </g>
</svg>
