<?xml version="1.0" encoding="UTF-8"?>
<!DOCTYPE svg PUBLIC "-//W3C//DTD SVG 1.1//EN" "http://www.w3.org/Graphics/SVG/1.1/DTD/svg11.dtd">
<!-- Creator: CorelDRAW (Versión de evaluación) -->
<svg xmlns="http://www.w3.org/2000/svg" xml:space="preserve" width="739px" height="2458px" version="1.1" style="shape-rendering:geometricPrecision; text-rendering:geometricPrecision; image-rendering:optimizeQuality; fill-rule:evenodd; clip-rule:evenodd"
viewBox="0 0 739 2457.4"
 xmlns:xlink="http://www.w3.org/1999/xlink"
 xmlns:xodm="http://www.corel.com/coreldraw/odm/2003">
 <defs>
  <style type="text/css">
   <![CDATA[
    .str0 {stroke:#4B4B4D;stroke-width:10;stroke-miterlimit:22.9256}
    .fil0 {fill:#FEFEFE}
   ]]>
  </style>
 </defs>
 <g id="tooth-fissure-full-28">
  <metadata id="CorelCorpID_0Corel-Layer"/>
  <path id="root" class="fil0 str0" d="M270.62 1490.67c-220.63,110.74 -245.67,0.12 -262.81,-324.94 -4.55,-86.42 -5.49,-170.87 -2.27,-253.86l21.19 -23.52 3.09 2.79 11.15 -12.39 3.1 2.79 5.57 -6.19 3.1 2.79 13.93 -15.48 3.1 2.79 11.15 -12.38 5.58 -6.19 9.28 8.36 2.79 -3.1 -6.19 -5.57 5.57 -6.19 3.1 2.78 8.36 -9.28 -3.09 -2.79 -2.79 3.1 -3.1 -2.79 -2.78 3.09 -6.2 -5.57 2.79 -3.1 -9.28 -8.36 2.78 -3.1 3.1 2.79 2.79 -3.09 6.19 5.57 2.78 -3.09 6.2 5.57 2.78 -3.09 6.19 5.57 -2.78 3.1 3.09 2.78 5.58 -6.19 -3.1 -2.78 5.58 -6.19 3.09 2.78 2.79 -3.09 3.1 2.79 2.78 -3.1 6.2 5.57 2.78 -3.09 3.1 2.79 5.57 -6.19 3.1 2.78 2.79 -3.09 3.09 2.79 2.79 -3.1 6.19 5.57 2.79 -3.09 21.67 19.51 2.78 -3.09 6.19 5.57 2.79 -3.09 -21.67 -19.52 -2.78 3.1 -12.39 -11.15 -2.78 3.09 -12.38 -11.15 2.78 -3.09 -3.09 -2.79 5.57 -6.19 -3.09 -2.79 11.15 -12.38 -3.1 -2.79 5.58 -6.19 -3.1 -2.79 2.79 -3.09 -3.1 -2.79 -2.78 3.1 3.09 2.78 -8.36 9.29 3.09 2.79 -11.15 12.38 3.1 2.79 -2.79 3.09 3.1 2.79 -2.79 3.1 3.1 2.78 -2.79 3.1 3.09 2.79 -5.57 6.19 -3.1 -2.79 -2.79 3.1 -6.19 -5.58 -2.78 3.1 -9.29 -8.37 -2.79 3.1 3.1 2.79 -5.58 6.19 -3.09 -2.79 -2.79 3.09 -3.1 -2.78 -2.78 3.09 -6.19 -5.57 -2.79 3.09 -6.19 -5.57 -2.79 3.09 -6.19 -5.57 -2.79 3.09 -3.09 -2.78 2.78 -3.1 -6.19 -5.57 2.79 -3.1 -9.29 -8.36 2.79 -3.1 -9.29 -8.36 -6.19 -5.58 2.79 -3.09 -3.09 -2.79 2.78 -3.09 -3.09 -2.79 2.78 -3.1 -6.19 -5.57 -5.57 6.19 3.09 2.79 -2.78 3.09 3.09 2.79 -2.79 3.09 3.1 2.79 -5.58 6.19 3.1 2.79 -2.79 3.1 3.1 2.78 -2.79 3.1 3.1 2.79 -5.58 6.19 3.1 2.79 -2.79 3.09 3.09 2.79 -5.57 6.19 3.09 2.79 -2.78 3.09 3.09 2.79 -2.78 3.1 -3.1 -2.79 -2.79 3.09 -9.28 -8.36 -2.79 3.1 12.38 11.15 -2.79 3.09 3.1 2.79 -2.79 3.09 -3.1 -2.78 -2.78 3.09 -3.1 -2.78 -2.79 3.09 -9.28 -8.36 -2.79 3.09 -1.66 -1.49c2.93,-39.69 6.88,-79.08 11.9,-118.22l1.25 1.13 2.79 -3.1 -3.4 -3.05c11.1,-84.99 27.27,-168.85 49.13,-252.19 30.78,-117.37 121.34,-454.09 220.35,-453.19 20.72,107.11 -160.84,984.67 43.59,1054.23 57.09,19.42 88.47,-25.33 105.92,-94.87l1.72 1.55 2.79 -3.1 6.19 5.57 -2.79 3.1 6.19 5.58 -2.79 3.09 9.29 8.36 -2.79 3.1 15.48 13.94 2.78 -3.1 -6.19 -5.57 2.79 -3.1 -9.28 -8.36 2.78 -3.1 -6.19 -5.57 2.79 -3.1 -6.19 -5.57 2.79 -3.1 -3.1 -2.79 2.79 -3.09 -6.19 -5.58 2.78 -3.09 -6.19 -5.58 2.79 -3.09 -6.17 -5.56 0.01 -0.05 2.76 -3.06 -1.88 -1.7c0.18,-1 0.35,-2.01 0.52,-3.02l1.05 -1.17 -0.74 -0.66c3.04,-18 5.43,-36.98 7.32,-56.44l4.9 -5.44 -3.1 -2.79 2.79 -3.09 -3.1 -2.79 -0.24 0.26c1.05,-12.35 1.9,-24.85 2.61,-37.36l1.67 1.49 2.79 -3.09 3.09 2.79 2.79 -3.1 6.19 5.58 5.57 -6.19 3.1 2.78 2.79 -3.09 -9.29 -8.37 -2.79 3.1 -3.09 -2.79 -2.79 3.1 -6.19 -5.58 -2.79 3.1 -0.48 -0.43c1.65,-32.7 2.37,-65.29 2.82,-95.54l1.41 -1.56 -1.38 -1.24 0.06 -3.52 3.79 -4.22 -3.09 -2.79 11.15 -12.38 -3.1 -2.79 8.37 -9.29 -3.1 -2.78 13.94 -15.48 -3.09 -2.79 11.14 -12.38 3.1 2.79 5.58 -6.19 3.09 2.78 2.79 -3.09 6.19 5.57 2.79 -3.09 -15.48 -13.94 2.79 -3.1 -3.1 -2.78 8.36 -9.29 -3.09 -2.79 8.36 -9.28 -3.09 -2.79 5.57 -6.19 -3.09 -2.79 2.78 -3.1 -3.09 -2.78 2.79 -3.1 -3.1 -2.79 2.79 -3.09 -3.1 -2.79 2.79 -3.09 -6.19 -5.58 5.57 -6.19 3.1 2.79 8.36 -9.29 3.1 2.79 11.15 -12.38 3.09 2.78 2.79 -3.09 3.1 2.79 2.78 -3.1 3.1 2.79 2.79 -3.1 9.28 8.36 2.79 -3.09 12.38 11.15 2.79 -3.1 12.38 11.15 -2.78 3.1 3.09 2.79 -2.79 3.09 6.19 5.58 -2.78 3.09 34.05 30.67 -2.79 3.09 6.19 5.58 3.1 2.79 -2.79 3.09 3.09 2.79 -5.57 6.19 3.09 2.79 7.21 -8c0.69,3.63 1.37,7.2 2.03,10.71l-0.26 -0.23 -5.57 6.19 3.09 2.79 3.63 -4.03c7.31,38.82 12.69,70.06 15.31,89.1 37.3,271.42 46.6,584.51 29.43,861.63 -209.47,110.53 -258.95,-184.57 -428.76,-99.34zm-264.24 -598.4c0.1,-2.2 0.21,-4.39 0.32,-6.58l4.86 -5.4 3.09 2.79 -8.27 9.19zm438.21 54.96l0.39 -1.76 0.66 0.59 -1.05 1.17zm20.01 -277.45l0.05 -3.7 1.82 1.63 -1.87 2.07zm0.08 -6.31c0.29,-22.63 0.63,-42.86 1.4,-59.43 0.35,-7.36 0.56,-15.33 0.67,-23.79l0.98 -1.09 -0.96 -0.86c0.06,-5.4 0.09,-10.98 0.08,-16.76l3.05 2.76 2.79 -3.1 -5.87 -5.29c-0.93,-157.38 -24.9,-441.57 43.43,-493.66 25.07,33.64 74.95,241.1 112.68,419.27l-0.97 1.08 1.48 1.34 0.55 2.62 -1.73 1.92 -3.09 -2.79 -5.58 6.19 -3.09 -2.78 -8.36 9.28 -3.1 -2.78 -8.36 9.28 -3.1 -2.78 -5.57 6.19 -3.1 -2.79 -2.79 3.09 -3.09 -2.78 -5.58 6.19 -3.09 -2.79 -2.79 3.09 -3.1 -2.78 -5.57 6.19 3.09 2.79 -2.78 3.09 -3.1 -2.79 -2.79 3.1 -3.09 -2.79 -5.58 6.19 -3.09 -2.78 -5.58 6.19 -3.09 -2.79 -2.79 3.09 -6.19 -5.57 -2.79 3.09 -6.19 -5.57 2.79 -3.1 -3.1 -2.78 -2.79 3.09 -3.09 -2.79 2.79 -3.09 -9.29 -8.36 2.79 -3.1 -6.19 -5.57 -2.79 3.09 -9.29 -8.36 2.79 -3.1 -9.29 -8.36 -2.78 3.09 3.09 2.79 -2.79 3.1 6.19 5.57 -5.57 6.19 37.14 33.46 -2.78 3.09 -6.19 -5.57 -5.58 6.19 6.19 5.57 -2.79 3.1 3.1 2.79 -2.79 3.09 3.1 2.79 -2.79 3.09 9.29 8.37 3.09 2.78 -5.57 6.19 3.09 2.79 -2.79 3.1 3.1 2.79 -5.57 6.19 3.09 2.78 -5.58 6.2 3.1 2.78 -5.57 6.19 3.09 2.79 -5.57 6.19 3.09 2.79 -25.09 27.86 3.1 2.79 -12.63 14.02zm167.75 -136.47c4.28,20.81 8.35,40.96 12.12,60.03l-2.5 -2.25 -2.79 3.1 -3.09 -2.79 2.79 -3.1 -6.19 -5.57 2.78 -3.1 -6.19 -5.57 5.58 -6.19 -3.1 -2.79 -2.79 3.1 -6.19 -5.58 2.79 -3.1 -3.1 -2.78 2.79 -3.1 -3.09 -2.79 2.78 -3.09 -3.09 -2.79 2.79 -3.09 -3.1 -2.79 5.58 -6.19 3.09 2.79 2.13 -2.36zm-300.18 619.67l-3.09 -2.79 -2.79 3.1 3.1 2.79 2.78 -3.1 3.1 2.79 2.79 -3.1 3.09 2.79 5.58 -6.19 3.09 2.79 5.58 -6.19 3.09 2.78 13.94 -15.47 3.1 2.78 5.57 -6.19 3.1 2.79 2.79 -3.09 3.09 2.78 2.79 -3.09 3.09 2.79 2.79 -3.1 3.1 2.79 2.79 -3.1 3.09 2.79 2.79 -3.1 3.09 2.79 2.79 -3.09 3.1 2.78 5.57 -6.19 3.1 2.79 5.57 -6.19 3.1 2.79 2.79 -3.1 3.09 2.79 2.79 -3.1 3.09 2.79 3.1 2.79 2.79 -3.1 3.09 2.79 2.79 -3.09 3.09 2.78 2.79 -3.09 3.1 2.79 2.79 -3.1 3.09 2.79 2.79 -3.1 3.1 2.79 -2.79 3.09 9.28 8.37 2.79 -3.1 -9.28 -8.36 5.57 -6.19 3.1 2.79 2.78 -3.1 3.1 2.79 11.15 -12.38 27.86 25.08 2.79 -3.09 18.57 16.72 27.86 25.09 12.38 11.15 -2.79 3.1 12.39 11.15 -2.79 3.1 6.19 5.57 -2.79 3.09 6.19 5.58 -2.79 3.1 18.58 16.72 -2.79 3.1 9.29 8.36 -2.79 3.1 3.09 2.78 -2.78 3.1 6.19 5.57 -2.79 3.1 3.1 2.79 -2.79 3.09 9.28 8.37 -2.78 3.09 9.28 8.36 2.79 -3.09 -6.19 -5.58 2.79 -3.09 -6.19 -5.58 2.78 -3.09 -3.09 -2.79 2.79 -3.1 -3.1 -2.78 2.79 -3.1 -3.1 -2.79 2.79 -3.09 3.1 2.78 5.57 -6.19 -6.19 -5.57 -5.58 6.19 -3.09 -2.79 2.79 -3.09 -12.38 -11.15 2.78 -3.1 -9.28 -8.36 2.78 -3.1 -6.19 -5.57 2.79 -3.1 -6.19 -5.57 2.79 -3.1 -3.1 -2.79 2.79 -3.09 -9.29 -8.37 2.79 -3.09 -6.19 -5.58 2.79 -3.09 -3.1 -2.79 -3.09 -2.79 -2.79 3.1 -3.1 -2.79 2.79 -3.09 -6.19 -5.58 2.79 -3.09 -34.05 -30.67 -2.79 3.1 -6.19 -5.58 -6.19 -5.57 -27.86 -25.09 13.94 -15.48 -3.1 -2.79 5.58 -6.19 -3.1 -2.79 8.36 -9.28 -3.09 -2.79 5.57 -6.19 -3.09 -2.79 2.78 -3.09 -3.09 -2.79 5.57 -6.19 -3.09 -2.79 5.57 -6.19 -3.09 -2.79 8.36 -9.28 -3.09 -2.79 11.15 -12.38 -3.1 -2.79 2.79 -3.1 -3.1 -2.78 2.79 -3.1 -3.1 -2.79 -8.36 9.29 3.1 2.79 -5.58 6.19 -9.29 -8.36 -2.78 3.09 -6.19 -5.58 -5.58 6.2 6.19 5.57 2.79 -3.09 9.29 8.36 -5.58 6.19 3.1 2.79 -22.3 24.76 3.09 2.79 -5.57 6.19 3.09 2.79 5.58 -6.19 6.19 5.57 -5.58 6.19 -6.19 -5.57 -2.78 3.09 -5.58 6.19 3.09 2.79 -13.93 15.48 3.09 2.79 -11.15 12.38 6.19 5.57 -5.57 6.19 -3.1 -2.78 -2.78 3.09 -3.1 -2.79 -2.79 3.1 -3.09 -2.79 -2.79 3.1 -3.1 -2.79 -2.78 3.1 -3.1 -2.79 -5.58 6.19 -3.09 -2.79 -2.79 3.1 -6.19 -5.58 -2.79 3.1 -3.09 -2.79 -2.79 3.1 -6.19 -5.58 -5.58 6.19 -3.09 -2.79 -5.58 6.19 -3.09 -2.78 -2.79 3.09 -3.1 -2.78 -2.78 3.09 -6.19 -5.58 -2.79 3.1 -9.29 -8.36 -2.79 3.09 -6.19 -5.57 -6.19 -5.58 -2.78 3.1 -3.1 -2.79 -2.79 3.1 -9.28 -8.37 -2.79 3.1 -15.48 -13.94 -2.79 3.1 -3.09 -2.79 -9.29 -8.36 -5.57 6.19 3.09 2.79 -5.57 6.19 6.19 5.57 2.78 -3.1 3.1 2.79 5.58 -6.19 6.19 5.58 -5.58 6.19 -3.09 -2.79 -13.94 15.48 -3.1 -2.79 -5.57 6.19 -3.1 -2.79 -5.57 6.19 -3.1 -2.78 -2.79 3.09 -3.09 -2.78 -2.79 3.09 -3.1 -2.79 5.58 -6.19 -3.1 -2.79 2.79 -3.09 -3.09 -2.79 2.78 -3.09 -3.09 -2.79 2.78 -3.1 -3.09 -2.78 11.15 -12.39 -3.09 -2.79 2.78 -3.09 6.19 5.57 2.79 -3.09 6.19 5.58 8.36 -9.29 -18.57 -16.73 -2.79 3.1 -3.09 -2.79 -2.79 3.1 -6.19 -5.58 2.79 -3.09 -3.1 -2.79 2.79 -3.1 -3.1 -2.79 2.79 -3.09 -3.09 -2.79 -6.19 -5.57 -9.29 -8.37 -5.58 6.19 -3.09 -2.78 -2.79 3.09 -3.09 -2.79 -5.58 6.2 3.1 2.78 -5.58 6.19 -3.09 -2.78 -2.79 3.09 -3.1 -2.79 -2.79 3.1 -6.19 -5.57 -2.78 3.09 -15.48 -13.94 -2.79 3.1 -3.09 -2.79 -12.39 -11.15 2.79 -3.1 -6.19 -5.57 -5.57 6.19 3.09 2.79 -2.79 3.09 -3.09 -2.78 -2.79 3.09 -3.1 -2.79 -2.78 3.1 -6.19 -5.58 -2.79 3.1 -3.1 -2.79 -2.79 3.1 -6.19 -5.58 -2.78 3.1 -3.1 -2.79 2.79 -3.1 -3.1 -2.78 5.58 -6.19 -3.1 -2.79 -2.78 3.09 -6.2 -5.57 -2.78 3.09 -3.1 -2.78 2.79 -3.1 -9.29 -8.36 2.79 -3.1 -9.29 -8.36 2.79 -3.09 -3.09 -2.79 2.78 -3.1 -6.19 -5.57 2.79 -3.1 -6.19 -5.57 2.79 -3.1 -6.19 -5.58 2.78 -3.09 -3.09 -2.79 -2.79 3.1 3.1 2.78 -2.79 3.1 3.09 2.79 -2.78 3.09 3.09 2.79 -2.79 3.1 3.1 2.78 -2.79 3.1 6.19 5.57 -2.78 3.1 3.09 2.79 -5.57 6.19 3.09 2.79 -2.79 3.09 3.1 2.79 -5.58 6.19 3.1 2.79 -5.58 6.19 3.1 2.79 -8.36 9.28 3.09 2.79 -2.78 3.1 3.09 2.78 -8.36 9.29 -3.1 -2.79 -2.79 3.1 -3.09 -2.79 -2.79 3.1 3.1 2.78 -2.79 3.1 9.29 8.36 -2.79 3.1 3.09 2.78 -5.57 6.2 3.09 2.78 8.37 -9.28 -3.1 -2.79 8.36 -9.29 3.1 2.79 8.36 -9.29 3.1 2.79 2.78 -3.09 2.79 -3.1 3.1 2.79 2.79 -3.1 9.28 8.36 2.79 -3.09 6.19 5.58 2.79 -3.1 3.09 2.79 5.58 -6.19 3.1 2.78 2.78 -3.09 3.1 2.79 2.78 -3.1 3.1 2.79 2.79 -3.1 3.09 2.79 2.79 -3.1 3.1 2.79 2.79 -3.09 6.19 5.57 2.78 -3.09 3.1 2.79 2.79 -3.1 9.28 8.36 2.79 -3.09 6.19 5.57 -2.79 3.1 3.1 2.79 2.79 -3.1 3.09 2.79 5.58 -6.19 3.09 2.78 2.79 -3.09 3.1 2.79 2.78 -3.1 3.1 2.79 2.79 -3.1 3.09 2.79 2.79 -3.1 15.48 13.94 -2.79 3.1 6.19 5.57 -2.79 3.1 3.1 2.79 -2.79 3.09 3.1 2.79 -2.79 3.1 3.09 2.78 -5.57 6.19 3.09 2.79 -5.57 6.19 3.09 2.79 -2.78 3.09 3.09 2.79 -2.78 3.1 3.09 2.78 -5.57 6.2 3.09 2.78 -5.57 6.19 3.09 2.79 -2.79 3.1 6.19 5.57 -5.57 6.2 3.09 2.78 -2.78 3.1 3.09 2.78 -5.57 6.2 3.09 2.78 -8.36 9.29 3.1 2.79 -2.79 3.09 3.09 2.79 -2.78 3.1 6.19 5.57 -2.79 3.1 3.1 2.79 -2.79 3.09 3.09 2.79 -2.78 3.09 -8.37 9.29 -2.79 3.09 -3.09 -2.78 -2.79 3.09 -3.09 -2.78 -8.37 9.28 -3.09 -2.79 -8.37 9.29 6.2 5.58 2.78 -3.1 3.1 2.79 -2.79 3.09 12.38 11.15 2.79 -3.09 6.19 5.57 2.79 -3.09 6.19 5.57 2.79 -3.09 6.19 5.57 2.79 -3.09 24.76 22.3 2.79 -3.1 -3.1 -2.79 2.79 -3.09 -27.86 -25.09 2.79 -3.09 -9.29 -8.37 2.79 -3.09 -9.29 -8.37 5.58 -6.19 11.15 -12.38 -3.1 -2.79 2.79 -3.09 -3.09 -2.79 5.57 -6.19 -3.1 -2.79 5.58 -6.19 -3.09 -2.79 5.57 -6.19 -3.09 -2.79 5.57 -6.19 -3.1 -2.78 2.79 -3.1 -3.09 -2.79 2.78 -3.09 -3.09 -2.79 5.57 -6.19 -3.09 -2.79 2.79 -3.09 -3.1 -2.79 2.79 -3.1 3.09 2.79 2.79 -3.1 2.79 -3.09 3.09 2.79 2.79 -3.1 3.1 2.79 5.57 -6.19 3.1 2.79 2.78 -3.1 3.1 2.79 5.58 -6.19 3.09 2.79 5.58 -6.2 3.09 2.79 2.79 -3.09 6.19 5.57 2.79 -3.09 3.09 2.78 2.79 -3.09 3.1 2.79 2.79 -3.1 3.09 2.79 2.79 -3.1 3.09 2.79 2.79 -3.1 9.29 8.37 3.09 2.79 -5.57 6.19 -3.1 -2.79 -5.57 6.19 -3.1 -2.79 -8.36 9.29 -3.1 -2.79 -2.79 3.1 -3.09 -2.79 -16.73 18.57zm289.96 -490.06l-3.09 -2.79 -2.79 3.1 3.1 2.79 2.78 -3.1zm-546.25 214.41l-3.09 -2.78 -2.79 3.09 3.09 2.79 2.79 -3.1zm563.27 -171.06l-3.1 -2.78 -2.78 3.09 3.09 2.79 2.79 -3.1 3.1 2.79 -8.37 9.29 3.1 2.79 2.79 -3.1 3.09 2.79 2.79 -3.1 3.09 2.79 2.79 -3.09 -3.09 -2.79 2.78 -3.1 -6.19 -5.57 2.79 -3.1 -3.09 -2.79 -5.58 6.19zm-294.51 177.65l-3.1 -2.79 -2.78 3.09 3.09 2.79 2.79 -3.09zm-97.55 52.29l-3.1 -2.78 -2.78 3.09 3.09 2.79 2.79 -3.1zm285.57 -292.2l-3.1 -2.79 -2.79 3.09 3.1 2.79 2.79 -3.09zm131.11 588.95l-3.1 -2.78 -5.58 6.19 3.1 2.78 5.58 -6.19zm-560.03 -330.54l-3.09 -2.79 -5.58 6.2 3.1 2.78 5.57 -6.19zm396.11 -321.59l-3.09 -2.79 -5.58 6.2 3.1 2.78 5.57 -6.19zm114.21 153.3l-3.09 -2.78 -5.58 6.19 3.1 2.78 5.57 -6.19zm14.26 -65.63l-3.09 -2.79 -5.58 6.19 3.1 2.79 5.57 -6.19zm-472.56 213.5l-6.19 -5.57 -2.78 3.09 6.19 5.58 2.78 -3.1zm362.24 101.98l-6.19 -5.58 -2.79 3.1 6.2 5.57 2.78 -3.09zm-112.63 -235.97l-3.1 -2.79 -5.57 6.19 -6.19 -5.58 -2.79 3.1 -3.1 -2.79 8.36 -9.28 3.1 2.78 2.79 -3.09 3.09 2.79 2.79 -3.1 6.19 5.57 -5.57 6.2zm-383.04 64.29l-6.19 -5.58 -2.78 3.1 6.19 5.57 2.78 -3.09zm65.93 76.18l-3.09 -2.78 -5.58 6.19 3.1 2.79 5.57 -6.2zm553.39 -247.23l-3.1 -2.79 -8.36 9.29 3.09 2.79 8.37 -9.29zm-134.34 -143.4l-3.1 -2.78 2.79 -3.1 -3.09 -2.79 -5.58 6.19 6.19 5.58 2.79 -3.1zm-27.88 30.96l-6.19 -5.58 -2.79 3.1 3.1 2.79 -2.79 3.09 3.1 2.79 5.57 -6.19zm176.62 613.12l-3.09 -2.79 2.78 -3.09 -3.09 -2.79 -5.58 6.19 6.19 5.58 2.79 -3.1zm-155.39 -151.15l-6.19 -5.57 -2.79 3.09 3.1 2.79 -2.79 3.1 3.1 2.79 5.57 -6.2zm-282.37 -41.26l-3.1 -2.79 -2.78 3.1 -3.1 -2.79 -5.57 6.19 3.09 2.79 2.79 -3.1 3.09 2.79 5.58 -6.19 3.1 2.79 2.78 -3.1 3.1 2.79 2.79 -3.1 -6.19 -5.57 2.78 -3.1 -3.09 -2.78 5.57 -6.2 3.1 2.79 5.57 -6.19 -3.09 -2.79 13.94 -15.47 -6.19 -5.58 -13.94 15.48 3.09 2.79 -5.57 6.19 -3.1 -2.79 -5.57 6.19 3.09 2.79 -2.79 3.09 3.1 2.79 -2.79 3.1 3.1 2.78 -2.79 3.1zm444.08 -250.36l-3.09 -2.79 2.79 -3.09 -3.1 -2.79 -5.57 6.19 3.09 2.79 -2.78 3.09 3.09 2.79 5.57 -6.19zm-519.86 -14.09l-2.79 3.1 -3.09 -2.79 -5.58 6.19 6.19 5.58 2.79 -3.1 3.09 2.79 11.16 -12.38 -3.1 -2.79 2.79 -3.1 -3.1 -2.78 -8.36 9.28zm-57.6 26.61l-3.1 -2.78 -2.78 3.09 -3.1 -2.79 -2.79 3.1 -3.09 -2.79 -2.79 3.1 -3.1 -2.79 -5.57 6.19 -3.1 -2.79 -2.78 3.1 -3.1 -2.79 -2.79 3.1 -3.09 -2.79 -2.79 3.09 -3.1 -2.78 -2.78 3.09 9.28 8.36 2.79 -3.09 6.19 5.58 -8.36 9.28 6.19 5.58 2.79 -3.1 3.09 2.79 2.79 -3.1 -3.09 -2.79 5.57 -6.18 3.1 2.78 2.78 -3.09 3.1 2.78 5.57 -6.19 3.1 2.79 2.79 -3.09 3.09 2.78 8.37 -9.28 3.09 2.78 5.58 -6.19 3.09 2.79 11.15 -12.38 3.1 2.79 11.15 -12.38 -3.1 -2.79 -2.78 3.09 -3.1 -2.79 -8.36 9.29 -3.1 -2.79 -5.57 6.19 -3.1 -2.78 -2.79 3.09 -3.09 -2.79 -2.79 3.1 -3.09 -2.79 -5.58 6.19zm544.32 30.51l3.1 2.79 2.78 -3.1 6.2 5.58 2.78 -3.1 -12.38 -11.15 -5.57 6.19 -3.1 -2.79 -2.79 3.1 3.1 2.79 -2.79 3.09 3.1 2.79 5.57 -6.19zm-436.35 285.35l-6.19 -5.58 5.57 -6.19 6.19 5.58 -5.57 6.19zm219.57 -144.22l6.19 5.57 -2.79 3.1 -3.09 -2.79 -2.79 3.1 -3.1 -2.79 5.58 -6.19zm-93.82 10.81l3.09 2.78 16.73 -18.57 -3.1 -2.79 5.58 -6.19 -3.1 -2.79 -25.09 27.86 3.1 2.79 2.79 -3.09zm-204.35 -15.86l-3.1 -2.78 8.36 -9.29 9.29 8.36 11.15 -12.38 -3.1 -2.79 -2.78 3.1 -3.1 -2.79 -2.79 3.1 -3.09 -2.79 -2.79 3.09 -3.1 -2.78 5.58 -6.19 -3.09 -2.79 2.78 -3.1 -6.19 -5.57 -5.57 6.19 3.09 2.79 -2.79 3.09 -3.09 -2.79 -5.58 6.2 3.1 2.78 -2.79 3.1 3.1 2.79 -8.37 9.28 9.29 8.36 5.58 -6.19zm136.13 346.83l2.79 -3.09 3.09 2.78 -2.78 3.1 -3.1 -2.79zm-5.88 0.31l2.78 -3.1 3.1 2.79 -2.79 3.1 -3.09 -2.79zm0 0l-2.79 3.09 -3.1 -2.78 2.79 -3.1 3.1 2.79zm-131.54 -202.54l-3.09 -2.79 -2.79 3.1 -3.1 -2.79 16.73 -18.57 3.1 2.79 -8.37 9.28 3.1 2.79 -5.58 6.19zm275.93 -138.32l-3.1 -2.79 2.79 -3.09 3.09 2.78 -2.78 3.1zm-19.21 27.55l3.1 2.79 -5.58 6.19 -3.09 -2.79 5.57 -6.19zm-302.48 -87.41l-3.1 -2.78 2.79 -3.1 -6.19 -5.57 2.79 -3.1 -3.1 -2.79 2.79 -3.09 -3.1 -2.79 2.79 -3.1 -3.09 -2.78 2.78 -3.1 -3.09 -2.79 2.78 -3.09 9.29 8.36 -2.79 3.1 9.29 8.36 -2.79 3.09 3.1 2.79 -11.15 12.38zm261.88 -589.19c22.51,-79.35 9.12,-187.91 71.1,-162.79 21.45,59.25 1.49,387.66 23.59,508.9 5.14,28.24 9.32,59.81 12.09,92.98l-2.02 -1.82 -8.36 9.29 6.19 5.58 -2.78 3.09 3.09 2.79 -5.57 6.19 3.09 2.79 -16.72 18.57 -6.2 -5.58 2.79 -3.09 -3.09 -2.79 2.78 -3.09 -3.09 -2.79 5.58 -6.19 3.09 2.78 2.79 -3.09 -6.19 -5.58 -16.73 18.58 3.1 2.79 -2.79 3.09 3.09 2.79 -5.57 6.19 -3.1 -2.79 -3.09 -2.79 -2.79 3.1 -6.19 -5.58 -2.79 3.1 -9.28 -8.36 -2.79 3.09 -3.1 -2.79 -8.36 9.29 -3.1 -2.79 -2.78 3.1 -3.1 -2.79 -5.57 6.19 3.09 2.79 2.79 -3.1 9.29 8.37 8.36 -9.29 6.19 5.58 2.79 -3.1 9.28 8.36 -2.78 3.1 3.09 2.79 -5.57 6.19 3.09 2.78 -5.57 6.2 3.09 2.78 -2.79 3.1 3.1 2.79 -2.79 3.09 3.1 2.79 -8.37 9.29 3.1 2.78 -5.57 6.19 3.09 2.79 -8.36 9.29 3.09 2.79 -2.79 3.09 -3.09 -2.78 -8.36 9.28 -3.1 -2.79 -2.79 3.1 -3.09 -2.79 -2.79 3.1 -3.09 -2.79 -2.79 3.09 3.09 2.79 -8.36 9.29 3.1 2.79 -5.58 6.19 3.1 2.79 -5.58 6.19 3.1 2.78 -5.58 6.19 3.1 2.79 -2.79 3.1 3.1 2.78 -2.79 3.1 3.09 2.79 2.79 -3.1 3.1 2.79 5.57 -6.19 -6.19 -5.58 2.79 -3.09 -3.1 -2.79 5.58 -6.19 3.09 2.79 2.79 -3.1 3.1 2.79 -2.79 3.09 3.09 2.79 -5.57 6.19 9.28 8.37 5.58 -6.2 -3.1 -2.78 2.79 -3.1 -3.09 -2.78 2.78 -3.1 -3.09 -2.79 2.79 -3.09 -3.1 -2.79 5.58 -6.19 3.09 2.79 2.79 -3.1 3.1 2.79 2.78 -3.1 -6.19 -5.57 -3.09 -2.79 8.36 -9.29 -3.1 -2.79 13.94 -15.47 -3.09 -2.79 11.15 -12.38 -3.1 -2.79 5.58 -6.19 -3.1 -2.79 8.36 -9.29 -3.09 -2.78 5.57 -6.19 3.1 2.78 2.79 -3.09 3.09 2.79 5.58 -6.19 3.09 2.78 2.79 -3.09 3.1 2.79 2.78 -3.1 6.19 5.58 -2.78 3.09 3.09 2.79 -2.79 3.09 -2.78 3.1 3.09 2.79 -2.79 3.09 3.1 2.79 -2.79 3.09 3.1 2.79 -2.79 3.1 3.09 2.79 -2.78 3.09 3.09 2.79 -2.78 3.09 3.09 2.79 -2.79 3.1 3.1 2.79 -2.79 3.09 3.1 2.79 -5.58 6.19 3.1 2.79 -5.58 6.19 3.1 2.79 -11.15 12.38 3.09 2.78 -2.79 3.1 -3.09 -2.79 -22.3 24.77 -3.1 -2.79 -5.57 6.19 -3.1 -2.79 -2.78 3.1 -6.19 -5.58 -2.79 3.1 -6.19 -5.58 -2.79 3.1 9.28 8.36 2.79 -3.09 9.29 8.36 -2.79 3.09 -3.09 -2.78 -2.79 3.09 -6.19 -5.57 -2.79 3.09 -3.09 -2.79 -2.79 3.1 6.19 5.58 2.79 -3.1 9.28 8.36 -2.79 3.1 3.1 2.79 -8.36 9.28 3.09 2.79 -5.57 6.19 3.09 2.79 -2.78 3.09 3.09 2.79 -2.79 3.1 3.1 2.78 -2.79 3.1 3.1 2.79 -2.79 3.09 3.09 2.79 -2.78 3.1 21.66 19.51 2.79 -3.1 -9.28 -8.36 2.78 -3.09 -6.19 -5.58 2.79 -3.1 -3.1 -2.78 2.79 -3.1 -3.09 -2.79 8.36 -9.28 -3.1 -2.79 5.58 -6.19 -3.1 -2.79 2.79 -3.09 -3.09 -2.79 -5.58 6.19 -3.09 -2.79 5.57 -6.19 -3.09 -2.79 5.57 -6.19 6.19 5.58 5.58 -6.19 6.19 5.57 2.78 -3.09 3.1 2.78 2.79 -3.09 3.09 2.79 2.79 -3.1 3.1 2.79 2.78 -3.1 3.1 2.79 3.1 2.79 6.19 5.57 -2.79 3.1 3.92 3.53c-8.68,43.52 -22.1,82.22 -41.43,111.35 -61.76,7.73 -96.12,-46.54 -110.48,-119.22l0.3 0.27 5.57 -6.19 -3.09 -2.79 -3.68 4.08c-12.2,-66.31 -8.23,-146.88 6.5,-209.63l48.84 -455.23zm110.32 505.81l0.08 3.8 -1.94 -1.74 1.86 -2.06zm0.12 6.09c0.02,1.13 0.03,2.26 0.04,3.4l-1.71 -1.55 1.67 -1.85zm0.08 6.14l0.02 2.91 -1.46 -1.31 1.44 -1.6zm0.04 6.17c0.06,14.85 -0.2,29.72 -0.82,44.49l-0.99 1.1 -6.19 -5.58 2.79 -3.09 -3.1 -2.79 2.79 -3.1 -3.09 -2.78 2.78 -3.1 -3.09 -2.79 5.57 -6.19 -3.09 -2.79 5.57 -6.19 -3.09 -2.78 3.96 -4.41zm-1.75 62.46c-1.2,19.25 -3.04,38.23 -5.6,56.61l-2.53 -2.27 -5.58 6.19 -3.09 -2.79 -2.79 3.1 -3.09 -2.79 -2.79 3.1 -6.19 -5.58 -2.79 3.1 -6.19 -5.58 5.57 -6.19 -3.09 -2.79 22.3 -24.76 -3.1 -2.79 16.73 -18.57 2.23 2.01z"/>
  <path id="crown" class="fil0 str0" d="M297.93 2368.85c-57.06,14.92 -100.95,140.99 -179.96,63.6 -164.76,-161.41 -133.66,-641.7 -50.53,-871.79 70.59,-0.52 68.66,43.19 163.74,-8.4 202.5,-109.89 136.31,12.93 287.8,73.63 57.13,22.9 117.04,25.12 175.07,7.31 94.7,254.2 34.66,732.01 -145.02,711.8 -54.98,-6.19 -51.34,-35.86 -92.99,-70.46 -66.95,-55.6 -166.87,6.41 -158.11,94.31 57.07,-26.21 83.41,-175.53 173.24,-28.37 -24.73,97.24 -120.59,118.74 -184.89,82.29l11.65 -53.92zm-140.11 -253.69l-0.22 8.33 -8.33 -0.23 0.22 -8.32 8.33 0.22zm-132.86 129.77c-3.6,-14.95 -6.77,-30.34 -9.56,-46.09l2.65 0.07 0.11 -4.17 4.17 0.12 0.11 -4.17 8.33 0.23 0.11 -4.17 4.17 0.12 0.11 -4.17 0.22 -8.33 16.66 0.45 -0.11 4.16 8.32 0.23 0.12 -4.17 12.49 0.34 0.33 -12.49 8.33 0.22 0.12 -4.16 4.16 0.11 0.11 -4.16 4.17 0.11 0.11 -4.16 4.16 0.11 0.23 -8.33 4.16 0.11 0.11 -4.16 -4.16 -0.12 0.34 -12.49 4.16 0.11 0.11 -4.16 0.11 -4.17 -4.16 -0.11 0.22 -8.32 -4.16 -0.12 0.22 -8.33 -4.16 -0.11 0.11 -4.16 -4.16 -0.11 0.11 -4.17 -4.17 -0.11 0.45 -16.66 4.17 0.12 0.11 -4.17 8.33 0.23 -0.12 4.16 4.17 0.11 -0.34 12.49 4.17 0.12 0.11 -4.17 12.49 0.34 0.11 -4.17 4.17 0.12 0.11 -4.17 8.33 0.23 0.11 -4.17 8.33 0.23 0.11 -4.17 -4.16 -0.11 0.22 -8.33 -4.16 -0.11 0.22 -8.33 8.33 0.22 -0.11 4.17 4.16 0.11 -0.11 4.17 4.16 0.11 0.23 -8.33 0.22 -8.33 -16.66 -0.45 0.12 -4.16 -4.17 -0.11 -0.11 4.16 -4.16 -0.11 0.11 -4.16 -4.16 -0.12 0.22 -8.33 12.49 0.34 -0.11 4.16 12.49 0.34 0.11 -4.16 0.23 -8.33 16.65 0.45 0.34 -12.5 4.16 0.11 0.12 -4.16 4.16 0.11 0.11 -4.16 8.33 0.22 0.34 -12.49 12.49 0.34 -0.22 8.33 4.16 0.11 0.45 -16.66 8.32 0.23 -0.33 12.49 16.66 0.45 0.44 -16.66 -24.98 -0.67 -0.11 4.16 -4.17 -0.11 0.34 -12.49 4.16 0.11 0.23 -8.33 4.16 0.11 0.11 -4.16 4.17 0.11 -0.11 4.16 4.16 0.12 0.22 -8.33 4.17 0.11 0.11 -4.17 4.16 0.12 0.12 -4.17 4.16 0.12 0.34 -12.5 4.16 0.12 0.45 -16.66 4.16 0.11 0.12 -4.16 -4.17 -0.12 0.11 -4.16 4.17 0.11 0.11 -4.16 4.16 0.11 0.12 -4.16 4.16 0.11 0.34 -12.49 4.16 0.11 -0.11 4.16 4.16 0.12 0.68 -24.99 4.16 0.11 0.11 -4.16 4.17 0.11 0.11 -4.17 4.16 0.12 0.11 -4.17 4.17 0.12 0.11 -4.17 4.16 0.11 0.12 -4.16 0.33 -12.49 -4.16 -0.12 0.22 -8.32 -4.16 -0.12 0.22 -8.32 4.17 0.11 -0.12 4.16 4.17 0.11 -0.11 4.17 4.16 0.11 -0.11 4.17 12.49 0.33 0.11 -4.16 4.17 0.11 0.22 -8.33 4.17 0.11 -0.12 4.17 16.66 0.44 0.11 -4.16 12.49 0.34 0.45 -16.66 8.33 0.22 0.11 -4.16 4.17 0.11 0.11 -4.16 4.16 0.11 0.11 -4.16 4.17 0.11 0.11 -4.17 4.17 0.12 0.11 -4.17 -4.17 -0.11 0.9 -33.31 -4.16 -0.12 0.11 -4.16 -16.66 -0.45 0.11 -4.16 -33.31 -0.9 0.11 -4.16 -24.98 -0.67 0.11 -4.17 -8.33 -0.22 0.11 -4.17 -8.33 -0.22 0.12 -4.17 -4.17 -0.11 0.12 -4.16 -8.33 -0.23 0.11 -4.16 -8.33 -0.22 0.11 -4.17 -16.65 -0.45 0.11 -4.16 -4.17 -0.11 -0.33 12.49 -4.17 -0.11 -0.11 4.16 -4.16 -0.11 -0.11 4.16 -4.17 -0.11 -0.11 4.17 -4.17 -0.12 -0.11 4.17 -4.16 -0.11 -0.11 4.16 -16.66 -0.45 -0.11 4.17 -4.17 -0.11 -0.11 4.16 -4.16 -0.11 -0.56 20.82 -4.17 -0.12 -0.22 8.33 4.16 0.12 -0.33 12.49 -4.17 -0.11 -0.11 4.16 -4.16 -0.11 -0.23 8.33 -4.16 -0.12 0.56 -20.82 -4.17 -0.11 0.9 -33.31 -4.16 -0.11 0.11 -4.17 -4.17 -0.11 0.12 -4.16 -8.33 -0.23 0.11 -4.16 -4.16 -0.11 0.11 -4.17 -4.17 -0.11 0.23 -8.33 8.33 0.22 -0.23 8.33 4.17 0.12 -0.11 4.16 8.32 0.22 -0.11 4.17 16.66 0.45 0.11 -4.17 8.33 0.23 0.11 -4.17 8.33 0.23 0.11 -4.17 8.33 0.23 0.22 -8.33 4.17 0.11 0.11 -4.16 8.33 0.22 1.01 -37.48 -8.33 -0.22 -0.11 4.16 -4.17 -0.11 0.11 -4.16 -4.16 -0.12 0.11 -4.16 -4.16 -0.11 0.22 -8.33 -4.16 -0.11 0.33 -12.5 -4.16 -0.11 0.11 -4.16 -4.16 -0.11 0.11 -4.17 -4.17 -0.11 0.12 -4.16 -4.17 -0.12 0.11 -4.16 -4.16 -0.11 0.11 -4.17 -4.16 -0.11 0.22 -8.33 -4.16 -0.11 0.11 -4.16 -8.33 -0.23 0.11 -4.16 -8.32 -0.23 0.22 -8.32 -4.17 -0.12 0.12 -4.16 -4.17 -0.11 0.12 -4.17 0.11 -4.16 -4.17 -0.11 0.23 -8.33 -4.17 -0.11 0.12 -4.17 -4.17 -0.11 0.11 -4.16 -4.16 -0.11 0.11 -4.17 -33.31 -0.89 0.17 -6.19c21.88,-0.02 36.74,4.23 49.77,8.46l-0.31 11.56 4.17 0.11 -0.12 4.17 4.17 0.11 -0.11 4.16 4.16 0.12 -0.22 8.32 4.16 0.12 -0.22 8.32 8.32 0.23 -0.11 4.16 8.33 0.23 -0.11 4.16 4.16 0.11 -0.22 8.33 4.16 0.11 -0.11 4.17 4.17 0.11 -0.12 4.16 8.33 0.23 -0.22 8.33 12.49 0.33 -0.11 4.17 4.16 0.11 -0.11 4.16 8.33 0.23 -0.11 4.16 4.16 0.11 -0.11 4.17 4.16 0.11 -0.33 12.49 4.16 0.11 -0.11 4.17 4.16 0.11 -0.11 4.16 4.16 0.12 -0.22 8.32 4.16 0.12 -0.11 4.16 8.33 0.23 -0.11 4.16 4.16 0.11 -0.11 4.17 8.33 0.22 -0.11 4.16 8.33 0.23 -0.12 4.16 4.17 0.11 -0.11 4.17 4.16 0.11 -0.11 4.16 4.16 0.12 4.17 0.11 -0.12 4.16 4.17 0.11 4.16 0.12 8.33 0.22 -0.11 4.16 8.33 0.23 -0.12 4.16 20.83 0.56 0.11 -4.16 8.33 0.22 -0.12 4.17 8.33 0.22 -0.11 4.17 12.49 0.33 -0.11 4.17 12.49 0.33 0.23 -8.33 4.16 0.12 0.22 -8.33 4.17 0.11 0.22 -8.33 4.17 0.11 0.89 -33.31 4.17 0.11 0.33 -12.49 4.17 0.11 0.22 -8.33 -4.16 -0.11 0.22 -8.33 4.16 0.12 0.12 -4.17 -4.17 -0.11 0.45 -16.66 -8.33 -0.22 -0.11 4.16 -4.16 -0.11 0.11 -4.16 4.16 0.11 0.45 -16.66 -12.49 -0.33 0.11 -4.17 4.17 0.11 0.11 -4.16 -4.17 -0.11 0.23 -8.33 8.33 0.22 -0.12 4.17 4.17 0.11 -0.11 4.16 8.32 0.23 -0.11 4.16 -4.16 -0.11 -0.34 12.49 4.17 0.11 -0.12 4.17 4.17 0.11 0.11 -4.16 4.16 0.11 0.23 -8.33 4.16 0.11 -0.78 29.15 4.16 0.11 -0.33 12.5 4.16 0.11 0.11 -4.17 4.17 0.11 -0.34 12.5 -8.33 -0.23 -0.33 12.5 -4.17 -0.12 -0.45 16.66 -4.16 -0.11 -0.45 16.66 -4.16 -0.12 -0.12 4.17 -0.11 4.16 -4.16 -0.11 -0.11 4.17 -4.17 -0.12 -0.22 8.33 -4.17 -0.11 -0.22 8.33 -0.11 4.16 -4.17 -0.11 -0.89 33.31 4.16 0.11 -0.11 4.17 12.49 0.33 -0.22 8.33 -12.49 -0.33 -0.12 4.16 -4.16 -0.11 -0.11 4.16 -4.17 -0.11 -0.22 8.33 -4.17 -0.11 -0.11 4.16 -4.16 -0.11 -0.11 4.16 -4.17 -0.11 -0.11 4.17 -4.16 -0.12 -0.12 4.17 -4.16 -0.12 -0.11 4.17 -4.17 -0.11 -0.11 4.16 -4.16 -0.11 -0.12 4.16 -12.49 -0.33 -0.11 4.16 -8.33 -0.22 -0.11 4.16 -4.16 -0.11 -0.11 4.16 -4.17 -0.11 -0.11 4.17 4.16 0.11 -0.22 8.33 4.16 0.11 -0.11 4.16 -8.33 -0.22 -0.22 8.33 -4.17 -0.12 -0.33 12.5 -4.17 -0.12 -0.22 8.33 -4.16 -0.11 -0.12 4.17 -4.16 -0.12 -0.34 12.5 -4.16 -0.11 -0.22 8.32 -0.12 4.17 -0.78 29.14 -4.17 -0.11 -0.78 29.15 -0.11 4.17 -0.11 4.16 -4.17 -0.11 -0.11 4.16 -0.11 4.17 4.16 0.11 -0.56 20.82 -4.16 -0.11 -0.45 16.65 -0.23 8.33 12.5 0.34 -0.11 4.16 -8.33 -0.22 -0.11 4.16 -4.17 -0.11 -0.11 4.16 -0.23 8.33 -4.16 -0.11 -1.23 45.81 -4.17 -0.12 -0.22 8.33 -4.16 -0.11 -0.12 4.17 -4.16 -0.12 -0.45 16.66 4.17 0.11 -0.45 16.66 4.16 0.11 -0.34 12.49 4.17 0.11 -0.11 4.17 4.16 0.11 -0.11 4.17 4.16 0.11 -0.11 4.16 16.66 0.45 -0.11 4.16 12.49 0.34 -0.11 4.16 8.32 0.23 0.23 -8.33 4.16 0.11 0.12 -4.16 4.16 0.11 0.11 -4.16 4.16 0.11 0.12 -4.17 4.16 0.12 0.11 -4.17 8.33 0.23 0.12 -4.17 12.49 0.34 0.11 -4.17 12.49 0.34 0.11 -4.16 4.17 0.11 0.56 -20.82 4.16 0.11 -0.22 8.33 4.16 0.11 -0.11 4.16 8.33 0.23 -0.11 4.16 16.65 0.45 0.11 -4.16 20.83 0.56 0.11 -4.17 12.49 0.34 0.11 -4.17 16.66 0.45 0.11 -4.16 8.33 0.22 0.11 -4.16 12.49 0.33 -0.11 4.17 16.66 0.45 0.11 -4.17 12.49 0.34 0.11 -4.17 4.17 0.12 0.11 -4.17 4.16 0.12 0.12 -4.17 8.33 0.22 0.11 -4.16 8.33 0.22 0.11 -4.16 8.33 0.22 0.11 -4.16 4.16 0.11 0.11 -4.16 4.17 0.11 0.11 -4.16 4.16 0.11 0.23 -8.33 -4.17 -0.11 0.12 -4.17 -4.17 -0.11 0.23 -8.33 -4.17 -0.11 0.23 -8.33 -4.17 -0.11 0.23 -8.33 -4.17 -0.11 0.11 -4.16 -4.16 -0.12 0.34 -12.49 4.16 0.11 -0.11 4.17 8.33 0.22 -0.23 8.33 4.17 0.11 -0.12 4.17 4.17 0.11 -0.11 4.16 4.16 0.11 -0.22 8.33 4.16 0.11 -0.11 4.17 8.33 0.22 -0.11 4.17 24.98 0.67 0.11 -4.16 33.32 0.89 0.11 -4.16 8.33 0.22 0.22 -8.33 -4.17 -0.11 0.23 -8.33 -4.16 -0.11 0.11 -4.16 -4.17 -0.12 0.12 -4.16 -8.33 -0.22 0.11 -4.17 -12.49 -0.33 0.11 -4.17 -20.82 -0.56 0.11 -4.16 4.16 0.11 0.12 -4.16 20.82 0.55 0.11 -4.16 20.82 0.56 0.11 -4.16 4.17 0.11 0.33 -12.49 4.17 0.11 0.22 -8.33 4.16 0.11 0.12 -4.16 4.16 0.11 0.11 -4.16 4.17 0.11 0.22 -8.33 4.17 0.11 0.22 -8.33 4.16 0.12 0.23 -8.33 4.16 0.11 0.11 -4.16 4.17 0.11 0.22 -8.33 4.17 0.11 0.22 -8.33 4.16 0.12 0.34 -12.5 4.17 0.12 0.22 -8.33 4.16 0.11 -0.56 20.82 -4.16 -0.11 -0.34 12.49 -4.16 -0.11 -0.23 8.33 -4.16 -0.12 -0.23 8.33 4.17 0.12 -0.22 8.32 -12.5 -0.33 -0.44 16.65 -4.17 -0.11 -0.11 4.17 -8.33 -0.23 -0.45 16.66 -4.16 -0.11 -0.22 8.32 -4.17 -0.11 -0.22 8.33 -0.12 4.17 -0.11 4.16 4.17 0.11 -0.12 4.16 4.17 0.12 -0.11 4.16 4.16 0.11 -0.11 4.17 4.16 0.11 -0.22 8.33 8.33 0.22 -0.23 8.33 8.33 0.22 0.11 -4.16 8.33 0.22 0.11 -4.16 -8.33 -0.22 0.12 -4.17 4.16 0.12 0.11 -4.17 8.33 0.22 0.11 -4.16 12.5 0.34 0.11 -4.17 4.16 0.11 0.11 -4.16 4.17 0.11 0.22 -8.33 4.17 0.12 0.33 -12.5 4.17 0.12 -0.79 29.14 -4.16 -0.11 -0.11 4.17 -4.17 -0.12 -0.11 4.17 -4.16 -0.11 -0.12 4.16 -4.16 -0.11 -0.11 4.16 -4.17 -0.11 -0.11 4.17 -8.33 -0.23 -0.11 4.16 -12.49 -0.33 -0.11 4.16 -4.17 -0.11 -0.33 12.49 4.16 0.12 -0.22 8.32 -4.17 -0.11 0.11 -4.16 -4.16 -0.11 0.22 -8.33 -4.16 -0.12 0.11 -4.16 -4.16 -0.11 -0.34 12.49 4.17 0.11 -0.34 12.5 -4.16 -0.12 0.22 -8.33 -4.17 -0.11 0.23 -8.32 -4.16 -0.12 0.11 -4.16 -8.33 -0.23 0.11 -4.16 -33.31 -0.9 0.11 -4.16 -4.16 -0.11 -0.12 4.16 -16.65 -0.45 -0.11 4.17 -8.33 -0.23 -0.11 4.17 -8.33 -0.22 -0.12 4.16 -4.16 -0.11 -0.11 4.16 -4.17 -0.11 -0.11 4.16 -4.16 -0.11 -0.11 4.17 -4.17 -0.12 -0.11 4.17 -4.16 -0.12 -0.12 4.17 -4.16 -0.11 -0.11 4.16 -4.17 -0.11 -0.11 4.16 -4.16 -0.11 -4.17 -0.11 -0.11 4.16 -4.16 -0.11 -0.23 8.33 4.17 0.11 -0.12 4.17 4.17 0.11 -0.11 4.16 8.32 0.23 -0.11 4.16 4.17 0.11 -0.12 4.17 8.33 0.22 0.12 -4.16 12.49 0.33 0.11 -4.16 8.33 0.22 0.11 -4.16 16.66 0.45 0.11 -4.17 20.82 0.56 0.11 -4.16 12.49 0.33 0.12 -4.16 0.22 -8.33 4.16 0.11 -0.11 4.17 4.17 0.11 -0.12 4.16 8.33 0.23 0.11 -4.17 4.17 0.12 0.11 -4.17 4.17 0.11 0.11 -4.16 4.16 0.11 0.11 -4.16 8.33 0.22 -0.33 12.49 -8.33 -0.22 -0.11 4.17 -4.17 -0.12 -0.11 4.17 4.16 0.11 -0.11 4.16 8.33 0.23 0.11 -4.17 4.17 0.12 0.22 -8.33 8.33 0.22 -0.11 4.17 4.16 0.11 -0.11 4.16 -4.17 -0.11 -0.11 4.16 -4.16 -0.11 -0.11 4.16 -8.33 -0.22 -0.11 4.17 -8.33 -0.23 -0.11 4.17 -8.33 -0.23 -0.12 4.17 -12.49 -0.34 -0.11 4.16 -4.17 -0.11 0.12 -4.16 -4.17 -0.11 0.12 -4.17 -4.17 -0.11 0.11 -4.17 -12.49 -0.33 0.11 -4.17 -4.16 -0.11 -0.11 4.17 -12.5 -0.34 -0.11 4.17 -8.33 -0.23 -0.11 4.17 -12.49 -0.34 -0.11 4.16 -4.17 -0.11 -0.11 4.17 -4.16 -0.12 -0.11 4.17 -8.33 -0.23 -0.12 4.17 -8.32 -0.23 -0.12 4.17 -4.16 -0.12 -0.34 12.5 4.17 0.11 -0.23 8.33 12.5 0.33 -0.34 12.5 4.16 0.11 -0.11 4.16 -8.33 -0.22 0.12 -4.17 -4.17 -0.11 0.12 -4.16 -12.5 -0.34 0.11 -4.16 -4.16 -0.12 0.34 -12.49 -4.17 -0.11 0.23 -8.33 -4.17 -0.11 0.11 -4.16 0.12 -4.17 -8.33 -0.22 -0.12 4.16 -4.16 -0.11 -0.11 4.16 -24.99 -0.67 0.23 -8.33 4.16 0.12 -0.11 4.16 8.33 0.22 0.11 -4.16 4.17 0.11 0.11 -4.16 4.16 0.11 0.23 -8.33 -24.99 -0.67 -0.11 4.16 -8.33 -0.22 -0.11 4.16 -4.17 -0.11 -0.22 8.33 -12.49 -0.34 0.11 -4.16 -4.16 -0.11 -0.12 4.16 -8.33 -0.22 -0.11 4.16 -8.32 -0.22 -0.12 4.16 -8.32 -0.22 -0.12 4.16 -4.16 -0.11 -0.11 4.16 -8.33 -0.22 0.11 -4.16 4.16 0.11 0.12 -4.17 4.16 0.12 0.11 -4.17 4.17 0.11 0.11 -4.16 12.49 0.34 0.11 -4.17 4.17 0.11 0.11 -4.16 12.49 0.33 0.23 -8.32 4.16 0.11 0.34 -12.49 -8.33 -0.23 -0.11 4.17 -16.66 -0.45 -0.11 4.16 -20.82 -0.56 -0.11 4.17 -37.48 -1.01 -0.12 4.16 -8.32 -0.22 -0.12 4.16 -8.32 -0.22 -0.11 4.16 -8.33 -0.22 -0.12 4.16 -8.32 -0.22 -0.12 4.16 -4.16 -0.11 -0.11 4.16 -8.33 -0.22 -0.11 4.16 -0.34 12.5 -4.16 -0.12 -0.12 4.17 -4.16 -0.11 -0.11 4.16 -4.17 -0.11 -0.22 8.33 -8.33 -0.23 0.23 -8.32 -4.17 -0.12 -1.34 49.97 -8.33 -0.22 -0.23 8.33 -4.16 -0.11 -0.11 4.16 -4.16 -0.11 0.33 -12.5 4.16 0.12 0.34 -12.5 -4.16 -0.11 0.22 -8.33 4.16 0.12 0.34 -12.5 4.17 0.12 0.11 -4.17 -4.17 -0.11 0.11 -4.16 4.17 0.11 0.22 -8.33 -4.16 -0.11 0.22 -8.33 -4.16 -0.11 0.11 -4.17 -8.33 -0.22 0.11 -4.17 -8.32 -0.22 0.11 -4.16 -4.16 -0.12 0.11 -4.16 -4.17 -0.11 -0.11 4.16 -8.33 -0.22 0.11 -4.17 -4.16 -0.11 0.11 -4.16 -8.33 -0.23 0.12 -4.16 -4.17 -0.11 0.11 -4.17 -8.32 -0.22 0.11 -4.16 -12.49 -0.34 0.11 -4.17 -12.49 -0.33 0.11 -4.17 -8.33 -0.22 0.11 -4.16 -4.16 -0.12 -0.12 4.17 -16.65 -0.45 -0.23 8.33 -12.49 -0.34 -0.11 4.17 -8.33 -0.23 0.11 -4.16 -4.16 -0.11 -0.11 4.16 -8.33 -0.22 -0.11 4.16 -12.5 -0.34 -8.32 -0.22 -0.12 4.16 -8.32 -0.22 -0.12 4.16 -4.16 -0.11 -0.22 8.33 -4.17 -0.11 -0.11 4.16 -8.33 -0.22 -0.11 4.16 -12.49 -0.33 -0.11 4.16 -4.17 -0.11 -0.9 33.31 4.17 0.11 -0.11 4.17 -4.17 -0.11 -0.11 4.16 -0.11 4.16 -0.11 4.17 4.16 0.11 -0.9 33.31 4.17 0.11 -0.23 8.33 -4.16 -0.11 0.22 -8.33 -4.16 -0.11 0.34 -12.49 -4.17 -0.11 0.23 -8.33 -4.17 -0.11 0.22 -8.33 -4.16 -0.11 0.23 -8.33 -4.17 -0.12 -0.11 4.17 -8.33 -0.22 0.11 -4.17 -4.35 -0.12zm688.51 -548.2c1.8,7.25 3.48,14.63 5.08,22.09l-0.19 7.21 -4.16 -0.11 -0.45 16.65 -1.01 37.48 -0.67 24.99 4.16 0.11 -1.01 37.47 16.66 0.45 -0.11 4.17 4.16 0.11 -0.11 4.16 0.59 0.02c0.44,6.94 0.81,13.89 1.12,20.87l-2.27 -0.07 0.11 -4.16 -4.16 -0.11 0.11 -4.17 -4.17 -0.11 0.12 -4.16 -4.17 -0.11 0.11 -4.17 -8.32 -0.22 -0.23 8.33 -16.65 -0.45 -0.12 4.16 -20.82 -0.56 -0.11 4.17 -8.33 -0.23 -4.16 -0.11 0.22 -8.33 -8.33 -0.22 -0.22 8.32 8.33 0.23 -0.11 4.16 -8.33 -0.22 -0.11 4.16 -33.32 -0.89 -0.11 4.16 -8.33 -0.22 -0.33 12.49 4.16 0.11 -0.22 8.33 -8.33 -0.22 0.22 -8.33 -4.16 -0.12 0.33 -12.49 -8.32 -0.22 -0.12 4.16 -12.49 -0.33 0.11 -4.17 4.17 0.12 0.11 -4.17 4.16 0.11 0.12 -4.16 16.65 0.45 0.11 -4.17 12.5 0.34 0.11 -4.16 8.33 0.22 0.11 -4.17 8.33 0.23 0.11 -4.17 4.16 0.12 0.12 -4.17 8.32 0.23 0.12 -4.17 12.49 0.34 0.11 -4.16 8.33 0.22 0.11 -4.17 20.82 0.56 1.01 -37.47 0.22 -8.33 0.23 -8.33 -4.17 -0.11 1.24 -45.81 4.16 0.11 0.22 -8.32 4.17 0.11 0.11 -4.16 -4.16 -0.12 0.11 -4.16 0.11 -4.17 4.17 0.12 0.22 -8.33 4.16 0.11 0.34 -12.49 4.16 0.11 0.12 -4.16 2.65 0.07zm-2.48 457.95l-0.09 0.37 -8.25 -0.23 0.12 -4.16 8.32 0.22 -0.1 3.8zm-599.92 -470l-0.12 4.17 4.17 0.11 0.11 -4.16 -4.16 -0.12 0.11 -4.16 -4.17 -0.11 -0.11 4.16 4.17 0.11zm190.35 359.34l-0.11 4.16 4.16 0.11 0.11 -4.16 -4.16 -0.11zm21.94 -41.09l-0.11 4.17 4.16 0.11 0.12 -4.16 -4.17 -0.12 0.12 -4.16 12.49 0.34 0.11 -4.17 -4.17 -0.11 0.12 -4.17 -4.17 -0.11 0.11 -4.16 -4.16 -0.11 -0.11 4.16 -4.17 -0.11 -0.22 8.33 -4.16 -0.11 -0.12 4.16 8.33 0.22zm326.28 108.8l-0.11 4.16 4.16 0.11 0.12 -4.16 -4.17 -0.11zm-304.54 12.64l-0.11 4.16 4.16 0.11 0.11 -4.16 -4.16 -0.11zm-144.65 -199.75l-0.11 4.16 4.17 0.11 0.11 -4.16 -4.17 -0.11zm220.78 -306.6l-0.11 4.16 4.16 0.12 0.11 -4.17 -4.16 -0.11zm-102.91 572.3l-0.11 4.17 8.33 0.22 0.11 -4.17 -8.33 -0.22zm42.52 -186.38l-0.11 4.17 8.33 0.22 0.11 -4.16 -8.33 -0.23zm-59.19 31.75l-0.12 4.16 8.33 0.22 0.11 -4.16 -8.32 -0.22zm311.62 -120.8l-0.23 8.33 4.17 0.11 0.22 -8.33 -4.16 -0.11zm-240.82 276.89l-0.11 4.16 8.33 0.23 0.11 -4.17 -8.33 -0.22zm-108.17 -161.27l-0.11 4.17 8.33 0.22 0.11 -4.16 -8.33 -0.23zm242.55 123.21l-0.11 4.17 8.32 0.22 -0.22 8.33 4.16 0.11 -0.11 4.16 -12.49 -0.33 0.11 -4.17 -4.16 -0.11 0.11 -4.16 -4.17 -0.11 0.23 -8.33 8.33 0.22zm-414.07 -98.65l-0.22 8.33 4.17 0.11 0.22 -8.33 -4.17 -0.11zm233.1 164.62l-0.22 8.33 4.16 0.11 0.23 -8.32 -4.17 -0.12zm-220.72 -160.12l-0.22 8.33 4.17 0.11 0.22 -8.33 -4.17 -0.11zm52.63 -406.97l-0.11 4.17 8.33 0.22 0.11 -4.16 -8.33 -0.23zm88.01 -18.46l-0.23 8.32 4.17 0.12 0.22 -8.33 -4.16 -0.11zm-29.6 15.87l-0.11 4.16 8.33 0.23 0.11 -4.17 -8.33 -0.22zm92.39 -26.69l-0.22 8.33 4.16 0.11 0.23 -8.32 -4.17 -0.12 0.34 -12.49 -8.33 -0.22 0.11 -4.17 -4.16 -0.11 -0.11 4.17 -4.17 -0.12 -0.11 4.17 4.17 0.11 -0.12 4.16 8.33 0.23 -0.11 4.16 4.16 0.11zm-36.3 419.91l-0.11 4.16 12.49 0.34 0.11 -4.16 -12.49 -0.34zm284.77 257.69l-0.11 4.17 4.16 0.11 -0.11 4.16 4.16 0.12 0.23 -8.33 -8.33 -0.23zm-306.69 -62.42l-0.11 4.16 -4.17 -0.11 -0.11 4.16 8.33 0.23 0.22 -8.33 -4.16 -0.11zm-80.99 -552.25l-0.11 4.16 4.17 0.12 -0.12 4.16 4.17 0.12 0.22 -8.33 -8.33 -0.23zm122.63 553.37l-0.22 8.33 4.16 0.11 0.11 -4.17 4.17 0.12 0.11 -4.17 -8.33 -0.22zm50.01 -619.56l0.11 -4.17 -4.16 -0.11 -0.23 8.33 8.33 0.22 0.11 -4.16 -4.16 -0.11zm301.85 87.29l-0.11 4.17 -4.16 -0.11 -0.12 4.16 8.33 0.23 0.23 -8.33 -4.17 -0.12zm-14.15 216.32l-0.23 8.32 4.17 0.12 0.11 -4.17 4.17 0.11 0.11 -4.16 -8.33 -0.22zm-299.86 -316.44l-0.11 4.16 -4.16 -0.11 -0.12 4.16 8.33 0.23 0.11 -4.17 4.17 0.12 0.11 -4.17 -8.33 -0.22zm12.9 604.58l-0.22 8.33 8.33 0.23 0.22 -8.33 -8.33 -0.23zm-150.84 -279.09l-0.11 4.17 -4.17 -0.12 -0.11 4.17 8.33 0.22 0.12 -4.16 4.16 0.11 0.11 -4.16 -8.33 -0.23zm110.98 57.16l-0.12 4.17 -4.16 -0.12 -0.11 4.17 8.33 0.22 0.11 -4.16 4.16 0.11 0.12 -4.17 -8.33 -0.22zm-35.95 -367.68l-0.22 8.33 8.33 0.23 0.11 -4.17 4.16 0.11 0.12 -4.16 -12.5 -0.34zm170.73 4.6l0.11 -4.17 -8.32 -0.22 -0.11 4.16 -4.17 -0.11 -0.11 4.17 16.65 0.44 0.12 -4.16 -4.17 -0.11zm-225.81 493.98l-4.17 -0.11 -0.11 4.16 -8.33 -0.22 0.11 -4.17 -4.16 -0.11 0.11 -4.16 -4.16 -0.11 0.56 -20.82 -4.17 -0.12 0.23 -8.32 4.16 0.11 0.22 -8.33 4.17 0.11 0.11 -4.16 4.16 0.11 0.12 -4.17 4.16 0.12 -0.11 4.16 4.16 0.11 -0.11 4.17 4.17 0.11 -0.12 4.16 4.17 0.12 0.33 -12.5 4.17 0.11 0.11 -4.16 4.16 0.11 0.12 -4.16 -4.17 -0.11 0.11 -4.17 -4.16 -0.11 0.11 -4.16 4.17 0.11 0.11 -4.17 4.16 0.12 0.11 -4.17 4.17 0.11 -0.11 4.17 4.16 0.11 -0.67 24.99 4.16 0.11 -0.11 4.16 -4.16 -0.11 -0.23 8.33 -4.16 -0.11 -0.23 8.32 -8.33 -0.22 -0.11 4.16 4.17 0.12 -0.23 8.32 -4.16 -0.11 -0.11 4.17 -4.17 -0.11 -0.11 4.16 -4.16 -0.11 -0.11 4.16zm145.27 -133.61l0.12 -4.16 -4.17 -0.11 0.23 -8.33 -4.17 -0.11 -0.45 16.65 8.33 0.23 -0.11 4.16 4.16 0.11 0.12 -4.16 4.16 0.11 0.11 -4.16 -8.33 -0.23zm-22.33 -408.98l0.11 -4.16 -4.16 -0.12 -0.11 4.17 -4.17 -0.11 0.11 -4.17 -8.32 -0.22 -0.11 4.16 -4.17 -0.11 -0.11 4.16 4.16 0.12 -0.11 4.16 4.16 0.11 0.12 -4.16 16.65 0.45 0.11 -4.17 -4.16 -0.11zm-25.21 7.66l0.11 -4.17 -12.49 -0.33 -0.33 12.49 4.16 0.11 -0.11 4.16 4.16 0.12 0.11 -4.17 8.33 0.23 0.23 -8.33 -4.17 -0.11zm295.6 474.67l0.22 -8.32 4.17 0.11 -0.12 4.16 4.17 0.11 -0.11 4.17 -8.33 -0.23zm-468.18 54.08l0.11 -4.16 24.99 0.67 -0.45 16.65 -16.66 -0.44 0.34 -12.5 -8.33 -0.22zm74.38 -131.35l-0.23 8.33 -8.32 -0.22 0.22 -8.33 8.33 0.22zm462.91 141.64l0.11 -4.16 -24.98 -0.68 -0.11 4.17 -8.34 -0.23 -0.11 4.17 37.48 1.01 0.11 -4.17 -4.16 -0.11zm-520.91 -464.07l0.22 -8.33 -4.16 -0.11 -0.11 4.16 -4.17 -0.11 -0.11 4.17 -4.16 -0.12 0.11 -4.16 -8.33 -0.23 -0.22 8.33 -12.49 -0.33 -0.12 4.16 -4.16 -0.11 -0.11 4.16 -4.17 -0.11 -0.11 4.17 12.49 0.33 0.12 -4.16 4.16 0.11 -0.11 4.16 4.16 0.12 -0.11 4.16 8.33 0.22 0.11 -4.16 4.16 0.11 -0.11 4.17 4.17 0.11 -0.12 4.16 8.33 0.23 0.11 -4.17 -4.16 -0.11 0.11 -4.16 4.17 0.11 0.44 -16.66 -4.16 -0.11zm133.14 7.75l0.22 -8.33 -8.32 -0.22 0.11 -4.17 -8.33 -0.22 -0.22 8.33 -20.82 -0.56 -0.57 20.82 8.33 0.22 -0.11 4.16 12.49 0.34 0.12 -4.16 4.16 0.11 0.11 -4.17 4.17 0.12 0.11 -4.17 8.33 0.23 0.11 -4.17 4.16 0.12 0.12 -4.17 -4.17 -0.11zm-222.9 385.72l0.11 -4.17 -8.33 -0.22 -0.22 8.32 -4.17 -0.11 -0.22 8.33 -8.33 -0.22 0.11 -4.17 -16.65 -0.45 0.11 -4.16 -4.17 -0.11 -0.11 4.16 -8.33 -0.22 -0.11 4.16 -4.16 -0.11 -0.34 12.49 4.16 0.11 0.12 -4.16 8.33 0.23 0.22 -8.33 4.16 0.11 -0.11 4.16 4.16 0.11 -0.11 4.17 4.17 0.11 -0.12 4.17 4.17 0.11 -0.11 4.16 12.49 0.34 0.11 -4.17 4.17 0.11 0.22 -8.32 8.33 0.22 0.11 -4.16 4.16 0.11 0.34 -12.49 -4.16 -0.11zm557.77 23.34l-0.11 4.16 -4.17 -0.11 0.11 -4.16 4.17 0.11zm33.42 -3.27l0.12 -4.16 8.32 0.22 -0.11 4.16 -8.33 -0.22zm-499.58 -17.61l-0.11 4.16 -4.17 -0.11 0.11 -4.16 4.17 0.11zm22.16 -49.41l-0.33 12.49 -4.17 -0.11 -0.22 8.33 -4.17 -0.11 0.34 -12.49 4.17 0.11 0.22 -8.33 4.16 0.11zm8.56 -8.1l-0.12 4.16 -4.16 -0.11 0.11 -4.17 4.17 0.12zm23.75 46.47l-0.11 4.17 4.16 0.11 -0.11 4.16 -24.99 -0.67 0.11 -4.16 12.5 0.33 0.11 -4.16 8.33 0.22zm-20.6 -8.88l0.11 -4.17 24.99 0.67 -0.11 4.17 -4.17 -0.11 -0.11 4.16 -8.33 -0.22 0.11 -4.17 -12.49 -0.33zm53.56 -131.91l0.11 -4.17 24.98 0.68 -0.11 4.16 -4.16 -0.11 -0.11 4.16 -8.33 -0.22 0.11 -4.17 -12.49 -0.33z"/>
 </g>
</svg>
