<?xml version="1.0" encoding="UTF-8"?>
<!DOCTYPE svg PUBLIC "-//W3C//DTD SVG 1.1//EN" "http://www.w3.org/Graphics/SVG/1.1/DTD/svg11.dtd">
<!-- Creator: CorelDRAW (Versión de evaluación) -->
<svg xmlns="http://www.w3.org/2000/svg" xml:space="preserve" width="739px" height="2458px" version="1.1" style="shape-rendering:geometricPrecision; text-rendering:geometricPrecision; image-rendering:optimizeQuality; fill-rule:evenodd; clip-rule:evenodd"
viewBox="0 0 739 2457.4"
 xmlns:xlink="http://www.w3.org/1999/xlink"
 xmlns:xodm="http://www.corel.com/coreldraw/odm/2003">
 <defs>
  <style type="text/css">
   <![CDATA[
    .str0 {stroke:#4B4B4D;stroke-width:10;stroke-miterlimit:22.9256}
    .fil0 {fill:#FEFEFE}
   ]]>
  </style>
 </defs>
 <g id="tooth-fissure-full-17">
  <metadata id="CorelCorpID_0Corel-Layer"/>
  <path id="crown" class="fil0 str0" d="M538.48 2219.96l8.33 0 0 8.33 -8.33 0 0 -8.33zm-431.58 -129.89c-25.95,-14.76 -20.43,-14.73 -24.63,-56.02 26.12,19.86 22.4,10.04 24.63,56.02 15.17,11.21 20.95,28.31 23.34,48.71l0 -2.14 4.17 0 0 -4.16 4.16 0 0 -4.17 0 -4.16 4.17 0 0 -4.17 0 -4.17 0 -8.33 4.16 0 0 -8.33 4.17 0 0 -20.83 -4.17 0 0 -8.33 4.17 0 0 -8.33 4.17 0 0 -12.5 4.16 0 0 -12.49 -8.33 0 0 -4.17 -8.33 0 0 -4.16 -8.33 0 0 -4.17 -33.33 0 0 -4.17 -12.49 0 0 -4.16 -8.34 0 0 4.16 -8.33 0 0 -4.16 -4.16 0 0 4.16 -16.66 0 0 8.34 4.16 0 0 4.16 -4.16 0 0 -4.16 -16.67 0 0 12.49 -4.16 0 0 -4.16 -4.17 0 0 4.16 -8.33 0 0 -8.33 4.16 0 0 -4.16 4.17 0 0 -8.34 4.17 0 0 4.17 12.49 0 0 -4.17 4.17 0 0 -4.16 -4.17 0 0 -4.17 -8.33 0 0 -4.16 29.16 0 0 -4.17 12.5 0 0 -4.17 -4.17 0 0 -4.16 12.5 0 0 8.33 12.5 0 0 4.17 16.66 0 0 4.16 16.66 0 0 4.17 4.17 0 4.16 0 0 4.16 4.17 0 0 4.17 8.33 0 0 4.17 8.33 0 4.17 0 0 4.16 33.32 0 0 -4.16 4.17 0 0 -12.5 8.33 0 0 12.5 4.17 0 0 4.16 4.16 0 0 4.17 8.33 0 0 4.16 4.17 0 0 4.17 4.16 0 0 4.16 4.17 0 0 4.17 4.16 0 0 4.16 4.17 0 0 4.17 4.17 0 0 4.17 4.16 0 0 12.49 4.17 0 0 8.33 4.16 0 0 4.17 4.17 0 0 4.17 4.16 0 0 -4.17 8.34 0 0 -4.17 4.16 0 0 8.34 8.33 0 0 4.16 12.5 0 0 4.17 8.33 0 0 4.16 4.17 0 0 4.17 12.49 0 0 4.16 8.33 0 4.17 0 29.16 0 0 4.17 29.16 0 4.17 0 4.16 0 0 4.17 4.17 0 4.16 0 0 -4.17 20.83 0 0 4.17 16.66 0 8.34 0 0 -12.5 4.16 0 0 8.33 4.17 0 0 4.17 4.16 0 8.33 0 0 4.16 45.83 0 0 4.17 8.33 0 0 4.16 4.16 0 0 4.17 16.66 0 0 -4.17 16.67 0 0 -4.16 12.49 0 0 -4.17 4.17 0 0 -4.16 4.17 0 0 -4.17 4.16 0 0 -16.66 4.17 0 0 -12.5 4.16 0 0 -8.33 -8.33 0 0 -4.17 -4.16 0 0 -4.16 -4.17 0 0 -4.17 -4.17 0 0 -4.16 -4.16 0 0 -8.34 -4.17 0 0 -12.49 -4.16 0 0 -12.5 -4.17 0 0 -4.16 -20.83 0 0 -4.17 8.33 0 0 -4.17 4.17 0 0 -8.33 4.17 0 0 -16.66 -4.17 0 0 -20.83 -4.17 0 0 -12.5 -4.16 0 0 -16.66 -4.17 0 0 -8.33 -4.16 0 0 -12.5 4.16 0 0 -16.66 -4.16 0 0 -12.5 -4.17 0 0 -4.16 -4.16 0 0 -4.17 -4.17 0 0 -8.33 -4.16 0 0 -8.33 -4.17 0 0 -8.33 -4.17 0 0 -4.17 -4.16 0 0 -4.16 -4.17 0 0 -4.17 -8.33 0 0 4.17 -4.16 0 0 4.16 -8.34 0 0 4.17 -8.33 0 0 4.16 -8.33 0 0 4.17 -4.16 0 0 4.17 -12.5 0 0 -4.17 4.17 0 0 -8.33 8.33 0 0 -4.17 4.16 0 0 -4.16 4.17 0 0 -4.17 8.33 0 0 -4.16 4.16 0 0 -8.34 4.17 0 0 -24.99 -4.17 0 0 -33.32 -4.16 0 0 -8.34 -8.33 0 0 4.17 -8.33 0 0 4.17 -4.17 0 0 4.16 -4.16 0 0 8.33 -4.17 0 0 12.5 -4.17 0 0 20.83 -4.16 0 0 -4.17 -4.17 0 0 -20.83 -4.16 0 0 -20.82 -4.17 0 0 -4.17 -12.5 0 0 -4.17 -8.33 0 0 -4.16 -4.16 0 0 -4.17 -4.17 0 0 -4.16 -8.33 0 0 -4.17 -8.33 0 0 -4.16 -8.33 0 0 -4.17 -4.17 0 0 -4.17 -8.33 0 0 -4.16 -8.33 0 0 -4.17 -12.5 0 0 -4.16 -8.33 0 0 -4.17 20.83 0 0 4.17 12.5 0 0 4.16 8.33 0 0 4.17 8.33 0 0 -4.17 8.33 0 0 12.5 16.66 0 0 4.17 4.17 0 0 8.33 16.66 0 0 4.16 8.33 0 0 4.17 8.33 0 4.17 0 4.17 0 0 -4.17 4.16 0 0 -4.16 4.17 0 0 -4.17 4.16 0 0 -4.16 8.33 0 0 -8.34 8.33 0 0 -8.33 -4.16 0 0 -8.33 -4.17 0 0 8.33 -4.16 0 0 -4.16 -4.17 0 0 -8.33 -4.16 0 0 -12.5 -4.17 0 0 -4.17 -4.16 0 0 -4.16 -8.34 0 0 -4.17 -12.49 0 0 -4.16 29.16 0 0 4.16 4.16 0 0 4.17 4.17 0 0 4.16 4.16 0 0 4.17 4.17 0 0 4.17 4.16 0 0 8.33 4.17 0 0 12.49 4.17 0 0 4.17 12.49 0 0 -4.17 8.33 0 0 4.17 -4.16 0 0 4.16 -8.33 0 0 4.17 -4.17 0 0 4.17 12.5 0 0 -4.17 12.5 0 0 4.17 -8.34 0 0 4.16 -8.33 0 0 4.17 -4.16 0 0 8.33 -4.17 0 0 33.32 -4.16 0 0 4.17 4.16 0 0 16.66 4.17 0 0 8.33 4.16 0 0 8.33 4.17 0 0 4.17 4.16 0 0 4.17 4.17 0 0 4.16 4.17 0 0 4.17 4.16 0 0 4.16 4.17 0 0 4.17 4.16 0 0 4.16 4.17 0 0 4.17 0 4.17 4.16 0 0 4.16 8.33 0 0 -4.16 4.17 0 0 -4.17 4.17 0 0 -8.33 4.16 0 0 -4.17 4.17 0 0 -8.33 -4.17 0 0 -12.5 -4.16 0 0 -8.33 -4.17 0 0 -16.66 -4.17 0 0 -20.83 -4.16 0 0 -12.49 -4.17 0 -8.33 0 0 -4.17 4.17 0 0 -4.17 4.16 0 0 -8.33 -4.16 0 0 -4.16 -4.17 0 0 -4.17 -4.16 0 0 -4.16 -4.17 0 0 -8.34 12.5 0 0 8.34 4.16 0 0 4.16 4.17 0 0 -4.16 4.16 0 0 -8.34 -4.16 0 0 -4.16 -8.33 0 0 -8.33 4.16 0 0 -4.17 4.17 0 0 4.17 4.16 0 0 4.16 4.17 0 0 8.33 4.17 0 0 8.34 4.16 0 0 8.33 4.17 0 0 12.49 4.16 0 0 4.17 -4.16 0 0 4.17 -4.17 0 0 4.16 -4.16 0 0 12.5 -4.17 0 0 4.16 4.17 0 0 12.5 4.16 0 0 8.33 4.17 0 0 12.5 4.16 0 0 4.16 4.17 0 0 4.17 4.16 0 0 8.33 4.17 0 0 8.33 4.17 0 0 4.17 12.49 0 0 -4.17 8.33 0 0 -12.49 12.5 0 0 -4.17 4.17 0 0 8.33 -4.17 0 0 4.17 -4.16 0 0 12.49 -4.17 0 0 4.17 -12.5 0 0 4.17 -8.33 0 0 4.16 -4.16 0 -4.17 0 0 8.33 4.17 0 0 4.17 4.16 0 0 24.99 -8.33 0 0 -4.16 4.17 0 0 -8.33 -4.17 0 0 -4.17 -4.17 0 0 -4.17 -8.33 0 0 25 4.17 0 0 8.33 4.16 0 0 4.16 8.34 0 0 12.5 -4.17 0 0 4.17 4.17 0 0 8.33 4.16 0 0 8.33 4.17 0 0 8.33 4.16 0 0 4.17 4.17 0 0 8.33 -4.17 0 0 -4.17 -4.16 0 0 -4.16 -4.17 0 0 -4.17 -4.16 0 0 -12.5 -4.17 0 0 -4.16 -4.17 0 0 -12.5 -8.33 0 0 -4.16 -12.49 0 0 8.33 4.16 0 0 16.66 4.17 0 0 20.83 4.16 0 0 37.49 4.17 0 0 8.33 4.16 0 0 8.33 4.17 0 0 8.33 4.17 0 0 8.33 4.16 0 0 4.17 4.17 0 0 8.33 4.16 0 12.5 0 0 4.17 4.17 0 0 4.16 4.16 0 0 4.17 8.33 0 0 8.33 -8.33 0 0 4.17 49.99 0 0 8.33 8.33 0 0 4.16 4.17 0 0 4.17 -12.5 0 0 -4.17 -12.5 0 0 4.17 -8.33 0 0 -4.17 -12.5 0 0 -4.16 -4.16 0 0 4.16 -4.17 0 0 -4.16 -8.33 0 0 4.16 -8.33 0 0 4.17 -4.17 0 0 8.33 -4.16 0 0 8.33 -4.17 0 0 4.17 -4.16 0 0 4.16 4.16 0 0 8.33 -4.16 0 0 4.17 -4.17 0 0 8.33 -4.16 0 0 4.17 -4.17 0 0 8.33 -4.17 0 0 12.49 -4.16 0 0 12.5 -4.17 0 0 8.33 -4.16 0 0 4.17 4.16 0 0 16.66 8.33 0 0 12.5 4.17 0 0 8.33 -4.17 0 0 4.16 4.17 0 0 8.34 4.17 0 0 12.49 0 8.33 4.16 0 0 8.34 4.17 0 0 4.16 8.33 0 0 4.17 4.16 0 0 8.33 4.17 0 0 12.49 4.17 0 0 4.17 33.32 0 0 -4.17 4.17 0 0 4.17 4.16 0 4.17 0 4.16 0 0 -4.17 3.93 0c58.45,-134.39 66.47,-339.16 53.17,-494.5 -5.16,-60.37 -11.38,-111.99 -19.16,-155.34l-0.45 0 0 -2.39 -0.32 -1.77 -16.34 0 0 4.16 -16.66 0 0 4.17 -29.16 0 0 -4.17 8.33 0 0 -4.16 29.16 0 0 -4.17 8.33 0 0 -4.16 4.17 0 0 -4.17 4.16 0 0 -8.33 3.91 0c-3.15,-15.01 -6.54,-28.9 -10.18,-41.66l-2.06 0 0 4.17 -4.16 0 0 4.16 -4.17 0 0 -16.66 7.92 0c-16.35,-53.23 -37.71,-85.44 -66.24,-98.81l0 7.17 4.17 0 0 4.16 4.16 0 0 8.33 4.17 0 0 4.17 8.33 0 0 4.16 4.16 0 0 4.17 4.17 0 0 4.17 4.17 0 0 4.16 4.16 0 0 4.17 -4.16 0 0 -4.17 -8.34 0 0 -4.16 -8.33 0 0 -4.17 -8.33 0 0 -4.17 -4.16 0 0 -4.16 -12.5 0 0 -4.17 -12.5 0 0 -4.16 -4.16 0 0 4.16 -8.33 0 0 4.17 -4.17 0 0 -8.33 -4.17 0 0 -4.17 -4.16 0 0 4.17 -8.33 0 0 4.16 -4.17 0 0 4.17 -8.33 0 0 4.16 -4.17 0 0 4.17 -4.16 0 0 4.17 4.16 0 0 8.33 -8.33 0 0 -4.17 -16.66 0 -4.16 0 0 4.17 -20.83 0 0 4.16 -8.33 0 0 4.17 -4.17 0 0 4.16 -4.17 0 0 8.34 4.17 0 0 8.33 -4.17 0 0 4.16 -4.16 0 0 8.33 -12.5 0 -8.33 0 -4.16 0 0 -4.16 -4.17 0 0 -4.17 -4.17 0 0 -4.16 -8.33 0 0 4.16 -4.16 0 0 4.17 -25 0 0 -12.5 8.33 0 0 -4.16 8.34 0 0 -4.17 -4.17 0 0 -3.95c-13.52,2.91 -25.94,3.26 -37.49,1.6l0 10.68 -4.17 0 0 8.33 8.33 0 0 -8.33 4.17 0 0 -4.16 8.33 0 0 8.33 4.17 0 0 8.33 -12.5 0 -4.17 0 0 4.16 -20.82 0 0 4.17 -12.5 0 0 4.17 -4.17 0 0 4.16 -8.33 0 -8.33 0 0 4.17 -12.5 0 0 4.16 -8.33 0 0 4.17 -4.16 0 0 4.16 -4.17 0 0 8.33 -4.16 0 0 8.34 -8.34 0 0 4.16 -4.16 0 0 4.17 -8.33 0 0 4.16 -4.17 0 0 8.34 -4.16 0 0 4.16 -4.17 0 0 4.17 -4.17 0 0 4.16 -4.16 0 0 4.17 -4.17 0 0 8.33 8.33 0 0 16.66 4.17 0 0 20.83 4.17 0 0 8.33 0 4.17 -8.34 0 0 8.33 8.34 0 0 -8.33 4.16 0 0 8.33 4.17 0 0 33.32 4.16 0 0 8.33 12.5 0 0 -4.16 8.33 0 0 8.33 -8.33 0 0 4.17 -12.5 0 0 8.33 4.17 0 0 12.49 -4.17 0 0 -4.16 -4.16 0 0 -4.17 -4.17 0 0 -16.66 -4.16 0 0 -12.5 -4.17 0 0 -8.33 -4.17 0 0 -8.33 -4.16 0 0 -4.17 -4.17 0 0 -8.33 -4.16 0 0 -12.49 -4.17 0 0 -8.33 -4.16 0 0 -20.83 -37.49 0 -8.34 0 -8.33 0 0 4.16 -45.82 0 0 -4.16 -8.33 0 0 -4.17 -4.17 0 0 4.17 -4.16 0 -4.17 0 0 -4.17 -8.33 0 0 -4.16 -12.5 0 0 -4.17 -4.16 0 0 -4.17 -8.33 0 0 -4.16 -8.33 0 0 -4.17 -12.5 0 0 -4.16 -16.66 0 0 -4.17 -1.17 0c-1.43,5.51 -2.87,11.06 -4.29,16.66l1.29 0 0 8.34 -3.4 0c-34.35,136.23 -65.53,295.55 -46.45,368.45 3.37,12.9 7.52,24.8 12.33,35.61l0.03 0 0 0.07c10.33,23.23 23.73,41.48 39.17,54.09l6.65 0 0 4.16 -1.19 0c13.93,9.89 29.33,15.39 45.51,16.03l-0.4 -28.52 -2.26 0 0 8.33 -20.83 0 0 -20.83 -8.33 0 0 -8.33 4.16 0 0 -8.33 8.34 0 0 -4.17 4.16 0 0 4.17 4.17 0 0 8.33 4.16 0 0 4.16 4.17 0 0 4.17 2.08 0 -0.43 -29.91zm24.88 71.57c0.22,6.75 0.33,13.71 0.49,20.82l6.3 0 0 4.17 4.17 0 0 4.17 4.16 0 0 4.16 4.17 0 0 4.17 4.17 0 0 4.16 4.16 0 0 16.67 4.17 0 0 4.16 4.16 0 0 4.17 20.83 0 0 4.16 8.33 0 0 -4.16 12.5 0 0 4.16 4.17 0 0 4.17 8.33 0 0 4.16 -20.83 0 0 4.17 -33.33 0 0 4.16 -4.16 0 0 4.17 -4.17 0 0 8.33 -4.16 0 0 4.17 -4.17 0 0 4.16 -5.27 0c9.2,31.96 21.94,69.65 28.34,76.62 65.73,71.55 102.16,-76.92 135.36,-125.07 80.1,-2.78 88.81,76.99 142.29,157.67 62.63,94.46 97.16,105.17 174.32,22.38 7.78,-8.34 15.07,-17.54 21.91,-27.46l-1.24 0 0 -4.16 -8.33 0 0 -4.17 -8.33 0 0 -4.16 -4.16 0 0 -4.17 -4.17 0 0 -4.16 -4.17 0 0 -8.34 -4.16 0 0 -4.16 -4.17 0 -8.33 0 0 -16.66 4.17 0 0 -8.34 -4.17 0 0 -12.49 -12.5 0 0 -8.33 -4.16 0 0 -4.17 -4.17 0 0 -4.16 -4.16 0 0 -4.17 -8.33 0 0 -4.17 -4.17 0 0 4.17 -12.5 0 0 -4.17 -4.16 0 -4.17 0 0 4.17 -8.33 0 0 4.17 -8.33 0 0 4.16 -4.17 0 0 4.17 -4.16 0 0 4.16 -16.66 0 0 -4.16 -4.17 0 0 -8.33 4.17 0 0 -4.17 12.49 0 0 -4.17 -4.16 0 0 -12.49 -4.17 0 0 -4.17 -4.16 0 0 -8.33 -4.17 0 0 -8.33 -4.17 0 0 4.16 -8.33 0 0 4.17 -8.33 0 0 -8.33 4.17 0 0 -4.17 4.16 0 0 -4.16 -8.33 0 -8.33 0 0 16.66 -4.16 0 0 4.17 4.16 0 0 4.16 -4.16 0 0 4.17 -8.34 0 0 -12.5 4.17 0 0 -12.5 -4.17 0 -8.33 0 0 -16.66 -12.49 0 0 -4.16 -4.17 0 0 -4.17 -4.17 0 0 -8.33 -12.49 0 0 -12.5 8.33 0 0 -4.16 -16.66 0 0 -8.34 12.49 0 0 -16.66 -16.66 0 0 25 4.17 0 0 4.16 -12.5 0 0 -4.16 -8.33 0 0 -4.17 -4.17 0 0 -4.17 4.17 0 0 -4.16 -8.33 0 0 -4.17 -4.17 0 0 -4.16 -4.16 0 0 -4.17 -12.5 0 0 -4.16 -16.67 0 0 -4.17 -4.16 0 0 4.17 -4.17 0 0 -4.17 -4.16 0 0 -4.17 -4.17 0 0 -4.16 -12.49 0 0 -4.17 4.16 0 0 -4.16 -24.99 0 0 -4.17 -4.17 0 0 -4.16 -4.16 0 0 -4.17 -4.17 0 0 -4.16 -4.17 0 0 -4.17 -4.16 0 -12.5 0 0 4.17 -8.33 0 0 4.16 -8.33 0 0 -4.16 4.16 0 0 -4.17 4.17 0 0 -4.17 4.17 0 0 -12.49 -4.17 0 0 -4.17 -8.33 0 0 -4.16 4.16 0 0 -16.67 -4.16 0 0 -12.49 -16.66 0 0 -8.34 -4.17 0 0 -4.16 -4.16 0 0 -4.17 -4.17 0 0 -4.16 -4.17 0 0 -4.17 -4.16 0 0 4.17 -33.33 0 0 4.16 -4.16 0 0 16.67 -4.17 0 0 33.32 -4.16 0 0 25 -4.17 0 0 8.33 -4.17 0 0 8.33 -4.16 0 0 4.16 -4.17 0 0 8.33 -4.16 0 0 8.34 -2.63 0zm0.86 33.32c0.4,10.73 1.12,21.69 2.7,32.65 0.94,6.54 4.01,19.24 8.1,34l7.63 0 0 -4.16 4.17 0 0 -8.34 4.16 0 0 -16.66 -4.16 0 0 -8.33 -4.17 0 0 -8.33 -4.17 0 0 -8.33 -8.33 0 0 -4.17 -4.16 0 0 -8.33 -1.77 0zm539.14 138.28l0.4 -0.81 -0.4 0 0 0.81zm40.56 -675.65c-0.54,-2.82 -1.08,-5.58 -1.62,-8.33l-1.45 0 0 8.33 3.07 0zm-84.77 -166.62c-0.54,-0.23 -1.08,-0.43 -1.61,-0.64l0 0.64 1.61 0zm-18.28 -5.13c-1.37,-0.21 -2.76,-0.37 -4.16,-0.51l0 5.64 4.16 0 0 -5.13zm-45.82 3.87c-22.89,6.24 -48.74,18.48 -78.02,36.33 -12.23,7.45 -23.67,13.08 -34.45,17.18l0 1.9 4.16 0 0 4.16 8.34 0 0 4.17 20.82 0 0 -4.17 4.17 0 0 -4.16 4.16 0 0 -4.17 4.17 0 0 -4.16 4.17 0 0 -8.33 4.16 0 0 -4.17 4.17 0 0 4.17 8.33 0 0 -4.17 12.5 0 0 -4.17 4.16 0 0 -4.16 8.33 0 0 -4.17 4.17 0 0 -4.16 4.16 0 0 -4.17 4.17 0 0 -4.16 4.16 0 0 -4.17 4.17 0 0 -5.42zm-183.29 58.76c-10.34,-2.89 -19.98,-7.35 -29.16,-12.88l0 9.53 -4.16 0 0 4.16 -4.17 0 0 12.5 -4.17 0 0 8.33 -4.16 0 0 8.33 4.16 0 12.5 0 0 -4.16 4.17 0 0 -4.17 4.16 0 0 -4.16 4.17 0 0 -4.17 4.17 0 0 -4.16 8.33 0 0 -4.17 4.16 0 0 -4.98zm-37.49 -18.26c-67.58,-46.61 -111.57,-146.24 -224.62,-79.67 -0.04,0.05 -28.58,88.01 -57.64,198.72l3.16 0 0 4.17 12.5 0 0 4.16 24.99 0 0 4.17 8.33 0 0 4.16 8.34 0 0 4.17 16.66 0 0 4.16 16.66 0 37.49 0 25 0 0 -4.16 37.49 0 0 -16.66 4.16 0 0 -4.17 4.17 0 0 -8.33 -12.5 0 0 -4.17 12.5 0 0 4.17 4.16 0 0 -4.17 4.17 0 0 -4.16 4.16 0 0 -4.17 4.17 0 0 -4.16 4.17 0 0 -4.17 4.16 0 4.17 0 0 -4.17 4.16 0 0 -4.16 4.17 0 0 -8.33 4.16 0 0 -8.33 4.17 0 0 -4.17 4.17 0 0 -4.16 4.16 0 0 -4.17 4.17 0 0 -4.17 4.16 0 0 -4.16 4.17 0 0 -4.17 4.16 0 0 -8.33 4.17 0 0 -20.83 4.16 0 0 -8.33 4.17 0 0 -2.41zm120.81 548.11l4.16 0 0 -4.16 -4.16 0 0 4.16zm-41.66 -20.83l4.16 0 0 -4.16 -4.16 0 0 4.16 -4.17 0 0 -12.49 -4.16 0 0 4.16 -4.17 0 0 4.17 -4.16 0 0 4.16 4.16 0 0 4.17 8.33 0 0 4.17 4.17 0 0 -8.34zm99.97 337.42l4.17 0 0 -4.16 -4.17 0 0 4.16zm0 -666.5l4.17 0 0 -4.17 -4.17 0 0 4.17zm37.49 -104.14l4.17 0 0 -4.17 -4.17 0 0 4.17zm-16.66 408.23l4.17 0 0 -4.16 -4.17 0 0 4.16zm-195.78 149.96l4.16 0 0 -4.16 -4.16 0 0 4.16zm-312.43 -212.44l4.17 0 0 -4.17 -4.17 0 0 4.17zm574.86 87.47l4.17 0 0 -8.33 -4.17 0 0 8.33zm-187.45 -37.49l4.16 0 0 -8.33 -4.16 0 0 8.33zm33.32 58.32l4.17 0 0 -8.33 -4.17 0 0 8.33zm208.29 -474.88l8.33 0 0 -4.17 -8.33 0 0 4.17zm-337.42 166.62l8.33 0 0 -4.16 -8.33 0 0 4.16zm283.26 233.28l4.17 0 0 -8.33 -4.17 0 0 8.33zm-158.29 112.47l4.16 0 0 -8.33 -4.16 0 0 8.33zm116.64 -245.77l4.16 0 0 -8.33 8.33 0 0 -4.17 4.17 0 0 12.5 -4.17 0 0 4.17 -4.16 0 0 4.16 -8.33 0 0 -8.33zm-87.48 416.57l8.33 0 0 -4.17 -8.33 0 0 4.17zm79.14 -612.36l4.17 0 0 -8.33 -4.17 0 0 8.33zm79.15 374.91l8.33 0 0 -4.16 -8.33 0 0 4.16zm-154.13 224.95l8.33 0 0 -4.17 -8.33 0 0 4.17zm-441.56 -191.62l8.34 0 0 -4.17 -8.34 0 0 4.17 -12.49 0 0 8.33 -4.17 0 0 4.17 4.17 0 0 4.16 4.16 0 0 -4.16 4.17 0 0 -8.34 4.16 0 0 -4.16zm420.74 24.99l4.16 0 0 -12.49 -4.16 0 0 12.49zm249.93 -291.59l4.17 0 0 -4.17 4.17 0 0 -4.16 -8.34 0 0 8.33zm-54.15 308.26l4.17 0 0 4.16 4.16 0 0 -8.33 -8.33 0 0 4.17zm0 -41.66l8.33 0 0 -4.17 -4.16 0 0 -4.16 -4.17 0 0 8.33zm-620.68 -33.33l-4.17 0 0 4.17 8.33 0 0 -8.33 -4.16 0 0 4.16zm79.15 -304.09l4.16 0 0 4.17 4.17 0 0 -8.34 -8.33 0 0 4.17zm216.61 8.33l8.33 0 0 -4.16 -4.17 0 0 -4.17 -4.16 0 0 8.33zm237.44 -158.29l4.17 0 0 -4.17 4.16 0 0 -8.33 -4.16 0 0 4.17 -4.17 0 0 8.33 -4.16 0 0 4.16 -4.17 0 0 4.17 8.33 0 0 4.16 4.17 0 0 8.33 -4.17 0 0 8.34 4.17 0 0 20.83 8.33 0 0 -20.83 -4.17 0 0 -8.34 4.17 0 0 -8.33 -4.17 0 0 -4.16 -4.16 0 0 -4.17 -4.17 0 0 -4.16zm-545.7 466.55l4.17 0 0 4.17 4.16 0 0 -8.34 -4.16 0 0 -4.16 -4.17 0 0 8.33zm604.02 -29.16l8.33 0 0 -8.33 -8.33 0 0 8.33zm-274.93 158.3l4.16 0 0 4.16 4.17 0 0 -8.33 -4.17 0 0 -4.17 -4.16 0 0 8.34zm54.15 -112.48l4.17 0 0 4.17 4.16 0 0 -8.33 -4.16 0 0 -4.17 -4.17 0 0 8.33zm-366.58 45.83l8.34 0 0 -8.34 -4.17 0 0 -4.16 -4.17 0 0 12.5zm0 -170.8l-4.16 0 0 8.33 4.16 0 0 4.17 4.17 0 0 -16.66 -4.17 0 0 4.16zm499.88 212.45l0 4.17 4.17 0 0 8.33 -4.17 0 0 4.16 -4.16 0 0 4.17 -20.83 0 0 4.17 -8.33 0 0 -4.17 -8.33 0 0 -4.17 -4.17 0 0 -4.16 -4.17 0 0 -4.17 4.17 0 0 -4.16 4.17 0 0 -4.17 4.16 0 0 -4.16 -12.5 0 0 -4.17 -4.16 0 0 -4.17 -4.17 0 0 4.17 -4.16 0 0 4.17 -4.17 0 0 -4.17 -4.16 0 0 -4.17 -4.17 0 0 -4.16 4.17 0 0 -4.17 24.99 0 0 -4.16 4.17 0 0 4.16 8.33 0 0 4.17 8.33 0 0 8.33 4.16 0 0 -4.17 8.34 0 0 4.17 4.16 0 0 4.17 4.17 0 0 4.16 4.16 0zm-137.46 -141.63l-4.17 0 0 4.17 -8.33 0 0 4.16 16.66 0 0 -8.33 4.17 0 0 -4.17 -4.17 0 0 -4.16 -4.16 0 0 8.33zm133.3 -504.05l8.33 0 0 8.34 -8.33 0 0 -8.34zm-66.65 254.11l-8.33 0 0 -4.17 4.16 0 0 -4.16 4.17 0 0 8.33zm66.65 466.55l-4.17 0 0 -24.99 16.66 0 0 16.66 -12.49 0 0 8.33zm-133.3 -70.81l8.33 0 0 8.33 -8.33 0 0 -8.33zm129.13 -466.56l-4.16 0 0 25 4.16 0 0 8.33 4.17 0 0 -37.49 -4.17 0 0 4.16zm-41.66 691.5l4.17 0 0 4.17 4.17 0 0 20.83 4.16 0 0 8.33 4.17 0 0 4.16 4.16 0 0 4.17 16.67 0 0 -4.17 -8.34 0 0 -4.16 -8.33 0 0 -4.17 -4.16 0 0 -8.33 4.16 0 0 -29.16 4.17 0 0 -4.16 -8.33 0 0 -4.17 -16.67 0 0 16.66zm-12.49 -79.15l-4.17 0 0 8.34 8.33 0 0 4.16 8.33 0 0 8.33 -4.16 0 0 16.67 -4.17 0 0 4.16 4.17 0 0 8.33 4.16 0 0 4.17 12.5 0 0 -4.17 -4.16 0 0 -8.33 -8.34 0 0 -4.16 4.17 0 0 -4.17 4.17 0 0 -4.17 4.16 0 0 -4.16 4.17 0 0 -12.5 -4.17 0 0 -4.16 -8.33 0 0 -8.34 -4.17 0 0 -4.16 -12.49 0 0 4.16zm8.33 -558.19l4.16 0 0 4.16 -4.16 0 0 -4.16zm-4.17 -33.33l-4.16 0 0 -8.33 4.16 0 0 8.33zm-4.16 499.88l4.16 0 0 4.17 -4.16 0 0 -4.17zm-49.99 -20.83l12.5 0 0 4.17 8.33 0 0 4.16 -12.5 0 0 -4.16 -8.33 0 0 -4.17zm-8.33 -8.33l4.16 0 0 4.17 -4.16 0 0 -4.17zm45.82 -24.99l4.17 0 0 -4.17 4.16 0 0 25 -4.16 0 0 -12.5 -4.17 0 0 -8.33zm-8.33 20.83l-4.17 0 0 -25 4.17 0 0 4.17 4.17 0 0 8.33 -4.17 0 0 12.5zm-133.3 -49.99l-4.17 0 0 -25 4.17 0 0 4.17 4.16 0 0 8.33 -4.16 0 0 12.5zm-46.14 202.87c33.11,73.95 87.81,69.94 132.59,21.3 -16.8,-76.27 -23.12,-77.16 -64.05,-122.21 -53.82,5.47 -53.07,23.68 -68.54,100.91z"/>
  <path id="root" class="fil0 str0" d="M345.49 1370.48l8.33 0 0 8.33 -8.33 0 0 -8.33zm-98.98 -1339.84c1.2,50.38 -15.86,83.04 -38.75,152.96 -51.72,157.97 -83.75,275.28 -102.63,374.58l32.08 0 0 -4.17 8.33 0 0 -4.16 8.33 0 0 -4.17 8.33 0 0 -4.17 16.66 0 0 4.17 4.17 0 0 -4.17 8.33 0 0 12.5 -4.17 0 0 12.5 -4.16 0 0 4.16 -4.17 0 0 4.17 0 12.5 0 4.16 4.17 0 0 4.17 4.16 0 0 4.16 8.34 0 0 4.17 4.16 0 0 4.17 4.17 0 0 12.49 4.16 0 0 8.33 4.17 0 0 4.17 4.16 0 0 8.33 8.33 0 0 4.17 4.17 0 0 8.33 4.17 0 0 8.33 4.16 0 0 4.16 4.17 0 0 4.17 4.16 0 0 8.33 4.17 0 0 8.33 4.16 0 0 4.17 4.17 0 0 4.16 4.17 0 0 4.17 8.33 0 0 4.17 20.82 0 0 -4.17 0.74 0c11.05,-253.29 33.84,-530.08 10.55,-617.35 -18.77,-70.36 -22.08,-57.73 -56.11,-51.82zm-142.17 531.7c-14.95,79.81 -21.41,148.07 -22.75,216.62l1.46 0 0 -4.17 4.17 0 0 -4.16 4.16 0 4.17 0 0 -4.17 4.17 0 0 -4.17 4.16 0 0 -8.33 4.17 0 0 -8.33 4.16 0 0 -4.16 4.17 0 0 -4.17 4.16 0 0 -4.17 4.17 0 0 -4.16 4.16 0 0 -4.17 4.17 0 0 -4.16 4.17 0 0 -8.33 4.16 0 0 -20.83 4.17 0 0 -8.33 4.16 0 0 -8.33 4.17 0 0 -4.17 4.16 0 0 -4.17 4.17 0 0 4.17 -4.17 0 0 24.99 -4.16 0 0 4.17 -4.17 0 0 12.5 -4.16 0 0 8.33 -4.17 0 0 8.33 4.17 0 12.49 0 0 -4.17 4.17 0 0 -4.16 4.17 0 0 -4.17 4.16 0 0 -4.16 4.17 0 0 -4.17 8.33 0 0 -4.16 4.16 0 0 -8.34 4.17 0 0 -8.33 4.17 0 0 -4.16 4.16 0 0 -8.33 4.17 0 0 -4.17 4.16 0 0 -4.17 0 -4.16 4.17 0 0 -4.17 -4.17 0 0 -4.16 -4.16 0 0 -8.33 -4.17 0 0 -4.17 -4.16 0 0 -4.17 -4.17 0 0 -8.33 -4.17 0 0 -8.33 -4.16 0 0 -8.33 -4.17 0 0 -8.33 -4.16 0 0 -4.17 -4.17 0 0 -16.66 0 -8.33 -12.5 0 0 -4.17 -12.49 0 0 -4.16 -37.49 0 0 -4.17 -3.71 0zm-23.03 241.61c-0.03,11.05 0.07,22.14 0.27,33.33l1.47 0 0 20.82 4.17 0 0 8.34 0 4.16 -4.76 0c0.1,2.77 0.2,5.55 0.31,8.33l4.45 0 0 -8.33 4.16 0 0 8.33 4.17 0 0 33.33 4.17 0 0 8.33 12.49 0 0 -4.17 8.33 0 0 8.34 -8.33 0 0 4.16 -12.49 0 0 8.33 4.16 0 0 12.5 -4.16 0 0 -4.17 -4.17 0 0 -4.16 -4.17 0 0 -16.66 -4.16 0 0 -12.5 -2.97 0c4.65,92.37 13.89,197.02 20.95,337.42l7.01 0 0 4.16 8.33 0 0 4.17 4.17 0 0 4.16 12.5 0 0 4.17 8.33 0 4.16 0 29.16 0 0 4.16 29.16 0 4.17 0 4.16 0 0 4.17 4.17 0 4.16 0 0 -4.17 20.83 0 0 4.17 16.67 0 8.33 0 0 -12.5 4.16 0 0 8.33 4.17 0 0 4.17 4.16 0 8.33 0 0 4.17 45.83 0 0 4.16 8.33 0 0 4.17 4.16 0 0 4.16 16.67 0 0 -4.16 16.66 0 0 -4.17 12.5 0 0 -4.16 4.16 0 0 -4.17 4.17 0 0 -4.17 4.16 0 0 -16.66 4.17 0 0 -12.5 4.17 0 0 -8.33 -8.34 0 0 -4.16 -4.16 0 0 -4.17 -4.17 0 0 -4.16 -4.16 0 0 -4.17 -4.17 0 0 -8.33 -4.17 0 0 -12.5 -4.16 0 0 -12.49 -4.17 0 0 -4.17 -20.82 0 0 -4.17 8.33 0 0 -4.16 4.16 0 0 -6.01c-10.33,10.01 -20.83,14 -31.32,10.08 -28.92,-10.82 -43.26,-70.97 -49.06,-158.2l-7.1 0 0 4.16 -4.16 0 0 4.17 -12.5 0 0 -4.17 4.17 0 0 -8.33 8.33 0 0 -4.16 4.16 0 0 -4.17 4.17 0 0 -4.16 1.94 0c-1.24,-23.41 -1.93,-48.52 -2.17,-74.98l-8.1 0 0 4.16 -4.17 0 0 4.17 -4.16 0 0 8.33 -4.17 0 0 12.49 -4.16 0 0 20.83 -4.17 0 0 -4.16 -4.17 0 0 -20.83 -4.16 0 0 -20.83 -4.17 0 0 -4.16 -12.49 0 0 -4.17 -8.34 0 0 -4.17 -4.16 0 0 -4.16 -4.17 0 0 -4.17 -8.33 0 0 -4.16 -8.33 0 0 -4.17 -8.33 0 0 -4.16 -4.17 0 0 -4.17 -8.33 0 0 -4.17 -8.33 0 0 -4.16 -12.5 0 0 -4.17 -8.33 0 0 -4.16 20.83 0 0 4.16 12.5 0 0 4.17 8.33 0 0 4.16 8.33 0 0 -4.16 8.33 0 0 12.5 16.66 0 0 4.16 4.17 0 0 8.33 16.66 0 0 4.17 8.33 0 0 4.16 8.34 0 4.16 0 4.17 0 0 -4.16 4.16 0 0 -4.17 4.17 0 0 -4.16 4.16 0 0 -4.17 3.83 0c0,-6.87 0.03,-13.81 0.08,-20.83l-3.91 0 0 -8.33 -4.16 0 0 -12.5 -4.17 0 0 -4.16 -4.16 0 0 -4.17 -8.33 0 0 -4.16 -12.5 0 0 -4.17 29.16 0 0 4.17 4.16 0 0 4.16 4.17 0 0 4.17 0.03 0c0.61,-40.02 1.93,-82.04 3.66,-124.97l-7.86 0 -8.33 0 -4.16 0 0 -4.17 -4.17 0 0 -4.16 -4.16 0 0 -4.17 -8.34 0 0 4.17 -4.16 0 0 4.16 -25 0 0 -12.49 8.34 0 0 -4.17 8.33 0 0 -4.16 -4.17 0 0 -16.67 -4.16 0 0 -4.16 -4.17 0 0 -4.17 -4.17 0 0 -4.16 -4.16 0 0 -8.34 -4.17 0 0 4.17 -4.16 0 0 4.17 -4.17 0 0 8.33 -4.16 0 0 8.33 -4.17 0 0 20.83 -4.16 0 0 8.33 8.33 0 0 -8.33 4.16 0 0 -4.17 8.33 0 0 8.33 4.17 0 0 8.33 -12.5 0 -4.16 0 0 4.17 -20.83 0 0 4.16 -12.5 0 0 4.17 -4.16 0 0 4.17 -8.34 0 -8.33 0 0 4.16 -12.49 0 0 4.17 -8.34 0 0 4.16 -4.16 0 0 4.17 -4.17 0 0 8.33 -4.16 0 0 8.33 -8.33 0 0 4.17 -4.17 0 0 4.16 -8.33 0 0 4.17 -4.17 0 0 8.33 -4.16 0 0 4.16 -4.17 0 0 4.17 -1.74 0zm25.86 487.38c1.63,36.53 3.09,75.31 4.27,116.86 50.19,13.32 80.43,-51.77 158.63,20.61 98.38,91.04 130.93,102.21 167.06,85.56l0 -2.25 -4.16 0 0 -4.16 -4.17 0 0 -4.17 -4.16 0 0 -8.33 -4.17 0 0 -4.17 -4.16 0 -8.34 0 0 -16.66 4.17 0 0 -8.33 -4.17 0 0 -12.5 -12.49 0 0 -8.33 -4.17 0 0 -4.16 -4.17 0 0 -4.17 -4.16 0 0 -4.17 -8.33 0 0 -4.16 -4.17 0 0 4.16 -12.49 0 0 -4.16 -4.17 0 -4.17 0 0 4.16 -8.33 0 0 4.17 -8.33 0 0 4.17 -4.16 0 0 4.16 -4.17 0 0 4.17 -16.66 0 0 -4.17 -4.17 0 0 -8.33 4.17 0 0 -4.17 12.49 0 0 -4.16 -4.16 0 0 -12.5 -4.17 0 0 -4.16 -4.16 0 0 -8.33 -4.17 0 0 -8.34 -4.16 0 0 4.17 -8.34 0 0 4.17 -8.33 0 0 -8.34 4.17 0 0 -4.16 4.16 0 0 -4.17 -8.33 0 -8.33 0 0 16.67 -4.16 0 0 4.16 4.16 0 0 4.17 -4.16 0 0 4.16 -8.33 0 0 -12.49 4.16 0 0 -12.5 -4.16 0 -8.34 0 0 -16.66 -12.49 0 0 -4.17 -4.17 0 0 -4.17 -4.16 0 0 -8.33 -12.5 0 0 -12.49 8.33 0 0 -4.17 -16.66 0 0 -8.33 12.49 0 0 -16.66 -16.66 0 0 24.99 4.17 0 0 4.17 -12.5 0 0 -4.17 -8.33 0 0 -4.17 -4.17 0 0 -4.16 4.17 0 0 -4.17 -8.33 0 0 -4.16 -4.17 0 0 -4.17 -4.16 0 0 -4.16 -12.5 0 0 -4.17 -16.66 0 0 -4.16 -4.17 0 0 4.16 -4.16 0 0 -4.16 -4.17 0 0 -4.17 -4.17 0 0 -4.17 -12.49 0 0 -4.16 4.16 0 0 -4.17 -13.37 0zm375.03 195.79c6.5,-4.05 13.54,-8.26 21.26,-12.5l-8.01 0 0 4.17 -8.33 0 0 4.16 -8.33 0 0 4.17 3.41 0zm21.58 -12.67c2.43,-1.33 4.93,-2.66 7.5,-3.99l-7.5 0 0 3.99zm12.5 -6.53c1.09,-0.54 2.2,-1.09 3.33,-1.63l-3.33 0 0 1.63zm8.33 -4c7.69,-3.57 15.98,-7.09 25,-10.47 66.7,-25.01 91.35,36.64 129.31,43.23 10.55,-153.08 12.96,-258.78 31.31,-414.52 13.63,-115.81 18.18,-214.56 14.12,-307.37l-3.95 0 0 4.17 -8.33 0 0 4.16 -20.83 0 0 -4.16 4.16 0 0 -4.17 8.33 0 0 -4.16 4.17 0 0 -4.17 8.33 0 0 -4.17 4.17 0 0 -4.16 3.12 0c-1.63,-29.58 -4.14,-58.62 -7.52,-87.48l-3.93 0 0 -4.17 -4.17 0 0 -4.16 -4.17 0 0 -4.17 -4.16 0 0 -4.16 -4.17 0 0 -4.17 -4.16 0 0 -4.16 -4.17 0 0 -8.34 4.17 0 0 4.17 4.16 0 0 4.17 4.17 0 0 4.16 4.16 0 0 4.17 4.17 0 0 4.16 6.58 0c-4.73,-37.43 -10.9,-74.65 -18.51,-112.47l-8.9 0 0 -4.17 8.05 0c-12.96,-63.61 -29.92,-128.99 -50.74,-199.95l-3.13 0 0 4.17 -4.17 0 0 8.33 -4.16 0 0 8.33 -4.17 0 0 16.66 -4.16 0 0 4.17 0 4.17 -8.33 0 0 4.16 -12.5 0 0 12.5 -4.17 0 0 16.66 -4.16 0 0 4.17 8.33 0 0 4.16 4.17 0 0 8.33 8.33 0 0 4.17 4.16 0 0 16.66 -4.16 0 0 8.33 0 4.17 -4.17 0 0 4.16 -4.16 0 0 8.33 -4.17 0 0 12.5 -4.17 0 0 8.33 -4.16 0 0 12.5 4.16 0 0 4.17 4.17 0 0 8.33 4.17 0 0 4.16 8.33 0 0 4.17 8.33 0 0 4.16 12.49 0 0 4.17 4.17 0 0 8.33 -4.17 0 0 -4.16 -4.16 0 0 -4.17 -16.66 0 0 -4.17 -4.17 0 0 -4.16 -12.5 0 0 8.33 -4.16 0 0 12.5 -4.17 0 0 20.83 -4.16 0 0 4.16 -4.17 0 0 8.33 -4.16 0 0 41.66 4.16 0 0 4.16 8.33 0 0 4.17 8.33 0 0 4.17 8.34 0 0 4.16 4.16 0 0 4.17 4.17 0 0 4.16 8.33 0 0 4.17 20.83 0 0 -4.17 8.33 0 0 -4.16 4.16 0 0 4.16 12.5 0 0 -8.33 4.17 0 0 -4.16 4.16 0 0 8.33 -4.16 0 0 4.16 -4.17 0 0 12.5 4.17 0 0 8.33 4.16 0 0 8.33 4.17 0 0 4.17 4.16 0 0 12.5 4.17 0 0 12.49 -8.33 0 0 -20.83 -4.17 0 0 -8.33 -4.16 0 0 -8.33 -8.34 0 0 -4.16 -4.16 0 0 -4.17 -4.17 0 0 -4.17 -8.33 0 0 4.17 -29.16 0 0 -4.17 -12.49 0 0 -4.16 -4.17 0 0 12.5 8.33 0 0 8.33 12.5 0 0 4.16 -4.17 0 0 4.17 -12.49 0 0 4.16 -12.5 0 0 4.17 -4.17 0 0 4.17 -4.16 0 0 4.16 4.16 0 0 4.17 16.67 0 0 4.16 -12.5 0 0 4.17 -4.17 0 0 4.16 4.17 0 0 4.17 4.16 0 0 8.33 4.17 0 0 4.17 4.17 0 0 8.33 4.16 0 0 4.16 4.17 0 0 4.17 4.16 0 0 8.33 4.17 0 0 4.17 4.16 0 0 4.16 4.17 0 0 8.33 -8.33 0 0 -4.16 -4.17 0 0 -4.17 -4.16 0 0 -4.16 -8.33 0 -12.5 0 0 -4.17 -12.5 0 0 -4.17 -8.33 0 0 -4.16 -4.17 0 0 4.16 -8.33 0 0 4.17 -8.33 0 0 4.17 -8.33 0 0 4.16 -4.17 0 0 4.17 -4.16 0 0 8.33 4.16 0 0 4.16 -12.49 0 0 4.17 -8.33 0 0 4.16 -4.17 0 0 8.34 4.17 0 0 4.16 4.16 0 0 4.17 4.17 0 0 4.16 4.16 0 0 16.67 4.17 0 0 12.49 4.16 0 0 4.17 -4.16 0 0 -4.17 -4.17 0 0 -8.33 -4.16 0 0 -16.66 -4.17 0 0 -8.33 -4.16 0 0 -4.17 -16.67 0 0 4.17 -13.69 0c-19.46,91.05 -49.84,215.52 -84.37,291.59l2.25 0 0 8.33 4.17 0 0 8.34 4.17 0 0 4.16 4.16 0 0 8.33 -4.16 0 0 -4.16 -4.17 0 0 -4.17 -4.17 0 0 -4.16 -4.16 0 0 -12.5 -0.02 0c-5.46,11.68 -11.01,22.12 -16.65,31.01l0 31.47 4.17 0 0 8.34 4.17 0 0 8.33 4.16 0 0 8.33 4.17 0 0 8.33 4.16 0 0 4.17 4.17 0 0 8.33 4.17 0 12.49 0 0 4.16 4.17 0 0 4.17 4.16 0 0 4.16 8.33 0 0 8.33 -8.33 0 0 4.17 49.99 0 0 8.33 8.33 0 0 4.17 4.17 0 0 4.16 -12.5 0 0 -4.16 -12.5 0 0 4.16 -8.33 0 0 -4.16 -12.49 0 0 -4.17 -4.17 0 0 4.17 -4.17 0 0 -4.17 -8.33 0 0 4.17 -8.33 0 0 4.16 -4.16 0 0 8.33 -4.17 0 0 8.34 -4.16 0 0 4.16 -4.17 0 0 4.17 4.17 0 0 8.33 -4.17 0 0 4.16 -4.17 0 0 8.34 -4.16 0 0 4.16 -4.17 0 0 8.33 -4.16 0 0 12.5 -4.17 0 0 12.5 -4.17 0 0 8.33 -4.16 0 0 4.16 4.16 0 0 16.67 8.34 0 0 12.49 4.16 0 0 8.33 -4.16 0 0 4.17 4.16 0 0 8.33 4.17 0 0 12.5 0 8.33 4.16 0 0 8.33 4.17 0 0 4.17 8.33 0 0 4.16 4.17 0 0 8.33 4.16 0 0 12.5 4.17 0 0 4.17 33.32 0 0 -4.17 4.17 0 0 4.17 4.16 0 4.17 0 4.17 0 0 -4.17 33.32 0 0 -4.16 8.33 0 0 1.79zm116.64 -1132.98c-2.66,-9 -5.39,-18.08 -8.18,-27.27 -1.81,-5.98 -3.8,-12.87 -5.94,-20.43l-2.54 0 0 -8.33 -4.17 0 0 -8.33 -4.16 0 0 -8.33 -4.17 0 0 -4.17 -4.16 0 0 -4.16 -4.17 0 0 -4.17 -4.17 0 0 -4.16 -8.33 0 0 4.16 -4.16 0 0 4.17 -8.33 0 0 4.16 -8.34 0 0 4.17 -8.33 0 0 4.17 -8.33 0 0 4.16 -4.16 0 0 4.17 -8.34 0 0 4.16 -12.49 0 0 4.17 -8.33 0 0 -4.17 4.16 0 0 -4.16 8.33 0 0 -4.17 8.33 0 0 -4.16 4.17 0 0 -4.17 4.17 0 0 -4.17 4.16 0 0 -8.33 -4.16 0 0 -4.16 8.33 0 0 4.16 4.16 0 0 -4.16 12.5 0 0 -4.17 4.17 0 0 -8.33 4.16 0 0 -4.17 -4.16 0 0 -29.15 -4.17 0 0 -25 4.17 0 0 -8.33 -4.17 0 0 -16.66 -4.17 0 0 -31.96 -0.65 -1.37 -3.51 0 0 -4.16 -8.33 0 0 -12.5 2.93 0c-15.94,-27.07 -33.64,-42.22 -52.71,-32.87 -19.9,115.04 13.47,268.77 16.96,441.1l16.15 0 0 4.17 16.67 0 0 4.17 20.83 0 0 -4.17 8.33 0 0 -16.66 4.16 0 0 -4.17 4.17 0 0 -8.33 4.16 0 0 -4.17 4.17 0 0 -8.33 4.17 0 0 -8.33 4.16 0 0 -4.16 -4.16 0 0 -8.34 -4.17 0 0 -4.16 -4.17 0 0 -4.17 -4.16 0 0 -4.16 -4.17 0 0 -4.17 -20.83 0 0 4.17 -8.33 0 0 4.16 -8.33 0 0 -4.16 8.33 0 0 -4.17 4.17 0 0 -4.16 12.5 0 0 -4.17 4.16 0 0 -8.33 4.17 0 0 -4.17 4.16 0 0 -12.49 4.17 0 0 -8.33 12.5 0 0 -4.17 8.33 0 0 -12.5 4.16 0 0 -4.16 0 -4.17 4.17 0 0 -8.33 4.16 0 0 -8.33 4.17 0 0 -4.17 4.16 0 0 -4.16 4.17 0 0 -6.46zm-24.7 -85.19l-0.29 -1.02 0 1.02 0.29 0zm-1.19 -4.16c-4.78,-16.66 -10.05,-34.43 -15.77,-52.1l0 31.27 4.17 0 0 16.66 4.17 0 0 4.17 7.43 0zm-90.09 270.77c0.97,67.06 -2.75,136.88 -16.02,208.28l7.03 0 0 12.49 4.17 0 0 4.17 4.16 0 0 8.33 -4.16 0 0 4.17 4.16 0 0 8.33 -8.33 0 0 -4.17 -4.16 0 0 -8.33 -4.17 0 0 4.17 -4.17 0 0 4.16 -0.89 0c-3.26,16.61 -7.26,36.45 -11.91,58.32l4.47 0 0 -4.16 8.33 0 0 -4.17 4.17 0 0 -4.17 4.17 0 0 -8.33 4.16 0 0 -4.16 8.33 0 0 -4.17 4.17 0 0 -4.16 4.16 0 0 -8.33 -4.16 0 0 -8.34 4.16 0 0 4.17 8.33 0 0 -4.17 8.34 0 0 -4.16 8.33 0 0 -4.17 4.16 0 0 -4.16 -12.49 0 0 -4.17 -8.34 0 0 4.17 -4.16 0 0 4.16 -4.17 0 0 -12.49 4.17 0 0 -8.34 -8.33 0 0 -4.16 12.49 0 0 -8.33 0 -16.66 4.17 0 0 -20.83 4.17 0 0 -8.33 4.16 0 0 -16.67 4.17 0 0 -49.98 4.16 0 0 -4.17 4.17 0 0 -8.33 4.16 0 0 -8.33 4.17 0 0 -12.5 4.17 0 0 -20.83 4.16 0 0 -12.5 4.17 0 0 -8.33 4.16 0 0 -4.16 -4.16 0 0 -4.17 -4.17 0 0 -4.16 -20.83 0 0 4.16 -4.16 0 0 8.33 -4.17 0 0 -12.49 -4.16 0 0 -4.17 -8.34 0 0 -4.16 -4.16 0 0 4.16 -8.33 0 0 -4.16 -3.51 0zm-17.58 216.61c-0.72,3.83 -1.51,7.98 -2.38,12.5l2.64 0 0 -12.5 -0.26 0zm-133.04 431.23c-0.63,0.7 -1.25,1.34 -1.88,2l1.88 0 0 -2zm233.28 -889.45l4.16 0 0 -4.17 -4.16 0 0 4.17zm54.15 283.26l4.16 0 0 -4.16 -4.16 0 0 4.16zm-391.57 674.84l4.16 0 0 -4.17 -4.16 0 0 4.17zm262.43 -524.87l4.17 0 0 -4.17 -4.17 0 0 4.17zm-304.09 504.04l4.17 0 0 -4.17 -4.17 0 0 4.17 -4.17 0 0 -12.5 -4.16 0 0 4.17 -4.17 0 0 4.16 -4.16 0 0 4.17 4.16 0 0 4.17 8.33 0 0 4.16 4.17 0 0 -8.33zm337.42 -991.43l4.16 0 0 -4.16 -4.16 0 0 4.16zm-237.44 662.34l4.16 0 0 -4.16 -4.16 0 0 4.16zm37.49 -104.14l4.16 0 0 -4.16 -4.16 0 0 4.16zm-16.67 408.24l4.17 0 0 -4.17 -4.17 0 0 4.17zm270.77 -712.33l4.17 0 0 -4.17 -4.17 0 0 4.17zm-466.55 862.29l4.16 0 0 -4.17 -4.16 0 0 4.17zm262.44 -124.97l4.16 0 0 -8.33 -4.16 0 0 8.33zm-187.46 -37.49l4.17 0 0 -8.33 -4.17 0 0 8.33zm33.33 58.32l4.16 0 0 -8.33 -4.16 0 0 8.33zm208.28 -474.89l8.33 0 0 -4.16 -8.33 0 0 4.16zm-337.42 166.63l8.33 0 0 -4.17 -8.33 0 0 4.17zm283.27 233.28l4.16 0 0 -8.33 -4.16 0 0 8.33zm-158.3 112.47l4.17 0 0 -8.33 -4.17 0 0 8.33zm116.64 -245.78l4.16 0 0 -8.33 8.33 0 0 -4.16 4.17 0 0 12.49 -4.17 0 0 4.17 -4.16 0 0 4.17 -8.33 0 0 -8.34zm-87.48 416.57l8.33 0 0 -4.17 -8.33 0 0 4.17zm329.09 -720.66l8.33 0 0 -4.16 -8.33 0 0 4.16zm-249.94 108.31l4.16 0 0 -8.33 -4.16 0 0 8.33zm79.14 374.91l8.34 0 0 -4.17 -8.34 0 0 4.17zm-154.13 224.94l8.34 0 0 -4.16 -8.34 0 0 4.16zm224.95 -720.65l4.17 0 0 -8.34 -4.17 0 0 8.34zm-245.77 554.03l4.16 0 0 -12.5 -4.16 0 0 12.5zm412.4 -470.72l-4.17 0 0 4.16 8.33 0 0 -8.33 -4.16 0 0 4.17zm-162.46 179.12l4.16 0 0 -4.16 4.17 0 0 -4.17 -8.33 0 0 8.33zm-54.16 308.26l4.17 0 0 4.17 4.16 0 0 -8.34 -8.33 0 0 4.17zm179.13 -724.82l4.16 0 0 4.16 4.17 0 0 -8.33 -8.33 0 0 4.17zm24.99 0l12.5 0 0 -4.17 -12.5 0 0 4.17zm-204.12 683.16l8.33 0 0 -4.16 -4.16 0 0 -4.17 -4.17 0 0 8.33zm-324.92 -329.08l8.33 0 0 -4.17 -4.16 0 0 -4.16 -4.17 0 0 8.33zm237.44 -158.3l4.17 0 0 -4.16 4.16 0 0 -8.34 -4.16 0 0 4.17 -4.17 0 0 8.33 -4.16 0 0 4.17 -4.17 0 0 4.16 8.33 0 0 4.17 4.17 0 0 8.33 -4.17 0 0 8.33 4.17 0 0 20.83 8.33 0 0 -20.83 -4.17 0 0 -8.33 4.17 0 0 -8.33 -4.17 0 0 -4.17 -4.16 0 0 -4.16 -4.17 0 0 -4.17zm58.32 437.4l8.33 0 0 -8.34 -8.33 0 0 8.34zm-274.93 158.29l4.17 0 0 4.17 4.16 0 0 -8.34 -4.16 0 0 -4.16 -4.17 0 0 8.33zm54.15 -112.47l4.17 0 0 4.16 4.16 0 0 -8.33 -4.16 0 0 -4.16 -4.17 0 0 8.33zm395.74 -337.42l0 -4.17 4.17 0 0 -8.33 -8.33 0 0 4.17 -4.17 0 0 16.66 4.17 0 0 4.17 4.16 0 0 -12.5zm24.99 -58.32l4.17 0 0 -4.16 4.17 0 0 -4.17 4.16 0 0 -4.17 4.17 0 0 -8.33 4.16 0 0 -4.16 4.17 0 0 -4.17 4.16 0 0 -4.17 4.17 0 0 -4.16 -12.5 0 0 4.16 -8.33 0 0 -12.49 -8.33 0 0 4.16 -4.17 0 0 4.17 4.17 0 0 8.33 -4.17 0 0 4.17 -4.16 0 0 8.33 -4.17 0 0 4.16 -4.16 0 0 12.5 -4.17 0 0 8.33 -4.16 0 0 16.66 -4.17 0 0 16.67 4.17 0 0 -4.17 4.16 0 0 -12.5 4.17 0 0 -8.33 4.16 0 0 -4.16 4.17 0 0 -4.17 4.16 0 0 -8.33zm-287.43 483.22l0 4.16 4.17 0 0 8.33 -4.17 0 0 4.17 -4.16 0 0 4.16 -20.83 0 0 4.17 -8.33 0 0 -4.17 -8.33 0 0 -4.16 -4.17 0 0 -4.17 -4.16 0 0 -4.16 4.16 0 0 -4.17 4.17 0 0 -4.16 4.16 0 0 -4.17 -12.49 0 0 -4.16 -4.17 0 0 -4.17 -4.17 0 0 4.17 -4.16 0 0 4.16 -4.17 0 0 -4.16 -4.16 0 0 -4.17 -4.17 0 0 -4.17 4.17 0 0 -4.16 24.99 0 0 -4.17 4.17 0 0 4.17 8.33 0 0 4.16 8.33 0 0 8.34 4.17 0 0 -4.17 8.33 0 0 4.17 4.16 0 0 4.16 4.17 0 0 4.17 4.16 0zm258.28 -987.26l-4.17 0 0 8.33 -4.17 0 0 8.33 4.17 0 0 -4.17 4.17 0 0 -8.33 4.16 0 0 -16.66 -4.16 0 0 12.5zm-395.74 845.62l-4.17 0 0 4.17 -8.33 0 0 4.17 16.66 0 0 -8.34 4.17 0 0 -4.16 -4.17 0 0 -4.17 -4.16 0 0 8.33zm408.23 -566.52l4.17 0 0 4.16 8.33 0 0 -12.5 -4.17 0 0 -4.16 -8.33 0 0 12.5zm20.83 -208.29l4.17 0 0 4.17 4.16 0 0 4.16 4.17 0 0 4.17 4.16 0 0 -8.33 -4.16 0 0 -12.5 -12.5 0 0 8.33zm-295.76 270.77l8.33 0 0 8.33 -8.33 0 0 -8.33zm216.61 -395.74l-4.16 0 0 4.17 4.16 0 0 8.33 12.5 0 0 -8.33 4.17 0 0 -4.17 -4.17 0 0 -4.16 -12.5 0 0 4.16zm-283.26 649.85l-8.33 0 0 -4.17 4.16 0 0 -4.17 4.17 0 0 8.34zm66.65 466.55l-4.17 0 0 -25 16.67 0 0 16.67 -12.5 0 0 8.33zm-133.3 -70.82l8.33 0 0 8.33 -8.33 0 0 -8.33zm354.08 -1008.09l4.16 0 0 8.33 8.34 0 0 -16.66 -4.17 0 0 -8.33 -4.17 0 0 -4.16 -4.16 0 0 20.82zm-224.95 541.54l-4.16 0 0 24.99 4.16 0 0 8.33 4.17 0 0 -37.49 -4.17 0 0 4.17zm-170.79 -291.6l0 4.17 -4.16 0 0 -4.17 4.16 0zm4.17 -4.16l0 4.16 -4.17 0 0 -4.16 4.17 0zm0 0l0 -4.17 4.16 0 0 4.17 -4.16 0zm233.27 62.48l4.17 0 0 -4.16 4.17 0 0 24.99 -4.17 0 0 -12.5 -4.17 0 0 -8.33zm166.63 116.64l4.17 0 0 4.17 8.33 0 0 4.16 4.16 0 0 4.17 4.17 0 0 4.16 4.16 0 0 4.17 4.17 0 0 4.16 -12.5 0 0 -4.16 -12.49 0 0 -4.17 -4.17 0 0 -16.66zm-4.17 -95.81l4.17 0 0 12.5 -4.17 0 0 -12.5zm-283.26 733.16l4.16 0 0 4.16 -4.16 0 0 -4.16zm-49.99 -20.83l12.5 0 0 4.16 8.33 0 0 4.17 -12.5 0 0 -4.17 -8.33 0 0 -4.16zm-8.33 -8.33l4.17 0 0 4.16 -4.17 0 0 -4.16zm45.82 -25l4.17 0 0 -4.16 4.16 0 0 24.99 -4.16 0 0 -12.5 -4.17 0 0 -8.33zm-8.33 20.83l-4.16 0 0 -24.99 4.16 0 0 4.16 4.17 0 0 8.33 -4.17 0 0 12.5zm-133.3 -49.99l-4.17 0 0 -24.99 4.17 0 0 4.16 4.17 0 0 8.34 -4.17 0 0 12.49zm196.26 -158.13c15.69,2.97 28.64,-0.43 39.54,-8.49l-2.52 0 0 -12.5 -4.17 0 0 -16.66 -4.16 0 0 -8.33 -4.17 0 0 -12.5 4.17 0 0 -16.66 -4.17 0 0 -12.5 -4.17 0 0 -4.17 -4.16 0 0 -4.16 -4.17 0 0 -8.33 -4.16 0 0 -8.34 -4.17 0 0 -8.33 -4.16 0 0 -4.16 -4.17 0 0 -4.17 -4.17 0 0 -4.16 -8.33 0 0 4.16 -4.16 0 0 4.17 -1.84 0c2.44,32.34 9.1,67.29 23.14,125.13zm49.51 -17.74c4.96,-5.62 9.42,-12.33 13.48,-19.91l-5.15 0 0 -4.17 -12.49 0 0 8.33 4.16 0 0 15.75zm19.49 -32.41c2.3,-5.28 4.46,-10.85 6.51,-16.66l-5.17 0 0 -4.17 4.17 0 0 -8.33 -4.17 0 0 -4.17 -4.16 0 0 -4.16 -8.34 0 0 24.99 4.17 0 0 8.33 4.17 0 0 4.17 2.82 0zm9.67 -26.15c3.66,-11.49 6.94,-23.73 9.98,-36.34l-1.64 0 0 4.17 -8.34 0 0 4.17 -4.16 0 -4.17 0 0 8.33 4.17 0 0 4.16 4.16 0 0 15.51zm12.91 -48.83c6.17,-27.11 11.55,-55.32 17.55,-80.99 9.66,-41.27 18.12,-76.2 25.5,-106.47l-5.97 0 0 -4.16 6.98 0c54.6,-223.72 48.53,-186.67 26.5,-551.11 -4.86,-80.28 -7.62,-254.92 -69.9,-265.33 -17.44,229.36 5.93,333.49 -90.19,524.52 -13.56,26.93 -17.47,87.12 -18.53,150.29l3.51 0 0 4.16 8.33 0 0 -4.16 12.5 0 0 -4.17 4.16 0 0 -4.17 8.33 0 0 -4.16 4.17 0 0 -4.17 4.17 0 0 -4.16 4.16 0 0 -4.17 4.17 0 0 -4.16 4.16 0 0 -8.34 4.17 0 0 -4.16 8.33 0 0 -4.17 12.5 0 0 -4.16 4.16 0 0 -4.17 0 -4.16 4.17 0 0 -12.5 4.16 0 0 -12.5 -4.16 0 0 -12.49 4.16 0 0 8.33 4.17 0 0 4.16 12.5 0 0 4.17 4.16 0 0 4.16 -4.16 0 0 4.17 -4.17 0 0 12.5 4.17 0 0 4.16 4.16 0 0 12.5 4.17 0 0 8.33 4.16 0 0 8.33 4.17 0 0 4.17 4.16 0 0 8.33 4.17 0 0 4.16 8.33 0 0 4.17 4.17 0 0 4.17 4.16 0 0 4.16 4.17 0 0 4.17 4.16 0 0 4.16 -4.16 0 0 -4.16 -8.33 0 0 -4.17 -8.33 0 0 -4.16 -8.34 0 0 -4.17 -4.16 0 0 -4.17 -12.5 0 0 -4.16 -12.49 0 0 -4.17 -4.17 0 0 4.17 -8.33 0 0 4.16 -4.17 0 0 -8.33 -4.16 0 0 -4.16 -4.17 0 0 4.16 -8.33 0 0 4.17 -4.17 0 0 4.16 -8.33 0 0 4.17 -4.16 0 0 4.17 -4.17 0 0 4.16 4.17 0 0 8.33 -8.33 0 0 -4.16 -16.67 0 -4.16 0 0 4.16 -20.83 0 0 4.17 -3.73 0c-0.54,57.1 0.75,114.47 -1.07,150.03 -0.87,16.96 -1.74,32.06 -2.55,45.75l11.51 0 0 -4.16 8.34 0 0 4.16 -4.17 0 0 4.17 -8.33 0 0 4.17 -4.17 0 0 4.16 12.5 0 0 -4.16 12.5 0 0 4.16 -8.33 0 0 4.17 -8.34 0 0 4.16 -4.16 0 0 8.33 -4.17 0 0 33.33 -4.16 0 0 4.16 4.16 0 0 16.67 4.17 0 0 8.33 4.16 0 0 8.33 4.17 0 0 4.17 4.17 0 0 4.16 4.16 0 0 4.17 4.17 0 0 4.16 4.16 0 0 4.17 4.17 0 0 4.16 4.16 0 0 4.17 4.17 0 0 4.16 0 4.17 4.17 0 0 4.17 8.33 0 0 -4.17 4.16 0 0 -4.17 4.17 0 0 -8.33 4.16 0 0 -4.16 4.17 0 0 -8.33 -4.17 0 0 -12.5 -4.16 0 0 -8.33 -4.17 0 0 -16.66 -4.16 0 0 -20.83 -4.17 0 0 -12.5 -4.16 0 -8.34 0 0 -4.16 4.17 0 0 -4.17 4.17 0 0 -8.33 -4.17 0 0 -4.17 -4.17 0 0 -4.16 -4.16 0 0 -4.17 -4.17 0 0 -8.33 12.5 0 0 8.33 4.17 0 0 4.17 4.16 0 0 -4.17 4.17 0 0 -8.33 -4.17 0 0 -4.17 -8.33 0 0 -8.33 4.17 0 0 -4.16 4.16 0 0 4.16 4.17 0 0 4.17 4.16 0 0 8.33 4.17 0 0 8.33 4.16 0 0 8.33 4.17 0 0 12.5 4.16 0 0 4.17 -4.16 0 0 4.16 -4.17 0 0 4.17 -4.16 0 0 12.49 -4.17 0 0 4.17 4.17 0 0 12.5 4.16 0 0 8.33 4.17 0 0 12.49 4.16 0 0 4.17 4.17 0 0 4.17 4.17 0 0 8.33 4.16 0 0 8.33 4.17 0 0 4.16 12.5 0 0 -4.16 4.57 0z"/>
 </g>
</svg>
