<?xml version="1.0" encoding="UTF-8"?>
<!DOCTYPE svg PUBLIC "-//W3C//DTD SVG 1.1//EN" "http://www.w3.org/Graphics/SVG/1.1/DTD/svg11.dtd">
<!-- Creator: CorelDRAW (Versión de evaluación) -->
<svg xmlns="http://www.w3.org/2000/svg" xml:space="preserve" width="739px" height="2458px" version="1.1" style="shape-rendering:geometricPrecision; text-rendering:geometricPrecision; image-rendering:optimizeQuality; fill-rule:evenodd; clip-rule:evenodd"
viewBox="0 0 739 2457.4"
 xmlns:xlink="http://www.w3.org/1999/xlink"
 xmlns:xodm="http://www.corel.com/coreldraw/odm/2003">
 <defs>
  <style type="text/css">
   <![CDATA[
    .str0 {stroke:#373435;stroke-width:10;stroke-miterlimit:22.9256}
    .fil0 {fill:#FEFEFE}
   ]]>
  </style>
 </defs>
 <g id="tooth-fissure-full-35">
  <metadata id="CorelCorpID_0Corel-Layer"/>
  <path id="root" class="fil0 str0" d="M507.76 2455.72c-111.82,21.73 -172.82,-173.87 -209.94,-271.91 -120.47,-318.13 -126.85,-541.65 -107.37,-869.25 14.08,-236.76 -45.72,-370.18 -44.57,-451.84 136.29,-21.51 188.93,81.7 265.09,60.73 109.36,-30.1 59.21,-96.17 247.29,-81.94 13.05,653.68 -119.72,934.16 -140.02,1197.48 -18.38,238.28 41.96,338.28 -10.48,416.73zm-259.22 -417.69c-4.96,-16.85 -9.6,-33.51 -13.92,-49.99l16.64 8.92 3.68 1.97 7.34 3.93 1.97 -3.67 11.01 5.9 1.97 -3.67 3.67 1.97 1.97 -3.68 7.34 3.94 1.97 -3.67 11.02 5.9 1.96 -3.67 7.35 3.93 3.93 -7.34 3.67 1.96 -1.96 3.68 7.34 3.93 -1.97 3.67 3.68 1.97 1.96 -3.67 3.68 1.96 1.96 -3.67 3.67 1.97 3.94 -7.35 3.67 1.97 5.9 -11.01 3.67 1.96 1.97 -3.67 3.67 1.97 1.97 -3.67 3.67 1.96 1.97 -3.67 3.67 1.97 1.97 -3.67 3.67 1.96 1.97 -3.67 3.67 1.97 1.97 -3.67 3.67 1.96 1.96 -3.67 7.35 3.93 1.96 -3.67 3.68 1.97 1.96 -3.67 3.68 1.97 5.9 -11.02 7.34 3.93 -5.9 11.02 3.67 1.97 -1.96 3.67 29.37 15.74 1.97 -3.68 3.67 1.97 7.34 3.93 1.97 -3.67 7.35 3.94 1.96 -3.68 3.67 1.97 1.97 -3.67 3.67 1.97 3.68 1.96 1.96 -3.67 14.69 7.87 1.97 -3.67 14.69 7.87 1.32 -2.48c-0.56,5.52 -1.06,11.04 -1.53,16.54l-9.37 -5.02 -1.96 3.68 -29.38 -15.74 -1.97 3.67 -7.34 -3.93 -1.97 3.67 -7.34 -3.93 -1.97 3.67 -7.34 -3.94 -5.91 11.02 3.68 1.97 -5.9 11.01 3.67 1.97 -3.94 7.34 3.68 1.97 -3.94 7.35 -3.67 -1.97 -9.84 18.36 3.68 1.96 -3.94 7.35 3.67 1.97 -3.93 7.34 -1.97 3.67 -1.96 3.67 3.67 1.97 -1.97 3.67 -1.97 3.67 3.68 1.97 -1.97 3.67 3.67 1.97 -1.97 3.67 3.68 1.97 -3.94 7.34 3.67 1.97 -3.93 7.34 3.67 1.97 -1.96 3.67 3.67 1.97 -3.94 7.35 3.68 1.96 -1.97 3.67 7.34 3.94 -1.97 3.67 3.68 1.97 -1.97 3.67 3.67 1.97 -1.97 3.67 11.02 5.9 -1.97 3.67 3.68 1.97 -1.97 3.67 3.67 1.97 -3.93 7.34 3.67 1.97 -1.97 3.67 3.67 1.97 -5.9 11.01 7.35 3.94 -3.94 7.34 3.67 1.97 -1.96 3.67 3.67 1.97 -1.97 3.67 7.35 3.93 -1.97 3.67 3.67 1.97 -3.93 7.35 3.67 1.96 -3.94 7.35 7.35 3.93 -1.97 3.67 7.35 3.94 -1.97 3.67 3.67 1.97 -1.97 3.67 3.68 1.97 -1.97 3.67 22.03 11.8 -1.97 3.67 7.35 3.94 -1.97 3.67 3.67 1.97 1.97 -3.68 22.73 12.18c1.13,13.86 1.88,26.76 1.96,38.86l-3.71 -1.99 -1.96 3.67 -3.68 -1.97 -13.77 25.71 -3.67 -1.97 -7.87 14.69 3.68 1.97 -5.9 11.01 3.67 1.97 -9.84 18.36 -7.34 -3.94 7.87 -14.68 -3.68 -1.97 7.87 -14.69 -7.34 -3.93 -3.94 7.34 3.68 1.97 -9.84 18.36 -7.34 -3.94 -1.97 3.68 -3.67 -1.97 1.96 -3.67 3.68 1.96 1.96 -3.67 3.68 1.97 3.93 -7.34 -3.67 -1.97 7.87 -14.69 -3.68 -1.97 1.97 -3.67 -3.67 -1.97 1.97 -3.67 -3.68 -1.96 1.97 -3.68 -3.67 -1.96 1.97 -3.68 -3.68 -1.96 1.97 -3.68 -3.67 -1.96 1.97 -3.67 -3.68 -1.97 3.94 -7.34 -3.67 -1.97 1.96 -3.67 -7.34 -3.94 15.73 -29.37 -3.67 -1.97 1.97 -3.67 -3.67 -1.97 1.97 -3.67 -3.68 -1.97 1.97 -3.67 -7.34 -3.94 1.96 -3.67 -3.67 -1.96 -3.67 -1.97 1.97 -3.67 -3.68 -1.97 1.97 -3.67 -7.34 -3.94 3.93 -7.34 -3.67 -1.97 3.94 -7.34 -3.68 -1.97 1.97 -3.67 -7.34 -3.93 1.96 -3.68 -3.67 -1.96 1.97 -3.67 -3.67 -1.97 1.96 -3.67 -3.67 -1.97 1.97 -3.67 -3.68 -1.97 1.97 -3.67 -3.67 -1.97 1.97 -3.67 -11.02 -5.9 1.97 -3.67 -7.35 -3.94 1.97 -3.67 -3.67 -1.97 1.97 -3.67 -3.68 -1.97 1.97 -3.67 3.67 1.97 3.94 -7.35 -33.05 -17.7 -3.93 7.35 -3.68 -1.97 -1.96 3.67 -7.35 -3.93 -3.93 7.34 -3.67 -1.97 -3.94 7.35 -3.67 -1.97 -3.93 7.34 -3.68 -1.96 -7.86 14.69 3.67 1.96 -3.94 7.34 3.68 1.97 -1.97 3.67 7.34 3.94 -3.93 7.34 -7.34 -3.93 1.96 -3.67 -3.67 -1.97 1.97 -3.67 -3.67 -1.97 3.93 -7.34 -3.67 -1.97 1.96 -3.67 -3.67 -1.97 1.97 -3.67 -29.38 -15.74 1.97 -3.67 -18.36 -9.83 1.97 -3.68 7.34 3.94 1.97 -3.67 3.67 1.96 1.97 -3.67 11.01 5.9 -1.96 3.67 7.34 3.94 1.97 -3.67 18.36 9.83 1.97 -3.67 3.67 1.97 1.96 -3.68 3.68 1.97 7.86 -14.69 3.68 1.97 1.96 -3.67 3.68 1.97 1.96 -3.68 3.67 1.97 1.97 -3.67 3.67 1.97 1.97 -3.68 3.67 1.97 1.97 -3.67 11.02 5.9 1.96 -3.67 -3.67 -1.97 7.87 -14.69 -3.67 -1.96 3.93 -7.35 -3.67 -1.97 3.93 -7.34 -3.67 -1.97 1.97 -3.67 -3.67 -1.96 3.93 -7.35 -3.67 -1.97 3.93 -7.34 -3.67 -1.97 11.8 -22.03 -3.67 -1.97 15.74 -29.37 -3.68 -1.97 7.87 -14.69 -3.67 -1.96 1.97 -3.68 -29.38 -15.73 1.97 -3.68 -3.67 -1.96 -1.97 3.67 -3.67 -1.97 -1.97 3.68 -3.67 -1.97 -1.97 3.67 -3.67 -1.97 -1.97 3.68 -3.67 -1.97 -3.93 7.34 -14.69 -7.87 -5.9 11.02 -3.67 -1.97 -7.87 14.69 3.67 1.97 -1.97 3.67 -7.34 -3.93 -1.97 3.67 -3.67 -1.97 -5.9 11.02 3.67 1.96 -1.97 3.68 3.68 1.96 -1.97 3.68 3.67 1.96 -1.97 3.67 -7.34 -3.93 1.97 -3.67 -7.35 -3.94 1.97 -3.67 -11.02 -5.9 -3.67 -1.97 -1.97 3.68 -3.67 -1.97 -1.96 3.67 -3.68 -1.97 -1.96 3.68 -3.67 -1.97 -1.97 3.67 -3.67 -1.97 -1.97 3.68 -22.03 -11.81 -1.97 3.68 3.67 1.96 -1.97 3.67 -11.01 -5.9 -1.97 3.67 -3.38 -1.81zm-30.72 -120.42c-0.88,-4.07 -1.74,-8.14 -2.57,-12.2l3.36 -6.28 3.67 1.97 -1.97 3.67 3.68 1.97 -1.97 3.67 3.67 1.97 -1.97 3.67 -3.67 -1.97 -1.96 3.67 -0.27 -0.14zm-30.6 -214.87c-0.4,-5.45 -0.77,-10.91 -1.13,-16.38l1.3 -2.43 1.97 -3.67 3.67 1.97 1.97 -3.68 3.67 1.97 1.97 -3.67 3.67 1.96 1.97 -3.67 3.67 1.97 1.97 -3.67 3.67 1.97 1.97 -3.68 3.67 1.97 1.97 -3.67 3.67 1.97 1.96 -3.68 3.68 1.97 3.93 -7.34 3.67 1.96 3.94 -7.34 3.67 1.97 7.87 -14.69 3.67 1.97 1.97 -3.68 -3.68 -1.96 15.74 -29.38 -3.67 -1.97 3.93 -7.34 -3.67 -1.97 1.97 -3.67 -7.35 -3.93 1.97 -3.68 -7.34 -3.93 1.96 -3.67 11.02 5.9 -1.97 3.67 11.02 5.9 1.97 -3.67 -3.68 -1.97 1.97 -3.67 -7.34 -3.93 1.96 -3.67 -3.67 -1.97 1.97 -3.67 7.34 3.93 -1.97 3.67 11.02 5.9 1.97 -3.67 3.67 1.97 5.9 -11.02 3.67 1.97 3.94 -7.34 3.67 1.96 1.97 -3.67 3.67 1.97 1.97 -3.67 3.67 1.96 1.96 -3.67 3.68 1.97 1.96 -3.67 3.68 1.96 1.96 -3.67 25.71 13.77 -1.97 3.67 -11.02 -5.9 -1.96 3.67 -7.35 -3.93 -1.97 3.67 -3.67 -1.97 -1.96 3.68 -3.68 -1.97 -5.9 11.02 -3.67 -1.97 -3.93 7.34 -3.67 -1.97 -1.97 3.68 -3.67 -1.97 3.93 -7.34 -3.67 -1.97 -3.94 7.34 -3.67 -1.96 -3.93 7.34 7.34 3.93 -3.93 7.35 7.34 3.93 -1.97 3.67 3.68 1.97 -1.97 3.67 3.67 1.97 -1.96 3.67 3.67 1.97 -1.97 3.67 3.67 1.97 3.67 1.97 7.35 3.93 1.96 -3.67 7.35 3.93 1.97 -3.67 14.68 7.87 3.94 -7.35 3.67 1.97 1.97 -3.67 14.68 7.87 5.91 -11.02 7.34 3.94 -1.97 3.67 7.35 3.93 1.96 -3.67 7.35 3.93 1.96 -3.67 11.02 5.9 1.97 -3.67 18.36 9.83 -1.97 3.68 -7.34 -3.94 -1.97 3.68 -11.02 -5.91 -1.96 3.68 -7.35 -3.94 -1.96 3.67 -7.35 -3.93 -1.97 3.67 -3.67 -1.97 -1.97 3.68 -7.34 -3.94 -1.97 3.68 -7.34 -3.94 -1.97 3.67 -7.34 -3.93 -1.97 3.67 -3.67 -1.97 -1.97 3.68 -3.67 -1.97 -1.97 3.67 -7.34 -3.93 -1.97 3.67 -11.01 -5.9 -1.97 3.67 -3.67 -1.97 -9.84 18.36 -3.67 -1.97 -9.83 18.37 -3.68 -1.97 -1.96 3.67 -3.68 -1.97 9.84 -18.36 -3.67 -1.96 5.9 -11.02 -3.67 -1.97 3.93 -7.34 -3.67 -1.97 1.97 -3.67 -3.67 -1.97 1.96 -3.67 -7.34 -3.93 1.96 -3.67 -7.34 -3.94 -3.93 7.34 -3.68 -1.96 -15.73 29.37 -3.67 -1.96 -11.81 22.03 3.68 1.97 -3.94 7.34 3.67 1.97 -1.96 3.67 7.34 3.93 -1.97 3.67 3.68 1.97 -1.97 3.67 3.67 1.97 -1.97 3.67 7.35 3.94 -3.94 7.34 3.68 1.97 -1.97 3.67 -11.02 -5.9 1.97 -3.67 -3.67 -1.97 1.96 -3.67 -7.34 -3.94 1.97 -3.67 -7.35 -3.93 1.97 -3.67 -7.34 -3.94 1.96 -3.67 -3.67 -1.97 1.97 -3.67 -7.35 -3.93 -1.96 3.67 -3.67 -1.97 -1.97 3.67 -3.67 -1.96 -1.97 3.67 -3.67 -1.97 -3.94 7.34 -3.67 -1.96 -3.93 7.34 -3.67 -1.97 -3.94 7.35 -3.32 -1.78zm-3.34 -58.5c-0.21,-4.82 -0.39,-9.64 -0.55,-14.47l1.96 -3.67 3.68 1.96 3.93 -7.34 3.67 1.97 5.9 -11.02 3.68 1.97 1.96 -3.67 -3.67 -1.97 5.9 -11.02 -3.67 -1.96 1.97 -3.68 -3.68 -1.96 1.97 -3.68 -3.67 -1.96 1.97 -3.67 3.67 1.96 5.9 -11.01 3.67 1.96 3.94 -7.34 3.67 1.97 3.93 -7.35 3.67 1.97 3.94 -7.34 3.67 1.96 1.97 -3.67 3.67 1.97 1.97 -3.67 3.67 1.96 -1.97 3.67 3.67 1.97 -3.93 7.35 -7.35 -3.94 -1.96 3.67 -3.67 -1.96 -3.94 7.34 3.67 1.97 -1.96 3.67 3.67 1.97 1.97 -3.67 3.67 1.96 3.93 -7.34 11.02 5.9 -3.94 7.34 -3.67 -1.96 -1.97 3.67 -3.67 -1.97 -1.96 3.67 -3.68 -1.96 -1.96 3.67 -3.68 -1.97 -3.93 7.35 3.67 1.96 -1.96 3.67 3.67 1.97 -1.97 3.67 -7.34 -3.93 -3.68 -1.97 -5.9 11.02 -3.67 -1.97 -9.83 18.36 -3.68 -1.97 -7.86 14.69 -3.68 -1.97 -3.93 7.35 -0.89 -0.48zm-0.13 -189.1c0.1,-3.08 0.2,-6.18 0.31,-9.28l2.54 1.36 -1.96 3.67 7.34 3.94 -1.97 3.67 -6.26 -3.36zm2.85 -69.67c0.29,-6 0.6,-12.03 0.91,-18.1l6.83 3.66 -7.74 14.44zm1.5 -29.25l0.64 -11.82 8.09 4.33 -3.93 7.35 -3.68 -1.97 -1.12 2.11zm4.49 -114.26c-0.01,-17.56 -0.42,-34.48 -1.16,-50.76l0.54 -1.02 -0.6 -0.32c-0.23,-4.97 -0.49,-9.88 -0.78,-14.73l5.84 -10.91 -3.67 -1.97 5.9 -11.02 -3.67 -1.96 3.93 -7.34 -11.01 -5.91 -0.27 0.5c-0.18,-1.89 -0.36,-3.78 -0.54,-5.66l6.45 3.46 1.96 -3.67 3.68 1.96 3.93 -7.34 3.67 1.97 1.97 -3.68 3.67 1.97 5.9 -11.01 -3.67 -1.97 3.93 -7.35 -3.67 -1.96 5.9 -11.02 -3.67 -1.97 3.94 -7.34 -3.68 -1.97 1.97 -3.67 -3.67 -1.97 1.97 -3.67 3.93 -7.34 -3.67 -1.97 7.87 -14.69 3.67 1.97 1.96 -3.67 7.35 3.93 3.93 -7.34 3.68 1.97 1.96 -3.68 7.35 3.94 1.96 -3.67 -3.67 -1.97 7.87 -14.69 -3.67 -1.97 5.9 -11.01 -11.02 -5.9 1.97 -3.67 -7.35 -3.94 1.97 -3.67 1.97 -3.67 -3.67 -1.97 7.87 -14.69 -3.68 -1.96 3.94 -7.35 -3.67 -1.97 3.93 -7.34 -3.67 -1.97 1.96 -3.67 -3.67 -1.97 1.97 -3.67 -3.67 -1.96 1.97 -3.68 -7.35 -3.93 -1.97 3.67 -3.67 -1.97 -3.93 7.35 -7.35 -3.94 3.94 -7.34 3.67 1.97 3.93 -7.35 3.68 1.97 3.93 -7.34 3.67 1.96 13.77 -25.7 3.67 1.97 1.97 -3.68 7.34 3.94 1.97 -3.67 3.67 1.96 3.94 -7.34 3.67 1.97 1.97 -3.68 3.67 1.97 0.47 -0.88c3.77,1.91 7.47,3.83 11.11,5.73l-2.53 4.73 -3.67 -1.97 -3.94 7.34 -3.67 -1.97 -1.97 3.68 -3.67 -1.97 -1.97 3.67 -7.34 -3.93 -1.97 3.67 -3.67 -1.97 -3.93 7.35 -3.67 -1.97 -3.94 7.34 3.67 1.97 -3.93 7.34 -3.67 -1.96 -1.97 3.67 3.67 1.97 -1.97 3.67 3.68 1.96 -3.94 7.35 3.67 1.97 -1.96 3.67 3.67 1.97 -1.97 3.67 3.67 1.96 -3.93 7.35 3.67 1.96 -3.93 7.35 3.67 1.97 -1.97 3.67 -1.96 3.67 3.67 1.97 -5.9 11.01 7.34 3.94 -1.97 3.67 11.02 5.9 -3.93 7.34 3.67 1.97 -5.9 11.02 3.67 1.96 -1.97 3.68 3.67 1.96 -3.93 7.35 3.67 1.96 -1.97 3.68 11.02 5.9 -1.97 3.67 3.67 1.97 -1.96 3.67 7.34 3.93 -1.96 3.67 -7.35 -3.93 1.97 -3.67 -7.35 -3.94 1.97 -3.67 -18.36 -9.83 -1.97 3.67 -3.67 -1.97 -1.96 3.67 -3.68 -1.96 -1.96 3.67 -3.68 -1.97 -1.96 3.67 -3.67 -1.96 -3.94 7.34 -3.67 -1.97 -1.97 3.68 3.67 1.96 -3.93 7.35 3.67 1.96 -3.93 7.35 3.67 1.97 -1.97 3.67 3.67 1.96 -3.93 7.35 3.67 1.97 -1.96 3.67 3.67 1.96 -7.87 14.69 7.34 3.94 -1.96 3.67 18.36 9.83 1.96 -3.67 14.69 7.87 1.97 -3.67 18.36 9.83 -1.97 3.67 -3.67 -1.96 -1.97 3.67 -3.67 -1.97 -1.97 3.67 -7.34 -3.93 1.97 -3.67 -3.68 -1.97 -1.96 3.67 -7.35 -3.93 -1.96 3.67 -3.67 -1.97 -5.91 11.02 -3.67 -1.97 3.94 -7.34 -3.68 -1.97 1.97 -3.67 -18.36 -9.84 -1.97 3.68 -3.67 -1.97 -1.97 3.67 -3.67 -1.96 -1.96 3.67 3.67 1.96 -3.94 7.35 3.67 1.96 -5.9 11.02 3.68 1.97 -9.84 18.36 3.67 1.96 -5.9 11.02 3.67 1.97 -3.93 7.34 3.67 1.97 -3.93 7.34 3.67 1.97 -1.97 3.67 3.67 1.97 -9.61 17.94zm-28.99 -260.73l-1.06 -5.29 1.89 1.01 1.97 -3.67 7.34 3.93 -1.97 3.67 -3.67 -1.96 -1.96 3.67 -2.54 -1.36zm150.79 -81.32l3.69 1.93 -0.61 1.14 -3.67 -1.96 0.59 -1.11zm53.63 23.4c2.82,0.72 5.64,1.34 8.48,1.81l-0.02 0.03 3.68 1.96 -1.97 3.67 7.34 3.94 -1.96 3.67 7.34 3.93 -1.97 3.68 3.68 1.96 -1.97 3.68 -7.35 -3.94 1.97 -3.67 -11.01 -5.9 1.96 -3.67 -7.34 -3.94 1.96 -3.67 -3.67 -1.97 0.85 -1.57zm215.7 750.82c-1.17,5.72 -2.34,11.4 -3.5,17.03l-7.14 -3.83 -7.34 -3.93 -33.05 -17.71 -9.84 18.36 -3.67 -1.96 -3.93 7.34 -3.68 -1.96 -5.9 11.01 -3.67 -1.97 -3.93 7.35 -3.68 -1.97 -1.96 3.67 -3.67 -1.96 -3.94 7.34 -3.67 -1.97 -3.93 7.35 -3.68 -1.97 -5.9 11.02 -3.67 -1.97 -7.87 14.69 -3.67 -1.97 -1.97 3.67 -3.67 -1.97 -1.97 3.68 -3.67 -1.97 5.9 -11.02 3.67 1.97 3.94 -7.34 -11.02 -5.91 1.97 -3.67 -7.34 -3.93 3.93 -7.35 7.35 3.94 -1.97 3.67 11.01 5.9 3.94 -7.34 3.67 1.96 15.74 -29.37 3.67 1.97 3.93 -7.35 3.67 1.97 -3.93 7.34 7.34 3.94 3.94 -7.35 -7.35 -3.93 1.97 -3.67 3.94 -7.35 3.67 1.97 9.83 -18.36 3.67 1.97 7.87 -14.69 7.35 3.93 3.93 -7.34 -3.67 -1.97 1.97 -3.67 -3.68 -1.97 1.97 -3.67 -3.67 -1.97 1.97 -3.67 -3.68 -1.96 1.97 -3.68 -3.67 -1.96 3.93 -7.35 -3.67 -1.96 1.97 -3.68 -7.35 -3.93 1.97 -3.67 -3.67 -1.97 1.97 -3.67 -7.35 -3.93 3.94 -7.35 -3.68 -1.97 3.94 -7.34 -3.67 -1.97 1.96 -3.67 -3.67 -1.97 1.97 -3.67 -7.35 -3.93 1.97 -3.68 -11.01 -5.9 1.96 -3.67 -7.34 -3.93 -7.34 -3.94 1.96 -3.67 -3.67 -1.96 1.97 -3.68 -11.02 -5.9 1.97 -3.67 -18.36 -9.84 1.97 -3.67 -3.68 -1.96 -11.01 -5.91 3.93 -7.34 3.67 1.97 3.94 -7.35 7.34 3.94 -1.97 3.67 3.68 1.97 -3.94 7.34 7.35 3.94 3.93 -7.35 -3.67 -1.97 9.83 -18.36 -3.67 -1.96 3.94 -7.35 -3.68 -1.96 3.94 -7.35 -3.67 -1.96 1.96 -3.68 -3.67 -1.96 1.97 -3.68 -3.67 -1.96 -3.94 7.34 -3.67 -1.97 -1.97 3.68 -3.67 -1.97 -1.97 3.67 -3.67 -1.97 -1.97 3.67 -3.67 -1.96 -7.87 14.69 -3.67 -1.97 -1.96 3.67 7.34 3.94 -1.97 3.67 7.35 3.93 -5.9 11.02 -22.04 -11.81 1.97 -3.67 -3.67 -1.96 1.97 -3.67 -7.35 -3.94 -1.97 3.67 -3.67 -1.96 -1.96 3.67 -3.68 -1.97 -1.96 3.67 -3.68 -1.97 -7.34 -3.93 -11.01 -5.9 3.93 -7.34 -3.67 -1.97 1.96 -3.67 -3.67 -1.97 3.94 -7.34 3.67 1.96 3.93 -7.34 -3.67 -1.97 1.97 -3.67 -3.68 -1.97 1.97 -3.67 -7.34 -3.93 1.97 -3.68 -18.36 -9.83 1.96 -3.67 -3.67 -1.97 -14.69 -7.87 -1.97 3.67 -7.34 -3.93 3.94 -7.34 3.67 1.96 1.96 -3.67 -3.67 -1.97 1.97 -3.67 -3.67 -1.97 1.96 -3.67 -7.34 -3.93 1.97 -3.67 -3.67 -1.97 1.96 -3.67 -7.34 -3.94 1.97 -3.67 -3.68 -1.97 -1.96 3.68 -3.68 -1.97 -3.93 7.34 -3.67 -1.96 1.97 -3.67 -7.35 -3.94 1.97 -3.67 -3.67 -1.97 -1.97 3.67 -11.02 -5.9 -1.96 3.67 -11.02 -5.9 -1.97 3.68 -3.67 -1.97 -1.97 3.67 -7.34 -3.93 -1.97 3.67 -7.34 -3.94 -1.97 3.68 -7.34 -3.94 -1.97 3.67 -3.67 -1.96 1.97 -3.67 3.67 1.96 1.97 -3.67 3.67 1.97 1.97 -3.67 3.67 1.96 1.96 -3.67 3.68 1.97 1.96 -3.67 7.35 3.93 1.96 -3.67 3.68 1.96 3.93 -7.34 3.67 1.97 1.97 -3.68 3.67 1.97 3.93 -7.34 3.68 1.97 3.93 -7.35 3.67 1.97 5.9 -11.02 3.68 1.97 1.96 -3.67 3.68 1.96 5.9 -11.01 -3.68 -1.97 1.97 -3.67 -3.67 -1.97 1.97 -3.67 3.67 1.97 1.97 -3.67 11.01 5.9 1.97 -3.67 3.67 1.96 3.94 -7.34 3.67 1.96 -5.9 11.02 -3.68 -1.97 -5.9 11.02 3.68 1.97 -5.91 11.01 3.67 1.97 -1.96 3.67 -1.97 3.67 3.67 1.97 -1.96 3.67 11.01 5.9 -1.97 3.68 7.35 3.93 -1.97 3.67 3.67 1.97 -3.93 7.34 3.67 1.97 -1.96 3.67 3.67 1.97 -1.97 3.67 3.67 1.97 -1.97 3.67 3.68 1.97 -1.97 3.67 3.67 1.97 -1.97 3.67 7.35 3.93 -1.97 3.67 3.67 1.97 -1.96 3.67 11.01 5.9 -1.97 3.68 7.35 3.93 1.97 -3.67 3.67 1.97 -1.97 3.67 3.67 1.96 -3.93 7.35 3.67 1.97 -1.97 3.67 3.68 1.96 -1.97 3.68 3.67 1.96 -1.97 3.68 3.68 1.96 -1.97 3.68 18.36 9.83 1.97 -3.67 7.34 3.93 1.97 -3.67 3.67 1.97 1.97 -3.67 3.67 1.96 1.97 -3.67 3.67 1.97 3.93 -7.35 3.67 1.97 3.94 -7.34 3.67 1.96 1.97 -3.67 3.67 1.97 1.97 -3.67 3.67 1.96 3.93 -7.34 3.67 1.97 3.94 -7.35 3.67 1.97 1.97 -3.67 7.34 3.93 3.93 -7.34 3.68 1.96 1.96 -3.67 3.68 1.97 3.93 -7.34 3.67 1.96 5.9 -11.01 3.67 1.97 1.97 -3.68 3.67 1.97 1.97 -3.67 7.34 3.93 1.97 -3.67 3.67 1.97 1.97 -3.67 3.67 1.96 1.97 -3.67 5.9 -11.02 1.97 -3.67 -3.67 -1.96 1.96 -3.68 -3.67 -1.96 5.9 -11.02 -3.67 -1.97 5.9 -11.01 7.35 3.93 -1.97 3.67 3.67 1.97 1.97 -3.67 14.69 7.87 -1.97 3.67 7.34 3.93 -1.97 3.67 7.35 3.94 -1.97 3.67 7.34 3.93 -1.96 3.68 29.37 15.73 -1.96 3.68 -3.67 -1.97 -1.97 3.67 -33.05 -17.7 -1.97 3.67 -11.01 -5.9 -1.97 3.67 -11.02 -5.9 -3.93 7.34 -7.87 14.69 -3.67 -1.97 -1.97 3.67 -3.67 -1.96 -3.93 7.34 -3.67 -1.97 -3.94 7.35 -3.67 -1.97 -3.94 7.35 -3.67 -1.97 -3.93 7.34 -3.67 -1.96 -1.97 3.67 -3.67 -1.97 -1.97 3.67 -3.67 -1.96 -3.93 7.34 -3.68 -1.97 -1.96 3.67 -3.68 -1.96 -1.96 3.67 3.67 1.97 -1.97 3.67 -1.96 3.67 3.67 1.97 -1.97 3.67 3.67 1.97 -3.93 7.34 3.67 1.97 -1.97 3.67 3.67 1.97 -3.93 7.34 3.67 1.97 -3.93 7.34 3.67 1.97 -1.97 3.67 7.35 3.93 -1.97 3.68 3.67 1.96 -1.96 3.68 3.67 1.96 -1.97 3.67 3.67 1.97 -1.96 3.67 3.67 1.97 -1.97 3.67 11.02 5.9 3.67 1.97 3.93 -7.34 -3.67 -1.97 3.93 -7.34 -3.67 -1.97 5.9 -11.02 -3.67 -1.96 1.97 -3.68 -3.67 -1.96 11.8 -22.04 -3.67 -1.96 1.96 -3.67 3.67 1.96 -1.96 3.67 3.67 1.97 -1.97 3.67 3.68 1.97 -3.94 7.35 3.67 1.96 -3.93 7.35 3.67 1.96 -9.83 18.36 3.67 1.97 -3.94 7.34 3.68 1.97 -1.97 3.67 3.67 1.97 -1.97 3.67 3.68 1.97 -1.97 3.67 3.67 1.97 -1.97 3.67 3.67 1.97 -1.96 3.67 3.67 1.96 -1.97 3.68 3.68 1.96 -3.94 7.35 3.67 1.97 -3.93 7.34 3.67 1.97 -1.97 3.67 3.68 1.97 -1.97 3.67 3.67 1.96 3.67 1.97 -1.96 3.67 3.67 1.97 -1.97 3.67 3.67 1.97 -1.96 3.67 3.67 1.97 -1.97 3.67 3.67 1.97 -1.96 3.67 3.67 1.97 1.96 -3.67 11.02 5.9 -1.97 3.67 -11.01 -5.9 -3.94 7.34 3.68 1.97 -1.97 3.67 3.67 1.97 -7.87 14.69 33.05 17.7 -1.97 3.67 10.12 5.42zm-3.66 17.81l-0.72 3.47 -0.88 -0.47 1.6 -3zm-65.43 441.38c0,2.39 0.01,4.77 0.03,7.12l-2.95 5.49 -7.34 -3.93 3.93 -7.35 3.68 1.97 1.96 -3.67 0.69 0.37zm-134.45 117l-3.67 -1.96 1.97 -3.67 3.67 1.96 -1.97 3.67 3.67 1.97 -1.96 3.67 -3.68 -1.97 1.97 -3.67zm-152.15 -1347.99l-3.67 -1.97 1.97 -3.67 3.67 1.97 -1.97 3.67zm48.28 668.56l-3.68 -1.97 1.97 -3.67 3.67 1.96 -1.96 3.68zm16.12 -109.51l-3.67 -1.96 1.97 -3.68 3.67 1.97 -1.97 3.67zm-80.39 -388.04l-3.68 -1.97 1.97 -3.67 3.67 1.97 -1.96 3.67zm0 264.64l-3.67 -1.97 3.93 -7.34 3.67 1.97 -3.93 7.34zm14.7 537.15l-3.67 -1.96 3.93 -7.35 3.67 1.97 -3.93 7.34zm-16.27 -481.28l-7.34 -3.94 1.96 -3.67 7.35 3.93 -1.97 3.68zm218.75 306.21l-7.35 -3.94 1.97 -3.67 7.34 3.93 -1.96 3.68zm-160.39 -194.61l-3.67 -1.97 3.93 -7.35 3.67 1.97 -3.93 7.35zm162.37 720.22l-3.68 -1.97 3.94 -7.34 3.67 1.96 -3.93 7.35zm59.66 -67.28l-7.34 -3.93 1.97 -3.67 7.34 3.93 -1.97 3.67zm-28.45 17.84l-3.68 -1.97 3.94 -7.34 3.67 1.96 -3.93 7.35zm-268.73 -848.09l-3.67 -1.96 3.93 -7.35 3.68 1.97 -3.94 7.34zm214.04 870.78l-3.67 -1.97 1.97 -3.67 -3.68 -1.97 1.97 -3.67 7.34 3.93 -3.93 7.35zm22.02 -517.49l-7.34 -3.93 1.97 -3.67 3.67 1.97 1.96 -3.68 3.68 1.97 -3.94 7.34zm-134.55 -251.65l-3.68 -1.97 1.97 -3.67 -3.67 -1.97 3.93 -7.34 3.68 1.96 -1.97 3.68 3.67 1.96 -3.93 7.35 3.67 1.96 -1.97 3.68 3.67 1.96 -1.96 3.67 -7.35 -3.93 -1.97 3.67 -3.67 -1.96 -3.93 7.34 3.67 1.97 -3.93 7.34 -3.68 -1.97 -9.83 18.36 -7.34 -3.93 9.83 -18.36 3.67 1.97 3.94 -7.35 -3.67 -1.96 3.93 -7.35 3.67 1.97 1.97 -3.67 3.67 1.96 1.97 -3.67 3.67 1.97 1.97 -3.67zm-5.26 -475.39l3.67 1.97 -3.93 7.34 3.67 1.97 -3.93 7.34 -3.67 -1.96 1.96 -3.68 -3.67 -1.96 3.93 -7.35 -3.67 -1.96 7.87 -14.69 3.67 1.96 -5.9 11.02zm-50.47 932.28l3.67 1.97 -1.96 3.67 7.34 3.94 -1.97 3.67 -14.69 -7.87 3.94 -7.34 -3.67 -1.97 1.96 -3.67 3.68 1.96 1.96 -3.67 3.67 1.97 -3.93 7.34zm-12.34 -885.59l-3.68 -1.97 -1.96 3.67 -3.67 -1.96 -1.97 3.67 -3.67 -1.97 -1.97 3.67 -3.67 -1.96 3.93 -7.35 3.67 1.97 5.9 -11.02 11.02 5.9 -3.93 7.35zm132.85 378.34l-7.34 -3.94 -3.94 7.35 7.35 3.93 3.93 -7.34zm-4.07 -451.13l3.67 1.97 -1.97 3.67 -3.67 -1.97 -3.94 7.35 -11.01 -5.9 3.93 -7.35 -3.67 -1.96 1.97 -3.67 3.67 1.96 1.97 -3.67 11.01 5.9 -1.96 3.67zm-57.17 706.59l7.34 3.94 1.97 -3.68 -3.67 -1.96 1.97 -3.68 -3.67 -1.96 -3.94 7.34zm35.79 -675.51l-3.67 -1.96 -3.94 7.34 -7.34 -3.93 7.87 -14.69 3.67 1.97 3.93 -7.35 3.68 1.97 1.96 -3.67 3.67 1.96 -9.83 18.36zm-57.43 583.58l3.67 1.97 -11.8 22.03 -3.67 -1.97 -3.94 7.35 -3.67 -1.97 17.71 -33.05 3.67 1.97 -1.97 3.67zm144.79 682.46l7.35 3.93 -1.97 3.67 -3.67 -1.97 -1.97 3.68 -3.67 -1.97 -1.97 3.67 3.67 1.97 -3.93 7.34 -7.34 -3.93 -5.91 11.01 -3.67 -1.96 -1.96 3.67 -3.68 -1.97 -1.96 3.67 -3.67 -1.96 5.9 -11.02 3.67 1.97 1.97 -3.67 -3.68 -1.97 1.97 -3.67 -3.67 -1.97 3.93 -7.34 3.67 1.96 1.97 -3.67 -3.67 -1.97 1.97 -3.67 -3.67 -1.96 3.93 -7.35 3.67 1.97 -1.97 3.67 3.68 1.97 1.96 -3.67 14.69 7.86 -1.97 3.68zm59.28 -119.47l7.34 3.93 -3.93 7.34 3.67 1.97 -3.94 7.34 -7.34 -3.93 -9.83 18.36 -18.36 -9.83 3.93 -7.35 -3.67 -1.97 5.9 -11.01 3.67 1.97 1.97 -3.68 3.67 1.97 1.97 -3.67 3.67 1.96 3.93 -7.34 3.68 1.97 1.96 -3.67 3.67 1.96 -1.96 3.68zm84.18 -739.38l-1.97 3.67 3.67 1.97 1.97 -3.67 -3.67 -1.97zm-1.71 -5.64l-1.97 3.67 3.68 1.97 1.96 -3.67 -3.67 -1.97zm0 0l1.97 -3.67 -3.67 -1.97 -1.97 3.68 3.67 1.96zm-235.14 -55.07l-3.67 -1.97 1.97 -3.67 -3.67 -1.97 -11.8 22.03 3.67 1.97 5.9 -11.02 3.67 1.97 3.93 -7.34zm-36.58 306.47l-3.67 -1.96 -1.97 3.67 3.67 1.97 1.97 -3.68zm19.41 -27.4l3.67 1.96 3.94 -7.34 -3.68 -1.97 -3.93 7.35zm186.23 799.17l3.68 1.96 5.9 -11.01 3.67 1.96 3.93 -7.34 -3.67 -1.97 1.97 -3.67 -3.67 -1.97 -11.81 22.04 -3.67 -1.97 3.94 -7.35 -3.68 -1.96 5.91 -11.02 -3.68 -1.97 1.97 -3.67 -7.34 -3.93 1.96 -3.67 -7.34 -3.94 1.97 -3.67 -7.35 -3.93 -1.96 3.67 -3.68 -1.97 -5.9 11.02 7.35 3.93 -1.97 3.67 3.67 1.97 -1.96 3.67 3.67 1.97 -1.97 3.67 3.67 1.97 -3.93 7.34 3.67 1.97 -1.97 3.67 3.67 1.97 -1.96 3.67 7.34 3.93 1.97 -3.67 3.67 1.97 3.93 -7.34zm5.25 -53.9l-3.93 7.34 3.67 1.97 3.93 -7.35 -3.67 -1.96zm0 0l1.97 -3.68 -3.68 -1.96 -1.96 3.67 3.67 1.97zm-248.65 -303.33l3.67 1.97 11.81 -22.03 -3.68 -1.97 -1.96 3.67 -3.68 -1.97 -3.93 7.35 3.67 1.97 -5.9 11.01z"/>
  <path id="crown" class="fil0 str0" d="M719.53 255.51c23.7,38.34 18.63,153.52 18.52,203.33 -0.24,95.42 -10.93,294.82 -78.59,352.64 -60.02,-0.05 -68.7,-14.39 -135.05,11.72 -146.56,57.68 -64.24,118.44 -236.07,29.88 -64.04,-33.01 -100.51,-18.2 -166.68,-15.78 -73.21,-131.5 -97.56,-306.9 -114.54,-474.59 -7.54,-74.44 -25.93,-208.45 50.24,-238.99 152.14,-60.98 259.35,-182.78 396.22,-90.04 27.91,18.92 52.64,45.31 74.8,68.59 38.68,40.62 181.4,137.48 191.15,153.24zm1.64 410.27c-1.86,10.11 -3.92,20.06 -6.2,29.76l-1.69 -0.91 1.97 -3.67 -3.68 -1.97 5.9 -11.01 -3.67 -1.97 5.9 -11.02 1.47 0.79zm-8.33 38.49c-1.74,6.9 -3.6,13.65 -5.59,20.21l-0.4 -0.21 -1.96 3.67 -3.67 -1.96 -3.94 7.34 -3.67 -1.97 -3.94 7.35 -3.67 -1.97 -3.93 7.34 -3.67 -1.96 -3.94 7.34 -3.67 -1.97 -1.97 3.67 -3.67 -1.96 -1.97 3.67 -3.67 -1.97 -3.93 7.35 -3.67 -1.97 -1.97 3.67 -3.67 -1.97 -1.97 3.68 3.67 1.96 -1.97 3.68 -1.96 3.67 3.67 1.96 -1.97 3.68 3.68 1.96 -3.94 7.35 3.67 1.97 -1.96 3.67 3.67 1.96 -3.94 7.35 3.68 1.96 -3.94 7.35 2.14 1.14c-5.98,-0.18 -11.42,-0.49 -16.47,-0.86l9.22 -17.2 -3.68 -1.97 3.94 -7.34 -3.67 -1.97 3.93 -7.34 -3.67 -1.97 1.97 -3.67 -3.67 -1.97 1.96 -3.67 -3.67 -1.97 -3.93 7.35 -3.68 -1.97 -1.96 3.67 -3.68 -1.96 -1.96 3.67 -3.67 -1.97 -1.97 3.67 -3.67 -1.96 -7.87 14.68 -3.67 -1.96 -1.97 3.67 7.34 3.93 -1.96 3.68 7.34 3.93 -4.43 8.27c-2.5,-0.19 -4.96,-0.34 -7.43,-0.45l-16.07 -8.61 1.96 -3.67 -3.67 -1.97 1.97 -3.67 -7.35 -3.93 -1.96 3.67 -3.67 -1.97 -1.97 3.67 -3.67 -1.96 -1.97 3.67 -3.67 -1.97 -7.35 -3.93 -11.01 -5.9 3.93 -7.35 -3.67 -1.96 1.97 -3.68 -3.68 -1.96 3.94 -7.35 3.67 1.97 3.93 -7.34 -3.67 -1.97 1.97 -3.67 -3.67 -1.97 1.97 -3.67 -7.35 -3.94 1.97 -3.67 -18.36 -9.83 1.97 -3.68 -3.68 -1.96 -14.68 -7.87 -1.97 3.67 -7.34 -3.93 3.93 -7.35 3.67 1.97 1.97 -3.67 -3.67 -1.97 1.96 -3.67 -3.67 -1.97 1.97 -3.67 -7.35 -3.93 1.97 -3.68 -3.67 -1.96 1.97 -3.67 -7.35 -3.94 1.97 -3.67 -3.67 -1.97 -1.97 3.67 -3.67 -1.96 -3.94 7.34 -3.67 -1.96 1.97 -3.68 -7.34 -3.93 1.96 -3.67 -3.67 -1.97 -1.97 3.67 -11.01 -5.9 -1.97 3.67 -11.02 -5.9 -1.96 3.67 -3.67 -1.96 -1.97 3.67 -7.35 -3.94 -1.96 3.68 -7.35 -3.94 -1.96 3.67 -7.35 -3.93 -1.96 3.67 -3.68 -1.97 1.97 -3.67 3.67 1.97 1.97 -3.67 3.67 1.97 1.97 -3.68 3.67 1.97 1.97 -3.67 3.67 1.96 1.97 -3.67 7.34 3.94 1.97 -3.68 3.67 1.97 3.93 -7.34 3.68 1.96 1.96 -3.67 3.68 1.97 3.93 -7.34 3.67 1.96 3.94 -7.34 3.67 1.97 5.9 -11.02 3.67 1.97 1.97 -3.68 3.67 1.97 5.9 -11.01 -3.67 -1.97 1.97 -3.67 -3.68 -1.97 1.97 -3.67 3.67 1.97 1.97 -3.68 11.01 5.9 1.97 -3.67 3.67 1.97 3.94 -7.34 3.67 1.96 -5.9 11.02 -3.67 -1.97 -5.9 11.02 3.67 1.97 -5.9 11.01 3.67 1.97 -1.97 3.67 -1.97 3.67 3.68 1.97 -1.97 3.67 11.01 5.9 -1.96 3.67 7.34 3.94 -1.96 3.67 3.67 1.97 -3.94 7.34 3.68 1.97 -1.97 3.67 3.67 1.97 -1.97 3.67 3.68 1.97 -1.97 3.67 3.67 1.97 -1.97 3.67 3.68 1.96 -1.97 3.68 7.34 3.93 -1.97 3.67 3.68 1.97 -1.97 3.67 11.02 5.9 -1.97 3.67 7.34 3.94 1.97 -3.67 3.67 1.96 -1.96 3.68 3.67 1.96 -3.94 7.35 3.67 1.96 -1.96 3.68 3.67 1.96 -1.97 3.67 3.67 1.97 -1.96 3.67 3.67 1.97 -1.97 3.67 18.36 9.84 1.97 -3.67 7.34 3.93 1.97 -3.67 3.67 1.96 1.97 -3.67 3.67 1.97 1.97 -3.67 3.67 1.96 3.93 -7.34 3.68 1.97 3.93 -7.35 3.67 1.97 1.97 -3.67 3.67 1.97 1.97 -3.68 3.67 1.97 3.93 -7.34 3.68 1.96 3.93 -7.34 3.67 1.97 1.97 -3.67 7.34 3.93 3.94 -7.34 3.67 1.96 1.97 -3.67 3.67 1.97 3.93 -7.35 3.68 1.97 5.9 -11.01 3.67 1.96 1.97 -3.67 3.67 1.97 1.96 -3.68 7.35 3.94 1.96 -3.67 3.68 1.96 1.96 -3.67 3.68 1.97 1.96 -3.67 3.76 -7.02zm-85.04 105.82c-6.53,-0.54 -12.42,-1.15 -18.02,-1.64l1.61 -3 3.67 1.97 3.93 -7.35 7.34 3.94 -1.96 3.67 3.67 1.96 -0.24 0.45zm-185.42 60.77c-5.79,4.98 -10.57,9.48 -14.94,13.32l10.84 -20.24 3.67 1.97 -1.96 3.67 2.39 1.28zm-45.83 26.87c-3.85,-0.15 -8.14,-0.81 -13.08,-2.05l1.83 -3.41 3.67 1.96 3.94 -7.34 3.67 1.97 3.93 -7.35 3.67 1.97 1.97 -3.67 3.67 1.96 1.97 -3.67 3.67 1.97 -1.97 3.67 3.68 1.97 -3.94 7.34 -7.34 -3.93 -1.97 3.67 -3.67 -1.97 -3.7 6.91zm-375.97 -418.22l-0.03 -0.24 1.87 -3.5 62.43 33.44 1.97 -3.67 36.72 19.67 -1.97 3.67 3.67 1.97 -1.97 3.67 3.67 1.97 -3.93 7.34 3.67 1.97 -1.96 3.67 11.01 5.9 1.97 -3.67 1.97 -3.67 3.67 1.96 11.8 -22.03 3.67 1.97 1.97 -3.67 1.97 -3.67 7.34 3.93 1.97 -3.67 3.67 1.96 1.97 -3.67 7.34 3.94 1.97 -3.68 7.34 3.94 1.97 -3.67 3.67 1.96 1.97 -3.67 7.34 3.94 1.97 -3.68 3.67 1.97 1.97 -3.67 3.67 1.97 1.97 -3.68 3.67 1.97 1.97 -3.67 3.67 1.97 1.97 -3.68 3.67 1.97 -3.94 7.35 -3.67 -1.97 -1.97 3.67 -3.67 -1.97 -1.96 3.67 -3.68 -1.96 -1.96 3.67 -3.68 -1.97 -1.96 3.68 -3.68 -1.97 -1.96 3.67 -3.67 -1.97 -1.97 3.68 -7.35 -3.94 -1.96 3.67 -3.67 -1.96 -1.97 3.67 -7.35 -3.94 -1.96 3.68 -3.68 -1.97 -1.96 3.67 -3.67 -1.97 -1.97 3.68 -3.67 -1.97 -11.8 22.03 -3.68 -1.97 -7.86 14.69 3.67 1.97 -1.97 3.67 3.67 1.97 -1.96 3.67 3.67 1.97 -3.94 7.34 3.67 1.97 -1.96 3.67 3.67 1.97 -1.97 3.67 7.35 3.93 -1.97 3.67 3.67 1.97 -1.96 3.67 7.34 3.94 -1.97 3.67 3.67 1.97 -1.96 3.67 7.34 3.93 -1.97 3.67 3.68 1.97 -1.97 3.67 -18.36 -9.83 1.97 -3.67 -7.35 -3.94 1.97 -3.67 -11.02 -5.9 1.97 -3.67 -3.67 -1.97 1.96 -3.67 -3.67 -1.97 1.97 -3.67 -3.67 -1.97 1.96 -3.67 -7.34 -3.93 1.97 -3.68 -3.67 -1.96 3.93 -7.35 -3.67 -1.96 1.97 -3.68 -3.68 -1.96 3.94 -7.35 -3.68 -1.96 1.97 -3.68 -3.67 -1.96 1.97 -3.68 -3.67 -1.96 3.93 -7.35 -7.34 -3.93 1.96 -3.67 -33.05 -17.71 -1.96 3.68 -25.71 -13.77 1.97 -3.67 -7.34 -3.94 -1.97 3.67 -18.36 -9.83 1.97 -3.67 -3.67 -1.97 1.96 -3.67 -7.22 -3.87zm-0.97 -7.31l-0.37 -2.86 1.48 0.79 -1.11 2.07zm535.09 -346.07c4.15,3.46 8.55,7.05 13.15,10.74l-6.97 13.01 -3.67 -1.97 -3.93 7.34 3.67 1.97 -11.8 22.03 -3.67 -1.96 -13.77 25.7 -3.68 -1.97 -1.96 3.67 3.67 1.97 -3.94 7.35 3.68 1.96 -1.97 3.67 11.02 5.9 -1.97 3.68 3.67 1.96 1.97 -3.67 7.34 3.93 -1.97 3.68 -3.67 -1.97 -3.93 7.35 3.67 1.96 -1.97 3.67 3.68 1.97 -1.97 3.67 3.67 1.97 -1.97 3.67 7.35 3.94 -1.97 3.67 7.34 3.93 -1.96 3.67 3.67 1.97 -1.97 3.67 -7.34 -3.93 1.96 -3.67 -11.01 -5.9 1.97 -3.68 -7.35 -3.93 1.97 -3.67 -3.67 -1.97 1.96 -3.67 -7.34 -3.94 1.97 -3.67 -7.35 -3.93 1.97 -3.67 -7.34 -3.94 1.96 -3.67 -7.34 -3.93 1.97 -3.68 -3.68 -1.96 1.97 -3.68 -7.34 -3.93 -1.97 3.67 -3.67 -1.96 -1.97 3.67 -3.67 -1.97 -1.97 3.67 -3.67 -1.96 -1.97 3.67 -3.67 -1.97 -3.93 7.35 -3.67 -1.97 -3.94 7.34 -3.67 -1.96 -3.93 7.34 -3.68 -1.97 -1.96 3.67 -3.67 -1.96 -1.97 3.67 -7.35 -3.94 -1.96 3.68 -3.68 -1.97 -3.93 7.34 -3.67 -1.96 -3.94 7.34 3.68 1.97 -3.94 7.34 -3.67 -1.97 -1.97 3.68 3.67 1.96 -1.96 3.68 3.67 1.96 -3.93 7.35 3.67 1.96 -1.97 3.68 3.67 1.96 -1.96 3.67 3.67 1.97 -3.94 7.35 3.68 1.96 -3.94 7.35 3.67 1.96 -1.96 3.68 -1.97 3.67 3.67 1.97 -5.9 11.01 7.34 3.93 -1.96 3.68 11.01 5.9 -3.93 7.34 3.67 1.97 -5.9 11.01 3.67 1.97 -1.97 3.67 3.68 1.97 -3.94 7.34 3.67 1.97 -1.96 3.67 11.01 5.9 -1.96 3.68 3.67 1.96 -1.97 3.68 7.35 3.93 -1.97 3.67 -7.35 -3.93 1.97 -3.67 -7.34 -3.94 1.96 -3.67 -18.35 -9.84 -1.97 3.68 -3.67 -1.97 -1.97 3.67 -3.67 -1.97 -1.97 3.68 -3.67 -1.97 -1.97 3.67 -3.67 -1.97 -3.94 7.35 -3.67 -1.97 -1.96 3.67 3.67 1.97 -3.94 7.34 3.67 1.97 -3.93 7.35 3.67 1.96 -1.96 3.67 3.67 1.97 -3.94 7.35 3.68 1.96 -1.97 3.67 3.67 1.97 -7.87 14.69 7.35 3.93 -1.97 3.67 18.36 9.84 1.97 -3.67 14.69 7.87 1.96 -3.68 18.36 9.84 -1.97 3.67 -3.67 -1.97 -1.97 3.68 -3.67 -1.97 -1.96 3.67 -7.35 -3.93 1.97 -3.67 -3.67 -1.97 -1.97 3.67 -7.34 -3.93 -1.97 3.67 -3.67 -1.97 -5.9 11.02 -3.68 -1.97 3.94 -7.34 -3.67 -1.97 1.96 -3.67 -18.36 -9.84 -1.96 3.67 -3.68 -1.96 -1.96 3.67 -3.67 -1.97 -1.97 3.67 3.67 1.97 -3.93 7.34 3.67 1.97 -5.9 11.02 3.67 1.97 -9.84 18.35 3.68 1.97 -5.91 11.02 3.68 1.96 -3.94 7.35 3.67 1.97 -3.93 7.34 3.67 1.97 -1.96 3.67 3.67 1.97 -23.61 44.06 3.68 1.97 -7.87 14.68 3.67 1.97 -3.94 7.35 3.68 1.96 -9.84 18.36 3.67 1.97 -7.86 14.69 -3.94 7.34 11.02 5.9 -1.97 3.67 -7.34 -3.93 -3.94 7.34 3.67 1.97 -5.9 11.02 -3.67 -1.97 1.97 -3.67 -3.67 -1.97 1.96 -3.67 -7.34 -3.93 -1.97 3.67 -11.01 -5.9 -1.97 3.67 3.67 1.97 -1.97 3.67 7.35 3.93 -1.97 3.67 7.35 3.94 -1.97 3.67 7.34 3.93 1.97 -3.67 3.67 1.97 -3.93 7.34 -3.68 -1.97 -3.93 7.35 3.67 1.97 -1.96 3.67 3.67 1.97 -1.97 3.67 7.34 3.93 -1.96 3.67 3.67 1.97 -3.93 7.34 3.67 1.97 -1.97 3.67 3.67 1.97 -1.96 3.67 7.34 3.94 -1.97 3.67 25.71 13.77 -1.97 3.67 7.34 3.93 -1.96 3.68 -25.71 -13.77 1.97 -3.68 -14.69 -7.86 1.97 -3.67 -14.69 -7.87 -1.97 3.67 -3.67 -1.97 -3.93 7.35 -3.68 -1.97 -7.86 14.69 -3.68 -1.97 -3.93 7.34 -3.67 -1.96 -1.97 3.67 -3.67 -1.97 1.97 -3.67 3.67 1.97 5.9 -11.02 3.67 1.97 7.87 -14.69 3.67 1.97 1.97 -3.68 3.67 1.97 1.97 -3.67 3.67 1.97 1.97 -3.68 3.67 1.97 3.93 -7.34 -3.67 -1.97 1.97 -3.67 -7.35 -3.93 1.97 -3.68 -11.01 -5.9 1.96 -3.67 3.68 1.97 3.93 -7.35 -3.67 -1.96 1.96 -3.68 -3.67 -1.96 1.97 -3.68 -7.35 -3.93 1.97 -3.67 -7.34 -3.94 1.96 -3.67 -7.34 -3.93 1.97 -3.67 -3.67 -1.97 -1.97 3.67 -7.34 -3.93 -1.97 3.67 -11.02 -5.9 -1.96 3.67 -11.02 -5.9 -7.34 -3.94 -1.97 3.68 -3.67 -1.97 -1.97 3.67 -3.67 -1.97 -1.97 3.68 -7.34 -3.94 3.93 -7.34 3.67 1.97 1.97 -3.68 3.67 1.97 1.97 -3.67 3.67 1.97 3.93 -7.35 3.68 1.97 1.96 -3.67 3.68 1.96 1.96 -3.67 3.67 1.97 3.94 -7.35 3.67 1.97 1.97 -3.67 3.67 1.97 3.93 -7.35 3.68 1.97 1.96 -3.67 3.67 1.96 1.97 -3.67 -3.67 -1.96 1.97 -3.68 -11.02 -5.9 1.97 -3.67 14.69 7.87 1.96 -3.67 3.67 1.96 1.97 -3.67 -3.67 -1.96 1.97 -3.68 -3.68 -1.96 1.97 -3.68 -11.01 -5.9 1.96 -3.67 -11.01 -5.9 1.96 -3.67 -3.67 -1.97 1.97 -3.67 11.02 5.9 3.93 -7.34 7.34 3.93 5.9 -11.02 -3.67 -1.96 -1.97 3.67 -11.01 -5.9 -1.97 3.67 -25.7 -13.77 1.97 -3.67 -7.35 -3.94 -1.97 3.68 -3.67 -1.97 -1.96 3.67 -3.68 -1.97 -1.96 3.68 -7.35 -3.94 -3.93 7.35 -3.67 -1.97 -3.94 7.34 -3.67 -1.96 -9.84 18.36 -7.34 -3.94 5.9 -11.01 3.67 1.96 5.91 -11.01 3.67 1.96 1.96 -3.67 3.68 1.97 3.93 -7.34 3.67 1.96 3.94 -7.34 3.67 1.97 5.9 -11.02 -3.67 -1.97 1.96 -3.67 -3.67 -1.97 3.94 -7.34 3.67 1.97 -1.97 3.67 3.67 1.96 -3.93 7.35 11.02 5.9 1.96 -3.67 3.68 1.97 -1.97 3.67 7.34 3.93 -1.97 3.67 18.36 9.84 1.97 -3.67 7.35 3.93 1.96 -3.67 3.67 1.97 1.97 -3.68 3.67 1.97 1.97 -3.67 7.34 3.93 1.97 -3.67 7.35 3.94 1.96 -3.68 7.35 3.94 1.96 -3.68 3.68 1.97 19.67 -36.72 -3.68 -1.96 3.94 -7.35 -3.67 -1.97 1.96 -3.67 -3.67 -1.96 9.84 -18.36 -3.68 -1.97 5.91 -11.02 -3.68 -1.96 3.94 -7.35 -11.02 -5.9 -1.96 3.67 -3.68 -1.96 -1.96 3.67 -14.69 -7.87 -1.97 3.67 -3.67 -1.97 -1.97 3.68 -3.67 -1.97 3.93 -7.34 3.68 1.96 1.96 -3.67 11.02 5.9 1.96 -3.67 7.35 3.93 1.97 -3.67 7.34 3.94 1.97 -3.68 3.67 1.97 3.93 -7.34 3.68 1.96 1.96 -3.67 3.67 1.97 5.91 -11.02 -3.68 -1.96 3.94 -7.35 -3.67 -1.96 5.9 -11.02 -3.68 -1.97 3.94 -7.34 -3.67 -1.97 1.97 -3.67 -3.68 -1.97 1.97 -3.67 3.93 -7.34 -3.67 -1.97 7.87 -14.69 3.67 1.97 1.97 -3.67 7.34 3.93 3.94 -7.34 3.67 1.96 1.96 -3.67 7.35 3.94 1.97 -3.68 -3.68 -1.96 7.87 -14.69 -3.67 -1.97 5.9 -11.01 -11.01 -5.91 1.96 -3.67 -7.34 -3.93 1.97 -3.67 1.96 -3.68 -3.67 -1.96 7.87 -14.69 -3.67 -1.97 3.93 -7.34 -3.67 -1.97 3.93 -7.34 -3.67 -1.97 1.97 -3.67 -3.67 -1.97 1.96 -3.67 -3.67 -1.97 1.97 -3.67 -7.35 -3.93 -1.96 3.67 -3.67 -1.97 -3.94 7.35 -7.34 -3.94 3.93 -7.34 3.67 1.96 3.94 -7.34 3.67 1.97 3.93 -7.35 3.68 1.97 13.76 -25.7 3.68 1.96 1.96 -3.67 7.35 3.94 1.97 -3.68 3.67 1.97 3.93 -7.34 3.67 1.96 1.97 -3.67 3.67 1.97 1.97 -3.67 3.67 1.96 1.97 -3.67 3.67 1.97 3.93 -7.34 3.68 1.96 3.93 -7.34 3.67 1.96 1.97 -3.67 7.34 3.94 1.97 -3.67 3.67 1.96 7.87 -14.69 3.67 1.97 25.57 -47.73 3.68 1.96 7.87 -14.69 3.67 1.97 2.6 -4.86zm-74.34 103.48l-3.67 -1.97 1.97 -3.67 3.67 1.97 -1.97 3.67zm-181.49 224.12l-3.67 -1.96 1.97 -3.67 3.67 1.96 -1.97 3.67zm43.02 193.17l-3.67 -1.96 1.96 -3.68 3.67 1.97 -1.96 3.67zm200.77 -445.35l-3.68 -1.97 1.97 -3.67 3.67 1.96 -1.96 3.68zm-151.73 27.41l-3.68 -1.97 1.97 -3.67 3.67 1.97 -1.96 3.67zm64.4 559.05l-3.67 -1.97 1.96 -3.67 3.67 1.97 -1.96 3.67zm-80.4 -388.04l-3.67 -1.97 1.97 -3.67 3.67 1.96 -1.97 3.68zm0 264.64l-3.67 -1.97 3.94 -7.34 3.67 1.96 -3.94 7.35zm-1.57 55.86l-7.34 -3.93 1.97 -3.67 7.34 3.93 -1.97 3.67zm-110.81 -101.89l-7.35 -3.94 1.97 -3.67 7.34 3.94 -1.96 3.67zm169.17 213.49l-3.67 -1.96 3.94 -7.35 3.67 1.97 -3.94 7.34zm-75.14 -177.3l-3.68 -1.96 3.94 -7.35 3.67 1.97 -3.93 7.34zm-110.96 -428.04l-3.67 -1.97 1.97 -3.67 -3.67 -1.97 1.96 -3.67 7.35 3.94 -3.94 7.34zm-75.26 422.8l3.67 1.97 -1.97 3.67 -7.34 -3.94 3.93 -7.34 3.67 1.97 -1.96 3.67zm145.16 -191.6l-3.67 -1.97 -1.96 3.68 -3.68 -1.97 3.94 -7.35 7.34 3.94 -1.97 3.67zm-22.03 -11.8l-11.01 -5.9 1.96 -3.67 11.02 5.9 -1.97 3.67zm164.59 310.27l-3.67 -1.96 1.97 -3.68 -3.68 -1.96 3.94 -7.35 3.67 1.97 -1.97 3.67 3.67 1.97 -3.93 7.34 3.67 1.97 -1.96 3.67 3.67 1.97 -1.97 3.67 -7.34 -3.93 -1.97 3.67 -3.67 -1.97 -3.94 7.35 3.68 1.96 -3.94 7.35 -3.67 -1.97 -9.84 18.36 -7.34 -3.93 9.83 -18.36 3.68 1.96 3.93 -7.34 -3.67 -1.97 3.93 -7.34 3.67 1.97 1.97 -3.68 3.67 1.97 1.97 -3.67 3.67 1.97 1.97 -3.68zm-274.48 18.37l1.97 -3.67 -3.67 -1.97 3.93 -7.34 7.35 3.93 -1.97 3.67 3.67 1.97 -7.87 14.69 -3.67 -1.97 -1.97 3.67 -3.67 -1.96 5.9 -11.02zm151.07 -467.26l-3.67 -1.97 -1.97 3.68 -11.02 -5.9 1.97 -3.68 7.34 3.94 1.97 -3.67 7.35 3.93 -1.97 3.67zm-53.9 127.08l-18.36 -9.84 1.97 -3.67 18.36 9.84 -1.97 3.67zm-91.66 276.97l-3.67 -1.97 1.96 -3.67 -3.67 -1.97 1.97 -3.67 -3.67 -1.97 1.96 -3.67 -3.67 -1.97 3.94 -7.34 -3.68 -1.97 1.97 -3.67 -3.67 -1.96 1.97 -3.68 -3.67 -1.96 1.96 -3.68 -3.67 -1.96 1.97 -3.68 11.01 5.91 -1.96 3.67 7.34 3.93 5.9 -11.01 7.35 3.93 -1.97 3.67 3.67 1.97 -1.97 3.67 -3.67 -1.97 -3.93 7.35 3.67 1.96 -1.97 3.68 3.67 1.96 -3.93 7.35 3.67 1.97 -1.96 3.67 3.67 1.96 -5.91 11.02 3.68 1.97 -3.94 7.34 3.68 1.97 -7.87 14.69 3.67 1.96 -7.87 14.69 -3.67 -1.97 1.97 -3.67 -3.68 -1.96 5.9 -11.02 -3.67 -1.97 3.94 -7.34 -3.67 -1.97 1.96 -3.67 -3.67 -1.97 1.97 -3.67 -3.67 -1.97 3.93 -7.34zm263.72 -430.54l3.67 1.97 -3.94 7.34 3.68 1.97 -3.94 7.34 -3.67 -1.97 1.97 -3.67 -3.68 -1.97 3.94 -7.34 -3.67 -1.97 7.87 -14.68 3.67 1.96 -5.9 11.02zm-142.81 240.12l-3.67 -1.97 -1.97 3.67 -7.34 -3.93 5.9 -11.01 3.67 1.96 1.97 -3.67 7.34 3.93 -5.9 11.02zm79.99 -193.43l-3.67 -1.97 -1.97 3.67 -3.67 -1.97 -1.97 3.68 -3.67 -1.97 -1.97 3.67 -3.67 -1.97 3.94 -7.34 3.67 1.97 5.9 -11.02 11.01 5.9 -3.93 7.35zm132.85 378.33l-7.34 -3.93 -3.93 7.34 7.34 3.94 3.93 -7.35zm-4.07 -451.12l3.67 1.97 -1.97 3.67 -3.67 -1.97 -3.93 7.35 -11.02 -5.9 3.94 -7.35 -3.67 -1.97 1.96 -3.67 3.67 1.97 1.97 -3.67 11.02 5.9 -1.97 3.67zm-21.38 31.08l-3.67 -1.97 -3.93 7.35 -7.35 -3.94 7.87 -14.68 3.67 1.96 3.94 -7.34 3.67 1.97 1.97 -3.68 3.67 1.97 -9.84 18.36zm-141.62 396.7l-3.67 -1.96 -5.9 11.01 11.01 5.9 -7.87 14.69 -3.67 -1.96 1.97 -3.68 -3.67 -1.96 1.96 -3.67 -3.67 -1.97 1.97 -3.67 -3.67 -1.97 -3.94 7.34 -3.67 -1.96 -1.97 3.67 -7.34 -3.94 3.93 -7.34 3.68 1.97 1.96 -3.68 -3.67 -1.96 3.93 -7.35 3.68 1.97 1.96 -3.67 3.68 1.97 5.9 -11.02 11.01 5.9 -3.93 7.34zm135.6 -50.22l-3.67 -1.97 1.96 -3.67 -3.67 -1.97 -11.8 22.03 3.67 1.97 5.9 -11.02 3.67 1.97 3.94 -7.34zm-201.96 24.13l-3.67 -1.97 -1.97 3.67 -7.34 -3.93 -1.97 3.67 -3.67 -1.96 -1.97 3.67 -3.67 -1.97 -1.97 3.67 -3.67 -1.97 -1.97 3.68 -3.67 -1.97 -1.97 3.67 11.02 5.9 1.97 -3.67 11.01 5.9 1.97 -3.67 3.67 1.97 7.87 -14.69zm48.92 -82.49l-3.68 -1.97 -5.9 11.02 3.67 1.97 5.91 -11.02z"/>
 </g>
</svg>
