<!-- Creator: CorelDRAW (Versión de evaluación) -->
<svg xmlns="http://www.w3.org/2000/svg" xml:space="preserve" width="446px" height="2062px" version="1.1" style="shape-rendering:geometricPrecision; text-rendering:geometricPrecision; image-rendering:optimizeQuality; fill-rule:evenodd; clip-rule:evenodd"
viewBox="0 0 446 2060.93"
 xmlns:xlink="http://www.w3.org/1999/xlink"
 xmlns:xodm="http://www.corel.com/coreldraw/odm/2003">
 <defs>
  <style type="text/css">
   <![CDATA[
    .fil2 {fill:#4B4B4D}
    .fil0 {fill:#EDEAE0}
    .fil1 {fill:#F2E6C9}
   ]]>
  </style>
 </defs>
 <g id="fissure-full">
  <metadata id="CorelCorpID_0Corel-Layer"/>
  <polygon id="crown" class="fil0" points="251.52,1322.83 262.31,1322.83 262.31,1326.43 273.1,1326.43 273.1,1330.03 276.69,1330.03 276.69,1333.62 283.89,1333.62 283.89,1337.22 291.08,1337.22 291.08,1340.82 294.68,1340.82 294.68,1344.41 298.27,1344.41 298.27,1348.01 305.47,1348.01 305.47,1351.61 309.06,1351.61 309.06,1355.2 312.66,1355.2 312.66,1362.4 316.26,1362.4 316.26,1366 319.85,1366 319.85,1369.59 323.45,1369.59 323.45,1376.79 327.05,1376.79 327.05,1380.38 330.64,1380.38 330.64,1387.58 334.24,1387.58 334.24,1394.77 337.84,1394.77 337.84,1398.37 341.43,1398.37 341.43,1405.56 345.03,1405.56 345.03,1416.35 348.63,1416.35 348.63,1423.54 352.22,1423.54 352.22,1434.33 355.82,1434.33 355.82,1445.12 359.42,1445.12 359.42,1452.32 363.01,1452.32 363.01,1463.11 366.61,1463.11 366.61,1473.9 370.21,1473.9 370.21,1488.29 373.8,1488.29 373.8,1502.67 377.4,1502.67 377.4,1517.06 381,1517.06 381,1531.45 384.59,1531.45 384.59,1545.83 388.19,1545.83 388.19,1560.22 391.79,1560.22 391.79,1578.21 395.38,1578.21 395.38,1599.79 398.98,1599.79 398.98,1610.58 402.58,1610.58 402.58,1628.56 406.17,1628.56 406.17,1646.54 409.77,1646.54 409.77,1668.12 413.37,1668.12 413.37,1696.9 416.96,1696.9 416.96,1718.48 420.56,1718.48 420.56,1869.54 416.96,1869.54 416.96,1880.33 413.37,1880.33 413.37,1898.31 409.77,1898.31 409.77,1905.51 406.17,1905.51 406.17,1916.3 402.58,1916.3 402.58,1919.89 398.98,1919.89 398.98,1923.49 395.38,1923.49 395.38,1927.09 391.79,1927.09 391.79,1930.68 388.19,1930.68 388.19,1937.88 381,1937.88 381,1941.48 377.4,1941.48 377.4,1945.07 370.21,1945.07 370.21,1948.67 359.42,1948.67 359.42,1952.27 352.22,1952.27 352.22,1955.86 341.43,1955.86 341.43,1959.46 330.64,1959.46 330.64,1963.06 319.85,1963.06 319.85,1966.65 305.47,1966.65 305.47,1970.25 283.89,1970.25 283.89,1973.85 265.9,1973.85 265.9,1977.44 107.64,1977.44 107.64,1973.85 86.06,1973.85 86.06,1970.25 75.27,1970.25 75.27,1966.65 64.48,1966.65 64.48,1963.06 57.29,1963.06 57.29,1959.46 50.09,1959.46 50.09,1955.86 42.9,1955.86 42.9,1952.27 39.3,1952.27 39.3,1945.07 35.71,1945.07 35.71,1937.88 32.11,1937.88 32.11,1927.09 28.51,1927.09 28.51,1916.3 24.92,1916.3 24.92,1876.73 21.32,1876.73 21.32,1808.39 24.92,1808.39 24.92,1761.64 28.51,1761.64 28.51,1743.65 32.11,1743.65 32.11,1711.28 35.71,1711.28 35.71,1682.51 39.3,1682.51 39.3,1664.53 42.9,1664.53 42.9,1646.54 46.5,1646.54 46.5,1632.16 50.09,1632.16 50.09,1610.58 53.69,1610.58 53.69,1596.19 57.29,1596.19 57.29,1581.8 60.89,1581.8 60.89,1567.41 64.48,1567.41 64.48,1556.62 68.08,1556.62 68.08,1545.83 71.68,1545.83 71.68,1535.04 75.27,1535.04 75.27,1524.25 78.87,1524.25 78.87,1509.87 82.47,1509.87 82.47,1499.08 86.06,1499.08 86.06,1488.29 89.66,1488.29 89.66,1477.5 93.26,1477.5 93.26,1466.7 96.85,1466.7 96.85,1455.91 100.45,1455.91 100.45,1448.72 104.05,1448.72 104.05,1441.53 107.64,1441.53 107.64,1430.74 111.24,1430.74 111.24,1423.54 114.84,1423.54 114.84,1412.75 118.43,1412.75 118.43,1405.56 122.03,1405.56 122.03,1401.96 125.63,1401.96 125.63,1394.77 129.22,1394.77 129.22,1391.17 132.82,1391.17 132.82,1383.98 136.42,1383.98 136.42,1380.38 140.02,1380.38 140.02,1373.19 143.61,1373.19 143.61,1369.59 147.21,1369.59 147.21,1366 150.81,1366 150.81,1362.4 154.4,1362.4 154.4,1355.2 158,1355.2 158,1351.61 165.19,1351.61 165.19,1348.01 168.79,1348.01 168.79,1344.41 172.39,1344.41 172.39,1340.82 175.98,1340.82 175.98,1337.22 183.18,1337.22 183.18,1333.62 190.37,1333.62 190.37,1330.03 193.97,1330.03 193.97,1326.43 201.16,1326.43 201.16,1322.83 211.95,1322.83 211.95,1319.24 251.52,1319.24 "/>
  <polygon id="root" class="fil1" points="262.31,286.97 269.5,286.97 269.5,294.17 273.1,294.17 273.1,301.36 276.69,301.36 276.69,304.96 280.29,304.96 280.29,330.14 283.89,330.14 283.89,463.21 280.29,463.21 280.29,610.68 283.89,610.68 283.89,650.25 287.48,650.25 287.48,689.81 291.08,689.81 291.08,714.99 294.68,714.99 294.68,754.55 298.27,754.55 298.27,768.94 301.87,768.94 301.87,797.71 305.47,797.71 305.47,826.49 309.06,826.49 309.06,851.66 312.66,851.66 312.66,869.65 316.26,869.65 316.26,891.23 319.85,891.23 319.85,916.4 323.45,916.4 323.45,941.58 327.05,941.58 327.05,966.76 330.64,966.76 330.64,984.74 334.24,984.74 334.24,1013.52 337.84,1013.52 337.84,1035.1 341.43,1035.1 341.43,1063.87 345.03,1063.87 345.03,1099.84 348.63,1099.84 348.63,1135.81 352.22,1135.81 352.22,1182.56 355.82,1182.56 355.82,1229.32 359.42,1229.32 359.42,1301.25 363.01,1301.25 363.01,1355.2 366.61,1355.2 366.61,1394.77 370.21,1394.77 370.21,1416.35 366.61,1416.35 366.61,1412.75 363.01,1412.75 363.01,1401.96 359.42,1401.96 359.42,1394.77 355.82,1394.77 355.82,1387.58 352.22,1387.58 352.22,1380.38 348.63,1380.38 348.63,1373.19 345.03,1373.19 345.03,1369.59 341.43,1369.59 341.43,1362.4 337.84,1362.4 337.84,1358.8 334.24,1358.8 334.24,1355.2 330.64,1355.2 330.64,1351.61 327.05,1351.61 327.05,1348.01 323.45,1348.01 323.45,1344.41 319.85,1344.41 319.85,1340.82 316.26,1340.82 316.26,1337.22 312.66,1337.22 312.66,1330.03 305.47,1330.03 305.47,1326.43 301.87,1326.43 301.87,1322.83 294.68,1322.83 294.68,1319.24 291.08,1319.24 291.08,1315.64 283.89,1315.64 283.89,1312.04 273.1,1312.04 273.1,1308.45 265.9,1308.45 265.9,1304.85 251.52,1304.85 251.52,1301.25 215.55,1301.25 215.55,1304.85 201.16,1304.85 201.16,1308.45 193.97,1308.45 193.97,1312.04 183.18,1312.04 183.18,1315.64 175.98,1315.64 175.98,1319.24 172.39,1319.24 172.39,1322.83 165.19,1322.83 165.19,1326.43 161.6,1326.43 161.6,1330.03 158,1330.03 158,1333.62 154.4,1333.62 154.4,1337.22 150.81,1337.22 150.81,1340.82 143.61,1340.82 143.61,1344.41 140.02,1344.41 140.02,1348.01 136.42,1348.01 136.42,1351.61 132.82,1351.61 132.82,1358.8 129.22,1358.8 129.22,1362.4 125.63,1362.4 125.63,1366 122.03,1366 122.03,1373.19 118.43,1373.19 118.43,1376.79 114.84,1376.79 114.84,1383.98 111.24,1383.98 111.24,1391.17 107.64,1391.17 107.64,1394.77 104.05,1394.77 104.05,1401.96 100.45,1401.96 100.45,1409.16 96.85,1409.16 96.85,1416.35 93.26,1416.35 93.26,1423.54 89.66,1423.54 89.66,1434.33 86.06,1434.33 86.06,1441.53 82.47,1441.53 82.47,1448.72 78.87,1448.72 78.87,1455.91 75.27,1455.91 75.27,1437.93 78.87,1437.93 78.87,1376.79 82.47,1376.79 82.47,1315.64 86.06,1315.64 86.06,1247.3 89.66,1247.3 89.66,1160.98 93.26,1160.98 93.26,1107.03 96.85,1107.03 96.85,984.74 100.45,984.74 100.45,955.97 104.05,955.97 104.05,894.82 107.64,894.82 107.64,855.26 111.24,855.26 111.24,819.29 114.84,819.29 114.84,786.92 118.43,786.92 118.43,750.95 122.03,750.95 122.03,722.18 125.63,722.18 125.63,697 129.22,697 129.22,679.02 132.82,679.02 132.82,650.25 136.42,650.25 136.42,632.26 140.02,632.26 140.02,610.68 143.61,610.68 143.61,589.1 147.21,589.1 147.21,574.71 150.81,574.71 150.81,553.13 154.4,553.13 154.4,538.74 158,538.74 158,517.16 161.6,517.16 161.6,502.78 165.19,502.78 165.19,491.99 168.79,491.99 168.79,474 172.39,474 172.39,459.62 175.98,459.62 175.98,452.42 179.58,452.42 179.58,438.04 183.18,438.04 183.18,423.65 186.77,423.65 186.77,412.86 190.37,412.86 190.37,402.07 193.97,402.07 193.97,387.68 197.56,387.68 197.56,380.49 201.16,380.49 201.16,369.7 204.76,369.7 204.76,358.91 208.35,358.91 208.35,351.72 211.95,351.72 211.95,340.93 215.55,340.93 215.55,333.73 219.15,333.73 219.15,322.94 222.74,322.94 222.74,315.75 226.34,315.75 226.34,308.56 229.94,308.56 229.94,304.96 233.53,304.96 233.53,297.77 237.13,297.77 237.13,294.17 240.73,294.17 240.73,290.57 244.32,290.57 244.32,286.97 247.92,286.97 247.92,283.38 262.31,283.38 "/>
  <path id="outline" class="fil2" d="M420.56 1718.48l-3.6 0 0 -21.58 -3.59 0 0 -28.78 -3.6 0 0 -21.58 -3.6 0 0 -12.44c-1.91,0.68 -4.25,1.36 -7.16,2.11 -13.71,3.54 -5.75,2.12 -13.31,9.05 -5.88,5.39 -8.54,-1.52 -18.07,13.3 -3.42,5.32 -1.9,10.63 0.17,19.21 -3.53,3.08 -7.39,4.08 -11.51,6.88 -14.25,9.66 -3.32,11.34 -19.63,9.12l-5.27 9.71c-3.37,-1.21 -6.21,-1.3 -9.94,-2.84 -3.54,5.27 -2.8,5.16 -7.96,9.51 5.52,11.49 0.22,6.5 -4.62,15.76 -1.69,3.23 -0.09,4.93 -1.52,8.13 -1.6,3.54 -4.21,4.41 -6.74,7.85l3.36 12.32c-5.08,1.46 -9.38,2.15 -14.91,3.21 -3.83,0.74 -3.54,0.8 -7.42,0.68 -10.71,-0.33 -7.65,12.46 -14.79,17.17 -5.82,3.85 -9.58,3.61 -14.31,5.75 1.16,16.59 -0.23,14.8 -14.22,27.48 -19.53,17.7 4.01,9.66 -18.04,28.95 -10.26,-3.55 -7.34,-1.75 -16.11,1.43 -8.45,3.06 -6.49,-2.71 -13.9,9.15 -3.27,5.23 -5.95,13.01 -9.09,16.7 -5.57,6.54 -10.1,4.52 -15.64,5.94 -3.68,6.57 -1.83,9.72 -9.15,16.57l2.65 -4.23c3.62,-5.76 3.03,-9.35 5.19,-13.55 7.66,-1.81 12.37,-0.9 16.49,-7.3 2.12,-3.29 0.49,-4.91 8.36,-17.22 7.8,-12.2 4.84,-5.89 14.32,-9.7 11.13,-4.47 4.53,-4.77 16.53,-3.08 8.51,-7.13 3.61,-7.22 4.48,-14.22 0.59,-4.74 7.88,-10.49 11.84,-14.24 17.4,-16.46 8.07,-15.97 7.09,-27.55 12.31,-5.85 16.27,1.4 22.99,-15.46 6.99,-17.54 14.13,-8.65 24.18,-12.87 0.12,-4.17 -2.65,-3.82 -1.03,-7.28 1.13,-2.38 5.02,-4.94 6.78,-7.71 2.41,-3.8 0.87,-4.61 1.64,-7.73 0.67,-2.76 3.02,-4.6 4.61,-7.67 -1.05,-3.14 -2.9,-7.35 -4.71,-10.3 3.75,-3.14 9.01,-4.1 11.86,-8.44 2.41,-3.66 2.58,-8.53 5.04,-12.55l10.64 1.75c3.65,-3.16 2.79,-5.32 6.01,-8.81 12.73,1.87 10.52,1.24 19.82,-6.78 -2.51,-10.99 -1.87,-8.84 4.81,-19.98 10.77,-17.95 15.42,-17.22 35.48,-30.29 7.53,-4.91 7.86,-1.79 11.12,-4.94l0 -6.51 -3.6 0 0 -10.79 -3.6 0 0 -21.58 -3.59 0 0 -17.99 -3.6 0 0 -14.39 -3.6 0 0 -14.38 -3.59 0 0 -14.39 -3.6 0 0 -14.39 -3.6 0 0 -14.38 -3.59 0 0 -14.39 -3.6 0 0 -10.79 -3.6 0 0 -10.79 -3.59 0 0 -7.2 -3.6 0 0 -10.79 -3.6 0 0 -10.79 -3.59 0 0 -7.19 -3.6 0 0 -10.79 -3.6 0 0 -7.19 -3.59 0 0 -3.6 -3.6 0 0 -7.19 -3.6 0 0 -7.2 -3.59 0 0 -3.59 -3.6 0 0 -7.2 -3.6 0 0 -3.59 -3.59 0 0 -3.6 -3.6 0 0 -7.2 -3.6 0 0 -3.59 -3.59 0 0 -3.6 -7.2 0 0 -3.6 -3.59 0 0 -3.59 -3.6 0 0 -3.6 -7.19 0 0 -3.6 -7.2 0 0 -3.59 -3.59 0 0 -3.6 -10.79 0 0 -3.6 -10.79 0 0 -3.59 -39.57 0 0 3.59 -10.79 0 0 3.6 -7.19 0 0 3.6 -3.6 0 0 3.59 -7.19 0 0 3.6 -7.2 0 0 3.6 -3.59 0 0 3.59 -3.6 0 0 3.6 -3.6 0 0 3.6 -7.19 0 0 3.59 -3.6 0 0 7.2 -3.59 0 0 3.6 -3.6 0 0 3.59 -3.6 0 0 3.6 -3.59 0 0 7.19 -3.6 0 0 3.6 -3.6 0 0 7.19 -3.6 0 0 3.6 -3.59 0 0 7.19 -3.6 0 0 3.6 -3.6 0 0 7.19 -3.59 0 0 10.79 -3.6 0 0 7.2 -3.6 0 0 10.79 -3.59 0 0 7.19 -3.6 0 0 7.19 -3.6 0 0 10.79 -3.59 0 0 10.8 -3.6 0 0 10.79 -3.6 0 0 10.79 -3.59 0 0 10.79 -3.6 0 0 14.38 -3.6 0 0 10.79 -3.59 0 0 10.79 -3.6 0 0 10.79 -3.6 0 0 10.79 -3.59 0 0 14.39 -3.6 0 0 14.39 -3.6 0 0 14.39 -3.6 0 0 21.58 -3.59 0 0 14.38 -3.6 0 0 17.99 -3.6 0 0 17.98 -3.59 0 0 28.77 -3.6 0 0 32.37 -3.6 0 0 17.99 -3.59 0 0 46.75 -3.6 0 0 68.34 3.6 0 0 39.57 3.59 0 0 10.79 3.6 0 0 10.79 3.6 0 0 7.19 3.59 0 0 7.2 3.6 0 0 3.59 7.19 0 0 3.6 7.2 0 0 3.6 7.19 0 0 3.59 10.79 0 0 3.6 10.79 0 0 3.6 21.58 0 0 3.59 158.26 0 0 -3.59 17.99 0 0 -3.6 21.58 0 0 -3.6 14.38 0 0 -3.59 10.79 0 0 -3.6 10.79 0 0 -3.6 10.79 0 0 -3.59 7.2 0 0 -3.6 10.79 0 0 -3.6 7.19 0 0 -3.59 3.6 0 0 -3.6 7.19 0 0 -7.2 3.6 0 0 -3.59 3.59 0 0 -3.6 3.6 0 0 -3.6 3.6 0 0 -3.59 3.59 0 0 -10.79 3.6 0 0 -7.2 3.6 0 0 -17.98 3.59 0 0 -10.79 3.6 0 0 -151.06zm-197.22 -417.23c2.18,-21.12 -3.48,-9.82 -8.76,-30.41 -11.24,-43.86 -18.65,-48.8 -10.71,-87.59 4.93,-24.07 1.3,-21.9 18.85,-33.99 -2.71,-23.09 1.18,-21.14 -18.95,-34.8 -0.02,-8.98 3.94,-10.9 2.89,-19.97l-17.07 -11.16c1.71,-8.76 7.7,-15.76 9.03,-23.94 1.57,-9.69 -4.52,-17.77 -5.74,-26.94 6.29,-1.79 14.25,-5.28 19.74,-8.33 1.7,-6.3 0.79,-11.88 3.37,-16.59 2.93,-5.33 6.1,-4.49 7.6,-12.86 1.1,-6.11 -1.06,-14.65 0.43,-19.42 2.16,-6.9 5.57,-2.87 10.73,-8.84 -8.61,-18.73 -29.93,-15.45 -17.24,-48.84 12.2,-32.11 -2.6,-27.07 -12.28,-50.96 16.18,-14.89 28.55,-2.27 25.36,-47.47 -0.73,-10.28 -3.54,-27.61 1.71,-34.98 7.73,-10.86 14.68,-4.72 11.92,-25.55 -18.87,-12.98 -9.29,-4.96 -19.08,-25.44 -8.33,-17.42 -12.29,-4.83 -7.56,-31.83 4.77,-27.2 9.12,-27.39 10.38,-34.68 2.43,-14.18 -5.3,-18.94 -13.66,-31.27 2.35,-8.62 7.78,-12.86 10.11,-25.52l1.7 -9.29c1.45,18.92 -5.15,20.94 -8.43,34.81 5.91,9.06 14.79,12.03 14.2,28.28 -0.34,9.15 -6.56,23.41 -8.69,34.9 -4.84,25.99 -0.19,15.45 7.67,30.52 8.16,15.65 1.8,14.43 20.63,22.59 6.06,55.1 -16.47,13.78 -11.88,63.42 3.29,35.58 7.51,34.86 -15.32,56.5 3.84,9.02 9.4,13.5 12.59,26.3 3.93,15.71 -16.69,29.62 -1.35,42.84 5.57,4.81 5.1,4.52 9.49,10.45 6.33,8.55 11.45,15.01 16.68,23.54l-20.45 12.86c-0.87,8.04 1.65,12.59 -0.65,19.57 -2.09,6.29 -6.5,6.62 -8.28,13.27 -5.09,19.1 8.67,18.93 -13.7,27.88 1.62,12.66 0.72,11.58 -1.08,23.43 7.17,2.62 11.24,6.13 17.49,8.75l-5.08 20.29c25.57,17.75 8.19,6.11 15.69,37.8 2.18,9.18 6.27,15.5 7.25,24.31 -13.86,9.32 -22.76,14.78 -24.79,26.55 -5.67,32.86 6.87,26.63 8.17,41.64 1.67,19.35 -7.6,7.18 6.98,29.65 15.23,23.47 13.18,26.87 10.33,44.12l12.32 0 0 3.6 7.2 0 0 3.59 10.79 0 0 3.6 7.19 0 0 3.6 3.6 0 0 3.59 7.19 0 0 3.6 3.6 0 0 3.6 7.19 0 0 7.19 3.6 0 0 3.6 3.59 0 0 3.59 3.6 0 0 3.6 3.6 0 0 3.6 3.59 0 0 3.59 3.6 0 0 3.6 3.6 0 0 3.6 3.59 0 0 7.19 3.6 0 0 3.6 3.6 0 0 7.19 3.59 0 0 7.2 3.6 0 0 7.19 3.6 0 0 7.19 3.59 0 0 10.79 3.6 0 0 3.6 3.6 0 0 -21.58 -3.6 0 0 -39.57 -3.6 0 0 -53.95 -3.59 0 0 -71.93 -3.6 0 0 -46.76 -3.6 0 0 -46.75 -3.59 0 0 -35.97 -3.6 0 0 -35.97 -3.6 0 0 -28.77 -3.59 0 0 -21.58 -3.6 0 0 -28.78 -3.6 0 0 -17.98 -3.59 0 0 -25.18 -3.6 0 0 -25.18 -3.6 0 0 -25.17 -3.59 0 0 -21.58 -3.6 0 0 -17.99 -3.6 0 0 -25.17 -3.59 0 0 -28.78 -3.6 0 0 -28.77 -3.6 0 0 -14.39 -3.59 0 0 -39.56 -3.6 0 0 -25.18 -3.6 0 0 -39.56 -3.59 0 0 -39.57 -3.6 0 0 -147.47 3.6 0 0 -133.07 -3.6 0 0 -25.18 -3.6 0 0 -3.6 -3.59 0 0 -7.19 -3.6 0 0 -7.2 -7.19 0 0 -3.59 -14.39 0 0 3.59 -3.6 0 0 3.6 -3.59 0 0 3.6 -3.6 0 0 3.6 -3.6 0 0 7.19 -3.59 0 0 3.6 -3.6 0 0 7.19 -3.6 0 0 7.19 -3.59 0 0 10.79 -3.6 0 0 7.2 -3.6 0 0 10.79 -3.6 0 0 7.19 -3.59 0 0 10.79 -3.6 0 0 10.79 -3.6 0 0 7.19 -3.59 0 0 14.39 -3.6 0 0 10.79 -3.6 0 0 10.79 -3.59 0 0 14.39 -3.6 0 0 14.38 -3.6 0 0 7.2 -3.59 0 0 14.38 -3.6 0 0 17.99 -3.6 0 0 10.79 -3.59 0 0 14.38 -3.6 0 0 21.58 -3.6 0 0 14.39 -3.59 0 0 21.58 -3.6 0 0 14.39 -3.6 0 0 21.58 -3.59 0 0 21.58 -3.6 0 0 17.99 -3.6 0 0 28.77 -3.6 0 0 17.98 -3.59 0 0 25.18 -3.6 0 0 28.77 -3.6 0 0 35.97 -3.59 0 0 32.37 -3.6 0 0 35.97 -3.6 0 0 39.56 -3.59 0 0 61.15 -3.6 0 0 28.77 -3.6 0 0 122.29 -3.59 0 0 53.95 -3.6 0 0 86.32 -3.6 0 0 68.34 -3.59 0 0 61.15 -3.6 0 0 61.14 -3.6 0 0 17.98 3.6 0 0 -7.19 3.6 0 0 -7.19 3.59 0 0 -7.2 3.6 0 0 -10.79 3.6 0 0 -7.19 3.59 0 0 -7.19 3.6 0 0 -7.2 3.6 0 0 -7.19 3.59 0 0 -3.6 3.6 0 0 -7.19 3.6 0 0 -7.19 3.59 0 0 -3.6 3.6 0 0 -7.19 3.6 0 0 -3.6 3.59 0 0 -3.6 3.6 0 0 -7.19 3.6 0 0 -3.6 3.6 0 0 -3.6 3.59 0 0 -3.59 7.2 0 0 -3.6 3.59 0 0 -3.6 3.6 0 0 -3.59 3.6 0 0 -3.6 3.59 0 0 -3.6 7.2 0 0 -3.59 3.59 0 0 -3.6 7.2 0 0 -3.6 10.79 0 0 -3.59 7.19 0 0 -3.6 14.39 0 0 -3.6 7.79 0zm42.56 -1039.45l7.2 0 0 3.59 3.59 0 0 3.6 3.6 0 0 3.6 3.6 0 0 3.59 3.59 0 0 3.6 3.6 0 0 7.19 3.6 0 0 7.2 3.59 0 0 7.19 3.6 0 0 14.39 3.6 0 0 21.58 3.59 0 0 89.92 -3.59 0 0 46.75 -3.6 0 0 129.49 3.6 0 0 43.16 3.59 0 0 28.77 3.6 0 0 32.37 3.6 0 0 43.16 3.59 0 0 21.59 3.6 0 0 32.37 3.6 0 0 14.38 3.59 0 0 17.99 3.6 0 0 17.98 3.6 0 0 25.18 3.59 0 0 21.58 3.6 0 0 28.77 3.6 0 0 17.98 3.59 0 0 25.18 3.6 0 0 21.58 3.6 0 0 21.58 3.59 0 0 39.57 3.6 0 0 32.37 3.6 0 0 32.37 3.59 0 0 32.37 3.6 0 0 75.53 3.6 0 0 64.74 3.59 0 0 64.74 3.6 0 0 61.15 3.6 0 0 43.16 3.59 0 0 32.37 3.6 0 0 10.79 3.6 0 0 21.58 3.59 0 0 10.79 3.6 0 0 17.98 3.6 0 0 14.39 3.59 0 0 14.39 3.6 0 0 14.39 3.6 0 0 14.38 3.59 0 0 17.99 3.6 0 0 17.98 3.6 0 0 21.58 3.59 0 0 25.18 3.6 0 0 57.54 3.6 0 0 82.73 -3.6 0 0 35.97 -3.6 0 0 17.98 -3.59 0 0 17.98 -3.6 0 0 7.2 -3.6 0 0 7.19 -3.59 0 0 3.6 -3.6 0 0 7.19 -3.6 0 0 3.6 -3.59 0 0 7.19 -3.6 0 0 3.6 -3.6 0 0 3.6 -7.19 0 0 3.59 -3.6 0 0 3.6 -3.59 0 0 3.6 -7.2 0 0 3.59 -7.19 0 0 3.6 -7.19 0 0 3.6 -7.2 0 0 3.59 -10.79 0 0 3.6 -10.79 0 0 3.6 -17.98 0 0 3.59 -10.79 0 0 3.6 -21.58 0 0 3.6 -17.98 0 0 3.59 -21.58 0 0 3.6 -133.09 0 0 -3.6 -21.58 0 0 -3.59 -21.58 0 0 -3.6 -14.38 0 0 -3.6 -7.2 0 0 -3.59 -7.19 0 0 -3.6 -7.2 0 0 -3.6 -7.19 0 0 -3.59 -3.6 0 0 -3.6 -3.59 0 0 -3.6 -3.6 0 0 -7.19 -3.6 0 0 -3.6 -3.59 0 0 -7.19 -3.6 0 0 -7.19 -3.6 0 0 -17.99 -3.59 0 0 -25.18 -3.6 0 0 -107.9 3.6 0 0 -43.16 3.59 0 0 -21.58 3.6 0 0 -28.77 3.6 0 0 -21.58 3.59 0 0 -14.39 3.6 0 0 -17.98 3.6 0 0 -21.58 3.59 0 0 -10.79 3.6 0 0 -21.58 3.6 0 0 -10.79 3.59 0 0 -10.8 3.6 0 0 -14.38 3.6 0 0 -25.18 3.59 0 0 -57.55 3.6 0 0 -46.76 3.6 0 0 -64.74 3.6 0 0 -53.95 3.59 0 0 -68.34 3.6 0 0 -93.51 3.6 0 0 -61.15 3.59 0 0 -75.53 3.6 0 0 -57.55 3.6 0 0 -64.74 3.59 0 0 -32.37 3.6 0 0 -35.96 3.6 0 0 -46.76 3.59 0 0 -28.78 3.6 0 0 -28.77 3.6 0 0 -21.58 3.59 0 0 -14.39 3.6 0 0 -25.17 3.6 0 0 -21.59 3.59 0 0 -25.17 3.6 0 0 -21.58 3.6 0 0 -14.39 3.59 0 0 -21.58 3.6 0 0 -17.99 3.6 0 0 -10.79 3.6 0 0 -14.38 3.59 0 0 -14.39 3.6 0 0 -14.39 3.6 0 0 -17.98 3.59 0 0 -14.39 3.6 0 0 -10.79 3.6 0 0 -7.19 3.59 0 0 -17.98 3.6 0 0 -7.2 3.6 0 0 -14.38 3.59 0 0 -10.79 3.6 0 0 -7.2 3.6 0 0 -14.38 3.59 0 0 -7.2 3.6 0 0 -10.79 3.6 0 0 -7.19 3.59 0 0 -10.79 3.6 0 0 -7.19 3.6 0 0 -7.2 3.59 0 0 -7.19 3.6 0 0 -3.6 3.6 0 0 -7.19 3.6 0 0 -3.6 3.59 0 0 -3.6 3.6 0 0 -7.19 7.19 0 0 -3.6 3.6 0 0 -3.59 7.19 0 0 -3.6 21.58 0 0 3.6z"/>
 </g>
</svg>