<!-- Creator: CorelDRAW (Versión de evaluación) -->
<svg xmlns="http://www.w3.org/2000/svg" xml:space="preserve" width="518px" height="2062px" version="1.1" style="shape-rendering:geometricPrecision; text-rendering:geometricPrecision; image-rendering:optimizeQuality; fill-rule:evenodd; clip-rule:evenodd"
viewBox="0 0 518 2061.2"
 xmlns:xlink="http://www.w3.org/1999/xlink"
 xmlns:xodm="http://www.corel.com/coreldraw/odm/2003">
 <defs>
  <style type="text/css">
   <![CDATA[
    .fil2 {fill:#4B4B4D}
    .fil1 {fill:#EDEAE0}
    .fil0 {fill:#F2E6C9}
   ]]>
  </style>
 </defs>
 <g id="fissure-full">
  <metadata id="CorelCorpID_0Corel-Layer"/>
  <polygon id="root" class="fil0" points="348.67,26 352.27,26 352.27,29.6 355.87,29.6 355.87,36.8 359.47,36.8 359.47,43.99 363.06,43.99 363.06,58.38 366.66,58.38 366.66,79.96 370.26,79.96 370.26,180.68 366.66,180.68 366.66,231.05 363.06,231.05 363.06,295.8 359.47,295.8 359.47,468.46 363.06,468.46 363.06,493.64 366.66,493.64 366.66,540.41 370.26,540.41 370.26,576.38 373.85,576.38 373.85,612.35 377.45,612.35 377.45,648.32 381.05,648.32 381.05,677.1 384.65,677.1 384.65,698.68 388.24,698.68 388.24,731.06 391.84,731.06 391.84,763.43 395.44,763.43 395.44,799.41 399.03,799.41 399.03,828.18 402.63,828.18 402.63,882.14 406.23,882.14 406.23,892.93 409.82,892.93 409.82,961.28 413.42,961.28 413.42,1000.85 417.02,1000.85 417.02,1087.18 420.62,1087.18 420.62,1184.31 424.21,1184.31 424.21,1220.28 427.81,1220.28 427.81,1331.79 431.41,1331.79 431.41,1382.16 427.81,1382.16 427.81,1374.96 424.21,1374.96 424.21,1364.17 420.62,1364.17 420.62,1356.97 417.02,1356.97 417.02,1349.78 413.42,1349.78 413.42,1342.58 409.82,1342.58 409.82,1331.79 406.23,1331.79 406.23,1324.6 402.63,1324.6 402.63,1317.41 399.03,1317.41 399.03,1313.81 395.44,1313.81 395.44,1306.61 391.84,1306.61 391.84,1303.02 388.24,1303.02 388.24,1295.82 384.65,1295.82 384.65,1292.22 381.05,1292.22 381.05,1285.03 377.45,1285.03 377.45,1281.43 373.85,1281.43 373.85,1277.83 370.26,1277.83 370.26,1274.24 366.66,1274.24 366.66,1270.64 363.06,1270.64 363.06,1267.04 359.47,1267.04 359.47,1263.45 355.87,1263.45 355.87,1259.85 348.67,1259.85 348.67,1256.25 345.07,1256.25 345.07,1252.66 341.48,1252.66 341.48,1249.06 334.28,1249.06 334.28,1245.46 327.09,1245.46 327.09,1241.86 319.9,1241.86 319.9,1238.27 312.7,1238.27 312.7,1234.67 301.91,1234.67 301.91,1231.07 287.52,1231.07 287.52,1227.48 247.95,1227.48 247.95,1231.07 233.56,1231.07 233.56,1234.67 222.77,1234.67 222.77,1238.27 211.98,1238.27 211.98,1241.86 204.78,1241.86 204.78,1245.46 197.59,1245.46 197.59,1249.06 190.4,1249.06 190.4,1252.66 186.8,1252.66 186.8,1256.25 179.6,1256.25 179.6,1259.85 176.01,1259.85 176.01,1263.45 172.41,1263.45 172.41,1267.04 168.81,1267.04 168.81,1270.64 165.21,1270.64 165.21,1274.24 161.62,1274.24 161.62,1277.83 158.02,1277.83 158.02,1281.43 154.42,1281.43 154.42,1285.03 150.82,1285.03 150.82,1288.63 147.23,1288.63 147.23,1292.22 143.63,1292.22 143.63,1295.82 140.03,1295.82 140.03,1303.02 136.44,1303.02 136.44,1310.21 132.84,1310.21 132.84,1313.81 129.25,1313.81 129.25,1317.41 125.65,1317.41 125.65,1324.6 122.05,1324.6 122.05,1328.2 118.45,1328.2 118.45,1335.39 114.85,1335.39 114.85,1342.58 111.26,1342.58 111.26,1349.78 107.66,1349.78 107.66,1356.97 104.06,1356.97 104.06,1364.17 100.46,1364.17 100.46,1367.77 96.87,1367.77 96.87,1374.96 93.27,1374.96 93.27,1385.75 89.67,1385.75 89.67,1392.95 86.08,1392.95 86.08,1403.74 82.48,1403.74 82.48,1414.53 78.88,1414.53 78.88,1421.72 75.29,1421.72 75.29,1428.92 71.69,1428.92 71.69,1403.74 75.29,1403.74 75.29,1353.38 78.88,1353.38 78.88,1281.43 82.48,1281.43 82.48,1231.07 86.08,1231.07 86.08,1187.91 89.67,1187.91 89.67,1133.95 93.27,1133.95 93.27,1054.81 96.87,1054.81 96.87,979.27 100.46,979.27 100.46,950.49 104.06,950.49 104.06,903.72 107.66,903.72 107.66,846.17 111.26,846.17 111.26,806.6 114.85,806.6 114.85,759.84 118.45,759.84 118.45,731.06 122.05,731.06 122.05,698.68 125.65,698.68 125.65,677.1 129.25,677.1 129.25,655.52 132.84,655.52 132.84,637.53 136.44,637.53 136.44,608.75 140.03,608.75 140.03,590.77 143.63,590.77 143.63,576.38 147.23,576.38 147.23,558.39 150.82,558.39 150.82,540.41 154.42,540.41 154.42,526.02 158.02,526.02 158.02,508.03 161.62,508.03 161.62,490.05 165.21,490.05 165.21,475.66 168.81,475.66 168.81,457.67 172.41,457.67 172.41,439.68 176.01,439.68 176.01,425.3 179.6,425.3 179.6,414.5 183.2,414.5 183.2,400.11 186.8,400.11 186.8,382.13 190.4,382.13 190.4,371.34 193.99,371.34 193.99,353.35 197.59,353.35 197.59,346.16 201.19,346.16 201.19,331.77 204.78,331.77 204.78,313.78 208.38,313.78 208.38,302.99 211.98,302.99 211.98,288.6 215.57,288.6 215.57,277.81 219.17,277.81 219.17,267.02 222.77,267.02 222.77,256.22 226.37,256.22 226.37,241.84 229.96,241.84 229.96,231.05 233.56,231.05 233.56,216.66 237.16,216.66 237.16,209.46 240.76,209.46 240.76,195.07 244.36,195.07 244.36,184.28 247.95,184.28 247.95,173.49 251.55,173.49 251.55,162.7 255.15,162.7 255.15,155.5 258.74,155.5 258.74,144.71 262.34,144.71 262.34,133.92 265.94,133.92 265.94,126.72 269.53,126.72 269.53,115.93 273.13,115.93 273.13,108.74 276.73,108.74 276.73,101.55 280.32,101.55 280.32,94.35 283.92,94.35 283.92,87.16 287.52,87.16 287.52,79.96 291.12,79.96 291.12,72.77 294.71,72.77 294.71,65.57 298.31,65.57 298.31,61.97 301.91,61.97 301.91,54.78 305.51,54.78 305.51,51.18 309.11,51.18 309.11,43.99 312.7,43.99 312.7,40.39 316.3,40.39 316.3,36.8 319.9,36.8 319.9,33.2 323.49,33.2 323.49,29.6 330.69,29.6 330.69,26 334.28,26 334.28,22.41 348.67,22.41 "/>
  <polygon id="crown" class="fil1" points="280.32,1245.46 294.71,1245.46 294.71,1249.06 305.51,1249.06 305.51,1252.66 312.7,1252.66 312.7,1256.25 319.9,1256.25 319.9,1259.85 323.49,1259.85 323.49,1263.45 330.69,1263.45 330.69,1267.04 334.28,1267.04 334.28,1270.64 341.48,1270.64 341.48,1274.24 345.07,1274.24 345.07,1277.83 348.67,1277.83 348.67,1281.43 352.27,1281.43 352.27,1285.03 355.87,1285.03 355.87,1292.22 359.47,1292.22 359.47,1295.82 363.06,1295.82 363.06,1299.42 366.66,1299.42 366.66,1303.02 370.26,1303.02 370.26,1310.21 373.85,1310.21 373.85,1313.81 377.45,1313.81 377.45,1321 381.05,1321 381.05,1328.2 384.65,1328.2 384.65,1331.79 388.24,1331.79 388.24,1338.99 391.84,1338.99 391.84,1346.18 395.44,1346.18 395.44,1353.38 399.03,1353.38 399.03,1364.17 402.63,1364.17 402.63,1371.37 406.23,1371.37 406.23,1382.16 409.82,1382.16 409.82,1392.95 413.42,1392.95 413.42,1400.14 417.02,1400.14 417.02,1410.93 420.62,1410.93 420.62,1425.32 424.21,1425.32 424.21,1432.52 427.81,1432.52 427.81,1443.31 431.41,1443.31 431.41,1454.1 435.01,1454.1 435.01,1472.08 438.6,1472.08 438.6,1490.07 442.2,1490.07 442.2,1504.46 445.8,1504.46 445.8,1518.85 449.4,1518.85 449.4,1533.24 452.99,1533.24 452.99,1547.63 456.59,1547.63 456.59,1554.82 460.19,1554.82 460.19,1569.21 463.78,1569.21 463.78,1587.2 467.38,1587.2 467.38,1597.99 470.98,1597.99 470.98,1612.38 474.57,1612.38 474.57,1623.17 478.17,1623.17 478.17,1637.56 481.77,1637.56 481.77,1655.54 485.37,1655.54 485.37,1666.33 488.96,1666.33 488.96,1684.32 492.56,1684.32 492.56,1705.91 496.16,1705.91 496.16,1785.04 492.56,1785.04 492.56,1806.63 488.96,1806.63 488.96,1824.62 485.37,1824.62 485.37,1835.41 481.77,1835.41 481.77,1842.6 478.17,1842.6 478.17,1853.39 474.57,1853.39 474.57,1860.58 470.98,1860.58 470.98,1867.78 467.38,1867.78 467.38,1874.97 463.78,1874.97 463.78,1882.17 460.19,1882.17 460.19,1889.36 456.59,1889.36 456.59,1892.96 452.99,1892.96 452.99,1896.56 449.4,1896.56 449.4,1903.75 445.8,1903.75 445.8,1907.35 442.2,1907.35 442.2,1910.94 438.6,1910.94 438.6,1914.54 435.01,1914.54 435.01,1918.14 431.41,1918.14 431.41,1921.74 427.81,1921.74 427.81,1925.33 424.21,1925.33 424.21,1928.93 420.62,1928.93 420.62,1932.53 417.02,1932.53 417.02,1936.13 409.82,1936.13 409.82,1939.73 406.23,1939.73 406.23,1943.32 402.63,1943.32 402.63,1946.92 399.03,1946.92 399.03,1950.52 395.44,1950.52 395.44,1954.11 388.24,1954.11 388.24,1957.71 384.65,1957.71 384.65,1961.31 381.05,1961.31 381.05,1964.9 373.85,1964.9 373.85,1968.5 370.26,1968.5 370.26,1972.1 366.66,1972.1 366.66,1975.69 359.47,1975.69 359.47,1979.29 355.87,1979.29 355.87,1982.89 352.27,1982.89 352.27,1986.49 345.07,1986.49 345.07,1990.08 341.48,1990.08 341.48,1993.68 337.88,1993.68 337.88,1997.28 330.69,1997.28 330.69,2000.88 327.09,2000.88 327.09,2004.48 323.49,2004.48 323.49,2008.07 316.3,2008.07 316.3,2011.67 309.11,2011.67 309.11,2015.27 305.51,2015.27 305.51,2018.86 298.31,2018.86 298.31,2022.46 294.71,2022.46 294.71,2026.06 287.52,2026.06 287.52,2029.65 280.32,2029.65 280.32,2033.25 273.13,2033.25 273.13,2036.85 240.76,2036.85 240.76,2033.25 229.96,2033.25 229.96,2029.65 222.77,2029.65 222.77,2026.06 215.57,2026.06 215.57,2022.46 211.98,2022.46 211.98,2018.86 208.38,2018.86 208.38,2015.27 201.19,2015.27 201.19,2011.67 197.59,2011.67 197.59,2008.07 193.99,2008.07 193.99,2004.48 186.8,2004.48 186.8,2000.88 183.2,2000.88 183.2,1997.28 179.6,1997.28 179.6,1993.68 172.41,1993.68 172.41,1990.08 168.81,1990.08 168.81,1986.49 165.21,1986.49 165.21,1982.89 161.62,1982.89 161.62,1979.29 154.42,1979.29 154.42,1975.69 150.82,1975.69 150.82,1972.1 143.63,1972.1 143.63,1968.5 140.03,1968.5 140.03,1964.9 136.44,1964.9 136.44,1961.31 129.25,1961.31 129.25,1957.71 125.65,1957.71 125.65,1954.11 118.45,1954.11 118.45,1950.52 114.85,1950.52 114.85,1946.92 111.26,1946.92 111.26,1943.32 104.06,1943.32 104.06,1939.73 100.46,1939.73 100.46,1936.13 96.87,1936.13 96.87,1932.53 93.27,1932.53 93.27,1928.93 89.67,1928.93 89.67,1925.33 82.48,1925.33 82.48,1921.74 78.88,1921.74 78.88,1918.14 75.29,1918.14 75.29,1914.54 71.69,1914.54 71.69,1910.94 68.09,1910.94 68.09,1907.35 64.49,1907.35 64.49,1903.75 60.9,1903.75 60.9,1896.56 57.3,1896.56 57.3,1892.96 53.7,1892.96 53.7,1889.36 50.11,1889.36 50.11,1882.17 46.51,1882.17 46.51,1874.97 42.91,1874.97 42.91,1867.78 39.31,1867.78 39.31,1860.58 35.71,1860.58 35.71,1853.39 32.12,1853.39 32.12,1846.2 28.52,1846.2 28.52,1824.62 24.92,1824.62 24.92,1716.7 28.52,1716.7 28.52,1691.52 32.12,1691.52 32.12,1666.33 35.71,1666.33 35.71,1651.95 39.31,1651.95 39.31,1623.17 42.91,1623.17 42.91,1601.58 46.51,1601.58 46.51,1583.6 50.11,1583.6 50.11,1572.81 53.7,1572.81 53.7,1547.63 57.3,1547.63 57.3,1533.24 60.9,1533.24 60.9,1518.85 64.49,1518.85 64.49,1504.46 68.09,1504.46 68.09,1490.07 71.69,1490.07 71.69,1482.88 75.29,1482.88 75.29,1472.08 78.88,1472.08 78.88,1457.7 82.48,1457.7 82.48,1450.5 86.08,1450.5 86.08,1439.71 89.67,1439.71 89.67,1432.52 93.27,1432.52 93.27,1421.72 96.87,1421.72 96.87,1414.53 100.46,1414.53 100.46,1403.74 104.06,1403.74 104.06,1396.54 107.66,1396.54 107.66,1389.35 111.26,1389.35 111.26,1378.56 114.85,1378.56 114.85,1371.37 118.45,1371.37 118.45,1367.77 122.05,1367.77 122.05,1360.57 125.65,1360.57 125.65,1353.38 129.25,1353.38 129.25,1346.18 132.84,1346.18 132.84,1338.99 136.44,1338.99 136.44,1331.79 140.03,1331.79 140.03,1328.2 143.63,1328.2 143.63,1324.6 147.23,1324.6 147.23,1317.41 150.82,1317.41 150.82,1313.81 154.42,1313.81 154.42,1306.61 158.02,1306.61 158.02,1303.02 161.62,1303.02 161.62,1299.42 165.21,1299.42 165.21,1292.22 168.81,1292.22 168.81,1288.63 172.41,1288.63 172.41,1285.03 176.01,1285.03 176.01,1281.43 179.6,1281.43 179.6,1277.83 183.2,1277.83 183.2,1274.24 190.4,1274.24 190.4,1270.64 193.99,1270.64 193.99,1267.04 201.19,1267.04 201.19,1263.45 204.78,1263.45 204.78,1259.85 211.98,1259.85 211.98,1256.25 219.17,1256.25 219.17,1252.66 226.37,1252.66 226.37,1249.06 233.56,1249.06 233.56,1245.46 244.36,1245.46 244.36,1241.86 280.32,1241.86 "/>
  <path id="outline" class="fil2" d="M496.16 1705.91l-3.6 0 0 -21.59 -3.6 0 0 -17.99 -3.59 0 0 -10.79 -3.6 0 0 -17.98 -3.6 0 0 -14.39 -3.6 0 0 -10.79 -3.59 0 0 -14.39 -3.6 0 0 -10.79 -3.6 0 0 -17.99 -3.59 0 0 -14.39 -3.6 0 0 -7.19 -3.6 0 0 -14.39 -3.59 0 0 -14.39 -3.6 0 0 -14.39 -3.6 0 0 -14.39 -3.6 0 0 -17.99 -3.59 0 0 -17.98 -3.6 0 0 -10.79 -3.6 0 0 -10.79 -3.6 0 0 -7.2 -3.59 0 0 -14.39 -3.6 0 0 -10.79 -3.6 0 0 -7.19 -3.6 0 0 -10.79 -3.59 0 0 -10.79 -3.6 0 0 -7.2 -3.6 0 0 -10.79 -3.59 0 0 -7.2 -3.6 0 0 -7.19 -3.6 0 0 -7.2 -3.59 0 0 -3.59 -3.6 0 0 -7.2 -3.6 0 0 -7.19 -3.6 0 0 -3.6 -3.59 0 0 -7.19 -3.6 0 0 -3.6 -3.6 0 0 -3.6 -3.59 0 0 -3.6 -3.6 0 0 -7.19 -3.6 0 0 -3.6 -3.6 0 0 -3.6 -3.6 0 0 -3.59 -3.59 0 0 -3.6 -7.2 0 0 -3.6 -3.59 0 0 -3.59 -7.2 0 0 -3.6 -3.59 0 0 -3.6 -7.2 0 0 -3.59 -7.19 0 0 -3.6 -10.8 0 0 -3.6 -14.39 0 0 -3.6 -35.96 0 0 3.6 -10.8 0 0 3.6 -7.19 0 0 3.6 -7.2 0 0 3.59 -7.19 0 0 3.6 -7.2 0 0 3.6 -3.59 0 0 3.59 -7.2 0 0 3.6 -3.59 0 0 3.6 -7.2 0 0 3.59 -3.6 0 0 3.6 -3.59 0 0 3.6 -3.6 0 0 3.6 -3.6 0 0 3.59 -3.6 0 0 7.2 -3.59 0 0 3.6 -3.6 0 0 3.59 -3.6 0 0 7.2 -3.6 0 0 3.6 -3.59 0 0 7.19 -3.6 0 0 3.6 -3.6 0 0 3.59 -3.59 0 0 7.2 -3.6 0 0 7.19 -3.59 0 0 7.2 -3.6 0 0 7.19 -3.6 0 0 7.2 -3.6 0 0 3.6 -3.6 0 0 3.62 0.47 -0.33c8.68,16.67 6.08,6.96 16.11,15.41 19,16.02 23.89,15.86 32.71,35.73 5.47,12.32 6.4,10.19 2.41,21.19 8.57,9.45 6.22,9.82 19.56,9.51 2.88,4 1.72,6.12 5.08,9.84l11.18 -0.46c2.03,4.46 1.59,9.5 3.6,13.58 2.39,4.83 7.68,6.5 11.15,10.21 -2.23,2.8 -4.68,6.9 -6.16,10.01 1.25,3.36 3.43,5.56 3.78,8.49 0.39,3.31 -1.29,3.95 0.7,8.17 1.46,3.08 5.15,6.21 6.01,8.81 1.23,3.77 -1.58,3.06 -1.98,7.37 9.82,5.63 18.3,-2.63 23.27,16.33 4.78,18.23 9.79,11.26 21.74,18.85 -2.49,11.81 -12.04,10.12 3.8,29.3 3.6,4.36 10.38,11.21 10.39,16.17 0.01,7.32 -5.06,6.79 2.81,15.22 12.58,-0.22 5.74,-0.75 16.64,5.28 9.28,5.13 7.03,-1.75 13.52,11.81 6.55,13.68 4.66,15.15 6.43,18.81 3.43,7.11 8.4,6.77 16.06,9.61 1.7,4.61 0.63,8.23 3.62,14.63l2.21 4.69c-6.68,-7.99 -4.38,-10.99 -7.33,-18.24 -5.53,-2.16 -10.45,-0.66 -15.36,-8.11 -2.77,-4.19 -4.54,-12.55 -7.24,-18.36 -6.13,-13.16 -4.85,-6.96 -13.16,-11.19 -8.64,-4.39 -5.41,-5.87 -16.43,-3.52 -20.27,-22.69 2.97,-11.41 -14.9,-32.12 -12.82,-14.85 -14.47,-13.19 -11.17,-30.13 -4.6,-2.81 -8.5,-3.04 -14.01,-7.74 -6.76,-5.77 -1.98,-18.55 -13.06,-19.57 -4.02,-0.37 -3.71,-0.39 -7.57,-1.64 -5.55,-1.81 -9.9,-3.06 -14.95,-5.2l5.03 -12.27c-2.17,-3.87 -4.75,-5.1 -5.94,-8.95 -1.08,-3.48 0.79,-5.03 -0.54,-8.57 -3.81,-10.16 -9.91,-5.69 -2.76,-16.83 -4.76,-5.13 -4.02,-4.94 -6.99,-10.81 -4.04,1.12 -6.98,0.85 -10.61,1.67l-4.19 -10.69c-17.09,0.23 -5.61,-0.11 -19.07,-11.88 -3.89,-3.41 -7.74,-4.93 -10.99,-8.55 3.23,-8.59 5.47,-13.86 2.62,-19.77 -7.94,-16.49 -11.56,-9.71 -16.93,-16 -6.91,-8.11 1.11,-5.63 -12.57,-11.02 -8.31,-3.28 -11.84,-5.38 -14.18,-8.27l0 1.08 -3.6 0 0 7.2 -3.6 0 0 10.79 -3.59 0 0 7.19 -3.6 0 0 10.8 -3.6 0 0 7.19 -3.59 0 0 10.79 -3.6 0 0 7.2 -3.6 0 0 14.38 -3.59 0 0 10.8 -3.6 0 0 7.19 -3.6 0 0 14.39 -3.6 0 0 14.39 -3.59 0 0 14.39 -3.6 0 0 14.39 -3.6 0 0 25.18 -3.59 0 0 10.79 -3.6 0 0 17.98 -3.6 0 0 21.59 -3.6 0 0 28.78 -3.6 0 0 14.38 -3.59 0 0 25.19 -3.6 0 0 25.18 -3.6 0 0 107.92 3.6 0 0 21.58 3.6 0 0 7.19 3.59 0 0 7.19 3.6 0 0 7.2 3.6 0 0 7.19 3.6 0 0 7.2 3.6 0 0 7.19 3.59 0 0 3.6 3.6 0 0 3.6 3.6 0 0 7.19 3.59 0 0 3.6 3.6 0 0 3.59 3.6 0 0 3.6 3.6 0 0 3.6 3.59 0 0 3.6 3.6 0 0 3.59 7.19 0 0 3.6 3.6 0 0 3.6 3.6 0 0 3.6 3.59 0 0 3.6 3.6 0 0 3.59 7.2 0 0 3.6 3.59 0 0 3.6 3.6 0 0 3.59 7.2 0 0 3.6 3.6 0 0 3.6 7.19 0 0 3.59 3.59 0 0 3.6 3.6 0 0 3.6 7.19 0 0 3.59 3.6 0 0 3.6 7.2 0 0 3.6 3.59 0 0 3.6 3.6 0 0 3.59 3.6 0 0 3.6 7.19 0 0 3.6 3.6 0 0 3.6 3.6 0 0 3.6 7.19 0 0 3.59 3.6 0 0 3.6 3.6 0 0 3.6 7.19 0 0 3.59 3.6 0 0 3.6 3.59 0 0 3.6 7.2 0 0 3.59 7.19 0 0 3.6 10.8 0 0 3.6 32.37 0 0 -3.6 7.19 0 0 -3.6 7.2 0 0 -3.59 7.19 0 0 -3.6 3.6 0 0 -3.6 7.2 0 0 -3.59 3.6 0 0 -3.6 7.19 0 0 -3.6 7.19 0 0 -3.59 3.6 0 0 -3.6 3.6 0 0 -3.6 7.19 0 0 -3.6 3.6 0 0 -3.6 3.59 0 0 -3.59 7.2 0 0 -3.6 3.6 0 0 -3.6 3.6 0 0 -3.6 7.19 0 0 -3.59 3.6 0 0 -3.6 3.59 0 0 -3.6 7.2 0 0 -3.59 3.6 0 0 -3.6 3.59 0 0 -3.6 7.2 0 0 -3.59 3.59 0 0 -3.6 3.6 0 0 -3.6 3.6 0 0 -3.59 3.59 0 0 -3.6 7.2 0 0 -3.6 3.6 0 0 -3.6 3.59 0 0 -3.6 3.6 0 0 -3.59 3.6 0 0 -3.6 3.6 0 0 -3.6 3.59 0 0 -3.6 3.6 0 0 -3.59 3.6 0 0 -3.6 3.6 0 0 -7.19 3.59 0 0 -3.6 3.6 0 0 -3.6 3.6 0 0 -7.19 3.59 0 0 -7.2 3.6 0 0 -7.19 3.6 0 0 -7.2 3.59 0 0 -7.19 3.6 0 0 -10.79 3.6 0 0 -7.19 3.6 0 0 -10.79 3.59 0 0 -17.99 3.6 0 0 -21.59 3.6 0 0 -79.13zm-223.31 -478.43c-2.44,-20.03 2.16,-9.51 6.44,-26.2 8.65,-33.79 14.37,-37.59 8.25,-67.47 -3.8,-18.54 -1,-16.87 -14.52,-26.18 2.09,-17.78 -0.91,-16.28 14.59,-26.81 0.02,-6.91 -3.03,-8.39 -2.22,-15.37l13.15 -8.6c-1.32,-6.75 -5.93,-12.14 -6.96,-18.45 -1.21,-7.46 3.49,-13.68 4.42,-20.74 -4.84,-1.38 -10.97,-4.07 -15.2,-6.42 -1.31,-4.85 -0.61,-9.15 -2.6,-12.78 -2.25,-4.1 -4.7,-3.46 -5.85,-9.9 -0.85,-4.71 0.82,-11.29 -0.33,-14.96 -1.66,-5.32 -4.29,-2.21 -8.27,-6.81 6.63,-14.43 23.05,-11.91 13.28,-37.62 -9.4,-24.73 2.01,-20.85 9.46,-39.25 -12.46,-11.47 -21.99,-1.75 -19.53,-36.57 0.56,-7.91 2.72,-21.27 -1.32,-26.94 -5.95,-8.37 -11.31,-3.63 -9.18,-19.68 14.54,-10 7.16,-3.82 14.7,-19.59 6.42,-13.43 9.46,-3.73 5.82,-24.52 -3.68,-20.96 -7.03,-21.1 -7.99,-26.72 -1.88,-10.92 4.08,-14.58 10.51,-24.08 -1.81,-6.64 -5.99,-9.91 -7.78,-19.66l-1.31 -7.15c-1.12,14.57 3.96,16.13 6.5,26.81 -4.56,6.98 -11.4,9.27 -10.94,21.78 0.25,7.05 5.04,18.03 6.69,26.88 3.73,20.02 0.15,11.9 -5.91,23.51 -6.29,12.06 -1.38,11.11 -15.89,17.4 -4.67,42.44 12.69,10.62 9.15,48.85 -2.53,27.4 -5.78,26.85 11.8,43.52 -2.96,6.95 -7.24,10.4 -9.7,20.26 -3.02,12.1 12.86,22.81 1.04,33 -4.29,3.7 -3.92,3.48 -7.3,8.04 -4.89,6.59 -8.82,11.57 -12.85,18.14l15.75 9.91c0.67,6.18 -1.28,9.69 0.5,15.06 1.61,4.85 5.01,5.1 6.37,10.23 3.93,14.71 -6.67,14.58 10.56,21.47 -1.25,9.75 -0.56,8.92 0.83,18.05 -5.52,2.02 -8.66,4.73 -13.47,6.74l3.91 15.63c-19.69,13.67 -6.31,4.7 -12.09,29.12 -1.67,7.07 -4.82,11.94 -5.58,18.72 10.68,7.18 17.54,11.38 19.1,20.45 4.37,25.31 -5.3,20.51 -6.29,32.08 -1.29,14.9 5.84,5.53 -5.39,22.83 -11.72,18.08 -10.15,20.7 -7.95,33.99l-1.3 0 0 3.59 -14.39 0 0 3.6 -10.79 0 0 3.6 -10.79 0 0 3.59 -7.2 0 0 3.6 -7.19 0 0 3.6 -7.19 0 0 3.6 -3.6 0 0 3.59 -7.2 0 0 3.6 -3.59 0 0 3.6 -3.6 0 0 3.59 -3.6 0 0 3.6 -3.6 0 0 3.6 -3.59 0 0 3.59 -3.6 0 0 3.6 -3.6 0 0 3.6 -3.6 0 0 3.6 -3.59 0 0 3.59 -3.6 0 0 3.6 -3.6 0 0 7.2 -3.59 0 0 7.19 -3.6 0 0 3.6 -3.59 0 0 3.6 -3.6 0 0 7.19 -3.6 0 0 3.6 -3.6 0 0 7.19 -3.6 0 0 7.19 -3.59 0 0 7.2 -3.6 0 0 7.19 -3.6 0 0 7.2 -3.6 0 0 3.6 -3.59 0 0 7.19 -3.6 0 0 10.79 -3.6 0 0 7.2 -3.59 0 0 10.79 -3.6 0 0 10.79 -3.6 0 0 7.19 -3.59 0 0 7.2 -3.6 0 0 -25.18 3.6 0 0 -50.36 3.59 0 0 -71.95 3.6 0 0 -50.36 3.6 0 0 -43.16 3.59 0 0 -53.96 3.6 0 0 -79.14 3.6 0 0 -75.54 3.59 0 0 -28.78 3.6 0 0 -46.77 3.6 0 0 -57.55 3.6 0 0 -39.57 3.59 0 0 -46.76 3.6 0 0 -28.78 3.6 0 0 -32.38 3.6 0 0 -21.58 3.6 0 0 -21.58 3.59 0 0 -17.99 3.6 0 0 -28.78 3.59 0 0 -17.98 3.6 0 0 -14.39 3.6 0 0 -17.99 3.59 0 0 -17.98 3.6 0 0 -14.39 3.6 0 0 -17.99 3.6 0 0 -17.98 3.59 0 0 -14.39 3.6 0 0 -17.99 3.6 0 0 -17.99 3.6 0 0 -14.38 3.59 0 0 -10.8 3.6 0 0 -14.39 3.6 0 0 -17.98 3.6 0 0 -10.79 3.59 0 0 -17.99 3.6 0 0 -7.19 3.6 0 0 -14.39 3.59 0 0 -17.99 3.6 0 0 -10.79 3.6 0 0 -14.39 3.59 0 0 -10.79 3.6 0 0 -10.79 3.6 0 0 -10.8 3.6 0 0 -14.38 3.59 0 0 -10.79 3.6 0 0 -14.39 3.6 0 0 -7.2 3.6 0 0 -14.39 3.6 0 0 -10.79 3.59 0 0 -10.79 3.6 0 0 -10.79 3.6 0 0 -7.2 3.59 0 0 -10.79 3.6 0 0 -10.79 3.6 0 0 -7.2 3.59 0 0 -10.79 3.6 0 0 -7.19 3.6 0 0 -7.19 3.59 0 0 -7.2 3.6 0 0 -7.19 3.6 0 0 -7.2 3.6 0 0 -7.19 3.59 0 0 -7.2 3.6 0 0 -3.6 3.6 0 0 -7.19 3.6 0 0 -3.6 3.6 0 0 -7.19 3.59 0 0 -3.6 3.6 0 0 -3.59 3.6 0 0 -3.6 3.59 0 0 -3.6 7.2 0 0 -3.6 3.59 0 0 -3.59 14.39 0 0 3.59 3.6 0 0 3.6 3.6 0 0 7.2 3.6 0 0 7.19 3.59 0 0 14.39 3.6 0 0 21.58 3.6 0 0 100.72 -3.6 0 0 50.37 -3.6 0 0 64.75 -3.59 0 0 172.66 3.59 0 0 25.18 3.6 0 0 46.77 3.6 0 0 35.97 3.59 0 0 35.97 3.6 0 0 35.97 3.6 0 0 28.78 3.6 0 0 21.58 3.59 0 0 32.38 3.6 0 0 32.37 3.6 0 0 35.98 3.59 0 0 28.77 3.6 0 0 53.96 3.6 0 0 10.79 3.59 0 0 68.35 3.6 0 0 39.57 3.6 0 0 86.33 3.6 0 0 97.13 3.59 0 0 35.97 3.6 0 0 111.51 3.6 0 0 50.37 -3.6 0 0 -7.2 -3.6 0 0 -10.79 -3.59 0 0 -7.2 -3.6 0 0 -7.19 -3.6 0 0 -7.2 -3.6 0 0 -10.79 -3.59 0 0 -7.19 -3.6 0 0 -7.19 -3.6 0 0 -3.6 -3.59 0 0 -7.2 -3.6 0 0 -3.59 -3.6 0 0 -7.2 -3.59 0 0 -3.6 -3.6 0 0 -7.19 -3.6 0 0 -3.6 -3.6 0 0 -3.6 -3.59 0 0 -3.59 -3.6 0 0 -3.6 -3.6 0 0 -3.6 -3.59 0 0 -3.59 -3.6 0 0 -3.6 -7.2 0 0 -3.6 -3.6 0 0 -3.59 -3.59 0 0 -3.6 -7.2 0 0 -3.6 -7.19 0 0 -3.6 -7.19 0 0 -3.59 -7.2 0 0 -3.6 -10.79 0 0 -3.6 -14.39 0 0 -3.59 -14.67 0zm83.02 -1223.06l7.19 0 0 3.6 3.6 0 0 3.59 3.6 0 0 3.6 3.59 0 0 7.2 3.6 0 0 7.19 3.6 0 0 7.2 3.6 0 0 10.79 3.59 0 0 17.98 3.6 0 0 143.89 -3.6 0 0 25.18 -3.59 0 0 233.82 3.59 0 0 50.36 3.6 0 0 50.36 3.6 0 0 32.38 3.59 0 0 28.78 3.6 0 0 39.57 3.6 0 0 28.77 3.59 0 0 35.98 3.6 0 0 17.98 3.6 0 0 43.17 3.6 0 0 21.58 3.59 0 0 32.38 3.6 0 0 50.36 3.6 0 0 35.97 3.6 0 0 57.56 3.59 0 0 57.55 3.6 0 0 53.96 3.6 0 0 122.31 3.6 0 0 75.54 3.59 0 0 75.54 3.6 0 0 68.35 3.6 0 0 28.77 3.59 0 0 14.39 3.6 0 0 17.99 3.6 0 0 10.79 3.59 0 0 14.39 3.6 0 0 17.98 3.6 0 0 14.4 3.6 0 0 3.59 3.59 0 0 17.99 3.6 0 0 10.79 3.6 0 0 17.98 3.6 0 0 14.4 3.6 0 0 14.38 3.59 0 0 14.39 3.6 0 0 17.99 3.6 0 0 17.98 3.59 0 0 97.13 -3.59 0 0 17.98 -3.6 0 0 21.59 -3.6 0 0 7.19 -3.59 0 0 10.79 -3.6 0 0 7.2 -3.6 0 0 10.79 -3.6 0 0 7.19 -3.6 0 0 7.2 -3.59 0 0 7.19 -3.6 0 0 3.6 -3.6 0 0 7.19 -3.6 0 0 7.2 -3.59 0 0 3.59 -3.6 0 0 3.6 -3.6 0 0 3.6 -3.59 0 0 7.19 -3.6 0 0 3.6 -3.6 0 0 3.6 -3.59 0 0 3.6 -3.6 0 0 3.6 -3.6 0 0 3.59 -3.6 0 0 3.6 -3.59 0 0 3.6 -3.6 0 0 3.59 -7.2 0 0 3.6 -3.59 0 0 3.6 -3.6 0 0 3.59 -3.6 0 0 3.6 -3.6 0 0 3.6 -7.19 0 0 3.59 -3.6 0 0 3.6 -7.19 0 0 3.6 -3.6 0 0 3.6 -3.59 0 0 3.59 -3.6 0 0 3.6 -7.2 0 0 3.6 -3.59 0 0 3.6 -7.2 0 0 3.6 -3.59 0 0 3.59 -3.6 0 0 3.6 -7.2 0 0 3.6 -3.6 0 0 3.59 -3.59 0 0 3.6 -7.2 0 0 3.6 -3.59 0 0 3.59 -3.6 0 0 3.6 -7.19 0 0 3.6 -3.6 0 0 3.59 -7.19 0 0 3.6 -7.2 0 0 3.6 -7.2 0 0 3.6 -7.19 0 0 3.6 -7.2 0 0 3.59 -14.38 0 0 3.6 -21.58 0 0 -3.6 -14.4 0 0 -3.59 -7.19 0 0 -3.6 -7.2 0 0 -3.6 -7.19 0 0 -3.6 -3.6 0 0 -3.6 -7.19 0 0 -3.59 -3.6 0 0 -3.6 -3.59 0 0 -3.6 -7.2 0 0 -3.59 -3.6 0 0 -3.6 -7.19 0 0 -3.6 -3.6 0 0 -3.59 -3.6 0 0 -3.6 -3.59 0 0 -3.6 -7.2 0 0 -3.59 -3.6 0 0 -3.6 -3.59 0 0 -3.6 -7.2 0 0 -3.6 -3.59 0 0 -3.6 -7.19 0 0 -3.59 -3.6 0 0 -3.6 -3.6 0 0 -3.6 -3.6 0 0 -3.6 -7.19 0 0 -3.59 -3.6 0 0 -3.6 -7.2 0 0 -3.6 -3.59 0 0 -3.59 -3.6 0 0 -3.6 -3.6 0 0 -3.6 -7.19 0 0 -3.59 -3.6 0 0 -3.6 -3.59 0 0 -3.6 -3.6 0 0 -3.59 -3.6 0 0 -3.6 -7.19 0 0 -3.6 -3.6 0 0 -3.6 -3.6 0 0 -3.6 -3.59 0 0 -3.59 -3.6 0 0 -7.2 -3.6 0 0 -3.6 -3.6 0 0 -3.59 -3.6 0 0 -3.6 -3.59 0 0 -7.19 -3.6 0 0 -3.6 -3.6 0 0 -7.19 -3.59 0 0 -7.2 -3.6 0 0 -7.19 -3.6 0 0 -10.8 -3.59 0 0 -10.79 -3.6 0 0 -17.98 -3.6 0 0 -10.79 -3.59 0 0 -79.14 3.59 0 0 -35.97 3.6 0 0 -28.78 3.6 0 0 -21.59 3.59 0 0 -17.98 3.6 0 0 -25.18 3.6 0 0 -14.39 3.59 0 0 -21.58 3.6 0 0 -21.59 3.6 0 0 -21.58 3.59 0 0 -21.58 3.6 0 0 -17.99 3.6 0 0 -43.17 3.6 0 0 -28.78 3.6 0 0 -53.95 3.59 0 0 -43.17 3.6 0 0 -50.36 3.6 0 0 -61.16 3.59 0 0 -46.76 3.6 0 0 -57.55 3.6 0 0 -57.56 3.6 0 0 -86.33 3.59 0 0 -28.78 3.6 0 0 -57.55 3.6 0 0 -43.17 3.59 0 0 -43.17 3.6 0 0 -28.78 3.6 0 0 -32.37 3.59 0 0 -25.18 3.6 0 0 -32.38 3.6 0 0 -25.18 3.6 0 0 -21.58 3.59 0 0 -21.58 3.6 0 0 -21.59 3.6 0 0 -14.39 3.6 0 0 -21.58 3.6 0 0 -14.39 3.59 0 0 -21.58 3.6 0 0 -10.79 3.59 0 0 -14.39 3.6 0 0 -25.18 3.6 0 0 -14.39 3.59 0 0 -14.39 3.6 0 0 -14.39 3.6 0 0 -10.79 3.6 0 0 -17.99 3.59 0 0 -14.39 3.6 0 0 -14.38 3.6 0 0 -7.2 3.6 0 0 -14.39 3.59 0 0 -14.39 3.6 0 0 -14.39 3.6 0 0 -10.79 3.6 0 0 -17.98 3.59 0 0 -10.8 3.6 0 0 -10.79 3.6 0 0 -14.39 3.59 0 0 -14.38 3.6 0 0 -10.8 3.6 0 0 -10.79 3.59 0 0 -10.79 3.6 0 0 -10.79 3.6 0 0 -7.2 3.6 0 0 -14.38 3.59 0 0 -10.8 3.6 0 0 -10.79 3.6 0 0 -7.19 3.6 0 0 -10.8 3.6 0 0 -10.79 3.59 0 0 -7.19 3.6 0 0 -7.19 3.6 0 0 -10.8 3.59 0 0 -7.19 3.6 0 0 -7.2 3.6 0 0 -7.19 3.59 0 0 -7.2 3.6 0 0 -3.59 3.6 0 0 -7.2 3.59 0 0 -3.59 3.6 0 0 -7.2 3.6 0 0 -3.59 3.6 0 0 -7.2 3.59 0 0 -3.6 3.6 0 0 -3.59 3.6 0 0 -3.6 3.6 0 0 -3.6 3.6 0 0 -3.6 7.19 0 0 -3.59 3.6 0 0 -3.6 10.79 0 0 -3.6 25.18 0 0 3.6z"/>
 </g>
</svg>