<?xml version="1.0" encoding="UTF-8"?>
<!DOCTYPE svg PUBLIC "-//W3C//DTD SVG 1.1//EN" "http://www.w3.org/Graphics/SVG/1.1/DTD/svg11.dtd">
<!-- Creator: CorelDRAW (Versión de evaluación) -->
<svg xmlns="http://www.w3.org/2000/svg" xml:space="preserve" width="739px" height="2458px" version="1.1" style="shape-rendering:geometricPrecision; text-rendering:geometricPrecision; image-rendering:optimizeQuality; fill-rule:evenodd; clip-rule:evenodd"
viewBox="0 0 739 2457.4"
 xmlns:xlink="http://www.w3.org/1999/xlink"
 xmlns:xodm="http://www.corel.com/coreldraw/odm/2003">
 <defs>
  <style type="text/css">
   <![CDATA[
    .str0 {stroke:#4B4B4D;stroke-width:10;stroke-miterlimit:22.9256}
    .fil1 {fill:#FEFEFE}
    .fil0 {fill:#F7BE14}
   ]]>
  </style>
 </defs>
 <g id="tooth-crown-17">
  <metadata id="CorelCorpID_0Corel-Layer"/>
  <path id="crown" class="fil0 str0" d="M106.9 2090.07c-25.95,-14.76 -20.43,-14.73 -24.63,-56.02 26.12,19.86 22.4,10.04 24.63,56.02 34.53,25.5 20.4,81.52 28.44,137.54 3.06,21.33 28.76,108 38.8,118.95 65.73,71.55 102.16,-76.92 135.36,-125.07 80.1,-2.78 88.81,76.99 142.29,157.67 62.63,94.46 97.16,105.17 174.32,22.38 106.87,-114.65 123.55,-386.09 106.93,-580.28 -27.47,-321.05 -84.77,-394.49 -247.59,-295.22 -183.06,111.61 -193.89,-177.65 -367.38,-75.5 -0.08,0.12 -149.36,460.26 -112.66,600.5 17.84,68.18 57.1,108.17 102.5,109.96l-1.01 -70.93zm172.99 253.61c33.11,73.95 87.81,69.94 132.59,21.3 -16.8,-76.27 -23.12,-77.16 -64.05,-122.21 -53.82,5.47 -53.07,23.68 -68.54,100.91z"/>
  <path id="root" class="fil1 str0" d="M246.51 30.64c1.2,50.38 -15.86,83.04 -38.75,152.96 -191.02,583.38 -113.68,612.86 -96.32,1224.59 50.19,13.32 80.43,-51.77 158.63,20.61 170.46,157.75 143.3,75.7 279.54,24.65 66.7,-25.01 91.35,36.64 129.31,43.23 10.55,-153.08 12.96,-258.78 31.31,-414.52 36.6,-310.77 7.72,-498.76 -77.16,-778.49 -21.61,-71.22 -66.93,-269.17 -124.91,-240.75 -27.96,161.62 49.24,399.57 1,658.23 -17.05,91.42 -93.49,482.07 -170,453.45 -118.98,-44.5 8.54,-923.24 -36.54,-1092.14 -18.77,-70.36 -22.08,-57.73 -56.11,-51.82zm82.79 1102.56c73.85,14 87.3,-112.82 109.13,-206.12 82.51,-352.55 78.11,-246.46 53.01,-661.74 -4.86,-80.28 -7.62,-254.92 -69.9,-265.33 -17.44,229.36 5.93,333.49 -90.19,524.52 -26.95,53.52 -15.8,238.44 -19.82,316.98 -7.48,146.22 -15.21,155.75 17.77,291.69z"/>
 </g>
</svg>
