<?xml version="1.0" encoding="UTF-8"?>
<!DOCTYPE svg PUBLIC "-//W3C//DTD SVG 1.1//EN" "http://www.w3.org/Graphics/SVG/1.1/DTD/svg11.dtd">
<!-- Creator: CorelDRAW (Versión de evaluación) -->
<svg xmlns="http://www.w3.org/2000/svg" xml:space="preserve" width="739px" height="2458px" version="1.1" style="shape-rendering:geometricPrecision; text-rendering:geometricPrecision; image-rendering:optimizeQuality; fill-rule:evenodd; clip-rule:evenodd"
viewBox="0 0 739 2457.4"
 xmlns:xlink="http://www.w3.org/1999/xlink"
 xmlns:xodm="http://www.corel.com/coreldraw/odm/2003">
 <defs>
  <style type="text/css">
   <![CDATA[
    .str0 {stroke:#373435;stroke-width:10;stroke-miterlimit:22.9256}
    .fil1 {fill:#FEFEFE}
    .fil0 {fill:#F7BE14}
   ]]>
  </style>
 </defs>
 <g id="tooth-crown-31">
  <metadata id="CorelCorpID_0Corel-Layer"/>
  <path id="crown" class="fil0 str0" d="M721.4 752.82c-146.62,39.86 -159.19,87.55 -275.23,159.21 -155.4,95.96 -212.36,-24.46 -285.55,-101.9 -52.21,-55.25 -94.62,-40.4 -118.71,-95.18 -59.14,-134.35 -39.17,-410.84 -38.67,-552.63 0.57,-156.98 88.65,-159.09 268.23,-162.24 76.6,-1.36 343.45,16.68 390.17,57.95 98.29,86.81 82.7,571.94 59.76,694.79z"/>
  <path id="root" class="fil1 str0" d="M463.06 2457.4c-107.49,-16.13 -113.27,-52.85 -149.8,-133.64 -23.6,-52.19 -52.93,-140.56 -64.73,-194.36 -37.1,-169.04 -41.77,-285.97 -43.94,-457.91 -2.89,-228.73 -59.9,-557.32 -114.99,-793.57 -3.13,-13.39 -11.19,-36.51 -12.93,-46.27l6.73 -40.93c108.72,52.08 122.28,225.88 314.54,174.79 125.7,-33.41 177.51,-155.31 322.89,-176.84 -113.6,472.34 -198.12,732.37 -220.72,1232.92l-12.67 350.81c-4.02,60.94 -16.92,33.65 -24.38,85z"/>
 </g>
</svg>
