<?xml version="1.0" encoding="UTF-8"?>
<!DOCTYPE svg PUBLIC "-//W3C//DTD SVG 1.1//EN" "http://www.w3.org/Graphics/SVG/1.1/DTD/svg11.dtd">
<!-- Creator: CorelDRAW (Versión de evaluación) -->
<svg xmlns="http://www.w3.org/2000/svg" xml:space="preserve" width="497px" height="2062px" version="1.1" style="shape-rendering:geometricPrecision; text-rendering:geometricPrecision; image-rendering:optimizeQuality; fill-rule:evenodd; clip-rule:evenodd"
viewBox="0 0 497 2063.64"
 xmlns:xlink="http://www.w3.org/1999/xlink"
 xmlns:xodm="http://www.corel.com/coreldraw/odm/2003">
 <defs>
  <style type="text/css">
   <![CDATA[
    .fil2 {fill:#4B4B4D}
    .fil1 {fill:#FFCC29}
    .fil0 {fill:#F2E6C9}
   ]]>
  </style>
 </defs>
 <g id="crown">
  <metadata id="CorelCorpID_0Corel-Layer"/>
  <polygon id="root" class="fil0" points="264.05,267.92 256.85,267.92 256.85,271.52 253.25,271.52 253.25,278.73 249.65,278.73 249.65,282.33 246.04,282.33 246.04,289.53 242.44,289.53 242.44,296.73 238.84,296.73 238.84,303.94 235.24,303.94 235.24,311.14 231.64,311.14 231.64,321.95 228.04,321.95 228.04,329.15 224.43,329.15 224.43,339.95 220.84,339.95 220.84,350.76 217.23,350.76 217.23,361.56 213.63,361.56 213.63,375.97 210.03,375.97 210.03,383.17 206.43,383.17 206.43,397.58 202.83,397.58 202.83,408.38 199.23,408.38 199.23,426.39 195.62,426.39 195.62,440.8 192.02,440.8 192.02,451.6 188.42,451.6 188.42,469.61 184.82,469.61 184.82,491.21 181.22,491.21 181.22,505.62 177.62,505.62 177.62,527.23 174.01,527.23 174.01,541.63 170.41,541.63 170.41,556.04 166.81,556.04 166.81,581.25 163.21,581.25 163.21,592.06 159.61,592.06 159.61,613.67 156.01,613.67 156.01,642.48 152.41,642.48 152.41,660.48 148.8,660.48 148.8,692.9 145.2,692.9 145.2,714.51 141.6,714.51 141.6,761.33 138,761.33 138,779.33 134.4,779.33 134.4,829.76 130.8,829.76 130.8,844.16 127.19,844.16 127.19,898.18 123.59,898.18 123.59,952.2 119.99,952.2 119.99,984.62 116.39,984.62 116.39,1063.85 112.79,1063.85 112.79,1114.27 109.19,1114.27 109.19,1254.73 105.58,1254.73 105.58,1344.77 101.99,1344.77 101.99,1380.78 98.38,1380.78 98.38,1434.8 94.78,1434.8 94.78,1445.61 98.38,1445.61 98.38,1438.4 101.99,1438.4 101.99,1434.8 105.58,1434.8 105.58,1427.6 109.19,1427.6 109.19,1424 112.79,1424 112.79,1416.79 116.39,1416.79 116.39,1413.19 119.99,1413.19 119.99,1405.99 123.59,1405.99 123.59,1402.39 127.19,1402.39 127.19,1398.79 130.8,1398.79 130.8,1395.19 134.4,1395.19 134.4,1391.58 138,1391.58 138,1387.98 141.6,1387.98 141.6,1384.38 145.2,1384.38 145.2,1380.78 148.8,1380.78 148.8,1377.18 156.01,1377.18 156.01,1373.58 159.61,1373.58 159.61,1369.97 163.21,1369.97 163.21,1366.38 170.41,1366.38 170.41,1362.77 177.62,1362.77 177.62,1359.17 184.82,1359.17 184.82,1355.57 195.62,1355.57 195.62,1351.97 206.43,1351.97 206.43,1348.37 220.84,1348.37 220.84,1344.77 267.65,1344.77 267.65,1348.37 278.46,1348.37 278.46,1351.97 289.26,1351.97 289.26,1355.57 296.47,1355.57 296.47,1359.17 303.67,1359.17 303.67,1362.77 310.87,1362.77 310.87,1366.38 314.47,1366.38 314.47,1369.97 321.67,1369.97 321.67,1373.58 325.28,1373.58 325.28,1377.18 328.88,1377.18 328.88,1380.78 332.48,1380.78 332.48,1384.38 339.68,1384.38 339.68,1387.98 343.28,1387.98 343.28,1395.19 346.89,1395.19 346.89,1398.79 350.49,1398.79 350.49,1402.39 354.09,1402.39 354.09,1405.99 357.69,1405.99 357.69,1409.59 361.29,1409.59 361.29,1413.19 364.89,1413.19 364.89,1420.4 368.49,1420.4 368.49,1424 372.1,1424 372.1,1427.6 375.7,1427.6 375.7,1434.8 379.3,1434.8 379.3,1442.01 382.9,1442.01 382.9,1445.61 386.5,1445.61 386.5,1452.81 390.1,1452.81 390.1,1460.01 393.71,1460.01 393.71,1467.21 397.3,1467.21 397.3,1470.82 400.91,1470.82 400.91,1478.02 404.51,1478.02 404.51,1434.8 400.91,1434.8 400.91,1384.38 397.3,1384.38 397.3,1333.96 393.71,1333.96 393.71,1283.54 390.1,1283.54 390.1,1215.11 386.5,1215.11 386.5,1175.49 382.9,1175.49 382.9,1143.08 379.3,1143.08 379.3,1110.67 375.7,1110.67 375.7,1078.25 372.1,1078.25 372.1,1038.64 368.49,1038.64 368.49,1017.03 364.89,1017.03 364.89,995.42 361.29,995.42 361.29,970.21 357.69,970.21 357.69,952.2 354.09,952.2 354.09,927 350.49,927 350.49,912.59 346.89,912.59 346.89,887.38 343.28,887.38 343.28,869.37 339.68,869.37 339.68,844.16 336.08,844.16 336.08,833.35 332.48,833.35 332.48,808.15 328.88,808.15 328.88,790.14 325.28,790.14 325.28,772.13 321.67,772.13 321.67,757.72 318.08,757.72 318.08,728.91 314.47,728.91 314.47,707.3 310.87,707.3 310.87,674.89 307.27,674.89 307.27,653.28 303.67,653.28 303.67,628.07 300.06,628.07 300.06,595.66 296.47,595.66 296.47,563.24 292.86,563.24 292.86,437.19 296.47,437.19 296.47,307.54 292.86,307.54 292.86,289.53 289.26,289.53 289.26,282.33 285.66,282.33 285.66,275.13 282.06,275.13 282.06,267.92 278.46,267.92 278.46,264.32 264.05,264.32 "/>
  <polygon id="crown_0" class="fil1" points="220.84,1366.38 213.63,1366.38 213.63,1369.97 199.23,1369.97 199.23,1373.58 192.02,1373.58 192.02,1377.18 184.82,1377.18 184.82,1380.78 177.62,1380.78 177.62,1384.38 174.01,1384.38 174.01,1387.98 166.81,1387.98 166.81,1391.58 163.21,1391.58 163.21,1395.19 159.61,1395.19 159.61,1398.79 156.01,1398.79 156.01,1402.39 152.41,1402.39 152.41,1405.99 148.8,1405.99 148.8,1409.59 145.2,1409.59 145.2,1413.19 141.6,1413.19 141.6,1416.79 138,1416.79 138,1420.4 134.4,1420.4 134.4,1427.6 130.8,1427.6 130.8,1431.2 127.19,1431.2 127.19,1434.8 123.59,1434.8 123.59,1442.01 119.99,1442.01 119.99,1445.61 116.39,1445.61 116.39,1452.81 112.79,1452.81 112.79,1456.41 109.19,1456.41 109.19,1463.62 105.58,1463.62 105.58,1470.82 101.99,1470.82 101.99,1478.02 98.38,1478.02 98.38,1485.22 94.78,1485.22 94.78,1496.03 91.18,1496.03 91.18,1506.83 87.58,1506.83 87.58,1517.64 83.98,1517.64 83.98,1532.04 80.38,1532.04 80.38,1550.05 76.77,1550.05 76.77,1560.86 73.17,1560.86 73.17,1571.66 69.57,1571.66 69.57,1582.47 65.97,1582.47 65.97,1593.27 62.37,1593.27 62.37,1604.07 58.77,1604.07 58.77,1614.88 55.16,1614.88 55.16,1625.68 51.56,1625.68 51.56,1636.49 47.96,1636.49 47.96,1650.89 44.36,1650.89 44.36,1658.1 40.76,1658.1 40.76,1668.9 37.16,1668.9 37.16,1683.3 33.56,1683.3 33.56,1690.51 29.95,1690.51 29.95,1704.91 26.36,1704.91 26.36,1726.52 22.75,1726.52 22.75,1740.93 19.15,1740.93 19.15,1805.76 22.75,1805.76 22.75,1823.76 26.36,1823.76 26.36,1838.17 29.95,1838.17 29.95,1848.97 33.56,1848.97 33.56,1859.78 37.16,1859.78 37.16,1866.98 40.76,1866.98 40.76,1870.58 44.36,1870.58 44.36,1877.78 47.96,1877.78 47.96,1881.39 51.56,1881.39 51.56,1884.98 55.16,1884.98 55.16,1888.59 58.77,1888.59 58.77,1892.19 62.37,1892.19 62.37,1895.79 65.97,1895.79 65.97,1899.39 69.57,1899.39 69.57,1902.99 76.77,1902.99 76.77,1906.59 80.38,1906.59 80.38,1910.2 87.58,1910.2 87.58,1913.8 91.18,1913.8 91.18,1917.4 98.38,1917.4 98.38,1921 105.58,1921 105.58,1924.6 109.19,1924.6 109.19,1928.2 116.39,1928.2 116.39,1931.81 123.59,1931.81 123.59,1935.41 130.8,1935.41 130.8,1939.01 134.4,1939.01 134.4,1942.61 138,1942.61 138,1946.21 145.2,1946.21 145.2,1949.81 152.41,1949.81 152.41,1953.41 159.61,1953.41 159.61,1957.02 163.21,1957.02 163.21,1960.62 166.81,1960.62 166.81,1964.22 174.01,1964.22 174.01,1967.82 177.62,1967.82 177.62,1971.42 184.82,1971.42 184.82,1975.02 188.42,1975.02 188.42,1978.63 192.02,1978.63 192.02,1982.23 199.23,1982.23 199.23,1985.83 206.43,1985.83 206.43,1989.43 210.03,1989.43 210.03,1993.03 217.23,1993.03 217.23,1996.63 228.04,1996.63 228.04,2000.24 271.25,2000.24 271.25,1996.63 278.46,1996.63 278.46,1993.03 285.66,1993.03 285.66,1989.43 292.86,1989.43 292.86,1985.83 296.47,1985.83 296.47,1982.23 303.67,1982.23 303.67,1978.63 307.27,1978.63 307.27,1975.02 310.87,1975.02 310.87,1971.42 318.08,1971.42 318.08,1967.82 321.67,1967.82 321.67,1964.22 325.28,1964.22 325.28,1960.62 332.48,1960.62 332.48,1957.02 336.08,1957.02 336.08,1953.41 339.68,1953.41 339.68,1949.81 346.89,1949.81 346.89,1946.21 350.49,1946.21 350.49,1942.61 357.69,1942.61 357.69,1939.01 361.29,1939.01 361.29,1935.41 368.49,1935.41 368.49,1931.81 375.7,1931.81 375.7,1928.2 379.3,1928.2 379.3,1924.6 386.5,1924.6 386.5,1921 390.1,1921 390.1,1917.4 397.3,1917.4 397.3,1913.8 400.91,1913.8 400.91,1910.2 408.11,1910.2 408.11,1906.59 415.32,1906.59 415.32,1902.99 418.91,1902.99 418.91,1899.39 426.12,1899.39 426.12,1895.79 429.72,1895.79 429.72,1892.19 433.32,1892.19 433.32,1888.59 436.92,1888.59 436.92,1884.98 440.52,1884.98 440.52,1881.39 444.13,1881.39 444.13,1877.78 447.73,1877.78 447.73,1874.18 451.33,1874.18 451.33,1866.98 454.93,1866.98 454.93,1863.38 458.53,1863.38 458.53,1856.17 462.13,1856.17 462.13,1848.97 465.73,1848.97 465.73,1841.77 469.34,1841.77 469.34,1823.76 472.94,1823.76 472.94,1744.53 469.34,1744.53 469.34,1726.52 465.73,1726.52 465.73,1708.52 462.13,1708.52 462.13,1694.11 458.53,1694.11 458.53,1683.3 454.93,1683.3 454.93,1672.5 451.33,1672.5 451.33,1658.1 447.73,1658.1 447.73,1650.89 444.13,1650.89 444.13,1640.09 440.52,1640.09 440.52,1629.28 436.92,1629.28 436.92,1618.48 433.32,1618.48 433.32,1611.27 429.72,1611.27 429.72,1596.87 426.12,1596.87 426.12,1589.67 422.52,1589.67 422.52,1578.86 418.91,1578.86 418.91,1568.06 415.32,1568.06 415.32,1557.25 411.71,1557.25 411.71,1546.45 408.11,1546.45 408.11,1532.04 404.51,1532.04 404.51,1528.44 400.91,1528.44 400.91,1517.64 397.3,1517.64 397.3,1510.43 393.71,1510.43 393.71,1503.23 390.1,1503.23 390.1,1492.43 386.5,1492.43 386.5,1485.22 382.9,1485.22 382.9,1478.02 379.3,1478.02 379.3,1474.42 375.7,1474.42 375.7,1467.21 372.1,1467.21 372.1,1460.01 368.49,1460.01 368.49,1452.81 364.89,1452.81 364.89,1445.61 361.29,1445.61 361.29,1442.01 357.69,1442.01 357.69,1434.8 354.09,1434.8 354.09,1431.2 350.49,1431.2 350.49,1427.6 346.89,1427.6 346.89,1420.4 343.28,1420.4 343.28,1416.79 339.68,1416.79 339.68,1413.19 336.08,1413.19 336.08,1409.59 332.48,1409.59 332.48,1405.99 328.88,1405.99 328.88,1402.39 325.28,1402.39 325.28,1398.79 321.67,1398.79 321.67,1395.19 318.08,1395.19 318.08,1391.58 314.47,1391.58 314.47,1387.98 310.87,1387.98 310.87,1384.38 307.27,1384.38 307.27,1380.78 300.06,1380.78 300.06,1377.18 292.86,1377.18 292.86,1373.58 285.66,1373.58 285.66,1369.97 274.86,1369.97 274.86,1366.38 260.45,1366.38 260.45,1362.77 220.84,1362.77 "/>
  <path id="outline" class="fil2" d="M19.15 1740.93l3.6 0 0 -14.41 3.61 0 0 -21.61 3.59 0 0 -14.4 3.61 0 0 -7.21 3.6 0 0 -14.4 3.6 0 0 -10.8 3.6 0 0 -7.21 3.6 0 0 -14.4 3.6 0 0 -10.81 3.6 0 0 -10.8 3.61 0 0 -10.81 3.6 0 0 -10.8 3.6 0 0 -10.8 3.6 0 0 -10.81 3.6 0 0 -10.8 3.6 0 0 -10.81 3.61 0 0 -18.01 3.6 0 0 -14.4 3.6 0 0 -10.81 3.6 0 0 -10.8 3.6 0 0 -10.81 3.6 0 0 -7.2 3.61 0 0 -7.2 3.59 0 0 -7.2 3.61 0 0 -7.21 3.6 0 0 -3.6 3.6 0 0 -7.2 3.6 0 0 -3.6 3.6 0 0 -7.21 3.6 0 0 -3.6 3.61 0 0 -3.6 3.6 0 0 -7.2 3.6 0 0 -3.61 3.6 0 0 -3.6 3.6 0 0 -3.6 3.6 0 0 -3.6 3.61 0 0 -3.6 3.6 0 0 -3.6 3.6 0 0 -3.6 3.6 0 0 -3.61 3.6 0 0 -3.6 7.2 0 0 -3.6 3.61 0 0 -3.6 7.2 0 0 -3.6 7.2 0 0 -3.6 7.21 0 0 -3.61 14.4 0 0 -3.59 7.21 0 0 -3.61 39.61 0 0 3.61 14.41 0 0 3.59 10.8 0 0 3.61 7.2 0 0 3.6 7.2 0 0 3.6 7.21 0 0 3.6 3.6 0 0 3.6 3.6 0 0 3.6 3.61 0 0 3.61 3.59 0 0 3.6 3.61 0 0 3.6 3.6 0 0 3.6 3.6 0 0 3.6 3.6 0 0 3.6 3.6 0 0 3.6 3.6 0 0 3.61 3.61 0 0 7.2 3.6 0 0 3.6 3.6 0 0 3.6 3.6 0 0 7.21 3.6 0 0 3.6 3.6 0 0 7.2 3.6 0 0 7.2 3.61 0 0 7.2 3.6 0 0 7.21 3.6 0 0 3.6 3.6 0 0 7.2 3.6 0 0 7.21 3.6 0 0 10.8 3.61 0 0 7.2 3.59 0 0 7.21 3.61 0 0 10.8 3.6 0 0 3.6 3.6 0 0 14.41 3.6 0 0 10.8 3.61 0 0 10.81 3.59 0 0 10.8 3.61 0 0 10.81 3.6 0 0 7.2 3.6 0 0 14.4 3.6 0 0 7.21 3.6 0 0 10.8 3.6 0 0 10.81 3.61 0 0 10.8 3.6 0 0 7.21 3.6 0 0 14.4 3.6 0 0 10.8 3.6 0 0 10.81 3.6 0 0 14.41 3.6 0 0 18 3.61 0 0 18.01 3.6 0 0 79.23 -3.6 0 0 18.01 -3.61 0 0 7.2 -3.6 0 0 7.2 -3.6 0 0 7.21 -3.6 0 0 3.6 -3.6 0 0 7.2 -3.6 0 0 3.6 -3.6 0 0 3.61 -3.61 0 0 3.59 -3.6 0 0 3.61 -3.6 0 0 3.6 -3.6 0 0 3.6 -3.6 0 0 3.6 -7.21 0 0 3.6 -3.59 0 0 3.6 -7.21 0 0 3.61 -7.2 0 0 3.6 -3.61 0 0 3.6 -7.2 0 0 3.6 -3.6 0 0 3.6 -7.2 0 0 3.6 -3.6 0 0 3.61 -7.21 0 0 3.6 -7.2 0 0 3.6 -3.6 0 0 3.6 -7.2 0 0 3.6 -3.6 0 0 3.6 -7.21 0 0 3.6 -3.6 0 0 3.61 -3.6 0 0 3.6 -7.2 0 0 3.6 -3.61 0 0 3.6 -3.59 0 0 3.6 -7.21 0 0 3.6 -3.6 0 0 3.61 -3.6 0 0 3.6 -7.2 0 0 3.6 -3.61 0 0 3.6 -7.2 0 0 3.6 -7.2 0 0 3.6 -7.21 0 0 3.61 -43.21 0 0 -3.61 -10.81 0 0 -3.6 -7.2 0 0 -3.6 -3.6 0 0 -3.6 -7.2 0 0 -3.6 -7.21 0 0 -3.6 -3.6 0 0 -3.61 -3.6 0 0 -3.6 -7.2 0 0 -3.6 -3.61 0 0 -3.6 -7.2 0 0 -3.6 -3.6 0 0 -3.6 -3.6 0 0 -3.61 -7.2 0 0 -3.6 -7.21 0 0 -3.6 -7.2 0 0 -3.6 -3.6 0 0 -3.6 -3.6 0 0 -3.6 -7.21 0 0 -3.6 -7.2 0 0 -3.61 -7.2 0 0 -3.6 -3.61 0 0 -3.6 -7.2 0 0 -3.6 -7.2 0 0 -3.6 -3.6 0 0 -3.6 -7.2 0 0 -3.61 -3.61 0 0 -3.6 -7.2 0 0 -3.6 -3.6 0 0 -3.6 -3.6 0 0 -3.6 -3.6 0 0 -3.6 -3.61 0 0 -3.61 -3.6 0 0 -3.59 -3.6 0 0 -3.61 -3.6 0 0 -7.2 -3.6 0 0 -3.6 -3.6 0 0 -7.2 -3.6 0 0 -10.81 -3.61 0 0 -10.8 -3.59 0 0 -14.41 -3.61 0 0 -18 -3.6 0 0 -64.83zm273.71 -1177.69l3.61 0 0 32.42 3.59 0 0 32.41 3.61 0 0 25.21 3.6 0 0 21.61 3.6 0 0 32.41 3.6 0 0 21.61 3.61 0 0 28.81 3.59 0 0 14.41 3.61 0 0 18.01 3.6 0 0 18.01 3.6 0 0 25.2 3.6 0 0 10.81 3.6 0 0 25.21 3.6 0 0 18.01 3.61 0 0 25.21 3.6 0 0 14.41 3.6 0 0 25.2 3.6 0 0 18.01 3.6 0 0 25.21 3.6 0 0 21.61 3.6 0 0 21.61 3.61 0 0 39.61 3.6 0 0 32.42 3.6 0 0 32.41 3.6 0 0 32.41 3.6 0 0 39.62 3.6 0 0 68.43 3.61 0 0 50.42 3.59 0 0 50.42 3.61 0 0 50.42 3.6 0 0 43.22 -3.6 0 0 -7.2 -3.61 0 0 -3.61 -3.59 0 0 -7.2 -3.61 0 0 -7.2 -3.6 0 0 -7.2 -3.6 0 0 -3.6 -3.6 0 0 -7.21 -3.6 0 0 -7.2 -3.6 0 0 -3.6 -3.61 0 0 -3.6 -3.6 0 0 -7.21 -3.6 0 0 -3.6 -3.6 0 0 -3.6 -3.6 0 0 -3.6 -3.6 0 0 -3.6 -3.6 0 0 -3.6 -3.61 0 0 -7.21 -3.6 0 0 -3.6 -7.2 0 0 -3.6 -3.6 0 0 -3.6 -3.6 0 0 -3.6 -3.61 0 0 -3.61 -7.2 0 0 -3.59 -3.6 0 0 -3.61 -7.2 0 0 -3.6 -7.2 0 0 -3.6 -7.21 0 0 -3.6 -10.8 0 0 -3.6 -10.81 0 0 -3.6 -46.81 0 0 3.6 -14.41 0 0 3.6 -10.81 0 0 3.6 -10.8 0 0 3.6 -7.2 0 0 3.6 -7.21 0 0 3.61 -7.2 0 0 3.59 -3.6 0 0 3.61 -3.6 0 0 3.6 -7.21 0 0 3.6 -3.6 0 0 3.6 -3.6 0 0 3.6 -3.6 0 0 3.6 -3.6 0 0 3.61 -3.6 0 0 3.6 -3.61 0 0 3.6 -3.6 0 0 3.6 -3.6 0 0 7.2 -3.6 0 0 3.6 -3.6 0 0 7.21 -3.6 0 0 3.6 -3.61 0 0 7.2 -3.59 0 0 3.6 -3.61 0 0 7.21 -3.6 0 0 -10.81 3.6 0 0 -54.02 3.61 0 0 -36.01 3.59 0 0 -90.04 3.61 0 0 -140.46 3.6 0 0 -50.42 3.6 0 0 -79.23 3.6 0 0 -32.42 3.6 0 0 -54.02 3.6 0 0 -54.02 3.61 0 0 -14.4 3.6 0 0 -50.43 3.6 0 0 -18 3.6 0 0 -46.82 3.6 0 0 -21.61 3.6 0 0 -32.42 3.61 0 0 -18 3.6 0 0 -28.81 3.6 0 0 -21.61 3.6 0 0 -10.81 3.6 0 0 -25.21 3.6 0 0 -14.41 3.6 0 0 -14.4 3.61 0 0 -21.61 3.6 0 0 -14.41 3.6 0 0 -21.6 3.6 0 0 -18.01 3.6 0 0 -10.8 3.6 0 0 -14.41 3.61 0 0 -18.01 3.6 0 0 -10.8 3.6 0 0 -14.41 3.6 0 0 -7.2 3.6 0 0 -14.41 3.6 0 0 -10.8 3.61 0 0 -10.81 3.59 0 0 -10.8 3.61 0 0 -7.2 3.6 0 0 -10.81 3.6 0 0 -7.2 3.6 0 0 -7.21 3.6 0 0 -7.2 3.6 0 0 -7.2 3.61 0 0 -3.6 3.6 0 0 -7.21 3.6 0 0 -3.6 7.2 0 0 -3.6 14.41 0 0 3.6 3.6 0 0 7.21 3.6 0 0 7.2 3.6 0 0 7.2 3.6 0 0 18.01 3.61 0 0 129.65 -3.61 0 0 126.05zm-32.41 -320.53l-7.2 0 0 3.6 -7.21 0 0 3.6 -3.6 0 0 3.61 -3.6 0 0 7.2 -3.6 0 0 3.6 -3.6 0 0 3.6 -3.6 0 0 7.21 -3.61 0 0 7.2 -3.59 0 0 7.2 -3.61 0 0 7.2 -3.6 0 0 7.21 -3.6 0 0 10.8 -3.6 0 0 7.21 -3.6 0 0 14.4 -3.6 0 0 10.8 -3.61 0 0 10.81 -3.6 0 0 7.2 -3.6 0 0 18.01 -3.6 0 0 10.81 -3.6 0 0 14.4 -3.6 0 0 7.2 -3.61 0 0 14.41 -3.6 0 0 14.4 -3.6 0 0 14.41 -3.6 0 0 21.61 -3.6 0 0 10.8 -3.6 0 0 25.22 -3.6 0 0 10.8 -3.61 0 0 21.61 -3.6 0 0 18.01 -3.6 0 0 21.6 -3.6 0 0 28.82 -3.6 0 0 14.4 -3.6 0 0 25.21 -3.61 0 0 25.21 -3.6 0 0 32.42 -3.6 0 0 18.01 -3.6 0 0 32.41 -3.6 0 0 36.01 -3.6 0 0 32.41 -3.61 0 0 43.22 -3.59 0 0 28.82 -3.61 0 0 46.81 -3.6 0 0 46.82 -3.6 0 0 147.66 -3.6 0 0 100.85 -3.6 0 0 90.03 -3.6 0 0 32.41 -3.61 0 0 46.82 -3.6 0 0 32.42 -3.6 0 0 46.82 -3.6 0 0 14.4 -3.6 0 0 18.01 -3.6 0 0 18.01 -3.61 0 0 7.2 -3.6 0 0 10.8 -3.6 0 0 10.81 -3.6 0 0 10.8 -3.6 0 0 10.81 -3.6 0 0 10.8 -3.6 0 0 7.21 -3.61 0 0 10.8 -3.59 0 0 14.41 -3.61 0 0 7.2 -3.6 0 0 14.4 -3.6 0 0 7.21 -3.6 0 0 14.4 -3.61 0 0 14.41 -3.59 0 0 18.01 -3.61 0 0 25.21 -3.6 0 0 82.83 3.6 0 0 10.81 3.61 0 0 14.4 3.59 0 0 10.81 3.61 0 0 7.2 3.6 0 0 7.2 3.6 0 0 7.21 3.6 0 0 3.59 3.61 0 0 7.21 3.59 0 0 3.6 3.61 0 0 3.6 3.6 0 0 3.6 3.6 0 0 3.6 3.6 0 0 3.61 3.6 0 0 3.6 3.6 0 0 3.6 3.6 0 0 3.6 7.21 0 0 3.6 3.6 0 0 3.6 7.2 0 0 3.61 7.21 0 0 3.6 3.6 0 0 3.6 7.2 0 0 3.6 3.6 0 0 3.6 7.21 0 0 3.6 7.2 0 0 3.6 3.6 0 0 3.61 7.2 0 0 3.6 7.2 0 0 3.6 7.21 0 0 3.6 3.6 0 0 3.6 3.6 0 0 3.6 7.2 0 0 3.61 7.21 0 0 3.6 3.6 0 0 3.6 3.6 0 0 3.6 7.2 0 0 3.6 3.6 0 0 3.6 7.21 0 0 3.61 7.2 0 0 3.59 3.6 0 0 3.61 7.21 0 0 3.6 7.2 0 0 3.6 7.2 0 0 3.6 7.21 0 0 3.6 14.4 0 0 3.6 28.81 0 0 -3.6 14.41 0 0 -3.6 7.2 0 0 -3.6 7.2 0 0 -3.6 7.2 0 0 -3.6 7.21 0 0 -3.61 3.6 0 0 -3.59 7.21 0 0 -3.61 3.59 0 0 -3.6 3.61 0 0 -3.6 7.2 0 0 -3.6 3.6 0 0 -3.6 7.2 0 0 -3.6 3.61 0 0 -3.61 3.6 0 0 -3.6 7.2 0 0 -3.6 3.6 0 0 -3.6 7.2 0 0 -3.6 3.61 0 0 -3.6 7.2 0 0 -3.61 3.6 0 0 -3.6 7.2 0 0 -3.6 3.61 0 0 -3.6 7.2 0 0 -3.6 7.2 0 0 -3.6 3.6 0 0 -3.6 7.2 0 0 -3.61 3.61 0 0 -3.6 7.2 0 0 -3.6 3.6 0 0 -3.6 3.6 0 0 -3.6 7.21 0 0 -3.6 3.6 0 0 -3.61 3.6 0 0 -3.6 3.6 0 0 -3.6 3.6 0 0 -3.6 3.6 0 0 -3.6 3.6 0 0 -3.6 3.61 0 0 -3.61 3.6 0 0 -3.59 3.6 0 0 -7.21 3.6 0 0 -7.2 3.6 0 0 -10.81 3.6 0 0 -7.2 3.61 0 0 -14.4 3.6 0 0 -18.01 3.6 0 0 -64.83 -3.6 0 0 -18 -3.6 0 0 -18.01 -3.61 0 0 -14.41 -3.6 0 0 -14.4 -3.6 0 0 -10.81 -3.6 0 0 -10.8 -3.6 0 0 -14.41 -3.6 0 0 -7.2 -3.61 0 0 -10.81 -3.6 0 0 -7.2 -3.6 0 0 -10.8 -3.6 0 0 -10.81 -3.6 0 0 -10.8 -3.6 0 0 -10.8 -3.6 0 0 -7.21 -3.61 0 0 -18.01 -3.6 0 0 -7.2 -3.6 0 0 -32.41 -3.6 0 0 -39.62 -3.6 0 0 -54.02 -3.6 0 0 -39.62 -3.61 0 0 -57.62 -3.59 0 0 -64.83 -3.61 0 0 -61.22 -3.6 0 0 -28.81 -3.6 0 0 -39.62 -3.6 0 0 -36.02 -3.61 0 0 -32.41 -3.59 0 0 -32.41 -3.61 0 0 -28.82 -3.6 0 0 -21.61 -3.6 0 0 -18 -3.6 0 0 -18.01 -3.6 0 0 -14.41 -3.6 0 0 -28.81 -3.61 0 0 -14.4 -3.6 0 0 -21.61 -3.6 0 0 -28.81 -3.6 0 0 -21.61 -3.6 0 0 -7.2 -3.6 0 0 -28.82 -3.6 0 0 -10.8 -3.61 0 0 -25.21 -3.6 0 0 -21.61 -3.6 0 0 -21.61 -3.6 0 0 -25.21 -3.6 0 0 -18.01 -3.6 0 0 -32.41 -3.61 0 0 -39.62 -3.59 0 0 -288.12 -3.61 0 0 -10.8 -3.6 0 0 -10.8 -3.6 0 0 -7.21 -3.6 0 0 -7.2 -3.61 0 0 -7.2 -3.59 0 0 -3.61 -3.61 0 0 -3.6 -3.6 0 0 -3.6 -7.2 0 0 -3.6 -21.61 0 0 3.6z"/>
 </g>
</svg>
