<!-- Creator: CorelDRAW (Versión de evaluación) -->
<svg xmlns="http://www.w3.org/2000/svg" xml:space="preserve" width="446px" height="2062px" version="1.1" style="shape-rendering:geometricPrecision; text-rendering:geometricPrecision; image-rendering:optimizeQuality; fill-rule:evenodd; clip-rule:evenodd"
viewBox="0 0 446 2060.93"
 xmlns:xlink="http://www.w3.org/1999/xlink"
 xmlns:xodm="http://www.corel.com/coreldraw/odm/2003">
 <defs>
  <style type="text/css">
   <![CDATA[
    .fil2 {fill:#4B4B4D}
    .fil0 {fill:#FFCC29}
    .fil1 {fill:#F2E6C9}
   ]]>
  </style>
 </defs>
 <g id="crown">
  <metadata id="CorelCorpID_0Corel-Layer"/>
  <polygon id="crown_0" class="fil0" points="193.96,1322.84 183.17,1322.84 183.17,1326.43 172.38,1326.43 172.38,1330.03 168.79,1330.03 168.79,1333.63 161.59,1333.63 161.59,1337.22 154.4,1337.22 154.4,1340.82 150.8,1340.82 150.8,1344.42 147.21,1344.42 147.21,1348.01 140.01,1348.01 140.01,1351.61 136.42,1351.61 136.42,1355.21 132.82,1355.21 132.82,1362.4 129.22,1362.4 129.22,1366 125.63,1366 125.63,1369.6 122.03,1369.6 122.03,1376.79 118.43,1376.79 118.43,1380.39 114.84,1380.39 114.84,1387.58 111.24,1387.58 111.24,1394.77 107.64,1394.77 107.64,1398.37 104.05,1398.37 104.05,1405.56 100.45,1405.56 100.45,1416.35 96.85,1416.35 96.85,1423.55 93.26,1423.55 93.26,1434.34 89.66,1434.34 89.66,1445.13 86.06,1445.13 86.06,1452.32 82.47,1452.32 82.47,1463.11 78.87,1463.11 78.87,1473.9 75.27,1473.9 75.27,1488.29 71.68,1488.29 71.68,1502.68 68.08,1502.68 68.08,1517.06 64.48,1517.06 64.48,1531.45 60.89,1531.45 60.89,1545.84 57.29,1545.84 57.29,1560.22 53.69,1560.22 53.69,1578.21 50.1,1578.21 50.1,1599.79 46.5,1599.79 46.5,1610.58 42.9,1610.58 42.9,1628.56 39.31,1628.56 39.31,1646.54 35.71,1646.54 35.71,1668.12 32.11,1668.12 32.11,1696.9 28.52,1696.9 28.52,1718.48 24.92,1718.48 24.92,1869.54 28.52,1869.54 28.52,1880.34 32.11,1880.34 32.11,1898.32 35.71,1898.32 35.71,1905.51 39.31,1905.51 39.31,1916.3 42.9,1916.3 42.9,1919.9 46.5,1919.9 46.5,1923.49 50.1,1923.49 50.1,1927.09 53.69,1927.09 53.69,1930.69 57.29,1930.69 57.29,1937.88 64.48,1937.88 64.48,1941.48 68.08,1941.48 68.08,1945.07 75.27,1945.07 75.27,1948.67 86.06,1948.67 86.06,1952.27 93.26,1952.27 93.26,1955.86 104.05,1955.86 104.05,1959.46 114.84,1959.46 114.84,1963.06 125.63,1963.06 125.63,1966.65 140.01,1966.65 140.01,1970.25 161.59,1970.25 161.59,1973.85 179.58,1973.85 179.58,1977.44 337.84,1977.44 337.84,1973.85 359.42,1973.85 359.42,1970.25 370.21,1970.25 370.21,1966.65 381,1966.65 381,1963.06 388.19,1963.06 388.19,1959.46 395.39,1959.46 395.39,1955.86 402.58,1955.86 402.58,1952.27 406.18,1952.27 406.18,1945.07 409.77,1945.07 409.77,1937.88 413.37,1937.88 413.37,1927.09 416.97,1927.09 416.97,1916.3 420.56,1916.3 420.56,1876.74 424.16,1876.74 424.16,1808.4 420.56,1808.4 420.56,1761.64 416.97,1761.64 416.97,1743.66 413.37,1743.66 413.37,1711.28 409.77,1711.28 409.77,1682.51 406.18,1682.51 406.18,1664.53 402.58,1664.53 402.58,1646.54 398.98,1646.54 398.98,1632.16 395.39,1632.16 395.39,1610.58 391.79,1610.58 391.79,1596.19 388.19,1596.19 388.19,1581.8 384.6,1581.8 384.6,1567.42 381,1567.42 381,1556.63 377.4,1556.63 377.4,1545.84 373.81,1545.84 373.81,1535.05 370.21,1535.05 370.21,1524.26 366.61,1524.26 366.61,1509.87 363.02,1509.87 363.02,1499.08 359.42,1499.08 359.42,1488.29 355.82,1488.29 355.82,1477.5 352.22,1477.5 352.22,1466.71 348.63,1466.71 348.63,1455.92 345.03,1455.92 345.03,1448.73 341.43,1448.73 341.43,1441.53 337.84,1441.53 337.84,1430.74 334.24,1430.74 334.24,1423.55 330.64,1423.55 330.64,1412.76 327.05,1412.76 327.05,1405.56 323.45,1405.56 323.45,1401.97 319.85,1401.97 319.85,1394.77 316.26,1394.77 316.26,1391.18 312.66,1391.18 312.66,1383.98 309.06,1383.98 309.06,1380.39 305.47,1380.39 305.47,1373.19 301.87,1373.19 301.87,1369.6 298.27,1369.6 298.27,1366 294.68,1366 294.68,1362.4 291.08,1362.4 291.08,1355.21 287.48,1355.21 287.48,1351.61 280.29,1351.61 280.29,1348.01 276.69,1348.01 276.69,1344.42 273.09,1344.42 273.09,1340.82 269.5,1340.82 269.5,1337.22 262.3,1337.22 262.3,1333.63 255.11,1333.63 255.11,1330.03 251.51,1330.03 251.51,1326.43 244.32,1326.43 244.32,1322.84 233.53,1322.84 233.53,1319.24 193.96,1319.24 "/>
  <polygon id="root" class="fil1" points="183.17,286.98 175.98,286.98 175.98,294.17 172.38,294.17 172.38,301.36 168.79,301.36 168.79,304.96 165.19,304.96 165.19,330.14 161.59,330.14 161.59,463.21 165.19,463.21 165.19,610.68 161.59,610.68 161.59,650.25 158,650.25 158,689.81 154.4,689.81 154.4,714.99 150.8,714.99 150.8,754.55 147.21,754.55 147.21,768.94 143.61,768.94 143.61,797.71 140.01,797.71 140.01,826.49 136.42,826.49 136.42,851.66 132.82,851.66 132.82,869.65 129.22,869.65 129.22,891.23 125.63,891.23 125.63,916.4 122.03,916.4 122.03,941.58 118.43,941.58 118.43,966.76 114.84,966.76 114.84,984.74 111.24,984.74 111.24,1013.52 107.64,1013.52 107.64,1035.1 104.05,1035.1 104.05,1063.87 100.45,1063.87 100.45,1099.84 96.85,1099.84 96.85,1135.81 93.26,1135.81 93.26,1182.56 89.66,1182.56 89.66,1229.32 86.06,1229.32 86.06,1301.26 82.47,1301.26 82.47,1355.21 78.87,1355.21 78.87,1394.77 75.27,1394.77 75.27,1416.35 78.87,1416.35 78.87,1412.76 82.47,1412.76 82.47,1401.97 86.06,1401.97 86.06,1394.77 89.66,1394.77 89.66,1387.58 93.26,1387.58 93.26,1380.39 96.85,1380.39 96.85,1373.19 100.45,1373.19 100.45,1369.6 104.05,1369.6 104.05,1362.4 107.64,1362.4 107.64,1358.8 111.24,1358.8 111.24,1355.21 114.84,1355.21 114.84,1351.61 118.43,1351.61 118.43,1348.01 122.03,1348.01 122.03,1344.42 125.63,1344.42 125.63,1340.82 129.22,1340.82 129.22,1337.22 132.82,1337.22 132.82,1330.03 140.01,1330.03 140.01,1326.43 143.61,1326.43 143.61,1322.84 150.8,1322.84 150.8,1319.24 154.4,1319.24 154.4,1315.64 161.59,1315.64 161.59,1312.05 172.38,1312.05 172.38,1308.45 179.58,1308.45 179.58,1304.85 193.96,1304.85 193.96,1301.26 229.93,1301.26 229.93,1304.85 244.32,1304.85 244.32,1308.45 251.51,1308.45 251.51,1312.05 262.3,1312.05 262.3,1315.64 269.5,1315.64 269.5,1319.24 273.09,1319.24 273.09,1322.84 280.29,1322.84 280.29,1326.43 283.89,1326.43 283.89,1330.03 287.48,1330.03 287.48,1333.63 291.08,1333.63 291.08,1337.22 294.68,1337.22 294.68,1340.82 301.87,1340.82 301.87,1344.42 305.47,1344.42 305.47,1348.01 309.06,1348.01 309.06,1351.61 312.66,1351.61 312.66,1358.8 316.26,1358.8 316.26,1362.4 319.85,1362.4 319.85,1366 323.45,1366 323.45,1373.19 327.05,1373.19 327.05,1376.79 330.64,1376.79 330.64,1383.98 334.24,1383.98 334.24,1391.18 337.84,1391.18 337.84,1394.77 341.43,1394.77 341.43,1401.97 345.03,1401.97 345.03,1409.16 348.63,1409.16 348.63,1416.35 352.22,1416.35 352.22,1423.55 355.82,1423.55 355.82,1434.34 359.42,1434.34 359.42,1441.53 363.02,1441.53 363.02,1448.73 366.61,1448.73 366.61,1455.92 370.21,1455.92 370.21,1437.93 366.61,1437.93 366.61,1376.79 363.02,1376.79 363.02,1315.64 359.42,1315.64 359.42,1247.3 355.82,1247.3 355.82,1160.98 352.22,1160.98 352.22,1107.03 348.63,1107.03 348.63,984.74 345.03,984.74 345.03,955.97 341.43,955.97 341.43,894.82 337.84,894.82 337.84,855.26 334.24,855.26 334.24,819.29 330.64,819.29 330.64,786.92 327.05,786.92 327.05,750.96 323.45,750.96 323.45,722.18 319.85,722.18 319.85,697.01 316.26,697.01 316.26,679.02 312.66,679.02 312.66,650.25 309.06,650.25 309.06,632.26 305.47,632.26 305.47,610.68 301.87,610.68 301.87,589.1 298.27,589.1 298.27,574.72 294.68,574.72 294.68,553.13 291.08,553.13 291.08,538.75 287.48,538.75 287.48,517.17 283.89,517.17 283.89,502.78 280.29,502.78 280.29,491.99 276.69,491.99 276.69,474 273.09,474 273.09,459.62 269.5,459.62 269.5,452.42 265.9,452.42 265.9,438.04 262.3,438.04 262.3,423.65 258.71,423.65 258.71,412.86 255.11,412.86 255.11,402.07 251.51,402.07 251.51,387.68 247.92,387.68 247.92,380.49 244.32,380.49 244.32,369.7 240.72,369.7 240.72,358.91 237.13,358.91 237.13,351.72 233.53,351.72 233.53,340.93 229.93,340.93 229.93,333.73 226.34,333.73 226.34,322.94 222.74,322.94 222.74,315.75 219.14,315.75 219.14,308.56 215.55,308.56 215.55,304.96 211.95,304.96 211.95,297.77 208.35,297.77 208.35,294.17 204.76,294.17 204.76,290.57 201.16,290.57 201.16,286.98 197.56,286.98 197.56,283.38 183.17,283.38 "/>
  <path id="outline" class="fil2" d="M24.92 1718.48l3.6 0 0 -21.58 3.59 0 0 -28.78 3.6 0 0 -21.58 3.6 0 0 -17.98 3.59 0 0 -17.98 3.6 0 0 -10.79 3.6 0 0 -21.58 3.59 0 0 -17.99 3.6 0 0 -14.38 3.6 0 0 -14.39 3.59 0 0 -14.39 3.6 0 0 -14.38 3.6 0 0 -14.39 3.59 0 0 -14.39 3.6 0 0 -10.79 3.6 0 0 -10.79 3.59 0 0 -7.19 3.6 0 0 -10.79 3.6 0 0 -10.79 3.59 0 0 -7.2 3.6 0 0 -10.79 3.6 0 0 -7.19 3.59 0 0 -3.6 3.6 0 0 -7.19 3.6 0 0 -7.19 3.59 0 0 -3.6 3.6 0 0 -7.19 3.6 0 0 -3.6 3.59 0 0 -3.6 3.6 0 0 -7.19 3.6 0 0 -3.6 3.59 0 0 -3.6 7.2 0 0 -3.59 3.59 0 0 -3.6 3.6 0 0 -3.6 7.19 0 0 -3.59 7.2 0 0 -3.6 3.59 0 0 -3.6 10.79 0 0 -3.59 10.79 0 0 -3.6 39.57 0 0 3.6 10.79 0 0 3.59 7.19 0 0 3.6 3.6 0 0 3.6 7.19 0 0 3.59 7.2 0 0 3.6 3.59 0 0 3.6 3.6 0 0 3.59 3.6 0 0 3.6 7.19 0 0 3.6 3.6 0 0 7.19 3.6 0 0 3.6 3.59 0 0 3.6 3.6 0 0 3.59 3.6 0 0 7.2 3.59 0 0 3.59 3.6 0 0 7.2 3.6 0 0 3.59 3.59 0 0 7.2 3.6 0 0 3.59 3.6 0 0 7.2 3.59 0 0 10.79 3.6 0 0 7.19 3.6 0 0 10.79 3.59 0 0 7.2 3.6 0 0 7.19 3.6 0 0 10.79 3.59 0 0 10.79 3.6 0 0 10.79 3.6 0 0 10.79 3.6 0 0 10.79 3.59 0 0 14.39 3.6 0 0 10.79 3.6 0 0 10.79 3.59 0 0 10.79 3.6 0 0 10.79 3.6 0 0 14.38 3.59 0 0 14.39 3.6 0 0 14.39 3.6 0 0 21.58 3.59 0 0 14.38 3.6 0 0 17.99 3.6 0 0 17.98 3.59 0 0 28.77 3.6 0 0 32.38 3.6 0 0 17.98 3.59 0 0 46.76 3.6 0 0 68.34 -3.6 0 0 39.56 -3.59 0 0 10.79 -3.6 0 0 10.79 -3.6 0 0 7.19 -3.59 0 0 7.2 -3.6 0 0 3.59 -7.19 0 0 3.6 -7.2 0 0 3.6 -7.19 0 0 3.59 -10.79 0 0 3.6 -10.79 0 0 3.6 -21.58 0 0 3.59 -158.26 0 0 -3.59 -17.99 0 0 -3.6 -21.58 0 0 -3.6 -14.38 0 0 -3.59 -10.79 0 0 -3.6 -10.79 0 0 -3.6 -10.79 0 0 -3.59 -7.2 0 0 -3.6 -10.79 0 0 -3.6 -7.19 0 0 -3.59 -3.6 0 0 -3.6 -7.19 0 0 -7.19 -3.6 0 0 -3.6 -3.59 0 0 -3.6 -3.6 0 0 -3.59 -3.6 0 0 -3.6 -3.59 0 0 -10.79 -3.6 0 0 -7.19 -3.6 0 0 -17.98 -3.59 0 0 -10.8 -3.6 0 0 -151.06zm136.67 -1388.34l3.6 0 0 -25.18 3.6 0 0 -3.6 3.59 0 0 -7.19 3.6 0 0 -7.19 7.19 0 0 -3.6 14.39 0 0 3.6 3.6 0 0 3.59 3.6 0 0 3.6 3.59 0 0 3.6 3.6 0 0 7.19 3.6 0 0 3.6 3.59 0 0 7.19 3.6 0 0 7.19 3.6 0 0 10.79 3.59 0 0 7.2 3.6 0 0 10.79 3.6 0 0 7.19 3.59 0 0 10.79 3.6 0 0 10.79 3.6 0 0 7.19 3.59 0 0 14.39 3.6 0 0 10.79 3.6 0 0 10.79 3.59 0 0 14.39 3.6 0 0 14.38 3.6 0 0 7.2 3.59 0 0 14.38 3.6 0 0 17.99 3.6 0 0 10.79 3.6 0 0 14.39 3.59 0 0 21.58 3.6 0 0 14.38 3.6 0 0 21.59 3.59 0 0 14.38 3.6 0 0 21.58 3.6 0 0 21.58 3.59 0 0 17.99 3.6 0 0 28.77 3.6 0 0 17.99 3.59 0 0 25.17 3.6 0 0 28.78 3.6 0 0 35.96 3.59 0 0 32.37 3.6 0 0 35.97 3.6 0 0 39.56 3.59 0 0 61.15 3.6 0 0 28.77 3.6 0 0 122.29 3.59 0 0 53.95 3.6 0 0 86.32 3.6 0 0 68.34 3.6 0 0 61.15 3.59 0 0 61.14 3.6 0 0 17.99 -3.6 0 0 -7.19 -3.59 0 0 -7.2 -3.6 0 0 -7.19 -3.6 0 0 -10.79 -3.6 0 0 -7.2 -3.59 0 0 -7.19 -3.6 0 0 -7.19 -3.6 0 0 -7.2 -3.59 0 0 -3.59 -3.6 0 0 -7.2 -3.6 0 0 -7.19 -3.59 0 0 -3.6 -3.6 0 0 -7.19 -3.6 0 0 -3.6 -3.59 0 0 -3.6 -3.6 0 0 -7.19 -3.6 0 0 -3.6 -3.59 0 0 -3.59 -3.6 0 0 -3.6 -7.19 0 0 -3.6 -3.6 0 0 -3.59 -3.6 0 0 -3.6 -3.59 0 0 -3.6 -3.6 0 0 -3.59 -7.2 0 0 -3.6 -3.59 0 0 -3.6 -7.2 0 0 -3.59 -10.79 0 0 -3.6 -7.19 0 0 -3.6 -14.39 0 0 -3.59 -35.97 0 0 3.59 -14.38 0 0 3.6 -7.2 0 0 3.6 -10.79 0 0 3.59 -7.19 0 0 3.6 -3.6 0 0 3.6 -7.19 0 0 3.59 -3.6 0 0 3.6 -7.19 0 0 7.19 -3.6 0 0 3.6 -3.59 0 0 3.6 -3.6 0 0 3.59 -3.6 0 0 3.6 -3.59 0 0 3.6 -3.6 0 0 3.59 -3.6 0 0 3.6 -3.59 0 0 7.2 -3.6 0 0 3.59 -3.6 0 0 7.2 -3.59 0 0 7.19 -3.6 0 0 7.19 -3.6 0 0 7.2 -3.59 0 0 10.79 -3.6 0 0 3.59 -3.6 0 0 -21.58 3.6 0 0 -39.56 3.6 0 0 -53.95 3.59 0 0 -71.94 3.6 0 0 -46.76 3.6 0 0 -46.75 3.59 0 0 -35.97 3.6 0 0 -35.97 3.6 0 0 -28.77 3.59 0 0 -21.58 3.6 0 0 -28.78 3.6 0 0 -17.98 3.59 0 0 -25.18 3.6 0 0 -25.18 3.6 0 0 -25.17 3.59 0 0 -21.58 3.6 0 0 -17.99 3.6 0 0 -25.17 3.59 0 0 -28.78 3.6 0 0 -28.77 3.6 0 0 -14.39 3.59 0 0 -39.56 3.6 0 0 -25.18 3.6 0 0 -39.56 3.59 0 0 -39.57 3.6 0 0 -147.47 -3.6 0 0 -133.07zm17.99 -68.34l-7.2 0 0 3.6 -3.59 0 0 3.59 -3.6 0 0 3.6 -3.6 0 0 3.6 -3.59 0 0 3.59 -3.6 0 0 7.2 -3.6 0 0 7.19 -3.59 0 0 7.19 -3.6 0 0 14.39 -3.6 0 0 21.58 -3.59 0 0 89.92 3.59 0 0 46.75 3.6 0 0 129.49 -3.6 0 0 43.16 -3.59 0 0 28.78 -3.6 0 0 32.37 -3.6 0 0 43.16 -3.59 0 0 21.58 -3.6 0 0 32.37 -3.6 0 0 14.38 -3.59 0 0 17.99 -3.6 0 0 17.98 -3.6 0 0 25.18 -3.59 0 0 21.58 -3.6 0 0 28.77 -3.6 0 0 17.99 -3.59 0 0 25.17 -3.6 0 0 21.58 -3.6 0 0 21.59 -3.59 0 0 39.56 -3.6 0 0 32.37 -3.6 0 0 32.37 -3.59 0 0 32.37 -3.6 0 0 75.53 -3.6 0 0 64.74 -3.59 0 0 64.74 -3.6 0 0 61.15 -3.6 0 0 43.16 -3.59 0 0 32.37 -3.6 0 0 10.79 -3.6 0 0 21.58 -3.59 0 0 10.79 -3.6 0 0 17.99 -3.6 0 0 14.38 -3.59 0 0 14.39 -3.6 0 0 14.39 -3.6 0 0 14.38 -3.59 0 0 17.99 -3.6 0 0 17.98 -3.6 0 0 21.58 -3.59 0 0 25.18 -3.6 0 0 57.55 -3.6 0 0 82.72 3.6 0 0 35.97 3.6 0 0 17.98 3.59 0 0 17.99 3.6 0 0 7.19 3.6 0 0 7.19 3.59 0 0 3.6 3.6 0 0 7.19 3.6 0 0 3.6 3.59 0 0 7.19 3.6 0 0 3.6 3.6 0 0 3.6 7.19 0 0 3.59 3.6 0 0 3.6 3.59 0 0 3.6 7.2 0 0 3.59 7.19 0 0 3.6 7.19 0 0 3.6 7.2 0 0 3.59 10.79 0 0 3.6 10.79 0 0 3.6 17.98 0 0 3.59 10.79 0 0 3.6 21.58 0 0 3.6 17.98 0 0 3.59 21.58 0 0 3.6 133.09 0 0 -3.6 21.58 0 0 -3.59 21.58 0 0 -3.6 14.39 0 0 -3.6 7.19 0 0 -3.59 7.19 0 0 -3.6 7.2 0 0 -3.6 7.19 0 0 -3.59 3.6 0 0 -3.6 3.59 0 0 -3.6 3.6 0 0 -7.19 3.6 0 0 -3.6 3.59 0 0 -7.19 3.6 0 0 -7.19 3.6 0 0 -17.99 3.59 0 0 -25.17 3.6 0 0 -107.91 -3.6 0 0 -43.16 -3.59 0 0 -21.58 -3.6 0 0 -28.77 -3.6 0 0 -21.58 -3.59 0 0 -14.39 -3.6 0 0 -17.98 -3.6 0 0 -21.58 -3.59 0 0 -10.79 -3.6 0 0 -21.58 -3.6 0 0 -10.79 -3.59 0 0 -10.79 -3.6 0 0 -14.39 -3.6 0 0 -25.18 -3.59 0 0 -57.54 -3.6 0 0 -46.76 -3.6 0 0 -64.75 -3.59 0 0 -53.95 -3.6 0 0 -68.34 -3.6 0 0 -93.51 -3.59 0 0 -61.14 -3.6 0 0 -75.53 -3.6 0 0 -57.55 -3.59 0 0 -64.75 -3.6 0 0 -32.37 -3.6 0 0 -35.96 -3.6 0 0 -46.76 -3.59 0 0 -28.77 -3.6 0 0 -28.78 -3.6 0 0 -21.58 -3.59 0 0 -14.38 -3.6 0 0 -25.18 -3.6 0 0 -21.58 -3.59 0 0 -25.18 -3.6 0 0 -21.58 -3.6 0 0 -14.39 -3.59 0 0 -21.58 -3.6 0 0 -17.98 -3.6 0 0 -10.79 -3.59 0 0 -14.39 -3.6 0 0 -14.39 -3.6 0 0 -14.39 -3.59 0 0 -17.98 -3.6 0 0 -14.39 -3.6 0 0 -10.79 -3.59 0 0 -7.19 -3.6 0 0 -17.98 -3.6 0 0 -7.2 -3.6 0 0 -14.38 -3.59 0 0 -10.79 -3.6 0 0 -7.2 -3.6 0 0 -14.38 -3.59 0 0 -7.2 -3.6 0 0 -10.79 -3.6 0 0 -7.19 -3.59 0 0 -10.79 -3.6 0 0 -7.19 -3.6 0 0 -7.2 -3.59 0 0 -7.19 -3.6 0 0 -3.6 -3.6 0 0 -7.19 -3.59 0 0 -3.6 -3.6 0 0 -3.59 -3.6 0 0 -7.2 -7.19 0 0 -3.59 -3.6 0 0 -3.6 -7.19 0 0 -3.6 -21.58 0 0 3.6z"/>
 </g>
</svg>