<?xml version="1.0" encoding="UTF-8"?>
<!DOCTYPE svg PUBLIC "-//W3C//DTD SVG 1.1//EN" "http://www.w3.org/Graphics/SVG/1.1/DTD/svg11.dtd">
<!-- Creator: CorelDRAW (Versión de evaluación) -->
<svg xmlns="http://www.w3.org/2000/svg" xml:space="preserve" width="739px" height="2458px" version="1.1" style="shape-rendering:geometricPrecision; text-rendering:geometricPrecision; image-rendering:optimizeQuality; fill-rule:evenodd; clip-rule:evenodd"
viewBox="0 0 739 2457.4"
 xmlns:xlink="http://www.w3.org/1999/xlink"
 xmlns:xodm="http://www.corel.com/coreldraw/odm/2003">
 <defs>
  <style type="text/css">
   <![CDATA[
    .str0 {stroke:#373435;stroke-width:10;stroke-miterlimit:22.9256}
    .fil0 {fill:#FEFEFE}
    .fil1 {fill:#F7BE14}
   ]]>
  </style>
 </defs>
 <g id="tooth-crown-38">
  <metadata id="CorelCorpID_0Corel-Layer"/>
  <path id="root" class="fil0 str0" d="M664.44 827.52c38.35,253.59 66.5,562.49 59.7,826.16 -4.02,155.82 -68.29,631.75 -179.9,607.67 -21.28,-85.72 -6.25,-439.79 -15.85,-581.05 -12.49,-183.64 -22.99,-304.49 -103.84,-429.34 -97.42,-11.31 -103.5,71.98 -112.74,213.98 -7.22,111.16 2.2,258.71 17.69,365.91 22.86,158.37 109.08,495.03 99.19,619.87 -53.89,33.68 -98.83,-68.09 -133.15,-124.75 -118.79,-196.04 -183.27,-466.07 -213.69,-739.36 -25.7,-230.91 -20.72,-445.48 -4.88,-676.23 4.46,-65.07 2.63,-72.59 43.09,-106.1 18.74,-15.51 57.61,-37.71 77,-42.09 80.47,-20.24 232.27,197.98 467.38,65.33z"/>
  <path id="crown" class="fil1 str0" d="M580.57 89.09l-13.25 -10.32c82.72,-57.36 109.39,-87.38 148.24,82.45 45.87,200.52 26.59,588.74 -88.6,637.59 -215.99,91.58 -237.44,-77.6 -402.91,-75.49 -79.34,1.05 -104.9,60.33 -152.4,68.85 -76.88,-188.48 -115.64,-685.66 5.32,-773.95 40.18,-29.33 131.99,16.93 161.87,59.82l-39.12 51.37c62.71,3.92 44.19,-36.21 91.1,-66.32 213.32,-136.96 149.59,-22.38 291.73,74.56l28.62 -0.9 -30.6 -47.66z"/>
 </g>
</svg>
