<?xml version="1.0" encoding="UTF-8"?>
<!DOCTYPE svg PUBLIC "-//W3C//DTD SVG 1.1//EN" "http://www.w3.org/Graphics/SVG/1.1/DTD/svg11.dtd">
<!-- Creator: CorelDRAW (Versión de evaluación) -->
<svg xmlns="http://www.w3.org/2000/svg" xml:space="preserve" width="446px" height="2062px" version="1.1" style="shape-rendering:geometricPrecision; text-rendering:geometricPrecision; image-rendering:optimizeQuality; fill-rule:evenodd; clip-rule:evenodd"
viewBox="0 0 446 2060.93"
 xmlns:xlink="http://www.w3.org/1999/xlink"
 xmlns:xodm="http://www.corel.com/coreldraw/odm/2003">
 <defs>
  <style type="text/css">
   <![CDATA[
    .fil2 {fill:#4B4B4D}
    .fil0 {fill:#FFCC29}
    .fil1 {fill:#F2E6C9}
   ]]>
  </style>
 </defs>
 <g id="crown">
  <metadata id="CorelCorpID_0Corel-Layer"/>
  <polygon id="crown_0" class="fil0" points="251.52,1322.84 262.31,1322.84 262.31,1326.43 273.1,1326.43 273.1,1330.03 276.69,1330.03 276.69,1333.63 283.89,1333.63 283.89,1337.22 291.08,1337.22 291.08,1340.82 294.68,1340.82 294.68,1344.42 298.27,1344.42 298.27,1348.01 305.47,1348.01 305.47,1351.61 309.06,1351.61 309.06,1355.21 312.66,1355.21 312.66,1362.4 316.26,1362.4 316.26,1366 319.85,1366 319.85,1369.6 323.45,1369.6 323.45,1376.79 327.05,1376.79 327.05,1380.39 330.64,1380.39 330.64,1387.58 334.24,1387.58 334.24,1394.77 337.84,1394.77 337.84,1398.37 341.43,1398.37 341.43,1405.56 345.03,1405.56 345.03,1416.35 348.63,1416.35 348.63,1423.55 352.22,1423.55 352.22,1434.34 355.82,1434.34 355.82,1445.13 359.42,1445.13 359.42,1452.32 363.01,1452.32 363.01,1463.11 366.61,1463.11 366.61,1473.9 370.21,1473.9 370.21,1488.29 373.8,1488.29 373.8,1502.68 377.4,1502.68 377.4,1517.06 381,1517.06 381,1531.45 384.59,1531.45 384.59,1545.84 388.19,1545.84 388.19,1560.22 391.79,1560.22 391.79,1578.21 395.39,1578.21 395.39,1599.79 398.98,1599.79 398.98,1610.58 402.58,1610.58 402.58,1628.56 406.18,1628.56 406.18,1646.54 409.77,1646.54 409.77,1668.12 413.37,1668.12 413.37,1696.9 416.97,1696.9 416.97,1718.48 420.56,1718.48 420.56,1869.54 416.97,1869.54 416.97,1880.34 413.37,1880.34 413.37,1898.32 409.77,1898.32 409.77,1905.51 406.18,1905.51 406.18,1916.3 402.58,1916.3 402.58,1919.9 398.98,1919.9 398.98,1923.49 395.39,1923.49 395.39,1927.09 391.79,1927.09 391.79,1930.69 388.19,1930.69 388.19,1937.88 381,1937.88 381,1941.48 377.4,1941.48 377.4,1945.07 370.21,1945.07 370.21,1948.67 359.42,1948.67 359.42,1952.27 352.22,1952.27 352.22,1955.86 341.43,1955.86 341.43,1959.46 330.64,1959.46 330.64,1963.06 319.85,1963.06 319.85,1966.65 305.47,1966.65 305.47,1970.25 283.89,1970.25 283.89,1973.85 265.9,1973.85 265.9,1977.44 107.65,1977.44 107.65,1973.85 86.07,1973.85 86.07,1970.25 75.28,1970.25 75.28,1966.65 64.49,1966.65 64.49,1963.06 57.29,1963.06 57.29,1959.46 50.1,1959.46 50.1,1955.86 42.91,1955.86 42.91,1952.27 39.31,1952.27 39.31,1945.07 35.71,1945.07 35.71,1937.88 32.12,1937.88 32.12,1927.09 28.52,1927.09 28.52,1916.3 24.92,1916.3 24.92,1876.74 21.32,1876.74 21.32,1808.4 24.92,1808.4 24.92,1761.64 28.52,1761.64 28.52,1743.66 32.12,1743.66 32.12,1711.28 35.71,1711.28 35.71,1682.51 39.31,1682.51 39.31,1664.53 42.91,1664.53 42.91,1646.54 46.5,1646.54 46.5,1632.16 50.1,1632.16 50.1,1610.58 53.7,1610.58 53.7,1596.19 57.29,1596.19 57.29,1581.8 60.89,1581.8 60.89,1567.42 64.49,1567.42 64.49,1556.63 68.08,1556.63 68.08,1545.84 71.68,1545.84 71.68,1535.05 75.28,1535.05 75.28,1524.26 78.87,1524.26 78.87,1509.87 82.47,1509.87 82.47,1499.08 86.07,1499.08 86.07,1488.29 89.66,1488.29 89.66,1477.5 93.26,1477.5 93.26,1466.71 96.86,1466.71 96.86,1455.92 100.45,1455.92 100.45,1448.73 104.05,1448.73 104.05,1441.53 107.65,1441.53 107.65,1430.74 111.24,1430.74 111.24,1423.55 114.84,1423.55 114.84,1412.76 118.44,1412.76 118.44,1405.56 122.03,1405.56 122.03,1401.97 125.63,1401.97 125.63,1394.77 129.23,1394.77 129.23,1391.18 132.82,1391.18 132.82,1383.98 136.42,1383.98 136.42,1380.39 140.02,1380.39 140.02,1373.19 143.62,1373.19 143.62,1369.6 147.21,1369.6 147.21,1366 150.81,1366 150.81,1362.4 154.41,1362.4 154.41,1355.21 158,1355.21 158,1351.61 165.2,1351.61 165.2,1348.01 168.79,1348.01 168.79,1344.42 172.39,1344.42 172.39,1340.82 175.99,1340.82 175.99,1337.22 183.18,1337.22 183.18,1333.63 190.37,1333.63 190.37,1330.03 193.97,1330.03 193.97,1326.43 201.16,1326.43 201.16,1322.84 211.95,1322.84 211.95,1319.24 251.52,1319.24 "/>
  <polygon id="root" class="fil1" points="262.31,286.98 269.5,286.98 269.5,294.17 273.1,294.17 273.1,301.36 276.69,301.36 276.69,304.96 280.29,304.96 280.29,330.14 283.89,330.14 283.89,463.21 280.29,463.21 280.29,610.68 283.89,610.68 283.89,650.25 287.48,650.25 287.48,689.81 291.08,689.81 291.08,714.99 294.68,714.99 294.68,754.55 298.27,754.55 298.27,768.94 301.87,768.94 301.87,797.71 305.47,797.71 305.47,826.49 309.06,826.49 309.06,851.66 312.66,851.66 312.66,869.65 316.26,869.65 316.26,891.23 319.85,891.23 319.85,916.4 323.45,916.4 323.45,941.58 327.05,941.58 327.05,966.76 330.64,966.76 330.64,984.74 334.24,984.74 334.24,1013.52 337.84,1013.52 337.84,1035.1 341.43,1035.1 341.43,1063.87 345.03,1063.87 345.03,1099.84 348.63,1099.84 348.63,1135.81 352.22,1135.81 352.22,1182.56 355.82,1182.56 355.82,1229.32 359.42,1229.32 359.42,1301.26 363.01,1301.26 363.01,1355.21 366.61,1355.21 366.61,1394.77 370.21,1394.77 370.21,1416.35 366.61,1416.35 366.61,1412.76 363.01,1412.76 363.01,1401.97 359.42,1401.97 359.42,1394.77 355.82,1394.77 355.82,1387.58 352.22,1387.58 352.22,1380.39 348.63,1380.39 348.63,1373.19 345.03,1373.19 345.03,1369.6 341.43,1369.6 341.43,1362.4 337.84,1362.4 337.84,1358.8 334.24,1358.8 334.24,1355.21 330.64,1355.21 330.64,1351.61 327.05,1351.61 327.05,1348.01 323.45,1348.01 323.45,1344.42 319.85,1344.42 319.85,1340.82 316.26,1340.82 316.26,1337.22 312.66,1337.22 312.66,1330.03 305.47,1330.03 305.47,1326.43 301.87,1326.43 301.87,1322.84 294.68,1322.84 294.68,1319.24 291.08,1319.24 291.08,1315.64 283.89,1315.64 283.89,1312.05 273.1,1312.05 273.1,1308.45 265.9,1308.45 265.9,1304.85 251.52,1304.85 251.52,1301.26 215.55,1301.26 215.55,1304.85 201.16,1304.85 201.16,1308.45 193.97,1308.45 193.97,1312.05 183.18,1312.05 183.18,1315.64 175.99,1315.64 175.99,1319.24 172.39,1319.24 172.39,1322.84 165.2,1322.84 165.2,1326.43 161.6,1326.43 161.6,1330.03 158,1330.03 158,1333.63 154.41,1333.63 154.41,1337.22 150.81,1337.22 150.81,1340.82 143.62,1340.82 143.62,1344.42 140.02,1344.42 140.02,1348.01 136.42,1348.01 136.42,1351.61 132.82,1351.61 132.82,1358.8 129.23,1358.8 129.23,1362.4 125.63,1362.4 125.63,1366 122.03,1366 122.03,1373.19 118.44,1373.19 118.44,1376.79 114.84,1376.79 114.84,1383.98 111.24,1383.98 111.24,1391.18 107.65,1391.18 107.65,1394.77 104.05,1394.77 104.05,1401.97 100.45,1401.97 100.45,1409.16 96.86,1409.16 96.86,1416.35 93.26,1416.35 93.26,1423.55 89.66,1423.55 89.66,1434.34 86.07,1434.34 86.07,1441.53 82.47,1441.53 82.47,1448.73 78.87,1448.73 78.87,1455.92 75.28,1455.92 75.28,1437.93 78.87,1437.93 78.87,1376.79 82.47,1376.79 82.47,1315.64 86.07,1315.64 86.07,1247.3 89.66,1247.3 89.66,1160.98 93.26,1160.98 93.26,1107.03 96.86,1107.03 96.86,984.74 100.45,984.74 100.45,955.97 104.05,955.97 104.05,894.82 107.65,894.82 107.65,855.26 111.24,855.26 111.24,819.29 114.84,819.29 114.84,786.92 118.44,786.92 118.44,750.96 122.03,750.96 122.03,722.18 125.63,722.18 125.63,697.01 129.23,697.01 129.23,679.02 132.82,679.02 132.82,650.25 136.42,650.25 136.42,632.26 140.02,632.26 140.02,610.68 143.62,610.68 143.62,589.1 147.21,589.1 147.21,574.72 150.81,574.72 150.81,553.13 154.41,553.13 154.41,538.75 158,538.75 158,517.17 161.6,517.17 161.6,502.78 165.2,502.78 165.2,491.99 168.79,491.99 168.79,474 172.39,474 172.39,459.62 175.99,459.62 175.99,452.42 179.58,452.42 179.58,438.04 183.18,438.04 183.18,423.65 186.78,423.65 186.78,412.86 190.37,412.86 190.37,402.07 193.97,402.07 193.97,387.68 197.57,387.68 197.57,380.49 201.16,380.49 201.16,369.7 204.76,369.7 204.76,358.91 208.36,358.91 208.36,351.72 211.95,351.72 211.95,340.93 215.55,340.93 215.55,333.73 219.15,333.73 219.15,322.94 222.74,322.94 222.74,315.75 226.34,315.75 226.34,308.56 229.94,308.56 229.94,304.96 233.53,304.96 233.53,297.77 237.13,297.77 237.13,294.17 240.73,294.17 240.73,290.57 244.32,290.57 244.32,286.98 247.92,286.98 247.92,283.38 262.31,283.38 "/>
  <path id="outline" class="fil2" d="M420.56 1718.48l-3.59 0 0 -21.58 -3.6 0 0 -28.78 -3.6 0 0 -21.58 -3.59 0 0 -17.98 -3.6 0 0 -17.98 -3.6 0 0 -10.79 -3.59 0 0 -21.58 -3.6 0 0 -17.99 -3.6 0 0 -14.38 -3.6 0 0 -14.39 -3.59 0 0 -14.39 -3.6 0 0 -14.38 -3.6 0 0 -14.39 -3.59 0 0 -14.39 -3.6 0 0 -10.79 -3.6 0 0 -10.79 -3.59 0 0 -7.19 -3.6 0 0 -10.79 -3.6 0 0 -10.79 -3.59 0 0 -7.2 -3.6 0 0 -10.79 -3.6 0 0 -7.19 -3.59 0 0 -3.6 -3.6 0 0 -7.19 -3.6 0 0 -7.19 -3.59 0 0 -3.6 -3.6 0 0 -7.19 -3.6 0 0 -3.6 -3.59 0 0 -3.6 -3.6 0 0 -7.19 -3.6 0 0 -3.6 -3.59 0 0 -3.6 -7.2 0 0 -3.59 -3.59 0 0 -3.6 -3.6 0 0 -3.6 -7.19 0 0 -3.59 -7.2 0 0 -3.6 -3.59 0 0 -3.6 -10.79 0 0 -3.59 -10.79 0 0 -3.6 -39.57 0 0 3.6 -10.79 0 0 3.59 -7.19 0 0 3.6 -3.6 0 0 3.6 -7.19 0 0 3.59 -7.19 0 0 3.6 -3.6 0 0 3.6 -3.6 0 0 3.59 -3.59 0 0 3.6 -7.2 0 0 3.6 -3.59 0 0 7.19 -3.6 0 0 3.6 -3.6 0 0 3.6 -3.59 0 0 3.59 -3.6 0 0 7.2 -3.6 0 0 3.59 -3.6 0 0 7.2 -3.59 0 0 3.59 -3.6 0 0 7.2 -3.6 0 0 3.59 -3.59 0 0 7.2 -3.6 0 0 10.79 -3.6 0 0 7.19 -3.59 0 0 10.79 -3.6 0 0 7.2 -3.6 0 0 7.19 -3.59 0 0 10.79 -3.6 0 0 10.79 -3.6 0 0 10.79 -3.59 0 0 10.79 -3.6 0 0 10.79 -3.6 0 0 14.39 -3.59 0 0 10.79 -3.6 0 0 10.79 -3.6 0 0 10.79 -3.59 0 0 10.79 -3.6 0 0 14.38 -3.6 0 0 14.39 -3.59 0 0 14.39 -3.6 0 0 21.58 -3.6 0 0 14.38 -3.59 0 0 17.99 -3.6 0 0 17.98 -3.6 0 0 28.77 -3.59 0 0 32.38 -3.6 0 0 17.98 -3.6 0 0 46.76 -3.6 0 0 68.34 3.6 0 0 39.56 3.6 0 0 10.79 3.6 0 0 10.79 3.59 0 0 7.19 3.6 0 0 7.2 3.6 0 0 3.59 7.19 0 0 3.6 7.19 0 0 3.6 7.2 0 0 3.59 10.79 0 0 3.6 10.79 0 0 3.6 21.58 0 0 3.59 158.25 0 0 -3.59 17.99 0 0 -3.6 21.58 0 0 -3.6 14.38 0 0 -3.59 10.79 0 0 -3.6 10.79 0 0 -3.6 10.79 0 0 -3.59 7.2 0 0 -3.6 10.79 0 0 -3.6 7.19 0 0 -3.59 3.6 0 0 -3.6 7.19 0 0 -7.19 3.6 0 0 -3.6 3.6 0 0 -3.6 3.59 0 0 -3.59 3.6 0 0 -3.6 3.6 0 0 -10.79 3.59 0 0 -7.19 3.6 0 0 -17.98 3.6 0 0 -10.8 3.59 0 0 -151.06zm-136.67 -1388.34l-3.6 0 0 -25.18 -3.6 0 0 -3.6 -3.59 0 0 -7.19 -3.6 0 0 -7.19 -7.19 0 0 -3.6 -14.39 0 0 3.6 -3.6 0 0 3.59 -3.59 0 0 3.6 -3.6 0 0 3.6 -3.6 0 0 7.19 -3.59 0 0 3.6 -3.6 0 0 7.19 -3.6 0 0 7.19 -3.59 0 0 10.79 -3.6 0 0 7.2 -3.6 0 0 10.79 -3.59 0 0 7.19 -3.6 0 0 10.79 -3.6 0 0 10.79 -3.59 0 0 7.19 -3.6 0 0 14.39 -3.6 0 0 10.79 -3.59 0 0 10.79 -3.6 0 0 14.39 -3.6 0 0 14.38 -3.59 0 0 7.2 -3.6 0 0 14.38 -3.6 0 0 17.99 -3.59 0 0 10.79 -3.6 0 0 14.39 -3.6 0 0 21.58 -3.59 0 0 14.38 -3.6 0 0 21.59 -3.6 0 0 14.38 -3.59 0 0 21.58 -3.6 0 0 21.58 -3.6 0 0 17.99 -3.6 0 0 28.77 -3.59 0 0 17.99 -3.6 0 0 25.17 -3.6 0 0 28.78 -3.59 0 0 35.96 -3.6 0 0 32.37 -3.6 0 0 35.97 -3.59 0 0 39.56 -3.6 0 0 61.15 -3.6 0 0 28.77 -3.59 0 0 122.29 -3.6 0 0 53.95 -3.6 0 0 86.32 -3.59 0 0 68.34 -3.6 0 0 61.15 -3.6 0 0 61.14 -3.59 0 0 17.99 3.59 0 0 -7.19 3.6 0 0 -7.2 3.6 0 0 -7.19 3.59 0 0 -10.79 3.6 0 0 -7.2 3.6 0 0 -7.19 3.59 0 0 -7.19 3.6 0 0 -7.2 3.6 0 0 -3.59 3.59 0 0 -7.2 3.6 0 0 -7.19 3.6 0 0 -3.6 3.59 0 0 -7.19 3.6 0 0 -3.6 3.6 0 0 -3.6 3.59 0 0 -7.19 3.6 0 0 -3.6 3.6 0 0 -3.59 3.6 0 0 -3.6 7.19 0 0 -3.6 3.6 0 0 -3.59 3.59 0 0 -3.6 3.6 0 0 -3.6 3.6 0 0 -3.59 7.19 0 0 -3.6 3.6 0 0 -3.6 7.19 0 0 -3.59 10.79 0 0 -3.6 7.19 0 0 -3.6 14.39 0 0 -3.59 35.97 0 0 3.59 14.38 0 0 3.6 7.2 0 0 3.6 10.79 0 0 3.59 7.19 0 0 3.6 3.6 0 0 3.6 7.19 0 0 3.59 3.6 0 0 3.6 7.19 0 0 7.19 3.6 0 0 3.6 3.59 0 0 3.6 3.6 0 0 3.59 3.6 0 0 3.6 3.59 0 0 3.6 3.6 0 0 3.59 3.6 0 0 3.6 3.59 0 0 7.2 3.6 0 0 3.59 3.6 0 0 7.2 3.59 0 0 7.19 3.6 0 0 7.19 3.6 0 0 7.2 3.59 0 0 10.79 3.6 0 0 3.59 3.6 0 0 -21.58 -3.6 0 0 -39.56 -3.6 0 0 -53.95 -3.59 0 0 -71.94 -3.6 0 0 -46.76 -3.6 0 0 -46.75 -3.59 0 0 -35.97 -3.6 0 0 -35.97 -3.6 0 0 -28.77 -3.59 0 0 -21.58 -3.6 0 0 -28.78 -3.6 0 0 -17.98 -3.59 0 0 -25.18 -3.6 0 0 -25.18 -3.6 0 0 -25.17 -3.59 0 0 -21.58 -3.6 0 0 -17.99 -3.6 0 0 -25.17 -3.59 0 0 -28.78 -3.6 0 0 -28.77 -3.6 0 0 -14.39 -3.59 0 0 -39.56 -3.6 0 0 -25.18 -3.6 0 0 -39.56 -3.59 0 0 -39.57 -3.6 0 0 -147.47 3.6 0 0 -133.07zm-17.99 -68.34l7.2 0 0 3.6 3.59 0 0 3.59 3.6 0 0 3.6 3.6 0 0 3.6 3.59 0 0 3.59 3.6 0 0 7.2 3.6 0 0 7.19 3.59 0 0 7.19 3.6 0 0 14.39 3.6 0 0 21.58 3.59 0 0 89.92 -3.59 0 0 46.75 -3.6 0 0 129.49 3.6 0 0 43.16 3.59 0 0 28.78 3.6 0 0 32.37 3.6 0 0 43.16 3.59 0 0 21.58 3.6 0 0 32.37 3.6 0 0 14.38 3.59 0 0 17.99 3.6 0 0 17.98 3.6 0 0 25.18 3.59 0 0 21.58 3.6 0 0 28.77 3.6 0 0 17.99 3.59 0 0 25.17 3.6 0 0 21.58 3.6 0 0 21.59 3.59 0 0 39.56 3.6 0 0 32.37 3.6 0 0 32.37 3.59 0 0 32.37 3.6 0 0 75.53 3.6 0 0 64.74 3.59 0 0 64.74 3.6 0 0 61.15 3.6 0 0 43.16 3.6 0 0 32.37 3.59 0 0 10.79 3.6 0 0 21.58 3.6 0 0 10.79 3.59 0 0 17.99 3.6 0 0 14.38 3.6 0 0 14.39 3.59 0 0 14.39 3.6 0 0 14.38 3.6 0 0 17.99 3.59 0 0 17.98 3.6 0 0 21.58 3.6 0 0 25.18 3.59 0 0 57.55 3.6 0 0 82.72 -3.6 0 0 35.97 -3.59 0 0 17.98 -3.6 0 0 17.99 -3.6 0 0 7.19 -3.59 0 0 7.19 -3.6 0 0 3.6 -3.6 0 0 7.19 -3.59 0 0 3.6 -3.6 0 0 7.19 -3.6 0 0 3.6 -3.59 0 0 3.6 -7.2 0 0 3.59 -3.59 0 0 3.6 -3.6 0 0 3.6 -7.2 0 0 3.59 -7.19 0 0 3.6 -7.19 0 0 3.6 -7.2 0 0 3.59 -10.79 0 0 3.6 -10.79 0 0 3.6 -17.98 0 0 3.59 -10.79 0 0 3.6 -21.58 0 0 3.6 -17.98 0 0 3.59 -21.58 0 0 3.6 -133.08 0 0 -3.6 -21.58 0 0 -3.59 -21.58 0 0 -3.6 -14.39 0 0 -3.6 -7.19 0 0 -3.59 -7.2 0 0 -3.6 -7.19 0 0 -3.6 -7.19 0 0 -3.59 -3.6 0 0 -3.6 -3.6 0 0 -3.6 -3.6 0 0 -7.19 -3.59 0 0 -3.6 -3.6 0 0 -7.19 -3.6 0 0 -7.19 -3.59 0 0 -17.99 -3.6 0 0 -25.17 -3.6 0 0 -107.91 3.6 0 0 -43.16 3.6 0 0 -21.58 3.59 0 0 -28.77 3.6 0 0 -21.58 3.6 0 0 -14.39 3.59 0 0 -17.98 3.6 0 0 -21.58 3.6 0 0 -10.79 3.6 0 0 -21.58 3.59 0 0 -10.79 3.6 0 0 -10.79 3.6 0 0 -14.39 3.59 0 0 -25.18 3.6 0 0 -57.54 3.6 0 0 -46.76 3.59 0 0 -64.75 3.6 0 0 -53.95 3.6 0 0 -68.34 3.59 0 0 -93.51 3.6 0 0 -61.14 3.6 0 0 -75.53 3.59 0 0 -57.55 3.6 0 0 -64.75 3.6 0 0 -32.37 3.59 0 0 -35.96 3.6 0 0 -46.76 3.6 0 0 -28.77 3.59 0 0 -28.78 3.6 0 0 -21.58 3.6 0 0 -14.38 3.59 0 0 -25.18 3.6 0 0 -21.58 3.6 0 0 -25.18 3.59 0 0 -21.58 3.6 0 0 -14.39 3.6 0 0 -21.58 3.59 0 0 -17.98 3.6 0 0 -10.79 3.6 0 0 -14.39 3.6 0 0 -14.39 3.59 0 0 -14.39 3.6 0 0 -17.98 3.6 0 0 -14.39 3.59 0 0 -10.79 3.6 0 0 -7.19 3.6 0 0 -17.98 3.59 0 0 -7.2 3.6 0 0 -14.38 3.6 0 0 -10.79 3.59 0 0 -7.2 3.6 0 0 -14.38 3.6 0 0 -7.2 3.59 0 0 -10.79 3.6 0 0 -7.19 3.6 0 0 -10.79 3.59 0 0 -7.19 3.6 0 0 -7.2 3.6 0 0 -7.19 3.59 0 0 -3.6 3.6 0 0 -7.19 3.6 0 0 -3.6 3.59 0 0 -3.59 3.6 0 0 -7.2 7.19 0 0 -3.59 3.6 0 0 -3.6 7.19 0 0 -3.6 21.58 0 0 3.6z"/>
 </g>
</svg>
