<?xml version="1.0" encoding="UTF-8"?>
<!DOCTYPE svg PUBLIC "-//W3C//DTD SVG 1.1//EN" "http://www.w3.org/Graphics/SVG/1.1/DTD/svg11.dtd">
<!-- Creator: CorelDRAW (Versión de evaluación) -->
<svg xmlns="http://www.w3.org/2000/svg" xml:space="preserve" width="739px" height="2458px" version="1.1" style="shape-rendering:geometricPrecision; text-rendering:geometricPrecision; image-rendering:optimizeQuality; fill-rule:evenodd; clip-rule:evenodd"
viewBox="0 0 739 2457.4"
 xmlns:xlink="http://www.w3.org/1999/xlink"
 xmlns:xodm="http://www.corel.com/coreldraw/odm/2003">
 <defs>
  <style type="text/css">
   <![CDATA[
    .str0 {stroke:#4B4B4D;stroke-width:10;stroke-miterlimit:22.9256}
    .fil0 {fill:#FEFEFE}
    .fil1 {fill:#F7BE14}
   ]]>
  </style>
 </defs>
 <g id="tooth-crown-18">
  <metadata id="CorelCorpID_0Corel-Layer"/>
  <path id="root" class="fil0 str0" d="M467.56 1490.67c220.64,110.74 245.67,0.12 262.81,-324.94 13.17,-249.83 -3.92,-483.14 -64.08,-712.52 -30.78,-117.37 -121.34,-454.09 -220.35,-453.19 -20.72,107.11 160.84,984.67 -43.59,1054.23 -145.47,49.5 -124.08,-317.61 -130.25,-450.21 -6.44,-138.08 31.9,-483.79 -44.17,-541.79 -40.32,54.1 -144.79,557.67 -159.7,666.13 -37.3,271.42 -46.6,584.51 -29.42,861.63 209.46,110.53 258.94,-184.57 428.75,-99.34zm-58.57 -1261.48c-22.51,-79.35 -9.12,-187.91 -71.1,-162.79 -21.45,59.25 -1.49,387.66 -23.59,508.9 -24.45,134.19 -27.06,343.59 38.65,442.6 118.84,14.87 136.26,-199.77 104.88,-333.48l-48.84 -455.23z"/>
  <path id="crown" class="fil1 str0" d="M440.25 2368.85c57.06,14.92 100.95,140.99 179.96,63.6 164.76,-161.41 133.66,-641.7 50.53,-871.79 -70.59,-0.52 -68.66,43.19 -163.74,-8.4 -202.49,-109.89 -136.31,12.93 -287.8,73.63 -57.12,22.9 -117.04,25.12 -175.07,7.31 -94.7,254.2 -34.66,732.01 145.02,711.8 54.98,-6.19 51.34,-35.86 92.99,-70.46 66.95,-55.6 166.87,6.41 158.11,94.31 -57.07,-26.21 -83.41,-175.53 -173.24,-28.37 24.73,97.24 120.59,118.74 184.89,82.29l-11.65 -53.92z"/>
 </g>
</svg>
