<?xml version="1.0" encoding="UTF-8"?>
<!DOCTYPE svg PUBLIC "-//W3C//DTD SVG 1.1//EN" "http://www.w3.org/Graphics/SVG/1.1/DTD/svg11.dtd">
<!-- Creator: CorelDRAW (Versión de evaluación) -->
<svg xmlns="http://www.w3.org/2000/svg" xml:space="preserve" width="739px" height="2458px" version="1.1" style="shape-rendering:geometricPrecision; text-rendering:geometricPrecision; image-rendering:optimizeQuality; fill-rule:evenodd; clip-rule:evenodd"
viewBox="0 0 739 2457.4"
 xmlns:xlink="http://www.w3.org/1999/xlink"
 xmlns:xodm="http://www.corel.com/coreldraw/odm/2003">
 <defs>
  <style type="text/css">
   <![CDATA[
    .str1 {stroke:#FFF212;stroke-width:10;stroke-miterlimit:22.9256}
    .str0 {stroke:#D6D2C8;stroke-width:10;stroke-miterlimit:22.9256}
    .fil1 {fill:#FECB29}
    .fil0 {fill:#F5F1E8}
   ]]>
  </style>
 </defs>
 <g id="tooth-pulpotomy-12">
  <metadata id="CorelCorpID_0Corel-Layer"/>
  <path id="crown" class="fil0 str0" d="M700.59 2455.83c54.39,-54.52 36.06,-116.6 30.63,-193.93 -19.36,-275.35 -31.03,-290.87 -85.61,-558.43 -24.31,-119.12 0.1,-81.59 -100.1,-127.59 -182.91,-83.98 -154.42,-259.06 -392.18,-30.34 -87.83,84.5 -76.36,24.9 -119.31,329.84 -12.77,90.58 -42.43,316.35 -32.39,398.07 19.02,154.99 174.68,137.66 301,149.18 95.04,8.67 319.87,42.4 397.96,33.2z"/>
  <g id="_2014803773024">
   <path class="fil1 str1" d="M508.28 2224.92c-5.22,-69.71 -11.63,-139.74 -23.27,-208.44 -14.14,-83.42 -33.53,-167.3 -50.82,-250.42 -41.2,-20.87 -78.73,-46.24 -114.18,-75.92 -5.45,5.15 -10.36,9.89 -14.36,13.74 -9.33,8.97 -18.9,17.34 -28.47,25.66 -1.59,9.42 -2.9,18.95 -4.18,27.16 -7.74,49.65 -14.41,99.57 -21.42,149.33 -8.87,62.94 -16.9,126.16 -23.27,189.41 -2.79,27.67 -7.41,67.11 -9.04,102.54 36.45,3.04 80.95,3.81 103.31,5.85 61.88,5.65 123.85,14.07 185.7,21.09z"/>
  </g>
  <path id="root" class="fil0 str0" d="M269.46 18.1c-62.19,-1.98 -27.83,-22.58 -97.2,-17.21 -47.57,70.28 -19.71,81.33 -10.45,163.76 29.03,258.4 -55.32,1120.15 -75.94,1391.71 94.1,-54.18 148.28,-175.78 274.38,-144.64 80.13,19.77 138.01,123.1 262.59,157.74 -19.94,-244.41 -120.12,-523.73 -162.99,-774.74 -24.58,-143.96 -26.15,-290.75 -50.25,-437.06 -39.41,-239.13 -127.67,-268.26 -140.14,-339.56z"/>
 </g>
</svg>
