<?xml version="1.0" encoding="UTF-8"?>
<!DOCTYPE svg PUBLIC "-//W3C//DTD SVG 1.1//EN" "http://www.w3.org/Graphics/SVG/1.1/DTD/svg11.dtd">
<!-- Creator: CorelDRAW (Versión de evaluación) -->
<svg xmlns="http://www.w3.org/2000/svg" xml:space="preserve" width="739px" height="2458px" version="1.1" style="shape-rendering:geometricPrecision; text-rendering:geometricPrecision; image-rendering:optimizeQuality; fill-rule:evenodd; clip-rule:evenodd"
viewBox="0 0 739 2457.4"
 xmlns:xlink="http://www.w3.org/1999/xlink"
 xmlns:xodm="http://www.corel.com/coreldraw/odm/2003">
 <defs>
  <style type="text/css">
   <![CDATA[
    .str1 {stroke:#FFF212;stroke-width:10;stroke-miterlimit:22.9256}
    .str0 {stroke:#D6D2C8;stroke-width:10;stroke-miterlimit:22.9256}
    .fil1 {fill:#FECB29}
    .fil0 {fill:#F5F1E8}
   ]]>
  </style>
 </defs>
 <g id="tooth-pulpotomy-23">
  <metadata id="CorelCorpID_0Corel-Layer"/>
  <path id="crown" class="fil0 str0" d="M411.47 2444.63c-63.77,-3.83 -115.44,54.88 -275.42,-51.4 -93.46,-62.09 -144.2,-65.31 -135.49,-190.24 12.88,-184.76 83.55,-354.16 131.74,-528.97l245.94 -165.8c64.78,-22.43 103.27,8.29 149.54,42.53 172.75,127.89 109.4,-18.39 156.24,247.17 9.08,51.41 20.94,108.61 29.51,160.01 55.06,330.36 5.19,189.98 -15.37,305.86 -0.27,43.29 -100.91,70.41 -137.37,92.3 -18.3,10.99 -49.6,33.53 -66.76,46.4 -33.76,25.34 -42.17,44.83 -82.56,42.14z"/>
  <g id="_2014797358576">
   <path class="fil1 str1" d="M361.01 2227.63c0.39,-0.29 0.78,-0.58 1.17,-0.87 27.25,-20.45 56.38,-41.53 85.54,-59.04 19.19,-11.51 39.64,-19.81 59.39,-28.24 2.7,-6.05 5.6,-11.99 8.7,-17.84 -0.26,-2.09 -0.51,-4.12 -0.75,-6.08 -4.94,-40.57 -11.53,-81.19 -18.25,-121.51 -8.79,-52.79 -19.85,-105.24 -29.15,-157.96 -3.99,-22.63 -7.25,-45.26 -10.37,-67.83 -12.14,-7.43 -24.18,-15.32 -36.42,-23.82l-100.36 67.66c-38.12,122.59 -84.12,252.59 -98.07,376.58 12.12,7.16 24.25,14.29 35.19,21.56 10.68,7.09 35.05,22.58 49.53,27 6.94,-1.05 14.72,-3.02 21.26,-4.3 10.98,-2.15 21.8,-3.95 32.59,-5.31z"/>
  </g>
  <path id="root" class="fil0 str0" d="M506.75 1.1c102.9,-9.92 50.72,47.08 47.37,191.22l36.74 613.66c18.21,133.65 74.56,679.07 68.2,787.56 -95.83,-7.49 -140.54,-135.67 -268.94,-115.09 -100.48,16.1 -150.33,124.13 -246.76,151.8 33.53,-180.86 32.01,-480.6 65.15,-682.47 36.29,-221.23 57.18,-384.57 136.96,-606.75 42.14,-117.4 160.65,-314 161.28,-339.93z"/>
 </g>
</svg>
