<?xml version="1.0" encoding="UTF-8"?>
<!DOCTYPE svg PUBLIC "-//W3C//DTD SVG 1.1//EN" "http://www.w3.org/Graphics/SVG/1.1/DTD/svg11.dtd">
<!-- Creator: CorelDRAW (Versión de evaluación) -->
<svg xmlns="http://www.w3.org/2000/svg" xml:space="preserve" width="342px" height="2052px" version="1.1" style="shape-rendering:geometricPrecision; text-rendering:geometricPrecision; image-rendering:optimizeQuality; fill-rule:evenodd; clip-rule:evenodd"
viewBox="0 0 342 2053.13"
 xmlns:xlink="http://www.w3.org/1999/xlink"
 xmlns:xodm="http://www.corel.com/coreldraw/odm/2003">
 <defs>
  <style type="text/css">
   <![CDATA[
    .fil4 {fill:#4B4B4D}
    .fil1 {fill:#FFCC29}
    .fil3 {fill:#F48884}
    .fil2 {fill:#F4EDDA}
    .fil0 {fill:#F8F9FD}
   ]]>
  </style>
 </defs>
 <g id="pulpotomy">
  <metadata id="CorelCorpID_0Corel-Layer"/>
  <path id="crown" class="fil0" d="M56.4 37.4c12.31,1.72 28.82,-0.2 42.7,1.72 14.51,2.01 21.7,4.84 38.84,4.57 34.02,-0.55 47.3,-4.76 82.66,-0.52 34.38,4.11 36.53,0.62 63.63,20.32 9.43,6.86 13.39,9.3 20.11,22.02 10.21,19.32 8.58,59.78 6.35,81.69 -1.38,13.58 -2.06,4.84 -4.27,15.47 -1.38,6.66 -0.38,15.29 -1.42,21.96 -2.07,13.25 -2.39,2.85 -5.2,13.62 -1.06,4.09 -1.55,15.15 -2.22,20.55 -5.54,44.3 -20.01,70.28 -22.94,84.46 -3.39,16.43 -10.7,33.7 -17.46,48.12 -7.48,15.95 -26.83,45.48 -42.94,54.51 -1.67,0.93 -1.1,0.53 -3.36,1.68 -0.52,0.27 -1.18,0.56 -1.71,0.83l-16.94 8.62c-5.82,1.91 -12.97,2.14 -19.29,2.18 -15.3,0.07 -10.89,-0.8 -21.63,-5.02 -0.62,-0.25 -1.24,-0.5 -1.87,-0.73l-3.97 -1.16c-6.43,-1.95 -2.77,0.12 -9.31,-3.05 -6.09,-2.97 -7.64,-5.1 -13.18,-9.09 -44.89,-32.37 -38.3,-45.5 -43.07,-57.22 -5.3,-13.02 -3.37,0.95 -6.12,-15.66 -1.08,-6.47 0.53,-2.26 -1.69,-8.77l-2.6 -5.29c-4.67,-11.92 -0.41,-12.21 -4.62,-23.2 -6.03,-15.75 -3.89,-18.8 -8.35,-34.16 -3.3,-11.34 -3.85,-1.14 -5.35,-13.75 -1.35,-11.46 2.42,-9.23 -2.67,-20.31 -4.42,-9.63 -4.06,0.46 -5.13,-14.43 -0.48,-6.79 0.78,-16.55 0.19,-22.85 -2.38,-25.65 -7.09,10.06 -7.43,-37.33 -0.04,-6.5 -0.4,-13.68 -0.68,-20.24 -1.28,-30.84 -5.69,9.36 -7.02,-57.41 -0.53,-26.03 -8.21,-57.17 27.96,-52.13z"/>
  <g id="_3232350891040">
   <path class="fil1" d="M91.33 323.61l2.83 5.76 0.48 1.43c1.44,4.21 2.5,7.55 2.55,11.97 0.03,0.2 0.07,0.4 0.1,0.6 0.1,0.57 0.19,1.15 0.28,1.74 1.71,2.68 3.12,5.67 4.41,8.84 2.48,6.09 2.87,13.67 5.57,18.88 5.15,9.93 20.61,21.67 29.37,27.99 3.02,2.18 6.32,5.36 9.65,6.98 0.27,0.13 0.54,0.27 0.82,0.4 1.61,0.34 3.18,0.75 4.8,1.23l4.62 1.35 0.63 0.23c0.87,0.31 1.72,0.65 2.58,0.99 2.66,1.04 5,2.17 7.46,3.36 1.76,0.08 3.72,0.02 5.34,0.01 2.73,-0.02 7.56,-0.02 10.73,-0.66l14.81 -7.55c0.61,-0.31 1.22,-0.59 1.78,-0.86 0.75,-0.38 1.55,-0.77 2.36,-1.15 0.03,-0.02 0.07,-0.03 0.1,-0.05 10.8,-6.05 27.77,-32.67 33.01,-43.85 6.25,-13.32 12.71,-28.34 15.7,-42.8 2.27,-11 7.6,-22.99 11.25,-33.77 5.43,-16.03 9.27,-32.02 11.37,-48.84 0.97,-7.73 0.85,-16.05 2.81,-23.6 1.14,-4.37 2.6,-8.34 4.79,-11.79 0.28,-2.22 0.2,-4.95 0.23,-7.13 0.07,-5.22 0.27,-10.35 1.33,-15.49 0.87,-4.19 1.91,-7.89 3.73,-11.41 0.06,-0.56 0.11,-1.11 0.17,-1.63 1.58,-15.55 3.57,-54.36 -3.72,-68.15 -4.36,-8.24 -5.59,-8.44 -13.06,-13.88 -22.85,-16.62 -24.09,-12.54 -52.45,-15.94 -12.86,-1.54 -24.9,-2.02 -37.82,-1.39 -13.93,0.69 -27.62,1.86 -41.62,2.08 -16.28,0.26 -27.11,-2.66 -42.48,-4.79 -13.85,-1.91 -28.46,0.27 -42.73,-1.72 -0.46,-0.06 -1.09,-0.14 -1.79,-0.21 -0.52,7.86 0.84,23.36 0.94,28.26 0.17,8.62 0.38,17.32 0.96,25.92 0.11,1.67 0.22,3.77 0.44,5.71 4.72,7.39 5.23,16.07 5.61,25.26 0.29,7.02 0.65,14.05 0.7,21.07 0.03,3.48 -0.06,8.29 0.13,12.68 1.07,1.35 2.03,2.82 2.85,4.42 2.88,5.58 3.77,12.02 4.35,18.2 0.74,7.98 -0.69,15.77 -0.15,23.34 0.01,0.2 0.03,0.41 0.04,0.61 1.1,1.74 2.07,3.61 2.98,5.6 3.24,7.05 5.34,13.51 4.86,21.39 -0.12,2.06 -0.36,3.16 -0.28,4.86 2.04,3.29 3.48,7.01 4.66,11.09 3.19,10.99 3.68,21.72 7.72,32.28 2.59,6.75 3.61,12.26 3.72,19.42 0.02,1.3 0.11,1.73 0.48,2.71z"/>
  </g>
  <path id="root" class="fil2" d="M127.59 455.27c23.24,12.64 62.6,12.82 88.75,-1.97 16.24,-9.18 22.77,-18.44 28.7,-20.26 3.89,26.97 -7.23,57.53 -7.27,69.5 -0.04,11.91 1.9,25.2 -0.93,36.53 -3.07,12.29 -5.87,15.44 -6.2,31.15l-1.15 132.13c-2.54,10.78 -2.06,-0.53 -5.27,11.4 -2.09,7.75 -1.5,61.84 -1.69,74.42 -0.57,38.59 -2.28,15.09 -6.79,30.37 -4.8,16.24 5.44,27.29 -4.31,53.57 -2.86,7.74 -2.14,5.97 -2.75,15.93 -0.41,6.7 -0.52,11.23 -1.59,17.72 -2.28,13.82 -3.95,6.66 -6.57,17.91 -0.18,0.78 -0.21,1.45 -0.36,2.27 -1.86,9.84 -1.91,14.16 -11.56,25.65 -9.97,11.88 -9.89,10.26 -16.08,7.58 -14.95,-6.47 -20.27,-24.45 -23.53,-34.92 -2.5,-8.01 -2.84,-3.76 -5.05,-11.82l-12.67 -61.74c-1.75,-24.31 -12.12,-34.22 -14.13,-100.18 -0.99,-32.23 -2.42,-16.5 -4.86,-32.46 -1.8,-11.76 0.35,-24.82 -1.4,-35.73 -1.5,-9.34 -3.13,-9.6 -4.16,-15.3 -1.7,-9.47 -0.53,-78.83 -5.04,-88.17 -8.06,-16.69 -4.67,-41.78 -5.27,-68.66 -0.42,-18.51 -2.24,-57.15 0.61,-73.68 3.15,0.39 26.88,16.76 30.57,18.76z"/>
  <g id="_3232228599168">
   <path class="fil3" d="M130.77 493.99c0.15,5.14 0.3,10.27 0.42,15.41 0.21,9.47 -1.62,47.21 1.82,54.32 10.15,21.01 5.53,70.93 7.98,96.9 1.95,5.55 3.26,10.11 4.24,16.17 1.27,7.9 1.24,15.65 1.12,23.61 -0.06,3.89 -0.27,8.56 0.32,12.39 0.04,0.24 0.07,0.48 0.11,0.72 4.86,11.28 4.76,23.76 5.14,35.94 0.6,19.81 2.03,39.83 6.35,59.21 2.85,12.85 6.25,23.97 7.49,37.04l8.21 39.97c0.66,-10.84 0.89,-15 4.84,-25.65 2.11,-5.68 2.53,-9.35 1.99,-15.28 -1.23,-13.31 -2.41,-22.55 1.57,-36.05 1.32,-4.45 3.07,-8.62 5.28,-12.36 0.07,-2.99 0.05,-6 0.09,-8.68 0.19,-12.91 0.02,-25.87 0.13,-38.8 0.1,-12.23 -0.35,-32.65 2.75,-44.16 1.07,-3.93 2.44,-7.68 4.15,-11.13l1.08 -123.86 0.01 -0.21c0.35,-16.83 3.5,-23.93 7.23,-38.85 1.42,-5.71 -0.13,-21.89 -0.11,-28.22 0.01,-2.36 0.15,-4.74 0.4,-7.14 -23.56,5.79 -49.81,5.55 -72.61,-1.29z"/>
  </g>
  <path id="outline" class="fil4" d="M245.04 433.04c-5.93,1.82 -12.46,11.08 -28.7,20.26 -26.15,14.79 -65.51,14.61 -88.75,1.97 -3.69,-2 -27.42,-18.37 -30.57,-18.76 -2.85,16.53 -1.03,55.17 -0.61,73.68 0.6,26.88 -2.79,51.97 5.27,68.66 4.51,9.34 3.34,78.7 5.04,88.17 1.03,5.7 2.66,5.96 4.16,15.3 1.75,10.91 -0.4,23.97 1.4,35.73 2.44,15.96 3.87,0.23 4.86,32.46 2.01,65.96 12.38,75.87 14.13,100.18l12.67 61.74c2.21,8.06 2.55,3.81 5.05,11.82 3.26,10.47 8.58,28.45 23.53,34.92 6.19,2.68 6.11,4.3 16.08,-7.58 9.65,-11.49 9.7,-15.81 11.56,-25.65 0.15,-0.82 0.18,-1.49 0.36,-2.27 2.62,-11.25 4.29,-4.09 6.57,-17.91 1.07,-6.49 1.18,-11.02 1.59,-17.72 0.61,-9.96 -0.11,-8.19 2.75,-15.93 9.75,-26.28 -0.49,-37.33 4.31,-53.57 4.51,-15.28 6.22,8.22 6.79,-30.37 0.19,-12.58 -0.4,-66.67 1.69,-74.42 3.21,-11.93 2.73,-0.62 5.27,-11.4l1.15 -132.13c0.33,-15.71 3.13,-18.86 6.2,-31.15 2.83,-11.33 0.89,-24.62 0.93,-36.53 0.04,-11.97 11.16,-42.53 7.27,-69.5zm-188.64 -395.64c-36.17,-5.04 -28.49,26.1 -27.96,52.13 1.33,66.77 5.74,26.57 7.02,57.41 0.28,6.56 0.64,13.74 0.68,20.24 0.34,47.39 5.05,11.68 7.43,37.33 0.59,6.3 -0.67,16.06 -0.19,22.85 1.07,14.89 0.71,4.8 5.13,14.43 5.09,11.08 1.32,8.85 2.67,20.31 1.5,12.61 2.05,2.41 5.35,13.75 4.46,15.36 2.32,18.41 8.35,34.16 4.21,10.99 -0.05,11.28 4.62,23.2l2.6 5.29c2.22,6.51 0.61,2.3 1.69,8.77 2.75,16.61 0.82,2.64 6.12,15.66 4.77,11.72 -1.82,24.85 43.07,57.22 5.54,3.99 7.09,6.12 13.18,9.09 6.54,3.17 2.88,1.1 9.31,3.05l3.97 1.16c0.63,0.23 1.25,0.48 1.87,0.73 10.74,4.22 6.33,5.09 21.63,5.02 6.32,-0.04 13.47,-0.27 19.29,-2.18l16.94 -8.62c0.53,-0.27 1.19,-0.56 1.71,-0.83 2.26,-1.15 1.69,-0.75 3.36,-1.68 16.11,-9.03 35.46,-38.56 42.94,-54.51 6.76,-14.42 14.07,-31.69 17.46,-48.12 2.93,-14.18 17.4,-40.16 22.94,-84.46 0.67,-5.4 1.16,-16.46 2.22,-20.55 2.81,-10.77 3.13,-0.37 5.2,-13.62 1.04,-6.67 0.04,-15.3 1.42,-21.96 2.21,-10.63 2.89,-1.89 4.27,-15.47 2.23,-21.91 3.86,-62.37 -6.35,-81.69 -6.72,-12.72 -10.68,-15.16 -20.11,-22.02 -27.1,-19.7 -29.25,-16.21 -63.63,-20.32 -35.36,-4.24 -48.64,-0.03 -82.66,0.52 -17.14,0.27 -24.33,-2.56 -38.84,-4.57 -13.88,-1.92 -30.39,0 -42.7,-1.72zm104.09 -21.44c13.34,0.05 26.71,0.22 40.06,0.15 19.75,-0.1 36.22,3.66 55.13,5.97l30.17 9.94c8.69,4.14 26.45,17.27 33.08,26.67 0.9,1.27 14.48,24.96 14.61,25.33l7.29 33.06c0.36,3.24 0.54,16.9 0.16,19.99 -1.64,13.37 -3.27,4.24 -5.22,17.64 -1.67,11.46 0.7,28.43 -1.13,39.79 -2.79,17.37 -4.98,-6.57 -7.21,32.92l-33.43 125.63c-15.06,45.19 -18.84,27.71 -19.32,64.51 -0.66,50.84 -6.14,2.98 -6.62,72.77 -0.12,17.85 -5.43,14.15 -5.95,34.81l-1.63 77.69c-0.93,11.24 -5.62,19.11 -6.58,32.71 -1.3,18.33 1.53,130.04 -2.44,141.14 -9.4,26.26 -5.77,16.96 -6.22,54.12 -0.31,25.44 -6.61,16.12 -7.11,34.76 -1.12,41.16 -2.43,16.74 -6.18,33.42 -1.43,6.39 -0.02,12.35 -1.96,18.72 -2.71,8.92 -3.74,2.05 -6.3,13.55 -2.43,10.89 1.8,7.3 -4.34,16.02 -4.97,7.07 -2.64,-2.44 -7.14,12.51 -7.68,25.55 -0.39,2.11 -17.66,24.12 -27.76,1.28 -34.32,2.92 -51.12,-16.27l-14.36 -20.39c-24.71,-44.21 -27.58,-138.53 -36.55,-163.81 -5.01,-14.12 -0.72,-31.72 -3.46,-47.32 -2.88,-16.36 -4.45,-11.48 -6.9,-43.11 -0.61,-7.91 0.35,-17.32 -0.56,-24.87 -2.22,-18.29 -6.67,3.64 -7.65,-67.8 -0.22,-15.78 1.22,-34.93 0.05,-50.09 -1.5,-19.46 -7.05,-0.25 -6.39,-42.54 0.39,-25.28 2.38,-77.18 -0.88,-100.08l-14.53 -33.86c-2.5,-9.32 2.04,-7.53 -4.11,-21.51 -4.99,-11.33 -3.47,-8.71 -4.28,-22.34 -11.32,-9.88 -7.25,-2.43 -7.8,-22.58 -0.62,-22.53 -5.78,-11.28 -7.09,-25.18 -0.48,-5.19 0.86,-9.89 -0.08,-15.01 -3.25,-17.72 -1.26,0.27 -6.44,-11.55 -4.1,-9.34 0.56,-22.9 -1.53,-33.38 -3.67,-18.39 -7.81,2.94 -7.53,-24.82 0.37,-37.16 -0.57,-19.1 -4.79,-29.15 -7.57,-17.99 3.61,-45.24 -4.56,-62.73 -3.9,-8.34 -4.78,-1.08 -4.78,-28.51 -0.01,-15.28 8.1,-47.69 12.94,-53.18l3.92 -3.43c33.07,-23.68 70.09,-5.93 77.3,-5.15 18.3,1.99 47.71,0.64 67.12,0.72z"/>
 </g>
</svg>
