<?xml version="1.0" encoding="UTF-8"?>
<!DOCTYPE svg PUBLIC "-//W3C//DTD SVG 1.1//EN" "http://www.w3.org/Graphics/SVG/1.1/DTD/svg11.dtd">
<!-- Creator: CorelDRAW (Versión de evaluación) -->
<svg xmlns="http://www.w3.org/2000/svg" xml:space="preserve" width="453px" height="2062px" version="1.1" style="shape-rendering:geometricPrecision; text-rendering:geometricPrecision; image-rendering:optimizeQuality; fill-rule:evenodd; clip-rule:evenodd"
viewBox="0 0 453 2062.08"
 xmlns:xlink="http://www.w3.org/1999/xlink"
 xmlns:xodm="http://www.corel.com/coreldraw/odm/2003">
 <defs>
  <style type="text/css">
   <![CDATA[
    .fil4 {fill:#4B4B4D}
    .fil1 {fill:#FFCC29}
    .fil3 {fill:#F7ADAF}
    .fil2 {fill:#F3EDD9}
    .fil0 {fill:#F8FBFF}
   ]]>
  </style>
 </defs>
 <g id="pulpotomy">
  <metadata id="CorelCorpID_0Corel-Layer"/>
  <path id="crown" class="fil0" d="M420.63 1587.07c-9.55,59.98 -57.28,77.77 -123,83.93 -47.27,4.43 -156.21,4.02 -204.51,0.92 -84.85,-5.44 -73.9,-59.25 -56.46,-129.12 16.81,-67.35 82.26,-239.1 140.84,-271.58 187.51,-103.95 270.06,146.61 243.13,315.85z"/>
  <g id="_1750926857424">
   <path class="fil1" d="M390.95 1582.35c11.99,-75.3 0.77,-174.09 -37.52,-240.67 -38.72,-67.36 -92.45,-82.38 -161.36,-44.18 -27.19,15.07 -60.55,81.47 -73.42,109.11 -12.16,26.13 -23.09,53 -32.87,80.11 -7.44,20.61 -14.66,42.09 -19.97,63.36 -4.57,18.28 -14.7,55.8 -10.12,74.19 3.82,15.35 26.76,16.86 39.35,17.67 33.23,2.13 67.38,2.35 100.67,2.3 32.43,-0.06 66.84,-0.13 99.11,-3.16 22.16,-2.07 50.58,-6.11 70,-17.67 15.94,-9.5 23.23,-22.81 26.13,-41.06z"/>
  </g>
  <path id="root" class="fil2" d="M360.83 1254.19c-14.09,-7.4 -21.41,-16.45 -43.3,-24.81 -16.04,-6.13 -38.55,-9.74 -57.62,-9.42 -48.12,0.83 -70.74,17.66 -107.03,31.53 4.05,-40.51 85.18,-674.97 157.07,-698.15 42.86,40.94 42.11,263.12 39.92,336.49 -3.82,128.33 -1.06,238.33 10.96,364.36z"/>
  <g id="_1750926854784">
   <path class="fil3" d="M298.65 1167.71c-5.76,-93.05 -6.79,-185.23 -3.98,-279.53 1.45,-48.44 1.19,-97.82 -1.26,-146.42 -14.87,63.05 -26.82,127.34 -37.84,190.97 -12.33,71.16 -23.32,142.61 -33.37,214.13 -1.02,7.28 -2.06,14.59 -3.1,21.93 12.94,-2.49 26.09,-3.8 39.87,-4.04 12.65,-0.22 26.27,0.78 39.68,2.96z"/>
  </g>
  <path id="outline" class="fil4" d="M420.63 1587.07c26.93,-169.24 -55.62,-419.8 -243.13,-315.85 -58.58,32.48 -124.03,204.23 -140.84,271.58 -17.44,69.87 -28.39,123.68 56.46,129.12 48.3,3.1 157.24,3.51 204.51,-0.92 65.72,-6.16 113.45,-23.95 123,-83.93zm-59.8 -332.88c-12.02,-126.03 -14.78,-236.03 -10.96,-364.36 2.19,-73.37 2.94,-295.55 -39.92,-336.49 -71.89,23.18 -153.02,657.64 -157.07,698.15 36.29,-13.87 58.91,-30.7 107.03,-31.53 19.07,-0.32 41.58,3.29 57.62,9.42 21.89,8.36 29.21,17.41 43.3,24.81zm-37.59 -726.94c57.23,34.85 57.89,285.86 55.21,351.58 -5.28,129.8 -6.55,268.79 9.36,395.8 3.31,26.43 37.38,51.02 53.45,147.35 51.51,308.91 -84.17,275.03 -314.62,278.76 -67.97,1.1 -122.21,-8.71 -127,-75.96 -4.22,-59.2 19.69,-119.43 37.18,-169.16 14.55,-41.35 42.48,-107.46 63.65,-140.51 36.08,-56.34 27.95,-81.62 38.36,-165.72 14.51,-117.18 32.22,-234.66 56.75,-347 11.81,-54.14 60.14,-316.25 127.66,-275.14z"/>
 </g>
</svg>
