<?xml version="1.0" encoding="UTF-8"?>
<!DOCTYPE svg PUBLIC "-//W3C//DTD SVG 1.1//EN" "http://www.w3.org/Graphics/SVG/1.1/DTD/svg11.dtd">
<!-- Creator: CorelDRAW (Versión de evaluación) -->
<svg xmlns="http://www.w3.org/2000/svg" xml:space="preserve" width="429px" height="2052px" version="1.1" style="shape-rendering:geometricPrecision; text-rendering:geometricPrecision; image-rendering:optimizeQuality; fill-rule:evenodd; clip-rule:evenodd"
viewBox="0 0 429 2050.8"
 xmlns:xlink="http://www.w3.org/1999/xlink"
 xmlns:xodm="http://www.corel.com/coreldraw/odm/2003">
 <defs>
  <style type="text/css">
   <![CDATA[
    .fil4 {fill:#4B4B4D}
    .fil1 {fill:#FFCC29}
    .fil3 {fill:#F7ADAF}
    .fil2 {fill:#F3EDD9}
    .fil0 {fill:#F8FBFF}
   ]]>
  </style>
 </defs>
 <g id="pulpotomy">
  <metadata id="CorelCorpID_0Corel-Layer"/>
  <polygon id="crown" class="fil0" points="197.32,324.1 169.82,324.1 169.82,326.86 153.32,326.86 153.32,329.61 142.32,329.61 142.32,332.36 125.82,332.36 125.82,335.11 112.07,335.11 112.07,337.86 103.82,337.86 103.82,340.6 98.32,340.6 98.32,343.36 90.07,343.36 90.07,346.11 84.57,346.11 84.57,348.86 79.07,348.86 79.07,351.61 76.32,351.61 76.32,354.36 70.82,354.36 70.82,357.11 68.07,357.11 68.07,359.86 65.32,359.86 65.32,362.61 62.57,362.61 62.57,365.35 59.82,365.35 59.82,368.11 57.07,368.11 57.07,370.86 54.32,370.86 54.32,373.61 51.57,373.61 51.57,376.36 48.82,376.36 48.82,379.11 46.07,379.11 46.07,384.61 43.32,384.61 43.32,390.11 40.57,390.11 40.57,395.61 37.82,395.61 37.82,401.11 35.07,401.11 35.07,409.36 32.32,409.36 32.32,417.61 29.57,417.61 29.57,428.61 26.82,428.61 26.82,450.61 24.07,450.61 24.07,549.61 26.82,549.61 26.82,577.11 29.57,577.11 29.57,593.61 32.32,593.61 32.32,604.61 35.07,604.61 35.07,621.11 37.82,621.11 37.82,632.11 40.57,632.11 40.57,643.11 43.32,643.11 43.32,654.11 46.07,654.11 46.07,667.86 48.82,667.86 48.82,678.86 51.57,678.86 51.57,687.11 54.32,687.11 54.32,698.11 57.07,698.11 57.07,703.61 59.82,703.61 59.82,717.36 62.57,717.36 62.57,722.86 65.32,722.86 65.32,733.86 68.07,733.86 68.07,742.11 70.82,742.11 70.82,753.11 73.57,753.11 73.57,755.86 76.32,755.86 76.32,766.86 79.07,766.86 79.07,772.36 81.82,772.36 81.82,780.61 84.57,780.61 84.57,786.11 87.32,786.11 87.32,791.61 90.07,791.61 90.07,797.11 92.82,797.11 92.82,805.36 95.57,805.36 95.57,808.11 98.32,808.11 98.32,813.61 101.07,813.61 101.07,819.11 103.82,819.11 103.82,824.61 106.58,824.61 106.58,830.11 109.32,830.11 109.32,832.86 112.07,832.86 112.07,838.36 114.82,838.36 114.82,841.11 117.57,841.11 117.57,843.86 120.32,843.86 120.32,849.36 123.08,849.36 123.08,852.11 125.82,852.11 125.82,854.86 128.57,854.86 128.57,857.61 131.33,857.61 131.33,863.11 134.07,863.11 134.07,865.86 136.82,865.86 136.82,868.61 139.57,868.61 139.57,871.36 142.32,871.36 142.32,874.11 147.82,874.11 147.82,876.86 150.57,876.86 150.57,879.61 153.32,879.61 153.32,882.36 156.07,882.36 156.07,885.11 161.57,885.11 161.57,887.86 164.32,887.86 164.32,890.61 169.82,890.61 169.82,893.36 175.32,893.36 175.32,896.11 186.32,896.11 186.32,898.86 222.07,898.86 222.07,896.11 233.07,896.11 233.07,893.36 241.32,893.36 241.32,890.61 244.07,890.61 244.07,887.86 249.57,887.86 249.57,885.11 252.33,885.11 252.33,882.36 257.82,882.36 257.82,879.61 260.58,879.61 260.58,876.86 263.32,876.86 263.32,874.11 266.07,874.11 266.07,871.36 271.57,871.36 271.57,868.61 274.32,868.61 274.32,863.11 277.08,863.11 277.08,860.36 279.82,860.36 279.82,857.61 282.57,857.61 282.57,854.86 285.33,854.86 285.33,852.11 288.07,852.11 288.07,849.36 290.82,849.36 290.82,843.86 293.58,843.86 293.58,841.11 296.32,841.11 296.32,838.36 299.07,838.36 299.07,832.86 301.83,832.86 301.83,830.11 304.57,830.11 304.57,824.61 307.33,824.61 307.33,821.86 310.08,821.86 310.08,816.36 312.82,816.36 312.82,813.61 315.57,813.61 315.57,808.11 318.33,808.11 318.33,802.61 321.07,802.61 321.07,797.11 323.83,797.11 323.83,791.61 326.58,791.61 326.58,786.11 329.32,786.11 329.32,780.61 332.07,780.61 332.07,775.11 334.83,775.11 334.83,769.61 337.57,769.61 337.57,764.11 340.32,764.11 340.32,755.86 343.08,755.86 343.08,750.36 345.82,750.36 345.82,742.11 348.58,742.11 348.58,733.86 351.33,733.86 351.33,728.36 354.07,728.36 354.07,722.86 356.82,722.86 356.82,709.11 359.58,709.11 359.58,706.36 362.32,706.36 362.32,698.11 365.08,698.11 365.08,684.36 367.83,684.36 367.83,676.11 370.57,676.11 370.57,670.61 373.33,670.61 373.33,656.86 376.08,656.86 376.08,645.86 378.82,645.86 378.82,640.36 381.57,640.36 381.57,621.11 384.33,621.11 384.33,612.86 387.07,612.86 387.07,599.11 389.83,599.11 389.83,585.36 392.58,585.36 392.58,566.11 395.33,566.11 395.33,546.86 398.08,546.86 398.08,524.86 400.83,524.86 400.83,502.86 403.57,502.86 403.57,412.11 400.83,412.11 400.83,392.86 398.08,392.86 398.08,384.61 395.33,384.61 395.33,373.61 392.58,373.61 392.58,368.11 389.83,368.11 389.83,362.61 387.07,362.61 387.07,359.86 384.33,359.86 384.33,354.36 381.57,354.36 381.57,351.61 378.82,351.61 378.82,348.86 376.08,348.86 376.08,346.11 370.57,346.11 370.57,343.36 365.08,343.36 365.08,340.6 359.58,340.6 359.58,337.86 351.33,337.86 351.33,335.11 343.08,335.11 343.08,332.36 332.07,332.36 332.07,329.61 315.57,329.61 315.57,326.86 293.58,326.86 293.58,324.1 255.07,324.1 255.07,321.36 197.32,321.36 "/>
  <g id="_2292418652016">
   <polygon class="fil1" points="240.83,417.12 229.83,417.12 229.83,419.86 213.33,419.86 213.33,422.61 199.58,422.61 199.58,425.37 191.33,425.37 191.33,428.11 185.83,428.11 185.83,430.86 177.58,430.86 177.58,433.62 172.08,433.62 172.08,436.36 166.58,436.36 166.58,439.11 163.83,439.11 163.83,441.87 158.33,441.87 158.33,444.61 155.58,444.61 155.58,447.37 152.83,447.37 152.83,450.12 150.08,450.12 150.08,452.86 147.33,452.86 147.33,455.61 144.58,455.61 144.58,458.37 141.83,458.37 141.83,461.11 139.08,461.11 139.08,463.87 136.33,463.87 136.33,466.62 133.58,466.62 133.58,472.12 130.83,472.12 130.83,477.61 128.08,477.61 128.08,483.12 125.33,483.12 125.33,488.62 122.58,488.62 122.58,496.87 119.83,496.87 119.83,505.12 117.08,505.12 117.08,506.1 119.83,506.1 119.83,517.1 122.58,517.1 122.58,533.6 125.33,533.6 125.33,544.6 128.08,544.6 128.08,555.6 130.83,555.6 130.83,566.6 133.58,566.6 133.58,580.35 136.33,580.35 136.33,591.35 139.08,591.35 139.08,599.6 141.83,599.6 141.83,610.6 144.58,610.6 144.58,616.1 147.33,616.1 147.33,629.85 150.08,629.85 150.08,635.35 152.83,635.35 152.83,646.35 155.58,646.35 155.58,654.6 158.33,654.6 158.33,665.6 161.08,665.6 161.08,668.35 163.83,668.35 163.83,679.35 166.58,679.35 166.58,684.85 169.33,684.85 169.33,693.1 172.08,693.1 172.08,698.6 174.83,698.6 174.83,704.1 177.58,704.1 177.58,709.6 180.33,709.6 180.33,717.85 183.08,717.85 183.08,720.6 185.83,720.6 185.83,726.1 188.58,726.1 188.58,731.6 191.33,731.6 191.33,737.1 194.08,737.1 194.08,742.6 196.83,742.6 196.83,745.35 199.58,745.35 199.58,750.85 202.33,750.85 202.33,753.6 205.08,753.6 205.08,756.35 206.07,756.35 206.07,753.6 208.82,753.6 208.82,750.85 211.57,750.85 211.57,745.35 214.32,745.35 214.32,742.6 217.06,742.6 217.06,737.1 219.82,737.1 219.82,734.35 222.57,734.35 222.57,728.85 225.31,728.85 225.31,726.1 228.07,726.1 228.07,720.6 230.82,720.6 230.82,715.1 233.57,715.1 233.57,709.6 236.32,709.6 236.32,704.1 239.07,704.1 239.07,698.6 241.81,698.6 241.81,693.1 244.57,693.1 244.57,687.6 247.32,687.6 247.32,682.1 250.07,682.1 250.07,676.6 252.82,676.6 252.82,668.35 255.57,668.35 255.57,662.85 258.32,662.85 258.32,654.6 261.07,654.6 261.07,646.35 263.82,646.35 263.82,640.85 266.57,640.85 266.57,635.35 269.32,635.35 269.32,621.6 272.07,621.6 272.07,618.85 274.82,618.85 274.82,610.6 277.57,610.6 277.57,596.85 280.32,596.85 280.32,588.6 283.07,588.6 283.07,583.1 285.82,583.1 285.82,569.35 288.57,569.35 288.57,558.35 291.32,558.35 291.32,552.85 294.07,552.85 294.07,533.6 296.82,533.6 296.82,525.35 299.57,525.35 299.57,511.6 302.32,511.6 302.32,497.85 305.07,497.85 305.07,478.6 307.82,478.6 307.82,461.11 305.07,461.11 305.07,455.61 302.32,455.61 302.32,450.12 299.57,450.12 299.57,447.37 296.82,447.37 296.82,441.87 294.07,441.87 294.07,439.11 291.32,439.11 291.32,436.36 288.57,436.36 288.57,433.62 283.07,433.62 283.07,430.86 277.57,430.86 277.57,428.11 272.07,428.11 272.07,425.37 263.82,425.37 263.82,422.61 255.57,422.61 255.57,419.86 244.57,419.86 244.57,417.12 "/>
  </g>
  <polygon id="root" class="fil2" points="329.32,835.61 326.58,835.61 326.58,841.11 323.83,841.11 323.83,843.86 321.07,843.86 321.07,849.36 318.33,849.36 318.33,852.11 315.57,852.11 315.57,857.61 312.82,857.61 312.82,860.36 310.08,860.36 310.08,863.11 307.33,863.11 307.33,865.86 304.57,865.86 304.57,871.36 301.83,871.36 301.83,874.11 299.07,874.11 299.07,876.86 296.32,876.86 296.32,879.61 293.58,879.61 293.58,882.36 290.82,882.36 290.82,885.11 288.07,885.11 288.07,887.86 285.33,887.86 285.33,890.61 282.57,890.61 282.57,893.36 279.82,893.36 279.82,896.11 274.32,896.11 274.32,898.86 271.57,898.86 271.57,901.61 268.82,901.61 268.82,904.36 263.32,904.36 263.32,907.11 260.58,907.11 260.58,909.86 255.07,909.86 255.07,912.61 249.57,912.61 249.57,915.36 241.32,915.36 241.32,918.11 235.83,918.11 235.83,920.86 224.82,920.86 224.82,923.61 186.32,923.61 186.32,920.86 178.07,920.86 178.07,918.11 167.07,918.11 167.07,915.36 161.57,915.36 161.57,912.61 156.07,912.61 156.07,909.86 150.57,909.86 150.57,907.11 147.82,907.11 147.82,904.36 142.32,904.36 142.32,901.61 139.57,901.61 139.57,898.86 134.07,898.86 134.07,896.11 131.33,896.11 131.33,893.36 128.57,893.36 128.57,890.61 125.82,890.61 125.82,887.86 123.08,887.86 123.08,885.11 120.32,885.11 120.32,882.36 117.57,882.36 117.57,879.61 114.82,879.61 114.82,876.86 112.07,876.86 112.07,874.11 109.32,874.11 109.32,871.36 106.58,871.36 106.58,865.86 103.82,865.86 103.82,863.11 101.07,863.11 101.07,860.36 98.32,860.36 98.32,854.86 95.57,854.86 95.57,852.11 92.82,852.11 92.82,846.61 90.07,846.61 90.07,843.86 87.32,843.86 87.32,896.11 90.07,896.11 90.07,929.11 92.82,929.11 92.82,1014.36 95.57,1014.36 95.57,1050.11 98.32,1050.11 98.32,1110.61 101.07,1110.61 101.07,1149.11 103.82,1149.11 103.82,1184.86 106.58,1184.86 106.58,1206.86 109.32,1206.86 109.32,1234.36 112.07,1234.36 112.07,1253.61 114.82,1253.61 114.82,1278.36 117.57,1278.36 117.57,1303.11 120.32,1303.11 120.32,1319.61 123.08,1319.61 123.08,1341.61 125.82,1341.61 125.82,1369.11 128.57,1369.11 128.57,1391.11 131.33,1391.11 131.33,1402.12 134.07,1402.12 134.07,1424.11 136.82,1424.11 136.82,1451.62 139.57,1451.62 139.57,1479.12 142.32,1479.12 142.32,1523.11 145.07,1523.11 145.07,1567.12 147.82,1567.12 147.82,1644.12 150.57,1644.12 150.57,1704.62 153.32,1704.62 153.32,1732.12 156.07,1732.12 156.07,1748.62 158.82,1748.62 158.82,1765.12 161.57,1765.12 161.57,1773.37 164.32,1773.37 164.32,1781.62 167.07,1781.62 167.07,1784.37 169.82,1784.37 169.82,1789.87 178.07,1789.87 178.07,1787.12 180.82,1787.12 180.82,1784.37 183.57,1784.37 183.57,1781.62 186.32,1781.62 186.32,1778.87 189.07,1778.87 189.07,1776.12 191.82,1776.12 191.82,1770.62 194.58,1770.62 194.58,1765.12 197.32,1765.12 197.32,1762.37 200.07,1762.37 200.07,1756.87 202.82,1756.87 202.82,1751.37 205.57,1751.37 205.57,1745.87 208.32,1745.87 208.32,1740.37 211.07,1740.37 211.07,1732.12 213.82,1732.12 213.82,1726.62 216.57,1726.62 216.57,1718.37 219.33,1718.37 219.33,1710.12 222.07,1710.12 222.07,1701.87 224.82,1701.87 224.82,1690.87 227.57,1690.87 227.57,1685.37 230.32,1685.37 230.32,1674.37 233.07,1674.37 233.07,1666.12 235.83,1666.12 235.83,1657.87 238.57,1657.87 238.57,1644.12 241.32,1644.12 241.32,1635.87 244.07,1635.87 244.07,1622.12 246.82,1622.12 246.82,1608.37 249.57,1608.37 249.57,1602.87 252.33,1602.87 252.33,1586.37 255.07,1586.37 255.07,1569.87 257.82,1569.87 257.82,1556.12 260.58,1556.12 260.58,1542.37 263.32,1542.37 263.32,1531.36 266.07,1531.36 266.07,1517.62 268.82,1517.62 268.82,1509.37 271.57,1509.37 271.57,1487.37 274.32,1487.37 274.32,1476.36 277.08,1476.36 277.08,1457.11 279.82,1457.11 279.82,1440.61 282.57,1440.61 282.57,1424.11 285.33,1424.11 285.33,1402.12 288.07,1402.12 288.07,1382.86 290.82,1382.86 290.82,1363.62 293.58,1363.62 293.58,1333.36 296.32,1333.36 296.32,1303.11 299.07,1303.11 299.07,1270.11 301.83,1270.11 301.83,1231.61 304.57,1231.61 304.57,1206.86 307.33,1206.86 307.33,1162.86 310.08,1162.86 310.08,1118.86 312.82,1118.86 312.82,1074.86 315.57,1074.86 315.57,1022.61 318.33,1022.61 318.33,978.61 321.07,978.61 321.07,940.11 323.83,940.11 323.83,901.61 326.58,901.61 326.58,868.61 329.32,868.61 329.32,843.86 332.07,843.86 332.07,832.86 329.32,832.86 "/>
  <g id="_2292418652880">
   <polygon class="fil3" points="240.87,998.31 173.03,998.31 173.03,1035.91 175.77,1035.91 175.77,1074.41 178.52,1074.41 178.52,1110.16 181.28,1110.16 181.28,1132.16 184.02,1132.16 184.02,1159.66 186.77,1159.66 186.77,1178.91 189.53,1178.91 189.53,1203.66 192.27,1203.66 192.27,1228.41 195.02,1228.41 195.02,1244.91 197.78,1244.91 197.78,1266.91 200.52,1266.91 200.52,1294.41 203.27,1294.41 203.27,1316.41 206.03,1316.41 206.03,1327.41 208.77,1327.41 208.77,1349.41 210.63,1349.41 210.63,1327.41 213.37,1327.41 213.37,1308.16 216.12,1308.16 216.12,1288.92 218.87,1288.92 218.87,1258.66 221.62,1258.66 221.62,1228.41 224.37,1228.41 224.37,1195.41 227.12,1195.41 227.12,1156.91 229.87,1156.91 229.87,1132.16 232.62,1132.16 232.62,1088.16 235.38,1088.16 235.38,1044.16 238.12,1044.16 238.12,1000.16 240.87,1000.16 "/>
  </g>
  <path id="outline" class="fil4" d="M329.32 868.61l-2.74 0 0 33 -2.75 0 0 38.5 -2.76 0 0 38.5 -2.74 0 0 44 -2.76 0 0 52.25 -2.75 0 0 44 -2.74 0 0 44 -2.75 0 0 44 -2.76 0 0 24.75 -2.74 0 0 38.5 -2.76 0 0 33 -2.75 0 0 30.25 -2.74 0 0 30.26 -2.76 0 0 19.24 -2.75 0 0 19.26 -2.74 0 0 21.99 -2.76 0 0 16.5 -2.75 0 0 16.5 -2.74 0 0 19.25 -2.76 0 0 11.01 -2.75 0 0 22 -2.75 0 0 8.25 -2.75 0 0 13.74 -2.75 0 0 11.01 -2.74 0 0 13.75 -2.76 0 0 13.75 -2.75 0 0 16.5 -2.74 0 0 16.5 -2.76 0 0 5.5 -2.75 0 0 13.75 -2.75 0 0 13.75 -2.75 0 0 8.25 -2.75 0 0 13.75 -2.74 0 0 8.25 -2.76 0 0 8.25 -2.75 0 0 11 -2.75 0 0 5.5 -2.75 0 0 11 -2.75 0 0 8.25 -2.74 0 0 8.25 -2.76 0 0 8.25 -2.75 0 0 5.5 -2.75 0 0 8.25 -2.75 0 0 5.5 -2.75 0 0 5.5 -2.75 0 0 5.5 -2.75 0 0 5.5 -2.75 0 0 2.75 -2.74 0 0 5.5 -2.76 0 0 5.5 -2.75 0 0 2.75 -2.75 0 0 2.75 -2.75 0 0 2.75 -2.75 0 0 2.75 -2.75 0 0 2.75 -8.25 0 0 -5.5 -2.75 0 0 -2.75 -2.75 0 0 -8.25 -2.75 0 0 -8.25 -2.75 0 0 -16.5 -2.75 0 0 -16.5 -2.75 0 0 -27.5 -2.75 0 0 -60.5 -2.75 0 0 -77 -2.75 0 0 -44.01 -2.75 0 0 -43.99 -2.75 0 0 -27.5 -2.75 0 0 -27.51 -2.75 0 0 -21.99 -2.74 0 0 -11.01 -2.76 0 0 -22 -2.75 0 0 -27.5 -2.74 0 0 -22 -2.76 0 0 -16.5 -2.75 0 0 -24.75 -2.75 0 0 -24.75 -2.75 0 0 -19.25 -2.75 0 0 -27.5 -2.74 0 0 -22 -2.76 0 0 -35.75 -2.75 0 0 -38.5 -2.75 0 0 -60.5 -2.75 0 0 -35.75 -2.75 0 0 -85.25 -2.75 0 0 -33 -2.75 0 0 -52.25 2.75 0 0 2.75 2.75 0 0 5.5 2.75 0 0 2.75 2.75 0 0 5.5 2.75 0 0 2.75 2.75 0 0 2.75 2.76 0 0 5.5 2.74 0 0 2.75 2.75 0 0 2.75 2.75 0 0 2.75 2.75 0 0 2.75 2.75 0 0 2.75 2.76 0 0 2.75 2.74 0 0 2.75 2.75 0 0 2.75 2.76 0 0 2.75 2.74 0 0 2.75 5.5 0 0 2.75 2.75 0 0 2.75 5.5 0 0 2.75 2.75 0 0 2.75 5.5 0 0 2.75 5.5 0 0 2.75 5.5 0 0 2.75 11 0 0 2.75 8.25 0 0 2.75 38.5 0 0 -2.75 11.01 0 0 -2.75 5.49 0 0 -2.75 8.25 0 0 -2.75 5.5 0 0 -2.75 5.51 0 0 -2.75 2.74 0 0 -2.75 5.5 0 0 -2.75 2.75 0 0 -2.75 2.75 0 0 -2.75 5.5 0 0 -2.75 2.75 0 0 -2.75 2.76 0 0 -2.75 2.74 0 0 -2.75 2.75 0 0 -2.75 2.76 0 0 -2.75 2.74 0 0 -2.75 2.75 0 0 -2.75 2.76 0 0 -2.75 2.74 0 0 -5.5 2.76 0 0 -2.75 2.75 0 0 -2.75 2.74 0 0 -2.75 2.75 0 0 -5.5 2.76 0 0 -2.75 2.74 0 0 -5.5 2.76 0 0 -2.75 2.75 0 0 -5.5 2.74 0 0 -2.75 2.75 0 0 11 -2.75 0 0 24.75zm71.51 -343.75l-2.75 0 0 22 -2.75 0 0 19.25 -2.75 0 0 19.25 -2.75 0 0 13.75 -2.76 0 0 13.75 -2.74 0 0 8.25 -2.76 0 0 19.25 -2.75 0 0 5.5 -2.74 0 0 11 -2.75 0 0 13.75 -2.76 0 0 5.5 -2.74 0 0 8.25 -2.75 0 0 13.75 -2.76 0 0 8.25 -2.74 0 0 2.75 -2.76 0 0 13.75 -2.75 0 0 5.5 -2.74 0 0 5.5 -2.75 0 0 8.25 -2.76 0 0 8.25 -2.74 0 0 5.5 -2.76 0 0 8.25 -2.75 0 0 5.5 -2.74 0 0 5.5 -2.76 0 0 5.5 -2.75 0 0 5.5 -2.74 0 0 5.5 -2.75 0 0 5.5 -2.76 0 0 5.5 -2.74 0 0 5.5 -2.76 0 0 5.5 -2.75 0 0 2.75 -2.74 0 0 5.5 -2.75 0 0 2.75 -2.76 0 0 5.5 -2.74 0 0 2.75 -2.76 0 0 5.5 -2.75 0 0 2.75 -2.74 0 0 2.75 -2.76 0 0 5.5 -2.75 0 0 2.75 -2.74 0 0 2.75 -2.76 0 0 2.75 -2.75 0 0 2.75 -2.74 0 0 2.75 -2.76 0 0 5.5 -2.75 0 0 2.75 -5.5 0 0 2.75 -2.75 0 0 2.75 -2.74 0 0 2.75 -2.76 0 0 2.75 -5.49 0 0 2.75 -2.76 0 0 2.75 -5.5 0 0 2.75 -2.75 0 0 2.75 -8.25 0 0 2.75 -11 0 0 2.75 -35.75 0 0 -2.75 -11 0 0 -2.75 -5.5 0 0 -2.75 -5.5 0 0 -2.75 -2.75 0 0 -2.75 -5.5 0 0 -2.75 -2.75 0 0 -2.75 -2.75 0 0 -2.75 -2.75 0 0 -2.75 -5.5 0 0 -2.75 -2.75 0 0 -2.75 -2.75 0 0 -2.75 -2.75 0 0 -2.75 -2.74 0 0 -5.5 -2.76 0 0 -2.75 -2.75 0 0 -2.75 -2.74 0 0 -2.75 -2.76 0 0 -5.5 -2.75 0 0 -2.75 -2.75 0 0 -2.75 -2.75 0 0 -5.5 -2.75 0 0 -2.75 -2.74 0 0 -5.5 -2.76 0 0 -5.5 -2.75 0 0 -5.5 -2.75 0 0 -5.5 -2.75 0 0 -2.75 -2.75 0 0 -8.25 -2.75 0 0 -5.5 -2.75 0 0 -5.5 -2.75 0 0 -5.5 -2.75 0 0 -8.25 -2.75 0 0 -5.5 -2.75 0 0 -11 -2.75 0 0 -2.75 -2.75 0 0 -11 -2.75 0 0 -8.25 -2.75 0 0 -11 -2.75 0 0 -5.5 -2.75 0 0 -13.75 -2.75 0 0 -5.5 -2.75 0 0 -11 -2.75 0 0 -8.25 -2.75 0 0 -11 -2.75 0 0 -13.75 -2.75 0 0 -11 -2.75 0 0 -11 -2.75 0 0 -11 -2.75 0 0 -16.5 -2.75 0 0 -11 -2.75 0 0 -16.5 -2.75 0 0 -27.5 -2.75 0 0 -99 2.75 0 0 -22 2.75 0 0 -11 2.75 0 0 -8.25 2.75 0 0 -8.25 2.75 0 0 -5.5 2.75 0 0 -5.5 2.75 0 0 -5.5 2.75 0 0 -5.5 2.75 0 0 -2.75 2.75 0 0 -2.75 2.75 0 0 -2.75 2.75 0 0 -2.75 2.75 0 0 -2.76 2.75 0 0 -2.74 2.75 0 0 -2.75 2.75 0 0 -2.75 2.75 0 0 -2.75 5.5 0 0 -2.75 2.75 0 0 -2.75 5.5 0 0 -2.75 5.5 0 0 -2.75 8.25 0 0 -2.76 5.5 0 0 -2.74 8.25 0 0 -2.75 13.75 0 0 -2.75 16.5 0 0 -2.75 11 0 0 -2.75 16.5 0 0 -2.76 27.5 0 0 -2.74 57.75 0 0 2.74 38.51 0 0 2.76 21.99 0 0 2.75 16.5 0 0 2.75 11.01 0 0 2.75 8.25 0 0 2.75 8.25 0 0 2.74 5.5 0 0 2.76 5.49 0 0 2.75 5.51 0 0 2.75 2.74 0 0 2.75 2.75 0 0 2.75 2.76 0 0 5.5 2.74 0 0 2.75 2.76 0 0 5.5 2.75 0 0 5.5 2.75 0 0 11 2.75 0 0 8.25 2.75 0 0 19.25 2.74 0 0 90.75 -2.74 0 0 22zm-220.01 -222.75l-27.5 0 0 2.75 -19.25 0 0 2.75 -10.99 0 0 2.75 -8.26 0 0 2.75 -8.24 0 0 2.74 -11.01 0 0 2.76 -8.25 0 0 2.75 -5.5 0 0 2.74 -8.25 0 0 2.76 -2.75 0 0 2.75 -5.5 0 0 2.75 -5.5 0 0 2.75 -2.75 0 0 2.75 -5.5 0 0 2.74 -2.75 0 0 2.76 -2.75 0 0 2.75 -5.5 0 0 5.5 -2.75 0 0 2.75 -2.75 0 0 2.75 -2.75 0 0 5.5 -2.75 0 0 2.74 -2.75 0 0 5.51 -2.75 0 0 2.75 -2.75 0 0 5.5 -2.75 0 0 8.25 -2.75 0 0 5.5 -2.75 0 0 8.25 -2.75 0 0 5.5 -2.75 0 0 13.75 -2.75 0 0 8.25 -2.75 0 0 27.5 -2.75 0 0 90.75 2.75 0 0 24.75 2.75 0 0 16.5 2.75 0 0 19.25 2.75 0 0 13.75 2.75 0 0 13.75 2.75 0 0 5.5 2.75 0 0 13.75 2.75 0 0 13.75 2.75 0 0 8.25 2.75 0 0 11 2.75 0 0 13.75 2.75 0 0 5.5 2.75 0 0 13.75 2.75 0 0 8.25 2.75 0 0 8.25 2.75 0 0 5.5 2.75 0 0 8.25 2.75 0 0 13.75 2.75 0 0 5.5 2.75 0 0 5.5 2.75 0 0 19.25 2.75 0 0 24.75 2.75 0 0 44 2.75 0 0 41.25 2.75 0 0 60.5 2.75 0 0 77 2.75 0 0 63.25 2.75 0 0 33 2.75 0 0 35.75 2.75 0 0 24.75 2.75 0 0 27.5 2.75 0 0 24.75 2.75 0 0 19.25 2.75 0 0 27.5 2.75 0 0 27.5 2.75 0 0 22 2.75 0 0 11 2.75 0 0 30.25 2.76 0 0 11 2.74 0 0 30.26 2.75 0 0 19.24 2.75 0 0 27.5 2.75 0 0 35.76 2.75 0 0 57.75 2.76 0 0 41.25 2.74 0 0 71.5 2.75 0 0 33 2.76 0 0 33 2.74 0 0 13.75 2.75 0 0 13.75 2.75 0 0 8.25 2.75 0 0 5.5 2.75 0 0 5.5 2.75 0 0 2.75 2.75 0 0 5.5 5.5 0 0 2.75 2.75 0 0 2.75 5.5 0 0 2.75 22 0 0 -2.75 5.5 0 0 -2.75 5.5 0 0 -2.75 2.75 0 0 -2.75 2.75 0 0 -2.75 2.75 0 0 -2.75 2.75 0 0 -5.5 2.75 0 0 -2.75 2.75 0 0 -5.5 2.75 0 0 -2.75 2.76 0 0 -5.5 2.74 0 0 -5.5 2.75 0 0 -8.25 2.75 0 0 -5.5 2.75 0 0 -5.5 2.75 0 0 -8.25 2.76 0 0 -8.25 2.74 0 0 -5.5 2.75 0 0 -5.5 2.75 0 0 -8.25 2.75 0 0 -8.25 2.75 0 0 -11 2.76 0 0 -11 2.74 0 0 -8.25 2.75 0 0 -11 2.76 0 0 -8.25 2.74 0 0 -11 2.75 0 0 -11 2.75 0 0 -13.75 2.75 0 0 -8.25 2.75 0 0 -11 2.76 0 0 -16.5 2.74 0 0 -11 2.75 0 0 -11 2.76 0 0 -16.5 2.74 0 0 -16.5 2.75 0 0 -8.25 2.76 0 0 -19.25 2.74 0 0 -16.5 2.75 0 0 -22 2.76 0 0 -13.76 2.74 0 0 -19.24 2.76 0 0 -22.01 2.75 0 0 -10.99 2.74 0 0 -27.51 2.75 0 0 -16.5 2.76 0 0 -21.99 2.74 0 0 -24.76 2.76 0 0 -35.75 2.75 0 0 -46.75 2.74 0 0 -22 2.75 0 0 -68.75 2.76 0 0 -33 2.74 0 0 -63.25 2.75 0 0 -35.75 2.76 0 0 -27.5 2.74 0 0 -38.5 2.76 0 0 -44 2.75 0 0 -27.5 2.74 0 0 -33 2.75 0 0 -22 2.76 0 0 -19.25 2.74 0 0 -19.25 2.76 0 0 -8.25 2.75 0 0 -5.5 2.74 0 0 -8.25 2.76 0 0 -8.25 2.75 0 0 -8.25 2.74 0 0 -8.25 2.75 0 0 -8.25 2.76 0 0 -5.5 2.74 0 0 -13.75 2.76 0 0 -8.25 2.75 0 0 -5.5 2.75 0 0 -8.25 2.75 0 0 -13.75 2.75 0 0 -11 2.74 0 0 -11 2.76 0 0 -13.75 2.75 0 0 -11 2.74 0 0 -13.75 2.76 0 0 -11 2.75 0 0 -19.25 2.74 0 0 -27.5 2.76 0 0 -24.75 2.75 0 0 -22.01 2.74 0 0 -76.99 -2.74 0 0 -11 -2.75 0 0 -22 -2.76 0 0 -8.25 -2.74 0 0 -8.25 -2.75 0 0 -8.25 -2.76 0 0 -8.25 -2.74 0 0 -2.75 -2.75 0 0 -5.5 -2.76 0 0 -2.76 -2.74 0 0 -2.74 -2.75 0 0 -2.75 -2.75 0 0 -2.75 -2.75 0 0 -2.75 -2.75 0 0 -2.75 -2.76 0 0 -2.76 -5.5 0 0 -2.74 -5.49 0 0 -2.75 -5.51 0 0 -2.76 -5.49 0 0 -2.74 -8.26 0 0 -2.75 -11 0 0 -2.75 -16.5 0 0 -2.75 -16.5 0 0 -2.75 -22 0 0 -2.76 -110 0 0 2.76z"/>
 </g>
</svg>
