<?xml version="1.0" encoding="UTF-8"?>
<!DOCTYPE svg PUBLIC "-//W3C//DTD SVG 1.1//EN" "http://www.w3.org/Graphics/SVG/1.1/DTD/svg11.dtd">
<!-- Creator: CorelDRAW (Versión de evaluación) -->
<svg xmlns="http://www.w3.org/2000/svg" xml:space="preserve" width="616px" height="2062px" version="1.1" style="shape-rendering:geometricPrecision; text-rendering:geometricPrecision; image-rendering:optimizeQuality; fill-rule:evenodd; clip-rule:evenodd"
viewBox="0 0 616 2063.32"
 xmlns:xlink="http://www.w3.org/1999/xlink"
 xmlns:xodm="http://www.corel.com/coreldraw/odm/2003">
 <defs>
  <style type="text/css">
   <![CDATA[
    .fil4 {fill:#4B4B4D}
    .fil1 {fill:#FFCC29}
    .fil3 {fill:#F7ADAF}
    .fil2 {fill:#F3EDD9}
    .fil0 {fill:#F8FBFF}
   ]]>
  </style>
 </defs>
 <g id="pulpotomy">
  <metadata id="CorelCorpID_0Corel-Layer"/>
  <path id="crown" class="fil0" d="M29.3 1579.24c-12.8,-63.55 36.13,-180.4 58.16,-234.33 31.07,-76.07 66.88,-121 151.76,-144.65 171.06,-47.66 274.15,137.72 322.33,264.39 35.16,92.42 36.7,158.57 -20.49,225.52 -35.54,41.62 -118.69,99 -169.88,125.99 -34.74,18.31 -65.72,-9.4 -92.63,-39.37 -89.82,-99.99 -231.09,-107.37 -249.25,-197.55z"/>
  <g id="_1750352695536">
   <path class="fil1" d="M72.52 1570.53c6.15,30.56 50.41,51.85 75.02,64.77 61.2,32.12 116.47,59.33 163.81,112.03 5.23,5.82 30.56,34.42 39.27,29.83 45.94,-24.22 123.47,-76.46 156.92,-115.62 50.02,-58.57 38.4,-113.93 12.81,-181.22 -40.63,-106.8 -128,-276.96 -269.3,-237.59 -69.78,19.44 -96.19,53.75 -122.78,118.85 -19.62,48.04 -65.7,159.57 -55.75,208.95z"/>
  </g>
  <path id="root" class="fil2" d="M428.02 662.14c-0.19,99.98 -4.49,338.48 4.72,430.93 4.02,40.24 13.08,92.51 12.78,130.47 -46.31,-25.59 -79.65,-52.35 -148.64,-55.74 -65.59,-3.22 -118.08,22.93 -156.66,51.14 -0.71,-54.05 70.33,-413.95 88.2,-479.53 28.78,-105.64 57.07,-229.5 94.32,-330.71 12.1,-32.87 26.42,-81.55 61.62,-85.4 55.27,44.85 44.02,255.49 43.66,338.84z"/>
  <g id="_1750352695488">
   <path class="fil3" d="M232.45 1097.78c22.1,-4.13 44.83,-5.78 68.09,-4.64 22.18,1.09 40.96,3.79 57.88,7.88 -0.02,-0.18 -0.04,-0.36 -0.05,-0.54 -7.08,-71.03 -6.25,-148.48 -6.3,-219.99 -0.06,-72.88 0.99,-145.72 1.2,-218.58 0.11,-35.62 1.04,-70.99 1.02,-106.45 -19.08,67.67 -35.47,136.5 -53.76,203.6 -7.92,29.08 -13.98,60.14 -20.16,89.66 -10.19,48.68 -19.85,97.5 -29.14,146.36 -6.49,34.17 -12.83,68.41 -18.78,102.7z"/>
  </g>
  <path id="outline" class="fil4" d="M29.3 1579.24c18.16,90.18 159.43,97.56 249.25,197.55 26.91,29.97 57.89,57.68 92.63,39.37 51.19,-26.99 134.34,-84.37 169.88,-125.99 57.19,-66.95 55.65,-133.1 20.49,-225.52 -48.18,-126.67 -151.27,-312.05 -322.33,-264.39 -84.88,23.65 -120.69,68.58 -151.76,144.65 -22.03,53.93 -70.96,170.78 -58.16,234.33zm398.72 -917.1c0.36,-83.35 11.61,-293.99 -43.66,-338.84 -35.2,3.85 -49.52,52.53 -61.62,85.4 -37.25,101.21 -65.54,225.07 -94.32,330.71 -17.87,65.58 -88.91,425.48 -88.2,479.53 38.58,-28.21 91.07,-54.36 156.66,-51.14 68.99,3.39 102.33,30.15 148.64,55.74 0.3,-37.96 -8.76,-90.23 -12.78,-130.47 -9.21,-92.45 -4.91,-330.95 -4.72,-430.93zm-36.95 -363.44c89.48,30.32 63.13,415.35 62.92,480.16 -0.29,88.27 -1.1,178.86 3.7,266.63l16.35 186.05c3.26,30.98 7.43,28.41 21.99,48.48 29.77,41.05 71.76,124.8 92.89,178.02 30.74,77.39 41.12,148.63 -3.22,218.19 -16.59,26.02 -75.87,80.56 -100.58,99.75 -49.17,38.19 -127.39,100.47 -181.34,58.95 -17.03,-13.11 -23.78,-16.75 -38.01,-32.92 -53.65,-61.03 -96.82,-68.68 -162.37,-108.67 -58.05,-35.41 -115.95,-69.19 -101.68,-167.15 23.87,-163.8 102.04,-252.21 108.42,-296.83 5.59,-39.15 12.59,-78.23 18.76,-117.95 35.65,-229.56 83.51,-443.87 150.2,-662.93 16.2,-53.19 52.04,-170.09 111.97,-149.78z"/>
 </g>
</svg>
