<!-- Creator: CorelDRAW (Versión de evaluación) -->
<svg xmlns="http://www.w3.org/2000/svg" xml:space="preserve" width="85.7834mm" height="173.699mm" version="1.1" style="shape-rendering:geometricPrecision; text-rendering:geometricPrecision; image-rendering:optimizeQuality; fill-rule:evenodd; clip-rule:evenodd"
viewBox="0 0 8578.34 17369.86"
 xmlns:xlink="http://www.w3.org/1999/xlink"
 xmlns:xodm="http://www.corel.com/coreldraw/odm/2003">
 <defs>
  <style type="text/css">
   <![CDATA[
    .fil2 {fill:#4B4B4D}
    .fil3 {fill:#FFCC29}
    .fil4 {fill:#F48884}
    .fil1 {fill:#F1EAD5}
    .fil0 {fill:#F8F9FD}
   ]]>
  </style>
 </defs>
 <g id="deciduous" visibility="hidden">
  <metadata id="CorelCorpID_0Corel-Layer"/>
  <path id="crown" class="fil0" d="M5145.78 1933.08c-87.89,-255.53 32.48,-617.42 -51.93,-780.79 -93.92,-181.77 -411.51,-345.37 -587.68,-390.48l-253.66 -71.06c-103.09,-28.12 -43.24,-33.76 -143.99,-65.82 -68.11,-21.67 -98.91,-21.16 -163.88,-54.23 -64.86,-33.02 -98.22,-41.24 -149.85,-65.25 -171.71,-79.85 -343.71,-138.99 -541.76,-95.72 -172.13,37.62 -804.69,629.65 -910.98,756.95 -47.92,57.38 -34.97,51.46 -99.06,106.14 -211.11,180.1 -144.56,391.96 -152.45,658.3 -2.74,92.91 -23.98,80.18 -29.71,170.39 -13.98,220.17 36,157.42 -60.76,331.17 -287.82,-62.27 -52.64,-953.87 -90.74,-1051.42 -29.02,-74.29 -166.87,-114.1 -226.77,-160.73 -735.17,-572.38 -1146.81,-769.27 -1392.37,325.54l-80.05 999.5c6.84,210.68 131.09,827.88 208.58,995.83 121.07,262.44 243.43,512.96 456.4,708.84 50.33,46.3 61.8,46.99 110.46,86.59 46.15,37.56 59.52,64.11 99.96,95.71 91.29,71.39 274.56,161.78 393.34,191.9 236.28,59.91 250.31,62.74 515.19,68.38 150.95,3.22 187.26,35.63 339.73,39.25l914.76 18.78c171.64,8.49 48.61,14.49 139.26,52.86 68.52,29 108.26,7.86 181.07,14.59 145.3,13.43 13.78,20.19 134.4,53.79 66.84,18.61 110.3,-1.78 172.96,22.62 61.25,23.85 24.48,43.19 126.54,56.24 120.1,15.34 58.08,-15.9 164.24,34.98 97.43,46.7 39.58,20.8 155.59,31.61 115.97,10.8 73.54,23.75 146.81,49.48 71.4,25.08 92.52,3.31 168.82,24.47 55.67,15.44 52.99,37.86 142.59,48.06 64.53,7.33 112.85,-1.55 183.33,10.51 53.5,9.16 96.14,31.75 158.08,40.5l526.26 21.81c380.84,-17.36 345.07,-53.49 502.64,-71.01 107.61,-11.97 184.47,-49.54 287.33,-81.94 63.95,-20.14 51.77,-27.4 125.75,-59.11 506.51,-217.17 809.11,-657.47 1091.11,-1104.68l270.97 -464.63c27.62,-49.4 15.03,-17.06 38.22,-62.97 114.4,-226.48 200.92,-485.24 261.63,-726.73 15.87,-63.16 15,-93.76 28.98,-153.41 20.26,-86.37 29.56,-27.43 34.88,-152.87 5.53,-130.3 11.2,-193.76 31.76,-305.72 29.14,-158.6 1.98,-582.5 -85.97,-704.13 -93.47,-129.26 -205.27,-156.76 -333.78,-230.13l-1022.99 -537.24c-276.92,-151.46 -519.53,154.12 -843.65,294.88 -76.43,33.19 -0.94,-2.06 -54.69,29.36l-371.6 167.77c-82.09,27.09 -50.71,34.91 -128.07,63.16 -159.29,58.16 -124.5,32.8 -174.91,191.67 -33.07,104.22 -13.95,227.93 -20.32,352.27 -7.38,143.95 -12.8,2.2 -40.47,130.96 -13.47,62.65 9.6,75.68 -14.22,138.82l-85.33 6.39z"/>
  <path id="root" class="fil1" d="M7347.13 7524.52c-15.35,-237.74 -19.71,-509.21 -49.57,-742.4 -15.48,-120.85 -46.42,-193.77 -59.28,-315.89l-56.78 -742.96c-1.33,-60 -4.38,-127.62 -0.2,-177.68 8.6,-102.99 18.43,-73.75 31.81,-129.62 34.32,-143.29 8.29,-342.74 37.26,-488.02 17.4,-87.2 37.69,-2.58 29.7,-141.14 -114.8,37.32 -282.04,203.14 -405.86,285.63l-144.42 87.55c-53.46,23.6 -92.43,46.7 -149.48,73.88 -332,158.19 -1055.12,295.91 -1393.46,197.61l-394.1 -66.14c-155.14,-37.9 -207.38,-24.72 -364.59,-87.14 -54.19,-21.51 -139.07,-29.94 -196.5,-44.04 -348.16,-85.45 -562.88,-191.65 -947.45,-227.4 -109.39,-10.16 -108.67,-41.61 -178.34,-54.1 -47.76,-8.56 -153.39,-1.48 -206.81,-1.01 -182.97,1.64 -783.15,15.26 -927.2,-14.08 -87.92,-17.9 -93.38,-42.31 -180.11,-51.94 -319.47,-35.47 -81.78,-0.33 -307.47,-58.89 -42.8,-11.11 -47.87,-3.81 -91.09,-18.03l-73.13 -37.34c-46.51,-19.95 10.12,-21.7 -75.17,-13.59 5.57,153.46 6.02,300.11 5.28,438.61 -0.99,186.19 -8.94,446.52 -49.98,600.69 -23.85,89.6 1,128.23 -11.6,211.61l-168.64 689.48c-28.35,117.01 -48.68,235.59 -82.72,343.91l-120.37 541.87c-54.66,343.76 -93.82,346.75 -114.89,745.18 -4,75.75 -21.89,95.2 -26.63,178.36 -34.07,597.22 -21.1,2106.32 351.84,2419.84 164.64,-67.64 190.44,-697.12 247.21,-913.2l24.58 -216.26c14.82,-77.09 12.55,-3.09 22.25,-94.33 11.24,-105.76 3.47,-148.99 33.07,-232.55 25.4,-71.71 5.35,-130.37 31.68,-214.03l56.44 -202.91c30.28,-70.86 42.19,-135.13 67.69,-200.05 67.3,-171.26 471.98,-823.08 572.01,-953.12l324.39 -473.41c36.69,-84.03 32.26,-94.16 79.67,-163.74l148.29 -241.78c193.47,-352.03 403.99,-672.48 750.29,-904.56 369.8,-247.81 867.6,-265.23 1304.67,-154.94 155.36,39.19 248.93,94 370.32,174.01 134.81,88.85 194.92,118.76 310.55,234.64 146.52,146.85 250.14,297.93 365.1,468.08 120.4,178.21 150.85,415.57 222.55,601.98 166.49,432.88 247.06,1532.54 248.44,1969.77 0.34,110.51 -23.6,111.67 -23.45,231.01 0.26,206.95 -51.7,344.58 -88.25,543.64l-363.71 1148.74c-24.28,65.64 -9.9,0.01 -29.18,89.57 -34.34,159.55 -86.25,240.14 -54.19,437.07 76.6,-2.97 195.19,-87.52 249.62,-130.47 95.24,-75.15 131.58,-123.5 202.63,-188.79 310.36,-285.19 810.65,-1163.78 946.82,-1617.08 5.73,-19.07 15.13,-42.68 21,-62.02l65.21 -236.77c21.63,-80.79 1.98,-8.43 23.16,-62.9 95.85,-246.49 131.67,-644.8 187.1,-930.94 66.72,-344.43 27.13,-749.29 3.99,-1107.47z"/>
  <path id="outline" class="fil2" d="M7347.13 7524.52c23.14,358.18 62.73,763.04 -3.99,1107.47 -55.43,286.14 -91.25,684.45 -187.1,930.94 -21.18,54.47 -1.53,-17.89 -23.16,62.9l-65.21 236.77c-5.87,19.34 -15.27,42.95 -21,62.02 -136.17,453.3 -636.46,1331.89 -946.82,1617.08 -71.05,65.29 -107.39,113.64 -202.63,188.79 -54.43,42.95 -173.02,127.5 -249.62,130.47 -32.06,-196.93 19.85,-277.52 54.19,-437.07 19.28,-89.56 4.9,-23.93 29.18,-89.57l363.71 -1148.74c36.55,-199.06 88.51,-336.69 88.25,-543.64 -0.15,-119.34 23.79,-120.5 23.45,-231.01 -1.38,-437.23 -81.95,-1536.89 -248.44,-1969.77 -71.7,-186.41 -102.15,-423.77 -222.55,-601.98 -114.96,-170.15 -218.58,-321.23 -365.1,-468.08 -115.63,-115.88 -175.74,-145.79 -310.55,-234.64 -121.39,-80.01 -214.96,-134.82 -370.32,-174.01 -437.07,-110.29 -934.87,-92.87 -1304.67,154.94 -346.3,232.08 -556.82,552.53 -750.29,904.56l-148.29 241.78c-47.41,69.58 -42.98,79.71 -79.67,163.74l-324.39 473.41c-100.03,130.04 -504.71,781.86 -572.01,953.12 -25.5,64.92 -37.41,129.19 -67.69,200.05l-56.44 202.91c-26.33,83.66 -6.28,142.32 -31.68,214.03 -29.6,83.56 -21.83,126.79 -33.07,232.55 -9.7,91.24 -7.43,17.24 -22.25,94.33l-24.58 216.26c-56.77,216.08 -82.57,845.56 -247.21,913.2 -372.94,-313.52 -385.91,-1822.62 -351.84,-2419.84 4.74,-83.16 22.63,-102.61 26.63,-178.36 21.07,-398.43 60.23,-401.42 114.89,-745.18l120.37 -541.87c34.04,-108.32 54.37,-226.9 82.72,-343.91l168.64 -689.48c12.6,-83.38 -12.25,-122.01 11.6,-211.61 41.04,-154.17 48.99,-414.5 49.98,-600.69 0.74,-138.5 0.29,-285.15 -5.28,-438.61 85.29,-8.11 28.66,-6.36 75.17,13.59l73.13 37.34c43.22,14.22 48.29,6.92 91.09,18.03 225.69,58.56 -12,23.42 307.47,58.89 86.73,9.63 92.19,34.04 180.11,51.94 144.05,29.34 744.23,15.72 927.2,14.08 53.42,-0.47 159.05,-7.55 206.81,1.01 69.67,12.49 68.95,43.94 178.34,54.1 384.57,35.75 599.29,141.95 947.45,227.4 57.43,14.1 142.31,22.53 196.5,44.04 157.21,62.42 209.45,49.24 364.59,87.14l394.1 66.14c338.34,98.3 1061.46,-39.42 1393.46,-197.61 57.05,-27.18 96.02,-50.28 149.48,-73.88l144.42 -87.55c123.82,-82.49 291.06,-248.31 405.86,-285.63 7.99,138.56 -12.3,53.94 -29.7,141.14 -28.97,145.28 -2.94,344.73 -37.26,488.02 -13.38,55.87 -23.21,26.63 -31.81,129.62 -4.18,50.06 -1.13,117.68 0.2,177.68l56.78 742.96c12.86,122.12 43.8,195.04 59.28,315.89 29.86,233.19 34.22,504.66 49.57,742.4zm-2201.35 -5591.44l85.33 -6.39c23.82,-63.14 0.75,-76.17 14.22,-138.82 27.67,-128.76 33.09,12.99 40.47,-130.96 6.37,-124.34 -12.75,-248.05 20.32,-352.27 50.41,-158.87 15.62,-133.51 174.91,-191.67 77.36,-28.25 45.98,-36.07 128.07,-63.16l371.6 -167.77c53.75,-31.42 -21.74,3.83 54.69,-29.36 324.12,-140.76 566.73,-446.34 843.65,-294.88l1022.99 537.24c128.51,73.37 240.31,100.87 333.78,230.13 87.95,121.63 115.11,545.53 85.97,704.13 -20.56,111.96 -26.23,175.42 -31.76,305.72 -5.32,125.44 -14.62,66.5 -34.88,152.87 -13.98,59.65 -13.11,90.25 -28.98,153.41 -60.71,241.49 -147.23,500.25 -261.63,726.73 -23.19,45.91 -10.6,13.57 -38.22,62.97l-270.97 464.63c-282,447.21 -584.6,887.51 -1091.11,1104.68 -73.98,31.71 -61.8,38.97 -125.75,59.11 -102.86,32.4 -179.72,69.97 -287.33,81.94 -157.57,17.52 -121.8,53.65 -502.64,71.01l-526.26 -21.81c-61.94,-8.75 -104.58,-31.34 -158.08,-40.5 -70.48,-12.06 -118.8,-3.18 -183.33,-10.51 -89.6,-10.2 -86.92,-32.62 -142.59,-48.06 -76.3,-21.16 -97.42,0.61 -168.82,-24.47 -73.27,-25.73 -30.84,-38.68 -146.81,-49.48 -116.01,-10.81 -58.16,15.09 -155.59,-31.61 -106.16,-50.88 -44.14,-19.64 -164.24,-34.98 -102.06,-13.05 -65.29,-32.39 -126.54,-56.24 -62.66,-24.4 -106.12,-4.01 -172.96,-22.62 -120.62,-33.6 10.9,-40.36 -134.4,-53.79 -72.81,-6.73 -112.55,14.41 -181.07,-14.59 -90.65,-38.37 32.38,-44.37 -139.26,-52.86l-914.76 -18.78c-152.47,-3.62 -188.78,-36.03 -339.73,-39.25 -264.88,-5.64 -278.91,-8.47 -515.19,-68.38 -118.78,-30.12 -302.05,-120.51 -393.34,-191.9 -40.44,-31.6 -53.81,-58.15 -99.96,-95.71 -48.66,-39.6 -60.13,-40.29 -110.46,-86.59 -212.97,-195.88 -335.33,-446.4 -456.4,-708.84 -77.49,-167.95 -201.74,-785.15 -208.58,-995.83l80.05 -999.5c245.56,-1094.81 657.2,-897.92 1392.37,-325.54 59.9,46.63 197.75,86.44 226.77,160.73 38.1,97.55 -197.08,989.15 90.74,1051.42 96.76,-173.75 46.78,-111 60.76,-331.17 5.73,-90.21 26.97,-77.48 29.71,-170.39 7.89,-266.34 -58.66,-478.2 152.45,-658.3 64.09,-54.68 51.14,-48.76 99.06,-106.14 106.29,-127.3 738.85,-719.33 910.98,-756.95 198.05,-43.27 370.05,15.87 541.76,95.72 51.63,24.01 84.99,32.23 149.85,65.25 64.97,33.07 95.77,32.56 163.88,54.23 100.75,32.06 40.9,37.7 143.99,65.82l253.66 71.06c176.17,45.11 493.76,208.71 587.68,390.48 84.41,163.37 -35.96,525.26 51.93,780.79zm363.73 10124.75l332.61 0 235.68 -178.48c163.03,-117.19 298.37,-307.07 415.7,-445.35 30.23,-35.64 53.06,-66.15 89.95,-114.89l87.72 -138.44c24.11,-40.9 11.87,-16.07 42.89,-57.72l93.97 -149.38c92.08,-144.26 217.82,-360.29 270.14,-521.97l22.31 -78.71c1.97,-4.47 5,-9.55 7.17,-13.84 2.12,-4.21 5.85,-8.81 8.09,-12.91l205.64 -545.9c30.09,-96.31 49.83,-94.2 67.99,-199.68 27.93,-162.2 105.04,-351.26 111.44,-529.13 4.05,-112.52 20.2,-88.71 31.19,-172.51 10.75,-82.07 -8.39,-127.03 9.68,-209.06 34.86,-158.2 13,-234.74 28.68,-397.53 22.84,-237.24 36.65,-50.38 16.08,-407.68l-94.54 -1314.46c-12.8,-124.61 -61.43,-217.13 -71.96,-401.41 -9.68,-169.37 -66.74,-479.98 -9.06,-627.5 49.78,-127.33 24.29,-394.97 75.35,-551.91 30.96,-95.16 19.67,-69.45 31.91,-173.5l77.07 -345.12c29.61,-177.23 70.66,-137.49 137.32,-285.84 41.78,-92.99 126.37,-158.94 173.58,-255.18 112.72,-229.82 293.65,-440.49 370.23,-689.08l59.15 -141.82c32.2,-83.64 -7.37,-80.16 44.74,-177.31 30.07,-56.07 39.26,-75.17 54.94,-149.61 21.15,-100.49 40.37,-108.32 50.42,-167.12 13.27,-77.6 -8.33,-117.51 15.8,-188.49 28.87,-84.89 34.11,-35.34 33.64,-184.96 -0.22,-66.01 -4.52,-122.72 15.21,-181.58 39.88,-119.01 22.44,-271.17 13.24,-414.5 -22.46,-349.82 -167,-514.86 -473.91,-695.29l-429.24 -222.08c-143.39,-76.19 -291.64,-125.03 -432.92,-215.75l-150.64 -89.34c-406.76,-215.85 -366.53,-224.18 -771.05,35.29l-396.54 226.57c-200.41,90.64 -406.94,230.83 -637.04,234.49 -169.89,2.71 -213.28,-120.75 -439.77,-247.21 -86.49,-48.3 -202.71,-109.41 -312.05,-137.91l-511.36 -160c-334.24,-139.74 -565.17,-320.77 -925.86,-131.78 -63.23,33.14 -7.53,0.87 -56.89,43.77 -79.18,68.84 -61.07,24.08 -148.47,79.34 -42.18,26.67 -68.79,69.46 -103.89,99.67l-233.22 201.5c-65.46,73.04 -155.99,118.82 -221.73,190.73 -120.05,131.3 -84.3,106.51 -238.88,193.71 -180.71,101.93 -230.19,37.83 -386.92,-79.56 -192.16,-143.9 -190.17,-187.2 -453.48,-331.02 -122.95,-67.16 -420.69,-135.52 -550.7,-103.12l-211.06 101.01c-16.39,14.84 -46.71,42.75 -63.8,59.38 -277.95,270.5 -252.69,543.31 -320.57,736.99 -30.87,88.11 -6.41,126.59 -26.27,198.9 -21.51,78.38 -42.36,-4.75 -40.91,158.42 0.66,74.1 10.5,151.92 7.75,226.36 -6.62,178.83 -49.01,118.24 -33.85,368.5 12.76,210.72 12.28,701.15 70.17,884.54 34.27,108.57 31.53,-22.35 58.16,153.19 19.2,126.66 83.46,238.11 134.88,336.45 23.48,44.89 43.04,91.86 73.91,146.7 41.41,73.58 24.6,67.47 86.8,134.36l486.45 545.9c22.91,29.53 43.61,51.68 56.55,70.65 129.92,190.47 57.93,765.78 42.82,1010.28l-186.77 877.82c-48.41,116.47 -198.93,970.96 -223.94,1047.99 -70.65,217.6 -91.72,459.94 -113.02,718.32 -13.84,167.87 -41.89,39.58 -32.63,387.99 3.6,135.34 -17.26,233.71 -9.1,401.08 23.74,486.81 66.57,983.07 153.4,1462.38 26.21,144.7 149.49,344.15 223.46,466.88 52.59,87.25 187.39,155.53 317.18,118.8 189.92,-53.77 252.34,-390.34 282.66,-570.35 13.7,-81.3 16.93,-98.67 19.47,-186 3.86,-133.4 24.54,-87.77 37.31,-174.44l39.15 -392.13c10.62,-73.72 18.1,-76.93 23.69,-174.68 8.45,-147.87 29.8,-83.25 46,-174.19 15.67,-88.05 -13.8,-100.4 19.33,-183.18l49.57 -173.18c13.21,-33.4 48.11,-68.15 66.11,-131.9l208.31 -423.83c119.55,-169.38 205.24,-356.45 340.46,-518.55l219.69 -329.95c13.49,-20.21 13.15,-18.15 28.18,-34.65 84.62,-92.85 38.88,-17.47 84.89,-141.93 21.91,-59.28 35.67,-54.53 75.93,-124.97 37.62,-65.8 39.39,-72.06 74.59,-148.26 66.88,-144.78 172.16,-257.46 243.37,-391.87 51.74,-97.67 287.52,-386.93 380.21,-457l23.71 -16.42c3.51,-2.48 8.67,-5.71 12.22,-8.21l554.34 -254.36c130.85,-16.89 562.08,-8.96 655.72,24.5 332.16,118.64 578.25,303.27 782.07,561.35l171.96 293.29c83.07,139.28 197.65,520.72 229.64,698.25 11.89,65.94 13.64,134.02 30.8,195.28 63.67,227.42 64.97,366.45 101.58,586.71 80.63,485.22 52.51,938.05 -11.93,1402.32l-238.46 820.07c-49.47,172.99 -87.51,334.22 -158.42,492.19 -1.96,4.38 -4.91,9.55 -7.03,13.77 -47,93.77 -122.75,363.29 -124.46,478.45 -0.64,43.56 5.42,171.98 15.22,212 23.12,94.39 51.46,60.83 95.1,149.54z"/>
 </g>
 <g id="pulpotomy">
  <metadata id="CorelCorpID_1Corel-Layer"/>
  <path id="crown_1508" class="fil0" d="M5145.78 1933.08c-87.89,-255.53 32.48,-617.42 -51.93,-780.79 -93.92,-181.77 -411.51,-345.37 -587.68,-390.48l-253.66 -71.06c-103.09,-28.12 -43.24,-33.76 -143.99,-65.82 -68.11,-21.67 -98.91,-21.16 -163.88,-54.23 -64.86,-33.02 -98.22,-41.24 -149.85,-65.25 -171.71,-79.85 -343.71,-138.99 -541.76,-95.72 -172.13,37.62 -804.69,629.65 -910.98,756.95 -47.92,57.38 -34.97,51.46 -99.06,106.14 -211.11,180.1 -144.56,391.96 -152.45,658.3 -2.74,92.91 -23.98,80.18 -29.71,170.39 -13.98,220.17 36,157.42 -60.76,331.17 -287.82,-62.27 -52.64,-953.87 -90.74,-1051.42 -29.02,-74.29 -166.87,-114.1 -226.77,-160.73 -735.17,-572.38 -1146.81,-769.27 -1392.37,325.54l-80.05 999.5c6.84,210.68 131.09,827.88 208.58,995.83 121.07,262.44 243.43,512.96 456.4,708.84 50.33,46.3 61.8,46.99 110.46,86.59 46.15,37.56 59.52,64.11 99.96,95.71 91.29,71.39 274.56,161.78 393.34,191.9 236.28,59.91 250.31,62.74 515.19,68.38 150.95,3.22 187.26,35.63 339.73,39.25l914.76 18.78c171.64,8.49 48.61,14.49 139.26,52.86 68.52,29 108.26,7.86 181.07,14.59 145.3,13.43 13.78,20.19 134.4,53.79 66.84,18.61 110.3,-1.78 172.96,22.62 61.25,23.85 24.48,43.19 126.54,56.24 120.1,15.34 58.08,-15.9 164.24,34.98 97.43,46.7 39.58,20.8 155.59,31.61 115.97,10.8 73.54,23.75 146.81,49.48 71.4,25.08 92.52,3.31 168.82,24.47 55.67,15.44 52.99,37.86 142.59,48.06 64.53,7.33 112.85,-1.55 183.33,10.51 53.5,9.16 96.14,31.75 158.08,40.5l526.26 21.81c380.84,-17.36 345.07,-53.49 502.64,-71.01 107.61,-11.97 184.47,-49.54 287.33,-81.94 63.95,-20.14 51.77,-27.4 125.75,-59.11 506.51,-217.17 809.11,-657.47 1091.11,-1104.68l270.97 -464.63c27.62,-49.4 15.03,-17.06 38.22,-62.97 114.4,-226.48 200.92,-485.24 261.63,-726.73 15.87,-63.16 15,-93.76 28.98,-153.41 20.26,-86.37 29.56,-27.43 34.88,-152.87 5.53,-130.3 11.2,-193.76 31.76,-305.72 29.14,-158.6 1.98,-582.5 -85.97,-704.13 -93.47,-129.26 -205.27,-156.76 -333.78,-230.13l-1022.99 -537.24c-276.92,-151.46 -519.53,154.12 -843.65,294.88 -76.43,33.19 -0.94,-2.06 -54.69,29.36l-371.6 167.77c-82.09,27.09 -50.71,34.91 -128.07,63.16 -159.29,58.16 -124.5,32.8 -174.91,191.67 -33.07,104.22 -13.95,227.93 -20.32,352.27 -7.38,143.95 -12.8,2.2 -40.47,130.96 -13.47,62.65 9.6,75.68 -14.22,138.82l-85.33 6.39z"/>
  <rect class="fil3" x="1676.98" y="2347.97" width="5062.27" height="3226.65"/>
  <path id="root_1509" class="fil1" d="M7347.13 7524.52c-15.35,-237.74 -19.71,-509.21 -49.57,-742.4 -15.48,-120.85 -46.42,-193.77 -59.28,-315.89l-56.78 -742.96c-1.33,-60 -4.38,-127.62 -0.2,-177.68 8.6,-102.99 18.43,-73.75 31.81,-129.62 34.32,-143.29 8.29,-342.74 37.26,-488.02 17.4,-87.2 37.69,-2.58 29.7,-141.14 -114.8,37.32 -282.04,203.14 -405.86,285.63l-144.42 87.55c-53.46,23.6 -92.43,46.7 -149.48,73.88 -332,158.19 -1055.12,295.91 -1393.46,197.61l-394.1 -66.14c-155.14,-37.9 -207.38,-24.72 -364.59,-87.14 -54.19,-21.51 -139.07,-29.94 -196.5,-44.04 -348.16,-85.45 -562.88,-191.65 -947.45,-227.4 -109.39,-10.16 -108.67,-41.61 -178.34,-54.1 -47.76,-8.56 -153.39,-1.48 -206.81,-1.01 -182.97,1.64 -783.15,15.26 -927.2,-14.08 -87.92,-17.9 -93.38,-42.31 -180.11,-51.94 -319.47,-35.47 -81.78,-0.33 -307.47,-58.89 -42.8,-11.11 -47.87,-3.81 -91.09,-18.03l-73.13 -37.34c-46.51,-19.95 10.12,-21.7 -75.17,-13.59 5.57,153.46 6.02,300.11 5.28,438.61 -0.99,186.19 -8.94,446.52 -49.98,600.69 -23.85,89.6 1,128.23 -11.6,211.61l-168.64 689.48c-28.35,117.01 -48.68,235.59 -82.72,343.91l-120.37 541.87c-54.66,343.76 -93.82,346.75 -114.89,745.18 -4,75.75 -21.89,95.2 -26.63,178.36 -34.07,597.22 -21.1,2106.32 351.84,2419.84 164.64,-67.64 190.44,-697.12 247.21,-913.2l24.58 -216.26c14.82,-77.09 12.55,-3.09 22.25,-94.33 11.24,-105.76 3.47,-148.99 33.07,-232.55 25.4,-71.71 5.35,-130.37 31.68,-214.03l56.44 -202.91c30.28,-70.86 42.19,-135.13 67.69,-200.05 67.3,-171.26 471.98,-823.08 572.01,-953.12l324.39 -473.41c36.69,-84.03 32.26,-94.16 79.67,-163.74l148.29 -241.78c193.47,-352.03 403.99,-672.48 750.29,-904.56 369.8,-247.81 867.6,-265.23 1304.67,-154.94 155.36,39.19 248.93,94 370.32,174.01 134.81,88.85 194.92,118.76 310.55,234.64 146.52,146.85 250.14,297.93 365.1,468.08 120.4,178.21 150.85,415.57 222.55,601.98 166.49,432.88 247.06,1532.54 248.44,1969.77 0.34,110.51 -23.6,111.67 -23.45,231.01 0.26,206.95 -51.7,344.58 -88.25,543.64l-363.71 1148.74c-24.28,65.64 -9.9,0.01 -29.18,89.57 -34.34,159.55 -86.25,240.14 -54.19,437.07 76.6,-2.97 195.19,-87.52 249.62,-130.47 95.24,-75.15 131.58,-123.5 202.63,-188.79 310.36,-285.19 810.65,-1163.78 946.82,-1617.08 5.73,-19.07 15.13,-42.68 21,-62.02l65.21 -236.77c21.63,-80.79 1.98,-8.43 23.16,-62.9 95.85,-246.49 131.67,-644.8 187.1,-930.94 66.72,-344.43 27.13,-749.29 3.99,-1107.47z"/>
  <g id="_2387288476288">
   <path class="fil4" d="M1093.18 8751.26c5.71,-18.29 11.76,-36.37 18.59,-53.77 70.09,-178.37 205.95,-392.83 306.46,-557.99 96.36,-158.34 204.64,-341.62 317.1,-489.66l294.64 -430c28.82,-67.41 50.17,-118.45 96.03,-187.44l138.39 -225.64c229.22,-415.7 480.32,-775.64 882.11,-1044.89 168.4,-112.86 354.19,-189.91 548.08,-236.42 -145.64,-41.76 -292.58,-77.93 -449.98,-92.56 -87.21,-8.1 -153.61,-25.03 -227.54,-57.01 -37.72,0.2 -77.86,3.4 -114.18,3.72 -160.76,1.44 -321.32,4.64 -482.14,4.59 -160.88,-0.04 -378.35,4.5 -534.28,-27.26 -57.39,-11.68 -102.06,-27.2 -153.9,-47.23 -18.45,-1.93 -36.97,-3.6 -55.5,-5.29 -3.16,193.74 -14.51,409.66 -59.4,587.71 1.63,63.42 4.31,112.93 -5.9,180.52l-2.88 19.03 -173.21 708.18c-28.79,117.69 -49.43,235.2 -84.31,351.49l-114 513.19c-19.93,121.77 -46.56,237.35 -71.37,357.82 -22.48,109.2 -30.77,218.14 -36.65,329.38 -3.44,65.16 -23.59,125.23 -26.72,180.13 -4.14,72.45 -7.28,145.68 -9.44,219.4zm4369.2 -2859.73c71.44,50.79 138.16,104.42 210.86,177.28 163.03,163.39 288.31,340.64 416.77,530.78 165.1,244.37 170.42,435.86 267.37,687.94 193.65,503.47 275.23,1568.27 276.97,2122.06 0.22,69.68 -6.42,131.15 -20.3,199.14 -2.87,14.08 -3.17,17.35 -3.15,32.67 0.15,120.47 -14.52,223.63 -34.33,325.66 25.43,-61.95 45.93,-117.98 60.22,-165.57 6.24,-20.75 13.82,-40.53 20.58,-60.89l62.9 -228.41c3.92,-14.23 7.74,-28.52 11.86,-42.69 8.15,-28.08 18.76,-54.34 31.47,-78.73 85.38,-233.54 111.22,-591.57 159.38,-840.17 58.88,-303.95 17.07,-688.91 -2.93,-998.5 -15.32,-237.11 -16.85,-480.22 -46.99,-715.62 -13.98,-109.11 -48.33,-210.8 -60.4,-325.43l-0.64 -6.1 -58.13 -760.62 -0.25 -11.58c-0.79,-35.48 -1.97,-70.93 -2.32,-106.37 -319.53,148.64 -853.03,268.64 -1288.94,265.15z"/>
  </g>
  <path id="outline_1510" class="fil2" d="M7347.13 7524.52c23.14,358.18 62.73,763.04 -3.99,1107.47 -55.43,286.14 -91.25,684.45 -187.1,930.94 -21.18,54.47 -1.53,-17.89 -23.16,62.9l-65.21 236.77c-5.87,19.34 -15.27,42.95 -21,62.02 -136.17,453.3 -636.46,1331.89 -946.82,1617.08 -71.05,65.29 -107.39,113.64 -202.63,188.79 -54.43,42.95 -173.02,127.5 -249.62,130.47 -32.06,-196.93 19.85,-277.52 54.19,-437.07 19.28,-89.56 4.9,-23.93 29.18,-89.57l363.71 -1148.74c36.55,-199.06 88.51,-336.69 88.25,-543.64 -0.15,-119.34 23.79,-120.5 23.45,-231.01 -1.38,-437.23 -81.95,-1536.89 -248.44,-1969.77 -71.7,-186.41 -102.15,-423.77 -222.55,-601.98 -114.96,-170.15 -218.58,-321.23 -365.1,-468.08 -115.63,-115.88 -175.74,-145.79 -310.55,-234.64 -121.39,-80.01 -214.96,-134.82 -370.32,-174.01 -437.07,-110.29 -934.87,-92.87 -1304.67,154.94 -346.3,232.08 -556.82,552.53 -750.29,904.56l-148.29 241.78c-47.41,69.58 -42.98,79.71 -79.67,163.74l-324.39 473.41c-100.03,130.04 -504.71,781.86 -572.01,953.12 -25.5,64.92 -37.41,129.19 -67.69,200.05l-56.44 202.91c-26.33,83.66 -6.28,142.32 -31.68,214.03 -29.6,83.56 -21.83,126.79 -33.07,232.55 -9.7,91.24 -7.43,17.24 -22.25,94.33l-24.58 216.26c-56.77,216.08 -82.57,845.56 -247.21,913.2 -372.94,-313.52 -385.91,-1822.62 -351.84,-2419.84 4.74,-83.16 22.63,-102.61 26.63,-178.36 21.07,-398.43 60.23,-401.42 114.89,-745.18l120.37 -541.87c34.04,-108.32 54.37,-226.9 82.72,-343.91l168.64 -689.48c12.6,-83.38 -12.25,-122.01 11.6,-211.61 41.04,-154.17 48.99,-414.5 49.98,-600.69 0.74,-138.5 0.29,-285.15 -5.28,-438.61 85.29,-8.11 28.66,-6.36 75.17,13.59l73.13 37.34c43.22,14.22 48.29,6.92 91.09,18.03 225.69,58.56 -12,23.42 307.47,58.89 86.73,9.63 92.19,34.04 180.11,51.94 144.05,29.34 744.23,15.72 927.2,14.08 53.42,-0.47 159.05,-7.55 206.81,1.01 69.67,12.49 68.95,43.94 178.34,54.1 384.57,35.75 599.29,141.95 947.45,227.4 57.43,14.1 142.31,22.53 196.5,44.04 157.21,62.42 209.45,49.24 364.59,87.14l394.1 66.14c338.34,98.3 1061.46,-39.42 1393.46,-197.61 57.05,-27.18 96.02,-50.28 149.48,-73.88l144.42 -87.55c123.82,-82.49 291.06,-248.31 405.86,-285.63 7.99,138.56 -12.3,53.94 -29.7,141.14 -28.97,145.28 -2.94,344.73 -37.26,488.02 -13.38,55.87 -23.21,26.63 -31.81,129.62 -4.18,50.06 -1.13,117.68 0.2,177.68l56.78 742.96c12.86,122.12 43.8,195.04 59.28,315.89 29.86,233.19 34.22,504.66 49.57,742.4zm-2201.35 -5591.44l85.33 -6.39c23.82,-63.14 0.75,-76.17 14.22,-138.82 27.67,-128.76 33.09,12.99 40.47,-130.96 6.37,-124.34 -12.75,-248.05 20.32,-352.27 50.41,-158.87 15.62,-133.51 174.91,-191.67 77.36,-28.25 45.98,-36.07 128.07,-63.16l371.6 -167.77c53.75,-31.42 -21.74,3.83 54.69,-29.36 324.12,-140.76 566.73,-446.34 843.65,-294.88l1022.99 537.24c128.51,73.37 240.31,100.87 333.78,230.13 87.95,121.63 115.11,545.53 85.97,704.13 -20.56,111.96 -26.23,175.42 -31.76,305.72 -5.32,125.44 -14.62,66.5 -34.88,152.87 -13.98,59.65 -13.11,90.25 -28.98,153.41 -60.71,241.49 -147.23,500.25 -261.63,726.73 -23.19,45.91 -10.6,13.57 -38.22,62.97l-270.97 464.63c-282,447.21 -584.6,887.51 -1091.11,1104.68 -73.98,31.71 -61.8,38.97 -125.75,59.11 -102.86,32.4 -179.72,69.97 -287.33,81.94 -157.57,17.52 -121.8,53.65 -502.64,71.01l-526.26 -21.81c-61.94,-8.75 -104.58,-31.34 -158.08,-40.5 -70.48,-12.06 -118.8,-3.18 -183.33,-10.51 -89.6,-10.2 -86.92,-32.62 -142.59,-48.06 -76.3,-21.16 -97.42,0.61 -168.82,-24.47 -73.27,-25.73 -30.84,-38.68 -146.81,-49.48 -116.01,-10.81 -58.16,15.09 -155.59,-31.61 -106.16,-50.88 -44.14,-19.64 -164.24,-34.98 -102.06,-13.05 -65.29,-32.39 -126.54,-56.24 -62.66,-24.4 -106.12,-4.01 -172.96,-22.62 -120.62,-33.6 10.9,-40.36 -134.4,-53.79 -72.81,-6.73 -112.55,14.41 -181.07,-14.59 -90.65,-38.37 32.38,-44.37 -139.26,-52.86l-914.76 -18.78c-152.47,-3.62 -188.78,-36.03 -339.73,-39.25 -264.88,-5.64 -278.91,-8.47 -515.19,-68.38 -118.78,-30.12 -302.05,-120.51 -393.34,-191.9 -40.44,-31.6 -53.81,-58.15 -99.96,-95.71 -48.66,-39.6 -60.13,-40.29 -110.46,-86.59 -212.97,-195.88 -335.33,-446.4 -456.4,-708.84 -77.49,-167.95 -201.74,-785.15 -208.58,-995.83l80.05 -999.5c245.56,-1094.81 657.2,-897.92 1392.37,-325.54 59.9,46.63 197.75,86.44 226.77,160.73 38.1,97.55 -197.08,989.15 90.74,1051.42 96.76,-173.75 46.78,-111 60.76,-331.17 5.73,-90.21 26.97,-77.48 29.71,-170.39 7.89,-266.34 -58.66,-478.2 152.45,-658.3 64.09,-54.68 51.14,-48.76 99.06,-106.14 106.29,-127.3 738.85,-719.33 910.98,-756.95 198.05,-43.27 370.05,15.87 541.76,95.72 51.63,24.01 84.99,32.23 149.85,65.25 64.97,33.07 95.77,32.56 163.88,54.23 100.75,32.06 40.9,37.7 143.99,65.82l253.66 71.06c176.17,45.11 493.76,208.71 587.68,390.48 84.41,163.37 -35.96,525.26 51.93,780.79zm363.73 10124.75l332.61 0 235.68 -178.48c163.03,-117.19 298.37,-307.07 415.7,-445.35 30.23,-35.64 53.06,-66.15 89.95,-114.89l87.72 -138.44c24.11,-40.9 11.87,-16.07 42.89,-57.72l93.97 -149.38c92.08,-144.26 217.82,-360.29 270.14,-521.97l22.31 -78.71c1.97,-4.47 5,-9.55 7.17,-13.84 2.12,-4.21 5.85,-8.81 8.09,-12.91l205.64 -545.9c30.09,-96.31 49.83,-94.2 67.99,-199.68 27.93,-162.2 105.04,-351.26 111.44,-529.13 4.05,-112.52 20.2,-88.71 31.19,-172.51 10.75,-82.07 -8.39,-127.03 9.68,-209.06 34.86,-158.2 13,-234.74 28.68,-397.53 22.84,-237.24 36.65,-50.38 16.08,-407.68l-94.54 -1314.46c-12.8,-124.61 -61.43,-217.13 -71.96,-401.41 -9.68,-169.37 -66.74,-479.98 -9.06,-627.5 49.78,-127.33 24.29,-394.97 75.35,-551.91 30.96,-95.16 19.67,-69.45 31.91,-173.5l77.07 -345.12c29.61,-177.23 70.66,-137.49 137.32,-285.84 41.78,-92.99 126.37,-158.94 173.58,-255.18 112.72,-229.82 293.65,-440.49 370.23,-689.08l59.15 -141.82c32.2,-83.64 -7.37,-80.16 44.74,-177.31 30.07,-56.07 39.26,-75.17 54.94,-149.61 21.15,-100.49 40.37,-108.32 50.42,-167.12 13.27,-77.6 -8.33,-117.51 15.8,-188.49 28.87,-84.89 34.11,-35.34 33.64,-184.96 -0.22,-66.01 -4.52,-122.72 15.21,-181.58 39.88,-119.01 22.44,-271.17 13.24,-414.5 -22.46,-349.82 -167,-514.86 -473.91,-695.29l-429.24 -222.08c-143.39,-76.19 -291.64,-125.03 -432.92,-215.75l-150.64 -89.34c-406.76,-215.85 -366.53,-224.18 -771.05,35.29l-396.54 226.57c-200.41,90.64 -406.94,230.83 -637.04,234.49 -169.89,2.71 -213.28,-120.75 -439.77,-247.21 -86.49,-48.3 -202.71,-109.41 -312.05,-137.91l-511.36 -160c-334.24,-139.74 -565.17,-320.77 -925.86,-131.78 -63.23,33.14 -7.53,0.87 -56.89,43.77 -79.18,68.84 -61.07,24.08 -148.47,79.34 -42.18,26.67 -68.79,69.46 -103.89,99.67l-233.22 201.5c-65.46,73.04 -155.99,118.82 -221.73,190.73 -120.05,131.3 -84.3,106.51 -238.88,193.71 -180.71,101.93 -230.19,37.83 -386.92,-79.56 -192.16,-143.9 -190.17,-187.2 -453.48,-331.02 -122.95,-67.16 -420.69,-135.52 -550.7,-103.12l-211.06 101.01c-16.39,14.84 -46.71,42.75 -63.8,59.38 -277.95,270.5 -252.69,543.31 -320.57,736.99 -30.87,88.11 -6.41,126.59 -26.27,198.9 -21.51,78.38 -42.36,-4.75 -40.91,158.42 0.66,74.1 10.5,151.92 7.75,226.36 -6.62,178.83 -49.01,118.24 -33.85,368.5 12.76,210.72 12.28,701.15 70.17,884.54 34.27,108.57 31.53,-22.35 58.16,153.19 19.2,126.66 83.46,238.11 134.88,336.45 23.48,44.89 43.04,91.86 73.91,146.7 41.41,73.58 24.6,67.47 86.8,134.36l486.45 545.9c22.91,29.53 43.61,51.68 56.55,70.65 129.92,190.47 57.93,765.78 42.82,1010.28l-186.77 877.82c-48.41,116.47 -198.93,970.96 -223.94,1047.99 -70.65,217.6 -91.72,459.94 -113.02,718.32 -13.84,167.87 -41.89,39.58 -32.63,387.99 3.6,135.34 -17.26,233.71 -9.1,401.08 23.74,486.81 66.57,983.07 153.4,1462.38 26.21,144.7 149.49,344.15 223.46,466.88 52.59,87.25 187.39,155.53 317.18,118.8 189.92,-53.77 252.34,-390.34 282.66,-570.35 13.7,-81.3 16.93,-98.67 19.47,-186 3.86,-133.4 24.54,-87.77 37.31,-174.44l39.15 -392.13c10.62,-73.72 18.1,-76.93 23.69,-174.68 8.45,-147.87 29.8,-83.25 46,-174.19 15.67,-88.05 -13.8,-100.4 19.33,-183.18l49.57 -173.18c13.21,-33.4 48.11,-68.15 66.11,-131.9l208.31 -423.83c119.55,-169.38 205.24,-356.45 340.46,-518.55l219.69 -329.95c13.49,-20.21 13.15,-18.15 28.18,-34.65 84.62,-92.85 38.88,-17.47 84.89,-141.93 21.91,-59.28 35.67,-54.53 75.93,-124.97 37.62,-65.8 39.39,-72.06 74.59,-148.26 66.88,-144.78 172.16,-257.46 243.37,-391.87 51.74,-97.67 287.52,-386.93 380.21,-457l23.71 -16.42c3.51,-2.48 8.67,-5.71 12.22,-8.21l554.34 -254.36c130.85,-16.89 562.08,-8.96 655.72,24.5 332.16,118.64 578.25,303.27 782.07,561.35l171.96 293.29c83.07,139.28 197.65,520.72 229.64,698.25 11.89,65.94 13.64,134.02 30.8,195.28 63.67,227.42 64.97,366.45 101.58,586.71 80.63,485.22 52.51,938.05 -11.93,1402.32l-238.46 820.07c-49.47,172.99 -87.51,334.22 -158.42,492.19 -1.96,4.38 -4.91,9.55 -7.03,13.77 -47,93.77 -122.75,363.29 -124.46,478.45 -0.64,43.56 5.42,171.98 15.22,212 23.12,94.39 51.46,60.83 95.1,149.54z"/>
 </g>
</svg>