<?xml version="1.0" encoding="UTF-8"?>
<!DOCTYPE svg PUBLIC "-//W3C//DTD SVG 1.1//EN" "http://www.w3.org/Graphics/SVG/1.1/DTD/svg11.dtd">
<!-- Creator: CorelDRAW (Versión de evaluación) -->
<svg xmlns="http://www.w3.org/2000/svg" xml:space="preserve" width="591px" height="2062px" version="1.1" style="shape-rendering:geometricPrecision; text-rendering:geometricPrecision; image-rendering:optimizeQuality; fill-rule:evenodd; clip-rule:evenodd"
viewBox="0 0 591 2060.78"
 xmlns:xlink="http://www.w3.org/1999/xlink"
 xmlns:xodm="http://www.corel.com/coreldraw/odm/2003">
 <defs>
  <style type="text/css">
   <![CDATA[
    .fil4 {fill:#4B4B4D}
    .fil1 {fill:#FFCC29}
    .fil3 {fill:#F48884}
    .fil2 {fill:#F4EDDA}
    .fil0 {fill:#F8F9FD}
   ]]>
  </style>
 </defs>
 <g id="pulpotomy">
  <metadata id="CorelCorpID_0Corel-Layer"/>
  <path id="crown" class="fil0" d="M331.44 1436.92c-44.93,-0.07 -24.14,-1.4 -46.53,6.49 -8.12,2.85 -5.6,0.98 -13.69,5.07 -43.57,22 -62.02,32.57 -95.73,67.85 -2.92,3.06 -6.07,6.08 -8.96,9.27 -13.83,15.23 -45.03,55.75 -54.47,74.41 -4.45,8.79 -3.51,5.76 -7.09,11.32l-14.82 27.87c-0.27,0.53 -0.64,1.16 -0.93,1.67l-13.37 23.77c-16.64,25.71 -10.35,22 -15.37,32.32 -4.92,10.09 -2.39,-1.57 -7.31,11.67l-9.89 27.06c-5.43,29.64 -6.29,7.93 -9.7,27.4 -5.14,29.34 -7.37,68.48 2.56,94.73 5.97,15.76 14.78,30.55 23.16,42.64 14.95,21.56 46.81,47.72 68.26,66.12l61.22 42.61c0.51,0.26 1.18,0.5 1.7,0.74 3.78,1.8 -0.2,-0.53 3.52,1.39 5.46,2.81 0.86,-0.04 4.42,2.81 16.71,13.35 24.06,20.01 45.5,15.29 10.86,-2.4 5.07,1.11 14.18,-4.38 21.87,-13.18 57.53,-50.94 78.76,-67.12 53.95,-41.12 144.73,-74.37 183.2,-106.19 25.6,-21.17 20.66,-21.25 32.52,-40.88 15.33,-25.37 7.71,-67.9 5.25,-94.74l-7.2 -40.83c-2.61,-8.12 -3.04,-4.83 -4.68,-11.55 -1.54,-6.3 -0.03,-7.32 -2.26,-14.27 -2.15,-6.71 -2.36,-2.97 -4.88,-11.91 -4.8,-17.03 -8.26,-36.64 -14.87,-50.64 -4.39,-9.29 -16.46,-52.96 -28.88,-69.82l-29.94 -36.91c-8.26,-8.74 -48.28,-32.01 -66.82,-35.37 -17.01,-3.07 -4.07,-0.67 -12.01,-5.04 -6.12,-3.36 -5.71,-2.7 -14.65,-2.92l-40.2 0.07z"/>
  <g id="_3232302362080">
   <path class="fil1" d="M138.51 1631.74l-13.67 25.72c-0.46,0.89 -0.95,1.75 -1.45,2.63l-13.96 24.83 -0.67 1.03c-2.26,3.49 -5.78,8.65 -7.58,12.62 -1.38,5.65 -2.82,10.14 -5.45,15.56 -1.95,4 -4.23,7.7 -6.85,10.99l-7.67 21.01c-1.98,10.11 -4.53,19.64 -9.65,27.58 -3.23,20.43 -5.6,52.14 1.25,70.24 4.55,12.01 11.41,23.64 18.71,34.18 12.99,18.73 41.76,41.8 60.03,57.38l55.62 38.72c1.64,0.66 3.21,1.43 4.79,2.24 0.29,0.15 0.58,0.3 0.87,0.44l10.04 6.57c0,0.01 0.01,0.01 0.02,0.02 2.55,2.04 7.01,5.96 10.3,8.08 0.81,-0.12 1.66,-0.31 2.3,-0.45 1.43,-0.32 2.84,-0.6 4.25,-0.85 10.48,-6.79 22.57,-18.4 31.49,-26.58 13.53,-12.39 27.3,-25.86 41.86,-36.96 31.26,-23.82 68.41,-42.54 103.39,-60.34 23.77,-12.11 58.26,-28.07 78.59,-44.88 18.48,-15.29 11.75,-10.74 23.96,-30.95 7.37,-12.2 1.55,-53.26 -0.07,-69.14l-6.17 -34.97c-2.25,-4.27 -3.72,-8.49 -4.93,-13.43 -1,-4.07 -1.46,-7.63 -1.76,-11.54 -2.17,-4.22 -3.66,-8.46 -5.02,-13.3 -3.73,-13.21 -6.92,-32.54 -12.59,-44.53 -5.05,-10.68 -8.79,-24.22 -12.86,-35.52 -2.5,-6.91 -7.46,-21.01 -11.75,-27.26l-27.34 -33.7c-8.67,-6.87 -36.12,-21.9 -45.26,-23.79 -3.38,-0.62 -6.9,-1.18 -10.27,-1.97 -4.75,-1.1 -9.06,-2.95 -12.86,-5.36l-36.63 0.07c-7.22,0.01 -15.13,-0.32 -22.54,-0.18 -3.58,1.63 -7.16,3.06 -11.06,4.44 -2.57,0.9 -5.07,1.67 -7.65,2.39 -0.47,0.23 -0.93,0.47 -1.38,0.7 -37.8,19.09 -55.56,29.07 -85.05,59.93 -2.73,2.86 -5.63,5.61 -8.28,8.53 -9.28,10.24 -18.22,21.93 -26.48,33.01 -7.15,9.6 -16.66,22.13 -22.03,32.75 -2.63,5.2 -5.02,9.47 -8.54,14.04z"/>
  </g>
  <path id="root" class="fil2" d="M193.88 1460.64c13.37,-2.76 6.95,-4.43 16.68,-9.81 8.49,-4.7 7.27,-0.73 18.15,-7.76l39.53 -19.68c11.84,-3.31 -9.81,2.27 4.32,-0.66 3.95,-0.82 0.99,0.61 6.21,-1.28 14.45,-5.24 2.4,-6.58 24.51,-6.48 31.47,0.14 31.01,-15.52 60.23,-2.53 16.35,7.27 28.23,-3.44 43.05,6.91 12.88,9.01 4.74,0.6 15.04,4.36l60.08 33.19c0.04,-0.27 -1.28,-54.39 -1.89,-58.99 -1.61,-12.01 -2.01,0.12 -3.74,-13.14 -2.32,-17.88 6.15,-24.6 -1.81,-44.32 -4.7,-11.67 -0.56,-19.31 -0.58,-32.95 -0.03,-16.84 -6.09,-2.88 -5.24,-24.83 0.83,-21.46 1.5,-11.07 -3.07,-28.63 -2.77,-10.68 2.15,-21.42 -0.12,-30.11 -2.9,-11.04 -6.36,4.48 -4.22,-29.03 1.16,-18.27 -4.22,-8.5 -4.93,-24.79 -0.8,-18.16 3.17,-12.15 -2.46,-29.54 -4.09,-12.62 1,-18.35 -1.08,-29.29 -2.1,-11.06 -4.91,2.51 -4.25,-28.73 0.38,-17.66 -5.09,-6.04 -5.42,-24.93 -0.56,-31.29 0.93,-8.36 -4.01,-27.01 -3.53,-13.32 3.24,-3.24 -3.62,-27.09 -4.37,-15.16 3.05,-4.01 -4.88,-27.84 -3.84,-11.53 1.15,-13.94 -3.56,-26.75l-23 -118.52c-6.95,-29.21 -7.61,-56.06 -18.98,-90.94l-12.03 -51.25c-3.11,-8.43 -4.48,-16.03 -7.69,-25.08 -1.71,-4.82 -2.37,-6.26 -4.08,-12.33l-4.23 -10.24c-11.81,-17.79 1.62,-21.19 -35,-28.11 -4.92,5.78 -5.04,3.25 -7.98,7.48l-1.9 3.48c-0.3,0.59 -0.48,1.32 -0.76,1.93 -1.62,3.55 0.59,0.32 -2.35,5.66 -2.9,5.29 -0.95,1.38 -3.32,4.7 -0.35,0.48 -0.86,1.05 -1.21,1.52 -7.42,10.31 -10.05,13 -11.8,22.98 -6.03,34.52 -7.29,4.43 -10.74,34.93 -6,53.07 -8.23,22.2 -11.76,50.02 -2.23,17.62 -3.25,37.21 -5.04,55.17 -14.58,146.41 -24.19,301.67 -37.96,450.08l-9.35 83.23c-4.32,10.8 -5.53,3.07 -7.83,19.1 -3.25,22.66 -3.45,33.89 -9.07,54.99 -4.08,15.34 -6.96,35.46 -6.84,52.91z"/>
  <g id="_3232302406768">
   <path class="fil3" d="M282.7 1349.5c6.54,-0.81 13.43,-1.01 20.88,-0.97 0.53,0 1.2,0.01 1.74,-0.07 8.05,-1.89 14.43,-4.93 23.36,-6.38 18.88,-3.08 36.76,-0.15 54.16,6.48 9.09,-0.21 17.18,-0.08 24.93,1.05 -2.18,-9.98 -2.69,-20.12 -1.76,-30.68 0.07,-0.86 0.19,-1.8 0.31,-2.78 -3.71,-11.09 -4.79,-23.13 -4.29,-36.04 0.06,-1.64 0.14,-3.27 0.23,-4.91 -0.42,-1.47 -0.82,-2.95 -1.21,-4.45 -3.1,-11.91 -3.27,-20.8 -2.61,-30.87 -4.15,-12.47 -4.76,-26.19 -4.19,-40.68 -2.76,-8.21 -4.14,-16.83 -4.55,-26.19 -0.21,-4.88 -0.2,-9.49 0.03,-14.14 -3.83,-12.6 -4.54,-22.7 -3.84,-34.54 -3.36,-10.63 -4.13,-21.77 -4.14,-33.76 -3.6,-9.85 -5.11,-20.33 -5.31,-31.77 -0.03,-1.72 -0.05,-3.45 -0.07,-5.18 -0.62,-1.96 -1.2,-3.96 -1.73,-6 -2.33,-8.79 -3.52,-17.17 -3.25,-25.71 -2.5,-8.69 -3.98,-16.85 -4.07,-25.25 -3.63,-10.9 -4.89,-20.11 -4.9,-30.72l-23.6 -121.62c-3.13,-13.5 -5.17,-27.24 -7.43,-40.91 -0.11,1.17 -0.23,2.34 -0.34,3.51 -14.91,149.66 -24.02,299.86 -37.93,449.63l-0.06 0.64 -10.36 92.31z"/>
  </g>
  <path id="outline" class="fil4" d="M331.44 1436.92l40.2 -0.07c8.94,0.22 8.53,-0.44 14.65,2.92 7.94,4.37 -5,1.97 12.01,5.04 18.54,3.36 58.56,26.63 66.82,35.37l29.94 36.91c12.42,16.86 24.49,60.53 28.88,69.82 6.61,14 10.07,33.61 14.87,50.64 2.52,8.94 2.73,5.2 4.88,11.91 2.23,6.95 0.72,7.97 2.26,14.27 1.64,6.72 2.07,3.43 4.68,11.55l7.2 40.83c2.46,26.84 10.08,69.37 -5.25,94.74 -11.86,19.63 -6.92,19.71 -32.52,40.88 -38.47,31.82 -129.25,65.07 -183.2,106.19 -21.23,16.18 -56.89,53.94 -78.76,67.12 -9.11,5.49 -3.32,1.98 -14.18,4.38 -21.44,4.72 -28.79,-1.94 -45.5,-15.29 -3.56,-2.85 1.04,0 -4.42,-2.81 -3.72,-1.92 0.26,0.41 -3.52,-1.39 -0.52,-0.24 -1.19,-0.48 -1.7,-0.74l-61.22 -42.61c-21.45,-18.4 -53.31,-44.56 -68.26,-66.12 -8.38,-12.09 -17.19,-26.88 -23.16,-42.64 -9.93,-26.25 -7.7,-65.39 -2.56,-94.73 3.41,-19.47 4.27,2.24 9.7,-27.4l9.89 -27.06c4.92,-13.24 2.39,-1.58 7.31,-11.67 5.02,-10.32 -1.27,-6.61 15.37,-32.32l13.37 -23.77c0.29,-0.51 0.66,-1.14 0.93,-1.67l14.82 -27.87c3.58,-5.56 2.64,-2.53 7.09,-11.32 9.44,-18.66 40.64,-59.18 54.47,-74.41 2.89,-3.19 6.04,-6.21 8.96,-9.27 33.71,-35.28 52.16,-45.85 95.73,-67.85 8.09,-4.09 5.57,-2.22 13.69,-5.07 22.39,-7.89 1.6,-6.56 46.53,-6.49zm-137.56 23.72c-0.12,-17.45 2.76,-37.57 6.84,-52.91 5.62,-21.1 5.82,-32.33 9.07,-54.99 2.3,-16.03 3.51,-8.3 7.83,-19.1l9.35 -83.23c13.77,-148.41 23.38,-303.67 37.96,-450.08 1.79,-17.96 2.81,-37.55 5.04,-55.17 3.53,-27.82 5.76,3.05 11.76,-50.02 3.45,-30.5 4.71,-0.41 10.74,-34.93 1.75,-9.98 4.38,-12.67 11.8,-22.98 0.35,-0.47 0.86,-1.04 1.21,-1.52 2.37,-3.32 0.42,0.59 3.32,-4.7 2.94,-5.34 0.73,-2.11 2.35,-5.66 0.28,-0.61 0.46,-1.34 0.76,-1.93l1.9 -3.48c2.94,-4.23 3.06,-1.7 7.98,-7.48 36.62,6.92 23.19,10.32 35,28.11l4.23 10.24c1.71,6.07 2.37,7.51 4.08,12.33 3.21,9.05 4.58,16.65 7.69,25.08l12.03 51.25c11.37,34.88 12.03,61.73 18.98,90.94l23 118.52c4.71,12.81 -0.28,15.22 3.56,26.75 7.93,23.83 0.51,12.68 4.88,27.84 6.86,23.85 0.09,13.77 3.62,27.09 4.94,18.65 3.45,-4.28 4.01,27.01 0.33,18.89 5.8,7.27 5.42,24.93 -0.66,31.24 2.15,17.67 4.25,28.73 2.08,10.94 -3.01,16.67 1.08,29.29 5.63,17.39 1.66,11.38 2.46,29.54 0.71,16.29 6.09,6.52 4.93,24.79 -2.14,33.51 1.32,17.99 4.22,29.03 2.27,8.69 -2.65,19.43 0.12,30.11 4.57,17.56 3.9,7.17 3.07,28.63 -0.85,21.95 5.21,7.99 5.24,24.83 0.02,13.64 -4.12,21.28 0.58,32.95 7.96,19.72 -0.51,26.44 1.81,44.32 1.73,13.26 2.13,1.13 3.74,13.14 0.61,4.6 1.93,58.72 1.89,58.99l-60.08 -33.19c-10.3,-3.76 -2.16,4.65 -15.04,-4.36 -14.82,-10.35 -26.7,0.36 -43.05,-6.91 -29.22,-12.99 -28.76,2.67 -60.23,2.53 -22.11,-0.1 -10.06,1.24 -24.51,6.48 -5.22,1.89 -2.26,0.46 -6.21,1.28 -14.13,2.93 7.52,-2.65 -4.32,0.66l-39.53 19.68c-10.88,7.03 -9.66,3.06 -18.15,7.76 -9.73,5.38 -3.31,7.05 -16.68,9.81zm25.24 -447.73c-7.13,83.16 -11.67,172.68 -22.27,255.05 -2.3,17.83 -3.66,45.82 -7.13,61.74 -3.93,18.06 -8.78,39.9 -11.85,58.28 -2.78,16.68 -2.44,48.33 -8.55,62.19 -9.15,20.77 -1.92,32.48 -17.75,50.93l-88.25 130.74c-6.63,10.15 -10.52,24.32 -17.62,35.4l-31.37 69.05c-4.91,16.06 0.96,12.08 -7.67,27.47 -5.62,10.02 -9.51,48.65 -6.51,60.42 2.09,8.23 1.79,-4.03 3.53,11.67 0.68,6.23 -1.19,8.8 0.67,14.56 2.94,9.07 2.3,1.49 4.96,9.03 2.54,7.18 0.15,7.62 2.88,13.6 3.86,8.46 1.07,-1.79 5.92,7.57 4.16,8.03 2.75,12.9 9.21,19.53 12.17,12.47 23.68,31.06 34.96,43.8l31.79 28.21c6.61,6.03 9.83,9.3 15.9,15.18l46.03 35.66c0.5,0.28 1.14,0.56 1.65,0.84l3.3 1.78c0.52,0.29 1.11,0.65 1.62,0.94l8.61 5.86c11.06,8.2 46.34,21.96 59.72,22.2 15.18,0.28 18.67,0.28 29.09,-5.49 11.62,-6.42 16.21,-6.46 26.74,-14.9l86.13 -72.17c13.27,-8.31 30.26,-15.98 44.25,-23.28l64.95 -33.13c13.84,-6.93 46.72,-27.49 58.58,-39.44l37.8 -49.37c1.89,-5.22 1.12,-11.05 2.48,-16.6 3.26,-13.3 7.1,-4.88 8.84,-25.34 1.51,-17.73 -2.36,-12.88 -4.53,-23.26 -1.87,-9.01 1.71,-22.3 1.41,-31.85 -0.66,-20.92 -8.14,2.85 -6.42,-24.88 1.58,-25.31 -2.84,-6.61 -5.14,-23.12 -0.84,-6.06 0.91,-6.57 -0.52,-13.65 -2.33,-11.51 -8.71,-21.6 -11.02,-33.44 -0.58,-2.98 0,-2.53 -0.99,-6.33 -1.64,-6.22 0.1,0.24 -2,-5.1 -3.45,-8.77 -2.58,-16.19 -6.41,-24.28l-20.86 -54.26c-5.5,-11.7 -16.17,-34.15 -19.75,-48.98 -3.27,-13.53 -8.06,-27.37 -7.22,-45.81 0.88,-19.64 -3.94,-12.38 -4.31,-25.08 -0.33,-11.46 2.97,-19.87 0.25,-31.02 -3.02,-12.42 -3.12,-40.13 -4.9,-52.41 -1.29,-8.9 0.21,-20.39 -0.54,-29.39 -1.07,-12.81 -3.21,-11.58 -3.37,-26.93 -0.06,-6 -0.36,-23.78 -1.43,-29.36 -1.28,-6.63 -2.73,-5.73 -3.54,-9.72 -1.17,-5.85 0.32,-9.76 0.56,-16.06 0.76,-19.69 -4.78,-8.57 -4.44,-27.33 0.33,-18.19 3.46,-13.42 -2.17,-27.81 -4.71,-12.06 -0.51,-14.25 -0.76,-27.36 -0.29,-16.05 -5.98,-4.3 -5.54,-24.81 0.63,-29.16 0.13,-13.78 -3.51,-26.24 -2.82,-9.65 1.99,-17.81 -1.8,-28.77 -5.71,-16.52 -1.42,-10 -2.7,-27.43 -1.02,-14.02 -5.58,-1.95 -5.48,-25.11 0.09,-20.15 -5.5,-4.75 -5.57,-24.98 -0.08,-24.47 -0.12,-9.66 -3.6,-25.68 -3.43,-15.81 -1.64,-35.43 -6.47,-52.1 -13.89,-48.02 -18.85,-98.74 -30.77,-147.75 -8.11,-33.32 -10.44,-64.81 -23.33,-96.57 -3.63,-8.96 -2.17,-13.51 -7.8,-22.76l-20.31 -32.15c-6.7,-6.45 -14.63,-13.53 -25.67,-15.08 -35.41,-4.98 -43.34,16.86 -57.86,40.39 -21.13,34.28 -31.83,99.49 -37.47,136.93 -16.86,112.05 -15.49,140.53 -24.66,247.56z"/>
 </g>
</svg>
