<?xml version="1.0" encoding="UTF-8"?>
<!DOCTYPE svg PUBLIC "-//W3C//DTD SVG 1.1//EN" "http://www.w3.org/Graphics/SVG/1.1/DTD/svg11.dtd">
<!-- Creator: CorelDRAW (Versión de evaluación) -->
<svg xmlns="http://www.w3.org/2000/svg" xml:space="preserve" width="739px" height="2458px" version="1.1" style="shape-rendering:geometricPrecision; text-rendering:geometricPrecision; image-rendering:optimizeQuality; fill-rule:evenodd; clip-rule:evenodd"
viewBox="0 0 739 2457.4"
 xmlns:xlink="http://www.w3.org/1999/xlink"
 xmlns:xodm="http://www.corel.com/coreldraw/odm/2003">
 <defs>
  <style type="text/css">
   <![CDATA[
    .str1 {stroke:#FFF212;stroke-width:10;stroke-miterlimit:22.9256}
    .str2 {stroke:#F7ADAD;stroke-width:10;stroke-miterlimit:22.9256}
    .str0 {stroke:#D6D2C8;stroke-width:10;stroke-miterlimit:22.9256}
    .fil0 {fill:#FEFEFE}
    .fil2 {fill:#F7ADAF}
    .fil1 {fill:#FECB29}
   ]]>
  </style>
 </defs>
 <g id="tooth-pulpotomy-11">
  <metadata id="CorelCorpID_0Corel-Layer"/>
  <path id="crown" class="fil0 str0" d="M292.74 1515.02c-24.06,75.22 -174.89,148.54 -242.36,176.59 -19.76,121.94 -93.73,596.63 -14.61,689.34 68.67,80.44 563.16,94.35 663.44,56.01 85.74,-58.86 18.26,-660.17 -64.29,-729.73 -42.23,-35.58 -121.45,-107.83 -126.62,-162.04 -39.3,-9.2 -38.36,-43.02 -97.75,-52.76 -48.83,-8 -69.89,24.01 -117.81,22.59z"/>
  <g id="_2008579896160">
   <path class="fil1 str1" d="M380.83 1696.89c-47.64,46.96 -107.96,85.69 -167.79,116.79 -10.12,69.72 -18.78,139.72 -25.1,209.76 -4.23,46.93 -13.3,160.83 -6.97,228.62 87.78,20.11 267.12,29.74 378.8,24.8 4.15,-129.36 -25.76,-369.77 -58.51,-447.99 -43.43,-37.97 -87.63,-82.18 -120.43,-131.98z"/>
  </g>
  <path id="root" class="fil0 str0" d="M292.74 1515.02c0.41,-52.24 202.88,-79.84 215.56,30.17 19.62,4.84 145.34,146.12 146.88,148.48 11.41,-72.16 -20.13,-387.07 -29.57,-476.35 -35.52,-335.95 -122.91,-523.81 -202.77,-813.06 -60.54,-219.33 -13.69,-366.35 -100.4,-404.26 -80.88,54.32 -154.37,675.96 -166.65,802.09l-92.94 850.87c101.21,9.01 142.84,-133.95 229.89,-137.94z"/>
  <g id="_2008579895872">
   <path class="fil2 str2" d="M269.97 1321.19c59.39,-22.52 129.12,-27.84 194.02,-14.54 -2.35,-23.84 -4.78,-47.66 -7.3,-71.47 -14.38,-136.02 -40.95,-263.42 -78.98,-394.61 -13.01,-44.86 -26.76,-89.44 -40.68,-133.97 -4.47,37.4 -8.56,74.76 -12.17,111.94l-0.1 1 -54.79 501.65z"/>
  </g>
 </g>
</svg>
