<?xml version="1.0" encoding="UTF-8"?>
<!DOCTYPE svg PUBLIC "-//W3C//DTD SVG 1.1//EN" "http://www.w3.org/Graphics/SVG/1.1/DTD/svg11.dtd">
<!-- Creator: CorelDRAW (Versión de evaluación) -->
<svg xmlns="http://www.w3.org/2000/svg" xml:space="preserve" width="739px" height="2458px" version="1.1" style="shape-rendering:geometricPrecision; text-rendering:geometricPrecision; image-rendering:optimizeQuality; fill-rule:evenodd; clip-rule:evenodd"
viewBox="0 0 739 2457.4"
 xmlns:xlink="http://www.w3.org/1999/xlink"
 xmlns:xodm="http://www.corel.com/coreldraw/odm/2003">
 <defs>
  <style type="text/css">
   <![CDATA[
    .str1 {stroke:#FFF212;stroke-width:10;stroke-miterlimit:22.9256}
    .str0 {stroke:#D6D2C8;stroke-width:10;stroke-miterlimit:22.9256}
    .fil1 {fill:#FECB29}
    .fil0 {fill:#F5F1E8}
   ]]>
  </style>
 </defs>
 <g id="tooth-pulpotomy-42">
  <metadata id="CorelCorpID_0Corel-Layer"/>
  <path id="root" class="fil0 str0" d="M88.71 793.8c4.4,112.08 32.6,296.97 48.58,415.16l57.77 833.93c3.74,93.57 -14.15,346.4 21.4,412.25 114.72,14.34 128.61,-41.27 172.3,-118.95 285.18,-507.25 216.43,-1074.36 304.34,-1531.14 -67.93,32.21 -130.32,94.96 -207.57,126.17 -198.47,80.21 -250.75,-73.41 -396.82,-137.42z"/>
  <path id="crown" class="fil0 str0" d="M518.43 878.56c82.1,-43.32 186.61,-98.81 204.82,-182.02 21.65,-99.04 22.9,-591.64 -12.71,-675.77 -74.96,-42.41 -357.09,-6.71 -465.02,-6.73 -168.39,-0.04 -262.19,45.66 -243.59,192.05 11.82,93.13 21.59,489.75 99.4,553.74 129.07,106.14 232.4,216.19 417.1,118.73z"/>
  <g id="_1979129632480">
   <path class="fil1 str1" d="M530.88 203.61c-23.32,0.73 -45.21,1.95 -60.47,2.7 -74.29,3.64 -150.82,11.47 -224.93,11.46 -8.65,0 -22.72,0.17 -37.14,1.05 6.96,70.08 9.74,142.25 16.7,212.17 4.29,43.17 14.15,142.52 30.39,192.44 35.75,30.75 82.13,70.92 115.57,85.62 18.56,8.15 35.2,-1.61 52.36,-10.67 21.09,-11.13 78.81,-40.8 103.34,-61.88 10.16,-82.21 11.8,-293.31 4.18,-432.89z"/>
  </g>
 </g>
</svg>
