<?xml version="1.0" encoding="UTF-8"?>
<!DOCTYPE svg PUBLIC "-//W3C//DTD SVG 1.1//EN" "http://www.w3.org/Graphics/SVG/1.1/DTD/svg11.dtd">
<!-- Creator: CorelDRAW (Versión de evaluación) -->
<svg xmlns="http://www.w3.org/2000/svg" xml:space="preserve" width="399px" height="2052px" version="1.1" style="shape-rendering:geometricPrecision; text-rendering:geometricPrecision; image-rendering:optimizeQuality; fill-rule:evenodd; clip-rule:evenodd"
viewBox="0 0 399 2051.87"
 xmlns:xlink="http://www.w3.org/1999/xlink"
 xmlns:xodm="http://www.corel.com/coreldraw/odm/2003">
 <defs>
  <style type="text/css">
   <![CDATA[
    .fil4 {fill:#4B4B4D}
    .fil1 {fill:#FFCC29}
    .fil3 {fill:#F7ADAF}
    .fil2 {fill:#F3EDD9}
    .fil0 {fill:#F8FBFF}
   ]]>
  </style>
 </defs>
 <g id="pulpotomy">
  <metadata id="CorelCorpID_0Corel-Layer"/>
  <path id="crown" class="fil0" d="M361.36 481.17c-42.64,-11.38 -74.6,12 -170.79,12.34 -73.54,0.27 -109.16,0.42 -146.37,45.15 -50.53,60.74 32.67,241.04 63.91,291.34 63.2,101.79 174.51,116.21 213.85,-17.45 17.71,-60.15 61.65,-277.07 39.4,-331.38z"/>
  <g id="_1750899782960">
   <path class="fil1" d="M337.36 507.54c-12.14,-0.13 -24.51,2.35 -36.21,4.41 -37.78,6.66 -71.85,10.88 -110.47,11.01 -24.42,0.09 -56.14,-0.86 -79.8,5.03 -19.1,4.75 -31.48,14.4 -44.04,29.51 -20.4,24.51 -1.58,95.21 6.77,121.97 8.5,27.26 19.14,54.13 31.01,80.08 8.4,18.36 17.85,37.75 28.51,54.92 18.42,29.66 52.57,66 90.58,65.65 39.53,-0.37 60.43,-43.36 70,-75.88 6.44,-21.89 11.48,-44.97 16.19,-67.29 6.77,-32.03 12.71,-64.34 17.63,-96.7 3.75,-24.65 13.67,-96.21 9.83,-132.71z"/>
  </g>
  <path id="root" class="fil2" d="M207.24 1576.37c22.15,-23.97 24.27,-118.69 29.53,-157.43 7.27,-53.52 15.61,-109.91 23.13,-163.65 10.15,-72.6 41.82,-271.88 33.64,-335.08 -31.9,14.4 -55.84,32.11 -104.09,15.92 -49.64,-16.66 -58.49,-42.7 -75.97,-49.44 -15.66,253.81 -24.98,305.57 31.6,552.56 9.93,43.34 18.51,133.45 62.16,137.12z"/>
  <g id="_1750579389248">
   <path class="fil3" d="M241.32 993.05c-23,2.68 -45.54,-0.56 -68.23,-8.17 -4.86,-1.63 -9.63,-3.41 -14.31,-5.34 -4.1,61.58 -7.42,123.92 -5.2,184.09 2.88,78.42 17.46,155.82 34.44,232.33 6.81,-49.29 14.06,-98.51 20.95,-147.79 7.94,-56.75 16.63,-113.27 23.59,-170.18 3.44,-28.21 6.62,-56.59 8.76,-84.94z"/>
  </g>
  <path id="outline" class="fil4" d="M207.24 1576.37c-43.65,-3.67 -52.23,-93.78 -62.16,-137.12 -56.58,-246.99 -47.26,-298.75 -31.6,-552.56 17.48,6.74 26.33,32.78 75.97,49.44 48.25,16.19 72.19,-1.52 104.09,-15.92 8.18,63.2 -23.49,262.48 -33.64,335.08 -7.52,53.74 -15.86,110.13 -23.13,163.65 -5.26,38.74 -7.38,133.46 -29.53,157.43zm154.12 -1095.2c22.25,54.31 -21.69,271.23 -39.4,331.38 -39.34,133.66 -150.65,119.24 -213.85,17.45 -31.24,-50.3 -114.44,-230.6 -63.91,-291.34 37.21,-44.73 72.83,-44.88 146.37,-45.15 96.19,-0.34 128.15,-23.72 170.79,-12.34zm-56.95 -26.18c-67.72,16.43 -114.98,6.63 -182.37,12.34 -53.92,4.57 -98.46,39.05 -114.68,80.38 -37.46,95.44 64.33,261.57 75.26,299.11 11.25,38.64 -18.63,248.54 -4.8,371.58 7.48,66.54 43.54,357.43 106.59,381.55 78.46,30 70.51,-123.55 83.64,-204.45 18.47,-113.83 33.88,-229.38 45.48,-346.02 3.68,-37 6.54,-154.65 17.31,-178.39 29.44,-64.89 63.4,-249.12 66.83,-323.63 3.45,-74.9 -11.68,-112.25 -93.26,-92.47z"/>
 </g>
</svg>
