<?xml version="1.0" encoding="UTF-8"?>
<!DOCTYPE svg PUBLIC "-//W3C//DTD SVG 1.1//EN" "http://www.w3.org/Graphics/SVG/1.1/DTD/svg11.dtd">
<!-- Creator: CorelDRAW (Versión de evaluación) -->
<svg xmlns="http://www.w3.org/2000/svg" xml:space="preserve" width="354px" height="2052px" version="1.1" style="shape-rendering:geometricPrecision; text-rendering:geometricPrecision; image-rendering:optimizeQuality; fill-rule:evenodd; clip-rule:evenodd"
viewBox="0 0 354 2050.18"
 xmlns:xlink="http://www.w3.org/1999/xlink"
 xmlns:xodm="http://www.corel.com/coreldraw/odm/2003">
 <defs>
  <style type="text/css">
   <![CDATA[
    .fil4 {fill:#4B4B4D}
    .fil1 {fill:#FFCC29}
    .fil3 {fill:#F7ADAF}
    .fil2 {fill:#F3EDD9}
    .fil0 {fill:#F8FBFF}
   ]]>
  </style>
 </defs>
 <g id="pulpotomy">
  <metadata id="CorelCorpID_0Corel-Layer"/>
  <path id="crown" class="fil0" d="M319.02 540.5c-23.53,-5.6 -48.46,2.5 -75.26,4.39 -60.75,4.26 -123.36,-8.43 -171.35,11.86 -18.48,7.81 -37.73,26.67 -43.51,47.99 -9.88,36.42 25.99,408.96 170.47,353.76 18.39,-7.03 43.95,-27.92 53.38,-38.34 38.19,-42.19 85.46,-321.5 66.27,-379.66z"/>
  <g id="_1750912019088">
   <path class="fil1" d="M280.37 583.45c-12.62,1.63 -25.77,3.95 -33.59,4.5 -31.34,2.2 -62.31,0.14 -93.63,0.03 -20.21,-0.07 -45.07,0.56 -63.93,8.53 -6.68,2.83 -15.82,11.22 -18.37,18.59 -2.32,17.62 1.96,53.9 4,71.2 4.89,41.39 12.77,83.66 24.6,123.67 9.01,30.46 23.75,70.89 44.98,95.04 11.7,13.29 22.24,19.77 39.53,13.16 9.81,-3.75 29.42,-18.96 36.59,-26.77 7.71,-10.05 17.61,-43.97 21.05,-56.26 10.04,-35.79 17.62,-72.93 23.84,-109.56 6.22,-36.64 11.3,-74.17 13.7,-111.27 0.42,-6.51 1.13,-18.78 1.23,-30.86z"/>
  </g>
  <path id="root" class="fil2" d="M94.99 956.62c4.39,48.15 13.67,97.73 16.17,145.91 2.91,56.45 7.49,416.85 60.47,409.8 61.45,-8.17 81.99,-466.39 84.89,-552.59 -24.9,12.44 -47.19,34.11 -83.76,32.68 -46,-1.8 -53.93,-25.2 -77.77,-35.8z"/>
  <g id="_1750912084512">
   <path class="fil3" d="M209.42 1032.11c-12.3,3.31 -25.01,4.85 -38.37,4.32 -7.72,-0.3 -15.15,-1.07 -22.33,-2.4 2.79,21.99 5.28,44.01 6.43,66.23 1.31,25.39 1.79,51 2.75,76.43 1.51,40.17 3.42,80.35 6.26,120.45 1.17,16.55 4.42,58.19 9.56,97.78 0.04,-0.22 0.08,-0.44 0.12,-0.66 9.92,-52.97 16.03,-107.59 21.14,-161.23 6.33,-66.52 11.12,-133.82 14.44,-200.92z"/>
  </g>
  <path id="outline" class="fil4" d="M94.99 956.62c23.84,10.6 31.77,34 77.77,35.8 36.57,1.43 58.86,-20.24 83.76,-32.68 -2.9,86.2 -23.44,544.42 -84.89,552.59 -52.98,7.05 -57.56,-353.35 -60.47,-409.8 -2.5,-48.18 -11.78,-97.76 -16.17,-145.91zm224.03 -416.12c19.19,58.16 -28.08,337.47 -66.27,379.66 -9.43,10.42 -34.99,31.31 -53.38,38.34 -144.48,55.2 -180.35,-317.34 -170.47,-353.76 5.78,-21.32 25.03,-40.18 43.51,-47.99 47.99,-20.29 110.6,-7.6 171.35,-11.86 26.8,-1.89 51.73,-9.99 75.26,-4.39zm-43.85 -27.66c-101.81,12.95 -238.33,-18.27 -270.13,76.87 -19.96,59.73 22.09,233.05 41.75,289.08 10.6,30.18 17.19,26.42 19.72,65.06 1.69,25.72 5.25,51.31 8.62,77.27 19.54,150.76 1.51,332.81 47.86,472.88 18.85,56.95 60.58,62.24 92.3,13.33 19.74,-30.43 29.57,-97.88 36.06,-139.16 23.19,-147.54 29.73,-254.39 32.05,-398.89 0.65,-40.52 1.78,-39.29 13.57,-71.6 22.97,-62.92 51.91,-220.56 55.86,-290.47 4.05,-71.94 -1.59,-104.05 -77.66,-94.37z"/>
 </g>
</svg>
