<?xml version="1.0" encoding="UTF-8"?>
<!DOCTYPE svg PUBLIC "-//W3C//DTD SVG 1.1//EN" "http://www.w3.org/Graphics/SVG/1.1/DTD/svg11.dtd">
<!-- Creator: CorelDRAW (Versión de evaluación) -->
<svg xmlns="http://www.w3.org/2000/svg" xml:space="preserve" width="535px" height="2062px" version="1.1" style="shape-rendering:geometricPrecision; text-rendering:geometricPrecision; image-rendering:optimizeQuality; fill-rule:evenodd; clip-rule:evenodd"
viewBox="0 0 535 2061.35"
 xmlns:xlink="http://www.w3.org/1999/xlink"
 xmlns:xodm="http://www.corel.com/coreldraw/odm/2003">
 <defs>
  <style type="text/css">
   <![CDATA[
    .fil4 {fill:#4B4B4D}
    .fil1 {fill:#FFCC29}
    .fil3 {fill:#F7ADAF}
    .fil2 {fill:#F3EDD9}
    .fil0 {fill:#F8FBFF}
   ]]>
  </style>
 </defs>
 <g id="pulpotomy">
  <metadata id="CorelCorpID_0Corel-Layer"/>
  <path id="crown" class="fil0" d="M506.71 1551.56c0.57,93.84 -20.17,123.3 -115.58,135.46 -80.73,10.3 -157.94,3.37 -237.42,12.55 -112.86,13.03 -127.82,-2.29 -125.66,-120.39 1.43,-78.25 6.31,-138.74 27.41,-207.18 67.46,-218.71 353.03,-285.51 417.33,-55.14 18.04,64.66 33.5,166.28 33.92,234.7z"/>
  <g id="_1750537932272">
   <path class="fil1" d="M471.71 1551.77c-0.23,-37.61 -4.52,-76.69 -9.98,-113.89 -5.45,-37.15 -12.55,-75.43 -22.65,-111.61 -22.79,-81.65 -82.22,-130.61 -167.79,-115.76 -87.7,15.21 -156.79,88.83 -182.38,171.81 -20.44,66.26 -24.6,128.48 -25.87,197.5 -0.25,13.62 -1.66,73.24 9.01,83.54 9.82,9.48 65.53,2.84 77.64,1.44 78.86,-9.1 158.47,-2.48 237.01,-12.49 19.97,-2.55 57.34,-7.87 71.24,-24.69 13.84,-16.74 13.89,-55.53 13.77,-75.85z"/>
  </g>
  <path id="root" class="fil2" d="M335.64 551.2l21.01 303.38 38.53 310.29c-52.97,-10.75 -71.62,-27.13 -141.85,-14.66 -52.59,9.33 -86.26,34.5 -121.77,57.54 3.56,-34.16 12.66,-71.36 18.04,-105.61 5.75,-36.65 9.28,-70.23 14.26,-106.69l52.62 -437.88c7.37,-60.38 14.79,-174.13 53.22,-198.13 49.47,22.53 61.54,126.51 65.94,191.76z"/>
  <g id="_1750537967312">
   <path class="fil3" d="M275.02 613.19l-46.92 390.51 -0.08 0.53c-4,29.29 -7.33,58.64 -11.47,87.9 8.05,-2.19 16.5,-4.09 25.47,-5.68 26.45,-4.7 51.69,-6.81 77.61,-4.5l-27.46 -221.14 -17.15 -247.62z"/>
  </g>
  <path id="outline" class="fil4" d="M506.71 1551.56c-0.42,-68.42 -15.88,-170.04 -33.92,-234.7 -64.3,-230.37 -349.87,-163.57 -417.33,55.14 -21.1,68.44 -25.98,128.93 -27.41,207.18 -2.16,118.1 12.8,133.42 125.66,120.39 79.48,-9.18 156.69,-2.25 237.42,-12.55 95.41,-12.16 116.15,-41.62 115.58,-135.46zm-171.07 -1000.36c-4.4,-65.25 -16.47,-169.23 -65.94,-191.76 -38.43,24 -45.85,137.75 -53.22,198.13l-52.62 437.88c-4.98,36.46 -8.51,70.04 -14.26,106.69 -5.38,34.25 -14.48,71.45 -18.04,105.61 35.51,-23.04 69.18,-48.21 121.77,-57.54 70.23,-12.47 88.88,3.91 141.85,14.66l-38.53 -310.29 -21.01 -303.38zm-52.3 -218.02c90.06,31.03 88.32,331.87 93.76,410.71l37.32 356.06c5.15,37.42 4.34,79.5 26.4,102.9 44.21,46.88 60.93,99.61 74.68,176.5 10.66,59.65 25.68,168.09 16.03,226.1 -12.11,72.79 -54.03,100.04 -137.93,109.48 -80.28,9.03 -155.36,5.1 -233.03,12.78 -87.95,8.7 -141.03,13.79 -155.8,-78.34 -10.61,-66.2 -3.11,-155.76 7.34,-217.62 10.11,-59.87 36.58,-130.77 66.4,-166.67 26.44,-31.83 21.41,-36.41 29.23,-86.87l66.52 -498.85c7.66,-66.43 14.98,-135.02 24.76,-201.24 7.19,-48.68 26.05,-165.01 84.32,-144.94z"/>
 </g>
</svg>
