<?xml version="1.0" encoding="UTF-8"?>
<!DOCTYPE svg PUBLIC "-//W3C//DTD SVG 1.1//EN" "http://www.w3.org/Graphics/SVG/1.1/DTD/svg11.dtd">
<!-- Creator: CorelDRAW (Versión de evaluación) -->
<svg xmlns="http://www.w3.org/2000/svg" xml:space="preserve" width="520px" height="2052px" version="1.1" style="shape-rendering:geometricPrecision; text-rendering:geometricPrecision; image-rendering:optimizeQuality; fill-rule:evenodd; clip-rule:evenodd"
viewBox="0 0 520 2051.76"
 xmlns:xlink="http://www.w3.org/1999/xlink"
 xmlns:xodm="http://www.corel.com/coreldraw/odm/2003">
 <defs>
  <style type="text/css">
   <![CDATA[
    .fil4 {fill:#4B4B4D}
    .fil1 {fill:#FFCC29}
    .fil3 {fill:#F7ADAF}
    .fil2 {fill:#F3EDD9}
    .fil0 {fill:#F8FBFF}
   ]]>
  </style>
 </defs>
 <g id="pulpotomy">
  <metadata id="CorelCorpID_0Corel-Layer"/>
  <polygon id="crown" class="fil0" points="244.45,195.21 238.95,195.21 238.95,197.96 230.69,197.96 230.69,200.71 225.19,200.71 225.19,203.46 219.69,203.46 219.69,206.21 214.18,206.21 214.18,208.96 211.43,208.96 211.43,211.71 205.93,211.71 205.93,214.46 200.43,214.46 200.43,217.22 197.68,217.22 197.68,219.97 192.17,219.97 192.17,222.72 189.42,222.72 189.42,225.47 183.92,225.47 183.92,228.22 181.17,228.22 181.17,230.97 175.67,230.97 175.67,233.72 172.91,233.72 172.91,236.48 167.41,236.48 167.41,239.22 161.91,239.22 161.91,241.98 159.16,241.98 159.16,244.73 153.65,244.73 153.65,247.48 150.91,247.48 150.91,250.23 148.15,250.23 148.15,252.98 142.65,252.98 142.65,255.73 137.15,255.73 137.15,258.48 134.4,258.48 134.4,261.24 128.89,261.24 128.89,263.99 126.14,263.99 126.14,266.74 123.39,266.74 123.39,269.49 117.89,269.49 117.89,272.24 115.14,272.24 115.14,274.99 109.63,274.99 109.63,277.75 106.88,277.75 106.88,280.49 104.13,280.49 104.13,283.25 98.63,283.25 98.63,286 95.88,286 95.88,288.75 93.13,288.75 93.13,291.5 87.62,291.5 87.62,294.25 84.87,294.25 84.87,297 82.12,297 82.12,299.76 79.37,299.76 79.37,302.51 76.62,302.51 76.62,305.26 71.12,305.26 71.12,308.01 68.37,308.01 68.37,313.51 65.61,313.51 65.61,316.26 62.86,316.26 62.86,319.01 60.11,319.01 60.11,321.76 57.36,321.76 57.36,324.52 54.61,324.52 54.61,330.02 51.86,330.02 51.86,332.77 49.11,332.77 49.11,335.52 46.35,335.52 46.35,341.02 43.6,341.02 43.6,346.53 40.85,346.53 40.85,352.03 38.1,352.03 38.1,357.53 35.35,357.53 35.35,365.79 32.6,365.79 32.6,371.29 29.84,371.29 29.84,382.29 27.1,382.29 27.1,387.8 24.34,387.8 24.34,409.8 21.59,409.8 21.59,453.83 24.34,453.83 24.34,478.59 27.1,478.59 27.1,497.85 29.84,497.85 29.84,517.11 32.6,517.11 32.6,525.36 35.35,525.36 35.35,536.37 38.1,536.37 38.1,550.12 40.85,550.12 40.85,561.13 43.6,561.13 43.6,569.38 46.35,569.38 46.35,574.88 49.11,574.88 49.11,588.64 51.86,588.64 51.86,596.9 54.61,596.9 54.61,605.15 57.36,605.15 57.36,613.4 60.11,613.4 60.11,618.91 62.86,618.91 62.86,632.66 65.61,632.66 65.61,638.17 68.37,638.17 68.37,646.42 71.12,646.42 71.12,657.42 73.87,657.42 73.87,662.93 76.62,662.93 76.62,671.18 79.37,671.18 79.37,676.68 82.12,676.68 82.12,684.94 84.87,684.94 84.87,693.19 87.62,693.19 87.62,698.69 90.37,698.69 90.37,706.95 93.13,706.95 93.13,712.45 95.88,712.45 95.88,720.71 98.63,720.71 98.63,726.21 101.38,726.21 101.38,734.46 104.13,734.46 104.13,739.96 106.88,739.96 106.88,745.47 109.63,745.47 109.63,750.97 112.38,750.97 112.38,756.47 115.14,756.47 115.14,761.97 117.89,761.97 117.89,767.48 120.64,767.48 120.64,772.98 123.39,772.98 123.39,778.48 126.14,778.48 126.14,781.23 128.89,781.23 128.89,786.74 131.64,786.74 131.64,792.24 134.4,792.24 134.4,794.99 137.15,794.99 137.15,800.49 139.9,800.49 139.9,803.24 142.65,803.24 142.65,805.99 145.4,805.99 145.4,808.75 148.15,808.75 148.15,814.25 150.91,814.25 150.91,817 153.65,817 153.65,819.75 156.41,819.75 156.41,822.5 159.16,822.5 159.16,825.25 161.91,825.25 161.91,828.01 164.66,828.01 164.66,830.75 167.41,830.75 167.41,833.51 170.16,833.51 170.16,836.26 172.91,836.26 172.91,839.01 175.67,839.01 175.67,841.76 178.42,841.76 178.42,844.51 181.17,844.51 181.17,847.26 186.67,847.26 186.67,850.02 189.42,850.02 189.42,852.77 192.17,852.77 192.17,855.52 197.68,855.52 197.68,858.27 200.43,858.27 200.43,861.02 205.93,861.02 205.93,863.77 211.43,863.77 211.43,866.52 222.44,866.52 222.44,869.28 227.94,869.28 227.94,872.03 238.95,872.03 238.95,874.78 271.96,874.78 271.96,872.03 282.97,872.03 282.97,869.28 288.47,869.28 288.47,866.52 296.72,866.52 296.72,863.77 302.22,863.77 302.22,861.02 307.73,861.02 307.73,858.27 310.48,858.27 310.48,855.52 315.98,855.52 315.98,852.77 318.73,852.77 318.73,850.02 324.24,850.02 324.24,847.26 326.99,847.26 326.99,844.51 329.74,844.51 329.74,841.76 332.49,841.76 332.49,839.01 335.24,839.01 335.24,836.26 337.99,836.26 337.99,833.51 340.75,833.51 340.75,830.75 343.49,830.75 343.49,828.01 346.25,828.01 346.25,825.25 349,825.25 349,822.5 351.75,822.5 351.75,819.75 354.5,819.75 354.5,817 357.25,817 357.25,814.25 360,814.25 360,811.5 362.75,811.5 362.75,805.99 365.51,805.99 365.51,803.24 368.26,803.24 368.26,800.49 371.01,800.49 371.01,794.99 373.76,794.99 373.76,792.24 376.51,792.24 376.51,789.49 379.26,789.49 379.26,783.98 382.01,783.98 382.01,781.23 384.76,781.23 384.76,775.73 387.52,775.73 387.52,772.98 390.27,772.98 390.27,767.48 393.02,767.48 393.02,761.97 395.77,761.97 395.77,756.47 398.52,756.47 398.52,753.72 401.27,753.72 401.27,748.22 404.02,748.22 404.02,742.71 406.78,742.71 406.78,737.21 409.53,737.21 409.53,731.71 412.28,731.71 412.28,726.21 415.03,726.21 415.03,720.71 417.78,720.71 417.78,712.45 420.53,712.45 420.53,706.95 423.28,706.95 423.28,701.44 426.03,701.44 426.03,693.19 428.79,693.19 428.79,687.69 431.54,687.69 431.54,682.18 434.29,682.18 434.29,676.68 437.04,676.68 437.04,665.68 439.79,665.68 439.79,660.18 442.54,660.18 442.54,651.92 445.29,651.92 445.29,646.42 448.05,646.42 448.05,638.17 450.79,638.17 450.79,629.91 453.55,629.91 453.55,624.41 456.3,624.41 456.3,610.65 459.05,610.65 459.05,602.4 461.8,602.4 461.8,594.14 464.55,594.14 464.55,585.89 467.3,585.89 467.3,574.88 470.06,574.88 470.06,569.38 472.81,569.38 472.81,555.63 475.56,555.63 475.56,550.12 478.31,550.12 478.31,533.61 481.06,533.61 481.06,519.86 483.81,519.86 483.81,511.6 486.56,511.6 486.56,497.85 489.32,497.85 489.32,475.84 492.07,475.84 492.07,462.08 494.82,462.08 494.82,382.29 492.07,382.29 492.07,371.29 489.32,371.29 489.32,360.28 486.56,360.28 486.56,354.78 483.81,354.78 483.81,346.53 481.06,346.53 481.06,341.02 478.31,341.02 478.31,335.52 475.56,335.52 475.56,332.77 472.81,332.77 472.81,327.27 470.06,327.27 470.06,324.52 467.3,324.52 467.3,321.76 464.55,321.76 464.55,319.01 461.8,319.01 461.8,313.51 459.05,313.51 459.05,310.76 456.3,310.76 456.3,308.01 453.55,308.01 453.55,305.26 448.05,305.26 448.05,302.51 445.29,302.51 445.29,299.76 442.54,299.76 442.54,297 439.79,297 439.79,294.25 437.04,294.25 437.04,291.5 431.54,291.5 431.54,288.75 428.79,288.75 428.79,286 426.03,286 426.03,283.25 423.28,283.25 423.28,280.49 417.78,280.49 417.78,277.75 415.03,277.75 415.03,274.99 409.53,274.99 409.53,272.24 406.78,272.24 406.78,269.49 404.02,269.49 404.02,266.74 398.52,266.74 398.52,263.99 395.77,263.99 395.77,261.24 393.02,261.24 393.02,258.48 387.52,258.48 387.52,255.73 384.76,255.73 384.76,252.98 382.01,252.98 382.01,250.23 376.51,250.23 376.51,247.48 373.76,247.48 373.76,244.73 368.26,244.73 368.26,241.98 365.51,241.98 365.51,239.22 362.75,239.22 362.75,236.48 357.25,236.48 357.25,233.72 354.5,233.72 354.5,230.97 349,230.97 349,228.22 346.25,228.22 346.25,225.47 343.49,225.47 343.49,222.72 337.99,222.72 337.99,219.97 335.24,219.97 335.24,217.22 329.74,217.22 329.74,214.46 324.24,214.46 324.24,211.71 321.48,211.71 321.48,208.96 315.98,208.96 315.98,206.21 313.23,206.21 313.23,203.46 307.73,203.46 307.73,200.71 302.22,200.71 302.22,197.96 293.97,197.96 293.97,195.21 285.72,195.21 285.72,192.45 244.45,192.45 "/>
  <g id="_2292408073232">
   <polygon class="fil1" points="266.76,316.56 261.26,316.56 261.26,319.31 258.51,319.31 258.51,322.07 253,322.07 253,324.82 247.5,324.82 247.5,327.57 244.75,327.57 244.75,330.32 239.24,330.32 239.24,333.07 236.5,333.07 236.5,335.82 233.74,335.82 233.74,338.57 228.24,338.57 228.24,341.32 222.74,341.32 222.74,344.08 219.99,344.08 219.99,346.83 214.48,346.83 214.48,349.58 211.73,349.58 211.73,352.33 208.98,352.33 208.98,355.08 203.48,355.08 203.48,357.83 200.73,357.83 200.73,360.58 195.23,360.58 195.23,363.34 192.47,363.34 192.47,366.09 189.72,366.09 189.72,368.84 184.22,368.84 184.22,371.59 181.47,371.59 181.47,374.34 178.72,374.34 178.72,377.09 173.21,377.09 173.21,379.84 170.46,379.84 170.46,382.59 167.71,382.59 167.71,385.35 164.96,385.35 164.96,388.1 162.21,388.1 162.21,390.85 156.71,390.85 156.71,393.6 153.96,393.6 153.96,399.1 151.2,399.1 151.2,401.85 148.45,401.85 148.45,404.61 145.7,404.61 145.7,407.35 142.95,407.35 142.95,410.11 140.2,410.11 140.2,415.61 137.45,415.61 137.45,418.36 134.7,418.36 134.7,421.11 131.94,421.11 131.94,426.62 129.19,426.62 129.19,432.12 126.44,432.12 126.44,437.62 123.69,437.62 123.69,443.12 120.94,443.12 120.94,450.77 123.69,450.77 123.69,464.53 126.44,464.53 126.44,475.54 129.19,475.54 129.19,483.79 131.94,483.79 131.94,489.29 134.7,489.29 134.7,503.05 137.45,503.05 137.45,511.31 140.2,511.31 140.2,519.56 142.95,519.56 142.95,527.81 145.7,527.81 145.7,533.31 148.45,533.31 148.45,547.07 151.2,547.07 151.2,552.57 153.96,552.57 153.96,560.83 156.71,560.83 156.71,571.83 159.46,571.83 159.46,577.34 162.21,577.34 162.21,585.59 164.96,585.59 164.96,591.09 167.71,591.09 167.71,599.35 170.46,599.35 170.46,607.6 173.21,607.6 173.21,613.1 175.97,613.1 175.97,621.36 178.72,621.36 178.72,626.86 181.47,626.86 181.47,635.11 184.22,635.11 184.22,640.62 186.97,640.62 186.97,648.87 189.72,648.87 189.72,654.37 192.47,654.37 192.47,659.88 195.23,659.88 195.23,665.38 197.98,665.38 197.98,670.88 200.73,670.88 200.73,676.38 203.48,676.38 203.48,681.88 206.23,681.88 206.23,687.39 208.98,687.39 208.98,692.89 211.73,692.89 211.73,695.64 214.48,695.64 214.48,701.15 217.24,701.15 217.24,706.65 219.99,706.65 219.99,709.4 222.74,709.4 222.74,714.9 225.49,714.9 225.49,717.65 228.24,717.65 228.24,720.4 230.99,720.4 230.99,723.16 233.74,723.16 233.74,728.66 236.5,728.66 236.5,731.41 239.24,731.41 239.24,734.16 242,734.16 242,736.91 244.75,736.91 244.75,739.66 247.5,739.66 247.5,742.41 250.25,742.41 250.25,745.16 253,745.16 253,747.92 255.15,747.92 255.15,745.16 257.9,745.16 257.9,742.41 260.66,742.41 260.66,739.66 263.41,739.66 263.41,736.91 266.16,736.91 266.16,734.16 268.91,734.16 268.91,731.41 271.66,731.41 271.66,728.66 274.41,728.66 274.41,725.91 277.16,725.91 277.16,720.4 279.92,720.4 279.92,717.65 282.67,717.65 282.67,714.9 285.42,714.9 285.42,709.4 288.17,709.4 288.17,706.65 290.92,706.65 290.92,703.89 293.67,703.89 293.67,698.39 296.42,698.39 296.42,695.64 299.17,695.64 299.17,690.14 301.92,690.14 301.92,687.39 304.68,687.39 304.68,681.88 307.43,681.88 307.43,676.38 310.18,676.38 310.18,670.88 312.93,670.88 312.93,668.13 315.68,668.13 315.68,662.62 318.43,662.62 318.43,657.12 321.19,657.12 321.19,651.62 323.93,651.62 323.93,646.12 326.69,646.12 326.69,640.62 329.44,640.62 329.44,635.11 332.19,635.11 332.19,626.86 334.94,626.86 334.94,621.36 337.69,621.36 337.69,615.85 340.44,615.85 340.44,607.6 343.2,607.6 343.2,602.1 345.95,602.1 345.95,596.59 348.7,596.59 348.7,591.09 351.45,591.09 351.45,580.09 354.2,580.09 354.2,574.58 356.95,574.58 356.95,566.33 359.7,566.33 359.7,560.83 362.46,560.83 362.46,552.57 365.2,552.57 365.2,544.32 367.96,544.32 367.96,538.82 370.71,538.82 370.71,525.06 373.46,525.06 373.46,516.81 376.21,516.81 376.21,508.55 378.96,508.55 378.96,500.3 381.71,500.3 381.71,489.29 384.46,489.29 384.46,483.79 387.22,483.79 387.22,470.04 389.97,470.04 389.97,464.53 392.72,464.53 392.72,448.02 395.47,448.02 395.47,434.27 398.22,434.27 398.22,432.12 395.47,432.12 395.47,426.62 392.72,426.62 392.72,421.11 389.97,421.11 389.97,418.36 387.22,418.36 387.22,412.86 384.46,412.86 384.46,410.11 381.71,410.11 381.71,407.35 378.96,407.35 378.96,404.61 376.21,404.61 376.21,399.1 373.46,399.1 373.46,396.35 370.71,396.35 370.71,393.6 367.96,393.6 367.96,390.85 362.46,390.85 362.46,388.1 359.7,388.1 359.7,385.35 356.95,385.35 356.95,382.59 354.2,382.59 354.2,379.84 351.45,379.84 351.45,377.09 345.95,377.09 345.95,374.34 343.2,374.34 343.2,371.59 340.44,371.59 340.44,368.84 337.69,368.84 337.69,366.09 332.19,366.09 332.19,363.34 329.44,363.34 329.44,360.58 323.93,360.58 323.93,357.83 321.19,357.83 321.19,355.08 318.43,355.08 318.43,352.33 312.93,352.33 312.93,349.58 310.18,349.58 310.18,346.83 307.43,346.83 307.43,344.08 301.92,344.08 301.92,341.32 299.17,341.32 299.17,338.57 296.42,338.57 296.42,335.82 290.92,335.82 290.92,333.07 288.17,333.07 288.17,330.32 282.67,330.32 282.67,327.57 279.92,327.57 279.92,324.82 277.16,324.82 277.16,322.07 271.66,322.07 271.66,319.31 268.91,319.31 268.91,316.56 "/>
  </g>
  <polygon id="root" class="fil2" points="423.28,761.97 420.53,761.97 420.53,767.48 417.78,767.48 417.78,770.23 415.03,770.23 415.03,775.73 412.28,775.73 412.28,781.23 409.53,781.23 409.53,783.98 406.78,783.98 406.78,789.49 404.02,789.49 404.02,794.99 401.27,794.99 401.27,797.74 398.52,797.74 398.52,803.24 395.77,803.24 395.77,805.99 393.02,805.99 393.02,811.5 390.27,811.5 390.27,814.25 387.52,814.25 387.52,817 384.76,817 384.76,822.5 382.01,822.5 382.01,825.25 379.26,825.25 379.26,828.01 376.51,828.01 376.51,830.75 373.76,830.75 373.76,833.51 371.01,833.51 371.01,839.01 368.26,839.01 368.26,841.76 365.51,841.76 365.51,844.51 362.75,844.51 362.75,847.26 360,847.26 360,850.02 357.25,850.02 357.25,852.77 354.5,852.77 354.5,855.52 351.75,855.52 351.75,858.27 349,858.27 349,861.02 343.49,861.02 343.49,863.77 340.75,863.77 340.75,866.52 337.99,866.52 337.99,869.28 335.24,869.28 335.24,872.03 329.74,872.03 329.74,874.78 326.99,874.78 326.99,877.53 321.48,877.53 321.48,880.28 315.98,880.28 315.98,883.03 310.48,883.03 310.48,885.78 304.98,885.78 304.98,888.53 299.48,888.53 299.48,891.28 291.22,891.28 291.22,894.04 282.97,894.04 282.97,896.79 269.21,896.79 269.21,899.54 238.95,899.54 238.95,896.79 225.19,896.79 225.19,894.04 216.94,894.04 216.94,891.28 211.43,891.28 211.43,888.53 203.18,888.53 203.18,885.78 197.68,885.78 197.68,883.03 192.17,883.03 192.17,880.28 186.67,880.28 186.67,877.53 183.92,877.53 183.92,874.78 178.42,874.78 178.42,872.03 175.67,872.03 175.67,869.28 170.16,869.28 170.16,866.52 167.41,866.52 167.41,863.77 164.66,863.77 164.66,861.02 159.16,861.02 159.16,858.27 156.41,858.27 156.41,855.52 153.65,855.52 153.65,852.77 150.91,852.77 150.91,850.02 148.15,850.02 148.15,847.26 145.4,847.26 145.4,844.51 142.65,844.51 142.65,841.76 139.9,841.76 139.9,839.01 137.15,839.01 137.15,833.51 134.4,833.51 134.4,830.75 131.64,830.75 131.64,828.01 128.89,828.01 128.89,825.25 126.14,825.25 126.14,819.75 123.39,819.75 123.39,817 120.64,817 120.64,814.25 117.89,814.25 117.89,808.75 115.14,808.75 115.14,805.99 112.38,805.99 112.38,800.49 109.63,800.49 109.63,794.99 106.88,794.99 106.88,792.24 104.13,792.24 104.13,786.74 101.38,786.74 101.38,781.23 98.63,781.23 98.63,778.48 95.88,778.48 95.88,825.25 98.63,825.25 98.63,861.02 101.38,861.02 101.38,943.56 104.13,943.56 104.13,968.32 106.88,968.32 106.88,1061.87 109.63,1061.87 109.63,1122.39 112.38,1122.39 112.38,1141.65 115.14,1141.65 115.14,1180.17 117.89,1180.17 117.89,1199.43 120.64,1199.43 120.64,1229.7 123.39,1229.7 123.39,1251.7 126.14,1251.7 126.14,1273.71 128.89,1273.71 128.89,1284.72 131.64,1284.72 131.64,1306.73 134.4,1306.73 134.4,1323.24 137.15,1323.24 137.15,1334.24 139.9,1334.24 139.9,1350.75 142.65,1350.75 142.65,1367.26 145.4,1367.26 145.4,1394.77 148.15,1394.77 148.15,1411.28 150.91,1411.28 150.91,1422.29 153.65,1422.29 153.65,1444.3 156.41,1444.3 156.41,1466.31 159.16,1466.31 159.16,1491.07 161.91,1491.07 161.91,1510.33 164.66,1510.33 164.66,1537.84 167.41,1537.84 167.41,1554.35 170.16,1554.35 170.16,1587.36 172.91,1587.36 172.91,1625.88 175.67,1625.88 175.67,1672.66 178.42,1672.66 178.42,1702.92 181.17,1702.92 181.17,1724.93 183.92,1724.93 183.92,1757.95 186.67,1757.95 186.67,1766.2 189.42,1766.2 189.42,1790.96 192.17,1790.96 192.17,1801.97 194.92,1801.97 194.92,1812.97 197.68,1812.97 197.68,1823.97 200.43,1823.97 200.43,1829.48 203.18,1829.48 203.18,1837.73 205.93,1837.73 205.93,1843.24 208.68,1843.24 208.68,1848.74 211.43,1848.74 211.43,1851.49 214.18,1851.49 214.18,1854.24 216.94,1854.24 216.94,1856.99 219.69,1856.99 219.69,1859.74 233.44,1859.74 233.44,1856.99 236.19,1856.99 236.19,1854.24 238.95,1854.24 238.95,1851.49 241.7,1851.49 241.7,1848.74 244.45,1848.74 244.45,1845.99 247.2,1845.99 247.2,1843.24 249.95,1843.24 249.95,1840.48 252.7,1840.48 252.7,1834.98 255.45,1834.98 255.45,1829.48 258.21,1829.48 258.21,1826.73 260.96,1826.73 260.96,1821.23 263.71,1821.23 263.71,1815.72 266.46,1815.72 266.46,1810.22 269.21,1810.22 269.21,1804.72 271.96,1804.72 271.96,1796.46 274.71,1796.46 274.71,1790.96 277.46,1790.96 277.46,1782.71 280.22,1782.71 280.22,1777.2 282.97,1777.2 282.97,1771.7 285.72,1771.7 285.72,1763.45 288.47,1763.45 288.47,1755.19 291.22,1755.19 291.22,1746.94 293.97,1746.94 293.97,1738.69 296.72,1738.69 296.72,1730.43 299.48,1730.43 299.48,1719.43 302.22,1719.43 302.22,1711.17 304.98,1711.17 304.98,1702.92 307.73,1702.92 307.73,1689.16 310.48,1689.16 310.48,1680.91 313.23,1680.91 313.23,1669.9 315.98,1669.9 315.98,1656.15 318.73,1656.15 318.73,1647.89 321.48,1647.89 321.48,1636.89 324.24,1636.89 324.24,1628.63 326.99,1628.63 326.99,1612.13 329.74,1612.13 329.74,1603.87 332.49,1603.87 332.49,1590.12 335.24,1590.12 335.24,1576.36 337.99,1576.36 337.99,1568.11 340.75,1568.11 340.75,1551.6 343.49,1551.6 343.49,1537.84 346.25,1537.84 346.25,1526.84 349,1526.84 349,1515.83 351.75,1515.83 351.75,1499.32 354.5,1499.32 354.5,1491.07 357.25,1491.07 357.25,1474.56 360,1474.56 360,1458.05 362.75,1458.05 362.75,1444.3 365.51,1444.3 365.51,1430.54 368.26,1430.54 368.26,1416.78 371.01,1416.78 371.01,1394.77 373.76,1394.77 373.76,1381.02 376.51,1381.02 376.51,1356.25 379.26,1356.25 379.26,1342.5 382.01,1342.5 382.01,1312.24 384.76,1312.24 384.76,1295.73 387.52,1295.73 387.52,1259.96 390.27,1259.96 390.27,1237.95 393.02,1237.95 393.02,1185.67 395.77,1185.67 395.77,1133.4 398.52,1133.4 398.52,1094.88 401.27,1094.88 401.27,1050.86 404.02,1050.86 404.02,984.83 406.78,984.83 406.78,951.82 409.53,951.82 409.53,924.3 412.28,924.3 412.28,894.04 415.03,894.04 415.03,847.26 417.78,847.26 417.78,819.75 420.53,819.75 420.53,797.74 423.28,797.74 423.28,772.98 426.03,772.98 426.03,759.22 423.28,759.22 "/>
  <g id="_2292408069152">
   <polygon class="fil3" points="304.7,996.11 206.2,996.11 206.2,1025.83 208.95,1025.83 208.95,1045.08 211.71,1045.08 211.71,1083.6 214.46,1083.6 214.46,1102.86 217.21,1102.86 217.21,1133.13 219.96,1133.13 219.96,1155.14 222.71,1155.14 222.71,1177.15 225.46,1177.15 225.46,1188.15 228.21,1188.15 228.21,1210.16 230.97,1210.16 230.97,1226.67 233.72,1226.67 233.72,1237.68 236.47,1237.68 236.47,1254.18 239.22,1254.18 239.22,1270.69 241.97,1270.69 241.97,1298.21 244.72,1298.21 244.72,1314.71 247.47,1314.71 247.47,1325.72 250.22,1325.72 250.22,1347.73 252.98,1347.73 252.98,1369.74 255.73,1369.74 255.73,1394.5 260.68,1394.5 260.68,1377.99 263.43,1377.99 263.43,1361.48 266.18,1361.48 266.18,1347.73 268.94,1347.73 268.94,1333.97 271.69,1333.97 271.69,1320.21 274.44,1320.21 274.44,1298.21 277.19,1298.21 277.19,1284.45 279.94,1284.45 279.94,1259.69 282.69,1259.69 282.69,1245.93 285.45,1245.93 285.45,1215.67 288.19,1215.67 288.19,1199.16 290.95,1199.16 290.95,1163.39 293.7,1163.39 293.7,1141.38 296.45,1141.38 296.45,1089.1 299.2,1089.1 299.2,1036.83 301.95,1036.83 301.95,998.31 304.7,998.31 "/>
  </g>
  <path id="outline" class="fil4" d="M423.28 797.74l-2.75 0 0 22.01 -2.75 0 0 27.51 -2.75 0 0 46.78 -2.75 0 0 30.26 -2.75 0 0 27.52 -2.75 0 0 33.01 -2.76 0 0 66.03 -2.75 0 0 44.02 -2.75 0 0 38.52 -2.75 0 0 52.27 -2.75 0 0 52.28 -2.75 0 0 22.01 -2.75 0 0 35.77 -2.76 0 0 16.51 -2.75 0 0 30.26 -2.75 0 0 13.75 -2.75 0 0 24.77 -2.75 0 0 13.75 -2.75 0 0 22.01 -2.75 0 0 13.76 -2.75 0 0 13.76 -2.76 0 0 13.75 -2.75 0 0 16.51 -2.75 0 0 16.51 -2.75 0 0 8.25 -2.75 0 0 16.51 -2.75 0 0 11.01 -2.75 0 0 11 -2.76 0 0 13.76 -2.74 0 0 16.51 -2.76 0 0 8.25 -2.75 0 0 13.76 -2.75 0 0 13.75 -2.75 0 0 8.26 -2.75 0 0 16.5 -2.75 0 0 8.26 -2.76 0 0 11 -2.75 0 0 8.26 -2.75 0 0 13.75 -2.75 0 0 11.01 -2.75 0 0 8.25 -2.75 0 0 13.76 -2.75 0 0 8.25 -2.76 0 0 8.26 -2.74 0 0 11 -2.76 0 0 8.26 -2.75 0 0 8.25 -2.75 0 0 8.25 -2.75 0 0 8.26 -2.75 0 0 8.25 -2.75 0 0 5.5 -2.75 0 0 5.51 -2.76 0 0 8.25 -2.75 0 0 5.5 -2.75 0 0 8.26 -2.75 0 0 5.5 -2.75 0 0 5.5 -2.75 0 0 5.51 -2.75 0 0 5.5 -2.75 0 0 2.75 -2.76 0 0 5.5 -2.75 0 0 5.5 -2.75 0 0 2.76 -2.75 0 0 2.75 -2.75 0 0 2.75 -2.75 0 0 2.75 -2.75 0 0 2.75 -2.76 0 0 2.75 -2.75 0 0 2.75 -13.75 0 0 -2.75 -2.75 0 0 -2.75 -2.76 0 0 -2.75 -2.75 0 0 -2.75 -2.75 0 0 -5.5 -2.75 0 0 -5.51 -2.75 0 0 -8.25 -2.75 0 0 -5.51 -2.75 0 0 -11 -2.76 0 0 -11 -2.75 0 0 -11.01 -2.75 0 0 -24.76 -2.75 0 0 -8.25 -2.75 0 0 -33.02 -2.75 0 0 -22.01 -2.75 0 0 -30.26 -2.75 0 0 -46.78 -2.76 0 0 -38.52 -2.75 0 0 -33.01 -2.75 0 0 -16.51 -2.75 0 0 -27.51 -2.75 0 0 -19.26 -2.75 0 0 -24.76 -2.75 0 0 -22.01 -2.76 0 0 -22.01 -2.74 0 0 -11.01 -2.76 0 0 -16.51 -2.75 0 0 -27.51 -2.75 0 0 -16.51 -2.75 0 0 -16.51 -2.75 0 0 -11 -2.75 0 0 -16.51 -2.76 0 0 -22.01 -2.75 0 0 -11.01 -2.75 0 0 -22.01 -2.75 0 0 -22 -2.75 0 0 -30.27 -2.75 0 0 -19.26 -2.75 0 0 -38.52 -2.76 0 0 -19.26 -2.75 0 0 -60.52 -2.75 0 0 -93.55 -2.75 0 0 -24.76 -2.75 0 0 -82.54 -2.75 0 0 -35.77 -2.75 0 0 -46.77 2.75 0 0 2.75 2.75 0 0 5.51 2.75 0 0 5.5 2.75 0 0 2.75 2.75 0 0 5.5 2.75 0 0 5.5 2.76 0 0 2.76 2.75 0 0 5.5 2.75 0 0 2.75 2.75 0 0 2.75 2.75 0 0 5.5 2.75 0 0 2.76 2.75 0 0 2.74 2.76 0 0 2.76 2.75 0 0 5.5 2.75 0 0 2.75 2.75 0 0 2.75 2.75 0 0 2.75 2.75 0 0 2.76 2.76 0 0 2.75 2.74 0 0 2.75 2.76 0 0 2.75 2.75 0 0 2.75 5.5 0 0 2.75 2.75 0 0 2.75 2.75 0 0 2.76 5.51 0 0 2.75 2.75 0 0 2.75 5.5 0 0 2.75 2.75 0 0 2.75 5.5 0 0 2.75 5.51 0 0 2.75 5.5 0 0 2.75 8.25 0 0 2.75 5.51 0 0 2.76 8.25 0 0 2.75 13.76 0 0 2.75 30.26 0 0 -2.75 13.76 0 0 -2.75 8.25 0 0 -2.76 8.26 0 0 -2.75 5.5 0 0 -2.75 5.5 0 0 -2.75 5.5 0 0 -2.75 5.5 0 0 -2.75 5.51 0 0 -2.75 2.75 0 0 -2.75 5.5 0 0 -2.75 2.75 0 0 -2.76 2.76 0 0 -2.75 2.74 0 0 -2.75 5.51 0 0 -2.75 2.75 0 0 -2.75 2.75 0 0 -2.75 2.75 0 0 -2.75 2.75 0 0 -2.76 2.75 0 0 -2.75 2.76 0 0 -2.75 2.75 0 0 -2.75 2.75 0 0 -5.5 2.75 0 0 -2.76 2.75 0 0 -2.74 2.75 0 0 -2.76 2.75 0 0 -2.75 2.75 0 0 -5.5 2.76 0 0 -2.75 2.75 0 0 -2.75 2.75 0 0 -5.51 2.75 0 0 -2.75 2.75 0 0 -5.5 2.75 0 0 -2.75 2.75 0 0 -5.5 2.76 0 0 -5.51 2.75 0 0 -2.75 2.75 0 0 -5.5 2.75 0 0 -5.5 2.75 0 0 -2.75 2.75 0 0 -5.51 2.75 0 0 -2.75 2.75 0 0 13.76 -2.75 0 0 24.76zm-401.69 -387.94l2.75 0 0 -22 2.76 0 0 -5.51 2.74 0 0 -11 2.76 0 0 -5.5 2.75 0 0 -8.26 2.75 0 0 -5.5 2.75 0 0 -5.5 2.75 0 0 -5.51 2.75 0 0 -5.5 2.76 0 0 -2.75 2.75 0 0 -2.75 2.75 0 0 -5.5 2.75 0 0 -2.76 2.75 0 0 -2.75 2.75 0 0 -2.75 2.75 0 0 -2.75 2.76 0 0 -5.5 2.75 0 0 -2.75 5.5 0 0 -2.75 2.75 0 0 -2.75 2.75 0 0 -2.76 2.75 0 0 -2.75 2.75 0 0 -2.75 5.51 0 0 -2.75 2.75 0 0 -2.75 2.75 0 0 -2.75 5.5 0 0 -2.76 2.75 0 0 -2.74 2.75 0 0 -2.76 5.51 0 0 -2.75 2.75 0 0 -2.75 5.5 0 0 -2.75 2.75 0 0 -2.75 2.75 0 0 -2.75 5.51 0 0 -2.76 2.75 0 0 -2.75 5.5 0 0 -2.75 5.5 0 0 -2.75 2.76 0 0 -2.75 2.74 0 0 -2.75 5.51 0 0 -2.75 2.75 0 0 -2.76 5.5 0 0 -2.74 5.5 0 0 -2.76 2.76 0 0 -2.75 5.5 0 0 -2.75 2.75 0 0 -2.75 5.5 0 0 -2.75 2.75 0 0 -2.75 5.51 0 0 -2.75 2.75 0 0 -2.76 5.5 0 0 -2.75 5.5 0 0 -2.75 2.75 0 0 -2.75 5.51 0 0 -2.75 5.5 0 0 -2.75 5.5 0 0 -2.75 8.26 0 0 -2.75 5.5 0 0 -2.76 41.27 0 0 2.76 8.25 0 0 2.75 8.25 0 0 2.75 5.51 0 0 2.75 5.5 0 0 2.75 2.75 0 0 2.75 5.5 0 0 2.75 2.76 0 0 2.75 5.5 0 0 2.76 5.5 0 0 2.75 2.75 0 0 2.75 5.5 0 0 2.75 2.76 0 0 2.75 2.75 0 0 2.75 5.5 0 0 2.75 2.75 0 0 2.76 5.5 0 0 2.74 2.76 0 0 2.76 2.75 0 0 2.75 5.5 0 0 2.75 2.75 0 0 2.75 5.5 0 0 2.75 2.75 0 0 2.75 2.76 0 0 2.75 5.5 0 0 2.76 2.75 0 0 2.75 2.75 0 0 2.75 5.5 0 0 2.75 2.76 0 0 2.75 2.75 0 0 2.75 5.5 0 0 2.76 2.75 0 0 2.74 5.5 0 0 2.76 2.75 0 0 2.75 2.76 0 0 2.75 2.75 0 0 2.75 5.5 0 0 2.75 2.75 0 0 2.75 2.75 0 0 2.76 2.75 0 0 2.75 2.76 0 0 2.75 5.5 0 0 2.75 2.75 0 0 2.75 2.75 0 0 2.75 2.75 0 0 5.5 2.75 0 0 2.75 2.75 0 0 2.76 2.76 0 0 2.75 2.75 0 0 5.5 2.75 0 0 2.75 2.75 0 0 5.5 2.75 0 0 5.51 2.75 0 0 8.25 2.75 0 0 5.5 2.76 0 0 11.01 2.75 0 0 11 2.75 0 0 79.79 -2.75 0 0 13.76 -2.75 0 0 22.01 -2.76 0 0 13.75 -2.75 0 0 8.26 -2.75 0 0 13.75 -2.75 0 0 16.51 -2.75 0 0 5.51 -2.75 0 0 13.75 -2.75 0 0 5.5 -2.76 0 0 11.01 -2.75 0 0 8.25 -2.75 0 0 8.26 -2.75 0 0 8.25 -2.75 0 0 13.76 -2.75 0 0 5.5 -2.76 0 0 8.26 -2.74 0 0 8.25 -2.76 0 0 5.5 -2.75 0 0 8.26 -2.75 0 0 5.5 -2.75 0 0 11 -2.75 0 0 5.5 -2.75 0 0 5.51 -2.75 0 0 5.5 -2.76 0 0 8.25 -2.75 0 0 5.51 -2.75 0 0 5.5 -2.75 0 0 8.26 -2.75 0 0 5.5 -2.75 0 0 5.5 -2.75 0 0 5.5 -2.75 0 0 5.5 -2.76 0 0 5.51 -2.75 0 0 5.5 -2.75 0 0 2.75 -2.75 0 0 5.5 -2.75 0 0 5.51 -2.75 0 0 5.5 -2.75 0 0 2.75 -2.76 0 0 5.5 -2.75 0 0 2.75 -2.75 0 0 5.51 -2.75 0 0 2.75 -2.75 0 0 2.75 -2.75 0 0 5.5 -2.75 0 0 2.75 -2.75 0 0 2.75 -2.76 0 0 5.51 -2.75 0 0 2.75 -2.75 0 0 2.75 -2.75 0 0 2.75 -2.75 0 0 2.75 -2.75 0 0 2.75 -2.75 0 0 2.76 -2.76 0 0 2.74 -2.74 0 0 2.76 -2.76 0 0 2.75 -2.75 0 0 2.75 -2.75 0 0 2.75 -2.75 0 0 2.75 -2.75 0 0 2.75 -2.75 0 0 2.76 -5.51 0 0 2.75 -2.75 0 0 2.75 -5.5 0 0 2.75 -2.75 0 0 2.75 -5.51 0 0 2.75 -5.5 0 0 2.75 -8.25 0 0 2.76 -5.5 0 0 2.75 -11.01 0 0 2.75 -33.01 0 0 -2.75 -11.01 0 0 -2.75 -5.5 0 0 -2.76 -11.01 0 0 -2.75 -5.5 0 0 -2.75 -5.5 0 0 -2.75 -2.75 0 0 -2.75 -5.51 0 0 -2.75 -2.75 0 0 -2.75 -2.75 0 0 -2.76 -5.5 0 0 -2.75 -2.75 0 0 -2.75 -2.75 0 0 -2.75 -2.76 0 0 -2.75 -2.75 0 0 -2.75 -2.75 0 0 -2.76 -2.75 0 0 -2.74 -2.75 0 0 -2.76 -2.75 0 0 -2.75 -2.75 0 0 -2.75 -2.76 0 0 -2.75 -2.74 0 0 -2.75 -2.76 0 0 -5.5 -2.75 0 0 -2.76 -2.75 0 0 -2.75 -2.75 0 0 -2.75 -2.75 0 0 -5.5 -2.75 0 0 -2.75 -2.76 0 0 -5.5 -2.75 0 0 -5.51 -2.75 0 0 -2.75 -2.75 0 0 -5.5 -2.75 0 0 -5.5 -2.75 0 0 -5.51 -2.75 0 0 -5.5 -2.76 0 0 -5.5 -2.75 0 0 -5.5 -2.75 0 0 -5.51 -2.75 0 0 -5.5 -2.75 0 0 -8.25 -2.75 0 0 -5.5 -2.75 0 0 -8.26 -2.75 0 0 -5.5 -2.76 0 0 -8.26 -2.75 0 0 -5.5 -2.75 0 0 -8.25 -2.75 0 0 -8.26 -2.75 0 0 -5.5 -2.75 0 0 -8.25 -2.75 0 0 -5.51 -2.75 0 0 -11 -2.75 0 0 -8.25 -2.76 0 0 -5.51 -2.75 0 0 -13.75 -2.75 0 0 -5.51 -2.75 0 0 -8.25 -2.75 0 0 -8.25 -2.75 0 0 -8.26 -2.75 0 0 -13.76 -2.76 0 0 -5.5 -2.75 0 0 -8.25 -2.75 0 0 -11.01 -2.75 0 0 -13.75 -2.75 0 0 -11.01 -2.75 0 0 -8.25 -2.76 0 0 -19.26 -2.74 0 0 -19.26 -2.76 0 0 -24.76 -2.75 0 0 -44.03zm228.36 -239.36l-16.51 0 0 2.75 -8.25 0 0 2.76 -5.5 0 0 2.75 -5.51 0 0 2.75 -5.5 0 0 2.75 -5.5 0 0 2.75 -2.75 0 0 2.75 -5.51 0 0 2.75 -2.75 0 0 2.76 -5.5 0 0 2.75 -5.5 0 0 2.75 -2.75 0 0 2.75 -5.51 0 0 2.75 -2.75 0 0 2.75 -5.5 0 0 2.75 -2.75 0 0 2.75 -5.5 0 0 2.76 -5.5 0 0 2.75 -2.76 0 0 2.75 -5.5 0 0 2.75 -2.75 0 0 2.75 -5.5 0 0 2.75 -2.76 0 0 2.75 -5.5 0 0 2.76 -2.75 0 0 2.74 -5.5 0 0 2.76 -2.75 0 0 2.75 -5.51 0 0 2.75 -2.75 0 0 2.75 -2.75 0 0 2.75 -5.5 0 0 2.75 -2.75 0 0 2.75 -5.51 0 0 2.76 -2.75 0 0 2.75 -2.75 0 0 2.75 -5.5 0 0 2.75 -2.75 0 0 2.75 -2.75 0 0 2.75 -2.75 0 0 2.76 -2.75 0 0 2.74 -2.76 0 0 2.76 -5.5 0 0 2.75 -2.75 0 0 2.75 -2.75 0 0 2.75 -2.75 0 0 2.75 -2.75 0 0 2.75 -2.76 0 0 2.76 -2.75 0 0 5.5 -2.75 0 0 2.75 -2.75 0 0 2.75 -2.75 0 0 2.75 -2.75 0 0 5.5 -2.76 0 0 2.75 -2.74 0 0 5.51 -2.76 0 0 2.75 -2.75 0 0 5.5 -2.75 0 0 5.5 -2.75 0 0 5.51 -2.75 0 0 8.25 -2.75 0 0 8.25 -2.75 0 0 11.01 -2.76 0 0 11 -2.75 0 0 13.76 -2.75 0 0 74.29 2.75 0 0 19.25 2.75 0 0 22.02 2.76 0 0 11 2.75 0 0 11.01 2.75 0 0 11 2.75 0 0 11.01 2.75 0 0 8.25 2.75 0 0 11.01 2.75 0 0 13.75 2.76 0 0 5.51 2.74 0 0 8.25 2.76 0 0 13.76 2.75 0 0 5.5 2.75 0 0 11 2.75 0 0 8.26 2.75 0 0 8.25 2.75 0 0 8.26 2.76 0 0 8.25 2.75 0 0 5.5 2.75 0 0 8.25 2.75 0 0 5.51 2.75 0 0 8.25 2.75 0 0 11.01 2.75 0 0 22.01 2.76 0 0 38.52 2.75 0 0 35.76 2.75 0 0 46.78 2.75 0 0 52.27 2.75 0 0 77.04 2.75 0 0 74.28 2.75 0 0 46.77 2.75 0 0 22.01 2.75 0 0 41.27 2.76 0 0 27.52 2.75 0 0 27.51 2.75 0 0 16.51 2.75 0 0 27.51 2.75 0 0 16.51 2.75 0 0 13.76 2.75 0 0 27.51 2.75 0 0 13.75 2.76 0 0 16.51 2.75 0 0 22.01 2.75 0 0 11.01 2.75 0 0 19.26 2.75 0 0 22.01 2.75 0 0 16.51 2.75 0 0 13.75 2.76 0 0 24.76 2.75 0 0 24.76 2.75 0 0 24.77 2.75 0 0 13.75 2.75 0 0 44.02 2.75 0 0 33.02 2.76 0 0 44.02 2.74 0 0 30.26 2.76 0 0 30.27 2.75 0 0 24.76 2.75 0 0 24.76 2.75 0 0 16.51 2.75 0 0 11.01 2.75 0 0 13.75 2.75 0 0 5.51 2.76 0 0 11 2.75 0 0 5.5 2.75 0 0 8.26 2.75 0 0 5.5 2.75 0 0 5.5 2.75 0 0 5.51 2.75 0 0 2.75 2.75 0 0 2.75 2.76 0 0 2.75 2.75 0 0 2.75 2.75 0 0 2.75 2.75 0 0 2.75 5.5 0 0 2.75 5.51 0 0 2.76 19.25 0 0 -2.76 8.26 0 0 -2.75 5.5 0 0 -2.75 2.75 0 0 -2.75 2.75 0 0 -2.75 2.76 0 0 -2.75 2.75 0 0 -2.75 2.75 0 0 -2.75 2.75 0 0 -2.76 2.75 0 0 -5.5 2.75 0 0 -2.75 2.75 0 0 -5.5 2.75 0 0 -2.75 2.76 0 0 -5.51 2.75 0 0 -5.5 2.75 0 0 -5.5 2.75 0 0 -5.5 2.75 0 0 -5.51 2.75 0 0 -8.25 2.75 0 0 -5.5 2.76 0 0 -5.51 2.74 0 0 -8.25 2.76 0 0 -8.25 2.75 0 0 -5.51 2.75 0 0 -8.25 2.75 0 0 -11.01 2.75 0 0 -8.25 2.75 0 0 -5.5 2.75 0 0 -11.01 2.76 0 0 -11 2.75 0 0 -5.5 2.75 0 0 -11.01 2.75 0 0 -5.5 2.75 0 0 -11.01 2.75 0 0 -11 2.76 0 0 -11.01 2.74 0 0 -16.51 2.76 0 0 -5.5 2.75 0 0 -11 2.75 0 0 -11.01 2.75 0 0 -16.51 2.75 0 0 -11 2.75 0 0 -8.26 2.75 0 0 -19.26 2.76 0 0 -11 2.75 0 0 -11.01 2.75 0 0 -11 2.75 0 0 -13.76 2.75 0 0 -13.76 2.75 0 0 -13.75 2.75 0 0 -19.26 2.75 0 0 -11 2.76 0 0 -16.51 2.75 0 0 -16.51 2.75 0 0 -22.01 2.75 0 0 -16.51 2.75 0 0 -16.51 2.75 0 0 -16.51 2.75 0 0 -16.5 2.76 0 0 -24.77 2.75 0 0 -35.76 2.75 0 0 -11.01 2.75 0 0 -52.27 2.75 0 0 -33.02 2.75 0 0 -46.77 2.75 0 0 -57.78 2.75 0 0 -57.78 2.76 0 0 -38.51 2.75 0 0 -27.52 2.75 0 0 -46.77 2.75 0 0 -27.51 2.75 0 0 -38.52 2.75 0 0 -19.26 2.75 0 0 -38.52 2.76 0 0 -16.5 2.74 0 0 -35.77 2.76 0 0 -13.76 2.75 0 0 -22.01 2.75 0 0 -16.51 2.75 0 0 -5.5 2.75 0 0 -11 2.75 0 0 -8.26 2.76 0 0 -5.5 2.75 0 0 -8.25 2.75 0 0 -8.26 2.75 0 0 -8.25 2.75 0 0 -8.26 2.75 0 0 -5.5 2.75 0 0 -13.75 2.76 0 0 -5.51 2.75 0 0 -13.75 2.75 0 0 -11.01 2.75 0 0 -8.25 2.75 0 0 -11.01 2.75 0 0 -13.76 2.75 0 0 -13.75 2.75 0 0 -11.01 2.76 0 0 -16.51 2.75 0 0 -24.76 2.75 0 0 -19.26 2.75 0 0 -55.02 -2.75 0 0 -16.51 -2.75 0 0 -16.51 -2.75 0 0 -8.25 -2.76 0 0 -5.5 -2.75 0 0 -8.26 -2.75 0 0 -5.5 -2.75 0 0 -5.5 -2.75 0 0 -2.75 -2.75 0 0 -5.51 -2.75 0 0 -2.75 -2.75 0 0 -5.5 -2.76 0 0 -2.75 -2.75 0 0 -2.75 -2.75 0 0 -5.5 -2.75 0 0 -2.76 -2.75 0 0 -2.75 -2.75 0 0 -2.75 -2.75 0 0 -2.75 -2.76 0 0 -2.75 -5.5 0 0 -2.75 -2.75 0 0 -2.76 -2.75 0 0 -2.74 -2.75 0 0 -2.76 -2.76 0 0 -2.75 -2.74 0 0 -2.75 -5.51 0 0 -2.75 -2.75 0 0 -2.75 -2.75 0 0 -2.75 -5.5 0 0 -2.76 -2.75 0 0 -2.75 -2.76 0 0 -2.75 -5.5 0 0 -2.75 -2.75 0 0 -2.75 -5.5 0 0 -2.75 -2.75 0 0 -2.75 -2.75 0 0 -2.76 -5.51 0 0 -2.74 -2.75 0 0 -2.76 -5.5 0 0 -2.75 -2.75 0 0 -2.75 -2.75 0 0 -2.75 -5.51 0 0 -2.75 -2.75 0 0 -2.75 -5.5 0 0 -2.75 -2.75 0 0 -2.76 -2.75 0 0 -2.75 -5.51 0 0 -2.75 -2.75 0 0 -2.75 -5.5 0 0 -2.75 -2.75 0 0 -2.75 -5.5 0 0 -2.75 -2.76 0 0 -2.75 -2.74 0 0 -2.76 -5.51 0 0 -2.75 -5.5 0 0 -2.75 -2.75 0 0 -2.75 -5.51 0 0 -2.75 -5.5 0 0 -2.75 -5.5 0 0 -2.75 -5.5 0 0 -2.76 -8.26 0 0 -2.75 -11 0 0 -2.75 -35.77 0 0 2.75z"/>
 </g>
</svg>
