<?xml version="1.0" encoding="UTF-8"?>
<!DOCTYPE svg PUBLIC "-//W3C//DTD SVG 1.1//EN" "http://www.w3.org/Graphics/SVG/1.1/DTD/svg11.dtd">
<!-- Creator: CorelDRAW (Versión de evaluación) -->
<svg xmlns="http://www.w3.org/2000/svg" xml:space="preserve" width="739px" height="2458px" version="1.1" style="shape-rendering:geometricPrecision; text-rendering:geometricPrecision; image-rendering:optimizeQuality; fill-rule:evenodd; clip-rule:evenodd"
viewBox="0 0 739 2457.4"
 xmlns:xlink="http://www.w3.org/1999/xlink"
 xmlns:xodm="http://www.corel.com/coreldraw/odm/2003">
 <defs>
  <style type="text/css">
   <![CDATA[
    .str1 {stroke:#FFF212;stroke-width:10;stroke-miterlimit:22.9256}
    .str0 {stroke:#D6D2C8;stroke-width:10;stroke-miterlimit:22.9256}
    .fil1 {fill:#FECB29}
    .fil0 {fill:#F5F1E8}
   ]]>
  </style>
 </defs>
 <g id="tooth-pulpotomy-35">
  <metadata id="CorelCorpID_0Corel-Layer"/>
  <path id="root" class="fil0 str0" d="M507.76 2455.72c-111.82,21.73 -172.82,-173.87 -209.94,-271.91 -120.47,-318.13 -126.85,-541.65 -107.37,-869.25 14.08,-236.76 -45.72,-370.18 -44.57,-451.84 136.29,-21.51 188.93,81.7 265.09,60.73 109.36,-30.1 59.21,-96.17 247.29,-81.94 13.05,653.68 -119.72,934.16 -140.02,1197.48 -18.38,238.28 41.96,338.28 -10.48,416.73z"/>
  <path id="crown" class="fil0 str0" d="M719.53 255.51c23.7,38.34 18.63,153.52 18.52,203.33 -0.24,95.42 -10.93,294.82 -78.59,352.64 -60.02,-0.05 -68.7,-14.39 -135.05,11.72 -146.56,57.68 -64.24,118.44 -236.07,29.88 -64.04,-33.01 -100.51,-18.2 -166.68,-15.78 -73.21,-131.5 -97.56,-306.9 -114.54,-474.59 -7.54,-74.44 -25.93,-208.45 50.24,-238.99 152.14,-60.98 259.35,-182.78 396.22,-90.04 27.91,18.92 52.64,45.31 74.8,68.59 38.68,40.62 181.4,137.48 191.15,153.24z"/>
  <g id="_2015177261792">
   <path class="fil1 str1" d="M554.66 356.35c-53.53,-41.11 -112.26,-77.92 -159.35,-127.38 -12.28,-12.89 -30.19,-33.28 -44.8,-43.18 -0.58,-0.39 -1.26,-0.85 -1.98,-1.31 -16.15,3.98 -47.19,20.81 -58.72,27.03 -36.05,19.43 -70.65,39.09 -106.67,56.91 0.93,26.83 5.12,59.24 6.79,75.78 9.33,92.16 21.73,207.49 51.92,305.8 45.79,4.63 88.45,18 130.67,39.76 1.43,0.73 2.91,1.5 4.41,2.29 23.5,-14.87 48.63,-27.41 80.19,-39.83 28.33,-11.15 55.96,-19.65 84.62,-24.34 9.54,-58.39 12.49,-135.73 12.57,-169.48 0.06,-25.6 2.22,-68.26 0.35,-102.05z"/>
  </g>
 </g>
</svg>
