<?xml version="1.0" encoding="UTF-8"?>
<!DOCTYPE svg PUBLIC "-//W3C//DTD SVG 1.1//EN" "http://www.w3.org/Graphics/SVG/1.1/DTD/svg11.dtd">
<!-- Creator: CorelDRAW (Versión de evaluación) -->
<svg xmlns="http://www.w3.org/2000/svg" xml:space="preserve" width="523px" height="2052px" version="1.1" style="shape-rendering:geometricPrecision; text-rendering:geometricPrecision; image-rendering:optimizeQuality; fill-rule:evenodd; clip-rule:evenodd"
viewBox="0 0 523 2052.74"
 xmlns:xlink="http://www.w3.org/1999/xlink"
 xmlns:xodm="http://www.corel.com/coreldraw/odm/2003">
 <defs>
  <style type="text/css">
   <![CDATA[
    .fil4 {fill:#4B4B4D}
    .fil1 {fill:#FFCC29}
    .fil3 {fill:#EECEE2}
    .fil2 {fill:#F3EDD9}
    .fil0 {fill:#F8FBFF}
   ]]>
  </style>
 </defs>
 <g id="pulpotomy">
  <metadata id="CorelCorpID_0Corel-Layer"/>
  <polygon id="crown" class="fil0" points="263.73,1164.83 283,1164.83 283,1167.58 291.25,1167.58 291.25,1170.33 299.51,1170.33 299.51,1173.08 305.02,1173.08 305.02,1175.84 310.52,1175.84 310.52,1178.59 316.03,1178.59 316.03,1181.34 321.53,1181.34 321.53,1184.09 327.04,1184.09 327.04,1186.85 329.79,1186.85 329.79,1189.6 335.3,1189.6 335.3,1192.35 338.05,1192.35 338.05,1195.11 340.8,1195.11 340.8,1197.86 343.56,1197.86 343.56,1200.61 349.06,1200.61 349.06,1203.36 351.81,1203.36 351.81,1206.11 354.56,1206.11 354.56,1208.87 357.32,1208.87 357.32,1211.62 360.07,1211.62 360.07,1214.37 362.82,1214.37 362.82,1219.88 365.57,1219.88 365.57,1222.63 368.33,1222.63 368.33,1225.38 371.08,1225.38 371.08,1228.14 373.83,1228.14 373.83,1230.89 376.59,1230.89 376.59,1233.64 379.34,1233.64 379.34,1239.15 382.09,1239.15 382.09,1241.9 384.84,1241.9 384.84,1244.65 387.59,1244.65 387.59,1250.16 390.35,1250.16 390.35,1252.91 393.1,1252.91 393.1,1258.42 395.85,1258.42 395.85,1261.17 398.61,1261.17 398.61,1266.67 401.36,1266.67 401.36,1272.18 404.11,1272.18 404.11,1274.93 406.87,1274.93 406.87,1280.44 409.62,1280.44 409.62,1285.94 412.37,1285.94 412.37,1291.45 415.12,1291.45 415.12,1296.95 417.88,1296.95 417.88,1302.46 420.63,1302.46 420.63,1307.96 423.38,1307.96 423.38,1313.47 426.13,1313.47 426.13,1321.73 428.88,1321.73 428.88,1327.23 431.64,1327.23 431.64,1332.74 434.39,1332.74 434.39,1340.99 437.14,1340.99 437.14,1349.25 439.9,1349.25 439.9,1354.76 442.65,1354.76 442.65,1363.01 445.4,1363.01 445.4,1371.27 448.15,1371.27 448.15,1379.53 450.91,1379.53 450.91,1385.04 453.66,1385.04 453.66,1396.05 456.41,1396.05 456.41,1407.06 459.17,1407.06 459.17,1412.56 461.92,1412.56 461.92,1423.57 464.67,1423.57 464.67,1431.83 467.42,1431.83 467.42,1440.09 470.17,1440.09 470.17,1456.6 472.93,1456.6 472.93,1467.62 475.68,1467.62 475.68,1478.62 478.43,1478.62 478.43,1486.88 481.19,1486.88 481.19,1503.4 483.94,1503.4 483.94,1519.91 486.69,1519.91 486.69,1539.18 489.44,1539.18 489.44,1555.7 492.2,1555.7 492.2,1583.23 494.95,1583.23 494.95,1621.76 497.7,1621.76 497.7,1687.83 494.95,1687.83 494.95,1712.6 492.2,1712.6 492.2,1726.36 489.44,1726.36 489.44,1731.86 486.69,1731.86 486.69,1740.12 483.94,1740.12 483.94,1748.38 481.19,1748.38 481.19,1753.89 478.43,1753.89 478.43,1756.64 475.68,1756.64 475.68,1762.15 472.93,1762.15 472.93,1764.9 470.17,1764.9 470.17,1767.65 467.42,1767.65 467.42,1770.4 464.67,1770.4 464.67,1773.15 459.17,1773.15 459.17,1775.91 456.41,1775.91 456.41,1778.66 453.66,1778.66 453.66,1781.41 448.15,1781.41 448.15,1784.17 442.65,1784.17 442.65,1786.92 437.14,1786.92 437.14,1789.67 431.64,1789.67 431.64,1792.42 426.13,1792.42 426.13,1795.18 412.37,1795.18 412.37,1797.93 404.11,1797.93 404.11,1800.68 393.1,1800.68 393.1,1803.44 373.83,1803.44 373.83,1806.19 357.32,1806.19 357.32,1808.94 332.54,1808.94 332.54,1811.69 307.77,1811.69 307.77,1814.44 137.11,1814.44 137.11,1811.69 112.33,1811.69 112.33,1808.94 87.56,1808.94 87.56,1806.19 79.3,1806.19 79.3,1803.44 68.29,1803.44 68.29,1800.68 62.79,1800.68 62.79,1797.93 57.28,1797.93 57.28,1795.18 51.78,1795.18 51.78,1792.42 49.02,1792.42 49.02,1789.67 46.27,1789.67 46.27,1786.92 40.76,1786.92 40.76,1781.41 38.01,1781.41 38.01,1778.66 35.26,1778.66 35.26,1773.15 32.51,1773.15 32.51,1767.65 29.76,1767.65 29.76,1756.64 27,1756.64 27,1751.14 24.25,1751.14 24.25,1712.6 21.5,1712.6 21.5,1630.02 24.25,1630.02 24.25,1588.73 27,1588.73 27,1552.95 29.76,1552.95 29.76,1506.15 32.51,1506.15 32.51,1484.13 35.26,1484.13 35.26,1456.6 38.01,1456.6 38.01,1442.84 40.76,1442.84 40.76,1423.57 43.52,1423.57 43.52,1404.3 46.27,1404.3 46.27,1396.05 49.02,1396.05 49.02,1379.53 51.78,1379.53 51.78,1368.52 54.53,1368.52 54.53,1354.76 57.28,1354.76 57.28,1346.5 60.03,1346.5 60.03,1340.99 62.79,1340.99 62.79,1329.98 65.54,1329.98 65.54,1321.73 68.29,1321.73 68.29,1313.47 71.05,1313.47 71.05,1307.96 73.8,1307.96 73.8,1302.46 76.55,1302.46 76.55,1294.2 79.3,1294.2 79.3,1288.69 82.05,1288.69 82.05,1283.19 84.81,1283.19 84.81,1277.68 87.56,1277.68 87.56,1272.18 90.31,1272.18 90.31,1266.67 93.07,1266.67 93.07,1261.17 95.82,1261.17 95.82,1258.42 98.57,1258.42 98.57,1252.91 101.32,1252.91 101.32,1250.16 104.08,1250.16 104.08,1244.65 106.83,1244.65 106.83,1241.9 109.58,1241.9 109.58,1239.15 112.33,1239.15 112.33,1236.4 115.09,1236.4 115.09,1230.89 117.84,1230.89 117.84,1228.14 120.59,1228.14 120.59,1225.38 123.34,1225.38 123.34,1222.63 126.1,1222.63 126.1,1219.88 128.85,1219.88 128.85,1217.13 131.6,1217.13 131.6,1214.37 134.35,1214.37 134.35,1211.62 137.11,1211.62 137.11,1208.87 139.86,1208.87 139.86,1206.11 142.61,1206.11 142.61,1203.36 145.37,1203.36 145.37,1200.61 148.12,1200.61 148.12,1197.86 153.62,1197.86 153.62,1195.11 156.37,1195.11 156.37,1192.35 159.13,1192.35 159.13,1189.6 164.63,1189.6 164.63,1186.85 167.39,1186.85 167.39,1184.09 172.89,1184.09 172.89,1181.34 178.4,1181.34 178.4,1178.59 183.9,1178.59 183.9,1175.84 189.41,1175.84 189.41,1173.08 197.66,1173.08 197.66,1170.33 203.17,1170.33 203.17,1167.58 216.93,1167.58 216.93,1164.83 230.7,1164.83 230.7,1162.07 263.73,1162.07 "/>
  <g id="_2327755914816">
   <polygon class="fil1" points="248.74,1262.39 245.68,1262.39 245.68,1265.15 242.93,1265.15 242.93,1267.9 237.43,1267.9 237.43,1270.65 234.67,1270.65 234.67,1273.4 231.92,1273.4 231.92,1276.15 226.41,1276.15 226.41,1278.91 223.66,1278.91 223.66,1281.66 220.91,1281.66 220.91,1284.41 218.16,1284.41 218.16,1287.17 215.41,1287.17 215.41,1289.92 212.65,1289.92 212.65,1292.67 209.9,1292.67 209.9,1295.42 207.15,1295.42 207.15,1298.18 204.4,1298.18 204.4,1300.93 201.64,1300.93 201.64,1303.68 198.89,1303.68 198.89,1306.44 196.14,1306.44 196.14,1309.19 193.38,1309.19 193.38,1314.69 190.63,1314.69 190.63,1317.44 187.88,1317.44 187.88,1320.2 185.12,1320.2 185.12,1322.95 182.37,1322.95 182.37,1328.46 179.62,1328.46 179.62,1331.21 176.87,1331.21 176.87,1336.71 174.12,1336.71 174.12,1339.47 171.36,1339.47 171.36,1344.97 168.61,1344.97 168.61,1350.48 165.86,1350.48 165.86,1355.98 163.1,1355.98 163.1,1361.49 160.35,1361.49 160.35,1366.99 157.6,1366.99 157.6,1372.5 154.85,1372.5 154.85,1380.76 152.09,1380.76 152.09,1386.26 149.34,1386.26 149.34,1391.76 146.59,1391.76 146.59,1400.02 143.84,1400.02 143.84,1408.28 141.09,1408.28 141.09,1419.29 138.33,1419.29 138.33,1424.8 135.58,1424.8 135.58,1433.05 132.83,1433.05 132.83,1446.82 130.07,1446.82 130.07,1457.83 127.32,1457.83 127.32,1474.34 124.57,1474.34 124.57,1482.6 121.82,1482.6 121.82,1501.87 119.06,1501.87 119.06,1521.14 116.31,1521.14 116.31,1534.9 113.56,1534.9 113.56,1562.43 110.8,1562.43 110.8,1584.45 108.05,1584.45 108.05,1631.24 105.3,1631.24 105.3,1667.03 102.55,1667.03 102.55,1672.84 105.3,1672.84 105.3,1678.34 108.05,1678.34 108.05,1689.35 110.8,1689.35 110.8,1694.86 113.56,1694.86 113.56,1700.36 116.31,1700.36 116.31,1703.11 119.06,1703.11 119.06,1708.62 124.57,1708.62 124.57,1711.37 127.32,1711.37 127.32,1714.13 130.07,1714.13 130.07,1716.88 135.58,1716.88 135.58,1719.63 141.09,1719.63 141.09,1722.38 146.59,1722.38 146.59,1725.14 157.6,1725.14 157.6,1727.89 165.86,1727.89 165.86,1730.64 190.63,1730.64 190.63,1733.4 215.41,1733.4 215.41,1736.15 229.47,1736.15 229.47,1733.4 254.25,1733.4 254.25,1730.64 279.02,1730.64 279.02,1727.89 295.54,1727.89 295.54,1725.14 314.8,1725.14 314.8,1722.38 325.81,1722.38 325.81,1719.63 334.07,1719.63 334.07,1716.88 347.84,1716.88 347.84,1714.13 353.34,1714.13 353.34,1711.37 358.84,1711.37 358.84,1708.62 364.35,1708.62 364.35,1705.87 369.86,1705.87 369.86,1703.11 375.36,1703.11 375.36,1700.36 378.11,1700.36 378.11,1697.61 380.87,1697.61 380.87,1694.86 386.37,1694.86 386.37,1692.11 389.13,1692.11 389.13,1689.35 391.88,1689.35 391.88,1686.6 394.63,1686.6 394.63,1683.85 397.38,1683.85 397.38,1678.34 400.13,1678.34 400.13,1675.59 402.89,1675.59 402.89,1670.08 405.64,1670.08 405.64,1661.83 408.39,1661.83 408.39,1653.57 411.15,1653.57 411.15,1648.06 413.9,1648.06 413.9,1634 411.15,1634 411.15,1617.48 408.39,1617.48 408.39,1598.21 405.64,1598.21 405.64,1581.7 402.89,1581.7 402.89,1565.18 400.13,1565.18 400.13,1556.92 397.38,1556.92 397.38,1545.91 394.63,1545.91 394.63,1534.9 391.88,1534.9 391.88,1518.39 389.13,1518.39 389.13,1510.13 386.37,1510.13 386.37,1501.87 383.62,1501.87 383.62,1490.86 380.87,1490.86 380.87,1485.36 378.11,1485.36 378.11,1474.34 375.36,1474.34 375.36,1463.34 372.61,1463.34 372.61,1457.83 369.86,1457.83 369.86,1449.57 367.1,1449.57 367.1,1441.31 364.35,1441.31 364.35,1433.05 361.6,1433.05 361.6,1427.55 358.84,1427.55 358.84,1419.29 356.09,1419.29 356.09,1411.03 353.34,1411.03 353.34,1405.53 350.59,1405.53 350.59,1400.02 347.84,1400.02 347.84,1391.76 345.08,1391.76 345.08,1386.26 342.33,1386.26 342.33,1380.76 339.58,1380.76 339.58,1375.25 336.82,1375.25 336.82,1369.74 334.07,1369.74 334.07,1364.24 331.32,1364.24 331.32,1358.73 328.57,1358.73 328.57,1353.23 325.81,1353.23 325.81,1350.48 323.06,1350.48 323.06,1344.97 320.31,1344.97 320.31,1339.47 317.56,1339.47 317.56,1336.71 314.8,1336.71 314.8,1331.21 312.05,1331.21 312.05,1328.46 309.3,1328.46 309.3,1322.95 306.55,1322.95 306.55,1320.2 303.79,1320.2 303.79,1317.44 301.04,1317.44 301.04,1311.94 298.29,1311.94 298.29,1309.19 295.54,1309.19 295.54,1306.44 292.78,1306.44 292.78,1303.68 290.03,1303.68 290.03,1300.93 287.28,1300.93 287.28,1298.18 284.52,1298.18 284.52,1292.67 281.77,1292.67 281.77,1289.92 279.02,1289.92 279.02,1287.17 276.27,1287.17 276.27,1284.41 273.52,1284.41 273.52,1281.66 270.76,1281.66 270.76,1278.91 265.26,1278.91 265.26,1276.15 262.5,1276.15 262.5,1273.4 259.75,1273.4 259.75,1270.65 257,1270.65 257,1267.9 251.49,1267.9 251.49,1265.15 248.74,1265.15 "/>
  </g>
  <polygon id="root" class="fil2" points="252.72,245.45 258.22,245.45 258.22,250.95 260.98,250.95 260.98,253.71 263.73,253.71 263.73,259.21 266.48,259.21 266.48,264.72 269.23,264.72 269.23,270.22 271.98,270.22 271.98,278.48 274.74,278.48 274.74,289.49 277.49,289.49 277.49,306.01 280.24,306.01 280.24,322.52 283,322.52 283,339.04 285.75,339.04 285.75,372.07 288.5,372.07 288.5,399.6 291.25,399.6 291.25,418.87 294.01,418.87 294.01,451.9 296.76,451.9 296.76,468.41 299.51,468.41 299.51,490.43 302.27,490.43 302.27,509.7 305.02,509.7 305.02,526.22 307.77,526.22 307.77,542.73 310.52,542.73 310.52,559.25 313.27,559.25 313.27,578.52 316.03,578.52 316.03,603.29 318.78,603.29 318.78,617.06 321.53,617.06 321.53,630.82 324.29,630.82 324.29,641.83 327.04,641.83 327.04,655.59 329.79,655.59 329.79,666.6 332.54,666.6 332.54,685.87 335.3,685.87 335.3,696.88 338.05,696.88 338.05,710.65 340.8,710.65 340.8,718.9 343.56,718.9 343.56,729.91 346.31,729.91 346.31,746.43 349.06,746.43 349.06,757.44 351.81,757.44 351.81,779.46 354.56,779.46 354.56,787.72 357.32,787.72 357.32,806.99 360.07,806.99 360.07,829.01 362.82,829.01 362.82,842.77 365.57,842.77 365.57,862.04 368.33,862.04 368.33,884.06 371.08,884.06 371.08,900.58 373.83,900.58 373.83,922.6 376.59,922.6 376.59,947.37 379.34,947.37 379.34,974.89 382.09,974.89 382.09,1010.68 384.84,1010.68 384.84,1040.96 387.59,1040.96 387.59,1071.24 390.35,1071.24 390.35,1104.27 393.1,1104.27 393.1,1129.04 395.85,1129.04 395.85,1153.82 398.61,1153.82 398.61,1181.34 401.36,1181.34 401.36,1192.35 404.11,1192.35 404.11,1208.87 406.87,1208.87 406.87,1228.14 409.62,1228.14 409.62,1233.64 406.87,1233.64 406.87,1230.89 404.11,1230.89 404.11,1228.14 401.36,1228.14 401.36,1225.38 398.61,1225.38 398.61,1219.88 395.85,1219.88 395.85,1217.13 393.1,1217.13 393.1,1214.37 390.35,1214.37 390.35,1208.87 387.59,1208.87 387.59,1206.11 384.84,1206.11 384.84,1203.36 382.09,1203.36 382.09,1200.61 379.34,1200.61 379.34,1197.86 376.59,1197.86 376.59,1195.11 373.83,1195.11 373.83,1192.35 371.08,1192.35 371.08,1189.6 368.33,1189.6 368.33,1186.85 365.57,1186.85 365.57,1184.09 362.82,1184.09 362.82,1181.34 360.07,1181.34 360.07,1178.59 357.32,1178.59 357.32,1175.84 351.81,1175.84 351.81,1173.08 349.06,1173.08 349.06,1170.33 346.31,1170.33 346.31,1167.58 340.8,1167.58 340.8,1164.83 335.3,1164.83 335.3,1162.07 332.54,1162.07 332.54,1159.32 327.04,1159.32 327.04,1156.57 321.53,1156.57 321.53,1153.82 316.03,1153.82 316.03,1151.06 307.77,1151.06 307.77,1148.31 302.27,1148.31 302.27,1145.56 294.01,1145.56 294.01,1142.81 283,1142.81 283,1140.05 222.44,1140.05 222.44,1142.81 205.92,1142.81 205.92,1145.56 197.66,1145.56 197.66,1148.31 186.66,1148.31 186.66,1151.06 178.4,1151.06 178.4,1153.82 175.64,1153.82 175.64,1156.57 170.14,1156.57 170.14,1159.32 164.63,1159.32 164.63,1162.07 159.13,1162.07 159.13,1164.83 153.62,1164.83 153.62,1167.58 150.87,1167.58 150.87,1170.33 145.37,1170.33 145.37,1173.08 142.61,1173.08 142.61,1175.84 137.11,1175.84 137.11,1178.59 134.35,1178.59 134.35,1181.34 131.6,1181.34 131.6,1184.09 128.85,1184.09 128.85,1186.85 123.34,1186.85 123.34,1192.35 117.84,1192.35 117.84,1195.11 115.09,1195.11 115.09,1197.86 112.33,1197.86 112.33,1200.61 109.58,1200.61 109.58,1203.36 106.83,1203.36 106.83,1208.87 104.08,1208.87 104.08,1211.62 101.32,1211.62 101.32,1214.37 98.57,1214.37 98.57,1217.13 95.82,1217.13 95.82,1222.63 93.07,1222.63 93.07,1225.38 90.31,1225.38 90.31,1228.14 87.56,1228.14 87.56,1230.89 84.81,1230.89 84.81,1236.4 82.05,1236.4 82.05,1239.15 79.3,1239.15 79.3,1244.65 76.55,1244.65 76.55,1219.88 79.3,1219.88 79.3,1203.36 82.05,1203.36 82.05,1173.08 84.81,1173.08 84.81,1151.06 87.56,1151.06 87.56,1131.79 90.31,1131.79 90.31,1104.27 93.07,1104.27 93.07,1065.73 95.82,1065.73 95.82,1038.21 98.57,1038.21 98.57,991.41 101.32,991.41 101.32,963.89 104.08,963.89 104.08,930.85 106.83,930.85 106.83,897.82 109.58,897.82 109.58,840.02 112.33,840.02 112.33,801.48 115.09,801.48 115.09,776.71 117.84,776.71 117.84,751.93 120.59,751.93 120.59,718.9 123.34,718.9 123.34,691.38 126.1,691.38 126.1,672.11 128.85,672.11 128.85,641.83 131.6,641.83 131.6,617.06 134.35,617.06 134.35,603.29 137.11,603.29 137.11,589.53 139.86,589.53 139.86,564.75 142.61,564.75 142.61,550.99 145.37,550.99 145.37,537.23 148.12,537.23 148.12,520.71 150.87,520.71 150.87,512.46 153.62,512.46 153.62,495.94 156.37,495.94 156.37,476.67 159.13,476.67 159.13,468.41 161.88,468.41 161.88,454.65 164.63,454.65 164.63,435.38 167.39,435.38 167.39,427.12 170.14,427.12 170.14,413.36 172.89,413.36 172.89,396.85 175.64,396.85 175.64,383.08 178.4,383.08 178.4,372.07 181.15,372.07 181.15,363.82 183.9,363.82 183.9,350.05 186.66,350.05 186.66,341.79 189.41,341.79 189.41,333.53 192.16,333.53 192.16,319.77 194.91,319.77 194.91,311.51 197.66,311.51 197.66,306.01 200.42,306.01 200.42,297.75 203.17,297.75 203.17,292.24 205.92,292.24 205.92,283.99 208.68,283.99 208.68,278.48 211.43,278.48 211.43,272.98 214.18,272.98 214.18,270.22 216.93,270.22 216.93,264.72 219.69,264.72 219.69,259.21 222.44,259.21 222.44,256.46 225.19,256.46 225.19,253.71 227.94,253.71 227.94,250.95 230.7,250.95 230.7,248.2 233.45,248.2 233.45,245.45 236.2,245.45 236.2,242.7 252.72,242.7 "/>
  <g id="_2327755916592">
   <polygon class="fil3" points="228.46,547.72 227.43,547.72 227.43,566.99 224.68,566.99 224.68,583.51 221.92,583.51 221.92,591.77 219.17,591.77 219.17,608.28 216.42,608.28 216.42,622.04 213.66,622.04 213.66,635.81 210.91,635.81 210.91,660.58 208.16,660.58 208.16,674.34 205.41,674.34 205.41,688.11 202.65,688.11 202.65,712.88 199.9,712.88 199.9,743.16 197.15,743.16 197.15,762.43 194.39,762.43 194.39,789.95 191.64,789.95 191.64,822.99 188.89,822.99 188.89,847.76 186.14,847.76 186.14,872.53 183.39,872.53 183.39,911.07 180.63,911.07 180.63,968.87 177.88,968.87 177.88,1001.91 175.13,1001.91 175.13,1034.94 172.37,1034.94 172.37,1062.46 169.62,1062.46 169.62,1069 311.04,1069 311.04,1045.95 308.29,1045.95 308.29,1018.42 305.54,1018.42 305.54,993.65 302.78,993.65 302.78,971.63 300.03,971.63 300.03,955.11 297.28,955.11 297.28,933.09 294.52,933.09 294.52,913.82 291.77,913.82 291.77,900.06 289.02,900.06 289.02,878.04 286.27,878.04 286.27,858.77 283.51,858.77 283.51,850.51 280.76,850.51 280.76,828.49 278.01,828.49 278.01,817.48 275.25,817.48 275.25,800.96 272.5,800.96 272.5,789.95 269.75,789.95 269.75,781.7 267,781.7 267,767.93 264.25,767.93 264.25,756.92 261.49,756.92 261.49,737.65 258.74,737.65 258.74,726.64 255.99,726.64 255.99,712.88 253.23,712.88 253.23,701.87 250.48,701.87 250.48,688.11 247.73,688.11 247.73,674.34 244.98,674.34 244.98,649.57 242.22,649.57 242.22,630.3 239.47,630.3 239.47,613.79 236.72,613.79 236.72,597.27 233.97,597.27 233.97,580.75 231.21,580.75 231.21,561.48 228.46,561.48 "/>
  </g>
  <path id="outline" class="fil4" d="M497.7 1621.76l-2.75 0 0 -38.53 -2.75 0 0 -27.53 -2.76 0 0 -16.52 -2.75 0 0 -19.27 -2.75 0 0 -16.51 -2.75 0 0 -16.52 -2.76 0 0 -8.26 -2.75 0 0 -11 -2.75 0 0 -11.02 -2.76 0 0 -16.51 -2.75 0 0 -8.26 -2.75 0 0 -8.26 -2.75 0 0 -11.01 -2.75 0 0 -5.5 -2.76 0 0 -11.01 -2.75 0 0 -11.01 -2.75 0 0 -5.51 -2.76 0 0 -8.26 -2.75 0 0 -8.26 -2.75 0 0 -8.25 -2.75 0 0 -5.51 -2.76 0 0 -8.26 -2.75 0 0 -8.25 -2.75 0 0 -5.51 -2.76 0 0 -5.5 -2.75 0 0 -8.26 -2.75 0 0 -5.51 -2.75 0 0 -5.5 -2.75 0 0 -5.51 -2.76 0 0 -5.5 -2.75 0 0 -5.51 -2.75 0 0 -5.5 -2.75 0 0 -5.51 -2.76 0 0 -2.75 -2.75 0 0 -5.51 -2.75 0 0 -5.5 -2.76 0 0 -2.75 -2.75 0 0 -5.51 -2.75 0 0 -2.75 -2.76 0 0 -5.51 -2.75 0 0 -2.75 -2.75 0 0 -2.75 -2.75 0 0 -5.51 -2.75 0 0 -2.75 -2.76 0 0 -2.75 -2.75 0 0 -2.76 -2.75 0 0 -2.75 -2.76 0 0 -2.75 -2.75 0 0 -5.51 -2.75 0 0 -2.75 -2.75 0 0 -2.75 -2.76 0 0 -2.76 -2.75 0 0 -2.75 -2.75 0 0 -2.75 -5.5 0 0 -2.75 -2.76 0 0 -2.75 -2.75 0 0 -2.76 -2.75 0 0 -2.75 -5.51 0 0 -2.75 -2.75 0 0 -2.76 -5.51 0 0 -2.75 -5.5 0 0 -2.75 -5.51 0 0 -2.75 -5.5 0 0 -2.76 -5.51 0 0 -2.75 -8.26 0 0 -2.75 -8.25 0 0 -2.75 -19.27 0 0 -2.76 -33.03 0 0 2.76 -13.77 0 0 2.75 -13.76 0 0 2.75 -5.51 0 0 2.75 -8.25 0 0 2.76 -5.51 0 0 2.75 -5.5 0 0 2.75 -5.51 0 0 2.75 -5.5 0 0 2.76 -2.76 0 0 2.75 -5.5 0 0 2.75 -2.76 0 0 2.76 -2.75 0 0 2.75 -5.5 0 0 2.75 -2.75 0 0 2.75 -2.76 0 0 2.75 -2.75 0 0 2.76 -2.75 0 0 2.75 -2.76 0 0 2.75 -2.75 0 0 2.76 -2.75 0 0 2.75 -2.75 0 0 2.75 -2.76 0 0 2.75 -2.75 0 0 2.76 -2.75 0 0 2.75 -2.75 0 0 5.51 -2.76 0 0 2.75 -2.75 0 0 2.75 -2.75 0 0 2.75 -2.75 0 0 5.51 -2.76 0 0 2.75 -2.75 0 0 5.51 -2.75 0 0 2.75 -2.75 0 0 5.5 -2.76 0 0 5.51 -2.75 0 0 5.5 -2.75 0 0 5.51 -2.76 0 0 5.5 -2.75 0 0 5.51 -2.75 0 0 8.26 -2.75 0 0 5.5 -2.75 0 0 5.51 -2.76 0 0 8.26 -2.75 0 0 8.25 -2.75 0 0 11.01 -2.76 0 0 5.51 -2.75 0 0 8.26 -2.75 0 0 13.76 -2.75 0 0 11.01 -2.76 0 0 16.52 -2.75 0 0 8.25 -2.75 0 0 19.27 -2.76 0 0 19.27 -2.75 0 0 13.76 -2.75 0 0 27.53 -2.75 0 0 22.02 -2.75 0 0 46.8 -2.76 0 0 35.78 -2.75 0 0 41.29 -2.75 0 0 82.58 2.75 0 0 38.54 2.75 0 0 5.5 2.76 0 0 11.01 2.75 0 0 5.5 2.75 0 0 5.51 2.75 0 0 2.75 2.75 0 0 5.51 5.51 0 0 2.75 2.75 0 0 2.75 2.76 0 0 2.76 5.5 0 0 2.75 5.51 0 0 2.75 5.5 0 0 2.76 11.01 0 0 2.75 8.26 0 0 2.75 24.77 0 0 2.75 24.78 0 0 2.75 170.66 0 0 -2.75 24.77 0 0 -2.75 24.78 0 0 -2.75 16.51 0 0 -2.75 19.27 0 0 -2.76 11.01 0 0 -2.75 8.26 0 0 -2.75 13.76 0 0 -2.76 5.51 0 0 -2.75 5.5 0 0 -2.75 5.51 0 0 -2.75 5.5 0 0 -2.76 5.51 0 0 -2.75 2.75 0 0 -2.75 2.76 0 0 -2.76 5.5 0 0 -2.75 2.75 0 0 -2.75 2.75 0 0 -2.75 2.76 0 0 -2.75 2.75 0 0 -5.51 2.75 0 0 -2.75 2.76 0 0 -5.51 2.75 0 0 -8.26 2.75 0 0 -8.26 2.75 0 0 -5.5 2.76 0 0 -13.76 2.75 0 0 -24.77 2.75 0 0 -66.07zm-214.7 -478.95l11.01 0 0 2.75 8.26 0 0 2.75 5.5 0 0 2.75 8.26 0 0 2.76 5.5 0 0 2.75 5.51 0 0 2.75 5.5 0 0 2.75 2.76 0 0 2.76 5.5 0 0 2.75 5.51 0 0 2.75 2.75 0 0 2.75 2.75 0 0 2.76 5.51 0 0 2.75 2.75 0 0 2.75 2.75 0 0 2.75 2.75 0 0 2.76 2.76 0 0 2.75 2.75 0 0 2.75 2.75 0 0 2.76 2.76 0 0 2.75 2.75 0 0 2.75 2.75 0 0 2.75 2.75 0 0 2.75 2.75 0 0 2.76 2.76 0 0 5.5 2.75 0 0 2.76 2.75 0 0 2.75 2.76 0 0 5.5 2.75 0 0 2.76 2.75 0 0 2.75 2.76 0 0 2.75 2.75 0 0 -5.5 -2.75 0 0 -19.27 -2.76 0 0 -16.52 -2.75 0 0 -11.01 -2.75 0 0 -27.52 -2.76 0 0 -24.78 -2.75 0 0 -24.77 -2.75 0 0 -33.03 -2.76 0 0 -30.28 -2.75 0 0 -30.28 -2.75 0 0 -35.79 -2.75 0 0 -27.52 -2.75 0 0 -24.77 -2.76 0 0 -22.02 -2.75 0 0 -16.52 -2.75 0 0 -22.02 -2.76 0 0 -19.27 -2.75 0 0 -13.76 -2.75 0 0 -22.02 -2.75 0 0 -19.27 -2.76 0 0 -8.26 -2.75 0 0 -22.02 -2.75 0 0 -11.01 -2.75 0 0 -16.52 -2.75 0 0 -11.01 -2.76 0 0 -8.25 -2.75 0 0 -13.77 -2.75 0 0 -11.01 -2.76 0 0 -19.27 -2.75 0 0 -11.01 -2.75 0 0 -13.76 -2.75 0 0 -11.01 -2.76 0 0 -13.76 -2.75 0 0 -13.77 -2.75 0 0 -24.77 -2.76 0 0 -19.27 -2.75 0 0 -16.52 -2.75 0 0 -16.51 -2.75 0 0 -16.52 -2.75 0 0 -19.27 -2.76 0 0 -22.02 -2.75 0 0 -16.51 -2.75 0 0 -33.03 -2.76 0 0 -19.27 -2.75 0 0 -27.53 -2.75 0 0 -33.03 -2.75 0 0 -16.52 -2.76 0 0 -16.51 -2.75 0 0 -16.52 -2.75 0 0 -11.01 -2.76 0 0 -8.26 -2.75 0 0 -5.5 -2.75 0 0 -5.51 -2.75 0 0 -5.5 -2.75 0 0 -2.76 -2.76 0 0 -5.5 -5.5 0 0 -2.75 -16.52 0 0 2.75 -2.75 0 0 2.75 -2.75 0 0 2.75 -2.76 0 0 2.76 -2.75 0 0 2.75 -2.75 0 0 2.75 -2.75 0 0 5.51 -2.76 0 0 5.5 -2.75 0 0 2.76 -2.75 0 0 5.5 -2.75 0 0 5.51 -2.76 0 0 8.25 -2.75 0 0 5.51 -2.75 0 0 8.26 -2.76 0 0 5.5 -2.75 0 0 8.26 -2.75 0 0 13.76 -2.75 0 0 8.26 -2.75 0 0 8.26 -2.76 0 0 13.77 -2.75 0 0 8.25 -2.75 0 0 11.01 -2.76 0 0 13.77 -2.75 0 0 16.51 -2.75 0 0 13.76 -2.75 0 0 8.26 -2.76 0 0 19.27 -2.75 0 0 13.76 -2.75 0 0 8.26 -2.76 0 0 19.27 -2.75 0 0 16.52 -2.75 0 0 8.25 -2.75 0 0 16.52 -2.75 0 0 13.76 -2.76 0 0 13.76 -2.75 0 0 24.78 -2.75 0 0 13.76 -2.76 0 0 13.77 -2.75 0 0 24.77 -2.75 0 0 30.28 -2.75 0 0 19.27 -2.76 0 0 27.52 -2.75 0 0 33.03 -2.75 0 0 24.78 -2.75 0 0 24.77 -2.76 0 0 38.54 -2.75 0 0 57.8 -2.75 0 0 33.03 -2.75 0 0 33.04 -2.76 0 0 27.52 -2.75 0 0 46.8 -2.75 0 0 27.52 -2.75 0 0 38.54 -2.76 0 0 27.52 -2.75 0 0 19.27 -2.75 0 0 22.02 -2.76 0 0 30.28 -2.75 0 0 16.52 -2.75 0 0 24.77 2.75 0 0 -5.5 2.75 0 0 -2.75 2.76 0 0 -5.51 2.75 0 0 -2.75 2.75 0 0 -2.76 2.76 0 0 -2.75 2.75 0 0 -5.5 2.75 0 0 -2.76 2.75 0 0 -2.75 2.76 0 0 -2.75 2.75 0 0 -5.51 2.75 0 0 -2.75 2.75 0 0 -2.75 2.76 0 0 -2.75 2.75 0 0 -2.76 5.5 0 0 -5.5 5.51 0 0 -2.76 2.75 0 0 -2.75 2.75 0 0 -2.75 2.76 0 0 -2.75 5.5 0 0 -2.76 2.76 0 0 -2.75 5.5 0 0 -2.75 2.75 0 0 -2.75 5.51 0 0 -2.76 5.5 0 0 -2.75 5.51 0 0 -2.75 5.5 0 0 -2.75 2.76 0 0 -2.76 8.26 0 0 -2.75 11 0 0 -2.75 8.26 0 0 -2.75 16.52 0 0 -2.76 60.56 0 0 2.76zm-27.53 -924.88l5.51 0 0 2.75 5.5 0 0 2.75 2.75 0 0 2.75 2.75 0 0 2.75 2.76 0 0 2.76 2.75 0 0 2.75 2.75 0 0 5.51 2.76 0 0 5.5 2.75 0 0 5.5 2.75 0 0 5.51 2.75 0 0 5.51 2.76 0 0 8.25 2.75 0 0 13.77 2.75 0 0 13.76 2.76 0 0 13.76 2.75 0 0 11.01 2.75 0 0 33.04 2.75 0 0 19.26 2.75 0 0 27.53 2.76 0 0 22.02 2.75 0 0 35.79 2.75 0 0 8.25 2.76 0 0 24.78 2.75 0 0 19.27 2.75 0 0 16.51 2.75 0 0 19.27 2.76 0 0 24.77 2.75 0 0 13.77 2.75 0 0 13.76 2.76 0 0 13.76 2.75 0 0 11.01 2.75 0 0 19.27 2.75 0 0 16.52 2.75 0 0 11.01 2.76 0 0 16.51 2.75 0 0 11.01 2.75 0 0 16.52 2.75 0 0 8.26 2.76 0 0 11.01 2.75 0 0 13.76 2.75 0 0 13.76 2.76 0 0 13.77 2.75 0 0 11.01 2.75 0 0 22.02 2.75 0 0 19.27 2.75 0 0 19.27 2.76 0 0 19.27 2.75 0 0 13.76 2.75 0 0 33.03 2.76 0 0 16.51 2.75 0 0 30.28 2.75 0 0 24.78 2.76 0 0 38.53 2.75 0 0 30.28 2.75 0 0 35.78 2.75 0 0 22.03 2.76 0 0 24.77 2.75 0 0 27.53 2.75 0 0 19.26 2.75 0 0 11.02 2.75 0 0 19.26 2.76 0 0 22.03 2.75 0 0 16.51 2.75 0 0 13.76 2.76 0 0 22.02 2.75 0 0 11.01 2.75 0 0 5.51 2.75 0 0 8.26 2.76 0 0 5.51 2.75 0 0 5.5 2.75 0 0 8.26 2.76 0 0 5.5 2.75 0 0 8.26 2.75 0 0 5.51 2.75 0 0 8.25 2.75 0 0 8.26 2.76 0 0 8.26 2.75 0 0 8.26 2.75 0 0 8.26 2.76 0 0 5.5 2.75 0 0 13.76 2.75 0 0 8.26 2.75 0 0 11.01 2.76 0 0 11.01 2.75 0 0 11.01 2.75 0 0 11.01 2.76 0 0 13.76 2.75 0 0 11.02 2.75 0 0 19.27 2.75 0 0 22.02 2.75 0 0 11.01 2.76 0 0 19.26 2.75 0 0 22.03 2.75 0 0 35.78 2.76 0 0 68.82 -2.76 0 0 11 -2.75 0 0 19.27 -2.75 0 0 19.27 -2.76 0 0 5.51 -2.75 0 0 8.26 -2.75 0 0 5.5 -2.75 0 0 5.51 -2.75 0 0 5.5 -2.76 0 0 2.75 -2.75 0 0 5.51 -2.75 0 0 2.75 -2.76 0 0 2.75 -2.75 0 0 2.76 -2.75 0 0 2.75 -2.75 0 0 2.75 -2.76 0 0 2.75 -2.75 0 0 2.76 -5.51 0 0 2.75 -2.75 0 0 2.75 -5.5 0 0 2.76 -5.51 0 0 2.75 -5.5 0 0 2.75 -5.51 0 0 2.75 -5.5 0 0 2.75 -8.26 0 0 2.76 -11.01 0 0 2.75 -11.01 0 0 2.75 -8.26 0 0 2.75 -16.52 0 0 2.76 -11.01 0 0 2.75 -22.02 0 0 2.75 -16.51 0 0 2.76 -35.79 0 0 2.75 -145.89 0 0 -2.75 -33.03 0 0 -2.76 -30.28 0 0 -2.75 -16.51 0 0 -2.75 -5.51 0 0 -2.76 -11.01 0 0 -2.75 -5.5 0 0 -2.75 -5.51 0 0 -2.75 -5.51 0 0 -2.76 -2.75 0 0 -2.75 -5.5 0 0 -2.75 -2.75 0 0 -2.75 -2.76 0 0 -2.75 -2.75 0 0 -2.76 -2.75 0 0 -2.75 -2.76 0 0 -5.51 -2.75 0 0 -2.75 -2.75 0 0 -5.5 -2.75 0 0 -5.51 -2.76 0 0 -8.26 -2.75 0 0 -11.01 -2.75 0 0 -11.01 -2.75 0 0 -156.9 2.75 0 0 -46.79 2.75 0 0 -22.02 2.75 0 0 -38.54 2.76 0 0 -16.51 2.75 0 0 -27.53 2.75 0 0 -11.01 2.75 0 0 -19.27 2.76 0 0 -13.76 2.75 0 0 -11.01 2.75 0 0 -16.52 2.76 0 0 -11.01 2.75 0 0 -13.76 2.75 0 0 -8.26 2.75 0 0 -11.01 2.75 0 0 -8.26 2.76 0 0 -19.27 2.75 0 0 -16.51 2.75 0 0 -22.02 2.76 0 0 -27.53 2.75 0 0 -16.52 2.75 0 0 -30.28 2.75 0 0 -19.26 2.76 0 0 -27.53 2.75 0 0 -27.53 2.75 0 0 -27.52 2.76 0 0 -22.02 2.75 0 0 -44.05 2.75 0 0 -22.02 2.75 0 0 -30.27 2.75 0 0 -35.79 2.76 0 0 -60.55 2.75 0 0 -41.29 2.75 0 0 -35.79 2.76 0 0 -44.04 2.75 0 0 -16.52 2.75 0 0 -38.53 2.75 0 0 -22.02 2.76 0 0 -24.78 2.75 0 0 -19.27 2.75 0 0 -16.51 2.75 0 0 -11.01 2.76 0 0 -22.02 2.75 0 0 -11.02 2.75 0 0 -22.02 2.75 0 0 -11.01 2.76 0 0 -19.26 2.75 0 0 -8.26 2.75 0 0 -22.02 2.75 0 0 -13.77 2.76 0 0 -8.25 2.75 0 0 -22.02 2.75 0 0 -11.02 2.76 0 0 -16.51 2.75 0 0 -8.26 2.75 0 0 -13.76 2.75 0 0 -11.01 2.75 0 0 -11.01 2.76 0 0 -11.01 2.75 0 0 -11.01 2.75 0 0 -11.02 2.76 0 0 -11.01 2.75 0 0 -5.5 2.75 0 0 -8.26 2.75 0 0 -13.76 2.76 0 0 -5.51 2.75 0 0 -5.5 2.75 0 0 -8.26 2.76 0 0 -5.51 2.75 0 0 -5.5 2.75 0 0 -5.51 2.75 0 0 -5.5 2.75 0 0 -5.51 2.76 0 0 -2.75 2.75 0 0 -5.5 2.75 0 0 -2.76 2.76 0 0 -2.75 2.75 0 0 -2.75 2.75 0 0 -2.76 2.75 0 0 -2.75 2.76 0 0 -2.75 5.5 0 0 -2.75 5.51 0 0 -2.75 5.5 0 0 -2.76 19.27 0 0 2.76z"/>
 </g>
</svg>
