<?xml version="1.0" encoding="UTF-8"?>
<!DOCTYPE svg PUBLIC "-//W3C//DTD SVG 1.1//EN" "http://www.w3.org/Graphics/SVG/1.1/DTD/svg11.dtd">
<!-- Creator: CorelDRAW (Versión de evaluación) -->
<svg xmlns="http://www.w3.org/2000/svg" xml:space="preserve" width="985px" height="2052px" version="1.1" style="shape-rendering:geometricPrecision; text-rendering:geometricPrecision; image-rendering:optimizeQuality; fill-rule:evenodd; clip-rule:evenodd"
viewBox="0 0 985 2051.79"
 xmlns:xlink="http://www.w3.org/1999/xlink"
 xmlns:xodm="http://www.corel.com/coreldraw/odm/2003">
 <defs>
  <style type="text/css">
   <![CDATA[
    .fil4 {fill:#4B4B4D}
    .fil1 {fill:#FFCC29}
    .fil3 {fill:#F7ADAF}
    .fil2 {fill:#F3EDD9}
    .fil0 {fill:#F8FBFF}
   ]]>
  </style>
 </defs>
 <g id="pulpotomy">
  <metadata id="CorelCorpID_0Corel-Layer"/>
  <path id="crown" class="fil0" d="M607.38 499.25c11.54,-25.82 -8.01,-53.36 -18.09,-74.24 24.24,-19.93 68.17,-30.41 99.38,-43.5 31.78,-13.33 71.24,-39.76 100.02,-17.11l69.2 72.37c49.46,63.14 56.36,155.31 25.07,222.58 -54.99,118.2 -179.01,67.54 -306.62,105.77 -59.12,17.71 -91.11,35.44 -129.43,83.18 -10.05,12.51 -21.32,22.31 -34.45,32.05 -157.37,116.74 -394.08,-93.88 -344.62,-411.49 25.36,-9.2 57.94,-9.11 87.56,-16.42 99.02,-24.47 169.73,-108.27 197.92,-110.31 14.82,-1.07 58.46,24.12 72.79,30.57 43.74,19.69 124.79,40.12 142.65,65.58 12.95,18.47 21.48,51.92 38.62,60.97z"/>
  <g id="_1750973628688">
   <path class="fil1" d="M649.55 444.55c8.93,24.27 10.48,49.36 -0.29,73.43l-20 44.73 -43.32 -22.89c-19.42,-10.26 -30.98,-27.98 -40.49,-47.02 -3.98,-7.97 -8.53,-19.46 -13.46,-27 -8.52,-7.31 -36.71,-17.94 -46.78,-21.73 -25.84,-9.71 -52.79,-18.22 -77.93,-29.53 -12.81,-5.77 -34.77,-18.89 -50.13,-24.68 -5.37,3.41 -11.51,8.14 -15.27,10.91 -14.46,10.68 -28.66,21.58 -43.38,31.91 -40.52,28.44 -83.69,52.34 -132.09,64.3 -16.61,4.1 -33.3,6.13 -50.21,8.43 -2.2,0.3 -4.48,0.6 -6.81,0.93 -9.82,105.46 13.22,221.16 86.72,299.82 49.99,53.5 124.25,85.38 189.02,37.34 9.58,-7.11 18.5,-14.59 26,-23.92 44.5,-55.44 84.69,-78.23 152.04,-98.41 33.88,-10.15 68.31,-14.96 103.46,-17.81 28.03,-2.28 56.57,-3.08 84.43,-6.65 42.5,-5.44 71.23,-15.73 90.3,-56.71 24.98,-53.7 17.61,-125.96 -18.31,-173.27l-62.38 -65.24c-11.58,1.36 -45.71,18.74 -54.26,22.32 -13.19,5.54 -36.7,12.8 -56.86,20.74z"/>
  </g>
  <path id="root" class="fil2" d="M898.84 1591.58c-34.82,-86.2 18.31,-218.92 -121.59,-428.24 -17.87,-26.73 -42.55,-57.94 -61.81,-79.86 -19.68,-22.41 -42.65,-53.28 -61.28,-80.47 -29.56,-43.13 -93.05,-137.65 -173.22,-79.08 -117.53,85.84 -288.65,404.4 -321.79,532.35 -35.64,137.67 -14.69,174.91 -30.04,252.97 -30.97,-4.05 -52.97,-41.03 -68.37,-66.97 -84.19,-141.88 5.94,-403.56 56.69,-544.34 23.02,-63.86 51.49,-131.91 58.3,-205.02 11.4,1.28 52.27,28.43 73.66,35.75 32.51,11.13 66.1,14.59 103.36,8.79 74.42,-11.57 94.75,-52.27 131.45,-89.49 22.58,-22.91 30.6,-29.81 66.88,-45.62 26.04,-11.33 57.05,-16.81 86.29,-21.32 69.89,-10.79 131.39,-11.93 198.09,-28.31 -21.79,290.35 125.01,322 120.09,647.56 -0.83,54.75 -21.66,167.32 -48.4,203.83l-8.31 -12.53z"/>
  <g id="_1750973628784">
   <path class="fil3" d="M95.19 1439.31c27.64,-106.33 124.1,-296.42 222.77,-432.91 -30.44,0.01 -60.37,-4.96 -90.01,-15.11 -1.24,-0.43 -2.47,-0.87 -3.69,-1.33 -12.22,43.91 -28.68,86.33 -44.57,130.42 -26.86,74.52 -72.48,204.32 -84.5,318.93zm503.96 -583.62c9.02,4.51 17.88,9.94 26.52,16.28 34.39,25.22 59.23,58.83 83.08,93.63 17.29,25.24 36.22,51.22 56.41,74.2 23.77,27.05 47.1,56.83 67.11,86.76 7.88,11.79 15.37,23.61 22.48,35.5 -7.72,-23.58 -16.76,-48.07 -27.17,-74.56 -36.96,-94.07 -57.5,-166.17 -60.28,-255.65 -39.76,5.06 -79.56,8.37 -119.83,14.59 -15.1,2.32 -32.34,4.98 -48.32,9.25z"/>
  </g>
  <path id="outline" class="fil4" d="M907.15 1604.11c26.74,-36.51 47.57,-149.08 48.4,-203.83 4.92,-325.56 -141.88,-357.21 -120.09,-647.56 -66.7,16.38 -128.2,17.52 -198.09,28.31 -29.24,4.51 -60.25,9.99 -86.29,21.32 -36.28,15.81 -44.3,22.71 -66.88,45.62 -36.7,37.22 -57.03,77.92 -131.45,89.49 -37.26,5.8 -70.85,2.34 -103.36,-8.79 -21.39,-7.32 -62.26,-34.47 -73.66,-35.75 -6.81,73.11 -35.28,141.16 -58.3,205.02 -50.75,140.78 -140.88,402.46 -56.69,544.34 15.4,25.94 37.4,62.92 68.37,66.97 15.35,-78.06 -5.6,-115.3 30.04,-252.97 33.14,-127.95 204.26,-446.51 321.79,-532.35 80.17,-58.57 143.66,35.95 173.22,79.08 18.63,27.19 41.6,58.06 61.28,80.47 19.26,21.92 43.94,53.13 61.81,79.86 139.9,209.32 86.77,342.04 121.59,428.24l8.31 12.53zm-299.77 -1104.86c-17.14,-9.05 -25.67,-42.5 -38.62,-60.97 -17.86,-25.46 -98.91,-45.89 -142.65,-65.58 -14.33,-6.45 -57.97,-31.64 -72.79,-30.57 -28.19,2.04 -98.9,85.84 -197.92,110.31 -29.62,7.31 -62.2,7.22 -87.56,16.42 -49.46,317.61 187.25,528.23 344.62,411.49 13.13,-9.74 24.4,-19.54 34.45,-32.05 38.32,-47.74 70.31,-65.47 129.43,-83.18 127.61,-38.23 251.63,12.43 306.62,-105.77 31.29,-67.27 24.39,-159.44 -25.07,-222.58l-69.2 -72.37c-28.78,-22.65 -68.24,3.78 -100.02,17.11 -31.21,13.09 -75.14,23.57 -99.38,43.5 10.08,20.88 29.63,48.42 18.09,74.24zm-235.83 -182.64c51.01,18.15 89.5,44.84 150.22,60.67 35.71,9.31 42.83,27.13 77.58,10.7 24.53,-11.6 48.4,-19.55 74.27,-29.74 58.15,-22.9 95.58,-57.95 145.74,-3.81 33.48,36.14 70.03,65.01 93.6,119.13 34.32,78.85 16.27,174.2 -36.81,245.44 -14.79,19.86 -16.17,61.86 -17.19,93.55 -3.83,119.79 58.46,231.93 89.73,333.49 34.11,110.8 50.99,251.88 19.9,369.94 -8.6,32.68 -36.04,149.08 -79.79,115.32 -26.48,-20.43 -33.56,-133.9 -36.51,-177.17 -14.54,-212.67 -121.36,-292.56 -209.36,-419.06 -34.98,-50.28 -94.62,-156.09 -181.74,-60.12 -39.51,43.53 -102.76,131.99 -131.45,181.05 -13.02,22.27 -22.53,45.95 -35.04,69.22 -47.62,88.59 -62.74,91.79 -101.94,214.74 -17.85,55.99 -26.91,115.28 -29.83,177.48 -2.98,63.55 6.39,163.52 -76.36,103.16 -87.85,-64.09 -96.7,-225.7 -79.28,-332.83 32.78,-201.62 122.15,-364.82 140.42,-485.18 11.56,-76.18 -96.33,-91.68 -112.78,-306.7 -18.19,-237.84 52.76,-114.5 201.61,-212.21 47.59,-31.24 95.64,-81.08 135.01,-67.07z"/>
 </g>
</svg>
