<?xml version="1.0" encoding="UTF-8"?>
<!DOCTYPE svg PUBLIC "-//W3C//DTD SVG 1.1//EN" "http://www.w3.org/Graphics/SVG/1.1/DTD/svg11.dtd">
<!-- Creator: CorelDRAW (Versión de evaluación) -->
<svg xmlns="http://www.w3.org/2000/svg" xml:space="preserve" width="377px" height="2052px" version="1.1" style="shape-rendering:geometricPrecision; text-rendering:geometricPrecision; image-rendering:optimizeQuality; fill-rule:evenodd; clip-rule:evenodd"
viewBox="0 0 377 2053.69"
 xmlns:xlink="http://www.w3.org/1999/xlink"
 xmlns:xodm="http://www.corel.com/coreldraw/odm/2003">
 <defs>
  <style type="text/css">
   <![CDATA[
    .fil4 {fill:#4B4B4D}
    .fil1 {fill:#FFCC29}
    .fil3 {fill:#F48884}
    .fil2 {fill:#F4EDDA}
    .fil0 {fill:#F8F9FD}
   ]]>
  </style>
 </defs>
 <g id="pulpotomy">
  <metadata id="CorelCorpID_0Corel-Layer"/>
  <path id="crown" class="fil0" d="M340.61 40.32c-66.22,-1.28 -32.81,2.32 -81.03,7.77 -58.85,6.65 -120.32,1.78 -170.08,13.94 -23.18,5.66 -50.77,33.14 -57.46,57.62 -4.61,16.87 -10.4,35.04 -1.55,60.4 3.06,8.75 2.41,9.97 2.8,20.5 0.69,18.17 1.03,8.94 5.04,17.01 4.36,8.79 1.38,9.21 3.58,18.87l25.2 67.33c6.64,12.77 4.8,3.28 11.41,20.92l27.76 54.8c13.82,18.84 27.15,33.1 43.66,46.69 21.15,17.41 41.84,22.93 70.64,21.63 21.52,-0.96 45.17,-14.36 57.14,-32.42 3.57,-5.38 4.38,-7.93 8.69,-13.81l14.46 -30.34c2.2,-7.99 4.96,-9.74 6.7,-18.66 1.97,-10.19 1,-10.51 3.78,-19.04 6.05,-18.57 6.17,-30.92 7.94,-37.01 7.13,-24.62 -0.3,16.49 5.94,-25.9 2.33,-15.83 1.81,5.05 6.19,-30.03 1.39,-11.16 3.16,-6.23 4.89,-15.9l8.56 -61.73c0.9,-12.98 -0.06,-33.49 1.78,-44.63 2.57,-15.5 4.86,-17.66 2.3,-39 -4.77,-39.66 2.31,-4.81 -8.34,-39.01z"/>
  <g id="_3232244738400">
   <path class="fil1" d="M74.25 227.76l23.31 62.27c0.02,0.03 0.05,0.07 0.07,0.11 5.66,6.65 8.42,13.13 11.44,21.1l25.67 50.66c10.85,14.51 22.32,26.96 36.39,38.54 15.22,12.53 28.44,14.95 47.96,14.07 10.93,-0.49 24.81,-8.43 30.85,-17.55 2.69,-4.05 4.85,-8.06 7.51,-12.1l12.27 -25.75c1.24,-3.75 2.71,-7.17 4.43,-10.88 0.41,-0.88 0.51,-1.07 0.7,-2.01 1.62,-8.39 2.01,-14.41 4.81,-23.02 4.09,-12.54 4.2,-24.18 7.61,-35.96 0.98,-3.35 2,-6.79 3.33,-10.09 0.53,-3.8 1.1,-7.6 1.65,-11.39 0.89,-6.01 2.02,-11.34 4.37,-16.27 0.76,-4.26 1.22,-9.01 1.72,-13.03 0.88,-7.05 2.25,-12.77 5.29,-18.74l8.06 -58.15c0.96,-15.47 -0.46,-31.3 2.08,-46.68 2.37,-14.32 3.85,-14.88 2.08,-29.58 -0.39,-3.32 -0.82,-6.75 -1.19,-10.2 -5.63,0.05 -10.7,0.3 -13.58,0.99 -3.43,0.82 -6.79,1.96 -10.3,2.77 -8.97,2.08 -18.31,3.31 -27.46,4.34 -30.22,3.42 -60.54,3.9 -90.89,5.09 -24.62,0.96 -51.04,2.24 -75.02,8.1 -12.06,2.95 -29.96,22.11 -33.22,34.04 -4.1,15 -7.6,25.26 -2.23,40.62 4.22,12.1 4.18,17.99 4.64,30.23 0.01,0.17 0.01,0.35 0.02,0.52 0.54,0.95 1.06,1.92 1.56,2.93 4.81,9.69 5.47,14.98 6.07,25.02z"/>
  </g>
  <path id="root" class="fil2" d="M109.71 427.67c-1.22,8.65 -0.55,15.05 -0.93,23.37 -1.13,24.59 -7.86,-0.83 -7.46,59.93 0.12,18.26 1.57,78.44 -2.52,91.01 -3.03,9.32 -4.48,5.32 -4.96,19.05l0.15 67.82c1.87,20.95 6.87,-3.06 6.75,40.01 -0.22,83.19 5.17,23.5 7.52,85.37 0.77,20.41 7.8,10.82 7.7,37.38 -0.11,27.44 4.5,16.44 7.29,30.12 0.72,3.55 0.49,6.18 0.69,9.78 0.69,12.25 12.39,47.42 13.63,55.51 4.39,28.58 11.65,63.91 21.2,92 3.18,9.38 9.99,21.25 15.77,28.83 20.35,26.7 27.19,2.72 31.38,-5.12 8.43,-15.8 5.95,-5.52 6.84,-25.87 0.84,-19.1 7.06,-12.88 7.24,-39.95 0.1,-14.53 -1.46,-30.45 3.61,-41.76 5.49,-12.28 3.43,-29.4 3.57,-43.59 0.26,-26.16 7.39,-9.78 7.43,-37.27 0.07,-45.36 4.07,-26.69 6.91,-40.83 2.69,-13.43 -2.2,-29.57 2.32,-43.12 11.44,-34.29 2.97,-13.84 5.66,-41.73 1.66,-17.25 2.84,-6.41 6.38,-16.18 2.27,-6.26 1.58,-14.29 1.47,-21.05 -0.75,-48.03 4.75,-20.87 8.07,-40.23 2.06,-11.95 -2,-31.2 1.41,-44.08 4.72,-17.84 5.57,2.31 5.59,-40.96 0.02,-47.09 2.92,-24.85 6.48,-38.49 1.49,-5.67 1.46,-80.14 0.35,-87.96 -8.17,0.53 -12.89,3.71 -19.76,7.6 -3.15,1.78 -19.07,8.02 -21.86,8.83 -33.94,9.8 -71.61,-3.32 -97.25,-22.76 -6.64,-5.03 -10.59,-7.9 -16.47,-13.61 -4.87,-4.73 -9.1,-11.69 -14.2,-12.05z"/>
  <g id="_3232336488192">
   <path class="fil3" d="M140.65 500.06c0.02,4 0.09,7.76 0.11,10.65 0.17,26.25 3.02,80.47 -4.45,103.46 -0.9,2.78 -1.89,5.32 -3.02,7.83l0.13 61.01c7.13,13.76 6.8,30 6.76,45.96 -0.03,10.24 -0.67,26.09 0.57,36.99 6.14,14.41 6.34,31.44 6.92,46.77 0,0.11 0.01,0.21 0.01,0.32 6.39,13.16 7.78,23.45 7.72,38.71 -0.01,1.29 -0.03,2.77 0,4.24 3.12,5.44 5.12,11.11 6.49,17.84 1.13,5.54 1.12,9.78 1.41,15.12 1.89,16.3 10.66,35.22 13.25,52.08 1.29,8.38 2.75,16.98 4.39,25.64 0.69,-9.02 2.4,-17.95 6.48,-27.22 1.39,-5.28 0.27,-22.75 0.33,-28.29 0.12,-13.18 1.47,-23.78 7.41,-34.67 0.02,-0.79 0.01,-1.56 0.01,-2.26 0.03,-17.61 -0.7,-36.49 7.86,-51.84 -0.01,-3.25 -0.38,-7.24 -0.48,-9.7 -0.48,-12.02 0.04,-23.31 3.88,-34.84 1.11,-3.32 2.5,-7.13 3.58,-10.76 -0.85,-7.4 -0.52,-14.47 0.23,-22.28 1.01,-10.43 3,-19.89 7.87,-27.77 -0.06,-1.77 -0.17,-3.55 -0.2,-5.05 -0.28,-18.4 -0.83,-38.42 8.74,-53.06 -0.11,-3.17 -0.39,-6.56 -0.49,-9.13 -0.44,-11.08 -0.32,-22.02 2.54,-32.83 1.17,-4.44 2.5,-8.47 4.26,-12.38 0.24,-6.09 0.01,-12.8 0.02,-18.51 0,-17.64 -0.98,-37.11 7.45,-51.89 0.26,-5.91 0.28,-12.15 0.25,-18.23 -33.71,7.32 -69.49,0.13 -100.03,-15.91z"/>
  </g>
  <path id="outline" class="fil4" d="M109.71 427.67c5.1,0.36 9.33,7.32 14.2,12.05 5.88,5.71 9.83,8.58 16.47,13.61 25.64,19.44 63.31,32.56 97.25,22.76 2.79,-0.81 18.71,-7.05 21.86,-8.83 6.87,-3.89 11.59,-7.07 19.76,-7.6 1.11,7.82 1.14,82.29 -0.35,87.96 -3.56,13.64 -6.46,-8.6 -6.48,38.49 -0.02,43.27 -0.87,23.12 -5.59,40.96 -3.41,12.88 0.65,32.13 -1.41,44.08 -3.32,19.36 -8.82,-7.8 -8.07,40.23 0.11,6.76 0.8,14.79 -1.47,21.05 -3.54,9.77 -4.72,-1.07 -6.38,16.18 -2.69,27.89 5.78,7.44 -5.66,41.73 -4.52,13.55 0.37,29.69 -2.32,43.12 -2.84,14.14 -6.84,-4.53 -6.91,40.83 -0.04,27.49 -7.17,11.11 -7.43,37.27 -0.14,14.19 1.92,31.31 -3.57,43.59 -5.07,11.31 -3.51,27.23 -3.61,41.76 -0.18,27.07 -6.4,20.85 -7.24,39.95 -0.89,20.35 1.59,10.07 -6.84,25.87 -4.19,7.84 -11.03,31.82 -31.38,5.12 -5.78,-7.58 -12.59,-19.45 -15.77,-28.83 -9.55,-28.09 -16.81,-63.42 -21.2,-92 -1.24,-8.09 -12.94,-43.26 -13.63,-55.51 -0.2,-3.6 0.03,-6.23 -0.69,-9.78 -2.79,-13.68 -7.4,-2.68 -7.29,-30.12 0.1,-26.56 -6.93,-16.97 -7.7,-37.38 -2.35,-61.87 -7.74,-2.18 -7.52,-85.37 0.12,-43.07 -4.88,-19.06 -6.75,-40.01l-0.15 -67.82c0.48,-13.73 1.93,-9.73 4.96,-19.05 4.09,-12.57 2.64,-72.75 2.52,-91.01 -0.4,-60.76 6.33,-35.34 7.46,-59.93 0.38,-8.32 -0.29,-14.72 0.93,-23.37zm230.9 -387.35c10.65,34.2 3.57,-0.65 8.34,39.01 2.56,21.34 0.27,23.5 -2.3,39 -1.84,11.14 -0.88,31.65 -1.78,44.63l-8.56 61.73c-1.73,9.67 -3.5,4.74 -4.89,15.9 -4.38,35.08 -3.86,14.2 -6.19,30.03 -6.24,42.39 1.19,1.28 -5.94,25.9 -1.77,6.09 -1.89,18.44 -7.94,37.01 -2.78,8.53 -1.81,8.85 -3.78,19.04 -1.74,8.92 -4.5,10.67 -6.7,18.66l-14.46 30.34c-4.31,5.88 -5.12,8.43 -8.69,13.81 -11.97,18.06 -35.62,31.46 -57.14,32.42 -28.8,1.3 -49.49,-4.22 -70.64,-21.63 -16.51,-13.59 -29.84,-27.85 -43.66,-46.69l-27.76 -54.8c-6.61,-17.64 -4.77,-8.15 -11.41,-20.92l-25.2 -67.33c-2.2,-9.66 0.78,-10.08 -3.58,-18.87 -4.01,-8.07 -4.35,1.16 -5.04,-17.01 -0.39,-10.53 0.26,-11.75 -2.8,-20.5 -8.85,-25.36 -3.06,-43.53 1.55,-60.4 6.69,-24.48 34.28,-51.96 57.46,-57.62 49.76,-12.16 111.23,-7.29 170.08,-13.94 48.22,-5.45 14.81,-9.05 81.03,-7.77zm-63.92 -22.76c-6.44,4.1 5.12,0.55 -6.81,4.4l-79.55 1.68c-28.01,0.27 -54.96,5.32 -85.24,6.4 -18.35,0.65 -49.75,18.28 -63.27,29.23 -23.11,18.72 -29.33,38.39 -37.46,55.06 -8.75,17.93 -3.43,77.34 5.09,99.05 3.4,8.68 1.69,10.08 3.86,19.08l22.6 62.43c1.82,4.99 0.54,1.41 2.31,5.12l32.01 70.99c1.98,8.03 -1.59,1.13 2.64,9.43 1.76,3.47 5.35,0.1 5.7,20.2l-0.52 135.44c-1.83,14.31 -6.99,18.67 -6.78,42.52l0.66 160.2c2.47,12.36 5.28,5.4 7.01,19.98 1.46,12.3 -1.71,32.93 0.94,44.11 2.73,11.55 4.06,2.44 6.17,16 1.23,7.86 -0.58,17.71 0.35,25.16 2.53,20.15 7.18,-8.07 7.39,35.2 0.14,27.98 8.36,10.04 8.16,40.02 -0.2,30.17 6.02,1.23 7.56,37.6l19.96 73.4c3.75,10.54 8.49,22.62 13.84,33.64 11.14,22.98 33.59,57.4 62.15,40.67 15.05,-8.82 27.16,-29.06 28.76,-40.37 2.32,-16.34 1.48,-7.05 5.96,-17.13 3.85,-8.66 0.36,-30.77 1.86,-42.94 3.59,-28.98 8.08,19.05 7.69,-62.49 -0.01,-2.24 -0.06,-8.09 0.24,-10.04 1.66,-10.69 1.13,-4.5 3.75,-9.17 8.39,-14.99 1.46,-24.81 3.95,-43.39 1.85,-13.77 4.21,-6.22 6.17,-15.68 2.89,-13.94 -3.54,-26.96 2.88,-43.02 8.75,-21.9 3.77,-14.18 4.84,-41.49 0.89,-22.43 5.62,1.93 7.93,-38.83 2.5,-44.21 3.31,-21.34 7.22,-36.95 2.93,-11.73 1.97,-31.4 2.76,-44.5 1.4,-23.11 5.86,-2.97 5.95,-39.87 0.17,-66.93 5.87,-29.71 5.84,-87.74l3 -64.27c1.86,-8.78 3.58,-4.52 4.67,-18.18 0.56,-7.11 0.04,-14.66 0.87,-21.89l16.82 -52.73c5.43,-9.89 3.64,2.06 5.62,-15.65 1.84,-16.62 2.25,-8.8 6.22,-20.5 2.03,-6 2.16,-11.55 3.37,-17.49 3.28,-16.13 3.48,-4.83 5.77,-17.55 2.7,-14.96 4.21,-26.1 7.13,-40.91 1.9,-9.58 1.19,-11.96 2.2,-21.15 1.43,-13.04 3.25,-5.9 5.58,-15.85 2.52,-10.8 -1.32,-8.19 3.73,-18.95 2.57,-5.46 3.21,5.1 3.57,-20.42 0.27,-19.1 4.87,-20.09 5.8,-40.01 0.75,-16.3 0.91,-31.34 0.96,-47.7 0.11,-37.79 3.85,-53.29 -18.73,-74.86 -11.33,-10.83 -17.43,-8.69 -37.17,-8.25 -3.7,0.08 -43.62,2.73 -43.98,2.96z"/>
 </g>
</svg>
