<?xml version="1.0" encoding="UTF-8"?>
<!DOCTYPE svg PUBLIC "-//W3C//DTD SVG 1.1//EN" "http://www.w3.org/Graphics/SVG/1.1/DTD/svg11.dtd">
<!-- Creator: CorelDRAW (Versión de evaluación) -->
<svg xmlns="http://www.w3.org/2000/svg" xml:space="preserve" width="926px" height="2062px" version="1.1" style="shape-rendering:geometricPrecision; text-rendering:geometricPrecision; image-rendering:optimizeQuality; fill-rule:evenodd; clip-rule:evenodd"
viewBox="0 0 926 2061.44"
 xmlns:xlink="http://www.w3.org/1999/xlink"
 xmlns:xodm="http://www.corel.com/coreldraw/odm/2003">
 <defs>
  <style type="text/css">
   <![CDATA[
    .fil4 {fill:#4B4B4D}
    .fil1 {fill:#FFCC29}
    .fil3 {fill:#F48884}
    .fil2 {fill:#F3ECD9}
    .fil0 {fill:#F8F9FD}
   ]]>
  </style>
 </defs>
 <g id="pulpotomy">
  <metadata id="CorelCorpID_0Corel-Layer"/>
  <path id="crown" class="fil0" d="M389.73 1932.53c0.73,-14.44 -2.41,-7.93 -3.46,-18.01 -0.72,-6.96 1.5,-14.61 1.03,-21.86 -1.16,-17.64 -6.63,-7.87 -3.83,-37.64 1.85,-19.71 -1.69,-54.25 13.66,-69.3 6.87,-6.73 -2.09,-2.21 7.64,-5.99 -0.58,21.04 -7.55,52.07 -1.16,70.13 4.86,13.7 -2.67,32.57 2.78,46.36 8.55,21.62 -1.95,42.44 53.87,67.62 12.59,5.68 3.02,4 18.05,8.18 0.72,0.2 1.39,0.3 2.08,0.53l43.11 15.6c7.71,3.21 -0.74,2.09 9.36,5.24l38.94 12.86c6.9,3.6 11.03,3.42 18.32,6.39 15.14,6.18 38.78,22.49 55.61,20.42 15.49,-1.91 66.26,-38.64 86.76,-48.09 9.17,-4.23 2.02,-0.48 8.5,-4.59l41.5 -25.38c20.85,-13.53 45.75,-28.62 63.24,-45.71 48.41,-47.32 37.33,-65.05 47.46,-87.49 15.1,-33.45 1.24,-36.07 3.27,-66.83 1.79,-27.11 -4.49,-22.11 -4.28,-42.52 0.18,-17.73 -1.14,-7.25 -4.14,-18.7l-29.04 -95.38c-11.95,-22.28 -15.58,-45.44 -29.09,-67.92l-5.67 -17.87c-16.57,-38.57 -45.86,-73.53 -84.61,-89.91 -17.36,-7.34 -66.08,-19.08 -87.94,-13.81 -35.29,8.51 -42.84,4.39 -86.11,18.02l-81.68 22.78c-14.34,4.76 -79.84,3.58 -97.06,1.42 -18.37,-2.32 -0.56,-5.91 -44.18,-7.48 -66.43,-2.39 -88.65,11.94 -145.45,36.2 -26.19,11.18 -57.74,38.05 -73.36,61.75l-20.75 34.91c-14.95,26.35 -28.92,58.21 -37.81,87.83 -2.9,9.68 0.22,0.32 -4.32,8.33 -6.88,12.16 -2.07,9.51 -5.11,22.05 -3.35,13.81 -8.25,5.71 -10.41,27.83 -2.78,28.43 -6.81,-7.19 -12.84,59.98 -1.48,16.53 -3.96,36.44 -4.36,52.63 -0.31,12.87 8.79,44.68 15.72,53.76 22.48,29.46 30.05,46.55 66.67,72.23 4.75,3.32 3.45,3.12 6.48,5.63 4.88,4.02 2.39,1.65 7.32,4.85l62.8 36.14c15.2,6.3 54.34,3.54 68.12,-3.13l13.48 -4.87c24.75,-10.05 52.74,-27.39 77.73,-39.71 0.55,-0.27 1.22,-0.59 1.76,-0.87l41.4 -26.61z"/>
  <g id="_3232311552544">
   <path class="fil1" d="M341.33 1910.25c0.2,-4.91 0.87,-9.31 1.1,-14.67 -5.65,-15.63 -5.25,-27.96 -3.67,-44.76 1.13,-12 0.59,-24.32 1.78,-36.55 2.03,-20.75 7.58,-40.94 21.46,-56.72 5.35,-8.44 13.58,-15.26 24.15,-18.81 0.79,-0.27 1.58,-0.57 2.35,-0.87l63.02 -24.49 -1.86 67.58c-0.31,11.24 -5.46,44.73 -3.52,54.45 4.01,11.65 4.55,23.16 3.81,35.34 -0.2,3.31 -0.83,8.1 -0.78,11.67 2.45,6.85 3.9,13.54 5.35,20.74 0.28,1.39 0.78,4.45 1.38,5.74 2.81,4.43 18.37,12 22.82,14 3.84,1.74 7.41,3.52 10.83,5.63 0.02,0.01 0.05,0.02 0.07,0.02 1.61,0.38 3.17,0.8 4.75,1.32l0.66 0.21 44.75 16.2 0.97 0.41c3.66,1.52 7.1,3.32 10.26,5.4l38.33 12.66 2.89 1.5c5.06,1.66 9.69,2.71 14.85,4.82 7.98,3.25 23.85,12.68 33.5,16.22 8.98,-4.4 20.61,-12.12 27.7,-16.54 14.39,-8.93 30.1,-19.51 45.41,-26.56 0.65,-0.3 1.3,-0.6 1.95,-0.9 0.43,-0.28 0.87,-0.55 1.31,-0.83l0.3 -0.2 41.3 -25.26c18.02,-11.66 40.56,-24.95 55.79,-39.83 9.19,-8.99 22.68,-23.06 27.03,-35.63 4.57,-13.23 4.37,-23.79 10.89,-38.22 0.91,-2.01 2.81,-6.29 3.15,-8.63 -0.22,-3.05 -1.41,-7.39 -1.96,-10.44 -1.93,-10.81 -2.53,-21.26 -1.8,-32.24 0.15,-2.28 0.44,-5.96 0.14,-8.28 -2.76,-11.72 -4.51,-18.1 -4.52,-30.27 -0.92,-2.36 -1.71,-4.8 -2.4,-7.34l-27.64 -90.78c-5.79,-11.59 -10.05,-23.42 -14.45,-35.67 -3.18,-8.85 -6.5,-17.99 -11.36,-26.08l-2.72 -4.53 -6.55 -20.66c-11.92,-26.73 -32.61,-52.79 -60.01,-64.37 -11.23,-4.75 -48.03,-13.28 -60.24,-11.43 -14.79,3.54 -28.73,5.55 -43.69,7.77 -13.6,2.02 -26.01,5.21 -39.14,9.35l-0.71 0.22 -82.4 22.97c-24.78,6.94 -89.9,5.85 -114.73,2.72 -8.45,-1.06 -15.4,-2.75 -22.67,-6.18 -5.52,-0.72 -12.43,-0.79 -17.52,-0.97 -56.61,-2.04 -75.63,11.02 -126.2,32.62 -17.83,7.62 -41.92,28.09 -52.98,44.41l-19.92 33.5c-13.65,24.12 -25.67,51.63 -33.63,78.18 -0.46,1.51 -0.89,3.02 -1.35,4.53 -1.31,4.28 -3.16,8.2 -5.43,11.7 -0.37,3.88 -1.03,7.7 -2.03,11.83 -2.06,8.49 -4.92,15.25 -9.38,21.86 -1.23,12.39 -3.46,22.94 -9.82,32.58 -1.6,8.33 -2.3,19.47 -2.96,26.8 -1.46,16.22 -3.73,32.85 -4.18,49.11 0.47,6.29 4.69,21.4 7.66,27.54 19.72,26.06 27.38,41.4 55.6,61.19 3.44,2.4 6.44,4.8 9.33,7.63 0.67,0.4 1.34,0.81 2,1.22l56.99 32.8c8.17,1.07 25.45,-0.16 31.9,-2.21l1.27 -0.62 14.8 -5.35c24.89,-10.23 49.1,-25.72 73.39,-37.76l15.23 -9.79z"/>
  </g>
  <path id="root" class="fil2" d="M298.46 687.04c-23.64,9.56 -44.49,39.92 -56.38,64.29l-54.71 130.88c-2.59,10.15 -2.04,17.24 -5.82,27.44 -7.61,20.54 -14.98,57.08 -16.37,77.58 -1.3,19.25 -6.88,26.52 -10.09,54.98 -3.49,30.91 -8.96,86.94 -5.37,114.25l3.62 78.37c0.01,13.54 3.03,11.98 3.98,22.65 0.78,8.69 -0.79,17.71 0.15,26.28 1.34,12.22 3.8,8.76 4.2,23.19 0.24,8.33 -0.63,18.92 -0.26,27.89 0.55,13.1 3.68,8.67 3.19,24.81 -1.19,39.19 -7.59,79.38 -10.57,118.31 10.52,-3.64 6.19,-3.72 14.57,-9.96 22.02,-16.41 60.83,-32.94 87.35,-39.03 13.64,-3.13 7.02,-4.47 18.58,-6.74 7.53,-1.48 17.15,-0.23 24.54,-1.18 14.2,-1.83 21.87,-6.93 42.99,-3.69 15.67,2.41 27.99,3.01 45.91,4.17 16.45,1.07 28.2,3.85 41.43,4.73 15.26,1.01 30.29,-2.7 47.58,-3.34 17.76,-0.66 43.35,-9.39 56.91,-14.67l39.69 -9c17.1,-3.72 -2.14,-4.88 18.31,-7.1 8.35,-0.9 15.97,1.2 23.62,-1.78 10.28,-4.01 0.08,-5.55 19.52,-6.18 15.48,-0.5 32.25,-0.39 47.75,-0.3 35.57,0.23 24.21,4.77 42.09,7.22 7.02,0.96 4.05,-0.99 10.62,2.14l57.9 30c1.21,-10.01 -3.75,-82.82 -1.97,-113.43 1.2,-20.82 3.1,-41.72 4.77,-62.55 1.8,-22.57 6.94,-34.06 8.87,-57.48 4.96,-60.1 20.95,-120.24 21.83,-180.19 0.4,-27.19 1.31,-109.98 -8,-133.1l-6.77 -52.37c-1.84,-7.49 -3.52,-16.04 -5.49,-25.11 -6.45,-29.62 -15.23,-59.05 -28.21,-86.61 -10.15,-21.55 -50.54,-101.86 -77.92,-100.02 -8.25,46.37 8.8,92.97 11.83,139.06 4.73,72.08 7.31,68.25 -0.52,150.71 -0.84,8.83 -1.41,18.79 -2.74,27.49 -1.73,11.24 -4.11,11.2 -6.04,22.35 -1.49,8.57 -1.29,19.23 -3.08,27.43 -1.16,5.28 -15.33,39.93 -18.83,65.35l-13.94 44.88c-14.8,30 -29.24,66.72 -51.16,94.3 -4.51,5.68 -8.3,10.95 -12.55,16.35l-25.59 32.03c-20.77,24.5 -57.99,53.51 -90.54,46.23l-28.96 -7.73c-0.52,-0.25 -1.13,-0.58 -1.65,-0.83l-64.83 -55.41c-16.59,-18.15 -29.87,-40.12 -43.05,-61.58l-8.8 -17.08c-9.71,-18.07 -14.78,-37.32 -22.81,-55.27 -6.31,-14.11 -17.44,-63.04 -20.69,-80.24 -4.18,-22.07 -10.35,-44.8 -8.89,-68.13 2.36,-37.79 2.08,-67.11 10.59,-103.52 2.14,-9.16 2.1,-17.55 3.35,-26.8 3.58,-26.6 9.16,-17.84 10.1,-77.24 0.39,-24.8 0.11,-31.78 -13.24,-37.7zm178.14 -70.34c-9.91,6.44 -0.39,-1.27 -5.74,7.73 -5.16,8.68 -13.91,18.86 -16.56,27.9 -3.5,11.97 0.54,12.36 -6.18,23.66 -4.87,8.16 -2.08,-3.79 -4.82,11 -0.84,4.55 -0.54,10.29 -1.62,14.98 -3.4,14.71 -5.37,2.03 -8.46,20.05 -2.12,12.42 -0.35,12.47 -5.3,24.42 -4.44,10.69 -4.51,11.28 -5.96,23.17 -2.12,17.46 -3.63,14.17 -7.41,25.42 -5.68,16.9 -3.93,32.71 -10.11,49.04 -8.67,22.9 -47.68,236.3 -47.46,258.29 0.17,16.96 13.72,33.78 20.58,44.69l27.77 41.37c9.18,12.49 21.89,31.86 38.64,43.11 4.4,2.96 3.3,1.5 7.53,4.69 19.41,14.64 53.72,23.13 78.25,6.44 14.73,-10.02 32.11,-28.71 42.57,-43.94 10.61,-15.46 27.89,-37.43 36.18,-53.44 5.85,-11.29 24.61,-26.9 13.14,-54.83l-6.23 -22.29c-0.19,-0.62 -0.39,-1.26 -0.58,-1.88l-7.39 -27.76c-0.94,-3.68 -5.35,-14.19 -7.27,-20.55l-55.82 -156.09c-2.22,-13.42 -3.05,-10.89 -5.9,-19.58 -2.75,-8.41 0.16,-13.64 -2.93,-23.07 -4.28,-13.05 -1.71,-6.78 -3.66,-21.71 -1.45,-11.09 -4.32,-7.34 -5.08,-22.99 -0.82,-16.94 -3.66,-10.53 -5.15,-20.56 -1.59,-10.77 1.63,-12.17 -1.77,-24.56 -1.73,-6.3 -7.94,-38.5 -8.27,-45.17 -0.92,-18.5 -2.45,-9.87 -5.18,-20.66 -2.71,-10.75 2.39,-13.5 -2.86,-22.95 -7.33,-13.21 -9.52,-35.24 -26.95,-23.93z"/>
  <g id="_3232308474768">
   <path class="fil3" d="M230.25 946.07c-3.9,15.06 -7.06,32.82 -7.89,45.03 -1.39,20.61 -8.06,37.58 -10.31,57.54 -2.98,26.34 -8.85,74.87 -5.5,100.35l0.32 2.41 3.76 81.71c1.93,6.37 3.16,12.28 3.78,19.3 0.78,8.71 -0.26,16.43 0.03,24.52 3.04,9.67 4.23,17.93 4.53,28.42 0.23,8.5 -0.56,17.14 -0.34,25.55 2.87,10.35 3.6,19.33 3.26,30.5 -0.18,5.97 -0.48,11.92 -0.85,17.85 6.78,-2.18 13.42,-4.07 19.76,-5.59 7.1,-3.76 14.33,-6.03 22.7,-7.67 10.79,-2.12 18.6,-1.31 28.82,-1.87 5.13,-0.73 10.66,-2.39 15.87,-3.29 14.36,-2.49 28.16,-2.33 42.56,-0.12 13.58,2.09 27.25,2.74 40.94,3.63 14.08,0.91 27.75,3.82 41.5,4.73 11.44,0.76 29.17,-2.96 41.67,-3.43 9.73,-0.36 29.14,-7.25 38.22,-10.79l3.97 -1.55 35.81 -8.12c9.55,-5.36 20.85,-8.71 32.86,-10.01 3.61,-0.39 6.9,-0.47 10.18,-0.47 11.01,-5.64 23.32,-7.34 37.28,-7.79 16.65,-0.54 33.31,-0.43 49.96,-0.33 18.52,0.12 33.37,0.83 50.1,7.55 0.14,0.01 0.27,0.02 0.41,0.02 -0.1,-9.31 0.02,-18.59 0.55,-27.64 1.23,-21.3 3.16,-42.54 4.85,-63.8 1.6,-19.96 7.3,-38.38 8.89,-57.63 4.84,-58.56 20.78,-118.1 21.64,-176.32 0.29,-19.64 1.28,-64.43 -1.4,-93.37 -0.65,7.67 -1.28,15.31 -2.46,22.96 -1.35,8.76 -3.34,15.19 -6.2,23.31 0,0.05 -0.01,0.09 -0.02,0.14 -1.69,9.87 -1.25,19.33 -3.56,29.88 -4.39,20.05 -15.11,39.66 -18.04,60.92l-0.64 4.68 -16.68 53.69 -2 4.05c-18.03,36.54 -31.91,72.17 -57.69,104.6 -4.3,5.42 -8.32,11.05 -12.64,16.46l-26.11 32.68 -0.53 0.63c-34.96,41.25 -90.48,77.71 -146.79,65.11l-1.13 -0.25 -35.19 -9.39 -4.77 -2.27c-0.95,-0.46 -1.89,-0.94 -2.82,-1.42l-6.1 -3.05 -72.84 -62.25 -2.39 -2.62c-19.56,-21.41 -34.47,-45.65 -49.57,-70.23l-1.13 -1.84 -9.58 -18.6c-10.38,-19.49 -15.6,-38.88 -24.38,-58.52 -10.82,-24.18 -19.63,-66.24 -24.69,-92.98 -4.28,-22.62 -9.13,-42.8 -9.98,-65.01zm243.24 -143.88c-0.45,1.3 -0.93,2.6 -1.46,3.89 -0.95,2.37 -2.38,4.92 -3.15,7.21 -1.33,3.96 -1.82,9.67 -2.35,13.81 -1.65,12.74 -3.74,24.47 -8.23,36.57 -3.97,12.55 -6.75,28.76 -9.41,41.7 -5.3,25.83 -10.23,51.77 -14.99,77.71 -4.75,25.91 -9.35,51.87 -13.57,77.88 -1.89,11.67 -4.6,25.67 -5.72,37.91 2.55,5 7.7,11.93 10.69,16.47l27 40.23c5.77,7.97 15.31,22.3 22.97,27.92 3.79,2.05 7.23,4.32 10.74,6.97 2.47,1.87 8.98,4.36 12.55,4.08 9.04,-6.54 20.46,-19.45 26.5,-28.25 10.12,-14.73 24.52,-31.88 32.56,-47.38 2.52,-4.86 5.84,-9.17 8.7,-13.46l-5.92 -21.17c-0.2,-0.66 -0.41,-1.33 -0.6,-1.99l-0.18 -0.63 -7.33 -27.5c-2.04,-6.04 -4.51,-11.84 -6.47,-17.95l-57.18 -159.9 -0.84 -5.1c-0.1,-0.56 -0.19,-1.14 -0.29,-1.72 -1.29,-3.07 -2.46,-6.1 -3.52,-9.34 -3.23,-9.85 -3.84,-17.34 -4.12,-26.86 -2.87,-9.76 -3.32,-16.03 -4.49,-25.56 -0.71,-1.87 -1.34,-3.71 -1.89,-5.54z"/>
  </g>
  <path id="outline" class="fil4" d="M348.33 1959.14c-0.54,0.28 -1.21,0.6 -1.76,0.87 -24.99,12.32 -52.98,29.66 -77.73,39.71l-13.48 4.87c-13.78,6.67 -52.92,9.43 -68.12,3.13l-62.8 -36.14c-4.93,-3.2 -2.44,-0.83 -7.32,-4.85 -3.03,-2.51 -1.73,-2.31 -6.48,-5.63 -36.62,-25.68 -44.19,-42.77 -66.67,-72.23 -6.93,-9.08 -16.03,-40.89 -15.72,-53.76 0.4,-16.19 2.88,-36.1 4.36,-52.63 6.03,-67.17 10.06,-31.55 12.84,-59.98 2.16,-22.12 7.06,-14.02 10.41,-27.83 3.04,-12.54 -1.77,-9.89 5.11,-22.05 4.54,-8.01 1.42,1.35 4.32,-8.33 8.89,-29.62 22.86,-61.48 37.81,-87.83l20.75 -34.91c15.62,-23.7 47.17,-50.57 73.36,-61.75 56.8,-24.26 79.02,-38.59 145.45,-36.2 43.62,1.57 25.81,5.16 44.18,7.48 17.22,2.16 82.72,3.34 97.06,-1.42l81.68 -22.78c43.27,-13.63 50.82,-9.51 86.11,-18.02 21.86,-5.27 70.58,6.47 87.94,13.81 38.75,16.38 68.04,51.34 84.61,89.91l5.67 17.87c13.51,22.48 17.14,45.64 29.09,67.92l29.04 95.38c3,11.45 4.32,0.97 4.14,18.7 -0.21,20.41 6.07,15.41 4.28,42.52 -2.03,30.76 11.83,33.38 -3.27,66.83 -10.13,22.44 0.95,40.17 -47.46,87.49 -17.49,17.09 -42.39,32.18 -63.24,45.71l-41.5 25.38c-6.48,4.11 0.67,0.36 -8.5,4.59 -20.5,9.45 -71.27,46.18 -86.76,48.09 -16.83,2.07 -40.47,-14.24 -55.61,-20.42 -7.29,-2.97 -11.42,-2.79 -18.32,-6.39l-38.94 -12.86c-10.1,-3.15 -1.65,-2.03 -9.36,-5.24l-43.11 -15.6c-0.69,-0.23 -1.36,-0.33 -2.08,-0.53 -15.03,-4.18 -5.46,-2.5 -18.05,-8.18 -55.82,-25.18 -45.32,-46 -53.87,-67.62 -5.45,-13.79 2.08,-32.66 -2.78,-46.36 -6.39,-18.06 0.58,-49.09 1.16,-70.13 -9.73,3.78 -0.77,-0.74 -7.64,5.99 -15.35,15.05 -11.81,49.59 -13.66,69.3 -2.8,29.77 2.67,20 3.83,37.64 0.47,7.25 -1.75,14.9 -1.03,21.86 1.05,10.08 4.19,3.57 3.46,18.01l-41.4 26.61zm128.27 -1342.44c17.43,-11.31 19.62,10.72 26.95,23.93 5.25,9.45 0.15,12.2 2.86,22.95 2.73,10.79 4.26,2.16 5.18,20.66 0.33,6.67 6.54,38.87 8.27,45.17 3.4,12.39 0.18,13.79 1.77,24.56 1.49,10.03 4.33,3.62 5.15,20.56 0.76,15.65 3.63,11.9 5.08,22.99 1.95,14.93 -0.63,8.66 3.66,21.71 3.09,9.43 0.18,14.66 2.93,23.07 2.85,8.69 3.68,6.16 5.9,19.58l55.82 156.09c1.92,6.35 6.33,16.87 7.27,20.55l7.39 27.76c0.19,0.62 0.39,1.26 0.58,1.88l6.23 22.29c11.47,27.92 -7.29,43.54 -13.14,54.83 -8.29,16.01 -25.57,37.98 -36.18,53.44 -10.46,15.23 -27.84,33.92 -42.57,43.94 -24.53,16.69 -58.84,8.2 -78.25,-6.44 -4.23,-3.19 -3.13,-1.73 -7.53,-4.68 -16.75,-11.26 -29.46,-30.64 -38.64,-43.12l-27.77 -41.37c-6.86,-10.9 -20.41,-27.73 -20.58,-44.69 -0.22,-21.99 38.79,-235.39 47.46,-258.29 6.18,-16.33 4.43,-32.14 10.11,-49.04 3.78,-11.25 5.29,-7.96 7.41,-25.42 1.45,-11.89 1.52,-12.48 5.96,-23.17 4.95,-11.95 3.18,-12 5.3,-24.42 3.09,-18.02 5.06,-5.34 8.46,-20.05 1.08,-4.69 0.78,-10.43 1.62,-14.98 2.74,-14.79 -0.04,-2.84 4.82,-11 6.72,-11.3 2.68,-11.69 6.18,-23.66 2.65,-9.04 11.4,-19.22 16.56,-27.9 5.35,-9 -4.17,-1.29 5.74,-7.73zm-295.05 292.95c3.78,-10.2 3.23,-17.29 5.82,-27.44l54.71 -130.88c11.89,-24.37 32.74,-54.73 56.38,-64.29 13.35,5.92 13.63,12.9 13.24,37.7 -0.94,59.4 -6.52,50.64 -10.1,77.24 -1.25,9.25 -1.21,17.64 -3.35,26.8 -8.51,36.41 -8.23,65.73 -10.59,103.52 -1.46,23.33 4.71,46.06 8.89,68.13 3.25,17.2 14.38,66.13 20.69,80.24 8.03,17.95 13.1,37.2 22.81,55.27l8.8 17.08c13.18,21.46 26.46,43.43 43.04,61.58l64.84 55.41c0.52,0.25 1.13,0.58 1.65,0.83l28.96 7.73c32.55,7.28 69.77,-21.73 90.54,-46.23l25.59 -32.03c4.25,-5.4 8.04,-10.67 12.55,-16.35 21.92,-27.58 36.36,-64.3 51.16,-94.3l13.94 -44.88c3.5,-25.42 17.67,-60.07 18.83,-65.35 1.79,-8.2 1.59,-18.86 3.08,-27.43 1.93,-11.15 4.31,-11.11 6.04,-22.35 1.34,-8.7 1.9,-18.66 2.74,-27.49 7.83,-82.46 5.25,-78.63 0.52,-150.71 -3.03,-46.08 -20.08,-92.69 -11.83,-139.06 27.38,-1.84 67.77,78.47 77.92,100.02 12.98,27.56 21.76,56.99 28.21,86.61 1.97,9.07 3.65,17.62 5.49,25.11l6.76 52.37c9.32,23.12 8.41,105.91 8.01,133.1 -0.88,59.95 -16.86,120.09 -21.83,180.19 -1.93,23.42 -7.07,34.91 -8.87,57.48 -1.67,20.83 -3.57,41.73 -4.77,62.55 -1.78,30.61 3.18,103.42 1.97,113.43l-57.9 -30c-6.57,-3.13 -3.6,-1.18 -10.62,-2.14 -17.88,-2.45 -6.52,-6.99 -42.09,-7.21 -15.5,-0.1 -32.27,-0.21 -47.75,0.29 -19.44,0.63 -9.24,2.17 -19.52,6.18 -7.65,2.98 -15.27,0.88 -23.62,1.78 -20.45,2.22 -1.21,3.38 -18.31,7.1l-39.69 9c-13.56,5.28 -39.15,14.01 -56.91,14.67 -17.29,0.64 -32.32,4.35 -47.58,3.34 -13.23,-0.88 -24.98,-3.66 -41.43,-4.73 -17.92,-1.16 -30.24,-1.76 -45.91,-4.17 -21.12,-3.24 -28.79,1.86 -42.99,3.69 -7.39,0.95 -17.01,-0.3 -24.54,1.18 -11.56,2.27 -4.94,3.61 -18.58,6.74 -26.52,6.09 -65.33,22.62 -87.35,39.03 -8.38,6.24 -4.05,6.32 -14.57,9.96 2.98,-38.93 9.38,-79.12 10.57,-118.31 0.49,-16.14 -2.64,-11.71 -3.19,-24.81 -0.37,-8.97 0.5,-19.56 0.26,-27.89 -0.4,-14.43 -2.86,-10.97 -4.2,-23.19 -0.94,-8.57 0.63,-17.58 -0.15,-26.28 -0.95,-10.67 -3.97,-9.11 -3.98,-22.65l-3.62 -78.37c-3.59,-27.31 1.88,-83.34 5.37,-114.25 3.22,-28.46 8.79,-35.73 10.09,-54.98 1.39,-20.5 8.76,-57.04 16.37,-77.58zm462.58 159.15l-13.74 -41.67c-0.19,-0.52 -0.47,-1.14 -0.64,-1.68l-25.67 -73.11c-0.21,-0.45 -0.49,-1.12 -0.7,-1.6l-3.79 -8.36c-0.24,-0.47 -0.66,-1.02 -0.9,-1.49 -3.64,-7.1 -2.1,-7.33 -5.01,-13.96l-33.29 -121.94c-1.15,-6.29 -3.24,-8.29 -4.35,-13.84l-4.28 -35.73c-1.28,-8.78 -3.21,-6.07 -4.56,-14.13 -2.68,-16.03 0.45,-15.27 -7.73,-51.25 -2.3,-10.13 -2.66,-5.33 -4.56,-13.68 -5.48,-24.03 -6.87,-55.01 -20.12,-76.06 -2.48,-3.95 -5.57,-5.35 -9.14,-11.61 -18.6,-0.2 -32.33,-2.87 -45.36,10.26 -10.61,10.7 -15.13,25.55 -22.47,38.44 -10.08,17.68 -12.14,39.08 -19.96,58.13 -3.04,7.43 -2.99,1.32 -5.92,11.73 -1.78,6.29 -1.31,13.63 -2.74,19.62 -2.97,12.39 -6.77,10.82 -9.52,30.07 -1.96,13.68 -7.01,20.9 -9.25,30.42 -2.43,10.36 -2.45,23.43 -5.05,33.93 -3.5,14.09 -6.39,9.98 -8.84,30.89 -2.45,20.79 -10.89,45.02 -13.84,65.01 -3.55,24.12 -9.34,42.11 -13.03,65.07 -2.03,12.63 -3.82,24.84 -6.23,35.46l-6.71 30.39c-0.22,0.47 -0.68,1.27 -1.13,1.82 -5.13,-9.45 -10.49,-42.58 -14.1,-56.65 -10.28,-40.04 -13.05,-67.14 -8.17,-113.64 1.95,-18.53 3.86,-32.12 7.98,-48.17l13.65 -99.49c0.95,-26.73 2.27,-63.65 -27.26,-70.03 -13.47,-2.91 -13.91,1.94 -19.87,4.9 -10.35,5.15 -8.58,1.66 -18.84,9.96 -32.81,26.54 -47.12,63.51 -66.49,99.35 -4.66,8.63 -4.54,11.47 -7.98,18.86 -8.24,17.71 -19.69,41.38 -24.03,60.05 -2.92,12.58 -1.04,9.8 -6.02,21.22 -4.72,10.82 -6.49,28.2 -12.6,44.2 -4.84,12.69 -3.73,29.08 -9.39,43.68l-18.54 125.56c-2.31,33.52 0.98,64.99 0.47,97.63 -0.14,9.37 2.5,12.23 3.58,19.39 1.22,8.09 -1.18,17 -0.49,25.5 1.01,12.47 3.83,4.9 4.84,17.76 0.63,8.1 -0.85,19.14 -0.53,27.24 0.44,11.03 2.58,8.03 3.99,18.99 1.07,8.27 -0.33,17.1 0.35,25.38 0.64,7.8 2.71,10.42 2.63,20.62 -0.08,9 -1.58,18.54 -1.39,27.57 0.23,11.25 2.36,8.27 2.36,19.89 -0.02,26.05 -6.3,52.08 -9.32,77.74 -3.6,30.66 -15.96,37.31 -26.21,55.9l-9.83 19.13c-7.39,17.66 -20.26,36.24 -28.11,53.77 -6.46,14.42 3.68,8.23 -11.18,16.18 -3.82,21.81 -6.44,17.23 -11.42,37.05 -3.36,13.36 0.47,-0.81 -5.29,9.52 -6.09,10.91 -0.55,14.31 -6.88,25.22 -5.25,9.07 -1.64,-5.24 -5.33,10.61 -0.91,3.91 -1.03,11.15 -1.64,15.31 -3.33,22.63 -4.79,-0.95 -9.62,22.03 -1.83,8.71 -0.67,21.61 -2.91,29.92 -4.02,14.96 -6.58,-4.91 -11.45,52.96 -1.13,13.44 -2.32,13.77 1.85,24.23 5.28,13.25 -0.8,12.42 3.41,24.41 1.65,4.71 2.49,1.06 4.06,9.76 3.58,19.88 6.59,13.19 12.3,31.24l22.83 33.95c5.54,5.85 7.99,8.43 14.53,14.41l37.29 32.49c20.5,17.55 84.65,48.72 108.54,52.41 23.69,3.66 53.51,-2.78 74.83,-14.24l91.73 -52.83c10.51,-6.49 18.09,-5.77 27.75,-13.41 20.27,10.74 28.61,23.17 56.16,33.5 3.3,1.23 4.06,1.08 7.2,2.61l41.53 15.74c7.9,1.7 6.58,3.25 17.37,6.48 40.38,12.09 46.46,15.77 78.62,33.02 56.83,30.48 77.11,-10.73 134.3,-34.32 8,-3.3 10.34,-7.81 17.97,-12.74l3.27 -2.07c0.52,-0.3 1.17,-0.67 1.7,-0.96 22.84,-12.37 45.22,-24.18 65.95,-39.69l15.59 -10.32c2.58,-1.81 9.06,-8.08 12.1,-11.2 3.1,-3.19 3.1,-3.75 6.52,-6.53 11,-8.95 28.03,-23.92 36.03,-36.92l4.09 -6.22c13.37,-25.11 8.9,-22.1 14.56,-36.46 3.79,-9.62 1.85,-1.33 4.61,-9.31 1.63,-4.71 1.65,-6.96 2.14,-11.94 1.56,-15.82 2.69,-31.78 4.26,-47.65 3.83,-38.79 1.06,-21.28 -2.65,-43.03 -1.2,-7.04 1.39,-15.19 0.79,-21.69 -1.46,-15.55 -3.84,-0.86 -5.69,-15.59 -1.31,-10.43 2.33,-7.96 -1.53,-19.03l-10.1 -34.57c-1.17,-4.47 -3.51,-11.8 -5.33,-17.66 -3.73,-12.01 -4.84,-22.25 -11.17,-33.87l-33.46 -75.15c-2.46,-6.19 -3.01,-12.14 -5.78,-18.22l-6.63 -14.58c-27.65,-45.8 -13.46,-51.71 -21.73,-87.79 -3.3,-14.4 -0.12,-28.57 -1.83,-43.17 -2.66,-22.63 -5.09,-6.65 -2.53,-40.82 3.22,-42.97 5.11,-94.26 15.9,-135.48 3.36,-12.83 3.42,-31.93 5.26,-45.72 11.27,-84.56 18.59,-139.91 13.97,-221.03 -0.52,-9.04 -2.47,-7.93 -3.69,-17.8 -2.19,-17.66 -0.85,-20.01 -5.5,-37.64 -5.45,-20.65 -4,-45.09 -9.79,-67.1 -1.31,-4.95 -1.02,-4.64 -2.2,-10.28 -3.15,-15.12 -27.19,-86.71 -34.4,-97 -6.7,-9.56 -3.44,-2.41 -8.07,-15.34 -4.46,-12.43 -3.74,-3.6 -9.08,-12.69l-15.62 -27.18c-9.93,-14.88 -19.75,-25.31 -34.46,-35.31 -7.15,-4.86 -5.35,-4 -13.66,-7.76 -14.16,-6.42 -13.86,-3.74 -23.57,1.7 -23.81,13.37 -13.1,47.11 -14.56,68.39 -1.73,25.05 11.39,80.37 11.91,97.54l2.99 61.5c3.01,22.22 -3.71,68.32 -5.9,93.56 -2.05,23.63 -17.82,102.25 -27.29,123.97 -4.29,9.83 -3.34,31.7 -14.12,35.16z"/>
 </g>
</svg>
