<?xml version="1.0" encoding="UTF-8"?>
<!DOCTYPE svg PUBLIC "-//W3C//DTD SVG 1.1//EN" "http://www.w3.org/Graphics/SVG/1.1/DTD/svg11.dtd">
<!-- Creator: CorelDRAW (Versión de evaluación) -->
<svg xmlns="http://www.w3.org/2000/svg" xml:space="preserve" width="391px" height="2052px" version="1.1" style="shape-rendering:geometricPrecision; text-rendering:geometricPrecision; image-rendering:optimizeQuality; fill-rule:evenodd; clip-rule:evenodd"
viewBox="0 0 391 2053.4"
 xmlns:xlink="http://www.w3.org/1999/xlink"
 xmlns:xodm="http://www.corel.com/coreldraw/odm/2003">
 <defs>
  <style type="text/css">
   <![CDATA[
    .fil4 {fill:#4B4B4D}
    .fil1 {fill:#FFCC29}
    .fil3 {fill:#F7ADAF}
    .fil2 {fill:#F3EDD9}
    .fil0 {fill:#F8FBFF}
   ]]>
  </style>
 </defs>
 <g id="pulpotomy">
  <metadata id="CorelCorpID_0Corel-Layer"/>
  <polygon id="crown" class="fil0" points="211.37,308.25 247.17,308.25 247.17,311.01 280.21,311.01 280.21,313.76 291.22,313.76 291.22,316.51 307.74,316.51 307.74,319.27 318.76,319.27 318.76,322.02 324.26,322.02 324.26,324.77 329.77,324.77 329.77,327.53 335.28,327.53 335.28,330.28 340.79,330.28 340.79,333.04 343.54,333.04 343.54,335.79 346.29,335.79 346.29,338.54 349.05,338.54 349.05,341.29 351.8,341.29 351.8,344.05 354.55,344.05 354.55,349.56 357.31,349.56 357.31,355.06 360.06,355.06 360.06,366.08 362.81,366.08 362.81,377.09 365.57,377.09 365.57,388.11 368.32,388.11 368.32,467.96 365.57,467.96 365.57,492.74 362.81,492.74 362.81,523.03 360.06,523.03 360.06,553.31 357.31,553.31 357.31,564.33 354.55,564.33 354.55,580.85 351.8,580.85 351.8,591.87 349.05,591.87 349.05,605.63 346.29,605.63 346.29,619.4 343.54,619.4 343.54,635.92 340.79,635.92 340.79,646.93 338.03,646.93 338.03,660.7 335.28,660.7 335.28,668.96 332.52,668.96 332.52,685.48 329.77,685.48 329.77,696.5 327.02,696.5 327.02,702 324.26,702 324.26,713.02 321.51,713.02 321.51,724.03 318.76,724.03 318.76,732.29 316,732.29 316,746.06 313.25,746.06 313.25,754.32 310.5,754.32 310.5,759.83 307.74,759.83 307.74,768.09 304.99,768.09 304.99,773.6 302.24,773.6 302.24,781.86 299.48,781.86 299.48,787.36 296.73,787.36 296.73,795.62 293.98,795.62 293.98,801.13 291.22,801.13 291.22,806.64 288.47,806.64 288.47,812.15 285.72,812.15 285.72,817.65 282.96,817.65 282.96,823.16 280.21,823.16 280.21,828.67 277.46,828.67 277.46,831.42 274.7,831.42 274.7,836.93 271.95,836.93 271.95,839.68 269.19,839.68 269.19,845.19 266.44,845.19 266.44,847.94 263.69,847.94 263.69,850.69 260.94,850.69 260.94,856.2 258.18,856.2 258.18,858.95 255.42,858.95 255.42,861.71 252.67,861.71 252.67,864.46 249.92,864.46 249.92,867.21 247.17,867.21 247.17,869.97 244.41,869.97 244.41,872.72 238.9,872.72 238.9,875.47 236.15,875.47 236.15,878.23 233.4,878.23 233.4,880.98 227.89,880.98 227.89,883.74 222.38,883.74 222.38,886.49 216.88,886.49 216.88,889.24 211.37,889.24 211.37,892 175.57,892 175.57,889.24 167.31,889.24 167.31,886.49 161.81,886.49 161.81,883.74 156.3,883.74 156.3,880.98 150.79,880.98 150.79,878.23 148.04,878.23 148.04,875.47 145.29,875.47 145.29,872.72 142.53,872.72 142.53,869.97 139.78,869.97 139.78,867.21 137.03,867.21 137.03,864.46 134.27,864.46 134.27,861.71 131.52,861.71 131.52,858.95 128.77,858.95 128.77,856.2 126.01,856.2 126.01,853.45 123.26,853.45 123.26,850.69 120.51,850.69 120.51,845.19 117.75,845.19 117.75,842.43 115,842.43 115,836.93 112.25,836.93 112.25,831.42 109.49,831.42 109.49,825.91 106.74,825.91 106.74,823.16 103.98,823.16 103.98,814.9 101.23,814.9 101.23,809.39 98.48,809.39 98.48,803.89 95.72,803.89 95.72,798.38 92.97,798.38 92.97,792.87 90.21,792.87 90.21,787.36 87.46,787.36 87.46,779.1 84.71,779.1 84.71,770.84 81.95,770.84 81.95,765.34 79.2,765.34 79.2,759.83 76.45,759.83 76.45,748.82 73.69,748.82 73.69,743.31 70.94,743.31 70.94,732.29 68.19,732.29 68.19,724.03 65.43,724.03 65.43,713.02 62.68,713.02 62.68,702 59.93,702 59.93,688.24 57.17,688.24 57.17,679.98 54.42,679.98 54.42,666.21 51.67,666.21 51.67,655.2 48.91,655.2 48.91,641.43 46.16,641.43 46.16,627.66 43.41,627.66 43.41,616.65 40.65,616.65 40.65,600.13 37.9,600.13 37.9,583.6 35.15,583.6 35.15,564.33 32.39,564.33 32.39,545.05 29.64,545.05 29.64,520.27 26.88,520.27 26.88,484.48 24.13,484.48 24.13,363.33 26.88,363.33 26.88,349.56 29.64,349.56 29.64,341.29 32.39,341.29 32.39,335.79 35.15,335.79 35.15,330.28 37.9,330.28 37.9,327.53 40.65,327.53 40.65,324.77 43.41,324.77 43.41,322.02 46.16,322.02 46.16,319.27 51.67,319.27 51.67,316.51 57.17,316.51 57.17,313.76 68.19,313.76 68.19,311.01 90.21,311.01 90.21,308.25 117.75,308.25 117.75,305.5 211.37,305.5 "/>
  <g id="_2327736809264">
   <polygon class="fil1" points="173,393.79 150.97,393.79 150.97,396.54 139.95,396.54 139.95,399.3 134.45,399.3 134.45,402.05 128.94,402.05 128.94,404.81 126.19,404.81 126.19,407.56 123.43,407.56 123.43,410.31 120.68,410.31 120.68,413.07 117.93,413.07 117.93,418.57 115.17,418.57 115.17,424.08 112.42,424.08 112.42,432.34 109.67,432.34 109.67,437.49 112.42,437.49 112.42,462.27 115.17,462.27 115.17,481.55 117.93,481.55 117.93,500.82 120.68,500.82 120.68,517.34 123.43,517.34 123.43,533.87 126.19,533.87 126.19,544.88 128.94,544.88 128.94,558.65 131.69,558.65 131.69,572.41 134.45,572.41 134.45,583.43 137.2,583.43 137.2,597.2 139.95,597.2 139.95,605.46 142.71,605.46 142.71,619.22 145.46,619.22 145.46,630.24 148.22,630.24 148.22,641.25 150.97,641.25 150.97,649.51 153.72,649.51 153.72,660.52 156.48,660.52 156.48,666.03 159.23,666.03 159.23,677.05 161.98,677.05 161.98,682.55 164.74,682.55 164.74,688.06 167.49,688.06 167.49,696.32 170.25,696.32 170.25,704.58 173,704.58 173,710.09 175.75,710.09 175.75,715.6 178.51,715.6 178.51,721.1 181.26,721.1 181.26,726.61 184.01,726.61 184.01,732.12 186.77,732.12 186.77,740.38 189.52,740.38 189.52,743.13 192.27,743.13 192.27,748.64 194.67,748.64 194.67,745.88 197.42,745.88 197.42,740.38 200.18,740.38 200.18,734.87 202.93,734.87 202.93,729.36 205.69,729.36 205.69,723.86 208.44,723.86 208.44,718.35 211.19,718.35 211.19,712.84 213.95,712.84 213.95,704.58 216.7,704.58 216.7,699.08 219.46,699.08 219.46,690.82 222.21,690.82 222.21,685.31 224.96,685.31 224.96,677.05 227.72,677.05 227.72,671.54 230.47,671.54 230.47,663.28 233.22,663.28 233.22,649.51 235.98,649.51 235.98,641.25 238.73,641.25 238.73,630.24 241.48,630.24 241.48,619.22 244.24,619.22 244.24,613.72 246.99,613.72 246.99,602.7 249.74,602.7 249.74,586.18 252.5,586.18 252.5,577.92 255.25,577.92 255.25,564.15 258,564.15 258,553.14 260.76,553.14 260.76,536.62 263.51,536.62 263.51,522.85 266.26,522.85 266.26,509.08 269.02,509.08 269.02,498.07 271.77,498.07 271.77,481.55 274.52,481.55 274.52,470.53 277.28,470.53 277.28,437.85 274.52,437.85 274.52,432.34 271.77,432.34 271.77,426.83 269.02,426.83 269.02,424.08 266.26,424.08 266.26,421.33 263.51,421.33 263.51,418.57 260.76,418.57 260.76,415.82 258,415.82 258,413.07 252.5,413.07 252.5,410.31 246.99,410.31 246.99,407.56 241.48,407.56 241.48,404.81 235.98,404.81 235.98,402.05 224.96,402.05 224.96,399.3 208.44,399.3 208.44,396.54 197.42,396.54 197.42,393.79 "/>
  </g>
  <polygon id="root" class="fil2" points="81.95,831.42 84.71,831.42 84.71,836.93 87.46,836.93 87.46,842.43 90.21,842.43 90.21,845.19 92.97,845.19 92.97,850.69 95.72,850.69 95.72,856.2 98.48,856.2 98.48,858.95 101.23,858.95 101.23,861.71 103.98,861.71 103.98,867.21 106.74,867.21 106.74,869.97 109.49,869.97 109.49,872.72 112.25,872.72 112.25,878.23 115,878.23 115,880.98 117.75,880.98 117.75,883.74 120.51,883.74 120.51,886.49 123.26,886.49 123.26,889.24 126.01,889.24 126.01,892 131.52,892 131.52,894.75 134.27,894.75 134.27,897.51 137.03,897.51 137.03,900.26 142.53,900.26 142.53,903.01 145.29,903.01 145.29,905.77 150.79,905.77 150.79,908.52 156.3,908.52 156.3,911.27 164.56,911.27 164.56,914.03 175.57,914.03 175.57,916.78 211.37,916.78 211.37,914.03 219.63,914.03 219.63,911.27 225.14,911.27 225.14,908.52 230.64,908.52 230.64,905.77 236.15,905.77 236.15,903.01 241.66,903.01 241.66,900.26 247.17,900.26 247.17,897.51 249.92,897.51 249.92,894.75 252.67,894.75 252.67,892 258.18,892 258.18,889.24 260.94,889.24 260.94,886.49 263.69,886.49 263.69,883.74 266.44,883.74 266.44,880.98 269.19,880.98 269.19,878.23 271.95,878.23 271.95,875.47 274.7,875.47 274.7,872.72 277.46,872.72 277.46,869.97 280.21,869.97 280.21,867.21 282.96,867.21 282.96,861.71 285.72,861.71 285.72,858.95 288.47,858.95 288.47,856.2 291.22,856.2 291.22,850.69 293.98,850.69 293.98,847.94 296.73,847.94 296.73,842.43 299.48,842.43 299.48,839.68 302.24,839.68 302.24,856.2 299.48,856.2 299.48,911.27 296.73,911.27 296.73,933.3 293.98,933.3 293.98,977.36 291.22,977.36 291.22,1054.46 288.47,1054.46 288.47,1115.03 285.72,1115.03 285.72,1159.09 282.96,1159.09 282.96,1194.88 280.21,1194.88 280.21,1230.68 277.46,1230.68 277.46,1252.7 274.7,1252.7 274.7,1280.24 271.95,1280.24 271.95,1318.79 269.19,1318.79 269.19,1343.57 266.44,1343.57 266.44,1365.6 263.69,1365.6 263.69,1382.12 260.94,1382.12 260.94,1401.39 258.18,1401.39 258.18,1417.92 255.42,1417.92 255.42,1434.44 252.67,1434.44 252.67,1450.96 249.92,1450.96 249.92,1478.49 247.17,1478.49 247.17,1497.77 244.41,1497.77 244.41,1525.3 241.66,1525.3 241.66,1547.33 238.9,1547.33 238.9,1566.61 236.15,1566.61 236.15,1588.64 233.4,1588.64 233.4,1599.65 230.64,1599.65 230.64,1621.68 227.89,1621.68 227.89,1640.95 225.14,1640.95 225.14,1657.47 222.38,1657.47 222.38,1671.24 219.63,1671.24 219.63,1687.76 216.88,1687.76 216.88,1698.77 214.12,1698.77 214.12,1712.54 211.37,1712.54 211.37,1720.8 208.62,1720.8 208.62,1726.31 205.86,1726.31 205.86,1731.81 203.11,1731.81 203.11,1737.33 200.36,1737.33 200.36,1742.83 197.6,1742.83 197.6,1745.58 194.85,1745.58 194.85,1748.34 181.08,1748.34 181.08,1745.58 178.33,1745.58 178.33,1742.83 175.57,1742.83 175.57,1740.08 172.82,1740.08 172.82,1734.57 170.07,1734.57 170.07,1729.06 167.31,1729.06 167.31,1723.56 164.56,1723.56 164.56,1715.29 161.81,1715.29 161.81,1701.53 159.05,1701.53 159.05,1693.27 156.3,1693.27 156.3,1679.5 153.55,1679.5 153.55,1671.24 150.79,1671.24 150.79,1657.47 148.04,1657.47 148.04,1635.44 145.29,1635.44 145.29,1624.43 142.53,1624.43 142.53,1602.4 139.78,1602.4 139.78,1583.13 137.03,1583.13 137.03,1569.36 134.27,1569.36 134.27,1547.33 131.52,1547.33 131.52,1528.06 128.77,1528.06 128.77,1519.8 126.01,1519.8 126.01,1489.51 123.26,1489.51 123.26,1470.23 120.51,1470.23 120.51,1459.22 117.75,1459.22 117.75,1428.93 115,1428.93 115,1415.16 112.25,1415.16 112.25,1393.13 109.49,1393.13 109.49,1362.85 106.74,1362.85 106.74,1340.82 103.98,1340.82 103.98,1285.75 101.23,1285.75 101.23,1249.95 98.48,1249.95 98.48,1205.9 95.72,1205.9 95.72,1156.33 92.97,1156.33 92.97,1076.48 90.21,1076.48 90.21,1004.89 87.46,1004.89 87.46,925.04 84.71,925.04 84.71,878.23 81.95,878.23 81.95,847.94 79.2,847.94 79.2,828.67 81.95,828.67 "/>
  <g id="_2327736809504">
   <polygon class="fil3" points="151.85,978.41 151.85,1014.85 154.6,1014.85 154.6,1094.7 157.36,1094.7 157.36,1144.27 160.11,1144.27 160.11,1188.32 162.86,1188.32 162.86,1224.12 165.61,1224.12 165.61,1279.19 168.37,1279.19 168.37,1301.21 171.12,1301.21 171.12,1331.5 173.88,1331.5 173.88,1353.53 176.63,1353.53 176.63,1367.3 179.38,1367.3 179.38,1397.59 182.14,1397.59 182.14,1408.6 184.89,1408.6 184.89,1427.88 185.53,1427.88 185.53,1416.86 188.29,1416.86 188.29,1389.33 191.04,1389.33 191.04,1372.81 193.79,1372.81 193.79,1356.28 196.55,1356.28 196.55,1339.76 199.3,1339.76 199.3,1320.49 202.06,1320.49 202.06,1303.97 204.81,1303.97 204.81,1281.94 207.56,1281.94 207.56,1257.16 210.32,1257.16 210.32,1218.61 213.07,1218.61 213.07,1191.07 215.82,1191.07 215.82,1169.05 218.58,1169.05 218.58,1133.25 221.33,1133.25 221.33,1097.46 224.09,1097.46 224.09,1053.4 226.84,1053.4 226.84,992.82 229.59,992.82 229.59,978.41 "/>
  </g>
  <path id="outline" class="fil4" d="M81.95 878.23l2.76 0 0 46.81 2.75 0 0 79.85 2.75 0 0 71.59 2.76 0 0 79.85 2.75 0 0 49.57 2.76 0 0 44.05 2.75 0 0 35.8 2.75 0 0 55.07 2.76 0 0 22.03 2.75 0 0 30.28 2.76 0 0 22.03 2.75 0 0 13.77 2.75 0 0 30.29 2.76 0 0 11.01 2.75 0 0 19.28 2.75 0 0 30.29 2.76 0 0 8.26 2.75 0 0 19.27 2.75 0 0 22.03 2.76 0 0 13.77 2.75 0 0 19.27 2.75 0 0 22.03 2.76 0 0 11.01 2.75 0 0 22.03 2.75 0 0 13.77 2.76 0 0 8.26 2.75 0 0 13.77 2.75 0 0 8.26 2.76 0 0 13.76 2.75 0 0 8.27 2.75 0 0 5.5 2.76 0 0 5.51 2.75 0 0 5.51 2.75 0 0 2.75 2.76 0 0 2.75 2.75 0 0 2.76 13.77 0 0 -2.76 2.75 0 0 -2.75 2.76 0 0 -5.5 2.75 0 0 -5.52 2.75 0 0 -5.5 2.76 0 0 -5.51 2.75 0 0 -8.26 2.75 0 0 -13.77 2.76 0 0 -11.01 2.75 0 0 -16.52 2.75 0 0 -13.77 2.76 0 0 -16.52 2.75 0 0 -19.27 2.75 0 0 -22.03 2.76 0 0 -11.01 2.75 0 0 -22.03 2.75 0 0 -19.28 2.76 0 0 -22.03 2.75 0 0 -27.53 2.76 0 0 -19.28 2.75 0 0 -27.53 2.75 0 0 -16.52 2.75 0 0 -16.52 2.76 0 0 -16.53 2.76 0 0 -19.27 2.75 0 0 -16.52 2.75 0 0 -22.03 2.75 0 0 -24.78 2.76 0 0 -38.55 2.75 0 0 -27.54 2.76 0 0 -22.02 2.75 0 0 -35.8 2.75 0 0 -35.79 2.76 0 0 -44.06 2.75 0 0 -60.57 2.75 0 0 -77.1 2.76 0 0 -44.06 2.75 0 0 -22.03 2.75 0 0 -55.07 2.76 0 0 -16.52 -2.76 0 0 2.75 -2.75 0 0 5.51 -2.75 0 0 2.75 -2.76 0 0 5.51 -2.75 0 0 2.75 -2.75 0 0 2.76 -2.76 0 0 5.5 -2.75 0 0 2.76 -2.75 0 0 2.75 -2.76 0 0 2.75 -2.75 0 0 2.76 -2.76 0 0 2.75 -2.75 0 0 2.76 -2.75 0 0 2.75 -2.75 0 0 2.75 -2.76 0 0 2.76 -5.51 0 0 2.75 -2.75 0 0 2.76 -2.75 0 0 2.75 -5.51 0 0 2.75 -5.51 0 0 2.76 -5.51 0 0 2.75 -5.5 0 0 2.75 -5.51 0 0 2.76 -8.26 0 0 2.75 -35.8 0 0 -2.75 -11.01 0 0 -2.76 -8.26 0 0 -2.75 -5.51 0 0 -2.75 -5.5 0 0 -2.76 -2.76 0 0 -2.75 -5.5 0 0 -2.75 -2.76 0 0 -2.76 -2.75 0 0 -2.75 -5.51 0 0 -2.76 -2.75 0 0 -2.75 -2.75 0 0 -2.75 -2.76 0 0 -2.76 -2.75 0 0 -2.75 -2.75 0 0 -5.51 -2.76 0 0 -2.75 -2.75 0 0 -2.76 -2.76 0 0 -5.5 -2.75 0 0 -2.76 -2.75 0 0 -2.75 -2.76 0 0 -5.51 -2.75 0 0 -5.5 -2.76 0 0 -2.76 -2.75 0 0 -5.5 -2.75 0 0 -5.51 -2.76 0 0 -2.75 -2.75 0 0 19.27 2.75 0 0 30.29zm286.37 -490.12l-2.75 0 0 -11.02 -2.76 0 0 -11.01 -2.75 0 0 -11.02 -2.75 0 0 -5.5 -2.76 0 0 -5.51 -2.75 0 0 -2.76 -2.75 0 0 -2.75 -2.76 0 0 -2.75 -2.75 0 0 -2.75 -2.75 0 0 -2.76 -5.51 0 0 -2.75 -5.51 0 0 -2.76 -5.51 0 0 -2.75 -5.5 0 0 -2.75 -11.02 0 0 -2.76 -16.52 0 0 -2.75 -11.01 0 0 -2.75 -33.04 0 0 -2.76 -35.8 0 0 -2.75 -93.62 0 0 2.75 -27.54 0 0 2.76 -22.02 0 0 2.75 -11.02 0 0 2.75 -5.5 0 0 2.76 -5.51 0 0 2.75 -2.75 0 0 2.75 -2.76 0 0 2.76 -2.75 0 0 2.75 -2.75 0 0 5.51 -2.76 0 0 5.5 -2.75 0 0 8.27 -2.76 0 0 13.77 -2.75 0 0 121.15 2.75 0 0 35.79 2.76 0 0 24.78 2.75 0 0 19.28 2.76 0 0 19.27 2.75 0 0 16.53 2.75 0 0 16.52 2.76 0 0 11.01 2.75 0 0 13.77 2.75 0 0 13.77 2.76 0 0 11.01 2.75 0 0 13.77 2.75 0 0 8.26 2.76 0 0 13.76 2.75 0 0 11.02 2.75 0 0 11.01 2.76 0 0 8.26 2.75 0 0 11.02 2.75 0 0 5.51 2.76 0 0 11.01 2.75 0 0 5.51 2.75 0 0 5.5 2.76 0 0 8.26 2.75 0 0 8.26 2.75 0 0 5.51 2.76 0 0 5.51 2.75 0 0 5.51 2.76 0 0 5.5 2.75 0 0 5.51 2.75 0 0 8.26 2.76 0 0 2.75 2.75 0 0 5.51 2.76 0 0 5.51 2.75 0 0 5.5 2.75 0 0 2.76 2.76 0 0 5.5 2.75 0 0 2.76 2.75 0 0 2.75 2.76 0 0 2.75 2.75 0 0 2.76 2.75 0 0 2.75 2.76 0 0 2.75 2.75 0 0 2.76 2.75 0 0 2.75 2.76 0 0 2.75 2.75 0 0 2.76 2.75 0 0 2.75 5.51 0 0 2.76 5.51 0 0 2.75 5.5 0 0 2.75 8.26 0 0 2.76 35.8 0 0 -2.76 5.51 0 0 -2.75 5.5 0 0 -2.75 5.51 0 0 -2.76 5.51 0 0 -2.75 2.75 0 0 -2.76 2.75 0 0 -2.75 5.51 0 0 -2.75 2.76 0 0 -2.76 2.75 0 0 -2.75 2.75 0 0 -2.75 2.75 0 0 -2.76 2.76 0 0 -2.75 2.76 0 0 -5.51 2.75 0 0 -2.75 2.75 0 0 -2.75 2.75 0 0 -5.51 2.76 0 0 -2.75 2.75 0 0 -5.51 2.76 0 0 -2.75 2.75 0 0 -5.51 2.75 0 0 -5.51 2.76 0 0 -5.5 2.75 0 0 -5.51 2.75 0 0 -5.51 2.76 0 0 -5.51 2.75 0 0 -8.26 2.75 0 0 -5.5 2.76 0 0 -8.26 2.75 0 0 -5.51 2.75 0 0 -8.26 2.76 0 0 -5.51 2.75 0 0 -8.26 2.75 0 0 -13.77 2.76 0 0 -8.26 2.75 0 0 -11.01 2.75 0 0 -11.02 2.76 0 0 -5.5 2.75 0 0 -11.02 2.75 0 0 -16.52 2.76 0 0 -8.26 2.75 0 0 -13.77 2.76 0 0 -11.01 2.75 0 0 -16.52 2.75 0 0 -13.77 2.76 0 0 -13.76 2.75 0 0 -11.02 2.75 0 0 -16.52 2.76 0 0 -11.02 2.75 0 0 -30.28 2.75 0 0 -30.29 2.76 0 0 -24.78 2.75 0 0 -79.85zm-140.43 -104.64l27.53 0 0 2.76 16.53 0 0 2.75 22.03 0 0 2.75 16.52 0 0 2.76 11.01 0 0 2.75 8.26 0 0 2.75 5.51 0 0 2.76 5.51 0 0 2.75 5.5 0 0 2.75 5.51 0 0 2.76 5.51 0 0 2.75 2.75 0 0 2.75 2.75 0 0 2.76 2.76 0 0 2.75 2.75 0 0 2.75 2.75 0 0 2.76 2.76 0 0 5.51 2.75 0 0 5.5 2.75 0 0 8.26 2.76 0 0 5.51 2.75 0 0 16.52 2.75 0 0 5.51 2.76 0 0 121.15 -2.76 0 0 30.29 -2.75 0 0 19.27 -2.75 0 0 19.28 -2.76 0 0 16.52 -2.75 0 0 8.26 -2.75 0 0 16.52 -2.76 0 0 13.77 -2.75 0 0 13.77 -2.75 0 0 13.76 -2.76 0 0 13.77 -2.75 0 0 13.77 -2.75 0 0 11.01 -2.76 0 0 11.02 -2.75 0 0 11.01 -2.75 0 0 11.02 -2.76 0 0 5.5 -2.75 0 0 11.02 -2.75 0 0 8.26 -2.76 0 0 8.26 -2.75 0 0 13.77 -2.76 0 0 22.02 -2.75 0 0 30.29 -2.75 0 0 27.54 -2.76 0 0 46.81 -2.75 0 0 24.78 -2.75 0 0 55.07 -2.76 0 0 49.56 -2.75 0 0 66.09 -2.75 0 0 60.57 -2.76 0 0 27.54 -2.75 0 0 52.31 -2.75 0 0 33.05 -2.76 0 0 11.01 -2.75 0 0 35.8 -2.75 0 0 24.78 -2.76 0 0 19.27 -2.75 0 0 19.28 -2.75 0 0 19.27 -2.76 0 0 19.27 -2.75 0 0 19.28 -2.75 0 0 30.29 -2.76 0 0 11.01 -2.75 0 0 30.29 -2.76 0 0 13.77 -2.75 0 0 16.52 -2.75 0 0 24.78 -2.75 0 0 19.28 -2.76 0 0 22.03 -2.76 0 0 19.27 -2.75 0 0 13.77 -2.75 0 0 16.52 -2.75 0 0 24.78 -2.76 0 0 13.77 -2.75 0 0 13.76 -2.76 0 0 8.26 -2.75 0 0 13.77 -2.75 0 0 5.51 -2.76 0 0 8.26 -2.75 0 0 8.26 -2.75 0 0 5.51 -2.76 0 0 2.75 -2.75 0 0 5.51 -2.75 0 0 2.75 -2.76 0 0 2.76 -2.75 0 0 2.75 -2.75 0 0 2.75 -5.51 0 0 2.76 -5.51 0 0 2.75 -22.03 0 0 -2.75 -5.5 0 0 -2.76 -2.76 0 0 -2.75 -5.5 0 0 -2.75 -2.76 0 0 -2.76 -2.75 0 0 -5.5 -2.75 0 0 -2.76 -2.76 0 0 -5.51 -2.75 0 0 -5.5 -2.75 0 0 -8.27 -2.76 0 0 -8.25 -2.75 0 0 -8.27 -2.75 0 0 -11.01 -2.76 0 0 -13.77 -2.75 0 0 -13.76 -2.75 0 0 -8.26 -2.76 0 0 -13.77 -2.75 0 0 -19.28 -2.75 0 0 -8.26 -2.76 0 0 -16.52 -2.75 0 0 -19.27 -2.75 0 0 -27.54 -2.76 0 0 -13.77 -2.75 0 0 -16.52 -2.76 0 0 -22.02 -2.75 0 0 -19.28 -2.75 0 0 -24.78 -2.76 0 0 -22.03 -2.75 0 0 -22.03 -2.76 0 0 -22.03 -2.75 0 0 -27.53 -2.75 0 0 -16.52 -2.76 0 0 -30.29 -2.75 0 0 -44.05 -2.75 0 0 -57.83 -2.76 0 0 -30.29 -2.75 0 0 -85.35 -2.75 0 0 -68.84 -2.76 0 0 -66.09 -2.75 0 0 -38.55 -2.75 0 0 -85.36 -2.76 0 0 -33.04 -2.75 0 0 -38.55 -2.75 0 0 -24.78 -2.76 0 0 -8.26 -2.75 0 0 -11.01 -2.75 0 0 -13.77 -2.76 0 0 -8.26 -2.75 0 0 -13.77 -2.75 0 0 -11.01 -2.76 0 0 -5.51 -2.75 0 0 -13.77 -2.76 0 0 -11.01 -2.75 0 0 -11.02 -2.75 0 0 -11.01 -2.76 0 0 -22.03 -2.75 0 0 -16.52 -2.75 0 0 -11.01 -2.76 0 0 -22.03 -2.75 0 0 -22.03 -2.75 0 0 -16.52 -2.76 0 0 -27.53 -2.75 0 0 -121.16 2.75 0 0 -27.53 2.76 0 0 -11.02 2.75 0 0 -8.26 2.75 0 0 -5.51 2.76 0 0 -5.5 2.75 0 0 -2.76 2.75 0 0 -5.5 2.76 0 0 -2.76 2.75 0 0 -2.75 2.75 0 0 -2.75 5.51 0 0 -2.76 2.76 0 0 -2.75 5.5 0 0 -2.75 5.51 0 0 -2.76 8.26 0 0 -2.75 11.01 0 0 -2.75 13.77 0 0 -2.76 44.06 0 0 -2.75 104.63 0 0 2.75z"/>
 </g>
</svg>
