<?xml version="1.0" encoding="UTF-8"?>
<!DOCTYPE svg PUBLIC "-//W3C//DTD SVG 1.1//EN" "http://www.w3.org/Graphics/SVG/1.1/DTD/svg11.dtd">
<!-- Creator: CorelDRAW (Versión de evaluación) -->
<svg xmlns="http://www.w3.org/2000/svg" xml:space="preserve" width="523px" height="2052px" version="1.1" style="shape-rendering:geometricPrecision; text-rendering:geometricPrecision; image-rendering:optimizeQuality; fill-rule:evenodd; clip-rule:evenodd"
viewBox="0 0 523 2052.74"
 xmlns:xlink="http://www.w3.org/1999/xlink"
 xmlns:xodm="http://www.corel.com/coreldraw/odm/2003">
 <defs>
  <style type="text/css">
   <![CDATA[
    .fil4 {fill:#4B4B4D}
    .fil1 {fill:#FFCC29}
    .fil3 {fill:#EECEE2}
    .fil2 {fill:#F3EDD9}
    .fil0 {fill:#F8FBFF}
   ]]>
  </style>
 </defs>
 <g id="pulpotomy">
  <metadata id="CorelCorpID_0Corel-Layer"/>
  <polygon id="crown" class="fil0" points="258.22,1164.83 238.95,1164.83 238.95,1167.58 230.7,1167.58 230.7,1170.33 222.44,1170.33 222.44,1173.08 216.93,1173.08 216.93,1175.84 211.43,1175.84 211.43,1178.59 205.92,1178.59 205.92,1181.34 200.42,1181.34 200.42,1184.09 194.91,1184.09 194.91,1186.85 192.16,1186.85 192.16,1189.6 186.65,1189.6 186.65,1192.35 183.9,1192.35 183.9,1195.11 181.15,1195.11 181.15,1197.86 178.39,1197.86 178.39,1200.61 172.89,1200.61 172.89,1203.36 170.14,1203.36 170.14,1206.11 167.39,1206.11 167.39,1208.87 164.63,1208.87 164.63,1211.62 161.88,1211.62 161.88,1214.37 159.13,1214.37 159.13,1219.88 156.38,1219.88 156.38,1222.63 153.62,1222.63 153.62,1225.38 150.87,1225.38 150.87,1228.14 148.12,1228.14 148.12,1230.89 145.36,1230.89 145.36,1233.64 142.61,1233.64 142.61,1239.15 139.86,1239.15 139.86,1241.9 137.11,1241.9 137.11,1244.65 134.36,1244.65 134.36,1250.16 131.6,1250.16 131.6,1252.91 128.85,1252.91 128.85,1258.42 126.1,1258.42 126.1,1261.17 123.34,1261.17 123.34,1266.67 120.59,1266.67 120.59,1272.18 117.84,1272.18 117.84,1274.93 115.09,1274.93 115.09,1280.44 112.33,1280.44 112.33,1285.94 109.58,1285.94 109.58,1291.45 106.83,1291.45 106.83,1296.95 104.07,1296.95 104.07,1302.46 101.32,1302.46 101.32,1307.96 98.57,1307.96 98.57,1313.47 95.82,1313.47 95.82,1321.73 93.07,1321.73 93.07,1327.23 90.31,1327.23 90.31,1332.74 87.56,1332.74 87.56,1340.99 84.81,1340.99 84.81,1349.25 82.05,1349.25 82.05,1354.76 79.3,1354.76 79.3,1363.01 76.55,1363.01 76.55,1371.27 73.8,1371.27 73.8,1379.53 71.04,1379.53 71.04,1385.04 68.29,1385.04 68.29,1396.05 65.54,1396.05 65.54,1407.06 62.78,1407.06 62.78,1412.56 60.03,1412.56 60.03,1423.57 57.28,1423.57 57.28,1431.83 54.53,1431.83 54.53,1440.09 51.78,1440.09 51.78,1456.6 49.02,1456.6 49.02,1467.62 46.27,1467.62 46.27,1478.62 43.52,1478.62 43.52,1486.88 40.77,1486.88 40.77,1503.4 38.01,1503.4 38.01,1519.91 35.26,1519.91 35.26,1539.18 32.51,1539.18 32.51,1555.7 29.75,1555.7 29.75,1583.23 27,1583.23 27,1621.76 24.25,1621.76 24.25,1687.83 27,1687.83 27,1712.6 29.75,1712.6 29.75,1726.36 32.51,1726.36 32.51,1731.86 35.26,1731.86 35.26,1740.12 38.01,1740.12 38.01,1748.38 40.77,1748.38 40.77,1753.89 43.52,1753.89 43.52,1756.64 46.27,1756.64 46.27,1762.15 49.02,1762.15 49.02,1764.9 51.78,1764.9 51.78,1767.65 54.53,1767.65 54.53,1770.4 57.28,1770.4 57.28,1773.15 62.78,1773.15 62.78,1775.91 65.54,1775.91 65.54,1778.66 68.29,1778.66 68.29,1781.41 73.8,1781.41 73.8,1784.17 79.3,1784.17 79.3,1786.92 84.81,1786.92 84.81,1789.67 90.31,1789.67 90.31,1792.42 95.82,1792.42 95.82,1795.18 109.58,1795.18 109.58,1797.93 117.84,1797.93 117.84,1800.68 128.85,1800.68 128.85,1803.44 148.12,1803.44 148.12,1806.19 164.63,1806.19 164.63,1808.94 189.41,1808.94 189.41,1811.69 214.18,1811.69 214.18,1814.44 384.84,1814.44 384.84,1811.69 409.62,1811.69 409.62,1808.94 434.39,1808.94 434.39,1806.19 442.65,1806.19 442.65,1803.44 453.66,1803.44 453.66,1800.68 459.16,1800.68 459.16,1797.93 464.67,1797.93 464.67,1795.18 470.17,1795.18 470.17,1792.42 472.93,1792.42 472.93,1789.67 475.68,1789.67 475.68,1786.92 481.19,1786.92 481.19,1781.41 483.94,1781.41 483.94,1778.66 486.69,1778.66 486.69,1773.15 489.44,1773.15 489.44,1767.65 492.19,1767.65 492.19,1756.64 494.95,1756.64 494.95,1751.14 497.7,1751.14 497.7,1712.6 500.45,1712.6 500.45,1630.02 497.7,1630.02 497.7,1588.73 494.95,1588.73 494.95,1552.95 492.19,1552.95 492.19,1506.15 489.44,1506.15 489.44,1484.13 486.69,1484.13 486.69,1456.6 483.94,1456.6 483.94,1442.84 481.19,1442.84 481.19,1423.57 478.43,1423.57 478.43,1404.3 475.68,1404.3 475.68,1396.05 472.93,1396.05 472.93,1379.53 470.17,1379.53 470.17,1368.52 467.42,1368.52 467.42,1354.76 464.67,1354.76 464.67,1346.5 461.92,1346.5 461.92,1340.99 459.16,1340.99 459.16,1329.98 456.41,1329.98 456.41,1321.73 453.66,1321.73 453.66,1313.47 450.91,1313.47 450.91,1307.96 448.15,1307.96 448.15,1302.46 445.4,1302.46 445.4,1294.2 442.65,1294.2 442.65,1288.69 439.9,1288.69 439.9,1283.19 437.14,1283.19 437.14,1277.68 434.39,1277.68 434.39,1272.18 431.64,1272.18 431.64,1266.67 428.89,1266.67 428.89,1261.17 426.13,1261.17 426.13,1258.42 423.38,1258.42 423.38,1252.91 420.63,1252.91 420.63,1250.16 417.87,1250.16 417.87,1244.65 415.12,1244.65 415.12,1241.9 412.37,1241.9 412.37,1239.15 409.62,1239.15 409.62,1236.4 406.87,1236.4 406.87,1230.89 404.11,1230.89 404.11,1228.14 401.36,1228.14 401.36,1225.38 398.61,1225.38 398.61,1222.63 395.85,1222.63 395.85,1219.88 393.1,1219.88 393.1,1217.13 390.35,1217.13 390.35,1214.37 387.6,1214.37 387.6,1211.62 384.84,1211.62 384.84,1208.87 382.09,1208.87 382.09,1206.11 379.34,1206.11 379.34,1203.36 376.58,1203.36 376.58,1200.61 373.83,1200.61 373.83,1197.86 368.33,1197.86 368.33,1195.11 365.58,1195.11 365.58,1192.35 362.82,1192.35 362.82,1189.6 357.32,1189.6 357.32,1186.85 354.56,1186.85 354.56,1184.09 349.06,1184.09 349.06,1181.34 343.55,1181.34 343.55,1178.59 338.05,1178.59 338.05,1175.84 332.54,1175.84 332.54,1173.08 324.29,1173.08 324.29,1170.33 318.78,1170.33 318.78,1167.58 305.02,1167.58 305.02,1164.83 291.25,1164.83 291.25,1162.07 258.22,1162.07 "/>
  <g id="_2327750378064">
   <polygon class="fil1" points="276.27,1262.39 273.21,1262.39 273.21,1265.15 270.46,1265.15 270.46,1267.9 264.95,1267.9 264.95,1270.65 262.2,1270.65 262.2,1273.4 259.45,1273.4 259.45,1276.15 256.69,1276.15 256.69,1278.91 251.19,1278.91 251.19,1281.66 248.44,1281.66 248.44,1284.41 245.68,1284.41 245.68,1287.17 242.93,1287.17 242.93,1289.92 240.18,1289.92 240.18,1292.67 237.43,1292.67 237.43,1298.18 234.67,1298.18 234.67,1300.93 231.92,1300.93 231.92,1303.68 229.17,1303.68 229.17,1306.44 226.42,1306.44 226.42,1309.19 223.66,1309.19 223.66,1311.94 220.91,1311.94 220.91,1317.44 218.16,1317.44 218.16,1320.2 215.4,1320.2 215.4,1322.95 212.65,1322.95 212.65,1328.46 209.9,1328.46 209.9,1331.21 207.15,1331.21 207.15,1336.71 204.4,1336.71 204.4,1339.47 201.64,1339.47 201.64,1344.97 198.89,1344.97 198.89,1350.48 196.14,1350.48 196.14,1353.23 193.38,1353.23 193.38,1358.73 190.63,1358.73 190.63,1364.24 187.88,1364.24 187.88,1369.74 185.13,1369.74 185.13,1375.25 182.37,1375.25 182.37,1380.76 179.62,1380.76 179.62,1386.26 176.87,1386.26 176.87,1391.76 174.11,1391.76 174.11,1400.02 171.36,1400.02 171.36,1405.53 168.61,1405.53 168.61,1411.03 165.86,1411.03 165.86,1419.29 163.11,1419.29 163.11,1427.55 160.35,1427.55 160.35,1433.05 157.6,1433.05 157.6,1441.31 154.85,1441.31 154.85,1449.57 152.09,1449.57 152.09,1457.83 149.34,1457.83 149.34,1463.34 146.59,1463.34 146.59,1474.34 143.84,1474.34 143.84,1485.36 141.08,1485.36 141.08,1490.86 138.33,1490.86 138.33,1501.87 135.58,1501.87 135.58,1510.13 132.83,1510.13 132.83,1518.39 130.07,1518.39 130.07,1534.9 127.32,1534.9 127.32,1545.91 124.57,1545.91 124.57,1556.92 121.82,1556.92 121.82,1565.18 119.06,1565.18 119.06,1581.7 116.31,1581.7 116.31,1598.21 113.56,1598.21 113.56,1617.48 110.81,1617.48 110.81,1634 108.05,1634 108.05,1648.06 110.81,1648.06 110.81,1653.57 113.56,1653.57 113.56,1661.83 116.31,1661.83 116.31,1670.08 119.06,1670.08 119.06,1675.59 121.82,1675.59 121.82,1678.34 124.57,1678.34 124.57,1683.85 127.32,1683.85 127.32,1686.6 130.07,1686.6 130.07,1689.35 132.83,1689.35 132.83,1692.11 135.58,1692.11 135.58,1694.86 141.08,1694.86 141.08,1697.61 143.84,1697.61 143.84,1700.36 146.59,1700.36 146.59,1703.11 152.09,1703.11 152.09,1705.87 157.6,1705.87 157.6,1708.62 163.11,1708.62 163.11,1711.37 168.61,1711.37 168.61,1714.13 174.11,1714.13 174.11,1716.88 187.88,1716.88 187.88,1719.63 196.14,1719.63 196.14,1722.38 207.15,1722.38 207.15,1725.14 226.42,1725.14 226.42,1727.89 242.93,1727.89 242.93,1730.64 267.7,1730.64 267.7,1733.4 292.48,1733.4 292.48,1736.15 306.54,1736.15 306.54,1733.4 331.32,1733.4 331.32,1730.64 356.09,1730.64 356.09,1727.89 364.35,1727.89 364.35,1725.14 375.36,1725.14 375.36,1722.38 380.86,1722.38 380.86,1719.63 386.37,1719.63 386.37,1716.88 391.88,1716.88 391.88,1714.13 394.63,1714.13 394.63,1711.37 397.38,1711.37 397.38,1708.62 402.89,1708.62 402.89,1703.11 405.64,1703.11 405.64,1700.36 408.39,1700.36 408.39,1694.86 411.15,1694.86 411.15,1689.35 413.9,1689.35 413.9,1678.34 416.65,1678.34 416.65,1672.84 419.4,1672.84 419.4,1667.03 416.65,1667.03 416.65,1631.24 413.9,1631.24 413.9,1584.45 411.15,1584.45 411.15,1562.43 408.39,1562.43 408.39,1534.9 405.64,1534.9 405.64,1521.14 402.89,1521.14 402.89,1501.87 400.13,1501.87 400.13,1482.6 397.38,1482.6 397.38,1474.34 394.63,1474.34 394.63,1457.83 391.88,1457.83 391.88,1446.82 389.12,1446.82 389.12,1433.05 386.37,1433.05 386.37,1424.8 383.62,1424.8 383.62,1419.29 380.86,1419.29 380.86,1408.28 378.11,1408.28 378.11,1400.02 375.36,1400.02 375.36,1391.76 372.61,1391.76 372.61,1386.26 369.86,1386.26 369.86,1380.76 367.1,1380.76 367.1,1372.5 364.35,1372.5 364.35,1366.99 361.6,1366.99 361.6,1361.49 358.85,1361.49 358.85,1355.98 356.09,1355.98 356.09,1350.48 353.34,1350.48 353.34,1344.97 350.59,1344.97 350.59,1339.47 347.83,1339.47 347.83,1336.71 345.08,1336.71 345.08,1331.21 342.33,1331.21 342.33,1328.46 339.58,1328.46 339.58,1322.95 336.83,1322.95 336.83,1320.2 334.07,1320.2 334.07,1317.44 331.32,1317.44 331.32,1314.69 328.57,1314.69 328.57,1309.19 325.81,1309.19 325.81,1306.44 323.06,1306.44 323.06,1303.68 320.31,1303.68 320.31,1300.93 317.56,1300.93 317.56,1298.18 314.8,1298.18 314.8,1295.42 312.05,1295.42 312.05,1292.67 309.3,1292.67 309.3,1289.92 306.54,1289.92 306.54,1287.17 303.79,1287.17 303.79,1284.41 301.04,1284.41 301.04,1281.66 298.29,1281.66 298.29,1278.91 295.54,1278.91 295.54,1276.15 290.03,1276.15 290.03,1273.4 287.28,1273.4 287.28,1270.65 284.52,1270.65 284.52,1267.9 279.02,1267.9 279.02,1265.15 276.27,1265.15 "/>
  </g>
  <polygon id="root" class="fil2" points="269.23,245.45 263.73,245.45 263.73,250.95 260.97,250.95 260.97,253.71 258.22,253.71 258.22,259.21 255.47,259.21 255.47,264.72 252.72,264.72 252.72,270.22 249.97,270.22 249.97,278.48 247.21,278.48 247.21,289.49 244.46,289.49 244.46,306.01 241.71,306.01 241.71,322.52 238.95,322.52 238.95,339.04 236.2,339.04 236.2,372.07 233.45,372.07 233.45,399.6 230.7,399.6 230.7,418.87 227.94,418.87 227.94,451.9 225.19,451.9 225.19,468.41 222.44,468.41 222.44,490.43 219.69,490.43 219.69,509.7 216.93,509.7 216.93,526.22 214.18,526.22 214.18,542.73 211.43,542.73 211.43,559.25 208.68,559.25 208.68,578.52 205.92,578.52 205.92,603.29 203.17,603.29 203.17,617.06 200.42,617.06 200.42,630.82 197.66,630.82 197.66,641.83 194.91,641.83 194.91,655.59 192.16,655.59 192.16,666.6 189.41,666.6 189.41,685.87 186.65,685.87 186.65,696.88 183.9,696.88 183.9,710.65 181.15,710.65 181.15,718.9 178.39,718.9 178.39,729.91 175.64,729.91 175.64,746.43 172.89,746.43 172.89,757.44 170.14,757.44 170.14,779.46 167.39,779.46 167.39,787.72 164.63,787.72 164.63,806.99 161.88,806.99 161.88,829.01 159.13,829.01 159.13,842.77 156.38,842.77 156.38,862.04 153.62,862.04 153.62,884.06 150.87,884.06 150.87,900.58 148.12,900.58 148.12,922.6 145.36,922.6 145.36,947.37 142.61,947.37 142.61,974.89 139.86,974.89 139.86,1010.68 137.11,1010.68 137.11,1040.96 134.36,1040.96 134.36,1071.24 131.6,1071.24 131.6,1104.27 128.85,1104.27 128.85,1129.04 126.1,1129.04 126.1,1153.82 123.34,1153.82 123.34,1181.34 120.59,1181.34 120.59,1192.35 117.84,1192.35 117.84,1208.87 115.09,1208.87 115.09,1228.14 112.33,1228.14 112.33,1233.64 115.09,1233.64 115.09,1230.89 117.84,1230.89 117.84,1228.14 120.59,1228.14 120.59,1225.38 123.34,1225.38 123.34,1219.88 126.1,1219.88 126.1,1217.13 128.85,1217.13 128.85,1214.37 131.6,1214.37 131.6,1208.87 134.36,1208.87 134.36,1206.11 137.11,1206.11 137.11,1203.36 139.86,1203.36 139.86,1200.61 142.61,1200.61 142.61,1197.86 145.36,1197.86 145.36,1195.11 148.12,1195.11 148.12,1192.35 150.87,1192.35 150.87,1189.6 153.62,1189.6 153.62,1186.85 156.38,1186.85 156.38,1184.09 159.13,1184.09 159.13,1181.34 161.88,1181.34 161.88,1178.59 164.63,1178.59 164.63,1175.84 170.14,1175.84 170.14,1173.08 172.89,1173.08 172.89,1170.33 175.64,1170.33 175.64,1167.58 181.15,1167.58 181.15,1164.83 186.65,1164.83 186.65,1162.07 189.41,1162.07 189.41,1159.32 194.91,1159.32 194.91,1156.57 200.42,1156.57 200.42,1153.82 205.92,1153.82 205.92,1151.06 214.18,1151.06 214.18,1148.31 219.69,1148.31 219.69,1145.56 227.94,1145.56 227.94,1142.81 238.95,1142.81 238.95,1140.05 299.51,1140.05 299.51,1142.81 316.03,1142.81 316.03,1145.56 324.29,1145.56 324.29,1148.31 335.3,1148.31 335.3,1151.06 343.55,1151.06 343.55,1153.82 346.31,1153.82 346.31,1156.57 351.81,1156.57 351.81,1159.32 357.32,1159.32 357.32,1162.07 362.82,1162.07 362.82,1164.83 368.33,1164.83 368.33,1167.58 371.08,1167.58 371.08,1170.33 376.58,1170.33 376.58,1173.08 379.34,1173.08 379.34,1175.84 384.84,1175.84 384.84,1178.59 387.6,1178.59 387.6,1181.34 390.35,1181.34 390.35,1184.09 393.1,1184.09 393.1,1186.85 398.61,1186.85 398.61,1192.35 404.11,1192.35 404.11,1195.11 406.87,1195.11 406.87,1197.86 409.62,1197.86 409.62,1200.61 412.37,1200.61 412.37,1203.36 415.12,1203.36 415.12,1208.87 417.87,1208.87 417.87,1211.62 420.63,1211.62 420.63,1214.37 423.38,1214.37 423.38,1217.13 426.13,1217.13 426.13,1222.63 428.89,1222.63 428.89,1225.38 431.64,1225.38 431.64,1228.14 434.39,1228.14 434.39,1230.89 437.14,1230.89 437.14,1236.4 439.9,1236.4 439.9,1239.15 442.65,1239.15 442.65,1244.65 445.4,1244.65 445.4,1219.88 442.65,1219.88 442.65,1203.36 439.9,1203.36 439.9,1173.08 437.14,1173.08 437.14,1151.06 434.39,1151.06 434.39,1131.79 431.64,1131.79 431.64,1104.27 428.89,1104.27 428.89,1065.73 426.13,1065.73 426.13,1038.21 423.38,1038.21 423.38,991.41 420.63,991.41 420.63,963.89 417.87,963.89 417.87,930.85 415.12,930.85 415.12,897.82 412.37,897.82 412.37,840.02 409.62,840.02 409.62,801.48 406.87,801.48 406.87,776.71 404.11,776.71 404.11,751.93 401.36,751.93 401.36,718.9 398.61,718.9 398.61,691.38 395.85,691.38 395.85,672.11 393.1,672.11 393.1,641.83 390.35,641.83 390.35,617.06 387.6,617.06 387.6,603.29 384.84,603.29 384.84,589.53 382.09,589.53 382.09,564.75 379.34,564.75 379.34,550.99 376.58,550.99 376.58,537.23 373.83,537.23 373.83,520.71 371.08,520.71 371.08,512.46 368.33,512.46 368.33,495.94 365.58,495.94 365.58,476.67 362.82,476.67 362.82,468.41 360.07,468.41 360.07,454.65 357.32,454.65 357.32,435.38 354.56,435.38 354.56,427.12 351.81,427.12 351.81,413.36 349.06,413.36 349.06,396.85 346.31,396.85 346.31,383.08 343.55,383.08 343.55,372.07 340.8,372.07 340.8,363.82 338.05,363.82 338.05,350.05 335.3,350.05 335.3,341.79 332.54,341.79 332.54,333.53 329.79,333.53 329.79,319.77 327.04,319.77 327.04,311.51 324.29,311.51 324.29,306.01 321.53,306.01 321.53,297.75 318.78,297.75 318.78,292.24 316.03,292.24 316.03,283.99 313.28,283.99 313.28,278.48 310.52,278.48 310.52,272.98 307.77,272.98 307.77,270.22 305.02,270.22 305.02,264.72 302.26,264.72 302.26,259.21 299.51,259.21 299.51,256.46 296.76,256.46 296.76,253.71 294.01,253.71 294.01,250.95 291.25,250.95 291.25,248.2 288.5,248.2 288.5,245.45 285.75,245.45 285.75,242.7 269.23,242.7 "/>
  <g id="_2327750380368">
   <polygon class="fil3" points="293.49,547.72 293.49,561.48 290.74,561.48 290.74,580.75 287.98,580.75 287.98,597.27 285.23,597.27 285.23,613.79 282.48,613.79 282.48,630.3 279.73,630.3 279.73,649.57 276.97,649.57 276.97,674.34 274.22,674.34 274.22,688.11 271.47,688.11 271.47,701.87 268.72,701.87 268.72,712.88 265.96,712.88 265.96,726.64 263.21,726.64 263.21,737.65 260.46,737.65 260.46,756.92 257.7,756.92 257.7,767.93 254.95,767.93 254.95,781.7 252.2,781.7 252.2,789.95 249.45,789.95 249.45,800.96 246.7,800.96 246.7,817.48 243.94,817.48 243.94,828.49 241.19,828.49 241.19,850.51 238.44,850.51 238.44,858.77 235.68,858.77 235.68,878.04 232.93,878.04 232.93,900.06 230.18,900.06 230.18,913.82 227.43,913.82 227.43,933.09 224.67,933.09 224.67,955.11 221.92,955.11 221.92,971.63 219.17,971.63 219.17,993.65 216.42,993.65 216.42,1018.42 213.66,1018.42 213.66,1045.95 210.91,1045.95 210.91,1069 352.33,1069 352.33,1062.46 349.58,1062.46 349.58,1034.94 346.82,1034.94 346.82,1001.91 344.07,1001.91 344.07,968.87 341.32,968.87 341.32,911.07 338.57,911.07 338.57,872.53 335.81,872.53 335.81,847.76 333.06,847.76 333.06,822.99 330.31,822.99 330.31,789.95 327.56,789.95 327.56,762.43 324.8,762.43 324.8,743.16 322.05,743.16 322.05,712.88 319.3,712.88 319.3,688.11 316.55,688.11 316.55,674.34 313.79,674.34 313.79,660.58 311.04,660.58 311.04,635.81 308.29,635.81 308.29,622.04 305.53,622.04 305.53,608.28 302.78,608.28 302.78,591.77 300.03,591.77 300.03,583.51 297.27,583.51 297.27,566.99 294.52,566.99 294.52,547.72 "/>
  </g>
  <path id="outline" class="fil4" d="M24.25 1621.76l2.75 0 0 -38.53 2.75 0 0 -27.53 2.76 0 0 -16.52 2.75 0 0 -19.27 2.75 0 0 -16.51 2.76 0 0 -16.52 2.75 0 0 -8.26 2.75 0 0 -11 2.75 0 0 -11.02 2.76 0 0 -16.51 2.75 0 0 -8.26 2.75 0 0 -8.26 2.75 0 0 -11.01 2.75 0 0 -5.5 2.76 0 0 -11.01 2.75 0 0 -11.01 2.75 0 0 -5.51 2.76 0 0 -8.26 2.75 0 0 -8.26 2.75 0 0 -8.25 2.75 0 0 -5.51 2.76 0 0 -8.26 2.75 0 0 -8.25 2.75 0 0 -5.51 2.76 0 0 -5.5 2.75 0 0 -8.26 2.75 0 0 -5.51 2.75 0 0 -5.5 2.75 0 0 -5.51 2.76 0 0 -5.5 2.75 0 0 -5.51 2.75 0 0 -5.5 2.76 0 0 -5.51 2.75 0 0 -2.75 2.75 0 0 -5.51 2.75 0 0 -5.5 2.76 0 0 -2.75 2.75 0 0 -5.51 2.75 0 0 -2.75 2.76 0 0 -5.51 2.75 0 0 -2.75 2.75 0 0 -2.75 2.75 0 0 -5.51 2.75 0 0 -2.75 2.76 0 0 -2.75 2.75 0 0 -2.76 2.75 0 0 -2.75 2.76 0 0 -2.75 2.75 0 0 -5.51 2.75 0 0 -2.75 2.75 0 0 -2.75 2.76 0 0 -2.76 2.75 0 0 -2.75 2.75 0 0 -2.75 5.5 0 0 -2.75 2.76 0 0 -2.75 2.75 0 0 -2.76 2.75 0 0 -2.75 5.51 0 0 -2.75 2.75 0 0 -2.76 5.51 0 0 -2.75 5.5 0 0 -2.75 5.51 0 0 -2.75 5.5 0 0 -2.76 5.51 0 0 -2.75 8.26 0 0 -2.75 8.25 0 0 -2.75 19.27 0 0 -2.76 33.03 0 0 2.76 13.77 0 0 2.75 13.76 0 0 2.75 5.51 0 0 2.75 8.25 0 0 2.76 5.51 0 0 2.75 5.5 0 0 2.75 5.51 0 0 2.75 5.5 0 0 2.76 2.76 0 0 2.75 5.5 0 0 2.75 2.76 0 0 2.76 2.75 0 0 2.75 5.5 0 0 2.75 2.75 0 0 2.75 2.76 0 0 2.75 2.75 0 0 2.76 2.75 0 0 2.75 2.76 0 0 2.75 2.75 0 0 2.76 2.75 0 0 2.75 2.75 0 0 2.75 2.76 0 0 2.75 2.75 0 0 2.76 2.75 0 0 2.75 2.76 0 0 5.51 2.75 0 0 2.75 2.75 0 0 2.75 2.75 0 0 2.75 2.75 0 0 5.51 2.76 0 0 2.75 2.75 0 0 5.51 2.75 0 0 2.75 2.76 0 0 5.5 2.75 0 0 5.51 2.75 0 0 5.5 2.75 0 0 5.51 2.76 0 0 5.5 2.75 0 0 5.51 2.75 0 0 8.26 2.75 0 0 5.5 2.76 0 0 5.51 2.75 0 0 8.26 2.75 0 0 8.25 2.75 0 0 11.01 2.76 0 0 5.51 2.75 0 0 8.26 2.75 0 0 13.76 2.75 0 0 11.01 2.76 0 0 16.52 2.75 0 0 8.25 2.75 0 0 19.27 2.76 0 0 19.27 2.75 0 0 13.76 2.75 0 0 27.53 2.75 0 0 22.02 2.75 0 0 46.8 2.76 0 0 35.78 2.75 0 0 41.29 2.75 0 0 82.58 -2.75 0 0 38.54 -2.75 0 0 5.5 -2.76 0 0 11.01 -2.75 0 0 5.5 -2.75 0 0 5.51 -2.75 0 0 2.75 -2.75 0 0 5.51 -5.51 0 0 2.75 -2.75 0 0 2.75 -2.76 0 0 2.76 -5.5 0 0 2.75 -5.51 0 0 2.75 -5.5 0 0 2.76 -11.01 0 0 2.75 -8.26 0 0 2.75 -24.77 0 0 2.75 -24.78 0 0 2.75 -170.66 0 0 -2.75 -24.77 0 0 -2.75 -24.78 0 0 -2.75 -16.51 0 0 -2.75 -19.27 0 0 -2.76 -11.01 0 0 -2.75 -8.26 0 0 -2.75 -13.76 0 0 -2.76 -5.51 0 0 -2.75 -5.5 0 0 -2.75 -5.51 0 0 -2.75 -5.5 0 0 -2.76 -5.51 0 0 -2.75 -2.75 0 0 -2.75 -2.76 0 0 -2.76 -5.5 0 0 -2.75 -2.75 0 0 -2.75 -2.75 0 0 -2.75 -2.76 0 0 -2.75 -2.75 0 0 -5.51 -2.75 0 0 -2.75 -2.75 0 0 -5.51 -2.76 0 0 -8.26 -2.75 0 0 -8.26 -2.75 0 0 -5.5 -2.76 0 0 -13.76 -2.75 0 0 -24.77 -2.75 0 0 -66.07zm214.7 -478.95l-11.01 0 0 2.75 -8.25 0 0 2.75 -5.51 0 0 2.75 -8.26 0 0 2.76 -5.5 0 0 2.75 -5.51 0 0 2.75 -5.5 0 0 2.75 -2.76 0 0 2.76 -5.5 0 0 2.75 -5.51 0 0 2.75 -2.75 0 0 2.75 -2.75 0 0 2.76 -5.51 0 0 2.75 -2.75 0 0 2.75 -2.75 0 0 2.75 -2.75 0 0 2.76 -2.76 0 0 2.75 -2.75 0 0 2.75 -2.75 0 0 2.76 -2.76 0 0 2.75 -2.75 0 0 2.75 -2.75 0 0 2.75 -2.75 0 0 2.75 -2.75 0 0 2.76 -2.76 0 0 5.5 -2.75 0 0 2.76 -2.75 0 0 2.75 -2.76 0 0 5.5 -2.75 0 0 2.76 -2.75 0 0 2.75 -2.75 0 0 2.75 -2.76 0 0 -5.5 2.76 0 0 -19.27 2.75 0 0 -16.52 2.75 0 0 -11.01 2.75 0 0 -27.52 2.76 0 0 -24.78 2.75 0 0 -24.77 2.75 0 0 -33.03 2.76 0 0 -30.28 2.75 0 0 -30.28 2.75 0 0 -35.79 2.75 0 0 -27.52 2.75 0 0 -24.77 2.76 0 0 -22.02 2.75 0 0 -16.52 2.75 0 0 -22.02 2.76 0 0 -19.27 2.75 0 0 -13.76 2.75 0 0 -22.02 2.75 0 0 -19.27 2.76 0 0 -8.26 2.75 0 0 -22.02 2.75 0 0 -11.01 2.75 0 0 -16.52 2.75 0 0 -11.01 2.76 0 0 -8.25 2.75 0 0 -13.77 2.75 0 0 -11.01 2.76 0 0 -19.27 2.75 0 0 -11.01 2.75 0 0 -13.76 2.75 0 0 -11.01 2.76 0 0 -13.76 2.75 0 0 -13.77 2.75 0 0 -24.77 2.76 0 0 -19.27 2.75 0 0 -16.52 2.75 0 0 -16.51 2.75 0 0 -16.52 2.76 0 0 -19.27 2.75 0 0 -22.02 2.75 0 0 -16.51 2.75 0 0 -33.03 2.76 0 0 -19.27 2.75 0 0 -27.53 2.75 0 0 -33.03 2.75 0 0 -16.52 2.76 0 0 -16.51 2.75 0 0 -16.52 2.75 0 0 -11.01 2.76 0 0 -8.26 2.75 0 0 -5.5 2.75 0 0 -5.51 2.75 0 0 -5.5 2.75 0 0 -2.76 2.76 0 0 -5.5 5.5 0 0 -2.75 16.52 0 0 2.75 2.75 0 0 2.75 2.75 0 0 2.75 2.76 0 0 2.76 2.75 0 0 2.75 2.75 0 0 2.75 2.75 0 0 5.51 2.76 0 0 5.5 2.75 0 0 2.76 2.75 0 0 5.5 2.76 0 0 5.51 2.75 0 0 8.25 2.75 0 0 5.51 2.75 0 0 8.26 2.76 0 0 5.5 2.75 0 0 8.26 2.75 0 0 13.76 2.75 0 0 8.26 2.76 0 0 8.26 2.75 0 0 13.77 2.75 0 0 8.25 2.75 0 0 11.01 2.76 0 0 13.77 2.75 0 0 16.51 2.75 0 0 13.76 2.75 0 0 8.26 2.76 0 0 19.27 2.75 0 0 13.76 2.75 0 0 8.26 2.76 0 0 19.27 2.75 0 0 16.52 2.75 0 0 8.25 2.75 0 0 16.52 2.75 0 0 13.76 2.76 0 0 13.76 2.75 0 0 24.78 2.75 0 0 13.76 2.76 0 0 13.77 2.75 0 0 24.77 2.75 0 0 30.28 2.75 0 0 19.27 2.76 0 0 27.52 2.75 0 0 33.03 2.75 0 0 24.78 2.76 0 0 24.77 2.75 0 0 38.54 2.75 0 0 57.8 2.75 0 0 33.03 2.75 0 0 33.04 2.76 0 0 27.52 2.75 0 0 46.8 2.75 0 0 27.52 2.76 0 0 38.54 2.75 0 0 27.52 2.75 0 0 19.27 2.75 0 0 22.02 2.76 0 0 30.28 2.75 0 0 16.52 2.75 0 0 24.77 -2.75 0 0 -5.5 -2.75 0 0 -2.75 -2.76 0 0 -5.51 -2.75 0 0 -2.75 -2.75 0 0 -2.76 -2.75 0 0 -2.75 -2.76 0 0 -5.5 -2.75 0 0 -2.76 -2.75 0 0 -2.75 -2.76 0 0 -2.75 -2.75 0 0 -5.51 -2.75 0 0 -2.75 -2.75 0 0 -2.75 -2.75 0 0 -2.75 -2.76 0 0 -2.76 -5.5 0 0 -5.5 -5.51 0 0 -2.76 -2.75 0 0 -2.75 -2.75 0 0 -2.75 -2.76 0 0 -2.75 -5.5 0 0 -2.76 -2.76 0 0 -2.75 -5.5 0 0 -2.75 -2.75 0 0 -2.75 -5.51 0 0 -2.76 -5.5 0 0 -2.75 -5.51 0 0 -2.75 -5.5 0 0 -2.75 -2.76 0 0 -2.76 -8.25 0 0 -2.75 -11.01 0 0 -2.75 -8.26 0 0 -2.75 -16.52 0 0 -2.76 -60.56 0 0 2.76zm27.53 -924.88l-5.51 0 0 2.75 -5.5 0 0 2.75 -2.75 0 0 2.75 -2.75 0 0 2.75 -2.76 0 0 2.76 -2.75 0 0 2.75 -2.75 0 0 5.51 -2.76 0 0 5.5 -2.75 0 0 5.5 -2.75 0 0 5.51 -2.75 0 0 5.51 -2.76 0 0 8.25 -2.75 0 0 13.77 -2.75 0 0 13.76 -2.75 0 0 13.76 -2.76 0 0 11.01 -2.75 0 0 33.04 -2.75 0 0 19.26 -2.75 0 0 27.53 -2.76 0 0 22.02 -2.75 0 0 35.79 -2.75 0 0 8.25 -2.76 0 0 24.78 -2.75 0 0 19.27 -2.75 0 0 16.51 -2.75 0 0 19.27 -2.76 0 0 24.77 -2.75 0 0 13.77 -2.75 0 0 13.76 -2.76 0 0 13.76 -2.75 0 0 11.01 -2.75 0 0 19.27 -2.75 0 0 16.52 -2.75 0 0 11.01 -2.76 0 0 16.51 -2.75 0 0 11.01 -2.75 0 0 16.52 -2.75 0 0 8.26 -2.76 0 0 11.01 -2.75 0 0 13.76 -2.75 0 0 13.76 -2.76 0 0 13.77 -2.75 0 0 11.01 -2.75 0 0 22.02 -2.75 0 0 19.27 -2.75 0 0 19.27 -2.76 0 0 19.27 -2.75 0 0 13.76 -2.75 0 0 33.03 -2.76 0 0 16.51 -2.75 0 0 30.28 -2.75 0 0 24.78 -2.75 0 0 38.53 -2.76 0 0 30.28 -2.75 0 0 35.78 -2.75 0 0 22.03 -2.76 0 0 24.77 -2.75 0 0 27.53 -2.75 0 0 19.26 -2.75 0 0 11.02 -2.75 0 0 19.26 -2.76 0 0 22.03 -2.75 0 0 16.51 -2.75 0 0 13.76 -2.76 0 0 22.02 -2.75 0 0 11.01 -2.75 0 0 5.51 -2.75 0 0 8.26 -2.76 0 0 5.51 -2.75 0 0 5.5 -2.75 0 0 8.26 -2.76 0 0 5.5 -2.75 0 0 8.26 -2.75 0 0 5.51 -2.75 0 0 8.25 -2.75 0 0 8.26 -2.76 0 0 8.26 -2.75 0 0 8.26 -2.75 0 0 8.26 -2.75 0 0 5.5 -2.76 0 0 13.76 -2.75 0 0 8.26 -2.75 0 0 11.01 -2.76 0 0 11.01 -2.75 0 0 11.01 -2.75 0 0 11.01 -2.75 0 0 13.76 -2.75 0 0 11.02 -2.76 0 0 19.27 -2.75 0 0 22.02 -2.75 0 0 11.01 -2.76 0 0 19.26 -2.75 0 0 22.03 -2.75 0 0 35.78 -2.75 0 0 68.82 2.75 0 0 11 2.75 0 0 19.27 2.75 0 0 19.27 2.76 0 0 5.51 2.75 0 0 8.26 2.75 0 0 5.5 2.76 0 0 5.51 2.75 0 0 5.5 2.75 0 0 2.75 2.75 0 0 5.51 2.75 0 0 2.75 2.76 0 0 2.75 2.75 0 0 2.76 2.75 0 0 2.75 2.76 0 0 2.75 2.75 0 0 2.75 2.75 0 0 2.76 5.51 0 0 2.75 2.75 0 0 2.75 5.5 0 0 2.76 5.51 0 0 2.75 5.5 0 0 2.75 5.51 0 0 2.75 5.5 0 0 2.75 8.26 0 0 2.76 11.01 0 0 2.75 11.01 0 0 2.75 8.26 0 0 2.75 16.52 0 0 2.76 11.01 0 0 2.75 22.02 0 0 2.75 16.51 0 0 2.76 35.79 0 0 2.75 145.89 0 0 -2.75 33.03 0 0 -2.76 30.28 0 0 -2.75 16.51 0 0 -2.75 5.51 0 0 -2.76 11.01 0 0 -2.75 5.5 0 0 -2.75 5.51 0 0 -2.75 5.51 0 0 -2.76 2.75 0 0 -2.75 5.5 0 0 -2.75 2.75 0 0 -2.75 2.76 0 0 -2.75 2.75 0 0 -2.76 2.75 0 0 -2.75 2.76 0 0 -5.51 2.75 0 0 -2.75 2.75 0 0 -5.5 2.75 0 0 -5.51 2.76 0 0 -8.26 2.75 0 0 -11.01 2.75 0 0 -11.01 2.76 0 0 -156.9 -2.76 0 0 -46.79 -2.75 0 0 -22.02 -2.75 0 0 -38.54 -2.76 0 0 -16.51 -2.75 0 0 -27.53 -2.75 0 0 -11.01 -2.75 0 0 -19.27 -2.76 0 0 -13.76 -2.75 0 0 -11.01 -2.75 0 0 -16.52 -2.76 0 0 -11.01 -2.75 0 0 -13.76 -2.75 0 0 -8.26 -2.75 0 0 -11.01 -2.75 0 0 -8.26 -2.76 0 0 -19.27 -2.75 0 0 -16.51 -2.75 0 0 -22.02 -2.76 0 0 -27.53 -2.75 0 0 -16.52 -2.75 0 0 -30.28 -2.75 0 0 -19.26 -2.76 0 0 -27.53 -2.75 0 0 -27.53 -2.75 0 0 -27.52 -2.75 0 0 -22.02 -2.76 0 0 -44.05 -2.75 0 0 -22.02 -2.75 0 0 -30.27 -2.75 0 0 -35.79 -2.76 0 0 -60.55 -2.75 0 0 -41.29 -2.75 0 0 -35.79 -2.75 0 0 -44.04 -2.76 0 0 -16.52 -2.75 0 0 -38.53 -2.75 0 0 -22.02 -2.76 0 0 -24.78 -2.75 0 0 -19.27 -2.75 0 0 -16.51 -2.75 0 0 -11.01 -2.75 0 0 -22.02 -2.76 0 0 -11.02 -2.75 0 0 -22.02 -2.75 0 0 -11.01 -2.76 0 0 -19.26 -2.75 0 0 -8.26 -2.75 0 0 -22.02 -2.75 0 0 -13.77 -2.76 0 0 -8.25 -2.75 0 0 -22.02 -2.75 0 0 -11.02 -2.76 0 0 -16.51 -2.75 0 0 -8.26 -2.75 0 0 -13.76 -2.75 0 0 -11.01 -2.75 0 0 -11.01 -2.76 0 0 -11.01 -2.75 0 0 -11.01 -2.75 0 0 -11.02 -2.76 0 0 -11.01 -2.75 0 0 -5.5 -2.75 0 0 -8.26 -2.75 0 0 -13.76 -2.76 0 0 -5.51 -2.75 0 0 -5.5 -2.75 0 0 -8.26 -2.75 0 0 -5.51 -2.76 0 0 -5.5 -2.75 0 0 -5.51 -2.75 0 0 -5.5 -2.75 0 0 -5.51 -2.76 0 0 -2.75 -2.75 0 0 -5.5 -2.75 0 0 -2.76 -2.75 0 0 -2.75 -2.76 0 0 -2.75 -2.75 0 0 -2.76 -2.75 0 0 -2.75 -2.76 0 0 -2.75 -5.5 0 0 -2.75 -5.51 0 0 -2.75 -5.5 0 0 -2.76 -19.27 0 0 2.76z"/>
 </g>
</svg>
