<?xml version="1.0" encoding="UTF-8"?>
<!DOCTYPE svg PUBLIC "-//W3C//DTD SVG 1.1//EN" "http://www.w3.org/Graphics/SVG/1.1/DTD/svg11.dtd">
<!-- Creator: CorelDRAW (Versión de evaluación) -->
<svg xmlns="http://www.w3.org/2000/svg" xml:space="preserve" width="867px" height="2052px" version="1.1" style="shape-rendering:geometricPrecision; text-rendering:geometricPrecision; image-rendering:optimizeQuality; fill-rule:evenodd; clip-rule:evenodd"
viewBox="0 0 867 2050.9"
 xmlns:xlink="http://www.w3.org/1999/xlink"
 xmlns:xodm="http://www.corel.com/coreldraw/odm/2003">
 <defs>
  <style type="text/css">
   <![CDATA[
    .fil4 {fill:#4B4B4D}
    .fil1 {fill:#FFCC29}
    .fil3 {fill:#F48884}
    .fil2 {fill:#F2EBD8}
    .fil0 {fill:#F8F9FD}
   ]]>
  </style>
 </defs>
 <g id="pulpotomy">
  <metadata id="CorelCorpID_0Corel-Layer"/>
  <path id="crown" class="fil0" d="M322.83 189.22c-5.67,-3.47 -8.81,-4.68 -8.02,-12.37l9.16 -35.3c4.05,-13.42 3.04,-2.62 8.25,-13.01 -11.05,-20.25 -24.35,-18.32 -40.48,-25.82 -26.52,-12.33 -53.74,-20.3 -81.17,-32.74 -52.25,-23.69 -55.6,-16.93 -88.94,17.21 -7.59,7.77 -13.54,14.16 -21.38,22.59 -15.8,16.97 -27.86,33.37 -38.3,54.04l-1.63 3.26c-9.21,19.74 -15.93,37.11 -15.52,61.51 0.55,33.16 0.13,67.17 13.25,98.96 4.05,9.8 2.52,7.42 7.15,15.68 11.56,20.65 23.23,35.35 41.48,51.12 5.09,4.4 9.11,7.05 14.12,9.1l68.85 21.11 144.82 14.66c23.68,3.78 47.71,10.98 69.29,21.29 34.15,16.3 50.05,30.42 79.59,58.25 18.68,17.61 23.64,26.65 49.14,43.09 22.09,14.24 20.55,8.78 38.66,17.33 7.49,3.53 -0.19,1.78 10.1,2.96 16.85,1.94 52.82,2.47 67.52,-0.41 8.99,-1.77 7.53,-4.44 15.81,-6.36 11.6,-2.69 6.78,1.72 17.98,-4.85l15.07 -9.59c0.46,-0.3 1.03,-0.72 1.5,-1l11.29 -5.92c5.69,-3.71 5.83,-5.2 12.2,-9.74 5.96,-4.25 7.48,-5.18 12.44,-9.68 11.97,-10.87 32.81,-32.57 41.08,-46.75 9.75,-16.74 20.27,-30.49 27.19,-47.7 0.22,-0.54 0.41,-1.23 0.63,-1.78 6.16,-15.45 11.29,-22.29 14.59,-39.42 2.63,-13.65 4.48,-9.46 6.73,-24.94 2.19,-14.99 6.04,-7.25 5.85,-27.94 -0.16,-16.95 1.05,-7.51 4.61,-16.42 4.22,-10.59 -0.25,-29.61 0.43,-43.49 0.45,-9.06 8.48,-25.05 2.56,-62.6 -2.11,-13.4 -3.7,-7.08 -5.91,-19.99 -4.17,-24.36 4.94,-41.49 -23.76,-45.64 -6.41,-0.93 -15.88,0.52 -22.6,0.09 -14.8,-0.95 -6.79,-2.55 -16.27,-5.95 -7.87,-2.82 -12.57,-0.94 -20.84,-2.16 -9.55,-1.4 -8.08,-3.5 -16.59,-5.27 -13.14,-2.74 -8.13,-0.02 -19.58,-6.14l-5.11 -2.47c-51.64,-24.59 -55.21,-26.29 -108.12,-65.03 -41.99,-30.75 -49.28,-33.24 -94.24,-8.55l-61.81 26.91c-28.98,10.79 -82.16,24.36 -97.21,57.42l-13.42 30.2c-4.26,6.51 -3.77,8.93 -10.44,12.25z"/>
  <g id="_3232346931424">
   <path class="fil1" d="M798.83 314.57c-0.1,-2.37 -0.36,-4.9 -0.5,-6.75 -0.61,-7.87 -1.26,-15.67 -0.87,-23.59 0.41,-8.27 2.88,-15.77 3.97,-23.87 1.37,-10.18 0.61,-20.67 -0.99,-30.78 -0.02,-0.14 -0.04,-0.28 -0.06,-0.42 -2.98,-6.18 -4.54,-11.96 -5.76,-19.06 -0.78,-4.58 -1.04,-9.08 -1.23,-13.49 -3.1,0.16 -6.24,0.28 -9.41,0.08 -10.73,-0.69 -19.86,-2.38 -28.07,-7.68 -4.01,-0.1 -7.77,-0.11 -12.21,-0.77 -7.51,-1.1 -12.99,-2.79 -19.61,-5.83 -12.54,-2.6 -16.13,-2.83 -28.45,-9.35l-4.44 -2.15c-18.94,-9.16 -38.35,-18.15 -56.44,-28.9 -19.93,-11.83 -39.01,-26.07 -57.71,-39.75 -4.56,-3.35 -21.34,-15.99 -27.17,-17.74 -5.54,0.82 -21.05,9.43 -25.53,11.89l-1.55 0.85 -64.39 28.04 -0.98 0.37c-14.86,5.53 -68.39,21.24 -75.32,36.84l-14.7 33.05 -1.7 2.61c-8.2,12.55 -10.41,18.17 -25.59,25.74l-19.22 9.58 -18.31 -11.22c-18.82,-11.52 -28.71,-26.13 -26.34,-49.35l0.3 -2.94 7.42 -28.58c-2.88,-1.06 -5.72,-2.21 -8.57,-3.54 -26.27,-12.21 -54.31,-20.55 -80.83,-32.58 -4.96,-2.25 -18.75,-8.62 -25.93,-10.21 -5.7,4.44 -15.4,15.22 -19.28,19.19 -7.04,7.2 -13.89,14.55 -20.74,21.92 -13.02,13.98 -23.44,27.77 -31.98,44.92l-1.4 2.81c-6.96,14.93 -11.97,27.15 -11.69,44.03 0.46,27.31 -0.25,59.2 10.32,84.82 1.09,2.63 2.07,5.3 3.15,7.91 0.61,1.22 1.33,2.45 2,3.63 9.31,16.64 18.54,28.23 33,40.73 0.7,0.6 1.75,1.55 2.71,2.16l62.62 19.19 142.13 14.39 1.1 0.18c27.4,4.37 54.83,12.63 79.88,24.58 37.82,18.07 59.31,36.61 89.47,65.03 15.93,15.01 24.72,26.57 43.57,38.72 12.72,8.21 19.86,8.21 33.45,14.5 12.87,1.34 39.26,2.2 52.34,0.26 5.28,-2.98 10.18,-4.95 16.53,-6.43 2.98,-0.69 5.83,-1.2 8.68,-1.54l11.9 -7.57c0.8,-0.55 1.6,-1.08 2.43,-1.59l1.13 -0.7 10.1 -5.28c3.39,-2.89 6.29,-5.53 10.05,-8.21 3.29,-2.35 5.93,-4.13 8.89,-6.82 9.96,-9.05 27.02,-26.2 33.65,-37.57 7.78,-13.35 18.55,-27.69 24.44,-41.95 0.27,-0.79 0.56,-1.58 0.87,-2.36 4.29,-10.76 10.33,-21.01 12.53,-32.41 1.41,-7.32 3.13,-12.48 5.76,-19.27 0.31,-1.23 0.5,-2.7 0.68,-3.92 1.07,-7.31 2.64,-13.08 5.46,-19.34 0.01,-0.91 -0.01,-1.83 -0.02,-2.66 -0.11,-12.1 0.77,-22.67 6.46,-31.85z"/>
  </g>
  <path id="root" class="fil2" d="M84.31 1236.62c5.86,-4.72 2.07,0.18 6.19,-8.24 1.27,-2.6 3.31,-8.08 4.17,-10.19 5.01,-12.4 3.26,-14.45 3.27,-29.2 0,-15.94 5.11,-35.47 4.58,-57.39 -1.43,-59.23 3.56,-42.47 3.67,-90.01 0.04,-16.16 4.27,-13.93 6.42,-23.74 1.1,-4.97 0.3,-8.63 1.03,-13.56 1.91,-12.86 2.15,-3.24 4.09,-13.46l5.37 -25c2.49,-7.48 4.77,-15.51 7.59,-23.87l16.02 -44.56c0.23,-0.55 0.49,-1.21 0.75,-1.75l21.66 -42.04c4.07,-9.14 8.41,-11.47 12.25,-18.98l7.64 -14.05c3.18,-4.46 0.15,-0.12 3.83,-5.81 4.33,-6.69 2.31,-3.41 6.21,-8.52l87.88 -119.27c13.92,-23.67 32.64,-55.11 53.1,-73.46 15.28,-13.7 27.84,-24.32 47.04,-31.22 7.38,-2.65 5.46,-1.23 13.09,-4.75 9.33,-4.3 12.64,0.75 21.73,2.55l24.8 8.62c9.19,4.27 11.83,5.87 19.85,13.25 13.06,12.01 21.51,21 33.2,33.32l30.17 36.9c18.57,28.21 35.05,54.64 49.4,84.82 4.1,8.62 7.73,13.5 10.81,22.07l27.95 73.15c3.1,5.55 2.33,1.36 5,10.09l4.57 13.89c3.46,7.99 6.36,16.47 9.4,24.66 11.34,30.6 25.45,67 33.48,100.5 3.84,16 6.59,42.24 11.38,57 14.11,43.48 2.66,109.74 -0.8,155.97 -1.86,24.85 -6.43,42.23 -10.44,68.54 -1.73,11.35 -3.65,10.96 -5.34,25.88 -1.31,11.52 -3.15,17.09 -2.16,31.31 28.83,-2.7 52.97,-32.04 72.37,-50.01 8.63,-8.01 18.87,-22.83 25.16,-33.39 18.23,-30.6 13.47,-28.13 24.95,-50.25 4.61,-8.87 1.16,2.22 4.07,-10.1l14.85 -58.06c1.09,-5.96 0.12,-10.4 1.04,-16.04 1.67,-10.33 4.97,-6.21 4.65,-23.04 -0.2,-10.01 -1.35,-19.69 -0.23,-29.71 10.14,-90.25 -19.97,-198.45 -32.22,-285.53 -1.39,-9.86 -4.79,-15.27 -6.34,-23.46 -5.13,-27.23 -15.2,-54.16 -16.82,-81.74 -1.18,-20.11 -7.78,-31.34 -8.91,-52.45 -0.87,-16.35 -0.38,-46.71 -3.94,-61.16 -9.26,1.19 -1.88,0.46 -6.42,3.24l-55.23 28.61c-13.83,5.48 -7.33,5.73 -25.22,7.34 -13.02,1.16 -36.71,16.21 -70.73,2.77 -11.23,-4.44 -47.46,-2.59 -77.08,-29.31 -58.61,-52.88 -57.84,-71.51 -138.91,-103.7l-65.64 -16.07c-16.19,-2.12 -34.01,-1.53 -48.74,-4.59 -17.34,-3.61 -29.47,-3.58 -48.91,-5l-69.3 -10.88c-7.68,-2.65 -9.27,-4.55 -19.6,-4.44 -2.74,33.7 8.82,86.65 4.89,118.39 -2.48,20.05 -6.17,-2.9 -6.06,37.49 0,2.35 0.09,5.02 -0.29,7.3 -2.43,14.62 -4.33,1.84 -5.93,15.24 -0.56,4.64 0.43,9.29 -0.4,14.46l-67.42 224.55c-1.8,6.62 -0.8,7.23 -1.49,13.2 -1.49,12.85 -0.69,3.61 -3.07,11.75 -2.58,8.79 -1.49,16.59 -2.68,25.85 -1.04,8.09 -3.8,15.65 -4.5,23.52l-0.94 116.65c1,24.84 6.41,58.91 12.81,80.7 3.31,11.24 3.34,14.33 6.94,24.05 5.74,15.52 7.79,31.7 14.47,48.05 6.09,14.89 11.67,29.99 21.97,42.32z"/>
  <g id="_3232346929168">
   <path class="fil3" d="M710.3 1264.35c0.26,-0.25 0.51,-0.48 0.75,-0.71 6.36,-5.89 14.25,-17.92 18.71,-25.4 4.56,-7.66 9.29,-15.65 12.77,-23.89 3.58,-8.48 6.87,-16.27 11.15,-24.52 0.33,-0.63 0.67,-1.26 1,-1.88l0.06 -0.24 14.42 -56.33c0.39,-5.03 0,-9.41 0.89,-14.9 0.89,-5.5 2.2,-9.87 4.22,-14.63 0,-0.68 -0.01,-1.36 -0.03,-1.98 -0.22,-11.88 -1.36,-22.37 0,-34.42 9.78,-87.09 -19.86,-189.5 -32.1,-276.5 -0.91,-6.5 -4.69,-14.5 -6.06,-21.8 -5.54,-29.38 -15.6,-55.79 -17.39,-86.3 -0.39,-6.72 -1.92,-12.93 -3.51,-19.44 -2.72,-11.2 -4.78,-21.61 -5.4,-33.19 -0.11,-1.97 -0.2,-3.93 -0.27,-5.9l-14.42 7.47 -1.7 0.67c-3.77,1.49 -7.09,3.5 -10.82,5.01 -7.73,3.13 -15.61,3.91 -23.8,4.65 -9.2,1.82 -17.83,5.38 -27.87,7.01 -20.17,3.27 -39.84,1.18 -58.89,-6.14 -3.04,-0.72 -6.71,-1.13 -9.77,-1.63 -5.03,-0.82 -10.02,-1.73 -14.98,-2.84l11.7 14.32 1.03 1.56c19.04,28.93 36.95,57.82 51.84,89.15 4.15,8.73 8.6,15.57 12.03,24.95l26.33 68.9c3.49,4.97 5.32,9.9 7.2,16.01l3.97 12.08c3.46,8.18 6.35,16.53 9.44,24.86 12.72,34.32 26.19,68.97 34.73,104.62 4.12,17.16 5.38,38.14 10.61,54.28 16.81,51.78 4.87,116.26 0.87,169.78 -1.21,16.19 -3.94,31.69 -6.71,47.32zm-293.01 -723.38c-17.97,-14.48 -38.65,-23.92 -60.09,-32.51l-61.19 -14.98c-16.56,-1.98 -32.82,-1.34 -49.51,-4.81 -14.62,-3.04 -29.38,-3.25 -44.22,-4.34l-1.49 -0.11 -47.33 -7.43c0.44,4.41 0.89,8.71 1.28,12.8 2.06,21.36 4.54,45.01 1.9,66.32 -0.95,7.67 -2.5,14.5 -5.75,20.74 -0.18,4.11 -0.06,8.63 -0.05,12.24 0.02,4.56 -0.01,8.73 -0.77,13.3 -1.08,6.47 -2.86,12.53 -5.63,17.85 0.03,3.77 0.04,7.29 -0.67,11.68l-0.38 2.34 -67.81 225.82c-0.08,2.69 -0.18,5.25 -0.5,7.99 -0.85,7.35 -1.88,13.81 -4.68,19.63 -0.73,4.96 -0.56,14.05 -1.13,18.42 -0.88,6.91 -3.42,14.41 -4.22,20.93l-0.91 114.04c0.49,11.34 1.85,24.29 3.88,37.04 1.5,-12.64 2.13,-23.57 2.17,-36.42 0.03,-12.86 1.66,-21.05 7.14,-31.93 0.14,-3.54 0.13,-6.77 0.69,-10.56 0.99,-6.66 2.32,-12.62 5,-18.03l5.3 -24.66 0.62 -1.88c2.65,-7.96 4.94,-16.02 7.62,-23.98l0.12 -0.35 16.51 -45.93 0.42 -0.98c0.43,-1.02 0.86,-2.02 1.33,-3.03l0.25 -0.52 21.52 -41.76c2.79,-6.03 6.11,-11.23 10.21,-16.51 0.57,-0.73 1.96,-2.31 2.38,-3.13l0.21 -0.41 8.91 -16.41 1.28 -1.79c0.25,-0.34 0.5,-0.69 0.74,-1.03 0.7,-1.15 1.44,-2.29 2.17,-3.41 2.52,-3.9 4.9,-6.97 7.63,-10.55l86.6 -117.54c16.3,-27.69 35.28,-59 59.15,-80.41 18.69,-16.75 34.86,-29.65 58.9,-38.29 2.67,-0.97 5.26,-1.76 7.96,-2.56 0.75,-0.31 1.51,-0.67 2.23,-1.01 10.26,-4.72 21.15,-6.26 32.21,-3.88z"/>
  </g>
  <path id="outline" class="fil4" d="M84.31 1236.62c-10.3,-12.33 -15.88,-27.43 -21.97,-42.32 -6.68,-16.35 -8.73,-32.53 -14.47,-48.05 -3.6,-9.72 -3.63,-12.81 -6.94,-24.05 -6.4,-21.79 -11.81,-55.86 -12.81,-80.7l0.94 -116.65c0.7,-7.87 3.46,-15.43 4.5,-23.52 1.19,-9.26 0.1,-17.06 2.68,-25.85 2.38,-8.14 1.58,1.1 3.07,-11.75 0.69,-5.97 -0.31,-6.58 1.49,-13.2l67.42 -224.55c0.83,-5.17 -0.16,-9.82 0.4,-14.46 1.6,-13.4 3.5,-0.62 5.93,-15.24 0.38,-2.28 0.29,-4.95 0.29,-7.3 -0.11,-40.39 3.58,-17.44 6.06,-37.49 3.93,-31.74 -7.63,-84.69 -4.89,-118.39 10.33,-0.11 11.92,1.79 19.6,4.44l69.3 10.88c19.44,1.42 31.57,1.39 48.91,5 14.73,3.06 32.55,2.47 48.74,4.59l65.64 16.07c81.07,32.19 80.3,50.82 138.91,103.7 29.62,26.72 65.85,24.87 77.08,29.31 34.02,13.44 57.71,-1.61 70.73,-2.77 17.89,-1.61 11.39,-1.86 25.22,-7.34l55.23 -28.61c4.54,-2.78 -2.84,-2.05 6.42,-3.24 3.56,14.45 3.07,44.81 3.94,61.16 1.13,21.11 7.73,32.34 8.91,52.45 1.62,27.58 11.69,54.51 16.82,81.74 1.55,8.19 4.95,13.6 6.34,23.46 12.25,87.08 42.36,195.28 32.22,285.53 -1.12,10.02 0.03,19.7 0.23,29.71 0.32,16.83 -2.98,12.71 -4.65,23.04 -0.92,5.64 0.05,10.08 -1.04,16.04l-14.85 58.06c-2.91,12.32 0.54,1.23 -4.07,10.1 -11.48,22.12 -6.72,19.65 -24.95,50.25 -6.29,10.56 -16.53,25.38 -25.16,33.39 -19.4,17.97 -43.54,47.31 -72.37,50.01 -0.99,-14.22 0.85,-19.79 2.16,-31.31 1.69,-14.92 3.61,-14.53 5.34,-25.88 4.01,-26.31 8.58,-43.69 10.44,-68.54 3.46,-46.23 14.91,-112.49 0.8,-155.97 -4.79,-14.76 -7.54,-41 -11.38,-57 -8.03,-33.5 -22.14,-69.9 -33.48,-100.5 -3.04,-8.19 -5.94,-16.67 -9.4,-24.66l-4.57 -13.89c-2.67,-8.73 -1.9,-4.54 -5,-10.09l-27.95 -73.15c-3.08,-8.57 -6.71,-13.45 -10.81,-22.07 -14.35,-30.18 -30.83,-56.61 -49.4,-84.82l-30.17 -36.9c-11.69,-12.32 -20.14,-21.31 -33.2,-33.32 -8.02,-7.38 -10.66,-8.98 -19.85,-13.25l-24.8 -8.62c-9.09,-1.8 -12.4,-6.85 -21.73,-2.55 -7.63,3.52 -5.71,2.1 -13.09,4.75 -19.2,6.9 -31.76,17.52 -47.04,31.22 -20.46,18.35 -39.18,49.79 -53.1,73.46l-87.88 119.27c-3.9,5.11 -1.88,1.83 -6.21,8.52 -3.68,5.69 -0.65,1.35 -3.83,5.81l-7.64 14.05c-3.84,7.51 -8.18,9.84 -12.25,18.98l-21.66 42.04c-0.26,0.54 -0.52,1.2 -0.75,1.75l-16.02 44.56c-2.82,8.36 -5.1,16.39 -7.59,23.87l-5.37 25c-1.94,10.22 -2.18,0.6 -4.09,13.46 -0.73,4.93 0.07,8.59 -1.03,13.56 -2.15,9.81 -6.38,7.58 -6.42,23.74 -0.11,47.54 -5.1,30.78 -3.67,90.01 0.53,21.92 -4.58,41.45 -4.58,57.39 -0.01,14.75 1.74,16.8 -3.27,29.2 -0.86,2.11 -2.9,7.59 -4.17,10.19 -4.12,8.42 -0.33,3.52 -6.19,8.24zm238.52 -1047.4c6.67,-3.32 6.18,-5.74 10.44,-12.25l13.42 -30.2c15.05,-33.06 68.23,-46.63 97.21,-57.42l61.81 -26.91c44.96,-24.69 52.25,-22.2 94.24,8.55 52.91,38.74 56.48,40.44 108.12,65.03l5.11 2.47c11.45,6.12 6.44,3.4 19.58,6.14 8.51,1.77 7.04,3.87 16.59,5.27 8.27,1.22 12.97,-0.66 20.84,2.16 9.48,3.4 1.47,5 16.27,5.95 6.72,0.43 16.19,-1.02 22.6,-0.09 28.7,4.15 19.59,21.28 23.76,45.64 2.21,12.91 3.8,6.59 5.91,19.99 5.92,37.55 -2.11,53.54 -2.56,62.6 -0.68,13.88 3.79,32.9 -0.43,43.49 -3.56,8.91 -4.77,-0.53 -4.61,16.42 0.19,20.69 -3.66,12.95 -5.85,27.94 -2.25,15.48 -4.1,11.29 -6.73,24.94 -3.3,17.13 -8.43,23.97 -14.59,39.42 -0.22,0.55 -0.41,1.24 -0.63,1.78 -6.92,17.21 -17.44,30.96 -27.19,47.7 -8.27,14.18 -29.11,35.88 -41.08,46.75 -4.96,4.5 -6.48,5.43 -12.44,9.68 -6.37,4.54 -6.51,6.03 -12.2,9.74l-11.29 5.92c-0.47,0.28 -1.04,0.7 -1.5,1l-15.07 9.59c-11.2,6.57 -6.38,2.16 -17.98,4.85 -8.28,1.92 -6.82,4.59 -15.81,6.36 -14.7,2.88 -50.67,2.35 -67.52,0.41 -10.29,-1.18 -2.61,0.57 -10.1,-2.96 -18.11,-8.55 -16.57,-3.09 -38.66,-17.33 -25.5,-16.44 -30.46,-25.48 -49.14,-43.09 -29.54,-27.83 -45.44,-41.95 -79.59,-58.25 -21.58,-10.31 -45.61,-17.51 -69.29,-21.29l-144.82 -14.66 -68.85 -21.11c-5.01,-2.05 -9.03,-4.7 -14.12,-9.1 -18.25,-15.77 -29.92,-30.47 -41.48,-51.12 -4.63,-8.26 -3.1,-5.88 -7.15,-15.68 -13.12,-31.79 -12.7,-65.8 -13.25,-98.96 -0.41,-24.4 6.31,-41.77 15.52,-61.51l1.63 -3.26c10.44,-20.67 22.5,-37.07 38.3,-54.04 7.84,-8.43 13.79,-14.82 21.38,-22.59 33.34,-34.14 36.69,-40.9 88.94,-17.21 27.43,12.44 54.65,20.41 81.17,32.74 16.13,7.5 29.43,5.57 40.48,25.82 -5.21,10.39 -4.2,-0.41 -8.25,13.01l-9.16 35.3c-0.79,7.69 2.35,8.9 8.02,12.37zm-228.79 291.99c1.77,36.01 0.44,61.75 -2.59,95.2 -1.54,17 -2.72,4.5 -5.55,16.11 -2.51,10.34 1.94,10.93 -2.07,22.25l-39.41 125.36c-6.11,25.54 -15.87,47.52 -21.13,73.1 -2.37,11.53 -3.71,3.7 -5.73,18.11 -3.46,24.77 -13.75,57.27 -12.76,82.61 0.32,8.28 1.85,14.8 -0.88,21.71 -3.69,9.34 -4.63,3.89 -4.38,18.18 0.97,57.19 -0.39,130.41 16.56,186.68l17.62 55.08c9.67,21.23 23.84,72.81 52.2,74.69 25.19,1.67 34.82,-39.11 36.16,-59.5 1.14,-17.45 5.87,-24.9 5.75,-39.09 -0.12,-15.09 -4.01,-34.98 1.1,-47.74 3.49,-8.74 3.63,-2.44 3.16,-17.24 -0.27,-8.35 -0.73,-16.84 -1.05,-25.22 -1.65,-43.15 3.57,-29.57 5.14,-42.77 0.85,-7.22 -1.2,-14.87 0.11,-21.92 2.37,-12.68 4.12,-0.94 5.32,-20.34 1.04,-16.9 1.77,-7.17 5.01,-18.45 1.84,-6.41 0.46,-6.27 1.54,-10.74 2.71,-11.24 -0.64,1.73 3.94,-7.93 0.26,-0.53 0.64,-1.11 0.87,-1.68l17.66 -49.6c0.26,-0.5 3.52,-6.47 4.23,-7.77 2.36,-4.3 2.45,-4.25 4.13,-7.8 0.24,-0.5 0.51,-1.15 0.74,-1.67l48.99 -77.86c5.66,-7.39 -0.21,0.34 4.68,-7.62 5.66,-9.21 15.63,-16.89 20.4,-25.72 9.01,-16.67 30.97,-39.15 39.86,-54.97l17.8 -28.61c5.29,-9.63 5.66,-6.31 10.68,-13.44 5.27,-7.47 2.04,-7.35 8.86,-15.6l33.2 -37.4c19.63,-18.26 12.38,-12.77 35.64,-23.24 4.06,-1.83 3.34,-2.12 10.03,-2.33 9.92,-0.32 14.02,3.4 19.41,5.57 10.66,4.29 8.25,-0.24 17.95,7.4 23.75,18.71 38.32,42.37 59.02,63.99 4.06,4.24 8.68,9.91 11.39,14.19l10.01 15.85c11.81,18.67 25.64,48.81 33.97,68.59l3.15 7.56c17.24,37.66 28.97,78.73 45.87,114.92 21.54,46.13 51.22,159 51.95,201.86 0.25,15.13 -0.08,29.23 -0.91,43.74 -0.47,8.08 -2.04,14.91 -2.42,21.63 -0.45,8.08 1.07,16.66 0.28,24.42 -0.89,8.91 -2.84,7.72 -4.17,17.78l-9.88 62.21c-1.99,20.12 -15.76,65.28 0.51,82.06 21.07,21.73 60.54,-2.18 77.59,-17.43l10.69 -8.75c27.65,-23.96 50.03,-53.74 64.93,-88.37l20.14 -49.85c5.87,-18.99 7.78,-39.68 12.83,-57.24 10.09,-35.04 4.22,-167.15 -4.03,-210.37 -2.08,-10.89 -3.98,-8.21 -5.53,-19.86 -2.68,-20.22 -7.28,-72.32 -13.11,-90.08 -7.75,-23.6 -9.69,-59.27 -17.97,-82.84l-17.93 -81.62c-3.45,-23.25 -10.68,-69.5 -1.5,-91.26l1.33 -3.26c4.18,-15.82 -2.11,-14.39 10.23,-31.13l14.07 -22.4c2.76,-4.96 1.35,-3.77 3.58,-8.69 2.11,-4.64 5.59,-8.44 9.25,-12.64 5.68,-6.51 4.78,-7.45 9.22,-15.11 9.92,-17.13 14.46,-31.09 23.03,-49.74l5.56 -16.12c2.6,-13.47 4.56,-5.98 5.87,-17.98 1.28,-11.79 -2.62,-12.14 2.29,-22.21 10.63,-21.78 -0.36,-22.81 5.55,-40.02 4.8,-13.97 4.14,-26.48 4.4,-43.03 0.21,-14.47 -2.08,-85.83 -5.27,-96.34 -2.5,-8.23 -8.47,-24.71 -16.6,-31.95 -28.09,-25.01 -59.34,-15.79 -75.23,-23.4 -16.35,-7.83 -21.88,1.07 -39.27,-8.75 -7.44,-4.2 -8.26,-2.73 -16.75,-6.11 -45.54,-18.12 -81.23,-51.4 -121.47,-77.06 -6.47,-4.12 -10.13,-4.39 -17.52,-8.19 -11.61,-5.98 -27.71,-9.92 -42.99,-4.28l-120.52 52.07c-3.13,1.56 0.07,0.48 -5.47,2.23 -3.33,1.05 -5.93,1.11 -9.99,2.54 -34.39,12.11 -35.47,21.79 -77.08,8.92 -13.57,-4.19 -21.3,-8.16 -34.32,-13.89 -12.05,-5.32 -25.2,-7.66 -38.25,-12.57 -33.41,-12.57 -33.21,-22.58 -70.62,-28.4 -7.58,-1.18 -15.04,-0.85 -22.54,-0.24 -29.61,2.41 -46.74,34.7 -66.19,54.31 -8.1,8.16 -17.37,16.71 -24.29,24.48 -5.42,6.09 -4.36,5.91 -8.57,13.17 -13.9,23.94 -28.52,44.06 -32.89,73.76 -1.69,11.46 -4.93,18 -4.17,32.41 2.05,38.53 4.56,73.58 19.33,109.04l26.52 48.15c24.33,27.32 18.66,30.92 25,49.51 5.92,17.37 5.85,25.75 6.7,45.99z"/>
 </g>
</svg>
