<?xml version="1.0" encoding="UTF-8"?>
<!DOCTYPE svg PUBLIC "-//W3C//DTD SVG 1.1//EN" "http://www.w3.org/Graphics/SVG/1.1/DTD/svg11.dtd">
<!-- Creator: CorelDRAW (Versión de evaluación) -->
<svg xmlns="http://www.w3.org/2000/svg" xml:space="preserve" width="739px" height="2458px" version="1.1" style="shape-rendering:geometricPrecision; text-rendering:geometricPrecision; image-rendering:optimizeQuality; fill-rule:evenodd; clip-rule:evenodd"
viewBox="0 0 739 2457.4"
 xmlns:xlink="http://www.w3.org/1999/xlink"
 xmlns:xodm="http://www.corel.com/coreldraw/odm/2003">
 <defs>
  <style type="text/css">
   <![CDATA[
    .str1 {stroke:#FFF212;stroke-width:10;stroke-miterlimit:22.9256}
    .str0 {stroke:#D6D2C8;stroke-width:10;stroke-miterlimit:22.9256}
    .fil1 {fill:#FECB29}
    .fil0 {fill:#F5F1E8}
   ]]>
  </style>
 </defs>
 <g id="tooth-pulpotomy-43">
  <metadata id="CorelCorpID_0Corel-Layer"/>
  <path id="crown" class="fil0 str0" d="M731.76 498.82c22.12,-120.88 -10.81,-235.23 -81.37,-332.51 -46.54,-64.15 -170.13,-177.6 -265.03,-165.39 -45.28,5.84 -95.41,56.75 -130.98,84.01 -51.43,39.39 -81.35,54.44 -138.52,78.95 -133.01,57.02 -115.58,186.65 -115.44,313.16 0.18,159.9 119.43,567.82 354.47,508.39 110.68,-27.97 185.99,-108.59 254.05,-180.88 108.58,-115.32 94.85,-153 122.82,-305.73z"/>
  <g id="_2014507931648">
   <path class="fil1 str1" d="M412.68 207.24c-13.78,11.49 -27.78,24.26 -39.27,33.07 -59.06,45.24 -108.36,72.28 -175.27,101.25 -5.75,32.52 -2.01,110.63 -1.99,135.26 0.07,58.43 23.3,142.04 44.47,196 10.63,27.11 44.58,100.12 72.55,121.09 57.82,-18.02 113.82,-81.64 153.26,-123.53 14.16,-15.03 41.01,-43.17 47.61,-63.93 4.23,-13.32 6.56,-29.17 8.79,-42.94 5.41,-33.37 10.31,-66.66 16.41,-99.94 12.28,-67.11 -7.86,-127.98 -47.28,-182.33 -13.84,-19.07 -49.93,-54.46 -79.28,-74z"/>
  </g>
  <path id="root" class="fil0 str0" d="M112.45 901.9c-7.94,54.39 26.81,360.53 38.74,431.04 78.34,463.06 129.8,484.14 169.97,1026.13 16.21,218.65 279.5,109.63 279.76,-706.41 0.13,-434.7 -9.04,-471.52 68.46,-871.05 -82.62,79.84 -129.5,154.91 -240.95,204.72 -158.82,70.96 -218.26,10.13 -315.98,-84.43z"/>
 </g>
</svg>
