<?xml version="1.0" encoding="UTF-8"?>
<!DOCTYPE svg PUBLIC "-//W3C//DTD SVG 1.1//EN" "http://www.w3.org/Graphics/SVG/1.1/DTD/svg11.dtd">
<!-- Creator: CorelDRAW (Versión de evaluación) -->
<svg xmlns="http://www.w3.org/2000/svg" xml:space="preserve" width="801px" height="2052px" version="1.1" style="shape-rendering:geometricPrecision; text-rendering:geometricPrecision; image-rendering:optimizeQuality; fill-rule:evenodd; clip-rule:evenodd"
viewBox="0 0 801 2052.71"
 xmlns:xlink="http://www.w3.org/1999/xlink"
 xmlns:xodm="http://www.corel.com/coreldraw/odm/2003">
 <defs>
  <style type="text/css">
   <![CDATA[
    .fil4 {fill:#4B4B4D}
    .fil3 {fill:#FFCC29}
    .fil1 {fill:#F7ADAF}
    .fil0 {fill:#F3EDD9}
    .fil2 {fill:#F8FBFF}
   ]]>
  </style>
 </defs>
 <g id="pulpotomy">
  <metadata id="CorelCorpID_0Corel-Layer"/>
  <path id="root" class="fil0" d="M224.74 324.16l2.75 0 0 2.75 2.75 0 0 5.5 2.76 0 0 5.51 2.75 0 0 5.5 2.75 0 0 13.77 2.75 0 0 82.57 -2.75 0 0 121.12 2.75 0 0 33.03 2.76 0 0 19.27 2.75 0 0 19.27 2.75 0 0 13.76 2.76 0 0 19.27 2.75 0 0 11.01 2.75 0 0 13.76 2.75 0 0 11.01 2.75 0 0 13.76 2.76 0 0 8.26 2.75 0 0 8.26 2.75 0 0 13.76 2.76 0 0 8.26 2.75 0 0 11.01 2.75 0 0 8.26 2.75 0 0 5.5 2.76 0 0 8.26 2.75 0 0 5.51 2.75 0 0 11.01 2.75 0 0 8.25 2.76 0 0 5.51 2.75 0 0 8.26 2.75 0 0 5.5 2.75 0 0 5.51 2.76 0 0 8.26 2.75 0 0 5.5 2.75 0 0 5.51 2.75 0 0 5.5 2.76 0 0 2.75 2.75 0 0 5.51 2.75 0 0 5.5 2.76 0 0 5.51 2.75 0 0 2.75 2.75 0 0 5.51 2.75 0 0 2.75 2.75 0 0 5.51 2.76 0 0 2.75 2.75 0 0 5.5 2.75 0 0 2.75 2.76 0 0 2.76 2.75 0 0 5.5 2.75 0 0 2.75 2.75 0 0 2.76 2.76 0 0 2.75 2.75 0 0 2.75 2.75 0 0 2.76 2.75 0 0 2.75 2.75 0 0 2.75 2.76 0 0 2.75 2.75 0 0 2.75 5.51 0 0 2.76 5.5 0 0 2.75 5.51 0 0 2.75 30.28 0 0 -2.75 8.25 0 0 -2.75 5.51 0 0 -2.76 2.75 0 0 -2.75 2.76 0 0 -2.75 2.75 0 0 -2.75 5.5 0 0 -2.75 2.75 0 0 -2.76 2.76 0 0 -2.75 2.75 0 0 -5.51 2.75 0 0 -2.75 2.76 0 0 -2.75 2.75 0 0 -5.51 2.75 0 0 -2.75 2.75 0 0 -2.75 2.76 0 0 -5.5 2.75 0 0 -5.51 2.75 0 0 -2.75 2.75 0 0 -5.51 2.75 0 0 -5.5 2.76 0 0 -5.51 2.75 0 0 -2.75 2.75 0 0 -5.51 2.76 0 0 -5.5 2.75 0 0 -5.51 2.75 0 0 -5.5 2.75 0 0 -5.51 2.76 0 0 -2.75 2.75 0 0 -5.5 2.75 0 0 -5.51 2.76 0 0 -5.5 2.75 0 0 -2.76 2.75 0 0 -5.5 2.75 0 0 -5.51 2.75 0 0 -5.5 2.76 0 0 -5.51 2.75 0 0 -2.75 2.75 0 0 -5.51 2.75 0 0 -5.5 2.76 0 0 -2.75 2.75 0 0 -5.51 2.75 0 0 -2.75 2.76 0 0 -5.51 2.75 0 0 -5.5 2.75 0 0 -5.51 2.75 0 0 -2.75 2.75 0 0 -5.5 2.76 0 0 -5.51 2.75 0 0 -5.51 2.75 0 0 -5.5 2.76 0 0 -2.75 2.75 0 0 -5.51 2.75 0 0 -5.5 2.75 0 0 -5.51 2.76 0 0 -5.5 2.75 0 0 -5.51 2.75 0 0 -5.5 2.75 0 0 -5.51 2.76 0 0 -5.5 2.75 0 0 -5.51 2.75 0 0 -8.26 2.75 0 0 -5.5 2.76 0 0 -11.01 2.75 0 0 -5.51 2.75 0 0 -5.5 2.75 0 0 -11.01 2.76 0 0 -5.51 2.75 0 0 -5.5 2.75 0 0 -11.01 2.76 0 0 -11.01 2.75 0 0 -5.51 2.75 0 0 -11.01 2.75 0 0 -13.76 2.75 0 0 -11.01 2.76 0 0 -13.77 2.75 0 0 -11.01 2.75 0 0 -16.51 2.76 0 0 -22.02 2.75 0 0 -11.01 2.75 0 0 -22.02 2.75 0 0 -24.78 2.76 0 0 -30.28 2.75 0 0 -13.76 2.75 0 0 -13.76 2.75 0 0 -11.01 2.76 0 0 -8.26 2.75 0 0 -5.5 2.75 0 0 -5.51 2.75 0 0 -2.75 2.76 0 0 -5.51 2.75 0 0 -2.75 11.01 0 0 2.75 5.51 0 0 2.75 2.75 0 0 2.76 2.75 0 0 2.75 2.75 0 0 5.51 2.75 0 0 2.75 2.76 0 0 5.5 2.75 0 0 5.51 2.75 0 0 5.5 2.76 0 0 5.51 2.75 0 0 11.01 2.75 0 0 5.5 2.75 0 0 11.01 2.76 0 0 5.51 2.75 0 0 13.76 2.75 0 0 8.26 2.75 0 0 16.52 2.75 0 0 13.76 2.76 0 0 19.27 2.75 0 0 11.01 2.75 0 0 19.26 2.76 0 0 30.28 2.75 0 0 121.12 -2.75 0 0 33.03 -2.76 0 0 19.27 -2.75 0 0 13.76 -2.75 0 0 19.27 -2.76 0 0 22.02 -2.75 0 0 8.26 -2.75 0 0 16.51 -2.75 0 0 16.52 -2.75 0 0 11.01 -2.76 0 0 8.26 -2.75 0 0 13.76 -2.75 0 0 13.76 -2.75 0 0 8.26 -2.76 0 0 16.51 -2.75 0 0 5.51 -2.75 0 0 13.76 -2.76 0 0 11.01 -2.75 0 0 13.77 -2.75 0 0 5.5 -2.75 0 0 16.52 -2.75 0 0 16.51 -2.76 0 0 16.52 -2.75 0 0 13.76 -2.75 0 0 19.27 -2.76 0 0 19.27 -2.75 0 0 35.78 -2.75 0 0 82.58 2.75 0 0 19.27 2.75 0 0 16.51 -5.5 0 0 -2.75 -2.75 0 0 -2.75 -5.51 0 0 -2.76 -5.5 0 0 -2.75 -5.51 0 0 -2.75 -8.26 0 0 -2.75 -5.5 0 0 -2.76 -8.26 0 0 -2.75 -11.01 0 0 -2.75 -16.52 0 0 -2.75 -16.51 0 0 -2.76 -93.59 0 0 -2.75 -27.52 0 0 -2.75 -38.54 0 0 -2.75 -11.01 0 0 -2.76 -27.53 0 0 -2.75 -16.51 0 0 -2.75 -85.33 0 0 2.75 -16.52 0 0 2.75 -33.03 0 0 2.76 -35.78 0 0 2.75 -19.27 0 0 2.75 -16.52 0 0 2.75 -11.01 0 0 2.76 -8.26 0 0 2.75 -8.25 0 0 2.75 -11.01 0 0 2.75 -5.51 0 0 2.76 -5.5 0 0 2.75 -5.51 0 0 2.75 -5.51 0 0 2.75 -2.75 0 0 -11.01 2.75 0 0 -8.25 2.76 0 0 -22.02 2.75 0 0 -11.02 2.75 0 0 -137.63 -2.75 0 0 -27.52 -2.75 0 0 -33.03 -2.76 0 0 -22.02 -2.75 0 0 -11.01 -2.75 0 0 -22.02 -2.75 0 0 -16.52 -2.75 0 0 -30.28 -2.76 0 0 -30.27 -2.75 0 0 -27.53 -2.75 0 0 -134.88 2.75 0 0 -27.52 2.75 0 0 -11.01 2.76 0 0 -16.52 2.75 0 0 -11.01 2.75 0 0 -11.01 2.75 0 0 -16.52 2.75 0 0 -11.01 2.76 0 0 -11.01 2.75 0 0 -5.5 2.75 0 0 -11.01 2.76 0 0 -13.77 2.75 0 0 -8.25 2.75 0 0 -5.51 2.75 0 0 -11.01 2.76 0 0 -5.5 2.75 0 0 -11.01 2.75 0 0 -8.26 2.75 0 0 -5.51 2.76 0 0 -8.25 2.75 0 0 -8.26 2.75 0 0 -5.51 2.75 0 0 -8.26 2.76 0 0 -5.5 2.75 0 0 -8.26 2.75 0 0 -5.5 2.75 0 0 -5.51 2.76 0 0 -5.5 2.75 0 0 -5.51 2.75 0 0 -5.51 2.76 0 0 -5.5 2.75 0 0 -2.75 2.75 0 0 -5.51 2.75 0 0 -2.75 2.75 0 0 -5.51 2.76 0 0 -2.75 2.75 0 0 -2.75 2.75 0 0 -5.51 2.76 0 0 -2.75 5.5 0 0 -2.75 2.75 0 0 -2.75 8.26 0 0 -2.76 8.26 0 0 2.76zm308.29 -38.54l2.75 0 0 2.75 2.75 0 0 2.75 2.76 0 0 11.02 2.75 0 0 11.01 2.75 0 0 49.54 -2.75 0 0 22.02 -2.75 0 0 19.27 -2.76 0 0 35.78 -2.75 0 0 24.78 -2.75 0 0 60.56 -2.75 0 0 79.82 2.75 0 0 27.53 2.75 0 0 22.02 2.75 0 0 33.03 2.76 0 0 16.51 2.75 0 0 16.52 2.75 0 0 11.01 -2.75 0 0 2.75 -2.75 0 0 5.51 -2.76 0 0 2.75 -2.75 0 0 5.51 -2.75 0 0 5.5 -2.75 0 0 2.75 -2.76 0 0 5.51 -2.75 0 0 5.5 -2.75 0 0 2.76 -2.75 0 0 5.5 -2.75 0 0 5.51 -2.76 0 0 5.5 -2.75 0 0 2.75 -2.75 0 0 5.51 -2.76 0 0 5.51 -2.75 0 0 2.75 -2.75 0 0 5.5 -2.75 0 0 5.51 -2.76 0 0 5.5 -2.75 0 0 5.51 -2.75 0 0 5.5 -2.76 0 0 2.76 -2.75 0 0 5.5 -2.75 0 0 5.51 -2.75 0 0 5.5 -2.75 0 0 2.75 -2.76 0 0 8.26 -2.75 0 0 2.75 -2.75 0 0 5.51 -2.75 0 0 5.5 -2.76 0 0 2.76 -2.75 0 0 5.5 -2.75 0 0 2.75 -2.76 0 0 5.51 -2.75 0 0 2.75 -2.75 0 0 5.51 -2.75 0 0 2.75 -2.75 0 0 2.75 -2.76 0 0 2.75 -2.75 0 0 2.76 -2.75 0 0 2.75 -2.76 0 0 2.75 -2.75 0 0 2.75 -2.75 0 0 2.76 -5.51 0 0 2.75 -5.5 0 0 2.75 -11.01 0 0 -2.75 -8.26 0 0 -2.75 -2.75 0 0 -2.76 -5.51 0 0 -2.75 -2.75 0 0 -2.75 -2.75 0 0 -2.75 -2.76 0 0 -2.76 -2.75 0 0 -2.75 -2.75 0 0 -5.5 -2.76 0 0 -2.75 -2.75 0 0 -2.76 -2.75 0 0 -5.5 -2.75 0 0 -2.76 -2.75 0 0 -5.5 -2.76 0 0 -2.75 -2.75 0 0 -5.51 -2.75 0 0 -2.75 -2.75 0 0 -5.51 -2.76 0 0 -5.5 -2.75 0 0 -5.51 -2.75 0 0 -5.5 -2.76 0 0 -2.75 -2.75 0 0 -5.51 -2.75 0 0 -5.5 -2.75 0 0 -5.51 -2.75 0 0 -8.26 2.75 0 0 -11.01 2.75 0 0 -13.76 2.75 0 0 -8.26 2.75 0 0 -13.76 2.76 0 0 -13.76 2.75 0 0 -11.01 2.75 0 0 -19.27 2.76 0 0 -13.77 2.75 0 0 -13.76 2.75 0 0 -8.25 2.75 0 0 -16.52 2.76 0 0 -8.26 2.75 0 0 -19.27 2.75 0 0 -11.01 2.75 0 0 -13.76 2.75 0 0 -8.26 2.76 0 0 -13.76 2.75 0 0 -8.26 2.75 0 0 -11.01 2.76 0 0 -11.01 2.75 0 0 -5.51 2.75 0 0 -11.01 2.75 0 0 -5.5 2.76 0 0 -11.01 2.75 0 0 -11.01 2.75 0 0 -5.51 2.76 0 0 -8.26 2.75 0 0 -8.25 2.75 0 0 -5.51 2.75 0 0 -8.26 2.75 0 0 -8.25 2.76 0 0 -5.51 2.75 0 0 -8.26 2.75 0 0 -8.25 2.76 0 0 -8.26 2.75 0 0 -5.51 2.75 0 0 -8.26 2.75 0 0 -5.5 2.76 0 0 -8.26 2.75 0 0 -5.5 2.75 0 0 -5.51 2.76 0 0 -8.26 2.75 0 0 -5.5 2.75 0 0 -5.51 2.75 0 0 -8.25 2.75 0 0 -5.51 2.76 0 0 -5.5 2.75 0 0 -8.26 2.75 0 0 -2.76 2.76 0 0 -5.5 2.75 0 0 -5.5 2.75 0 0 -5.51 2.75 0 0 -5.51 2.76 0 0 -5.5 2.75 0 0 -5.51 2.75 0 0 -2.75 2.75 0 0 -5.5 2.75 0 0 -5.51 2.76 0 0 -2.75 2.75 0 0 -5.51 2.75 0 0 -2.75 2.76 0 0 -5.5 2.75 0 0 -2.76 2.75 0 0 -2.75 2.75 0 0 -2.75 2.76 0 0 -2.76 2.75 0 0 -2.75 2.75 0 0 -2.75 5.51 0 0 -2.75 13.76 0 0 2.75z"/>
  <g id="_2327726655776">
   <path class="fil1" d="M172.44 682l-2.75 0 0 46.79 2.75 0 0 30.27 2.75 0 0 30.28 2.76 0 0 16.52 2.75 0 0 22.02 2.75 0 0 11.01 2.75 0 0 22.02 2.76 0 0 33.03 2.75 0 0 27.53 2.75 0 0 156.89 13.76 0 0 -2.75 16.52 0 0 -2.75 228.47 0 0 2.75 16.51 0 0 2.75 27.53 0 0 2.76 11.01 0 0 2.75 38.53 0 0 2.75 27.53 0 0 2.76 35.78 0 0 -88.09 2.75 0 0 -35.78 2.76 0 0 -19.27 2.75 0 0 -19.27 2.75 0 0 -13.76 2.75 0 0 -16.52 2.76 0 0 -16.51 2.75 0 0 -16.52 2.75 0 0 -5.5 2.75 0 0 -13.77 2.76 0 0 -11.01 2.75 0 0 -13.76 2.75 0 0 -5.5 2.75 0 0 -13.76 -2.75 0 0 2.75 -2.75 0 0 5.5 -2.75 0 0 5.51 -2.75 0 0 5.5 -2.76 0 0 5.51 -2.75 0 0 2.75 -2.75 0 0 5.51 -2.75 0 0 5.5 -2.76 0 0 5.51 -2.75 0 0 2.75 -2.75 0 0 5.51 -2.75 0 0 2.75 -2.76 0 0 5.5 -2.75 0 0 5.51 -2.75 0 0 2.75 -2.75 0 0 5.5 -2.76 0 0 5.51 -2.75 0 0 5.51 -2.75 0 0 5.5 -2.76 0 0 2.75 -2.75 0 0 5.51 -2.75 0 0 5.51 -2.75 0 0 5.5 -2.75 0 0 2.75 -2.76 0 0 5.51 -2.75 0 0 5.5 -2.75 0 0 5.51 -2.76 0 0 5.5 -2.75 0 0 5.51 -2.75 0 0 2.75 -2.75 0 0 5.51 -2.76 0 0 5.5 -2.75 0 0 5.51 -2.75 0 0 2.75 -2.75 0 0 5.51 -2.76 0 0 5.5 -2.75 0 0 2.75 -2.75 0 0 2.75 -2.75 0 0 5.51 -2.76 0 0 2.75 -2.75 0 0 2.75 -2.75 0 0 5.51 -2.75 0 0 2.75 -2.76 0 0 2.76 -2.75 0 0 2.75 -5.51 0 0 2.75 -2.75 0 0 2.75 -2.75 0 0 2.75 -2.75 0 0 2.76 -5.51 0 0 2.75 -8.26 0 0 2.75 -173.41 0 0 -2.75 -5.51 0 0 -2.75 -5.5 0 0 -2.76 -5.51 0 0 -2.75 -2.75 0 0 -2.75 -2.75 0 0 -2.75 -2.75 0 0 -2.75 -2.76 0 0 -2.76 -2.75 0 0 -2.75 -2.75 0 0 -2.75 -2.76 0 0 -2.76 -2.75 0 0 -2.75 -2.75 0 0 -5.5 -2.75 0 0 -2.76 -2.76 0 0 -2.75 -2.75 0 0 -5.5 -2.75 0 0 -2.75 -2.75 0 0 -5.51 -2.76 0 0 -2.75 -2.75 0 0 -5.51 -2.75 0 0 -2.75 -2.75 0 0 -5.51 -2.76 0 0 -5.5 -2.75 0 0 -5.51 -2.75 0 0 -2.75 -2.75 0 0 -5.5 -2.76 0 0 -5.51 -2.75 0 0 -5.51 -2.75 0 0 -8.25 -2.76 0 0 -5.51 -2.75 0 0 -5.5 -2.75 0 0 -8.26 -2.75 0 0 -5.51 -2.75 0 0 -8.26 -2.76 0 0 -11 -2.75 0 0 -5.51 -2.75 0 0 -8.26 -2.76 0 0 -5.5 -2.75 0 0 -8.26 -2.75 0 0 -11.01 -2.75 0 0 -8.26 -2.76 0 0 -13.76 -2.75 0 0 -8.26 -2.75 0 0 -8.26 -2.75 0 0 -13.76 -2.75 0 0 -11.01 -2.76 0 0 -13.76 -2.75 0 0 -11.01 -2.75 0 0 -19.27 -2.76 0 0 -13.76 -2.75 0 0 -19.27 -2.75 0 0 -2.75zm473.45 115.6l2.75 0 0 -2.75 -2.75 0 0 2.75zm-187.18 -159.65l-2.75 0 0 5.51 -2.75 0 0 11.01 -2.76 0 0 11.01 -2.75 0 0 8.26 -2.75 0 0 13.76 -2.76 0 0 8.26 -2.75 0 0 13.76 -2.75 0 0 8.26 2.75 0 0 -2.76 2.75 0 0 -5.5 2.76 0 0 -5.51 2.75 0 0 -5.5 2.75 0 0 -2.75 2.75 0 0 -5.51 2.75 0 0 -5.51 2.76 0 0 -2.75 2.75 0 0 -5.5 -2.75 0 0 -38.54zm-22.02 82.58l-2.75 0 0 2.75 2.75 0 0 -2.75z"/>
  </g>
  <polygon id="crown" class="fil2" points="612.85,1648.15 621.11,1648.15 621.11,1645.4 626.62,1645.4 626.62,1642.65 632.12,1642.65 632.12,1639.89 634.87,1639.89 634.87,1637.14 640.38,1637.14 640.38,1634.39 643.13,1634.39 643.13,1631.64 645.89,1631.64 645.89,1628.88 648.64,1628.88 648.64,1626.13 651.39,1626.13 651.39,1623.38 654.14,1623.38 654.14,1620.63 656.9,1620.63 656.9,1615.12 659.65,1615.12 659.65,1612.37 662.4,1612.37 662.4,1609.62 665.15,1609.62 665.15,1604.11 667.91,1604.11 667.91,1601.36 670.66,1601.36 670.66,1598.6 673.41,1598.6 673.41,1593.1 676.16,1593.1 676.16,1587.6 678.92,1587.6 678.92,1582.09 681.67,1582.09 681.67,1576.58 684.42,1576.58 684.42,1571.08 687.17,1571.08 687.17,1565.57 689.93,1565.57 689.93,1560.07 692.68,1560.07 692.68,1549.06 695.43,1549.06 695.43,1538.05 698.19,1538.05 698.19,1524.29 700.94,1524.29 700.94,1510.52 703.69,1510.52 703.69,1455.47 698.19,1455.47 698.19,1463.73 695.43,1463.73 695.43,1480.24 692.68,1480.24 692.68,1496.76 689.93,1496.76 689.93,1507.77 687.17,1507.77 687.17,1513.28 684.42,1513.28 684.42,1527.04 681.67,1527.04 681.67,1532.54 678.92,1532.54 678.92,1540.8 676.16,1540.8 676.16,1546.31 673.41,1546.31 673.41,1551.81 670.66,1551.81 670.66,1557.31 667.91,1557.31 667.91,1562.82 665.15,1562.82 665.15,1568.33 662.4,1568.33 662.4,1573.83 659.65,1573.83 659.65,1579.34 656.9,1579.34 656.9,1584.84 654.14,1584.84 654.14,1587.6 651.39,1587.6 651.39,1593.1 648.64,1593.1 648.64,1595.85 645.89,1595.85 645.89,1598.6 643.13,1598.6 643.13,1601.36 640.38,1601.36 640.38,1606.86 637.63,1606.86 637.63,1609.62 632.12,1609.62 632.12,1612.37 629.37,1612.37 629.37,1615.12 626.62,1615.12 626.62,1617.87 623.87,1617.87 623.87,1620.63 618.36,1620.63 618.36,1623.38 588.08,1623.38 588.08,1620.63 577.07,1620.63 577.07,1617.87 571.57,1617.87 571.57,1615.12 563.31,1615.12 563.31,1612.37 552.3,1612.37 552.3,1609.62 546.79,1609.62 546.79,1606.86 541.29,1606.86 541.29,1604.11 535.78,1604.11 535.78,1601.36 530.28,1601.36 530.28,1598.6 524.77,1598.6 524.77,1595.85 519.27,1595.85 519.27,1593.1 513.76,1593.1 513.76,1590.35 508.26,1590.35 508.26,1587.6 502.75,1587.6 502.75,1584.84 497.25,1584.84 497.25,1582.09 491.74,1582.09 491.74,1579.34 486.23,1579.34 486.23,1576.58 480.73,1576.58 480.73,1573.83 475.23,1573.83 475.23,1571.08 472.47,1571.08 472.47,1568.33 466.97,1568.33 466.97,1565.57 464.22,1565.57 464.22,1562.82 458.71,1562.82 458.71,1560.07 455.96,1560.07 455.96,1557.31 453.2,1557.31 453.2,1549.06 455.96,1549.06 455.96,1543.55 458.71,1543.55 458.71,1535.3 461.46,1535.3 461.46,1527.04 464.22,1527.04 464.22,1513.28 466.97,1513.28 466.97,1483 464.22,1483 464.22,1463.73 461.46,1463.73 461.46,1444.46 455.96,1444.46 455.96,1474.74 453.2,1474.74 453.2,1496.76 450.45,1496.76 450.45,1502.26 447.7,1502.26 447.7,1513.28 444.95,1513.28 444.95,1521.53 442.2,1521.53 442.2,1527.04 439.44,1527.04 439.44,1532.54 436.69,1532.54 436.69,1538.05 433.94,1538.05 433.94,1543.55 431.18,1543.55 431.18,1546.31 428.43,1546.31 428.43,1551.81 425.68,1551.81 425.68,1554.56 422.93,1554.56 422.93,1557.31 420.17,1557.31 420.17,1560.07 417.42,1560.07 417.42,1562.82 414.67,1562.82 414.67,1565.57 411.91,1565.57 411.91,1568.33 406.41,1568.33 406.41,1571.08 403.66,1571.08 403.66,1573.83 398.15,1573.83 398.15,1576.58 395.4,1576.58 395.4,1579.34 389.89,1579.34 389.89,1582.09 384.39,1582.09 384.39,1584.84 378.88,1584.84 378.88,1587.6 367.87,1587.6 367.87,1590.35 362.37,1590.35 362.37,1593.1 351.36,1593.1 351.36,1595.85 334.84,1595.85 334.84,1598.6 323.83,1598.6 323.83,1601.36 318.33,1601.36 318.33,1604.11 307.32,1604.11 307.32,1606.86 301.81,1606.86 301.81,1609.62 296.31,1609.62 296.31,1612.37 288.05,1612.37 288.05,1615.12 282.54,1615.12 282.54,1617.87 277.04,1617.87 277.04,1620.63 271.53,1620.63 271.53,1623.38 266.03,1623.38 266.03,1626.13 260.52,1626.13 260.52,1628.88 255.02,1628.88 255.02,1631.64 249.51,1631.64 249.51,1634.39 241.25,1634.39 241.25,1637.14 230.24,1637.14 230.24,1639.89 224.74,1639.89 224.74,1642.65 199.97,1642.65 199.97,1639.89 191.71,1639.89 191.71,1637.14 180.7,1637.14 180.7,1634.39 175.19,1634.39 175.19,1631.64 169.69,1631.64 169.69,1628.88 164.18,1628.88 164.18,1626.13 158.68,1626.13 158.68,1623.38 153.17,1623.38 153.17,1620.63 147.67,1620.63 147.67,1617.87 142.16,1617.87 142.16,1615.12 139.41,1615.12 139.41,1612.37 133.9,1612.37 133.9,1609.62 128.4,1609.62 128.4,1606.86 122.89,1606.86 122.89,1604.11 117.39,1604.11 117.39,1601.36 111.88,1601.36 111.88,1598.6 103.63,1598.6 103.63,1595.85 95.37,1595.85 95.37,1593.1 78.85,1593.1 78.85,1590.35 56.83,1590.35 56.83,1587.6 54.08,1587.6 54.08,1584.84 51.33,1584.84 51.33,1579.34 48.58,1579.34 48.58,1576.58 45.82,1576.58 45.82,1571.08 43.07,1571.08 43.07,1565.57 40.32,1565.57 40.32,1560.07 37.56,1560.07 37.56,1549.06 34.81,1549.06 34.81,1543.55 32.06,1543.55 32.06,1532.54 29.31,1532.54 29.31,1527.04 26.55,1527.04 26.55,1510.52 23.8,1510.52 23.8,1438.96 26.55,1438.96 26.55,1425.19 29.31,1425.19 29.31,1405.92 32.06,1405.92 32.06,1392.16 34.81,1392.16 34.81,1381.15 37.56,1381.15 37.56,1375.65 40.32,1375.65 40.32,1361.88 43.07,1361.88 43.07,1353.62 45.82,1353.62 45.82,1348.12 48.58,1348.12 48.58,1337.11 51.33,1337.11 51.33,1331.6 54.08,1331.6 54.08,1323.35 56.83,1323.35 56.83,1317.84 59.58,1317.84 59.58,1309.58 62.34,1309.58 62.34,1301.33 65.09,1301.33 65.09,1295.82 67.84,1295.82 67.84,1287.56 70.6,1287.56 70.6,1282.06 73.35,1282.06 73.35,1273.8 76.1,1273.8 76.1,1268.3 78.85,1268.3 78.85,1262.79 81.6,1262.79 81.6,1257.28 84.36,1257.28 84.36,1251.78 87.11,1251.78 87.11,1246.27 89.86,1246.27 89.86,1240.77 92.61,1240.77 92.61,1238.02 95.37,1238.02 95.37,1232.51 98.12,1232.51 98.12,1229.76 100.87,1229.76 100.87,1227.01 103.63,1227.01 103.63,1224.25 106.38,1224.25 106.38,1218.75 109.13,1218.75 109.13,1216 111.88,1216 111.88,1213.24 114.63,1213.24 114.63,1210.49 117.39,1210.49 117.39,1207.74 120.14,1207.74 120.14,1204.98 125.65,1204.98 125.65,1202.23 128.4,1202.23 128.4,1199.48 133.9,1199.48 133.9,1196.73 139.41,1196.73 139.41,1193.98 144.91,1193.98 144.91,1191.22 155.92,1191.22 155.92,1188.47 161.43,1188.47 161.43,1185.72 169.69,1185.72 169.69,1182.96 191.71,1182.96 191.71,1180.21 205.47,1180.21 205.47,1177.46 233,1177.46 233,1174.71 257.77,1174.71 257.77,1171.95 290.8,1171.95 290.8,1169.2 387.14,1169.2 387.14,1171.95 406.41,1171.95 406.41,1174.71 431.18,1174.71 431.18,1177.46 453.2,1177.46 453.2,1180.21 469.72,1180.21 469.72,1182.96 571.57,1182.96 571.57,1185.72 604.6,1185.72 604.6,1188.47 615.61,1188.47 615.61,1191.22 626.62,1191.22 626.62,1193.98 637.63,1193.98 637.63,1196.73 643.13,1196.73 643.13,1199.48 651.39,1199.48 651.39,1202.23 656.9,1202.23 656.9,1204.98 662.4,1204.98 662.4,1207.74 665.15,1207.74 665.15,1210.49 670.66,1210.49 670.66,1213.24 673.41,1213.24 673.41,1216 678.92,1216 678.92,1218.75 681.67,1218.75 681.67,1221.5 684.42,1221.5 684.42,1224.25 687.17,1224.25 687.17,1227.01 689.93,1227.01 689.93,1229.76 692.68,1229.76 692.68,1232.51 695.43,1232.51 695.43,1235.26 698.19,1235.26 698.19,1240.77 700.94,1240.77 700.94,1243.52 703.69,1243.52 703.69,1249.03 706.44,1249.03 706.44,1257.28 709.19,1257.28 709.19,1262.79 711.95,1262.79 711.95,1268.3 714.7,1268.3 714.7,1276.55 717.45,1276.55 717.45,1282.06 720.21,1282.06 720.21,1290.32 722.96,1290.32 722.96,1295.82 725.71,1295.82 725.71,1301.33 728.46,1301.33 728.46,1309.58 731.22,1309.58 731.22,1315.09 733.97,1315.09 733.97,1323.35 736.72,1323.35 736.72,1328.85 739.47,1328.85 739.47,1337.11 742.22,1337.11 742.22,1345.37 744.98,1345.37 744.98,1350.87 747.73,1350.87 747.73,1359.13 750.48,1359.13 750.48,1364.63 753.24,1364.63 753.24,1372.89 755.99,1372.89 755.99,1383.9 758.74,1383.9 758.74,1389.41 761.49,1389.41 761.49,1397.67 764.25,1397.67 764.25,1408.68 767,1408.68 767,1419.69 769.75,1419.69 769.75,1430.7 772.51,1430.7 772.51,1447.21 775.26,1447.21 775.26,1458.22 778.01,1458.22 778.01,1513.28 775.26,1513.28 775.26,1529.79 772.51,1529.79 772.51,1540.8 769.75,1540.8 769.75,1554.56 767,1554.56 767,1562.82 764.25,1562.82 764.25,1568.33 761.49,1568.33 761.49,1576.58 758.74,1576.58 758.74,1582.09 755.99,1582.09 755.99,1587.6 753.24,1587.6 753.24,1593.1 750.48,1593.1 750.48,1598.6 747.73,1598.6 747.73,1604.11 744.98,1604.11 744.98,1606.86 742.22,1606.86 742.22,1609.62 739.47,1609.62 739.47,1615.12 736.72,1615.12 736.72,1617.87 733.97,1617.87 733.97,1620.63 731.22,1620.63 731.22,1623.38 728.46,1623.38 728.46,1626.13 725.71,1626.13 725.71,1628.88 722.96,1628.88 722.96,1631.64 720.21,1631.64 720.21,1634.39 717.45,1634.39 717.45,1637.14 711.95,1637.14 711.95,1639.89 709.19,1639.89 709.19,1642.65 703.69,1642.65 703.69,1645.4 698.19,1645.4 698.19,1648.15 692.68,1648.15 692.68,1650.9 687.17,1650.9 687.17,1653.66 681.67,1653.66 681.67,1656.41 673.41,1656.41 673.41,1659.16 659.65,1659.16 659.65,1661.92 640.38,1661.92 640.38,1659.16 629.37,1659.16 629.37,1656.41 623.87,1656.41 623.87,1653.66 615.61,1653.66 610.1,1653.66 610.1,1656.41 612.85,1656.41 612.85,1659.16 615.61,1659.16 615.61,1661.92 621.11,1661.92 621.11,1664.67 623.87,1664.67 623.87,1667.42 632.12,1667.42 632.12,1670.17 637.63,1670.17 637.63,1672.92 634.87,1672.92 634.87,1675.68 632.12,1675.68 632.12,1678.43 626.62,1678.43 626.62,1681.18 623.87,1681.18 623.87,1683.94 621.11,1683.94 621.11,1686.69 615.61,1686.69 615.61,1689.44 612.85,1689.44 612.85,1692.19 607.35,1692.19 607.35,1694.95 604.6,1694.95 604.6,1697.7 599.09,1697.7 599.09,1700.45 593.59,1700.45 593.59,1703.2 588.08,1703.2 588.08,1705.95 582.58,1705.95 582.58,1708.71 571.57,1708.71 571.57,1711.46 552.3,1711.46 552.3,1708.71 541.29,1708.71 541.29,1705.95 530.28,1705.95 530.28,1703.2 522.02,1703.2 522.02,1700.45 516.52,1700.45 516.52,1697.7 508.26,1697.7 508.26,1694.95 502.75,1694.95 502.75,1692.19 497.25,1692.19 497.25,1689.44 488.99,1689.44 488.99,1686.69 483.48,1686.69 483.48,1683.94 475.23,1683.94 475.23,1681.18 469.72,1681.18 469.72,1678.43 461.46,1678.43 461.46,1675.68 455.96,1675.68 455.96,1672.92 447.7,1672.92 447.7,1670.17 436.69,1670.17 436.69,1667.42 431.18,1667.42 431.18,1664.67 420.17,1664.67 420.17,1661.92 403.66,1661.92 403.66,1659.16 392.65,1659.16 392.65,1656.41 395.4,1656.41 395.4,1650.9 398.15,1650.9 398.15,1648.15 400.91,1648.15 400.91,1645.4 403.66,1645.4 403.66,1639.89 406.41,1639.89 406.41,1637.14 409.16,1637.14 409.16,1631.64 411.91,1631.64 411.91,1626.13 414.67,1626.13 414.67,1620.63 417.42,1620.63 417.42,1609.62 420.17,1609.62 420.17,1598.6 420.17,1595.85 417.42,1595.85 417.42,1598.6 414.67,1598.6 414.67,1601.36 411.91,1601.36 411.91,1606.86 409.16,1606.86 409.16,1609.62 406.41,1609.62 406.41,1615.12 403.66,1615.12 403.66,1617.87 400.91,1617.87 400.91,1620.63 398.15,1620.63 398.15,1623.38 395.4,1623.38 395.4,1626.13 392.65,1626.13 392.65,1628.88 389.89,1628.88 389.89,1634.39 387.14,1634.39 387.14,1637.14 384.39,1637.14 384.39,1639.89 378.88,1639.89 378.88,1642.65 376.13,1642.65 376.13,1645.4 373.38,1645.4 373.38,1648.15 370.62,1648.15 370.62,1650.9 367.87,1650.9 367.87,1653.66 362.37,1653.66 362.37,1656.41 359.62,1656.41 359.62,1659.16 354.11,1659.16 354.11,1661.92 351.36,1661.92 351.36,1664.67 345.85,1664.67 345.85,1667.42 337.59,1667.42 337.59,1670.17 332.09,1670.17 332.09,1672.92 323.83,1672.92 323.83,1675.68 318.33,1675.68 318.33,1678.43 312.82,1678.43 312.82,1681.18 307.32,1681.18 307.32,1683.94 301.81,1683.94 301.81,1686.69 296.31,1686.69 296.31,1689.44 290.8,1689.44 290.8,1692.19 285.3,1692.19 285.3,1694.95 279.79,1694.95 279.79,1697.7 274.29,1697.7 274.29,1700.45 268.78,1700.45 268.78,1703.2 260.52,1703.2 260.52,1705.95 255.02,1705.95 255.02,1708.71 246.76,1708.71 246.76,1711.46 210.98,1711.46 210.98,1708.71 199.97,1708.71 199.97,1705.95 191.71,1705.95 191.71,1703.2 186.2,1703.2 186.2,1700.45 180.7,1700.45 180.7,1697.7 175.19,1697.7 175.19,1694.95 169.69,1694.95 169.69,1692.19 164.18,1692.19 164.18,1689.44 158.68,1689.44 158.68,1686.69 153.17,1686.69 153.17,1683.94 150.42,1683.94 150.42,1681.18 144.91,1681.18 144.91,1678.43 142.16,1678.43 142.16,1675.68 136.66,1675.68 136.66,1672.92 133.9,1672.92 133.9,1670.17 128.4,1670.17 128.4,1667.42 125.65,1667.42 125.65,1664.67 122.89,1664.67 122.89,1661.92 120.14,1661.92 120.14,1659.16 114.63,1659.16 114.63,1656.41 111.88,1656.41 111.88,1653.66 109.13,1653.66 109.13,1650.9 106.38,1650.9 106.38,1648.15 103.63,1648.15 103.63,1645.4 100.87,1645.4 100.87,1642.65 98.12,1642.65 98.12,1639.89 95.37,1639.89 95.37,1637.14 92.61,1637.14 92.61,1634.39 89.86,1634.39 89.86,1631.64 87.11,1631.64 87.11,1628.88 84.36,1628.88 84.36,1626.13 81.6,1626.13 81.6,1620.63 78.85,1620.63 78.85,1617.87 76.1,1617.87 76.1,1615.12 73.35,1615.12 73.35,1612.37 95.37,1612.37 95.37,1615.12 103.63,1615.12 103.63,1617.87 109.13,1617.87 109.13,1620.63 111.88,1620.63 111.88,1623.38 117.39,1623.38 117.39,1626.13 122.89,1626.13 122.89,1628.88 125.65,1628.88 125.65,1631.64 131.15,1631.64 131.15,1634.39 133.9,1634.39 133.9,1637.14 139.41,1637.14 139.41,1639.89 142.16,1639.89 142.16,1642.65 144.91,1642.65 144.91,1645.4 150.42,1645.4 150.42,1648.15 155.92,1648.15 155.92,1650.9 158.68,1650.9 158.68,1653.66 166.93,1653.66 166.93,1656.41 172.44,1656.41 172.44,1659.16 177.95,1659.16 177.95,1661.92 191.71,1661.92 191.71,1664.67 202.72,1664.67 202.72,1667.42 219.23,1667.42 219.23,1664.67 233,1664.67 233,1661.92 241.25,1661.92 241.25,1659.16 252.27,1659.16 252.27,1656.41 257.77,1656.41 257.77,1653.66 263.27,1653.66 263.27,1650.9 268.78,1650.9 268.78,1648.15 274.29,1648.15 274.29,1645.4 279.79,1645.4 279.79,1642.65 285.3,1642.65 285.3,1639.89 290.8,1639.89 290.8,1637.14 296.31,1637.14 296.31,1634.39 301.81,1634.39 301.81,1631.64 307.32,1631.64 307.32,1628.88 315.57,1628.88 315.57,1626.13 326.59,1626.13 326.59,1623.38 334.84,1623.38 334.84,1620.63 348.61,1620.63 348.61,1617.87 356.86,1617.87 356.86,1615.12 373.38,1615.12 373.38,1612.37 378.88,1612.37 378.88,1609.62 387.14,1609.62 387.14,1606.86 395.4,1606.86 395.4,1604.11 400.91,1604.11 400.91,1601.36 406.41,1601.36 406.41,1598.6 409.16,1598.6 409.16,1595.85 414.67,1595.85 414.67,1593.1 417.42,1593.1 417.42,1590.35 422.93,1590.35 422.93,1587.6 425.68,1587.6 425.68,1584.84 428.43,1584.84 428.43,1582.09 431.18,1582.09 431.18,1579.34 436.69,1579.34 436.69,1576.58 442.2,1576.58 442.2,1579.34 444.95,1579.34 444.95,1582.09 450.45,1582.09 450.45,1584.84 453.2,1584.84 453.2,1587.6 458.71,1587.6 458.71,1590.35 464.22,1590.35 464.22,1593.1 466.97,1593.1 466.97,1595.85 472.47,1595.85 472.47,1598.6 477.98,1598.6 477.98,1601.36 483.48,1601.36 483.48,1604.11 486.23,1604.11 486.23,1606.86 491.74,1606.86 491.74,1609.62 497.25,1609.62 497.25,1612.37 502.75,1612.37 502.75,1615.12 508.26,1615.12 508.26,1617.87 516.52,1617.87 516.52,1620.63 522.02,1620.63 522.02,1623.38 527.52,1623.38 527.52,1626.13 533.03,1626.13 533.03,1628.88 541.29,1628.88 541.29,1631.64 546.79,1631.64 546.79,1634.39 555.05,1634.39 555.05,1637.14 560.55,1637.14 560.55,1639.89 571.57,1639.89 571.57,1642.65 577.07,1642.65 577.07,1645.4 585.33,1645.4 585.33,1648.15 "/>
  <g id="_2327730593920">
   <polygon class="fil3" points="660.11,1384.37 660.11,1380.69 657.36,1380.69 657.36,1372.43 654.61,1372.43 654.61,1366.92 651.86,1366.92 651.86,1361.42 649.1,1361.42 649.1,1353.16 646.35,1353.16 646.35,1347.66 643.6,1347.66 643.6,1339.4 640.85,1339.4 640.85,1333.89 638.09,1333.89 638.09,1328.39 635.34,1328.39 635.34,1320.13 632.59,1320.13 632.59,1314.62 629.83,1314.62 629.83,1311.87 627.08,1311.87 627.08,1306.37 624.33,1306.37 624.33,1303.61 621.58,1303.61 621.58,1300.86 618.83,1300.86 618.83,1298.11 616.07,1298.11 616.07,1295.35 613.32,1295.35 613.32,1292.6 610.57,1292.6 610.57,1289.85 607.81,1289.85 607.81,1287.1 602.31,1287.1 602.31,1284.34 599.56,1284.34 599.56,1281.59 594.05,1281.59 594.05,1278.84 591.3,1278.84 591.3,1276.09 585.8,1276.09 585.8,1273.34 580.29,1273.34 580.29,1270.58 572.03,1270.58 572.03,1267.83 566.53,1267.83 566.53,1265.08 555.51,1265.08 555.51,1262.32 544.51,1262.32 544.51,1259.57 533.49,1259.57 533.49,1256.82 500.46,1256.82 500.46,1254.07 398.62,1254.07 398.62,1251.31 382.1,1251.31 382.1,1248.56 360.08,1248.56 360.08,1245.81 335.31,1245.81 335.31,1243.05 328.87,1243.05 328.87,1245.81 304.1,1245.81 304.1,1248.56 276.57,1248.56 276.57,1251.31 262.81,1251.31 262.81,1254.07 240.79,1254.07 240.79,1256.82 232.53,1256.82 232.53,1259.57 227.03,1259.57 227.03,1262.32 216.02,1262.32 216.02,1265.08 210.51,1265.08 210.51,1267.83 205.01,1267.83 205.01,1270.58 199.5,1270.58 199.5,1273.34 196.75,1273.34 196.75,1276.09 191.24,1276.09 191.24,1278.84 188.49,1278.84 188.49,1281.59 185.74,1281.59 185.74,1284.34 182.99,1284.34 182.99,1287.1 180.23,1287.1 180.23,1289.85 177.48,1289.85 177.48,1295.35 174.73,1295.35 174.73,1298.11 171.97,1298.11 171.97,1300.86 169.22,1300.86 169.22,1303.61 166.47,1303.61 166.47,1309.12 163.72,1309.12 163.72,1311.87 160.96,1311.87 160.96,1317.37 158.21,1317.37 158.21,1322.88 155.46,1322.88 155.46,1328.39 152.71,1328.39 152.71,1333.89 149.95,1333.89 149.95,1339.4 147.2,1339.4 147.2,1344.9 144.45,1344.9 144.45,1353.16 141.7,1353.16 141.7,1358.66 138.94,1358.66 138.94,1366.92 136.19,1366.92 136.19,1372.43 133.44,1372.43 133.44,1380.69 130.69,1380.69 130.69,1388.94 127.93,1388.94 127.93,1394.45 125.18,1394.45 125.18,1402.71 122.43,1402.71 122.43,1408.21 119.68,1408.21 119.68,1419.22 116.92,1419.22 116.92,1424.73 114.17,1424.73 114.17,1432.98 111.42,1432.98 111.42,1446.75 108.67,1446.75 108.67,1452.25 105.91,1452.25 105.91,1463.26 103.16,1463.26 103.16,1472.45 105.91,1472.45 105.91,1477.96 108.67,1477.96 108.67,1488.97 111.42,1488.97 111.42,1494.47 114.17,1494.47 114.17,1499.98 116.92,1499.98 116.92,1505.48 119.68,1505.48 119.68,1508.23 122.43,1508.23 122.43,1513.74 125.18,1513.74 125.18,1516.49 127.93,1516.49 127.93,1519.24 149.95,1519.24 149.95,1522 166.47,1522 166.47,1524.75 174.73,1524.75 174.73,1527.5 182.99,1527.5 182.99,1530.25 188.49,1530.25 188.49,1533.01 193.99,1533.01 193.99,1535.76 199.5,1535.76 199.5,1538.51 205.01,1538.51 205.01,1541.27 210.51,1541.27 210.51,1544.02 216.95,1544.02 216.95,1541.27 225.2,1541.27 225.2,1538.51 230.71,1538.51 230.71,1535.76 236.21,1535.76 236.21,1533.01 247.23,1533.01 247.23,1530.25 252.73,1530.25 252.73,1527.5 263.74,1527.5 263.74,1524.75 280.26,1524.75 280.26,1522 291.27,1522 291.27,1519.24 296.77,1519.24 296.77,1516.49 307.78,1516.49 307.78,1513.74 313.29,1513.74 313.29,1510.99 318.79,1510.99 318.79,1508.23 324.3,1508.23 324.3,1505.48 327.05,1505.48 327.05,1502.73 332.55,1502.73 332.55,1499.98 335.31,1499.98 335.31,1497.22 340.81,1497.22 340.81,1494.47 343.57,1494.47 343.57,1491.72 346.32,1491.72 346.32,1488.97 349.07,1488.97 349.07,1486.21 351.82,1486.21 351.82,1483.46 354.58,1483.46 354.58,1480.71 357.33,1480.71 357.33,1475.2 360.08,1475.2 360.08,1472.45 362.83,1472.45 362.83,1466.95 365.59,1466.95 365.59,1461.44 368.34,1461.44 368.34,1455.93 371.09,1455.93 371.09,1450.43 373.84,1450.43 373.84,1442.17 376.6,1442.17 376.6,1431.16 379.35,1431.16 379.35,1425.66 382.1,1425.66 382.1,1403.64 384.85,1403.64 384.85,1373.36 532.56,1373.36 532.56,1392.63 535.32,1392.63 535.32,1411.9 538.07,1411.9 538.07,1497.22 543.57,1497.22 543.57,1499.98 546.33,1499.98 546.33,1502.73 551.83,1502.73 551.83,1505.48 557.34,1505.48 557.34,1508.23 562.84,1508.23 562.84,1510.99 568.35,1510.99 568.35,1513.74 573.85,1513.74 573.85,1516.49 579.36,1516.49 579.36,1519.24 580.29,1519.24 580.29,1516.49 583.04,1516.49 583.04,1513.74 585.8,1513.74 585.8,1508.23 588.55,1508.23 588.55,1502.73 591.3,1502.73 591.3,1497.22 594.05,1497.22 594.05,1491.72 596.8,1491.72 596.8,1486.21 599.56,1486.21 599.56,1480.71 602.31,1480.71 602.31,1475.2 605.06,1475.2 605.06,1469.7 607.81,1469.7 607.81,1461.44 610.57,1461.44 610.57,1455.93 613.32,1455.93 613.32,1442.17 616.07,1442.17 616.07,1436.67 618.83,1436.67 618.83,1425.66 621.58,1425.66 621.58,1409.14 624.33,1409.14 624.33,1392.63 627.08,1392.63 627.08,1384.37 "/>
  </g>
  <path id="outline" class="fil4" d="M422.93 1590.35l-5.51 0 0 2.75 -2.75 0 0 2.75 -5.51 0 0 2.75 -2.75 0 0 2.76 -5.5 0 0 2.75 -5.51 0 0 2.75 -8.26 0 0 2.76 -8.26 0 0 2.75 -5.5 0 0 2.75 -16.52 0 0 2.75 -8.25 0 0 2.76 -13.77 0 0 2.75 -8.25 0 0 2.75 -11.02 0 0 2.75 -8.25 0 0 2.76 -5.51 0 0 2.75 -5.5 0 0 2.75 -5.51 0 0 2.75 -5.5 0 0 2.76 -5.51 0 0 2.75 -5.5 0 0 2.75 -5.51 0 0 2.75 -5.51 0 0 2.76 -5.5 0 0 2.75 -5.5 0 0 2.75 -11.02 0 0 2.76 -8.25 0 0 2.75 -13.77 0 0 2.75 -16.51 0 0 -2.75 -11.01 0 0 -2.75 -13.76 0 0 -2.76 -5.51 0 0 -2.75 -5.51 0 0 -2.75 -8.25 0 0 -2.76 -2.76 0 0 -2.75 -5.5 0 0 -2.75 -5.51 0 0 -2.75 -2.75 0 0 -2.76 -2.75 0 0 -2.75 -5.51 0 0 -2.75 -2.75 0 0 -2.75 -5.5 0 0 -2.76 -2.76 0 0 -2.75 -5.5 0 0 -2.75 -5.51 0 0 -2.75 -2.75 0 0 -2.76 -5.5 0 0 -2.75 -8.26 0 0 -2.75 -22.02 0 0 2.75 2.75 0 0 2.75 2.75 0 0 2.76 2.75 0 0 5.5 2.76 0 0 2.75 2.75 0 0 2.76 2.75 0 0 2.75 2.75 0 0 2.75 2.76 0 0 2.75 2.75 0 0 2.76 2.75 0 0 2.75 2.76 0 0 2.75 2.75 0 0 2.75 2.75 0 0 2.76 2.75 0 0 2.75 2.75 0 0 2.75 5.51 0 0 2.76 2.75 0 0 2.75 2.76 0 0 2.75 2.75 0 0 2.75 5.5 0 0 2.75 2.76 0 0 2.76 5.5 0 0 2.75 2.75 0 0 2.75 5.51 0 0 2.76 2.75 0 0 2.75 5.51 0 0 2.75 5.5 0 0 2.75 5.51 0 0 2.76 5.5 0 0 2.75 5.51 0 0 2.75 5.5 0 0 2.75 5.51 0 0 2.75 8.26 0 0 2.76 11.01 0 0 2.75 35.78 0 0 -2.75 8.26 0 0 -2.76 5.5 0 0 -2.75 8.26 0 0 -2.75 5.51 0 0 -2.75 5.5 0 0 -2.75 5.51 0 0 -2.76 5.5 0 0 -2.75 5.51 0 0 -2.75 5.5 0 0 -2.75 5.51 0 0 -2.76 5.5 0 0 -2.75 5.51 0 0 -2.75 5.5 0 0 -2.76 8.26 0 0 -2.75 5.5 0 0 -2.75 8.26 0 0 -2.75 5.51 0 0 -2.75 2.75 0 0 -2.76 5.51 0 0 -2.75 2.75 0 0 -2.75 5.5 0 0 -2.76 2.75 0 0 -2.75 2.76 0 0 -2.75 2.75 0 0 -2.75 2.75 0 0 -2.76 5.51 0 0 -2.75 2.75 0 0 -2.75 2.75 0 0 -5.51 2.76 0 0 -2.75 2.75 0 0 -2.75 2.75 0 0 -2.75 2.76 0 0 -2.76 2.75 0 0 -2.75 2.75 0 0 -5.5 2.75 0 0 -2.76 2.75 0 0 -5.5 2.76 0 0 -2.76 2.75 0 0 -2.75 2.75 0 0 13.77 -2.75 0 0 11.01 -2.75 0 0 5.5 -2.76 0 0 5.51 -2.75 0 0 5.5 -2.75 0 0 2.75 -2.75 0 0 5.51 -2.75 0 0 2.75 -2.76 0 0 2.75 -2.75 0 0 5.51 -2.75 0 0 2.75 11.01 0 0 2.76 16.51 0 0 2.75 11.01 0 0 2.75 5.51 0 0 2.75 11.01 0 0 2.75 8.26 0 0 2.76 5.5 0 0 2.75 8.26 0 0 2.75 5.51 0 0 2.76 8.25 0 0 2.75 5.51 0 0 2.75 8.26 0 0 2.75 5.5 0 0 2.76 5.51 0 0 2.75 8.26 0 0 2.75 5.5 0 0 2.75 8.26 0 0 2.75 11.01 0 0 2.76 11.01 0 0 2.75 19.27 0 0 -2.75 11.01 0 0 -2.76 5.5 0 0 -2.75 5.51 0 0 -2.75 5.5 0 0 -2.75 5.51 0 0 -2.75 2.75 0 0 -2.76 5.5 0 0 -2.75 2.76 0 0 -2.75 5.5 0 0 -2.75 2.76 0 0 -2.76 2.75 0 0 -2.75 5.5 0 0 -2.75 2.75 0 0 -2.76 2.76 0 0 -2.75 -5.51 0 0 -2.75 -8.25 0 0 -2.75 -2.76 0 0 -2.75 -5.5 0 0 -2.76 -2.76 0 0 -2.75 -2.75 0 0 -2.75 13.77 0 0 2.75 5.5 0 0 2.75 11.01 0 0 2.76 19.27 0 0 -2.76 13.76 0 0 -2.75 8.26 0 0 -2.75 5.5 0 0 -2.76 5.51 0 0 -2.75 5.51 0 0 -2.75 5.5 0 0 -2.75 5.5 0 0 -2.76 2.76 0 0 -2.75 5.5 0 0 -2.75 2.76 0 0 -2.75 2.75 0 0 -2.76 2.75 0 0 -2.75 2.75 0 0 -2.75 2.76 0 0 -2.75 2.75 0 0 -2.76 2.75 0 0 -2.75 2.75 0 0 -5.5 2.75 0 0 -2.76 2.76 0 0 -2.75 2.75 0 0 -5.51 2.75 0 0 -5.5 2.76 0 0 -5.5 2.75 0 0 -5.51 2.75 0 0 -5.51 2.75 0 0 -8.25 2.76 0 0 -5.51 2.75 0 0 -8.26 2.75 0 0 -13.76 2.76 0 0 -11.01 2.75 0 0 -16.51 2.75 0 0 -55.06 -2.75 0 0 -11.01 -2.75 0 0 -16.51 -2.76 0 0 -11.01 -2.75 0 0 -11.01 -2.75 0 0 -11.01 -2.76 0 0 -8.26 -2.75 0 0 -5.51 -2.75 0 0 -11.01 -2.75 0 0 -8.26 -2.76 0 0 -5.5 -2.75 0 0 -8.26 -2.75 0 0 -5.5 -2.76 0 0 -8.26 -2.75 0 0 -8.26 -2.75 0 0 -5.5 -2.75 0 0 -8.26 -2.75 0 0 -5.51 -2.76 0 0 -8.25 -2.75 0 0 -5.51 -2.75 0 0 -5.5 -2.75 0 0 -8.26 -2.76 0 0 -5.51 -2.75 0 0 -8.25 -2.75 0 0 -5.51 -2.76 0 0 -5.51 -2.75 0 0 -8.25 -2.75 0 0 -5.51 -2.75 0 0 -2.75 -2.75 0 0 -5.51 -2.76 0 0 -2.75 -2.75 0 0 -2.75 -2.75 0 0 -2.75 -2.76 0 0 -2.76 -2.75 0 0 -2.75 -2.75 0 0 -2.75 -2.75 0 0 -2.75 -5.51 0 0 -2.76 -2.75 0 0 -2.75 -5.51 0 0 -2.75 -2.75 0 0 -2.76 -5.5 0 0 -2.75 -5.51 0 0 -2.75 -8.26 0 0 -2.75 -5.5 0 0 -2.75 -11.01 0 0 -2.76 -11.01 0 0 -2.75 -11.01 0 0 -2.75 -33.03 0 0 -2.76 -101.85 0 0 -2.75 -16.52 0 0 -2.75 -22.02 0 0 -2.75 -24.77 0 0 -2.76 -19.27 0 0 -2.75 -96.34 0 0 2.75 -33.03 0 0 2.76 -24.77 0 0 2.75 -27.53 0 0 2.75 -13.76 0 0 2.75 -22.02 0 0 2.76 -8.26 0 0 2.75 -5.51 0 0 2.75 -11.01 0 0 2.76 -5.5 0 0 2.75 -5.51 0 0 2.75 -5.5 0 0 2.75 -2.75 0 0 2.75 -5.51 0 0 2.76 -2.75 0 0 2.75 -2.76 0 0 2.75 -2.75 0 0 2.76 -2.75 0 0 2.75 -2.75 0 0 5.5 -2.75 0 0 2.76 -2.76 0 0 2.75 -2.75 0 0 2.75 -2.75 0 0 5.51 -2.76 0 0 2.75 -2.75 0 0 5.5 -2.75 0 0 5.51 -2.75 0 0 5.5 -2.76 0 0 5.51 -2.75 0 0 5.51 -2.75 0 0 5.5 -2.75 0 0 8.26 -2.75 0 0 5.5 -2.76 0 0 8.26 -2.75 0 0 5.51 -2.75 0 0 8.25 -2.76 0 0 8.26 -2.75 0 0 5.51 -2.75 0 0 8.25 -2.75 0 0 5.51 -2.75 0 0 11.01 -2.76 0 0 5.5 -2.75 0 0 8.26 -2.75 0 0 13.77 -2.76 0 0 5.5 -2.75 0 0 11.01 -2.75 0 0 13.76 -2.75 0 0 19.27 -2.76 0 0 13.77 -2.75 0 0 71.56 2.75 0 0 16.52 2.76 0 0 5.5 2.75 0 0 11.01 2.75 0 0 5.51 2.75 0 0 11.01 2.76 0 0 5.5 2.75 0 0 5.51 2.75 0 0 5.5 2.76 0 0 2.76 2.75 0 0 5.5 2.75 0 0 2.76 2.75 0 0 2.75 22.02 0 0 2.75 16.52 0 0 2.75 8.26 0 0 2.75 8.25 0 0 2.76 5.51 0 0 2.75 5.5 0 0 2.75 5.51 0 0 2.76 5.5 0 0 2.75 5.51 0 0 2.75 2.75 0 0 2.75 5.51 0 0 2.76 5.5 0 0 2.75 5.51 0 0 2.75 5.5 0 0 2.75 5.51 0 0 2.76 5.5 0 0 2.75 5.51 0 0 2.75 11.01 0 0 2.75 8.26 0 0 2.76 24.77 0 0 -2.76 5.5 0 0 -2.75 11.01 0 0 -2.75 8.26 0 0 -2.75 5.51 0 0 -2.76 5.5 0 0 -2.75 5.51 0 0 -2.75 5.5 0 0 -2.75 5.51 0 0 -2.76 5.5 0 0 -2.75 5.51 0 0 -2.75 8.26 0 0 -2.75 5.5 0 0 -2.76 5.51 0 0 -2.75 11.01 0 0 -2.75 5.5 0 0 -2.76 11.01 0 0 -2.75 16.52 0 0 -2.75 11.01 0 0 -2.75 5.5 0 0 -2.75 11.01 0 0 -2.76 5.51 0 0 -2.75 5.5 0 0 -2.75 5.51 0 0 -2.76 2.75 0 0 -2.75 5.51 0 0 -2.75 2.75 0 0 -2.75 5.5 0 0 -2.76 2.76 0 0 -2.75 2.75 0 0 -2.75 2.75 0 0 -2.76 2.76 0 0 -2.75 2.75 0 0 -2.75 2.75 0 0 -5.5 2.75 0 0 -2.76 2.76 0 0 -5.5 2.75 0 0 -5.51 2.75 0 0 -5.5 2.76 0 0 -5.51 2.75 0 0 -8.25 2.75 0 0 -11.02 2.75 0 0 -5.5 2.75 0 0 -22.02 2.76 0 0 -30.28 5.5 0 0 19.27 2.76 0 0 19.27 2.75 0 0 30.28 -2.75 0 0 13.76 -2.76 0 0 8.26 -2.75 0 0 8.25 -2.75 0 0 5.51 -2.76 0 0 8.25 2.76 0 0 2.76 2.75 0 0 2.75 5.51 0 0 2.75 2.75 0 0 2.76 5.5 0 0 2.75 2.76 0 0 2.75 5.5 0 0 2.75 5.5 0 0 2.76 5.51 0 0 2.75 5.51 0 0 2.75 5.5 0 0 2.76 5.51 0 0 2.75 5.5 0 0 2.75 5.51 0 0 2.75 5.5 0 0 2.75 5.51 0 0 2.76 5.5 0 0 2.75 5.51 0 0 2.75 5.5 0 0 2.76 5.51 0 0 2.75 11.01 0 0 2.75 8.26 0 0 2.75 5.5 0 0 2.76 11.01 0 0 2.75 30.28 0 0 -2.75 5.51 0 0 -2.76 2.75 0 0 -2.75 2.75 0 0 -2.75 2.75 0 0 -2.75 5.51 0 0 -2.76 2.75 0 0 -5.5 2.75 0 0 -2.76 2.76 0 0 -2.75 2.75 0 0 -2.75 2.75 0 0 -5.5 2.75 0 0 -2.76 2.76 0 0 -5.5 2.75 0 0 -5.51 2.75 0 0 -5.5 2.75 0 0 -5.51 2.76 0 0 -5.51 2.75 0 0 -5.5 2.75 0 0 -5.5 2.75 0 0 -5.51 2.76 0 0 -8.26 2.75 0 0 -5.5 2.75 0 0 -13.76 2.75 0 0 -5.51 2.76 0 0 -11.01 2.75 0 0 -16.52 2.75 0 0 -16.51 2.76 0 0 -8.26 5.5 0 0 55.05 -2.75 0 0 13.77 -2.75 0 0 13.76 -2.76 0 0 11.01 -2.75 0 0 11.01 -2.75 0 0 5.5 -2.76 0 0 5.51 -2.75 0 0 5.5 -2.75 0 0 5.51 -2.75 0 0 5.51 -2.76 0 0 5.5 -2.75 0 0 5.5 -2.75 0 0 2.76 -2.75 0 0 2.75 -2.76 0 0 5.51 -2.75 0 0 2.75 -2.75 0 0 2.75 -2.75 0 0 5.51 -2.76 0 0 2.75 -2.75 0 0 2.75 -2.75 0 0 2.75 -2.75 0 0 2.76 -2.76 0 0 2.75 -2.75 0 0 2.75 -5.51 0 0 2.75 -2.75 0 0 2.76 -5.5 0 0 2.75 -5.51 0 0 2.75 -35.78 0 0 -2.75 -8.26 0 0 -2.75 -5.5 0 0 -2.76 -11.02 0 0 -2.75 -5.5 0 0 -2.75 -8.26 0 0 -2.75 -5.5 0 0 -2.76 -8.26 0 0 -2.75 -5.51 0 0 -2.75 -5.5 0 0 -2.75 -5.5 0 0 -2.76 -8.26 0 0 -2.75 -5.51 0 0 -2.75 -5.5 0 0 -2.75 -5.51 0 0 -2.76 -5.51 0 0 -2.75 -2.75 0 0 -2.75 -5.5 0 0 -2.76 -5.51 0 0 -2.75 -5.5 0 0 -2.75 -2.75 0 0 -2.75 -5.51 0 0 -2.75 -5.51 0 0 -2.76 -2.75 0 0 -2.75 -5.5 0 0 -2.75 -2.75 0 0 -2.76 -5.51 0 0 2.76 -5.51 0 0 2.75 -2.75 0 0 2.75 -2.75 0 0 2.76 -2.75 0 0 2.75zm-181.68 -1233.16l-2.75 0 0 -13.77 -2.75 0 0 -5.5 -2.75 0 0 -5.51 -2.76 0 0 -5.5 -2.75 0 0 -2.75 -2.75 0 0 -2.76 -8.26 0 0 2.76 -8.26 0 0 2.75 -2.75 0 0 2.75 -5.5 0 0 2.75 -2.76 0 0 5.51 -2.75 0 0 2.75 -2.75 0 0 2.75 -2.76 0 0 5.51 -2.75 0 0 2.75 -2.75 0 0 5.51 -2.75 0 0 2.75 -2.75 0 0 5.5 -2.76 0 0 5.51 -2.75 0 0 5.51 -2.75 0 0 5.5 -2.76 0 0 5.51 -2.75 0 0 5.5 -2.75 0 0 8.26 -2.75 0 0 5.5 -2.76 0 0 8.26 -2.75 0 0 5.51 -2.75 0 0 8.26 -2.75 0 0 8.25 -2.76 0 0 5.51 -2.75 0 0 8.26 -2.75 0 0 11.01 -2.75 0 0 5.5 -2.76 0 0 11.01 -2.75 0 0 5.51 -2.75 0 0 8.25 -2.75 0 0 13.77 -2.76 0 0 11.01 -2.75 0 0 5.5 -2.75 0 0 11.01 -2.76 0 0 11.01 -2.75 0 0 16.52 -2.75 0 0 11.01 -2.75 0 0 11.01 -2.75 0 0 16.52 -2.76 0 0 11.01 -2.75 0 0 27.52 -2.75 0 0 134.88 2.75 0 0 27.53 2.75 0 0 30.27 2.76 0 0 30.28 2.75 0 0 16.52 2.75 0 0 22.02 2.75 0 0 11.01 2.75 0 0 22.02 2.76 0 0 33.03 2.75 0 0 27.52 2.75 0 0 137.63 -2.75 0 0 11.02 -2.75 0 0 22.02 -2.76 0 0 8.25 -2.75 0 0 11.01 2.75 0 0 -2.75 5.51 0 0 -2.75 5.51 0 0 -2.75 5.5 0 0 -2.76 5.51 0 0 -2.75 11.01 0 0 -2.75 8.25 0 0 -2.75 8.26 0 0 -2.76 11.01 0 0 -2.75 16.52 0 0 -2.75 19.27 0 0 -2.75 35.78 0 0 -2.76 33.03 0 0 -2.75 16.52 0 0 -2.75 85.33 0 0 2.75 16.51 0 0 2.75 27.53 0 0 2.76 11.01 0 0 2.75 38.54 0 0 2.75 27.52 0 0 2.75 93.59 0 0 2.76 16.51 0 0 2.75 16.52 0 0 2.75 11.01 0 0 2.75 8.26 0 0 2.76 5.5 0 0 2.75 8.26 0 0 2.75 5.51 0 0 2.75 5.5 0 0 2.76 5.51 0 0 2.75 2.75 0 0 2.75 5.5 0 0 -16.51 -2.75 0 0 -19.27 -2.75 0 0 -82.58 2.75 0 0 -35.78 2.75 0 0 -19.27 2.76 0 0 -19.27 2.75 0 0 -13.76 2.75 0 0 -16.52 2.76 0 0 -16.51 2.75 0 0 -16.52 2.75 0 0 -5.5 2.75 0 0 -13.77 2.75 0 0 -11.01 2.76 0 0 -13.76 2.75 0 0 -5.51 2.75 0 0 -16.51 2.76 0 0 -8.26 2.75 0 0 -13.76 2.75 0 0 -13.76 2.75 0 0 -8.26 2.76 0 0 -11.01 2.75 0 0 -16.52 2.75 0 0 -16.51 2.75 0 0 -8.26 2.75 0 0 -22.02 2.76 0 0 -19.27 2.75 0 0 -13.76 2.75 0 0 -19.27 2.76 0 0 -33.03 2.75 0 0 -121.12 -2.75 0 0 -30.28 -2.76 0 0 -19.26 -2.75 0 0 -11.01 -2.75 0 0 -19.27 -2.76 0 0 -13.76 -2.75 0 0 -16.52 -2.75 0 0 -8.26 -2.75 0 0 -13.76 -2.75 0 0 -5.51 -2.76 0 0 -11.01 -2.75 0 0 -5.5 -2.75 0 0 -11.01 -2.75 0 0 -5.51 -2.76 0 0 -5.5 -2.75 0 0 -5.51 -2.75 0 0 -5.5 -2.76 0 0 -2.75 -2.75 0 0 -5.51 -2.75 0 0 -2.75 -2.75 0 0 -2.76 -2.75 0 0 -2.75 -5.51 0 0 -2.75 -11.01 0 0 2.75 -2.75 0 0 5.51 -2.76 0 0 2.75 -2.75 0 0 5.51 -2.75 0 0 5.5 -2.75 0 0 8.26 -2.76 0 0 11.01 -2.75 0 0 13.76 -2.75 0 0 13.76 -2.75 0 0 30.28 -2.76 0 0 24.78 -2.75 0 0 22.02 -2.75 0 0 11.01 -2.75 0 0 22.02 -2.76 0 0 16.51 -2.75 0 0 11.01 -2.75 0 0 13.77 -2.76 0 0 11.01 -2.75 0 0 13.76 -2.75 0 0 11.01 -2.75 0 0 5.51 -2.75 0 0 11.01 -2.76 0 0 11.01 -2.75 0 0 5.5 -2.75 0 0 5.51 -2.76 0 0 11.01 -2.75 0 0 5.5 -2.75 0 0 5.51 -2.75 0 0 11.01 -2.76 0 0 5.5 -2.75 0 0 8.26 -2.75 0 0 5.51 -2.75 0 0 5.5 -2.76 0 0 5.51 -2.75 0 0 5.5 -2.75 0 0 5.51 -2.75 0 0 5.5 -2.76 0 0 5.51 -2.75 0 0 5.5 -2.75 0 0 5.51 -2.75 0 0 2.75 -2.76 0 0 5.5 -2.75 0 0 5.51 -2.75 0 0 5.51 -2.76 0 0 5.5 -2.75 0 0 2.75 -2.75 0 0 5.51 -2.75 0 0 5.5 -2.75 0 0 5.51 -2.76 0 0 2.75 -2.75 0 0 5.51 -2.75 0 0 2.75 -2.76 0 0 5.5 -2.75 0 0 5.51 -2.75 0 0 2.75 -2.75 0 0 5.51 -2.76 0 0 5.5 -2.75 0 0 5.51 -2.75 0 0 5.5 -2.75 0 0 2.76 -2.75 0 0 5.5 -2.76 0 0 5.51 -2.75 0 0 5.5 -2.75 0 0 2.75 -2.76 0 0 5.51 -2.75 0 0 5.5 -2.75 0 0 5.51 -2.75 0 0 5.5 -2.76 0 0 5.51 -2.75 0 0 2.75 -2.75 0 0 5.51 -2.76 0 0 5.5 -2.75 0 0 5.51 -2.75 0 0 2.75 -2.75 0 0 5.51 -2.75 0 0 5.5 -2.76 0 0 2.75 -2.75 0 0 2.75 -2.75 0 0 5.51 -2.75 0 0 2.75 -2.76 0 0 2.75 -2.75 0 0 5.51 -2.75 0 0 2.75 -2.76 0 0 2.76 -2.75 0 0 2.75 -5.5 0 0 2.75 -2.75 0 0 2.75 -2.76 0 0 2.75 -2.75 0 0 2.76 -5.51 0 0 2.75 -8.25 0 0 2.75 -30.28 0 0 -2.75 -5.51 0 0 -2.75 -5.5 0 0 -2.76 -5.51 0 0 -2.75 -2.75 0 0 -2.75 -2.76 0 0 -2.75 -2.75 0 0 -2.75 -2.75 0 0 -2.76 -2.75 0 0 -2.75 -2.75 0 0 -2.75 -2.76 0 0 -2.76 -2.75 0 0 -2.75 -2.75 0 0 -5.5 -2.75 0 0 -2.76 -2.76 0 0 -2.75 -2.75 0 0 -5.5 -2.75 0 0 -2.75 -2.76 0 0 -5.51 -2.75 0 0 -2.75 -2.75 0 0 -5.51 -2.75 0 0 -2.75 -2.75 0 0 -5.51 -2.76 0 0 -5.5 -2.75 0 0 -5.51 -2.75 0 0 -2.75 -2.76 0 0 -5.5 -2.75 0 0 -5.51 -2.75 0 0 -5.5 -2.75 0 0 -8.26 -2.76 0 0 -5.51 -2.75 0 0 -5.5 -2.75 0 0 -8.26 -2.75 0 0 -5.51 -2.76 0 0 -8.25 -2.75 0 0 -11.01 -2.75 0 0 -5.51 -2.75 0 0 -8.26 -2.76 0 0 -5.5 -2.75 0 0 -8.26 -2.75 0 0 -11.01 -2.75 0 0 -8.26 -2.76 0 0 -13.76 -2.75 0 0 -8.26 -2.75 0 0 -8.26 -2.76 0 0 -13.76 -2.75 0 0 -11.01 -2.75 0 0 -13.76 -2.75 0 0 -11.01 -2.75 0 0 -19.27 -2.76 0 0 -13.76 -2.75 0 0 -19.27 -2.75 0 0 -19.27 -2.76 0 0 -33.03 -2.75 0 0 -121.12 2.75 0 0 -82.57zm305.54 -44.04l-2.75 0 0 -11.01 -2.75 0 0 -11.02 -2.76 0 0 -2.75 -2.75 0 0 -2.75 -2.75 0 0 -2.75 -13.76 0 0 2.75 -5.51 0 0 2.75 -2.75 0 0 2.75 -2.75 0 0 2.76 -2.76 0 0 2.75 -2.75 0 0 2.75 -2.75 0 0 2.76 -2.75 0 0 5.5 -2.76 0 0 2.75 -2.75 0 0 5.51 -2.75 0 0 2.75 -2.76 0 0 5.51 -2.75 0 0 5.5 -2.75 0 0 2.75 -2.75 0 0 5.51 -2.75 0 0 5.5 -2.76 0 0 5.51 -2.75 0 0 5.51 -2.75 0 0 5.5 -2.75 0 0 5.5 -2.76 0 0 2.76 -2.75 0 0 8.26 -2.75 0 0 5.5 -2.76 0 0 5.51 -2.75 0 0 8.25 -2.75 0 0 5.51 -2.75 0 0 5.5 -2.75 0 0 8.26 -2.76 0 0 5.51 -2.75 0 0 5.5 -2.75 0 0 8.26 -2.76 0 0 5.5 -2.75 0 0 8.26 -2.75 0 0 5.51 -2.75 0 0 8.26 -2.76 0 0 8.25 -2.75 0 0 8.26 -2.75 0 0 5.51 -2.76 0 0 8.25 -2.75 0 0 8.26 -2.75 0 0 5.51 -2.75 0 0 8.25 -2.75 0 0 8.26 -2.76 0 0 5.51 -2.75 0 0 11.01 -2.75 0 0 11.01 -2.76 0 0 5.5 -2.75 0 0 11.01 -2.75 0 0 5.51 -2.75 0 0 11.01 -2.76 0 0 11.01 -2.75 0 0 8.26 -2.75 0 0 13.76 -2.76 0 0 8.26 -2.75 0 0 13.76 -2.75 0 0 11.01 -2.75 0 0 19.27 -2.75 0 0 8.26 -2.76 0 0 16.52 -2.75 0 0 8.25 -2.75 0 0 13.76 -2.75 0 0 13.77 -2.76 0 0 19.27 -2.75 0 0 11.01 -2.75 0 0 13.76 -2.76 0 0 13.76 -2.75 0 0 8.26 -2.75 0 0 13.76 -2.75 0 0 11.01 -2.75 0 0 8.26 2.75 0 0 5.51 2.75 0 0 5.5 2.75 0 0 5.51 2.75 0 0 2.75 2.76 0 0 5.5 2.75 0 0 5.51 2.75 0 0 5.5 2.76 0 0 5.51 2.75 0 0 2.75 2.75 0 0 5.51 2.75 0 0 2.75 2.76 0 0 5.5 2.75 0 0 2.76 2.75 0 0 5.5 2.75 0 0 2.76 2.75 0 0 2.75 2.76 0 0 5.5 2.75 0 0 2.75 2.75 0 0 2.76 2.76 0 0 2.75 2.75 0 0 2.75 2.75 0 0 2.75 5.51 0 0 2.76 2.75 0 0 2.75 8.26 0 0 2.75 11.01 0 0 -2.75 5.5 0 0 -2.75 5.51 0 0 -2.76 2.75 0 0 -2.75 2.75 0 0 -2.75 2.76 0 0 -2.75 2.75 0 0 -2.76 2.75 0 0 -2.75 2.76 0 0 -2.75 2.75 0 0 -2.75 2.75 0 0 -5.51 2.75 0 0 -2.75 2.75 0 0 -5.51 2.76 0 0 -2.75 2.75 0 0 -5.5 2.75 0 0 -2.76 2.76 0 0 -5.5 2.75 0 0 -5.51 2.75 0 0 -2.75 2.75 0 0 -8.26 2.76 0 0 -2.75 2.75 0 0 -5.5 2.75 0 0 -5.51 2.75 0 0 -5.5 2.75 0 0 -2.76 2.76 0 0 -5.5 2.75 0 0 -5.51 2.75 0 0 -5.5 2.76 0 0 -5.51 2.75 0 0 -5.5 2.75 0 0 -2.75 2.75 0 0 -5.51 2.76 0 0 -5.51 2.75 0 0 -2.75 2.75 0 0 -5.5 2.76 0 0 -5.51 2.75 0 0 -5.5 2.75 0 0 -2.76 2.75 0 0 -5.5 2.75 0 0 -5.51 2.76 0 0 -2.75 2.75 0 0 -5.5 2.75 0 0 -5.51 2.75 0 0 -2.75 2.76 0 0 -5.51 2.75 0 0 -2.75 2.75 0 0 -11.01 -2.75 0 0 -16.52 -2.75 0 0 -16.51 -2.76 0 0 -33.03 -2.75 0 0 -22.02 -2.75 0 0 -27.53 -2.75 0 0 -79.82 2.75 0 0 -60.56 2.75 0 0 -24.78 2.75 0 0 -35.78 2.76 0 0 -19.27 2.75 0 0 -22.02 2.75 0 0 -49.54zm-11.01 -52.3l5.51 0 0 2.75 5.5 0 0 2.75 5.51 0 0 2.75 2.75 0 0 5.51 2.75 0 0 2.75 2.75 0 0 5.51 2.76 0 0 8.25 2.75 0 0 8.26 2.75 0 0 82.58 -2.75 0 0 22.02 -2.75 0 0 22.02 -2.76 0 0 33.03 -2.75 0 0 41.29 -2.75 0 0 104.6 2.75 0 0 27.53 2.75 0 0 27.52 2.76 0 0 30.28 2.75 0 0 -2.75 2.75 0 0 -5.51 2.76 0 0 -8.25 2.75 0 0 -5.51 2.75 0 0 -5.51 2.75 0 0 -8.25 2.76 0 0 -8.26 2.75 0 0 -5.51 2.75 0 0 -8.25 2.75 0 0 -5.51 2.76 0 0 -11.01 2.75 0 0 -8.26 2.75 0 0 -8.25 2.75 0 0 -5.51 2.76 0 0 -13.76 2.75 0 0 -5.51 2.75 0 0 -13.76 2.75 0 0 -11.01 2.76 0 0 -16.52 2.75 0 0 -13.76 2.75 0 0 -13.76 2.76 0 0 -22.02 2.75 0 0 -16.52 2.75 0 0 -27.53 2.75 0 0 -16.51 2.75 0 0 -22.02 2.76 0 0 -19.27 2.75 0 0 -13.76 2.75 0 0 -5.51 2.76 0 0 -11.01 2.75 0 0 -5.5 2.75 0 0 -5.51 2.75 0 0 -5.5 2.76 0 0 -2.76 2.75 0 0 -5.5 2.75 0 0 -2.75 2.75 0 0 -2.76 5.51 0 0 -2.75 2.75 0 0 -2.75 5.51 0 0 -2.75 16.51 0 0 2.75 8.26 0 0 2.75 5.5 0 0 2.75 2.76 0 0 2.76 2.75 0 0 2.75 2.75 0 0 2.75 2.76 0 0 2.75 2.75 0 0 2.76 2.75 0 0 5.5 2.75 0 0 2.75 2.76 0 0 5.51 2.75 0 0 5.51 2.75 0 0 5.5 2.75 0 0 8.26 2.75 0 0 8.26 2.76 0 0 5.5 2.75 0 0 5.51 2.75 0 0 11.01 2.76 0 0 5.5 2.75 0 0 13.76 2.75 0 0 8.26 2.75 0 0 11.01 2.76 0 0 16.52 2.75 0 0 13.76 2.75 0 0 19.27 2.76 0 0 13.76 2.75 0 0 13.76 2.75 0 0 22.03 2.75 0 0 121.11 -2.75 0 0 35.79 -2.75 0 0 30.27 -2.75 0 0 13.76 -2.76 0 0 16.52 -2.75 0 0 11.01 -2.75 0 0 16.52 -2.76 0 0 16.51 -2.75 0 0 11.01 -2.75 0 0 11.01 -2.75 0 0 8.26 -2.76 0 0 13.76 -2.75 0 0 16.52 -2.75 0 0 5.5 -2.76 0 0 11.01 -2.75 0 0 13.77 -2.75 0 0 13.76 -2.75 0 0 11.01 -2.75 0 0 11.01 -2.76 0 0 13.76 -2.75 0 0 13.77 -2.75 0 0 8.25 -2.75 0 0 19.27 -2.76 0 0 11.01 -2.75 0 0 22.02 -2.75 0 0 16.52 -2.76 0 0 22.02 -2.75 0 0 110.1 2.75 0 0 22.02 2.76 0 0 13.77 2.75 0 0 11.01 2.75 0 0 11.01 2.76 0 0 8.26 2.75 0 0 8.25 2.75 0 0 5.51 2.75 0 0 5.5 2.76 0 0 8.26 2.75 0 0 5.51 2.75 0 0 5.5 2.75 0 0 8.26 2.75 0 0 5.5 2.76 0 0 5.51 2.75 0 0 8.26 2.75 0 0 5.5 2.76 0 0 8.26 2.75 0 0 5.5 2.75 0 0 5.51 2.75 0 0 5.51 2.76 0 0 11.01 2.75 0 0 5.5 2.75 0 0 5.51 2.76 0 0 8.25 2.75 0 0 8.26 2.75 0 0 5.51 2.75 0 0 8.26 2.75 0 0 8.25 2.76 0 0 8.26 2.75 0 0 13.76 2.75 0 0 11.02 2.76 0 0 13.76 2.75 0 0 22.02 2.75 0 0 71.57 -2.75 0 0 13.76 -2.75 0 0 11.01 -2.76 0 0 11.01 -2.75 0 0 13.76 -2.75 0 0 5.51 -2.76 0 0 5.5 -2.75 0 0 8.26 -2.75 0 0 5.5 -2.75 0 0 2.76 -2.75 0 0 5.5 -2.76 0 0 5.51 -2.75 0 0 5.5 -2.75 0 0 2.76 -2.76 0 0 2.75 -2.75 0 0 5.5 -2.75 0 0 2.76 -2.75 0 0 2.75 -2.76 0 0 2.75 -2.75 0 0 2.75 -2.75 0 0 2.76 -2.76 0 0 2.75 -2.75 0 0 2.75 -2.75 0 0 2.75 -2.75 0 0 2.76 -5.51 0 0 2.75 -2.75 0 0 2.75 -5.5 0 0 2.76 -5.51 0 0 2.75 -2.75 0 0 2.75 -5.51 0 0 2.75 -5.5 0 0 2.75 -5.51 0 0 2.76 -8.26 0 0 2.75 -5.5 0 0 2.75 -8.26 0 0 2.76 -8.26 0 0 2.75 -5.5 0 0 2.75 -2.75 0 0 2.75 -5.51 0 0 2.76 -2.75 0 0 2.75 -2.75 0 0 2.75 -5.51 0 0 2.75 -2.75 0 0 2.75 -5.51 0 0 2.76 -2.75 0 0 2.75 -5.5 0 0 2.75 -5.51 0 0 2.76 -2.75 0 0 2.75 -5.51 0 0 2.75 -5.5 0 0 2.75 -5.51 0 0 2.76 -5.5 0 0 2.75 -8.26 0 0 2.75 -13.76 0 0 2.76 -22.02 0 0 -2.76 -11.02 0 0 -2.75 -11.01 0 0 -2.75 -5.5 0 0 -2.76 -8.26 0 0 -2.75 -8.26 0 0 -2.75 -5.5 0 0 -2.75 -8.26 0 0 -2.76 -5.51 0 0 -2.75 -5.5 0 0 -2.75 -8.26 0 0 -2.76 -5.5 0 0 -2.75 -8.26 0 0 -2.75 -5.51 0 0 -2.75 -8.25 0 0 -2.75 -5.51 0 0 -2.76 -8.26 0 0 -2.75 -8.25 0 0 -2.75 -13.77 0 0 -2.75 -13.76 0 0 -2.76 -30.28 0 0 2.76 -5.5 0 0 2.75 -5.51 0 0 2.75 -5.5 0 0 2.75 -8.26 0 0 2.76 -5.51 0 0 2.75 -5.5 0 0 2.75 -5.51 0 0 2.75 -5.5 0 0 2.75 -8.26 0 0 2.76 -2.75 0 0 2.75 -5.51 0 0 2.75 -5.5 0 0 2.76 -5.51 0 0 2.75 -5.5 0 0 2.75 -8.26 0 0 2.75 -5.51 0 0 2.76 -8.26 0 0 2.75 -5.5 0 0 2.75 -16.52 0 0 2.76 -27.52 0 0 -2.76 -11.01 0 0 -2.75 -13.77 0 0 -2.75 -5.5 0 0 -2.76 -8.26 0 0 -2.75 -5.5 0 0 -2.75 -5.51 0 0 -2.75 -5.5 0 0 -2.76 -5.51 0 0 -2.75 -5.5 0 0 -2.75 -5.51 0 0 -2.76 -2.75 0 0 -2.75 -5.51 0 0 -2.75 -5.5 0 0 -2.75 -2.75 0 0 -2.75 -2.76 0 0 -2.76 -5.5 0 0 -2.75 -2.76 0 0 -2.75 -2.75 0 0 -2.75 -2.75 0 0 -2.76 -5.5 0 0 -2.75 -2.76 0 0 -2.75 -2.75 0 0 -2.76 -2.75 0 0 -2.75 -2.76 0 0 -2.75 -2.75 0 0 -2.75 -2.75 0 0 -2.75 -2.75 0 0 -2.76 -2.76 0 0 -2.75 -2.75 0 0 -2.75 -2.75 0 0 -2.76 -5.5 0 0 -5.5 -2.76 0 0 -2.75 -2.75 0 0 -2.76 -2.75 0 0 -2.75 -2.76 0 0 -2.75 -2.75 0 0 -2.75 -2.75 0 0 -5.51 -2.75 0 0 -2.75 -2.75 0 0 -2.75 -2.76 0 0 -2.76 -2.75 0 0 -5.5 -2.75 0 0 -2.75 -2.76 0 0 -5.51 -2.75 0 0 -2.75 -2.75 0 0 -5.51 -2.75 0 0 -2.75 -2.76 0 0 -5.5 -2.75 0 0 -5.51 -2.75 0 0 -5.51 -2.76 0 0 -5.5 -2.75 0 0 -5.51 -2.75 0 0 -8.26 -2.75 0 0 -11 -2.75 0 0 -11.01 -2.76 0 0 -5.51 -2.75 0 0 -24.77 -2.75 0 0 -63.31 2.75 0 0 -22.02 2.75 0 0 -11.01 2.76 0 0 -16.52 2.75 0 0 -11.01 2.75 0 0 -11.01 2.75 0 0 -8.26 2.75 0 0 -8.26 2.76 0 0 -8.25 2.75 0 0 -5.51 2.75 0 0 -8.26 2.76 0 0 -11.01 2.75 0 0 -5.5 2.75 0 0 -8.26 2.75 0 0 -5.5 2.76 0 0 -8.26 2.75 0 0 -5.51 2.75 0 0 -8.26 2.76 0 0 -8.25 2.75 0 0 -5.51 2.75 0 0 -8.26 2.75 0 0 -5.5 2.75 0 0 -5.51 2.76 0 0 -5.5 2.75 0 0 -5.51 2.75 0 0 -5.5 2.76 0 0 -5.51 2.75 0 0 -5.5 2.75 0 0 -5.51 2.75 0 0 -5.5 2.75 0 0 -8.26 2.76 0 0 -11.01 2.75 0 0 -11.01 2.75 0 0 -13.76 2.75 0 0 -13.77 2.76 0 0 -13.76 2.75 0 0 -27.53 2.75 0 0 -99.09 -2.75 0 0 -30.28 -2.75 0 0 -16.51 -2.76 0 0 -22.03 -2.75 0 0 -22.02 -2.75 0 0 -16.51 -2.75 0 0 -22.02 -2.76 0 0 -27.53 -2.75 0 0 -22.02 -2.75 0 0 -27.52 -2.75 0 0 -60.56 -2.75 0 0 -88.08 2.75 0 0 -27.53 2.75 0 0 -27.52 2.75 0 0 -11.02 2.75 0 0 -22.02 2.76 0 0 -11.01 2.75 0 0 -11.01 2.75 0 0 -5.5 2.75 0 0 -16.52 2.76 0 0 -5.5 2.75 0 0 -13.76 2.75 0 0 -5.51 2.76 0 0 -8.26 2.75 0 0 -11.01 2.75 0 0 -5.5 2.75 0 0 -11.01 2.75 0 0 -11.01 2.76 0 0 -5.51 2.75 0 0 -8.26 2.75 0 0 -8.25 2.76 0 0 -5.51 2.75 0 0 -11.01 2.75 0 0 -5.51 2.75 0 0 -8.25 2.76 0 0 -8.26 2.75 0 0 -5.51 2.75 0 0 -5.5 2.75 0 0 -5.51 2.76 0 0 -5.5 2.75 0 0 -5.51 2.75 0 0 -5.5 2.75 0 0 -5.51 2.76 0 0 -2.75 2.75 0 0 -5.51 2.75 0 0 -5.5 2.75 0 0 -2.75 2.76 0 0 -5.51 2.75 0 0 -2.75 2.75 0 0 -2.75 2.76 0 0 -5.51 2.75 0 0 -2.75 2.75 0 0 -2.75 2.75 0 0 -2.76 2.75 0 0 -2.75 5.51 0 0 -2.75 2.75 0 0 -2.75 5.51 0 0 -2.76 30.28 0 0 2.76 5.5 0 0 2.75 2.75 0 0 2.75 2.76 0 0 2.75 2.75 0 0 2.76 2.75 0 0 5.5 2.76 0 0 5.51 2.75 0 0 5.5 2.75 0 0 8.26 2.75 0 0 13.76 2.75 0 0 107.35 -2.75 0 0 93.59 2.75 0 0 27.53 2.76 0 0 22.02 2.75 0 0 19.27 2.75 0 0 11.01 2.76 0 0 19.27 2.75 0 0 16.51 2.75 0 0 8.26 2.75 0 0 16.52 2.76 0 0 11 2.75 0 0 8.26 2.75 0 0 11.01 2.75 0 0 11.01 2.76 0 0 5.51 2.75 0 0 13.76 2.75 0 0 5.51 2.75 0 0 11.01 2.76 0 0 8.25 2.75 0 0 5.51 2.75 0 0 -8.26 2.75 0 0 -16.51 2.76 0 0 -11.01 2.75 0 0 -13.77 2.75 0 0 -13.76 2.76 0 0 -13.76 2.75 0 0 -11.01 2.75 0 0 -13.77 2.75 0 0 -11.01 2.75 0 0 -16.51 2.76 0 0 -11.01 2.75 0 0 -16.52 2.75 0 0 -8.25 2.76 0 0 -13.77 2.75 0 0 -11.01 2.75 0 0 -11.01 2.75 0 0 -11.01 2.76 0 0 -5.51 2.75 0 0 -11.01 2.75 0 0 -5.5 2.75 0 0 -13.76 2.75 0 0 -8.26 2.76 0 0 -5.51 2.75 0 0 -5.5 2.75 0 0 -11.01 2.76 0 0 -5.51 2.75 0 0 -8.26 2.75 0 0 -8.25 2.75 0 0 -5.51 2.76 0 0 -8.26 2.75 0 0 -11.01 2.75 0 0 -5.5 2.76 0 0 -8.26 2.75 0 0 -5.51 2.75 0 0 -11 2.75 0 0 -5.51 2.75 0 0 -5.51 2.76 0 0 -5.5 2.75 0 0 -8.26 2.75 0 0 -5.5 2.76 0 0 -8.26 2.75 0 0 -5.51 2.75 0 0 -5.5 2.75 0 0 -5.51 2.76 0 0 -5.5 2.75 0 0 -8.26 2.75 0 0 -5.5 2.76 0 0 -5.51 2.75 0 0 -5.51 2.75 0 0 -5.5 2.75 0 0 -5.51 2.75 0 0 -2.75 2.76 0 0 -5.5 2.75 0 0 -5.51 2.75 0 0 -5.5 2.76 0 0 -2.76 2.75 0 0 -5.5 2.75 0 0 -5.51 2.75 0 0 -2.75 2.76 0 0 -2.75 2.75 0 0 -5.51 2.75 0 0 -2.75 2.75 0 0 -2.75 2.75 0 0 -2.75 2.76 0 0 -2.76 2.75 0 0 -2.75 2.75 0 0 -2.75 2.76 0 0 -2.76 2.75 0 0 -2.75 5.5 0 0 -2.75 5.51 0 0 -2.75 5.51 0 0 -2.76 19.26 0 0 2.76z"/>
 </g>
</svg>
