<?xml version="1.0" encoding="UTF-8"?>
<!DOCTYPE svg PUBLIC "-//W3C//DTD SVG 1.1//EN" "http://www.w3.org/Graphics/SVG/1.1/DTD/svg11.dtd">
<!-- Creator: CorelDRAW (Versión de evaluación) -->
<svg xmlns="http://www.w3.org/2000/svg" xml:space="preserve" width="803px" height="2052px" version="1.1" style="shape-rendering:geometricPrecision; text-rendering:geometricPrecision; image-rendering:optimizeQuality; fill-rule:evenodd; clip-rule:evenodd"
viewBox="0 0 803 2050.8"
 xmlns:xlink="http://www.w3.org/1999/xlink"
 xmlns:xodm="http://www.corel.com/coreldraw/odm/2003">
 <defs>
  <style type="text/css">
   <![CDATA[
    .fil4 {fill:#4B4B4D}
    .fil3 {fill:#FFCC29}
    .fil1 {fill:#F7ADAF}
    .fil0 {fill:#F3EDD9}
    .fil2 {fill:#F8FBFF}
   ]]>
  </style>
 </defs>
 <g id="pulpotomy">
  <metadata id="CorelCorpID_0Corel-Layer"/>
  <polygon id="root" class="fil0" points="692.59,870.24 689.83,870.24 689.83,886.74 687.08,886.74 687.08,903.24 684.34,903.24 684.34,982.99 687.08,982.99 687.08,1002.24 689.83,1002.24 689.83,1021.49 692.59,1021.49 692.59,1037.99 695.33,1037.99 695.33,1054.49 698.08,1054.49 698.08,1068.24 700.83,1068.24 700.83,1081.99 703.58,1081.99 703.58,1090.24 706.33,1090.24 706.33,1106.74 709.09,1106.74 709.09,1117.74 711.83,1117.74 711.83,1131.49 714.58,1131.49 714.58,1139.74 717.33,1139.74 717.33,1150.74 720.08,1150.74 720.08,1161.74 722.83,1161.74 722.83,1169.99 725.59,1169.99 725.59,1183.74 728.33,1183.74 728.33,1194.74 731.08,1194.74 731.08,1205.74 733.84,1205.74 733.84,1213.99 736.58,1213.99 736.58,1224.99 739.33,1224.99 739.33,1238.74 742.08,1238.74 742.08,1249.74 744.83,1249.74 744.83,1257.99 747.58,1257.99 747.58,1271.74 750.34,1271.74 750.34,1279.99 753.08,1279.99 753.08,1299.24 755.83,1299.24 755.83,1310.24 758.59,1310.24 758.59,1326.74 761.33,1326.74 761.33,1345.99 764.08,1345.99 764.08,1365.24 766.84,1365.24 766.84,1384.5 769.58,1384.5 769.58,1409.25 772.33,1409.25 772.33,1447.75 775.09,1447.75 775.09,1458.75 777.83,1458.75 777.83,1497.25 780.59,1497.25 780.59,1596.25 777.83,1596.25 777.83,1623.75 775.09,1623.75 775.09,1632 772.33,1632 772.33,1642.99 769.58,1642.99 769.58,1651.25 766.84,1651.25 766.84,1654 764.08,1654 764.08,1659.49 761.33,1659.49 761.33,1662.25 755.83,1662.25 755.83,1665 736.58,1665 736.58,1662.25 731.08,1662.25 731.08,1659.49 725.59,1659.49 725.59,1656.75 722.83,1656.75 722.83,1654 720.08,1654 720.08,1651.25 717.33,1651.25 717.33,1648.5 714.58,1648.5 714.58,1645.75 711.83,1645.75 711.83,1642.99 709.09,1642.99 709.09,1640.25 706.33,1640.25 706.33,1637.5 703.58,1637.5 703.58,1632 700.83,1632 700.83,1629.25 698.08,1629.25 698.08,1623.75 695.33,1623.75 695.33,1621 692.59,1621 692.59,1615.5 689.83,1615.5 689.83,1609.99 687.08,1609.99 687.08,1607.25 684.34,1607.25 684.34,1601.74 681.58,1601.74 681.58,1596.25 678.83,1596.25 678.83,1590.75 676.08,1590.75 676.08,1585.25 673.33,1585.25 673.33,1579.75 670.58,1579.75 670.58,1574.25 667.84,1574.25 667.84,1568.74 665.08,1568.74 665.08,1560.49 662.33,1560.49 662.33,1555 659.58,1555 659.58,1546.74 656.83,1546.74 656.83,1541.25 654.08,1541.25 654.08,1533 651.33,1533 651.33,1521.99 648.58,1521.99 648.58,1516.5 645.83,1516.5 645.83,1508.25 643.09,1508.25 643.09,1500 640.33,1500 640.33,1494.49 637.58,1494.49 637.58,1489 634.83,1489 634.83,1480.74 632.08,1480.74 632.08,1469.74 629.33,1469.74 629.33,1464.24 626.58,1464.24 626.58,1455.99 623.83,1455.99 623.83,1447.75 621.08,1447.75 621.08,1434 618.33,1434 618.33,1425.75 615.58,1425.75 615.58,1417.5 612.83,1417.5 612.83,1411.99 610.08,1411.99 610.08,1403.74 607.33,1403.74 607.33,1392.75 604.58,1392.75 604.58,1384.5 601.83,1384.5 601.83,1376.25 599.08,1376.25 599.08,1370.74 596.33,1370.74 596.33,1362.49 593.58,1362.49 593.58,1356.99 590.83,1356.99 590.83,1351.49 588.08,1351.49 588.08,1343.24 585.33,1343.24 585.33,1335 582.58,1335 582.58,1329.49 579.83,1329.49 579.83,1321.24 577.08,1321.24 577.08,1315.74 574.33,1315.74 574.33,1310.24 571.58,1310.24 571.58,1304.74 568.83,1304.74 568.83,1299.24 566.08,1299.24 566.08,1293.74 563.33,1293.74 563.33,1288.24 560.58,1288.24 560.58,1282.74 557.83,1282.74 557.83,1277.24 555.08,1277.24 555.08,1271.74 552.33,1271.74 552.33,1266.24 549.58,1266.24 549.58,1260.74 546.83,1260.74 546.83,1255.24 544.08,1255.24 544.08,1249.74 541.33,1249.74 541.33,1244.24 538.58,1244.24 538.58,1241.49 535.83,1241.49 535.83,1235.99 533.08,1235.99 533.08,1230.49 530.33,1230.49 530.33,1224.99 527.58,1224.99 527.58,1219.49 524.83,1219.49 524.83,1216.74 522.08,1216.74 522.08,1211.24 519.33,1211.24 519.33,1205.74 516.58,1205.74 516.58,1200.24 513.83,1200.24 513.83,1197.5 511.08,1197.5 511.08,1191.99 508.33,1191.99 508.33,1186.49 505.58,1186.49 505.58,1183.74 502.83,1183.74 502.83,1178.24 500.08,1178.24 500.08,1175.49 497.33,1175.49 497.33,1169.99 494.58,1169.99 494.58,1167.24 491.83,1167.24 491.83,1161.74 489.08,1161.74 489.08,1158.99 486.33,1158.99 486.33,1156.25 483.58,1156.25 483.58,1150.74 480.83,1150.74 480.83,1147.99 478.08,1147.99 478.08,1145.24 475.33,1145.24 475.33,1139.74 472.58,1139.74 472.58,1136.99 469.83,1136.99 469.83,1134.24 467.08,1134.24 467.08,1131.49 464.33,1131.49 464.33,1128.74 461.58,1128.74 461.58,1125.99 458.83,1125.99 458.83,1123.24 456.08,1123.24 456.08,1120.49 450.58,1120.49 450.58,1117.74 447.83,1117.74 447.83,1114.99 442.33,1114.99 442.33,1112.24 436.83,1112.24 436.83,1109.49 414.83,1109.49 414.83,1112.24 409.33,1112.24 409.33,1114.99 403.83,1114.99 403.83,1117.74 401.08,1117.74 401.08,1120.49 398.33,1120.49 398.33,1123.24 395.58,1123.24 395.58,1125.99 392.83,1125.99 392.83,1128.74 390.08,1128.74 390.08,1134.24 387.33,1134.24 387.33,1136.99 384.58,1136.99 384.58,1142.49 381.83,1142.49 381.83,1150.74 379.08,1150.74 379.08,1156.25 376.33,1156.25 376.33,1167.24 373.58,1167.24 373.58,1172.74 370.83,1172.74 370.83,1183.74 368.08,1183.74 368.08,1194.74 365.33,1194.74 365.33,1216.74 362.58,1216.74 362.58,1233.24 359.83,1233.24 359.83,1244.24 357.08,1244.24 357.08,1362.49 359.83,1362.49 359.83,1395.49 362.58,1395.49 362.58,1414.74 365.33,1414.74 365.33,1436.74 368.08,1436.74 368.08,1461.49 370.83,1461.49 370.83,1477.99 373.58,1477.99 373.58,1491.75 376.33,1491.75 376.33,1502.74 379.08,1502.74 379.08,1519.24 381.83,1519.24 381.83,1524.75 384.58,1524.75 384.58,1541.25 387.33,1541.25 387.33,1546.74 390.08,1546.74 390.08,1557.75 392.83,1557.75 392.83,1566 395.58,1566 395.58,1579.75 398.33,1579.75 398.33,1590.75 401.08,1590.75 401.08,1596.25 403.83,1596.25 403.83,1612.75 406.58,1612.75 406.58,1618.24 409.33,1618.24 409.33,1634.74 412.08,1634.74 412.08,1645.75 414.83,1645.75 414.83,1659.49 417.58,1659.49 417.58,1695.25 414.83,1695.25 414.83,1703.5 412.08,1703.5 412.08,1706.25 409.33,1706.25 409.33,1709 406.58,1709 406.58,1711.75 403.83,1711.75 403.83,1714.5 387.33,1714.5 387.33,1711.75 384.58,1711.75 384.58,1709 376.33,1709 376.33,1706.25 370.83,1706.25 370.83,1703.5 365.33,1703.5 365.33,1700.75 359.83,1700.75 359.83,1698 357.08,1698 357.08,1695.25 354.33,1695.25 354.33,1692.5 351.58,1692.5 351.58,1689.75 346.08,1689.75 346.08,1687 343.33,1687 343.33,1684.24 340.58,1684.24 340.58,1681.5 337.83,1681.5 337.83,1678.75 335.08,1678.75 335.08,1676 332.33,1676 332.33,1673.25 329.58,1673.25 329.58,1670.5 326.83,1670.5 326.83,1667.75 324.08,1667.75 324.08,1665 321.33,1665 321.33,1662.25 318.58,1662.25 318.58,1659.49 315.83,1659.49 315.83,1656.75 313.08,1656.75 313.08,1654 310.33,1654 310.33,1648.5 307.58,1648.5 307.58,1645.75 304.83,1645.75 304.83,1642.99 302.08,1642.99 302.08,1637.5 299.33,1637.5 299.33,1634.74 296.58,1634.74 296.58,1629.25 293.83,1629.25 293.83,1626.5 291.08,1626.5 291.08,1623.75 288.33,1623.75 288.33,1618.24 285.58,1618.24 285.58,1615.5 282.83,1615.5 282.83,1609.99 280.08,1609.99 280.08,1607.25 277.33,1607.25 277.33,1601.74 274.58,1601.74 274.58,1596.25 271.83,1596.25 271.83,1593.49 269.08,1593.49 269.08,1588 266.33,1588 266.33,1582.5 263.58,1582.5 263.58,1579.75 260.83,1579.75 260.83,1574.25 258.08,1574.25 258.08,1568.74 255.33,1568.74 255.33,1563.25 252.58,1563.25 252.58,1557.75 249.83,1557.75 249.83,1552.24 247.08,1552.24 247.08,1546.74 244.33,1546.74 244.33,1543.99 241.58,1543.99 241.58,1538.5 238.83,1538.5 238.83,1533 236.08,1533 236.08,1527.49 233.33,1527.49 233.33,1521.99 230.58,1521.99 230.58,1516.5 227.83,1516.5 227.83,1508.25 225.08,1508.25 225.08,1502.74 222.33,1502.74 222.33,1497.25 219.58,1497.25 219.58,1491.75 216.83,1491.75 216.83,1486.24 214.08,1486.24 214.08,1477.99 211.33,1477.99 211.33,1472.5 208.58,1472.5 208.58,1467 205.83,1467 205.83,1458.75 203.08,1458.75 203.08,1450.5 200.33,1450.5 200.33,1444.99 197.58,1444.99 197.58,1439.49 194.83,1439.49 194.83,1434 192.08,1434 192.08,1425.75 189.33,1425.75 189.33,1414.74 186.58,1414.74 186.58,1406.49 183.83,1406.49 183.83,1398.24 181.08,1398.24 181.08,1392.75 178.33,1392.75 178.33,1384.5 175.58,1384.5 175.58,1373.49 172.83,1373.49 172.83,1359.75 170.08,1359.75 170.08,1351.49 167.33,1351.49 167.33,1340.49 164.58,1340.49 164.58,1326.74 161.83,1326.74 161.83,1310.24 159.08,1310.24 159.08,1296.49 156.33,1296.49 156.33,1282.74 153.58,1282.74 153.58,1266.24 150.83,1266.24 150.83,1257.99 148.08,1257.99 148.08,1235.99 145.33,1235.99 145.33,1208.49 142.58,1208.49 142.58,1183.74 139.83,1183.74 139.83,1029.74 137.08,1029.74 137.08,980.24 134.33,980.24 134.33,952.74 131.58,952.74 131.58,930.74 128.83,930.74 128.83,919.74 126.08,919.74 126.08,905.99 123.33,905.99 123.33,892.24 120.58,892.24 120.58,886.74 117.83,886.74 117.83,872.99 120.58,872.99 120.58,875.74 126.08,875.74 126.08,878.49 131.58,878.49 131.58,881.24 137.08,881.24 137.08,883.99 142.58,883.99 142.58,886.74 150.83,886.74 150.83,889.49 164.58,889.49 164.58,892.24 178.33,892.24 178.33,894.99 194.83,894.99 194.83,897.74 277.33,897.74 277.33,900.49 288.33,900.49 288.33,903.24 307.58,903.24 307.58,905.99 324.08,905.99 324.08,908.74 392.83,908.74 392.83,905.99 403.83,905.99 403.83,903.24 434.08,903.24 434.08,900.49 447.83,900.49 447.83,897.74 472.58,897.74 472.58,894.99 489.08,894.99 489.08,892.24 513.83,892.24 513.83,889.49 541.33,889.49 541.33,886.74 590.83,886.74 590.83,883.99 615.58,883.99 615.58,881.24 632.08,881.24 632.08,878.49 645.83,878.49 645.83,875.74 654.08,875.74 654.08,872.99 659.58,872.99 659.58,870.24 667.84,870.24 667.84,867.49 673.33,867.49 673.33,864.74 678.83,864.74 678.83,861.99 684.34,861.99 684.34,859.24 689.83,859.24 689.83,856.49 692.59,856.49 "/>
  <g id="_2327734595488">
   <path class="fil1" d="M604.58 969.24l-11 0 0 2.75 -24.75 0 0 2.75 -16.5 0 0 2.75 -24.75 0 0 2.75 -13.75 0 0 2.75 -30.25 0 0 2.75 -11 0 0 2.75 -228.25 0 0 -2.75 -16.5 0 0 -2.75 -8.25 0 0 121 2.75 0 0 24.75 2.75 0 0 27.5 2.75 0 0 22 2.75 0 0 8.25 2.75 0 0 16.5 2.75 0 0 13.75 2.75 0 0 13.75 2.75 0 0 16.5 2.75 0 0 13.75 2.75 0 0 11 2.75 0 0 8.26 2.75 0 0 13.74 2.75 0 0 11.01 2.75 0 0 8.24 2.75 0 0 5.5 2.75 0 0 8.25 2.75 0 0 8.25 2.75 0 0 11.01 2.75 0 0 8.24 2.75 0 0 5.5 2.75 0 0 -195.25 2.75 0 0 -11 2.75 0 0 -16.5 2.75 0 0 -22 2.75 0 0 -11 2.75 0 0 -11 2.75 0 0 -5.5 2.75 0 0 -11 2.75 0 0 -5.5 2.75 0 0 -8.25 2.75 0 0 -5.5 2.75 0 0 -2.75 2.75 0 0 -5.5 2.75 0 0 -2.75 2.75 0 0 -2.75 2.75 0 0 -2.75 2.75 0 0 -2.75 2.75 0 0 -2.75 5.5 0 0 -2.75 5.5 0 0 -2.75 181.5 0 0 2.75 5.5 0 0 2.75 5.5 0 0 2.75 2.75 0 0 2.75 5.5 0 0 2.75 2.75 0 0 2.75 2.75 0 0 2.75 2.75 0 0 2.75 2.75 0 0 2.75 2.75 0 0 2.75 2.75 0 0 2.75 2.75 0 0 5.5 2.75 0 0 2.75 2.75 0 0 2.75 2.75 0 0 5.5 2.75 0 0 2.75 2.75 0 0 2.75 2.75 0 0 5.5 2.75 0 0 2.75 2.75 0 0 5.5 2.75 0 0 2.75 2.75 0 0 5.5 2.75 0 0 2.75 2.75 0 0 5.5 2.75 0 0 5.5 2.75 0 0 2.75 2.75 0 0 5.5 2.75 0 0 5.5 2.75 0 0 5.5 2.75 0 0 2.75 2.75 0 0 5.5 2.75 0 0 5.5 2.75 0 0 5.5 2.75 0 0 5.5 2.75 0 0 2.75 2.75 0 0 5.5 2.75 0 0 -8.25 -2.75 0 0 -13.75 -2.75 0 0 -13.75 -2.75 0 0 -16.5 -2.74 0 0 -16.5 -2.76 0 0 -19.25 -2.75 0 0 -19.25 -2.75 0 0 -93.5zm-324.5 473l0 0zm2.75 0l0 0zm5.5 0l0 0zm335.5 -272.25l0 5.5 2.75 0 0 5.5 0 -11 -2.75 0zm5.5 16.5l0 0zm5.5 11l0 0zm0 13.76l0 0zm2.75 0l0 0zm0 8.24l0 0zm5.5 -8.24l0 0zm0 8.24l0 0zm0 11l0 0zm0 11l0 0zm2.75 -22l0 0zm0 11l0 0zm0 11l0 0zm0 8.25l0 0zm5.5 -19.25l0 0zm0 11l0 0zm0 8.25l0 0zm0 13.75l0 0zm0 11l0 0zm2.75 -33l0 0zm0 8.25l0 0zm0 13.75l0 0zm0 11l0 0zm0 11l0 0zm5.5 -44l0 0zm0 8.25l0 0zm0 13.75l0 0zm0 11l0 0zm0 11l0 0zm0 8.25l0 0zm0 11l0 0zm2.75 -55l0 0zm0 13.75l0 0zm0 11l0 0zm0 11l0 0zm0 8.25l0 0zm0 11l0 0zm0 13.75l0 0zm5.5 -44l0 0zm0 11l0 0zm0 8.25l0 0zm0 11l0 0zm0 13.75l0 0zm0 11l0 0zm0 8.25l0 0zm2.75 -63.25l0 0zm0 11l0 0zm0 8.25l0 0zm0 11l0 0zm0 13.75l0 0zm0 11l0 0zm0 8.25l0 0zm0 13.75l0 0zm5.5 -46.75l0 0zm0 13.75l0 0zm0 11l0 0zm0 8.25l0 0zm0 13.75l0 0zm0 8.25l0 0zm2.75 -41.25l0 0zm0 11l0 0zm0 8.25l0 0zm0 13.75l0 0zm0 8.25l0 0zm5.5 -8.25l0 0zm0 8.25l0 0zm0 19.25l0 0zm2.75 0l0 0zm0 11.01l0 0z"/>
  </g>
  <path id="crown" class="fil2" d="M662.33 380.74l11 0 0 2.75 8.25 0 0 2.75 5.5 0 0 2.75 5.51 0 0 2.75 5.49 0 0 2.75 2.75 0 0 2.75 5.5 0 0 2.75 2.76 0 0 2.75 2.74 0 0 2.75 2.75 0 0 2.75 2.75 0 0 2.75 2.75 0 0 2.75 2.75 0 0 2.75 2.76 0 0 2.75 2.74 0 0 2.75 2.75 0 0 5.5 2.76 0 0 2.75 2.74 0 0 5.5 2.75 0 0 2.75 2.75 0 0 5.5 2.75 0 0 5.5 2.75 0 0 5.5 2.76 0 0 5.5 2.74 0 0 8.25 2.75 0 0 8.25 2.76 0 0 2.75 2.74 0 0 13.75 2.75 0 0 8.25 2.76 0 0 8.25 2.74 0 0 19.25 2.75 0 0 90.75 -2.75 0 0 19.25 -2.74 0 0 8.25 -2.76 0 0 19.25 -2.75 0 0 5.5 -2.74 0 0 13.75 -2.76 0 0 8.25 -2.75 0 0 5.5 -2.74 0 0 11 -2.76 0 0 8.25 -2.75 0 0 8.25 -2.75 0 0 5.5 -2.75 0 0 8.25 -2.75 0 0 5.5 -2.74 0 0 8.25 -2.76 0 0 5.5 -2.75 0 0 8.25 -2.74 0 0 5.5 -2.76 0 0 8.25 -2.75 0 0 5.5 -2.75 0 0 5.5 -2.75 0 0 8.25 -2.75 0 0 5.5 -2.74 0 0 2.75 -2.76 0 0 5.5 -2.75 0 0 2.75 -2.75 0 0 2.75 -2.75 0 0 2.75 -2.75 0 0 2.75 -2.74 0 0 2.75 -5.51 0 0 2.75 -2.74 0 0 2.75 -2.76 0 0 2.75 -5.5 0 0 2.75 -5.5 0 0 2.75 -5.5 0 0 2.75 -5.5 0 0 2.75 -5.5 0 0 2.75 -8.25 0 0 2.75 -13.75 0 0 2.75 -8.25 0 0 2.75 -16.5 0 0 2.75 -35.75 0 0 2.75 -38.5 0 0 2.75 -33 0 0 2.75 -22 0 0 2.75 -16.5 0 0 2.75 -27.5 0 0 2.75 -16.5 0 0 2.75 -27.5 0 0 2.75 -60.5 0 0 -2.75 -27.5 0 0 -2.75 -13.75 0 0 -2.75 -77 0 0 -2.75 -22 0 0 -2.75 -16.5 0 0 -2.75 -13.75 0 0 -2.75 -5.5 0 0 -2.75 -8.25 0 0 -2.75 -5.5 0 0 -2.75 -5.5 0 0 -2.75 -2.75 0 0 -2.75 -5.5 0 0 -2.75 -2.75 0 0 -2.75 -2.75 0 0 -2.75 -2.75 0 0 -2.75 -2.75 0 0 -2.75 -2.75 0 0 -2.75 -2.75 0 0 -2.75 -2.75 0 0 -5.5 -2.75 0 0 -2.75 -2.75 0 0 -2.75 -2.75 0 0 -5.5 -2.75 0 0 -5.5 -2.75 0 0 -5.5 -2.75 0 0 -5.5 -2.75 0 0 -5.5 -2.75 0 0 -5.5 -2.75 0 0 -8.25 -2.75 0 0 -5.5 -2.75 0 0 -5.5 -2.75 0 0 -5.5 -2.75 0 0 -8.25 -2.75 0 0 -5.5 -2.75 0 0 -5.5 -2.75 0 0 -8.25 -2.75 0 0 -5.5 -2.75 0 0 -8.25 -2.75 0 0 -5.5 -2.75 0 0 -8.25 -2.75 0 0 -5.5 -2.75 0 0 -11 -2.75 0 0 -5.5 -2.75 0 0 -13.75 -2.75 0 0 -8.25 -2.75 0 0 -8.25 -2.75 0 0 -13.75 -2.75 0 0 -8.25 -2.75 0 0 -16.5 -2.75 0 0 -68.75 2.75 0 0 -8.25 2.75 0 0 -16.5 2.75 0 0 -8.25 2.75 0 0 -8.25 2.75 0 0 -5.5 2.75 0 0 -8.25 2.75 0 0 -5.5 2.75 0 0 -5.5 2.75 0 0 -5.5 2.75 0 0 -5.5 2.75 0 0 -5.5 2.75 0 0 -2.75 2.75 0 0 -5.5 2.75 0 0 -2.75 2.75 0 0 -2.75 2.75 0 0 -2.75 11 0 0 -2.75 11 0 0 -2.75 8.25 0 0 -2.75 8.25 0 0 -2.75 5.5 0 0 -2.75 5.5 0 0 -2.75 5.5 0 0 -2.75 8.25 0 0 -2.75 5.5 0 0 -2.75 5.5 0 0 -2.75 5.5 0 0 -2.75 8.25 0 0 -2.75 11 0 0 -2.75 30.25 0 0 2.75 11 0 0 2.75 11 0 0 2.75 5.5 0 0 2.75 5.5 0 0 2.75 8.25 0 0 2.75 5.5 0 0 2.75 5.5 0 0 2.75 8.25 0 0 2.75 5.5 0 0 2.75 5.5 0 0 2.75 5.5 0 0 2.75 8.25 0 0 2.75 5.5 0 0 2.75 5.5 0 0 2.75 5.5 0 0 2.75 8.25 0 0 2.75 2.75 0 0 2.75 2.75 0 0 2.75 5.5 0 0 2.75 5.5 0 0 2.75 2.75 0 0 2.75 2.75 0 0 2.75 5.5 0 0 2.75 2.75 0 0 2.75 2.75 0 0 2.75 2.75 0 0 2.75 2.75 0 0 2.75 2.75 0 0 16.5 -2.75 0 0 38.5 2.75 0 0 16.5 2.75 0 0 11 2.75 0 0 5.5 2.75 0 0 11 2.75 0 0 5.5 2.75 0 0 5.5 2.75 0 0 2.75 2.75 0 0 -11 -2.75 0 0 -77 2.75 0 0 -13.75 2.75 0 0 -8.25 2.75 0 0 -8.25 2.75 0 0 -2.75 2.75 0 0 -5.5 2.75 0 0 -2.75 2.75 0 0 -2.75 2.75 0 0 -2.75 5.5 0 0 -2.75 2.75 0 0 -2.75 5.5 0 0 -2.75 5.5 0 0 -2.75 8.25 0 0 -2.75 11 0 0 -2.75 8.25 0 0 -2.75 11 0 0 -2.75 8.25 0 0 -2.75 5.5 0 0 -2.75 13.75 0 0 -2.75 5.5 0 0 -2.75 5.5 0 0 -2.75 8.25 0 0 -2.75 5.5 0 0 -2.75 5.5 0 0 -2.75 8.25 0 0 -2.75 5.5 0 0 -2.75 5.5 0 0 -2.75 5.5 0 0 -2.75 5.5 0 0 -2.75 5.5 0 0 -2.75 8.25 0 0 -2.75 5.5 0 0 -2.75 11 0 0 -2.75 24.75 0 0 2.75 8.25 0 0 2.75 8.25 0 0 2.75 5.5 0 0 2.75 2.75 0 0 2.75 5.5 0 0 2.75 2.75 0 0 2.75 2.75 0 0 2.75 2.75 0 0 2.75 2.75 0 0 2.75 2.75 0 0 5.5 2.75 0 0 2.75 2.75 0 0 2.75 2.75 0 0 5.5 2.76 0 0 2.75 2.74 0 0 5.5 2.75 0 0 5.5 2.75 0 0 2.75 2.75 0 0 5.5 2.75 0 0 5.5 2.75 0 0 8.25 2.75 0 0 5.5 2.75 0 0 5.5 2.76 0 0 8.25 2.74 0 0 5.5 2.75 0 0 11 2.75 0 0 5.5 2.75 0 0 8.25 2.75 0 0 11 2.76 0 0 5.5 2.74 0 0 11 2.75 0 0 2.75 2.76 0 0 -33 -2.76 0 0 -11 -2.75 0 0 -19.25 -2.74 0 0 -5.5 -2.76 0 0 -8.25 -2.75 0 0 -8.25 -2.75 0 0 -8.25 -2.75 0 0 -8.25 -2.75 0 0 -5.5 -2.74 0 0 -5.5 -2.76 0 0 -5.5 -2.75 0 0 -5.5 -2.75 0 0 -5.5 -2.75 0 0 -2.75 -2.75 0 0 -5.5 -2.75 0 0 -2.75 -2.75 0 0 -5.5 -2.75 0 0 -2.75 -2.74 0 0 -2.75 -2.76 0 0 -2.75 -2.75 0 0 -2.75 -2.75 0 0 -2.75 -2.75 0 0 -2.75 -5.5 0 0 -2.75 -2.75 0 0 -2.75 -5.5 0 0 -2.75 -5.5 0 0 -2.75 -2.75 0 0 -2.75 5.5 0 0 -2.75 16.5 0 0 -2.75 30.25 0 0 2.75zm-420.75 -38.5l8.25 0 0 2.75 8.25 0 0 2.75 5.5 0 0 2.75 5.5 0 0 2.75 5.5 0 0 2.75 5.5 0 0 2.75 5.5 0 0 2.75 5.5 0 0 2.75 5.5 0 0 2.75 5.5 0 0 2.75 2.75 0 0 2.75 5.5 0 0 2.75 5.5 0 0 2.75 5.5 0 0 2.75 8.25 0 0 2.75 5.5 0 0 2.75 8.25 0 0 2.75 5.5 0 0 2.75 11 0 0 2.75 5.5 0 0 2.75 5.5 0 0 2.75 5.5 0 0 2.75 5.5 0 0 2.75 2.75 0 0 2.75 5.5 0 0 2.75 5.5 0 0 2.75 2.75 0 0 2.75 2.75 0 0 2.75 2.75 0 0 2.75 2.75 0 0 2.75 2.75 0 0 2.75 2.75 0 0 5.5 -2.75 0 0 2.75 -8.25 0 0 2.75 -8.25 0 0 2.75 -2.75 0 0 2.75 -5.5 0 0 2.75 -5.5 0 0 2.75 -2.75 0 0 2.75 -2.75 0 0 2.75 -2.75 0 0 2.75 -5.5 0 0 5.5 -2.75 0 0 2.75 -2.75 0 0 2.75 -2.75 0 0 -2.75 -2.75 0 0 -2.75 -2.75 0 0 -2.75 -2.75 0 0 -2.75 -2.75 0 0 -2.75 -5.5 0 0 -2.75 -2.75 0 0 -2.75 -5.5 0 0 -2.75 -2.75 0 0 -2.75 -5.5 0 0 -2.75 -5.5 0 0 -2.75 -5.5 0 0 -2.75 -5.5 0 0 -2.75 -5.5 0 0 -2.75 -5.5 0 0 -2.75 -5.5 0 0 -2.75 -8.25 0 0 -2.75 -5.5 0 0 -2.75 -5.5 0 0 -2.75 -5.5 0 0 -2.75 -8.25 0 0 -2.75 -5.5 0 0 -2.75 -5.5 0 0 -2.75 -8.25 0 0 -2.75 -5.5 0 0 -2.75 -5.5 0 0 -2.75 -5.5 0 0 -2.75 -11 0 0 -2.75 -11 0 0 -2.75 -30.25 0 0 2.75 -11 0 0 2.75 -5.5 0 0 2.75 -11 0 0 2.75 -5.5 0 0 2.75 -5.5 0 0 2.75 -5.5 0 0 2.75 -5.5 0 0 2.75 -5.5 0 0 2.75 -5.5 0 0 2.75 -2.75 0 0 2.75 -8.25 0 0 2.75 -5.5 0 0 -2.75 2.75 0 0 -2.75 2.75 0 0 -2.75 2.75 0 0 -2.75 2.75 0 0 -2.75 2.75 0 0 -2.75 2.75 0 0 -2.75 2.75 0 0 -2.75 2.75 0 0 -2.75 2.75 0 0 -2.75 2.75 0 0 -2.75 2.75 0 0 -2.75 2.75 0 0 -2.75 2.75 0 0 -2.75 2.75 0 0 -2.75 5.5 0 0 -2.75 2.75 0 0 -2.75 2.75 0 0 -2.75 5.5 0 0 -2.75 2.75 0 0 -2.75 5.5 0 0 -2.75 2.75 0 0 -2.75 5.5 0 0 -2.75 2.75 0 0 -2.75 5.5 0 0 -2.75 5.5 0 0 -2.75 5.5 0 0 -2.75 5.5 0 0 -2.75 5.5 0 0 -2.75 16.5 0 0 -2.75 30.25 0 0 2.75zm321.75 0l5.5 0 0 2.75 8.25 0 0 2.75 5.5 0 0 2.75 2.75 0 0 2.75 5.5 0 0 2.75 5.5 0 0 2.75 5.5 0 0 2.75 5.5 0 0 5.5 -11 0 0 2.75 -8.25 0 0 2.75 -8.25 0 0 2.75 -11 0 0 2.75 -19.25 0 0 2.75 -8.25 0 0 2.75 -5.5 0 0 2.75 -5.5 0 0 2.75 -5.5 0 0 2.75 -5.5 0 0 2.75 -5.5 0 0 2.75 -5.5 0 0 2.75 -8.25 0 0 2.75 -2.75 0 0 2.75 -5.5 0 0 2.75 -8.25 0 0 2.75 -5.5 0 0 2.75 -5.5 0 0 2.75 -13.75 0 0 2.75 -8.25 0 0 2.75 -5.5 0 0 2.75 -11 0 0 2.75 -8.25 0 0 2.75 -8.25 0 0 -11 -2.75 0 0 -5.5 -2.75 0 0 -5.5 -2.75 0 0 -2.75 -2.75 0 0 -2.75 -2.75 0 0 -2.75 -2.75 0 0 -2.75 -2.75 0 0 -2.75 -5.5 0 0 -5.5 13.75 0 0 -2.75 5.5 0 0 -2.75 8.25 0 0 -2.75 11 0 0 -2.75 5.5 0 0 -2.75 5.5 0 0 -2.75 8.25 0 0 -2.75 5.5 0 0 -2.75 5.5 0 0 -2.75 5.5 0 0 -2.75 5.5 0 0 -2.75 5.5 0 0 -2.75 5.5 0 0 -2.75 5.5 0 0 -2.75 8.25 0 0 -2.75 5.5 0 0 -2.75 11 0 0 -2.75 5.5 0 0 -2.75 44 0 0 2.75z"/>
  <g id="_2327734593424">
   <polygon class="fil3" points="644.62,651.45 597.87,651.45 597.87,648.7 595.12,648.7 595.12,637.7 592.37,637.7 592.37,632.2 589.62,632.2 589.62,621.2 586.87,621.2 586.87,612.95 584.12,612.95 584.12,607.45 581.37,607.45 581.37,596.45 578.62,596.45 578.62,590.95 575.87,590.95 575.87,582.7 573.12,582.7 573.12,577.2 570.37,577.2 570.37,571.7 567.62,571.7 567.62,563.45 564.87,563.45 564.87,557.95 562.12,557.95 562.12,552.45 559.37,552.45 559.37,549.71 556.62,549.71 556.62,544.2 553.87,544.2 553.87,538.7 551.12,538.7 551.12,535.95 545.3,535.95 545.3,538.7 537.05,538.7 537.05,541.45 526.05,541.45 526.05,544.2 517.8,544.2 517.8,546.95 506.8,546.95 506.8,549.71 498.54,549.71 498.54,552.45 493.05,552.45 493.05,555.2 487.55,555.2 487.55,557.95 484.8,557.95 484.8,560.7 479.3,560.7 479.3,563.45 476.55,563.45 476.55,566.2 473.79,566.2 473.79,568.95 471.05,568.95 471.05,574.46 468.3,574.46 468.3,577.2 465.55,577.2 465.55,585.45 462.8,585.45 462.8,593.7 460.05,593.7 460.05,695.45 273.37,695.45 273.37,692.7 270.62,692.7 270.62,687.21 267.87,687.21 267.87,681.7 265.12,681.7 265.12,670.7 262.37,670.7 262.37,665.2 259.62,665.2 259.62,654.2 256.87,654.2 256.87,637.7 254.12,637.7 254.12,579.95 251.37,579.95 251.37,577.2 248.62,577.2 248.62,574.46 245.87,574.46 245.87,571.7 243.12,571.7 243.12,568.95 237.62,568.95 237.62,566.2 234.87,566.2 234.87,563.45 232.12,563.45 232.12,560.7 226.62,560.7 226.62,557.95 221.12,557.95 221.12,555.2 218.37,555.2 218.37,552.45 215.62,552.45 215.62,549.71 207.37,549.71 207.37,546.95 201.87,546.95 201.87,544.2 196.37,544.2 196.37,541.45 190.87,541.45 190.87,538.7 182.62,538.7 182.62,535.95 182.29,535.95 182.29,538.7 171.29,538.7 171.29,541.45 160.29,541.45 160.29,544.2 157.54,544.2 157.54,546.95 154.79,546.95 154.79,549.71 152.05,549.71 152.05,555.2 149.29,555.2 149.29,557.95 146.54,557.95 146.54,563.45 143.8,563.45 143.8,568.95 141.04,568.95 141.04,574.46 138.29,574.46 138.29,579.95 135.55,579.95 135.55,585.45 132.79,585.45 132.79,594.03 135.55,594.03 135.55,599.53 138.29,599.53 138.29,610.53 141.04,610.53 141.04,616.03 143.8,616.03 143.8,624.28 146.54,624.28 146.54,629.78 149.29,629.78 149.29,638.02 152.05,638.02 152.05,643.53 154.79,643.53 154.79,651.78 157.54,651.78 157.54,657.28 160.29,657.28 160.29,662.77 163.04,662.77 163.04,671.03 165.79,671.03 165.79,676.53 168.54,676.53 168.54,682.03 171.29,682.03 171.29,687.53 174.05,687.53 174.05,695.78 176.79,695.78 176.79,701.28 179.54,701.28 179.54,706.78 182.29,706.78 182.29,712.28 185.04,712.28 185.04,717.78 187.79,717.78 187.79,723.28 190.54,723.28 190.54,728.78 193.29,728.78 193.29,731.53 196.04,731.53 196.04,734.28 198.8,734.28 198.8,739.78 201.54,739.78 201.54,742.53 204.29,742.53 204.29,745.28 207.04,745.28 207.04,748.03 209.79,748.03 209.79,750.78 212.54,750.78 212.54,753.53 215.3,753.53 215.3,756.28 218.04,756.28 218.04,759.03 223.55,759.03 223.55,761.78 226.29,761.78 226.29,764.53 231.79,764.53 231.79,767.28 237.29,767.28 237.29,770.03 245.54,770.03 245.54,772.78 251.04,772.78 251.04,775.53 264.8,775.53 264.8,778.28 281.3,778.28 281.3,781.03 303.29,781.03 303.29,783.78 369.62,783.78 369.62,781.03 386.12,781.03 386.12,778.28 408.12,778.28 408.12,775.53 441.12,775.53 441.12,772.78 479.62,772.78 479.62,770.03 515.37,770.03 515.37,767.28 531.87,767.28 531.87,764.53 540.12,764.53 540.12,761.78 553.87,761.78 553.87,759.03 562.12,759.03 562.12,756.28 567.62,756.28 567.62,753.53 573.12,753.53 573.12,750.78 578.62,750.78 578.62,748.03 584.12,748.03 584.12,745.28 589.62,745.28 589.62,742.53 592.37,742.53 592.37,739.78 595.12,739.78 595.12,737.03 600.62,737.03 600.62,734.28 603.37,734.28 603.37,731.53 606.12,731.53 606.12,728.78 608.87,728.78 608.87,726.03 611.62,726.03 611.62,723.28 614.37,723.28 614.37,717.78 617.12,717.78 617.12,715.03 619.87,715.03 619.87,709.53 622.62,709.53 622.62,701.28 625.37,701.28 625.37,695.78 628.12,695.78 628.12,690.28 630.87,690.28 630.87,682.03 633.62,682.03 633.62,676.53 636.37,676.53 636.37,668.28 639.12,668.28 639.12,662.77 641.87,662.77 641.87,654.53 644.62,654.53 "/>
  </g>
  <path id="outline" class="fil4" d="M692.59 856.49l-2.76 0 0 2.75 -5.49 0 0 2.75 -5.51 0 0 2.75 -5.5 0 0 2.75 -5.49 0 0 2.75 -8.26 0 0 2.75 -5.5 0 0 2.75 -8.25 0 0 2.75 -13.75 0 0 2.75 -16.5 0 0 2.75 -24.75 0 0 2.75 -49.5 0 0 2.75 -27.5 0 0 2.75 -24.75 0 0 2.75 -16.5 0 0 2.75 -24.75 0 0 2.75 -13.75 0 0 2.75 -30.25 0 0 2.75 -11 0 0 2.75 -68.75 0 0 -2.75 -16.5 0 0 -2.75 -19.25 0 0 -2.75 -11 0 0 -2.75 -82.5 0 0 -2.75 -16.5 0 0 -2.75 -13.75 0 0 -2.75 -13.75 0 0 -2.75 -8.25 0 0 -2.75 -5.5 0 0 -2.75 -5.5 0 0 -2.75 -5.5 0 0 -2.75 -5.5 0 0 -2.75 -2.75 0 0 13.75 2.75 0 0 5.5 2.75 0 0 13.75 2.75 0 0 13.75 2.75 0 0 11 2.75 0 0 22 2.75 0 0 27.5 2.75 0 0 49.5 2.75 0 0 154 2.75 0 0 24.75 2.75 0 0 27.5 2.75 0 0 22 2.75 0 0 8.25 2.75 0 0 16.5 2.75 0 0 13.75 2.75 0 0 13.75 2.75 0 0 16.5 2.75 0 0 13.75 2.75 0 0 11 2.75 0 0 8.26 2.75 0 0 13.74 2.75 0 0 11.01 2.75 0 0 8.25 2.75 0 0 5.49 2.75 0 0 8.25 2.75 0 0 8.25 2.75 0 0 11.01 2.75 0 0 8.25 2.75 0 0 5.49 2.75 0 0 5.5 2.75 0 0 5.51 2.75 0 0 8.25 2.75 0 0 8.25 2.75 0 0 5.5 2.75 0 0 5.49 2.75 0 0 8.25 2.75 0 0 5.51 2.75 0 0 5.5 2.75 0 0 5.49 2.75 0 0 5.51 2.75 0 0 8.25 2.75 0 0 5.49 2.75 0 0 5.5 2.75 0 0 5.51 2.75 0 0 5.5 2.75 0 0 5.49 2.75 0 0 2.75 2.75 0 0 5.5 2.75 0 0 5.51 2.75 0 0 5.5 2.75 0 0 5.49 2.75 0 0 5.51 2.75 0 0 5.5 2.75 0 0 2.75 2.75 0 0 5.5 2.75 0 0 5.49 2.75 0 0 2.76 2.75 0 0 5.49 2.75 0 0 5.51 2.75 0 0 2.74 2.75 0 0 5.51 2.75 0 0 2.74 2.75 0 0 5.51 2.75 0 0 2.75 2.75 0 0 2.75 2.75 0 0 5.49 2.75 0 0 2.76 2.75 0 0 5.49 2.75 0 0 2.76 2.75 0 0 2.75 2.75 0 0 5.5 2.75 0 0 2.75 2.75 0 0 2.74 2.75 0 0 2.76 2.75 0 0 2.75 2.75 0 0 2.75 2.75 0 0 2.75 2.75 0 0 2.75 2.75 0 0 2.75 2.75 0 0 2.75 2.75 0 0 2.75 2.75 0 0 2.74 2.75 0 0 2.76 2.75 0 0 2.75 5.5 0 0 2.75 2.75 0 0 2.75 2.75 0 0 2.75 2.75 0 0 2.75 5.5 0 0 2.75 5.5 0 0 2.75 5.5 0 0 2.75 8.25 0 0 2.75 2.75 0 0 2.75 16.5 0 0 -2.75 2.75 0 0 -2.75 2.75 0 0 -2.75 2.75 0 0 -2.75 2.75 0 0 -8.25 2.75 0 0 -35.76 -2.75 0 0 -13.74 -2.75 0 0 -11.01 -2.75 0 0 -16.5 -2.75 0 0 -5.49 -2.75 0 0 -16.5 -2.75 0 0 -5.5 -2.75 0 0 -11 -2.75 0 0 -13.75 -2.75 0 0 -8.25 -2.75 0 0 -11.01 -2.75 0 0 -5.49 -2.75 0 0 -16.5 -2.75 0 0 -5.51 -2.75 0 0 -16.5 -2.75 0 0 -10.99 -2.75 0 0 -13.76 -2.75 0 0 -16.5 -2.75 0 0 -24.75 -2.75 0 0 -22 -2.75 0 0 -19.25 -2.75 0 0 -33 -2.75 0 0 -118.25 2.75 0 0 -11 2.75 0 0 -16.5 2.75 0 0 -22 2.75 0 0 -11 2.75 0 0 -11 2.75 0 0 -5.5 2.75 0 0 -10.99 2.75 0 0 -5.51 2.75 0 0 -8.25 2.75 0 0 -5.5 2.75 0 0 -2.75 2.75 0 0 -5.5 2.75 0 0 -2.75 2.75 0 0 -2.75 2.75 0 0 -2.75 2.75 0 0 -2.75 2.75 0 0 -2.75 5.5 0 0 -2.75 5.5 0 0 -2.75 22 0 0 2.75 5.5 0 0 2.75 5.5 0 0 2.75 2.75 0 0 2.75 5.5 0 0 2.75 2.75 0 0 2.75 2.75 0 0 2.75 2.75 0 0 2.75 2.75 0 0 2.75 2.75 0 0 2.75 2.75 0 0 2.75 2.75 0 0 5.5 2.75 0 0 2.75 2.75 0 0 2.75 2.75 0 0 5.51 2.75 0 0 2.74 2.75 0 0 2.75 2.75 0 0 5.5 2.75 0 0 2.75 2.75 0 0 5.5 2.75 0 0 2.75 2.75 0 0 5.5 2.75 0 0 2.75 2.75 0 0 5.5 2.75 0 0 5.51 2.75 0 0 2.74 2.75 0 0 5.5 2.75 0 0 5.5 2.75 0 0 5.5 2.75 0 0 2.75 2.75 0 0 5.5 2.75 0 0 5.5 2.75 0 0 5.5 2.75 0 0 5.5 2.75 0 0 2.75 2.75 0 0 5.5 2.75 0 0 5.5 2.75 0 0 5.5 2.75 0 0 5.5 2.75 0 0 5.5 2.75 0 0 5.5 2.75 0 0 5.5 2.75 0 0 5.5 2.75 0 0 5.5 2.75 0 0 5.5 2.75 0 0 5.5 2.75 0 0 5.5 2.75 0 0 5.5 2.75 0 0 5.5 2.75 0 0 8.25 2.75 0 0 5.51 2.75 0 0 8.24 2.75 0 0 8.25 2.75 0 0 5.5 2.75 0 0 5.5 2.75 0 0 8.25 2.75 0 0 5.51 2.75 0 0 8.25 2.75 0 0 8.25 2.75 0 0 10.99 2.75 0 0 8.25 2.75 0 0 5.51 2.75 0 0 8.25 2.75 0 0 8.25 2.75 0 0 13.75 2.75 0 0 8.24 2.75 0 0 8.25 2.75 0 0 5.5 2.75 0 0 11 2.75 0 0 8.26 2.75 0 0 5.49 2.75 0 0 5.51 2.76 0 0 8.25 2.74 0 0 8.25 2.75 0 0 5.49 2.75 0 0 11.01 2.75 0 0 8.25 2.75 0 0 5.49 2.75 0 0 8.26 2.75 0 0 5.49 2.75 0 0 8.25 2.76 0 0 5.51 2.74 0 0 5.5 2.75 0 0 5.5 2.75 0 0 5.5 2.75 0 0 5.5 2.75 0 0 5.49 2.76 0 0 5.51 2.74 0 0 2.74 2.75 0 0 5.51 2.76 0 0 5.5 2.74 0 0 2.75 2.75 0 0 5.5 2.75 0 0 2.75 2.75 0 0 5.5 2.75 0 0 2.75 2.76 0 0 2.74 2.74 0 0 2.76 2.75 0 0 2.75 2.75 0 0 2.75 2.75 0 0 2.75 2.75 0 0 2.75 2.76 0 0 2.74 5.49 0 0 2.76 5.5 0 0 2.75 19.25 0 0 -2.75 5.5 0 0 -2.76 2.75 0 0 -5.49 2.76 0 0 -2.75 2.74 0 0 -8.26 2.75 0 0 -10.99 2.76 0 0 -8.25 2.74 0 0 -27.5 2.76 0 0 -99 -2.76 0 0 -38.5 -2.74 0 0 -11 -2.76 0 0 -38.5 -2.75 0 0 -24.75 -2.74 0 0 -19.26 -2.76 0 0 -19.25 -2.75 0 0 -19.25 -2.74 0 0 -16.5 -2.76 0 0 -11 -2.75 0 0 -19.25 -2.74 0 0 -8.25 -2.76 0 0 -13.75 -2.75 0 0 -8.25 -2.75 0 0 -11 -2.75 0 0 -13.75 -2.75 0 0 -11 -2.74 0 0 -8.25 -2.76 0 0 -11 -2.75 0 0 -11 -2.74 0 0 -13.75 -2.76 0 0 -8.25 -2.75 0 0 -11 -2.75 0 0 -11 -2.75 0 0 -8.25 -2.75 0 0 -13.75 -2.74 0 0 -11 -2.76 0 0 -16.5 -2.75 0 0 -8.25 -2.75 0 0 -13.75 -2.75 0 0 -13.75 -2.75 0 0 -16.5 -2.74 0 0 -16.5 -2.76 0 0 -19.25 -2.75 0 0 -19.25 -2.74 0 0 -79.75 2.74 0 0 -16.5 2.75 0 0 -16.5 2.76 0 0 -13.75zm-492.26 -464.75l11 0 0 2.75 11 0 0 2.75 5.5 0 0 2.75 5.5 0 0 2.75 5.5 0 0 2.75 8.25 0 0 2.75 5.5 0 0 2.75 5.5 0 0 2.75 8.25 0 0 2.75 5.5 0 0 2.75 5.5 0 0 2.75 5.5 0 0 2.75 8.25 0 0 2.75 5.5 0 0 2.75 5.5 0 0 2.75 5.5 0 0 2.75 5.5 0 0 2.75 5.5 0 0 2.75 5.5 0 0 2.75 5.5 0 0 2.75 2.75 0 0 2.75 5.5 0 0 2.75 2.75 0 0 2.75 5.5 0 0 2.75 2.75 0 0 2.75 2.75 0 0 2.75 2.75 0 0 2.75 2.75 0 0 2.75 2.75 0 0 -2.75 2.75 0 0 -2.75 2.75 0 0 -5.5 5.5 0 0 -2.75 2.75 0 0 -2.75 2.75 0 0 -2.75 2.75 0 0 -2.75 5.5 0 0 -2.75 5.5 0 0 -2.75 2.75 0 0 -2.75 8.25 0 0 -2.75 8.25 0 0 -2.75 2.75 0 0 -5.5 -2.75 0 0 -2.75 -2.75 0 0 -2.75 -2.75 0 0 -2.75 -2.75 0 0 -2.75 -2.75 0 0 -2.75 -2.75 0 0 -2.75 -5.5 0 0 -2.75 -5.5 0 0 -2.75 -2.75 0 0 -2.75 -5.5 0 0 -2.75 -5.5 0 0 -2.75 -5.5 0 0 -2.75 -5.5 0 0 -2.75 -11 0 0 -2.75 -5.5 0 0 -2.75 -8.25 0 0 -2.75 -5.5 0 0 -2.75 -8.25 0 0 -2.75 -5.5 0 0 -2.75 -5.5 0 0 -2.75 -5.5 0 0 -2.75 -2.75 0 0 -2.75 -5.5 0 0 -2.75 -5.5 0 0 -2.75 -5.5 0 0 -2.75 -5.5 0 0 -2.75 -5.5 0 0 -2.75 -5.5 0 0 -2.75 -5.5 0 0 -2.75 -5.5 0 0 -2.75 -8.25 0 0 -2.75 -8.25 0 0 -2.75 -30.25 0 0 2.75 -16.5 0 0 2.75 -5.5 0 0 2.75 -5.5 0 0 2.75 -5.5 0 0 2.75 -5.5 0 0 2.75 -5.5 0 0 2.75 -2.75 0 0 2.75 -5.5 0 0 2.75 -2.75 0 0 2.75 -5.5 0 0 2.75 -2.75 0 0 2.75 -5.5 0 0 2.75 -2.75 0 0 2.75 -2.75 0 0 2.75 -5.5 0 0 2.75 -2.75 0 0 2.75 -2.75 0 0 2.75 -2.75 0 0 2.75 -2.75 0 0 2.75 -2.75 0 0 2.75 -2.75 0 0 2.75 -2.75 0 0 2.75 -2.75 0 0 2.75 -2.75 0 0 2.75 -2.75 0 0 2.75 -2.75 0 0 2.75 -2.75 0 0 2.75 -2.75 0 0 2.75 -2.75 0 0 2.75 5.5 0 0 -2.75 8.25 0 0 -2.75 2.75 0 0 -2.75 5.5 0 0 -2.75 5.5 0 0 -2.75 5.5 0 0 -2.75 5.5 0 0 -2.75 5.5 0 0 -2.75 5.5 0 0 -2.75 11 0 0 -2.75 5.5 0 0 -2.75 11 0 0 -2.75 30.25 0 0 2.75zm412.5 -2.75l5.5 0 0 2.75 5.5 0 0 2.75 2.75 0 0 2.75 5.5 0 0 2.75 2.75 0 0 2.75 2.75 0 0 2.75 2.75 0 0 2.75 2.76 0 0 2.75 2.74 0 0 2.75 2.75 0 0 5.5 2.75 0 0 2.75 2.75 0 0 5.5 2.75 0 0 2.75 2.75 0 0 5.5 2.75 0 0 5.5 2.75 0 0 5.5 2.76 0 0 5.5 2.74 0 0 5.5 2.75 0 0 8.25 2.75 0 0 8.25 2.75 0 0 8.25 2.75 0 0 8.25 2.76 0 0 5.5 2.74 0 0 19.25 2.75 0 0 11 2.76 0 0 33 -2.76 0 0 -2.75 -2.75 0 0 -11 -2.74 0 0 -5.5 -2.76 0 0 -11 -2.75 0 0 -8.25 -2.75 0 0 -5.5 -2.75 0 0 -11 -2.75 0 0 -5.5 -2.74 0 0 -8.25 -2.76 0 0 -5.5 -2.75 0 0 -5.5 -2.75 0 0 -8.25 -2.75 0 0 -5.5 -2.75 0 0 -5.5 -2.75 0 0 -2.75 -2.75 0 0 -5.5 -2.75 0 0 -5.5 -2.74 0 0 -2.75 -2.76 0 0 -5.5 -2.75 0 0 -2.75 -2.75 0 0 -2.75 -2.75 0 0 -5.5 -2.75 0 0 -2.75 -2.75 0 0 -2.75 -2.75 0 0 -2.75 -2.75 0 0 -2.75 -2.75 0 0 -2.75 -5.5 0 0 -2.75 -2.75 0 0 -2.75 -5.5 0 0 -2.75 -8.25 0 0 -2.75 -8.25 0 0 -2.75 -24.75 0 0 2.75 -11 0 0 2.75 -5.5 0 0 2.75 -8.25 0 0 2.75 -5.5 0 0 2.75 -5.5 0 0 2.75 -5.5 0 0 2.75 -5.5 0 0 2.75 -5.5 0 0 2.75 -8.25 0 0 2.75 -5.5 0 0 2.75 -5.5 0 0 2.75 -8.25 0 0 2.75 -5.5 0 0 2.75 -5.5 0 0 2.75 -13.75 0 0 2.75 -5.5 0 0 2.75 -8.25 0 0 2.75 -11 0 0 2.75 -8.25 0 0 2.75 -11 0 0 2.75 -8.25 0 0 2.75 -5.5 0 0 2.75 -5.5 0 0 2.75 -2.75 0 0 2.75 -5.5 0 0 2.75 -2.75 0 0 2.75 -2.75 0 0 2.75 -2.75 0 0 5.5 -2.75 0 0 2.75 -2.75 0 0 8.25 -2.75 0 0 8.25 -2.75 0 0 13.75 -2.75 0 0 77 2.75 0 0 11 -2.75 0 0 -2.75 -2.75 0 0 -5.5 -2.75 0 0 -5.5 -2.75 0 0 -11 -2.75 0 0 -5.5 -2.75 0 0 -11 -2.75 0 0 -16.5 -2.75 0 0 -38.5 2.75 0 0 -16.5 -2.75 0 0 -2.75 -2.75 0 0 -2.75 -2.75 0 0 -2.75 -2.75 0 0 -2.75 -2.75 0 0 -2.75 -5.5 0 0 -2.75 -2.75 0 0 -2.75 -2.75 0 0 -2.75 -5.5 0 0 -2.75 -5.5 0 0 -2.75 -2.75 0 0 -2.75 -2.75 0 0 -2.75 -8.25 0 0 -2.75 -5.5 0 0 -2.75 -5.5 0 0 -2.75 -5.5 0 0 -2.75 -8.25 0 0 -2.75 -5.5 0 0 -2.75 -5.5 0 0 -2.75 -5.5 0 0 -2.75 -8.25 0 0 -2.75 -5.5 0 0 -2.75 -5.5 0 0 -2.75 -8.25 0 0 -2.75 -5.5 0 0 -2.75 -5.5 0 0 -2.75 -11 0 0 -2.75 -11 0 0 -2.75 -30.25 0 0 2.75 -11 0 0 2.75 -8.25 0 0 2.75 -5.5 0 0 2.75 -5.5 0 0 2.75 -5.5 0 0 2.75 -8.25 0 0 2.75 -5.5 0 0 2.75 -5.5 0 0 2.75 -5.5 0 0 2.75 -8.25 0 0 2.75 -8.25 0 0 2.75 -11 0 0 2.75 -11 0 0 2.75 -2.75 0 0 2.75 -2.75 0 0 2.75 -2.75 0 0 5.5 -2.75 0 0 2.75 -2.75 0 0 5.5 -2.75 0 0 5.5 -2.75 0 0 5.5 -2.75 0 0 5.5 -2.75 0 0 5.5 -2.75 0 0 8.25 -2.75 0 0 5.5 -2.75 0 0 8.25 -2.75 0 0 8.25 -2.75 0 0 16.5 -2.75 0 0 8.25 -2.75 0 0 68.75 2.75 0 0 16.5 2.75 0 0 8.25 2.75 0 0 13.75 2.75 0 0 8.25 2.75 0 0 8.25 2.75 0 0 13.75 2.75 0 0 5.5 2.75 0 0 11 2.75 0 0 5.5 2.75 0 0 8.25 2.75 0 0 5.5 2.75 0 0 8.25 2.75 0 0 5.5 2.75 0 0 8.25 2.75 0 0 5.5 2.75 0 0 5.5 2.75 0 0 8.25 2.75 0 0 5.5 2.75 0 0 5.5 2.75 0 0 5.5 2.75 0 0 8.25 2.75 0 0 5.5 2.75 0 0 5.5 2.75 0 0 5.5 2.75 0 0 5.5 2.75 0 0 5.5 2.75 0 0 5.5 2.75 0 0 2.75 2.75 0 0 2.75 2.75 0 0 5.5 2.75 0 0 2.75 2.75 0 0 2.75 2.75 0 0 2.75 2.75 0 0 2.75 2.75 0 0 2.75 2.75 0 0 2.75 2.75 0 0 2.75 5.5 0 0 2.75 2.75 0 0 2.75 5.5 0 0 2.75 5.5 0 0 2.75 8.25 0 0 2.75 5.5 0 0 2.75 13.75 0 0 2.75 16.5 0 0 2.75 22 0 0 2.75 77 0 0 2.75 13.75 0 0 2.75 27.5 0 0 2.75 60.5 0 0 -2.75 27.5 0 0 -2.75 16.5 0 0 -2.75 27.5 0 0 -2.75 16.5 0 0 -2.75 22 0 0 -2.75 33 0 0 -2.75 38.5 0 0 -2.75 35.75 0 0 -2.75 16.5 0 0 -2.75 8.25 0 0 -2.75 13.75 0 0 -2.75 8.25 0 0 -2.75 5.5 0 0 -2.75 5.5 0 0 -2.75 5.5 0 0 -2.75 5.5 0 0 -2.75 5.5 0 0 -2.75 2.76 0 0 -2.75 2.74 0 0 -2.75 5.51 0 0 -2.75 2.74 0 0 -2.75 2.75 0 0 -2.75 2.75 0 0 -2.75 2.75 0 0 -2.75 2.75 0 0 -5.5 2.76 0 0 -2.75 2.74 0 0 -5.5 2.75 0 0 -8.25 2.75 0 0 -5.5 2.75 0 0 -5.5 2.75 0 0 -8.25 2.76 0 0 -5.5 2.74 0 0 -8.25 2.75 0 0 -5.5 2.76 0 0 -8.25 2.74 0 0 -5.5 2.75 0 0 -8.25 2.75 0 0 -5.5 2.75 0 0 -8.25 2.75 0 0 -8.25 2.76 0 0 -11 2.74 0 0 -5.5 2.75 0 0 -8.25 2.76 0 0 -13.75 2.74 0 0 -5.5 2.75 0 0 -19.25 2.76 0 0 -8.25 2.74 0 0 -19.25 2.75 0 0 -90.75 -2.75 0 0 -19.25 -2.74 0 0 -8.25 -2.76 0 0 -8.25 -2.75 0 0 -13.75 -2.74 0 0 -2.75 -2.76 0 0 -8.25 -2.75 0 0 -8.25 -2.74 0 0 -5.5 -2.76 0 0 -5.5 -2.75 0 0 -5.5 -2.75 0 0 -5.5 -2.75 0 0 -2.75 -2.75 0 0 -5.5 -2.74 0 0 -2.75 -2.76 0 0 -5.5 -2.75 0 0 -2.75 -2.74 0 0 -2.75 -2.76 0 0 -2.75 -2.75 0 0 -2.75 -2.75 0 0 -2.75 -2.75 0 0 -2.75 -2.75 0 0 -2.75 -2.74 0 0 -2.75 -2.76 0 0 -2.75 -5.5 0 0 -2.75 -2.75 0 0 -2.75 -5.49 0 0 -2.75 -5.51 0 0 -2.75 -5.5 0 0 -2.75 -8.25 0 0 -2.75 -11 0 0 -2.75 -30.25 0 0 2.75 -16.5 0 0 2.75 -5.5 0 0 2.75 2.75 0 0 2.75zm-5.5 -27.5l-5.5 0 0 -2.75 -5.5 0 0 -2.75 -5.5 0 0 -2.75 -5.5 0 0 -2.75 -2.75 0 0 -2.75 -5.5 0 0 -2.75 -8.25 0 0 -2.75 -5.5 0 0 -2.75 -44 0 0 2.75 -5.5 0 0 2.75 -11 0 0 2.75 -5.5 0 0 2.75 -8.25 0 0 2.75 -5.5 0 0 2.75 -5.5 0 0 2.75 -5.5 0 0 2.75 -5.5 0 0 2.75 -5.5 0 0 2.75 -5.5 0 0 2.75 -5.5 0 0 2.75 -8.25 0 0 2.75 -5.5 0 0 2.75 -5.5 0 0 2.75 -11 0 0 2.75 -8.25 0 0 2.75 -5.5 0 0 2.75 -13.75 0 0 5.5 5.5 0 0 2.75 2.75 0 0 2.75 2.75 0 0 2.75 2.75 0 0 2.75 2.75 0 0 2.75 2.75 0 0 5.5 2.75 0 0 5.5 2.75 0 0 11 8.25 0 0 -2.75 8.25 0 0 -2.75 11 0 0 -2.75 5.5 0 0 -2.75 8.25 0 0 -2.75 13.75 0 0 -2.75 5.5 0 0 -2.75 5.5 0 0 -2.75 8.25 0 0 -2.75 5.5 0 0 -2.75 2.75 0 0 -2.75 8.25 0 0 -2.75 5.5 0 0 -2.75 5.5 0 0 -2.75 5.5 0 0 -2.75 5.5 0 0 -2.75 5.5 0 0 -2.75 5.5 0 0 -2.75 8.25 0 0 -2.75 19.25 0 0 -2.75 11 0 0 -2.75 8.25 0 0 -2.75 8.25 0 0 -2.75 11 0 0 -5.5zm-44 -44l5.5 0 0 2.75 11 0 0 2.75 5.5 0 0 2.75 5.5 0 0 2.75 5.5 0 0 2.75 5.5 0 0 2.75 5.5 0 0 2.75 5.5 0 0 2.75 5.5 0 0 2.75 5.5 0 0 2.75 2.75 0 0 2.75 5.5 0 0 2.75 5.5 0 0 2.75 5.51 0 0 2.75 24.75 0 0 2.75 16.5 0 0 2.75 5.49 0 0 2.75 8.25 0 0 2.75 5.5 0 0 2.75 5.51 0 0 2.75 2.74 0 0 2.75 5.5 0 0 2.75 2.75 0 0 2.75 2.75 0 0 2.75 2.76 0 0 2.75 2.74 0 0 2.75 5.51 0 0 2.75 2.74 0 0 2.75 2.75 0 0 2.75 2.75 0 0 5.5 2.75 0 0 2.75 2.75 0 0 2.75 2.76 0 0 5.5 2.74 0 0 2.75 2.75 0 0 2.75 2.76 0 0 5.5 2.74 0 0 5.5 2.75 0 0 2.75 2.76 0 0 5.5 2.74 0 0 5.5 2.75 0 0 5.5 2.76 0 0 5.5 2.74 0 0 8.25 2.76 0 0 5.5 2.75 0 0 11 2.74 0 0 5.5 2.75 0 0 11 2.76 0 0 16.5 2.74 0 0 11 2.75 0 0 96.25 -2.75 0 0 19.25 -2.74 0 0 16.5 -2.76 0 0 11 -2.75 0 0 11 -2.74 0 0 8.25 -2.75 0 0 11 -2.76 0 0 8.25 -2.74 0 0 5.5 -2.76 0 0 8.25 -2.75 0 0 8.25 -2.74 0 0 5.5 -2.76 0 0 8.25 -2.75 0 0 8.25 -2.74 0 0 5.5 -2.76 0 0 8.25 -2.75 0 0 8.25 -2.74 0 0 5.5 -2.76 0 0 8.25 -2.75 0 0 5.5 -2.75 0 0 5.5 -2.75 0 0 8.25 -2.75 0 0 5.5 -2.74 0 0 5.5 -2.76 0 0 5.5 -2.75 0 0 5.5 -2.74 0 0 8.25 -2.76 0 0 11 -2.75 0 0 13.75 -2.75 0 0 11 -2.75 0 0 16.5 -2.75 0 0 16.5 -2.74 0 0 77 2.74 0 0 24.75 2.75 0 0 11 2.75 0 0 22 2.75 0 0 16.5 2.75 0 0 8.25 2.76 0 0 19.25 2.74 0 0 11 2.75 0 0 11 2.76 0 0 13.75 2.74 0 0 8.25 2.75 0 0 13.75 2.75 0 0 8.25 2.75 0 0 11 2.75 0 0 13.75 2.76 0 0 11 2.74 0 0 8.25 2.75 0 0 13.75 2.76 0 0 8.25 2.74 0 0 8.25 2.75 0 0 11 2.76 0 0 13.75 2.74 0 0 11 2.75 0 0 11 2.76 0 0 11 2.74 0 0 13.75 2.76 0 0 19.25 2.75 0 0 11 2.74 0 0 24.75 2.75 0 0 22 2.76 0 0 13.76 2.74 0 0 41.25 2.75 0 0 30.24 2.76 0 0 24.75 2.74 0 0 132.01 -2.74 0 0 19.25 -2.76 0 0 10.99 -2.75 0 0 11.01 -2.74 0 0 5.49 -2.76 0 0 5.51 -2.75 0 0 2.75 -2.74 0 0 5.5 -2.75 0 0 2.75 -2.76 0 0 2.75 -5.5 0 0 2.75 -2.75 0 0 2.74 -5.5 0 0 2.76 -5.49 0 0 2.75 -22.01 0 0 -2.75 -10.99 0 0 -2.76 -5.51 0 0 -2.74 -2.75 0 0 -2.75 -5.5 0 0 -2.75 -2.74 0 0 -2.75 -2.76 0 0 -2.75 -2.75 0 0 -2.75 -2.75 0 0 -2.75 -2.75 0 0 -2.75 -2.75 0 0 -2.76 -2.74 0 0 -2.74 -2.76 0 0 -2.75 -2.75 0 0 -5.5 -5.5 0 0 -5.51 -2.75 0 0 -2.74 -2.75 0 0 -5.51 -2.75 0 0 -2.74 -2.75 0 0 -5.5 -2.74 0 0 -5.5 -2.76 0 0 -2.76 -2.75 0 0 -5.49 -2.75 0 0 -5.5 -2.75 0 0 -5.51 -2.75 0 0 -5.49 -2.75 0 0 -5.5 -2.75 0 0 -5.5 -2.75 0 0 -8.26 -2.74 0 0 -5.49 -2.76 0 0 -5.5 -2.75 0 0 -8.25 -2.75 0 0 -5.51 -2.75 0 0 -8.25 -2.75 0 0 -5.49 -2.75 0 0 -8.25 -2.75 0 0 -8.26 -2.75 0 0 -8.24 -2.75 0 0 -5.5 -2.75 0 0 -11 -2.75 0 0 -8.25 -2.75 0 0 -8.26 -2.75 0 0 -5.49 -2.75 0 0 -8.25 -2.75 0 0 -8.25 -2.75 0 0 -11 -2.75 0 0 -5.5 -2.75 0 0 -8.25 -2.75 0 0 -8.25 -2.75 0 0 -8.25 -2.75 0 0 -8.25 -2.75 0 0 -8.25 -2.75 0 0 -11.01 -2.75 0 0 -8.25 -2.75 0 0 -8.25 -2.75 0 0 -5.5 -2.75 0 0 -8.24 -2.75 0 0 -5.51 -2.75 0 0 -8.25 -2.75 0 0 -5.5 -2.75 0 0 -5.49 -2.75 0 0 -8.26 -2.75 0 0 -5.5 -2.75 0 0 -5.5 -2.75 0 0 -5.5 -2.75 0 0 -5.5 -2.75 0 0 -5.5 -2.75 0 0 -5.5 -2.75 0 0 -5.5 -2.75 0 0 -5.5 -2.75 0 0 -5.5 -2.75 0 0 -5.5 -2.75 0 0 -5.5 -2.75 0 0 -2.75 -2.75 0 0 -5.5 -2.75 0 0 -5.5 -2.75 0 0 -5.5 -2.75 0 0 -2.75 -2.75 0 0 -5.5 -2.75 0 0 -5.5 -2.75 0 0 -5.5 -2.75 0 0 -5.5 -2.75 0 0 -2.75 -2.75 0 0 -5.5 -2.75 0 0 -5.5 -2.75 0 0 -5.5 -2.75 0 0 -2.75 -2.75 0 0 -5.5 -2.75 0 0 -5.5 -2.75 0 0 -2.75 -2.75 0 0 -5.49 -2.75 0 0 -2.76 -2.75 0 0 -5.5 -2.75 0 0 -2.75 -2.75 0 0 -2.75 -2.75 0 0 -5.5 -2.75 0 0 -2.75 -2.75 0 0 -2.74 -2.75 0 0 -2.76 -2.75 0 0 -5.5 -2.75 0 0 -2.75 -2.75 0 0 -2.75 -5.5 0 0 -2.75 -2.75 0 0 -2.75 -5.5 0 0 -2.75 -13.75 0 0 2.75 -2.75 0 0 2.75 -2.75 0 0 2.75 -2.75 0 0 5.5 -2.75 0 0 5.5 -2.75 0 0 5.5 -2.75 0 0 5.5 -2.75 0 0 8.25 -2.75 0 0 11 -2.75 0 0 16.5 -2.75 0 0 8.25 -2.75 0 0 19.25 -2.75 0 0 16.5 -2.75 0 0 126.5 2.75 0 0 27.5 2.75 0 0 19.26 2.75 0 0 19.24 2.75 0 0 19.25 2.75 0 0 16.51 2.75 0 0 13.74 2.75 0 0 13.76 2.75 0 0 16.5 2.75 0 0 13.75 2.75 0 0 8.25 2.75 0 0 8.24 2.75 0 0 13.75 2.75 0 0 11.01 2.75 0 0 5.49 2.75 0 0 11.01 2.75 0 0 8.25 2.75 0 0 13.74 2.75 0 0 8.25 2.75 0 0 11.01 2.75 0 0 11 2.75 0 0 16.5 2.75 0 0 44 -2.75 0 0 5.5 -2.75 0 0 5.5 -2.75 0 0 5.5 -2.75 0 0 5.5 -2.75 0 0 2.75 -2.75 0 0 5.5 -5.5 0 0 2.75 -5.5 0 0 2.75 -38.5 0 0 -2.75 -5.5 0 0 -2.75 -8.25 0 0 -2.75 -5.5 0 0 -2.75 -2.75 0 0 -2.75 -5.5 0 0 -2.75 -2.75 0 0 -2.75 -5.5 0 0 -2.75 -2.75 0 0 -2.75 -2.75 0 0 -2.75 -5.5 0 0 -2.75 -2.75 0 0 -2.75 -2.75 0 0 -2.75 -2.75 0 0 -2.75 -2.75 0 0 -2.75 -2.75 0 0 -2.75 -2.75 0 0 -2.75 -2.75 0 0 -2.75 -2.75 0 0 -2.76 -2.75 0 0 -2.74 -2.75 0 0 -5.5 -2.75 0 0 -2.75 -2.75 0 0 -2.75 -2.75 0 0 -2.75 -2.75 0 0 -2.75 -2.75 0 0 -5.51 -2.75 0 0 -2.74 -2.75 0 0 -2.75 -2.75 0 0 -5.5 -2.75 0 0 -2.75 -2.75 0 0 -5.5 -2.75 0 0 -2.75 -2.75 0 0 -2.76 -2.75 0 0 -5.49 -2.75 0 0 -2.75 -2.75 0 0 -5.5 -2.75 0 0 -2.76 -2.75 0 0 -5.49 -2.75 0 0 -5.5 -2.75 0 0 -2.75 -2.75 0 0 -5.5 -2.75 0 0 -2.75 -2.75 0 0 -5.5 -2.75 0 0 -5.5 -2.75 0 0 -5.5 -2.75 0 0 -5.5 -2.75 0 0 -5.51 -2.75 0 0 -2.74 -2.75 0 0 -5.51 -2.75 0 0 -5.49 -2.75 0 0 -8.26 -2.75 0 0 -5.49 -2.75 0 0 -5.51 -2.75 0 0 -5.49 -2.75 0 0 -5.5 -2.75 0 0 -5.51 -2.75 0 0 -5.49 -2.75 0 0 -5.5 -2.75 0 0 -5.51 -2.75 0 0 -5.49 -2.75 0 0 -8.25 -2.75 0 0 -5.5 -2.75 0 0 -5.51 -2.75 0 0 -8.25 -2.75 0 0 -5.5 -2.75 0 0 -8.25 -2.75 0 0 -5.49 -2.75 0 0 -8.25 -2.75 0 0 -8.25 -2.75 0 0 -5.51 -2.75 0 0 -8.25 -2.75 0 0 -10.99 -2.75 0 0 -5.51 -2.75 0 0 -5.5 -2.75 0 0 -11 -2.75 0 0 -10.99 -2.75 0 0 -11.01 -2.75 0 0 -11 -2.75 0 0 -11 -2.75 0 0 -16.5 -2.75 0 0 -11 -2.75 0 0 -16.5 -2.75 0 0 -11 -2.75 0 0 -16.5 -2.75 0 0 -27.5 -2.75 0 0 -22 -2.75 0 0 -13.75 -2.75 0 0 -44 -2.75 0 0 -154 -2.75 0 0 -44 -2.75 0 0 -19.25 -2.75 0 0 -11 -2.75 0 0 -16.5 -2.75 0 0 -8.25 -2.75 0 0 -13.75 -2.75 0 0 -11 -2.75 0 0 -13.75 -2.75 0 0 -8.25 -2.75 0 0 -8.25 -2.75 0 0 -8.25 -2.75 0 0 -5.5 -2.75 0 0 -8.25 -2.75 0 0 -5.5 -2.75 0 0 -8.25 -2.75 0 0 -5.5 -2.75 0 0 -5.5 -2.75 0 0 -5.5 -2.75 0 0 -5.5 -2.75 0 0 -5.5 -2.75 0 0 -8.25 -2.75 0 0 -5.5 -2.75 0 0 -8.25 -2.75 0 0 -5.5 -2.75 0 0 -8.25 -2.75 0 0 -5.5 -2.75 0 0 -8.25 -2.75 0 0 -5.5 -2.75 0 0 -8.25 -2.75 0 0 -5.5 -2.75 0 0 -5.5 -2.75 0 0 -5.5 -2.75 0 0 -11 -2.75 0 0 -5.5 -2.75 0 0 -11 -2.75 0 0 -11 -2.75 0 0 -8.25 -2.75 0 0 -8.25 -2.75 0 0 -16.5 -2.75 0 0 -13.75 -2.75 0 0 -22 -2.75 0 0 -55 2.75 0 0 -8.25 2.75 0 0 -13.75 2.75 0 0 -16.5 2.75 0 0 -5.5 2.75 0 0 -8.25 2.75 0 0 -8.25 2.75 0 0 -5.5 2.75 0 0 -8.25 2.75 0 0 -5.5 2.75 0 0 -5.5 2.75 0 0 -2.75 2.75 0 0 -5.5 2.75 0 0 -5.5 2.75 0 0 -2.75 2.75 0 0 -5.5 2.75 0 0 -2.75 2.75 0 0 -2.75 2.75 0 0 -5.5 2.75 0 0 -2.75 2.75 0 0 -2.75 2.75 0 0 -2.75 2.75 0 0 -5.5 2.75 0 0 -2.75 2.75 0 0 -2.75 2.75 0 0 -2.75 2.75 0 0 -2.75 2.75 0 0 -2.75 2.75 0 0 -2.75 2.75 0 0 -2.75 2.75 0 0 -2.75 2.75 0 0 -2.75 2.75 0 0 -2.75 2.75 0 0 -2.75 2.75 0 0 -2.75 2.75 0 0 -2.75 2.75 0 0 -2.75 2.75 0 0 -2.75 2.75 0 0 -2.75 2.75 0 0 -2.75 2.75 0 0 -2.75 2.75 0 0 -2.75 2.75 0 0 -2.75 5.5 0 0 -2.75 2.75 0 0 -2.75 2.75 0 0 -2.75 2.75 0 0 -2.75 5.5 0 0 -2.75 2.75 0 0 -2.75 5.5 0 0 -2.75 2.75 0 0 -2.75 5.5 0 0 -2.75 2.75 0 0 -2.75 5.5 0 0 -2.75 5.5 0 0 -2.75 5.5 0 0 -2.75 5.5 0 0 -2.75 5.5 0 0 -2.75 8.25 0 0 -2.75 8.25 0 0 -2.75 11 0 0 -2.75 30.25 0 0 2.75 8.25 0 0 2.75 13.75 0 0 2.75 5.5 0 0 2.75 5.5 0 0 2.75 5.5 0 0 2.75 5.5 0 0 2.75 5.5 0 0 2.75 5.5 0 0 2.75 5.5 0 0 2.75 5.5 0 0 2.75 5.5 0 0 2.75 5.5 0 0 2.75 5.5 0 0 2.75 5.5 0 0 2.75 5.5 0 0 2.75 8.25 0 0 2.75 5.5 0 0 2.75 8.25 0 0 2.75 41.25 0 0 -2.75 11 0 0 -2.75 8.25 0 0 -2.75 5.5 0 0 -2.75 8.25 0 0 -2.75 5.5 0 0 -2.75 5.5 0 0 -2.75 8.25 0 0 -2.75 5.5 0 0 -2.75 5.5 0 0 -2.75 5.5 0 0 -2.75 5.5 0 0 -2.75 5.5 0 0 -2.75 5.5 0 0 -2.75 8.25 0 0 -2.75 5.5 0 0 -2.75 5.5 0 0 -2.75 11 0 0 -2.75 5.5 0 0 -2.75 46.75 0 0 2.75z"/>
 </g>
</svg>
