<?xml version="1.0" encoding="UTF-8"?>
<!DOCTYPE svg PUBLIC "-//W3C//DTD SVG 1.1//EN" "http://www.w3.org/Graphics/SVG/1.1/DTD/svg11.dtd">
<!-- Creator: CorelDRAW (Versión de evaluación) -->
<svg xmlns="http://www.w3.org/2000/svg" xml:space="preserve" width="979px" height="2062px" version="1.1" style="shape-rendering:geometricPrecision; text-rendering:geometricPrecision; image-rendering:optimizeQuality; fill-rule:evenodd; clip-rule:evenodd"
viewBox="0 0 979 2063.17"
 xmlns:xlink="http://www.w3.org/1999/xlink"
 xmlns:xodm="http://www.corel.com/coreldraw/odm/2003">
 <defs>
  <style type="text/css">
   <![CDATA[
    .fil4 {fill:#4B4B4D}
    .fil1 {fill:#FFCC29}
    .fil3 {fill:#F7ADAF}
    .fil2 {fill:#F3EDD9}
    .fil0 {fill:#F8FBFF}
   ]]>
  </style>
 </defs>
 <g id="pulpotomy">
  <metadata id="CorelCorpID_0Corel-Layer"/>
  <path id="crown" class="fil0" d="M309.37 1695.4c-38.13,20.58 -83.95,5.44 -115.8,-8.82 -126.18,-56.47 -86.56,-145.23 -59.02,-298.39 13.14,-73.12 27.24,-158.32 75.85,-196.98 72.48,-57.64 157.84,-16.48 209.68,13.64 69.72,40.51 106.14,62.48 216.46,51.64 47.63,-4.68 148.48,-32.23 185.72,0.51 60.84,53.46 103.54,189.93 72.14,274.71 -32.33,87.26 -101.75,101.4 -186.41,104.34 -2.3,-19.54 3.55,-42.4 -2.3,-62.82l-8.14 -14.85c-25.1,52.48 22.01,61.24 -50.39,101.54 -36.78,20.48 -73.95,36.61 -108.79,58.54 -53.22,33.49 -73.23,66.05 -161.43,-1.85 -53.4,-41.11 -45.62,-18.87 -53.18,-74.77 -6.58,-48.72 -5.12,-34.61 -12.26,-39.86 -11.39,30.4 4.61,68.6 -2.13,93.42z"/>
  <g id="_1750352704608">
   <path class="fil1" d="M265 1660.82c-0.35,-2.91 -0.67,-5.46 -0.85,-7.18 -2.35,-23.01 -2.67,-45.25 5.58,-67.3l20.67 -55.18 42.22 31c30.17,11.09 31.47,45.12 35.34,73.71 0.84,6.23 1.47,14.51 2.55,21.65 1.89,1.22 3.79,2.41 5.48,3.54 9.63,6.43 18.98,13.15 28.16,20.22 10.84,8.34 43.76,32.92 59.18,30.31 11.22,-1.9 40.8,-24.27 51.29,-30.87 35.72,-22.49 74.08,-39.3 110.85,-59.76 4.36,-2.43 14.66,-8.3 20.06,-12.88 -0.19,-5.76 -0.99,-12.06 -0.86,-17.91 0.41,-18.08 4.86,-34.74 12.65,-51.02l37.5 -78.43 52.37 95.43 1.38 4.8c2.61,9.12 3.82,18.2 4.23,27.4 44.46,-5.56 80.89,-21.15 99.78,-72.13 23.51,-63.47 -9.56,-181.61 -59.73,-225.7 -8.87,-6.84 -46.44,-4.3 -57.17,-3.23 -31.85,3.15 -63.17,10.47 -94.77,13.58 -46.94,4.61 -94.62,5.17 -140.29,-8.12 -37.37,-10.88 -69.59,-29.95 -102.95,-49.34 -47.4,-27.55 -109.93,-56.72 -159.51,-17.29 -37.58,29.88 -51.34,123.35 -59.72,169.96 -6.22,34.59 -13.85,68.87 -20.16,103.42 -4.17,22.82 -8.49,48.66 -7.32,71.91 2.04,40.76 24.64,58.27 60.83,74.47 13.92,6.23 34.57,14.36 53.21,14.94z"/>
  </g>
  <path id="root" class="fil2" d="M940.11 595.43c18.4,79.49 11.51,166.71 -7.52,233.34 -58.15,203.64 -142.2,243.9 -119.92,392.71 -123.91,-28.58 -229.01,46.69 -345.58,-20.62 -40.99,-23.67 -79.97,-49.92 -134.42,-61.2 -86.4,-17.89 -115.25,20.36 -152.32,46.22 -13.07,-42.78 -17.4,-70.59 -35.83,-109.19 -50.25,-105.22 -102.38,-150.05 -116,-314.4 -6.53,-78.81 7.05,-149.97 24.69,-217.35 7.48,-28.54 48.57,-165.22 73.36,-174.43 48.81,101.81 -40.95,230.23 91.93,478.36 38.96,72.75 83.4,100.64 132.21,148.15 24.86,24.19 45,47.98 68.92,70.31 113.46,105.92 163.04,-37.59 288.83,-177.67 142.57,-158.76 166.14,-204.61 139.54,-436.76l-0.56 -59.14c32.22,28.38 80.15,147.59 92.67,201.67zm-412.56 -286.26c28.94,14.39 73.6,172.35 84.75,212.63 18.22,65.78 65.78,327.48 45.29,381.4 -7.91,20.84 -112.4,141.38 -122.83,151.11 -50.01,46.61 -76.79,14.52 -123.26,-35.22 -65.44,-70.03 -82.81,-58.39 -62.2,-117.73 15.83,-45.59 54.2,-120.49 77.29,-184.94 46.37,-129.43 50.71,-380.27 100.96,-407.25z"/>
  <g id="_1750352702352">
   <path class="fil3" d="M96.07 732.06c0.18,8.12 0.61,16.29 1.29,24.52 4.59,55.33 14.38,105.36 37.99,155.8 21.43,45.78 49.5,88.47 71.5,134.54 5.2,10.89 9.54,21.48 13.36,31.98 33.49,-12.98 68.37,-15.29 103.63,-10.74 -6.99,-7.31 -14.05,-14.56 -21.31,-21.63 -22.93,-22.32 -47.7,-42.58 -70.39,-65.19 -30.26,-30.17 -54.32,-62.12 -74.54,-99.86 -26.76,-49.98 -47.29,-98.98 -61.53,-149.42zm457.16 426.83c24.28,3.53 49.11,1.43 75.58,-1.78 39.65,-4.81 75.68,-10.36 112.36,-11.29 4.04,-43.7 17.33,-83.99 38.8,-129.57 14.15,-30.03 29.58,-59.33 43.27,-89.6 17.22,-38.06 31.45,-76.66 42.93,-116.85 1.09,-3.82 2.13,-7.7 3.11,-11.61 -25.84,40.96 -61.55,84.32 -109.42,137.63 -28.02,31.2 -53.32,64.32 -78.78,97.58 -22.91,29.92 -46.75,61.49 -74.1,87.45 -17.63,16.73 -35.6,29.38 -53.75,38.04zm-14.27 -642.68c-11.31,73.14 -22.61,154.5 -47.34,223.51 -12.68,35.4 -28.01,70 -43.29,104.34 -11.55,25.94 -24.48,53.18 -33.78,79.96 -0.13,0.38 -0.27,0.78 -0.41,1.18 2.12,1.9 4.19,3.72 5.96,5.35 14.47,13.37 28.42,26.98 41.87,41.38 5.52,5.9 17.86,19.93 27.93,29.47 17.62,-18.31 35.49,-40.47 51.65,-59.72 14.69,-17.5 38.43,-44.07 51.38,-64.32 5.17,-33.97 -8.39,-127.37 -13.06,-158.87 -8.46,-57.01 -18.77,-122.74 -34.14,-178.26 -1.68,-6.07 -3.99,-14.33 -6.77,-24.02z"/>
  </g>
  <path id="outline" class="fil4" d="M309.37 1695.4c6.74,-24.82 -9.26,-63.02 2.13,-93.42 7.14,5.25 5.68,-8.86 12.26,39.86 7.56,55.9 -0.22,33.66 53.18,74.77 88.2,67.9 108.21,35.34 161.43,1.85 34.84,-21.93 72.01,-38.06 108.79,-58.54 72.4,-40.3 25.29,-49.06 50.39,-101.54l8.14 14.85c5.85,20.42 0,43.28 2.3,62.82 84.66,-2.94 154.08,-17.08 186.41,-104.34 31.4,-84.78 -11.3,-221.25 -72.14,-274.71 -37.24,-32.74 -138.09,-5.19 -185.72,-0.51 -110.32,10.84 -146.74,-11.13 -216.46,-51.64 -51.84,-30.12 -137.2,-71.28 -209.68,-13.64 -48.61,38.66 -62.71,123.86 -75.85,196.98 -27.54,153.16 -67.16,241.92 59.02,298.39 31.85,14.26 77.67,29.4 115.8,8.82zm218.18 -1386.23c-50.25,26.98 -54.59,277.82 -100.96,407.25 -23.09,64.45 -61.46,139.35 -77.29,184.94 -20.61,59.34 -3.24,47.7 62.2,117.73 46.47,49.74 73.25,81.83 123.26,35.22 10.43,-9.73 114.92,-130.27 122.83,-151.11 20.49,-53.92 -27.07,-315.62 -45.29,-381.4 -11.15,-40.28 -55.81,-198.24 -84.75,-212.63zm-400.98 61.34c-24.79,9.21 -65.88,145.89 -73.36,174.43 -17.64,67.38 -31.22,138.54 -24.69,217.35 13.62,164.35 65.75,209.18 116,314.4 18.43,38.6 22.76,66.41 35.83,109.19 37.07,-25.86 65.92,-64.11 152.32,-46.22 54.45,11.28 93.43,37.53 134.42,61.2 116.57,67.31 221.67,-7.96 345.58,20.62 -22.28,-148.81 61.77,-189.07 119.92,-392.71 19.03,-66.63 25.92,-153.85 7.52,-233.34 -12.52,-54.08 -60.45,-173.29 -92.67,-201.67l0.56 59.14c26.6,232.15 3.03,278 -139.54,436.76 -125.79,140.08 -175.37,283.59 -288.83,177.67 -23.92,-22.33 -44.06,-46.12 -68.92,-70.31 -48.81,-47.51 -93.25,-75.4 -132.21,-148.15 -132.88,-248.13 -43.12,-376.55 -91.93,-478.36zm559.41 503.35c12.97,-9.63 9.63,-10.45 20.1,-22.68l41.45 -46.33c71.15,-101.24 92.92,-134.91 80.12,-289.84 -3.87,-46.76 -26.13,-120.81 2.76,-151.28 42.05,-10.17 63.87,50.06 81.71,81.9 99.97,178.4 75.05,343.02 2.16,516.49 -32.46,77.24 -84.79,138.66 -79.92,230.09 3.07,57.49 36.37,69.37 59.62,116.65 46.55,94.64 51.54,190.01 7.61,268.59 -32.86,58.8 -97.36,86.96 -169.29,86.15 -43.31,-0.49 -29.05,-3.82 -63.14,16.38 -36.81,21.81 -76.39,38.27 -112.54,59.54 -63.82,37.54 -91.36,79.87 -195.47,-1.81 -45.55,-35.74 -31.91,-7.53 -92.23,-4.73 -23.21,1.08 -44.5,-5.72 -64.07,-12.21 -169.16,-56.11 -126.4,-178.1 -98.47,-324 8.89,-46.45 13.24,-83.52 27.37,-126.54 18.35,-55.88 31.05,-60.46 5.82,-132.62 -36.27,-103.75 -132.37,-198.55 -139.93,-392.95 -4.43,-113.65 36.04,-272.09 87.37,-369.31 22.64,-42.89 62.53,-61.46 74.43,26.39 17.22,127.15 -0.67,213.28 26.45,306.55 14.62,50.3 50.83,134.23 86.14,174.46 10.67,12.16 28.25,36.36 40.32,42.79 3.05,-6.38 11.52,-50.06 37.84,-102.68 107.06,-214.01 70.26,-320.94 126.4,-486.59 22.62,-66.74 65.11,-79.54 97.44,-7.01 73.42,164.78 108.57,366.93 109.95,544.6z"/>
 </g>
</svg>
