<?xml version="1.0" encoding="UTF-8"?>
<!DOCTYPE svg PUBLIC "-//W3C//DTD SVG 1.1//EN" "http://www.w3.org/Graphics/SVG/1.1/DTD/svg11.dtd">
<!-- Creator: CorelDRAW (Versión de evaluación) -->
<svg xmlns="http://www.w3.org/2000/svg" xml:space="preserve" width="1184px" height="2052px" version="1.1" style="shape-rendering:geometricPrecision; text-rendering:geometricPrecision; image-rendering:optimizeQuality; fill-rule:evenodd; clip-rule:evenodd"
viewBox="0 0 1184 2052.34"
 xmlns:xlink="http://www.w3.org/1999/xlink"
 xmlns:xodm="http://www.corel.com/coreldraw/odm/2003">
 <defs>
  <style type="text/css">
   <![CDATA[
    .fil4 {fill:#4B4B4D}
    .fil1 {fill:#FFCC29}
    .fil3 {fill:#F7ADAF}
    .fil2 {fill:#F3EDD9}
    .fil0 {fill:#F8FBFF}
   ]]>
  </style>
 </defs>
 <g id="pulpotomy">
  <metadata id="CorelCorpID_0Corel-Layer"/>
  <path id="crown" class="fil0" d="M354.6 561.46c-20.27,-29.92 -1.49,-98.55 3.03,-135.07 -55.65,-22.92 -155.55,-170.48 -202.57,25.14 -36.28,150.93 -21.35,352.26 146.27,388.51 54.97,11.89 119.74,4.24 178.17,10.03 129.29,12.82 302.53,115.76 465.54,12.19 59.59,-37.86 132.14,-143.44 164.56,-210.58 18.54,-38.38 39.17,-100.81 43.23,-149.04 7.46,-88.69 -4.09,-89.05 -69.44,-119.03 -37.22,-17.07 -106.64,-67.74 -125.54,-63.44 -4.92,1.12 -89.71,50.9 -123.51,64.66 -57.45,23.38 -50.13,7.57 -60.69,81.59 -4.27,29.96 -2.73,29.58 -13.37,36.53 -17.02,-28.88 3.26,-67.85 -1.39,-95.87 -2.64,-15.91 -48.38,-45.46 -57.57,-49.8 -8.47,-4 -40.72,-9.38 -81.31,-27.15 -85.62,-37.48 -83.28,-41.28 -205.73,72.21 -49.8,46.15 -25.34,7.19 -43.18,119.14 -6.82,42.83 -5.56,33.92 -16.5,39.98z"/>
  <g id="_1750288615632">
   <path class="fil1" d="M297.59 454.02c-10.96,-8.14 -21.52,-16.84 -31.8,-24.65 -6.52,-4.96 -25.08,-18.71 -35.15,-22.03 -9.67,11.32 -19.33,46.19 -21.95,57.08 -25.44,105.82 -32.77,292.07 104.29,321.71 24.57,5.31 51.6,5.81 76.68,6.06 31.8,0.31 63.59,-0.15 95.29,2.99 143.04,14.19 291.06,109.13 430.51,20.53 51.29,-32.59 118.05,-133.29 144.47,-188.01 17.33,-35.87 34.59,-89.8 37.94,-129.68 0.72,-8.55 3.05,-34.74 1.24,-45.77 -8.8,-5.86 -31.08,-15.01 -38.71,-18.51 -22,-10.09 -43.63,-23.9 -64.46,-36.32 -7.63,-4.55 -20.97,-12.94 -32.03,-18.49 -12.06,6.57 -24.22,13.78 -35.86,20.15 -23.21,12.69 -48.48,26.88 -72.92,36.83 -7,2.85 -15.36,5.56 -23.13,8.44 -1.57,10.08 -2.59,21.77 -3.75,29.85 -4.87,34.17 -6.04,54.17 -37.8,74.93l-48.36 31.58 -29.32 -49.75c-14.98,-25.41 -16.56,-52.6 -12.81,-81.19 0.77,-5.91 2.9,-16.09 3.94,-24.37 -7.68,-6.4 -18.9,-14.05 -25.26,-17.71 -8.18,-2.64 -17.33,-4.67 -25.58,-7.1 -18.81,-5.54 -37.2,-12.07 -55.17,-19.94 -7.21,-3.15 -41.57,-19.13 -48.8,-18.92 -14.68,2.58 -85.56,70.16 -97.32,81.06 -5.67,5.25 -12.02,10.43 -17.99,15.67 -0.26,4.21 -0.45,8.48 -0.79,12.45 -1.67,19.84 -4.29,39.58 -7.42,59.24 -5.59,35.09 -7.94,64.52 -45.42,80.2l-42.93 23.77 -28.28 -41.72c-27.42,-40.47 -19.23,-91.34 -11.35,-138.38z"/>
  </g>
  <path id="root" class="fil2" d="M31.36 1618.95c50.74,-18.93 53.03,-148.52 156.06,-259.66 34.49,-37.2 119.11,-150.57 149.58,-192.16 63.55,-86.7 156.53,-182.12 285.88,-174.33 46.39,2.79 82.17,17.58 114.9,36.45 151.82,87.54 175.79,252.83 245.9,362.74 136.65,214.23 76.45,295.61 105.9,358.47 10.82,-6.12 8.26,-2.92 16.32,-18.73 31.32,-61.36 44.12,-130.43 43.47,-199.7 -1.6,-171.13 -64.25,-283.32 -127.15,-428.65 -52.21,-120.65 -28.27,-141.43 -33.67,-236.29 -51.05,27.9 -77.54,54.52 -152.51,65.7 -69.78,10.41 -135.72,0.38 -201.77,-16.86 -69.13,-18.05 -105.46,-35.38 -184.81,-40.27 -92.09,-5.68 -115.85,4.75 -202.65,-23.22 15.3,140.54 -75.31,225.72 -142.95,352.54 -29.4,55.13 -53.63,115.19 -58.78,185.71 -2.8,38.34 -19.14,208.48 -13.72,228.26z"/>
  <g id="_1750288615584">
   <path class="fil3" d="M1080.02 1437.59c-18.85,-109.96 -66.27,-200.48 -113.68,-310.03 -20.98,-48.47 -37.34,-96.5 -39.36,-149.69 -0.09,-2.37 -0.15,-4.72 -0.2,-7.08 -26.16,10.98 -52.84,17.91 -81.76,22.23 -14.89,2.22 -29.65,3.64 -44.29,4.34 64,45.52 108.29,105.61 144.86,177.16 30.41,59.51 53.95,129.12 89.42,184.72 16.22,25.42 31.45,51.51 45.01,78.35zm-565.42 -491.14c-21.36,-4.82 -43.62,-8.46 -68.89,-10.02 -34.45,-2.12 -68.73,-1.3 -102.99,-3.23 -12.45,-0.7 -24.47,-1.97 -36.27,-3.74 -15.94,115.22 -91.15,195.96 -148.86,304.17 -21.06,39.48 -37.88,79.32 -46.44,122.27 9.71,-13.02 20.19,-25.68 31.62,-38.01 25.35,-27.34 49.88,-60.41 72.62,-90.08 24.49,-31.95 48.7,-64.2 72.5,-96.67 59.14,-80.69 133.76,-154.13 226.71,-184.69z"/>
  </g>
  <path id="outline" class="fil4" d="M31.36 1618.95c-5.42,-19.78 10.92,-189.92 13.72,-228.26 5.15,-70.52 29.38,-130.58 58.78,-185.71 67.64,-126.82 158.25,-212 142.95,-352.54 86.8,27.97 110.56,17.54 202.65,23.22 79.35,4.89 115.68,22.22 184.81,40.27 66.05,17.24 131.99,27.27 201.77,16.86 74.97,-11.18 101.46,-37.8 152.51,-65.7 5.4,94.86 -18.54,115.64 33.67,236.29 62.9,145.33 125.55,257.52 127.15,428.65 0.65,69.27 -12.15,138.34 -43.47,199.7 -8.06,15.81 -5.5,12.61 -16.32,18.73 -29.45,-62.86 30.75,-144.24 -105.9,-358.47 -70.11,-109.91 -94.08,-275.2 -245.9,-362.74 -32.73,-18.87 -68.51,-33.66 -114.9,-36.45 -129.35,-7.79 -222.33,87.63 -285.88,174.33 -30.47,41.59 -115.09,154.96 -149.58,192.16 -103.03,111.14 -105.32,240.73 -156.06,259.66zm323.24 -1057.49c10.94,-6.06 9.68,2.85 16.5,-39.98 17.84,-111.95 -6.62,-72.99 43.18,-119.14 122.45,-113.49 120.11,-109.69 205.73,-72.21 40.59,17.77 72.84,23.15 81.31,27.15 9.19,4.34 54.93,33.89 57.57,49.8 4.65,28.02 -15.63,66.99 1.39,95.87 10.64,-6.95 9.1,-6.57 13.37,-36.53 10.56,-74.02 3.24,-58.21 60.69,-81.59 33.8,-13.76 118.59,-63.54 123.51,-64.66 18.9,-4.3 88.32,46.37 125.54,63.44 65.35,29.98 76.9,30.34 69.44,119.03 -4.06,48.23 -24.69,110.66 -43.23,149.04 -32.42,67.14 -104.97,172.72 -164.56,210.58 -163.01,103.57 -336.25,0.63 -465.54,-12.19 -58.43,-5.79 -123.2,1.86 -178.17,-10.03 -167.62,-36.25 -182.55,-237.58 -146.27,-388.51 47.02,-195.62 146.92,-48.06 202.57,-25.14 -4.52,36.52 -23.3,105.15 -3.03,135.07zm178.72 -282.35c-32.5,10.44 -82.05,48.61 -104.57,71.02 -95.96,95.49 -69.28,12.33 -172.64,-22.85 -139.02,-47.31 -148.41,231.78 -143.27,317.07 4.1,67.95 36.13,115.33 73.36,161.23 19.83,24.46 37.18,31.89 36.96,80.31 -0.61,129.15 -132.45,238.35 -184.63,399.51 -22.23,68.63 -23.02,129.26 -28.43,204.91 -2.2,30.81 -12.1,82.59 -10.48,108.66 2.43,39.02 31.13,60.69 60.85,33.6 38.24,-34.86 52.98,-100.21 79.34,-154.34 33.03,-67.83 99.88,-132.15 149.35,-200.63 52.97,-73.34 93.11,-128.97 158.44,-191.56 30.8,-29.51 104.93,-66.87 166.54,-65.64 72.1,1.44 125.62,40.14 163.26,73.45 85.48,75.67 112.49,181.86 172.66,294.33 26.81,50.11 60.79,94.04 79.2,154.02 40.87,133.18 15.94,129.39 30.43,203.04 18.23,92.68 138.7,-19.13 113.11,-279.81 -24.43,-248.82 -165.07,-361.27 -159.46,-542 2.7,-87.04 18.31,-106.67 65.97,-168.68 32.94,-42.86 60.48,-92.88 80.86,-152.5 15.93,-46.61 38.83,-158.74 8.14,-199.29 -16.75,-22.14 -114.48,-65.06 -147.53,-86.12 -76.39,-48.69 -58.59,-26.13 -155.96,23.33 -100.14,50.88 -93.56,32.58 -116.13,15.44 -51.72,-39.28 -62.1,-29.53 -121.7,-53.4 -27.27,-10.92 -62.46,-33.13 -93.67,-23.1z"/>
 </g>
</svg>
