<!-- Creator: CorelDRAW (Versión de evaluación) -->
<svg xmlns="http://www.w3.org/2000/svg" xml:space="preserve" width="50.076mm" height="173.699mm" version="1.1" style="shape-rendering:geometricPrecision; text-rendering:geometricPrecision; image-rendering:optimizeQuality; fill-rule:evenodd; clip-rule:evenodd"
viewBox="0 0 5007.6 17369.86"
 xmlns:xlink="http://www.w3.org/1999/xlink"
 xmlns:xodm="http://www.corel.com/coreldraw/odm/2003">
 <defs>
  <style type="text/css">
   <![CDATA[
    .fil2 {fill:#4B4B4D}
    .fil3 {fill:#FFCC29}
    .fil4 {fill:#F48884}
    .fil1 {fill:#F4EDDA}
    .fil0 {fill:#F8F9FD}
   ]]>
  </style>
 </defs>
 <g id="deciduous" visibility="hidden">
  <metadata id="CorelCorpID_0Corel-Layer"/>
  <path id="crown" class="fil0" d="M2184.1 12129.51c380.7,-0.63 204.56,-11.85 394.28,54.92 68.75,24.19 47.4,8.36 116.01,43.01 369.15,186.39 525.52,275.99 811.09,574.88 24.77,25.92 51.46,51.51 75.96,78.53 117.13,129.11 381.56,472.43 461.5,630.5 37.67,74.49 29.74,48.84 60.11,95.89l125.57 236.18c2.27,4.48 5.38,9.85 7.83,14.14l113.29 201.42c141.01,217.82 87.7,186.44 130.26,273.85 41.65,85.52 20.27,-13.27 61.94,98.9l83.76 229.27c46.06,251.09 53.33,67.15 82.22,232.19 43.52,248.58 62.48,580.17 -21.72,802.64 -50.52,133.52 -125.19,258.83 -196.22,361.29 -126.63,182.68 -396.61,404.34 -578.35,560.2l-518.72 361.06c-4.35,2.19 -10.02,4.2 -14.45,6.31 -31.99,15.24 1.71,-4.51 -29.8,11.73 -46.28,23.86 -7.25,-0.29 -37.41,23.8 -141.61,113.15 -203.88,169.54 -385.56,129.53 -92.01,-20.26 -42.96,9.41 -120.14,-37.09 -185.32,-111.68 -487.48,-431.58 -667.34,-568.67 -457.17,-348.47 -1226.29,-630.2 -1552.27,-899.78 -216.94,-179.4 -175.09,-180.06 -275.58,-346.41 -129.84,-214.92 -65.32,-575.32 -44.48,-802.74l61.01 -345.95c22.13,-68.81 25.8,-40.9 39.7,-97.81 13.04,-53.42 0.23,-62.03 19.1,-120.94 18.21,-56.84 19.98,-25.17 41.35,-100.94 40.7,-144.27 69.98,-310.44 126.03,-429.03 37.21,-78.76 139.46,-448.8 244.7,-591.66l253.69 -312.7c69.99,-74.07 409.08,-271.23 566.16,-299.66 144.14,-26.09 34.46,-5.72 101.78,-42.72 51.84,-28.49 48.32,-22.91 124.13,-24.8l340.57 0.66z"/>
  <path id="root" class="fil1" d="M3349.66 12330.44c-113.24,-23.35 -58.84,-37.48 -141.33,-83.11 -71.88,-39.78 -61.62,-6.19 -153.74,-65.78l-335.01 -166.68c-100.32,-28.09 83.15,19.19 -36.56,-5.65 -33.51,-6.95 -8.37,5.2 -52.61,-10.84 -122.47,-44.36 -20.32,-55.75 -207.68,-54.91 -266.67,1.21 -262.8,-131.45 -510.31,-21.38 -138.54,61.61 -239.22,-29.21 -364.79,58.55 -109.15,76.28 -40.2,5.07 -127.43,36.89l-509.08 281.23c-0.36,-2.31 10.82,-460.82 16.04,-499.8 13.64,-101.77 17.03,1.04 31.63,-111.33 19.68,-151.55 -52.08,-208.46 15.33,-375.53 39.88,-98.86 4.81,-163.64 4.98,-279.22 0.2,-142.7 51.57,-24.37 44.38,-210.34 -7.03,-181.88 -12.69,-93.83 25.99,-242.65 23.51,-90.46 -18.22,-181.45 1.07,-255.08 24.52,-93.54 53.87,37.95 35.74,-246 -9.87,-154.8 35.74,-72.02 41.76,-210.02 6.73,-153.88 -26.89,-102.94 20.86,-250.27 34.66,-106.93 -8.53,-155.55 9.09,-248.19 17.82,-93.73 41.6,21.21 36.01,-243.49 -3.16,-149.59 43.14,-51.13 45.98,-211.18 4.72,-265.16 -7.9,-70.86 33.94,-228.86 29.89,-112.89 -27.47,-27.51 30.71,-229.52 37.01,-128.51 -25.89,-34.05 41.32,-235.93 32.52,-97.66 -9.76,-118.14 30.17,-226.69l194.92 -1004.22c58.81,-247.44 64.45,-474.97 160.81,-770.5l101.91 -434.3c26.35,-71.36 37.98,-135.77 65.15,-212.5 14.45,-40.8 20.08,-53.04 34.57,-104.47l35.81 -86.75c100.13,-150.72 -13.7,-179.5 296.61,-238.17 41.67,48.94 42.7,27.55 67.59,63.39l16.1 29.46c2.52,5.03 4.06,11.22 6.43,16.39 13.76,30.05 -4.97,2.67 19.9,47.93 24.6,44.79 8.05,11.74 28.2,39.87 2.91,4.05 7.26,8.82 10.17,12.86 62.95,87.37 85.22,110.16 100,194.7 51.14,292.47 61.83,37.55 91.04,295.93 50.83,449.71 69.76,188.16 99.61,423.88 18.9,149.3 27.53,315.28 42.69,467.44 123.59,1240.54 204.97,2556.06 321.7,3813.55l79.16 705.27c36.68,91.49 46.92,25.95 66.41,161.79 27.54,192.02 29.2,287.16 76.79,465.93 34.59,129.99 58.97,300.47 57.97,448.3z"/>
  <path id="outline" class="fil2" d="M2184.1 12129.51l-340.57 -0.66c-75.81,1.89 -72.29,-3.69 -124.13,24.8 -67.32,37 42.36,16.63 -101.78,42.72 -157.08,28.43 -496.17,225.59 -566.16,299.66l-253.69 312.7c-105.24,142.86 -207.49,512.9 -244.7,591.66 -56.05,118.59 -85.33,284.76 -126.03,429.03 -21.37,75.77 -23.14,44.1 -41.35,100.94 -18.87,58.91 -6.06,67.52 -19.1,120.94 -13.9,56.91 -17.57,29 -39.7,97.81l-61.01 345.95c-20.84,227.42 -85.36,587.82 44.48,802.74 100.49,166.35 58.64,167.01 275.58,346.41 325.98,269.58 1095.1,551.31 1552.27,899.78 179.86,137.09 482.02,456.99 667.34,568.67 77.18,46.5 28.13,16.83 120.14,37.09 181.68,40.01 243.95,-16.38 385.56,-129.53 30.16,-24.09 -8.87,0.06 37.41,-23.8 31.51,-16.24 -2.19,3.51 29.8,-11.73 4.43,-2.11 10.1,-4.12 14.45,-6.31l518.72 -361.06c181.74,-155.86 451.72,-377.52 578.35,-560.2 71.03,-102.46 145.7,-227.77 196.22,-361.29 84.2,-222.47 65.24,-554.06 21.72,-802.64 -28.89,-165.04 -36.16,18.9 -82.22,-232.19l-83.76 -229.27c-41.67,-112.17 -20.29,-13.38 -61.94,-98.9 -42.56,-87.41 10.75,-56.03 -130.26,-273.85l-113.29 -201.42c-2.45,-4.29 -5.56,-9.66 -7.83,-14.14l-125.57 -236.18c-30.37,-47.05 -22.44,-21.4 -60.11,-95.89 -79.94,-158.07 -344.37,-501.39 -461.5,-630.5 -24.5,-27.02 -51.19,-52.61 -75.96,-78.53 -285.57,-298.89 -441.94,-388.49 -811.09,-574.88 -68.61,-34.65 -47.26,-18.82 -116.01,-43.01 -189.72,-66.77 -13.58,-55.55 -394.28,-54.92zm1165.56 200.93c1,-147.83 -23.38,-318.31 -57.97,-448.3 -47.59,-178.77 -49.25,-273.91 -76.79,-465.93 -19.49,-135.84 -29.73,-70.3 -66.41,-161.79l-79.16 -705.27c-116.73,-1257.49 -198.11,-2573.01 -321.7,-3813.55 -15.16,-152.16 -23.79,-318.14 -42.69,-467.44 -29.85,-235.72 -48.78,25.83 -99.61,-423.88 -29.21,-258.38 -39.9,-3.46 -91.04,-295.93 -14.78,-84.54 -37.05,-107.33 -100,-194.7 -2.91,-4.04 -7.26,-8.81 -10.17,-12.86 -20.15,-28.13 -3.6,4.92 -28.2,-39.87 -24.87,-45.26 -6.14,-17.88 -19.9,-47.93 -2.37,-5.17 -3.91,-11.36 -6.43,-16.39l-16.1 -29.46c-24.89,-35.84 -25.92,-14.45 -67.59,-63.39 -310.31,58.67 -196.48,87.45 -296.61,238.17l-35.81 86.75c-14.49,51.43 -20.12,63.67 -34.57,104.47 -27.17,76.73 -38.8,141.14 -65.15,212.5l-101.91 434.3c-96.36,295.53 -102,523.06 -160.81,770.5l-194.92 1004.22c-39.93,108.55 2.35,129.03 -30.17,226.69 -67.21,201.88 -4.31,107.42 -41.32,235.93 -58.18,202.01 -0.82,116.63 -30.71,229.52 -41.84,158 -29.22,-36.3 -33.94,228.86 -2.84,160.05 -49.14,61.59 -45.98,211.18 5.59,264.7 -18.19,149.76 -36.01,243.49 -17.62,92.64 25.57,141.26 -9.09,248.19 -47.75,147.33 -14.13,96.39 -20.86,250.27 -6.02,138 -51.63,55.22 -41.76,210.02 18.13,283.95 -11.22,152.46 -35.74,246 -19.29,73.63 22.44,164.62 -1.07,255.08 -38.68,148.82 -33.02,60.77 -25.99,242.65 7.19,185.97 -44.18,67.64 -44.38,210.34 -0.17,115.58 34.9,180.36 -4.98,279.22 -67.41,167.07 4.35,223.98 -15.33,375.53 -14.6,112.37 -17.99,9.56 -31.63,111.33 -5.22,38.98 -16.4,497.49 -16.04,499.8l509.08 -281.23c87.23,-31.82 18.28,39.39 127.43,-36.89 125.57,-87.76 226.25,3.06 364.79,-58.55 247.51,-110.07 243.64,22.59 510.31,21.38 187.36,-0.84 85.21,10.55 207.68,54.91 44.24,16.04 19.1,3.89 52.61,10.84 119.71,24.84 -63.76,-22.44 36.56,5.65l335.01 166.68c92.12,59.59 81.86,26 153.74,65.78 82.49,45.63 28.09,59.76 141.33,83.11zm-213.83 -3793.64c60.36,704.63 98.86,1463.13 188.72,2161.03 19.45,151.1 31,388.24 60.35,523.17 33.29,153.02 74.45,338.04 100.41,493.79 23.57,141.36 20.71,409.54 72.46,526.96 77.55,175.95 16.31,275.22 150.39,431.54l747.75 1107.8c56.17,85.97 89.13,206.02 149.29,299.94l265.83 585.04c41.57,136.07 -8.17,102.34 64.96,232.74 47.65,84.95 80.61,412.25 55.21,511.95 -17.78,69.77 -15.23,-34.14 -29.91,98.87 -5.82,52.85 10.09,74.61 -5.71,123.39 -24.89,76.84 -19.5,12.65 -42.06,76.5 -21.5,60.87 -1.23,64.61 -24.37,115.27 -32.74,71.63 -9.08,-15.18 -50.15,64.13 -35.25,68.07 -23.33,109.27 -78.08,165.43 -103.05,105.71 -200.57,263.2 -296.18,371.16l-269.33 239.02c-56.05,51.08 -83.35,78.79 -134.77,128.66l-389.99 302.16c-4.28,2.31 -9.68,4.71 -14.01,7.04l-27.96 15.12c-4.37,2.47 -9.42,5.47 -13.72,8l-72.97 49.64c-93.66,69.48 -392.58,186.02 -506.01,188.1 -128.6,2.37 -158.2,2.34 -246.49,-46.51 -98.43,-54.46 -137.32,-54.79 -226.58,-126.31l-729.77 -611.49c-112.44,-70.43 -256.4,-135.4 -374.93,-197.25l-550.32 -280.73c-117.25,-58.67 -395.89,-232.9 -496.36,-334.13l-320.3 -418.3c-16.01,-44.28 -9.46,-93.7 -20.99,-140.71 -27.64,-112.68 -60.19,-41.36 -74.93,-214.72 -12.76,-150.18 20.04,-109.06 38.39,-197.08 15.9,-76.3 -14.5,-188.95 -11.94,-269.82 5.58,-177.25 69,24.14 54.39,-210.83 -13.32,-214.43 24.13,-56.03 43.59,-195.92 7.13,-51.35 -7.72,-55.68 4.41,-115.6 19.74,-97.54 73.77,-183.02 93.33,-283.4 4.92,-25.26 0,-21.44 8.46,-53.58 13.87,-52.72 -0.88,2.01 16.92,-43.26 29.21,-74.29 21.83,-137.16 54.29,-205.7l176.76 -459.78c46.59,-99.12 137.03,-289.31 167.36,-415.01 27.66,-114.64 68.24,-231.91 61.19,-388.12 -7.5,-166.44 33.35,-104.88 36.49,-212.53 2.82,-97.09 -25.15,-168.37 -2.14,-262.85 25.61,-105.19 26.48,-339.99 41.57,-444.09 10.93,-75.35 -1.8,-172.75 4.54,-249 9.03,-108.55 27.2,-98.09 28.53,-228.13 0.53,-50.86 3.07,-201.54 12.18,-248.82 10.83,-56.18 23.1,-48.53 29.92,-82.36 9.98,-49.54 -2.7,-82.68 -4.75,-136.05 -6.4,-166.88 40.57,-72.61 37.68,-231.59 -2.79,-154.11 -29.31,-113.66 18.36,-235.61 39.94,-102.18 4.37,-120.78 6.41,-231.84 2.49,-136.03 50.7,-36.41 46.97,-210.21 -5.3,-247.09 -1.1,-116.78 29.77,-222.34 23.91,-81.74 -16.88,-150.93 15.21,-243.76 48.38,-139.97 12.07,-84.73 22.87,-232.41 8.69,-118.81 47.35,-16.57 46.48,-212.77 -0.76,-170.76 46.57,-40.25 47.15,-211.67 0.71,-207.31 1.04,-81.86 30.51,-217.61 29.09,-133.95 13.94,-300.15 54.82,-441.45 117.72,-406.86 159.77,-836.57 260.77,-1251.85 68.69,-282.39 88.46,-549.19 197.63,-818.25 30.81,-75.93 18.43,-114.53 66.1,-192.88l172.08 -272.38c56.8,-54.64 123.96,-114.66 217.51,-127.82 300.05,-42.21 367.26,142.85 490.22,342.26 179.09,290.42 269.75,842.94 317.5,1160.18 142.89,949.45 131.31,1190.8 208.99,2097.63z"/>
 </g>
 <g id="pulpotomy">
  <metadata id="CorelCorpID_1Corel-Layer"/>
  <path id="crown_1466" class="fil0" d="M2184.1 12129.51c380.7,-0.63 204.56,-11.85 394.28,54.92 68.75,24.19 47.4,8.36 116.01,43.01 369.15,186.39 525.52,275.99 811.09,574.88 24.77,25.92 51.46,51.51 75.96,78.53 117.13,129.11 381.56,472.43 461.5,630.5 37.67,74.49 29.74,48.84 60.11,95.89l125.57 236.18c2.27,4.48 5.38,9.85 7.83,14.14l113.29 201.42c141.01,217.82 87.7,186.44 130.26,273.85 41.65,85.52 20.27,-13.27 61.94,98.9l83.76 229.27c46.06,251.09 53.33,67.15 82.22,232.19 43.52,248.58 62.48,580.17 -21.72,802.64 -50.52,133.52 -125.19,258.83 -196.22,361.29 -126.63,182.68 -396.61,404.34 -578.35,560.2l-518.72 361.06c-4.35,2.19 -10.02,4.2 -14.45,6.31 -31.99,15.24 1.71,-4.51 -29.8,11.73 -46.28,23.86 -7.25,-0.29 -37.41,23.8 -141.61,113.15 -203.88,169.54 -385.56,129.53 -92.01,-20.26 -42.96,9.41 -120.14,-37.09 -185.32,-111.68 -487.48,-431.58 -667.34,-568.67 -457.17,-348.47 -1226.29,-630.2 -1552.27,-899.78 -216.94,-179.4 -175.09,-180.06 -275.58,-346.41 -129.84,-214.92 -65.32,-575.32 -44.48,-802.74l61.01 -345.95c22.13,-68.81 25.8,-40.9 39.7,-97.81 13.04,-53.42 0.23,-62.03 19.1,-120.94 18.21,-56.84 19.98,-25.17 41.35,-100.94 40.7,-144.27 69.98,-310.44 126.03,-429.03 37.21,-78.76 139.46,-448.8 244.7,-591.66l253.69 -312.7c69.99,-74.07 409.08,-271.23 566.16,-299.66 144.14,-26.09 34.46,-5.72 101.78,-42.72 51.84,-28.49 48.32,-22.91 124.13,-24.8l340.57 0.66z"/>
  <rect class="fil3" x="1454.58" y="11495.03" width="1254.38" height="3306.6"/>
  <path id="root_1467" class="fil1" d="M3349.66 12330.44c-113.24,-23.35 -58.84,-37.48 -141.33,-83.11 -71.88,-39.78 -61.62,-6.19 -153.74,-65.78l-335.01 -166.68c-100.32,-28.09 83.15,19.19 -36.56,-5.65 -33.51,-6.95 -8.37,5.2 -52.61,-10.84 -122.47,-44.36 -20.32,-55.75 -207.68,-54.91 -266.67,1.21 -262.8,-131.45 -510.31,-21.38 -138.54,61.61 -239.22,-29.21 -364.79,58.55 -109.15,76.28 -40.2,5.07 -127.43,36.89l-509.08 281.23c-0.36,-2.31 10.82,-460.82 16.04,-499.8 13.64,-101.77 17.03,1.04 31.63,-111.33 19.68,-151.55 -52.08,-208.46 15.33,-375.53 39.88,-98.86 4.81,-163.64 4.98,-279.22 0.2,-142.7 51.57,-24.37 44.38,-210.34 -7.03,-181.88 -12.69,-93.83 25.99,-242.65 23.51,-90.46 -18.22,-181.45 1.07,-255.08 24.52,-93.54 53.87,37.95 35.74,-246 -9.87,-154.8 35.74,-72.02 41.76,-210.02 6.73,-153.88 -26.89,-102.94 20.86,-250.27 34.66,-106.93 -8.53,-155.55 9.09,-248.19 17.82,-93.73 41.6,21.21 36.01,-243.49 -3.16,-149.59 43.14,-51.13 45.98,-211.18 4.72,-265.16 -7.9,-70.86 33.94,-228.86 29.89,-112.89 -27.47,-27.51 30.71,-229.52 37.01,-128.51 -25.89,-34.05 41.32,-235.93 32.52,-97.66 -9.76,-118.14 30.17,-226.69l194.92 -1004.22c58.81,-247.44 64.45,-474.97 160.81,-770.5l101.91 -434.3c26.35,-71.36 37.98,-135.77 65.15,-212.5 14.45,-40.8 20.08,-53.04 34.57,-104.47l35.81 -86.75c100.13,-150.72 -13.7,-179.5 296.61,-238.17 41.67,48.94 42.7,27.55 67.59,63.39l16.1 29.46c2.52,5.03 4.06,11.22 6.43,16.39 13.76,30.05 -4.97,2.67 19.9,47.93 24.6,44.79 8.05,11.74 28.2,39.87 2.91,4.05 7.26,8.82 10.17,12.86 62.95,87.37 85.22,110.16 100,194.7 51.14,292.47 61.83,37.55 91.04,295.93 50.83,449.71 69.76,188.16 99.61,423.88 18.9,149.3 27.53,315.28 42.69,467.44 123.59,1240.54 204.97,2556.06 321.7,3813.55l79.16 705.27c36.68,91.49 46.92,25.95 66.41,161.79 27.54,192.02 29.2,287.16 76.79,465.93 34.59,129.99 58.97,300.47 57.97,448.3z"/>
  <g id="_2387837318048">
   <path class="fil4" d="M2597.08 11388.78l-87.8 -782.21 -0.5 -5.39c-117.8,-1268.97 -195,-2541.64 -321.34,-3809.77 -0.98,-9.9 -1.94,-19.82 -2.86,-29.73 -19.23,115.82 -36.47,232.24 -62.96,346.65l-200.01 1030.47c-0.09,89.92 -10.75,167.93 -41.51,260.33 -0.74,71.18 -13.29,140.31 -34.5,213.95 2.33,72.35 -7.75,143.35 -27.48,217.82 -4.57,17.27 -9.45,34.23 -14.69,50.85 -0.14,14.64 -0.32,29.28 -0.58,43.92 -1.72,96.9 -14.49,185.73 -45.05,269.15 -0.07,101.57 -6.6,195.95 -35.05,286.02 5.92,100.33 -0.12,185.92 -32.5,292.71 1.93,39.38 2.02,78.42 0.21,119.81 -3.46,79.3 -15.16,152.33 -38.55,221.89 4.85,122.81 -0.33,239.04 -35.5,344.72 5.62,85.32 4.13,160.66 -22.08,261.53 -3.3,12.69 -6.72,25.23 -10.24,37.72 0.7,13.87 1.39,27.73 1.93,41.57 4.23,109.42 -4.96,211.39 -36.41,305.36 1.1,8.3 2.08,16.27 2.71,23.56 7.83,89.47 3.49,175.39 -14.95,260 65.67,-9.57 134.17,-10.72 211.25,-8.87 147.44,-56.23 298.93,-81.02 458.91,-54.96 75.63,12.32 129.66,38.04 197.94,54.06 4.51,0.71 10.2,0.6 14.72,0.58 63.14,-0.29 121.5,1.38 176.89,8.26z"/>
  </g>
  <path id="outline_1468" class="fil2" d="M2184.1 12129.51l-340.57 -0.66c-75.81,1.89 -72.29,-3.69 -124.13,24.8 -67.32,37 42.36,16.63 -101.78,42.72 -157.08,28.43 -496.17,225.59 -566.16,299.66l-253.69 312.7c-105.24,142.86 -207.49,512.9 -244.7,591.66 -56.05,118.59 -85.33,284.76 -126.03,429.03 -21.37,75.77 -23.14,44.1 -41.35,100.94 -18.87,58.91 -6.06,67.52 -19.1,120.94 -13.9,56.91 -17.57,29 -39.7,97.81l-61.01 345.95c-20.84,227.42 -85.36,587.82 44.48,802.74 100.49,166.35 58.64,167.01 275.58,346.41 325.98,269.58 1095.1,551.31 1552.27,899.78 179.86,137.09 482.02,456.99 667.34,568.67 77.18,46.5 28.13,16.83 120.14,37.09 181.68,40.01 243.95,-16.38 385.56,-129.53 30.16,-24.09 -8.87,0.06 37.41,-23.8 31.51,-16.24 -2.19,3.51 29.8,-11.73 4.43,-2.11 10.1,-4.12 14.45,-6.31l518.72 -361.06c181.74,-155.86 451.72,-377.52 578.35,-560.2 71.03,-102.46 145.7,-227.77 196.22,-361.29 84.2,-222.47 65.24,-554.06 21.72,-802.64 -28.89,-165.04 -36.16,18.9 -82.22,-232.19l-83.76 -229.27c-41.67,-112.17 -20.29,-13.38 -61.94,-98.9 -42.56,-87.41 10.75,-56.03 -130.26,-273.85l-113.29 -201.42c-2.45,-4.29 -5.56,-9.66 -7.83,-14.14l-125.57 -236.18c-30.37,-47.05 -22.44,-21.4 -60.11,-95.89 -79.94,-158.07 -344.37,-501.39 -461.5,-630.5 -24.5,-27.02 -51.19,-52.61 -75.96,-78.53 -285.57,-298.89 -441.94,-388.49 -811.09,-574.88 -68.61,-34.65 -47.26,-18.82 -116.01,-43.01 -189.72,-66.77 -13.58,-55.55 -394.28,-54.92zm1165.56 200.93c1,-147.83 -23.38,-318.31 -57.97,-448.3 -47.59,-178.77 -49.25,-273.91 -76.79,-465.93 -19.49,-135.84 -29.73,-70.3 -66.41,-161.79l-79.16 -705.27c-116.73,-1257.49 -198.11,-2573.01 -321.7,-3813.55 -15.16,-152.16 -23.79,-318.14 -42.69,-467.44 -29.85,-235.72 -48.78,25.83 -99.61,-423.88 -29.21,-258.38 -39.9,-3.46 -91.04,-295.93 -14.78,-84.54 -37.05,-107.33 -100,-194.7 -2.91,-4.04 -7.26,-8.81 -10.17,-12.86 -20.15,-28.13 -3.6,4.92 -28.2,-39.87 -24.87,-45.26 -6.14,-17.88 -19.9,-47.93 -2.37,-5.17 -3.91,-11.36 -6.43,-16.39l-16.1 -29.46c-24.89,-35.84 -25.92,-14.45 -67.59,-63.39 -310.31,58.67 -196.48,87.45 -296.61,238.17l-35.81 86.75c-14.49,51.43 -20.12,63.67 -34.57,104.47 -27.17,76.73 -38.8,141.14 -65.15,212.5l-101.91 434.3c-96.36,295.53 -102,523.06 -160.81,770.5l-194.92 1004.22c-39.93,108.55 2.35,129.03 -30.17,226.69 -67.21,201.88 -4.31,107.42 -41.32,235.93 -58.18,202.01 -0.82,116.63 -30.71,229.52 -41.84,158 -29.22,-36.3 -33.94,228.86 -2.84,160.05 -49.14,61.59 -45.98,211.18 5.59,264.7 -18.19,149.76 -36.01,243.49 -17.62,92.64 25.57,141.26 -9.09,248.19 -47.75,147.33 -14.13,96.39 -20.86,250.27 -6.02,138 -51.63,55.22 -41.76,210.02 18.13,283.95 -11.22,152.46 -35.74,246 -19.29,73.63 22.44,164.62 -1.07,255.08 -38.68,148.82 -33.02,60.77 -25.99,242.65 7.19,185.97 -44.18,67.64 -44.38,210.34 -0.17,115.58 34.9,180.36 -4.98,279.22 -67.41,167.07 4.35,223.98 -15.33,375.53 -14.6,112.37 -17.99,9.56 -31.63,111.33 -5.22,38.98 -16.4,497.49 -16.04,499.8l509.08 -281.23c87.23,-31.82 18.28,39.39 127.43,-36.89 125.57,-87.76 226.25,3.06 364.79,-58.55 247.51,-110.07 243.64,22.59 510.31,21.38 187.36,-0.84 85.21,10.55 207.68,54.91 44.24,16.04 19.1,3.89 52.61,10.84 119.71,24.84 -63.76,-22.44 36.56,5.65l335.01 166.68c92.12,59.59 81.86,26 153.74,65.78 82.49,45.63 28.09,59.76 141.33,83.11zm-213.83 -3793.64c60.36,704.63 98.86,1463.13 188.72,2161.03 19.45,151.1 31,388.24 60.35,523.17 33.29,153.02 74.45,338.04 100.41,493.79 23.57,141.36 20.71,409.54 72.46,526.96 77.55,175.95 16.31,275.22 150.39,431.54l747.75 1107.8c56.17,85.97 89.13,206.02 149.29,299.94l265.83 585.04c41.57,136.07 -8.17,102.34 64.96,232.74 47.65,84.95 80.61,412.25 55.21,511.95 -17.78,69.77 -15.23,-34.14 -29.91,98.87 -5.82,52.85 10.09,74.61 -5.71,123.39 -24.89,76.84 -19.5,12.65 -42.06,76.5 -21.5,60.87 -1.23,64.61 -24.37,115.27 -32.74,71.63 -9.08,-15.18 -50.15,64.13 -35.25,68.07 -23.33,109.27 -78.08,165.43 -103.05,105.71 -200.57,263.2 -296.18,371.16l-269.33 239.02c-56.05,51.08 -83.35,78.79 -134.77,128.66l-389.99 302.16c-4.28,2.31 -9.68,4.71 -14.01,7.04l-27.96 15.12c-4.37,2.47 -9.42,5.47 -13.72,8l-72.97 49.64c-93.66,69.48 -392.58,186.02 -506.01,188.1 -128.6,2.37 -158.2,2.34 -246.49,-46.51 -98.43,-54.46 -137.32,-54.79 -226.58,-126.31l-729.77 -611.49c-112.44,-70.43 -256.4,-135.4 -374.93,-197.25l-550.32 -280.73c-117.25,-58.67 -395.89,-232.9 -496.36,-334.13l-320.3 -418.3c-16.01,-44.28 -9.46,-93.7 -20.99,-140.71 -27.64,-112.68 -60.19,-41.36 -74.93,-214.72 -12.76,-150.18 20.04,-109.06 38.39,-197.08 15.9,-76.3 -14.5,-188.95 -11.94,-269.82 5.58,-177.25 69,24.14 54.39,-210.83 -13.32,-214.43 24.13,-56.03 43.59,-195.92 7.13,-51.35 -7.72,-55.68 4.41,-115.6 19.74,-97.54 73.77,-183.02 93.33,-283.4 4.92,-25.26 0,-21.44 8.46,-53.58 13.87,-52.72 -0.88,2.01 16.92,-43.26 29.21,-74.29 21.83,-137.16 54.29,-205.7l176.76 -459.78c46.59,-99.12 137.03,-289.31 167.36,-415.01 27.66,-114.64 68.24,-231.91 61.19,-388.12 -7.5,-166.44 33.35,-104.88 36.49,-212.53 2.82,-97.09 -25.15,-168.37 -2.14,-262.85 25.61,-105.19 26.48,-339.99 41.57,-444.09 10.93,-75.35 -1.8,-172.75 4.54,-249 9.03,-108.55 27.2,-98.09 28.53,-228.13 0.53,-50.86 3.07,-201.54 12.18,-248.82 10.83,-56.18 23.1,-48.53 29.92,-82.36 9.98,-49.54 -2.7,-82.68 -4.75,-136.05 -6.4,-166.88 40.57,-72.61 37.68,-231.59 -2.79,-154.11 -29.31,-113.66 18.36,-235.61 39.94,-102.18 4.37,-120.78 6.41,-231.84 2.49,-136.03 50.7,-36.41 46.97,-210.21 -5.3,-247.09 -1.1,-116.78 29.77,-222.34 23.91,-81.74 -16.88,-150.93 15.21,-243.76 48.38,-139.97 12.07,-84.73 22.87,-232.41 8.69,-118.81 47.35,-16.57 46.48,-212.77 -0.76,-170.76 46.57,-40.25 47.15,-211.67 0.71,-207.31 1.04,-81.86 30.51,-217.61 29.09,-133.95 13.94,-300.15 54.82,-441.45 117.72,-406.86 159.77,-836.57 260.77,-1251.85 68.69,-282.39 88.46,-549.19 197.63,-818.25 30.81,-75.93 18.43,-114.53 66.1,-192.88l172.08 -272.38c56.8,-54.64 123.96,-114.66 217.51,-127.82 300.05,-42.21 367.26,142.85 490.22,342.26 179.09,290.42 269.75,842.94 317.5,1160.18 142.89,949.45 131.31,1190.8 208.99,2097.63z"/>
 </g>
</svg>