<?xml version="1.0" encoding="UTF-8"?>
<!DOCTYPE svg PUBLIC "-//W3C//DTD SVG 1.1//EN" "http://www.w3.org/Graphics/SVG/1.1/DTD/svg11.dtd">
<!-- Creator: CorelDRAW (Versión de evaluación) -->
<svg xmlns="http://www.w3.org/2000/svg" xml:space="preserve" width="739px" height="2458px" version="1.1" style="shape-rendering:geometricPrecision; text-rendering:geometricPrecision; image-rendering:optimizeQuality; fill-rule:evenodd; clip-rule:evenodd"
viewBox="0 0 739 2457.4"
 xmlns:xlink="http://www.w3.org/1999/xlink"
 xmlns:xodm="http://www.corel.com/coreldraw/odm/2003">
 <defs>
  <style type="text/css">
   <![CDATA[
    .str1 {stroke:#FFF212;stroke-width:10;stroke-miterlimit:22.9256}
    .str0 {stroke:#D6D2C8;stroke-width:10;stroke-miterlimit:22.9256}
    .fil1 {fill:#FECB29}
    .fil0 {fill:#F5F1E8}
   ]]>
  </style>
 </defs>
 <g id="tooth-pulpotomy-13">
  <metadata id="CorelCorpID_0Corel-Layer"/>
  <path id="crown" class="fil0 str0" d="M326.71 2444.63c63.77,-3.83 115.44,54.88 275.42,-51.4 93.46,-62.09 144.2,-65.31 135.49,-190.24 -12.88,-184.76 -83.55,-354.16 -131.74,-528.97l-245.94 -165.8c-64.78,-22.43 -103.27,8.29 -149.53,42.53 -172.76,127.89 -109.41,-18.39 -156.25,247.17 -9.08,51.41 -20.94,108.61 -29.5,160.01 -55.07,330.36 -5.2,189.98 15.36,305.86 0.27,43.29 100.91,70.41 137.37,92.3 18.3,10.99 49.6,33.53 66.76,46.4 33.76,25.34 42.17,44.83 82.56,42.14z"/>
  <g id="_2015058889280">
   <path class="fil1 str1" d="M370.92 2242.99c13,1.5 26,3.67 39.33,6.33 6.37,1.27 15.13,3.55 21.82,4.21 15.09,-3.03 45.78,-22.32 57.32,-29.99 13.13,-8.72 28.47,-17.45 43.32,-26.28 -12.84,-130.45 -61.73,-266.63 -101.48,-395.29l-114.12 -76.93c-17.33,12.35 -34.05,23.38 -51.06,33.5 -3.4,24.9 -6.87,49.88 -11.27,74.78 -9.31,52.77 -20.37,105.26 -29.17,158.11 -6.84,41.04 -13.56,82.43 -18.53,123.75 -0.37,3.04 -0.78,6.27 -1.19,9.6 4.86,8.74 9.19,17.7 13.06,26.92 20.99,9.02 43.09,17.6 63.29,29.72 28.68,17.22 57.37,38.01 84.17,58.12 1.53,1.14 3.03,2.29 4.51,3.45z"/>
  </g>
  <path id="root" class="fil0 str0" d="M231.43 1.1c-102.9,-9.92 -50.72,47.08 -47.37,191.22l-36.74 613.66c-18.21,133.65 -74.55,679.07 -68.2,787.56 95.83,-7.49 140.54,-135.67 268.94,-115.09 100.49,16.1 150.33,124.13 246.76,151.8 -33.53,-180.86 -32.01,-480.6 -65.15,-682.47 -36.29,-221.23 -57.18,-384.57 -136.96,-606.75 -42.14,-117.4 -160.65,-314 -161.28,-339.93z"/>
 </g>
</svg>
