<?xml version="1.0" encoding="UTF-8"?>
<!DOCTYPE svg PUBLIC "-//W3C//DTD SVG 1.1//EN" "http://www.w3.org/Graphics/SVG/1.1/DTD/svg11.dtd">
<!-- Creator: CorelDRAW (Versión de evaluación) -->
<svg xmlns="http://www.w3.org/2000/svg" xml:space="preserve" width="739px" height="2458px" version="1.1" style="shape-rendering:geometricPrecision; text-rendering:geometricPrecision; image-rendering:optimizeQuality; fill-rule:evenodd; clip-rule:evenodd"
viewBox="0 0 739 2457.4"
 xmlns:xlink="http://www.w3.org/1999/xlink"
 xmlns:xodm="http://www.corel.com/coreldraw/odm/2003">
 <defs>
  <style type="text/css">
   <![CDATA[
    .str1 {stroke:#FFF212;stroke-width:10;stroke-miterlimit:22.9256}
    .str0 {stroke:#D6D2C8;stroke-width:10;stroke-miterlimit:22.9256}
    .fil1 {fill:#FECB29}
    .fil0 {fill:#F5F1E8}
   ]]>
  </style>
 </defs>
 <g id="tooth-pulpotomy-34">
  <metadata id="CorelCorpID_0Corel-Layer"/>
  <path id="root" class="fil0 str0" d="M651.79 753.58c-31.2,133.85 -68.71,247.78 -91.46,390.91 -24.91,156.79 -6.45,314.78 -27.58,456.63 -26.62,178.61 -40.54,146.16 -65.67,413.26 -24.4,259.25 40.89,372.97 -32.9,443.02 -104.34,-30.92 -273.63,-346.71 -297.03,-459.33 -65,-312.87 -78.77,-892.67 -59.85,-1200.35 124.11,-12.85 150.52,78.33 244.94,125.37 54.74,27.26 106.42,28.52 151.65,-12.66 29.29,-26.69 18.93,-21.71 40.37,-50.74 38.39,-51.99 65.28,-97.02 137.53,-106.11z"/>
  <path id="crown" class="fil0 str0" d="M314.61 885.26c-119.5,-72.85 -78.21,-109.9 -246.25,-125.97 -60.58,-126.04 -87.17,-363.78 -54.98,-505.92 16.88,-74.56 89.17,-100.87 143.84,-136.98 259.89,-171.71 160.76,-131.74 358.95,-19.62 121.64,68.8 334.14,35.74 150.87,620.62 -202.17,44.65 -181.94,271.8 -352.43,167.87z"/>
  <g id="_2015147207312">
   <path class="fil1 str1" d="M503.03 567.55c15.65,-57.65 28.73,-117.35 33.93,-173.84 1.35,-14.68 3.56,-50.61 -0.28,-70.38 -7.7,-3.8 -17.61,-7.51 -23.62,-9.91 -32.81,-13.11 -64.26,-25.29 -95.22,-42.81 -23.48,-13.28 -46.31,-27.36 -68.63,-42.34 -27.29,18.26 -54.49,36.65 -81.89,54.76 -16.27,10.75 -43.79,24.75 -63.35,37.66 -10.17,71.67 -3.09,178.96 15.97,264.04 40.11,12.64 78.1,31.32 114.07,59.94 13.28,10.56 24.55,21.24 35.84,31.64 7.7,-8.69 15.61,-17.21 23.86,-25.52 33.36,-33.62 69.65,-61.45 109.32,-83.24z"/>
  </g>
 </g>
</svg>
