<?xml version="1.0" encoding="UTF-8"?>
<!DOCTYPE svg PUBLIC "-//W3C//DTD SVG 1.1//EN" "http://www.w3.org/Graphics/SVG/1.1/DTD/svg11.dtd">
<!-- Creator: CorelDRAW (Versión de evaluación) -->
<svg xmlns="http://www.w3.org/2000/svg" xml:space="preserve" width="531px" height="2052px" version="1.1" style="shape-rendering:geometricPrecision; text-rendering:geometricPrecision; image-rendering:optimizeQuality; fill-rule:evenodd; clip-rule:evenodd"
viewBox="0 0 531 2051.76"
 xmlns:xlink="http://www.w3.org/1999/xlink"
 xmlns:xodm="http://www.corel.com/coreldraw/odm/2003">
 <defs>
  <style type="text/css">
   <![CDATA[
    .fil4 {fill:#4B4B4D}
    .fil1 {fill:#FFCC29}
    .fil3 {fill:#F7ADAF}
    .fil2 {fill:#F3EDD9}
    .fil0 {fill:#F8FBFF}
   ]]>
  </style>
 </defs>
 <g id="pulpotomy">
  <metadata id="CorelCorpID_0Corel-Layer"/>
  <polygon id="crown" class="fil0" points="285.21,1183.53 296.22,1183.53 296.22,1186.28 307.22,1186.28 307.22,1189.03 312.73,1189.03 312.73,1191.78 318.23,1191.78 318.23,1194.54 323.73,1194.54 323.73,1197.28 329.24,1197.28 329.24,1200.04 331.99,1200.04 331.99,1202.79 334.74,1202.79 334.74,1205.54 340.24,1205.54 340.24,1208.29 342.99,1208.29 342.99,1211.04 348.49,1211.04 348.49,1213.79 351.25,1213.79 351.25,1219.3 356.75,1219.3 356.75,1222.05 359.5,1222.05 359.5,1224.8 362.25,1224.8 362.25,1227.55 365,1227.55 365,1233.05 367.75,1233.05 367.75,1235.8 370.51,1235.8 370.51,1238.55 373.26,1238.55 373.26,1241.31 376.01,1241.31 376.01,1246.81 378.76,1246.81 378.76,1249.56 381.51,1249.56 381.51,1252.31 384.26,1252.31 384.26,1257.81 387.01,1257.81 387.01,1260.57 389.76,1260.57 389.76,1266.07 392.52,1266.07 392.52,1271.57 395.27,1271.57 395.27,1277.07 398.02,1277.07 398.02,1279.82 400.77,1279.82 400.77,1285.33 403.52,1285.33 403.52,1290.83 406.27,1290.83 406.27,1296.33 409.02,1296.33 409.02,1301.84 411.78,1301.84 411.78,1307.34 414.52,1307.34 414.52,1310.09 417.28,1310.09 417.28,1318.34 420.03,1318.34 420.03,1323.85 422.78,1323.85 422.78,1329.35 425.53,1329.35 425.53,1334.85 428.28,1334.85 428.28,1343.11 431.03,1343.11 431.03,1348.61 433.79,1348.61 433.79,1354.11 436.54,1354.11 436.54,1362.36 439.29,1362.36 439.29,1370.62 442.04,1370.62 442.04,1376.12 444.79,1376.12 444.79,1384.37 447.54,1384.37 447.54,1392.63 450.29,1392.63 450.29,1398.13 453.05,1398.13 453.05,1406.38 455.8,1406.38 455.8,1414.64 458.55,1414.64 458.55,1420.14 461.3,1420.14 461.3,1428.39 464.05,1428.39 464.05,1433.9 466.8,1433.9 466.8,1442.15 469.55,1442.15 469.55,1450.41 472.3,1450.41 472.3,1458.66 475.06,1458.66 475.06,1469.66 477.81,1469.66 477.81,1480.67 480.56,1480.67 480.56,1486.17 483.31,1486.17 483.31,1497.18 486.06,1497.18 486.06,1508.18 488.81,1508.18 488.81,1519.19 491.56,1519.19 491.56,1527.44 494.32,1527.44 494.32,1541.2 497.06,1541.2 497.06,1552.2 499.82,1552.2 499.82,1563.21 502.57,1563.21 502.57,1582.47 505.32,1582.47 505.32,1656.76 502.57,1656.76 502.57,1678.76 499.82,1678.76 499.82,1684.27 497.06,1684.27 497.06,1692.52 494.32,1692.52 494.32,1698.02 491.56,1698.02 491.56,1706.28 488.81,1706.28 488.81,1711.78 486.06,1711.78 486.06,1714.53 483.31,1714.53 483.31,1720.03 480.56,1720.03 480.56,1722.78 477.81,1722.78 477.81,1725.54 475.06,1725.54 475.06,1731.04 472.3,1731.04 472.3,1733.79 469.55,1733.79 469.55,1736.54 466.8,1736.54 466.8,1739.29 464.05,1739.29 464.05,1742.04 461.3,1742.04 461.3,1744.8 458.55,1744.8 458.55,1747.54 455.8,1747.54 455.8,1750.3 453.05,1750.3 453.05,1753.05 447.54,1753.05 447.54,1755.8 444.79,1755.8 444.79,1758.55 442.04,1758.55 442.04,1761.3 439.29,1761.3 439.29,1764.05 433.79,1764.05 433.79,1766.81 431.03,1766.81 431.03,1769.56 425.53,1769.56 425.53,1772.31 422.78,1772.31 422.78,1775.06 420.03,1775.06 420.03,1777.81 414.52,1777.81 414.52,1780.56 411.78,1780.56 411.78,1783.31 406.27,1783.31 406.27,1786.07 403.52,1786.07 403.52,1788.81 398.02,1788.81 398.02,1791.57 395.27,1791.57 395.27,1794.32 389.76,1794.32 389.76,1797.07 387.01,1797.07 387.01,1799.82 381.51,1799.82 381.51,1802.57 378.76,1802.57 378.76,1805.32 373.26,1805.32 373.26,1808.07 370.51,1808.07 370.51,1810.83 365,1810.83 365,1813.58 362.25,1813.58 362.25,1816.33 356.75,1816.33 356.75,1819.08 354,1819.08 354,1821.83 348.49,1821.83 348.49,1824.58 345.74,1824.58 345.74,1827.33 340.24,1827.33 340.24,1830.08 334.74,1830.08 334.74,1832.84 331.99,1832.84 331.99,1835.59 326.48,1835.59 326.48,1838.34 320.98,1838.34 320.98,1841.09 315.48,1841.09 315.48,1843.84 309.98,1843.84 309.98,1846.59 307.22,1846.59 307.22,1849.34 301.72,1849.34 301.72,1852.1 293.47,1852.1 293.47,1854.85 287.97,1854.85 287.97,1857.6 276.96,1857.6 276.96,1860.35 232.94,1860.35 232.94,1857.6 227.44,1857.6 227.44,1854.85 221.94,1854.85 221.94,1852.1 216.43,1852.1 216.43,1849.34 208.18,1849.34 208.18,1846.59 205.43,1846.59 205.43,1843.84 199.92,1843.84 199.92,1841.09 197.17,1841.09 197.17,1838.34 191.67,1838.34 191.67,1835.59 186.17,1835.59 186.17,1832.84 183.41,1832.84 183.41,1830.08 177.91,1830.08 177.91,1827.33 172.41,1827.33 172.41,1824.58 169.66,1824.58 169.66,1821.83 164.16,1821.83 164.16,1819.08 161.41,1819.08 161.41,1816.33 158.65,1816.33 158.65,1813.58 153.15,1813.58 153.15,1810.83 147.65,1810.83 147.65,1808.07 144.9,1808.07 144.9,1805.32 139.4,1805.32 139.4,1802.57 136.64,1802.57 136.64,1799.82 133.89,1799.82 133.89,1797.07 128.39,1797.07 128.39,1794.32 125.64,1794.32 125.64,1791.57 120.14,1791.57 120.14,1788.81 114.63,1788.81 114.63,1786.07 111.88,1786.07 111.88,1783.31 109.13,1783.31 109.13,1780.56 103.63,1780.56 103.63,1777.81 100.88,1777.81 100.88,1775.06 98.13,1775.06 98.13,1772.31 92.62,1772.31 92.62,1769.56 89.87,1769.56 89.87,1766.81 87.12,1766.81 87.12,1764.05 81.62,1764.05 81.62,1761.3 78.87,1761.3 78.87,1758.55 76.11,1758.55 76.11,1755.8 70.61,1755.8 70.61,1753.05 67.86,1753.05 67.86,1750.3 65.11,1750.3 65.11,1747.54 62.36,1747.54 62.36,1744.8 59.61,1744.8 59.61,1742.04 56.86,1742.04 56.86,1739.29 54.1,1739.29 54.1,1733.79 51.35,1733.79 51.35,1731.04 48.6,1731.04 48.6,1728.29 45.85,1728.29 45.85,1722.78 43.1,1722.78 43.1,1720.03 40.35,1720.03 40.35,1714.53 37.6,1714.53 37.6,1709.03 34.84,1709.03 34.84,1703.53 32.09,1703.53 32.09,1695.27 29.34,1695.27 29.34,1687.02 26.59,1687.02 26.59,1673.26 23.84,1673.26 23.84,1593.47 26.59,1593.47 26.59,1576.96 29.34,1576.96 29.34,1557.71 32.09,1557.71 32.09,1541.2 34.84,1541.2 34.84,1532.95 37.6,1532.95 37.6,1516.44 40.35,1516.44 40.35,1505.43 43.1,1505.43 43.1,1497.18 45.85,1497.18 45.85,1486.17 48.6,1486.17 48.6,1477.92 51.35,1477.92 51.35,1469.66 54.1,1469.66 54.1,1458.66 56.86,1458.66 56.86,1453.16 59.61,1453.16 59.61,1444.9 62.36,1444.9 62.36,1433.9 65.11,1433.9 65.11,1425.65 67.86,1425.65 67.86,1414.64 70.61,1414.64 70.61,1406.38 73.37,1406.38 73.37,1398.13 76.11,1398.13 76.11,1392.63 78.87,1392.63 78.87,1384.37 81.62,1384.37 81.62,1378.87 84.37,1378.87 84.37,1370.62 87.12,1370.62 87.12,1365.11 89.87,1365.11 89.87,1359.61 92.62,1359.61 92.62,1354.11 95.37,1354.11 95.37,1345.85 98.13,1345.85 98.13,1340.35 100.88,1340.35 100.88,1334.85 103.63,1334.85 103.63,1329.35 106.38,1329.35 106.38,1323.85 109.13,1323.85 109.13,1318.34 111.88,1318.34 111.88,1312.84 114.63,1312.84 114.63,1307.34 117.38,1307.34 117.38,1304.58 120.14,1304.58 120.14,1299.08 122.89,1299.08 122.89,1293.58 125.64,1293.58 125.64,1288.08 128.39,1288.08 128.39,1282.58 131.14,1282.58 131.14,1279.82 133.89,1279.82 133.89,1277.07 136.64,1277.07 136.64,1271.57 139.4,1271.57 139.4,1268.82 142.15,1268.82 142.15,1263.31 144.9,1263.31 144.9,1260.57 147.65,1260.57 147.65,1257.81 150.4,1257.81 150.4,1252.31 153.15,1252.31 153.15,1249.56 155.9,1249.56 155.9,1244.06 158.65,1244.06 158.65,1241.31 161.41,1241.31 161.41,1238.55 164.16,1238.55 164.16,1235.8 166.91,1235.8 166.91,1230.3 169.66,1230.3 169.66,1227.55 172.41,1227.55 172.41,1224.8 175.16,1224.8 175.16,1222.05 177.91,1222.05 177.91,1219.3 180.67,1219.3 180.67,1216.54 186.17,1216.54 186.17,1213.79 188.92,1213.79 188.92,1211.04 191.67,1211.04 191.67,1208.29 194.42,1208.29 194.42,1205.54 197.17,1205.54 197.17,1202.79 199.92,1202.79 199.92,1200.04 205.43,1200.04 205.43,1197.28 210.93,1197.28 210.93,1194.54 216.43,1194.54 216.43,1191.78 221.94,1191.78 221.94,1189.03 227.44,1189.03 227.44,1186.28 241.19,1186.28 241.19,1183.53 249.45,1183.53 249.45,1180.78 285.21,1180.78 "/>
  <g id="_2327726657312">
   <polygon class="fil1" points="266.44,1301.34 265.47,1301.34 265.47,1304.1 262.71,1304.1 262.71,1306.85 259.96,1306.85 259.96,1309.6 257.21,1309.6 257.21,1312.35 254.46,1312.35 254.46,1315.1 251.71,1315.1 251.71,1320.61 248.96,1320.61 248.96,1323.35 246.21,1323.35 246.21,1326.11 243.45,1326.11 243.45,1328.86 240.71,1328.86 240.71,1334.36 237.95,1334.36 237.95,1337.11 235.2,1337.11 235.2,1342.61 232.45,1342.61 232.45,1345.37 229.7,1345.37 229.7,1348.12 226.95,1348.12 226.95,1353.62 224.2,1353.62 224.2,1356.37 221.45,1356.37 221.45,1361.87 218.69,1361.87 218.69,1364.62 215.94,1364.62 215.94,1367.38 213.19,1367.38 213.19,1372.88 210.44,1372.88 210.44,1378.38 207.69,1378.38 207.69,1383.88 204.94,1383.88 204.94,1389.39 202.18,1389.39 202.18,1392.14 199.44,1392.14 199.44,1397.64 196.68,1397.64 196.68,1403.14 193.93,1403.14 193.93,1408.65 191.18,1408.65 191.18,1414.15 188.43,1414.15 188.43,1419.65 185.68,1419.65 185.68,1425.15 182.93,1425.15 182.93,1430.66 180.17,1430.66 180.17,1438.91 177.42,1438.91 177.42,1444.41 174.67,1444.41 174.67,1449.92 171.92,1449.92 171.92,1455.42 169.17,1455.42 169.17,1463.67 166.42,1463.67 166.42,1469.18 163.67,1469.18 163.67,1477.43 160.91,1477.43 160.91,1482.93 158.17,1482.93 158.17,1491.18 155.41,1491.18 155.41,1499.44 152.66,1499.44 152.66,1510.45 149.91,1510.45 149.91,1518.7 147.16,1518.7 147.16,1529.7 144.41,1529.7 144.41,1537.96 141.66,1537.96 141.66,1543.46 138.91,1543.46 138.91,1554.46 136.15,1554.46 136.15,1562.72 133.4,1562.72 133.4,1570.97 130.65,1570.97 130.65,1581.98 127.9,1581.98 127.9,1590.23 125.15,1590.23 125.15,1601.24 122.4,1601.24 122.4,1617.75 119.65,1617.75 119.65,1624.23 122.4,1624.23 122.4,1629.73 125.15,1629.73 125.15,1635.23 127.9,1635.23 127.9,1637.98 130.65,1637.98 130.65,1643.49 133.4,1643.49 133.4,1646.24 136.15,1646.24 136.15,1648.99 138.91,1648.99 138.91,1654.49 141.66,1654.49 141.66,1657.24 144.41,1657.24 144.41,1660 147.16,1660 147.16,1662.74 149.91,1662.74 149.91,1665.5 152.66,1665.5 152.66,1668.25 155.41,1668.25 155.41,1671 160.91,1671 160.91,1673.75 163.67,1673.75 163.67,1676.5 166.42,1676.5 166.42,1679.25 171.92,1679.25 171.92,1682 174.67,1682 174.67,1684.76 177.42,1684.76 177.42,1687.51 182.93,1687.51 182.93,1690.26 185.68,1690.26 185.68,1693.01 188.43,1693.01 188.43,1695.76 193.93,1695.76 193.93,1698.51 196.68,1698.51 196.68,1701.26 199.44,1701.26 199.44,1704.01 204.94,1704.01 204.94,1706.77 210.44,1706.77 210.44,1709.52 213.19,1709.52 213.19,1712.27 218.69,1712.27 218.69,1715.02 221.45,1715.02 221.45,1717.77 224.2,1717.77 224.2,1720.52 229.7,1720.52 229.7,1723.27 232.45,1723.27 232.45,1726.03 237.95,1726.03 237.95,1728.78 243.45,1728.78 243.45,1731.53 246.21,1731.53 246.21,1734.28 248.96,1734.28 248.96,1737.03 254.46,1737.03 254.46,1739.78 257.21,1739.78 257.21,1742.53 260.94,1742.53 260.94,1739.78 263.69,1739.78 263.69,1737.03 269.2,1737.03 269.2,1734.28 271.95,1734.28 271.95,1731.53 277.45,1731.53 277.45,1728.78 280.2,1728.78 280.2,1726.03 285.71,1726.03 285.71,1723.27 288.45,1723.27 288.45,1720.52 293.96,1720.52 293.96,1717.77 296.71,1717.77 296.71,1715.02 302.21,1715.02 302.21,1712.27 304.96,1712.27 304.96,1709.52 310.47,1709.52 310.47,1706.77 313.22,1706.77 313.22,1704.01 318.72,1704.01 318.72,1701.26 321.47,1701.26 321.47,1698.51 326.98,1698.51 326.98,1695.76 329.72,1695.76 329.72,1693.01 335.23,1693.01 335.23,1690.26 337.98,1690.26 337.98,1687.51 340.73,1687.51 340.73,1684.76 346.23,1684.76 346.23,1682 348.98,1682 348.98,1679.25 354.49,1679.25 354.49,1676.5 357.24,1676.5 357.24,1673.75 359.99,1673.75 359.99,1671 362.74,1671 362.74,1668.25 368.24,1668.25 368.24,1665.5 370.99,1665.5 370.99,1662.74 373.75,1662.74 373.75,1660 376.5,1660 376.5,1657.24 379.25,1657.24 379.25,1654.49 382,1654.49 382,1651.74 384.75,1651.74 384.75,1648.99 387.5,1648.99 387.5,1646.24 390.25,1646.24 390.25,1640.73 393.01,1640.73 393.01,1637.98 395.76,1637.98 395.76,1635.23 398.51,1635.23 398.51,1629.73 401.26,1629.73 401.26,1626.98 404.01,1626.98 404.01,1621.47 406.76,1621.47 406.76,1613.22 409.52,1613.22 409.52,1612.24 406.76,1612.24 406.76,1603.99 404.01,1603.99 404.01,1592.98 401.26,1592.98 401.26,1581.98 398.51,1581.98 398.51,1570.97 395.76,1570.97 395.76,1565.47 393.01,1565.47 393.01,1554.46 390.25,1554.46 390.25,1543.46 387.5,1543.46 387.5,1535.21 384.75,1535.21 384.75,1526.95 382,1526.95 382,1518.7 379.25,1518.7 379.25,1513.19 376.5,1513.19 376.5,1504.94 373.75,1504.94 373.75,1499.44 370.99,1499.44 370.99,1491.18 368.24,1491.18 368.24,1482.93 365.49,1482.93 365.49,1477.43 362.74,1477.43 362.74,1469.18 359.99,1469.18 359.99,1460.92 357.24,1460.92 357.24,1455.42 354.49,1455.42 354.49,1447.16 351.74,1447.16 351.74,1438.91 348.98,1438.91 348.98,1433.41 346.23,1433.41 346.23,1427.91 343.48,1427.91 343.48,1419.65 340.73,1419.65 340.73,1414.15 337.98,1414.15 337.98,1408.65 335.23,1408.65 335.23,1403.14 332.48,1403.14 332.48,1394.89 329.72,1394.89 329.72,1392.14 326.98,1392.14 326.98,1386.64 324.22,1386.64 324.22,1381.13 321.47,1381.13 321.47,1375.63 318.72,1375.63 318.72,1370.13 315.97,1370.13 315.97,1364.62 313.22,1364.62 313.22,1361.87 310.47,1361.87 310.47,1356.37 307.72,1356.37 307.72,1350.87 304.96,1350.87 304.96,1345.37 302.21,1345.37 302.21,1342.61 299.46,1342.61 299.46,1337.11 296.71,1337.11 296.71,1334.36 293.96,1334.36 293.96,1331.61 291.21,1331.61 291.21,1326.11 288.45,1326.11 288.45,1323.35 285.71,1323.35 285.71,1320.61 282.95,1320.61 282.95,1317.85 280.2,1317.85 280.2,1312.35 277.45,1312.35 277.45,1309.6 274.7,1309.6 274.7,1306.85 271.95,1306.85 271.95,1304.1 266.44,1304.1 "/>
  </g>
  <polygon id="root" class="fil2" points="304.48,195.81 307.22,195.81 307.22,198.56 309.98,198.56 309.98,201.31 312.73,201.31 312.73,204.06 315.48,204.06 315.48,209.57 318.23,209.57 318.23,215.07 320.98,215.07 320.98,220.57 323.73,220.57 323.73,231.58 326.48,231.58 326.48,237.08 329.24,237.08 329.24,248.08 331.99,248.08 331.99,259.09 334.74,259.09 334.74,281.1 337.49,281.1 337.49,303.11 340.24,303.11 340.24,327.87 342.99,327.87 342.99,385.65 345.74,385.65 345.74,426.92 348.49,426.92 348.49,473.69 351.25,473.69 351.25,501.2 354,501.2 354,528.72 356.75,528.72 356.75,550.73 359.5,550.73 359.5,578.24 362.25,578.24 362.25,594.75 365,594.75 365,616.76 367.75,616.76 367.75,633.27 370.51,633.27 370.51,649.78 373.26,649.78 373.26,666.28 376.01,666.28 376.01,682.79 378.76,682.79 378.76,691.04 381.51,691.04 381.51,710.31 384.26,710.31 384.26,726.81 387.01,726.81 387.01,751.57 389.76,751.57 389.76,768.08 392.52,768.08 392.52,787.34 395.27,787.34 395.27,814.85 398.02,814.85 398.02,836.86 400.77,836.86 400.77,861.63 403.52,861.63 403.52,883.64 406.27,883.64 406.27,927.66 409.02,927.66 409.02,968.93 411.78,968.93 411.78,1007.44 414.52,1007.44 414.52,1040.46 417.28,1040.46 417.28,1109.24 420.03,1109.24 420.03,1169.77 422.78,1169.77 422.78,1222.05 425.53,1222.05 425.53,1249.56 428.28,1249.56 428.28,1277.07 425.53,1277.07 425.53,1274.32 422.78,1274.32 422.78,1271.57 420.03,1271.57 420.03,1266.07 417.28,1266.07 417.28,1260.57 414.52,1260.57 414.52,1255.06 411.78,1255.06 411.78,1252.31 409.02,1252.31 409.02,1246.81 406.27,1246.81 406.27,1244.06 403.52,1244.06 403.52,1238.55 400.77,1238.55 400.77,1235.8 398.02,1235.8 398.02,1230.3 395.27,1230.3 395.27,1227.55 392.52,1227.55 392.52,1224.8 389.76,1224.8 389.76,1219.3 387.01,1219.3 387.01,1216.54 384.26,1216.54 384.26,1213.79 381.51,1213.79 381.51,1211.04 378.76,1211.04 378.76,1208.29 376.01,1208.29 376.01,1205.54 373.26,1205.54 373.26,1202.79 370.51,1202.79 370.51,1200.04 367.75,1200.04 367.75,1197.28 365,1197.28 365,1194.54 362.25,1194.54 362.25,1191.78 359.5,1191.78 359.5,1189.03 354,1189.03 354,1186.28 351.25,1186.28 351.25,1183.53 345.74,1183.53 345.74,1180.78 342.99,1180.78 342.99,1178.03 337.49,1178.03 337.49,1175.27 334.74,1175.27 334.74,1172.52 329.24,1172.52 329.24,1169.77 323.73,1169.77 323.73,1167.02 315.48,1167.02 315.48,1164.27 304.48,1164.27 304.48,1161.52 298.97,1161.52 298.97,1158.77 285.21,1158.77 285.21,1156.01 252.2,1156.01 252.2,1158.77 241.19,1158.77 241.19,1161.52 230.19,1161.52 230.19,1164.27 219.18,1164.27 219.18,1167.02 213.68,1167.02 213.68,1169.77 208.18,1169.77 208.18,1172.52 202.68,1172.52 202.68,1175.27 197.17,1175.27 197.17,1178.03 191.67,1178.03 191.67,1180.78 188.92,1180.78 188.92,1183.53 186.17,1183.53 186.17,1186.28 180.67,1186.28 180.67,1189.03 177.91,1189.03 177.91,1191.78 172.41,1191.78 172.41,1194.54 169.66,1194.54 169.66,1197.28 166.91,1197.28 166.91,1200.04 164.16,1200.04 164.16,1202.79 161.41,1202.79 161.41,1205.54 158.65,1205.54 158.65,1208.29 155.9,1208.29 155.9,1211.04 153.15,1211.04 153.15,1213.79 150.4,1213.79 150.4,1216.54 147.65,1216.54 147.65,1219.3 144.9,1219.3 144.9,1222.05 142.15,1222.05 142.15,1227.55 139.4,1227.55 139.4,1230.3 136.64,1230.3 136.64,1235.8 133.89,1235.8 133.89,1238.55 131.14,1238.55 131.14,1241.31 128.39,1241.31 128.39,1246.81 125.64,1246.81 125.64,1249.56 122.89,1249.56 122.89,1255.06 120.14,1255.06 120.14,1257.81 117.38,1257.81 117.38,1263.31 114.63,1263.31 114.63,1268.82 111.88,1268.82 111.88,1271.57 109.13,1271.57 109.13,1274.32 106.38,1274.32 106.38,1279.82 103.63,1279.82 103.63,1282.58 100.88,1282.58 100.88,1288.08 98.13,1288.08 98.13,1293.58 95.37,1293.58 95.37,1274.32 98.13,1274.32 98.13,1244.06 100.88,1244.06 100.88,1211.04 103.63,1211.04 103.63,1189.03 106.38,1189.03 106.38,1153.26 109.13,1153.26 109.13,1112 111.88,1112 111.88,1065.22 114.63,1065.22 114.63,1023.95 117.38,1023.95 117.38,990.94 120.14,990.94 120.14,952.42 122.89,952.42 122.89,916.65 125.64,916.65 125.64,858.88 128.39,858.88 128.39,828.61 131.14,828.61 131.14,790.09 133.89,790.09 133.89,770.83 136.64,770.83 136.64,743.32 139.4,743.32 139.4,718.56 142.15,718.56 142.15,702.05 144.9,702.05 144.9,685.54 147.65,685.54 147.65,660.78 150.4,660.78 150.4,652.53 153.15,652.53 153.15,636.02 155.9,636.02 155.9,616.76 158.65,616.76 158.65,605.75 161.41,605.75 161.41,589.24 164.16,589.24 164.16,578.24 166.91,578.24 166.91,561.73 169.66,561.73 169.66,547.98 172.41,547.98 172.41,536.97 175.16,536.97 175.16,525.97 177.91,525.97 177.91,512.21 180.67,512.21 180.67,501.2 183.41,501.2 183.41,490.2 186.17,490.2 186.17,481.94 188.92,481.94 188.92,468.19 191.67,468.19 191.67,457.18 194.42,457.18 194.42,446.18 197.17,446.18 197.17,435.17 199.92,435.17 199.92,424.17 202.68,424.17 202.68,413.16 205.43,413.16 205.43,402.16 208.18,402.16 208.18,391.15 210.93,391.15 210.93,380.15 213.68,380.15 213.68,371.89 216.43,371.89 216.43,360.89 219.18,360.89 219.18,352.63 221.94,352.63 221.94,341.63 224.69,341.63 224.69,330.62 227.44,330.62 227.44,319.62 230.19,319.62 230.19,314.12 232.94,314.12 232.94,303.11 235.69,303.11 235.69,297.61 238.44,297.61 238.44,286.6 241.19,286.6 241.19,278.35 243.95,278.35 243.95,272.85 246.7,272.85 246.7,264.59 249.45,264.59 249.45,256.34 252.2,256.34 252.2,250.84 254.95,250.84 254.95,245.33 257.7,245.33 257.7,239.83 260.45,239.83 260.45,234.33 263.2,234.33 263.2,228.82 265.95,228.82 265.95,223.32 268.71,223.32 268.71,217.82 271.46,217.82 271.46,215.07 274.21,215.07 274.21,209.57 276.96,209.57 276.96,206.81 279.71,206.81 279.71,204.06 282.46,204.06 282.46,201.31 285.21,201.31 285.21,198.56 287.97,198.56 287.97,195.81 293.47,195.81 293.47,193.06 304.48,193.06 "/>
  <g id="_2327726656496">
   <polygon class="fil3" points="266.64,599.57 265.27,599.57 265.27,613.32 262.52,613.32 262.52,624.33 259.77,624.33 259.77,635.33 257.02,635.33 257.02,649.09 254.27,649.09 254.27,665.6 251.52,665.6 251.52,676.6 248.77,676.6 248.77,693.11 246.01,693.11 246.01,704.12 243.26,704.12 243.26,723.38 240.51,723.38 240.51,739.89 237.76,739.89 237.76,748.14 235.01,748.14 235.01,772.9 232.26,772.9 232.26,789.41 229.5,789.41 229.5,805.92 226.76,805.92 226.76,830.68 224,830.68 224,858.19 221.25,858.19 221.25,877.45 218.5,877.45 218.5,915.97 215.75,915.97 215.75,946.23 213,946.23 213,1004.01 210.25,1004.01 210.25,1039.78 207.5,1039.78 207.5,1068.65 324.42,1068.65 324.42,1056.29 321.66,1056.29 321.66,1015.02 318.91,1015.02 318.91,971 316.16,971 316.16,948.98 313.41,948.98 313.41,924.22 310.66,924.22 310.66,902.21 307.91,902.21 307.91,874.7 305.16,874.7 305.16,855.44 302.4,855.44 302.4,838.93 299.65,838.93 299.65,814.17 296.9,814.17 296.9,797.66 294.15,797.66 294.15,778.4 291.4,778.4 291.4,770.15 288.65,770.15 288.65,753.64 285.9,753.64 285.9,737.13 283.15,737.13 283.15,720.63 280.4,720.63 280.4,704.12 277.64,704.12 277.64,682.11 274.89,682.11 274.89,665.6 272.14,665.6 272.14,638.09 269.39,638.09 269.39,616.08 266.64,616.08 "/>
  </g>
  <path id="outline" class="fil4" d="M505.32 1582.47l-2.75 0 0 -19.26 -2.75 0 0 -11.01 -2.76 0 0 -11 -2.74 0 0 -13.76 -2.76 0 0 -8.25 -2.75 0 0 -11.01 -2.75 0 0 -11 -2.75 0 0 -11.01 -2.75 0 0 -5.5 -2.75 0 0 -11.01 -2.75 0 0 -11 -2.76 0 0 -8.25 -2.75 0 0 -8.26 -2.75 0 0 -8.25 -2.75 0 0 -5.51 -2.75 0 0 -8.25 -2.75 0 0 -5.5 -2.75 0 0 -8.26 -2.75 0 0 -8.25 -2.76 0 0 -5.5 -2.75 0 0 -8.26 -2.75 0 0 -8.25 -2.75 0 0 -5.5 -2.75 0 0 -8.26 -2.75 0 0 -8.25 -2.75 0 0 -5.5 -2.76 0 0 -5.5 -2.75 0 0 -8.26 -2.75 0 0 -5.5 -2.75 0 0 -5.5 -2.75 0 0 -5.51 -2.75 0 0 -8.25 -2.76 0 0 -2.75 -2.74 0 0 -5.5 -2.76 0 0 -5.51 -2.75 0 0 -5.5 -2.75 0 0 -5.5 -2.75 0 0 -5.51 -2.75 0 0 -2.75 -2.75 0 0 -5.5 -2.75 0 0 -5.5 -2.76 0 0 -5.5 -2.75 0 0 -2.76 -2.75 0 0 -5.5 -2.75 0 0 -2.75 -2.75 0 0 -2.75 -2.75 0 0 -5.5 -2.75 0 0 -2.76 -2.75 0 0 -2.75 -2.76 0 0 -2.75 -2.75 0 0 -5.5 -2.75 0 0 -2.75 -2.75 0 0 -2.75 -2.75 0 0 -2.75 -5.5 0 0 -5.51 -2.76 0 0 -2.75 -5.5 0 0 -2.75 -2.75 0 0 -2.75 -5.5 0 0 -2.75 -2.75 0 0 -2.75 -2.75 0 0 -2.76 -5.51 0 0 -2.74 -5.5 0 0 -2.76 -5.5 0 0 -2.75 -5.51 0 0 -2.75 -11 0 0 -2.75 -11.01 0 0 -2.75 -35.76 0 0 2.75 -8.26 0 0 2.75 -13.75 0 0 2.75 -5.5 0 0 2.75 -5.51 0 0 2.76 -5.5 0 0 2.74 -5.5 0 0 2.76 -5.51 0 0 2.75 -2.75 0 0 2.75 -2.75 0 0 2.75 -2.75 0 0 2.75 -2.75 0 0 2.75 -2.75 0 0 2.75 -5.5 0 0 2.76 -2.76 0 0 2.75 -2.75 0 0 2.75 -2.75 0 0 2.75 -2.75 0 0 2.75 -2.75 0 0 5.5 -2.75 0 0 2.75 -2.75 0 0 2.76 -2.76 0 0 2.75 -2.75 0 0 5.5 -2.75 0 0 2.75 -2.75 0 0 5.5 -2.75 0 0 2.76 -2.75 0 0 2.74 -2.75 0 0 5.51 -2.75 0 0 2.75 -2.76 0 0 5.5 -2.75 0 0 2.75 -2.75 0 0 2.76 -2.75 0 0 5.5 -2.75 0 0 5.5 -2.75 0 0 5.5 -2.75 0 0 5.5 -2.76 0 0 2.76 -2.75 0 0 5.5 -2.75 0 0 5.5 -2.75 0 0 5.51 -2.75 0 0 5.5 -2.75 0 0 5.5 -2.75 0 0 5.5 -2.75 0 0 5.5 -2.76 0 0 8.26 -2.75 0 0 5.5 -2.75 0 0 5.5 -2.75 0 0 5.51 -2.75 0 0 8.25 -2.75 0 0 5.5 -2.75 0 0 8.26 -2.76 0 0 5.5 -2.74 0 0 8.25 -2.76 0 0 8.26 -2.75 0 0 11.01 -2.75 0 0 8.25 -2.75 0 0 11 -2.75 0 0 8.26 -2.75 0 0 5.5 -2.76 0 0 11 -2.75 0 0 8.26 -2.75 0 0 8.25 -2.75 0 0 11.01 -2.75 0 0 8.25 -2.75 0 0 11.01 -2.75 0 0 16.51 -2.76 0 0 8.25 -2.75 0 0 16.51 -2.75 0 0 19.25 -2.75 0 0 16.51 -2.75 0 0 79.79 2.75 0 0 13.76 2.75 0 0 8.25 2.75 0 0 8.26 2.75 0 0 5.5 2.76 0 0 5.5 2.75 0 0 5.5 2.75 0 0 2.75 2.75 0 0 5.51 2.75 0 0 2.75 2.75 0 0 2.75 2.75 0 0 5.5 2.76 0 0 2.75 2.75 0 0 2.76 2.75 0 0 2.74 2.75 0 0 2.76 2.75 0 0 2.75 2.75 0 0 2.75 5.5 0 0 2.75 2.76 0 0 2.75 2.75 0 0 2.75 5.5 0 0 2.76 2.75 0 0 2.75 2.75 0 0 2.75 5.51 0 0 2.75 2.75 0 0 2.75 2.75 0 0 2.75 5.5 0 0 2.75 2.75 0 0 2.76 2.75 0 0 2.74 5.51 0 0 2.76 5.5 0 0 2.75 2.75 0 0 2.75 5.5 0 0 2.75 2.75 0 0 2.75 2.76 0 0 2.75 5.5 0 0 2.75 2.75 0 0 2.76 5.5 0 0 2.75 5.5 0 0 2.75 2.76 0 0 2.75 2.75 0 0 2.75 5.5 0 0 2.75 2.75 0 0 2.75 5.5 0 0 2.75 5.5 0 0 2.76 2.76 0 0 2.75 5.5 0 0 2.75 5.5 0 0 2.75 2.75 0 0 2.75 5.51 0 0 2.75 2.75 0 0 2.75 8.25 0 0 2.76 5.51 0 0 2.75 5.5 0 0 2.75 5.5 0 0 2.75 44.02 0 0 -2.75 11.01 0 0 -2.75 5.5 0 0 -2.75 8.25 0 0 -2.76 5.5 0 0 -2.75 2.76 0 0 -2.75 5.5 0 0 -2.75 5.5 0 0 -2.75 5.5 0 0 -2.75 5.51 0 0 -2.75 2.75 0 0 -2.76 5.5 0 0 -2.75 5.5 0 0 -2.75 2.75 0 0 -2.75 5.51 0 0 -2.75 2.75 0 0 -2.75 5.5 0 0 -2.75 2.75 0 0 -2.75 5.51 0 0 -2.76 2.75 0 0 -2.75 5.5 0 0 -2.75 2.75 0 0 -2.75 5.5 0 0 -2.75 2.75 0 0 -2.75 5.51 0 0 -2.75 2.75 0 0 -2.76 5.5 0 0 -2.74 2.75 0 0 -2.76 5.51 0 0 -2.75 2.74 0 0 -2.75 5.51 0 0 -2.75 2.75 0 0 -2.75 2.75 0 0 -2.75 5.5 0 0 -2.75 2.76 0 0 -2.76 5.5 0 0 -2.75 2.75 0 0 -2.75 2.75 0 0 -2.75 2.75 0 0 -2.75 5.51 0 0 -2.75 2.75 0 0 -2.76 2.75 0 0 -2.74 2.75 0 0 -2.76 2.75 0 0 -2.75 2.75 0 0 -2.75 2.75 0 0 -2.75 2.75 0 0 -2.75 2.76 0 0 -5.5 2.75 0 0 -2.76 2.75 0 0 -2.75 2.75 0 0 -5.5 2.75 0 0 -2.75 2.75 0 0 -5.5 2.75 0 0 -8.26 2.76 0 0 -5.5 2.74 0 0 -8.25 2.76 0 0 -5.51 2.75 0 0 -22 2.75 0 0 -74.29zm-220.11 -423.7l13.76 0 0 2.75 5.51 0 0 2.75 11 0 0 2.75 8.25 0 0 2.75 5.51 0 0 2.75 5.5 0 0 2.75 2.75 0 0 2.76 5.5 0 0 2.75 2.75 0 0 2.75 5.51 0 0 2.75 2.75 0 0 2.75 5.5 0 0 2.75 2.75 0 0 2.76 2.75 0 0 2.74 2.75 0 0 2.76 2.76 0 0 2.75 2.75 0 0 2.75 2.75 0 0 2.75 2.75 0 0 2.75 2.75 0 0 2.75 2.75 0 0 2.75 2.75 0 0 2.76 2.75 0 0 5.5 2.76 0 0 2.75 2.75 0 0 2.75 2.75 0 0 5.5 2.75 0 0 2.75 2.75 0 0 5.51 2.75 0 0 2.75 2.75 0 0 5.5 2.76 0 0 2.75 2.74 0 0 5.51 2.76 0 0 5.5 2.75 0 0 5.5 2.75 0 0 2.75 2.75 0 0 2.75 2.75 0 0 -27.51 -2.75 0 0 -27.51 -2.75 0 0 -52.28 -2.75 0 0 -60.53 -2.75 0 0 -68.78 -2.76 0 0 -33.02 -2.74 0 0 -38.51 -2.76 0 0 -41.27 -2.75 0 0 -44.02 -2.75 0 0 -22.01 -2.75 0 0 -24.77 -2.75 0 0 -22.01 -2.75 0 0 -27.51 -2.75 0 0 -19.26 -2.76 0 0 -16.51 -2.75 0 0 -24.76 -2.75 0 0 -16.5 -2.75 0 0 -19.27 -2.75 0 0 -8.25 -2.75 0 0 -16.51 -2.75 0 0 -16.5 -2.75 0 0 -16.51 -2.76 0 0 -16.51 -2.75 0 0 -22.01 -2.75 0 0 -16.51 -2.75 0 0 -27.51 -2.75 0 0 -22.01 -2.75 0 0 -27.52 -2.75 0 0 -27.51 -2.76 0 0 -46.77 -2.75 0 0 -41.27 -2.75 0 0 -57.78 -2.75 0 0 -24.76 -2.75 0 0 -22.01 -2.75 0 0 -22.01 -2.75 0 0 -11.01 -2.75 0 0 -11 -2.76 0 0 -5.5 -2.75 0 0 -11.01 -2.75 0 0 -5.5 -2.75 0 0 -5.5 -2.75 0 0 -5.51 -2.75 0 0 -2.75 -2.75 0 0 -2.75 -2.76 0 0 -2.75 -2.74 0 0 -2.75 -11.01 0 0 2.75 -5.5 0 0 2.75 -2.76 0 0 2.75 -2.75 0 0 2.75 -2.75 0 0 2.75 -2.75 0 0 2.76 -2.75 0 0 5.5 -2.75 0 0 2.75 -2.75 0 0 5.5 -2.76 0 0 5.5 -2.75 0 0 5.51 -2.75 0 0 5.5 -2.75 0 0 5.5 -2.75 0 0 5.51 -2.75 0 0 5.5 -2.75 0 0 8.25 -2.75 0 0 8.26 -2.75 0 0 5.5 -2.76 0 0 8.25 -2.75 0 0 11.01 -2.75 0 0 5.5 -2.75 0 0 11.01 -2.75 0 0 5.5 -2.75 0 0 11 -2.75 0 0 11.01 -2.75 0 0 11 -2.76 0 0 8.26 -2.75 0 0 11 -2.75 0 0 8.26 -2.75 0 0 11 -2.75 0 0 11.01 -2.75 0 0 11 -2.75 0 0 11.01 -2.76 0 0 11 -2.75 0 0 11.01 -2.75 0 0 11 -2.75 0 0 11.01 -2.75 0 0 13.75 -2.75 0 0 8.26 -2.76 0 0 11 -2.74 0 0 11.01 -2.76 0 0 13.76 -2.75 0 0 11 -2.75 0 0 11.01 -2.75 0 0 13.75 -2.75 0 0 16.51 -2.75 0 0 11 -2.75 0 0 16.51 -2.76 0 0 11.01 -2.75 0 0 19.26 -2.75 0 0 16.51 -2.75 0 0 8.25 -2.75 0 0 24.76 -2.75 0 0 16.51 -2.75 0 0 16.51 -2.75 0 0 24.76 -2.76 0 0 27.51 -2.75 0 0 19.26 -2.75 0 0 38.52 -2.75 0 0 30.27 -2.75 0 0 57.77 -2.75 0 0 35.77 -2.75 0 0 38.52 -2.76 0 0 33.01 -2.75 0 0 41.27 -2.75 0 0 46.78 -2.75 0 0 41.26 -2.75 0 0 35.77 -2.75 0 0 22.01 -2.75 0 0 33.02 -2.75 0 0 30.26 -2.76 0 0 19.26 2.76 0 0 -5.5 2.75 0 0 -5.5 2.75 0 0 -2.76 2.75 0 0 -5.5 2.75 0 0 -2.75 2.75 0 0 -2.75 2.75 0 0 -5.51 2.75 0 0 -5.5 2.76 0 0 -2.75 2.75 0 0 -5.5 2.75 0 0 -2.75 2.75 0 0 -5.5 2.75 0 0 -2.76 2.75 0 0 -2.75 2.75 0 0 -5.5 2.76 0 0 -2.75 2.75 0 0 -5.5 2.75 0 0 -2.75 2.75 0 0 -2.76 2.75 0 0 -2.75 2.75 0 0 -2.75 2.75 0 0 -2.75 2.75 0 0 -2.75 2.76 0 0 -2.75 2.75 0 0 -2.75 2.75 0 0 -2.76 2.75 0 0 -2.74 2.75 0 0 -2.76 5.5 0 0 -2.75 2.76 0 0 -2.75 5.5 0 0 -2.75 2.75 0 0 -2.75 2.75 0 0 -2.75 5.5 0 0 -2.76 5.51 0 0 -2.75 5.5 0 0 -2.75 5.5 0 0 -2.75 5.5 0 0 -2.75 11.01 0 0 -2.75 11 0 0 -2.75 11.01 0 0 -2.76 33.01 0 0 2.76zm24.77 -987.72l5.5 0 0 2.75 5.5 0 0 2.75 2.75 0 0 2.75 2.75 0 0 2.75 2.76 0 0 5.5 2.75 0 0 2.76 2.75 0 0 5.5 2.75 0 0 2.75 2.75 0 0 8.25 2.75 0 0 2.76 2.75 0 0 11 2.75 0 0 5.5 2.76 0 0 11.01 2.75 0 0 13.76 2.75 0 0 13.75 2.75 0 0 16.51 2.75 0 0 38.52 2.75 0 0 35.77 2.75 0 0 38.51 2.76 0 0 55.03 2.75 0 0 27.51 2.75 0 0 35.77 2.75 0 0 16.51 2.75 0 0 24.76 2.75 0 0 27.51 2.75 0 0 8.25 2.75 0 0 30.27 2.76 0 0 13.76 2.75 0 0 19.26 2.75 0 0 11 2.75 0 0 16.51 2.75 0 0 22.01 2.75 0 0 11 2.75 0 0 22.02 2.76 0 0 16.5 2.74 0 0 24.77 2.76 0 0 24.76 2.75 0 0 8.25 2.75 0 0 35.77 2.75 0 0 27.51 2.75 0 0 33.02 2.75 0 0 13.75 2.76 0 0 49.53 2.75 0 0 44.02 2.75 0 0 44.02 2.75 0 0 52.27 2.75 0 0 90.8 2.75 0 0 33.01 2.75 0 0 27.52 2.76 0 0 33.01 2.75 0 0 33.02 2.75 0 0 16.51 2.75 0 0 11 2.75 0 0 8.25 2.75 0 0 8.26 2.75 0 0 5.5 2.75 0 0 13.76 2.76 0 0 5.5 2.75 0 0 8.25 2.75 0 0 8.26 2.75 0 0 8.25 2.75 0 0 5.51 2.75 0 0 8.25 2.75 0 0 8.25 2.76 0 0 8.26 2.74 0 0 5.5 2.76 0 0 11 2.75 0 0 8.26 2.75 0 0 5.5 2.75 0 0 11.01 2.75 0 0 11 2.75 0 0 13.76 2.75 0 0 5.5 2.76 0 0 13.76 2.75 0 0 19.26 2.75 0 0 11 2.75 0 0 35.77 2.75 0 0 55.03 -2.75 0 0 13.75 -2.75 0 0 16.51 -2.75 0 0 8.25 -2.75 0 0 8.26 -2.76 0 0 5.5 -2.75 0 0 5.5 -2.75 0 0 5.5 -2.75 0 0 5.51 -2.75 0 0 2.75 -2.75 0 0 5.5 -2.75 0 0 2.75 -2.76 0 0 2.75 -2.74 0 0 5.51 -2.76 0 0 2.74 -2.75 0 0 2.76 -2.75 0 0 2.75 -2.75 0 0 2.75 -2.75 0 0 2.75 -2.75 0 0 2.75 -2.75 0 0 2.75 -2.76 0 0 2.76 -2.75 0 0 2.75 -2.75 0 0 2.75 -2.75 0 0 2.75 -5.5 0 0 2.75 -2.75 0 0 2.75 -2.75 0 0 2.75 -5.51 0 0 2.76 -2.75 0 0 2.74 -5.5 0 0 2.76 -2.75 0 0 2.75 -5.51 0 0 2.75 -2.75 0 0 2.75 -2.75 0 0 2.75 -5.5 0 0 2.75 -2.75 0 0 2.75 -5.5 0 0 2.76 -2.76 0 0 2.75 -5.5 0 0 2.75 -2.75 0 0 2.75 -5.5 0 0 2.75 -2.75 0 0 2.75 -5.51 0 0 2.75 -2.75 0 0 2.75 -5.5 0 0 2.76 -2.75 0 0 2.75 -5.5 0 0 2.75 -2.76 0 0 2.75 -5.5 0 0 2.75 -2.75 0 0 2.75 -5.5 0 0 2.75 -2.75 0 0 2.76 -5.51 0 0 2.75 -5.5 0 0 2.75 -2.75 0 0 2.75 -5.5 0 0 2.75 -5.51 0 0 2.75 -5.5 0 0 2.76 -5.5 0 0 2.74 -5.5 0 0 2.76 -5.5 0 0 2.75 -11.01 0 0 2.75 -2.75 0 0 2.75 -13.76 0 0 2.75 -44.02 0 0 -2.75 -8.25 0 0 -2.75 -8.26 0 0 -2.75 -5.5 0 0 -2.75 -8.25 0 0 -2.76 -5.51 0 0 -2.74 -2.75 0 0 -2.76 -5.5 0 0 -2.75 -2.75 0 0 -2.75 -5.5 0 0 -2.75 -5.51 0 0 -2.75 -2.75 0 0 -2.75 -5.5 0 0 -2.76 -2.75 0 0 -2.75 -5.51 0 0 -2.75 -2.75 0 0 -2.75 -5.5 0 0 -2.75 -2.75 0 0 -2.75 -5.5 0 0 -2.75 -5.51 0 0 -2.76 -2.75 0 0 -2.75 -2.75 0 0 -2.75 -5.5 0 0 -2.75 -2.75 0 0 -2.75 -5.51 0 0 -2.75 -2.75 0 0 -2.75 -5.5 0 0 -2.75 -2.75 0 0 -2.76 -2.75 0 0 -2.75 -5.5 0 0 -2.75 -5.51 0 0 -2.75 -2.75 0 0 -2.75 -2.75 0 0 -2.75 -5.5 0 0 -2.75 -2.75 0 0 -2.76 -2.76 0 0 -2.74 -5.5 0 0 -2.76 -2.75 0 0 -2.75 -2.75 0 0 -2.75 -2.75 0 0 -2.75 -2.75 0 0 -2.75 -5.51 0 0 -2.75 -2.75 0 0 -2.75 -2.75 0 0 -2.76 -2.75 0 0 -2.75 -2.75 0 0 -2.75 -2.75 0 0 -2.75 -2.75 0 0 -2.75 -2.76 0 0 -2.75 -2.75 0 0 -5.5 -2.75 0 0 -2.76 -2.75 0 0 -5.5 -2.75 0 0 -2.75 -2.75 0 0 -5.5 -2.75 0 0 -5.51 -2.75 0 0 -5.5 -2.75 0 0 -2.75 -2.76 0 0 -8.25 -2.75 0 0 -8.26 -2.75 0 0 -8.25 -2.75 0 0 -16.51 -2.75 0 0 -77.04 2.75 0 0 -22 2.75 0 0 -16.51 2.75 0 0 -11.01 2.75 0 0 -11 2.76 0 0 -16.51 2.75 0 0 -8.26 2.75 0 0 -13.75 2.75 0 0 -5.5 2.75 0 0 -11.01 2.75 0 0 -11.01 2.75 0 0 -11 2.75 0 0 -5.5 2.75 0 0 -8.26 2.76 0 0 -13.75 2.75 0 0 -11.01 2.75 0 0 -8.25 2.75 0 0 -5.51 2.75 0 0 -8.25 2.75 0 0 -8.25 2.75 0 0 -8.26 2.76 0 0 -16.51 2.75 0 0 -5.5 2.75 0 0 -22.01 2.75 0 0 -11 2.75 0 0 -27.52 2.75 0 0 -27.51 2.76 0 0 -24.76 2.74 0 0 -30.27 2.76 0 0 -16.5 2.75 0 0 -41.27 2.75 0 0 -35.77 2.75 0 0 -44.02 2.75 0 0 -22.01 2.75 0 0 -44.02 2.75 0 0 -52.28 2.76 0 0 -24.76 2.75 0 0 -55.02 2.75 0 0 -44.03 2.75 0 0 -33.01 2.75 0 0 -27.51 2.75 0 0 -27.52 2.75 0 0 -16.51 2.75 0 0 -22 2.76 0 0 -16.51 2.75 0 0 -22.02 2.75 0 0 -16.5 2.75 0 0 -19.26 2.75 0 0 -19.26 2.75 0 0 -8.25 2.75 0 0 -19.27 2.76 0 0 -11 2.75 0 0 -11 2.75 0 0 -16.51 2.75 0 0 -11.01 2.75 0 0 -16.51 2.75 0 0 -11 2.75 0 0 -11.01 2.75 0 0 -11 2.76 0 0 -11.01 2.75 0 0 -13.75 2.75 0 0 -5.51 2.75 0 0 -16.5 2.75 0 0 -5.51 2.75 0 0 -11 2.75 0 0 -16.51 2.76 0 0 -8.25 2.74 0 0 -11.01 2.76 0 0 -11 2.75 0 0 -5.51 2.75 0 0 -11 2.75 0 0 -11.01 2.75 0 0 -8.25 2.75 0 0 -13.76 2.76 0 0 -5.5 2.75 0 0 -11 2.75 0 0 -11.01 2.75 0 0 -11.01 2.75 0 0 -5.5 2.75 0 0 -11 2.75 0 0 -8.25 2.76 0 0 -8.26 2.75 0 0 -5.5 2.75 0 0 -5.51 2.75 0 0 -8.25 2.75 0 0 -5.5 2.75 0 0 -5.51 2.75 0 0 -5.5 2.75 0 0 -5.5 2.76 0 0 -5.5 2.75 0 0 -2.75 2.75 0 0 -5.51 2.75 0 0 -2.75 2.75 0 0 -5.5 2.75 0 0 -2.75 2.75 0 0 -2.75 2.75 0 0 -5.5 2.75 0 0 -2.76 2.76 0 0 -2.75 5.5 0 0 -2.75 2.75 0 0 -2.75 5.5 0 0 -2.75 8.26 0 0 -2.75 19.26 0 0 2.75z"/>
 </g>
</svg>
