<?xml version="1.0" encoding="UTF-8"?>
<!DOCTYPE svg PUBLIC "-//W3C//DTD SVG 1.1//EN" "http://www.w3.org/Graphics/SVG/1.1/DTD/svg11.dtd">
<!-- Creator: CorelDRAW (Versión de evaluación) -->
<svg xmlns="http://www.w3.org/2000/svg" xml:space="preserve" width="616px" height="2062px" version="1.1" style="shape-rendering:geometricPrecision; text-rendering:geometricPrecision; image-rendering:optimizeQuality; fill-rule:evenodd; clip-rule:evenodd"
viewBox="0 0 616 2063.32"
 xmlns:xlink="http://www.w3.org/1999/xlink"
 xmlns:xodm="http://www.corel.com/coreldraw/odm/2003">
 <defs>
  <style type="text/css">
   <![CDATA[
    .fil4 {fill:#4B4B4D}
    .fil1 {fill:#FFCC29}
    .fil3 {fill:#F7ADAF}
    .fil2 {fill:#F3EDD9}
    .fil0 {fill:#F8FBFF}
   ]]>
  </style>
 </defs>
 <g id="pulpotomy">
  <metadata id="CorelCorpID_0Corel-Layer"/>
  <path id="crown" class="fil0" d="M585.76 1579.24c12.8,-63.55 -36.13,-180.4 -58.16,-234.33 -31.07,-76.07 -66.88,-121 -151.76,-144.65 -171.06,-47.66 -274.15,137.72 -322.33,264.39 -35.16,92.42 -36.7,158.57 20.49,225.52 35.54,41.62 118.69,99 169.88,125.99 34.74,18.31 65.72,-9.4 92.63,-39.37 89.82,-99.99 231.09,-107.37 249.25,-197.55z"/>
  <g id="_1715459102704">
   <path class="fil1" d="M542.54 1570.53c9.95,-49.38 -36.13,-160.91 -55.75,-208.95 -26.59,-65.1 -53,-99.41 -122.78,-118.85 -141.3,-39.37 -228.67,130.79 -269.3,237.59 -25.59,67.29 -37.21,122.65 12.81,181.22 33.45,39.16 110.98,91.4 156.92,115.62 8.71,4.59 34.04,-24.01 39.27,-29.83 47.34,-52.7 102.61,-79.91 163.81,-112.03 24.61,-12.92 68.87,-34.21 75.02,-64.77z"/>
  </g>
  <path id="root" class="fil2" d="M187.04 662.14c0.19,99.98 4.49,338.48 -4.72,430.93 -4.02,40.24 -13.08,92.51 -12.78,130.47 46.31,-25.59 79.65,-52.35 148.64,-55.74 65.59,-3.22 118.08,22.93 156.66,51.14 0.71,-54.05 -70.33,-413.95 -88.2,-479.53 -28.78,-105.64 -57.07,-229.5 -94.32,-330.71 -12.1,-32.87 -26.42,-81.55 -61.62,-85.4 -55.27,44.85 -44.02,255.49 -43.66,338.84z"/>
  <g id="_1715459102416">
   <path class="fil3" d="M382.61 1097.78c-5.95,-34.29 -12.29,-68.53 -18.78,-102.7 -9.29,-48.86 -18.95,-97.68 -29.14,-146.36 -6.18,-29.52 -12.24,-60.58 -20.16,-89.66 -18.29,-67.1 -34.68,-135.93 -53.76,-203.6 -0.02,35.46 0.91,70.83 1.02,106.45 0.21,72.86 1.26,145.7 1.2,218.58 -0.05,71.51 0.78,148.96 -6.3,219.99 -0.01,0.18 -0.03,0.36 -0.05,0.54 16.92,-4.09 35.7,-6.79 57.88,-7.88 23.26,-1.14 45.99,0.51 68.09,4.64z"/>
  </g>
  <path id="outline" class="fil4" d="M585.76 1579.24c-18.16,90.18 -159.43,97.56 -249.25,197.55 -26.91,29.97 -57.89,57.68 -92.63,39.37 -51.19,-26.99 -134.34,-84.37 -169.88,-125.99 -57.19,-66.95 -55.65,-133.1 -20.49,-225.52 48.18,-126.67 151.27,-312.05 322.33,-264.39 84.88,23.65 120.69,68.58 151.76,144.65 22.03,53.93 70.96,170.78 58.16,234.33zm-398.72 -917.1c-0.36,-83.35 -11.61,-293.99 43.66,-338.84 35.2,3.85 49.52,52.53 61.62,85.4 37.25,101.21 65.54,225.07 94.32,330.71 17.87,65.58 88.91,425.48 88.2,479.53 -38.58,-28.21 -91.07,-54.36 -156.66,-51.14 -68.99,3.39 -102.33,30.15 -148.64,55.74 -0.3,-37.96 8.76,-90.23 12.78,-130.47 9.21,-92.45 4.91,-330.95 4.72,-430.93zm36.95 -363.44c-89.49,30.32 -63.13,415.35 -62.92,480.16 0.29,88.27 1.1,178.86 -3.7,266.63l-16.35 186.05c-3.26,30.98 -7.44,28.41 -21.99,48.48 -29.77,41.05 -71.76,124.8 -92.9,178.02 -30.73,77.39 -41.11,148.63 3.23,218.19 16.59,26.02 75.87,80.56 100.58,99.75 49.17,38.19 127.39,100.47 181.34,58.95 17.03,-13.11 23.78,-16.75 38,-32.92 53.66,-61.03 96.83,-68.68 162.38,-108.67 58.05,-35.41 115.95,-69.19 101.68,-167.15 -23.87,-163.8 -102.04,-252.21 -108.42,-296.83 -5.59,-39.15 -12.59,-78.23 -18.76,-117.95 -35.65,-229.56 -83.51,-443.87 -150.2,-662.93 -16.2,-53.19 -52.04,-170.09 -111.97,-149.78z"/>
 </g>
</svg>
