<?xml version="1.0" encoding="UTF-8"?>
<!DOCTYPE svg PUBLIC "-//W3C//DTD SVG 1.1//EN" "http://www.w3.org/Graphics/SVG/1.1/DTD/svg11.dtd">
<!-- Creator: CorelDRAW (Versión de evaluación) -->
<svg xmlns="http://www.w3.org/2000/svg" xml:space="preserve" width="453px" height="2062px" version="1.1" style="shape-rendering:geometricPrecision; text-rendering:geometricPrecision; image-rendering:optimizeQuality; fill-rule:evenodd; clip-rule:evenodd"
viewBox="0 0 453 2062.08"
 xmlns:xlink="http://www.w3.org/1999/xlink"
 xmlns:xodm="http://www.corel.com/coreldraw/odm/2003">
 <defs>
  <style type="text/css">
   <![CDATA[
    .fil4 {fill:#4B4B4D}
    .fil1 {fill:#FFCC29}
    .fil3 {fill:#F7ADAF}
    .fil2 {fill:#F3EDD9}
    .fil0 {fill:#F8FBFF}
   ]]>
  </style>
 </defs>
 <g id="pulpotomy">
  <metadata id="CorelCorpID_0Corel-Layer"/>
  <path id="crown" class="fil0" d="M30.66 1587.07c9.55,59.98 57.28,77.77 123,83.93 47.27,4.43 156.21,4.02 204.51,0.92 84.85,-5.44 73.9,-59.25 56.46,-129.12 -16.81,-67.35 -82.26,-239.1 -140.84,-271.58 -187.51,-103.95 -270.06,146.61 -243.13,315.85z"/>
  <g id="_1750666001072">
   <path class="fil1" d="M60.34 1582.35c2.9,18.25 10.19,31.56 26.13,41.06 19.42,11.56 47.84,15.6 70,17.67 32.27,3.03 66.68,3.1 99.11,3.16 33.29,0.05 67.44,-0.17 100.67,-2.3 12.58,-0.81 35.53,-2.32 39.35,-17.67 4.58,-18.39 -5.55,-55.91 -10.12,-74.19 -5.31,-21.27 -12.53,-42.75 -19.97,-63.36 -9.78,-27.11 -20.71,-53.98 -32.87,-80.11 -12.87,-27.64 -46.23,-94.04 -73.42,-109.11 -68.91,-38.2 -122.64,-23.18 -161.36,44.18 -38.29,66.58 -49.51,165.37 -37.52,240.67z"/>
  </g>
  <path id="root" class="fil2" d="M90.46 1254.19c14.09,-7.4 21.41,-16.45 43.3,-24.81 16.04,-6.13 38.55,-9.74 57.62,-9.42 48.12,0.83 70.74,17.66 107.03,31.53 -4.05,-40.51 -85.18,-674.97 -157.07,-698.15 -42.86,40.94 -42.11,263.12 -39.92,336.49 3.82,128.33 1.06,238.33 -10.96,364.36z"/>
  <g id="_1750666001408">
   <path class="fil3" d="M152.64 1167.71c13.41,-2.18 27.03,-3.18 39.68,-2.96 13.78,0.24 26.93,1.55 39.87,4.04 -1.04,-7.34 -2.08,-14.65 -3.1,-21.93 -10.05,-71.52 -21.04,-142.97 -33.37,-214.13 -11.02,-63.63 -22.97,-127.92 -37.84,-190.97 -2.45,48.6 -2.71,97.98 -1.26,146.42 2.81,94.3 1.78,186.48 -3.98,279.53z"/>
  </g>
  <path id="outline" class="fil4" d="M30.66 1587.07c-26.93,-169.24 55.62,-419.8 243.13,-315.85 58.58,32.48 124.03,204.23 140.84,271.58 17.44,69.87 28.39,123.68 -56.46,129.12 -48.3,3.1 -157.24,3.51 -204.51,-0.92 -65.72,-6.16 -113.45,-23.95 -123,-83.93zm59.8 -332.88c12.02,-126.03 14.78,-236.03 10.96,-364.36 -2.19,-73.37 -2.94,-295.55 39.92,-336.49 71.89,23.18 153.02,657.64 157.07,698.15 -36.29,-13.87 -58.91,-30.7 -107.03,-31.53 -19.07,-0.32 -41.58,3.29 -57.62,9.42 -21.89,8.36 -29.21,17.41 -43.3,24.81zm37.59 -726.94c-57.23,34.85 -57.89,285.86 -55.22,351.58 5.29,129.8 6.56,268.79 -9.35,395.8 -3.31,26.43 -37.38,51.02 -53.45,147.35 -51.51,308.91 84.17,275.03 314.62,278.76 67.97,1.1 122.21,-8.71 127,-75.96 4.22,-59.2 -19.69,-119.43 -37.18,-169.16 -14.55,-41.35 -42.48,-107.46 -63.65,-140.51 -36.08,-56.34 -27.95,-81.62 -38.36,-165.72 -14.51,-117.18 -32.22,-234.66 -56.75,-347 -11.81,-54.14 -60.14,-316.25 -127.66,-275.14z"/>
 </g>
</svg>
