<?xml version="1.0" encoding="UTF-8"?>
<!DOCTYPE svg PUBLIC "-//W3C//DTD SVG 1.1//EN" "http://www.w3.org/Graphics/SVG/1.1/DTD/svg11.dtd">
<!-- Creator: CorelDRAW (Versión de evaluación) -->
<svg xmlns="http://www.w3.org/2000/svg" xml:space="preserve" width="801px" height="2052px" version="1.1" style="shape-rendering:geometricPrecision; text-rendering:geometricPrecision; image-rendering:optimizeQuality; fill-rule:evenodd; clip-rule:evenodd"
viewBox="0 0 801 2052.71"
 xmlns:xlink="http://www.w3.org/1999/xlink"
 xmlns:xodm="http://www.corel.com/coreldraw/odm/2003">
 <defs>
  <style type="text/css">
   <![CDATA[
    .fil4 {fill:#4B4B4D}
    .fil3 {fill:#FFCC29}
    .fil1 {fill:#F7ADAF}
    .fil0 {fill:#F3EDD9}
    .fil2 {fill:#F8FBFF}
   ]]>
  </style>
 </defs>
 <g id="pulpotomy">
  <metadata id="CorelCorpID_0Corel-Layer"/>
  <path id="root" class="fil0" d="M574.32 324.16l-2.76 0 0 2.75 -2.75 0 0 5.5 -2.75 0 0 5.51 -2.75 0 0 5.5 -2.75 0 0 13.77 -2.76 0 0 82.57 2.76 0 0 121.12 -2.76 0 0 33.03 -2.75 0 0 19.27 -2.75 0 0 19.27 -2.76 0 0 13.76 -2.75 0 0 19.27 -2.75 0 0 11.01 -2.75 0 0 13.76 -2.76 0 0 11.01 -2.75 0 0 13.76 -2.75 0 0 8.26 -2.75 0 0 8.26 -2.76 0 0 13.76 -2.75 0 0 8.26 -2.75 0 0 11.01 -2.75 0 0 8.26 -2.76 0 0 5.5 -2.75 0 0 8.26 -2.75 0 0 5.51 -2.75 0 0 11.01 -2.76 0 0 8.25 -2.75 0 0 5.51 -2.75 0 0 8.26 -2.76 0 0 5.5 -2.75 0 0 5.51 -2.75 0 0 8.26 -2.75 0 0 5.5 -2.75 0 0 5.51 -2.76 0 0 5.5 -2.75 0 0 2.75 -2.75 0 0 5.51 -2.76 0 0 5.5 -2.75 0 0 5.51 -2.75 0 0 2.75 -2.75 0 0 5.51 -2.76 0 0 2.75 -2.75 0 0 5.51 -2.75 0 0 2.75 -2.75 0 0 5.5 -2.75 0 0 2.75 -2.76 0 0 2.76 -2.75 0 0 5.5 -2.75 0 0 2.75 -2.76 0 0 2.76 -2.75 0 0 2.75 -2.75 0 0 2.75 -2.75 0 0 2.76 -2.76 0 0 2.75 -2.75 0 0 2.75 -2.75 0 0 2.75 -2.76 0 0 2.75 -5.5 0 0 2.76 -5.5 0 0 2.75 -5.51 0 0 2.75 -30.28 0 0 -2.75 -8.26 0 0 -2.75 -5.5 0 0 -2.76 -2.75 0 0 -2.75 -2.76 0 0 -2.75 -2.75 0 0 -2.75 -5.5 0 0 -2.75 -2.76 0 0 -2.76 -2.75 0 0 -2.75 -2.75 0 0 -5.51 -2.75 0 0 -2.75 -2.76 0 0 -2.75 -2.75 0 0 -5.51 -2.75 0 0 -2.75 -2.75 0 0 -2.75 -2.76 0 0 -5.5 -2.75 0 0 -5.51 -2.75 0 0 -2.75 -2.76 0 0 -5.51 -2.75 0 0 -5.5 -2.75 0 0 -5.51 -2.75 0 0 -2.75 -2.75 0 0 -5.51 -2.76 0 0 -5.5 -2.75 0 0 -5.51 -2.75 0 0 -5.5 -2.76 0 0 -5.51 -2.75 0 0 -2.75 -2.75 0 0 -5.5 -2.75 0 0 -5.51 -2.76 0 0 -5.5 -2.75 0 0 -2.76 -2.75 0 0 -5.5 -2.76 0 0 -5.51 -2.75 0 0 -5.5 -2.75 0 0 -5.51 -2.75 0 0 -2.75 -2.75 0 0 -5.51 -2.76 0 0 -5.5 -2.75 0 0 -2.75 -2.75 0 0 -5.51 -2.76 0 0 -2.75 -2.75 0 0 -5.51 -2.75 0 0 -5.5 -2.75 0 0 -5.51 -2.76 0 0 -2.75 -2.75 0 0 -5.5 -2.75 0 0 -5.51 -2.75 0 0 -5.51 -2.75 0 0 -5.5 -2.76 0 0 -2.75 -2.75 0 0 -5.51 -2.75 0 0 -5.5 -2.76 0 0 -5.51 -2.75 0 0 -5.5 -2.75 0 0 -5.51 -2.75 0 0 -5.5 -2.76 0 0 -5.51 -2.75 0 0 -5.5 -2.75 0 0 -5.51 -2.76 0 0 -8.26 -2.75 0 0 -5.5 -2.75 0 0 -11.01 -2.75 0 0 -5.51 -2.75 0 0 -5.5 -2.76 0 0 -11.01 -2.75 0 0 -5.51 -2.75 0 0 -5.5 -2.76 0 0 -11.01 -2.75 0 0 -11.01 -2.75 0 0 -5.51 -2.75 0 0 -11.01 -2.76 0 0 -13.76 -2.75 0 0 -11.01 -2.75 0 0 -13.77 -2.75 0 0 -11.01 -2.76 0 0 -16.51 -2.75 0 0 -22.02 -2.75 0 0 -11.01 -2.75 0 0 -22.02 -2.76 0 0 -24.78 -2.75 0 0 -30.28 -2.75 0 0 -13.76 -2.75 0 0 -13.76 -2.76 0 0 -11.01 -2.75 0 0 -8.26 -2.75 0 0 -5.5 -2.76 0 0 -5.51 -2.75 0 0 -2.75 -2.75 0 0 -5.51 -2.75 0 0 -2.75 -11.01 0 0 2.75 -5.51 0 0 2.75 -2.75 0 0 2.76 -2.75 0 0 2.75 -2.76 0 0 5.51 -2.75 0 0 2.75 -2.75 0 0 5.5 -2.75 0 0 5.51 -2.76 0 0 5.5 -2.75 0 0 5.51 -2.75 0 0 11.01 -2.75 0 0 5.5 -2.76 0 0 11.01 -2.75 0 0 5.51 -2.75 0 0 13.76 -2.75 0 0 8.26 -2.76 0 0 16.52 -2.75 0 0 13.76 -2.75 0 0 19.27 -2.76 0 0 11.01 -2.75 0 0 19.26 -2.75 0 0 30.28 -2.75 0 0 121.12 2.75 0 0 33.03 2.75 0 0 19.27 2.75 0 0 13.76 2.76 0 0 19.27 2.75 0 0 22.02 2.75 0 0 8.26 2.76 0 0 16.51 2.75 0 0 16.52 2.75 0 0 11.01 2.75 0 0 8.26 2.76 0 0 13.76 2.75 0 0 13.76 2.75 0 0 8.26 2.75 0 0 16.51 2.76 0 0 5.51 2.75 0 0 13.76 2.75 0 0 11.01 2.75 0 0 13.77 2.76 0 0 5.5 2.75 0 0 16.52 2.75 0 0 16.51 2.75 0 0 16.52 2.76 0 0 13.76 2.75 0 0 19.27 2.75 0 0 19.27 2.76 0 0 35.78 2.75 0 0 82.58 -2.75 0 0 19.27 -2.76 0 0 16.51 5.51 0 0 -2.75 2.75 0 0 -2.75 5.5 0 0 -2.76 5.51 0 0 -2.75 5.51 0 0 -2.75 8.25 0 0 -2.75 5.51 0 0 -2.76 8.26 0 0 -2.75 11.01 0 0 -2.75 16.51 0 0 -2.75 16.52 0 0 -2.76 93.59 0 0 -2.75 27.52 0 0 -2.75 38.54 0 0 -2.75 11.01 0 0 -2.76 27.53 0 0 -2.75 16.51 0 0 -2.75 85.33 0 0 2.75 16.52 0 0 2.75 33.03 0 0 2.76 35.78 0 0 2.75 19.27 0 0 2.75 16.51 0 0 2.75 11.02 0 0 2.76 8.25 0 0 2.75 8.26 0 0 2.75 11.01 0 0 2.75 5.51 0 0 2.76 5.5 0 0 2.75 5.51 0 0 2.75 5.5 0 0 2.75 2.75 0 0 -11.01 -2.75 0 0 -8.25 -2.75 0 0 -22.02 -2.75 0 0 -11.02 -2.75 0 0 -137.63 2.75 0 0 -27.52 2.75 0 0 -33.03 2.75 0 0 -22.02 2.75 0 0 -11.01 2.76 0 0 -22.02 2.75 0 0 -16.52 2.75 0 0 -30.28 2.76 0 0 -30.27 2.75 0 0 -27.53 2.75 0 0 -134.88 -2.75 0 0 -27.52 -2.75 0 0 -11.01 -2.76 0 0 -16.52 -2.75 0 0 -11.01 -2.75 0 0 -11.01 -2.76 0 0 -16.52 -2.75 0 0 -11.01 -2.75 0 0 -11.01 -2.75 0 0 -5.5 -2.75 0 0 -11.01 -2.76 0 0 -13.77 -2.75 0 0 -8.25 -2.75 0 0 -5.51 -2.76 0 0 -11.01 -2.75 0 0 -5.5 -2.75 0 0 -11.01 -2.75 0 0 -8.26 -2.76 0 0 -5.51 -2.75 0 0 -8.25 -2.75 0 0 -8.26 -2.76 0 0 -5.51 -2.75 0 0 -8.26 -2.75 0 0 -5.5 -2.75 0 0 -8.26 -2.75 0 0 -5.5 -2.76 0 0 -5.51 -2.75 0 0 -5.5 -2.75 0 0 -5.51 -2.76 0 0 -5.51 -2.75 0 0 -5.5 -2.75 0 0 -2.75 -2.75 0 0 -5.51 -2.76 0 0 -2.75 -2.75 0 0 -5.51 -2.75 0 0 -2.75 -2.75 0 0 -2.75 -2.76 0 0 -5.51 -2.75 0 0 -2.75 -5.5 0 0 -2.75 -2.76 0 0 -2.75 -8.25 0 0 -2.76 -8.26 0 0 2.76zm-308.29 -38.54l-2.75 0 0 2.75 -2.76 0 0 2.75 -2.75 0 0 11.02 -2.75 0 0 11.01 -2.76 0 0 49.54 2.76 0 0 22.02 2.75 0 0 19.27 2.75 0 0 35.78 2.76 0 0 24.78 2.75 0 0 60.56 2.75 0 0 79.82 -2.75 0 0 27.53 -2.75 0 0 22.02 -2.76 0 0 33.03 -2.75 0 0 16.51 -2.75 0 0 16.52 -2.76 0 0 11.01 2.76 0 0 2.75 2.75 0 0 5.51 2.75 0 0 2.75 2.76 0 0 5.51 2.75 0 0 5.5 2.75 0 0 2.75 2.75 0 0 5.51 2.75 0 0 5.5 2.76 0 0 2.76 2.75 0 0 5.5 2.75 0 0 5.51 2.76 0 0 5.5 2.75 0 0 2.75 2.75 0 0 5.51 2.75 0 0 5.51 2.76 0 0 2.75 2.75 0 0 5.5 2.75 0 0 5.51 2.76 0 0 5.5 2.75 0 0 5.51 2.75 0 0 5.5 2.75 0 0 2.76 2.75 0 0 5.5 2.76 0 0 5.51 2.75 0 0 5.5 2.75 0 0 2.75 2.76 0 0 8.26 2.75 0 0 2.75 2.75 0 0 5.51 2.75 0 0 5.5 2.76 0 0 2.76 2.75 0 0 5.5 2.75 0 0 2.75 2.75 0 0 5.51 2.76 0 0 2.75 2.75 0 0 5.51 2.75 0 0 2.75 2.75 0 0 2.75 2.76 0 0 2.75 2.75 0 0 2.76 2.75 0 0 2.75 2.75 0 0 2.75 2.76 0 0 2.75 2.75 0 0 2.76 5.51 0 0 2.75 5.5 0 0 2.75 11.01 0 0 -2.75 8.26 0 0 -2.75 2.75 0 0 -2.76 5.51 0 0 -2.75 2.75 0 0 -2.75 2.75 0 0 -2.75 2.75 0 0 -2.76 2.75 0 0 -2.75 2.76 0 0 -5.5 2.75 0 0 -2.75 2.75 0 0 -2.76 2.76 0 0 -5.5 2.75 0 0 -2.76 2.75 0 0 -5.5 2.75 0 0 -2.75 2.76 0 0 -5.51 2.75 0 0 -2.75 2.75 0 0 -5.51 2.76 0 0 -5.5 2.75 0 0 -5.51 2.75 0 0 -5.5 2.75 0 0 -2.75 2.75 0 0 -5.51 2.76 0 0 -5.5 2.75 0 0 -5.51 2.75 0 0 -8.26 -2.75 0 0 -11.01 -2.75 0 0 -13.76 -2.76 0 0 -8.26 -2.75 0 0 -13.76 -2.75 0 0 -13.76 -2.75 0 0 -11.01 -2.75 0 0 -19.27 -2.76 0 0 -13.77 -2.75 0 0 -13.76 -2.75 0 0 -8.25 -2.76 0 0 -16.52 -2.75 0 0 -8.26 -2.75 0 0 -19.27 -2.75 0 0 -11.01 -2.76 0 0 -13.76 -2.75 0 0 -8.26 -2.75 0 0 -13.76 -2.76 0 0 -8.26 -2.75 0 0 -11.01 -2.75 0 0 -11.01 -2.75 0 0 -5.51 -2.75 0 0 -11.01 -2.76 0 0 -5.5 -2.75 0 0 -11.01 -2.75 0 0 -11.01 -2.75 0 0 -5.51 -2.76 0 0 -8.26 -2.75 0 0 -8.25 -2.75 0 0 -5.51 -2.76 0 0 -8.26 -2.75 0 0 -8.25 -2.75 0 0 -5.51 -2.75 0 0 -8.26 -2.75 0 0 -8.25 -2.76 0 0 -8.26 -2.75 0 0 -5.51 -2.75 0 0 -8.26 -2.76 0 0 -5.5 -2.75 0 0 -8.26 -2.75 0 0 -5.5 -2.75 0 0 -5.51 -2.76 0 0 -8.26 -2.75 0 0 -5.5 -2.75 0 0 -5.51 -2.75 0 0 -8.25 -2.76 0 0 -5.51 -2.75 0 0 -5.5 -2.75 0 0 -8.26 -2.75 0 0 -2.76 -2.76 0 0 -5.5 -2.75 0 0 -5.5 -2.75 0 0 -5.51 -2.75 0 0 -5.51 -2.76 0 0 -5.5 -2.75 0 0 -5.51 -2.75 0 0 -2.75 -2.76 0 0 -5.5 -2.75 0 0 -5.51 -2.75 0 0 -2.75 -2.75 0 0 -5.51 -2.75 0 0 -2.75 -2.76 0 0 -5.5 -2.75 0 0 -2.76 -2.75 0 0 -2.75 -2.76 0 0 -2.75 -2.75 0 0 -2.76 -2.75 0 0 -2.75 -2.75 0 0 -2.75 -5.51 0 0 -2.75 -13.76 0 0 2.75z"/>
  <g id="_2292410481024">
   <path class="fil1" d="M626.62 682l0 2.75 -2.75 0 0 19.27 -2.76 0 0 13.76 -2.75 0 0 19.27 -2.75 0 0 11.01 -2.75 0 0 13.76 -2.76 0 0 11.01 -2.75 0 0 13.76 -2.75 0 0 8.26 -2.76 0 0 8.26 -2.75 0 0 13.76 -2.75 0 0 8.26 -2.75 0 0 11.01 -2.75 0 0 8.26 -2.76 0 0 5.5 -2.75 0 0 8.26 -2.75 0 0 5.51 -2.75 0 0 11 -2.76 0 0 8.26 -2.75 0 0 5.51 -2.75 0 0 8.26 -2.76 0 0 5.5 -2.75 0 0 5.51 -2.75 0 0 8.25 -2.75 0 0 5.51 -2.75 0 0 5.51 -2.76 0 0 5.5 -2.75 0 0 2.75 -2.75 0 0 5.51 -2.76 0 0 5.5 -2.75 0 0 5.51 -2.75 0 0 2.75 -2.75 0 0 5.51 -2.76 0 0 2.75 -2.75 0 0 5.51 -2.75 0 0 2.75 -2.76 0 0 5.5 -2.75 0 0 2.75 -2.75 0 0 2.76 -2.75 0 0 5.5 -2.75 0 0 2.75 -2.76 0 0 2.76 -2.75 0 0 2.75 -2.75 0 0 2.75 -2.76 0 0 2.76 -2.75 0 0 2.75 -2.75 0 0 2.75 -2.75 0 0 2.75 -2.76 0 0 2.75 -5.5 0 0 2.76 -5.51 0 0 2.75 -5.5 0 0 2.75 -173.42 0 0 -2.75 -8.26 0 0 -2.75 -5.5 0 0 -2.76 -2.75 0 0 -2.75 -2.76 0 0 -2.75 -2.75 0 0 -2.75 -5.5 0 0 -2.75 -2.76 0 0 -2.76 -2.75 0 0 -2.75 -2.75 0 0 -5.51 -2.75 0 0 -2.75 -2.76 0 0 -2.75 -2.75 0 0 -5.51 -2.75 0 0 -2.75 -2.75 0 0 -2.75 -2.76 0 0 -5.5 -2.75 0 0 -5.51 -2.75 0 0 -2.75 -2.76 0 0 -5.51 -2.75 0 0 -5.5 -2.75 0 0 -5.51 -2.75 0 0 -2.75 -2.75 0 0 -5.51 -2.76 0 0 -5.5 -2.75 0 0 -5.51 -2.75 0 0 -5.5 -2.76 0 0 -5.51 -2.75 0 0 -2.75 -2.75 0 0 -5.5 -2.75 0 0 -5.51 -2.76 0 0 -5.51 -2.75 0 0 -2.75 -2.75 0 0 -5.5 -2.75 0 0 -5.51 -2.76 0 0 -5.51 -2.75 0 0 -5.5 -2.75 0 0 -2.75 -2.75 0 0 -5.51 -2.76 0 0 -5.5 -2.75 0 0 -2.75 -2.75 0 0 -5.51 -2.75 0 0 -2.75 -2.76 0 0 -5.51 -2.75 0 0 -5.5 -2.75 0 0 -5.51 -2.76 0 0 -2.75 -2.75 0 0 -5.51 -2.75 0 0 -5.5 -2.75 0 0 -5.51 -2.75 0 0 -5.5 -2.76 0 0 -2.75 -2.75 0 0 13.76 2.75 0 0 5.5 2.76 0 0 13.76 2.75 0 0 11.01 2.75 0 0 13.77 2.76 0 0 5.5 2.75 0 0 16.52 2.75 0 0 16.51 2.75 0 0 16.52 2.76 0 0 13.76 2.75 0 0 19.27 2.75 0 0 19.27 2.76 0 0 35.78 2.75 0 0 88.09 35.78 0 0 -2.76 27.52 0 0 -2.75 38.54 0 0 -2.75 11.01 0 0 -2.76 27.53 0 0 -2.75 16.51 0 0 -2.75 228.47 0 0 2.75 16.52 0 0 2.75 13.76 0 0 -156.89 2.75 0 0 -27.53 2.75 0 0 -33.03 2.75 0 0 -22.02 2.75 0 0 -11.01 2.76 0 0 -22.02 2.75 0 0 -16.52 2.75 0 0 -30.28 2.76 0 0 -30.27 2.75 0 0 -46.79 -2.75 0zm-473.45 115.6l0 -2.75 -2.75 0 0 2.75 2.75 0zm187.18 -159.65l0 38.54 -2.75 0 0 5.5 2.75 0 0 2.75 2.75 0 0 5.51 2.75 0 0 5.51 2.76 0 0 2.75 2.75 0 0 5.5 2.75 0 0 5.51 2.76 0 0 5.5 2.75 0 0 2.76 2.75 0 0 -8.26 -2.76 0 0 -13.76 -2.75 0 0 -8.26 -2.75 0 0 -13.76 -2.76 0 0 -8.26 -2.74 0 0 -11.01 -2.76 0 0 -11.01 -2.75 0 0 -5.51 -2.75 0zm22.02 82.58l0 2.75 2.75 0 0 -2.75 -2.75 0z"/>
  </g>
  <polygon id="crown" class="fil2" points="186.2,1648.15 177.94,1648.15 177.94,1645.4 172.44,1645.4 172.44,1642.65 166.93,1642.65 166.93,1639.89 164.18,1639.89 164.18,1637.14 158.68,1637.14 158.68,1634.39 155.92,1634.39 155.92,1631.64 153.17,1631.64 153.17,1628.88 150.42,1628.88 150.42,1626.13 147.67,1626.13 147.67,1623.38 144.91,1623.38 144.91,1620.63 142.16,1620.63 142.16,1615.12 139.41,1615.12 139.41,1612.37 136.66,1612.37 136.66,1609.62 133.9,1609.62 133.9,1604.11 131.15,1604.11 131.15,1601.36 128.4,1601.36 128.4,1598.6 125.64,1598.6 125.64,1593.1 122.89,1593.1 122.89,1587.6 120.14,1587.6 120.14,1582.09 117.39,1582.09 117.39,1576.58 114.64,1576.58 114.64,1571.08 111.88,1571.08 111.88,1565.57 109.13,1565.57 109.13,1560.07 106.38,1560.07 106.38,1549.06 103.62,1549.06 103.62,1538.05 100.87,1538.05 100.87,1524.29 98.12,1524.29 98.12,1510.52 95.37,1510.52 95.37,1455.47 100.87,1455.47 100.87,1463.73 103.62,1463.73 103.62,1480.24 106.38,1480.24 106.38,1496.76 109.13,1496.76 109.13,1507.77 111.88,1507.77 111.88,1513.28 114.64,1513.28 114.64,1527.04 117.39,1527.04 117.39,1532.54 120.14,1532.54 120.14,1540.8 122.89,1540.8 122.89,1546.31 125.64,1546.31 125.64,1551.81 128.4,1551.81 128.4,1557.31 131.15,1557.31 131.15,1562.82 133.9,1562.82 133.9,1568.33 136.66,1568.33 136.66,1573.83 139.41,1573.83 139.41,1579.34 142.16,1579.34 142.16,1584.84 144.91,1584.84 144.91,1587.6 147.67,1587.6 147.67,1593.1 150.42,1593.1 150.42,1595.85 153.17,1595.85 153.17,1598.6 155.92,1598.6 155.92,1601.36 158.68,1601.36 158.68,1606.86 161.43,1606.86 161.43,1609.62 166.93,1609.62 166.93,1612.37 169.69,1612.37 169.69,1615.12 172.44,1615.12 172.44,1617.87 175.19,1617.87 175.19,1620.63 180.7,1620.63 180.7,1623.38 210.98,1623.38 210.98,1620.63 221.99,1620.63 221.99,1617.87 227.49,1617.87 227.49,1615.12 235.75,1615.12 235.75,1612.37 246.76,1612.37 246.76,1609.62 252.26,1609.62 252.26,1606.86 257.77,1606.86 257.77,1604.11 263.28,1604.11 263.28,1601.36 268.78,1601.36 268.78,1598.6 274.28,1598.6 274.28,1595.85 279.79,1595.85 279.79,1593.1 285.3,1593.1 285.3,1590.35 290.8,1590.35 290.8,1587.6 296.31,1587.6 296.31,1584.84 301.81,1584.84 301.81,1582.09 307.32,1582.09 307.32,1579.34 312.82,1579.34 312.82,1576.58 318.33,1576.58 318.33,1573.83 323.83,1573.83 323.83,1571.08 326.59,1571.08 326.59,1568.33 332.09,1568.33 332.09,1565.57 334.84,1565.57 334.84,1562.82 340.35,1562.82 340.35,1560.07 343.1,1560.07 343.1,1557.31 345.85,1557.31 345.85,1549.06 343.1,1549.06 343.1,1543.55 340.35,1543.55 340.35,1535.3 337.6,1535.3 337.6,1527.04 334.84,1527.04 334.84,1513.28 332.09,1513.28 332.09,1483 334.84,1483 334.84,1463.73 337.6,1463.73 337.6,1444.46 343.1,1444.46 343.1,1474.74 345.85,1474.74 345.85,1496.76 348.61,1496.76 348.61,1502.26 351.36,1502.26 351.36,1513.28 354.11,1513.28 354.11,1521.53 356.86,1521.53 356.86,1527.04 359.62,1527.04 359.62,1532.54 362.37,1532.54 362.37,1538.05 365.12,1538.05 365.12,1543.55 367.87,1543.55 367.87,1546.31 370.63,1546.31 370.63,1551.81 373.38,1551.81 373.38,1554.56 376.13,1554.56 376.13,1557.31 378.89,1557.31 378.89,1560.07 381.64,1560.07 381.64,1562.82 384.39,1562.82 384.39,1565.57 387.14,1565.57 387.14,1568.33 392.65,1568.33 392.65,1571.08 395.4,1571.08 395.4,1573.83 400.91,1573.83 400.91,1576.58 403.66,1576.58 403.66,1579.34 409.16,1579.34 409.16,1582.09 414.67,1582.09 414.67,1584.84 420.17,1584.84 420.17,1587.6 431.18,1587.6 431.18,1590.35 436.69,1590.35 436.69,1593.1 447.7,1593.1 447.7,1595.85 464.21,1595.85 464.21,1598.6 475.22,1598.6 475.22,1601.36 480.73,1601.36 480.73,1604.11 491.74,1604.11 491.74,1606.86 497.24,1606.86 497.24,1609.62 502.75,1609.62 502.75,1612.37 511.01,1612.37 511.01,1615.12 516.51,1615.12 516.51,1617.87 522.02,1617.87 522.02,1620.63 527.52,1620.63 527.52,1623.38 533.03,1623.38 533.03,1626.13 538.53,1626.13 538.53,1628.88 544.04,1628.88 544.04,1631.64 549.54,1631.64 549.54,1634.39 557.8,1634.39 557.8,1637.14 568.81,1637.14 568.81,1639.89 574.32,1639.89 574.32,1642.65 599.09,1642.65 599.09,1639.89 607.35,1639.89 607.35,1637.14 618.36,1637.14 618.36,1634.39 623.86,1634.39 623.86,1631.64 629.37,1631.64 629.37,1628.88 634.88,1628.88 634.88,1626.13 640.38,1626.13 640.38,1623.38 645.88,1623.38 645.88,1620.63 651.39,1620.63 651.39,1617.87 656.9,1617.87 656.9,1615.12 659.65,1615.12 659.65,1612.37 665.15,1612.37 665.15,1609.62 670.66,1609.62 670.66,1606.86 676.17,1606.86 676.17,1604.11 681.67,1604.11 681.67,1601.36 687.17,1601.36 687.17,1598.6 695.43,1598.6 695.43,1595.85 703.69,1595.85 703.69,1593.1 720.2,1593.1 720.2,1590.35 742.23,1590.35 742.23,1587.6 744.98,1587.6 744.98,1584.84 747.73,1584.84 747.73,1579.34 750.48,1579.34 750.48,1576.58 753.24,1576.58 753.24,1571.08 755.99,1571.08 755.99,1565.57 758.74,1565.57 758.74,1560.07 761.49,1560.07 761.49,1549.06 764.25,1549.06 764.25,1543.55 767,1543.55 767,1532.54 769.75,1532.54 769.75,1527.04 772.51,1527.04 772.51,1510.52 775.26,1510.52 775.26,1438.96 772.51,1438.96 772.51,1425.19 769.75,1425.19 769.75,1405.92 767,1405.92 767,1392.16 764.25,1392.16 764.25,1381.15 761.49,1381.15 761.49,1375.65 758.74,1375.65 758.74,1361.88 755.99,1361.88 755.99,1353.62 753.24,1353.62 753.24,1348.12 750.48,1348.12 750.48,1337.11 747.73,1337.11 747.73,1331.6 744.98,1331.6 744.98,1323.35 742.23,1323.35 742.23,1317.84 739.47,1317.84 739.47,1309.58 736.72,1309.58 736.72,1301.33 733.97,1301.33 733.97,1295.82 731.22,1295.82 731.22,1287.56 728.46,1287.56 728.46,1282.06 725.71,1282.06 725.71,1273.8 722.96,1273.8 722.96,1268.3 720.2,1268.3 720.2,1262.79 717.45,1262.79 717.45,1257.28 714.7,1257.28 714.7,1251.78 711.95,1251.78 711.95,1246.27 709.2,1246.27 709.2,1240.77 706.44,1240.77 706.44,1238.02 703.69,1238.02 703.69,1232.51 700.94,1232.51 700.94,1229.76 698.19,1229.76 698.19,1227.01 695.43,1227.01 695.43,1224.25 692.68,1224.25 692.68,1218.75 689.93,1218.75 689.93,1216 687.17,1216 687.17,1213.24 684.42,1213.24 684.42,1210.49 681.67,1210.49 681.67,1207.74 678.92,1207.74 678.92,1204.98 673.41,1204.98 673.41,1202.23 670.66,1202.23 670.66,1199.48 665.15,1199.48 665.15,1196.73 659.65,1196.73 659.65,1193.98 654.14,1193.98 654.14,1191.22 643.13,1191.22 643.13,1188.47 637.63,1188.47 637.63,1185.72 629.37,1185.72 629.37,1182.96 607.35,1182.96 607.35,1180.21 593.59,1180.21 593.59,1177.46 566.06,1177.46 566.06,1174.71 541.29,1174.71 541.29,1171.95 508.26,1171.95 508.26,1169.2 411.92,1169.2 411.92,1171.95 392.65,1171.95 392.65,1174.71 367.87,1174.71 367.87,1177.46 345.85,1177.46 345.85,1180.21 329.34,1180.21 329.34,1182.96 227.49,1182.96 227.49,1185.72 194.46,1185.72 194.46,1188.47 183.45,1188.47 183.45,1191.22 172.44,1191.22 172.44,1193.98 161.43,1193.98 161.43,1196.73 155.92,1196.73 155.92,1199.48 147.67,1199.48 147.67,1202.23 142.16,1202.23 142.16,1204.98 136.66,1204.98 136.66,1207.74 133.9,1207.74 133.9,1210.49 128.4,1210.49 128.4,1213.24 125.64,1213.24 125.64,1216 120.14,1216 120.14,1218.75 117.39,1218.75 117.39,1221.5 114.64,1221.5 114.64,1224.25 111.88,1224.25 111.88,1227.01 109.13,1227.01 109.13,1229.76 106.38,1229.76 106.38,1232.51 103.62,1232.51 103.62,1235.26 100.87,1235.26 100.87,1240.77 98.12,1240.77 98.12,1243.52 95.37,1243.52 95.37,1249.03 92.61,1249.03 92.61,1257.28 89.86,1257.28 89.86,1262.79 87.11,1262.79 87.11,1268.3 84.36,1268.3 84.36,1276.55 81.6,1276.55 81.6,1282.06 78.85,1282.06 78.85,1290.32 76.1,1290.32 76.1,1295.82 73.35,1295.82 73.35,1301.33 70.59,1301.33 70.59,1309.58 67.84,1309.58 67.84,1315.09 65.09,1315.09 65.09,1323.35 62.34,1323.35 62.34,1328.85 59.58,1328.85 59.58,1337.11 56.83,1337.11 56.83,1345.37 54.08,1345.37 54.08,1350.87 51.32,1350.87 51.32,1359.13 48.57,1359.13 48.57,1364.63 45.82,1364.63 45.82,1372.89 43.07,1372.89 43.07,1383.9 40.32,1383.9 40.32,1389.41 37.56,1389.41 37.56,1397.67 34.81,1397.67 34.81,1408.68 32.06,1408.68 32.06,1419.69 29.3,1419.69 29.3,1430.7 26.55,1430.7 26.55,1447.21 23.8,1447.21 23.8,1458.22 21.05,1458.22 21.05,1513.28 23.8,1513.28 23.8,1529.79 26.55,1529.79 26.55,1540.8 29.3,1540.8 29.3,1554.56 32.06,1554.56 32.06,1562.82 34.81,1562.82 34.81,1568.33 37.56,1568.33 37.56,1576.58 40.32,1576.58 40.32,1582.09 43.07,1582.09 43.07,1587.6 45.82,1587.6 45.82,1593.1 48.57,1593.1 48.57,1598.6 51.32,1598.6 51.32,1604.11 54.08,1604.11 54.08,1606.86 56.83,1606.86 56.83,1609.62 59.58,1609.62 59.58,1615.12 62.34,1615.12 62.34,1617.87 65.09,1617.87 65.09,1620.63 67.84,1620.63 67.84,1623.38 70.59,1623.38 70.59,1626.13 73.35,1626.13 73.35,1628.88 76.1,1628.88 76.1,1631.64 78.85,1631.64 78.85,1634.39 81.6,1634.39 81.6,1637.14 87.11,1637.14 87.11,1639.89 89.86,1639.89 89.86,1642.65 95.37,1642.65 95.37,1645.4 100.87,1645.4 100.87,1648.15 106.38,1648.15 106.38,1650.9 111.88,1650.9 111.88,1653.66 117.39,1653.66 117.39,1656.41 125.64,1656.41 125.64,1659.16 139.41,1659.16 139.41,1661.92 158.68,1661.92 158.68,1659.16 169.69,1659.16 169.69,1656.41 175.19,1656.41 175.19,1653.66 183.45,1653.66 188.96,1653.66 188.96,1656.41 186.2,1656.41 186.2,1659.16 183.45,1659.16 183.45,1661.92 177.94,1661.92 177.94,1664.67 175.19,1664.67 175.19,1667.42 166.93,1667.42 166.93,1670.17 161.43,1670.17 161.43,1672.92 164.18,1672.92 164.18,1675.68 166.93,1675.68 166.93,1678.43 172.44,1678.43 172.44,1681.18 175.19,1681.18 175.19,1683.94 177.94,1683.94 177.94,1686.69 183.45,1686.69 183.45,1689.44 186.2,1689.44 186.2,1692.19 191.71,1692.19 191.71,1694.95 194.46,1694.95 194.46,1697.7 199.96,1697.7 199.96,1700.45 205.47,1700.45 205.47,1703.2 210.98,1703.2 210.98,1705.95 216.48,1705.95 216.48,1708.71 227.49,1708.71 227.49,1711.46 246.76,1711.46 246.76,1708.71 257.77,1708.71 257.77,1705.95 268.78,1705.95 268.78,1703.2 277.04,1703.2 277.04,1700.45 282.54,1700.45 282.54,1697.7 290.8,1697.7 290.8,1694.95 296.31,1694.95 296.31,1692.19 301.81,1692.19 301.81,1689.44 310.07,1689.44 310.07,1686.69 315.57,1686.69 315.57,1683.94 323.83,1683.94 323.83,1681.18 329.34,1681.18 329.34,1678.43 337.6,1678.43 337.6,1675.68 343.1,1675.68 343.1,1672.92 351.36,1672.92 351.36,1670.17 362.37,1670.17 362.37,1667.42 367.87,1667.42 367.87,1664.67 378.89,1664.67 378.89,1661.92 395.4,1661.92 395.4,1659.16 406.41,1659.16 406.41,1656.41 403.66,1656.41 403.66,1650.9 400.91,1650.9 400.91,1648.15 398.15,1648.15 398.15,1645.4 395.4,1645.4 395.4,1639.89 392.65,1639.89 392.65,1637.14 389.89,1637.14 389.89,1631.64 387.14,1631.64 387.14,1626.13 384.39,1626.13 384.39,1620.63 381.64,1620.63 381.64,1609.62 378.89,1609.62 378.89,1598.6 378.89,1595.85 381.64,1595.85 381.64,1598.6 384.39,1598.6 384.39,1601.36 387.14,1601.36 387.14,1606.86 389.89,1606.86 389.89,1609.62 392.65,1609.62 392.65,1615.12 395.4,1615.12 395.4,1617.87 398.15,1617.87 398.15,1620.63 400.91,1620.63 400.91,1623.38 403.66,1623.38 403.66,1626.13 406.41,1626.13 406.41,1628.88 409.16,1628.88 409.16,1634.39 411.92,1634.39 411.92,1637.14 414.67,1637.14 414.67,1639.89 420.17,1639.89 420.17,1642.65 422.92,1642.65 422.92,1645.4 425.68,1645.4 425.68,1648.15 428.43,1648.15 428.43,1650.9 431.18,1650.9 431.18,1653.66 436.69,1653.66 436.69,1656.41 439.44,1656.41 439.44,1659.16 444.95,1659.16 444.95,1661.92 447.7,1661.92 447.7,1664.67 453.21,1664.67 453.21,1667.42 461.46,1667.42 461.46,1670.17 466.97,1670.17 466.97,1672.92 475.22,1672.92 475.22,1675.68 480.73,1675.68 480.73,1678.43 486.24,1678.43 486.24,1681.18 491.74,1681.18 491.74,1683.94 497.24,1683.94 497.24,1686.69 502.75,1686.69 502.75,1689.44 508.26,1689.44 508.26,1692.19 513.76,1692.19 513.76,1694.95 519.27,1694.95 519.27,1697.7 524.77,1697.7 524.77,1700.45 530.28,1700.45 530.28,1703.2 538.53,1703.2 538.53,1705.95 544.04,1705.95 544.04,1708.71 552.3,1708.71 552.3,1711.46 588.08,1711.46 588.08,1708.71 599.09,1708.71 599.09,1705.95 607.35,1705.95 607.35,1703.2 612.85,1703.2 612.85,1700.45 618.36,1700.45 618.36,1697.7 623.86,1697.7 623.86,1694.95 629.37,1694.95 629.37,1692.19 634.88,1692.19 634.88,1689.44 640.38,1689.44 640.38,1686.69 645.88,1686.69 645.88,1683.94 648.64,1683.94 648.64,1681.18 654.14,1681.18 654.14,1678.43 656.9,1678.43 656.9,1675.68 662.4,1675.68 662.4,1672.92 665.15,1672.92 665.15,1670.17 670.66,1670.17 670.66,1667.42 673.41,1667.42 673.41,1664.67 676.17,1664.67 676.17,1661.92 678.92,1661.92 678.92,1659.16 684.42,1659.16 684.42,1656.41 687.17,1656.41 687.17,1653.66 689.93,1653.66 689.93,1650.9 692.68,1650.9 692.68,1648.15 695.43,1648.15 695.43,1645.4 698.19,1645.4 698.19,1642.65 700.94,1642.65 700.94,1639.89 703.69,1639.89 703.69,1637.14 706.44,1637.14 706.44,1634.39 709.2,1634.39 709.2,1631.64 711.95,1631.64 711.95,1628.88 714.7,1628.88 714.7,1626.13 717.45,1626.13 717.45,1620.63 720.2,1620.63 720.2,1617.87 722.96,1617.87 722.96,1615.12 725.71,1615.12 725.71,1612.37 703.69,1612.37 703.69,1615.12 695.43,1615.12 695.43,1617.87 689.93,1617.87 689.93,1620.63 687.17,1620.63 687.17,1623.38 681.67,1623.38 681.67,1626.13 676.17,1626.13 676.17,1628.88 673.41,1628.88 673.41,1631.64 667.91,1631.64 667.91,1634.39 665.15,1634.39 665.15,1637.14 659.65,1637.14 659.65,1639.89 656.9,1639.89 656.9,1642.65 654.14,1642.65 654.14,1645.4 648.64,1645.4 648.64,1648.15 643.13,1648.15 643.13,1650.9 640.38,1650.9 640.38,1653.66 632.12,1653.66 632.12,1656.41 626.62,1656.41 626.62,1659.16 621.11,1659.16 621.11,1661.92 607.35,1661.92 607.35,1664.67 596.34,1664.67 596.34,1667.42 579.82,1667.42 579.82,1664.67 566.06,1664.67 566.06,1661.92 557.8,1661.92 557.8,1659.16 546.79,1659.16 546.79,1656.41 541.29,1656.41 541.29,1653.66 535.78,1653.66 535.78,1650.9 530.28,1650.9 530.28,1648.15 524.77,1648.15 524.77,1645.4 519.27,1645.4 519.27,1642.65 513.76,1642.65 513.76,1639.89 508.26,1639.89 508.26,1637.14 502.75,1637.14 502.75,1634.39 497.24,1634.39 497.24,1631.64 491.74,1631.64 491.74,1628.88 483.48,1628.88 483.48,1626.13 472.47,1626.13 472.47,1623.38 464.21,1623.38 464.21,1620.63 450.45,1620.63 450.45,1617.87 442.19,1617.87 442.19,1615.12 425.68,1615.12 425.68,1612.37 420.17,1612.37 420.17,1609.62 411.92,1609.62 411.92,1606.86 403.66,1606.86 403.66,1604.11 398.15,1604.11 398.15,1601.36 392.65,1601.36 392.65,1598.6 389.89,1598.6 389.89,1595.85 384.39,1595.85 384.39,1593.1 381.64,1593.1 381.64,1590.35 376.13,1590.35 376.13,1587.6 373.38,1587.6 373.38,1584.84 370.63,1584.84 370.63,1582.09 367.87,1582.09 367.87,1579.34 362.37,1579.34 362.37,1576.58 356.86,1576.58 356.86,1579.34 354.11,1579.34 354.11,1582.09 348.61,1582.09 348.61,1584.84 345.85,1584.84 345.85,1587.6 340.35,1587.6 340.35,1590.35 334.84,1590.35 334.84,1593.1 332.09,1593.1 332.09,1595.85 326.59,1595.85 326.59,1598.6 321.08,1598.6 321.08,1601.36 315.57,1601.36 315.57,1604.11 312.82,1604.11 312.82,1606.86 307.32,1606.86 307.32,1609.62 301.81,1609.62 301.81,1612.37 296.31,1612.37 296.31,1615.12 290.8,1615.12 290.8,1617.87 282.54,1617.87 282.54,1620.63 277.04,1620.63 277.04,1623.38 271.53,1623.38 271.53,1626.13 266.03,1626.13 266.03,1628.88 257.77,1628.88 257.77,1631.64 252.26,1631.64 252.26,1634.39 244.01,1634.39 244.01,1637.14 238.5,1637.14 238.5,1639.89 227.49,1639.89 227.49,1642.65 221.99,1642.65 221.99,1645.4 213.73,1645.4 213.73,1648.15 "/>
  <g id="_2292410476800">
   <polygon class="fil3" points="138.94,1384.37 171.97,1384.37 171.97,1392.63 174.73,1392.63 174.73,1409.14 177.48,1409.14 177.48,1425.66 180.23,1425.66 180.23,1436.67 182.98,1436.67 182.98,1442.17 185.74,1442.17 185.74,1455.93 188.49,1455.93 188.49,1461.44 191.24,1461.44 191.24,1469.7 194,1469.7 194,1475.2 196.75,1475.2 196.75,1480.71 199.5,1480.71 199.5,1486.21 202.25,1486.21 202.25,1491.72 205,1491.72 205,1497.22 207.76,1497.22 207.76,1502.73 210.51,1502.73 210.51,1508.23 213.26,1508.23 213.26,1513.74 216.02,1513.74 216.02,1516.49 218.77,1516.49 218.77,1519.24 219.7,1519.24 219.7,1516.49 225.2,1516.49 225.2,1513.74 230.71,1513.74 230.71,1510.99 236.21,1510.99 236.21,1508.23 241.72,1508.23 241.72,1505.48 247.22,1505.48 247.22,1502.73 252.73,1502.73 252.73,1499.98 255.48,1499.98 255.48,1497.22 260.99,1497.22 260.99,1411.9 263.74,1411.9 263.74,1392.63 266.49,1392.63 266.49,1373.36 414.2,1373.36 414.2,1403.64 416.96,1403.64 416.96,1425.66 419.71,1425.66 419.71,1431.16 422.46,1431.16 422.46,1442.17 425.21,1442.17 425.21,1450.43 427.96,1450.43 427.96,1455.93 430.72,1455.93 430.72,1461.44 433.47,1461.44 433.47,1466.95 436.22,1466.95 436.22,1472.45 438.98,1472.45 438.98,1475.2 441.73,1475.2 441.73,1480.71 444.48,1480.71 444.48,1483.46 447.23,1483.46 447.23,1486.21 449.99,1486.21 449.99,1488.97 452.74,1488.97 452.74,1491.72 455.49,1491.72 455.49,1494.47 458.24,1494.47 458.24,1497.22 463.75,1497.22 463.75,1499.98 466.5,1499.98 466.5,1502.73 472.01,1502.73 472.01,1505.48 474.76,1505.48 474.76,1508.23 480.26,1508.23 480.26,1510.99 485.77,1510.99 485.77,1513.74 491.28,1513.74 491.28,1516.49 502.28,1516.49 502.28,1519.24 507.79,1519.24 507.79,1522 518.8,1522 518.8,1524.75 535.32,1524.75 535.32,1527.5 546.33,1527.5 546.33,1530.25 551.83,1530.25 551.83,1533.01 562.84,1533.01 562.84,1535.76 568.35,1535.76 568.35,1538.51 573.85,1538.51 573.85,1541.27 582.11,1541.27 582.11,1544.02 588.55,1544.02 588.55,1541.27 594.05,1541.27 594.05,1538.51 599.56,1538.51 599.56,1535.76 605.06,1535.76 605.06,1533.01 610.57,1533.01 610.57,1530.25 616.07,1530.25 616.07,1527.5 624.33,1527.5 624.33,1524.75 632.59,1524.75 632.59,1522 649.1,1522 649.1,1519.24 671.12,1519.24 671.12,1516.49 673.88,1516.49 673.88,1513.74 676.63,1513.74 676.63,1508.23 679.38,1508.23 679.38,1505.48 682.13,1505.48 682.13,1499.98 684.89,1499.98 684.89,1494.47 687.64,1494.47 687.64,1488.97 690.39,1488.97 690.39,1477.96 693.14,1477.96 693.14,1472.45 695.89,1472.45 695.89,1463.26 693.14,1463.26 693.14,1452.25 690.39,1452.25 690.39,1446.75 687.64,1446.75 687.64,1432.98 684.89,1432.98 684.89,1424.73 682.13,1424.73 682.13,1419.22 679.38,1419.22 679.38,1408.21 676.63,1408.21 676.63,1402.71 673.88,1402.71 673.88,1394.45 671.12,1394.45 671.12,1388.94 668.37,1388.94 668.37,1380.69 665.62,1380.69 665.62,1372.43 662.87,1372.43 662.87,1366.92 660.11,1366.92 660.11,1358.66 657.36,1358.66 657.36,1353.16 654.61,1353.16 654.61,1344.9 651.86,1344.9 651.86,1339.4 649.1,1339.4 649.1,1333.89 646.35,1333.89 646.35,1328.39 643.6,1328.39 643.6,1322.88 640.84,1322.88 640.84,1317.37 638.09,1317.37 638.09,1311.87 635.34,1311.87 635.34,1309.12 632.59,1309.12 632.59,1303.61 629.84,1303.61 629.84,1300.86 627.08,1300.86 627.08,1298.11 624.33,1298.11 624.33,1295.35 621.58,1295.35 621.58,1289.85 618.82,1289.85 618.82,1287.1 616.07,1287.1 616.07,1284.34 613.32,1284.34 613.32,1281.59 610.57,1281.59 610.57,1278.84 607.81,1278.84 607.81,1276.09 602.31,1276.09 602.31,1273.34 599.56,1273.34 599.56,1270.58 594.05,1270.58 594.05,1267.83 588.55,1267.83 588.55,1265.08 583.04,1265.08 583.04,1262.32 572.03,1262.32 572.03,1259.57 566.52,1259.57 566.52,1256.82 558.27,1256.82 558.27,1254.07 536.25,1254.07 536.25,1251.31 522.49,1251.31 522.49,1248.56 494.96,1248.56 494.96,1245.81 470.19,1245.81 470.19,1243.05 463.75,1243.05 463.75,1245.81 438.98,1245.81 438.98,1248.56 416.96,1248.56 416.96,1251.31 400.44,1251.31 400.44,1254.07 298.59,1254.07 298.59,1256.82 265.56,1256.82 265.56,1259.57 254.55,1259.57 254.55,1262.32 243.54,1262.32 243.54,1265.08 232.53,1265.08 232.53,1267.83 227.03,1267.83 227.03,1270.58 218.77,1270.58 218.77,1273.34 213.26,1273.34 213.26,1276.09 207.76,1276.09 207.76,1278.84 205,1278.84 205,1281.59 199.5,1281.59 199.5,1284.34 196.75,1284.34 196.75,1287.1 191.24,1287.1 191.24,1289.85 188.49,1289.85 188.49,1292.6 185.74,1292.6 185.74,1295.35 182.98,1295.35 182.98,1298.11 180.23,1298.11 180.23,1300.86 177.48,1300.86 177.48,1303.61 174.73,1303.61 174.73,1306.37 171.97,1306.37 171.97,1311.87 169.22,1311.87 169.22,1314.62 166.47,1314.62 166.47,1320.13 163.72,1320.13 163.72,1328.39 160.97,1328.39 160.97,1333.89 158.21,1333.89 158.21,1339.4 155.46,1339.4 155.46,1347.66 152.71,1347.66 152.71,1353.16 149.95,1353.16 149.95,1361.42 147.2,1361.42 147.2,1366.92 144.45,1366.92 144.45,1372.43 141.7,1372.43 141.7,1380.69 138.94,1380.69 "/>
  </g>
  <path id="outline" class="fil4" d="M376.13 1590.35l5.51 0 0 2.75 2.75 0 0 2.75 5.5 0 0 2.75 2.76 0 0 2.76 5.5 0 0 2.75 5.51 0 0 2.75 8.26 0 0 2.76 8.25 0 0 2.75 5.51 0 0 2.75 16.51 0 0 2.75 8.26 0 0 2.76 13.76 0 0 2.75 8.26 0 0 2.75 11.01 0 0 2.75 8.26 0 0 2.76 5.5 0 0 2.75 5.51 0 0 2.75 5.51 0 0 2.75 5.5 0 0 2.76 5.51 0 0 2.75 5.5 0 0 2.75 5.51 0 0 2.75 5.5 0 0 2.76 5.51 0 0 2.75 5.5 0 0 2.75 11.01 0 0 2.76 8.26 0 0 2.75 13.76 0 0 2.75 16.52 0 0 -2.75 11.01 0 0 -2.75 13.76 0 0 -2.76 5.51 0 0 -2.75 5.5 0 0 -2.75 8.26 0 0 -2.76 2.75 0 0 -2.75 5.51 0 0 -2.75 5.5 0 0 -2.75 2.76 0 0 -2.76 2.75 0 0 -2.75 5.5 0 0 -2.75 2.76 0 0 -2.75 5.5 0 0 -2.76 2.76 0 0 -2.75 5.5 0 0 -2.75 5.5 0 0 -2.75 2.76 0 0 -2.76 5.5 0 0 -2.75 8.26 0 0 -2.75 22.02 0 0 2.75 -2.75 0 0 2.75 -2.76 0 0 2.76 -2.75 0 0 5.5 -2.75 0 0 2.75 -2.75 0 0 2.76 -2.75 0 0 2.75 -2.76 0 0 2.75 -2.75 0 0 2.75 -2.75 0 0 2.76 -2.75 0 0 2.75 -2.76 0 0 2.75 -2.75 0 0 2.75 -2.75 0 0 2.76 -2.76 0 0 2.75 -2.75 0 0 2.75 -5.5 0 0 2.76 -2.75 0 0 2.75 -2.76 0 0 2.75 -2.75 0 0 2.75 -5.51 0 0 2.75 -2.75 0 0 2.76 -5.5 0 0 2.75 -2.76 0 0 2.75 -5.5 0 0 2.76 -2.76 0 0 2.75 -5.5 0 0 2.75 -5.5 0 0 2.75 -5.51 0 0 2.76 -5.51 0 0 2.75 -5.5 0 0 2.75 -5.51 0 0 2.75 -5.5 0 0 2.75 -8.26 0 0 2.76 -11.01 0 0 2.75 -35.78 0 0 -2.75 -8.26 0 0 -2.76 -5.51 0 0 -2.75 -8.25 0 0 -2.75 -5.51 0 0 -2.75 -5.5 0 0 -2.75 -5.51 0 0 -2.76 -5.5 0 0 -2.75 -5.51 0 0 -2.75 -5.51 0 0 -2.75 -5.5 0 0 -2.76 -5.5 0 0 -2.75 -5.51 0 0 -2.75 -5.51 0 0 -2.76 -8.25 0 0 -2.75 -5.51 0 0 -2.75 -8.25 0 0 -2.75 -5.51 0 0 -2.75 -2.75 0 0 -2.76 -5.51 0 0 -2.75 -2.75 0 0 -2.75 -5.51 0 0 -2.76 -2.75 0 0 -2.75 -2.75 0 0 -2.75 -2.76 0 0 -2.75 -2.75 0 0 -2.76 -5.5 0 0 -2.75 -2.75 0 0 -2.75 -2.76 0 0 -5.51 -2.75 0 0 -2.75 -2.75 0 0 -2.75 -2.75 0 0 -2.75 -2.76 0 0 -2.76 -2.75 0 0 -2.75 -2.75 0 0 -5.5 -2.76 0 0 -2.76 -2.75 0 0 -5.5 -2.75 0 0 -2.76 -2.75 0 0 -2.75 -2.75 0 0 13.77 2.75 0 0 11.01 2.75 0 0 5.5 2.75 0 0 5.51 2.75 0 0 5.5 2.76 0 0 2.75 2.75 0 0 5.51 2.75 0 0 2.75 2.76 0 0 2.75 2.75 0 0 5.51 2.75 0 0 2.75 -11.01 0 0 2.76 -16.51 0 0 2.75 -11.02 0 0 2.75 -5.5 0 0 2.75 -11.01 0 0 2.75 -8.26 0 0 2.76 -5.5 0 0 2.75 -8.26 0 0 2.75 -5.51 0 0 2.76 -8.26 0 0 2.75 -5.5 0 0 2.75 -8.26 0 0 2.75 -5.5 0 0 2.76 -5.51 0 0 2.75 -8.26 0 0 2.75 -5.5 0 0 2.75 -8.26 0 0 2.75 -11.01 0 0 2.76 -11.01 0 0 2.75 -19.27 0 0 -2.75 -11.01 0 0 -2.76 -5.5 0 0 -2.75 -5.51 0 0 -2.75 -5.51 0 0 -2.75 -5.5 0 0 -2.75 -2.75 0 0 -2.76 -5.51 0 0 -2.75 -2.75 0 0 -2.75 -5.51 0 0 -2.75 -2.75 0 0 -2.76 -2.75 0 0 -2.75 -5.51 0 0 -2.75 -2.75 0 0 -2.76 -2.75 0 0 -2.75 5.5 0 0 -2.75 8.26 0 0 -2.75 2.75 0 0 -2.75 5.51 0 0 -2.76 2.75 0 0 -2.75 2.76 0 0 -2.75 -13.77 0 0 2.75 -5.5 0 0 2.75 -11.01 0 0 2.76 -19.27 0 0 -2.76 -13.77 0 0 -2.75 -8.25 0 0 -2.75 -5.51 0 0 -2.76 -5.5 0 0 -2.75 -5.51 0 0 -2.75 -5.5 0 0 -2.75 -5.51 0 0 -2.76 -2.75 0 0 -2.75 -5.51 0 0 -2.75 -2.75 0 0 -2.75 -2.75 0 0 -2.76 -2.75 0 0 -2.75 -2.76 0 0 -2.75 -2.75 0 0 -2.75 -2.75 0 0 -2.76 -2.75 0 0 -2.75 -2.76 0 0 -5.5 -2.75 0 0 -2.76 -2.75 0 0 -2.75 -2.76 0 0 -5.51 -2.75 0 0 -5.5 -2.75 0 0 -5.5 -2.75 0 0 -5.51 -2.75 0 0 -5.51 -2.76 0 0 -8.25 -2.75 0 0 -5.51 -2.75 0 0 -8.26 -2.76 0 0 -13.76 -2.75 0 0 -11.01 -2.75 0 0 -16.51 -2.75 0 0 -55.06 2.75 0 0 -11.01 2.75 0 0 -16.51 2.75 0 0 -11.01 2.76 0 0 -11.01 2.75 0 0 -11.01 2.75 0 0 -8.26 2.76 0 0 -5.51 2.75 0 0 -11.01 2.75 0 0 -8.26 2.75 0 0 -5.5 2.75 0 0 -8.26 2.76 0 0 -5.5 2.75 0 0 -8.26 2.75 0 0 -8.26 2.76 0 0 -5.5 2.75 0 0 -8.26 2.75 0 0 -5.51 2.75 0 0 -8.25 2.76 0 0 -5.51 2.75 0 0 -5.5 2.75 0 0 -8.26 2.75 0 0 -5.51 2.76 0 0 -8.25 2.75 0 0 -5.51 2.75 0 0 -5.51 2.75 0 0 -8.25 2.76 0 0 -5.51 2.75 0 0 -2.75 2.75 0 0 -5.51 2.75 0 0 -2.75 2.76 0 0 -2.75 2.75 0 0 -2.75 2.75 0 0 -2.76 2.76 0 0 -2.75 2.75 0 0 -2.75 2.75 0 0 -2.75 5.5 0 0 -2.76 2.76 0 0 -2.75 5.5 0 0 -2.75 2.76 0 0 -2.76 5.5 0 0 -2.75 5.51 0 0 -2.75 8.25 0 0 -2.75 5.51 0 0 -2.75 11.01 0 0 -2.76 11.01 0 0 -2.75 11.01 0 0 -2.75 33.03 0 0 -2.76 101.85 0 0 -2.75 16.51 0 0 -2.75 22.02 0 0 -2.75 24.78 0 0 -2.76 19.27 0 0 -2.75 96.34 0 0 2.75 33.03 0 0 2.76 24.77 0 0 2.75 27.53 0 0 2.75 13.76 0 0 2.75 22.02 0 0 2.76 8.26 0 0 2.75 5.5 0 0 2.75 11.01 0 0 2.76 5.51 0 0 2.75 5.5 0 0 2.75 5.51 0 0 2.75 2.75 0 0 2.75 5.51 0 0 2.76 2.75 0 0 2.75 2.75 0 0 2.75 2.75 0 0 2.76 2.76 0 0 2.75 2.75 0 0 5.5 2.75 0 0 2.76 2.76 0 0 2.75 2.75 0 0 2.75 2.75 0 0 5.51 2.75 0 0 2.75 2.76 0 0 5.5 2.75 0 0 5.51 2.75 0 0 5.5 2.75 0 0 5.51 2.75 0 0 5.51 2.76 0 0 5.5 2.75 0 0 8.26 2.75 0 0 5.5 2.76 0 0 8.26 2.75 0 0 5.51 2.75 0 0 8.25 2.75 0 0 8.26 2.76 0 0 5.51 2.75 0 0 8.25 2.75 0 0 5.51 2.75 0 0 11.01 2.76 0 0 5.5 2.75 0 0 8.26 2.75 0 0 13.77 2.75 0 0 5.5 2.76 0 0 11.01 2.75 0 0 13.76 2.75 0 0 19.27 2.76 0 0 13.77 2.75 0 0 71.56 -2.75 0 0 16.52 -2.76 0 0 5.5 -2.75 0 0 11.01 -2.75 0 0 5.51 -2.76 0 0 11.01 -2.75 0 0 5.5 -2.75 0 0 5.51 -2.75 0 0 5.5 -2.76 0 0 2.76 -2.75 0 0 5.5 -2.75 0 0 2.76 -2.75 0 0 2.75 -22.03 0 0 2.75 -16.51 0 0 2.75 -8.26 0 0 2.75 -8.26 0 0 2.76 -5.5 0 0 2.75 -5.5 0 0 2.75 -5.51 0 0 2.76 -5.51 0 0 2.75 -5.5 0 0 2.75 -2.75 0 0 2.75 -5.51 0 0 2.76 -5.51 0 0 2.75 -5.5 0 0 2.75 -5.5 0 0 2.75 -5.51 0 0 2.76 -5.51 0 0 2.75 -5.5 0 0 2.75 -11.01 0 0 2.75 -8.26 0 0 2.76 -24.77 0 0 -2.76 -5.51 0 0 -2.75 -11.01 0 0 -2.75 -8.26 0 0 -2.75 -5.5 0 0 -2.76 -5.51 0 0 -2.75 -5.5 0 0 -2.75 -5.51 0 0 -2.75 -5.5 0 0 -2.76 -5.51 0 0 -2.75 -5.5 0 0 -2.75 -8.26 0 0 -2.75 -5.51 0 0 -2.76 -5.5 0 0 -2.75 -11.01 0 0 -2.75 -5.51 0 0 -2.76 -11.01 0 0 -2.75 -16.51 0 0 -2.75 -11.01 0 0 -2.75 -5.51 0 0 -2.75 -11.01 0 0 -2.76 -5.5 0 0 -2.75 -5.51 0 0 -2.75 -5.5 0 0 -2.76 -2.75 0 0 -2.75 -5.51 0 0 -2.75 -2.75 0 0 -2.75 -5.51 0 0 -2.76 -2.75 0 0 -2.75 -2.75 0 0 -2.75 -2.75 0 0 -2.76 -2.76 0 0 -2.75 -2.75 0 0 -2.75 -2.75 0 0 -5.5 -2.76 0 0 -2.76 -2.75 0 0 -5.5 -2.75 0 0 -5.51 -2.75 0 0 -5.5 -2.76 0 0 -5.51 -2.75 0 0 -8.25 -2.75 0 0 -11.02 -2.75 0 0 -5.5 -2.76 0 0 -22.02 -2.75 0 0 -30.28 -5.5 0 0 19.27 -2.76 0 0 19.27 -2.75 0 0 30.28 2.75 0 0 13.76 2.76 0 0 8.26 2.75 0 0 8.25 2.75 0 0 5.51 2.75 0 0 8.25 -2.75 0 0 2.76 -2.75 0 0 2.75 -5.51 0 0 2.75 -2.75 0 0 2.76 -5.5 0 0 2.75 -2.76 0 0 2.75 -5.5 0 0 2.75 -5.51 0 0 2.76 -5.5 0 0 2.75 -5.51 0 0 2.75 -5.5 0 0 2.76 -5.51 0 0 2.75 -5.5 0 0 2.75 -5.51 0 0 2.75 -5.51 0 0 2.75 -5.5 0 0 2.76 -5.5 0 0 2.75 -5.51 0 0 2.75 -5.51 0 0 2.76 -5.5 0 0 2.75 -11.01 0 0 2.75 -8.26 0 0 2.75 -5.5 0 0 2.76 -11.01 0 0 2.75 -30.28 0 0 -2.75 -5.51 0 0 -2.76 -2.75 0 0 -2.75 -2.75 0 0 -2.75 -2.76 0 0 -2.75 -5.5 0 0 -2.76 -2.75 0 0 -5.5 -2.76 0 0 -2.76 -2.75 0 0 -2.75 -2.75 0 0 -2.75 -2.75 0 0 -5.5 -2.76 0 0 -2.76 -2.75 0 0 -5.5 -2.75 0 0 -5.51 -2.75 0 0 -5.5 -2.76 0 0 -5.51 -2.75 0 0 -5.51 -2.75 0 0 -5.5 -2.76 0 0 -5.5 -2.75 0 0 -5.51 -2.75 0 0 -8.26 -2.75 0 0 -5.5 -2.75 0 0 -13.76 -2.76 0 0 -5.51 -2.75 0 0 -11.01 -2.75 0 0 -16.52 -2.76 0 0 -16.51 -2.75 0 0 -8.26 -5.5 0 0 55.05 2.75 0 0 13.77 2.75 0 0 13.76 2.75 0 0 11.01 2.76 0 0 11.01 2.75 0 0 5.5 2.75 0 0 5.51 2.76 0 0 5.5 2.75 0 0 5.51 2.75 0 0 5.51 2.75 0 0 5.5 2.75 0 0 5.5 2.76 0 0 2.76 2.75 0 0 2.75 2.75 0 0 5.51 2.76 0 0 2.75 2.75 0 0 2.75 2.75 0 0 5.51 2.75 0 0 2.75 2.76 0 0 2.75 2.75 0 0 2.75 2.75 0 0 2.76 2.75 0 0 2.75 2.76 0 0 2.75 5.5 0 0 2.75 2.75 0 0 2.76 5.51 0 0 2.75 5.5 0 0 2.75 35.79 0 0 -2.75 8.26 0 0 -2.75 5.5 0 0 -2.76 11.01 0 0 -2.75 5.51 0 0 -2.75 8.25 0 0 -2.75 5.51 0 0 -2.76 8.26 0 0 -2.75 5.5 0 0 -2.75 5.51 0 0 -2.75 5.5 0 0 -2.76 8.26 0 0 -2.75 5.51 0 0 -2.75 5.5 0 0 -2.75 5.51 0 0 -2.76 5.5 0 0 -2.75 2.75 0 0 -2.75 5.51 0 0 -2.76 5.51 0 0 -2.75 5.5 0 0 -2.75 2.75 0 0 -2.75 5.51 0 0 -2.75 5.5 0 0 -2.76 2.76 0 0 -2.75 5.5 0 0 -2.75 2.75 0 0 -2.76 5.51 0 0 2.76 5.5 0 0 2.75 2.76 0 0 2.75 2.75 0 0 2.76 2.75 0 0 2.75zm181.67 -1233.16l2.76 0 0 -13.77 2.75 0 0 -5.5 2.75 0 0 -5.51 2.75 0 0 -5.5 2.75 0 0 -2.75 2.76 0 0 -2.76 8.26 0 0 2.76 8.25 0 0 2.75 2.76 0 0 2.75 5.5 0 0 2.75 2.75 0 0 5.51 2.76 0 0 2.75 2.75 0 0 2.75 2.75 0 0 5.51 2.75 0 0 2.75 2.76 0 0 5.51 2.75 0 0 2.75 2.75 0 0 5.5 2.75 0 0 5.51 2.76 0 0 5.51 2.75 0 0 5.5 2.75 0 0 5.51 2.76 0 0 5.5 2.75 0 0 8.26 2.75 0 0 5.5 2.75 0 0 8.26 2.75 0 0 5.51 2.76 0 0 8.26 2.75 0 0 8.25 2.75 0 0 5.51 2.76 0 0 8.26 2.75 0 0 11.01 2.75 0 0 5.5 2.75 0 0 11.01 2.76 0 0 5.51 2.75 0 0 8.25 2.75 0 0 13.77 2.76 0 0 11.01 2.75 0 0 5.5 2.75 0 0 11.01 2.75 0 0 11.01 2.75 0 0 16.52 2.76 0 0 11.01 2.75 0 0 11.01 2.75 0 0 16.52 2.76 0 0 11.01 2.75 0 0 27.52 2.75 0 0 134.88 -2.75 0 0 27.53 -2.75 0 0 30.27 -2.76 0 0 30.28 -2.75 0 0 16.52 -2.75 0 0 22.02 -2.76 0 0 11.01 -2.75 0 0 22.02 -2.75 0 0 33.03 -2.75 0 0 27.52 -2.75 0 0 137.63 2.75 0 0 11.02 2.75 0 0 22.02 2.75 0 0 8.25 2.75 0 0 11.01 -2.75 0 0 -2.75 -5.5 0 0 -2.75 -5.51 0 0 -2.75 -5.5 0 0 -2.76 -5.51 0 0 -2.75 -11.01 0 0 -2.75 -8.26 0 0 -2.75 -8.25 0 0 -2.76 -11.02 0 0 -2.75 -16.51 0 0 -2.75 -19.27 0 0 -2.75 -35.78 0 0 -2.76 -33.03 0 0 -2.75 -16.52 0 0 -2.75 -85.33 0 0 2.75 -16.51 0 0 2.75 -27.53 0 0 2.76 -11.01 0 0 2.75 -38.54 0 0 2.75 -27.52 0 0 2.75 -93.59 0 0 2.76 -16.52 0 0 2.75 -16.51 0 0 2.75 -11.01 0 0 2.75 -8.26 0 0 2.76 -5.51 0 0 2.75 -8.25 0 0 2.75 -5.51 0 0 2.75 -5.51 0 0 2.76 -5.5 0 0 2.75 -2.75 0 0 2.75 -5.51 0 0 -16.51 2.76 0 0 -19.27 2.75 0 0 -82.58 -2.75 0 0 -35.78 -2.76 0 0 -19.27 -2.75 0 0 -19.27 -2.75 0 0 -13.76 -2.76 0 0 -16.52 -2.75 0 0 -16.51 -2.75 0 0 -16.52 -2.75 0 0 -5.5 -2.76 0 0 -13.77 -2.75 0 0 -11.01 -2.75 0 0 -13.76 -2.75 0 0 -5.51 -2.76 0 0 -16.51 -2.75 0 0 -8.26 -2.75 0 0 -13.76 -2.75 0 0 -13.76 -2.76 0 0 -8.26 -2.75 0 0 -11.01 -2.75 0 0 -16.52 -2.75 0 0 -16.51 -2.76 0 0 -8.26 -2.75 0 0 -22.02 -2.75 0 0 -19.27 -2.76 0 0 -13.76 -2.75 0 0 -19.27 -2.75 0 0 -33.03 -2.75 0 0 -121.12 2.75 0 0 -30.28 2.75 0 0 -19.26 2.75 0 0 -11.01 2.76 0 0 -19.27 2.75 0 0 -13.76 2.75 0 0 -16.52 2.76 0 0 -8.26 2.75 0 0 -13.76 2.75 0 0 -5.51 2.75 0 0 -11.01 2.76 0 0 -5.5 2.75 0 0 -11.01 2.75 0 0 -5.51 2.75 0 0 -5.5 2.76 0 0 -5.51 2.75 0 0 -5.5 2.75 0 0 -2.75 2.75 0 0 -5.51 2.76 0 0 -2.75 2.75 0 0 -2.76 2.75 0 0 -2.75 5.51 0 0 -2.75 11.01 0 0 2.75 2.75 0 0 5.51 2.75 0 0 2.75 2.75 0 0 5.51 2.76 0 0 5.5 2.75 0 0 8.26 2.75 0 0 11.01 2.76 0 0 13.76 2.75 0 0 13.76 2.75 0 0 30.28 2.75 0 0 24.78 2.76 0 0 22.02 2.75 0 0 11.01 2.75 0 0 22.02 2.75 0 0 16.51 2.76 0 0 11.01 2.75 0 0 13.77 2.75 0 0 11.01 2.75 0 0 13.76 2.76 0 0 11.01 2.75 0 0 5.51 2.75 0 0 11.01 2.75 0 0 11.01 2.76 0 0 5.5 2.75 0 0 5.51 2.75 0 0 11.01 2.76 0 0 5.5 2.75 0 0 5.51 2.75 0 0 11.01 2.75 0 0 5.5 2.75 0 0 8.26 2.76 0 0 5.51 2.75 0 0 5.5 2.75 0 0 5.51 2.76 0 0 5.5 2.75 0 0 5.51 2.75 0 0 5.5 2.75 0 0 5.51 2.76 0 0 5.5 2.75 0 0 5.51 2.75 0 0 2.75 2.76 0 0 5.5 2.75 0 0 5.51 2.75 0 0 5.51 2.75 0 0 5.5 2.75 0 0 2.75 2.76 0 0 5.51 2.75 0 0 5.5 2.75 0 0 5.51 2.75 0 0 2.75 2.76 0 0 5.51 2.75 0 0 2.75 2.75 0 0 5.5 2.76 0 0 5.51 2.75 0 0 2.75 2.75 0 0 5.51 2.75 0 0 5.5 2.75 0 0 5.51 2.76 0 0 5.5 2.75 0 0 2.76 2.75 0 0 5.5 2.76 0 0 5.51 2.75 0 0 5.5 2.75 0 0 2.75 2.75 0 0 5.51 2.76 0 0 5.5 2.75 0 0 5.51 2.75 0 0 5.5 2.76 0 0 5.51 2.75 0 0 2.75 2.75 0 0 5.51 2.75 0 0 5.5 2.75 0 0 5.51 2.76 0 0 2.75 2.75 0 0 5.51 2.75 0 0 5.5 2.76 0 0 2.75 2.75 0 0 2.75 2.75 0 0 5.51 2.75 0 0 2.75 2.76 0 0 2.75 2.75 0 0 5.51 2.75 0 0 2.75 2.75 0 0 2.76 2.76 0 0 2.75 5.5 0 0 2.75 2.75 0 0 2.75 2.76 0 0 2.75 2.75 0 0 2.76 5.5 0 0 2.75 8.26 0 0 2.75 30.28 0 0 -2.75 5.51 0 0 -2.75 5.5 0 0 -2.76 5.5 0 0 -2.75 2.76 0 0 -2.75 2.75 0 0 -2.75 2.75 0 0 -2.75 2.76 0 0 -2.76 2.75 0 0 -2.75 2.75 0 0 -2.75 2.75 0 0 -2.76 2.76 0 0 -2.75 2.75 0 0 -5.5 2.75 0 0 -2.76 2.76 0 0 -2.75 2.75 0 0 -5.5 2.75 0 0 -2.75 2.75 0 0 -5.51 2.75 0 0 -2.75 2.76 0 0 -5.51 2.75 0 0 -2.75 2.75 0 0 -5.51 2.75 0 0 -5.5 2.76 0 0 -5.51 2.75 0 0 -2.75 2.75 0 0 -5.5 2.76 0 0 -5.51 2.75 0 0 -5.5 2.75 0 0 -8.26 2.75 0 0 -5.51 2.75 0 0 -5.5 2.76 0 0 -8.26 2.75 0 0 -5.51 2.75 0 0 -8.25 2.76 0 0 -11.01 2.75 0 0 -5.51 2.75 0 0 -8.26 2.75 0 0 -5.5 2.76 0 0 -8.26 2.75 0 0 -11.01 2.75 0 0 -8.26 2.75 0 0 -13.76 2.76 0 0 -8.26 2.75 0 0 -8.26 2.75 0 0 -13.76 2.75 0 0 -11.01 2.76 0 0 -13.76 2.75 0 0 -11.01 2.75 0 0 -19.27 2.75 0 0 -13.76 2.76 0 0 -19.27 2.75 0 0 -19.27 2.75 0 0 -33.03 2.76 0 0 -121.12 -2.76 0 0 -82.57zm-305.54 -44.04l2.76 0 0 -11.01 2.75 0 0 -11.02 2.75 0 0 -2.75 2.76 0 0 -2.75 2.75 0 0 -2.75 13.76 0 0 2.75 5.51 0 0 2.75 2.75 0 0 2.75 2.75 0 0 2.76 2.75 0 0 2.75 2.76 0 0 2.75 2.75 0 0 2.76 2.75 0 0 5.5 2.76 0 0 2.75 2.75 0 0 5.51 2.75 0 0 2.75 2.75 0 0 5.51 2.75 0 0 5.5 2.76 0 0 2.75 2.75 0 0 5.51 2.75 0 0 5.5 2.76 0 0 5.51 2.75 0 0 5.51 2.75 0 0 5.5 2.75 0 0 5.5 2.76 0 0 2.76 2.75 0 0 8.26 2.75 0 0 5.5 2.75 0 0 5.51 2.76 0 0 8.25 2.75 0 0 5.51 2.75 0 0 5.5 2.75 0 0 8.26 2.76 0 0 5.51 2.75 0 0 5.5 2.75 0 0 8.26 2.75 0 0 5.5 2.76 0 0 8.26 2.75 0 0 5.51 2.75 0 0 8.26 2.76 0 0 8.25 2.75 0 0 8.26 2.75 0 0 5.51 2.75 0 0 8.25 2.75 0 0 8.26 2.76 0 0 5.51 2.75 0 0 8.25 2.75 0 0 8.26 2.76 0 0 5.51 2.75 0 0 11.01 2.75 0 0 11.01 2.75 0 0 5.5 2.76 0 0 11.01 2.75 0 0 5.51 2.75 0 0 11.01 2.75 0 0 11.01 2.75 0 0 8.26 2.76 0 0 13.76 2.75 0 0 8.26 2.75 0 0 13.76 2.76 0 0 11.01 2.75 0 0 19.27 2.75 0 0 8.26 2.75 0 0 16.52 2.76 0 0 8.25 2.75 0 0 13.76 2.75 0 0 13.77 2.76 0 0 19.27 2.75 0 0 11.01 2.75 0 0 13.76 2.75 0 0 13.76 2.75 0 0 8.26 2.76 0 0 13.76 2.75 0 0 11.01 2.75 0 0 8.26 -2.75 0 0 5.51 -2.75 0 0 5.5 -2.76 0 0 5.51 -2.75 0 0 2.75 -2.75 0 0 5.5 -2.75 0 0 5.51 -2.75 0 0 5.5 -2.76 0 0 5.51 -2.75 0 0 2.75 -2.75 0 0 5.51 -2.76 0 0 2.75 -2.75 0 0 5.5 -2.75 0 0 2.76 -2.75 0 0 5.5 -2.76 0 0 2.76 -2.75 0 0 2.75 -2.75 0 0 5.5 -2.76 0 0 2.75 -2.75 0 0 2.76 -2.75 0 0 2.75 -2.75 0 0 2.75 -2.75 0 0 2.75 -5.51 0 0 2.76 -2.75 0 0 2.75 -8.26 0 0 2.75 -11.01 0 0 -2.75 -5.5 0 0 -2.75 -5.51 0 0 -2.76 -2.75 0 0 -2.75 -2.76 0 0 -2.75 -2.75 0 0 -2.75 -2.75 0 0 -2.76 -2.75 0 0 -2.75 -2.76 0 0 -2.75 -2.75 0 0 -2.75 -2.75 0 0 -5.51 -2.75 0 0 -2.75 -2.76 0 0 -5.51 -2.75 0 0 -2.75 -2.75 0 0 -5.5 -2.75 0 0 -2.76 -2.76 0 0 -5.5 -2.75 0 0 -5.51 -2.75 0 0 -2.75 -2.75 0 0 -8.26 -2.76 0 0 -2.75 -2.75 0 0 -5.5 -2.75 0 0 -5.51 -2.76 0 0 -5.5 -2.75 0 0 -2.76 -2.75 0 0 -5.5 -2.75 0 0 -5.51 -2.75 0 0 -5.5 -2.76 0 0 -5.51 -2.75 0 0 -5.5 -2.75 0 0 -2.75 -2.76 0 0 -5.51 -2.75 0 0 -5.51 -2.75 0 0 -2.75 -2.75 0 0 -5.5 -2.76 0 0 -5.51 -2.75 0 0 -5.5 -2.75 0 0 -2.76 -2.76 0 0 -5.5 -2.75 0 0 -5.51 -2.75 0 0 -2.75 -2.75 0 0 -5.5 -2.75 0 0 -5.51 -2.76 0 0 -2.75 -2.75 0 0 -5.51 -2.75 0 0 -2.75 -2.76 0 0 -11.01 2.76 0 0 -16.52 2.75 0 0 -16.51 2.75 0 0 -33.03 2.76 0 0 -22.02 2.75 0 0 -27.53 2.75 0 0 -79.82 -2.75 0 0 -60.56 -2.75 0 0 -24.78 -2.76 0 0 -35.78 -2.75 0 0 -19.27 -2.75 0 0 -22.02 -2.76 0 0 -49.54zm11.02 -52.3l-5.51 0 0 2.75 -5.51 0 0 2.75 -5.5 0 0 2.75 -2.75 0 0 5.51 -2.76 0 0 2.75 -2.75 0 0 5.51 -2.75 0 0 8.25 -2.75 0 0 8.26 -2.75 0 0 82.58 2.75 0 0 22.02 2.75 0 0 22.02 2.75 0 0 33.03 2.75 0 0 41.29 2.76 0 0 104.6 -2.76 0 0 27.53 -2.75 0 0 27.52 -2.75 0 0 30.28 -2.75 0 0 -2.75 -2.75 0 0 -5.51 -2.76 0 0 -8.25 -2.75 0 0 -5.51 -2.75 0 0 -5.51 -2.76 0 0 -8.25 -2.75 0 0 -8.26 -2.75 0 0 -5.51 -2.75 0 0 -8.25 -2.76 0 0 -5.51 -2.75 0 0 -11.01 -2.75 0 0 -8.26 -2.76 0 0 -8.25 -2.75 0 0 -5.51 -2.75 0 0 -13.76 -2.75 0 0 -5.51 -2.75 0 0 -13.76 -2.76 0 0 -11.01 -2.75 0 0 -16.52 -2.75 0 0 -13.76 -2.76 0 0 -13.76 -2.75 0 0 -22.02 -2.75 0 0 -16.52 -2.75 0 0 -27.53 -2.76 0 0 -16.51 -2.75 0 0 -22.02 -2.75 0 0 -19.27 -2.75 0 0 -13.76 -2.76 0 0 -5.51 -2.75 0 0 -11.01 -2.75 0 0 -5.5 -2.75 0 0 -5.51 -2.76 0 0 -5.5 -2.75 0 0 -2.76 -2.75 0 0 -5.5 -2.75 0 0 -2.75 -2.76 0 0 -2.76 -5.5 0 0 -2.75 -2.76 0 0 -2.75 -5.5 0 0 -2.75 -16.52 0 0 2.75 -8.25 0 0 2.75 -5.51 0 0 2.75 -2.75 0 0 2.76 -2.75 0 0 2.75 -2.76 0 0 2.75 -2.75 0 0 2.75 -2.75 0 0 2.76 -2.75 0 0 5.5 -2.76 0 0 2.75 -2.75 0 0 5.51 -2.75 0 0 5.51 -2.75 0 0 5.5 -2.76 0 0 8.26 -2.75 0 0 8.26 -2.75 0 0 5.5 -2.76 0 0 5.51 -2.75 0 0 11.01 -2.75 0 0 5.5 -2.75 0 0 13.76 -2.75 0 0 8.26 -2.76 0 0 11.01 -2.75 0 0 16.52 -2.75 0 0 13.76 -2.76 0 0 19.27 -2.75 0 0 13.76 -2.75 0 0 13.76 -2.75 0 0 22.03 -2.76 0 0 121.11 2.76 0 0 35.79 2.75 0 0 30.27 2.75 0 0 13.76 2.75 0 0 16.52 2.76 0 0 11.01 2.75 0 0 16.52 2.75 0 0 16.51 2.76 0 0 11.01 2.75 0 0 11.01 2.75 0 0 8.26 2.75 0 0 13.76 2.75 0 0 16.52 2.76 0 0 5.5 2.75 0 0 11.01 2.75 0 0 13.77 2.76 0 0 13.76 2.75 0 0 11.01 2.75 0 0 11.01 2.75 0 0 13.76 2.76 0 0 13.77 2.75 0 0 8.25 2.75 0 0 19.27 2.75 0 0 11.01 2.76 0 0 22.02 2.75 0 0 16.52 2.75 0 0 22.02 2.75 0 0 110.1 -2.75 0 0 22.02 -2.75 0 0 13.77 -2.75 0 0 11.01 -2.76 0 0 11.01 -2.75 0 0 8.26 -2.75 0 0 8.25 -2.75 0 0 5.51 -2.76 0 0 5.5 -2.75 0 0 8.26 -2.75 0 0 5.51 -2.75 0 0 5.5 -2.76 0 0 8.26 -2.75 0 0 5.5 -2.75 0 0 5.51 -2.76 0 0 8.26 -2.75 0 0 5.5 -2.75 0 0 8.26 -2.75 0 0 5.5 -2.75 0 0 5.51 -2.76 0 0 5.51 -2.75 0 0 11.01 -2.75 0 0 5.5 -2.76 0 0 5.51 -2.75 0 0 8.25 -2.75 0 0 8.26 -2.75 0 0 5.51 -2.76 0 0 8.26 -2.75 0 0 8.25 -2.75 0 0 8.26 -2.75 0 0 13.76 -2.75 0 0 11.02 -2.76 0 0 13.76 -2.75 0 0 22.02 -2.75 0 0 71.57 2.75 0 0 13.76 2.75 0 0 11.01 2.76 0 0 11.01 2.75 0 0 13.76 2.75 0 0 5.51 2.75 0 0 5.5 2.75 0 0 8.26 2.76 0 0 5.5 2.75 0 0 2.76 2.75 0 0 5.5 2.75 0 0 5.51 2.76 0 0 5.5 2.75 0 0 2.76 2.75 0 0 2.75 2.76 0 0 5.5 2.75 0 0 2.76 2.75 0 0 2.75 2.75 0 0 2.75 2.75 0 0 2.75 2.76 0 0 2.76 2.75 0 0 2.75 2.75 0 0 2.75 2.76 0 0 2.75 2.75 0 0 2.76 5.5 0 0 2.75 2.76 0 0 2.75 5.5 0 0 2.76 5.51 0 0 2.75 2.75 0 0 2.75 5.5 0 0 2.75 5.51 0 0 2.75 5.5 0 0 2.76 8.26 0 0 2.75 5.51 0 0 2.75 8.25 0 0 2.76 8.26 0 0 2.75 5.51 0 0 2.75 2.75 0 0 2.75 5.51 0 0 2.76 2.75 0 0 2.75 2.75 0 0 2.75 5.51 0 0 2.75 2.75 0 0 2.75 5.5 0 0 2.76 2.76 0 0 2.75 5.5 0 0 2.75 5.51 0 0 2.76 2.75 0 0 2.75 5.51 0 0 2.75 5.5 0 0 2.75 5.5 0 0 2.76 5.51 0 0 2.75 8.26 0 0 2.75 13.76 0 0 2.76 22.02 0 0 -2.76 11.01 0 0 -2.75 11.01 0 0 -2.75 5.51 0 0 -2.76 8.26 0 0 -2.75 8.25 0 0 -2.75 5.51 0 0 -2.75 8.26 0 0 -2.76 5.5 0 0 -2.75 5.51 0 0 -2.75 8.26 0 0 -2.76 5.5 0 0 -2.75 8.26 0 0 -2.75 5.5 0 0 -2.75 8.26 0 0 -2.75 5.51 0 0 -2.76 8.25 0 0 -2.75 8.26 0 0 -2.75 13.76 0 0 -2.75 13.77 0 0 -2.76 30.28 0 0 2.76 5.5 0 0 2.75 5.51 0 0 2.75 5.5 0 0 2.75 8.26 0 0 2.76 5.5 0 0 2.75 5.51 0 0 2.75 5.5 0 0 2.75 5.51 0 0 2.75 8.26 0 0 2.76 2.75 0 0 2.75 5.5 0 0 2.75 5.51 0 0 2.76 5.51 0 0 2.75 5.5 0 0 2.75 8.26 0 0 2.75 5.5 0 0 2.76 8.26 0 0 2.75 5.51 0 0 2.75 16.51 0 0 2.76 27.53 0 0 -2.76 11.01 0 0 -2.75 13.76 0 0 -2.75 5.51 0 0 -2.76 8.25 0 0 -2.75 5.51 0 0 -2.75 5.51 0 0 -2.75 5.5 0 0 -2.76 5.5 0 0 -2.75 5.51 0 0 -2.75 5.51 0 0 -2.76 2.75 0 0 -2.75 5.5 0 0 -2.75 5.51 0 0 -2.75 2.75 0 0 -2.75 2.76 0 0 -2.76 5.5 0 0 -2.75 2.75 0 0 -2.75 2.75 0 0 -2.75 2.76 0 0 -2.76 5.5 0 0 -2.75 2.76 0 0 -2.75 2.75 0 0 -2.76 2.75 0 0 -2.75 2.75 0 0 -2.75 2.76 0 0 -2.75 2.75 0 0 -2.75 2.75 0 0 -2.76 2.75 0 0 -2.75 2.75 0 0 -2.75 2.76 0 0 -2.76 5.5 0 0 -5.5 2.76 0 0 -2.75 2.75 0 0 -2.76 2.75 0 0 -2.75 2.75 0 0 -2.75 2.76 0 0 -2.75 2.75 0 0 -5.51 2.75 0 0 -2.75 2.75 0 0 -2.75 2.76 0 0 -2.76 2.75 0 0 -5.5 2.75 0 0 -2.75 2.75 0 0 -5.51 2.76 0 0 -2.75 2.75 0 0 -5.51 2.75 0 0 -2.75 2.76 0 0 -5.5 2.75 0 0 -5.51 2.75 0 0 -5.51 2.75 0 0 -5.5 2.75 0 0 -5.51 2.76 0 0 -8.26 2.75 0 0 -11 2.75 0 0 -11.01 2.76 0 0 -5.51 2.75 0 0 -24.77 2.75 0 0 -63.31 -2.75 0 0 -22.02 -2.75 0 0 -11.01 -2.76 0 0 -16.52 -2.75 0 0 -11.01 -2.75 0 0 -11.01 -2.76 0 0 -8.26 -2.75 0 0 -8.26 -2.75 0 0 -8.25 -2.75 0 0 -5.51 -2.75 0 0 -8.26 -2.76 0 0 -11.01 -2.75 0 0 -5.5 -2.75 0 0 -8.26 -2.76 0 0 -5.5 -2.75 0 0 -8.26 -2.75 0 0 -5.51 -2.75 0 0 -8.26 -2.76 0 0 -8.25 -2.75 0 0 -5.51 -2.75 0 0 -8.26 -2.75 0 0 -5.5 -2.76 0 0 -5.51 -2.75 0 0 -5.5 -2.75 0 0 -5.51 -2.75 0 0 -5.5 -2.76 0 0 -5.51 -2.75 0 0 -5.5 -2.75 0 0 -5.51 -2.76 0 0 -5.5 -2.75 0 0 -8.26 -2.75 0 0 -11.01 -2.75 0 0 -11.01 -2.75 0 0 -13.76 -2.76 0 0 -13.77 -2.75 0 0 -13.76 -2.75 0 0 -27.53 -2.75 0 0 -99.09 2.75 0 0 -30.28 2.75 0 0 -16.51 2.75 0 0 -22.03 2.76 0 0 -22.02 2.75 0 0 -16.51 2.75 0 0 -22.02 2.75 0 0 -27.53 2.75 0 0 -22.02 2.76 0 0 -27.52 2.75 0 0 -60.56 2.75 0 0 -88.08 -2.75 0 0 -27.53 -2.75 0 0 -27.52 -2.76 0 0 -11.02 -2.75 0 0 -22.02 -2.75 0 0 -11.01 -2.75 0 0 -11.01 -2.75 0 0 -5.5 -2.76 0 0 -16.52 -2.75 0 0 -5.5 -2.75 0 0 -13.76 -2.75 0 0 -5.51 -2.76 0 0 -8.26 -2.75 0 0 -11.01 -2.75 0 0 -5.5 -2.76 0 0 -11.01 -2.75 0 0 -11.01 -2.75 0 0 -5.51 -2.75 0 0 -8.26 -2.75 0 0 -8.25 -2.76 0 0 -5.51 -2.75 0 0 -11.01 -2.75 0 0 -5.51 -2.76 0 0 -8.25 -2.75 0 0 -8.26 -2.75 0 0 -5.51 -2.75 0 0 -5.5 -2.76 0 0 -5.51 -2.75 0 0 -5.5 -2.75 0 0 -5.51 -2.76 0 0 -5.5 -2.75 0 0 -5.51 -2.75 0 0 -2.75 -2.75 0 0 -5.51 -2.75 0 0 -5.5 -2.76 0 0 -2.75 -2.75 0 0 -5.51 -2.75 0 0 -2.75 -2.76 0 0 -2.75 -2.75 0 0 -5.51 -2.75 0 0 -2.75 -2.75 0 0 -2.75 -2.76 0 0 -2.76 -2.75 0 0 -2.75 -5.5 0 0 -2.75 -2.76 0 0 -2.75 -5.5 0 0 -2.76 -30.28 0 0 2.76 -5.5 0 0 2.75 -2.76 0 0 2.75 -2.75 0 0 2.75 -2.75 0 0 2.76 -2.76 0 0 5.5 -2.75 0 0 5.51 -2.75 0 0 5.5 -2.75 0 0 8.26 -2.76 0 0 13.76 -2.75 0 0 107.35 2.75 0 0 93.59 -2.75 0 0 27.53 -2.75 0 0 22.02 -2.75 0 0 19.27 -2.76 0 0 11.01 -2.75 0 0 19.27 -2.75 0 0 16.51 -2.75 0 0 8.26 -2.76 0 0 16.52 -2.75 0 0 11 -2.75 0 0 8.26 -2.75 0 0 11.01 -2.76 0 0 11.01 -2.75 0 0 5.51 -2.75 0 0 13.76 -2.76 0 0 5.51 -2.75 0 0 11.01 -2.75 0 0 8.25 -2.75 0 0 5.51 -2.75 0 0 -8.26 -2.76 0 0 -16.51 -2.75 0 0 -11.01 -2.75 0 0 -13.77 -2.76 0 0 -13.76 -2.75 0 0 -13.76 -2.75 0 0 -11.01 -2.75 0 0 -13.77 -2.76 0 0 -11.01 -2.75 0 0 -16.51 -2.75 0 0 -11.01 -2.75 0 0 -16.52 -2.75 0 0 -8.25 -2.76 0 0 -13.77 -2.75 0 0 -11.01 -2.75 0 0 -11.01 -2.76 0 0 -11.01 -2.75 0 0 -5.51 -2.75 0 0 -11.01 -2.75 0 0 -5.5 -2.76 0 0 -13.76 -2.75 0 0 -8.26 -2.75 0 0 -5.51 -2.76 0 0 -5.5 -2.75 0 0 -11.01 -2.75 0 0 -5.51 -2.75 0 0 -8.26 -2.75 0 0 -8.25 -2.76 0 0 -5.51 -2.75 0 0 -8.26 -2.75 0 0 -11.01 -2.75 0 0 -5.5 -2.76 0 0 -8.26 -2.75 0 0 -5.51 -2.75 0 0 -11 -2.76 0 0 -5.51 -2.75 0 0 -5.51 -2.75 0 0 -5.5 -2.75 0 0 -8.26 -2.75 0 0 -5.5 -2.76 0 0 -8.26 -2.75 0 0 -5.51 -2.75 0 0 -5.5 -2.76 0 0 -5.51 -2.75 0 0 -5.5 -2.75 0 0 -8.26 -2.75 0 0 -5.5 -2.76 0 0 -5.51 -2.75 0 0 -5.51 -2.75 0 0 -5.5 -2.75 0 0 -5.51 -2.76 0 0 -2.75 -2.75 0 0 -5.5 -2.75 0 0 -5.51 -2.75 0 0 -5.5 -2.76 0 0 -2.76 -2.75 0 0 -5.5 -2.75 0 0 -5.51 -2.75 0 0 -2.75 -2.76 0 0 -2.75 -2.75 0 0 -5.51 -2.75 0 0 -2.75 -2.76 0 0 -2.75 -2.75 0 0 -2.75 -2.75 0 0 -2.76 -2.75 0 0 -2.75 -2.75 0 0 -2.75 -2.76 0 0 -2.76 -2.75 0 0 -2.75 -5.51 0 0 -2.75 -5.5 0 0 -2.75 -5.51 0 0 -2.76 -19.26 0 0 2.76z"/>
 </g>
</svg>
