<?xml version="1.0" encoding="UTF-8"?>
<!DOCTYPE svg PUBLIC "-//W3C//DTD SVG 1.1//EN" "http://www.w3.org/Graphics/SVG/1.1/DTD/svg11.dtd">
<!-- Creator: CorelDRAW (Versión de evaluación) -->
<svg xmlns="http://www.w3.org/2000/svg" xml:space="preserve" width="739px" height="2458px" version="1.1" style="shape-rendering:geometricPrecision; text-rendering:geometricPrecision; image-rendering:optimizeQuality; fill-rule:evenodd; clip-rule:evenodd"
viewBox="0 0 739 2457.4"
 xmlns:xlink="http://www.w3.org/1999/xlink"
 xmlns:xodm="http://www.corel.com/coreldraw/odm/2003">
 <defs>
  <style type="text/css">
   <![CDATA[
    .str1 {stroke:#FFF212;stroke-width:10;stroke-miterlimit:22.9256}
    .str0 {stroke:#D6D2C8;stroke-width:10;stroke-miterlimit:22.9256}
    .fil1 {fill:#FECB29}
    .fil0 {fill:#F5F1E8}
   ]]>
  </style>
 </defs>
 <g id="tooth-pulpotomy-25">
  <metadata id="CorelCorpID_0Corel-Layer"/>
  <path id="crown" class="fil0 str0" d="M631.04 1667.25c69.82,146.14 173.37,487.41 50.53,624.84 -28.42,31.8 -203.52,141.64 -245.49,158.42 -92.47,36.99 -454.48,-74.52 -435.78,-346.31 2.31,-33.66 58.82,-317.07 69.76,-334.59 12.37,-19.8 85.22,-34.18 126.55,-77.35 77.35,-80.81 158.51,-120.4 275.04,-61.61 87.65,44.2 65.95,24.35 159.39,36.6z"/>
  <g id="_1979627866976">
   <path class="fil1 str1" d="M487.69 1856.28c-37.75,-9.5 -71.72,-25.55 -107.78,-43.74 -2.33,-1.17 -5.75,-2.85 -9.12,-4.22 -9.43,6.84 -21.33,18.88 -27.02,24.82 -33.94,35.45 -64.37,54.39 -99.03,72.23 -5.51,26.04 -10.41,52.43 -15.26,76.39 -9.01,44.46 -20.25,94.02 -26.07,139.05 -1.78,68.65 111.8,124.77 173.01,132.08 24.79,-13.51 51.16,-30.73 73.2,-44.7 23.99,-15.22 55.44,-34.46 79.35,-53.11 13.44,-36.74 0.68,-129.76 -5.51,-162.48 -8.28,-43.8 -20.54,-90.81 -35.77,-136.32z"/>
  </g>
  <path id="root" class="fil0 str0" d="M114.65 873.24c25.21,-11.92 15.26,-3.04 30.9,-44.68 7.23,-19.27 12.81,-35.25 20.94,-54.61 135.66,-323.34 112.71,-218.76 191.06,-578.18 13.43,-61.66 41.33,-192.66 104.44,-195.76 78.88,93.16 38.64,712.28 43.29,852.02 10.81,325.1 117.58,729.35 116.41,787.76 -96.09,-0.27 -69.73,3.42 -146.22,-36.34 -49.64,-25.81 -111.07,-34.65 -169.6,-18.26 -120.45,33.73 -67.8,86.01 -237.68,149.75 -11.8,-226.51 -2.64,-447.59 15.02,-669.2 5.11,-64.22 40.88,-131.94 31.44,-192.5z"/>
 </g>
</svg>
