<?xml version="1.0" encoding="UTF-8"?>
<!DOCTYPE svg PUBLIC "-//W3C//DTD SVG 1.1//EN" "http://www.w3.org/Graphics/SVG/1.1/DTD/svg11.dtd">
<!-- Creator: CorelDRAW (Versión de evaluación) -->
<svg xmlns="http://www.w3.org/2000/svg" xml:space="preserve" width="739px" height="2458px" version="1.1" style="shape-rendering:geometricPrecision; text-rendering:geometricPrecision; image-rendering:optimizeQuality; fill-rule:evenodd; clip-rule:evenodd"
viewBox="0 0 739 2457.4"
 xmlns:xlink="http://www.w3.org/1999/xlink"
 xmlns:xodm="http://www.corel.com/coreldraw/odm/2003">
 <defs>
  <style type="text/css">
   <![CDATA[
    .str1 {stroke:#FFF212;stroke-width:10;stroke-miterlimit:22.9256}
    .str0 {stroke:#D6D2C8;stroke-width:10;stroke-miterlimit:22.9256}
    .fil1 {fill:#FECB29}
    .fil0 {fill:#F5F1E8}
   ]]>
  </style>
 </defs>
 <g id="tooth-pulpotomy-22">
  <metadata id="CorelCorpID_0Corel-Layer"/>
  <path id="crown" class="fil0 str0" d="M37.59 2455.83c-54.39,-54.52 -36.06,-116.6 -30.62,-193.93 19.35,-275.35 31.02,-290.87 85.6,-558.43 24.31,-119.12 -0.1,-81.59 100.1,-127.59 182.91,-83.98 154.42,-259.06 392.18,-30.34 87.83,84.5 76.36,24.9 119.31,329.84 12.77,90.58 42.43,316.35 32.4,398.07 -19.03,154.99 -174.69,137.66 -301,149.18 -95.05,8.67 -319.87,42.4 -397.97,33.2z"/>
  <g id="_1978686750192">
   <path class="fil1 str1" d="M208.23 2247.42c1.85,-0.2 3.65,-0.4 5.4,-0.59 67.86,-7.37 135.88,-16.91 203.79,-23.11 24.37,-2.22 82.31,-3.27 122.08,-7.87 -0.59,-39.58 -6.38,-88.74 -9.56,-120.5 -6.42,-64.15 -14.56,-128.27 -23.56,-192.11 -7.13,-50.66 -13.91,-101.5 -21.84,-152.04 -1.49,-9.49 -3.07,-21.1 -5.11,-32.16 -11.07,-9.64 -22.28,-19.2 -33.05,-29.56 -6.87,-6.6 -16.82,-16.2 -27.71,-26.1 -40.62,35.79 -83.71,65.57 -132.26,89.11 -17.82,86.48 -38.21,173.8 -52.93,260.65 -13.09,77.22 -19.63,156.05 -25.25,234.28z"/>
  </g>
  <path id="root" class="fil0 str0" d="M468.72 18.1c62.19,-1.98 27.84,-22.58 97.21,-17.21 47.56,70.28 19.71,81.33 10.44,163.76 -29.03,258.4 55.32,1120.15 75.95,1391.71 -94.11,-54.18 -148.29,-175.78 -274.39,-144.64 -80.13,19.77 -138.01,123.1 -262.59,157.74 19.94,-244.41 120.13,-523.73 162.99,-774.74 24.58,-143.96 26.15,-290.75 50.26,-437.06 39.41,-239.13 127.66,-268.26 140.13,-339.56z"/>
 </g>
</svg>
