<?xml version="1.0" encoding="UTF-8"?>
<!DOCTYPE svg PUBLIC "-//W3C//DTD SVG 1.1//EN" "http://www.w3.org/Graphics/SVG/1.1/DTD/svg11.dtd">
<!-- Creator: CorelDRAW (Versión de evaluación) -->
<svg xmlns="http://www.w3.org/2000/svg" xml:space="preserve" width="926px" height="2062px" version="1.1" style="shape-rendering:geometricPrecision; text-rendering:geometricPrecision; image-rendering:optimizeQuality; fill-rule:evenodd; clip-rule:evenodd"
viewBox="0 0 926 2061.44"
 xmlns:xlink="http://www.w3.org/1999/xlink"
 xmlns:xodm="http://www.corel.com/coreldraw/odm/2003">
 <defs>
  <style type="text/css">
   <![CDATA[
    .fil4 {fill:#4B4B4D}
    .fil1 {fill:#FFCC29}
    .fil3 {fill:#F48884}
    .fil2 {fill:#F3ECD9}
    .fil0 {fill:#F8F9FD}
   ]]>
  </style>
 </defs>
 <g id="pulpotomy">
  <metadata id="CorelCorpID_0Corel-Layer"/>
  <path id="crown" class="fil0" d="M535.25 1932.53c-0.73,-14.44 2.41,-7.93 3.46,-18.01 0.73,-6.96 -1.5,-14.61 -1.03,-21.86 1.16,-17.64 6.63,-7.87 3.83,-37.64 -1.85,-19.71 1.69,-54.25 -13.66,-69.3 -6.87,-6.73 2.09,-2.21 -7.64,-5.99 0.58,21.04 7.56,52.07 1.16,70.13 -4.86,13.7 2.67,32.57 -2.78,46.36 -8.55,21.62 1.96,42.44 -53.87,67.62 -12.59,5.68 -3.02,4 -18.05,8.18 -0.71,0.2 -1.39,0.3 -2.08,0.53l-43.11 15.6c-7.71,3.21 0.74,2.09 -9.36,5.24l-38.93 12.86c-6.91,3.6 -11.04,3.42 -18.32,6.39 -15.15,6.18 -38.79,22.49 -55.62,20.42 -15.49,-1.91 -66.26,-38.64 -86.75,-48.09 -9.17,-4.23 -2.03,-0.48 -8.51,-4.59l-41.5 -25.38c-20.85,-13.53 -45.75,-28.62 -63.23,-45.71 -48.42,-47.32 -37.33,-65.05 -47.47,-87.49 -15.1,-33.45 -1.23,-36.07 -3.27,-66.83 -1.79,-27.11 4.49,-22.11 4.28,-42.52 -0.18,-17.73 1.14,-7.25 4.14,-18.7l29.04 -95.38c11.95,-22.28 15.58,-45.44 29.09,-67.92l5.67 -17.87c16.57,-38.57 45.86,-73.53 84.61,-89.91 17.36,-7.34 66.09,-19.08 87.94,-13.81 35.3,8.51 42.85,4.39 86.12,18.02l81.67 22.78c14.35,4.76 79.84,3.58 97.06,1.42 18.37,-2.32 0.57,-5.91 44.18,-7.48 66.43,-2.39 88.65,11.94 145.45,36.2 26.19,11.18 57.75,38.05 73.36,61.75l20.75 34.91c14.95,26.35 28.93,58.21 37.81,87.83 2.9,9.68 -0.22,0.32 4.32,8.33 6.88,12.16 2.07,9.51 5.11,22.05 3.35,13.81 8.25,5.71 10.41,27.83 2.78,28.43 6.81,-7.19 12.84,59.98 1.48,16.53 3.96,36.44 4.36,52.63 0.31,12.87 -8.79,44.68 -15.72,53.76 -22.47,29.46 -30.04,46.55 -66.67,72.23 -4.75,3.32 -3.45,3.12 -6.48,5.63 -4.88,4.02 -2.39,1.65 -7.32,4.85l-62.8 36.14c-15.2,6.3 -54.34,3.54 -68.11,-3.13l-13.49 -4.87c-24.75,-10.05 -52.74,-27.39 -77.73,-39.71 -0.54,-0.27 -1.22,-0.59 -1.75,-0.87l-41.41 -26.61z"/>
  <g id="_3232298966544">
   <path class="fil1" d="M583.65 1910.25l15.23 9.79c24.29,12.04 48.51,27.53 73.39,37.76l14.8 5.35 1.28 0.62c6.45,2.05 23.73,3.28 31.9,2.21l56.98 -32.8c0.67,-0.41 1.33,-0.82 2,-1.22 2.89,-2.83 5.9,-5.23 9.33,-7.63 28.22,-19.79 35.88,-35.13 55.6,-61.19 2.97,-6.14 7.19,-21.25 7.66,-27.54 -0.44,-16.26 -2.72,-32.89 -4.18,-49.11 -0.66,-7.33 -1.36,-18.47 -2.95,-26.8 -6.37,-9.64 -8.6,-20.19 -9.82,-32.58 -4.47,-6.61 -7.33,-13.37 -9.39,-21.86 -1,-4.13 -1.66,-7.95 -2.02,-11.83 -2.28,-3.5 -4.13,-7.42 -5.44,-11.7 -0.46,-1.51 -0.89,-3.02 -1.35,-4.53 -7.96,-26.55 -19.98,-54.06 -33.63,-78.18l-19.92 -33.5c-11.06,-16.32 -35.15,-36.79 -52.98,-44.41 -50.57,-21.6 -69.59,-34.66 -126.2,-32.62 -5.08,0.18 -12,0.25 -17.52,0.97 -7.26,3.43 -14.22,5.12 -22.67,6.18 -24.83,3.13 -89.95,4.22 -114.73,-2.72l-82.4 -22.97 -0.71 -0.22c-13.13,-4.14 -25.54,-7.33 -39.14,-9.35 -14.96,-2.22 -28.9,-4.23 -43.68,-7.77 -12.22,-1.85 -49.02,6.68 -60.25,11.43 -27.39,11.58 -48.09,37.64 -60.01,64.37l-6.54 20.66 -2.73 4.53c-4.86,8.09 -8.17,17.23 -11.36,26.08 -4.4,12.25 -8.66,24.08 -14.44,35.67l-27.64 90.78c-0.7,2.54 -1.49,4.98 -2.4,7.34 -0.01,12.17 -1.77,18.55 -4.53,30.27 -0.3,2.32 -0.01,6 0.14,8.28 0.73,10.98 0.13,21.43 -1.8,32.24 -0.54,3.05 -1.73,7.39 -1.96,10.44 0.34,2.34 2.24,6.62 3.15,8.63 6.52,14.43 6.32,24.99 10.89,38.22 4.35,12.57 17.84,26.64 27.03,35.63 15.23,14.88 37.78,28.17 55.79,39.83l41.3 25.26 0.31 0.2c0.44,0.28 0.87,0.55 1.3,0.83 0.65,0.3 1.3,0.6 1.95,0.9 15.31,7.05 31.02,17.63 45.41,26.56 7.1,4.42 18.72,12.14 27.7,16.54 9.65,-3.54 25.52,-12.97 33.5,-16.22 5.17,-2.11 9.79,-3.16 14.86,-4.82l2.88 -1.5 38.33 -12.66c3.16,-2.08 6.6,-3.88 10.27,-5.4l0.97 -0.41 44.74 -16.2 0.66 -0.21c1.58,-0.52 3.15,-0.94 4.75,-1.32 0.03,0 0.05,-0.01 0.07,-0.02 3.42,-2.11 6.99,-3.89 10.83,-5.63 4.45,-2 20.01,-9.57 22.82,-14 0.6,-1.29 1.1,-4.35 1.38,-5.74 1.45,-7.2 2.9,-13.89 5.35,-20.74 0.06,-3.57 -0.58,-8.36 -0.78,-11.67 -0.74,-12.18 -0.2,-23.69 3.81,-35.34 1.94,-9.72 -3.21,-43.21 -3.52,-54.45l-1.86 -67.58 63.02 24.49c0.78,0.3 1.56,0.6 2.35,0.87 10.57,3.55 18.8,10.37 24.15,18.81 13.88,15.78 19.44,35.97 21.46,56.72 1.19,12.23 0.65,24.55 1.78,36.55 1.58,16.8 1.98,29.13 -3.66,44.76 0.23,5.36 0.9,9.76 1.09,14.67z"/>
  </g>
  <path id="root" class="fil2" d="M626.53 687.04c23.63,9.56 44.48,39.92 56.38,64.29l54.7 130.88c2.59,10.15 2.04,17.24 5.82,27.44 7.61,20.54 14.99,57.08 16.37,77.58 1.3,19.25 6.88,26.52 10.09,54.98 3.49,30.91 8.96,86.94 5.37,114.25l-3.61 78.37c-0.02,13.54 -3.04,11.98 -3.99,22.65 -0.77,8.69 0.79,17.71 -0.14,26.28 -1.34,12.22 -3.81,8.76 -4.21,23.19 -0.23,8.33 0.63,18.92 0.26,27.89 -0.55,13.1 -3.68,8.67 -3.19,24.81 1.2,39.19 7.59,79.38 10.57,118.31 -10.52,-3.64 -6.19,-3.72 -14.56,-9.96 -22.02,-16.41 -60.84,-32.94 -87.36,-39.03 -13.64,-3.13 -7.02,-4.47 -18.57,-6.74 -7.54,-1.48 -17.16,-0.23 -24.55,-1.18 -14.19,-1.83 -21.87,-6.93 -42.99,-3.69 -15.67,2.41 -27.98,3.01 -45.91,4.17 -16.44,1.07 -28.2,3.85 -41.42,4.73 -15.26,1.01 -30.29,-2.7 -47.59,-3.34 -17.76,-0.66 -43.35,-9.39 -56.91,-14.67l-39.69 -9c-17.1,-3.72 2.14,-4.88 -18.31,-7.1 -8.35,-0.9 -15.97,1.2 -23.61,-1.78 -10.29,-4.01 -0.08,-5.55 -19.53,-6.18 -15.48,-0.5 -32.24,-0.39 -47.75,-0.3 -35.57,0.23 -24.21,4.77 -42.09,7.22 -7.02,0.96 -4.04,-0.99 -10.62,2.14l-57.9 30c-1.21,-10.01 3.75,-82.82 1.98,-113.43 -1.21,-20.82 -3.11,-41.72 -4.77,-62.55 -1.8,-22.57 -6.95,-34.06 -8.88,-57.48 -4.96,-60.1 -20.94,-120.24 -21.83,-180.19 -0.4,-27.19 -1.31,-109.98 8.01,-133.1l6.76 -52.37c1.84,-7.49 3.52,-16.04 5.5,-25.11 6.45,-29.62 15.22,-59.05 28.2,-86.61 10.16,-21.55 50.54,-101.86 77.92,-100.02 8.25,46.37 -8.8,92.97 -11.82,139.06 -4.74,72.08 -7.32,68.25 0.51,150.71 0.84,8.83 1.41,18.79 2.74,27.49 1.73,11.24 4.11,11.2 6.04,22.35 1.49,8.57 1.29,19.23 3.08,27.43 1.16,5.28 15.33,39.93 18.83,65.35l13.94 44.88c14.81,30 29.24,66.72 51.16,94.3 4.52,5.68 8.3,10.95 12.55,16.35l25.59 32.03c20.77,24.5 57.99,53.51 90.55,46.23l28.95 -7.73c0.53,-0.25 1.13,-0.58 1.65,-0.83l64.84 -55.41c16.58,-18.15 29.86,-40.12 43.05,-61.58l8.79 -17.08c9.71,-18.07 14.79,-37.32 22.81,-55.27 6.31,-14.11 17.44,-63.04 20.69,-80.24 4.18,-22.07 10.35,-44.8 8.9,-68.13 -2.36,-37.79 -2.09,-67.11 -10.6,-103.52 -2.14,-9.16 -2.1,-17.55 -3.34,-26.8 -3.59,-26.6 -9.17,-17.84 -10.11,-77.24 -0.39,-24.8 -0.11,-31.78 13.25,-37.7zm-178.15 -70.34c9.91,6.44 0.39,-1.27 5.74,7.73 5.17,8.68 13.91,18.86 16.56,27.9 3.5,11.97 -0.54,12.36 6.19,23.66 4.86,8.16 2.07,-3.79 4.81,11 0.85,4.55 0.55,10.29 1.63,14.98 3.39,14.71 5.36,2.03 8.45,20.05 2.13,12.42 0.35,12.47 5.3,24.42 4.44,10.69 4.51,11.28 5.96,23.17 2.12,17.46 3.63,14.17 7.41,25.42 5.68,16.9 3.93,32.71 10.11,49.04 8.67,22.9 47.69,236.3 47.46,258.29 -0.17,16.96 -13.71,33.78 -20.57,44.69l-27.77 41.37c-9.19,12.49 -21.9,31.86 -38.65,43.11 -4.39,2.96 -3.3,1.5 -7.53,4.69 -19.41,14.64 -53.72,23.13 -78.25,6.44 -14.73,-10.02 -32.11,-28.71 -42.56,-43.94 -10.62,-15.46 -27.89,-37.43 -36.19,-53.44 -5.85,-11.29 -24.61,-26.9 -13.14,-54.83l6.24 -22.29c0.19,-0.62 0.39,-1.26 0.57,-1.88l7.39 -27.76c0.94,-3.68 5.36,-14.19 7.28,-20.55l55.82 -156.09c2.21,-13.42 3.04,-10.89 5.89,-19.58 2.76,-8.41 -0.16,-13.64 2.94,-23.07 4.28,-13.05 1.7,-6.78 3.65,-21.71 1.46,-11.09 4.33,-7.34 5.08,-22.99 0.82,-16.94 3.67,-10.53 5.15,-20.56 1.6,-10.77 -1.63,-12.17 1.77,-24.56 1.73,-6.3 7.94,-38.5 8.27,-45.17 0.92,-18.5 2.45,-9.87 5.18,-20.66 2.71,-10.75 -2.39,-13.5 2.86,-22.95 7.33,-13.21 9.52,-35.24 26.95,-23.93z"/>
  <g id="_3232298962224">
   <path class="fil3" d="M694.73 946.07c-0.85,22.21 -5.7,42.39 -9.98,65.01 -5.06,26.74 -13.87,68.8 -24.69,92.98 -8.78,19.64 -13.99,39.03 -24.38,58.52l-9.58 18.6 -1.13 1.84c-15.1,24.58 -30.01,48.82 -49.57,70.23l-2.39 2.62 -72.84 62.25 -6.12 3.06c-0.85,0.44 -1.81,0.94 -2.8,1.41l-4.77 2.27 -35.18 9.39 -1.14 0.25c-56.31,12.6 -111.83,-23.86 -146.79,-65.11l-0.53 -0.63 -26.11 -32.68c-4.32,-5.41 -8.34,-11.04 -12.64,-16.46 -25.78,-32.43 -39.66,-68.06 -57.69,-104.6l-2 -4.05 -16.67 -53.69 -0.65 -4.68c-2.92,-21.26 -13.65,-40.87 -18.04,-60.92 -2.31,-10.55 -1.87,-20.01 -3.56,-29.88 -0.01,-0.05 -0.01,-0.09 -0.02,-0.14 -2.85,-8.12 -4.85,-14.55 -6.2,-23.31 -1.17,-7.65 -1.8,-15.29 -2.46,-22.96 -2.67,28.94 -1.69,73.73 -1.4,93.37 0.86,58.22 16.81,117.76 21.64,176.32 1.59,19.25 7.3,37.67 8.89,57.63 1.7,21.26 3.62,42.5 4.86,63.8 0.52,9.05 0.64,18.33 0.55,27.64 0.13,0 0.27,-0.01 0.4,-0.02 16.73,-6.72 31.58,-7.43 50.1,-7.55 16.65,-0.1 33.32,-0.21 49.96,0.33 13.97,0.45 26.27,2.15 37.28,7.79 3.28,0 6.58,0.08 10.18,0.47 12.01,1.3 23.31,4.65 32.87,10.01l35.8 8.12 3.97 1.55c9.09,3.54 28.5,10.43 38.23,10.79 12.5,0.47 30.23,4.19 41.66,3.43 13.76,-0.91 27.42,-3.82 41.5,-4.73 13.7,-0.89 27.36,-1.54 40.94,-3.63 14.4,-2.21 28.2,-2.37 42.57,0.12 5.2,0.9 10.73,2.56 15.86,3.29 10.22,0.56 18.03,-0.25 28.82,1.87 8.37,1.64 15.6,3.91 22.7,7.67 6.34,1.52 12.98,3.41 19.77,5.59 -0.38,-5.93 -0.67,-11.88 -0.86,-17.85 -0.34,-11.17 0.39,-20.15 3.27,-30.5 0.21,-8.41 -0.58,-17.05 -0.34,-25.55 0.29,-10.49 1.48,-18.75 4.53,-28.42 0.28,-8.09 -0.75,-15.81 0.02,-24.52 0.62,-7.02 1.85,-12.93 3.78,-19.3l3.77 -81.71 0.31 -2.41c3.35,-25.48 -2.52,-74.01 -5.49,-100.35 -2.26,-19.96 -8.93,-36.93 -10.32,-57.54 -0.83,-12.21 -3.98,-29.97 -7.89,-45.03zm-243.24 -143.88c-0.55,1.83 -1.18,3.67 -1.89,5.54 -1.17,9.53 -1.62,15.8 -4.49,25.56 -0.28,9.52 -0.89,17.01 -4.11,26.86 -1.07,3.24 -2.24,6.27 -3.53,9.34 -0.1,0.58 -0.19,1.16 -0.28,1.72l-0.85 5.1 -57.18 159.9c-1.96,6.11 -4.42,11.91 -6.47,17.95l-7.33 27.5 -0.18 0.63c-0.19,0.66 -0.39,1.33 -0.6,1.99l-5.92 21.17c2.86,4.29 6.19,8.6 8.71,13.46 8.03,15.5 22.44,32.65 32.55,47.38 6.04,8.8 17.46,21.71 26.5,28.25 3.57,0.28 10.08,-2.21 12.55,-4.08 3.52,-2.65 6.96,-4.93 10.76,-6.98 7.62,-5.58 17.17,-19.93 22.95,-27.91l27.01 -40.23c2.99,-4.54 8.13,-11.47 10.68,-16.47 -1.12,-12.24 -3.82,-26.24 -5.72,-37.91 -4.22,-26.01 -8.81,-51.97 -13.57,-77.88 -4.76,-25.94 -9.69,-51.88 -14.99,-77.71 -2.66,-12.94 -5.43,-29.15 -9.41,-41.7 -4.49,-12.1 -6.58,-23.83 -8.22,-36.57 -0.54,-4.14 -1.03,-9.85 -2.36,-13.81 -0.77,-2.29 -2.2,-4.84 -3.15,-7.21 -0.53,-1.29 -1.01,-2.59 -1.46,-3.89z"/>
  </g>
  <path id="outline" class="fil4" d="M576.66 1959.14c0.53,0.28 1.21,0.6 1.75,0.87 24.99,12.32 52.98,29.66 77.73,39.71l13.49 4.87c13.77,6.67 52.91,9.43 68.11,3.13l62.8 -36.14c4.93,-3.2 2.44,-0.83 7.32,-4.85 3.03,-2.51 1.73,-2.31 6.48,-5.63 36.63,-25.68 44.2,-42.77 66.67,-72.23 6.93,-9.08 16.03,-40.89 15.72,-53.76 -0.4,-16.19 -2.88,-36.1 -4.36,-52.63 -6.03,-67.17 -10.06,-31.55 -12.84,-59.98 -2.16,-22.12 -7.06,-14.02 -10.41,-27.83 -3.04,-12.54 1.77,-9.89 -5.11,-22.05 -4.54,-8.01 -1.42,1.35 -4.32,-8.33 -8.88,-29.62 -22.86,-61.48 -37.81,-87.83l-20.75 -34.91c-15.61,-23.7 -47.17,-50.57 -73.36,-61.75 -56.8,-24.26 -79.02,-38.59 -145.45,-36.2 -43.61,1.57 -25.81,5.16 -44.18,7.48 -17.22,2.16 -82.71,3.34 -97.06,-1.42l-81.67 -22.78c-43.27,-13.63 -50.82,-9.51 -86.12,-18.02 -21.85,-5.27 -70.58,6.47 -87.94,13.81 -38.75,16.38 -68.04,51.34 -84.61,89.91l-5.67 17.87c-13.51,22.48 -17.14,45.64 -29.09,67.92l-29.04 95.38c-3,11.45 -4.32,0.97 -4.14,18.7 0.21,20.41 -6.07,15.41 -4.28,42.52 2.04,30.76 -11.83,33.38 3.27,66.83 10.14,22.44 -0.95,40.17 47.47,87.49 17.48,17.09 42.38,32.18 63.23,45.71l41.5 25.38c6.48,4.11 -0.66,0.36 8.51,4.59 20.49,9.45 71.26,46.18 86.75,48.09 16.83,2.07 40.47,-14.24 55.62,-20.42 7.28,-2.97 11.41,-2.79 18.32,-6.39l38.93 -12.86c10.1,-3.15 1.65,-2.03 9.36,-5.24l43.11 -15.6c0.69,-0.23 1.37,-0.33 2.08,-0.53 15.03,-4.18 5.46,-2.5 18.05,-8.18 55.83,-25.18 45.32,-46 53.87,-67.62 5.45,-13.79 -2.08,-32.66 2.78,-46.36 6.4,-18.06 -0.58,-49.09 -1.16,-70.13 9.73,3.78 0.77,-0.74 7.64,5.99 15.35,15.05 11.81,49.59 13.66,69.3 2.8,29.77 -2.67,20 -3.83,37.64 -0.47,7.25 1.76,14.9 1.03,21.86 -1.05,10.08 -4.19,3.57 -3.46,18.01l41.41 26.61zm-128.28 -1342.44c-17.43,-11.31 -19.62,10.72 -26.95,23.93 -5.25,9.45 -0.15,12.2 -2.86,22.95 -2.73,10.79 -4.26,2.16 -5.18,20.66 -0.33,6.67 -6.54,38.87 -8.27,45.17 -3.4,12.39 -0.17,13.79 -1.77,24.56 -1.48,10.03 -4.33,3.62 -5.15,20.56 -0.76,15.65 -3.62,11.9 -5.08,22.99 -1.95,14.93 0.63,8.66 -3.65,21.71 -3.1,9.43 -0.18,14.66 -2.94,23.07 -2.85,8.69 -3.68,6.16 -5.89,19.58l-55.82 156.09c-1.92,6.35 -6.34,16.87 -7.28,20.55l-7.39 27.76c-0.18,0.62 -0.38,1.26 -0.57,1.88l-6.24 22.29c-11.47,27.92 7.29,43.54 13.14,54.83 8.3,16.01 25.57,37.98 36.19,53.44 10.45,15.23 27.83,33.92 42.56,43.94 24.53,16.69 58.84,8.2 78.25,-6.44 4.23,-3.19 3.14,-1.73 7.53,-4.68 16.75,-11.26 29.46,-30.64 38.64,-43.12l27.78 -41.37c6.86,-10.9 20.4,-27.73 20.57,-44.69 0.23,-21.99 -38.79,-235.39 -47.46,-258.29 -6.18,-16.33 -4.43,-32.14 -10.11,-49.04 -3.78,-11.25 -5.29,-7.96 -7.41,-25.42 -1.45,-11.89 -1.52,-12.48 -5.96,-23.17 -4.95,-11.95 -3.17,-12 -5.3,-24.42 -3.08,-18.02 -5.06,-5.34 -8.45,-20.05 -1.08,-4.69 -0.78,-10.43 -1.63,-14.98 -2.74,-14.79 0.05,-2.84 -4.81,-11 -6.73,-11.3 -2.69,-11.69 -6.19,-23.66 -2.65,-9.04 -11.39,-19.22 -16.56,-27.9 -5.35,-9 4.17,-1.29 -5.74,-7.73zm295.05 292.95c-3.78,-10.2 -3.23,-17.29 -5.82,-27.44l-54.7 -130.88c-11.9,-24.37 -32.75,-54.73 -56.38,-64.29 -13.36,5.92 -13.64,12.9 -13.25,37.7 0.94,59.4 6.52,50.64 10.1,77.24 1.25,9.25 1.21,17.64 3.35,26.8 8.51,36.41 8.24,65.73 10.6,103.52 1.45,23.33 -4.72,46.06 -8.9,68.13 -3.25,17.2 -14.38,66.13 -20.69,80.24 -8.02,17.95 -13.1,37.2 -22.8,55.27l-8.8 17.08c-13.19,21.46 -26.47,43.43 -43.05,61.58l-64.84 55.41c-0.52,0.25 -1.12,0.58 -1.65,0.83l-28.95 7.73c-32.56,7.28 -69.78,-21.73 -90.55,-46.23l-25.59 -32.03c-4.25,-5.4 -8.03,-10.67 -12.55,-16.35 -21.92,-27.58 -36.36,-64.3 -51.16,-94.3l-13.94 -44.88c-3.5,-25.42 -17.67,-60.07 -18.83,-65.35 -1.79,-8.2 -1.59,-18.86 -3.08,-27.43 -1.93,-11.15 -4.31,-11.11 -6.04,-22.35 -1.33,-8.7 -1.9,-18.66 -2.74,-27.49 -7.83,-82.46 -5.25,-78.63 -0.51,-150.71 3.02,-46.08 20.07,-92.69 11.82,-139.06 -27.38,-1.84 -67.76,78.47 -77.92,100.02 -12.98,27.56 -21.75,56.99 -28.2,86.61 -1.98,9.07 -3.66,17.62 -5.5,25.11l-6.76 52.37c-9.32,23.12 -8.41,105.91 -8.01,133.1 0.89,59.95 16.87,120.09 21.83,180.19 1.93,23.42 7.08,34.91 8.88,57.48 1.66,20.83 3.56,41.73 4.77,62.55 1.77,30.61 -3.19,103.42 -1.98,113.43l57.9 -30c6.57,-3.13 3.6,-1.18 10.62,-2.14 17.88,-2.45 6.52,-6.99 42.09,-7.21 15.51,-0.1 32.27,-0.21 47.75,0.29 19.45,0.63 9.24,2.17 19.53,6.18 7.64,2.98 15.26,0.88 23.61,1.78 20.45,2.22 1.21,3.38 18.31,7.1l39.69 9c13.56,5.28 39.15,14.01 56.91,14.67 17.29,0.64 32.33,4.35 47.59,3.34 13.22,-0.88 24.98,-3.66 41.42,-4.73 17.93,-1.16 30.24,-1.76 45.91,-4.17 21.12,-3.24 28.8,1.86 42.99,3.69 7.39,0.95 17.01,-0.3 24.55,1.18 11.55,2.27 4.93,3.61 18.57,6.74 26.52,6.09 65.34,22.62 87.36,39.03 8.37,6.24 4.04,6.32 14.56,9.96 -2.98,-38.93 -9.37,-79.12 -10.57,-118.31 -0.49,-16.14 2.64,-11.71 3.19,-24.81 0.37,-8.97 -0.49,-19.56 -0.26,-27.89 0.4,-14.43 2.87,-10.97 4.21,-23.19 0.94,-8.57 -0.63,-17.58 0.14,-26.28 0.95,-10.67 3.97,-9.11 3.99,-22.65l3.61 -78.37c3.59,-27.31 -1.88,-83.34 -5.37,-114.25 -3.21,-28.46 -8.79,-35.73 -10.09,-54.98 -1.38,-20.5 -8.76,-57.04 -16.37,-77.58zm-462.58 159.15l13.74 -41.67c0.19,-0.52 0.47,-1.14 0.65,-1.68l25.66 -73.11c0.22,-0.45 0.49,-1.12 0.7,-1.6l3.79 -8.36c0.25,-0.47 0.67,-1.02 0.91,-1.49 3.64,-7.1 2.09,-7.33 5,-13.96l33.29 -121.94c1.15,-6.29 3.24,-8.29 4.35,-13.84l4.28 -35.73c1.29,-8.78 3.21,-6.07 4.56,-14.13 2.68,-16.03 -0.45,-15.27 7.74,-51.25 2.3,-10.13 2.65,-5.33 4.56,-13.68 5.47,-24.03 6.86,-55.01 20.11,-76.06 2.48,-3.95 5.57,-5.35 9.14,-11.61 18.6,-0.2 32.33,-2.87 45.36,10.26 10.61,10.7 15.13,25.55 22.48,38.44 10.08,17.68 12.13,39.08 19.95,58.13 3.05,7.43 2.99,1.32 5.93,11.73 1.77,6.29 1.3,13.63 2.74,19.62 2.96,12.39 6.76,10.82 9.52,30.07 1.95,13.68 7.01,20.9 9.24,30.42 2.43,10.36 2.45,23.43 5.05,33.93 3.5,14.09 6.39,9.98 8.85,30.89 2.44,20.79 10.88,45.02 13.83,65.01 3.55,24.12 9.35,42.11 13.03,65.07 2.03,12.63 3.82,24.84 6.24,35.46l6.7 30.39c0.23,0.47 0.68,1.27 1.13,1.82 5.13,-9.45 10.49,-42.58 14.1,-56.65 10.29,-40.04 13.05,-67.14 8.17,-113.64 -1.94,-18.53 -3.86,-32.12 -7.97,-48.17l-13.66 -99.49c-0.95,-26.73 -2.27,-63.65 27.26,-70.03 13.48,-2.91 13.92,1.94 19.87,4.9 10.35,5.15 8.58,1.66 18.84,9.96 32.81,26.54 47.12,63.51 66.49,99.35 4.67,8.63 4.54,11.47 7.98,18.86 8.24,17.71 19.69,41.38 24.03,60.05 2.92,12.58 1.05,9.8 6.03,21.22 4.71,10.82 6.48,28.2 12.59,44.2 4.84,12.69 3.73,29.08 9.39,43.68l18.54 125.56c2.32,33.52 -0.97,64.99 -0.47,97.63 0.14,9.37 -2.5,12.23 -3.58,19.39 -1.22,8.09 1.18,17 0.49,25.5 -1,12.47 -3.83,4.9 -4.84,17.76 -0.63,8.1 0.86,19.14 0.53,27.24 -0.44,11.03 -2.57,8.03 -3.99,18.99 -1.06,8.27 0.34,17.1 -0.35,25.38 -0.64,7.8 -2.71,10.42 -2.62,20.62 0.07,9 1.57,18.54 1.38,27.57 -0.23,11.25 -2.36,8.27 -2.35,19.89 0.01,26.05 6.29,52.08 9.31,77.74 3.6,30.66 15.96,37.31 26.21,55.9l9.83 19.13c7.39,17.66 20.26,36.24 28.11,53.77 6.46,14.42 -3.68,8.23 11.18,16.18 3.82,21.81 6.45,17.23 11.43,37.05 3.35,13.36 -0.48,-0.81 5.28,9.52 6.09,10.91 0.56,14.31 6.88,25.22 5.26,9.07 1.64,-5.24 5.33,10.61 0.91,3.91 1.03,11.15 1.64,15.31 3.33,22.63 4.79,-0.95 9.62,22.03 1.83,8.71 0.67,21.61 2.91,29.92 4.03,14.96 6.58,-4.91 11.45,52.96 1.13,13.44 2.32,13.77 -1.85,24.23 -5.28,13.25 0.8,12.42 -3.41,24.41 -1.65,4.71 -2.49,1.06 -4.06,9.76 -3.58,19.88 -6.59,13.19 -12.3,31.24l-22.82 33.95c-5.55,5.85 -8,8.43 -14.54,14.41l-37.28 32.49c-20.5,17.55 -84.66,48.72 -108.55,52.41 -23.69,3.66 -53.5,-2.78 -74.83,-14.24l-91.73 -52.83c-10.51,-6.49 -18.09,-5.77 -27.75,-13.41 -20.27,10.74 -28.6,23.17 -56.16,33.5 -3.3,1.23 -4.06,1.08 -7.19,2.61l-41.53 15.74c-7.9,1.7 -6.59,3.25 -17.38,6.48 -40.38,12.09 -46.46,15.77 -78.61,33.02 -56.84,30.48 -77.12,-10.73 -134.3,-34.32 -8.01,-3.3 -10.35,-7.81 -17.98,-12.74l-3.27 -2.07c-0.52,-0.3 -1.17,-0.67 -1.7,-0.96 -22.84,-12.37 -45.22,-24.18 -65.95,-39.69l-15.59 -10.32c-2.58,-1.81 -9.06,-8.08 -12.09,-11.2 -3.1,-3.19 -3.11,-3.75 -6.53,-6.53 -10.99,-8.95 -28.03,-23.92 -36.03,-36.92l-4.08 -6.22c-13.37,-25.11 -8.9,-22.1 -14.56,-36.46 -3.79,-9.62 -1.85,-1.33 -4.62,-9.31 -1.63,-4.71 -1.64,-6.96 -2.14,-11.94 -1.55,-15.82 -2.69,-31.78 -4.26,-47.65 -3.82,-38.79 -1.06,-21.28 2.65,-43.03 1.2,-7.04 -1.39,-15.19 -0.78,-21.69 1.45,-15.55 3.84,-0.86 5.68,-15.59 1.31,-10.43 -2.33,-7.96 1.53,-19.03l10.11 -34.57c1.16,-4.47 3.51,-11.8 5.33,-17.66 3.72,-12.01 4.83,-22.25 11.16,-33.87l33.46 -75.15c2.47,-6.19 3.02,-12.14 5.78,-18.22l6.64 -14.58c27.64,-45.8 13.45,-51.71 21.72,-87.79 3.3,-14.4 0.12,-28.57 1.84,-43.17 2.65,-22.63 5.08,-6.65 2.52,-40.82 -3.22,-42.97 -5.11,-94.26 -15.9,-135.48 -3.36,-12.83 -3.42,-31.93 -5.26,-45.72 -11.27,-84.56 -18.58,-139.91 -13.97,-221.03 0.52,-9.04 2.47,-7.93 3.7,-17.8 2.19,-17.66 0.85,-20.01 5.49,-37.64 5.45,-20.65 4,-45.09 9.8,-67.1 1.3,-4.95 1.01,-4.64 2.19,-10.28 3.15,-15.12 27.19,-86.71 34.41,-97 6.69,-9.56 3.43,-2.41 8.06,-15.34 4.46,-12.43 3.75,-3.6 9.08,-12.69l15.62 -27.18c9.94,-14.88 19.75,-25.31 34.46,-35.31 7.15,-4.86 5.36,-4 13.66,-7.76 14.16,-6.42 13.87,-3.74 23.57,1.7 23.81,13.37 13.1,47.11 14.56,68.39 1.73,25.05 -11.39,80.37 -11.9,97.54l-2.99 61.5c-3.02,22.22 3.71,68.32 5.89,93.56 2.05,23.63 17.82,102.25 27.29,123.97 4.29,9.83 3.35,31.7 14.12,35.16z"/>
 </g>
</svg>
