<?xml version="1.0" encoding="UTF-8"?>
<!DOCTYPE svg PUBLIC "-//W3C//DTD SVG 1.1//EN" "http://www.w3.org/Graphics/SVG/1.1/DTD/svg11.dtd">
<!-- Creator: CorelDRAW (Versión de evaluación) -->
<svg xmlns="http://www.w3.org/2000/svg" xml:space="preserve" width="739px" height="2458px" version="1.1" style="shape-rendering:geometricPrecision; text-rendering:geometricPrecision; image-rendering:optimizeQuality; fill-rule:evenodd; clip-rule:evenodd"
viewBox="0 0 739 2457.4"
 xmlns:xlink="http://www.w3.org/1999/xlink"
 xmlns:xodm="http://www.corel.com/coreldraw/odm/2003">
 <defs>
  <style type="text/css">
   <![CDATA[
    .str1 {stroke:#FFF212;stroke-width:10;stroke-miterlimit:22.9256}
    .str0 {stroke:#D6D2C8;stroke-width:10;stroke-miterlimit:22.9256}
    .fil1 {fill:#FECB29}
    .fil0 {fill:#F5F1E8}
   ]]>
  </style>
 </defs>
 <g id="tooth-pulpotomy-33">
  <metadata id="CorelCorpID_0Corel-Layer"/>
  <path id="crown" class="fil0 str0" d="M6.42 498.82c-22.12,-120.88 10.81,-235.23 81.37,-332.51 46.54,-64.15 170.13,-177.6 265.03,-165.39 45.28,5.84 95.41,56.75 130.98,84.01 51.43,39.39 81.35,54.44 138.52,78.95 133.01,57.02 115.58,186.65 115.44,313.16 -0.18,159.9 -119.43,567.82 -354.47,508.39 -110.68,-27.97 -185.99,-108.59 -254.05,-180.88 -108.58,-115.32 -94.85,-153 -122.82,-305.73z"/>
  <g id="_2014501195024">
   <path class="fil1 str1" d="M418.19 761.23c23.22,-27.49 47.93,-83.78 57.32,-109.04 17.94,-48.25 38.5,-123.53 38.56,-175.4 0.02,-23.42 3.17,-81.43 0.25,-116 -61.81,-27.6 -110.05,-55.01 -166.55,-98.29 -7.4,-5.66 -15.4,-12.55 -23.59,-19.62 -22.25,17.72 -45.52,41.27 -55.32,54.78 -34.88,48.08 -53.3,101.41 -42.41,160.87 6.12,33.47 11.06,66.95 16.5,100.51 1.98,12.27 4.06,27.07 7.83,38.94 4.63,14.56 31.59,42.89 41.33,53.24 31.08,33.01 79.46,87.9 126.08,110.01z"/>
  </g>
  <path id="root" class="fil0 str0" d="M625.73 901.9c7.94,54.39 -26.81,360.53 -38.74,431.04 -78.34,463.06 -129.8,484.14 -169.97,1026.13 -16.21,218.65 -279.5,109.63 -279.76,-706.41 -0.13,-434.7 9.04,-471.52 -68.45,-871.05 82.61,79.84 129.5,154.91 240.95,204.72 158.81,70.96 218.25,10.13 315.97,-84.43z"/>
 </g>
</svg>
