<?xml version="1.0" encoding="UTF-8"?>
<!DOCTYPE svg PUBLIC "-//W3C//DTD SVG 1.1//EN" "http://www.w3.org/Graphics/SVG/1.1/DTD/svg11.dtd">
<!-- Creator: CorelDRAW (Versión de evaluación) -->
<svg xmlns="http://www.w3.org/2000/svg" xml:space="preserve" width="739px" height="2458px" version="1.1" style="shape-rendering:geometricPrecision; text-rendering:geometricPrecision; image-rendering:optimizeQuality; fill-rule:evenodd; clip-rule:evenodd"
viewBox="0 0 739 2457.4"
 xmlns:xlink="http://www.w3.org/1999/xlink"
 xmlns:xodm="http://www.corel.com/coreldraw/odm/2003">
 <defs>
  <style type="text/css">
   <![CDATA[
    .str1 {stroke:#FFF212;stroke-width:10;stroke-miterlimit:22.9256}
    .str0 {stroke:#D6D2C8;stroke-width:10;stroke-miterlimit:22.9256}
    .fil1 {fill:#FECB29}
    .fil0 {fill:#F5F1E8}
   ]]>
  </style>
 </defs>
 <g id="tooth-pulpotomy-45">
  <metadata id="CorelCorpID_0Corel-Layer"/>
  <path id="root" class="fil0 str0" d="M230.42 2455.72c111.82,21.73 172.82,-173.87 209.94,-271.91 120.47,-318.13 126.85,-541.65 107.37,-869.25 -14.08,-236.76 45.72,-370.18 44.57,-451.84 -136.29,-21.51 -188.93,81.7 -265.09,60.73 -109.36,-30.1 -59.21,-96.17 -247.29,-81.94 -13.05,653.68 119.72,934.16 140.02,1197.48 18.38,238.28 -41.96,338.28 10.48,416.73z"/>
  <path id="crown" class="fil0 str0" d="M18.65 255.51c-23.7,38.34 -18.63,153.52 -18.52,203.33 0.24,95.42 10.93,294.82 78.59,352.64 60.02,-0.05 68.7,-14.39 135.06,11.72 146.55,57.68 64.23,118.44 236.06,29.88 64.04,-33.01 100.52,-18.2 166.68,-15.78 73.21,-131.5 97.56,-306.9 114.54,-474.59 7.54,-74.44 25.93,-208.45 -50.24,-238.99 -152.14,-60.98 -259.35,-182.78 -396.22,-90.04 -27.91,18.92 -52.64,45.31 -74.8,68.59 -38.68,40.62 -181.4,137.48 -191.15,153.24z"/>
  <g id="_2014506443040">
   <path class="fil1 str1" d="M179.64 354.27c-2.05,34.24 0.18,78.23 0.24,104.14 0.08,34.28 3.15,113.85 13.11,172.96 29.39,4.54 57.62,13.16 86.61,24.56 32.24,12.69 57.63,25.46 81.45,40.73 2.22,-1.16 4.37,-2.29 6.44,-3.35 42.58,-21.95 85.58,-35.26 131.87,-39.59 30.85,-99.14 43.41,-215.78 52.86,-309.12 1.72,-16.94 6.11,-51.08 6.88,-78.64 -37.35,-18.37 -73.07,-38.76 -110.42,-58.82 -11.53,-6.2 -44.02,-23.66 -59.71,-26.92 -1.28,0.74 -2.57,1.6 -3.54,2.26 -14.93,10.12 -32.91,30.57 -45.45,43.74 -47.34,49.72 -106.6,86.63 -160.34,128.05z"/>
  </g>
 </g>
</svg>
