<!-- Creator: CorelDRAW (Versión de evaluación) -->
<svg xmlns="http://www.w3.org/2000/svg" xml:space="preserve" width="500px" height="2062px" version="1.1" style="shape-rendering:geometricPrecision; text-rendering:geometricPrecision; image-rendering:optimizeQuality; fill-rule:evenodd; clip-rule:evenodd"
viewBox="0 0 500 2061.16"
 xmlns:xlink="http://www.w3.org/1999/xlink"
 xmlns:xodm="http://www.corel.com/coreldraw/odm/2003">
 <defs>
  <style type="text/css">
   <![CDATA[
    .fil2 {fill:#4B4B4D}
    .fil1 {fill:#EDEAE0}
    .fil0 {fill:#F2E6C9}
   ]]>
  </style>
 </defs>
 <g id="original">
  <metadata id="CorelCorpID_0Corel-Layer"/>
  <polygon id="root" class="fil0" points="265.53,267.6 258.34,267.6 258.34,271.2 254.74,271.2 254.74,278.4 251.14,278.4 251.14,281.99 247.55,281.99 247.55,289.19 243.95,289.19 243.95,296.38 240.35,296.38 240.35,303.57 236.75,303.57 236.75,310.77 233.16,310.77 233.16,321.56 229.56,321.56 229.56,328.75 225.96,328.75 225.96,339.54 222.37,339.54 222.37,350.34 218.77,350.34 218.77,361.13 215.17,361.13 215.17,375.52 211.58,375.52 211.58,382.71 207.98,382.71 207.98,397.1 204.38,397.1 204.38,407.89 200.79,407.89 200.79,425.88 197.19,425.88 197.19,440.27 193.59,440.27 193.59,451.06 189.99,451.06 189.99,469.04 186.4,469.04 186.4,490.63 182.8,490.63 182.8,505.02 179.2,505.02 179.2,526.6 175.6,526.6 175.6,540.98 172,540.98 172,555.37 168.41,555.37 168.41,580.56 164.81,580.56 164.81,591.35 161.21,591.35 161.21,612.93 157.62,612.93 157.62,641.71 154.02,641.71 154.02,659.69 150.42,659.69 150.42,692.06 146.83,692.06 146.83,713.65 143.23,713.65 143.23,760.41 139.63,760.41 139.63,778.4 136.04,778.4 136.04,828.76 132.44,828.76 132.44,843.14 128.84,843.14 128.84,897.1 125.24,897.1 125.24,951.06 121.65,951.06 121.65,983.43 118.05,983.43 118.05,1062.57 114.45,1062.57 114.45,1112.93 110.86,1112.93 110.86,1253.22 107.26,1253.22 107.26,1343.15 103.66,1343.15 103.66,1379.12 100.06,1379.12 100.06,1433.08 96.47,1433.08 96.47,1443.87 100.06,1443.87 100.06,1436.67 103.66,1436.67 103.66,1433.08 107.26,1433.08 107.26,1425.88 110.86,1425.88 110.86,1422.28 114.45,1422.28 114.45,1415.09 118.05,1415.09 118.05,1411.49 121.65,1411.49 121.65,1404.3 125.24,1404.3 125.24,1400.7 128.84,1400.7 128.84,1397.11 132.44,1397.11 132.44,1393.51 136.04,1393.51 136.04,1389.91 139.63,1389.91 139.63,1386.32 143.23,1386.32 143.23,1382.72 146.83,1382.72 146.83,1379.12 150.42,1379.12 150.42,1375.52 157.62,1375.52 157.62,1371.93 161.21,1371.93 161.21,1368.33 164.81,1368.33 164.81,1364.73 172,1364.73 172,1361.13 179.2,1361.13 179.2,1357.54 186.4,1357.54 186.4,1353.94 197.19,1353.94 197.19,1350.34 207.98,1350.34 207.98,1346.74 222.37,1346.74 222.37,1343.15 269.13,1343.15 269.13,1346.74 279.92,1346.74 279.92,1350.34 290.71,1350.34 290.71,1353.94 297.91,1353.94 297.91,1357.54 305.1,1357.54 305.1,1361.13 312.29,1361.13 312.29,1364.73 315.89,1364.73 315.89,1368.33 323.09,1368.33 323.09,1371.93 326.68,1371.93 326.68,1375.52 330.28,1375.52 330.28,1379.12 333.88,1379.12 333.88,1382.72 341.07,1382.72 341.07,1386.32 344.67,1386.32 344.67,1393.51 348.27,1393.51 348.27,1397.11 351.87,1397.11 351.87,1400.7 355.46,1400.7 355.46,1404.3 359.06,1404.3 359.06,1407.9 362.66,1407.9 362.66,1411.49 366.25,1411.49 366.25,1418.69 369.85,1418.69 369.85,1422.28 373.45,1422.28 373.45,1425.88 377.04,1425.88 377.04,1433.08 380.64,1433.08 380.64,1440.27 384.24,1440.27 384.24,1443.87 387.83,1443.87 387.83,1451.06 391.43,1451.06 391.43,1458.26 395.03,1458.26 395.03,1465.45 398.63,1465.45 398.63,1469.05 402.22,1469.05 402.22,1476.24 405.82,1476.24 405.82,1433.08 402.22,1433.08 402.22,1382.72 398.63,1382.72 398.63,1332.36 395.03,1332.36 395.03,1282 391.43,1282 391.43,1213.65 387.83,1213.65 387.83,1174.08 384.24,1174.08 384.24,1141.71 380.64,1141.71 380.64,1109.33 377.04,1109.33 377.04,1076.96 373.45,1076.96 373.45,1037.39 369.85,1037.39 369.85,1015.81 366.25,1015.81 366.25,994.23 362.66,994.23 362.66,969.04 359.06,969.04 359.06,951.06 355.46,951.06 355.46,925.88 351.87,925.88 351.87,911.49 348.27,911.49 348.27,886.31 344.67,886.31 344.67,868.33 341.07,868.33 341.07,843.14 337.48,843.14 337.48,832.35 333.88,832.35 333.88,807.18 330.28,807.18 330.28,789.19 326.68,789.19 326.68,771.2 323.09,771.2 323.09,756.81 319.49,756.81 319.49,728.04 315.89,728.04 315.89,706.45 312.29,706.45 312.29,674.08 308.7,674.08 308.7,652.5 305.1,652.5 305.1,627.32 301.5,627.32 301.5,594.94 297.91,594.94 297.91,562.57 294.31,562.57 294.31,436.67 297.91,436.67 297.91,307.17 294.31,307.17 294.31,289.19 290.71,289.19 290.71,281.99 287.12,281.99 287.12,274.8 283.52,274.8 283.52,267.6 279.92,267.6 279.92,264 265.53,264 "/>
  <polygon id="crown" class="fil1" points="222.37,1364.73 215.17,1364.73 215.17,1368.33 200.79,1368.33 200.79,1371.93 193.59,1371.93 193.59,1375.52 186.4,1375.52 186.4,1379.12 179.2,1379.12 179.2,1382.72 175.6,1382.72 175.6,1386.32 168.41,1386.32 168.41,1389.91 164.81,1389.91 164.81,1393.51 161.21,1393.51 161.21,1397.11 157.62,1397.11 157.62,1400.7 154.02,1400.7 154.02,1404.3 150.42,1404.3 150.42,1407.9 146.83,1407.9 146.83,1411.49 143.23,1411.49 143.23,1415.09 139.63,1415.09 139.63,1418.69 136.04,1418.69 136.04,1425.88 132.44,1425.88 132.44,1429.48 128.84,1429.48 128.84,1433.08 125.24,1433.08 125.24,1440.27 121.65,1440.27 121.65,1443.87 118.05,1443.87 118.05,1451.06 114.45,1451.06 114.45,1454.66 110.86,1454.66 110.86,1461.86 107.26,1461.86 107.26,1469.05 103.66,1469.05 103.66,1476.24 100.06,1476.24 100.06,1483.44 96.47,1483.44 96.47,1494.23 92.87,1494.23 92.87,1505.02 89.27,1505.02 89.27,1515.81 85.67,1515.81 85.67,1530.2 82.08,1530.2 82.08,1548.19 78.48,1548.19 78.48,1558.98 74.88,1558.98 74.88,1569.77 71.29,1569.77 71.29,1580.56 67.69,1580.56 67.69,1591.35 64.09,1591.35 64.09,1602.15 60.5,1602.15 60.5,1612.94 56.9,1612.94 56.9,1623.73 53.3,1623.73 53.3,1634.52 49.71,1634.52 49.71,1648.91 46.11,1648.91 46.11,1656.1 42.51,1656.1 42.51,1666.89 38.91,1666.89 38.91,1681.28 35.31,1681.28 35.31,1688.48 31.72,1688.48 31.72,1702.86 28.12,1702.86 28.12,1724.45 24.52,1724.45 24.52,1738.84 20.93,1738.84 20.93,1803.58 24.52,1803.58 24.52,1821.57 28.12,1821.57 28.12,1835.96 31.72,1835.96 31.72,1846.75 35.31,1846.75 35.31,1857.54 38.91,1857.54 38.91,1864.73 42.51,1864.73 42.51,1868.33 46.11,1868.33 46.11,1875.53 49.71,1875.53 49.71,1879.12 53.3,1879.12 53.3,1882.72 56.9,1882.72 56.9,1886.32 60.5,1886.32 60.5,1889.92 64.09,1889.92 64.09,1893.51 67.69,1893.51 67.69,1897.11 71.29,1897.11 71.29,1900.71 78.48,1900.71 78.48,1904.3 82.08,1904.3 82.08,1907.9 89.27,1907.9 89.27,1911.5 92.87,1911.5 92.87,1915.09 100.06,1915.09 100.06,1918.69 107.26,1918.69 107.26,1922.29 110.86,1922.29 110.86,1925.88 118.05,1925.88 118.05,1929.48 125.24,1929.48 125.24,1933.08 132.44,1933.08 132.44,1936.68 136.04,1936.68 136.04,1940.27 139.63,1940.27 139.63,1943.87 146.83,1943.87 146.83,1947.47 154.02,1947.47 154.02,1951.07 161.21,1951.07 161.21,1954.66 164.81,1954.66 164.81,1958.26 168.41,1958.26 168.41,1961.86 175.6,1961.86 175.6,1965.46 179.2,1965.46 179.2,1969.05 186.4,1969.05 186.4,1972.65 189.99,1972.65 189.99,1976.25 193.59,1976.25 193.59,1979.84 200.79,1979.84 200.79,1983.44 207.98,1983.44 207.98,1987.04 211.58,1987.04 211.58,1990.63 218.77,1990.63 218.77,1994.23 229.56,1994.23 229.56,1997.83 272.73,1997.83 272.73,1994.23 279.92,1994.23 279.92,1990.63 287.12,1990.63 287.12,1987.04 294.31,1987.04 294.31,1983.44 297.91,1983.44 297.91,1979.84 305.1,1979.84 305.1,1976.25 308.7,1976.25 308.7,1972.65 312.29,1972.65 312.29,1969.05 319.49,1969.05 319.49,1965.46 323.09,1965.46 323.09,1961.86 326.68,1961.86 326.68,1958.26 333.88,1958.26 333.88,1954.66 337.48,1954.66 337.48,1951.07 341.07,1951.07 341.07,1947.47 348.27,1947.47 348.27,1943.87 351.87,1943.87 351.87,1940.27 359.06,1940.27 359.06,1936.68 362.66,1936.68 362.66,1933.08 369.85,1933.08 369.85,1929.48 377.04,1929.48 377.04,1925.88 380.64,1925.88 380.64,1922.29 387.83,1922.29 387.83,1918.69 391.43,1918.69 391.43,1915.09 398.63,1915.09 398.63,1911.5 402.22,1911.5 402.22,1907.9 409.42,1907.9 409.42,1904.3 416.62,1904.3 416.62,1900.71 420.21,1900.71 420.21,1897.11 427.41,1897.11 427.41,1893.51 431,1893.51 431,1889.92 434.6,1889.92 434.6,1886.32 438.2,1886.32 438.2,1882.72 441.79,1882.72 441.79,1879.12 445.39,1879.12 445.39,1875.53 448.99,1875.53 448.99,1871.93 452.58,1871.93 452.58,1864.73 456.18,1864.73 456.18,1861.14 459.78,1861.14 459.78,1853.94 463.38,1853.94 463.38,1846.75 466.97,1846.75 466.97,1839.56 470.57,1839.56 470.57,1821.57 474.17,1821.57 474.17,1742.43 470.57,1742.43 470.57,1724.45 466.97,1724.45 466.97,1706.46 463.38,1706.46 463.38,1692.07 459.78,1692.07 459.78,1681.28 456.18,1681.28 456.18,1670.49 452.58,1670.49 452.58,1656.1 448.99,1656.1 448.99,1648.91 445.39,1648.91 445.39,1638.11 441.79,1638.11 441.79,1627.32 438.2,1627.32 438.2,1616.53 434.6,1616.53 434.6,1609.34 431,1609.34 431,1594.95 427.41,1594.95 427.41,1587.75 423.81,1587.75 423.81,1576.96 420.21,1576.96 420.21,1566.17 416.62,1566.17 416.62,1555.38 413.02,1555.38 413.02,1544.59 409.42,1544.59 409.42,1530.2 405.82,1530.2 405.82,1526.6 402.22,1526.6 402.22,1515.81 398.63,1515.81 398.63,1508.62 395.03,1508.62 395.03,1501.42 391.43,1501.42 391.43,1490.63 387.83,1490.63 387.83,1483.44 384.24,1483.44 384.24,1476.24 380.64,1476.24 380.64,1472.65 377.04,1472.65 377.04,1465.45 373.45,1465.45 373.45,1458.26 369.85,1458.26 369.85,1451.06 366.25,1451.06 366.25,1443.87 362.66,1443.87 362.66,1440.27 359.06,1440.27 359.06,1433.08 355.46,1433.08 355.46,1429.48 351.87,1429.48 351.87,1425.88 348.27,1425.88 348.27,1418.69 344.67,1418.69 344.67,1415.09 341.07,1415.09 341.07,1411.49 337.48,1411.49 337.48,1407.9 333.88,1407.9 333.88,1404.3 330.28,1404.3 330.28,1400.7 326.68,1400.7 326.68,1397.11 323.09,1397.11 323.09,1393.51 319.49,1393.51 319.49,1389.91 315.89,1389.91 315.89,1386.32 312.29,1386.32 312.29,1382.72 308.7,1382.72 308.7,1379.12 301.5,1379.12 301.5,1375.52 294.31,1375.52 294.31,1371.93 287.12,1371.93 287.12,1368.33 276.33,1368.33 276.33,1364.73 261.94,1364.73 261.94,1361.13 222.37,1361.13 "/>
  <path id="outline" class="fil2" d="M20.93 1738.84l3.59 0 0 -14.39 3.6 0 0 -21.59 3.6 0 0 -14.38 3.59 0 0 -7.2 3.6 0 0 -14.39 3.6 0 0 -10.79 3.6 0 0 -7.19 3.6 0 0 -14.39 3.59 0 0 -10.79 3.6 0 0 -10.79 3.6 0 0 -10.79 3.59 0 0 -10.8 3.6 0 0 -10.79 3.6 0 0 -10.79 3.59 0 0 -10.79 3.6 0 0 -10.79 3.6 0 0 -17.99 3.59 0 0 -14.39 3.6 0 0 -10.79 3.6 0 0 -10.79 3.6 0 0 -10.79 3.59 0 0 -7.2 3.6 0 0 -7.19 3.6 0 0 -7.19 3.6 0 0 -7.2 3.59 0 0 -3.6 3.6 0 0 -7.19 3.6 0 0 -3.6 3.59 0 0 -7.19 3.6 0 0 -3.6 3.6 0 0 -3.6 3.6 0 0 -7.19 3.59 0 0 -3.6 3.6 0 0 -3.6 3.6 0 0 -3.59 3.59 0 0 -3.6 3.6 0 0 -3.6 3.6 0 0 -3.59 3.59 0 0 -3.6 3.6 0 0 -3.6 3.6 0 0 -3.59 7.19 0 0 -3.6 3.6 0 0 -3.6 7.2 0 0 -3.6 7.19 0 0 -3.59 7.2 0 0 -3.6 14.38 0 0 -3.6 7.2 0 0 -3.6 39.57 0 0 3.6 14.39 0 0 3.6 10.79 0 0 3.6 7.19 0 0 3.59 7.19 0 0 3.6 7.2 0 0 3.6 3.59 0 0 3.6 3.6 0 0 3.59 3.6 0 0 3.6 3.6 0 0 3.6 3.59 0 0 3.59 3.6 0 0 3.6 3.6 0 0 3.6 3.6 0 0 3.59 3.59 0 0 3.6 3.6 0 0 3.6 3.6 0 0 7.19 3.6 0 0 3.6 3.59 0 0 3.6 3.6 0 0 7.19 3.6 0 0 3.6 3.59 0 0 7.19 3.6 0 0 7.2 3.6 0 0 7.19 3.59 0 0 7.2 3.6 0 0 3.59 3.6 0 0 7.2 3.59 0 0 7.19 3.6 0 0 10.79 3.6 0 0 7.2 3.6 0 0 7.19 3.59 0 0 10.79 3.6 0 0 3.6 3.6 0 0 14.39 3.6 0 0 10.79 3.6 0 0 10.79 3.59 0 0 10.79 3.6 0 0 10.79 3.6 0 0 7.2 3.59 0 0 14.39 3.6 0 0 7.19 3.6 0 0 10.79 3.59 0 0 10.79 3.6 0 0 10.8 3.6 0 0 7.19 3.59 0 0 14.39 3.6 0 0 10.79 3.6 0 0 10.79 3.6 0 0 14.39 3.59 0 0 17.99 3.6 0 0 17.98 3.6 0 0 79.14 -3.6 0 0 17.99 -3.6 0 0 7.19 -3.59 0 0 7.19 -3.6 0 0 7.2 -3.6 0 0 3.59 -3.6 0 0 7.2 -3.59 0 0 3.6 -3.6 0 0 3.59 -3.6 0 0 3.6 -3.59 0 0 3.6 -3.6 0 0 3.6 -3.6 0 0 3.59 -3.59 0 0 3.6 -7.2 0 0 3.6 -3.59 0 0 3.59 -7.2 0 0 3.6 -7.2 0 0 3.6 -3.59 0 0 3.59 -7.2 0 0 3.6 -3.6 0 0 3.6 -7.19 0 0 3.59 -3.6 0 0 3.6 -7.19 0 0 3.6 -7.19 0 0 3.6 -3.6 0 0 3.59 -7.19 0 0 3.6 -3.6 0 0 3.6 -7.2 0 0 3.6 -3.59 0 0 3.59 -3.6 0 0 3.6 -7.2 0 0 3.6 -3.59 0 0 3.6 -3.6 0 0 3.59 -7.2 0 0 3.6 -3.59 0 0 3.6 -3.6 0 0 3.59 -7.19 0 0 3.6 -3.6 0 0 3.6 -7.19 0 0 3.59 -7.2 0 0 3.6 -7.19 0 0 3.6 -43.17 0 0 -3.6 -10.79 0 0 -3.6 -7.19 0 0 -3.59 -3.6 0 0 -3.6 -7.19 0 0 -3.6 -7.2 0 0 -3.59 -3.6 0 0 -3.6 -3.59 0 0 -3.6 -7.2 0 0 -3.59 -3.6 0 0 -3.6 -7.19 0 0 -3.6 -3.6 0 0 -3.6 -3.6 0 0 -3.59 -7.19 0 0 -3.6 -7.19 0 0 -3.6 -7.2 0 0 -3.6 -3.59 0 0 -3.59 -3.6 0 0 -3.6 -7.2 0 0 -3.6 -7.19 0 0 -3.6 -7.19 0 0 -3.59 -3.6 0 0 -3.6 -7.2 0 0 -3.6 -7.19 0 0 -3.59 -3.6 0 0 -3.6 -7.19 0 0 -3.6 -3.6 0 0 -3.59 -7.19 0 0 -3.6 -3.6 0 0 -3.6 -3.6 0 0 -3.59 -3.59 0 0 -3.6 -3.6 0 0 -3.6 -3.6 0 0 -3.6 -3.59 0 0 -3.59 -3.6 0 0 -7.2 -3.6 0 0 -3.6 -3.6 0 0 -7.19 -3.6 0 0 -10.79 -3.59 0 0 -10.79 -3.6 0 0 -14.39 -3.6 0 0 -17.99 -3.59 0 0 -64.74zm273.38 -1176.27l3.6 0 0 32.37 3.59 0 0 32.38 3.6 0 0 25.18 3.6 0 0 21.58 3.59 0 0 32.37 3.6 0 0 21.59 3.6 0 0 28.77 3.6 0 0 14.39 3.59 0 0 17.99 3.6 0 0 17.99 3.6 0 0 25.17 3.6 0 0 10.79 3.59 0 0 25.19 3.6 0 0 17.98 3.6 0 0 25.18 3.6 0 0 14.39 3.59 0 0 25.18 3.6 0 0 17.98 3.6 0 0 25.19 3.59 0 0 21.58 3.6 0 0 21.58 3.6 0 0 39.57 3.59 0 0 32.37 3.6 0 0 32.38 3.6 0 0 32.37 3.59 0 0 39.57 3.6 0 0 68.35 3.6 0 0 50.36 3.6 0 0 50.36 3.59 0 0 50.36 3.6 0 0 43.16 -3.6 0 0 -7.19 -3.59 0 0 -3.6 -3.6 0 0 -7.19 -3.6 0 0 -7.2 -3.6 0 0 -7.19 -3.59 0 0 -3.6 -3.6 0 0 -7.19 -3.6 0 0 -7.2 -3.59 0 0 -3.6 -3.6 0 0 -3.59 -3.6 0 0 -7.2 -3.59 0 0 -3.59 -3.6 0 0 -3.6 -3.6 0 0 -3.6 -3.59 0 0 -3.59 -3.6 0 0 -3.6 -3.6 0 0 -7.19 -3.6 0 0 -3.6 -7.19 0 0 -3.6 -3.6 0 0 -3.6 -3.6 0 0 -3.59 -3.59 0 0 -3.6 -7.2 0 0 -3.6 -3.6 0 0 -3.6 -7.19 0 0 -3.59 -7.19 0 0 -3.6 -7.2 0 0 -3.6 -10.79 0 0 -3.6 -10.79 0 0 -3.59 -46.76 0 0 3.59 -14.39 0 0 3.6 -10.79 0 0 3.6 -10.79 0 0 3.6 -7.2 0 0 3.59 -7.2 0 0 3.6 -7.19 0 0 3.6 -3.6 0 0 3.6 -3.59 0 0 3.59 -7.2 0 0 3.6 -3.59 0 0 3.6 -3.6 0 0 3.6 -3.6 0 0 3.59 -3.59 0 0 3.6 -3.6 0 0 3.6 -3.6 0 0 3.59 -3.6 0 0 3.6 -3.59 0 0 7.19 -3.6 0 0 3.6 -3.6 0 0 7.19 -3.59 0 0 3.6 -3.6 0 0 7.2 -3.6 0 0 3.59 -3.6 0 0 7.2 -3.59 0 0 -10.79 3.59 0 0 -53.96 3.6 0 0 -35.97 3.6 0 0 -89.93 3.6 0 0 -140.29 3.59 0 0 -50.36 3.6 0 0 -79.14 3.6 0 0 -32.37 3.59 0 0 -53.96 3.6 0 0 -53.96 3.6 0 0 -14.38 3.6 0 0 -50.36 3.59 0 0 -17.99 3.6 0 0 -46.76 3.6 0 0 -21.59 3.59 0 0 -32.37 3.6 0 0 -17.98 3.6 0 0 -28.78 3.59 0 0 -21.58 3.6 0 0 -10.79 3.6 0 0 -25.19 3.59 0 0 -14.39 3.6 0 0 -14.38 3.6 0 0 -21.58 3.6 0 0 -14.39 3.6 0 0 -21.59 3.59 0 0 -17.98 3.6 0 0 -10.79 3.6 0 0 -14.39 3.6 0 0 -17.99 3.59 0 0 -10.79 3.6 0 0 -14.39 3.6 0 0 -7.19 3.59 0 0 -14.39 3.6 0 0 -10.79 3.6 0 0 -10.8 3.59 0 0 -10.79 3.6 0 0 -7.19 3.6 0 0 -10.79 3.59 0 0 -7.2 3.6 0 0 -7.19 3.6 0 0 -7.19 3.6 0 0 -7.2 3.59 0 0 -3.59 3.6 0 0 -7.2 3.6 0 0 -3.6 7.19 0 0 -3.6 14.39 0 0 3.6 3.6 0 0 7.2 3.6 0 0 7.19 3.59 0 0 7.2 3.6 0 0 17.98 3.6 0 0 129.5 -3.6 0 0 125.9zm-32.37 -320.15l-7.2 0 0 3.6 -7.19 0 0 3.59 -3.6 0 0 3.6 -3.6 0 0 7.2 -3.6 0 0 3.59 -3.59 0 0 3.6 -3.6 0 0 7.2 -3.6 0 0 7.19 -3.59 0 0 7.2 -3.6 0 0 7.19 -3.6 0 0 7.19 -3.59 0 0 10.79 -3.6 0 0 7.2 -3.6 0 0 14.39 -3.59 0 0 10.79 -3.6 0 0 10.79 -3.6 0 0 7.2 -3.6 0 0 17.98 -3.59 0 0 10.79 -3.6 0 0 14.39 -3.6 0 0 7.2 -3.6 0 0 14.38 -3.6 0 0 14.39 -3.59 0 0 14.39 -3.6 0 0 21.58 -3.6 0 0 10.8 -3.59 0 0 25.18 -3.6 0 0 10.79 -3.6 0 0 21.58 -3.59 0 0 17.98 -3.6 0 0 21.59 -3.6 0 0 28.77 -3.59 0 0 14.39 -3.6 0 0 25.19 -3.6 0 0 25.17 -3.6 0 0 32.38 -3.59 0 0 17.99 -3.6 0 0 32.37 -3.6 0 0 35.97 -3.59 0 0 32.37 -3.6 0 0 43.17 -3.6 0 0 28.78 -3.6 0 0 46.76 -3.59 0 0 46.76 -3.6 0 0 147.48 -3.6 0 0 100.73 -3.6 0 0 89.92 -3.59 0 0 32.38 -3.6 0 0 46.76 -3.6 0 0 32.38 -3.59 0 0 46.76 -3.6 0 0 14.39 -3.6 0 0 17.98 -3.59 0 0 17.99 -3.6 0 0 7.19 -3.6 0 0 10.79 -3.59 0 0 10.79 -3.6 0 0 10.8 -3.6 0 0 10.79 -3.6 0 0 10.79 -3.6 0 0 7.2 -3.59 0 0 10.79 -3.6 0 0 14.38 -3.6 0 0 7.2 -3.59 0 0 14.39 -3.6 0 0 7.19 -3.6 0 0 14.39 -3.6 0 0 14.39 -3.59 0 0 17.98 -3.6 0 0 25.19 -3.6 0 0 82.73 3.6 0 0 10.79 3.6 0 0 14.39 3.59 0 0 10.79 3.6 0 0 7.19 3.6 0 0 7.2 3.6 0 0 7.19 3.59 0 0 3.6 3.6 0 0 7.2 3.6 0 0 3.59 3.59 0 0 3.6 3.6 0 0 3.6 3.6 0 0 3.59 3.6 0 0 3.6 3.6 0 0 3.6 3.59 0 0 3.59 3.6 0 0 3.6 7.19 0 0 3.6 3.6 0 0 3.59 7.19 0 0 3.6 7.2 0 0 3.6 3.59 0 0 3.6 7.2 0 0 3.59 3.6 0 0 3.6 7.19 0 0 3.6 7.2 0 0 3.6 3.59 0 0 3.59 7.2 0 0 3.6 7.19 0 0 3.6 7.2 0 0 3.6 3.59 0 0 3.59 3.6 0 0 3.6 7.19 0 0 3.6 7.2 0 0 3.59 3.59 0 0 3.6 3.6 0 0 3.6 7.19 0 0 3.59 3.6 0 0 3.6 7.2 0 0 3.6 7.19 0 0 3.59 3.6 0 0 3.6 7.2 0 0 3.6 7.19 0 0 3.6 7.19 0 0 3.59 7.2 0 0 3.6 14.38 0 0 3.6 28.78 0 0 -3.6 14.39 0 0 -3.6 7.2 0 0 -3.59 7.19 0 0 -3.6 7.19 0 0 -3.6 7.2 0 0 -3.6 3.59 0 0 -3.59 7.2 0 0 -3.6 3.6 0 0 -3.6 3.59 0 0 -3.59 7.2 0 0 -3.6 3.6 0 0 -3.6 7.19 0 0 -3.59 3.6 0 0 -3.6 3.6 0 0 -3.6 7.19 0 0 -3.59 3.6 0 0 -3.6 7.19 0 0 -3.6 3.6 0 0 -3.6 7.19 0 0 -3.59 3.6 0 0 -3.6 7.19 0 0 -3.6 3.6 0 0 -3.6 7.19 0 0 -3.59 7.2 0 0 -3.6 3.6 0 0 -3.6 7.19 0 0 -3.6 3.6 0 0 -3.59 7.19 0 0 -3.6 3.6 0 0 -3.6 3.6 0 0 -3.59 7.19 0 0 -3.6 3.6 0 0 -3.6 3.59 0 0 -3.59 3.6 0 0 -3.6 3.6 0 0 -3.6 3.6 0 0 -3.59 3.59 0 0 -3.6 3.6 0 0 -3.6 3.6 0 0 -3.6 3.59 0 0 -7.19 3.6 0 0 -7.2 3.6 0 0 -10.79 3.6 0 0 -7.19 3.59 0 0 -14.39 3.6 0 0 -17.98 3.6 0 0 -64.75 -3.6 0 0 -17.99 -3.6 0 0 -17.99 -3.59 0 0 -14.38 -3.6 0 0 -14.39 -3.6 0 0 -10.79 -3.6 0 0 -10.8 -3.59 0 0 -14.38 -3.6 0 0 -7.2 -3.6 0 0 -10.79 -3.59 0 0 -7.19 -3.6 0 0 -10.79 -3.6 0 0 -10.79 -3.6 0 0 -10.8 -3.59 0 0 -10.79 -3.6 0 0 -7.2 -3.6 0 0 -17.98 -3.59 0 0 -7.19 -3.6 0 0 -32.38 -3.6 0 0 -39.57 -3.59 0 0 -53.96 -3.6 0 0 -39.56 -3.6 0 0 -57.56 -3.59 0 0 -64.75 -3.6 0 0 -61.15 -3.6 0 0 -28.77 -3.6 0 0 -39.57 -3.6 0 0 -35.97 -3.59 0 0 -32.38 -3.6 0 0 -32.37 -3.6 0 0 -28.78 -3.6 0 0 -21.59 -3.59 0 0 -17.98 -3.6 0 0 -17.98 -3.6 0 0 -14.39 -3.59 0 0 -28.78 -3.6 0 0 -14.39 -3.6 0 0 -21.58 -3.59 0 0 -28.78 -3.6 0 0 -21.58 -3.6 0 0 -7.19 -3.59 0 0 -28.78 -3.6 0 0 -10.8 -3.6 0 0 -25.17 -3.6 0 0 -21.59 -3.59 0 0 -21.58 -3.6 0 0 -25.18 -3.6 0 0 -17.98 -3.6 0 0 -32.38 -3.59 0 0 -39.57 -3.6 0 0 -287.77 -3.6 0 0 -10.79 -3.6 0 0 -10.79 -3.59 0 0 -7.2 -3.6 0 0 -7.19 -3.6 0 0 -7.2 -3.59 0 0 -3.6 -3.6 0 0 -3.59 -3.6 0 0 -3.6 -7.19 0 0 -3.6 -21.58 0 0 3.6z"/>
 </g>
</svg>