<?xml version="1.0" encoding="UTF-8"?>
<!DOCTYPE svg PUBLIC "-//W3C//DTD SVG 1.1//EN" "http://www.w3.org/Graphics/SVG/1.1/DTD/svg11.dtd">
<!-- Creator: CorelDRAW (Versión OEM) -->
<svg xmlns="http://www.w3.org/2000/svg" xml:space="preserve" width="67.6504mm" height="173.699mm" version="1.1" style="shape-rendering:geometricPrecision; text-rendering:geometricPrecision; image-rendering:optimizeQuality; fill-rule:evenodd; clip-rule:evenodd"
viewBox="0 0 6765.04 17369.86"
 xmlns:xlink="http://www.w3.org/1999/xlink"
 xmlns:xodm="http://www.corel.com/coreldraw/odm/2003">
 <defs>
  <style type="text/css">
   <![CDATA[
    .fil2 {fill:#0C0C0C}
    .fil1 {fill:#EDEAE0}
    .fil0 {fill:#F2E6C9}
   ]]>
  </style>
 </defs>
 <g id="original">
  <metadata id="CorelCorpID_0Corel-Layer"/>
  <polygon id="root" class="fil0" points="5785.76,4866.99 5755.28,4866.99 5755.28,5049.83 5724.83,5049.83 5724.83,5324.09 5694.34,5324.09 5694.34,5476.45 5663.86,5476.45 5663.86,6146.88 5694.34,6146.88 5694.34,6390.65 5724.83,6390.65 5724.83,6664.91 5755.28,6664.91 5755.28,6878.24 5785.76,6878.24 5785.76,7000.15 5816.25,7000.15 5816.25,7122.02 5846.7,7122.02 5846.7,7304.86 5877.18,7304.86 5877.18,7487.7 5907.67,7487.7 5907.67,7609.6 5938.12,7609.6 5938.12,7731.51 5968.6,7731.51 5968.6,7853.38 5999.09,7853.38 5999.09,7975.29 6029.54,7975.29 6029.54,8097.19 6060.02,8097.19 6060.02,8280.03 6090.51,8280.03 6090.51,8432.39 6120.96,8432.39 6120.96,8584.74 6151.44,8584.74 6151.44,8706.65 6181.93,8706.65 6181.93,8980.91 6212.38,8980.91 6212.38,9194.2 6242.86,9194.2 6242.86,9559.88 6273.35,9559.88 6273.35,9834.15 6303.8,9834.15 6303.8,10077.96 6334.28,10077.96 6334.28,10230.31 6364.77,10230.31 6364.77,10382.67 6395.22,10382.67 6395.22,10504.57 6425.7,10504.57 6425.7,10656.93 6456.19,10656.93 6456.19,10839.77 6486.64,10839.77 6486.64,11022.61 6517.12,11022.61 6517.12,11266.42 6547.61,11266.42 6547.61,11693.04 6517.12,11693.04 6517.12,11814.95 6486.64,11814.95 6486.64,11906.37 6456.19,11906.37 6456.19,11967.3 6425.7,11967.3 6425.7,11997.79 6395.22,11997.79 6395.22,12028.24 6334.28,12028.24 6334.28,12058.72 6090.51,12058.72 6090.51,12028.24 6029.54,12028.24 6029.54,11997.79 5968.6,11997.79 5968.6,11967.3 5938.12,11967.3 5938.12,11936.82 5907.67,11936.82 5907.67,11906.37 5877.18,11906.37 5877.18,11875.88 5846.7,11875.88 5846.7,11814.95 5816.25,11814.95 5816.25,11784.46 5785.76,11784.46 5785.76,11753.97 5755.28,11753.97 5755.28,11723.53 5724.83,11723.53 5724.83,11693.04 5694.34,11693.04 5694.34,11632.1 5663.86,11632.1 5663.86,11601.62 5633.41,11601.62 5633.41,11571.13 5602.92,11571.13 5602.92,11510.2 5572.44,11510.2 5572.44,11479.71 5541.99,11479.71 5541.99,11418.78 5511.5,11418.78 5511.5,11388.29 5481.02,11388.29 5481.02,11327.36 5450.57,11327.36 5450.57,11266.42 5420.08,11266.42 5420.08,11235.94 5389.6,11235.94 5389.6,11175 5359.15,11175 5359.15,11114.03 5328.66,11114.03 5328.66,11053.1 5298.18,11053.1 5298.18,10992.16 5267.73,10992.16 5267.73,10931.19 5237.24,10931.19 5237.24,10870.26 5206.76,10870.26 5206.76,10809.32 5176.31,10809.32 5176.31,10717.9 5145.82,10717.9 5145.82,10656.93 5115.34,10656.93 5115.34,10565.51 5084.89,10565.51 5084.89,10474.09 5054.4,10474.09 5054.4,10413.15 5023.92,10413.15 5023.92,10321.73 4993.47,10321.73 4993.47,10230.31 4962.98,10230.31 4962.98,10138.89 4932.5,10138.89 4932.5,10016.99 4902.05,10016.99 4902.05,9956.05 4871.56,9956.05 4871.56,9864.63 4841.08,9864.63 4841.08,9742.72 4810.63,9742.72 4810.63,9620.85 4780.14,9620.85 4780.14,9529.43 4749.66,9529.43 4749.66,9468.46 4719.21,9468.46 4719.21,9377.04 4688.72,9377.04 4688.72,9285.62 4658.24,9285.62 4658.24,9224.69 4627.79,9224.69 4627.79,9133.27 4597.3,9133.27 4597.3,9041.85 4566.82,9041.85 4566.82,8980.91 4536.37,8980.91 4536.37,8919.98 4505.88,8919.98 4505.88,8828.56 4475.4,8828.56 4475.4,8767.59 4444.95,8767.59 4444.95,8676.16 4414.46,8676.16 4414.46,8615.23 4383.98,8615.23 4383.98,8554.29 4353.53,8554.29 4353.53,8493.32 4323.04,8493.32 4323.04,8432.39 4292.56,8432.39 4292.56,8371.45 4262.11,8371.45 4262.11,8310.48 4231.62,8310.48 4231.62,8249.55 4201.14,8249.55 4201.14,8188.61 4170.69,8188.61 4170.69,8127.64 4140.2,8127.64 4140.2,8066.71 4109.72,8066.71 4109.72,8005.77 4079.27,8005.77 4079.27,7944.8 4048.78,7944.8 4048.78,7914.35 4018.3,7914.35 4018.3,7853.38 3987.85,7853.38 3987.85,7792.45 3957.36,7792.45 3957.36,7761.96 3926.88,7761.96 3926.88,7701.03 3896.43,7701.03 3896.43,7670.54 3865.94,7670.54 3865.94,7609.6 3835.46,7609.6 3835.46,7579.12 3805.01,7579.12 3805.01,7548.67 3774.52,7548.67 3774.52,7487.7 3744.04,7487.7 3744.04,7457.25 3713.59,7457.25 3713.59,7426.76 3683.1,7426.76 3683.1,7396.28 3652.62,7396.28 3652.62,7365.83 3622.17,7365.83 3622.17,7335.34 3591.68,7335.34 3591.68,7304.86 3530.75,7304.86 3530.75,7274.41 3469.78,7274.41 3469.78,7213.44 3500.26,7213.44 3500.26,7152.5 3530.75,7152.5 3530.75,7091.57 3561.2,7091.57 3561.2,7061.08 3591.68,7061.08 3591.68,7000.15 3622.17,7000.15 3622.17,6969.66 3652.62,6969.66 3652.62,6908.73 3683.1,6908.73 3683.1,6878.24 3713.59,6878.24 3713.59,6847.76 3744.04,6847.76 3744.04,6817.31 3805.01,6817.31 3805.01,6756.33 3744.04,6756.33 3744.04,6786.82 3683.1,6786.82 3683.1,6817.31 3652.62,6817.31 3652.62,6847.76 3622.17,6847.76 3622.17,6878.24 3591.68,6878.24 3591.68,6908.73 3561.2,6908.73 3561.2,6939.18 3530.75,6939.18 3530.75,6969.66 3500.26,6969.66 3500.26,7030.6 3469.78,7030.6 3469.78,7061.08 3439.33,7061.08 3439.33,7122.02 3408.84,7122.02 3408.84,7182.99 3378.36,7182.99 3378.36,7243.92 3347.91,7243.92 3347.91,7335.34 3317.42,7335.34 3317.42,7396.28 3286.94,7396.28 3286.94,7487.7 3256.49,7487.7 3256.49,7640.09 3226,7640.09 3226,7731.51 3195.52,7731.51 3195.52,7853.38 3165.07,7853.38 3165.07,8097.19 3134.58,8097.19 3134.58,8371.45 3104.1,8371.45 3104.1,8889.49 3134.58,8889.49 3134.58,9255.17 3165.07,9255.17 3165.07,9498.95 3195.52,9498.95 3195.52,9681.79 3226,9681.79 3226,9803.7 3256.49,9803.7 3256.49,9925.57 3286.94,9925.57 3286.94,10047.47 3317.42,10047.47 3317.42,10169.38 3347.91,10169.38 3347.91,10291.25 3378.36,10291.25 3378.36,10413.15 3408.84,10413.15 3408.84,10535.06 3439.33,10535.06 3439.33,10626.48 3469.78,10626.48 3469.78,10717.9 3500.26,10717.9 3500.26,10809.32 3530.75,10809.32 3530.75,10900.74 3561.2,10900.74 3561.2,10992.16 3591.68,10992.16 3591.68,11083.58 3622.17,11083.58 3622.17,11175 3652.62,11175 3652.62,11266.42 3683.1,11266.42 3683.1,11357.84 3713.59,11357.84 3713.59,11449.26 3744.04,11449.26 3744.04,11510.2 3774.52,11510.2 3774.52,11571.13 3805.01,11571.13 3805.01,11662.55 3835.46,11662.55 3835.46,11753.97 3865.94,11753.97 3865.94,11814.95 3896.43,11814.95 3896.43,11906.37 3926.88,11906.37 3926.88,11997.79 3957.36,11997.79 3957.36,12119.66 3987.85,12119.66 3987.85,12241.56 4018.3,12241.56 4018.3,12546.31 3987.85,12546.31 3987.85,12637.73 3957.36,12637.73 3957.36,12668.18 3926.88,12668.18 3926.88,12698.67 3896.43,12698.67 3896.43,12729.15 3713.59,12729.15 3713.59,12698.67 3622.17,12698.67 3622.17,12668.18 3561.2,12668.18 3561.2,12637.73 3500.26,12637.73 3500.26,12607.24 3469.78,12607.24 3469.78,12576.76 3408.84,12576.76 3408.84,12546.31 3378.36,12546.31 3378.36,12515.82 3347.91,12515.82 3347.91,12485.34 3317.42,12485.34 3317.42,12454.89 3286.94,12454.89 3286.94,12424.4 3226,12424.4 3226,12393.92 3195.52,12393.92 3195.52,12363.47 3165.07,12363.47 3165.07,12332.98 3134.58,12332.98 3134.58,12302.5 3104.1,12302.5 3104.1,12272.05 3073.65,12272.05 3073.65,12241.56 3043.16,12241.56 3043.16,12211.08 3012.68,12211.08 3012.68,12180.63 2982.23,12180.63 2982.23,12150.14 2951.74,12150.14 2951.74,12119.66 2921.26,12119.66 2921.26,12089.21 2890.81,12089.21 2890.81,12058.72 2860.32,12058.72 2860.32,11997.79 2829.84,11997.79 2829.84,11967.3 2799.39,11967.3 2799.39,11936.82 2768.9,11936.82 2768.9,11906.37 2738.42,11906.37 2738.42,11875.88 2707.97,11875.88 2707.97,11845.4 2677.48,11845.4 2677.48,11814.95 2647.03,11814.95 2647.03,11753.97 2616.55,11753.97 2616.55,11723.53 2586.06,11723.53 2586.06,11693.04 2555.61,11693.04 2555.61,11662.55 2525.13,11662.55 2525.13,11632.1 2494.64,11632.1 2494.64,11571.13 2464.19,11571.13 2464.19,11540.68 2433.71,11540.68 2433.71,11510.2 2403.22,11510.2 2403.22,11449.26 2372.77,11449.26 2372.77,11418.78 2342.29,11418.78 2342.29,11357.84 2311.8,11357.84 2311.8,11327.36 2281.35,11327.36 2281.35,11266.42 2250.87,11266.42 2250.87,11235.94 2220.38,11235.94 2220.38,11205.45 2189.93,11205.45 2189.93,11144.52 2159.45,11144.52 2159.45,11083.58 2128.96,11083.58 2128.96,11053.1 2098.51,11053.1 2098.51,10992.16 2068.03,10992.16 2068.03,10961.68 2037.54,10961.68 2037.54,10900.74 2007.09,10900.74 2007.09,10839.77 1976.61,10839.77 1976.61,10778.84 1946.12,10778.84 1946.12,10717.9 1915.67,10717.9 1915.67,10687.41 1885.19,10687.41 1885.19,10626.48 1854.7,10626.48 1854.7,10565.51 1824.25,10565.51 1824.25,10504.57 1793.77,10504.57 1793.77,10443.64 1763.28,10443.64 1763.28,10382.67 1732.83,10382.67 1732.83,10321.73 1702.35,10321.73 1702.35,10260.8 1671.86,10260.8 1671.86,10199.83 1641.41,10199.83 1641.41,10108.41 1610.93,10108.41 1610.93,10047.47 1580.44,10047.47 1580.44,9986.54 1549.99,9986.54 1549.99,9864.63 1519.51,9864.63 1519.51,9803.7 1489.02,9803.7 1489.02,9712.28 1458.57,9712.28 1458.57,9559.88 1428.09,9559.88 1428.09,9468.46 1397.6,9468.46 1397.6,9346.59 1367.15,9346.59 1367.15,9255.17 1336.67,9255.17 1336.67,9163.75 1306.18,9163.75 1306.18,8980.91 1275.73,8980.91 1275.73,8889.49 1245.25,8889.49 1245.25,8737.14 1214.76,8737.14 1214.76,8554.29 1184.31,8554.29 1184.31,8280.03 1153.83,8280.03 1153.83,8127.64 1123.34,8127.64 1123.34,7822.93 1092.89,7822.93 1092.89,7396.28 1062.41,7396.28 1062.41,6664.91 1031.92,6664.91 1031.92,5689.77 1001.47,5689.77 1001.47,5385.03 970.99,5385.03 970.99,5232.67 940.5,5232.67 940.5,5049.83 910.05,5049.83 910.05,4927.93 970.99,4927.93 970.99,4958.41 1031.92,4958.41 1031.92,4988.9 1092.89,4988.9 1092.89,5019.35 1153.83,5019.35 1153.83,5049.83 1214.76,5049.83 1214.76,5080.32 1306.18,5080.32 1306.18,5110.77 1397.6,5110.77 1397.6,5141.25 1489.02,5141.25 1489.02,5171.74 1549.99,5171.74 1549.99,5202.19 1641.41,5202.19 1641.41,5232.67 1763.28,5232.67 1763.28,5263.16 1915.67,5263.16 1915.67,5293.61 2068.03,5293.61 2068.03,5324.09 2159.45,5324.09 2159.45,5354.58 2372.77,5354.58 2372.77,5385.03 2707.97,5385.03 2707.97,5415.51 3500.26,5415.51 3500.26,5385.03 3744.04,5385.03 3744.04,5354.58 3865.94,5354.58 3865.94,5324.09 4048.78,5324.09 4048.78,5293.61 4201.14,5293.61 4201.14,5263.16 4353.53,5263.16 4353.53,5232.67 4475.4,5232.67 4475.4,5202.19 4597.3,5202.19 4597.3,5171.74 4749.66,5171.74 4749.66,5141.25 4841.08,5141.25 4841.08,5110.77 4932.5,5110.77 4932.5,5080.32 5084.89,5080.32 5084.89,5049.83 5176.31,5049.83 5176.31,5019.35 5267.73,5019.35 5267.73,4988.9 5359.15,4988.9 5359.15,4958.41 5420.08,4958.41 5420.08,4927.93 5511.5,4927.93 5511.5,4897.48 5572.44,4897.48 5572.44,4866.99 5633.41,4866.99 5633.41,4836.51 5694.34,4836.51 5694.34,4806.06 5755.28,4806.06 5755.28,4775.57 5785.76,4775.57 "/>
  <path id="crown" class="fil1" d="M4780.14 1088.3l91.42 0 0 30.45 60.94 0 0 30.49 60.97 0 0 30.45 30.45 0 0 30.48 30.48 0 0 30.49 30.49 0 0 30.45 30.45 0 0 30.48 30.48 0 0 30.49 30.49 0 0 30.45 30.45 0 0 30.48 30.48 0 0 60.94 30.49 0 0 60.97 30.45 0 0 30.45 30.48 0 0 60.97 30.49 0 0 60.93 30.45 0 0 60.94 30.48 0 0 91.42 30.49 0 0 60.97 30.45 0 0 91.42 30.48 0 0 60.94 30.49 0 0 -243.78 -30.49 0 0 -91.42 -30.48 0 0 -91.42 -30.45 0 0 -60.97 -30.49 0 0 -60.94 -30.48 0 0 -60.93 -30.45 0 0 -30.49 -30.49 0 0 -60.93 -30.48 0 0 -30.49 -30.45 0 0 -30.48 -30.49 0 0 -60.94 -30.48 0 0 -30.48 -30.45 0 0 -30.45 -30.49 0 0 -30.49 -30.48 0 0 -30.45 -60.94 0 0 -30.48 -30.48 0 0 -30.49 -60.94 0 0 -30.45 -30.48 0 0 -30.48 -91.42 0 0 -30.49 -91.42 0 0 -30.45 -213.29 0 0 30.45 -121.91 0 0 30.49 -121.9 0 0 30.48 -91.42 0 0 30.45 -91.42 0 0 30.49 -91.42 0 0 30.48 -60.94 0 0 30.45 -60.93 0 0 30.49 -91.42 0 0 30.45 -60.97 0 0 30.48 -91.42 0 0 30.49 -91.42 0 0 30.45 -60.94 0 0 30.48 -60.93 0 0 30.49 -91.42 0 0 30.45 -60.97 0 0 30.48 -60.94 0 0 30.49 -91.42 0 0 30.45 -60.93 0 0 30.48 -152.39 0 0 -30.48 -60.94 0 0 -30.45 -60.93 0 0 -30.49 -91.42 0 0 -30.48 -60.94 0 0 -30.45 -60.97 0 0 -30.49 -60.93 0 0 -30.48 -60.94 0 0 -30.45 -60.97 0 0 -30.49 -60.93 0 0 -30.48 -91.42 0 0 -30.45 -60.94 0 0 -30.49 -60.97 0 0 -30.45 -91.42 0 0 -30.48 -60.93 0 0 -30.49 -60.94 0 0 -30.45 -152.39 0 0 -30.48 -274.26 0 0 30.48 -121.87 0 0 30.45 -91.42 0 0 30.49 -30.48 0 0 30.48 -60.94 0 0 30.45 -60.97 0 0 30.49 -60.93 0 0 30.45 -30.49 0 0 30.48 -30.45 0 0 30.49 -60.97 0 0 30.45 -30.45 0 0 30.48 -60.97 0 0 30.49 -60.93 0 0 30.45 -60.94 0 0 30.48 -30.48 0 0 60.94 30.48 0 0 30.48 91.42 0 0 -30.48 60.94 0 0 -30.45 30.48 0 0 -30.49 30.45 0 0 -30.48 60.97 0 0 -30.45 60.94 0 0 -30.49 60.93 0 0 -30.48 30.49 0 0 -30.45 60.93 0 0 -30.49 60.97 0 0 -30.48 60.94 0 0 -30.45 60.93 0 0 -30.49 396.17 0 0 30.49 91.42 0 0 30.45 91.42 0 0 30.48 91.42 0 0 30.49 60.93 0 0 30.45 60.97 0 0 30.48 91.42 0 0 30.49 60.94 0 0 30.45 60.93 0 0 30.48 60.97 0 0 30.49 91.42 0 0 30.45 60.94 0 0 30.48 60.93 0 0 30.49 60.94 0 0 30.45 60.97 0 0 30.48 60.93 0 0 30.49 30.49 0 0 30.45 30.45 0 0 60.97 30.48 0 0 91.42 30.49 0 0 91.42 30.45 0 0 60.94 30.48 0 0 152.35 30.49 0 0 121.91 30.45 0 0 152.35 30.48 0 0 243.81 60.94 0 0 -548.52 -30.45 0 0 -152.39 -30.49 0 0 -91.42 -30.48 0 0 -60.93 -30.45 0 0 -60.94 -30.49 0 0 -60.97 30.49 0 0 -30.45 60.93 0 0 -30.49 60.94 0 0 -30.48 60.97 0 0 -30.45 60.93 0 0 -30.49 91.42 0 0 -30.48 60.94 0 0 -30.45 91.42 0 0 -30.49 60.97 0 0 -30.48 91.42 0 0 -30.45 91.42 0 0 -30.49 60.93 0 0 -30.48 91.42 0 0 -30.45 91.42 0 0 -30.49 60.94 0 0 -30.48 121.9 0 0 -30.45 91.42 0 0 -30.49 60.94 0 0 -30.45 213.32 0 0 -30.48 182.84 0 0 30.48zm-60.93 -822.78l91.42 0 0 30.45 60.93 0 0 30.48 30.49 0 0 30.49 60.93 0 0 30.45 60.94 0 0 30.48 30.48 0 0 30.49 30.49 0 0 30.45 60.93 0 0 30.48 30.49 0 0 30.49 30.45 0 0 30.45 60.97 0 0 60.97 -91.42 0 0 30.45 -91.42 0 0 30.48 -60.97 0 0 30.49 -60.94 0 0 30.45 -30.48 0 0 30.49 -60.94 0 0 30.48 -30.48 0 0 30.45 30.48 0 0 30.49 60.94 0 0 -30.49 91.42 0 0 -30.45 60.97 0 0 -30.48 60.93 0 0 -30.49 365.68 0 0 30.49 91.42 0 0 30.48 30.49 0 0 30.45 60.93 0 0 30.49 60.94 0 0 30.48 30.48 0 0 30.45 30.49 0 0 30.49 30.45 0 0 30.48 30.48 0 0 60.94 30.49 0 0 30.48 30.45 0 0 60.94 30.48 0 0 30.45 30.49 0 0 60.97 30.45 0 0 60.93 30.48 0 0 60.94 30.49 0 0 60.97 30.45 0 0 91.42 30.48 0 0 60.93 30.49 0 0 91.42 30.45 0 0 121.91 30.48 0 0 182.84 30.49 0 0 152.36 30.45 0 0 731.36 -30.45 0 0 304.75 -30.49 0 0 121.87 -30.48 0 0 121.9 -30.45 0 0 121.91 -30.49 0 0 121.87 -30.48 0 0 121.91 -30.45 0 0 60.93 -30.49 0 0 121.91 -30.48 0 0 60.93 -30.45 0 0 121.91 -30.49 0 0 91.42 -30.48 0 0 91.42 -30.45 0 0 91.42 -30.49 0 0 60.93 -30.48 0 0 121.91 -30.45 0 0 30.48 -60.97 0 0 30.45 -60.94 0 0 30.49 -60.93 0 0 30.49 -60.97 0 0 30.44 -60.94 0 0 30.49 -91.42 0 0 30.49 -60.93 0 0 30.45 -91.42 0 0 30.48 -91.42 0 0 30.49 -91.42 0 0 30.45 -91.42 0 0 30.48 -91.42 0 0 30.49 -121.91 0 0 30.45 -91.42 0 0 30.48 -152.35 0 0 30.49 -152.39 0 0 30.45 -121.87 0 0 30.48 -152.39 0 0 30.49 -121.87 0 0 30.45 -243.81 0 0 30.48 -121.87 0 0 30.49 -1127.53 0 0 -30.49 -213.29 0 0 -30.48 -213.32 0 0 -30.45 -121.91 0 0 -30.49 -121.87 0 0 -30.48 -121.9 0 0 -30.45 -60.94 0 0 -30.49 -121.9 0 0 -30.48 -60.94 0 0 -30.45 -91.42 0 0 -30.49 -60.97 0 0 -30.48 -91.42 0 0 -30.45 -60.93 0 0 -30.49 -60.94 0 0 -30.48 -60.97 0 0 -30.45 -30.45 0 0 -30.49 -60.97 0 0 -30.49 -60.93 0 0 -30.44 -30.49 0 0 -60.98 -30.45 0 0 -60.93 -30.48 0 0 -60.94 -30.49 0 0 -91.42 -30.45 0 0 -60.97 -30.48 0 0 -91.42 -30.49 0 0 -60.93 -30.45 0 0 -60.94 -30.48 0 0 -91.42 -30.49 0 0 -91.42 -30.45 0 0 -60.97 -30.48 0 0 -91.42 -30.49 0 0 -60.93 -30.45 0 0 -91.43 -30.48 0 0 -91.42 -30.49 0 0 -91.42 -30.45 0 0 -121.9 -30.48 0 0 -91.42 -30.49 0 0 -121.87 -30.45 0 0 -152.39 -30.48 0 0 -152.36 -30.49 0 0 -243.78 -30.45 0 0 -487.58 30.45 0 0 -121.91 30.49 0 0 -152.35 30.48 0 0 -152.36 30.45 0 0 -91.42 30.49 0 0 -60.97 30.48 0 0 -91.42 30.45 0 0 -60.94 30.49 0 0 -60.93 30.48 0 0 -30.49 30.45 0 0 -60.93 30.49 0 0 -30.49 30.48 0 0 -60.93 30.45 0 0 -30.49 30.49 0 0 -60.93 30.48 0 0 -30.49 30.45 0 0 -30.45 30.49 0 0 -30.48 30.48 0 0 -60.94 30.45 0 0 -30.48 30.49 0 0 -30.49 30.48 0 0 -30.45 30.45 0 0 -30.48 30.49 0 0 -30.49 30.48 0 0 -30.45 30.45 0 0 -30.49 30.49 0 0 -30.48 30.48 0 0 -30.45 30.45 0 0 -30.49 30.49 0 0 -30.48 30.48 0 0 -30.45 60.94 0 0 -30.49 30.48 0 0 -30.48 30.45 0 0 -30.45 30.49 0 0 -30.49 60.93 0 0 -30.48 30.49 0 0 -30.45 60.93 0 0 -30.49 60.97 0 0 -30.48 60.94 0 0 -30.45 60.93 0 0 -30.49 304.75 0 0 30.49 91.42 0 0 30.45 91.42 0 0 30.48 60.93 0 0 30.49 91.42 0 0 30.45 60.97 0 0 30.48 60.94 0 0 30.49 60.93 0 0 30.45 60.97 0 0 30.48 91.42 0 0 30.49 60.94 0 0 30.45 60.93 0 0 30.48 91.42 0 0 30.49 182.84 0 0 30.45 335.2 0 0 -30.45 152.39 0 0 -30.49 60.93 0 0 -30.48 121.91 0 0 -30.45 91.42 0 0 -30.49 121.87 0 0 -30.48 60.97 0 0 -30.45 91.42 0 0 -30.49 60.93 0 0 -30.48 91.42 0 0 -30.45 91.42 0 0 -30.49 60.94 0 0 -30.48 60.97 0 0 -30.45 121.87 0 0 -30.49 243.81 0 0 30.49z"/>
  <path id="outline" class="fil2" d="M5785.77 4775.57l-30.47 0 0 30.47 -60.95 0 0 30.47 -60.94 0 0 30.47 -60.96 0 0 30.49 -60.94 0 0 30.44 -91.43 0 0 30.5 -60.93 0 0 30.48 -91.42 0 0 30.45 -91.42 0 0 30.47 -91.43 0 0 30.5 -152.39 0 0 30.45 -91.41 0 0 30.5 -91.43 0 0 30.47 -152.37 0 0 30.45 -121.88 0 0 30.48 -121.86 0 0 30.5 -152.4 0 0 30.44 -152.35 0 0 30.49 -182.84 0 0 30.49 -121.92 0 0 30.45 -243.77 0 0 30.47 -792.3 0 0 -30.47 -335.18 0 0 -30.45 -213.32 0 0 -30.49 -91.43 0 0 -30.49 -152.36 0 0 -30.44 -152.39 0 0 -30.5 -121.87 0 0 -30.48 -91.4 0 0 -30.45 -60.99 0 0 -30.47 -91.41 0 0 -30.5 -91.42 0 0 -30.45 -91.42 0 0 -30.5 -60.94 0 0 -30.47 -60.95 0 0 -30.45 -60.95 0 0 -30.48 -60.95 0 0 -30.5 -60.93 0 0 121.9 30.46 0 0 182.85 30.47 0 0 152.37 30.49 0 0 304.75 30.46 0 0 975.13 30.49 0 0 731.37 30.46 0 0 426.63 30.46 0 0 304.74 30.49 0 0 152.38 30.49 0 0 274.26 30.45 0 0 182.84 30.49 0 0 152.37 30.47 0 0 91.42 30.46 0 0 182.82 30.49 0 0 91.44 30.48 0 0 91.4 30.45 0 0 121.89 30.5 0 0 91.41 30.47 0 0 152.39 30.44 0 0 91.42 30.5 0 0 60.94 30.49 0 0 121.91 30.42 0 0 60.93 30.49 0 0 60.95 30.49 0 0 91.43 30.45 0 0 60.96 30.49 0 0 60.94 30.47 0 0 60.92 30.46 0 0 60.98 30.49 0 0 60.95 30.48 0 0 60.9 30.45 0 0 60.98 30.5 0 0 60.93 30.47 0 0 30.48 30.45 0 0 60.94 30.49 0 0 60.93 30.49 0 0 60.97 30.45 0 0 60.95 30.48 0 0 30.48 30.48 0 0 60.94 30.45 0 0 30.48 30.5 0 0 60.93 30.48 0 0 60.93 30.44 0 0 30.5 30.48 0 0 30.48 30.49 0 0 60.94 30.45 0 0 30.49 30.48 0 0 60.93 30.5 0 0 30.49 30.44 0 0 60.94 30.48 0 0 30.48 30.49 0 0 30.44 30.45 0 0 60.99 30.48 0 0 30.44 30.51 0 0 30.47 30.43 0 0 30.5 30.48 0 0 30.45 30.49 0 0 60.98 30.46 0 0 30.45 30.47 0 0 30.47 30.47 0 0 30.49 30.47 0 0 30.45 30.49 0 0 30.49 30.45 0 0 30.48 30.49 0 0 60.93 30.48 0 0 30.49 30.47 0 0 30.45 30.46 0 0 30.47 30.49 0 0 30.48 30.44 0 0 30.46 30.48 0 0 30.49 30.48 0 0 30.48 30.46 0 0 30.45 30.48 0 0 30.48 30.5 0 0 30.49 30.43 0 0 30.45 30.49 0 0 30.49 60.94 0 0 30.49 30.48 0 0 30.45 30.5 0 0 30.47 30.44 0 0 30.49 30.49 0 0 30.46 60.93 0 0 30.48 30.49 0 0 30.49 60.93 0 0 30.44 60.97 0 0 30.49 91.43 0 0 30.48 182.85 0 0 -30.48 30.44 0 0 -30.49 30.49 0 0 -30.44 30.48 0 0 -91.43 30.46 0 0 -304.74 -30.46 0 0 -121.9 -30.48 0 0 -121.87 -30.49 0 0 -91.42 -30.44 0 0 -91.41 -30.49 0 0 -60.98 -30.49 0 0 -91.42 -30.45 0 0 -91.43 -30.48 0 0 -60.92 -30.5 0 0 -60.94 -30.44 0 0 -91.42 -30.48 0 0 -91.43 -30.49 0 0 -91.42 -30.46 0 0 -91.42 -30.48 0 0 -91.42 -30.49 0 0 -91.43 -30.44 0 0 -91.41 -30.49 0 0 -91.43 -30.49 0 0 -91.41 -30.46 0 0 -91.41 -30.47 0 0 -121.92 -30.49 0 0 -121.91 -30.44 0 0 -121.86 -30.5 0 0 -121.91 -30.48 0 0 -121.9 -30.46 0 0 -121.88 -30.48 0 0 -121.91 -30.49 0 0 -182.84 -30.43 0 0 -243.76 -30.5 0 0 -365.68 -30.48 0 0 -518.05 30.48 0 0 -274.26 30.5 0 0 -243.81 30.43 0 0 -121.88 30.49 0 0 -91.4 30.48 0 0 -152.39 30.46 0 0 -91.43 30.48 0 0 -60.93 30.5 0 0 -91.42 30.44 0 0 -60.93 30.49 0 0 -60.97 30.47 0 0 -60.95 30.46 0 0 -30.48 30.49 0 0 -60.94 30.49 0 0 -30.48 30.44 0 0 -30.46 30.49 0 0 -30.48 30.48 0 0 -30.48 30.46 0 0 -30.45 30.49 0 0 -30.5 60.92 0 0 -30.47 60.98 0 0 60.97 -60.98 0 0 30.45 -30.44 0 0 30.48 -30.48 0 0 30.48 -30.49 0 0 60.94 -30.46 0 0 30.5 -30.48 0 0 60.92 -30.49 0 0 30.49 -30.44 0 0 60.93 -30.49 0 0 60.93 -30.49 0 0 60.99 60.98 0 0 30.44 60.93 0 0 30.49 30.48 0 0 30.5 30.46 0 0 30.43 30.49 0 0 30.48 30.48 0 0 30.49 30.44 0 0 30.46 30.5 0 0 60.97 30.48 0 0 30.44 30.45 0 0 30.49 30.49 0 0 60.92 30.49 0 0 30.48 30.44 0 0 60.95 30.49 0 0 30.48 30.48 0 0 60.94 30.46 0 0 60.96 30.48 0 0 30.46 30.49 0 0 60.96 30.43 0 0 60.94 30.5 0 0 60.95 30.49 0 0 60.95 30.44 0 0 60.95 30.49 0 0 60.93 30.49 0 0 60.97 30.44 0 0 60.93 30.49 0 0 60.94 30.49 0 0 60.97 30.45 0 0 60.94 30.49 0 0 60.93 30.48 0 0 91.43 30.44 0 0 60.97 30.48 0 0 91.41 30.5 0 0 60.95 30.42 0 0 60.93 30.48 0 0 91.42 30.5 0 0 91.4 30.45 0 0 60.95 30.48 0 0 91.42 30.48 0 0 91.43 30.46 0 0 60.95 30.48 0 0 91.43 30.49 0 0 121.88 30.46 0 0 121.9 30.48 0 0 91.43 30.48 0 0 60.95 30.45 0 0 121.9 30.49 0 0 91.41 30.48 0 0 91.43 30.47 0 0 91.4 30.47 0 0 60.94 30.48 0 0 91.41 30.45 0 0 91.41 30.5 0 0 60.98 30.48 0 0 91.43 30.45 0 0 60.94 30.47 0 0 60.93 30.5 0 0 60.97 30.45 0 0 60.94 30.49 0 0 60.94 30.48 0 0 60.96 30.46 0 0 60.94 30.47 0 0 30.48 30.49 0 0 60.94 30.45 0 0 60.93 30.49 0 0 30.49 30.49 0 0 60.94 30.45 0 0 30.49 30.47 0 0 60.92 30.49 0 0 30.49 30.46 0 0 30.5 30.48 0 0 60.91 30.49 0 0 30.5 30.46 0 0 30.45 30.47 0 0 30.48 30.48 0 0 30.5 30.45 0 0 60.92 30.5 0 0 30.49 30.48 0 0 30.45 30.44 0 0 30.49 30.49 0 0 30.48 60.91 0 0 30.46 60.98 0 0 30.47 243.79 0 0 -30.47 60.92 0 0 -30.46 30.49 0 0 -30.48 30.49 0 0 -60.94 30.45 0 0 -91.41 30.49 0 0 -121.93 30.48 0 0 -426.61 -30.48 0 0 -243.82 -30.49 0 0 -182.84 -30.45 0 0 -182.85 -30.49 0 0 -152.31 -30.49 0 0 -121.93 -30.43 0 0 -152.35 -30.49 0 0 -152.36 -30.5 0 0 -243.8 -30.44 0 0 -274.28 -30.49 0 0 -365.69 -30.5 0 0 -213.27 -30.43 0 0 -274.27 -30.48 0 0 -121.91 -30.5 0 0 -152.36 -30.45 0 0 -152.35 -30.48 0 0 -182.84 -30.5 0 0 -121.9 -30.42 0 0 -121.91 -30.49 0 0 -121.88 -30.49 0 0 -121.89 -30.44 0 0 -121.9 -30.48 0 0 -182.85 -30.5 0 0 -182.83 -30.45 0 0 -121.87 -30.48 0 0 -121.92 -30.47 0 0 -213.33 -30.46 0 0 -274.26 -30.49 0 0 -243.75 -30.48 0 0 -670.45 30.48 0 0 -152.36 30.49 0 0 -274.28 30.46 0 0 -182.83 30.47 0 0 -91.41zm-518.04 -4205.35l-60.97 0 0 -30.45 -30.45 0 0 -30.48 -30.48 0 0 -30.48 -60.95 0 0 -30.47 -30.48 0 0 -30.47 -30.47 0 0 -30.49 -60.95 0 0 -30.46 -60.94 0 0 -30.48 -30.48 0 0 -30.47 -60.94 0 0 -30.45 -91.43 0 0 -30.47 -243.79 0 0 30.47 -121.86 0 0 30.45 -60.98 0 0 30.47 -60.93 0 0 30.48 -91.42 0 0 30.46 -91.42 0 0 30.49 -60.94 0 0 30.47 -91.41 0 0 30.47 -60.98 0 0 30.48 -121.87 0 0 30.48 -91.43 0 0 30.45 -121.9 0 0 30.49 -60.95 0 0 30.48 -152.38 0 0 30.47 -335.19 0 0 -30.47 -182.84 0 0 -30.48 -91.41 0 0 -30.49 -60.95 0 0 -30.45 -60.91 0 0 -30.48 -91.44 0 0 -30.48 -60.97 0 0 -30.47 -60.94 0 0 -30.47 -60.93 0 0 -30.49 -60.97 0 0 -30.46 -91.42 0 0 -30.48 -60.93 0 0 -30.47 -91.42 0 0 -30.45 -91.41 0 0 -30.47 -304.77 0 0 30.47 -60.91 0 0 30.45 -60.94 0 0 30.47 -60.97 0 0 30.48 -60.93 0 0 30.46 -30.49 0 0 30.49 -60.93 0 0 30.47 -30.49 0 0 30.47 -30.45 0 0 30.48 -30.49 0 0 30.48 -60.95 0 0 30.45 -30.46 0 0 30.49 -30.49 0 0 30.48 -30.46 0 0 30.47 -30.49 0 0 30.47 -30.47 0 0 30.48 -30.46 0 0 30.46 -30.48 0 0 30.49 -30.49 0 0 30.47 -30.45 0 0 30.47 -30.49 0 0 30.48 -30.48 0 0 30.48 -30.46 0 0 60.94 -30.48 0 0 30.48 -30.48 0 0 30.46 -30.46 0 0 30.46 -30.49 0 0 60.95 -30.48 0 0 30.5 -30.45 0 0 60.92 -30.48 0 0 30.48 -30.49 0 0 60.93 -30.46 0 0 30.5 -30.48 0 0 60.94 -30.47 0 0 60.93 -30.46 0 0 91.43 -30.49 0 0 60.96 -30.48 0 0 91.43 -30.45 0 0 152.34 -30.5 0 0 152.36 -30.47 0 0 121.9 -30.44 0 0 487.59 30.44 0 0 243.79 30.47 0 0 152.36 30.5 0 0 152.39 30.45 0 0 121.85 30.48 0 0 91.42 30.49 0 0 121.92 30.46 0 0 91.41 30.47 0 0 91.43 30.48 0 0 91.42 30.46 0 0 60.93 30.49 0 0 91.41 30.48 0 0 60.99 30.45 0 0 91.41 30.48 0 0 91.43 30.49 0 0 60.92 30.46 0 0 60.94 30.48 0 0 91.43 30.48 0 0 60.96 30.46 0 0 91.45 30.48 0 0 60.91 30.49 0 0 60.95 30.45 0 0 60.97 30.49 0 0 30.43 60.94 0 0 30.49 60.96 0 0 30.47 30.46 0 0 30.47 60.95 0 0 30.47 60.95 0 0 30.49 60.94 0 0 30.44 91.42 0 0 30.5 60.97 0 0 30.48 91.42 0 0 30.45 60.94 0 0 30.47 121.89 0 0 30.5 60.94 0 0 30.45 121.9 0 0 30.5 121.87 0 0 30.47 121.91 0 0 30.45 213.32 0 0 30.48 213.29 0 0 30.5 1127.52 0 0 -30.5 121.87 0 0 -30.48 243.82 0 0 -30.45 121.86 0 0 -30.47 152.41 0 0 -30.5 121.87 0 0 -30.45 152.39 0 0 -30.5 152.33 0 0 -30.47 91.42 0 0 -30.45 121.91 0 0 -30.48 91.42 0 0 -30.5 91.42 0 0 -30.44 91.43 0 0 -30.49 91.42 0 0 -30.47 91.42 0 0 -30.47 60.93 0 0 -30.47 91.43 0 0 -30.49 60.94 0 0 -30.43 60.96 0 0 -30.5 60.94 0 0 -30.47 60.95 0 0 -30.46 60.95 0 0 -30.49 30.45 0 0 -121.9 30.5 0 0 -60.94 30.48 0 0 -91.43 30.44 0 0 -91.42 30.49 0 0 -91.41 30.49 0 0 -121.91 30.42 0 0 -60.94 30.5 0 0 -121.9 30.48 0 0 -60.93 30.45 0 0 -121.91 30.5 0 0 -121.88 30.48 0 0 -121.9 30.43 0 0 -121.91 30.5 0 0 -121.85 30.49 0 0 -304.75 30.44 0 0 -731.38 -30.44 0 0 -152.35 -30.49 0 0 -182.84 -30.5 0 0 -121.9 -30.43 0 0 -91.42 -30.48 0 0 -60.93 -30.5 0 0 -91.44 -30.45 0 0 -60.96 -30.48 0 0 -60.95 -30.5 0 0 -60.93 -30.42 0 0 -60.97 -30.49 0 0 -30.43 -30.49 0 0 -60.95 -30.44 0 0 -30.5 -30.48 0 0 -60.92 -30.5 0 0 -30.48 -30.45 0 0 -30.5 -30.48 0 0 -30.44 -30.47 0 0 -30.48 -60.95 0 0 -30.48 -60.94 0 0 -30.47 -30.49 0 0 -30.47 -91.41 0 0 -30.49 -365.68 0 0 30.49 -60.95 0 0 30.47 -60.95 0 0 30.47 -91.44 0 0 30.48 -60.93 0 0 -30.48 -30.48 0 0 -30.47 30.48 0 0 -30.47 60.93 0 0 -30.49 30.49 0 0 -30.46 60.95 0 0 -30.48 60.95 0 0 -30.47 91.43 0 0 -30.47 91.42 0 0 -60.97zm-518.08 -518.02l91.43 0 0 30.48 60.96 0 0 30.45 60.94 0 0 30.49 60.95 0 0 30.5 60.95 0 0 30.43 30.45 0 0 30.5 30.5 0 0 30.47 60.93 0 0 30.45 30.47 0 0 30.47 30.5 0 0 30.48 30.45 0 0 30.46 30.49 0 0 30.49 60.94 0 0 30.47 30.47 0 0 30.47 30.49 0 0 30.48 60.94 0 0 30.48 60.94 0 0 30.45 60.96 0 0 30.49 60.94 0 0 30.48 30.49 0 0 30.47 60.93 0 0 30.47 30.48 0 0 30.48 60.95 0 0 30.46 30.48 0 0 30.49 30.44 0 0 30.47 30.49 0 0 30.47 30.49 0 0 30.48 30.42 0 0 30.48 30.5 0 0 60.94 30.48 0 0 30.48 30.45 0 0 60.92 30.5 0 0 60.95 30.48 0 0 30.5 30.43 0 0 60.92 30.5 0 0 91.41 30.49 0 0 60.95 30.44 0 0 60.96 30.5 0 0 121.89 30.49 0 0 91.42 30.43 0 0 60.97 30.49 0 0 182.83 30.49 0 0 213.29 30.45 0 0 213.32 30.49 0 0 518.06 -30.49 0 0 121.9 -30.45 0 0 243.75 -30.49 0 0 121.92 -30.49 0 0 152.35 -30.43 0 0 152.4 -30.49 0 0 91.41 -30.5 0 0 121.88 -30.44 0 0 60.97 -30.49 0 0 121.87 -30.5 0 0 91.42 -30.43 0 0 91.42 -30.48 0 0 91.42 -30.5 0 0 91.43 -30.45 0 0 91.42 -30.48 0 0 91.42 -30.5 0 0 60.97 -30.42 0 0 152.35 -30.49 0 0 152.34 -30.49 0 0 121.9 -30.44 0 0 335.22 -30.48 0 0 822.77 30.48 0 0 396.18 30.44 0 0 121.9 30.49 0 0 182.84 30.49 0 0 182.85 30.42 0 0 121.86 30.5 0 0 152.42 30.48 0 0 152.35 30.45 0 0 121.9 30.5 0 0 121.86 30.48 0 0 121.9 30.43 0 0 152.35 30.5 0 0 152.39 30.49 0 0 91.43 30.44 0 0 182.85 30.5 0 0 152.35 30.49 0 0 243.78 30.43 0 0 243.76 30.49 0 0 243.81 30.49 0 0 396.15 30.45 0 0 243.81 30.49 0 0 182.84 30.48 0 0 121.86 30.44 0 0 213.36 30.5 0 0 121.88 30.48 0 0 121.87 30.46 0 0 152.38 30.48 0 0 182.85 30.48 0 0 243.78 30.44 0 0 335.2 -30.44 0 0 121.9 -30.48 0 0 121.91 -30.48 0 0 91.42 -30.46 0 0 30.46 -30.48 0 0 30.47 -30.5 0 0 60.94 -60.92 0 0 30.47 -30.49 0 0 30.48 -60.94 0 0 30.46 -60.92 0 0 30.49 -335.26 0 0 -30.49 -60.91 0 0 -30.46 -60.93 0 0 -30.48 -30.48 0 0 -30.47 -60.95 0 0 -30.45 -30.48 0 0 -30.49 -30.47 0 0 -30.47 -30.46 0 0 -30.46 -30.49 0 0 -30.48 -30.48 0 0 -30.49 -30.46 0 0 -30.45 -30.49 0 0 -30.49 -30.47 0 0 -60.92 -30.45 0 0 -30.5 -30.49 0 0 -30.48 -30.49 0 0 -60.95 -30.45 0 0 -30.47 -30.49 0 0 -60.94 -30.47 0 0 -30.49 -30.46 0 0 -60.92 -30.48 0 0 -60.94 -30.49 0 0 -30.49 -30.45 0 0 -60.93 -30.5 0 0 -60.98 -30.47 0 0 -60.93 -30.45 0 0 -30.5 -30.48 0 0 -60.93 -30.5 0 0 -91.41 -30.45 0 0 -60.94 -30.48 0 0 -30.48 -30.47 0 0 -91.42 -30.47 0 0 -60.94 -30.48 0 0 -91.43 -30.49 0 0 -60.98 -30.45 0 0 -91.41 -30.48 0 0 -91.41 -30.48 0 0 -60.94 -30.46 0 0 -91.4 -30.49 0 0 -91.43 -30.48 0 0 -121.9 -30.46 0 0 -91.41 -30.48 0 0 -91.44 -30.48 0 0 -60.94 -30.45 0 0 -152.36 -30.5 0 0 -91.42 -30.48 0 0 -91.43 -30.42 0 0 -60.95 -30.5 0 0 -91.43 -30.48 0 0 -91.42 -30.44 0 0 -91.43 -30.48 0 0 -60.92 -30.49 0 0 -91.42 -30.45 0 0 -60.93 -30.49 0 0 -91.42 -30.49 0 0 -60.94 -30.44 0 0 -60.97 -30.49 0 0 -60.94 -30.49 0 0 -91.42 -30.44 0 0 -60.94 -30.49 0 0 -60.97 -30.5 0 0 -60.94 -30.43 0 0 -60.93 -30.49 0 0 -60.97 -30.48 0 0 -60.93 -30.46 0 0 -60.95 -30.48 0 0 -30.47 -30.49 0 0 -60.94 -30.44 0 0 -60.98 -30.49 0 0 -60.92 -30.49 0 0 -30.49 -30.45 0 0 -60.94 -30.48 0 0 -60.95 -30.5 0 0 -30.47 -30.44 0 0 -60.94 -30.48 0 0 -30.49 -30.49 0 0 -30.48 -30.46 0 0 -60.92 -30.48 0 0 -30.49 -30.49 0 0 -30.44 -30.44 0 0 -30.48 -30.49 0 0 -30.49 -60.95 0 0 91.41 -30.47 0 0 152.38 -30.49 0 0 152.36 -30.44 0 0 243.79 -30.5 0 0 1005.62 30.5 0 0 213.31 30.44 0 0 182.84 30.49 0 0 121.89 30.47 0 0 182.85 30.46 0 0 182.85 30.49 0 0 121.9 30.49 0 0 91.41 30.44 0 0 152.35 30.49 0 0 60.98 30.48 0 0 91.42 30.46 0 0 91.41 30.49 0 0 152.35 30.48 0 0 30.49 30.44 0 0 121.87 30.5 0 0 91.41 30.48 0 0 91.44 30.45 0 0 91.4 30.49 0 0 60.98 30.49 0 0 91.43 30.44 0 0 91.42 30.49 0 0 60.94 30.48 0 0 91.41 30.46 0 0 60.94 30.48 0 0 91.42 30.49 0 0 91.43 30.43 0 0 91.41 30.5 0 0 91.43 30.49 0 0 152.36 30.44 0 0 426.63 -30.44 0 0 91.42 -30.49 0 0 60.94 -30.5 0 0 60.98 -30.43 0 0 30.44 -30.49 0 0 30.49 -60.94 0 0 30.47 -396.17 0 0 -30.47 -60.93 0 0 -30.49 -60.98 0 0 -30.44 -60.93 0 0 -30.5 -30.49 0 0 -30.48 -30.44 0 0 -30.46 -60.98 0 0 -30.48 -30.46 0 0 -30.49 -30.48 0 0 -30.44 -60.92 0 0 -30.49 -30.5 0 0 -30.48 -30.48 0 0 -30.46 -30.46 0 0 -30.49 -30.48 0 0 -30.47 -30.48 0 0 -30.45 -30.44 0 0 -30.49 -30.49 0 0 -30.49 -30.46 0 0 -30.45 -30.47 0 0 -30.49 -30.48 0 0 -30.48 -30.49 0 0 -30.45 -30.45 0 0 -30.48 -30.49 0 0 -30.49 -30.47 0 0 -30.46 -30.47 0 0 -30.48 -30.47 0 0 -30.47 -30.46 0 0 -30.45 -30.49 0 0 -30.49 -30.48 0 0 -30.47 -30.43 0 0 -60.94 -30.51 0 0 -30.49 -30.48 0 0 -30.45 -30.45 0 0 -30.49 -30.49 0 0 -30.47 -30.48 0 0 -60.95 -30.44 0 0 -30.48 -30.5 0 0 -30.45 -30.48 0 0 -60.97 -30.45 0 0 -30.44 -30.49 0 0 -60.99 -30.48 0 0 -30.44 -30.44 0 0 -30.48 -30.48 0 0 -60.94 -30.5 0 0 -30.49 -30.45 0 0 -60.93 -30.48 0 0 -30.49 -30.48 0 0 -60.94 -30.45 0 0 -30.48 -30.49 0 0 -60.94 -30.49 0 0 -30.49 -30.45 0 0 -60.93 -30.47 0 0 -60.98 -30.5 0 0 -30.44 -30.45 0 0 -60.97 -30.48 0 0 -60.93 -30.49 0 0 -60.94 -30.46 0 0 -60.97 -30.47 0 0 -60.94 -30.49 0 0 -30.5 -30.45 0 0 -60.92 -30.49 0 0 -60.92 -30.49 0 0 -60.98 -30.42 0 0 -60.94 -30.49 0 0 -91.4 -30.5 0 0 -60.94 -30.44 0 0 -60.96 -30.47 0 0 -91.43 -30.5 0 0 -60.95 -30.45 0 0 -91.41 -30.48 0 0 -91.43 -30.49 0 0 -91.42 -30.46 0 0 -91.43 -30.47 0 0 -121.9 -30.49 0 0 -121.87 -30.45 0 0 -121.91 -30.49 0 0 -60.92 -30.49 0 0 -121.91 -30.46 0 0 -182.84 -30.46 0 0 -121.87 -30.49 0 0 -182.83 -30.46 0 0 -243.83 -30.49 0 0 -182.84 -30.47 0 0 -274.26 -30.46 0 0 -396.12 -30.48 0 0 -944.7 -30.49 0 0 -944.69 -30.45 0 0 -243.79 -30.49 0 0 -91.41 -30.48 0 0 -213.33 -30.46 0 0 -121.87 -30.48 0 0 -121.91 -30.48 0 0 -91.41 -30.46 0 0 -91.42 -30.49 0 0 -91.42 -30.48 0 0 -60.91 -30.45 0 0 -91.45 -30.48 0 0 -60.96 -30.49 0 0 -60.95 -30.46 0 0 -91.42 -30.48 0 0 -60.92 -30.47 0 0 -91.43 -30.46 0 0 -60.97 -30.49 0 0 -91.43 -30.48 0 0 -91.41 -30.45 0 0 -91.42 -30.5 0 0 -91.42 -30.47 0 0 -60.94 -30.44 0 0 -121.91 -30.5 0 0 -121.88 -30.49 0 0 -60.96 -30.42 0 0 -182.84 -30.49 0 0 -121.86 -30.48 0 0 -243.81 -30.46 0 0 -670.41 30.46 0 0 -243.81 30.48 0 0 -91.42 30.49 0 0 -91.4 30.42 0 0 -91.42 30.49 0 0 -60.95 30.5 0 0 -91.41 30.44 0 0 -60.94 30.47 0 0 -60.97 30.5 0 0 -60.94 30.45 0 0 -30.49 30.48 0 0 -60.93 30.49 0 0 -60.95 30.46 0 0 -30.46 30.47 0 0 -30.46 30.48 0 0 -60.98 30.46 0 0 -30.44 30.49 0 0 -30.48 30.48 0 0 -60.95 30.45 0 0 -30.47 30.48 0 0 -30.49 30.49 0 0 -30.46 30.46 0 0 -30.48 30.48 0 0 -30.47 30.48 0 0 -30.47 30.46 0 0 -30.48 30.48 0 0 -30.49 30.49 0 0 -30.45 30.45 0 0 -30.48 30.49 0 0 -30.48 30.48 0 0 -30.47 30.46 0 0 -30.47 60.96 0 0 -30.49 30.46 0 0 -30.46 30.49 0 0 -30.48 30.46 0 0 -30.47 30.46 0 0 -30.45 60.98 0 0 -30.47 30.45 0 0 -30.5 60.96 0 0 -30.43 60.95 0 0 -30.5 30.48 0 0 -30.49 91.42 0 0 -30.45 60.94 0 0 -30.48 91.4 0 0 -30.49 243.78 0 0 30.49 152.4 0 0 30.48 91.41 0 0 30.45 60.95 0 0 30.49 60.92 0 0 30.5 60.97 0 0 30.43 60.93 0 0 30.5 60.94 0 0 30.47 60.97 0 0 30.45 60.93 0 0 30.47 60.94 0 0 30.48 91.43 0 0 30.46 91.41 0 0 30.49 121.91 0 0 30.47 426.6 0 0 -30.47 152.36 0 0 -30.49 91.42 0 0 -30.46 91.43 0 0 -30.48 91.41 0 0 -30.47 60.98 0 0 -30.45 91.43 0 0 -30.47 91.41 0 0 -30.5 60.94 0 0 -30.43 60.92 0 0 -30.5 91.43 0 0 -30.49 60.98 0 0 -30.45 91.42 0 0 -30.48 91.42 0 0 -30.49 304.69 0 0 30.49zm0 883.71l91.42 0 0 30.49 91.42 0 0 30.48 30.49 0 0 30.45 60.94 0 0 30.49 30.48 0 0 30.48 60.94 0 0 30.45 30.48 0 0 30.49 30.49 0 0 30.45 30.45 0 0 30.48 30.48 0 0 60.94 30.49 0 0 30.48 30.45 0 0 30.49 30.48 0 0 60.93 30.49 0 0 30.49 30.45 0 0 60.93 30.48 0 0 60.94 30.49 0 0 60.97 30.45 0 0 91.42 30.48 0 0 91.42 30.49 0 0 243.78 -30.49 0 0 -60.94 -30.48 0 0 -91.42 -30.45 0 0 -60.97 -30.49 0 0 -91.42 -30.48 0 0 -60.94 -30.45 0 0 -60.93 -30.49 0 0 -60.97 -30.48 0 0 -30.45 -30.45 0 0 -60.97 -30.49 0 0 -60.94 -30.48 0 0 -30.48 -30.45 0 0 -30.45 -30.49 0 0 -30.49 -30.48 0 0 -30.48 -30.45 0 0 -30.45 -30.49 0 0 -30.49 -30.48 0 0 -30.48 -30.45 0 0 -30.45 -60.98 0 0 -30.49 -60.93 0 0 -30.45 -91.42 0 0 -30.48 -182.84 0 0 30.48 -213.32 0 0 30.45 -60.93 0 0 30.49 -91.42 0 0 30.45 -121.91 0 0 30.48 -60.93 0 0 30.49 -91.42 0 0 30.45 -91.43 0 0 30.48 -60.93 0 0 30.49 -91.42 0 0 30.45 -91.42 0 0 30.48 -60.97 0 0 30.49 -91.42 0 0 30.45 -60.94 0 0 30.48 -91.42 0 0 30.49 -60.93 0 0 30.45 -60.97 0 0 30.48 -60.94 0 0 30.49 -60.93 0 0 30.45 -30.49 0 0 60.97 30.49 0 0 60.94 30.45 0 0 60.93 30.48 0 0 91.42 30.49 0 0 152.39 30.45 0 0 548.52 -60.94 0 0 -243.81 -30.48 0 0 -152.35 -30.45 0 0 -121.91 -30.49 0 0 -152.35 -30.48 0 0 -60.94 -30.45 0 0 -91.42 -30.49 0 0 -91.42 -30.49 0 0 -60.97 -30.44 0 0 -30.45 -30.49 0 0 -30.49 -60.94 0 0 -30.48 -60.97 0 0 -30.45 -60.93 0 0 -30.49 -60.94 0 0 -30.48 -60.93 0 0 -30.45 -91.42 0 0 -30.49 -60.97 0 0 -30.48 -60.94 0 0 -30.45 -60.93 0 0 -30.49 -91.41 0 0 -30.48 -60.97 0 0 -30.45 -60.94 0 0 -30.49 -91.42 0 0 -30.48 -91.42 0 0 -30.45 -91.42 0 0 -30.49 -396.17 0 0 30.49 -60.93 0 0 30.45 -60.94 0 0 30.48 -60.97 0 0 30.49 -60.93 0 0 30.45 -30.49 0 0 30.48 -60.93 0 0 30.49 -60.94 0 0 30.45 -60.97 0 0 30.48 -30.45 0 0 30.49 -30.49 0 0 30.45 -60.93 0 0 30.48 -91.42 0 0 -30.48 -30.49 0 0 -60.94 30.49 0 0 -30.48 60.93 0 0 -30.45 60.94 0 0 -30.49 60.97 0 0 -30.48 30.45 0 0 -30.45 60.97 0 0 -30.49 30.45 0 0 -30.48 30.49 0 0 -30.45 60.93 0 0 -30.49 60.97 0 0 -30.45 60.94 0 0 -30.48 30.48 0 0 -30.49 91.42 0 0 -30.45 121.87 0 0 -30.48 274.26 0 0 30.48 152.4 0 0 30.45 60.93 0 0 30.49 60.94 0 0 30.48 91.42 0 0 30.45 60.97 0 0 30.49 60.92 0 0 30.45 91.42 0 0 30.48 60.94 0 0 30.49 60.97 0 0 30.45 60.93 0 0 30.48 60.94 0 0 30.49 60.97 0 0 30.45 60.93 0 0 30.48 91.42 0 0 30.49 60.94 0 0 30.45 60.93 0 0 30.48 152.4 0 0 -30.48 60.93 0 0 -30.45 91.42 0 0 -30.49 60.94 0 0 -30.48 60.97 0 0 -30.45 91.42 0 0 -30.49 60.93 0 0 -30.48 60.94 0 0 -30.45 91.42 0 0 -30.49 91.42 0 0 -30.48 60.97 0 0 -30.45 91.42 0 0 -30.49 60.94 0 0 -30.45 60.93 0 0 -30.48 91.42 0 0 -30.49 91.42 0 0 -30.45 91.42 0 0 -30.48 121.91 0 0 -30.49 121.89 0 0 -30.45 213.29 0 0 30.45z"/>
 </g>
</svg>
