<?xml version="1.0" encoding="UTF-8"?>
<!DOCTYPE svg PUBLIC "-//W3C//DTD SVG 1.1//EN" "http://www.w3.org/Graphics/SVG/1.1/DTD/svg11.dtd">
<!-- Creator: CorelDRAW (Versión de evaluación) -->
<svg xmlns="http://www.w3.org/2000/svg" xml:space="preserve" width="739px" height="2458px" version="1.1" style="shape-rendering:geometricPrecision; text-rendering:geometricPrecision; image-rendering:optimizeQuality; fill-rule:evenodd; clip-rule:evenodd"
viewBox="0 0 739 2457.4"
 xmlns:xlink="http://www.w3.org/1999/xlink"
 xmlns:xodm="http://www.corel.com/coreldraw/odm/2003">
 <defs>
  <style type="text/css">
   <![CDATA[
    .str0 {stroke:#373435;stroke-width:10;stroke-miterlimit:22.9256}
    .fil0 {fill:#FEFEFE}
   ]]>
  </style>
 </defs>
 <g id="tooth-original-33">
  <metadata id="CorelCorpID_0Corel-Layer"/>
  <path id="crown" class="fil0 str0" d="M6.42 498.82c-22.12,-120.88 10.81,-235.23 81.37,-332.51 46.54,-64.15 170.13,-177.6 265.03,-165.39 45.28,5.84 95.41,56.75 130.98,84.01 51.43,39.39 81.35,54.44 138.52,78.95 133.01,57.02 115.58,186.65 115.44,313.16 -0.18,159.9 -119.43,567.82 -354.47,508.39 -110.68,-27.97 -185.99,-108.59 -254.05,-180.88 -108.58,-115.32 -94.85,-153 -122.82,-305.73z"/>
  <path id="root" class="fil0 str0" d="M625.73 901.9c7.94,54.39 -26.81,360.53 -38.74,431.04 -78.34,463.06 -129.8,484.14 -169.97,1026.13 -16.21,218.65 -279.5,109.63 -279.76,-706.41 -0.13,-434.7 9.04,-471.52 -68.45,-871.05 82.61,79.84 129.5,154.91 240.95,204.72 158.81,70.96 218.25,10.13 315.97,-84.43z"/>
 </g>
</svg>
