<?xml version="1.0" encoding="UTF-8"?>
<!DOCTYPE svg PUBLIC "-//W3C//DTD SVG 1.1//EN" "http://www.w3.org/Graphics/SVG/1.1/DTD/svg11.dtd">
<!-- Creator: CorelDRAW (Versión de evaluación) -->
<svg xmlns="http://www.w3.org/2000/svg" xml:space="preserve" width="518px" height="2062px" version="1.1" style="shape-rendering:geometricPrecision; text-rendering:geometricPrecision; image-rendering:optimizeQuality; fill-rule:evenodd; clip-rule:evenodd"
viewBox="0 0 518 2061.2"
 xmlns:xlink="http://www.w3.org/1999/xlink"
 xmlns:xodm="http://www.corel.com/coreldraw/odm/2003">
 <defs>
  <style type="text/css">
   <![CDATA[
    .fil2 {fill:#4B4B4D}
    .fil0 {fill:#F2E6C9}
    .fil1 {fill:#FAFAF7}
   ]]>
  </style>
 </defs>
 <g id="original">
  <metadata id="CorelCorpID_0Corel-Layer"/>
  <polygon id="root" class="fil0" points="168.22,26 164.62,26 164.62,29.6 161.02,29.6 161.02,36.8 157.42,36.8 157.42,43.99 153.82,43.99 153.82,58.38 150.23,58.38 150.23,79.96 146.63,79.96 146.63,180.68 150.23,180.68 150.23,231.05 153.82,231.05 153.82,295.8 157.42,295.8 157.42,468.46 153.82,468.46 153.82,493.64 150.23,493.64 150.23,540.41 146.63,540.41 146.63,576.38 143.03,576.38 143.03,612.35 139.44,612.35 139.44,648.32 135.84,648.32 135.84,677.1 132.24,677.1 132.24,698.68 128.65,698.68 128.65,731.06 125.05,731.06 125.05,763.43 121.45,763.43 121.45,799.41 117.86,799.41 117.86,828.18 114.26,828.18 114.26,882.14 110.66,882.14 110.66,892.93 107.06,892.93 107.06,961.28 103.46,961.28 103.46,1000.85 99.87,1000.85 99.87,1087.18 96.27,1087.18 96.27,1184.31 92.67,1184.31 92.67,1220.28 89.08,1220.28 89.08,1331.79 85.48,1331.79 85.48,1382.16 89.08,1382.16 89.08,1374.96 92.67,1374.96 92.67,1364.17 96.27,1364.17 96.27,1356.97 99.87,1356.97 99.87,1349.78 103.46,1349.78 103.46,1342.58 107.06,1342.58 107.06,1331.79 110.66,1331.79 110.66,1324.6 114.26,1324.6 114.26,1317.41 117.86,1317.41 117.86,1313.81 121.45,1313.81 121.45,1306.61 125.05,1306.61 125.05,1303.02 128.65,1303.02 128.65,1295.82 132.24,1295.82 132.24,1292.22 135.84,1292.22 135.84,1285.03 139.44,1285.03 139.44,1281.43 143.03,1281.43 143.03,1277.83 146.63,1277.83 146.63,1274.24 150.23,1274.24 150.23,1270.64 153.82,1270.64 153.82,1267.04 157.42,1267.04 157.42,1263.45 161.02,1263.45 161.02,1259.85 168.22,1259.85 168.22,1256.25 171.81,1256.25 171.81,1252.66 175.41,1252.66 175.41,1249.06 182.61,1249.06 182.61,1245.46 189.8,1245.46 189.8,1241.86 196.99,1241.86 196.99,1238.27 204.19,1238.27 204.19,1234.67 214.98,1234.67 214.98,1231.07 229.37,1231.07 229.37,1227.48 268.94,1227.48 268.94,1231.07 283.32,1231.07 283.32,1234.67 294.12,1234.67 294.12,1238.27 304.91,1238.27 304.91,1241.86 312.11,1241.86 312.11,1245.46 319.3,1245.46 319.3,1249.06 326.49,1249.06 326.49,1252.66 330.09,1252.66 330.09,1256.25 337.28,1256.25 337.28,1259.85 340.88,1259.85 340.88,1263.45 344.48,1263.45 344.48,1267.04 348.08,1267.04 348.08,1270.64 351.67,1270.64 351.67,1274.24 355.27,1274.24 355.27,1277.83 358.87,1277.83 358.87,1281.43 362.46,1281.43 362.46,1285.03 366.06,1285.03 366.06,1288.63 369.66,1288.63 369.66,1292.22 373.26,1292.22 373.26,1295.82 376.86,1295.82 376.86,1303.02 380.45,1303.02 380.45,1310.21 384.05,1310.21 384.05,1313.81 387.64,1313.81 387.64,1317.41 391.24,1317.41 391.24,1324.6 394.84,1324.6 394.84,1328.2 398.43,1328.2 398.43,1335.39 402.03,1335.39 402.03,1342.58 405.63,1342.58 405.63,1349.78 409.23,1349.78 409.23,1356.97 412.82,1356.97 412.82,1364.17 416.42,1364.17 416.42,1367.77 420.02,1367.77 420.02,1374.96 423.62,1374.96 423.62,1385.75 427.22,1385.75 427.22,1392.95 430.81,1392.95 430.81,1403.74 434.41,1403.74 434.41,1414.53 438.01,1414.53 438.01,1421.72 441.6,1421.72 441.6,1428.92 445.2,1428.92 445.2,1403.74 441.6,1403.74 441.6,1353.38 438.01,1353.38 438.01,1281.43 434.41,1281.43 434.41,1231.07 430.81,1231.07 430.81,1187.91 427.22,1187.91 427.22,1133.95 423.62,1133.95 423.62,1054.81 420.02,1054.81 420.02,979.27 416.42,979.27 416.42,950.49 412.82,950.49 412.82,903.72 409.23,903.72 409.23,846.17 405.63,846.17 405.63,806.6 402.03,806.6 402.03,759.84 398.43,759.84 398.43,731.06 394.84,731.06 394.84,698.68 391.24,698.68 391.24,677.1 387.64,677.1 387.64,655.52 384.05,655.52 384.05,637.53 380.45,637.53 380.45,608.75 376.86,608.75 376.86,590.77 373.26,590.77 373.26,576.38 369.66,576.38 369.66,558.39 366.06,558.39 366.06,540.41 362.46,540.41 362.46,526.02 358.87,526.02 358.87,508.03 355.27,508.03 355.27,490.05 351.67,490.05 351.67,475.66 348.08,475.66 348.08,457.67 344.48,457.67 344.48,439.68 340.88,439.68 340.88,425.3 337.28,425.3 337.28,414.5 333.69,414.5 333.69,400.11 330.09,400.11 330.09,382.13 326.49,382.13 326.49,371.34 322.9,371.34 322.9,353.35 319.3,353.35 319.3,346.16 315.7,346.16 315.7,331.77 312.11,331.77 312.11,313.78 308.51,313.78 308.51,302.99 304.91,302.99 304.91,288.6 301.31,288.6 301.31,277.81 297.72,277.81 297.72,267.02 294.12,267.02 294.12,256.22 290.52,256.22 290.52,241.84 286.92,241.84 286.92,231.05 283.32,231.05 283.32,216.66 279.73,216.66 279.73,209.46 276.13,209.46 276.13,195.07 272.53,195.07 272.53,184.28 268.94,184.28 268.94,173.49 265.34,173.49 265.34,162.7 261.74,162.7 261.74,155.5 258.15,155.5 258.15,144.71 254.55,144.71 254.55,133.92 250.95,133.92 250.95,126.72 247.35,126.72 247.35,115.93 243.76,115.93 243.76,108.74 240.16,108.74 240.16,101.55 236.56,101.55 236.56,94.35 232.97,94.35 232.97,87.16 229.37,87.16 229.37,79.96 225.77,79.96 225.77,72.77 222.17,72.77 222.17,65.57 218.57,65.57 218.57,61.97 214.98,61.97 214.98,54.78 211.38,54.78 211.38,51.18 207.78,51.18 207.78,43.99 204.19,43.99 204.19,40.39 200.59,40.39 200.59,36.8 196.99,36.8 196.99,33.2 193.4,33.2 193.4,29.6 186.2,29.6 186.2,26 182.61,26 182.61,22.41 168.22,22.41 "/>
  <polygon id="crown" class="fil1" points="236.56,1245.46 222.17,1245.46 222.17,1249.06 211.38,1249.06 211.38,1252.66 204.19,1252.66 204.19,1256.25 196.99,1256.25 196.99,1259.85 193.4,1259.85 193.4,1263.45 186.2,1263.45 186.2,1267.04 182.61,1267.04 182.61,1270.64 175.41,1270.64 175.41,1274.24 171.81,1274.24 171.81,1277.83 168.22,1277.83 168.22,1281.43 164.62,1281.43 164.62,1285.03 161.02,1285.03 161.02,1292.22 157.42,1292.22 157.42,1295.82 153.82,1295.82 153.82,1299.42 150.23,1299.42 150.23,1303.02 146.63,1303.02 146.63,1310.21 143.03,1310.21 143.03,1313.81 139.44,1313.81 139.44,1321 135.84,1321 135.84,1328.2 132.24,1328.2 132.24,1331.79 128.65,1331.79 128.65,1338.99 125.05,1338.99 125.05,1346.18 121.45,1346.18 121.45,1353.38 117.86,1353.38 117.86,1364.17 114.26,1364.17 114.26,1371.37 110.66,1371.37 110.66,1382.16 107.06,1382.16 107.06,1392.95 103.46,1392.95 103.46,1400.14 99.87,1400.14 99.87,1410.93 96.27,1410.93 96.27,1425.32 92.67,1425.32 92.67,1432.52 89.08,1432.52 89.08,1443.31 85.48,1443.31 85.48,1454.1 81.88,1454.1 81.88,1472.08 78.28,1472.08 78.28,1490.07 74.69,1490.07 74.69,1504.46 71.09,1504.46 71.09,1518.85 67.49,1518.85 67.49,1533.24 63.9,1533.24 63.9,1547.63 60.3,1547.63 60.3,1554.82 56.7,1554.82 56.7,1569.21 53.11,1569.21 53.11,1587.2 49.51,1587.2 49.51,1597.99 45.91,1597.99 45.91,1612.38 42.31,1612.38 42.31,1623.17 38.72,1623.17 38.72,1637.56 35.12,1637.56 35.12,1655.54 31.52,1655.54 31.52,1666.33 27.92,1666.33 27.92,1684.32 24.32,1684.32 24.32,1705.91 20.73,1705.91 20.73,1785.04 24.32,1785.04 24.32,1806.63 27.92,1806.63 27.92,1824.62 31.52,1824.62 31.52,1835.41 35.12,1835.41 35.12,1842.6 38.72,1842.6 38.72,1853.39 42.31,1853.39 42.31,1860.58 45.91,1860.58 45.91,1867.78 49.51,1867.78 49.51,1874.97 53.11,1874.97 53.11,1882.17 56.7,1882.17 56.7,1889.36 60.3,1889.36 60.3,1892.96 63.9,1892.96 63.9,1896.56 67.49,1896.56 67.49,1903.75 71.09,1903.75 71.09,1907.35 74.69,1907.35 74.69,1910.94 78.28,1910.94 78.28,1914.54 81.88,1914.54 81.88,1918.14 85.48,1918.14 85.48,1921.74 89.08,1921.74 89.08,1925.33 92.67,1925.33 92.67,1928.93 96.27,1928.93 96.27,1932.53 99.87,1932.53 99.87,1936.13 107.06,1936.13 107.06,1939.73 110.66,1939.73 110.66,1943.32 114.26,1943.32 114.26,1946.92 117.86,1946.92 117.86,1950.52 121.45,1950.52 121.45,1954.11 128.65,1954.11 128.65,1957.71 132.24,1957.71 132.24,1961.31 135.84,1961.31 135.84,1964.9 143.03,1964.9 143.03,1968.5 146.63,1968.5 146.63,1972.1 150.23,1972.1 150.23,1975.69 157.42,1975.69 157.42,1979.29 161.02,1979.29 161.02,1982.89 164.62,1982.89 164.62,1986.49 171.81,1986.49 171.81,1990.08 175.41,1990.08 175.41,1993.68 179.01,1993.68 179.01,1997.28 186.2,1997.28 186.2,2000.88 189.8,2000.88 189.8,2004.48 193.4,2004.48 193.4,2008.07 200.59,2008.07 200.59,2011.67 207.78,2011.67 207.78,2015.27 211.38,2015.27 211.38,2018.86 218.57,2018.86 218.57,2022.46 222.17,2022.46 222.17,2026.06 229.37,2026.06 229.37,2029.65 236.56,2029.65 236.56,2033.25 243.76,2033.25 243.76,2036.85 276.13,2036.85 276.13,2033.25 286.92,2033.25 286.92,2029.65 294.12,2029.65 294.12,2026.06 301.31,2026.06 301.31,2022.46 304.91,2022.46 304.91,2018.86 308.51,2018.86 308.51,2015.27 315.7,2015.27 315.7,2011.67 319.3,2011.67 319.3,2008.07 322.9,2008.07 322.9,2004.48 330.09,2004.48 330.09,2000.88 333.69,2000.88 333.69,1997.28 337.28,1997.28 337.28,1993.68 344.48,1993.68 344.48,1990.08 348.08,1990.08 348.08,1986.49 351.67,1986.49 351.67,1982.89 355.27,1982.89 355.27,1979.29 362.46,1979.29 362.46,1975.69 366.06,1975.69 366.06,1972.1 373.26,1972.1 373.26,1968.5 376.86,1968.5 376.86,1964.9 380.45,1964.9 380.45,1961.31 387.64,1961.31 387.64,1957.71 391.24,1957.71 391.24,1954.11 398.43,1954.11 398.43,1950.52 402.03,1950.52 402.03,1946.92 405.63,1946.92 405.63,1943.32 412.82,1943.32 412.82,1939.73 416.42,1939.73 416.42,1936.13 420.02,1936.13 420.02,1932.53 423.62,1932.53 423.62,1928.93 427.22,1928.93 427.22,1925.33 434.41,1925.33 434.41,1921.74 438.01,1921.74 438.01,1918.14 441.6,1918.14 441.6,1914.54 445.2,1914.54 445.2,1910.94 448.8,1910.94 448.8,1907.35 452.39,1907.35 452.39,1903.75 455.99,1903.75 455.99,1896.56 459.59,1896.56 459.59,1892.96 463.18,1892.96 463.18,1889.36 466.78,1889.36 466.78,1882.17 470.38,1882.17 470.38,1874.97 473.98,1874.97 473.98,1867.78 477.57,1867.78 477.57,1860.58 481.17,1860.58 481.17,1853.39 484.77,1853.39 484.77,1846.2 488.37,1846.2 488.37,1824.62 491.97,1824.62 491.97,1716.7 488.37,1716.7 488.37,1691.52 484.77,1691.52 484.77,1666.33 481.17,1666.33 481.17,1651.95 477.57,1651.95 477.57,1623.17 473.98,1623.17 473.98,1601.58 470.38,1601.58 470.38,1583.6 466.78,1583.6 466.78,1572.81 463.18,1572.81 463.18,1547.63 459.59,1547.63 459.59,1533.24 455.99,1533.24 455.99,1518.85 452.39,1518.85 452.39,1504.46 448.8,1504.46 448.8,1490.07 445.2,1490.07 445.2,1482.88 441.6,1482.88 441.6,1472.08 438.01,1472.08 438.01,1457.7 434.41,1457.7 434.41,1450.5 430.81,1450.5 430.81,1439.71 427.22,1439.71 427.22,1432.52 423.62,1432.52 423.62,1421.72 420.02,1421.72 420.02,1414.53 416.42,1414.53 416.42,1403.74 412.82,1403.74 412.82,1396.54 409.23,1396.54 409.23,1389.35 405.63,1389.35 405.63,1378.56 402.03,1378.56 402.03,1371.37 398.43,1371.37 398.43,1367.77 394.84,1367.77 394.84,1360.57 391.24,1360.57 391.24,1353.38 387.64,1353.38 387.64,1346.18 384.05,1346.18 384.05,1338.99 380.45,1338.99 380.45,1331.79 376.86,1331.79 376.86,1328.2 373.26,1328.2 373.26,1324.6 369.66,1324.6 369.66,1317.41 366.06,1317.41 366.06,1313.81 362.46,1313.81 362.46,1306.61 358.87,1306.61 358.87,1303.02 355.27,1303.02 355.27,1299.42 351.67,1299.42 351.67,1292.22 348.08,1292.22 348.08,1288.63 344.48,1288.63 344.48,1285.03 340.88,1285.03 340.88,1281.43 337.28,1281.43 337.28,1277.83 333.69,1277.83 333.69,1274.24 326.49,1274.24 326.49,1270.64 322.9,1270.64 322.9,1267.04 315.7,1267.04 315.7,1263.45 312.11,1263.45 312.11,1259.85 304.91,1259.85 304.91,1256.25 297.72,1256.25 297.72,1252.66 290.52,1252.66 290.52,1249.06 283.32,1249.06 283.32,1245.46 272.53,1245.46 272.53,1241.86 236.56,1241.86 "/>
  <path id="outline" class="fil2" d="M20.73 1705.91l3.59 0 0 -21.59 3.6 0 0 -17.99 3.6 0 0 -10.79 3.6 0 0 -17.98 3.6 0 0 -14.39 3.59 0 0 -10.79 3.6 0 0 -14.39 3.6 0 0 -10.79 3.6 0 0 -17.99 3.59 0 0 -14.39 3.6 0 0 -7.19 3.6 0 0 -14.39 3.59 0 0 -14.39 3.6 0 0 -14.39 3.6 0 0 -14.39 3.59 0 0 -17.99 3.6 0 0 -17.98 3.6 0 0 -10.79 3.6 0 0 -10.79 3.59 0 0 -7.2 3.6 0 0 -14.39 3.6 0 0 -10.79 3.59 0 0 -7.19 3.6 0 0 -10.79 3.6 0 0 -10.79 3.6 0 0 -7.2 3.6 0 0 -10.79 3.59 0 0 -7.2 3.6 0 0 -7.19 3.6 0 0 -7.2 3.59 0 0 -3.59 3.6 0 0 -7.2 3.6 0 0 -7.19 3.59 0 0 -3.6 3.6 0 0 -7.19 3.6 0 0 -3.6 3.59 0 0 -3.6 3.6 0 0 -3.6 3.6 0 0 -7.19 3.6 0 0 -3.6 3.6 0 0 -3.6 3.59 0 0 -3.59 3.6 0 0 -3.6 7.2 0 0 -3.6 3.59 0 0 -3.59 7.2 0 0 -3.6 3.59 0 0 -3.6 7.2 0 0 -3.59 7.19 0 0 -3.6 10.79 0 0 -3.6 14.39 0 0 -3.6 35.97 0 0 3.6 10.79 0 0 3.6 7.2 0 0 3.6 7.2 0 0 3.59 7.19 0 0 3.6 7.2 0 0 3.6 3.59 0 0 3.59 7.2 0 0 3.6 3.59 0 0 3.6 7.2 0 0 3.59 3.59 0 0 3.6 3.6 0 0 3.6 3.6 0 0 3.6 3.6 0 0 3.59 3.59 0 0 7.2 3.6 0 0 3.6 3.6 0 0 3.59 3.59 0 0 7.2 3.6 0 0 3.6 3.6 0 0 7.19 3.6 0 0 3.6 3.6 0 0 3.59 3.59 0 0 7.2 3.6 0 0 7.19 3.59 0 0 7.2 3.6 0 0 7.19 3.6 0 0 7.2 3.59 0 0 3.6 3.6 0 0 7.19 3.6 0 0 10.79 3.6 0 0 7.19 3.59 0 0 7.2 3.6 0 0 10.79 3.6 0 0 7.19 3.6 0 0 10.8 3.6 0 0 7.19 3.59 0 0 10.79 3.6 0 0 7.2 3.6 0 0 14.38 3.59 0 0 10.8 3.6 0 0 7.19 3.6 0 0 14.39 3.59 0 0 14.39 3.6 0 0 14.39 3.6 0 0 14.39 3.59 0 0 25.18 3.6 0 0 10.79 3.6 0 0 17.98 3.6 0 0 21.59 3.59 0 0 28.78 3.6 0 0 14.38 3.6 0 0 25.19 3.6 0 0 25.18 3.6 0 0 107.92 -3.6 0 0 21.58 -3.6 0 0 7.19 -3.6 0 0 7.19 -3.6 0 0 7.2 -3.59 0 0 7.19 -3.6 0 0 7.2 -3.6 0 0 7.19 -3.6 0 0 3.6 -3.59 0 0 3.6 -3.6 0 0 7.19 -3.6 0 0 3.6 -3.59 0 0 3.59 -3.6 0 0 3.6 -3.6 0 0 3.6 -3.59 0 0 3.6 -3.6 0 0 3.59 -7.19 0 0 3.6 -3.6 0 0 3.6 -3.6 0 0 3.6 -3.6 0 0 3.6 -3.6 0 0 3.59 -7.19 0 0 3.6 -3.6 0 0 3.6 -3.6 0 0 3.59 -7.19 0 0 3.6 -3.6 0 0 3.6 -7.19 0 0 3.59 -3.59 0 0 3.6 -3.6 0 0 3.6 -7.2 0 0 3.59 -3.6 0 0 3.6 -7.19 0 0 3.6 -3.6 0 0 3.6 -3.59 0 0 3.59 -3.6 0 0 3.6 -7.2 0 0 3.6 -3.59 0 0 3.6 -3.6 0 0 3.6 -7.19 0 0 3.59 -3.6 0 0 3.6 -3.6 0 0 3.6 -7.19 0 0 3.59 -3.6 0 0 3.6 -3.6 0 0 3.6 -7.19 0 0 3.59 -7.2 0 0 3.6 -10.79 0 0 3.6 -32.37 0 0 -3.6 -7.2 0 0 -3.6 -7.19 0 0 -3.59 -7.2 0 0 -3.6 -3.6 0 0 -3.6 -7.19 0 0 -3.59 -3.6 0 0 -3.6 -7.19 0 0 -3.6 -7.19 0 0 -3.59 -3.6 0 0 -3.6 -3.6 0 0 -3.6 -7.19 0 0 -3.6 -3.6 0 0 -3.6 -3.6 0 0 -3.59 -7.19 0 0 -3.6 -3.6 0 0 -3.6 -3.6 0 0 -3.6 -7.19 0 0 -3.59 -3.6 0 0 -3.6 -3.6 0 0 -3.6 -7.19 0 0 -3.59 -3.6 0 0 -3.6 -3.59 0 0 -3.6 -7.2 0 0 -3.59 -3.59 0 0 -3.6 -3.6 0 0 -3.6 -3.6 0 0 -3.59 -3.6 0 0 -3.6 -7.19 0 0 -3.6 -3.6 0 0 -3.6 -3.6 0 0 -3.6 -3.59 0 0 -3.59 -3.6 0 0 -3.6 -3.6 0 0 -3.6 -3.6 0 0 -3.6 -3.59 0 0 -3.59 -3.6 0 0 -3.6 -3.6 0 0 -7.19 -3.59 0 0 -3.6 -3.6 0 0 -3.6 -3.6 0 0 -7.19 -3.59 0 0 -7.2 -3.6 0 0 -7.19 -3.6 0 0 -7.2 -3.6 0 0 -7.19 -3.59 0 0 -10.79 -3.6 0 0 -7.19 -3.6 0 0 -10.79 -3.6 0 0 -17.99 -3.6 0 0 -21.59 -3.59 0 0 -79.13zm125.9 -1625.95l3.6 0 0 -21.58 3.59 0 0 -14.39 3.6 0 0 -7.19 3.6 0 0 -7.2 3.6 0 0 -3.6 3.6 0 0 -3.59 14.39 0 0 3.59 3.59 0 0 3.6 7.2 0 0 3.6 3.59 0 0 3.6 3.6 0 0 3.59 3.6 0 0 3.6 3.59 0 0 7.19 3.6 0 0 3.6 3.6 0 0 7.19 3.59 0 0 3.6 3.6 0 0 7.2 3.6 0 0 7.19 3.6 0 0 7.2 3.6 0 0 7.19 3.59 0 0 7.2 3.6 0 0 7.19 3.6 0 0 7.19 3.59 0 0 10.79 3.6 0 0 7.2 3.6 0 0 10.79 3.6 0 0 10.79 3.59 0 0 7.2 3.6 0 0 10.79 3.6 0 0 10.79 3.59 0 0 10.79 3.6 0 0 14.39 3.6 0 0 7.2 3.59 0 0 14.39 3.6 0 0 10.79 3.6 0 0 14.38 3.6 0 0 10.8 3.6 0 0 10.79 3.59 0 0 10.79 3.6 0 0 14.39 3.6 0 0 10.79 3.6 0 0 17.99 3.59 0 0 14.39 3.6 0 0 7.19 3.6 0 0 17.99 3.59 0 0 10.79 3.6 0 0 17.98 3.6 0 0 14.39 3.59 0 0 10.8 3.6 0 0 14.38 3.6 0 0 17.99 3.6 0 0 17.99 3.59 0 0 14.39 3.6 0 0 17.98 3.6 0 0 17.99 3.59 0 0 14.39 3.6 0 0 17.98 3.6 0 0 17.99 3.6 0 0 14.39 3.6 0 0 17.98 3.59 0 0 28.78 3.6 0 0 17.99 3.59 0 0 21.58 3.6 0 0 21.58 3.6 0 0 32.38 3.59 0 0 28.78 3.6 0 0 46.76 3.6 0 0 39.57 3.6 0 0 57.55 3.59 0 0 46.77 3.6 0 0 28.78 3.6 0 0 75.54 3.6 0 0 79.14 3.6 0 0 53.96 3.59 0 0 43.16 3.6 0 0 50.36 3.6 0 0 71.95 3.59 0 0 50.36 3.6 0 0 25.18 -3.6 0 0 -7.2 -3.59 0 0 -7.19 -3.6 0 0 -10.79 -3.6 0 0 -10.79 -3.59 0 0 -7.2 -3.6 0 0 -10.79 -3.6 0 0 -7.19 -3.6 0 0 -3.6 -3.6 0 0 -7.2 -3.59 0 0 -7.19 -3.6 0 0 -7.2 -3.6 0 0 -7.19 -3.6 0 0 -7.19 -3.59 0 0 -3.6 -3.6 0 0 -7.19 -3.6 0 0 -3.6 -3.59 0 0 -3.6 -3.6 0 0 -7.19 -3.59 0 0 -7.2 -3.6 0 0 -3.6 -3.6 0 0 -3.59 -3.6 0 0 -3.6 -3.6 0 0 -3.6 -3.59 0 0 -3.6 -3.6 0 0 -3.59 -3.6 0 0 -3.6 -3.59 0 0 -3.6 -3.6 0 0 -3.59 -3.6 0 0 -3.6 -3.6 0 0 -3.6 -7.19 0 0 -3.59 -3.6 0 0 -3.6 -7.19 0 0 -3.6 -7.19 0 0 -3.6 -7.2 0 0 -3.59 -10.79 0 0 -3.6 -10.8 0 0 -3.6 -14.38 0 0 -3.59 -39.57 0 0 3.59 -14.39 0 0 3.6 -10.79 0 0 3.6 -7.2 0 0 3.59 -7.19 0 0 3.6 -7.19 0 0 3.6 -7.2 0 0 3.6 -3.6 0 0 3.59 -3.59 0 0 3.6 -7.2 0 0 3.6 -3.6 0 0 3.59 -3.6 0 0 3.6 -3.59 0 0 3.6 -3.6 0 0 3.59 -3.6 0 0 3.6 -3.59 0 0 3.6 -3.6 0 0 7.19 -3.6 0 0 3.6 -3.59 0 0 7.2 -3.6 0 0 3.59 -3.6 0 0 7.2 -3.59 0 0 3.6 -3.6 0 0 7.19 -3.6 0 0 7.19 -3.6 0 0 10.79 -3.6 0 0 7.2 -3.59 0 0 7.19 -3.6 0 0 7.2 -3.6 0 0 10.79 -3.59 0 0 7.2 -3.6 0 0 -50.37 3.6 0 0 -111.51 3.59 0 0 -35.97 3.6 0 0 -97.13 3.6 0 0 -86.33 3.59 0 0 -39.57 3.6 0 0 -68.35 3.6 0 0 -10.79 3.6 0 0 -53.96 3.6 0 0 -28.77 3.59 0 0 -35.98 3.6 0 0 -32.37 3.6 0 0 -32.38 3.59 0 0 -21.58 3.6 0 0 -28.78 3.6 0 0 -35.97 3.59 0 0 -35.97 3.6 0 0 -35.97 3.6 0 0 -46.77 3.59 0 0 -25.18 3.6 0 0 -172.66 -3.6 0 0 -64.75 -3.59 0 0 -50.37 -3.6 0 0 -100.72zm14.39 -75.54l-7.2 0 0 3.6 -3.59 0 0 3.59 -3.6 0 0 3.6 -3.6 0 0 7.2 -3.59 0 0 7.19 -3.6 0 0 7.2 -3.6 0 0 10.79 -3.59 0 0 17.98 -3.6 0 0 143.89 3.6 0 0 25.18 3.59 0 0 233.82 -3.59 0 0 50.36 -3.6 0 0 50.36 -3.6 0 0 32.38 -3.59 0 0 28.78 -3.6 0 0 39.57 -3.6 0 0 28.77 -3.6 0 0 35.98 -3.6 0 0 17.98 -3.59 0 0 43.17 -3.6 0 0 21.58 -3.6 0 0 32.38 -3.59 0 0 50.36 -3.6 0 0 35.97 -3.6 0 0 57.56 -3.6 0 0 57.55 -3.59 0 0 53.96 -3.6 0 0 122.31 -3.6 0 0 75.54 -3.59 0 0 75.54 -3.6 0 0 68.35 -3.6 0 0 28.77 -3.59 0 0 14.39 -3.6 0 0 17.99 -3.6 0 0 10.79 -3.6 0 0 14.39 -3.59 0 0 17.98 -3.6 0 0 14.4 -3.6 0 0 3.59 -3.6 0 0 17.99 -3.6 0 0 10.79 -3.59 0 0 17.98 -3.6 0 0 14.4 -3.6 0 0 14.38 -3.59 0 0 14.39 -3.6 0 0 17.99 -3.6 0 0 17.98 -3.59 0 0 97.13 3.59 0 0 17.98 3.6 0 0 21.59 3.6 0 0 7.19 3.59 0 0 10.79 3.6 0 0 7.2 3.6 0 0 10.79 3.59 0 0 7.19 3.6 0 0 7.2 3.6 0 0 7.19 3.6 0 0 3.6 3.6 0 0 7.19 3.59 0 0 7.2 3.6 0 0 3.59 3.6 0 0 3.6 3.6 0 0 3.6 3.59 0 0 7.19 3.6 0 0 3.6 3.6 0 0 3.6 3.59 0 0 3.6 3.6 0 0 3.6 3.6 0 0 3.59 3.59 0 0 3.6 3.6 0 0 3.6 3.6 0 0 3.59 7.19 0 0 3.6 3.6 0 0 3.6 3.6 0 0 3.59 3.59 0 0 3.6 3.6 0 0 3.6 7.2 0 0 3.59 3.6 0 0 3.6 7.19 0 0 3.6 3.6 0 0 3.6 3.59 0 0 3.59 3.6 0 0 3.6 7.19 0 0 3.6 3.6 0 0 3.6 7.19 0 0 3.6 3.6 0 0 3.59 3.6 0 0 3.6 7.2 0 0 3.6 3.59 0 0 3.59 3.6 0 0 3.6 7.2 0 0 3.6 3.59 0 0 3.59 3.6 0 0 3.6 7.19 0 0 3.6 3.6 0 0 3.59 7.19 0 0 3.6 7.2 0 0 3.6 7.19 0 0 3.6 7.2 0 0 3.6 7.19 0 0 3.59 14.39 0 0 3.6 21.58 0 0 -3.6 14.39 0 0 -3.59 7.2 0 0 -3.6 7.19 0 0 -3.6 7.2 0 0 -3.6 3.6 0 0 -3.6 7.19 0 0 -3.59 3.6 0 0 -3.6 3.59 0 0 -3.6 7.2 0 0 -3.59 3.59 0 0 -3.6 7.2 0 0 -3.6 3.6 0 0 -3.59 3.59 0 0 -3.6 3.6 0 0 -3.6 7.19 0 0 -3.59 3.6 0 0 -3.6 3.6 0 0 -3.6 7.2 0 0 -3.6 3.59 0 0 -3.6 7.19 0 0 -3.59 3.6 0 0 -3.6 3.6 0 0 -3.6 3.59 0 0 -3.6 7.2 0 0 -3.59 3.6 0 0 -3.6 7.19 0 0 -3.6 3.6 0 0 -3.59 3.6 0 0 -3.6 3.6 0 0 -3.6 7.19 0 0 -3.59 3.6 0 0 -3.6 3.59 0 0 -3.6 3.6 0 0 -3.59 3.6 0 0 -3.6 7.19 0 0 -3.6 3.6 0 0 -3.6 3.59 0 0 -3.6 3.6 0 0 -3.59 3.6 0 0 -7.2 3.6 0 0 -3.6 3.59 0 0 -3.59 3.6 0 0 -3.6 3.6 0 0 -7.19 3.6 0 0 -3.6 3.6 0 0 -7.19 3.59 0 0 -7.2 3.6 0 0 -7.19 3.6 0 0 -10.8 3.59 0 0 -10.79 3.6 0 0 -17.98 3.6 0 0 -10.79 3.59 0 0 -79.14 -3.59 0 0 -35.97 -3.6 0 0 -28.78 -3.6 0 0 -21.59 -3.59 0 0 -17.98 -3.6 0 0 -25.18 -3.6 0 0 -14.39 -3.59 0 0 -21.58 -3.6 0 0 -21.59 -3.6 0 0 -21.58 -3.6 0 0 -21.58 -3.6 0 0 -17.99 -3.59 0 0 -43.17 -3.6 0 0 -28.78 -3.6 0 0 -53.95 -3.6 0 0 -43.17 -3.59 0 0 -50.36 -3.6 0 0 -61.16 -3.6 0 0 -46.76 -3.59 0 0 -57.55 -3.6 0 0 -57.56 -3.6 0 0 -86.33 -3.59 0 0 -28.78 -3.6 0 0 -57.55 -3.6 0 0 -43.17 -3.59 0 0 -43.17 -3.6 0 0 -28.78 -3.6 0 0 -32.37 -3.6 0 0 -25.18 -3.6 0 0 -32.38 -3.59 0 0 -25.18 -3.6 0 0 -21.58 -3.6 0 0 -21.58 -3.6 0 0 -21.59 -3.59 0 0 -14.39 -3.6 0 0 -21.58 -3.6 0 0 -14.39 -3.59 0 0 -21.58 -3.6 0 0 -10.79 -3.59 0 0 -14.39 -3.6 0 0 -25.18 -3.6 0 0 -14.39 -3.6 0 0 -14.39 -3.6 0 0 -14.39 -3.59 0 0 -10.79 -3.6 0 0 -17.99 -3.6 0 0 -14.39 -3.59 0 0 -14.38 -3.6 0 0 -7.2 -3.6 0 0 -14.39 -3.6 0 0 -14.39 -3.59 0 0 -14.39 -3.6 0 0 -10.79 -3.6 0 0 -17.98 -3.59 0 0 -10.8 -3.6 0 0 -10.79 -3.6 0 0 -14.39 -3.59 0 0 -14.38 -3.6 0 0 -10.8 -3.6 0 0 -10.79 -3.6 0 0 -10.79 -3.59 0 0 -10.79 -3.6 0 0 -7.2 -3.6 0 0 -14.38 -3.6 0 0 -10.8 -3.6 0 0 -10.79 -3.59 0 0 -7.19 -3.6 0 0 -10.8 -3.6 0 0 -10.79 -3.59 0 0 -7.19 -3.6 0 0 -7.19 -3.6 0 0 -10.8 -3.59 0 0 -7.19 -3.6 0 0 -7.2 -3.6 0 0 -7.19 -3.6 0 0 -7.2 -3.59 0 0 -3.59 -3.6 0 0 -7.2 -3.6 0 0 -3.59 -3.59 0 0 -7.2 -3.6 0 0 -3.59 -3.6 0 0 -7.2 -3.6 0 0 -3.6 -3.6 0 0 -3.59 -3.59 0 0 -3.6 -3.6 0 0 -3.6 -3.6 0 0 -3.6 -7.19 0 0 -3.59 -3.6 0 0 -3.6 -10.79 0 0 -3.6 -25.18 0 0 3.6z"/>
 </g>
</svg>
