<?xml version="1.0" encoding="UTF-8"?>
<!DOCTYPE svg PUBLIC "-//W3C//DTD SVG 1.1//EN" "http://www.w3.org/Graphics/SVG/1.1/DTD/svg11.dtd">
<!-- Creator: CorelDRAW (Versión de evaluación) -->
<svg xmlns="http://www.w3.org/2000/svg" xml:space="preserve" width="45.4652mm" height="173.699mm" version="1.1" style="shape-rendering:geometricPrecision; text-rendering:geometricPrecision; image-rendering:optimizeQuality; fill-rule:evenodd; clip-rule:evenodd"
viewBox="0 0 4546.52 17369.86"
 xmlns:xlink="http://www.w3.org/1999/xlink"
 xmlns:xodm="http://www.corel.com/coreldraw/odm/2003">
 <defs>
  <style type="text/css">
   <![CDATA[
    .fil2 {fill:#0B0B0B}
    .fil1 {fill:#F2E6C9}
    .fil0 {fill:#FAFAF7}
   ]]>
  </style>
 </defs>
 <g id="original">
  <metadata id="CorelCorpID_0Corel-Layer"/>
  <polygon id="crown" class="fil0" points="2161.97,252.11 2101,252.11 2101,282.59 2040.07,282.59 2040.07,313.08 1979.13,313.08 1979.13,343.53 1948.64,343.53 1948.64,374.01 1887.71,374.01 1887.71,404.5 1857.22,404.5 1857.22,434.95 1796.29,434.95 1796.29,465.43 1765.8,465.43 1765.8,495.92 1704.87,495.92 1704.87,526.37 1674.38,526.37 1674.38,556.85 1613.45,556.85 1613.45,587.34 1582.96,587.34 1582.96,617.79 1552.48,617.79 1552.48,648.27 1491.54,648.27 1491.54,678.76 1461.06,678.76 1461.06,709.21 1400.12,709.21 1400.12,739.69 1369.64,739.69 1369.64,770.18 1308.7,770.18 1308.7,800.63 1278.22,800.63 1278.22,831.11 1217.28,831.11 1217.28,861.6 1156.35,861.6 1156.35,892.05 1095.38,892.05 1095.38,922.54 1064.93,922.54 1064.93,953.02 1003.95,953.02 1003.95,983.47 912.53,983.47 912.53,1013.96 882.08,1013.96 882.08,1044.44 821.11,1044.44 821.11,1074.89 760.18,1074.89 760.18,1105.38 729.69,1105.38 729.69,1135.86 668.76,1135.86 668.76,1166.31 638.27,1166.31 638.27,1196.8 607.82,1196.8 607.82,1227.28 577.34,1227.28 577.34,1257.73 546.85,1257.73 546.85,1288.22 516.4,1288.22 516.4,1318.67 485.92,1318.67 485.92,1349.15 455.43,1349.15 455.43,1379.64 424.98,1379.64 424.98,1410.09 394.5,1410.09 394.5,1471.06 364.01,1471.06 364.01,1531.99 333.56,1531.99 333.56,1562.48 303.08,1562.48 303.08,1623.41 272.59,1623.41 272.59,1714.83 242.14,1714.83 242.14,1806.25 211.66,1806.25 211.66,2019.58 181.17,2019.58 181.17,2385.26 211.66,2385.26 211.66,2689.97 242.14,2689.97 242.14,2811.88 272.59,2811.88 272.59,2964.24 303.08,2964.24 303.08,3086.14 333.56,3086.14 333.56,3177.56 364.01,3177.56 364.01,3299.47 394.5,3299.47 394.5,3421.34 424.98,3421.34 424.98,3482.31 455.43,3482.31 455.43,3604.18 485.92,3604.18 485.92,3695.6 516.4,3695.6 516.4,3817.5 546.85,3817.5 546.85,3969.86 577.34,3969.86 577.34,4030.83 607.82,4030.83 607.82,4122.25 638.27,4122.25 638.27,4244.12 668.76,4244.12 668.76,4366.03 699.24,4366.03 699.24,4457.45 729.69,4457.45 729.69,4518.38 760.18,4518.38 760.18,4609.8 790.66,4609.8 790.66,4670.77 821.11,4670.77 821.11,4731.71 851.6,4731.71 851.6,4792.64 882.08,4792.64 882.08,4853.62 912.53,4853.62 912.53,4884.06 943.02,4884.06 943.02,4945.04 973.51,4945.04 973.51,4975.49 1003.95,4975.49 1003.95,5036.46 1034.44,5036.46 1034.44,5066.91 1064.93,5066.91 1064.93,5127.88 1095.38,5127.88 1095.38,5158.33 1125.86,5158.33 1125.86,5188.81 1156.35,5188.81 1156.35,5249.75 1186.8,5249.75 1186.8,5280.23 1217.28,5280.23 1217.28,5310.72 1247.77,5310.72 1247.77,5341.17 1278.22,5341.17 1278.22,5371.65 1339.19,5371.65 1339.19,5402.14 1369.64,5402.14 1369.64,5432.59 1400.12,5432.59 1400.12,5463.07 1430.61,5463.07 1430.61,5493.56 1491.54,5493.56 1491.54,5524.01 1552.48,5524.01 1552.48,5554.49 1582.96,5554.49 1582.96,5584.98 1643.9,5584.98 1643.9,5615.43 1704.87,5615.43 1704.87,5645.91 1826.74,5645.91 1826.74,5676.4 1887.71,5676.4 1887.71,5706.85 2070.55,5706.85 2070.55,5737.33 2466.68,5737.33 2466.68,5706.85 2588.59,5706.85 2588.59,5676.4 2680.01,5676.4 2680.01,5645.91 2740.94,5645.91 2740.94,5615.43 2801.91,5615.43 2801.91,5584.98 2862.85,5584.98 2862.85,5554.49 2923.78,5554.49 2923.78,5524.01 2984.76,5524.01 2984.76,5493.56 3015.21,5493.56 3015.21,5463.07 3076.18,5463.07 3076.18,5432.59 3106.63,5432.59 3106.63,5402.14 3137.11,5402.14 3137.11,5371.65 3167.6,5371.65 3167.6,5341.17 3198.05,5341.17 3198.05,5310.72 3228.53,5310.72 3228.53,5280.23 3259.02,5280.23 3259.02,5249.75 3289.47,5249.75 3289.47,5219.3 3319.95,5219.3 3319.95,5188.81 3350.44,5188.81 3350.44,5158.33 3380.89,5158.33 3380.89,5127.88 3411.37,5127.88 3411.37,5066.91 3441.86,5066.91 3441.86,5036.46 3472.31,5036.46 3472.31,5005.97 3502.79,5005.97 3502.79,4945.04 3533.28,4945.04 3533.28,4914.55 3563.73,4914.55 3563.73,4853.62 3594.21,4853.62 3594.21,4792.64 3624.7,4792.64 3624.7,4762.19 3655.15,4762.19 3655.15,4670.77 3685.63,4670.77 3685.63,4609.8 3716.12,4609.8 3716.12,4518.38 3746.57,4518.38 3746.57,4457.45 3777.05,4457.45 3777.05,4366.03 3807.54,4366.03 3807.54,4305.09 3837.99,4305.09 3837.99,4183.19 3868.47,4183.19 3868.47,4091.77 3898.96,4091.77 3898.96,4000.35 3929.41,4000.35 3929.41,3939.41 3959.9,3939.41 3959.9,3817.5 3990.38,3817.5 3990.38,3726.08 4020.83,3726.08 4020.83,3634.66 4051.32,3634.66 4051.32,3573.73 4081.8,3573.73 4081.8,3421.34 4112.25,3421.34 4112.25,3329.92 4142.74,3329.92 4142.74,3268.98 4173.22,3268.98 4173.22,3147.08 4203.67,3147.08 4203.67,3025.21 4234.16,3025.21 4234.16,2933.79 4264.64,2933.79 4264.64,2842.37 4295.09,2842.37 4295.09,2689.97 4325.58,2689.97 4325.58,2415.71 4356.06,2415.71 4356.06,1897.68 4325.58,1897.68 4325.58,1775.77 4295.09,1775.77 4295.09,1684.35 4264.64,1684.35 4264.64,1562.48 4234.16,1562.48 4234.16,1531.99 4203.67,1531.99 4203.67,1471.06 4173.22,1471.06 4173.22,1410.09 4142.74,1410.09 4142.74,1379.64 4112.25,1379.64 4112.25,1349.15 4081.8,1349.15 4081.8,1288.22 4020.83,1288.22 4020.83,1227.28 3959.9,1227.28 3959.9,1196.8 3929.41,1196.8 3929.41,1166.31 3898.96,1166.31 3898.96,1135.86 3868.47,1135.86 3868.47,1105.38 3807.54,1105.38 3807.54,1074.89 3777.05,1074.89 3777.05,1044.44 3716.12,1044.44 3716.12,1013.96 3685.63,1013.96 3685.63,983.47 3624.7,983.47 3624.7,953.02 3594.21,953.02 3594.21,922.54 3533.28,922.54 3533.28,892.05 3502.79,892.05 3502.79,861.6 3441.86,861.6 3441.86,831.11 3380.89,831.11 3380.89,800.63 3350.44,800.63 3350.44,770.18 3319.95,770.18 3319.95,739.69 3259.02,739.69 3259.02,709.21 3228.53,709.21 3228.53,678.76 3198.05,678.76 3198.05,648.27 3137.11,648.27 3137.11,617.79 3106.63,617.79 3106.63,587.34 3076.18,587.34 3076.18,556.85 3015.21,556.85 3015.21,526.37 2984.76,526.37 2984.76,495.92 2954.27,495.92 2954.27,465.43 2893.34,465.43 2893.34,434.95 2862.85,434.95 2862.85,404.5 2801.91,404.5 2801.91,374.01 2771.43,374.01 2771.43,343.53 2710.49,343.53 2710.49,313.08 2680.01,313.08 2680.01,282.59 2619.07,282.59 2619.07,252.11 2558.1,252.11 2558.1,221.66 2161.97,221.66 "/>
  <polygon id="root" class="fil1" points="790.66,5249.75 821.11,5249.75 821.11,6224.92 851.6,6224.92 851.6,6742.96 882.08,6742.96 882.08,7687.65 912.53,7687.65 912.53,7961.91 943.02,7961.91 943.02,8388.53 973.51,8388.53 973.51,8662.79 1003.95,8662.79 1003.95,9028.47 1034.44,9028.47 1034.44,9394.15 1064.93,9394.15 1064.93,9698.86 1095.38,9698.86 1095.38,9973.13 1125.86,9973.13 1125.86,10674.04 1156.35,10674.04 1156.35,11953.93 1125.86,11953.93 1125.86,12197.7 1095.38,12197.7 1095.38,12624.32 1064.93,12624.32 1064.93,12868.13 1034.44,12868.13 1034.44,13233.81 1003.95,13233.81 1003.95,14087.05 1034.44,14087.05 1034.44,14178.47 1064.93,14178.47 1064.93,14239.44 1095.38,14239.44 1095.38,14300.37 1125.86,14300.37 1125.86,14361.31 1156.35,14361.31 1156.35,14391.79 1217.28,14391.79 1217.28,14422.28 1400.12,14422.28 1400.12,14391.79 1461.06,14391.79 1461.06,14361.31 1491.54,14361.31 1491.54,14330.86 1552.48,14330.86 1552.48,14300.37 1582.96,14300.37 1582.96,14269.89 1613.45,14269.89 1613.45,14239.44 1643.9,14239.44 1643.9,14208.95 1674.38,14208.95 1674.38,14178.47 1704.87,14178.47 1704.87,14148.02 1735.32,14148.02 1735.32,14087.05 1765.8,14087.05 1765.8,14056.6 1796.29,14056.6 1796.29,14026.11 1826.74,14026.11 1826.74,13965.18 1857.22,13965.18 1857.22,13904.21 1887.71,13904.21 1887.71,13843.27 1918.16,13843.27 1918.16,13812.78 1948.64,13812.78 1948.64,13751.85 1979.13,13751.85 1979.13,13690.91 2009.58,13690.91 2009.58,13629.94 2040.07,13629.94 2040.07,13569.01 2070.55,13569.01 2070.55,13508.07 2101,13508.07 2101,13416.65 2131.49,13416.65 2131.49,13355.68 2161.97,13355.68 2161.97,13294.75 2192.42,13294.75 2192.42,13203.33 2222.91,13203.33 2222.91,13142.39 2253.39,13142.39 2253.39,13050.97 2283.84,13050.97 2283.84,12959.55 2314.33,12959.55 2314.33,12898.58 2344.81,12898.58 2344.81,12807.16 2375.26,12807.16 2375.26,12715.74 2405.75,12715.74 2405.75,12654.8 2436.23,12654.8 2436.23,12532.9 2466.68,12532.9 2466.68,12471.96 2497.17,12471.96 2497.17,12350.06 2527.65,12350.06 2527.65,12289.12 2558.1,12289.12 2558.1,12167.22 2588.59,12167.22 2588.59,12075.8 2619.07,12075.8 2619.07,11984.38 2649.52,11984.38 2649.52,11862.51 2680.01,11862.51 2680.01,11801.53 2710.49,11801.53 2710.49,11710.11 2740.94,11710.11 2740.94,11618.69 2771.43,11618.69 2771.43,11527.27 2801.91,11527.27 2801.91,11374.92 2832.36,11374.92 2832.36,11283.5 2862.85,11283.5 2862.85,11161.59 2893.34,11161.59 2893.34,11070.17 2923.78,11070.17 2923.78,10978.75 2954.27,10978.75 2954.27,10826.39 2984.76,10826.39 2984.76,10674.04 3015.21,10674.04 3015.21,10552.13 3045.69,10552.13 3045.69,10460.71 3076.18,10460.71 3076.18,10277.87 3106.63,10277.87 3106.63,10095.03 3137.11,10095.03 3137.11,9881.7 3167.6,9881.7 3167.6,9637.93 3198.05,9637.93 3198.05,9394.15 3228.53,9394.15 3228.53,9241.76 3259.02,9241.76 3259.02,8906.57 3289.47,8906.57 3289.47,8662.79 3319.95,8662.79 3319.95,8479.95 3350.44,8479.95 3350.44,8114.27 3380.89,8114.27 3380.89,7779.07 3411.37,7779.07 3411.37,7474.32 3441.86,7474.32 3441.86,7200.06 3472.31,7200.06 3472.31,6803.89 3502.79,6803.89 3502.79,6255.37 3533.28,6255.37 3533.28,5981.11 3563.73,5981.11 3563.73,5706.85 3594.21,5706.85 3594.21,5310.72 3624.7,5310.72 3624.7,5097.39 3594.21,5097.39 3594.21,5158.33 3563.73,5158.33 3563.73,5188.81 3533.28,5188.81 3533.28,5219.3 3502.79,5219.3 3502.79,5249.75 3472.31,5249.75 3472.31,5280.23 3441.86,5280.23 3441.86,5341.17 3411.37,5341.17 3411.37,5371.65 3380.89,5371.65 3380.89,5402.14 3350.44,5402.14 3350.44,5432.59 3319.95,5432.59 3319.95,5463.07 3289.47,5463.07 3289.47,5493.56 3228.53,5493.56 3228.53,5524.01 3198.05,5524.01 3198.05,5554.49 3167.6,5554.49 3167.6,5584.98 3137.11,5584.98 3137.11,5615.43 3076.18,5615.43 3076.18,5645.91 3045.69,5645.91 3045.69,5676.4 2984.76,5676.4 2984.76,5706.85 2923.78,5706.85 2923.78,5737.33 2862.85,5737.33 2862.85,5767.82 2801.91,5767.82 2801.91,5798.27 2710.49,5798.27 2710.49,5828.75 2588.59,5828.75 2588.59,5859.24 2436.23,5859.24 2436.23,5889.69 2009.58,5889.69 2009.58,5859.24 1857.22,5859.24 1857.22,5828.75 1765.8,5828.75 1765.8,5798.27 1643.9,5798.27 1643.9,5767.82 1582.96,5767.82 1582.96,5737.33 1522.03,5737.33 1522.03,5706.85 1491.54,5706.85 1491.54,5676.4 1430.61,5676.4 1430.61,5645.91 1369.64,5645.91 1369.64,5615.43 1339.19,5615.43 1339.19,5584.98 1308.7,5584.98 1308.7,5554.49 1247.77,5554.49 1247.77,5524.01 1217.28,5524.01 1217.28,5493.56 1186.8,5493.56 1186.8,5463.07 1156.35,5463.07 1156.35,5432.59 1125.86,5432.59 1125.86,5402.14 1095.38,5402.14 1095.38,5371.65 1064.93,5371.65 1064.93,5341.17 1034.44,5341.17 1034.44,5310.72 1003.95,5310.72 1003.95,5280.23 973.51,5280.23 973.51,5249.75 943.02,5249.75 943.02,5219.3 912.53,5219.3 912.53,5188.81 882.08,5188.81 882.08,5127.88 851.6,5127.88 851.6,5066.91 821.11,5066.91 821.11,5036.46 790.66,5036.46 "/>
  <path id="outline" class="fil2" d="M790.66 5036.46l30.45 0 0 30.45 30.49 0 0 60.97 30.48 0 0 60.93 30.45 0 0 30.49 30.49 0 0 30.45 30.49 0 0 30.48 30.44 0 0 30.49 30.49 0 0 30.45 30.49 0 0 30.48 30.45 0 0 30.49 30.48 0 0 30.45 30.49 0 0 30.48 30.45 0 0 30.49 30.48 0 0 30.45 30.49 0 0 30.48 60.93 0 0 30.49 30.49 0 0 30.45 30.45 0 0 30.48 60.97 0 0 30.49 60.93 0 0 30.45 30.49 0 0 30.48 60.93 0 0 30.49 60.94 0 0 30.45 121.9 0 0 30.48 91.42 0 0 30.49 152.36 0 0 30.45 426.65 0 0 -30.45 152.36 0 0 -30.49 121.9 0 0 -30.48 91.42 0 0 -30.45 60.94 0 0 -30.49 60.93 0 0 -30.48 60.98 0 0 -30.45 60.93 0 0 -30.49 30.49 0 0 -30.48 60.93 0 0 -30.45 30.49 0 0 -30.49 30.45 0 0 -30.48 30.48 0 0 -30.45 60.94 0 0 -30.49 30.48 0 0 -30.48 30.49 0 0 -30.45 30.45 0 0 -30.49 30.48 0 0 -30.48 30.49 0 0 -60.94 30.45 0 0 -30.48 30.48 0 0 -30.45 30.49 0 0 -30.49 30.45 0 0 -30.48 30.48 0 0 -60.94 30.49 0 0 213.33 -30.49 0 0 396.13 -30.48 0 0 274.26 -30.45 0 0 274.26 -30.49 0 0 548.52 -30.48 0 0 396.17 -30.45 0 0 274.26 -30.49 0 0 304.75 -30.48 0 0 335.2 -30.45 0 0 365.68 -30.49 0 0 182.84 -30.48 0 0 243.78 -30.45 0 0 335.19 -30.49 0 0 152.39 -30.48 0 0 243.78 -30.45 0 0 243.77 -30.49 0 0 213.33 -30.48 0 0 182.84 -30.45 0 0 182.84 -30.49 0 0 91.42 -30.48 0 0 121.91 -30.45 0 0 152.35 -30.49 0 0 152.36 -30.49 0 0 91.42 -30.44 0 0 91.42 -30.49 0 0 121.91 -30.49 0 0 91.42 -30.45 0 0 152.35 -30.48 0 0 91.42 -30.49 0 0 91.42 -30.45 0 0 91.42 -30.48 0 0 60.98 -30.49 0 0 121.87 -30.45 0 0 91.42 -30.48 0 0 91.42 -30.49 0 0 121.9 -30.45 0 0 60.94 -30.48 0 0 121.9 -30.49 0 0 60.94 -30.45 0 0 121.9 -30.48 0 0 60.94 -30.49 0 0 91.42 -30.45 0 0 91.42 -30.48 0 0 60.97 -30.49 0 0 91.42 -30.45 0 0 91.42 -30.48 0 0 60.94 -30.49 0 0 91.42 -30.45 0 0 60.93 -30.48 0 0 60.97 -30.49 0 0 91.42 -30.45 0 0 60.94 -30.48 0 0 60.93 -30.49 0 0 60.97 -30.45 0 0 60.94 -30.49 0 0 60.93 -30.48 0 0 30.49 -30.45 0 0 60.94 -30.49 0 0 60.97 -30.48 0 0 60.93 -30.45 0 0 30.49 -30.49 0 0 30.45 -30.48 0 0 60.97 -30.45 0 0 30.45 -30.49 0 0 30.48 -30.48 0 0 30.49 -30.45 0 0 30.45 -30.49 0 0 30.48 -30.48 0 0 30.49 -60.94 0 0 30.45 -30.48 0 0 30.48 -60.94 0 0 30.49 -182.84 0 0 -30.49 -60.93 0 0 -30.48 -30.49 0 0 -60.94 -30.48 0 0 -60.93 -30.45 0 0 -60.97 -30.49 0 0 -91.42 -30.49 0 0 -853.24 30.49 0 0 -365.68 30.49 0 0 -243.81 30.45 0 0 -426.62 30.48 0 0 -243.77 30.49 0 0 -1279.89 -30.49 0 0 -700.91 -30.48 0 0 -274.27 -30.45 0 0 -304.71 -30.49 0 0 -365.68 -30.49 0 0 -365.68 -30.44 0 0 -274.26 -30.49 0 0 -426.62 -30.49 0 0 -274.26 -30.45 0 0 -944.69 -30.48 0 0 -518.04 -30.49 0 0 -975.17 -30.45 0 0 -213.29zm-609.49 -3016.88l30.49 0 0 -213.33 30.48 0 0 -91.42 30.45 0 0 -91.42 30.49 0 0 -60.93 30.48 0 0 -30.49 30.45 0 0 -60.93 30.49 0 0 -60.97 30.48 0 0 -30.45 30.45 0 0 -30.49 30.49 0 0 -30.48 30.48 0 0 -30.45 30.45 0 0 -30.49 30.49 0 0 -30.45 30.48 0 0 -30.48 30.45 0 0 -30.49 30.49 0 0 -30.45 60.93 0 0 -30.48 30.49 0 0 -30.49 60.93 0 0 -30.45 60.97 0 0 -30.48 30.45 0 0 -30.49 91.42 0 0 -30.45 60.98 0 0 -30.48 30.45 0 0 -30.49 60.97 0 0 -30.45 60.93 0 0 -30.49 60.94 0 0 -30.48 30.48 0 0 -30.45 60.94 0 0 -30.49 30.48 0 0 -30.48 60.94 0 0 -30.45 30.48 0 0 -30.49 60.94 0 0 -30.48 30.48 0 0 -30.45 30.49 0 0 -30.49 60.93 0 0 -30.48 30.49 0 0 -30.45 60.93 0 0 -30.49 30.49 0 0 -30.48 60.93 0 0 -30.45 30.49 0 0 -30.49 60.93 0 0 -30.48 30.49 0 0 -30.45 60.94 0 0 -30.49 60.93 0 0 -30.48 60.97 0 0 -30.45 396.13 0 0 30.45 60.97 0 0 30.48 60.94 0 0 30.49 30.48 0 0 30.45 60.94 0 0 30.48 30.48 0 0 30.49 60.94 0 0 30.45 30.49 0 0 30.48 60.93 0 0 30.49 30.49 0 0 30.45 30.45 0 0 30.48 60.97 0 0 30.49 30.45 0 0 30.45 30.48 0 0 30.48 60.94 0 0 30.49 30.48 0 0 30.45 30.49 0 0 30.48 60.93 0 0 30.49 30.49 0 0 30.45 30.45 0 0 30.48 60.97 0 0 30.49 60.93 0 0 30.45 30.49 0 0 30.49 60.93 0 0 30.48 30.49 0 0 30.45 60.93 0 0 30.49 30.49 0 0 30.48 60.93 0 0 30.45 30.49 0 0 30.49 60.93 0 0 30.48 30.49 0 0 30.45 30.45 0 0 30.49 30.49 0 0 30.48 60.93 0 0 60.94 60.97 0 0 60.93 30.45 0 0 30.49 30.49 0 0 30.45 30.48 0 0 60.97 30.45 0 0 60.93 30.49 0 0 30.49 30.48 0 0 121.87 30.45 0 0 91.42 30.49 0 0 121.91 30.48 0 0 518.03 -30.48 0 0 274.26 -30.49 0 0 152.4 -30.45 0 0 91.42 -30.48 0 0 91.42 -30.49 0 0 121.87 -30.45 0 0 121.9 -30.48 0 0 60.94 -30.49 0 0 91.42 -30.45 0 0 152.39 -30.48 0 0 60.93 -30.49 0 0 91.42 -30.45 0 0 91.42 -30.48 0 0 121.91 -30.49 0 0 60.94 -30.45 0 0 91.42 -30.49 0 0 91.42 -30.48 0 0 121.9 -30.45 0 0 60.94 -30.49 0 0 91.42 -30.48 0 0 60.93 -30.45 0 0 91.42 -30.49 0 0 60.97 -30.48 0 0 91.42 -30.45 0 0 30.45 -30.49 0 0 60.98 -30.48 0 0 60.93 -30.45 0 0 30.49 -30.49 0 0 60.93 -30.48 0 0 30.49 -30.45 0 0 30.45 -30.49 0 0 60.97 -30.48 0 0 30.45 -30.45 0 0 30.48 -30.49 0 0 30.49 -30.48 0 0 30.45 -30.45 0 0 30.48 -30.49 0 0 30.49 -30.48 0 0 30.45 -30.45 0 0 30.48 -30.49 0 0 30.49 -30.48 0 0 30.45 -30.45 0 0 30.48 -60.97 0 0 30.49 -30.45 0 0 30.45 -60.98 0 0 30.48 -60.93 0 0 30.49 -60.94 0 0 30.45 -60.97 0 0 30.48 -60.93 0 0 30.49 -91.42 0 0 30.45 -121.91 0 0 30.48 -396.13 0 0 -30.48 -182.84 0 0 -30.45 -60.97 0 0 -30.49 -121.87 0 0 -30.48 -60.97 0 0 -30.45 -60.94 0 0 -30.49 -30.48 0 0 -30.48 -60.94 0 0 -30.45 -60.93 0 0 -30.49 -30.49 0 0 -30.48 -30.48 0 0 -30.45 -30.45 0 0 -30.49 -60.97 0 0 -30.48 -30.45 0 0 -30.45 -30.49 0 0 -30.49 -30.48 0 0 -30.48 -30.45 0 0 -60.94 -30.49 0 0 -30.48 -30.48 0 0 -30.45 -30.45 0 0 -60.97 -30.49 0 0 -30.45 -30.49 0 0 -60.97 -30.44 0 0 -30.45 -30.49 0 0 -60.98 -30.49 0 0 -30.44 -30.45 0 0 -60.98 -30.48 0 0 -60.93 -30.49 0 0 -60.94 -30.45 0 0 -60.97 -30.48 0 0 -91.42 -30.49 0 0 -60.93 -30.45 0 0 -91.42 -30.48 0 0 -121.91 -30.49 0 0 -121.87 -30.45 0 0 -91.42 -30.48 0 0 -60.97 -30.49 0 0 -152.36 -30.45 0 0 -121.9 -30.48 0 0 -91.42 -30.49 0 0 -121.87 -30.45 0 0 -60.97 -30.48 0 0 -121.87 -30.49 0 0 -121.91 -30.45 0 0 -91.42 -30.48 0 0 -121.9 -30.49 0 0 -152.36 -30.45 0 0 -121.91 -30.48 0 0 -304.71 -30.49 0 0 -365.68zm2041.74 -1980.76l-152.36 0 0 30.45 -60.97 0 0 30.48 -60.94 0 0 30.49 -30.48 0 0 30.45 -60.94 0 0 30.48 -60.93 0 0 30.49 -30.49 0 0 30.45 -60.93 0 0 30.48 -30.49 0 0 30.49 -30.48 0 0 30.45 -60.94 0 0 30.48 -30.48 0 0 30.49 -60.94 0 0 30.45 -30.48 0 0 30.48 -30.45 0 0 30.49 -60.97 0 0 30.45 -30.45 0 0 30.48 -60.97 0 0 30.49 -30.45 0 0 30.45 -60.97 0 0 30.48 -30.45 0 0 30.49 -60.97 0 0 30.45 -60.94 0 0 30.48 -60.93 0 0 30.49 -60.98 0 0 30.45 -60.93 0 0 30.48 -60.94 0 0 30.49 -30.48 0 0 30.45 -60.94 0 0 30.49 -60.97 0 0 30.48 -30.45 0 0 30.45 -60.97 0 0 30.49 -30.45 0 0 30.48 -30.48 0 0 30.45 -30.49 0 0 30.49 -30.45 0 0 30.48 -60.97 0 0 30.45 -30.45 0 0 60.97 -30.48 0 0 30.45 -30.49 0 0 30.49 -30.45 0 0 60.93 -30.48 0 0 30.49 -30.49 0 0 60.93 -30.45 0 0 60.94 -30.48 0 0 91.42 -30.49 0 0 60.97 -30.45 0 0 121.87 -30.48 0 0 213.33 -30.49 0 0 457.1 30.49 0 0 304.74 30.48 0 0 121.87 30.45 0 0 152.4 30.49 0 0 91.42 30.48 0 0 152.35 30.45 0 0 91.42 30.49 0 0 152.36 30.48 0 0 60.97 30.45 0 0 121.87 30.49 0 0 152.39 30.48 0 0 60.94 30.45 0 0 152.35 30.49 0 0 60.97 30.48 0 0 152.36 30.45 0 0 60.93 30.49 0 0 121.91 30.48 0 0 60.93 30.45 0 0 121.91 30.49 0 0 243.77 30.48 0 0 579.01 30.45 0 0 944.69 30.49 0 0 761.82 30.48 0 0 609.49 30.45 0 0 457.1 30.49 0 0 274.26 30.48 0 0 426.62 30.45 0 0 274.26 30.49 0 0 304.71 30.48 0 0 396.17 30.45 0 0 335.2 30.49 0 0 335.23 30.49 0 0 944.65 -30.49 0 0 579.01 -30.49 0 0 213.33 -30.45 0 0 396.13 -30.48 0 0 426.65 -30.49 0 0 1005.63 30.49 0 0 91.42 30.48 0 0 91.42 30.45 0 0 60.93 30.49 0 0 60.94 30.49 0 0 30.48 30.44 0 0 30.49 30.49 0 0 30.45 60.94 0 0 30.48 30.48 0 0 30.49 60.94 0 0 30.45 243.81 0 0 -30.45 60.93 0 0 -30.49 60.94 0 0 -30.48 60.97 0 0 -30.45 30.45 0 0 -30.49 30.48 0 0 -30.48 30.49 0 0 -30.45 60.93 0 0 -30.49 30.49 0 0 -60.93 30.45 0 0 -30.49 30.48 0 0 -30.48 30.49 0 0 -30.45 30.45 0 0 -30.49 30.48 0 0 -60.93 30.49 0 0 -30.49 30.45 0 0 -60.93 30.49 0 0 -60.97 30.48 0 0 -60.94 30.45 0 0 -60.93 30.49 0 0 -60.98 30.48 0 0 -30.44 30.45 0 0 -91.43 30.49 0 0 -60.97 30.48 0 0 -60.93 30.45 0 0 -60.94 30.49 0 0 -91.42 30.48 0 0 -60.97 30.45 0 0 -91.42 30.49 0 0 -60.93 30.48 0 0 -91.42 30.45 0 0 -60.94 30.49 0 0 -91.42 30.48 0 0 -60.97 30.45 0 0 -91.42 30.49 0 0 -91.42 30.48 0 0 -91.42 30.45 0 0 -121.87 30.49 0 0 -91.42 30.48 0 0 -60.97 30.45 0 0 -91.42 30.49 0 0 -91.42 30.48 0 0 -91.42 30.45 0 0 -91.42 30.49 0 0 -91.43 30.49 0 0 -121.87 30.44 0 0 -121.9 30.49 0 0 -60.94 30.49 0 0 -121.9 30.45 0 0 -60.94 30.48 0 0 -152.39 30.49 0 0 -91.42 30.45 0 0 -121.87 30.48 0 0 -121.9 30.49 0 0 -121.91 30.45 0 0 -182.84 30.48 0 0 -91.42 30.49 0 0 -152.36 30.45 0 0 -152.35 30.48 0 0 -274.26 30.49 0 0 -182.85 30.45 0 0 -121.9 30.48 0 0 -304.75 30.49 0 0 -182.84 30.45 0 0 -274.22 30.48 0 0 -335.24 30.49 0 0 -213.29 30.45 0 0 -457.1 30.48 0 0 -182.84 30.49 0 0 -396.17 30.45 0 0 -396.17 30.48 0 0 -487.55 30.49 0 0 -274.26 30.45 0 0 -457.1 30.48 0 0 -274.26 30.49 0 0 -274.26 30.45 0 0 -365.69 30.48 0 0 -60.97 30.49 0 0 -60.93 30.45 0 0 -91.42 30.49 0 0 -91.42 30.48 0 0 -91.42 30.45 0 0 -60.94 30.49 0 0 -91.42 30.48 0 0 -91.42 30.45 0 0 -121.9 30.49 0 0 -91.42 30.48 0 0 -121.91 30.45 0 0 -91.42 30.49 0 0 -91.42 30.48 0 0 -91.42 30.45 0 0 -91.42 30.49 0 0 -121.87 30.48 0 0 -60.97 30.45 0 0 -121.87 30.49 0 0 -91.42 30.48 0 0 -152.4 30.45 0 0 -91.42 30.49 0 0 -213.29 30.48 0 0 -731.36 -30.48 0 0 -121.91 -30.49 0 0 -121.9 -30.45 0 0 -60.94 -30.48 0 0 -60.93 -30.49 0 0 -60.97 -30.45 0 0 -60.94 -30.48 0 0 -30.48 -30.49 0 0 -60.94 -30.45 0 0 -30.45 -30.48 0 0 -30.48 -30.49 0 0 -30.49 -30.45 0 0 -30.45 -30.48 0 0 -30.48 -30.49 0 0 -30.49 -30.45 0 0 -30.45 -30.48 0 0 -30.48 -30.49 0 0 -30.49 -30.45 0 0 -30.45 -60.97 0 0 -30.48 -30.45 0 0 -30.49 -60.97 0 0 -30.45 -30.45 0 0 -30.49 -60.97 0 0 -30.48 -60.94 0 0 -30.45 -30.48 0 0 -30.49 -60.94 0 0 -30.48 -30.48 0 0 -30.45 -60.94 0 0 -30.49 -30.48 0 0 -30.48 -60.94 0 0 -30.45 -30.48 0 0 -30.49 -60.94 0 0 -30.48 -30.48 0 0 -30.45 -30.45 0 0 -30.49 -30.49 0 0 -30.48 -60.93 0 0 -30.45 -30.49 0 0 -30.49 -30.48 0 0 -30.48 -60.94 0 0 -30.45 -30.48 0 0 -30.49 -30.45 0 0 -30.48 -60.98 0 0 -30.45 -30.44 0 0 -30.49 -60.98 0 0 -30.48 -30.45 0 0 -30.45 -60.97 0 0 -30.49 -60.93 0 0 -30.48 -60.94 0 0 -30.45 -121.9 0 0 -30.49 -274.26 0 0 30.49z"/>
 </g>
</svg>
