<?xml version="1.0" encoding="UTF-8"?>
<!DOCTYPE svg PUBLIC "-//W3C//DTD SVG 1.1//EN" "http://www.w3.org/Graphics/SVG/1.1/DTD/svg11.dtd">
<!-- Creator: CorelDRAW (Versión de evaluación) -->
<svg xmlns="http://www.w3.org/2000/svg" xml:space="preserve" width="500px" height="2062px" version="1.1" style="shape-rendering:geometricPrecision; text-rendering:geometricPrecision; image-rendering:optimizeQuality; fill-rule:evenodd; clip-rule:evenodd"
viewBox="0 0 500 2061.16"
 xmlns:xlink="http://www.w3.org/1999/xlink"
 xmlns:xodm="http://www.corel.com/coreldraw/odm/2003">
 <defs>
  <style type="text/css">
   <![CDATA[
    .fil2 {fill:#4B4B4D}
    .fil1 {fill:#EDEAE0}
    .fil0 {fill:#F2E6C9}
   ]]>
  </style>
 </defs>
 <g id="original">
  <metadata id="CorelCorpID_0Corel-Layer"/>
  <polygon id="root" class="fil0" points="232.96,267.6 240.15,267.6 240.15,271.2 243.75,271.2 243.75,278.4 247.35,278.4 247.35,281.99 250.95,281.99 250.95,289.19 254.54,289.19 254.54,296.38 258.14,296.38 258.14,303.57 261.74,303.57 261.74,310.77 265.33,310.77 265.33,321.56 268.93,321.56 268.93,328.75 272.53,328.75 272.53,339.54 276.12,339.54 276.12,350.34 279.72,350.34 279.72,361.13 283.32,361.13 283.32,375.52 286.91,375.52 286.91,382.71 290.51,382.71 290.51,397.1 294.11,397.1 294.11,407.89 297.71,407.89 297.71,425.88 301.3,425.88 301.3,440.27 304.9,440.27 304.9,451.06 308.5,451.06 308.5,469.04 312.1,469.04 312.1,490.63 315.7,490.63 315.7,505.02 319.29,505.02 319.29,526.6 322.89,526.6 322.89,540.98 326.49,540.98 326.49,555.37 330.08,555.37 330.08,580.56 333.68,580.56 333.68,591.35 337.28,591.35 337.28,612.93 340.87,612.93 340.87,641.71 344.47,641.71 344.47,659.69 348.07,659.69 348.07,692.06 351.66,692.06 351.66,713.65 355.26,713.65 355.26,760.41 358.86,760.41 358.86,778.4 362.46,778.4 362.46,828.76 366.05,828.76 366.05,843.14 369.65,843.14 369.65,897.1 373.25,897.1 373.25,951.06 376.84,951.06 376.84,983.43 380.44,983.43 380.44,1062.57 384.04,1062.57 384.04,1112.93 387.64,1112.93 387.64,1253.22 391.23,1253.22 391.23,1343.15 394.83,1343.15 394.83,1379.12 398.43,1379.12 398.43,1433.08 402.03,1433.08 402.03,1443.87 398.43,1443.87 398.43,1436.67 394.83,1436.67 394.83,1433.08 391.23,1433.08 391.23,1425.88 387.64,1425.88 387.64,1422.28 384.04,1422.28 384.04,1415.09 380.44,1415.09 380.44,1411.49 376.84,1411.49 376.84,1404.3 373.25,1404.3 373.25,1400.7 369.65,1400.7 369.65,1397.11 366.05,1397.11 366.05,1393.51 362.46,1393.51 362.46,1389.91 358.86,1389.91 358.86,1386.32 355.26,1386.32 355.26,1382.72 351.66,1382.72 351.66,1379.12 348.07,1379.12 348.07,1375.52 340.87,1375.52 340.87,1371.93 337.28,1371.93 337.28,1368.33 333.68,1368.33 333.68,1364.73 326.49,1364.73 326.49,1361.13 319.29,1361.13 319.29,1357.54 312.1,1357.54 312.1,1353.94 301.3,1353.94 301.3,1350.34 290.51,1350.34 290.51,1346.74 276.12,1346.74 276.12,1343.15 229.36,1343.15 229.36,1346.74 218.57,1346.74 218.57,1350.34 207.78,1350.34 207.78,1353.94 200.58,1353.94 200.58,1357.54 193.39,1357.54 193.39,1361.13 186.2,1361.13 186.2,1364.73 182.6,1364.73 182.6,1368.33 175.41,1368.33 175.41,1371.93 171.81,1371.93 171.81,1375.52 168.21,1375.52 168.21,1379.12 164.61,1379.12 164.61,1382.72 157.42,1382.72 157.42,1386.32 153.82,1386.32 153.82,1393.51 150.22,1393.51 150.22,1397.11 146.63,1397.11 146.63,1400.7 143.03,1400.7 143.03,1404.3 139.43,1404.3 139.43,1407.9 135.83,1407.9 135.83,1411.49 132.24,1411.49 132.24,1418.69 128.64,1418.69 128.64,1422.28 125.04,1422.28 125.04,1425.88 121.45,1425.88 121.45,1433.08 117.85,1433.08 117.85,1440.27 114.25,1440.27 114.25,1443.87 110.66,1443.87 110.66,1451.06 107.06,1451.06 107.06,1458.26 103.46,1458.26 103.46,1465.45 99.87,1465.45 99.87,1469.05 96.27,1469.05 96.27,1476.24 92.67,1476.24 92.67,1433.08 96.27,1433.08 96.27,1382.72 99.87,1382.72 99.87,1332.36 103.46,1332.36 103.46,1282 107.06,1282 107.06,1213.65 110.66,1213.65 110.66,1174.08 114.25,1174.08 114.25,1141.71 117.85,1141.71 117.85,1109.33 121.45,1109.33 121.45,1076.96 125.04,1076.96 125.04,1037.39 128.64,1037.39 128.64,1015.81 132.24,1015.81 132.24,994.23 135.83,994.23 135.83,969.04 139.43,969.04 139.43,951.06 143.03,951.06 143.03,925.88 146.63,925.88 146.63,911.49 150.22,911.49 150.22,886.31 153.82,886.31 153.82,868.33 157.42,868.33 157.42,843.14 161.02,843.14 161.02,832.35 164.61,832.35 164.61,807.18 168.21,807.18 168.21,789.19 171.81,789.19 171.81,771.2 175.41,771.2 175.41,756.81 179,756.81 179,728.04 182.6,728.04 182.6,706.45 186.2,706.45 186.2,674.08 189.79,674.08 189.79,652.5 193.39,652.5 193.39,627.32 196.99,627.32 196.99,594.94 200.58,594.94 200.58,562.57 204.18,562.57 204.18,436.67 200.58,436.67 200.58,307.17 204.18,307.17 204.18,289.19 207.78,289.19 207.78,281.99 211.37,281.99 211.37,274.8 214.97,274.8 214.97,267.6 218.57,267.6 218.57,264 232.96,264 "/>
  <polygon id="crown" class="fil1" points="276.12,1364.73 283.32,1364.73 283.32,1368.33 297.71,1368.33 297.71,1371.93 304.9,1371.93 304.9,1375.52 312.1,1375.52 312.1,1379.12 319.29,1379.12 319.29,1382.72 322.89,1382.72 322.89,1386.32 330.08,1386.32 330.08,1389.91 333.68,1389.91 333.68,1393.51 337.28,1393.51 337.28,1397.11 340.87,1397.11 340.87,1400.7 344.47,1400.7 344.47,1404.3 348.07,1404.3 348.07,1407.9 351.66,1407.9 351.66,1411.49 355.26,1411.49 355.26,1415.09 358.86,1415.09 358.86,1418.69 362.46,1418.69 362.46,1425.88 366.05,1425.88 366.05,1429.48 369.65,1429.48 369.65,1433.08 373.25,1433.08 373.25,1440.27 376.84,1440.27 376.84,1443.87 380.44,1443.87 380.44,1451.06 384.04,1451.06 384.04,1454.66 387.64,1454.66 387.64,1461.86 391.23,1461.86 391.23,1469.05 394.83,1469.05 394.83,1476.24 398.43,1476.24 398.43,1483.44 402.03,1483.44 402.03,1494.23 405.62,1494.23 405.62,1505.02 409.22,1505.02 409.22,1515.81 412.82,1515.81 412.82,1530.2 416.41,1530.2 416.41,1548.19 420.01,1548.19 420.01,1558.98 423.61,1558.98 423.61,1569.77 427.2,1569.77 427.2,1580.56 430.8,1580.56 430.8,1591.35 434.4,1591.35 434.4,1602.15 437.99,1602.15 437.99,1612.94 441.59,1612.94 441.59,1623.73 445.19,1623.73 445.19,1634.52 448.79,1634.52 448.79,1648.91 452.39,1648.91 452.39,1656.1 455.98,1656.1 455.98,1666.89 459.58,1666.89 459.58,1681.28 463.18,1681.28 463.18,1688.48 466.77,1688.48 466.77,1702.86 470.37,1702.86 470.37,1724.45 473.97,1724.45 473.97,1738.84 477.57,1738.84 477.57,1803.58 473.97,1803.58 473.97,1821.57 470.37,1821.57 470.37,1835.96 466.77,1835.96 466.77,1846.75 463.18,1846.75 463.18,1857.54 459.58,1857.54 459.58,1864.73 455.98,1864.73 455.98,1868.33 452.39,1868.33 452.39,1875.53 448.79,1875.53 448.79,1879.12 445.19,1879.12 445.19,1882.72 441.59,1882.72 441.59,1886.32 437.99,1886.32 437.99,1889.92 434.4,1889.92 434.4,1893.51 430.8,1893.51 430.8,1897.11 427.2,1897.11 427.2,1900.71 420.01,1900.71 420.01,1904.3 416.41,1904.3 416.41,1907.9 409.22,1907.9 409.22,1911.5 405.62,1911.5 405.62,1915.09 398.43,1915.09 398.43,1918.69 391.23,1918.69 391.23,1922.29 387.64,1922.29 387.64,1925.88 380.44,1925.88 380.44,1929.48 373.25,1929.48 373.25,1933.08 366.05,1933.08 366.05,1936.68 362.46,1936.68 362.46,1940.27 358.86,1940.27 358.86,1943.87 351.66,1943.87 351.66,1947.47 344.47,1947.47 344.47,1951.07 337.28,1951.07 337.28,1954.66 333.68,1954.66 333.68,1958.26 330.08,1958.26 330.08,1961.86 322.89,1961.86 322.89,1965.46 319.29,1965.46 319.29,1969.05 312.1,1969.05 312.1,1972.65 308.5,1972.65 308.5,1976.25 304.9,1976.25 304.9,1979.84 297.71,1979.84 297.71,1983.44 290.51,1983.44 290.51,1987.04 286.91,1987.04 286.91,1990.63 279.72,1990.63 279.72,1994.23 268.93,1994.23 268.93,1997.83 225.76,1997.83 225.76,1994.23 218.57,1994.23 218.57,1990.63 211.37,1990.63 211.37,1987.04 204.18,1987.04 204.18,1983.44 200.58,1983.44 200.58,1979.84 193.39,1979.84 193.39,1976.25 189.79,1976.25 189.79,1972.65 186.2,1972.65 186.2,1969.05 179,1969.05 179,1965.46 175.41,1965.46 175.41,1961.86 171.81,1961.86 171.81,1958.26 164.61,1958.26 164.61,1954.66 161.02,1954.66 161.02,1951.07 157.42,1951.07 157.42,1947.47 150.22,1947.47 150.22,1943.87 146.63,1943.87 146.63,1940.27 139.43,1940.27 139.43,1936.68 135.83,1936.68 135.83,1933.08 128.64,1933.08 128.64,1929.48 121.45,1929.48 121.45,1925.88 117.85,1925.88 117.85,1922.29 110.66,1922.29 110.66,1918.69 107.06,1918.69 107.06,1915.09 99.87,1915.09 99.87,1911.5 96.27,1911.5 96.27,1907.9 89.07,1907.9 89.07,1904.3 81.88,1904.3 81.88,1900.71 78.28,1900.71 78.28,1897.11 71.08,1897.11 71.08,1893.51 67.49,1893.51 67.49,1889.92 63.89,1889.92 63.89,1886.32 60.29,1886.32 60.29,1882.72 56.7,1882.72 56.7,1879.12 53.1,1879.12 53.1,1875.53 49.5,1875.53 49.5,1871.93 45.91,1871.93 45.91,1864.73 42.31,1864.73 42.31,1861.14 38.71,1861.14 38.71,1853.94 35.12,1853.94 35.12,1846.75 31.52,1846.75 31.52,1839.56 27.92,1839.56 27.92,1821.57 24.32,1821.57 24.32,1742.43 27.92,1742.43 27.92,1724.45 31.52,1724.45 31.52,1706.46 35.12,1706.46 35.12,1692.07 38.71,1692.07 38.71,1681.28 42.31,1681.28 42.31,1670.49 45.91,1670.49 45.91,1656.1 49.5,1656.1 49.5,1648.91 53.1,1648.91 53.1,1638.11 56.7,1638.11 56.7,1627.32 60.29,1627.32 60.29,1616.53 63.89,1616.53 63.89,1609.34 67.49,1609.34 67.49,1594.95 71.08,1594.95 71.08,1587.75 74.68,1587.75 74.68,1576.96 78.28,1576.96 78.28,1566.17 81.88,1566.17 81.88,1555.38 85.48,1555.38 85.48,1544.59 89.07,1544.59 89.07,1530.2 92.67,1530.2 92.67,1526.6 96.27,1526.6 96.27,1515.81 99.87,1515.81 99.87,1508.62 103.46,1508.62 103.46,1501.42 107.06,1501.42 107.06,1490.63 110.66,1490.63 110.66,1483.44 114.25,1483.44 114.25,1476.24 117.85,1476.24 117.85,1472.65 121.45,1472.65 121.45,1465.45 125.04,1465.45 125.04,1458.26 128.64,1458.26 128.64,1451.06 132.24,1451.06 132.24,1443.87 135.83,1443.87 135.83,1440.27 139.43,1440.27 139.43,1433.08 143.03,1433.08 143.03,1429.48 146.63,1429.48 146.63,1425.88 150.22,1425.88 150.22,1418.69 153.82,1418.69 153.82,1415.09 157.42,1415.09 157.42,1411.49 161.02,1411.49 161.02,1407.9 164.61,1407.9 164.61,1404.3 168.21,1404.3 168.21,1400.7 171.81,1400.7 171.81,1397.11 175.41,1397.11 175.41,1393.51 179,1393.51 179,1389.91 182.6,1389.91 182.6,1386.32 186.2,1386.32 186.2,1382.72 189.79,1382.72 189.79,1379.12 196.99,1379.12 196.99,1375.52 204.18,1375.52 204.18,1371.93 211.37,1371.93 211.37,1368.33 222.17,1368.33 222.17,1364.73 236.56,1364.73 236.56,1361.13 276.12,1361.13 "/>
  <path id="outline" class="fil2" d="M477.57 1738.84l-3.6 0 0 -14.39 -3.6 0 0 -21.59 -3.6 0 0 -14.38 -3.59 0 0 -7.2 -3.6 0 0 -14.39 -3.6 0 0 -10.79 -3.59 0 0 -7.19 -3.6 0 0 -14.39 -3.6 0 0 -10.79 -3.6 0 0 -10.79 -3.6 0 0 -10.79 -3.59 0 0 -10.8 -3.6 0 0 -10.79 -3.6 0 0 -10.79 -3.59 0 0 -10.79 -3.6 0 0 -10.79 -3.6 0 0 -17.99 -3.59 0 0 -14.39 -3.6 0 0 -10.79 -3.6 0 0 -10.79 -3.59 0 0 -10.79 -3.6 0 0 -7.2 -3.6 0 0 -7.19 -3.6 0 0 -7.19 -3.59 0 0 -7.2 -3.6 0 0 -3.6 -3.6 0 0 -7.19 -3.6 0 0 -3.6 -3.59 0 0 -7.19 -3.6 0 0 -3.6 -3.6 0 0 -3.6 -3.59 0 0 -7.19 -3.6 0 0 -3.6 -3.6 0 0 -3.6 -3.6 0 0 -3.59 -3.59 0 0 -3.6 -3.6 0 0 -3.6 -3.6 0 0 -3.59 -3.59 0 0 -3.6 -3.6 0 0 -3.6 -3.6 0 0 -3.59 -7.19 0 0 -3.6 -3.6 0 0 -3.6 -7.19 0 0 -3.6 -7.2 0 0 -3.59 -7.19 0 0 -3.6 -14.39 0 0 -3.6 -7.2 0 0 -3.6 -39.56 0 0 3.6 -14.39 0 0 3.6 -10.8 0 0 3.6 -7.19 0 0 3.59 -7.19 0 0 3.6 -7.2 0 0 3.6 -3.59 0 0 3.6 -3.6 0 0 3.59 -3.6 0 0 3.6 -3.59 0 0 3.6 -3.6 0 0 3.59 -3.6 0 0 3.6 -3.6 0 0 3.6 -3.59 0 0 3.59 -3.6 0 0 3.6 -3.6 0 0 3.6 -3.6 0 0 7.19 -3.59 0 0 3.6 -3.6 0 0 3.6 -3.6 0 0 7.19 -3.6 0 0 3.6 -3.59 0 0 7.19 -3.6 0 0 7.2 -3.6 0 0 7.19 -3.59 0 0 7.2 -3.6 0 0 3.59 -3.6 0 0 7.2 -3.59 0 0 7.19 -3.6 0 0 10.79 -3.6 0 0 7.2 -3.59 0 0 7.19 -3.6 0 0 10.79 -3.6 0 0 3.6 -3.6 0 0 14.39 -3.59 0 0 10.79 -3.6 0 0 10.79 -3.6 0 0 10.79 -3.6 0 0 10.79 -3.6 0 0 7.2 -3.59 0 0 14.39 -3.6 0 0 7.19 -3.6 0 0 10.79 -3.59 0 0 10.79 -3.6 0 0 10.8 -3.6 0 0 7.19 -3.59 0 0 14.39 -3.6 0 0 10.79 -3.6 0 0 10.79 -3.59 0 0 14.39 -3.6 0 0 17.99 -3.6 0 0 17.98 -3.6 0 0 79.14 3.6 0 0 17.99 3.6 0 0 7.19 3.6 0 0 7.19 3.59 0 0 7.2 3.6 0 0 3.59 3.6 0 0 7.2 3.59 0 0 3.6 3.6 0 0 3.59 3.6 0 0 3.6 3.59 0 0 3.6 3.6 0 0 3.6 3.6 0 0 3.59 3.59 0 0 3.6 7.2 0 0 3.6 3.6 0 0 3.59 7.19 0 0 3.6 7.2 0 0 3.6 3.6 0 0 3.59 7.19 0 0 3.6 3.6 0 0 3.6 7.19 0 0 3.59 3.6 0 0 3.6 7.19 0 0 3.6 7.19 0 0 3.6 3.6 0 0 3.59 7.2 0 0 3.6 3.59 0 0 3.6 7.2 0 0 3.6 3.6 0 0 3.59 3.59 0 0 3.6 7.2 0 0 3.6 3.6 0 0 3.6 3.59 0 0 3.59 7.2 0 0 3.6 3.59 0 0 3.6 3.6 0 0 3.59 7.19 0 0 3.6 3.6 0 0 3.6 7.19 0 0 3.59 7.2 0 0 3.6 7.19 0 0 3.6 43.17 0 0 -3.6 10.79 0 0 -3.6 7.19 0 0 -3.59 3.6 0 0 -3.6 7.2 0 0 -3.6 7.19 0 0 -3.59 3.6 0 0 -3.6 3.6 0 0 -3.6 7.19 0 0 -3.59 3.6 0 0 -3.6 7.19 0 0 -3.6 3.6 0 0 -3.6 3.6 0 0 -3.59 7.19 0 0 -3.6 7.19 0 0 -3.6 7.2 0 0 -3.6 3.6 0 0 -3.59 3.59 0 0 -3.6 7.2 0 0 -3.6 7.19 0 0 -3.6 7.2 0 0 -3.59 3.59 0 0 -3.6 7.2 0 0 -3.6 7.19 0 0 -3.59 3.6 0 0 -3.6 7.19 0 0 -3.6 3.6 0 0 -3.59 7.19 0 0 -3.6 3.6 0 0 -3.6 3.6 0 0 -3.59 3.59 0 0 -3.6 3.6 0 0 -3.6 3.6 0 0 -3.6 3.6 0 0 -3.59 3.6 0 0 -7.2 3.59 0 0 -3.6 3.6 0 0 -7.19 3.6 0 0 -10.79 3.59 0 0 -10.79 3.6 0 0 -14.39 3.6 0 0 -17.99 3.6 0 0 -64.74zm-273.39 -1176.27l-3.6 0 0 32.37 -3.59 0 0 32.38 -3.6 0 0 25.18 -3.6 0 0 21.58 -3.59 0 0 32.37 -3.6 0 0 21.59 -3.6 0 0 28.77 -3.59 0 0 14.39 -3.6 0 0 17.99 -3.6 0 0 17.99 -3.6 0 0 25.17 -3.59 0 0 10.79 -3.6 0 0 25.19 -3.6 0 0 17.98 -3.6 0 0 25.18 -3.59 0 0 14.39 -3.6 0 0 25.18 -3.6 0 0 17.98 -3.6 0 0 25.19 -3.59 0 0 21.58 -3.6 0 0 21.58 -3.6 0 0 39.57 -3.59 0 0 32.37 -3.6 0 0 32.38 -3.6 0 0 32.37 -3.59 0 0 39.57 -3.6 0 0 68.35 -3.6 0 0 50.36 -3.59 0 0 50.36 -3.6 0 0 50.36 -3.6 0 0 43.16 3.6 0 0 -7.19 3.6 0 0 -3.6 3.59 0 0 -7.19 3.6 0 0 -7.2 3.6 0 0 -7.19 3.59 0 0 -3.6 3.6 0 0 -7.19 3.6 0 0 -7.2 3.59 0 0 -3.6 3.6 0 0 -3.59 3.6 0 0 -7.2 3.59 0 0 -3.59 3.6 0 0 -3.6 3.6 0 0 -3.6 3.6 0 0 -3.59 3.59 0 0 -3.6 3.6 0 0 -7.19 3.6 0 0 -3.6 7.19 0 0 -3.6 3.6 0 0 -3.6 3.6 0 0 -3.59 3.6 0 0 -3.6 7.19 0 0 -3.6 3.6 0 0 -3.6 7.19 0 0 -3.59 7.19 0 0 -3.6 7.2 0 0 -3.6 10.79 0 0 -3.6 10.79 0 0 -3.59 46.76 0 0 3.59 14.39 0 0 3.6 10.79 0 0 3.6 10.8 0 0 3.6 7.19 0 0 3.59 7.2 0 0 3.6 7.19 0 0 3.6 3.6 0 0 3.6 3.59 0 0 3.59 7.2 0 0 3.6 3.59 0 0 3.6 3.6 0 0 3.6 3.6 0 0 3.59 3.6 0 0 3.6 3.59 0 0 3.6 3.6 0 0 3.59 3.6 0 0 3.6 3.59 0 0 7.19 3.6 0 0 3.6 3.6 0 0 7.19 3.6 0 0 3.6 3.59 0 0 7.2 3.6 0 0 3.59 3.6 0 0 7.2 3.6 0 0 -10.79 -3.6 0 0 -53.96 -3.6 0 0 -35.97 -3.6 0 0 -89.93 -3.59 0 0 -140.29 -3.6 0 0 -50.36 -3.6 0 0 -79.14 -3.6 0 0 -32.37 -3.59 0 0 -53.96 -3.6 0 0 -53.96 -3.6 0 0 -14.38 -3.59 0 0 -50.36 -3.6 0 0 -17.99 -3.6 0 0 -46.76 -3.6 0 0 -21.59 -3.59 0 0 -32.37 -3.6 0 0 -17.98 -3.6 0 0 -28.78 -3.59 0 0 -21.58 -3.6 0 0 -10.79 -3.6 0 0 -25.19 -3.59 0 0 -14.39 -3.6 0 0 -14.38 -3.6 0 0 -21.58 -3.59 0 0 -14.39 -3.6 0 0 -21.59 -3.6 0 0 -17.98 -3.6 0 0 -10.79 -3.6 0 0 -14.39 -3.59 0 0 -17.99 -3.6 0 0 -10.79 -3.6 0 0 -14.39 -3.6 0 0 -7.19 -3.59 0 0 -14.39 -3.6 0 0 -10.79 -3.6 0 0 -10.8 -3.59 0 0 -10.79 -3.6 0 0 -7.19 -3.6 0 0 -10.79 -3.59 0 0 -7.2 -3.6 0 0 -7.19 -3.6 0 0 -7.19 -3.59 0 0 -7.2 -3.6 0 0 -3.59 -3.6 0 0 -7.2 -3.6 0 0 -3.6 -7.19 0 0 -3.6 -14.39 0 0 3.6 -3.6 0 0 7.2 -3.6 0 0 7.19 -3.59 0 0 7.2 -3.6 0 0 17.98 -3.6 0 0 129.5 3.6 0 0 125.9zm32.38 -320.15l7.19 0 0 3.6 7.2 0 0 3.59 3.59 0 0 3.6 3.6 0 0 7.2 3.6 0 0 3.59 3.59 0 0 3.6 3.6 0 0 7.2 3.6 0 0 7.19 3.59 0 0 7.2 3.6 0 0 7.19 3.6 0 0 7.19 3.59 0 0 10.79 3.6 0 0 7.2 3.6 0 0 14.39 3.6 0 0 10.79 3.59 0 0 10.79 3.6 0 0 7.2 3.6 0 0 17.98 3.6 0 0 10.79 3.6 0 0 14.39 3.59 0 0 7.2 3.6 0 0 14.38 3.6 0 0 14.39 3.59 0 0 14.39 3.6 0 0 21.58 3.6 0 0 10.8 3.59 0 0 25.18 3.6 0 0 10.79 3.6 0 0 21.58 3.59 0 0 17.98 3.6 0 0 21.59 3.6 0 0 28.77 3.6 0 0 14.39 3.59 0 0 25.19 3.6 0 0 25.17 3.6 0 0 32.38 3.59 0 0 17.99 3.6 0 0 32.37 3.6 0 0 35.97 3.6 0 0 32.37 3.59 0 0 43.17 3.6 0 0 28.78 3.6 0 0 46.76 3.6 0 0 46.76 3.59 0 0 147.48 3.6 0 0 100.73 3.6 0 0 89.92 3.59 0 0 32.38 3.6 0 0 46.76 3.6 0 0 32.38 3.59 0 0 46.76 3.6 0 0 14.39 3.6 0 0 17.98 3.59 0 0 17.99 3.6 0 0 7.19 3.6 0 0 10.79 3.6 0 0 10.79 3.6 0 0 10.8 3.59 0 0 10.79 3.6 0 0 10.79 3.6 0 0 7.2 3.59 0 0 10.79 3.6 0 0 14.38 3.6 0 0 7.2 3.6 0 0 14.39 3.59 0 0 7.19 3.6 0 0 14.39 3.6 0 0 14.39 3.59 0 0 17.98 3.6 0 0 25.19 3.6 0 0 82.73 -3.6 0 0 10.79 -3.6 0 0 14.39 -3.59 0 0 10.79 -3.6 0 0 7.19 -3.6 0 0 7.2 -3.59 0 0 7.19 -3.6 0 0 3.6 -3.6 0 0 7.2 -3.6 0 0 3.59 -3.59 0 0 3.6 -3.6 0 0 3.6 -3.6 0 0 3.59 -3.59 0 0 3.6 -3.6 0 0 3.6 -3.6 0 0 3.59 -3.6 0 0 3.6 -7.19 0 0 3.6 -3.6 0 0 3.59 -7.19 0 0 3.6 -7.2 0 0 3.6 -3.59 0 0 3.6 -7.2 0 0 3.59 -3.59 0 0 3.6 -7.2 0 0 3.6 -7.19 0 0 3.6 -3.6 0 0 3.59 -7.2 0 0 3.6 -7.19 0 0 3.6 -7.19 0 0 3.6 -3.6 0 0 3.59 -3.6 0 0 3.6 -7.19 0 0 3.6 -7.2 0 0 3.59 -3.59 0 0 3.6 -3.6 0 0 3.6 -7.19 0 0 3.59 -3.6 0 0 3.6 -7.19 0 0 3.6 -7.2 0 0 3.59 -3.6 0 0 3.6 -7.19 0 0 3.6 -7.2 0 0 3.6 -7.19 0 0 3.59 -7.2 0 0 3.6 -14.38 0 0 3.6 -28.78 0 0 -3.6 -14.39 0 0 -3.6 -7.2 0 0 -3.59 -7.19 0 0 -3.6 -7.19 0 0 -3.6 -7.2 0 0 -3.6 -3.59 0 0 -3.59 -7.2 0 0 -3.6 -3.59 0 0 -3.6 -3.6 0 0 -3.59 -7.2 0 0 -3.6 -3.59 0 0 -3.6 -7.2 0 0 -3.59 -3.6 0 0 -3.6 -3.59 0 0 -3.6 -7.2 0 0 -3.59 -3.6 0 0 -3.6 -7.19 0 0 -3.6 -3.6 0 0 -3.6 -7.19 0 0 -3.59 -3.6 0 0 -3.6 -7.19 0 0 -3.6 -3.6 0 0 -3.6 -7.19 0 0 -3.59 -7.2 0 0 -3.6 -3.59 0 0 -3.6 -7.2 0 0 -3.6 -3.6 0 0 -3.59 -7.19 0 0 -3.6 -3.6 0 0 -3.6 -3.6 0 0 -3.59 -7.19 0 0 -3.6 -3.6 0 0 -3.6 -3.59 0 0 -3.59 -3.6 0 0 -3.6 -3.6 0 0 -3.6 -3.59 0 0 -3.59 -3.6 0 0 -3.6 -3.6 0 0 -3.6 -3.6 0 0 -3.6 -3.59 0 0 -7.19 -3.6 0 0 -7.2 -3.6 0 0 -10.79 -3.59 0 0 -7.19 -3.6 0 0 -14.39 -3.6 0 0 -17.98 -3.6 0 0 -64.75 3.6 0 0 -17.99 3.6 0 0 -17.99 3.6 0 0 -14.38 3.59 0 0 -14.39 3.6 0 0 -10.79 3.6 0 0 -10.8 3.59 0 0 -14.38 3.6 0 0 -7.2 3.6 0 0 -10.79 3.6 0 0 -7.19 3.59 0 0 -10.79 3.6 0 0 -10.79 3.6 0 0 -10.8 3.59 0 0 -10.79 3.6 0 0 -7.2 3.6 0 0 -17.98 3.59 0 0 -7.19 3.6 0 0 -32.38 3.6 0 0 -39.57 3.59 0 0 -53.96 3.6 0 0 -39.56 3.6 0 0 -57.56 3.6 0 0 -64.75 3.6 0 0 -61.15 3.59 0 0 -28.77 3.6 0 0 -39.57 3.6 0 0 -35.97 3.6 0 0 -32.38 3.59 0 0 -32.37 3.6 0 0 -28.78 3.6 0 0 -21.59 3.59 0 0 -17.98 3.6 0 0 -17.98 3.6 0 0 -14.39 3.59 0 0 -28.78 3.6 0 0 -14.39 3.6 0 0 -21.58 3.59 0 0 -28.78 3.6 0 0 -21.58 3.6 0 0 -7.19 3.6 0 0 -28.78 3.59 0 0 -10.8 3.6 0 0 -25.17 3.6 0 0 -21.59 3.6 0 0 -21.58 3.59 0 0 -25.18 3.6 0 0 -17.98 3.6 0 0 -32.38 3.6 0 0 -39.57 3.59 0 0 -287.77 3.6 0 0 -10.79 3.6 0 0 -10.79 3.59 0 0 -7.2 3.6 0 0 -7.19 3.6 0 0 -7.2 3.59 0 0 -3.6 3.6 0 0 -3.59 3.6 0 0 -3.6 7.19 0 0 -3.6 21.59 0 0 3.6z"/>
 </g>
</svg>
