<!-- Creator: CorelDRAW (Versión de evaluación) -->
<svg xmlns="http://www.w3.org/2000/svg" xml:space="preserve" width="561px" height="2062px" version="1.1" style="shape-rendering:geometricPrecision; text-rendering:geometricPrecision; image-rendering:optimizeQuality; fill-rule:evenodd; clip-rule:evenodd"
viewBox="0 0 561 2060.59"
 xmlns:xlink="http://www.w3.org/1999/xlink"
 xmlns:xodm="http://www.corel.com/coreldraw/odm/2003">
 <defs>
  <style type="text/css">
   <![CDATA[
    .fil2 {fill:#4B4B4D}
    .fil0 {fill:#EDEAE0}
    .fil1 {fill:#F2E6C9}
   ]]>
  </style>
 </defs>
 <g id="original">
  <metadata id="CorelCorpID_0Corel-Layer"/>
  <polygon id="crown" class="fil0" points="319.8,1241.09 330.59,1241.09 330.59,1244.68 341.37,1244.68 341.37,1248.28 348.57,1248.28 348.57,1251.88 355.76,1251.88 355.76,1255.47 359.35,1255.47 359.35,1259.07 366.55,1259.07 366.55,1262.67 370.14,1262.67 370.14,1266.26 377.34,1266.26 377.34,1269.86 380.93,1269.86 380.93,1273.46 384.53,1273.46 384.53,1277.05 388.13,1277.05 388.13,1280.65 391.72,1280.65 391.72,1284.25 395.32,1284.25 395.32,1291.44 398.91,1291.44 398.91,1295.03 402.51,1295.03 402.51,1298.63 406.11,1298.63 406.11,1302.23 409.7,1302.23 409.7,1309.42 413.3,1309.42 413.3,1313.01 416.89,1313.01 416.89,1320.2 420.49,1320.2 420.49,1323.8 424.08,1323.8 424.08,1330.99 427.68,1330.99 427.68,1334.59 431.28,1334.59 431.28,1341.78 434.87,1341.78 434.87,1348.98 438.47,1348.98 438.47,1356.17 442.07,1356.17 442.07,1363.36 445.66,1363.36 445.66,1370.55 449.26,1370.55 449.26,1377.74 452.86,1377.74 452.86,1384.94 456.45,1384.94 456.45,1395.72 460.05,1395.72 460.05,1406.51 463.64,1406.51 463.64,1420.9 467.24,1420.9 467.24,1428.09 470.84,1428.09 470.84,1442.47 474.43,1442.47 474.43,1456.86 478.03,1456.86 478.03,1471.24 481.62,1471.24 481.62,1478.44 485.22,1478.44 485.22,1496.42 488.81,1496.42 488.81,1507.21 492.41,1507.21 492.41,1521.59 496.01,1521.59 496.01,1535.97 499.6,1535.97 499.6,1550.36 503.2,1550.36 503.2,1564.75 506.8,1564.75 506.8,1579.13 510.39,1579.13 510.39,1600.7 513.99,1600.7 513.99,1622.28 517.59,1622.28 517.59,1633.07 521.18,1633.07 521.18,1654.65 524.78,1654.65 524.78,1679.82 528.38,1679.82 528.38,1701.4 531.97,1701.4 531.97,1733.76 535.57,1733.76 535.57,1766.13 539.16,1766.13 539.16,1845.25 535.57,1845.25 535.57,1888.4 531.97,1888.4 531.97,1924.36 528.38,1924.36 528.38,1938.75 524.78,1938.75 524.78,1953.13 521.18,1953.13 521.18,1960.32 517.59,1960.32 517.59,1967.51 513.99,1967.51 513.99,1971.11 510.39,1971.11 510.39,1974.7 506.8,1974.7 506.8,1978.3 503.2,1978.3 503.2,1981.9 499.6,1981.9 499.6,1985.49 492.41,1985.49 492.41,1989.09 488.81,1989.09 488.81,1992.69 478.03,1992.69 478.03,1996.28 467.24,1996.28 467.24,1999.88 452.86,1999.88 452.86,2003.48 434.87,2003.48 434.87,2007.07 409.7,2007.07 409.7,2010.67 373.74,2010.67 373.74,2014.26 323.4,2014.26 323.4,2017.86 201.12,2017.86 201.12,2014.26 132.8,2014.26 132.8,2010.67 100.43,2010.67 100.43,2007.07 64.47,2007.07 64.47,2003.48 57.28,2003.48 57.28,1999.88 50.09,1999.88 50.09,1996.28 42.9,1996.28 42.9,1992.69 39.3,1992.69 39.3,1989.09 35.7,1989.09 35.7,1981.9 32.11,1981.9 32.11,1974.7 28.51,1974.7 28.51,1963.92 24.91,1963.92 24.91,1931.55 21.32,1931.55 21.32,1780.51 24.91,1780.51 24.91,1719.38 28.51,1719.38 28.51,1683.42 32.11,1683.42 32.11,1651.05 35.7,1651.05 35.7,1633.07 39.3,1633.07 39.3,1611.49 42.9,1611.49 42.9,1597.11 46.49,1597.11 46.49,1568.34 50.09,1568.34 50.09,1557.55 53.68,1557.55 53.68,1539.57 57.28,1539.57 57.28,1528.78 60.87,1528.78 60.87,1514.4 64.47,1514.4 64.47,1496.42 68.07,1496.42 68.07,1485.63 71.66,1485.63 71.66,1474.84 75.26,1474.84 75.26,1464.05 78.85,1464.05 78.85,1453.26 82.45,1453.26 82.45,1442.47 86.05,1442.47 86.05,1431.69 89.64,1431.69 89.64,1420.9 93.24,1420.9 93.24,1410.11 96.84,1410.11 96.84,1402.92 100.43,1402.92 100.43,1392.13 104.03,1392.13 104.03,1384.94 107.63,1384.94 107.63,1377.74 111.22,1377.74 111.22,1370.55 114.82,1370.55 114.82,1363.36 118.41,1363.36 118.41,1356.17 122.01,1356.17 122.01,1348.98 125.6,1348.98 125.6,1341.78 129.2,1341.78 129.2,1338.19 132.8,1338.19 132.8,1330.99 136.39,1330.99 136.39,1327.4 139.99,1327.4 139.99,1320.2 143.58,1320.2 143.58,1316.61 147.18,1316.61 147.18,1309.42 150.78,1309.42 150.78,1305.82 154.37,1305.82 154.37,1302.23 157.97,1302.23 157.97,1298.63 161.57,1298.63 161.57,1295.03 165.16,1295.03 165.16,1291.44 168.76,1291.44 168.76,1287.84 172.36,1287.84 172.36,1280.65 175.95,1280.65 175.95,1277.05 179.55,1277.05 179.55,1273.46 186.74,1273.46 186.74,1269.86 190.34,1269.86 190.34,1266.26 193.93,1266.26 193.93,1262.67 201.12,1262.67 201.12,1259.07 204.72,1259.07 204.72,1255.47 211.91,1255.47 211.91,1251.88 219.1,1251.88 219.1,1248.28 229.89,1248.28 229.89,1244.68 237.09,1244.68 237.09,1241.09 251.47,1241.09 251.47,1237.49 319.8,1237.49 "/>
  <polygon id="root" class="fil1" points="298.22,126.28 301.82,126.28 301.82,129.88 305.41,129.88 305.41,133.48 309.01,133.48 309.01,140.67 312.61,140.67 312.61,147.86 316.2,147.86 316.2,158.65 319.8,158.65 319.8,169.44 323.4,169.44 323.4,183.82 326.99,183.82 326.99,201.8 330.59,201.8 330.59,216.19 334.18,216.19 334.18,244.95 337.78,244.95 337.78,284.52 341.37,284.52 341.37,320.47 344.97,320.47 344.97,370.82 348.57,370.82 348.57,399.59 352.16,399.59 352.16,449.94 355.76,449.94 355.76,471.51 359.35,471.51 359.35,496.69 362.95,496.69 362.95,514.67 366.55,514.67 366.55,529.05 370.14,529.05 370.14,557.82 373.74,557.82 373.74,568.61 377.34,568.61 377.34,582.99 380.93,582.99 380.93,608.17 384.53,608.17 384.53,626.15 388.13,626.15 388.13,644.13 391.72,644.13 391.72,662.11 395.32,662.11 395.32,676.49 398.91,676.49 398.91,701.67 402.51,701.67 402.51,719.65 406.11,719.65 406.11,744.82 409.7,744.82 409.7,759.21 413.3,759.21 413.3,787.98 416.89,787.98 416.89,820.34 420.49,820.34 420.49,841.92 424.08,841.92 424.08,877.88 427.68,877.88 427.68,946.2 431.28,946.2 431.28,982.17 434.87,982.17 434.87,1036.11 438.47,1036.11 438.47,1097.24 442.07,1097.24 442.07,1133.21 445.66,1133.21 445.66,1190.74 449.26,1190.74 449.26,1219.51 452.86,1219.51 452.86,1259.07 456.45,1259.07 456.45,1291.44 460.05,1291.44 460.05,1327.4 463.64,1327.4 463.64,1348.98 460.05,1348.98 460.05,1341.78 456.45,1341.78 456.45,1334.59 452.86,1334.59 452.86,1327.4 449.26,1327.4 449.26,1323.8 445.66,1323.8 445.66,1316.61 442.07,1316.61 442.07,1313.01 438.47,1313.01 438.47,1305.82 434.87,1305.82 434.87,1298.63 431.28,1298.63 431.28,1295.03 427.68,1295.03 427.68,1291.44 424.08,1291.44 424.08,1287.84 420.49,1287.84 420.49,1280.65 416.89,1280.65 416.89,1277.05 413.3,1277.05 413.3,1273.46 409.7,1273.46 409.7,1269.86 406.11,1269.86 406.11,1266.26 402.51,1266.26 402.51,1262.67 398.91,1262.67 398.91,1259.07 395.32,1259.07 395.32,1255.47 391.72,1255.47 391.72,1251.88 388.13,1251.88 388.13,1248.28 380.93,1248.28 380.93,1244.68 377.34,1244.68 377.34,1241.09 373.74,1241.09 373.74,1237.49 366.55,1237.49 366.55,1233.9 359.35,1233.9 359.35,1230.3 352.16,1230.3 352.16,1226.71 341.37,1226.71 341.37,1223.11 326.99,1223.11 326.99,1219.51 309.01,1219.51 309.01,1215.92 255.07,1215.92 255.07,1219.51 240.68,1219.51 240.68,1223.11 229.89,1223.11 229.89,1226.71 219.1,1226.71 219.1,1230.3 208.31,1230.3 208.31,1233.9 201.12,1233.9 201.12,1237.49 193.93,1237.49 193.93,1241.09 190.34,1241.09 190.34,1244.68 183.14,1244.68 183.14,1248.28 179.55,1248.28 179.55,1251.88 175.95,1251.88 175.95,1255.47 172.36,1255.47 172.36,1259.07 168.76,1259.07 168.76,1262.67 165.16,1262.67 165.16,1266.26 161.57,1266.26 161.57,1269.86 154.37,1269.86 154.37,1277.05 150.78,1277.05 150.78,1280.65 147.18,1280.65 147.18,1284.25 143.58,1284.25 143.58,1287.84 139.99,1287.84 139.99,1291.44 136.39,1291.44 136.39,1295.03 132.8,1295.03 132.8,1302.23 129.2,1302.23 129.2,1305.82 125.6,1305.82 125.6,1309.42 122.01,1309.42 122.01,1316.61 118.41,1316.61 118.41,1320.2 114.82,1320.2 114.82,1327.4 111.22,1327.4 111.22,1330.99 107.63,1330.99 107.63,1338.19 104.03,1338.19 104.03,1345.38 100.43,1345.38 100.43,1352.57 96.84,1352.57 96.84,1359.77 93.24,1359.77 93.24,1366.96 89.64,1366.96 89.64,1370.55 86.05,1370.55 86.05,1356.17 89.64,1356.17 89.64,1320.2 93.24,1320.2 93.24,1280.65 96.84,1280.65 96.84,1248.28 100.43,1248.28 100.43,1208.73 104.03,1208.73 104.03,1165.57 107.63,1165.57 107.63,1111.63 111.22,1111.63 111.22,1075.67 114.82,1075.67 114.82,1010.94 118.41,1010.94 118.41,971.38 122.01,971.38 122.01,931.82 125.6,931.82 125.6,881.47 129.2,881.47 129.2,845.52 132.8,845.52 132.8,795.17 136.39,795.17 136.39,773.59 139.99,773.59 139.99,730.44 143.58,730.44 143.58,694.48 147.18,694.48 147.18,658.51 150.78,658.51 150.78,626.15 154.37,626.15 154.37,593.78 157.97,593.78 157.97,565.02 161.57,565.02 161.57,536.24 165.16,536.24 165.16,521.86 168.76,521.86 168.76,493.09 172.36,493.09 172.36,464.32 175.95,464.32 175.95,449.94 179.55,449.94 179.55,424.77 183.14,424.77 183.14,403.19 186.74,403.19 186.74,392.4 190.34,392.4 190.34,370.82 193.93,370.82 193.93,360.03 197.53,360.03 197.53,345.65 201.12,345.65 201.12,327.67 204.72,327.67 204.72,316.88 208.31,316.88 208.31,298.9 211.91,298.9 211.91,288.11 215.51,288.11 215.51,273.73 219.1,273.73 219.1,262.94 222.7,262.94 222.7,252.15 226.3,252.15 226.3,241.36 229.89,241.36 229.89,226.98 233.49,226.98 233.49,216.19 237.09,216.19 237.09,205.4 240.68,205.4 240.68,198.21 244.28,198.21 244.28,187.42 247.88,187.42 247.88,176.63 251.47,176.63 251.47,169.44 255.07,169.44 255.07,158.65 258.66,158.65 258.66,151.46 262.26,151.46 262.26,147.86 265.86,147.86 265.86,140.67 269.45,140.67 269.45,133.48 273.05,133.48 273.05,129.88 276.64,129.88 276.64,126.28 283.83,126.28 283.83,122.69 298.22,122.69 "/>
  <path id="outline" class="fil2" d="M539.16 1766.13l-3.59 0 0 -32.37 -3.6 0 0 -32.36 -3.59 0 0 -21.58 -3.6 0 0 -25.17 -3.6 0 0 -21.58 -3.59 0 0 -10.79 -3.6 0 0 -21.58 -3.6 0 0 -21.57 -3.59 0 0 -14.38 -3.6 0 0 -14.39 -3.6 0 0 -14.39 -3.59 0 0 -14.38 -3.6 0 0 -14.38 -3.6 0 0 -10.79 -3.59 0 0 -17.98 -3.6 0 0 -7.2 -3.59 0 0 -14.38 -3.6 0 0 -14.39 -3.59 0 0 -14.38 -3.6 0 0 -7.19 -3.6 0 0 -14.39 -3.59 0 0 -10.79 -3.6 0 0 -10.78 -3.59 0 0 -7.2 -3.6 0 0 -7.19 -3.6 0 0 -7.19 -3.59 0 0 -7.19 -3.6 0 0 -7.19 -3.6 0 0 -7.2 -3.59 0 0 -7.19 -3.6 0 0 -3.6 -3.6 0 0 -7.19 -3.59 0 0 -3.6 -3.6 0 0 -7.19 -3.59 0 0 -3.59 -3.6 0 0 -7.19 -3.59 0 0 -3.6 -3.6 0 0 -3.6 -3.6 0 0 -3.59 -3.59 0 0 -7.19 -3.6 0 0 -3.6 -3.59 0 0 -3.6 -3.6 0 0 -3.59 -3.6 0 0 -3.6 -3.59 0 0 -3.6 -7.2 0 0 -3.59 -3.59 0 0 -3.6 -7.2 0 0 -3.6 -3.59 0 0 -3.59 -7.19 0 0 -3.6 -7.2 0 0 -3.6 -10.78 0 0 -3.59 -10.79 0 0 -3.6 -68.33 0 0 3.6 -14.38 0 0 3.59 -7.2 0 0 3.6 -10.79 0 0 3.6 -7.19 0 0 3.59 -7.19 0 0 3.6 -3.6 0 0 3.6 -7.19 0 0 3.59 -3.59 0 0 3.6 -3.6 0 0 3.6 -7.19 0 0 3.59 -3.6 0 0 3.6 -3.59 0 0 7.19 -3.6 0 0 3.6 -3.6 0 0 3.59 -3.59 0 0 3.6 -3.6 0 0 3.6 -3.6 0 0 3.59 -3.59 0 0 3.6 -3.6 0 0 7.19 -3.6 0 0 3.59 -3.59 0 0 7.2 -3.6 0 0 3.59 -3.59 0 0 7.2 -3.6 0 0 3.59 -3.6 0 0 7.2 -3.59 0 0 7.19 -3.6 0 0 7.19 -3.59 0 0 7.19 -3.6 0 0 7.19 -3.59 0 0 7.2 -3.6 0 0 7.19 -3.6 0 0 10.79 -3.59 0 0 7.19 -3.6 0 0 10.79 -3.6 0 0 10.79 -3.59 0 0 10.78 -3.6 0 0 10.79 -3.6 0 0 10.79 -3.59 0 0 10.79 -3.6 0 0 10.79 -3.59 0 0 10.79 -3.6 0 0 17.98 -3.6 0 0 14.38 -3.59 0 0 10.79 -3.6 0 0 17.98 -3.59 0 0 10.79 -3.6 0 0 28.77 -3.59 0 0 14.38 -3.6 0 0 21.58 -3.6 0 0 17.98 -3.59 0 0 32.37 -3.6 0 0 35.96 -3.6 0 0 61.13 -3.59 0 0 151.04 3.59 0 0 32.37 3.6 0 0 10.78 3.6 0 0 7.2 3.59 0 0 7.19 3.6 0 0 3.6 3.6 0 0 3.59 7.19 0 0 3.6 7.19 0 0 3.6 7.19 0 0 3.59 35.96 0 0 3.6 32.37 0 0 3.59 68.32 0 0 3.6 122.28 0 0 -3.6 50.34 0 0 -3.59 35.96 0 0 -3.6 25.17 0 0 -3.59 17.99 0 0 -3.6 14.38 0 0 -3.6 10.79 0 0 -3.59 10.78 0 0 -3.6 3.6 0 0 -3.6 7.19 0 0 -3.59 3.6 0 0 -3.6 3.6 0 0 -3.6 3.59 0 0 -3.59 3.6 0 0 -3.6 3.6 0 0 -7.19 3.59 0 0 -7.19 3.6 0 0 -14.38 3.6 0 0 -14.39 3.59 0 0 -35.96 3.6 0 0 -43.15 3.59 0 0 -79.12zm-230.15 -546.62l17.98 0 0 3.6 14.38 0 0 3.6 10.79 0 0 3.59 7.19 0 0 3.6 7.2 0 0 3.59 7.19 0 0 3.6 3.6 0 0 3.59 3.59 0 0 3.6 7.2 0 0 3.6 3.59 0 0 3.59 3.6 0 0 3.6 3.59 0 0 3.6 3.6 0 0 3.59 3.6 0 0 3.6 3.59 0 0 3.6 3.6 0 0 3.59 3.59 0 0 3.6 3.6 0 0 7.19 3.59 0 0 3.6 3.6 0 0 3.59 3.6 0 0 3.6 3.59 0 0 7.19 3.6 0 0 7.19 3.6 0 0 3.6 3.59 0 0 7.19 3.6 0 0 3.6 3.6 0 0 7.19 3.59 0 0 7.19 3.6 0 0 7.2 3.59 0 0 -21.58 -3.59 0 0 -35.96 -3.6 0 0 -32.37 -3.59 0 0 -39.56 -3.6 0 0 -28.77 -3.6 0 0 -57.53 -3.59 0 0 -35.97 -3.6 0 0 -61.13 -3.6 0 0 -53.94 -3.59 0 0 -35.97 -3.6 0 0 -68.32 -3.6 0 0 -35.96 -3.59 0 0 -21.58 -3.6 0 0 -32.36 -3.59 0 0 -28.77 -3.6 0 0 -14.39 -3.59 0 0 -25.17 -3.6 0 0 -17.98 -3.6 0 0 -25.18 -3.59 0 0 -14.38 -3.6 0 0 -17.98 -3.59 0 0 -17.98 -3.6 0 0 -17.98 -3.6 0 0 -25.18 -3.59 0 0 -14.38 -3.6 0 0 -10.79 -3.6 0 0 -28.77 -3.59 0 0 -14.38 -3.6 0 0 -17.98 -3.6 0 0 -25.18 -3.59 0 0 -21.57 -3.6 0 0 -50.35 -3.59 0 0 -28.77 -3.6 0 0 -50.35 -3.6 0 0 -35.95 -3.59 0 0 -39.57 -3.6 0 0 -28.76 -3.59 0 0 -14.39 -3.6 0 0 -17.98 -3.59 0 0 -14.38 -3.6 0 0 -10.79 -3.6 0 0 -10.79 -3.59 0 0 -7.19 -3.6 0 0 -7.19 -3.6 0 0 -3.6 -3.59 0 0 -3.6 -3.6 0 0 -3.59 -14.39 0 0 3.59 -7.19 0 0 3.6 -3.59 0 0 3.6 -3.6 0 0 7.19 -3.59 0 0 7.19 -3.6 0 0 3.6 -3.6 0 0 7.19 -3.59 0 0 10.79 -3.6 0 0 7.19 -3.59 0 0 10.79 -3.6 0 0 10.79 -3.6 0 0 7.19 -3.59 0 0 10.79 -3.6 0 0 10.79 -3.6 0 0 14.38 -3.59 0 0 10.79 -3.6 0 0 10.79 -3.6 0 0 10.79 -3.59 0 0 14.38 -3.6 0 0 10.79 -3.6 0 0 17.98 -3.59 0 0 10.79 -3.6 0 0 17.98 -3.59 0 0 14.38 -3.6 0 0 10.79 -3.59 0 0 21.58 -3.6 0 0 10.79 -3.6 0 0 21.58 -3.59 0 0 25.17 -3.6 0 0 14.38 -3.59 0 0 28.77 -3.6 0 0 28.77 -3.6 0 0 14.38 -3.59 0 0 28.78 -3.6 0 0 28.76 -3.6 0 0 32.37 -3.59 0 0 32.36 -3.6 0 0 35.97 -3.6 0 0 35.96 -3.59 0 0 43.15 -3.6 0 0 21.58 -3.59 0 0 50.35 -3.6 0 0 35.95 -3.6 0 0 50.35 -3.59 0 0 39.56 -3.6 0 0 39.56 -3.59 0 0 64.73 -3.6 0 0 35.96 -3.59 0 0 53.94 -3.6 0 0 43.16 -3.6 0 0 39.55 -3.59 0 0 32.37 -3.6 0 0 39.55 -3.6 0 0 35.97 -3.59 0 0 14.38 3.59 0 0 -3.59 3.6 0 0 -7.19 3.6 0 0 -7.2 3.59 0 0 -7.19 3.6 0 0 -7.19 3.6 0 0 -7.2 3.59 0 0 -3.59 3.6 0 0 -7.2 3.59 0 0 -3.59 3.6 0 0 -7.19 3.59 0 0 -3.6 3.6 0 0 -3.59 3.6 0 0 -7.2 3.59 0 0 -3.59 3.6 0 0 -3.6 3.59 0 0 -3.59 3.6 0 0 -3.6 3.6 0 0 -3.6 3.59 0 0 -7.19 7.2 0 0 -3.6 3.59 0 0 -3.59 3.6 0 0 -3.6 3.6 0 0 -3.6 3.59 0 0 -3.59 3.6 0 0 -3.6 3.59 0 0 -3.6 7.2 0 0 -3.59 3.59 0 0 -3.6 7.19 0 0 -3.59 7.19 0 0 -3.6 10.79 0 0 -3.59 10.79 0 0 -3.6 10.79 0 0 -3.6 14.39 0 0 -3.59 53.94 0 0 3.59zm-7.19 -1114.81l7.19 0 0 3.6 7.19 0 0 3.6 3.6 0 0 3.59 3.6 0 0 3.6 3.59 0 0 7.19 3.6 0 0 3.6 3.59 0 0 10.79 3.6 0 0 7.19 3.59 0 0 10.79 3.6 0 0 17.98 3.6 0 0 10.79 3.59 0 0 21.58 3.6 0 0 35.95 3.59 0 0 28.78 3.6 0 0 25.17 3.6 0 0 61.13 3.59 0 0 50.35 3.6 0 0 17.98 3.6 0 0 32.36 3.59 0 0 17.99 3.6 0 0 17.98 3.6 0 0 28.77 3.59 0 0 10.78 3.6 0 0 25.18 3.59 0 0 21.57 3.6 0 0 10.79 3.6 0 0 25.18 3.59 0 0 17.98 3.6 0 0 21.57 3.59 0 0 17.98 3.6 0 0 14.39 3.59 0 0 17.98 3.6 0 0 21.58 3.6 0 0 32.36 3.59 0 0 21.58 3.6 0 0 17.98 3.6 0 0 35.96 3.59 0 0 32.37 3.6 0 0 53.94 3.6 0 0 32.36 3.59 0 0 61.14 3.6 0 0 43.15 3.59 0 0 68.33 3.6 0 0 46.75 3.6 0 0 57.54 3.59 0 0 17.98 3.6 0 0 35.96 3.59 0 0 39.56 3.6 0 0 28.77 3.59 0 0 25.17 3.6 0 0 46.75 3.6 0 0 17.98 3.59 0 0 10.79 3.6 0 0 17.98 3.6 0 0 7.19 3.59 0 0 21.58 3.6 0 0 14.38 3.6 0 0 14.39 3.59 0 0 14.38 3.6 0 0 14.39 3.6 0 0 17.98 3.59 0 0 10.79 3.6 0 0 21.57 3.59 0 0 17.99 3.6 0 0 25.17 3.6 0 0 17.98 3.59 0 0 21.58 3.6 0 0 25.17 3.59 0 0 21.57 3.6 0 0 133.06 -3.6 0 0 32.37 -3.59 0 0 25.17 -3.6 0 0 14.39 -3.59 0 0 10.78 -3.6 0 0 7.2 -3.6 0 0 10.78 -3.59 0 0 7.2 -3.6 0 0 3.59 -3.59 0 0 3.6 -3.6 0 0 3.6 -3.6 0 0 3.59 -3.59 0 0 3.6 -7.2 0 0 3.6 -3.59 0 0 3.59 -7.2 0 0 3.6 -7.19 0 0 3.59 -7.19 0 0 3.6 -10.79 0 0 3.59 -14.38 0 0 3.6 -17.98 0 0 3.6 -17.99 0 0 3.59 -32.36 0 0 3.6 -64.73 0 0 3.59 -161.83 0 0 -3.59 -43.15 0 0 -3.6 -43.16 0 0 -3.59 -14.38 0 0 -3.6 -14.38 0 0 -3.6 -7.19 0 0 -3.59 -7.2 0 0 -3.6 -3.59 0 0 -3.59 -3.6 0 0 -3.6 -3.6 0 0 -3.59 -3.59 0 0 -3.6 -3.6 0 0 -3.6 -3.6 0 0 -7.19 -3.59 0 0 -7.19 -3.6 0 0 -14.39 -3.6 0 0 -14.38 -3.59 0 0 -197.79 3.59 0 0 -46.75 3.6 0 0 -43.15 3.6 0 0 -14.39 3.59 0 0 -28.77 3.6 0 0 -21.58 3.6 0 0 -21.57 3.59 0 0 -14.38 3.6 0 0 -17.99 3.6 0 0 -10.79 3.59 0 0 -14.38 3.6 0 0 -14.38 3.6 0 0 -14.39 3.59 0 0 -7.19 3.6 0 0 -14.39 3.59 0 0 -14.38 3.6 0 0 -14.39 3.59 0 0 -35.96 3.6 0 0 -35.96 3.6 0 0 -50.35 3.59 0 0 -35.95 3.6 0 0 -43.16 3.59 0 0 -43.15 3.6 0 0 -64.73 3.6 0 0 -28.77 3.59 0 0 -50.35 3.6 0 0 -39.56 3.6 0 0 -61.13 3.59 0 0 -28.77 3.6 0 0 -57.54 3.6 0 0 -35.96 3.59 0 0 -39.56 3.6 0 0 -43.15 3.59 0 0 -25.17 3.6 0 0 -35.97 3.59 0 0 -43.15 3.6 0 0 -39.56 3.6 0 0 -25.17 3.59 0 0 -21.58 3.6 0 0 -28.77 3.59 0 0 -28.76 3.6 0 0 -21.58 3.6 0 0 -21.58 3.59 0 0 -17.98 3.6 0 0 -17.98 3.6 0 0 -14.39 3.59 0 0 -21.58 3.6 0 0 -21.57 3.6 0 0 -14.38 3.59 0 0 -14.39 3.6 0 0 -14.39 3.59 0 0 -14.38 3.6 0 0 -14.38 3.6 0 0 -7.19 3.59 0 0 -14.39 3.6 0 0 -10.79 3.59 0 0 -14.39 3.6 0 0 -10.78 3.59 0 0 -14.39 3.6 0 0 -10.78 3.6 0 0 -10.79 3.59 0 0 -7.2 3.6 0 0 -10.79 3.6 0 0 -10.78 3.59 0 0 -7.19 3.6 0 0 -7.2 3.6 0 0 -7.19 3.59 0 0 -7.19 3.6 0 0 -7.19 3.6 0 0 -7.2 3.59 0 0 -3.59 3.6 0 0 -3.6 3.59 0 0 -3.6 3.6 0 0 -3.59 3.6 0 0 -3.6 3.59 0 0 -3.6 7.19 0 0 -3.59 25.18 0 0 3.59z"/>
 </g>
</svg>