<?xml version="1.0" encoding="UTF-8"?>
<!DOCTYPE svg PUBLIC "-//W3C//DTD SVG 1.1//EN" "http://www.w3.org/Graphics/SVG/1.1/DTD/svg11.dtd">
<!-- Creator: CorelDRAW (Versión de evaluación) -->
<svg xmlns="http://www.w3.org/2000/svg" xml:space="preserve" width="561px" height="2062px" version="1.1" style="shape-rendering:geometricPrecision; text-rendering:geometricPrecision; image-rendering:optimizeQuality; fill-rule:evenodd; clip-rule:evenodd"
viewBox="0 0 561 2060.59"
 xmlns:xlink="http://www.w3.org/1999/xlink"
 xmlns:xodm="http://www.corel.com/coreldraw/odm/2003">
 <defs>
  <style type="text/css">
   <![CDATA[
    .fil2 {fill:#4B4B4D}
    .fil0 {fill:#EDEAE0}
    .fil1 {fill:#F2E6C9}
   ]]>
  </style>
 </defs>
 <g id="original">
  <metadata id="CorelCorpID_0Corel-Layer"/>
  <polygon id="crown" class="fil0" points="240.68,1241.09 229.9,1241.09 229.9,1244.68 219.11,1244.68 219.11,1248.28 211.92,1248.28 211.92,1251.88 204.72,1251.88 204.72,1255.47 201.13,1255.47 201.13,1259.07 193.93,1259.07 193.93,1262.67 190.34,1262.67 190.34,1266.26 183.14,1266.26 183.14,1269.86 179.55,1269.86 179.55,1273.46 175.95,1273.46 175.95,1277.05 172.36,1277.05 172.36,1280.65 168.76,1280.65 168.76,1284.25 165.16,1284.25 165.16,1291.44 161.57,1291.44 161.57,1295.03 157.97,1295.03 157.97,1298.63 154.38,1298.63 154.38,1302.23 150.78,1302.23 150.78,1309.42 147.18,1309.42 147.18,1313.01 143.59,1313.01 143.59,1320.2 139.99,1320.2 139.99,1323.8 136.4,1323.8 136.4,1330.99 132.8,1330.99 132.8,1334.59 129.2,1334.59 129.2,1341.78 125.61,1341.78 125.61,1348.98 122.01,1348.98 122.01,1356.17 118.41,1356.17 118.41,1363.36 114.82,1363.36 114.82,1370.55 111.22,1370.55 111.22,1377.74 107.62,1377.74 107.62,1384.94 104.03,1384.94 104.03,1395.72 100.43,1395.72 100.43,1406.51 96.84,1406.51 96.84,1420.9 93.24,1420.9 93.24,1428.09 89.64,1428.09 89.64,1442.47 86.05,1442.47 86.05,1456.86 82.45,1456.86 82.45,1471.24 78.86,1471.24 78.86,1478.44 75.26,1478.44 75.26,1496.42 71.67,1496.42 71.67,1507.21 68.07,1507.21 68.07,1521.59 64.47,1521.59 64.47,1535.97 60.88,1535.97 60.88,1550.36 57.28,1550.36 57.28,1564.75 53.68,1564.75 53.68,1579.13 50.09,1579.13 50.09,1600.7 46.49,1600.7 46.49,1622.28 42.89,1622.28 42.89,1633.07 39.3,1633.07 39.3,1654.65 35.7,1654.65 35.7,1679.82 32.1,1679.82 32.1,1701.4 28.51,1701.4 28.51,1733.76 24.91,1733.76 24.91,1766.13 21.32,1766.13 21.32,1845.25 24.91,1845.25 24.91,1888.4 28.51,1888.4 28.51,1924.36 32.1,1924.36 32.1,1938.75 35.7,1938.75 35.7,1953.13 39.3,1953.13 39.3,1960.32 42.89,1960.32 42.89,1967.51 46.49,1967.51 46.49,1971.11 50.09,1971.11 50.09,1974.7 53.68,1974.7 53.68,1978.3 57.28,1978.3 57.28,1981.9 60.88,1981.9 60.88,1985.49 68.07,1985.49 68.07,1989.09 71.67,1989.09 71.67,1992.69 82.45,1992.69 82.45,1996.28 93.24,1996.28 93.24,1999.88 107.62,1999.88 107.62,2003.48 125.61,2003.48 125.61,2007.07 150.78,2007.07 150.78,2010.67 186.74,2010.67 186.74,2014.26 237.09,2014.26 237.09,2017.86 359.36,2017.86 359.36,2014.26 427.68,2014.26 427.68,2010.67 460.05,2010.67 460.05,2007.07 496.01,2007.07 496.01,2003.48 503.2,2003.48 503.2,1999.88 510.4,1999.88 510.4,1996.28 517.59,1996.28 517.59,1992.69 521.18,1992.69 521.18,1989.09 524.78,1989.09 524.78,1981.9 528.38,1981.9 528.38,1974.7 531.97,1974.7 531.97,1963.92 535.57,1963.92 535.57,1931.55 539.16,1931.55 539.16,1780.51 535.57,1780.51 535.57,1719.38 531.97,1719.38 531.97,1683.42 528.38,1683.42 528.38,1651.05 524.78,1651.05 524.78,1633.07 521.18,1633.07 521.18,1611.49 517.59,1611.49 517.59,1597.11 513.99,1597.11 513.99,1568.34 510.4,1568.34 510.4,1557.55 506.8,1557.55 506.8,1539.57 503.2,1539.57 503.2,1528.78 499.61,1528.78 499.61,1514.4 496.01,1514.4 496.01,1496.42 492.42,1496.42 492.42,1485.63 488.82,1485.63 488.82,1474.84 485.22,1474.84 485.22,1464.05 481.63,1464.05 481.63,1453.26 478.03,1453.26 478.03,1442.47 474.43,1442.47 474.43,1431.69 470.84,1431.69 470.84,1420.9 467.24,1420.9 467.24,1410.11 463.64,1410.11 463.64,1402.92 460.05,1402.92 460.05,1392.13 456.45,1392.13 456.45,1384.94 452.86,1384.94 452.86,1377.74 449.26,1377.74 449.26,1370.55 445.66,1370.55 445.66,1363.36 442.07,1363.36 442.07,1356.17 438.47,1356.17 438.47,1348.98 434.88,1348.98 434.88,1341.78 431.28,1341.78 431.28,1338.19 427.68,1338.19 427.68,1330.99 424.09,1330.99 424.09,1327.4 420.49,1327.4 420.49,1320.2 416.9,1320.2 416.9,1316.61 413.3,1316.61 413.3,1309.42 409.7,1309.42 409.7,1305.82 406.11,1305.82 406.11,1302.23 402.51,1302.23 402.51,1298.63 398.91,1298.63 398.91,1295.03 395.32,1295.03 395.32,1291.44 391.72,1291.44 391.72,1287.84 388.12,1287.84 388.12,1280.65 384.53,1280.65 384.53,1277.05 380.93,1277.05 380.93,1273.46 373.74,1273.46 373.74,1269.86 370.14,1269.86 370.14,1266.26 366.55,1266.26 366.55,1262.67 359.36,1262.67 359.36,1259.07 355.76,1259.07 355.76,1255.47 348.57,1255.47 348.57,1251.88 341.38,1251.88 341.38,1248.28 330.59,1248.28 330.59,1244.68 323.39,1244.68 323.39,1241.09 309.01,1241.09 309.01,1237.49 240.68,1237.49 "/>
  <polygon id="root" class="fil1" points="262.26,126.28 258.66,126.28 258.66,129.88 255.07,129.88 255.07,133.48 251.47,133.48 251.47,140.67 247.87,140.67 247.87,147.86 244.28,147.86 244.28,158.65 240.68,158.65 240.68,169.44 237.09,169.44 237.09,183.82 233.49,183.82 233.49,201.8 229.9,201.8 229.9,216.19 226.3,216.19 226.3,244.95 222.7,244.95 222.7,284.52 219.11,284.52 219.11,320.47 215.51,320.47 215.51,370.82 211.92,370.82 211.92,399.59 208.32,399.59 208.32,449.94 204.72,449.94 204.72,471.51 201.13,471.51 201.13,496.69 197.53,496.69 197.53,514.67 193.93,514.67 193.93,529.05 190.34,529.05 190.34,557.82 186.74,557.82 186.74,568.61 183.14,568.61 183.14,582.99 179.55,582.99 179.55,608.17 175.95,608.17 175.95,626.15 172.36,626.15 172.36,644.13 168.76,644.13 168.76,662.11 165.16,662.11 165.16,676.49 161.57,676.49 161.57,701.67 157.97,701.67 157.97,719.65 154.38,719.65 154.38,744.82 150.78,744.82 150.78,759.21 147.18,759.21 147.18,787.98 143.59,787.98 143.59,820.34 139.99,820.34 139.99,841.92 136.4,841.92 136.4,877.88 132.8,877.88 132.8,946.2 129.2,946.2 129.2,982.17 125.61,982.17 125.61,1036.11 122.01,1036.11 122.01,1097.24 118.41,1097.24 118.41,1133.21 114.82,1133.21 114.82,1190.74 111.22,1190.74 111.22,1219.51 107.62,1219.51 107.62,1259.07 104.03,1259.07 104.03,1291.44 100.43,1291.44 100.43,1327.4 96.84,1327.4 96.84,1348.98 100.43,1348.98 100.43,1341.78 104.03,1341.78 104.03,1334.59 107.62,1334.59 107.62,1327.4 111.22,1327.4 111.22,1323.8 114.82,1323.8 114.82,1316.61 118.41,1316.61 118.41,1313.01 122.01,1313.01 122.01,1305.82 125.61,1305.82 125.61,1298.63 129.2,1298.63 129.2,1295.03 132.8,1295.03 132.8,1291.44 136.4,1291.44 136.4,1287.84 139.99,1287.84 139.99,1280.65 143.59,1280.65 143.59,1277.05 147.18,1277.05 147.18,1273.46 150.78,1273.46 150.78,1269.86 154.38,1269.86 154.38,1266.26 157.97,1266.26 157.97,1262.67 161.57,1262.67 161.57,1259.07 165.16,1259.07 165.16,1255.47 168.76,1255.47 168.76,1251.88 172.36,1251.88 172.36,1248.28 179.55,1248.28 179.55,1244.68 183.14,1244.68 183.14,1241.09 186.74,1241.09 186.74,1237.49 193.93,1237.49 193.93,1233.9 201.13,1233.9 201.13,1230.3 208.32,1230.3 208.32,1226.71 219.11,1226.71 219.11,1223.11 233.49,1223.11 233.49,1219.51 251.47,1219.51 251.47,1215.92 305.41,1215.92 305.41,1219.51 319.8,1219.51 319.8,1223.11 330.59,1223.11 330.59,1226.71 341.38,1226.71 341.38,1230.3 352.17,1230.3 352.17,1233.9 359.36,1233.9 359.36,1237.49 366.55,1237.49 366.55,1241.09 370.14,1241.09 370.14,1244.68 377.34,1244.68 377.34,1248.28 380.93,1248.28 380.93,1251.88 384.53,1251.88 384.53,1255.47 388.12,1255.47 388.12,1259.07 391.72,1259.07 391.72,1262.67 395.32,1262.67 395.32,1266.26 398.91,1266.26 398.91,1269.86 406.11,1269.86 406.11,1277.05 409.7,1277.05 409.7,1280.65 413.3,1280.65 413.3,1284.25 416.9,1284.25 416.9,1287.84 420.49,1287.84 420.49,1291.44 424.09,1291.44 424.09,1295.03 427.68,1295.03 427.68,1302.23 431.28,1302.23 431.28,1305.82 434.88,1305.82 434.88,1309.42 438.47,1309.42 438.47,1316.61 442.07,1316.61 442.07,1320.2 445.66,1320.2 445.66,1327.4 449.26,1327.4 449.26,1330.99 452.86,1330.99 452.86,1338.19 456.45,1338.19 456.45,1345.38 460.05,1345.38 460.05,1352.57 463.64,1352.57 463.64,1359.77 467.24,1359.77 467.24,1366.96 470.84,1366.96 470.84,1370.55 474.43,1370.55 474.43,1356.17 470.84,1356.17 470.84,1320.2 467.24,1320.2 467.24,1280.65 463.64,1280.65 463.64,1248.28 460.05,1248.28 460.05,1208.73 456.45,1208.73 456.45,1165.57 452.86,1165.57 452.86,1111.63 449.26,1111.63 449.26,1075.67 445.66,1075.67 445.66,1010.94 442.07,1010.94 442.07,971.38 438.47,971.38 438.47,931.82 434.88,931.82 434.88,881.47 431.28,881.47 431.28,845.52 427.68,845.52 427.68,795.17 424.09,795.17 424.09,773.59 420.49,773.59 420.49,730.44 416.9,730.44 416.9,694.48 413.3,694.48 413.3,658.51 409.7,658.51 409.7,626.15 406.11,626.15 406.11,593.78 402.51,593.78 402.51,565.02 398.91,565.02 398.91,536.24 395.32,536.24 395.32,521.86 391.72,521.86 391.72,493.09 388.12,493.09 388.12,464.32 384.53,464.32 384.53,449.94 380.93,449.94 380.93,424.77 377.34,424.77 377.34,403.19 373.74,403.19 373.74,392.4 370.14,392.4 370.14,370.82 366.55,370.82 366.55,360.03 362.95,360.03 362.95,345.65 359.36,345.65 359.36,327.67 355.76,327.67 355.76,316.88 352.17,316.88 352.17,298.9 348.57,298.9 348.57,288.11 344.97,288.11 344.97,273.73 341.38,273.73 341.38,262.94 337.78,262.94 337.78,252.15 334.18,252.15 334.18,241.36 330.59,241.36 330.59,226.98 326.99,226.98 326.99,216.19 323.39,216.19 323.39,205.4 319.8,205.4 319.8,198.21 316.2,198.21 316.2,187.42 312.61,187.42 312.61,176.63 309.01,176.63 309.01,169.44 305.41,169.44 305.41,158.65 301.82,158.65 301.82,151.46 298.22,151.46 298.22,147.86 294.63,147.86 294.63,140.67 291.03,140.67 291.03,133.48 287.44,133.48 287.44,129.88 283.84,129.88 283.84,126.28 276.65,126.28 276.65,122.69 262.26,122.69 "/>
  <path id="outline" class="fil2" d="M21.32 1766.13l3.59 0 0 -32.37 3.6 0 0 -32.36 3.59 0 0 -21.58 3.6 0 0 -25.17 3.6 0 0 -21.58 3.59 0 0 -10.79 3.6 0 0 -21.58 3.6 0 0 -21.57 3.59 0 0 -14.38 3.6 0 0 -14.39 3.6 0 0 -14.39 3.59 0 0 -14.38 3.6 0 0 -14.38 3.6 0 0 -10.79 3.59 0 0 -17.98 3.6 0 0 -7.2 3.59 0 0 -14.38 3.6 0 0 -14.39 3.59 0 0 -14.38 3.6 0 0 -7.19 3.6 0 0 -14.39 3.59 0 0 -10.79 3.6 0 0 -10.78 3.59 0 0 -7.2 3.6 0 0 -7.19 3.6 0 0 -7.19 3.59 0 0 -7.19 3.6 0 0 -7.19 3.6 0 0 -7.2 3.59 0 0 -7.19 3.6 0 0 -3.6 3.6 0 0 -7.19 3.59 0 0 -3.6 3.6 0 0 -7.19 3.59 0 0 -3.59 3.6 0 0 -7.19 3.6 0 0 -3.6 3.59 0 0 -3.6 3.6 0 0 -3.59 3.59 0 0 -7.19 3.6 0 0 -3.6 3.6 0 0 -3.6 3.59 0 0 -3.59 3.6 0 0 -3.6 3.59 0 0 -3.6 7.2 0 0 -3.59 3.59 0 0 -3.6 7.2 0 0 -3.6 3.59 0 0 -3.59 7.2 0 0 -3.6 7.19 0 0 -3.6 10.79 0 0 -3.59 10.78 0 0 -3.6 68.33 0 0 3.6 14.38 0 0 3.59 7.2 0 0 3.6 10.79 0 0 3.6 7.19 0 0 3.59 7.19 0 0 3.6 3.6 0 0 3.6 7.19 0 0 3.59 3.59 0 0 3.6 3.6 0 0 3.6 7.19 0 0 3.59 3.6 0 0 3.6 3.59 0 0 7.19 3.6 0 0 3.6 3.6 0 0 3.59 3.59 0 0 3.6 3.6 0 0 3.6 3.6 0 0 3.59 3.59 0 0 3.6 3.6 0 0 7.19 3.6 0 0 3.59 3.59 0 0 7.2 3.6 0 0 3.59 3.59 0 0 7.2 3.6 0 0 3.59 3.6 0 0 7.2 3.59 0 0 7.19 3.6 0 0 7.19 3.59 0 0 7.19 3.6 0 0 7.19 3.6 0 0 7.2 3.59 0 0 7.19 3.6 0 0 10.79 3.59 0 0 7.19 3.6 0 0 10.79 3.6 0 0 10.79 3.59 0 0 10.78 3.6 0 0 10.79 3.6 0 0 10.79 3.59 0 0 10.79 3.6 0 0 10.79 3.6 0 0 10.79 3.59 0 0 17.98 3.6 0 0 14.38 3.59 0 0 10.79 3.6 0 0 17.98 3.6 0 0 10.79 3.59 0 0 28.77 3.6 0 0 14.38 3.59 0 0 21.58 3.6 0 0 17.98 3.6 0 0 32.37 3.59 0 0 35.96 3.6 0 0 61.13 3.59 0 0 151.04 -3.59 0 0 32.37 -3.6 0 0 10.78 -3.59 0 0 7.2 -3.6 0 0 7.19 -3.6 0 0 3.6 -3.59 0 0 3.59 -7.19 0 0 3.6 -7.2 0 0 3.6 -7.19 0 0 3.59 -35.96 0 0 3.6 -32.37 0 0 3.59 -68.32 0 0 3.6 -122.27 0 0 -3.6 -50.35 0 0 -3.59 -35.96 0 0 -3.6 -25.17 0 0 -3.59 -17.99 0 0 -3.6 -14.38 0 0 -3.6 -10.79 0 0 -3.59 -10.78 0 0 -3.6 -3.6 0 0 -3.6 -7.19 0 0 -3.59 -3.6 0 0 -3.6 -3.6 0 0 -3.6 -3.59 0 0 -3.59 -3.6 0 0 -3.6 -3.6 0 0 -7.19 -3.59 0 0 -7.19 -3.6 0 0 -14.38 -3.6 0 0 -14.39 -3.59 0 0 -35.96 -3.6 0 0 -43.15 -3.59 0 0 -79.12zm230.15 -546.62l-17.98 0 0 3.6 -14.38 0 0 3.6 -10.79 0 0 3.59 -7.19 0 0 3.6 -7.2 0 0 3.59 -7.19 0 0 3.6 -3.6 0 0 3.59 -3.59 0 0 3.6 -7.19 0 0 3.6 -3.6 0 0 3.59 -3.6 0 0 3.6 -3.59 0 0 3.6 -3.6 0 0 3.59 -3.59 0 0 3.6 -3.6 0 0 3.6 -3.6 0 0 3.59 -3.59 0 0 3.6 -3.6 0 0 7.19 -3.59 0 0 3.6 -3.6 0 0 3.59 -3.6 0 0 3.6 -3.59 0 0 7.19 -3.6 0 0 7.19 -3.6 0 0 3.6 -3.59 0 0 7.19 -3.6 0 0 3.6 -3.6 0 0 7.19 -3.59 0 0 7.19 -3.6 0 0 7.2 -3.59 0 0 -21.58 3.59 0 0 -35.96 3.6 0 0 -32.37 3.59 0 0 -39.56 3.6 0 0 -28.77 3.6 0 0 -57.53 3.59 0 0 -35.97 3.6 0 0 -61.13 3.6 0 0 -53.94 3.59 0 0 -35.97 3.6 0 0 -68.32 3.6 0 0 -35.96 3.59 0 0 -21.58 3.6 0 0 -32.36 3.59 0 0 -28.77 3.6 0 0 -14.39 3.6 0 0 -25.17 3.59 0 0 -17.98 3.6 0 0 -25.18 3.59 0 0 -14.38 3.6 0 0 -17.98 3.6 0 0 -17.98 3.59 0 0 -17.98 3.6 0 0 -25.18 3.59 0 0 -14.38 3.6 0 0 -10.79 3.6 0 0 -28.77 3.59 0 0 -14.38 3.6 0 0 -17.98 3.6 0 0 -25.18 3.59 0 0 -21.57 3.6 0 0 -50.35 3.6 0 0 -28.77 3.59 0 0 -50.35 3.6 0 0 -35.95 3.59 0 0 -39.57 3.6 0 0 -28.76 3.6 0 0 -14.39 3.59 0 0 -17.98 3.6 0 0 -14.38 3.59 0 0 -10.79 3.6 0 0 -10.79 3.59 0 0 -7.19 3.6 0 0 -7.19 3.6 0 0 -3.6 3.59 0 0 -3.6 3.6 0 0 -3.59 14.39 0 0 3.59 7.19 0 0 3.6 3.6 0 0 3.6 3.59 0 0 7.19 3.6 0 0 7.19 3.59 0 0 3.6 3.6 0 0 7.19 3.59 0 0 10.79 3.6 0 0 7.19 3.6 0 0 10.79 3.59 0 0 10.79 3.6 0 0 7.19 3.59 0 0 10.79 3.6 0 0 10.79 3.6 0 0 14.38 3.59 0 0 10.79 3.6 0 0 10.79 3.6 0 0 10.79 3.59 0 0 14.38 3.6 0 0 10.79 3.6 0 0 17.98 3.59 0 0 10.79 3.6 0 0 17.98 3.59 0 0 14.38 3.6 0 0 10.79 3.59 0 0 21.58 3.6 0 0 10.79 3.6 0 0 21.58 3.59 0 0 25.17 3.6 0 0 14.38 3.59 0 0 28.77 3.6 0 0 28.77 3.6 0 0 14.38 3.59 0 0 28.78 3.6 0 0 28.76 3.6 0 0 32.37 3.59 0 0 32.36 3.6 0 0 35.97 3.6 0 0 35.96 3.59 0 0 43.15 3.6 0 0 21.58 3.59 0 0 50.35 3.6 0 0 35.95 3.6 0 0 50.35 3.59 0 0 39.56 3.6 0 0 39.56 3.59 0 0 64.73 3.6 0 0 35.96 3.6 0 0 53.94 3.59 0 0 43.16 3.6 0 0 39.55 3.59 0 0 32.37 3.6 0 0 39.55 3.6 0 0 35.97 3.59 0 0 14.38 -3.59 0 0 -3.59 -3.6 0 0 -7.19 -3.6 0 0 -7.2 -3.59 0 0 -7.19 -3.6 0 0 -7.19 -3.59 0 0 -7.2 -3.6 0 0 -3.59 -3.6 0 0 -7.2 -3.59 0 0 -3.59 -3.6 0 0 -7.19 -3.59 0 0 -3.6 -3.6 0 0 -3.59 -3.6 0 0 -7.2 -3.59 0 0 -3.59 -3.6 0 0 -3.6 -3.59 0 0 -3.59 -3.6 0 0 -3.6 -3.6 0 0 -3.6 -3.59 0 0 -7.19 -7.2 0 0 -3.6 -3.59 0 0 -3.59 -3.6 0 0 -3.6 -3.6 0 0 -3.6 -3.59 0 0 -3.59 -3.6 0 0 -3.6 -3.59 0 0 -3.6 -7.2 0 0 -3.59 -3.59 0 0 -3.6 -7.19 0 0 -3.59 -7.19 0 0 -3.6 -10.79 0 0 -3.59 -10.79 0 0 -3.6 -10.79 0 0 -3.6 -14.39 0 0 -3.59 -53.94 0 0 3.59zm7.19 -1114.81l-7.19 0 0 3.6 -7.19 0 0 3.6 -3.6 0 0 3.59 -3.59 0 0 3.6 -3.6 0 0 7.19 -3.59 0 0 3.6 -3.6 0 0 10.79 -3.6 0 0 7.19 -3.59 0 0 10.79 -3.6 0 0 17.98 -3.59 0 0 10.79 -3.6 0 0 21.58 -3.6 0 0 35.95 -3.59 0 0 28.78 -3.6 0 0 25.17 -3.6 0 0 61.13 -3.59 0 0 50.35 -3.6 0 0 17.98 -3.6 0 0 32.36 -3.59 0 0 17.99 -3.6 0 0 17.98 -3.59 0 0 28.77 -3.6 0 0 10.78 -3.6 0 0 25.18 -3.59 0 0 21.57 -3.6 0 0 10.79 -3.59 0 0 25.18 -3.6 0 0 17.98 -3.6 0 0 21.57 -3.59 0 0 17.98 -3.6 0 0 14.39 -3.59 0 0 17.98 -3.6 0 0 21.58 -3.6 0 0 32.36 -3.59 0 0 21.58 -3.6 0 0 17.98 -3.6 0 0 35.96 -3.59 0 0 32.37 -3.6 0 0 53.94 -3.6 0 0 32.36 -3.59 0 0 61.14 -3.6 0 0 43.15 -3.59 0 0 68.33 -3.6 0 0 46.75 -3.6 0 0 57.54 -3.59 0 0 17.98 -3.6 0 0 35.96 -3.59 0 0 39.56 -3.6 0 0 28.77 -3.59 0 0 25.17 -3.6 0 0 46.75 -3.6 0 0 17.98 -3.59 0 0 10.79 -3.6 0 0 17.98 -3.6 0 0 7.19 -3.59 0 0 21.58 -3.6 0 0 14.38 -3.6 0 0 14.39 -3.59 0 0 14.38 -3.6 0 0 14.39 -3.6 0 0 17.98 -3.59 0 0 10.79 -3.6 0 0 21.57 -3.59 0 0 17.99 -3.6 0 0 25.17 -3.59 0 0 17.98 -3.6 0 0 21.58 -3.6 0 0 25.17 -3.59 0 0 21.57 -3.6 0 0 133.06 3.6 0 0 32.37 3.59 0 0 25.17 3.6 0 0 14.39 3.6 0 0 10.78 3.59 0 0 7.2 3.6 0 0 10.78 3.59 0 0 7.2 3.6 0 0 3.59 3.59 0 0 3.6 3.6 0 0 3.6 3.6 0 0 3.59 3.59 0 0 3.6 7.2 0 0 3.6 3.59 0 0 3.59 7.2 0 0 3.6 7.19 0 0 3.59 7.19 0 0 3.6 10.79 0 0 3.59 14.38 0 0 3.6 17.98 0 0 3.6 17.99 0 0 3.59 32.36 0 0 3.6 64.73 0 0 3.59 161.83 0 0 -3.59 43.15 0 0 -3.6 43.16 0 0 -3.59 14.38 0 0 -3.6 14.39 0 0 -3.6 7.19 0 0 -3.59 7.19 0 0 -3.6 3.6 0 0 -3.59 3.59 0 0 -3.6 3.6 0 0 -3.59 3.59 0 0 -3.6 3.6 0 0 -3.6 3.6 0 0 -7.19 3.59 0 0 -7.19 3.6 0 0 -14.39 3.6 0 0 -14.38 3.59 0 0 -197.79 -3.59 0 0 -46.75 -3.6 0 0 -43.15 -3.6 0 0 -14.39 -3.59 0 0 -28.77 -3.6 0 0 -21.58 -3.6 0 0 -21.57 -3.59 0 0 -14.38 -3.6 0 0 -17.99 -3.59 0 0 -10.79 -3.6 0 0 -14.38 -3.6 0 0 -14.38 -3.59 0 0 -14.39 -3.6 0 0 -7.19 -3.59 0 0 -14.39 -3.6 0 0 -14.38 -3.6 0 0 -14.39 -3.59 0 0 -35.96 -3.6 0 0 -35.96 -3.59 0 0 -50.35 -3.6 0 0 -35.95 -3.6 0 0 -43.16 -3.59 0 0 -43.15 -3.6 0 0 -64.73 -3.6 0 0 -28.77 -3.59 0 0 -50.35 -3.6 0 0 -39.56 -3.6 0 0 -61.13 -3.59 0 0 -28.77 -3.6 0 0 -57.54 -3.59 0 0 -35.96 -3.6 0 0 -39.56 -3.6 0 0 -43.15 -3.59 0 0 -25.17 -3.6 0 0 -35.97 -3.59 0 0 -43.15 -3.6 0 0 -39.56 -3.6 0 0 -25.17 -3.59 0 0 -21.58 -3.6 0 0 -28.77 -3.59 0 0 -28.76 -3.6 0 0 -21.58 -3.6 0 0 -21.58 -3.59 0 0 -17.98 -3.6 0 0 -17.98 -3.6 0 0 -14.39 -3.59 0 0 -21.58 -3.6 0 0 -21.57 -3.6 0 0 -14.38 -3.59 0 0 -14.39 -3.6 0 0 -14.39 -3.59 0 0 -14.38 -3.6 0 0 -14.38 -3.6 0 0 -7.19 -3.59 0 0 -14.39 -3.6 0 0 -10.79 -3.59 0 0 -14.39 -3.6 0 0 -10.78 -3.59 0 0 -14.39 -3.6 0 0 -10.78 -3.6 0 0 -10.79 -3.59 0 0 -7.2 -3.6 0 0 -10.79 -3.6 0 0 -10.78 -3.59 0 0 -7.19 -3.6 0 0 -7.2 -3.6 0 0 -7.19 -3.59 0 0 -7.19 -3.6 0 0 -7.19 -3.59 0 0 -7.2 -3.6 0 0 -3.59 -3.6 0 0 -3.6 -3.59 0 0 -3.6 -3.6 0 0 -3.59 -3.59 0 0 -3.6 -3.6 0 0 -3.6 -7.19 0 0 -3.59 -25.18 0 0 3.59z"/>
 </g>
</svg>
