<?xml version="1.0" encoding="UTF-8"?>
<!DOCTYPE svg PUBLIC "-//W3C//DTD SVG 1.1//EN" "http://www.w3.org/Graphics/SVG/1.1/DTD/svg11.dtd">
<!-- Creator: CorelDRAW (Versión de evaluación) -->
<svg xmlns="http://www.w3.org/2000/svg" xml:space="preserve" width="446px" height="2062px" version="1.1" style="shape-rendering:geometricPrecision; text-rendering:geometricPrecision; image-rendering:optimizeQuality; fill-rule:evenodd; clip-rule:evenodd"
viewBox="0 0 446 2060.93"
 xmlns:xlink="http://www.w3.org/1999/xlink"
 xmlns:xodm="http://www.corel.com/coreldraw/odm/2003">
 <defs>
  <style type="text/css">
   <![CDATA[
    .str0 {stroke:#D2D3D5;stroke-width:9.99;stroke-miterlimit:22.9256;stroke-dasharray:49.970000 49.970000 99.930000 49.970000}
    .fil0 {fill:#E6E7E8}
   ]]>
  </style>
 </defs>
 <g id="unerupted">
  <metadata id="CorelCorpID_0Corel-Layer"/>
  <path id="outline" class="fil0 str0" d="M24.92 1708.49l3.6 0 0 -21.59 3.59 0 0 -28.77 3.6 0 0 -21.58 3.6 0 0 -17.99 3.59 0 0 -17.98 3.6 0 0 -10.79 3.6 0 0 -21.58 3.59 0 0 -17.98 3.6 0 0 -14.39 3.6 0 0 -14.39 3.59 0 0 -14.39 3.6 0 0 -14.38 3.6 0 0 -14.39 3.59 0 0 -14.39 3.6 0 0 -10.79 3.6 0 0 -10.79 3.59 0 0 -7.19 3.6 0 0 -10.79 3.6 0 0 -10.79 3.59 0 0 -7.19 3.6 0 0 -10.79 3.6 0 0 -7.2 3.59 0 0 -3.59 3.6 0 0 -7.2 3.6 0 0 -7.19 3.59 0 0 -3.6 3.6 0 0 -7.19 3.6 0 0 -3.6 3.59 0 0 -3.59 3.6 0 0 -7.2 3.6 0 0 -3.59 3.59 0 0 -3.6 7.2 0 0 -3.6 3.59 0 0 -3.59 3.6 0 0 -3.6 7.19 0 0 -3.6 7.2 0 0 -3.59 3.59 0 0 -3.6 10.79 0 0 -3.6 10.79 0 0 -3.59 39.57 0 0 3.59 10.79 0 0 3.6 7.19 0 0 3.6 3.6 0 0 3.59 7.19 0 0 3.6 7.2 0 0 3.6 3.59 0 0 3.59 3.6 0 0 3.6 3.6 0 0 3.6 7.19 0 0 3.59 3.6 0 0 7.2 3.6 0 0 3.59 3.59 0 0 3.6 3.6 0 0 3.6 3.6 0 0 7.19 3.59 0 0 3.6 3.6 0 0 7.19 3.6 0 0 3.6 3.59 0 0 7.19 3.6 0 0 3.6 3.6 0 0 7.19 3.59 0 0 10.79 3.6 0 0 7.19 3.6 0 0 10.79 3.59 0 0 7.2 3.6 0 0 7.19 3.6 0 0 10.79 3.59 0 0 10.79 3.6 0 0 10.79 3.6 0 0 10.79 3.6 0 0 10.79 3.59 0 0 14.39 3.6 0 0 10.79 3.6 0 0 10.79 3.59 0 0 10.79 3.6 0 0 10.79 3.6 0 0 14.39 3.59 0 0 14.38 3.6 0 0 14.39 3.6 0 0 21.58 3.59 0 0 14.39 3.6 0 0 17.98 3.6 0 0 17.99 3.59 0 0 28.77 3.6 0 0 32.37 3.6 0 0 17.99 3.59 0 0 46.75 3.6 0 0 68.34 -3.6 0 0 39.56 -3.59 0 0 10.79 -3.6 0 0 10.79 -3.6 0 0 7.2 -3.59 0 0 7.19 -3.6 0 0 3.6 -7.19 0 0 3.59 -7.2 0 0 3.6 -7.19 0 0 3.6 -10.79 0 0 3.59 -10.79 0 0 3.6 -21.58 0 0 3.6 -158.26 0 0 -3.6 -17.99 0 0 -3.6 -21.58 0 0 -3.59 -14.38 0 0 -3.6 -10.79 0 0 -3.6 -10.79 0 0 -3.59 -10.79 0 0 -3.6 -7.2 0 0 -3.6 -10.79 0 0 -3.59 -7.19 0 0 -3.6 -3.6 0 0 -3.6 -7.19 0 0 -7.19 -3.6 0 0 -3.6 -3.59 0 0 -3.59 -3.6 0 0 -3.6 -3.6 0 0 -3.6 -3.59 0 0 -10.79 -3.6 0 0 -7.19 -3.6 0 0 -17.98 -3.59 0 0 -10.79 -3.6 0 0 -151.06zm136.67 -1388.35l3.6 0 0 -25.18 3.6 0 0 -3.6 3.59 0 0 -7.19 3.6 0 0 -7.19 7.19 0 0 -3.6 14.39 0 0 3.6 3.6 0 0 3.59 3.6 0 0 3.6 3.59 0 0 3.6 3.6 0 0 7.19 3.6 0 0 3.6 3.59 0 0 7.19 3.6 0 0 7.2 3.6 0 0 10.79 3.59 0 0 7.19 3.6 0 0 10.79 3.6 0 0 7.19 3.59 0 0 10.79 3.6 0 0 10.79 3.6 0 0 7.2 3.59 0 0 14.39 3.6 0 0 10.79 3.6 0 0 10.79 3.59 0 0 14.38 3.6 0 0 14.39 3.6 0 0 7.19 3.59 0 0 14.39 3.6 0 0 17.99 3.6 0 0 10.79 3.6 0 0 14.38 3.59 0 0 21.58 3.6 0 0 14.39 3.6 0 0 21.58 3.59 0 0 14.39 3.6 0 0 21.58 3.6 0 0 21.58 3.59 0 0 17.98 3.6 0 0 28.77 3.6 0 0 17.99 3.59 0 0 25.17 3.6 0 0 28.78 3.6 0 0 35.97 3.59 0 0 32.37 3.6 0 0 35.97 3.6 0 0 39.56 3.59 0 0 61.15 3.6 0 0 28.77 3.6 0 0 122.28 3.59 0 0 53.96 3.6 0 0 86.32 3.6 0 0 68.34 3.6 0 0 61.14 3.59 0 0 61.15 3.6 0 0 17.98 -3.6 0 0 -7.19 -3.59 0 0 -7.2 -3.6 0 0 -7.19 -3.6 0 0 -10.79 -3.6 0 0 -7.19 -3.59 0 0 -7.2 -3.6 0 0 -7.19 -3.6 0 0 -7.19 -3.59 0 0 -3.6 -3.6 0 0 -7.19 -3.6 0 0 -7.2 -3.59 0 0 -3.59 -3.6 0 0 -7.2 -3.6 0 0 -3.59 -3.59 0 0 -3.6 -3.6 0 0 -7.19 -3.6 0 0 -3.6 -3.59 0 0 -3.6 -3.6 0 0 -3.59 -7.19 0 0 -3.6 -3.6 0 0 -3.6 -3.6 0 0 -3.59 -3.59 0 0 -3.6 -3.6 0 0 -3.6 -7.2 0 0 -3.59 -3.59 0 0 -3.6 -7.2 0 0 -3.6 -10.79 0 0 -3.59 -7.19 0 0 -3.6 -14.39 0 0 -3.6 -35.97 0 0 3.6 -14.38 0 0 3.6 -7.2 0 0 3.59 -10.79 0 0 3.6 -7.19 0 0 3.6 -3.6 0 0 3.59 -7.19 0 0 3.6 -3.6 0 0 3.6 -7.19 0 0 7.19 -3.6 0 0 3.6 -3.59 0 0 3.59 -3.6 0 0 3.6 -3.6 0 0 3.6 -3.59 0 0 3.59 -3.6 0 0 3.6 -3.6 0 0 3.6 -3.59 0 0 7.19 -3.6 0 0 3.6 -3.6 0 0 7.19 -3.59 0 0 7.19 -3.6 0 0 7.2 -3.6 0 0 7.19 -3.59 0 0 10.79 -3.6 0 0 3.6 -3.6 0 0 -21.58 3.6 0 0 -39.57 3.6 0 0 -53.95 3.59 0 0 -71.93 3.6 0 0 -46.76 3.6 0 0 -46.76 3.59 0 0 -35.97 3.6 0 0 -35.97 3.6 0 0 -28.77 3.59 0 0 -21.58 3.6 0 0 -28.77 3.6 0 0 -17.98 3.59 0 0 -25.18 3.6 0 0 -25.18 3.6 0 0 -25.18 3.59 0 0 -21.58 3.6 0 0 -17.98 3.6 0 0 -25.18 3.59 0 0 -28.77 3.6 0 0 -28.78 3.6 0 0 -14.39 3.59 0 0 -39.56 3.6 0 0 -25.18 3.6 0 0 -39.56 3.59 0 0 -39.56 3.6 0 0 -147.47 -3.6 0 0 -133.08zm17.99 -68.34l-7.2 0 0 3.6 -3.59 0 0 3.59 -3.6 0 0 3.6 -3.6 0 0 3.6 -3.59 0 0 3.59 -3.6 0 0 7.2 -3.6 0 0 7.19 -3.59 0 0 7.19 -3.6 0 0 14.39 -3.6 0 0 21.58 -3.59 0 0 89.92 3.59 0 0 46.76 3.6 0 0 129.48 -3.6 0 0 43.16 -3.59 0 0 28.78 -3.6 0 0 32.37 -3.6 0 0 43.16 -3.59 0 0 21.58 -3.6 0 0 32.37 -3.6 0 0 14.39 -3.59 0 0 17.98 -3.6 0 0 17.99 -3.6 0 0 25.17 -3.59 0 0 21.58 -3.6 0 0 28.78 -3.6 0 0 17.98 -3.59 0 0 25.18 -3.6 0 0 21.58 -3.6 0 0 21.58 -3.59 0 0 39.56 -3.6 0 0 32.37 -3.6 0 0 32.37 -3.59 0 0 32.37 -3.6 0 0 75.54 -3.6 0 0 64.74 -3.59 0 0 64.74 -3.6 0 0 61.14 -3.6 0 0 43.16 -3.59 0 0 32.37 -3.6 0 0 10.79 -3.6 0 0 21.58 -3.59 0 0 10.79 -3.6 0 0 17.99 -3.6 0 0 14.39 -3.59 0 0 14.38 -3.6 0 0 14.39 -3.6 0 0 14.39 -3.59 0 0 17.98 -3.6 0 0 17.99 -3.6 0 0 21.58 -3.59 0 0 25.17 -3.6 0 0 57.55 -3.6 0 0 82.73 3.6 0 0 35.96 3.6 0 0 17.98 3.59 0 0 17.99 3.6 0 0 7.19 3.6 0 0 7.2 3.59 0 0 3.59 3.6 0 0 7.2 3.6 0 0 3.59 3.59 0 0 7.2 3.6 0 0 3.59 3.6 0 0 3.6 7.19 0 0 3.6 3.6 0 0 3.59 3.59 0 0 3.6 7.2 0 0 3.6 7.19 0 0 3.59 7.19 0 0 3.6 7.2 0 0 3.6 10.79 0 0 3.59 10.79 0 0 3.6 17.98 0 0 3.6 10.79 0 0 3.6 21.58 0 0 3.59 17.98 0 0 3.6 21.58 0 0 3.6 133.09 0 0 -3.6 21.58 0 0 -3.6 21.58 0 0 -3.59 14.39 0 0 -3.6 7.19 0 0 -3.6 7.19 0 0 -3.6 7.2 0 0 -3.59 7.19 0 0 -3.6 3.6 0 0 -3.6 3.59 0 0 -3.59 3.6 0 0 -7.2 3.6 0 0 -3.59 3.59 0 0 -7.2 3.6 0 0 -7.19 3.6 0 0 -17.98 3.59 0 0 -25.18 3.6 0 0 -107.9 -3.6 0 0 -43.16 -3.59 0 0 -21.58 -3.6 0 0 -28.78 -3.6 0 0 -21.58 -3.59 0 0 -14.38 -3.6 0 0 -17.99 -3.6 0 0 -21.58 -3.59 0 0 -10.79 -3.6 0 0 -21.58 -3.6 0 0 -10.79 -3.59 0 0 -10.79 -3.6 0 0 -14.39 -3.6 0 0 -25.18 -3.59 0 0 -57.54 -3.6 0 0 -46.76 -3.6 0 0 -64.74 -3.59 0 0 -53.95 -3.6 0 0 -68.34 -3.6 0 0 -93.52 -3.59 0 0 -61.14 -3.6 0 0 -75.53 -3.6 0 0 -57.55 -3.59 0 0 -64.74 -3.6 0 0 -32.37 -3.6 0 0 -35.97 -3.6 0 0 -46.76 -3.59 0 0 -28.77 -3.6 0 0 -28.78 -3.6 0 0 -21.58 -3.59 0 0 -14.38 -3.6 0 0 -25.18 -3.6 0 0 -21.58 -3.59 0 0 -25.18 -3.6 0 0 -21.58 -3.6 0 0 -14.38 -3.59 0 0 -21.58 -3.6 0 0 -17.99 -3.6 0 0 -10.79 -3.59 0 0 -14.38 -3.6 0 0 -14.39 -3.6 0 0 -14.39 -3.59 0 0 -17.98 -3.6 0 0 -14.39 -3.6 0 0 -10.79 -3.59 0 0 -7.19 -3.6 0 0 -17.99 -3.6 0 0 -7.19 -3.6 0 0 -14.39 -3.59 0 0 -10.79 -3.6 0 0 -7.19 -3.6 0 0 -14.39 -3.59 0 0 -7.19 -3.6 0 0 -10.79 -3.6 0 0 -7.2 -3.59 0 0 -10.79 -3.6 0 0 -7.19 -3.6 0 0 -7.2 -3.59 0 0 -7.19 -3.6 0 0 -3.6 -3.6 0 0 -7.19 -3.59 0 0 -3.6 -3.6 0 0 -3.59 -3.6 0 0 -7.2 -7.19 0 0 -3.59 -3.6 0 0 -3.6 -7.19 0 0 -3.6 -21.58 0 0 3.6z"/>
 </g>
</svg>
