<?xml version="1.0" encoding="UTF-8"?>
<!DOCTYPE svg PUBLIC "-//W3C//DTD SVG 1.1//EN" "http://www.w3.org/Graphics/SVG/1.1/DTD/svg11.dtd">
<!-- Creator: CorelDRAW (Versión de evaluación) -->
<svg xmlns="http://www.w3.org/2000/svg" xml:space="preserve" width="756px" height="2062px" version="1.1" style="shape-rendering:geometricPrecision; text-rendering:geometricPrecision; image-rendering:optimizeQuality; fill-rule:evenodd; clip-rule:evenodd"
viewBox="0 0 756 2062.79"
 xmlns:xlink="http://www.w3.org/1999/xlink"
 xmlns:xodm="http://www.corel.com/coreldraw/odm/2003">
 <defs>
  <style type="text/css">
   <![CDATA[
    .str0 {stroke:#D2D3D5;stroke-width:16;stroke-linecap:square;stroke-miterlimit:22.9256;stroke-dasharray:80.020000 80.020000 160.040000 80.020000}
    .fil0 {fill:none}
   ]]>
  </style>
 </defs>
 <g id="unerupted">
  <metadata id="CorelCorpID_0Corel-Layer"/>
  <path id="crown" class="fil0 str0" d="M344.49 1861.07c20.33,0 61.44,32.83 84.02,43.61 33.9,16.18 49.27,20.25 84.02,31.39 26.4,8.47 62.34,4.94 83.35,-10.95 9.07,-6.85 26.18,-12.86 39.71,-24.97 7.34,-6.57 31.77,-30.63 31.97,-40.08m-331.07 -6c-8.59,3.99 -24.34,5.02 -37.01,10.31 -11,4.59 -27.28,13.82 -38,16.61 -19.62,5.09 -54.6,22.82 -75.02,23.1 -46.32,0.64 -104.02,-78.13 -104.02,-121.04m266.05 161.04c33.77,0 68.33,23.47 98.02,37.31 22.86,10.64 71.61,31.27 99.03,22.05 17.93,-6.04 31.88,-8.18 48.01,-17.9 9.84,-5.94 41.38,-29.51 46.01,-31.49 20.92,-8.93 67.01,-76.78 76.07,-93.99 51.15,-97.16 16.76,-143.58 16.94,-194.04 0.03,-7.01 -24.22,-88.37 -28.31,-99.02 -4.58,-11.92 -26.2,-95.99 -29.7,-97.02m-361.07 273.06c0,12.62 1.61,46.99 7,55.01 4.13,6.14 16,46.49 16,56.01 5.85,1.1 6.73,0.95 8,7 -11.65,19.04 4,57.61 4,83.02 -58.01,0 -126.62,64.4 -182.03,35.94 -53.28,-27.35 -134.12,-105.7 -143.95,-164.97 -2.29,-13.77 -9.8,-26.82 -10.08,-46.01 -0.19,-13.67 -2.01,-30.92 -2.01,-47.01 0,-27.71 7.27,-68.84 14.31,-94.02 9.57,-34.23 13.28,-58.82 26.34,-93.02 5.28,-13.85 30.51,-81.56 37.37,-90.02m388.08 -600.12c0,33.75 -0.03,65.16 0,98.02 0.01,12.48 -25.02,92.37 -25.01,95.02 0.14,20.16 -22.19,73.63 -26.97,98.02 -4.46,22.79 -24.42,84.47 -49.04,91.02 -22.06,7.63 -27.95,-6.04 -42.01,-9.01m-107.02 -351.07c23.81,-14.05 15.19,-27.35 21.7,-55.01 3.13,-13.27 5.07,-45.05 5.29,-60.01 0.59,-39.6 5.02,-78.21 5.02,-121.03 0,-40.82 -3.01,-79.18 -3.01,-121.03 0,-17.43 -2.78,-44.83 2.28,-60.01 11.98,-35.95 1,-31.54 34.73,-51.01 42.57,0 59.86,75.66 74.98,100.02 3.12,5.03 36.66,110.51 37.07,117.03 0.79,12.41 47.02,169.33 46.99,175.03 -0.12,23.66 5.4,42.03 25,54.02 54.7,-23.14 -33.17,-348.08 28.01,-348.08 85.86,-29.71 190.04,403.26 190.04,475.1 0,20.17 6.03,42.38 6,62.02 -0.03,21.64 -2,41.95 -2,62.01 0,38.22 -4.94,88.73 -11.06,125.02 -15.58,92.32 -12.95,153.62 -12.95,249.06 -8.8,5.59 -124.88,-45.19 -146.03,-51.37 -85.91,-25.14 -135.46,-22.65 -220.04,-22.65 -23.46,0 -54.48,11.08 -74.02,11 -34.19,-0.13 -132.42,43 -146.03,38.01 0,-44.5 8,-82.29 8,-126.02 0,-45.72 -6.45,-85.59 -7.01,-126.03 -0.71,-51.34 -24.57,-199.41 -35.98,-252.05 -13.09,-60.36 -16.28,-190.96 -3.04,-252.06 0.64,-2.94 7.03,-60.85 7.02,-63.01 -0.01,-19.51 10.74,-45.02 11.98,-63.01 1.17,-17.18 12.8,-46.43 18.03,-63.02 8.45,-26.84 14.86,-42.21 42.01,-51.01 29.93,11.62 24.51,15.14 36.63,43.01 5.92,13.6 3.85,43.94 7.01,55.01 7.86,27.54 -1.82,86.29 4.67,109.03 4.75,16.61 9.76,86.39 12.73,109.02 1.75,13.27 9.02,43.75 8.97,54.01 -0.04,8.4 6.97,22.94 7.02,27.01 0.14,12.43 9.03,14.29 19.99,21 1.27,3.18 7.92,68.85 8.98,78.02 1.81,15.72 27.65,60.11 34.3,79.01 9.4,26.73 68.36,137.36 68.74,155.04"/>
 </g>
</svg>
