<?xml version="1.0" encoding="UTF-8"?>
<!DOCTYPE svg PUBLIC "-//W3C//DTD SVG 1.1//EN" "http://www.w3.org/Graphics/SVG/1.1/DTD/svg11.dtd">
<!-- Creator: CorelDRAW (Versión de evaluación) -->
<svg xmlns="http://www.w3.org/2000/svg" xml:space="preserve" width="739px" height="2458px" version="1.1" style="shape-rendering:geometricPrecision; text-rendering:geometricPrecision; image-rendering:optimizeQuality; fill-rule:evenodd; clip-rule:evenodd"
viewBox="0 0 739 2457.4"
 xmlns:xlink="http://www.w3.org/1999/xlink"
 xmlns:xodm="http://www.corel.com/coreldraw/odm/2003">
 <defs>
  <style type="text/css">
   <![CDATA[
    .str0 {stroke:#4B4B4D;stroke-width:10;stroke-miterlimit:22.9256;stroke-dasharray:10.000000 49.990000 10.000000 49.990000 10.000000 49.990000 39.990000 49.990000 39.990000 49.990000}
    .fil0 {fill:#FEFEFE}
   ]]>
  </style>
 </defs>
 <g id="tooth-unerupted-24">
  <metadata id="CorelCorpID_0Corel-Layer"/>
  <path id="crown" class="fil0 str0" d="M624.03 1628.31c16.16,84.94 37.64,170.32 57.29,254.38 38.24,163.37 128.27,352.32 -47.49,449.7 -48.56,26.9 -150.52,96.62 -196.66,112.7 -148.44,51.74 -341.04,-69.12 -416.69,-186.42 -60.96,-94.51 30.88,-412.49 31.45,-543.3 277.71,-85.14 235.87,-228.5 422.44,-136.4 58.85,29.06 85.37,34 149.66,49.34z"/>
  <path id="root" class="fil0 str0" d="M231.29 101.89c11.91,59.33 12.61,484.63 3.34,551.19 -20.4,146.55 -65.13,372.34 -45.65,514.8 23.42,-28.15 18.44,-43.11 20.28,-85.66 1.08,-24.75 3.14,-48.48 6.4,-72.63 7.65,-56.85 8,-111.56 16.74,-167.86 15.68,-101.16 34.12,-196.57 50.26,-294.82 16.61,-101.13 35.15,-201.82 52.04,-302.48 12.57,-74.96 21.68,-229.9 107.98,-244.43 41.81,51.31 35.67,324.94 43.36,409.45 12.11,132.89 24.73,270.8 34.89,403.45 19.5,254.65 83.92,531.05 96.04,782.7 -130.89,-9.08 -189.19,-120.39 -303.1,-52.89 -64.02,37.94 -186.28,141.81 -256.12,137.34l-24.7 -877.76c1.46,-99.24 49.38,-277.97 75.47,-378.41 30.99,-119.28 45.1,-311.9 122.77,-321.99z"/>
 </g>
</svg>
