<!-- Creator: CorelDRAW (Versión de evaluación) -->
<svg xmlns="http://www.w3.org/2000/svg" xml:space="preserve" width="763px" height="2062px" version="1.1" style="shape-rendering:geometricPrecision; text-rendering:geometricPrecision; image-rendering:optimizeQuality; fill-rule:evenodd; clip-rule:evenodd"
viewBox="0 0 763 2062.24"
 xmlns:xlink="http://www.w3.org/1999/xlink"
 xmlns:xodm="http://www.corel.com/coreldraw/odm/2003">
 <defs>
  <style type="text/css">
   <![CDATA[
    .str0 {stroke:#D2D3D5;stroke-width:16;stroke-linecap:square;stroke-miterlimit:22.9256;stroke-dasharray:80.000000 80.000000 160.000000 80.000000}
    .fil0 {fill:none}
   ]]>
  </style>
 </defs>
 <g id="unerupted">
  <metadata id="CorelCorpID_0Corel-Layer"/>
  <path class="fil0 str0" d="M619.99 1935.58c0.83,-2.62 27.61,-13.39 36.99,-4m-294.98 -13c-4.07,-4.08 -14.65,-12.52 -16.69,-14.93 -7.8,-9.19 -2.36,-10.94 -10.31,-19.07m33 -26c-3.52,5.19 -29.17,5.74 -33,26 -34.73,6.56 -48.27,23.84 -77.99,37.31 -40.81,18.48 -36.28,18.19 -81,17.7 -22.53,-0.26 -60.97,-30.58 -70.3,-53.01 -6.57,-15.8 -23.69,-64.82 -23.69,-81m562.97 154.99c2.73,-2.04 11.65,-24.55 11.99,-28.99 1.28,-0.38 26.57,-21.08 28.34,-22.93 14.44,-15.04 22.88,-12.12 28.34,-17.09 4.51,-4.12 27.97,-50.84 28.37,-56.98 1.22,-18.77 9.95,-36.2 9.95,-60 0,-13.78 -3.46,-49.66 -7.27,-60.99 -2.41,-7.18 -30.73,-120.7 -30.73,-121 0.02,-1.42 -19.36,-58.39 -20.96,-60.99 -5.96,-9.68 -15.14,-56.65 -19.04,-60m-321.98 265.99c0,19.87 -1.95,38.79 -2,59.99 -0.03,16.34 17.59,42.07 18,61 11.66,0.9 98.64,62.66 125.99,74.03 20.72,8.61 39.58,18.98 64,18.96 29.24,-0.02 53.66,-15.99 62,-15.99l25 24.99c-21.44,31.73 -88.99,58.19 -129,40.7 -24.42,-10.68 -41.98,-17.38 -66.99,-29.63 -23.91,-11.71 -37.62,-21.57 -67,-21.07 -47.61,0.79 -85.59,37.82 -127.99,50.3 -17.5,5.14 -48.9,14.99 -67,3.74 -4.38,-2.73 -21.57,-3.86 -33,-13 -2.45,-1.97 -32.72,-23.92 -33,-24.04 -15.24,-6.53 -48.37,-42.12 -62.95,-54.66 -20.06,-17.23 -30.21,-41.92 -35.07,-66.33 -5.08,-25.5 -10.97,-36.12 -10.97,-67 0,-21.07 5.04,-47.21 5,-65.99 -0.03,-12.3 25.21,-125.06 29.97,-131.33 3.05,-4.04 36.63,-114.6 45.03,-132.66m387.98 -555.97c0,48.51 -10.37,95.14 -28.63,136.99 -13.82,31.68 -29.38,123.04 -73.37,124 -34.95,0 -67.13,-96.46 -82.69,-123 -19.6,-33.42 -40.3,-95.78 -40.3,-137.99m303.98 -528.97c35.07,0 79.28,95.28 83,122.99 2.53,18.84 18.01,47.07 20.96,70 1.34,10.4 13.19,58.75 16.7,70.99 10.16,35.47 34.08,245.54 23.96,280.99 -2.09,7.32 -12,195.48 -16.89,209.99 -7.64,22.66 -5.43,46.6 -10.72,70.99 -2.28,10.52 -2.74,65.76 -4.38,70 -6.69,17.28 -2.64,49.97 -2.64,70 0,49.83 4,94.71 5,140.99 -16.76,6.51 -114.67,-47.1 -144.99,-50.03 -8.01,-0.77 -62.76,-13.42 -72.99,-16.34 -46.01,-13.13 -174.9,-7.84 -217.99,-0.57 -51.55,8.7 -95.34,34.27 -145.99,44.94 -0.41,-1.06 8.74,-120.33 10.03,-132.99 4.16,-40.95 -5.03,-92.23 -5.03,-133 0,-70.19 -36.19,-205.59 -36,-265.98 0,-1.98 -8.87,-63.08 -9.7,-66 -1.35,-4.74 -5.3,-59.53 -5.3,-66.99 0,-40.83 -0.54,-95.97 6.97,-133 9.37,-46.19 25.69,-256.28 87.02,-247.98 17.46,6.77 14.03,-2.97 24.31,18.99 3.93,8.41 9.54,22.41 9.68,32 0.31,21.2 7.01,36.68 7.01,64 0,40.01 3,85.82 3,126.99 0,3.35 7.69,59.69 8.63,63 1.73,6.13 13.18,60.26 13.42,64 0.33,5.13 13.84,62.15 14.98,63.99 10.46,16.83 6.26,51.16 33.97,57 19.22,-15.17 9.58,-9.57 15.69,-31 0.08,-0.28 2.31,-33.15 2.31,-35 -0.04,-16.83 2.91,-51.64 4.95,-68.99 5.18,-43.98 2.05,-92.55 2.05,-138 0,-23.44 -4,-42.96 -4,-68.99 0,-23 0,-46 0,-69 0,-8.48 11.83,-93.68 17.3,-102.99 13.04,-22.21 3.4,-16.35 25.69,-25 54.31,-16.43 104.96,221.12 106.96,262.98 0.98,20.54 9.02,45.09 9.04,70 0,4.01 6.14,67.36 6.98,70 4.61,14.37 11.08,54.44 11.02,69.99 -0.09,23.8 5.68,55.06 27,66 12.89,-7.89 18.97,-12.76 20.02,-29 0.75,-11.45 6.89,-25.82 6.98,-34 0.27,-22.86 12.09,-43.71 11.99,-68.99 -0.04,-11.94 9.05,-51.64 9,-67 -0.07,-22.99 0,-46 0,-69 0,-47.1 -3,-91.65 -3,-136.99 0,-33.79 -6.75,-123.1 34,-123.99l0 -5"/>
 </g>
</svg>