<?xml version="1.0" encoding="UTF-8"?>
<!DOCTYPE svg PUBLIC "-//W3C//DTD SVG 1.1//EN" "http://www.w3.org/Graphics/SVG/1.1/DTD/svg11.dtd">
<!-- Creator: CorelDRAW (Versión de evaluación) -->
<svg xmlns="http://www.w3.org/2000/svg" xml:space="preserve" width="561px" height="2062px" version="1.1" style="shape-rendering:geometricPrecision; text-rendering:geometricPrecision; image-rendering:optimizeQuality; fill-rule:evenodd; clip-rule:evenodd"
viewBox="0 0 561 2060.59"
 xmlns:xlink="http://www.w3.org/1999/xlink"
 xmlns:xodm="http://www.corel.com/coreldraw/odm/2003">
 <defs>
  <style type="text/css">
   <![CDATA[
    .fil0 {fill:#E6E7E8}
    .fil1 {fill:#D2D3D5;fill-rule:nonzero}
   ]]>
  </style>
 </defs>
 <g id="unerupted">
  <metadata id="CorelCorpID_0Corel-Layer"/>
  <g>
   <path id="outline" class="fil0" d="M539.17 1751.14l-3.6 0 0 -32.37 -3.6 0 0 -32.36 -3.59 0 0 -21.58 -3.6 0 0 -25.17 -3.6 0 0 -21.58 -3.59 0 0 -10.79 -3.6 0 0 -21.57 -3.6 0 0 -21.58 -3.59 0 0 -14.38 -3.6 0 0 -14.39 -3.59 0 0 -14.39 -3.6 0 0 -14.38 -3.59 0 0 -14.38 -3.6 0 0 -10.79 -3.6 0 0 -17.98 -3.59 0 0 -7.2 -3.6 0 0 -14.38 -3.59 0 0 -14.39 -3.6 0 0 -14.38 -3.6 0 0 -7.19 -3.59 0 0 -14.39 -3.6 0 0 -10.79 -3.6 0 0 -10.78 -3.59 0 0 -7.2 -3.6 0 0 -7.19 -3.6 0 0 -7.19 -3.59 0 0 -7.19 -3.6 0 0 -7.19 -3.59 0 0 -7.2 -3.6 0 0 -7.19 -3.6 0 0 -3.6 -3.59 0 0 -7.19 -3.6 0 0 -3.6 -3.59 0 0 -7.19 -3.6 0 0 -3.59 -3.6 0 0 -7.19 -3.59 0 0 -3.6 -3.6 0 0 -3.6 -3.59 0 0 -3.59 -3.6 0 0 -7.19 -3.6 0 0 -3.6 -3.59 0 0 -3.6 -3.6 0 0 -3.59 -3.6 0 0 -3.6 -3.59 0 0 -3.6 -7.2 0 0 -3.59 -3.59 0 0 -3.6 -7.19 0 0 -3.6 -3.6 0 0 -3.59 -7.19 0 0 -3.6 -7.19 0 0 -3.59 -10.79 0 0 -3.6 -10.79 0 0 -3.59 -68.33 0 0 3.59 -14.38 0 0 3.6 -7.2 0 0 3.59 -10.78 0 0 3.6 -7.19 0 0 3.59 -7.2 0 0 3.6 -3.59 0 0 3.6 -7.19 0 0 3.59 -3.6 0 0 3.6 -3.6 0 0 3.6 -7.19 0 0 3.59 -3.6 0 0 3.6 -3.59 0 0 7.19 -3.6 0 0 3.6 -3.6 0 0 3.59 -3.59 0 0 3.6 -3.6 0 0 3.6 -3.59 0 0 3.59 -3.6 0 0 3.6 -3.6 0 0 7.19 -3.59 0 0 3.59 -3.6 0 0 7.2 -3.59 0 0 3.59 -3.6 0 0 7.2 -3.6 0 0 3.59 -3.59 0 0 7.2 -3.6 0 0 7.19 -3.59 0 0 7.19 -3.6 0 0 7.19 -3.6 0 0 7.19 -3.59 0 0 7.2 -3.6 0 0 7.19 -3.6 0 0 10.79 -3.59 0 0 7.19 -3.6 0 0 10.79 -3.6 0 0 10.79 -3.59 0 0 10.78 -3.6 0 0 10.79 -3.59 0 0 10.79 -3.6 0 0 10.79 -3.6 0 0 10.79 -3.59 0 0 10.79 -3.6 0 0 17.98 -3.59 0 0 14.38 -3.6 0 0 10.79 -3.59 0 0 17.98 -3.6 0 0 10.79 -3.6 0 0 28.77 -3.59 0 0 14.38 -3.6 0 0 21.58 -3.6 0 0 17.98 -3.59 0 0 32.37 -3.6 0 0 35.96 -3.6 0 0 61.14 -3.59 0 0 151.03 3.59 0 0 32.37 3.6 0 0 10.78 3.6 0 0 7.2 3.59 0 0 7.19 3.6 0 0 3.6 3.6 0 0 3.59 7.19 0 0 3.6 7.19 0 0 3.6 7.19 0 0 3.59 35.96 0 0 3.6 32.37 0 0 3.59 68.33 0 0 3.6 122.27 0 0 -3.6 50.34 0 0 -3.59 35.96 0 0 -3.6 25.18 0 0 -3.59 17.98 0 0 -3.6 14.38 0 0 -3.6 10.79 0 0 -3.59 10.79 0 0 -3.6 3.6 0 0 -3.6 7.19 0 0 -3.59 3.59 0 0 -3.6 3.6 0 0 -3.6 3.59 0 0 -3.59 3.6 0 0 -3.6 3.6 0 0 -7.19 3.59 0 0 -7.19 3.6 0 0 -14.38 3.6 0 0 -14.39 3.59 0 0 -35.96 3.6 0 0 -43.15 3.6 0 0 -79.12zm-230.16 -546.61l17.98 0 0 3.59 14.39 0 0 3.6 10.78 0 0 3.59 7.2 0 0 3.6 7.19 0 0 3.6 7.19 0 0 3.59 3.6 0 0 3.6 3.59 0 0 3.59 7.2 0 0 3.6 3.59 0 0 3.59 3.6 0 0 3.6 3.6 0 0 3.6 3.59 0 0 3.59 3.6 0 0 3.6 3.59 0 0 3.6 3.6 0 0 3.59 3.6 0 0 3.6 3.59 0 0 7.19 3.6 0 0 3.6 3.59 0 0 3.59 3.6 0 0 3.6 3.6 0 0 7.19 3.59 0 0 7.19 3.6 0 0 3.6 3.59 0 0 7.19 3.6 0 0 3.6 3.6 0 0 7.19 3.59 0 0 7.19 3.6 0 0 7.2 3.6 0 0 -21.58 -3.6 0 0 -35.96 -3.6 0 0 -32.37 -3.59 0 0 -39.55 -3.6 0 0 -28.78 -3.6 0 0 -57.53 -3.59 0 0 -35.97 -3.6 0 0 -61.13 -3.59 0 0 -53.94 -3.6 0 0 -35.96 -3.6 0 0 -68.33 -3.59 0 0 -35.96 -3.6 0 0 -21.58 -3.59 0 0 -32.36 -3.6 0 0 -28.77 -3.6 0 0 -14.39 -3.59 0 0 -25.17 -3.6 0 0 -17.98 -3.59 0 0 -25.18 -3.6 0 0 -14.38 -3.6 0 0 -17.98 -3.59 0 0 -17.98 -3.6 0 0 -17.98 -3.6 0 0 -25.17 -3.59 0 0 -14.39 -3.6 0 0 -10.79 -3.6 0 0 -28.77 -3.59 0 0 -14.38 -3.6 0 0 -17.98 -3.59 0 0 -25.18 -3.6 0 0 -21.57 -3.6 0 0 -50.35 -3.59 0 0 -28.77 -3.6 0 0 -50.35 -3.59 0 0 -35.95 -3.6 0 0 -39.57 -3.59 0 0 -28.76 -3.6 0 0 -14.39 -3.6 0 0 -17.98 -3.59 0 0 -14.38 -3.6 0 0 -10.79 -3.6 0 0 -10.79 -3.59 0 0 -7.19 -3.6 0 0 -7.19 -3.6 0 0 -3.6 -3.59 0 0 -3.6 -3.6 0 0 -3.59 -14.38 0 0 3.59 -7.19 0 0 3.6 -3.6 0 0 3.6 -3.6 0 0 7.19 -3.59 0 0 7.19 -3.6 0 0 3.6 -3.59 0 0 7.19 -3.6 0 0 10.79 -3.6 0 0 7.19 -3.59 0 0 10.79 -3.6 0 0 10.79 -3.6 0 0 7.19 -3.59 0 0 10.79 -3.6 0 0 10.79 -3.6 0 0 14.38 -3.59 0 0 10.79 -3.6 0 0 10.79 -3.59 0 0 10.79 -3.6 0 0 14.38 -3.59 0 0 10.79 -3.6 0 0 17.98 -3.6 0 0 10.79 -3.59 0 0 17.98 -3.6 0 0 14.39 -3.59 0 0 10.78 -3.6 0 0 21.58 -3.6 0 0 10.79 -3.59 0 0 21.58 -3.6 0 0 25.17 -3.6 0 0 14.38 -3.59 0 0 28.77 -3.6 0 0 28.77 -3.6 0 0 14.38 -3.59 0 0 28.78 -3.6 0 0 28.76 -3.59 0 0 32.37 -3.6 0 0 32.37 -3.6 0 0 35.96 -3.59 0 0 35.96 -3.6 0 0 43.15 -3.59 0 0 21.58 -3.6 0 0 50.35 -3.6 0 0 35.95 -3.59 0 0 50.35 -3.6 0 0 39.56 -3.59 0 0 39.56 -3.6 0 0 64.73 -3.6 0 0 35.96 -3.59 0 0 53.94 -3.6 0 0 43.16 -3.6 0 0 39.55 -3.59 0 0 32.37 -3.6 0 0 39.55 -3.6 0 0 35.97 -3.59 0 0 14.38 3.59 0 0 -3.59 3.6 0 0 -7.19 3.6 0 0 -7.2 3.59 0 0 -7.19 3.6 0 0 -7.19 3.6 0 0 -7.2 3.59 0 0 -3.59 3.6 0 0 -7.2 3.6 0 0 -3.59 3.59 0 0 -7.19 3.6 0 0 -3.6 3.59 0 0 -3.59 3.6 0 0 -7.2 3.6 0 0 -3.59 3.59 0 0 -3.6 3.6 0 0 -3.59 3.59 0 0 -3.6 3.6 0 0 -3.6 3.6 0 0 -7.19 7.19 0 0 -3.6 3.59 0 0 -3.59 3.6 0 0 -3.6 3.6 0 0 -3.6 3.59 0 0 -3.59 3.6 0 0 -3.6 3.6 0 0 -3.59 7.19 0 0 -3.6 3.6 0 0 -3.59 7.19 0 0 -3.6 7.19 0 0 -3.6 10.79 0 0 -3.59 10.78 0 0 -3.6 10.79 0 0 -3.59 14.39 0 0 -3.6 53.94 0 0 3.6zm-7.19 -1114.81l7.19 0 0 3.59 7.19 0 0 3.6 3.6 0 0 3.59 3.6 0 0 3.6 3.59 0 0 7.19 3.6 0 0 3.6 3.6 0 0 10.79 3.59 0 0 7.19 3.6 0 0 10.79 3.59 0 0 17.98 3.6 0 0 10.79 3.59 0 0 21.58 3.6 0 0 35.95 3.6 0 0 28.78 3.59 0 0 25.17 3.6 0 0 61.14 3.59 0 0 50.34 3.6 0 0 17.98 3.6 0 0 32.36 3.59 0 0 17.99 3.6 0 0 17.98 3.6 0 0 28.77 3.59 0 0 10.78 3.6 0 0 25.18 3.6 0 0 21.58 3.59 0 0 10.78 3.6 0 0 25.18 3.59 0 0 17.98 3.6 0 0 21.58 3.6 0 0 17.97 3.59 0 0 14.39 3.6 0 0 17.98 3.59 0 0 21.58 3.6 0 0 32.36 3.6 0 0 21.58 3.59 0 0 17.98 3.6 0 0 35.96 3.59 0 0 32.37 3.6 0 0 53.94 3.6 0 0 32.36 3.59 0 0 61.14 3.6 0 0 43.15 3.6 0 0 68.33 3.59 0 0 46.75 3.6 0 0 57.54 3.6 0 0 17.98 3.59 0 0 35.96 3.6 0 0 39.56 3.59 0 0 28.77 3.6 0 0 25.17 3.6 0 0 46.75 3.59 0 0 17.98 3.6 0 0 10.79 3.59 0 0 17.98 3.6 0 0 7.19 3.59 0 0 21.58 3.6 0 0 14.39 3.6 0 0 14.38 3.59 0 0 14.38 3.6 0 0 14.39 3.6 0 0 17.98 3.59 0 0 10.79 3.6 0 0 21.57 3.6 0 0 17.99 3.59 0 0 25.17 3.6 0 0 17.98 3.6 0 0 21.58 3.59 0 0 25.17 3.6 0 0 21.57 3.59 0 0 133.06 -3.59 0 0 32.37 -3.6 0 0 25.17 -3.59 0 0 14.39 -3.6 0 0 10.78 -3.6 0 0 7.2 -3.59 0 0 10.78 -3.6 0 0 7.2 -3.6 0 0 3.59 -3.59 0 0 3.6 -3.6 0 0 3.6 -3.6 0 0 3.59 -3.59 0 0 3.6 -7.2 0 0 3.6 -3.59 0 0 3.59 -7.19 0 0 3.6 -7.19 0 0 3.59 -7.2 0 0 3.6 -10.78 0 0 3.59 -14.39 0 0 3.6 -17.98 0 0 3.6 -17.98 0 0 3.59 -32.37 0 0 3.6 -64.73 0 0 3.59 -161.83 0 0 -3.59 -43.15 0 0 -3.6 -43.15 0 0 -3.59 -14.39 0 0 -3.6 -14.38 0 0 -3.6 -7.19 0 0 -3.59 -7.2 0 0 -3.6 -3.59 0 0 -3.59 -3.6 0 0 -3.6 -3.6 0 0 -3.59 -3.59 0 0 -3.6 -3.6 0 0 -3.6 -3.6 0 0 -7.19 -3.59 0 0 -7.19 -3.6 0 0 -14.39 -3.59 0 0 -14.38 -3.6 0 0 -197.79 3.6 0 0 -46.75 3.59 0 0 -43.15 3.6 0 0 -14.39 3.59 0 0 -28.77 3.6 0 0 -21.57 3.6 0 0 -21.58 3.59 0 0 -14.38 3.6 0 0 -17.99 3.6 0 0 -10.79 3.59 0 0 -14.38 3.6 0 0 -14.38 3.6 0 0 -14.39 3.59 0 0 -7.19 3.6 0 0 -14.39 3.6 0 0 -14.38 3.59 0 0 -14.39 3.6 0 0 -35.96 3.59 0 0 -35.96 3.6 0 0 -50.35 3.59 0 0 -35.95 3.6 0 0 -43.16 3.6 0 0 -43.15 3.59 0 0 -64.73 3.6 0 0 -28.77 3.59 0 0 -50.35 3.6 0 0 -39.56 3.6 0 0 -61.13 3.59 0 0 -28.77 3.6 0 0 -57.54 3.6 0 0 -35.96 3.59 0 0 -39.56 3.6 0 0 -43.15 3.6 0 0 -25.17 3.59 0 0 -35.97 3.6 0 0 -43.15 3.59 0 0 -39.56 3.6 0 0 -25.17 3.6 0 0 -21.58 3.59 0 0 -28.77 3.6 0 0 -28.76 3.59 0 0 -21.58 3.6 0 0 -21.58 3.6 0 0 -17.98 3.59 0 0 -17.98 3.6 0 0 -14.39 3.59 0 0 -21.57 3.6 0 0 -21.58 3.6 0 0 -14.38 3.59 0 0 -14.39 3.6 0 0 -14.39 3.6 0 0 -14.38 3.59 0 0 -14.38 3.6 0 0 -7.19 3.6 0 0 -14.39 3.59 0 0 -10.79 3.6 0 0 -14.39 3.59 0 0 -10.78 3.6 0 0 -14.39 3.6 0 0 -10.78 3.59 0 0 -10.79 3.6 0 0 -7.2 3.59 0 0 -10.79 3.6 0 0 -10.78 3.59 0 0 -7.19 3.6 0 0 -7.2 3.6 0 0 -7.19 3.59 0 0 -7.19 3.6 0 0 -7.19 3.6 0 0 -7.2 3.59 0 0 -3.59 3.6 0 0 -3.6 3.6 0 0 -3.6 3.59 0 0 -3.59 3.6 0 0 -3.6 3.59 0 0 -3.59 7.2 0 0 -3.6 25.17 0 0 3.6z"/>
   <path id="_1" class="fil1" d="M535.57 1746.14l3.6 0 0 10 -3.6 0 0 -10zm0 5l0 5 -5 -5 5 0zm0 5l-5 0 0 -5 5 5zm5 -37.37l0 32.37 -10 0 0 -32.37 10 0zm-5 0l0 -4.99 5 4.99 -5 0zm0 -4.99l5 0 0 4.99 -5 -4.99zm-3.6 0l3.6 0 0 9.99 -3.6 0 0 -9.99zm0 4.99l0 5 -4.99 -5 4.99 0zm0 5l-4.99 0 0 -5 4.99 5zm-4.99 -15.39l9.99 0 0 10.39 -9.99 0 0 -10.39zm-2.2 -48.54l0.78 0 0 9.99 -0.78 0 0 -9.99zm0 4.99l0 5 -5 -5 5 0zm0 5l-5 0 0 -5 5 5zm5 -30.17l0 25.17 -10 0 0 -25.17 10 0zm-5 0l0 -5 5 5 -5 0zm0 -5l5 0 0 5 -5 -5zm-3.6 0l3.6 0 0 9.99 -3.6 0 0 -9.99zm0 5l0 4.99 -4.99 -4.99 4.99 0zm0 4.99l-4.99 0 0 -4.99 4.99 4.99zm5 -26.57l0 21.58 -9.99 0 0 -21.58 9.99 0zm-5 0l0 -5 5 5 -5 0zm0 -5l5 0 0 5 -5 -5zm-3.59 0l3.59 0 0 10 -3.59 0 0 -10zm0 5l0 5 -5 -5 5 0zm0 5l-5 0 0 -5 5 5zm5 -15.79l0 10.79 -10 0 0 -10.79 10 0zm-5 0l0 -4.99 5 4.99 -5 0zm0 -4.99l5 0 0 4.99 -5 -4.99zm-3.6 0l3.6 0 0 9.99 -3.6 0 0 -9.99zm0 4.99l0 5 -4.99 -5 4.99 0zm0 5l-4.99 0 0 -5 4.99 5zm5 -26.57l0 21.57 -9.99 0 0 -21.57 9.99 0zm-5 0l0 -5 5 5 -5 0zm0 -5l5 0 0 5 -5 -5zm-3.6 0l3.6 0 0 9.99 -3.6 0 0 -9.99zm0 5l0 4.99 -4.99 -4.99 4.99 0zm0 4.99l-4.99 0 0 -4.99 4.99 4.99zm-4.99 -10.63l9.99 0 0 5.64 -9.99 0 0 -5.64zm2.8 -44.71l0 1.94 -9.99 0 0 -1.94 9.99 0zm-5 0l0 -5 5 5 -5 0zm0 -5l5 0 0 5 -5 -5zm-3.59 0l3.59 0 0 10 -3.59 0 0 -10zm0 5l0 5 -5 -5 5 0zm0 5l-5 0 0 -5 5 5zm4.99 -19.39l0 14.39 -9.99 0 0 -14.39 9.99 0zm-4.99 0l0 -4.99 4.99 4.99 -4.99 0zm0 -4.99l4.99 0 0 4.99 -4.99 -4.99zm-3.6 0l3.6 0 0 9.99 -3.6 0 0 -9.99zm0 4.99l0 5 -4.99 -5 4.99 0zm0 5l-4.99 0 0 -5 4.99 5zm5 -19.38l0 14.38 -9.99 0 0 -14.38 9.99 0zm-5 0l0 -4.99 5 4.99 -5 0zm0 -4.99l5 0 0 4.99 -5 -4.99zm-3.59 0l3.59 0 0 9.99 -3.59 0 0 -9.99zm0 4.99l0 5 -5 -5 5 0zm0 5l-5 0 0 -5 5 5zm-5 -13.46l9.99 0 0 8.46 -9.99 0 0 -8.46zm-0.8 -41.89l0 2.72 -9.99 0 0 -2.72 9.99 0zm-4.99 0l0 -4.99 4.99 4.99 -4.99 0zm0 -4.99l4.99 0 0 4.99 -4.99 -4.99zm-3.6 0l3.6 0 0 9.99 -3.6 0 0 -9.99zm0 4.99l0 5 -5 -5 5 0zm0 5l-5 0 0 -5 5 5zm5 -19.38l0 14.38 -10 0 0 -14.38 10 0zm-5 0l0 -5 5 5 -5 0zm0 -5l5 0 0 5 -5 -5zm-3.59 0l3.59 0 0 10 -3.59 0 0 -10zm0 5l0 5 -5 -5 5 0zm0 5l-5 0 0 -5 5 5zm4.99 -19.39l0 14.39 -9.99 0 0 -14.39 9.99 0zm-4.99 0l0 -4.99 4.99 4.99 -4.99 0zm0 -4.99l4.99 0 0 4.99 -4.99 -4.99zm-3.6 0l3.6 0 0 9.99 -3.6 0 0 -9.99zm0 4.99l0 5 -5 -5 5 0zm0 5l-5 0 0 -5 5 5zm5 -19.38l0 14.38 -10 0 0 -14.38 10 0zm-5 0l0 -5 5 5 -5 0zm0 -5l5 0 0 5 -5 -5zm-3.6 0l3.6 0 0 10 -3.6 0 0 -10zm0 5l0 5 -5 -5 5 0zm0 5l-5 0 0 -5 5 5zm5 -12.19l0 7.19 -10 0 0 -7.19 10 0zm-5 0l0 -5 5 5 -5 0zm0 -5l5 0 0 5 -5 -5zm-3.59 0l3.59 0 0 9.99 -3.59 0 0 -9.99zm0 5l0 4.99 -5 -4.99 5 0zm0 4.99l-5 0 0 -4.99 5 4.99zm4.99 -19.38l0 14.39 -9.99 0 0 -14.39 9.99 0zm-4.99 0l0 -4.99 4.99 4.99 -4.99 0zm0 -4.99l4.99 0 0 4.99 -4.99 -4.99zm-3.6 0l3.6 0 0 9.99 -3.6 0 0 -9.99zm0 4.99l0 5 -5 -5 5 0zm0 5l-5 0 0 -5 5 5zm5 -15.79l0 10.79 -10 0 0 -10.79 10 0zm-5 0l0 -4.99 5 4.99 -5 0zm0 -4.99l5 0 0 4.99 -5 -4.99zm-0.11 9.99l0.05 -9.99 0.06 9.99 -0.11 0zm-17.87 -42.36l0.28 0 0 10 -0.28 0 0 -10zm0 5l0 5 -5 -5 5 0zm0 5l-5 0 0 -5 5 5zm5 -12.19l0 7.19 -10 0 0 -7.19 10 0zm-5 0l0 -5 5 5 -5 0zm0 -5l5 0 0 5 -5 -5zm-3.6 0l3.6 0 0 9.99 -3.6 0 0 -9.99zm0 5l0 4.99 -4.99 -4.99 4.99 0zm0 4.99l-4.99 0 0 -4.99 4.99 4.99zm5 -12.18l0 7.19 -9.99 0 0 -7.19 9.99 0zm-5 0l0 -5 5 5 -5 0zm0 -5l5 0 0 5 -5 -5zm-3.59 0l3.59 0 0 9.99 -3.59 0 0 -9.99zm0 5l0 4.99 -5 -4.99 5 0zm0 4.99l-5 0 0 -4.99 5 4.99zm4.99 -12.19l0 7.2 -9.99 0 0 -7.2 9.99 0zm-4.99 0l0 -4.99 4.99 4.99 -4.99 0zm0 -4.99l4.99 0 0 4.99 -4.99 -4.99zm-3.6 0l3.6 0 0 9.99 -3.6 0 0 -9.99zm0 4.99l0 5 -4.99 -5 4.99 0zm0 5l-4.99 0 0 -5 4.99 5zm5 -12.19l0 7.19 -9.99 0 0 -7.19 9.99 0zm-5 0l0 -5 5 5 -5 0zm0 -5l5 0 0 5 -5 -5zm-3.6 0l3.6 0 0 10 -3.6 0 0 -10zm0 5l0 5 -4.99 -5 4.99 0zm0 5l-4.99 0 0 -5 4.99 5zm5 -8.6l0 3.6 -9.99 0 0 -3.6 9.99 0zm-5 0l0 -4.99 5 4.99 -5 0zm0 -4.99l5 0 0 4.99 -5 -4.99zm-2.93 9.99l0 -9.99 2.93 0 0 9.99 -2.93 0zm-13.65 -37.36l0 1.05 -9.99 0 0 -1.05 9.99 0zm-4.99 0l0 -5 4.99 5 -4.99 0zm0 -5l4.99 0 0 5 -4.99 -5zm-3.6 0l3.6 0 0 9.99 -3.6 0 0 -9.99zm0 5l0 4.99 -5 -4.99 5 0zm0 4.99l-5 0 0 -4.99 5 4.99zm5 -8.59l0 3.6 -10 0 0 -3.6 10 0zm-5 0l0 -4.99 5 4.99 -5 0zm0 -4.99l5 0 0 4.99 -5 -4.99zm-3.59 0l3.59 0 0 9.99 -3.59 0 0 -9.99zm0 4.99l0 5 -5 -5 5 0zm0 5l-5 0 0 -5 5 5zm4.99 -8.59l0 3.59 -9.99 0 0 -3.59 9.99 0zm-4.99 0l0 -5 4.99 5 -4.99 0zm0 -5l4.99 0 0 5 -4.99 -5zm-3.6 0l3.6 0 0 9.99 -3.6 0 0 -9.99zm0 5l0 4.99 -5 -4.99 5 0zm0 4.99l-5 0 0 -4.99 5 4.99zm4.99 -12.18l0 7.19 -9.99 0 0 -7.19 9.99 0zm-4.99 0l0 -5 4.99 5 -4.99 0zm0 -5l4.99 0 0 5 -4.99 -5zm-3.6 0l3.6 0 0 9.99 -3.6 0 0 -9.99zm0 5l0 4.99 -5 -4.99 5 0zm0 4.99l-5 0 0 -4.99 5 4.99zm5 -8.59l0 3.6 -10 0 0 -3.6 10 0zm-5 0l0 -5 5 5 -5 0zm0 -5l5 0 0 5 -5 -5zm-3.59 0l3.59 0 0 10 -3.59 0 0 -10zm0 5l0 5 -5 -5 5 0zm0 5l-5 0 0 -5 5 5zm4.99 -8.6l0 3.6 -9.99 0 0 -3.6 9.99 0zm-4.99 0l0 -5 4.99 5 -4.99 0zm0 -5l4.99 0 0 5 -4.99 -5zm-3.6 0l3.6 0 0 10 -3.6 0 0 -10zm0 5l0 5 -5 -5 5 0zm0 5l-5 0 0 -5 5 5zm5 -8.59l0 3.59 -10 0 0 -3.59 10 0zm-5 0l0 -5 5 5 -5 0zm0 -5l5 0 0 5 -5 -5zm-3.6 0l3.6 0 0 9.99 -3.6 0 0 -9.99zm0 5l0 4.99 -4.99 -4.99 4.99 0zm0 4.99l-4.99 0 0 -4.99 4.99 4.99zm5 -8.59l0 3.6 -9.99 0 0 -3.6 9.99 0zm-5 0l0 -5 5 5 -5 0zm0 -5l5 0 0 5 -5 -5zm-3.59 0l3.59 0 0 10 -3.59 0 0 -10zm0 5l0 5 -5 -5 5 0zm0 5l-5 0 0 -5 5 5zm5 -8.6l0 3.6 -10 0 0 -3.6 10 0zm-5 0l0 -4.99 5 4.99 -5 0zm0 -4.99l5 0 0 4.99 -5 -4.99zm-7.2 0l7.2 0 0 9.99 -7.2 0 0 -9.99zm0 4.99l0 5 -4.99 -5 4.99 0zm0 5l-4.99 0 0 -5 4.99 5zm5 -8.59l0 3.59 -9.99 0 0 -3.59 9.99 0zm-5 0l0 -5 5 5 -5 0zm0 -5l5 0 0 5 -5 -5zm-3.59 0l3.59 0 0 10 -3.59 0 0 -10zm0 5l0 5 -5 -5 5 0zm0 5l-5 0 0 -5 5 5zm5 -8.6l0 3.6 -10 0 0 -3.6 10 0zm-5 0l0 -4.99 5 4.99 -5 0zm0 -4.99l5 0 0 4.99 -5 -4.99zm-7.19 0l7.19 0 0 9.99 -7.19 0 0 -9.99zm0 4.99l0 5 -5 -5 5 0zm0 5l-5 0 0 -5 5 5zm4.99 -8.6l0 3.6 -9.99 0 0 -3.6 9.99 0zm-4.99 0l0 -4.99 4.99 4.99 -4.99 0zm0 -4.99l4.99 0 0 4.99 -4.99 -4.99zm-3.6 0l3.6 0 0 9.99 -3.6 0 0 -9.99zm0 4.99l0 5 -4.99 -5 4.99 0zm0 5l-4.99 0 0 -5 4.99 5zm5 -8.59l0 3.59 -9.99 0 0 -3.59 9.99 0zm-5 0l0 -5 5 5 -5 0zm0 -5l5 0 0 5 -5 -5zm-1.77 10l0 -10 1.77 0 0 10 -1.77 0zm-85.54 -14.39l0 -9.99 49.96 0 0 9.99 -49.96 0zm-49.34 0.8l10.17 0 0 9.99 -10.17 0 0 -9.99zm0 4.99l-5 0 5 -4.99 0 4.99zm-5 0l0 -4.99 5 0 -5 4.99zm0 3.6l0 -3.6 9.99 0 0 3.6 -9.99 0zm5 0l4.99 0 -4.99 5 0 -5zm4.99 0l0 5 -4.99 0 4.99 -5zm-12.18 -5l7.19 0 0 10 -7.19 0 0 -10zm0 5l-5 0 5 -5 0 5zm-5 0l0 -5 5 0 -5 5zm0 3.59l0 -3.59 9.99 0 0 3.59 -9.99 0zm5 0l4.99 0 -4.99 5 0 -5zm4.99 0l0 5 -4.99 0 4.99 -5zm-12.19 -4.99l7.2 0 0 9.99 -7.2 0 0 -9.99zm0 4.99l-4.99 0 4.99 -4.99 0 4.99zm-4.99 0l0 -4.99 4.99 0 -4.99 4.99zm0 3.6l0 -3.6 9.99 0 0 3.6 -9.99 0zm4.99 0l5 0 -5 5 0 -5zm5 0l0 5 -5 0 5 -5zm-8.59 -4.99l3.59 0 0 9.99 -3.59 0 0 -9.99zm0 4.99l-5 0 5 -4.99 0 4.99zm-5 0l0 -4.99 5 0 -5 4.99zm0 3.6l0 -3.6 9.99 0 0 3.6 -9.99 0zm5 0l4.99 0 -4.99 5 0 -5zm4.99 0l0 5 -4.99 0 4.99 -5zm-12.18 -5l7.19 0 0 10 -7.19 0 0 -10zm0 5l-5 0 5 -5 0 5zm-5 0l0 -5 5 0 -5 5zm0 3.59l0 -3.59 9.99 0 0 3.59 -9.99 0zm5 0l4.99 0 -4.99 5 0 -5zm4.99 0l0 5 -4.99 0 4.99 -5zm-8.59 -4.99l3.6 0 0 9.99 -3.6 0 0 -9.99zm0 4.99l-5 0 5 -4.99 0 4.99zm-5 0l0 -4.99 5 0 -5 4.99zm0 3.6l0 -3.6 10 0 0 3.6 -10 0zm5 0l5 0 -5 5 0 -5zm5 0l0 5 -5 0 5 -5zm-8.6 -5l3.6 0 0 10 -3.6 0 0 -10zm0 5l-5 0 5 -5 0 5zm-5 0l0 -5 5 0 -5 5zm0 3.6l0 -3.6 10 0 0 3.6 -10 0zm5 0l5 0 -5 4.99 0 -4.99zm5 0l0 4.99 -5 0 5 -4.99zm-12.19 -5l7.19 0 0 9.99 -7.19 0 0 -9.99zm0 5l-5 0 5 -5 0 5zm-5 0l0 -5 5 0 -5 5zm0 3.59l0 -3.59 10 0 0 3.59 -10 0zm5 0l5 0 -5 5 0 -5zm5 0l0 5 -5 0 5 -5zm-8.6 -5l3.6 0 0 10 -3.6 0 0 -10zm0 5l-4.99 0 4.99 -5 0 5zm-4.99 0l0 -5 4.99 0 -4.99 5zm0 3.6l0 -3.6 9.99 0 0 3.6 -9.99 0zm4.99 0l5 0 -5 5 0 -5zm5 0l0 5 -5 0 5 -5zm-8.59 -5l3.59 0 0 10 -3.59 0 0 -10zm0 5l-5 0 5 -5 0 5zm-5 0l0 -5 5 0 -5 5zm0 7.19l0 -7.19 10 0 0 7.19 -10 0zm5 0l5 0 -5 5 0 -5zm5 0l0 5 -5 0 5 -5zm-8.44 5l0 -10 3.44 0 0 10 -3.44 0zm-26.73 23.77l0 -0.55 9.99 0 0 0.55 -9.99 0zm4.99 0l5 0 -5 5 0 -5zm5 0l0 5 -5 0 5 -5zm-8.59 -5l3.59 0 0 10 -3.59 0 0 -10zm0 5l-5 0 5 -5 0 5zm-5 0l0 -5 5 0 -5 5zm0 3.59l0 -3.59 9.99 0 0 3.59 -9.99 0zm5 0l4.99 0 -4.99 5 0 -5zm4.99 0l0 5 -4.99 0 4.99 -5zm-8.59 -4.99l3.6 0 0 9.99 -3.6 0 0 -9.99zm0 4.99l-4.99 0 4.99 -4.99 0 4.99zm-4.99 0l0 -4.99 4.99 0 -4.99 4.99zm0 7.2l0 -7.2 9.99 0 0 7.2 -9.99 0zm4.99 0l5 0 -5 5 0 -5zm5 0l0 5 -5 0 5 -5zm-8.59 -5l3.59 0 0 10 -3.59 0 0 -10zm0 5l-5 0 5 -5 0 5zm-5 0l0 -5 5 0 -5 5zm0 3.59l0 -3.59 9.99 0 0 3.59 -9.99 0zm5 0l4.99 0 -4.99 5 0 -5zm4.99 0l0 5 -4.99 0 4.99 -5zm-8.59 -4.99l3.6 0 0 9.99 -3.6 0 0 -9.99zm0 4.99l-5 0 5 -4.99 0 4.99zm-5 0l0 -4.99 5 0 -5 4.99zm0 7.2l0 -7.2 9.99 0 0 7.2 -9.99 0zm5 0l4.99 0 -4.99 5 0 -5zm4.99 0l0 5 -4.99 0 4.99 -5zm-8.59 -5l3.6 0 0 10 -3.6 0 0 -10zm0 5l-4.99 0 4.99 -5 0 5zm-4.99 0l0 -5 4.99 0 -4.99 5zm0 3.59l0 -3.59 9.99 0 0 3.59 -9.99 0zm4.99 0l5 0 -5 5 0 -5zm5 0l0 5 -5 0 5 -5zm-8.59 -4.99l3.59 0 0 9.99 -3.59 0 0 -9.99zm0 4.99l-5 0 5 -4.99 0 4.99zm-5 0l0 -4.99 5 0 -5 4.99zm9.99 2.66l-9.99 0 0 -2.66 9.99 0 0 2.66zm-22.97 28.31l1.32 0 0 9.99 -1.32 0 0 -9.99zm0 4.99l-5 0 5 -4.99 0 4.99zm-5 0l0 -4.99 5 0 -5 4.99zm0 7.2l0 -7.2 9.99 0 0 7.2 -9.99 0zm5 0l4.99 0 -4.99 4.99 0 -4.99zm4.99 0l0 4.99 -4.99 0 4.99 -4.99zm-8.59 -5l3.6 0 0 9.99 -3.6 0 0 -9.99zm0 5l-5 0 5 -5 0 5zm-5 0l0 -5 5 0 -5 5zm0 7.19l0 -7.19 10 0 0 7.19 -10 0zm5 0l5 0 -5 5 0 -5zm5 0l0 5 -5 0 5 -5zm-8.6 -5l3.6 0 0 10 -3.6 0 0 -10zm0 5l-4.99 0 4.99 -5 0 5zm-4.99 0l0 -5 4.99 0 -4.99 5zm0 10.79l0 -10.79 9.99 0 0 10.79 -9.99 0zm4.99 0l5 0 -5 5 0 -5zm5 0l0 5 -5 0 5 -5zm-8.59 -5l3.59 0 0 10 -3.59 0 0 -10zm0 5l-5 0 5 -5 0 5zm-5 0l0 -5 5 0 -5 5zm0 7.19l0 -7.19 10 0 0 7.19 -10 0zm5 0l5 0 -5 5 0 -5zm5 0l0 5 -5 0 5 -5zm-8.6 -5l3.6 0 0 10 -3.6 0 0 -10zm0 5l-4.99 0 4.99 -5 0 5zm-4.99 0l0 -5 4.99 0 -4.99 5zm0 10.79l0 -10.79 9.99 0 0 10.79 -9.99 0zm4.99 0l5 0 -5 4.99 0 -4.99zm5 0l0 4.99 -5 0 5 -4.99zm-8.6 -5l3.6 0 0 9.99 -3.6 0 0 -9.99zm0 5l-4.99 0 4.99 -5 0 5zm-4.99 0l0 -5 4.99 0 -4.99 5zm0 10.79l0 -10.79 9.99 0 0 10.79 -9.99 0zm4.99 0l5 0 -5 4.99 0 -4.99zm5 0l0 4.99 -5 0 5 -4.99zm-8.59 -5l3.59 0 0 9.99 -3.59 0 0 -9.99zm0 5l-5 0 5 -5 0 5zm-5 0l0 -5 5 0 -5 5zm0 10.78l0 -10.78 10 0 0 10.78 -10 0zm5 0l5 0 -5 5 0 -5zm5 0l0 5 -5 0 5 -5zm-8.6 -4.99l3.6 0 0 9.99 -3.6 0 0 -9.99zm0 4.99l-4.99 0 4.99 -4.99 0 4.99zm-4.99 0l0 -4.99 4.99 0 -4.99 4.99zm9.99 8.7l-9.99 0 0 -8.7 9.99 0 0 8.7zm-24.38 45.25l0 -9.68 9.99 0 0 9.68 -9.99 0zm5 0l4.99 0 -4.99 4.99 0 -4.99zm4.99 0l0 4.99 -4.99 0 4.99 -4.99zm-8.59 -5l3.6 0 0 9.99 -3.6 0 0 -9.99zm0 5l-4.99 0 4.99 -5 0 5zm-4.99 0l0 -5 4.99 0 -4.99 5zm0 17.98l0 -17.98 9.99 0 0 17.98 -9.99 0zm4.99 0l5 0 -5 4.99 0 -4.99zm5 0l0 4.99 -5 0 5 -4.99zm-8.59 -5l3.59 0 0 9.99 -3.59 0 0 -9.99zm0 5l-5 0 5 -5 0 5zm-5 0l0 -5 5 0 -5 5zm0 14.38l0 -14.38 9.99 0 0 14.38 -9.99 0zm5 0l4.99 0 -4.99 5 0 -5zm4.99 0l0 5 -4.99 0 4.99 -5zm-5.72 5l0 -9.99 0.73 0 0 9.99 -0.73 0zm-13.66 29.56l3.26 0 0 10 -3.26 0 0 -10zm0 5l-5 0 5 -5 0 5zm-5 0l0 -5 5 0 -5 5zm0 28.77l0 -28.77 10 0 0 28.77 -10 0zm5 0l5 0 -5 5 0 -5zm5 0l0 5 -5 0 5 -5zm-8.59 -4.99l3.59 0 0 9.99 -3.59 0 0 -9.99zm0 4.99l-5 0 5 -4.99 0 4.99zm-5 0l0 -4.99 5 0 -5 4.99zm0 14.38l0 -14.38 9.99 0 0 14.38 -9.99 0zm5 0l4.99 0 -4.99 5 0 -5zm4.99 0l0 5 -4.99 0 4.99 -5zm-8.59 -4.99l3.6 0 0 9.99 -3.6 0 0 -9.99zm0 4.99l-5 0 5 -4.99 0 4.99zm-5 0l0 -4.99 5 0 -5 4.99zm0 21.58l0 -21.58 10 0 0 21.58 -10 0zm5 0l5 0 -5 5 0 -5zm5 0l0 5 -5 0 5 -5zm-8.6 -5l3.6 0 0 10 -3.6 0 0 -10zm0 5l-5 0 5 -5 0 5zm-5 0l0 -5 5 0 -5 5zm0 17.98l0 -17.98 10 0 0 17.98 -10 0zm5 0l5 0 -5 5 0 -5zm5 0l0 5 -5 0 5 -5zm-8.16 5l0 -9.99 3.16 0 0 9.99 -3.16 0zm-9.03 63.33l0 -22.4 10 0 0 22.4 -10 0zm5 0l5 0 -5 4.99 0 -4.99zm5 0l0 4.99 -5 0 5 -4.99zm-8.6 -5l3.6 0 0 9.99 -3.6 0 0 -9.99zm0 5l-4.99 0 4.99 -5 0 5zm-4.99 0l0 -5 4.99 0 -4.99 5zm9.99 23.96l-9.99 0 0 -23.96 9.99 0 0 23.96zm-3.59 146.29l-10 0 0 -99.92 10 0 0 99.92zm-6.4 74.29l0 -27.93 9.99 0 0 27.93 -9.99 0zm4.99 0l0 4.99 -4.99 -4.99 4.99 0zm0 4.99l-4.99 0 0 -4.99 4.99 4.99zm3.6 0l-3.6 0 0 -9.99 3.6 0 0 9.99zm0 -4.99l0 -5 5 5 -5 0zm0 -5l5 0 0 5 -5 -5zm-5 15.78l0 -10.78 10 0 0 10.78 -10 0zm5 0l0 5 -5 -5 5 0zm0 5l-5 0 0 -5 5 5zm3.6 0l-3.6 0 0 -9.99 3.6 0 0 9.99zm0 -5l0 -4.99 4.99 4.99 -4.99 0zm0 -4.99l4.99 0 0 4.99 -4.99 -4.99zm4.99 9.05l-9.99 0 0 -4.06 9.99 0 0 4.06zm27.37 29.71l-7.12 0 0 -9.99 7.12 0 0 9.99zm0 -4.99l0 -5 5 5 -5 0zm0 -5l5 0 0 5 -5 -5zm-4.99 8.59l0 -3.59 9.99 0 0 3.59 -9.99 0zm4.99 0l0 5 -4.99 -5 4.99 0zm0 5l-4.99 0 0 -5 4.99 5zm35.96 0l-35.96 0 0 -10 35.96 0 0 10zm0 -5l0 -5 5 5 -5 0zm0 -5l5 0 0 5 -5 -5zm-4.99 8.6l0 -3.6 9.99 0 0 3.6 -9.99 0zm4.99 0l0 4.99 -4.99 -4.99 4.99 0zm0 4.99l-4.99 0 0 -4.99 4.99 4.99zm32.37 0l-32.37 0 0 -9.99 32.37 0 0 9.99zm0 -4.99l0 -5 4.99 5 -4.99 0zm0 -5l4.99 0 0 5 -4.99 -5zm-5 8.59l0 -3.59 9.99 0 0 3.59 -9.99 0zm5 0l0 5 -5 -5 5 0zm0 5l-5 0 0 -5 5 5zm13.68 -9.99l0 9.99 -13.68 0 0 -9.99 13.68 0zm54.65 9.99l-4.69 0 0 -9.99 4.69 0 0 9.99zm0 -5l0 -4.99 4.99 4.99 -4.99 0zm0 -4.99l4.99 0 0 4.99 -4.99 -4.99zm-5 8.59l0 -3.6 9.99 0 0 3.6 -9.99 0zm5 0l0 4.99 -5 -4.99 5 0zm0 4.99l-5 0 0 -4.99 5 4.99zm41.67 -9.99l0 9.99 -41.67 0 0 -9.99 41.67 0zm80.6 9.99l-30.64 0 0 -9.99 30.64 0 0 9.99zm0 -4.99l4.99 0 -4.99 4.99 0 -4.99zm4.99 0l0 4.99 -4.99 0 4.99 -4.99zm0 -3.6l0 3.6 -9.99 0 0 -3.6 9.99 0zm-4.99 0l-5 0 5 -4.99 0 4.99zm-5 0l0 -4.99 5 0 -5 4.99zm55.34 5l-50.34 0 0 -9.99 50.34 0 0 9.99zm0 -5l5 0 -5 5 0 -5zm5 0l0 5 -5 0 5 -5zm0 -3.59l0 3.59 -9.99 0 0 -3.59 9.99 0zm-5 0l-4.99 0 4.99 -5 0 5zm-4.99 0l0 -5 4.99 0 -4.99 5zm16.74 -5l0 9.99 -11.75 0 0 -9.99 11.75 0zm49.39 6.4l-3.03 0 0 -10 3.03 0 0 10zm0 -5l4.99 0 -4.99 5 0 -5zm4.99 0l0 5 -4.99 0 4.99 -5zm0 -3.59l0 3.59 -9.99 0 0 -3.59 9.99 0zm-4.99 0l-5 0 5 -5 0 5zm-5 0l0 -5 5 0 -5 5zm22.98 4.99l-17.98 0 0 -9.99 17.98 0 0 9.99zm0 -4.99l5 0 -5 4.99 0 -4.99zm5 0l0 4.99 -5 0 5 -4.99zm0 -3.6l0 3.6 -10 0 0 -3.6 10 0zm-5 0l-5 0 5 -5 0 5zm-5 0l0 -5 5 0 -5 5zm19.38 4.99l-14.38 0 0 -9.99 14.38 0 0 9.99zm0 -4.99l5 0 -5 4.99 0 -4.99zm5 0l0 4.99 -5 0 5 -4.99zm0 -3.6l0 3.6 -10 0 0 -3.6 10 0zm-5 0l-5 0 5 -5 0 5zm-5 0l0 -5 5 0 -5 5zm8.78 -5l0 10 -3.78 0 0 -10 3.78 0zm37.18 -12.98l0 0.2 -9.99 0 0 -0.2 9.99 0zm-5 0l-4.99 0 4.99 -5 0 5zm-4.99 0l0 -5 4.99 0 -4.99 5zm8.59 5l-3.6 0 0 -10 3.6 0 0 10zm0 -5l5 0 -5 5 0 -5zm5 0l0 5 -5 0 5 -5zm0 -3.6l0 3.6 -9.99 0 0 -3.6 9.99 0zm-5 0l-4.99 0 4.99 -4.99 0 4.99zm-4.99 0l0 -4.99 4.99 0 -4.99 4.99zm8.58 5l-3.59 0 0 -9.99 3.59 0 0 9.99zm0 -5l5 0 -5 5 0 -5zm5 0l0 5 -5 0 5 -5zm0 -3.59l0 3.59 -9.99 0 0 -3.59 9.99 0zm-5 0l-4.99 0 4.99 -5 0 5zm-4.99 0l0 -5 4.99 0 -4.99 5zm8.59 5l-3.6 0 0 -10 3.6 0 0 10zm0 -5l5 0 -5 5 0 -5zm5 0l0 5 -5 0 5 -5zm0 -3.6l0 3.6 -9.99 0 0 -3.6 9.99 0zm-5 0l-4.99 0 4.99 -4.99 0 4.99zm-4.99 0l0 -4.99 4.99 0 -4.99 4.99zm8.59 5l-3.6 0 0 -9.99 3.6 0 0 9.99zm0 -5l5 0 -5 5 0 -5zm5 0l0 5 -5 0 5 -5zm0 -7.19l0 7.19 -10 0 0 -7.19 10 0zm-5 0l-5 0 5 -4.99 0 4.99zm-5 0l0 -4.99 5 0 -5 4.99zm8.59 5l-3.59 0 0 -9.99 3.59 0 0 9.99zm0 -5l5 0 -5 5 0 -5zm5 0l0 5 -5 0 5 -5zm0 -7.19l0 7.19 -9.99 0 0 -7.19 9.99 0zm-5 0l-4.99 0 4.99 -5 0 5zm-4.99 0l0 -5 4.99 0 -4.99 5zm8.59 4.99l-3.6 0 0 -9.99 3.6 0 0 9.99zm0 -4.99l5 0 -5 4.99 0 -4.99zm5 0l0 4.99 -5 0 5 -4.99zm0 -14.38l0 14.38 -10 0 0 -14.38 10 0zm-5 0l-5 0 5 -5 0 5zm-5 0l0 -5 5 0 -5 5zm8.6 4.99l-3.6 0 0 -9.99 3.6 0 0 9.99zm0 -4.99l5 0 -5 4.99 0 -4.99zm5 0l0 4.99 -5 0 5 -4.99zm0 -14.39l0 14.39 -10 0 0 -14.39 10 0zm-5 0l-5 0 5 -5 0 5zm-5 0l0 -5 5 0 -5 5zm8.59 5l-3.59 0 0 -10 3.59 0 0 10zm0 -5l5 0 -5 5 0 -5zm5 0l0 5 -5 0 5 -5zm-9.99 -17.01l9.99 0 0 17.01 -9.99 0 0 -17.01zm13.59 -62.1l0 15.74 -10 0 0 -15.74 10 0zm-5 0l-5 0 5 -5 0 5zm-5 0l0 -5 5 0 -5 5zm8.6 4.99l-3.6 0 0 -9.99 3.6 0 0 9.99zm0 -4.99l4.99 0 -4.99 4.99 0 -4.99zm4.99 0l0 4.99 -4.99 0 4.99 -4.99zm-9.99 -30.62l9.99 0 0 30.62 -9.99 0 0 -30.62zm-207.18 -590.12l-17.98 0 0 -9.99 17.98 0 0 9.99zm0 -4.99l0 -5 5 5 -5 0zm0 -5l5 0 0 5 -5 -5zm-5 8.59l0 -3.59 10 0 0 3.59 -10 0zm5 0l0 5 -5 -5 5 0zm0 5l-5 0 0 -5 5 5zm14.39 0l-14.39 0 0 -10 14.39 0 0 10zm0 -5l0 -5 4.99 5 -4.99 0zm0 -5l4.99 0 0 5 -4.99 -5zm-5 8.6l0 -3.6 9.99 0 0 3.6 -9.99 0zm5 0l0 4.99 -5 -4.99 5 0zm0 4.99l-5 0 0 -4.99 5 4.99zm10.4 -9.99l0 9.99 -10.4 0 0 -9.99 10.4 0zm24.16 26.57l0 -0.77 9.99 0 0 0.77 -9.99 0zm4.99 0l0 5 -4.99 -5 4.99 0zm0 5l-4.99 0 0 -5 4.99 5zm7.2 0l-7.2 0 0 -9.99 7.2 0 0 9.99zm0 -5l0 -4.99 4.99 4.99 -4.99 0zm0 -4.99l4.99 0 0 4.99 -4.99 -4.99zm-5 8.59l0 -3.6 9.99 0 0 3.6 -9.99 0zm5 0l0 5 -5 -5 5 0zm0 5l-5 0 0 -5 5 5zm3.59 0l-3.59 0 0 -10 3.59 0 0 10zm0 -5l0 -5 5 5 -5 0zm0 -5l5 0 0 5 -5 -5zm-5 8.59l0 -3.59 10 0 0 3.59 -10 0zm5 0l0 5 -5 -5 5 0zm0 5l-5 0 0 -5 5 5zm3.6 0l-3.6 0 0 -9.99 3.6 0 0 9.99zm0 -5l0 -4.99 4.99 4.99 -4.99 0zm0 -4.99l4.99 0 0 4.99 -4.99 -4.99zm-5 8.59l0 -3.6 9.99 0 0 3.6 -9.99 0zm5 0l0 5 -5 -5 5 0zm0 5l-5 0 0 -5 5 5zm3.6 0l-3.6 0 0 -9.99 3.6 0 0 9.99zm0 -5l0 -4.99 4.99 4.99 -4.99 0zm0 -4.99l4.99 0 0 4.99 -4.99 -4.99zm-5 8.59l0 -3.6 9.99 0 0 3.6 -9.99 0zm5 0l0 5 -5 -5 5 0zm0 5l-5 0 0 -5 5 5zm3.59 0l-3.59 0 0 -10 3.59 0 0 10zm0 -5l0 -5 5 5 -5 0zm0 -5l5 0 0 5 -5 -5zm-5 8.59l0 -3.59 10 0 0 3.59 -10 0zm5 0l0 5 -5 -5 5 0zm0 5l-5 0 0 -5 5 5zm3.6 0l-3.6 0 0 -9.99 3.6 0 0 9.99zm0 -5l0 -4.99 4.99 4.99 -4.99 0zm0 -4.99l4.99 0 0 4.99 -4.99 -4.99zm-5 8.59l0 -3.6 9.99 0 0 3.6 -9.99 0zm5 0l0 5 -5 -5 5 0zm0 5l-5 0 0 -5 5 5zm3.59 0l-3.59 0 0 -10 3.59 0 0 10zm0 -5l0 -5 5 5 -5 0zm0 -5l5 0 0 5 -5 -5zm-4.99 8.6l0 -3.6 9.99 0 0 3.6 -9.99 0zm4.99 0l0 4.99 -4.99 -4.99 4.99 0zm0 4.99l-4.99 0 0 -4.99 4.99 4.99zm3.6 0l-3.6 0 0 -9.99 3.6 0 0 9.99zm0 -4.99l0 -5 4.99 5 -4.99 0zm0 -5l4.99 0 0 5 -4.99 -5zm-5 8.59l0 -3.59 9.99 0 0 3.59 -9.99 0zm5 0l0 5 -5 -5 5 0zm0 5l-5 0 0 -5 5 5zm3.6 0l-3.6 0 0 -10 3.6 0 0 10zm0 -5l0 -5 4.99 5 -4.99 0zm0 -5l4.99 0 0 5 -4.99 -5zm-5 8.6l0 -3.6 9.99 0 0 3.6 -9.99 0zm5 0l0 5 -5 -5 5 0zm0 5l-5 0 0 -5 5 5zm3.59 0l-3.59 0 0 -10 3.59 0 0 10zm0 -5l0 -5 5 5 -5 0zm0 -5l5 0 0 5 -5 -5zm-4.99 12.19l0 -7.19 9.99 0 0 7.19 -9.99 0zm4.99 0l0 5 -4.99 -5 4.99 0zm0 5l-4.99 0 0 -5 4.99 5zm3.6 0l-3.6 0 0 -10 3.6 0 0 10zm0 -5l0 -5 4.99 5 -4.99 0zm0 -5l4.99 0 0 5 -4.99 -5zm-5 8.6l0 -3.6 9.99 0 0 3.6 -9.99 0zm5 0l0 4.99 -5 -4.99 5 0zm0 4.99l-5 0 0 -4.99 5 4.99zm3.59 0l-3.59 0 0 -9.99 3.59 0 0 9.99zm0 -4.99l0 -5 5 5 -5 0zm0 -5l5 0 0 5 -5 -5zm-4.99 8.59l0 -3.59 9.99 0 0 3.59 -9.99 0zm4.99 0l0 5 -4.99 -5 4.99 0zm0 5l-4.99 0 0 -5 4.99 5zm3.6 0l-3.6 0 0 -9.99 3.6 0 0 9.99zm0 -5l0 -4.99 5 4.99 -5 0zm0 -4.99l5 0 0 4.99 -5 -4.99zm5 7.04l-9.99 0 0 -2.05 9.99 0 0 2.05zm16.58 35.32l-1.94 0 0 -10 1.94 0 0 10zm0 -5l0 -5 5 5 -5 0zm0 -5l5 0 0 5 -5 -5zm-5 12.19l0 -7.19 10 0 0 7.19 -10 0zm5 0l0 5 -5 -5 5 0zm0 5l-5 0 0 -5 5 5zm3.59 0l-3.59 0 0 -10 3.59 0 0 10zm0 -5l0 -5 5 5 -5 0zm0 -5l5 0 0 5 -5 -5zm-4.99 12.19l0 -7.19 9.99 0 0 7.19 -9.99 0zm4.99 0l0 5 -4.99 -5 4.99 0zm0 5l-4.99 0 0 -5 4.99 5zm3.6 0l-3.6 0 0 -9.99 3.6 0 0 9.99zm0 -5l0 -4.99 5 4.99 -5 0zm0 -4.99l5 0 0 4.99 -5 -4.99zm-5 12.19l0 -7.2 10 0 0 7.2 -10 0zm5 0l0 4.99 -5 -4.99 5 0zm0 4.99l-5 0 0 -4.99 5 4.99zm3.6 0l-3.6 0 0 -9.99 3.6 0 0 9.99zm0 -4.99l4.99 0 -4.99 4.99 0 -4.99zm4.99 0l0 4.99 -4.99 0 4.99 -4.99zm-9.99 -15.66l9.99 0 0 15.66 -9.99 0 0 -15.66zm2.8 -74.25l0 31.49 -9.99 0 0 -31.49 9.99 0zm-5 0l0 -4.99 5 4.99 -5 0zm0 -4.99l5 0 0 4.99 -5 -4.99zm-3.59 0l3.59 0 0 9.99 -3.59 0 0 -9.99zm0 4.99l0 5 -5 -5 5 0zm0 5l-5 0 0 -5 5 5zm5 -44.55l0 39.55 -10 0 0 -39.55 10 0zm-5 0l0 -5 5 5 -5 0zm0 -5l5 0 0 5 -5 -5zm-3.6 0l3.6 0 0 9.99 -3.6 0 0 -9.99zm0 5l0 4.99 -4.99 -4.99 4.99 0zm0 4.99l-4.99 0 0 -4.99 4.99 4.99zm-4.99 -26.68l9.99 0 0 21.69 -9.99 0 0 -21.69zm6.39 -64.62l0 18.26 -9.99 0 0 -18.26 9.99 0zm-5 0l0 -5 5 5 -5 0zm0 -5l5 0 0 5 -5 -5zm-3.59 0l3.59 0 0 9.99 -3.59 0 0 -9.99zm0 5l0 4.99 -5 -4.99 5 0zm0 4.99l-5 0 0 -4.99 5 4.99zm-5 -33.1l10 0 0 28.11 -10 0 0 -28.11zm6.4 -68.99l0 22.63 -9.99 0 0 -22.63 9.99 0zm-5 0l0 -5 5 5 -5 0zm0 -5l5 0 0 5 -5 -5zm-3.59 0l3.59 0 0 10 -3.59 0 0 -10zm0 5l0 5 -5 -5 5 0zm0 5l-5 0 0 -5 5 5zm4.99 -58.94l0 53.94 -9.99 0 0 -53.94 9.99 0zm-4.99 0l0 -5 4.99 5 -4.99 0zm0 -5l4.99 0 0 5 -4.99 -5zm-3.6 0l3.6 0 0 10 -3.6 0 0 -10zm0 5l0 5 -4.99 -5 4.99 0zm0 5l-4.99 0 0 -5 4.99 5zm-4.99 -21.16l9.99 0 0 16.16 -9.99 0 0 -16.16zm6.39 -88.13l0 41.77 -9.99 0 0 -41.77 9.99 0zm-5 0l0 -4.99 5 4.99 -5 0zm0 -4.99l5 0 0 4.99 -5 -4.99zm-3.59 0l3.59 0 0 9.99 -3.59 0 0 -9.99zm0 4.99l0 5 -5 -5 5 0zm0 5l-5 0 0 -5 5 5zm-5 -9.59l9.99 0 0 4.59 -9.99 0 0 -4.59zm6.4 -52.95l0 6.58 -9.99 0 0 -6.58 9.99 0zm-5 0l0 -5 5 5 -5 0zm0 -5l5 0 0 5 -5 -5zm-3.59 0l3.59 0 0 10 -3.59 0 0 -10zm0 5l0 5 -5 -5 5 0zm0 5l-5 0 0 -5 5 5zm4.99 -37.36l0 32.36 -9.99 0 0 -32.36 9.99 0zm-4.99 0l0 -5 4.99 5 -4.99 0zm0 -5l4.99 0 0 5 -4.99 -5zm-3.6 0l3.6 0 0 9.99 -3.6 0 0 -9.99zm0 5l0 4.99 -5 -4.99 5 0zm0 4.99l-5 0 0 -4.99 5 4.99zm4.99 -33.76l0 28.77 -9.99 0 0 -28.77 9.99 0zm-4.99 0l0 -5 4.99 5 -4.99 0zm0 -5l4.99 0 0 5 -4.99 -5zm-3.6 0l3.6 0 0 10 -3.6 0 0 -10zm0 5l0 5 -4.99 -5 4.99 0zm0 5l-4.99 0 0 -5 4.99 5zm5 -19.39l0 14.39 -9.99 0 0 -14.39 9.99 0zm-5 0l0 -4.99 5 4.99 -5 0zm0 -4.99l5 0 0 4.99 -5 -4.99zm-3.59 0l3.59 0 0 9.99 -3.59 0 0 -9.99zm0 4.99l0 5 -5 -5 5 0zm0 5l-5 0 0 -5 5 5zm-5 -8.43l9.99 0 0 3.43 -9.99 0 0 -3.43zm2.8 -64.9l0 22.13 -9.99 0 0 -22.13 9.99 0zm-4.99 0l0 -4.99 4.99 4.99 -4.99 0zm0 -4.99l4.99 0 0 4.99 -4.99 -4.99zm-3.6 0l3.6 0 0 9.99 -3.6 0 0 -9.99zm0 4.99l0 5 -5 -5 5 0zm0 5l-5 0 0 -5 5 5zm4.99 -19.38l0 14.38 -9.99 0 0 -14.38 9.99 0zm-4.99 0l0 -4.99 4.99 4.99 -4.99 0zm0 -4.99l4.99 0 0 4.99 -4.99 -4.99zm-3.6 0l3.6 0 0 9.99 -3.6 0 0 -9.99zm0 4.99l0 5 -5 -5 5 0zm0 5l-5 0 0 -5 5 5zm-5 -11.25l10 0 0 6.25 -10 0 0 -6.25zm2.81 -47.69l0 4.92 -10 0 0 -4.92 10 0zm-5 0l0 -5 5 5 -5 0zm0 -5l5 0 0 5 -5 -5zm-3.6 0l3.6 0 0 10 -3.6 0 0 -10zm0 5l0 5 -4.99 -5 4.99 0zm0 5l-4.99 0 0 -5 4.99 5zm5 -30.17l0 25.17 -9.99 0 0 -25.17 9.99 0zm-5 0l0 -5 5 5 -5 0zm0 -5l5 0 0 5 -5 -5zm-3.59 0l3.59 0 0 9.99 -3.59 0 0 -9.99zm0 5l0 4.99 -5 -4.99 5 0zm0 4.99l-5 0 0 -4.99 5 4.99zm5 -19.38l0 14.39 -10 0 0 -14.39 10 0zm-5 0l0 -5 5 5 -5 0zm0 -5l5 0 0 5 -5 -5zm-3.6 0l3.6 0 0 10 -3.6 0 0 -10zm0 5l0 5 -4.99 -5 4.99 0zm0 5l-4.99 0 0 -5 4.99 5zm5 -15.79l0 10.79 -9.99 0 0 -10.79 9.99 0zm-5 0l0 -5 5 5 -5 0zm0 -5l5 0 0 5 -5 -5zm-3.6 0l3.6 0 0 10 -3.6 0 0 -10zm0 5l0 5 -4.99 -5 4.99 0zm0 5l-4.99 0 0 -5 4.99 5zm5 -33.77l0 28.77 -9.99 0 0 -28.77 9.99 0zm-5 0l0 -4.99 5 4.99 -5 0zm0 -4.99l5 0 0 4.99 -5 -4.99zm-1.49 9.99l0 -9.99 1.49 0 0 9.99 -1.49 0zm-4.3 -62.54l0 16.87 -9.99 0 0 -16.87 9.99 0zm-4.99 0l0 -4.99 4.99 4.99 -4.99 0zm0 -4.99l4.99 0 0 4.99 -4.99 -4.99zm-3.6 0l3.6 0 0 9.99 -3.6 0 0 -9.99zm0 4.99l0 5 -4.99 -5 4.99 0zm0 5l-4.99 0 0 -5 4.99 5zm5 -26.57l0 21.57 -9.99 0 0 -21.57 9.99 0zm-5 0l0 -5 5 5 -5 0zm0 -5l5 0 0 5 -5 -5zm-3.6 0l3.6 0 0 9.99 -3.6 0 0 -9.99zm0 5l0 4.99 -4.99 -4.99 4.99 0zm0 4.99l-4.99 0 0 -4.99 4.99 4.99zm-4.99 -9.31l9.99 0 0 4.32 -9.99 0 0 -4.32zm6.39 -74.8l0 28.43 -9.99 0 0 -28.43 9.99 0zm-4.99 0l0 -4.99 4.99 4.99 -4.99 0zm0 -4.99l4.99 0 0 4.99 -4.99 -4.99zm-3.6 0l3.6 0 0 9.99 -3.6 0 0 -9.99zm0 4.99l0 5 -4.99 -5 4.99 0zm0 5l-4.99 0 0 -5 4.99 5zm5 -55.35l0 50.35 -9.99 0 0 -50.35 9.99 0zm-5 0l0 -4.99 5 4.99 -5 0zm0 -4.99l5 0 0 4.99 -5 -4.99zm-3.59 0l3.59 0 0 9.99 -3.59 0 0 -9.99zm0 4.99l0 5 -5 -5 5 0zm0 5l-5 0 0 -5 5 5zm-5 -18.94l9.99 0 0 13.94 -9.99 0 0 -13.94zm6.4 -61.58l0 15.22 -10 0 0 -15.22 10 0zm-5 0l0 -4.99 5 4.99 -5 0zm0 -4.99l5 0 0 4.99 -5 -4.99zm-3.59 0l3.59 0 0 9.99 -3.59 0 0 -9.99zm0 4.99l0 5 -5 -5 5 0zm0 5l-5 0 0 -5 5 5zm4.99 -33.76l0 28.76 -9.99 0 0 -28.76 9.99 0zm-4.99 0l0 -5 4.99 5 -4.99 0zm0 -5l4.99 0 0 5 -4.99 -5zm-2.39 9.99l0 -9.99 2.39 0 0 9.99 -2.39 0zm-3.41 -51.74l0 5.19 -9.99 0 0 -5.19 9.99 0zm-4.99 0l0 -5 4.99 5 -4.99 0zm0 -5l4.99 0 0 5 -4.99 -5zm-3.6 0l3.6 0 0 9.99 -3.6 0 0 -9.99zm0 5l0 4.99 -5 -4.99 5 0zm0 4.99l-5 0 0 -4.99 5 4.99zm5 -15.78l0 10.79 -10 0 0 -10.79 10 0zm-5 0l0 -5 5 5 -5 0zm0 -5l5 0 0 5 -5 -5zm-3.6 0l3.6 0 0 9.99 -3.6 0 0 -9.99zm0 5l0 4.99 -4.99 -4.99 4.99 0zm0 4.99l-4.99 0 0 -4.99 4.99 4.99zm5 -15.78l0 10.79 -9.99 0 0 -10.79 9.99 0zm-5 0l0 -5 5 5 -5 0zm0 -5l5 0 0 5 -5 -5zm-3.59 0l3.59 0 0 10 -3.59 0 0 -10zm0 5l0 5 -5 -5 5 0zm0 5l-5 0 0 -5 5 5zm5 -12.19l0 7.19 -10 0 0 -7.19 10 0zm-5 0l0 -5 5 5 -5 0zm0 -5l5 0 0 5 -5 -5zm-3.6 0l3.6 0 0 9.99 -3.6 0 0 -9.99zm0 5l0 4.99 -5 -4.99 5 0zm0 4.99l-5 0 0 -4.99 5 4.99zm5 -12.18l0 7.19 -10 0 0 -7.19 10 0zm-5 0l0 -5 5 5 -5 0zm0 -5l5 0 0 5 -5 -5zm-3.6 0l3.6 0 0 9.99 -3.6 0 0 -9.99zm0 5l0 4.99 -4.99 -4.99 4.99 0zm0 4.99l-4.99 0 0 -4.99 4.99 4.99zm5 -8.59l0 3.6 -9.99 0 0 -3.6 9.99 0zm-5 0l0 -5 5 5 -5 0zm0 -5l5 0 0 5 -5 -5zm-3.59 0l3.59 0 0 10 -3.59 0 0 -10zm0 5l0 5 -5 -5 5 0zm0 5l-5 0 0 -5 5 5zm5 -8.6l0 3.6 -10 0 0 -3.6 10 0zm-5 0l0 -4.99 5 4.99 -5 0zm0 -4.99l5 0 0 4.99 -5 -4.99zm-3.6 0l3.6 0 0 9.99 -3.6 0 0 -9.99zm0 4.99l0 5 -4.99 -5 4.99 0zm0 5l-4.99 0 0 -5 4.99 5zm5 -8.59l0 3.59 -9.99 0 0 -3.59 9.99 0zm-5 0l0 -5 5 5 -5 0zm0 -5l5 0 0 5 -5 -5zm-14.38 0l14.38 0 0 10 -14.38 0 0 -10zm0 5l-5 0 5 -5 0 5zm-5 0l0 -5 5 0 -5 5zm0 3.59l0 -3.59 9.99 0 0 3.59 -9.99 0zm5 0l4.99 0 -4.99 5 0 -5zm4.99 0l0 5 -4.99 0 4.99 -5zm-9.82 5l0 -9.99 4.83 0 0 9.99 -4.83 0zm-25.34 27.37l0 -2.75 9.99 0 0 2.75 -9.99 0zm5 0l4.99 0 -4.99 4.99 0 -4.99zm4.99 0l0 4.99 -4.99 0 4.99 -4.99zm-8.59 -5l3.6 0 0 9.99 -3.6 0 0 -9.99zm0 5l-5 0 5 -5 0 5zm-5 0l0 -5 5 0 -5 5zm0 10.79l0 -10.79 10 0 0 10.79 -10 0zm5 0l5 0 -5 4.99 0 -4.99zm5 0l0 4.99 -5 0 5 -4.99zm-8.6 -5l3.6 0 0 9.99 -3.6 0 0 -9.99zm0 5l-5 0 5 -5 0 5zm-5 0l0 -5 5 0 -5 5zm0 7.19l0 -7.19 10 0 0 7.19 -10 0zm5 0l5 0 -5 5 0 -5zm5 0l0 5 -5 0 5 -5zm-8.59 -5l3.59 0 0 10 -3.59 0 0 -10zm0 5l-5 0 5 -5 0 5zm-5 0l0 -5 5 0 -5 5zm0 10.79l0 -10.79 9.99 0 0 10.79 -9.99 0zm5 0l4.99 0 -4.99 5 0 -5zm4.99 0l0 5 -4.99 0 4.99 -5zm-8.59 -5l3.6 0 0 10 -3.6 0 0 -10zm0 5l-5 0 5 -5 0 5zm-5 0l0 -5 5 0 -5 5zm10 4.05l-10 0 0 -4.05 10 0 0 4.05zm-24.38 49.89l0 -14.32 9.99 0 0 14.32 -9.99 0zm4.99 0l5 0 -5 5 0 -5zm5 0l0 5 -5 0 5 -5zm-8.59 -5l3.59 0 0 10 -3.59 0 0 -10zm0 5l-5 0 5 -5 0 5zm-5 0l0 -5 5 0 -5 5zm0 10.79l0 -10.79 10 0 0 10.79 -10 0zm5 0l5 0 -5 5 0 -5zm5 0l0 5 -5 0 5 -5zm-8.6 -5l3.6 0 0 10 -3.6 0 0 -10zm0 5l-4.99 0 4.99 -5 0 5zm-4.99 0l0 -5 4.99 0 -4.99 5zm0 10.79l0 -10.79 9.99 0 0 10.79 -9.99 0zm4.99 0l5 0 -5 4.99 0 -4.99zm5 0l0 4.99 -5 0 5 -4.99zm-8.59 -5l3.59 0 0 9.99 -3.59 0 0 -9.99zm0 5l-5 0 5 -5 0 5zm-5 0l0 -5 5 0 -5 5zm0 10.79l0 -10.79 9.99 0 0 10.79 -9.99 0zm5 0l4.99 0 -4.99 4.99 0 -4.99zm4.99 0l0 4.99 -4.99 0 4.99 -4.99zm-8.59 -5l3.6 0 0 9.99 -3.6 0 0 -9.99zm0 5l-4.99 0 4.99 -5 0 5zm-4.99 0l0 -5 4.99 0 -4.99 5zm0 14.38l0 -14.38 9.99 0 0 14.38 -9.99 0zm4.99 0l5 0 -5 5 0 -5zm5 0l0 5 -5 0 5 -5zm-8.59 -5l3.59 0 0 10 -3.59 0 0 -10zm0 5l-5 0 5 -5 0 5zm-5 0l0 -5 5 0 -5 5zm0 10.79l0 -10.79 9.99 0 0 10.79 -9.99 0zm5 0l4.99 0 -4.99 4.99 0 -4.99zm4.99 0l0 4.99 -4.99 0 4.99 -4.99zm-8.59 -5l3.6 0 0 9.99 -3.6 0 0 -9.99zm0 5l-5 0 5 -5 0 5zm-5 0l0 -5 5 0 -5 5zm9.99 6.48l-9.99 0 0 -6.48 9.99 0 0 6.48zm-15.78 35.27l1.09 0 0 10 -1.09 0 0 -10zm0 5l-5 0 5 -5 0 5zm-5 0l0 -5 5 0 -5 5zm0 14.39l0 -14.39 10 0 0 14.39 -10 0zm5 0l5 0 -5 4.99 0 -4.99zm5 0l0 4.99 -5 0 5 -4.99zm-8.59 -5l3.59 0 0 9.99 -3.59 0 0 -9.99zm0 5l-5 0 5 -5 0 5zm-5 0l0 -5 5 0 -5 5zm0 10.78l0 -10.78 9.99 0 0 10.78 -9.99 0zm5 0l4.99 0 -4.99 5 0 -5zm4.99 0l0 5 -4.99 0 4.99 -5zm-8.59 -4.99l3.6 0 0 9.99 -3.6 0 0 -9.99zm0 4.99l-5 0 5 -4.99 0 4.99zm-5 0l0 -4.99 5 0 -5 4.99zm10 16.5l-10 0 0 -16.5 10 0 0 16.5zm-20.79 62.62l0 -23.45 10 0 0 23.45 -10 0zm5 0l5 0 -5 4.99 0 -4.99zm5 0l0 4.99 -5 0 5 -4.99zm-8.6 -5l3.6 0 0 9.99 -3.6 0 0 -9.99zm0 5l-4.99 0 4.99 -5 0 5zm-4.99 0l0 -5 4.99 0 -4.99 5zm0 14.38l0 -14.38 9.99 0 0 14.38 -9.99 0zm4.99 0l5 0 -5 5 0 -5zm5 0l0 5 -5 0 5 -5zm-8.59 -4.99l3.59 0 0 9.99 -3.59 0 0 -9.99zm0 4.99l-5 0 5 -4.99 0 4.99zm-5 0l0 -4.99 5 0 -5 4.99zm0 28.77l0 -28.77 10 0 0 28.77 -10 0zm5 0l5 0 -5 5 0 -5zm5 0l0 5 -5 0 5 -5zm-8.6 -5l3.6 0 0 10 -3.6 0 0 -10zm0 5l-4.99 0 4.99 -5 0 5zm-4.99 0l0 -5 4.99 0 -4.99 5zm9.99 22.53l-9.99 0 0 -22.53 9.99 0 0 22.53zm-17.19 49.4l0 -6.63 10 0 0 6.63 -10 0zm5 0l5 0 -5 4.99 0 -4.99zm5 0l0 4.99 -5 0 5 -4.99zm-8.6 -5l3.6 0 0 9.99 -3.6 0 0 -9.99zm0 5l-4.99 0 4.99 -5 0 5zm-4.99 0l0 -5 4.99 0 -4.99 5zm0 28.76l0 -28.76 9.99 0 0 28.76 -9.99 0zm4.99 0l5 0 -5 5 0 -5zm5 0l0 5 -5 0 5 -5zm-8.59 -4.99l3.59 0 0 9.99 -3.59 0 0 -9.99zm0 4.99l-5 0 5 -4.99 0 4.99zm-5 0l0 -4.99 5 0 -5 4.99zm9.99 7.38l-9.99 0 0 -7.38 9.99 0 0 7.38zm-13.58 57.36l0 -11 9.99 0 0 11 -9.99 0zm4.99 0l5 0 -5 4.99 0 -4.99zm5 0l0 4.99 -5 0 5 -4.99zm-8.6 -5l3.6 0 0 9.99 -3.6 0 0 -9.99zm0 5l-4.99 0 4.99 -5 0 5zm-4.99 0l0 -5 4.99 0 -4.99 5zm0 35.96l0 -35.96 9.99 0 0 35.96 -9.99 0zm4.99 0l5 0 -5 4.99 0 -4.99zm5 0l0 4.99 -5 0 5 -4.99zm-8.59 -5l3.59 0 0 9.99 -3.59 0 0 -9.99zm0 5l-5 0 5 -5 0 5zm-5 0l0 -5 5 0 -5 5zm0 35.96l0 -35.96 9.99 0 0 35.96 -9.99 0zm5 0l4.99 0 -4.99 4.99 0 -4.99zm4.99 0l0 4.99 -4.99 0 4.99 -4.99zm-8.59 -5l3.6 0 0 9.99 -3.6 0 0 -9.99zm0 5l-4.99 0 4.99 -5 0 5zm-4.99 0l0 -5 4.99 0 -4.99 5zm9.99 6.21l-9.99 0 0 -6.21 9.99 0 0 6.21zm-13.59 58.52l0 -12.16 9.99 0 0 12.16 -9.99 0zm5 0l4.99 0 -4.99 4.99 0 -4.99zm4.99 0l0 4.99 -4.99 0 4.99 -4.99zm-8.59 -5l3.6 0 0 9.99 -3.6 0 0 -9.99zm0 5l-5 0 5 -5 0 5zm-5 0l0 -5 5 0 -5 5zm9.99 34.21l-9.99 0 0 -34.21 9.99 0 0 34.21zm-13.58 52.09l0 -5.73 9.99 0 0 5.73 -9.99 0zm4.99 0l5 0 -5 5 0 -5zm5 0l0 5 -5 0 5 -5zm-8.59 -4.99l3.59 0 0 9.99 -3.59 0 0 -9.99zm0 4.99l-5 0 5 -4.99 0 4.99zm-5 0l0 -4.99 5 0 -5 4.99zm0 50.35l0 -50.35 9.99 0 0 50.35 -9.99 0zm5 0l4.99 0 -4.99 5 0 -5zm4.99 0l0 5 -4.99 0 4.99 -5zm-8.59 -4.99l3.6 0 0 9.99 -3.6 0 0 -9.99zm0 4.99l-5 0 5 -4.99 0 4.99zm-5 0l0 -4.99 5 0 -5 4.99zm10 36.65l-10 0 0 -36.65 10 0 0 36.65zm-7.2 92.72l-9.99 0 0 -49.96 9.99 0 0 49.96zm-13.59 50.44l0 -4.08 10 0 0 4.08 -10 0zm5 0l5 0 -5 5 0 -5zm5 0l0 5 -5 0 5 -5zm-8.59 -5l3.59 0 0 10 -3.59 0 0 -10zm0 5l-5 0 5 -5 0 5zm-5 0l0 -5 5 0 -5 5zm0 53.94l0 -53.94 9.99 0 0 53.94 -9.99 0zm5 0l4.99 0 -4.99 5 0 -5zm4.99 0l0 5 -4.99 0 4.99 -5zm-8.59 -4.99l3.6 0 0 9.99 -3.6 0 0 -9.99zm0 4.99l-5 0 5 -4.99 0 4.99zm-5 0l0 -4.99 5 0 -5 4.99zm10 34.71l-10 0 0 -34.71 10 0 0 34.71zm-13.59 48l0 -1.64 9.99 0 0 1.64 -9.99 0zm4.99 0l5 0 -5 5 0 -5zm5 0l0 5 -5 0 5 -5zm-8.59 -4.99l3.59 0 0 9.99 -3.59 0 0 -9.99zm0 4.99l-5 0 5 -4.99 0 4.99zm-5 0l0 -4.99 5 0 -5 4.99zm0 32.37l0 -32.37 10 0 0 32.37 -10 0zm5 0l5 0 -5 5 0 -5zm5 0l0 5 -5 0 5 -5zm-8.6 -5l3.6 0 0 10 -3.6 0 0 -10zm0 5l-4.99 0 4.99 -5 0 5zm-4.99 0l0 -5 4.99 0 -4.99 5zm9.99 8.76l-9.99 0 0 -8.76 9.99 0 0 8.76zm-13.59 66.76l0 -20.4 9.99 0 0 20.4 -9.99 0zm4.99 0l5 0 -5 4.99 0 -4.99zm5 0l0 4.99 -5 0 5 -4.99zm-8.59 -5l3.59 0 0 9.99 -3.59 0 0 -9.99zm0 5l-5 0 5 -5 0 5zm-5 0l0 -5 5 0 -5 5zm0 14.38l0 -14.38 10 0 0 14.38 -10 0zm5 0l0 5 -5 -5 5 0zm0 5l-5 0 0 -5 5 5zm3.59 0l-3.59 0 0 -9.99 3.59 0 0 9.99zm0 -5l5 0 -5 5 0 -5zm5 0l0 5 -5 0 5 -5zm0 -3.59l0 3.59 -9.99 0 0 -3.59 9.99 0zm-5 0l-4.99 0 4.99 -5 0 5zm-4.99 0l0 -5 4.99 0 -4.99 5zm8.59 4.99l-3.6 0 0 -9.99 3.6 0 0 9.99zm0 -4.99l5 0 -5 4.99 0 -4.99zm5 0l0 4.99 -5 0 5 -4.99zm0 -7.19l0 7.19 -9.99 0 0 -7.19 9.99 0zm-5 0l-4.99 0 4.99 -5 0 5zm-4.99 0l0 -5 4.99 0 -4.99 5zm8.59 4.99l-3.6 0 0 -9.99 3.6 0 0 9.99zm0 -4.99l5 0 -5 4.99 0 -4.99zm5 0l0 4.99 -5 0 5 -4.99zm0 -7.2l0 7.2 -10 0 0 -7.2 10 0zm-5 0l-5 0 5 -5 0 5zm-5 0l0 -5 5 0 -5 5zm8.59 5l-3.59 0 0 -10 3.59 0 0 10zm0 -5l5 0 -5 5 0 -5zm5 0l0 5 -5 0 5 -5zm0 -7.19l0 7.19 -9.99 0 0 -7.19 9.99 0zm-5 0l-4.99 0 4.99 -5 0 5zm-4.99 0l0 -5 4.99 0 -4.99 5zm8.59 5l-3.6 0 0 -10 3.6 0 0 10zm0 -5l5 0 -5 5 0 -5zm5 0l0 5 -5 0 5 -5zm0 -7.19l0 7.19 -10 0 0 -7.19 10 0zm-5 0l-5 0 5 -5 0 5zm-5 0l0 -5 5 0 -5 5zm8.6 5l-3.6 0 0 -10 3.6 0 0 10zm0 -5l4.99 0 -4.99 5 0 -5zm4.99 0l0 5 -4.99 0 4.99 -5zm0 -7.2l0 7.2 -9.99 0 0 -7.2 9.99 0zm-4.99 0l-5 0 5 -4.99 0 4.99zm-5 0l0 -4.99 5 0 -5 4.99zm5.41 -4.99l0 9.99 -0.41 0 0 -9.99 0.41 0zm24.76 -18.78l-3.57 0 0 -9.99 3.57 0 0 9.99zm0 -4.99l4.99 0 -4.99 4.99 0 -4.99zm4.99 0l0 4.99 -4.99 0 4.99 -4.99zm0 -7.2l0 7.2 -9.99 0 0 -7.2 9.99 0zm-4.99 0l-5 0 5 -4.99 0 4.99zm-5 0l0 -4.99 5 0 -5 4.99zm8.6 5l-3.6 0 0 -9.99 3.6 0 0 9.99zm0 -5l4.99 0 -4.99 5 0 -5zm4.99 0l0 5 -4.99 0 4.99 -5zm0 -3.59l0 3.59 -9.99 0 0 -3.59 9.99 0zm-4.99 0l-5 0 5 -5 0 5zm-5 0l0 -5 5 0 -5 5zm8.59 4.99l-3.59 0 0 -9.99 3.59 0 0 9.99zm0 -4.99l5 0 -5 4.99 0 -4.99zm5 0l0 4.99 -5 0 5 -4.99zm0 -3.6l0 3.6 -9.99 0 0 -3.6 9.99 0zm-5 0l-4.99 0 4.99 -5 0 5zm-4.99 0l0 -5 4.99 0 -4.99 5zm8.59 5l-3.6 0 0 -10 3.6 0 0 10zm0 -5l4.99 0 -4.99 5 0 -5zm4.99 0l0 5 -4.99 0 4.99 -5zm0 -3.59l0 3.59 -9.99 0 0 -3.59 9.99 0zm-4.99 0l-5 0 5 -5 0 5zm-5 0l0 -5 5 0 -5 5zm8.59 4.99l-3.59 0 0 -9.99 3.59 0 0 9.99zm0 -4.99l5 0 -5 4.99 0 -4.99zm5 0l0 4.99 -5 0 5 -4.99zm0 -3.6l0 3.6 -9.99 0 0 -3.6 9.99 0zm-5 0l-4.99 0 4.99 -5 0 5zm-4.99 0l0 -5 4.99 0 -4.99 5zm8.59 5l-3.6 0 0 -10 3.6 0 0 10zm0 -5l5 0 -5 5 0 -5zm5 0l0 5 -5 0 5 -5zm0 -3.6l0 3.6 -9.99 0 0 -3.6 9.99 0zm-5 0l-4.99 0 4.99 -5 0 5zm-4.99 0l0 -5 4.99 0 -4.99 5zm8.22 -5l0 10 -3.23 0 0 -10 3.23 0zm25.54 -15.17l-0.75 0 0 -10 0.75 0 0 10zm0 -5l5 0 -5 5 0 -5zm5 0l0 5 -5 0 5 -5zm0 -3.6l0 3.6 -10 0 0 -3.6 10 0zm-5 0l-5 0 5 -4.99 0 4.99zm-5 0l0 -4.99 5 0 -5 4.99zm8.6 5l-3.6 0 0 -9.99 3.6 0 0 9.99zm0 -5l4.99 0 -4.99 5 0 -5zm4.99 0l0 5 -4.99 0 4.99 -5zm0 -3.59l0 3.59 -9.99 0 0 -3.59 9.99 0zm-4.99 0l-5 0 5 -5 0 5zm-5 0l0 -5 5 0 -5 5zm12.19 4.99l-7.19 0 0 -9.99 7.19 0 0 9.99zm0 -4.99l5 0 -5 4.99 0 -4.99zm5 0l0 4.99 -5 0 5 -4.99zm0 -3.6l0 3.6 -10 0 0 -3.6 10 0zm-5 0l-5 0 5 -4.99 0 4.99zm-5 0l0 -4.99 5 0 -5 4.99zm8.6 5l-3.6 0 0 -9.99 3.6 0 0 9.99zm0 -5l4.99 0 -4.99 5 0 -5zm4.99 0l0 5 -4.99 0 4.99 -5zm0 -3.59l0 3.59 -9.99 0 0 -3.59 9.99 0zm-4.99 0l-5 0 5 -5 0 5zm-5 0l0 -5 5 0 -5 5zm12.19 4.99l-7.19 0 0 -9.99 7.19 0 0 9.99zm0 -4.99l4.99 0 -4.99 4.99 0 -4.99zm4.99 0l0 4.99 -4.99 0 4.99 -4.99zm0 -3.6l0 3.6 -9.99 0 0 -3.6 9.99 0zm-4.99 0l-5 0 5 -5 0 5zm-5 0l0 -5 5 0 -5 5zm12.19 4.99l-7.19 0 0 -9.99 7.19 0 0 9.99zm0 -4.99l4.99 0 -4.99 4.99 0 -4.99zm4.99 0l0 4.99 -4.99 0 4.99 -4.99zm0 -3.6l0 3.6 -9.99 0 0 -3.6 9.99 0zm-4.99 0l-5 0 5 -4.99 0 4.99zm-5 0l0 -4.99 5 0 -5 4.99zm15.79 5l-10.79 0 0 -9.99 10.79 0 0 9.99zm0 -5l4.99 0 -4.99 5 0 -5zm4.99 0l0 5 -4.99 0 4.99 -5zm0 -3.59l0 3.59 -9.99 0 0 -3.59 9.99 0zm-4.99 0l-5 0 5 -5 0 5zm-5 0l0 -5 5 0 -5 5zm15.78 4.99l-10.78 0 0 -9.99 10.78 0 0 9.99zm0 -4.99l5 0 -5 4.99 0 -4.99zm5 0l0 4.99 -5 0 5 -4.99zm0 -3.6l0 3.6 -9.99 0 0 -3.6 9.99 0zm-5 0l-4.99 0 4.99 -5 0 5zm-4.99 0l0 -5 4.99 0 -4.99 5zm15.78 5l-10.79 0 0 -10 10.79 0 0 10zm0 -5l5 0 -5 5 0 -5zm5 0l0 5 -5 0 5 -5zm0 -3.59l0 3.59 -9.99 0 0 -3.59 9.99 0zm-5 0l-4.99 0 4.99 -5 0 5zm-4.99 0l0 -5 4.99 0 -4.99 5zm10.66 -5l0 9.99 -5.67 0 0 -9.99 5.67 0zm62.66 6.39l-16.29 0 0 -9.99 16.29 0 0 9.99zm0 -4.99l0 -5 5 5 -5 0zm0 -5l5 0 0 5 -5 -5zm-5 8.6l0 -3.6 10 0 0 3.6 -10 0zm5 0l0 4.99 -5 -4.99 5 0zm0 4.99l-5 0 0 -4.99 5 4.99zm0 -1117.67l-7.19 -0.02 0 -4.23 7.19 -0.02 0 4.27zm0 -2.13l0 -2.14 2.13 2.14 -2.13 0zm0 -2.14l2.13 0 0 2.14 -2.13 -2.14zm-2.14 5.73l0.01 -3.59 4.26 0 0.01 3.59 -4.28 0zm2.14 0l0 2.14 -2.14 -2.14 2.14 0zm0 2.14l-2.14 0 0 -2.14 2.14 2.14zm7.19 0.02l-7.19 -0.02 0 -4.28 7.19 -0.01 0 4.31zm0 -2.16l0 -2.15 2.16 2.15 -2.16 0zm0 -2.15l2.16 0 0 2.15 -2.16 -2.15zm-2.16 5.75l0.01 -3.6 4.31 0 0.01 3.6 -4.33 0zm2.16 0l0 2.17 -2.16 -2.17 2.16 0zm0 2.17l-2.16 0 0 -2.17 2.16 2.17zm3.6 0l-3.6 0 0 -4.34 3.6 0 0 4.34zm0 -2.17l0 -2.17 2.17 2.17 -2.17 0zm0 -2.17l2.17 0 0 2.17 -2.17 -2.17zm-2.18 5.76l0.01 -3.59 4.34 0 0.01 3.59 -4.36 0zm2.18 0l0 2.18 -2.18 -2.18 2.18 0zm0 2.18l-2.18 0 0 -2.18 2.18 2.18zm3.6 0.01l-3.6 -0.01 0 -4.36 3.6 -0.01 0 4.38zm0 -2.19l0 -2.19 2.19 2.19 -2.19 0zm0 -2.19l2.19 0 0 2.19 -2.19 -2.19zm-2.2 5.79l0.01 -3.6 4.38 0 0 3.6 -4.39 0zm2.2 0l0 2.2 -2.2 -2.2 2.2 0zm0 2.2l-2.2 0 0 -2.2 2.2 2.2zm3.59 0.01l-3.59 -0.01 0 -4.4 3.59 0 0 4.41zm0 -2.21l0 -2.2 2.21 2.2 -2.21 0zm0 -2.2l2.21 0 0 2.2 -2.21 -2.2zm-2.22 9.39l0.02 -7.19 4.41 0 0.01 7.19 -4.44 0zm2.22 0l0 2.22 -2.22 -2.22 2.22 0zm0 2.22l-2.22 0 0 -2.22 2.22 2.22zm3.21 -4.45l0 4.46 -3.21 -0.01 0 -4.44 3.21 -0.01zm12.4 52.58l0.03 -15.16 4.69 0 0.03 15.16 -4.75 0zm2.37 0l0 2.38 -2.37 -2.38 2.37 0zm0 2.38l-2.37 0 0 -2.38 2.37 2.38zm3.6 0l-3.6 0 0 -4.75 3.6 -0.01 0 4.76zm0 -2.38l0 -2.38 2.38 2.38 -2.38 0zm0 -2.38l2.36 0 0.02 2.38 -2.38 -2.38zm-2.41 13.17l0.02 -10.79 4.77 0 0.03 10.79 -4.82 0zm2.41 0l0 2.41 -2.41 -2.41 2.41 0zm0 2.41l-2.41 -0.08 0 -2.33 2.41 2.41zm3.59 0.01l-3.59 -0.01 0 -4.82 3.59 -0.01 0 4.84zm0 -2.42l0 -2.42 2.42 2.42 -2.42 0zm0 -2.42l2.42 -0.08 0 2.5 -2.42 -2.42zm-2.46 24l0.05 -21.58 4.83 0 0.05 21.58 -4.93 0zm2.46 0l0 2.46 -2.46 -2.46 2.46 0zm0 2.46l-2.48 0 0.02 -2.46 2.46 2.46zm3.6 0.01l-3.6 -0.01 0 -4.93 3.6 -0.01 0 4.95zm0 -2.47l0 -2.48 2.48 2.48 -2.48 0zm0 -2.48l2.47 0 0.01 2.48 -2.48 -2.48zm-2.56 38.43l0.09 -35.95 4.95 0 0.08 35.95 -5.12 0zm2.56 0l0 2.56 -2.56 -2.56 2.56 0zm0 2.56l-2.56 0 0 -2.56 2.56 2.56zm3.6 0.01l-3.6 -0.01 0 -5.11 3.6 -0.01 0 5.13zm0 -2.57l0 -2.56 2.56 2.56 -2.56 0zm0 -2.56l2.55 0 0.01 2.56 -2.56 -2.56zm2.57 4.62l-5.15 0 0.01 -2.06 5.13 0 0.01 2.06zm-1.68 51.89l0.01 -5.53 5.38 0 0.02 5.53 -5.41 0zm2.7 0l0 2.7 -2.7 -2.7 2.7 0zm0 2.7l-2.71 0 0.01 -2.7 2.7 2.7zm3.6 0.01l-3.6 -0.01 0 -5.41 3.6 0 0 5.42zm0 -2.71l0 -2.71 2.71 2.71 -2.71 0zm0 -2.71l2.71 0 0 2.71 -2.71 -2.71zm2.81 43.54l-5.62 0 0.1 -40.83 5.42 0 0.1 40.83zm-2.2 70.65l0.05 -24.28 5.86 0 0.06 24.28 -5.97 0zm2.98 0l0 2.99 -2.98 -2.99 2.98 0zm0 2.99l-2.99 0 0.01 -2.99 2.98 2.99zm3.6 0.01l-3.6 -0.01 0 -5.98 3.6 -0.01 0 6zm0 -3l0 -3 3 3 -3 0zm0 -3l3 0 0 3 -3 -3zm-3.04 20.98l0.04 -17.98 6 0 0.04 17.98 -6.08 0zm3.04 0l0 3.04 -3.04 -3.04 3.04 0zm0 3.04l-3.06 0 0.02 -3.04 3.04 3.04zm3.6 0.01l-3.6 -0.01 0 -6.08 3.6 -0.01 0 6.1zm0 -3.05l0 -3.05 3.05 3.05 -3.05 0zm0 -3.05l3.04 0 0.01 3.05 -3.05 -3.05zm-3.13 35.41l0.08 -32.36 6.1 0 0.08 32.36 -6.26 0zm3.13 0l0 3.13 -3.13 -3.13 3.13 0zm0 3.13l-3.14 0 0.01 -3.13 3.13 3.13zm3.59 0.01l-3.59 -0.01 0 -6.25 3.59 -0.01 0 6.27zm0 -3.14l0 -3.13 3.14 3.13 -3.14 0zm0 -3.13l3.14 0 0 3.13 -3.14 -3.13zm3.17 17.64l-6.34 0 0.04 -14.51 6.27 0 0.03 14.51zm0.72 50.23l0.02 -7.47 6.58 0 0.02 7.47 -6.62 0zm3.31 0l0 3.3 -3.31 -3.3 3.31 0zm0 3.3l-3.32 0 0.01 -3.3 3.31 3.3zm3.59 0.01l-3.59 -0.01 0 -6.61 3.59 -0.01 0 6.63zm0 -3.31l0 -3.32 3.32 3.32 -3.32 0zm0 -3.32l3.32 0 0 3.32 -3.32 -3.32zm-3.34 14.1l0.03 -10.78 6.63 0 0.02 10.78 -6.68 0zm3.34 0l0 3.35 -3.34 -3.35 3.34 0zm0 3.35l-3.38 0 0.04 -3.35 3.34 3.35zm3.6 0l-3.6 0 0 -6.69 3.6 -0.01 0 6.7zm0 -3.35l0 -3.35 3.35 3.35 -3.35 0zm0 -3.35l3.35 0 0 3.35 -3.35 -3.35zm3.41 27.87l-6.82 0 0.06 -24.52 6.7 0 0.06 24.52zm3.81 58.2l0.04 -19.03 7.05 0 0.05 19.03 -7.14 0zm3.57 0l0 3.57 -3.57 -3.57 3.57 0zm0 3.57l-3.59 0 0.02 -3.57 3.57 3.57zm3.59 0.01l-3.59 -0.01 0 -7.14 3.59 -0.01 0 7.16zm0 -3.58l0 -3.58 3.58 3.58 -3.58 0zm0 -3.58l3.58 0 0 3.58 -3.58 -3.58zm-3.61 21.56l0.04 -17.98 7.15 0 0.04 17.98 -7.23 0zm3.61 0l0 3.62 -3.61 -3.62 3.61 0zm0 3.62l-3.64 0 0.03 -3.62 3.61 3.62zm3.6 0.01l-3.6 -0.01 0 -7.24 3.6 -0.01 0 7.26zm0 -3.63l0 -3.63 3.63 3.63 -3.63 0zm0 -3.63l3.63 0 0 3.63 -3.63 -3.63zm-3.68 25.21l0.05 -21.58 7.26 0 0.04 21.58 -7.35 0zm3.68 0l0 3.67 -3.68 -3.67 3.68 0zm0 3.67l-3.68 -0.12 0 -3.55 3.68 3.67zm3.6 0.01l-3.6 -0.01 0 -7.35 3.6 -0.01 0 7.37zm0 -3.68l0 -3.69 3.68 3.69 -3.68 0zm0 -3.69l3.66 0 0.02 3.69 -3.68 -3.69zm-3.73 21.66l0.04 -17.97 7.37 0 0.04 17.97 -7.45 0zm3.73 0l0 3.73 -3.73 -3.73 3.73 0zm0 3.73l-3.73 0 0 -3.73 3.73 3.73zm3.59 0.01l-3.59 -0.01 0 -7.45 3.59 -0.01 0 7.47zm0 -3.74l0 -3.73 3.74 3.73 -3.74 0zm0 -3.73l3.74 0 0 3.73 -3.74 -3.73zm3.76 12.7l-7.51 0 0.02 -8.97 7.47 0 0.02 8.97zm-0.43 44.98l0 -2.21 7.73 0 0 2.21 -7.73 0zm3.86 0l0 3.87 -3.86 -3.87 3.86 0zm0 3.87l-3.89 0 0.03 -3.87 3.86 3.87zm3.6 0l-3.6 0 0 -7.74 3.6 -0.01 0 7.75zm0 -3.87l0 -3.88 3.88 3.88 -3.88 0zm0 -3.88l3.86 0 0.02 3.88 -3.88 -3.88zm-3.95 36.24l0.08 -32.36 7.75 0 0.07 32.36 -7.9 0zm3.95 0l0 3.95 -3.95 -3.95 3.95 0zm0 3.95l-3.96 0 0.01 -3.95 3.95 3.95zm3.6 0.01l-3.6 -0.01 0 -7.9 3.6 0 0 7.91zm0 -3.96l0 -3.95 3.95 3.95 -3.95 0zm0 -3.95l3.93 0 0.02 3.95 -3.95 -3.95zm3.97 12.15l-7.95 0 0.02 -8.2 7.91 0 0.02 8.2zm-0.91 67.32l0.05 -24.56 8.16 0 0.05 24.56 -8.26 0zm4.13 0l0 4.13 -4.13 -4.13 4.13 0zm0 4.13l-4.13 0 0 -4.13 4.13 4.13zm3.59 0.01l-3.59 -0.01 0 -8.26 3.59 0 0 8.27zm0 -4.14l0 -4.13 4.14 4.13 -4.14 0zm0 -4.13l4.12 0 0.02 4.13 -4.14 -4.13zm-4.2 36.5l0.07 -32.37 8.27 0 0.06 32.37 -8.4 0zm4.2 0l0 4.2 -4.2 -4.2 4.2 0zm0 4.2l-4.2 0 0 -4.2 4.2 4.2zm3.6 0l-3.6 0 0 -8.4 3.6 -0.01 0 8.41zm0 -4.2l0 -4.21 4.21 4.21 -4.21 0zm0 -4.21l4.2 0 0.01 4.21 -4.21 -4.21zm4.28 40.01l-8.55 0 0.07 -35.8 8.41 0 0.07 35.8zm-5.06 50.5l0.01 -4.14 8.74 0 0 4.14 -8.75 0zm4.38 0l0 4.38 -4.38 -4.38 4.38 0zm0 4.38l-4.38 0 0 -4.38 4.38 4.38zm3.59 0.01l-3.59 -0.01 0 -8.75 3.59 -0.01 0 8.77zm0 -4.39l0 -4.38 4.38 4.38 -4.38 0zm0 -4.38l4.38 0 0 4.38 -4.38 -4.38zm4.46 46.61l-8.91 0 0.07 -42.23 8.76 0 0.08 42.23zm-5.42 62.06l0.02 -15.7 9.08 0 0.02 15.7 -9.12 0zm4.56 0l0 4.56 -4.56 -4.56 4.56 0zm0 4.56l-4.58 0 0.02 -4.56 4.56 4.56zm3.6 0.01l-3.6 -0.01 0 -9.12 3.6 -0.01 0 9.14zm0 -4.57l0 -4.57 4.57 4.57 -4.57 0zm0 -4.57l4.56 0 0.01 4.57 -4.57 -4.57zm-4.67 72.9l0.1 -68.33 9.14 0 0.1 68.33 -9.34 0zm4.67 0l0 4.67 -4.67 -4.67 4.67 0zm0 4.67l-4.68 0 0.01 -4.67 4.67 4.67zm3.59 0l-3.59 0 0 -9.34 3.59 0 0 9.34zm0 -4.67l0 -4.67 4.67 4.67 -4.67 0zm0 -4.67l4.67 0 0 4.67 -4.67 -4.67zm4.69 13.37l-9.38 0 0.02 -8.7 9.34 0 0.02 8.7zm-5.9 95.59l0.06 -49.23 9.5 0 0.06 49.23 -9.62 0zm4.81 0l0 4.8 -4.81 -4.8 4.81 0zm0 4.81l-4.82 0 0.01 -4.81 4.81 4.81zm0.73 -9.62l0 9.62 -0.73 0 0 -9.62 0.73 0zm1.59 58.75l0.01 -10.44 9.72 0 0.01 10.44 -9.74 0zm4.87 0l0 4.87 -4.87 -4.87 4.87 0zm0 4.87l-4.89 0 0.02 -4.87 4.87 4.87zm3.6 0l-3.6 0 0 -9.74 3.6 0 0 9.74zm0 -4.87l0 -4.87 4.87 4.87 -4.87 0zm0 -4.87l4.86 0 0.01 4.87 -4.87 -4.87zm-4.91 44.43l0.03 -39.56 9.75 0 0.03 39.56 -9.81 0zm4.91 0l0 4.91 -4.91 -4.91 4.91 0zm0 4.91l-4.92 0 0.01 -4.91 4.91 4.91zm3.59 0l-3.59 0 0 -9.82 3.59 0 0 9.82zm0 -4.91l0 -4.91 4.91 4.91 -4.91 0zm0 -4.91l4.91 0 0 4.91 -4.91 -4.91zm-4.93 33.68l0.02 -28.77 9.82 0 0.02 28.77 -9.86 0zm4.93 0l0 4.93 -4.93 -4.93 4.93 0zm0 4.93l-4.93 0 0 -4.93 4.93 4.93zm3.6 0l-3.6 0 0 -9.86 3.6 -0.01 0 9.87zm0 -4.93l0 -4.94 4.93 4.94 -4.93 0zm0 -4.94l4.93 0 0 4.94 -4.93 -4.94zm4.94 15.3l-9.88 0 0 -10.36 9.87 0 0.01 10.36zm-6.32 61.56l0.01 -15.2 9.93 0 0.01 15.2 -9.95 0zm4.98 0l0 4.97 -4.98 -4.97 4.98 0zm0 4.97l-4.98 0 0 -4.97 4.98 4.97zm3.59 0l-3.59 0 0 -9.94 3.59 -0.01 0 9.95zm0 -4.97l0 -4.97 4.98 4.97 -4.98 0zm0 -4.98l4.98 0 0 4.98 -4.98 -4.98zm-4.98 22.96l0.01 -17.98 9.95 0 0 17.98 -9.96 0zm4.98 0l0 4.98 -4.98 -4.98 4.98 0zm0 4.98l-4.98 0 0 -4.98 4.98 4.98zm3.6 0.01l-3.6 -0.01 0 -9.96 3.6 0 0 9.97zm0 -4.99l0 -4.98 4.98 4.98 -4.98 0zm0 -4.98l4.98 0 0 4.98 -4.98 -4.98zm4.98 14.57l-9.97 0 0 -9.59 9.97 0 0 9.59zm0.81 47.95l0 -8.78 9.99 0 0 8.78 -9.99 0zm4.99 0l0 4.99 -4.99 -4.99 4.99 0zm0 4.99l-4.99 0 0 -4.99 4.99 4.99zm3.6 0.01l-3.6 -0.01 0 -9.99 3.6 0 0 10zm0 -5l0 -5 5 5 -5 0zm0 -5l5 0 0 5 -5 -5zm-4.99 19.39l0 -14.39 9.99 0 0 14.39 -9.99 0zm4.99 0l0 4.99 -4.99 -4.99 4.99 0zm0 4.99l-4.99 0 0 -4.99 4.99 4.99zm3.6 0l-3.6 0 0 -9.99 3.6 0 0 9.99zm0 -4.99l0 -5 5 5 -5 0zm0 -5l5 0 0 5 -5 -5zm-5 19.38l0 -14.38 10 0 0 14.38 -10 0zm5 0l0 5 -5 -5 5 0zm0 5l-5 0 0 -5 5 5zm3.59 0l-3.59 0 0 -9.99 3.59 0 0 9.99zm0 -5l0 -4.99 5 4.99 -5 0zm0 -4.99l5 0 0 4.99 -5 -4.99zm-4.99 19.37l0 -14.38 9.99 0 0 14.38 -9.99 0zm4.99 0l0 5 -4.99 -5 4.99 0zm0 5l-4.99 0 0 -5 4.99 5zm3.6 0l-3.6 0 0 -9.99 3.6 0 0 9.99zm0 -5l0 -4.99 4.99 4.99 -4.99 0zm0 -4.99l4.99 0 0 4.99 -4.99 -4.99zm-4.99 19.38l0 -14.39 9.98 0 0 14.39 -9.98 0zm4.99 0l0 4.99 -4.99 -4.99 4.99 0zm0 4.99l-4.99 0 0 -4.99 4.99 4.99zm3.6 0l-3.6 0 0 -9.98 3.6 0 0 9.98zm0 -4.99l0 -4.99 4.99 4.99 -4.99 0zm0 -4.99l4.99 0 0 4.99 -4.99 -4.99zm4.98 20.6l-9.97 0 0 -15.61 9.98 0 -0.01 15.61zm0.84 52.72l0 -13.55 9.94 0 -0.01 13.55 -9.93 0zm4.97 0l0 4.96 -4.97 -4.96 4.97 0zm0 4.96l-4.97 0 0 -4.96 4.97 4.96zm3.59 0l-3.59 0 0 -9.92 3.59 0 0 9.92zm0 -4.96l0 -4.96 4.96 4.96 -4.96 0zm0 -4.96l4.96 0 0 4.96 -4.96 -4.96zm-4.95 30.13l-0.01 -25.17 9.92 0 -0.01 25.17 -9.9 0zm4.95 0l0 4.94 -4.95 -4.94 4.95 0zm0 4.94l-4.95 0 0 -4.94 4.95 4.94zm3.6 0l-3.6 0 0 -9.89 3.6 0 0 9.89zm0 -4.94l0 -4.95 4.94 4.95 -4.94 0zm0 -4.95l4.94 0 0 4.95 -4.94 -4.95zm4.94 9l-9.88 0 -0.01 -4.05 9.89 0 0 4.05zm-2.64 60.68l-0.02 -17.91 9.82 0 -0.02 17.91 -9.78 0zm4.89 0l0 4.89 -4.89 -4.89 4.89 0zm0 4.89l-4.89 0 0 -4.89 4.89 4.89zm3.6 0l-3.6 0 0 -9.78 3.6 0 0 9.78zm0 -4.89l0 -4.89 4.88 4.89 -4.88 0zm0 -4.89l4.88 0 0 4.89 -4.88 -4.89zm-4.87 26.46l-0.02 -21.57 9.77 0 -0.01 21.57 -9.74 0zm4.87 0l0 4.88 -4.87 -4.88 4.87 0zm0 4.88l-4.87 0 0 -4.88 4.87 4.88zm3.59 -0.01l-3.59 0.01 0 -9.75 3.59 0.01 0 9.73zm0 -4.87l0 -4.86 4.87 4.86 -4.87 0zm0 -4.86l4.88 0.16 -0.01 4.7 -4.87 -4.86zm4.81 58.1l-9.61 0 -0.06 -53.24 9.73 0 -0.06 53.24zm-9.53 79.82l-0.03 -29.86 9.51 0 -0.04 29.86 -9.44 0zm4.72 0l4.72 0 -4.72 4.72 0 -4.72zm4.72 0l0 4.72 -4.72 0 4.72 -4.72zm-8.31 -4.71l3.59 -0.01 0 9.44 -3.59 0 0 -9.43zm0 4.71l-4.72 0 4.72 -4.71 0 4.71zm-4.72 0l0 -4.71 4.72 0 -4.72 4.71zm9.41 16.5l-9.39 0 -0.02 -16.5 9.43 0 -0.02 16.5zm-16.49 55.43l-0.02 -12.66 9.25 0 -0.02 12.66 -9.21 0zm4.61 0l4.6 0 -4.6 4.6 0 -4.6zm4.6 0l0 4.6 -4.6 0 4.6 -4.6zm-8.2 -4.6l3.6 -0.01 0 9.21 -3.6 -0.01 0 -9.19zm0 4.6l-4.6 0 4.6 -4.6 0 4.6zm-4.6 0l-0.05 -4.6 4.65 0 -4.6 4.6zm0.02 10.78l-0.02 -10.78 9.2 0 -0.02 10.78 -9.16 0zm4.58 0l4.58 0 -4.58 4.59 0 -4.59zm4.58 0l0 4.59 -4.58 0 4.58 -4.59zm-8.18 -4.57l3.6 -0.01 0 9.17 -3.6 -0.01 0 -9.15zm0 4.57l-4.58 0 4.58 -4.57 0 4.57zm-4.58 0l0 -4.57 4.58 0 -4.58 4.57zm0.01 7.2l-0.01 -7.2 9.16 0 -0.01 7.2 -9.14 0zm4.57 0l4.57 0 -4.57 4.56 0 -4.56zm4.57 0l0 4.56 -4.57 0 4.57 -4.56zm-8.16 -4.56l3.59 -0.01 0 9.13 -3.59 0 0 -9.12zm0 4.56l-4.56 0 4.56 -4.56 0 4.56zm-4.56 0l0 -4.56 4.56 0 -4.56 4.56zm0.01 10.78l-0.01 -10.78 9.12 0 -0.02 10.78 -9.09 0zm4.55 0l4.54 0 -4.54 4.55 0 -4.55zm4.54 0l-0.05 4.55 -4.49 0 4.54 -4.55zm-8.14 -4.53l3.6 -0.01 0 9.09 -3.6 -0.01 0 -9.07zm0 4.53l-4.54 0 4.54 -4.53 0 4.53zm-4.54 0l-0.07 -4.53 4.61 0 -4.54 4.53zm0.01 7.2l-0.01 -7.2 9.08 0 -0.02 7.2 -9.05 0zm4.53 0l4.52 0 -4.52 4.52 0 -4.52zm4.52 0l0 4.52 -4.52 0 4.52 -4.52zm-8.12 -4.52l3.6 -0.01 0 9.05 -3.6 0 0 -9.04zm0 4.52l-4.52 0 4.52 -4.52 0 4.52zm-4.52 0l0 -4.52 4.52 0 -4.52 4.52zm0.01 3.59l-0.01 -3.59 9.04 0 0 3.59 -9.03 0zm4.51 0l4.52 0 -4.52 4.52 0 -4.52zm4.52 0l0 4.52 -4.52 0 4.52 -4.52zm-8.11 -4.51l3.59 0 0 9.03 -3.59 -0.01 0 -9.02zm0 4.51l-4.51 0 4.51 -4.51 0 4.51zm-4.51 0l0 -4.51 4.51 0 -4.51 4.51zm0.01 3.6l-0.01 -3.6 9.02 0 -0.01 3.6 -9 0zm4.5 0l4.5 0 -4.5 4.5 0 -4.5zm4.5 0l0 4.5 -4.5 0 4.5 -4.5zm-8.1 -4.5l3.6 0 0 9 -3.6 0 0 -9zm0 4.5l-4.5 0 4.5 -4.5 0 4.5zm-4.5 0l0 -4.5 4.5 0 -4.5 4.5zm0.01 3.6l-0.01 -3.6 9 0 -0.01 3.6 -8.98 0zm4.49 0l4.49 0 -4.49 4.49 0 -4.49zm4.49 0l0 4.49 -4.49 0 4.49 -4.49zm-8.09 -4.49l3.6 0 0 8.98 -3.6 -0.01 0 -8.97zm0 4.49l-4.48 0 4.48 -4.49 0 4.49zm-4.48 0l0 -4.49 4.48 0 -4.48 4.49zm0 3.59l0 -3.59 8.97 0 -0.01 3.59 -8.96 0zm4.48 0l4.48 0 -4.48 4.48 0 -4.48zm4.48 0l0 4.48 -4.48 0 4.48 -4.48zm-8.07 -4.47l3.59 -0.01 0 8.96 -3.59 -0.01 0 -8.94zm0 4.47l-4.47 0 4.47 -4.47 0 4.47zm-4.47 0l0 -4.47 4.47 0 -4.47 4.47zm0 3.6l0 -3.6 8.94 0 0 3.6 -8.94 0zm4.47 0l4.47 0 -4.47 4.46 0 -4.46zm4.47 0l0 4.54 -4.47 -0.08 4.47 -4.46zm-5.43 4.46l0 -8.93 0.96 0 0 8.93 -0.96 0zm-42.19 9.16l10.21 -0.02 0 8.75 -10.21 -0.01 0 -8.72zm0 4.36l-4.36 0 4.36 -4.36 0 4.36zm-4.36 0l0 -4.36 4.36 0 -4.36 4.36zm0 3.59l0 -3.59 8.71 0 0 3.59 -8.71 0zm4.36 0l4.35 0 -4.35 4.36 0 -4.36zm4.35 0l0 4.36 -4.35 0 4.35 -4.36zm-18.74 -4.32l14.39 -0.03 0 8.71 -14.39 -0.03 0 -8.65zm0 4.32l-4.33 0 4.33 -4.32 0 4.32zm-4.33 0l0 -4.32 4.33 0 -4.33 4.32zm0.01 3.6l-0.01 -3.6 8.66 0 -0.01 3.6 -8.64 0zm4.32 0l4.32 0 -4.32 4.32 0 -4.32zm4.32 0l0 4.32 -4.32 0 4.32 -4.32zm-22.3 -4.28l17.98 -0.04 0 8.64 -17.98 -0.03 0 -8.57zm0 4.28l-4.29 0 4.29 -4.28 0 4.28zm-4.29 0l0 -4.28 4.29 0 -4.29 4.28zm8.58 0.18l-8.58 0 0 -0.18 8.58 0 0 0.18zm-54.64 2.84l7.4 -0.02 0 8.38 -7.4 -0.01 0 -8.35zm0 4.17l-4.17 0 4.17 -4.17 0 4.17zm-4.17 0l0 -4.17 4.17 0 -4.17 4.17zm0 3.6l0 -3.6 8.35 0 -0.01 3.6 -8.34 0zm4.17 0l4.17 0 -4.17 4.17 0 -4.17zm4.17 0l0 4.18 -4.17 -0.01 4.17 -4.17zm-68.9 -4.03l64.73 -0.14 0 8.34 -64.73 -0.13 0 -8.07zm0 4.03l-4.03 0 4.03 -4.03 0 4.03zm-4.03 0l0 -4.03 4.03 0 -4.03 4.03zm0 3.59l0 -3.59 8.07 0 -0.01 3.59 -8.06 0zm4.03 0l4.03 0 -4.03 4.03 0 -4.03zm4.03 0l0 4.04 -4.03 -0.01 4.03 -4.03zm-24.63 3.99l0 -7.97 20.6 -0.04 0 8.05 -20.6 -0.04zm-99.92 -0.22l0 -7.53 49.96 -0.11 0 7.75 -49.96 -0.11zm-84.46 -10.93l38.1 -0.08 0 7.31 -38.1 -0.09 0 -7.14zm0 3.57l0 3.57 -3.57 -3.57 3.57 0zm0 3.57l-3.57 0 0 -3.57 3.57 3.57zm3.56 -7.17l0.01 3.6 -7.14 0 0.01 -3.6 7.12 0zm-3.56 0l0 -3.56 3.56 3.56 -3.56 0zm0 -3.56l3.56 -0.01 0 3.57 -3.56 -3.56zm-43.15 0.1l43.15 -0.1 0 7.12 -43.15 -0.1 0 -6.92zm0 3.46l0 3.46 -3.46 -3.46 3.46 0zm0 3.46l-3.58 0 0.12 -3.46 3.46 3.46zm3.45 -7.05l0.01 3.59 -6.92 0 0.01 -3.59 6.9 0zm-3.45 0l0 -3.45 3.45 3.45 -3.45 0zm0 -3.45l3.33 0 0.12 3.45 -3.45 -3.45zm-11.48 6.87l0 -6.85 11.48 -0.02 0 6.9 -11.48 -0.03zm-31.97 -21.4l0 3.29 -6.61 0 0.01 -3.29 6.6 0zm-3.3 0l0 -3.3 3.3 3.3 -3.3 0zm0 -3.3l3.3 0 0 3.3 -3.3 -3.3zm-3.6 0.01l3.6 -0.01 0 6.59 -3.6 0 0 -6.58zm0 3.29l0 3.29 -3.29 -3.29 3.29 0zm0 3.29l-3.29 0 0 -3.29 3.29 3.29zm3.28 -6.89l0.01 3.6 -6.58 0 0.01 -3.6 6.56 0zm-3.28 0l0 -3.28 3.28 3.28 -3.28 0zm0 -3.28l3.28 0 0 3.28 -3.28 -3.28zm-3.6 0.01l3.6 -0.01 0 6.56 -3.6 -0.01 0 -6.54zm0 3.27l0 3.27 -3.27 -3.27 3.27 0zm0 3.27l-3.27 -0.11 0 -3.16 3.27 3.27zm3.27 -6.86l0.01 3.59 -6.55 0 0.01 -3.59 6.53 0zm-3.27 0l0 -3.27 3.27 3.27 -3.27 0zm0 -3.27l3.27 0 0 3.27 -3.27 -3.27zm-3.59 0.01l3.59 -0.01 0 6.53 -3.59 -0.01 0 -6.51zm0 3.26l0 3.25 -3.26 -3.25 3.26 0zm0 3.25l-3.26 0 0 -3.25 3.26 3.25zm3.25 -6.85l0.01 3.6 -6.52 0 0.01 -3.6 6.5 0zm-3.25 0l0 -3.25 3.25 3.25 -3.25 0zm0 -3.25l3.25 0 0 3.25 -3.25 -3.25zm-3.6 0.01l3.6 -0.01 0 6.5 -3.6 -0.01 0 -6.48zm0 3.24l0 3.24 -3.24 -3.24 3.24 0zm0 3.24l-3.24 -0.11 0 -3.13 3.24 3.24zm3.23 -6.84l0.01 3.6 -6.48 0 0.01 -3.6 6.46 0zm-3.23 0l0 -3.23 3.23 3.23 -3.23 0zm0 -3.23l3.23 0 0 3.23 -3.23 -3.23zm-3.6 0.01l3.6 -0.01 0 6.46 -3.6 -0.01 0 -6.44zm0 3.22l0 3.22 -3.22 -3.22 3.22 0zm0 3.22l-3.22 0 0 -3.22 3.22 3.22zm3.21 -10.41l0.02 7.19 -6.45 0 0.02 -7.19 6.41 0zm-3.21 0l0 -3.2 3.21 3.2 -3.21 0zm0 -3.2l3.16 0 0.05 3.2 -3.21 -3.2zm-3.59 0l3.59 0 0 6.4 -3.59 0 0 -6.4zm0 3.2l0 3.2 -3.19 -3.2 3.19 0zm0 3.2l-3.19 0 0 -3.2 3.19 3.2zm-3.19 -6.71l6.38 0 0.01 3.51 -6.39 0 0 -3.51zm-10.43 -139.09l5.66 0 0.24 99.92 -6.14 0 0.24 -99.92zm5.45 -91.15l0.09 41.19 -5.42 0 0.1 -41.19 5.23 0zm-2.62 0l-2.61 0 2.61 -2.61 0 2.61zm-2.61 0l0.01 -2.61 2.6 0 -2.61 2.61zm6.21 2.61l-3.6 0 0 -5.22 3.6 0.01 0 5.21zm0 -2.61l2.6 0 -2.6 2.61 0 -2.61zm2.6 0l0.01 2.61 -2.61 0 2.6 -2.61zm-5.2 -5.17l5.19 0 0.01 5.17 -5.21 0 0.01 -5.17zm8.58 -84.73l0.09 38.37 -4.95 0 0.09 -38.37 4.77 0zm-2.39 0l-2.38 0 2.38 -2.39 0 2.39zm-2.38 0l0.01 -2.39 2.37 0 -2.38 2.39zm5.98 2.37l-3.6 0.01 0 -4.77 3.6 0.01 0 4.75zm0 -2.37l2.38 0 -2.38 2.37 0 -2.37zm2.38 0l0 2.29 -2.38 0.08 2.38 -2.37zm-0.03 -14.39l0.03 14.39 -4.76 0 0.04 -14.39 4.69 0zm-2.35 0l-2.34 0 2.34 -2.34 0 2.34zm-2.34 0l0 -2.34 2.34 0 -2.34 2.34zm5.93 2.34l-3.59 0.01 0 -4.69 3.59 0.01 0 4.67zm0 -2.34l2.34 0 -2.34 2.34 0 -2.34zm2.34 0l0.01 2.34 -2.35 0 2.34 -2.34zm-0.06 -28.77l0.06 28.77 -4.67 0 0.06 -28.77 4.55 0zm-2.28 0l-2.27 0 2.27 -2.27 0 2.27zm-2.27 0l0 -2.35 2.27 0.08 -2.27 2.27zm5.87 2.27l-3.6 0.01 0 -4.55 3.6 0.01 0 4.53zm0 -2.27l2.27 0 -2.27 2.27 0 -2.27zm2.27 0l0.01 2.27 -2.28 0 2.27 -2.27zm-4.51 -7.6l4.49 0 0.02 7.6 -4.53 0 0.02 -7.6zm11.55 -49.93l0.02 7.16 -4.27 0 0.01 -7.16 4.24 0zm-2.12 0l-2.12 0 2.12 -2.12 0 2.12zm-2.12 0l0.02 -2.12 2.1 0 -2.12 2.12zm5.72 2.11l-3.6 0.01 0 -4.24 3.6 0 0 4.23zm0 -2.11l2.11 0 -2.11 2.11 0 -2.11zm2.11 0l0.02 2.11 -2.13 0 2.11 -2.11zm-0.03 -17.99l0.03 17.99 -4.22 0 0.04 -17.99 4.15 0zm-2.08 0l-2.07 0 2.07 -2.07 0 2.07zm-2.07 0l0 -2.07 2.07 0 -2.07 2.07zm5.67 2.07l-3.6 0.01 0 -4.15 3.6 0.01 0 4.13zm0 -2.07l2.06 0 -2.06 2.07 0 -2.07zm2.06 0l0 2.07 -2.06 0 2.06 -2.07zm-0.02 -10.79l0.02 10.79 -4.13 0 0.02 -10.79 4.09 0zm-2.04 0l-2.05 0 2.05 -2.04 0 2.04zm-2.05 0l0 -2.04 2.05 0 -2.05 2.04zm5.64 2.04l-3.59 0.01 0 -4.09 3.59 0.01 0 4.07zm0 -2.04l2.04 0 -2.04 2.04 0 -2.04zm2.04 0l0 2.04 -2.04 0 2.04 -2.04zm-4.07 -3.23l4.06 0 0.01 3.23 -4.07 0 0 -3.23zm12.82 -38l-0.74 0 0 -3.84 0.74 0 0 3.84zm0 -1.92l1.92 0 -1.92 1.92 0 -1.92zm1.92 0l0 1.92 -1.92 0 1.92 -1.92zm-0.01 -7.19l0.01 7.19 -3.84 0 0.01 -7.19 3.82 0zm-1.91 0l-1.91 0 1.91 -1.91 0 1.91zm-1.91 0l0 -1.91 1.91 0 -1.91 1.91zm5.51 1.9l-3.6 0.01 0 -3.82 3.6 0.01 0 3.8zm0 -1.9l1.9 0 -1.9 1.9 0 -1.9zm1.9 0l0.01 1.9 -1.91 0 1.9 -1.9zm-0.03 -14.39l0.03 14.39 -3.8 0 0.03 -14.39 3.74 0zm-1.87 0l-1.87 0 1.87 -1.87 0 1.87zm-1.87 0l0 -1.87 1.87 0 -1.87 1.87zm5.47 1.87l-3.6 0 0 -3.74 3.6 0.01 0 3.73zm0 -1.87l1.86 0 -1.86 1.87 0 -1.87zm1.86 0l0 1.87 -1.86 0 1.86 -1.87zm-0.03 -14.38l0.03 14.38 -3.73 0 0.03 -14.38 3.67 0zm-1.83 0l-1.84 0 1.84 -1.83 0 1.83zm-1.84 0l0.02 -1.83 1.82 0 -1.84 1.83zm5.43 1.83l-3.59 0.01 0 -3.67 3.59 0 0 3.66zm0 -1.83l1.83 0 -1.83 1.83 0 -1.83zm1.83 0l0 1.83 -1.83 0 1.83 -1.83zm-0.03 -14.39l0.03 14.39 -3.66 0 0.03 -14.39 3.6 0zm-1.8 0l-1.8 0 1.8 -1.79 0 1.79zm-1.8 0l0.02 -1.79 1.78 0 -1.8 1.79zm5.4 1.8l-3.6 0 0 -3.59 3.6 0 0 3.59zm0 -1.8l1.79 0 -1.79 1.8 0 -1.8zm1.79 0l0 1.8 -1.79 0 1.79 -1.8zm-3.52 -34.44l3.45 0 0.07 34.44 -3.59 0 0.07 -34.44zm10.47 -87.83l0.08 45.06 -3.27 0 0.08 -45.06 3.11 0zm-1.55 0l-1.56 0 1.56 -1.55 0 1.55zm-1.56 0l0.01 -1.55 1.55 0 -1.56 1.55zm5.15 1.55l-3.59 0.01 0 -3.11 3.59 0.01 0 3.09zm0 -1.55l1.55 0 -1.55 1.55 0 -1.55zm1.55 0l0.01 1.55 -1.56 0 1.55 -1.55zm-3.09 -1.3l3.09 0 0 1.3 -3.09 0 0 -1.3zm6.56 -77.81l0.05 31.45 -2.93 0 0.05 -31.45 2.83 0zm-1.42 0l-1.41 0 1.41 -1.41 0 1.41zm-1.41 0l0 -1.41 1.41 0 -1.41 1.41zm5.01 1.41l-3.6 0.01 0 -2.83 3.6 0 0 2.82zm0 -1.41l1.41 0 -1.41 1.41 0 -1.41zm1.41 0l0 1.41 -1.41 0 1.41 -1.41zm-0.07 -43.15l0.07 43.15 -2.82 0 0.06 -43.15 2.69 0zm-1.34 0l-1.35 0 1.35 -1.35 0 1.35zm-1.35 0l0 -1.35 1.35 0 -1.35 1.35zm4.94 1.34l-3.59 0 0 -2.69 3.59 0.01 0 2.68zm0 -1.34l1.34 0 -1.34 1.34 0 -1.34zm1.34 0l0 1.34 -1.34 0 1.34 -1.34zm-2.65 -18.13l2.63 0 0.02 18.13 -2.68 0 0.03 -18.13zm4.91 -45.35l-0.24 0 0 -2.5 0.24 0 0 2.5zm0 -1.25l1.25 0 -1.25 1.25 0 -1.25zm1.25 0l0.01 1.25 -1.26 0 1.25 -1.25zm-0.03 -28.77l0.03 28.77 -2.5 0 0.04 -28.77 2.43 0zm-1.22 0l-1.21 0 1.21 -1.22 0 1.22zm-1.21 0l0 -1.22 1.21 0 -1.21 1.22zm4.8 1.21l-3.59 0 0 -2.43 3.59 0.01 0 2.42zm0 -1.21l1.22 0 -1.22 1.21 0 -1.21zm1.22 0l0 1.21 -1.22 0 1.22 -1.21zm-2.41 -17.35l2.39 0 0.02 17.35 -2.43 0 0.02 -17.35zm5.91 -72.56l0.02 26.19 -2.28 0 0.03 -26.19 2.23 0zm-1.12 0l-1.11 0 1.11 -1.11 0 1.11zm-1.11 0l0 -1.11 1.11 0 -1.11 1.11zm4.71 1.12l-3.6 0 0 -2.23 3.6 0 0 2.23zm0 -1.12l1.11 0 -1.11 1.12 0 -1.12zm1.11 0l0 1.12 -1.11 0 1.11 -1.12zm-0.04 -61.13l0.04 61.13 -2.22 0 0.04 -61.13 2.14 0zm-1.07 0l-1.07 0 1.07 -1.07 0 1.07zm-1.07 0l0 -1.07 1.07 0 -1.07 1.07zm4.66 1.06l-3.59 0 0 -2.13 3.59 0 0 2.13zm0 -1.06l1.07 0 -1.07 1.06 0 -1.06zm1.07 0l0 1.06 -1.07 0 1.07 -1.06zm-2.13 -5.4l2.12 0 0.01 5.4 -2.13 0 0 -5.4zm5.68 -80.91l0.01 34.54 -2.06 0 0.01 -34.54 2.04 0zm-1.02 0l-1.02 0 1.02 -1.01 0 1.01zm-1.02 0l0 -1.01 1.02 0 -1.02 1.01zm4.62 1.02l-3.6 0 0 -2.03 3.6 0 0 2.03zm0 -1.02l1.01 0 -1.01 1.02 0 -1.02zm1.01 0l0 0.98 -1.01 0.04 1.01 -1.02zm-2.02 -11.82l2.02 0 0 11.82 -2.03 0 0.01 -11.82zm5.6 -63.7l0 17.34 -2 0 0 -17.34 2 0zm-1 0l-1 0 1 -1 0 1zm-1 0l0 -1 1 0 -1 1zm4.6 1l-3.6 0 0 -2 3.6 0 0 2zm0 -1l1 0 -1 1 0 -1zm1 0l0 1 -1 0 1 -1zm-2 -11.03l2 0 0 0.69 0 0.69 0 0.69 0 0.69 0 0.69 0 0.69 0 0.69 0 0.68 0 0.7 0 0.69 0 0.68 0 0.7 0 0.68 0 0.69 0 0.69 0 0.69 -2 0 0 -0.69 0 -0.69 0 -0.69 0 -0.68 0 -0.7 0 -0.68 0 -0.69 0 -0.7 0 -0.68 0 -0.69 0 -0.69 0 -0.69 0 -0.69 0 -0.69 0 -0.69 0 -0.69zm0 -32.12l2 0 0 2.01 0 2.01 0 2 0 2.01 0 2.01 0 2 0 2.01 0 2.01 0 2.01 0 2 0 2.01 0 2.01 0 2 0 2.01 0 2.01 0 2.01 -2 0 0 -2.01 0 -2.01 0 -2.01 0 -2 0 -2.01 0 -2.01 0 -2 0 -2.01 0 -2.01 0 -2.01 0 -2 0 -2.01 0 -2.01 0 -2 0 -2.01 0 -2.01zm1 0l-1 0 1 -1 0 1zm-1 0l0 -1 1 0 -1 1zm4.6 1l-3.6 0 0 -2 3.6 0 0 2zm0 -1l1 0 -1 1 0 -1zm1 0l0 1 -1 0 1 -1zm0 -25.17l0 25.17 -2.01 0 0 -25.17 2.01 0zm-1 0l-1.01 0 1.01 -1.01 0 1.01zm-1.01 0l0 -1.01 1.01 0 -1.01 1.01zm4.6 1l-3.59 0 0 -2.01 3.59 0 0 2.01zm0 -1l1.01 0 -1.01 1 0 -1zm1.01 0l0 1 -1.01 0 1.01 -1zm-2.02 -3.47l2.02 0 0 3.47 -2.02 0 0 -3.47zm5.65 -75.65l-0.02 29.28 -2.05 0 -0.01 -29.28 2.08 0zm-1.04 0l-1.04 0 1.04 -1.04 0 1.04zm-1.04 0l-0.01 -1.04 1.05 0 -1.04 1.04zm4.63 1.04l-3.59 0 0 -2.08 3.59 0 0 2.08zm0 -1.04l1.05 0 -1.05 1.04 0 -1.04zm1.05 0l0 1.04 -1.05 0 1.05 -1.04zm-2.1 -17.08l2.11 0 -0.01 17.08 -2.09 0 -0.01 -17.08zm5.73 -47.65l0 1.29 -2.17 0 0 -1.29 2.17 0zm-1.08 0l-1.09 0 1.09 -1.09 0 1.09zm-1.09 0l0 -1.09 1.09 0 -1.09 1.09zm4.69 1.09l-3.6 -0.01 0 -2.17 3.6 0 0 2.18zm0 -1.09l1.08 0 -1.08 1.09 0 -1.09zm1.08 0l0 1.09 -1.08 0 1.08 -1.09zm0.02 -21.58l-0.02 21.58 -2.17 0 -0.02 -21.58 2.21 0zm-1.1 0l-1.11 0 1.11 -1.11 0 1.11zm-1.11 0l-0.01 -1.11 1.12 0 -1.11 1.11zm4.7 1.11l-3.59 0 0 -2.22 3.59 0 0 2.22zm0 -1.11l1.11 0 -1.11 1.11 0 -1.11zm1.11 0l0 1.11 -1.11 0 1.11 -1.11zm0.03 -28.77l-0.03 28.77 -2.22 0 -0.02 -28.77 2.27 0zm-1.14 0l-1.13 0 1.13 -1.13 0 1.13zm-1.13 0l0 -1.13 1.13 0 -1.13 1.13zm4.73 1.14l-3.6 0 0 -2.27 3.6 -0.01 0 2.28zm0 -1.14l1.14 0 -1.14 1.14 0 -1.14zm1.14 0l0 1.14 -1.14 0 1.14 -1.14zm0.03 -28.76l-0.03 28.76 -2.28 0 -0.03 -28.76 2.34 0zm-1.17 0l-1.17 0 1.17 -1.17 0 1.17zm-1.17 0l-0.01 -1.17 1.18 0 -1.17 1.17zm4.76 1.17l-3.59 -0.01 0 -2.33 3.59 -0.01 0 2.35zm0 -1.17l1.18 0 -1.18 1.17 0 -1.17zm1.18 0l0 1.17 -1.18 0 1.18 -1.17zm-2.35 -5.14l2.35 0 0 5.14 -2.35 0 0 -5.14zm9.61 -56l-0.01 13.24 -2.47 0 -0.01 -13.24 2.49 0zm-1.24 0l-1.25 0 1.25 -1.25 0 1.25zm-1.25 0l0 -1.25 1.25 0 -1.25 1.25zm4.84 1.25l-3.59 0 0 -2.5 3.59 -0.01 0 2.51zm0 -1.25l1.26 0 -1.26 1.25 0 -1.25zm1.26 0l0 1.25 -1.26 0 1.26 -1.25zm0.02 -17.98l-0.02 17.98 -2.51 0 -0.03 -17.98 2.56 0zm-1.28 0l-1.28 0 1.28 -1.28 0 1.28zm-1.28 0l0 -1.28 1.28 0 -1.28 1.28zm4.88 1.28l-3.6 0 0 -2.56 3.6 0 0 2.56zm0 -1.28l1.28 0 -1.28 1.28 0 -1.28zm1.28 0l0 1.28 -1.28 0 1.28 -1.28zm-2.58 -11.55l2.6 0 -0.02 11.55 -2.56 0 -0.02 -11.55zm9.86 -45.99l0 3.22 -2.74 0 0 -3.22 2.74 0zm-1.37 0l-1.37 0 1.37 -1.37 0 1.37zm-1.37 0l0 -1.37 1.37 0 -1.37 1.37zm4.97 1.38l-3.6 -0.01 0 -2.74 3.6 -0.01 0 2.76zm0 -1.38l1.38 0 -1.38 1.38 0 -1.38zm1.38 0l-0.02 1.38 -1.36 0 1.38 -1.38zm0.02 -14.38l-0.02 14.38 -2.76 0 -0.02 -14.38 2.8 0zm-1.4 0l-1.4 0 1.4 -1.4 0 1.4zm-1.4 0l-0.01 -1.4 1.41 0 -1.4 1.4zm4.99 1.4l-3.59 0 0 -2.8 3.59 -0.01 0 2.81zm0 -1.4l1.41 0 -1.41 1.4 0 -1.4zm1.41 0l0 1.4 -1.41 0 1.41 -1.4zm0.02 -14.39l-0.02 14.39 -2.81 0 -0.02 -14.39 2.85 0zm-1.43 0l-1.42 0 1.42 -1.43 0 1.43zm-1.42 0l0 -1.43 1.42 0 -1.42 1.43zm5.02 1.43l-3.6 0 0 -2.86 3.6 0 0 2.86zm0 -1.43l1.43 0 -1.43 1.43 0 -1.43zm1.43 0l0 1.43 -1.43 0 1.43 -1.43zm0.03 -14.39l-0.03 14.39 -2.86 0 -0.02 -14.39 2.91 0zm-1.46 0l-1.45 0 1.45 -1.45 0 1.45zm-1.45 0l0 -1.45 1.45 0 -1.45 1.45zm5.05 1.47l-3.6 -0.01 0 -2.91 3.6 -0.01 0 2.93zm0 -1.47l1.46 0 -1.46 1.47 0 -1.47zm1.46 0l0 1.47 -1.46 0 1.46 -1.47zm0.02 -14.38l-0.02 14.38 -2.92 0 -0.03 -14.38 2.97 0zm-1.48 0l-1.49 0 1.49 -1.48 0 1.48zm-1.49 0l-0.01 -1.48 1.5 0 -1.49 1.48zm5.08 1.49l-3.59 0 0 -2.97 3.59 -0.01 0 2.98zm0 -1.49l1.49 0 -1.49 1.49 0 -1.49zm1.49 0l0 1.49 -1.49 0 1.49 -1.49zm0.02 -14.38l-0.02 14.38 -2.98 0 -0.02 -14.38 3.02 0zm-1.51 0l-1.51 0 1.51 -1.52 0 1.52zm-1.51 0l0 -1.52 1.51 0 -1.51 1.52zm5.11 1.52l-3.6 -0.01 0 -3.03 3.6 0 0 3.04zm0 -1.52l1.52 0 -1.52 1.52 0 -1.52zm1.52 0l0 1.52 -1.52 0 1.52 -1.52zm-3.05 -3.2l3.05 0 0 3.2 -3.04 0 -0.01 -3.2zm13.94 -43.56l-0.01 4.39 -3.23 0 0 -4.39 3.24 0zm-1.62 0l-1.62 0 1.62 -1.62 0 1.62zm-1.62 0l0 -1.62 1.62 0 -1.62 1.62zm5.21 1.63l-3.59 0 0 -3.25 3.59 0 0 3.25zm0 -1.63l1.63 0 -1.63 1.63 0 -1.63zm1.63 0l-0.02 1.63 -1.61 0 1.63 -1.63zm0.02 -10.78l-0.02 10.78 -3.25 0 -0.02 -10.78 3.29 0zm-1.65 0l-1.64 0 1.64 -1.65 0 1.65zm-1.64 0l0 -1.65 1.64 0 -1.64 1.65zm5.24 1.65l-3.6 -0.01 0 -3.29 3.6 -0.01 0 3.31zm0 -1.65l1.65 0 -1.65 1.65 0 -1.65zm1.65 0l0 1.71 -1.65 -0.06 1.65 -1.65zm0.03 -14.39l-0.03 14.39 -3.31 0 -0.02 -14.39 3.36 0zm-1.68 0l-1.68 0 1.68 -1.67 0 1.67zm-1.68 0l0 -1.67 1.68 0 -1.68 1.67zm5.28 1.69l-3.6 -0.01 0 -3.35 3.6 -0.01 0 3.37zm0 -1.69l1.68 0 -1.68 1.69 0 -1.69zm1.68 0l0 1.69 -1.68 0 1.68 -1.69zm-3.39 -9.61l3.41 0 -0.02 9.61 -3.37 0 -0.02 -9.61zm17.9 -40.73l-0.01 5.16 -3.6 0 -0.01 -5.16 3.62 0zm-1.81 0l-1.81 0 1.81 -1.81 0 1.81zm-1.81 0l0 -1.81 1.81 0 -1.81 1.81zm5.4 1.81l-3.59 0 0 -3.62 3.59 -0.01 0 3.63zm0 -1.81l1.82 0 -1.82 1.81 0 -1.81zm1.82 0l0 1.81 -1.82 0 1.82 -1.81zm0.02 -7.19l-0.02 7.19 -3.63 0 -0.02 -7.19 3.67 0zm-1.84 0l-1.83 0 1.83 -1.84 0 1.84zm-1.83 0l0 -1.84 1.83 0 -1.83 1.84zm5.43 1.83l-3.6 0 0 -3.67 3.6 0 0 3.67zm0 -1.83l1.84 0 -1.84 1.83 0 -1.83zm1.84 0l-0.03 1.83 -1.81 0 1.84 -1.83zm0.02 -7.2l-0.02 7.2 -3.68 0 -0.01 -7.2 3.71 0zm-1.86 0l-1.85 0 1.85 -1.85 0 1.85zm-1.85 0l-0.03 -1.85 1.88 0 -1.85 1.85zm5.45 1.87l-3.6 -0.01 0 -3.71 3.6 -0.01 0 3.73zm0 -1.87l1.86 0 -1.86 1.87 0 -1.87zm1.86 0l0 1.87 -1.86 0 1.86 -1.87zm0.01 -7.19l-0.01 7.19 -3.72 0 -0.02 -7.19 3.75 0zm-1.87 0l-1.88 0 1.88 -1.88 0 1.88zm-1.88 0l0 -1.88 1.88 0 -1.88 1.88zm5.47 1.88l-3.59 -0.01 0 -3.75 3.59 0 0 3.76zm0 -1.88l1.88 0 -1.88 1.88 0 -1.88zm1.88 0l0 1.88 -1.88 0 1.88 -1.88zm0.02 -7.19l-0.02 7.19 -3.76 0 -0.02 -7.19 3.8 0zm-1.9 0l-1.9 0 1.9 -1.9 0 1.9zm-1.9 0l0 -1.9 1.9 0 -1.9 1.9zm5.5 1.9l-3.6 0 0 -3.8 3.6 -0.01 0 3.81zm0 -1.9l1.91 0 -1.91 1.9 0 -1.9zm1.91 0l0 1.9 -1.91 0 1.91 -1.9zm0.01 -7.19l-0.01 7.19 -3.81 0 -0.02 -7.19 3.84 0zm-1.92 0l-1.92 0 1.92 -1.92 0 1.92zm-1.92 0l0 -1.86 1.92 -0.06 -1.92 1.92zm5.52 1.92l-3.6 0 0 -3.84 3.6 -0.01 0 3.85zm0 -1.92l1.92 0 -1.92 1.92 0 -1.92zm1.92 0l0 1.92 -1.92 0 1.92 -1.92zm0.02 -7.2l-0.02 7.2 -3.85 0 -0.01 -7.2 3.88 0zm-1.94 0l-1.94 0 1.94 -1.94 0 1.94zm-1.94 0l0 -1.94 1.94 0 -1.94 1.94zm5.53 1.95l-3.59 -0.01 0 -3.88 3.59 -0.01 0 3.9zm0 -1.95l1.95 0 -1.95 1.95 0 -1.95zm1.95 0l0 1.95 -1.95 0 1.95 -1.95zm0.01 -3.59l-0.01 3.59 -3.9 0 -0.01 -3.59 3.92 0zm-1.96 0l-1.96 0 1.96 -1.96 0 1.96zm-1.96 0l0 -1.96 1.96 0 -1.96 1.96zm5.56 1.96l-3.6 0 0 -3.92 3.6 0 0 3.92zm0 -1.96l1.96 0 -1.96 1.96 0 -1.96zm1.96 0l0 1.96 -1.96 0 1.96 -1.96zm0.01 -3.6l-0.01 3.6 -3.92 0 -0.01 -3.6 3.94 0zm-1.97 0l-1.97 0 1.97 -1.97 0 1.97zm-1.97 0l0 -1.97 1.97 0 -1.97 1.97zm5.57 1.98l-3.6 -0.01 0 -3.94 3.6 -0.01 0 3.96zm0 -1.98l1.97 0 -1.97 1.98 0 -1.98zm1.97 0l0 1.98 -1.97 0 1.97 -1.98zm0.01 -3.6l-0.01 3.6 -3.95 0 -0.01 -3.6 3.97 0zm-1.98 0l-1.99 0 1.99 -1.98 0 1.98zm-1.99 0l0 -1.98 1.99 0 -1.99 1.98zm5.58 2l-3.59 -0.01 0 -3.97 3.59 -0.01 0 3.99zm0 -2l1.99 0 -1.99 2 0 -2zm1.99 0l0 2 -1.99 0 1.99 -2zm0.01 -3.59l-0.01 3.59 -3.99 0 0 -3.59 4 0zm-2 0l-2 0 2 -2 0 2zm-2 0l0 -1.93 2 -0.07 -2 2zm3.26 -2l0 4.01 -1.26 -0.01 0 -4 1.26 0zm36.18 -5.19l0.01 -2.73 4.22 0 0.01 2.73 -4.24 0zm2.12 0l0 2.11 -2.12 -2.11 2.12 0zm0 2.11l-2.12 0 0 -2.11 2.12 2.11z"/>
  </g>
 </g>
</svg>
