<?xml version="1.0" encoding="UTF-8"?>
<!DOCTYPE svg PUBLIC "-//W3C//DTD SVG 1.1//EN" "http://www.w3.org/Graphics/SVG/1.1/DTD/svg11.dtd">
<!-- Creator: CorelDRAW (Versión de evaluación) -->
<svg xmlns="http://www.w3.org/2000/svg" xml:space="preserve" width="739px" height="2458px" version="1.1" style="shape-rendering:geometricPrecision; text-rendering:geometricPrecision; image-rendering:optimizeQuality; fill-rule:evenodd; clip-rule:evenodd"
viewBox="0 0 739 2457.4"
 xmlns:xlink="http://www.w3.org/1999/xlink"
 xmlns:xodm="http://www.corel.com/coreldraw/odm/2003">
 <defs>
  <style type="text/css">
   <![CDATA[
    .str0 {stroke:#4B4B4D;stroke-width:10;stroke-miterlimit:22.9256;stroke-dasharray:10.000000 49.990000 10.000000 49.990000 10.000000 49.990000 39.990000 49.990000 39.990000 49.990000}
    .fil0 {fill:#FEFEFE}
   ]]>
  </style>
 </defs>
 <g id="tooth-unerupted-15">
  <metadata id="CorelCorpID_0Corel-Layer"/>
  <path id="crown" class="fil0 str0" d="M107.14 1667.25c-69.82,146.14 -173.37,487.41 -50.53,624.84 28.43,31.8 203.52,141.64 245.49,158.42 92.47,36.99 454.48,-74.52 435.78,-346.31 -2.31,-33.66 -58.82,-317.07 -69.76,-334.59 -12.37,-19.8 -85.22,-34.18 -126.55,-77.35 -77.35,-80.81 -158.51,-120.4 -275.04,-61.61 -87.65,44.2 -65.95,24.35 -159.39,36.6z"/>
  <path id="root" class="fil0 str0" d="M623.53 873.24c-25.21,-11.92 -15.26,-3.04 -30.9,-44.68 -7.23,-19.27 -12.81,-35.25 -20.94,-54.61 -135.66,-323.34 -112.71,-218.76 -191.06,-578.18 -13.43,-61.66 -41.33,-192.66 -104.44,-195.76 -78.88,93.16 -38.64,712.28 -43.28,852.02 -10.82,325.1 -117.59,729.35 -116.42,787.76 96.09,-0.27 69.73,3.42 146.22,-36.34 49.64,-25.81 111.07,-34.65 169.6,-18.26 120.45,33.73 67.8,86.01 237.68,149.75 11.8,-226.51 2.64,-447.59 -15.02,-669.2 -5.11,-64.22 -40.88,-131.94 -31.44,-192.5z"/>
 </g>
</svg>
