<?xml version="1.0" encoding="UTF-8"?>
<!DOCTYPE svg PUBLIC "-//W3C//DTD SVG 1.1//EN" "http://www.w3.org/Graphics/SVG/1.1/DTD/svg11.dtd">
<!-- Creator: CorelDRAW (Versión de evaluación) -->
<svg xmlns="http://www.w3.org/2000/svg" xml:space="preserve" width="756px" height="2062px" version="1.1" style="shape-rendering:geometricPrecision; text-rendering:geometricPrecision; image-rendering:optimizeQuality; fill-rule:evenodd; clip-rule:evenodd"
viewBox="0 0 756 2062.79"
 xmlns:xlink="http://www.w3.org/1999/xlink"
 xmlns:xodm="http://www.corel.com/coreldraw/odm/2003">
 <defs>
  <style type="text/css">
   <![CDATA[
    .str0 {stroke:#D2D3D5;stroke-width:10;stroke-miterlimit:22.9256;stroke-dasharray:50.010000 50.010000 100.030000 50.010000}
    .fil0 {fill:#E6E7E8}
   ]]>
  </style>
 </defs>
 <g id="unerupted">
  <metadata id="CorelCorpID_0Corel-Layer"/>
  <path id="outline" class="fil0 str0" d="M21.12 1695.01l3.6 0 0 -10.8 3.6 0 0 -21.6 3.6 0 0 -17.99 3.6 0 0 -21.6 3.6 0 0 -14.41 3.6 0 0 -14.39 3.6 0 0 -14.41 3.6 0 0 -10.8 3.6 0 0 -10.8 3.6 0 0 -10.79 3.6 0 0 -10.81 3.6 0 0 -7.2 3.6 0 0 -10.79 3.6 0 0 -7.21 3.6 0 0 -10.8 3.6 0 0 -7.2 3.6 0 0 -10.8 3.6 0 0 -7.19 3.6 0 0 -7.21 3.6 0 0 -7.2 3.6 0 0 -3.6 7.2 0 0 -3.59 7.2 0 0 -3.61 7.2 0 0 -3.6 10.8 0 0 -3.59 7.2 0 0 -3.61 10.8 0 0 -3.6 7.2 0 0 -3.59 14.4 0 0 -3.6 10.8 0 0 -3.61 14.4 0 0 -3.59 10.8 0 0 -3.61 25.2 0 0 -3.6 18 0 0 -3.59 21.6 0 0 -3.61 28.8 0 0 -3.6 111.6 0 0 3.6 36 0 0 3.61 21.6 0 0 3.59 18 0 0 3.6 14.4 0 0 3.61 18 0 0 3.59 10.8 0 0 3.61 10.8 0 0 3.6 10.8 0 0 3.59 10.8 0 0 3.6 10.8 0 0 3.61 10.8 0 0 3.59 10.8 0 0 3.6 7.2 0 0 3.61 7.19 0 0 3.59 7.21 0 0 3.6 7.19 0 0 3.61 7.2 0 0 3.59 7.21 0 0 3.61 7.2 0 0 3.6 7.19 0 0 3.59 7.21 0 0 3.6 7.2 0 0 3.61 3.6 0 0 7.19 3.6 0 0 10.8 3.6 0 0 14.41 3.6 0 0 17.99 3.6 0 0 7.2 3.6 0 0 10.8 3.6 0 0 10.8 3.6 0 0 10.8 3.6 0 0 10.8 3.6 0 0 14.41 3.6 0 0 10.79 3.6 0 0 18 3.6 0 0 14.41 3.6 0 0 7.19 3.6 0 0 14.4 3.6 0 0 21.6 3.6 0 0 21.6 3.6 0 0 82.8 -3.6 0 0 14.41 -3.6 0 0 10.8 -3.6 0 0 10.79 -3.6 0 0 7.2 -3.6 0 0 10.8 -3.6 0 0 3.6 -3.6 0 0 7.2 -3.6 0 0 7.2 -3.6 0 0 7.2 -3.6 0 0 3.6 -3.6 0 0 7.2 -3.6 0 0 3.6 -3.6 0 0 3.6 -3.6 0 0 7.2 -3.6 0 0 3.6 -3.6 0 0 3.6 -3.6 0 0 7.2 -3.6 0 0 3.6 -3.6 0 0 3.6 -3.6 0 0 3.6 -3.6 0 0 3.6 -3.61 0 0 3.6 -3.59 0 0 3.6 -3.6 0 0 3.6 -3.6 0 0 3.6 -3.6 0 0 3.6 -3.6 0 0 3.6 -7.2 0 0 3.6 -3.61 0 0 3.6 -3.6 0 0 3.6 -7.19 0 0 3.6 -3.61 0 0 3.6 -7.19 0 0 3.6 -7.2 0 0 3.6 -3.6 0 0 3.6 -7.2 0 0 3.6 -7.2 0 0 3.6 -7.2 0 0 3.6 -14.4 0 0 3.6 -14.4 0 0 3.6 -36 0 0 -3.6 -7.2 0 0 -3.6 -14.4 0 0 -3.6 -7.2 0 0 -3.6 -10.8 0 0 -3.6 -7.2 0 0 -3.6 -7.2 0 0 -3.6 -7.2 0 0 -3.6 -7.2 0 0 -3.6 -7.2 0 0 -3.6 -7.2 0 0 -3.6 -7.2 0 0 -3.6 -7.2 0 0 -3.6 -7.2 0 0 -3.6 -7.2 0 0 -3.6 -14.4 0 0 -3.6 -7.2 0 0 -3.6 -43.2 0 0 3.6 -10.8 0 0 3.6 -18 0 0 3.6 -7.2 0 0 3.6 -7.2 0 0 3.6 -10.8 0 0 3.6 -7.2 0 0 3.6 -10.8 0 0 3.6 -7.2 0 0 3.6 -10.8 0 0 3.6 -10.8 0 0 3.6 -18 0 0 3.6 -18 0 0 -3.6 -14.4 0 0 -3.6 -7.2 0 0 -3.6 -7.2 0 0 -3.6 -7.2 0 0 -3.6 -3.6 0 0 -3.6 -7.2 0 0 -3.6 -3.6 0 0 -3.6 -3.6 0 0 -3.6 -7.2 0 0 -3.6 -3.6 0 0 -3.6 -3.6 0 0 -3.6 -3.6 0 0 -3.6 -3.6 0 0 -3.6 -3.6 0 0 -3.6 -3.6 0 0 -3.6 -7.2 0 0 -3.6 -3.6 0 0 -3.6 -3.6 0 0 -3.6 -3.6 0 0 -3.6 -3.6 0 0 -3.6 -3.6 0 0 -3.6 -3.6 0 0 -3.6 -3.6 0 0 -7.2 -3.6 0 0 -3.6 -3.6 0 0 -3.6 -3.6 0 0 -3.6 -3.6 0 0 -7.2 -3.6 0 0 -3.6 -3.6 0 0 -7.2 -3.6 0 0 -7.2 -3.6 0 0 -7.2 -3.6 0 0 -7.2 -3.6 0 0 -7.2 -3.6 0 0 -10.79 -3.6 0 0 -14.41 -3.6 0 0 -10.8 -3.6 0 0 -25.19 -3.6 0 0 -72.01zm244.8 -1234.79l3.6 0 0 -21.6 3.6 0 0 -10.8 3.6 0 0 -7.2 3.6 0 0 -7.2 7.2 0 0 -3.6 14.4 0 0 3.6 7.2 0 0 3.6 3.6 0 0 7.2 3.6 0 0 3.6 3.6 0 0 3.6 3.6 0 0 7.2 3.6 0 0 3.6 3.6 0 0 7.2 3.6 0 0 7.19 3.6 0 0 7.21 3.6 0 0 7.2 3.6 0 0 7.19 3.6 0 0 10.81 3.6 0 0 7.2 3.6 0 0 10.8 3.6 0 0 10.8 3.6 0 0 7.2 3.6 0 0 10.8 3.6 0 0 14.4 3.6 0 0 7.2 3.6 0 0 14.4 3.6 0 0 10.8 3.6 0 0 10.8 3.6 0 0 14.39 3.6 0 0 14.41 3.6 0 0 7.19 3.6 0 0 14.41 3.6 0 0 14.4 3.6 0 0 14.4 3.6 0 0 14.4 3.6 0 0 10.8 3.6 0 0 18 3.6 0 0 14.4 3.6 0 0 10.8 3.6 0 0 14.4 3.6 0 0 10.8 3.6 0 0 14.4 3.6 0 0 14.4 3.6 0 0 17.99 3.6 0 0 18.01 3.6 0 0 21.6 3.6 0 0 14.4 3.6 0 0 18 3.6 0 0 14.4 3.6 0 0 18 3.6 0 0 25.2 -3.6 0 0 10.79 -3.6 0 0 18 -3.6 0 0 14.4 -3.6 0 0 14.41 -3.6 0 0 10.8 -3.6 0 0 10.8 -3.6 0 0 21.6 -3.6 0 0 14.39 -3.6 0 0 10.8 -3.6 0 0 10.8 -3.6 0 0 14.41 -3.6 0 0 14.4 -3.6 0 0 10.8 -3.6 0 0 14.39 -3.6 0 0 14.4 -3.6 0 0 10.8 -3.6 0 0 10.8 -3.6 0 0 10.8 -3.6 0 0 7.2 -3.6 0 0 10.8 -3.6 0 0 7.21 -3.6 0 0 3.59 -3.6 0 0 7.21 -3.6 0 0 3.59 -7.2 0 0 3.61 -25.2 0 0 -3.61 -7.2 0 0 -3.59 -7.2 0 0 -3.61 -3.6 0 0 7.2 3.6 0 0 3.61 7.2 0 0 3.6 3.6 0 0 3.59 7.2 0 0 3.61 25.2 0 0 -3.61 7.2 0 0 -3.59 7.2 0 0 -3.6 3.6 0 0 -3.61 3.6 0 0 -3.59 3.6 0 0 -3.61 3.6 0 0 -7.19 3.6 0 0 -7.21 3.6 0 0 -7.2 3.6 0 0 -7.19 3.6 0 0 -10.8 3.6 0 0 -10.8 3.6 0 0 -10.8 3.6 0 0 -10.8 3.6 0 0 -14.41 3.6 0 0 -10.79 3.6 0 0 -10.8 3.6 0 0 -14.41 3.6 0 0 -7.19 3.6 0 0 -14.41 3.6 0 0 -14.39 3.6 0 0 -14.4 3.6 0 0 -10.8 3.6 0 0 -10.8 3.6 0 0 -18 3.6 0 0 -10.8 3.6 0 0 -14.41 3.6 0 0 -14.4 3.6 0 0 -21.59 3.59 0 0 -25.2 3.61 0 0 -14.4 3.6 0 0 -32.4 3.6 0 0 -36 3.6 0 0 -129.6 -3.6 0 0 -61.2 -3.6 0 0 -43.2 -3.6 0 0 -68.4 3.6 0 0 -18 3.6 0 0 -3.6 3.6 0 0 -3.6 10.8 0 0 3.6 7.2 0 0 3.6 3.6 0 0 3.6 3.6 0 0 3.6 3.6 0 0 3.6 3.6 0 0 3.6 3.6 0 0 3.6 3.6 0 0 3.6 3.6 0 0 7.2 3.6 0 0 3.59 3.6 0 0 7.21 3.6 0 0 3.59 3.6 0 0 7.21 3.6 0 0 7.2 3.6 0 0 3.6 3.6 0 0 10.8 3.6 0 0 7.2 3.6 0 0 7.2 3.6 0 0 7.2 3.6 0 0 7.2 3.6 0 0 7.2 3.6 0 0 10.79 3.6 0 0 7.21 3.6 0 0 10.8 3.6 0 0 10.8 3.59 0 0 7.2 3.61 0 0 14.4 3.6 0 0 7.2 3.59 0 0 10.8 3.6 0 0 7.2 3.61 0 0 18 3.59 0 0 7.2 3.61 0 0 10.8 3.6 0 0 10.8 3.6 0 0 14.4 3.6 0 0 14.4 3.6 0 0 14.4 3.59 0 0 14.4 3.61 0 0 14.39 3.6 0 0 18.01 3.6 0 0 14.4 3.6 0 0 10.8 3.6 0 0 25.2 3.6 0 0 21.6 3.6 0 0 21.6 3.6 0 0 17.99 3.6 0 0 46.81 3.6 0 0 136.79 -3.6 0 0 21.6 -3.6 0 0 36.01 -3.6 0 0 32.4 -3.6 0 0 21.6 -3.6 0 0 32.4 -3.6 0 0 53.99 -3.6 0 0 115.2 3.6 0 0 18 -3.6 0 0 -3.59 -7.2 0 0 -3.61 -7.2 0 0 -3.6 -7.2 0 0 -3.59 -7.2 0 0 -3.61 -7.2 0 0 -3.6 -7.21 0 0 -3.59 -7.19 0 0 -3.61 -7.2 0 0 -3.6 -10.8 0 0 -3.59 -7.2 0 0 -3.6 -10.8 0 0 -3.61 -10.8 0 0 -3.59 -7.2 0 0 -3.61 -14.4 0 0 -3.6 -7.2 0 0 -3.59 -10.8 0 0 -3.61 -18 0 0 -3.6 -14.4 0 0 -3.59 -14.4 0 0 -3.6 -21.6 0 0 -3.61 -28.8 0 0 -3.59 -147.6 0 0 3.59 -21.6 0 0 3.61 -21.6 0 0 3.6 -21.6 0 0 3.59 -18 0 0 3.6 -18 0 0 3.61 -3.6 0 0 3.59 -14.4 0 0 3.6 -10.8 0 0 3.61 -10.8 0 0 3.59 -7.2 0 0 3.61 -10.8 0 0 3.6 -7.2 0 0 3.59 -7.2 0 0 3.6 -7.2 0 0 3.61 -3.6 0 0 -14.4 3.6 0 0 -36.01 3.6 0 0 -28.8 3.6 0 0 -122.4 -3.6 0 0 -28.8 -3.6 0 0 -50.39 -3.6 0 0 -18.01 -3.6 0 0 -28.79 -3.6 0 0 -32.4 -3.6 0 0 -28.8 -3.6 0 0 -14.4 -3.6 0 0 -21.6 -3.6 0 0 -28.8 -3.6 0 0 -21.6 -3.6 0 0 -32.4 -3.6 0 0 -18 -3.6 0 0 -28.8 -3.6 0 0 -14.4 -3.6 0 0 -136.8 3.6 0 0 -36 3.6 0 0 -28.8 3.6 0 0 -21.61 3.6 0 0 -28.79 3.6 0 0 -21.6 3.6 0 0 -14.4 3.6 0 0 -18 3.6 0 0 -18 3.6 0 0 -14.4 3.6 0 0 -10.8 3.6 0 0 -14.4 3.6 0 0 -10.8 3.6 0 0 -7.2 3.6 0 0 -7.2 3.6 0 0 -10.8 3.6 0 0 -3.6 3.6 0 0 -3.6 3.6 0 0 -3.6 3.6 0 0 -3.6 14.4 0 0 3.6 3.6 0 0 3.6 3.6 0 0 3.6 3.6 0 0 10.8 3.6 0 0 10.8 3.6 0 0 7.2 3.6 0 0 21.6 3.6 0 0 61.2 3.6 0 0 68.39 3.6 0 0 43.21 3.6 0 0 28.8 3.6 0 0 36 3.6 0 0 21.6 3.6 0 0 18 3.6 0 0 21.6 3.6 0 0 18 3.6 0 0 10.8 3.6 0 0 18 3.6 0 0 10.8 3.6 0 0 10.8 3.6 0 0 14.4 3.6 0 0 10.8 3.6 0 0 10.8 3.6 0 0 10.8 3.6 0 0 14.4 3.6 0 0 7.2 3.6 0 0 7.19 3.6 0 0 10.8 3.6 0 0 7.2 3.6 0 0 7.21 3.6 0 0 7.2 3.6 0 0 7.19 3.6 0 0 7.21 3.6 0 0 7.2 3.6 0 0 7.19 3.6 0 0 10.8 3.6 0 0 7.21 3.6 0 0 7.19 3.6 0 0 7.2 3.6 0 0 7.21 3.6 0 0 7.2 3.6 0 0 7.19 3.6 0 0 7.21 3.6 0 0 10.8 3.6 0 0 7.2 3.6 0 0 7.19 3.6 0 0 7.21 3.6 0 0 7.19 3.6 0 0 7.2 3.6 0 0 7.21 3.6 0 0 7.19 3.6 0 0 7.2 3.6 0 0 10.8 3.6 0 0 3.6 3.6 0 0 7.2 3.6 0 0 7.21 7.2 0 0 -14.41 -3.6 0 0 -14.4 -3.6 0 0 -10.8 -3.6 0 0 -7.2 -3.6 0 0 -14.39 -3.6 0 0 -7.2 -3.6 0 0 -7.2 -3.6 0 0 -10.8 -3.6 0 0 -7.21 -3.6 0 0 -10.8 -3.6 0 0 -7.19 -3.6 0 0 -7.2 -3.6 0 0 -7.21 -3.6 0 0 -7.2 -3.6 0 0 -10.79 -3.6 0 0 -7.2 -3.6 0 0 -7.21 -3.6 0 0 -7.19 -3.6 0 0 -7.2 -3.6 0 0 -7.21 -3.6 0 0 -7.19 -3.6 0 0 -10.81 -3.6 0 0 -7.2 -3.6 0 0 -7.2 -3.6 0 0 -7.2 -3.6 0 0 -10.8 -3.6 0 0 -7.19 -3.6 0 0 -43.2 3.6 0 0 -21.6 3.6 0 0 -32.4 3.6 0 0 -25.21 3.6 0 0 -21.6 3.6 0 0 -46.79 3.6 0 0 -50.4 3.6 0 0 -122.4 -3.6 0 0 -122.4zm14.4 -68.4l-7.2 0 0 3.6 -3.6 0 0 3.6 -3.6 0 0 3.6 -3.6 0 0 7.2 -3.6 0 0 3.6 -3.6 0 0 10.8 -3.6 0 0 7.2 -3.6 0 0 14.4 -3.6 0 0 126 3.6 0 0 129.6 -3.6 0 0 61.2 -3.6 0 0 25.2 -3.6 0 0 25.19 -3.6 0 0 32.4 -3.6 0 0 32.41 -7.2 0 0 -18 -3.6 0 0 -14.41 -3.6 0 0 -14.39 -3.6 0 0 -14.4 -3.6 0 0 -21.6 -3.6 0 0 -18 -3.6 0 0 -25.2 -3.6 0 0 -36 -3.6 0 0 -18 -3.6 0 0 -50.4 -3.6 0 0 -111.6 -3.6 0 0 -25.2 -3.6 0 0 -21.6 -3.6 0 0 -7.2 -3.6 0 0 -10.8 -3.6 0 0 -7.2 -3.6 0 0 -7.21 -3.6 0 0 -3.59 -3.6 0 0 -3.6 -3.6 0 0 -3.6 -3.6 0 0 -3.6 -3.6 0 0 -3.6 -7.2 0 0 -3.61 -21.6 0 0 3.61 -7.2 0 0 3.6 -3.6 0 0 3.6 -3.6 0 0 3.6 -3.6 0 0 3.6 -3.6 0 0 3.59 -3.6 0 0 7.21 -3.6 0 0 7.2 -3.6 0 0 3.6 -3.6 0 0 10.8 -3.6 0 0 7.2 -3.6 0 0 10.8 -3.6 0 0 10.8 -3.6 0 0 14.4 -3.6 0 0 10.8 -3.6 0 0 18 -3.6 0 0 10.8 -3.6 0 0 21.6 -3.6 0 0 17.99 -3.6 0 0 25.21 -3.6 0 0 21.6 -3.6 0 0 28.8 -3.6 0 0 50.4 -3.6 0 0 126 3.6 0 0 50.4 3.6 0 0 18 3.6 0 0 25.19 3.6 0 0 21.6 3.6 0 0 28.8 3.6 0 0 18.01 3.6 0 0 25.19 3.6 0 0 21.6 3.6 0 0 25.21 3.6 0 0 21.6 3.6 0 0 32.39 3.6 0 0 28.8 3.6 0 0 32.4 3.6 0 0 57.61 3.6 0 0 79.2 -3.6 0 0 35.99 -3.6 0 0 43.2 -3.6 0 0 14.4 -3.6 0 0 14.41 -3.6 0 0 14.39 -3.6 0 0 7.21 -3.6 0 0 7.19 -3.6 0 0 10.8 -3.6 0 0 7.2 -3.6 0 0 10.8 -3.6 0 0 7.21 -3.6 0 0 7.19 -3.6 0 0 10.8 -3.6 0 0 10.81 -3.6 0 0 10.79 -3.6 0 0 10.8 -3.6 0 0 10.8 -3.6 0 0 18 -3.6 0 0 18.01 -3.6 0 0 10.8 -3.6 0 0 18 -3.6 0 0 17.99 -3.6 0 0 21.6 -3.6 0 0 90 3.6 0 0 21.61 3.6 0 0 14.4 3.6 0 0 10.8 3.6 0 0 10.79 3.6 0 0 7.2 3.6 0 0 10.8 3.6 0 0 3.6 3.6 0 0 10.8 3.6 0 0 7.2 3.6 0 0 7.2 3.6 0 0 3.6 3.6 0 0 7.2 3.6 0 0 3.6 3.6 0 0 3.6 3.6 0 0 3.6 3.6 0 0 3.6 3.6 0 0 7.2 3.6 0 0 3.6 3.6 0 0 3.6 3.6 0 0 3.6 3.6 0 0 3.6 3.6 0 0 3.6 3.6 0 0 3.6 7.2 0 0 3.6 3.6 0 0 3.6 3.6 0 0 3.6 3.6 0 0 3.6 3.6 0 0 3.6 3.6 0 0 3.6 3.6 0 0 3.6 3.6 0 0 3.6 7.2 0 0 3.6 3.6 0 0 3.6 3.6 0 0 3.6 7.2 0 0 3.6 3.6 0 0 3.6 7.2 0 0 3.6 3.6 0 0 3.6 7.2 0 0 3.6 7.2 0 0 3.6 10.8 0 0 3.6 54 0 0 -3.6 7.2 0 0 -3.6 10.8 0 0 -3.6 10.8 0 0 -3.6 7.2 0 0 -3.6 7.2 0 0 -3.6 10.8 0 0 -3.6 7.2 0 0 -3.6 10.8 0 0 -3.6 10.8 0 0 -3.6 7.2 0 0 -3.6 14.4 0 0 -3.6 32.4 0 0 3.6 10.8 0 0 3.6 7.2 0 0 3.6 7.2 0 0 3.6 7.2 0 0 3.6 7.2 0 0 3.6 7.2 0 0 3.6 7.2 0 0 3.6 7.2 0 0 3.6 7.2 0 0 3.6 7.2 0 0 3.6 7.2 0 0 3.6 7.2 0 0 3.61 7.2 0 0 3.59 14.4 0 0 3.6 14.4 0 0 3.6 25.2 0 0 3.6 36 0 0 -3.6 10.8 0 0 -3.6 10.8 0 0 -3.6 7.2 0 0 -3.59 10.8 0 0 -3.61 7.2 0 0 -3.6 3.6 0 0 -3.6 7.2 0 0 -3.6 3.6 0 0 -3.6 7.19 0 0 -3.6 3.61 0 0 -3.6 7.2 0 0 -3.6 3.6 0 0 -3.6 3.6 0 0 -3.6 3.6 0 0 -3.6 7.19 0 0 -3.6 3.61 0 0 -3.6 3.6 0 0 -3.6 3.6 0 0 -3.6 3.6 0 0 -3.6 3.6 0 0 -3.6 3.6 0 0 -3.6 3.6 0 0 -3.6 3.6 0 0 -3.6 3.6 0 0 -7.2 3.6 0 0 -3.6 3.6 0 0 -3.6 3.6 0 0 -3.6 3.6 0 0 -3.6 3.6 0 0 -7.2 3.6 0 0 -3.6 3.6 0 0 -7.2 3.6 0 0 -3.6 3.6 0 0 -3.6 3.6 0 0 -7.2 3.6 0 0 -7.2 3.6 0 0 -7.2 3.6 0 0 -7.2 3.6 0 0 -7.2 3.6 0 0 -10.8 3.6 0 0 -7.2 3.6 0 0 -17.99 3.6 0 0 -7.21 3.6 0 0 -21.6 3.6 0 0 -61.2 -3.6 0 0 -17.99 -3.6 0 0 -21.6 -3.6 0 0 -14.41 -3.6 0 0 -17.99 -3.6 0 0 -10.8 -3.6 0 0 -14.4 -3.6 0 0 -14.41 -3.6 0 0 -17.99 -3.6 0 0 -10.81 -3.6 0 0 -10.8 -3.6 0 0 -7.19 -3.6 0 0 -10.81 -3.6 0 0 -14.4 -3.6 0 0 -7.2 -3.6 0 0 -14.4 -3.6 0 0 -14.4 -3.6 0 0 -14.39 -3.6 0 0 -28.81 -3.6 0 0 -21.6 -3.6 0 0 -115.2 3.6 0 0 -36 3.6 0 0 -25.19 3.6 0 0 -25.2 3.6 0 0 -18 3.6 0 0 -25.21 3.6 0 0 -46.8 3.6 0 0 -54 3.6 0 0 -75.6 -3.6 0 0 -25.19 -3.6 0 0 -39.6 -3.6 0 0 -25.2 -3.6 0 0 -28.8 -3.6 0 0 -14.4 -3.6 0 0 -14.4 -3.6 0 0 -10.8 -3.6 0 0 -18 -3.6 0 0 -21.6 -3.6 0 0 -18 -3.6 0 0 -14.4 -3.6 0 0 -7.2 -3.6 0 0 -18 -3.6 0 0 -10.8 -3.6 0 0 -10.8 -3.6 0 0 -14.4 -3.61 0 0 -7.2 -3.59 0 0 -14.4 -3.6 0 0 -14.4 -3.6 0 0 -7.2 -3.6 0 0 -10.8 -3.6 0 0 -10.8 -3.61 0 0 -7.21 -3.59 0 0 -10.79 -3.61 0 0 -10.81 -3.6 0 0 -7.19 -3.59 0 0 -10.8 -3.6 0 0 -7.2 -3.61 0 0 -10.8 -3.59 0 0 -7.2 -3.6 0 0 -7.2 -3.6 0 0 -10.8 -3.6 0 0 -7.2 -3.6 0 0 -3.6 -3.6 0 0 -7.2 -3.6 0 0 -7.21 -3.6 0 0 -3.59 -3.6 0 0 -7.2 -3.6 0 0 -3.6 -3.6 0 0 -3.6 -3.6 0 0 -7.2 -3.6 0 0 -3.6 -3.6 0 0 -3.6 -3.6 0 0 -3.6 -3.6 0 0 -3.6 -3.6 0 0 -3.6 -3.6 0 0 -3.6 -3.6 0 0 -3.6 -3.6 0 0 -3.6 -7.2 0 0 -3.6 -7.2 0 0 -3.6 -25.2 0 0 3.6 -7.21 0 0 3.6 -3.59 0 0 3.6 -3.6 0 0 7.2 -3.6 0 0 7.2 -3.6 0 0 18 -3.6 0 0 75.6 3.6 0 0 43.2 3.6 0 0 43.2 3.6 0 0 151.2 -3.6 0 0 18 -3.6 0 0 -14.4 -3.6 0 0 -18.01 -3.6 0 0 -14.39 -3.6 0 0 -21.6 -3.6 0 0 -14.4 -3.6 0 0 -14.4 -3.6 0 0 -14.4 -3.6 0 0 -7.2 -3.6 0 0 -14.4 -3.6 0 0 -18 -3.6 0 0 -10.8 -3.6 0 0 -14.4 -3.6 0 0 -14.4 -3.6 0 0 -10.8 -3.6 0 0 -14.4 -3.6 0 0 -10.81 -3.6 0 0 -14.39 -3.6 0 0 -18 -3.6 0 0 -10.8 -3.6 0 0 -10.8 -3.6 0 0 -10.81 -3.6 0 0 -14.39 -3.6 0 0 -10.8 -3.6 0 0 -10.8 -3.6 0 0 -10.8 -3.6 0 0 -7.2 -3.6 0 0 -10.8 -3.6 0 0 -10.8 -3.6 0 0 -10.81 -3.6 0 0 -7.19 -3.6 0 0 -7.2 -3.6 0 0 -10.8 -3.6 0 0 -7.2 -3.6 0 0 -7.2 -3.6 0 0 -3.61 -3.6 0 0 -7.19 -3.6 0 0 -3.6 -3.6 0 0 -7.2 -3.6 0 0 -3.6 -3.6 0 0 -3.6 -3.6 0 0 -3.6 -3.6 0 0 -3.6 -3.6 0 0 -3.6 -3.6 0 0 -3.6 -3.6 0 0 -3.6 -7.2 0 0 -3.6 -28.8 0 0 3.6zm28.8 1393.19l3.6 0 0 18 3.6 0 0 10.8 3.6 0 0 10.8 3.6 0 0 7.21 3.6 0 0 7.19 3.6 0 0 7.2 -7.2 0 0 3.6 -14.4 0 0 3.61 -10.8 0 0 3.59 -7.2 0 0 3.6 -7.2 0 0 3.61 -10.8 0 0 3.59 -7.2 0 0 3.6 -7.2 0 0 3.6 -10.8 0 0 3.6 -10.8 0 0 3.6 -7.2 0 0 3.6 -14.4 0 0 3.6 -7.2 0 0 3.6 -14.4 0 0 3.6 -18 0 0 -3.6 -10.8 0 0 -3.6 -7.2 0 0 -3.6 -7.2 0 0 -3.6 -3.6 0 0 -3.6 -3.6 0 0 -3.6 -3.6 0 0 -3.6 -3.6 0 0 -3.6 -3.6 0 0 -3.59 -3.6 0 0 -3.61 -3.6 0 0 -3.6 -3.6 0 0 -7.2 -3.6 0 0 -3.6 -3.6 0 0 -7.2 -3.6 0 0 -3.6 -3.6 0 0 -7.2 -3.6 0 0 -3.6 -3.6 0 0 -10.8 -3.6 0 0 -7.2 -3.6 0 0 -7.19 -3.6 0 0 -10.8 -3.6 0 0 -10.8 -7.2 0 0 28.79 3.6 0 0 10.8 3.6 0 0 7.2 3.6 0 0 7.21 3.6 0 0 7.19 3.6 0 0 7.2 3.6 0 0 3.6 3.6 0 0 7.2 3.6 0 0 3.6 3.6 0 0 7.2 3.6 0 0 3.6 3.6 0 0 3.6 3.6 0 0 3.6 3.6 0 0 3.6 3.6 0 0 3.6 3.6 0 0 3.6 3.6 0 0 3.6 3.6 0 0 3.6 7.2 0 0 3.6 3.6 0 0 3.6 7.2 0 0 3.6 10.8 0 0 3.6 28.8 0 0 -3.6 18 0 0 -3.6 10.8 0 0 -3.6 10.8 0 0 -3.6 10.8 0 0 -3.6 10.8 0 0 -3.6 7.2 0 0 -3.6 10.8 0 0 -3.6 7.2 0 0 -3.6 7.2 0 0 -3.6 10.8 0 0 -3.6 7.2 0 0 -3.6 10.8 0 0 -3.59 10.8 0 0 -3.61 3.6 0 0 43.2 3.6 0 0 10.8 3.6 0 0 7.2 3.6 0 0 3.6 3.6 0 0 3.6 7.2 0 0 -10.8 -3.6 0 0 -7.2 -3.6 0 0 -14.4 -3.6 0 0 -32.39 7.2 0 0 3.59 3.6 0 0 3.6 7.2 0 0 3.6 3.6 0 0 3.6 3.6 0 0 3.6 7.2 0 0 3.6 3.6 0 0 3.6 7.2 0 0 3.6 3.6 0 0 3.6 7.2 0 0 3.6 7.2 0 0 3.6 7.2 0 0 3.6 7.2 0 0 3.6 7.2 0 0 3.6 3.6 0 0 3.6 10.8 0 0 3.6 7.2 0 0 3.6 10.8 0 0 3.6 7.2 0 0 3.6 7.2 0 0 3.6 10.8 0 0 3.6 10.8 0 0 3.6 14.4 0 0 3.6 57.6 0 0 -3.6 10.8 0 0 -3.6 7.2 0 0 -3.6 7.2 0 0 -3.6 7.2 0 0 -3.6 7.2 0 0 -3.6 7.2 0 0 -3.6 7.2 0 0 -3.6 3.6 0 0 -3.6 3.6 0 0 -3.6 3.6 0 0 -3.6 7.2 0 0 -3.6 3.6 0 0 -3.6 3.6 0 0 -3.6 3.6 0 0 -3.6 3.6 0 0 -3.6 3.6 0 0 -3.6 3.6 0 0 -7.2 3.6 0 0 -3.6 3.6 0 0 -7.2 3.6 0 0 -7.2 -3.6 0 0 -3.6 -3.6 0 0 3.6 -3.6 0 0 3.61 -3.6 0 0 3.59 -3.6 0 0 3.6 -3.6 0 0 3.6 -3.6 0 0 3.6 -3.6 0 0 3.6 -3.6 0 0 3.6 -3.6 0 0 3.6 -3.6 0 0 3.6 -3.6 0 0 3.6 -3.6 0 0 3.6 -7.2 0 0 3.6 -3.6 0 0 3.6 -3.6 0 0 3.6 -7.2 0 0 3.6 -3.6 0 0 3.6 -10.8 0 0 3.6 -7.2 0 0 3.6 -10.8 0 0 3.6 -10.8 0 0 3.6 -39.6 0 0 -3.6 -14.4 0 0 -3.6 -10.8 0 0 -3.6 -14.4 0 0 -3.6 -7.2 0 0 -3.6 -7.2 0 0 -3.6 -10.8 0 0 -3.6 -7.2 0 0 -3.6 -7.2 0 0 -3.6 -7.2 0 0 -3.6 -7.2 0 0 -3.6 -7.2 0 0 -3.6 -7.2 0 0 -3.6 -3.6 0 0 -3.6 -7.2 0 0 -3.6 -7.2 0 0 -3.6 -3.6 0 0 -3.6 -7.2 0 0 -3.6 -3.6 0 0 -3.59 -7.2 0 0 -3.61 -3.6 0 0 -3.6 -3.6 0 0 -3.59 -7.2 0 0 -3.61 -7.2 0 0 -3.6 -3.6 0 0 -3.59 -3.6 0 0 -7.21 -3.6 0 0 -7.2 -3.6 0 0 -7.19 -3.6 0 0 -10.8 -3.6 0 0 -7.21 -3.6 0 0 -10.8 -3.6 0 0 -18 -3.6 0 0 -7.19 -3.6 0 0 -28.81 -7.2 0 0 46.8z"/>
 </g>
</svg>
