<?xml version="1.0" encoding="UTF-8"?>
<!DOCTYPE svg PUBLIC "-//W3C//DTD SVG 1.1//EN" "http://www.w3.org/Graphics/SVG/1.1/DTD/svg11.dtd">
<!-- Creator: CorelDRAW (Versión de evaluación) -->
<svg xmlns="http://www.w3.org/2000/svg" xml:space="preserve" width="453px" height="2062px" version="1.1" style="shape-rendering:geometricPrecision; text-rendering:geometricPrecision; image-rendering:optimizeQuality; fill-rule:evenodd; clip-rule:evenodd"
viewBox="0 0 453 2060.08"
 xmlns:xlink="http://www.w3.org/1999/xlink"
 xmlns:xodm="http://www.corel.com/coreldraw/odm/2003">
 <defs>
  <style type="text/css">
   <![CDATA[
    .str0 {stroke:#D2D3D5;stroke-width:9.99;stroke-miterlimit:22.9256;stroke-dasharray:49.950000 49.950000 99.890000 49.950000}
    .fil0 {fill:none}
   ]]>
  </style>
 </defs>
 <g id="unerupted">
  <metadata id="CorelCorpID_0Corel-Layer"/>
  <path id="outline" class="fil0 str0" d="M186.29 1348.63l-10.78 0 0 3.6 -7.19 0 0 3.6 -7.19 0 0 3.59 -7.19 0 0 3.6 -3.6 0 0 3.59 -7.19 0 0 3.6 -3.59 0 0 3.59 -3.6 0 0 3.6 -3.59 0 0 3.59 -3.6 0 0 7.19 -7.19 0 0 7.19 -3.59 0 0 3.6 -3.6 0 0 7.19 -3.6 0 0 7.19 -3.59 0 0 3.59 -3.6 0 0 7.19 -3.59 0 0 7.2 -3.59 0 0 7.19 -3.6 0 0 7.19 -3.6 0 0 7.19 -3.59 0 0 7.19 -3.6 0 0 7.19 -3.59 0 0 7.19 -3.6 0 0 7.19 -3.59 0 0 10.79 -3.6 0 0 10.78 -3.59 0 0 7.19 -3.6 0 0 14.38 -3.6 0 0 14.39 -3.59 0 0 10.78 -3.59 0 0 10.79 -3.6 0 0 10.78 -3.59 0 0 14.38 -3.6 0 0 14.38 -3.6 0 0 10.79 -3.59 0 0 7.19 -3.6 0 0 17.98 -3.59 0 0 10.78 -3.6 0 0 14.38 -3.59 0 0 14.38 -3.6 0 0 14.39 -3.59 0 0 17.97 -3.6 0 0 17.98 -3.59 0 0 14.38 -3.6 0 0 75.5 3.6 0 0 17.98 3.59 0 0 10.78 3.6 0 0 10.79 3.59 0 0 7.19 3.6 0 0 7.19 3.59 0 0 3.59 3.6 0 0 7.2 3.59 0 0 3.59 3.6 0 0 3.6 3.59 0 0 3.59 7.2 0 0 3.59 3.59 0 0 3.6 3.6 0 0 3.6 3.59 0 0 3.59 7.19 0 0 3.6 3.6 0 0 3.59 7.19 0 0 3.6 3.59 0 0 3.59 7.19 0 0 3.6 7.19 0 0 3.59 7.2 0 0 3.6 7.18 0 0 3.6 3.6 0 0 3.59 7.19 0 0 3.59 3.6 0 0 3.6 7.19 0 0 3.59 7.19 0 0 3.6 3.59 0 0 3.6 3.6 0 0 3.59 7.19 0 0 3.6 7.19 0 0 3.59 3.59 0 0 3.6 3.6 0 0 3.59 7.19 0 0 3.6 3.6 0 0 3.59 7.18 0 0 3.6 3.6 0 0 3.59 10.79 0 0 3.6 7.19 0 0 3.59 14.38 0 0 3.6 25.16 0 0 -3.6 14.39 0 0 -3.59 7.19 0 0 -3.6 7.19 0 0 -3.59 3.59 0 0 -3.6 3.6 0 0 -3.59 3.59 0 0 -3.6 7.19 0 0 -3.59 3.6 0 0 -3.6 3.59 0 0 -3.59 3.6 0 0 -3.6 7.19 0 0 -3.59 3.6 0 0 -3.6 3.59 0 0 -3.6 7.19 0 0 -3.59 3.6 0 0 -3.6 7.19 0 0 -3.59 3.59 0 0 -3.59 7.19 0 0 -3.6 3.6 0 0 -3.6 7.19 0 0 -3.59 3.6 0 0 -3.6 7.18 0 0 -3.59 3.6 0 0 -3.6 3.59 0 0 -3.59 7.2 0 0 -3.6 3.59 0 0 -3.59 7.19 0 0 -3.6 3.6 0 0 -3.6 7.19 0 0 -3.59 3.59 0 0 -3.59 3.6 0 0 -3.6 3.59 0 0 -3.59 3.6 0 0 -3.6 3.59 0 0 -3.6 3.6 0 0 -3.59 3.59 0 0 -3.6 3.6 0 0 -3.59 3.6 0 0 -7.19 3.59 0 0 -3.59 3.59 0 0 -7.2 3.6 0 0 -7.19 3.59 0 0 -10.78 3.6 0 0 -17.98 3.6 0 0 -64.71 -3.6 0 0 -21.58 -3.6 0 0 -14.38 -3.59 0 0 -17.97 -3.6 0 0 -10.79 -3.59 0 0 -14.38 -3.59 0 0 -7.19 -3.6 0 0 -10.79 -3.6 0 0 -10.78 -3.59 0 0 -10.79 -3.6 0 0 -7.19 -3.59 0 0 -10.79 -3.6 0 0 -7.19 -3.59 0 0 -10.78 -3.6 0 0 -10.79 -3.59 0 0 -10.78 -3.6 0 0 -7.19 -3.59 0 0 -10.79 -3.6 0 0 -14.38 -3.59 0 0 -7.19 -3.6 0 0 -10.79 -3.59 0 0 -14.38 -3.6 0 0 -7.19 -3.6 0 0 -10.78 -3.59 0 0 -7.2 -3.6 0 0 -10.78 -3.59 0 0 -7.19 -3.59 0 0 -7.19 -3.6 0 0 -3.6 -3.6 0 0 -7.19 -3.59 0 0 -7.19 -3.6 0 0 -3.59 -3.59 0 0 -7.2 -3.6 0 0 -7.19 -3.59 0 0 -3.59 -3.6 0 0 -7.19 -3.59 0 0 -3.6 -3.6 0 0 -3.59 -3.6 0 0 -7.19 -3.59 0 0 -3.6 -3.59 0 0 -3.59 -3.6 0 0 -3.6 -3.59 0 0 -3.59 -7.2 0 0 -3.6 -3.59 0 0 -3.59 -3.6 0 0 -3.6 -3.59 0 0 -3.59 -7.19 0 0 -3.6 -7.19 0 0 -3.59 -7.19 0 0 -3.6 -7.19 0 0 -3.6 -14.39 0 0 -3.59 -53.93 0 0 3.59zm179.77 86.29l0 -25.16 -3.6 0 0 -21.58 -3.59 0 0 -32.35 -3.59 0 0 -61.13 -3.6 0 0 -32.35 -3.6 0 0 -93.48 -3.59 0 0 -50.33 -3.6 0 0 -97.07 -3.59 0 0 -46.74 -3.6 0 0 -35.95 -3.59 0 0 -53.93 -3.6 0 0 -43.15 -3.59 0 0 -28.76 -3.6 0 0 -25.16 -3.6 0 0 -21.58 -3.59 0 0 -28.76 -3.59 0 0 -28.76 -3.6 0 0 -32.36 -3.59 0 0 -17.98 -3.6 0 0 -17.97 -3.6 0 0 -28.77 -3.59 0 0 -14.38 -3.6 0 0 -28.76 -3.59 0 0 -14.38 -3.6 0 0 -17.98 -3.59 0 0 -10.78 -3.6 0 0 -17.98 -3.59 0 0 -14.38 -3.6 0 0 -17.97 -3.59 0 0 -17.98 -3.6 0 0 -10.79 -3.59 0 0 -17.97 -3.6 0 0 -14.39 -3.59 0 0 -7.19 -3.6 0 0 -17.97 -3.6 0 0 -10.79 -3.59 0 0 -7.19 -3.6 0 0 -10.79 -3.59 0 0 -10.78 -3.59 0 0 -14.38 -3.6 0 0 -10.79 -3.6 0 0 -7.19 -3.59 0 0 -10.78 -3.6 0 0 -7.19 -3.59 0 0 -7.19 -3.6 0 0 -10.79 -3.59 0 0 -7.19 -3.6 0 0 -3.6 -3.59 0 0 -7.19 -3.6 0 0 -7.19 -3.6 0 0 -3.59 -3.59 0 0 -3.6 -3.6 0 0 -3.59 -3.59 0 0 -3.6 -3.59 0 0 -3.59 -7.2 0 0 3.59 -3.59 0 0 7.19 -3.6 0 0 3.6 -3.59 0 0 10.78 -3.6 0 0 14.38 -3.59 0 0 143.82 3.59 0 0 172.57 -3.59 0 0 39.55 -3.6 0 0 32.35 -3.59 0 0 28.76 -3.6 0 0 28.77 -3.59 0 0 25.16 -3.6 0 0 21.58 -3.59 0 0 17.98 -3.6 0 0 21.57 -3.59 0 0 21.57 -3.6 0 0 21.57 -3.6 0 0 28.76 -3.59 0 0 25.17 -3.6 0 0 21.57 -3.59 0 0 28.76 -3.59 0 0 14.38 -3.6 0 0 32.36 -3.6 0 0 28.76 -3.59 0 0 17.98 -3.6 0 0 28.76 -3.59 0 0 39.55 -3.6 0 0 35.95 -3.59 0 0 50.34 -3.6 0 0 75.5 -3.59 0 0 93.47 -3.6 0 0 61.12 -3.6 0 0 28.77"/>
 </g>
</svg>
