<?xml version="1.0" encoding="UTF-8"?>
<!DOCTYPE svg PUBLIC "-//W3C//DTD SVG 1.1//EN" "http://www.w3.org/Graphics/SVG/1.1/DTD/svg11.dtd">
<!-- Creator: CorelDRAW (Versión OEM) -->
<svg xmlns="http://www.w3.org/2000/svg" xml:space="preserve" width="36.5684mm" height="173.699mm" version="1.1" style="shape-rendering:geometricPrecision; text-rendering:geometricPrecision; image-rendering:optimizeQuality; fill-rule:evenodd; clip-rule:evenodd"
viewBox="0 0 3656.84 17369.86"
 xmlns:xlink="http://www.w3.org/1999/xlink"
 xmlns:xodm="http://www.corel.com/coreldraw/odm/2003">
 <defs>
  <style type="text/css">
   <![CDATA[
    .str0 {stroke:#D2D3D5;stroke-width:135.47;stroke-miterlimit:22.9256;stroke-dasharray:677.350000 677.350000 1354.700000 677.350000}
    .fil0 {fill:none}
   ]]>
  </style>
 </defs>
 <g id="unerupted">
  <metadata id="CorelCorpID_0Corel-Layer"/>
  <polygon id="crown" class="fil0 str0" points="2163.27,757.61 2498.51,757.61 2498.51,788.1 2620.38,788.1 2620.38,818.55 2803.22,818.55 2803.22,849.03 2925.12,849.03 2925.12,879.52 3016.54,879.52 3016.54,909.97 3077.48,909.97 3077.48,940.45 3138.45,940.45 3138.45,970.94 3199.38,970.94 3199.38,1001.39 3260.32,1001.39 3260.32,1031.87 3290.81,1031.87 3290.81,1062.36 3321.29,1062.36 3321.29,1123.3 3351.74,1123.3 3351.74,1153.78 3382.23,1153.78 3382.23,1245.2 3412.71,1245.2 3412.71,1397.56 3443.16,1397.56 3443.16,2281.28 3412.71,2281.28 3412.71,2646.96 3382.23,2646.96 3382.23,2890.73 3351.74,2890.73 3351.74,3195.48 3321.29,3195.48 3321.29,3378.32 3290.81,3378.32 3290.81,3561.16 3260.32,3561.16 3260.32,3744 3229.87,3744 3229.87,3926.84 3199.38,3926.84 3199.38,4109.69 3168.9,4109.69 3168.9,4292.53 3138.45,4292.53 3138.45,4414.43 3107.96,4414.43 3107.96,4627.72 3077.48,4627.72 3077.48,4719.14 3047.03,4719.14 3047.03,4841.05 3016.54,4841.05 3016.54,4962.95 2986.06,4962.95 2986.06,5054.38 2955.61,5054.38 2955.61,5206.73 2925.12,5206.73 2925.12,5267.67 2894.64,5267.67 2894.64,5389.57 2864.19,5389.57 2864.19,5480.99 2833.7,5480.99 2833.7,5572.41 2803.22,5572.41 2803.22,5633.35 2772.77,5633.35 2772.77,5694.32 2742.28,5694.32 2742.28,5755.25 2711.8,5755.25 2711.8,5816.19 2681.35,5816.19 2681.35,5877.16 2650.86,5877.16 2650.86,5938.09 2620.38,5938.09 2620.38,5999.03 2589.93,5999.03 2589.93,6029.51 2559.44,6029.51 2559.44,6090.45 2528.96,6090.45 2528.96,6120.94 2498.51,6120.94 2498.51,6151.42 2468.02,6151.42 2468.02,6181.87 2437.54,6181.87 2437.54,6242.84 2407.09,6242.84 2407.09,6273.29 2346.12,6273.29 2346.12,6303.78 2315.67,6303.78 2315.67,6334.26 2285.18,6334.26 2285.18,6364.71 2224.25,6364.71 2224.25,6395.2 2163.27,6395.2 2163.27,6425.68 2102.34,6425.68 2102.34,6456.13 2041.4,6456.13 2041.4,6486.62 1767.14,6486.62 1767.14,6456.13 1675.72,6456.13 1675.72,6425.68 1614.75,6425.68 1614.75,6395.2 1553.82,6395.2 1553.82,6364.71 1492.88,6364.71 1492.88,6334.26 1462.4,6334.26 1462.4,6303.78 1431.91,6303.78 1431.91,6273.29 1401.46,6273.29 1401.46,6242.84 1370.98,6242.84 1370.98,6212.36 1340.49,6212.36 1340.49,6181.87 1310.04,6181.87 1310.04,6151.42 1279.56,6151.42 1279.56,6120.94 1249.07,6120.94 1249.07,6090.45 1218.62,6090.45 1218.62,6060 1188.13,6060 1188.13,5999.03 1157.65,5999.03 1157.65,5968.58 1127.2,5968.58 1127.2,5907.61 1096.71,5907.61 1096.71,5877.16 1066.23,5877.16 1066.23,5816.19 1035.78,5816.19 1035.78,5755.25 1005.29,5755.25 1005.29,5694.32 974.81,5694.32 974.81,5633.35 944.36,5633.35 944.36,5572.41 913.87,5572.41 913.87,5480.99 883.39,5480.99 883.39,5389.57 852.94,5389.57 852.94,5328.64 822.45,5328.64 822.45,5237.22 791.97,5237.22 791.97,5145.8 761.52,5145.8 761.52,5084.82 731.03,5084.82 731.03,4962.95 700.55,4962.95 700.55,4901.98 670.1,4901.98 670.1,4749.63 639.61,4749.63 639.61,4688.69 609.13,4688.69 609.13,4566.79 578.68,4566.79 578.68,4444.88 548.19,4444.88 548.19,4262.04 517.71,4262.04 517.71,4170.62 487.26,4170.62 487.26,4018.26 456.77,4018.26 456.77,3835.42 426.29,3835.42 426.29,3622.1 395.84,3622.1 395.84,3439.26 365.35,3439.26 365.35,3225.97 334.86,3225.97 334.86,2982.15 304.42,2982.15 304.42,2799.31 273.93,2799.31 273.93,2586.02 243.44,2586.02 243.44,2189.86 213,2189.86 213,1214.72 243.44,1214.72 243.44,1062.36 273.93,1062.36 273.93,970.94 304.42,970.94 304.42,909.97 334.86,909.97 334.86,879.52 365.35,879.52 365.35,849.03 395.84,849.03 395.84,818.55 426.29,818.55 426.29,788.1 517.71,788.1 517.71,757.61 761.52,757.61 761.52,727.13 2163.27,727.13 "/>
  <polyline id="root" class="fil0 str0" points="3016.54,5572.46 3016.54,5755.3 2986.06,5755.3 2986.06,6486.67 2955.61,6486.67 2955.61,7339.94 2925.12,7339.94 2925.12,7644.65 2894.64,7644.65 2894.64,8071.3 2864.19,8071.3 2864.19,8558.85 2833.7,8558.85 2833.7,8772.18 2803.22,8772.18 2803.22,9076.93 2772.77,9076.93 2772.77,9351.15 2742.28,9351.15 2742.28,9655.9 2711.8,9655.9 2711.8,9838.74 2681.35,9838.74 2681.35,10052.07 2650.86,10052.07 2650.86,10265.36 2620.38,10265.36 2620.38,10478.68 2589.93,10478.68 2589.93,10631.04 2559.44,10631.04 2559.44,10813.88 2528.96,10813.88 2528.96,11057.69 2498.51,11057.69 2498.51,11301.47 2468.02,11301.47 2468.02,11606.21 2437.54,11606.21 2437.54,12002.34 2407.09,12002.34 2407.09,14379.28 2376.6,14379.28 2376.6,14623.09 2346.12,14623.09 2346.12,14714.51 2315.67,14714.51 2315.67,14775.44 2285.18,14775.44 2285.18,14805.93 2254.69,14805.93 2254.69,14836.38 2224.25,14836.38 2224.25,14866.86 2102.34,14866.86 2102.34,14836.38 2041.4,14836.38 2041.4,14805.93 2010.92,14805.93 2010.92,14775.44 1980.43,14775.44 1980.43,14714.51 1949.98,14714.51 1949.98,14684.02 1919.5,14684.02 1919.5,14653.54 1889.01,14653.54 1889.01,14592.6 1858.56,14592.6 1858.56,14531.67 1828.08,14531.67 1828.08,14470.7 1797.59,14470.7 1797.59,14409.76 1767.14,14409.76 1767.14,14348.83 1736.66,14348.83 1736.66,14287.86 1706.17,14287.86 1706.17,14196.44 1675.72,14196.44 1675.72,14135.5 1645.24,14135.5 1645.24,14013.59 1614.75,14013.59 1614.75,13952.66 1584.3,13952.66 1584.3,13830.75 1553.82,13830.75 1553.82,13708.88 1523.33,13708.88 1523.33,13647.91 1492.88,13647.91 1492.88,13495.56 1462.4,13495.56 1462.4,13434.62 1431.91,13434.62 1431.91,13251.78 1401.46,13251.78 1401.46,13129.88 1370.98,13129.88 1370.98,13007.97 1340.49,13007.97 1340.49,12825.13 1310.04,12825.13 1310.04,12733.71 1279.56,12733.71 1279.56,12550.87 1249.07,12550.87 1249.07,12429 1218.62,12429 1218.62,12246.16 1188.13,12246.16 1188.13,12032.83 1157.65,12032.83 1157.65,11819.5 1127.2,11819.5 1127.2,11728.08 1096.71,11728.08 1096.71,11514.79 1066.23,11514.79 1066.23,11240.53 1035.78,11240.53 1035.78,11057.69 1005.29,11057.69 1005.29,10692.01 974.81,10692.01 974.81,10356.78 944.36,10356.78 944.36,10052.07 913.87,10052.07 913.87,9594.96 883.39,9594.96 883.39,9290.22 852.94,9290.22 852.94,8467.43 822.45,8467.43 822.45,7857.97 791.97,7857.97 791.97,7461.81 761.52,7461.81 761.52,6699.99 731.03,6699.99 731.03,6303.83 700.55,6303.83 700.55,5572.46 670.1,5572.46 670.1,5389.62 "/>
 </g>
</svg>
