<?xml version="1.0" encoding="UTF-8"?>
<!DOCTYPE svg PUBLIC "-//W3C//DTD SVG 1.1//EN" "http://www.w3.org/Graphics/SVG/1.1/DTD/svg11.dtd">
<!-- Creator: CorelDRAW (Versión OEM) -->
<svg xmlns="http://www.w3.org/2000/svg" xml:space="preserve" width="42.3578mm" height="173.699mm" version="1.1" style="shape-rendering:geometricPrecision; text-rendering:geometricPrecision; image-rendering:optimizeQuality; fill-rule:evenodd; clip-rule:evenodd"
viewBox="0 0 4235.78 17369.86"
 xmlns:xlink="http://www.w3.org/1999/xlink"
 xmlns:xodm="http://www.corel.com/coreldraw/odm/2003">
 <defs>
  <style type="text/css">
   <![CDATA[
    .str0 {stroke:#D2D3D5;stroke-width:135.47;stroke-miterlimit:22.9256;stroke-dasharray:677.350000 677.350000 1354.700000 677.350000}
    .fil0 {fill:none}
   ]]>
  </style>
 </defs>
 <g id="unerupted">
  <metadata id="CorelCorpID_0Corel-Layer"/>
  <polygon id="crown" class="fil0 str0" points="2171.6,249.96 2263.02,249.96 2263.02,280.44 2323.95,280.44 2323.95,310.93 2384.92,310.93 2384.92,341.38 2445.86,341.38 2445.86,371.86 2476.34,371.86 2476.34,402.35 2506.79,402.35 2506.79,432.8 2567.76,432.8 2567.76,463.28 2598.21,463.28 2598.21,493.77 2659.18,493.77 2659.18,524.22 2689.63,524.22 2689.63,554.7 2720.12,554.7 2720.12,585.19 2781.05,585.19 2781.05,615.64 2811.54,615.64 2811.54,646.12 2842.02,646.12 2842.02,676.61 2902.96,676.61 2902.96,707.06 2933.44,707.06 2933.44,737.54 2963.89,737.54 2963.89,768.03 3024.86,768.03 3024.86,798.48 3055.31,798.48 3055.31,828.96 3085.8,828.96 3085.8,859.45 3146.73,859.45 3146.73,889.9 3177.22,889.9 3177.22,920.38 3207.71,920.38 3207.71,950.87 3238.16,950.87 3238.16,981.32 3299.13,981.32 3299.13,1011.8 3329.58,1011.8 3329.58,1042.29 3360.06,1042.29 3360.06,1072.74 3421,1072.74 3421,1103.23 3451.48,1103.23 3451.48,1133.71 3481.97,1133.71 3481.97,1164.16 3512.42,1164.16 3512.42,1194.65 3542.9,1194.65 3542.9,1225.13 3573.39,1225.13 3573.39,1255.58 3603.84,1255.58 3603.84,1286.07 3634.32,1286.07 3634.32,1316.55 3664.81,1316.55 3664.81,1377.49 3695.26,1377.49 3695.26,1407.97 3725.74,1407.97 3725.74,1438.42 3756.23,1438.42 3756.23,1499.36 3786.68,1499.36 3786.68,1560.33 3817.16,1560.33 3817.16,1590.78 3847.65,1590.78 3847.65,1651.75 3878.1,1651.75 3878.1,1712.68 3908.58,1712.68 3908.58,1773.62 3939.07,1773.62 3939.07,1865.04 3969.52,1865.04 3969.52,1956.46 4000,1956.46 4000,2139.3 4030.49,2139.3 4030.49,2992.57 4000,2992.57 4000,3236.35 3969.52,3236.35 3969.52,3419.19 3939.07,3419.19 3939.07,3602.03 3908.58,3602.03 3908.58,3723.93 3878.1,3723.93 3878.1,3845.84 3847.65,3845.84 3847.65,4028.68 3817.16,4028.68 3817.16,4150.55 3786.68,4150.55 3786.68,4302.94 3756.23,4302.94 3756.23,4394.36 3725.74,4394.36 3725.74,4516.23 3695.26,4516.23 3695.26,4668.62 3664.81,4668.62 3664.81,4820.98 3634.32,4820.98 3634.32,4912.4 3603.84,4912.4 3603.84,5064.75 3573.39,5064.75 3573.39,5186.66 3542.9,5186.66 3542.9,5278.08 3512.42,5278.08 3512.42,5460.92 3481.97,5460.92 3481.97,5552.34 3451.48,5552.34 3451.48,5674.25 3421,5674.25 3421,5796.12 3390.55,5796.12 3390.55,5887.54 3360.06,5887.54 3360.06,5978.96 3329.58,5978.96 3329.58,6070.38 3299.13,6070.38 3299.13,6161.8 3268.64,6161.8 3268.64,6222.77 3238.16,6222.77 3238.16,6283.71 3207.71,6283.71 3207.71,6375.13 3177.22,6375.13 3177.22,6436.06 3146.73,6436.06 3146.73,6497.03 3116.29,6497.03 3116.29,6557.97 3085.8,6557.97 3085.8,6588.45 3055.31,6588.45 3055.31,6649.39 3024.86,6649.39 3024.86,6710.32 2994.38,6710.32 2994.38,6740.81 2963.89,6740.81 2963.89,6801.74 2933.44,6801.74 2933.44,6832.23 2902.96,6832.23 2902.96,6862.71 2872.47,6862.71 2872.47,6893.16 2842.02,6893.16 2842.02,6923.65 2811.54,6923.65 2811.54,6984.58 2781.05,6984.58 2781.05,7015.07 2720.12,7015.07 2720.12,7045.56 2689.63,7045.56 2689.63,7076 2659.18,7076 2659.18,7106.49 2628.7,7106.49 2628.7,7136.98 2567.76,7136.98 2567.76,7167.43 2537.28,7167.43 2537.28,7197.91 2445.86,7197.91 2445.86,7228.4 2354.44,7228.4 2354.44,7258.85 2263.02,7258.85 2263.02,7289.33 1958.3,7289.33 1958.3,7258.85 1866.88,7258.85 1866.88,7228.4 1775.46,7228.4 1775.46,7197.91 1714.49,7197.91 1714.49,7167.43 1653.56,7167.43 1653.56,7136.98 1623.07,7136.98 1623.07,7106.49 1562.14,7106.49 1562.14,7076 1531.65,7076 1531.65,7045.56 1501.2,7045.56 1501.2,7015.07 1470.72,7015.07 1470.72,6984.58 1440.23,6984.58 1440.23,6954.14 1409.78,6954.14 1409.78,6923.65 1379.3,6923.65 1379.3,6893.16 1348.81,6893.16 1348.81,6862.71 1318.36,6862.71 1318.36,6832.23 1287.88,6832.23 1287.88,6771.29 1257.39,6771.29 1257.39,6740.81 1226.94,6740.81 1226.94,6710.32 1196.46,6710.32 1196.46,6649.39 1165.97,6649.39 1165.97,6618.9 1135.52,6618.9 1135.52,6557.97 1105.03,6557.97 1105.03,6497.03 1074.55,6497.03 1074.55,6436.06 1044.1,6436.06 1044.1,6375.13 1013.61,6375.13 1013.61,6314.19 983.13,6314.19 983.13,6253.22 952.68,6253.22 952.68,6192.29 922.19,6192.29 922.19,6100.87 891.71,6100.87 891.71,6009.44 861.26,6009.44 861.26,5948.51 830.77,5948.51 830.77,5857.09 800.29,5857.09 800.29,5765.67 769.84,5765.67 769.84,5674.25 739.35,5674.25 739.35,5613.28 708.87,5613.28 708.87,5460.92 678.42,5460.92 678.42,5399.99 647.93,5399.99 647.93,5247.6 617.45,5247.6 617.45,5125.73 587,5125.73 587,4973.33 556.51,4973.33 556.51,4820.98 526.03,4820.98 526.03,4729.56 495.58,4729.56 495.58,4546.72 465.09,4546.72 465.09,4363.88 434.61,4363.88 434.61,4150.55 404.16,4150.55 404.16,4089.62 373.67,4089.62 373.67,3815.35 343.19,3815.35 343.19,3663 312.74,3663 312.74,3480.16 282.25,3480.16 282.25,3236.35 251.77,3236.35 251.77,3083.99 221.32,3083.99 221.32,2748.79 190.83,2748.79 190.83,2078.37 221.32,2078.37 221.32,1926.01 251.77,1926.01 251.77,1773.62 282.25,1773.62 282.25,1682.2 312.74,1682.2 312.74,1621.26 343.19,1621.26 343.19,1529.84 373.67,1529.84 373.67,1499.36 404.16,1499.36 404.16,1438.42 434.61,1438.42 434.61,1377.49 465.09,1377.49 465.09,1347 495.58,1347 495.58,1316.55 526.03,1316.55 526.03,1286.07 556.51,1286.07 556.51,1225.13 587,1225.13 587,1194.65 617.45,1194.65 617.45,1164.16 678.42,1164.16 678.42,1133.71 708.87,1133.71 708.87,1103.23 739.35,1103.23 739.35,1072.74 769.84,1072.74 769.84,1042.29 800.29,1042.29 800.29,1011.8 830.77,1011.8 830.77,981.32 891.71,981.32 891.71,950.87 922.19,950.87 922.19,920.38 952.68,920.38 952.68,889.9 983.13,889.9 983.13,859.45 1044.1,859.45 1044.1,828.96 1074.55,828.96 1074.55,798.48 1105.03,798.48 1105.03,768.03 1135.52,768.03 1135.52,737.54 1196.46,737.54 1196.46,707.06 1226.94,707.06 1226.94,676.61 1257.39,676.61 1257.39,646.12 1287.88,646.12 1287.88,615.64 1348.81,615.64 1348.81,585.19 1379.3,585.19 1379.3,554.7 1409.78,554.7 1409.78,524.22 1440.23,524.22 1440.23,493.77 1501.2,493.77 1501.2,463.28 1531.65,463.28 1531.65,432.8 1562.14,432.8 1562.14,402.35 1623.07,402.35 1623.07,371.86 1653.56,371.86 1653.56,341.38 1684.04,341.38 1684.04,310.93 1744.98,310.93 1744.98,280.44 1805.91,280.44 1805.91,249.96 1897.33,249.96 1897.33,219.51 2171.6,219.51 "/>
  <polyline id="root" class="fil0 str0" points="3451.48,6222.77 3451.48,6466.55 3421,6466.55 3421,7594.08 3390.55,7594.08 3390.55,8477.8 3360.06,8477.8 3360.06,9209.16 3329.58,9209.16 3329.58,9574.84 3299.13,9574.84 3299.13,9879.55 3268.64,9879.55 3268.64,10184.3 3238.16,10184.3 3238.16,10580.47 3207.71,10580.47 3207.71,10763.31 3177.22,10763.31 3177.22,10976.6 3146.73,10976.6 3146.73,11342.28 3116.29,11342.28 3116.29,11555.61 3085.8,11555.61 3085.8,11860.35 3055.31,11860.35 3055.31,11982.22 3024.86,11982.22 3024.86,12256.49 2994.38,12256.49 2994.38,12439.33 2963.89,12439.33 2963.89,12713.59 2933.44,12713.59 2933.44,12987.85 2902.96,12987.85 2902.96,13353.53 2872.47,13353.53 2872.47,13597.34 2842.02,13597.34 2842.02,14054.45 2811.54,14054.45 2811.54,14511.55 2781.05,14511.55 2781.05,16035.21 2750.6,16035.21 2750.6,16644.67 2720.12,16644.67 2720.12,16766.57 2689.63,16766.57 2689.63,16888.48 2659.18,16888.48 2659.18,16979.9 2628.7,16979.9 2628.7,17040.84 2598.21,17040.84 2598.21,17071.28 2567.76,17071.28 2567.76,17132.26 2506.79,17132.26 2506.79,17162.71 2293.5,17162.71 2293.5,17132.26 2263.02,17132.26 2263.02,17101.77 2232.57,17101.77 2232.57,17071.28 2202.08,17071.28 2202.08,17040.84 2171.6,17040.84 2171.6,17010.35 2141.15,17010.35 2141.15,16949.41 2110.66,16949.41 2110.66,16888.48 2080.17,16888.48 2080.17,16857.99 2049.73,16857.99 2049.73,16797.06 2019.24,16797.06 2019.24,16736.09 1988.75,16736.09 1988.75,16675.15 1958.3,16675.15 1958.3,16614.22 1927.82,16614.22 1927.82,16553.25 1897.33,16553.25 1897.33,16461.83 1866.88,16461.83 1866.88,16400.89 1836.4,16400.89 1836.4,16309.47 1805.91,16309.47 1805.91,16218.05 1775.46,16218.05 1775.46,16126.63 1744.98,16126.63 1744.98,16035.21 1714.49,16035.21 1714.49,15913.3 1684.04,15913.3 1684.04,15821.88 1653.56,15821.88 1653.56,15730.46 1623.07,15730.46 1623.07,15608.59 1592.62,15608.59 1592.62,15517.17 1562.14,15517.17 1562.14,15395.27 1531.65,15395.27 1531.65,15273.36 1501.2,15273.36 1501.2,15151.49 1470.72,15151.49 1470.72,14968.65 1440.23,14968.65 1440.23,14846.74 1409.78,14846.74 1409.78,14724.84 1379.3,14724.84 1379.3,14602.97 1348.81,14602.97 1348.81,14481.06 1318.36,14481.06 1318.36,14298.22 1287.88,14298.22 1287.88,14176.32 1257.39,14176.32 1257.39,13993.47 1226.94,13993.47 1226.94,13871.6 1196.46,13871.6 1196.46,13719.21 1165.97,13719.21 1165.97,13536.37 1135.52,13536.37 1135.52,13323.08 1105.03,13323.08 1105.03,13079.27 1074.55,13079.27 1074.55,12865.98 1044.1,12865.98 1044.1,12683.14 1013.61,12683.14 1013.61,12439.33 983.13,12439.33 983.13,12286.97 952.68,12286.97 952.68,11982.22 922.19,11982.22 922.19,11799.38 891.71,11799.38 891.71,11494.67 861.26,11494.67 861.26,11281.35 830.77,11281.35 830.77,10671.89 800.29,10671.89 800.29,9757.68 769.84,9757.68 769.84,8812.99 739.35,8812.99 739.35,7715.95 708.87,7715.95 708.87,7228.4 678.42,7228.4 678.42,6009.44 "/>
 </g>
</svg>
