<!-- Creator: CorelDRAW (Versión de evaluación) -->
<svg xmlns="http://www.w3.org/2000/svg" xml:space="preserve" width="497px" height="2062px" version="1.1" style="shape-rendering:geometricPrecision; text-rendering:geometricPrecision; image-rendering:optimizeQuality; fill-rule:evenodd; clip-rule:evenodd"
viewBox="0 0 497 2063.64"
 xmlns:xlink="http://www.w3.org/1999/xlink"
 xmlns:xodm="http://www.corel.com/coreldraw/odm/2003">
 <defs>
  <style type="text/css">
   <![CDATA[
    .str0 {stroke:#D2D3D5;stroke-width:16.01;stroke-linecap:square;stroke-miterlimit:22.9256;stroke-dasharray:80.050000 80.050000 160.100000 80.050000}
    .fil0 {fill:none}
   ]]>
  </style>
 </defs>
 <g id="unerupted">
  <metadata id="CorelCorpID_0Corel-Layer"/>
  <path id="crown" class="fil0 str0" d="M72.89 1481.6c-11.61,-11.61 10.5,-275.66 11.02,-313.19 0.35,-25.41 4.59,-51.29 5.95,-78.05 1.17,-22.75 10.05,-56.87 10.05,-77.05 -0.01,-44.55 21.76,-112.97 24.05,-157.1 2.66,-51.19 20.2,-103.25 22.94,-156.1 2.65,-51.06 15.05,-101.06 15.05,-157.09 0,-53.22 -4.01,-106.33 -4.01,-156.1 0,-48.32 -11.55,-122.53 21.02,-155.1m2 -1l-2 1m5 -2l-3 1m5 -2l-2 1m214.13 1222.76c5.71,30.18 33.77,136.52 47.07,158.1 14.91,24.22 40.99,125.63 40.99,158.1 0,82 -11.51,95.08 -69.04,144.16 -18.19,15.52 -56.64,37.83 -78.05,53.27 -24.99,18.02 -47.46,44.05 -79.05,47.77 -44,5.18 -120.23,-51.6 -156.1,-76.04 -31.03,-21.15 -48.27,-23.64 -73.05,-59.09 -23.39,-33.46 -25.04,-123.04 -14.37,-159.1 6.01,-20.28 10.39,-61.47 18.07,-79.05 1.72,-3.92 24.33,-78.8 24.33,-79.05 0.15,-17.39 14,-62.86 14,-80.05 45.2,-15.64 29.59,-119.25 147.09,-143.12 31.11,-6.31 77.05,5.94 99.06,28.05 10.63,10.68 38.95,34.81 44,48.03 9.21,24.1 15.12,27.36 35.05,38.02 5.17,-6.54 -10,-130.13 -10,-154.09 0,-23.84 -7.01,-47.86 -7.01,-77.05 0,-26.27 -3,-55.43 -3,-78.05 0,-48.06 -8,-105.99 -8,-154.1 0,-24.42 -7.01,-54.32 -7.01,-77.05 0,-12.41 -2.78,-69.18 -5.31,-78.04 -10.31,-36.14 -14.8,-112.83 -19.66,-154.1 -1.56,-13.22 -27.53,-151.31 -29.76,-155.1 -3.94,-6.69 -12.82,-70.88 -16.34,-77.05 -8.94,-15.62 -13.59,-58.38 -22.65,-77.04 -15.09,-31.1 -35.45,-142.09 -83.39,-142.09"/>
 </g>
</svg>