<?xml version="1.0" encoding="UTF-8"?>
<!DOCTYPE svg PUBLIC "-//W3C//DTD SVG 1.1//EN" "http://www.w3.org/Graphics/SVG/1.1/DTD/svg11.dtd">
<!-- Creator: CorelDRAW (Versión de evaluación) -->
<svg xmlns="http://www.w3.org/2000/svg" xml:space="preserve" width="497px" height="2062px" version="1.1" style="shape-rendering:geometricPrecision; text-rendering:geometricPrecision; image-rendering:optimizeQuality; fill-rule:evenodd; clip-rule:evenodd"
viewBox="0 0 497 2063.64"
 xmlns:xlink="http://www.w3.org/1999/xlink"
 xmlns:xodm="http://www.corel.com/coreldraw/odm/2003">
 <defs>
  <style type="text/css">
   <![CDATA[
    .str0 {stroke:#D2D3D5;stroke-width:10.01;stroke-miterlimit:22.9256;stroke-dasharray:50.030000 50.030000 100.070000 50.030000}
    .fil0 {fill:#E6E7E8}
   ]]>
  </style>
 </defs>
 <g id="unerupted">
  <metadata id="CorelCorpID_0Corel-Layer"/>
  <path id="outline" class="fil0 str0" d="M19.15 1735.93l3.6 0 0 -14.41 3.61 0 0 -21.61 3.59 0 0 -14.4 3.61 0 0 -7.21 3.6 0 0 -14.4 3.6 0 0 -10.81 3.6 0 0 -7.2 3.6 0 0 -14.41 3.6 0 0 -10.8 3.6 0 0 -10.8 3.61 0 0 -10.81 3.6 0 0 -10.8 3.6 0 0 -10.81 3.6 0 0 -10.8 3.6 0 0 -10.81 3.6 0 0 -10.8 3.61 0 0 -18.01 3.6 0 0 -14.41 3.6 0 0 -10.8 3.6 0 0 -10.8 3.6 0 0 -10.81 3.6 0 0 -7.2 3.61 0 0 -7.21 3.59 0 0 -7.2 3.61 0 0 -7.2 3.6 0 0 -3.6 3.6 0 0 -7.21 3.6 0 0 -3.6 3.6 0 0 -7.2 3.6 0 0 -3.6 3.61 0 0 -3.6 3.6 0 0 -7.2 3.6 0 0 -3.61 3.6 0 0 -3.6 3.6 0 0 -3.6 3.6 0 0 -3.6 3.61 0 0 -3.6 3.6 0 0 -3.6 3.6 0 0 -3.61 3.6 0 0 -3.6 3.6 0 0 -3.6 7.2 0 0 -3.6 3.61 0 0 -3.6 7.2 0 0 -3.6 7.2 0 0 -3.61 7.21 0 0 -3.6 14.4 0 0 -3.6 7.21 0 0 -3.6 39.61 0 0 3.6 14.41 0 0 3.6 10.8 0 0 3.6 7.2 0 0 3.61 7.2 0 0 3.6 7.21 0 0 3.6 3.6 0 0 3.6 3.6 0 0 3.6 3.61 0 0 3.6 3.59 0 0 3.61 3.61 0 0 3.6 3.6 0 0 3.6 3.6 0 0 3.6 3.6 0 0 3.6 3.6 0 0 3.6 3.6 0 0 3.61 3.61 0 0 7.2 3.6 0 0 3.6 3.6 0 0 3.6 3.6 0 0 7.2 3.6 0 0 3.6 3.6 0 0 7.21 3.6 0 0 7.2 3.61 0 0 7.2 3.6 0 0 7.21 3.6 0 0 3.6 3.6 0 0 7.2 3.6 0 0 7.2 3.6 0 0 10.81 3.61 0 0 7.2 3.59 0 0 7.2 3.61 0 0 10.81 3.6 0 0 3.6 3.6 0 0 14.41 3.6 0 0 10.8 3.61 0 0 10.8 3.59 0 0 10.81 3.61 0 0 10.8 3.6 0 0 7.21 3.6 0 0 14.4 3.6 0 0 7.2 3.6 0 0 10.81 3.6 0 0 10.8 3.61 0 0 10.81 3.6 0 0 7.2 3.6 0 0 14.41 3.6 0 0 10.8 3.6 0 0 10.81 3.6 0 0 14.4 3.6 0 0 18.01 3.61 0 0 18.01 3.6 0 0 79.23 -3.6 0 0 18.01 -3.61 0 0 7.2 -3.6 0 0 7.2 -3.6 0 0 7.21 -3.6 0 0 3.6 -3.6 0 0 7.2 -3.6 0 0 3.6 -3.6 0 0 3.6 -3.61 0 0 3.6 -3.6 0 0 3.61 -3.6 0 0 3.6 -3.6 0 0 3.6 -3.6 0 0 3.6 -7.21 0 0 3.6 -3.59 0 0 3.6 -7.21 0 0 3.6 -7.2 0 0 3.61 -3.61 0 0 3.6 -7.2 0 0 3.6 -3.6 0 0 3.6 -7.2 0 0 3.6 -3.6 0 0 3.6 -7.21 0 0 3.61 -7.2 0 0 3.6 -3.6 0 0 3.6 -7.2 0 0 3.6 -3.6 0 0 3.6 -7.21 0 0 3.6 -3.6 0 0 3.61 -3.6 0 0 3.59 -7.2 0 0 3.61 -3.61 0 0 3.6 -3.59 0 0 3.6 -7.21 0 0 3.6 -3.6 0 0 3.6 -3.6 0 0 3.6 -7.2 0 0 3.61 -3.61 0 0 3.6 -7.2 0 0 3.6 -7.2 0 0 3.6 -7.21 0 0 3.6 -43.21 0 0 -3.6 -10.81 0 0 -3.6 -7.2 0 0 -3.6 -3.6 0 0 -3.6 -7.2 0 0 -3.61 -7.21 0 0 -3.6 -3.6 0 0 -3.6 -3.6 0 0 -3.6 -7.2 0 0 -3.6 -3.61 0 0 -3.6 -7.2 0 0 -3.61 -3.6 0 0 -3.59 -3.6 0 0 -3.61 -7.2 0 0 -3.6 -7.21 0 0 -3.6 -7.2 0 0 -3.6 -3.6 0 0 -3.6 -3.6 0 0 -3.6 -7.21 0 0 -3.61 -7.2 0 0 -3.6 -7.2 0 0 -3.6 -3.61 0 0 -3.6 -7.2 0 0 -3.6 -7.2 0 0 -3.6 -3.6 0 0 -3.61 -7.2 0 0 -3.6 -3.61 0 0 -3.6 -7.2 0 0 -3.6 -3.6 0 0 -3.6 -3.6 0 0 -3.6 -3.6 0 0 -3.6 -3.61 0 0 -3.61 -3.6 0 0 -3.6 -3.6 0 0 -3.6 -3.6 0 0 -7.2 -3.6 0 0 -3.6 -3.6 0 0 -7.21 -3.6 0 0 -10.8 -3.61 0 0 -10.8 -3.59 0 0 -14.41 -3.61 0 0 -18.01 -3.6 0 0 -64.82zm273.71 -1177.69l3.61 0 0 32.41 3.59 0 0 32.42 3.61 0 0 25.21 3.6 0 0 21.61 3.6 0 0 32.41 3.6 0 0 21.61 3.61 0 0 28.81 3.59 0 0 14.41 3.61 0 0 18 3.6 0 0 18.01 3.6 0 0 25.21 3.6 0 0 10.81 3.6 0 0 25.21 3.6 0 0 18 3.61 0 0 25.22 3.6 0 0 14.4 3.6 0 0 25.21 3.6 0 0 18.01 3.6 0 0 25.21 3.6 0 0 21.61 3.6 0 0 21.61 3.61 0 0 39.61 3.6 0 0 32.42 3.6 0 0 32.41 3.6 0 0 32.41 3.6 0 0 39.62 3.6 0 0 68.43 3.61 0 0 50.42 3.59 0 0 50.42 3.61 0 0 50.42 3.6 0 0 43.22 -3.6 0 0 -7.21 -3.61 0 0 -3.6 -3.59 0 0 -7.2 -3.61 0 0 -7.2 -3.6 0 0 -7.21 -3.6 0 0 -3.6 -3.6 0 0 -7.2 -3.6 0 0 -7.2 -3.6 0 0 -3.61 -3.61 0 0 -3.59 -3.6 0 0 -7.21 -3.6 0 0 -3.6 -3.6 0 0 -3.6 -3.6 0 0 -3.6 -3.6 0 0 -3.6 -3.6 0 0 -3.61 -3.61 0 0 -7.2 -3.6 0 0 -3.6 -7.2 0 0 -3.6 -3.6 0 0 -3.6 -3.6 0 0 -3.61 -3.61 0 0 -3.6 -7.2 0 0 -3.6 -3.6 0 0 -3.6 -7.2 0 0 -3.6 -7.2 0 0 -3.6 -7.21 0 0 -3.6 -10.8 0 0 -3.61 -10.81 0 0 -3.6 -46.81 0 0 3.6 -14.41 0 0 3.61 -10.81 0 0 3.6 -10.8 0 0 3.6 -7.2 0 0 3.6 -7.21 0 0 3.6 -7.2 0 0 3.6 -3.6 0 0 3.6 -3.6 0 0 3.61 -7.21 0 0 3.6 -3.6 0 0 3.6 -3.6 0 0 3.6 -3.6 0 0 3.6 -3.6 0 0 3.6 -3.6 0 0 3.61 -3.61 0 0 3.6 -3.6 0 0 3.6 -3.6 0 0 7.2 -3.6 0 0 3.6 -3.6 0 0 7.2 -3.6 0 0 3.61 -3.61 0 0 7.2 -3.59 0 0 3.6 -3.61 0 0 7.2 -3.6 0 0 -10.8 3.6 0 0 -54.02 3.61 0 0 -36.02 3.59 0 0 -90.03 3.61 0 0 -140.46 3.6 0 0 -50.42 3.6 0 0 -79.24 3.6 0 0 -32.41 3.6 0 0 -54.02 3.6 0 0 -54.02 3.61 0 0 -14.41 3.6 0 0 -50.42 3.6 0 0 -18.01 3.6 0 0 -46.82 3.6 0 0 -21.61 3.6 0 0 -32.41 3.61 0 0 -18.01 3.6 0 0 -28.81 3.6 0 0 -21.6 3.6 0 0 -10.81 3.6 0 0 -25.21 3.6 0 0 -14.41 3.6 0 0 -14.4 3.61 0 0 -21.61 3.6 0 0 -14.41 3.6 0 0 -21.61 3.6 0 0 -18 3.6 0 0 -10.81 3.6 0 0 -14.4 3.61 0 0 -18.01 3.6 0 0 -10.81 3.6 0 0 -14.4 3.6 0 0 -7.2 3.6 0 0 -14.41 3.6 0 0 -10.81 3.61 0 0 -10.8 3.59 0 0 -10.81 3.61 0 0 -7.2 3.6 0 0 -10.8 3.6 0 0 -7.21 3.6 0 0 -7.2 3.6 0 0 -7.2 3.6 0 0 -7.21 3.61 0 0 -3.59 3.6 0 0 -7.21 3.6 0 0 -3.6 7.2 0 0 -3.6 14.41 0 0 3.6 3.6 0 0 7.2 3.6 0 0 7.2 3.6 0 0 7.21 3.6 0 0 18.01 3.61 0 0 129.65 -3.61 0 0 126.05zm-32.41 -320.53l-7.2 0 0 3.6 -7.21 0 0 3.6 -3.6 0 0 3.6 -3.6 0 0 7.21 -3.6 0 0 3.6 -3.6 0 0 3.6 -3.6 0 0 7.2 -3.61 0 0 7.2 -3.59 0 0 7.21 -3.61 0 0 7.2 -3.6 0 0 7.2 -3.6 0 0 10.81 -3.6 0 0 7.2 -3.6 0 0 14.41 -3.6 0 0 10.8 -3.61 0 0 10.81 -3.6 0 0 7.2 -3.6 0 0 18.01 -3.6 0 0 10.8 -3.6 0 0 14.41 -3.6 0 0 7.2 -3.61 0 0 14.41 -3.6 0 0 14.4 -3.6 0 0 14.41 -3.6 0 0 21.61 -3.6 0 0 10.8 -3.6 0 0 25.21 -3.6 0 0 10.81 -3.61 0 0 21.61 -3.6 0 0 18 -3.6 0 0 21.61 -3.6 0 0 28.81 -3.6 0 0 14.41 -3.6 0 0 25.21 -3.61 0 0 25.21 -3.6 0 0 32.41 -3.6 0 0 18.01 -3.6 0 0 32.42 -3.6 0 0 36.01 -3.6 0 0 32.41 -3.61 0 0 43.22 -3.59 0 0 28.81 -3.61 0 0 46.82 -3.6 0 0 46.82 -3.6 0 0 147.66 -3.6 0 0 100.84 -3.6 0 0 90.04 -3.6 0 0 32.41 -3.61 0 0 46.82 -3.6 0 0 32.41 -3.6 0 0 46.83 -3.6 0 0 14.4 -3.6 0 0 18.01 -3.6 0 0 18.01 -3.61 0 0 7.2 -3.6 0 0 10.8 -3.6 0 0 10.81 -3.6 0 0 10.8 -3.6 0 0 10.81 -3.6 0 0 10.8 -3.6 0 0 7.21 -3.61 0 0 10.8 -3.59 0 0 14.4 -3.61 0 0 7.21 -3.6 0 0 14.4 -3.6 0 0 7.21 -3.6 0 0 14.4 -3.61 0 0 14.41 -3.59 0 0 18 -3.61 0 0 25.22 -3.6 0 0 82.83 3.6 0 0 10.8 3.61 0 0 14.41 3.59 0 0 10.8 3.61 0 0 7.21 3.6 0 0 7.2 3.6 0 0 7.2 3.6 0 0 3.6 3.61 0 0 7.21 3.59 0 0 3.6 3.61 0 0 3.6 3.6 0 0 3.6 3.6 0 0 3.6 3.6 0 0 3.6 3.6 0 0 3.61 3.6 0 0 3.6 3.6 0 0 3.6 7.21 0 0 3.6 3.6 0 0 3.6 7.2 0 0 3.6 7.21 0 0 3.61 3.6 0 0 3.6 7.2 0 0 3.6 3.6 0 0 3.6 7.21 0 0 3.6 7.2 0 0 3.6 3.6 0 0 3.61 7.2 0 0 3.59 7.2 0 0 3.61 7.21 0 0 3.6 3.6 0 0 3.6 3.6 0 0 3.6 7.2 0 0 3.6 7.21 0 0 3.6 3.6 0 0 3.61 3.6 0 0 3.6 7.2 0 0 3.6 3.6 0 0 3.6 7.21 0 0 3.6 7.2 0 0 3.6 3.6 0 0 3.6 7.21 0 0 3.61 7.2 0 0 3.6 7.2 0 0 3.6 7.21 0 0 3.6 14.4 0 0 3.6 28.81 0 0 -3.6 14.41 0 0 -3.6 7.2 0 0 -3.6 7.2 0 0 -3.6 7.2 0 0 -3.61 7.21 0 0 -3.6 3.6 0 0 -3.6 7.21 0 0 -3.6 3.59 0 0 -3.6 3.61 0 0 -3.6 7.2 0 0 -3.6 3.6 0 0 -3.61 7.2 0 0 -3.6 3.61 0 0 -3.6 3.6 0 0 -3.6 7.2 0 0 -3.6 3.6 0 0 -3.6 7.2 0 0 -3.61 3.61 0 0 -3.59 7.2 0 0 -3.61 3.6 0 0 -3.6 7.2 0 0 -3.6 3.61 0 0 -3.6 7.2 0 0 -3.6 7.2 0 0 -3.6 3.6 0 0 -3.61 7.2 0 0 -3.6 3.61 0 0 -3.6 7.2 0 0 -3.6 3.6 0 0 -3.6 3.6 0 0 -3.6 7.21 0 0 -3.61 3.6 0 0 -3.6 3.6 0 0 -3.6 3.6 0 0 -3.6 3.6 0 0 -3.6 3.6 0 0 -3.6 3.6 0 0 -3.6 3.61 0 0 -3.61 3.6 0 0 -3.6 3.6 0 0 -7.2 3.6 0 0 -7.2 3.6 0 0 -10.81 3.6 0 0 -7.2 3.61 0 0 -14.41 3.6 0 0 -18 3.6 0 0 -64.83 -3.6 0 0 -18.01 -3.6 0 0 -18.01 -3.61 0 0 -14.4 -3.6 0 0 -14.41 -3.6 0 0 -10.8 -3.6 0 0 -10.81 -3.6 0 0 -14.4 -3.6 0 0 -7.2 -3.61 0 0 -10.81 -3.6 0 0 -7.2 -3.6 0 0 -10.8 -3.6 0 0 -10.81 -3.6 0 0 -10.8 -3.6 0 0 -10.81 -3.6 0 0 -7.2 -3.61 0 0 -18.01 -3.6 0 0 -7.2 -3.6 0 0 -32.42 -3.6 0 0 -39.61 -3.6 0 0 -54.03 -3.6 0 0 -39.61 -3.61 0 0 -57.63 -3.59 0 0 -64.82 -3.61 0 0 -61.23 -3.6 0 0 -28.81 -3.6 0 0 -39.62 -3.6 0 0 -36.01 -3.61 0 0 -32.41 -3.59 0 0 -32.42 -3.61 0 0 -28.81 -3.6 0 0 -21.61 -3.6 0 0 -18.01 -3.6 0 0 -18 -3.6 0 0 -14.41 -3.6 0 0 -28.81 -3.61 0 0 -14.41 -3.6 0 0 -21.6 -3.6 0 0 -28.82 -3.6 0 0 -21.6 -3.6 0 0 -7.21 -3.6 0 0 -28.81 -3.6 0 0 -10.8 -3.61 0 0 -25.21 -3.6 0 0 -21.61 -3.6 0 0 -21.61 -3.6 0 0 -25.21 -3.6 0 0 -18.01 -3.6 0 0 -32.41 -3.61 0 0 -39.62 -3.59 0 0 -288.12 -3.61 0 0 -10.8 -3.6 0 0 -10.81 -3.6 0 0 -7.2 -3.6 0 0 -7.2 -3.61 0 0 -7.21 -3.59 0 0 -3.6 -3.61 0 0 -3.6 -3.6 0 0 -3.6 -7.2 0 0 -3.6 -21.61 0 0 3.6z"/>
 </g>
</svg>
