<?xml version="1.0" encoding="UTF-8"?>
<!DOCTYPE svg PUBLIC "-//W3C//DTD SVG 1.1//EN" "http://www.w3.org/Graphics/SVG/1.1/DTD/svg11.dtd">
<!-- Creator: CorelDRAW (Versión de evaluación) -->
<svg xmlns="http://www.w3.org/2000/svg" xml:space="preserve" width="561px" height="2062px" version="1.1" style="shape-rendering:geometricPrecision; text-rendering:geometricPrecision; image-rendering:optimizeQuality; fill-rule:evenodd; clip-rule:evenodd"
viewBox="0 0 561 2060.59"
 xmlns:xlink="http://www.w3.org/1999/xlink"
 xmlns:xodm="http://www.corel.com/coreldraw/odm/2003">
 <defs>
  <style type="text/css">
   <![CDATA[
    .fil0 {fill:#E6E7E8}
    .fil1 {fill:#D2D3D5;fill-rule:nonzero}
   ]]>
  </style>
 </defs>
 <g id="unerupted">
  <metadata id="CorelCorpID_0Corel-Layer"/>
  <g>
   <path id="outline" class="fil0" d="M21.32 1751.14l3.59 0 0 -32.37 3.6 0 0 -32.36 3.59 0 0 -21.58 3.6 0 0 -25.17 3.6 0 0 -21.58 3.59 0 0 -10.79 3.6 0 0 -21.57 3.6 0 0 -21.58 3.59 0 0 -14.38 3.6 0 0 -14.39 3.6 0 0 -14.39 3.59 0 0 -14.38 3.6 0 0 -14.38 3.6 0 0 -10.79 3.59 0 0 -17.98 3.6 0 0 -7.2 3.59 0 0 -14.38 3.6 0 0 -14.39 3.59 0 0 -14.38 3.6 0 0 -7.19 3.6 0 0 -14.39 3.59 0 0 -10.79 3.6 0 0 -10.78 3.59 0 0 -7.2 3.6 0 0 -7.19 3.6 0 0 -7.19 3.59 0 0 -7.19 3.6 0 0 -7.19 3.6 0 0 -7.2 3.59 0 0 -7.19 3.6 0 0 -3.6 3.6 0 0 -7.19 3.59 0 0 -3.6 3.6 0 0 -7.19 3.59 0 0 -3.59 3.6 0 0 -7.19 3.6 0 0 -3.6 3.59 0 0 -3.6 3.6 0 0 -3.59 3.59 0 0 -7.19 3.6 0 0 -3.6 3.6 0 0 -3.6 3.59 0 0 -3.59 3.6 0 0 -3.6 3.59 0 0 -3.6 7.2 0 0 -3.59 3.59 0 0 -3.6 7.2 0 0 -3.6 3.59 0 0 -3.59 7.2 0 0 -3.6 7.19 0 0 -3.59 10.79 0 0 -3.6 10.78 0 0 -3.59 68.33 0 0 3.59 14.38 0 0 3.6 7.2 0 0 3.59 10.79 0 0 3.6 7.19 0 0 3.59 7.19 0 0 3.6 3.6 0 0 3.6 7.19 0 0 3.59 3.59 0 0 3.6 3.6 0 0 3.6 7.19 0 0 3.59 3.6 0 0 3.6 3.59 0 0 7.19 3.6 0 0 3.6 3.6 0 0 3.59 3.59 0 0 3.6 3.6 0 0 3.6 3.6 0 0 3.59 3.59 0 0 3.6 3.6 0 0 7.19 3.6 0 0 3.59 3.59 0 0 7.2 3.6 0 0 3.59 3.59 0 0 7.2 3.6 0 0 3.59 3.6 0 0 7.2 3.59 0 0 7.19 3.6 0 0 7.19 3.59 0 0 7.19 3.6 0 0 7.19 3.6 0 0 7.2 3.59 0 0 7.19 3.6 0 0 10.79 3.59 0 0 7.19 3.6 0 0 10.79 3.6 0 0 10.79 3.59 0 0 10.78 3.6 0 0 10.79 3.6 0 0 10.79 3.59 0 0 10.79 3.6 0 0 10.79 3.6 0 0 10.79 3.59 0 0 17.98 3.6 0 0 14.38 3.59 0 0 10.79 3.6 0 0 17.98 3.6 0 0 10.79 3.59 0 0 28.77 3.6 0 0 14.38 3.59 0 0 21.58 3.6 0 0 17.98 3.6 0 0 32.37 3.59 0 0 35.96 3.6 0 0 61.14 3.59 0 0 151.03 -3.59 0 0 32.37 -3.6 0 0 10.78 -3.59 0 0 7.2 -3.6 0 0 7.19 -3.6 0 0 3.6 -3.59 0 0 3.59 -7.19 0 0 3.6 -7.2 0 0 3.6 -7.19 0 0 3.59 -35.96 0 0 3.6 -32.37 0 0 3.59 -68.32 0 0 3.6 -122.27 0 0 -3.6 -50.35 0 0 -3.59 -35.96 0 0 -3.6 -25.17 0 0 -3.59 -17.99 0 0 -3.6 -14.38 0 0 -3.6 -10.79 0 0 -3.59 -10.78 0 0 -3.6 -3.6 0 0 -3.6 -7.19 0 0 -3.59 -3.6 0 0 -3.6 -3.6 0 0 -3.6 -3.59 0 0 -3.59 -3.6 0 0 -3.6 -3.6 0 0 -7.19 -3.59 0 0 -7.19 -3.6 0 0 -14.38 -3.6 0 0 -14.39 -3.59 0 0 -35.96 -3.6 0 0 -43.15 -3.59 0 0 -79.12zm230.15 -546.61l-17.98 0 0 3.59 -14.38 0 0 3.6 -10.79 0 0 3.59 -7.19 0 0 3.6 -7.2 0 0 3.6 -7.19 0 0 3.59 -3.6 0 0 3.6 -3.59 0 0 3.59 -7.19 0 0 3.6 -3.6 0 0 3.59 -3.6 0 0 3.6 -3.59 0 0 3.6 -3.6 0 0 3.59 -3.59 0 0 3.6 -3.6 0 0 3.6 -3.6 0 0 3.59 -3.59 0 0 3.6 -3.6 0 0 7.19 -3.59 0 0 3.6 -3.6 0 0 3.59 -3.6 0 0 3.6 -3.59 0 0 7.19 -3.6 0 0 7.19 -3.6 0 0 3.6 -3.59 0 0 7.19 -3.6 0 0 3.6 -3.6 0 0 7.19 -3.59 0 0 7.19 -3.6 0 0 7.2 -3.59 0 0 -21.58 3.59 0 0 -35.96 3.6 0 0 -32.37 3.59 0 0 -39.55 3.6 0 0 -28.78 3.6 0 0 -57.53 3.59 0 0 -35.97 3.6 0 0 -61.13 3.6 0 0 -53.94 3.59 0 0 -35.96 3.6 0 0 -68.33 3.6 0 0 -35.96 3.59 0 0 -21.58 3.6 0 0 -32.36 3.59 0 0 -28.77 3.6 0 0 -14.39 3.6 0 0 -25.17 3.59 0 0 -17.98 3.6 0 0 -25.18 3.59 0 0 -14.38 3.6 0 0 -17.98 3.6 0 0 -17.98 3.59 0 0 -17.98 3.6 0 0 -25.17 3.59 0 0 -14.39 3.6 0 0 -10.79 3.6 0 0 -28.77 3.59 0 0 -14.38 3.6 0 0 -17.98 3.6 0 0 -25.18 3.59 0 0 -21.57 3.6 0 0 -50.35 3.6 0 0 -28.77 3.59 0 0 -50.35 3.6 0 0 -35.95 3.59 0 0 -39.57 3.6 0 0 -28.76 3.6 0 0 -14.39 3.59 0 0 -17.98 3.6 0 0 -14.38 3.59 0 0 -10.79 3.6 0 0 -10.79 3.59 0 0 -7.19 3.6 0 0 -7.19 3.6 0 0 -3.6 3.59 0 0 -3.6 3.6 0 0 -3.59 14.39 0 0 3.59 7.19 0 0 3.6 3.6 0 0 3.6 3.59 0 0 7.19 3.6 0 0 7.19 3.59 0 0 3.6 3.6 0 0 7.19 3.59 0 0 10.79 3.6 0 0 7.19 3.6 0 0 10.79 3.59 0 0 10.79 3.6 0 0 7.19 3.59 0 0 10.79 3.6 0 0 10.79 3.6 0 0 14.38 3.59 0 0 10.79 3.6 0 0 10.79 3.6 0 0 10.79 3.59 0 0 14.38 3.6 0 0 10.79 3.6 0 0 17.98 3.59 0 0 10.79 3.6 0 0 17.98 3.59 0 0 14.39 3.6 0 0 10.78 3.59 0 0 21.58 3.6 0 0 10.79 3.6 0 0 21.58 3.59 0 0 25.17 3.6 0 0 14.38 3.59 0 0 28.77 3.6 0 0 28.77 3.6 0 0 14.38 3.59 0 0 28.78 3.6 0 0 28.76 3.6 0 0 32.37 3.59 0 0 32.37 3.6 0 0 35.96 3.6 0 0 35.96 3.59 0 0 43.15 3.6 0 0 21.58 3.59 0 0 50.35 3.6 0 0 35.95 3.6 0 0 50.35 3.59 0 0 39.56 3.6 0 0 39.56 3.59 0 0 64.73 3.6 0 0 35.96 3.6 0 0 53.94 3.59 0 0 43.16 3.6 0 0 39.55 3.59 0 0 32.37 3.6 0 0 39.55 3.6 0 0 35.97 3.59 0 0 14.38 -3.59 0 0 -3.59 -3.6 0 0 -7.19 -3.6 0 0 -7.2 -3.59 0 0 -7.19 -3.6 0 0 -7.19 -3.59 0 0 -7.2 -3.6 0 0 -3.59 -3.6 0 0 -7.2 -3.59 0 0 -3.59 -3.6 0 0 -7.19 -3.59 0 0 -3.6 -3.6 0 0 -3.59 -3.6 0 0 -7.2 -3.59 0 0 -3.59 -3.6 0 0 -3.6 -3.59 0 0 -3.59 -3.6 0 0 -3.6 -3.6 0 0 -3.6 -3.59 0 0 -7.19 -7.2 0 0 -3.6 -3.59 0 0 -3.59 -3.6 0 0 -3.6 -3.6 0 0 -3.6 -3.59 0 0 -3.59 -3.6 0 0 -3.6 -3.59 0 0 -3.59 -7.2 0 0 -3.6 -3.59 0 0 -3.59 -7.19 0 0 -3.6 -7.19 0 0 -3.6 -10.79 0 0 -3.59 -10.79 0 0 -3.6 -10.79 0 0 -3.59 -14.39 0 0 -3.6 -53.94 0 0 3.6zm7.19 -1114.81l-7.19 0 0 3.59 -7.19 0 0 3.6 -3.6 0 0 3.59 -3.59 0 0 3.6 -3.6 0 0 7.19 -3.59 0 0 3.6 -3.6 0 0 10.79 -3.6 0 0 7.19 -3.59 0 0 10.79 -3.6 0 0 17.98 -3.59 0 0 10.79 -3.6 0 0 21.58 -3.6 0 0 35.95 -3.59 0 0 28.78 -3.6 0 0 25.17 -3.6 0 0 61.14 -3.59 0 0 50.34 -3.6 0 0 17.98 -3.6 0 0 32.36 -3.59 0 0 17.99 -3.6 0 0 17.98 -3.59 0 0 28.77 -3.6 0 0 10.78 -3.6 0 0 25.18 -3.59 0 0 21.58 -3.6 0 0 10.78 -3.59 0 0 25.18 -3.6 0 0 17.98 -3.6 0 0 21.58 -3.59 0 0 17.97 -3.6 0 0 14.39 -3.59 0 0 17.98 -3.6 0 0 21.58 -3.6 0 0 32.36 -3.59 0 0 21.58 -3.6 0 0 17.98 -3.6 0 0 35.96 -3.59 0 0 32.37 -3.6 0 0 53.94 -3.6 0 0 32.36 -3.59 0 0 61.14 -3.6 0 0 43.15 -3.59 0 0 68.33 -3.6 0 0 46.75 -3.6 0 0 57.54 -3.59 0 0 17.98 -3.6 0 0 35.96 -3.59 0 0 39.56 -3.6 0 0 28.77 -3.59 0 0 25.17 -3.6 0 0 46.75 -3.6 0 0 17.98 -3.59 0 0 10.79 -3.6 0 0 17.98 -3.6 0 0 7.19 -3.59 0 0 21.58 -3.6 0 0 14.39 -3.6 0 0 14.38 -3.59 0 0 14.38 -3.6 0 0 14.39 -3.6 0 0 17.98 -3.59 0 0 10.79 -3.6 0 0 21.57 -3.59 0 0 17.99 -3.6 0 0 25.17 -3.59 0 0 17.98 -3.6 0 0 21.58 -3.6 0 0 25.17 -3.59 0 0 21.57 -3.6 0 0 133.06 3.6 0 0 32.37 3.59 0 0 25.17 3.6 0 0 14.39 3.6 0 0 10.78 3.59 0 0 7.2 3.6 0 0 10.78 3.59 0 0 7.2 3.6 0 0 3.59 3.59 0 0 3.6 3.6 0 0 3.6 3.6 0 0 3.59 3.59 0 0 3.6 7.2 0 0 3.6 3.59 0 0 3.59 7.2 0 0 3.6 7.19 0 0 3.59 7.19 0 0 3.6 10.79 0 0 3.59 14.38 0 0 3.6 17.98 0 0 3.6 17.99 0 0 3.59 32.36 0 0 3.6 64.73 0 0 3.59 161.83 0 0 -3.59 43.15 0 0 -3.6 43.16 0 0 -3.59 14.38 0 0 -3.6 14.39 0 0 -3.6 7.19 0 0 -3.59 7.19 0 0 -3.6 3.6 0 0 -3.59 3.59 0 0 -3.6 3.6 0 0 -3.59 3.59 0 0 -3.6 3.6 0 0 -3.6 3.6 0 0 -7.19 3.59 0 0 -7.19 3.6 0 0 -14.39 3.6 0 0 -14.38 3.59 0 0 -197.79 -3.59 0 0 -46.75 -3.6 0 0 -43.15 -3.6 0 0 -14.39 -3.59 0 0 -28.77 -3.6 0 0 -21.57 -3.6 0 0 -21.58 -3.59 0 0 -14.38 -3.6 0 0 -17.99 -3.59 0 0 -10.79 -3.6 0 0 -14.38 -3.6 0 0 -14.38 -3.59 0 0 -14.39 -3.6 0 0 -7.19 -3.59 0 0 -14.39 -3.6 0 0 -14.38 -3.6 0 0 -14.39 -3.59 0 0 -35.96 -3.6 0 0 -35.96 -3.59 0 0 -50.35 -3.6 0 0 -35.95 -3.6 0 0 -43.16 -3.59 0 0 -43.15 -3.6 0 0 -64.73 -3.6 0 0 -28.77 -3.59 0 0 -50.35 -3.6 0 0 -39.56 -3.6 0 0 -61.13 -3.59 0 0 -28.77 -3.6 0 0 -57.54 -3.59 0 0 -35.96 -3.6 0 0 -39.56 -3.6 0 0 -43.15 -3.59 0 0 -25.17 -3.6 0 0 -35.97 -3.59 0 0 -43.15 -3.6 0 0 -39.56 -3.6 0 0 -25.17 -3.59 0 0 -21.58 -3.6 0 0 -28.77 -3.59 0 0 -28.76 -3.6 0 0 -21.58 -3.6 0 0 -21.58 -3.59 0 0 -17.98 -3.6 0 0 -17.98 -3.6 0 0 -14.39 -3.59 0 0 -21.57 -3.6 0 0 -21.58 -3.6 0 0 -14.38 -3.59 0 0 -14.39 -3.6 0 0 -14.39 -3.59 0 0 -14.38 -3.6 0 0 -14.38 -3.6 0 0 -7.19 -3.59 0 0 -14.39 -3.6 0 0 -10.79 -3.59 0 0 -14.39 -3.6 0 0 -10.78 -3.59 0 0 -14.39 -3.6 0 0 -10.78 -3.6 0 0 -10.79 -3.59 0 0 -7.2 -3.6 0 0 -10.79 -3.6 0 0 -10.78 -3.59 0 0 -7.19 -3.6 0 0 -7.2 -3.6 0 0 -7.19 -3.59 0 0 -7.19 -3.6 0 0 -7.19 -3.59 0 0 -7.2 -3.6 0 0 -3.59 -3.6 0 0 -3.6 -3.59 0 0 -3.6 -3.6 0 0 -3.59 -3.59 0 0 -3.6 -3.6 0 0 -3.59 -7.19 0 0 -3.6 -25.18 0 0 3.6z"/>
   <path id="_1" class="fil1" d="M24.91 1756.14l-3.59 0 0 -10 3.59 0 0 10zm0 -5l5 0 -5 5 0 -5zm5 0l0 5 -5 0 5 -5zm0 -32.37l0 32.37 -9.99 0 0 -32.37 9.99 0zm-5 0l-4.99 0 4.99 -4.99 0 4.99zm-4.99 0l0 -4.99 4.99 0 -4.99 4.99zm8.59 5l-3.6 0 0 -9.99 3.6 0 0 9.99zm0 -5l5 0 -5 5 0 -5zm5 0l0 5 -5 0 5 -5zm-10 -10.39l10 0 0 10.39 -10 0 0 -10.39zm12.19 -38.55l-0.77 0 0 -9.99 0.77 0 0 9.99zm0 -5l5 0 -5 5 0 -5zm5 0l0 5 -5 0 5 -5zm0 -25.17l0 25.17 -9.99 0 0 -25.17 9.99 0zm-5 0l-4.99 0 4.99 -5 0 5zm-4.99 0l0 -5 4.99 0 -4.99 5zm8.59 4.99l-3.6 0 0 -9.99 3.6 0 0 9.99zm0 -4.99l5 0 -5 4.99 0 -4.99zm5 0l0 4.99 -5 0 5 -4.99zm0 -21.58l0 21.58 -10 0 0 -21.58 10 0zm-5 0l-5 0 5 -5 0 5zm-5 0l0 -5 5 0 -5 5zm8.59 5l-3.59 0 0 -10 3.59 0 0 10zm0 -5l5 0 -5 5 0 -5zm5 0l0 5 -5 0 5 -5zm0 -10.79l0 10.79 -9.99 0 0 -10.79 9.99 0zm-5 0l-4.99 0 4.99 -4.99 0 4.99zm-4.99 0l0 -4.99 4.99 0 -4.99 4.99zm8.59 5l-3.6 0 0 -9.99 3.6 0 0 9.99zm0 -5l5 0 -5 5 0 -5zm5 0l0 5 -5 0 5 -5zm0 -21.57l0 21.57 -10 0 0 -21.57 10 0zm-5 0l-5 0 5 -5 0 5zm-5 0l0 -5 5 0 -5 5zm8.6 4.99l-3.6 0 0 -9.99 3.6 0 0 9.99zm0 -4.99l5 0 -5 4.99 0 -4.99zm5 0l0 4.99 -5 0 5 -4.99zm-10 -5.64l10 0 0 5.64 -10 0 0 -5.64zm17.19 -44.71l0 1.94 -10 0 0 -1.94 10 0zm-5 0l-5 0 5 -5 0 5zm-5 0l0 -5 5 0 -5 5zm8.6 5l-3.6 0 0 -10 3.6 0 0 10zm0 -5l4.99 0 -4.99 5 0 -5zm4.99 0l0 5 -4.99 0 4.99 -5zm0 -14.39l0 14.39 -9.99 0 0 -14.39 9.99 0zm-4.99 0l-5 0 5 -4.99 0 4.99zm-5 0l0 -4.99 5 0 -5 4.99zm8.59 5l-3.59 0 0 -9.99 3.59 0 0 9.99zm0 -5l5 0 -5 5 0 -5zm5 0l0 5 -5 0 5 -5zm0 -14.38l0 14.38 -10 0 0 -14.38 10 0zm-5 0l-5 0 5 -4.99 0 4.99zm-5 0l0 -4.99 5 0 -5 4.99zm8.6 5l-3.6 0 0 -9.99 3.6 0 0 9.99zm0 -5l4.99 0 -4.99 5 0 -5zm4.99 0l0 5 -4.99 0 4.99 -5zm-9.99 -8.46l9.99 0 0 8.46 -9.99 0 0 -8.46zm20.78 -41.89l0 2.72 -9.99 0 0 -2.72 9.99 0zm-4.99 0l-5 0 5 -4.99 0 4.99zm-5 0l0 -4.99 5 0 -5 4.99zm8.59 5l-3.59 0 0 -9.99 3.59 0 0 9.99zm0 -5l5 0 -5 5 0 -5zm5 0l0 5 -5 0 5 -5zm0 -14.38l0 14.38 -9.99 0 0 -14.38 9.99 0zm-5 0l-4.99 0 4.99 -5 0 5zm-4.99 0l0 -5 4.99 0 -4.99 5zm8.59 5l-3.6 0 0 -10 3.6 0 0 10zm0 -5l4.99 0 -4.99 5 0 -5zm4.99 0l0 5 -4.99 0 4.99 -5zm0 -14.39l0 14.39 -9.99 0 0 -14.39 9.99 0zm-4.99 0l-5 0 5 -4.99 0 4.99zm-5 0l0 -4.99 5 0 -5 4.99zm8.59 5l-3.59 0 0 -9.99 3.59 0 0 9.99zm0 -5l5 0 -5 5 0 -5zm5 0l0 5 -5 0 5 -5zm0 -14.38l0 14.38 -9.99 0 0 -14.38 9.99 0zm-5 0l-4.99 0 4.99 -5 0 5zm-4.99 0l0 -5 4.99 0 -4.99 5zm8.59 5l-3.6 0 0 -10 3.6 0 0 10zm0 -5l5 0 -5 5 0 -5zm5 0l0 5 -5 0 5 -5zm0 -7.19l0 7.19 -9.99 0 0 -7.19 9.99 0zm-5 0l-4.99 0 4.99 -5 0 5zm-4.99 0l0 -5 4.99 0 -4.99 5zm8.59 4.99l-3.6 0 0 -9.99 3.6 0 0 9.99zm0 -4.99l4.99 0 -4.99 4.99 0 -4.99zm4.99 0l0 4.99 -4.99 0 4.99 -4.99zm0 -14.39l0 14.39 -9.99 0 0 -14.39 9.99 0zm-4.99 0l-5 0 5 -4.99 0 4.99zm-5 0l0 -4.99 5 0 -5 4.99zm8.59 5l-3.59 0 0 -9.99 3.59 0 0 9.99zm0 -5l5 0 -5 5 0 -5zm5 0l0 5 -5 0 5 -5zm0 -10.79l0 10.79 -9.99 0 0 -10.79 9.99 0zm-5 0l-4.99 0 4.99 -4.99 0 4.99zm-4.99 0l0 -4.99 4.99 0 -4.99 4.99zm5.1 -4.99l-0.05 9.99 -0.06 -9.99 0.11 0zm17.87 -22.37l-0.27 0 0 -10 0.27 0 0 10zm0 -5l5 0 -5 5 0 -5zm5 0l0 5 -5 0 5 -5zm0 -7.19l0 7.19 -9.99 0 0 -7.19 9.99 0zm-5 0l-4.99 0 4.99 -5 0 5zm-4.99 0l0 -5 4.99 0 -4.99 5zm8.59 4.99l-3.6 0 0 -9.99 3.6 0 0 9.99zm0 -4.99l5 0 -5 4.99 0 -4.99zm5 0l0 4.99 -5 0 5 -4.99zm0 -7.19l0 7.19 -10 0 0 -7.19 10 0zm-5 0l-5 0 5 -5 0 5zm-5 0l0 -5 5 0 -5 5zm8.6 4.99l-3.6 0 0 -9.99 3.6 0 0 9.99zm0 -4.99l4.99 0 -4.99 4.99 0 -4.99zm4.99 0l0 4.99 -4.99 0 4.99 -4.99zm0 -7.2l0 7.2 -9.99 0 0 -7.2 9.99 0zm-4.99 0l-5 0 5 -4.99 0 4.99zm-5 0l0 -4.99 5 0 -5 4.99zm8.59 5l-3.59 0 0 -9.99 3.59 0 0 9.99zm0 -5l5 0 -5 5 0 -5zm5 0l0 5 -5 0 5 -5zm0 -7.19l0 7.19 -10 0 0 -7.19 10 0zm-5 0l-5 0 5 -5 0 5zm-5 0l0 -5 5 0 -5 5zm8.6 5l-3.6 0 0 -10 3.6 0 0 10zm0 -5l4.99 0 -4.99 5 0 -5zm4.99 0l0 5 -4.99 0 4.99 -5zm0 -3.6l0 3.6 -9.99 0 0 -3.6 9.99 0zm-4.99 0l-5 0 5 -4.99 0 4.99zm-5 0l0 -4.99 5 0 -5 4.99zm7.93 -4.99l0 9.99 -2.93 0 0 -9.99 2.93 0zm23.64 -27.37l0 1.05 -9.99 0 0 -1.05 9.99 0zm-4.99 0l-5 0 5 -5 0 5zm-5 0l0 -5 5 0 -5 5zm8.59 4.99l-3.59 0 0 -9.99 3.59 0 0 9.99zm0 -4.99l5 0 -5 4.99 0 -4.99zm5 0l0 4.99 -5 0 5 -4.99zm0 -3.6l0 3.6 -9.99 0 0 -3.6 9.99 0zm-5 0l-4.99 0 4.99 -4.99 0 4.99zm-4.99 0l0 -4.99 4.99 0 -4.99 4.99zm8.59 5l-3.6 0 0 -9.99 3.6 0 0 9.99zm0 -5l4.99 0 -4.99 5 0 -5zm4.99 0l0 5 -4.99 0 4.99 -5zm0 -3.59l0 3.59 -9.99 0 0 -3.59 9.99 0zm-4.99 0l-5 0 5 -5 0 5zm-5 0l0 -5 5 0 -5 5zm8.59 4.99l-3.59 0 0 -9.99 3.59 0 0 9.99zm0 -4.99l5 0 -5 4.99 0 -4.99zm5 0l0 4.99 -5 0 5 -4.99zm0 -7.19l0 7.19 -9.99 0 0 -7.19 9.99 0zm-5 0l-4.99 0 4.99 -5 0 5zm-4.99 0l0 -5 4.99 0 -4.99 5zm8.59 4.99l-3.6 0 0 -9.99 3.6 0 0 9.99zm0 -4.99l5 0 -5 4.99 0 -4.99zm5 0l0 4.99 -5 0 5 -4.99zm0 -3.6l0 3.6 -9.99 0 0 -3.6 9.99 0zm-5 0l-4.99 0 4.99 -5 0 5zm-4.99 0l0 -5 4.99 0 -4.99 5zm8.59 5l-3.6 0 0 -10 3.6 0 0 10zm0 -5l4.99 0 -4.99 5 0 -5zm4.99 0l0 5 -4.99 0 4.99 -5zm0 -3.6l0 3.6 -9.99 0 0 -3.6 9.99 0zm-4.99 0l-5 0 5 -5 0 5zm-5 0l0 -5 5 0 -5 5zm8.59 5l-3.59 0 0 -10 3.59 0 0 10zm0 -5l5 0 -5 5 0 -5zm5 0l0 5 -5 0 5 -5zm0 -3.59l0 3.59 -9.99 0 0 -3.59 9.99 0zm-5 0l-4.99 0 4.99 -5 0 5zm-4.99 0l0 -5 4.99 0 -4.99 5zm8.59 4.99l-3.6 0 0 -9.99 3.6 0 0 9.99zm0 -4.99l5 0 -5 4.99 0 -4.99zm5 0l0 4.99 -5 0 5 -4.99zm0 -3.6l0 3.6 -10 0 0 -3.6 10 0zm-5 0l-5 0 5 -5 0 5zm-5 0l0 -5 5 0 -5 5zm8.59 5l-3.59 0 0 -10 3.59 0 0 10zm0 -5l5 0 -5 5 0 -5zm5 0l0 5 -5 0 5 -5zm0 -3.6l0 3.6 -9.99 0 0 -3.6 9.99 0zm-5 0l-4.99 0 4.99 -4.99 0 4.99zm-4.99 0l0 -4.99 4.99 0 -4.99 4.99zm12.19 5l-7.2 0 0 -9.99 7.2 0 0 9.99zm0 -5l5 0 -5 5 0 -5zm5 0l0 5 -5 0 5 -5zm0 -3.59l0 3.59 -10 0 0 -3.59 10 0zm-5 0l-5 0 5 -5 0 5zm-5 0l0 -5 5 0 -5 5zm8.59 5l-3.59 0 0 -10 3.59 0 0 10zm0 -5l5 0 -5 5 0 -5zm5 0l0 5 -5 0 5 -5zm0 -3.6l0 3.6 -9.99 0 0 -3.6 9.99 0zm-5 0l-4.99 0 4.99 -4.99 0 4.99zm-4.99 0l0 -4.99 4.99 0 -4.99 4.99zm12.19 5l-7.2 0 0 -9.99 7.2 0 0 9.99zm0 -5l4.99 0 -4.99 5 0 -5zm4.99 0l0 5 -4.99 0 4.99 -5zm0 -3.6l0 3.6 -9.99 0 0 -3.6 9.99 0zm-4.99 0l-5 0 5 -4.99 0 4.99zm-5 0l0 -4.99 5 0 -5 4.99zm8.59 5l-3.59 0 0 -9.99 3.59 0 0 9.99zm0 -5l5 0 -5 5 0 -5zm5 0l0 5 -5 0 5 -5zm0 -3.59l0 3.59 -10 0 0 -3.59 10 0zm-5 0l-5 0 5 -5 0 5zm-5 0l0 -5 5 0 -5 5zm6.78 -5l0 10 -1.78 0 0 -10 1.78 0zm85.53 -14.38l0 9.99 -49.96 0 0 -9.99 49.96 0zm49.35 20.78l-10.18 0 0 -9.99 10.18 0 0 9.99zm0 -5l0 -4.99 4.99 4.99 -4.99 0zm0 -4.99l4.99 0 0 4.99 -4.99 -4.99zm-5 8.59l0 -3.6 9.99 0 0 3.6 -9.99 0zm5 0l0 5 -5 -5 5 0zm0 5l-5 0 0 -5 5 5zm7.19 0l-7.19 0 0 -10 7.19 0 0 10zm0 -5l0 -5 4.99 5 -4.99 0zm0 -5l4.99 0 0 5 -4.99 -5zm-5 8.59l0 -3.59 9.99 0 0 3.59 -9.99 0zm5 0l0 5 -5 -5 5 0zm0 5l-5 0 0 -5 5 5zm7.19 0l-7.19 0 0 -9.99 7.19 0 0 9.99zm0 -5l0 -4.99 5 4.99 -5 0zm0 -4.99l5 0 0 4.99 -5 -4.99zm-5 8.59l0 -3.6 10 0 0 3.6 -10 0zm5 0l0 5 -5 -5 5 0zm0 5l-5 0 0 -5 5 5zm3.6 0l-3.6 0 0 -9.99 3.6 0 0 9.99zm0 -5l0 -4.99 4.99 4.99 -4.99 0zm0 -4.99l4.99 0 0 4.99 -4.99 -4.99zm-5 8.59l0 -3.6 9.99 0 0 3.6 -9.99 0zm5 0l0 5 -5 -5 5 0zm0 5l-5 0 0 -5 5 5zm7.19 0l-7.19 0 0 -10 7.19 0 0 10zm0 -5l0 -5 4.99 5 -4.99 0zm0 -5l4.99 0 0 5 -4.99 -5zm-5 8.59l0 -3.59 9.99 0 0 3.59 -9.99 0zm5 0l0 5 -5 -5 5 0zm0 5l-5 0 0 -5 5 5zm3.59 0l-3.59 0 0 -9.99 3.59 0 0 9.99zm0 -5l0 -4.99 5 4.99 -5 0zm0 -4.99l5 0 0 4.99 -5 -4.99zm-4.99 8.59l0 -3.6 9.99 0 0 3.6 -9.99 0zm4.99 0l0 5 -4.99 -5 4.99 0zm0 5l-4.99 0 0 -5 4.99 5zm3.6 0l-3.6 0 0 -10 3.6 0 0 10zm0 -5l0 -5 5 5 -5 0zm0 -5l5 0 0 5 -5 -5zm-4.99 8.6l0 -3.6 9.99 0 0 3.6 -9.99 0zm4.99 0l0 4.99 -4.99 -4.99 4.99 0zm0 4.99l-4.99 0 0 -4.99 4.99 4.99zm7.19 0l-7.19 0 0 -9.99 7.19 0 0 9.99zm0 -4.99l0 -5 5 5 -5 0zm0 -5l5 0 0 5 -5 -5zm-4.99 8.59l0 -3.59 9.99 0 0 3.59 -9.99 0zm4.99 0l0 5 -4.99 -5 4.99 0zm0 5l-4.99 0 0 -5 4.99 5zm3.6 0l-3.6 0 0 -10 3.6 0 0 10zm0 -5l0 -5 5 5 -5 0zm0 -5l5 0 0 5 -5 -5zm-5 8.6l0 -3.6 10 0 0 3.6 -10 0zm5 0l0 5 -5 -5 5 0zm0 5l-5 0 0 -5 5 5zm3.59 0l-3.59 0 0 -10 3.59 0 0 10zm0 -5l0 -5 5 5 -5 0zm0 -5l5 0 0 5 -5 -5zm-4.99 12.19l0 -7.19 9.99 0 0 7.19 -9.99 0zm4.99 0l0 5 -4.99 -5 4.99 0zm0 5l-4.99 0 0 -5 4.99 5zm3.44 -10l0 10 -3.44 0 0 -10 3.44 0zm16.74 33.77l0 -0.55 10 0 0 0.55 -10 0zm5 0l0 5 -5 -5 5 0zm0 5l-5 0 0 -5 5 5zm3.6 0l-3.6 0 0 -10 3.6 0 0 10zm0 -5l0 -5 4.99 5 -4.99 0zm0 -5l4.99 0 0 5 -4.99 -5zm-5 8.59l0 -3.59 9.99 0 0 3.59 -9.99 0zm5 0l0 5 -5 -5 5 0zm0 5l-5 0 0 -5 5 5zm3.59 0l-3.59 0 0 -9.99 3.59 0 0 9.99zm0 -5l0 -4.99 5 4.99 -5 0zm0 -4.99l5 0 0 4.99 -5 -4.99zm-5 12.19l0 -7.2 10 0 0 7.2 -10 0zm5 0l0 5 -5 -5 5 0zm0 5l-5 0 0 -5 5 5zm3.6 0l-3.6 0 0 -10 3.6 0 0 10zm0 -5l0 -5 4.99 5 -4.99 0zm0 -5l4.99 0 0 5 -4.99 -5zm-5 8.59l0 -3.59 9.99 0 0 3.59 -9.99 0zm5 0l0 5 -5 -5 5 0zm0 5l-5 0 0 -5 5 5zm3.59 0l-3.59 0 0 -9.99 3.59 0 0 9.99zm0 -5l0 -4.99 5 4.99 -5 0zm0 -4.99l5 0 0 4.99 -5 -4.99zm-4.99 12.19l0 -7.2 9.99 0 0 7.2 -9.99 0zm4.99 0l0 5 -4.99 -5 4.99 0zm0 5l-4.99 0 0 -5 4.99 5zm3.6 0l-3.6 0 0 -10 3.6 0 0 10zm0 -5l0 -5 4.99 5 -4.99 0zm0 -5l4.99 0 0 5 -4.99 -5zm-5 8.59l0 -3.59 9.99 0 0 3.59 -9.99 0zm5 0l0 5 -5 -5 5 0zm0 5l-5 0 0 -5 5 5zm3.6 0l-3.6 0 0 -9.99 3.6 0 0 9.99zm0 -5l0 -4.99 4.99 4.99 -4.99 0zm0 -4.99l4.99 0 0 4.99 -4.99 -4.99zm4.99 7.65l-9.99 0 0 -2.66 9.99 0 0 2.66zm12.99 38.3l-1.32 0 0 -9.99 1.32 0 0 9.99zm0 -5l0 -4.99 4.99 4.99 -4.99 0zm0 -4.99l4.99 0 0 4.99 -4.99 -4.99zm-5 12.19l0 -7.2 9.99 0 0 7.2 -9.99 0zm5 0l0 4.99 -5 -4.99 5 0zm0 4.99l-5 0 0 -4.99 5 4.99zm3.59 0l-3.59 0 0 -9.99 3.59 0 0 9.99zm0 -4.99l0 -5 5 5 -5 0zm0 -5l5 0 0 5 -5 -5zm-4.99 12.19l0 -7.19 9.99 0 0 7.19 -9.99 0zm4.99 0l0 5 -4.99 -5 4.99 0zm0 5l-4.99 0 0 -5 4.99 5zm3.6 0l-3.6 0 0 -10 3.6 0 0 10zm0 -5l0 -5 5 5 -5 0zm0 -5l5 0 0 5 -5 -5zm-5 15.79l0 -10.79 10 0 0 10.79 -10 0zm5 0l0 5 -5 -5 5 0zm0 5l-5 0 0 -5 5 5zm3.59 0l-3.59 0 0 -10 3.59 0 0 10zm0 -5l0 -5 5 5 -5 0zm0 -5l5 0 0 5 -5 -5zm-4.99 12.19l0 -7.19 9.99 0 0 7.19 -9.99 0zm4.99 0l0 5 -4.99 -5 4.99 0zm0 5l-4.99 0 0 -5 4.99 5zm3.6 0l-3.6 0 0 -10 3.6 0 0 10zm0 -5l0 -5 5 5 -5 0zm0 -5l5 0 0 5 -5 -5zm-4.99 15.79l0 -10.79 9.99 0 0 10.79 -9.99 0zm4.99 0l0 4.99 -4.99 -4.99 4.99 0zm0 4.99l-4.99 0 0 -4.99 4.99 4.99zm3.6 0l-3.6 0 0 -9.99 3.6 0 0 9.99zm0 -4.99l0 -5 5 5 -5 0zm0 -5l5 0 0 5 -5 -5zm-5 15.79l0 -10.79 10 0 0 10.79 -10 0zm5 0l0 4.99 -5 -4.99 5 0zm0 4.99l-5 0 0 -4.99 5 4.99zm3.59 0l-3.59 0 0 -9.99 3.59 0 0 9.99zm0 -4.99l0 -5 5 5 -5 0zm0 -5l5 0 0 5 -5 -5zm-4.99 15.78l0 -10.78 9.99 0 0 10.78 -9.99 0zm4.99 0l0 5 -4.99 -5 4.99 0zm0 5l-4.99 0 0 -5 4.99 5zm3.6 0l-3.6 0 0 -9.99 3.6 0 0 9.99zm0 -5l0 -4.99 5 4.99 -5 0zm0 -4.99l5 0 0 4.99 -5 -4.99zm5 13.69l-10 0 0 -8.7 10 0 0 8.7zm4.39 45.25l0 -9.68 9.99 0 0 9.68 -9.99 0zm5 0l0 4.99 -5 -4.99 5 0zm0 4.99l-5 0 0 -4.99 5 4.99zm3.59 0l-3.59 0 0 -9.99 3.59 0 0 9.99zm0 -4.99l0 -5 5 5 -5 0zm0 -5l5 0 0 5 -5 -5zm-5 22.98l0 -17.98 10 0 0 17.98 -10 0zm5 0l0 4.99 -5 -4.99 5 0zm0 4.99l-5 0 0 -4.99 5 4.99zm3.6 0l-3.6 0 0 -9.99 3.6 0 0 9.99zm0 -4.99l0 -5 4.99 5 -4.99 0zm0 -5l4.99 0 0 5 -4.99 -5zm-5 19.38l0 -14.38 9.99 0 0 14.38 -9.99 0zm5 0l0 5 -5 -5 5 0zm0 5l-5 0 0 -5 5 5zm0.72 -9.99l0 9.99 -0.72 0 0 -9.99 0.72 0zm13.66 49.55l-3.25 0 0 -10 3.25 0 0 10zm0 -5l0 -5 5 5 -5 0zm0 -5l5 0 0 5 -5 -5zm-4.99 33.77l0 -28.77 9.99 0 0 28.77 -9.99 0zm4.99 0l0 5 -4.99 -5 4.99 0zm0 5l-4.99 0 0 -5 4.99 5zm3.6 0l-3.6 0 0 -9.99 3.6 0 0 9.99zm0 -5l0 -4.99 4.99 4.99 -4.99 0zm0 -4.99l4.99 0 0 4.99 -4.99 -4.99zm-5 19.37l0 -14.38 9.99 0 0 14.38 -9.99 0zm5 0l0 5 -5 -5 5 0zm0 5l-5 0 0 -5 5 5zm3.59 0l-3.59 0 0 -9.99 3.59 0 0 9.99zm0 -5l0 -4.99 5 4.99 -5 0zm0 -4.99l5 0 0 4.99 -5 -4.99zm-4.99 26.57l0 -21.58 9.99 0 0 21.58 -9.99 0zm4.99 0l0 5 -4.99 -5 4.99 0zm0 5l-4.99 0 0 -5 4.99 5zm3.6 0l-3.6 0 0 -10 3.6 0 0 10zm0 -5l0 -5 5 5 -5 0zm0 -5l5 0 0 5 -5 -5zm-4.99 22.98l0 -17.98 9.99 0 0 17.98 -9.99 0zm4.99 0l0 5 -4.99 -5 4.99 0zm0 5l-4.99 0 0 -5 4.99 5zm3.16 -9.99l0 9.99 -3.16 0 0 -9.99 3.16 0zm-0.96 73.32l0 -22.4 9.99 0 0 22.4 -9.99 0zm4.99 0l0 4.99 -4.99 -4.99 4.99 0zm0 4.99l-4.99 0 0 -4.99 4.99 4.99zm3.6 0l-3.6 0 0 -9.99 3.6 0 0 9.99zm0 -4.99l0 -5 5 5 -5 0zm0 -5l5 0 0 5 -5 -5zm5 28.96l-10 0 0 -23.96 10 0 0 23.96zm3.59 146.29l-9.99 0 0 -99.92 9.99 0 0 99.92zm-13.59 74.29l0 -27.93 10 0 0 27.93 -10 0zm5 0l5 0 -5 4.99 0 -4.99zm5 0l0 4.99 -5 0 5 -4.99zm-8.6 -5l3.6 0 0 9.99 -3.6 0 0 -9.99zm0 5l-4.99 0 4.99 -5 0 5zm-4.99 0l0 -5 4.99 0 -4.99 5zm0 10.78l0 -10.78 9.99 0 0 10.78 -9.99 0zm4.99 0l5 0 -5 5 0 -5zm5 0l0 5 -5 0 5 -5zm-8.59 -4.99l3.59 0 0 9.99 -3.59 0 0 -9.99zm0 4.99l-5 0 5 -4.99 0 4.99zm-5 0l0 -4.99 5 0 -5 4.99zm9.99 4.06l-9.99 0 0 -4.06 9.99 0 0 4.06zm-37.36 19.72l7.12 0 0 9.99 -7.12 0 0 -9.99zm0 5l-5 0 5 -5 0 5zm-5 0l0 -5 5 0 -5 5zm0 3.59l0 -3.59 10 0 0 3.59 -10 0zm5 0l5 0 -5 5 0 -5zm5 0l0 5 -5 0 5 -5zm-40.96 -5l35.96 0 0 10 -35.96 0 0 -10zm0 5l-5 0 5 -5 0 5zm-5 0l0 -5 5 0 -5 5zm0 3.6l0 -3.6 10 0 0 3.6 -10 0zm5 0l5 0 -5 4.99 0 -4.99zm5 0l0 4.99 -5 0 5 -4.99zm-37.37 -5l32.37 0 0 9.99 -32.37 0 0 -9.99zm0 5l-4.99 0 4.99 -5 0 5zm-4.99 0l0 -5 4.99 0 -4.99 5zm0 3.59l0 -3.59 9.99 0 0 3.59 -9.99 0zm4.99 0l5 0 -5 5 0 -5zm5 0l0 5 -5 0 5 -5zm-18.68 5l0 -9.99 13.68 0 0 9.99 -13.68 0zm-54.64 -9.99l4.68 0 0 9.99 -4.68 0 0 -9.99zm0 4.99l-5 0 5 -4.99 0 4.99zm-5 0l0 -4.99 5 0 -5 4.99zm0 3.6l0 -3.6 9.99 0 0 3.6 -9.99 0zm5 0l4.99 0 -4.99 4.99 0 -4.99zm4.99 0l0 4.99 -4.99 0 4.99 -4.99zm-46.67 4.99l0 -9.99 41.68 0 0 9.99 -41.68 0zm-80.59 -9.99l30.63 0 0 9.99 -30.63 0 0 -9.99zm0 5l0 4.99 -5 -4.99 5 0zm0 4.99l-5 0 0 -4.99 5 4.99zm4.99 -8.59l0 3.6 -9.99 0 0 -3.6 9.99 0zm-4.99 0l0 -4.99 4.99 4.99 -4.99 0zm0 -4.99l4.99 0 0 4.99 -4.99 -4.99zm-50.35 0l50.35 0 0 9.99 -50.35 0 0 -9.99zm0 4.99l0 5 -4.99 -5 4.99 0zm0 5l-4.99 0 0 -5 4.99 5zm5 -8.59l0 3.59 -9.99 0 0 -3.59 9.99 0zm-5 0l0 -5 5 5 -5 0zm0 -5l5 0 0 5 -5 -5zm-11.75 9.99l0 -9.99 11.75 0 0 9.99 -11.75 0zm-49.38 -13.59l3.02 0 0 10 -3.02 0 0 -10zm0 5l0 5 -5 -5 5 0zm0 5l-5 0 0 -5 5 5zm4.99 -8.59l0 3.59 -9.99 0 0 -3.59 9.99 0zm-4.99 0l0 -5 4.99 5 -4.99 0zm0 -5l4.99 0 0 5 -4.99 -5zm-17.99 0l17.99 0 0 9.99 -17.99 0 0 -9.99zm0 5l0 4.99 -4.99 -4.99 4.99 0zm0 4.99l-4.99 0 0 -4.99 4.99 4.99zm5 -8.59l0 3.6 -9.99 0 0 -3.6 9.99 0zm-5 0l0 -5 5 5 -5 0zm0 -5l5 0 0 5 -5 -5zm-14.38 0l14.38 0 0 9.99 -14.38 0 0 -9.99zm0 5l0 4.99 -4.99 -4.99 4.99 0zm0 4.99l-4.99 0 0 -4.99 4.99 4.99zm5 -8.59l0 3.6 -9.99 0 0 -3.6 9.99 0zm-5 0l0 -5 5 5 -5 0zm0 -5l5 0 0 5 -5 -5zm-3.78 10l0 -10 3.78 0 0 10 -3.78 0zm-27.18 -22.98l0 0.2 -10 0 0 -0.2 10 0zm-5 0l0 -5 5 5 -5 0zm0 -5l5 0 0 5 -5 -5zm-3.6 0l3.6 0 0 10 -3.6 0 0 -10zm0 5l0 5 -5 -5 5 0zm0 5l-5 0 0 -5 5 5zm5 -8.6l0 3.6 -10 0 0 -3.6 10 0zm-5 0l0 -4.99 5 4.99 -5 0zm0 -4.99l5 0 0 4.99 -5 -4.99zm-3.59 0l3.59 0 0 9.99 -3.59 0 0 -9.99zm0 4.99l0 5 -5 -5 5 0zm0 5l-5 0 0 -5 5 5zm5 -8.59l0 3.59 -10 0 0 -3.59 10 0zm-5 0l0 -5 5 5 -5 0zm0 -5l5 0 0 5 -5 -5zm-3.6 0l3.6 0 0 10 -3.6 0 0 -10zm0 5l0 5 -5 -5 5 0zm0 5l-5 0 0 -5 5 5zm5 -8.6l0 3.6 -10 0 0 -3.6 10 0zm-5 0l0 -4.99 5 4.99 -5 0zm0 -4.99l5 0 0 4.99 -5 -4.99zm-3.6 0l3.6 0 0 9.99 -3.6 0 0 -9.99zm0 4.99l0 5 -4.99 -5 4.99 0zm0 5l-4.99 0 0 -5 4.99 5zm5 -12.19l0 7.19 -9.99 0 0 -7.19 9.99 0zm-5 0l0 -4.99 5 4.99 -5 0zm0 -4.99l5 0 0 4.99 -5 -4.99zm-3.59 0l3.59 0 0 9.99 -3.59 0 0 -9.99zm0 4.99l0 5 -5 -5 5 0zm0 5l-5 0 0 -5 5 5zm5 -12.19l0 7.19 -10 0 0 -7.19 10 0zm-5 0l0 -5 5 5 -5 0zm0 -5l5 0 0 5 -5 -5zm-3.6 0l3.6 0 0 9.99 -3.6 0 0 -9.99zm0 5l0 4.99 -4.99 -4.99 4.99 0zm0 4.99l-4.99 0 0 -4.99 4.99 4.99zm5 -19.37l0 14.38 -9.99 0 0 -14.38 9.99 0zm-5 0l0 -5 5 5 -5 0zm0 -5l5 0 0 5 -5 -5zm-3.6 0l3.6 0 0 9.99 -3.6 0 0 -9.99zm0 5l0 4.99 -4.99 -4.99 4.99 0zm0 4.99l-4.99 0 0 -4.99 4.99 4.99zm5 -19.38l0 14.39 -9.99 0 0 -14.39 9.99 0zm-5 0l0 -5 5 5 -5 0zm0 -5l5 0 0 5 -5 -5zm-3.59 0l3.59 0 0 10 -3.59 0 0 -10zm0 5l0 5 -5 -5 5 0zm0 5l-5 0 0 -5 5 5zm-5 -22.01l10 0 0 17.01 -10 0 0 -17.01zm6.4 -62.1l0 15.74 -9.99 0 0 -15.74 9.99 0zm-5 0l0 -5 5 5 -5 0zm0 -5l5 0 0 5 -5 -5zm-3.59 0l3.59 0 0 9.99 -3.59 0 0 -9.99zm0 5l0 4.99 -5 -4.99 5 0zm0 4.99l-5 0 0 -4.99 5 4.99zm-5 -35.61l9.99 0 0 30.62 -9.99 0 0 -30.62zm217.17 -600.11l17.98 0 0 9.99 -17.98 0 0 -9.99zm0 5l-4.99 0 4.99 -5 0 5zm-4.99 0l0 -5 4.99 0 -4.99 5zm0 3.59l0 -3.59 9.99 0 0 3.59 -9.99 0zm4.99 0l5 0 -5 5 0 -5zm5 0l0 5 -5 0 5 -5zm-19.38 -5l14.38 0 0 10 -14.38 0 0 -10zm0 5l-5 0 5 -5 0 5zm-5 0l0 -5 5 0 -5 5zm0 3.6l0 -3.6 9.99 0 0 3.6 -9.99 0zm5 0l4.99 0 -4.99 4.99 0 -4.99zm4.99 0l0 4.99 -4.99 0 4.99 -4.99zm-15.4 4.99l0 -9.99 10.41 0 0 9.99 -10.41 0zm-34.15 16.58l0 -0.77 10 0 0 0.77 -10 0zm5 0l5 0 -5 5 0 -5zm5 0l0 5 -5 0 5 -5zm-12.19 -4.99l7.19 0 0 9.99 -7.19 0 0 -9.99zm0 4.99l-5 0 5 -4.99 0 4.99zm-5 0l0 -4.99 5 0 -5 4.99zm0 3.6l0 -3.6 9.99 0 0 3.6 -9.99 0zm5 0l4.99 0 -4.99 5 0 -5zm4.99 0l0 5 -4.99 0 4.99 -5zm-8.59 -5l3.6 0 0 10 -3.6 0 0 -10zm0 5l-4.99 0 4.99 -5 0 5zm-4.99 0l0 -5 4.99 0 -4.99 5zm0 3.59l0 -3.59 9.99 0 0 3.59 -9.99 0zm4.99 0l5 0 -5 5 0 -5zm5 0l0 5 -5 0 5 -5zm-8.6 -4.99l3.6 0 0 9.99 -3.6 0 0 -9.99zm0 4.99l-4.99 0 4.99 -4.99 0 4.99zm-4.99 0l0 -4.99 4.99 0 -4.99 4.99zm0 3.6l0 -3.6 9.99 0 0 3.6 -9.99 0zm4.99 0l5 0 -5 5 0 -5zm5 0l0 5 -5 0 5 -5zm-8.59 -4.99l3.59 0 0 9.99 -3.59 0 0 -9.99zm0 4.99l-5 0 5 -4.99 0 4.99zm-5 0l0 -4.99 5 0 -5 4.99zm0 3.6l0 -3.6 9.99 0 0 3.6 -9.99 0zm5 0l4.99 0 -4.99 5 0 -5zm4.99 0l0 5 -4.99 0 4.99 -5zm-8.59 -5l3.6 0 0 10 -3.6 0 0 -10zm0 5l-4.99 0 4.99 -5 0 5zm-4.99 0l0 -5 4.99 0 -4.99 5zm0 3.59l0 -3.59 9.99 0 0 3.59 -9.99 0zm4.99 0l5 0 -5 5 0 -5zm5 0l0 5 -5 0 5 -5zm-8.59 -4.99l3.59 0 0 9.99 -3.59 0 0 -9.99zm0 4.99l-5 0 5 -4.99 0 4.99zm-5 0l0 -4.99 5 0 -5 4.99zm0 3.6l0 -3.6 9.99 0 0 3.6 -9.99 0zm5 0l4.99 0 -4.99 5 0 -5zm4.99 0l0 5 -4.99 0 4.99 -5zm-8.59 -5l3.6 0 0 10 -3.6 0 0 -10zm0 5l-5 0 5 -5 0 5zm-5 0l0 -5 5 0 -5 5zm0 3.6l0 -3.6 9.99 0 0 3.6 -9.99 0zm5 0l4.99 0 -4.99 4.99 0 -4.99zm4.99 0l0 4.99 -4.99 0 4.99 -4.99zm-8.59 -5l3.6 0 0 9.99 -3.6 0 0 -9.99zm0 5l-4.99 0 4.99 -5 0 5zm-4.99 0l0 -5 4.99 0 -4.99 5zm0 3.59l0 -3.59 9.99 0 0 3.59 -9.99 0zm4.99 0l5 0 -5 5 0 -5zm5 0l0 5 -5 0 5 -5zm-8.59 -5l3.59 0 0 10 -3.59 0 0 -10zm0 5l-5 0 5 -5 0 5zm-5 0l0 -5 5 0 -5 5zm0 3.6l0 -3.6 9.99 0 0 3.6 -9.99 0zm5 0l4.99 0 -4.99 5 0 -5zm4.99 0l0 5 -4.99 0 4.99 -5zm-8.59 -5l3.6 0 0 10 -3.6 0 0 -10zm0 5l-5 0 5 -5 0 5zm-5 0l0 -5 5 0 -5 5zm0 7.19l0 -7.19 10 0 0 7.19 -10 0zm5 0l5 0 -5 5 0 -5zm5 0l0 5 -5 0 5 -5zm-8.59 -5l3.59 0 0 10 -3.59 0 0 -10zm0 5l-5 0 5 -5 0 5zm-5 0l0 -5 5 0 -5 5zm0 3.6l0 -3.6 9.99 0 0 3.6 -9.99 0zm5 0l4.99 0 -4.99 4.99 0 -4.99zm4.99 0l0 4.99 -4.99 0 4.99 -4.99zm-8.59 -5l3.6 0 0 9.99 -3.6 0 0 -9.99zm0 5l-5 0 5 -5 0 5zm-5 0l0 -5 5 0 -5 5zm0 3.59l0 -3.59 9.99 0 0 3.59 -9.99 0zm5 0l4.99 0 -4.99 5 0 -5zm4.99 0l0 5 -4.99 0 4.99 -5zm-8.59 -4.99l3.6 0 0 9.99 -3.6 0 0 -9.99zm0 4.99l-5 0 5 -4.99 0 4.99zm-5 0l0 -4.99 5 0 -5 4.99zm10 2.05l-10 0 0 -2.05 10 0 0 2.05zm-26.58 25.32l1.94 0 0 10 -1.94 0 0 -10zm0 5l-4.99 0 4.99 -5 0 5zm-4.99 0l0 -5 4.99 0 -4.99 5zm0 7.19l0 -7.19 9.99 0 0 7.19 -9.99 0zm4.99 0l5 0 -5 5 0 -5zm5 0l0 5 -5 0 5 -5zm-8.59 -5l3.59 0 0 10 -3.59 0 0 -10zm0 5l-5 0 5 -5 0 5zm-5 0l0 -5 5 0 -5 5zm0 7.19l0 -7.19 10 0 0 7.19 -10 0zm5 0l5 0 -5 5 0 -5zm5 0l0 5 -5 0 5 -5zm-8.6 -4.99l3.6 0 0 9.99 -3.6 0 0 -9.99zm0 4.99l-4.99 0 4.99 -4.99 0 4.99zm-4.99 0l0 -4.99 4.99 0 -4.99 4.99zm0 7.2l0 -7.2 9.99 0 0 7.2 -9.99 0zm4.99 0l5 0 -5 4.99 0 -4.99zm5 0l0 4.99 -5 0 5 -4.99zm-8.59 -5l3.59 0 0 9.99 -3.59 0 0 -9.99zm0 5l0 4.99 -5 -4.99 5 0zm0 4.99l-5 0 0 -4.99 5 4.99zm-5 -20.65l9.99 0 0 15.66 -9.99 0 0 -15.66zm17.19 -74.25l0 31.49 -10 0 0 -31.49 10 0zm-5 0l-5 0 5 -4.99 0 4.99zm-5 0l0 -4.99 5 0 -5 4.99zm8.59 5l-3.59 0 0 -9.99 3.59 0 0 9.99zm0 -5l5 0 -5 5 0 -5zm5 0l0 5 -5 0 5 -5zm0 -39.55l0 39.55 -9.99 0 0 -39.55 9.99 0zm-5 0l-4.99 0 4.99 -5 0 5zm-4.99 0l0 -5 4.99 0 -4.99 5zm8.59 4.99l-3.6 0 0 -9.99 3.6 0 0 9.99zm0 -4.99l5 0 -5 4.99 0 -4.99zm5 0l0 4.99 -5 0 5 -4.99zm-10 -21.69l10 0 0 21.69 -10 0 0 -21.69zm13.6 -64.62l0 18.26 -10 0 0 -18.26 10 0zm-5 0l-5 0 5 -5 0 5zm-5 0l0 -5 5 0 -5 5zm8.59 4.99l-3.59 0 0 -9.99 3.59 0 0 9.99zm0 -4.99l5 0 -5 4.99 0 -4.99zm5 0l0 4.99 -5 0 5 -4.99zm-9.99 -28.11l9.99 0 0 28.11 -9.99 0 0 -28.11zm13.59 -68.99l0 22.63 -10 0 0 -22.63 10 0zm-5 0l-5 0 5 -5 0 5zm-5 0l0 -5 5 0 -5 5zm8.6 5l-3.6 0 0 -10 3.6 0 0 10zm0 -5l4.99 0 -4.99 5 0 -5zm4.99 0l0 5 -4.99 0 4.99 -5zm0 -53.94l0 53.94 -9.99 0 0 -53.94 9.99 0zm-4.99 0l-5 0 5 -5 0 5zm-5 0l0 -5 5 0 -5 5zm8.59 5l-3.59 0 0 -10 3.59 0 0 10zm0 -5l5 0 -5 5 0 -5zm5 0l0 5 -5 0 5 -5zm-10 -16.16l10 0 0 16.16 -10 0 0 -16.16zm13.59 -88.13l0 41.77 -9.99 0 0 -41.77 9.99 0zm-4.99 0l-5 0 5 -4.99 0 4.99zm-5 0l0 -4.99 5 0 -5 4.99zm8.6 5l-3.6 0 0 -9.99 3.6 0 0 9.99zm0 -5l4.99 0 -4.99 5 0 -5zm4.99 0l0 5 -4.99 0 4.99 -5zm-9.99 -4.59l9.99 0 0 4.59 -9.99 0 0 -4.59zm13.59 -52.95l0 6.58 -10 0 0 -6.58 10 0zm-5 0l-5 0 5 -5 0 5zm-5 0l0 -5 5 0 -5 5zm8.6 5l-3.6 0 0 -10 3.6 0 0 10zm0 -5l4.99 0 -4.99 5 0 -5zm4.99 0l0 5 -4.99 0 4.99 -5zm0 -32.36l0 32.36 -9.99 0 0 -32.36 9.99 0zm-4.99 0l-5 0 5 -5 0 5zm-5 0l0 -5 5 0 -5 5zm8.59 4.99l-3.59 0 0 -9.99 3.59 0 0 9.99zm0 -4.99l5 0 -5 4.99 0 -4.99zm5 0l0 4.99 -5 0 5 -4.99zm0 -28.77l0 28.77 -9.99 0 0 -28.77 9.99 0zm-5 0l-4.99 0 4.99 -5 0 5zm-4.99 0l0 -5 4.99 0 -4.99 5zm8.59 5l-3.6 0 0 -10 3.6 0 0 10zm0 -5l4.99 0 -4.99 5 0 -5zm4.99 0l0 5 -4.99 0 4.99 -5zm0 -14.39l0 14.39 -9.99 0 0 -14.39 9.99 0zm-4.99 0l-5 0 5 -4.99 0 4.99zm-5 0l0 -4.99 5 0 -5 4.99zm8.6 5l-3.6 0 0 -9.99 3.6 0 0 9.99zm0 -5l4.99 0 -4.99 5 0 -5zm4.99 0l0 5 -4.99 0 4.99 -5zm-9.99 -3.43l9.99 0 0 3.43 -9.99 0 0 -3.43zm17.18 -64.9l0 22.13 -9.99 0 0 -22.13 9.99 0zm-4.99 0l-5 0 5 -4.99 0 4.99zm-5 0l0 -4.99 5 0 -5 4.99zm8.59 5l-3.59 0 0 -9.99 3.59 0 0 9.99zm0 -5l5 0 -5 5 0 -5zm5 0l0 5 -5 0 5 -5zm0 -14.38l0 14.38 -9.99 0 0 -14.38 9.99 0zm-5 0l-4.99 0 4.99 -4.99 0 4.99zm-4.99 0l0 -4.99 4.99 0 -4.99 4.99zm8.59 5l-3.6 0 0 -9.99 3.6 0 0 9.99zm0 -5l5 0 -5 5 0 -5zm5 0l0 5 -5 0 5 -5zm-9.99 -6.25l9.99 0 0 6.25 -9.99 0 0 -6.25zm17.18 -47.69l0 4.92 -9.99 0 0 -4.92 9.99 0zm-5 0l-4.99 0 4.99 -5 0 5zm-4.99 0l0 -5 4.99 0 -4.99 5zm8.59 5l-3.6 0 0 -10 3.6 0 0 10zm0 -5l5 0 -5 5 0 -5zm5 0l0 5 -5 0 5 -5zm0 -25.17l0 25.17 -10 0 0 -25.17 10 0zm-5 0l-5 0 5 -5 0 5zm-5 0l0 -5 5 0 -5 5zm8.59 4.99l-3.59 0 0 -9.99 3.59 0 0 9.99zm0 -4.99l5 0 -5 4.99 0 -4.99zm5 0l0 4.99 -5 0 5 -4.99zm0 -14.39l0 14.39 -9.99 0 0 -14.39 9.99 0zm-5 0l-4.99 0 4.99 -5 0 5zm-4.99 0l0 -5 4.99 0 -4.99 5zm8.59 5l-3.6 0 0 -10 3.6 0 0 10zm0 -5l5 0 -5 5 0 -5zm5 0l0 5 -5 0 5 -5zm0 -10.79l0 10.79 -9.99 0 0 -10.79 9.99 0zm-5 0l-4.99 0 4.99 -5 0 5zm-4.99 0l0 -5 4.99 0 -4.99 5zm8.59 5l-3.6 0 0 -10 3.6 0 0 10zm0 -5l5 0 -5 5 0 -5zm5 0l0 5 -5 0 5 -5zm0 -28.77l0 28.77 -10 0 0 -28.77 10 0zm-5 0l-5 0 5 -4.99 0 4.99zm-5 0l0 -4.99 5 0 -5 4.99zm6.5 -4.99l0 9.99 -1.5 0 0 -9.99 1.5 0zm14.28 -52.55l0 16.87 -9.99 0 0 -16.87 9.99 0zm-4.99 0l-5 0 5 -4.99 0 4.99zm-5 0l0 -4.99 5 0 -5 4.99zm8.59 5l-3.59 0 0 -9.99 3.59 0 0 9.99zm0 -5l5 0 -5 5 0 -5zm5 0l0 5 -5 0 5 -5zm0 -21.57l0 21.57 -10 0 0 -21.57 10 0zm-5 0l-5 0 5 -5 0 5zm-5 0l0 -5 5 0 -5 5zm8.6 4.99l-3.6 0 0 -9.99 3.6 0 0 9.99zm0 -4.99l4.99 0 -4.99 4.99 0 -4.99zm4.99 0l0 4.99 -4.99 0 4.99 -4.99zm-9.99 -4.32l9.99 0 0 4.32 -9.99 0 0 -4.32zm13.59 -74.8l0 28.43 -9.99 0 0 -28.43 9.99 0zm-4.99 0l-5 0 5 -4.99 0 4.99zm-5 0l0 -4.99 5 0 -5 4.99zm8.59 5l-3.59 0 0 -9.99 3.59 0 0 9.99zm0 -5l5 0 -5 5 0 -5zm5 0l0 5 -5 0 5 -5zm0 -50.35l0 50.35 -10 0 0 -50.35 10 0zm-5 0l-5 0 5 -4.99 0 4.99zm-5 0l0 -4.99 5 0 -5 4.99zm8.6 5l-3.6 0 0 -9.99 3.6 0 0 9.99zm0 -5l4.99 0 -4.99 5 0 -5zm4.99 0l0 5 -4.99 0 4.99 -5zm-9.99 -13.94l9.99 0 0 13.94 -9.99 0 0 -13.94zm13.59 -61.58l0 15.22 -9.99 0 0 -15.22 9.99 0zm-5 0l-4.99 0 4.99 -4.99 0 4.99zm-4.99 0l0 -4.99 4.99 0 -4.99 4.99zm8.59 5l-3.6 0 0 -9.99 3.6 0 0 9.99zm0 -5l4.99 0 -4.99 5 0 -5zm4.99 0l0 5 -4.99 0 4.99 -5zm0 -28.76l0 28.76 -9.99 0 0 -28.76 9.99 0zm-4.99 0l-5 0 5 -5 0 5zm-5 0l0 -5 5 0 -5 5zm7.39 -5l0 9.99 -2.39 0 0 -9.99 2.39 0zm13.39 -41.75l0 5.19 -9.99 0 0 -5.19 9.99 0zm-4.99 0l-5 0 5 -5 0 5zm-5 0l0 -5 5 0 -5 5zm8.59 4.99l-3.59 0 0 -9.99 3.59 0 0 9.99zm0 -4.99l5 0 -5 4.99 0 -4.99zm5 0l0 4.99 -5 0 5 -4.99zm0 -10.79l0 10.79 -9.99 0 0 -10.79 9.99 0zm-5 0l-4.99 0 4.99 -5 0 5zm-4.99 0l0 -5 4.99 0 -4.99 5zm8.59 4.99l-3.6 0 0 -9.99 3.6 0 0 9.99zm0 -4.99l5 0 -5 4.99 0 -4.99zm5 0l0 4.99 -5 0 5 -4.99zm0 -10.79l0 10.79 -10 0 0 -10.79 10 0zm-5 0l-5 0 5 -5 0 5zm-5 0l0 -5 5 0 -5 5zm8.59 5l-3.59 0 0 -10 3.59 0 0 10zm0 -5l5 0 -5 5 0 -5zm5 0l0 5 -5 0 5 -5zm0 -7.19l0 7.19 -9.99 0 0 -7.19 9.99 0zm-5 0l-4.99 0 4.99 -5 0 5zm-4.99 0l0 -5 4.99 0 -4.99 5zm8.59 4.99l-3.6 0 0 -9.99 3.6 0 0 9.99zm0 -4.99l5 0 -5 4.99 0 -4.99zm5 0l0 4.99 -5 0 5 -4.99zm0 -7.19l0 7.19 -9.99 0 0 -7.19 9.99 0zm-5 0l-4.99 0 4.99 -5 0 5zm-4.99 0l0 -5 4.99 0 -4.99 5zm8.59 4.99l-3.6 0 0 -9.99 3.6 0 0 9.99zm0 -4.99l5 0 -5 4.99 0 -4.99zm5 0l0 4.99 -5 0 5 -4.99zm0 -3.6l0 3.6 -10 0 0 -3.6 10 0zm-5 0l-5 0 5 -5 0 5zm-5 0l0 -5 5 0 -5 5zm8.59 5l-3.59 0 0 -10 3.59 0 0 10zm0 -5l5 0 -5 5 0 -5zm5 0l0 5 -5 0 5 -5zm0 -3.6l0 3.6 -9.99 0 0 -3.6 9.99 0zm-5 0l-4.99 0 4.99 -4.99 0 4.99zm-4.99 0l0 -4.99 4.99 0 -4.99 4.99zm8.59 5l-3.6 0 0 -9.99 3.6 0 0 9.99zm0 -5l5 0 -5 5 0 -5zm5 0l0 5 -5 0 5 -5zm0 -3.59l0 3.59 -10 0 0 -3.59 10 0zm-5 0l-5 0 5 -5 0 5zm-5 0l0 -5 5 0 -5 5zm19.39 5l-14.39 0 0 -10 14.39 0 0 10zm0 -5l0 -5 4.99 5 -4.99 0zm0 -5l4.99 0 0 5 -4.99 -5zm-5 8.59l0 -3.59 9.99 0 0 3.59 -9.99 0zm5 0l0 5 -5 -5 5 0zm0 5l-5 0 0 -5 5 5zm4.82 -9.99l0 9.99 -4.82 0 0 -9.99 4.82 0zm15.35 37.36l0 -2.75 9.99 0 0 2.75 -9.99 0zm5 0l0 4.99 -5 -4.99 5 0zm0 4.99l-5 0 0 -4.99 5 4.99zm3.59 0l-3.59 0 0 -9.99 3.59 0 0 9.99zm0 -4.99l0 -5 5 5 -5 0zm0 -5l5 0 0 5 -5 -5zm-4.99 15.79l0 -10.79 9.99 0 0 10.79 -9.99 0zm4.99 0l0 4.99 -4.99 -4.99 4.99 0zm0 4.99l-4.99 0 0 -4.99 4.99 4.99zm3.6 0l-3.6 0 0 -9.99 3.6 0 0 9.99zm0 -4.99l0 -5 5 5 -5 0zm0 -5l5 0 0 5 -5 -5zm-4.99 12.19l0 -7.19 9.99 0 0 7.19 -9.99 0zm4.99 0l0 5 -4.99 -5 4.99 0zm0 5l-4.99 0 0 -5 4.99 5zm3.6 0l-3.6 0 0 -10 3.6 0 0 10zm0 -5l0 -5 4.99 5 -4.99 0zm0 -5l4.99 0 0 5 -4.99 -5zm-5 15.79l0 -10.79 9.99 0 0 10.79 -9.99 0zm5 0l0 5 -5 -5 5 0zm0 5l-5 0 0 -5 5 5zm3.59 0l-3.59 0 0 -10 3.59 0 0 10zm0 -5l0 -5 5 5 -5 0zm0 -5l5 0 0 5 -5 -5zm5 9.05l-9.99 0 0 -4.05 9.99 0 0 4.05zm4.39 49.89l0 -14.32 10 0 0 14.32 -10 0zm5 0l0 5 -5 -5 5 0zm0 5l-5 0 0 -5 5 5zm3.59 0l-3.59 0 0 -10 3.59 0 0 10zm0 -5l0 -5 5 5 -5 0zm0 -5l5 0 0 5 -5 -5zm-4.99 15.79l0 -10.79 9.99 0 0 10.79 -9.99 0zm4.99 0l0 5 -4.99 -5 4.99 0zm0 5l-4.99 0 0 -5 4.99 5zm3.6 0l-3.6 0 0 -10 3.6 0 0 10zm0 -5l0 -5 5 5 -5 0zm0 -5l5 0 0 5 -5 -5zm-5 15.79l0 -10.79 10 0 0 10.79 -10 0zm5 0l0 4.99 -5 -4.99 5 0zm0 4.99l-5 0 0 -4.99 5 4.99zm3.6 0l-3.6 0 0 -9.99 3.6 0 0 9.99zm0 -4.99l0 -5 4.99 5 -4.99 0zm0 -5l4.99 0 0 5 -4.99 -5zm-5 15.79l0 -10.79 9.99 0 0 10.79 -9.99 0zm5 0l0 4.99 -5 -4.99 5 0zm0 4.99l-5 0 0 -4.99 5 4.99zm3.59 0l-3.59 0 0 -9.99 3.59 0 0 9.99zm0 -4.99l0 -5 5 5 -5 0zm0 -5l5 0 0 5 -5 -5zm-5 19.38l0 -14.38 10 0 0 14.38 -10 0zm5 0l0 5 -5 -5 5 0zm0 5l-5 0 0 -5 5 5zm3.6 0l-3.6 0 0 -10 3.6 0 0 10zm0 -5l0 -5 4.99 5 -4.99 0zm0 -5l4.99 0 0 5 -4.99 -5zm-5 15.79l0 -10.79 9.99 0 0 10.79 -9.99 0zm5 0l0 4.99 -5 -4.99 5 0zm0 4.99l-5 0 0 -4.99 5 4.99zm3.6 0l-3.6 0 0 -9.99 3.6 0 0 9.99zm0 -4.99l0 -5 4.99 5 -4.99 0zm0 -5l4.99 0 0 5 -4.99 -5zm4.99 11.48l-9.99 0 0 -6.48 9.99 0 0 6.48zm5.79 45.27l-1.09 0 0 -10 1.09 0 0 10zm0 -5l0 -5 5 5 -5 0zm0 -5l5 0 0 5 -5 -5zm-4.99 19.39l0 -14.39 9.99 0 0 14.39 -9.99 0zm4.99 0l0 4.99 -4.99 -4.99 4.99 0zm0 4.99l-4.99 0 0 -4.99 4.99 4.99zm3.6 0l-3.6 0 0 -9.99 3.6 0 0 9.99zm0 -4.99l0 -5 4.99 5 -4.99 0zm0 -5l4.99 0 0 5 -4.99 -5zm-5 15.78l0 -10.78 9.99 0 0 10.78 -9.99 0zm5 0l0 5 -5 -5 5 0zm0 5l-5 0 0 -5 5 5zm3.59 0l-3.59 0 0 -9.99 3.59 0 0 9.99zm0 -5l0 -4.99 5 4.99 -5 0zm0 -4.99l5 0 0 4.99 -5 -4.99zm5 21.49l-9.99 0 0 -16.5 9.99 0 0 16.5zm0.8 62.62l0 -23.45 9.99 0 0 23.45 -9.99 0zm4.99 0l0 4.99 -4.99 -4.99 4.99 0zm0 4.99l-4.99 0 0 -4.99 4.99 4.99zm3.6 0l-3.6 0 0 -9.99 3.6 0 0 9.99zm0 -4.99l0 -5 5 5 -5 0zm0 -5l5 0 0 5 -5 -5zm-5 19.38l0 -14.38 10 0 0 14.38 -10 0zm5 0l0 5 -5 -5 5 0zm0 5l-5 0 0 -5 5 5zm3.59 0l-3.59 0 0 -9.99 3.59 0 0 9.99zm0 -5l0 -4.99 5 4.99 -5 0zm0 -4.99l5 0 0 4.99 -5 -4.99zm-4.99 33.76l0 -28.77 9.99 0 0 28.77 -9.99 0zm4.99 0l0 5 -4.99 -5 4.99 0zm0 5l-4.99 0 0 -5 4.99 5zm3.6 0l-3.6 0 0 -10 3.6 0 0 10zm0 -5l0 -5 5 5 -5 0zm0 -5l5 0 0 5 -5 -5zm5 27.53l-10 0 0 -22.53 10 0 0 22.53zm-2.8 49.4l0 -6.63 9.99 0 0 6.63 -9.99 0zm4.99 0l0 4.99 -4.99 -4.99 4.99 0zm0 4.99l-4.99 0 0 -4.99 4.99 4.99zm3.6 0l-3.6 0 0 -9.99 3.6 0 0 9.99zm0 -4.99l0 -5 5 5 -5 0zm0 -5l5 0 0 5 -5 -5zm-5 33.76l0 -28.76 10 0 0 28.76 -10 0zm5 0l0 5 -5 -5 5 0zm0 5l-5 0 0 -5 5 5zm3.6 0l-3.6 0 0 -9.99 3.6 0 0 9.99zm0 -5l0 -4.99 4.99 4.99 -4.99 0zm0 -4.99l4.99 0 0 4.99 -4.99 -4.99zm4.99 12.37l-9.99 0 0 -7.38 9.99 0 0 7.38zm-6.4 57.36l0 -11 10 0 0 11 -10 0zm5 0l0 4.99 -5 -4.99 5 0zm0 4.99l-5 0 0 -4.99 5 4.99zm3.6 0l-3.6 0 0 -9.99 3.6 0 0 9.99zm0 -4.99l0 -5 5 5 -5 0zm0 -5l5 0 0 5 -5 -5zm-5 40.96l0 -35.96 10 0 0 35.96 -10 0zm5 0l0 4.99 -5 -4.99 5 0zm0 4.99l-5 0 0 -4.99 5 4.99zm3.6 0l-3.6 0 0 -9.99 3.6 0 0 9.99zm0 -4.99l0 -5 4.99 5 -4.99 0zm0 -5l4.99 0 0 5 -4.99 -5zm-5 40.96l0 -35.96 9.99 0 0 35.96 -9.99 0zm5 0l0 4.99 -5 -4.99 5 0zm0 4.99l-5 0 0 -4.99 5 4.99zm3.59 0l-3.59 0 0 -9.99 3.59 0 0 9.99zm0 -4.99l0 -5 5 5 -5 0zm0 -5l5 0 0 5 -5 -5zm5 11.21l-10 0 0 -6.21 10 0 0 6.21zm-6.4 58.52l0 -12.16 9.99 0 0 12.16 -9.99 0zm5 0l0 4.99 -5 -4.99 5 0zm0 4.99l-5 0 0 -4.99 5 4.99zm3.59 0l-3.59 0 0 -9.99 3.59 0 0 9.99zm0 -4.99l0 -5 5 5 -5 0zm0 -5l5 0 0 5 -5 -5zm5 39.21l-9.99 0 0 -34.21 9.99 0 0 34.21zm-6.4 52.09l0 -5.73 9.99 0 0 5.73 -9.99 0zm5 0l0 5 -5 -5 5 0zm0 5l-5 0 0 -5 5 5zm3.6 0l-3.6 0 0 -9.99 3.6 0 0 9.99zm0 -5l0 -4.99 4.99 4.99 -4.99 0zm0 -4.99l4.99 0 0 4.99 -4.99 -4.99zm-5 55.34l0 -50.35 9.99 0 0 50.35 -9.99 0zm5 0l0 5 -5 -5 5 0zm0 5l-5 0 0 -5 5 5zm3.59 0l-3.59 0 0 -9.99 3.59 0 0 9.99zm0 -5l0 -4.99 5 4.99 -5 0zm0 -4.99l5 0 0 4.99 -5 -4.99zm5 41.64l-9.99 0 0 -36.65 9.99 0 0 36.65zm7.19 92.72l-9.99 0 0 -49.96 9.99 0 0 49.96zm-6.39 50.44l0 -4.08 9.99 0 0 4.08 -9.99 0zm4.99 0l0 5 -4.99 -5 4.99 0zm0 5l-4.99 0 0 -5 4.99 5zm3.6 0l-3.6 0 0 -10 3.6 0 0 10zm0 -5l0 -5 4.99 5 -4.99 0zm0 -5l4.99 0 0 5 -4.99 -5zm-5 58.94l0 -53.94 9.99 0 0 53.94 -9.99 0zm5 0l0 5 -5 -5 5 0zm0 5l-5 0 0 -5 5 5zm3.59 0l-3.59 0 0 -9.99 3.59 0 0 9.99zm0 -5l0 -4.99 5 4.99 -5 0zm0 -4.99l5 0 0 4.99 -5 -4.99zm5 39.7l-9.99 0 0 -34.71 9.99 0 0 34.71zm-6.4 48l0 -1.64 10 0 0 1.64 -10 0zm5 0l0 5 -5 -5 5 0zm0 5l-5 0 0 -5 5 5zm3.59 0l-3.59 0 0 -9.99 3.59 0 0 9.99zm0 -5l0 -4.99 5 4.99 -5 0zm0 -4.99l5 0 0 4.99 -5 -4.99zm-4.99 37.36l0 -32.37 9.99 0 0 32.37 -9.99 0zm4.99 0l0 5 -4.99 -5 4.99 0zm0 5l-4.99 0 0 -5 4.99 5zm3.6 0l-3.6 0 0 -10 3.6 0 0 10zm0 -5l0 -5 5 5 -5 0zm0 -5l5 0 0 5 -5 -5zm5 13.76l-9.99 0 0 -8.76 9.99 0 0 8.76zm-6.4 66.76l0 -20.4 10 0 0 20.4 -10 0zm5 0l0 4.99 -5 -4.99 5 0zm0 4.99l-5 0 0 -4.99 5 4.99zm3.59 0l-3.59 0 0 -9.99 3.59 0 0 9.99zm0 -4.99l0 -5 5 5 -5 0zm0 -5l5 0 0 5 -5 -5zm-4.99 19.38l0 -14.38 9.99 0 0 14.38 -9.99 0zm4.99 0l5 0 -5 5 0 -5zm5 0l0 5 -5 0 5 -5zm-8.59 -4.99l3.59 0 0 9.99 -3.59 0 0 -9.99zm0 4.99l0 5 -5 -5 5 0zm0 5l-5 0 0 -5 5 5zm5 -8.59l0 3.59 -10 0 0 -3.59 10 0zm-5 0l0 -5 5 5 -5 0zm0 -5l5 0 0 5 -5 -5zm-3.6 0l3.6 0 0 9.99 -3.6 0 0 -9.99zm0 5l0 4.99 -4.99 -4.99 4.99 0zm0 4.99l-4.99 0 0 -4.99 4.99 4.99zm5 -12.18l0 7.19 -9.99 0 0 -7.19 9.99 0zm-5 0l0 -5 5 5 -5 0zm0 -5l5 0 0 5 -5 -5zm-3.6 0l3.6 0 0 9.99 -3.6 0 0 -9.99zm0 5l0 4.99 -4.99 -4.99 4.99 0zm0 4.99l-4.99 0 0 -4.99 4.99 4.99zm5 -12.19l0 7.2 -9.99 0 0 -7.2 9.99 0zm-5 0l0 -5 5 5 -5 0zm0 -5l5 0 0 5 -5 -5zm-3.59 0l3.59 0 0 10 -3.59 0 0 -10zm0 5l0 5 -5 -5 5 0zm0 5l-5 0 0 -5 5 5zm5 -12.19l0 7.19 -10 0 0 -7.19 10 0zm-5 0l0 -5 5 5 -5 0zm0 -5l5 0 0 5 -5 -5zm-3.6 0l3.6 0 0 10 -3.6 0 0 -10zm0 5l0 5 -4.99 -5 4.99 0zm0 5l-4.99 0 0 -5 4.99 5zm5 -12.19l0 7.19 -9.99 0 0 -7.19 9.99 0zm-5 0l0 -5 5 5 -5 0zm0 -5l5 0 0 5 -5 -5zm-3.59 0l3.59 0 0 10 -3.59 0 0 -10zm0 5l0 5 -5 -5 5 0zm0 5l-5 0 0 -5 5 5zm4.99 -12.2l0 7.2 -9.99 0 0 -7.2 9.99 0zm-4.99 0l0 -4.99 4.99 4.99 -4.99 0zm0 -4.99l4.99 0 0 4.99 -4.99 -4.99zm-0.41 9.99l0 -9.99 0.41 0 0 9.99 -0.41 0zm-24.77 -38.76l3.58 0 0 9.99 -3.58 0 0 -9.99zm0 5l0 4.99 -4.99 -4.99 4.99 0zm0 4.99l-4.99 0 0 -4.99 4.99 4.99zm5 -12.19l0 7.2 -9.99 0 0 -7.2 9.99 0zm-5 0l0 -4.99 5 4.99 -5 0zm0 -4.99l5 0 0 4.99 -5 -4.99zm-3.59 0l3.59 0 0 9.99 -3.59 0 0 -9.99zm0 4.99l0 5 -5 -5 5 0zm0 5l-5 0 0 -5 5 5zm4.99 -8.59l0 3.59 -9.99 0 0 -3.59 9.99 0zm-4.99 0l0 -5 4.99 5 -4.99 0zm0 -5l4.99 0 0 5 -4.99 -5zm-3.6 0l3.6 0 0 9.99 -3.6 0 0 -9.99zm0 5l0 4.99 -5 -4.99 5 0zm0 4.99l-5 0 0 -4.99 5 4.99zm5 -8.59l0 3.6 -10 0 0 -3.6 10 0zm-5 0l0 -5 5 5 -5 0zm0 -5l5 0 0 5 -5 -5zm-3.59 0l3.59 0 0 10 -3.59 0 0 -10zm0 5l0 5 -5 -5 5 0zm0 5l-5 0 0 -5 5 5zm4.99 -8.59l0 3.59 -9.99 0 0 -3.59 9.99 0zm-4.99 0l0 -5 4.99 5 -4.99 0zm0 -5l4.99 0 0 5 -4.99 -5zm-3.6 0l3.6 0 0 9.99 -3.6 0 0 -9.99zm0 5l0 4.99 -5 -4.99 5 0zm0 4.99l-5 0 0 -4.99 5 4.99zm5 -8.59l0 3.6 -10 0 0 -3.6 10 0zm-5 0l0 -5 5 5 -5 0zm0 -5l5 0 0 5 -5 -5zm-3.6 0l3.6 0 0 10 -3.6 0 0 -10zm0 5l0 5 -5 -5 5 0zm0 5l-5 0 0 -5 5 5zm5 -8.6l0 3.6 -10 0 0 -3.6 10 0zm-5 0l0 -5 5 5 -5 0zm0 -5l5 0 0 5 -5 -5zm-3.23 10l0 -10 3.23 0 0 10 -3.23 0zm-25.54 -35.17l0.75 0 0 10 -0.75 0 0 -10zm0 5l0 5 -4.99 -5 4.99 0zm0 5l-4.99 0 0 -5 4.99 5zm5 -8.6l0 3.6 -9.99 0 0 -3.6 9.99 0zm-5 0l0 -4.99 5 4.99 -5 0zm0 -4.99l5 0 0 4.99 -5 -4.99zm-3.59 0l3.59 0 0 9.99 -3.59 0 0 -9.99zm0 4.99l0 5 -5 -5 5 0zm0 5l-5 0 0 -5 5 5zm4.99 -8.59l0 3.59 -9.99 0 0 -3.59 9.99 0zm-4.99 0l0 -5 4.99 5 -4.99 0zm0 -5l4.99 0 0 5 -4.99 -5zm-7.2 0l7.2 0 0 9.99 -7.2 0 0 -9.99zm0 5l0 4.99 -4.99 -4.99 4.99 0zm0 4.99l-4.99 0 0 -4.99 4.99 4.99zm5 -8.59l0 3.6 -9.99 0 0 -3.6 9.99 0zm-5 0l0 -4.99 5 4.99 -5 0zm0 -4.99l5 0 0 4.99 -5 -4.99zm-3.59 0l3.59 0 0 9.99 -3.59 0 0 -9.99zm0 4.99l0 5 -5 -5 5 0zm0 5l-5 0 0 -5 5 5zm4.99 -8.59l0 3.59 -9.99 0 0 -3.59 9.99 0zm-4.99 0l0 -5 4.99 5 -4.99 0zm0 -5l4.99 0 0 5 -4.99 -5zm-7.19 0l7.19 0 0 9.99 -7.19 0 0 -9.99zm0 5l0 4.99 -5 -4.99 5 0zm0 4.99l-5 0 0 -4.99 5 4.99zm4.99 -8.59l0 3.6 -9.99 0 0 -3.6 9.99 0zm-4.99 0l0 -5 4.99 5 -4.99 0zm0 -5l4.99 0 0 5 -4.99 -5zm-7.19 0l7.19 0 0 9.99 -7.19 0 0 -9.99zm0 5l0 4.99 -5 -4.99 5 0zm0 4.99l-5 0 0 -4.99 5 4.99zm4.99 -8.59l0 3.6 -9.99 0 0 -3.6 9.99 0zm-4.99 0l0 -4.99 4.99 4.99 -4.99 0zm0 -4.99l4.99 0 0 4.99 -4.99 -4.99zm-10.79 0l10.79 0 0 9.99 -10.79 0 0 -9.99zm0 4.99l0 5 -5 -5 5 0zm0 5l-5 0 0 -5 5 5zm4.99 -8.59l0 3.59 -9.99 0 0 -3.59 9.99 0zm-4.99 0l0 -5 4.99 5 -4.99 0zm0 -5l4.99 0 0 5 -4.99 -5zm-10.79 0l10.79 0 0 9.99 -10.79 0 0 -9.99zm0 5l0 4.99 -5 -4.99 5 0zm0 4.99l-5 0 0 -4.99 5 4.99zm5 -8.59l0 3.6 -10 0 0 -3.6 10 0zm-5 0l0 -5 5 5 -5 0zm0 -5l5 0 0 5 -5 -5zm-10.79 0l10.79 0 0 10 -10.79 0 0 -10zm0 5l0 5 -5 -5 5 0zm0 5l-5 0 0 -5 5 5zm5 -8.59l0 3.59 -10 0 0 -3.59 10 0zm-5 0l0 -5 5 5 -5 0zm0 -5l5 0 0 5 -5 -5zm-5.67 9.99l0 -9.99 5.67 0 0 9.99 -5.67 0zm-62.66 -13.59l16.3 0 0 9.99 -16.3 0 0 -9.99zm0 5l-4.99 0 4.99 -5 0 5zm-4.99 0l0 -5 4.99 0 -4.99 5zm0 3.6l0 -3.6 9.99 0 0 3.6 -9.99 0zm4.99 0l5 0 -5 4.99 0 -4.99zm5 0l0 4.99 -5 0 5 -4.99zm-5 -1116.95l7.19 0.02 0 4.23 -7.19 0.02 0 -4.27zm0 2.14l-2.13 0 2.13 -2.14 0 2.14zm-2.13 0l0 -2.14 2.13 0 -2.13 2.14zm-0.01 3.59l0.01 -3.59 4.27 0 0 3.59 -4.28 0zm2.14 0l2.14 0 -2.14 2.14 0 -2.14zm2.14 0l0 2.14 -2.14 0 2.14 -2.14zm-9.33 -2.15l7.19 0.01 0 4.28 -7.19 0.02 0 -4.31zm0 2.15l-2.16 0 2.16 -2.15 0 2.15zm-2.16 0l0 -2.15 2.16 0 -2.16 2.15zm0 3.6l0 -3.6 4.32 0 0.01 3.6 -4.33 0zm2.16 0l2.17 0 -2.17 2.17 0 -2.17zm2.17 0l0 2.17 -2.17 0 2.17 -2.17zm-5.77 -2.17l3.6 0 0 4.34 -3.6 0 0 -4.34zm0 2.17l-2.17 0 2.17 -2.17 0 2.17zm-2.17 0l0 -2.17 2.17 0 -2.17 2.17zm-0.01 3.59l0.01 -3.59 4.35 0 0 3.59 -4.36 0zm2.18 0l2.18 0 -2.18 2.18 0 -2.18zm2.18 0l0 2.18 -2.18 0 2.18 -2.18zm-5.77 -2.19l3.59 0.01 0 4.36 -3.59 0.01 0 -4.38zm0 2.19l-2.19 0 2.19 -2.19 0 2.19zm-2.19 0l0 -2.19 2.19 0 -2.19 2.19zm-0.01 3.6l0.01 -3.6 4.37 0 0.01 3.6 -4.39 0zm2.2 0l2.19 0 -2.19 2.2 0 -2.2zm2.19 0l0 2.2 -2.19 0 2.19 -2.2zm-5.79 -2.2l3.6 0 0 4.4 -3.6 0.01 0 -4.41zm0 2.2l-2.2 0 2.2 -2.2 0 2.2zm-2.2 0l0 -2.2 2.2 0 -2.2 2.2zm-0.02 7.19l0.02 -7.19 4.41 0 0.01 7.19 -4.44 0zm2.22 0l2.22 0 -2.22 2.22 0 -2.22zm2.22 0l0 2.22 -2.22 0 2.22 -2.22zm-5.43 2.23l0 -4.46 3.21 0.01 0 4.44 -3.21 0.01zm-17.15 48.12l0.04 -15.16 4.68 0 0.03 15.16 -4.75 0zm2.38 0l2.37 0 -2.37 2.38 0 -2.38zm2.37 0l0 2.38 -2.37 0 2.37 -2.38zm-5.96 -2.38l3.59 0.01 0 4.75 -3.59 0 0 -4.76zm0 2.38l-2.39 0 2.39 -2.38 0 2.38zm-2.39 0l0.03 -2.38 2.36 0 -2.39 2.38zm-0.02 10.79l0.02 -10.79 4.77 0 0.02 10.79 -4.81 0zm2.41 0l2.4 0 -2.4 2.41 0 -2.41zm2.4 0l0 2.33 -2.4 0.08 2.4 -2.41zm-6 -2.42l3.6 0.01 0 4.82 -3.6 0.01 0 -4.84zm0 2.42l-2.42 0 2.42 -2.42 0 2.42zm-2.42 0l0 -2.5 2.42 0.08 -2.42 2.42zm-0.05 21.58l0.05 -21.58 4.84 0 0.05 21.58 -4.94 0zm2.47 0l2.47 0 -2.47 2.46 0 -2.46zm2.47 0l0.01 2.46 -2.48 0 2.47 -2.46zm-6.07 -2.48l3.6 0.01 0 4.93 -3.6 0.01 0 -4.95zm0 2.48l-2.48 0 2.48 -2.48 0 2.48zm-2.48 0l0.01 -2.48 2.47 0 -2.48 2.48zm-0.08 35.95l0.08 -35.95 4.96 0 0.08 35.95 -5.12 0zm2.56 0l2.56 0 -2.56 2.56 0 -2.56zm2.56 0l0 2.56 -2.56 0 2.56 -2.56zm-6.15 -2.56l3.59 0.01 0 5.11 -3.59 0.01 0 -5.13zm0 2.56l-2.57 0 2.57 -2.56 0 2.56zm-2.57 0l0.01 -2.56 2.56 0 -2.57 2.56zm5.14 2.06l-5.15 0 0.01 -2.06 5.13 0 0.01 2.06zm-8.87 51.89l0.01 -5.53 5.38 0 0.01 5.53 -5.4 0zm2.7 0l2.7 0 -2.7 2.7 0 -2.7zm2.7 0l0.02 2.7 -2.72 0 2.7 -2.7zm-6.3 -2.71l3.6 0 0 5.41 -3.6 0.01 0 -5.42zm0 2.71l-2.71 0 2.71 -2.71 0 2.71zm-2.71 0l0 -2.71 2.71 0 -2.71 2.71zm5.52 40.83l-5.62 0 0.1 -40.83 5.42 0 0.1 40.83zm-9.39 70.65l0.06 -24.28 5.86 0 0.06 24.28 -5.98 0zm2.99 0l2.99 0 -2.99 2.99 0 -2.99zm2.99 0l0 2.99 -2.99 0 2.99 -2.99zm-6.59 -3l3.6 0.01 0 5.98 -3.6 0.01 0 -6zm0 3l-3 0 3 -3 0 3zm-3 0l0 -3 3 0 -3 3zm-0.04 17.98l0.04 -17.98 6 0 0.04 17.98 -6.08 0zm3.04 0l3.04 0 -3.04 3.04 0 -3.04zm3.04 0l0.02 3.04 -3.06 0 3.04 -3.04zm-6.64 -3.05l3.6 0.01 0 6.08 -3.6 0.01 0 -6.1zm0 3.05l-3.05 0 3.05 -3.05 0 3.05zm-3.05 0l0.01 -3.05 3.04 0 -3.05 3.05zm-0.07 32.36l0.07 -32.36 6.1 0 0.08 32.36 -6.25 0zm3.12 0l3.13 0 -3.13 3.13 0 -3.13zm3.13 0l0.01 3.13 -3.14 0 3.13 -3.13zm-6.72 -3.13l3.59 0.01 0 6.25 -3.59 0.01 0 -6.27zm0 3.13l-3.14 0 3.14 -3.13 0 3.13zm-3.14 0l0 -3.13 3.14 0 -3.14 3.13zm6.31 14.51l-6.34 0 0.03 -14.51 6.28 0 0.03 14.51zm-13.67 50.23l0.01 -7.47 6.59 0 0.01 7.47 -6.61 0zm3.31 0l3.3 0 -3.3 3.3 0 -3.3zm3.3 0l0.02 3.3 -3.32 0 3.3 -3.3zm-6.9 -3.32l3.6 0.01 0 6.61 -3.6 0.01 0 -6.63zm0 3.32l-3.31 0 3.31 -3.32 0 3.32zm-3.31 0l0 -3.32 3.31 0 -3.31 3.32zm-0.03 10.78l0.03 -10.78 6.63 0 0.02 10.78 -6.68 0zm3.34 0l3.34 0 -3.34 3.35 0 -3.35zm3.34 0l0.04 3.35 -3.38 0 3.34 -3.35zm-6.94 -3.35l3.6 0.01 0 6.69 -3.6 0 0 -6.7zm0 3.35l-3.35 0 3.35 -3.35 0 3.35zm-3.35 0l0 -3.35 3.35 0 -3.35 3.35zm6.76 24.52l-6.81 0 0.05 -24.52 6.71 0 0.05 24.52zm-17.76 58.2l0.04 -19.03 7.05 0 0.04 19.03 -7.13 0zm3.57 0l3.56 0 -3.56 3.57 0 -3.57zm3.56 0l0.02 3.57 -3.58 0 3.56 -3.57zm-7.16 -3.58l3.6 0.01 0 7.14 -3.6 0.01 0 -7.16zm0 3.58l-3.58 0 3.58 -3.58 0 3.58zm-3.58 0l0 -3.58 3.58 0 -3.58 3.58zm-0.04 17.98l0.04 -17.98 7.16 0 0.04 17.98 -7.24 0zm3.62 0l3.62 0 -3.62 3.62 0 -3.62zm3.62 0l0.02 3.62 -3.64 0 3.62 -3.62zm-7.22 -3.63l3.6 0.01 0 7.24 -3.6 0.01 0 -7.26zm0 3.63l-3.62 0 3.62 -3.63 0 3.63zm-3.62 0l0 -3.63 3.62 0 -3.62 3.63zm-0.05 21.58l0.05 -21.58 7.25 0 0.05 21.58 -7.35 0zm3.67 0l3.68 0 -3.68 3.67 0 -3.67zm3.68 0l0 3.55 -3.68 0.12 3.68 -3.67zm-7.27 -3.69l3.59 0.01 0 7.35 -3.59 0.01 0 -7.37zm0 3.69l-3.69 0 3.69 -3.69 0 3.69zm-3.69 0l0.03 -3.69 3.66 0 -3.69 3.69zm-0.04 17.97l0.04 -17.97 7.37 0 0.04 17.97 -7.45 0zm3.73 0l3.72 0 -3.72 3.73 0 -3.73zm3.72 0l0 3.73 -3.72 0 3.72 -3.73zm-7.32 -3.73l3.6 0.01 0 7.45 -3.6 0.01 0 -7.47zm0 3.73l-3.73 0 3.73 -3.73 0 3.73zm-3.73 0l0 -3.73 3.73 0 -3.73 3.73zm7.48 8.97l-7.5 0 0.02 -8.97 7.46 0 0.02 8.97zm-14.81 44.98l0 -2.21 7.73 0 0.01 2.21 -7.74 0zm3.87 0l3.87 0 -3.87 3.87 0 -3.87zm3.87 0l0.02 3.87 -3.89 0 3.87 -3.87zm-7.47 -3.88l3.6 0.01 0 7.74 -3.6 0 0 -7.75zm0 3.88l-3.88 0 3.88 -3.88 0 3.88zm-3.88 0l0.02 -3.88 3.86 0 -3.88 3.88zm-0.07 32.36l0.07 -32.36 7.76 0 0.07 32.36 -7.9 0zm3.95 0l3.95 0 -3.95 3.95 0 -3.95zm3.95 0l0.01 3.95 -3.96 0 3.95 -3.95zm-7.54 -3.95l3.59 0 0 7.9 -3.59 0.01 0 -7.91zm0 3.95l-3.96 0 3.96 -3.95 0 3.95zm-3.96 0l0.02 -3.95 3.94 0 -3.96 3.95zm7.93 8.2l-7.94 0 0.01 -8.2 7.91 0 0.02 8.2zm-15.29 67.32l0.05 -24.56 8.15 0 0.05 24.56 -8.25 0zm4.12 0l4.13 0 -4.13 4.13 0 -4.13zm4.13 0l0 4.13 -4.13 0 4.13 -4.13zm-7.72 -4.13l3.59 0 0 8.26 -3.59 0.01 0 -8.27zm0 4.13l-4.13 0 4.13 -4.13 0 4.13zm-4.13 0l0.01 -4.13 4.12 0 -4.13 4.13zm-0.07 32.37l0.07 -32.37 8.26 0 0.07 32.37 -8.4 0zm4.2 0l4.2 0 -4.2 4.2 0 -4.2zm4.2 0l0 4.2 -4.2 0 4.2 -4.2zm-7.8 -4.21l3.6 0.01 0 8.4 -3.6 0 0 -8.41zm0 4.21l-4.2 0 4.2 -4.21 0 4.21zm-4.2 0l0.01 -4.21 4.19 0 -4.2 4.21zm8.48 35.8l-8.55 0 0.07 -35.8 8.41 0 0.07 35.8zm-12.25 50.5l0.01 -4.14 8.73 0 0.01 4.14 -8.75 0zm4.37 0l4.38 0 -4.38 4.38 0 -4.38zm4.38 0l0 4.38 -4.38 0 4.38 -4.38zm-7.97 -4.38l3.59 0.01 0 8.75 -3.59 0.01 0 -8.77zm0 4.38l-4.38 0 4.38 -4.38 0 4.38zm-4.38 0l0.01 -4.38 4.37 0 -4.38 4.38zm8.84 42.23l-8.91 0 0.07 -42.23 8.76 0 0.08 42.23zm-12.62 62.06l0.03 -15.7 9.07 0 0.03 15.7 -9.13 0zm4.56 0l4.57 0 -4.57 4.56 0 -4.56zm4.57 0l0.01 4.56 -4.58 0 4.57 -4.56zm-8.16 -4.57l3.59 0.01 0 9.12 -3.59 0.01 0 -9.14zm0 4.57l-4.57 0 4.57 -4.57 0 4.57zm-4.57 0l0.01 -4.57 4.56 0 -4.57 4.57zm-0.1 68.33l0.1 -68.33 9.13 0 0.11 68.33 -9.34 0zm4.67 0l4.66 0 -4.66 4.67 0 -4.67zm4.67 0l0 4.67 -4.67 0 4.67 -4.67zm-8.27 -4.67l3.6 0 0 9.34 -3.6 0 0 -9.34zm0 4.67l-4.67 0 4.67 -4.67 0 4.67zm-4.67 0l0 -4.67 4.67 0 -4.67 4.67zm9.36 8.7l-9.37 0 0.01 -8.7 9.35 0 0.01 8.7zm-13.09 95.59l0.05 -49.23 9.5 0 0.06 49.23 -9.61 0zm4.8 0l4.81 0 -4.81 4.8 0 -4.8zm4.81 0l0.01 4.81 -4.82 0 4.81 -4.81zm-5.54 4.81l0 -9.62 0.73 0 0 9.62 -0.73 0zm-11.33 49.13l0.01 -10.44 9.72 0 0.01 10.44 -9.74 0zm4.87 0l4.87 0 -4.87 4.87 0 -4.87zm4.87 0l0.02 4.87 -4.89 0 4.87 -4.87zm-8.46 -4.87l3.59 0 0 9.74 -3.59 0 0 -9.74zm0 4.87l-4.88 0 4.88 -4.87 0 4.87zm-4.88 0l0.02 -4.87 4.86 0 -4.88 4.87zm-0.03 39.56l0.03 -39.56 9.75 0 0.03 39.56 -9.81 0zm4.91 0l4.9 0 -4.9 4.91 0 -4.91zm4.9 0l0.02 4.91 -4.92 0 4.9 -4.91zm-8.5 -4.91l3.6 0 0 9.82 -3.6 0 0 -9.82zm0 4.91l-4.91 0 4.91 -4.91 0 4.91zm-4.91 0l0 -4.91 4.91 0 -4.91 4.91zm-0.02 28.77l0.02 -28.77 9.82 0 0.02 28.77 -9.86 0zm4.93 0l4.93 0 -4.93 4.93 0 -4.93zm4.93 0l0 4.93 -4.93 0 4.93 -4.93zm-8.52 -4.94l3.59 0.01 0 9.86 -3.59 0 0 -9.87zm0 4.94l-4.94 0 4.94 -4.94 0 4.94zm-4.94 0l0 -4.94 4.94 0 -4.94 4.94zm9.87 10.36l-9.87 0 0 -10.36 9.87 0 0 10.36zm-13.51 61.56l0.01 -15.2 9.93 0 0.01 15.2 -9.95 0zm4.98 0l4.97 0 -4.97 4.97 0 -4.97zm4.97 0l0 4.97 -4.97 0 4.97 -4.97zm-8.57 -4.98l3.6 0.01 0 9.94 -3.6 0 0 -9.95zm0 4.98l-4.97 0 4.97 -4.97 0 4.97zm-4.97 0l0 -4.98 4.97 0 -4.97 4.98zm-0.01 17.98l0.01 -17.98 9.95 0 0 17.98 -9.96 0zm4.98 0l4.98 0 -4.98 4.98 0 -4.98zm4.98 0l0 4.98 -4.98 0 4.98 -4.98zm-8.57 -4.98l3.59 0 0 9.96 -3.59 0.01 0 -9.97zm0 4.98l-4.98 0 4.98 -4.98 0 4.98zm-4.98 0l0 -4.98 4.98 0 -4.98 4.98zm9.96 9.59l-9.97 0 0.01 -9.59 9.96 0 0 9.59zm-20.77 47.95l0 -8.78 9.99 0 0 8.78 -9.99 0zm5 0l4.99 0 -4.99 4.99 0 -4.99zm4.99 0l0 4.99 -4.99 0 4.99 -4.99zm-8.59 -5l3.6 0 0 9.99 -3.6 0.01 0 -10zm0 5l-4.99 0 4.99 -5 0 5zm-5 0l0 -5 5 0 -5 5zm0 14.39l0 -14.39 10 0 0 14.39 -10 0zm5 0l5 0 -5 4.99 0 -4.99zm5 0l0 4.99 -5 0 5 -4.99zm-8.6 -5l3.6 0 0 9.99 -3.6 0 0 -9.99zm0 5l-4.99 0 4.99 -5 0 5zm-4.99 0l0 -5 4.99 0 -4.99 5zm0 14.38l0 -14.38 9.99 0 0 14.38 -9.99 0zm4.99 0l5 0 -5 5 0 -5zm5 0l0 5 -5 0 5 -5zm-8.59 -4.99l3.59 0 0 9.99 -3.59 0 0 -9.99zm0 4.99l-4.99 0 4.99 -4.99 0 4.99zm-4.99 0l0 -4.99 4.99 0 -4.99 4.99zm0 14.38l0 -14.38 9.99 0 -0.01 14.38 -9.98 0zm4.99 0l4.99 0 -4.99 5 0 -5zm4.99 0l0 5 -4.99 0 4.99 -5zm-8.59 -4.99l3.6 0 0 9.99 -3.6 0 0 -9.99zm0 4.99l-4.99 0 4.99 -4.99 0 4.99zm-4.99 0l0 -4.99 4.99 0 -4.99 4.99zm0 14.39l0 -14.39 9.99 0 -0.01 14.39 -9.98 0zm4.99 0l4.99 0 -4.99 4.99 0 -4.99zm4.99 0l0 4.99 -4.99 0 4.99 -4.99zm-8.59 -4.99l3.6 0 0 9.98 -3.6 0 0 -9.98zm0 4.99l-4.98 0 4.98 -4.99 0 4.99zm-4.99 0l0 -4.99 4.99 0 -4.99 4.99zm9.98 15.61l-9.97 0 -0.01 -15.61 9.99 0 -0.01 15.61zm-20.74 52.72l0 -13.55 9.93 0 0 13.55 -9.93 0zm4.97 0l4.96 0 -4.96 4.96 0 -4.96zm4.96 0l0 4.96 -4.96 0 4.96 -4.96zm-8.56 -4.96l3.6 0 0 9.92 -3.6 0 0 -9.92zm0 4.96l-4.96 0 4.96 -4.96 0 4.96zm-4.96 0l0 -4.96 4.96 0 -4.96 4.96zm0.02 25.17l-0.02 -25.17 9.92 0 -0.01 25.17 -9.89 0zm4.94 0l4.95 0 -4.95 4.94 0 -4.94zm4.95 0l0 4.94 -4.95 0 4.95 -4.94zm-8.54 -4.95l3.59 0 0 9.89 -3.59 0 0 -9.89zm0 4.95l-4.95 0 4.95 -4.95 0 4.95zm-4.95 0l0 -4.95 4.95 0 -4.95 4.95zm9.89 4.05l-9.89 0 0 -4.05 9.89 0 0 4.05zm-17.03 60.68l-0.01 -17.91 9.81 0 -0.01 17.91 -9.79 0zm4.89 0l4.9 0 -4.9 4.89 0 -4.89zm4.9 0l0 4.89 -4.9 0 4.9 -4.89zm-8.49 -4.89l3.59 0 0 9.78 -3.59 0 0 -9.78zm0 4.89l-4.89 0 4.89 -4.89 0 4.89zm-4.89 0l0 -4.89 4.89 0 -4.89 4.89zm0.02 21.57l-0.02 -21.57 9.78 0 -0.02 21.57 -9.74 0zm4.87 0l4.87 0 -4.87 4.88 0 -4.88zm4.87 0l0 4.88 -4.87 0 4.87 -4.88zm-8.47 -4.86l3.6 -0.01 0 9.75 -3.6 -0.01 0 -9.73zm0 4.86l-4.87 0 4.87 -4.86 0 4.86zm-4.87 0l0 -4.7 4.87 -0.16 -4.87 4.86zm9.68 53.24l-9.62 0 -0.06 -53.24 9.74 0 -0.06 53.24zm-9.53 79.82l-0.03 -29.86 9.5 0 -0.03 29.86 -9.44 0zm4.72 0l0 4.72 -4.72 -4.72 4.72 0zm0 4.72l-4.72 0 0 -4.72 4.72 4.72zm3.6 0l-3.6 0 0 -9.44 3.6 0.01 0 9.43zm0 -4.72l0 -4.71 4.71 4.71 -4.71 0zm0 -4.71l4.71 0 0 4.71 -4.71 -4.71zm4.69 21.21l-9.38 0 -0.03 -16.5 9.43 0 -0.02 16.5zm-2.11 55.43l-0.01 -12.66 9.24 0 -0.02 12.66 -9.21 0zm4.61 0l0 4.6 -4.61 -4.6 4.61 0zm0 4.6l-4.61 0 0 -4.6 4.61 4.6zm3.6 -0.01l-3.6 0.01 0 -9.21 3.6 0.01 0 9.19zm0 -4.59l0 -4.6 4.59 4.6 -4.59 0zm0 -4.6l4.65 0 -0.06 4.6 -4.59 -4.6zm-4.59 15.38l-0.01 -10.78 9.19 0 -0.01 10.78 -9.17 0zm4.59 0l0 4.59 -4.59 -4.59 4.59 0zm0 4.59l-4.59 0 0 -4.59 4.59 4.59zm3.59 -0.01l-3.59 0.01 0 -9.17 3.59 0.01 0 9.15zm0 -4.58l0 -4.57 4.58 4.57 -4.58 0zm0 -4.57l4.58 0 0 4.57 -4.58 -4.57zm-4.56 11.77l-0.01 -7.2 9.15 0 -0.01 7.2 -9.13 0zm4.56 0l0 4.56 -4.56 -4.56 4.56 0zm0 4.56l-4.56 0 0 -4.56 4.56 4.56zm3.6 0l-3.6 0 0 -9.13 3.6 0.01 0 9.12zm0 -4.56l0 -4.56 4.56 4.56 -4.56 0zm0 -4.56l4.56 0 0 4.56 -4.56 -4.56zm-4.55 15.34l-0.01 -10.78 9.12 0 -0.02 10.78 -9.09 0zm4.55 0l0 4.55 -4.55 -4.55 4.55 0zm0 4.55l-4.5 0 -0.05 -4.55 4.55 4.55zm3.59 -0.01l-3.59 0.01 0 -9.09 3.59 0.01 0 9.07zm0 -4.54l0 -4.53 4.54 4.53 -4.54 0zm0 -4.53l4.62 0 -0.08 4.53 -4.54 -4.53zm-4.52 11.73l-0.01 -7.2 9.07 0 -0.01 7.2 -9.05 0zm4.52 0l0 4.52 -4.52 -4.52 4.52 0zm0 4.52l-4.52 0 0 -4.52 4.52 4.52zm3.6 0l-3.6 0 0 -9.05 3.6 0.01 0 9.04zm0 -4.52l0 -4.52 4.52 4.52 -4.52 0zm0 -4.52l4.52 0 0 4.52 -4.52 -4.52zm-4.51 8.11l-0.01 -3.59 9.04 0 -0.01 3.59 -9.02 0zm4.51 0l0 4.52 -4.51 -4.52 4.51 0zm0 4.52l-4.51 0 0 -4.52 4.51 4.52zm3.59 -0.01l-3.59 0.01 0 -9.03 3.59 0 0 9.02zm0 -4.51l0 -4.51 4.51 4.51 -4.51 0zm0 -4.51l4.51 0 0 4.51 -4.51 -4.51zm-4.5 8.11l0 -3.6 9.01 0 0 3.6 -9.01 0zm4.5 0l0 4.5 -4.5 -4.5 4.5 0zm0 4.5l-4.5 0 0 -4.5 4.5 4.5zm3.6 0l-3.6 0 0 -9 3.6 0 0 9zm0 -4.5l0 -4.5 4.5 4.5 -4.5 0zm0 -4.5l4.5 0 0 4.5 -4.5 -4.5zm-4.49 8.1l0 -3.6 8.99 0 -0.01 3.6 -8.98 0zm4.49 0l0 4.49 -4.49 -4.49 4.49 0zm0 4.49l-4.49 0 0 -4.49 4.49 4.49zm3.6 -0.01l-3.6 0.01 0 -8.98 3.6 0 0 8.97zm0 -4.48l0 -4.49 4.49 4.49 -4.49 0zm0 -4.49l4.49 0 0 4.49 -4.49 -4.49zm-4.48 8.08l0 -3.59 8.97 0 -0.01 3.59 -8.96 0zm4.48 0l0 4.48 -4.48 -4.48 4.48 0zm0 4.48l-4.48 0 0 -4.48 4.48 4.48zm3.59 -0.01l-3.59 0.01 0 -8.96 3.59 0.01 0 8.94zm0 -4.47l0 -4.47 4.47 4.47 -4.47 0zm0 -4.47l4.48 0 0 4.47 -4.48 -4.47zm-4.46 8.07l-0.01 -3.6 8.95 0 -0.01 3.6 -8.93 0zm4.46 0l0 4.46 -4.46 -4.46 4.46 0zm0 4.46l-4.46 0.08 0 -4.54 4.46 4.46zm0.96 -8.93l0 8.93 -0.96 0 0 -8.93 0.96 0zm42.2 26.81l-10.22 0.01 0 -8.75 10.22 0.02 0 8.72zm0 -4.36l0 -4.36 4.36 4.36 -4.36 0zm0 -4.36l4.36 0 0 4.36 -4.36 -4.36zm-4.35 7.95l-0.01 -3.59 8.72 0 -0.01 3.59 -8.7 0zm4.35 0l0 4.36 -4.35 -4.36 4.35 0zm0 4.36l-4.35 0 0 -4.36 4.35 4.36zm14.38 -0.03l-14.38 0.03 0 -8.71 14.38 0.03 0 8.65zm0 -4.33l0 -4.32 4.33 4.32 -4.33 0zm0 -4.32l4.33 0 0 4.32 -4.33 -4.32zm-4.32 7.92l0 -3.6 8.65 0 -0.01 3.6 -8.64 0zm4.32 0l0 4.32 -4.32 -4.32 4.32 0zm0 4.32l-4.32 0 0 -4.32 4.32 4.32zm17.98 -0.03l-17.98 0.03 0 -8.64 17.98 0.04 0 8.57zm0 -4.29l0 -4.28 4.29 4.28 -4.29 0zm0 -4.28l4.29 0 0 4.28 -4.29 -4.28zm4.29 4.46l-8.57 0 0 -0.18 8.57 0 0 0.18zm46.06 11.19l-7.4 0.01 0 -8.38 7.4 0.02 0 8.35zm0 -4.18l0 -4.17 4.18 4.17 -4.18 0zm0 -4.17l4.18 0 0 4.17 -4.18 -4.17zm-4.17 7.77l0 -3.6 8.35 0 -0.01 3.6 -8.34 0zm4.17 0l0 4.17 -4.17 -4.17 4.17 0zm0 4.17l-4.17 0.01 0 -4.18 4.17 4.17zm64.73 -0.13l-64.73 0.13 0 -8.34 64.73 0.14 0 8.07zm0 -4.04l0 -4.03 4.04 4.03 -4.04 0zm0 -4.03l4.04 0 0 4.03 -4.04 -4.03zm-4.03 7.62l0 -3.59 8.07 0 -0.01 3.59 -8.06 0zm4.03 0l0 4.03 -4.03 -4.03 4.03 0zm0 4.03l-4.03 0.01 0 -4.04 4.03 4.03zm20.6 -8.01l0 7.97 -20.6 0.04 0 -8.05 20.6 0.04zm99.92 0.22l0 7.53 -49.96 0.11 0 -7.75 49.96 0.11zm84.46 3.74l-38.09 0.09 0 -7.31 38.09 0.08 0 7.14zm0 -3.57l3.57 0 -3.57 3.57 0 -3.57zm3.57 0l0 3.57 -3.57 0 3.57 -3.57zm-0.01 -3.6l0.01 3.6 -7.14 0 0.01 -3.6 7.12 0zm-3.56 0l-3.56 0 3.56 -3.56 0 3.56zm-3.56 0l0 -3.57 3.56 0.01 -3.56 3.56zm46.72 3.46l-43.16 0.1 0 -7.12 43.16 0.1 0 6.92zm0 -3.46l3.46 0 -3.46 3.46 0 -3.46zm3.46 0l0.11 3.46 -3.57 0 3.46 -3.46zm-0.01 -3.59l0.01 3.59 -6.92 0 0.01 -3.59 6.9 0zm-3.45 0l-3.45 0 3.45 -3.45 0 3.45zm-3.45 0l0.11 -3.45 3.34 0 -3.45 3.45zm14.92 -3.43l0 6.85 -11.47 0.03 0 -6.9 11.47 0.02zm38.57 -14.55l0.01 3.29 -6.61 0 0.01 -3.29 6.59 0zm-3.29 0l-3.3 0 3.3 -3.3 0 3.3zm-3.3 0l0 -3.3 3.3 0 -3.3 3.3zm6.89 3.29l-3.59 0 0 -6.59 3.59 0.01 0 6.58zm0 -3.29l3.29 0 -3.29 3.29 0 -3.29zm3.29 0l0 3.29 -3.29 0 3.29 -3.29zm-0.01 -3.6l0.01 3.6 -6.58 0 0.01 -3.6 6.56 0zm-3.28 0l-3.28 0 3.28 -3.28 0 3.28zm-3.28 0l0 -3.28 3.28 0 -3.28 3.28zm6.88 3.27l-3.6 0.01 0 -6.56 3.6 0.01 0 6.54zm0 -3.27l3.27 0 -3.27 3.27 0 -3.27zm3.27 0l0 3.16 -3.27 0.11 3.27 -3.27zm-0.01 -3.59l0.01 3.59 -6.54 0 0.01 -3.59 6.52 0zm-3.26 0l-3.26 0 3.26 -3.27 0 3.27zm-3.26 0l0 -3.27 3.26 0 -3.26 3.27zm6.85 3.25l-3.59 0.01 0 -6.53 3.59 0.01 0 6.51zm0 -3.25l3.26 0 -3.26 3.25 0 -3.25zm3.26 0l0 3.25 -3.26 0 3.26 -3.25zm-0.01 -3.6l0.01 3.6 -6.51 0 0.01 -3.6 6.49 0zm-3.25 0l-3.24 0 3.24 -3.25 0 3.25zm-3.24 0l0 -3.25 3.24 0 -3.24 3.25zm6.84 3.24l-3.6 0.01 0 -6.5 3.6 0.01 0 6.48zm0 -3.24l3.24 0 -3.24 3.24 0 -3.24zm3.24 0l0 3.13 -3.24 0.11 3.24 -3.24zm-0.01 -3.6l0.01 3.6 -6.48 0 0.01 -3.6 6.46 0zm-3.23 0l-3.23 0 3.23 -3.23 0 3.23zm-3.23 0l0 -3.23 3.23 0 -3.23 3.23zm6.83 3.22l-3.6 0.01 0 -6.46 3.6 0.01 0 6.44zm0 -3.22l3.22 0 -3.22 3.22 0 -3.22zm3.22 0l0 3.22 -3.22 0 3.22 -3.22zm-0.02 -7.19l0.02 7.19 -6.44 0 0.01 -7.19 6.41 0zm-3.2 0l-3.21 0 3.21 -3.2 0 3.2zm-3.21 0l0.06 -3.2 3.15 0 -3.21 3.2zm6.8 3.2l-3.59 0 0 -6.4 3.59 0 0 6.4zm0 -3.2l3.2 0 -3.2 3.2 0 -3.2zm3.2 0l0 3.2 -3.2 0 3.2 -3.2zm-6.39 -3.51l6.38 0 0.01 3.51 -6.39 0 0 -3.51zm11.15 -139.09l5.66 0 0.24 99.92 -6.14 0 0.24 -99.92zm5.44 -91.15l0.1 41.19 -5.42 0 0.1 -41.19 5.22 0zm-2.61 0l0 -2.61 2.61 2.61 -2.61 0zm0 -2.61l2.61 0 0 2.61 -2.61 -2.61zm-3.59 0.01l3.59 -0.01 0 5.22 -3.59 0 0 -5.21zm0 2.6l0 2.61 -2.61 -2.61 2.61 0zm0 2.61l-2.61 0 0 -2.61 2.61 2.61zm-2.59 -7.78l5.18 0 0.01 5.17 -5.21 0 0.02 -5.17zm1.38 -84.73l0.08 38.37 -4.95 0 0.09 -38.37 4.78 0zm-2.39 0l0 -2.39 2.39 2.39 -2.39 0zm0 -2.39l2.38 0 0.01 2.39 -2.39 -2.39zm-3.6 0.01l3.6 -0.01 0 4.77 -3.6 -0.01 0 -4.75zm0 2.38l0 2.37 -2.38 -2.37 2.38 0zm0 2.37l-2.38 -0.08 0 -2.29 2.38 2.37zm2.35 -16.76l0.03 14.39 -4.76 0 0.04 -14.39 4.69 0zm-2.35 0l0 -2.34 2.35 2.34 -2.35 0zm0 -2.34l2.35 0 0 2.34 -2.35 -2.34zm-3.59 0.01l3.59 -0.01 0 4.69 -3.59 -0.01 0 -4.67zm0 2.33l0 2.34 -2.34 -2.34 2.34 0zm0 2.34l-2.35 0 0.01 -2.34 2.34 2.34zm2.27 -31.11l0.07 28.77 -4.68 0 0.07 -28.77 4.54 0zm-2.27 0l0 -2.27 2.27 2.27 -2.27 0zm0 -2.27l2.27 -0.08 0 2.35 -2.27 -2.27zm-3.6 0.01l3.6 -0.01 0 4.55 -3.6 -0.01 0 -4.53zm0 2.26l0 2.27 -2.26 -2.27 2.26 0zm0 2.27l-2.28 0 0.02 -2.27 2.26 2.27zm-2.25 -9.87l4.5 0 0.02 7.6 -4.53 0 0.01 -7.6zm-2.82 -49.93l0.02 7.16 -4.28 0 0.02 -7.16 4.24 0zm-2.12 0l0 -2.12 2.12 2.12 -2.12 0zm0 -2.12l2.1 0 0.02 2.12 -2.12 -2.12zm-3.6 0l3.6 0 0 4.24 -3.6 -0.01 0 -4.23zm0 2.12l0 2.11 -2.11 -2.11 2.11 0zm0 2.11l-2.13 0 0.02 -2.11 2.11 2.11zm2.08 -20.1l0.04 17.99 -4.23 0 0.04 -17.99 4.15 0zm-2.08 0l0 -2.07 2.08 2.07 -2.08 0zm0 -2.07l2.08 0 0 2.07 -2.08 -2.07zm-3.59 0.01l3.59 -0.01 0 4.15 -3.59 -0.01 0 -4.13zm0 2.06l0 2.07 -2.07 -2.07 2.07 0zm0 2.07l-2.07 0 0 -2.07 2.07 2.07zm2.04 -12.86l0.02 10.79 -4.13 0 0.02 -10.79 4.09 0zm-2.04 0l0 -2.04 2.04 2.04 -2.04 0zm0 -2.04l2.04 0 0 2.04 -2.04 -2.04zm-3.6 0.01l3.6 -0.01 0 4.09 -3.6 -0.01 0 -4.07zm0 2.03l0 2.04 -2.03 -2.04 2.03 0zm0 2.04l-2.03 0 0 -2.04 2.03 2.04zm-2.03 -5.27l4.06 0 0.01 3.23 -4.07 0 0 -3.23zm-8.76 -41.84l0.75 0 0 3.84 -0.75 0 0 -3.84zm0 1.92l0 1.92 -1.92 -1.92 1.92 0zm0 1.92l-1.92 0 0 -1.92 1.92 1.92zm1.91 -9.11l0.02 7.19 -3.85 0 0.02 -7.19 3.81 0zm-1.91 0l0 -1.91 1.91 1.91 -1.91 0zm0 -1.91l1.91 0 0 1.91 -1.91 -1.91zm-3.59 0.01l3.59 -0.01 0 3.82 -3.59 -0.01 0 -3.8zm0 1.9l0 1.9 -1.91 -1.9 1.91 0zm0 1.9l-1.92 0 0.01 -1.9 1.91 1.9zm1.87 -16.29l0.03 14.39 -3.81 0 0.03 -14.39 3.75 0zm-1.87 0l0 -1.87 1.87 1.87 -1.87 0zm0 -1.87l1.87 0 0 1.87 -1.87 -1.87zm-3.6 0.01l3.6 -0.01 0 3.74 -3.6 0 0 -3.73zm0 1.86l0 1.87 -1.87 -1.87 1.87 0zm0 1.87l-1.87 0 0 -1.87 1.87 1.87zm1.83 -16.25l0.03 14.38 -3.73 0 0.03 -14.38 3.67 0zm-1.83 0l0 -1.83 1.83 1.83 -1.83 0zm0 -1.83l1.82 0 0.01 1.83 -1.83 -1.83zm-3.6 0l3.6 0 0 3.67 -3.6 -0.01 0 -3.66zm0 1.83l0 1.83 -1.82 -1.83 1.82 0zm0 1.83l-1.82 0 0 -1.83 1.82 1.83zm1.8 -16.22l0.03 14.39 -3.65 0 0.02 -14.39 3.6 0zm-1.8 0l0 -1.79 1.8 1.79 -1.8 0zm0 -1.79l1.79 0 0.01 1.79 -1.8 -1.79zm-3.59 0l3.59 0 0 3.59 -3.59 0 0 -3.59zm0 1.79l0 1.8 -1.8 -1.8 1.8 0zm0 1.8l-1.8 0 0 -1.8 1.8 1.8zm-1.73 -36.24l3.45 0 0.07 34.44 -3.59 0 0.07 -34.44zm-3.91 -87.83l0.08 45.06 -3.27 0 0.08 -45.06 3.11 0zm-1.55 0l0 -1.55 1.55 1.55 -1.55 0zm0 -1.55l1.55 0 0 1.55 -1.55 -1.55zm-3.6 0.01l3.6 -0.01 0 3.11 -3.6 -0.01 0 -3.09zm0 1.54l0 1.55 -1.55 -1.55 1.55 0zm0 1.55l-1.55 0 0 -1.55 1.55 1.55zm-1.55 -2.85l3.09 0 0.01 1.3 -3.1 0 0 -1.3zm-0.64 -77.81l0.05 31.45 -2.92 0 0.05 -31.45 2.82 0zm-1.41 0l0 -1.41 1.41 1.41 -1.41 0zm0 -1.41l1.41 0 0 1.41 -1.41 -1.41zm-3.59 0l3.59 0 0 2.83 -3.59 -0.01 0 -2.82zm0 1.41l0 1.41 -1.41 -1.41 1.41 0zm0 1.41l-1.42 0 0.01 -1.41 1.41 1.41zm1.34 -44.56l0.07 43.15 -2.82 0 0.06 -43.15 2.69 0zm-1.34 0l0 -1.35 1.34 1.35 -1.34 0zm0 -1.35l1.34 0 0 1.35 -1.34 -1.35zm-3.6 0.01l3.6 -0.01 0 2.69 -3.6 0 0 -2.68zm0 1.34l0 1.34 -1.34 -1.34 1.34 0zm0 1.34l-1.34 0 0 -1.34 1.34 1.34zm-1.32 -19.47l2.64 0 0.02 18.13 -2.68 0 0.02 -18.13zm-2.28 -47.85l0.25 0 0 2.5 -0.25 0 0 -2.5zm0 1.25l0 1.25 -1.25 -1.25 1.25 0zm0 1.25l-1.25 0 0 -1.25 1.25 1.25zm1.22 -30.02l0.03 28.77 -2.5 0 0.04 -28.77 2.43 0zm-1.22 0l0 -1.22 1.22 1.22 -1.22 0zm0 -1.22l1.21 0 0.01 1.22 -1.22 -1.22zm-3.59 0.01l3.59 -0.01 0 2.43 -3.59 0 0 -2.42zm0 1.21l0 1.21 -1.21 -1.21 1.21 0zm0 1.21l-1.21 0 0 -1.21 1.21 1.21zm-1.19 -18.56l2.38 0 0.02 17.35 -2.42 0 0.02 -17.35zm-1.29 -72.56l0.02 26.19 -2.28 0 0.03 -26.19 2.23 0zm-1.12 0l0 -1.11 1.12 1.11 -1.12 0zm0 -1.11l1.11 0 0.01 1.11 -1.12 -1.11zm-3.6 0l3.6 0 0 2.23 -3.6 0 0 -2.23zm0 1.11l0 1.12 -1.11 -1.12 1.11 0zm0 1.12l-1.11 0 0 -1.12 1.11 1.12zm1.07 -62.25l0.05 61.13 -2.23 0 0.05 -61.13 2.13 0zm-1.07 0l0 -1.07 1.07 1.07 -1.07 0zm0 -1.07l1.07 0 0 1.07 -1.07 -1.07zm-3.59 0l3.59 0 0 2.13 -3.59 0 0 -2.13zm0 1.07l0 1.06 -1.06 -1.06 1.06 0zm0 1.06l-1.07 0 0.01 -1.06 1.06 1.06zm-1.06 -6.46l2.12 0 0 5.4 -2.12 0 0 -5.4zm-1.52 -80.91l0.02 34.54 -2.07 0 0.02 -34.54 2.03 0zm-1.02 0l0 -1.01 1.02 1.01 -1.02 0zm0 -1.01l1.02 0 0 1.01 -1.02 -1.01zm-3.59 0l3.59 0 0 2.03 -3.59 0 0 -2.03zm0 1.01l0 1.02 -1.02 -1.02 1.02 0zm0 1.02l-1.02 -0.04 0 -0.98 1.02 1.02zm-1.02 -12.84l2.03 0 0 11.82 -2.03 0 0 -11.82zm-1.58 -63.7l0 17.34 -2 0 0 -17.34 2 0zm-1 0l0 -1 1 1 -1 0zm0 -1l1 0 0 1 -1 -1zm-3.6 0l3.6 0 0 2 -3.6 0 0 -2zm0 1l0 1 -0.99 -1 0.99 0zm0 1l-0.99 0 0 -1 0.99 1zm-0.99 -12.03l1.99 0 0 0.69 0 0.69 0 0.69 0 0.69 0 0.69 0 0.69 0 0.69 0 0.68 0 0.7 0 0.69 0 0.68 0 0.7 0 0.68 0 0.69 0 0.69 0 0.69 -1.99 0 0 -0.69 0 -0.69 0 -0.69 0 -0.68 0 -0.7 0 -0.68 0 -0.69 0 -0.7 0 -0.68 0 -0.69 0 -0.69 0 -0.69 0 -0.69 0 -0.69 0 -0.69 0 -0.69zm-0.01 -32.12l2.01 0 0 2.01 0 2.01 0 2 0 2.01 -0.01 2.01 0 2 0 2.01 0 2.01 0 2.01 0 2 0 2.01 0 2.01 0 2 0 2.01 0 2.01 0 2.01 -1.99 0 0 -2.01 0 -2.01 0 -2.01 0 -2 0 -2.01 0 -2.01 0 -2 0 -2.01 0 -2.01 0 -2.01 0 -2 -0.01 -2.01 0 -2.01 0 -2 0 -2.01 0 -2.01zm1 0l0 -1 1.01 1 -1.01 0zm0 -1l1.01 0 0 1 -1.01 -1zm-3.59 0l3.59 0 0 2 -3.59 0 0 -2zm0 1l0 1 -1.01 -1 1.01 0zm0 1l-1.01 0 0 -1 1.01 1zm1 -26.17l0 25.17 -2.01 0 0 -25.17 2.01 0zm-1 0l0 -1.01 1 1.01 -1 0zm0 -1.01l1 0 0 1.01 -1 -1.01zm-3.6 0l3.6 0 0 2.01 -3.6 0 0 -2.01zm0 1.01l0 1 -1 -1 1 0zm0 1l-1 0 0 -1 1 1zm-1 -4.47l2.01 0 0 3.47 -2.01 0 0 -3.47zm-1.55 -75.65l-0.02 29.28 -2.05 0 -0.01 -29.28 2.08 0zm-1.04 0l0 -1.04 1.04 1.04 -1.04 0zm0 -1.04l1.04 0 0 1.04 -1.04 -1.04zm-3.6 0l3.6 0 0 2.08 -3.6 0 0 -2.08zm0 1.04l0 1.04 -1.04 -1.04 1.04 0zm0 1.04l-1.04 0 0 -1.04 1.04 1.04zm-1.05 -18.12l2.1 0 -0.01 17.08 -2.08 0 -0.01 -17.08zm-1.46 -47.65l0 1.29 -2.17 0 0 -1.29 2.17 0zm-1.09 0l0 -1.09 1.09 1.09 -1.09 0zm0 -1.09l1.09 0 0 1.09 -1.09 -1.09zm-3.59 0l3.59 0 0 2.17 -3.59 0.01 0 -2.18zm0 1.09l0 1.09 -1.09 -1.09 1.09 0zm0 1.09l-1.09 0 0 -1.09 1.09 1.09zm1.1 -22.67l-0.01 21.58 -2.18 0 -0.02 -21.58 2.21 0zm-1.1 0l0 -1.11 1.1 1.11 -1.1 0zm0 -1.11l1.11 0 -0.01 1.11 -1.1 -1.11zm-3.6 0l3.6 0 0 2.22 -3.6 0 0 -2.22zm0 1.11l0 1.11 -1.11 -1.11 1.11 0zm0 1.11l-1.11 0 0 -1.11 1.11 1.11zm1.14 -29.88l-0.03 28.77 -2.22 0 -0.03 -28.77 2.28 0zm-1.14 0l0 -1.13 1.14 1.13 -1.14 0zm0 -1.13l1.14 0 0 1.13 -1.14 -1.13zm-3.59 -0.01l3.59 0.01 0 2.27 -3.59 0 0 -2.28zm0 1.14l0 1.14 -1.14 -1.14 1.14 0zm0 1.14l-1.14 0 0 -1.14 1.14 1.14zm1.16 -29.9l-0.02 28.76 -2.28 0 -0.03 -28.76 2.33 0zm-1.16 0l0 -1.17 1.16 1.17 -1.16 0zm0 -1.17l1.17 0 -0.01 1.17 -1.16 -1.17zm-3.6 -0.01l3.6 0.01 0 2.33 -3.6 0.01 0 -2.35zm0 1.18l0 1.17 -1.17 -1.17 1.17 0zm0 1.17l-1.17 0 0 -1.17 1.17 1.17zm-1.18 -6.31l2.36 0 -0.01 5.14 -2.34 0 -0.01 -5.14zm-4.76 -56l-0.02 13.24 -2.47 0 -0.01 -13.24 2.5 0zm-1.25 0l0 -1.25 1.25 1.25 -1.25 0zm0 -1.25l1.25 0 0 1.25 -1.25 -1.25zm-3.6 -0.01l3.6 0.01 0 2.5 -3.6 0 0 -2.51zm0 1.26l0 1.25 -1.25 -1.25 1.25 0zm0 1.25l-1.25 0 0 -1.25 1.25 1.25zm1.28 -19.23l-0.02 17.98 -2.51 0 -0.03 -17.98 2.56 0zm-1.28 0l0 -1.28 1.28 1.28 -1.28 0zm0 -1.28l1.29 0 -0.01 1.28 -1.28 -1.28zm-3.6 0l3.6 0 0 2.56 -3.6 0 0 -2.56zm0 1.28l0 1.28 -1.28 -1.28 1.28 0zm0 1.28l-1.28 0 0 -1.28 1.28 1.28zm-1.3 -12.83l2.6 0 -0.01 11.55 -2.57 0 -0.02 -11.55zm-4.52 -45.99l0 3.22 -2.74 0 0 -3.22 2.74 0zm-1.37 0l0 -1.37 1.37 1.37 -1.37 0zm0 -1.37l1.37 0 0 1.37 -1.37 -1.37zm-3.6 -0.01l3.6 0.01 0 2.74 -3.6 0.01 0 -2.76zm0 1.38l0 1.38 -1.37 -1.38 1.37 0zm0 1.38l-1.36 0 -0.01 -1.38 1.37 1.38zm1.4 -15.76l-0.02 14.38 -2.75 0 -0.03 -14.38 2.8 0zm-1.4 0l0 -1.4 1.4 1.4 -1.4 0zm0 -1.4l1.42 0 -0.02 1.4 -1.4 -1.4zm-3.59 -0.01l3.59 0.01 0 2.8 -3.59 0 0 -2.81zm0 1.41l0 1.4 -1.4 -1.4 1.4 0zm0 1.4l-1.4 0 0 -1.4 1.4 1.4zm1.43 -15.79l-0.02 14.39 -2.81 0 -0.03 -14.39 2.86 0zm-1.43 0l0 -1.43 1.43 1.43 -1.43 0zm0 -1.43l1.43 0 0 1.43 -1.43 -1.43zm-3.6 0l3.6 0 0 2.86 -3.6 0 0 -2.86zm0 1.43l0 1.43 -1.43 -1.43 1.43 0zm0 1.43l-1.43 0 0 -1.43 1.43 1.43zm1.46 -15.82l-0.02 14.39 -2.87 0 -0.02 -14.39 2.91 0zm-1.46 0l0 -1.45 1.46 1.45 -1.46 0zm0 -1.45l1.46 0 0 1.45 -1.46 -1.45zm-3.59 -0.01l3.59 0.01 0 2.91 -3.59 0.01 0 -2.93zm0 1.46l0 1.47 -1.46 -1.47 1.46 0zm0 1.47l-1.46 0 0 -1.47 1.46 1.47zm1.48 -15.85l-0.02 14.38 -2.92 0 -0.03 -14.38 2.97 0zm-1.48 0l0 -1.48 1.48 1.48 -1.48 0zm0 -1.48l1.49 0 -0.01 1.48 -1.48 -1.48zm-3.6 -0.01l3.6 0.01 0 2.97 -3.6 0 0 -2.98zm0 1.49l0 1.49 -1.49 -1.49 1.49 0zm0 1.49l-1.49 0 0 -1.49 1.49 1.49zm1.52 -15.87l-0.03 14.38 -2.98 0 -0.02 -14.38 3.03 0zm-1.52 0l0 -1.52 1.52 1.52 -1.52 0zm0 -1.52l1.52 0 0 1.52 -1.52 -1.52zm-3.6 0l3.6 0 0 3.03 -3.6 0.01 0 -3.04zm0 1.52l0 1.52 -1.52 -1.52 1.52 0zm0 1.52l-1.52 0 0 -1.52 1.52 1.52zm-1.52 -4.72l3.05 0 -0.01 3.2 -3.04 0 0 -3.2zm-7.64 -43.56l-0.01 4.39 -3.23 0 0 -4.39 3.24 0zm-1.62 0l0 -1.62 1.62 1.62 -1.62 0zm0 -1.62l1.62 0 0 1.62 -1.62 -1.62zm-3.6 0l3.6 0 0 3.25 -3.6 0 0 -3.25zm0 1.62l0 1.63 -1.63 -1.63 1.63 0zm0 1.63l-1.61 0 -0.02 -1.63 1.63 1.63zm1.65 -12.41l-0.02 10.78 -3.26 0 -0.02 -10.78 3.3 0zm-1.65 0l0 -1.65 1.65 1.65 -1.65 0zm0 -1.65l1.65 0 0 1.65 -1.65 -1.65zm-3.59 -0.01l3.59 0.01 0 3.29 -3.59 0.01 0 -3.31zm0 1.66l0 1.65 -1.66 -1.65 1.66 0zm0 1.65l-1.66 0.06 0 -1.71 1.66 1.65zm1.68 -16.04l-0.03 14.39 -3.31 0 -0.02 -14.39 3.36 0zm-1.68 0l0 -1.67 1.68 1.67 -1.68 0zm0 -1.67l1.68 0 0 1.67 -1.68 -1.67zm-3.6 -0.01l3.6 0.01 0 3.35 -3.6 0.01 0 -3.37zm0 1.68l0 1.69 -1.69 -1.69 1.69 0zm0 1.69l-1.69 0 0 -1.69 1.69 1.69zm-1.71 -11.3l3.41 0 -0.02 9.61 -3.37 0 -0.02 -9.61zm-10.87 -40.73l-0.01 5.16 -3.6 0 -0.01 -5.16 3.62 0zm-1.81 0l0 -1.81 1.81 1.81 -1.81 0zm0 -1.81l1.81 0 0 1.81 -1.81 -1.81zm-3.59 -0.01l3.59 0.01 0 3.62 -3.59 0 0 -3.63zm0 1.82l0 1.81 -1.82 -1.81 1.82 0zm0 1.81l-1.82 0 0 -1.81 1.82 1.81zm1.83 -9l-0.01 7.19 -3.64 0 -0.01 -7.19 3.66 0zm-1.83 0l0 -1.84 1.83 1.84 -1.83 0zm0 -1.84l1.83 0 0 1.84 -1.83 -1.84zm-3.6 0l3.6 0 0 3.67 -3.6 0 0 -3.67zm0 1.84l0 1.83 -1.84 -1.83 1.84 0zm0 1.83l-1.81 0 -0.03 -1.83 1.84 1.83zm1.85 -9.03l-0.01 7.2 -3.68 0 -0.01 -7.2 3.7 0zm-1.85 0l0 -1.85 1.85 1.85 -1.85 0zm0 -1.85l1.89 0 -0.04 1.85 -1.85 -1.85zm-3.6 -0.01l3.6 0.01 0 3.71 -3.6 0.01 0 -3.73zm0 1.86l0 1.87 -1.86 -1.87 1.86 0zm0 1.87l-1.86 0 0 -1.87 1.86 1.87zm1.88 -9.06l-0.01 7.19 -3.73 0 -0.01 -7.19 3.75 0zm-1.88 0l0 -1.88 1.88 1.88 -1.88 0zm0 -1.88l1.88 0 0 1.88 -1.88 -1.88zm-3.59 0l3.59 0 0 3.75 -3.59 0.01 0 -3.76zm0 1.88l0 1.88 -1.88 -1.88 1.88 0zm0 1.88l-1.88 0 0 -1.88 1.88 1.88zm1.9 -9.07l-0.02 7.19 -3.76 0 -0.02 -7.19 3.8 0zm-1.9 0l0 -1.9 1.9 1.9 -1.9 0zm0 -1.9l1.9 0 0 1.9 -1.9 -1.9zm-3.6 -0.01l3.6 0.01 0 3.8 -3.6 0 0 -3.81zm0 1.91l0 1.9 -1.9 -1.9 1.9 0zm0 1.9l-1.9 0 0 -1.9 1.9 1.9zm1.92 -9.09l-0.01 7.19 -3.81 0 -0.02 -7.19 3.84 0zm-1.92 0l0 -1.92 1.92 1.92 -1.92 0zm0 -1.92l1.92 0.06 0 1.86 -1.92 -1.92zm-3.59 -0.01l3.59 0.01 0 3.84 -3.59 0 0 -3.85zm0 1.93l0 1.92 -1.93 -1.92 1.93 0zm0 1.92l-1.93 0 0 -1.92 1.93 1.92zm1.94 -9.12l-0.02 7.2 -3.85 0 -0.02 -7.2 3.89 0zm-1.94 0l0 -1.94 1.94 1.94 -1.94 0zm0 -1.94l1.94 0 0 1.94 -1.94 -1.94zm-3.6 -0.01l3.6 0.01 0 3.88 -3.6 0.01 0 -3.9zm0 1.95l0 1.95 -1.95 -1.95 1.95 0zm0 1.95l-1.95 0 0 -1.95 1.95 1.95zm1.96 -5.54l-0.01 3.59 -3.9 0 0 -3.59 3.91 0zm-1.96 0l0 -1.96 1.96 1.96 -1.96 0zm0 -1.96l1.96 0 0 1.96 -1.96 -1.96zm-3.6 0l3.6 0 0 3.92 -3.6 0 0 -3.92zm0 1.96l0 1.96 -1.96 -1.96 1.96 0zm0 1.96l-1.96 0 0 -1.96 1.96 1.96zm1.98 -5.56l-0.01 3.6 -3.93 0 -0.01 -3.6 3.95 0zm-1.98 0l0 -1.97 1.98 1.97 -1.98 0zm0 -1.97l1.98 0 0 1.97 -1.98 -1.97zm-3.59 -0.01l3.59 0.01 0 3.94 -3.59 0.01 0 -3.96zm0 1.98l0 1.98 -1.98 -1.98 1.98 0zm0 1.98l-1.98 0 0 -1.98 1.98 1.98zm1.98 -5.58l0 3.6 -3.96 0 -0.01 -3.6 3.97 0zm-1.98 0l0 -1.98 1.98 1.98 -1.98 0zm0 -1.98l1.98 0 0 1.98 -1.98 -1.98zm-3.6 -0.01l3.6 0.01 0 3.97 -3.6 0.01 0 -3.99zm0 1.99l0 2 -1.99 -2 1.99 0zm0 2l-1.99 0 0 -2 1.99 2zm2.01 -5.59l-0.01 3.59 -3.99 0 -0.01 -3.59 4.01 0zm-2.01 0l0 -2 2.01 2 -2.01 0zm0 -2l2.01 0.07 0 1.93 -2.01 -2zm-1.26 4.01l0 -4.01 1.26 0 0 4 -1.26 0.01zm-40.42 -9.2l0.01 -2.73 4.22 0 0.01 2.73 -4.24 0zm2.12 0l2.12 0 -2.12 2.11 0 -2.11zm2.12 0l0 2.11 -2.12 0 2.12 -2.11z"/>
  </g>
 </g>
</svg>
