<?xml version="1.0" encoding="UTF-8"?>
<!DOCTYPE svg PUBLIC "-//W3C//DTD SVG 1.1//EN" "http://www.w3.org/Graphics/SVG/1.1/DTD/svg11.dtd">
<!-- Creator: CorelDRAW (Versión OEM) -->
<svg xmlns="http://www.w3.org/2000/svg" xml:space="preserve" width="60.3376mm" height="173.699mm" version="1.1" style="shape-rendering:geometricPrecision; text-rendering:geometricPrecision; image-rendering:optimizeQuality; fill-rule:evenodd; clip-rule:evenodd"
viewBox="0 0 6033.76 17369.86"
 xmlns:xlink="http://www.w3.org/1999/xlink"
 xmlns:xodm="http://www.corel.com/coreldraw/odm/2003">
 <defs>
  <style type="text/css">
   <![CDATA[
    .str0 {stroke:#D2D3D5;stroke-width:135.47;stroke-miterlimit:22.9256;stroke-dasharray:677.350000 677.350000 1354.700000 677.350000}
    .fil0 {fill:none}
   ]]>
  </style>
 </defs>
 <g id="unerupted">
  <metadata id="CorelCorpID_0Corel-Layer"/>
  <polyline id="root" class="fil0 str0" points="5388.11,4379.8 5388.11,4623.61 5357.66,4623.61 5357.66,4867.39 5327.18,4867.39 5327.18,5903.5 5357.66,5903.5 5357.66,6086.34 5388.11,6086.34 5388.11,6360.6 5418.6,6360.6 5418.6,6573.89 5449.08,6573.89 5449.08,6726.29 5479.53,6726.29 5479.53,6909.13 5510.02,6909.13 5510.02,7152.9 5540.5,7152.9 5540.5,7244.32 5570.95,7244.32 5570.95,7488.1 5601.44,7488.1 5601.44,7701.43 5631.92,7701.43 5631.92,7884.27 5662.37,7884.27 5662.37,9072.73 5631.92,9072.73 5631.92,9499.35 5601.44,9499.35 5601.44,9621.25 5570.95,9621.25 5570.95,9865.03 5540.5,9865.03 5540.5,10078.36 5510.02,10078.36 5510.02,10200.23 5479.53,10200.23 5479.53,10444.04 5449.08,10444.04 5449.08,10657.33 5418.6,10657.33 5418.6,10809.72 5388.11,10809.72 5388.11,10931.59 5357.66,10931.59 5357.66,11053.5 5327.18,11053.5 5327.18,11114.43 5296.69,11114.43 5296.69,11175.4 5266.24,11175.4 5266.24,11205.85 5205.27,11205.85 5205.27,11236.34 5083.4,11236.34 5083.4,11205.85 5022.43,11205.85 5022.43,11175.4 4991.98,11175.4 4991.98,11144.92 4961.49,11144.92 4961.49,11114.43 4931.01,11114.43 4931.01,11083.98 4900.56,11083.98 4900.56,11023.01 4870.07,11023.01 4870.07,10962.08 4839.59,10962.08 4839.59,10901.14 4809.14,10901.14 4809.14,10840.17 4778.65,10840.17 4778.65,10748.75 4748.17,10748.75 4748.17,10657.33 4717.72,10657.33 4717.72,10565.91 4687.23,10565.91 4687.23,10444.04 4656.75,10444.04 4656.75,10352.62 4626.3,10352.62 4626.3,10230.71 4595.81,10230.71 4595.81,10078.36 4565.33,10078.36 4565.33,9925.97 4534.88,9925.97 4534.88,9773.61 4504.39,9773.61 4504.39,9651.7 4473.91,9651.7 4473.91,9529.83 4443.46,9529.83 4443.46,9407.93 4412.97,9407.93 4412.97,9255.57 4382.49,9255.57 4382.49,9042.25 4352.04,9042.25 4352.04,8920.38 4321.55,8920.38 4321.55,8798.47 4291.06,8798.47 4291.06,8676.56 4260.62,8676.56 4260.62,8585.14 4230.13,8585.14 4230.13,8493.72 4199.64,8493.72 4199.64,8371.85 4169.19,8371.85 4169.19,8280.43 4138.71,8280.43 4138.71,8189.01 4108.22,8189.01 4108.22,8128.04 4077.77,8128.04 4077.77,8006.17 4047.29,8006.17 4047.29,7945.2 4016.8,7945.2 4016.8,7853.78 3986.35,7853.78 3986.35,7762.36 3955.87,7762.36 3955.87,7701.43 3925.38,7701.43 3925.38,7640.49 3894.93,7640.49 3894.93,7549.07 3864.45,7549.07 3864.45,7488.1 3833.96,7488.1 3833.96,7427.16 3803.51,7427.16 3803.51,7366.23 3773.03,7366.23 3773.03,7305.26 3742.54,7305.26 3742.54,7244.32 3712.09,7244.32 3712.09,7213.84 3681.61,7213.84 3681.61,7152.9 3651.12,7152.9 3651.12,7091.97 3620.67,7091.97 3620.67,7061.48 3590.19,7061.48 3590.19,7000.55 3559.7,7000.55 3559.7,6939.58 3529.25,6939.58 3529.25,6909.13 3498.77,6909.13 3498.77,6878.64 3468.28,6878.64 3468.28,6817.71 3437.83,6817.71 3437.83,6787.22 3407.35,6787.22 3407.35,6756.73 3346.41,6756.73 3346.41,6726.29 3315.93,6726.29 3315.93,6695.8 3346.41,6695.8 3346.41,6634.87 3376.86,6634.87 3376.86,6604.38 3407.35,6604.38 3407.35,6573.89 3437.83,6573.89 3437.83,6543.44 3468.28,6543.44 3468.28,6512.96 3498.77,6512.96 3498.77,6482.47 3529.25,6482.47 3529.25,6452.02 3559.7,6452.02 3559.7,6421.54 3468.28,6421.54 3468.28,6452.02 3407.35,6452.02 3407.35,6482.47 3376.86,6482.47 3376.86,6512.96 3346.41,6512.96 3346.41,6543.44 3315.93,6543.44 3315.93,6573.89 3285.44,6573.89 3285.44,6604.38 3254.99,6604.38 3254.99,6665.31 3224.5,6665.31 3224.5,6695.8 3194.02,6695.8 3194.02,6756.73 3163.57,6756.73 3163.57,6817.71 3133.08,6817.71 3133.08,6878.64 3102.6,6878.64 3102.6,6939.58 3072.15,6939.58 3072.15,7031 3041.66,7031 3041.66,7122.42 3011.18,7122.42 3011.18,7305.26 2980.73,7305.26 2980.73,7427.16 2950.24,7427.16 2950.24,7610 2919.76,7610 2919.76,8280.43 2950.24,8280.43 2950.24,8585.14 2980.73,8585.14 2980.73,8767.99 3011.18,8767.99 3011.18,8950.83 3041.66,8950.83 3041.66,9042.25 3072.15,9042.25 3072.15,9194.6 3102.6,9194.6 3102.6,9255.57 3133.08,9255.57 3133.08,9377.44 3163.57,9377.44 3163.57,9499.35 3194.02,9499.35 3194.02,9590.77 3224.5,9590.77 3224.5,9682.19 3254.99,9682.19 3254.99,9773.61 3285.44,9773.61 3285.44,9895.52 3315.93,9895.52 3315.93,9986.94 3346.41,9986.94 3346.41,10047.87 3376.86,10047.87 3376.86,10139.29 3407.35,10139.29 3407.35,10230.71 3437.83,10230.71 3437.83,10322.13 3468.28,10322.13 3468.28,10413.55 3498.77,10413.55 3498.77,10504.97 3529.25,10504.97 3529.25,10596.39 3559.7,10596.39 3559.7,10687.81 3590.19,10687.81 3590.19,10840.17 3620.67,10840.17 3620.67,10962.08 3651.12,10962.08 3651.12,11297.27 3620.67,11297.27 3620.67,11388.69 3590.19,11388.69 3590.19,11449.66 3559.7,11449.66 3559.7,11480.11 3498.77,11480.11 3498.77,11510.6 3315.93,11510.6 3315.93,11480.11 3285.44,11480.11 3285.44,11449.66 3224.5,11449.66 3224.5,11419.18 3194.02,11419.18 3194.02,11388.69 3163.57,11388.69 3163.57,11358.24 3102.6,11358.24 3102.6,11327.76 3072.15,11327.76 3072.15,11297.27 3041.66,11297.27 3041.66,11266.82 3011.18,11266.82 3011.18,11236.34 2980.73,11236.34 2980.73,11205.85 2919.76,11205.85 2919.76,11144.92 2858.82,11144.92 2858.82,11083.98 2828.34,11083.98 2828.34,11053.5 2797.89,11053.5 2797.89,11023.01 2767.4,11023.01 2767.4,10992.56 2736.92,10992.56 2736.92,10962.08 2706.47,10962.08 2706.47,10901.14 2675.98,10901.14 2675.98,10870.66 2645.5,10870.66 2645.5,10840.17 2615.05,10840.17 2615.05,10779.24 2584.56,10779.24 2584.56,10748.75 2554.08,10748.75 2554.08,10718.3 2523.63,10718.3 2523.63,10657.33 2493.14,10657.33 2493.14,10626.88 2462.66,10626.88 2462.66,10596.39 2432.21,10596.39 2432.21,10565.91 2401.72,10565.91 2401.72,10504.97 2371.24,10504.97 2371.24,10474.49 2340.79,10474.49 2340.79,10413.55 2310.3,10413.55 2310.3,10383.07 2279.81,10383.07 2279.81,10352.62 2249.37,10352.62 2249.37,10291.65 2218.88,10291.65 2218.88,10261.2 2188.39,10261.2 2188.39,10200.23 2157.94,10200.23 2157.94,10169.78 2127.46,10169.78 2127.46,10108.81 2096.97,10108.81 2096.97,10047.87 2066.52,10047.87 2066.52,10017.39 2036.04,10017.39 2036.04,9956.45 2005.55,9956.45 2005.55,9895.52 1975.1,9895.52 1975.1,9865.03 1944.62,9865.03 1944.62,9804.1 1914.13,9804.1 1914.13,9743.12 1883.68,9743.12 1883.68,9682.19 1853.2,9682.19 1853.2,9621.25 1822.71,9621.25 1822.71,9560.28 1792.26,9560.28 1792.26,9499.35 1761.78,9499.35 1761.78,9438.41 1731.29,9438.41 1731.29,9377.44 1700.84,9377.44 1700.84,9286.02 1670.36,9286.02 1670.36,9225.09 1639.87,9225.09 1639.87,9133.67 1609.42,9133.67 1609.42,9072.73 1578.94,9072.73 1578.94,8981.31 1548.45,8981.31 1548.45,8920.38 1518,8920.38 1518,8798.47 1487.52,8798.47 1487.52,8737.54 1457.03,8737.54 1457.03,8585.14 1426.58,8585.14 1426.58,8463.27 1396.1,8463.27 1396.1,8402.3 1365.61,8402.3 1365.61,8249.95 1335.16,8249.95 1335.16,8097.59 1304.68,8097.59 1304.68,8006.17 1274.19,8006.17 1274.19,7792.85 1243.74,7792.85 1243.74,7670.94 1213.25,7670.94 1213.25,7427.16 1182.77,7427.16 1182.77,7183.39 1152.32,7183.39 1152.32,6909.13 1121.83,6909.13 1121.83,6391.05 1091.35,6391.05 1091.35,5751.11 1060.9,5751.11 1060.9,5537.82 1030.41,5537.82 1030.41,5202.59 999.93,5202.59 999.93,5019.75 969.48,5019.75 969.48,4836.91 938.99,4836.91 938.99,4745.48 908.51,4745.48 908.51,4623.61 "/>
  <path id="crown" class="fil0 str0" d="M3773.04 723.04l-91.42 0 0 30.45 -30.49 0 0 30.49 -30.45 0 0 60.93 -30.48 0 0 30.49 -30.49 0 0 60.93 -30.45 0 0 30.49 -30.48 0 0 60.93 -30.49 0 0 30.49 -30.45 0 0 60.93 -30.48 0 0 30.49 -30.49 0 0 60.93 -30.45 0 0 30.49 -30.48 0 0 30.45 -30.49 0 0 60.97 -30.45 0 0 30.45 -30.49 0 0 30.48 -30.48 0 0 30.49 -30.45 0 0 30.45 -243.81 0 0 -30.45 -91.42 0 0 -30.49 -91.42 0 0 -30.48 -60.94 0 0 -30.45 -91.42 0 0 -30.49 -60.93 0 0 -30.48 -60.97 0 0 -30.45 -60.94 0 0 -30.49 -60.93 0 0 -30.48 -60.98 0 0 -30.45 -60.93 0 0 -30.49 -91.42 0 0 -30.45 -60.94 0 0 -30.48 -91.42 0 0 -30.49 -152.39 0 0 -30.45 -274.26 0 0 30.45 -91.42 0 0 30.49 -60.93 0 0 30.48 -60.94 0 0 30.45 -30.48 0 0 30.49 -60.94 0 0 30.45 -60.97 0 0 30.48 -30.45 0 0 30.49 -30.49 0 0 30.45 -30.48 0 0 30.48 -30.45 0 0 30.49 -30.49 0 0 30.45 -30.48 0 0 30.48 -30.45 0 0 30.49 -30.49 0 0 30.45 -30.48 0 0 30.48 -30.45 0 0 30.49 -30.49 0 0 30.45 -30.48 0 0 30.48 -30.45 0 0 30.49 -30.49 0 0 30.45 -30.48 0 0 30.48 -30.45 0 0 60.94 91.42 0 0 -30.45 30.45 0 0 -30.49 30.48 0 0 -30.48 60.94 0 0 -30.45 30.48 0 0 -30.49 30.49 0 0 -30.48 30.45 0 0 -30.45 30.48 0 0 -30.49 30.49 0 0 -30.48 30.45 0 0 -30.45 60.97 0 0 -30.49 30.45 0 0 -30.48 30.48 0 0 -30.45 30.49 0 0 -30.49 30.45 0 0 -30.48 60.97 0 0 -30.45 30.45 0 0 -30.49 60.97 0 0 -30.48 60.94 0 0 -30.45 121.9 0 0 -30.49 182.84 0 0 30.49 121.87 0 0 30.45 91.42 0 0 30.48 60.97 0 0 30.49 91.42 0 0 30.45 60.94 0 0 30.48 60.93 0 0 30.49 60.98 0 0 30.45 60.93 0 0 30.48 60.94 0 0 30.49 91.42 0 0 30.45 60.97 0 0 30.48 60.93 0 0 30.49 60.94 0 0 30.45 91.42 0 0 30.48 121.9 0 0 30.49 213.33 0 0 -30.49 91.42 0 0 -30.48 60.94 0 0 -30.45 91.42 0 0 -30.49 60.93 0 0 -30.48 60.97 0 0 -30.45 60.94 0 0 -30.49 60.93 0 0 -30.48 91.42 0 0 -30.45 30.49 0 0 -30.49 60.93 0 0 -30.48 91.42 0 0 -30.45 60.97 0 0 -30.49 60.94 0 0 -30.48 60.93 0 0 -30.45 91.42 0 0 -30.49 304.75 0 0 30.49 60.94 0 0 30.45 60.97 0 0 30.48 121.87 0 0 -30.48 -30.45 0 0 -30.45 -30.49 0 0 -30.49 -30.48 0 0 -30.45 -60.94 0 0 -30.48 -30.48 0 0 -30.49 -60.94 0 0 -30.45 -365.68 0 0 30.45 -60.94 0 0 30.49 -91.42 0 0 30.48 -60.97 0 0 30.45 -60.93 0 0 30.49 -60.94 0 0 30.45 -60.97 0 0 30.48 -60.93 0 0 30.49 -60.94 0 0 30.45 -60.97 0 0 30.48 -60.93 0 0 30.49 -60.94 0 0 30.45 -60.97 0 0 -30.45 30.49 0 0 -30.49 30.48 0 0 -60.93 30.45 0 0 -30.49 30.49 0 0 -60.93 30.48 0 0 -30.49 30.45 0 0 -60.93 30.49 0 0 -60.94 30.48 0 0 -30.48 30.45 0 0 -60.94 30.49 0 0 -30.48 30.48 0 0 -60.94 30.45 0 0 -30.48 30.49 0 0 -60.94zm579.01 -243.81l91.42 0 0 30.48 91.42 0 0 30.49 30.45 0 0 30.45 60.97 0 0 30.48 30.45 0 0 30.49 60.97 0 0 30.45 60.93 0 0 30.48 60.94 0 0 30.49 30.48 0 0 30.45 60.94 0 0 30.49 30.48 0 0 30.48 60.94 0 0 30.45 30.48 0 0 30.49 30.49 0 0 30.48 60.93 0 0 30.45 30.49 0 0 30.49 30.45 0 0 30.48 30.49 0 0 30.45 30.48 0 0 30.49 30.45 0 0 30.48 30.49 0 0 30.45 30.48 0 0 30.49 30.45 0 0 30.45 30.49 0 0 60.97 30.48 0 0 30.45 30.45 0 0 60.97 30.49 0 0 30.45 30.48 0 0 60.97 30.45 0 0 60.93 30.49 0 0 60.94 30.48 0 0 91.42 30.45 0 0 60.97 30.49 0 0 121.87 30.48 0 0 121.91 30.45 0 0 121.9 30.49 0 0 182.84 30.48 0 0 639.95 -30.48 0 0 152.35 -30.49 0 0 152.36 -30.45 0 0 152.39 -30.48 0 0 60.93 -30.49 0 0 152.36 -30.45 0 0 91.42 -30.48 0 0 91.42 -30.49 0 0 91.42 -30.45 0 0 60.97 -30.48 0 0 121.87 -30.49 0 0 91.42 -30.45 0 0 60.97 -30.48 0 0 30.45 -60.94 0 0 30.49 -30.48 0 0 30.48 -60.94 0 0 30.45 -60.97 0 0 30.49 -60.94 0 0 30.48 -60.93 0 0 30.45 -60.97 0 0 30.49 -91.42 0 0 30.48 -91.42 0 0 30.45 -91.42 0 0 30.49 -91.42 0 0 30.48 -91.42 0 0 30.45 -91.42 0 0 30.49 -121.87 0 0 30.48 -121.91 0 0 30.45 -152.36 0 0 30.49 -30.48 0 0 30.49 -213.33 0 0 30.44 -152.35 0 0 30.49 -121.91 0 0 30.49 -304.71 0 0 30.45 -182.84 0 0 30.48 -914.21 0 0 -30.48 -243.81 0 0 -30.45 -152.35 0 0 -30.49 -121.91 0 0 -30.49 -91.42 0 0 -30.44 -91.42 0 0 -30.49 -121.87 0 0 -30.49 -60.97 0 0 -30.45 -91.42 0 0 -30.48 -60.94 0 0 -30.49 -60.93 0 0 -30.45 -60.97 0 0 -30.48 -60.94 0 0 -30.49 -60.93 0 0 -30.45 -60.97 0 0 -60.97 -30.45 0 0 -60.93 -30.49 0 0 -91.42 -30.48 0 0 -60.94 -30.45 0 0 -60.97 -30.49 0 0 -91.42 -30.48 0 0 -60.93 -30.45 0 0 -60.94 -30.49 0 0 -91.42 -30.48 0 0 -60.97 -30.45 0 0 -91.42 -30.49 0 0 -60.94 -30.48 0 0 -60.93 -30.45 0 0 -91.42 -30.49 0 0 -91.42 -30.48 0 0 -60.97 -30.45 0 0 -91.42 -30.49 0 0 -121.87 -30.49 0 0 -182.84 -30.44 0 0 -152.4 -30.49 0 0 -609.45 30.49 0 0 -182.84 30.44 0 0 -121.91 30.49 0 0 -91.42 30.49 0 0 -60.94 30.45 0 0 -60.93 30.48 0 0 -60.97 30.49 0 0 -60.94 30.45 0 0 -60.93 30.48 0 0 -60.97 30.49 0 0 -30.45 30.45 0 0 -60.97 30.48 0 0 -30.45 30.49 0 0 -60.97 30.45 0 0 -30.45 30.48 0 0 -30.49 30.49 0 0 -30.45 30.45 0 0 -60.97 30.48 0 0 -30.45 30.49 0 0 -30.48 30.45 0 0 -30.49 30.48 0 0 -30.45 30.49 0 0 -30.48 30.45 0 0 -30.49 30.48 0 0 -30.45 60.94 0 0 -30.48 30.48 0 0 -30.49 30.49 0 0 -30.45 30.45 0 0 -30.49 60.97 0 0 -30.48 60.93 0 0 -30.45 30.49 0 0 -30.49 60.94 0 0 -30.48 91.42 0 0 -30.45 91.42 0 0 -30.49 243.77 0 0 30.49 152.39 0 0 30.45 91.42 0 0 30.48 91.42 0 0 30.49 30.45 0 0 30.45 91.42 0 0 30.48 60.98 0 0 30.49 60.93 0 0 30.45 60.94 0 0 30.49 91.42 0 0 30.48 60.97 0 0 30.45 121.87 0 0 30.49 457.1 0 0 -30.49 91.42 0 0 -30.45 91.42 0 0 -30.48 91.42 0 0 -30.49 60.97 0 0 -30.45 60.94 0 0 -30.49 60.93 0 0 -30.48 91.42 0 0 -30.45 60.97 0 0 -30.49 60.94 0 0 -30.48 60.93 0 0 -30.45 60.97 0 0 -30.49 91.42 0 0 -30.48 60.94 0 0 -30.45 304.75 0 0 30.45z"/>
 </g>
</svg>
