<!-- Creator: CorelDRAW (Versión de evaluación) -->
<svg xmlns="http://www.w3.org/2000/svg" xml:space="preserve" width="446px" height="2062px" version="1.1" style="shape-rendering:geometricPrecision; text-rendering:geometricPrecision; image-rendering:optimizeQuality; fill-rule:evenodd; clip-rule:evenodd"
viewBox="0 0 446 2060.93"
 xmlns:xlink="http://www.w3.org/1999/xlink"
 xmlns:xodm="http://www.corel.com/coreldraw/odm/2003">
 <defs>
  <style type="text/css">
   <![CDATA[
    .str0 {stroke:#D2D3D5;stroke-width:15.99;stroke-linecap:square;stroke-miterlimit:22.9256;stroke-dasharray:79.950000 79.950000 159.890000 79.950000}
    .fil0 {fill:none}
   ]]>
  </style>
 </defs>
 <g id="unerupted">
  <metadata id="CorelCorpID_0Corel-Layer"/>
  <path id="crown" class="fil0 str0" d="M70.09 1472.66l-5 -5c-2.52,-7.78 -1,-22.96 -1,-31.98 1.7,-3.3 1.91,-3.04 2,-6.99 4.37,-6.13 2,-48.37 2,-58.96 6.25,-6.93 3,-41.84 3,-52.96 0.36,-0.64 1.63,-3.31 1.99,-4l0 -5c0.37,-0.64 1.64,-3.3 2,-3.99l0 -54.97c0.37,-0.63 1.64,-3.3 2,-3.99l0 -6c0.36,-0.64 1.64,-3.3 2,-4l0 -80.94c6.41,-7.11 3,-45.36 3,-56.96l3.99 -4 0 -74.95c0.37,-0.64 1.64,-3.3 2,-3.99l1 -52.97c0.37,-0.64 1.64,-3.3 2,-4l0 -8.99c0.37,-0.64 1.64,-3.3 2,-4l0 -47.96c0.36,-0.64 1.64,-3.31 2,-4l0 -5c0.36,-0.63 1.63,-3.3 2,-3.99l0 -18.99c0.36,-0.64 1.63,-3.31 2,-4l1 -31.98c0.36,-0.63 1.63,-3.3 1.99,-3.99l0 -12.99c0.37,-0.64 1.64,-3.31 2,-4l0 -26.98c5.59,-6.2 3,-19.57 3,-27.98 0.36,-0.64 1.64,-3.31 2,-4l0 -5c0.36,-0.64 1.63,-3.3 2,-3.99l0 -15.99c0.36,-0.64 1.63,-3.31 2,-4l0 -5c0.36,-0.63 1.63,-3.3 2,-4l0 -7.99c0.36,-0.64 1.63,-3.3 1.99,-4l0 -9.99c1.21,-1.89 1.54,-2.19 3,-4l0 -12.99c0.37,-0.64 1.64,-3.3 2,-3.99l0 -5c0.36,-0.64 1.64,-3.31 2,-4l0 -16.99c1.21,-1.89 1.54,-2.18 3,-3.99l0 -13c0.36,-0.63 1.63,-3.3 2,-3.99l0 -5c0.36,-0.64 1.63,-3.3 1.99,-4l0 -8.99c0.37,-0.64 1.64,-3.31 2,-4l0 -3.99c0.37,-0.64 1.64,-3.31 2,-4l0 -9.99c1.21,-1.9 1.54,-2.19 3,-4l0 -10c0.36,-0.63 1.64,-3.3 2,-3.99l0 -4c0.36,-0.64 1.63,-3.3 2,-4l1 -14.99c3.1,-4.35 1.99,-4.37 1.99,-9.99 1.9,-1.21 2.19,-1.54 4,-3l0 -14.99c1.89,-1.21 2.19,-1.53 4,-2.99 0,-24.69 3,-2.51 3,-23.99 0.61,-0.26 3.35,-1.69 3.99,-2l0 -15.99c4.73,-3.54 3,-8.32 3,-14.99 0.61,-0.26 3.36,-1.69 4,-1.99l0 -6 4 -4c0,-20.42 2.99,3.4 2.99,-23.98 0.62,-0.26 3.36,-1.7 4,-2 0,-15.63 3,0.62 3,-18.99 0.61,-0.26 3.36,-1.69 4,-1.99l0 -10 3.99 -4c0.35,-4.51 0.2,-3.44 3,-6.99l0 -9.99c0.61,-0.27 3.36,-1.7 4,-2 0,-14.61 3,-1.74 3,-15.99 0.61,-0.26 3.35,-1.69 3.99,-2l0 -6 4 -3.99 0 -6c4.29,-3.21 3,-1.89 3,-7.99l4 -4c0.34,-4.51 0.19,-3.44 3,-7 0.53,-5.38 3.91,-6.91 7.99,-10.99 0.27,-3.43 -0.04,-1.8 1,-4.99 1.89,-2.96 4.67,-1.06 9.99,-12 5.02,-0.49 2.95,-0.03 7,-3.99l11.99 -2m118.92 1158.2c0,7.68 2,4.72 2.99,7.99l2 20.99c1.07,5.38 2.23,-2.3 2,14.99l4 3.99c0,20.42 0.43,10.62 2,16.99l0 10c4.29,4.76 2.99,3.48 2.99,9.99 1.62,3.14 1.65,2.37 2,5.99 3.2,4.49 2,8.14 2,14 4.53,5.02 3,6.09 3,12.99l4 3.99 0 13.99 3.99 4 3 24.98c2.97,4.08 1.49,-0.2 2,5 2.97,4.17 2,2.5 2,7.99 1.28,3.96 1,3.65 1,8l2 7.99c3.14,4.41 2,5.32 2,11 1.69,3.3 1.91,3.04 2,6.99 3.21,4.52 1.99,10 1.99,15.99 5.02,5.56 3,15.47 3,22.98 1.63,2.44 1.84,2.66 4,5l0 19.99c7.19,5.39 0.96,47.11 3,56.96l2 60.96c-0.37,0.63 -1.64,3.3 -2,3.99l0 33.98c-1.59,4.9 -1,10.42 -1,15.99l-4 4c0,10.94 -0.98,5.87 -2,9.99l-1 13.99c-0.61,0.26 -3.36,1.69 -3.99,2l0 4.99c-0.62,0.27 -3.36,1.7 -4,2 -0.73,9.32 -2,-3.53 -2,9l-8 7.99c-0.52,5.17 1.16,2.67 -2.99,4 -2.37,3.16 -1.54,2.28 -5,3.99 0,3.86 -0.19,1.97 -1,4 -2.89,1.25 -0.36,0.72 -4,1l-8.99 9c-14.69,0 3.15,2.99 -12.99,2.99 -0.26,0.62 -1.7,3.36 -2,4l-6 0c-0.26,0.61 -1.69,3.36 -1.99,4 -19.01,0 2.77,3 -16.99,3 -1.42,1.79 -1.78,2.17 -3,3.99 -12.49,0 -6.82,1.74 -10.99,3l-12.99 0c-0.27,0.61 -1.7,3.36 -2,4 -15.13,0 -7.53,0.65 -12.99,2l-5 0c-0.64,0.36 -3.3,1.63 -4,2l-8.99 0c-4.7,2.41 -4.43,1.51 -9,2.99l-8.99 0c-0.64,0.37 -3.3,1.64 -4,2l-18.98 0c-0.64,0.37 -3.31,1.64 -4,2l-105.93 0 -23.98 -2c-0.64,-0.36 -3.3,-1.63 -4,-2l-21.92 -3.13c-1.76,-0.34 -5.3,0.33 -11.05,-1.86 -4.08,-2.97 0.2,-1.49 -5,-2l-4 -4c-16.91,0 0.52,-2.7 -12.99,-3 -1.21,-1.89 -1.54,-2.18 -3,-3.99 -3.56,0 -3.87,0.36 -9.99,-4l-6 -6c-0.34,-4.51 -0.19,-3.44 -2.99,-6.99 -1.3,-4.42 -0.06,-2.28 -4,-5l0 -6 -4 -3.99c-0.34,-4.43 0.24,-2.12 -2,-6l-1 -13.99c-0.36,-0.64 -1.63,-3.3 -1.99,-3.99l0 -22.99c-1.8,-1.42 -2.17,-1.78 -4,-3l0 -84.94 4 -4 0 -37.97c2.4,-4.7 1.51,-4.43 2.99,-8.99l0 -13.99 4 -4c0,-9.59 -1.31,-21.15 2,-29.98 3.21,-4.5 2,-9.06 2,-14.99 0.36,-0.64 1.63,-3.3 2,-4l0 -9.99c1.66,-5.68 2.99,4.93 2.99,-17.99l4 -3.99 1 -18.99c3.05,-4.28 2,-3.44 2,-9l4 -3.99 0 -17.99 3.99 -4 0 -8.99c4.63,-3.47 3,-5.53 3,-11.99l4 -4 0 -10.99c4.53,-5.03 3,-6.1 3,-12.99 1.17,-4.45 2,0.73 2,-10l3.99 -3.99 1 -20.99c0.36,-0.64 1.64,-3.3 2,-4l0 -12.99c1.18,-4.44 2,0.74 2,-9.99l4 -4 0 -9.99c5.28,-0.52 4.99,-1.99 8.99,-6 5.02,-0.49 2.95,-0.04 6.99,-3.99 0.5,-5.04 -0.85,-1.73 3,-6l0 -7c0.62,-0.26 3.36,-1.69 4,-1.99l0 -5c0.61,-0.26 3.36,-1.7 4,-2 0,-18.67 3,2.38 3,-15.99 0.61,-0.26 3.35,-1.69 3.99,-2l0 -4.99c4.29,-3.22 3,-1.9 3,-8l4 -7.99c4.03,-2.79 3.61,-3.34 6.99,-7 0.5,-5.02 0.04,-2.95 4,-6.99 0.51,-5.02 -1.11,-1.92 3,-5 1.23,-4.27 0.52,-2.44 4,-5.99 1.41,-4.43 -0.73,-1.65 3.99,-4 0.65,-8.47 5.36,-6.71 7,-10 0.54,-5.38 0.53,-2.25 4,-6.99 4.15,-1.33 2.47,1.17 2.99,-4l9 -4.99c1.49,-1.86 2.5,-3.15 3.99,-5l9 -8c1.21,-1.89 1.54,-2.18 3,-3.99 13.83,0 -1.3,-1.89 9.99,-3 0.26,-0.61 1.69,-3.36 2,-4 5.03,-0.49 1.72,0.86 5.99,-3 5.22,-0.41 0.99,0.86 5,-1.99l4 0c3.84,-2.74 0.63,-1.89 5.99,-2 1.21,-1.89 1.54,-2.19 3,-4 20.53,0 11.04,-0.29 17.99,-2l14.99 0c6.23,1.65 -3.18,2 15.99,2 1.42,1.8 1.77,2.17 2.99,4 9.61,0 5.64,2.66 10,3.99l5.99 0c4.28,3.86 0.96,2.51 6,3 1.42,1.8 1.78,2.17 3,4 4.02,1.09 1.35,-0.29 4.99,3l4 0c9.25,9.25 7.8,6.35 9.9,8.17 1.31,1.71 1.63,2.01 3.09,3.82 4.73,2.35 2.59,-0.43 4,4 3.21,2.32 1.67,0.82 4,3.99 4.12,1.32 3.23,3.38 5.99,8 3.77,2.54 5.62,4.61 9,7.99 1.72,3.46 0.83,2.63 3.99,5 0.45,2.15 0.25,1.72 1,4 3.38,3.66 1.88,1.11 3,4.99 4.11,3.08 3,1.07 3,7 8.77,6.06 -1.84,-0.84 7.99,8.99 0,14.69 3,-3.15 3,12.99 0.61,0.27 3.36,1.7 4,2l0 7c3.1,3.44 2.47,3.26 4,6.99 2.88,2.94 -0.05,-3.04 8.99,6l5 0 4.99 -5 -2 -54.96c-2.14,-6.61 -1,-15.63 -1,-22.99 -0.36,-0.63 -1.63,-3.3 -1.99,-3.99l0 -36.98c-0.37,-0.63 -1.64,-3.3 -2,-3.99l-2 -60.96c-1.89,-5.81 -1,-13.49 -1,-19.99 -0.36,-0.64 -1.64,-3.3 -2,-4l0 -43.97c-1.61,-3.13 -1.64,-2.37 -2,-5.99 -5.02,-7.05 -2,-23.98 -2,-32.98 -1.69,-3.3 -1.91,-3.04 -2,-6.99l-2.17 -3.91c-0.01,-0.05 0.17,-27.32 -0.82,-31.07 -0.37,-0.64 -1.64,-3.3 -2,-4l0 -18.98c-0.36,-0.64 -1.64,-3.31 -2,-4l-2 -37.97c-4.72,-5.25 -3,-12.5 -3,-19.99l-3.99 -4 0 -16.99c-0.37,-0.63 -1.64,-3.3 -2,-3.99l-2 -22.99c-4.64,-5.15 -3,-8.82 -3,-15.99 -0.36,-0.63 -1.63,-3.3 -2,-3.99l-2.13 -9.94c-0.1,-0.5 0.2,-18.83 -0.87,-22.04 -3.2,-4.5 -1.99,-9.07 -1.99,-14.99 -0.37,-0.64 -1.64,-3.31 -2,-4l0 -5c-0.37,-0.63 -1.64,-3.3 -2,-3.99 -0.65,-2.65 1.6,-6.49 -2,-17.99l-2.18 -3.91c-0.32,-1.31 0.42,-10.66 -0.82,-14.08 -3.16,-4.44 -2,-6.26 -2,-11.99 -0.36,-0.64 -1.63,-3.3 -1.99,-4l0 -9.99c-5.48,-6.07 -3,-18.74 -3,-26.98 -1.7,-3.3 -1.92,-3.04 -2,-7 -3.79,-5.31 -2,-15.2 -2,-21.98 -1.8,-1.42 -2.17,-1.78 -4,-3 0,-19.88 -0.95,-11.15 -2.13,-16.92l-0.87 -34.04c-0.36,-0.64 -1.63,-3.31 -1.99,-4l0 -15.99 -4.18 -9.9 -0.82 -35.07c-0.36,-0.64 -1.64,-3.3 -2,-4l0 -22.98c-0.36,-0.64 -1.63,-3.3 -2,-4l0 -8.99c-0.36,-0.64 -1.63,-3.31 -2,-4l0 -123.91c0.37,-0.64 1.64,-3.31 2,-4l0 -5c0.37,-0.63 1.64,-3.3 2,-3.99l0 -44.97c2.63,-8.1 1,-53.71 1,-65.96 -2.33,-14.77 0.27,-20.27 -3,-28.98 -2.97,-4.17 -2,-2.49 -2,-7.99 -0.36,-0.64 -1.63,-3.31 -2,-4l0 -4.99c-0.63,-2.94 -1.73,-0.59 -1.99,-8 -1.85,-1.49 -3.15,-2.5 -5,-4l-5 -8.99c0,-3.86 -0.19,-1.96 -1,-4 -6.47,-2.79 -1.42,1.57 -8.99,-5.99 -13.03,0 1.7,-2 -11.99,-2l0 -2"/>
 </g>
</svg>