<!-- Creator: CorelDRAW (Versión de evaluación) -->
<svg xmlns="http://www.w3.org/2000/svg" xml:space="preserve" width="500px" height="2062px" version="1.1" style="shape-rendering:geometricPrecision; text-rendering:geometricPrecision; image-rendering:optimizeQuality; fill-rule:evenodd; clip-rule:evenodd"
viewBox="0 0 500 2061.16"
 xmlns:xlink="http://www.w3.org/1999/xlink"
 xmlns:xodm="http://www.corel.com/coreldraw/odm/2003">
 <defs>
  <style type="text/css">
   <![CDATA[
    .str0 {stroke:#D2D3D5;stroke-width:15.99;stroke-linecap:square;stroke-miterlimit:22.9256;stroke-dasharray:79.960000 79.960000 159.910000 79.960000}
    .fil0 {fill:none}
   ]]>
  </style>
 </defs>
 <g id="unerupted">
  <metadata id="CorelCorpID_0Corel-Layer"/>
  <path id="crown" class="fil0 str0" d="M409.41 1469.82c0,2.41 15.42,78.11 16.32,79.96 6.17,12.65 25.59,66.61 28.68,79.95 5.63,24.31 17.89,52 24.33,79.96 6.59,28.6 8.55,48.71 8.62,79.95 0.15,68.8 -40.68,108.07 -97.94,137.58 -43.63,22.48 -102.82,93.72 -156.91,75.57 -36.75,-12.34 -47.62,-24.27 -78.95,-44.6 -22.65,-14.69 -61.28,-34 -79.96,-48.64 -59.12,-46.34 -62.95,-85 -62.96,-156.89 0,-12.93 9.33,-72.47 14.08,-79.95 2.57,-4.05 35.82,-109.19 39.82,-116.94 4.39,-8.49 8.68,-39.3 9.1,-39.97 2.6,-4.2 18.82,-74.82 18.95,-80.96m179.9 -1187.31c28.51,9.25 14.72,7.03 28.02,27.99 4.15,6.53 7.96,29.82 7.96,38.97 0,25.66 0,51.31 0,76.96 0,35.14 -5.95,125.27 -0.67,153.91 2.18,11.79 6.48,64.89 6.65,76.96 0.35,23.53 8.7,51.43 9.97,76.95 1.89,37.92 21.07,113.63 28.68,154.91 19.2,104.12 32.45,199.91 43.35,307.82 2.64,26.18 5.96,49.66 5.96,76.96 0,57.4 8.46,100.35 11.03,153.91 0.78,16.22 9.24,68.83 -4.03,76.95 -39.48,-12.79 -32.86,-43.31 -67,-72.62 -25.55,-21.93 -49.47,-48.45 -85.91,-50.34 -24.83,-1.29 -70.99,8.95 -85.95,23.68 -9.03,8.89 -35.03,26.01 -41.66,37.39 -11.61,19.94 -12.69,18.74 -36.3,26.91 -9.89,-9.89 4,-125.77 4,-149.91 0,-48.4 5,-100.23 5,-150.91 0,-50.04 5.99,-101.12 5.99,-149.91 0,-17.28 3.68,-58.76 6.97,-74.96 4.11,-20.22 2.78,-54.21 5.02,-75.96 10.45,-101.4 25.98,-201.99 42.04,-300.82 3.69,-22.72 11.82,-50.01 15.99,-74.96 4.04,-24.14 17.76,-54.74 21,-75.96 1.36,-8.88 18.37,-66.58 22.95,-72.89 5.79,-7.98 12.27,-26.62 17.61,-37.04 9.81,-19.13 17.22,-18.77 33.33,-23.99l0 -2"/>
 </g>
</svg>