<?xml version="1.0" encoding="UTF-8"?>
<!DOCTYPE svg PUBLIC "-//W3C//DTD SVG 1.1//EN" "http://www.w3.org/Graphics/SVG/1.1/DTD/svg11.dtd">
<!-- Creator: CorelDRAW (Versión de evaluación) -->
<svg xmlns="http://www.w3.org/2000/svg" xml:space="preserve" width="684px" height="2062px" version="1.1" style="shape-rendering:geometricPrecision; text-rendering:geometricPrecision; image-rendering:optimizeQuality; fill-rule:evenodd; clip-rule:evenodd"
viewBox="0 0 684 2062.8"
 xmlns:xlink="http://www.w3.org/1999/xlink"
 xmlns:xodm="http://www.corel.com/coreldraw/odm/2003">
 <defs>
  <style type="text/css">
   <![CDATA[
    .str0 {stroke:#D2D3D5;stroke-width:16;stroke-linecap:square;stroke-miterlimit:22.9256;stroke-dasharray:80.020000 80.020000 160.040000 80.020000}
    .fil0 {fill:none}
   ]]>
  </style>
 </defs>
 <g id="unerupted">
  <metadata id="CorelCorpID_0Corel-Layer"/>
  <path id="crown" class="fil0 str0" d="M579.55 1886.09c-1.25,12.67 -53.39,46.5 -63,48.09 -22.5,3.74 -43.89,12.47 -69.03,2.69 -85.99,-33.45 -91.62,-63.73 -138.03,-79.79m-24 4c4.04,-5.95 15.77,-1.33 24,-4 -7.92,-19.75 -18,-90.09 -18,-115.02m6 199.04c6.89,3.98 31.23,9.72 45.01,17.32 15.85,8.73 30.16,19.65 46.01,28.4 40.76,22.49 45.48,26.94 92.02,19.22 57.44,-9.54 134.17,-81.51 162.42,-132.95 14.24,-25.94 30.74,-59.61 30.62,-91.02 -0.09,-23.99 1.78,-72.64 -4.73,-92.02 -9.57,-28.53 -13.31,-63.96 -22.26,-92.02 -1.2,-3.76 -15.52,-44.94 -16.08,-46.01 -5.03,-9.66 -2.49,-27.9 -12.94,-46.01m-518.11 310.06c0,26.06 35.4,58.86 56.01,71.02 36.05,0 27.31,6.5 65.01,-8.69 26.91,-10.84 36.7,-11.96 65.02,-17.32 5.55,5.68 15.78,75.24 12,80.02 -30.71,0 -56.29,5.6 -83.02,6.96 -30.88,1.58 -43.13,16.67 -83.02,4.05 -30.58,-9.68 -53.85,-42.11 -71.07,-68.02 -25.77,-38.76 -35.02,-78.25 -37.98,-83.02 -21.33,-34.35 -1.31,-129.5 6.06,-166.03 5.13,-25.43 49.29,-148.35 63.99,-163.04m222.04 -184.04c48.95,0 69.81,-63.3 81.76,-99.02 1.87,-5.61 18.16,-59.68 18.24,-61.02 1.29,-21.6 11.85,-42.48 16,-63.01 7.47,-36.92 22.48,-87.43 23.11,-125.03 0.66,-39.12 -3.08,-86.29 -3.08,-125.03m-204.04 74.02c-27.58,-12.82 -14.08,-15.17 -20.31,-37.01 -3.4,-11.92 -3.39,-32.02 -7.43,-44.01 -1.4,-4.16 -10.27,-80.83 -10.27,-88.02 0.01,-34.08 -5.09,-166.16 -45.01,-167.03 -31.22,0 -59.48,79.02 -60.96,102.03 -0.12,1.81 -21.22,115.84 -21.3,116.02 -4.66,10.65 -12.76,99.3 -12.76,117.02 0,38.75 0,78.16 0,117.03 0,40.4 11.94,76.87 13.96,116.02 0.14,2.62 7.92,52.36 9.07,58.01 3.87,18.99 3.17,41.95 6.31,59.02 14.18,76.89 -5.33,159.02 -5.33,234.05 13.34,5.18 103.55,-30.15 131.02,-30.01 40.23,0.21 84.99,-7.25 131.03,-5.04 32.41,1.56 102.38,11.33 131.03,20.04 43.72,13.29 92.12,40.61 132.03,49.02 0.62,-1.33 -1.95,-197.59 -2,-221.05 -0.07,-32.55 9,-77.63 9,-111.03 0,-35.41 2,-73.84 2,-111.02 0.01,-31.02 -13.05,-80.15 -13,-110.02 0.02,-15.13 -16.3,-92.03 -20.71,-111.03 -10.23,-44.14 -46.68,-206.04 -101.32,-206.04 -26.42,0.57 -25,64.64 -25,87.01 0,15.67 0,31.35 0,47.01 0,23.63 5.59,31.8 -16.01,45.01 -21.34,-13.05 -19.61,-20.12 -23.97,-42 -2.1,-10.5 -3.89,-34.54 -5.03,-46.01 -1.82,-18.37 -13.57,-74.17 -19.01,-92.02 -11.91,-39.11 -41.71,-166.97 -91.02,-168.04m22.01 777.17c-3.2,-5.55 -18.02,-78.41 -19.01,-88.02 -3.32,-32.22 -18.23,-60.78 -23,-89.02 -10.53,-62.4 -45.01,-98.17 -45.01,-178.04 21.99,-12.98 11.2,-22.77 19.27,-47.01 4.44,-13.31 2.8,-34.8 7.43,-51.01 4.78,-16.76 11.31,-83.31 11.31,-103.02 0,-17.01 0,-34.01 0,-51.01 0,-20.39 -4,-36.85 -4,-52.02 0,-27.89 -6.85,-81.24 6,-103.02 2.32,-11.01 15.49,-14.79 25,-15l0 -5"/>
 </g>
</svg>
