<?xml version="1.0" encoding="UTF-8"?>
<!DOCTYPE svg PUBLIC "-//W3C//DTD SVG 1.1//EN" "http://www.w3.org/Graphics/SVG/1.1/DTD/svg11.dtd">
<!-- Creator: CorelDRAW (Versión de evaluación) -->
<svg xmlns="http://www.w3.org/2000/svg" xml:space="preserve" width="739px" height="2458px" version="1.1" style="shape-rendering:geometricPrecision; text-rendering:geometricPrecision; image-rendering:optimizeQuality; fill-rule:evenodd; clip-rule:evenodd"
viewBox="0 0 739 2457.4"
 xmlns:xlink="http://www.w3.org/1999/xlink"
 xmlns:xodm="http://www.corel.com/coreldraw/odm/2003">
 <defs>
  <style type="text/css">
   <![CDATA[
    .str0 {stroke:#373435;stroke-width:5;stroke-miterlimit:22.9256;stroke-dasharray:5.000000 24.990000 5.000000 24.990000 5.000000 24.990000 19.990000 24.990000 19.990000 24.990000}
    .fil0 {fill:#FEFEFE}
   ]]>
  </style>
 </defs>
 <g id="tooth-unerupted-47">
  <metadata id="CorelCorpID_0Corel-Layer"/>
  <path id="root" class="fil0 str0" d="M261.7 2256.96c68.09,-100.71 4.03,-199.08 9.05,-482.12 1.94,-109.6 29.58,-370.01 93.41,-423.4 146.98,69.67 85.81,635.95 55.54,834.98 -13.59,89.34 -31.47,192.68 1.49,270.97 128.1,-17.22 227.44,-456.35 247.65,-629.94 28.1,-241.4 29.73,-463.59 28.13,-705.45 -0.54,-82.28 -10.11,-150.71 -5.92,-240.19 -154.19,-125.7 -175.41,51.48 -309.89,44.79 -137.07,-6.85 -146.91,-134.2 -329.8,-106.93 -74.49,222.88 23.52,897.82 84.31,1174.66 21.8,99.26 41.17,263.56 126.03,262.63z"/>
  <path id="crown" class="fil0 str0" d="M122.8 243.17c136.83,-148.46 164.73,26.89 249.51,-34.95 95.66,-69.77 87.4,-166.72 224.78,-67.6 -52.21,9.41 -78.03,-32.36 -136,12.03 -32.07,24.56 -57.6,74.98 -90.44,92.4 -66.7,35.4 -78.9,-18.67 -126,-30.59 -64.33,-16.27 -73.94,21.09 -121.85,28.71zm-79.08 547.9c241.42,-25.13 200.74,98.54 337.22,103.77 90.82,3.47 84.96,-41.26 150.73,-75 83.17,-42.64 93.4,7.71 163.14,13.91 19.23,-111.39 41.49,-164.85 43.62,-298.5 2.64,-166.72 -28.81,-453.35 -146.77,-519.54 -80.18,-45.01 -121.2,16.9 -186.02,58.68 -157.67,101.63 -198.54,-144.5 -362.08,83.78 -71.27,99.48 -44.49,511.94 0.16,632.9z"/>
 </g>
</svg>
