<?xml version="1.0" encoding="UTF-8"?>
<!DOCTYPE svg PUBLIC "-//W3C//DTD SVG 1.1//EN" "http://www.w3.org/Graphics/SVG/1.1/DTD/svg11.dtd">
<!-- Creator: CorelDRAW (Versión de evaluación) -->
<svg xmlns="http://www.w3.org/2000/svg" xml:space="preserve" width="739px" height="2458px" version="1.1" style="shape-rendering:geometricPrecision; text-rendering:geometricPrecision; image-rendering:optimizeQuality; fill-rule:evenodd; clip-rule:evenodd"
viewBox="0 0 739 2457.4"
 xmlns:xlink="http://www.w3.org/1999/xlink"
 xmlns:xodm="http://www.corel.com/coreldraw/odm/2003">
 <defs>
  <style type="text/css">
   <![CDATA[
    .str0 {stroke:#4B4B4D;stroke-width:10;stroke-miterlimit:22.9256}
    .str1 {stroke:#373435;stroke-width:10;stroke-miterlimit:22.9256}
    .fil0 {fill:none}
    .fil1 {fill:#FEFEFE}
   ]]>
  </style>
 </defs>
 <g id="tooth-implant-42">
  <metadata id="CorelCorpID_0Corel-Layer"/>
  <path id="root" class="fil0 str0" d="M230.51 1829.32l269.97 -0.43c0.81,244.9 -272.93,243.17 -269.97,0.43zm-9.1 -167.61c100.5,20.61 180.79,47.76 288.37,53.73l0 80.9 -288.37 -33.89 0 -100.74zm-0.45 -162.15c101.1,17.89 179.39,46.94 288.82,53.82l-0.66 97.95c-101.14,-7.15 -190.62,-24.47 -285.38,-56.6l-2.78 -95.17zm0.05 -164.94c99.18,18.02 177.25,46.78 284.48,53.36l4.52 101.08c-106.44,-6.69 -188.32,-28 -286.62,-56.51l-2.38 -97.93zm0.4 -171.53c99.85,20.64 181.33,48.33 288.37,53.55l0 107.49c-96.18,-6.72 -202.98,-24.59 -288.37,-57.58l0 -103.46zm1.46 -135.66c113.97,-5.26 178.53,0.49 285.71,22.93l0.05 102.48c-101.32,-7.35 -189.85,-25.32 -286.27,-56.73l0.51 -68.68zm5.73 -376.63l274.24 0 -1.06 343.17 -273.4 0 0.22 -343.17zm152.66 -34.9c-46.18,-0.02 -114.96,11.81 -156.19,-8.73l-5.74 -50.02 292.48 0.12c-8.08,77.36 7.52,58.71 -130.55,58.63zm49.66 -69c-25.43,4.3 -52.35,4.29 -77.79,0l-159.97 0c-0.1,26.66 7.29,33.46 10.3,97.87 2.91,62.34 5.15,375.43 -11.25,417.37l-15.88 26.58c-0.97,2.24 -2.65,4.73 -3.37,7.04 -19.29,61.71 41.33,22.86 24.12,122.29 -13.95,80.6 -41.22,-12.98 -25.92,74.09 10.02,56.98 31.12,-7.39 27.21,78.95 -4.63,102.11 -27.85,-9.56 -28.43,76.5 -0.56,81.96 22.94,-15.57 28.31,75.82 1.88,31.89 -2.73,31.1 -9.06,44.6 -16.44,35.03 -8.01,-29.85 -18.46,34.04 -12.83,78.54 12.95,-3.08 26.36,73.93 9.48,54.42 -16.15,73.99 -20.45,83.86 -23.55,54.04 2.8,38.43 27.13,53.15 6.45,144.9 73.03,259.3 192.66,230.4 107.34,-25.92 137.71,-154.57 137.71,-314.25 32.07,-33.12 41.88,-23.29 15.78,-72.06 -1.22,-2.28 -3.23,-4.01 -4.46,-6.33 -9.78,-18.39 -2.73,8.73 -10.4,-22 -19.39,-77.7 44.7,-72.29 18.99,-127.59 -16.31,-35.05 -19.91,7.6 -19.91,-97.32l23.75 -23.45c7.12,-14.22 6.25,-26.12 -0.66,-40.81 -9.83,-20.88 -35.8,-7.45 -23.68,-86.84 11.38,-74.61 1.31,-9.45 16.47,-37.82 0.19,-0.37 28.46,2.53 4.12,-50.09l-8.65 -14.11 -3.28 0 -4.12 -12.05c-6.55,-18.9 -3.95,-37.71 -3.95,-60.14 3.17,-9.83 5.82,-15.12 8.07,-17.5l0 -0.5 16.95 -7.56 0.74 -9.06c6.21,-81.18 -5.98,-0.07 -27.95,-48.66 -16.57,-36.64 2.63,-330.49 4.46,-448.35l-105.49 0z"/>
  <path id="crown" class="fil1 str1" d="M518.43 878.56c82.1,-43.32 186.61,-98.81 204.82,-182.02 21.65,-99.04 22.9,-591.64 -12.71,-675.77 -74.96,-42.41 -357.09,-6.71 -465.02,-6.73 -168.39,-0.04 -262.19,45.66 -243.59,192.05 11.82,93.13 21.59,489.75 99.4,553.74 129.07,106.14 232.4,216.19 417.1,118.73z"/>
 </g>
</svg>
