<?xml version="1.0" encoding="UTF-8"?>
<!DOCTYPE svg PUBLIC "-//W3C//DTD SVG 1.1//EN" "http://www.w3.org/Graphics/SVG/1.1/DTD/svg11.dtd">
<!-- Creator: CorelDRAW (Versión de evaluación) -->
<svg xmlns="http://www.w3.org/2000/svg" xml:space="preserve" width="739px" height="2458px" version="1.1" style="shape-rendering:geometricPrecision; text-rendering:geometricPrecision; image-rendering:optimizeQuality; fill-rule:evenodd; clip-rule:evenodd"
viewBox="0 0 739 2457.4"
 xmlns:xlink="http://www.w3.org/1999/xlink"
 xmlns:xodm="http://www.corel.com/coreldraw/odm/2003">
 <defs>
  <style type="text/css">
   <![CDATA[
    .str0 {stroke:#4B4B4D;stroke-width:10;stroke-miterlimit:22.9256}
    .fil0 {fill:#FEFEFE}
   ]]>
  </style>
 </defs>
 <g id="tooth-implant-16">
  <metadata id="CorelCorpID_0Corel-Layer"/>
  <path id="root" class="fil0 str0" d="M233.84 696.78l269.97 0.42c0.8,-244.89 -272.93,-243.16 -269.97,-0.42zm-9.1 167.61c100.5,-20.61 180.79,-47.76 288.37,-53.73l0 -80.9 -288.37 33.89 0 100.74zm-0.45 162.15c101.1,-17.89 179.39,-46.95 288.82,-53.83l-0.66 -97.94c-101.14,7.15 -190.62,24.47 -285.38,56.6l-2.78 95.17zm0.05 164.94c99.18,-18.03 177.25,-46.78 284.48,-53.36l4.52 -101.08c-106.44,6.69 -188.32,28 -286.62,56.51l-2.38 97.93zm0.4 171.53c99.85,-20.64 181.33,-48.33 288.37,-53.55l0 -107.49c-96.18,6.71 -202.98,24.59 -288.37,57.58l0 103.46zm1.46 135.66c113.97,5.26 178.53,-0.5 285.71,-22.93l0.05 -102.49c-101.32,7.36 -189.85,25.32 -286.27,56.74l0.51 68.68zm5.73 376.62l274.24 0 -1.06 -343.17 -273.4 0 0.22 343.17zm152.66 34.9c-46.18,0.03 -114.96,-11.8 -156.19,8.74l-5.74 50.02 292.48 -0.12c-8.08,-77.36 7.52,-58.71 -130.55,-58.64zm49.66 69c-25.43,-4.3 -52.35,-4.28 -77.79,0l-159.97 0c-0.1,-26.65 7.29,-33.46 10.3,-97.86 2.91,-62.35 5.15,-375.44 -11.25,-417.38l-15.88 -26.57c-0.97,-2.24 -2.65,-4.73 -3.37,-7.04 -19.29,-61.71 41.33,-22.87 24.12,-122.29 -13.95,-80.6 -41.22,12.98 -25.92,-74.1 10.01,-56.97 31.12,7.4 27.21,-78.94 -4.63,-102.11 -27.85,9.55 -28.43,-76.51 -0.56,-81.95 22.94,15.58 28.31,-75.82 1.88,-31.88 -2.73,-31.09 -9.06,-44.59 -16.44,-35.04 -8.02,29.85 -18.46,-34.04 -12.83,-78.54 12.95,3.08 26.36,-73.93 9.48,-54.42 -16.15,-74 -20.45,-83.86 -23.55,-54.04 2.8,-38.44 27.13,-53.15 6.45,-144.9 73.03,-259.3 192.66,-230.41 107.34,25.93 137.71,154.58 137.71,314.26 32.07,33.12 41.88,23.29 15.78,72.06 -1.22,2.27 -3.23,4.01 -4.46,6.33 -9.78,18.38 -2.73,-8.74 -10.4,22 -19.39,77.7 44.7,72.29 18.99,127.58 -16.31,35.06 -19.91,-7.6 -19.91,97.33l23.75 23.44c7.12,14.23 6.25,26.13 -0.66,40.81 -9.83,20.89 -35.8,7.46 -23.68,86.84 11.38,74.62 1.31,9.46 16.47,37.83 0.19,0.37 28.45,-2.53 4.12,50.09l-8.65 14.11 -3.28 0 -4.12 12.05c-6.55,18.9 -3.95,37.71 -3.95,60.14 3.17,9.83 5.82,15.12 8.07,17.5l0 0.49 16.95 7.57 0.74 9.06c6.21,81.17 -5.98,0.07 -27.95,48.66 -16.57,36.64 2.63,330.48 4.46,448.34l-105.49 0z"/>
  <path id="crown" class="fil0 str0" d="M407.38 2271.36c35.04,5.02 60.81,91.68 79.87,130.86 45.01,92.54 69.76,41.17 121.72,39.12 5.43,-48.65 195.43,-359.25 105.47,-807.85 -69.54,-22.18 -90.22,-11.61 -155.3,-63.72 -47.04,-37.66 -85.19,-71.78 -143.68,-73.14 -160.94,-3.75 -123.59,87.54 -346.89,14.6 -66.14,101.87 -66.33,278.79 -68.85,409.78 -1.77,92.37 15.48,355.93 63.6,409.92 27.86,-4.08 50.14,-23.1 81.98,-22.45 49.5,1.01 142,82.52 161.13,-177.25 28.16,22.93 96.12,92.37 100.95,140.13zm0 0c-32.13,-5.99 -41.96,-47.42 -81.63,-76.37l-21.02 88.72c35.14,68.75 59.62,99.27 113.64,44.65 -7.03,-41.66 -7.01,-16.09 -10.99,-57z"/>
 </g>
</svg>
