<?xml version="1.0" encoding="UTF-8"?>
<!DOCTYPE svg PUBLIC "-//W3C//DTD SVG 1.1//EN" "http://www.w3.org/Graphics/SVG/1.1/DTD/svg11.dtd">
<!-- Creator: CorelDRAW (Versión de evaluación) -->
<svg xmlns="http://www.w3.org/2000/svg" xml:space="preserve" width="739px" height="2458px" version="1.1" style="shape-rendering:geometricPrecision; text-rendering:geometricPrecision; image-rendering:optimizeQuality; fill-rule:evenodd; clip-rule:evenodd"
viewBox="0 0 739 2457.4"
 xmlns:xlink="http://www.w3.org/1999/xlink"
 xmlns:xodm="http://www.corel.com/coreldraw/odm/2003">
 <defs>
  <style type="text/css">
   <![CDATA[
    .str0 {stroke:#4B4B4D;stroke-width:10;stroke-miterlimit:22.9256}
    .fil0 {fill:none}
    .fil1 {fill:#FEFEFE}
   ]]>
  </style>
 </defs>
 <g id="tooth-implant-22">
  <metadata id="CorelCorpID_0Corel-Layer"/>
  <path id="root" class="fil0 str0" d="M504.34 696.78l-269.97 0.42c-0.8,-244.89 272.93,-243.16 269.97,-0.42zm9.11 167.61c-100.51,-20.61 -180.8,-47.76 -288.37,-53.73l0 -80.9 288.37 33.89 0 100.74zm0.44 162.15c-101.1,-17.89 -179.39,-46.95 -288.81,-53.83l0.65 -97.94c101.14,7.15 190.62,24.47 285.38,56.6l2.78 95.17zm-0.05 164.94c-99.18,-18.03 -177.25,-46.78 -284.48,-53.36l-4.52 -101.08c106.44,6.69 188.33,28 286.62,56.51l2.38 97.93zm-0.39 171.53c-99.86,-20.64 -181.34,-48.33 -288.37,-53.55l0 -107.49c96.18,6.71 202.98,24.59 288.37,57.58l0 103.46zm-1.46 135.66c-113.98,5.26 -178.54,-0.5 -285.72,-22.93l-0.05 -102.49c101.33,7.36 189.85,25.32 286.27,56.74l-0.5 68.68zm-5.73 376.62l-274.25 0 1.06 -343.17 273.4 0 -0.21 343.17zm-152.67 34.9c46.19,0.03 114.97,-11.8 156.19,8.74l5.75 50.02 -292.49 -0.12c8.08,-77.36 -7.52,-58.71 130.55,-58.64zm-49.65 69c25.43,-4.3 52.34,-4.28 77.78,0l159.97 0c0.1,-26.65 -7.28,-33.46 -10.29,-97.86 -2.91,-62.35 -5.16,-375.44 11.24,-417.38l15.88 -26.57c0.98,-2.24 2.65,-4.73 3.37,-7.04 19.3,-61.71 -41.32,-22.87 -24.11,-122.29 13.95,-80.6 41.21,12.98 25.91,-74.1 -10.01,-56.97 -31.12,7.4 -27.21,-78.94 4.63,-102.11 27.86,9.55 28.44,-76.51 0.55,-81.95 -22.95,15.58 -28.32,-75.82 -1.88,-31.88 2.73,-31.09 9.06,-44.59 16.44,-35.04 8.02,29.85 18.46,-34.04 12.84,-78.54 -12.95,3.08 -26.36,-73.93 -9.48,-54.42 16.15,-74 20.45,-83.86 23.56,-54.04 -2.8,-38.44 -27.12,-53.15 -6.46,-144.9 -73.04,-259.3 -192.67,-230.41 -107.33,25.93 -137.71,154.58 -137.71,314.26 -32.07,33.12 -41.88,23.29 -15.78,72.06 1.22,2.27 3.23,4.01 4.46,6.33 9.78,18.38 2.73,-8.74 10.4,22 19.39,77.7 -44.7,72.29 -18.98,127.58 16.3,35.06 19.9,-7.6 19.9,97.33l-23.74 23.44c-7.13,14.23 -6.25,26.13 0.66,40.81 9.82,20.89 35.79,7.46 23.68,86.84 -11.39,74.62 -1.31,9.46 -16.47,37.83 -0.2,0.37 -28.46,-2.53 -4.12,50.09l8.65 14.11 3.27 0 4.12 12.05c6.56,18.9 3.95,37.71 3.95,60.14 -3.17,9.83 -5.82,15.12 -8.07,17.5l0 0.49 -16.95 7.57 -0.73 9.06c-6.22,81.17 5.97,0.07 27.94,48.66 16.57,36.64 -2.62,330.48 -4.45,448.34l105.49 0z"/>
  <path id="crown" class="fil1 str0" d="M37.59 2455.83c-54.39,-54.52 -36.06,-116.6 -30.62,-193.93 19.35,-275.35 31.02,-290.87 85.6,-558.43 24.31,-119.12 -0.1,-81.59 100.1,-127.59 182.91,-83.98 154.42,-259.06 392.18,-30.34 87.83,84.5 76.36,24.9 119.31,329.84 12.77,90.58 42.43,316.35 32.4,398.07 -19.03,154.99 -174.69,137.66 -301,149.18 -95.05,8.67 -319.87,42.4 -397.97,33.2z"/>
 </g>
</svg>
