<?xml version="1.0" encoding="UTF-8"?>
<!DOCTYPE svg PUBLIC "-//W3C//DTD SVG 1.1//EN" "http://www.w3.org/Graphics/SVG/1.1/DTD/svg11.dtd">
<!-- Creator: CorelDRAW (Versión de evaluación) -->
<svg xmlns="http://www.w3.org/2000/svg" xml:space="preserve" width="561px" height="2062px" version="1.1" style="shape-rendering:geometricPrecision; text-rendering:geometricPrecision; image-rendering:optimizeQuality; fill-rule:evenodd; clip-rule:evenodd"
viewBox="0 0 561 2060.59"
 xmlns:xlink="http://www.w3.org/1999/xlink"
 xmlns:xodm="http://www.corel.com/coreldraw/odm/2003">
 <defs>
  <style type="text/css">
   <![CDATA[
    .str0 {stroke:#4B4B4D;stroke-width:19.98;stroke-miterlimit:22.9256}
    .fil0 {fill:#BDBFC1}
    .fil2 {fill:#4B4B4D}
    .fil1 {fill:#FAFAF7}
   ]]>
  </style>
 </defs>
 <g id="implant">
  <metadata id="CorelCorpID_0Corel-Layer"/>
  <path id="root" class="fil0 str0" d="M225.33 1376.14c21.43,-3.62 44.11,-3.61 65.55,0l134.83 0c0.09,-22.47 -6.14,-28.2 -8.68,-82.48 -2.45,-52.55 -4.34,-316.42 9.48,-351.77l13.38 -22.4c0.83,-1.88 2.24,-3.98 2.84,-5.93 16.27,-52.01 -34.82,-19.27 -20.32,-103.07 11.76,-67.92 34.74,10.95 21.84,-62.44 -8.44,-48.02 -26.23,6.23 -22.93,-66.54 3.9,-86.06 23.47,8.05 23.96,-64.48 0.47,-69.07 -19.33,13.13 -23.86,-63.9 -1.58,-26.88 2.3,-26.21 7.64,-37.58 13.85,-29.53 6.75,25.15 15.55,-28.69 10.82,-66.2 -10.91,2.59 -22.21,-62.31 -7.99,-45.87 13.61,-62.37 17.23,-70.68 19.86,-45.54 -2.35,-32.39 -22.86,-44.8 -5.44,-122.12 -61.55,-218.54 -162.38,-194.18 -90.46,21.84 -116.06,130.27 -116.06,264.85 -27.03,27.92 -35.3,19.64 -13.3,60.74 1.03,1.91 2.72,3.38 3.76,5.33 8.24,15.5 2.3,-7.36 8.76,18.54 16.34,65.49 -37.67,60.93 -16,107.53 13.75,29.55 16.78,-6.4 16.78,82.03l-20.01 19.76c-6.01,11.99 -5.27,22.02 0.55,34.39 8.29,17.61 30.17,6.29 19.96,73.19 -9.6,62.89 -1.1,7.97 -13.88,31.88 -0.16,0.31 -23.99,-2.13 -3.47,42.22l7.29 11.89 2.76 0 3.47 10.16c5.52,15.92 3.33,31.78 3.33,50.68 -2.67,8.29 -4.91,12.75 -6.8,14.75l0 0.42 -14.29 6.38 -0.62 7.63c-5.24,68.42 5.04,0.06 23.56,41.01 13.96,30.88 -2.22,278.54 -3.76,377.87l88.91 0zm41.85 -58.15c38.92,0.02 96.89,-9.95 131.63,7.36l4.85 42.16 -246.51 -0.1c6.81,-65.2 -6.34,-49.48 110.03,-49.42zm128.66 -29.42l-231.13 0 0.89 -289.22 230.43 0 -0.19 289.22zm4.83 -317.42c-96.06,4.43 -150.47,-0.42 -240.8,-19.32l-0.04 -86.38c85.4,6.2 160.01,21.34 241.27,47.81l-0.43 57.89zm1.23 -114.33c-84.15,-17.4 -152.82,-40.74 -243.03,-45.14l0 -90.59c81.06,5.66 171.07,20.72 243.03,48.53l0 87.2zm0.34 -144.57c-83.59,-15.19 -149.39,-39.43 -239.77,-44.97l-3.8 -85.19c89.7,5.63 158.72,23.59 241.56,47.62l2.01 82.54zm0.04 -139.02c-85.21,-15.07 -151.19,-39.56 -243.41,-45.36l0.55 -82.55c85.24,6.03 160.65,20.62 240.52,47.7l2.34 80.21zm-0.38 -136.66c-84.7,-17.37 -152.37,-40.25 -243.03,-45.28l0 -68.18 243.03 28.56 0 84.9zm-7.67 -141.26l-227.53 0.36c-0.68,-206.4 230.03,-204.94 227.53,-0.36z"/>
  <polygon id="crown" class="fil1" points="319.8,1231.1 330.59,1231.1 330.59,1234.69 341.38,1234.69 341.38,1238.29 348.57,1238.29 348.57,1241.89 355.76,1241.89 355.76,1245.48 359.36,1245.48 359.36,1249.08 366.55,1249.08 366.55,1252.68 370.14,1252.68 370.14,1256.27 377.34,1256.27 377.34,1259.87 380.93,1259.87 380.93,1263.46 384.53,1263.46 384.53,1267.06 388.13,1267.06 388.13,1270.66 391.72,1270.66 391.72,1274.25 395.32,1274.25 395.32,1281.44 398.92,1281.44 398.92,1285.04 402.51,1285.04 402.51,1288.63 406.11,1288.63 406.11,1292.23 409.7,1292.23 409.7,1299.42 413.3,1299.42 413.3,1303.02 416.9,1303.02 416.9,1310.21 420.49,1310.21 420.49,1313.81 424.09,1313.81 424.09,1321 427.68,1321 427.68,1324.6 431.28,1324.6 431.28,1331.79 434.88,1331.79 434.88,1338.98 438.47,1338.98 438.47,1346.17 442.07,1346.17 442.07,1353.37 445.66,1353.37 445.66,1360.56 449.26,1360.56 449.26,1367.75 452.86,1367.75 452.86,1374.94 456.45,1374.94 456.45,1385.73 460.05,1385.73 460.05,1396.52 463.65,1396.52 463.65,1410.9 467.24,1410.9 467.24,1418.1 470.84,1418.1 470.84,1432.48 474.44,1432.48 474.44,1446.87 478.03,1446.87 478.03,1461.25 481.63,1461.25 481.63,1468.44 485.22,1468.44 485.22,1486.42 488.82,1486.42 488.82,1497.21 492.42,1497.21 492.42,1511.6 496.01,1511.6 496.01,1525.98 499.61,1525.98 499.61,1540.37 503.2,1540.37 503.2,1554.75 506.8,1554.75 506.8,1569.14 510.39,1569.14 510.39,1590.71 513.99,1590.71 513.99,1612.29 517.59,1612.29 517.59,1623.08 521.18,1623.08 521.18,1644.65 524.78,1644.65 524.78,1669.83 528.38,1669.83 528.38,1691.41 531.97,1691.41 531.97,1723.77 535.57,1723.77 535.57,1756.14 539.17,1756.14 539.17,1835.25 535.57,1835.25 535.57,1878.4 531.97,1878.4 531.97,1914.37 528.38,1914.37 528.38,1928.75 524.78,1928.75 524.78,1943.13 521.18,1943.13 521.18,1950.33 517.59,1950.33 517.59,1957.52 513.99,1957.52 513.99,1961.12 510.39,1961.12 510.39,1964.71 506.8,1964.71 506.8,1968.31 503.2,1968.31 503.2,1971.91 499.61,1971.91 499.61,1975.5 492.42,1975.5 492.42,1979.1 488.82,1979.1 488.82,1982.69 478.03,1982.69 478.03,1986.29 467.24,1986.29 467.24,1989.88 452.86,1989.88 452.86,1993.48 434.88,1993.48 434.88,1997.08 409.7,1997.08 409.7,2000.67 373.74,2000.67 373.74,2004.27 323.4,2004.27 323.4,2007.86 201.13,2007.86 201.13,2004.27 132.8,2004.27 132.8,2000.67 100.43,2000.67 100.43,1997.08 64.47,1997.08 64.47,1993.48 57.28,1993.48 57.28,1989.88 50.09,1989.88 50.09,1986.29 42.9,1986.29 42.9,1982.69 39.3,1982.69 39.3,1979.1 35.7,1979.1 35.7,1971.91 32.11,1971.91 32.11,1964.71 28.51,1964.71 28.51,1953.92 24.91,1953.92 24.91,1921.56 21.32,1921.56 21.32,1770.52 24.91,1770.52 24.91,1709.38 28.51,1709.38 28.51,1673.43 32.11,1673.43 32.11,1641.06 35.7,1641.06 35.7,1623.08 39.3,1623.08 39.3,1601.5 42.9,1601.5 42.9,1587.12 46.49,1587.12 46.49,1558.35 50.09,1558.35 50.09,1547.56 53.69,1547.56 53.69,1529.58 57.28,1529.58 57.28,1518.79 60.88,1518.79 60.88,1504.4 64.47,1504.4 64.47,1486.42 68.07,1486.42 68.07,1475.64 71.66,1475.64 71.66,1464.85 75.26,1464.85 75.26,1454.06 78.86,1454.06 78.86,1443.27 82.45,1443.27 82.45,1432.48 86.05,1432.48 86.05,1421.69 89.64,1421.69 89.64,1410.9 93.24,1410.9 93.24,1400.12 96.84,1400.12 96.84,1392.93 100.43,1392.93 100.43,1382.14 104.03,1382.14 104.03,1374.94 107.63,1374.94 107.63,1367.75 111.22,1367.75 111.22,1360.56 114.82,1360.56 114.82,1353.37 118.42,1353.37 118.42,1346.17 122.01,1346.17 122.01,1338.98 125.61,1338.98 125.61,1331.79 129.2,1331.79 129.2,1328.2 132.8,1328.2 132.8,1321 136.4,1321 136.4,1317.41 139.99,1317.41 139.99,1310.21 143.59,1310.21 143.59,1306.62 147.18,1306.62 147.18,1299.42 150.78,1299.42 150.78,1295.83 154.38,1295.83 154.38,1292.23 157.97,1292.23 157.97,1288.63 161.57,1288.63 161.57,1285.04 165.16,1285.04 165.16,1281.44 168.76,1281.44 168.76,1277.85 172.36,1277.85 172.36,1270.66 175.95,1270.66 175.95,1267.06 179.55,1267.06 179.55,1263.46 186.74,1263.46 186.74,1259.87 190.34,1259.87 190.34,1256.27 193.94,1256.27 193.94,1252.68 201.13,1252.68 201.13,1249.08 204.72,1249.08 204.72,1245.48 211.92,1245.48 211.92,1241.89 219.11,1241.89 219.11,1238.29 229.89,1238.29 229.89,1234.69 237.09,1234.69 237.09,1231.1 251.47,1231.1 251.47,1227.5 319.8,1227.5 "/>
  <path id="outline" class="fil2" d="M539.17 1756.14l-3.6 0 0 -32.37 -3.6 0 0 -32.36 -3.59 0 0 -21.58 -3.6 0 0 -25.18 -3.6 0 0 -21.57 -3.59 0 0 -10.79 -3.6 0 0 -21.58 -3.6 0 0 -21.57 -3.59 0 0 -14.39 -3.6 0 0 -14.38 -3.59 0 0 -14.39 -3.6 0 0 -14.38 -3.59 0 0 -14.39 -3.6 0 0 -10.79 -3.6 0 0 -17.98 -3.59 0 0 -7.19 -3.6 0 0 -14.38 -3.59 0 0 -14.39 -3.6 0 0 -14.38 -3.6 0 0 -7.2 -3.59 0 0 -14.38 -3.6 0 0 -10.79 -3.6 0 0 -10.79 -3.59 0 0 -7.19 -3.6 0 0 -7.19 -3.6 0 0 -7.19 -3.59 0 0 -7.2 -3.6 0 0 -7.19 -3.59 0 0 -7.19 -3.6 0 0 -7.19 -3.6 0 0 -3.6 -3.59 0 0 -7.19 -3.6 0 0 -3.6 -3.59 0 0 -7.19 -3.6 0 0 -3.6 -3.6 0 0 -7.19 -3.59 0 0 -3.6 -3.6 0 0 -3.59 -3.59 0 0 -3.6 -3.6 0 0 -7.19 -3.6 0 0 -3.59 -3.59 0 0 -3.6 -3.6 0 0 -3.6 -3.6 0 0 -3.59 -3.59 0 0 -3.6 -7.2 0 0 -3.59 -3.59 0 0 -3.6 -7.19 0 0 -3.6 -3.6 0 0 -3.59 -7.19 0 0 -3.6 -7.19 0 0 -3.6 -10.79 0 0 -3.59 -10.79 0 0 -3.6 -68.33 0 0 3.6 -14.38 0 0 3.59 -7.2 0 0 3.6 -10.78 0 0 3.6 -7.19 0 0 3.59 -7.2 0 0 3.6 -3.59 0 0 3.6 -7.19 0 0 3.59 -3.6 0 0 3.6 -3.6 0 0 3.59 -7.19 0 0 3.6 -3.6 0 0 3.6 -3.59 0 0 7.19 -3.6 0 0 3.59 -3.6 0 0 3.6 -3.59 0 0 3.59 -3.6 0 0 3.6 -3.59 0 0 3.6 -3.6 0 0 3.59 -3.6 0 0 7.2 -3.59 0 0 3.59 -3.6 0 0 7.2 -3.59 0 0 3.59 -3.6 0 0 7.2 -3.6 0 0 3.59 -3.59 0 0 7.19 -3.6 0 0 7.19 -3.59 0 0 7.2 -3.6 0 0 7.19 -3.6 0 0 7.19 -3.59 0 0 7.19 -3.6 0 0 7.2 -3.6 0 0 10.79 -3.59 0 0 7.19 -3.6 0 0 10.78 -3.6 0 0 10.79 -3.59 0 0 10.79 -3.6 0 0 10.79 -3.59 0 0 10.79 -3.6 0 0 10.79 -3.6 0 0 10.79 -3.59 0 0 10.78 -3.6 0 0 17.98 -3.59 0 0 14.39 -3.6 0 0 10.79 -3.59 0 0 17.98 -3.6 0 0 10.79 -3.6 0 0 28.77 -3.59 0 0 14.38 -3.6 0 0 21.58 -3.6 0 0 17.98 -3.59 0 0 32.37 -3.6 0 0 35.95 -3.6 0 0 61.14 -3.59 0 0 151.04 3.59 0 0 32.36 3.6 0 0 10.79 3.6 0 0 7.2 3.59 0 0 7.19 3.6 0 0 3.59 3.6 0 0 3.6 7.19 0 0 3.59 7.19 0 0 3.6 7.19 0 0 3.6 35.96 0 0 3.59 32.37 0 0 3.6 68.33 0 0 3.59 122.27 0 0 -3.59 50.34 0 0 -3.6 35.96 0 0 -3.59 25.18 0 0 -3.6 17.98 0 0 -3.6 14.38 0 0 -3.59 10.79 0 0 -3.6 10.79 0 0 -3.59 3.6 0 0 -3.6 7.19 0 0 -3.59 3.59 0 0 -3.6 3.6 0 0 -3.6 3.59 0 0 -3.59 3.6 0 0 -3.6 3.6 0 0 -7.19 3.59 0 0 -7.2 3.6 0 0 -14.38 3.6 0 0 -14.38 3.59 0 0 -35.97 3.6 0 0 -43.15 3.6 0 0 -79.11zm-72.02 -397.39l-10.86 -19.63 0.16 -7.33 0 -7.19 -3.59 0 0 -7.19 -3.6 0 0 -3.6 -3.6 0 0 -7.19 -3.59 0 0 -3.6 -3.6 0 0 -7.19 -3.59 0 0 -7.2 -3.6 0 0 -3.59 -3.6 0 0 -3.6 -3.59 0 0 -3.59 -3.6 0 0 -7.19 -3.59 0 0 -3.6 -3.6 0 0 -3.6 -3.6 0 0 -3.59 -3.59 0 0 -3.6 -3.6 0 0 -3.59 -3.59 0 0 -3.6 -3.6 0 0 -3.6 -3.6 0 0 -3.59 -3.59 0 0 -3.6 -7.2 0 0 -3.6 -3.59 0 0 -3.59 -3.6 0 0 -3.6 -7.19 0 0 -3.6 -7.19 0 0 -3.59 -7.2 0 0 -3.6 -10.78 0 0 -3.59 -14.39 0 0 -3.6 -17.98 0 0 -3.6 -53.94 0 0 3.6 -14.39 0 0 3.6 -10.79 0 0 3.59 -10.78 0 0 3.6 -10.79 0 0 3.59 -7.19 0 0 3.6 -7.19 0 0 3.6 -3.6 0 0 3.59 -7.19 0 0 3.6 -3.6 0 0 3.6 -3.6 0 0 3.59 -3.59 0 0 3.6 -3.6 0 0 3.6 -3.6 0 0 3.59 -3.59 0 0 3.6 -7.19 0 0 7.19 -3.6 0 0 3.6 -3.6 0 0 3.59 -3.59 0 0 3.6 -3.6 0 0 3.59 -3.59 0 0 3.6 -3.6 0 0 7.19 -3.6 0 0 3.6 -3.59 0 0 3.59 -3.6 0 0 7.2 -3.59 0 0 3.59 -3.6 0 0 7.2 -3.6 0 0 3.59 -3.59 0 0 7.2 -3.6 0 0 7.19 -3.6 0 0 7.19 -3.59 0 0 7.19 -3.6 0 0 7.19 -3.6 0 0 3.6 -9.04 17.26 -10.77 21.02 -8.95 33.64 -3.6 0 0 14.39 -3.59 0 0 14.38 -3.6 0 0 14.39 -3.6 0 0 7.19 -3.59 0 0 14.38 -3.6 0 0 14.39 -3.6 0 0 14.38 -3.59 0 0 10.79 -3.6 0 0 17.98 -3.6 0 0 14.39 -3.59 0 0 21.57 -3.6 0 0 21.58 -3.6 0 0 28.77 -3.59 0 0 14.38 -3.6 0 0 43.16 -3.59 0 0 46.75 -3.6 0 0 197.78 3.6 0 0 14.39 3.59 0 0 14.39 3.6 0 0 7.19 3.59 0 0 7.19 3.6 0 0 3.59 3.6 0 0 3.6 3.59 0 0 3.6 3.6 0 0 3.59 3.6 0 0 3.6 3.59 0 0 3.59 7.2 0 0 3.6 7.19 0 0 3.6 14.38 0 0 3.59 14.39 0 0 3.6 43.15 0 0 3.6 43.15 0 0 3.59 161.83 0 0 -3.59 64.73 0 0 -3.6 32.37 0 0 -3.6 17.98 0 0 -3.59 17.98 0 0 -3.6 14.39 0 0 -3.6 10.78 0 0 -3.59 7.2 0 0 -3.6 7.19 0 0 -3.59 7.19 0 0 -3.6 3.59 0 0 -3.6 7.2 0 0 -3.59 3.59 0 0 -3.6 3.6 0 0 -3.59 3.6 0 0 -3.6 3.59 0 0 -3.59 3.6 0 0 -7.2 3.6 0 0 -10.79 3.59 0 0 -7.19 3.6 0 0 -10.79 3.6 0 0 -14.38 3.59 0 0 -25.17 3.6 0 0 -32.37 3.59 0 0 -133.06 -3.59 0 0 -21.58 -3.6 0 0 -25.17 -3.59 0 0 -21.57 -3.6 0 0 -17.99 -3.6 0 0 -25.17 -3.59 0 0 -17.98 -3.6 0 0 -21.58 -3.6 0 0 -10.78 -3.59 0 0 -17.98 -3.6 0 0 -14.39 -3.6 0 0 -14.38 -3.59 0 0 -14.39 -3.6 0 0 -14.38 -3.6 0 0 -21.58 -3.59 0 0 -7.19 -3.6 0 0 -17.98 -3.59 0 0 -10.79 -3.6 0 -2.07 -12.53 -1.52 -5.45 -12.61 -37.34 -12.66 -22.01z"/>
 </g>
</svg>
