<?xml version="1.0" encoding="UTF-8"?>
<!DOCTYPE svg PUBLIC "-//W3C//DTD SVG 1.1//EN" "http://www.w3.org/Graphics/SVG/1.1/DTD/svg11.dtd">
<!-- Creator: CorelDRAW (Versión de evaluación) -->
<svg xmlns="http://www.w3.org/2000/svg" xml:space="preserve" width="518px" height="2062px" version="1.1" style="shape-rendering:geometricPrecision; text-rendering:geometricPrecision; image-rendering:optimizeQuality; fill-rule:evenodd; clip-rule:evenodd"
viewBox="0 0 518 2061.2"
 xmlns:xlink="http://www.w3.org/1999/xlink"
 xmlns:xodm="http://www.corel.com/coreldraw/odm/2003">
 <defs>
  <style type="text/css">
   <![CDATA[
    .str0 {stroke:#4B4B4D;stroke-width:19.99;stroke-miterlimit:22.9256}
    .fil0 {fill:#BDBFC1}
    .fil2 {fill:#4B4B4D}
    .fil1 {fill:#FAFAF7}
   ]]>
  </style>
 </defs>
 <g id="implant">
  <metadata id="CorelCorpID_0Corel-Layer"/>
  <path id="root" class="fil0 str0" d="M313.67 1390.35c-21.44,-3.63 -44.13,-3.61 -65.57,0l-134.87 0c-0.09,-22.48 6.14,-28.21 8.68,-82.51 2.45,-52.56 4.34,-316.51 -9.48,-351.87l-13.39 -22.41c-0.82,-1.88 -2.23,-3.98 -2.84,-5.93 -16.27,-52.03 34.84,-19.27 20.33,-103.1 -11.76,-67.94 -34.75,10.95 -21.85,-62.46 8.44,-48.04 26.24,6.23 22.94,-66.56 -3.9,-86.08 -23.48,8.06 -23.97,-64.49 -0.47,-69.1 19.34,13.12 23.87,-63.93 1.59,-26.88 -2.3,-26.21 -7.64,-37.59 -13.86,-29.54 -6.76,25.16 -15.56,-28.7 -10.82,-66.22 10.92,2.6 22.22,-62.33 7.99,-45.88 -13.61,-62.38 -17.24,-70.7 -19.86,-45.55 2.36,-32.4 22.87,-44.81 5.44,-122.16 61.58,-218.6 162.43,-194.24 90.49,21.85 116.09,130.32 116.09,264.93 27.04,27.93 35.32,19.64 13.31,60.76 -1.03,1.91 -2.72,3.38 -3.76,5.33 -8.25,15.5 -2.3,-7.36 -8.77,18.55 -16.34,65.51 37.69,60.94 16.01,107.56 -13.75,29.56 -16.79,-6.41 -16.79,82.05l20.02 19.77c6.01,11.99 5.27,22.02 -0.55,34.4 -8.29,17.61 -30.18,6.29 -19.97,73.21 9.6,62.91 1.11,7.97 13.89,31.89 0.16,0.32 23.99,-2.13 3.47,42.23l-7.29 11.9 -2.76 0 -3.47 10.16c-5.53,15.93 -3.34,31.79 -3.34,50.69 2.68,8.3 4.91,12.76 6.81,14.76l0 0.42 14.29 6.38 0.62 7.63c5.24,68.44 -5.04,0.06 -23.56,41.02 -13.97,30.9 -9.9,278.63 -8.35,377.99l-76.83 0zm-41.86 -58.17c-38.94,0.02 -96.92,-9.95 -131.68,7.36l-4.84 42.17 246.58 -0.1c-6.81,-65.22 6.34,-49.49 -110.06,-49.43zm-128.71 -29.42l231.21 0 -0.9 -289.32 -230.49 0 0.18 289.32zm-4.83 -317.52c96.09,4.43 150.52,-0.42 240.87,-19.33l0.05 -86.4c-85.42,6.2 -160.06,21.34 -241.34,47.82l0.42 57.91zm-1.23 -114.37c84.18,-17.4 152.88,-40.75 243.11,-45.15l0 -90.62c-81.08,5.66 -171.12,20.73 -243.11,48.55l0 87.22zm-0.33 -144.61c83.62,-15.2 149.43,-39.44 239.83,-44.99l3.81 -85.21c-89.73,5.64 -158.77,23.6 -241.63,47.64l-2.01 82.56zm-0.04 -139.06c85.23,-15.08 151.24,-39.57 243.48,-45.37l-0.55 -82.58c-85.27,6.03 -160.7,20.63 -240.59,47.72l-2.34 80.23zm0.37 -136.7c84.73,-17.37 152.42,-40.26 243.11,-45.29l0 -68.21 -243.11 28.57 0 84.93zm7.68 -141.3l227.6 0.36c0.68,-206.47 -230.1,-205.01 -227.6,-0.36z"/>
  <polygon id="crown" class="fil1" points="236.56,1245.46 222.17,1245.46 222.17,1249.06 211.38,1249.06 211.38,1252.66 204.19,1252.66 204.19,1256.25 196.99,1256.25 196.99,1259.85 193.4,1259.85 193.4,1263.45 186.2,1263.45 186.2,1267.04 182.61,1267.04 182.61,1270.64 175.41,1270.64 175.41,1274.24 171.81,1274.24 171.81,1277.83 168.22,1277.83 168.22,1281.43 164.62,1281.43 164.62,1285.03 161.02,1285.03 161.02,1292.22 157.42,1292.22 157.42,1295.82 153.82,1295.82 153.82,1299.42 150.23,1299.42 150.23,1303.02 146.63,1303.02 146.63,1310.21 143.03,1310.21 143.03,1313.81 139.44,1313.81 139.44,1321 135.84,1321 135.84,1328.2 132.24,1328.2 132.24,1331.79 128.65,1331.79 128.65,1338.99 125.05,1338.99 125.05,1346.18 121.45,1346.18 121.45,1353.38 117.86,1353.38 117.86,1364.17 114.26,1364.17 114.26,1371.37 110.66,1371.37 110.66,1382.16 107.06,1382.16 107.06,1392.95 103.46,1392.95 103.46,1400.14 99.87,1400.14 99.87,1410.93 96.27,1410.93 96.27,1425.32 92.67,1425.32 92.67,1432.52 89.08,1432.52 89.08,1443.31 85.48,1443.31 85.48,1454.1 81.88,1454.1 81.88,1472.08 78.28,1472.08 78.28,1490.07 74.69,1490.07 74.69,1504.46 71.09,1504.46 71.09,1518.85 67.49,1518.85 67.49,1533.24 63.9,1533.24 63.9,1547.63 60.3,1547.63 60.3,1554.82 56.7,1554.82 56.7,1569.21 53.11,1569.21 53.11,1587.2 49.51,1587.2 49.51,1597.99 45.91,1597.99 45.91,1612.38 42.31,1612.38 42.31,1623.17 38.72,1623.17 38.72,1637.56 35.12,1637.56 35.12,1655.54 31.52,1655.54 31.52,1666.33 27.92,1666.33 27.92,1684.32 24.32,1684.32 24.32,1705.91 20.73,1705.91 20.73,1785.04 24.32,1785.04 24.32,1806.63 27.92,1806.63 27.92,1824.62 31.52,1824.62 31.52,1835.41 35.12,1835.41 35.12,1842.6 38.72,1842.6 38.72,1853.39 42.31,1853.39 42.31,1860.58 45.91,1860.58 45.91,1867.78 49.51,1867.78 49.51,1874.97 53.11,1874.97 53.11,1882.17 56.7,1882.17 56.7,1889.36 60.3,1889.36 60.3,1892.96 63.9,1892.96 63.9,1896.56 67.49,1896.56 67.49,1903.75 71.09,1903.75 71.09,1907.35 74.69,1907.35 74.69,1910.94 78.28,1910.94 78.28,1914.54 81.88,1914.54 81.88,1918.14 85.48,1918.14 85.48,1921.74 89.08,1921.74 89.08,1925.33 92.67,1925.33 92.67,1928.93 96.27,1928.93 96.27,1932.53 99.87,1932.53 99.87,1936.13 107.06,1936.13 107.06,1939.73 110.66,1939.73 110.66,1943.32 114.26,1943.32 114.26,1946.92 117.86,1946.92 117.86,1950.52 121.45,1950.52 121.45,1954.11 128.65,1954.11 128.65,1957.71 132.24,1957.71 132.24,1961.31 135.84,1961.31 135.84,1964.9 143.03,1964.9 143.03,1968.5 146.63,1968.5 146.63,1972.1 150.23,1972.1 150.23,1975.69 157.42,1975.69 157.42,1979.29 161.02,1979.29 161.02,1982.89 164.62,1982.89 164.62,1986.49 171.81,1986.49 171.81,1990.08 175.41,1990.08 175.41,1993.68 179.01,1993.68 179.01,1997.28 186.2,1997.28 186.2,2000.88 189.8,2000.88 189.8,2004.48 193.4,2004.48 193.4,2008.07 200.59,2008.07 200.59,2011.67 207.78,2011.67 207.78,2015.27 211.38,2015.27 211.38,2018.86 218.57,2018.86 218.57,2022.46 222.17,2022.46 222.17,2026.06 229.37,2026.06 229.37,2029.65 236.56,2029.65 236.56,2033.25 243.76,2033.25 243.76,2036.85 276.13,2036.85 276.13,2033.25 286.92,2033.25 286.92,2029.65 294.12,2029.65 294.12,2026.06 301.31,2026.06 301.31,2022.46 304.91,2022.46 304.91,2018.86 308.51,2018.86 308.51,2015.27 315.7,2015.27 315.7,2011.67 319.3,2011.67 319.3,2008.07 322.9,2008.07 322.9,2004.48 330.09,2004.48 330.09,2000.88 333.69,2000.88 333.69,1997.28 337.28,1997.28 337.28,1993.68 344.48,1993.68 344.48,1990.08 348.08,1990.08 348.08,1986.49 351.67,1986.49 351.67,1982.89 355.27,1982.89 355.27,1979.29 362.46,1979.29 362.46,1975.69 366.06,1975.69 366.06,1972.1 373.26,1972.1 373.26,1968.5 376.86,1968.5 376.86,1964.9 380.45,1964.9 380.45,1961.31 387.64,1961.31 387.64,1957.71 391.24,1957.71 391.24,1954.11 398.43,1954.11 398.43,1950.52 402.03,1950.52 402.03,1946.92 405.63,1946.92 405.63,1943.32 412.82,1943.32 412.82,1939.73 416.42,1939.73 416.42,1936.13 420.02,1936.13 420.02,1932.53 423.62,1932.53 423.62,1928.93 427.22,1928.93 427.22,1925.33 434.41,1925.33 434.41,1921.74 438.01,1921.74 438.01,1918.14 441.6,1918.14 441.6,1914.54 445.2,1914.54 445.2,1910.94 448.8,1910.94 448.8,1907.35 452.39,1907.35 452.39,1903.75 455.99,1903.75 455.99,1896.56 459.59,1896.56 459.59,1892.96 463.18,1892.96 463.18,1889.36 466.78,1889.36 466.78,1882.17 470.38,1882.17 470.38,1874.97 473.98,1874.97 473.98,1867.78 477.57,1867.78 477.57,1860.58 481.17,1860.58 481.17,1853.39 484.77,1853.39 484.77,1846.2 488.37,1846.2 488.37,1824.62 491.97,1824.62 491.97,1716.7 488.37,1716.7 488.37,1691.52 484.77,1691.52 484.77,1666.33 481.17,1666.33 481.17,1651.95 477.57,1651.95 477.57,1623.17 473.98,1623.17 473.98,1601.58 470.38,1601.58 470.38,1583.6 466.78,1583.6 466.78,1572.81 463.18,1572.81 463.18,1547.63 459.59,1547.63 459.59,1533.24 455.99,1533.24 455.99,1518.85 452.39,1518.85 452.39,1504.46 448.8,1504.46 448.8,1490.07 445.2,1490.07 445.2,1482.88 441.6,1482.88 441.6,1472.08 438.01,1472.08 438.01,1457.7 434.41,1457.7 434.41,1450.5 430.81,1450.5 430.81,1439.71 427.22,1439.71 427.22,1432.52 423.62,1432.52 423.62,1421.72 420.02,1421.72 420.02,1414.53 416.42,1414.53 416.42,1403.74 412.82,1403.74 412.82,1396.54 409.23,1396.54 409.23,1389.35 405.63,1389.35 405.63,1378.56 402.03,1378.56 402.03,1371.37 398.43,1371.37 398.43,1367.77 394.84,1367.77 394.84,1360.57 391.24,1360.57 391.24,1353.38 387.64,1353.38 387.64,1346.18 384.05,1346.18 384.05,1338.99 380.45,1338.99 380.45,1331.79 376.86,1331.79 376.86,1328.2 373.26,1328.2 373.26,1324.6 369.66,1324.6 369.66,1317.41 366.06,1317.41 366.06,1313.81 362.46,1313.81 362.46,1306.61 358.87,1306.61 358.87,1303.02 355.27,1303.02 355.27,1299.42 351.67,1299.42 351.67,1292.22 348.08,1292.22 348.08,1288.63 344.48,1288.63 344.48,1285.03 340.88,1285.03 340.88,1281.43 337.28,1281.43 337.28,1277.83 333.69,1277.83 333.69,1274.24 326.49,1274.24 326.49,1270.64 322.9,1270.64 322.9,1267.04 315.7,1267.04 315.7,1263.45 312.11,1263.45 312.11,1259.85 304.91,1259.85 304.91,1256.25 297.72,1256.25 297.72,1252.66 290.52,1252.66 290.52,1249.06 283.32,1249.06 283.32,1245.46 272.53,1245.46 272.53,1241.86 236.56,1241.86 "/>
  <path id="outline" class="fil2" d="M20.73 1705.91l3.59 0 0 -21.59 3.6 0 0 -17.99 3.6 0 0 -10.79 3.6 0 0 -17.98 3.6 0 0 -14.39 3.59 0 0 -10.79 3.6 0 0 -14.39 3.6 0 0 -10.79 3.6 0 0 -17.99 3.59 0 0 -14.39 3.6 0 0 -7.19 3.6 0 0 -14.39 3.59 0 0 -14.39 3.6 0 0 -14.39 3.6 0 0 -14.39 3.59 0 0 -17.99 3.6 0 0 -17.98 3.6 0 0 -10.79 3.6 0 0 -10.79 3.59 0 0 -7.2 3.6 0 0 -14.39 3.6 0 0 -10.79 3.59 0 0 -7.19 3.6 0 0 -10.79 3.6 0 0 -10.79 3.6 0 0 -7.2 3.6 0 0 -10.79 3.59 0 0 -7.2 3.6 0 0 -7.19 3.6 0 0 -7.2 3.59 0 0 -3.59 3.6 0 0 -7.2 3.6 0 0 -7.19 3.59 0 0 -3.6 3.6 0 0 -7.19 3.6 0 0 -3.6 3.59 0 0 -3.6 3.6 0 0 -3.6 3.6 0 0 -7.19 3.6 0 0 -3.6 3.6 0 0 -3.6 3.59 0 0 -3.59 3.6 0 0 -3.6 7.2 0 0 -3.6 3.59 0 0 -3.59 7.2 0 0 -3.6 3.59 0 0 -3.6 7.2 0 0 -3.59 7.19 0 0 -3.6 10.79 0 0 -3.6 14.39 0 0 -3.6 35.97 0 0 3.6 10.79 0 0 3.6 7.2 0 0 3.6 7.2 0 0 3.59 7.19 0 0 3.6 7.2 0 0 3.6 3.59 0 0 3.59 7.2 0 0 3.6 3.59 0 0 3.6 7.2 0 0 3.59 3.59 0 0 3.6 3.6 0 0 3.6 3.6 0 0 3.6 3.6 0 0 3.59 3.59 0 0 7.2 3.6 0 0 3.6 3.6 0 0 3.59 3.59 0 0 7.2 3.6 0 0 3.6 3.6 0 0 7.19 3.6 0 0 3.6 3.6 0 0 3.59 3.59 0 0 7.2 3.6 0 0 7.19 3.59 0 0 7.2 3.6 0 0 7.19 3.6 0 0 7.2 3.59 0 0 3.6 3.6 0 0 7.19 3.6 0 0 10.79 3.6 0 0 7.19 3.59 0 0 7.2 3.6 0 0 10.79 3.6 0 0 7.19 3.6 0 0 10.8 3.6 0 0 7.19 3.59 0 0 10.79 3.6 0 0 7.2 3.6 0 0 14.38 3.59 0 0 10.8 3.6 0 0 7.19 3.6 0 0 14.39 3.59 0 0 14.39 3.6 0 0 14.39 3.6 0 0 14.39 3.59 0 0 25.18 3.6 0 0 10.79 3.6 0 0 17.98 3.6 0 0 21.59 3.59 0 0 28.78 3.6 0 0 14.38 3.6 0 0 25.19 3.6 0 0 25.18 3.6 0 0 107.92 -3.6 0 0 21.58 -3.6 0 0 7.19 -3.6 0 0 7.19 -3.6 0 0 7.2 -3.59 0 0 7.19 -3.6 0 0 7.2 -3.6 0 0 7.19 -3.6 0 0 3.6 -3.59 0 0 3.6 -3.6 0 0 7.19 -3.6 0 0 3.6 -3.59 0 0 3.59 -3.6 0 0 3.6 -3.6 0 0 3.6 -3.59 0 0 3.6 -3.6 0 0 3.59 -7.19 0 0 3.6 -3.6 0 0 3.6 -3.6 0 0 3.6 -3.6 0 0 3.6 -3.6 0 0 3.59 -7.19 0 0 3.6 -3.6 0 0 3.6 -3.6 0 0 3.59 -7.19 0 0 3.6 -3.6 0 0 3.6 -7.19 0 0 3.59 -3.59 0 0 3.6 -3.6 0 0 3.6 -7.2 0 0 3.59 -3.6 0 0 3.6 -7.19 0 0 3.6 -3.6 0 0 3.6 -3.59 0 0 3.59 -3.6 0 0 3.6 -7.2 0 0 3.6 -3.59 0 0 3.6 -3.6 0 0 3.6 -7.19 0 0 3.59 -3.6 0 0 3.6 -3.6 0 0 3.6 -7.19 0 0 3.59 -3.6 0 0 3.6 -3.6 0 0 3.6 -7.19 0 0 3.59 -7.2 0 0 3.6 -10.79 0 0 3.6 -32.37 0 0 -3.6 -7.2 0 0 -3.6 -7.19 0 0 -3.59 -7.2 0 0 -3.6 -3.6 0 0 -3.6 -7.19 0 0 -3.59 -3.6 0 0 -3.6 -7.19 0 0 -3.6 -7.19 0 0 -3.59 -3.6 0 0 -3.6 -3.6 0 0 -3.6 -7.19 0 0 -3.6 -3.6 0 0 -3.6 -3.6 0 0 -3.59 -7.19 0 0 -3.6 -3.6 0 0 -3.6 -3.6 0 0 -3.6 -7.19 0 0 -3.59 -3.6 0 0 -3.6 -3.6 0 0 -3.6 -7.19 0 0 -3.59 -3.6 0 0 -3.6 -3.59 0 0 -3.6 -7.2 0 0 -3.59 -3.59 0 0 -3.6 -3.6 0 0 -3.6 -3.6 0 0 -3.59 -3.6 0 0 -3.6 -7.19 0 0 -3.6 -3.6 0 0 -3.6 -3.6 0 0 -3.6 -3.59 0 0 -3.59 -3.6 0 0 -3.6 -3.6 0 0 -3.6 -3.6 0 0 -3.6 -3.59 0 0 -3.59 -3.6 0 0 -3.6 -3.6 0 0 -7.19 -3.59 0 0 -3.6 -3.6 0 0 -3.6 -3.6 0 0 -7.19 -3.59 0 0 -7.2 -3.6 0 0 -7.19 -3.6 0 0 -7.2 -3.6 0 0 -7.19 -3.59 0 0 -10.79 -3.6 0 0 -7.19 -3.6 0 0 -10.79 -3.6 0 0 -17.99 -3.6 0 0 -21.59 -3.59 0 0 -79.13zm55.97 -288.78l-11.13 33.24 -8.87 25.31 -3.59 0 0 14.39 -3.6 0 0 17.99 -3.6 0 0 10.79 -3.6 0 0 14.39 -3.59 0 0 17.98 -3.6 0 0 14.4 -3.6 0 0 3.59 -3.6 0 0 17.99 -3.6 0 0 10.79 -3.59 0 0 17.98 -3.6 0 0 14.4 -3.6 0 0 14.38 -3.59 0 0 14.39 -3.6 0 0 17.99 -3.6 0 0 17.98 -3.59 0 0 97.13 3.59 0 0 17.98 3.6 0 0 21.59 3.6 0 0 7.19 3.59 0 0 10.79 3.6 0 0 7.2 3.6 0 0 10.79 3.59 0 0 7.19 3.6 0 0 7.2 3.6 0 0 7.19 3.6 0 0 3.6 3.6 0 0 7.19 3.59 0 0 7.2 3.6 0 0 3.59 3.6 0 0 3.6 3.6 0 0 3.6 3.59 0 0 7.19 3.6 0 0 3.6 3.6 0 0 3.6 3.59 0 0 3.6 3.6 0 0 3.6 3.6 0 0 3.59 3.59 0 0 3.6 3.6 0 0 3.6 3.6 0 0 3.59 7.19 0 0 3.6 3.6 0 0 3.6 3.6 0 0 3.59 3.59 0 0 3.6 3.6 0 0 3.6 7.2 0 0 3.59 3.6 0 0 3.6 7.19 0 0 3.6 3.6 0 0 3.6 3.59 0 0 3.59 3.6 0 0 3.6 7.19 0 0 3.6 3.6 0 0 3.6 7.19 0 0 3.6 3.6 0 0 3.59 3.6 0 0 3.6 7.2 0 0 3.6 3.59 0 0 3.59 3.6 0 0 3.6 7.2 0 0 3.6 3.59 0 0 3.59 3.6 0 0 3.6 7.19 0 0 3.6 3.6 0 0 3.59 7.19 0 0 3.6 7.2 0 0 3.6 7.19 0 0 3.6 7.2 0 0 3.6 7.19 0 0 3.59 14.39 0 0 3.6 21.58 0 0 -3.6 14.39 0 0 -3.59 7.2 0 0 -3.6 7.19 0 0 -3.6 7.2 0 0 -3.6 3.6 0 0 -3.6 7.19 0 0 -3.59 3.6 0 0 -3.6 3.59 0 0 -3.6 7.2 0 0 -3.59 3.59 0 0 -3.6 7.2 0 0 -3.6 3.6 0 0 -3.59 3.59 0 0 -3.6 3.6 0 0 -3.6 7.19 0 0 -3.59 3.6 0 0 -3.6 3.6 0 0 -3.6 7.2 0 0 -3.6 3.59 0 0 -3.6 7.19 0 0 -3.59 3.6 0 0 -3.6 3.6 0 0 -3.6 3.59 0 0 -3.6 7.2 0 0 -3.59 3.6 0 0 -3.6 7.19 0 0 -3.6 3.6 0 0 -3.59 3.6 0 0 -3.6 3.6 0 0 -3.6 7.19 0 0 -3.59 3.6 0 0 -3.6 3.59 0 0 -3.6 3.6 0 0 -3.59 3.6 0 0 -3.6 7.19 0 0 -3.6 3.6 0 0 -3.6 3.59 0 0 -3.6 3.6 0 0 -3.59 3.6 0 0 -7.2 3.6 0 0 -3.6 3.59 0 0 -3.59 3.6 0 0 -3.6 3.6 0 0 -7.19 3.6 0 0 -3.6 3.6 0 0 -7.19 3.59 0 0 -7.2 3.6 0 0 -7.19 3.6 0 0 -10.8 3.59 0 0 -10.79 3.6 0 0 -17.98 3.6 0 0 -10.79 3.59 0 0 -79.14 -3.59 0 0 -35.97 -3.6 0 0 -28.78 -3.6 0 0 -21.59 -3.59 0 0 -17.98 -3.6 0 0 -25.18 -3.6 0 0 -14.39 -3.59 0 0 -21.58 -3.6 0 0 -21.59 -3.6 0 0 -21.58 -3.6 0 0 -21.58 -3.6 0 -2 -12.97 -1.59 -5.02 -19.88 -39.96 -12.5 -24.79 0 -7.2 -3.59 0 0 -7.19 -3.6 0 0 -10.79 -3.6 0 0 -10.79 -3.59 0 0 -7.2 -3.6 0 0 -10.79 -3.6 0 0 -7.19 -3.6 0 0 -3.6 -3.6 0 0 -7.2 -3.59 0 0 -7.19 -3.6 0 0 -7.2 -3.6 0 0 -7.19 -3.6 0 0 -7.19 -3.59 0 0 -3.6 -3.6 0 0 -7.19 -3.6 0 0 -3.6 -3.59 0 0 -3.6 -3.6 0 0 -7.19 -3.59 0 0 -7.2 -3.6 0 0 -3.6 -3.6 0 0 -3.59 -3.6 0 0 -3.6 -3.6 0 0 -3.6 -3.59 0 0 -3.6 -3.6 0 0 -3.59 -3.6 0 0 -3.6 -3.59 0 0 -3.6 -3.6 0 0 -3.59 -3.6 0 0 -3.6 -3.6 0 0 -3.6 -7.19 0 0 -3.59 -3.6 0 0 -3.6 -7.19 0 0 -3.6 -7.19 0 0 -3.6 -7.2 0 0 -3.59 -10.79 0 0 -3.6 -10.8 0 0 -3.6 -14.38 0 0 -3.59 -39.57 0 0 3.59 -14.39 0 0 3.6 -10.79 0 0 3.6 -7.2 0 0 3.59 -7.19 0 0 3.6 -7.19 0 0 3.6 -7.2 0 0 3.6 -3.6 0 0 3.59 -3.59 0 0 3.6 -7.2 0 0 3.6 -3.6 0 0 3.59 -3.6 0 0 3.6 -3.59 0 0 3.6 -3.6 0 0 3.59 -3.6 0 0 3.6 -3.59 0 0 3.6 -3.6 0 0 7.19 -3.6 0 0 3.6 -3.59 0 0 7.2 -3.6 0 0 3.59 -3.6 0 0 7.2 -3.59 0 0 3.6 -3.6 0 0 7.19 -3.6 0 0 7.19 -3.6 0 0 10.79 -3.6 0 0 7.2 -3.59 0 0 7.19 -3.6 0 0 7.2 -3.6 0 0 10.79 -3.59 0 -12.38 42.17z"/>
 </g>
</svg>
