<?xml version="1.0" encoding="UTF-8"?>
<!DOCTYPE svg PUBLIC "-//W3C//DTD SVG 1.1//EN" "http://www.w3.org/Graphics/SVG/1.1/DTD/svg11.dtd">
<!-- Creator: CorelDRAW (Versión de evaluación) -->
<svg xmlns="http://www.w3.org/2000/svg" xml:space="preserve" width="763px" height="2062px" version="1.1" style="shape-rendering:geometricPrecision; text-rendering:geometricPrecision; image-rendering:optimizeQuality; fill-rule:evenodd; clip-rule:evenodd"
viewBox="0 0 763 2062.24"
 xmlns:xlink="http://www.w3.org/1999/xlink"
 xmlns:xodm="http://www.corel.com/coreldraw/odm/2003">
 <defs>
  <style type="text/css">
   <![CDATA[
    .str0 {stroke:#4B4B4D;stroke-width:20;stroke-miterlimit:22.9256}
    .fil0 {fill:#BDBFC1}
    .fil2 {fill:#4B4B4D}
    .fil1 {fill:#FAFAF7}
   ]]>
  </style>
 </defs>
 <g id="implant">
  <metadata id="CorelCorpID_0Corel-Layer"/>
  <path id="root" class="fil0 str0" d="M436.2 1626.09c-21.45,-3.62 -44.15,-3.61 -65.61,0l-134.94 0c-0.08,-22.48 6.15,-28.22 8.69,-82.54 2.46,-52.59 4.35,-316.68 -9.49,-352.06l-13.39 -22.41c-0.82,-1.89 -2.23,-3.99 -2.84,-5.94 -16.28,-52.05 34.85,-19.28 20.34,-103.15 -11.77,-67.98 -34.77,10.95 -21.86,-62.5 8.45,-48.05 26.25,6.24 22.95,-66.58 -3.9,-86.13 -23.49,8.05 -23.98,-64.53 -0.47,-69.13 19.35,13.13 23.88,-63.96 1.58,-26.9 -2.3,-26.23 -7.65,-37.61 -13.86,-29.56 -6.75,25.17 -15.56,-28.72 -10.83,-66.25 10.92,2.6 22.23,-62.36 8,-45.9 -13.62,-62.41 -17.25,-70.73 -19.87,-45.58 2.36,-32.42 22.88,-44.83 5.45,-122.22 61.61,-218.72 162.51,-194.34 90.54,21.86 116.16,130.38 116.16,265.06 27.05,27.94 35.33,19.65 13.31,60.79 -1.03,1.92 -2.72,3.38 -3.76,5.33 -8.25,15.51 -2.3,-7.36 -8.77,18.56 -16.36,65.54 37.7,60.98 16.01,107.62 -13.76,29.57 -16.79,-6.41 -16.79,82.09l20.03 19.78c6,12 5.27,22.03 -0.56,34.42 -8.29,17.62 -30.19,6.29 -19.97,73.25 9.6,62.93 1.1,7.97 13.89,31.9 0.16,0.31 24,-2.13 3.47,42.25l-7.29 11.9 -2.76 0 -3.48 10.17c-5.53,15.94 -3.33,31.81 -3.33,50.72 2.67,8.3 4.91,12.76 6.81,14.76l0 0.42 14.29 6.39 0.62 7.64c5.25,68.47 -5.04,0.05 -23.57,41.04 -13.97,30.9 -9.9,278.76 -8.36,378.17l-76.86 0zm-41.89 -58.2c-38.95,0.02 -96.97,-9.95 -131.74,7.37l-4.84 42.19 246.7 -0.1c-6.81,-65.25 6.35,-49.52 -110.12,-49.46zm-128.76 -29.43l231.32 0 -0.9 -289.46 -230.61 0 0.19 289.46zm-4.84 -317.68c96.14,4.43 150.59,-0.42 241,-19.34l0.04 -86.45c-85.46,6.21 -160.14,21.36 -241.46,47.85l0.42 57.94zm-1.23 -114.43c84.23,-17.41 152.95,-40.77 243.24,-45.17l0 -90.67c-81.13,5.67 -171.21,20.75 -243.24,48.57l0 87.27zm-0.33 -144.69c83.66,-15.2 149.5,-39.45 239.95,-45l3.81 -85.26c-89.78,5.64 -158.85,23.62 -241.75,47.66l-2.01 82.6zm-0.04 -139.12c85.27,-15.09 151.31,-39.6 243.61,-45.4l-0.56 -82.61c-85.31,6.03 -160.78,20.63 -240.71,47.74l-2.34 80.27zm0.37 -136.77c84.78,-17.38 152.5,-40.28 243.24,-45.32l0 -68.24 -243.24 28.59 0 84.97zm7.68 -141.38l227.72 0.36c0.67,-206.56 -230.22,-205.1 -227.72,-0.36z"/>
  <polygon id="crown" class="fil1" points="294.27,1408.25 269.07,1408.25 269.07,1411.85 233.08,1411.85 233.08,1415.45 218.69,1415.45 218.69,1419.05 207.89,1419.05 207.89,1422.65 193.49,1422.65 193.49,1426.25 182.7,1426.25 182.7,1429.84 171.9,1429.84 171.9,1433.44 161.1,1433.44 161.1,1437.04 150.3,1437.04 150.3,1440.64 143.11,1440.64 143.11,1444.24 135.91,1444.24 135.91,1447.84 128.71,1447.84 128.71,1451.44 121.51,1451.44 121.51,1455.04 114.32,1455.04 114.32,1458.64 107.12,1458.64 107.12,1462.23 103.52,1462.23 103.52,1465.84 99.92,1465.84 99.92,1473.03 96.32,1473.03 96.32,1480.23 92.72,1480.23 92.72,1487.43 89.12,1487.43 89.12,1498.23 85.52,1498.23 85.52,1505.42 81.93,1505.42 81.93,1516.22 78.32,1516.22 78.32,1527.02 74.72,1527.02 74.72,1537.81 71.13,1537.81 71.13,1548.61 67.53,1548.61 67.53,1559.41 63.93,1559.41 63.93,1566.61 60.33,1566.61 60.33,1584.6 56.73,1584.6 56.73,1591.8 53.13,1591.8 53.13,1606.2 49.53,1606.2 49.53,1616.99 45.93,1616.99 45.93,1634.99 42.33,1634.99 42.33,1649.39 38.74,1649.39 38.74,1670.98 35.14,1670.98 35.14,1692.58 31.53,1692.58 31.53,1714.17 27.94,1714.17 27.94,1739.36 24.34,1739.36 24.34,1814.94 27.94,1814.94 27.94,1829.34 31.53,1829.34 31.53,1850.93 35.14,1850.93 35.14,1858.13 38.74,1858.13 38.74,1868.93 42.33,1868.93 42.33,1872.53 45.93,1872.53 45.93,1879.72 49.53,1879.72 49.53,1886.92 53.13,1886.92 53.13,1894.12 56.73,1894.12 56.73,1897.72 60.33,1897.72 60.33,1901.32 63.93,1901.32 63.93,1904.92 67.53,1904.92 67.53,1908.52 71.13,1908.52 71.13,1912.11 74.72,1912.11 74.72,1915.71 78.32,1915.71 78.32,1919.31 81.93,1919.31 81.93,1922.91 85.52,1922.91 85.52,1926.51 89.12,1926.51 89.12,1930.11 92.72,1930.11 92.72,1933.71 99.92,1933.71 99.92,1937.31 103.52,1937.31 103.52,1940.91 107.12,1940.91 107.12,1944.51 110.72,1944.51 110.72,1948.11 117.91,1948.11 117.91,1951.71 121.51,1951.71 121.51,1955.3 125.11,1955.3 125.11,1958.9 132.31,1958.9 132.31,1962.5 135.91,1962.5 135.91,1966.1 139.51,1966.1 139.51,1969.7 143.11,1969.7 143.11,1973.3 150.3,1973.3 150.3,1976.9 153.91,1976.9 153.91,1980.5 161.1,1980.5 161.1,1984.1 168.3,1984.1 168.3,1987.69 171.9,1987.69 171.9,1991.29 182.7,1991.29 182.7,1994.89 197.09,1994.89 197.09,1998.49 229.48,1998.49 229.48,1994.89 240.28,1994.89 240.28,1991.29 254.68,1991.29 254.68,1987.69 261.88,1987.69 261.88,1984.1 269.07,1984.1 269.07,1980.5 276.27,1980.5 276.27,1976.9 279.87,1976.9 279.87,1973.3 290.67,1973.3 290.67,1969.7 297.87,1969.7 297.87,1966.1 301.46,1966.1 301.46,1962.5 308.67,1962.5 308.67,1958.9 315.86,1958.9 315.86,1955.3 326.66,1955.3 326.66,1951.71 333.86,1951.71 333.86,1948.11 341.06,1948.11 341.06,1944.51 351.85,1944.51 351.85,1940.91 366.25,1940.91 366.25,1937.31 405.84,1937.31 405.84,1940.91 413.04,1940.91 413.04,1944.51 423.83,1944.51 423.83,1948.11 431.03,1948.11 431.03,1951.71 438.23,1951.71 438.23,1955.3 445.43,1955.3 445.43,1958.9 452.62,1958.9 452.62,1962.5 459.82,1962.5 459.82,1966.1 467.02,1966.1 467.02,1969.7 474.22,1969.7 474.22,1973.3 481.42,1973.3 481.42,1976.9 488.62,1976.9 488.62,1980.5 495.81,1980.5 495.81,1984.1 503.01,1984.1 503.01,1987.69 513.81,1987.69 513.81,1991.29 524.61,1991.29 524.61,1994.89 574.99,1994.89 574.99,1991.29 582.19,1991.29 582.19,1987.69 589.39,1987.69 589.39,1984.1 596.59,1984.1 596.59,1980.5 603.78,1980.5 603.78,1976.9 607.38,1976.9 607.38,1973.3 610.98,1973.3 610.98,1969.7 618.18,1969.7 618.18,1966.1 621.78,1966.1 621.78,1962.5 625.38,1962.5 625.38,1958.9 632.58,1958.9 632.58,1955.3 636.18,1955.3 636.18,1951.71 639.78,1951.71 639.78,1948.11 643.38,1948.11 643.38,1944.51 646.97,1944.51 646.97,1940.91 650.57,1940.91 650.57,1937.31 654.17,1937.31 654.17,1933.71 657.77,1933.71 657.77,1930.11 661.37,1930.11 661.37,1926.51 664.97,1926.51 664.97,1922.91 668.57,1922.91 668.57,1919.31 672.17,1919.31 672.17,1915.71 675.77,1915.71 675.77,1912.11 679.36,1912.11 679.36,1908.52 682.96,1908.52 682.96,1904.92 686.56,1904.92 686.56,1901.32 690.16,1901.32 690.16,1897.72 682.96,1897.72 682.96,1901.32 679.36,1901.32 679.36,1904.92 672.17,1904.92 672.17,1908.52 668.57,1908.52 668.57,1912.11 661.37,1912.11 661.37,1915.71 657.77,1915.71 657.77,1919.31 654.17,1919.31 654.17,1922.91 650.57,1922.91 650.57,1926.51 643.38,1926.51 643.38,1930.11 639.78,1930.11 639.78,1933.71 632.58,1933.71 632.58,1937.31 625.38,1937.31 625.38,1940.91 618.18,1940.91 618.18,1944.51 610.98,1944.51 610.98,1948.11 600.19,1948.11 600.19,1951.71 589.39,1951.71 589.39,1955.3 578.59,1955.3 578.59,1958.9 542.6,1958.9 542.6,1955.3 528.2,1955.3 528.2,1951.71 513.81,1951.71 513.81,1948.11 503.01,1948.11 503.01,1944.51 495.81,1944.51 495.81,1940.91 488.62,1940.91 488.62,1937.31 481.42,1937.31 481.42,1933.71 474.22,1933.71 474.22,1930.11 467.02,1930.11 467.02,1926.51 459.82,1926.51 459.82,1922.91 452.62,1922.91 452.62,1919.31 449.03,1919.31 449.03,1915.71 441.83,1915.71 441.83,1912.11 434.63,1912.11 434.63,1908.52 431.03,1908.52 431.03,1904.92 427.43,1904.92 427.43,1901.32 420.23,1901.32 420.23,1897.72 416.64,1897.72 416.64,1894.12 409.44,1894.12 409.44,1890.52 405.84,1890.52 405.84,1886.92 398.64,1886.92 398.64,1883.32 395.04,1883.32 395.04,1879.72 387.84,1879.72 387.84,1876.13 384.24,1876.13 384.24,1872.53 380.64,1872.53 380.64,1868.93 359.05,1868.93 359.05,1872.53 351.85,1872.53 351.85,1876.13 344.65,1876.13 344.65,1879.72 341.06,1879.72 341.06,1890.52 344.65,1890.52 344.65,1894.12 348.25,1894.12 348.25,1901.32 351.85,1901.32 351.85,1904.92 355.45,1904.92 355.45,1908.52 359.05,1908.52 359.05,1912.11 362.65,1912.11 362.65,1915.71 366.25,1915.71 366.25,1922.91 359.05,1922.91 359.05,1919.31 355.45,1919.31 355.45,1915.71 351.85,1915.71 351.85,1912.11 348.25,1912.11 348.25,1908.52 341.06,1908.52 341.06,1904.92 337.46,1904.92 337.46,1901.32 333.86,1901.32 333.86,1894.12 330.26,1894.12 330.26,1890.52 323.06,1890.52 323.06,1894.12 315.86,1894.12 315.86,1897.72 312.26,1897.72 312.26,1901.32 305.06,1901.32 305.06,1904.92 297.87,1904.92 297.87,1908.52 294.27,1908.52 294.27,1912.11 287.07,1912.11 287.07,1915.71 279.87,1915.71 279.87,1919.31 276.27,1919.31 276.27,1922.91 269.07,1922.91 269.07,1926.51 261.88,1926.51 261.88,1930.11 254.68,1930.11 254.68,1933.71 243.88,1933.71 243.88,1937.31 236.68,1937.31 236.68,1940.91 225.88,1940.91 225.88,1944.51 215.09,1944.51 215.09,1948.11 175.5,1948.11 175.5,1944.51 164.7,1944.51 164.7,1940.91 153.91,1940.91 153.91,1937.31 146.71,1937.31 146.71,1933.71 139.51,1933.71 139.51,1930.11 132.31,1930.11 132.31,1926.51 128.71,1926.51 128.71,1922.91 121.51,1922.91 121.51,1919.31 117.91,1919.31 117.91,1915.71 114.32,1915.71 114.32,1908.52 110.72,1908.52 110.72,1904.92 107.12,1904.92 107.12,1897.72 103.52,1897.72 103.52,1894.12 99.92,1894.12 99.92,1886.92 96.32,1886.92 96.32,1879.72 92.72,1879.72 92.72,1865.33 89.12,1865.33 89.12,1850.93 85.52,1850.93 85.52,1840.13 81.93,1840.13 81.93,1825.74 78.32,1825.74 78.32,1800.55 85.52,1800.55 85.52,1807.74 89.12,1807.74 89.12,1818.54 92.72,1818.54 92.72,1836.54 96.32,1836.54 96.32,1854.53 99.92,1854.53 99.92,1865.33 103.52,1865.33 103.52,1872.53 107.12,1872.53 107.12,1879.72 110.72,1879.72 110.72,1886.92 114.32,1886.92 114.32,1894.12 117.91,1894.12 117.91,1897.72 121.51,1897.72 121.51,1901.32 125.11,1901.32 125.11,1904.92 128.71,1904.92 128.71,1908.52 132.31,1908.52 132.31,1912.11 135.91,1912.11 135.91,1915.71 143.11,1915.71 143.11,1919.31 146.71,1919.31 146.71,1922.91 157.5,1922.91 157.5,1926.51 164.7,1926.51 164.7,1930.11 175.5,1930.11 175.5,1933.71 211.49,1933.71 211.49,1930.11 222.29,1930.11 222.29,1926.51 229.48,1926.51 229.48,1922.91 236.68,1922.91 236.68,1919.31 247.48,1919.31 247.48,1915.71 254.68,1915.71 254.68,1912.11 261.88,1912.11 261.88,1908.52 269.07,1908.52 269.07,1904.92 272.67,1904.92 272.67,1901.32 279.87,1901.32 279.87,1897.72 287.07,1897.72 287.07,1894.12 294.27,1894.12 294.27,1890.52 297.87,1890.52 297.87,1886.92 305.06,1886.92 305.06,1883.32 312.26,1883.32 312.26,1879.72 315.86,1879.72 315.86,1876.13 323.06,1876.13 323.06,1872.53 326.66,1872.53 326.66,1868.93 333.86,1868.93 333.86,1865.33 341.06,1865.33 341.06,1861.73 344.65,1861.73 344.65,1858.13 351.85,1858.13 351.85,1854.53 359.05,1854.53 359.05,1850.93 362.65,1850.93 362.65,1847.34 359.05,1847.34 359.05,1840.13 355.45,1840.13 355.45,1832.94 351.85,1832.94 351.85,1822.14 348.25,1822.14 348.25,1814.94 344.65,1814.94 344.65,1753.76 348.25,1753.76 348.25,1732.16 355.45,1732.16 355.45,1800.55 359.05,1800.55 359.05,1814.94 362.65,1814.94 362.65,1822.14 366.25,1822.14 366.25,1832.94 369.85,1832.94 369.85,1836.54 373.45,1836.54 373.45,1843.73 377.04,1843.73 377.04,1847.34 380.64,1847.34 380.64,1850.93 384.24,1850.93 384.24,1854.53 387.84,1854.53 387.84,1858.13 395.04,1858.13 395.04,1861.73 398.64,1861.73 398.64,1865.33 402.24,1865.33 402.24,1868.93 405.84,1868.93 405.84,1872.53 413.04,1872.53 413.04,1876.13 416.64,1876.13 416.64,1879.72 420.23,1879.72 420.23,1883.32 427.43,1883.32 427.43,1886.92 431.03,1886.92 431.03,1890.52 438.23,1890.52 438.23,1894.12 441.83,1894.12 441.83,1897.72 449.03,1897.72 449.03,1901.32 456.22,1901.32 456.22,1904.92 459.82,1904.92 459.82,1908.52 467.02,1908.52 467.02,1912.11 474.22,1912.11 474.22,1915.71 481.42,1915.71 481.42,1919.31 488.62,1919.31 488.62,1922.91 495.81,1922.91 495.81,1926.51 503.01,1926.51 503.01,1930.11 513.81,1930.11 513.81,1933.71 521.01,1933.71 521.01,1937.31 528.2,1937.31 528.2,1940.91 542.6,1940.91 542.6,1944.51 582.19,1944.51 582.19,1940.91 592.99,1940.91 592.99,1937.31 600.19,1937.31 600.19,1933.71 607.38,1933.71 607.38,1930.11 614.58,1930.11 614.58,1926.51 621.78,1926.51 621.78,1922.91 628.98,1922.91 628.98,1919.31 632.58,1919.31 632.58,1915.71 639.78,1915.71 639.78,1912.11 643.38,1912.11 643.38,1908.52 650.57,1908.52 650.57,1904.92 654.17,1904.92 654.17,1901.32 657.77,1901.32 657.77,1897.72 661.37,1897.72 661.37,1894.12 668.57,1894.12 668.57,1890.52 672.17,1890.52 672.17,1886.92 679.36,1886.92 679.36,1883.32 693.76,1883.32 693.76,1886.92 700.96,1886.92 700.96,1883.32 704.56,1883.32 704.56,1879.72 708.16,1879.72 708.16,1872.53 711.75,1872.53 711.75,1865.33 715.36,1865.33 715.36,1861.73 718.96,1861.73 718.96,1854.53 722.55,1854.53 722.55,1847.34 726.15,1847.34 726.15,1836.54 729.75,1836.54 729.75,1829.34 733.35,1829.34 733.35,1811.34 736.95,1811.34 736.95,1796.95 740.55,1796.95 740.55,1753.76 736.95,1753.76 736.95,1724.97 733.35,1724.97 733.35,1706.97 729.75,1706.97 729.75,1692.58 726.15,1692.58 726.15,1674.58 722.55,1674.58 722.55,1663.78 718.96,1663.78 718.96,1649.39 715.36,1649.39 715.36,1631.39 711.75,1631.39 711.75,1624.19 708.16,1624.19 708.16,1609.8 704.56,1609.8 704.56,1595.4 700.96,1595.4 700.96,1584.6 697.36,1584.6 697.36,1573.81 693.76,1573.81 693.76,1563.01 690.16,1563.01 690.16,1552.21 686.56,1552.21 686.56,1541.41 682.96,1541.41 682.96,1534.22 679.36,1534.22 679.36,1523.42 675.77,1523.42 675.77,1512.62 672.17,1512.62 672.17,1498.23 668.57,1498.23 668.57,1487.43 664.97,1487.43 664.97,1483.83 657.77,1483.83 657.77,1480.23 654.17,1480.23 654.17,1476.63 646.97,1476.63 646.97,1473.03 639.78,1473.03 639.78,1469.44 632.58,1469.44 632.58,1465.84 625.38,1465.84 625.38,1462.23 618.18,1462.23 618.18,1458.64 607.38,1458.64 607.38,1455.04 600.19,1455.04 600.19,1451.44 592.99,1451.44 592.99,1447.84 585.79,1447.84 585.79,1444.24 571.39,1444.24 571.39,1440.64 560.6,1440.64 560.6,1437.04 549.8,1437.04 549.8,1433.44 535.41,1433.44 535.41,1429.84 524.61,1429.84 524.61,1426.25 510.21,1426.25 510.21,1422.65 499.41,1422.65 499.41,1419.05 477.82,1419.05 477.82,1415.45 459.82,1415.45 459.82,1411.85 434.63,1411.85 434.63,1408.25 409.44,1408.25 409.44,1404.65 294.27,1404.65 "/>
  <path id="outline" class="fil2" d="M348.25 1753.76l-3.6 0 0 61.18 3.6 0 0 7.2 3.6 0 0 10.8 3.6 0 0 7.19 3.6 0 0 7.21 3.6 0 0 3.59 -3.6 0 0 3.6 -7.2 0 0 3.6 -7.2 0 0 3.6 -3.59 0 0 3.6 -7.2 0 0 3.6 -7.2 0 0 3.6 -3.6 0 0 3.6 -7.2 0 0 3.59 -3.6 0 0 3.6 -7.2 0 0 3.6 -7.19 0 0 3.6 -3.6 0 0 3.6 -7.2 0 0 3.6 -7.2 0 0 3.6 -7.2 0 0 3.6 -3.6 0 0 3.6 -7.19 0 0 3.59 -7.2 0 0 3.6 -7.2 0 0 3.6 -10.8 0 0 3.6 -7.2 0 0 3.6 -7.19 0 0 3.6 -10.8 0 0 3.6 -35.99 0 0 -3.6 -10.8 0 0 -3.6 -7.2 0 0 -3.6 -10.79 0 0 -3.6 -3.6 0 0 -3.6 -7.2 0 0 -3.6 -3.6 0 0 -3.59 -3.6 0 0 -3.6 -3.6 0 0 -3.6 -3.6 0 0 -3.6 -3.6 0 0 -3.6 -3.59 0 0 -7.2 -3.6 0 0 -7.2 -3.6 0 0 -7.19 -3.6 0 0 -7.2 -3.6 0 0 -10.8 -3.6 0 0 -17.99 -3.6 0 0 -18 -3.6 0 0 -10.8 -3.6 0 0 -7.19 -7.2 0 0 25.19 3.61 0 0 14.39 3.59 0 0 10.8 3.6 0 0 14.4 3.6 0 0 14.39 3.6 0 0 7.2 3.6 0 0 7.2 3.6 0 0 3.6 3.6 0 0 7.2 3.6 0 0 3.6 3.6 0 0 7.19 3.59 0 0 3.6 3.6 0 0 3.6 7.2 0 0 3.6 3.6 0 0 3.6 7.2 0 0 3.6 7.2 0 0 3.6 7.2 0 0 3.6 10.79 0 0 3.6 10.8 0 0 3.6 39.59 0 0 -3.6 10.79 0 0 -3.6 10.8 0 0 -3.6 7.2 0 0 -3.6 10.8 0 0 -3.6 7.2 0 0 -3.6 7.19 0 0 -3.6 7.2 0 0 -3.6 3.6 0 0 -3.6 7.2 0 0 -3.6 7.2 0 0 -3.59 3.6 0 0 -3.6 7.19 0 0 -3.6 7.2 0 0 -3.6 3.6 0 0 -3.6 7.2 0 0 -3.6 7.2 0 0 3.6 3.6 0 0 7.2 3.6 0 0 3.6 3.6 0 0 3.6 7.19 0 0 3.59 3.6 0 0 3.6 3.6 0 0 3.6 3.6 0 0 3.6 7.2 0 0 -7.2 -3.6 0 0 -3.6 -3.6 0 0 -3.59 -3.6 0 0 -3.6 -3.6 0 0 -3.6 -3.6 0 0 -7.2 -3.6 0 0 -3.6 -3.59 0 0 -10.8 3.59 0 0 -3.59 7.2 0 0 -3.6 7.2 0 0 -3.6 21.59 0 0 3.6 3.6 0 0 3.6 3.6 0 0 3.59 7.2 0 0 3.6 3.6 0 0 3.6 7.2 0 0 3.6 3.6 0 0 3.6 7.2 0 0 3.6 3.59 0 0 3.6 7.2 0 0 3.6 3.6 0 0 3.6 3.6 0 0 3.59 7.2 0 0 3.6 7.2 0 0 3.6 3.59 0 0 3.6 7.2 0 0 3.6 7.2 0 0 3.6 7.2 0 0 3.6 7.2 0 0 3.6 7.2 0 0 3.6 7.19 0 0 3.6 7.2 0 0 3.6 10.8 0 0 3.6 14.39 0 0 3.59 14.4 0 0 3.6 35.99 0 0 -3.6 10.8 0 0 -3.59 10.8 0 0 -3.6 10.79 0 0 -3.6 7.2 0 0 -3.6 7.2 0 0 -3.6 7.2 0 0 -3.6 7.2 0 0 -3.6 3.6 0 0 -3.6 7.19 0 0 -3.6 3.6 0 0 -3.6 3.6 0 0 -3.6 3.6 0 0 -3.6 7.2 0 0 -3.59 3.6 0 0 -3.6 7.19 0 0 -3.6 3.6 0 0 -3.6 7.2 0 0 3.6 -3.6 0 0 3.6 -3.6 0 0 3.6 -3.6 0 0 3.59 -3.59 0 0 3.6 -3.6 0 0 3.6 -3.6 0 0 3.6 -3.6 0 0 3.6 -3.6 0 0 3.6 -3.6 0 0 3.6 -3.6 0 0 3.6 -3.6 0 0 3.6 -3.6 0 0 3.6 -3.59 0 0 3.6 -3.6 0 0 3.6 -3.6 0 0 3.59 -3.6 0 0 3.6 -7.2 0 0 3.6 -3.6 0 0 3.6 -3.6 0 0 3.6 -7.2 0 0 3.6 -3.6 0 0 3.6 -3.6 0 0 3.6 -7.19 0 0 3.6 -7.2 0 0 3.59 -7.2 0 0 3.6 -7.2 0 0 3.6 -50.38 0 0 -3.6 -10.8 0 0 -3.6 -10.8 0 0 -3.59 -7.2 0 0 -3.6 -7.19 0 0 -3.6 -7.2 0 0 -3.6 -7.2 0 0 -3.6 -7.2 0 0 -3.6 -7.2 0 0 -3.6 -7.2 0 0 -3.6 -7.19 0 0 -3.6 -7.2 0 0 -3.59 -7.2 0 0 -3.6 -7.2 0 0 -3.6 -10.79 0 0 -3.6 -7.2 0 0 -3.6 -39.59 0 0 3.6 -14.4 0 0 3.6 -10.79 0 0 3.6 -7.2 0 0 3.6 -7.2 0 0 3.59 -10.8 0 0 3.6 -7.19 0 0 3.6 -7.21 0 0 3.6 -3.59 0 0 3.6 -7.2 0 0 3.6 -10.8 0 0 3.6 -3.6 0 0 3.6 -7.2 0 0 3.6 -7.19 0 0 3.59 -7.2 0 0 3.6 -14.4 0 0 3.6 -10.8 0 0 3.6 -32.39 0 0 -3.6 -14.39 0 0 -3.6 -10.8 0 0 -3.6 -3.6 0 0 -3.59 -7.2 0 0 -3.6 -7.19 0 0 -3.6 -3.61 0 0 -3.6 -7.19 0 0 -3.6 -3.6 0 0 -3.6 -3.6 0 0 -3.6 -3.6 0 0 -3.6 -7.2 0 0 -3.6 -3.6 0 0 -3.59 -3.6 0 0 -3.6 -7.19 0 0 -3.6 -3.6 0 0 -3.6 -3.6 0 0 -3.6 -3.6 0 0 -3.6 -7.2 0 0 -3.6 -3.6 0 0 -3.6 -3.6 0 0 -3.6 -3.59 0 0 -3.6 -3.61 0 0 -3.6 -3.6 0 0 -3.6 -3.59 0 0 -3.59 -3.6 0 0 -3.6 -3.6 0 0 -3.6 -3.6 0 0 -3.6 -3.6 0 0 -3.6 -3.6 0 0 -7.2 -3.6 0 0 -7.2 -3.6 0 0 -7.19 -3.6 0 0 -3.6 -3.59 0 0 -10.8 -3.6 0 0 -7.2 -3.61 0 0 -21.59 -3.59 0 0 -14.4 -3.6 0 0 -75.58 3.6 0 0 -25.19 3.59 0 0 -21.59 3.61 0 0 -21.6 3.6 0 0 -21.59 3.59 0 0 -14.4 3.6 0 0 -18 3.6 0 0 -10.79 3.6 0 0 -14.4 3.6 0 0 -7.2 3.6 0 0 -17.99 3.6 0 0 -7.2 3.6 0 0 -10.8 3.6 0 0 -10.8 3.59 0 0 -10.79 3.6 0 0 -10.8 3.61 0 0 -10.8 3.59 0 0 -7.19 3.6 0 0 -10.8 3.6 0 0 -7.2 3.6 0 0 -7.2 3.6 0 0 -7.19 3.6 0 0 -3.61 3.6 0 0 -3.59 7.2 0 0 -3.6 7.19 0 0 -3.6 7.2 0 0 -3.6 7.2 0 0 -3.6 7.2 0 0 -3.6 7.19 0 0 -3.6 10.8 0 0 -3.6 10.8 0 0 -3.6 10.8 0 0 -3.59 10.79 0 0 -3.6 14.4 0 0 -3.6 10.8 0 0 -3.6 14.39 0 0 -3.6 35.99 0 0 -3.6 25.2 0 0 -3.6 115.17 0 0 3.6 25.19 0 0 3.6 25.19 0 0 3.6 18 0 0 3.6 21.59 0 0 3.6 10.8 0 0 3.6 14.4 0 0 3.59 10.8 0 0 3.6 14.39 0 0 3.6 10.8 0 0 3.6 10.79 0 0 3.6 14.4 0 0 3.6 7.2 0 0 3.6 7.2 0 0 3.6 7.19 0 0 3.6 10.8 0 0 3.59 7.2 0 0 3.61 7.2 0 0 3.6 7.2 0 0 3.59 7.19 0 0 3.6 7.2 0 0 3.6 3.6 0 0 3.6 7.2 0 0 3.6 3.6 0 0 10.8 3.6 0 0 14.39 3.6 0 0 10.8 3.59 0 0 10.8 3.6 0 0 7.19 3.6 0 0 10.8 3.6 0 0 10.8 3.6 0 0 10.8 3.6 0 0 10.79 3.6 0 0 10.8 3.6 0 0 14.4 3.6 0 0 14.39 3.59 0 0 7.2 3.61 0 0 18 3.6 0 0 14.39 3.59 0 0 10.8 3.6 0 0 18 3.6 0 0 14.39 3.6 0 0 18 3.6 0 0 28.79 3.6 0 0 43.19 -3.6 0 0 14.39 -3.6 0 0 18 -3.6 0 0 7.2 -3.6 0 0 10.8 -3.6 0 0 7.19 -3.59 0 0 7.2 -3.6 0 0 3.6 -3.61 0 0 7.2 -3.59 0 0 7.19 -3.6 0 0 3.6 -3.6 0 0 3.6 -7.2 0 0 -3.6 -14.4 0 0 3.6 -7.19 0 0 3.6 -3.6 0 0 3.6 -7.2 0 0 3.6 -3.6 0 0 3.6 -3.6 0 0 3.6 -3.6 0 0 3.6 -7.19 0 0 3.59 -3.6 0 0 3.6 -7.2 0 0 3.6 -3.6 0 0 3.6 -7.2 0 0 3.6 -7.2 0 0 3.6 -7.2 0 0 3.6 -7.19 0 0 3.6 -7.2 0 0 3.6 -10.8 0 0 3.6 -39.59 0 0 -3.6 -14.4 0 0 -3.6 -7.19 0 0 -3.6 -7.2 0 0 -3.6 -10.8 0 0 -3.6 -7.2 0 0 -3.6 -7.19 0 0 -3.6 -7.2 0 0 -3.6 -7.2 0 0 -3.6 -7.2 0 0 -3.59 -7.2 0 0 -3.6 -3.6 0 0 -3.6 -7.19 0 0 -3.6 -7.2 0 0 -3.6 -3.6 0 0 -3.6 -7.2 0 0 -3.6 -3.6 0 0 -3.6 -7.2 0 0 -3.6 -3.59 0 0 -3.59 -3.6 0 0 -3.6 -7.2 0 0 -3.6 -3.6 0 0 -3.6 -3.6 0 0 -3.6 -3.6 0 0 -3.6 -7.2 0 0 -3.6 -3.6 0 0 -3.6 -3.6 0 0 -3.59 -3.6 0 0 -3.61 -3.59 0 0 -7.19 -3.6 0 0 -3.6 -3.6 0 0 -10.8 -3.6 0 0 -7.2 -3.6 0 0 -14.39 -3.6 0 0 -68.39 -7.2 0 0 21.6zm-253.35 -301.46l-7.76 5.98 -16.01 21.95 -3.6 0 0 10.8 -3.6 0 0 10.8 -3.6 0 0 7.19 -3.6 0 0 10.8 -3.6 0 0 10.8 -3.6 0 0 7.19 -3.6 0 0 14.4 -3.6 0 0 10.8 -3.59 0 0 10.8 -3.6 0 0 7.19 -3.61 0 0 18 -3.59 0 0 10.8 -3.6 0 0 17.99 -3.6 0 0 10.8 -3.6 0 0 17.99 -3.6 0 0 18 -3.6 0 0 21.6 -3.6 0 0 21.59 -3.6 0 0 35.99 -3.6 0 0 50.39 3.6 0 0 25.19 3.6 0 0 10.79 3.6 0 0 14.4 3.6 0 0 10.8 3.6 0 0 10.8 3.6 0 0 7.19 3.6 0 0 7.2 3.6 0 0 7.2 3.59 0 0 3.6 3.61 0 0 3.6 3.6 0 0 7.19 3.59 0 0 3.6 3.6 0 0 3.6 3.6 0 0 3.6 3.6 0 0 3.6 3.6 0 0 3.6 3.6 0 0 3.6 3.6 0 0 3.6 3.6 0 0 3.6 3.6 0 0 3.6 7.19 0 0 3.6 3.61 0 0 3.6 3.59 0 0 3.59 3.6 0 0 3.6 3.6 0 0 3.6 3.6 0 0 3.6 7.2 0 0 3.6 3.6 0 0 3.6 3.6 0 0 3.6 7.19 0 0 3.6 3.6 0 0 3.6 3.6 0 0 3.59 7.2 0 0 3.6 3.6 0 0 3.6 7.2 0 0 3.6 3.6 0 0 3.6 7.2 0 0 3.6 7.19 0 0 3.6 7.2 0 0 3.6 10.8 0 0 3.6 17.99 0 0 3.6 35.99 0 0 -3.6 21.6 0 0 -3.6 7.2 0 0 -3.6 7.19 0 0 -3.6 10.8 0 0 -3.6 7.2 0 0 -3.6 7.2 0 0 -3.6 7.19 0 0 -3.6 3.6 0 0 -3.6 7.2 0 0 -3.59 7.2 0 0 -3.6 7.2 0 0 -3.6 10.8 0 0 -3.6 7.19 0 0 -3.6 7.2 0 0 -3.6 10.8 0 0 -3.6 46.79 0 0 3.6 7.2 0 0 3.6 7.19 0 0 3.6 7.2 0 0 3.6 7.2 0 0 3.6 7.2 0 0 3.6 7.19 0 0 3.59 7.2 0 0 3.6 3.6 0 0 3.6 7.2 0 0 3.6 10.8 0 0 3.6 7.2 0 0 3.6 7.19 0 0 3.6 14.4 0 0 3.6 14.4 0 0 3.6 10.8 0 0 3.6 35.98 0 0 -3.6 10.8 0 0 -3.6 10.8 0 0 -3.6 7.2 0 0 -3.6 7.19 0 0 -3.6 3.6 0 0 -3.6 7.2 0 0 -3.6 7.2 0 0 -3.6 3.6 0 0 -3.6 3.6 0 0 -3.59 3.6 0 0 -3.6 7.2 0 0 -3.6 3.59 0 0 -3.6 3.6 0 0 -3.6 3.6 0 0 -3.6 3.6 0 0 -3.6 3.6 0 0 -3.6 3.6 0 0 -3.6 7.2 0 0 -3.59 3.6 0 0 -3.6 3.59 0 0 -3.6 3.6 0 0 -3.6 3.6 0 0 -3.6 3.6 0 0 -3.6 3.6 0 0 -3.6 3.6 0 0 -3.6 3.6 0 0 -3.6 3.6 0 0 -3.6 3.6 0 0 -7.2 3.59 0 0 -3.59 3.61 0 0 -3.6 3.6 0 0 -3.6 3.59 0 0 -3.6 3.6 0 0 -7.2 3.6 0 0 -3.6 3.6 0 0 -7.2 3.6 0 0 -7.19 3.6 0 0 -7.2 3.6 0 0 -10.8 3.6 0 0 -7.19 3.6 0 0 -10.8 3.59 0 0 -18 3.6 0 0 -21.59 3.6 0 0 -53.99 -3.6 0 0 -28.79 -3.6 0 0 -21.59 -3.59 0 0 -10.8 -3.6 0 0 -18 -3.6 0 0 -7.2 -3.6 0 0 -14.39 -3.6 0 0 -14.4 -3.6 0 0 -17.99 -3.6 0 0 -10.8 -3.6 0 0 -7.2 -3.6 0 0 -17.99 -3.59 0 0 -7.2 -3.6 0 0 -10.8 -3.61 0 0 -10.8 -3.59 0 0 -10.79 -3.6 0 0 -10.8 -3.6 0 0 -10.8 -3.6 0 0 -10.79 -3.6 0 -10.66 -15.38 -10.47 -9.92 -14.86 -7.09 0 -3.6 -7.2 0 0 -3.61 -7.19 0 0 -3.59 -7.2 0 0 -3.6 -7.2 0 0 -3.6 -7.2 0 0 -3.6 -7.2 0 0 -3.6 -7.2 0 0 -3.6 -7.19 0 0 -3.6 -10.8 0 0 -3.6 -7.2 0 0 -3.6 -10.8 0 0 -3.59 -10.79 0 0 -3.6 -7.2 0 0 -3.6 -10.8 0 0 -3.6 -14.4 0 0 -3.6 -14.39 0 0 -3.6 -14.4 0 0 -3.6 -14.4 0 0 -3.6 -21.59 0 0 -3.6 -21.59 0 0 -3.59 -18 0 0 -3.61 -140.36 0 0 3.61 -39.59 0 0 3.59 -14.4 0 0 3.6 -17.99 0 0 3.6 -10.8 0 0 3.6 -17.99 0 0 3.6 -7.2 0 0 3.6 -10.8 0 0 3.6 -10.79 0 0 3.6 -10.8 0 0 3.6 -7.2 0 0 3.59 -7.2 0 0 3.6 -7.2 0 0 3.6 -7.19 0 0 3.6 -7.2 0 -12.22 11.66z"/>
 </g>
</svg>
