<?xml version="1.0" encoding="UTF-8"?>
<!DOCTYPE svg PUBLIC "-//W3C//DTD SVG 1.1//EN" "http://www.w3.org/Graphics/SVG/1.1/DTD/svg11.dtd">
<!-- Creator: CorelDRAW (Versión de evaluación) -->
<svg xmlns="http://www.w3.org/2000/svg" xml:space="preserve" width="500px" height="2062px" version="1.1" style="shape-rendering:geometricPrecision; text-rendering:geometricPrecision; image-rendering:optimizeQuality; fill-rule:evenodd; clip-rule:evenodd"
viewBox="0 0 500 2061.16"
 xmlns:xlink="http://www.w3.org/1999/xlink"
 xmlns:xodm="http://www.corel.com/coreldraw/odm/2003">
 <defs>
  <style type="text/css">
   <![CDATA[
    .str0 {stroke:#4B4B4D;stroke-width:19.99;stroke-miterlimit:22.9256}
    .fil0 {fill:#BDBFC1}
    .fil2 {fill:#4B4B4D}
    .fil1 {fill:#FAFAF7}
   ]]>
  </style>
 </defs>
 <g id="implant">
  <metadata id="CorelCorpID_0Corel-Layer"/>
  <path id="root" class="fil0 str0" d="M196.02 1514.14c21.44,-3.62 44.12,-3.61 65.57,0l134.87 0c0.08,-22.47 -6.15,-28.2 -8.68,-82.5 -2.46,-52.56 -4.35,-316.51 9.48,-351.86l13.38 -22.41c0.82,-1.88 2.23,-3.99 2.84,-5.93 16.27,-52.03 -34.83,-19.28 -20.33,-103.1 11.76,-67.94 34.75,10.95 21.85,-62.46 -8.44,-48.04 -26.24,6.23 -22.94,-66.56 3.9,-86.08 23.48,8.06 23.97,-64.49 0.47,-69.09 -19.34,13.13 -23.87,-63.92 -1.58,-26.89 2.3,-26.22 7.64,-37.6 13.86,-29.53 6.76,25.16 15.56,-28.7 10.82,-66.21 -10.91,2.6 -22.22,-62.32 -7.99,-45.88 13.62,-62.38 17.24,-70.7 19.86,-45.55 -2.36,-32.4 -22.86,-44.81 -5.45,-122.16 -61.58,-218.6 -162.43,-194.24 -90.49,21.86 -116.09,130.32 -116.09,264.93 -27.04,27.92 -35.32,19.64 -13.31,60.75 1.03,1.92 2.72,3.38 3.76,5.34 8.25,15.5 2.3,-7.37 8.77,18.54 16.34,65.51 -37.69,60.95 -16.01,107.57 13.75,29.55 16.79,-6.41 16.79,82.05l-20.02 19.76c-6.01,11.99 -5.27,22.03 0.55,34.4 8.29,17.61 30.18,6.29 19.97,73.21 -9.6,62.9 -1.11,7.97 -13.89,31.89 -0.16,0.31 -23.99,-2.13 -3.47,42.23l7.29 11.9 2.76 0 3.47 10.16c5.53,15.92 3.34,31.78 3.34,50.69 -2.68,8.29 -4.91,12.75 -6.81,14.76l0 0.41 -14.29 6.38 -0.62 7.64c-5.24,68.43 5.04,0.06 23.56,41.02 13.97,30.89 9.9,278.61 8.35,377.97l76.83 0zm41.86 -58.16c38.93,0.02 96.92,-9.96 131.67,7.36l4.85 42.17 -246.58 -0.1c6.81,-65.22 -6.34,-49.5 110.06,-49.43zm128.7 -29.43l-231.2 0 0.9 -289.3 230.48 0 -0.18 289.3zm4.83 -317.51c-96.09,4.43 -150.51,-0.42 -240.86,-19.33l-0.05 -86.4c85.42,6.21 160.05,21.35 241.34,47.83l-0.43 57.9zm1.23 -114.36c-84.18,-17.4 -152.87,-40.75 -243.1,-45.15l0 -90.62c81.08,5.66 171.11,20.73 243.1,48.55l0 87.22zm0.33 -144.61c-83.61,-15.2 -149.42,-39.44 -239.82,-44.98l-3.81 -85.22c89.73,5.64 158.76,23.61 241.63,47.64l2 82.56zm0.05 -139.05c-85.23,-15.09 -151.24,-39.58 -243.48,-45.38l0.55 -82.57c85.26,6.03 160.7,20.63 240.58,47.71l2.35 80.24zm-0.38 -136.7c-84.73,-17.38 -152.41,-40.26 -243.1,-45.3l0 -68.2 243.1 28.57 0 84.93zm-7.67 -141.3l-227.6 0.36c-0.68,-206.46 230.09,-205 227.6,-0.36z"/>
  <polygon id="crown" class="fil1" points="276.12,1364.73 283.32,1364.73 283.32,1368.33 297.71,1368.33 297.71,1371.92 304.9,1371.92 304.9,1375.52 312.1,1375.52 312.1,1379.12 319.29,1379.12 319.29,1382.72 322.89,1382.72 322.89,1386.31 330.08,1386.31 330.08,1389.91 333.68,1389.91 333.68,1393.51 337.28,1393.51 337.28,1397.11 340.87,1397.11 340.87,1400.7 344.47,1400.7 344.47,1404.3 348.07,1404.3 348.07,1407.9 351.66,1407.9 351.66,1411.49 355.26,1411.49 355.26,1415.09 358.86,1415.09 358.86,1418.69 362.46,1418.69 362.46,1425.88 366.05,1425.88 366.05,1429.48 369.65,1429.48 369.65,1433.07 373.25,1433.07 373.25,1440.27 376.84,1440.27 376.84,1443.87 380.44,1443.87 380.44,1451.06 384.04,1451.06 384.04,1454.66 387.64,1454.66 387.64,1461.85 391.23,1461.85 391.23,1469.05 394.83,1469.05 394.83,1476.24 398.43,1476.24 398.43,1483.44 402.03,1483.44 402.03,1494.23 405.62,1494.23 405.62,1505.02 409.22,1505.02 409.22,1515.81 412.82,1515.81 412.82,1530.2 416.41,1530.2 416.41,1548.19 420.01,1548.19 420.01,1558.98 423.61,1558.98 423.61,1569.77 427.2,1569.77 427.2,1580.56 430.8,1580.56 430.8,1591.35 434.4,1591.35 434.4,1602.14 437.99,1602.14 437.99,1612.94 441.59,1612.94 441.59,1623.73 445.19,1623.73 445.19,1634.52 448.79,1634.52 448.79,1648.9 452.39,1648.9 452.39,1656.1 455.98,1656.1 455.98,1666.89 459.58,1666.89 459.58,1681.28 463.18,1681.28 463.18,1688.48 466.77,1688.48 466.77,1702.86 470.37,1702.86 470.37,1724.44 473.97,1724.44 473.97,1738.83 477.57,1738.83 477.57,1803.58 473.97,1803.58 473.97,1821.57 470.37,1821.57 470.37,1835.96 466.77,1835.96 466.77,1846.75 463.18,1846.75 463.18,1857.54 459.58,1857.54 459.58,1864.73 455.98,1864.73 455.98,1868.33 452.39,1868.33 452.39,1875.52 448.79,1875.52 448.79,1879.12 445.19,1879.12 445.19,1882.72 441.59,1882.72 441.59,1886.32 437.99,1886.32 437.99,1889.91 434.4,1889.91 434.4,1893.51 430.8,1893.51 430.8,1897.11 427.2,1897.11 427.2,1900.71 420.01,1900.71 420.01,1904.3 416.41,1904.3 416.41,1907.9 409.22,1907.9 409.22,1911.5 405.62,1911.5 405.62,1915.09 398.43,1915.09 398.43,1918.69 391.23,1918.69 391.23,1922.29 387.64,1922.29 387.64,1925.88 380.44,1925.88 380.44,1929.48 373.25,1929.48 373.25,1933.08 366.05,1933.08 366.05,1936.68 362.46,1936.68 362.46,1940.27 358.86,1940.27 358.86,1943.87 351.66,1943.87 351.66,1947.47 344.47,1947.47 344.47,1951.06 337.28,1951.06 337.28,1954.66 333.68,1954.66 333.68,1958.26 330.08,1958.26 330.08,1961.86 322.89,1961.86 322.89,1965.46 319.29,1965.46 319.29,1969.05 312.1,1969.05 312.1,1972.65 308.5,1972.65 308.5,1976.25 304.9,1976.25 304.9,1979.84 297.71,1979.84 297.71,1983.44 290.51,1983.44 290.51,1987.04 286.91,1987.04 286.91,1990.63 279.72,1990.63 279.72,1994.23 268.93,1994.23 268.93,1997.83 225.76,1997.83 225.76,1994.23 218.57,1994.23 218.57,1990.63 211.37,1990.63 211.37,1987.04 204.18,1987.04 204.18,1983.44 200.58,1983.44 200.58,1979.84 193.39,1979.84 193.39,1976.25 189.79,1976.25 189.79,1972.65 186.2,1972.65 186.2,1969.05 179,1969.05 179,1965.46 175.41,1965.46 175.41,1961.86 171.81,1961.86 171.81,1958.26 164.61,1958.26 164.61,1954.66 161.02,1954.66 161.02,1951.06 157.42,1951.06 157.42,1947.47 150.22,1947.47 150.22,1943.87 146.63,1943.87 146.63,1940.27 139.43,1940.27 139.43,1936.68 135.83,1936.68 135.83,1933.08 128.64,1933.08 128.64,1929.48 121.45,1929.48 121.45,1925.88 117.85,1925.88 117.85,1922.29 110.66,1922.29 110.66,1918.69 107.06,1918.69 107.06,1915.09 99.87,1915.09 99.87,1911.5 96.27,1911.5 96.27,1907.9 89.07,1907.9 89.07,1904.3 81.88,1904.3 81.88,1900.71 78.28,1900.71 78.28,1897.11 71.08,1897.11 71.08,1893.51 67.49,1893.51 67.49,1889.91 63.89,1889.91 63.89,1886.32 60.29,1886.32 60.29,1882.72 56.7,1882.72 56.7,1879.12 53.1,1879.12 53.1,1875.52 49.5,1875.52 49.5,1871.93 45.91,1871.93 45.91,1864.73 42.31,1864.73 42.31,1861.14 38.71,1861.14 38.71,1853.94 35.12,1853.94 35.12,1846.75 31.52,1846.75 31.52,1839.56 27.92,1839.56 27.92,1821.57 24.32,1821.57 24.32,1742.43 27.92,1742.43 27.92,1724.44 31.52,1724.44 31.52,1706.46 35.12,1706.46 35.12,1692.07 38.71,1692.07 38.71,1681.28 42.31,1681.28 42.31,1670.49 45.91,1670.49 45.91,1656.1 49.5,1656.1 49.5,1648.9 53.1,1648.9 53.1,1638.11 56.7,1638.11 56.7,1627.32 60.29,1627.32 60.29,1616.53 63.89,1616.53 63.89,1609.34 67.49,1609.34 67.49,1594.95 71.08,1594.95 71.08,1587.75 74.68,1587.75 74.68,1576.96 78.28,1576.96 78.28,1566.17 81.88,1566.17 81.88,1555.38 85.48,1555.38 85.48,1544.59 89.07,1544.59 89.07,1530.2 92.67,1530.2 92.67,1526.6 96.27,1526.6 96.27,1515.81 99.87,1515.81 99.87,1508.61 103.46,1508.61 103.46,1501.42 107.06,1501.42 107.06,1490.63 110.66,1490.63 110.66,1483.44 114.25,1483.44 114.25,1476.24 117.85,1476.24 117.85,1472.65 121.45,1472.65 121.45,1465.45 125.04,1465.45 125.04,1458.26 128.64,1458.26 128.64,1451.06 132.24,1451.06 132.24,1443.87 135.83,1443.87 135.83,1440.27 139.43,1440.27 139.43,1433.07 143.03,1433.07 143.03,1429.48 146.63,1429.48 146.63,1425.88 150.22,1425.88 150.22,1418.69 153.82,1418.69 153.82,1415.09 157.42,1415.09 157.42,1411.49 161.02,1411.49 161.02,1407.9 164.61,1407.9 164.61,1404.3 168.21,1404.3 168.21,1400.7 171.81,1400.7 171.81,1397.11 175.41,1397.11 175.41,1393.51 179,1393.51 179,1389.91 182.6,1389.91 182.6,1386.31 186.2,1386.31 186.2,1382.72 189.79,1382.72 189.79,1379.12 196.99,1379.12 196.99,1375.52 204.18,1375.52 204.18,1371.92 211.37,1371.92 211.37,1368.33 222.17,1368.33 222.17,1364.73 236.56,1364.73 236.56,1361.13 276.12,1361.13 "/>
  <path id="outline" class="fil2" d="M477.57 1738.83l-3.6 0 0 -14.39 -3.6 0 0 -21.58 -3.6 0 0 -14.38 -3.59 0 0 -7.2 -3.6 0 0 -14.39 -3.6 0 0 -10.79 -3.59 0 0 -7.2 -3.6 0 0 -14.38 -3.6 0 0 -10.79 -3.6 0 0 -10.79 -3.6 0 0 -10.8 -3.59 0 0 -10.79 -3.6 0 0 -10.79 -3.6 0 0 -10.79 -3.59 0 0 -10.79 -3.6 0 0 -10.79 -3.6 0 0 -17.99 -3.59 0 0 -14.39 -3.6 0 0 -10.79 -3.6 0 0 -10.79 -3.59 0 0 -10.79 -3.6 0 0 -7.2 -3.6 0 0 -7.19 -3.6 0 0 -7.2 -3.59 0 0 -7.19 -3.6 0 0 -3.6 -3.6 0 0 -7.19 -3.6 0 0 -3.6 -3.59 0 0 -7.2 -3.6 0 0 -3.59 -3.6 0 0 -3.6 -3.59 0 0 -7.19 -3.6 0 0 -3.6 -3.6 0 0 -3.6 -3.6 0 0 -3.59 -3.59 0 0 -3.6 -3.6 0 0 -3.6 -3.6 0 0 -3.59 -3.59 0 0 -3.6 -3.6 0 0 -3.6 -3.6 0 0 -3.6 -7.19 0 0 -3.59 -3.6 0 0 -3.6 -7.19 0 0 -3.6 -7.2 0 0 -3.6 -7.19 0 0 -3.59 -14.39 0 0 -3.6 -7.2 0 0 -3.6 -39.56 0 0 3.6 -14.39 0 0 3.6 -10.8 0 0 3.59 -7.19 0 0 3.6 -7.19 0 0 3.6 -7.2 0 0 3.6 -3.59 0 0 3.59 -3.6 0 0 3.6 -3.6 0 0 3.6 -3.59 0 0 3.6 -3.6 0 0 3.59 -3.6 0 0 3.6 -3.6 0 0 3.6 -3.59 0 0 3.59 -3.6 0 0 3.6 -3.6 0 0 3.6 -3.6 0 0 7.19 -3.59 0 0 3.6 -3.6 0 0 3.59 -3.6 0 0 7.2 -3.6 0 0 3.6 -3.59 0 0 7.19 -3.6 0 0 7.2 -3.6 0 0 7.19 -3.59 0 0 7.2 -3.6 0 0 3.59 -3.6 0 0 7.2 -3.59 0 0 7.19 -3.6 0 0 10.79 -3.6 0 0 7.19 -3.59 0 0 7.2 -3.6 0 0 10.79 -3.6 0 0 3.6 -3.6 0 0 14.39 -3.59 0 0 10.79 -3.6 0 0 10.79 -3.6 0 0 10.79 -3.6 0 0 10.79 -3.6 0 0 7.2 -3.59 0 0 14.39 -3.6 0 0 7.19 -3.6 0 0 10.79 -3.59 0 0 10.79 -3.6 0 0 10.79 -3.6 0 0 7.2 -3.59 0 0 14.39 -3.6 0 0 10.79 -3.6 0 0 10.79 -3.59 0 0 14.39 -3.6 0 0 17.98 -3.6 0 0 17.99 -3.6 0 0 79.14 3.6 0 0 17.99 3.6 0 0 7.19 3.6 0 0 7.19 3.59 0 0 7.2 3.6 0 0 3.59 3.6 0 0 7.2 3.59 0 0 3.59 3.6 0 0 3.6 3.6 0 0 3.6 3.59 0 0 3.6 3.6 0 0 3.59 3.6 0 0 3.6 3.59 0 0 3.6 7.2 0 0 3.6 3.6 0 0 3.59 7.19 0 0 3.6 7.2 0 0 3.6 3.6 0 0 3.59 7.19 0 0 3.6 3.6 0 0 3.6 7.19 0 0 3.59 3.6 0 0 3.6 7.19 0 0 3.6 7.19 0 0 3.6 3.6 0 0 3.59 7.2 0 0 3.6 3.59 0 0 3.6 7.2 0 0 3.59 3.6 0 0 3.6 3.59 0 0 3.6 7.2 0 0 3.6 3.6 0 0 3.6 3.59 0 0 3.59 7.2 0 0 3.6 3.59 0 0 3.6 3.6 0 0 3.59 7.19 0 0 3.6 3.6 0 0 3.6 7.19 0 0 3.59 7.2 0 0 3.6 7.19 0 0 3.6 43.17 0 0 -3.6 10.79 0 0 -3.6 7.19 0 0 -3.59 3.6 0 0 -3.6 7.2 0 0 -3.6 7.19 0 0 -3.59 3.6 0 0 -3.6 3.6 0 0 -3.6 7.19 0 0 -3.59 3.6 0 0 -3.6 7.19 0 0 -3.6 3.6 0 0 -3.6 3.6 0 0 -3.6 7.19 0 0 -3.59 7.19 0 0 -3.6 7.2 0 0 -3.6 3.6 0 0 -3.59 3.59 0 0 -3.6 7.2 0 0 -3.6 7.19 0 0 -3.6 7.2 0 0 -3.59 3.59 0 0 -3.6 7.2 0 0 -3.6 7.19 0 0 -3.59 3.6 0 0 -3.6 7.19 0 0 -3.6 3.6 0 0 -3.59 7.19 0 0 -3.6 3.6 0 0 -3.6 3.6 0 0 -3.6 3.59 0 0 -3.59 3.6 0 0 -3.6 3.6 0 0 -3.6 3.6 0 0 -3.6 3.6 0 0 -7.19 3.59 0 0 -3.6 3.6 0 0 -7.19 3.6 0 0 -10.79 3.59 0 0 -10.79 3.6 0 0 -14.39 3.6 0 0 -17.99 3.6 0 0 -64.75zm-64.29 -273.54l12.88 30.03 4.64 13.29 3.6 0 0 17.99 3.59 0 0 17.99 3.6 0 0 7.19 3.6 0 0 10.79 3.6 0 0 10.79 3.6 0 0 10.8 3.59 0 0 10.79 3.6 0 0 10.79 3.6 0 0 7.2 3.59 0 0 10.79 3.6 0 0 14.38 3.6 0 0 7.2 3.6 0 0 14.39 3.59 0 0 7.19 3.6 0 0 14.39 3.6 0 0 14.39 3.59 0 0 17.98 3.6 0 0 25.18 3.6 0 0 82.74 -3.6 0 0 10.79 -3.6 0 0 14.39 -3.59 0 0 10.79 -3.6 0 0 7.19 -3.6 0 0 7.2 -3.59 0 0 7.19 -3.6 0 0 3.6 -3.6 0 0 7.19 -3.6 0 0 3.6 -3.59 0 0 3.6 -3.6 0 0 3.6 -3.6 0 0 3.59 -3.59 0 0 3.6 -3.6 0 0 3.6 -3.6 0 0 3.59 -3.6 0 0 3.6 -7.19 0 0 3.6 -3.6 0 0 3.59 -7.19 0 0 3.6 -7.2 0 0 3.6 -3.59 0 0 3.6 -7.2 0 0 3.59 -3.59 0 0 3.6 -7.2 0 0 3.6 -7.19 0 0 3.59 -3.6 0 0 3.6 -7.2 0 0 3.6 -7.19 0 0 3.6 -7.19 0 0 3.6 -3.6 0 0 3.59 -3.6 0 0 3.6 -7.19 0 0 3.6 -7.2 0 0 3.59 -3.59 0 0 3.6 -3.6 0 0 3.6 -7.19 0 0 3.59 -3.6 0 0 3.6 -7.19 0 0 3.6 -7.2 0 0 3.59 -3.6 0 0 3.6 -7.19 0 0 3.6 -7.2 0 0 3.59 -7.19 0 0 3.6 -7.2 0 0 3.6 -14.38 0 0 3.6 -28.78 0 0 -3.6 -14.39 0 0 -3.6 -7.2 0 0 -3.6 -7.19 0 0 -3.59 -7.19 0 0 -3.6 -7.2 0 0 -3.6 -3.59 0 0 -3.59 -7.2 0 0 -3.6 -3.59 0 0 -3.6 -3.6 0 0 -3.59 -7.2 0 0 -3.6 -3.59 0 0 -3.6 -7.2 0 0 -3.59 -3.6 0 0 -3.6 -3.59 0 0 -3.6 -7.2 0 0 -3.59 -3.6 0 0 -3.6 -7.19 0 0 -3.6 -3.6 0 0 -3.6 -7.19 0 0 -3.6 -3.6 0 0 -3.59 -7.19 0 0 -3.6 -3.6 0 0 -3.6 -7.19 0 0 -3.59 -7.2 0 0 -3.6 -3.59 0 0 -3.6 -7.2 0 0 -3.6 -3.6 0 0 -3.59 -7.19 0 0 -3.6 -3.6 0 0 -3.6 -3.6 0 0 -3.59 -7.19 0 0 -3.6 -3.6 0 0 -3.6 -3.59 0 0 -3.59 -3.6 0 0 -3.6 -3.6 0 0 -3.6 -3.59 0 0 -3.6 -3.6 0 0 -3.59 -3.6 0 0 -3.6 -3.6 0 0 -3.6 -3.59 0 0 -7.19 -3.6 0 0 -7.2 -3.6 0 0 -10.79 -3.59 0 0 -7.19 -3.6 0 0 -14.39 -3.6 0 0 -17.99 -3.6 0 0 -64.74 3.6 0 0 -17.99 3.6 0 0 -17.99 3.6 0 0 -14.38 3.59 0 0 -14.39 3.6 0 0 -10.8 3.6 0 0 -10.79 3.59 0 0 -14.39 3.6 0 0 -7.19 3.6 0 0 -10.79 3.6 0 0 -7.19 3.59 0 0 -10.79 3.6 0 0 -10.8 3.6 0 0 -10.79 3.59 0 0 -10.79 3.6 0 0 -7.2 3.6 0 2.71 -15.26 9.36 -15.76 12.07 -32.96 6.07 -12.22 9.36 -28.11 3.6 0 0 -3.6 3.59 0 0 -7.19 3.6 0 0 -7.2 3.6 0 0 -7.19 3.59 0 0 -3.6 3.6 0 0 -7.2 3.6 0 0 -7.19 3.59 0 0 -3.6 3.6 0 0 -3.59 3.6 0 0 -7.2 3.59 0 0 -3.59 3.6 0 0 -3.6 3.6 0 0 -3.6 3.6 0 0 -3.59 3.59 0 0 -3.6 3.6 0 0 -7.2 3.6 0 0 -3.59 7.19 0 0 -3.6 3.6 0 0 -3.6 3.6 0 0 -3.6 3.6 0 0 -3.59 7.19 0 0 -3.6 3.6 0 0 -3.6 7.19 0 0 -3.59 7.19 0 0 -3.6 7.2 0 0 -3.6 10.79 0 0 -3.6 10.79 0 0 -3.59 46.76 0 0 3.59 14.39 0 0 3.6 10.79 0 0 3.6 10.8 0 0 3.6 7.19 0 0 3.59 7.2 0 0 3.6 7.19 0 0 3.6 3.6 0 0 3.59 3.59 0 0 3.6 7.2 0 0 3.6 3.59 0 0 3.6 3.6 0 0 3.59 3.6 0 0 3.6 3.6 0 0 3.6 3.59 0 0 3.6 3.6 0 0 3.59 3.6 0 0 3.6 3.59 0 0 7.19 3.6 0 0 3.6 3.6 0 0 7.19 3.6 0 0 3.6 3.59 0 0 7.19 3.6 0 0 3.6 3.6 7.37 14.85 21.25z"/>
 </g>
</svg>
