<?xml version="1.0" encoding="UTF-8"?>
<!DOCTYPE svg PUBLIC "-//W3C//DTD SVG 1.1//EN" "http://www.w3.org/Graphics/SVG/1.1/DTD/svg11.dtd">
<!-- Creator: CorelDRAW (Versión de evaluación) -->
<svg xmlns="http://www.w3.org/2000/svg" xml:space="preserve" width="561px" height="2062px" version="1.1" style="shape-rendering:geometricPrecision; text-rendering:geometricPrecision; image-rendering:optimizeQuality; fill-rule:evenodd; clip-rule:evenodd"
viewBox="0 0 561 2060.59"
 xmlns:xlink="http://www.w3.org/1999/xlink"
 xmlns:xodm="http://www.corel.com/coreldraw/odm/2003">
 <defs>
  <style type="text/css">
   <![CDATA[
    .str0 {stroke:#4B4B4D;stroke-width:19.98;stroke-miterlimit:22.9256}
    .fil0 {fill:#BDBFC1}
    .fil2 {fill:#4B4B4D}
    .fil1 {fill:#FAFAF7}
   ]]>
  </style>
 </defs>
 <g id="implant">
  <metadata id="CorelCorpID_0Corel-Layer"/>
  <path id="root" class="fil0 str0" d="M335.16 1376.14c-21.44,-3.62 -44.12,-3.61 -65.56,0l-134.83 0c-0.08,-22.47 6.14,-28.2 8.68,-82.48 2.45,-52.55 4.34,-316.42 -9.48,-351.77l-13.38 -22.4c-0.82,-1.88 -2.23,-3.98 -2.84,-5.93 -16.26,-52.01 34.83,-19.27 20.32,-103.07 -11.75,-67.92 -34.73,10.95 -21.84,-62.44 8.44,-48.02 26.23,6.23 22.93,-66.54 -3.9,-86.06 -23.47,8.05 -23.96,-64.48 -0.47,-69.07 19.34,13.13 23.87,-63.9 1.58,-26.88 -2.31,-26.21 -7.65,-37.58 -13.85,-29.53 -6.75,25.15 -15.55,-28.69 -10.82,-66.2 10.91,2.59 22.22,-62.31 7.98,-45.87 -13.62,-62.37 -17.24,-70.68 -19.85,-45.54 2.36,-32.39 22.86,-44.8 5.44,-122.12 61.56,-218.54 162.38,-194.18 90.46,21.84 116.06,130.27 116.06,264.85 27.03,27.92 35.3,19.64 13.3,60.74 -1.03,1.91 -2.72,3.38 -3.76,5.33 -8.24,15.5 -2.29,-7.36 -8.76,18.54 -16.34,65.49 37.67,60.93 16,107.53 -13.74,29.55 -16.78,-6.4 -16.78,82.03l20.02 19.76c6,11.99 5.26,22.02 -0.56,34.39 -8.28,17.61 -30.17,6.29 -19.96,73.19 9.6,62.89 1.11,7.97 13.88,31.88 0.17,0.31 23.99,-2.13 3.48,42.22l-7.3 11.89 -2.75 0 -3.47 10.16c-5.53,15.92 -3.34,31.78 -3.34,50.68 2.68,8.29 4.91,12.75 6.81,14.75l0 0.42 14.28 6.38 0.62 7.63c5.24,68.42 -5.04,0.06 -23.55,41.01 -13.97,30.88 2.21,278.54 3.75,377.87l-88.9 0zm-41.86 -58.15c-38.92,0.02 -96.89,-9.95 -131.63,7.36l-4.84 42.16 246.5 -0.1c-6.81,-65.2 6.34,-49.48 -110.03,-49.42zm-128.66 -29.42l231.13 0 -0.89 -289.22 -230.42 0 0.18 289.22zm-4.83 -317.42c96.06,4.43 150.47,-0.42 240.8,-19.32l0.05 -86.38c-85.4,6.2 -160.02,21.34 -241.28,47.81l0.43 57.89zm-1.23 -114.33c84.16,-17.4 152.83,-40.74 243.04,-45.14l0 -90.59c-81.06,5.66 -171.07,20.72 -243.04,48.53l0 87.2zm-0.33 -144.57c83.59,-15.19 149.38,-39.43 239.76,-44.97l3.81 -85.19c-89.71,5.63 -158.73,23.59 -241.57,47.62l-2 82.54zm-0.05 -139.02c85.21,-15.07 151.2,-39.56 243.42,-45.36l-0.56 -82.55c-85.24,6.03 -160.65,20.62 -240.51,47.7l-2.35 80.21zm0.38 -136.66c84.71,-17.37 152.37,-40.25 243.04,-45.28l0 -68.18 -243.04 28.56 0 84.9zm7.67 -141.26l227.53 0.36c0.68,-206.4 -230.02,-204.94 -227.53,-0.36z"/>
  <polygon id="crown" class="fil1" points="240.68,1231.1 229.9,1231.1 229.9,1234.69 219.11,1234.69 219.11,1238.29 211.92,1238.29 211.92,1241.89 204.72,1241.89 204.72,1245.48 201.13,1245.48 201.13,1249.08 193.93,1249.08 193.93,1252.68 190.34,1252.68 190.34,1256.27 183.14,1256.27 183.14,1259.87 179.55,1259.87 179.55,1263.46 175.95,1263.46 175.95,1267.06 172.36,1267.06 172.36,1270.66 168.76,1270.66 168.76,1274.25 165.16,1274.25 165.16,1281.44 161.57,1281.44 161.57,1285.04 157.97,1285.04 157.97,1288.63 154.38,1288.63 154.38,1292.23 150.78,1292.23 150.78,1299.42 147.18,1299.42 147.18,1303.02 143.59,1303.02 143.59,1310.21 139.99,1310.21 139.99,1313.81 136.4,1313.81 136.4,1321 132.8,1321 132.8,1324.6 129.2,1324.6 129.2,1331.79 125.61,1331.79 125.61,1338.98 122.01,1338.98 122.01,1346.17 118.41,1346.17 118.41,1353.37 114.82,1353.37 114.82,1360.56 111.22,1360.56 111.22,1367.75 107.62,1367.75 107.62,1374.94 104.03,1374.94 104.03,1385.73 100.43,1385.73 100.43,1396.52 96.84,1396.52 96.84,1410.9 93.24,1410.9 93.24,1418.1 89.64,1418.1 89.64,1432.48 86.05,1432.48 86.05,1446.87 82.45,1446.87 82.45,1461.25 78.86,1461.25 78.86,1468.44 75.26,1468.44 75.26,1486.42 71.67,1486.42 71.67,1497.21 68.07,1497.21 68.07,1511.6 64.47,1511.6 64.47,1525.98 60.88,1525.98 60.88,1540.37 57.28,1540.37 57.28,1554.75 53.68,1554.75 53.68,1569.14 50.09,1569.14 50.09,1590.71 46.49,1590.71 46.49,1612.29 42.89,1612.29 42.89,1623.08 39.3,1623.08 39.3,1644.65 35.7,1644.65 35.7,1669.83 32.1,1669.83 32.1,1691.41 28.51,1691.41 28.51,1723.77 24.91,1723.77 24.91,1756.14 21.32,1756.14 21.32,1835.25 24.91,1835.25 24.91,1878.4 28.51,1878.4 28.51,1914.37 32.1,1914.37 32.1,1928.75 35.7,1928.75 35.7,1943.13 39.3,1943.13 39.3,1950.33 42.89,1950.33 42.89,1957.52 46.49,1957.52 46.49,1961.12 50.09,1961.12 50.09,1964.71 53.68,1964.71 53.68,1968.31 57.28,1968.31 57.28,1971.91 60.88,1971.91 60.88,1975.5 68.07,1975.5 68.07,1979.1 71.67,1979.1 71.67,1982.69 82.45,1982.69 82.45,1986.29 93.24,1986.29 93.24,1989.88 107.62,1989.88 107.62,1993.48 125.61,1993.48 125.61,1997.08 150.78,1997.08 150.78,2000.67 186.74,2000.67 186.74,2004.27 237.09,2004.27 237.09,2007.86 359.36,2007.86 359.36,2004.27 427.68,2004.27 427.68,2000.67 460.05,2000.67 460.05,1997.08 496.01,1997.08 496.01,1993.48 503.2,1993.48 503.2,1989.88 510.4,1989.88 510.4,1986.29 517.59,1986.29 517.59,1982.69 521.18,1982.69 521.18,1979.1 524.78,1979.1 524.78,1971.91 528.38,1971.91 528.38,1964.71 531.97,1964.71 531.97,1953.92 535.57,1953.92 535.57,1921.56 539.16,1921.56 539.16,1770.52 535.57,1770.52 535.57,1709.38 531.97,1709.38 531.97,1673.43 528.38,1673.43 528.38,1641.06 524.78,1641.06 524.78,1623.08 521.18,1623.08 521.18,1601.5 517.59,1601.5 517.59,1587.12 513.99,1587.12 513.99,1558.35 510.4,1558.35 510.4,1547.56 506.8,1547.56 506.8,1529.58 503.2,1529.58 503.2,1518.79 499.61,1518.79 499.61,1504.4 496.01,1504.4 496.01,1486.42 492.42,1486.42 492.42,1475.64 488.82,1475.64 488.82,1464.85 485.22,1464.85 485.22,1454.06 481.63,1454.06 481.63,1443.27 478.03,1443.27 478.03,1432.48 474.43,1432.48 474.43,1421.69 470.84,1421.69 470.84,1410.9 467.24,1410.9 467.24,1400.12 463.64,1400.12 463.64,1392.93 460.05,1392.93 460.05,1382.14 456.45,1382.14 456.45,1374.94 452.86,1374.94 452.86,1367.75 449.26,1367.75 449.26,1360.56 445.66,1360.56 445.66,1353.37 442.07,1353.37 442.07,1346.17 438.47,1346.17 438.47,1338.98 434.88,1338.98 434.88,1331.79 431.28,1331.79 431.28,1328.2 427.68,1328.2 427.68,1321 424.09,1321 424.09,1317.41 420.49,1317.41 420.49,1310.21 416.9,1310.21 416.9,1306.62 413.3,1306.62 413.3,1299.42 409.7,1299.42 409.7,1295.83 406.11,1295.83 406.11,1292.23 402.51,1292.23 402.51,1288.63 398.91,1288.63 398.91,1285.04 395.32,1285.04 395.32,1281.44 391.72,1281.44 391.72,1277.85 388.12,1277.85 388.12,1270.66 384.53,1270.66 384.53,1267.06 380.93,1267.06 380.93,1263.46 373.74,1263.46 373.74,1259.87 370.14,1259.87 370.14,1256.27 366.55,1256.27 366.55,1252.68 359.36,1252.68 359.36,1249.08 355.76,1249.08 355.76,1245.48 348.57,1245.48 348.57,1241.89 341.38,1241.89 341.38,1238.29 330.59,1238.29 330.59,1234.69 323.39,1234.69 323.39,1231.1 309.01,1231.1 309.01,1227.5 240.68,1227.5 "/>
  <path id="outline" class="fil2" d="M21.32 1756.14l3.59 0 0 -32.37 3.6 0 0 -32.36 3.59 0 0 -21.58 3.6 0 0 -25.18 3.6 0 0 -21.57 3.59 0 0 -10.79 3.6 0 0 -21.58 3.6 0 0 -21.57 3.59 0 0 -14.39 3.6 0 0 -14.38 3.6 0 0 -14.39 3.59 0 0 -14.38 3.6 0 0 -14.39 3.6 0 0 -10.79 3.59 0 0 -17.98 3.6 0 0 -7.19 3.59 0 0 -14.38 3.6 0 0 -14.39 3.59 0 0 -14.38 3.6 0 0 -7.2 3.6 0 0 -14.38 3.59 0 0 -10.79 3.6 0 0 -10.79 3.59 0 0 -7.19 3.6 0 0 -7.19 3.6 0 0 -7.19 3.59 0 0 -7.2 3.6 0 0 -7.19 3.6 0 0 -7.19 3.59 0 0 -7.19 3.6 0 0 -3.6 3.6 0 0 -7.19 3.59 0 0 -3.6 3.6 0 0 -7.19 3.59 0 0 -3.6 3.6 0 0 -7.19 3.6 0 0 -3.6 3.59 0 0 -3.59 3.6 0 0 -3.6 3.59 0 0 -7.19 3.6 0 0 -3.59 3.6 0 0 -3.6 3.59 0 0 -3.6 3.6 0 0 -3.59 3.59 0 0 -3.6 7.2 0 0 -3.59 3.59 0 0 -3.6 7.2 0 0 -3.6 3.59 0 0 -3.59 7.2 0 0 -3.6 7.19 0 0 -3.6 10.79 0 0 -3.59 10.78 0 0 -3.6 68.33 0 0 3.6 14.38 0 0 3.59 7.2 0 0 3.6 10.79 0 0 3.6 7.19 0 0 3.59 7.19 0 0 3.6 3.6 0 0 3.6 7.19 0 0 3.59 3.59 0 0 3.6 3.6 0 0 3.59 7.19 0 0 3.6 3.6 0 0 3.6 3.59 0 0 7.19 3.6 0 0 3.59 3.6 0 0 3.6 3.59 0 0 3.59 3.6 0 0 3.6 3.6 0 0 3.6 3.59 0 0 3.59 3.6 0 0 7.2 3.6 0 0 3.59 3.59 0 0 7.2 3.6 0 0 3.59 3.59 0 0 7.2 3.6 0 0 3.59 3.6 0 0 7.19 3.59 0 0 7.19 3.6 0 0 7.2 3.59 0 0 7.19 3.6 0 0 7.19 3.6 0 0 7.19 3.59 0 0 7.2 3.6 0 0 10.79 3.59 0 0 7.19 3.6 0 0 10.78 3.6 0 0 10.79 3.59 0 0 10.79 3.6 0 0 10.79 3.6 0 0 10.79 3.59 0 0 10.79 3.6 0 0 10.79 3.6 0 0 10.78 3.59 0 0 17.98 3.6 0 0 14.39 3.59 0 0 10.79 3.6 0 0 17.98 3.6 0 0 10.79 3.59 0 0 28.77 3.6 0 0 14.38 3.59 0 0 21.58 3.6 0 0 17.98 3.6 0 0 32.37 3.59 0 0 35.95 3.6 0 0 61.14 3.59 0 0 151.04 -3.59 0 0 32.36 -3.6 0 0 10.79 -3.59 0 0 7.2 -3.6 0 0 7.19 -3.6 0 0 3.59 -3.59 0 0 3.6 -7.19 0 0 3.59 -7.2 0 0 3.6 -7.19 0 0 3.6 -35.96 0 0 3.59 -32.37 0 0 3.6 -68.32 0 0 3.59 -122.27 0 0 -3.59 -50.35 0 0 -3.6 -35.96 0 0 -3.59 -25.17 0 0 -3.6 -17.99 0 0 -3.6 -14.38 0 0 -3.59 -10.79 0 0 -3.6 -10.78 0 0 -3.59 -3.6 0 0 -3.6 -7.19 0 0 -3.59 -3.6 0 0 -3.6 -3.6 0 0 -3.6 -3.59 0 0 -3.59 -3.6 0 0 -3.6 -3.6 0 0 -7.19 -3.59 0 0 -7.2 -3.6 0 0 -14.38 -3.6 0 0 -14.38 -3.59 0 0 -35.97 -3.6 0 0 -43.15 -3.59 0 0 -79.11zm72.01 -397.39l10.87 -19.63 -0.17 -7.33 0 -7.19 3.59 0 0 -7.19 3.6 0 0 -3.6 3.6 0 0 -7.19 3.59 0 0 -3.6 3.6 0 0 -7.19 3.6 0 0 -7.2 3.59 0 0 -3.59 3.6 0 0 -3.6 3.6 0 0 -3.59 3.59 0 0 -7.19 3.6 0 0 -3.6 3.59 0 0 -3.6 3.6 0 0 -3.59 3.6 0 0 -3.6 3.59 0 0 -3.59 3.6 0 0 -3.6 3.59 0 0 -3.6 3.6 0 0 -3.59 3.6 0 0 -3.6 7.19 0 0 -3.6 3.59 0 0 -3.59 3.6 0 0 -3.6 7.19 0 0 -3.6 7.2 0 0 -3.59 7.19 0 0 -3.6 10.79 0 0 -3.59 14.38 0 0 -3.6 17.98 0 0 -3.6 53.94 0 0 3.6 14.39 0 0 3.6 10.79 0 0 3.59 10.79 0 0 3.6 10.79 0 0 3.59 7.19 0 0 3.6 7.19 0 0 3.6 3.59 0 0 3.59 7.2 0 0 3.6 3.59 0 0 3.6 3.6 0 0 3.59 3.59 0 0 3.6 3.6 0 0 3.6 3.6 0 0 3.59 3.59 0 0 3.6 7.2 0 0 7.19 3.59 0 0 3.6 3.6 0 0 3.59 3.6 0 0 3.6 3.59 0 0 3.59 3.6 0 0 3.6 3.59 0 0 7.19 3.6 0 0 3.6 3.6 0 0 3.59 3.59 0 0 7.2 3.6 0 0 3.59 3.59 0 0 7.2 3.6 0 0 3.59 3.6 0 0 7.2 3.59 0 0 7.19 3.6 0 0 7.19 3.59 0 0 7.19 3.6 0 0 7.19 3.6 0 0 3.6 9.04 17.26 10.77 21.02 8.96 33.64 3.59 0 0 14.39 3.6 0 0 14.38 3.6 0 0 14.39 3.59 0 0 7.19 3.6 0 0 14.38 3.59 0 0 14.39 3.6 0 0 14.38 3.6 0 0 10.79 3.59 0 0 17.98 3.6 0 0 14.39 3.59 0 0 21.57 3.6 0 0 21.58 3.6 0 0 28.77 3.59 0 0 14.38 3.6 0 0 43.16 3.6 0 0 46.75 3.59 0 0 197.78 -3.59 0 0 14.39 -3.6 0 0 14.39 -3.6 0 0 7.19 -3.59 0 0 7.19 -3.6 0 0 3.59 -3.6 0 0 3.6 -3.59 0 0 3.6 -3.6 0 0 3.59 -3.59 0 0 3.6 -3.6 0 0 3.59 -7.19 0 0 3.6 -7.19 0 0 3.6 -14.39 0 0 3.59 -14.38 0 0 3.6 -43.16 0 0 3.6 -43.15 0 0 3.59 -161.83 0 0 -3.59 -64.73 0 0 -3.6 -32.36 0 0 -3.6 -17.99 0 0 -3.59 -17.98 0 0 -3.6 -14.38 0 0 -3.6 -10.79 0 0 -3.59 -7.19 0 0 -3.6 -7.19 0 0 -3.59 -7.2 0 0 -3.6 -3.59 0 0 -3.6 -7.2 0 0 -3.59 -3.59 0 0 -3.6 -3.6 0 0 -3.59 -3.6 0 0 -3.6 -3.59 0 0 -3.59 -3.6 0 0 -7.2 -3.59 0 0 -10.79 -3.6 0 0 -7.19 -3.59 0 0 -10.79 -3.6 0 0 -14.38 -3.6 0 0 -25.17 -3.59 0 0 -32.37 -3.6 0 0 -133.06 3.6 0 0 -21.58 3.59 0 0 -25.17 3.6 0 0 -21.57 3.6 0 0 -17.99 3.59 0 0 -25.17 3.6 0 0 -17.98 3.59 0 0 -21.58 3.6 0 0 -10.78 3.59 0 0 -17.98 3.6 0 0 -14.39 3.6 0 0 -14.38 3.59 0 0 -14.39 3.6 0 0 -14.38 3.6 0 0 -21.58 3.59 0 0 -7.19 3.6 0 0 -17.98 3.6 0 0 -10.79 3.59 0 2.07 -12.53 1.53 -5.45 12.6 -37.34 12.66 -22.01z"/>
 </g>
</svg>
