<?xml version="1.0" encoding="UTF-8"?>
<!DOCTYPE svg PUBLIC "-//W3C//DTD SVG 1.1//EN" "http://www.w3.org/Graphics/SVG/1.1/DTD/svg11.dtd">
<!-- Creator: CorelDRAW (Versión de evaluación) -->
<svg xmlns="http://www.w3.org/2000/svg" xml:space="preserve" width="446px" height="2062px" version="1.1" style="shape-rendering:geometricPrecision; text-rendering:geometricPrecision; image-rendering:optimizeQuality; fill-rule:evenodd; clip-rule:evenodd"
viewBox="0 0 446 2060.93"
 xmlns:xlink="http://www.w3.org/1999/xlink"
 xmlns:xodm="http://www.corel.com/coreldraw/odm/2003">
 <defs>
  <style type="text/css">
   <![CDATA[
    .str0 {stroke:#4B4B4D;stroke-width:19.99;stroke-miterlimit:22.9256}
    .fil0 {fill:#BDBFC1}
    .fil1 {fill:#4B4B4D}
    .fil2 {fill:#FAFAF7}
   ]]>
  </style>
 </defs>
 <g id="implant">
  <metadata id="CorelCorpID_0Corel-Layer"/>
  <path id="root" class="fil0 str0" d="M167.82 1536.49c21.44,-3.62 44.12,-3.61 65.57,0l134.85 0c0.08,-22.47 -6.15,-28.21 -8.68,-82.49 -2.46,-52.56 -4.35,-316.48 9.47,-351.83l13.39 -22.41c0.82,-1.88 2.23,-3.98 2.84,-5.93 16.26,-52.02 -34.83,-19.27 -20.33,-103.08 11.76,-67.94 34.75,10.94 21.85,-62.46 -8.44,-48.03 -26.24,6.24 -22.94,-66.54 3.9,-86.08 23.48,8.05 23.97,-64.49 0.47,-69.09 -19.34,13.12 -23.87,-63.92 -1.58,-26.88 2.3,-26.21 7.64,-37.59 13.86,-29.53 6.76,25.16 15.56,-28.69 10.82,-66.21 -10.91,2.6 -22.22,-62.32 -7.99,-45.87 13.61,-62.38 17.24,-70.69 19.86,-45.55 -2.36,-32.4 -22.86,-44.8 -5.45,-122.15 -61.57,-218.58 -162.41,-194.22 -90.48,21.85 -116.08,130.3 -116.08,264.9 -27.04,27.92 -35.31,19.63 -13.3,60.74 1.02,1.92 2.71,3.38 3.75,5.33 8.25,15.5 2.3,-7.36 8.77,18.55 16.34,65.5 -37.68,60.94 -16,107.55 13.74,29.55 16.78,-6.41 16.78,82.04l-20.02 19.76c-6,12 -5.27,22.03 0.56,34.4 8.28,17.61 30.17,6.29 19.96,73.2 -9.6,62.9 -1.11,7.97 -13.88,31.89 -0.17,0.31 -24,-2.13 -3.48,42.22l7.29 11.9 2.76 0 3.47 10.16c5.53,15.92 3.34,31.78 3.34,50.69 -2.68,8.29 -4.91,12.74 -6.81,14.75l0 0.42 -14.28 6.38 -0.62 7.63c-5.25,68.43 5.03,0.06 23.55,41.01 13.97,30.89 -2.21,278.59 -3.75,377.94l88.92 0zm41.86 -58.16c38.93,0.02 96.91,-9.95 131.65,7.36l4.85 42.16 -246.55 -0.1c6.81,-65.2 -6.34,-49.49 110.05,-49.42zm128.68 -29.42l-231.17 0 0.89 -289.28 230.47 0 -0.19 289.28zm4.83 -317.48c-96.07,4.43 -150.49,-0.42 -240.84,-19.32l-0.04 -86.4c85.41,6.21 160.03,21.35 241.31,47.83l-0.43 57.89zm1.23 -114.35c-84.17,-17.4 -152.85,-40.74 -243.07,-45.14l0 -90.61c81.07,5.66 171.09,20.73 243.07,48.54l0 87.21zm0.34 -144.59c-83.61,-15.2 -149.41,-39.44 -239.81,-44.98l-3.8 -85.21c89.72,5.64 158.75,23.61 241.6,47.64l2.01 82.55zm0.04 -139.04c-85.22,-15.08 -151.22,-39.57 -243.45,-45.37l0.55 -82.56c85.25,6.03 160.68,20.62 240.56,47.71l2.34 80.22zm-0.38 -136.68c-84.72,-17.38 -152.39,-40.26 -243.07,-45.29l0 -68.2 243.07 28.57 0 84.92zm-7.67 -141.29l-227.57 0.36c-0.68,-206.44 230.06,-204.97 227.57,-0.36z"/>
  <path id="outline" class="fil1" d="M370.3 1428.96l6.58 12.38 18.51 54.14 3.59 0 0 10.79 3.6 0 0 21.58 3.6 0 0 10.79 3.59 0 0 17.98 3.6 0 0 14.39 3.6 0 0 14.39 3.59 0 0 14.39 3.6 0 0 14.38 3.6 0 0 17.99 3.59 0 0 17.98 3.6 0 0 21.58 3.6 0 0 25.18 3.59 0 0 57.54 3.6 0 0 82.73 -3.6 0 0 35.97 -3.59 0 0 17.98 -3.6 0 0 17.98 -3.6 0 0 7.2 -3.59 0 0 7.19 -3.6 0 0 3.6 -3.6 0 0 7.19 -3.59 0 0 3.6 -3.6 0 0 7.19 -3.6 0 0 3.6 -3.59 0 0 3.6 -7.2 0 0 3.59 -3.59 0 0 3.6 -3.6 0 0 3.6 -7.2 0 0 3.59 -7.19 0 0 3.6 -7.19 0 0 3.6 -7.2 0 0 3.59 -10.79 0 0 3.6 -10.79 0 0 3.6 -17.98 0 0 3.59 -10.79 0 0 3.6 -21.58 0 0 3.6 -17.98 0 0 3.59 -21.58 0 0 3.6 -133.08 0 0 -3.6 -21.58 0 0 -3.59 -21.58 0 0 -3.6 -14.39 0 0 -3.6 -7.19 0 0 -3.59 -7.2 0 0 -3.6 -7.19 0 0 -3.6 -7.19 0 0 -3.59 -3.6 0 0 -3.6 -3.6 0 0 -3.6 -3.6 0 0 -7.19 -3.59 0 0 -3.6 -3.6 0 0 -7.19 -3.6 0 0 -7.19 -3.59 0 0 -17.99 -3.6 0 0 -25.18 -3.6 0 0 -107.9 3.6 0 0 -43.16 3.6 0 0 -21.58 3.59 0 0 -28.77 3.6 0 0 -21.58 3.6 0 0 -14.39 3.59 0 0 -17.98 3.6 0 0 -21.58 3.6 0 0 -10.79 3.6 0 0 -21.58 3.59 0 0 -10.79 3.6 0 0 -10.8 3.6 0 0 -14.38 3.59 0 9.89 -43.25 10.73 -28.51c0.69,-0.45 1.28,-0.92 1.82,-1.55l-0.12 0.52 0.3 -0.73c2.63,-3.22 4.95,-10.07 5.78,-13.99l3.97 -9.61 0 -7.19 3.6 0 0 -7.19 3.6 0 0 -7.2 3.59 0 0 -10.79 3.6 0 0 -7.19 3.6 0 0 -7.19 3.59 0 0 -7.2 3.6 0 0 -7.19 3.6 0 0 -3.6 3.59 0 0 -7.19 3.6 0 0 -7.19 3.6 0 0 -3.6 3.59 0 0 -7.19 3.6 0 0 -3.6 3.6 0 0 -3.6 3.59 0 0 -7.19 3.6 0 0 -3.6 3.6 0 0 -3.6 3.6 0 0 -3.59 7.19 0 0 -3.6 3.6 0 0 -3.6 3.59 0 0 -3.59 3.6 0 0 -3.6 3.6 0 0 -3.6 7.19 0 0 -3.59 3.6 0 0 -3.6 7.19 0 0 -3.6 10.79 0 0 -3.59 7.19 0 0 -3.6 14.39 0 0 -3.6 35.97 0 0 3.6 14.38 0 0 3.6 7.2 0 0 3.59 10.79 0 0 3.6 7.19 0 0 3.6 3.6 0 0 3.59 7.19 0 0 3.6 3.6 0 0 3.6 7.19 0 0 7.19 3.6 0 0 3.6 3.59 0 0 3.59 3.6 0 0 3.6 3.6 0 0 3.6 3.59 0 0 3.59 3.6 0 0 3.6 3.6 0 0 3.6 3.59 0 0 7.19 3.6 0 0 3.6 3.6 0 0 7.19 3.59 0 0 7.2 3.6 0 0 7.19 3.6 0 0 7.19 3.59 0 0 10.79 3.6 0 3.6 16.57 0 -0.63 0.09 0.27zm-118.78 -106.13l10.79 0 0 3.6 10.79 0 0 3.6 3.59 0 0 3.59 7.2 0 0 3.6 7.19 0 0 3.6 3.6 0 0 3.59 3.59 0 0 3.6 7.2 0 0 3.6 3.59 0 0 3.59 3.6 0 0 7.2 3.6 0 0 3.6 3.59 0 0 3.59 3.6 0 0 7.2 3.6 0 0 3.59 3.59 0 0 7.2 3.6 0 0 7.19 3.6 0 0 3.6 3.59 0 0 7.19 3.6 0 0 10.79 3.6 0 0 7.19 3.59 0 0 10.79 3.6 0 0 10.79 3.6 0 0 7.2 3.59 0 0 10.79 3.6 0 0 10.79 3.6 0 0 14.39 3.59 0 0 14.38 3.6 0 0 14.39 3.6 0 0 14.39 3.59 0 0 14.38 3.6 0 0 14.39 3.6 0 0 17.99 3.6 0 0 21.58 3.59 0 0 10.79 3.6 0 0 17.98 3.6 0 0 17.98 3.59 0 0 21.58 3.6 0 0 28.78 3.6 0 0 21.58 3.59 0 0 151.06 -3.59 0 0 10.79 -3.6 0 0 17.98 -3.6 0 0 7.2 -3.59 0 0 10.79 -3.6 0 0 3.59 -3.6 0 0 3.6 -3.59 0 0 3.6 -3.6 0 0 3.59 -3.6 0 0 7.2 -7.19 0 0 3.6 -3.6 0 0 3.59 -7.19 0 0 3.6 -10.79 0 0 3.6 -7.2 0 0 3.59 -10.79 0 0 3.6 -10.79 0 0 3.6 -10.79 0 0 3.59 -14.38 0 0 3.6 -21.58 0 0 3.6 -17.99 0 0 3.59 -158.25 0 0 -3.59 -21.58 0 0 -3.6 -10.79 0 0 -3.6 -10.79 0 0 -3.59 -7.2 0 0 -3.6 -7.19 0 0 -3.6 -7.19 0 0 -3.59 -3.6 0 0 -7.2 -3.6 0 0 -7.19 -3.59 0 0 -10.79 -3.6 0 0 -10.79 -3.6 0 0 -39.57 -3.6 0 0 -68.34 3.6 0 0 -46.75 3.6 0 0 -17.99 3.6 0 0 -32.37 3.59 0 0 -28.77 3.6 0 0 -17.98 3.6 0 0 -17.99 3.59 0 0 -14.38 3.6 0 0 -21.58 3.6 0 0 -14.39 3.59 0 0 -14.39 3.6 0 0 -14.39 3.6 0 0 -10.79 3.59 0 0 -10.79 3.6 0 0 -10.79 3.6 0 0 -10.79 3.59 0 0 -14.38 3.6 0 0 -10.79 3.6 0 0 -10.79 3.59 0 0 -10.79 3.6 0 0 -10.8 3.6 0 0 -10.79 3.59 0 0 -7.19 3.6 0 0 -7.19 3.6 0 0 -10.79 3.59 0 0 -7.2 3.6 0 0 -10.79 3.6 0 0 -7.19 3.59 0 0 -3.6 3.6 0 0 -7.19 3.6 0 0 -3.6 3.59 0 0 -7.19 3.6 0 0 -3.6 3.6 0 0 -7.19 3.6 0 0 -3.6 3.59 0 0 -3.59 3.6 0 0 -3.6 3.6 0 0 -7.2 3.59 0 0 -3.59 7.2 0 0 -3.6 3.59 0 0 -3.6 3.6 0 0 -3.59 3.6 0 0 -3.6 7.19 0 0 -3.6 7.19 0 0 -3.59 3.6 0 0 -3.6 7.19 0 0 -3.6 10.79 0 0 -3.59 39.57 0 0 3.59z"/>
  <polygon id="crown" class="fil2" points="251.52,1322.83 262.31,1322.83 262.31,1326.43 273.1,1326.43 273.1,1330.03 276.69,1330.03 276.69,1333.62 283.89,1333.62 283.89,1337.22 291.08,1337.22 291.08,1340.82 294.68,1340.82 294.68,1344.41 298.27,1344.41 298.27,1348.01 305.47,1348.01 305.47,1351.61 309.06,1351.61 309.06,1355.2 312.66,1355.2 312.66,1362.4 316.26,1362.4 316.26,1366 319.85,1366 319.85,1369.59 323.45,1369.59 323.45,1376.79 327.05,1376.79 327.05,1380.38 330.64,1380.38 330.64,1387.58 334.24,1387.58 334.24,1394.77 337.84,1394.77 337.84,1398.37 341.43,1398.37 341.43,1405.56 345.03,1405.56 345.03,1416.35 348.63,1416.35 348.63,1423.54 352.22,1423.54 352.22,1434.33 355.82,1434.33 355.82,1445.12 359.42,1445.12 359.42,1452.32 363.01,1452.32 363.01,1463.11 366.61,1463.11 366.61,1473.9 370.21,1473.9 370.21,1488.29 373.8,1488.29 373.8,1502.67 377.4,1502.67 377.4,1517.06 381,1517.06 381,1531.45 384.59,1531.45 384.59,1545.83 388.19,1545.83 388.19,1560.22 391.79,1560.22 391.79,1578.21 395.39,1578.21 395.39,1599.79 398.98,1599.79 398.98,1610.58 402.58,1610.58 402.58,1628.56 406.18,1628.56 406.18,1646.54 409.77,1646.54 409.77,1668.12 413.37,1668.12 413.37,1696.9 416.97,1696.9 416.97,1718.48 420.56,1718.48 420.56,1869.54 416.97,1869.54 416.97,1880.33 413.37,1880.33 413.37,1898.31 409.77,1898.31 409.77,1905.51 406.18,1905.51 406.18,1916.3 402.58,1916.3 402.58,1919.89 398.98,1919.89 398.98,1923.49 395.39,1923.49 395.39,1927.09 391.79,1927.09 391.79,1930.68 388.19,1930.68 388.19,1937.88 381,1937.88 381,1941.48 377.4,1941.48 377.4,1945.07 370.21,1945.07 370.21,1948.67 359.42,1948.67 359.42,1952.27 352.22,1952.27 352.22,1955.86 341.43,1955.86 341.43,1959.46 330.64,1959.46 330.64,1963.06 319.85,1963.06 319.85,1966.65 305.47,1966.65 305.47,1970.25 283.89,1970.25 283.89,1973.85 265.9,1973.85 265.9,1977.44 107.65,1977.44 107.65,1973.85 86.07,1973.85 86.07,1970.25 75.28,1970.25 75.28,1966.65 64.49,1966.65 64.49,1963.06 57.29,1963.06 57.29,1959.46 50.1,1959.46 50.1,1955.86 42.91,1955.86 42.91,1952.27 39.31,1952.27 39.31,1945.07 35.71,1945.07 35.71,1937.88 32.12,1937.88 32.12,1927.09 28.52,1927.09 28.52,1916.3 24.92,1916.3 24.92,1876.73 21.32,1876.73 21.32,1808.39 24.92,1808.39 24.92,1761.64 28.52,1761.64 28.52,1743.65 32.12,1743.65 32.12,1711.28 35.71,1711.28 35.71,1682.51 39.31,1682.51 39.31,1664.53 42.91,1664.53 42.91,1646.54 46.5,1646.54 46.5,1632.16 50.1,1632.16 50.1,1610.58 53.7,1610.58 53.7,1596.19 57.29,1596.19 57.29,1581.8 60.89,1581.8 60.89,1567.41 64.49,1567.41 64.49,1556.62 68.08,1556.62 68.08,1545.83 71.68,1545.83 71.68,1535.04 75.28,1535.04 75.28,1524.25 78.87,1524.25 78.87,1509.87 82.47,1509.87 82.47,1499.08 86.07,1499.08 86.07,1488.29 89.66,1488.29 89.66,1477.5 93.26,1477.5 93.26,1466.7 96.86,1466.7 96.86,1455.91 100.45,1455.91 100.45,1448.72 104.05,1448.72 104.05,1441.53 107.65,1441.53 107.65,1430.74 111.24,1430.74 111.24,1423.54 114.84,1423.54 114.84,1412.75 118.44,1412.75 118.44,1405.56 122.03,1405.56 122.03,1401.96 125.63,1401.96 125.63,1394.77 129.23,1394.77 129.23,1391.17 132.82,1391.17 132.82,1383.98 136.42,1383.98 136.42,1380.38 140.02,1380.38 140.02,1373.19 143.62,1373.19 143.62,1369.59 147.21,1369.59 147.21,1366 150.81,1366 150.81,1362.4 154.41,1362.4 154.41,1355.2 158,1355.2 158,1351.61 165.2,1351.61 165.2,1348.01 168.79,1348.01 168.79,1344.41 172.39,1344.41 172.39,1340.82 175.99,1340.82 175.99,1337.22 183.18,1337.22 183.18,1333.62 190.37,1333.62 190.37,1330.03 193.97,1330.03 193.97,1326.43 201.16,1326.43 201.16,1322.83 211.95,1322.83 211.95,1319.24 251.52,1319.24 "/>
 </g>
</svg>
