<?xml version="1.0" encoding="UTF-8"?>
<!DOCTYPE svg PUBLIC "-//W3C//DTD SVG 1.1//EN" "http://www.w3.org/Graphics/SVG/1.1/DTD/svg11.dtd">
<!-- Creator: CorelDRAW (Versión de evaluación) -->
<svg xmlns="http://www.w3.org/2000/svg" xml:space="preserve" width="518px" height="2062px" version="1.1" style="shape-rendering:geometricPrecision; text-rendering:geometricPrecision; image-rendering:optimizeQuality; fill-rule:evenodd; clip-rule:evenodd"
viewBox="0 0 518 2061.2"
 xmlns:xlink="http://www.w3.org/1999/xlink"
 xmlns:xodm="http://www.corel.com/coreldraw/odm/2003">
 <defs>
  <style type="text/css">
   <![CDATA[
    .str0 {stroke:#4B4B4D;stroke-width:19.99;stroke-miterlimit:22.9256}
    .fil0 {fill:#BDBFC1}
    .fil2 {fill:#4B4B4D}
    .fil1 {fill:#FAFAF7}
   ]]>
  </style>
 </defs>
 <g id="implant">
  <metadata id="CorelCorpID_0Corel-Layer"/>
  <path id="root" class="fil0 str0" d="M203.22 1390.35c21.44,-3.63 44.12,-3.61 65.57,0l134.87 0c0.08,-22.48 -6.14,-28.21 -8.68,-82.51 -2.46,-52.56 -4.35,-316.51 9.48,-351.87l13.39 -22.41c0.82,-1.88 2.23,-3.98 2.84,-5.93 16.26,-52.03 -34.84,-19.27 -20.33,-103.1 11.76,-67.94 34.74,10.95 21.84,-62.46 -8.44,-48.04 -26.23,6.23 -22.93,-66.56 3.9,-86.08 23.48,8.06 23.97,-64.49 0.46,-69.1 -19.34,13.12 -23.88,-63.93 -1.58,-26.88 2.31,-26.21 7.65,-37.59 13.86,-29.54 6.75,25.16 15.56,-28.7 10.82,-66.22 -10.92,2.6 -22.22,-62.33 -8,-45.88 13.61,-62.38 17.24,-70.7 19.85,-45.55 -2.36,-32.4 -22.87,-44.81 -5.45,-122.16 -61.58,-218.6 -162.43,-194.24 -90.49,21.85 -116.1,130.32 -116.1,264.93 -27.03,27.93 -35.31,19.64 -13.3,60.76 1.03,1.91 2.72,3.38 3.76,5.33 8.24,15.5 2.3,-7.36 8.76,18.55 16.35,65.51 -37.68,60.94 -16,107.56 13.75,29.56 16.78,-6.41 16.78,82.05l-20.02 19.77c-6,11.99 -5.26,22.02 0.56,34.4 8.29,17.61 30.18,6.29 19.96,73.21 -9.6,62.91 -1.1,7.97 -13.88,31.89 -0.16,0.32 -23.99,-2.13 -3.47,42.23l7.29 11.9 2.76 0 3.47 10.16c5.53,15.93 3.33,31.79 3.33,50.69 -2.67,8.3 -4.9,12.76 -6.8,14.76l0 0.42 -14.29 6.38 -0.62 7.63c-5.24,68.44 5.04,0.06 23.56,41.02 13.97,30.9 9.9,278.63 8.35,377.99l76.83 0zm41.86 -58.17c38.94,0.02 96.92,-9.95 131.67,7.36l4.85 42.17 -246.58 -0.1c6.81,-65.22 -6.34,-49.49 110.06,-49.43zm128.7 -29.42l-231.2 0 0.89 -289.32 230.5 0 -0.19 289.32zm4.83 -317.52c-96.08,4.43 -150.51,-0.42 -240.87,-19.33l-0.04 -86.4c85.42,6.2 160.06,21.34 241.34,47.82l-0.43 57.91zm1.24 -114.37c-84.19,-17.4 -152.88,-40.75 -243.12,-45.15l0 -90.62c81.09,5.66 171.13,20.73 243.12,48.55l0 87.22zm0.33 -144.61c-83.62,-15.2 -149.43,-39.44 -239.84,-44.99l-3.81 -85.21c89.74,5.64 158.78,23.6 241.64,47.64l2.01 82.56zm0.04 -139.06c-85.23,-15.08 -151.24,-39.57 -243.49,-45.37l0.56 -82.58c85.26,6.03 160.7,20.63 240.59,47.72l2.34 80.23zm-0.37 -136.7c-84.74,-17.37 -152.42,-40.26 -243.12,-45.29l0 -68.21 243.12 28.57 0 84.93zm-7.68 -141.3l-227.6 0.36c-0.68,-206.47 230.09,-205.01 227.6,-0.36z"/>
  <polygon id="crown" class="fil1" points="280.32,1245.46 294.71,1245.46 294.71,1249.06 305.51,1249.06 305.51,1252.66 312.7,1252.66 312.7,1256.25 319.9,1256.25 319.9,1259.85 323.49,1259.85 323.49,1263.45 330.69,1263.45 330.69,1267.04 334.28,1267.04 334.28,1270.64 341.48,1270.64 341.48,1274.24 345.07,1274.24 345.07,1277.83 348.67,1277.83 348.67,1281.43 352.27,1281.43 352.27,1285.03 355.87,1285.03 355.87,1292.22 359.47,1292.22 359.47,1295.82 363.06,1295.82 363.06,1299.42 366.66,1299.42 366.66,1303.02 370.26,1303.02 370.26,1310.21 373.85,1310.21 373.85,1313.81 377.45,1313.81 377.45,1321 381.05,1321 381.05,1328.2 384.65,1328.2 384.65,1331.79 388.24,1331.79 388.24,1338.99 391.84,1338.99 391.84,1346.18 395.44,1346.18 395.44,1353.38 399.03,1353.38 399.03,1364.17 402.63,1364.17 402.63,1371.37 406.23,1371.37 406.23,1382.16 409.82,1382.16 409.82,1392.95 413.42,1392.95 413.42,1400.14 417.02,1400.14 417.02,1410.93 420.62,1410.93 420.62,1425.32 424.21,1425.32 424.21,1432.52 427.81,1432.52 427.81,1443.31 431.41,1443.31 431.41,1454.1 435.01,1454.1 435.01,1472.08 438.6,1472.08 438.6,1490.07 442.2,1490.07 442.2,1504.46 445.8,1504.46 445.8,1518.85 449.4,1518.85 449.4,1533.24 452.99,1533.24 452.99,1547.63 456.59,1547.63 456.59,1554.82 460.19,1554.82 460.19,1569.21 463.78,1569.21 463.78,1587.2 467.38,1587.2 467.38,1597.99 470.98,1597.99 470.98,1612.38 474.57,1612.38 474.57,1623.17 478.17,1623.17 478.17,1637.56 481.77,1637.56 481.77,1655.54 485.37,1655.54 485.37,1666.33 488.96,1666.33 488.96,1684.32 492.56,1684.32 492.56,1705.91 496.16,1705.91 496.16,1785.04 492.56,1785.04 492.56,1806.63 488.96,1806.63 488.96,1824.62 485.37,1824.62 485.37,1835.41 481.77,1835.41 481.77,1842.6 478.17,1842.6 478.17,1853.39 474.57,1853.39 474.57,1860.58 470.98,1860.58 470.98,1867.78 467.38,1867.78 467.38,1874.97 463.78,1874.97 463.78,1882.17 460.19,1882.17 460.19,1889.36 456.59,1889.36 456.59,1892.96 452.99,1892.96 452.99,1896.56 449.4,1896.56 449.4,1903.75 445.8,1903.75 445.8,1907.35 442.2,1907.35 442.2,1910.94 438.6,1910.94 438.6,1914.54 435.01,1914.54 435.01,1918.14 431.41,1918.14 431.41,1921.74 427.81,1921.74 427.81,1925.33 424.21,1925.33 424.21,1928.93 420.62,1928.93 420.62,1932.53 417.02,1932.53 417.02,1936.13 409.82,1936.13 409.82,1939.73 406.23,1939.73 406.23,1943.32 402.63,1943.32 402.63,1946.92 399.03,1946.92 399.03,1950.52 395.44,1950.52 395.44,1954.11 388.24,1954.11 388.24,1957.71 384.65,1957.71 384.65,1961.31 381.05,1961.31 381.05,1964.9 373.85,1964.9 373.85,1968.5 370.26,1968.5 370.26,1972.1 366.66,1972.1 366.66,1975.69 359.47,1975.69 359.47,1979.29 355.87,1979.29 355.87,1982.89 352.27,1982.89 352.27,1986.49 345.07,1986.49 345.07,1990.08 341.48,1990.08 341.48,1993.68 337.88,1993.68 337.88,1997.28 330.69,1997.28 330.69,2000.88 327.09,2000.88 327.09,2004.48 323.49,2004.48 323.49,2008.07 316.3,2008.07 316.3,2011.67 309.11,2011.67 309.11,2015.27 305.51,2015.27 305.51,2018.86 298.31,2018.86 298.31,2022.46 294.71,2022.46 294.71,2026.06 287.52,2026.06 287.52,2029.65 280.32,2029.65 280.32,2033.25 273.13,2033.25 273.13,2036.85 240.76,2036.85 240.76,2033.25 229.96,2033.25 229.96,2029.65 222.77,2029.65 222.77,2026.06 215.57,2026.06 215.57,2022.46 211.98,2022.46 211.98,2018.86 208.38,2018.86 208.38,2015.27 201.19,2015.27 201.19,2011.67 197.59,2011.67 197.59,2008.07 193.99,2008.07 193.99,2004.48 186.8,2004.48 186.8,2000.88 183.2,2000.88 183.2,1997.28 179.6,1997.28 179.6,1993.68 172.41,1993.68 172.41,1990.08 168.81,1990.08 168.81,1986.49 165.21,1986.49 165.21,1982.89 161.62,1982.89 161.62,1979.29 154.42,1979.29 154.42,1975.69 150.82,1975.69 150.82,1972.1 143.63,1972.1 143.63,1968.5 140.03,1968.5 140.03,1964.9 136.44,1964.9 136.44,1961.31 129.25,1961.31 129.25,1957.71 125.65,1957.71 125.65,1954.11 118.45,1954.11 118.45,1950.52 114.85,1950.52 114.85,1946.92 111.26,1946.92 111.26,1943.32 104.06,1943.32 104.06,1939.73 100.46,1939.73 100.46,1936.13 96.87,1936.13 96.87,1932.53 93.27,1932.53 93.27,1928.93 89.67,1928.93 89.67,1925.33 82.48,1925.33 82.48,1921.74 78.88,1921.74 78.88,1918.14 75.29,1918.14 75.29,1914.54 71.69,1914.54 71.69,1910.94 68.09,1910.94 68.09,1907.35 64.49,1907.35 64.49,1903.75 60.9,1903.75 60.9,1896.56 57.3,1896.56 57.3,1892.96 53.7,1892.96 53.7,1889.36 50.11,1889.36 50.11,1882.17 46.51,1882.17 46.51,1874.97 42.91,1874.97 42.91,1867.78 39.31,1867.78 39.31,1860.58 35.71,1860.58 35.71,1853.39 32.12,1853.39 32.12,1846.2 28.52,1846.2 28.52,1824.62 24.92,1824.62 24.92,1716.7 28.52,1716.7 28.52,1691.52 32.12,1691.52 32.12,1666.33 35.71,1666.33 35.71,1651.95 39.31,1651.95 39.31,1623.17 42.91,1623.17 42.91,1601.58 46.51,1601.58 46.51,1583.6 50.11,1583.6 50.11,1572.81 53.7,1572.81 53.7,1547.63 57.3,1547.63 57.3,1533.24 60.9,1533.24 60.9,1518.85 64.49,1518.85 64.49,1504.46 68.09,1504.46 68.09,1490.07 71.69,1490.07 71.69,1482.88 75.29,1482.88 75.29,1472.08 78.88,1472.08 78.88,1457.7 82.48,1457.7 82.48,1450.5 86.08,1450.5 86.08,1439.71 89.67,1439.71 89.67,1432.52 93.27,1432.52 93.27,1421.72 96.87,1421.72 96.87,1414.53 100.46,1414.53 100.46,1403.74 104.06,1403.74 104.06,1396.54 107.66,1396.54 107.66,1389.35 111.26,1389.35 111.26,1378.56 114.85,1378.56 114.85,1371.37 118.45,1371.37 118.45,1367.77 122.05,1367.77 122.05,1360.57 125.65,1360.57 125.65,1353.38 129.25,1353.38 129.25,1346.18 132.84,1346.18 132.84,1338.99 136.44,1338.99 136.44,1331.79 140.03,1331.79 140.03,1328.2 143.63,1328.2 143.63,1324.6 147.23,1324.6 147.23,1317.41 150.82,1317.41 150.82,1313.81 154.42,1313.81 154.42,1306.61 158.02,1306.61 158.02,1303.02 161.62,1303.02 161.62,1299.42 165.21,1299.42 165.21,1292.22 168.81,1292.22 168.81,1288.63 172.41,1288.63 172.41,1285.03 176.01,1285.03 176.01,1281.43 179.6,1281.43 179.6,1277.83 183.2,1277.83 183.2,1274.24 190.4,1274.24 190.4,1270.64 193.99,1270.64 193.99,1267.04 201.19,1267.04 201.19,1263.45 204.78,1263.45 204.78,1259.85 211.98,1259.85 211.98,1256.25 219.17,1256.25 219.17,1252.66 226.37,1252.66 226.37,1249.06 233.56,1249.06 233.56,1245.46 244.36,1245.46 244.36,1241.86 280.32,1241.86 "/>
  <path id="outline" class="fil2" d="M496.16 1705.91l-3.6 0 0 -21.59 -3.6 0 0 -17.99 -3.59 0 0 -10.79 -3.6 0 0 -17.98 -3.6 0 0 -14.39 -3.6 0 0 -10.79 -3.59 0 0 -14.39 -3.6 0 0 -10.79 -3.6 0 0 -17.99 -3.59 0 0 -14.39 -3.6 0 0 -7.19 -3.6 0 0 -14.39 -3.59 0 0 -14.39 -3.6 0 0 -14.39 -3.6 0 0 -14.39 -3.6 0 0 -17.99 -3.59 0 0 -17.98 -3.6 0 0 -10.79 -3.6 0 0 -10.79 -3.6 0 0 -7.2 -3.59 0 0 -14.39 -3.6 0 0 -10.79 -3.6 0 0 -7.19 -3.6 0 0 -10.79 -3.59 0 0 -10.79 -3.6 0 0 -7.2 -3.6 0 0 -10.79 -3.59 0 0 -7.2 -3.6 0 0 -7.19 -3.6 0 0 -7.2 -3.59 0 0 -3.59 -3.6 0 0 -7.2 -3.6 0 0 -7.19 -3.6 0 0 -3.6 -3.59 0 0 -7.19 -3.6 0 0 -3.6 -3.6 0 0 -3.6 -3.59 0 0 -3.6 -3.6 0 0 -7.19 -3.6 0 0 -3.6 -3.6 0 0 -3.6 -3.6 0 0 -3.59 -3.59 0 0 -3.6 -7.2 0 0 -3.6 -3.59 0 0 -3.59 -7.2 0 0 -3.6 -3.59 0 0 -3.6 -7.2 0 0 -3.59 -7.19 0 0 -3.6 -10.8 0 0 -3.6 -14.39 0 0 -3.6 -35.96 0 0 3.6 -10.8 0 0 3.6 -7.19 0 0 3.6 -7.2 0 0 3.59 -7.19 0 0 3.6 -7.2 0 0 3.6 -3.59 0 0 3.59 -7.2 0 0 3.6 -3.59 0 0 3.6 -7.2 0 0 3.59 -3.6 0 0 3.6 -3.59 0 0 3.6 -3.6 0 0 3.6 -3.6 0 0 3.59 -3.6 0 0 7.2 -3.59 0 0 3.6 -3.6 0 0 3.59 -3.6 0 0 7.2 -3.6 0 0 3.6 -3.59 0 0 7.19 -3.6 0 0 3.6 -3.6 0 0 3.59 -3.59 0 0 7.2 -3.6 0 0 7.19 -3.59 0 0 7.2 -3.6 0 0 7.19 -3.6 0 0 7.2 -3.6 0 0 3.6 -3.6 0 0 7.19 -3.59 0 0 10.79 -3.6 0 0 7.19 -3.6 0 0 7.2 -3.6 0 0 10.79 -3.59 0 0 7.19 -3.6 0 0 10.8 -3.6 0 0 7.19 -3.59 0 0 10.79 -3.6 0 0 7.2 -3.6 0 0 14.38 -3.59 0 0 10.8 -3.6 0 0 7.19 -3.6 0 0 14.39 -3.6 0 0 14.39 -3.59 0 0 14.39 -3.6 0 0 14.39 -3.6 0 0 25.18 -3.59 0 0 10.79 -3.6 0 0 17.98 -3.6 0 0 21.59 -3.6 0 0 28.78 -3.6 0 0 14.38 -3.59 0 0 25.19 -3.6 0 0 25.18 -3.6 0 0 107.92 3.6 0 0 21.58 3.6 0 0 7.19 3.59 0 0 7.19 3.6 0 0 7.2 3.6 0 0 7.19 3.6 0 0 7.2 3.6 0 0 7.19 3.59 0 0 3.6 3.6 0 0 3.6 3.6 0 0 7.19 3.59 0 0 3.6 3.6 0 0 3.59 3.6 0 0 3.6 3.6 0 0 3.6 3.59 0 0 3.6 3.6 0 0 3.59 7.19 0 0 3.6 3.6 0 0 3.6 3.6 0 0 3.6 3.59 0 0 3.6 3.6 0 0 3.59 7.2 0 0 3.6 3.59 0 0 3.6 3.6 0 0 3.59 7.2 0 0 3.6 3.6 0 0 3.6 7.19 0 0 3.59 3.59 0 0 3.6 3.6 0 0 3.6 7.19 0 0 3.59 3.6 0 0 3.6 7.2 0 0 3.6 3.59 0 0 3.6 3.6 0 0 3.59 3.6 0 0 3.6 7.19 0 0 3.6 3.6 0 0 3.6 3.6 0 0 3.6 7.19 0 0 3.59 3.6 0 0 3.6 3.6 0 0 3.6 7.19 0 0 3.59 3.6 0 0 3.6 3.59 0 0 3.6 7.2 0 0 3.59 7.19 0 0 3.6 10.8 0 0 3.6 32.37 0 0 -3.6 7.19 0 0 -3.6 7.2 0 0 -3.59 7.19 0 0 -3.6 3.6 0 0 -3.6 7.2 0 0 -3.59 3.6 0 0 -3.6 7.19 0 0 -3.6 7.19 0 0 -3.59 3.6 0 0 -3.6 3.6 0 0 -3.6 7.19 0 0 -3.6 3.6 0 0 -3.6 3.59 0 0 -3.59 7.2 0 0 -3.6 3.6 0 0 -3.6 3.6 0 0 -3.6 7.19 0 0 -3.59 3.6 0 0 -3.6 3.59 0 0 -3.6 7.2 0 0 -3.59 3.6 0 0 -3.6 3.59 0 0 -3.6 7.2 0 0 -3.59 3.59 0 0 -3.6 3.6 0 0 -3.6 3.6 0 0 -3.59 3.59 0 0 -3.6 7.2 0 0 -3.6 3.6 0 0 -3.6 3.59 0 0 -3.6 3.6 0 0 -3.59 3.6 0 0 -3.6 3.6 0 0 -3.6 3.59 0 0 -3.6 3.6 0 0 -3.59 3.6 0 0 -3.6 3.6 0 0 -7.19 3.59 0 0 -3.6 3.6 0 0 -3.6 3.6 0 0 -7.19 3.59 0 0 -7.2 3.6 0 0 -7.19 3.6 0 0 -7.2 3.59 0 0 -7.19 3.6 0 0 -10.79 3.6 0 0 -7.19 3.6 0 0 -10.79 3.59 0 0 -17.99 3.6 0 0 -21.59 3.6 0 0 -79.13zm-55.97 -288.78l11.13 33.24 8.87 25.31 3.59 0 0 14.39 3.6 0 0 17.99 3.6 0 0 10.79 3.59 0 0 14.39 3.6 0 0 17.98 3.6 0 0 14.4 3.6 0 0 3.59 3.59 0 0 17.99 3.6 0 0 10.79 3.6 0 0 17.98 3.6 0 0 14.4 3.6 0 0 14.38 3.59 0 0 14.39 3.6 0 0 17.99 3.6 0 0 17.98 3.59 0 0 97.13 -3.59 0 0 17.98 -3.6 0 0 21.59 -3.6 0 0 7.19 -3.59 0 0 10.79 -3.6 0 0 7.2 -3.6 0 0 10.79 -3.6 0 0 7.19 -3.6 0 0 7.2 -3.59 0 0 7.19 -3.6 0 0 3.6 -3.6 0 0 7.19 -3.6 0 0 7.2 -3.59 0 0 3.59 -3.6 0 0 3.6 -3.6 0 0 3.6 -3.59 0 0 7.19 -3.6 0 0 3.6 -3.6 0 0 3.6 -3.59 0 0 3.6 -3.6 0 0 3.6 -3.6 0 0 3.59 -3.6 0 0 3.6 -3.59 0 0 3.6 -3.6 0 0 3.59 -7.2 0 0 3.6 -3.59 0 0 3.6 -3.6 0 0 3.59 -3.6 0 0 3.6 -3.6 0 0 3.6 -7.19 0 0 3.59 -3.6 0 0 3.6 -7.19 0 0 3.6 -3.6 0 0 3.6 -3.59 0 0 3.59 -3.6 0 0 3.6 -7.2 0 0 3.6 -3.59 0 0 3.6 -7.2 0 0 3.6 -3.59 0 0 3.59 -3.6 0 0 3.6 -7.2 0 0 3.6 -3.6 0 0 3.59 -3.59 0 0 3.6 -7.2 0 0 3.6 -3.59 0 0 3.59 -3.6 0 0 3.6 -7.19 0 0 3.6 -3.6 0 0 3.59 -7.19 0 0 3.6 -7.2 0 0 3.6 -7.2 0 0 3.6 -7.19 0 0 3.6 -7.2 0 0 3.59 -14.38 0 0 3.6 -21.58 0 0 -3.6 -14.4 0 0 -3.59 -7.19 0 0 -3.6 -7.2 0 0 -3.6 -7.19 0 0 -3.6 -3.6 0 0 -3.6 -7.19 0 0 -3.59 -3.6 0 0 -3.6 -3.59 0 0 -3.6 -7.2 0 0 -3.59 -3.6 0 0 -3.6 -7.19 0 0 -3.6 -3.6 0 0 -3.59 -3.6 0 0 -3.6 -3.59 0 0 -3.6 -7.2 0 0 -3.59 -3.6 0 0 -3.6 -3.59 0 0 -3.6 -7.2 0 0 -3.6 -3.59 0 0 -3.6 -7.19 0 0 -3.59 -3.6 0 0 -3.6 -3.6 0 0 -3.6 -3.6 0 0 -3.6 -7.19 0 0 -3.59 -3.6 0 0 -3.6 -7.2 0 0 -3.6 -3.59 0 0 -3.59 -3.6 0 0 -3.6 -3.6 0 0 -3.6 -7.19 0 0 -3.59 -3.6 0 0 -3.6 -3.59 0 0 -3.6 -3.6 0 0 -3.59 -3.6 0 0 -3.6 -7.19 0 0 -3.6 -3.6 0 0 -3.6 -3.6 0 0 -3.6 -3.59 0 0 -3.59 -3.6 0 0 -7.2 -3.6 0 0 -3.6 -3.6 0 0 -3.59 -3.6 0 0 -3.6 -3.59 0 0 -7.19 -3.6 0 0 -3.6 -3.6 0 0 -7.19 -3.59 0 0 -7.2 -3.6 0 0 -7.19 -3.6 0 0 -10.8 -3.59 0 0 -10.79 -3.6 0 0 -17.98 -3.6 0 0 -10.79 -3.59 0 0 -79.14 3.59 0 0 -35.97 3.6 0 0 -28.78 3.6 0 0 -21.59 3.59 0 0 -17.98 3.6 0 0 -25.18 3.6 0 0 -14.39 3.59 0 0 -21.58 3.6 0 0 -21.59 3.6 0 0 -21.58 3.59 0 0 -21.58 3.6 0 2.01 -12.97 1.59 -5.02 19.88 -39.96 12.5 -24.79 0 -7.2 3.59 0 0 -7.19 3.6 0 0 -10.79 3.6 0 0 -10.79 3.59 0 0 -7.2 3.6 0 0 -10.79 3.6 0 0 -7.19 3.59 0 0 -3.6 3.6 0 0 -7.2 3.6 0 0 -7.19 3.6 0 0 -7.2 3.59 0 0 -7.19 3.6 0 0 -7.19 3.6 0 0 -3.6 3.6 0 0 -7.19 3.6 0 0 -3.6 3.59 0 0 -3.6 3.6 0 0 -7.19 3.59 0 0 -7.2 3.6 0 0 -3.6 3.6 0 0 -3.59 3.59 0 0 -3.6 3.6 0 0 -3.6 3.6 0 0 -3.6 3.6 0 0 -3.59 3.59 0 0 -3.6 3.6 0 0 -3.6 3.6 0 0 -3.59 3.6 0 0 -3.6 3.59 0 0 -3.6 7.2 0 0 -3.59 3.6 0 0 -3.6 7.19 0 0 -3.6 7.19 0 0 -3.6 7.2 0 0 -3.59 10.79 0 0 -3.6 10.79 0 0 -3.6 14.39 0 0 -3.59 39.57 0 0 3.59 14.39 0 0 3.6 10.79 0 0 3.6 7.2 0 0 3.59 7.19 0 0 3.6 7.19 0 0 3.6 7.2 0 0 3.6 3.59 0 0 3.59 3.6 0 0 3.6 7.2 0 0 3.6 3.6 0 0 3.59 3.59 0 0 3.6 3.6 0 0 3.6 3.6 0 0 3.59 3.59 0 0 3.6 3.6 0 0 3.6 3.6 0 0 7.19 3.6 0 0 3.6 3.59 0 0 7.2 3.6 0 0 3.59 3.6 0 0 7.2 3.59 0 0 3.6 3.6 0 0 7.19 3.6 0 0 7.19 3.59 0 0 10.79 3.6 0 0 7.2 3.6 0 0 7.19 3.6 0 0 7.2 3.59 0 0 10.79 3.6 0 12.38 42.17z"/>
 </g>
</svg>
