<?xml version="1.0" encoding="UTF-8"?>
<!DOCTYPE svg PUBLIC "-//W3C//DTD SVG 1.1//EN" "http://www.w3.org/Graphics/SVG/1.1/DTD/svg11.dtd">
<!-- Creator: CorelDRAW (Versión de evaluación) -->
<svg xmlns="http://www.w3.org/2000/svg" xml:space="preserve" width="684px" height="2062px" version="1.1" style="shape-rendering:geometricPrecision; text-rendering:geometricPrecision; image-rendering:optimizeQuality; fill-rule:evenodd; clip-rule:evenodd"
viewBox="0 0 684 2062.8"
 xmlns:xlink="http://www.w3.org/1999/xlink"
 xmlns:xodm="http://www.corel.com/coreldraw/odm/2003">
 <defs>
  <style type="text/css">
   <![CDATA[
    .str0 {stroke:#4B4B4D;stroke-width:20;stroke-miterlimit:22.9256}
    .fil0 {fill:#BDBFC1}
    .fil2 {fill:#4B4B4D}
    .fil1 {fill:#FAFAF7}
   ]]>
  </style>
 </defs>
 <g id="implant">
  <metadata id="CorelCorpID_0Corel-Layer"/>
  <path id="root" class="fil0 str0" d="M287.13 1736.87c21.46,-3.63 44.16,-3.62 65.63,0l134.97 0c0.08,-22.49 -6.15,-28.23 -8.69,-82.57 -2.45,-52.6 -4.35,-316.76 9.49,-352.15l13.4 -22.42c0.82,-1.89 2.23,-3.99 2.84,-5.94 16.28,-52.07 -34.86,-19.29 -20.34,-103.18 11.76,-68 34.77,10.96 21.86,-62.51 -8.45,-48.07 -26.26,6.24 -22.96,-66.61 3.91,-86.15 23.5,8.06 23.99,-64.55 0.47,-69.14 -19.35,13.14 -23.89,-63.97 -1.58,-26.9 2.31,-26.23 7.65,-37.62 13.87,-29.56 6.76,25.18 15.57,-28.72 10.83,-66.27 -10.92,2.6 -22.24,-62.38 -8,-45.91 13.63,-62.43 17.26,-70.76 19.87,-45.58 -2.36,-32.42 -22.89,-44.84 -5.45,-122.25 -61.62,-218.77 -162.55,-194.39 -90.56,21.87 -116.19,130.41 -116.19,265.14 -27.06,27.94 -35.34,19.65 -13.31,60.8 1.02,1.92 2.72,3.38 3.76,5.34 8.25,15.51 2.3,-7.37 8.77,18.56 16.36,65.56 -37.71,60.99 -16.02,107.65 13.76,29.57 16.8,-6.42 16.8,82.11l-20.04 19.78c-6.01,12 -5.27,22.04 0.56,34.43 8.29,17.62 30.2,6.3 19.98,73.27 -9.61,62.95 -1.1,7.98 -13.9,31.91 -0.16,0.32 -24.01,-2.13 -3.47,42.27l7.3 11.9 2.76 0 3.47 10.17c5.54,15.94 3.34,31.81 3.34,50.74 -2.68,8.29 -4.91,12.76 -6.81,14.76l0 0.42 -14.3 6.39 -0.62 7.64c-5.25,68.49 5.04,0.06 23.58,41.05 13.97,30.91 9.9,278.84 8.35,378.28l76.89 0zm41.9 -58.22c38.96,0.02 96.99,-9.96 131.77,7.37l4.85 42.2 -246.77 -0.1c6.82,-65.26 -6.35,-49.53 110.15,-49.47zm128.8 -29.44l-231.38 0 0.89 -289.54 230.67 0 -0.18 289.54zm4.83 -317.77c-96.16,4.44 -150.63,-0.42 -241.05,-19.34l-0.05 -86.47c85.49,6.21 160.18,21.36 241.53,47.86l-0.43 57.95zm1.24 -114.46c-84.25,-17.41 -153,-40.78 -243.3,-45.18l0 -90.69c81.14,5.67 171.25,20.75 243.3,48.58l0 87.29zm0.33 -144.72c-83.68,-15.21 -149.55,-39.47 -240.02,-45.02l-3.81 -85.28c89.8,5.64 158.89,23.62 241.82,47.68l2.01 82.62zm0.04 -139.16c-85.29,-15.1 -151.35,-39.61 -243.67,-45.41l0.55 -82.64c85.33,6.03 160.82,20.64 240.78,47.75l2.34 80.3zm-0.37 -136.81c-84.8,-17.39 -152.54,-40.29 -243.3,-45.33l0 -68.26 243.3 28.59 0 85zm-7.69 -141.42l-227.77 0.36c-0.68,-206.62 230.27,-205.16 227.77,-0.36z"/>
  <polygon id="crown" class="fil1" points="431.93,1449.43 464.33,1449.43 464.33,1453.03 485.93,1453.03 485.93,1456.63 503.93,1456.63 503.93,1460.23 521.93,1460.23 521.93,1463.83 532.73,1463.83 532.73,1467.43 543.53,1467.43 543.53,1471.03 550.73,1471.03 550.73,1474.63 565.13,1474.63 565.13,1478.23 572.33,1478.23 572.33,1481.83 579.53,1481.83 579.53,1485.43 583.13,1485.43 583.13,1489.03 586.73,1489.03 586.73,1492.63 590.33,1492.63 590.33,1499.83 593.93,1499.83 593.93,1503.43 597.53,1503.43 597.53,1510.63 601.13,1510.63 601.13,1521.43 604.73,1521.43 604.73,1528.63 608.33,1528.63 608.33,1539.43 611.93,1539.43 611.93,1546.63 615.53,1546.63 615.53,1557.43 619.13,1557.43 619.13,1564.63 622.73,1564.63 622.73,1575.43 626.33,1575.43 626.33,1586.24 629.93,1586.24 629.93,1597.04 633.53,1597.04 633.53,1604.23 637.13,1604.23 637.13,1622.23 640.73,1622.23 640.73,1633.03 644.33,1633.03 644.33,1651.04 647.93,1651.04 647.93,1661.84 651.53,1661.84 651.53,1676.23 655.13,1676.23 655.13,1705.04 658.73,1705.04 658.73,1773.43 655.13,1773.43 655.13,1791.44 651.53,1791.44 651.53,1802.24 647.93,1802.24 647.93,1813.04 644.33,1813.04 644.33,1820.24 640.73,1820.24 640.73,1831.04 637.13,1831.04 637.13,1838.23 633.53,1838.23 633.53,1845.44 629.93,1845.44 629.93,1856.24 626.33,1856.24 626.33,1863.44 622.73,1863.44 622.73,1867.04 619.13,1867.04 619.13,1874.24 615.53,1874.24 615.53,1877.84 611.93,1877.84 611.93,1885.04 608.33,1885.04 608.33,1888.64 604.73,1888.64 604.73,1895.84 601.13,1895.84 601.13,1899.43 597.53,1899.43 597.53,1903.03 593.93,1903.03 593.93,1906.64 590.33,1906.64 590.33,1913.83 586.73,1913.83 586.73,1917.44 583.13,1917.44 583.13,1921.03 579.53,1921.03 579.53,1924.63 572.33,1924.63 572.33,1928.24 568.73,1928.24 568.73,1931.83 565.13,1931.83 565.13,1935.43 557.93,1935.43 557.93,1939.04 550.73,1939.04 550.73,1942.63 539.93,1942.63 539.93,1946.23 503.93,1946.23 503.93,1942.63 489.53,1942.63 489.53,1939.04 460.73,1939.04 460.73,1935.43 453.53,1935.43 453.53,1931.83 424.72,1931.83 424.72,1928.24 385.13,1928.24 385.13,1924.63 388.73,1924.63 388.73,1917.44 392.32,1917.44 392.32,1910.23 395.93,1910.23 395.93,1892.23 399.53,1892.23 399.53,1870.63 395.93,1870.63 395.93,1867.04 410.33,1867.04 410.33,1870.63 421.13,1870.63 421.13,1874.24 431.93,1874.24 431.93,1877.84 442.73,1877.84 442.73,1881.43 453.53,1881.43 453.53,1885.04 460.73,1885.04 460.73,1888.64 471.53,1888.64 471.53,1892.23 478.72,1892.23 478.72,1895.84 500.33,1895.84 500.33,1899.43 521.93,1899.43 521.93,1895.84 529.13,1895.84 529.13,1892.23 536.33,1892.23 536.33,1888.64 543.53,1888.64 543.53,1885.04 547.13,1885.04 547.13,1881.43 554.33,1881.43 554.33,1877.84 557.93,1877.84 557.93,1874.24 561.53,1874.24 561.53,1867.04 565.13,1867.04 565.13,1863.44 568.73,1863.44 568.73,1859.83 572.33,1859.83 572.33,1852.64 575.93,1852.64 575.93,1849.03 579.53,1849.03 579.53,1841.84 583.13,1841.84 583.13,1831.04 586.73,1831.04 586.73,1827.43 590.33,1827.43 590.33,1809.44 579.53,1809.44 579.53,1823.84 575.93,1823.84 575.93,1827.43 572.33,1827.43 572.33,1834.64 568.73,1834.64 568.73,1841.84 565.13,1841.84 565.13,1845.44 561.53,1845.44 561.53,1849.03 557.93,1849.03 557.93,1856.24 554.33,1856.24 554.33,1859.83 550.73,1859.83 550.73,1863.44 547.13,1863.44 547.13,1867.04 543.53,1867.04 543.53,1870.63 536.33,1870.63 536.33,1874.24 532.73,1874.24 532.73,1877.84 525.53,1877.84 525.53,1881.43 496.73,1881.43 496.73,1877.84 482.33,1877.84 482.33,1874.24 471.53,1874.24 471.53,1870.63 464.33,1870.63 464.33,1867.04 453.53,1867.04 453.53,1863.44 442.73,1863.44 442.73,1859.83 431.93,1859.83 431.93,1856.24 424.72,1856.24 424.72,1852.64 410.33,1852.64 410.33,1849.03 381.52,1849.03 381.52,1841.84 385.13,1841.84 385.13,1831.04 388.73,1831.04 388.73,1816.63 392.32,1816.63 392.32,1809.44 395.93,1809.44 395.93,1737.44 388.73,1737.44 388.73,1755.44 385.13,1755.44 385.13,1769.84 381.52,1769.84 381.52,1805.83 377.93,1805.83 377.93,1813.04 374.33,1813.04 374.33,1827.43 370.72,1827.43 370.72,1834.64 367.13,1834.64 367.13,1845.44 363.53,1845.44 363.53,1849.03 359.92,1849.03 359.92,1852.64 356.33,1852.64 356.33,1856.24 349.12,1856.24 349.12,1859.83 345.53,1859.83 345.53,1863.44 341.92,1863.44 341.92,1867.04 334.73,1867.04 334.73,1870.63 331.12,1870.63 331.12,1874.24 323.93,1874.24 323.93,1877.84 320.32,1877.84 320.32,1881.43 316.72,1881.43 316.72,1885.04 309.52,1885.04 309.52,1888.64 305.92,1888.64 305.92,1892.23 302.33,1892.23 302.33,1895.84 295.12,1895.84 295.12,1899.43 287.92,1899.43 287.92,1903.03 284.32,1903.03 284.32,1906.64 277.12,1906.64 277.12,1910.23 269.93,1910.23 269.93,1913.83 266.32,1913.83 266.32,1917.44 259.13,1917.44 259.13,1921.03 251.92,1921.03 251.92,1924.63 244.72,1924.63 244.72,1928.24 230.32,1928.24 230.32,1931.83 179.92,1931.83 179.92,1928.24 169.12,1928.24 169.12,1924.63 161.92,1924.63 161.92,1921.03 154.72,1921.03 154.72,1917.44 147.52,1917.44 147.52,1913.83 140.32,1913.83 140.32,1910.23 136.72,1910.23 136.72,1906.64 129.52,1906.64 129.52,1903.03 125.92,1903.03 125.92,1899.43 122.32,1899.43 122.32,1895.84 118.72,1895.84 118.72,1892.23 115.12,1892.23 115.12,1888.64 111.52,1888.64 111.52,1885.04 107.92,1885.04 107.92,1881.43 100.72,1881.43 100.72,1895.84 104.32,1895.84 104.32,1899.43 107.92,1899.43 107.92,1903.03 111.52,1903.03 111.52,1906.64 115.12,1906.64 115.12,1910.23 118.72,1910.23 118.72,1913.83 122.32,1913.83 122.32,1917.44 125.92,1917.44 125.92,1921.03 133.12,1921.03 133.12,1924.63 140.32,1924.63 140.32,1928.24 143.92,1928.24 143.92,1931.83 151.12,1931.83 151.12,1935.43 158.32,1935.43 158.32,1939.04 169.12,1939.04 169.12,1942.63 179.92,1942.63 179.92,1946.23 190.72,1946.23 190.72,1949.84 230.32,1949.84 230.32,1946.23 237.53,1946.23 237.53,1942.63 248.33,1942.63 248.33,1939.04 255.52,1939.04 255.52,1935.43 262.72,1935.43 262.72,1931.83 269.93,1931.83 269.93,1928.24 277.12,1928.24 277.12,1924.63 284.32,1924.63 284.32,1921.03 291.53,1921.03 291.53,1917.44 295.12,1917.44 295.12,1913.83 302.33,1913.83 302.33,1910.23 309.52,1910.23 309.52,1906.64 313.13,1906.64 313.13,1903.03 316.72,1903.03 316.72,1899.43 323.93,1899.43 323.93,1895.84 327.52,1895.84 327.52,1892.23 331.12,1892.23 331.12,1888.64 338.32,1888.64 338.32,1885.04 341.92,1885.04 341.92,1881.43 349.12,1881.43 349.12,1877.84 352.72,1877.84 352.72,1874.24 359.92,1874.24 359.92,1870.63 363.53,1870.63 363.53,1867.04 392.32,1867.04 392.32,1870.63 388.73,1870.63 388.73,1892.23 385.13,1892.23 385.13,1906.64 381.52,1906.64 381.52,1913.83 377.93,1913.83 377.93,1921.03 374.33,1921.03 374.33,1931.83 370.72,1931.83 370.72,1935.43 359.92,1935.43 359.92,1939.04 352.72,1939.04 352.72,1942.63 345.53,1942.63 345.53,1946.23 338.32,1946.23 338.32,1949.84 331.12,1949.84 331.12,1953.43 323.93,1953.43 323.93,1957.03 320.32,1957.03 320.32,1960.64 313.13,1960.64 313.13,1964.23 305.92,1964.23 305.92,1967.83 302.33,1967.83 302.33,1971.44 295.12,1971.44 295.12,1975.03 291.53,1975.03 291.53,1978.63 284.32,1978.63 284.32,1982.24 277.12,1982.24 277.12,1985.83 269.93,1985.83 269.93,1989.43 262.72,1989.43 262.72,1993.04 251.92,1993.04 251.92,1996.63 241.12,1996.63 241.12,2000.24 215.92,2000.24 215.92,1996.63 201.52,1996.63 201.52,1993.04 190.72,1993.04 190.72,1989.43 183.52,1989.43 183.52,1985.83 176.32,1985.83 176.32,1982.24 169.12,1982.24 169.12,1978.63 161.92,1978.63 161.92,1975.03 158.32,1975.03 158.32,1971.44 151.12,1971.44 151.12,1967.83 143.92,1967.83 143.92,1964.23 140.32,1964.23 140.32,1960.64 133.12,1960.64 133.12,1957.03 129.52,1957.03 129.52,1953.43 125.92,1953.43 125.92,1949.84 122.32,1949.84 122.32,1946.23 115.12,1946.23 115.12,1942.63 111.52,1942.63 111.52,1939.04 107.92,1939.04 107.92,1935.43 104.32,1935.43 104.32,1931.83 100.72,1931.83 100.72,1928.24 97.12,1928.24 97.12,1924.63 93.52,1924.63 93.52,1921.03 89.92,1921.03 89.92,1917.44 86.32,1917.44 86.32,1913.83 82.72,1913.83 82.72,1910.23 79.12,1910.23 79.12,1906.64 75.52,1906.64 75.52,1899.43 71.92,1899.43 71.92,1895.84 68.32,1895.84 68.32,1892.23 64.72,1892.23 64.72,1885.04 61.12,1885.04 61.12,1881.43 57.52,1881.43 57.52,1874.24 53.92,1874.24 53.92,1870.63 50.32,1870.63 50.32,1863.44 46.72,1863.44 46.72,1856.24 43.12,1856.24 43.12,1849.03 39.52,1849.03 39.52,1841.84 35.92,1841.84 35.92,1834.64 32.32,1834.64 32.32,1823.84 28.72,1823.84 28.72,1813.04 25.12,1813.04 25.12,1795.03 21.52,1795.03 21.52,1715.84 25.12,1715.84 25.12,1690.63 28.72,1690.63 28.72,1672.64 32.32,1672.64 32.32,1661.84 35.92,1661.84 35.92,1647.43 39.52,1647.43 39.52,1629.44 43.12,1629.44 43.12,1618.64 46.72,1618.64 46.72,1604.23 50.32,1604.23 50.32,1597.04 53.92,1597.04 53.92,1586.24 57.52,1586.24 57.52,1571.83 61.12,1571.83 61.12,1561.03 64.72,1561.03 64.72,1543.03 68.32,1543.03 68.32,1525.03 71.92,1525.03 71.92,1521.43 75.52,1521.43 75.52,1517.83 82.72,1517.83 82.72,1514.23 86.32,1514.23 86.32,1510.63 93.52,1510.63 93.52,1507.03 97.12,1507.03 97.12,1503.43 104.32,1503.43 104.32,1499.83 111.52,1499.83 111.52,1496.23 118.72,1496.23 118.72,1492.63 129.52,1492.63 129.52,1489.03 136.72,1489.03 136.72,1485.43 147.52,1485.43 147.52,1481.83 154.72,1481.83 154.72,1478.23 165.52,1478.23 165.52,1474.63 172.72,1474.63 172.72,1471.03 183.52,1471.03 183.52,1467.43 201.52,1467.43 201.52,1463.83 219.52,1463.83 219.52,1460.23 233.92,1460.23 233.92,1456.63 251.92,1456.63 251.92,1453.03 277.12,1453.03 277.12,1449.43 295.12,1449.43 295.12,1445.83 431.93,1445.83 "/>
  <path id="outline" class="fil2" d="M395.93 1809.44l-3.61 0 0 7.19 -3.59 0 0 14.41 -3.6 0 0 10.8 -3.61 0 0 7.19 28.81 0 0 3.61 14.39 0 0 3.6 7.21 0 0 3.59 10.8 0 0 3.61 10.8 0 0 3.6 10.8 0 0 3.59 7.2 0 0 3.61 10.8 0 0 3.6 14.4 0 0 3.59 28.8 0 0 -3.59 7.2 0 0 -3.6 3.6 0 0 -3.61 7.2 0 0 -3.59 3.6 0 0 -3.6 3.6 0 0 -3.61 3.6 0 0 -3.59 3.6 0 0 -7.21 3.6 0 0 -3.59 3.6 0 0 -3.6 3.6 0 0 -7.2 3.6 0 0 -7.21 3.6 0 0 -3.59 3.6 0 0 -14.4 10.8 0 0 17.99 -3.6 0 0 3.61 -3.6 0 0 10.8 -3.6 0 0 7.19 -3.6 0 0 3.61 -3.6 0 0 7.19 -3.6 0 0 3.61 -3.6 0 0 3.6 -3.6 0 0 7.2 -3.6 0 0 3.6 -3.6 0 0 3.59 -7.2 0 0 3.61 -3.6 0 0 3.6 -7.2 0 0 3.59 -7.2 0 0 3.61 -7.2 0 0 3.59 -21.6 0 0 -3.59 -21.61 0 0 -3.61 -7.19 0 0 -3.59 -10.8 0 0 -3.6 -7.2 0 0 -3.61 -10.8 0 0 -3.59 -10.8 0 0 -3.6 -10.8 0 0 -3.61 -10.8 0 0 -3.59 -14.4 0 0 3.59 3.6 0 0 21.6 -3.6 0 0 18 -3.61 0 0 7.21 -3.59 0 0 7.19 -3.6 0 0 3.61 39.59 0 0 3.59 28.81 0 0 3.6 7.2 0 0 3.61 28.8 0 0 3.59 14.4 0 0 3.6 36 0 0 -3.6 10.8 0 0 -3.59 7.2 0 0 -3.61 7.2 0 0 -3.6 3.6 0 0 -3.59 3.6 0 0 -3.61 7.2 0 0 -3.6 3.6 0 0 -3.59 3.6 0 0 -3.61 3.6 0 0 -7.19 3.6 0 0 -3.61 3.6 0 0 -3.6 3.6 0 0 -3.59 3.6 0 0 -7.2 3.6 0 0 -3.6 3.6 0 0 -7.2 3.6 0 0 -3.6 3.6 0 0 -7.2 3.6 0 0 -3.6 3.6 0 0 -7.2 3.6 0 0 -10.8 3.6 0 0 -7.21 3.6 0 0 -7.19 3.6 0 0 -10.8 3.6 0 0 -7.2 3.6 0 0 -10.8 3.6 0 0 -10.8 3.6 0 0 -18.01 3.6 0 0 -68.39 -3.6 0 0 -28.81 -3.6 0 0 -14.39 -3.6 0 0 -10.8 -3.6 0 0 -18.01 -3.6 0 0 -10.8 -3.6 0 0 -18 -3.6 0 0 -7.19 -3.6 0 0 -10.8 -3.6 0 0 -10.81 -3.6 0 0 -10.8 -3.6 0 0 -7.2 -3.6 0 0 -10.8 -3.6 0 0 -7.2 -3.6 0 0 -10.8 -3.6 0 0 -7.2 -3.6 0 0 -10.8 -3.6 0 0 -7.2 -3.6 0 0 -3.6 -3.6 0 0 -7.2 -3.6 0 0 -3.6 -3.6 0 0 -3.6 -3.6 0 0 -3.6 -7.2 0 0 -3.6 -7.2 0 0 -3.6 -14.4 0 0 -3.6 -7.2 0 0 -3.6 -10.8 0 0 -3.6 -10.8 0 0 -3.6 -18 0 0 -3.6 -18 0 0 -3.6 -21.6 0 0 -3.6 -32.4 0 0 -3.6 -136.81 0 0 3.6 -18 0 0 3.6 -25.2 0 0 3.6 -18 0 0 3.6 -14.4 0 0 3.6 -18 0 0 3.6 -18 0 0 3.6 -10.8 0 0 3.6 -7.2 0 0 3.6 -10.8 0 0 3.6 -7.2 0 0 3.6 -10.8 0 0 3.6 -7.2 0 0 3.6 -10.8 0 0 3.6 -7.2 0 0 3.6 -7.2 0 0 3.6 -7.2 0 0 3.6 -3.6 0 0 3.6 -7.2 0 0 3.6 -3.6 0 0 3.6 -7.2 0 0 3.6 -3.6 0 0 3.6 -3.6 0 0 18 -3.6 0 0 18 -3.6 0 0 10.8 -3.6 0 0 14.41 -3.6 0 0 10.8 -3.6 0 0 7.19 -3.6 0 0 14.41 -3.6 0 0 10.8 -3.6 0 0 17.99 -3.6 0 0 14.41 -3.6 0 0 10.8 -3.6 0 0 17.99 -3.6 0 0 25.21 -3.6 0 0 79.19 3.6 0 0 18.01 3.6 0 0 10.8 3.6 0 0 10.8 3.6 0 0 7.2 3.6 0 0 7.19 3.6 0 0 7.21 3.6 0 0 7.2 3.6 0 0 7.19 3.6 0 0 3.61 3.6 0 0 7.19 3.6 0 0 3.61 3.6 0 0 7.19 3.6 0 0 3.61 3.6 0 0 3.59 3.6 0 0 7.21 3.6 0 0 3.59 3.6 0 0 3.6 3.6 0 0 3.61 3.6 0 0 3.59 3.6 0 0 3.6 3.6 0 0 3.61 3.6 0 0 3.59 3.6 0 0 3.6 3.6 0 0 3.61 3.6 0 0 3.59 3.6 0 0 3.6 7.2 0 0 3.61 3.6 0 0 3.59 3.6 0 0 3.6 3.6 0 0 3.61 7.2 0 0 3.59 3.6 0 0 3.6 7.2 0 0 3.61 7.2 0 0 3.59 3.6 0 0 3.6 7.2 0 0 3.61 7.2 0 0 3.59 7.2 0 0 3.6 7.2 0 0 3.61 10.8 0 0 3.59 14.4 0 0 3.61 25.2 0 0 -3.61 10.8 0 0 -3.59 10.8 0 0 -3.61 7.21 0 0 -3.6 7.19 0 0 -3.59 7.2 0 0 -3.61 7.21 0 0 -3.6 3.59 0 0 -3.59 7.21 0 0 -3.61 3.59 0 0 -3.6 7.21 0 0 -3.59 7.19 0 0 -3.61 3.61 0 0 -3.6 7.19 0 0 -3.59 7.2 0 0 -3.61 7.21 0 0 -3.6 7.19 0 0 -3.59 7.2 0 0 -3.61 10.8 0 0 -3.6 3.61 0 0 -10.8 3.6 0 0 -7.2 3.59 0 0 -7.19 3.61 0 0 -14.41 3.6 0 0 -21.6 3.59 0 0 -3.59 -28.79 0 0 3.59 -3.61 0 0 3.61 -7.2 0 0 3.6 -3.6 0 0 3.59 -7.2 0 0 3.61 -3.6 0 0 3.6 -7.2 0 0 3.59 -3.6 0 0 3.61 -3.59 0 0 3.59 -7.21 0 0 3.6 -3.59 0 0 3.61 -3.61 0 0 3.59 -7.19 0 0 3.6 -7.21 0 0 3.61 -3.59 0 0 3.59 -7.21 0 0 3.6 -7.2 0 0 3.61 -7.19 0 0 3.59 -7.21 0 0 3.6 -7.2 0 0 3.61 -7.19 0 0 3.59 -10.8 0 0 3.6 -7.21 0 0 3.61 -39.6 0 0 -3.61 -10.8 0 0 -3.6 -10.8 0 0 -3.59 -10.8 0 0 -3.61 -7.2 0 0 -3.6 -7.2 0 0 -3.59 -3.6 0 0 -3.61 -7.2 0 0 -3.6 -7.2 0 0 -3.59 -3.6 0 0 -3.61 -3.6 0 0 -3.6 -3.6 0 0 -3.59 -3.6 0 0 -3.61 -3.6 0 0 -3.6 -3.6 0 0 -3.59 -3.6 0 0 -14.41 7.2 0 0 3.61 3.6 0 0 3.6 3.6 0 0 3.59 3.6 0 0 3.61 3.6 0 0 3.59 3.6 0 0 3.6 3.6 0 0 3.61 7.2 0 0 3.59 3.6 0 0 3.6 7.2 0 0 3.61 7.2 0 0 3.59 7.2 0 0 3.6 7.2 0 0 3.61 10.8 0 0 3.59 50.4 0 0 -3.59 14.4 0 0 -3.61 7.2 0 0 -3.6 7.21 0 0 -3.59 7.19 0 0 -3.61 3.61 0 0 -3.6 7.19 0 0 -3.59 7.2 0 0 -3.61 3.6 0 0 -3.6 7.2 0 0 -3.59 7.21 0 0 -3.61 3.59 0 0 -3.59 3.6 0 0 -3.6 7.2 0 0 -3.61 3.6 0 0 -3.59 3.61 0 0 -3.6 7.19 0 0 -3.61 3.61 0 0 -3.59 7.19 0 0 -3.6 3.61 0 0 -3.61 3.59 0 0 -3.59 7.21 0 0 -3.6 3.59 0 0 -3.61 3.61 0 0 -3.59 3.6 0 0 -10.8 3.59 0 0 -7.21 3.61 0 0 -14.39 3.6 0 0 -7.21 3.59 0 0 -35.99 3.61 0 0 -14.4 3.6 0 0 -18 7.2 0 0 72zm195.92 -334.94l8.87 3.73 11.21 10.8 1.84 1.76 1.76 9.04 3.6 0 0 7.2 3.6 0 0 7.2 3.6 0 0 7.2 3.6 0 0 7.2 3.6 0 0 10.8 3.6 0 0 7.2 3.6 0 0 10.8 3.6 0 0 7.2 3.6 0 0 14.4 3.6 0 0 10.8 3.6 0 0 10.8 3.6 0 0 10.8 3.6 0 0 10.8 3.6 0 0 18.01 3.6 0 0 7.19 3.6 0 0 18 3.6 0 0 25.2 3.6 0 0 32.41 3.6 0 0 32.4 -3.6 0 0 25.2 -3.6 0 0 18 -3.6 0 0 10.8 -3.6 0 0 10.8 -3.6 0 0 7.19 -3.6 0 0 10.8 -3.6 0 0 7.21 -3.6 0 0 7.2 -3.6 0 0 7.19 -3.6 0 0 10.8 -3.6 0 0 3.61 -3.6 0 0 3.6 -3.6 0 0 7.2 -3.6 0 0 7.19 -3.6 0 0 7.2 -3.6 0 0 3.6 -3.6 0 0 3.61 -3.6 0 0 7.19 -3.6 0 0 3.61 -3.6 0 0 3.59 -3.6 0 0 3.6 -3.6 0 0 3.61 -3.6 0 0 3.59 -3.6 0 0 3.6 -3.6 0 0 3.61 -3.6 0 0 3.59 -3.6 0 0 3.6 -3.6 0 0 3.61 -7.2 0 0 3.59 -3.6 0 0 3.6 -7.2 0 0 3.61 -7.2 0 0 3.59 -14.4 0 0 3.6 -39.6 0 0 -3.6 -25.21 0 0 -3.59 -14.39 0 0 -3.61 -14.4 0 0 -3.6 -75.6 0 0 3.6 -10.8 0 0 3.61 -7.2 0 0 3.59 -7.21 0 0 3.6 -7.2 0 0 3.61 -3.6 0 0 3.59 -7.2 0 0 3.6 -3.6 0 0 3.61 -7.2 0 0 3.59 -3.6 0 0 3.6 -7.2 0 0 3.61 -7.19 0 0 3.59 -3.61 0 0 3.61 -7.19 0 0 3.6 -7.21 0 0 3.59 -7.2 0 0 3.61 -7.19 0 0 3.6 -10.8 0 0 3.59 -14.41 0 0 3.61 -28.8 0 0 -3.61 -18 0 0 -3.59 -10.8 0 0 -3.6 -10.8 0 0 -3.61 -7.2 0 0 -3.59 -7.2 0 0 -3.6 -7.2 0 0 -3.61 -7.2 0 0 -3.59 -3.6 0 0 -3.61 -7.2 0 0 -3.6 -3.6 0 0 -3.59 -7.2 0 0 -3.61 -3.6 0 0 -3.6 -7.2 0 0 -3.59 -3.6 0 0 -3.61 -7.2 0 0 -3.6 -3.6 0 0 -3.59 -3.6 0 0 -3.61 -3.6 0 0 -3.6 -7.2 0 0 -3.59 -3.6 0 0 -3.61 -3.6 0 0 -3.6 -3.6 0 0 -7.2 -3.6 0 0 -3.6 -3.6 0 0 -3.59 -3.6 0 0 -3.61 -3.6 0 0 -3.6 -3.6 0 0 -3.59 -3.6 0 0 -7.21 -3.6 0 0 -3.59 -3.6 0 0 -3.61 -3.6 0 0 -7.19 -3.6 0 0 -3.61 -3.6 0 0 -7.19 -3.6 0 0 -7.2 -3.6 0 0 -3.6 -3.6 0 0 -10.8 -3.6 0 0 -7.2 -3.6 0 0 -7.21 -3.6 0 0 -7.19 -3.6 0 0 -10.8 -3.6 0 0 -10.8 -3.6 0 0 -21.6 -3.6 0 0 -93.6 3.6 0 0 -25.21 3.6 0 0 -10.8 3.6 0 0 -14.4 3.6 0 0 -14.39 3.6 0 0 -18.01 3.6 0 0 -10.8 3.6 0 0 -14.39 3.6 0 0 -10.8 3.6 0 0 -10.81 3.6 0 0 -14.4 3.6 0 0 -7.2 3.6 0 0 -10.8 3.6 0 7.98 -19.67 12.06 -14.01 12.36 -9.52 0 -3.6 7.2 0 0 -3.6 7.2 0 0 -3.6 7.2 0 0 -3.6 7.2 0 0 -3.6 7.2 0 0 -3.6 7.2 0 0 -3.6 7.2 0 0 -3.6 10.8 0 0 -3.6 7.2 0 0 -3.6 10.8 0 0 -3.6 10.8 0 0 -3.6 10.8 0 0 -3.6 10.8 0 0 -3.6 18 0 0 -3.6 18 0 0 -3.6 14.4 0 0 -3.6 14.4 0 0 -3.6 28.8 0 0 -3.6 32.4 0 0 -3.6 108 0 0 3.6 36.01 0 0 3.6 14.4 0 0 3.6 21.6 0 0 3.6 14.4 0 0 3.6 10.8 0 0 3.6 14.4 0 0 3.6 7.2 0 0 3.6 7.2 0 0 3.6 14.4 0 0 3.6 7.2 0 0 3.6 19.52 7.07z"/>
 </g>
</svg>
