<?xml version="1.0" encoding="UTF-8"?>
<!DOCTYPE svg PUBLIC "-//W3C//DTD SVG 1.1//EN" "http://www.w3.org/Graphics/SVG/1.1/DTD/svg11.dtd">
<!-- Creator: CorelDRAW (Versión de evaluación) -->
<svg xmlns="http://www.w3.org/2000/svg" xml:space="preserve" width="45.4652mm" height="173.699mm" version="1.1" style="shape-rendering:geometricPrecision; text-rendering:geometricPrecision; image-rendering:optimizeQuality; fill-rule:evenodd; clip-rule:evenodd"
viewBox="0 0 4546.52 17369.86"
 xmlns:xlink="http://www.w3.org/1999/xlink"
 xmlns:xodm="http://www.corel.com/coreldraw/odm/2003">
 <defs>
  <style type="text/css">
   <![CDATA[
    .str0 {stroke:#4B4B4D;stroke-width:169.33;stroke-miterlimit:22.9256}
    .fil0 {fill:#BDBFC1}
    .fil2 {fill:#0B0B0B}
    .fil1 {fill:#FAFAF7}
   ]]>
  </style>
 </defs>
 <g id="implant">
  <metadata id="CorelCorpID_0Corel-Layer"/>
  <path id="root" class="fil0 str0" d="M1795.2 3691.11c181.63,30.7 373.83,30.59 555.53,0l1142.51 0c0.72,190.38 -52.04,238.96 -73.53,698.93 -20.8,445.27 -36.82,2681.32 80.3,2980.85l113.41 189.82c6.96,15.95 18.91,33.77 24.05,50.25 137.81,440.74 -295.11,163.3 -172.2,873.4 99.62,575.6 294.35,-92.74 185.06,529.16 -71.5,406.91 -222.25,-52.83 -194.32,563.8 33.05,729.27 198.94,-68.22 203.08,546.39 3.95,585.32 -163.85,-111.21 -202.24,541.5 -13.4,227.75 19.52,222.07 64.76,318.5 117.4,250.22 57.22,-213.17 131.8,243.11 91.68,560.94 -92.47,-22 -188.25,528.01 -67.7,388.65 115.34,528.46 146.05,598.93 168.23,385.89 -19.97,274.48 -193.71,379.57 -46.13,1034.87 -521.64,1851.88 -1376,1645.52 -766.57,-185.13 -983.49,-1103.96 -983.49,-2244.35 -229.06,-236.56 -299.15,-166.38 -112.7,-514.67 8.7,-16.24 23.03,-28.65 31.83,-45.18 69.85,-131.32 19.48,62.36 74.25,-157.13 138.49,-554.94 -319.22,-516.28 -135.55,-911.22 116.45,-250.37 142.17,54.29 142.17,-695.09l-169.6 -167.43c-50.88,-101.61 -44.63,-186.59 4.7,-291.45 70.2,-149.17 255.65,-53.27 169.13,-620.2 -81.32,-532.87 -9.35,-67.52 -117.62,-270.15 -1.39,-2.64 -203.26,18.05 -29.43,-357.75l61.78 -100.76 23.38 0 29.4 -86.07c46.84,-134.94 28.26,-269.3 28.26,-429.47 -22.66,-70.24 -41.59,-108.02 -57.66,-125l0 -3.54 -121.03 -54.05 -5.27 -64.68c-44.41,-579.75 42.68,-0.5 199.59,-347.5 118.32,-261.69 83.83,-2360.31 70.75,-3202.05l650.81 0zm354.66 492.78c329.83,-0.18 821.05,84.31 1115.45,-62.4l41.05 -357.21 -2088.9 0.85c57.73,552.47 -53.71,419.29 932.4,418.76zm1090.29 249.25l-1958.61 0 7.57 2450.89 1952.58 0 -1.54 -2450.89zm40.92 2689.81c-814,-37.54 -1275.07,3.55 -2040.51,163.75l-0.4 731.96c723.66,-52.56 1355.92,-180.83 2044.51,-405.18l-3.6 -490.53zm10.43 968.87c-713.14,147.39 -1295.06,345.19 -2059.49,382.45l0 767.7c686.9,-47.97 1449.64,-175.63 2059.49,-411.25l0 -738.9zm2.82 1225.07c-708.35,128.71 -1265.87,334.09 -2031.73,381.06l-32.27 721.9c760.18,-47.76 1345.01,-199.97 2047,-403.57l17 -699.39zm0.35 1177.97c-722.01,127.77 -1281.19,335.27 -2062.66,384.4l4.69 699.51c722.33,-51.07 1361.35,-174.74 2038.13,-404.22l19.84 -679.69zm-3.17 1158.04c-717.8,147.21 -1291.2,341.09 -2059.49,383.73l0 577.77 2059.49 -242 0 -719.5zm-65.03 1197.06l-1928.08 -3.05c-5.75,1749.04 1949.22,1736.66 1928.08,3.05z"/>
  <polygon id="crown" class="fil1" points="2161.97,252.11 2101,252.11 2101,282.59 2040.07,282.59 2040.07,313.08 1979.13,313.08 1979.13,343.53 1948.64,343.53 1948.64,374.01 1887.71,374.01 1887.71,404.5 1857.22,404.5 1857.22,434.95 1796.29,434.95 1796.29,465.43 1765.8,465.43 1765.8,495.92 1704.87,495.92 1704.87,526.37 1674.38,526.37 1674.38,556.85 1613.45,556.85 1613.45,587.34 1582.96,587.34 1582.96,617.79 1552.48,617.79 1552.48,648.27 1491.54,648.27 1491.54,678.76 1461.06,678.76 1461.06,709.21 1400.12,709.21 1400.12,739.69 1369.64,739.69 1369.64,770.18 1308.7,770.18 1308.7,800.63 1278.22,800.63 1278.22,831.11 1217.28,831.11 1217.28,861.6 1156.35,861.6 1156.35,892.05 1095.38,892.05 1095.38,922.54 1064.93,922.54 1064.93,953.02 1003.95,953.02 1003.95,983.47 912.53,983.47 912.53,1013.96 882.08,1013.96 882.08,1044.44 821.11,1044.44 821.11,1074.89 760.18,1074.89 760.18,1105.38 729.69,1105.38 729.69,1135.86 668.76,1135.86 668.76,1166.31 638.27,1166.31 638.27,1196.8 607.82,1196.8 607.82,1227.28 577.34,1227.28 577.34,1257.73 546.85,1257.73 546.85,1288.22 516.4,1288.22 516.4,1318.67 485.92,1318.67 485.92,1349.15 455.43,1349.15 455.43,1379.64 424.98,1379.64 424.98,1410.09 394.5,1410.09 394.5,1471.06 364.01,1471.06 364.01,1531.99 333.56,1531.99 333.56,1562.48 303.08,1562.48 303.08,1623.41 272.59,1623.41 272.59,1714.83 242.14,1714.83 242.14,1806.25 211.66,1806.25 211.66,2019.58 181.17,2019.58 181.17,2385.26 211.66,2385.26 211.66,2689.97 242.14,2689.97 242.14,2811.88 272.59,2811.88 272.59,2964.24 303.08,2964.24 303.08,3086.14 333.56,3086.14 333.56,3177.56 364.01,3177.56 364.01,3299.47 394.5,3299.47 394.5,3421.34 424.98,3421.34 424.98,3482.31 455.43,3482.31 455.43,3604.18 485.92,3604.18 485.92,3695.6 516.4,3695.6 516.4,3817.5 546.85,3817.5 546.85,3969.86 577.34,3969.86 577.34,4030.83 607.82,4030.83 607.82,4122.25 638.27,4122.25 638.27,4244.12 668.76,4244.12 668.76,4366.03 699.24,4366.03 699.24,4457.45 729.69,4457.45 729.69,4518.38 760.18,4518.38 760.18,4609.8 790.66,4609.8 790.66,4670.77 821.11,4670.77 821.11,4731.71 851.6,4731.71 851.6,4792.64 882.08,4792.64 882.08,4853.62 912.53,4853.62 912.53,4884.06 943.02,4884.06 943.02,4945.04 973.51,4945.04 973.51,4975.49 1003.95,4975.49 1003.95,5036.46 1034.44,5036.46 1034.44,5066.91 1064.93,5066.91 1064.93,5127.88 1095.38,5127.88 1095.38,5158.33 1125.86,5158.33 1125.86,5188.81 1156.35,5188.81 1156.35,5249.75 1186.8,5249.75 1186.8,5280.23 1217.28,5280.23 1217.28,5310.72 1247.77,5310.72 1247.77,5341.17 1278.22,5341.17 1278.22,5371.65 1339.19,5371.65 1339.19,5402.14 1369.64,5402.14 1369.64,5432.59 1400.12,5432.59 1400.12,5463.07 1430.61,5463.07 1430.61,5493.56 1491.54,5493.56 1491.54,5524.01 1552.48,5524.01 1552.48,5554.49 1582.96,5554.49 1582.96,5584.98 1643.9,5584.98 1643.9,5615.43 1704.87,5615.43 1704.87,5645.91 1826.74,5645.91 1826.74,5676.4 1887.71,5676.4 1887.71,5706.85 2070.55,5706.85 2070.55,5737.33 2466.68,5737.33 2466.68,5706.85 2588.59,5706.85 2588.59,5676.4 2680.01,5676.4 2680.01,5645.91 2740.94,5645.91 2740.94,5615.43 2801.91,5615.43 2801.91,5584.98 2862.85,5584.98 2862.85,5554.49 2923.78,5554.49 2923.78,5524.01 2984.76,5524.01 2984.76,5493.56 3015.21,5493.56 3015.21,5463.07 3076.18,5463.07 3076.18,5432.59 3106.63,5432.59 3106.63,5402.14 3137.11,5402.14 3137.11,5371.65 3167.6,5371.65 3167.6,5341.17 3198.05,5341.17 3198.05,5310.72 3228.53,5310.72 3228.53,5280.23 3259.02,5280.23 3259.02,5249.75 3289.47,5249.75 3289.47,5219.3 3319.95,5219.3 3319.95,5188.81 3350.44,5188.81 3350.44,5158.33 3380.89,5158.33 3380.89,5127.88 3411.37,5127.88 3411.37,5066.91 3441.86,5066.91 3441.86,5036.46 3472.31,5036.46 3472.31,5005.97 3502.79,5005.97 3502.79,4945.04 3533.28,4945.04 3533.28,4914.55 3563.73,4914.55 3563.73,4853.62 3594.21,4853.62 3594.21,4792.64 3624.7,4792.64 3624.7,4762.19 3655.15,4762.19 3655.15,4670.77 3685.63,4670.77 3685.63,4609.8 3716.12,4609.8 3716.12,4518.38 3746.57,4518.38 3746.57,4457.45 3777.05,4457.45 3777.05,4366.03 3807.54,4366.03 3807.54,4305.09 3837.99,4305.09 3837.99,4183.19 3868.47,4183.19 3868.47,4091.77 3898.96,4091.77 3898.96,4000.35 3929.41,4000.35 3929.41,3939.41 3959.9,3939.41 3959.9,3817.5 3990.38,3817.5 3990.38,3726.08 4020.83,3726.08 4020.83,3634.66 4051.32,3634.66 4051.32,3573.73 4081.8,3573.73 4081.8,3421.34 4112.25,3421.34 4112.25,3329.92 4142.74,3329.92 4142.74,3268.98 4173.22,3268.98 4173.22,3147.08 4203.67,3147.08 4203.67,3025.21 4234.16,3025.21 4234.16,2933.79 4264.64,2933.79 4264.64,2842.37 4295.09,2842.37 4295.09,2689.97 4325.58,2689.97 4325.58,2415.71 4356.06,2415.71 4356.06,1897.68 4325.58,1897.68 4325.58,1775.77 4295.09,1775.77 4295.09,1684.35 4264.64,1684.35 4264.64,1562.48 4234.16,1562.48 4234.16,1531.99 4203.67,1531.99 4203.67,1471.06 4173.22,1471.06 4173.22,1410.09 4142.74,1410.09 4142.74,1379.64 4112.25,1379.64 4112.25,1349.15 4081.8,1349.15 4081.8,1288.22 4020.83,1288.22 4020.83,1227.28 3959.9,1227.28 3959.9,1196.8 3929.41,1196.8 3929.41,1166.31 3898.96,1166.31 3898.96,1135.86 3868.47,1135.86 3868.47,1105.38 3807.54,1105.38 3807.54,1074.89 3777.05,1074.89 3777.05,1044.44 3716.12,1044.44 3716.12,1013.96 3685.63,1013.96 3685.63,983.47 3624.7,983.47 3624.7,953.02 3594.21,953.02 3594.21,922.54 3533.28,922.54 3533.28,892.05 3502.79,892.05 3502.79,861.6 3441.86,861.6 3441.86,831.11 3380.89,831.11 3380.89,800.63 3350.44,800.63 3350.44,770.18 3319.95,770.18 3319.95,739.69 3259.02,739.69 3259.02,709.21 3228.53,709.21 3228.53,678.76 3198.05,678.76 3198.05,648.27 3137.11,648.27 3137.11,617.79 3106.63,617.79 3106.63,587.34 3076.18,587.34 3076.18,556.85 3015.21,556.85 3015.21,526.37 2984.76,526.37 2984.76,495.92 2954.27,495.92 2954.27,465.43 2893.34,465.43 2893.34,434.95 2862.85,434.95 2862.85,404.5 2801.91,404.5 2801.91,374.01 2771.43,374.01 2771.43,343.53 2710.49,343.53 2710.49,313.08 2680.01,313.08 2680.01,282.59 2619.07,282.59 2619.07,252.11 2558.1,252.11 2558.1,221.66 2161.97,221.66 "/>
  <path id="outline" class="fil2" d="M801.75 5036.46l19.36 0 0.87 30.45 29.62 0 0 33.81c7.66,8.24 14.18,17.46 19.12,27.16l11.36 0 0 60.93 30.45 0 0 30.49 30.49 0 0 30.45 30.49 0 0 30.48 30.44 0 0 30.49 30.49 0 0 30.45 30.49 0 0 30.48 30.45 0 0 30.49 30.48 0 0 30.45 30.49 0 0 30.48 30.45 0 0 30.49 30.48 0 0 30.45 30.49 0 0 30.48 60.93 0 0 30.49 30.49 0 0 30.45 30.45 0 0 30.48 60.97 0 0 30.49 60.93 0 0 30.45 30.49 0 0 30.48 60.93 0 0 30.49 60.94 0 0 30.45 121.9 0 0 30.48 91.42 0 0 30.49 152.36 0 0 30.45 426.65 0 0 -30.45 152.36 0 0 -30.49 121.9 0 0 -30.48 91.42 0 0 -30.45 60.94 0 0 -30.49 60.93 0 0 -30.48 60.98 0 0 -30.45 60.93 0 0 -30.49 30.49 0 0 -30.48 60.93 0 0 -30.45 30.49 0 0 -30.49 30.45 0 0 -30.48 30.48 0 0 -30.45 60.94 0 0 -30.49 30.48 0 0 -30.48 30.49 0 0 -30.45 30.45 0 0 -30.49 30.48 0 0 -30.48 30.49 0 0 -60.94 30.45 0 0 -30.48 30.48 0 0 -30.45 30.49 0 0 -30.49 30.45 0 0 -30.48 16.29 0c3.78,-9.08 8.79,-17.61 14.19,-25.3l0 -35.64 30.49 0 0 1.63c3.68,-3.29 5.99,-5.11 6,-5.12 8.64,-15.56 18.41,-65.36 85.18,-65.36l13.95 -9.08c10.07,-20.49 17.4,-41.73 31.46,-56.14 4.19,-4.3 7.89,-8.16 11.17,-11.66 -0.26,-74.49 -0.93,-62 37.38,-108.37l28.15 -15.73 0 -65.37 30.48 0 0 -60.97 30.49 0 0 -60.93 30.45 0 0 -91.42 30.49 0 0 -91.42 30.48 0 0 -91.42 30.45 0 0 -60.94 30.49 0 0 -91.42 30.48 0 0 -91.42 30.45 0 0 -121.9 30.49 0 0 -91.42 30.48 0 0 -121.91 30.45 0 0 -91.42 30.49 0 0 -91.42 30.48 0 0 -91.42 30.45 0 0 -91.42 30.49 0 0 -121.87 30.48 0 0 -60.97 30.45 0 0 -121.87 30.49 0 0 -91.42 30.48 0 0 -152.4 30.45 0 0 -91.42 30.49 0 0 -213.29 30.48 0 0 -731.36 -30.48 0 0 -121.91 -30.49 0 0 -121.9 -30.45 0 0 -60.94 -30.48 0 0 -60.93 -30.49 0 0 -60.97 -30.45 0 0 -60.94 -30.48 0 0 -30.48 -30.49 0 0 -60.94 -30.45 0 0 -30.45 -30.48 0 0 -30.48 -30.49 0 0 -30.49 -30.45 0 0 -30.45 -30.48 0 0 -30.48 -30.49 0 0 -30.49 -30.45 0 0 -30.45 -30.48 0 0 -30.48 -30.49 0 0 -30.49 -30.45 0 0 -30.45 -60.97 0 0 -30.48 -30.45 0 0 -30.49 -60.97 0 0 -30.45 -30.45 0 0 -30.49 -60.97 0 0 -30.48 -60.94 0 0 -30.45 -30.48 0 0 -30.49 -60.94 0 0 -30.48 -30.48 0 0 -30.45 -60.94 0 0 -30.49 -30.48 0 0 -30.48 -60.94 0 0 -30.45 -30.48 0 0 -30.49 -60.94 0 0 -30.48 -30.48 0 0 -30.45 -30.45 0 0 -30.49 -30.49 0 0 -30.48 -60.93 0 0 -30.45 -30.49 0 0 -30.49 -30.48 0 0 -30.48 -60.94 0 0 -30.45 -30.48 0 0 -30.49 -30.45 0 0 -30.48 -60.98 0 0 -30.45 -30.44 0 0 -30.49 -60.98 0 0 -30.48 -30.45 0 0 -30.45 -60.97 0 0 -30.49 -60.93 0 0 -30.48 -60.94 0 0 -30.45 -121.9 0 0 -30.49 -274.26 0 0 30.49 -152.36 0 0 30.45 -60.97 0 0 30.48 -60.94 0 0 30.49 -30.48 0 0 30.45 -60.94 0 0 30.48 -60.93 0 0 30.49 -30.49 0 0 30.45 -60.93 0 0 30.48 -30.49 0 0 30.49 -30.48 0 0 30.45 -60.94 0 0 30.48 -30.48 0 0 30.49 -60.94 0 0 30.45 -30.48 0 0 30.48 -30.45 0 0 30.49 -60.97 0 0 30.45 -30.45 0 0 30.48 -60.97 0 0 30.49 -30.45 0 0 30.45 -60.97 0 0 30.48 -30.45 0 0 30.49 -60.97 0 0 30.45 -60.94 0 0 30.48 -60.93 0 0 30.49 -60.98 0 0 30.45 -60.93 0 0 30.48 -60.94 0 0 30.49 -30.48 0 0 30.45 -60.94 0 0 30.49 -60.97 0 0 30.48 -30.45 0 0 30.45 -60.97 0 0 30.49 -30.45 0 0 30.48 -30.48 0 0 30.45 -30.49 0 0 30.49 -30.45 0 0 30.48 -60.97 0 0 30.45 -30.45 0 0 60.97 -30.48 0 0 30.45 -30.49 0 0 30.49 -30.45 0 0 60.93 -30.48 0 0 30.49 -30.49 0 0 60.93 -30.45 0 0 60.94 -30.48 0 0 91.42 -30.49 0 0 60.97 -30.45 0 0 121.87 -30.48 0 0 213.33 -30.49 0 0 457.1 30.49 0 0 304.74 30.48 0 0 121.87 30.45 0 0 152.4 30.49 0 0 91.42 30.48 0 0 152.35 30.45 0 0 91.42 30.49 0 0 152.36 30.48 0 0 60.97 30.45 0 0 121.87 30.49 0 0 152.39 30.48 0 0 60.94 30.45 0 0 152.35 30.49 0 0 60.97 30.48 0 0 152.36 30.45 0 0 60.93 30.49 0 0 121.91 30.48 0 0 60.93 30.45 0 0 121.91 30.49 0 0 204.72c4.81,14.66 17.11,9.5 37.42,41.09l23.98 8.62c30.14,16.39 47.52,20.45 63.5,41.8l54.01 54.01c13.05,17.43 30.95,30.48 45.5,45.93zm-620.58 -3016.88l30.49 0 0 -213.33 30.48 0 0 -91.42 30.45 0 0 -91.42 30.49 0 0 -60.93 30.48 0 0 -30.49 30.45 0 0 -60.93 30.49 0 0 -60.97 30.48 0 0 -30.45 30.45 0 0 -30.49 30.49 0 0 -30.48 30.48 0 0 -30.45 30.45 0 0 -30.49 30.49 0 0 -30.45 30.48 0 0 -30.48 30.45 0 0 -30.49 30.49 0 0 -30.45 60.93 0 0 -30.48 30.49 0 0 -30.49 60.93 0 0 -30.45 60.97 0 0 -30.48 30.45 0 0 -30.49 91.42 0 0 -30.45 60.98 0 0 -30.48 30.45 0 0 -30.49 60.97 0 0 -30.45 60.93 0 0 -30.49 60.94 0 0 -30.48 30.48 0 0 -30.45 60.94 0 0 -30.49 30.48 0 0 -30.48 60.94 0 0 -30.45 30.48 0 0 -30.49 60.94 0 0 -30.48 30.48 0 0 -30.45 30.49 0 0 -30.49 60.93 0 0 -30.48 30.49 0 0 -30.45 60.93 0 0 -30.49 30.49 0 0 -30.48 60.93 0 0 -30.45 30.49 0 0 -30.49 60.93 0 0 -30.48 30.49 0 0 -30.45 60.94 0 0 -30.49 60.93 0 0 -30.48 60.97 0 0 -30.45 396.13 0 0 30.45 60.97 0 0 30.48 60.94 0 0 30.49 30.48 0 0 30.45 60.94 0 0 30.48 30.48 0 0 30.49 60.94 0 0 30.45 30.49 0 0 30.48 60.93 0 0 30.49 30.49 0 0 30.45 30.45 0 0 30.48 60.97 0 0 30.49 30.45 0 0 30.45 30.48 0 0 30.48 60.94 0 0 30.49 30.48 0 0 30.45 30.49 0 0 30.48 60.93 0 0 30.49 30.49 0 0 30.45 30.45 0 0 30.48 60.97 0 0 30.49 60.93 0 0 30.45 30.49 0 0 30.49 60.93 0 0 30.48 30.49 0 0 30.45 60.93 0 0 30.49 30.49 0 0 30.48 60.93 0 0 30.45 30.49 0 0 30.49 60.93 0 0 30.48 30.49 0 0 30.45 30.45 0 0 30.49 30.49 0 0 30.48 60.93 0 0 60.94 60.97 0 0 60.93 30.45 0 0 30.49 30.49 0 0 30.45 30.48 0 0 60.97 30.45 0 0 60.93 30.49 0 0 30.49 30.48 0 0 121.87 30.45 0 0 91.42 30.49 0 0 121.91 30.48 0 0 518.03 -30.48 0 0 274.26 -30.49 0 0 152.4 -30.45 0 0 91.42 -30.48 0 0 91.42 -30.49 0 0 121.87 -30.45 0 0 121.9 -30.48 0 0 60.94 -30.49 0 0 91.42 -30.45 0 0 152.39 -30.48 0 0 60.93 -30.49 0 0 91.42 -30.45 0 0 91.42 -30.48 0 0 121.91 -30.49 0 0 60.94 -30.45 0 0 91.42 -30.49 0 0 91.42 -30.48 0 0 121.9 -30.45 0 0 60.94 -30.49 0 0 91.42 -30.48 0 0 60.93 -30.45 0 0 91.42 -30.49 0 0 60.97 -30.48 0 0 91.42 -30.45 0 0 30.45 -30.49 0 0 60.98 -30.48 0 0 60.93 -30.45 0 0 30.49 -30.49 0 0 60.93 -30.48 0 0 30.49 -30.45 0 0 30.45 -30.49 0 0 60.97 -30.48 0 0 30.45 -30.45 0 0 30.48 -30.49 0 0 30.49 -30.48 0 0 30.45 -30.45 0 0 30.48 -30.49 0 0 30.49 -30.48 0 0 30.45 -30.45 0 0 30.48 -30.49 0 0 30.49 -30.48 0 0 30.45 -30.45 0 0 30.48 -60.97 0 0 30.49 -30.45 0 0 30.45 -60.98 0 0 30.48 -60.93 0 0 30.49 -60.94 0 0 30.45 -60.97 0 0 30.48 -60.93 0 0 30.49 -91.42 0 0 30.45 -121.91 0 0 30.48 -396.13 0 0 -30.48 -182.84 0 0 -30.45 -60.97 0 0 -30.49 -121.87 0 0 -30.48 -60.97 0 0 -30.45 -60.94 0 0 -30.49 -30.48 0 0 -30.48 -60.94 0 0 -30.45 -60.93 0 0 -30.49 -30.49 0 0 -30.48 -30.48 0 0 -30.45 -30.45 0 0 -30.49 -60.97 0 0 -30.48 -30.45 0 0 -30.45 -30.49 0 0 -30.49 -30.48 0 0 -30.48 -30.45 0 0 -60.94 -30.49 0 0 -30.48 -30.48 0 0 -30.45 -30.45 0 0 -60.97 -30.49 0 0 -30.45 -30.49 0 0 -60.97 -30.44 0 0 -30.45 -30.49 0 0 -60.98 -30.49 0 0 -30.44 -30.45 0 0 -60.98 -30.48 0 0 -60.93 -30.49 0 0 -60.94 -30.45 0 0 -60.97 -30.48 0 0 -91.42 -30.49 0 0 -60.93 -30.45 0 0 -91.42 -30.48 0 0 -121.91 -30.49 0 0 -121.87 -30.45 0 0 -91.42 -30.48 0 0 -60.97 -30.49 0 0 -152.36 -30.45 0 0 -121.9 -30.48 0 0 -91.42 -30.49 0 0 -121.87 -30.45 0 0 -60.97 -30.48 0 0 -121.87 -30.49 0 0 -121.91 -30.45 0 0 -91.42 -30.48 0 0 -121.9 -30.49 0 0 -152.36 -30.45 0 0 -121.91 -30.48 0 0 -304.71 -30.49 0 0 -365.68z"/>
 </g>
</svg>
