<?xml version="1.0" encoding="UTF-8"?>
<!DOCTYPE svg PUBLIC "-//W3C//DTD SVG 1.1//EN" "http://www.w3.org/Graphics/SVG/1.1/DTD/svg11.dtd">
<!-- Creator: CorelDRAW (Versión de evaluación) -->
<svg xmlns="http://www.w3.org/2000/svg" xml:space="preserve" width="497px" height="2062px" version="1.1" style="shape-rendering:geometricPrecision; text-rendering:geometricPrecision; image-rendering:optimizeQuality; fill-rule:evenodd; clip-rule:evenodd"
viewBox="0 0 497 2063.64"
 xmlns:xlink="http://www.w3.org/1999/xlink"
 xmlns:xodm="http://www.corel.com/coreldraw/odm/2003">
 <defs>
  <style type="text/css">
   <![CDATA[
    .str0 {stroke:#4B4B4D;stroke-width:20.01;stroke-miterlimit:22.9256}
    .fil0 {fill:#BDBFC1}
    .fil2 {fill:#4B4B4D}
    .fil1 {fill:#FAFAF7}
   ]]>
  </style>
 </defs>
 <g id="implant">
  <metadata id="CorelCorpID_0Corel-Layer"/>
  <path id="root" class="fil0 str0" d="M192.45 1503.17c21.47,-3.63 44.18,-3.62 65.66,0l135.02 0c0.09,-22.5 -6.15,-28.24 -8.69,-82.6 -2.46,-52.63 -4.35,-316.89 9.49,-352.29l13.41 -22.44c0.82,-1.88 2.23,-3.99 2.84,-5.93 16.29,-52.09 -34.88,-19.3 -20.35,-103.23 11.77,-68.02 34.78,10.96 21.87,-62.54 -8.45,-48.09 -26.27,6.25 -22.97,-66.63 3.91,-86.19 23.51,8.06 24,-64.57 0.47,-69.18 -19.36,13.14 -23.9,-64 -1.58,-26.92 2.31,-26.24 7.66,-37.64 13.87,-29.57 6.76,25.19 15.57,-28.73 10.84,-66.3 -10.93,2.6 -22.25,-62.4 -8,-45.94 13.64,-62.46 17.26,-70.79 19.89,-45.6 -2.36,-32.44 -22.89,-44.86 -5.45,-122.3 -61.65,-218.86 -162.62,-194.47 -90.6,21.88 -116.23,130.47 -116.23,265.24 -27.07,27.96 -35.36,19.67 -13.32,60.83 1.03,1.92 2.72,3.39 3.76,5.34 8.25,15.52 2.3,-7.37 8.77,18.57 16.37,65.59 -37.72,61.02 -16.02,107.69 13.77,29.59 16.81,-6.41 16.81,82.15l-20.05 19.79c-6.01,12.01 -5.27,22.05 0.56,34.44 8.29,17.63 30.21,6.3 19.99,73.3 -9.61,62.98 -1.11,7.98 -13.9,31.93 -0.17,0.31 -24.03,-2.14 -3.48,42.28l7.3 11.91 2.76 0 3.48 10.17c5.53,15.95 3.34,31.83 3.34,50.76 -2.68,8.3 -4.92,12.76 -6.82,14.77l0 0.42 -14.3 6.38 -0.62 7.65c-5.25,68.52 5.04,0.06 23.58,41.07 13.99,30.93 9.91,278.95 8.37,378.43l76.91 0zm41.92 -58.24c38.98,0.02 97.03,-9.96 131.82,7.38l4.86 42.21 -246.88 -0.1c6.82,-65.29 -6.35,-49.55 110.2,-49.49zm128.85 -29.46l-231.48 0 0.9 -289.65 230.76 0 -0.18 289.65zm4.84 -317.89c-96.2,4.44 -150.7,-0.42 -241.16,-19.35l-0.05 -86.51c85.53,6.21 160.25,21.37 241.63,47.89l-0.42 57.97zm1.23 -114.5c-84.28,-17.42 -153.06,-40.8 -243.4,-45.2l0 -90.73c81.18,5.66 171.33,20.75 243.4,48.6l0 87.33zm0.33 -144.79c-83.71,-15.21 -149.6,-39.48 -240.11,-45.03l-3.82 -85.32c89.84,5.64 158.96,23.63 241.92,47.69l2.01 82.66zm0.04 -139.22c-85.33,-15.1 -151.41,-39.62 -243.77,-45.43l0.56 -82.67c85.36,6.04 160.89,20.65 240.87,47.78l2.34 80.32zm-0.37 -136.86c-84.83,-17.4 -152.6,-40.31 -243.4,-45.35l0 -68.28 243.4 28.6 0 85.03zm-7.69 -141.47l-227.86 0.36c-0.68,-206.71 230.36,-205.25 227.86,-0.36z"/>
  <polygon id="crown" class="fil1" points="287.46,1350.96 298.27,1350.96 298.27,1354.57 305.47,1354.57 305.47,1358.17 312.67,1358.17 312.67,1361.77 319.88,1361.77 319.88,1365.37 323.47,1365.37 323.47,1368.97 330.68,1368.97 330.68,1372.57 334.28,1372.57 334.28,1376.17 337.88,1376.17 337.88,1379.78 341.48,1379.78 341.48,1383.38 345.08,1383.38 345.08,1390.58 352.29,1390.58 352.29,1397.78 355.89,1397.78 355.89,1401.39 359.49,1401.39 359.49,1408.59 363.09,1408.59 363.09,1415.79 366.69,1415.79 366.69,1419.39 370.3,1419.39 370.3,1426.59 373.9,1426.59 373.9,1433.8 377.5,1433.8 377.5,1441 381.1,1441 381.1,1448.2 384.7,1448.2 384.7,1455.41 388.3,1455.41 388.3,1462.61 391.9,1462.61 391.9,1469.81 395.51,1469.81 395.51,1477.02 399.11,1477.02 399.11,1484.22 402.71,1484.22 402.71,1495.02 406.31,1495.02 406.31,1505.83 409.91,1505.83 409.91,1513.03 413.51,1513.03 413.51,1527.44 417.12,1527.44 417.12,1541.84 420.72,1541.84 420.72,1552.65 424.32,1552.65 424.32,1563.45 427.92,1563.45 427.92,1574.26 431.52,1574.26 431.52,1588.66 435.12,1588.66 435.12,1603.07 438.73,1603.07 438.73,1613.87 442.32,1613.87 442.32,1621.07 445.93,1621.07 445.93,1639.08 449.53,1639.08 449.53,1649.89 453.13,1649.89 453.13,1664.29 456.73,1664.29 456.73,1678.7 460.33,1678.7 460.33,1693.11 463.93,1693.11 463.93,1711.11 467.54,1711.11 467.54,1729.12 471.14,1729.12 471.14,1743.53 474.74,1743.53 474.74,1819.16 471.14,1819.16 471.14,1837.16 467.54,1837.16 467.54,1847.97 463.93,1847.97 463.93,1858.77 460.33,1858.77 460.33,1865.98 456.73,1865.98 456.73,1873.18 453.13,1873.18 453.13,1876.78 449.53,1876.78 449.53,1883.98 445.93,1883.98 445.93,1887.58 442.32,1887.58 442.32,1891.19 438.73,1891.19 438.73,1894.79 431.52,1894.79 431.52,1898.39 427.92,1898.39 427.92,1901.99 424.32,1901.99 424.32,1905.59 420.72,1905.59 420.72,1909.19 413.51,1909.19 413.51,1912.79 409.91,1912.79 409.91,1916.4 402.71,1916.4 402.71,1920 399.11,1920 399.11,1923.6 391.9,1923.6 391.9,1927.2 384.7,1927.2 384.7,1930.8 377.5,1930.8 377.5,1934.4 370.3,1934.4 370.3,1938.01 366.69,1938.01 366.69,1941.61 359.49,1941.61 359.49,1945.21 355.89,1945.21 355.89,1948.81 348.69,1948.81 348.69,1952.41 341.48,1952.41 341.48,1956.01 337.88,1956.01 337.88,1959.62 334.28,1959.62 334.28,1963.21 327.08,1963.21 327.08,1966.82 319.88,1966.82 319.88,1970.42 316.27,1970.42 316.27,1974.02 312.67,1974.02 312.67,1977.62 305.47,1977.62 305.47,1981.22 301.87,1981.22 301.87,1984.82 294.67,1984.82 294.67,1988.43 291.06,1988.43 291.06,1992.03 280.26,1992.03 280.26,1995.63 273.06,1995.63 273.06,1999.23 258.65,1999.23 258.65,2002.83 233.44,2002.83 233.44,1999.23 219.03,1999.23 219.03,1995.63 211.83,1995.63 211.83,1992.03 204.63,1992.03 204.63,1988.43 201.03,1988.43 201.03,1984.82 197.42,1984.82 197.42,1981.22 193.82,1981.22 193.82,1977.62 186.62,1977.62 186.62,1974.02 183.02,1974.02 183.02,1970.42 179.42,1970.42 179.42,1966.82 175.82,1966.82 175.82,1963.21 168.61,1963.21 168.61,1959.62 165.01,1959.62 165.01,1956.01 161.41,1956.01 161.41,1952.41 154.21,1952.41 154.21,1948.81 150.6,1948.81 150.6,1945.21 143.4,1945.21 143.4,1941.61 139.8,1941.61 139.8,1938.01 132.6,1938.01 132.6,1934.4 128.99,1934.4 128.99,1930.8 121.79,1930.8 121.79,1927.2 118.19,1927.2 118.19,1923.6 110.99,1923.6 110.99,1920 107.39,1920 107.39,1916.4 103.79,1916.4 103.79,1912.79 96.58,1912.79 96.58,1909.19 92.98,1909.19 92.98,1905.59 85.78,1905.59 85.78,1901.99 82.18,1901.99 82.18,1898.39 74.97,1898.39 74.97,1894.79 71.37,1894.79 71.37,1891.19 67.77,1891.19 67.77,1887.58 64.17,1887.58 64.17,1883.98 60.57,1883.98 60.57,1880.38 56.97,1880.38 56.97,1876.78 53.36,1876.78 53.36,1873.18 49.77,1873.18 49.77,1869.58 46.16,1869.58 46.16,1865.98 42.56,1865.98 42.56,1858.77 38.96,1858.77 38.96,1855.17 35.36,1855.17 35.36,1847.97 31.75,1847.97 31.75,1840.77 28.16,1840.77 28.16,1829.96 24.55,1829.96 24.55,1811.96 20.95,1811.96 20.95,1747.13 24.55,1747.13 24.55,1725.52 28.16,1725.52 28.16,1711.11 31.75,1711.11 31.75,1693.11 35.36,1693.11 35.36,1682.3 38.96,1682.3 38.96,1667.89 42.56,1667.89 42.56,1660.69 46.16,1660.69 46.16,1649.89 49.77,1649.89 49.77,1639.08 53.36,1639.08 53.36,1628.28 56.97,1628.28 56.97,1621.07 60.57,1621.07 60.57,1610.27 64.17,1610.27 64.17,1603.07 67.77,1603.07 67.77,1592.26 71.37,1592.26 71.37,1581.46 74.97,1581.46 74.97,1570.65 78.58,1570.65 78.58,1563.45 82.18,1563.45 82.18,1552.65 85.78,1552.65 85.78,1538.24 89.38,1538.24 89.38,1531.04 92.98,1531.04 92.98,1520.24 96.58,1520.24 96.58,1505.83 100.18,1505.83 100.18,1498.63 103.79,1498.63 103.79,1487.82 107.39,1487.82 107.39,1480.62 110.99,1480.62 110.99,1469.81 114.59,1469.81 114.59,1462.61 118.19,1462.61 118.19,1455.41 121.79,1455.41 121.79,1451.81 125.4,1451.81 125.4,1444.6 128.99,1444.6 128.99,1437.4 132.6,1437.4 132.6,1433.8 136.2,1433.8 136.2,1426.59 139.8,1426.59 139.8,1419.39 143.4,1419.39 143.4,1415.79 147.01,1415.79 147.01,1408.59 150.6,1408.59 150.6,1404.99 154.21,1404.99 154.21,1401.39 157.81,1401.39 157.81,1394.18 161.41,1394.18 161.41,1390.58 165.01,1390.58 165.01,1386.98 168.61,1386.98 168.61,1383.38 172.21,1383.38 172.21,1379.78 179.42,1379.78 179.42,1376.17 183.02,1376.17 183.02,1372.57 186.62,1372.57 186.62,1368.97 190.22,1368.97 190.22,1365.37 197.42,1365.37 197.42,1361.77 204.63,1361.77 204.63,1358.17 211.83,1358.17 211.83,1354.57 219.03,1354.57 219.03,1350.96 233.44,1350.96 233.44,1347.36 287.46,1347.36 "/>
  <path id="outline" class="fil2" d="M24.55 1829.96l3.61 0 0 10.81 3.59 0 0 7.2 3.61 0 0 7.2 3.6 0 0 3.6 3.6 0 0 7.21 3.6 0 0 3.6 3.61 0 0 3.6 3.59 0 0 3.6 3.61 0 0 3.6 3.6 0 0 3.6 3.6 0 0 3.6 3.6 0 0 3.61 3.6 0 0 3.6 3.6 0 0 3.6 7.21 0 0 3.6 3.6 0 0 3.6 7.2 0 0 3.6 3.6 0 0 3.6 7.21 0 0 3.61 3.6 0 0 3.6 3.6 0 0 3.6 7.2 0 0 3.6 3.6 0 0 3.6 7.2 0 0 3.6 3.61 0 0 3.61 7.2 0 0 3.6 3.6 0 0 3.6 7.2 0 0 3.6 3.61 0 0 3.6 7.2 0 0 3.6 3.6 0 0 3.61 3.6 0 0 3.59 7.21 0 0 3.61 3.6 0 0 3.6 3.6 0 0 3.6 3.6 0 0 3.6 7.2 0 0 3.6 3.6 0 0 3.6 3.61 0 0 3.61 3.6 0 0 3.6 7.2 0 0 3.6 7.2 0 0 3.6 14.41 0 0 3.6 25.21 0 0 -3.6 14.41 0 0 -3.6 7.2 0 0 -3.6 10.8 0 0 -3.6 3.61 0 0 -3.61 7.2 0 0 -3.6 3.6 0 0 -3.6 7.2 0 0 -3.6 3.6 0 0 -3.6 3.61 0 0 -3.6 7.2 0 0 -3.61 7.2 0 0 -3.59 3.6 0 0 -3.61 3.6 0 0 -3.6 7.21 0 0 -3.6 7.2 0 0 -3.6 3.6 0 0 -3.6 7.2 0 0 -3.6 3.61 0 0 -3.61 7.2 0 0 -3.6 7.2 0 0 -3.6 7.2 0 0 -3.6 7.21 0 0 -3.6 3.6 0 0 -3.6 7.2 0 0 -3.61 3.6 0 0 -3.6 7.21 0 0 -3.6 3.6 0 0 -3.6 3.6 0 0 -3.6 3.6 0 0 -3.6 7.21 0 0 -3.6 3.59 0 0 -3.61 3.61 0 0 -3.6 3.6 0 0 -7.2 3.6 0 0 -3.6 3.6 0 0 -7.2 3.6 0 0 -7.21 3.6 0 0 -10.8 3.61 0 0 -10.81 3.6 0 0 -18 3.6 0 0 -75.63 -3.6 0 0 -14.41 -3.6 0 0 -18.01 -3.61 0 0 -18 -3.6 0 0 -14.41 -3.6 0 0 -14.41 -3.6 0 0 -14.4 -3.6 0 0 -10.81 -3.6 0 0 -18.01 -3.61 0 0 -7.2 -3.59 0 0 -10.8 -3.61 0 0 -14.41 -3.6 0 0 -14.4 -3.6 0 0 -10.81 -3.6 0 0 -10.8 -3.6 0 0 -10.81 -3.6 0 0 -14.4 -3.61 0 0 -14.41 -3.6 0 0 -7.2 -3.6 0 0 -10.81 -3.6 0 0 -10.8 -3.6 0 0 -7.2 -3.6 0 0 -7.21 -3.61 0 0 -7.2 -3.6 0 0 -7.2 -3.6 0 0 -7.21 -3.6 0 0 -7.2 -3.6 0 0 -7.2 -3.6 0 0 -7.21 -3.6 0 0 -7.2 -3.61 0 0 -3.6 -3.6 0 0 -7.2 -3.6 0 0 -7.2 -3.6 0 0 -3.61 -3.6 0 0 -7.2 -7.21 0 0 -7.2 -3.6 0 0 -3.6 -3.6 0 0 -3.61 -3.6 0 0 -3.6 -3.6 0 0 -3.6 -7.21 0 0 -3.6 -3.59 0 0 -3.6 -7.21 0 0 -3.6 -7.2 0 0 -3.6 -7.2 0 0 -3.61 -10.81 0 0 -3.6 -54.02 0 0 3.6 -14.41 0 0 3.61 -7.2 0 0 3.6 -7.2 0 0 3.6 -7.21 0 0 3.6 -7.2 0 0 3.6 -3.6 0 0 3.6 -3.6 0 0 3.6 -3.6 0 0 3.61 -7.21 0 0 3.6 -3.6 0 0 3.6 -3.6 0 0 3.6 -3.6 0 0 3.6 -3.6 0 0 7.21 -3.6 0 0 3.6 -3.61 0 0 3.6 -3.59 0 0 7.2 -3.61 0 0 3.6 -3.6 0 0 7.2 -3.6 0 0 7.21 -3.6 0 0 3.6 -3.61 0 0 7.2 -3.59 0 0 7.21 -3.61 0 0 3.6 -3.6 0 0 7.2 -3.6 0 0 7.2 -3.6 0 0 10.81 -3.6 0 0 7.2 -3.6 0 0 10.81 -3.61 0 0 7.2 -3.6 0 0 14.41 -3.6 0 0 10.8 -3.6 0 0 7.2 -3.6 0 0 14.41 -3.6 0 0 10.8 -3.6 0 0 7.2 -3.61 0 0 10.81 -3.6 0 0 10.8 -3.6 0 0 10.81 -3.6 0 0 7.2 -3.6 0 0 10.8 -3.6 0 0 7.21 -3.61 0 0 10.8 -3.59 0 0 10.81 -3.61 0 0 10.8 -3.6 0 0 7.2 -3.6 0 0 14.41 -3.6 0 0 10.81 -3.61 0 0 18 -3.59 0 0 14.41 -3.61 0 0 21.61 -3.6 0 0 64.83 3.6 0 0 18zm401.68 -326.48l9.76 24.66 9.94 31.71 3.6 0 0 10.8 3.6 0 0 7.21 3.6 0 0 10.8 3.6 0 0 10.81 3.6 0 0 14.4 3.61 0 0 14.41 3.6 0 0 14.4 3.6 0 0 14.41 3.6 0 0 14.41 3.6 0 0 10.8 3.6 0 0 21.61 3.6 0 0 10.81 3.61 0 0 21.6 3.6 0 0 86.44 -3.6 0 0 18.01 -3.61 0 0 14.4 -3.6 0 0 10.81 -3.6 0 0 7.2 -3.6 0 0 7.2 -3.6 0 0 7.2 -3.6 0 0 3.61 -3.6 0 0 7.2 -3.61 0 0 3.6 -3.6 0 0 3.6 -3.6 0 0 3.6 -3.6 0 0 3.6 -3.6 0 0 3.61 -7.21 0 0 3.6 -3.59 0 0 3.6 -3.61 0 0 3.6 -7.2 0 0 3.6 -3.6 0 0 3.6 -7.2 0 0 3.61 -7.21 0 0 3.6 -3.6 0 0 3.6 -7.2 0 0 3.6 -3.6 0 0 3.6 -7.21 0 0 3.6 -7.2 0 0 3.61 -7.2 0 0 3.59 -3.6 0 0 3.61 -7.21 0 0 3.6 -3.6 0 0 3.6 -7.2 0 0 3.6 -3.6 0 0 3.6 -7.21 0 0 3.6 -3.6 0 0 3.61 -3.6 0 0 3.6 -7.2 0 0 3.6 -7.2 0 0 3.6 -3.61 0 0 3.6 -7.2 0 0 3.6 -7.2 0 0 3.6 -7.2 0 0 3.61 -7.21 0 0 3.6 -7.2 0 0 3.6 -10.81 0 0 3.6 -46.81 0 0 -3.6 -10.81 0 0 -3.6 -7.2 0 0 -3.6 -7.21 0 0 -3.61 -7.2 0 0 -3.6 -3.6 0 0 -3.6 -3.6 0 0 -3.6 -7.2 0 0 -3.6 -3.61 0 0 -3.6 -3.6 0 0 -3.6 -7.2 0 0 -3.61 -3.6 0 0 -3.6 -3.6 0 0 -3.6 -3.61 0 0 -3.6 -7.2 0 0 -3.6 -3.6 0 0 -3.6 -3.6 0 0 -3.61 -7.21 0 0 -3.59 -3.59 0 0 -3.61 -3.61 0 0 -3.6 -7.2 0 0 -3.6 -3.6 0 0 -3.6 -7.2 0 0 -3.6 -3.61 0 0 -3.6 -7.2 0 0 -3.61 -3.6 0 0 -3.6 -7.2 0 0 -3.6 -3.6 0 0 -3.6 -7.21 0 0 -3.6 -3.6 0 0 -3.6 -3.6 0 0 -3.61 -7.2 0 0 -3.6 -3.61 0 0 -3.6 -3.59 0 0 -3.6 -3.61 0 0 -3.6 -7.2 0 0 -3.6 -3.6 0 0 -3.6 -3.61 0 0 -7.21 -3.59 0 0 -3.6 -3.61 0 0 -3.6 -3.6 0 0 -7.2 -3.6 0 0 -3.6 -3.6 0 0 -10.81 -3.6 0 0 -7.2 -3.6 0 0 -14.4 -3.61 0 0 -10.81 -3.6 0 0 -86.44 3.6 0 0 -10.8 3.61 0 0 -21.61 3.6 0 0 -14.41 3.6 0 0 -14.4 3.6 0 0 -7.21 3.6 0 0 -14.4 3.6 0 0 -7.2 3.61 0 0 -14.41 3.59 0 0 -10.81 3.61 0 0 -10.8 3.6 0 0 -7.2 3.6 0 0 -10.81 3.6 0 0 -10.8 3.61 0 0 -7.2 3.59 0 0 -14.41 3.61 0 0 -7.2 3.6 0 0 -10.81 3.6 0 0 -14.4 3.6 0 0 -10.81 3.6 0 0 -7.2 3.6 0 5.99 -21.61 10.56 -17.54 8.81 -18.01 10.66 -14.87 0 -7.2 3.6 0 0 -7.2 3.6 0 0 -7.21 3.6 0 0 -3.6 3.61 0 0 -7.2 3.59 0 0 -3.6 3.61 0 0 -7.21 3.6 0 0 -3.6 3.6 0 0 -3.6 3.6 0 0 -3.6 3.61 0 0 -3.6 3.59 0 0 -3.61 3.61 0 0 -3.6 3.6 0 0 -3.6 3.6 0 0 -3.6 3.6 0 0 -3.6 3.6 0 0 -3.6 3.6 0 0 -3.6 3.61 0 0 -3.61 7.2 0 0 -3.6 3.6 0 0 -3.6 7.2 0 0 -3.6 7.21 0 0 -3.6 10.8 0 0 -3.6 10.81 0 0 -3.61 21.61 0 0 -3.6 39.61 0 0 3.6 14.41 0 0 3.61 10.8 0 0 3.6 7.2 0 0 3.6 7.2 0 0 3.6 3.61 0 0 3.6 7.2 0 0 3.6 3.6 0 0 3.61 3.6 0 0 3.6 7.21 0 0 3.6 3.6 0 0 3.6 3.6 0 0 3.6 3.6 0 0 3.6 3.6 0 0 7.21 3.6 0 0 3.6 3.61 0 0 3.6 3.6 0 0 7.2 3.6 0 0 3.6 3.6 0 0 7.21 3.6 0 0 3.6 3.6 0 0 7.2 3.6 0 0 7.21 3.61 0 0 7.2 3.6 0 0 7.2 3.6 0 0 10.8 3.6 0 0 7.21 3.6 0 0 7.2 2.92 9.59 13.4 31.28z"/>
 </g>
</svg>
