<?xml version="1.0" encoding="UTF-8"?>
<!DOCTYPE svg PUBLIC "-//W3C//DTD SVG 1.1//EN" "http://www.w3.org/Graphics/SVG/1.1/DTD/svg11.dtd">
<!-- Creator: CorelDRAW (Versión de evaluación) -->
<svg xmlns="http://www.w3.org/2000/svg" xml:space="preserve" width="446px" height="2062px" version="1.1" style="shape-rendering:geometricPrecision; text-rendering:geometricPrecision; image-rendering:optimizeQuality; fill-rule:evenodd; clip-rule:evenodd"
viewBox="0 0 446 2060.93"
 xmlns:xlink="http://www.w3.org/1999/xlink"
 xmlns:xodm="http://www.corel.com/coreldraw/odm/2003">
 <defs>
  <style type="text/css">
   <![CDATA[
    .str0 {stroke:#4B4B4D;stroke-width:19.99;stroke-miterlimit:22.9256}
    .fil0 {fill:#BDBFC1}
    .fil1 {fill:#4B4B4D}
    .fil2 {fill:#FAFAF7}
   ]]>
  </style>
 </defs>
 <g id="implant">
  <metadata id="CorelCorpID_0Corel-Layer"/>
  <path id="root" class="fil0 str0" d="M277.67 1536.49c-21.44,-3.62 -44.13,-3.61 -65.57,0l-134.85 0c-0.09,-22.47 6.14,-28.21 8.68,-82.49 2.45,-52.56 4.34,-316.48 -9.48,-351.83l-13.39 -22.41c-0.82,-1.88 -2.23,-3.98 -2.84,-5.93 -16.26,-52.02 34.84,-19.27 20.33,-103.08 -11.76,-67.94 -34.74,10.94 -21.84,-62.46 8.44,-48.03 26.23,6.24 22.93,-66.54 -3.9,-86.08 -23.48,8.05 -23.97,-64.49 -0.46,-69.09 19.34,13.12 23.87,-63.92 1.58,-26.88 -2.3,-26.21 -7.64,-37.59 -13.86,-29.53 -6.75,25.16 -15.56,-28.69 -10.82,-66.21 10.92,2.6 22.22,-62.32 7.99,-45.87 -13.61,-62.38 -17.24,-70.69 -19.85,-45.55 2.36,-32.4 22.87,-44.8 5.44,-122.15 61.57,-218.58 162.4,-194.22 90.48,21.85 116.08,130.3 116.08,264.9 27.04,27.92 35.31,19.63 13.31,60.74 -1.03,1.92 -2.72,3.38 -3.76,5.33 -8.24,15.5 -2.3,-7.36 -8.76,18.55 -16.35,65.5 37.67,60.94 15.99,107.55 -13.74,29.55 -16.78,-6.41 -16.78,82.04l20.02 19.76c6.01,12 5.27,22.03 -0.55,34.4 -8.29,17.61 -30.18,6.29 -19.96,73.2 9.59,62.9 1.1,7.97 13.88,31.89 0.16,0.31 23.99,-2.13 3.47,42.22l-7.29 11.9 -2.76 0 -3.47 10.16c-5.53,15.92 -3.34,31.78 -3.34,50.69 2.68,8.29 4.91,12.74 6.81,14.75l0 0.42 14.29 6.38 0.62 7.63c5.24,68.43 -5.04,0.06 -23.56,41.01 -13.97,30.89 2.21,278.59 3.76,377.94l-88.92 0zm-41.87 -58.16c-38.92,0.02 -96.9,-9.95 -131.65,7.36l-4.85 42.16 246.55 -0.1c-6.81,-65.2 6.34,-49.49 -110.05,-49.42zm-128.68 -29.42l231.17 0 -0.89 -289.28 -230.46 0 0.18 289.28zm-4.83 -317.48c96.08,4.43 150.49,-0.42 240.84,-19.32l0.05 -86.4c-85.42,6.21 -160.04,21.35 -241.32,47.83l0.43 57.89zm-1.23 -114.35c84.17,-17.4 152.85,-40.74 243.08,-45.14l0 -90.61c-81.08,5.66 -171.1,20.73 -243.08,48.54l0 87.21zm-0.33 -144.59c83.6,-15.2 149.4,-39.44 239.8,-44.98l3.81 -85.21c-89.73,5.64 -158.75,23.61 -241.61,47.64l-2 82.55zm-0.05 -139.04c85.22,-15.08 151.22,-39.57 243.46,-45.37l-0.56 -82.56c-85.25,6.03 -160.67,20.62 -240.55,47.71l-2.35 80.22zm0.38 -136.68c84.72,-17.38 152.4,-40.26 243.08,-45.29l0 -68.2 -243.08 28.57 0 84.92zm7.67 -141.29l227.57 0.36c0.68,-206.44 -230.06,-204.97 -227.57,-0.36z"/>
  <path id="outline" class="fil1" d="M75.18 1428.96l-6.58 12.38 -18.5 54.14 -3.6 0 0 10.79 -3.6 0 0 21.58 -3.59 0 0 10.79 -3.6 0 0 17.98 -3.6 0 0 14.39 -3.59 0 0 14.39 -3.6 0 0 14.39 -3.6 0 0 14.38 -3.59 0 0 17.99 -3.6 0 0 17.98 -3.6 0 0 21.58 -3.59 0 0 25.18 -3.6 0 0 57.54 -3.6 0 0 82.73 3.6 0 0 35.97 3.6 0 0 17.98 3.59 0 0 17.98 3.6 0 0 7.2 3.6 0 0 7.19 3.59 0 0 3.6 3.6 0 0 7.19 3.6 0 0 3.6 3.59 0 0 7.19 3.6 0 0 3.6 3.6 0 0 3.6 7.19 0 0 3.59 3.6 0 0 3.6 3.59 0 0 3.6 7.2 0 0 3.59 7.19 0 0 3.6 7.19 0 0 3.6 7.2 0 0 3.59 10.79 0 0 3.6 10.79 0 0 3.6 17.98 0 0 3.59 10.79 0 0 3.6 21.58 0 0 3.6 17.98 0 0 3.59 21.58 0 0 3.6 133.09 0 0 -3.6 21.58 0 0 -3.59 21.58 0 0 -3.6 14.39 0 0 -3.6 7.19 0 0 -3.59 7.19 0 0 -3.6 7.2 0 0 -3.6 7.19 0 0 -3.59 3.6 0 0 -3.6 3.59 0 0 -3.6 3.6 0 0 -7.19 3.6 0 0 -3.6 3.59 0 0 -7.19 3.6 0 0 -7.19 3.6 0 0 -17.99 3.59 0 0 -25.18 3.6 0 0 -107.9 -3.6 0 0 -43.16 -3.59 0 0 -21.58 -3.6 0 0 -28.77 -3.6 0 0 -21.58 -3.59 0 0 -14.39 -3.6 0 0 -17.98 -3.6 0 0 -21.58 -3.59 0 0 -10.79 -3.6 0 0 -21.58 -3.6 0 0 -10.79 -3.59 0 0 -10.8 -3.6 0 0 -14.38 -3.6 0 -9.89 -43.25 -10.73 -28.51c-0.69,-0.45 -1.28,-0.92 -1.82,-1.55l0.12 0.52 -0.3 -0.73c-2.63,-3.22 -4.95,-10.07 -5.78,-13.99l-3.97 -9.61 0 -7.19 -3.59 0 0 -7.19 -3.6 0 0 -7.2 -3.6 0 0 -10.79 -3.6 0 0 -7.19 -3.59 0 0 -7.19 -3.6 0 0 -7.2 -3.6 0 0 -7.19 -3.59 0 0 -3.6 -3.6 0 0 -7.19 -3.6 0 0 -7.19 -3.59 0 0 -3.6 -3.6 0 0 -7.19 -3.6 0 0 -3.6 -3.59 0 0 -3.6 -3.6 0 0 -7.19 -3.6 0 0 -3.6 -3.59 0 0 -3.6 -3.6 0 0 -3.59 -7.19 0 0 -3.6 -3.6 0 0 -3.6 -3.6 0 0 -3.59 -3.59 0 0 -3.6 -3.6 0 0 -3.6 -7.2 0 0 -3.59 -3.59 0 0 -3.6 -7.2 0 0 -3.6 -10.79 0 0 -3.59 -7.19 0 0 -3.6 -14.39 0 0 -3.6 -35.97 0 0 3.6 -14.38 0 0 3.6 -7.2 0 0 3.59 -10.79 0 0 3.6 -7.19 0 0 3.6 -3.6 0 0 3.59 -7.19 0 0 3.6 -3.6 0 0 3.6 -7.19 0 0 7.19 -3.6 0 0 3.6 -3.59 0 0 3.59 -3.6 0 0 3.6 -3.6 0 0 3.6 -3.59 0 0 3.59 -3.6 0 0 3.6 -3.6 0 0 3.6 -3.59 0 0 7.19 -3.6 0 0 3.6 -3.6 0 0 7.19 -3.59 0 0 7.2 -3.6 0 0 7.19 -3.6 0 0 7.19 -3.59 0 0 10.79 -3.6 0 -3.6 16.57 0 -0.63 -0.09 0.27zm118.78 -106.13l-10.79 0 0 3.6 -10.79 0 0 3.6 -3.59 0 0 3.59 -7.2 0 0 3.6 -7.19 0 0 3.6 -3.6 0 0 3.59 -3.59 0 0 3.6 -7.2 0 0 3.6 -3.59 0 0 3.59 -3.6 0 0 7.2 -3.6 0 0 3.6 -3.59 0 0 3.59 -3.6 0 0 7.2 -3.6 0 0 3.59 -3.59 0 0 7.2 -3.6 0 0 7.19 -3.6 0 0 3.6 -3.59 0 0 7.19 -3.6 0 0 10.79 -3.6 0 0 7.19 -3.59 0 0 10.79 -3.6 0 0 10.79 -3.6 0 0 7.2 -3.59 0 0 10.79 -3.6 0 0 10.79 -3.6 0 0 14.39 -3.59 0 0 14.38 -3.6 0 0 14.39 -3.6 0 0 14.39 -3.59 0 0 14.38 -3.6 0 0 14.39 -3.6 0 0 17.99 -3.59 0 0 21.58 -3.6 0 0 10.79 -3.6 0 0 17.98 -3.59 0 0 17.98 -3.6 0 0 21.58 -3.6 0 0 28.78 -3.59 0 0 21.58 -3.6 0 0 151.06 3.6 0 0 10.79 3.59 0 0 17.98 3.6 0 0 7.2 3.6 0 0 10.79 3.59 0 0 3.59 3.6 0 0 3.6 3.6 0 0 3.6 3.59 0 0 3.59 3.6 0 0 7.2 7.19 0 0 3.6 3.6 0 0 3.59 7.19 0 0 3.6 10.79 0 0 3.6 7.2 0 0 3.59 10.79 0 0 3.6 10.79 0 0 3.6 10.79 0 0 3.59 14.38 0 0 3.6 21.58 0 0 3.6 17.99 0 0 3.59 158.26 0 0 -3.59 21.58 0 0 -3.6 10.79 0 0 -3.6 10.79 0 0 -3.59 7.19 0 0 -3.6 7.2 0 0 -3.6 7.19 0 0 -3.59 3.6 0 0 -7.2 3.59 0 0 -7.19 3.6 0 0 -10.79 3.6 0 0 -10.79 3.59 0 0 -39.57 3.6 0 0 -68.34 -3.6 0 0 -46.75 -3.59 0 0 -17.99 -3.6 0 0 -32.37 -3.6 0 0 -28.77 -3.59 0 0 -17.98 -3.6 0 0 -17.99 -3.6 0 0 -14.38 -3.59 0 0 -21.58 -3.6 0 0 -14.39 -3.6 0 0 -14.39 -3.59 0 0 -14.39 -3.6 0 0 -10.79 -3.6 0 0 -10.79 -3.59 0 0 -10.79 -3.6 0 0 -10.79 -3.6 0 0 -14.38 -3.59 0 0 -10.79 -3.6 0 0 -10.79 -3.6 0 0 -10.79 -3.6 0 0 -10.8 -3.59 0 0 -10.79 -3.6 0 0 -7.19 -3.6 0 0 -7.19 -3.59 0 0 -10.79 -3.6 0 0 -7.2 -3.6 0 0 -10.79 -3.59 0 0 -7.19 -3.6 0 0 -3.6 -3.6 0 0 -7.19 -3.59 0 0 -3.6 -3.6 0 0 -7.19 -3.6 0 0 -3.6 -3.59 0 0 -7.19 -3.6 0 0 -3.6 -3.6 0 0 -3.59 -3.59 0 0 -3.6 -3.6 0 0 -7.2 -3.6 0 0 -3.59 -7.19 0 0 -3.6 -3.6 0 0 -3.6 -3.6 0 0 -3.59 -3.59 0 0 -3.6 -7.2 0 0 -3.6 -7.19 0 0 -3.59 -3.6 0 0 -3.6 -7.19 0 0 -3.6 -10.79 0 0 -3.59 -39.57 0 0 3.59z"/>
  <polygon id="crown" class="fil2" points="193.96,1322.83 183.17,1322.83 183.17,1326.43 172.38,1326.43 172.38,1330.03 168.79,1330.03 168.79,1333.62 161.59,1333.62 161.59,1337.22 154.4,1337.22 154.4,1340.82 150.8,1340.82 150.8,1344.41 147.21,1344.41 147.21,1348.01 140.01,1348.01 140.01,1351.61 136.42,1351.61 136.42,1355.2 132.82,1355.2 132.82,1362.4 129.22,1362.4 129.22,1366 125.63,1366 125.63,1369.59 122.03,1369.59 122.03,1376.79 118.43,1376.79 118.43,1380.38 114.84,1380.38 114.84,1387.58 111.24,1387.58 111.24,1394.77 107.64,1394.77 107.64,1398.37 104.05,1398.37 104.05,1405.56 100.45,1405.56 100.45,1416.35 96.85,1416.35 96.85,1423.54 93.26,1423.54 93.26,1434.33 89.66,1434.33 89.66,1445.12 86.06,1445.12 86.06,1452.32 82.47,1452.32 82.47,1463.11 78.87,1463.11 78.87,1473.9 75.27,1473.9 75.27,1488.29 71.68,1488.29 71.68,1502.67 68.08,1502.67 68.08,1517.06 64.48,1517.06 64.48,1531.45 60.89,1531.45 60.89,1545.83 57.29,1545.83 57.29,1560.22 53.69,1560.22 53.69,1578.21 50.1,1578.21 50.1,1599.79 46.5,1599.79 46.5,1610.58 42.9,1610.58 42.9,1628.56 39.31,1628.56 39.31,1646.54 35.71,1646.54 35.71,1668.12 32.11,1668.12 32.11,1696.9 28.52,1696.9 28.52,1718.48 24.92,1718.48 24.92,1869.54 28.52,1869.54 28.52,1880.33 32.11,1880.33 32.11,1898.31 35.71,1898.31 35.71,1905.51 39.31,1905.51 39.31,1916.3 42.9,1916.3 42.9,1919.89 46.5,1919.89 46.5,1923.49 50.1,1923.49 50.1,1927.09 53.69,1927.09 53.69,1930.68 57.29,1930.68 57.29,1937.88 64.48,1937.88 64.48,1941.48 68.08,1941.48 68.08,1945.07 75.27,1945.07 75.27,1948.67 86.06,1948.67 86.06,1952.27 93.26,1952.27 93.26,1955.86 104.05,1955.86 104.05,1959.46 114.84,1959.46 114.84,1963.06 125.63,1963.06 125.63,1966.65 140.01,1966.65 140.01,1970.25 161.59,1970.25 161.59,1973.85 179.58,1973.85 179.58,1977.44 337.84,1977.44 337.84,1973.85 359.42,1973.85 359.42,1970.25 370.21,1970.25 370.21,1966.65 381,1966.65 381,1963.06 388.19,1963.06 388.19,1959.46 395.39,1959.46 395.39,1955.86 402.58,1955.86 402.58,1952.27 406.18,1952.27 406.18,1945.07 409.77,1945.07 409.77,1937.88 413.37,1937.88 413.37,1927.09 416.97,1927.09 416.97,1916.3 420.56,1916.3 420.56,1876.73 424.16,1876.73 424.16,1808.39 420.56,1808.39 420.56,1761.64 416.97,1761.64 416.97,1743.65 413.37,1743.65 413.37,1711.28 409.77,1711.28 409.77,1682.51 406.18,1682.51 406.18,1664.53 402.58,1664.53 402.58,1646.54 398.98,1646.54 398.98,1632.16 395.39,1632.16 395.39,1610.58 391.79,1610.58 391.79,1596.19 388.19,1596.19 388.19,1581.8 384.6,1581.8 384.6,1567.41 381,1567.41 381,1556.62 377.4,1556.62 377.4,1545.83 373.81,1545.83 373.81,1535.04 370.21,1535.04 370.21,1524.25 366.61,1524.25 366.61,1509.87 363.02,1509.87 363.02,1499.08 359.42,1499.08 359.42,1488.29 355.82,1488.29 355.82,1477.5 352.22,1477.5 352.22,1466.7 348.63,1466.7 348.63,1455.91 345.03,1455.91 345.03,1448.72 341.43,1448.72 341.43,1441.53 337.84,1441.53 337.84,1430.74 334.24,1430.74 334.24,1423.54 330.64,1423.54 330.64,1412.75 327.05,1412.75 327.05,1405.56 323.45,1405.56 323.45,1401.96 319.85,1401.96 319.85,1394.77 316.26,1394.77 316.26,1391.17 312.66,1391.17 312.66,1383.98 309.06,1383.98 309.06,1380.38 305.47,1380.38 305.47,1373.19 301.87,1373.19 301.87,1369.59 298.27,1369.59 298.27,1366 294.68,1366 294.68,1362.4 291.08,1362.4 291.08,1355.2 287.48,1355.2 287.48,1351.61 280.29,1351.61 280.29,1348.01 276.69,1348.01 276.69,1344.41 273.09,1344.41 273.09,1340.82 269.5,1340.82 269.5,1337.22 262.3,1337.22 262.3,1333.62 255.11,1333.62 255.11,1330.03 251.51,1330.03 251.51,1326.43 244.32,1326.43 244.32,1322.83 233.53,1322.83 233.53,1319.24 193.96,1319.24 "/>
 </g>
</svg>
