<?xml version="1.0" encoding="UTF-8"?>
<!DOCTYPE svg PUBLIC "-//W3C//DTD SVG 1.1//EN" "http://www.w3.org/Graphics/SVG/1.1/DTD/svg11.dtd">
<!-- Creator: CorelDRAW (Versión de evaluación) -->
<svg xmlns="http://www.w3.org/2000/svg" xml:space="preserve" width="497px" height="2062px" version="1.1" style="shape-rendering:geometricPrecision; text-rendering:geometricPrecision; image-rendering:optimizeQuality; fill-rule:evenodd; clip-rule:evenodd"
viewBox="0 0 497 2063.64"
 xmlns:xlink="http://www.w3.org/1999/xlink"
 xmlns:xodm="http://www.corel.com/coreldraw/odm/2003">
 <defs>
  <style type="text/css">
   <![CDATA[
    .str0 {stroke:#4B4B4D;stroke-width:20.01;stroke-miterlimit:22.9256}
    .fil0 {fill:#BDBFC1}
    .fil2 {fill:#4B4B4D}
    .fil1 {fill:#FAFAF7}
   ]]>
  </style>
 </defs>
 <g id="implant">
  <metadata id="CorelCorpID_0Corel-Layer"/>
  <path id="root" class="fil0 str0" d="M301.04 1515.97c-21.47,-3.63 -44.18,-3.62 -65.66,0l-135.02 0c-0.09,-22.5 6.15,-28.24 8.69,-82.6 2.46,-52.63 4.35,-316.89 -9.49,-352.29l-13.41 -22.44c-0.82,-1.88 -2.23,-3.99 -2.84,-5.94 -16.29,-52.08 34.88,-19.3 20.35,-103.22 -11.77,-68.02 -34.78,10.96 -21.87,-62.54 8.45,-48.09 26.27,6.25 22.97,-66.63 -3.91,-86.19 -23.51,8.06 -24,-64.57 -0.47,-69.18 19.36,13.14 23.9,-64 1.58,-26.92 -2.31,-26.24 -7.66,-37.64 -13.87,-29.57 -6.76,25.19 -15.57,-28.73 -10.84,-66.3 10.93,2.6 22.25,-62.41 8,-45.93 -13.64,-62.45 -17.26,-70.78 -19.89,-45.61 2.36,-32.44 22.89,-44.86 5.45,-122.3 61.65,-218.86 162.62,-194.47 90.6,21.88 116.23,130.47 116.23,265.24 27.07,27.96 35.36,19.67 13.32,60.83 -1.03,1.92 -2.72,3.39 -3.76,5.34 -8.25,15.52 -2.3,-7.37 -8.77,18.57 -16.37,65.58 37.72,61.02 16.02,107.69 -13.77,29.59 -16.81,-6.42 -16.81,82.15l20.05 19.79c6.01,12.01 5.27,22.05 -0.56,34.44 -8.29,17.63 -30.21,6.3 -19.99,73.3 9.61,62.98 1.11,7.98 13.9,31.93 0.17,0.31 24.03,-2.14 3.48,42.28l-7.3 11.91 -2.76 0 -3.48 10.17c-5.53,15.95 -3.34,31.83 -3.34,50.75 2.68,8.31 4.92,12.77 6.82,14.78l0 0.42 14.3 6.38 0.62 7.65c5.25,68.52 -5.04,0.06 -23.58,41.07 -13.99,30.92 -9.91,278.95 -8.37,378.43l-76.91 0zm-41.92 -58.24c-38.98,0.02 -97.03,-9.96 -131.82,7.37l-4.86 42.22 246.88 -0.1c-6.82,-65.29 6.35,-49.55 -110.2,-49.49zm-128.85 -29.46l231.48 0 -0.9 -289.65 -230.76 0 0.18 289.65zm-4.84 -317.89c96.2,4.44 150.7,-0.42 241.16,-19.35l0.05 -86.51c-85.53,6.21 -160.25,21.37 -241.63,47.89l0.42 57.97zm-1.23 -114.51c84.28,-17.41 153.06,-40.79 243.4,-45.2l0 -90.73c-81.18,5.67 -171.33,20.76 -243.4,48.61l0 87.32zm-0.33 -144.78c83.71,-15.21 149.6,-39.48 240.11,-45.03l3.82 -85.32c-89.84,5.64 -158.96,23.63 -241.92,47.69l-2.01 82.66zm-0.04 -139.22c85.33,-15.1 151.41,-39.62 243.77,-45.43l-0.56 -82.67c-85.36,6.04 -160.89,20.65 -240.87,47.77l-2.34 80.33zm0.37 -136.86c84.83,-17.4 152.6,-40.31 243.4,-45.35l0 -68.28 -243.4 28.6 0 85.03zm7.69 -141.47l227.86 0.36c0.68,-206.71 -230.36,-205.25 -227.86,-0.36z"/>
  <polygon id="crown" class="fil1" points="220.84,1366.38 213.63,1366.38 213.63,1369.97 199.23,1369.97 199.23,1373.58 192.02,1373.58 192.02,1377.18 184.82,1377.18 184.82,1380.78 177.62,1380.78 177.62,1384.38 174.01,1384.38 174.01,1387.98 166.81,1387.98 166.81,1391.58 163.21,1391.58 163.21,1395.19 159.61,1395.19 159.61,1398.79 156.01,1398.79 156.01,1402.39 152.41,1402.39 152.41,1405.99 148.8,1405.99 148.8,1409.59 145.2,1409.59 145.2,1413.19 141.6,1413.19 141.6,1416.79 138,1416.79 138,1420.4 134.4,1420.4 134.4,1427.6 130.8,1427.6 130.8,1431.2 127.19,1431.2 127.19,1434.8 123.59,1434.8 123.59,1442.01 119.99,1442.01 119.99,1445.61 116.39,1445.61 116.39,1452.81 112.79,1452.81 112.79,1456.41 109.19,1456.41 109.19,1463.62 105.58,1463.62 105.58,1470.82 101.99,1470.82 101.99,1478.02 98.38,1478.02 98.38,1485.22 94.78,1485.22 94.78,1496.03 91.18,1496.03 91.18,1506.83 87.58,1506.83 87.58,1517.64 83.98,1517.64 83.98,1532.04 80.38,1532.04 80.38,1550.05 76.77,1550.05 76.77,1560.86 73.17,1560.86 73.17,1571.66 69.57,1571.66 69.57,1582.47 65.97,1582.47 65.97,1593.27 62.37,1593.27 62.37,1604.07 58.77,1604.07 58.77,1614.88 55.16,1614.88 55.16,1625.68 51.56,1625.68 51.56,1636.49 47.96,1636.49 47.96,1650.89 44.36,1650.89 44.36,1658.1 40.76,1658.1 40.76,1668.9 37.16,1668.9 37.16,1683.3 33.56,1683.3 33.56,1690.51 29.95,1690.51 29.95,1704.91 26.36,1704.91 26.36,1726.52 22.75,1726.52 22.75,1740.93 19.15,1740.93 19.15,1805.76 22.75,1805.76 22.75,1823.76 26.36,1823.76 26.36,1838.17 29.95,1838.17 29.95,1848.97 33.56,1848.97 33.56,1859.78 37.16,1859.78 37.16,1866.98 40.76,1866.98 40.76,1870.58 44.36,1870.58 44.36,1877.78 47.96,1877.78 47.96,1881.39 51.56,1881.39 51.56,1884.98 55.16,1884.98 55.16,1888.59 58.77,1888.59 58.77,1892.19 62.37,1892.19 62.37,1895.79 65.97,1895.79 65.97,1899.39 69.57,1899.39 69.57,1902.99 76.77,1902.99 76.77,1906.59 80.38,1906.59 80.38,1910.2 87.58,1910.2 87.58,1913.8 91.18,1913.8 91.18,1917.4 98.38,1917.4 98.38,1921 105.58,1921 105.58,1924.6 109.19,1924.6 109.19,1928.2 116.39,1928.2 116.39,1931.81 123.59,1931.81 123.59,1935.41 130.8,1935.41 130.8,1939.01 134.4,1939.01 134.4,1942.61 138,1942.61 138,1946.21 145.2,1946.21 145.2,1949.81 152.41,1949.81 152.41,1953.41 159.61,1953.41 159.61,1957.02 163.21,1957.02 163.21,1960.62 166.81,1960.62 166.81,1964.22 174.01,1964.22 174.01,1967.82 177.62,1967.82 177.62,1971.42 184.82,1971.42 184.82,1975.02 188.42,1975.02 188.42,1978.63 192.02,1978.63 192.02,1982.23 199.23,1982.23 199.23,1985.83 206.43,1985.83 206.43,1989.43 210.03,1989.43 210.03,1993.03 217.23,1993.03 217.23,1996.63 228.04,1996.63 228.04,2000.24 271.25,2000.24 271.25,1996.63 278.46,1996.63 278.46,1993.03 285.66,1993.03 285.66,1989.43 292.86,1989.43 292.86,1985.83 296.47,1985.83 296.47,1982.23 303.67,1982.23 303.67,1978.63 307.27,1978.63 307.27,1975.02 310.87,1975.02 310.87,1971.42 318.08,1971.42 318.08,1967.82 321.67,1967.82 321.67,1964.22 325.28,1964.22 325.28,1960.62 332.48,1960.62 332.48,1957.02 336.08,1957.02 336.08,1953.41 339.68,1953.41 339.68,1949.81 346.89,1949.81 346.89,1946.21 350.49,1946.21 350.49,1942.61 357.69,1942.61 357.69,1939.01 361.29,1939.01 361.29,1935.41 368.49,1935.41 368.49,1931.81 375.7,1931.81 375.7,1928.2 379.3,1928.2 379.3,1924.6 386.5,1924.6 386.5,1921 390.1,1921 390.1,1917.4 397.3,1917.4 397.3,1913.8 400.91,1913.8 400.91,1910.2 408.11,1910.2 408.11,1906.59 415.32,1906.59 415.32,1902.99 418.91,1902.99 418.91,1899.39 426.12,1899.39 426.12,1895.79 429.72,1895.79 429.72,1892.19 433.32,1892.19 433.32,1888.59 436.92,1888.59 436.92,1884.98 440.52,1884.98 440.52,1881.39 444.13,1881.39 444.13,1877.78 447.73,1877.78 447.73,1874.18 451.33,1874.18 451.33,1866.98 454.93,1866.98 454.93,1863.38 458.53,1863.38 458.53,1856.17 462.13,1856.17 462.13,1848.97 465.73,1848.97 465.73,1841.77 469.34,1841.77 469.34,1823.76 472.94,1823.76 472.94,1744.53 469.34,1744.53 469.34,1726.52 465.73,1726.52 465.73,1708.52 462.13,1708.52 462.13,1694.11 458.53,1694.11 458.53,1683.3 454.93,1683.3 454.93,1672.5 451.33,1672.5 451.33,1658.1 447.73,1658.1 447.73,1650.89 444.13,1650.89 444.13,1640.09 440.52,1640.09 440.52,1629.28 436.92,1629.28 436.92,1618.48 433.32,1618.48 433.32,1611.27 429.72,1611.27 429.72,1596.87 426.12,1596.87 426.12,1589.67 422.52,1589.67 422.52,1578.86 418.91,1578.86 418.91,1568.06 415.32,1568.06 415.32,1557.25 411.71,1557.25 411.71,1546.45 408.11,1546.45 408.11,1532.04 404.51,1532.04 404.51,1528.44 400.91,1528.44 400.91,1517.64 397.3,1517.64 397.3,1510.43 393.71,1510.43 393.71,1503.23 390.1,1503.23 390.1,1492.43 386.5,1492.43 386.5,1485.22 382.9,1485.22 382.9,1478.02 379.3,1478.02 379.3,1474.42 375.7,1474.42 375.7,1467.21 372.1,1467.21 372.1,1460.01 368.49,1460.01 368.49,1452.81 364.89,1452.81 364.89,1445.61 361.29,1445.61 361.29,1442.01 357.69,1442.01 357.69,1434.8 354.09,1434.8 354.09,1431.2 350.49,1431.2 350.49,1427.6 346.89,1427.6 346.89,1420.4 343.28,1420.4 343.28,1416.79 339.68,1416.79 339.68,1413.19 336.08,1413.19 336.08,1409.59 332.48,1409.59 332.48,1405.99 328.88,1405.99 328.88,1402.39 325.28,1402.39 325.28,1398.79 321.67,1398.79 321.67,1395.19 318.08,1395.19 318.08,1391.58 314.47,1391.58 314.47,1387.98 310.87,1387.98 310.87,1384.38 307.27,1384.38 307.27,1380.78 300.06,1380.78 300.06,1377.18 292.86,1377.18 292.86,1373.58 285.66,1373.58 285.66,1369.97 274.86,1369.97 274.86,1366.38 260.45,1366.38 260.45,1362.77 220.84,1362.77 "/>
  <path id="outline" class="fil2" d="M19.15 1740.93l3.6 0 0 -14.41 3.61 0 0 -21.61 3.59 0 0 -14.4 3.61 0 0 -7.21 3.6 0 0 -14.4 3.6 0 0 -10.8 3.6 0 0 -7.21 3.6 0 0 -14.4 3.6 0 0 -10.81 3.6 0 0 -10.8 3.61 0 0 -10.81 3.6 0 0 -10.8 3.6 0 0 -10.8 3.6 0 0 -10.81 3.6 0 0 -10.8 3.6 0 0 -10.81 3.61 0 0 -18.01 3.6 0 0 -14.4 3.6 0 0 -10.81 3.6 0 0 -10.8 3.6 0 0 -10.81 3.6 0 0 -7.2 3.61 0 0 -7.2 3.59 0 0 -7.2 3.61 0 0 -7.21 3.6 0 0 -3.6 3.6 0 0 -7.2 3.6 0 0 -3.6 3.6 0 0 -7.21 3.6 0 0 -3.6 3.61 0 0 -3.6 3.6 0 0 -7.2 3.6 0 0 -3.61 3.6 0 0 -3.6 3.6 0 0 -3.6 3.6 0 0 -3.6 3.61 0 0 -3.6 3.6 0 0 -3.6 3.6 0 0 -3.6 3.6 0 0 -3.61 3.6 0 0 -3.6 7.2 0 0 -3.6 3.61 0 0 -3.6 7.2 0 0 -3.6 7.2 0 0 -3.6 7.21 0 0 -3.61 14.4 0 0 -3.59 7.21 0 0 -3.61 39.61 0 0 3.61 14.41 0 0 3.59 10.8 0 0 3.61 7.2 0 0 3.6 7.2 0 0 3.6 7.21 0 0 3.6 3.6 0 0 3.6 3.6 0 0 3.6 3.61 0 0 3.61 3.59 0 0 3.6 3.61 0 0 3.6 3.6 0 0 3.6 3.6 0 0 3.6 3.6 0 0 3.6 3.6 0 0 3.6 3.6 0 0 3.61 3.61 0 0 7.2 3.6 0 0 3.6 3.6 0 0 3.6 3.6 0 0 7.21 3.6 0 0 3.6 3.6 0 0 7.2 3.6 0 0 7.2 3.61 0 0 7.2 3.6 0 0 7.21 3.6 0 0 3.6 3.6 0 0 7.2 3.6 0 0 7.21 3.6 0 0 10.8 3.61 0 0 7.2 3.59 0 0 7.21 3.61 0 0 10.8 3.6 0 0 3.6 3.6 0 0 14.41 3.6 0 0 10.8 3.61 0 0 10.81 3.59 0 0 10.8 3.61 0 0 10.81 3.6 0 0 7.2 3.6 0 0 14.4 3.6 0 0 7.21 3.6 0 0 10.8 3.6 0 0 10.81 3.61 0 0 10.8 3.6 0 0 7.21 3.6 0 0 14.4 3.6 0 0 10.8 3.6 0 0 10.81 3.6 0 0 14.41 3.6 0 0 18 3.61 0 0 18.01 3.6 0 0 79.23 -3.6 0 0 18.01 -3.61 0 0 7.2 -3.6 0 0 7.2 -3.6 0 0 7.21 -3.6 0 0 3.6 -3.6 0 0 7.2 -3.6 0 0 3.6 -3.6 0 0 3.61 -3.61 0 0 3.59 -3.6 0 0 3.61 -3.6 0 0 3.6 -3.6 0 0 3.6 -3.6 0 0 3.6 -7.21 0 0 3.6 -3.59 0 0 3.6 -7.21 0 0 3.61 -7.2 0 0 3.6 -3.61 0 0 3.6 -7.2 0 0 3.6 -3.6 0 0 3.6 -7.2 0 0 3.6 -3.6 0 0 3.61 -7.21 0 0 3.6 -7.2 0 0 3.6 -3.6 0 0 3.6 -7.2 0 0 3.6 -3.6 0 0 3.6 -7.21 0 0 3.6 -3.6 0 0 3.61 -3.6 0 0 3.6 -7.2 0 0 3.6 -3.61 0 0 3.6 -3.59 0 0 3.6 -7.21 0 0 3.6 -3.6 0 0 3.61 -3.6 0 0 3.6 -7.2 0 0 3.6 -3.61 0 0 3.6 -7.2 0 0 3.6 -7.2 0 0 3.6 -7.21 0 0 3.61 -43.21 0 0 -3.61 -10.81 0 0 -3.6 -7.2 0 0 -3.6 -3.6 0 0 -3.6 -7.2 0 0 -3.6 -7.21 0 0 -3.6 -3.6 0 0 -3.61 -3.6 0 0 -3.6 -7.2 0 0 -3.6 -3.61 0 0 -3.6 -7.2 0 0 -3.6 -3.6 0 0 -3.6 -3.6 0 0 -3.61 -7.2 0 0 -3.6 -7.21 0 0 -3.6 -7.2 0 0 -3.6 -3.6 0 0 -3.6 -3.6 0 0 -3.6 -7.21 0 0 -3.6 -7.2 0 0 -3.61 -7.2 0 0 -3.6 -3.61 0 0 -3.6 -7.2 0 0 -3.6 -7.2 0 0 -3.6 -3.6 0 0 -3.6 -7.2 0 0 -3.61 -3.61 0 0 -3.6 -7.2 0 0 -3.6 -3.6 0 0 -3.6 -3.6 0 0 -3.6 -3.6 0 0 -3.6 -3.61 0 0 -3.61 -3.6 0 0 -3.59 -3.6 0 0 -3.61 -3.6 0 0 -7.2 -3.6 0 0 -3.6 -3.6 0 0 -7.2 -3.6 0 0 -10.81 -3.61 0 0 -10.8 -3.59 0 0 -14.41 -3.61 0 0 -18 -3.6 0 0 -64.83zm64.37 -273.88l-12.9 30.07 -4.65 13.31 -3.6 0 0 18.01 -3.6 0 0 18.01 -3.61 0 0 7.2 -3.6 0 0 10.8 -3.6 0 0 10.81 -3.6 0 0 10.8 -3.6 0 0 10.81 -3.6 0 0 10.8 -3.6 0 0 7.21 -3.61 0 0 10.8 -3.59 0 0 14.41 -3.61 0 0 7.2 -3.6 0 0 14.4 -3.6 0 0 7.21 -3.6 0 0 14.4 -3.61 0 0 14.41 -3.59 0 0 18.01 -3.61 0 0 25.21 -3.6 0 0 82.83 3.6 0 0 10.81 3.61 0 0 14.4 3.59 0 0 10.81 3.61 0 0 7.2 3.6 0 0 7.2 3.6 0 0 7.21 3.6 0 0 3.59 3.61 0 0 7.21 3.59 0 0 3.6 3.61 0 0 3.6 3.6 0 0 3.6 3.6 0 0 3.6 3.6 0 0 3.61 3.6 0 0 3.6 3.6 0 0 3.6 3.6 0 0 3.6 7.21 0 0 3.6 3.6 0 0 3.6 7.2 0 0 3.61 7.21 0 0 3.6 3.6 0 0 3.6 7.2 0 0 3.6 3.6 0 0 3.6 7.21 0 0 3.6 7.2 0 0 3.6 3.6 0 0 3.61 7.2 0 0 3.6 7.2 0 0 3.6 7.21 0 0 3.6 3.6 0 0 3.6 3.6 0 0 3.6 7.2 0 0 3.61 7.21 0 0 3.6 3.6 0 0 3.6 3.6 0 0 3.6 7.2 0 0 3.6 3.6 0 0 3.6 7.21 0 0 3.61 7.2 0 0 3.59 3.6 0 0 3.61 7.21 0 0 3.6 7.2 0 0 3.6 7.2 0 0 3.6 7.21 0 0 3.6 14.4 0 0 3.6 28.81 0 0 -3.6 14.41 0 0 -3.6 7.2 0 0 -3.6 7.2 0 0 -3.6 7.2 0 0 -3.6 7.21 0 0 -3.61 3.6 0 0 -3.59 7.21 0 0 -3.61 3.59 0 0 -3.6 3.61 0 0 -3.6 7.2 0 0 -3.6 3.6 0 0 -3.6 7.2 0 0 -3.6 3.61 0 0 -3.61 3.6 0 0 -3.6 7.2 0 0 -3.6 3.6 0 0 -3.6 7.2 0 0 -3.6 3.61 0 0 -3.6 7.2 0 0 -3.61 3.6 0 0 -3.6 7.2 0 0 -3.6 3.61 0 0 -3.6 7.2 0 0 -3.6 7.2 0 0 -3.6 3.6 0 0 -3.6 7.2 0 0 -3.61 3.61 0 0 -3.6 7.2 0 0 -3.6 3.6 0 0 -3.6 3.6 0 0 -3.6 7.21 0 0 -3.6 3.6 0 0 -3.61 3.6 0 0 -3.6 3.6 0 0 -3.6 3.6 0 0 -3.6 3.6 0 0 -3.6 3.6 0 0 -3.6 3.61 0 0 -3.61 3.6 0 0 -3.59 3.6 0 0 -7.21 3.6 0 0 -7.2 3.6 0 0 -10.81 3.6 0 0 -7.2 3.61 0 0 -14.4 3.6 0 0 -18.01 3.6 0 0 -64.83 -3.6 0 0 -18 -3.6 0 0 -18.01 -3.61 0 0 -14.41 -3.6 0 0 -14.4 -3.6 0 0 -10.81 -3.6 0 0 -10.8 -3.6 0 0 -14.41 -3.6 0 0 -7.2 -3.61 0 0 -10.81 -3.6 0 0 -7.2 -3.6 0 0 -10.8 -3.6 0 0 -10.81 -3.6 0 0 -10.8 -3.6 0 0 -10.8 -3.6 0 0 -7.21 -3.61 0 -2.71 -15.29 -9.37 -15.78 -12.08 -32.99 -6.09 -12.23 -9.36 -28.15 -3.61 0 0 -3.61 -3.59 0 0 -7.2 -3.61 0 0 -7.2 -3.6 0 0 -7.2 -3.6 0 0 -3.6 -3.6 0 0 -7.21 -3.6 0 0 -7.2 -3.6 0 0 -3.6 -3.61 0 0 -3.6 -3.6 0 0 -7.21 -3.6 0 0 -3.6 -3.6 0 0 -3.6 -3.6 0 0 -3.6 -3.6 0 0 -3.6 -3.6 0 0 -3.6 -3.61 0 0 -7.21 -3.6 0 0 -3.6 -7.2 0 0 -3.6 -3.6 0 0 -3.6 -3.6 0 0 -3.6 -3.61 0 0 -3.61 -7.2 0 0 -3.59 -3.6 0 0 -3.61 -7.2 0 0 -3.6 -7.2 0 0 -3.6 -7.21 0 0 -3.6 -10.8 0 0 -3.6 -10.81 0 0 -3.6 -46.81 0 0 3.6 -14.41 0 0 3.6 -10.81 0 0 3.6 -10.8 0 0 3.6 -7.2 0 0 3.6 -7.21 0 0 3.61 -7.2 0 0 3.59 -3.6 0 0 3.61 -3.6 0 0 3.6 -7.21 0 0 3.6 -3.6 0 0 3.6 -3.6 0 0 3.6 -3.6 0 0 3.6 -3.6 0 0 3.61 -3.6 0 0 3.6 -3.61 0 0 3.6 -3.6 0 0 3.6 -3.6 0 0 7.2 -3.6 0 0 3.6 -3.6 0 0 7.21 -3.6 0 0 3.6 -3.61 0 0 7.2 -3.59 0 0 3.6 -3.61 7.38 -14.86 21.27z"/>
 </g>
</svg>
