<?xml version="1.0" encoding="UTF-8"?>
<!DOCTYPE svg PUBLIC "-//W3C//DTD SVG 1.1//EN" "http://www.w3.org/Graphics/SVG/1.1/DTD/svg11.dtd">
<!-- Creator: CorelDRAW (Versión de evaluación) -->
<svg xmlns="http://www.w3.org/2000/svg" xml:space="preserve" width="739px" height="2458px" version="1.1" style="shape-rendering:geometricPrecision; text-rendering:geometricPrecision; image-rendering:optimizeQuality; fill-rule:evenodd; clip-rule:evenodd"
viewBox="0 0 739 2457.4"
 xmlns:xlink="http://www.w3.org/1999/xlink"
 xmlns:xodm="http://www.corel.com/coreldraw/odm/2003">
 <defs>
  <style type="text/css">
   <![CDATA[
    .str0 {stroke:#4B4B4D;stroke-width:10;stroke-miterlimit:22.9256}
    .str1 {stroke:#373435;stroke-width:5;stroke-miterlimit:22.9256}
    .fil0 {fill:none}
    .fil1 {fill:#FEFEFE}
   ]]>
  </style>
 </defs>
 <g id="tooth-implant-38">
  <metadata id="CorelCorpID_0Corel-Layer"/>
  <path id="root" class="fil0 str0" d="M507.67 1829.32l-269.97 -0.43c-0.8,244.9 272.93,243.17 269.97,0.43zm9.1 -167.61c-100.5,20.61 -180.79,47.76 -288.36,53.73l0 80.9 288.36 -33.89 0 -100.74zm0.45 -162.15c-101.1,17.89 -179.39,46.94 -288.81,53.82l0.65 97.95c101.14,-7.15 190.62,-24.47 285.38,-56.6l2.78 -95.17zm-0.05 -164.94c-99.18,18.02 -177.25,46.78 -284.48,53.36l-4.52 101.08c106.44,-6.69 188.33,-28 286.62,-56.51l2.38 -97.93zm-0.4 -171.53c-99.85,20.64 -181.33,48.33 -288.36,53.55l0 107.49c96.18,-6.72 202.97,-24.59 288.36,-57.58l0 -103.46zm-1.46 -135.66c-113.97,-5.26 -178.53,0.49 -285.71,22.93l-0.05 102.48c101.32,-7.35 189.85,-25.32 286.27,-56.73l-0.51 -68.68zm-5.73 -376.63l-274.24 0 1.06 343.17 273.4 0 -0.22 -343.17zm-152.66 -34.9c46.18,-0.02 114.97,11.81 156.19,-8.73l5.74 -50.02 -292.48 0.12c8.08,77.36 -7.52,58.71 130.55,58.63zm-49.66 -69c25.44,4.3 52.35,4.29 77.79,0l159.97 0c0.1,26.66 -7.29,33.46 -10.3,97.87 -2.91,62.34 -5.15,375.43 11.25,417.37l15.88 26.58c0.97,2.24 2.65,4.73 3.37,7.04 19.29,61.71 -41.33,22.86 -24.12,122.29 13.95,80.6 41.22,-12.98 25.92,74.09 -10.01,56.98 -31.12,-7.39 -27.21,78.95 4.63,102.11 27.85,-9.56 28.43,76.5 0.56,81.96 -22.94,-15.57 -28.31,75.82 -1.88,31.89 2.73,31.1 9.06,44.6 16.44,35.03 8.02,-29.85 18.46,34.04 12.84,78.54 -12.95,-3.08 -26.36,73.93 -9.48,54.42 16.15,73.99 20.45,83.86 23.55,54.04 -2.8,38.43 -27.12,53.15 -6.46,144.9 -73.04,259.3 -192.67,230.4 -107.34,-25.92 -137.71,-154.57 -137.71,-314.25 -32.07,-33.12 -41.88,-23.29 -15.78,-72.06 1.22,-2.28 3.23,-4.01 4.46,-6.33 9.78,-18.39 2.73,8.73 10.4,-22 19.39,-77.7 -44.7,-72.29 -18.98,-127.59 16.3,-35.05 19.9,7.6 19.9,-97.32l-23.75 -23.45c-7.12,-14.22 -6.24,-26.12 0.66,-40.81 9.83,-20.88 35.8,-7.45 23.68,-86.84 -11.38,-74.61 -1.31,-9.45 -16.47,-37.82 -0.19,-0.37 -28.45,2.53 -4.12,-50.09l8.66 -14.11 3.27 0 4.12 -12.05c6.55,-18.9 3.95,-37.71 3.95,-60.14 -3.17,-9.83 -5.82,-15.12 -8.07,-17.5l0 -0.5 -16.95 -7.56 -0.74 -9.06c-6.21,-81.18 5.98,-0.07 27.95,-48.66 16.57,-36.64 -2.63,-330.49 -4.46,-448.35l105.49 0z"/>
  <path id="crown" class="fil1 str1" d="M580.57 89.09l-13.25 -10.32c82.72,-57.36 109.39,-87.38 148.24,82.45 45.87,200.52 26.59,588.74 -88.6,637.59 -215.99,91.58 -237.44,-77.6 -402.91,-75.49 -79.34,1.05 -104.9,60.33 -152.4,68.85 -76.88,-188.48 -115.64,-685.66 5.32,-773.95 40.18,-29.33 131.99,16.93 161.87,59.82l-39.12 51.37c62.71,3.92 44.19,-36.21 91.1,-66.32 213.32,-136.96 149.59,-22.38 291.73,74.56l28.62 -0.9 -30.6 -47.66z"/>
 </g>
</svg>
