<?xml version="1.0" encoding="UTF-8"?>
<!DOCTYPE svg PUBLIC "-//W3C//DTD SVG 1.1//EN" "http://www.w3.org/Graphics/SVG/1.1/DTD/svg11.dtd">
<!-- Creator: CorelDRAW (Versión de evaluación) -->
<svg xmlns="http://www.w3.org/2000/svg" xml:space="preserve" width="497px" height="2062px" version="1.1" style="shape-rendering:geometricPrecision; text-rendering:geometricPrecision; image-rendering:optimizeQuality; fill-rule:evenodd; clip-rule:evenodd"
viewBox="0 0 497 2063.64"
 xmlns:xlink="http://www.w3.org/1999/xlink"
 xmlns:xodm="http://www.corel.com/coreldraw/odm/2003">
 <defs>
  <style type="text/css">
   <![CDATA[
    .str0 {stroke:#4B4B4D;stroke-width:20.01;stroke-miterlimit:22.9256}
    .fil0 {fill:#BDBFC1}
    .fil2 {fill:#4B4B4D}
    .fil1 {fill:#FAFAF7}
   ]]>
  </style>
 </defs>
 <g id="implant">
  <metadata id="CorelCorpID_0Corel-Layer"/>
  <path id="root" class="fil0 str0" d="M303.24 1503.17c-21.47,-3.63 -44.18,-3.62 -65.66,0l-135.02 0c-0.09,-22.5 6.15,-28.24 8.69,-82.6 2.45,-52.63 4.35,-316.89 -9.49,-352.29l-13.41 -22.44c-0.82,-1.88 -2.23,-3.99 -2.84,-5.93 -16.29,-52.09 34.88,-19.3 20.35,-103.23 -11.77,-68.02 -34.79,10.96 -21.87,-62.54 8.45,-48.09 26.27,6.25 22.97,-66.63 -3.91,-86.19 -23.52,8.06 -24.01,-64.57 -0.46,-69.18 19.37,13.14 23.91,-64 1.58,-26.92 -2.31,-26.24 -7.66,-37.64 -13.87,-29.57 -6.76,25.19 -15.57,-28.73 -10.84,-66.3 10.92,2.6 22.24,-62.4 8.01,-45.94 -13.63,-62.46 -17.26,-70.79 -19.88,-45.6 2.36,-32.44 22.9,-44.86 5.45,-122.3 61.65,-218.86 162.62,-194.47 90.59,21.88 116.23,130.47 116.23,265.24 27.07,27.96 35.36,19.67 13.32,60.83 -1.03,1.92 -2.72,3.39 -3.76,5.34 -8.26,15.52 -2.3,-7.37 -8.78,18.57 -16.36,65.59 37.73,61.02 16.02,107.69 -13.76,29.59 -16.8,-6.41 -16.8,82.15l20.05 19.79c6.01,12.01 5.27,22.05 -0.56,34.44 -8.3,17.63 -30.21,6.3 -19.99,73.3 9.61,62.98 1.11,7.98 13.9,31.93 0.17,0.31 24.02,-2.14 3.48,42.28l-7.3 11.91 -2.76 0 -3.48 10.17c-5.53,15.95 -3.34,31.83 -3.34,50.76 2.68,8.3 4.92,12.76 6.82,14.77l0 0.42 14.3 6.38 0.62 7.65c5.25,68.52 -5.04,0.06 -23.59,41.07 -13.98,30.93 -9.9,278.95 -8.36,378.43l-76.91 0zm-41.92 -58.24c-38.98,0.02 -97.03,-9.96 -131.83,7.38l-4.85 42.21 246.88 -0.1c-6.83,-65.29 6.34,-49.55 -110.2,-49.49zm-128.85 -29.46l231.47 0 -0.89 -289.65 -230.77 0 0.19 289.65zm-4.84 -317.89c96.2,4.44 150.69,-0.42 241.16,-19.35l0.04 -86.51c-85.52,6.21 -160.24,21.37 -241.62,47.89l0.42 57.97zm-1.23 -114.5c84.28,-17.42 153.05,-40.8 243.4,-45.2l0 -90.73c-81.18,5.66 -171.33,20.75 -243.4,48.6l0 87.33zm-0.34 -144.79c83.72,-15.21 149.61,-39.48 240.12,-45.03l3.82 -85.32c-89.84,5.64 -158.96,23.63 -241.93,47.69l-2.01 82.66zm-0.04 -139.22c85.33,-15.1 151.42,-39.62 243.78,-45.43l-0.56 -82.67c-85.37,6.04 -160.89,20.65 -240.87,47.78l-2.35 80.32zm0.38 -136.86c84.83,-17.4 152.6,-40.31 243.4,-45.35l0 -68.28 -243.4 28.6 0 85.03zm7.68 -141.47l227.87 0.36c0.68,-206.71 -230.36,-205.25 -227.87,-0.36z"/>
  <polygon id="crown" class="fil1" points="208.23,1350.96 197.42,1350.96 197.42,1354.57 190.22,1354.57 190.22,1358.17 183.02,1358.17 183.02,1361.77 175.81,1361.77 175.81,1365.37 172.21,1365.37 172.21,1368.97 165.01,1368.97 165.01,1372.57 161.41,1372.57 161.41,1376.17 157.81,1376.17 157.81,1379.78 154.2,1379.78 154.2,1383.38 150.6,1383.38 150.6,1390.58 143.4,1390.58 143.4,1397.78 139.8,1397.78 139.8,1401.39 136.2,1401.39 136.2,1408.59 132.59,1408.59 132.59,1415.79 129,1415.79 129,1419.39 125.39,1419.39 125.39,1426.59 121.79,1426.59 121.79,1433.8 118.19,1433.8 118.19,1441 114.59,1441 114.59,1448.2 110.98,1448.2 110.98,1455.41 107.39,1455.41 107.39,1462.61 103.78,1462.61 103.78,1469.81 100.18,1469.81 100.18,1477.02 96.58,1477.02 96.58,1484.22 92.98,1484.22 92.98,1495.02 89.38,1495.02 89.38,1505.83 85.78,1505.83 85.78,1513.03 82.17,1513.03 82.17,1527.44 78.57,1527.44 78.57,1541.84 74.97,1541.84 74.97,1552.65 71.37,1552.65 71.37,1563.45 67.77,1563.45 67.77,1574.26 64.17,1574.26 64.17,1588.66 60.57,1588.66 60.57,1603.07 56.96,1603.07 56.96,1613.87 53.36,1613.87 53.36,1621.07 49.76,1621.07 49.76,1639.08 46.16,1639.08 46.16,1649.89 42.56,1649.89 42.56,1664.29 38.96,1664.29 38.96,1678.7 35.35,1678.7 35.35,1693.11 31.75,1693.11 31.75,1711.11 28.15,1711.11 28.15,1729.12 24.55,1729.12 24.55,1743.53 20.95,1743.53 20.95,1819.16 24.55,1819.16 24.55,1837.16 28.15,1837.16 28.15,1847.97 31.75,1847.97 31.75,1858.77 35.35,1858.77 35.35,1865.98 38.96,1865.98 38.96,1873.18 42.56,1873.18 42.56,1876.78 46.16,1876.78 46.16,1883.98 49.76,1883.98 49.76,1887.58 53.36,1887.58 53.36,1891.19 56.96,1891.19 56.96,1894.79 64.17,1894.79 64.17,1898.39 67.77,1898.39 67.77,1901.99 71.37,1901.99 71.37,1905.59 74.97,1905.59 74.97,1909.19 82.17,1909.19 82.17,1912.79 85.78,1912.79 85.78,1916.4 92.98,1916.4 92.98,1920 96.58,1920 96.58,1923.6 103.78,1923.6 103.78,1927.2 110.98,1927.2 110.98,1930.8 118.19,1930.8 118.19,1934.4 125.39,1934.4 125.39,1938.01 129,1938.01 129,1941.61 136.2,1941.61 136.2,1945.21 139.8,1945.21 139.8,1948.81 147,1948.81 147,1952.41 154.2,1952.41 154.2,1956.01 157.81,1956.01 157.81,1959.62 161.41,1959.62 161.41,1963.21 168.61,1963.21 168.61,1966.82 175.81,1966.82 175.81,1970.42 179.41,1970.42 179.41,1974.02 183.02,1974.02 183.02,1977.62 190.22,1977.62 190.22,1981.22 193.82,1981.22 193.82,1984.82 201.02,1984.82 201.02,1988.43 204.63,1988.43 204.63,1992.03 215.43,1992.03 215.43,1995.63 222.63,1995.63 222.63,1999.23 237.04,1999.23 237.04,2002.83 262.25,2002.83 262.25,1999.23 276.66,1999.23 276.66,1995.63 283.86,1995.63 283.86,1992.03 291.06,1992.03 291.06,1988.43 294.66,1988.43 294.66,1984.82 298.26,1984.82 298.26,1981.22 301.87,1981.22 301.87,1977.62 309.07,1977.62 309.07,1974.02 312.67,1974.02 312.67,1970.42 316.27,1970.42 316.27,1966.82 319.87,1966.82 319.87,1963.21 327.07,1963.21 327.07,1959.62 330.68,1959.62 330.68,1956.01 334.28,1956.01 334.28,1952.41 341.48,1952.41 341.48,1948.81 345.08,1948.81 345.08,1945.21 352.29,1945.21 352.29,1941.61 355.89,1941.61 355.89,1938.01 363.09,1938.01 363.09,1934.4 366.69,1934.4 366.69,1930.8 373.89,1930.8 373.89,1927.2 377.5,1927.2 377.5,1923.6 384.7,1923.6 384.7,1920 388.3,1920 388.3,1916.4 391.9,1916.4 391.9,1912.79 399.11,1912.79 399.11,1909.19 402.71,1909.19 402.71,1905.59 409.91,1905.59 409.91,1901.99 413.51,1901.99 413.51,1898.39 420.72,1898.39 420.72,1894.79 424.31,1894.79 424.31,1891.19 427.92,1891.19 427.92,1887.58 431.52,1887.58 431.52,1883.98 435.12,1883.98 435.12,1880.38 438.72,1880.38 438.72,1876.78 442.32,1876.78 442.32,1873.18 445.92,1873.18 445.92,1869.58 449.53,1869.58 449.53,1865.98 453.13,1865.98 453.13,1858.77 456.73,1858.77 456.73,1855.17 460.33,1855.17 460.33,1847.97 463.93,1847.97 463.93,1840.77 467.53,1840.77 467.53,1829.96 471.14,1829.96 471.14,1811.96 474.74,1811.96 474.74,1747.13 471.14,1747.13 471.14,1725.52 467.53,1725.52 467.53,1711.11 463.93,1711.11 463.93,1693.11 460.33,1693.11 460.33,1682.3 456.73,1682.3 456.73,1667.89 453.13,1667.89 453.13,1660.69 449.53,1660.69 449.53,1649.89 445.92,1649.89 445.92,1639.08 442.32,1639.08 442.32,1628.28 438.72,1628.28 438.72,1621.07 435.12,1621.07 435.12,1610.27 431.52,1610.27 431.52,1603.07 427.92,1603.07 427.92,1592.26 424.31,1592.26 424.31,1581.46 420.72,1581.46 420.72,1570.65 417.11,1570.65 417.11,1563.45 413.51,1563.45 413.51,1552.65 409.91,1552.65 409.91,1538.24 406.31,1538.24 406.31,1531.04 402.71,1531.04 402.71,1520.24 399.11,1520.24 399.11,1505.83 395.5,1505.83 395.5,1498.63 391.9,1498.63 391.9,1487.82 388.3,1487.82 388.3,1480.62 384.7,1480.62 384.7,1469.81 381.1,1469.81 381.1,1462.61 377.5,1462.61 377.5,1455.41 373.89,1455.41 373.89,1451.81 370.29,1451.81 370.29,1444.6 366.69,1444.6 366.69,1437.4 363.09,1437.4 363.09,1433.8 359.49,1433.8 359.49,1426.59 355.89,1426.59 355.89,1419.39 352.29,1419.39 352.29,1415.79 348.68,1415.79 348.68,1408.59 345.08,1408.59 345.08,1404.99 341.48,1404.99 341.48,1401.39 337.88,1401.39 337.88,1394.18 334.28,1394.18 334.28,1390.58 330.68,1390.58 330.68,1386.98 327.07,1386.98 327.07,1383.38 323.47,1383.38 323.47,1379.78 316.27,1379.78 316.27,1376.17 312.67,1376.17 312.67,1372.57 309.07,1372.57 309.07,1368.97 305.46,1368.97 305.46,1365.37 298.26,1365.37 298.26,1361.77 291.06,1361.77 291.06,1358.17 283.86,1358.17 283.86,1354.57 276.66,1354.57 276.66,1350.96 262.25,1350.96 262.25,1347.36 208.23,1347.36 "/>
  <path id="outline" class="fil2" d="M471.14 1829.96l-3.61 0 0 10.81 -3.6 0 0 7.2 -3.6 0 0 7.2 -3.6 0 0 3.6 -3.6 0 0 7.21 -3.6 0 0 3.6 -3.61 0 0 3.6 -3.6 0 0 3.6 -3.6 0 0 3.6 -3.6 0 0 3.6 -3.6 0 0 3.6 -3.6 0 0 3.61 -3.61 0 0 3.6 -3.59 0 0 3.6 -7.21 0 0 3.6 -3.6 0 0 3.6 -7.2 0 0 3.6 -3.6 0 0 3.6 -7.21 0 0 3.61 -3.6 0 0 3.6 -3.6 0 0 3.6 -7.2 0 0 3.6 -3.61 0 0 3.6 -7.2 0 0 3.6 -3.6 0 0 3.61 -7.2 0 0 3.6 -3.6 0 0 3.6 -7.21 0 0 3.6 -3.6 0 0 3.6 -7.2 0 0 3.6 -3.6 0 0 3.61 -3.61 0 0 3.59 -7.2 0 0 3.61 -3.6 0 0 3.6 -3.6 0 0 3.6 -3.6 0 0 3.6 -7.2 0 0 3.6 -3.61 0 0 3.6 -3.6 0 0 3.61 -3.6 0 0 3.6 -7.2 0 0 3.6 -7.2 0 0 3.6 -14.41 0 0 3.6 -25.21 0 0 -3.6 -14.41 0 0 -3.6 -7.2 0 0 -3.6 -10.8 0 0 -3.6 -3.61 0 0 -3.61 -7.2 0 0 -3.6 -3.6 0 0 -3.6 -7.2 0 0 -3.6 -3.61 0 0 -3.6 -3.6 0 0 -3.6 -7.2 0 0 -3.61 -7.2 0 0 -3.59 -3.6 0 0 -3.61 -3.61 0 0 -3.6 -7.2 0 0 -3.6 -7.2 0 0 -3.6 -3.6 0 0 -3.6 -7.2 0 0 -3.6 -3.61 0 0 -3.61 -7.2 0 0 -3.6 -7.21 0 0 -3.6 -7.2 0 0 -3.6 -7.2 0 0 -3.6 -3.6 0 0 -3.6 -7.2 0 0 -3.61 -3.61 0 0 -3.6 -7.2 0 0 -3.6 -3.6 0 0 -3.6 -3.6 0 0 -3.6 -3.6 0 0 -3.6 -7.21 0 0 -3.6 -3.6 0 0 -3.61 -3.6 0 0 -3.6 -3.6 0 0 -7.2 -3.6 0 0 -3.6 -3.6 0 0 -7.2 -3.61 0 0 -7.21 -3.6 0 0 -10.8 -3.6 0 0 -10.81 -3.6 0 0 -18 -3.6 0 0 -75.63 3.6 0 0 -14.41 3.6 0 0 -18.01 3.6 0 0 -18 3.6 0 0 -14.41 3.61 0 0 -14.41 3.6 0 0 -14.4 3.6 0 0 -10.81 3.6 0 0 -18.01 3.6 0 0 -7.2 3.6 0 0 -10.8 3.61 0 0 -14.41 3.6 0 0 -14.4 3.6 0 0 -10.81 3.6 0 0 -10.8 3.6 0 0 -10.81 3.6 0 0 -14.4 3.6 0 0 -14.41 3.61 0 0 -7.2 3.6 0 0 -10.81 3.6 0 0 -10.8 3.6 0 0 -7.2 3.6 0 0 -7.21 3.6 0 0 -7.2 3.61 0 0 -7.2 3.59 0 0 -7.21 3.61 0 0 -7.2 3.6 0 0 -7.2 3.6 0 0 -7.21 3.6 0 0 -7.2 3.61 0 0 -3.6 3.59 0 0 -7.2 3.61 0 0 -7.2 3.6 0 0 -3.61 3.6 0 0 -7.2 7.2 0 0 -7.2 3.6 0 0 -3.6 3.61 0 0 -3.61 3.6 0 0 -3.6 3.6 0 0 -3.6 7.2 0 0 -3.6 3.6 0 0 -3.6 7.21 0 0 -3.6 7.2 0 0 -3.6 7.2 0 0 -3.61 10.81 0 0 -3.6 54.02 0 0 3.6 14.41 0 0 3.61 7.2 0 0 3.6 7.2 0 0 3.6 7.2 0 0 3.6 7.2 0 0 3.6 3.61 0 0 3.6 3.6 0 0 3.6 3.6 0 0 3.61 7.2 0 0 3.6 3.6 0 0 3.6 3.61 0 0 3.6 3.6 0 0 3.6 3.6 0 0 7.21 3.6 0 0 3.6 3.6 0 0 3.6 3.6 0 0 7.2 3.61 0 0 3.6 3.6 0 0 7.2 3.6 0 0 7.21 3.6 0 0 3.6 3.6 0 0 7.2 3.6 0 0 7.21 3.6 0 0 3.6 3.61 0 0 7.2 3.6 0 0 7.2 3.6 0 0 10.81 3.6 0 0 7.2 3.6 0 0 10.81 3.6 0 0 7.2 3.61 0 0 14.41 3.6 0 0 10.8 3.6 0 0 7.2 3.6 0 0 14.41 3.6 0 0 10.8 3.6 0 0 7.2 3.61 0 0 10.81 3.59 0 0 10.8 3.61 0 0 10.81 3.6 0 0 7.2 3.6 0 0 10.8 3.6 0 0 7.21 3.6 0 0 10.8 3.6 0 0 10.81 3.61 0 0 10.8 3.6 0 0 7.2 3.6 0 0 14.41 3.6 0 0 10.81 3.6 0 0 18 3.6 0 0 14.41 3.61 0 0 21.61 3.6 0 0 64.83 -3.6 0 0 18zm-401.68 -326.48l-9.77 24.66 -9.93 31.71 -3.6 0 0 10.8 -3.6 0 0 7.21 -3.6 0 0 10.8 -3.61 0 0 10.81 -3.6 0 0 14.4 -3.6 0 0 14.41 -3.6 0 0 14.4 -3.6 0 0 14.41 -3.6 0 0 14.41 -3.61 0 0 10.8 -3.59 0 0 21.61 -3.61 0 0 10.81 -3.6 0 0 21.6 -3.6 0 0 86.44 3.6 0 0 18.01 3.6 0 0 14.4 3.61 0 0 10.81 3.59 0 0 7.2 3.61 0 0 7.2 3.6 0 0 7.2 3.6 0 0 3.61 3.6 0 0 7.2 3.6 0 0 3.6 3.6 0 0 3.6 3.61 0 0 3.6 3.6 0 0 3.6 3.6 0 0 3.61 7.2 0 0 3.6 3.6 0 0 3.6 3.61 0 0 3.6 7.2 0 0 3.6 3.6 0 0 3.6 7.2 0 0 3.61 7.21 0 0 3.6 3.6 0 0 3.6 7.2 0 0 3.6 3.6 0 0 3.6 7.21 0 0 3.6 7.2 0 0 3.61 7.2 0 0 3.59 3.6 0 0 3.61 7.2 0 0 3.6 3.61 0 0 3.6 7.2 0 0 3.6 3.6 0 0 3.6 7.2 0 0 3.6 3.61 0 0 3.61 3.6 0 0 3.6 7.2 0 0 3.6 7.2 0 0 3.6 3.6 0 0 3.6 7.21 0 0 3.6 7.2 0 0 3.6 7.2 0 0 3.61 7.21 0 0 3.6 7.2 0 0 3.6 10.81 0 0 3.6 46.81 0 0 -3.6 10.81 0 0 -3.6 7.2 0 0 -3.6 7.2 0 0 -3.61 7.2 0 0 -3.6 3.61 0 0 -3.6 3.6 0 0 -3.6 7.2 0 0 -3.6 3.6 0 0 -3.6 3.6 0 0 -3.6 7.21 0 0 -3.61 3.6 0 0 -3.6 3.6 0 0 -3.6 3.6 0 0 -3.6 7.21 0 0 -3.6 3.6 0 0 -3.6 3.6 0 0 -3.61 7.2 0 0 -3.59 3.6 0 0 -3.61 3.6 0 0 -3.6 7.21 0 0 -3.6 3.6 0 0 -3.6 7.2 0 0 -3.6 3.6 0 0 -3.6 7.21 0 0 -3.61 3.6 0 0 -3.6 7.2 0 0 -3.6 3.6 0 0 -3.6 7.2 0 0 -3.6 3.61 0 0 -3.6 3.6 0 0 -3.61 7.2 0 0 -3.6 3.6 0 0 -3.6 3.6 0 0 -3.6 3.61 0 0 -3.6 7.2 0 0 -3.6 3.6 0 0 -3.6 3.6 0 0 -7.21 3.6 0 0 -3.6 3.61 0 0 -3.6 3.6 0 0 -7.2 3.6 0 0 -3.6 3.6 0 0 -10.81 3.6 0 0 -7.2 3.6 0 0 -14.4 3.6 0 0 -10.81 3.61 0 0 -86.44 -3.61 0 0 -10.8 -3.6 0 0 -21.61 -3.6 0 0 -14.41 -3.6 0 0 -14.4 -3.6 0 0 -7.21 -3.6 0 0 -14.4 -3.6 0 0 -7.2 -3.61 0 0 -14.41 -3.6 0 0 -10.81 -3.6 0 0 -10.8 -3.6 0 0 -7.2 -3.6 0 0 -10.81 -3.6 0 0 -10.8 -3.61 0 0 -7.2 -3.6 0 0 -14.41 -3.6 0 0 -7.2 -3.6 0 0 -10.81 -3.6 0 0 -14.4 -3.6 0 0 -10.81 -3.61 0 0 -7.2 -3.59 0 -5.99 -21.61 -10.57 -17.54 -8.8 -18.01 -10.66 -14.87 0 -7.2 -3.6 0 0 -7.2 -3.6 0 0 -7.21 -3.61 0 0 -3.6 -3.6 0 0 -7.2 -3.6 0 0 -3.6 -3.6 0 0 -7.21 -3.6 0 0 -3.6 -3.6 0 0 -3.6 -3.6 0 0 -3.6 -3.61 0 0 -3.6 -3.6 0 0 -3.61 -3.6 0 0 -3.6 -3.6 0 0 -3.6 -3.6 0 0 -3.6 -3.6 0 0 -3.6 -3.61 0 0 -3.6 -3.6 0 0 -3.6 -3.6 0 0 -3.61 -7.2 0 0 -3.6 -3.6 0 0 -3.6 -7.2 0 0 -3.6 -7.21 0 0 -3.6 -10.8 0 0 -3.6 -10.81 0 0 -3.61 -21.61 0 0 -3.6 -39.61 0 0 3.6 -14.41 0 0 3.61 -10.8 0 0 3.6 -7.21 0 0 3.6 -7.2 0 0 3.6 -3.6 0 0 3.6 -7.2 0 0 3.6 -3.6 0 0 3.61 -3.61 0 0 3.6 -7.2 0 0 3.6 -3.6 0 0 3.6 -3.6 0 0 3.6 -3.6 0 0 3.6 -3.61 0 0 7.21 -3.59 0 0 3.6 -3.61 0 0 3.6 -3.6 0 0 7.2 -3.6 0 0 3.6 -3.6 0 0 7.21 -3.61 0 0 3.6 -3.59 0 0 7.2 -3.61 0 0 7.21 -3.6 0 0 7.2 -3.6 0 0 7.2 -3.6 0 0 10.8 -3.6 0 0 7.21 -3.6 0 0 7.2 -2.92 9.59 -13.4 31.28z"/>
 </g>
</svg>
